<svg width="297.56099373652154" xmlns:xlink="http://www.w3.org/1999/xlink" xmlns="http://www.w3.org/2000/svg" viewBox="-0.5000000000000001 -0.5028856963610584 1.0000000000000002 1.0081966598943346" height="300.0"><style>svg {
  color-scheme: light dark;
}
{
  .canvas g, .title g, .axisbar g, .ticktext g, .tickglyph g, .ticklines g, .legendContent g text {
    fill: #0d0d0d;
  }
  .ticklines g, .tickglyph g, .legendBorder g {
    stroke: #0d0d0d;
  }
}
@media (prefers-color-scheme:dark) {
  .canvas g, .title g, .axisbar g, .ticktext g, .tickglyph g, .ticklines g, .legendContent g text {
    fill: #f0f0f0;
  }
  .ticklines g, .tickglyph g, .legendBorder g {
    stroke: #f0f0f0;
  }
}</style><g class="chart"><g class="arc"><g stroke-opacity="0.0" fill="#1f78b5" stroke="#000000" stroke-width="1.0e-2" fill-opacity="0.1"><path d="M 0.4856,0.3066 A 0.5165918256417512 0.38987403505849605 -0.0 0 1 -0.0310,-0.4732"/></g><g stroke-opacity="1.0" fill="none" stroke="#a6cfe3" stroke-width="2.0e-3"><polyline points="0.4855714432696925,0.3065519100272637
0.46921744847913205,0.31248265025389105
0.45262468623387875,0.31802277895654973
0.43580953158678526,0.3231668286971497
0.41878857906515143,0.32790972291971243
0.4015786262939316,0.33224678096031834
0.3841966574185046,0.3361737226663569
0.36665982634337446,0.33968667262052077
0.3489854398033374,0.3427821639653741
0.331190940283825,0.34545714182472315
0.3132938888072758,0.3477089663184093
0.2953119476025281,0.3495354151675525
0.27726286267433187,0.35093468588767207
0.2591644462901842,0.35190539756752176
0.24103455940177365,0.3524465922318813
0.2228910940183757,0.35255773578696326
0.20475195554960157,0.35223871854749894
0.1866350451349199,0.3514898553449839
0.16855824197739389,0.350311885216978
0.15053938569906655,0.3487059706777642
0.13259625873540815,0.3466736965710877
0.11474656878619915,0.34421706850610573
9.700793134016827e-2,0.3413385108780944
7.939785229063345e-2,0.33804086447586273
6.1933710659297314e-2,0.33432738367823733
4.463274144525231e-2,0.3302017332423832
2.751201861611674e-2,0.32566798468713126
1.0588438258091082e-2,0.3207306122748806
-6.121298098439476e-3,0.3153944885960419
-2.2600699961298765e-2,0.3096648797603789
-3.883350415064424e-2,0.30354744019999413
-5.48036908487613e-2,0.29704820708908686
-7.049549940969052e-2,0.29017359438599133
-8.589344391308085e-2,0.2829303865033742
-0.1009823284469234,0.2753257316128387
-0.11574726210408198,0.26736713459054195
-0.13017367367782062,0.2590624496107887
-0.14424732604182516,0.25041987239490926
-0.15795433020052735,0.24144793212307297
-0.17128115899586677,0.23215548301701622
-0.18421466045696328,0.22255169560199484
-0.19674207077952283,0.21264604765658385
-0.20885102692217206,0.20244831485925363
-0.2205295788072873,0.1919685611409555
-0.23176620111427854,0.1812171287532372
-0.24254980465368742,0.1702046280616904
-0.2528697473108813,0.15894192707479915
-0.26271584454853314,0.147440140718529
-0.2720783794575311,0.13571061986723676
-0.28094811234639316,0.12376494014172879
-0.28931628985972946,0.11161489048551965
-0.2971746536167453,9.927246153056873e-2
-0.3045154483612658,8.674983376397533e-2
-0.3113314296152384,7.405936550730768e-2
-0.31761587082815723,6.121358072043109e-2
-0.32336257001535657,4.8225156641873934e-2
-0.3285658558786204,3.510691127792115e-2
-0.3332205934030696,2.1871790752792386e-2
-0.33732218892480115,8.532856532378175e-3
-0.34086659466427993,-4.896727465847461e-3
-0.3438503127210083,-1.8403707864025787e-2
-0.3462703985255317,-3.197475490339663e-2
-0.348124463745373,-4.5596475599161135e-2
-0.34941067864202796,-5.9255426957738555e-2
-0.35012777387669736,-7.293812924338061e-2
-0.3502750417629694,-8.663107928104219e-2
-0.34985233696522244,-0.10032076378238264
-0.3488600766420523,-0.11399367268175287
-0.34729924003458823,-0.12763631246899676
-0.3451713675000994,-0.14123521950591755
-0.34247855899184865,-0.15477697331326157
-0.33922347198669206,-0.16824820981511224
-0.33540931886247,-0.18163563452761955
-0.33103986372777794,-0.19492603567904943
-0.32611941870724714,-0.20810629724820662
-0.320652839685996,-0.22116341190836608
-0.3146455215174594,-0.23408449386393249
-0.3081033926993201,-0.24685679156716367
-0.3010329095227954,-0.25946770030241084
-0.2934410497010593,-0.27190477462544915
-0.28533530548308067,-0.2841557406456299
-0.27672367625967964,-0.29620850813872635
-0.26761466066909323,-0.30805118247852736
-0.2580172482098464,-0.3196720763753972
-0.2479409103692019,-0.3310597214102178
-0.23739559127594745,-0.34220287935233407
-0.22639169788673913,-0.3530905532503318
-0.21494008971569295,-0.3637119982846998
-0.20305206811735627,-0.37405673237166903
-0.1907393651336341,-0.3841145465077651
-0.17801413191568088,-0.39387551484486083
-0.1648889267321813,-0.40333000448579015
-0.15137670257585673,-0.41246868499085376
-0.13749079438042294,-0.4212825375858391
-0.12324490586062364,-0.42976286406245723
-0.1086530959883148,-0.4379012953624293
-9.37297651179616e-2,-0.4456897998367315
-7.848964077522319e-2,-0.45312069117186715
-6.294776312266648e-2,-0.4601866359753264
-4.7119470116938844e-2,-0.46688066101276204
-3.102038237205873e-2,-0.47319616008972853"/></g><g stroke-opacity="1.0" fill="#a6cfe3" stroke="#1f78b5" stroke-width="3.0e-3" fill-opacity="1.0"><rect width="3.0000000000000027e-2" x="0.21227553578202174" y="-9.832212704372843e-2" height="3.0e-2"/></g><g stroke-opacity="1.0" fill="#6666cc" stroke="#808080" stroke-width="2.0e-3" fill-opacity="0.1"><rect width="0.8358631268655081" x="-0.35029168359581564" y="-0.47319616008972853" height="0.8257664555724668"/></g></g></g><g class="hud"><g class="canvas"><g stroke-opacity="0.0" fill="#ffffff" stroke="#000000" stroke-width="0.0" fill-opacity="2.0e-2"><rect width="0.8451617850602644" x="-0.3549410153597963" y="-0.47748477447537196" height="0.8343436863562497"/></g></g><g class="axis"><g class="ticks"><g class="tickglyph"><g stroke-opacity="0.4" fill="#0d0d0d" stroke="#0d0d0d" stroke-width="4.0e-3" fill-opacity="0.4"><g transform="rotate(-90.0, -0.3828369739444508, 0.3568589118808777)"><polyline points="-0.3828369739444508,0.3718589118808777
-0.3828369739444508,0.3418589118808777"/></g><g transform="rotate(-90.0, -0.3828369739444508, 0.28100948584849134)"><polyline points="-0.3828369739444508,0.29600948584849135
-0.3828369739444508,0.2660094858484913"/></g><g transform="rotate(-90.0, -0.3828369739444508, 0.20516005981610508)"><polyline points="-0.3828369739444508,0.2201600598161051
-0.3828369739444508,0.19016005981610506"/></g><g transform="rotate(-90.0, -0.3828369739444508, 0.12931063378371865)"><polyline points="-0.3828369739444508,0.14431063378371867
-0.3828369739444508,0.11431063378371865"/></g><g transform="rotate(-90.0, -0.3828369739444508, 5.3461207751332396e-2)"><polyline points="-0.3828369739444508,6.84612077513324e-2
-0.3828369739444508,3.8461207751332396e-2"/></g><g transform="rotate(-90.0, -0.3828369739444508, -2.2388218281053862e-2)"><polyline points="-0.3828369739444508,-7.388218281053863e-3
-0.3828369739444508,-3.738821828105386e-2"/></g><g transform="rotate(-90.0, -0.3828369739444508, -9.823764431344029e-2)"><polyline points="-0.3828369739444508,-8.323764431344029e-2
-0.3828369739444508,-0.11323764431344029"/></g><g transform="rotate(-90.0, -0.3828369739444508, -0.1740870703458266)"><polyline points="-0.3828369739444508,-0.1590870703458266
-0.3828369739444508,-0.1890870703458266"/></g><g transform="rotate(-90.0, -0.3828369739444508, -0.2499364963782129)"><polyline points="-0.3828369739444508,-0.2349364963782129
-0.3828369739444508,-0.2649364963782129"/></g><g transform="rotate(-90.0, -0.3828369739444508, -0.3257859224105991)"><polyline points="-0.3828369739444508,-0.3107859224105991
-0.3828369739444508,-0.34078592241059913"/></g><g transform="rotate(-90.0, -0.3828369739444508, -0.40163534844298543)"><polyline points="-0.3828369739444508,-0.3866353484429854
-0.3828369739444508,-0.41663534844298544"/></g><g transform="rotate(-90.0, -0.3828369739444508, -0.47748477447537196)"><polyline points="-0.3828369739444508,-0.46248477447537195
-0.3828369739444508,-0.492484774475372"/></g></g></g><g class="ticktext"><g fill="#0d0d0d" stroke="none" stroke-width="0.0" font-size="4.649326430775761e-2" fill-opacity="1.0" text-anchor="end"><text x="-0.41631212424603636" y="0.36865260144139717">-0.1</text><text x="-0.41631212424603636" y="0.2928031754090108">0</text><text x="-0.41631212424603636" y="0.21695374937662454">0.1</text><text x="-0.41631212424603636" y="0.14110432334423822">0.2</text><text x="-0.41631212424603636" y="6.525489731185191e-2">0.3</text><text x="-0.41631212424603636" y="-1.0594528720534346e-2">0.4</text><text x="-0.41631212424603636" y="-8.644395475292088e-2">0.5</text><text x="-0.41631212424603636" y="-0.16229338078530708">0.6</text><text x="-0.41631212424603636" y="-0.2381428068176934">0.7</text><text x="-0.41631212424603636" y="-0.3139922328500797">0.8</text><text x="-0.41631212424603636" y="-0.389841658882466">0.9</text><text x="-0.41631212424603636" y="-0.46569108491485234">1</text></g></g><g class="ticklines"><g stroke-opacity="5.0e-2" fill="none" stroke="#0d0d0d" stroke-width="5.0e-3"><polyline points="-0.3549410153597963,0.3568589118808777
0.49022076970046813,0.3568589118808777"/><polyline points="-0.3549410153597963,0.28100948584849134
0.49022076970046813,0.28100948584849134"/><polyline points="-0.3549410153597963,0.20516005981610508
0.49022076970046813,0.20516005981610508"/><polyline points="-0.3549410153597963,0.12931063378371865
0.49022076970046813,0.12931063378371865"/><polyline points="-0.3549410153597963,5.3461207751332396e-2
0.49022076970046813,5.3461207751332396e-2"/><polyline points="-0.3549410153597963,-2.2388218281053862e-2
0.49022076970046813,-2.2388218281053862e-2"/><polyline points="-0.3549410153597963,-9.823764431344029e-2
0.49022076970046813,-9.823764431344029e-2"/><polyline points="-0.3549410153597963,-0.1740870703458266
0.49022076970046813,-0.1740870703458266"/><polyline points="-0.3549410153597963,-0.2499364963782129
0.49022076970046813,-0.2499364963782129"/><polyline points="-0.3549410153597963,-0.3257859224105991
0.49022076970046813,-0.3257859224105991"/><polyline points="-0.3549410153597963,-0.40163534844298543
0.49022076970046813,-0.40163534844298543"/><polyline points="-0.3549410153597963,-0.47748477447537196
0.49022076970046813,-0.47748477447537196"/></g></g></g><g class="axisbar"><g stroke-opacity="0.0" fill="#0d0d0d" stroke="#000000" stroke-width="0.0" fill-opacity="0.4"><rect width="3.7194611446205728e-3" x="-0.36795912936596836" y="-0.47920022022962916" height="0.8377745778647643"/></g></g></g><g class="axis"><g class="ticks"><g class="tickglyph"><g stroke-opacity="0.4" fill="#0d0d0d" stroke="#0d0d0d" stroke-width="4.0e-3" fill-opacity="0.4"><polyline points="-0.3549410153597963,0.3975905981947384
-0.3549410153597963,0.3675905981947384"/><polyline points="-0.2610341503531002,0.3975905981947384
-0.2610341503531002,0.3675905981947384"/><polyline points="-0.1671272853464041,0.3975905981947384
-0.1671272853464041,0.3675905981947384"/><polyline points="-7.322042033970805e-2,0.3975905981947384
-7.322042033970805e-2,0.3675905981947384"/><polyline points="2.068644466698799e-2,0.3975905981947384
2.068644466698799e-2,0.3675905981947384"/><polyline points="0.11459330967368409,0.3975905981947384
0.11459330967368409,0.3675905981947384"/><polyline points="0.20850017468038018,0.3975905981947384
0.20850017468038018,0.3675905981947384"/><polyline points="0.3024070396870763,0.3975905981947384
0.3024070396870763,0.3675905981947384"/><polyline points="0.39631390469377226,0.3975905981947384
0.39631390469377226,0.3675905981947384"/><polyline points="0.49022076970046813,0.3975905981947384
0.49022076970046813,0.3675905981947384"/></g></g><g class="ticktext"><g fill="#0d0d0d" stroke="none" stroke-width="0.0" font-size="4.609973373055988e-2" fill-opacity="1.0" text-anchor="end"><text x="-0.3549410153597963" y="0.43685635143655277" transform="rotate(-45.0, -0.3549410153597963, 0.43685635143655277)">-0.8</text><text x="-0.2610341503531002" y="0.43685635143655277" transform="rotate(-45.0, -0.2610341503531002, 0.43685635143655277)">-0.6</text><text x="-0.1671272853464041" y="0.43685635143655277" transform="rotate(-45.0, -0.1671272853464041, 0.43685635143655277)">-0.4</text><text x="-7.322042033970805e-2" y="0.43685635143655277" transform="rotate(-45.0, -7.322042033970805e-2, 0.43685635143655277)">-0.2</text><text x="2.068644466698799e-2" y="0.43685635143655277" transform="rotate(-45.0, 2.068644466698799e-2, 0.43685635143655277)">0</text><text x="0.11459330967368409" y="0.43685635143655277" transform="rotate(-45.0, 0.11459330967368409, 0.43685635143655277)">0.2</text><text x="0.20850017468038018" y="0.43685635143655277" transform="rotate(-45.0, 0.20850017468038018, 0.43685635143655277)">0.4</text><text x="0.3024070396870763" y="0.43685635143655277" transform="rotate(-45.0, 0.3024070396870763, 0.43685635143655277)">0.6</text><text x="0.39631390469377226" y="0.43685635143655277" transform="rotate(-45.0, 0.39631390469377226, 0.43685635143655277)">0.8</text><text x="0.49022076970046813" y="0.43685635143655277" transform="rotate(-45.0, 0.49022076970046813, 0.43685635143655277)">1</text></g></g><g class="ticklines"><g stroke-opacity="5.0e-2" fill="none" stroke="#0d0d0d" stroke-width="5.0e-3"><polyline points="-0.3549410153597963,0.3568589118808777
-0.3549410153597963,-0.47748477447537196"/><polyline points="-0.2610341503531002,0.3568589118808777
-0.2610341503531002,-0.47748477447537196"/><polyline points="-0.1671272853464041,0.3568589118808777
-0.1671272853464041,-0.47748477447537196"/><polyline points="-7.322042033970805e-2,0.3568589118808777
-7.322042033970805e-2,-0.47748477447537196"/><polyline points="2.068644466698799e-2,0.3568589118808777
2.068644466698799e-2,-0.47748477447537196"/><polyline points="0.11459330967368409,0.3568589118808777
0.11459330967368409,-0.47748477447537196"/><polyline points="0.20850017468038018,0.3568589118808777
0.20850017468038018,-0.47748477447537196"/><polyline points="0.3024070396870763,0.3568589118808777
0.3024070396870763,-0.47748477447537196"/><polyline points="0.39631390469377226,0.3568589118808777
0.39631390469377226,-0.47748477447537196"/><polyline points="0.49022076970046813,0.3568589118808777
0.49022076970046813,-0.47748477447537196"/></g></g></g><g class="axisbar"><g stroke-opacity="0.0" fill="#0d0d0d" stroke="#000000" stroke-width="0.0" fill-opacity="0.4"><rect width="0.8488812462048851" x="-0.35680074593210653" y="0.36543614065216456" height="3.430891508514833e-3"/></g></g></g></g></svg>