<svg width="301.93265536859315" xmlns:xlink="http://www.w3.org/1999/xlink" xmlns="http://www.w3.org/2000/svg" viewBox="-0.5 -0.49775889340849894 1.0 0.9935990515294418" height="300.0"><style>svg {
  color-scheme: light dark;
}
@media (prefers-color-scheme:dark) {
  svg {
    background-color: #f0f0f0;
  }
}</style><g stroke-opacity="0.0" fill="#ffffff" stroke="#000000" stroke-width="0.0" fill-opacity="2.0e-2"><rect width="0.786486510640544" x="-0.294745866258585" y="-0.4780884115192092" height="0.8430744520445623"/></g><g stroke-opacity="0.0" fill="#1f78b5" stroke="#000000" stroke-width="1.0e-2" fill-opacity="0.1"><path d="M 0.4878,0.3143 A 0.4812627706313977 0.3941047153580405 -0.0 0 1 0.0066,-0.4739"/></g><g stroke-opacity="1.0" fill="none" stroke="#a6cfe3" stroke-width="2.0e-3"><polyline points="0.4878471468047938,0.31429465509797494
0.4726115808257554,0.3202897521772835
0.4571535763932264,0.32588999904953453
0.4414883886911123,0.3310898689472632
0.42563147736819185,0.33588423022673625
0.40959849128130665,0.3402683514322633
0.3934052530518307,0.34423790596557235
0.3770677434506533,0.347788976355641
0.36060208562708707,0.35091805812476573
0.3440245291972678,0.35362206324706036
0.3273514342077428,0.35589832319596215
0.310599254990085,0.35774459157774763
0.2937845239224489,0.3591590463484503
0.2769238351141132,0.36014029161199923
0.26003382802909747,0.36068735899779913
0.24313117106502036,0.3607997086163955
0.2262325451034034,0.3604772295922806
0.20935462704765595,0.35972024017331355
0.19251407336498416,0.3585294874166484
0.17572750364846978,0.35690614645147956
0.1590114842155379,0.3548518193193301
0.14238251175900285,0.35236853339303065
0.12585699706682318,0.34945873937594796
0.1094512488266366,0.34612530888343507
9.318145753105245e-2,0.34237153160889533
7.70636794995937e-2,0.3382011120772509
6.111382103304486e-2,0.33361816598902405
4.5347622715855906e-2,0.3286272161586391
2.9780643882085234e-2,0.3232331880509491
1.4428247260215743e-2,0.3174414049203975
-6.944161880034216e-4,0.3112575825576087
-1.5572422219726045e-2,0.3046878236485925
-3.019108803943521e-2,0.29773861175213023
-4.453598678908993e-2,0.2904168049012851
-5.859296178569029e-2,0.28272962883535147
-7.234814049221655e-2,0.2746846698689227
-8.578794820814645e-2,0.2662898674051146
-9.889912146604662e-2,0.25755350610033323
-0.11166872112101256,0.24848420768831947
-0.12408414512004262,0.23909092247153885
-0.13613314093874346,0.2293829204883131
-0.1478038176730912,0.21936978236441257
-0.15908465777431802,0.20906138985813505
-0.16996452841534282,0.19846791610820308
-0.18043269247752702,0.18759981559410438
-0.19047881914691323,0.17646781381878462
-0.200092994109493,0.16508289672386822
-0.20926572933543636,0.15345629984786263
-0.21798797244263224,0.14159949723803716
-0.22625111563029565,0.12952419012692568
-0.23404700417382918,0.11724229538462011
-0.24136794447255044,0.1047659337582606
-0.24820671164234764,9.21074179103214e-2
-0.2545565566457669,7.927924026749927e-2
-0.2604112129524985,6.629406069219612e-2
-0.26576490272368497,5.3164693988765e-2
-0.27061234251395,3.990409725684402e-2
-0.2749487484855223,2.652535710426468e-2
-0.2787698411293049,1.3041676732148566e-2
-0.2820718494882338,-5.336370950559388e-4
-0.2848515148787578,-1.4187187181744942e-2
-0.28710609410676585,-2.790549912257312e-2
-0.2888333621747878,-4.1675034600065275e-2
-0.2900316144777981,-5.548220474529897e-2
-0.2906996684854566,-6.931338354848016e-2
-0.29083686490912086,-8.315492130616853e-2
-0.2904430683524872,-9.699315809188491e-2
-0.28951866744520754,-0.11081443723681239
-0.2880645744593615,-0.12460511880727754
-0.28608222440915243,-0.13835159306571831
-0.2835735736347221,-0.1520402939018518
-0.2805410978714793,-0.16565771222078696
-0.2769877898068479,-0.17919040927487073
-0.27291715612684503,-0.19262502992610897
-0.2683332140554071,-0.20594831582607376
-0.2632404873898728,-0.2191471185002949
-0.2576440020365425,-0.23220841232421507
-0.25154928105071583,-0.2451193073779082
-0.244962339186102,-0.25786706216687505
-0.23788967695898489,-0.27043909619635953
-0.23033827423299774,-0.28282300238677793
-0.22231558333084167,-0.29500655931800757
-0.21382952167974162,-0.30697774329045413
-0.20488846399790261,-0.3187247401909906
-0.1955012340296733,-0.3302359571520611
-0.18567709583757702,-0.3415000339924399
-0.17542574465979932,-0.35250585442836035
-0.16475729734215855,-0.36324255704394404
-0.15368228235400233,-0.3736995460101057
-0.14221162939787735,-0.3838665015413596
-0.13035665862323348,-0.39373339008019925
-0.11812906945480328,-0.40329047419900954
-0.10554092904668372,-0.4125283222097289
-9.260466037350862e-2,-0.4214378174717901
-7.933302997047714e-2,-0.4300101673891408
-6.573913533432008e-2,-0.43823691208747684
-5.1836391997657494e-2,-0.4461099327631145
-3.7638520289482835e-2,-0.4536214596952701
-2.3159531794858856e-2,-0.4607640799138366
-8.413715527172294e-3,-0.46753074451509
6.584376173395912e-3,-0.47391477561810613"/></g><g stroke-opacity="1.0" fill="#a6cfe3" stroke="#1f78b5" stroke-width="3.0e-3" fill-opacity="1.0"><rect width="3.0000000000000027e-2" x="0.23221576645756836" y="-9.481006229440024e-2" height="3.0e-2"/></g><g stroke-opacity="1.0" fill="#6666cc" stroke="#808080" stroke-width="2.0e-3" fill-opacity="0.1"><rect width="0.7786995154330726" x="-0.2908523686282788" y="-0.47391477561810613" height="0.8347271802205979"/></g><g stroke-opacity="0.0" fill="#0d0d0d" stroke="#000000" stroke-width="0.0" fill-opacity="0.4"><rect width="0.8780505151287306" x="-0.3847524717159053" y="0.3733333143401352" height="3.338908720882383e-3"/></g><g stroke-opacity="0.4" fill="#0d0d0d" stroke="#0d0d0d" stroke-width="4.0e-3" fill-opacity="0.4"><polyline points="-0.38319507268503916,0.4050278559319711
-0.38319507268503916,0.3750278559319711"/><polyline points="-0.28597999301092825,0.4050278559319711
-0.28597999301092825,0.3750278559319711"/><polyline points="-0.18876491333681739,0.4050278559319711
-0.18876491333681739,0.3750278559319711"/><polyline points="-9.154983366270641e-2,0.4050278559319711
-9.154983366270641e-2,0.3750278559319711"/><polyline points="5.665246011404501e-3,0.4050278559319711
5.665246011404501e-3,0.3750278559319711"/><polyline points="0.1028803256855153,0.4050278559319711
0.1028803256855153,0.3750278559319711"/><polyline points="0.20009540535962622,0.4050278559319711
0.20009540535962622,0.3750278559319711"/><polyline points="0.29731048503373714,0.4050278559319711
0.29731048503373714,0.3750278559319711"/><polyline points="0.39452556470784805,0.4050278559319711
0.39452556470784805,0.3750278559319711"/><polyline points="0.49174064438195897,0.4050278559319711
0.49174064438195897,0.3750278559319711"/></g><g fill="#0d0d0d" stroke="none" stroke-width="0.0" font-size="3.893497577165361e-2" fill-opacity="1.0" text-anchor="end"><text x="-0.38319507268503916" y="0.43802466879465546" transform="rotate(-45.0, -0.38319507268503916, 0.43802466879465546)">-0.8</text><text x="-0.28597999301092825" y="0.43802466879465546" transform="rotate(-45.0, -0.28597999301092825, 0.43802466879465546)">-0.6</text><text x="-0.18876491333681739" y="0.43802466879465546" transform="rotate(-45.0, -0.18876491333681739, 0.43802466879465546)">-0.4</text><text x="-9.154983366270641e-2" y="0.43802466879465546" transform="rotate(-45.0, -9.154983366270641e-2, 0.43802466879465546)">-0.2</text><text x="5.665246011404501e-3" y="0.43802466879465546" transform="rotate(-45.0, 5.665246011404501e-3, 0.43802466879465546)">0</text><text x="0.1028803256855153" y="0.43802466879465546" transform="rotate(-45.0, 0.1028803256855153, 0.43802466879465546)">0.2</text><text x="0.20009540535962622" y="0.43802466879465546" transform="rotate(-45.0, 0.20009540535962622, 0.43802466879465546)">0.4</text><text x="0.29731048503373714" y="0.43802466879465546" transform="rotate(-45.0, 0.29731048503373714, 0.43802466879465546)">0.6</text><text x="0.39452556470784805" y="0.43802466879465546" transform="rotate(-45.0, 0.39452556470784805, 0.43802466879465546)">0.8</text><text x="0.49174064438195897" y="0.43802466879465546" transform="rotate(-45.0, 0.49174064438195897, 0.43802466879465546)">1</text></g><g stroke-opacity="5.0e-2" fill="none" stroke="#0d0d0d" stroke-width="5.0e-3"><polyline points="-0.38319507268503916,0.3649860405253531
-0.38319507268503916,-0.4780884115192092"/><polyline points="-0.28597999301092825,0.3649860405253531
-0.28597999301092825,-0.4780884115192092"/><polyline points="-0.18876491333681739,0.3649860405253531
-0.18876491333681739,-0.4780884115192092"/><polyline points="-9.154983366270641e-2,0.3649860405253531
-9.154983366270641e-2,-0.4780884115192092"/><polyline points="5.665246011404501e-3,0.3649860405253531
5.665246011404501e-3,-0.4780884115192092"/><polyline points="0.1028803256855153,0.3649860405253531
0.1028803256855153,-0.4780884115192092"/><polyline points="0.20009540535962622,0.3649860405253531
0.20009540535962622,-0.4780884115192092"/><polyline points="0.29731048503373714,0.3649860405253531
0.29731048503373714,-0.4780884115192092"/><polyline points="0.39452556470784805,0.3649860405253531
0.39452556470784805,-0.4780884115192092"/><polyline points="0.49174064438195897,0.3649860405253531
0.49174064438195897,-0.4780884115192092"/></g><g stroke-opacity="0.0" fill="#0d0d0d" stroke="#000000" stroke-width="0.0" fill-opacity="0.4"><rect width="3.1147980617323157e-3" x="-0.39409686590110216" y="-0.4797578658796504" height="0.8790395883595098"/></g><g stroke-opacity="0.4" fill="#0d0d0d" stroke="#0d0d0d" stroke-width="4.0e-3" fill-opacity="0.4"><g transform="rotate(-90.0, -0.4065560581480313, 0.3976122681194182)"><polyline points="-0.4065560581480313,0.4126122681194182
-0.4065560581480313,0.3826122681194182"/></g><g transform="rotate(-90.0, -0.4065560581480313, 0.3180031154249975)"><polyline points="-0.4065560581480313,0.3330031154249975
-0.4065560581480313,0.30300311542499747"/></g><g transform="rotate(-90.0, -0.4065560581480313, 0.23839396273057684)"><polyline points="-0.4065560581480313,0.25339396273057685
-0.4065560581480313,0.22339396273057682"/></g><g transform="rotate(-90.0, -0.4065560581480313, 0.15878481003615613)"><polyline points="-0.4065560581480313,0.17378481003615615
-0.4065560581480313,0.14378481003615612"/></g><g transform="rotate(-90.0, -0.4065560581480313, 7.917565734173548e-2)"><polyline points="-0.4065560581480313,9.417565734173548e-2
-0.4065560581480313,6.417565734173548e-2"/></g><g transform="rotate(-90.0, -0.4065560581480313, -4.334953526851093e-4)"><polyline points="-0.4065560581480313,1.456650464731489e-2
-0.4065560581480313,-1.5433495352685109e-2"/></g><g transform="rotate(-90.0, -0.4065560581480313, -8.004264804710592e-2)"><polyline points="-0.4065560581480313,-6.504264804710592e-2
-0.4065560581480313,-9.504264804710592e-2"/></g><g transform="rotate(-90.0, -0.4065560581480313, -0.15965180074152652)"><polyline points="-0.4065560581480313,-0.1446518007415265
-0.4065560581480313,-0.17465180074152653"/></g><g transform="rotate(-90.0, -0.4065560581480313, -0.23926095343594733)"><polyline points="-0.4065560581480313,-0.22426095343594732
-0.4065560581480313,-0.25426095343594735"/></g><g transform="rotate(-90.0, -0.4065560581480313, -0.3188701061303678)"><polyline points="-0.4065560581480313,-0.3038701061303678
-0.4065560581480313,-0.3338701061303678"/></g><g transform="rotate(-90.0, -0.4065560581480313, -0.3984792588247884)"><polyline points="-0.4065560581480313,-0.3834792588247884
-0.4065560581480313,-0.4134792588247884"/></g><g transform="rotate(-90.0, -0.4065560581480313, -0.4780884115192092)"><polyline points="-0.4065560581480313,-0.4630884115192092
-0.4065560581480313,-0.49308841151920924"/></g></g><g fill="#0d0d0d" stroke="none" stroke-width="0.0" font-size="3.893497577165361e-2" fill-opacity="1.0" text-anchor="end"><text x="-0.4299170436110235" y="0.40908976684745146">-0.1</text><text x="-0.4299170436110235" y="0.32948061415303076">0</text><text x="-0.4299170436110235" y="0.24987146145861006">0.1</text><text x="-0.4299170436110235" y="0.17026230876418935">0.2</text><text x="-0.4299170436110235" y="9.065315606976865e-2">0.3</text><text x="-0.4299170436110235" y="1.1044003375348055e-2">0.4</text><text x="-0.4299170436110235" y="-6.856514931907265e-2">0.5</text><text x="-0.4299170436110235" y="-0.14817430201349335">0.6</text><text x="-0.4299170436110235" y="-0.22778345470791406">0.7</text><text x="-0.4299170436110235" y="-0.30739260740233465">0.8</text><text x="-0.4299170436110235" y="-0.38700176009675524">0.9</text><text x="-0.4299170436110235" y="-0.46661091279117606">1</text></g><g stroke-opacity="5.0e-2" fill="none" stroke="#0d0d0d" stroke-width="5.0e-3"><polyline points="-0.38319507268503916,0.3976122681194182
0.49174064438195897,0.3976122681194182"/><polyline points="-0.38319507268503916,0.3180031154249975
0.49174064438195897,0.3180031154249975"/><polyline points="-0.38319507268503916,0.23839396273057684
0.49174064438195897,0.23839396273057684"/><polyline points="-0.38319507268503916,0.15878481003615613
0.49174064438195897,0.15878481003615613"/><polyline points="-0.38319507268503916,7.917565734173548e-2
0.49174064438195897,7.917565734173548e-2"/><polyline points="-0.38319507268503916,-4.334953526851093e-4
0.49174064438195897,-4.334953526851093e-4"/><polyline points="-0.38319507268503916,-8.004264804710592e-2
0.49174064438195897,-8.004264804710592e-2"/><polyline points="-0.38319507268503916,-0.15965180074152652
0.49174064438195897,-0.15965180074152652"/><polyline points="-0.38319507268503916,-0.23926095343594733
0.49174064438195897,-0.23926095343594733"/><polyline points="-0.38319507268503916,-0.3188701061303678
0.49174064438195897,-0.3188701061303678"/><polyline points="-0.38319507268503916,-0.3984792588247884
0.49174064438195897,-0.3984792588247884"/><polyline points="-0.38319507268503916,-0.4780884115192092
0.49174064438195897,-0.4780884115192092"/></g></svg>