<svg xmlns="http://www.w3.org/2000/svg" height="300.0" viewBox="-0.1464543103448276 -1.6317499999999998 1.2805922413793103 1.7686465517241379" width="217.21562854900736" xmlns:xlink="http://www.w3.org/1999/xlink"><g stroke-opacity="0.0" fill-opacity="2.5e-2" stroke="#000000" stroke-width="0.0" fill="#808080"><rect height="1.6" width="1.1" x="-1.1102230246251565e-16" y="-1.6"/></g><g stroke-opacity="5.0e-2" stroke="#808080" stroke-width="5.0e-3" fill="none"><polyline points="-1.1102230246251565e-16,1.3877787807814457e-17
1.1,1.3877787807814457e-17"/></g><g stroke-opacity="5.0e-2" stroke="#808080" stroke-width="5.0e-3" fill="none"><polyline points="-1.1102230246251565e-16,-0.2
1.1,-0.2"/></g><g stroke-opacity="5.0e-2" stroke="#808080" stroke-width="5.0e-3" fill="none"><polyline points="-1.1102230246251565e-16,-0.4
1.1,-0.4"/></g><g stroke-opacity="5.0e-2" stroke="#808080" stroke-width="5.0e-3" fill="none"><polyline points="-1.1102230246251565e-16,-0.6000000000000001
1.1,-0.6000000000000001"/></g><g stroke-opacity="5.0e-2" stroke="#808080" stroke-width="5.0e-3" fill="none"><polyline points="-1.1102230246251565e-16,-0.8
1.1,-0.8"/></g><g stroke-opacity="5.0e-2" stroke="#808080" stroke-width="5.0e-3" fill="none"><polyline points="-1.1102230246251565e-16,-1.0
1.1,-1.0"/></g><g stroke-opacity="5.0e-2" stroke="#808080" stroke-width="5.0e-3" fill="none"><polyline points="-1.1102230246251565e-16,-1.2000000000000002
1.1,-1.2000000000000002"/></g><g stroke-opacity="5.0e-2" stroke="#808080" stroke-width="5.0e-3" fill="none"><polyline points="-1.1102230246251565e-16,-1.4000000000000004
1.1,-1.4000000000000004"/></g><g stroke-opacity="5.0e-2" stroke="#808080" stroke-width="5.0e-3" fill="none"><polyline points="-1.1102230246251565e-16,-1.6
1.1,-1.6"/></g><g fill-opacity="1.0" font-size="5.0e-2" stroke="none" stroke-width="0.0" fill="#808080" text-anchor="end"><text x="-7.145431034482758e-2" y="1.4499999999999999e-2">0</text></g><g fill-opacity="1.0" font-size="5.0e-2" stroke="none" stroke-width="0.0" fill="#808080" text-anchor="end"><text x="-7.145431034482758e-2" y="-0.1855">0.2</text></g><g fill-opacity="1.0" font-size="5.0e-2" stroke="none" stroke-width="0.0" fill="#808080" text-anchor="end"><text x="-7.145431034482758e-2" y="-0.3855">0.4</text></g><g fill-opacity="1.0" font-size="5.0e-2" stroke="none" stroke-width="0.0" fill="#808080" text-anchor="end"><text x="-7.145431034482758e-2" y="-0.5855000000000001">0.6</text></g><g fill-opacity="1.0" font-size="5.0e-2" stroke="none" stroke-width="0.0" fill="#808080" text-anchor="end"><text x="-7.145431034482758e-2" y="-0.7855000000000001">0.8</text></g><g fill-opacity="1.0" font-size="5.0e-2" stroke="none" stroke-width="0.0" fill="#808080" text-anchor="end"><text x="-7.145431034482758e-2" y="-0.9855">1</text></g><g fill-opacity="1.0" font-size="5.0e-2" stroke="none" stroke-width="0.0" fill="#808080" text-anchor="end"><text x="-7.145431034482758e-2" y="-1.1855000000000002">1.2</text></g><g fill-opacity="1.0" font-size="5.0e-2" stroke="none" stroke-width="0.0" fill="#808080" text-anchor="end"><text x="-7.145431034482758e-2" y="-1.3855000000000002">1.4</text></g><g fill-opacity="1.0" font-size="5.0e-2" stroke="none" stroke-width="0.0" fill="#808080" text-anchor="end"><text x="-7.145431034482758e-2" y="-1.5855">1.6</text></g><g stroke-opacity="1.0" fill-opacity="1.0" stroke="#808080" stroke-width="5.0e-3" fill="#808080"><g transform="rotate(-90.0, -3.887931034482758e-2, 1.3877787807814457e-17)"><polyline points="-3.887931034482758e-2,1.5000000000000013e-2
-3.887931034482758e-2,-1.4999999999999986e-2"/></g><g transform="rotate(-90.0, -3.887931034482758e-2, -0.2)"><polyline points="-3.887931034482758e-2,-0.185
-3.887931034482758e-2,-0.21500000000000002"/></g><g transform="rotate(-90.0, -3.887931034482758e-2, -0.4)"><polyline points="-3.887931034482758e-2,-0.385
-3.887931034482758e-2,-0.41500000000000004"/></g><g transform="rotate(-90.0, -3.887931034482758e-2, -0.6000000000000001)"><polyline points="-3.887931034482758e-2,-0.5850000000000001
-3.887931034482758e-2,-0.6150000000000001"/></g><g transform="rotate(-90.0, -3.887931034482758e-2, -0.8)"><polyline points="-3.887931034482758e-2,-0.785
-3.887931034482758e-2,-0.8150000000000001"/></g><g transform="rotate(-90.0, -3.887931034482758e-2, -1.0)"><polyline points="-3.887931034482758e-2,-0.985
-3.887931034482758e-2,-1.015"/></g><g transform="rotate(-90.0, -3.887931034482758e-2, -1.2000000000000002)"><polyline points="-3.887931034482758e-2,-1.1850000000000003
-3.887931034482758e-2,-1.215"/></g><g transform="rotate(-90.0, -3.887931034482758e-2, -1.4000000000000004)"><polyline points="-3.887931034482758e-2,-1.3850000000000005
-3.887931034482758e-2,-1.4150000000000003"/></g><g transform="rotate(-90.0, -3.887931034482758e-2, -1.6)"><polyline points="-3.887931034482758e-2,-1.5850000000000002
-3.887931034482758e-2,-1.615"/></g></g><g stroke-opacity="1.0" fill-opacity="1.0" stroke="#808080" stroke-width="0.0" fill="#808080"><rect height="1.6" width="4.9999999999999975e-3" x="-2.6379310344827586e-2" y="-1.6"/></g><g stroke-opacity="5.0e-2" stroke="#808080" stroke-width="5.0e-3" fill="none"><polyline points="0.0,1.3877787807814457e-17
0.0,-1.6"/></g><g stroke-opacity="5.0e-2" stroke="#808080" stroke-width="5.0e-3" fill="none"><polyline points="0.1,1.3877787807814457e-17
0.1,-1.6"/></g><g stroke-opacity="5.0e-2" stroke="#808080" stroke-width="5.0e-3" fill="none"><polyline points="0.2,1.3877787807814457e-17
0.2,-1.6"/></g><g stroke-opacity="5.0e-2" stroke="#808080" stroke-width="5.0e-3" fill="none"><polyline points="0.3000000000000001,1.3877787807814457e-17
0.3000000000000001,-1.6"/></g><g stroke-opacity="5.0e-2" stroke="#808080" stroke-width="5.0e-3" fill="none"><polyline points="0.4000000000000001,1.3877787807814457e-17
0.4000000000000001,-1.6"/></g><g stroke-opacity="5.0e-2" stroke="#808080" stroke-width="5.0e-3" fill="none"><polyline points="0.49999999999999994,1.3877787807814457e-17
0.49999999999999994,-1.6"/></g><g stroke-opacity="5.0e-2" stroke="#808080" stroke-width="5.0e-3" fill="none"><polyline points="0.6000000000000001,1.3877787807814457e-17
0.6000000000000001,-1.6"/></g><g stroke-opacity="5.0e-2" stroke="#808080" stroke-width="5.0e-3" fill="none"><polyline points="0.7000000000000002,1.3877787807814457e-17
0.7000000000000002,-1.6"/></g><g stroke-opacity="5.0e-2" stroke="#808080" stroke-width="5.0e-3" fill="none"><polyline points="0.8,1.3877787807814457e-17
0.8,-1.6"/></g><g stroke-opacity="5.0e-2" stroke="#808080" stroke-width="5.0e-3" fill="none"><polyline points="0.9000000000000001,1.3877787807814457e-17
0.9000000000000001,-1.6"/></g><g stroke-opacity="5.0e-2" stroke="#808080" stroke-width="5.0e-3" fill="none"><polyline points="1.0,1.3877787807814457e-17
1.0,-1.6"/></g><g stroke-opacity="5.0e-2" stroke="#808080" stroke-width="5.0e-3" fill="none"><polyline points="1.1,1.3877787807814457e-17
1.1,-1.6"/></g><g fill-opacity="1.0" font-size="4.551724137931035e-2" stroke="none" stroke-width="0.0" fill="#808080" text-anchor="middle"><text x="0.0" y="0.113">0</text></g><g fill-opacity="1.0" font-size="4.551724137931035e-2" stroke="none" stroke-width="0.0" fill="#808080" text-anchor="middle"><text x="0.1" y="0.113">0.1</text></g><g fill-opacity="1.0" font-size="4.551724137931035e-2" stroke="none" stroke-width="0.0" fill="#808080" text-anchor="middle"><text x="0.2" y="0.113">0.2</text></g><g fill-opacity="1.0" font-size="4.551724137931035e-2" stroke="none" stroke-width="0.0" fill="#808080" text-anchor="middle"><text x="0.3000000000000001" y="0.113">0.3</text></g><g fill-opacity="1.0" font-size="4.551724137931035e-2" stroke="none" stroke-width="0.0" fill="#808080" text-anchor="middle"><text x="0.4000000000000001" y="0.113">0.4</text></g><g fill-opacity="1.0" font-size="4.551724137931035e-2" stroke="none" stroke-width="0.0" fill="#808080" text-anchor="middle"><text x="0.49999999999999994" y="0.113">0.5</text></g><g fill-opacity="1.0" font-size="4.551724137931035e-2" stroke="none" stroke-width="0.0" fill="#808080" text-anchor="middle"><text x="0.6000000000000001" y="0.113">0.6</text></g><g fill-opacity="1.0" font-size="4.551724137931035e-2" stroke="none" stroke-width="0.0" fill="#808080" text-anchor="middle"><text x="0.7000000000000002" y="0.113">0.7</text></g><g fill-opacity="1.0" font-size="4.551724137931035e-2" stroke="none" stroke-width="0.0" fill="#808080" text-anchor="middle"><text x="0.8" y="0.113">0.8</text></g><g fill-opacity="1.0" font-size="4.551724137931035e-2" stroke="none" stroke-width="0.0" fill="#808080" text-anchor="middle"><text x="0.9000000000000001" y="0.113">0.9</text></g><g fill-opacity="1.0" font-size="4.551724137931035e-2" stroke="none" stroke-width="0.0" fill="#808080" text-anchor="middle"><text x="1.0" y="0.113">1</text></g><g fill-opacity="1.0" font-size="4.551724137931035e-2" stroke="none" stroke-width="0.0" fill="#808080" text-anchor="middle"><text x="1.1" y="0.113">1.1</text></g><g stroke-opacity="1.0" fill-opacity="1.0" stroke="#808080" stroke-width="5.0e-3" fill="#808080"><polyline points="0.0,4.75e-2
0.0,1.75e-2"/><polyline points="0.1,4.75e-2
0.1,1.75e-2"/><polyline points="0.2,4.75e-2
0.2,1.75e-2"/><polyline points="0.3000000000000001,4.75e-2
0.3000000000000001,1.75e-2"/><polyline points="0.4000000000000001,4.75e-2
0.4000000000000001,1.75e-2"/><polyline points="0.49999999999999994,4.75e-2
0.49999999999999994,1.75e-2"/><polyline points="0.6000000000000001,4.75e-2
0.6000000000000001,1.75e-2"/><polyline points="0.7000000000000002,4.75e-2
0.7000000000000002,1.75e-2"/><polyline points="0.8,4.75e-2
0.8,1.75e-2"/><polyline points="0.9000000000000001,4.75e-2
0.9000000000000001,1.75e-2"/><polyline points="1.0,4.75e-2
1.0,1.75e-2"/><polyline points="1.1,4.75e-2
1.1,1.75e-2"/></g><g stroke-opacity="1.0" fill-opacity="1.0" stroke="#808080" stroke-width="0.0" fill="#808080"><rect height="5.0000000000000044e-3" width="1.1" x="-1.1102230246251565e-16" y="1.5e-2"/></g><g stroke-opacity="0.0" fill-opacity="0.1" stroke="#000000" stroke-width="1.0e-2" fill="#e31a1c"><path d="M 0.0050,-1.0 A 1.0 1.0 -0.0 0 0 1.005,0"/></g><g stroke-opacity="1.0" stroke="#1f78b4" stroke-width="2.0e-3" fill="none"><polyline points="5.0000000000000044e-3,-1.0
5.123367518339431e-3,-0.9842926826881797
5.493439634268404e-3,-0.9685892409218722
6.110125038030101e-3,-0.952893549290357
6.9732715717284455e-3,-0.9372094804706868
8.082666266872054e-3,-0.921540904272155
9.438035396920022e-3,-0.9058916866814859
1.1039044544820312e-2,-0.8902656889089551
1.2885298685522253e-2,-0.8746667664356956
1.4976342283442481e-2,-0.8590987680624175
1.731165940486236e-2,-0.8435655349597692
1.989067384522615e-2,-0.8280708997205907
2.2712749271311297e-2,-0.8126186854142756
2.5777189378234255e-2,-0.7972127046434875
2.908323806125268e-2,-0.7818567586034576
3.263007960232345e-2,-0.7665546361440948
3.641683887136894e-2,-0.7513101128351454
4.044258154220193e-2,-0.7361269500346275
4.470631432305705e-2,-0.7210088939607706
4.9206985201669884e-2,-0.705959674767696
5.394348370484647e-2,-0.6909830056250527
5.891464117245471e-2,-0.6760825818018507
6.411923104577455e-2,-0.6612620797547089
6.955596917013274e-2,-0.6465251562207428
7.522351411174866e-2,-0.6318754473153221
8.112046748871327e-2,-0.6173165676349103
8.724537431601886e-2,-0.6028521093652195
9.359672336455471e-2,-0.5884856413948912
0.10017294753398068,-0.5742207084349272
0.1069724242393845,-0.5600608301440849
0.11399347581163222,-0.5460095002604533
0.12123436991130665,-0.5320701857394268
0.1286933199561363,-0.5182463258982849
0.13636848556180872,-0.5045413315675926
0.14425797299605625,-0.4909585842496291
0.15235983564590785,-0.4775014352840511
0.16067207449798493,-0.46417320502100345
0.16919263863172976,-0.45097718200186854
0.17791942572543834,-0.4379166221478693
0.1868502825749767,-0.42499474795672143
0.19598300562505266,-0.41221474770752686
0.20531534151290942,-0.399579774674116
0.21484498762430965,-0.38709294634702374
0.22456959266167015,-0.37475734366429503
0.23448675722421092,-0.36257601025131025
0.24459403439996918,-0.35055195166981634
0.2548889303695404,-0.3386881346763483
0.2653689050213903,-0.3269874864902268
0.2760313725785885,-0.31545289407131166
0.28687370223681147,-0.30408720340768575
0.2978932188134527,-0.29289321881345254
0.30908720340768586,-0.28187370223681135
0.32045289407131144,-0.2710313725785886
0.3319874864902268,-0.26036890502139054
0.34368813467634807,-0.24988893036954063
0.3555519516698166,-0.2395940343999689
0.3675760102513105,-0.22948675722421075
0.3797573436642949,-0.2195695926616703
0.3920929463470239,-0.20984498762430942
0.40457977467411627,-0.2003153415129093
0.4172147477075271,-0.19098300562505255
0.4299947479567216,-0.1818502825749766
0.4429166221478696,-0.17291942572543817
0.45597718200186826,-0.16419263863172984
0.4691732050210033,-0.15567207449798504
0.48250143528405104,-0.14735983564590793
0.49595858424962885,-0.13925797299605636
0.5095413315675925,-0.13136848556180875
0.5232463258982849,-0.12369331995613651
0.5370701857394269,-0.11623436991130649
0.5510095002604534,-0.10899347581163209
0.5650608301440851,-0.10197242423938431
0.5792207084349275,-9.517294753398052e-2
0.5934856413948912,-8.85967233645548e-2
0.6078521093652196,-8.224537431601882e-2
0.6223165676349103,-7.612046748871325e-2
0.6368754473153222,-7.022351411174861e-2
0.6515251562207431,-6.455596917013272e-2
0.666262079754709,-5.911923104577453e-2
0.6810825818018509,-5.391464117245469e-2
0.6959830056250527,-4.8943483704846455e-2
0.7109596747676963,-4.4206985201669866e-2
0.726008893960771,-3.970631432305692e-2
0.7411269500346274,-3.544258154220191e-2
0.7563101128351455,-3.141683887136891e-2
0.7715546361440946,-2.76300796023234e-2
0.7868567586034574,-2.4083238061252663e-2
0.8022127046434879,-2.0777189378234237e-2
0.8176186854142757,-1.7712749271311265e-2
0.8330708997205907,-1.4890673845226118e-2
0.8485655349597694,-1.2311659404862327e-2
0.8640987680624173,-9.976342283442463e-3
0.8796667664356963,-7.88529868552211e-3
0.8952656889089552,-6.039044544820293e-3
0.910891686681486,-4.43803539691999e-3
0.9265409042721551,-3.082666266872036e-3
0.9422094804706866,-1.973271571728427e-3
0.9578935492903573,-1.1101250380300964e-3
0.973589240921872,-4.934396342683861e-4
0.9892926826881796,-1.2336751833941229e-4
1.005,1.3877787807814457e-17"/></g><g stroke-opacity="0.8" fill-opacity="0.3" stroke="#1f78b4" stroke-width="3.0e-3" fill="#a6cee3"><rect height="2.9999999999999916e-2" width="2.9999999999999916e-2" x="0.9900000000000001" y="-1.0150000000000001"/></g><g stroke-opacity="1.0" fill-opacity="0.1" stroke="#808080" stroke-width="2.0e-3" fill="#6666cc"><rect height="1.0" width="0.9999999999999999" x="5.0000000000000044e-3" y="-1.0"/></g><g fill-opacity="1.0" font-size="4.0e-2" stroke="none" stroke-width="0.0" fill="#333333" text-anchor="start"><text x="-1.1102230246251565e-16" y="-1.1165000000000003">c: (1.000,1.000)</text><text x="-1.1102230246251565e-16" y="-1.2165000000000004">r: (1.000,1.000)</text><text x="-1.1102230246251565e-16" y="-1.3165000000000002">phi: 0.000</text><text x="-1.1102230246251565e-16" y="-1.4165000000000003">ang0: -3.142</text><text x="-1.1102230246251565e-16" y="-1.5165000000000004">angd: 1.571</text></g><g></g></svg>