<svg width="297.24583590352063" xmlns:xlink="http://www.w3.org/1999/xlink" xmlns="http://www.w3.org/2000/svg" viewBox="-0.5102652986711695 -0.508329884221286 1.0123888328424901 1.0217692332999635" height="300.0"><style>svg {
  color-scheme: light dark;
}
@media (prefers-color-scheme:dark) {
  svg {
    background-color: #f0f0f0;
  }
}</style><g stroke-opacity="5.0e-2" fill="none" stroke="#0d0d0d" stroke-width="5.0e-3"><polyline points="-0.37652071503863355,0.3002348955227907
0.4866086360713412,0.3002348955227907"/><polyline points="-0.37652071503863355,0.22281457067532062
0.4866086360713412,0.22281457067532062"/><polyline points="-0.37652071503863355,0.1453942458278505
0.4866086360713412,0.1453942458278505"/><polyline points="-0.37652071503863355,6.797392098038052e-2
0.4866086360713412,6.797392098038052e-2"/><polyline points="-0.37652071503863355,-9.446403867089503e-3
0.4866086360713412,-9.446403867089503e-3"/><polyline points="-0.37652071503863355,-8.686672871455958e-2
0.4866086360713412,-8.686672871455958e-2"/><polyline points="-0.37652071503863355,-0.16428705356202966
0.4866086360713412,-0.16428705356202966"/><polyline points="-0.37652071503863355,-0.24170737840949963
0.4866086360713412,-0.24170737840949963"/><polyline points="-0.37652071503863355,-0.3191277032569698
0.4866086360713412,-0.3191277032569698"/><polyline points="-0.37652071503863355,-0.3965480281044398
0.4866086360713412,-0.3965480281044398"/><polyline points="-0.37652071503863355,-0.47396835295190987
0.4866086360713412,-0.47396835295190987"/></g><g fill="#0d0d0d" stroke="none" stroke-width="0.0" font-size="5.0e-2" fill-opacity="1.0" text-anchor="end"><text x="-0.43526529867116953" y="0.3121233642534146">0</text><text x="-0.43526529867116953" y="0.2347030394059445">0.1</text><text x="-0.43526529867116953" y="0.15728271455847442">0.2</text><text x="-0.43526529867116953" y="7.986238971100434e-2">0.3</text><text x="-0.43526529867116953" y="2.442064863534321e-3">0.4</text><text x="-0.43526529867116953" y="-7.497825998393581e-2">0.5</text><text x="-0.43526529867116953" y="-0.15239858483140578">0.6</text><text x="-0.43526529867116953" y="-0.22981890967887575">0.7</text><text x="-0.43526529867116953" y="-0.30723923452634594">0.8</text><text x="-0.43526529867116953" y="-0.3846595593738159">0.9</text><text x="-0.43526529867116953" y="-0.462079884221286">1</text></g><g stroke-opacity="0.4" fill="#0d0d0d" stroke="#0d0d0d" stroke-width="4.0e-3" fill-opacity="0.4"><g transform="rotate(-90.0, -0.4075933716764722, 0.3002348955227907)"><polyline points="-0.4075933716764722,0.3152348955227907
-0.4075933716764722,0.2852348955227907"/></g><g transform="rotate(-90.0, -0.4075933716764722, 0.22281457067532062)"><polyline points="-0.4075933716764722,0.23781457067532064
-0.4075933716764722,0.2078145706753206"/></g><g transform="rotate(-90.0, -0.4075933716764722, 0.1453942458278505)"><polyline points="-0.4075933716764722,0.1603942458278505
-0.4075933716764722,0.13039424582785047"/></g><g transform="rotate(-90.0, -0.4075933716764722, 6.797392098038052e-2)"><polyline points="-0.4075933716764722,8.297392098038052e-2
-0.4075933716764722,5.297392098038052e-2"/></g><g transform="rotate(-90.0, -0.4075933716764722, -9.446403867089503e-3)"><polyline points="-0.4075933716764722,5.553596132910496e-3
-0.4075933716764722,-2.4446403867089503e-2"/></g><g transform="rotate(-90.0, -0.4075933716764722, -8.686672871455958e-2)"><polyline points="-0.4075933716764722,-7.186672871455958e-2
-0.4075933716764722,-0.10186672871455958"/></g><g transform="rotate(-90.0, -0.4075933716764722, -0.16428705356202966)"><polyline points="-0.4075933716764722,-0.14928705356202965
-0.4075933716764722,-0.17928705356202967"/></g><g transform="rotate(-90.0, -0.4075933716764722, -0.24170737840949963)"><polyline points="-0.4075933716764722,-0.22670737840949962
-0.4075933716764722,-0.25670737840949964"/></g><g transform="rotate(-90.0, -0.4075933716764722, -0.3191277032569698)"><polyline points="-0.4075933716764722,-0.3041277032569698
-0.4075933716764722,-0.33412770325696983"/></g><g transform="rotate(-90.0, -0.4075933716764722, -0.3965480281044398)"><polyline points="-0.4075933716764722,-0.3815480281044398
-0.4075933716764722,-0.4115480281044398"/></g><g transform="rotate(-90.0, -0.4075933716764722, -0.47396835295190987)"><polyline points="-0.4075933716764722,-0.45896835295190985
-0.4075933716764722,-0.4889683529519099"/></g></g><g stroke-opacity="0.0" fill="#0d0d0d" stroke="#000000" stroke-width="0.0" fill-opacity="0.4"><rect width="3.4525174042042694e-3" x="-0.3929201727086039" y="-0.4756081417423407" height="0.8231739728176746"/></g><g stroke-opacity="5.0e-2" fill="none" stroke="#0d0d0d" stroke-width="5.0e-3"><polyline points="-0.3669006104522241,0.345926042284903
-0.3669006104522241,-0.47396835295190987"/><polyline points="-0.2602119546367785,0.345926042284903
-0.2602119546367785,-0.47396835295190987"/><polyline points="-0.15352329882133275,0.345926042284903
-0.15352329882133275,-0.47396835295190987"/><polyline points="-4.683464300588702e-2,0.345926042284903
-4.683464300588702e-2,-0.47396835295190987"/><polyline points="5.98540128095586e-2,0.345926042284903
5.98540128095586e-2,-0.47396835295190987"/><polyline points="0.16654266862500433,0.345926042284903
0.16654266862500433,-0.47396835295190987"/><polyline points="0.27323132444044995,0.345926042284903
0.27323132444044995,-0.47396835295190987"/><polyline points="0.3799199802558957,0.345926042284903
0.3799199802558957,-0.47396835295190987"/><polyline points="0.4866086360713414,0.345926042284903
0.4866086360713414,-0.47396835295190987"/></g><g fill="#0d0d0d" stroke="none" stroke-width="0.0" font-size="4.179310345109972e-2" fill-opacity="1.0" text-anchor="end"><text x="-0.3669006104522241" y="0.43882007726449107" transform="rotate(-45.0, -0.3669006104522241, 0.43882007726449107)">-0.6</text><text x="-0.2602119546367785" y="0.43882007726449107" transform="rotate(-45.0, -0.2602119546367785, 0.43882007726449107)">-0.4</text><text x="-0.15352329882133275" y="0.43882007726449107" transform="rotate(-45.0, -0.15352329882133275, 0.43882007726449107)">-0.2</text><text x="-4.683464300588702e-2" y="0.43882007726449107" transform="rotate(-45.0, -4.683464300588702e-2, 0.43882007726449107)">0</text><text x="5.98540128095586e-2" y="0.43882007726449107" transform="rotate(-45.0, 5.98540128095586e-2, 0.43882007726449107)">0.2</text><text x="0.16654266862500433" y="0.43882007726449107" transform="rotate(-45.0, 0.16654266862500433, 0.43882007726449107)">0.4</text><text x="0.27323132444044995" y="0.43882007726449107" transform="rotate(-45.0, 0.27323132444044995, 0.43882007726449107)">0.6</text><text x="0.3799199802558957" y="0.43882007726449107" transform="rotate(-45.0, 0.3799199802558957, 0.43882007726449107)">0.8</text><text x="0.4866086360713414" y="0.43882007726449107" transform="rotate(-45.0, 0.4866086360713414, 0.43882007726449107)">1</text></g><g stroke-opacity="0.4" fill="#0d0d0d" stroke="#0d0d0d" stroke-width="4.0e-3" fill-opacity="0.4"><polyline points="-0.3669006104522241,0.3904422405126589
-0.3669006104522241,0.3604422405126589"/><polyline points="-0.2602119546367785,0.3904422405126589
-0.2602119546367785,0.3604422405126589"/><polyline points="-0.15352329882133275,0.3904422405126589
-0.15352329882133275,0.3604422405126589"/><polyline points="-4.683464300588702e-2,0.3904422405126589
-4.683464300588702e-2,0.3604422405126589"/><polyline points="5.98540128095586e-2,0.3904422405126589
5.98540128095586e-2,0.3604422405126589"/><polyline points="0.16654266862500433,0.3904422405126589
0.16654266862500433,0.3604422405126589"/><polyline points="0.27323132444044995,0.3904422405126589
0.27323132444044995,0.3604422405126589"/><polyline points="0.3799199802558957,0.3904422405126589
0.3799199802558957,0.3604422405126589"/><polyline points="0.4866086360713414,0.3904422405126589
0.4866086360713414,0.3604422405126589"/></g><g stroke-opacity="0.0" fill="#0d0d0d" stroke="#000000" stroke-width="0.0" fill-opacity="0.4"><rect width="0.8665818685141791" x="-0.3782469737407357" y="0.35822445821313464" height="3.2795775808617256e-3"/></g><g stroke-opacity="0.0" fill="#ffffff" stroke="#000000" stroke-width="0.0" fill-opacity="2.0e-2"><rect width="0.8631293511099747" x="-0.37652071503863355" y="-0.47396835295190987" height="0.8198943952368128"/></g><g stroke-opacity="0.0" fill="#1f78b5" stroke="#000000" stroke-width="1.0e-2" fill-opacity="0.1"><path d="M 0.4866,0.3002 A 0.5334432790408244 0.3871016242272599 -0.0 0 1 -0.0468,-0.4740"/></g><g stroke-opacity="1.0" fill="none" stroke="#a6cfe3" stroke-width="2.0e-3"><polyline points="0.4866086360713412,0.30023489550261
0.4697211667513309,0.3061234619834554
0.4525871412768532,0.3116241945954783
0.4352234688622133,0.3167316647797733
0.41764728535551754,0.3214408320799672
0.3998759363276606,0.32574704911654045
0.3819269599543421,0.32964606617322967
0.363818069708003,0.3331340353909844
0.34556713687676854,0.33620751456533976
0.3271921729276449,0.33886347054345617
0.3087113117313751,0.341099282217475
0.2901427916664989,0.3429127431112358
0.27150493762027494,0.3443020635578019
0.2528161429042294,0.3452658724656451
0.2340948511021792,0.345803218671748
0.21535953786864126,0.3459135718802867
0.19662869269559213,0.345596823185969
0.17792080066557237,0.3448532851815104
0.15925432420914198,0.34368369164914336
0.14064768488468993,0.3420891968364623
0.12211924519858153,0.34007137431732104
0.10368729048358105,0.3376322154389051
8.53700108534362e-2,0.3347741273565126
6.718548325143237e-2,0.33149993065798267
4.915165361063212e-2,0.32781285658011583
3.128631914340663e-2,0.3237165438198331
1.3607110777735132e-2,0.319215034943222
-3.8685242423915356e-3,0.3143127723960114
-2.1123339575293942e-2,0.30901459411941484
-3.814030680166164e-2,0.30332572877566544
-5.490263222954622e-2,0.2972517905879589
-7.139377346770759e-2,0.2907987737998922
-8.759745575095745e-2,0.28397304675986923
-0.10349768800138687,0.27678134563630996
-0.11907877860962907,0.26923076776986543
-0.1343253509205834,0.2613287646691997
-0.14922235840831793,0.2530831346572502
-0.16375509952517325,0.24450201517522446
-0.17790923221041444,0.23559387475192928
-0.19167078804411364,0.22636750464635397
-0.20502618603229467,0.21683201017175963
-0.21796224600973296,0.20699680170983498
-0.23046620164718795,0.19687158542378547
-0.24252571305022858,0.18646635367952175
-0.2541288789372193,0.17579137518440108
-0.2652642483844467,0.16485718485325485
-0.2759208321268006,0.15367457341169677
-0.28608811340285045,0.14225457674698155
-0.29575605833361973,0.13060846501691592
-0.3049151258248116,0.11874773152757506
-0.31355627698271926,0.10668408139079494
-0.32167098403452055,9.442941997264176e-2
-0.3292512387441612,8.199584114425335e-2
-0.336289560315516,6.939561534664807e-2
-0.3427790027750325,5.66411774812805e-2
-0.3487131618265673,4.3745114638296834e-2
-0.35408618117165286,3.0720153674594963e-2
-0.35889275828895806,1.7579148653954935e-2
-0.3631281496672354,4.335068161628319e-3
-0.36678817548659454,-8.999017494087602e-3
-0.3698692237434794,-2.2409949180667188e-2
-0.37236825381528005,-3.588449192783105e-2
-0.37428279946105947,-4.940934798886465e-2
-0.3756109712554359,-6.297116996388574e-2
-0.376351458453218,-7.655657397211979e-2
-0.3765035302829508,-9.01521528601733e-2
-0.3760670366681006,-0.10374448943327319
-0.3750424083751608,-0.11732016969642145
-0.37343065658853847,-0.13086579609238602
-0.3712333719126369,-0.14436800072347333
-0.3684527228021215,-0.15781345854402817
-0.36509145342191623,-0.17118890051064584
-0.36115288093904496,-0.18448112667711558
-0.3566408922489872,-0.19767701922117398
-0.3515599401397831,-0.21076355539020974
-0.3459150388976673,-0.22372782035315075
-0.3397117593585752,-0.23655701994584177
-0.3329562234104011,-0.24923849329733871
-0.3256550979514321,-0.2617597253246613
-0.3178155883109259,-0.2741083590836674
-0.30944543113832035,-0.2862722079638663
-0.30055288676809533,-0.29823926771512965
-0.29114673106781874,-0.3099977282944387
-0.281236246777426,-0.32153598552097096
-0.2708312143482754,-0.3328426525280238
-0.25994190229102554,-0.3439065710004785
-0.24857905704185257,-0.3547168221867093
-0.23675389235701694,-0.36526273767407313
-0.2244780782462404,-0.37553390991734403
-0.21176372945581373,-0.38552020250970553
-0.19862339351280617,-0.39521176018615767
-0.18507003834217067,-0.4045990185494759
-0.17111703946896928,-0.4136727135091144
-0.1567781668183421,-0.42242389042374673
-0.1420675711262574,-0.43084391293841295
-0.12699976997443901,-0.4389244715075632
-0.111589633463272,-0.4466575915955715
-9.585236953680387e-2,-0.4540356415466428
-7.980350897434374e-2,-0.4610513401163331
-6.345889006345579e-2,-0.4676977636572607
-4.683464296948331e-2,-0.47396835295190987"/></g><g stroke-opacity="1.0" fill="#a6cfe3" stroke="#1f78b5" stroke-width="3.0e-3" fill-opacity="1.0"><rect width="3.0000000000000027e-2" x="0.20488700205810517" y="-0.10186673072283513" height="3.0e-2"/></g><g stroke-opacity="1.0" fill="#6666cc" stroke="#808080" stroke-width="2.0e-3" fill-opacity="0.1"><rect width="0.8631293510510721" x="-0.37652071497973094" y="-0.47396835295190987" height="0.8198943952154412"/></g></svg>