<svg width="293.1468648444169" xmlns:xlink="http://www.w3.org/1999/xlink" xmlns="http://www.w3.org/2000/svg" viewBox="-0.6560000000000001 -0.5312499999999999 1.1716066017177984 1.1989962120245874" height="300.0"><style>svg {
  color-scheme: light dark;
}
{
  .canvas g, .title g, .axisbar g, .ticktext g, .tickglyph g, .ticklines g, .legendContent g text {
    fill: #0d0d0d;
  }
  .ticklines g, .tickglyph g, .legendBorder g {
    stroke: #0d0d0d;
  }
}
@media (prefers-color-scheme:dark) {
  .canvas g, .title g, .axisbar g, .ticktext g, .tickglyph g, .ticklines g, .legendContent g text {
    fill: #f0f0f0;
  }
  .ticklines g, .tickglyph g, .legendBorder g {
    stroke: #f0f0f0;
  }
}</style><g class="arc"><g stroke-opacity="0.0" fill="#1f78b5" stroke="#000000" stroke-width="1.0e-2" fill-opacity="0.1"><path d="M 0.5000,0.4091 A 0.5555555555555556 0.45454545454545453 -0.0 0 1 -0.0556,-0.5000"/></g><g stroke-opacity="1.0" fill="none" stroke="#a6cfe3" stroke-width="2.0e-3"><polyline points="0.4999999999999999,0.4090909090909091
0.48241251175406097,0.4160054270369397
0.4645682471145435,0.42246453970652925
0.44648481621605096,0.42846187273537434
0.4281800652214067,0.4339915074799203
0.40967205870964596,0.43904798685834684
0.39097906184845677,0.4436263207360492
0.37211952236866586,0.4477219908502984
0.35311205235855525,0.45133095526922096
0.33397540989597874,0.454449652380698
0.3147284805364037,0.45707500440724563
0.2953902586751489,0.45920442044341037
0.2759798288022085,0.46083579901267957
0.25651634666816525,0.4619675301413855
0.23701902037977907,0.46259849694755395
0.21750709144390257,0.46272807674313315
0.1979998157784385,0.46235614164851113
0.17851644470907402,0.4614830587187169
0.15907620597054573,0.46010968958118226
0.13969828473118828,0.4582373895854195
0.12040180465948813,0.4558680064654545
0.10120580905133425,0.4530038785163367
8.212924203658167e-2,0.4496478322865246
6.319092988348507e-2,0.4458031797884231
4.440956241944338e-2,0.44147371522982737
2.580367458639854e-2,0.436663711269498
7.391628149083895e-3,0.4313779148005626
-1.0808406425818984e-2,0.42562154226590554
-2.8778467901737437e-2,0.4194002745101685
-4.650082199777983e-2,0.41272025117344296
-6.395797889032867e-2,0.40558806463218683
-8.113271047338544e-2,0.39801075349334436
-9.800806736063133e-2,0.3899957956480914
-0.11456739561242413,0.3815511008920597
-0.13079435317122567,0.37268500311932345
-0.14667292598924037,0.36340625209785266
-0.16218744383234585,0.3537240048345478
-0.17732259574472342,0.3436478165383801
-0.1920634451589202,0.33318763119055456
-0.20639544463644,0.3223537717310003
-0.2203044502243081,0.3111569298708753
-0.2337767354134438,0.2996081555411395
-0.2467990046850691,0.2877188459876061
-0.2593584066317792,0.27550073452323665
-0.27144254664033135,0.26296587894877677
-0.28303949912362864,0.25012664965316533
-0.29413781928983807,0.23699571740545128
-0.30472655443701613,0.22358604085027595
-0.31479525476210357,0.20991085371925533
-0.3243339836736183,0.19598365177088561
-0.3333333275978737,0.18181817947185752
-0.3417844052690371,0.16742841643292794
-0.34967887649386753,0.1528285636127325
-0.35700895038247943,0.13803302930315425
-0.36376739303701067,0.12305641491007768
-0.3699475346906055,0.10791350054356685
-0.3755432762896694,9.26192304316778e-2
-0.3805490955128988,7.718869817231377e-2
-0.3849600522211452,6.163713183766323e-2
-0.388771793332736,4.597987894593386e-2
-0.3919805571194407,3.023239131520372e-2
-0.39458317691884204,1.4410209814342656e-2
-0.39657708425945004,-1.4710509739488398e-3
-0.39796031139547233,-1.7395718162845575e-2
-0.3987314932487432,-3.334807602864753e-2
-0.39888986875588894,-4.931238152029993e-2
-0.3984352816194073,-6.527287979588281e-2
-0.39736818046191286,-8.121381977074005e-2
-0.3956896183834015,-9.711946966189589e-2
-0.3934012519219679,-0.11297413251342714
-0.39050533941900195,-0.12876216168746102
-0.38700473879047875,-0.14446797630551922
-0.38290290470654065,-0.16007607662496381
-0.3782038851821544,-0.17557105933537098
-0.3729123175822109,-0.19093763275973796
-0.3670334240450034,-0.20616063194552325
-0.36057300632860934,-0.2212250336306233
-0.3535374400852559,-0.23611597106951687
-0.34593366856931945,-0.25081874870495025
-0.33776919578517317,-0.26531885667067523
-0.32905207908164014,-0.2796019851109378
-0.3197909212003638,-0.2936540383025751
-0.3099948617859397,-0.30746114856579376
-0.29967356836618997,-0.32100968994989665
-0.28883722681148094,-0.3342862916804482
-0.27749653128249985,-0.3472778513546161
-0.26566267367640756,-0.3599715478716603
-0.25334733258178854,-0.37235485408581226
-0.240562661753295,-0.3844155491690534
-0.22732127811735636,-0.3961417306715984
-0.21363624932079806,-0.4075218262681751
-0.19952108083465064,-0.4185446051785142
-0.18498970262588293,-0.42919918925076894
-0.17005645541020303,-0.43947506369694245
-0.15473607649950755,-0.4493620874697102
-0.1390436852579292,-0.45885050327041277
-0.12299476818085575,-0.4679309471783276
-0.10660516361162398,-0.47659445789173116
-8.98910461109913e-2,-0.48483248557161873
-7.286891049479338e-2,-0.4926369002793676
-5.5555555555555525e-2,-0.4999999999999999"/></g><g stroke-opacity="1.0" fill="#a6cfe3" stroke="#1f78b5" stroke-width="3.0e-3" fill-opacity="1.0"><rect width="3.0000000000000027e-2" x="0.20722222795768175" y="-6.045454780086988e-2" height="3.0e-2"/></g><g stroke-opacity="1.0" fill="#6666cc" stroke="#808080" stroke-width="2.0e-3" fill-opacity="0.1"><rect width="0.8989077657922597" x="-0.3989077657922598" y="-0.4999999999999999" height="0.9627427198127186"/></g></g><g class="hud"><g class="canvas"><g stroke-opacity="0.0" fill="#ffffff" stroke="#000000" stroke-width="0.0" fill-opacity="2.0e-2"><rect width="1.005" x="-0.5" y="-0.5049999999999999" height="1.005"/></g></g><g class="axis"><g class="ticks"><g class="tickglyph"><g stroke-opacity="0.4" fill="#0d0d0d" stroke="#0d0d0d" stroke-width="4.0e-3" fill-opacity="0.4"><g transform="rotate(-90.0, -0.53, 0.5)"><polyline points="-0.53,0.515
-0.53,0.485"/></g><g transform="rotate(-90.0, -0.53, 0.4086363636363636)"><polyline points="-0.53,0.4236363636363636
-0.53,0.39363636363636356"/></g><g transform="rotate(-90.0, -0.53, 0.31727272727272726)"><polyline points="-0.53,0.3322727272727273
-0.53,0.30227272727272725"/></g><g transform="rotate(-90.0, -0.53, 0.22590909090909084)"><polyline points="-0.53,0.24090909090909085
-0.53,0.21090909090909082"/></g><g transform="rotate(-90.0, -0.53, 0.13454545454545458)"><polyline points="-0.53,0.1495454545454546
-0.53,0.11954545454545458"/></g><g transform="rotate(-90.0, -0.53, 4.3181818181818266e-2)"><polyline points="-0.53,5.8181818181818265e-2
-0.53,2.8181818181818266e-2"/></g><g transform="rotate(-90.0, -0.53, -4.8181818181818215e-2)"><polyline points="-0.53,-3.3181818181818215e-2
-0.53,-6.318181818181821e-2"/></g><g transform="rotate(-90.0, -0.53, -0.13954545454545453)"><polyline points="-0.53,-0.12454545454545453
-0.53,-0.15454545454545454"/></g><g transform="rotate(-90.0, -0.53, -0.23090909090909095)"><polyline points="-0.53,-0.21590909090909094
-0.53,-0.24590909090909097"/></g><g transform="rotate(-90.0, -0.53, -0.32227272727272727)"><polyline points="-0.53,-0.30727272727272725
-0.53,-0.3372727272727273"/></g><g transform="rotate(-90.0, -0.53, -0.41363636363636347)"><polyline points="-0.53,-0.39863636363636346
-0.53,-0.4286363636363635"/></g><g transform="rotate(-90.0, -0.53, -0.5049999999999999)"><polyline points="-0.53,-0.4899999999999999
-0.53,-0.5199999999999999"/></g></g></g><g class="ticktext"><g fill="#0d0d0d" stroke="none" stroke-width="0.0" font-size="5.000000000000001e-2" fill-opacity="1.0" text-anchor="end"><text x="-0.5660000000000001" y="0.51375">-0.1</text><text x="-0.5660000000000001" y="0.42238636363636356">0</text><text x="-0.5660000000000001" y="0.3310227272727272">0.1</text><text x="-0.5660000000000001" y="0.23965909090909082">0.2</text><text x="-0.5660000000000001" y="0.1482954545454545">0.3</text><text x="-0.5660000000000001" y="5.6931818181818195e-2">0.4</text><text x="-0.5660000000000001" y="-3.4431818181818286e-2">0.5</text><text x="-0.5660000000000001" y="-0.1257954545454546">0.6</text><text x="-0.5660000000000001" y="-0.2171590909090909">0.7</text><text x="-0.5660000000000001" y="-0.30852272727272734">0.8</text><text x="-0.5660000000000001" y="-0.39988636363636354">0.9</text><text x="-0.5660000000000001" y="-0.49124999999999985">1</text></g></g><g class="ticklines"><g stroke-opacity="5.0e-2" fill="none" stroke="#0d0d0d" stroke-width="5.0e-3"><polyline points="-0.5,0.5
0.5049999999999999,0.5"/><polyline points="-0.5,0.4086363636363636
0.5049999999999999,0.4086363636363636"/><polyline points="-0.5,0.31727272727272726
0.5049999999999999,0.31727272727272726"/><polyline points="-0.5,0.22590909090909084
0.5049999999999999,0.22590909090909084"/><polyline points="-0.5,0.13454545454545458
0.5049999999999999,0.13454545454545458"/><polyline points="-0.5,4.3181818181818266e-2
0.5049999999999999,4.3181818181818266e-2"/><polyline points="-0.5,-4.8181818181818215e-2
0.5049999999999999,-4.8181818181818215e-2"/><polyline points="-0.5,-0.13954545454545453
0.5049999999999999,-0.13954545454545453"/><polyline points="-0.5,-0.23090909090909095
0.5049999999999999,-0.23090909090909095"/><polyline points="-0.5,-0.32227272727272727
0.5049999999999999,-0.32227272727272727"/><polyline points="-0.5,-0.41363636363636347
0.5049999999999999,-0.41363636363636347"/><polyline points="-0.5,-0.5049999999999999
0.5049999999999999,-0.5049999999999999"/></g></g></g><g class="axisbar"><g stroke-opacity="0.0" fill="#0d0d0d" stroke="#000000" stroke-width="0.0" fill-opacity="0.4"><rect width="4.0000000000000036e-3" x="-0.514" y="-0.5070000000000001" height="1.0090000000000001"/></g></g></g><g class="axis"><g class="ticks"><g class="tickglyph"><g stroke-opacity="0.4" fill="#0d0d0d" stroke="#0d0d0d" stroke-width="4.0e-3" fill-opacity="0.4"><polyline points="-0.5,0.5449999999999999
-0.5,0.5149999999999999"/><polyline points="-0.3883333333333334,0.5449999999999999
-0.3883333333333334,0.5149999999999999"/><polyline points="-0.2766666666666667,0.5449999999999999
-0.2766666666666667,0.5149999999999999"/><polyline points="-0.16499999999999998,0.5449999999999999
-0.16499999999999998,0.5149999999999999"/><polyline points="-5.333333333333329e-2,0.5449999999999999
-5.333333333333329e-2,0.5149999999999999"/><polyline points="5.833333333333335e-2,0.5449999999999999
5.833333333333335e-2,0.5149999999999999"/><polyline points="0.16999999999999993,0.5449999999999999
0.16999999999999993,0.5149999999999999"/><polyline points="0.2816666666666666,0.5449999999999999
0.2816666666666666,0.5149999999999999"/><polyline points="0.3933333333333332,0.5449999999999999
0.3933333333333332,0.5149999999999999"/><polyline points="0.5049999999999999,0.5449999999999999
0.5049999999999999,0.5149999999999999"/></g></g><g class="ticktext"><g fill="#0d0d0d" stroke="none" stroke-width="0.0" font-size="5.000000000000001e-2" fill-opacity="1.0" text-anchor="end"><text x="-0.5" y="0.5934999999999999" transform="rotate(-45.0, -0.5, 0.5934999999999999)">-0.8</text><text x="-0.3883333333333334" y="0.5934999999999999" transform="rotate(-45.0, -0.3883333333333334, 0.5934999999999999)">-0.6</text><text x="-0.2766666666666667" y="0.5934999999999999" transform="rotate(-45.0, -0.2766666666666667, 0.5934999999999999)">-0.4</text><text x="-0.16499999999999998" y="0.5934999999999999" transform="rotate(-45.0, -0.16499999999999998, 0.5934999999999999)">-0.2</text><text x="-5.333333333333329e-2" y="0.5934999999999999" transform="rotate(-45.0, -5.333333333333329e-2, 0.5934999999999999)">0</text><text x="5.833333333333335e-2" y="0.5934999999999999" transform="rotate(-45.0, 5.833333333333335e-2, 0.5934999999999999)">0.2</text><text x="0.16999999999999993" y="0.5934999999999999" transform="rotate(-45.0, 0.16999999999999993, 0.5934999999999999)">0.4</text><text x="0.2816666666666666" y="0.5934999999999999" transform="rotate(-45.0, 0.2816666666666666, 0.5934999999999999)">0.6</text><text x="0.3933333333333332" y="0.5934999999999999" transform="rotate(-45.0, 0.3933333333333332, 0.5934999999999999)">0.8</text><text x="0.5049999999999999" y="0.5934999999999999" transform="rotate(-45.0, 0.5049999999999999, 0.5934999999999999)">1</text></g></g><g class="ticklines"><g stroke-opacity="5.0e-2" fill="none" stroke="#0d0d0d" stroke-width="5.0e-3"><polyline points="-0.5,0.5
-0.5,-0.5049999999999999"/><polyline points="-0.3883333333333334,0.5
-0.3883333333333334,-0.5049999999999999"/><polyline points="-0.2766666666666667,0.5
-0.2766666666666667,-0.5049999999999999"/><polyline points="-0.16499999999999998,0.5
-0.16499999999999998,-0.5049999999999999"/><polyline points="-5.333333333333329e-2,0.5
-5.333333333333329e-2,-0.5049999999999999"/><polyline points="5.833333333333335e-2,0.5
5.833333333333335e-2,-0.5049999999999999"/><polyline points="0.16999999999999993,0.5
0.16999999999999993,-0.5049999999999999"/><polyline points="0.2816666666666666,0.5
0.2816666666666666,-0.5049999999999999"/><polyline points="0.3933333333333332,0.5
0.3933333333333332,-0.5049999999999999"/><polyline points="0.5049999999999999,0.5
0.5049999999999999,-0.5049999999999999"/></g></g></g><g class="axisbar"><g stroke-opacity="0.0" fill="#0d0d0d" stroke="#000000" stroke-width="0.0" fill-opacity="0.4"><rect width="1.009" x="-0.502" y="0.51" height="4.0000000000000036e-3"/></g></g></g></g></svg>