<svg width="299.3206957741496" xmlns:xlink="http://www.w3.org/1999/xlink" xmlns="http://www.w3.org/2000/svg" viewBox="-0.5 -0.5007945948613215 0.9999999999999999 1.0022694863250048" height="300.0"><style>svg {
  color-scheme: light dark;
}
@media (prefers-color-scheme:dark) {
  svg {
    background-color: #f0f0f0;
  }
}</style><g stroke-opacity="0.0" fill="#0d0d0d" stroke="#000000" stroke-width="0.0" fill-opacity="0.4"><rect width="3.446473588966048e-3" x="-0.3828198979751552" y="-0.47958747700156956" height="0.8451205398113008"/></g><g stroke-opacity="0.4" fill="#0d0d0d" stroke="#0d0d0d" stroke-width="4.0e-3" fill-opacity="0.4"><g transform="rotate(-90.0, -0.39660579233101934, 0.36384955575831424)"><polyline points="-0.39660579233101934,0.37884955575831425
-0.39660579233101934,0.3488495557583142"/></g><g transform="rotate(-90.0, -0.39660579233101934, 0.2873265079666354)"><polyline points="-0.39660579233101934,0.3023265079666354
-0.39660579233101934,0.2723265079666354"/></g><g transform="rotate(-90.0, -0.39660579233101934, 0.2108034601749566)"><polyline points="-0.39660579233101934,0.22580346017495662
-0.39660579233101934,0.1958034601749566"/></g><g transform="rotate(-90.0, -0.39660579233101934, 0.13428041238327776)"><polyline points="-0.39660579233101934,0.14928041238327777
-0.39660579233101934,0.11928041238327776"/></g><g transform="rotate(-90.0, -0.39660579233101934, 5.775736459159897e-2)"><polyline points="-0.39660579233101934,7.275736459159897e-2
-0.39660579233101934,4.275736459159897e-2"/></g><g transform="rotate(-90.0, -0.39660579233101934, -1.8765683200079764e-2)"><polyline points="-0.39660579233101934,-3.765683200079764e-3
-0.39660579233101934,-3.376568320007976e-2"/></g><g transform="rotate(-90.0, -0.39660579233101934, -9.528873099175872e-2)"><polyline points="-0.39660579233101934,-8.028873099175872e-2
-0.39660579233101934,-0.11028873099175872"/></g><g transform="rotate(-90.0, -0.39660579233101934, -0.17181177878343745)"><polyline points="-0.39660579233101934,-0.15681177878343744
-0.39660579233101934,-0.18681177878343747"/></g><g transform="rotate(-90.0, -0.39660579233101934, -0.2483348265751163)"><polyline points="-0.39660579233101934,-0.23333482657511628
-0.39660579233101934,-0.2633348265751163"/></g><g transform="rotate(-90.0, -0.39660579233101934, -0.32485787436679503)"><polyline points="-0.39660579233101934,-0.309857874366795
-0.39660579233101934,-0.33985787436679504"/></g><g transform="rotate(-90.0, -0.39660579233101934, -0.4013809221584739)"><polyline points="-0.39660579233101934,-0.38638092215847386
-0.39660579233101934,-0.4163809221584739"/></g><g transform="rotate(-90.0, -0.39660579233101934, -0.47790396995015283)"><polyline points="-0.39660579233101934,-0.4629039699501528
-0.39660579233101934,-0.49290396995015284"/></g></g><g fill="#0d0d0d" stroke="none" stroke-width="0.0" font-size="4.3080919862075295e-2" fill-opacity="1.0" text-anchor="end"><text x="-0.4224543442482645" y="0.3754236667368057">-0.1</text><text x="-0.4224543442482645" y="0.2989006189451268">0</text><text x="-0.4224543442482645" y="0.22237757115344803">0.1</text><text x="-0.4224543442482645" y="0.14585452336176918">0.2</text><text x="-0.4224543442482645" y="6.933147557009045e-2">0.3</text><text x="-0.4224543442482645" y="-7.191572221588394e-3">0.4</text><text x="-0.4224543442482645" y="-8.371462001326724e-2">0.5</text><text x="-0.4224543442482645" y="-0.16023766780494597">0.6</text><text x="-0.4224543442482645" y="-0.23676071559662482">0.7</text><text x="-0.4224543442482645" y="-0.31328376338830355">0.8</text><text x="-0.4224543442482645" y="-0.3898068111799825">0.9</text><text x="-0.4224543442482645" y="-0.46632985897166124">1</text></g><g stroke-opacity="5.0e-2" fill="none" stroke="#0d0d0d" stroke-width="5.0e-3"><polyline points="-0.3707572404137741,0.36384955575831424
0.49086115682773157,0.36384955575831424"/><polyline points="-0.3707572404137741,0.2873265079666354
0.49086115682773157,0.2873265079666354"/><polyline points="-0.3707572404137741,0.2108034601749566
0.49086115682773157,0.2108034601749566"/><polyline points="-0.3707572404137741,0.13428041238327776
0.49086115682773157,0.13428041238327776"/><polyline points="-0.3707572404137741,5.775736459159897e-2
0.49086115682773157,5.775736459159897e-2"/><polyline points="-0.3707572404137741,-1.8765683200079764e-2
0.49086115682773157,-1.8765683200079764e-2"/><polyline points="-0.3707572404137741,-9.528873099175872e-2
0.49086115682773157,-9.528873099175872e-2"/><polyline points="-0.3707572404137741,-0.17181177878343745
0.49086115682773157,-0.17181177878343745"/><polyline points="-0.3707572404137741,-0.2483348265751163
0.49086115682773157,-0.2483348265751163"/><polyline points="-0.3707572404137741,-0.32485787436679503
0.49086115682773157,-0.32485787436679503"/><polyline points="-0.3707572404137741,-0.4013809221584739
0.49086115682773157,-0.4013809221584739"/><polyline points="-0.3707572404137741,-0.47790396995015283
0.49086115682773157,-0.47790396995015283"/></g><g stroke-opacity="0.0" fill="#0d0d0d" stroke="#000000" stroke-width="0.0" fill-opacity="0.4"><rect width="0.865064870830472" x="-0.37248047720825717" y="0.3722670910153989" height="3.3670141028339096e-3"/></g><g stroke-opacity="0.4" fill="#0d0d0d" stroke="#0d0d0d" stroke-width="4.0e-3" fill-opacity="0.4"><polyline points="-0.3707572404137741,0.4041021615295683
-0.3707572404137741,0.37410216152956827"/><polyline points="-0.2750218629424957,0.4041021615295683
-0.2750218629424957,0.37410216152956827"/><polyline points="-0.17928648547121728,0.4041021615295683
-0.17928648547121728,0.37410216152956827"/><polyline points="-8.355110799993881e-2,0.4041021615295683
-8.355110799993881e-2,0.37410216152956827"/><polyline points="1.218426947133966e-2,0.4041021615295683
1.218426947133966e-2,0.37410216152956827"/><polyline points="0.10791964694261802,0.4041021615295683
0.10791964694261802,0.37410216152956827"/><polyline points="0.2036550244138965,0.4041021615295683
0.2036550244138965,0.37410216152956827"/><polyline points="0.29939040188517496,0.4041021615295683
0.29939040188517496,0.37410216152956827"/><polyline points="0.3951257793564533,0.4041021615295683
0.3951257793564533,0.37410216152956827"/><polyline points="0.49086115682773157,0.4041021615295683
0.49086115682773157,0.37410216152956827"/></g><g fill="#0d0d0d" stroke="none" stroke-width="0.0" font-size="4.3080919862075295e-2" fill-opacity="1.0" text-anchor="end"><text x="-0.3707572404137741" y="0.4375029892578051" transform="rotate(-45.0, -0.3707572404137741, 0.4375029892578051)">-0.8</text><text x="-0.2750218629424957" y="0.4375029892578051" transform="rotate(-45.0, -0.2750218629424957, 0.4375029892578051)">-0.6</text><text x="-0.17928648547121728" y="0.4375029892578051" transform="rotate(-45.0, -0.17928648547121728, 0.4375029892578051)">-0.4</text><text x="-8.355110799993881e-2" y="0.4375029892578051" transform="rotate(-45.0, -8.355110799993881e-2, 0.4375029892578051)">-0.2</text><text x="1.218426947133966e-2" y="0.4375029892578051" transform="rotate(-45.0, 1.218426947133966e-2, 0.4375029892578051)">0</text><text x="0.10791964694261802" y="0.4375029892578051" transform="rotate(-45.0, 0.10791964694261802, 0.4375029892578051)">0.2</text><text x="0.2036550244138965" y="0.4375029892578051" transform="rotate(-45.0, 0.2036550244138965, 0.4375029892578051)">0.4</text><text x="0.29939040188517496" y="0.4375029892578051" transform="rotate(-45.0, 0.29939040188517496, 0.4375029892578051)">0.6</text><text x="0.3951257793564533" y="0.4375029892578051" transform="rotate(-45.0, 0.3951257793564533, 0.4375029892578051)">0.8</text><text x="0.49086115682773157" y="0.4375029892578051" transform="rotate(-45.0, 0.49086115682773157, 0.4375029892578051)">1</text></g><g stroke-opacity="5.0e-2" fill="none" stroke="#0d0d0d" stroke-width="5.0e-3"><polyline points="-0.3707572404137741,0.36384955575831424
-0.3707572404137741,-0.47790396995015283"/><polyline points="-0.2750218629424957,0.36384955575831424
-0.2750218629424957,-0.47790396995015283"/><polyline points="-0.17928648547121728,0.36384955575831424
-0.17928648547121728,-0.47790396995015283"/><polyline points="-8.355110799993881e-2,0.36384955575831424
-8.355110799993881e-2,-0.47790396995015283"/><polyline points="1.218426947133966e-2,0.36384955575831424
1.218426947133966e-2,-0.47790396995015283"/><polyline points="0.10791964694261802,0.36384955575831424
0.10791964694261802,-0.47790396995015283"/><polyline points="0.2036550244138965,0.36384955575831424
0.2036550244138965,-0.47790396995015283"/><polyline points="0.29939040188517496,0.36384955575831424
0.29939040188517496,-0.47790396995015283"/><polyline points="0.3951257793564533,0.36384955575831424
0.3951257793564533,-0.47790396995015283"/><polyline points="0.49086115682773157,0.36384955575831424
0.49086115682773157,-0.47790396995015283"/></g><g stroke-opacity="0.0" fill="#ffffff" stroke="#000000" stroke-width="0.0" fill-opacity="2.0e-2"><rect width="0.8659264892277133" x="-0.3707572404137741" y="-0.4821127375786951" height="0.8459622933370093"/></g><g stroke-opacity="0.0" fill="#1f78b5" stroke="#000000" stroke-width="1.0e-2" fill-opacity="0.1"><path d="M 0.4909,0.2873 A 0.47867688735639213 0.38261523895839405 -0.0 0 1 0.0122,-0.4779"/></g><g stroke-opacity="1.0" fill="none" stroke="#a6cfe3" stroke-width="2.0e-3"><polyline points="0.49086115682773157,0.2873265079666355
0.47570745339376175,0.2931468278262812
0.4603325066951074,0.2985838086888565
0.44475148994772085,0.3036320849107346
0.4289797797338105,0.30828667445283625
0.41303294082701203,0.31254298379729895
0.3969267108318336,0.3163968124807254
0.3806769846525433,0.3198443572395334
0.36429979880681584,0.32288221576331794
0.34781131559962697,0.32550739005252055
0.3312278071730096,0.32771728937709294
0.31456563944741434,0.32950973283323476
0.2978412559705228,0.33088295149568225
0.2810711616894499,0.33183559016342445
0.2642719066623559,0.3323667086971218
0.2474600697255358,0.3324757829469112
0.23065224213211033,0.3321627052696784
0.21386501117846302,0.3314277846352882
0.19711494383458017,0.33027174632166933
0.18041857039445264,0.328695731199052
0.16379236816267195,0.3267012946040674
0.14725274519331932,0.3242904048048173
0.13081602409719806,0.32146544105843233
0.11449842593338766,0.3182291912630315
9.83160542010163e-2,0.3145848492064037
8.228487894705283e-2,0.3105360114141248
6.642072100579766e-2,0.306086673600221
5.073923638562983e-2,0.30124122672388204
3.5255900818417785e-2,0.29600445265611397
1.9985994486839243e-2,0.29038151946061047
4.944586944687801e-3,0.28437797629349765
-9.853477754958706e-3,0.27799974792698695
-2.4393595709025884e-2,0.27125312890234055
-3.866141757673164e-2,0.2641447773179191
-5.264286274065216e-2,0.25668170825844233
-6.632413320259245e-2,0.24887128687194826
-7.969172720054385e-2,0.24072122110128025
-9.273245253329321e-2,0.2322395540772787
-0.10543343957953188,0.22343465618118247
-0.11778215399861858,0.21431521678407262
-0.1297664091004606,0.20489023567151227
-0.14137437787230422,0.19516901416184573
-0.1525946046505693,0.18516114592691968
-0.16341601642620557,0.17487650752428757
-0.17382793377241612,0.16432524865023956
-0.18382008138396067,0.1535177821232792
-0.19338259821764314,0.14246477360792692
-0.20250604722396953,0.13117713108899792
-0.21118142466037637,0.11966599410673823
-0.21940016897683695,0.10794272276344419
-0.22715416926507892,9.60188865124117e-2
-0.2344357732630702,8.390625274028324e-2
-0.24123779490687774,7.161677515405912e-2
-0.2475535214224454,5.916258198423102e-2
-0.2533767199502912,4.655596401568268e-2
-0.2587016436965871,3.380936245817073e-2
-0.2635230376045501,2.0935356668350558e-2
-0.26783614354054974,7.946651735472654e-3
-0.27163670498981074,-5.143934057008526e-3
-0.27492097125707915,-1.832348188153088e-2
-0.2776857011681062,-3.1578985115748415e-2
-0.2799281662682954,-4.489736217849749e-2
-0.28164615351535816,-5.826546943973743e-2
-0.28283796746331863,-7.167011419172531e-2
-0.2835024319357156,-8.509806766862726e-2
-0.28363889118634483,-9.853607810171272e-2
-0.2832472105464029,-0.11197088379724851
-0.28232777655738794,-0.12538922622419157
-0.2808814965896307,-0.13877786309875662
-0.278909797946829,-0.15212358145295213
-0.2764146264574719,-0.16541321067418313
-0.2733984445545411,-0.17863363550305722
-0.2698642288453878,-0.1917718089765611
-0.2658154671741796,-0.20481476530383824
-0.26125615517982115,-0.2177496326618571
-0.256190792352739,-0.230563645898349
-0.2506243775944289,-0.24324415912947062
-0.24456240428414427,-0.2557786582197634
-0.2380108548575925,-0.268154773132097
-0.23097619490299448,-0.2803602901353994
-0.2234653667803292,-0.29238316385813745
-0.21548578277006336,-0.30421152917564087
-0.20704531775812468,-0.31583371291955076
-0.19815230146434065,-0.32723824539782653
-0.1888155102220107,-0.33841387171394544
-0.1790441583167261,-0.349349562874128
-0.1688478888929807,-0.3600345266716236
-0.15823676443755258,-0.3704582183373135
-0.1472212568490457,-0.3806103509461263
-0.1358122371033884,-0.39048090556899084
-0.12402096452549394,-0.4000601411603092
-0.11185907567766584,-0.4093386041711917
-9.933857287571723e-2,-0.4183071378789692
-8.647181234413193e-2,-0.4269568914237736
-7.327149202196587e-2,-0.43527932854326423
-5.9750639031510566e-2,-0.44326623599689363
-4.59225968221007e-2,-0.4509097316713787
-3.180101200173718e-2,-0.45820227235939914
-1.7399820869535843e-2,-0.4651366612038288
-2.7332356622798426e-3,-0.47170605480016725
1.218426947133966e-2,-0.47790396995015283"/></g><g stroke-opacity="1.0" fill="#a6cfe3" stroke="#1f78b5" stroke-width="3.0e-3" fill-opacity="1.0"><rect width="3.0000000000000027e-2" x="0.2365227180913132" y="-0.11028873296678542" height="3.0e-2"/></g><g stroke-opacity="1.0" fill="#6666cc" stroke="#808080" stroke-width="2.0e-3" fill-opacity="0.1"><rect width="0.7745154684298696" x="-0.28365431160213805" y="-0.47790396995015283" height="0.810392078752515"/></g></svg>