<svg xmlns="http://www.w3.org/2000/svg" height="300.0" viewBox="-0.6 -0.5331313896679636 1.1104482758620686 1.0550727689783084" width="315.7455035838098" xmlns:xlink="http://www.w3.org/1999/xlink"><g stroke-opacity="0.0" fill-opacity="2.5e-2" stroke="#000000" stroke-width="0.0" fill="#808080"><rect height="0.9047317470370035" width="0.9341226132563273" x="-0.4341226132563273" y="-0.5"/></g><g stroke-opacity="5.0e-2" stroke="#808080" stroke-width="5.0e-3" fill="none"><polyline points="-0.4341226132563273,0.40473174703700354
0.5,0.40473174703700354"/></g><g stroke-opacity="5.0e-2" stroke="#808080" stroke-width="5.0e-3" fill="none"><polyline points="-0.4341226132563273,0.3224834063972759
0.5,0.3224834063972759"/></g><g stroke-opacity="5.0e-2" stroke="#808080" stroke-width="5.0e-3" fill="none"><polyline points="-0.4341226132563273,0.24023506575754838
0.5,0.24023506575754838"/></g><g stroke-opacity="5.0e-2" stroke="#808080" stroke-width="5.0e-3" fill="none"><polyline points="-0.4341226132563273,0.15798672511782075
0.5,0.15798672511782075"/></g><g stroke-opacity="5.0e-2" stroke="#808080" stroke-width="5.0e-3" fill="none"><polyline points="-0.4341226132563273,7.573838447809311e-2
0.5,7.573838447809311e-2"/></g><g stroke-opacity="5.0e-2" stroke="#808080" stroke-width="5.0e-3" fill="none"><polyline points="-0.4341226132563273,-6.5099561616344115e-3
0.5,-6.5099561616344115e-3"/></g><g stroke-opacity="5.0e-2" stroke="#808080" stroke-width="5.0e-3" fill="none"><polyline points="-0.4341226132563273,-8.875829680136205e-2
0.5,-8.875829680136205e-2"/></g><g stroke-opacity="5.0e-2" stroke="#808080" stroke-width="5.0e-3" fill="none"><polyline points="-0.4341226132563273,-0.17100663744108957
0.5,-0.17100663744108957"/></g><g stroke-opacity="5.0e-2" stroke="#808080" stroke-width="5.0e-3" fill="none"><polyline points="-0.4341226132563273,-0.2532549780808172
0.5,-0.2532549780808172"/></g><g stroke-opacity="5.0e-2" stroke="#808080" stroke-width="5.0e-3" fill="none"><polyline points="-0.4341226132563273,-0.33550331872054473
0.5,-0.33550331872054473"/></g><g stroke-opacity="5.0e-2" stroke="#808080" stroke-width="5.0e-3" fill="none"><polyline points="-0.4341226132563273,-0.41775165936027236
0.5,-0.41775165936027236"/></g><g stroke-opacity="5.0e-2" stroke="#808080" stroke-width="5.0e-3" fill="none"><polyline points="-0.4341226132563273,-0.5
0.5,-0.5"/></g><g fill-opacity="1.0" font-size="5.0e-2" stroke="none" stroke-width="0.0" fill="#808080" text-anchor="end"><text x="-0.5" y="0.4178503573690401">-0.1</text></g><g fill-opacity="1.0" font-size="5.0e-2" stroke="none" stroke-width="0.0" fill="#808080" text-anchor="end"><text x="-0.5" y="0.3356020167293125">0</text></g><g fill-opacity="1.0" font-size="5.0e-2" stroke="none" stroke-width="0.0" fill="#808080" text-anchor="end"><text x="-0.5" y="0.2533536760895849">0.1</text></g><g fill-opacity="1.0" font-size="5.0e-2" stroke="none" stroke-width="0.0" fill="#808080" text-anchor="end"><text x="-0.5" y="0.17110533544985734">0.2</text></g><g fill-opacity="1.0" font-size="5.0e-2" stroke="none" stroke-width="0.0" fill="#808080" text-anchor="end"><text x="-0.5" y="8.885699481012971e-2">0.3</text></g><g fill-opacity="1.0" font-size="5.0e-2" stroke="none" stroke-width="0.0" fill="#808080" text-anchor="end"><text x="-0.5" y="6.6086541704021284e-3">0.4</text></g><g fill-opacity="1.0" font-size="5.0e-2" stroke="none" stroke-width="0.0" fill="#808080" text-anchor="end"><text x="-0.5" y="-7.56396864693255e-2">0.5</text></g><g fill-opacity="1.0" font-size="5.0e-2" stroke="none" stroke-width="0.0" fill="#808080" text-anchor="end"><text x="-0.5" y="-0.15788802710905303">0.6</text></g><g fill-opacity="1.0" font-size="5.0e-2" stroke="none" stroke-width="0.0" fill="#808080" text-anchor="end"><text x="-0.5" y="-0.24013636774878067">0.7</text></g><g fill-opacity="1.0" font-size="5.0e-2" stroke="none" stroke-width="0.0" fill="#808080" text-anchor="end"><text x="-0.5" y="-0.3223847083885083">0.8</text></g><g fill-opacity="1.0" font-size="5.0e-2" stroke="none" stroke-width="0.0" fill="#808080" text-anchor="end"><text x="-0.5" y="-0.4046330490282356">0.9</text></g><g fill-opacity="1.0" font-size="5.0e-2" stroke="none" stroke-width="0.0" fill="#808080" text-anchor="end"><text x="-0.5" y="-0.48688138966796357">1</text></g><g stroke-opacity="1.0" fill-opacity="1.0" stroke="#808080" stroke-width="5.0e-3" fill="#808080"><g transform="rotate(-90.0, -0.46957095587317516, 0.40473174703700354)"><polyline points="-0.46957095587317516,0.41973174703700356
-0.46957095587317516,0.38973174703700353"/></g><g transform="rotate(-90.0, -0.46957095587317516, 0.3224834063972759)"><polyline points="-0.46957095587317516,0.3374834063972759
-0.46957095587317516,0.3074834063972759"/></g><g transform="rotate(-90.0, -0.46957095587317516, 0.24023506575754838)"><polyline points="-0.46957095587317516,0.2552350657575484
-0.46957095587317516,0.22523506575754837"/></g><g transform="rotate(-90.0, -0.46957095587317516, 0.15798672511782075)"><polyline points="-0.46957095587317516,0.17298672511782076
-0.46957095587317516,0.14298672511782073"/></g><g transform="rotate(-90.0, -0.46957095587317516, 7.573838447809311e-2)"><polyline points="-0.46957095587317516,9.073838447809311e-2
-0.46957095587317516,6.073838447809311e-2"/></g><g transform="rotate(-90.0, -0.46957095587317516, -6.5099561616344115e-3)"><polyline points="-0.46957095587317516,8.490043838365588e-3
-0.46957095587317516,-2.150995616163441e-2"/></g><g transform="rotate(-90.0, -0.46957095587317516, -8.875829680136205e-2)"><polyline points="-0.46957095587317516,-7.375829680136205e-2
-0.46957095587317516,-0.10375829680136205"/></g><g transform="rotate(-90.0, -0.46957095587317516, -0.17100663744108957)"><polyline points="-0.46957095587317516,-0.15600663744108956
-0.46957095587317516,-0.18600663744108958"/></g><g transform="rotate(-90.0, -0.46957095587317516, -0.2532549780808172)"><polyline points="-0.46957095587317516,-0.2382549780808172
-0.46957095587317516,-0.2682549780808172"/></g><g transform="rotate(-90.0, -0.46957095587317516, -0.33550331872054473)"><polyline points="-0.46957095587317516,-0.3205033187205447
-0.46957095587317516,-0.35050331872054474"/></g><g transform="rotate(-90.0, -0.46957095587317516, -0.41775165936027236)"><polyline points="-0.46957095587317516,-0.40275165936027235
-0.46957095587317516,-0.4327516593602724"/></g><g transform="rotate(-90.0, -0.46957095587317516, -0.5)"><polyline points="-0.46957095587317516,-0.485
-0.46957095587317516,-0.515"/></g></g><g stroke-opacity="1.0" fill-opacity="1.0" stroke="#808080" stroke-width="0.0" fill="#808080"><rect height="0.9047317470370035" width="4.6706130662816925e-3" x="-0.4578944232074711" y="-0.5"/></g><g stroke-opacity="5.0e-2" stroke="#808080" stroke-width="5.0e-3" fill="none"><polyline points="-0.4341226132563273,0.40473174703700354
-0.4341226132563273,-0.5"/></g><g stroke-opacity="5.0e-2" stroke="#808080" stroke-width="5.0e-3" fill="none"><polyline points="-0.34071035193069454,0.40473174703700354
-0.34071035193069454,-0.5"/></g><g stroke-opacity="5.0e-2" stroke="#808080" stroke-width="5.0e-3" fill="none"><polyline points="-0.2472980906050618,0.40473174703700354
-0.2472980906050618,-0.5"/></g><g stroke-opacity="5.0e-2" stroke="#808080" stroke-width="5.0e-3" fill="none"><polyline points="-0.15388582927942906,0.40473174703700354
-0.15388582927942906,-0.5"/></g><g stroke-opacity="5.0e-2" stroke="#808080" stroke-width="5.0e-3" fill="none"><polyline points="-6.0473567953796326e-2,0.40473174703700354
-6.0473567953796326e-2,-0.5"/></g><g stroke-opacity="5.0e-2" stroke="#808080" stroke-width="5.0e-3" fill="none"><polyline points="3.29386933718363e-2,0.40473174703700354
3.29386933718363e-2,-0.5"/></g><g stroke-opacity="5.0e-2" stroke="#808080" stroke-width="5.0e-3" fill="none"><polyline points="0.12635095469746915,0.40473174703700354
0.12635095469746915,-0.5"/></g><g stroke-opacity="5.0e-2" stroke="#808080" stroke-width="5.0e-3" fill="none"><polyline points="0.21976321602310178,0.40473174703700354
0.21976321602310178,-0.5"/></g><g stroke-opacity="5.0e-2" stroke="#808080" stroke-width="5.0e-3" fill="none"><polyline points="0.3131754773487345,0.40473174703700354
0.3131754773487345,-0.5"/></g><g stroke-opacity="5.0e-2" stroke="#808080" stroke-width="5.0e-3" fill="none"><polyline points="0.40658773867436704,0.40473174703700354
0.40658773867436704,-0.5"/></g><g stroke-opacity="5.0e-2" stroke="#808080" stroke-width="5.0e-3" fill="none"><polyline points="0.4999999999999998,0.40473174703700354
0.4999999999999998,-0.5"/></g><g fill-opacity="1.0" font-size="4.179310344827588e-2" stroke="none" stroke-width="0.0" fill="#808080" text-anchor="middle"><text x="-0.4341226132563273" y="0.5">0</text></g><g fill-opacity="1.0" font-size="4.179310344827588e-2" stroke="none" stroke-width="0.0" fill="#808080" text-anchor="middle"><text x="-0.34071035193069454" y="0.5">0.1</text></g><g fill-opacity="1.0" font-size="4.179310344827588e-2" stroke="none" stroke-width="0.0" fill="#808080" text-anchor="middle"><text x="-0.2472980906050618" y="0.5">0.2</text></g><g fill-opacity="1.0" font-size="4.179310344827588e-2" stroke="none" stroke-width="0.0" fill="#808080" text-anchor="middle"><text x="-0.15388582927942906" y="0.5">0.3</text></g><g fill-opacity="1.0" font-size="4.179310344827588e-2" stroke="none" stroke-width="0.0" fill="#808080" text-anchor="middle"><text x="-6.0473567953796326e-2" y="0.5">0.4</text></g><g fill-opacity="1.0" font-size="4.179310344827588e-2" stroke="none" stroke-width="0.0" fill="#808080" text-anchor="middle"><text x="3.29386933718363e-2" y="0.5">0.5</text></g><g fill-opacity="1.0" font-size="4.179310344827588e-2" stroke="none" stroke-width="0.0" fill="#808080" text-anchor="middle"><text x="0.12635095469746915" y="0.5">0.6</text></g><g fill-opacity="1.0" font-size="4.179310344827588e-2" stroke="none" stroke-width="0.0" fill="#808080" text-anchor="middle"><text x="0.21976321602310178" y="0.5">0.7</text></g><g fill-opacity="1.0" font-size="4.179310344827588e-2" stroke="none" stroke-width="0.0" fill="#808080" text-anchor="middle"><text x="0.3131754773487345" y="0.5">0.8</text></g><g fill-opacity="1.0" font-size="4.179310344827588e-2" stroke="none" stroke-width="0.0" fill="#808080" text-anchor="middle"><text x="0.40658773867436704" y="0.5">0.9</text></g><g fill-opacity="1.0" font-size="4.179310344827588e-2" stroke="none" stroke-width="0.0" fill="#808080" text-anchor="middle"><text x="0.4999999999999998" y="0.5">1</text></g><g stroke-opacity="1.0" fill-opacity="1.0" stroke="#808080" stroke-width="5.0e-3" fill="#808080"><polyline points="-0.4341226132563273,0.44461187008052117
-0.4341226132563273,0.41461187008052114"/><polyline points="-0.34071035193069454,0.44461187008052117
-0.34071035193069454,0.41461187008052114"/><polyline points="-0.2472980906050618,0.44461187008052117
-0.2472980906050618,0.41461187008052114"/><polyline points="-0.15388582927942906,0.44461187008052117
-0.15388582927942906,0.41461187008052114"/><polyline points="-6.0473567953796326e-2,0.44461187008052117
-6.0473567953796326e-2,0.41461187008052114"/><polyline points="3.29386933718363e-2,0.44461187008052117
3.29386933718363e-2,0.41461187008052114"/><polyline points="0.12635095469746915,0.44461187008052117
0.12635095469746915,0.41461187008052114"/><polyline points="0.21976321602310178,0.44461187008052117
0.21976321602310178,0.41461187008052114"/><polyline points="0.3131754773487345,0.44461187008052117
0.3131754773487345,0.41461187008052114"/><polyline points="0.40658773867436704,0.44461187008052117
0.40658773867436704,0.41461187008052114"/><polyline points="0.4999999999999998,0.44461187008052117
0.4999999999999998,0.41461187008052114"/></g><g stroke-opacity="1.0" fill-opacity="1.0" stroke="#808080" stroke-width="0.0" fill="#808080"><rect height="4.5236587351850654e-3" width="0.9341226132563273" x="-0.4341226132563273" y="0.4137790645073736"/></g><g stroke-opacity="0.0" fill-opacity="0.1" stroke="#000000" stroke-width="1.0e-2" fill="#e31a1c"><path d="M 0.5000,0.3225 A 0.9341226132563273 0.41124170319863795 56.746482974043396 0 1 -0.4341,-0.5"/></g><g stroke-opacity="1.0" stroke="#1f78b4" stroke-width="2.0e-3" fill="none"><polyline points="0.4999999999999998,0.3224834063972759
0.4913180331574062,0.32353252021195344
0.4825189620523863,0.3243491381932497
0.47360555305057006,0.32493300360225563
0.4645806084646139,0.3252839328758222
0.45544696567317156,0.3254018156842714
0.44620749622884237,0.32528661496608324
0.43686510495537556,0.32493836693954775
0.4274227290344156,0.3243571810913775
0.41788333708207026,0.3235432401422867
0.4082499282156019,0.32249679998954456
0.3985255311105237,0.3212181896265231
0.3887132030484072,0.319707811039264
0.37881602895569366,0.31796613908009685
0.36883712043381556,0.3159937213183496
0.358779614780931,0.31379117786819544
0.3486466740055797,0.3113592011936945
0.33844148383256834,0.3086985558910873
0.3281672527014041,0.3058100784484114
0.31782721075758136,0.3026946769825159
0.3074246088370479,0.29935333095355476
0.2969627174441658,0.29578709085705257
0.28644482572348606,0.2919970778936358
0.275874240425667,0.2879844836165353
0.26525428486785463,0.2837505695569703
0.25458829788885395,0.27929666682753196
0.2438796327994237,0.27462417570369135
0.2331316563280177,0.2697345651835622
0.2223477475623099,0.2646293725260586
0.21153129688683325,0.2593102027675914
0.2006857049170665,0.25377872821745723
0.18981438143030505,0.2480366879320744
0.1789207442936508,0.2420858871682377
0.16800821838945912,0.23592819681555716
0.15708023453858055,0.22956555280826463
0.1461402284217338,0.22299995551656865
0.13519163949935353,0.21623346911775349
0.1242379099302473,0.20926822094721537
0.11328248348940584,0.20210640082964398
0.1023288044853039,0.19475026039055643
9.138031667703506e-2,0.187202112348403
8.044046219161738e-2,0.17946432978746407
6.951268044181347e-2,0.17153934541176952
5.860040704480307e-2,0.16342965078027405
4.7707072742050105e-2,0.1551377955235283
3.6836102320701225e-2,0.14666638654209313
2.5990913536857008e-2,0.13801808718694902
1.5174916041054143e-2,0.12919561642215677
4.391510306294699e-3,0.12020174797003447
-6.355913441037531e-3,0.11103930943911966
-1.7063976287041482e-2,0.10171118143518798
-2.7729311692603842e-2,9.22202966556126e-2
-3.83485665518164e-2,8.256963896734354e-2
-4.8918402246168446e-2,7.276224246880159e-2
-5.9435495694184326e-2,6.280119053597971e-2
-6.98965403961771e-2,5.268961485305085e-2
-8.029824747378889e-2,4.243069442778857e-2
-9.063734670399048e-2,3.20276545921101e-2
-0.10091058754721605,2.1483765988054737e-2
-0.11111474016931067,1.0802343539516368e-2
-0.12124659645696673,-1.3254589944611261e-5
-0.13130297102633165,-1.095962805288353e-2
-0.14128070222447098,-2.203333538701746e-2
-0.1511766531233687,-3.3230895097196456e-2
-0.160987712506156,-4.4548786749960656e-2
-0.17071079584525528,-5.5983452080339724e-2
-0.18034284627213387,-6.753129611054609e-2
-0.18988083553836194,-7.918868828021086e-2
-0.1993217649676723,-9.0951963587806e-2
-0.20866266639872305,-0.1028174237428946
-0.21790060311826664,-0.11478133832884763
-0.22703267078443118,-0.12683994597566084
-0.23605599833982543,-0.13898945554250142
-0.24496774891417872,-0.15122604730961764
-0.25376512071623303,-0.1635458741792304
-0.26244534791460605,-0.17594506288503375
-0.27100570150734915,-0.18841971520992284
-0.27944349017992653,-0.20096590921156576
-0.2877560611513446,-0.2135797004554335
-0.29594080100816855,-0.22625712325490355
-0.30399513652616045,-0.2389941919180425
-0.3119165354792828,-0.2517869020006802
-0.3197025074358122,-0.26463123156537827
-0.32735060454131437,-0.2775231424458985
-0.33485842228823115,-0.2904585815167743
-0.3422236002718413,-0.3034334819675847
-0.34944382293235465,-0.31644376458152945
-0.3565168202829082,-0.32948533901790766
-0.36344036862323337,-0.3425541050980907
-0.37021229123877175,-0.3556459540945901
-0.376830459085019,-0.36875677002281115
-0.38329279145688133,-0.38188243093509133
-0.38959725664283384,-0.39501881021660945
-0.3957418725636772,-0.4081617778827652
-0.40172470739568844,-0.42130720187761683
-0.4075438801779732,-0.4344509493729699
-0.4131975614038264,-0.4475888880677099
-0.4186839735959159,-0.46071688748696826
-0.4240013918651092,-0.4738308202807143
-0.4291481444527659,-0.48692656352136343
-0.4341226132563273,-0.5"/></g><g stroke-opacity="0.8" fill-opacity="0.3" stroke="#1f78b4" stroke-width="3.0e-3" fill="#a6cee3"><rect height="3.0000000000000027e-2" width="3.0000000000000013e-2" x="0.10384061360481679" y="-0.4309747042034927"/></g><g stroke-opacity="1.0" fill-opacity="0.1" stroke="#808080" stroke-width="2.0e-3" fill="#6666cc"><rect height="0.8254018195424235" width="0.9341226132563271" x="-0.4341226132563273" y="-0.5"/></g><g></g></svg>