<svg xmlns="http://www.w3.org/2000/svg" height="300.0" viewBox="-0.6 -0.5331313896679636 1.110448275862069 1.0550727689783084" width="315.74550358381" xmlns:xlink="http://www.w3.org/1999/xlink"><g stroke-opacity="0.0" fill-opacity="2.5e-2" stroke="#000000" stroke-width="0.0" fill="#808080"><rect height="0.9047317470370035" width="0.9389010163603503" x="-0.4389010163603503" y="-0.5"/></g><g stroke-opacity="5.0e-2" stroke="#808080" stroke-width="5.0e-3" fill="none"><polyline points="-0.4389010163603503,0.40473174703700354
0.5,0.40473174703700354"/></g><g stroke-opacity="5.0e-2" stroke="#808080" stroke-width="5.0e-3" fill="none"><polyline points="-0.4389010163603503,0.3224834063972759
0.5,0.3224834063972759"/></g><g stroke-opacity="5.0e-2" stroke="#808080" stroke-width="5.0e-3" fill="none"><polyline points="-0.4389010163603503,0.24023506575754838
0.5,0.24023506575754838"/></g><g stroke-opacity="5.0e-2" stroke="#808080" stroke-width="5.0e-3" fill="none"><polyline points="-0.4389010163603503,0.15798672511782075
0.5,0.15798672511782075"/></g><g stroke-opacity="5.0e-2" stroke="#808080" stroke-width="5.0e-3" fill="none"><polyline points="-0.4389010163603503,7.573838447809311e-2
0.5,7.573838447809311e-2"/></g><g stroke-opacity="5.0e-2" stroke="#808080" stroke-width="5.0e-3" fill="none"><polyline points="-0.4389010163603503,-6.5099561616344115e-3
0.5,-6.5099561616344115e-3"/></g><g stroke-opacity="5.0e-2" stroke="#808080" stroke-width="5.0e-3" fill="none"><polyline points="-0.4389010163603503,-8.875829680136205e-2
0.5,-8.875829680136205e-2"/></g><g stroke-opacity="5.0e-2" stroke="#808080" stroke-width="5.0e-3" fill="none"><polyline points="-0.4389010163603503,-0.17100663744108957
0.5,-0.17100663744108957"/></g><g stroke-opacity="5.0e-2" stroke="#808080" stroke-width="5.0e-3" fill="none"><polyline points="-0.4389010163603503,-0.2532549780808172
0.5,-0.2532549780808172"/></g><g stroke-opacity="5.0e-2" stroke="#808080" stroke-width="5.0e-3" fill="none"><polyline points="-0.4389010163603503,-0.33550331872054473
0.5,-0.33550331872054473"/></g><g stroke-opacity="5.0e-2" stroke="#808080" stroke-width="5.0e-3" fill="none"><polyline points="-0.4389010163603503,-0.41775165936027236
0.5,-0.41775165936027236"/></g><g stroke-opacity="5.0e-2" stroke="#808080" stroke-width="5.0e-3" fill="none"><polyline points="-0.4389010163603503,-0.5
0.5,-0.5"/></g><g fill-opacity="1.0" font-size="5.0e-2" stroke="none" stroke-width="0.0" fill="#808080" text-anchor="end"><text x="-0.5" y="0.4178503573690401">-0.1</text></g><g fill-opacity="1.0" font-size="5.0e-2" stroke="none" stroke-width="0.0" fill="#808080" text-anchor="end"><text x="-0.5" y="0.3356020167293125">0</text></g><g fill-opacity="1.0" font-size="5.0e-2" stroke="none" stroke-width="0.0" fill="#808080" text-anchor="end"><text x="-0.5" y="0.2533536760895849">0.1</text></g><g fill-opacity="1.0" font-size="5.0e-2" stroke="none" stroke-width="0.0" fill="#808080" text-anchor="end"><text x="-0.5" y="0.17110533544985734">0.2</text></g><g fill-opacity="1.0" font-size="5.0e-2" stroke="none" stroke-width="0.0" fill="#808080" text-anchor="end"><text x="-0.5" y="8.885699481012971e-2">0.3</text></g><g fill-opacity="1.0" font-size="5.0e-2" stroke="none" stroke-width="0.0" fill="#808080" text-anchor="end"><text x="-0.5" y="6.6086541704021284e-3">0.4</text></g><g fill-opacity="1.0" font-size="5.0e-2" stroke="none" stroke-width="0.0" fill="#808080" text-anchor="end"><text x="-0.5" y="-7.56396864693255e-2">0.5</text></g><g fill-opacity="1.0" font-size="5.0e-2" stroke="none" stroke-width="0.0" fill="#808080" text-anchor="end"><text x="-0.5" y="-0.15788802710905303">0.6</text></g><g fill-opacity="1.0" font-size="5.0e-2" stroke="none" stroke-width="0.0" fill="#808080" text-anchor="end"><text x="-0.5" y="-0.24013636774878067">0.7</text></g><g fill-opacity="1.0" font-size="5.0e-2" stroke="none" stroke-width="0.0" fill="#808080" text-anchor="end"><text x="-0.5" y="-0.3223847083885083">0.8</text></g><g fill-opacity="1.0" font-size="5.0e-2" stroke="none" stroke-width="0.0" fill="#808080" text-anchor="end"><text x="-0.5" y="-0.4046330490282356">0.9</text></g><g fill-opacity="1.0" font-size="5.0e-2" stroke="none" stroke-width="0.0" fill="#808080" text-anchor="end"><text x="-0.5" y="-0.48688138966796357">1</text></g><g stroke-opacity="1.0" fill-opacity="1.0" stroke="#808080" stroke-width="5.0e-3" fill="#808080"><g transform="rotate(-90.0, -0.4694152993920616, 0.40473174703700354)"><polyline points="-0.4694152993920616,0.41973174703700356
-0.4694152993920616,0.38973174703700353"/></g><g transform="rotate(-90.0, -0.4694152993920616, 0.3224834063972759)"><polyline points="-0.4694152993920616,0.3374834063972759
-0.4694152993920616,0.3074834063972759"/></g><g transform="rotate(-90.0, -0.4694152993920616, 0.24023506575754838)"><polyline points="-0.4694152993920616,0.2552350657575484
-0.4694152993920616,0.22523506575754837"/></g><g transform="rotate(-90.0, -0.4694152993920616, 0.15798672511782075)"><polyline points="-0.4694152993920616,0.17298672511782076
-0.4694152993920616,0.14298672511782073"/></g><g transform="rotate(-90.0, -0.4694152993920616, 7.573838447809311e-2)"><polyline points="-0.4694152993920616,9.073838447809311e-2
-0.4694152993920616,6.073838447809311e-2"/></g><g transform="rotate(-90.0, -0.4694152993920616, -6.5099561616344115e-3)"><polyline points="-0.4694152993920616,8.490043838365588e-3
-0.4694152993920616,-2.150995616163441e-2"/></g><g transform="rotate(-90.0, -0.4694152993920616, -8.875829680136205e-2)"><polyline points="-0.4694152993920616,-7.375829680136205e-2
-0.4694152993920616,-0.10375829680136205"/></g><g transform="rotate(-90.0, -0.4694152993920616, -0.17100663744108957)"><polyline points="-0.4694152993920616,-0.15600663744108956
-0.4694152993920616,-0.18600663744108958"/></g><g transform="rotate(-90.0, -0.4694152993920616, -0.2532549780808172)"><polyline points="-0.4694152993920616,-0.2382549780808172
-0.4694152993920616,-0.2682549780808172"/></g><g transform="rotate(-90.0, -0.4694152993920616, -0.33550331872054473)"><polyline points="-0.4694152993920616,-0.3205033187205447
-0.4694152993920616,-0.35050331872054474"/></g><g transform="rotate(-90.0, -0.4694152993920616, -0.41775165936027236)"><polyline points="-0.4694152993920616,-0.40275165936027235
-0.4694152993920616,-0.4327516593602724"/></g><g transform="rotate(-90.0, -0.4694152993920616, -0.5)"><polyline points="-0.4694152993920616,-0.485
-0.4694152993920616,-0.515"/></g></g><g stroke-opacity="1.0" fill-opacity="1.0" stroke="#808080" stroke-width="0.0" fill="#808080"><rect height="0.9047317470370035" width="4.6945050818017475e-3" x="-0.4576790366875573" y="-0.5"/></g><g stroke-opacity="5.0e-2" stroke="#808080" stroke-width="5.0e-3" fill="none"><polyline points="-0.4389010163603503,0.40473174703700354
-0.4389010163603503,-0.5"/></g><g stroke-opacity="5.0e-2" stroke="#808080" stroke-width="5.0e-3" fill="none"><polyline points="-0.3450109147243152,0.40473174703700354
-0.3450109147243152,-0.5"/></g><g stroke-opacity="5.0e-2" stroke="#808080" stroke-width="5.0e-3" fill="none"><polyline points="-0.25112081308828016,0.40473174703700354
-0.25112081308828016,-0.5"/></g><g stroke-opacity="5.0e-2" stroke="#808080" stroke-width="5.0e-3" fill="none"><polyline points="-0.1572307114522451,0.40473174703700354
-0.1572307114522451,-0.5"/></g><g stroke-opacity="5.0e-2" stroke="#808080" stroke-width="5.0e-3" fill="none"><polyline points="-6.334060981621015e-2,0.40473174703700354
-6.334060981621015e-2,-0.5"/></g><g stroke-opacity="5.0e-2" stroke="#808080" stroke-width="5.0e-3" fill="none"><polyline points="3.0549491819824914e-2,0.40473174703700354
3.0549491819824914e-2,-0.5"/></g><g stroke-opacity="5.0e-2" stroke="#808080" stroke-width="5.0e-3" fill="none"><polyline points="0.12443959345585998,0.40473174703700354
0.12443959345585998,-0.5"/></g><g stroke-opacity="5.0e-2" stroke="#808080" stroke-width="5.0e-3" fill="none"><polyline points="0.21832969509189504,0.40473174703700354
0.21832969509189504,-0.5"/></g><g stroke-opacity="5.0e-2" stroke="#808080" stroke-width="5.0e-3" fill="none"><polyline points="0.31221979672793,0.40473174703700354
0.31221979672793,-0.5"/></g><g stroke-opacity="5.0e-2" stroke="#808080" stroke-width="5.0e-3" fill="none"><polyline points="0.40610989836396505,0.40473174703700354
0.40610989836396505,-0.5"/></g><g stroke-opacity="5.0e-2" stroke="#808080" stroke-width="5.0e-3" fill="none"><polyline points="0.5,0.40473174703700354
0.5,-0.5"/></g><g fill-opacity="1.0" font-size="4.179310344827586e-2" stroke="none" stroke-width="0.0" fill="#808080" text-anchor="middle"><text x="-0.4389010163603503" y="0.5">0</text></g><g fill-opacity="1.0" font-size="4.179310344827586e-2" stroke="none" stroke-width="0.0" fill="#808080" text-anchor="middle"><text x="-0.3450109147243152" y="0.5">0.1</text></g><g fill-opacity="1.0" font-size="4.179310344827586e-2" stroke="none" stroke-width="0.0" fill="#808080" text-anchor="middle"><text x="-0.25112081308828016" y="0.5">0.2</text></g><g fill-opacity="1.0" font-size="4.179310344827586e-2" stroke="none" stroke-width="0.0" fill="#808080" text-anchor="middle"><text x="-0.1572307114522451" y="0.5">0.3</text></g><g fill-opacity="1.0" font-size="4.179310344827586e-2" stroke="none" stroke-width="0.0" fill="#808080" text-anchor="middle"><text x="-6.334060981621015e-2" y="0.5">0.4</text></g><g fill-opacity="1.0" font-size="4.179310344827586e-2" stroke="none" stroke-width="0.0" fill="#808080" text-anchor="middle"><text x="3.0549491819824914e-2" y="0.5">0.5</text></g><g fill-opacity="1.0" font-size="4.179310344827586e-2" stroke="none" stroke-width="0.0" fill="#808080" text-anchor="middle"><text x="0.12443959345585998" y="0.5">0.6</text></g><g fill-opacity="1.0" font-size="4.179310344827586e-2" stroke="none" stroke-width="0.0" fill="#808080" text-anchor="middle"><text x="0.21832969509189504" y="0.5">0.7</text></g><g fill-opacity="1.0" font-size="4.179310344827586e-2" stroke="none" stroke-width="0.0" fill="#808080" text-anchor="middle"><text x="0.31221979672793" y="0.5">0.8</text></g><g fill-opacity="1.0" font-size="4.179310344827586e-2" stroke="none" stroke-width="0.0" fill="#808080" text-anchor="middle"><text x="0.40610989836396505" y="0.5">0.9</text></g><g fill-opacity="1.0" font-size="4.179310344827586e-2" stroke="none" stroke-width="0.0" fill="#808080" text-anchor="middle"><text x="0.5" y="0.5">1</text></g><g stroke-opacity="1.0" fill-opacity="1.0" stroke="#808080" stroke-width="5.0e-3" fill="#808080"><polyline points="-0.4389010163603503,0.44461187008052117
-0.4389010163603503,0.41461187008052114"/><polyline points="-0.3450109147243152,0.44461187008052117
-0.3450109147243152,0.41461187008052114"/><polyline points="-0.25112081308828016,0.44461187008052117
-0.25112081308828016,0.41461187008052114"/><polyline points="-0.1572307114522451,0.44461187008052117
-0.1572307114522451,0.41461187008052114"/><polyline points="-6.334060981621015e-2,0.44461187008052117
-6.334060981621015e-2,0.41461187008052114"/><polyline points="3.0549491819824914e-2,0.44461187008052117
3.0549491819824914e-2,0.41461187008052114"/><polyline points="0.12443959345585998,0.44461187008052117
0.12443959345585998,0.41461187008052114"/><polyline points="0.21832969509189504,0.44461187008052117
0.21832969509189504,0.41461187008052114"/><polyline points="0.31221979672793,0.44461187008052117
0.31221979672793,0.41461187008052114"/><polyline points="0.40610989836396505,0.44461187008052117
0.40610989836396505,0.41461187008052114"/><polyline points="0.5,0.44461187008052117
0.5,0.41461187008052114"/></g><g stroke-opacity="1.0" fill-opacity="1.0" stroke="#808080" stroke-width="0.0" fill="#808080"><rect height="4.5236587351850654e-3" width="0.9389010163603503" x="-0.4389010163603503" y="0.4137790645073736"/></g><g stroke-opacity="0.0" fill-opacity="0.1" stroke="#000000" stroke-width="1.0e-2" fill="#e31a1c"><path d="M 0.5,0.3225 A 0.8521122899119217 0.4551548015081294 60.0 0 1 -0.4389,-0.5"/></g><g stroke-opacity="1.0" stroke="#1f78b4" stroke-width="2.0e-3" fill="none"><polyline points="0.5,0.3224834063972759
0.4912736214958958,0.32353252021195333
0.4824295396951872,0.32434913819324973
0.4734705351145493,0.32493300360225563
0.46439942440156545,0.3252839328758222
0.4552190594491924,0.3254018156842713
0.4459323264991457,0.3252866149660833
0.43654214523448676,0.32493836693954775
0.4270514678616938,0.3243571810913775
0.41746327818250994,0.3235432401422867
0.40778059065585637,0.3224967999895446
0.39800644945010843,0.3212181896265231
0.38814392748603044,0.31970781103926404
0.3781961254706713,0.31796613908009697
0.368166170922523,0.3159937213183496
0.35805721718825356,0.31379117786819544
0.34787244245131443,0.3113592011936945
0.33761504873274306,0.3086985558910873
0.3272882608844714,0.3058100784484114
0.3168953255754533,0.3026946769825159
0.3064395102709363,0.29935333095355476
0.29592410220519283,0.29578709085705257
0.2853524073480379,0.2919970778936358
0.27472774936545385,0.2879844836165354
0.26405346857465606,0.2837505695569703
0.253332920893918,0.27929666682753196
0.24256947678749674,0.27462417570369146
0.23176652020598087,0.2697345651835622
0.22092744752240168,0.26462937252605856
0.21005566646443685,0.2593102027675914
0.1991545950430459,0.25377872821745723
0.18822766047787054,0.2480366879320745
0.17727829811974205,0.24208588716823765
0.16630995037063045,0.23592819681555716
0.1553260656013793,0.22956555280826463
0.14433009706755962,0.22299995551656865
0.133325501823794,0.21623346911775349
0.12231573963688058,0.20926822094721537
0.11130427189806824,0.20210640082964398
0.100294560534819,0.1947502603905566
8.929006692240304e-2,0.187202112348403
7.829425079566654e-2,0.17946432978746407
6.731056916131639e-2,0.17153934541176952
5.634247521105917e-2,0.1634296507802741
4.539341723594581e-2,0.1551377955235283
3.4466837542250994e-2,0.14666638654209324
2.3566171369236555e-2,0.13801808718694908
1.2694845809137045e-2,0.12919561642215677
1.8562787297066174e-3,0.12020174797003447
-8.946122300335424e-3,0.11103930943911966
-1.970896108261938e-2,0.10171118143518798
-3.0428853856865556e-2,9.22202966556126e-2
-4.110243036471567e-2,8.256963896734354e-2
-5.172633490931722e-2,7.276224246880159e-2
-6.2297227410331224e-2,6.280119053597982e-2
-7.281178445402942e-2,5.268961485305085e-2
-8.326670033815275e-2,4.243069442778857e-2
-9.36586881112001e-2,3.20276545921101e-2
-0.10398448060582233,2.1483765988054848e-2
-0.11424083146599778,1.0802343539516368e-2
-0.12442451616766209,-1.3254589944611261e-5
-0.13453233303247691,-1.095962805288353e-2
-0.14456110423441404,-2.203333538701746e-2
-0.1545076767988422,-3.3230895097196456e-2
-0.16436892359379912,-4.4548786749960656e-2
-0.1741417443131404,-5.5983452080339724e-2
-0.18382306645125335,-6.753129611054609e-2
-0.19340984626903118,-7.918868828021086e-2
-0.2028990697508029,-9.0951963587806e-2
-0.21228775355191848,-0.1028174237428946
-0.22157294593669163,-0.11478133832884774
-0.23075172770640412,-0.12683994597566073
-0.23982121311708138,-0.13898945554250142
-0.2487785507867501,-0.15122604730961775
-0.25762092459189223,-0.1635458741792304
-0.2663455545528145,-0.17594506288503375
-0.27494969770765443,-0.18841971520992284
-0.28343064897474757,-0.20096590921156576
-0.29178574200308693,-0.2135797004554335
-0.3000123500106038,-0.22625712325490366
-0.3081078866100102,-0.2389941919180425
-0.3160698066219407,-0.2517869020006802
-0.32389560687513796,-0.26463123156537827
-0.33158282699343333,-0.2775231424458985
-0.3391290501692704,-0.2904585815167743
-0.3465319039235332,-0.3034334819675847
-0.35378906085143635,-0.31644376458152945
-0.36089823935424437,-0.32948533901790766
-0.3678572043565909,-0.3425541050980907
-0.37466376800917,-0.3556459540945901
-0.3813157903765805,-0.36875677002281115
-0.3878111801101067,-0.38188243093509155
-0.39414789510522374,-0.39501881021660945
-0.4003239431436205,-0.4081617778827652
-0.406337382519539,-0.42130720187761683
-0.41218632265023303,-0.4344509493729698
-0.4178689246703538,-0.4475888880677099
-0.4233834020100767,-0.46071688748696826
-0.42872802095678514,-0.473830820280714
-0.4339011012001388,-0.48692656352136343
-0.4389010163603503,-0.5"/></g><g stroke-opacity="0.8" fill-opacity="0.3" stroke="#1f78b4" stroke-width="3.0e-3" fill="#a6cee3"><rect height="3.0000000000000027e-2" width="3.0000000000000013e-2" x="0.10189083402638545" y="-0.4309747042034927"/></g><g stroke-opacity="1.0" fill-opacity="0.1" stroke="#808080" stroke-width="2.0e-3" fill="#6666cc"><rect height="0.8254018195424235" width="0.9389010163603503" x="-0.4389010163603503" y="-0.5"/></g><g></g></svg>