<svg width="299.89360326240774" xmlns:xlink="http://www.w3.org/1999/xlink" xmlns="http://www.w3.org/2000/svg" viewBox="-0.4859601178327698 -0.4965491352906013 0.9846174992330123 0.9849668234218414" height="300.0"><style>svg {
  color-scheme: light dark;
}
{
  .canvas g, .title g, .axisbar g, .ticktext g, .tickglyph g, .ticklines g, .legendContent g text {
    fill: #0d0d0d;
  }
  .ticklines g, .tickglyph g, .legendBorder g {
    stroke: #0d0d0d;
  }
}
@media (prefers-color-scheme:dark) {
  .canvas g, .title g, .axisbar g, .ticktext g, .tickglyph g, .ticklines g, .legendContent g text {
    fill: #f0f0f0;
  }
  .ticklines g, .tickglyph g, .legendBorder g {
    stroke: #f0f0f0;
  }
}</style><g class="chart"><g class="arc"><g stroke-opacity="0.0" fill="#1f78b5" stroke="#000000" stroke-width="1.0e-2" fill-opacity="0.1"><path d="M 0.4897,0.2740 A 0.4688896162516655 0.37405244096735096 -0.0 0 1 0.0208,-0.4741"/></g><g stroke-opacity="1.0" fill="none" stroke="#a6cfe3" stroke-width="2.0e-3"><polyline points="0.48970539566369575,0.2740007126749583
0.4748615325576515,0.27969077576977397
0.4598009498392417,0.2850060788629688
0.44453851048512794,0.28994137639218276
0.4290892766800981,0.2944917978146644
0.41346849495250904,0.2986528524139077
0.3976915811278031,0.3024204337314475
0.381774105114951,0.30579082361943777
0.3657317755408306,0.30876069591001487
0.3495804242477095,0.3113271196978237
0.33333599066912833,0.3134875622324669
0.31701450609960424,0.3152398914180242
0.30063207787367896,0.31658237791717353
0.2842048734699243,0.3175136968578381
0.2677491045555934,0.3180329291406748
0.2512810109876621,0.31813956234611507
0.23481684478605136,0.3178334912400605
0.21837285409484575,0.31711501787773627
0.2019652671473371,0.3159848513055994
0.1856102762507177,0.3144441068615953
0.16932402180622863,0.31249430507445386
0.15312257638053195,0.31013737016311116
0.1370219288440282,0.30737562813773806
0.12103796859177274,0.3042118045042487
0.10518646986255986,0.3006490215745551
8.948307617165546e-2,0.2966907953852226
7.394328487253493e-2,0.29234103222756647
5.85824318628671e-2,0.2876040247926135
4.341567644983513e-2,0.2824844479347347
2.845798638973024e-2,0.27698735405812835
1.3724123116583886e-2,0.27111816813070744
-7.713728255849261e-4,0.26488268233031054
-1.501419613253202e-2,0.2582870503285225
-2.8990290857395296e-2,0.2513377812177432
-4.268586428221666e-2,0.24404173308749944
-5.608740052969008e-2,0.23640610625633862
-6.918167390170016e-2,0.22843843616598364
-8.195576193148979e-2,0.22014658594476164
-9.439705813657318e-2,0.2115387386476465
-0.10649328445981321,0.20262338918057077
-0.11823250338638108,0.19340933591697942
-0.12960312972464139,0.18390567201489816
-0.14059394203933823,0.17412177644308385
-0.15119409372579629,0.16406730472511494
-0.16139312371421075,0.15375217941055508
-0.17118096679345848,0.14318658028259657
-0.1805479635442482,0.132380934311841
-0.18948486987179972,0.12134590536613982
-0.19798286612864963,0.11009238368664398
-0.20603356581857749,9.863147514045151e-2
-0.213629023873067,8.697449026045645e-2
-0.2207617444921277,7.513293308321894e-2
-0.2274246885417447,6.311848979587098e-2
-0.23361128050065438,5.094301720326044e-2
-0.23931541494959005,3.8618531026714975e-2
-0.24453146259659306,2.6157194045978382e-2
-0.24925427583244447,1.3571304096012982e-2
-0.2534791938107339,8.732819305237727e-4
-0.2572020470475522,-1.1924341035828012e-2
-0.2604191615362683,-2.480893509441595e-2
-0.2631273623733307,-3.77677847066471e-2
-0.26532397689151316,-5.078810105266318e-2
-0.2670068372975155,-6.385703465236214e-2
-0.26817428281131256,-7.696168804628112e-2
-0.26882516130514533,-9.008912852383444e-2
-0.26895883044052993,-0.10322640088633694
-0.2685751583021698,-0.1163605402322182
-0.26767452352813914,-0.12947858475181884
-0.26625781493621314,-0.14256758851912843
-0.2643264306467126,-0.1556146342678537
-0.2618822767027271,-0.16860684613919819
-0.25892776518908167,-0.18153140238878196
-0.25546581185189937,-0.19437554804015533
-0.251499833221112,-0.20712660747241973
-0.2470337432387589,-0.21977199692953442
-0.2420719493963968,-0.2322992369389657
-0.23661934838543894,-0.24469596462741938
-0.23068132126471247,-0.2569499459215019
-0.22426372815000142,-0.2690490876212768
-0.21737290243082152,-0.28098144933478975
-0.21001564452012847,-0.2927352552617968
-0.20219921514313252,-0.3042989058150536
-0.19393132817183836,-0.3156609890677107
-0.1852201430123853,-0.3268102920155066
-0.1760742565526982,-0.3377358116426479
-0.1665026946783985,-0.34842676578045784
-0.15651490336534313,-0.35887260374807606
-0.1461207393575874,-0.3690630167647053
-0.1353304604399702,-0.37898794812313374
-0.12415471531491679,-0.3886376031144906
-0.11260453309345653,-0.39800245869444184
-0.10069131241082152,-0.40707327288128425
-8.842681017737114e-2,-0.41584109387666535
-7.58231299759386e-2,-0.424297268899929
-6.289271011705955e-2,-0.4324334527273622
-4.964831136385717e-2,-0.44024161592792743
-3.610300433871433e-2,-0.4477140527873371
-2.227015662414389e-2,-0.45484338891266685
-8.163419570601405e-3,-0.46162258850998805
6.203285175751694e-3,-0.4680449613278488
2.0815779412030222e-2,-0.47410416925974375"/></g><g stroke-opacity="1.0" fill="#a6cfe3" stroke="#1f78b5" stroke-width="3.0e-3" fill-opacity="1.0"><rect width="3.0000000000000027e-2" x="0.24026059237859843" y="-0.11505173022321911" height="3.0e-2"/></g><g stroke-opacity="1.0" fill="#6666cc" stroke="#808080" stroke-width="2.0e-3" fill-opacity="0.1"><rect width="0.7586793312263544" x="-0.26897393556265864" y="-0.47410416925974375" height="0.7922557816128866"/></g></g></g><g class="hud"><g class="frame"><g stroke-opacity="0.0" fill="#ffffff" stroke="#000000" stroke-width="0.0" fill-opacity="2.0e-2"><rect width="0.8440013092529979" x="-0.3542959135893021" y="-0.47410416925974375" height="0.8229153701281722"/></g></g><g class="axis"><g class="ticks"><g class="tickglyph"><g stroke-opacity="0.4" fill="#0d0d0d" stroke="#0d0d0d" stroke-width="4.0e-3" fill-opacity="0.4"><g transform="rotate(-90.0, -0.3796159528668921, 0.34881120086842843)"><polyline points="-0.3796159528668921,0.36381120086842844
-0.3796159528668921,0.3338112008684284"/></g><g transform="rotate(-90.0, -0.3796159528668921, 0.2740007126749582)"><polyline points="-0.3796159528668921,0.2890007126749582
-0.3796159528668921,0.25900071267495817"/></g><g transform="rotate(-90.0, -0.3796159528668921, 0.19919022448148804)"><polyline points="-0.3796159528668921,0.21419022448148806
-0.3796159528668921,0.18419022448148803"/></g><g transform="rotate(-90.0, -0.3796159528668921, 0.1243797362880178)"><polyline points="-0.3796159528668921,0.1393797362880178
-0.3796159528668921,0.1093797362880178"/></g><g transform="rotate(-90.0, -0.3796159528668921, 4.95692480945476e-2)"><polyline points="-0.3796159528668921,6.45692480945476e-2
-0.3796159528668921,3.45692480945476e-2"/></g><g transform="rotate(-90.0, -0.3796159528668921, -2.5241240098922535e-2)"><polyline points="-0.3796159528668921,-1.0241240098922536e-2
-0.3796159528668921,-4.0241240098922534e-2"/></g><g transform="rotate(-90.0, -0.3796159528668921, -0.10005172829239273)"><polyline points="-0.3796159528668921,-8.505172829239273e-2
-0.3796159528668921,-0.11505172829239273"/></g><g transform="rotate(-90.0, -0.3796159528668921, -0.17486221648586298)"><polyline points="-0.3796159528668921,-0.15986221648586296
-0.3796159528668921,-0.189862216485863"/></g><g transform="rotate(-90.0, -0.3796159528668921, -0.2496727046793331)"><polyline points="-0.3796159528668921,-0.2346727046793331
-0.3796159528668921,-0.2646727046793331"/></g><g transform="rotate(-90.0, -0.3796159528668921, -0.32448319287280325)"><polyline points="-0.3796159528668921,-0.30948319287280324
-0.3796159528668921,-0.33948319287280326"/></g><g transform="rotate(-90.0, -0.3796159528668921, -0.3992936810662735)"><polyline points="-0.3796159528668921,-0.3842936810662735
-0.3796159528668921,-0.4142936810662735"/></g><g transform="rotate(-90.0, -0.3796159528668921, -0.47410416925974375)"><polyline points="-0.3796159528668921,-0.45910416925974373
-0.3796159528668921,-0.48910416925974376"/></g></g></g><g class="ticktext"><g fill="#0d0d0d" stroke="none" stroke-width="0.0" font-size="4.22000654626499e-2" fill-opacity="1.0" text-anchor="end"><text x="-0.41000000000000003" y="0.3601262872076908">-0.1</text><text x="-0.41000000000000003" y="0.28531579901422055">0</text><text x="-0.41000000000000003" y="0.21050531082075036">0.1</text><text x="-0.41000000000000003" y="0.13569482262728016">0.2</text><text x="-0.41000000000000003" y="6.088433443381003e-2">0.3</text><text x="-0.41000000000000003" y="-1.3926153759660165e-2">0.4</text><text x="-0.41000000000000003" y="-8.873664195313036e-2">0.5</text><text x="-0.41000000000000003" y="-0.1635471301466005">0.6</text><text x="-0.41000000000000003" y="-0.23835761834007074">0.7</text><text x="-0.41000000000000003" y="-0.3131681065335409">0.8</text><text x="-0.41000000000000003" y="-0.38797859472701124">0.9</text><text x="-0.41000000000000003" y="-0.4627890829204814">1</text></g></g><g class="ticklines"><g stroke-opacity="5.0e-2" fill="none" stroke="#0d0d0d" stroke-width="5.0e-3"><polyline points="-0.3542959135893021,0.34881120086842843
0.48970539566369575,0.34881120086842843"/><polyline points="-0.3542959135893021,0.2740007126749582
0.48970539566369575,0.2740007126749582"/><polyline points="-0.3542959135893021,0.19919022448148804
0.48970539566369575,0.19919022448148804"/><polyline points="-0.3542959135893021,0.1243797362880178
0.48970539566369575,0.1243797362880178"/><polyline points="-0.3542959135893021,4.95692480945476e-2
0.48970539566369575,4.95692480945476e-2"/><polyline points="-0.3542959135893021,-2.5241240098922535e-2
0.48970539566369575,-2.5241240098922535e-2"/><polyline points="-0.3542959135893021,-0.10005172829239273
0.48970539566369575,-0.10005172829239273"/><polyline points="-0.3542959135893021,-0.17486221648586298
0.48970539566369575,-0.17486221648586298"/><polyline points="-0.3542959135893021,-0.2496727046793331
0.48970539566369575,-0.2496727046793331"/><polyline points="-0.3542959135893021,-0.32448319287280325
0.48970539566369575,-0.32448319287280325"/><polyline points="-0.3542959135893021,-0.3992936810662735
0.48970539566369575,-0.3992936810662735"/><polyline points="-0.3542959135893021,-0.47410416925974375
0.48970539566369575,-0.47410416925974375"/></g></g></g><g class="axisbar"><g stroke-opacity="0.0" fill="#0d0d0d" stroke="#000000" stroke-width="0.0" fill-opacity="0.4"><rect width="3.3760052370120364e-3" x="-0.3661119319188441" y="-0.47575" height="0.8262070316086847"/></g></g></g><g class="axis"><g class="ticks"><g class="tickglyph"><g stroke-opacity="0.4" fill="#0d0d0d" stroke="#0d0d0d" stroke-width="4.0e-3" fill-opacity="0.4"><polyline points="-0.3542959135893021,0.3884986619722736
-0.3542959135893021,0.3584986619722736"/><polyline points="-0.26051799033896905,0.3884986619722736
-0.26051799033896905,0.3584986619722736"/><polyline points="-0.16674006708863595,0.3884986619722736
-0.16674006708863595,0.3584986619722736"/><polyline points="-7.29621438383028e-2,0.3884986619722736
-7.29621438383028e-2,0.3584986619722736"/><polyline points="2.0815779412030222e-2,0.3884986619722736
2.0815779412030222e-2,0.3584986619722736"/><polyline points="0.11459370266236335,0.3884986619722736
0.11459370266236335,0.3584986619722736"/><polyline points="0.20837162591269653,0.3884986619722736
0.20837162591269653,0.3584986619722736"/><polyline points="0.3021495491630296,0.3884986619722736
0.3021495491630296,0.3584986619722736"/><polyline points="0.3959274724133627,0.3884986619722736
0.3959274724133627,0.3584986619722736"/><polyline points="0.48970539566369575,0.3884986619722736
0.48970539566369575,0.3584986619722736"/></g></g><g class="ticktext"><g fill="#0d0d0d" stroke="none" stroke-width="0.0" font-size="4.22000654626499e-2" fill-opacity="1.0" text-anchor="end"><text x="-0.3542959135893021" y="0.4257537879754125" transform="rotate(-45.0, -0.3542959135893021, 0.4257537879754125)">-0.8</text><text x="-0.26051799033896905" y="0.4257537879754125" transform="rotate(-45.0, -0.26051799033896905, 0.4257537879754125)">-0.6</text><text x="-0.16674006708863595" y="0.4257537879754125" transform="rotate(-45.0, -0.16674006708863595, 0.4257537879754125)">-0.4</text><text x="-7.29621438383028e-2" y="0.4257537879754125" transform="rotate(-45.0, -7.29621438383028e-2, 0.4257537879754125)">-0.2</text><text x="2.0815779412030222e-2" y="0.4257537879754125" transform="rotate(-45.0, 2.0815779412030222e-2, 0.4257537879754125)">0</text><text x="0.11459370266236335" y="0.4257537879754125" transform="rotate(-45.0, 0.11459370266236335, 0.4257537879754125)">0.2</text><text x="0.20837162591269653" y="0.4257537879754125" transform="rotate(-45.0, 0.20837162591269653, 0.4257537879754125)">0.4</text><text x="0.3021495491630296" y="0.4257537879754125" transform="rotate(-45.0, 0.3021495491630296, 0.4257537879754125)">0.6</text><text x="0.3959274724133627" y="0.4257537879754125" transform="rotate(-45.0, 0.3959274724133627, 0.4257537879754125)">0.8</text><text x="0.48970539566369575" y="0.4257537879754125" transform="rotate(-45.0, 0.48970539566369575, 0.4257537879754125)">1</text></g></g><g class="ticklines"><g stroke-opacity="5.0e-2" fill="none" stroke="#0d0d0d" stroke-width="5.0e-3"><polyline points="-0.3542959135893021,0.34881120086842843
-0.3542959135893021,-0.47410416925974375"/><polyline points="-0.26051799033896905,0.34881120086842843
-0.26051799033896905,-0.47410416925974375"/><polyline points="-0.16674006708863595,0.34881120086842843
-0.16674006708863595,-0.47410416925974375"/><polyline points="-7.29621438383028e-2,0.34881120086842843
-7.29621438383028e-2,-0.47410416925974375"/><polyline points="2.0815779412030222e-2,0.34881120086842843
2.0815779412030222e-2,-0.47410416925974375"/><polyline points="0.11459370266236335,0.34881120086842843
0.11459370266236335,-0.47410416925974375"/><polyline points="0.20837162591269653,0.34881120086842843
0.20837162591269653,-0.47410416925974375"/><polyline points="0.3021495491630296,0.34881120086842843
0.3021495491630296,-0.47410416925974375"/><polyline points="0.3959274724133627,0.34881120086842843
0.3959274724133627,-0.47410416925974375"/><polyline points="0.48970539566369575,0.34881120086842843
0.48970539566369575,-0.47410416925974375"/></g></g></g><g class="axisbar"><g stroke-opacity="0.0" fill="#0d0d0d" stroke="#000000" stroke-width="0.0" fill-opacity="0.4"><rect width="0.8473773144900099" x="-0.3559839162078081" y="0.35704035456971017" height="3.291661480512631e-3"/></g></g></g></g></svg>