<svg xmlns="http://www.w3.org/2000/svg" height="496.47364585654316" viewBox="-0.6256267241379311 -1.8629949114758335 2.0517301724137926 2.454912152855144" width="375.51905172413785" xmlns:xlink="http://www.w3.org/1999/xlink"><g stroke-opacity="0.0" fill-opacity="2.5e-2" stroke="#000000" stroke-width="0.0" fill="#808080"><rect height="1.4704986753683125" width="1.089960304006216" x="-7.440857986828517e-2" y="-1.43175"/></g><g stroke-opacity="5.0e-2" stroke="#808080" stroke-width="5.0e-3" fill="none"><polyline points="-7.440857986828517e-2,3.874867536831236e-2
1.0155517241379308,3.874867536831236e-2"/></g><g stroke-opacity="5.0e-2" stroke="#808080" stroke-width="5.0e-3" fill="none"><polyline points="-7.440857986828517e-2,-0.17132256397001797
1.0155517241379308,-0.17132256397001797"/></g><g stroke-opacity="5.0e-2" stroke="#808080" stroke-width="5.0e-3" fill="none"><polyline points="-7.440857986828517e-2,-0.38139380330834816
1.0155517241379308,-0.38139380330834816"/></g><g stroke-opacity="5.0e-2" stroke="#808080" stroke-width="5.0e-3" fill="none"><polyline points="-7.440857986828517e-2,-0.5914650426466785
1.0155517241379308,-0.5914650426466785"/></g><g stroke-opacity="5.0e-2" stroke="#808080" stroke-width="5.0e-3" fill="none"><polyline points="-7.440857986828517e-2,-0.8015362819850089
1.0155517241379308,-0.8015362819850089"/></g><g stroke-opacity="5.0e-2" stroke="#808080" stroke-width="5.0e-3" fill="none"><polyline points="-7.440857986828517e-2,-1.011607521323339
1.0155517241379308,-1.011607521323339"/></g><g stroke-opacity="5.0e-2" stroke="#808080" stroke-width="5.0e-3" fill="none"><polyline points="-7.440857986828517e-2,-1.22167876066167
1.0155517241379308,-1.22167876066167"/></g><g stroke-opacity="5.0e-2" stroke="#808080" stroke-width="5.0e-3" fill="none"><polyline points="-7.440857986828517e-2,-1.43175
1.0155517241379308,-1.43175"/></g><g fill-opacity="1.0" font-size="5.0e-2" stroke="none" stroke-width="0.0" fill="#808080" text-anchor="end"><text x="-0.15062672413793105" y="5.3753763892478795e-2">0</text></g><g fill-opacity="1.0" font-size="5.0e-2" stroke="none" stroke-width="0.0" fill="#808080" text-anchor="end"><text x="-0.15062672413793105" y="-0.15631747544585153">0.2</text></g><g fill-opacity="1.0" font-size="5.0e-2" stroke="none" stroke-width="0.0" fill="#808080" text-anchor="end"><text x="-0.15062672413793105" y="-0.3663887147841818">0.4</text></g><g fill-opacity="1.0" font-size="5.0e-2" stroke="none" stroke-width="0.0" fill="#808080" text-anchor="end"><text x="-0.15062672413793105" y="-0.5764599541225122">0.6</text></g><g fill-opacity="1.0" font-size="5.0e-2" stroke="none" stroke-width="0.0" fill="#808080" text-anchor="end"><text x="-0.15062672413793105" y="-0.7865311934608425">0.8</text></g><g fill-opacity="1.0" font-size="5.0e-2" stroke="none" stroke-width="0.0" fill="#808080" text-anchor="end"><text x="-0.15062672413793105" y="-0.9966024327991727">1</text></g><g fill-opacity="1.0" font-size="5.0e-2" stroke="none" stroke-width="0.0" fill="#808080" text-anchor="end"><text x="-0.15062672413793105" y="-1.2066736721375035">1.2</text></g><g fill-opacity="1.0" font-size="5.0e-2" stroke="none" stroke-width="0.0" fill="#808080" text-anchor="end"><text x="-0.15062672413793105" y="-1.4167449114758337">1.4</text></g><g stroke-opacity="1.0" fill-opacity="1.0" stroke="#808080" stroke-width="5.0e-3" fill="#808080"><g transform="rotate(-90.0, -0.115472806412186, 3.874867536831236e-2)"><polyline points="-0.115472806412186,5.374867536831236e-2
-0.115472806412186,2.3748675368312364e-2"/></g><g transform="rotate(-90.0, -0.115472806412186, -0.17132256397001797)"><polyline points="-0.115472806412186,-0.15632256397001798
-0.115472806412186,-0.18632256397001795"/></g><g transform="rotate(-90.0, -0.115472806412186, -0.38139380330834816)"><polyline points="-0.115472806412186,-0.36639380330834814
-0.115472806412186,-0.39639380330834817"/></g><g transform="rotate(-90.0, -0.115472806412186, -0.5914650426466785)"><polyline points="-0.115472806412186,-0.5764650426466785
-0.115472806412186,-0.6064650426466786"/></g><g transform="rotate(-90.0, -0.115472806412186, -0.8015362819850089)"><polyline points="-0.115472806412186,-0.7865362819850089
-0.115472806412186,-0.8165362819850089"/></g><g transform="rotate(-90.0, -0.115472806412186, -1.011607521323339)"><polyline points="-0.115472806412186,-0.9966075213233391
-0.115472806412186,-1.026607521323339"/></g><g transform="rotate(-90.0, -0.115472806412186, -1.22167876066167)"><polyline points="-0.115472806412186,-1.20667876066167
-0.115472806412186,-1.2366787606616698"/></g><g transform="rotate(-90.0, -0.115472806412186, -1.43175)"><polyline points="-0.115472806412186,-1.4167500000000002
-0.115472806412186,-1.44675"/></g></g><g stroke-opacity="1.0" fill-opacity="1.0" stroke="#808080" stroke-width="0.0" fill="#808080"><rect height="1.4704986753683125" width="5.395843089139665e-3" x="-0.1019831986893368" y="-1.43175"/></g><g stroke-opacity="5.0e-2" stroke="#808080" stroke-width="5.0e-3" fill="none"><polyline points="-7.440857986828506e-2,3.8748675368312446e-2
-7.440857986828506e-2,-1.43175"/></g><g stroke-opacity="5.0e-2" stroke="#808080" stroke-width="5.0e-3" fill="none"><polyline points="3.458745053233653e-2,3.8748675368312446e-2
3.458745053233653e-2,-1.43175"/></g><g stroke-opacity="5.0e-2" stroke="#808080" stroke-width="5.0e-3" fill="none"><polyline points="0.14358348093295814,3.8748675368312446e-2
0.14358348093295814,-1.43175"/></g><g stroke-opacity="5.0e-2" stroke="#808080" stroke-width="5.0e-3" fill="none"><polyline points="0.25257951133357975,3.8748675368312446e-2
0.25257951133357975,-1.43175"/></g><g stroke-opacity="5.0e-2" stroke="#808080" stroke-width="5.0e-3" fill="none"><polyline points="0.3615755417342013,3.8748675368312446e-2
0.3615755417342013,-1.43175"/></g><g stroke-opacity="5.0e-2" stroke="#808080" stroke-width="5.0e-3" fill="none"><polyline points="0.47057157213482287,3.8748675368312446e-2
0.47057157213482287,-1.43175"/></g><g stroke-opacity="5.0e-2" stroke="#808080" stroke-width="5.0e-3" fill="none"><polyline points="0.5795676025354446,3.8748675368312446e-2
0.5795676025354446,-1.43175"/></g><g stroke-opacity="5.0e-2" stroke="#808080" stroke-width="5.0e-3" fill="none"><polyline points="0.6885636329360663,3.8748675368312446e-2
0.6885636329360663,-1.43175"/></g><g stroke-opacity="5.0e-2" stroke="#808080" stroke-width="5.0e-3" fill="none"><polyline points="0.7975596633366877,3.8748675368312446e-2
0.7975596633366877,-1.43175"/></g><g stroke-opacity="5.0e-2" stroke="#808080" stroke-width="5.0e-3" fill="none"><polyline points="0.9065556937373094,3.8748675368312446e-2
0.9065556937373094,-1.43175"/></g><g stroke-opacity="5.0e-2" stroke="#808080" stroke-width="5.0e-3" fill="none"><polyline points="1.0155517241379308,3.8748675368312446e-2
1.0155517241379308,-1.43175"/></g><g fill-opacity="1.0" font-size="4.2206896551724125e-2" stroke="none" stroke-width="0.0" fill="#808080" text-anchor="middle"><text x="-7.440857986828506e-2" y="0.16975862068965505">0</text></g><g fill-opacity="1.0" font-size="4.2206896551724125e-2" stroke="none" stroke-width="0.0" fill="#808080" text-anchor="middle"><text x="3.458745053233653e-2" y="0.16975862068965505">0.1</text></g><g fill-opacity="1.0" font-size="4.2206896551724125e-2" stroke="none" stroke-width="0.0" fill="#808080" text-anchor="middle"><text x="0.14358348093295814" y="0.16975862068965505">0.2</text></g><g fill-opacity="1.0" font-size="4.2206896551724125e-2" stroke="none" stroke-width="0.0" fill="#808080" text-anchor="middle"><text x="0.25257951133357975" y="0.16975862068965505">0.3</text></g><g fill-opacity="1.0" font-size="4.2206896551724125e-2" stroke="none" stroke-width="0.0" fill="#808080" text-anchor="middle"><text x="0.3615755417342013" y="0.16975862068965505">0.4</text></g><g fill-opacity="1.0" font-size="4.2206896551724125e-2" stroke="none" stroke-width="0.0" fill="#808080" text-anchor="middle"><text x="0.47057157213482287" y="0.16975862068965505">0.5</text></g><g fill-opacity="1.0" font-size="4.2206896551724125e-2" stroke="none" stroke-width="0.0" fill="#808080" text-anchor="middle"><text x="0.5795676025354446" y="0.16975862068965505">0.6</text></g><g fill-opacity="1.0" font-size="4.2206896551724125e-2" stroke="none" stroke-width="0.0" fill="#808080" text-anchor="middle"><text x="0.6885636329360663" y="0.16975862068965505">0.7</text></g><g fill-opacity="1.0" font-size="4.2206896551724125e-2" stroke="none" stroke-width="0.0" fill="#808080" text-anchor="middle"><text x="0.7975596633366877" y="0.16975862068965505">0.8</text></g><g fill-opacity="1.0" font-size="4.2206896551724125e-2" stroke="none" stroke-width="0.0" fill="#808080" text-anchor="middle"><text x="0.9065556937373094" y="0.16975862068965505">0.9</text></g><g fill-opacity="1.0" font-size="4.2206896551724125e-2" stroke="none" stroke-width="0.0" fill="#808080" text-anchor="middle"><text x="1.0155517241379308" y="0.16975862068965505">1</text></g><g stroke-opacity="1.0" fill-opacity="1.0" stroke="#808080" stroke-width="5.0e-3" fill="#808080"><polyline points="-7.440857986828506e-2,0.1039381093974206
-7.440857986828506e-2,7.39381093974206e-2"/><polyline points="3.458745053233653e-2,0.1039381093974206
3.458745053233653e-2,7.39381093974206e-2"/><polyline points="0.14358348093295814,0.1039381093974206
0.14358348093295814,7.39381093974206e-2"/><polyline points="0.25257951133357975,0.1039381093974206
0.25257951133357975,7.39381093974206e-2"/><polyline points="0.3615755417342013,0.1039381093974206
0.3615755417342013,7.39381093974206e-2"/><polyline points="0.47057157213482287,0.1039381093974206
0.47057157213482287,7.39381093974206e-2"/><polyline points="0.5795676025354446,0.1039381093974206
0.5795676025354446,7.39381093974206e-2"/><polyline points="0.6885636329360663,0.1039381093974206
0.6885636329360663,7.39381093974206e-2"/><polyline points="0.7975596633366877,0.1039381093974206
0.7975596633366877,7.39381093974206e-2"/><polyline points="0.9065556937373094,0.1039381093974206
0.9065556937373094,7.39381093974206e-2"/><polyline points="1.0155517241379308,0.1039381093974206
1.0155517241379308,7.39381093974206e-2"/></g><g stroke-opacity="1.0" fill-opacity="1.0" stroke="#808080" stroke-width="0.0" fill="#808080"><rect height="5.174168456609132e-3" width="1.089960304006216" x="-7.440857986828517e-2" y="7.082851979928867e-2"/></g><g stroke-opacity="0.0" fill-opacity="0.1" stroke="#000000" stroke-width="1.0e-2" fill="#e31a1c"><path d="M 1.0155517241379308,3.874867536831211e-2 A 1.5136913834193129 0.7568456917096564 60.0 0 1 -7.440857986828506e-2,-1.011607521323339"/></g><g stroke-opacity="1.0" stroke="#1f78b4" stroke-width="2.0e-3" fill="none"><polyline points="1.0155517241379308,3.8748675368312224e-2
1.0044532307456602,3.530362928052044e-2
0.9933081578004843,3.1683199909246146e-2
0.9821180044603255,2.7887874249541256e-2
0.9708842759470095,2.3918162822293088e-2
0.9596084833437892,1.977459960555361e-2
0.9482921433920897,1.5457741962710825e-2
0.9369367782874825,1.0968170567517865e-2
0.9255439154749336,6.306489325984321e-3
0.914115087443339,1.4733252951419917e-3
0.9026518315193883,-3.5306714013014218e-3
0.8911556896607709,-8.704827660412029e-3
0.8796282082487648,-1.4048447490573185e-2
0.8680709378802272,-1.9560812105102493e-2
0.8564854331590193,-2.5241180018939657e-2
0.8448732524868914,-3.1088787148386254e-2
0.8332359578538577,-3.710284691388388e-2
0.8215751146280894,-4.328255034581999e-2
0.809892291345349,-4.962706619334442e-2
0.7981890594980052,-5.6135541036184705e-2
0.7864669933236452,-6.280709939944004e-2
0.7747276695933187,-6.96408438713472e-2
0.7629726673994426,-7.663585522399066e-2
0.7512035679433926,-8.379119253695325e-2
0.7394219543228087,-9.110589332388133e-2
0.7276294113186508,-9.857897366195231e-2
0.7158275251820236,-0.10620942832422423
0.7040178834208048,-0.11399623091485259
0.692202074586105,-0.12193833400715368
0.6803816880585865,-0.130034669284498
0.668558313834672,-0.1382841476840109
0.6567335423126675,-0.1466856595430681
0.6449089640788341,-0.1552380747485579
0.6330861696934331,-0.16394024288889766
0.6212667494767758,-0.1727909934087775
0.6094522932953024,-0.18178913576661718
0.5976443903477255,-0.19093345959470828
0.5858446289512629,-0.20022273486202483
0.5740545963279875,-0.209655712039678
0.5622758783913242,-0.2192311222689949
0.5505100595327257,-0.2289476775321964
0.5387587224085493,-0.23880407082565228
0.5270234477271705,-0.24879897633569
0.5153058140363564,-0.25893104961693425
0.5036073975109296,-0.26919892777315224
0.49192977174075353,-0.27960122964058187
0.48027450751906337,-0.2901365559737151
0.46864317263117344,-0.30080348963351533
0.4570373316435909,-0.3116005957780408
0.44545854569355986,-0.32252642205545035
0.43390837227906703,-0.3335794987993632
0.42238836504934146,-0.34475833922654764
0.41090007359586495,-0.35606143963691406
0.3994450432439342,-0.36748727961578154
0.38802481484479096,-0.3790343222383934
0.37664092456836157,-0.39070101427665416
0.3652949036966194,-0.402485786408059
0.35398827841760866,-0.41438705342678617
0.34272256962015063,-0.42640321445693186
0.3314992926892662,-0.43853265316784495
0.32031995730233576,-0.45077373799154685
0.3091860672260267,-0.46312482234219876
0.29809912011402034,-0.4755842448375869
0.28706060730555405,-0.4881503295226033
0.27607201362482053,-0.5008213860946803
0.2651348171812359,-0.513595710131161
0.25425048917061704,-0.5264715833185654
0.24342049367728624,-0.539447273683725
0.2326462874771315,-0.5525210358267579
0.22192931984165315,-0.5656911111558459
0.21127103234301564,-0.5789557281237894
0.20067285866013856,-0.5923131024663034
0.19013622438584882,-0.6057614374420234
0.1796625468351175,-0.6192989240741918
0.16925323485441524,-0.6329237413939882
0.15890968863220112,-0.6466340566854745
0.1486332995105813,-0.6604280257321173
0.1384254497981548,-0.6743037930648609
0.1282875125840739,-0.6882594922117106
0.11822085155334655,-0.7022932459488
0.10822682080340335,-0.7164031665528984
9.83067646619527e-2,-0.7305873560553386
8.84620175061521e-2,-0.7448439064973139
7.869390358311598e-2,-0.7591709001865279
6.900373683178812e-2,-0.7735664099551459
5.939282070619947e-2,-0.7880284994190259
4.9862448000136034e-2,-0.8025552232381864
4.041390067324174e-2,-0.8171446273784815
3.1048449678578338e-2,-0.831794749374442
2.176735479166436e-2,-0.8465036185932557
1.2571864441020542e-2,-0.8612692564998399
3.463215540238679e-3,-0.8760896769229816
-5.557366678398956e-3,-0.8909628863225043
-1.4488668828729234e-2,-0.9058868840574246
-2.3329489533925107e-2,-0.9208596626550638
-3.207863958809576e-2,-0.93587920808108
-4.073494211625045e-2,-0.9509435000103821
-4.9297232732604265e-2,-0.96605051209889
-5.776435969720174e-2,-0.9811982122561025
-6.613518407084354e-2,-0.996384562918444
-7.440857986828517e-2,-1.0116075213233389"/></g><g stroke-opacity="0.8" fill-opacity="0.3" stroke="#1f78b4" stroke-width="3.0e-3" fill="#a6cee3"><rect height="2.9999999999999805e-2" width="3.0000000000000027e-2" x="0.643170489505461" y="-1.2835346513487191"/></g><g fill-opacity="1.0" font-size="4.0e-2" stroke="none" stroke-width="0.0" fill="#333333" text-anchor="start"><text x="-7.440857986828506e-2" y="3.874867536831211e-2">c: (0.672,1.245)</text><text x="-7.440857986828506e-2" y="-6.6286944300853e-2">r: (1.414,0.707)</text><text x="-7.440857986828506e-2" y="-0.1713225639700182">phi: -1.047</text><text x="-7.440857986828506e-2" y="-0.2763581836391833">ang0: -0.499</text><text x="-7.440857986828506e-2" y="-0.3813938033083484">angd: -1.160</text></g><g stroke-opacity="1.0" fill-opacity="0.1" stroke="#808080" stroke-width="2.0e-3" fill="#6666cc"><rect height="1.050356196691651" width="1.089960304006216" x="-7.440857986828517e-2" y="-1.0116075213233389"/></g></svg>