<svg width="299.3332193960542" xmlns:xlink="http://www.w3.org/1999/xlink" xmlns="http://www.w3.org/2000/svg" viewBox="-0.5 -0.50077991311481 1.0 1.0022275529768836" height="300.0"><style>svg {
  color-scheme: light dark;
}
{
  .canvas g, .title g, .axisbar g, .ticktext g, .tickglyph g, .ticklines g, .legendContent g text {
    fill: #0d0d0d;
  }
  .ticklines g, .tickglyph g, .legendBorder g {
    stroke: #0d0d0d;
  }
}
@media (prefers-color-scheme:dark) {
  .canvas g, .title g, .axisbar g, .ticktext g, .tickglyph g, .ticklines g, .legendContent g text {
    fill: #f0f0f0;
  }
  .ticklines g, .tickglyph g, .legendBorder g {
    stroke: #f0f0f0;
  }
}</style><g class="chart"><g class="arc"><g stroke-opacity="0.0" fill="#1f78b5" stroke="#000000" stroke-width="1.0e-2" fill-opacity="0.1"><path d="M 0.4867,0.2843 A 0.47418267765050615 0.37910499631848155 -0.0 0 1 0.0125,-0.4739"/></g><g stroke-opacity="1.0" fill="none" stroke="#a6cfe3" stroke-width="2.0e-3"><polyline points="0.4866793156551732,0.2842734611338587
0.4716678875698821,0.2900403833949015
0.4564372934324349,0.2954274835415174
0.44100256400023574,0.30042944515632364
0.42537893148757666,0.3050413319071657
0.40958181453328113,0.30925859241868
0.39362680298436903,0.3130770647639525
0.37752964251076016,0.3164929805718376
0.3613062190661994,0.3195029687458858
0.34497254321073867,0.32210405879120874
0.32854473431024656,0.32429368374599865
0.3120390046285416,0.3260696827148103
0.2954716433278447,0.3274303030011034
0.27885900039334266,0.32837420183694277
0.26221747049772803,0.32890044770814786
0.24556347682163537,0.3290085212735851
0.22891345484594605,0.3286983158776948
0.21228383613195267,0.327970137655747
0.19569103210539196,0.32682470523172324
0.17915141786034938,0.3252631490091216
0.16268131599901836,0.3232870100553845
0.14629698052326323,0.32089823858105143
0.13001458079388073,0.31809919201513676
0.1138501855733951,0.3148926326786318
9.78197471681278e-2,0.31128172505842744
8.193908568519903e-2,0.3072700326843478
6.62238734199907e-2,0.30286151461237665
5.068961938948402e-2,0.2980605215175469
3.535165402673268e-2,0.29287179140034997
2.0225114051575455e-2,0.28730044491090123
5.324927532522561e-3,0.2813519802954768
-9.334200845446061e-3,0.27503226797040814
-2.373780429262995e-2,0.2683475447286898
-3.7871668191581775e-2,0.2613044075850184
-5.17218441252183e-2,0.25390980726533496
-6.527466364222484e-2,0.24617104134729845
-7.851675174616546e-2,0.23809574705845682
-9.143504009499048e-2,0.22969189373922627
-0.10401677989791064,0.2209677749781146
-0.11624955449691537,0.2119320004269502
-0.12812129162051544,0.20259348730419535
-0.13962027529761556,0.19296145159472894
-0.1507351574197649,0.1830453989547815
-0.16145496894036893,0.17285511533100056
-0.1717691306998148,0.16240065730290232
-0.1816674638658229,0.1516923421582435
-0.19114019997872733,0.14074073771110218
-0.200177990591765,0.1295566518727223
-0.20877191649686389,0.11815112198541006
-0.21691349652682373,0.10653540393001043
-0.22459469592520592,9.472096101771071e-2
-0.23180793427566632,8.271945267713682e-2
-0.23854609298291124,7.054272294790559e-2
-0.24480252229789173,5.8202788791987814e-2
-0.25057104788030315,4.5711828234416496e-2
-0.255845976891913,3.308216834504868e-2
-0.260622103614705,2.032627307323326e-2
-0.26489471458829456,7.4567309474007915e-3
-0.2686595932615447,-5.513757348296733e-3
-0.27191302415379304,-1.8572391508025254e-2
-0.2746517965215827,-3.170628423662647e-2
-0.2768732075272782,-4.4902473967821876e-2
-0.2785750649064399,-5.814793765571369e-2
-0.2797556891313241,-7.142960362695716e-2
-0.2804139150683751,-8.47343644809262e-2
-0.28054909312806986,-9.804909002513429e-2
-0.2801610899059856,-0.1113606402331474
-0.2792502883144532,-0.12465587821220636
-0.2778175872046692,-0.13792168316775177
-0.27586440047963845,-0.15114496335206495
-0.2733926556988221,-0.1643126689842409
-0.2704047921758694,-0.17741180512874788
-0.2669037585713096,-0.19042944451985921
-0.26289300998257975,-0.20335274031930373
-0.258376504534262,-0.2161689387945428
-0.2533586994718904,-0.2288653919051662
-0.2478445467631895,-0.2414295697849802
-0.24183948821107998,-0.2538490731074713
-0.23534945008327507,-0.2661116453224466
-0.228380837263771,-0.2782051847517668
-0.22094052693199911,-0.2901177565322436
-0.2130358617758813,-0.3018376043939056
-0.20467464274548214,-0.3133531622620197
-0.19586512135441392,-0.32465306567141017
-0.18661599153658864,-0.3357261629818121
-0.17693638106635612,-0.34656152638319493
-0.16683584255049116,-0.3571484626801912
-0.15632434400092482,-0.3674765238449901
-0.14541225899752108,-0.37753551732827706
-0.13411035645060454,-0.3873155161180518
-0.12242978997334719,-0.396806868536389
-0.11038208687449824,-0.40600020776448076
-9.7979136782324e-2,-0.41488646108655236
-8.523317991097751e-2,-0.4234568588435411
-7.21567949808884e-2,-0.431702943087688
-5.876288680508068e-2,-0.43961657592951386
-4.5064673553684986e-2,-0.4471899475689304
-3.1075673709196616e-2,-0.4544155840025723
-1.6809692725369307e-2,-0.4612863543997341
-2.2808094028954895e-3,-0.46779547813964184
1.2496638004667049e-2,-0.47393653150310433"/></g><g stroke-opacity="1.0" fill="#a6cfe3" stroke="#1f78b5" stroke-width="3.0e-3" fill-opacity="1.0"><rect width="3.0000000000000027e-2" x="0.23458798172530015" y="-0.10983153714153014" height="3.0e-2"/></g><g stroke-opacity="1.0" fill="#6666cc" stroke="#808080" stroke-width="2.0e-3" fill-opacity="0.1"><rect width="0.767243684419574" x="-0.28056436876440083" y="-0.47393653150310433" height="0.8029572655505404"/></g></g></g><g class="hud"><g class="canvas"><g stroke-opacity="0.0" fill="#ffffff" stroke="#000000" stroke-width="0.0" fill-opacity="2.0e-2"><rect width="0.8577964638697655" x="-0.36684950411573786" y="-0.47810668646260757" height="0.8382011468601626"/></g></g><g class="axis"><g class="ticks"><g class="tickglyph"><g stroke-opacity="0.4" fill="#0d0d0d" stroke="#0d0d0d" stroke-width="4.0e-3" fill-opacity="0.4"><g transform="rotate(-90.0, -0.3924553687088652, 0.360094460397555)"><polyline points="-0.3924553687088652,0.375094460397555
-0.3924553687088652,0.345094460397555"/></g><g transform="rotate(-90.0, -0.3924553687088652, 0.28389435613754016)"><polyline points="-0.3924553687088652,0.2988943561375402
-0.3924553687088652,0.26889435613754015"/></g><g transform="rotate(-90.0, -0.3924553687088652, 0.20769425187752538)"><polyline points="-0.3924553687088652,0.2226942518775254
-0.3924553687088652,0.19269425187752537"/></g><g transform="rotate(-90.0, -0.3924553687088652, 0.13149414761751055)"><polyline points="-0.3924553687088652,0.14649414761751056
-0.3924553687088652,0.11649414761751055"/></g><g transform="rotate(-90.0, -0.3924553687088652, 5.529404335749588e-2)"><polyline points="-0.3924553687088652,7.029404335749588e-2
-0.3924553687088652,4.029404335749588e-2"/></g><g transform="rotate(-90.0, -0.3924553687088652, -2.0906060902518897e-2)"><polyline points="-0.3924553687088652,-5.906060902518898e-3
-0.3924553687088652,-3.5906060902518896e-2"/></g><g transform="rotate(-90.0, -0.3924553687088652, -9.710616516253379e-2)"><polyline points="-0.3924553687088652,-8.210616516253379e-2
-0.3924553687088652,-0.11210616516253379"/></g><g transform="rotate(-90.0, -0.3924553687088652, -0.17330626942254845)"><polyline points="-0.3924553687088652,-0.15830626942254844
-0.3924553687088652,-0.18830626942254847"/></g><g transform="rotate(-90.0, -0.3924553687088652, -0.24950637368256334)"><polyline points="-0.3924553687088652,-0.23450637368256333
-0.3924553687088652,-0.26450637368256336"/></g><g transform="rotate(-90.0, -0.3924553687088652, -0.3257064779425781)"><polyline points="-0.3924553687088652,-0.3107064779425781
-0.3924553687088652,-0.34070647794257813"/></g><g transform="rotate(-90.0, -0.3924553687088652, -0.4019065822025928)"><polyline points="-0.3924553687088652,-0.3869065822025928
-0.3924553687088652,-0.4169065822025928"/></g><g transform="rotate(-90.0, -0.3924553687088652, -0.47810668646260757)"><polyline points="-0.3924553687088652,-0.46310668646260755
-0.3924553687088652,-0.4931066864626076"/></g></g></g><g class="ticktext"><g fill="#0d0d0d" stroke="none" stroke-width="0.0" font-size="4.2676440988545554e-2" fill-opacity="1.0" text-anchor="end"><text x="-0.42318240622061803" y="0.37156238653618906">-0.1</text><text x="-0.42318240622061803" y="0.2953622822761742">0</text><text x="-0.42318240622061803" y="0.2191621780161594">0.1</text><text x="-0.42318240622061803" y="0.14296207375614461">0.2</text><text x="-0.42318240622061803" y="6.676196949612989e-2">0.3</text><text x="-0.42318240622061803" y="-9.438134763884887e-3">0.4</text><text x="-0.42318240622061803" y="-8.563823902389978e-2">0.5</text><text x="-0.42318240622061803" y="-0.16183834328391444">0.6</text><text x="-0.42318240622061803" y="-0.23803844754392922">0.7</text><text x="-0.42318240622061803" y="-0.3142385518039441">0.8</text><text x="-0.42318240622061803" y="-0.3904386560639588">0.9</text><text x="-0.42318240622061803" y="-0.46663876032397356">1</text></g></g><g class="ticklines"><g stroke-opacity="5.0e-2" fill="none" stroke="#0d0d0d" stroke-width="5.0e-3"><polyline points="-0.36684950411573786,0.360094460397555
0.4909469597540277,0.360094460397555"/><polyline points="-0.36684950411573786,0.28389435613754016
0.4909469597540277,0.28389435613754016"/><polyline points="-0.36684950411573786,0.20769425187752538
0.4909469597540277,0.20769425187752538"/><polyline points="-0.36684950411573786,0.13149414761751055
0.4909469597540277,0.13149414761751055"/><polyline points="-0.36684950411573786,5.529404335749588e-2
0.4909469597540277,5.529404335749588e-2"/><polyline points="-0.36684950411573786,-2.0906060902518897e-2
0.4909469597540277,-2.0906060902518897e-2"/><polyline points="-0.36684950411573786,-9.710616516253379e-2
0.4909469597540277,-9.710616516253379e-2"/><polyline points="-0.36684950411573786,-0.17330626942254845
0.4909469597540277,-0.17330626942254845"/><polyline points="-0.36684950411573786,-0.24950637368256334
0.4909469597540277,-0.24950637368256334"/><polyline points="-0.36684950411573786,-0.3257064779425781
0.4909469597540277,-0.3257064779425781"/><polyline points="-0.36684950411573786,-0.4019065822025928
0.4909469597540277,-0.4019065822025928"/><polyline points="-0.36684950411573786,-0.47810668646260757
0.4909469597540277,-0.47810668646260757"/></g></g></g><g class="axisbar"><g stroke-opacity="0.0" fill="#0d0d0d" stroke="#000000" stroke-width="0.0" fill-opacity="0.4"><rect width="3.4141152790836404e-3" x="-0.37879890759253065" y="-0.4797747484464091" height="0.8415372708277654"/></g></g></g><g class="axis"><g class="ticks"><g class="tickglyph"><g stroke-opacity="0.4" fill="#0d0d0d" stroke="#0d0d0d" stroke-width="4.0e-3" fill-opacity="0.4"><polyline points="-0.36684950411573786,0.40011539015457476
-0.36684950411573786,0.37011539015457473"/><polyline points="-0.2715387859079862,0.40011539015457476
-0.2715387859079862,0.37011539015457473"/><polyline points="-0.17622806770023441,0.40011539015457476
-0.17622806770023441,0.37011539015457473"/><polyline points="-8.091734949248264e-2,0.40011539015457476
-8.091734949248264e-2,0.37011539015457473"/><polyline points="1.4393368715269084e-2,0.40011539015457476
1.4393368715269084e-2,0.37011539015457473"/><polyline points="0.1097040869230208,0.40011539015457476
0.1097040869230208,0.37011539015457473"/><polyline points="0.20501480513077253,0.40011539015457476
0.20501480513077253,0.37011539015457473"/><polyline points="0.30032552333852425,0.40011539015457476
0.30032552333852425,0.37011539015457473"/><polyline points="0.39563624154627586,0.40011539015457476
0.39563624154627586,0.37011539015457473"/><polyline points="0.4909469597540277,0.40011539015457476
0.4909469597540277,0.37011539015457473"/></g></g><g class="ticktext"><g fill="#0d0d0d" stroke="none" stroke-width="0.0" font-size="4.2676440988545554e-2" fill-opacity="1.0" text-anchor="end"><text x="-0.36684950411573786" y="0.43807635814026663" transform="rotate(-45.0, -0.36684950411573786, 0.43807635814026663)">-0.8</text><text x="-0.2715387859079862" y="0.43807635814026663" transform="rotate(-45.0, -0.2715387859079862, 0.43807635814026663)">-0.6</text><text x="-0.17622806770023441" y="0.43807635814026663" transform="rotate(-45.0, -0.17622806770023441, 0.43807635814026663)">-0.4</text><text x="-8.091734949248264e-2" y="0.43807635814026663" transform="rotate(-45.0, -8.091734949248264e-2, 0.43807635814026663)">-0.2</text><text x="1.4393368715269084e-2" y="0.43807635814026663" transform="rotate(-45.0, 1.4393368715269084e-2, 0.43807635814026663)">0</text><text x="0.1097040869230208" y="0.43807635814026663" transform="rotate(-45.0, 0.1097040869230208, 0.43807635814026663)">0.2</text><text x="0.20501480513077253" y="0.43807635814026663" transform="rotate(-45.0, 0.20501480513077253, 0.43807635814026663)">0.4</text><text x="0.30032552333852425" y="0.43807635814026663" transform="rotate(-45.0, 0.30032552333852425, 0.43807635814026663)">0.6</text><text x="0.39563624154627586" y="0.43807635814026663" transform="rotate(-45.0, 0.39563624154627586, 0.43807635814026663)">0.8</text><text x="0.4909469597540277" y="0.43807635814026663" transform="rotate(-45.0, 0.4909469597540277, 0.43807635814026663)">1</text></g></g><g class="ticklines"><g stroke-opacity="5.0e-2" fill="none" stroke="#0d0d0d" stroke-width="5.0e-3"><polyline points="-0.36684950411573786,0.360094460397555
-0.36684950411573786,-0.47810668646260757"/><polyline points="-0.2715387859079862,0.360094460397555
-0.2715387859079862,-0.47810668646260757"/><polyline points="-0.17622806770023441,0.360094460397555
-0.17622806770023441,-0.47810668646260757"/><polyline points="-8.091734949248264e-2,0.360094460397555
-8.091734949248264e-2,-0.47810668646260757"/><polyline points="1.4393368715269084e-2,0.360094460397555
1.4393368715269084e-2,-0.47810668646260757"/><polyline points="0.1097040869230208,0.360094460397555
0.1097040869230208,-0.47810668646260757"/><polyline points="0.20501480513077253,0.360094460397555
0.20501480513077253,-0.47810668646260757"/><polyline points="0.30032552333852425,0.360094460397555
0.30032552333852425,-0.47810668646260757"/><polyline points="0.39563624154627586,0.360094460397555
0.39563624154627586,-0.47810668646260757"/><polyline points="0.4909469597540277,0.360094460397555
0.4909469597540277,-0.47810668646260757"/></g></g></g><g class="axisbar"><g stroke-opacity="0.0" fill="#0d0d0d" stroke="#000000" stroke-width="0.0" fill-opacity="0.4"><rect width="0.8612105791488491" x="-0.3685565617552797" y="0.3684347703165616" height="3.3361239676026333e-3"/></g></g></g></g></svg>