<svg width="299.327570118959" xmlns:xlink="http://www.w3.org/1999/xlink" xmlns="http://www.w3.org/2000/svg" viewBox="-0.5 -0.5007865357476307 1.0 1.0022464682447185" height="300.0"><style>svg {
  color-scheme: light dark;
}
@media (prefers-color-scheme:dark) {
  svg {
    background-color: #f0f0f0;
  }
}</style><g stroke-opacity="0.4" fill="#0d0d0d" stroke="#0d0d0d" stroke-width="4.0e-3" fill-opacity="0.4"><g transform="rotate(-90.0, -0.3919944394155937, 0.3595085894450617)"><polyline points="-0.3919944394155937,0.3745085894450617
-0.3919944394155937,0.3445085894450617"/></g><g transform="rotate(-90.0, -0.3919944394155937, 0.28337008080193804)"><polyline points="-0.3919944394155937,0.29837008080193805
-0.3919944394155937,0.268370080801938"/></g><g transform="rotate(-90.0, -0.3919944394155937, 0.2072315721588145)"><polyline points="-0.3919944394155937,0.2222315721588145
-0.3919944394155937,0.19223157215881448"/></g><g transform="rotate(-90.0, -0.3919944394155937, 0.13109306351569083)"><polyline points="-0.3919944394155937,0.14609306351569085
-0.3919944394155937,0.11609306351569083"/></g><g transform="rotate(-90.0, -0.3919944394155937, 5.495455487256723e-2)"><polyline points="-0.3919944394155937,6.995455487256723e-2
-0.3919944394155937,3.995455487256723e-2"/></g><g transform="rotate(-90.0, -0.3919944394155937, -2.1183953770556263e-2)"><polyline points="-0.3919944394155937,-6.183953770556264e-3
-0.3919944394155937,-3.618395377055626e-2"/></g><g transform="rotate(-90.0, -0.3919944394155937, -9.732246241368003e-2)"><polyline points="-0.3919944394155937,-8.232246241368003e-2
-0.3919944394155937,-0.11232246241368003"/></g><g transform="rotate(-90.0, -0.3919944394155937, -0.17346097105680358)"><polyline points="-0.3919944394155937,-0.15846097105680357
-0.3919944394155937,-0.1884609710568036"/></g><g transform="rotate(-90.0, -0.3919944394155937, -0.24959947969992724)"><polyline points="-0.3919944394155937,-0.23459947969992723
-0.3919944394155937,-0.26459947969992725"/></g><g transform="rotate(-90.0, -0.3919944394155937, -0.3257379883430508)"><polyline points="-0.3919944394155937,-0.3107379883430508
-0.3919944394155937,-0.3407379883430508"/></g><g transform="rotate(-90.0, -0.3919944394155937, -0.40187649698617434)"><polyline points="-0.3919944394155937,-0.3868764969861743
-0.3919944394155937,-0.41687649698617435"/></g><g transform="rotate(-90.0, -0.3919944394155937, -0.4780150056292979)"><polyline points="-0.3919944394155937,-0.46301500562929787
-0.3919944394155937,-0.4930150056292979"/></g></g><g fill="#0d0d0d" stroke="none" stroke-width="0.0" font-size="4.2859349438256464e-2" fill-opacity="1.0" text-anchor="end"><text x="-0.4228531710111384" y="0.37102453887733416">-0.1</text><text x="-0.4228531710111384" y="0.29488603023421045">0</text><text x="-0.4228531710111384" y="0.2187475215910869">0.1</text><text x="-0.4228531710111384" y="0.14260901294796324">0.2</text><text x="-0.4228531710111384" y="6.647050430483975e-2">0.3</text><text x="-0.4228531710111384" y="-9.668004338283964e-3">0.4</text><text x="-0.4228531710111384" y="-8.580651298140751e-2">0.5</text><text x="-0.4228531710111384" y="-0.16194502162453106">0.6</text><text x="-0.4228531710111384" y="-0.23808353026765472">0.7</text><text x="-0.4228531710111384" y="-0.31422203891077827">0.8</text><text x="-0.4228531710111384" y="-0.39036054755390204">0.9</text><text x="-0.4228531710111384" y="-0.4664990561970255">1</text></g><g stroke-opacity="5.0e-2" fill="none" stroke="#0d0d0d" stroke-width="5.0e-3"><polyline points="-0.3662788297526398,0.3595085894450617
0.4909081590124895,0.3595085894450617"/><polyline points="-0.3662788297526398,0.28337008080193804
0.4909081590124895,0.28337008080193804"/><polyline points="-0.3662788297526398,0.2072315721588145
0.4909081590124895,0.2072315721588145"/><polyline points="-0.3662788297526398,0.13109306351569083
0.4909081590124895,0.13109306351569083"/><polyline points="-0.3662788297526398,5.495455487256723e-2
0.4909081590124895,5.495455487256723e-2"/><polyline points="-0.3662788297526398,-2.1183953770556263e-2
0.4909081590124895,-2.1183953770556263e-2"/><polyline points="-0.3662788297526398,-9.732246241368003e-2
0.4909081590124895,-9.732246241368003e-2"/><polyline points="-0.3662788297526398,-0.17346097105680358
0.4909081590124895,-0.17346097105680358"/><polyline points="-0.3662788297526398,-0.24959947969992724
0.4909081590124895,-0.24959947969992724"/><polyline points="-0.3662788297526398,-0.3257379883430508
0.4909081590124895,-0.3257379883430508"/><polyline points="-0.3662788297526398,-0.40187649698617434
0.4909081590124895,-0.40187649698617434"/><polyline points="-0.3662788297526398,-0.4780150056292979
0.4909081590124895,-0.4780150056292979"/></g><g stroke-opacity="0.0" fill="#0d0d0d" stroke="#000000" stroke-width="0.0" fill-opacity="0.4"><rect width="3.4287479550605404e-3" x="-0.37827944759535165" y="-0.47969005281944677" height="0.8408736894546571"/></g><g stroke-opacity="0.4" fill="#0d0d0d" stroke="#0d0d0d" stroke-width="4.0e-3" fill-opacity="0.4"><polyline points="-0.3662788297526398,0.3996342972972925
-0.3662788297526398,0.36963429729729247"/><polyline points="-0.2710358310009588,0.3996342972972925
-0.2710358310009588,0.36963429729729247"/><polyline points="-0.17579283224927778,0.3996342972972925
-0.17579283224927778,0.36963429729729247"/><polyline points="-8.05498334975967e-2,0.3996342972972925
-8.05498334975967e-2,0.36963429729729247"/><polyline points="1.4693165254084373e-2,0.3996342972972925
1.4693165254084373e-2,0.36963429729729247"/><polyline points="0.10993616400576534,0.3996342972972925
0.10993616400576534,0.36963429729729247"/><polyline points="0.2051791627574464,0.3996342972972925
0.2051791627574464,0.36963429729729247"/><polyline points="0.3004221615091275,0.3996342972972925
0.3004221615091275,0.36963429729729247"/><polyline points="0.39566516026080845,0.3996342972972925
0.39566516026080845,0.36963429729729247"/><polyline points="0.4909081590124895,0.3996342972972925
0.4909081590124895,0.36963429729729247"/></g><g fill="#0d0d0d" stroke="none" stroke-width="0.0" font-size="4.2859349438256464e-2" fill-opacity="1.0" text-anchor="end"><text x="-0.3662788297526398" y="0.43781704558451434" transform="rotate(-45.0, -0.3662788297526398, 0.43781704558451434)">-0.8</text><text x="-0.2710358310009588" y="0.43781704558451434" transform="rotate(-45.0, -0.2710358310009588, 0.43781704558451434)">-0.6</text><text x="-0.17579283224927778" y="0.43781704558451434" transform="rotate(-45.0, -0.17579283224927778, 0.43781704558451434)">-0.4</text><text x="-8.05498334975967e-2" y="0.43781704558451434" transform="rotate(-45.0, -8.05498334975967e-2, 0.43781704558451434)">-0.2</text><text x="1.4693165254084373e-2" y="0.43781704558451434" transform="rotate(-45.0, 1.4693165254084373e-2, 0.43781704558451434)">0</text><text x="0.10993616400576534" y="0.43781704558451434" transform="rotate(-45.0, 0.10993616400576534, 0.43781704558451434)">0.2</text><text x="0.2051791627574464" y="0.43781704558451434" transform="rotate(-45.0, 0.2051791627574464, 0.43781704558451434)">0.4</text><text x="0.3004221615091275" y="0.43781704558451434" transform="rotate(-45.0, 0.3004221615091275, 0.43781704558451434)">0.6</text><text x="0.39566516026080845" y="0.43781704558451434" transform="rotate(-45.0, 0.39566516026080845, 0.43781704558451434)">0.8</text><text x="0.4909081590124895" y="0.43781704558451434" transform="rotate(-45.0, 0.4909081590124895, 0.43781704558451434)">1</text></g><g stroke-opacity="5.0e-2" fill="none" stroke="#0d0d0d" stroke-width="5.0e-3"><polyline points="-0.3662788297526398,0.3595085894450617
-0.3662788297526398,-0.4780150056292979"/><polyline points="-0.2710358310009588,0.3595085894450617
-0.2710358310009588,-0.4780150056292979"/><polyline points="-0.17579283224927778,0.3595085894450617
-0.17579283224927778,-0.4780150056292979"/><polyline points="-8.05498334975967e-2,0.3595085894450617
-8.05498334975967e-2,-0.4780150056292979"/><polyline points="1.4693165254084373e-2,0.3595085894450617
1.4693165254084373e-2,-0.4780150056292979"/><polyline points="0.10993616400576534,0.3595085894450617
0.10993616400576534,-0.4780150056292979"/><polyline points="0.2051791627574464,0.3595085894450617
0.2051791627574464,-0.4780150056292979"/><polyline points="0.3004221615091275,0.3595085894450617
0.3004221615091275,-0.4780150056292979"/><polyline points="0.39566516026080845,0.3595085894450617
0.39566516026080845,-0.4780150056292979"/><polyline points="0.4909081590124895,0.3595085894450617
0.4909081590124895,-0.4780150056292979"/></g><g stroke-opacity="0.0" fill="#0d0d0d" stroke="#000000" stroke-width="0.0" fill-opacity="0.4"><rect width="0.8606157367201897" x="-0.3679932037301701" y="0.36788382539580533" height="3.3500943802974303e-3"/></g><g stroke-opacity="0.0" fill="#ffffff" stroke="#000000" stroke-width="0.0" fill-opacity="2.0e-2"><rect width="0.8614729237089549" x="-0.3662788297526398" y="-0.4822026236046696" height="0.8417112130497313"/></g><g stroke-opacity="0.0" fill="#1f78b5" stroke="#000000" stroke-width="1.0e-2" fill-opacity="0.1"><path d="M 0.4909,0.2834 A 0.47621499375840515 0.380692543215618 -0.0 0 1 0.0147,-0.4780"/></g><g stroke-opacity="1.0" fill="none" stroke="#a6cfe3" stroke-width="2.0e-3"><polyline points="0.4909081590124895,0.28337008080193815
0.47583239292301094,0.28916115273030385
0.46053652144993473,0.2945708119943289
0.4450356397715136,0.29959371991350536
0.4293450453863191,0.3042249194842056
0.4134802230164575,0.30845984027164475
0.3974568293260188,0.31229430292034877
0.3812906774698396,0.31572452327867334
0.3649977214878294,0.31874711613330486
0.34859404056025867,0.3213590985500571
0.33209582313954944,0.3235578928176671
0.31551935097422823,0.3253413289916848
0.2988809830408058,0.32670764703594635
0.28219713939944147,0.3276554985595176
0.2654842849893285,0.32818394814739243
0.24875891337978528,0.32829247428363495
0.23203753049309483,0.32798096986605285
0.2153366383151526,0.32724974231189347
0.19867271860999847,0.32609951325446135
0.18206221665430566,0.3245314178309524
0.16552152500787887,0.3225470035622108
0.14906696733617675,0.32014822882551275
0.13271478230082479,0.31733746092188475
0.11648110753401786,0.3141174737398631
0.10038196371262464,0.31049144501800097
8.443323874771502e-2,0.306462953208824
6.865067210510956e-2,0.3020359739473299
5.3049839272427346e-2,0.29721487612751657
3.764613638796066e-2,0.2920044175908115
2.2454765046544756e-2,0.2864097404306566
7.490717297420346e-3,0.2804363659178828
-7.231239151109514e-3,0.2740901890518824
-2.1696575505624704e-2,0.2673774727429567
-3.5891016225752304e-2,0.2603048416315794
-4.980055311240095e-2,0.25287927555067663
-6.341145913216278e-2,0.24510810263737454
-7.671030196423734e-2,0.23699899210101255
-8.968395725651096e-2,0.22855994665455998
-0.10231962157770658,0.219799294616905
-0.11460482505282515,0.21072568169380873
-0.1265274436694071,0.2013480624456378
-0.13807571124246742,0.191675691450295
-0.14923823102630057,0.18171811417006783
-0.16000398696169194,0.17148515753140975
-0.17036235454743892,0.16098692022695027
-0.1803031113254488,0.15023376274930578
-0.18981644696907324,0.13923629716652242
-0.1988929729647143,0.12800537664924766
-0.20752373187715445,0.11655208475996065
-0.21570020618946267,0.10488772451483541
-0.22341432670875688,9.302380722902714e-2
-0.23065848052952165,8.097204115639467e-2
-0.23742551854662697,6.874431993486807e-2
-0.24370876251063217,5.635271084886406e-2
-0.24950201161841162,4.380944292033223e-2
-0.2547995486325985,3.1126894840188823e-2
-0.25959614552380783,1.8317582752041206e-2
-0.2638870686300705,5.3941479002678205e-3
-0.26766808332838554,-7.630655845366152e-3
-0.27093545821378234,-2.074397457623578e-2
-0.2736859687817663,-3.393286703011389e-2
-0.27591690061051566,-4.7184317362634065e-2
-0.27762605203968815,-6.048524799235733e-2
-0.2788117363431933,-7.382253250676496e-2
-0.27947278339378884,-8.718300861644401e-2
-0.27960854081785325,-0.10055349114467815
-0.27921887463920114,-0.11392078503962244
-0.2783041694113007,-0.12727169839622943
-0.2768653278377663,-0.1405930554750644
-0.2749037698814989,-0.15387170970517072
-0.27242143136335417,-0.16709455665814643
-0.26942076205172105,-0.18024854698063397
-0.265904723244896,-0.19332069927245643
-0.26187678484863885,-0.20629811289769173
-0.25734092195179614,-0.2191679807160416
-0.25230161090336645,-0.23191760172193454
-0.24676382489488574,-0.24453439357888396
-0.240733029052488,-0.2570059050367335
-0.23421517504348438,-0.26931982821954037
-0.2272166952027872,-0.2814640107719607
-0.2197444961849715,-0.2934264678521584
-0.21180595214824183,-0.30519539395939443
-0.20340889747702723,-0.31675917458463343
-0.19456161905039066,-0.32810639767266103
-0.18527284806387923,-0.3392258648844032
-0.17555175141288976,-0.35010660264833526
-0.16540792264604814,-0.360737872990073
-0.15485137249753622,-0.37110918412945626
-0.14389251900770644,-0.381210300834668
-0.1325421772417324,-0.3910312545231739
-0.12081154861644644,-0.4005623530995088
-0.1087122098458933,-0.4097941905202057
-9.625610151651254e-2,-0.41871765607642253
-8.345551630321862e-2,-0.4273239433851145
-7.032308683801869e-2,-0.4356045590798686
-5.687177324312592e-2,-0.4435513311928335
-4.311485034088808e-2,-0.4511564172194614
-2.9065894553137073e-2,-0.45841231185811626
-1.4738770502903231e-2,-0.46531185441689793
-1.4761733170287616e-4,-0.4718482358803828
1.4693165254084373e-2,-0.4780150056292979"/></g><g stroke-opacity="1.0" fill="#a6cfe3" stroke="#1f78b5" stroke-width="3.0e-3" fill-opacity="1.0"><rect width="3.0000000000000027e-2" x="0.2378006670496482" y="-0.11232246437878189" height="3.0e-2"/></g><g stroke-opacity="1.0" fill="#6666cc" stroke="#808080" stroke-width="2.0e-3" fill-opacity="0.1"><rect width="0.7705320409370573" x="-0.2796238819245678" y="-0.4780150056292979" height="0.8063197438292151"/></g></svg>