<svg width="299.1385185473731" xmlns:xlink="http://www.w3.org/1999/xlink" xmlns="http://www.w3.org/2000/svg" viewBox="-0.5225877103671376 -0.5111311726662919 1.0260817613256203 1.0290367482345388" height="300.0"><style>svg {
  color-scheme: light dark;
}
@media (prefers-color-scheme:light) {
  svg {
    background-color: #0d0d0d;
  }
}</style><g stroke-opacity="0.0" fill="#f0f0f0" stroke="#000000" stroke-width="0.0" fill-opacity="2.0e-2"><rect width="0.8565960031253443" x="-0.3685707664100534" y="-0.47692425740400946" height="0.8305575681184297"/></g><g stroke-opacity="5.0e-2" fill="none" stroke="#f0f0f0" stroke-width="5.0e-3"><polyline points="-0.3685707664100534,0.3536333107144203
0.48802523671529097,0.3536333107144203"/><polyline points="-0.3685707664100534,0.2781280772491085
0.48802523671529097,0.2781280772491085"/><polyline points="-0.3685707664100534,0.20262284378379675
0.48802523671529097,0.20262284378379675"/><polyline points="-0.3685707664100534,0.1271176103184849
0.48802523671529097,0.1271176103184849"/><polyline points="-0.3685707664100534,5.16123768531731e-2
0.48802523671529097,5.16123768531731e-2"/><polyline points="-0.3685707664100534,-2.389285661213858e-2
0.48802523671529097,-2.389285661213858e-2"/><polyline points="-0.3685707664100534,-9.939809007745037e-2
0.48802523671529097,-9.939809007745037e-2"/><polyline points="-0.3685707664100534,-0.17490332354276206
0.48802523671529097,-0.17490332354276206"/><polyline points="-0.3685707664100534,-0.25040855700807385
0.48802523671529097,-0.25040855700807385"/><polyline points="-0.3685707664100534,-0.32591379047338553
0.48802523671529097,-0.32591379047338553"/><polyline points="-0.3685707664100534,-0.40141902393869733
0.48802523671529097,-0.40141902393869733"/><polyline points="-0.3685707664100534,-0.47692425740400946
0.48802523671529097,-0.47692425740400946"/></g><g fill="#f0f0f0" stroke="none" stroke-width="0.0" font-size="5.0e-2" fill-opacity="1.0" text-anchor="end"><text x="-0.4225877103671376" y="0.3656763954521374">-0.1</text><text x="-0.4225877103671376" y="0.2901711619868257">0</text><text x="-0.4225877103671376" y="0.21466592852151395">0.1</text><text x="-0.4225877103671376" y="0.13916069505620215">0.2</text><text x="-0.4225877103671376" y="6.365546159089042e-2">0.3</text><text x="-0.4225877103671376" y="-1.1849771874421267e-2">0.4</text><text x="-0.4225877103671376" y="-8.735500533973317e-2">0.5</text><text x="-0.4225877103671376" y="-0.16286023880504497">0.6</text><text x="-0.4225877103671376" y="-0.23836547227035654">0.7</text><text x="-0.4225877103671376" y="-0.31387070573566833">0.8</text><text x="-0.4225877103671376" y="-0.3893759392009801">0.9</text><text x="-0.4225877103671376" y="-0.4648811726662919">1</text></g><g stroke-opacity="0.4" fill="#f0f0f0" stroke="#f0f0f0" stroke-width="4.0e-3" fill-opacity="0.4"><g transform="rotate(-90.0, -0.3951252425069391, 0.3536333107144203)"><polyline points="-0.3951252425069391,0.3686333107144203
-0.3951252425069391,0.33863331071442027"/></g><g transform="rotate(-90.0, -0.3951252425069391, 0.2781280772491085)"><polyline points="-0.3951252425069391,0.2931280772491085
-0.3951252425069391,0.26312807724910847"/></g><g transform="rotate(-90.0, -0.3951252425069391, 0.20262284378379675)"><polyline points="-0.3951252425069391,0.21762284378379676
-0.3951252425069391,0.18762284378379673"/></g><g transform="rotate(-90.0, -0.3951252425069391, 0.1271176103184849)"><polyline points="-0.3951252425069391,0.1421176103184849
-0.3951252425069391,0.1121176103184849"/></g><g transform="rotate(-90.0, -0.3951252425069391, 5.16123768531731e-2)"><polyline points="-0.3951252425069391,6.66123768531731e-2
-0.3951252425069391,3.6612376853173104e-2"/></g><g transform="rotate(-90.0, -0.3951252425069391, -2.389285661213858e-2)"><polyline points="-0.3951252425069391,-8.89285661213858e-3
-0.3951252425069391,-3.889285661213858e-2"/></g><g transform="rotate(-90.0, -0.3951252425069391, -9.939809007745037e-2)"><polyline points="-0.3951252425069391,-8.439809007745037e-2
-0.3951252425069391,-0.11439809007745037"/></g><g transform="rotate(-90.0, -0.3951252425069391, -0.17490332354276206)"><polyline points="-0.3951252425069391,-0.15990332354276204
-0.3951252425069391,-0.18990332354276207"/></g><g transform="rotate(-90.0, -0.3951252425069391, -0.25040855700807385)"><polyline points="-0.3951252425069391,-0.23540855700807384
-0.3951252425069391,-0.26540855700807386"/></g><g transform="rotate(-90.0, -0.3951252425069391, -0.32591379047338553)"><polyline points="-0.3951252425069391,-0.3109137904733855
-0.3951252425069391,-0.34091379047338555"/></g><g transform="rotate(-90.0, -0.3951252425069391, -0.40141902393869733)"><polyline points="-0.3951252425069391,-0.3864190239386973
-0.3951252425069391,-0.41641902393869734"/></g><g transform="rotate(-90.0, -0.3951252425069391, -0.47692425740400946)"><polyline points="-0.3951252425069391,-0.46192425740400944
-0.3951252425069391,-0.49192425740400947"/></g></g><g stroke-opacity="0.0" fill="#f0f0f0" stroke="#000000" stroke-width="0.0" fill-opacity="0.4"><rect width="3.4263840125013934e-3" x="-0.3805631104538082" y="-0.4785853725402459" height="0.833879798390903"/></g><g stroke-opacity="5.0e-2" fill="none" stroke="#f0f0f0" stroke-width="5.0e-3"><polyline points="-0.3685707664100534,0.3536333107144203
-0.3685707664100534,-0.47692425740400946"/><polyline points="-0.2733934327294596,0.3536333107144203
-0.2733934327294596,-0.47692425740400946"/><polyline points="-0.17821609904886582,0.3536333107144203
-0.17821609904886582,-0.47692425740400946"/><polyline points="-8.303876536827198e-2,0.3536333107144203
-8.303876536827198e-2,-0.47692425740400946"/><polyline points="1.2138568312321851e-2,0.3536333107144203
1.2138568312321851e-2,-0.47692425740400946"/><polyline points="0.10731590199291563,0.3536333107144203
0.10731590199291563,-0.47692425740400946"/><polyline points="0.2024932356735094,0.3536333107144203
0.2024932356735094,-0.47692425740400946"/><polyline points="0.2976705693541032,0.3536333107144203
0.2976705693541032,-0.47692425740400946"/><polyline points="0.3928479030346971,0.3536333107144203
0.3928479030346971,-0.47692425740400946"/><polyline points="0.48802523671529097,0.3536333107144203
0.48802523671529097,-0.47692425740400946"/></g><g fill="#f0f0f0" stroke="none" stroke-width="0.0" font-size="4.166896551724139e-2" fill-opacity="1.0" text-anchor="end"><text x="-0.3685707664100534" y="0.4435079451605155" transform="rotate(-45.0, -0.3685707664100534, 0.4435079451605155)">-0.8</text><text x="-0.2733934327294596" y="0.4435079451605155" transform="rotate(-45.0, -0.2733934327294596, 0.4435079451605155)">-0.6</text><text x="-0.17821609904886582" y="0.4435079451605155" transform="rotate(-45.0, -0.17821609904886582, 0.4435079451605155)">-0.4</text><text x="-8.303876536827198e-2" y="0.4435079451605155" transform="rotate(-45.0, -8.303876536827198e-2, 0.4435079451605155)">-0.2</text><text x="1.2138568312321851e-2" y="0.4435079451605155" transform="rotate(-45.0, 1.2138568312321851e-2, 0.4435079451605155)">0</text><text x="0.10731590199291563" y="0.4435079451605155" transform="rotate(-45.0, 0.10731590199291563, 0.4435079451605155)">0.2</text><text x="0.2024932356735094" y="0.4435079451605155" transform="rotate(-45.0, 0.2024932356735094, 0.4435079451605155)">0.4</text><text x="0.2976705693541032" y="0.4435079451605155" transform="rotate(-45.0, 0.2976705693541032, 0.4435079451605155)">0.6</text><text x="0.3928479030346971" y="0.4435079451605155" transform="rotate(-45.0, 0.3928479030346971, 0.4435079451605155)">0.8</text><text x="0.48802523671529097" y="0.4435079451605155" transform="rotate(-45.0, 0.48802523671529097, 0.4435079451605155)">1</text></g><g stroke-opacity="0.4" fill="#f0f0f0" stroke="#f0f0f0" stroke-width="4.0e-3" fill-opacity="0.4"><polyline points="-0.3685707664100534,0.3943805953260916
-0.3685707664100534,0.36438059532609157"/><polyline points="-0.2733934327294596,0.3943805953260916
-0.2733934327294596,0.36438059532609157"/><polyline points="-0.17821609904886582,0.3943805953260916
-0.17821609904886582,0.36438059532609157"/><polyline points="-8.303876536827198e-2,0.3943805953260916
-8.303876536827198e-2,0.36438059532609157"/><polyline points="1.2138568312321851e-2,0.3943805953260916
1.2138568312321851e-2,0.36438059532609157"/><polyline points="0.10731590199291563,0.3943805953260916
0.10731590199291563,0.36438059532609157"/><polyline points="0.2024932356735094,0.3943805953260916
0.2024932356735094,0.36438059532609157"/><polyline points="0.2976705693541032,0.3943805953260916
0.2976705693541032,0.36438059532609157"/><polyline points="0.3928479030346971,0.3943805953260916
0.3928479030346971,0.36438059532609157"/><polyline points="0.48802523671529097,0.3943805953260916
0.48802523671529097,0.36438059532609157"/></g><g stroke-opacity="0.0" fill="#f0f0f0" stroke="#000000" stroke-width="0.0" fill-opacity="0.4"><rect width="0.8600223871378454" x="-0.370283958416304" y="0.3619388863956045" height="3.3222302724737474e-3"/></g><g stroke-opacity="0.0" fill="#1f78b5" stroke="#000000" stroke-width="1.0e-2" fill-opacity="0.1"><path d="M 0.4880,0.2781 A 0.47588666840296895 0.3775261673265588 -0.0 0 1 0.0121,-0.4769"/></g><g stroke-opacity="1.0" fill="none" stroke="#a6cfe3" stroke-width="2.0e-3"><polyline points="0.48802523671529097,0.27812807724910854
0.47295986457880546,0.28387098245907494
0.4576745388098836,0.2892356473701322
0.44218434417944164,0.2942167777057661
0.42650456763922484,0.29880945769177936
0.41065068323543275,0.3030091549075663
0.39463833683770355,0.30681172475906493
0.3784833306985299,0.31021341456897106
0.3622016078583443,0.31321086728017744
0.3458092364116626,0.3158011247687837
0.32932239364981486,0.3179816307634079
0.31275735009591277,0.3197502333679173
0.2961304534478071,0.32110518718509007
0.2794581124448843,0.3220451550391119
0.26275678067462205,0.3225692092952067
0.24604294033488439,0.32267683277510023
0.22933308596798352,0.32236791926741304
0.21264370818255796,0.32164277363247745
0.1959912773793322,0.3205021115014778
0.1793922274968207,0.3189470585702089
0.1628629397930147,0.31697914948814987
0.14641972667905845,0.31460032634395063
0.13007881562086865,0.3118129367488248
0.11385633312458587,0.3086197315197412
9.776828882165944e-2,0.30502386196469905
8.183055966927477e-2,0.30102887677276785
6.605887428171275e-2,0.2966387185119599
5.0468797408107835e-2,0.29185771973839136
3.507571457191949e-2,0.2866905987205728
1.9894816887277456e-2,0.2811424547830477
4.941086067188016e-3,0.27521876327397504
-9.770720361609031e-3,0.2689253701616214
-2.4226083622537642e-2,0.26226848626509636
-3.8410738017463864e-2,0.2552546811250242
-5.231068500521796e-2,0.2478908765202002
-6.591220701646394e-2,0.240184339636631
-7.920188099128506e-2,0.23214267589569915
-9.216659162612251e-2,0.22377382144853075
-0.10479354431699606,0.21508603534397275
-0.11707027778623408,0.2060878913779085
-0.1289846763802499,0.1967882696319565
-0.14052498202622837,0.18719634770990257
-0.15167980583592455,0.1773215916805127
-0.16243813934512114,0.16717374673566598
-0.17278936537765394,0.1567628275730269
-0.1827232685232809,0.146099108512749
-0.19223004521906134,0.13519311335795975
-0.20130031342428695,0.12405560500903862
-0.2099251218794237,0.11269757484193366
-0.2180959589399234,0.1011302318610014
-0.22580476097619084,8.936499163707179e-2
-0.23304392033141125,7.741346504165786e-2
-0.23980629282938903,6.528744678842935e-2
-0.24608520482498752,5.299890379325334e-2
-0.2518744597902107,4.055996336429224e-2
-0.2571683444294286,2.7982901233817303e-2
-0.2619616343177089,1.5280129443540402e-2
-0.26624959905669526,2.464184095430033e-3
-0.27002800694293805,-1.0452287019909856e-2
-0.2732931291440753,-2.3456536905079872e-2
-0.2760417433787399,-3.65357319356342e-2
-0.2782711370965619,-4.967696452531767e-2
-0.279979110155129,-6.286726586429547e-2
-0.2811639769912603,-7.609361871780107e-2
-0.2818245682844549,-8.934297027257632e-2
-0.28196023211086885,-0.10260224501842297
-0.28157083458668647,-0.11585835765214947
-0.2806567600002463,-0.1290982259911887
-0.27921891043279573,-0.14230878388413026
-0.27725870486824555,-0.15547699410543558
-0.2747780777928043,-0.16858986122160402
-0.2717794772858732,-0.18163444441609722
-0.2682658626040886,-0.19459787026036368
-0.2642407012608914,-0.20746734541835665
-0.25970796560451215,-0.2202301692720121
-0.25467212889774077,-0.23287374645522674
-0.2491381609033575,-0.24538559928396275
-0.2431115229795774,-0.25775338007021387
-0.2365981626903479,-0.2699648833076854
-0.2296045079358225,-0.28200805771715265
-0.2221374606087989,-0.29387101813962024
-0.21420438978338485,-0.3055420572655373
-0.20581312444261046,-0.3170096571884994
-0.1969719457521692,-0.3282625007720317
-0.18768957888790438,-0.33928948281823557
-0.17797518442511767,-0.3500797210272777
-0.16783834929818459,-0.3606225667369075
-0.1572890773394086,-0.37090761543139905
-0.14633777940644782,-0.3809247170095539
-0.13499526310805354,-0.39066398580162287
-0.1232727221382664,-0.4001158103252711
-0.11118172522959185,-0.40927086277094926
-9.873420473605865e-2,-0.4181201082073145
-8.594244485742453e-2,-0.4266548134976187
-7.281906951615696e-2,-0.43486655591825796
-5.937702989914179e-2,-0.44274723147098605
-4.56295916764306e-2,-0.45028906288057935
-3.1590321909621855e-2,-0.45748460727007145
-1.7273075662812387e-2,-0.4643267635059717
-2.6919823293197753e-3,-0.470808779206227
1.2138568312321851e-2,-0.47692425740400946"/></g><g stroke-opacity="1.0" fill="#a6cfe3" stroke="#1f78b5" stroke-width="3.0e-3" fill-opacity="1.0"><rect width="3.0000000000000027e-2" x="0.23508190742677804" y="-0.11439809202620775" height="3.0e-2"/></g><g stroke-opacity="1.0" fill="#6666cc" stroke="#808080" stroke-width="2.0e-3" fill-opacity="0.1"><rect width="0.7700007993559829" x="-0.2819755626406919" y="-0.47692425740400946" height="0.7996132520913745"/></g><g></g></svg>