<svg xmlns="http://www.w3.org/2000/svg" xmlns:xlink="http://www.w3.org/1999/xlink" width="354" height="300" viewBox="0 -3.9516 9.0 7.6102"><style>svg {
  color-scheme: light dark;
}
{
  .canvas g, .title g, .axisbar g, .ticktext g, .tickglyph g, .ticklines g, .legendContent g text {
    fill: rgb(5%, 5%, 5%);
  }
  .ticklines g, .tickglyph g, .legendBorder g {
    stroke: rgb(5%, 5%, 5%);
  }
  .legendBorder g {
    fill: rgb(94%, 94%, 94%);
  }
}
@media (prefers-color-scheme:dark) {
  .canvas g, .title g, .axisbar g, .ticktext g, .tickglyph g, .ticklines g, .legendContent g text {
    fill: rgb(94%, 94%, 94%);
  }
  .ticklines g, .tickglyph g, .legendBorder g {
    stroke: rgb(94%, 94%, 94%);
  }
  .legendBorder g {
    fill: rgb(5%, 5%, 5%);
  }
}
svg { font-family: system-ui,-apple-system,"Segoe UI",Roboto,"Helvetica Neue",Arial,"Noto Sans","Liberation Sans",sans-serif,"Apple Color Emoji","Segoe UI Emoji","Segoe UI Symbol","Noto Color Emoji";
}

ticktext { font-family: SFMono-Regular,Menlo,Monaco,Consolas,"Liberation Mono","Courier New",monospace;
}


{
  .chart g {
    stroke: rgba(5%, 5%, 5%, 1.00);
  }
  .chart g text {
    fill: rgba(5%, 5%, 5%, 1.00);
  }
}
@media (prefers-color-scheme:dark) {
  .chart g {
    stroke: rgba(94%, 94%, 94%, 1.00);
  }
  .chart g text {
    fill: rgba(94%, 94%, 94%, 1.00);
  }
}
</style><g class="chart"><g stroke-width="0.0" stroke="none" fill="rgb(5%, 5%, 5%)" fill-opacity="1.0" font-size="0.6" text-anchor="middle"><text x="0.5" y="0.4017" transform="rotate(-90.0, 0.5, 0.4017)">Sweep</text></g><g stroke-width="0.0" stroke="none" fill="rgb(5%, 5%, 5%)" fill-opacity="1.0" font-size="0.4" text-anchor="middle"><text x="1.5700" y="1.7385" transform="rotate(-90.0, 1.5700, 1.7385)">True</text></g><g stroke-width="0.0" stroke="none" fill="rgb(5%, 5%, 5%)" fill-opacity="1.0" font-size="0.4" text-anchor="middle"><text x="1.5700" y="-0.9352" transform="rotate(-90.0, 1.5700, -0.9352)">False</text></g><g stroke-width="0.0200" stroke="rgb(5%, 5%, 5%)" stroke-opacity="0.2" fill="none"><polyline points="5.1500,1.8713 5.1480,1.8158 5.1421,1.7604 5.1323,1.7055 5.1186,1.6512 5.1011,1.5978 5.0798,1.5454 5.0548,1.4944 5.0263,1.4448 4.9943,1.3970 4.9590,1.3510 4.9205,1.3070 4.8790,1.2653 4.8345,1.2260 4.7874,1.1892 4.7378,1.1551 4.6858,1.1238 4.6318,1.0955 4.5758,1.0703 4.5181,1.0482 4.4590,1.0293 4.3987,1.0138 4.3374,1.0017 4.2753,0.9930 4.2128,0.9878 4.15,0.9860 4.0872,0.9878 4.0247,0.9930 3.9626,1.0017 3.9013,1.0138 3.8410,1.0293 3.7819,1.0482 3.7242,1.0703 3.6682,1.0955 3.6142,1.1238 3.5622,1.1551 3.5126,1.1892 3.4655,1.2260 3.4210,1.2653 3.3795,1.3070 3.3410,1.3510 3.3057,1.3970 3.2737,1.4448 3.2452,1.4944 3.2202,1.5454 3.1989,1.5978 3.1814,1.6512 3.1677,1.7055 3.1579,1.7604 3.1520,1.8158 3.15,1.8713 3.1520,1.9269 3.1579,1.9823 3.1677,2.0372 3.1814,2.0915 3.1989,2.1449 3.2202,2.1973 3.2452,2.2483 3.2737,2.2979 3.3057,2.3457 3.3410,2.3917 3.3795,2.4357 3.4210,2.4774 3.4655,2.5167 3.5126,2.5535 3.5622,2.5876 3.6142,2.6189 3.6682,2.6472 3.7242,2.6724 3.7819,2.6945 3.8410,2.7134 3.9013,2.7289 3.9626,2.7410 4.0247,2.7497 4.0872,2.7549 4.15,2.7567 4.2128,2.7549 4.2753,2.7497 4.3374,2.7410 4.3987,2.7289 4.4590,2.7134 4.5181,2.6945 4.5758,2.6724 4.6318,2.6472 4.6858,2.6189 4.7378,2.5876 4.7874,2.5535 4.8345,2.5167 4.8790,2.4774 4.9205,2.4357 4.9590,2.3917 4.9943,2.3457 5.0263,2.2979 5.0548,2.2483 5.0798,2.1973 5.1011,2.1449 5.1186,2.0915 5.1323,2.0372 5.1421,1.9823 5.1480,1.9269 5.1500,1.8713"/></g><g stroke-width="0.0200" stroke="rgb(5%, 5%, 5%)" stroke-opacity="0.2" fill="none"><polyline points="4.15,2.7567 4.1480,2.7011 4.1421,2.6457 4.1323,2.5908 4.1186,2.5365 4.1011,2.4831 4.0798,2.4308 4.0548,2.3797 4.0263,2.3302 3.9943,2.2823 3.9590,2.2363 3.9205,2.1924 3.8790,2.1506 3.8345,2.1113 3.7874,2.0745 3.7378,2.0404 3.6858,2.0092 3.6318,1.9809 3.5758,1.9556 3.5181,1.9335 3.4590,1.9147 3.3987,1.8992 3.3374,1.8870 3.2753,1.8783 3.2128,1.8731 3.15,1.8713 3.0872,1.8731 3.0247,1.8783 2.9626,1.8870 2.9013,1.8992 2.8410,1.9147 2.7819,1.9335 2.7242,1.9556 2.6682,1.9809 2.6142,2.0092 2.5622,2.0404 2.5126,2.0745 2.4655,2.1113 2.4210,2.1506 2.3795,2.1924 2.3410,2.2363 2.3057,2.2823 2.2737,2.3302 2.2452,2.3797 2.2202,2.4308 2.1989,2.4831 2.1814,2.5365 2.1677,2.5908 2.1579,2.6457 2.1520,2.7011 2.1500,2.7567 2.1520,2.8123 2.1579,2.8677 2.1677,2.9226 2.1814,2.9769 2.1989,3.0303 2.2202,3.0826 2.2452,3.1337 2.2737,3.1832 2.3057,3.2311 2.3410,3.2771 2.3795,3.3210 2.4210,3.3628 2.4655,3.4021 2.5126,3.4389 2.5622,3.4729 2.6142,3.5042 2.6682,3.5325 2.7242,3.5578 2.7819,3.5799 2.8410,3.5987 2.9013,3.6142 2.9626,3.6264 3.0247,3.6351 3.0872,3.6403 3.15,3.6420 3.2128,3.6403 3.2753,3.6351 3.3374,3.6264 3.3987,3.6142 3.4590,3.5987 3.5181,3.5799 3.5758,3.5578 3.6318,3.5325 3.6858,3.5042 3.7378,3.4729 3.7874,3.4389 3.8345,3.4021 3.8790,3.3628 3.9205,3.3210 3.9590,3.2771 3.9943,3.2311 4.0263,3.1832 4.0548,3.1337 4.0798,3.0826 4.1011,3.0303 4.1186,2.9769 4.1323,2.9226 4.1421,2.8677 4.1480,2.8123 4.15,2.7567"/></g><g stroke-width="0.0500" stroke="rgb(5%, 5%, 5%)" stroke-opacity="0.5" fill="none"><polyline points="3.15,1.8713 3.1657,1.8715 3.1814,1.8718 3.1971,1.8723 3.2128,1.8731 3.2285,1.8741 3.2441,1.8753 3.2597,1.8767 3.2753,1.8783 3.2909,1.8802 3.3064,1.8822 3.3219,1.8845 3.3374,1.8870 3.3528,1.8897 3.3681,1.8927 3.3834,1.8958 3.3987,1.8992 3.4139,1.9027 3.4290,1.9065 3.4440,1.9105 3.4590,1.9147 3.4739,1.9191 3.4887,1.9237 3.5035,1.9285 3.5181,1.9335 3.5327,1.9387 3.5471,1.9442 3.5615,1.9498 3.5758,1.9556 3.5899,1.9616 3.6040,1.9678 3.6179,1.9743 3.6318,1.9809 3.6455,1.9877 3.6590,1.9946 3.6725,2.0018 3.6858,2.0092 3.6990,2.0167 3.7121,2.0244 3.7250,2.0323 3.7378,2.0404 3.7504,2.0487 3.7629,2.0571 3.7752,2.0657 3.7874,2.0745 3.7994,2.0835 3.8113,2.0926 3.8230,2.1019 3.8345,2.1113 3.8459,2.1209 3.8571,2.1307 3.8681,2.1406 3.8790,2.1506 3.8896,2.1608 3.9001,2.1712 3.9104,2.1817 3.9205,2.1924 3.9304,2.2031 3.9402,2.2141 3.9497,2.2251 3.9590,2.2363 3.9681,2.2476 3.9771,2.2591 3.9858,2.2706 3.9943,2.2823 4.0026,2.2941 4.0107,2.3060 4.0186,2.3180 4.0263,2.3302 4.0338,2.3424 4.0410,2.3548 4.0480,2.3672 4.0548,2.3797 4.0614,2.3924 4.0678,2.4051 4.0739,2.4179 4.0798,2.4308 4.0854,2.4437 4.0909,2.4568 4.0961,2.4699 4.1011,2.4831 4.1058,2.4964 4.1103,2.5097 4.1146,2.5231 4.1186,2.5365 4.1224,2.5500 4.1259,2.5636 4.1292,2.5772 4.1323,2.5908 4.1351,2.6045 4.1377,2.6182 4.1400,2.6319 4.1421,2.6457 4.1440,2.6595 4.1456,2.6734 4.1469,2.6872 4.1480,2.7011 4.1489,2.7150 4.1495,2.7289 4.1499,2.7428 4.15,2.7567"/></g><g stroke-width="0.0100" stroke="rgb(5%, 5%, 5%)" stroke-opacity="0.5" fill="rgb(5%, 5%, 5%)" fill-opacity="0.3"><path d="M 4.15,1.8713 L 3.15,1.8713 A 1.0 0.8853 0 0 1 4.15,2.7567 L 4.15,1.8713"/></g><g stroke-width="0.0200" stroke="rgb(5%, 5%, 5%)" stroke-opacity="0.2" fill="none"><polyline points="5.1500,-0.8201 5.1480,-0.8757 5.1421,-0.9311 5.1323,-0.9860 5.1186,-1.0403 5.1011,-1.0937 5.0798,-1.1460 5.0548,-1.1971 5.0263,-1.2466 4.9943,-1.2945 4.9590,-1.3405 4.9205,-1.3844 4.8790,-1.4262 4.8345,-1.4655 4.7874,-1.5023 4.7378,-1.5364 4.6858,-1.5676 4.6318,-1.5959 4.5758,-1.6212 4.5181,-1.6433 4.4590,-1.6621 4.3987,-1.6776 4.3374,-1.6898 4.2753,-1.6985 4.2128,-1.7037 4.15,-1.7054 4.0872,-1.7037 4.0247,-1.6985 3.9626,-1.6898 3.9013,-1.6776 3.8410,-1.6621 3.7819,-1.6433 3.7242,-1.6212 3.6682,-1.5959 3.6142,-1.5676 3.5622,-1.5364 3.5126,-1.5023 3.4655,-1.4655 3.4210,-1.4262 3.3795,-1.3844 3.3410,-1.3405 3.3057,-1.2945 3.2737,-1.2466 3.2452,-1.1971 3.2202,-1.1460 3.1989,-1.0937 3.1814,-1.0403 3.1677,-0.9860 3.1579,-0.9311 3.1520,-0.8757 3.15,-0.8201 3.1520,-0.7645 3.1579,-0.7091 3.1677,-0.6542 3.1814,-0.5999 3.1989,-0.5465 3.2202,-0.4942 3.2452,-0.4431 3.2737,-0.3936 3.3057,-0.3457 3.3410,-0.2997 3.3795,-0.2558 3.4210,-0.2140 3.4655,-0.1747 3.5126,-0.1379 3.5622,-0.1038 3.6142,-0.0726 3.6682,-0.0443 3.7242,-0.0190 3.7819,0.0031 3.8410,0.0219 3.9013,0.0374 3.9626,0.0496 4.0247,0.0583 4.0872,0.0635 4.15,0.0652 4.2128,0.0635 4.2753,0.0583 4.3374,0.0496 4.3987,0.0374 4.4590,0.0219 4.5181,0.0031 4.5758,-0.0190 4.6318,-0.0443 4.6858,-0.0726 4.7378,-0.1038 4.7874,-0.1379 4.8345,-0.1747 4.8790,-0.2140 4.9205,-0.2558 4.9590,-0.2997 4.9943,-0.3457 5.0263,-0.3936 5.0548,-0.4431 5.0798,-0.4942 5.1011,-0.5465 5.1186,-0.5999 5.1323,-0.6542 5.1421,-0.7091 5.1480,-0.7645 5.1500,-0.8201"/></g><g stroke-width="0.0200" stroke="rgb(5%, 5%, 5%)" stroke-opacity="0.2" fill="none"><polyline points="4.15,0.0652 4.1480,0.0097 4.1421,-0.0457 4.1323,-0.1006 4.1186,-0.1549 4.1011,-0.2083 4.0798,-0.2607 4.0548,-0.3117 4.0263,-0.3613 3.9943,-0.4091 3.9590,-0.4551 3.9205,-0.4991 3.8790,-0.5408 3.8345,-0.5801 3.7874,-0.6169 3.7378,-0.6510 3.6858,-0.6823 3.6318,-0.7106 3.5758,-0.7358 3.5181,-0.7579 3.4590,-0.7768 3.3987,-0.7923 3.3374,-0.8044 3.2753,-0.8131 3.2128,-0.8183 3.15,-0.8201 3.0872,-0.8183 3.0247,-0.8131 2.9626,-0.8044 2.9013,-0.7923 2.8410,-0.7768 2.7819,-0.7579 2.7242,-0.7358 2.6682,-0.7106 2.6142,-0.6823 2.5622,-0.6510 2.5126,-0.6169 2.4655,-0.5801 2.4210,-0.5408 2.3795,-0.4991 2.3410,-0.4551 2.3057,-0.4091 2.2737,-0.3613 2.2452,-0.3117 2.2202,-0.2607 2.1989,-0.2083 2.1814,-0.1549 2.1677,-0.1006 2.1579,-0.0457 2.1520,0.0097 2.1500,0.0652 2.1520,0.1208 2.1579,0.1762 2.1677,0.2311 2.1814,0.2854 2.1989,0.3388 2.2202,0.3912 2.2452,0.4422 2.2737,0.4918 2.3057,0.5396 2.3410,0.5856 2.3795,0.6296 2.4210,0.6713 2.4655,0.7106 2.5126,0.7474 2.5622,0.7815 2.6142,0.8128 2.6682,0.8411 2.7242,0.8663 2.7819,0.8884 2.8410,0.9073 2.9013,0.9228 2.9626,0.9349 3.0247,0.9436 3.0872,0.9488 3.15,0.9506 3.2128,0.9488 3.2753,0.9436 3.3374,0.9349 3.3987,0.9228 3.4590,0.9073 3.5181,0.8884 3.5758,0.8663 3.6318,0.8411 3.6858,0.8128 3.7378,0.7815 3.7874,0.7474 3.8345,0.7106 3.8790,0.6713 3.9205,0.6296 3.9590,0.5856 3.9943,0.5396 4.0263,0.4918 4.0548,0.4422 4.0798,0.3912 4.1011,0.3388 4.1186,0.2854 4.1323,0.2311 4.1421,0.1762 4.1480,0.1208 4.15,0.0652"/></g><g stroke-width="0.0500" stroke="rgb(5%, 5%, 5%)" stroke-opacity="0.5" fill="none"><polyline points="3.15,-0.8201 3.1501,-0.8062 3.1505,-0.7923 3.1511,-0.7784 3.1520,-0.7645 3.1531,-0.7506 3.1544,-0.7368 3.1560,-0.7229 3.1579,-0.7091 3.1600,-0.6953 3.1623,-0.6816 3.1649,-0.6679 3.1677,-0.6542 3.1708,-0.6406 3.1741,-0.6270 3.1776,-0.6134 3.1814,-0.5999 3.1854,-0.5865 3.1897,-0.5731 3.1942,-0.5598 3.1989,-0.5465 3.2039,-0.5333 3.2091,-0.5202 3.2146,-0.5071 3.2202,-0.4942 3.2261,-0.4813 3.2322,-0.4685 3.2386,-0.4558 3.2452,-0.4431 3.2520,-0.4306 3.2590,-0.4182 3.2662,-0.4058 3.2737,-0.3936 3.2814,-0.3814 3.2893,-0.3694 3.2974,-0.3575 3.3057,-0.3457 3.3142,-0.3340 3.3229,-0.3225 3.3319,-0.3110 3.3410,-0.2997 3.3503,-0.2885 3.3598,-0.2775 3.3696,-0.2665 3.3795,-0.2558 3.3896,-0.2451 3.3999,-0.2346 3.4104,-0.2242 3.4210,-0.2140 3.4319,-0.2040 3.4429,-0.1941 3.4541,-0.1843 3.4655,-0.1747 3.4770,-0.1653 3.4887,-0.1560 3.5006,-0.1469 3.5126,-0.1379 3.5248,-0.1291 3.5371,-0.1205 3.5496,-0.1121 3.5622,-0.1038 3.5750,-0.0958 3.5879,-0.0878 3.6010,-0.0801 3.6142,-0.0726 3.6275,-0.0652 3.6410,-0.0580 3.6545,-0.0511 3.6682,-0.0443 3.6821,-0.0377 3.6960,-0.0312 3.7101,-0.0250 3.7242,-0.0190 3.7385,-0.0132 3.7529,-0.0076 3.7673,-0.0021 3.7819,0.0031 3.7965,0.0081 3.8113,0.0129 3.8261,0.0175 3.8410,0.0219 3.8560,0.0261 3.8710,0.0301 3.8861,0.0339 3.9013,0.0374 3.9166,0.0408 3.9319,0.0439 3.9472,0.0469 3.9626,0.0496 3.9781,0.0521 3.9936,0.0543 4.0091,0.0564 4.0247,0.0583 4.0403,0.0599 4.0559,0.0613 4.0715,0.0625 4.0872,0.0635 4.1029,0.0643 4.1186,0.0648 4.1343,0.0651 4.15,0.0652"/></g><g stroke-width="0.0100" stroke="rgb(5%, 5%, 5%)" stroke-opacity="0.5" fill="rgb(5%, 5%, 5%)" fill-opacity="0.3"><path d="M 4.15,-0.8201 L 3.15,-0.8201 A 1.0 0.8853 0 0 0 4.15,0.0652 L 4.15,-0.8201"/></g><g stroke-width="0.0" stroke="none" fill="rgb(5%, 5%, 5%)" fill-opacity="1.0" font-size="0.4" text-anchor="middle"><text x="3.64" y="-2.5377">False</text></g><g stroke-width="0.0200" stroke="rgb(5%, 5%, 5%)" stroke-opacity="0.2" fill="none"><polyline points="8.59,1.8779 8.5880,1.8223 8.5821,1.7670 8.5723,1.7120 8.5586,1.6578 8.5411,1.6043 8.5198,1.5520 8.4948,1.5010 8.4663,1.4514 8.4343,1.4035 8.3990,1.3575 8.3605,1.3136 8.3190,1.2719 8.2745,1.2325 8.2274,1.1958 8.1778,1.1617 8.1258,1.1304 8.0718,1.1021 8.0158,1.0769 7.9581,1.0548 7.8990,1.0359 7.8387,1.0204 7.7774,1.0083 7.7153,0.9996 7.6528,0.9943 7.59,0.9926 7.5272,0.9943 7.4647,0.9996 7.4026,1.0083 7.3413,1.0204 7.2810,1.0359 7.2219,1.0548 7.1642,1.0769 7.1082,1.1021 7.0542,1.1304 7.0022,1.1617 6.9526,1.1958 6.9055,1.2325 6.8610,1.2719 6.8195,1.3136 6.7810,1.3575 6.7457,1.4035 6.7137,1.4514 6.6852,1.5010 6.6602,1.5520 6.6389,1.6043 6.6214,1.6578 6.6077,1.7120 6.5979,1.7670 6.5920,1.8223 6.59,1.8779 6.5920,1.9335 6.5979,1.9889 6.6077,2.0438 6.6214,2.0981 6.6389,2.1515 6.6602,2.2039 6.6852,2.2549 6.7137,2.3045 6.7457,2.3523 6.7810,2.3983 6.8195,2.4423 6.8610,2.4840 6.9055,2.5233 6.9526,2.5601 7.0022,2.5942 7.0542,2.6255 7.1082,2.6538 7.1642,2.6790 7.2219,2.7011 7.2810,2.7199 7.3413,2.7355 7.4026,2.7476 7.4647,2.7563 7.5272,2.7615 7.59,2.7633 7.6528,2.7615 7.7153,2.7563 7.7774,2.7476 7.8387,2.7355 7.8990,2.7199 7.9581,2.7011 8.0158,2.6790 8.0718,2.6538 8.1258,2.6255 8.1778,2.5942 8.2274,2.5601 8.2745,2.5233 8.3190,2.4840 8.3605,2.4423 8.3990,2.3983 8.4343,2.3523 8.4663,2.3045 8.4948,2.2549 8.5198,2.2039 8.5411,2.1515 8.5586,2.0981 8.5723,2.0438 8.5821,1.9889 8.5880,1.9335 8.59,1.8779"/></g><g stroke-width="0.0200" stroke="rgb(5%, 5%, 5%)" stroke-opacity="0.2" fill="none"><polyline points="7.59,2.7633 7.5880,2.7077 7.5821,2.6523 7.5723,2.5974 7.5586,2.5431 7.5411,2.4897 7.5198,2.4374 7.4948,2.3863 7.4663,2.3368 7.4343,2.2889 7.3990,2.2429 7.3605,2.1989 7.3190,2.1572 7.2745,2.1179 7.2274,2.0811 7.1778,2.0470 7.1258,2.0158 7.0718,1.9874 7.0158,1.9622 6.9581,1.9401 6.8990,1.9213 6.8387,1.9057 6.7774,1.8936 6.7153,1.8849 6.6528,1.8797 6.59,1.8779 6.5272,1.8797 6.4647,1.8849 6.4026,1.8936 6.3413,1.9057 6.2810,1.9213 6.2219,1.9401 6.1642,1.9622 6.1082,1.9874 6.0542,2.0158 6.0022,2.0470 5.9526,2.0811 5.9055,2.1179 5.8610,2.1572 5.8195,2.1989 5.7810,2.2429 5.7457,2.2889 5.7137,2.3368 5.6852,2.3863 5.6602,2.4374 5.6389,2.4897 5.6214,2.5431 5.6077,2.5974 5.5979,2.6523 5.5920,2.7077 5.59,2.7633 5.5920,2.8189 5.5979,2.8742 5.6077,2.9292 5.6214,2.9835 5.6389,3.0369 5.6602,3.0892 5.6852,3.1402 5.7137,3.1898 5.7457,3.2377 5.7810,3.2837 5.8195,3.3276 5.8610,3.3693 5.9055,3.4087 5.9526,3.4454 6.0022,3.4795 6.0542,3.5108 6.1082,3.5391 6.1642,3.5644 6.2219,3.5864 6.2810,3.6053 6.3413,3.6208 6.4026,3.6329 6.4647,3.6416 6.5272,3.6469 6.59,3.6486 6.6528,3.6469 6.7153,3.6416 6.7774,3.6329 6.8387,3.6208 6.8990,3.6053 6.9581,3.5864 7.0158,3.5644 7.0718,3.5391 7.1258,3.5108 7.1778,3.4795 7.2274,3.4454 7.2745,3.4087 7.3190,3.3693 7.3605,3.3276 7.3990,3.2837 7.4343,3.2377 7.4663,3.1898 7.4948,3.1402 7.5198,3.0892 7.5411,3.0369 7.5586,2.9835 7.5723,2.9292 7.5821,2.8742 7.5880,2.8189 7.59,2.7633"/></g><g stroke-width="0.0500" stroke="rgb(5%, 5%, 5%)" stroke-opacity="0.5" fill="none"><polyline points="6.59,1.8779 6.5911,1.8362 6.5944,1.7946 6.6000,1.7532 6.6077,1.7120 6.6176,1.6713 6.6297,1.6309 6.6439,1.5912 6.6602,1.5520 6.6786,1.5136 6.6990,1.4760 6.7214,1.4393 6.7457,1.4035 6.7719,1.3689 6.7998,1.3353 6.8296,1.3030 6.8610,1.2719 6.8941,1.2421 6.9287,1.2138 6.9648,1.1870 7.0022,1.1617 7.0410,1.1380 7.0810,1.1159 7.1221,1.0955 7.1642,1.0769 7.2073,1.0600 7.2513,1.0449 7.2960,1.0317 7.3413,1.0204 7.3872,1.0110 7.4336,1.0035 7.4803,0.9979 7.5272,0.9943 7.5743,0.9927 7.6214,0.9930 7.6685,0.9953 7.7153,0.9996 7.7619,1.0058 7.8081,1.0139 7.8539,1.0240 7.8990,1.0359 7.9435,1.0497 7.9871,1.0654 8.0299,1.0829 8.0718,1.1021 8.1125,1.1231 8.1521,1.1457 8.1904,1.1699 8.2274,1.1958 8.2630,1.2231 8.2971,1.2519 8.3296,1.2821 8.3605,1.3136 8.3897,1.3464 8.4171,1.3803 8.4426,1.4153 8.4663,1.4514 8.4880,1.4884 8.5078,1.5263 8.5254,1.5650 8.5411,1.6043 8.5546,1.6443 8.5659,1.6848 8.5751,1.7257 8.5821,1.7670 8.5869,1.8085 8.5895,1.8501 8.5899,1.8918 8.5880,1.9335 8.5840,1.9751 8.5777,2.0164 8.5692,2.0575 8.5586,2.0981 8.5458,2.1383 8.5309,2.1778 8.5139,2.2167 8.4948,2.2549 8.4738,2.2922 8.4507,2.3286 8.4258,2.3640 8.3990,2.3983 8.3704,2.4315 8.3401,2.4634 8.3081,2.4941 8.2745,2.5233 8.2394,2.5512 8.2029,2.5775 8.1650,2.6023 8.1258,2.6255 8.0855,2.6470 8.0440,2.6668 8.0015,2.6848 7.9581,2.7011 7.9139,2.7155 7.8690,2.7281 7.8234,2.7388 7.7774,2.7476 7.7309,2.7544 7.6841,2.7593 7.6371,2.7623 7.59,2.7633"/></g><g stroke-width="0.0100" stroke="rgb(5%, 5%, 5%)" stroke-opacity="0.5" fill="rgb(5%, 5%, 5%)" fill-opacity="0.3"><path d="M 7.59,1.8779 L 6.59,1.8779 A 1.0 0.8853 0 1 1 7.59,2.7633 L 7.59,1.8779"/></g><g stroke-width="0.0200" stroke="rgb(5%, 5%, 5%)" stroke-opacity="0.2" fill="none"><polyline points="8.6049,-0.8267 8.6029,-0.8823 8.5970,-0.9376 8.5872,-0.9926 8.5735,-1.0469 8.5559,-1.1003 8.5347,-1.1526 8.5097,-1.2036 8.4812,-1.2532 8.4492,-1.3011 8.4139,-1.3471 8.3754,-1.3910 8.3338,-1.4327 8.2894,-1.4721 8.2423,-1.5088 8.1927,-1.5429 8.1407,-1.5742 8.0866,-1.6025 8.0307,-1.6278 7.9730,-1.6498 7.9139,-1.6687 7.8536,-1.6842 7.7923,-1.6963 7.7302,-1.7050 7.6677,-1.7103 7.6049,-1.7120 7.5421,-1.7103 7.4795,-1.7050 7.4175,-1.6963 7.3562,-1.6842 7.2959,-1.6687 7.2368,-1.6498 7.1791,-1.6278 7.1231,-1.6025 7.0690,-1.5742 7.0171,-1.5429 6.9675,-1.5088 6.9203,-1.4721 6.8759,-1.4327 6.8344,-1.3910 6.7959,-1.3471 6.7605,-1.3011 6.7286,-1.2532 6.7000,-1.2036 6.6751,-1.1526 6.6538,-1.1003 6.6363,-1.0469 6.6226,-0.9926 6.6128,-0.9376 6.6068,-0.8823 6.6049,-0.8267 6.6068,-0.7711 6.6128,-0.7157 6.6226,-0.6608 6.6363,-0.6065 6.6538,-0.5531 6.6751,-0.5008 6.7000,-0.4497 6.7286,-0.4002 6.7605,-0.3523 6.7959,-0.3063 6.8344,-0.2623 6.8759,-0.2206 6.9203,-0.1813 6.9675,-0.1445 7.0171,-0.1104 7.0690,-0.0792 7.1231,-0.0508 7.1791,-0.0256 7.2368,-0.0035 7.2959,0.0153 7.3562,0.0308 7.4175,0.0430 7.4795,0.0517 7.5421,0.0569 7.6049,0.0587 7.6677,0.0569 7.7302,0.0517 7.7923,0.0430 7.8536,0.0308 7.9139,0.0153 7.9730,-0.0035 8.0307,-0.0256 8.0866,-0.0508 8.1407,-0.0792 8.1927,-0.1104 8.2423,-0.1445 8.2894,-0.1813 8.3338,-0.2206 8.3754,-0.2623 8.4139,-0.3063 8.4492,-0.3523 8.4812,-0.4002 8.5097,-0.4497 8.5347,-0.5008 8.5559,-0.5531 8.5735,-0.6065 8.5872,-0.6608 8.5970,-0.7157 8.6029,-0.7711 8.6049,-0.8267"/></g><g stroke-width="0.0200" stroke="rgb(5%, 5%, 5%)" stroke-opacity="0.2" fill="none"><polyline points="7.6049,0.0587 7.6029,0.0031 7.5970,-0.0523 7.5872,-0.1072 7.5735,-0.1615 7.5559,-0.2149 7.5347,-0.2673 7.5097,-0.3183 7.4812,-0.3679 7.4492,-0.4157 7.4139,-0.4617 7.3754,-0.5057 7.3338,-0.5474 7.2894,-0.5867 7.2423,-0.6235 7.1927,-0.6576 7.1407,-0.6889 7.0866,-0.7172 7.0307,-0.7424 6.9730,-0.7645 6.9139,-0.7833 6.8536,-0.7989 6.7923,-0.8110 6.7302,-0.8197 6.6677,-0.8249 6.6049,-0.8267 6.5421,-0.8249 6.4795,-0.8197 6.4175,-0.8110 6.3562,-0.7989 6.2959,-0.7833 6.2368,-0.7645 6.1791,-0.7424 6.1231,-0.7172 6.0690,-0.6889 6.0171,-0.6576 5.9675,-0.6235 5.9203,-0.5867 5.8759,-0.5474 5.8344,-0.5057 5.7959,-0.4617 5.7605,-0.4157 5.7286,-0.3679 5.7000,-0.3183 5.6751,-0.2673 5.6538,-0.2149 5.6363,-0.1615 5.6226,-0.1072 5.6128,-0.0523 5.6068,0.0031 5.6049,0.0587 5.6068,0.1143 5.6128,0.1696 5.6226,0.2246 5.6363,0.2788 5.6538,0.3322 5.6751,0.3846 5.7000,0.4356 5.7286,0.4852 5.7605,0.5331 5.7959,0.5791 5.8344,0.6230 5.8759,0.6647 5.9203,0.7041 5.9675,0.7408 6.0171,0.7749 6.0690,0.8062 6.1231,0.8345 6.1791,0.8597 6.2368,0.8818 6.2959,0.9007 6.3562,0.9162 6.4175,0.9283 6.4795,0.9370 6.5421,0.9423 6.6049,0.9440 6.6677,0.9423 6.7302,0.9370 6.7923,0.9283 6.8536,0.9162 6.9139,0.9007 6.9730,0.8818 7.0307,0.8597 7.0866,0.8345 7.1407,0.8062 7.1927,0.7749 7.2423,0.7408 7.2894,0.7041 7.3338,0.6647 7.3754,0.6230 7.4139,0.5791 7.4492,0.5331 7.4812,0.4852 7.5097,0.4356 7.5347,0.3846 7.5559,0.3322 7.5735,0.2788 7.5872,0.2246 7.5970,0.1696 7.6029,0.1143 7.6049,0.0587"/></g><g stroke-width="0.0500" stroke="rgb(5%, 5%, 5%)" stroke-opacity="0.5" fill="none"><polyline points="6.6049,-0.8267 6.5578,-0.8257 6.5108,-0.8227 6.4640,-0.8178 6.4175,-0.8110 6.3714,-0.8022 6.3259,-0.7915 6.2810,-0.7789 6.2368,-0.7645 6.1934,-0.7482 6.1509,-0.7302 6.1094,-0.7104 6.0690,-0.6889 6.0299,-0.6657 5.9920,-0.6409 5.9554,-0.6146 5.9203,-0.5867 5.8868,-0.5575 5.8548,-0.5268 5.8244,-0.4949 5.7959,-0.4617 5.7691,-0.4274 5.7441,-0.3920 5.7211,-0.3556 5.7000,-0.3183 5.6810,-0.2801 5.6640,-0.2412 5.6491,-0.2017 5.6363,-0.1615 5.6257,-0.1209 5.6172,-0.0798 5.6109,-0.0385 5.6068,0.0031 5.6050,0.0448 5.6054,0.0865 5.6080,0.1281 5.6128,0.1696 5.6198,0.2109 5.6290,0.2518 5.6403,0.2923 5.6538,0.3322 5.6694,0.3716 5.6871,0.4103 5.7068,0.4482 5.7286,0.4852 5.7522,0.5213 5.7778,0.5563 5.8052,0.5902 5.8344,0.6230 5.8652,0.6545 5.8978,0.6847 5.9319,0.7135 5.9675,0.7408 6.0045,0.7667 6.0428,0.7909 6.0824,0.8135 6.1231,0.8345 6.1649,0.8537 6.2077,0.8712 6.2514,0.8869 6.2959,0.9007 6.3410,0.9126 6.3867,0.9227 6.4329,0.9308 6.4795,0.9370 6.5264,0.9413 6.5735,0.9436 6.6206,0.9439 6.6677,0.9423 6.7146,0.9387 6.7613,0.9331 6.8077,0.9256 6.8536,0.9162 6.8989,0.9049 6.9436,0.8917 6.9876,0.8766 7.0307,0.8597 7.0728,0.8411 7.1139,0.8207 7.1539,0.7986 7.1927,0.7749 7.2301,0.7496 7.2662,0.7228 7.3008,0.6945 7.3338,0.6647 7.3653,0.6336 7.3950,0.6013 7.4230,0.5677 7.4492,0.5331 7.4735,0.4973 7.4959,0.4606 7.5163,0.4230 7.5347,0.3846 7.5510,0.3454 7.5652,0.3057 7.5772,0.2653 7.5872,0.2246 7.5949,0.1834 7.6004,0.1420 7.6038,0.1004 7.6049,0.0587"/></g><g stroke-width="0.0100" stroke="rgb(5%, 5%, 5%)" stroke-opacity="0.5" fill="rgb(5%, 5%, 5%)" fill-opacity="0.3"><path d="M 7.6049,-0.8267 L 6.6049,-0.8267 A 1.0 0.8853 0 1 0 7.6049,0.0587 L 7.6049,-0.8267"/></g><g stroke-width="0.0" stroke="none" fill="rgb(5%, 5%, 5%)" fill-opacity="1.0" font-size="0.4" text-anchor="middle"><text x="7.08" y="-2.5442">True</text></g><g stroke-width="0.0" stroke="none" fill="rgb(5%, 5%, 5%)" fill-opacity="1.0" font-size="0.6" text-anchor="middle"><text x="5.5000" y="-3.4716">Large</text></g></g><g class="hud"></g></svg>