<svg height="300.0" width="312.5971457599038" xmlns:xlink="http://www.w3.org/1999/xlink" xmlns="http://www.w3.org/2000/svg" viewBox="0.0 -4.94987663248166 9.0 8.637314948722489"><g></g><g text-anchor="middle" fill-opacity="1.0" fill="#0d0d0d" stroke-width="0.0" stroke="none" font-size="0.6"><text y="-0.0" x="0.5549999999999999" transform="rotate(-90.0, 0.5549999999999999, -0.0)">Sweep</text></g><g></g><g text-anchor="middle" fill-opacity="1.0" fill="#0d0d0d" stroke-width="0.0" stroke="none" font-size="0.4"><text y="1.5099999999999998" x="1.7149999999999999" transform="rotate(-90.0, 1.7149999999999999, 1.5099999999999998)">True</text></g><g></g><g text-anchor="middle" fill-opacity="1.0" fill="#0d0d0d" stroke-width="0.0" stroke="none" font-size="0.4"><text y="-1.5100000000000002" x="1.7149999999999999" transform="rotate(-90.0, 1.7149999999999999, -1.5100000000000002)">False</text></g><g stroke-opacity="0.2" fill="none" stroke-width="2.0e-2" stroke="#0d0d0d"><polyline points="5.409999999999999,1.6699999999999995
5.408026728428272,1.607209480470686
5.402114701314478,1.5446667664356952
5.392287250728689,1.4826186854142747
5.378583161128631,1.4213101128351444
5.361056516295154,1.360983005625052
5.339776485888249,1.3018754473153216
5.314827052466018,1.244220708434927
5.286306680043863,1.1882463258982843
5.2543279255020146,1.134173205021003
5.219016994374947,1.0822147477075261
5.180513242775787,1.0325760102513097
5.138968627421411,0.9854528940713108
5.094547105928688,0.9410313725785877
5.047423989748689,0.8994867572242105
4.9977852522924735,0.860983005625052
4.945826794978997,0.8256720744979842
4.8917536741017145,0.793693319956136
4.835779291565073,0.7651729475339799
4.7781245526846785,0.7402235141117481
4.719016994374945,0.7189434837048458
4.658689887164854,0.7014168388713689
4.597381314585725,0.6877127492713107
4.535333233564302,0.6778852986855215
4.472790519529314,0.6719732715717277
4.409999999999999,0.6699999999999995
4.347209480470687,0.6719732715717277
4.284666766435696,0.6778852986855215
4.222618685414275,0.6877127492713107
4.161310112835144,0.7014168388713689
4.100983005625053,0.7189434837048458
4.041875447315322,0.7402235141117481
3.9842207084349273,0.7651729475339799
3.9282463258982845,0.793693319956136
3.8741732050210023,0.8256720744979846
3.822214747707527,0.860983005625052
3.7725760102513104,0.8994867572242105
3.725452894071311,0.9410313725785877
3.6810313725785884,0.9854528940713108
3.6394867572242102,1.0325760102513097
3.6009830056250527,1.0822147477075261
3.565672074497984,1.1341732050210025
3.5336933199561353,1.1882463258982843
3.5051729475339797,1.244220708434927
3.480223514111748,1.3018754473153211
3.4589434837048465,1.360983005625052
3.441416838871369,1.4213101128351444
3.4277127492713113,1.4826186854142747
3.417885298685522,1.5446667664356952
3.4119732715717284,1.607209480470686
3.41,1.6699999999999995
3.4119732715717284,1.732790519529313
3.417885298685522,1.7953332335643037
3.4277127492713113,1.8573813145857243
3.4414168388713686,1.9186898871648541
3.4589434837048465,1.9790169943749472
3.480223514111748,2.0381245526846774
3.5051729475339792,2.095779291565072
3.5336933199561367,2.151753674101715
3.565672074497984,2.205826794978996
3.6009830056250527,2.2577852522924724
3.6394867572242102,2.3074239897486892
3.6810313725785884,2.3545471059286878
3.7254528940713114,2.398968627421411
3.7725760102513104,2.440513242775789
3.822214747707527,2.479016994374947
3.8741732050210036,2.514327925502015
3.9282463258982845,2.546306680043863
3.9842207084349277,2.574827052466019
4.041875447315322,2.599776485888251
4.100983005625052,2.621056516295153
4.161310112835144,2.6385831611286306
4.222618685414275,2.6522872507286883
4.284666766435695,2.6621147013144775
4.347209480470687,2.668026728428271
4.409999999999999,2.6699999999999995
4.472790519529313,2.668026728428271
4.535333233564302,2.6621147013144775
4.597381314585725,2.6522872507286883
4.658689887164854,2.6385831611286306
4.719016994374945,2.621056516295153
4.778124552684677,2.599776485888251
4.835779291565071,2.5748270524660195
4.891753674101716,2.546306680043863
4.945826794978997,2.5143279255020143
4.9977852522924735,2.479016994374947
5.0474239897486886,2.440513242775789
5.094547105928688,2.398968627421411
5.138968627421411,2.354547105928688
5.18051324277579,2.3074239897486892
5.219016994374947,2.257785252292473
5.2543279255020146,2.2058267949789965
5.286306680043863,2.1517536741017147
5.314827052466018,2.0957792915650724
5.339776485888249,2.0381245526846774
5.361056516295154,1.9790169943749472
5.378583161128631,1.9186898871648541
5.392287250728689,1.8573813145857243
5.402114701314478,1.7953332335643042
5.408026728428272,1.7327905195293127
5.409999999999999,1.6699999999999995"/></g><g stroke-opacity="0.2" fill="none" stroke-width="2.0e-2" stroke="#0d0d0d"><polyline points="4.409999999999999,2.6699999999999995
4.408026728428271,2.607209480470686
4.402114701314478,2.5446667664356952
4.392287250728688,2.4826186854142747
4.378583161128631,2.421310112835145
4.361056516295152,2.360983005625052
4.339776485888251,2.3018754473153216
4.314827052466019,2.244220708434927
4.286306680043864,2.1882463258982843
4.2543279255020146,2.134173205021003
4.219016994374948,2.0822147477075266
4.180513242775789,2.0325760102513097
4.138968627421411,1.9854528940713108
4.094547105928688,1.941031372578588
4.047423989748689,1.8994867572242105
3.997785252292472,1.860983005625052
3.9458267949789967,1.8256720744979844
3.891753674101715,1.7936933199561358
3.8357792915650717,1.76517294753398
3.778124552684677,1.7402235141117481
3.7190169943749467,1.7189434837048458
3.6586898871648548,1.7014168388713686
3.5973813145857236,1.6877127492713109
3.5353332335643035,1.6778852986855215
3.472790519529313,1.6719732715717277
3.41,1.6699999999999995
3.3472094804706867,1.6719732715717277
3.284666766435696,1.6778852986855215
3.2226186854142753,1.6877127492713107
3.1613101128351446,1.7014168388713686
3.1009830056250527,1.7189434837048458
3.0418754473153222,1.7402235141117481
2.9842207084349273,1.76517294753398
2.9282463258982845,1.793693319956136
2.8741732050210023,1.8256720744979846
2.822214747707527,1.860983005625052
2.7725760102513104,1.8994867572242102
2.725452894071311,1.941031372578588
2.6810313725785884,1.9854528940713108
2.6394867572242102,2.0325760102513097
2.6009830056250527,2.082214747707526
2.565672074497984,2.1341732050210025
2.5336933199561353,2.1882463258982843
2.5051729475339806,2.244220708434927
2.480223514111748,2.3018754473153216
2.4589434837048465,2.360983005625052
2.4414168388713686,2.421310112835145
2.4277127492713113,2.482618685414275
2.417885298685522,2.5446667664356952
2.4119732715717284,2.607209480470686
2.4099999999999997,2.6699999999999995
2.4119732715717284,2.732790519529313
2.417885298685522,2.7953332335643037
2.4277127492713113,2.8573813145857243
2.4414168388713686,2.918689887164854
2.4589434837048465,2.9790169943749474
2.480223514111748,3.0381245526846774
2.50517294753398,3.095779291565072
2.5336933199561367,3.1517536741017147
2.565672074497984,3.205826794978996
2.6009830056250527,3.2577852522924724
2.6394867572242102,3.3074239897486892
2.6810313725785884,3.3545471059286878
2.7254528940713114,3.398968627421411
2.7725760102513104,3.440513242775789
2.822214747707527,3.479016994374947
2.8741732050210036,3.514327925502015
2.9282463258982845,3.546306680043863
2.9842207084349277,3.574827052466019
3.0418754473153222,3.599776485888251
3.1009830056250522,3.621056516295153
3.1613101128351446,3.6385831611286306
3.2226186854142753,3.6522872507286883
3.2846667664356954,3.6621147013144775
3.3472094804706867,3.668026728428271
3.409999999999999,3.6699999999999995
3.4727905195293127,3.668026728428271
3.5353332335643035,3.6621147013144775
3.597381314585723,3.6522872507286883
3.6586898871648548,3.6385831611286306
3.7190169943749467,3.621056516295153
3.7781245526846767,3.599776485888251
3.835779291565071,3.5748270524660195
3.891753674101715,3.546306680043863
3.9458267949789967,3.5143279255020143
3.997785252292472,3.479016994374947
4.047423989748689,3.440513242775789
4.094547105928688,3.398968627421411
4.138968627421411,3.354547105928688
4.180513242775789,3.3074239897486892
4.219016994374947,3.257785252292473
4.2543279255020146,3.2058267949789965
4.286306680043864,3.1517536741017147
4.314827052466019,3.0957792915650724
4.339776485888251,3.0381245526846774
4.361056516295152,2.979016994374947
4.378583161128631,2.918689887164854
4.392287250728688,2.8573813145857243
4.402114701314478,2.795333233564304
4.408026728428271,2.732790519529313
4.409999999999999,2.67"/></g><g stroke-opacity="0.5" fill="none" stroke-width="5.0e-2" stroke="#0d0d0d"><polyline points="3.41,1.6699999999999995
3.4257073173118204,1.6701233675183391
3.441410759078128,1.6704934396342677
3.4571064507096416,1.6711101250380294
3.472790519529313,1.6719732715717277
3.488459095727845,1.6730826662668714
3.5041083133185134,1.6744380353969195
3.519734311091045,1.6760390445448197
3.5353332335643035,1.6778852986855215
3.5509012319375817,1.679976342283442
3.56643446504023,1.6823116594048617
3.5819291002794094,1.6848906738452256
3.5973813145857236,1.6877127492713109
3.6127872953565126,1.6907771893782337
3.6281432413965424,1.694083238061252
3.6434453638559043,1.697630079602323
3.6586898871648548,1.7014168388713686
3.673873049965372,1.7054425815422014
3.688991106039228,1.7097063143230564
3.7040403252323033,1.7142069852016695
3.7190169943749467,1.7189434837048458
3.733917418198149,1.7239146411724546
3.7487379202452904,1.729119231045774
3.7634748437792567,1.7345559691701322
3.778124552684677,1.7402235141117481
3.7926834323650898,1.7461204674887127
3.8071478906347798,1.7522453743160185
3.8215143586051084,1.7585967233645543
3.8357792915650717,1.76517294753398
3.849939169855915,1.771972424239384
3.863990499739547,1.7789934758116317
3.877929814260573,1.786234369911306
3.891753674101715,1.793693319956136
3.9054586684324066,1.8013684855618084
3.9190414157503715,1.8092579729960558
3.932498564715948,1.8173598356459073
3.9458267949789967,1.8256720744979844
3.9590228179981315,1.8341926386317293
3.9720833778521296,1.8429194257254378
3.9850052520432784,1.851850282574976
3.997785252292472,1.860983005625052
4.010420225325884,1.8703153415129088
4.022907053652976,1.8798449876243093
4.035242656335705,1.8895695926616698
4.047423989748689,1.8994867572242105
4.059448048330183,1.9095940343999684
4.0713118653236515,1.91988893036954
4.0830125135097735,1.93036890502139
4.094547105928688,1.9410313725785882
4.105912796592314,1.9518737022368107
4.117106781186547,1.962893218813452
4.128126297763188,1.9740872034076853
4.138968627421411,1.9854528940713108
4.149631094978609,1.9969874864902262
4.160111069630459,2.0086881346763477
4.170405965600031,2.020551951669816
4.180513242775789,2.0325760102513097
4.190430407338329,2.044757343664294
4.20015501237569,2.057092946347023
4.20968465848709,2.0695797746741156
4.219016994374948,2.0822147477075266
4.2281497174250235,2.094994747956721
4.237080574274562,2.1079166221478687
4.24580736136827,2.1209771820018677
4.2543279255020146,2.134173205021003
4.262640164354092,2.1475014352840507
4.270742027003943,2.160958584249628
4.2786315144381915,2.174541331567592
4.286306680043864,2.1882463258982843
4.293765630088693,2.202070185739426
4.3010065241883675,2.2160095002604527
4.308027575760615,2.2300608301440845
4.314827052466019,2.244220708434927
4.321403276635445,2.258485641394891
4.327754625683981,2.272852109365219
4.333879532511286,2.28731656763491
4.339776485888251,2.3018754473153216
4.345444030829867,2.3165251562207425
4.350880768954225,2.331262079754708
4.356085358827545,2.3460825818018503
4.361056516295152,2.360983005625052
4.36579301479833,2.3759596747676954
4.370293685676943,2.39100889396077
4.3745574184577976,2.406126950034627
4.378583161128631,2.421310112835145
4.382369920397676,2.436554636144094
4.385916761938748,2.4518567586034568
4.3892228106217654,2.467212704643487
4.392287250728688,2.4826186854142747
4.395109326154774,2.49807089972059
4.3976883405951375,2.5135655349597688
4.400023657716557,2.5290987680624166
4.402114701314478,2.5446667664356952
4.4039609554551795,2.560265688908954
4.40556196460308,2.5758916866814854
4.406917333733127,2.5915409042721547
4.408026728428271,2.6072094804706865
4.40888987496197,2.6228935492903567
4.409506560365731,2.6385892409218714
4.4098766324816605,2.6542926826881788
4.409999999999999,2.6699999999999995"/></g><g fill-opacity="0.3" stroke-opacity="0.5" fill="#0d0d0d" stroke-width="1.0e-2" stroke="#0d0d0d"><path d="M 4.4100,1.6700 L 3.41,1.6700 A 1.0 1.0 -0.0 0 1 4.4100,2.6700 L 4.4100,1.6700"/></g><g stroke-opacity="0.2" fill="none" stroke-width="2.0e-2" stroke="#0d0d0d"><polyline points="5.409999999999999,-1.3699999999999997
5.408026728428272,-1.4327905195293131
5.402114701314478,-1.4953332335643048
5.392287250728689,-1.5573813145857245
5.378583161128631,-1.6186898871648547
5.361056516295154,-1.679016994374948
5.339776485888249,-1.738124552684678
5.314827052466018,-1.7957792915650725
5.286306680043863,-1.8517536741017158
5.2543279255020146,-1.9058267949789962
5.219016994374947,-1.957785252292473
5.180513242775787,-2.00742398974869
5.138968627421411,-2.054547105928689
5.094547105928688,-2.0989686274214114
5.047423989748689,-2.1405132427757896
4.9977852522924735,-2.179016994374948
4.945826794978997,-2.214327925502015
4.8917536741017145,-2.246306680043864
4.835779291565073,-2.2748270524660197
4.7781245526846785,-2.2997764858882515
4.719016994374945,-2.3210565162951533
4.658689887164854,-2.3385831611286307
4.597381314585725,-2.3522872507286885
4.535333233564302,-2.362114701314478
4.472790519529314,-2.3680267284282714
4.409999999999999,-2.3699999999999997
4.347209480470687,-2.3680267284282714
4.284666766435696,-2.362114701314478
4.222618685414275,-2.3522872507286885
4.161310112835144,-2.3385831611286307
4.100983005625053,-2.3210565162951533
4.041875447315322,-2.2997764858882515
3.9842207084349273,-2.2748270524660197
3.9282463258982845,-2.246306680043864
3.8741732050210023,-2.214327925502015
3.822214747707527,-2.179016994374948
3.7725760102513104,-2.1405132427757896
3.725452894071311,-2.0989686274214114
3.6810313725785884,-2.054547105928689
3.6394867572242102,-2.00742398974869
3.6009830056250527,-1.957785252292473
3.565672074497984,-1.905826794978997
3.5336933199561353,-1.8517536741017158
3.5051729475339797,-1.7957792915650725
3.480223514111748,-1.738124552684678
3.4589434837048465,-1.679016994374948
3.441416838871369,-1.6186898871648547
3.4277127492713113,-1.5573813145857245
3.417885298685522,-1.495333233564304
3.4119732715717284,-1.4327905195293131
3.41,-1.3700000000000006
3.4119732715717284,-1.307209480470687
3.417885298685522,-1.2446667664356954
3.4277127492713113,-1.1826186854142757
3.4414168388713686,-1.1213101128351455
3.4589434837048465,-1.0609830056250522
3.480223514111748,-1.0018754473153222
3.5051729475339792,-0.9442207084349277
3.5336933199561367,-0.8882463258982845
3.565672074497984,-0.834173205021004
3.6009830056250527,-0.7822147477075272
3.6394867572242102,-0.7325760102513104
3.6810313725785884,-0.6854528940713123
3.7254528940713114,-0.6410313725785888
3.7725760102513104,-0.5994867572242106
3.822214747707527,-0.5609830056250522
3.8741732050210036,-0.5256720744979844
3.9282463258982845,-0.4936933199561353
3.9842207084349277,-0.46517294753398053
4.041875447315322,-0.44022351411174876
4.100983005625052,-0.41894348370484513
4.161310112835144,-0.4014168388713695
4.222618685414275,-0.3877127492713117
4.284666766435695,-0.3778852986855221
4.347209480470687,-0.37197327157172877
4.409999999999999,-0.37000000000000055
4.472790519529313,-0.37197327157172877
4.535333233564302,-0.3778852986855221
4.597381314585725,-0.3877127492713117
4.658689887164854,-0.4014168388713695
4.719016994374945,-0.41894348370484513
4.778124552684677,-0.44022351411174876
4.835779291565071,-0.46517294753398053
4.891753674101716,-0.4936933199561353
4.945826794978997,-0.5256720744979853
4.9977852522924735,-0.5609830056250522
5.0474239897486886,-0.5994867572242106
5.094547105928688,-0.6410313725785888
5.138968627421411,-0.6854528940713114
5.18051324277579,-0.7325760102513104
5.219016994374947,-0.7822147477075272
5.2543279255020146,-0.8341732050210031
5.286306680043863,-0.8882463258982845
5.314827052466018,-0.9442207084349277
5.339776485888249,-1.0018754473153222
5.361056516295154,-1.0609830056250522
5.378583161128631,-1.1213101128351455
5.392287250728689,-1.1826186854142757
5.402114701314478,-1.2446667664356954
5.408026728428272,-1.307209480470687
5.409999999999999,-1.3699999999999997"/></g><g stroke-opacity="0.2" fill="none" stroke-width="2.0e-2" stroke="#0d0d0d"><polyline points="4.409999999999999,-0.37000000000000055
4.408026728428271,-0.432790519529314
4.402114701314478,-0.4953332335643039
4.392287250728688,-0.5573813145857254
4.378583161128631,-0.6186898871648547
4.361056516295152,-0.6790169943749471
4.339776485888251,-0.738124552684678
4.314827052466019,-0.7957792915650725
4.286306680043864,-0.8517536741017149
4.2543279255020146,-0.9058267949789971
4.219016994374948,-0.957785252292473
4.180513242775789,-1.0074239897486899
4.138968627421411,-1.0545471059286888
4.094547105928688,-1.0989686274214114
4.047423989748689,-1.1405132427757887
3.997785252292472,-1.1790169943749471
3.9458267949789967,-1.214327925502015
3.891753674101715,-1.246306680043864
3.8357792915650717,-1.2748270524660197
3.778124552684677,-1.2997764858882515
3.7190169943749467,-1.3210565162951542
3.6586898871648548,-1.3385831611286307
3.5973813145857236,-1.3522872507286885
3.5353332335643035,-1.362114701314478
3.472790519529313,-1.3680267284282714
3.41,-1.3699999999999997
3.3472094804706867,-1.3680267284282714
3.284666766435696,-1.362114701314478
3.2226186854142753,-1.3522872507286885
3.1613101128351446,-1.3385831611286307
3.1009830056250527,-1.3210565162951542
3.0418754473153222,-1.2997764858882515
2.9842207084349273,-1.2748270524660197
2.9282463258982845,-1.2463066800438631
2.8741732050210023,-1.214327925502015
2.822214747707527,-1.1790169943749471
2.7725760102513104,-1.1405132427757896
2.725452894071311,-1.0989686274214114
2.6810313725785884,-1.0545471059286888
2.6394867572242102,-1.0074239897486899
2.6009830056250527,-0.9577852522924739
2.565672074497984,-0.9058267949789971
2.5336933199561353,-0.8517536741017149
2.5051729475339806,-0.7957792915650734
2.480223514111748,-0.738124552684678
2.4589434837048465,-0.6790169943749471
2.4414168388713686,-0.6186898871648547
2.4277127492713113,-0.5573813145857245
2.417885298685522,-0.4953332335643039
2.4119732715717284,-0.432790519529314
2.4099999999999997,-0.37000000000000055
2.4119732715717284,-0.30720948047068664
2.417885298685522,-0.24466676643569585
2.4277127492713113,-0.18261868541427528
2.4414168388713686,-0.12131011283514548
2.4589434837048465,-6.098300562505221e-2
2.480223514111748,-1.8754473153221873e-3
2.50517294753398,5.577929156507233e-2
2.5336933199561367,0.1117536741017151
2.565672074497984,0.16582679497899644
2.6009830056250527,0.2177852522924728
2.6394867572242102,0.26742398974868964
2.6810313725785884,0.3145471059286882
2.7254528940713114,0.3589686274214112
2.7725760102513104,0.40051324277578937
2.822214747707527,0.43901699437494734
2.8741732050210036,0.4743279255020152
2.9282463258982845,0.5063066800438634
2.9842207084349277,0.5348270524660195
3.0418754473153222,0.5597764858882512
3.1009830056250522,0.5810565162951535
3.1613101128351446,0.598583161128631
3.2226186854142753,0.6122872507286887
3.2846667664356954,0.6221147013144779
3.3472094804706867,0.6280267284282712
3.409999999999999,0.6299999999999999
3.4727905195293127,0.6280267284282712
3.5353332335643035,0.6221147013144779
3.597381314585723,0.6122872507286887
3.6586898871648548,0.598583161128631
3.7190169943749467,0.5810565162951535
3.7781245526846767,0.5597764858882512
3.835779291565071,0.5348270524660199
3.891753674101715,0.5063066800438634
3.9458267949789967,0.47432792550201475
3.997785252292472,0.43901699437494734
4.047423989748689,0.40051324277578937
4.094547105928688,0.3589686274214112
4.138968627421411,0.3145471059286886
4.180513242775789,0.26742398974868964
4.219016994374947,0.21778525229247325
4.2543279255020146,0.16582679497899688
4.286306680043864,0.1117536741017151
4.314827052466019,5.5779291565072775e-2
4.339776485888251,-1.8754473153221873e-3
4.361056516295152,-6.0983005625052655e-2
4.378583161128631,-0.12131011283514548
4.392287250728688,-0.18261868541427528
4.402114701314478,-0.2446667664356954
4.408026728428271,-0.30720948047068664
4.409999999999999,-0.36999999999999966"/></g><g stroke-opacity="0.5" fill="none" stroke-width="5.0e-2" stroke="#0d0d0d"><polyline points="3.41,-1.3699999999999997
3.410123367518339,-1.3542926826881794
3.4104934396342683,-1.338589240921872
3.411110125038029,-1.3228935492903573
3.4119732715717284,-1.307209480470687
3.413082666266872,-1.2915409042721548
3.414438035396919,-1.275891686681486
3.4160390445448194,-1.2602656889089547
3.417885298685522,-1.2446667664356954
3.4199763422834417,-1.2290987680624172
3.4223116594048624,-1.2135655349597694
3.4248906738452263,-1.1980708997205904
3.4277127492713113,-1.1826186854142757
3.430777189378234,-1.1672127046434873
3.4340832380612527,-1.1518567586034574
3.4376300796023234,-1.1365546361440946
3.441416838871369,-1.1213101128351455
3.445442581542202,-1.1061269500346271
3.449706314323057,-1.0910088939607703
3.454206985201669,-1.0759596747676965
3.4589434837048465,-1.0609830056250522
3.4639146411724537,-1.0460825818018509
3.4691192310457737,-1.031262079754709
3.4745559691701318,-1.0165251562207422
3.480223514111748,-1.0018754473153222
3.4861204674887127,-0.98731656763491
3.492245374316018,-0.97285210936522
3.4985967233645545,-0.9584856413948919
3.5051729475339797,-0.9442207084349277
3.5119724242393833,-0.9300608301440847
3.518993475811631,-0.9160095002604538
3.5262343699113066,-0.9020701857394271
3.5336933199561353,-0.8882463258982845
3.541368485561808,-0.8745413315675923
3.5492579729960565,-0.8609585842496288
3.557359835645908,-0.8475014352840513
3.565672074497984,-0.834173205021004
3.5741926386317298,-0.8209771820018683
3.5829194257254384,-0.8079166221478693
3.5918502825749767,-0.794994747956721
3.6009830056250527,-0.7822147477075272
3.6103153415129094,-0.7695797746741166
3.6198449876243095,-0.7570929463470235
3.62956959266167,-0.7447573436642947
3.6394867572242102,-0.7325760102513104
3.649594034399969,-0.7205519516698167
3.6598889303695397,-0.7086881346763483
3.6703689050213897,-0.6969874864902263
3.6810313725785884,-0.6854528940713114
3.6918737022368107,-0.6740872034076859
3.7028932188134522,-0.6628932188134526
3.7140872034076855,-0.6518737022368115
3.725452894071311,-0.6410313725785888
3.736987486490226,-0.6303689050213896
3.7486881346763474,-0.6198889303695405
3.7605519516698163,-0.6095940343999691
3.7725760102513104,-0.5994867572242106
3.7847573436642947,-0.5895695926616704
3.7970929463470227,-0.5798449876243095
3.8095797746741153,-0.570315341512909
3.822214747707527,-0.5609830056250522
3.8349947479567206,-0.5518502825749763
3.8479166221478693,-0.5429194257254379
3.8609771820018675,-0.5341926386317293
3.8741732050210036,-0.5256720744979844
3.887501435284051,-0.5173598356459084
3.9009585842496284,-0.5092579729960565
3.9145413315675928,-0.5013684855618084
3.9282463258982845,-0.4936933199561353
3.942070185739426,-0.4862343699113061
3.9560095002604525,-0.4789934758116323
3.970060830144084,-0.47197242423938457
3.9842207084349273,-0.46517294753398053
3.998485641394891,-0.45859672336455537
4.01285210936522,-0.4522453743160191
4.02731656763491,-0.4461204674887136
4.041875447315322,-0.44022351411174876
4.056525156220743,-0.4345559691701326
4.0712620797547086,-0.4291192310457741
4.0860825818018505,-0.42391464117245503
4.100983005625053,-0.41894348370484513
4.115959674767696,-0.4142069852016701
4.131008893960771,-0.4097063143230568
4.146126950034627,-0.40544258154220136
4.161310112835144,-0.4014168388713695
4.176554636144094,-0.39763007960232377
4.191856758603457,-0.39408323806125045
4.207212704643488,-0.39077718937823436
4.222618685414275,-0.3877127492713117
4.23807089972059,-0.3848906738452267
4.253565534959769,-0.38231165940486234
4.269098768062417,-0.379976342283443
4.284666766435696,-0.3778852986855221
4.300265688908954,-0.3760390445448203
4.315891686681486,-0.3744380353969201
4.331540904272154,-0.3730826662668725
4.347209480470687,-0.37197327157172877
4.362893549290357,-0.37111012503803
4.378589240921872,-0.37049343963426873
4.394292682688178,-0.3701233675183393
4.409999999999999,-0.37000000000000055"/></g><g fill-opacity="0.3" stroke-opacity="0.5" fill="#0d0d0d" stroke-width="1.0e-2" stroke="#0d0d0d"><path d="M 4.4100,-1.3700 L 3.41,-1.3700 A 1.0 1.0 -0.0 0 0 4.4100,-0.3700 L 4.4100,-1.3700"/></g><g></g><g text-anchor="middle" fill-opacity="1.0" fill="#0d0d0d" stroke-width="0.0" stroke="none" font-size="0.4"><text y="-3.309999999999999" x="3.899999999999999">False</text></g><g stroke-opacity="0.2" fill="none" stroke-width="2.0e-2" stroke="#0d0d0d"><polyline points="8.905,1.67743831624083
8.903026728428271,1.6146477967115165
8.897114701314477,1.5521050826765257
8.887287250728688,1.4900570016551051
8.87358316112863,1.4287484290759749
8.856056516295153,1.3684213218658825
8.83477648588825,1.309313763556152
8.80982705246602,1.251659024675757
8.781306680043864,1.1956846421391147
8.749327925502014,1.1416115212618334
8.714016994374946,1.0896530639483566
8.67551324277579,1.0400143264921402
8.633968627421412,0.9928912103121412
8.58954710592869,0.9484696888194182
8.54242398974869,0.9069250734650409
8.492785252292473,0.8684213218658825
8.440826794978996,0.8331103907388147
8.386753674101714,0.8011316361969665
8.330779291565072,0.7726112637748104
8.273124552684678,0.7476618303525786
8.214016994374946,0.7263817999456763
8.153689887164854,0.7088551551121989
8.092381314585724,0.6951510655121411
8.030333233564303,0.685323614926352
7.967790519529312,0.6794115878125582
7.904999999999998,0.67743831624083
7.842209480470686,0.6794115878125582
7.779666766435696,0.685323614926352
7.717618685414273,0.6951510655121411
7.656310112835143,0.7088551551121989
7.595983005625053,0.7263817999456763
7.536875447315322,0.7476618303525786
7.479220708434925,0.7726112637748104
7.423246325898283,0.8011316361969665
7.369173205021001,0.8331103907388151
7.317214747707526,0.8684213218658825
7.26757601025131,0.9069250734650409
7.220452894071311,0.9484696888194182
7.1760313725785885,0.9928912103121412
7.13448675722421,1.0400143264921402
7.095983005625051,1.0896530639483566
7.060672074497983,1.141611521261833
7.028693319956134,1.1956846421391147
7.00017294753398,1.251659024675757
6.9752235141117485,1.3093137635561516
6.953943483704846,1.3684213218658825
6.936416838871368,1.4287484290759749
6.922712749271309,1.4900570016551051
6.91288529868552,1.5521050826765257
6.906973271571728,1.6146477967115165
6.904999999999999,1.67743831624083
6.906973271571728,1.7402288357701434
6.91288529868552,1.8027715498051342
6.922712749271309,1.8648196308265548
6.936416838871368,1.9261282034056846
6.953943483704846,1.9864553106157776
6.9752235141117485,2.045562868925508
7.000172947533979,2.1032176078059024
7.028693319956134,2.1591919903425456
7.060672074497983,2.2132651112198265
7.09598300562505,2.265223568533303
7.13448675722421,2.3148623059895197
7.176031372578586,2.3619854221695182
7.220452894071311,2.4064069436622413
7.26757601025131,2.4479515590166194
7.317214747707526,2.486455310615778
7.369173205021001,2.5217662417428452
7.423246325898283,2.5537449962846934
7.479220708434926,2.5822653687068495
7.536875447315322,2.6072148021290813
7.59598300562505,2.6284948325359836
7.656310112835143,2.646021477369461
7.717618685414273,2.659725566969519
7.779666766435693,2.669553017555308
7.842209480470686,2.6754650446691013
7.904999999999998,2.67743831624083
7.967790519529312,2.6754650446691013
8.030333233564303,2.669553017555308
8.092381314585724,2.659725566969519
8.153689887164854,2.646021477369461
8.214016994374946,2.6284948325359836
8.273124552684676,2.6072148021290813
8.330779291565069,2.58226536870685
8.386753674101715,2.5537449962846934
8.440826794978996,2.521766241742845
8.492785252292473,2.486455310615778
8.54242398974869,2.4479515590166194
8.58954710592869,2.4064069436622413
8.633968627421412,2.3619854221695187
8.67551324277579,2.3148623059895197
8.714016994374946,2.2652235685333033
8.749327925502014,2.213265111219827
8.781306680043864,2.159191990342545
8.80982705246602,2.103217607805903
8.83477648588825,2.045562868925508
8.856056516295153,1.9864553106157776
8.87358316112863,1.9261282034056846
8.887287250728688,1.8648196308265548
8.897114701314477,1.8027715498051347
8.903026728428271,1.7402288357701432
8.905,1.6774383162408302"/></g><g stroke-opacity="0.2" fill="none" stroke-width="2.0e-2" stroke="#0d0d0d"><polyline points="7.904999999999998,2.67743831624083
7.90302672842827,2.6146477967115165
7.897114701314477,2.5521050826765257
7.887287250728688,2.490057001655105
7.8735831611286295,2.4287484290759753
7.856056516295151,2.3684213218658825
7.834776485888249,2.309313763556152
7.809827052466018,2.2516590246757575
7.781306680043864,2.1956846421391147
7.749327925502015,2.1416115212618334
7.714016994374947,2.089653063948357
7.675513242775789,2.04001432649214
7.633968627421411,1.9928912103121412
7.589547105928687,1.9484696888194184
7.542423989748688,1.906925073465041
7.492785252292471,1.8684213218658825
7.440826794978996,1.8331103907388149
7.386753674101714,1.8011316361969663
7.330779291565072,1.7726112637748104
7.273124552684676,1.7476618303525786
7.214016994374947,1.7263817999456768
7.1536898871648535,1.7088551551121989
7.092381314585724,1.6951510655121413
7.030333233564304,1.685323614926352
6.967790519529313,1.6794115878125584
6.904999999999999,1.67743831624083
6.842209480470686,1.6794115878125584
6.779666766435695,1.685323614926352
6.7176186854142745,1.6951510655121411
6.656310112835145,1.7088551551121989
6.595983005625052,1.7263817999456768
6.53687544731532,1.7476618303525786
6.4792207084349265,1.7726112637748104
6.423246325898284,1.801131636196967
6.369173205021003,1.833110390738815
6.317214747707527,1.8684213218658825
6.267576010251308,1.9069250734650407
6.220452894071311,1.9484696888194184
6.1760313725785885,1.9928912103121412
6.134486757224209,2.04001432649214
6.095983005625052,2.0896530639483566
6.060672074497985,2.141611521261833
6.028693319956136,2.1956846421391147
6.0001729475339785,2.251659024675757
5.975223514111747,2.309313763556152
5.953943483704846,2.3684213218658825
5.936416838871368,2.4287484290759753
5.9227127492713105,2.4900570016551056
5.912885298685522,2.5521050826765257
5.906973271571728,2.6146477967115165
5.904999999999998,2.67743831624083
5.906973271571728,2.7402288357701434
5.912885298685522,2.802771549805134
5.9227127492713105,2.8648196308265548
5.936416838871368,2.9261282034056846
5.953943483704846,2.986455310615778
5.975223514111747,3.045562868925508
6.0001729475339785,3.1032176078059024
6.028693319956136,3.159191990342545
6.060672074497984,3.2132651112198265
6.095983005625052,3.265223568533303
6.134486757224209,3.3148623059895197
6.176031372578588,3.3619854221695182
6.220452894071311,3.4064069436622413
6.267576010251308,3.4479515590166194
6.317214747707526,3.4864553106157774
6.369173205021003,3.5217662417428452
6.423246325898284,3.5537449962846934
6.479220708434927,3.5822653687068495
6.53687544731532,3.6072148021290813
6.595983005625052,3.6284948325359836
6.656310112835145,3.646021477369461
6.7176186854142745,3.659725566969519
6.779666766435695,3.669553017555308
6.842209480470686,3.6754650446691013
6.904999999999999,3.67743831624083
6.967790519529313,3.6754650446691013
7.030333233564304,3.669553017555308
7.092381314585724,3.659725566969519
7.1536898871648535,3.646021477369461
7.214016994374947,3.6284948325359836
7.273124552684675,3.6072148021290813
7.330779291565071,3.58226536870685
7.386753674101714,3.5537449962846934
7.440826794978996,3.521766241742845
7.492785252292471,3.4864553106157774
7.542423989748687,3.4479515590166194
7.589547105928686,3.4064069436622413
7.633968627421411,3.3619854221695187
7.675513242775789,3.3148623059895197
7.714016994374947,3.2652235685333033
7.749327925502014,3.213265111219827
7.781306680043864,3.159191990342545
7.809827052466018,3.103217607805903
7.834776485888249,3.045562868925508
7.856056516295151,2.9864553106157774
7.8735831611286295,2.9261282034056846
7.887287250728688,2.8648196308265548
7.897114701314477,2.8027715498051347
7.90302672842827,2.7402288357701434
7.904999999999998,2.6774383162408304"/></g><g stroke-opacity="0.5" fill="none" stroke-width="5.0e-2" stroke="#0d0d0d"><polyline points="6.904999999999999,1.67743831624083
6.90611012503803,1.6303318655311871
6.909438035396918,1.5833300029223158
6.914976342283441,1.5365370843032475
6.922712749271309,1.4900570016551056
6.932630079602323,1.4439929523849249
6.944706314323055,1.3984472102016006
6.958914641172453,1.3535208980426807
6.9752235141117485,1.309313763556152
6.993596723364554,1.2659239576357213
7.013993475811629,1.2234478165012832
7.036368485561809,1.1819796478084226
7.060672074497983,1.1416115212618334
7.086850282574976,1.1024330641975513
7.114844987624307,1.0645312625878538
7.144594034399967,1.0279902679106465
7.1760313725785885,0.9928912103121412
7.209087203407686,0.9593120184776414
7.243688134676345,0.9273272466103704
7.279757343664293,0.8970079089025003
7.317214747707526,0.8684213218658825
7.355977182001866,0.8416309548725609
7.3959585842496285,0.8166962892368863
7.437070185739426,0.7936726861521364
7.479220708434925,0.7726112637748108
7.52231656763491,0.7535587837295434
7.566262079754706,0.7365575472866044
7.6109596747676935,0.7216453014424999
7.656310112835143,0.7088551551121989
7.702212704643485,0.6982155056190642
7.748565534959766,0.6897499756456922
7.7952656889089535,0.6834773607856506
7.842209480470686,0.6794115878125582
7.889292682688177,0.6775616837591705
7.936410759078127,0.6779317558750981
7.983459095727845,0.6805209825077019
8.030333233564303,0.685323614926352
8.076929100279408,0.6923289900860561
8.12314324139654,0.7015215543020825
8.16887304996537,0.7128808977830317
8.214016994374946,0.7263817999456763
8.258474843779256,0.7419942854109625
8.30214789063478,0.7596836905568489
8.344939169855914,0.7794107404802144
8.386753674101715,0.8011316361969665
8.427498564715947,0.8247981518867373
8.46708337785213,0.8503577419662682
8.505420225325883,0.8777536577537393
8.54242398974869,0.9069250734650405
8.578012513509773,0.9378072212622204
8.612106781186547,0.970331535054282
8.644631094978608,1.0044258027310562
8.67551324277579,1.0400143264921402
8.704684658487091,1.077018090914946
8.732080574274558,1.1153549383886991
8.757640164354092,1.1549397515248812
8.781306680043864,1.1956846421391147
8.803027575760614,1.2374991463849145
8.82275462568398,1.2802904256060494
8.840444030829866,1.323963472461573
8.856056516295153,1.3684213218658825
8.869557418457797,1.4135652662754574
8.880916761938748,1.4592950748442868
8.890109326154773,1.5055092159614203
8.897114701314477,1.5521050826765261
8.901917333733127,1.5989792205129842
8.90450656036573,1.6460275571627014
8.90487663248166,1.6931456335526511
8.903026728428271,1.7402288357701428
8.898960955455179,1.7871726273318753
8.892688340595138,1.8338727812810616
8.884222810621766,1.880225611597342
8.87358316112863,1.9261282034056848
8.86079301479833,1.9714786414731347
8.845880768954226,2.016176236486121
8.828879532511285,2.06012174860592
8.80982705246602,2.1032176078059015
8.788765630088692,2.145368130501403
8.765742027003943,2.1864797319912013
8.74080736136827,2.226461134238961
8.714016994374946,2.265223568533303
8.685430407338329,2.3026809725765354
8.65511106963046,2.3387501815644813
8.623126297763188,2.373351112833144
8.589547105928688,2.4064069436622417
8.554448048330183,2.437844281840861
8.517907053652976,2.46759332861652
8.480005252043279,2.495588033665853
8.440826794978996,2.5217662417428452
8.400458668432407,2.5460698306790213
8.358990499739546,2.5684448404291977
8.316514358605108,2.5888415928762756
8.273124552684678,2.6072148021290813
8.228917418198147,2.623523675068375
8.18399110603923,2.637732001917773
8.138445363855904,2.6498082366385067
8.092381314585724,2.6597255669695183
8.045901231937583,2.6674619739573875
7.999108313318512,2.67300028084391
7.952106450709641,2.6763281912028
7.904999999999998,2.67743831624083"/></g><g fill-opacity="0.3" stroke-opacity="0.5" fill="#0d0d0d" stroke-width="1.0e-2" stroke="#0d0d0d"><path d="M 7.9050,1.6774 L 6.9050,1.6774 A 1.0 1.0 -0.0 1 1 7.9050,2.6774 L 7.9050,1.6774"/></g><g stroke-opacity="0.2" fill="none" stroke-width="2.0e-2" stroke="#0d0d0d"><polyline points="8.91987663248166,-1.3774383162408301
8.917903360909932,-1.4402288357701436
8.911991333796138,-1.5027715498051353
8.90216388321035,-1.564819630826555
8.888459793610291,-1.6261282034056852
8.870933148776814,-1.6864553106157785
8.849653118369911,-1.7455628689255085
8.82470368494768,-1.803217607805903
8.796183312525523,-1.8591919903425462
8.764204557983675,-1.9132651112198267
8.728893626856609,-1.9652235685333035
8.69038987525745,-2.0148623059895203
8.648845259903071,-2.0619854221695193
8.604423738410347,-2.106406943662242
8.557300622230349,-2.14795155901662
8.507661884774134,-2.1864553106157785
8.455703427460657,-2.2217662417428454
8.401630306583375,-2.2537449962846945
8.345655924046733,-2.28226536870685
8.288001185166339,-2.307214802129082
8.228893626856607,-2.3284948325359838
8.168566519646514,-2.346021477369461
8.107257947067385,-2.359725566969519
8.045209866045964,-2.3695530175553086
7.982667152010974,-2.375465044669102
7.91987663248166,-2.37743831624083
7.857086112952347,-2.375465044669102
7.794543398917356,-2.3695530175553086
7.7324953178959355,-2.359725566969519
7.6711867453168034,-2.346021477369461
7.610859638106713,-2.3284948325359838
7.55175207979698,-2.307214802129082
7.494097340916587,-2.28226536870685
7.438122958379942,-2.2537449962846945
7.384049837502664,-2.2217662417428454
7.332091380189185,-2.1864553106157785
7.282452642732968,-2.14795155901662
7.235329526552969,-2.106406943662242
7.1909080050602485,-2.0619854221695193
7.14936338970587,-2.0148623059895203
7.110859638106713,-1.9652235685333035
7.075548706979645,-1.9132651112198276
7.043569952437796,-1.8591919903425462
7.0150495800156385,-1.803217607805903
6.9901001465934085,-1.7455628689255085
6.968820116186505,-1.6864553106157785
6.951293471353029,-1.6261282034056852
6.9375893817529715,-1.564819630826555
6.927761931167183,-1.5027715498051344
6.9218499040533885,-1.4402288357701436
6.9198766324816585,-1.377438316240831
6.9218499040533885,-1.3146477967115167
6.927761931167183,-1.2521050826765268
6.9375893817529715,-1.1900570016551053
6.951293471353029,-1.128748429075976
6.968820116186505,-1.0684213218658827
6.9901001465934085,-1.0093137635561527
7.0150495800156385,-0.9516590246757581
7.043569952437797,-0.8956846421391149
7.075548706979645,-0.8416115212618336
7.110859638106713,-0.7896530639483577
7.14936338970587,-0.7400143264921408
7.1909080050602485,-0.6928912103121418
7.23532952655297,-0.6484696888194192
7.282452642732968,-0.6069250734650411
7.332091380189185,-0.5684213218658836
7.384049837502664,-0.5331103907388157
7.438122958379942,-0.5011316361969658
7.494097340916587,-0.472611263774811
7.55175207979698,-0.4476618303525792
7.610859638106712,-0.4263817999456756
7.671186745316806,-0.40885515511219905
7.7324953178959355,-0.3951510655121413
7.794543398917355,-0.3853236149263526
7.857086112952347,-0.37941158781255924
7.91987663248166,-0.37743831624083013
7.982667152010971,-0.37941158781255924
8.045209866045964,-0.3853236149263526
8.107257947067383,-0.3951510655121413
8.168566519646514,-0.40885515511219905
8.228893626856607,-0.4263817999456756
8.288001185166337,-0.4476618303525792
8.345655924046731,-0.4726112637748101
8.401630306583375,-0.5011316361969658
8.455703427460657,-0.5331103907388157
8.507661884774132,-0.5684213218658836
8.557300622230349,-0.6069250734650411
8.604423738410347,-0.6484696888194192
8.648845259903071,-0.6928912103121418
8.69038987525745,-0.7400143264921408
8.728893626856609,-0.7896530639483568
8.764204557983675,-0.8416115212618336
8.796183312525523,-0.8956846421391158
8.82470368494768,-0.9516590246757572
8.849653118369911,-1.0093137635561527
8.870933148776814,-1.0684213218658827
8.888459793610291,-1.128748429075976
8.90216388321035,-1.1900570016551053
8.911991333796138,-1.2521050826765259
8.917903360909932,-1.3146477967115175
8.91987663248166,-1.3774383162408301"/></g><g stroke-opacity="0.2" fill="none" stroke-width="2.0e-2" stroke="#0d0d0d"><polyline points="7.91987663248166,-0.37743831624083013
7.917903360909932,-0.4402288357701436
7.911991333796136,-0.5027715498051353
7.902163883210347,-0.564819630826555
7.888459793610291,-0.6261282034056852
7.870933148776814,-0.6864553106157785
7.849653118369911,-0.7455628689255085
7.824703684947679,-0.803217607805903
7.796183312525522,-0.8591919903425462
7.764204557983673,-0.9132651112198267
7.728893626856606,-0.9652235685333035
7.690389875257449,-1.0148623059895203
7.64884525990307,-1.0619854221695193
7.604423738410349,-1.106406943662242
7.55730062223035,-1.14795155901662
7.507661884774134,-1.1864553106157785
7.455703427460655,-1.2217662417428454
7.401630306583374,-1.2537449962846945
7.345655924046731,-1.2822653687068502
7.288001185166339,-1.307214802129082
7.228893626856607,-1.3284948325359838
7.168566519646513,-1.3460214773694612
7.107257947067383,-1.359725566969519
7.045209866045964,-1.3695530175553086
6.982667152010974,-1.375465044669102
6.9198766324816585,-1.3774383162408301
6.857086112952347,-1.375465044669102
6.794543398917354,-1.3695530175553086
6.732495317895934,-1.359725566969519
6.671186745316805,-1.3460214773694612
6.610859638106711,-1.3284948325359838
6.551752079796982,-1.307214802129082
6.494097340916586,-1.2822653687068502
6.438122958379944,-1.2537449962846945
6.384049837502662,-1.2217662417428454
6.332091380189187,-1.1864553106157785
6.28245264273297,-1.14795155901662
6.235329526552971,-1.106406943662242
6.190908005060247,-1.0619854221695193
6.149363389705871,-1.0148623059895203
6.110859638106711,-0.9652235685333035
6.075548706979644,-0.9132651112198276
6.043569952437795,-0.8591919903425462
6.01504958001564,-0.803217607805903
5.9901001465934085,-0.7455628689255085
5.968820116186507,-0.6864553106157785
5.951293471353029,-0.6261282034056852
5.93758938175297,-0.564819630826555
5.92776193116718,-0.5027715498051353
5.9218499040533885,-0.4402288357701436
5.91987663248166,-0.37743831624083013
5.9218499040533885,-0.3146477967115171
5.92776193116718,-0.2521050826765263
5.93758938175297,-0.19005700165510575
5.951293471353029,-0.12874842907597595
5.968820116186507,-6.842132186588268e-2
5.9901001465934085,-9.313763556152654e-3
6.01504958001564,4.8340975324241864e-2
6.043569952437795,0.10431535786088464
6.075548706979644,0.15838847873816597
6.110859638106711,0.21034693605164234
6.14936338970587,0.25998567350785917
6.190908005060247,0.3071087896878577
6.235329526552971,0.35153031118058076
6.28245264273297,0.3930749265349589
6.332091380189187,0.4315786781341169
6.384049837502662,0.4668896092611847
6.438122958379945,0.4988683638030329
6.494097340916586,0.527388736225189
6.551752079796982,0.5523381696474208
6.610859638106711,0.5736182000543231
6.671186745316805,0.5911448448878005
6.732495317895934,0.6048489344878583
6.794543398917353,0.6146763850736474
6.857086112952347,0.6205884121874408
6.9198766324816585,0.6225616837591694
6.982667152010973,0.6205884121874408
7.045209866045964,0.6146763850736474
7.1072579470673825,0.6048489344878583
7.168566519646513,0.5911448448878005
7.228893626856607,0.5736182000543231
7.288001185166338,0.5523381696474208
7.3456559240467305,0.5273887362251894
7.401630306583374,0.4988683638030329
7.455703427460655,0.4668896092611843
7.507661884774131,0.4315786781341169
7.55730062223035,0.3930749265349589
7.604423738410349,0.35153031118058076
7.64884525990307,0.30710878968785815
7.690389875257449,0.25998567350785917
7.728893626856605,0.21034693605164279
7.764204557983673,0.15838847873816642
7.796183312525522,0.10431535786088464
7.824703684947679,4.834097532424231e-2
7.849653118369911,-9.313763556152654e-3
7.870933148776814,-6.842132186588312e-2
7.888459793610291,-0.12874842907597595
7.902163883210347,-0.19005700165510575
7.911991333796136,-0.25210508267652587
7.917903360909932,-0.3146477967115171
7.91987663248166,-0.37743831624083013"/></g><g stroke-opacity="0.5" fill="none" stroke-width="5.0e-2" stroke="#0d0d0d"><polyline points="6.9198766324816585,-1.3774383162408301
6.872770181772015,-1.3763281912028007
6.825768319163144,-1.3730002808439106
6.778975400544077,-1.3674619739573877
6.732495317895934,-1.359725566969519
6.686431268625753,-1.349808236638507
6.640885526442429,-1.3377320019177739
6.595959214283511,-1.3235236750683756
6.551752079796982,-1.307214802129082
6.508362273876552,-1.2888415928762753
6.4658861327421135,-1.2684448404291984
6.424417964049251,-1.2460698306790223
6.384049837502662,-1.2217662417428463
6.344871380438382,-1.1955880336658544
6.306969578828682,-1.1675933286165212
6.270428584151476,-1.1378442818408616
6.235329526552971,-1.106406943662242
6.201750334718471,-1.0733511128331448
6.1697655628512,-1.0387501815644824
6.139446225143328,-1.002680972576536
6.110859638106711,-0.9652235685333035
6.08406927111339,-0.9264611342389624
6.059134605477714,-0.8864797319912019
6.036111002392965,-0.8453681305014036
6.01504958001564,-0.803217607805903
5.995997099970373,-0.7601217486059206
5.978995863527435,-0.7161762364861217
5.964083617683329,-0.6714786414731342
5.951293471353029,-0.6261282034056852
5.940653821859894,-0.5802256115973434
5.93218829188652,-0.5338727812810613
5.925915677026481,-0.48717262733187594
5.9218499040533885,-0.4402288357701436
5.919999999999999,-0.3931456335526513
5.920370072115927,-0.3460275571627025
5.92295929874853,-0.2989792205129853
5.92776193116718,-0.2521050826765263
5.934767306326886,-0.20550921596142135
5.943959870542911,-0.1592950748442883
5.95531921402386,-0.1135652662754576
5.968820116186507,-6.842132186588312e-2
5.9844326016517915,-2.39634724615736e-2
6.002122006797679,1.970957439395038e-2
6.021849056721044,6.25008536150844e-2
6.043569952437795,0.10431535786088464
6.067236468127568,0.14506024847511823
6.092796058207097,0.18464506161130112
6.12019197399457,0.22298190908505333
6.14936338970587,0.25998567350785917
6.180245537503049,0.29557419726894274
6.212769851295112,0.3296684649457169
6.246864118971887,0.362192778737779
6.28245264273297,0.3930749265349589
6.319456407155776,0.4222463422462597
6.357793254629527,0.44964225803373115
6.397378067765709,0.47520184811326205
6.438122958379945,0.4988683638030329
6.4799374626257435,0.520589259519785
6.522728741846878,0.5403163094431505
6.566401788702401,0.5580057145890369
6.610859638106711,0.5736182000543231
6.656003582516288,0.5871191022169677
6.701733391085117,0.5984784456979164
6.747947532202249,0.6076710099139433
6.794543398917354,0.6146763850736474
6.841417536753815,0.6194790174922975
6.88846587340353,0.6220682441249008
6.93558394979348,0.6224383162408302
6.982667152010973,0.6205884121874408
7.029610943572705,0.6165226392143492
7.07631109752189,0.6102500243543072
7.12266392783817,0.6017844943809352
7.168566519646513,0.5911448448878005
7.213916957713963,0.5783546985574994
7.25861455272695,0.563442452713395
7.30256006484675,0.5464412162704559
7.3456559240467305,0.5273887362251894
7.387806446742234,0.506327313847863
7.428918048232031,0.48330371076311307
7.468899450479789,0.45836904512744026
7.507661884774131,0.4315786781341169
7.545119288817364,0.4029920910974991
7.581188497805309,0.37267275338962946
7.615789429073974,0.34068798152235846
7.64884525990307,0.3071087896878577
7.680282598081689,0.27200973208935286
7.710031644857349,0.23546873741214602
7.738026349906683,0.1975669358024481
7.764204557983674,0.15838847873816553
7.788508146919852,0.1180203521915768
7.810883156670026,7.655218349871662e-2
7.8312799091171055,3.407604236427764e-2
7.849653118369911,-9.313763556152654e-3
7.865961991309204,-5.35208980426809e-2
7.880170318158601,-9.844721020160074e-2
7.892246552879336,-0.1439929523849255
7.902163883210347,-0.19005700165510575
7.909900290198216,-0.2365370843032477
7.915438597084738,-0.28333000292231647
7.91876650744363,-0.33033186553118776
7.91987663248166,-0.37743831624083013"/></g><g fill-opacity="0.3" stroke-opacity="0.5" fill="#0d0d0d" stroke-width="1.0e-2" stroke="#0d0d0d"><path d="M 7.9199,-1.3774 L 6.9199,-1.3774 A 1.0 1.0 -0.0 1 0 7.9199,-0.3774 L 7.9199,-1.3774"/></g><g></g><g text-anchor="middle" fill-opacity="1.0" fill="#0d0d0d" stroke-width="0.0" stroke="none" font-size="0.4"><text y="-3.3174383162408296" x="7.394999999999998">True</text></g><g></g><g text-anchor="middle" fill-opacity="1.0" fill="#0d0d0d" stroke-width="0.0" stroke="none" font-size="0.6"><text y="-4.39487663248166" x="5.499999999999998">Large</text></g></svg>