<svg xmlns="http://www.w3.org/2000/svg" xmlns:xlink="http://www.w3.org/1999/xlink" width="316" height="300" viewBox="0 -4.8549 9.0 8.5323"><style>svg {
  color-scheme: light dark;
}
{
  .canvas g, .title g, .axisbar g, .ticktext g, .tickglyph g, .ticklines g, .legendContent g text {
    fill: rgb(5%, 5%, 5%);
  }
  .ticklines g, .tickglyph g, .legendBorder g {
    stroke: rgb(5%, 5%, 5%);
  }
  .legendBorder g {
    fill: rgb(94%, 94%, 94%);
  }
}
@media (prefers-color-scheme:dark) {
  .canvas g, .title g, .axisbar g, .ticktext g, .tickglyph g, .ticklines g, .legendContent g text {
    fill: rgb(94%, 94%, 94%);
  }
  .ticklines g, .tickglyph g, .legendBorder g {
    stroke: rgb(94%, 94%, 94%);
  }
  .legendBorder g {
    fill: rgb(5%, 5%, 5%);
  }
}
svg { font-family: system-ui,-apple-system,"Segoe UI",Roboto,"Helvetica Neue",Arial,"Noto Sans","Liberation Sans",sans-serif,"Apple Color Emoji","Segoe UI Emoji","Segoe UI Symbol","Noto Color Emoji";
}

ticktext { font-family: SFMono-Regular,Menlo,Monaco,Consolas,"Liberation Mono","Courier New",monospace;
}


{
  .chart g {
    stroke: rgba(5%, 5%, 5%, 1.00);
  }
  .chart g text {
    fill: rgba(5%, 5%, 5%, 1.00);
  }
}
@media (prefers-color-scheme:dark) {
  .chart g {
    stroke: rgba(94%, 94%, 94%, 1.00);
  }
  .chart g text {
    fill: rgba(94%, 94%, 94%, 1.00);
  }
}
</style><g class="chart"><g stroke-width="0.0" stroke="none" fill="rgb(5%, 5%, 5%)" fill-opacity="1.0" font-size="0.6" text-anchor="middle"><text x="0.5" y="0" transform="rotate(-90.0, 0.5, 0)">Sweep</text></g><g stroke-width="0.0" stroke="none" fill="rgb(5%, 5%, 5%)" fill-opacity="1.0" font-size="0.4" text-anchor="middle"><text x="1.7500" y="1.5100" transform="rotate(-90.0, 1.7500, 1.5100)">True</text></g><g stroke-width="0.0" stroke="none" fill="rgb(5%, 5%, 5%)" fill-opacity="1.0" font-size="0.4" text-anchor="middle"><text x="1.7500" y="-1.5100" transform="rotate(-90.0, 1.7500, -1.5100)">False</text></g><g stroke-width="0.0200" stroke="rgb(5%, 5%, 5%)" stroke-opacity="0.2" fill="none"><polyline points="5.5000,1.6600 5.4980,1.5972 5.4921,1.5347 5.4823,1.4726 5.4686,1.4113 5.4511,1.3510 5.4298,1.2919 5.4048,1.2342 5.3763,1.1782 5.3443,1.1242 5.3090,1.0722 5.2705,1.0226 5.2290,0.9755 5.1845,0.9310 5.1374,0.8895 5.0878,0.8510 5.0358,0.8157 4.9818,0.7837 4.9258,0.7552 4.8681,0.7302 4.8090,0.7089 4.7487,0.6914 4.6874,0.6777 4.6253,0.6679 4.5628,0.6620 4.5,0.6600 4.4372,0.6620 4.3747,0.6679 4.3126,0.6777 4.2513,0.6914 4.1910,0.7089 4.1319,0.7302 4.0742,0.7552 4.0182,0.7837 3.9642,0.8157 3.9122,0.8510 3.8626,0.8895 3.8155,0.9310 3.7710,0.9755 3.7295,1.0226 3.6910,1.0722 3.6557,1.1242 3.6237,1.1782 3.5952,1.2342 3.5702,1.2919 3.5489,1.3510 3.5314,1.4113 3.5177,1.4726 3.5079,1.5347 3.5020,1.5972 3.5000,1.6600 3.5020,1.7228 3.5079,1.7853 3.5177,1.8474 3.5314,1.9087 3.5489,1.9690 3.5702,2.0281 3.5952,2.0858 3.6237,2.1418 3.6557,2.1958 3.6910,2.2478 3.7295,2.2974 3.7710,2.3445 3.8155,2.3890 3.8626,2.4305 3.9122,2.4690 3.9642,2.5043 4.0182,2.5363 4.0742,2.5648 4.1319,2.5898 4.1910,2.6111 4.2513,2.6286 4.3126,2.6423 4.3747,2.6521 4.4372,2.6580 4.5,2.6600 4.5628,2.6580 4.6253,2.6521 4.6874,2.6423 4.7487,2.6286 4.8090,2.6111 4.8681,2.5898 4.9258,2.5648 4.9818,2.5363 5.0358,2.5043 5.0878,2.4690 5.1374,2.4305 5.1845,2.3890 5.2290,2.3445 5.2705,2.2974 5.3090,2.2478 5.3443,2.1958 5.3763,2.1418 5.4048,2.0858 5.4298,2.0281 5.4511,1.9690 5.4686,1.9087 5.4823,1.8474 5.4921,1.7853 5.4980,1.7228 5.5000,1.6600"/></g><g stroke-width="0.0200" stroke="rgb(5%, 5%, 5%)" stroke-opacity="0.2" fill="none"><polyline points="4.5,2.6600 4.4980,2.5972 4.4921,2.5347 4.4823,2.4726 4.4686,2.4113 4.4511,2.3510 4.4298,2.2919 4.4048,2.2342 4.3763,2.1782 4.3443,2.1242 4.3090,2.0722 4.2705,2.0226 4.2290,1.9755 4.1845,1.9310 4.1374,1.8895 4.0878,1.8510 4.0358,1.8157 3.9818,1.7837 3.9258,1.7552 3.8681,1.7302 3.8090,1.7089 3.7487,1.6914 3.6874,1.6777 3.6253,1.6679 3.5628,1.6620 3.5000,1.6600 3.4372,1.6620 3.3747,1.6679 3.3126,1.6777 3.2513,1.6914 3.1910,1.7089 3.1319,1.7302 3.0742,1.7552 3.0182,1.7837 2.9642,1.8157 2.9122,1.8510 2.8626,1.8895 2.8155,1.9310 2.7710,1.9755 2.7295,2.0226 2.6910,2.0722 2.6557,2.1242 2.6237,2.1782 2.5952,2.2342 2.5702,2.2919 2.5489,2.3510 2.5314,2.4113 2.5177,2.4726 2.5079,2.5347 2.5020,2.5972 2.5,2.6600 2.5020,2.7228 2.5079,2.7853 2.5177,2.8474 2.5314,2.9087 2.5489,2.9690 2.5702,3.0281 2.5952,3.0858 2.6237,3.1418 2.6557,3.1958 2.6910,3.2478 2.7295,3.2974 2.7710,3.3445 2.8155,3.3890 2.8626,3.4305 2.9122,3.4690 2.9642,3.5043 3.0182,3.5363 3.0742,3.5648 3.1319,3.5898 3.1910,3.6111 3.2513,3.6286 3.3126,3.6423 3.3747,3.6521 3.4372,3.6580 3.5000,3.6600 3.5628,3.6580 3.6253,3.6521 3.6874,3.6423 3.7487,3.6286 3.8090,3.6111 3.8681,3.5898 3.9258,3.5648 3.9818,3.5363 4.0358,3.5043 4.0878,3.4690 4.1374,3.4305 4.1845,3.3890 4.2290,3.3445 4.2705,3.2974 4.3090,3.2478 4.3443,3.1958 4.3763,3.1418 4.4048,3.0858 4.4298,3.0281 4.4511,2.9690 4.4686,2.9087 4.4823,2.8474 4.4921,2.7853 4.4980,2.7228 4.5,2.6600"/></g><g stroke-width="0.0500" stroke="rgb(5%, 5%, 5%)" stroke-opacity="0.5" fill="none"><polyline points="3.5000,1.6600 3.5157,1.6601 3.5314,1.6605 3.5471,1.6611 3.5628,1.6620 3.5785,1.6631 3.5941,1.6644 3.6097,1.6660 3.6253,1.6679 3.6409,1.6700 3.6564,1.6723 3.6719,1.6749 3.6874,1.6777 3.7028,1.6808 3.7181,1.6841 3.7334,1.6876 3.7487,1.6914 3.7639,1.6954 3.7790,1.6997 3.7940,1.7042 3.8090,1.7089 3.8239,1.7139 3.8387,1.7191 3.8535,1.7246 3.8681,1.7302 3.8827,1.7361 3.8971,1.7422 3.9115,1.7486 3.9258,1.7552 3.9399,1.7620 3.9540,1.7690 3.9679,1.7762 3.9818,1.7837 3.9955,1.7914 4.0090,1.7993 4.0225,1.8074 4.0358,1.8157 4.0490,1.8242 4.0621,1.8329 4.0750,1.8419 4.0878,1.8510 4.1004,1.8603 4.1129,1.8698 4.1252,1.8796 4.1374,1.8895 4.1494,1.8996 4.1613,1.9099 4.1730,1.9204 4.1845,1.9310 4.1959,1.9419 4.2071,1.9529 4.2181,1.9641 4.2290,1.9755 4.2396,1.9870 4.2501,1.9987 4.2604,2.0106 4.2705,2.0226 4.2804,2.0348 4.2902,2.0471 4.2997,2.0596 4.3090,2.0722 4.3181,2.0850 4.3271,2.0979 4.3358,2.1110 4.3443,2.1242 4.3526,2.1375 4.3607,2.1510 4.3686,2.1645 4.3763,2.1782 4.3838,2.1921 4.3910,2.2060 4.3980,2.2201 4.4048,2.2342 4.4114,2.2485 4.4178,2.2629 4.4239,2.2773 4.4298,2.2919 4.4354,2.3065 4.4409,2.3213 4.4461,2.3361 4.4511,2.3510 4.4558,2.3660 4.4603,2.3810 4.4646,2.3961 4.4686,2.4113 4.4724,2.4266 4.4759,2.4419 4.4792,2.4572 4.4823,2.4726 4.4851,2.4881 4.4877,2.5036 4.4900,2.5191 4.4921,2.5347 4.4940,2.5503 4.4956,2.5659 4.4969,2.5815 4.4980,2.5972 4.4989,2.6129 4.4995,2.6286 4.4999,2.6443 4.5,2.6600"/></g><g stroke-width="0.0100" stroke="rgb(5%, 5%, 5%)" stroke-opacity="0.5" fill="rgb(5%, 5%, 5%)" fill-opacity="0.3"><path d="M 4.5,1.6600 L 3.5000,1.6600 A 1.0 1.0 0 0 1 4.5,2.6600 L 4.5,1.6600"/></g><g stroke-width="0.0200" stroke="rgb(5%, 5%, 5%)" stroke-opacity="0.2" fill="none"><polyline points="5.5000,-1.38 5.4980,-1.4428 5.4921,-1.5053 5.4823,-1.5674 5.4686,-1.6287 5.4511,-1.6890 5.4298,-1.7481 5.4048,-1.8058 5.3763,-1.8618 5.3443,-1.9158 5.3090,-1.9678 5.2705,-2.0174 5.2290,-2.0645 5.1845,-2.1090 5.1374,-2.1505 5.0878,-2.1890 5.0358,-2.2243 4.9818,-2.2563 4.9258,-2.2848 4.8681,-2.3098 4.8090,-2.3311 4.7487,-2.3486 4.6874,-2.3623 4.6253,-2.3721 4.5628,-2.3780 4.5,-2.38 4.4372,-2.3780 4.3747,-2.3721 4.3126,-2.3623 4.2513,-2.3486 4.1910,-2.3311 4.1319,-2.3098 4.0742,-2.2848 4.0182,-2.2563 3.9642,-2.2243 3.9122,-2.1890 3.8626,-2.1505 3.8155,-2.1090 3.7710,-2.0645 3.7295,-2.0174 3.6910,-1.9678 3.6557,-1.9158 3.6237,-1.8618 3.5952,-1.8058 3.5702,-1.7481 3.5489,-1.6890 3.5314,-1.6287 3.5177,-1.5674 3.5079,-1.5053 3.5020,-1.4428 3.5000,-1.3800 3.5020,-1.3172 3.5079,-1.2547 3.5177,-1.1926 3.5314,-1.1313 3.5489,-1.0710 3.5702,-1.0119 3.5952,-0.9542 3.6237,-0.8982 3.6557,-0.8442 3.6910,-0.7922 3.7295,-0.7426 3.7710,-0.6955 3.8155,-0.6510 3.8626,-0.6095 3.9122,-0.5710 3.9642,-0.5357 4.0182,-0.5037 4.0742,-0.4752 4.1319,-0.4502 4.1910,-0.4289 4.2513,-0.4114 4.3126,-0.3977 4.3747,-0.3879 4.4372,-0.3820 4.5,-0.3800 4.5628,-0.3820 4.6253,-0.3879 4.6874,-0.3977 4.7487,-0.4114 4.8090,-0.4289 4.8681,-0.4502 4.9258,-0.4752 4.9818,-0.5037 5.0358,-0.5357 5.0878,-0.5710 5.1374,-0.6095 5.1845,-0.6510 5.2290,-0.6955 5.2705,-0.7426 5.3090,-0.7922 5.3443,-0.8442 5.3763,-0.8982 5.4048,-0.9542 5.4298,-1.0119 5.4511,-1.0710 5.4686,-1.1313 5.4823,-1.1926 5.4921,-1.2547 5.4980,-1.3172 5.5000,-1.38"/></g><g stroke-width="0.0200" stroke="rgb(5%, 5%, 5%)" stroke-opacity="0.2" fill="none"><polyline points="4.5,-0.3800 4.4980,-0.4428 4.4921,-0.5053 4.4823,-0.5674 4.4686,-0.6287 4.4511,-0.6890 4.4298,-0.7481 4.4048,-0.8058 4.3763,-0.8618 4.3443,-0.9158 4.3090,-0.9678 4.2705,-1.0174 4.2290,-1.0645 4.1845,-1.1090 4.1374,-1.1505 4.0878,-1.1890 4.0358,-1.2243 3.9818,-1.2563 3.9258,-1.2848 3.8681,-1.3098 3.8090,-1.3311 3.7487,-1.3486 3.6874,-1.3623 3.6253,-1.3721 3.5628,-1.3780 3.5000,-1.38 3.4372,-1.3780 3.3747,-1.3721 3.3126,-1.3623 3.2513,-1.3486 3.1910,-1.3311 3.1319,-1.3098 3.0742,-1.2848 3.0182,-1.2563 2.9642,-1.2243 2.9122,-1.1890 2.8626,-1.1505 2.8155,-1.1090 2.7710,-1.0645 2.7295,-1.0174 2.6910,-0.9678 2.6557,-0.9158 2.6237,-0.8618 2.5952,-0.8058 2.5702,-0.7481 2.5489,-0.6890 2.5314,-0.6287 2.5177,-0.5674 2.5079,-0.5053 2.5020,-0.4428 2.5,-0.3800 2.5020,-0.3172 2.5079,-0.2547 2.5177,-0.1926 2.5314,-0.1313 2.5489,-0.0710 2.5702,-0.0119 2.5952,0.0458 2.6237,0.1018 2.6557,0.1558 2.6910,0.2078 2.7295,0.2574 2.7710,0.3045 2.8155,0.3490 2.8626,0.3905 2.9122,0.4290 2.9642,0.4643 3.0182,0.4963 3.0742,0.5248 3.1319,0.5498 3.1910,0.5711 3.2513,0.5886 3.3126,0.6023 3.3747,0.6121 3.4372,0.6180 3.5000,0.6200 3.5628,0.6180 3.6253,0.6121 3.6874,0.6023 3.7487,0.5886 3.8090,0.5711 3.8681,0.5498 3.9258,0.5248 3.9818,0.4963 4.0358,0.4643 4.0878,0.4290 4.1374,0.3905 4.1845,0.3490 4.2290,0.3045 4.2705,0.2574 4.3090,0.2078 4.3443,0.1558 4.3763,0.1018 4.4048,0.0458 4.4298,-0.0119 4.4511,-0.0710 4.4686,-0.1313 4.4823,-0.1926 4.4921,-0.2547 4.4980,-0.3172 4.5,-0.3800"/></g><g stroke-width="0.0500" stroke="rgb(5%, 5%, 5%)" stroke-opacity="0.5" fill="none"><polyline points="3.5000,-1.38 3.5001,-1.3643 3.5005,-1.3486 3.5011,-1.3329 3.5020,-1.3172 3.5031,-1.3015 3.5044,-1.2859 3.5060,-1.2703 3.5079,-1.2547 3.5100,-1.2391 3.5123,-1.2236 3.5149,-1.2081 3.5177,-1.1926 3.5208,-1.1772 3.5241,-1.1619 3.5276,-1.1466 3.5314,-1.1313 3.5354,-1.1161 3.5397,-1.1010 3.5442,-1.0860 3.5489,-1.0710 3.5539,-1.0561 3.5591,-1.0413 3.5646,-1.0265 3.5702,-1.0119 3.5761,-0.9973 3.5822,-0.9829 3.5886,-0.9685 3.5952,-0.9542 3.6020,-0.9401 3.6090,-0.9260 3.6162,-0.9121 3.6237,-0.8982 3.6314,-0.8845 3.6393,-0.8710 3.6474,-0.8575 3.6557,-0.8442 3.6642,-0.8310 3.6729,-0.8179 3.6819,-0.8050 3.6910,-0.7922 3.7003,-0.7796 3.7098,-0.7671 3.7196,-0.7548 3.7295,-0.7426 3.7396,-0.7306 3.7499,-0.7187 3.7604,-0.7070 3.7710,-0.6955 3.7819,-0.6841 3.7929,-0.6729 3.8041,-0.6619 3.8155,-0.6510 3.8270,-0.6404 3.8387,-0.6299 3.8506,-0.6196 3.8626,-0.6095 3.8748,-0.5996 3.8871,-0.5898 3.8996,-0.5803 3.9122,-0.5710 3.9250,-0.5619 3.9379,-0.5529 3.9510,-0.5442 3.9642,-0.5357 3.9775,-0.5274 3.9910,-0.5193 4.0045,-0.5114 4.0182,-0.5037 4.0321,-0.4962 4.0460,-0.4890 4.0601,-0.4820 4.0742,-0.4752 4.0885,-0.4686 4.1029,-0.4622 4.1173,-0.4561 4.1319,-0.4502 4.1465,-0.4446 4.1613,-0.4391 4.1761,-0.4339 4.1910,-0.4289 4.2060,-0.4242 4.2210,-0.4197 4.2361,-0.4154 4.2513,-0.4114 4.2666,-0.4076 4.2819,-0.4041 4.2972,-0.4008 4.3126,-0.3977 4.3281,-0.3949 4.3436,-0.3923 4.3591,-0.3900 4.3747,-0.3879 4.3903,-0.3860 4.4059,-0.3844 4.4215,-0.3831 4.4372,-0.3820 4.4529,-0.3811 4.4686,-0.3805 4.4843,-0.3801 4.5,-0.3800"/></g><g stroke-width="0.0100" stroke="rgb(5%, 5%, 5%)" stroke-opacity="0.5" fill="rgb(5%, 5%, 5%)" fill-opacity="0.3"><path d="M 4.5,-1.38 L 3.5000,-1.38 A 1.0 1.0 0 0 0 4.5,-0.3800 L 4.5,-1.38"/></g><g stroke-width="0.0" stroke="none" fill="rgb(5%, 5%, 5%)" fill-opacity="1.0" font-size="0.4" text-anchor="middle"><text x="3.99" y="-3.3200">False</text></g><g stroke-width="0.0200" stroke="rgb(5%, 5%, 5%)" stroke-opacity="0.2" fill="none"><polyline points="8.9400,1.6674 8.9380,1.6046 8.9321,1.5421 8.9223,1.4801 8.9086,1.4187 8.8911,1.3584 8.8698,1.2993 8.8448,1.2417 8.8163,1.1857 8.7843,1.1316 8.7490,1.0797 8.7105,1.0300 8.6690,0.9829 8.6245,0.9385 8.5774,0.8969 8.5278,0.8584 8.4758,0.8231 8.4218,0.7911 8.3658,0.7626 8.3081,0.7377 8.2490,0.7164 8.1887,0.6989 8.1274,0.6852 8.0653,0.6753 8.0028,0.6694 7.9400,0.6674 7.8772,0.6694 7.8147,0.6753 7.7526,0.6852 7.6913,0.6989 7.6310,0.7164 7.5719,0.7377 7.5142,0.7626 7.4582,0.7911 7.4042,0.8231 7.3522,0.8584 7.3026,0.8969 7.2555,0.9385 7.2110,0.9829 7.1695,1.0300 7.1310,1.0797 7.0957,1.1316 7.0637,1.1857 7.0352,1.2417 7.0102,1.2993 6.9889,1.3584 6.9714,1.4187 6.9577,1.4801 6.9479,1.5421 6.9420,1.6046 6.9400,1.6674 6.9420,1.7302 6.9479,1.7928 6.9577,1.8548 6.9714,1.9161 6.9889,1.9765 7.0102,2.0356 7.0352,2.0932 7.0637,2.1492 7.0957,2.2033 7.1310,2.2552 7.1695,2.3049 7.2110,2.3520 7.2555,2.3964 7.3026,2.4380 7.3522,2.4765 7.4042,2.5118 7.4582,2.5437 7.5142,2.5723 7.5719,2.5972 7.6310,2.6185 7.6913,2.6360 7.7526,2.6497 7.8147,2.6596 7.8772,2.6655 7.9400,2.6674 8.0028,2.6655 8.0653,2.6596 8.1274,2.6497 8.1887,2.6360 8.2490,2.6185 8.3081,2.5972 8.3658,2.5723 8.4218,2.5437 8.4758,2.5118 8.5278,2.4765 8.5774,2.4380 8.6245,2.3964 8.6690,2.3520 8.7105,2.3049 8.7490,2.2552 8.7843,2.2033 8.8163,2.1492 8.8448,2.0932 8.8698,2.0356 8.8911,1.9765 8.9086,1.9161 8.9223,1.8548 8.9321,1.7928 8.9380,1.7302 8.9400,1.6674"/></g><g stroke-width="0.0200" stroke="rgb(5%, 5%, 5%)" stroke-opacity="0.2" fill="none"><polyline points="7.9400,2.6674 7.9380,2.6046 7.9321,2.5421 7.9223,2.4801 7.9086,2.4187 7.8911,2.3584 7.8698,2.2993 7.8448,2.2417 7.8163,2.1857 7.7843,2.1316 7.7490,2.0797 7.7105,2.0300 7.6690,1.9829 7.6245,1.9385 7.5774,1.8969 7.5278,1.8584 7.4758,1.8231 7.4218,1.7911 7.3658,1.7626 7.3081,1.7377 7.2490,1.7164 7.1887,1.6989 7.1274,1.6852 7.0653,1.6753 7.0028,1.6694 6.9400,1.6674 6.8772,1.6694 6.8147,1.6753 6.7526,1.6852 6.6913,1.6989 6.6310,1.7164 6.5719,1.7377 6.5142,1.7626 6.4582,1.7911 6.4042,1.8231 6.3522,1.8584 6.3026,1.8969 6.2555,1.9385 6.2110,1.9829 6.1695,2.0300 6.1310,2.0797 6.0957,2.1316 6.0637,2.1857 6.0352,2.2417 6.0102,2.2993 5.9889,2.3584 5.9714,2.4187 5.9577,2.4801 5.9479,2.5421 5.9420,2.6046 5.9400,2.6674 5.9420,2.7302 5.9479,2.7928 5.9577,2.8548 5.9714,2.9161 5.9889,2.9765 6.0102,3.0356 6.0352,3.0932 6.0637,3.1492 6.0957,3.2033 6.1310,3.2552 6.1695,3.3049 6.2110,3.3520 6.2555,3.3964 6.3026,3.4380 6.3522,3.4765 6.4042,3.5118 6.4582,3.5437 6.5142,3.5723 6.5719,3.5972 6.6310,3.6185 6.6913,3.6360 6.7526,3.6497 6.8147,3.6596 6.8772,3.6655 6.9400,3.6674 7.0028,3.6655 7.0653,3.6596 7.1274,3.6497 7.1887,3.6360 7.2490,3.6185 7.3081,3.5972 7.3658,3.5723 7.4218,3.5437 7.4758,3.5118 7.5278,3.4765 7.5774,3.4380 7.6245,3.3964 7.6690,3.3520 7.7105,3.3049 7.7490,3.2552 7.7843,3.2033 7.8163,3.1492 7.8448,3.0932 7.8698,3.0356 7.8911,2.9765 7.9086,2.9161 7.9223,2.8548 7.9321,2.7928 7.9380,2.7302 7.9400,2.6674"/></g><g stroke-width="0.0500" stroke="rgb(5%, 5%, 5%)" stroke-opacity="0.5" fill="none"><polyline points="6.9400,1.6674 6.9411,1.6203 6.9444,1.5733 6.9500,1.5265 6.9577,1.4801 6.9676,1.4340 6.9797,1.3884 6.9939,1.3435 7.0102,1.2993 7.0286,1.2559 7.0490,1.2134 7.0714,1.1720 7.0957,1.1316 7.1219,1.0924 7.1498,1.0545 7.1796,1.0180 7.2110,0.9829 7.2441,0.9493 7.2787,0.9173 7.3148,0.8870 7.3522,0.8584 7.3910,0.8316 7.4310,0.8067 7.4721,0.7837 7.5142,0.7626 7.5573,0.7436 7.6013,0.7266 7.6460,0.7116 7.6913,0.6989 7.7372,0.6882 7.7836,0.6797 7.8303,0.6735 7.8772,0.6694 7.9243,0.6676 7.9714,0.6679 8.0185,0.6705 8.0653,0.6753 8.1119,0.6823 8.1581,0.6915 8.2039,0.7029 8.2490,0.7164 8.2935,0.7320 8.3371,0.7497 8.3799,0.7694 8.4218,0.7911 8.4625,0.8148 8.5021,0.8404 8.5404,0.8678 8.5774,0.8969 8.6130,0.9278 8.6471,0.9603 8.6796,0.9944 8.7105,1.0300 8.7397,1.0670 8.7671,1.1054 8.7926,1.1449 8.8163,1.1857 8.8380,1.2275 8.8578,1.2703 8.8754,1.3140 8.8911,1.3584 8.9046,1.4036 8.9159,1.4493 8.9251,1.4955 8.9321,1.5421 8.9369,1.5890 8.9395,1.6360 8.9399,1.6831 8.9380,1.7302 8.9340,1.7772 8.9277,1.8239 8.9192,1.8702 8.9086,1.9161 8.8958,1.9615 8.8809,2.0062 8.8639,2.0501 8.8448,2.0932 8.8238,2.1354 8.8007,2.1765 8.7758,2.2165 8.7490,2.2552 8.7204,2.2927 8.6901,2.3288 8.6581,2.3634 8.6245,2.3964 8.5894,2.4278 8.5529,2.4576 8.5150,2.4856 8.4758,2.5118 8.4355,2.5361 8.3940,2.5584 8.3515,2.5788 8.3081,2.5972 8.2639,2.6135 8.2190,2.6277 8.1734,2.6398 8.1274,2.6497 8.0809,2.6575 8.0341,2.6630 7.9871,2.6663 7.9400,2.6674"/></g><g stroke-width="0.0100" stroke="rgb(5%, 5%, 5%)" stroke-opacity="0.5" fill="rgb(5%, 5%, 5%)" fill-opacity="0.3"><path d="M 7.9400,1.6674 L 6.9400,1.6674 A 1.0 1.0 0 1 1 7.9400,2.6674 L 7.9400,1.6674"/></g><g stroke-width="0.0200" stroke="rgb(5%, 5%, 5%)" stroke-opacity="0.2" fill="none"><polyline points="8.9549,-1.3874 8.9529,-1.4502 8.9470,-1.5128 8.9372,-1.5748 8.9235,-1.6361 8.9059,-1.6965 8.8847,-1.7556 8.8597,-1.8132 8.8312,-1.8692 8.7992,-1.9233 8.7639,-1.9752 8.7254,-2.0249 8.6838,-2.0720 8.6394,-2.1164 8.5923,-2.1580 8.5427,-2.1965 8.4907,-2.2318 8.4366,-2.2637 8.3807,-2.2923 8.3230,-2.3172 8.2639,-2.3385 8.2036,-2.3560 8.1423,-2.3697 8.0802,-2.3796 8.0177,-2.3855 7.9549,-2.3874 7.8921,-2.3855 7.8295,-2.3796 7.7675,-2.3697 7.7062,-2.3560 7.6459,-2.3385 7.5868,-2.3172 7.5291,-2.2923 7.4731,-2.2637 7.4190,-2.2318 7.3671,-2.1965 7.3175,-2.1580 7.2703,-2.1164 7.2259,-2.0720 7.1844,-2.0249 7.1459,-1.9752 7.1105,-1.9233 7.0786,-1.8692 7.0500,-1.8132 7.0251,-1.7556 7.0038,-1.6965 6.9863,-1.6361 6.9726,-1.5748 6.9628,-1.5128 6.9568,-1.4502 6.9549,-1.3874 6.9568,-1.3246 6.9628,-1.2621 6.9726,-1.2001 6.9863,-1.1387 7.0038,-1.0784 7.0251,-1.0193 7.0500,-0.9617 7.0786,-0.9057 7.1105,-0.8516 7.1459,-0.7997 7.1844,-0.7500 7.2259,-0.7029 7.2703,-0.6585 7.3175,-0.6169 7.3671,-0.5784 7.4190,-0.5431 7.4731,-0.5111 7.5291,-0.4826 7.5868,-0.4577 7.6459,-0.4364 7.7062,-0.4189 7.7675,-0.4052 7.8295,-0.3953 7.8921,-0.3894 7.9549,-0.3874 8.0177,-0.3894 8.0802,-0.3953 8.1423,-0.4052 8.2036,-0.4189 8.2639,-0.4364 8.3230,-0.4577 8.3807,-0.4826 8.4366,-0.5111 8.4907,-0.5431 8.5427,-0.5784 8.5923,-0.6169 8.6394,-0.6585 8.6838,-0.7029 8.7254,-0.7500 8.7639,-0.7997 8.7992,-0.8516 8.8312,-0.9057 8.8597,-0.9617 8.8847,-1.0193 8.9059,-1.0784 8.9235,-1.1387 8.9372,-1.2001 8.9470,-1.2621 8.9529,-1.3246 8.9549,-1.3874"/></g><g stroke-width="0.0200" stroke="rgb(5%, 5%, 5%)" stroke-opacity="0.2" fill="none"><polyline points="7.9549,-0.3874 7.9529,-0.4502 7.9470,-0.5128 7.9372,-0.5748 7.9235,-0.6361 7.9059,-0.6965 7.8847,-0.7556 7.8597,-0.8132 7.8312,-0.8692 7.7992,-0.9233 7.7639,-0.9752 7.7254,-1.0249 7.6838,-1.0720 7.6394,-1.1164 7.5923,-1.1580 7.5427,-1.1965 7.4907,-1.2318 7.4366,-1.2637 7.3807,-1.2923 7.3230,-1.3172 7.2639,-1.3385 7.2036,-1.3560 7.1423,-1.3697 7.0802,-1.3796 7.0177,-1.3855 6.9549,-1.3874 6.8921,-1.3855 6.8295,-1.3796 6.7675,-1.3697 6.7062,-1.3560 6.6459,-1.3385 6.5868,-1.3172 6.5291,-1.2923 6.4731,-1.2637 6.4190,-1.2318 6.3671,-1.1965 6.3175,-1.1580 6.2703,-1.1164 6.2259,-1.0720 6.1844,-1.0249 6.1459,-0.9752 6.1105,-0.9233 6.0786,-0.8692 6.0500,-0.8132 6.0251,-0.7556 6.0038,-0.6965 5.9863,-0.6361 5.9726,-0.5748 5.9628,-0.5128 5.9568,-0.4502 5.9549,-0.3874 5.9568,-0.3246 5.9628,-0.2621 5.9726,-0.2001 5.9863,-0.1387 6.0038,-0.0784 6.0251,-0.0193 6.0500,0.0383 6.0786,0.0943 6.1105,0.1484 6.1459,0.2003 6.1844,0.2500 6.2259,0.2971 6.2703,0.3415 6.3175,0.3831 6.3671,0.4216 6.4190,0.4569 6.4731,0.4889 6.5291,0.5174 6.5868,0.5423 6.6459,0.5636 6.7062,0.5811 6.7675,0.5948 6.8295,0.6047 6.8921,0.6106 6.9549,0.6126 7.0177,0.6106 7.0802,0.6047 7.1423,0.5948 7.2036,0.5811 7.2639,0.5636 7.3230,0.5423 7.3807,0.5174 7.4366,0.4889 7.4907,0.4569 7.5427,0.4216 7.5923,0.3831 7.6394,0.3415 7.6838,0.2971 7.7254,0.2500 7.7639,0.2003 7.7992,0.1484 7.8312,0.0943 7.8597,0.0383 7.8847,-0.0193 7.9059,-0.0784 7.9235,-0.1387 7.9372,-0.2001 7.9470,-0.2621 7.9529,-0.3246 7.9549,-0.3874"/></g><g stroke-width="0.0500" stroke="rgb(5%, 5%, 5%)" stroke-opacity="0.5" fill="none"><polyline points="6.9549,-1.3874 6.9078,-1.3863 6.8608,-1.3830 6.8140,-1.3775 6.7675,-1.3697 6.7214,-1.3598 6.6759,-1.3477 6.6310,-1.3335 6.5868,-1.3172 6.5434,-1.2988 6.5009,-1.2784 6.4594,-1.2561 6.4190,-1.2318 6.3799,-1.2056 6.3420,-1.1776 6.3054,-1.1478 6.2703,-1.1164 6.2368,-1.0834 6.2048,-1.0488 6.1744,-1.0127 6.1459,-0.9752 6.1191,-0.9365 6.0941,-0.8965 6.0711,-0.8554 6.0500,-0.8132 6.0310,-0.7701 6.0140,-0.7262 5.9991,-0.6815 5.9863,-0.6361 5.9757,-0.5902 5.9672,-0.5439 5.9609,-0.4972 5.9568,-0.4502 5.955,-0.4031 5.9554,-0.3560 5.9580,-0.3090 5.9628,-0.2621 5.9698,-0.2155 5.9790,-0.1693 5.9903,-0.1236 6.0038,-0.0784 6.0194,-0.0340 6.0371,0.0097 6.0568,0.0525 6.0786,0.0943 6.1022,0.1351 6.1278,0.1746 6.1552,0.2130 6.1844,0.2500 6.2152,0.2856 6.2478,0.3197 6.2819,0.3522 6.3175,0.3831 6.3545,0.4122 6.3928,0.4396 6.4324,0.4652 6.4731,0.4889 6.5149,0.5106 6.5577,0.5303 6.6014,0.5480 6.6459,0.5636 6.6910,0.5771 6.7367,0.5885 6.7829,0.5977 6.8295,0.6047 6.8764,0.6095 6.9235,0.6121 6.9706,0.6124 7.0177,0.6106 7.0646,0.6065 7.1113,0.6003 7.1577,0.5918 7.2036,0.5811 7.2489,0.5684 7.2936,0.5534 7.3376,0.5364 7.3807,0.5174 7.4228,0.4963 7.4639,0.4733 7.5039,0.4484 7.5427,0.4216 7.5801,0.3930 7.6162,0.3627 7.6508,0.3307 7.6838,0.2971 7.7153,0.2620 7.7450,0.2255 7.7730,0.1876 7.7992,0.1484 7.8235,0.1080 7.8459,0.0666 7.8663,0.0241 7.8847,-0.0193 7.9010,-0.0635 7.9152,-0.1084 7.9272,-0.1540 7.9372,-0.2001 7.9449,-0.2465 7.9504,-0.2933 7.9538,-0.3403 7.9549,-0.3874"/></g><g stroke-width="0.0100" stroke="rgb(5%, 5%, 5%)" stroke-opacity="0.5" fill="rgb(5%, 5%, 5%)" fill-opacity="0.3"><path d="M 7.9549,-1.3874 L 6.9549,-1.3874 A 1.0 1.0 0 1 0 7.9549,-0.3874 L 7.9549,-1.3874"/></g><g stroke-width="0.0" stroke="none" fill="rgb(5%, 5%, 5%)" fill-opacity="1.0" font-size="0.4" text-anchor="middle"><text x="7.43" y="-3.3274">True</text></g><g stroke-width="0.0" stroke="none" fill="rgb(5%, 5%, 5%)" fill-opacity="1.0" font-size="0.6" text-anchor="middle"><text x="5.5000" y="-4.3749">Large</text></g></g><g class="hud"></g></svg>