<svg xmlns="http://www.w3.org/2000/svg" height="300.0" viewBox="-9.7575e-2 -9.03175 10.122575000000001 9.16925" width="331.1909370995447" xmlns:xlink="http://www.w3.org/1999/xlink"><g stroke-opacity="0.0" fill-opacity="2.5e-2" stroke="#000000" stroke-width="0.0" fill="#808080"><rect height="9.0" width="10.0" x="0.0" y="-9.0"/></g><g stroke-opacity="5.0e-2" stroke="#808080" stroke-width="5.0e-3" fill="none"><polyline points="0.0,-1.3877787807814457e-17
10.0,-1.3877787807814457e-17"/></g><g stroke-opacity="5.0e-2" stroke="#808080" stroke-width="5.0e-3" fill="none"><polyline points="0.0,-1.0
10.0,-1.0"/></g><g stroke-opacity="5.0e-2" stroke="#808080" stroke-width="5.0e-3" fill="none"><polyline points="0.0,-2.0
10.0,-2.0"/></g><g stroke-opacity="5.0e-2" stroke="#808080" stroke-width="5.0e-3" fill="none"><polyline points="0.0,-3.0
10.0,-3.0"/></g><g stroke-opacity="5.0e-2" stroke="#808080" stroke-width="5.0e-3" fill="none"><polyline points="0.0,-4.0
10.0,-4.0"/></g><g stroke-opacity="5.0e-2" stroke="#808080" stroke-width="5.0e-3" fill="none"><polyline points="0.0,-5.000000000000001
10.0,-5.000000000000001"/></g><g stroke-opacity="5.0e-2" stroke="#808080" stroke-width="5.0e-3" fill="none"><polyline points="0.0,-6.0
10.0,-6.0"/></g><g stroke-opacity="5.0e-2" stroke="#808080" stroke-width="5.0e-3" fill="none"><polyline points="0.0,-6.999999999999999
10.0,-6.999999999999999"/></g><g stroke-opacity="5.0e-2" stroke="#808080" stroke-width="5.0e-3" fill="none"><polyline points="0.0,-8.0
10.0,-8.0"/></g><g stroke-opacity="5.0e-2" stroke="#808080" stroke-width="5.0e-3" fill="none"><polyline points="0.0,-9.0
10.0,-9.0"/></g><g fill-opacity="1.0" font-size="5.0e-2" stroke="none" stroke-width="0.0" fill="#808080" text-anchor="end"><text x="-7.2575e-2" y="1.4499999999999999e-2">0</text></g><g fill-opacity="1.0" font-size="5.0e-2" stroke="none" stroke-width="0.0" fill="#808080" text-anchor="end"><text x="-7.2575e-2" y="-0.9855">1</text></g><g fill-opacity="1.0" font-size="5.0e-2" stroke="none" stroke-width="0.0" fill="#808080" text-anchor="end"><text x="-7.2575e-2" y="-1.9855">2</text></g><g fill-opacity="1.0" font-size="5.0e-2" stroke="none" stroke-width="0.0" fill="#808080" text-anchor="end"><text x="-7.2575e-2" y="-2.9855">3</text></g><g fill-opacity="1.0" font-size="5.0e-2" stroke="none" stroke-width="0.0" fill="#808080" text-anchor="end"><text x="-7.2575e-2" y="-3.9855">4</text></g><g fill-opacity="1.0" font-size="5.0e-2" stroke="none" stroke-width="0.0" fill="#808080" text-anchor="end"><text x="-7.2575e-2" y="-4.9855">5</text></g><g fill-opacity="1.0" font-size="5.0e-2" stroke="none" stroke-width="0.0" fill="#808080" text-anchor="end"><text x="-7.2575e-2" y="-5.985500000000001">6</text></g><g fill-opacity="1.0" font-size="5.0e-2" stroke="none" stroke-width="0.0" fill="#808080" text-anchor="end"><text x="-7.2575e-2" y="-6.985499999999999">7</text></g><g fill-opacity="1.0" font-size="5.0e-2" stroke="none" stroke-width="0.0" fill="#808080" text-anchor="end"><text x="-7.2575e-2" y="-7.9855">8</text></g><g fill-opacity="1.0" font-size="5.0e-2" stroke="none" stroke-width="0.0" fill="#808080" text-anchor="end"><text x="-7.2575e-2" y="-8.9855">9</text></g><g stroke-opacity="1.0" fill-opacity="1.0" stroke="#808080" stroke-width="5.0e-3" fill="#808080"><g transform="rotate(-90.0, -4.000000000000001e-2, -1.3877787807814457e-17)"><polyline points="-4.000000000000001e-2,1.4999999999999986e-2
-4.000000000000001e-2,-1.5000000000000013e-2"/></g><g transform="rotate(-90.0, -4.000000000000001e-2, -1.0)"><polyline points="-4.000000000000001e-2,-0.985
-4.000000000000001e-2,-1.015"/></g><g transform="rotate(-90.0, -4.000000000000001e-2, -2.0)"><polyline points="-4.000000000000001e-2,-1.985
-4.000000000000001e-2,-2.015"/></g><g transform="rotate(-90.0, -4.000000000000001e-2, -3.0)"><polyline points="-4.000000000000001e-2,-2.985
-4.000000000000001e-2,-3.015"/></g><g transform="rotate(-90.0, -4.000000000000001e-2, -4.0)"><polyline points="-4.000000000000001e-2,-3.985
-4.000000000000001e-2,-4.015"/></g><g transform="rotate(-90.0, -4.000000000000001e-2, -5.000000000000001)"><polyline points="-4.000000000000001e-2,-4.985000000000001
-4.000000000000001e-2,-5.015000000000001"/></g><g transform="rotate(-90.0, -4.000000000000001e-2, -6.0)"><polyline points="-4.000000000000001e-2,-5.985
-4.000000000000001e-2,-6.015"/></g><g transform="rotate(-90.0, -4.000000000000001e-2, -6.999999999999999)"><polyline points="-4.000000000000001e-2,-6.984999999999999
-4.000000000000001e-2,-7.014999999999999"/></g><g transform="rotate(-90.0, -4.000000000000001e-2, -8.0)"><polyline points="-4.000000000000001e-2,-7.985
-4.000000000000001e-2,-8.015"/></g><g transform="rotate(-90.0, -4.000000000000001e-2, -9.0)"><polyline points="-4.000000000000001e-2,-8.985
-4.000000000000001e-2,-9.015"/></g></g><g stroke-opacity="1.0" fill-opacity="1.0" stroke="#808080" stroke-width="0.0" fill="#808080"><rect height="9.0" width="5.000000000000011e-3" x="-2.7500000000000004e-2" y="-9.0"/></g><g stroke-opacity="5.0e-2" stroke="#808080" stroke-width="5.0e-3" fill="none"><polyline points="0.0,-1.3877787807814457e-17
0.0,-9.0"/></g><g stroke-opacity="5.0e-2" stroke="#808080" stroke-width="5.0e-3" fill="none"><polyline points="1.0,-1.3877787807814457e-17
1.0,-9.0"/></g><g stroke-opacity="5.0e-2" stroke="#808080" stroke-width="5.0e-3" fill="none"><polyline points="2.0,-1.3877787807814457e-17
2.0,-9.0"/></g><g stroke-opacity="5.0e-2" stroke="#808080" stroke-width="5.0e-3" fill="none"><polyline points="3.0000000000000004,-1.3877787807814457e-17
3.0000000000000004,-9.0"/></g><g stroke-opacity="5.0e-2" stroke="#808080" stroke-width="5.0e-3" fill="none"><polyline points="3.9999999999999996,-1.3877787807814457e-17
3.9999999999999996,-9.0"/></g><g stroke-opacity="5.0e-2" stroke="#808080" stroke-width="5.0e-3" fill="none"><polyline points="5.000000000000001,-1.3877787807814457e-17
5.000000000000001,-9.0"/></g><g stroke-opacity="5.0e-2" stroke="#808080" stroke-width="5.0e-3" fill="none"><polyline points="6.000000000000001,-1.3877787807814457e-17
6.000000000000001,-9.0"/></g><g stroke-opacity="5.0e-2" stroke="#808080" stroke-width="5.0e-3" fill="none"><polyline points="7.000000000000001,-1.3877787807814457e-17
7.000000000000001,-9.0"/></g><g stroke-opacity="5.0e-2" stroke="#808080" stroke-width="5.0e-3" fill="none"><polyline points="8.0,-1.3877787807814457e-17
8.0,-9.0"/></g><g stroke-opacity="5.0e-2" stroke="#808080" stroke-width="5.0e-3" fill="none"><polyline points="9.0,-1.3877787807814457e-17
9.0,-9.0"/></g><g stroke-opacity="5.0e-2" stroke="#808080" stroke-width="5.0e-3" fill="none"><polyline points="10.0,-1.3877787807814457e-17
10.0,-9.0"/></g><g fill-opacity="1.0" font-size="5.0e-2" stroke="none" stroke-width="0.0" fill="#808080" text-anchor="middle"><text x="0.0" y="0.1112500000000001">0</text></g><g fill-opacity="1.0" font-size="5.0e-2" stroke="none" stroke-width="0.0" fill="#808080" text-anchor="middle"><text x="1.0" y="0.1112500000000001">1</text></g><g fill-opacity="1.0" font-size="5.0e-2" stroke="none" stroke-width="0.0" fill="#808080" text-anchor="middle"><text x="2.0" y="0.1112500000000001">2</text></g><g fill-opacity="1.0" font-size="5.0e-2" stroke="none" stroke-width="0.0" fill="#808080" text-anchor="middle"><text x="3.0000000000000004" y="0.1112500000000001">3</text></g><g fill-opacity="1.0" font-size="5.0e-2" stroke="none" stroke-width="0.0" fill="#808080" text-anchor="middle"><text x="3.9999999999999996" y="0.1112500000000001">4</text></g><g fill-opacity="1.0" font-size="5.0e-2" stroke="none" stroke-width="0.0" fill="#808080" text-anchor="middle"><text x="5.000000000000001" y="0.1112500000000001">5</text></g><g fill-opacity="1.0" font-size="5.0e-2" stroke="none" stroke-width="0.0" fill="#808080" text-anchor="middle"><text x="6.000000000000001" y="0.1112500000000001">6</text></g><g fill-opacity="1.0" font-size="5.0e-2" stroke="none" stroke-width="0.0" fill="#808080" text-anchor="middle"><text x="7.000000000000001" y="0.1112500000000001">7</text></g><g fill-opacity="1.0" font-size="5.0e-2" stroke="none" stroke-width="0.0" fill="#808080" text-anchor="middle"><text x="8.0" y="0.1112500000000001">8</text></g><g fill-opacity="1.0" font-size="5.0e-2" stroke="none" stroke-width="0.0" fill="#808080" text-anchor="middle"><text x="9.0" y="0.1112500000000001">9</text></g><g fill-opacity="1.0" font-size="5.0e-2" stroke="none" stroke-width="0.0" fill="#808080" text-anchor="middle"><text x="10.0" y="0.1112500000000001">10</text></g><g stroke-opacity="1.0" fill-opacity="1.0" stroke="#808080" stroke-width="5.0e-3" fill="#808080"><polyline points="0.0,4.250000000000011e-2
0.0,1.2500000000000108e-2"/><polyline points="1.0,4.250000000000011e-2
1.0,1.2500000000000108e-2"/><polyline points="2.0,4.250000000000011e-2
2.0,1.2500000000000108e-2"/><polyline points="3.0000000000000004,4.250000000000011e-2
3.0000000000000004,1.2500000000000108e-2"/><polyline points="3.9999999999999996,4.250000000000011e-2
3.9999999999999996,1.2500000000000108e-2"/><polyline points="5.000000000000001,4.250000000000011e-2
5.000000000000001,1.2500000000000108e-2"/><polyline points="6.000000000000001,4.250000000000011e-2
6.000000000000001,1.2500000000000108e-2"/><polyline points="7.000000000000001,4.250000000000011e-2
7.000000000000001,1.2500000000000108e-2"/><polyline points="8.0,4.250000000000011e-2
8.0,1.2500000000000108e-2"/><polyline points="9.0,4.250000000000011e-2
9.0,1.2500000000000108e-2"/><polyline points="10.0,4.250000000000011e-2
10.0,1.2500000000000108e-2"/></g><g stroke-opacity="1.0" fill-opacity="1.0" stroke="#808080" stroke-width="0.0" fill="#808080"><rect height="4.9999999999999906e-3" width="10.0" x="0.0" y="1.0000000000000106e-2"/></g><g stroke-opacity="0.8" fill-opacity="0.3" stroke="#1f78b4" stroke-width="1.0e-2" fill="#1f78b4"><rect height="5.999999999999999" width="0.8000000000000003" x="5.499999999999994e-2" y="-6.004999999999999"/></g><g fill-opacity="1.0" font-size="0.6" stroke="none" stroke-width="0.0" fill="#333333" text-anchor="middle"><text transform="rotate(-90.0, 0.5549999999999999, -3.0049999999999994)" x="0.5549999999999999" y="-3.0049999999999994">Sweep</text></g><g stroke-opacity="0.8" fill-opacity="0.3" stroke="#1f78b4" stroke-width="1.0e-2" fill="#1f78b4"><rect height="2.9999999999999996" width="0.4999999999999998" x="1.3650000000000004" y="-3.0049999999999994"/></g><g fill-opacity="1.0" font-size="0.4" stroke="none" stroke-width="0.0" fill="#333333" text-anchor="middle"><text transform="rotate(-90.0, 1.715, -1.5049999999999997)" x="1.715" y="-1.5049999999999997">True</text></g><g stroke-opacity="0.8" fill-opacity="0.3" stroke="#1f78b4" stroke-width="1.0e-2" fill="#1f78b4"><rect height="3.0" width="0.4999999999999998" x="1.3650000000000004" y="-6.034999999999999"/></g><g fill-opacity="1.0" font-size="0.4" stroke="none" stroke-width="0.0" fill="#333333" text-anchor="middle"><text transform="rotate(-90.0, 1.715, -4.535)" x="1.715" y="-4.535">False</text></g><g stroke-opacity="0.2" stroke="#000000" stroke-width="2.0e-2" fill="none"><polyline points="5.410000000000001,-2.01
5.408026728428272,-2.0727905195293133
5.402114701314478,-2.135333233564304
5.392287250728689,-2.197381314585725
5.378583161128631,-2.258689887164855
5.361056516295154,-2.3190169943749472
5.339776485888251,-2.378124552684678
5.314827052466021,-2.4357792915650722
5.286306680043863,-2.4917536741017154
5.2543279255020146,-2.545826794978996
5.219016994374948,-2.597785252292473
5.180513242775789,-2.6474239897486895
5.138968627421411,-2.6945471059286885
5.094547105928688,-2.738968627421412
5.04742398974869,-2.780513242775789
4.9977852522924735,-2.8190169943749472
4.945826794978997,-2.8543279255020155
4.8917536741017145,-2.8863066800438633
4.835779291565073,-2.9148270524660194
4.7781245526846785,-2.9397764858882516
4.719016994374947,-2.9610565162951534
4.658689887164854,-2.978583161128631
4.597381314585725,-2.9922872507286886
4.5353332335643035,-3.002114701314478
4.472790519529314,-3.008026728428272
4.409999999999999,-3.0099999999999993
4.347209480470687,-3.008026728428272
4.284666766435697,-3.002114701314478
4.222618685414275,-2.9922872507286886
4.161310112835145,-2.978583161128631
4.100983005625053,-2.9610565162951534
4.041875447315322,-2.9397764858882516
3.984220708434927,-2.9148270524660194
3.9282463258982845,-2.886306680043863
3.874173205021003,-2.8543279255020155
3.822214747707527,-2.8190169943749472
3.772576010251311,-2.7805132427757893
3.7254528940713114,-2.738968627421412
3.681031372578589,-2.6945471059286885
3.6394867572242107,-2.6474239897486895
3.6009830056250536,-2.597785252292473
3.5656720744979853,-2.545826794978997
3.533693319956137,-2.4917536741017154
3.505172947533981,-2.4357792915650722
3.480223514111749,-2.378124552684678
3.4589434837048465,-2.3190169943749472
3.4414168388713695,-2.258689887164855
3.4277127492713118,-2.197381314585725
3.4178852986855226,-2.135333233564304
3.4119732715717292,-2.0727905195293133
3.41,-2.0100000000000002
3.4119732715717292,-1.9472094804706868
3.4178852986855226,-1.8846667664356958
3.4277127492713118,-1.8226186854142752
3.441416838871369,-1.7613101128351452
3.4589434837048465,-1.7009830056250523
3.480223514111749,-1.6418754473153219
3.5051729475339806,-1.5842207084349278
3.533693319956137,-1.5282463258982848
3.5656720744979853,-1.4741732050210037
3.6009830056250536,-1.4222147477075269
3.6394867572242107,-1.3725760102513103
3.681031372578589,-1.3254528940713115
3.725452894071312,-1.2810313725785882
3.772576010251311,-1.2394867572242108
3.822214747707527,-1.200983005625053
3.874173205021004,-1.1656720744979847
3.9282463258982845,-1.1336933199561363
3.9842207084349277,-1.1051729475339802
4.041875447315322,-1.0802235141117484
4.100983005625052,-1.0589434837048466
4.161310112835145,-1.0414168388713687
4.222618685414275,-1.0277127492713114
4.284666766435695,-1.0178852986855222
4.347209480470687,-1.0119732715717284
4.409999999999999,-1.01
4.472790519529313,-1.0119732715717284
4.5353332335643035,-1.0178852986855222
4.597381314585725,-1.0277127492713114
4.658689887164854,-1.041416838871369
4.719016994374947,-1.0589434837048464
4.778124552684677,-1.0802235141117484
4.835779291565071,-1.1051729475339802
4.891753674101716,-1.1336933199561368
4.945826794978997,-1.1656720744979847
4.9977852522924735,-1.2009830056250523
5.0474239897486886,-1.2394867572242103
5.094547105928688,-1.2810313725785882
5.138968627421411,-1.325452894071311
5.18051324277579,-1.3725760102513103
5.219016994374948,-1.4222147477075269
5.2543279255020146,-1.4741732050210026
5.286306680043863,-1.5282463258982848
5.314827052466019,-1.584220708434927
5.339776485888251,-1.641875447315322
5.361056516295154,-1.7009830056250523
5.378583161128631,-1.7613101128351454
5.392287250728689,-1.8226186854142754
5.402114701314478,-1.8846667664356953
5.408026728428272,-1.9472094804706868
5.410000000000001,-2.01"/></g><g stroke-opacity="0.2" stroke="#000000" stroke-width="2.0e-2" fill="none"><polyline points="4.409999999999999,-1.01
4.408026728428272,-1.0727905195293135
4.402114701314478,-1.1353332335643043
4.392287250728688,-1.1973813145857246
4.378583161128631,-1.258689887164855
4.361056516295153,-1.3190169943749475
4.339776485888251,-1.3781245526846777
4.314827052466019,-1.4357792915650727
4.286306680043864,-1.4917536741017154
4.2543279255020146,-1.5458267949789968
4.219016994374948,-1.597785252292473
4.18051324277579,-1.6474239897486895
4.138968627421411,-1.6945471059286885
4.094547105928688,-1.7389686274214113
4.047423989748689,-1.7805132427757893
3.997785252292473,-1.8190169943749472
3.945826794978997,-1.8543279255020149
3.8917536741017154,-1.8863066800438635
3.835779291565073,-1.9148270524660198
3.7781245526846785,-1.9397764858882511
3.719016994374948,-1.9610565162951534
3.6586898871648548,-1.9785831611286313
3.597381314585725,-1.9922872507286886
3.5353332335643044,-2.0021147013144778
3.4727905195293136,-2.0080267284282716
3.41,-2.01
3.347209480470687,-2.0080267284282716
3.284666766435696,-2.0021147013144778
3.2226186854142758,-1.9922872507286886
3.161310112835145,-1.9785831611286313
3.100983005625053,-1.9610565162951534
3.0418754473153227,-1.9397764858882516
2.9842207084349277,-1.9148270524660194
2.9282463258982845,-1.8863066800438635
2.8741732050210036,-1.8543279255020149
2.8222147477075272,-1.8190169943749475
2.7725760102513104,-1.7805132427757893
2.7254528940713114,-1.7389686274214113
2.681031372578589,-1.694547105928689
2.639486757224211,-1.64742398974869
2.6009830056250527,-1.597785252292473
2.5656720744979853,-1.5458267949789968
2.5336933199561362,-1.4917536741017152
2.5051729475339806,-1.435779291565073
2.4802235141117484,-1.3781245526846782
2.4589434837048465,-1.3190169943749475
2.4414168388713686,-1.258689887164855
2.4277127492713113,-1.1973813145857246
2.417885298685522,-1.135333233564304
2.4119732715717284,-1.0727905195293137
2.41,-1.0100000000000002
2.4119732715717284,-0.9472094804706868
2.417885298685522,-0.8846667664356958
2.4277127492713113,-0.8226186854142752
2.4414168388713686,-0.7613101128351454
2.4589434837048465,-0.7009830056250523
2.4802235141117484,-0.6418754473153221
2.50517294753398,-0.5842207084349279
2.5336933199561367,-0.5282463258982846
2.5656720744979853,-0.4741732050210037
2.6009830056250527,-0.422214747707527
2.639486757224211,-0.3725760102513104
2.681031372578589,-0.3254528940713116
2.7254528940713114,-0.28103137257858846
2.7725760102513104,-0.23948675722421062
2.8222147477075272,-0.20098300562505264
2.874173205021004,-0.16567207449798468
2.9282463258982845,-0.13369331995613642
2.9842207084349277,-0.10517294753398018
3.0418754473153227,-8.022351411174858e-2
3.1009830056250527,-5.894348370484648e-2
3.161310112835146,-4.141683887136882e-2
3.2226186854142758,-2.7712749271311288e-2
3.2846667664356954,-1.7885298685522244e-2
3.347209480470687,-1.197327157172845e-2
3.4099999999999997,-1.0000000000000009e-2
3.472790519529313,-1.197327157172845e-2
3.5353332335643044,-1.7885298685522133e-2
3.597381314585724,-2.7712749271311288e-2
3.6586898871648548,-4.141683887136893e-2
3.7190169943749476,-5.894348370484637e-2
3.778124552684678,-8.022351411174844e-2
3.8357792915650717,-0.1051729475339801
3.8917536741017154,-0.13369331995613665
3.945826794978997,-0.1656720744979849
3.997785252292472,-0.20098300562505242
4.047423989748689,-0.2394867572242104
4.094547105928688,-0.28103137257858846
4.138968627421411,-0.32545289407131106
4.18051324277579,-0.3725760102513104
4.219016994374947,-0.42221474770752676
4.2543279255020146,-0.4741732050210029
4.286306680043864,-0.5282463258982847
4.314827052466019,-0.584220708434927
4.339776485888251,-0.6418754473153222
4.361056516295153,-0.7009830056250523
4.378583161128631,-0.7613101128351455
4.392287250728688,-0.8226186854142754
4.402114701314478,-0.8846667664356952
4.408026728428272,-0.9472094804706868
4.409999999999999,-1.0099999999999998"/></g><g stroke-opacity="0.5" stroke="#ff00ff" stroke-width="5.0e-2" fill="none"><polyline points="3.41,-2.01
3.4257073173118213,-2.0098766324816606
3.441410759078129,-2.0095065603657316
3.4571064507096425,-2.00888987496197
3.472790519529314,-2.0080267284282716
3.488459095727845,-2.006917333733128
3.5041083133185147,-2.0055619646030802
3.5197343110910455,-2.0039609554551796
3.5353332335643044,-2.0021147013144778
3.5509012319375826,-2.0000236577165573
3.5664344650402313,-1.997688340595138
3.5819291002794094,-1.995109326154774
3.597381314585725,-1.9922872507286886
3.6127872953565126,-1.9892228106217655
3.6281432413965424,-1.9859167619387472
3.6434453638559057,-1.9823699203976766
3.6586898871648548,-1.9785831611286313
3.6738730499653727,-1.974557418457798
3.6889911060392295,-1.970293685676943
3.7040403252323046,-1.9657930147983302
3.719016994374948,-1.9610565162951534
3.7339174181981494,-1.9560853588275453
3.7487379202452913,-1.9508807689542254
3.7634748437792576,-1.9454440308298673
3.7781245526846785,-1.9397764858882511
3.7926834323650898,-1.9338795325112867
3.807147890634781,-1.9277546256839813
3.8215143586051092,-1.921403276635445
3.835779291565073,-1.9148270524660198
3.849939169855916,-1.9080275757606153
3.863990499739547,-1.9010065241883676
3.8779298142605736,-1.8937656300886934
3.8917536741017154,-1.8863066800438635
3.9054586684324075,-1.878631514438191
3.919041415750372,-1.8707420270039437
3.932498564715949,-1.8626401643540924
3.945826794978997,-1.8543279255020149
3.959022817998132,-1.8458073613682704
3.972083377852131,-1.837080574274562
3.9850052520432784,-1.8281497174250232
3.997785252292473,-1.8190169943749472
4.010420225325884,-1.8096846584870905
4.022907053652976,-1.8001550123756904
4.035242656335705,-1.7904304073383297
4.047423989748689,-1.7805132427757893
4.059448048330183,-1.7704059656000308
4.0713118653236515,-1.7601110696304594
4.0830125135097735,-1.7496310949786096
4.094547105928688,-1.7389686274214111
4.105912796592314,-1.7281262977631888
4.117106781186547,-1.7171067811865472
4.128126297763188,-1.7059127965923144
4.138968627421411,-1.6945471059286885
4.149631094978609,-1.683012513509773
4.160111069630459,-1.6713118653236516
4.170405965600031,-1.6594480483301837
4.18051324277579,-1.6474239897486895
4.190430407338329,-1.635242656335705
4.20015501237569,-1.6229070536529764
4.20968465848709,-1.6104202253258841
4.219016994374948,-1.597785252292473
4.2281497174250235,-1.5850052520432785
4.237080574274562,-1.5720833778521306
4.24580736136827,-1.5590228179981316
4.2543279255020146,-1.5458267949789968
4.262640164354092,-1.5324985647159486
4.270742027003943,-1.5190414157503709
4.2786315144381915,-1.5054586684324076
4.286306680043864,-1.4917536741017152
4.293765630088693,-1.4779298142605732
4.3010065241883675,-1.4639904997395465
4.308027575760615,-1.449939169855915
4.314827052466019,-1.4357792915650727
4.321403276635445,-1.421514358605109
4.327754625683981,-1.4071478906347805
4.333879532511286,-1.3926834323650896
4.339776485888251,-1.3781245526846782
4.345444030829867,-1.3634748437792572
4.350880768954225,-1.3487379202452912
4.356085358827545,-1.3339174181981495
4.361056516295153,-1.3190169943749475
4.36579301479833,-1.304040325232304
4.370293685676943,-1.2889911060392294
4.3745574184577976,-1.2738730499653725
4.378583161128631,-1.2586898871648546
4.382369920397676,-1.2434453638559053
4.385916761938748,-1.2281432413965425
4.3892228106217654,-1.2127872953565124
4.392287250728688,-1.1973813145857246
4.395109326154774,-1.1819291002794095
4.3976883405951375,-1.166434465040231
4.400023657716557,-1.1509012319375826
4.402114701314478,-1.1353332335643043
4.4039609554551795,-1.1197343110910454
4.40556196460308,-1.1041083133185143
4.406917333733127,-1.088459095727845
4.408026728428272,-1.0727905195293135
4.40888987496197,-1.0571064507096426
4.409506560365731,-1.0414107590781283
4.4098766324816605,-1.0257073173118205
4.409999999999999,-1.01"/></g><g stroke-opacity="0.5" fill-opacity="0.3" stroke="#000000" stroke-width="1.0e-2" fill="#ff00ff"><path d="M 4.4100,-2.01 L 3.41,-2.01 A 1.0 1.0 -0.0 0 1 4.4100,-1.01 L 4.4100,-2.01"/></g><g stroke-opacity="0.2" stroke="#000000" stroke-width="2.0e-2" fill="none"><polyline points="5.410000000000001,-5.049999999999999
5.408026728428272,-5.112790519529312
5.402114701314478,-5.175333233564305
5.392287250728689,-5.237381314585724
5.378583161128631,-5.298689887164853
5.361056516295154,-5.359016994374947
5.339776485888251,-5.418124552684677
5.314827052466021,-5.475779291565072
5.286306680043863,-5.531753674101714
5.2543279255020146,-5.5858267949789955
5.219016994374948,-5.637785252292471
5.180513242775789,-5.68742398974869
5.138968627421411,-5.734547105928687
5.094547105928688,-5.778968627421411
5.04742398974869,-5.820513242775789
4.9977852522924735,-5.859016994374946
4.945826794978997,-5.894327925502013
4.8917536741017145,-5.926306680043862
4.835779291565073,-5.954827052466019
4.7781245526846785,-5.979776485888251
4.719016994374947,-6.001056516295152
4.658689887164854,-6.018583161128629
4.597381314585725,-6.032287250728689
4.5353332335643035,-6.042114701314477
4.472790519529314,-6.04802672842827
4.409999999999999,-6.05
4.347209480470687,-6.04802672842827
4.284666766435697,-6.042114701314477
4.222618685414275,-6.032287250728689
4.161310112835145,-6.018583161128629
4.100983005625053,-6.001056516295152
4.041875447315322,-5.979776485888251
3.984220708434927,-5.954827052466019
3.9282463258982845,-5.926306680043862
3.874173205021003,-5.894327925502013
3.822214747707527,-5.859016994374946
3.772576010251311,-5.820513242775789
3.7254528940713114,-5.778968627421411
3.681031372578589,-5.734547105928687
3.6394867572242107,-5.68742398974869
3.6009830056250536,-5.637785252292471
3.5656720744979853,-5.5858267949789955
3.533693319956137,-5.531753674101714
3.505172947533981,-5.475779291565072
3.480223514111749,-5.418124552684677
3.4589434837048465,-5.359016994374947
3.4414168388713695,-5.298689887164853
3.4277127492713118,-5.237381314585724
3.4178852986855226,-5.175333233564303
3.4119732715717292,-5.112790519529312
3.41,-5.049999999999999
3.4119732715717292,-4.9872094804706855
3.4178852986855226,-4.924666766435695
3.4277127492713118,-4.862618685414275
3.441416838871369,-4.801310112835145
3.4589434837048465,-4.740983005625051
3.480223514111749,-4.6818754473153215
3.5051729475339806,-4.624220708434927
3.533693319956137,-4.568246325898284
3.5656720744979853,-4.514173205021003
3.6009830056250536,-4.4622147477075265
3.6394867572242107,-4.41257601025131
3.681031372578589,-4.3654528940713115
3.725452894071312,-4.321031372578588
3.772576010251311,-4.27948675722421
3.822214747707527,-4.240983005625052
3.874173205021004,-4.2056720744979845
3.9282463258982845,-4.173693319956136
3.9842207084349277,-4.14517294753398
4.041875447315322,-4.120223514111748
4.100983005625052,-4.098943483704846
4.161310112835145,-4.081416838871369
4.222618685414275,-4.067712749271311
4.284666766435695,-4.057885298685521
4.347209480470687,-4.051973271571728
4.409999999999999,-4.05
4.472790519529313,-4.051973271571728
4.5353332335643035,-4.057885298685521
4.597381314585725,-4.067712749271311
4.658689887164854,-4.081416838871369
4.719016994374947,-4.098943483704846
4.778124552684677,-4.120223514111748
4.835779291565071,-4.14517294753398
4.891753674101716,-4.173693319956136
4.945826794978997,-4.2056720744979845
4.9977852522924735,-4.240983005625052
5.0474239897486886,-4.27948675722421
5.094547105928688,-4.321031372578588
5.138968627421411,-4.365452894071311
5.18051324277579,-4.41257601025131
5.219016994374948,-4.4622147477075265
5.2543279255020146,-4.514173205021002
5.286306680043863,-4.568246325898285
5.314827052466019,-4.624220708434927
5.339776485888251,-4.6818754473153215
5.361056516295154,-4.740983005625051
5.378583161128631,-4.801310112835145
5.392287250728689,-4.862618685414275
5.402114701314478,-4.924666766435694
5.408026728428272,-4.9872094804706855
5.410000000000001,-5.049999999999999"/></g><g stroke-opacity="0.2" stroke="#000000" stroke-width="2.0e-2" fill="none"><polyline points="4.409999999999999,-4.05
4.408026728428272,-4.112790519529312
4.402114701314478,-4.175333233564304
4.392287250728688,-4.237381314585725
4.378583161128631,-4.298689887164854
4.361056516295153,-4.359016994374947
4.339776485888251,-4.418124552684677
4.314827052466019,-4.475779291565072
4.286306680043864,-4.531753674101715
4.2543279255020146,-4.585826794978996
4.219016994374948,-4.637785252292472
4.18051324277579,-4.687423989748689
4.138968627421411,-4.734547105928688
4.094547105928688,-4.77896862742141
4.047423989748689,-4.820513242775788
3.997785252292473,-4.859016994374947
3.945826794978997,-4.894327925502014
3.8917536741017154,-4.926306680043863
3.835779291565073,-4.954827052466019
3.7781245526846785,-4.97977648588825
3.719016994374948,-5.0010565162951535
3.6586898871648548,-5.01858316112863
3.597381314585725,-5.032287250728688
3.5353332335643044,-5.042114701314477
3.4727905195293136,-5.048026728428271
3.41,-5.049999999999999
3.347209480470687,-5.048026728428271
3.284666766435696,-5.042114701314477
3.2226186854142758,-5.032287250728688
3.161310112835145,-5.01858316112863
3.100983005625053,-5.0010565162951535
3.0418754473153227,-4.97977648588825
2.9842207084349277,-4.954827052466019
2.9282463258982845,-4.926306680043863
2.8741732050210036,-4.894327925502014
2.8222147477075272,-4.859016994374947
2.7725760102513104,-4.820513242775788
2.7254528940713114,-4.77896862742141
2.681031372578589,-4.734547105928688
2.639486757224211,-4.687423989748689
2.6009830056250527,-4.637785252292473
2.5656720744979853,-4.585826794978996
2.5336933199561362,-4.531753674101715
2.5051729475339806,-4.475779291565073
2.4802235141117484,-4.418124552684677
2.4589434837048465,-4.359016994374947
2.4414168388713686,-4.298689887164854
2.4277127492713113,-4.237381314585724
2.417885298685522,-4.175333233564304
2.4119732715717284,-4.112790519529312
2.41,-4.05
2.4119732715717284,-3.9872094804706864
2.417885298685522,-3.9246667664356956
2.4277127492713113,-3.8626186854142754
2.4414168388713686,-3.8013101128351443
2.4589434837048465,-3.7409830056250515
2.4802235141117484,-3.681875447315322
2.50517294753398,-3.624220708434927
2.5336933199561367,-3.568246325898284
2.5656720744979853,-3.5141732050210033
2.6009830056250527,-3.4622147477075265
2.639486757224211,-3.4125760102513096
2.681031372578589,-3.365452894071312
2.7254528940713114,-3.3210313725785885
2.7725760102513104,-3.27948675722421
2.8222147477075272,-3.2409830056250524
2.874173205021004,-3.205672074497984
2.9282463258982845,-3.1736933199561363
2.9842207084349277,-3.1451729475339794
3.0418754473153227,-3.120223514111748
3.1009830056250527,-3.098943483704846
3.161310112835146,-3.0814168388713687
3.2226186854142758,-3.067712749271311
3.2846667664356954,-3.0578852986855214
3.347209480470687,-3.0519732715717285
3.4099999999999997,-3.05
3.472790519529313,-3.0519732715717285
3.5353332335643044,-3.0578852986855214
3.597381314585724,-3.067712749271311
3.6586898871648548,-3.0814168388713687
3.7190169943749476,-3.098943483704846
3.778124552684678,-3.120223514111748
3.8357792915650717,-3.1451729475339794
3.8917536741017154,-3.1736933199561363
3.945826794978997,-3.205672074497984
3.997785252292472,-3.2409830056250524
4.047423989748689,-3.27948675722421
4.094547105928688,-3.3210313725785885
4.138968627421411,-3.3654528940713107
4.18051324277579,-3.4125760102513096
4.219016994374947,-3.4622147477075265
4.2543279255020146,-3.514173205021002
4.286306680043864,-3.568246325898284
4.314827052466019,-3.624220708434927
4.339776485888251,-3.681875447315322
4.361056516295153,-3.7409830056250524
4.378583161128631,-3.8013101128351443
4.392287250728688,-3.8626186854142754
4.402114701314478,-3.9246667664356947
4.408026728428272,-3.9872094804706864
4.409999999999999,-4.049999999999999"/></g><g stroke-opacity="0.5" stroke="#00ff00" stroke-width="5.0e-2" fill="none"><polyline points="3.41,-5.049999999999999
3.41012336751834,-5.0342926826881795
3.4104934396342688,-5.01858924092187
3.4111101250380305,-5.002893549290356
3.4119732715717292,-4.9872094804706855
3.413082666266872,-4.971540904272154
3.41443803539692,-4.955891686681486
3.4160390445448208,-4.940265688908953
3.4178852986855226,-4.924666766435694
3.4199763422834426,-4.9090987680624165
3.422311659404863,-4.893565534959769
3.4248906738452267,-4.87807089972059
3.4277127492713118,-4.862618685414275
3.430777189378234,-4.8472127046434865
3.434083238061253,-4.831856758603457
3.4376300796023234,-4.816554636144094
3.4414168388713695,-4.801310112835145
3.445442581542202,-4.7861269500346255
3.4497063143230577,-4.77100889396077
3.45420698520167,-4.755959674767695
3.4589434837048465,-4.7409830056250515
3.463914641172455,-4.72608258180185
3.4691192310457746,-4.711262079754708
3.4745559691701327,-4.6965251562207415
3.480223514111749,-4.6818754473153215
3.4861204674887136,-4.667316567634909
3.4922453743160187,-4.652852109365218
3.498596723364555,-4.638485641394891
3.505172947533981,-4.624220708434927
3.511972424239385,-4.610060830144084
3.518993475811632,-4.596009500260453
3.526234369911307,-4.5820701857394255
3.533693319956137,-4.568246325898285
3.541368485561809,-4.554541331567592
3.549257972996057,-4.540958584249628
3.557359835645908,-4.52750143528405
3.5656720744979853,-4.514173205021003
3.57419263863173,-4.5009771820018685
3.582919425725439,-4.487916622147869
3.5918502825749776,-4.474994747956721
3.6009830056250536,-4.4622147477075265
3.61031534151291,-4.449579774674115
3.6198449876243104,-4.437092946347023
3.62956959266167,-4.424757343664295
3.6394867572242107,-4.41257601025131
3.6495940343999695,-4.400551951669816
3.6598889303695405,-4.3886881346763476
3.6703689050213906,-4.376987486490226
3.681031372578589,-4.365452894071311
3.6918737022368115,-4.354087203407685
3.7028932188134522,-4.342893218813452
3.7140872034076855,-4.331873702236811
3.7254528940713114,-4.321031372578588
3.736987486490227,-4.31036890502139
3.7486881346763483,-4.29988893036954
3.7605519516698167,-4.289594034399968
3.772576010251311,-4.27948675722421
3.7847573436642956,-4.26956959266167
3.797092946347024,-4.259844987624309
3.809579774674117,-4.250315341512909
3.822214747707527,-4.240983005625052
3.834994747956722,-4.231850282574976
3.84791662214787,-4.222919425725438
3.8609771820018683,-4.214192638631729
3.874173205021004,-4.2056720744979845
3.8875014352840513,-4.197359835645908
3.9009585842496297,-4.189257972996056
3.914541331567593,-4.1813684855618085
3.9282463258982854,-4.1736933199561355
3.9420701857394262,-4.166234369911306
3.956009500260453,-4.158993475811632
3.9700608301440847,-4.151972424239384
3.984220708434927,-4.14517294753398
3.998485641394891,-4.138596723364555
4.01285210936522,-4.132245374316018
4.02731656763491,-4.126120467488713
4.041875447315322,-4.120223514111748
4.056525156220743,-4.114555969170132
4.0712620797547086,-4.109119231045774
4.0860825818018505,-4.103914641172454
4.100983005625053,-4.098943483704846
4.115959674767696,-4.094206985201669
4.131008893960771,-4.089706314323056
4.146126950034627,-4.0854425815422015
4.161310112835145,-4.081416838871369
4.176554636144094,-4.077630079602323
4.191856758603457,-4.074083238061252
4.207212704643489,-4.070777189378234
4.222618685414275,-4.067712749271311
4.23807089972059,-4.064890673845226
4.253565534959769,-4.062311659404862
4.269098768062417,-4.059976342283442
4.284666766435697,-4.057885298685521
4.300265688908954,-4.05603904454482
4.315891686681486,-4.054438035396919
4.331540904272154,-4.053082666266872
4.347209480470687,-4.051973271571728
4.362893549290357,-4.051110125038029
4.378589240921872,-4.050493439634268
4.394292682688179,-4.050123367518339
4.409999999999999,-4.05"/></g><g stroke-opacity="0.5" fill-opacity="0.3" stroke="#000000" stroke-width="1.0e-2" fill="#00ff00"><path d="M 4.4100,-5.0500 L 3.41,-5.0500 A 1.0 1.0 -0.0 0 0 4.4100,-4.05 L 4.4100,-5.0500"/></g><g stroke-opacity="0.8" fill-opacity="0.3" stroke="#1f78b4" stroke-width="1.0e-2" fill="#1f78b4"><rect height="0.4999999999999991" width="2.9999999999999996" x="2.405" y="-7.339999999999997"/></g><g fill-opacity="1.0" font-size="0.4" stroke="none" stroke-width="0.0" fill="#333333" text-anchor="middle"><text x="3.9050000000000007" y="-6.989999999999999">False</text></g><g stroke-opacity="0.2" stroke="#000000" stroke-width="2.0e-2" fill="none"><polyline points="8.905,-2.01
8.903026728428271,-2.0727905195293133
8.897114701314477,-2.135333233564304
8.887287250728688,-2.197381314585725
8.87358316112863,-2.258689887164855
8.856056516295153,-2.3190169943749472
8.83477648588825,-2.378124552684678
8.80982705246602,-2.4357792915650722
8.781306680043864,-2.4917536741017154
8.749327925502014,-2.545826794978996
8.714016994374948,-2.597785252292473
8.67551324277579,-2.6474239897486895
8.633968627421412,-2.6945471059286885
8.58954710592869,-2.738968627421412
8.54242398974869,-2.780513242775789
8.492785252292473,-2.8190169943749472
8.440826794978996,-2.8543279255020155
8.386753674101715,-2.8863066800438633
8.330779291565072,-2.9148270524660194
8.273124552684678,-2.9397764858882516
8.214016994374946,-2.9610565162951534
8.153689887164855,-2.978583161128631
8.092381314585724,-2.9922872507286886
8.030333233564303,-3.002114701314478
7.967790519529314,-3.008026728428272
7.905,-3.0099999999999993
7.842209480470687,-3.008026728428272
7.779666766435698,-3.002114701314478
7.7176186854142745,-2.9922872507286886
7.656310112835146,-2.978583161128631
7.595983005625053,-2.9610565162951534
7.536875447315323,-2.9397764858882516
7.479220708434928,-2.9148270524660194
7.423246325898285,-2.886306680043863
7.369173205021004,-2.8543279255020155
7.317214747707527,-2.8190169943749472
7.267576010251311,-2.7805132427757893
7.220452894071312,-2.738968627421412
7.1760313725785885,-2.6945471059286885
7.134486757224211,-2.6474239897486895
7.095983005625053,-2.597785252292473
7.060672074497986,-2.545826794978997
7.028693319956137,-2.4917536741017154
7.00017294753398,-2.4357792915650722
6.975223514111749,-2.378124552684678
6.953943483704847,-2.3190169943749472
6.936416838871368,-2.258689887164855
6.922712749271311,-2.197381314585725
6.912885298685523,-2.135333233564304
6.906973271571728,-2.0727905195293133
6.905000000000001,-2.0100000000000002
6.906973271571728,-1.9472094804706868
6.912885298685523,-1.8846667664356958
6.922712749271311,-1.8226186854142752
6.936416838871368,-1.7613101128351452
6.953943483704847,-1.7009830056250523
6.975223514111749,-1.6418754473153219
7.00017294753398,-1.5842207084349278
7.028693319956137,-1.5282463258982848
7.060672074497986,-1.4741732050210037
7.095983005625053,-1.4222147477075269
7.134486757224211,-1.3725760102513103
7.1760313725785885,-1.3254528940713115
7.220452894071312,-1.2810313725785882
7.267576010251311,-1.2394867572242108
7.317214747707527,-1.200983005625053
7.369173205021004,-1.1656720744979847
7.423246325898285,-1.1336933199561363
7.479220708434928,-1.1051729475339802
7.536875447315323,-1.0802235141117484
7.595983005625053,-1.0589434837048466
7.656310112835146,-1.0414168388713687
7.7176186854142745,-1.0277127492713114
7.779666766435696,-1.0178852986855222
7.842209480470687,-1.0119732715717284
7.905,-1.01
7.967790519529314,-1.0119732715717284
8.030333233564303,-1.0178852986855222
8.092381314585724,-1.0277127492713114
8.153689887164855,-1.041416838871369
8.214016994374946,-1.0589434837048464
8.273124552684676,-1.0802235141117484
8.330779291565072,-1.1051729475339802
8.386753674101715,-1.1336933199561368
8.440826794978996,-1.1656720744979847
8.492785252292473,-1.2009830056250523
8.54242398974869,-1.2394867572242103
8.58954710592869,-1.2810313725785882
8.633968627421412,-1.325452894071311
8.67551324277579,-1.3725760102513103
8.714016994374948,-1.4222147477075269
8.749327925502014,-1.4741732050210026
8.781306680043864,-1.5282463258982848
8.80982705246602,-1.584220708434927
8.83477648588825,-1.641875447315322
8.856056516295153,-1.7009830056250523
8.87358316112863,-1.7613101128351454
8.887287250728688,-1.8226186854142754
8.897114701314477,-1.8846667664356953
8.903026728428271,-1.9472094804706868
8.905,-2.01"/></g><g stroke-opacity="0.2" stroke="#000000" stroke-width="2.0e-2" fill="none"><polyline points="7.905,-1.01
7.903026728428272,-1.0727905195293135
7.897114701314477,-1.1353332335643043
7.887287250728688,-1.1973813145857246
7.873583161128632,-1.258689887164855
7.856056516295153,-1.3190169943749475
7.834776485888252,-1.3781245526846777
7.80982705246602,-1.4357792915650727
7.781306680043865,-1.4917536741017154
7.749327925502016,-1.5458267949789968
7.714016994374947,-1.597785252292473
7.67551324277579,-1.6474239897486895
7.633968627421411,-1.6945471059286885
7.589547105928689,-1.7389686274214113
7.5424239897486896,-1.7805132427757893
7.492785252292473,-1.8190169943749472
7.440826794978996,-1.8543279255020149
7.386753674101715,-1.8863066800438635
7.330779291565073,-1.9148270524660198
7.273124552684679,-1.9397764858882511
7.214016994374948,-1.9610565162951534
7.153689887164855,-1.9785831611286313
7.092381314585726,-1.9922872507286886
7.0303332335643045,-2.0021147013144778
6.967790519529313,-2.0080267284282716
6.905000000000001,-2.01
6.842209480470687,-2.0080267284282716
6.779666766435696,-2.0021147013144778
6.7176186854142745,-1.9922872507286886
6.656310112835145,-1.9785831611286313
6.595983005625054,-1.9610565162951534
6.536875447315324,-1.9397764858882516
6.479220708434927,-1.9148270524660194
6.423246325898284,-1.8863066800438635
6.369173205021005,-1.8543279255020149
6.317214747707527,-1.8190169943749475
6.267576010251311,-1.7805132427757893
6.220452894071312,-1.7389686274214113
6.1760313725785885,-1.694547105928689
6.134486757224211,-1.64742398974869
6.095983005625052,-1.597785252292473
6.060672074497987,-1.5458267949789968
6.028693319956137,-1.4917536741017152
6.00017294753398,-1.435779291565073
5.975223514111749,-1.3781245526846782
5.953943483704847,-1.3190169943749475
5.936416838871369,-1.258689887164855
5.922712749271311,-1.1973813145857246
5.912885298685523,-1.135333233564304
5.9069732715717285,-1.0727905195293137
5.904999999999999,-1.0100000000000002
5.9069732715717285,-0.9472094804706868
5.912885298685523,-0.8846667664356958
5.922712749271311,-0.8226186854142752
5.936416838871369,-0.7613101128351454
5.953943483704847,-0.7009830056250523
5.975223514111749,-0.6418754473153221
6.00017294753398,-0.5842207084349279
6.028693319956137,-0.5282463258982846
6.060672074497985,-0.4741732050210037
6.095983005625052,-0.422214747707527
6.134486757224211,-0.3725760102513104
6.1760313725785885,-0.3254528940713116
6.220452894071312,-0.28103137257858846
6.267576010251311,-0.23948675722421062
6.317214747707527,-0.20098300562505264
6.369173205021005,-0.16567207449798468
6.423246325898284,-0.13369331995613642
6.479220708434927,-0.10517294753398018
6.536875447315324,-8.022351411174858e-2
6.595983005625054,-5.894348370484648e-2
6.656310112835145,-4.141683887136882e-2
6.7176186854142745,-2.7712749271311288e-2
6.779666766435696,-1.7885298685522244e-2
6.842209480470687,-1.197327157172845e-2
6.905000000000001,-1.0000000000000009e-2
6.967790519529313,-1.197327157172845e-2
7.0303332335643045,-1.7885298685522133e-2
7.092381314585726,-2.7712749271311288e-2
7.153689887164855,-4.141683887136893e-2
7.214016994374948,-5.894348370484637e-2
7.273124552684679,-8.022351411174844e-2
7.330779291565071,-0.1051729475339801
7.3867536741017155,-0.13369331995613665
7.440826794978996,-0.1656720744979849
7.492785252292473,-0.20098300562505242
7.542423989748689,-0.2394867572242104
7.589547105928688,-0.28103137257858846
7.633968627421411,-0.32545289407131106
7.67551324277579,-0.3725760102513104
7.714016994374947,-0.42221474770752676
7.749327925502014,-0.4741732050210029
7.781306680043865,-0.5282463258982847
7.80982705246602,-0.584220708434927
7.834776485888252,-0.6418754473153222
7.856056516295153,-0.7009830056250523
7.873583161128632,-0.7613101128351455
7.887287250728688,-0.8226186854142754
7.897114701314477,-0.8846667664356952
7.903026728428272,-0.9472094804706868
7.905,-1.0099999999999998"/></g><g stroke-opacity="0.5" stroke="#0000ff" stroke-width="5.0e-2" fill="none"><polyline points="6.905000000000001,-2.01
6.90611012503803,-2.057106450709643
6.909438035396921,-2.1041083133185143
6.914976342283442,-2.1509012319375826
6.922712749271311,-2.197381314585725
6.9326300796023235,-2.2434453638559053
6.9447063143230565,-2.2889911060392287
6.958914641172455,-2.3339174181981495
6.975223514111749,-2.378124552684678
6.993596723364554,-2.4215143586051084
7.013993475811633,-2.463990499739546
7.036368485561809,-2.505458668432407
7.060672074497986,-2.545826794978996
7.086850282574977,-2.585005252043278
7.11484498762431,-2.6229070536529755
7.144594034399969,-2.6594480483301832
7.1760313725785885,-2.6945471059286885
7.209087203407686,-2.728126297763189
7.243688134676347,-2.76011106963046
7.279757343664296,-2.79043040733833
7.317214747707527,-2.8190169943749472
7.355977182001867,-2.84580736136827
7.3959585842496285,-2.8707420270039434
7.437070185739427,-2.8937656300886934
7.479220708434928,-2.914827052466019
7.52231656763491,-2.9338795325112867
7.5662620797547095,-2.950880768954225
7.610959674767695,-2.9657930147983302
7.656310112835146,-2.978583161128631
7.702212704643489,-2.989222810621766
7.748565534959768,-2.9976883405951376
7.795265688908955,-3.003960955455179
7.842209480470687,-3.008026728428272
7.889292682688179,-3.0098766324816606
7.936410759078128,-3.009506560365731
7.983459095727846,-3.006917333733128
8.030333233564303,-3.002114701314478
8.076929100279408,-2.995109326154774
8.12314324139654,-2.9859167619387468
8.168873049965374,-2.974557418457798
8.214016994374946,-2.9610565162951534
8.258474843779256,-2.945444030829868
8.30214789063478,-2.927754625683981
8.344939169855914,-2.9080275757606158
8.386753674101715,-2.886306680043863
8.427498564715947,-2.8626401643540924
8.46708337785213,-2.837080574274562
8.505420225325883,-2.80968465848709
8.54242398974869,-2.7805132427757897
8.578012513509773,-2.74963109497861
8.612106781186547,-2.7171067811865472
8.644631094978608,-2.683012513509774
8.67551324277579,-2.6474239897486895
8.704684658487093,-2.610420225325884
8.732080574274562,-2.5720833778521306
8.757640164354093,-2.532498564715949
8.781306680043864,-2.4917536741017154
8.803027575760614,-2.4499391698559156
8.82275462568398,-2.4071478906347803
8.840444030829866,-2.363474843779257
8.856056516295153,-2.3190169943749477
8.869557418457797,-2.2738730499653723
8.88091676193875,-2.2281432413965434
8.890109326154773,-2.18192910027941
8.897114701314477,-2.135333233564304
8.901917333733127,-2.0884590957278455
8.90450656036573,-2.0414107590781283
8.90487663248166,-1.994292682688179
8.903026728428271,-1.9472094804706872
8.89896095545518,-1.9002656889089549
8.89268834059514,-1.8535655349597686
8.884222810621766,-1.807212704643488
8.87358316112863,-1.7613101128351452
8.860793014798332,-1.7159596747676953
8.845880768954226,-1.671262079754709
8.828879532511285,-1.62731656763491
8.80982705246602,-1.584220708434928
8.788765630088694,-1.5420701857394266
8.765742027003945,-1.5009585842496282
8.74080736136827,-1.4609771820018687
8.714016994374948,-1.422214747707527
8.685430407338329,-1.3847573436642944
8.65511106963046,-1.348688134676349
8.62312629776319,-1.3140872034076858
8.589547105928688,-1.281031372578588
8.554448048330183,-1.249594034399969
8.517907053652976,-1.2198449876243096
8.480005252043279,-1.1918502825749768
8.440826794978996,-1.1656720744979847
8.400458668432407,-1.141368485561809
8.358990499739548,-1.1189934758116324
8.316514358605108,-1.0985967233645546
8.273124552684678,-1.0802235141117484
8.228917418198149,-1.0639146411724547
8.18399110603923,-1.049706314323057
8.138445363855904,-1.0376300796023235
8.092381314585724,-1.0277127492713114
8.045901231937583,-1.0199763422834425
7.999108313318515,-1.0144380353969198
7.9521064507096435,-1.01111012503803
7.905,-1.01"/></g><g stroke-opacity="0.5" fill-opacity="0.3" stroke="#000000" stroke-width="1.0e-2" fill="#0000ff"><path d="M 7.905,-2.01 L 6.9050,-2.01 A 1.0 1.0 -0.0 1 1 7.905,-1.01 L 7.905,-2.01"/></g><g stroke-opacity="0.2" stroke="#000000" stroke-width="2.0e-2" fill="none"><polyline points="8.91987663248166,-5.06487663248166
8.917903360909932,-5.1276671520109725
8.911991333796138,-5.190209866045965
8.90216388321035,-5.252257947067385
8.888459793610291,-5.313566519646515
8.870933148776814,-5.373893626856607
8.849653118369911,-5.433001185166338
8.824703684947682,-5.490655924046733
8.796183312525523,-5.546630306583376
8.764204557983675,-5.600703427460656
8.728893626856609,-5.652661884774133
8.69038987525745,-5.70230062223035
8.648845259903071,-5.749423738410349
8.60442373841035,-5.793845259903071
8.557300622230349,-5.835389875257449
8.507661884774134,-5.873893626856608
8.455703427460657,-5.909204557983675
8.401630306583375,-5.941183312525524
8.345655924046733,-5.96970368494768
8.288001185166339,-5.994653118369911
8.228893626856607,-6.0159331487768135
8.168566519646514,-6.033459793610291
8.107257947067385,-6.047163883210349
8.045209866045964,-6.056991333796137
7.982667152010975,-6.062903360909932
7.91987663248166,-6.06487663248166
7.857086112952348,-6.062903360909932
7.794543398917357,-6.056991333796137
7.7324953178959355,-6.047163883210349
7.671186745316806,-6.033459793610291
7.610859638106713,-6.0159331487768135
7.551752079796983,-5.994653118369911
7.494097340916587,-5.96970368494768
7.438122958379944,-5.941183312525524
7.384049837502664,-5.909204557983675
7.332091380189188,-5.873893626856608
7.28245264273297,-5.835389875257449
7.235329526552973,-5.793845259903071
7.19090800506025,-5.749423738410349
7.14936338970587,-5.70230062223035
7.110859638106714,-5.652661884774133
7.075548706979645,-5.600703427460657
7.043569952437797,-5.546630306583376
7.015049580015641,-5.490655924046733
6.9901001465934085,-5.433001185166338
6.9688201161865075,-5.373893626856607
6.951293471353029,-5.313566519646515
6.937589381752972,-5.252257947067385
6.9277619311671845,-5.190209866045963
6.921849904053389,-5.1276671520109725
6.91987663248166,-5.064876632481661
6.921849904053389,-5.002086112952348
6.9277619311671845,-4.9395433989173565
6.937589381752972,-4.877495317895936
6.951293471353029,-4.816186745316805
6.9688201161865075,-4.755859638106713
6.9901001465934085,-4.696752079796982
7.015049580015641,-4.639097340916588
7.043569952437797,-4.583122958379944
7.075548706979645,-4.529049837502665
7.110859638106714,-4.477091380189187
7.14936338970587,-4.427452642732971
7.19090800506025,-4.3803295265529725
7.235329526552974,-4.335908005060249
7.28245264273297,-4.294363389705871
7.332091380189188,-4.255859638106713
7.384049837502664,-4.2205487069796455
7.438122958379944,-4.188569952437797
7.494097340916587,-4.160049580015641
7.551752079796983,-4.135100146593409
7.610859638106713,-4.113820116186507
7.671186745316807,-4.09629347135303
7.7324953178959355,-4.082589381752972
7.794543398917356,-4.072761931167182
7.857086112952348,-4.066849904053389
7.91987663248166,-4.064876632481661
7.982667152010975,-4.066849904053389
8.045209866045964,-4.072761931167182
8.107257947067383,-4.082589381752972
8.168566519646514,-4.09629347135303
8.228893626856607,-4.113820116186507
8.288001185166337,-4.135100146593409
8.345655924046731,-4.160049580015641
8.401630306583375,-4.188569952437797
8.455703427460657,-4.2205487069796455
8.507661884774132,-4.255859638106713
8.557300622230349,-4.294363389705871
8.60442373841035,-4.335908005060249
8.648845259903071,-4.380329526552972
8.69038987525745,-4.427452642732971
8.728893626856609,-4.477091380189187
8.764204557983675,-4.529049837502663
8.796183312525523,-4.583122958379945
8.824703684947682,-4.639097340916588
8.849653118369911,-4.696752079796982
8.870933148776814,-4.755859638106713
8.888459793610291,-4.816186745316805
8.90216388321035,-4.877495317895936
8.911991333796138,-4.939543398917356
8.917903360909932,-5.002086112952348
8.91987663248166,-5.06487663248166"/></g><g stroke-opacity="0.2" stroke="#000000" stroke-width="2.0e-2" fill="none"><polyline points="7.91987663248166,-4.064876632481661
7.917903360909933,-4.127667152010974
7.911991333796139,-4.190209866045965
7.90216388321035,-4.252257947067386
7.888459793610291,-4.313566519646515
7.870933148776815,-4.373893626856608
7.849653118369912,-4.433001185166338
7.82470368494768,-4.490655924046733
7.7961833125255255,-4.546630306583375
7.764204557983675,-4.600703427460657
7.728893626856609,-4.652661884774132
7.69038987525745,-4.70230062223035
7.648845259903073,-4.749423738410348
7.6044237384103495,-4.793845259903072
7.5573006222303505,-4.83538987525745
7.5076618847741345,-4.873893626856608
7.455703427460657,-4.909204557983675
7.4016303065833755,-4.941183312525524
7.345655924046733,-4.96970368494768
7.2880011851663395,-4.994653118369912
7.228893626856609,-5.015933148776813
7.168566519646515,-5.03345979361029
7.107257947067386,-5.047163883210349
7.045209866045966,-5.056991333796138
6.982667152010975,-5.062903360909931
6.91987663248166,-5.06487663248166
6.857086112952349,-5.062903360909931
6.794543398917358,-5.056991333796138
6.7324953178959355,-5.047163883210349
6.671186745316806,-5.03345979361029
6.610859638106713,-5.015933148776813
6.551752079796982,-4.994653118369912
6.494097340916588,-4.96970368494768
6.438122958379945,-4.941183312525524
6.384049837502665,-4.909204557983675
6.332091380189189,-4.873893626856608
6.282452642732971,-4.83538987525745
6.235329526552972,-4.793845259903072
6.190908005060249,-4.749423738410348
6.149363389705873,-4.70230062223035
6.110859638106715,-4.652661884774133
6.075548706979646,-4.600703427460657
6.043569952437796,-4.546630306583375
6.015049580015641,-4.490655924046734
5.990100146593409,-4.433001185166338
5.968820116186508,-4.373893626856608
5.951293471353029,-4.313566519646515
5.9375893817529715,-4.252257947067385
5.927761931167183,-4.190209866045965
5.9218499040533885,-4.127667152010974
5.919876632481661,-4.064876632481661
5.9218499040533885,-4.002086112952347
5.927761931167183,-3.9395433989173565
5.9375893817529715,-3.8774953178959355
5.951293471353029,-3.8161867453168057
5.968820116186508,-3.7558596381067124
5.990100146593409,-3.6967520797969824
6.015049580015641,-3.6390973409165874
6.043569952437798,-3.5831229583799455
6.075548706979646,-3.5290498375026638
6.110859638106715,-3.4770913801891874
6.14936338970587,-3.4274526427329706
6.190908005060249,-3.3803295265529725
6.235329526552972,-3.335908005060249
6.282452642732971,-3.294363389705871
6.332091380189189,-3.2558596381067133
6.384049837502665,-3.220548706979645
6.438122958379946,-3.188569952437797
6.494097340916588,-3.1600495800156403
6.551752079796982,-3.135100146593409
6.610859638106713,-3.113820116186507
6.671186745316806,-3.09629347135303
6.7324953178959355,-3.082589381752972
6.794543398917355,-3.0727619311671823
6.857086112952349,-3.066849904053389
6.91987663248166,-3.0648766324816608
6.982667152010973,-3.066849904053389
7.045209866045966,-3.0727619311671823
7.107257947067385,-3.082589381752972
7.168566519646515,-3.09629347135303
7.228893626856608,-3.113820116186507
7.288001185166339,-3.135100146593409
7.345655924046732,-3.1600495800156403
7.4016303065833755,-3.188569952437797
7.455703427460657,-3.220548706979645
7.507661884774134,-3.2558596381067133
7.5573006222303505,-3.294363389705871
7.6044237384103495,-3.335908005060249
7.648845259903073,-3.380329526552972
7.69038987525745,-3.4274526427329706
7.728893626856609,-3.4770913801891874
7.764204557983675,-3.529049837502663
7.7961833125255255,-3.5831229583799455
7.82470368494768,-3.6390973409165874
7.849653118369912,-3.6967520797969824
7.870933148776815,-3.7558596381067137
7.888459793610291,-3.8161867453168057
7.90216388321035,-3.8774953178959355
7.911991333796139,-3.9395433989173556
7.917903360909933,-4.002086112952347
7.91987663248166,-4.06487663248166"/></g><g stroke-opacity="0.5" stroke="#ff0000" stroke-width="5.0e-2" fill="none"><polyline points="6.91987663248166,-5.06487663248166
6.872770181772018,-5.06376650744363
6.825768319163146,-5.060438597084739
6.778975400544077,-5.0549002901982165
6.7324953178959355,-5.047163883210349
6.686431268625755,-5.037246552879337
6.640885526442432,-5.025170318158604
6.595959214283511,-5.0109619913092045
6.551752079796982,-4.994653118369912
6.508362273876553,-4.976279909117106
6.4658861327421135,-4.955883156670028
6.424417964049254,-4.933508146919852
6.384049837502665,-4.909204557983675
6.3448713804383825,-4.883026349906684
6.306969578828685,-4.855031644857351
6.270428584151478,-4.825282598081691
6.235329526552972,-4.793845259903072
6.201750334718472,-4.7607894290739745
6.169765562851201,-4.726188497805312
6.13944622514333,-4.690119288817366
6.110859638106715,-4.652661884774133
6.084069271113391,-4.613899450479791
6.059134605477716,-4.573918048232032
6.036111002392968,-4.532806446742234
6.015049580015641,-4.490655924046734
5.995997099970374,-4.44756006484675
5.978995863527436,-4.4036145527269515
5.96408361768333,-4.358916957713965
5.951293471353029,-4.313566519646515
5.940653821859895,-4.267663927838173
5.932188291886522,-4.221311097521892
5.925915677026481,-4.174610943572707
5.9218499040533885,-4.127667152010973
5.92,-4.080583949793481
5.920370072115929,-4.033465873403532
5.922959298748532,-3.986417536753815
5.927761931167183,-3.9395433989173565
5.934767306326886,-3.8929475322022515
5.943959870542914,-3.8467333910851185
5.955319214023862,-3.801003582516288
5.968820116186508,-3.7558596381067137
5.984432601651792,-3.7114017887024033
6.002122006797679,-3.667728741846879
6.021849056721045,-3.6249374626257453
6.043569952437798,-3.5831229583799455
6.067236468127568,-3.5423780677657115
6.0927960582070995,-3.502793254629529
6.1201919739945705,-3.464456407155777
6.14936338970587,-3.4274526427329706
6.180245537503051,-3.391864118971887
6.212769851295113,-3.357769851295113
6.246864118971888,-3.3252455375030503
6.282452642732971,-3.294363389705871
6.319456407155776,-3.2651919739945705
6.357793254629529,-3.237796058207099
6.397378067765711,-3.2122364681275672
6.438122958379946,-3.188569952437797
6.479937462625745,-3.166849056721045
6.522728741846882,-3.147122006797679
6.566401788702403,-3.1294326016517924
6.610859638106713,-3.113820116186507
6.656003582516288,-3.1003192140238625
6.701733391085118,-3.088959870542913
6.747947532202251,-3.079767306326887
6.794543398917358,-3.0727619311671823
6.8414175367538155,-3.067959298748533
6.888465873403532,-3.0653700721159285
6.935583949793483,-3.0649999999999995
6.982667152010973,-3.066849904053389
7.029610943572706,-3.07091567702648
7.076311097521892,-3.077188291886522
7.122663927838172,-3.0856538218598946
7.168566519646515,-3.09629347135303
7.213916957713966,-3.10908361768333
7.258614552726952,-3.1239958635274347
7.302560064846751,-3.140997099970374
7.345655924046732,-3.1600495800156403
7.387806446742235,-3.181111002392967
7.428918048232032,-3.2041346054777162
7.468899450479791,-3.229069271113389
7.507661884774134,-3.2558596381067133
7.545119288817366,-3.2844462251433306
7.581188497805311,-3.3147655628512007
7.615789429073976,-3.3467503347184717
7.648845259903073,-3.3803295265529725
7.680282598081692,-3.415428584151477
7.710031644857351,-3.4519695788286833
7.738026349906685,-3.4898713804383816
7.7642045579836765,-3.5290498375026638
7.7885081469198525,-3.5694179640492534
7.810883156670028,-3.6108861327421127
7.8312799091171055,-3.653362273876552
7.849653118369912,-3.6967520797969824
7.865961991309206,-3.7409592142835115
7.880170318158604,-3.78588552644243
7.892246552879338,-3.831431268625756
7.90216388321035,-3.8774953178959355
7.909900290198219,-3.9239754005440775
7.915438597084741,-3.970768319163146
7.918766507443631,-4.0177701817720175
7.91987663248166,-4.06487663248166"/></g><g stroke-opacity="0.5" fill-opacity="0.3" stroke="#000000" stroke-width="1.0e-2" fill="#ff0000"><path d="M 7.9199,-5.0649 L 6.9199,-5.0649 A 1.0 1.0 -0.0 1 0 7.9199,-4.0649 L 7.9199,-5.0649"/></g><g stroke-opacity="0.8" fill-opacity="0.3" stroke="#1f78b4" stroke-width="1.0e-2" fill="#1f78b4"><rect height="0.5000000000000009" width="3.0000000000000027" x="5.8999999999999995" y="-7.354876632481659"/></g><g fill-opacity="1.0" font-size="0.4" stroke="none" stroke-width="0.0" fill="#333333" text-anchor="middle"><text x="7.4" y="-7.004876632481659">True</text></g><g stroke-opacity="0.8" fill-opacity="0.3" stroke="#1f78b4" stroke-width="1.0e-2" fill="#1f78b4"><rect height="0.7499999999999982" width="9.0" x="5.0000000000000044e-3" y="-8.144876632481658"/></g><g fill-opacity="1.0" font-size="0.6" stroke="none" stroke-width="0.0" fill="#333333" text-anchor="middle"><text x="5.505" y="-7.594876632481659">Large</text></g><g></g></svg>