<svg xmlns="http://www.w3.org/2000/svg" xmlns:xlink="http://www.w3.org/1999/xlink" width="334" height="300" viewBox="0 -4.4024 9.0 8.0705"><style>svg {
  color-scheme: light dark;
}
{
  .canvas g, .title g, .axisbar g, .ticktext g, .tickglyph g, .ticklines g, .legendContent g text {
    fill: rgb(5%, 5%, 5%);
  }
  .ticklines g, .tickglyph g, .legendBorder g {
    stroke: rgb(5%, 5%, 5%);
  }
  .legendBorder g {
    fill: rgb(94%, 94%, 94%);
  }
}
@media (prefers-color-scheme:dark) {
  .canvas g, .title g, .axisbar g, .ticktext g, .tickglyph g, .ticklines g, .legendContent g text {
    fill: rgb(94%, 94%, 94%);
  }
  .ticklines g, .tickglyph g, .legendBorder g {
    stroke: rgb(94%, 94%, 94%);
  }
  .legendBorder g {
    fill: rgb(5%, 5%, 5%);
  }
}
{
  .chart g {
    stroke: rgba(5%, 5%, 5%, 1.00);
  }
  .chart g text {
    fill: rgba(5%, 5%, 5%, 1.00);
  }
}
@media (prefers-color-scheme:dark) {
  .chart g {
    stroke: rgba(94%, 94%, 94%, 1.00);
  }
  .chart g text {
    fill: rgba(94%, 94%, 94%, 1.00);
  }
}
</style><g class="chart"><g stroke-width="0.0" stroke="none" fill="rgb(5%, 5%, 5%)" fill-opacity="1.0" font-size="0.6" text-anchor="middle"><text x="0.5" y="0.2012" transform="rotate(-90.0, 0.5, 0.2012)">Sweep</text></g><g stroke-width="0.0" stroke="none" fill="rgb(5%, 5%, 5%)" fill-opacity="1.0" font-size="0.4" text-anchor="middle"><text x="1.5700" y="1.6245" transform="rotate(-90.0, 1.5700, 1.6245)">True</text></g><g stroke-width="0.0" stroke="none" fill="rgb(5%, 5%, 5%)" fill-opacity="1.0" font-size="0.4" text-anchor="middle"><text x="1.5700" y="-1.2221" transform="rotate(-90.0, 1.5700, -1.2221)">False</text></g><g stroke-width="0.0200" stroke="rgb(5%, 5%, 5%)" stroke-opacity="0.2" fill="none"><polyline points="5.1500,1.7659 5.1480,1.7067 5.1421,1.6477 5.1323,1.5892 5.1186,1.5315 5.1011,1.4746 5.0798,1.4189 5.0548,1.3645 5.0263,1.3118 4.9943,1.2608 4.9590,1.2118 4.9205,1.1650 4.8790,1.1206 4.8345,1.0788 4.7874,1.0396 4.7378,1.0033 4.6858,0.9700 4.6318,0.9399 4.5758,0.9130 4.5181,0.8895 4.4590,0.8694 4.3987,0.8529 4.3374,0.8400 4.2753,0.8307 4.2128,0.8251 4.15,0.8233 4.0872,0.8251 4.0247,0.8307 3.9626,0.8400 3.9013,0.8529 3.8410,0.8694 3.7819,0.8895 3.7242,0.9130 3.6682,0.9399 3.6142,0.9700 3.5622,1.0033 3.5126,1.0396 3.4655,1.0788 3.4210,1.1206 3.3795,1.1650 3.3410,1.2118 3.3057,1.2608 3.2737,1.3118 3.2452,1.3645 3.2202,1.4189 3.1989,1.4746 3.1814,1.5315 3.1677,1.5892 3.1579,1.6477 3.1520,1.7067 3.15,1.7659 3.1520,1.8250 3.1579,1.8840 3.1677,1.9425 3.1814,2.0003 3.1989,2.0571 3.2202,2.1128 3.2452,2.1672 3.2737,2.2199 3.3057,2.2709 3.3410,2.3199 3.3795,2.3667 3.4210,2.4111 3.4655,2.4530 3.5126,2.4921 3.5622,2.5284 3.6142,2.5617 3.6682,2.5918 3.7242,2.6187 3.7819,2.6422 3.8410,2.6623 3.9013,2.6788 3.9626,2.6917 4.0247,2.7010 4.0872,2.7066 4.15,2.7084 4.2128,2.7066 4.2753,2.7010 4.3374,2.6917 4.3987,2.6788 4.4590,2.6623 4.5181,2.6422 4.5758,2.6187 4.6318,2.5918 4.6858,2.5617 4.7378,2.5284 4.7874,2.4921 4.8345,2.4530 4.8790,2.4111 4.9205,2.3667 4.9590,2.3199 4.9943,2.2709 5.0263,2.2199 5.0548,2.1672 5.0798,2.1128 5.1011,2.0571 5.1186,2.0003 5.1323,1.9425 5.1421,1.8840 5.1480,1.8250 5.1500,1.7659"/></g><g stroke-width="0.0200" stroke="rgb(5%, 5%, 5%)" stroke-opacity="0.2" fill="none"><polyline points="4.15,2.7084 4.1480,2.6492 4.1421,2.5903 4.1323,2.5318 4.1186,2.4740 4.1011,2.4172 4.0798,2.3614 4.0548,2.3071 4.0263,2.2543 3.9943,2.2034 3.9590,2.1544 3.9205,2.1076 3.8790,2.0632 3.8345,2.0213 3.7874,1.9822 3.7378,1.9459 3.6858,1.9126 3.6318,1.8824 3.5758,1.8556 3.5181,1.8320 3.4590,1.8120 3.3987,1.7955 3.3374,1.7826 3.2753,1.7733 3.2128,1.7677 3.15,1.7659 3.0872,1.7677 3.0247,1.7733 2.9626,1.7826 2.9013,1.7955 2.8410,1.8120 2.7819,1.8320 2.7242,1.8556 2.6682,1.8824 2.6142,1.9126 2.5622,1.9459 2.5126,1.9822 2.4655,2.0213 2.4210,2.0632 2.3795,2.1076 2.3410,2.1544 2.3057,2.2034 2.2737,2.2543 2.2452,2.3071 2.2202,2.3614 2.1989,2.4172 2.1814,2.4740 2.1677,2.5318 2.1579,2.5903 2.1520,2.6492 2.1500,2.7084 2.1520,2.7676 2.1579,2.8266 2.1677,2.8851 2.1814,2.9428 2.1989,2.9997 2.2202,3.0554 2.2452,3.1098 2.2737,3.1625 2.3057,3.2135 2.3410,3.2625 2.3795,3.3092 2.4210,3.3537 2.4655,3.3955 2.5126,3.4347 2.5622,3.4710 2.6142,3.5043 2.6682,3.5344 2.7242,3.5613 2.7819,3.5848 2.8410,3.6049 2.9013,3.6214 2.9626,3.6343 3.0247,3.6436 3.0872,3.6491 3.15,3.6510 3.2128,3.6491 3.2753,3.6436 3.3374,3.6343 3.3987,3.6214 3.4590,3.6049 3.5181,3.5848 3.5758,3.5613 3.6318,3.5344 3.6858,3.5043 3.7378,3.4710 3.7874,3.4347 3.8345,3.3955 3.8790,3.3537 3.9205,3.3092 3.9590,3.2625 3.9943,3.2135 4.0263,3.1625 4.0548,3.1098 4.0798,3.0554 4.1011,2.9997 4.1186,2.9428 4.1323,2.8851 4.1421,2.8266 4.1480,2.7676 4.15,2.7084"/></g><g stroke-width="0.0500" stroke="rgb(5%, 5%, 5%)" stroke-opacity="0.5" fill="none"><polyline points="3.15,1.7659 3.1657,1.7660 3.1814,1.7663 3.1971,1.7669 3.2128,1.7677 3.2285,1.7688 3.2441,1.7700 3.2597,1.7716 3.2753,1.7733 3.2909,1.7753 3.3064,1.7775 3.3219,1.7799 3.3374,1.7826 3.3528,1.7854 3.3681,1.7886 3.3834,1.7919 3.3987,1.7955 3.4139,1.7993 3.4290,1.8033 3.4440,1.8075 3.4590,1.8120 3.4739,1.8167 3.4887,1.8216 3.5035,1.8267 3.5181,1.8320 3.5327,1.8376 3.5471,1.8434 3.5615,1.8494 3.5758,1.8556 3.5899,1.8620 3.6040,1.8686 3.6179,1.8754 3.6318,1.8824 3.6455,1.8897 3.6590,1.8971 3.6725,1.9048 3.6858,1.9126 3.6990,1.9206 3.7121,1.9288 3.7250,1.9373 3.7378,1.9459 3.7504,1.9547 3.7629,1.9637 3.7752,1.9728 3.7874,1.9822 3.7994,1.9917 3.8113,2.0014 3.8230,2.0113 3.8345,2.0213 3.8459,2.0315 3.8571,2.0419 3.8681,2.0525 3.8790,2.0632 3.8896,2.0741 3.9001,2.0851 3.9104,2.0963 3.9205,2.1076 3.9304,2.1191 3.9402,2.1307 3.9497,2.1425 3.9590,2.1544 3.9681,2.1664 3.9771,2.1786 3.9858,2.1909 3.9943,2.2034 4.0026,2.2159 4.0107,2.2286 4.0186,2.2414 4.0263,2.2543 4.0338,2.2674 4.0410,2.2805 4.0480,2.2938 4.0548,2.3071 4.0614,2.3205 4.0678,2.3341 4.0739,2.3477 4.0798,2.3614 4.0854,2.3753 4.0909,2.3891 4.0961,2.4031 4.1011,2.4172 4.1058,2.4313 4.1103,2.4455 4.1146,2.4597 4.1186,2.4740 4.1224,2.4884 4.1259,2.5028 4.1292,2.5173 4.1323,2.5318 4.1351,2.5464 4.1377,2.5610 4.1400,2.5756 4.1421,2.5903 4.1440,2.6050 4.1456,2.6197 4.1469,2.6345 4.1480,2.6492 4.1489,2.6640 4.1495,2.6788 4.1499,2.6936 4.15,2.7084"/></g><g stroke-width="0.0100" stroke="rgb(5%, 5%, 5%)" stroke-opacity="0.5" fill="rgb(5%, 5%, 5%)" fill-opacity="0.3"><path d="M 4.15,1.7659 L 3.15,1.7659 A 1.0 0.9426 0 0 1 4.15,2.7084 L 4.15,1.7659"/></g><g stroke-width="0.0200" stroke="rgb(5%, 5%, 5%)" stroke-opacity="0.2" fill="none"><polyline points="5.1500,-1.0996 5.1480,-1.1587 5.1421,-1.2177 5.1323,-1.2762 5.1186,-1.3340 5.1011,-1.3908 5.0798,-1.4465 5.0548,-1.5009 5.0263,-1.5536 4.9943,-1.6046 4.9590,-1.6536 4.9205,-1.7004 4.8790,-1.7448 4.8345,-1.7867 4.7874,-1.8258 4.7378,-1.8621 4.6858,-1.8954 4.6318,-1.9255 4.5758,-1.9524 4.5181,-1.9759 4.4590,-1.9960 4.3987,-2.0125 4.3374,-2.0254 4.2753,-2.0347 4.2128,-2.0403 4.15,-2.0421 4.0872,-2.0403 4.0247,-2.0347 3.9626,-2.0254 3.9013,-2.0125 3.8410,-1.9960 3.7819,-1.9759 3.7242,-1.9524 3.6682,-1.9255 3.6142,-1.8954 3.5622,-1.8621 3.5126,-1.8258 3.4655,-1.7867 3.4210,-1.7448 3.3795,-1.7004 3.3410,-1.6536 3.3057,-1.6046 3.2737,-1.5536 3.2452,-1.5009 3.2202,-1.4465 3.1989,-1.3908 3.1814,-1.3340 3.1677,-1.2762 3.1579,-1.2177 3.1520,-1.1587 3.15,-1.0996 3.1520,-1.0404 3.1579,-0.9814 3.1677,-0.9229 3.1814,-0.8651 3.1989,-0.8083 3.2202,-0.7526 3.2452,-0.6982 3.2737,-0.6455 3.3057,-0.5945 3.3410,-0.5455 3.3795,-0.4987 3.4210,-0.4543 3.4655,-0.4125 3.5126,-0.3733 3.5622,-0.3370 3.6142,-0.3037 3.6682,-0.2736 3.7242,-0.2467 3.7819,-0.2232 3.8410,-0.2031 3.9013,-0.1866 3.9626,-0.1737 4.0247,-0.1644 4.0872,-0.1588 4.15,-0.1570 4.2128,-0.1588 4.2753,-0.1644 4.3374,-0.1737 4.3987,-0.1866 4.4590,-0.2031 4.5181,-0.2232 4.5758,-0.2467 4.6318,-0.2736 4.6858,-0.3037 4.7378,-0.3370 4.7874,-0.3733 4.8345,-0.4125 4.8790,-0.4543 4.9205,-0.4987 4.9590,-0.5455 4.9943,-0.5945 5.0263,-0.6455 5.0548,-0.6982 5.0798,-0.7526 5.1011,-0.8083 5.1186,-0.8651 5.1323,-0.9229 5.1421,-0.9814 5.1480,-1.0404 5.1500,-1.0996"/></g><g stroke-width="0.0200" stroke="rgb(5%, 5%, 5%)" stroke-opacity="0.2" fill="none"><polyline points="4.15,-0.1570 4.1480,-0.2162 4.1421,-0.2751 4.1323,-0.3336 4.1186,-0.3914 4.1011,-0.4483 4.0798,-0.5040 4.0548,-0.5583 4.0263,-0.6111 3.9943,-0.6620 3.9590,-0.7110 3.9205,-0.7578 3.8790,-0.8022 3.8345,-0.8441 3.7874,-0.8833 3.7378,-0.9195 3.6858,-0.9528 3.6318,-0.9830 3.5758,-1.0099 3.5181,-1.0334 3.4590,-1.0534 3.3987,-1.0699 3.3374,-1.0829 3.2753,-1.0921 3.2128,-1.0977 3.15,-1.0996 3.0872,-1.0977 3.0247,-1.0921 2.9626,-1.0829 2.9013,-1.0699 2.8410,-1.0534 2.7819,-1.0334 2.7242,-1.0099 2.6682,-0.9830 2.6142,-0.9528 2.5622,-0.9195 2.5126,-0.8833 2.4655,-0.8441 2.4210,-0.8022 2.3795,-0.7578 2.3410,-0.7110 2.3057,-0.6620 2.2737,-0.6111 2.2452,-0.5583 2.2202,-0.5040 2.1989,-0.4483 2.1814,-0.3914 2.1677,-0.3336 2.1579,-0.2751 2.1520,-0.2162 2.1500,-0.1570 2.1520,-0.0978 2.1579,-0.0389 2.1677,0.0196 2.1814,0.0774 2.1989,0.1343 2.2202,0.1900 2.2452,0.2443 2.2737,0.2971 2.3057,0.3481 2.3410,0.3970 2.3795,0.4438 2.4210,0.4882 2.4655,0.5301 2.5126,0.5693 2.5622,0.6056 2.6142,0.6389 2.6682,0.6690 2.7242,0.6959 2.7819,0.7194 2.8410,0.7395 2.9013,0.7560 2.9626,0.7689 3.0247,0.7782 3.0872,0.7837 3.15,0.7856 3.2128,0.7837 3.2753,0.7782 3.3374,0.7689 3.3987,0.7560 3.4590,0.7395 3.5181,0.7194 3.5758,0.6959 3.6318,0.6690 3.6858,0.6389 3.7378,0.6056 3.7874,0.5693 3.8345,0.5301 3.8790,0.4882 3.9205,0.4438 3.9590,0.3970 3.9943,0.3481 4.0263,0.2971 4.0548,0.2443 4.0798,0.1900 4.1011,0.1343 4.1186,0.0774 4.1323,0.0196 4.1421,-0.0389 4.1480,-0.0978 4.15,-0.1570"/></g><g stroke-width="0.0500" stroke="rgb(5%, 5%, 5%)" stroke-opacity="0.5" fill="none"><polyline points="3.15,-1.0996 3.1501,-1.0848 3.1505,-1.0700 3.1511,-1.0552 3.1520,-1.0404 3.1531,-1.0256 3.1544,-1.0109 3.1560,-0.9961 3.1579,-0.9814 3.1600,-0.9667 3.1623,-0.9521 3.1649,-0.9375 3.1677,-0.9229 3.1708,-0.9084 3.1741,-0.8939 3.1776,-0.8795 3.1814,-0.8651 3.1854,-0.8508 3.1897,-0.8366 3.1942,-0.8224 3.1989,-0.8083 3.2039,-0.7942 3.2091,-0.7803 3.2146,-0.7664 3.2202,-0.7526 3.2261,-0.7389 3.2322,-0.7252 3.2386,-0.7117 3.2452,-0.6982 3.2520,-0.6849 3.2590,-0.6716 3.2662,-0.6585 3.2737,-0.6455 3.2814,-0.6326 3.2893,-0.6197 3.2974,-0.6071 3.3057,-0.5945 3.3142,-0.5821 3.3229,-0.5698 3.3319,-0.5576 3.3410,-0.5455 3.3503,-0.5336 3.3598,-0.5218 3.3696,-0.5102 3.3795,-0.4987 3.3896,-0.4874 3.3999,-0.4762 3.4104,-0.4652 3.4210,-0.4543 3.4319,-0.4436 3.4429,-0.4331 3.4541,-0.4227 3.4655,-0.4125 3.4770,-0.4024 3.4887,-0.3925 3.5006,-0.3828 3.5126,-0.3733 3.5248,-0.3639 3.5371,-0.3548 3.5496,-0.3458 3.5622,-0.3370 3.5750,-0.3284 3.5879,-0.3200 3.6010,-0.3117 3.6142,-0.3037 3.6275,-0.2959 3.6410,-0.2882 3.6545,-0.2808 3.6682,-0.2736 3.6821,-0.2665 3.6960,-0.2597 3.7101,-0.2531 3.7242,-0.2467 3.7385,-0.2405 3.7529,-0.2345 3.7673,-0.2287 3.7819,-0.2232 3.7965,-0.2178 3.8113,-0.2127 3.8261,-0.2078 3.8410,-0.2031 3.8560,-0.1987 3.8710,-0.1944 3.8861,-0.1904 3.9013,-0.1866 3.9166,-0.1830 3.9319,-0.1797 3.9472,-0.1766 3.9626,-0.1737 3.9781,-0.1710 3.9936,-0.1686 4.0091,-0.1664 4.0247,-0.1644 4.0403,-0.1627 4.0559,-0.1612 4.0715,-0.1599 4.0872,-0.1588 4.1029,-0.1580 4.1186,-0.1575 4.1343,-0.1571 4.15,-0.1570"/></g><g stroke-width="0.0100" stroke="rgb(5%, 5%, 5%)" stroke-opacity="0.5" fill="rgb(5%, 5%, 5%)" fill-opacity="0.3"><path d="M 4.15,-1.0996 L 3.15,-1.0996 A 1.0 0.9426 0 0 0 4.15,-0.1570 L 4.15,-1.0996"/></g><g stroke-width="0.0" stroke="none" fill="rgb(5%, 5%, 5%)" fill-opacity="1.0" font-size="0.4" text-anchor="middle"><text x="3.64" y="-2.9281">False</text></g><g stroke-width="0.0200" stroke="rgb(5%, 5%, 5%)" stroke-opacity="0.2" fill="none"><polyline points="8.59,1.7729 8.5880,1.7137 8.5821,1.6547 8.5723,1.5962 8.5586,1.5385 8.5411,1.4816 8.5198,1.4259 8.4948,1.3715 8.4663,1.3188 8.4343,1.2678 8.3990,1.2188 8.3605,1.1721 8.3190,1.1276 8.2745,1.0858 8.2274,1.0466 8.1778,1.0103 8.1258,0.9770 8.0718,0.9469 8.0158,0.9200 7.9581,0.8965 7.8990,0.8764 7.8387,0.8599 7.7774,0.8470 7.7153,0.8377 7.6528,0.8322 7.59,0.8303 7.5272,0.8322 7.4647,0.8377 7.4026,0.8470 7.3413,0.8599 7.2810,0.8764 7.2219,0.8965 7.1642,0.9200 7.1082,0.9469 7.0542,0.9770 7.0022,1.0103 6.9526,1.0466 6.9055,1.0858 6.8610,1.1276 6.8195,1.1721 6.7810,1.2188 6.7457,1.2678 6.7137,1.3188 6.6852,1.3715 6.6602,1.4259 6.6389,1.4816 6.6214,1.5385 6.6077,1.5962 6.5979,1.6547 6.5920,1.7137 6.59,1.7729 6.5920,1.8321 6.5979,1.8910 6.6077,1.9495 6.6214,2.0073 6.6389,2.0641 6.6602,2.1199 6.6852,2.1742 6.7137,2.2270 6.7457,2.2779 6.7810,2.3269 6.8195,2.3737 6.8610,2.4181 6.9055,2.4600 6.9526,2.4991 7.0022,2.5354 7.0542,2.5687 7.1082,2.5989 7.1642,2.6257 7.2219,2.6493 7.2810,2.6693 7.3413,2.6858 7.4026,2.6987 7.4647,2.7080 7.5272,2.7136 7.59,2.7154 7.6528,2.7136 7.7153,2.7080 7.7774,2.6987 7.8387,2.6858 7.8990,2.6693 7.9581,2.6493 8.0158,2.6257 8.0718,2.5989 8.1258,2.5687 8.1778,2.5354 8.2274,2.4991 8.2745,2.4600 8.3190,2.4181 8.3605,2.3737 8.3990,2.3269 8.4343,2.2779 8.4663,2.2270 8.4948,2.1742 8.5198,2.1199 8.5411,2.0641 8.5586,2.0073 8.5723,1.9495 8.5821,1.8910 8.5880,1.8321 8.59,1.7729"/></g><g stroke-width="0.0200" stroke="rgb(5%, 5%, 5%)" stroke-opacity="0.2" fill="none"><polyline points="7.59,2.7154 7.5880,2.6563 7.5821,2.5973 7.5723,2.5388 7.5586,2.4810 7.5411,2.4242 7.5198,2.3685 7.4948,2.3141 7.4663,2.2614 7.4343,2.2104 7.3990,2.1614 7.3605,2.1146 7.3190,2.0702 7.2745,2.0283 7.2274,1.9892 7.1778,1.9529 7.1258,1.9196 7.0718,1.8895 7.0158,1.8626 6.9581,1.8391 6.8990,1.8190 6.8387,1.8025 6.7774,1.7896 6.7153,1.7803 6.6528,1.7747 6.59,1.7729 6.5272,1.7747 6.4647,1.7803 6.4026,1.7896 6.3413,1.8025 6.2810,1.8190 6.2219,1.8391 6.1642,1.8626 6.1082,1.8895 6.0542,1.9196 6.0022,1.9529 5.9526,1.9892 5.9055,2.0283 5.8610,2.0702 5.8195,2.1146 5.7810,2.1614 5.7457,2.2104 5.7137,2.2614 5.6852,2.3141 5.6602,2.3685 5.6389,2.4242 5.6214,2.4810 5.6077,2.5388 5.5979,2.5973 5.5920,2.6563 5.59,2.7154 5.5920,2.7746 5.5979,2.8336 5.6077,2.8921 5.6214,2.9498 5.6389,3.0067 5.6602,3.0624 5.6852,3.1168 5.7137,3.1695 5.7457,3.2205 5.7810,3.2695 5.8195,3.3163 5.8610,3.3607 5.9055,3.4025 5.9526,3.4417 6.0022,3.4780 6.0542,3.5113 6.1082,3.5414 6.1642,3.5683 6.2219,3.5918 6.2810,3.6119 6.3413,3.6284 6.4026,3.6413 6.4647,3.6506 6.5272,3.6562 6.59,3.6580 6.6528,3.6562 6.7153,3.6506 6.7774,3.6413 6.8387,3.6284 6.8990,3.6119 6.9581,3.5918 7.0158,3.5683 7.0718,3.5414 7.1258,3.5113 7.1778,3.4780 7.2274,3.4417 7.2745,3.4025 7.3190,3.3607 7.3605,3.3163 7.3990,3.2695 7.4343,3.2205 7.4663,3.1695 7.4948,3.1168 7.5198,3.0624 7.5411,3.0067 7.5586,2.9498 7.5723,2.8921 7.5821,2.8336 7.5880,2.7746 7.59,2.7154"/></g><g stroke-width="0.0500" stroke="rgb(5%, 5%, 5%)" stroke-opacity="0.5" fill="none"><polyline points="6.59,1.7729 6.5911,1.7285 6.5944,1.6842 6.6000,1.6401 6.6077,1.5962 6.6176,1.5528 6.6297,1.5099 6.6439,1.4676 6.6602,1.4259 6.6786,1.3850 6.6990,1.3450 6.7214,1.3059 6.7457,1.2678 6.7719,1.2309 6.7998,1.1952 6.8296,1.1607 6.8610,1.1276 6.8941,1.0960 6.9287,1.0658 6.9648,1.0373 7.0022,1.0103 7.0410,0.9851 7.0810,0.9616 7.1221,0.9399 7.1642,0.9200 7.2073,0.9020 7.2513,0.8860 7.2960,0.8720 7.3413,0.8599 7.3872,0.8499 7.4336,0.8419 7.4803,0.8360 7.5272,0.8322 7.5743,0.8304 7.6214,0.8308 7.6685,0.8332 7.7153,0.8377 7.7619,0.8443 7.8081,0.8530 7.8539,0.8637 7.8990,0.8764 7.9435,0.8911 7.9871,0.9078 8.0299,0.9264 8.0718,0.9469 8.1125,0.9692 8.1521,0.9933 8.1904,1.0191 8.2274,1.0466 8.2630,1.0757 8.2971,1.1064 8.3296,1.1385 8.3605,1.1721 8.3897,1.2069 8.4171,1.2431 8.4426,1.2804 8.4663,1.3188 8.4880,1.3582 8.5078,1.3985 8.5254,1.4397 8.5411,1.4816 8.5546,1.5242 8.5659,1.5673 8.5751,1.6108 8.5821,1.6547 8.5869,1.6989 8.5895,1.7433 8.5899,1.7877 8.5880,1.8321 8.5840,1.8763 8.5777,1.9203 8.5692,1.9640 8.5586,2.0073 8.5458,2.0500 8.5309,2.0922 8.5139,2.1336 8.4948,2.1742 8.4738,2.2139 8.4507,2.2527 8.4258,2.2904 8.3990,2.3269 8.3704,2.3622 8.3401,2.3962 8.3081,2.4288 8.2745,2.4600 8.2394,2.4896 8.2029,2.5176 8.1650,2.5440 8.1258,2.5687 8.0855,2.5916 8.0440,2.6127 8.0015,2.6319 7.9581,2.6493 7.9139,2.6646 7.8690,2.6780 7.8234,2.6894 7.7774,2.6987 7.7309,2.7060 7.6841,2.7113 7.6371,2.7144 7.59,2.7154"/></g><g stroke-width="0.0100" stroke="rgb(5%, 5%, 5%)" stroke-opacity="0.5" fill="rgb(5%, 5%, 5%)" fill-opacity="0.3"><path d="M 7.59,1.7729 L 6.59,1.7729 A 1.0 0.9426 0 1 1 7.59,2.7154 L 7.59,1.7729"/></g><g stroke-width="0.0200" stroke="rgb(5%, 5%, 5%)" stroke-opacity="0.2" fill="none"><polyline points="8.6049,-1.1066 8.6029,-1.1658 8.5970,-1.2247 8.5872,-1.2832 8.5735,-1.3410 8.5559,-1.3978 8.5347,-1.4536 8.5097,-1.5079 8.4812,-1.5607 8.4492,-1.6116 8.4139,-1.6606 8.3754,-1.7074 8.3338,-1.7518 8.2894,-1.7937 8.2423,-1.8328 8.1927,-1.8691 8.1407,-1.9024 8.0866,-1.9326 8.0307,-1.9594 7.9730,-1.9829 7.9139,-2.0030 7.8536,-2.0195 7.7923,-2.0324 7.7302,-2.0417 7.6677,-2.0473 7.6049,-2.0491 7.5421,-2.0473 7.4795,-2.0417 7.4175,-2.0324 7.3562,-2.0195 7.2959,-2.0030 7.2368,-1.9829 7.1791,-1.9594 7.1231,-1.9326 7.0690,-1.9024 7.0171,-1.8691 6.9675,-1.8328 6.9203,-1.7937 6.8759,-1.7518 6.8344,-1.7074 6.7959,-1.6606 6.7605,-1.6116 6.7286,-1.5607 6.7000,-1.5079 6.6751,-1.4536 6.6538,-1.3978 6.6363,-1.3410 6.6226,-1.2832 6.6128,-1.2247 6.6068,-1.1658 6.6049,-1.1066 6.6068,-1.0474 6.6128,-0.9884 6.6226,-0.9299 6.6363,-0.8722 6.6538,-0.8153 6.6751,-0.7596 6.7000,-0.7052 6.7286,-0.6525 6.7605,-0.6015 6.7959,-0.5525 6.8344,-0.5058 6.8759,-0.4613 6.9203,-0.4195 6.9675,-0.3803 7.0171,-0.3440 7.0690,-0.3107 7.1231,-0.2806 7.1791,-0.2537 7.2368,-0.2302 7.2959,-0.2101 7.3562,-0.1936 7.4175,-0.1807 7.4795,-0.1714 7.5421,-0.1659 7.6049,-0.1640 7.6677,-0.1659 7.7302,-0.1714 7.7923,-0.1807 7.8536,-0.1936 7.9139,-0.2101 7.9730,-0.2302 8.0307,-0.2537 8.0866,-0.2806 8.1407,-0.3107 8.1927,-0.3440 8.2423,-0.3803 8.2894,-0.4195 8.3338,-0.4613 8.3754,-0.5058 8.4139,-0.5525 8.4492,-0.6015 8.4812,-0.6525 8.5097,-0.7052 8.5347,-0.7596 8.5559,-0.8153 8.5735,-0.8722 8.5872,-0.9299 8.5970,-0.9884 8.6029,-1.0474 8.6049,-1.1066"/></g><g stroke-width="0.0200" stroke="rgb(5%, 5%, 5%)" stroke-opacity="0.2" fill="none"><polyline points="7.6049,-0.1640 7.6029,-0.2232 7.5970,-0.2821 7.5872,-0.3406 7.5735,-0.3984 7.5559,-0.4553 7.5347,-0.5110 7.5097,-0.5653 7.4812,-0.6181 7.4492,-0.6691 7.4139,-0.7180 7.3754,-0.7648 7.3338,-0.8092 7.2894,-0.8511 7.2423,-0.8903 7.1927,-0.9266 7.1407,-0.9598 7.0866,-0.9900 7.0307,-1.0169 6.9730,-1.0404 6.9139,-1.0604 6.8536,-1.0770 6.7923,-1.0899 6.7302,-1.0991 6.6677,-1.1047 6.6049,-1.1066 6.5421,-1.1047 6.4795,-1.0991 6.4175,-1.0899 6.3562,-1.0770 6.2959,-1.0604 6.2368,-1.0404 6.1791,-1.0169 6.1231,-0.9900 6.0690,-0.9598 6.0171,-0.9266 5.9675,-0.8903 5.9203,-0.8511 5.8759,-0.8092 5.8344,-0.7648 5.7959,-0.7180 5.7605,-0.6691 5.7286,-0.6181 5.7000,-0.5653 5.6751,-0.5110 5.6538,-0.4553 5.6363,-0.3984 5.6226,-0.3406 5.6128,-0.2821 5.6068,-0.2232 5.6049,-0.1640 5.6068,-0.1048 5.6128,-0.0459 5.6226,0.0126 5.6363,0.0704 5.6538,0.1273 5.6751,0.1830 5.7000,0.2373 5.7286,0.2901 5.7605,0.3411 5.7959,0.3900 5.8344,0.4368 5.8759,0.4812 5.9203,0.5231 5.9675,0.5623 6.0171,0.5986 6.0690,0.6318 6.1231,0.6620 6.1791,0.6889 6.2368,0.7124 6.2959,0.7324 6.3562,0.7490 6.4175,0.7619 6.4795,0.7711 6.5421,0.7767 6.6049,0.7786 6.6677,0.7767 6.7302,0.7711 6.7923,0.7619 6.8536,0.7490 6.9139,0.7324 6.9730,0.7124 7.0307,0.6889 7.0866,0.6620 7.1407,0.6318 7.1927,0.5986 7.2423,0.5623 7.2894,0.5231 7.3338,0.4812 7.3754,0.4368 7.4139,0.3900 7.4492,0.3411 7.4812,0.2901 7.5097,0.2373 7.5347,0.1830 7.5559,0.1273 7.5735,0.0704 7.5872,0.0126 7.5970,-0.0459 7.6029,-0.1048 7.6049,-0.1640"/></g><g stroke-width="0.0500" stroke="rgb(5%, 5%, 5%)" stroke-opacity="0.5" fill="none"><polyline points="6.6049,-1.1066 6.5578,-1.1055 6.5108,-1.1024 6.4640,-1.0972 6.4175,-1.0899 6.3714,-1.0805 6.3259,-1.0691 6.2810,-1.0558 6.2368,-1.0404 6.1934,-1.0231 6.1509,-1.0038 6.1094,-0.9827 6.0690,-0.9598 6.0299,-0.9352 5.9920,-0.9088 5.9554,-0.8807 5.9203,-0.8511 5.8868,-0.8199 5.8548,-0.7873 5.8244,-0.7533 5.7959,-0.7180 5.7691,-0.6815 5.7441,-0.6438 5.7211,-0.6051 5.7000,-0.5653 5.6810,-0.5247 5.6640,-0.4833 5.6491,-0.4412 5.6363,-0.3984 5.6257,-0.3551 5.6172,-0.3114 5.6109,-0.2674 5.6068,-0.2232 5.6050,-0.1788 5.6054,-0.1344 5.6080,-0.0900 5.6128,-0.0459 5.6198,-0.0019 5.6290,0.0416 5.6403,0.0847 5.6538,0.1273 5.6694,0.1692 5.6871,0.2103 5.7068,0.2507 5.7286,0.2901 5.7522,0.3285 5.7778,0.3658 5.8052,0.4019 5.8344,0.4368 5.8652,0.4704 5.8978,0.5025 5.9319,0.5332 5.9675,0.5623 6.0045,0.5898 6.0428,0.6156 6.0824,0.6397 6.1231,0.6620 6.1649,0.6825 6.2077,0.7011 6.2514,0.7177 6.2959,0.7324 6.3410,0.7452 6.3867,0.7559 6.4329,0.7645 6.4795,0.7711 6.5264,0.7757 6.5735,0.7781 6.6206,0.7785 6.6677,0.7767 6.7146,0.7729 6.7613,0.7670 6.8077,0.7590 6.8536,0.7490 6.8989,0.7369 6.9436,0.7228 6.9876,0.7068 7.0307,0.6889 7.0728,0.6690 7.1139,0.6473 7.1539,0.6238 7.1927,0.5986 7.2301,0.5716 7.2662,0.5430 7.3008,0.5129 7.3338,0.4812 7.3653,0.4482 7.3950,0.4137 7.4230,0.3780 7.4492,0.3411 7.4735,0.3030 7.4959,0.2639 7.5163,0.2239 7.5347,0.1830 7.5510,0.1413 7.5652,0.0990 7.5772,0.0560 7.5872,0.0126 7.5949,-0.0312 7.6004,-0.0753 7.6038,-0.1196 7.6049,-0.1640"/></g><g stroke-width="0.0100" stroke="rgb(5%, 5%, 5%)" stroke-opacity="0.5" fill="rgb(5%, 5%, 5%)" fill-opacity="0.3"><path d="M 7.6049,-1.1066 L 6.6049,-1.1066 A 1.0 0.9426 0 1 0 7.6049,-0.1640 L 7.6049,-1.1066"/></g><g stroke-width="0.0" stroke="none" fill="rgb(5%, 5%, 5%)" fill-opacity="1.0" font-size="0.4" text-anchor="middle"><text x="7.08" y="-2.9352">True</text></g><g stroke-width="0.0" stroke="none" fill="rgb(5%, 5%, 5%)" fill-opacity="1.0" font-size="0.6" text-anchor="middle"><text x="5.5000" y="-3.9224">Large</text></g></g><g class="hud"></g></svg>