<svg height="300.00" viewBox="0.0000 -4.8549 9.0000 8.5323" width="316.44" xmlns="http://www.w3.org/2000/svg" xmlns:xlink="http://www.w3.org/1999/xlink"><style>svg {
  color-scheme: light dark;
}
{
  .canvas g, .title g, .axisbar g, .ticktext g, .tickglyph g, .ticklines g, .legendContent g text {
    fill: rgba(5%, 5%, 5%, 1.00);
  }
  .ticklines g, .tickglyph g, .legendBorder g {
    stroke: rgba(5%, 5%, 5%, 1.00);
  }
  .legendBorder g {
    fill: rgba(94%, 94%, 94%, 1.00);
  }
}
@media (prefers-color-scheme:dark) {
  .canvas g, .title g, .axisbar g, .ticktext g, .tickglyph g, .ticklines g, .legendContent g text {
    fill: rgba(94%, 94%, 94%, 1.00);
  }
  .ticklines g, .tickglyph g, .legendBorder g {
    stroke: rgba(94%, 94%, 94%, 1.00);
  }
  .legendBorder g {
    fill: rgba(5%, 5%, 5%, 1.00);
  }
}
{
  .chart g {
    stroke: rgba(5%, 5%, 5%, 1.00);
  }
  .chart g text {
    fill: rgba(5%, 5%, 5%, 1.00);
  }
}
@media (prefers-color-scheme:dark) {
  .chart g {
    stroke: rgba(94%, 94%, 94%, 1.00);
  }
  .chart g text {
    fill: rgba(94%, 94%, 94%, 1.00);
  }
}
</style><g class="chart"><g fill="rgba(5%, 5%, 5%, 1.00)" font-size="0.60000" stroke="none" stroke-width="0.0" text-anchor="middle"><text transform="rotate(-90.000, 0.50000, 0.0000)" x="0.50000" y="0.0000">Sweep</text></g><g fill="rgba(5%, 5%, 5%, 1.00)" font-size="0.40000" stroke="none" stroke-width="0.0" text-anchor="middle"><text transform="rotate(-90.000, 1.5700, 1.5100)" x="1.5700" y="1.5100">True</text></g><g fill="rgba(5%, 5%, 5%, 1.00)" font-size="0.40000" stroke="none" stroke-width="0.0" text-anchor="middle"><text transform="rotate(-90.000, 1.5700, -1.5100)" x="1.5700" y="-1.5100">False</text></g><g fill="none" stroke="rgba(5%, 5%, 5%, 0.20)" stroke-width="0.020000"><polyline points="5.1500,1.6600 5.1480,1.5972 5.1421,1.5347 5.1323,1.4726 5.1186,1.4113 5.1011,1.3510 5.0798,1.2919 5.0548,1.2342 5.0263,1.1782 4.9943,1.1242 4.9590,1.0722 4.9205,1.0226 4.8790,0.97545 4.8345,0.93103 4.7874,0.88949 4.7378,0.85098 4.6858,0.81567 4.6318,0.78369 4.5758,0.75517 4.5181,0.73022 4.4590,0.70894 4.3987,0.69142 4.3374,0.67771 4.2753,0.66789 4.2128,0.66197 4.1500,0.66000 4.0872,0.66197 4.0247,0.66789 3.9626,0.67771 3.9013,0.69142 3.8410,0.70894 3.7819,0.73022 3.7242,0.75517 3.6682,0.78369 3.6142,0.81567 3.5622,0.85098 3.5126,0.88949 3.4655,0.93103 3.4210,0.97545 3.3795,1.0226 3.3410,1.0722 3.3057,1.1242 3.2737,1.1782 3.2452,1.2342 3.2202,1.2919 3.1989,1.3510 3.1814,1.4113 3.1677,1.4726 3.1579,1.5347 3.1520,1.5972 3.1500,1.6600 3.1520,1.7228 3.1579,1.7853 3.1677,1.8474 3.1814,1.9087 3.1989,1.9690 3.2202,2.0281 3.2452,2.0858 3.2737,2.1418 3.3057,2.1958 3.3410,2.2478 3.3795,2.2974 3.4210,2.3445 3.4655,2.3890 3.5126,2.4305 3.5622,2.4690 3.6142,2.5043 3.6682,2.5363 3.7242,2.5648 3.7819,2.5898 3.8410,2.6111 3.9013,2.6286 3.9626,2.6423 4.0247,2.6521 4.0872,2.6580 4.1500,2.6600 4.2128,2.6580 4.2753,2.6521 4.3374,2.6423 4.3987,2.6286 4.4590,2.6111 4.5181,2.5898 4.5758,2.5648 4.6318,2.5363 4.6858,2.5043 4.7378,2.4690 4.7874,2.4305 4.8345,2.3890 4.8790,2.3445 4.9205,2.2974 4.9590,2.2478 4.9943,2.1958 5.0263,2.1418 5.0548,2.0858 5.0798,2.0281 5.1011,1.9690 5.1186,1.9087 5.1323,1.8474 5.1421,1.7853 5.1480,1.7228 5.1500,1.6600"/></g><g fill="none" stroke="rgba(5%, 5%, 5%, 0.20)" stroke-width="0.020000"><polyline points="4.1500,2.6600 4.1480,2.5972 4.1421,2.5347 4.1323,2.4726 4.1186,2.4113 4.1011,2.3510 4.0798,2.2919 4.0548,2.2342 4.0263,2.1782 3.9943,2.1242 3.9590,2.0722 3.9205,2.0226 3.8790,1.9755 3.8345,1.9310 3.7874,1.8895 3.7378,1.8510 3.6858,1.8157 3.6318,1.7837 3.5758,1.7552 3.5181,1.7302 3.4590,1.7089 3.3987,1.6914 3.3374,1.6777 3.2753,1.6679 3.2128,1.6620 3.1500,1.6600 3.0872,1.6620 3.0247,1.6679 2.9626,1.6777 2.9013,1.6914 2.8410,1.7089 2.7819,1.7302 2.7242,1.7552 2.6682,1.7837 2.6142,1.8157 2.5622,1.8510 2.5126,1.8895 2.4655,1.9310 2.4210,1.9755 2.3795,2.0226 2.3410,2.0722 2.3057,2.1242 2.2737,2.1782 2.2452,2.2342 2.2202,2.2919 2.1989,2.3510 2.1814,2.4113 2.1677,2.4726 2.1579,2.5347 2.1520,2.5972 2.1500,2.6600 2.1520,2.7228 2.1579,2.7853 2.1677,2.8474 2.1814,2.9087 2.1989,2.9690 2.2202,3.0281 2.2452,3.0858 2.2737,3.1418 2.3057,3.1958 2.3410,3.2478 2.3795,3.2974 2.4210,3.3445 2.4655,3.3890 2.5126,3.4305 2.5622,3.4690 2.6142,3.5043 2.6682,3.5363 2.7242,3.5648 2.7819,3.5898 2.8410,3.6111 2.9013,3.6286 2.9626,3.6423 3.0247,3.6521 3.0872,3.6580 3.1500,3.6600 3.2128,3.6580 3.2753,3.6521 3.3374,3.6423 3.3987,3.6286 3.4590,3.6111 3.5181,3.5898 3.5758,3.5648 3.6318,3.5363 3.6858,3.5043 3.7378,3.4690 3.7874,3.4305 3.8345,3.3890 3.8790,3.3445 3.9205,3.2974 3.9590,3.2478 3.9943,3.1958 4.0263,3.1418 4.0548,3.0858 4.0798,3.0281 4.1011,2.9690 4.1186,2.9087 4.1323,2.8474 4.1421,2.7853 4.1480,2.7228 4.1500,2.6600"/></g><g fill="none" stroke="rgba(5%, 5%, 5%, 0.50)" stroke-width="0.050000"><polyline points="3.1500,1.6600 3.1657,1.6601 3.1814,1.6605 3.1971,1.6611 3.2128,1.6620 3.2285,1.6631 3.2441,1.6644 3.2597,1.6660 3.2753,1.6679 3.2909,1.6700 3.3064,1.6723 3.3219,1.6749 3.3374,1.6777 3.3528,1.6808 3.3681,1.6841 3.3834,1.6876 3.3987,1.6914 3.4139,1.6954 3.4290,1.6997 3.4440,1.7042 3.4590,1.7089 3.4739,1.7139 3.4887,1.7191 3.5035,1.7246 3.5181,1.7302 3.5327,1.7361 3.5471,1.7422 3.5615,1.7486 3.5758,1.7552 3.5899,1.7620 3.6040,1.7690 3.6179,1.7762 3.6318,1.7837 3.6455,1.7914 3.6590,1.7993 3.6725,1.8074 3.6858,1.8157 3.6990,1.8242 3.7121,1.8329 3.7250,1.8419 3.7378,1.8510 3.7504,1.8603 3.7629,1.8698 3.7752,1.8796 3.7874,1.8895 3.7994,1.8996 3.8113,1.9099 3.8230,1.9204 3.8345,1.9310 3.8459,1.9419 3.8571,1.9529 3.8681,1.9641 3.8790,1.9755 3.8896,1.9870 3.9001,1.9987 3.9104,2.0106 3.9205,2.0226 3.9304,2.0348 3.9402,2.0471 3.9497,2.0596 3.9590,2.0722 3.9681,2.0850 3.9771,2.0979 3.9858,2.1110 3.9943,2.1242 4.0026,2.1375 4.0107,2.1510 4.0186,2.1645 4.0263,2.1782 4.0338,2.1921 4.0410,2.2060 4.0480,2.2201 4.0548,2.2342 4.0614,2.2485 4.0678,2.2629 4.0739,2.2773 4.0798,2.2919 4.0854,2.3065 4.0909,2.3213 4.0961,2.3361 4.1011,2.3510 4.1058,2.3660 4.1103,2.3810 4.1146,2.3961 4.1186,2.4113 4.1224,2.4266 4.1259,2.4419 4.1292,2.4572 4.1323,2.4726 4.1351,2.4881 4.1377,2.5036 4.1400,2.5191 4.1421,2.5347 4.1440,2.5503 4.1456,2.5659 4.1469,2.5815 4.1480,2.5972 4.1489,2.6129 4.1495,2.6286 4.1499,2.6443 4.1500,2.6600"/></g><g fill="rgba(5%, 5%, 5%, 0.30)" stroke="rgba(5%, 5%, 5%, 0.50)" stroke-width="0.010000"><path d="M 4.15,1.6600 L 3.15,1.6600 A 1.0 1.0 -0.0 0 1 4.15,2.6600 L 4.15,1.6600"/></g><g fill="none" stroke="rgba(5%, 5%, 5%, 0.20)" stroke-width="0.020000"><polyline points="5.1500,-1.3800 5.1480,-1.4428 5.1421,-1.5053 5.1323,-1.5674 5.1186,-1.6287 5.1011,-1.6890 5.0798,-1.7481 5.0548,-1.8058 5.0263,-1.8618 4.9943,-1.9158 4.9590,-1.9678 4.9205,-2.0174 4.8790,-2.0645 4.8345,-2.1090 4.7874,-2.1505 4.7378,-2.1890 4.6858,-2.2243 4.6318,-2.2563 4.5758,-2.2848 4.5181,-2.3098 4.4590,-2.3311 4.3987,-2.3486 4.3374,-2.3623 4.2753,-2.3721 4.2128,-2.3780 4.1500,-2.3800 4.0872,-2.3780 4.0247,-2.3721 3.9626,-2.3623 3.9013,-2.3486 3.8410,-2.3311 3.7819,-2.3098 3.7242,-2.2848 3.6682,-2.2563 3.6142,-2.2243 3.5622,-2.1890 3.5126,-2.1505 3.4655,-2.1090 3.4210,-2.0645 3.3795,-2.0174 3.3410,-1.9678 3.3057,-1.9158 3.2737,-1.8618 3.2452,-1.8058 3.2202,-1.7481 3.1989,-1.6890 3.1814,-1.6287 3.1677,-1.5674 3.1579,-1.5053 3.1520,-1.4428 3.1500,-1.3800 3.1520,-1.3172 3.1579,-1.2547 3.1677,-1.1926 3.1814,-1.1313 3.1989,-1.0710 3.2202,-1.0119 3.2452,-0.95422 3.2737,-0.89825 3.3057,-0.84417 3.3410,-0.79221 3.3795,-0.74258 3.4210,-0.69545 3.4655,-0.65103 3.5126,-0.60949 3.5622,-0.57098 3.6142,-0.53567 3.6682,-0.50369 3.7242,-0.47517 3.7819,-0.45022 3.8410,-0.42894 3.9013,-0.41142 3.9626,-0.39771 4.0247,-0.38789 4.0872,-0.38197 4.1500,-0.38000 4.2128,-0.38197 4.2753,-0.38789 4.3374,-0.39771 4.3987,-0.41142 4.4590,-0.42894 4.5181,-0.45022 4.5758,-0.47517 4.6318,-0.50369 4.6858,-0.53567 4.7378,-0.57098 4.7874,-0.60949 4.8345,-0.65103 4.8790,-0.69545 4.9205,-0.74258 4.9590,-0.79221 4.9943,-0.84417 5.0263,-0.89825 5.0548,-0.95422 5.0798,-1.0119 5.1011,-1.0710 5.1186,-1.1313 5.1323,-1.1926 5.1421,-1.2547 5.1480,-1.3172 5.1500,-1.3800"/></g><g fill="none" stroke="rgba(5%, 5%, 5%, 0.20)" stroke-width="0.020000"><polyline points="4.1500,-0.38000 4.1480,-0.44279 4.1421,-0.50533 4.1323,-0.56738 4.1186,-0.62869 4.1011,-0.68902 4.0798,-0.74812 4.0548,-0.80578 4.0263,-0.86175 3.9943,-0.91583 3.9590,-0.96779 3.9205,-1.0174 3.8790,-1.0645 3.8345,-1.1090 3.7874,-1.1505 3.7378,-1.1890 3.6858,-1.2243 3.6318,-1.2563 3.5758,-1.2848 3.5181,-1.3098 3.4590,-1.3311 3.3987,-1.3486 3.3374,-1.3623 3.2753,-1.3721 3.2128,-1.3780 3.1500,-1.3800 3.0872,-1.3780 3.0247,-1.3721 2.9626,-1.3623 2.9013,-1.3486 2.8410,-1.3311 2.7819,-1.3098 2.7242,-1.2848 2.6682,-1.2563 2.6142,-1.2243 2.5622,-1.1890 2.5126,-1.1505 2.4655,-1.1090 2.4210,-1.0645 2.3795,-1.0174 2.3410,-0.96779 2.3057,-0.91583 2.2737,-0.86175 2.2452,-0.80578 2.2202,-0.74812 2.1989,-0.68902 2.1814,-0.62869 2.1677,-0.56738 2.1579,-0.50533 2.1520,-0.44279 2.1500,-0.38000 2.1520,-0.31721 2.1579,-0.25467 2.1677,-0.19262 2.1814,-0.13131 2.1989,-0.070983 2.2202,-0.011875 2.2452,0.045779 2.2737,0.10175 2.3057,0.15583 2.3410,0.20779 2.3795,0.25742 2.4210,0.30455 2.4655,0.34897 2.5126,0.39051 2.5622,0.42902 2.6142,0.46433 2.6682,0.49631 2.7242,0.52483 2.7819,0.54978 2.8410,0.57106 2.9013,0.58858 2.9626,0.60229 3.0247,0.61211 3.0872,0.61803 3.1500,0.62000 3.2128,0.61803 3.2753,0.61211 3.3374,0.60229 3.3987,0.58858 3.4590,0.57106 3.5181,0.54978 3.5758,0.52483 3.6318,0.49631 3.6858,0.46433 3.7378,0.42902 3.7874,0.39051 3.8345,0.34897 3.8790,0.30455 3.9205,0.25742 3.9590,0.20779 3.9943,0.15583 4.0263,0.10175 4.0548,0.045779 4.0798,-0.011875 4.1011,-0.070983 4.1186,-0.13131 4.1323,-0.19262 4.1421,-0.25467 4.1480,-0.31721 4.1500,-0.38000"/></g><g fill="none" stroke="rgba(5%, 5%, 5%, 0.50)" stroke-width="0.050000"><polyline points="3.1500,-1.3800 3.1501,-1.3643 3.1505,-1.3486 3.1511,-1.3329 3.1520,-1.3172 3.1531,-1.3015 3.1544,-1.2859 3.1560,-1.2703 3.1579,-1.2547 3.1600,-1.2391 3.1623,-1.2236 3.1649,-1.2081 3.1677,-1.1926 3.1708,-1.1772 3.1741,-1.1619 3.1776,-1.1466 3.1814,-1.1313 3.1854,-1.1161 3.1897,-1.1010 3.1942,-1.0860 3.1989,-1.0710 3.2039,-1.0561 3.2091,-1.0413 3.2146,-1.0265 3.2202,-1.0119 3.2261,-0.99732 3.2322,-0.98285 3.2386,-0.96849 3.2452,-0.95422 3.2520,-0.94006 3.2590,-0.92601 3.2662,-0.91207 3.2737,-0.89825 3.2814,-0.88454 3.2893,-0.87096 3.2974,-0.85750 3.3057,-0.84417 3.3142,-0.83098 3.3229,-0.81792 3.3319,-0.80499 3.3410,-0.79221 3.3503,-0.77958 3.3598,-0.76709 3.3696,-0.75476 3.3795,-0.74258 3.3896,-0.73055 3.3999,-0.71869 3.4104,-0.70699 3.4210,-0.69545 3.4319,-0.68409 3.4429,-0.67289 3.4541,-0.66187 3.4655,-0.65103 3.4770,-0.64037 3.4887,-0.62989 3.5006,-0.61959 3.5126,-0.60949 3.5248,-0.59957 3.5371,-0.58984 3.5496,-0.58032 3.5622,-0.57098 3.5750,-0.56185 3.5879,-0.55292 3.6010,-0.54419 3.6142,-0.53567 3.6275,-0.52736 3.6410,-0.51926 3.6545,-0.51137 3.6682,-0.50369 3.6821,-0.49623 3.6960,-0.48899 3.7101,-0.48197 3.7242,-0.47517 3.7385,-0.46860 3.7529,-0.46225 3.7673,-0.45612 3.7819,-0.45022 3.7965,-0.44456 3.8113,-0.43912 3.8261,-0.43391 3.8410,-0.42894 3.8560,-0.42421 3.8710,-0.41971 3.8861,-0.41544 3.9013,-0.41142 3.9166,-0.40763 3.9319,-0.40408 3.9472,-0.40078 3.9626,-0.39771 3.9781,-0.39489 3.9936,-0.39231 4.0091,-0.38998 4.0247,-0.38789 4.0403,-0.38604 4.0559,-0.38444 4.0715,-0.38308 4.0872,-0.38197 4.1029,-0.38111 4.1186,-0.38049 4.1343,-0.38012 4.1500,-0.38000"/></g><g fill="rgba(5%, 5%, 5%, 0.30)" stroke="rgba(5%, 5%, 5%, 0.50)" stroke-width="0.010000"><path d="M 4.15,-1.38 L 3.15,-1.38 A 1.0 1.0 -0.0 0 0 4.15,-0.3800 L 4.15,-1.38"/></g><g fill="rgba(5%, 5%, 5%, 1.00)" font-size="0.40000" stroke="none" stroke-width="0.0" text-anchor="middle"><text x="3.6400" y="-3.3200">False</text></g><g fill="none" stroke="rgba(5%, 5%, 5%, 0.20)" stroke-width="0.020000"><polyline points="8.5900,1.6674 8.5880,1.6046 8.5821,1.5421 8.5723,1.4801 8.5586,1.4187 8.5411,1.3584 8.5198,1.2993 8.4948,1.2417 8.4663,1.1857 8.4343,1.1316 8.3990,1.0797 8.3605,1.0300 8.3190,0.98289 8.2745,0.93847 8.2274,0.89693 8.1778,0.85842 8.1258,0.82311 8.0718,0.79113 8.0158,0.76261 7.9581,0.73766 7.8990,0.71638 7.8387,0.69886 7.7774,0.68515 7.7153,0.67532 7.6528,0.66941 7.5900,0.66744 7.5272,0.66941 7.4647,0.67532 7.4026,0.68515 7.3413,0.69886 7.2810,0.71638 7.2219,0.73766 7.1642,0.76261 7.1082,0.79113 7.0542,0.82311 7.0022,0.85842 6.9526,0.89693 6.9055,0.93847 6.8610,0.98289 6.8195,1.0300 6.7810,1.0797 6.7457,1.1316 6.7137,1.1857 6.6852,1.2417 6.6602,1.2993 6.6389,1.3584 6.6214,1.4187 6.6077,1.4801 6.5979,1.5421 6.5920,1.6046 6.5900,1.6674 6.5920,1.7302 6.5979,1.7928 6.6077,1.8548 6.6214,1.9161 6.6389,1.9765 6.6602,2.0356 6.6852,2.0932 6.7137,2.1492 6.7457,2.2033 6.7810,2.2552 6.8195,2.3049 6.8610,2.3520 6.9055,2.3964 6.9526,2.4380 7.0022,2.4765 7.0542,2.5118 7.1082,2.5437 7.1642,2.5723 7.2219,2.5972 7.2810,2.6185 7.3413,2.6360 7.4026,2.6497 7.4647,2.6596 7.5272,2.6655 7.5900,2.6674 7.6528,2.6655 7.7153,2.6596 7.7774,2.6497 7.8387,2.6360 7.8990,2.6185 7.9581,2.5972 8.0158,2.5723 8.0718,2.5437 8.1258,2.5118 8.1778,2.4765 8.2274,2.4380 8.2745,2.3964 8.3190,2.3520 8.3605,2.3049 8.3990,2.2552 8.4343,2.2033 8.4663,2.1492 8.4948,2.0932 8.5198,2.0356 8.5411,1.9765 8.5586,1.9161 8.5723,1.8548 8.5821,1.7928 8.5880,1.7302 8.5900,1.6674"/></g><g fill="none" stroke="rgba(5%, 5%, 5%, 0.20)" stroke-width="0.020000"><polyline points="7.5900,2.6674 7.5880,2.6046 7.5821,2.5421 7.5723,2.4801 7.5586,2.4187 7.5411,2.3584 7.5198,2.2993 7.4948,2.2417 7.4663,2.1857 7.4343,2.1316 7.3990,2.0797 7.3605,2.0300 7.3190,1.9829 7.2745,1.9385 7.2274,1.8969 7.1778,1.8584 7.1258,1.8231 7.0718,1.7911 7.0158,1.7626 6.9581,1.7377 6.8990,1.7164 6.8387,1.6989 6.7774,1.6852 6.7153,1.6753 6.6528,1.6694 6.5900,1.6674 6.5272,1.6694 6.4647,1.6753 6.4026,1.6852 6.3413,1.6989 6.2810,1.7164 6.2219,1.7377 6.1642,1.7626 6.1082,1.7911 6.0542,1.8231 6.0022,1.8584 5.9526,1.8969 5.9055,1.9385 5.8610,1.9829 5.8195,2.0300 5.7810,2.0797 5.7457,2.1316 5.7137,2.1857 5.6852,2.2417 5.6602,2.2993 5.6389,2.3584 5.6214,2.4187 5.6077,2.4801 5.5979,2.5421 5.5920,2.6046 5.5900,2.6674 5.5920,2.7302 5.5979,2.7928 5.6077,2.8548 5.6214,2.9161 5.6389,2.9765 5.6602,3.0356 5.6852,3.0932 5.7137,3.1492 5.7457,3.2033 5.7810,3.2552 5.8195,3.3049 5.8610,3.3520 5.9055,3.3964 5.9526,3.4380 6.0022,3.4765 6.0542,3.5118 6.1082,3.5437 6.1642,3.5723 6.2219,3.5972 6.2810,3.6185 6.3413,3.6360 6.4026,3.6497 6.4647,3.6596 6.5272,3.6655 6.5900,3.6674 6.6528,3.6655 6.7153,3.6596 6.7774,3.6497 6.8387,3.6360 6.8990,3.6185 6.9581,3.5972 7.0158,3.5723 7.0718,3.5437 7.1258,3.5118 7.1778,3.4765 7.2274,3.4380 7.2745,3.3964 7.3190,3.3520 7.3605,3.3049 7.3990,3.2552 7.4343,3.2033 7.4663,3.1492 7.4948,3.0932 7.5198,3.0356 7.5411,2.9765 7.5586,2.9161 7.5723,2.8548 7.5821,2.7928 7.5880,2.7302 7.5900,2.6674"/></g><g fill="none" stroke="rgba(5%, 5%, 5%, 0.50)" stroke-width="0.050000"><polyline points="6.5900,1.6674 6.5911,1.6203 6.5944,1.5733 6.6000,1.5265 6.6077,1.4801 6.6176,1.4340 6.6297,1.3884 6.6439,1.3435 6.6602,1.2993 6.6786,1.2559 6.6990,1.2134 6.7214,1.1720 6.7457,1.1316 6.7719,1.0924 6.7998,1.0545 6.8296,1.0180 6.8610,0.98289 6.8941,0.94931 6.9287,0.91733 6.9648,0.88701 7.0022,0.85842 7.0410,0.83163 7.0810,0.80670 7.1221,0.78367 7.1642,0.76261 7.2073,0.74356 7.2513,0.72656 7.2960,0.71165 7.3413,0.69886 7.3872,0.68822 7.4336,0.67975 7.4803,0.67348 7.5272,0.66941 7.5743,0.66756 7.6214,0.66793 7.6685,0.67052 7.7153,0.67532 7.7619,0.68233 7.8081,0.69152 7.8539,0.70288 7.8990,0.71638 7.9435,0.73199 7.9871,0.74968 8.0299,0.76941 8.0718,0.79113 8.1125,0.81480 8.1521,0.84036 8.1904,0.86775 8.2274,0.89693 8.2630,0.92781 8.2971,0.96033 8.3296,0.99443 8.3605,1.0300 8.3897,1.0670 8.4171,1.1054 8.4426,1.1449 8.4663,1.1857 8.4880,1.2275 8.5078,1.2703 8.5254,1.3140 8.5411,1.3584 8.5546,1.4036 8.5659,1.4493 8.5751,1.4955 8.5821,1.5421 8.5869,1.5890 8.5895,1.6360 8.5899,1.6831 8.5880,1.7302 8.5840,1.7772 8.5777,1.8239 8.5692,1.8702 8.5586,1.9161 8.5458,1.9615 8.5309,2.0062 8.5139,2.0501 8.4948,2.0932 8.4738,2.1354 8.4507,2.1765 8.4258,2.2165 8.3990,2.2552 8.3704,2.2927 8.3401,2.3288 8.3081,2.3634 8.2745,2.3964 8.2394,2.4278 8.2029,2.4576 8.1650,2.4856 8.1258,2.5118 8.0855,2.5361 8.0440,2.5584 8.0015,2.5788 7.9581,2.5972 7.9139,2.6135 7.8690,2.6277 7.8234,2.6398 7.7774,2.6497 7.7309,2.6575 7.6841,2.6630 7.6371,2.6663 7.5900,2.6674"/></g><g fill="rgba(5%, 5%, 5%, 0.30)" stroke="rgba(5%, 5%, 5%, 0.50)" stroke-width="0.010000"><path d="M 7.59,1.6674 L 6.59,1.6674 A 1.0 1.0 -0.0 1 1 7.59,2.6674 L 7.59,1.6674"/></g><g fill="none" stroke="rgba(5%, 5%, 5%, 0.20)" stroke-width="0.020000"><polyline points="8.6049,-1.3874 8.6029,-1.4502 8.5970,-1.5128 8.5872,-1.5748 8.5735,-1.6361 8.5559,-1.6965 8.5347,-1.7556 8.5097,-1.8132 8.4812,-1.8692 8.4492,-1.9233 8.4139,-1.9752 8.3754,-2.0249 8.3338,-2.0720 8.2894,-2.1164 8.2423,-2.1580 8.1927,-2.1965 8.1407,-2.2318 8.0866,-2.2637 8.0307,-2.2923 7.9730,-2.3172 7.9139,-2.3385 7.8536,-2.3560 7.7923,-2.3697 7.7302,-2.3796 7.6677,-2.3855 7.6049,-2.3874 7.5421,-2.3855 7.4795,-2.3796 7.4175,-2.3697 7.3562,-2.3560 7.2959,-2.3385 7.2368,-2.3172 7.1791,-2.2923 7.1231,-2.2637 7.0690,-2.2318 7.0171,-2.1965 6.9675,-2.1580 6.9203,-2.1164 6.8759,-2.0720 6.8344,-2.0249 6.7959,-1.9752 6.7605,-1.9233 6.7286,-1.8692 6.7000,-1.8132 6.6751,-1.7556 6.6538,-1.6965 6.6363,-1.6361 6.6226,-1.5748 6.6128,-1.5128 6.6068,-1.4502 6.6049,-1.3874 6.6068,-1.3246 6.6128,-1.2621 6.6226,-1.2001 6.6363,-1.1387 6.6538,-1.0784 6.6751,-1.0193 6.7000,-0.96166 6.7286,-0.90568 6.7605,-0.85161 6.7959,-0.79965 6.8344,-0.75001 6.8759,-0.70289 6.9203,-0.65847 6.9675,-0.61693 7.0171,-0.57842 7.0690,-0.54311 7.1231,-0.51113 7.1791,-0.48261 7.2368,-0.45766 7.2959,-0.43638 7.3562,-0.41886 7.4175,-0.40515 7.4795,-0.39532 7.5421,-0.38941 7.6049,-0.38744 7.6677,-0.38941 7.7302,-0.39532 7.7923,-0.40515 7.8536,-0.41886 7.9139,-0.43638 7.9730,-0.45766 8.0307,-0.48261 8.0866,-0.51113 8.1407,-0.54311 8.1927,-0.57842 8.2423,-0.61693 8.2894,-0.65847 8.3338,-0.70289 8.3754,-0.75001 8.4139,-0.79965 8.4492,-0.85161 8.4812,-0.90568 8.5097,-0.96166 8.5347,-1.0193 8.5559,-1.0784 8.5735,-1.1387 8.5872,-1.2001 8.5970,-1.2621 8.6029,-1.3246 8.6049,-1.3874"/></g><g fill="none" stroke="rgba(5%, 5%, 5%, 0.20)" stroke-width="0.020000"><polyline points="7.6049,-0.38744 7.6029,-0.45023 7.5970,-0.51277 7.5872,-0.57482 7.5735,-0.63613 7.5559,-0.69646 7.5347,-0.75556 7.5097,-0.81322 7.4812,-0.86919 7.4492,-0.92327 7.4139,-0.97522 7.3754,-1.0249 7.3338,-1.0720 7.2894,-1.1164 7.2423,-1.1580 7.1927,-1.1965 7.1407,-1.2318 7.0866,-1.2637 7.0307,-1.2923 6.9730,-1.3172 6.9139,-1.3385 6.8536,-1.3560 6.7923,-1.3697 6.7302,-1.3796 6.6677,-1.3855 6.6049,-1.3874 6.5421,-1.3855 6.4795,-1.3796 6.4175,-1.3697 6.3562,-1.3560 6.2959,-1.3385 6.2368,-1.3172 6.1791,-1.2923 6.1231,-1.2637 6.0690,-1.2318 6.0171,-1.1965 5.9675,-1.1580 5.9203,-1.1164 5.8759,-1.0720 5.8344,-1.0249 5.7959,-0.97522 5.7605,-0.92327 5.7286,-0.86919 5.7000,-0.81322 5.6751,-0.75556 5.6538,-0.69646 5.6363,-0.63613 5.6226,-0.57482 5.6128,-0.51277 5.6068,-0.45023 5.6049,-0.38744 5.6068,-0.32465 5.6128,-0.26211 5.6226,-0.20006 5.6363,-0.13875 5.6538,-0.078421 5.6751,-0.019314 5.7000,0.038341 5.7286,0.094315 5.7605,0.14839 5.7959,0.20035 5.8344,0.24999 5.8759,0.29711 5.9203,0.34153 5.9675,0.38307 6.0171,0.42158 6.0690,0.45689 6.1231,0.48887 6.1791,0.51739 6.2368,0.54234 6.2959,0.56362 6.3562,0.58114 6.4175,0.59485 6.4795,0.60468 6.5421,0.61059 6.6049,0.61256 6.6677,0.61059 6.7302,0.60468 6.7923,0.59485 6.8536,0.58114 6.9139,0.56362 6.9730,0.54234 7.0307,0.51739 7.0866,0.48887 7.1407,0.45689 7.1927,0.42158 7.2423,0.38307 7.2894,0.34153 7.3338,0.29711 7.3754,0.24999 7.4139,0.20035 7.4492,0.14839 7.4812,0.094315 7.5097,0.038341 7.5347,-0.019314 7.5559,-0.078421 7.5735,-0.13875 7.5872,-0.20006 7.5970,-0.26211 7.6029,-0.32465 7.6049,-0.38744"/></g><g fill="none" stroke="rgba(5%, 5%, 5%, 0.50)" stroke-width="0.050000"><polyline points="6.6049,-1.3874 6.5578,-1.3863 6.5108,-1.3830 6.4640,-1.3775 6.4175,-1.3697 6.3714,-1.3598 6.3259,-1.3477 6.2810,-1.3335 6.2368,-1.3172 6.1934,-1.2988 6.1509,-1.2784 6.1094,-1.2561 6.0690,-1.2318 6.0299,-1.2056 5.9920,-1.1776 5.9554,-1.1478 5.9203,-1.1164 5.8868,-1.0834 5.8548,-1.0488 5.8244,-1.0127 5.7959,-0.97522 5.7691,-0.93646 5.7441,-0.89648 5.7211,-0.85537 5.7000,-0.81322 5.6810,-0.77012 5.6640,-0.72618 5.6491,-0.68148 5.6363,-0.63613 5.6257,-0.59023 5.6172,-0.54387 5.6109,-0.49717 5.6068,-0.45023 5.6050,-0.40315 5.6054,-0.35603 5.6080,-0.30898 5.6128,-0.26211 5.6198,-0.21551 5.6290,-0.16930 5.6403,-0.12357 5.6538,-0.078421 5.6694,-0.033963 5.6871,0.0097096 5.7068,0.052501 5.7286,0.094315 5.7522,0.13506 5.7778,0.17465 5.8052,0.21298 5.8344,0.24999 5.8652,0.28557 5.8978,0.31967 5.9319,0.35219 5.9675,0.38307 6.0045,0.41225 6.0428,0.43964 6.0824,0.46520 6.1231,0.48887 6.1649,0.51059 6.2077,0.53032 6.2514,0.54801 6.2959,0.56362 6.3410,0.57712 6.3867,0.58848 6.4329,0.59767 6.4795,0.60468 6.5264,0.60948 6.5735,0.61207 6.6206,0.61244 6.6677,0.61059 6.7146,0.60652 6.7613,0.60025 6.8077,0.59178 6.8536,0.58114 6.8989,0.56835 6.9436,0.55344 6.9876,0.53644 7.0307,0.51739 7.0728,0.49633 7.1139,0.47330 7.1539,0.44837 7.1927,0.42158 7.2301,0.39299 7.2662,0.36267 7.3008,0.33069 7.3338,0.29711 7.3653,0.26201 7.3950,0.22547 7.4230,0.18757 7.4492,0.14839 7.4735,0.10802 7.4959,0.066552 7.5163,0.024076 7.5347,-0.019314 7.5510,-0.063521 7.5652,-0.10845 7.5772,-0.15399 7.5872,-0.20006 7.5949,-0.24654 7.6004,-0.29333 7.6038,-0.34033 7.6049,-0.38744"/></g><g fill="rgba(5%, 5%, 5%, 0.30)" stroke="rgba(5%, 5%, 5%, 0.50)" stroke-width="0.010000"><path d="M 7.6049,-1.3874 L 6.6049,-1.3874 A 1.0 1.0 -0.0 1 0 7.6049,-0.3874 L 7.6049,-1.3874"/></g><g fill="rgba(5%, 5%, 5%, 1.00)" font-size="0.40000" stroke="none" stroke-width="0.0" text-anchor="middle"><text x="7.0800" y="-3.3274">True</text></g><g fill="rgba(5%, 5%, 5%, 1.00)" font-size="0.60000" stroke="none" stroke-width="0.0" text-anchor="middle"><text x="5.5000" y="-4.3749">Large</text></g></g><g class="hud"/></svg>