<svg xmlns="http://www.w3.org/2000/svg" xmlns:xlink="http://www.w3.org/1999/xlink" width="370" height="300" viewBox="0 -4.1098 9.0 7.2898"><style>svg {
  color-scheme: light dark;
}
{
  .canvas g, .title g, .axisbar g, .ticktext g, .tickglyph g, .ticklines g, .legendContent g text {
    fill: rgb(5%, 5%, 5%);
  }
  .ticklines g, .tickglyph g, .legendBorder g {
    stroke: rgb(5%, 5%, 5%);
  }
  .legendBorder g {
    fill: rgb(94%, 94%, 94%);
  }
}
@media (prefers-color-scheme:dark) {
  .canvas g, .title g, .axisbar g, .ticktext g, .tickglyph g, .ticklines g, .legendContent g text {
    fill: rgb(94%, 94%, 94%);
  }
  .ticklines g, .tickglyph g, .legendBorder g {
    stroke: rgb(94%, 94%, 94%);
  }
  .legendBorder g {
    fill: rgb(5%, 5%, 5%);
  }
}
svg { font-family: system-ui,-apple-system,"Segoe UI",Roboto,"Helvetica Neue",Arial,"Noto Sans","Liberation Sans",sans-serif,"Apple Color Emoji","Segoe UI Emoji","Segoe UI Symbol","Noto Color Emoji";
}

ticktext { font-family: SFMono-Regular,Menlo,Monaco,Consolas,"Liberation Mono","Courier New",monospace;
}


{
  .chart g {
    stroke: rgba(5%, 5%, 5%, 1.00);
  }
  .chart g text {
    fill: rgba(5%, 5%, 5%, 1.00);
  }
}
@media (prefers-color-scheme:dark) {
  .chart g {
    stroke: rgba(94%, 94%, 94%, 1.00);
  }
  .chart g text {
    fill: rgba(94%, 94%, 94%, 1.00);
  }
}
</style><g class="chart"><g stroke-width="0.0" stroke="none" fill="rgb(5%, 5%, 5%)" fill-opacity="1.0" font-size="0.6" text-anchor="middle"><text x="5.5000" y="3.0">Large</text></g><g stroke-width="0.0" stroke="none" fill="rgb(5%, 5%, 5%)" fill-opacity="1.0" font-size="0.4" text-anchor="middle"><text x="5.88" y="2.35">True</text></g><g stroke-width="0.0200" stroke="rgb(5%, 5%, 5%)" stroke-opacity="0.2" fill="none"><polyline points="7.4049,-0.0449 7.4029,-0.1077 7.3970,-0.1702 7.3872,-0.2323 7.3735,-0.2936 7.3559,-0.3539 7.3347,-0.4130 7.3097,-0.4707 7.2812,-0.5266 7.2492,-0.5807 7.2139,-0.6327 7.1754,-0.6823 7.1338,-0.7294 7.0894,-0.7738 7.0423,-0.8154 6.9927,-0.8539 6.9407,-0.8892 6.8866,-0.9212 6.8307,-0.9497 6.7730,-0.9747 6.7139,-0.9959 6.6536,-1.0135 6.5923,-1.0272 6.5302,-1.0370 6.4677,-1.0429 6.4049,-1.0449 6.3421,-1.0429 6.2795,-1.0370 6.2175,-1.0272 6.1562,-1.0135 6.0959,-0.9959 6.0368,-0.9747 5.9791,-0.9497 5.9231,-0.9212 5.8690,-0.8892 5.8171,-0.8539 5.7675,-0.8154 5.7203,-0.7738 5.6759,-0.7294 5.6344,-0.6823 5.5959,-0.6327 5.5605,-0.5807 5.5286,-0.5266 5.5000,-0.4707 5.4751,-0.4130 5.4538,-0.3539 5.4363,-0.2936 5.4226,-0.2323 5.4128,-0.1702 5.4068,-0.1077 5.4049,-0.0449 5.4068,0.0179 5.4128,0.0805 5.4226,0.1425 5.4363,0.2038 5.4538,0.2641 5.4751,0.3232 5.5000,0.3809 5.5286,0.4369 5.5605,0.4910 5.5959,0.5429 5.6344,0.5925 5.6759,0.6397 5.7203,0.6841 5.7675,0.7256 5.8171,0.7641 5.8690,0.7995 5.9231,0.8314 5.9791,0.8600 6.0368,0.8849 6.0959,0.9062 6.1562,0.9237 6.2175,0.9374 6.2795,0.9472 6.3421,0.9532 6.4049,0.9551 6.4677,0.9532 6.5302,0.9472 6.5923,0.9374 6.6536,0.9237 6.7139,0.9062 6.7730,0.8849 6.8307,0.8600 6.8866,0.8314 6.9407,0.7995 6.9927,0.7641 7.0423,0.7256 7.0894,0.6841 7.1338,0.6397 7.1754,0.5925 7.2139,0.5429 7.2492,0.4910 7.2812,0.4369 7.3097,0.3809 7.3347,0.3232 7.3559,0.2641 7.3735,0.2038 7.3872,0.1425 7.3970,0.0805 7.4029,0.0179 7.4049,-0.0449"/></g><g stroke-width="0.0200" stroke="rgb(5%, 5%, 5%)" stroke-opacity="0.2" fill="none"><polyline points="6.4049,0.9551 6.4029,0.8923 6.3970,0.8298 6.3872,0.7677 6.3735,0.7064 6.3559,0.6461 6.3347,0.5870 6.3097,0.5293 6.2812,0.4734 6.2492,0.4193 6.2139,0.3673 6.1754,0.3177 6.1338,0.2706 6.0894,0.2262 6.0423,0.1846 5.9927,0.1461 5.9407,0.1108 5.8866,0.0788 5.8307,0.0503 5.7730,0.0253 5.7139,0.0041 5.6536,-0.0135 5.5923,-0.0272 5.5302,-0.0370 5.4677,-0.0429 5.4049,-0.0449 5.3421,-0.0429 5.2795,-0.0370 5.2175,-0.0272 5.1562,-0.0135 5.0959,0.0041 5.0368,0.0253 4.9791,0.0503 4.9231,0.0788 4.8690,0.1108 4.8171,0.1461 4.7675,0.1846 4.7203,0.2262 4.6759,0.2706 4.6344,0.3177 4.5959,0.3673 4.5605,0.4193 4.5286,0.4734 4.5000,0.5293 4.4751,0.5870 4.4538,0.6461 4.4363,0.7064 4.4226,0.7677 4.4128,0.8298 4.4068,0.8923 4.4049,0.9551 4.4068,1.0179 4.4128,1.0805 4.4226,1.1425 4.4363,1.2038 4.4538,1.2641 4.4751,1.3232 4.5000,1.3809 4.5286,1.4369 4.5605,1.4910 4.5959,1.5429 4.6344,1.5925 4.6759,1.6397 4.7203,1.6841 4.7675,1.7256 4.8171,1.7641 4.8690,1.7995 4.9231,1.8314 4.9791,1.8600 5.0368,1.8849 5.0959,1.9062 5.1562,1.9237 5.2175,1.9374 5.2795,1.9472 5.3421,1.9532 5.4049,1.9551 5.4677,1.9532 5.5302,1.9472 5.5923,1.9374 5.6536,1.9237 5.7139,1.9062 5.7730,1.8849 5.8307,1.8600 5.8866,1.8314 5.9407,1.7995 5.9927,1.7641 6.0423,1.7256 6.0894,1.6841 6.1338,1.6397 6.1754,1.5925 6.2139,1.5429 6.2492,1.4910 6.2812,1.4369 6.3097,1.3809 6.3347,1.3232 6.3559,1.2641 6.3735,1.2038 6.3872,1.1425 6.3970,1.0805 6.4029,1.0179 6.4049,0.9551"/></g><g stroke-width="0.0500" stroke="rgb(5%, 5%, 5%)" stroke-opacity="0.5" fill="none"><polyline points="5.4049,-0.0449 5.3578,-0.0438 5.3108,-0.0404 5.2640,-0.0349 5.2175,-0.0272 5.1714,-0.0172 5.1259,-0.0052 5.0810,0.0090 5.0368,0.0253 4.9934,0.0437 4.9509,0.0641 4.9094,0.0865 4.8690,0.1108 4.8299,0.1370 4.7920,0.1650 4.7554,0.1947 4.7203,0.2262 4.6868,0.2592 4.6548,0.2938 4.6244,0.3299 4.5959,0.3673 4.5691,0.4061 4.5441,0.4461 4.5211,0.4872 4.5000,0.5293 4.4810,0.5724 4.4640,0.6164 4.4491,0.6611 4.4363,0.7064 4.4257,0.7523 4.4172,0.7987 4.4109,0.8454 4.4068,0.8923 4.4050,0.9394 4.4054,0.9865 4.4080,1.0336 4.4128,1.0805 4.4198,1.1271 4.4290,1.1733 4.4403,1.2190 4.4538,1.2641 4.4694,1.3086 4.4871,1.3523 4.5068,1.3951 4.5286,1.4369 4.5522,1.4776 4.5778,1.5172 4.6052,1.5555 4.6344,1.5925 4.6652,1.6281 4.6978,1.6622 4.7319,1.6948 4.7675,1.7256 4.8045,1.7548 4.8428,1.7822 4.8824,1.8078 4.9231,1.8314 4.9649,1.8532 5.0077,1.8729 5.0514,1.8906 5.0959,1.9062 5.1410,1.9197 5.1867,1.9310 5.2329,1.9402 5.2795,1.9472 5.3264,1.9520 5.3735,1.9546 5.4206,1.955 5.4677,1.9532 5.5146,1.9491 5.5613,1.9428 5.6077,1.9343 5.6536,1.9237 5.6989,1.9109 5.7436,1.8960 5.7876,1.8790 5.8307,1.8600 5.8728,1.8389 5.9139,1.8159 5.9539,1.7909 5.9927,1.7641 6.0301,1.7356 6.0662,1.7052 6.1008,1.6732 6.1338,1.6397 6.1653,1.6046 6.1950,1.5680 6.2230,1.5301 6.2492,1.4910 6.2735,1.4506 6.2959,1.4091 6.3163,1.3666 6.3347,1.3232 6.3510,1.2790 6.3652,1.2341 6.3772,1.1886 6.3872,1.1425 6.3949,1.0960 6.4004,1.0492 6.4038,1.0022 6.4049,0.9551"/></g><g stroke-width="0.0100" stroke="rgb(5%, 5%, 5%)" stroke-opacity="0.5" fill="rgb(5%, 5%, 5%)" fill-opacity="0.3"><path d="M 6.4049,-0.0449 L 5.4049,-0.0449 A 1.0 1.0 0 1 0 6.4049,0.9551 L 6.4049,-0.0449"/></g><g stroke-width="0.0200" stroke="rgb(5%, 5%, 5%)" stroke-opacity="0.2" fill="none"><polyline points="7.3900,-3.0849 7.3880,-3.1477 7.3821,-3.2102 7.3723,-3.2723 7.3586,-3.3336 7.3411,-3.3939 7.3198,-3.4530 7.2948,-3.5107 7.2663,-3.5666 7.2343,-3.6207 7.1990,-3.6727 7.1605,-3.7223 7.1190,-3.7694 7.0745,-3.8138 7.0274,-3.8554 6.9778,-3.8939 6.9258,-3.9292 6.8718,-3.9612 6.8158,-3.9897 6.7581,-4.0147 6.6990,-4.0359 6.6387,-4.0535 6.5774,-4.0672 6.5153,-4.0770 6.4528,-4.0829 6.39,-4.0849 6.3272,-4.0829 6.2647,-4.0770 6.2026,-4.0672 6.1413,-4.0535 6.0810,-4.0359 6.0219,-4.0147 5.9642,-3.9897 5.9082,-3.9612 5.8542,-3.9292 5.8022,-3.8939 5.7526,-3.8554 5.7055,-3.8138 5.6610,-3.7694 5.6195,-3.7223 5.5810,-3.6727 5.5457,-3.6207 5.5137,-3.5666 5.4852,-3.5107 5.4602,-3.4530 5.4389,-3.3939 5.4214,-3.3336 5.4077,-3.2723 5.3979,-3.2102 5.3920,-3.1477 5.3900,-3.0849 5.3920,-3.0221 5.3979,-2.9595 5.4077,-2.8975 5.4214,-2.8362 5.4389,-2.7759 5.4602,-2.7168 5.4852,-2.6591 5.5137,-2.6031 5.5457,-2.5490 5.5810,-2.4971 5.6195,-2.4475 5.6610,-2.4003 5.7055,-2.3559 5.7526,-2.3144 5.8022,-2.2759 5.8542,-2.2405 5.9082,-2.2086 5.9642,-2.1800 6.0219,-2.1551 6.0810,-2.1338 6.1413,-2.1163 6.2026,-2.1026 6.2647,-2.0928 6.3272,-2.0868 6.39,-2.0849 6.4528,-2.0868 6.5153,-2.0928 6.5774,-2.1026 6.6387,-2.1163 6.6990,-2.1338 6.7581,-2.1551 6.8158,-2.1800 6.8718,-2.2086 6.9258,-2.2405 6.9778,-2.2759 7.0274,-2.3144 7.0745,-2.3559 7.1190,-2.4003 7.1605,-2.4475 7.1990,-2.4971 7.2343,-2.5490 7.2663,-2.6031 7.2948,-2.6591 7.3198,-2.7168 7.3411,-2.7759 7.3586,-2.8362 7.3723,-2.8975 7.3821,-2.9595 7.3880,-3.0221 7.3900,-3.0849"/></g><g stroke-width="0.0200" stroke="rgb(5%, 5%, 5%)" stroke-opacity="0.2" fill="none"><polyline points="6.39,-2.0849 6.3880,-2.1477 6.3821,-2.2102 6.3723,-2.2723 6.3586,-2.3336 6.3411,-2.3939 6.3198,-2.4530 6.2948,-2.5107 6.2663,-2.5666 6.2343,-2.6207 6.1990,-2.6727 6.1605,-2.7223 6.1190,-2.7694 6.0745,-2.8138 6.0274,-2.8554 5.9778,-2.8939 5.9258,-2.9292 5.8718,-2.9612 5.8158,-2.9897 5.7581,-3.0147 5.6990,-3.0359 5.6387,-3.0535 5.5774,-3.0672 5.5153,-3.0770 5.4528,-3.0829 5.3900,-3.0849 5.3272,-3.0829 5.2647,-3.0770 5.2026,-3.0672 5.1413,-3.0535 5.0810,-3.0359 5.0219,-3.0147 4.9642,-2.9897 4.9082,-2.9612 4.8542,-2.9292 4.8022,-2.8939 4.7526,-2.8554 4.7055,-2.8138 4.6610,-2.7694 4.6195,-2.7223 4.5810,-2.6727 4.5457,-2.6207 4.5137,-2.5666 4.4852,-2.5107 4.4602,-2.4530 4.4389,-2.3939 4.4214,-2.3336 4.4077,-2.2723 4.3979,-2.2102 4.3920,-2.1477 4.39,-2.0849 4.3920,-2.0221 4.3979,-1.9595 4.4077,-1.8975 4.4214,-1.8362 4.4389,-1.7759 4.4602,-1.7168 4.4852,-1.6591 4.5137,-1.6031 4.5457,-1.5490 4.5810,-1.4971 4.6195,-1.4475 4.6610,-1.4003 4.7055,-1.3559 4.7526,-1.3144 4.8022,-1.2759 4.8542,-1.2405 4.9082,-1.2086 4.9642,-1.1800 5.0219,-1.1551 5.0810,-1.1338 5.1413,-1.1163 5.2026,-1.1026 5.2647,-1.0928 5.3272,-1.0868 5.3900,-1.0849 5.4528,-1.0868 5.5153,-1.0928 5.5774,-1.1026 5.6387,-1.1163 5.6990,-1.1338 5.7581,-1.1551 5.8158,-1.1800 5.8718,-1.2086 5.9258,-1.2405 5.9778,-1.2759 6.0274,-1.3144 6.0745,-1.3559 6.1190,-1.4003 6.1605,-1.4475 6.1990,-1.4971 6.2343,-1.5490 6.2663,-1.6031 6.2948,-1.6591 6.3198,-1.7168 6.3411,-1.7759 6.3586,-1.8362 6.3723,-1.8975 6.3821,-1.9595 6.3880,-2.0221 6.39,-2.0849"/></g><g stroke-width="0.0500" stroke="rgb(5%, 5%, 5%)" stroke-opacity="0.5" fill="none"><polyline points="5.3900,-3.0849 5.3911,-3.1320 5.3944,-3.1790 5.4000,-3.2258 5.4077,-3.2723 5.4176,-3.3183 5.4297,-3.3639 5.4439,-3.4088 5.4602,-3.4530 5.4786,-3.4964 5.4990,-3.5389 5.5214,-3.5803 5.5457,-3.6207 5.5719,-3.6599 5.5998,-3.6978 5.6296,-3.7343 5.6610,-3.7694 5.6941,-3.8030 5.7287,-3.8350 5.7648,-3.8653 5.8022,-3.8939 5.8410,-3.9207 5.8810,-3.9456 5.9221,-3.9686 5.9642,-3.9897 6.0073,-4.0088 6.0513,-4.0258 6.0960,-4.0407 6.1413,-4.0535 6.1872,-4.0641 6.2336,-4.0726 6.2803,-4.0788 6.3272,-4.0829 6.3743,-4.0848 6.4214,-4.0844 6.4685,-4.0818 6.5153,-4.0770 6.5619,-4.0700 6.6081,-4.0608 6.6539,-4.0494 6.6990,-4.0359 6.7435,-4.0203 6.7871,-4.0026 6.8299,-3.9829 6.8718,-3.9612 6.9125,-3.9375 6.9521,-3.9120 6.9904,-3.8846 7.0274,-3.8554 7.0630,-3.8245 7.0971,-3.7920 7.1296,-3.7579 7.1605,-3.7223 7.1897,-3.6853 7.2171,-3.6470 7.2426,-3.6074 7.2663,-3.5666 7.2880,-3.5248 7.3078,-3.4820 7.3254,-3.4384 7.3411,-3.3939 7.3546,-3.3487 7.3659,-3.3030 7.3751,-3.2568 7.3821,-3.2102 7.3869,-3.1633 7.3895,-3.1163 7.3899,-3.0692 7.3880,-3.0221 7.3840,-2.9751 7.3777,-2.9284 7.3692,-2.8821 7.3586,-2.8362 7.3458,-2.7908 7.3309,-2.7461 7.3139,-2.7022 7.2948,-2.6591 7.2738,-2.6169 7.2507,-2.5758 7.2258,-2.5359 7.1990,-2.4971 7.1704,-2.4596 7.1401,-2.4236 7.1081,-2.3890 7.0745,-2.3559 7.0394,-2.3245 7.0029,-2.2947 6.9650,-2.2667 6.9258,-2.2405 6.8855,-2.2162 6.8440,-2.1939 6.8015,-2.1735 6.7581,-2.1551 6.7139,-2.1388 6.6690,-2.1246 6.6234,-2.1125 6.5774,-2.1026 6.5309,-2.0949 6.4841,-2.0893 6.4371,-2.0860 6.3900,-2.0849"/></g><g stroke-width="0.0100" stroke="rgb(5%, 5%, 5%)" stroke-opacity="0.5" fill="rgb(5%, 5%, 5%)" fill-opacity="0.3"><path d="M 6.39,-3.0849 L 5.3900,-3.0849 A 1.0 1.0 0 1 1 6.39,-2.0849 L 6.39,-3.0849"/></g><g stroke-width="0.0" stroke="none" fill="rgb(5%, 5%, 5%)" fill-opacity="1.0" font-size="0.4" text-anchor="middle"><text x="2.8400" y="2.3351">False</text></g><g stroke-width="0.0200" stroke="rgb(5%, 5%, 5%)" stroke-opacity="0.2" fill="none"><polyline points="4.35,-0.0449 4.3480,-0.1077 4.3421,-0.1702 4.3323,-0.2323 4.3186,-0.2936 4.3011,-0.3539 4.2798,-0.4130 4.2548,-0.4707 4.2263,-0.5266 4.1943,-0.5807 4.1590,-0.6327 4.1205,-0.6823 4.0790,-0.7294 4.0345,-0.7738 3.9874,-0.8154 3.9378,-0.8539 3.8858,-0.8892 3.8318,-0.9212 3.7758,-0.9497 3.7181,-0.9747 3.6590,-0.9959 3.5987,-1.0135 3.5374,-1.0272 3.4753,-1.0370 3.4128,-1.0429 3.35,-1.0449 3.2872,-1.0429 3.2247,-1.0370 3.1626,-1.0272 3.1013,-1.0135 3.0410,-0.9959 2.9819,-0.9747 2.9242,-0.9497 2.8682,-0.9212 2.8142,-0.8892 2.7622,-0.8539 2.7126,-0.8154 2.6655,-0.7738 2.6210,-0.7294 2.5795,-0.6823 2.5410,-0.6327 2.5057,-0.5807 2.4737,-0.5266 2.4452,-0.4707 2.4202,-0.4130 2.3989,-0.3539 2.3814,-0.2936 2.3677,-0.2323 2.3579,-0.1702 2.3520,-0.1077 2.3500,-0.0449 2.3520,0.0179 2.3579,0.0805 2.3677,0.1425 2.3814,0.2038 2.3989,0.2641 2.4202,0.3232 2.4452,0.3809 2.4737,0.4369 2.5057,0.4910 2.5410,0.5429 2.5795,0.5925 2.6210,0.6397 2.6655,0.6841 2.7126,0.7256 2.7622,0.7641 2.8142,0.7995 2.8682,0.8314 2.9242,0.8600 2.9819,0.8849 3.0410,0.9062 3.1013,0.9237 3.1626,0.9374 3.2247,0.9472 3.2872,0.9532 3.35,0.9551 3.4128,0.9532 3.4753,0.9472 3.5374,0.9374 3.5987,0.9237 3.6590,0.9062 3.7181,0.8849 3.7758,0.8600 3.8318,0.8314 3.8858,0.7995 3.9378,0.7641 3.9874,0.7256 4.0345,0.6841 4.0790,0.6397 4.1205,0.5925 4.1590,0.5429 4.1943,0.4910 4.2263,0.4369 4.2548,0.3809 4.2798,0.3232 4.3011,0.2641 4.3186,0.2038 4.3323,0.1425 4.3421,0.0805 4.3480,0.0179 4.35,-0.0449"/></g><g stroke-width="0.0200" stroke="rgb(5%, 5%, 5%)" stroke-opacity="0.2" fill="none"><polyline points="3.35,0.9551 3.3480,0.8923 3.3421,0.8298 3.3323,0.7677 3.3186,0.7064 3.3011,0.6461 3.2798,0.5870 3.2548,0.5293 3.2263,0.4734 3.1943,0.4193 3.1590,0.3673 3.1205,0.3177 3.0790,0.2706 3.0345,0.2262 2.9874,0.1846 2.9378,0.1461 2.8858,0.1108 2.8318,0.0788 2.7758,0.0503 2.7181,0.0253 2.6590,0.0041 2.5987,-0.0135 2.5374,-0.0272 2.4753,-0.0370 2.4128,-0.0429 2.3500,-0.0449 2.2872,-0.0429 2.2247,-0.0370 2.1626,-0.0272 2.1013,-0.0135 2.0410,0.0041 1.9819,0.0253 1.9242,0.0503 1.8682,0.0788 1.8142,0.1108 1.7622,0.1461 1.7126,0.1846 1.6655,0.2262 1.6210,0.2706 1.5795,0.3177 1.5410,0.3673 1.5057,0.4193 1.4737,0.4734 1.4452,0.5293 1.4202,0.5870 1.3989,0.6461 1.3814,0.7064 1.3677,0.7677 1.3579,0.8298 1.3520,0.8923 1.3500,0.9551 1.3520,1.0179 1.3579,1.0805 1.3677,1.1425 1.3814,1.2038 1.3989,1.2641 1.4202,1.3232 1.4452,1.3809 1.4737,1.4369 1.5057,1.4910 1.5410,1.5429 1.5795,1.5925 1.6210,1.6397 1.6655,1.6841 1.7126,1.7256 1.7622,1.7641 1.8142,1.7995 1.8682,1.8314 1.9242,1.8600 1.9819,1.8849 2.0410,1.9062 2.1013,1.9237 2.1626,1.9374 2.2247,1.9472 2.2872,1.9532 2.35,1.9551 2.4128,1.9532 2.4753,1.9472 2.5374,1.9374 2.5987,1.9237 2.6590,1.9062 2.7181,1.8849 2.7758,1.8600 2.8318,1.8314 2.8858,1.7995 2.9378,1.7641 2.9874,1.7256 3.0345,1.6841 3.0790,1.6397 3.1205,1.5925 3.1590,1.5429 3.1943,1.4910 3.2263,1.4369 3.2548,1.3809 3.2798,1.3232 3.3011,1.2641 3.3186,1.2038 3.3323,1.1425 3.3421,1.0805 3.3480,1.0179 3.35,0.9551"/></g><g stroke-width="0.0500" stroke="rgb(5%, 5%, 5%)" stroke-opacity="0.5" fill="none"><polyline points="2.3500,-0.0449 2.3501,-0.0292 2.3505,-0.0135 2.3511,0.0022 2.3520,0.0179 2.3531,0.0336 2.3544,0.0492 2.3560,0.0649 2.3579,0.0805 2.3600,0.0960 2.3623,0.1116 2.3649,0.1271 2.3677,0.1425 2.3708,0.1579 2.3741,0.1733 2.3776,0.1886 2.3814,0.2038 2.3854,0.2190 2.3897,0.2341 2.3942,0.2492 2.3989,0.2641 2.4039,0.2790 2.4091,0.2939 2.4146,0.3086 2.4202,0.3232 2.4261,0.3378 2.4322,0.3523 2.4386,0.3666 2.4452,0.3809 2.4520,0.3951 2.4590,0.4091 2.4662,0.4231 2.4737,0.4369 2.4814,0.4506 2.4893,0.4642 2.4974,0.4776 2.5057,0.4910 2.5142,0.5041 2.5229,0.5172 2.5319,0.5301 2.5410,0.5429 2.5503,0.5555 2.5598,0.5680 2.5696,0.5804 2.5795,0.5925 2.5896,0.6046 2.5999,0.6164 2.6104,0.6281 2.6210,0.6397 2.6319,0.6510 2.6429,0.6622 2.6541,0.6732 2.6655,0.6841 2.6770,0.6948 2.6887,0.7052 2.7006,0.7155 2.7126,0.7256 2.7248,0.7356 2.7371,0.7453 2.7496,0.7548 2.7622,0.7641 2.7750,0.7733 2.7879,0.7822 2.8010,0.7909 2.8142,0.7995 2.8275,0.8078 2.8410,0.8159 2.8545,0.8238 2.8682,0.8314 2.8821,0.8389 2.8960,0.8461 2.9101,0.8532 2.9242,0.8600 2.9385,0.8665 2.9529,0.8729 2.9673,0.8790 2.9819,0.8849 2.9965,0.8906 3.0113,0.8960 3.0261,0.9012 3.0410,0.9062 3.0560,0.9109 3.0710,0.9154 3.0861,0.9197 3.1013,0.9237 3.1166,0.9275 3.1319,0.9310 3.1472,0.9343 3.1626,0.9374 3.1781,0.9402 3.1936,0.9428 3.2091,0.9451 3.2247,0.9472 3.2403,0.9491 3.2559,0.9507 3.2715,0.9520 3.2872,0.9532 3.3029,0.9540 3.3186,0.9546 3.3343,0.9550 3.35,0.9551"/></g><g stroke-width="0.0100" stroke="rgb(5%, 5%, 5%)" stroke-opacity="0.5" fill="rgb(5%, 5%, 5%)" fill-opacity="0.3"><path d="M 3.35,-0.0449 L 2.3500,-0.0449 A 1.0 1.0 0 0 0 3.35,0.9551 L 3.35,-0.0449"/></g><g stroke-width="0.0200" stroke="rgb(5%, 5%, 5%)" stroke-opacity="0.2" fill="none"><polyline points="4.35,-3.0849 4.3480,-3.1477 4.3421,-3.2102 4.3323,-3.2723 4.3186,-3.3336 4.3011,-3.3939 4.2798,-3.4530 4.2548,-3.5107 4.2263,-3.5666 4.1943,-3.6207 4.1590,-3.6727 4.1205,-3.7223 4.0790,-3.7694 4.0345,-3.8138 3.9874,-3.8554 3.9378,-3.8939 3.8858,-3.9292 3.8318,-3.9612 3.7758,-3.9897 3.7181,-4.0147 3.6590,-4.0359 3.5987,-4.0535 3.5374,-4.0672 3.4753,-4.0770 3.4128,-4.0829 3.35,-4.0849 3.2872,-4.0829 3.2247,-4.0770 3.1626,-4.0672 3.1013,-4.0535 3.0410,-4.0359 2.9819,-4.0147 2.9242,-3.9897 2.8682,-3.9612 2.8142,-3.9292 2.7622,-3.8939 2.7126,-3.8554 2.6655,-3.8138 2.6210,-3.7694 2.5795,-3.7223 2.5410,-3.6727 2.5057,-3.6207 2.4737,-3.5666 2.4452,-3.5107 2.4202,-3.4530 2.3989,-3.3939 2.3814,-3.3336 2.3677,-3.2723 2.3579,-3.2102 2.3520,-3.1477 2.3500,-3.0849 2.3520,-3.0221 2.3579,-2.9595 2.3677,-2.8975 2.3814,-2.8362 2.3989,-2.7759 2.4202,-2.7168 2.4452,-2.6591 2.4737,-2.6031 2.5057,-2.5490 2.5410,-2.4971 2.5795,-2.4475 2.6210,-2.4003 2.6655,-2.3559 2.7126,-2.3144 2.7622,-2.2759 2.8142,-2.2405 2.8682,-2.2086 2.9242,-2.1800 2.9819,-2.1551 3.0410,-2.1338 3.1013,-2.1163 3.1626,-2.1026 3.2247,-2.0928 3.2872,-2.0868 3.35,-2.0849 3.4128,-2.0868 3.4753,-2.0928 3.5374,-2.1026 3.5987,-2.1163 3.6590,-2.1338 3.7181,-2.1551 3.7758,-2.1800 3.8318,-2.2086 3.8858,-2.2405 3.9378,-2.2759 3.9874,-2.3144 4.0345,-2.3559 4.0790,-2.4003 4.1205,-2.4475 4.1590,-2.4971 4.1943,-2.5490 4.2263,-2.6031 4.2548,-2.6591 4.2798,-2.7168 4.3011,-2.7759 4.3186,-2.8362 4.3323,-2.8975 4.3421,-2.9595 4.3480,-3.0221 4.35,-3.0849"/></g><g stroke-width="0.0200" stroke="rgb(5%, 5%, 5%)" stroke-opacity="0.2" fill="none"><polyline points="3.35,-2.0849 3.3480,-2.1477 3.3421,-2.2102 3.3323,-2.2723 3.3186,-2.3336 3.3011,-2.3939 3.2798,-2.4530 3.2548,-2.5107 3.2263,-2.5666 3.1943,-2.6207 3.1590,-2.6727 3.1205,-2.7223 3.0790,-2.7694 3.0345,-2.8138 2.9874,-2.8554 2.9378,-2.8939 2.8858,-2.9292 2.8318,-2.9612 2.7758,-2.9897 2.7181,-3.0147 2.6590,-3.0359 2.5987,-3.0535 2.5374,-3.0672 2.4753,-3.0770 2.4128,-3.0829 2.3500,-3.0849 2.2872,-3.0829 2.2247,-3.0770 2.1626,-3.0672 2.1013,-3.0535 2.0410,-3.0359 1.9819,-3.0147 1.9242,-2.9897 1.8682,-2.9612 1.8142,-2.9292 1.7622,-2.8939 1.7126,-2.8554 1.6655,-2.8138 1.6210,-2.7694 1.5795,-2.7223 1.5410,-2.6727 1.5057,-2.6207 1.4737,-2.5666 1.4452,-2.5107 1.4202,-2.4530 1.3989,-2.3939 1.3814,-2.3336 1.3677,-2.2723 1.3579,-2.2102 1.3520,-2.1477 1.3500,-2.0849 1.3520,-2.0221 1.3579,-1.9595 1.3677,-1.8975 1.3814,-1.8362 1.3989,-1.7759 1.4202,-1.7168 1.4452,-1.6591 1.4737,-1.6031 1.5057,-1.5490 1.5410,-1.4971 1.5795,-1.4475 1.6210,-1.4003 1.6655,-1.3559 1.7126,-1.3144 1.7622,-1.2759 1.8142,-1.2405 1.8682,-1.2086 1.9242,-1.1800 1.9819,-1.1551 2.0410,-1.1338 2.1013,-1.1163 2.1626,-1.1026 2.2247,-1.0928 2.2872,-1.0868 2.35,-1.0849 2.4128,-1.0868 2.4753,-1.0928 2.5374,-1.1026 2.5987,-1.1163 2.6590,-1.1338 2.7181,-1.1551 2.7758,-1.1800 2.8318,-1.2086 2.8858,-1.2405 2.9378,-1.2759 2.9874,-1.3144 3.0345,-1.3559 3.0790,-1.4003 3.1205,-1.4475 3.1590,-1.4971 3.1943,-1.5490 3.2263,-1.6031 3.2548,-1.6591 3.2798,-1.7168 3.3011,-1.7759 3.3186,-1.8362 3.3323,-1.8975 3.3421,-1.9595 3.3480,-2.0221 3.35,-2.0849"/></g><g stroke-width="0.0500" stroke="rgb(5%, 5%, 5%)" stroke-opacity="0.5" fill="none"><polyline points="2.3500,-3.0849 2.3657,-3.0848 2.3814,-3.0844 2.3971,-3.0838 2.4128,-3.0829 2.4285,-3.0818 2.4441,-3.0804 2.4597,-3.0788 2.4753,-3.0770 2.4909,-3.0749 2.5064,-3.0726 2.5219,-3.0700 2.5374,-3.0672 2.5528,-3.0641 2.5681,-3.0608 2.5834,-3.0572 2.5987,-3.0535 2.6139,-3.0494 2.6290,-3.0452 2.6440,-3.0407 2.6590,-3.0359 2.6739,-3.0310 2.6887,-3.0258 2.7035,-3.0203 2.7181,-3.0147 2.7327,-3.0088 2.7471,-3.0026 2.7615,-2.9963 2.7758,-2.9897 2.7899,-2.9829 2.8040,-2.9759 2.8179,-2.9686 2.8318,-2.9612 2.8455,-2.9535 2.8590,-2.9456 2.8725,-2.9375 2.8858,-2.9292 2.8990,-2.9207 2.9121,-2.9120 2.9250,-2.9030 2.9378,-2.8939 2.9504,-2.8846 2.9629,-2.8750 2.9752,-2.8653 2.9874,-2.8554 2.9994,-2.8453 3.0113,-2.8350 3.0230,-2.8245 3.0345,-2.8138 3.0459,-2.8030 3.0571,-2.7920 3.0681,-2.7808 3.0790,-2.7694 3.0896,-2.7579 3.1001,-2.7462 3.1104,-2.7343 3.1205,-2.7223 3.1304,-2.7101 3.1402,-2.6978 3.1497,-2.6853 3.1590,-2.6727 3.1681,-2.6599 3.1771,-2.6470 3.1858,-2.6339 3.1943,-2.6207 3.2026,-2.6074 3.2107,-2.5939 3.2186,-2.5803 3.2263,-2.5666 3.2338,-2.5528 3.2410,-2.5389 3.2480,-2.5248 3.2548,-2.5107 3.2614,-2.4964 3.2678,-2.4820 3.2739,-2.4676 3.2798,-2.4530 3.2854,-2.4384 3.2909,-2.4236 3.2961,-2.4088 3.3011,-2.3939 3.3058,-2.3789 3.3103,-2.3639 3.3146,-2.3487 3.3186,-2.3336 3.3224,-2.3183 3.3259,-2.3030 3.3292,-2.2877 3.3323,-2.2723 3.3351,-2.2568 3.3377,-2.2413 3.3400,-2.2258 3.3421,-2.2102 3.3440,-2.1946 3.3456,-2.1790 3.3469,-2.1633 3.3480,-2.1477 3.3489,-2.1320 3.3495,-2.1163 3.3499,-2.1006 3.35,-2.0849"/></g><g stroke-width="0.0100" stroke="rgb(5%, 5%, 5%)" stroke-opacity="0.5" fill="rgb(5%, 5%, 5%)" fill-opacity="0.3"><path d="M 3.35,-3.0849 L 2.3500,-3.0849 A 1.0 1.0 0 0 1 3.35,-2.0849 L 3.35,-3.0849"/></g><g stroke-width="0.0" stroke="none" fill="rgb(5%, 5%, 5%)" fill-opacity="1.0" font-size="0.4" text-anchor="middle"><text x="1.1700" y="0.7051" transform="rotate(-90.0, 1.1700, 0.7051)">False</text></g><g stroke-width="0.0" stroke="none" fill="rgb(5%, 5%, 5%)" fill-opacity="1.0" font-size="0.4" text-anchor="middle"><text x="1.1700" y="-2.3149" transform="rotate(-90.0, 1.1700, -2.3149)">True</text></g><g stroke-width="0.0" stroke="none" fill="rgb(5%, 5%, 5%)" fill-opacity="1.0" font-size="0.6" text-anchor="middle"><text x="0.5000" y="-0.8049" transform="rotate(-90.0, 0.5000, -0.8049)">Sweep</text></g></g><g class="hud"></g></svg>