<svg width="445.7301873000243" xmlns:xlink="http://www.w3.org/1999/xlink" xmlns="http://www.w3.org/2000/svg" viewBox="-0.7882956179925814 -0.5285694049054729 1.5651564747397995 1.0534331212031738" height="300.0"><style>svg {
  color-scheme: light dark;
}
@media (prefers-color-scheme:light) {
  svg {
    background-color: #0d0d0d;
  }
}</style><g stroke-opacity="0.0" fill="#f0f0f0" stroke="#000000" stroke-width="0.0" fill-opacity="2.0e-2"><rect width="1.331672944167018" x="-0.6123120874198" y="-0.47472543378244125" height="0.8555881984116149"/></g><g fill="#f0f0f0" stroke="none" stroke-width="0.0" font-size="5.0e-2" fill-opacity="1.0" text-anchor="end"><text x="-0.6682956179925814" y="0.393268793506142">-0.5</text><text x="-0.6682956179925814" y="0.3077099736649806">-0.4</text><text x="-0.6682956179925814" y="0.22215115382381906">-0.3</text><text x="-0.6682956179925814" y="0.13659233398265758">-0.2</text><text x="-0.6682956179925814" y="5.103351414149604e-2">-0.1</text><text x="-0.6682956179925814" y="-3.45253056996655e-2">0</text><text x="-0.6682956179925814" y="-0.12008412554082704">0.1</text><text x="-0.6682956179925814" y="-0.20564294538198846">0.2</text><text x="-0.6682956179925814" y="-0.2912017652231499">0.3</text><text x="-0.6682956179925814" y="-0.3767605850643114">0.4</text><text x="-0.6682956179925814" y="-0.46231940490547285">0.5</text></g><g stroke-opacity="0.4" fill="#f0f0f0" stroke="#f0f0f0" stroke-width="4.0e-3" fill-opacity="0.4"><g transform="rotate(-90.0, -0.6398333282659184, 0.3808627646291737)"><polyline points="-0.6398333282659184,0.3958627646291737
-0.6398333282659184,0.36586276462917366"/></g><g transform="rotate(-90.0, -0.6398333282659184, 0.29530394478801214)"><polyline points="-0.6398333282659184,0.31030394478801215
-0.6398333282659184,0.2803039447880121"/></g><g transform="rotate(-90.0, -0.6398333282659184, 0.20974512494685066)"><polyline points="-0.6398333282659184,0.22474512494685067
-0.6398333282659184,0.19474512494685065"/></g><g transform="rotate(-90.0, -0.6398333282659184, 0.12418630510568918)"><polyline points="-0.6398333282659184,0.1391863051056892
-0.6398333282659184,0.10918630510568918"/></g><g transform="rotate(-90.0, -0.6398333282659184, 3.8627485264527694e-2)"><polyline points="-0.6398333282659184,5.3627485264527694e-2
-0.6398333282659184,2.3627485264527695e-2"/></g><g transform="rotate(-90.0, -0.6398333282659184, -4.693133457663379e-2)"><polyline points="-0.6398333282659184,-3.193133457663379e-2
-0.6398333282659184,-6.193133457663379e-2"/></g><g transform="rotate(-90.0, -0.6398333282659184, -0.13249015441779544)"><polyline points="-0.6398333282659184,-0.11749015441779544
-0.6398333282659184,-0.14749015441779545"/></g><g transform="rotate(-90.0, -0.6398333282659184, -0.21804897425895686)"><polyline points="-0.6398333282659184,-0.20304897425895685
-0.6398333282659184,-0.23304897425895688"/></g><g transform="rotate(-90.0, -0.6398333282659184, -0.3036077941001184)"><polyline points="-0.6398333282659184,-0.2886077941001184
-0.6398333282659184,-0.3186077941001184"/></g><g transform="rotate(-90.0, -0.6398333282659184, -0.38916661394127994)"><polyline points="-0.6398333282659184,-0.3741666139412799
-0.6398333282659184,-0.40416661394127995"/></g><g transform="rotate(-90.0, -0.6398333282659184, -0.47472543378244125)"><polyline points="-0.6398333282659184,-0.45972543378244124
-0.6398333282659184,-0.48972543378244127"/></g></g><g stroke-opacity="0.0" fill="#f0f0f0" stroke="#000000" stroke-width="0.0" fill-opacity="0.4"><rect width="3.5511278511120015e-3" x="-0.6247410348986921" y="-0.47643661017926453" height="0.8590105512052615"/></g><g fill="#f0f0f0" stroke="none" stroke-width="0.0" font-size="5.0e-2" fill-opacity="1.0" text-anchor="middle"><text x="-0.6123120874198" y="0.4786137162977007">-0.5</text><text x="-0.4791447930030983" y="0.4786137162977007">-0.4</text><text x="-0.3459774985863963" y="0.4786137162977007">-0.3</text><text x="-0.21281020416969465" y="0.4786137162977007">-0.2</text><text x="-7.964290975299282e-2" y="0.4786137162977007">-0.1</text><text x="5.352438466370901e-2" y="0.4786137162977007">0</text><text x="0.18669167908041095" y="0.4786137162977007">0.1</text><text x="0.31985897349711223" y="0.4786137162977007">0.2</text><text x="0.4530262679138146" y="0.4786137162977007">0.3</text><text x="0.5861935623305161" y="0.4786137162977007">0.4</text><text x="0.7193608567472181" y="0.4786137162977007">0.5</text></g><g stroke-opacity="0.4" fill="#f0f0f0" stroke="#f0f0f0" stroke-width="4.0e-3" fill-opacity="0.4"><polyline points="-0.6123120874198,0.42238599877993377
-0.6123120874198,0.39238599877993374"/><polyline points="-0.4791447930030983,0.42238599877993377
-0.4791447930030983,0.39238599877993374"/><polyline points="-0.3459774985863963,0.42238599877993377
-0.3459774985863963,0.39238599877993374"/><polyline points="-0.21281020416969465,0.42238599877993377
-0.21281020416969465,0.39238599877993374"/><polyline points="-7.964290975299282e-2,0.42238599877993377
-7.964290975299282e-2,0.39238599877993374"/><polyline points="5.352438466370901e-2,0.42238599877993377
5.352438466370901e-2,0.39238599877993374"/><polyline points="0.18669167908041095,0.42238599877993377
0.18669167908041095,0.39238599877993374"/><polyline points="0.31985897349711223,0.42238599877993377
0.31985897349711223,0.39238599877993374"/><polyline points="0.4530262679138146,0.42238599877993377
0.4530262679138146,0.39238599877993374"/><polyline points="0.5861935623305161,0.42238599877993377
0.5861935623305161,0.39238599877993374"/><polyline points="0.7193608567472181,0.42238599877993377
0.7193608567472181,0.39238599877993374"/></g><g stroke-opacity="0.0" fill="#f0f0f0" stroke="#000000" stroke-width="0.0" fill-opacity="0.4"><rect width="1.3352240720181299" x="-0.614087651345356" y="0.3894186466132898" height="3.4223527936464437e-3"/></g><g stroke-opacity="1.0" fill="#a6cfe3" stroke="#f0f0f0" stroke-width="5.0e-2" fill-opacity="1.0"><g transform="rotate(-41.70388402745369, -0.5457284402114492, 0.3380833547085929)"><path d="M -1 0 L 1 0 M 1 0 L 0.4 0.3 M 1 0 L 0.4 -0.3" transform="translate(-0.5457284402114492, 0.3380833547085929) scale(5.0e-2)"/></g></g><g stroke-opacity="1.0" fill="#a6cfe3" stroke="#f0f0f0" stroke-width="5.0e-2" fill-opacity="1.0"><g transform="rotate(-40.703991576050946, -0.5457284402114492, 0.2525245348674314)"><path d="M -1 0 L 1 0 M 1 0 L 0.4 0.3 M 1 0 L 0.4 -0.3" transform="translate(-0.5457284402114492, 0.2525245348674314) scale(5.0e-2)"/></g></g><g stroke-opacity="1.0" fill="#a6cfe3" stroke="#f0f0f0" stroke-width="5.0e-2" fill-opacity="1.0"><g transform="rotate(-39.33034350353967, -0.5457284402114492, 0.16696571502626995)"><path d="M -1 0 L 1 0 M 1 0 L 0.4 0.3 M 1 0 L 0.4 -0.3" transform="translate(-0.5457284402114492, 0.16696571502626995) scale(5.0e-2)"/></g></g><g stroke-opacity="1.0" fill="#a6cfe3" stroke="#f0f0f0" stroke-width="5.0e-2" fill-opacity="1.0"><g transform="rotate(-37.32821468040517, -0.5457284402114492, 8.140689518510841e-2)"><path d="M -1 0 L 1 0 M 1 0 L 0.4 0.3 M 1 0 L 0.4 -0.3" transform="translate(-0.5457284402114492, 8.140689518510841e-2) scale(5.0e-2)"/></g></g><g stroke-opacity="1.0" fill="#a6cfe3" stroke="#f0f0f0" stroke-width="5.0e-2" fill-opacity="1.0"><g transform="rotate(-34.14934249468909, -0.5457284402114492, -4.151924656053185e-3)"><path d="M -1 0 L 1 0 M 1 0 L 0.4 0.3 M 1 0 L 0.4 -0.3" transform="translate(-0.5457284402114492, -4.151924656053185e-3) scale(5.0e-2)"/></g></g><g stroke-opacity="1.0" fill="#a6cfe3" stroke="#f0f0f0" stroke-width="5.0e-2" fill-opacity="1.0"><g transform="rotate(-28.38240378414633, -0.5457284402114492, -8.971074449721461e-2)"><path d="M -1 0 L 1 0 M 1 0 L 0.4 0.3 M 1 0 L 0.4 -0.3" transform="translate(-0.5457284402114492, -8.971074449721461e-2) scale(5.0e-2)"/></g></g><g stroke-opacity="1.0" fill="#a6cfe3" stroke="#f0f0f0" stroke-width="5.0e-2" fill-opacity="1.0"><g transform="rotate(-15.274030281041826, -0.5457284402114492, -0.17526956433837626)"><path d="M -1 0 L 1 0 M 1 0 L 0.4 0.3 M 1 0 L 0.4 -0.3" transform="translate(-0.5457284402114492, -0.17526956433837626) scale(5.0e-2)"/></g></g><g stroke-opacity="1.0" fill="#a6cfe3" stroke="#f0f0f0" stroke-width="5.0e-2" fill-opacity="1.0"><g transform="rotate(24.917115262331563, -0.5457284402114492, -0.2608283841795376)"><path d="M -1 0 L 1 0 M 1 0 L 0.4 0.3 M 1 0 L 0.4 -0.3" transform="translate(-0.5457284402114492, -0.2608283841795376) scale(5.0e-2)"/></g></g><g stroke-opacity="1.0" fill="#a6cfe3" stroke="#f0f0f0" stroke-width="5.0e-2" fill-opacity="1.0"><g transform="rotate(85.25243231067934, -0.5457284402114492, -0.346387204020699)"><path d="M -1 0 L 1 0 M 1 0 L 0.4 0.3 M 1 0 L 0.4 -0.3" transform="translate(-0.5457284402114492, -0.346387204020699) scale(5.0e-2)"/></g></g><g stroke-opacity="1.0" fill="#a6cfe3" stroke="#f0f0f0" stroke-width="5.0e-2" fill-opacity="1.0"><g transform="rotate(107.43966356457298, -0.5457284402114492, -0.43194602386186043)"><path d="M -1 0 L 1 0 M 1 0 L 0.4 0.3 M 1 0 L 0.4 -0.3" transform="translate(-0.5457284402114492, -0.43194602386186043) scale(5.0e-2)"/></g></g><g stroke-opacity="1.0" fill="#a6cfe3" stroke="#f0f0f0" stroke-width="5.0e-2" fill-opacity="1.0"><g transform="rotate(-46.89925433618114, -0.4125611457947473, 0.3380833547085929)"><path d="M -1 0 L 1 0 M 1 0 L 0.4 0.3 M 1 0 L 0.4 -0.3" transform="translate(-0.4125611457947473, 0.3380833547085929) scale(5.0e-2)"/></g></g><g stroke-opacity="1.0" fill="#a6cfe3" stroke="#f0f0f0" stroke-width="5.0e-2" fill-opacity="1.0"><g transform="rotate(-45.41219274140232, -0.4125611457947473, 0.2525245348674314)"><path d="M -1 0 L 1 0 M 1 0 L 0.4 0.3 M 1 0 L 0.4 -0.3" transform="translate(-0.4125611457947473, 0.2525245348674314) scale(5.0e-2)"/></g></g><g stroke-opacity="1.0" fill="#a6cfe3" stroke="#f0f0f0" stroke-width="5.0e-2" fill-opacity="1.0"><g transform="rotate(-43.26655332833368, -0.4125611457947473, 0.16696571502626995)"><path d="M -1 0 L 1 0 M 1 0 L 0.4 0.3 M 1 0 L 0.4 -0.3" transform="translate(-0.4125611457947473, 0.16696571502626995) scale(5.0e-2)"/></g></g><g stroke-opacity="1.0" fill="#a6cfe3" stroke="#f0f0f0" stroke-width="5.0e-2" fill-opacity="1.0"><g transform="rotate(-39.913529548149384, -0.4125611457947473, 8.140689518510841e-2)"><path d="M -1 0 L 1 0 M 1 0 L 0.4 0.3 M 1 0 L 0.4 -0.3" transform="translate(-0.4125611457947473, 8.140689518510841e-2) scale(5.0e-2)"/></g></g><g stroke-opacity="1.0" fill="#a6cfe3" stroke="#f0f0f0" stroke-width="5.0e-2" fill-opacity="1.0"><g transform="rotate(-33.99914492987854, -0.4125611457947473, -4.151924656053185e-3)"><path d="M -1 0 L 1 0 M 1 0 L 0.4 0.3 M 1 0 L 0.4 -0.3" transform="translate(-0.4125611457947473, -4.151924656053185e-3) scale(5.0e-2)"/></g></g><g stroke-opacity="1.0" fill="#a6cfe3" stroke="#f0f0f0" stroke-width="5.0e-2" fill-opacity="1.0"><g transform="rotate(-21.321176713227626, -0.4125611457947473, -8.971074449721461e-2)"><path d="M -1 0 L 1 0 M 1 0 L 0.4 0.3 M 1 0 L 0.4 -0.3" transform="translate(-0.4125611457947473, -8.971074449721461e-2) scale(5.0e-2)"/></g></g><g stroke-opacity="1.0" fill="#a6cfe3" stroke="#f0f0f0" stroke-width="5.0e-2" fill-opacity="1.0"><g transform="rotate(13.364611169993305, -0.4125611457947473, -0.17526956433837626)"><path d="M -1 0 L 1 0 M 1 0 L 0.4 0.3 M 1 0 L 0.4 -0.3" transform="translate(-0.4125611457947473, -0.17526956433837626) scale(5.0e-2)"/></g></g><g stroke-opacity="1.0" fill="#a6cfe3" stroke="#f0f0f0" stroke-width="5.0e-2" fill-opacity="1.0"><g transform="rotate(70.26081916410517, -0.4125611457947473, -0.2608283841795376)"><path d="M -1 0 L 1 0 M 1 0 L 0.4 0.3 M 1 0 L 0.4 -0.3" transform="translate(-0.4125611457947473, -0.2608283841795376) scale(5.0e-2)"/></g></g><g stroke-opacity="1.0" fill="#a6cfe3" stroke="#f0f0f0" stroke-width="5.0e-2" fill-opacity="1.0"><g transform="rotate(96.08437785000453, -0.4125611457947473, -0.346387204020699)"><path d="M -1 0 L 1 0 M 1 0 L 0.4 0.3 M 1 0 L 0.4 -0.3" transform="translate(-0.4125611457947473, -0.346387204020699) scale(5.0e-2)"/></g></g><g stroke-opacity="1.0" fill="#a6cfe3" stroke="#f0f0f0" stroke-width="5.0e-2" fill-opacity="1.0"><g transform="rotate(106.05509143504601, -0.4125611457947473, -0.43194602386186043)"><path d="M -1 0 L 1 0 M 1 0 L 0.4 0.3 M 1 0 L 0.4 -0.3" transform="translate(-0.4125611457947473, -0.43194602386186043) scale(5.0e-2)"/></g></g><g stroke-opacity="1.0" fill="#a6cfe3" stroke="#f0f0f0" stroke-width="5.0e-2" fill-opacity="1.0"><g transform="rotate(-53.3543508353797, -0.2793938513780456, 0.3380833547085929)"><path d="M -1 0 L 1 0 M 1 0 L 0.4 0.3 M 1 0 L 0.4 -0.3" transform="translate(-0.2793938513780456, 0.3380833547085929) scale(5.0e-2)"/></g></g><g stroke-opacity="1.0" fill="#a6cfe3" stroke="#f0f0f0" stroke-width="5.0e-2" fill-opacity="1.0"><g transform="rotate(-51.23448009554123, -0.2793938513780456, 0.2525245348674314)"><path d="M -1 0 L 1 0 M 1 0 L 0.4 0.3 M 1 0 L 0.4 -0.3" transform="translate(-0.2793938513780456, 0.2525245348674314) scale(5.0e-2)"/></g></g><g stroke-opacity="1.0" fill="#a6cfe3" stroke="#f0f0f0" stroke-width="5.0e-2" fill-opacity="1.0"><g transform="rotate(-48.012787504183336, -0.2793938513780456, 0.16696571502626995)"><path d="M -1 0 L 1 0 M 1 0 L 0.4 0.3 M 1 0 L 0.4 -0.3" transform="translate(-0.2793938513780456, 0.16696571502626995) scale(5.0e-2)"/></g></g><g stroke-opacity="1.0" fill="#a6cfe3" stroke="#f0f0f0" stroke-width="5.0e-2" fill-opacity="1.0"><g transform="rotate(-42.58049078334366, -0.2793938513780456, 8.140689518510841e-2)"><path d="M -1 0 L 1 0 M 1 0 L 0.4 0.3 M 1 0 L 0.4 -0.3" transform="translate(-0.2793938513780456, 8.140689518510841e-2) scale(5.0e-2)"/></g></g><g stroke-opacity="1.0" fill="#a6cfe3" stroke="#f0f0f0" stroke-width="5.0e-2" fill-opacity="1.0"><g transform="rotate(-31.827446576673104, -0.2793938513780456, -4.151924656053185e-3)"><path d="M -1 0 L 1 0 M 1 0 L 0.4 0.3 M 1 0 L 0.4 -0.3" transform="translate(-0.2793938513780456, -4.151924656053185e-3) scale(5.0e-2)"/></g></g><g stroke-opacity="1.0" fill="#a6cfe3" stroke="#f0f0f0" stroke-width="5.0e-2" fill-opacity="1.0"><g transform="rotate(-5.440332031005506, -0.2793938513780456, -8.971074449721461e-2)"><path d="M -1 0 L 1 0 M 1 0 L 0.4 0.3 M 1 0 L 0.4 -0.3" transform="translate(-0.2793938513780456, -8.971074449721461e-2) scale(5.0e-2)"/></g></g><g stroke-opacity="1.0" fill="#a6cfe3" stroke="#f0f0f0" stroke-width="5.0e-2" fill-opacity="1.0"><g transform="rotate(47.1210963966615, -0.2793938513780456, -0.17526956433837626)"><path d="M -1 0 L 1 0 M 1 0 L 0.4 0.3 M 1 0 L 0.4 -0.3" transform="translate(-0.2793938513780456, -0.17526956433837626) scale(5.0e-2)"/></g></g><g stroke-opacity="1.0" fill="#a6cfe3" stroke="#f0f0f0" stroke-width="5.0e-2" fill-opacity="1.0"><g transform="rotate(80.53767779197439, -0.2793938513780456, -0.2608283841795376)"><path d="M -1 0 L 1 0 M 1 0 L 0.4 0.3 M 1 0 L 0.4 -0.3" transform="translate(-0.2793938513780456, -0.2608283841795376) scale(5.0e-2)"/></g></g><g stroke-opacity="1.0" fill="#a6cfe3" stroke="#f0f0f0" stroke-width="5.0e-2" fill-opacity="1.0"><g transform="rotate(93.73139699916044, -0.2793938513780456, -0.346387204020699)"><path d="M -1 0 L 1 0 M 1 0 L 0.4 0.3 M 1 0 L 0.4 -0.3" transform="translate(-0.2793938513780456, -0.346387204020699) scale(5.0e-2)"/></g></g><g stroke-opacity="1.0" fill="#a6cfe3" stroke="#f0f0f0" stroke-width="5.0e-2" fill-opacity="1.0"><g transform="rotate(100.06068979532297, -0.2793938513780456, -0.43194602386186043)"><path d="M -1 0 L 1 0 M 1 0 L 0.4 0.3 M 1 0 L 0.4 -0.3" transform="translate(-0.2793938513780456, -0.43194602386186043) scale(5.0e-2)"/></g></g><g stroke-opacity="1.0" fill="#a6cfe3" stroke="#f0f0f0" stroke-width="5.0e-2" fill-opacity="1.0"><g transform="rotate(-61.48095159956936, -0.14622655696134368, 0.3380833547085929)"><path d="M -1 0 L 1 0 M 1 0 L 0.4 0.3 M 1 0 L 0.4 -0.3" transform="translate(-0.14622655696134368, 0.3380833547085929) scale(5.0e-2)"/></g></g><g stroke-opacity="1.0" fill="#a6cfe3" stroke="#f0f0f0" stroke-width="5.0e-2" fill-opacity="1.0"><g transform="rotate(-58.67008724249424, -0.14622655696134368, 0.2525245348674314)"><path d="M -1 0 L 1 0 M 1 0 L 0.4 0.3 M 1 0 L 0.4 -0.3" transform="translate(-0.14622655696134368, 0.2525245348674314) scale(5.0e-2)"/></g></g><g stroke-opacity="1.0" fill="#a6cfe3" stroke="#f0f0f0" stroke-width="5.0e-2" fill-opacity="1.0"><g transform="rotate(-54.17002461487118, -0.14622655696134368, 0.16696571502626995)"><path d="M -1 0 L 1 0 M 1 0 L 0.4 0.3 M 1 0 L 0.4 -0.3" transform="translate(-0.14622655696134368, 0.16696571502626995) scale(5.0e-2)"/></g></g><g stroke-opacity="1.0" fill="#a6cfe3" stroke="#f0f0f0" stroke-width="5.0e-2" fill-opacity="1.0"><g transform="rotate(-45.97102193107917, -0.14622655696134368, 8.140689518510841e-2)"><path d="M -1 0 L 1 0 M 1 0 L 0.4 0.3 M 1 0 L 0.4 -0.3" transform="translate(-0.14622655696134368, 8.140689518510841e-2) scale(5.0e-2)"/></g></g><g stroke-opacity="1.0" fill="#a6cfe3" stroke="#f0f0f0" stroke-width="5.0e-2" fill-opacity="1.0"><g transform="rotate(-27.930948956080037, -0.14622655696134368, -4.151924656053185e-3)"><path d="M -1 0 L 1 0 M 1 0 L 0.4 0.3 M 1 0 L 0.4 -0.3" transform="translate(-0.14622655696134368, -4.151924656053185e-3) scale(5.0e-2)"/></g></g><g stroke-opacity="1.0" fill="#a6cfe3" stroke="#f0f0f0" stroke-width="5.0e-2" fill-opacity="1.0"><g transform="rotate(14.445942279113961, -0.14622655696134368, -8.971074449721461e-2)"><path d="M -1 0 L 1 0 M 1 0 L 0.4 0.3 M 1 0 L 0.4 -0.3" transform="translate(-0.14622655696134368, -8.971074449721461e-2) scale(5.0e-2)"/></g></g><g stroke-opacity="1.0" fill="#a6cfe3" stroke="#f0f0f0" stroke-width="5.0e-2" fill-opacity="1.0"><g transform="rotate(58.95370855020484, -0.14622655696134368, -0.17526956433837626)"><path d="M -1 0 L 1 0 M 1 0 L 0.4 0.3 M 1 0 L 0.4 -0.3" transform="translate(-0.14622655696134368, -0.17526956433837626) scale(5.0e-2)"/></g></g><g stroke-opacity="1.0" fill="#a6cfe3" stroke="#f0f0f0" stroke-width="5.0e-2" fill-opacity="1.0"><g transform="rotate(78.38768602098031, -0.14622655696134368, -0.2608283841795376)"><path d="M -1 0 L 1 0 M 1 0 L 0.4 0.3 M 1 0 L 0.4 -0.3" transform="translate(-0.14622655696134368, -0.2608283841795376) scale(5.0e-2)"/></g></g><g stroke-opacity="1.0" fill="#a6cfe3" stroke="#f0f0f0" stroke-width="5.0e-2" fill-opacity="1.0"><g transform="rotate(87.0721562906961, -0.14622655696134368, -0.346387204020699)"><path d="M -1 0 L 1 0 M 1 0 L 0.4 0.3 M 1 0 L 0.4 -0.3" transform="translate(-0.14622655696134368, -0.346387204020699) scale(5.0e-2)"/></g></g><g stroke-opacity="1.0" fill="#a6cfe3" stroke="#f0f0f0" stroke-width="5.0e-2" fill-opacity="1.0"><g transform="rotate(91.775265785145, -0.14622655696134368, -0.43194602386186043)"><path d="M -1 0 L 1 0 M 1 0 L 0.4 0.3 M 1 0 L 0.4 -0.3" transform="translate(-0.14622655696134368, -0.43194602386186043) scale(5.0e-2)"/></g></g><g stroke-opacity="1.0" fill="#a6cfe3" stroke="#f0f0f0" stroke-width="5.0e-2" fill-opacity="1.0"><g transform="rotate(-71.63155263230772, -1.3059262544641959e-2, 0.3380833547085929)"><path d="M -1 0 L 1 0 M 1 0 L 0.4 0.3 M 1 0 L 0.4 -0.3" transform="translate(-1.3059262544641959e-2, 0.3380833547085929) scale(5.0e-2)"/></g></g><g stroke-opacity="1.0" fill="#a6cfe3" stroke="#f0f0f0" stroke-width="5.0e-2" fill-opacity="1.0"><g transform="rotate(-68.30375886013567, -1.3059262544641959e-2, 0.2525245348674314)"><path d="M -1 0 L 1 0 M 1 0 L 0.4 0.3 M 1 0 L 0.4 -0.3" transform="translate(-1.3059262544641959e-2, 0.2525245348674314) scale(5.0e-2)"/></g></g><g stroke-opacity="1.0" fill="#a6cfe3" stroke="#f0f0f0" stroke-width="5.0e-2" fill-opacity="1.0"><g transform="rotate(-62.713434447769245, -1.3059262544641959e-2, 0.16696571502626995)"><path d="M -1 0 L 1 0 M 1 0 L 0.4 0.3 M 1 0 L 0.4 -0.3" transform="translate(-1.3059262544641959e-2, 0.16696571502626995) scale(5.0e-2)"/></g></g><g stroke-opacity="1.0" fill="#a6cfe3" stroke="#f0f0f0" stroke-width="5.0e-2" fill-opacity="1.0"><g transform="rotate(-51.74335201662478, -1.3059262544641959e-2, 8.140689518510841e-2)"><path d="M -1 0 L 1 0 M 1 0 L 0.4 0.3 M 1 0 L 0.4 -0.3" transform="translate(-1.3059262544641959e-2, 8.140689518510841e-2) scale(5.0e-2)"/></g></g><g stroke-opacity="1.0" fill="#a6cfe3" stroke="#f0f0f0" stroke-width="5.0e-2" fill-opacity="1.0"><g transform="rotate(-25.463345061871607, -1.3059262544641959e-2, -4.151924656053185e-3)"><path d="M -1 0 L 1 0 M 1 0 L 0.4 0.3 M 1 0 L 0.4 -0.3" transform="translate(-1.3059262544641959e-2, -4.151924656053185e-3) scale(5.0e-2)"/></g></g><g stroke-opacity="1.0" fill="#a6cfe3" stroke="#f0f0f0" stroke-width="5.0e-2" fill-opacity="1.0"><g transform="rotate(25.352317626939044, -1.3059262544641959e-2, -8.971074449721461e-2)"><path d="M -1 0 L 1 0 M 1 0 L 0.4 0.3 M 1 0 L 0.4 -0.3" transform="translate(-1.3059262544641959e-2, -8.971074449721461e-2) scale(5.0e-2)"/></g></g><g stroke-opacity="1.0" fill="#a6cfe3" stroke="#f0f0f0" stroke-width="5.0e-2" fill-opacity="1.0"><g transform="rotate(58.539020075643705, -1.3059262544641959e-2, -0.17526956433837626)"><path d="M -1 0 L 1 0 M 1 0 L 0.4 0.3 M 1 0 L 0.4 -0.3" transform="translate(-1.3059262544641959e-2, -0.17526956433837626) scale(5.0e-2)"/></g></g><g stroke-opacity="1.0" fill="#a6cfe3" stroke="#f0f0f0" stroke-width="5.0e-2" fill-opacity="1.0"><g transform="rotate(72.03510627877053, -1.3059262544641959e-2, -0.2608283841795376)"><path d="M -1 0 L 1 0 M 1 0 L 0.4 0.3 M 1 0 L 0.4 -0.3" transform="translate(-1.3059262544641959e-2, -0.2608283841795376) scale(5.0e-2)"/></g></g><g stroke-opacity="1.0" fill="#a6cfe3" stroke="#f0f0f0" stroke-width="5.0e-2" fill-opacity="1.0"><g transform="rotate(78.57121322367863, -1.3059262544641959e-2, -0.346387204020699)"><path d="M -1 0 L 1 0 M 1 0 L 0.4 0.3 M 1 0 L 0.4 -0.3" transform="translate(-1.3059262544641959e-2, -0.346387204020699) scale(5.0e-2)"/></g></g><g stroke-opacity="1.0" fill="#a6cfe3" stroke="#f0f0f0" stroke-width="5.0e-2" fill-opacity="1.0"><g transform="rotate(82.33198654554482, -1.3059262544641959e-2, -0.43194602386186043)"><path d="M -1 0 L 1 0 M 1 0 L 0.4 0.3 M 1 0 L 0.4 -0.3" transform="translate(-1.3059262544641959e-2, -0.43194602386186043) scale(5.0e-2)"/></g></g><g stroke-opacity="1.0" fill="#a6cfe3" stroke="#f0f0f0" stroke-width="5.0e-2" fill-opacity="1.0"><g transform="rotate(-83.72582919707884, 0.12010803187205987, 0.3380833547085929)"><path d="M -1 0 L 1 0 M 1 0 L 0.4 0.3 M 1 0 L 0.4 -0.3" transform="translate(0.12010803187205987, 0.3380833547085929) scale(5.0e-2)"/></g></g><g stroke-opacity="1.0" fill="#a6cfe3" stroke="#f0f0f0" stroke-width="5.0e-2" fill-opacity="1.0"><g transform="rotate(-80.37960270065743, 0.12010803187205987, 0.2525245348674314)"><path d="M -1 0 L 1 0 M 1 0 L 0.4 0.3 M 1 0 L 0.4 -0.3" transform="translate(0.12010803187205987, 0.2525245348674314) scale(5.0e-2)"/></g></g><g stroke-opacity="1.0" fill="#a6cfe3" stroke="#f0f0f0" stroke-width="5.0e-2" fill-opacity="1.0"><g transform="rotate(-74.55784459620769, 0.12010803187205987, 0.16696571502626995)"><path d="M -1 0 L 1 0 M 1 0 L 0.4 0.3 M 1 0 L 0.4 -0.3" transform="translate(0.12010803187205987, 0.16696571502626995) scale(5.0e-2)"/></g></g><g stroke-opacity="1.0" fill="#a6cfe3" stroke="#f0f0f0" stroke-width="5.0e-2" fill-opacity="1.0"><g transform="rotate(-62.392645475723924, 0.12010803187205987, 8.140689518510841e-2)"><path d="M -1 0 L 1 0 M 1 0 L 0.4 0.3 M 1 0 L 0.4 -0.3" transform="translate(0.12010803187205987, 8.140689518510841e-2) scale(5.0e-2)"/></g></g><g stroke-opacity="1.0" fill="#a6cfe3" stroke="#f0f0f0" stroke-width="5.0e-2" fill-opacity="1.0"><g transform="rotate(-30.325850500388558, 0.12010803187205987, -4.151924656053185e-3)"><path d="M -1 0 L 1 0 M 1 0 L 0.4 0.3 M 1 0 L 0.4 -0.3" transform="translate(0.12010803187205987, -4.151924656053185e-3) scale(5.0e-2)"/></g></g><g stroke-opacity="1.0" fill="#a6cfe3" stroke="#f0f0f0" stroke-width="5.0e-2" fill-opacity="1.0"><g transform="rotate(25.463345061871614, 0.12010803187205987, -8.971074449721461e-2)"><path d="M -1 0 L 1 0 M 1 0 L 0.4 0.3 M 1 0 L 0.4 -0.3" transform="translate(0.12010803187205987, -8.971074449721461e-2) scale(5.0e-2)"/></g></g><g stroke-opacity="1.0" fill="#a6cfe3" stroke="#f0f0f0" stroke-width="5.0e-2" fill-opacity="1.0"><g transform="rotate(53.34825221466397, 0.12010803187205987, -0.17526956433837626)"><path d="M -1 0 L 1 0 M 1 0 L 0.4 0.3 M 1 0 L 0.4 -0.3" transform="translate(0.12010803187205987, -0.17526956433837626) scale(5.0e-2)"/></g></g><g stroke-opacity="1.0" fill="#a6cfe3" stroke="#f0f0f0" stroke-width="5.0e-2" fill-opacity="1.0"><g transform="rotate(64.18052078566551, 0.12010803187205987, -0.2608283841795376)"><path d="M -1 0 L 1 0 M 1 0 L 0.4 0.3 M 1 0 L 0.4 -0.3" transform="translate(0.12010803187205987, -0.2608283841795376) scale(5.0e-2)"/></g></g><g stroke-opacity="1.0" fill="#a6cfe3" stroke="#f0f0f0" stroke-width="5.0e-2" fill-opacity="1.0"><g transform="rotate(69.52530867630297, 0.12010803187205987, -0.346387204020699)"><path d="M -1 0 L 1 0 M 1 0 L 0.4 0.3 M 1 0 L 0.4 -0.3" transform="translate(0.12010803187205987, -0.346387204020699) scale(5.0e-2)"/></g></g><g stroke-opacity="1.0" fill="#a6cfe3" stroke="#f0f0f0" stroke-width="5.0e-2" fill-opacity="1.0"><g transform="rotate(72.65691141186667, 0.12010803187205987, -0.43194602386186043)"><path d="M -1 0 L 1 0 M 1 0 L 0.4 0.3 M 1 0 L 0.4 -0.3" transform="translate(0.12010803187205987, -0.43194602386186043) scale(5.0e-2)"/></g></g><g stroke-opacity="1.0" fill="#a6cfe3" stroke="#f0f0f0" stroke-width="5.0e-2" fill-opacity="1.0"><g transform="rotate(-96.84875031477206, 0.2532753262887619, 0.3380833547085929)"><path d="M -1 0 L 1 0 M 1 0 L 0.4 0.3 M 1 0 L 0.4 -0.3" transform="translate(0.2532753262887619, 0.3380833547085929) scale(5.0e-2)"/></g></g><g stroke-opacity="1.0" fill="#a6cfe3" stroke="#f0f0f0" stroke-width="5.0e-2" fill-opacity="1.0"><g transform="rotate(-94.10747809603637, 0.2532753262887619, 0.2525245348674314)"><path d="M -1 0 L 1 0 M 1 0 L 0.4 0.3 M 1 0 L 0.4 -0.3" transform="translate(0.2532753262887619, 0.2525245348674314) scale(5.0e-2)"/></g></g><g stroke-opacity="1.0" fill="#a6cfe3" stroke="#f0f0f0" stroke-width="5.0e-2" fill-opacity="1.0"><g transform="rotate(-89.31668823842175, 0.2532753262887619, 0.16696571502626995)"><path d="M -1 0 L 1 0 M 1 0 L 0.4 0.3 M 1 0 L 0.4 -0.3" transform="translate(0.2532753262887619, 0.16696571502626995) scale(5.0e-2)"/></g></g><g stroke-opacity="1.0" fill="#a6cfe3" stroke="#f0f0f0" stroke-width="5.0e-2" fill-opacity="1.0"><g transform="rotate(-79.0898362236076, 0.2532753262887619, 8.140689518510841e-2)"><path d="M -1 0 L 1 0 M 1 0 L 0.4 0.3 M 1 0 L 0.4 -0.3" transform="translate(0.2532753262887619, 8.140689518510841e-2) scale(5.0e-2)"/></g></g><g stroke-opacity="1.0" fill="#a6cfe3" stroke="#f0f0f0" stroke-width="5.0e-2" fill-opacity="1.0"><g transform="rotate(-48.89810671661513, 0.2532753262887619, -4.151924656053185e-3)"><path d="M -1 0 L 1 0 M 1 0 L 0.4 0.3 M 1 0 L 0.4 -0.3" transform="translate(0.2532753262887619, -4.151924656053185e-3) scale(5.0e-2)"/></g></g><g stroke-opacity="1.0" fill="#a6cfe3" stroke="#f0f0f0" stroke-width="5.0e-2" fill-opacity="1.0"><g transform="rotate(16.431113233075703, 0.2532753262887619, -8.971074449721461e-2)"><path d="M -1 0 L 1 0 M 1 0 L 0.4 0.3 M 1 0 L 0.4 -0.3" transform="translate(0.2532753262887619, -8.971074449721461e-2) scale(5.0e-2)"/></g></g><g stroke-opacity="1.0" fill="#a6cfe3" stroke="#f0f0f0" stroke-width="5.0e-2" fill-opacity="1.0"><g transform="rotate(45.97102193107918, 0.2532753262887619, -0.17526956433837626)"><path d="M -1 0 L 1 0 M 1 0 L 0.4 0.3 M 1 0 L 0.4 -0.3" transform="translate(0.2532753262887619, -0.17526956433837626) scale(5.0e-2)"/></g></g><g stroke-opacity="1.0" fill="#a6cfe3" stroke="#f0f0f0" stroke-width="5.0e-2" fill-opacity="1.0"><g transform="rotate(56.03475263569897, 0.2532753262887619, -0.2608283841795376)"><path d="M -1 0 L 1 0 M 1 0 L 0.4 0.3 M 1 0 L 0.4 -0.3" transform="translate(0.2532753262887619, -0.2608283841795376) scale(5.0e-2)"/></g></g><g stroke-opacity="1.0" fill="#a6cfe3" stroke="#f0f0f0" stroke-width="5.0e-2" fill-opacity="1.0"><g transform="rotate(60.77115498628979, 0.2532753262887619, -0.346387204020699)"><path d="M -1 0 L 1 0 M 1 0 L 0.4 0.3 M 1 0 L 0.4 -0.3" transform="translate(0.2532753262887619, -0.346387204020699) scale(5.0e-2)"/></g></g><g stroke-opacity="1.0" fill="#a6cfe3" stroke="#f0f0f0" stroke-width="5.0e-2" fill-opacity="1.0"><g transform="rotate(63.48858398583044, 0.2532753262887619, -0.43194602386186043)"><path d="M -1 0 L 1 0 M 1 0 L 0.4 0.3 M 1 0 L 0.4 -0.3" transform="translate(0.2532753262887619, -0.43194602386186043) scale(5.0e-2)"/></g></g><g stroke-opacity="1.0" fill="#a6cfe3" stroke="#f0f0f0" stroke-width="5.0e-2" fill-opacity="1.0"><g transform="rotate(-109.476575498932, 0.3864426207054634, 0.3380833547085929)"><path d="M -1 0 L 1 0 M 1 0 L 0.4 0.3 M 1 0 L 0.4 -0.3" transform="translate(0.3864426207054634, 0.3380833547085929) scale(5.0e-2)"/></g></g><g stroke-opacity="1.0" fill="#a6cfe3" stroke="#f0f0f0" stroke-width="5.0e-2" fill-opacity="1.0"><g transform="rotate(-107.65012421993012, 0.3864426207054634, 0.2525245348674314)"><path d="M -1 0 L 1 0 M 1 0 L 0.4 0.3 M 1 0 L 0.4 -0.3" transform="translate(0.3864426207054634, 0.2525245348674314) scale(5.0e-2)"/></g></g><g stroke-opacity="1.0" fill="#a6cfe3" stroke="#f0f0f0" stroke-width="5.0e-2" fill-opacity="1.0"><g transform="rotate(-104.57421619803874, 0.3864426207054634, 0.16696571502626995)"><path d="M -1 0 L 1 0 M 1 0 L 0.4 0.3 M 1 0 L 0.4 -0.3" transform="translate(0.3864426207054634, 0.16696571502626995) scale(5.0e-2)"/></g></g><g stroke-opacity="1.0" fill="#a6cfe3" stroke="#f0f0f0" stroke-width="5.0e-2" fill-opacity="1.0"><g transform="rotate(-98.3658861240326, 0.3864426207054634, 8.140689518510841e-2)"><path d="M -1 0 L 1 0 M 1 0 L 0.4 0.3 M 1 0 L 0.4 -0.3" transform="translate(0.3864426207054634, 8.140689518510841e-2) scale(5.0e-2)"/></g></g><g stroke-opacity="1.0" fill="#a6cfe3" stroke="#f0f0f0" stroke-width="5.0e-2" fill-opacity="1.0"><g transform="rotate(-80.5376777919744, 0.3864426207054634, -4.151924656053185e-3)"><path d="M -1 0 L 1 0 M 1 0 L 0.4 0.3 M 1 0 L 0.4 -0.3" transform="translate(0.3864426207054634, -4.151924656053185e-3) scale(5.0e-2)"/></g></g><g stroke-opacity="1.0" fill="#a6cfe3" stroke="#f0f0f0" stroke-width="5.0e-2" fill-opacity="1.0"><g transform="rotate(-10.304846468766057, 0.3864426207054634, -8.971074449721461e-2)"><path d="M -1 0 L 1 0 M 1 0 L 0.4 0.3 M 1 0 L 0.4 -0.3" transform="translate(0.3864426207054634, -8.971074449721461e-2) scale(5.0e-2)"/></g></g><g stroke-opacity="1.0" fill="#a6cfe3" stroke="#f0f0f0" stroke-width="5.0e-2" fill-opacity="1.0"><g transform="rotate(36.3843518158359, 0.3864426207054634, -0.17526956433837626)"><path d="M -1 0 L 1 0 M 1 0 L 0.4 0.3 M 1 0 L 0.4 -0.3" transform="translate(0.3864426207054634, -0.17526956433837626) scale(5.0e-2)"/></g></g><g stroke-opacity="1.0" fill="#a6cfe3" stroke="#f0f0f0" stroke-width="5.0e-2" fill-opacity="1.0"><g transform="rotate(48.012787504183336, 0.3864426207054634, -0.2608283841795376)"><path d="M -1 0 L 1 0 M 1 0 L 0.4 0.3 M 1 0 L 0.4 -0.3" transform="translate(0.3864426207054634, -0.2608283841795376) scale(5.0e-2)"/></g></g><g stroke-opacity="1.0" fill="#a6cfe3" stroke="#f0f0f0" stroke-width="5.0e-2" fill-opacity="1.0"><g transform="rotate(52.73359809902285, 0.3864426207054634, -0.346387204020699)"><path d="M -1 0 L 1 0 M 1 0 L 0.4 0.3 M 1 0 L 0.4 -0.3" transform="translate(0.3864426207054634, -0.346387204020699) scale(5.0e-2)"/></g></g><g stroke-opacity="1.0" fill="#a6cfe3" stroke="#f0f0f0" stroke-width="5.0e-2" fill-opacity="1.0"><g transform="rotate(55.2568198416964, 0.3864426207054634, -0.43194602386186043)"><path d="M -1 0 L 1 0 M 1 0 L 0.4 0.3 M 1 0 L 0.4 -0.3" transform="translate(0.3864426207054634, -0.43194602386186043) scale(5.0e-2)"/></g></g><g stroke-opacity="1.0" fill="#a6cfe3" stroke="#f0f0f0" stroke-width="5.0e-2" fill-opacity="1.0"><g transform="rotate(-120.39004059367852, 0.5196099151221651, 0.3380833547085929)"><path d="M -1 0 L 1 0 M 1 0 L 0.4 0.3 M 1 0 L 0.4 -0.3" transform="translate(0.5196099151221651, 0.3380833547085929) scale(5.0e-2)"/></g></g><g stroke-opacity="1.0" fill="#a6cfe3" stroke="#f0f0f0" stroke-width="5.0e-2" fill-opacity="1.0"><g transform="rotate(-119.3548748641938, 0.5196099151221651, 0.2525245348674314)"><path d="M -1 0 L 1 0 M 1 0 L 0.4 0.3 M 1 0 L 0.4 -0.3" transform="translate(0.5196099151221651, 0.2525245348674314) scale(5.0e-2)"/></g></g><g stroke-opacity="1.0" fill="#a6cfe3" stroke="#f0f0f0" stroke-width="5.0e-2" fill-opacity="1.0"><g transform="rotate(-117.72207677286721, 0.5196099151221651, 0.16696571502626995)"><path d="M -1 0 L 1 0 M 1 0 L 0.4 0.3 M 1 0 L 0.4 -0.3" transform="translate(0.5196099151221651, 0.16696571502626995) scale(5.0e-2)"/></g></g><g stroke-opacity="1.0" fill="#a6cfe3" stroke="#f0f0f0" stroke-width="5.0e-2" fill-opacity="1.0"><g transform="rotate(-114.77180709318333, 0.5196099151221651, 8.140689518510841e-2)"><path d="M -1 0 L 1 0 M 1 0 L 0.4 0.3 M 1 0 L 0.4 -0.3" transform="translate(0.5196099151221651, 8.140689518510841e-2) scale(5.0e-2)"/></g></g><g stroke-opacity="1.0" fill="#a6cfe3" stroke="#f0f0f0" stroke-width="5.0e-2" fill-opacity="1.0"><g transform="rotate(-107.91023110297346, 0.5196099151221651, -4.151924656053185e-3)"><path d="M -1 0 L 1 0 M 1 0 L 0.4 0.3 M 1 0 L 0.4 -0.3" transform="translate(0.5196099151221651, -4.151924656053185e-3) scale(5.0e-2)"/></g></g><g stroke-opacity="1.0" fill="#a6cfe3" stroke="#f0f0f0" stroke-width="5.0e-2" fill-opacity="1.0"><g transform="rotate(-78.88016563239884, 0.5196099151221651, -8.971074449721461e-2)"><path d="M -1 0 L 1 0 M 1 0 L 0.4 0.3 M 1 0 L 0.4 -0.3" transform="translate(0.5196099151221651, -8.971074449721461e-2) scale(5.0e-2)"/></g></g><g stroke-opacity="1.0" fill="#a6cfe3" stroke="#f0f0f0" stroke-width="5.0e-2" fill-opacity="1.0"><g transform="rotate(18.07717429682483, 0.5196099151221651, -0.17526956433837626)"><path d="M -1 0 L 1 0 M 1 0 L 0.4 0.3 M 1 0 L 0.4 -0.3" transform="translate(0.5196099151221651, -0.17526956433837626) scale(5.0e-2)"/></g></g><g stroke-opacity="1.0" fill="#a6cfe3" stroke="#f0f0f0" stroke-width="5.0e-2" fill-opacity="1.0"><g transform="rotate(39.57646251047537, 0.5196099151221651, -0.2608283841795376)"><path d="M -1 0 L 1 0 M 1 0 L 0.4 0.3 M 1 0 L 0.4 -0.3" transform="translate(0.5196099151221651, -0.2608283841795376) scale(5.0e-2)"/></g></g><g stroke-opacity="1.0" fill="#a6cfe3" stroke="#f0f0f0" stroke-width="5.0e-2" fill-opacity="1.0"><g transform="rotate(45.412192741402315, 0.5196099151221651, -0.346387204020699)"><path d="M -1 0 L 1 0 M 1 0 L 0.4 0.3 M 1 0 L 0.4 -0.3" transform="translate(0.5196099151221651, -0.346387204020699) scale(5.0e-2)"/></g></g><g stroke-opacity="1.0" fill="#a6cfe3" stroke="#f0f0f0" stroke-width="5.0e-2" fill-opacity="1.0"><g transform="rotate(48.061152646549644, 0.5196099151221651, -0.43194602386186043)"><path d="M -1 0 L 1 0 M 1 0 L 0.4 0.3 M 1 0 L 0.4 -0.3" transform="translate(0.5196099151221651, -0.43194602386186043) scale(5.0e-2)"/></g></g><g stroke-opacity="1.0" fill="#a6cfe3" stroke="#f0f0f0" stroke-width="5.0e-2" fill-opacity="1.0"><g transform="rotate(-129.20442853819998, 0.6527772095388669, 0.3380833547085929)"><path d="M -1 0 L 1 0 M 1 0 L 0.4 0.3 M 1 0 L 0.4 -0.3" transform="translate(0.6527772095388669, 0.3380833547085929) scale(5.0e-2)"/></g></g><g stroke-opacity="1.0" fill="#a6cfe3" stroke="#f0f0f0" stroke-width="5.0e-2" fill-opacity="1.0"><g transform="rotate(-128.6756131139764, 0.6527772095388669, 0.2525245348674314)"><path d="M -1 0 L 1 0 M 1 0 L 0.4 0.3 M 1 0 L 0.4 -0.3" transform="translate(0.6527772095388669, 0.2525245348674314) scale(5.0e-2)"/></g></g><g stroke-opacity="1.0" fill="#a6cfe3" stroke="#f0f0f0" stroke-width="5.0e-2" fill-opacity="1.0"><g transform="rotate(-127.8990823601365, 0.6527772095388669, 0.16696571502626995)"><path d="M -1 0 L 1 0 M 1 0 L 0.4 0.3 M 1 0 L 0.4 -0.3" transform="translate(0.6527772095388669, 0.16696571502626995) scale(5.0e-2)"/></g></g><g stroke-opacity="1.0" fill="#a6cfe3" stroke="#f0f0f0" stroke-width="5.0e-2" fill-opacity="1.0"><g transform="rotate(-126.64820118726841, 0.6527772095388669, 8.140689518510841e-2)"><path d="M -1 0 L 1 0 M 1 0 L 0.4 0.3 M 1 0 L 0.4 -0.3" transform="translate(0.6527772095388669, 8.140689518510841e-2) scale(5.0e-2)"/></g></g><g stroke-opacity="1.0" fill="#a6cfe3" stroke="#f0f0f0" stroke-width="5.0e-2" fill-opacity="1.0"><g transform="rotate(-124.30095672615316, 0.6527772095388669, -4.151924656053185e-3)"><path d="M -1 0 L 1 0 M 1 0 L 0.4 0.3 M 1 0 L 0.4 -0.3" transform="translate(0.6527772095388669, -4.151924656053185e-3) scale(5.0e-2)"/></g></g><g stroke-opacity="1.0" fill="#a6cfe3" stroke="#f0f0f0" stroke-width="5.0e-2" fill-opacity="1.0"><g transform="rotate(-118.3399495893263, 0.6527772095388669, -8.971074449721461e-2)"><path d="M -1 0 L 1 0 M 1 0 L 0.4 0.3 M 1 0 L 0.4 -0.3" transform="translate(0.6527772095388669, -8.971074449721461e-2) scale(5.0e-2)"/></g></g><g stroke-opacity="1.0" fill="#a6cfe3" stroke="#f0f0f0" stroke-width="5.0e-2" fill-opacity="1.0"><g transform="rotate(-81.6026974133102, 0.6527772095388669, -0.17526956433837626)"><path d="M -1 0 L 1 0 M 1 0 L 0.4 0.3 M 1 0 L 0.4 -0.3" transform="translate(0.6527772095388669, -0.17526956433837626) scale(5.0e-2)"/></g></g><g stroke-opacity="1.0" fill="#a6cfe3" stroke="#f0f0f0" stroke-width="5.0e-2" fill-opacity="1.0"><g transform="rotate(25.916669828467207, 0.6527772095388669, -0.2608283841795376)"><path d="M -1 0 L 1 0 M 1 0 L 0.4 0.3 M 1 0 L 0.4 -0.3" transform="translate(0.6527772095388669, -0.2608283841795376) scale(5.0e-2)"/></g></g><g stroke-opacity="1.0" fill="#a6cfe3" stroke="#f0f0f0" stroke-width="5.0e-2" fill-opacity="1.0"><g transform="rotate(38.15385704023621, 0.6527772095388669, -0.346387204020699)"><path d="M -1 0 L 1 0 M 1 0 L 0.4 0.3 M 1 0 L 0.4 -0.3" transform="translate(0.6527772095388669, -0.346387204020699) scale(5.0e-2)"/></g></g><g stroke-opacity="1.0" fill="#a6cfe3" stroke="#f0f0f0" stroke-width="5.0e-2" fill-opacity="1.0"><g transform="rotate(41.70388402745369, 0.6527772095388669, -0.43194602386186043)"><path d="M -1 0 L 1 0 M 1 0 L 0.4 0.3 M 1 0 L 0.4 -0.3" transform="translate(0.6527772095388669, -0.43194602386186043) scale(5.0e-2)"/></g></g><g></g></svg>