<svg height="300.0" width="457.74043453182077" xmlns:xlink="http://www.w3.org/1999/xlink" xmlns="http://www.w3.org/2000/svg" viewBox="-0.87 -0.5531722096956032 1.6775 1.0994222096956032"><g fill-opacity="5.0e-2" stroke-opacity="0.0" fill="#0d0d0d" stroke-width="0.0" stroke="#000000"><rect height="0.9019165727170236" y="-0.5" width="1.4445949676731749" x="-0.6945949676731749"/></g><g text-anchor="end" fill-opacity="1.0" fill="#0d0d0d" stroke-width="0.0" stroke="none" font-size="5.0e-2"><text y="0.41499436302142045" x="-0.75">-0.5</text></g><g text-anchor="end" fill-opacity="1.0" fill="#0d0d0d" stroke-width="0.0" stroke="none" font-size="5.0e-2"><text y="0.3248027057497182" x="-0.75">-0.4</text></g><g text-anchor="end" fill-opacity="1.0" fill="#0d0d0d" stroke-width="0.0" stroke="none" font-size="5.0e-2"><text y="0.23461104847801584" x="-0.75">-0.3</text></g><g text-anchor="end" fill-opacity="1.0" fill="#0d0d0d" stroke-width="0.0" stroke="none" font-size="5.0e-2"><text y="0.14441939120631336" x="-0.75">-0.2</text></g><g text-anchor="end" fill-opacity="1.0" fill="#0d0d0d" stroke-width="0.0" stroke="none" font-size="5.0e-2"><text y="5.4227733934611055e-2" x="-0.75">-0.1</text></g><g text-anchor="end" fill-opacity="1.0" fill="#0d0d0d" stroke-width="0.0" stroke="none" font-size="5.0e-2"><text y="-3.596392333709142e-2" x="-0.75">0</text></g><g text-anchor="end" fill-opacity="1.0" fill="#0d0d0d" stroke-width="0.0" stroke="none" font-size="5.0e-2"><text y="-0.12615558060879384" x="-0.75">0.1</text></g><g text-anchor="end" fill-opacity="1.0" fill="#0d0d0d" stroke-width="0.0" stroke="none" font-size="5.0e-2"><text y="-0.21634723788049615" x="-0.75">0.2</text></g><g text-anchor="end" fill-opacity="1.0" fill="#0d0d0d" stroke-width="0.0" stroke="none" font-size="5.0e-2"><text y="-0.30653889515219834" x="-0.75">0.3</text></g><g text-anchor="end" fill-opacity="1.0" fill="#0d0d0d" stroke-width="0.0" stroke="none" font-size="5.0e-2"><text y="-0.3967305524239009" x="-0.75">0.4</text></g><g text-anchor="end" fill-opacity="1.0" fill="#0d0d0d" stroke-width="0.0" stroke="none" font-size="5.0e-2"><text y="-0.4869222096956032" x="-0.75">0.5</text></g><g fill-opacity="0.4" stroke-opacity="0.4" fill="#0d0d0d" stroke-width="2.0e-3" stroke="#0d0d0d"><g transform="rotate(-90.0, -0.7201161454354009, 0.40191657271702363)"><polyline points="-0.7201161454354009,0.41691657271702365
-0.7201161454354009,0.3869165727170236"/></g><g transform="rotate(-90.0, -0.7201161454354009, 0.3117249154453213)"><polyline points="-0.7201161454354009,0.32672491544532134
-0.7201161454354009,0.2967249154453213"/></g><g transform="rotate(-90.0, -0.7201161454354009, 0.2215332581736189)"><polyline points="-0.7201161454354009,0.23653325817361892
-0.7201161454354009,0.2065332581736189"/></g><g transform="rotate(-90.0, -0.7201161454354009, 0.13134160090191654)"><polyline points="-0.7201161454354009,0.14634160090191656
-0.7201161454354009,0.11634160090191654"/></g><g transform="rotate(-90.0, -0.7201161454354009, 4.114994363021418e-2)"><polyline points="-0.7201161454354009,5.614994363021418e-2
-0.7201161454354009,2.614994363021418e-2"/></g><g transform="rotate(-90.0, -0.7201161454354009, -4.904171364148813e-2)"><polyline points="-0.7201161454354009,-3.404171364148813e-2
-0.7201161454354009,-6.404171364148813e-2"/></g><g transform="rotate(-90.0, -0.7201161454354009, -0.13923337091319066)"><polyline points="-0.7201161454354009,-0.12423337091319066
-0.7201161454354009,-0.15423337091319067"/></g><g transform="rotate(-90.0, -0.7201161454354009, -0.22942502818489297)"><polyline points="-0.7201161454354009,-0.21442502818489295
-0.7201161454354009,-0.24442502818489298"/></g><g transform="rotate(-90.0, -0.7201161454354009, -0.3196166854565953)"><polyline points="-0.7201161454354009,-0.30461668545659526
-0.7201161454354009,-0.3346166854565953"/></g><g transform="rotate(-90.0, -0.7201161454354009, -0.4098083427282976)"><polyline points="-0.7201161454354009,-0.39480834272829757
-0.7201161454354009,-0.4248083427282976"/></g><g transform="rotate(-90.0, -0.7201161454354009, -0.5)"><polyline points="-0.7201161454354009,-0.485
-0.7201161454354009,-0.515"/></g></g><g fill-opacity="0.4" stroke-opacity="0.0" fill="#0d0d0d" stroke-width="0.0" stroke="#000000"><rect height="0.9019165727170236" y="-0.5" width="3.8522532471284565e-3" x="-0.7080778540381245"/></g><g text-anchor="middle" fill-opacity="1.0" fill="#0d0d0d" stroke-width="0.0" stroke="none" font-size="5.0e-2"><text y="0.5" x="-0.6945949676731749">-0.5</text></g><g text-anchor="middle" fill-opacity="1.0" fill="#0d0d0d" stroke-width="0.0" stroke="none" font-size="5.0e-2"><text y="0.5" x="-0.5501354709058575">-0.4</text></g><g text-anchor="middle" fill-opacity="1.0" fill="#0d0d0d" stroke-width="0.0" stroke="none" font-size="5.0e-2"><text y="0.5" x="-0.40567597413853984">-0.3</text></g><g text-anchor="middle" fill-opacity="1.0" fill="#0d0d0d" stroke-width="0.0" stroke="none" font-size="5.0e-2"><text y="0.5" x="-0.2612164773712222">-0.2</text></g><g text-anchor="middle" fill-opacity="1.0" fill="#0d0d0d" stroke-width="0.0" stroke="none" font-size="5.0e-2"><text y="0.5" x="-0.11675698060390471">-0.1</text></g><g text-anchor="middle" fill-opacity="1.0" fill="#0d0d0d" stroke-width="0.0" stroke="none" font-size="5.0e-2"><text y="0.5" x="2.770251616341257e-2">0</text></g><g text-anchor="middle" fill-opacity="1.0" fill="#0d0d0d" stroke-width="0.0" stroke="none" font-size="5.0e-2"><text y="0.5" x="0.1721620129307302">0.1</text></g><g text-anchor="middle" fill-opacity="1.0" fill="#0d0d0d" stroke-width="0.0" stroke="none" font-size="5.0e-2"><text y="0.5" x="0.3166215096980478">0.2</text></g><g text-anchor="middle" fill-opacity="1.0" fill="#0d0d0d" stroke-width="0.0" stroke="none" font-size="5.0e-2"><text y="0.5" x="0.4610810064653652">0.3</text></g><g text-anchor="middle" fill-opacity="1.0" fill="#0d0d0d" stroke-width="0.0" stroke="none" font-size="5.0e-2"><text y="0.5" x="0.6055405032326826">0.4</text></g><g text-anchor="middle" fill-opacity="1.0" fill="#0d0d0d" stroke-width="0.0" stroke="none" font-size="5.0e-2"><text y="0.5" x="0.75">0.5</text></g><g fill-opacity="0.4" stroke-opacity="0.4" fill="#0d0d0d" stroke-width="2.0e-3" stroke="#0d0d0d"><polyline points="-0.6945949676731749,0.44081736189402476
-0.6945949676731749,0.41081736189402474"/><polyline points="-0.5501354709058575,0.44081736189402476
-0.5501354709058575,0.41081736189402474"/><polyline points="-0.40567597413853984,0.44081736189402476
-0.40567597413853984,0.41081736189402474"/><polyline points="-0.2612164773712222,0.44081736189402476
-0.2612164773712222,0.41081736189402474"/><polyline points="-0.11675698060390471,0.44081736189402476
-0.11675698060390471,0.41081736189402474"/><polyline points="2.770251616341257e-2,0.44081736189402476
2.770251616341257e-2,0.41081736189402474"/><polyline points="0.1721620129307302,0.44081736189402476
0.1721620129307302,0.41081736189402474"/><polyline points="0.3166215096980478,0.44081736189402476
0.3166215096980478,0.41081736189402474"/><polyline points="0.4610810064653652,0.44081736189402476
0.4610810064653652,0.41081736189402474"/><polyline points="0.6055405032326826,0.44081736189402476
0.6055405032326826,0.41081736189402474"/><polyline points="0.75,0.44081736189402476
0.75,0.41081736189402474"/></g><g fill-opacity="0.4" stroke-opacity="0.0" fill="#0d0d0d" stroke-width="0.0" stroke="#000000"><rect height="3.6076662908680612e-3" y="0.41093573844419395" width="1.4445949676731749" x="-0.6945949676731749"/></g><g fill-opacity="1.0" stroke-opacity="1.0" fill="#a6cfe3" stroke-width="5.0e-2" stroke="#0d0d0d"><g transform="rotate(-41.70388402745369, -0.6223652192895162, 0.3568207440811725)"><path d="M -1 0 L 1 0 M 1 0 L 0.4 0.3 M 1 0 L 0.4 -0.3" transform="translate(-0.6223652192895162, 0.3568207440811725) scale(5.0e-2)"/></g></g><g fill-opacity="1.0" stroke-opacity="1.0" fill="#a6cfe3" stroke-width="5.0e-2" stroke="#0d0d0d"><g transform="rotate(-40.703991576050946, -0.6223652192895162, 0.2666290868094702)"><path d="M -1 0 L 1 0 M 1 0 L 0.4 0.3 M 1 0 L 0.4 -0.3" transform="translate(-0.6223652192895162, 0.2666290868094702) scale(5.0e-2)"/></g></g><g fill-opacity="1.0" stroke-opacity="1.0" fill="#a6cfe3" stroke-width="5.0e-2" stroke="#0d0d0d"><g transform="rotate(-39.33034350353968, -0.6223652192895162, 0.17643742953776775)"><path d="M -1 0 L 1 0 M 1 0 L 0.4 0.3 M 1 0 L 0.4 -0.3" transform="translate(-0.6223652192895162, 0.17643742953776775) scale(5.0e-2)"/></g></g><g fill-opacity="1.0" stroke-opacity="1.0" fill="#a6cfe3" stroke-width="5.0e-2" stroke="#0d0d0d"><g transform="rotate(-37.32821468040517, -0.6223652192895162, 8.624577226606533e-2)"><path d="M -1 0 L 1 0 M 1 0 L 0.4 0.3 M 1 0 L 0.4 -0.3" transform="translate(-0.6223652192895162, 8.624577226606533e-2) scale(5.0e-2)"/></g></g><g fill-opacity="1.0" stroke-opacity="1.0" fill="#a6cfe3" stroke-width="5.0e-2" stroke="#0d0d0d"><g transform="rotate(-34.14934249468909, -0.6223652192895162, -3.945885005637084e-3)"><path d="M -1 0 L 1 0 M 1 0 L 0.4 0.3 M 1 0 L 0.4 -0.3" transform="translate(-0.6223652192895162, -3.945885005637084e-3) scale(5.0e-2)"/></g></g><g fill-opacity="1.0" stroke-opacity="1.0" fill="#a6cfe3" stroke-width="5.0e-2" stroke="#0d0d0d"><g transform="rotate(-28.382403784146327, -0.6223652192895162, -9.413754227733939e-2)"><path d="M -1 0 L 1 0 M 1 0 L 0.4 0.3 M 1 0 L 0.4 -0.3" transform="translate(-0.6223652192895162, -9.413754227733939e-2) scale(5.0e-2)"/></g></g><g fill-opacity="1.0" stroke-opacity="1.0" fill="#a6cfe3" stroke-width="5.0e-2" stroke="#0d0d0d"><g transform="rotate(-15.274030281041822, -0.6223652192895162, -0.1843291995490418)"><path d="M -1 0 L 1 0 M 1 0 L 0.4 0.3 M 1 0 L 0.4 -0.3" transform="translate(-0.6223652192895162, -0.1843291995490418) scale(5.0e-2)"/></g></g><g fill-opacity="1.0" stroke-opacity="1.0" fill="#a6cfe3" stroke-width="5.0e-2" stroke="#0d0d0d"><g transform="rotate(24.91711526233156, -0.6223652192895162, -0.2745208568207441)"><path d="M -1 0 L 1 0 M 1 0 L 0.4 0.3 M 1 0 L 0.4 -0.3" transform="translate(-0.6223652192895162, -0.2745208568207441) scale(5.0e-2)"/></g></g><g fill-opacity="1.0" stroke-opacity="1.0" fill="#a6cfe3" stroke-width="5.0e-2" stroke="#0d0d0d"><g transform="rotate(85.25243231067932, -0.6223652192895162, -0.36471251409244654)"><path d="M -1 0 L 1 0 M 1 0 L 0.4 0.3 M 1 0 L 0.4 -0.3" transform="translate(-0.6223652192895162, -0.36471251409244654) scale(5.0e-2)"/></g></g><g fill-opacity="1.0" stroke-opacity="1.0" fill="#a6cfe3" stroke-width="5.0e-2" stroke="#0d0d0d"><g transform="rotate(107.439663564573, -0.6223652192895162, -0.4549041713641486)"><path d="M -1 0 L 1 0 M 1 0 L 0.4 0.3 M 1 0 L 0.4 -0.3" transform="translate(-0.6223652192895162, -0.4549041713641486) scale(5.0e-2)"/></g></g><g fill-opacity="1.0" stroke-opacity="1.0" fill="#a6cfe3" stroke-width="5.0e-2" stroke="#0d0d0d"><g transform="rotate(-46.89925433618114, -0.47790572252219865, 0.3568207440811725)"><path d="M -1 0 L 1 0 M 1 0 L 0.4 0.3 M 1 0 L 0.4 -0.3" transform="translate(-0.47790572252219865, 0.3568207440811725) scale(5.0e-2)"/></g></g><g fill-opacity="1.0" stroke-opacity="1.0" fill="#a6cfe3" stroke-width="5.0e-2" stroke="#0d0d0d"><g transform="rotate(-45.41219274140233, -0.47790572252219865, 0.2666290868094702)"><path d="M -1 0 L 1 0 M 1 0 L 0.4 0.3 M 1 0 L 0.4 -0.3" transform="translate(-0.47790572252219865, 0.2666290868094702) scale(5.0e-2)"/></g></g><g fill-opacity="1.0" stroke-opacity="1.0" fill="#a6cfe3" stroke-width="5.0e-2" stroke="#0d0d0d"><g transform="rotate(-43.26655332833368, -0.47790572252219865, 0.17643742953776775)"><path d="M -1 0 L 1 0 M 1 0 L 0.4 0.3 M 1 0 L 0.4 -0.3" transform="translate(-0.47790572252219865, 0.17643742953776775) scale(5.0e-2)"/></g></g><g fill-opacity="1.0" stroke-opacity="1.0" fill="#a6cfe3" stroke-width="5.0e-2" stroke="#0d0d0d"><g transform="rotate(-39.913529548149384, -0.47790572252219865, 8.624577226606533e-2)"><path d="M -1 0 L 1 0 M 1 0 L 0.4 0.3 M 1 0 L 0.4 -0.3" transform="translate(-0.47790572252219865, 8.624577226606533e-2) scale(5.0e-2)"/></g></g><g fill-opacity="1.0" stroke-opacity="1.0" fill="#a6cfe3" stroke-width="5.0e-2" stroke="#0d0d0d"><g transform="rotate(-33.99914492987854, -0.47790572252219865, -3.945885005637084e-3)"><path d="M -1 0 L 1 0 M 1 0 L 0.4 0.3 M 1 0 L 0.4 -0.3" transform="translate(-0.47790572252219865, -3.945885005637084e-3) scale(5.0e-2)"/></g></g><g fill-opacity="1.0" stroke-opacity="1.0" fill="#a6cfe3" stroke-width="5.0e-2" stroke="#0d0d0d"><g transform="rotate(-21.321176713227626, -0.47790572252219865, -9.413754227733939e-2)"><path d="M -1 0 L 1 0 M 1 0 L 0.4 0.3 M 1 0 L 0.4 -0.3" transform="translate(-0.47790572252219865, -9.413754227733939e-2) scale(5.0e-2)"/></g></g><g fill-opacity="1.0" stroke-opacity="1.0" fill="#a6cfe3" stroke-width="5.0e-2" stroke="#0d0d0d"><g transform="rotate(13.364611169993305, -0.47790572252219865, -0.1843291995490418)"><path d="M -1 0 L 1 0 M 1 0 L 0.4 0.3 M 1 0 L 0.4 -0.3" transform="translate(-0.47790572252219865, -0.1843291995490418) scale(5.0e-2)"/></g></g><g fill-opacity="1.0" stroke-opacity="1.0" fill="#a6cfe3" stroke-width="5.0e-2" stroke="#0d0d0d"><g transform="rotate(70.26081916410517, -0.47790572252219865, -0.2745208568207441)"><path d="M -1 0 L 1 0 M 1 0 L 0.4 0.3 M 1 0 L 0.4 -0.3" transform="translate(-0.47790572252219865, -0.2745208568207441) scale(5.0e-2)"/></g></g><g fill-opacity="1.0" stroke-opacity="1.0" fill="#a6cfe3" stroke-width="5.0e-2" stroke="#0d0d0d"><g transform="rotate(96.08437785000453, -0.47790572252219865, -0.36471251409244654)"><path d="M -1 0 L 1 0 M 1 0 L 0.4 0.3 M 1 0 L 0.4 -0.3" transform="translate(-0.47790572252219865, -0.36471251409244654) scale(5.0e-2)"/></g></g><g fill-opacity="1.0" stroke-opacity="1.0" fill="#a6cfe3" stroke-width="5.0e-2" stroke="#0d0d0d"><g transform="rotate(106.05509143504601, -0.47790572252219865, -0.4549041713641486)"><path d="M -1 0 L 1 0 M 1 0 L 0.4 0.3 M 1 0 L 0.4 -0.3" transform="translate(-0.47790572252219865, -0.4549041713641486) scale(5.0e-2)"/></g></g><g fill-opacity="1.0" stroke-opacity="1.0" fill="#a6cfe3" stroke-width="5.0e-2" stroke="#0d0d0d"><g transform="rotate(-53.3543508353797, -0.33344622575488114, 0.3568207440811725)"><path d="M -1 0 L 1 0 M 1 0 L 0.4 0.3 M 1 0 L 0.4 -0.3" transform="translate(-0.33344622575488114, 0.3568207440811725) scale(5.0e-2)"/></g></g><g fill-opacity="1.0" stroke-opacity="1.0" fill="#a6cfe3" stroke-width="5.0e-2" stroke="#0d0d0d"><g transform="rotate(-51.23448009554123, -0.33344622575488114, 0.2666290868094702)"><path d="M -1 0 L 1 0 M 1 0 L 0.4 0.3 M 1 0 L 0.4 -0.3" transform="translate(-0.33344622575488114, 0.2666290868094702) scale(5.0e-2)"/></g></g><g fill-opacity="1.0" stroke-opacity="1.0" fill="#a6cfe3" stroke-width="5.0e-2" stroke="#0d0d0d"><g transform="rotate(-48.01278750418334, -0.33344622575488114, 0.17643742953776775)"><path d="M -1 0 L 1 0 M 1 0 L 0.4 0.3 M 1 0 L 0.4 -0.3" transform="translate(-0.33344622575488114, 0.17643742953776775) scale(5.0e-2)"/></g></g><g fill-opacity="1.0" stroke-opacity="1.0" fill="#a6cfe3" stroke-width="5.0e-2" stroke="#0d0d0d"><g transform="rotate(-42.58049078334366, -0.33344622575488114, 8.624577226606533e-2)"><path d="M -1 0 L 1 0 M 1 0 L 0.4 0.3 M 1 0 L 0.4 -0.3" transform="translate(-0.33344622575488114, 8.624577226606533e-2) scale(5.0e-2)"/></g></g><g fill-opacity="1.0" stroke-opacity="1.0" fill="#a6cfe3" stroke-width="5.0e-2" stroke="#0d0d0d"><g transform="rotate(-31.827446576673108, -0.33344622575488114, -3.945885005637084e-3)"><path d="M -1 0 L 1 0 M 1 0 L 0.4 0.3 M 1 0 L 0.4 -0.3" transform="translate(-0.33344622575488114, -3.945885005637084e-3) scale(5.0e-2)"/></g></g><g fill-opacity="1.0" stroke-opacity="1.0" fill="#a6cfe3" stroke-width="5.0e-2" stroke="#0d0d0d"><g transform="rotate(-5.440332031005506, -0.33344622575488114, -9.413754227733939e-2)"><path d="M -1 0 L 1 0 M 1 0 L 0.4 0.3 M 1 0 L 0.4 -0.3" transform="translate(-0.33344622575488114, -9.413754227733939e-2) scale(5.0e-2)"/></g></g><g fill-opacity="1.0" stroke-opacity="1.0" fill="#a6cfe3" stroke-width="5.0e-2" stroke="#0d0d0d"><g transform="rotate(47.1210963966615, -0.33344622575488114, -0.1843291995490418)"><path d="M -1 0 L 1 0 M 1 0 L 0.4 0.3 M 1 0 L 0.4 -0.3" transform="translate(-0.33344622575488114, -0.1843291995490418) scale(5.0e-2)"/></g></g><g fill-opacity="1.0" stroke-opacity="1.0" fill="#a6cfe3" stroke-width="5.0e-2" stroke="#0d0d0d"><g transform="rotate(80.53767779197439, -0.33344622575488114, -0.2745208568207441)"><path d="M -1 0 L 1 0 M 1 0 L 0.4 0.3 M 1 0 L 0.4 -0.3" transform="translate(-0.33344622575488114, -0.2745208568207441) scale(5.0e-2)"/></g></g><g fill-opacity="1.0" stroke-opacity="1.0" fill="#a6cfe3" stroke-width="5.0e-2" stroke="#0d0d0d"><g transform="rotate(93.73139699916045, -0.33344622575488114, -0.36471251409244654)"><path d="M -1 0 L 1 0 M 1 0 L 0.4 0.3 M 1 0 L 0.4 -0.3" transform="translate(-0.33344622575488114, -0.36471251409244654) scale(5.0e-2)"/></g></g><g fill-opacity="1.0" stroke-opacity="1.0" fill="#a6cfe3" stroke-width="5.0e-2" stroke="#0d0d0d"><g transform="rotate(100.06068979532297, -0.33344622575488114, -0.4549041713641486)"><path d="M -1 0 L 1 0 M 1 0 L 0.4 0.3 M 1 0 L 0.4 -0.3" transform="translate(-0.33344622575488114, -0.4549041713641486) scale(5.0e-2)"/></g></g><g fill-opacity="1.0" stroke-opacity="1.0" fill="#a6cfe3" stroke-width="5.0e-2" stroke="#0d0d0d"><g transform="rotate(-61.480951599569366, -0.18898672898756352, 0.3568207440811725)"><path d="M -1 0 L 1 0 M 1 0 L 0.4 0.3 M 1 0 L 0.4 -0.3" transform="translate(-0.18898672898756352, 0.3568207440811725) scale(5.0e-2)"/></g></g><g fill-opacity="1.0" stroke-opacity="1.0" fill="#a6cfe3" stroke-width="5.0e-2" stroke="#0d0d0d"><g transform="rotate(-58.67008724249424, -0.18898672898756352, 0.2666290868094702)"><path d="M -1 0 L 1 0 M 1 0 L 0.4 0.3 M 1 0 L 0.4 -0.3" transform="translate(-0.18898672898756352, 0.2666290868094702) scale(5.0e-2)"/></g></g><g fill-opacity="1.0" stroke-opacity="1.0" fill="#a6cfe3" stroke-width="5.0e-2" stroke="#0d0d0d"><g transform="rotate(-54.17002461487118, -0.18898672898756352, 0.17643742953776775)"><path d="M -1 0 L 1 0 M 1 0 L 0.4 0.3 M 1 0 L 0.4 -0.3" transform="translate(-0.18898672898756352, 0.17643742953776775) scale(5.0e-2)"/></g></g><g fill-opacity="1.0" stroke-opacity="1.0" fill="#a6cfe3" stroke-width="5.0e-2" stroke="#0d0d0d"><g transform="rotate(-45.97102193107917, -0.18898672898756352, 8.624577226606533e-2)"><path d="M -1 0 L 1 0 M 1 0 L 0.4 0.3 M 1 0 L 0.4 -0.3" transform="translate(-0.18898672898756352, 8.624577226606533e-2) scale(5.0e-2)"/></g></g><g fill-opacity="1.0" stroke-opacity="1.0" fill="#a6cfe3" stroke-width="5.0e-2" stroke="#0d0d0d"><g transform="rotate(-27.930948956080037, -0.18898672898756352, -3.945885005637084e-3)"><path d="M -1 0 L 1 0 M 1 0 L 0.4 0.3 M 1 0 L 0.4 -0.3" transform="translate(-0.18898672898756352, -3.945885005637084e-3) scale(5.0e-2)"/></g></g><g fill-opacity="1.0" stroke-opacity="1.0" fill="#a6cfe3" stroke-width="5.0e-2" stroke="#0d0d0d"><g transform="rotate(14.445942279113961, -0.18898672898756352, -9.413754227733939e-2)"><path d="M -1 0 L 1 0 M 1 0 L 0.4 0.3 M 1 0 L 0.4 -0.3" transform="translate(-0.18898672898756352, -9.413754227733939e-2) scale(5.0e-2)"/></g></g><g fill-opacity="1.0" stroke-opacity="1.0" fill="#a6cfe3" stroke-width="5.0e-2" stroke="#0d0d0d"><g transform="rotate(58.95370855020484, -0.18898672898756352, -0.1843291995490418)"><path d="M -1 0 L 1 0 M 1 0 L 0.4 0.3 M 1 0 L 0.4 -0.3" transform="translate(-0.18898672898756352, -0.1843291995490418) scale(5.0e-2)"/></g></g><g fill-opacity="1.0" stroke-opacity="1.0" fill="#a6cfe3" stroke-width="5.0e-2" stroke="#0d0d0d"><g transform="rotate(78.38768602098031, -0.18898672898756352, -0.2745208568207441)"><path d="M -1 0 L 1 0 M 1 0 L 0.4 0.3 M 1 0 L 0.4 -0.3" transform="translate(-0.18898672898756352, -0.2745208568207441) scale(5.0e-2)"/></g></g><g fill-opacity="1.0" stroke-opacity="1.0" fill="#a6cfe3" stroke-width="5.0e-2" stroke="#0d0d0d"><g transform="rotate(87.0721562906961, -0.18898672898756352, -0.36471251409244654)"><path d="M -1 0 L 1 0 M 1 0 L 0.4 0.3 M 1 0 L 0.4 -0.3" transform="translate(-0.18898672898756352, -0.36471251409244654) scale(5.0e-2)"/></g></g><g fill-opacity="1.0" stroke-opacity="1.0" fill="#a6cfe3" stroke-width="5.0e-2" stroke="#0d0d0d"><g transform="rotate(91.775265785145, -0.18898672898756352, -0.4549041713641486)"><path d="M -1 0 L 1 0 M 1 0 L 0.4 0.3 M 1 0 L 0.4 -0.3" transform="translate(-0.18898672898756352, -0.4549041713641486) scale(5.0e-2)"/></g></g><g fill-opacity="1.0" stroke-opacity="1.0" fill="#a6cfe3" stroke-width="5.0e-2" stroke="#0d0d0d"><g transform="rotate(-71.63155263230772, -4.452723222024613e-2, 0.3568207440811725)"><path d="M -1 0 L 1 0 M 1 0 L 0.4 0.3 M 1 0 L 0.4 -0.3" transform="translate(-4.452723222024613e-2, 0.3568207440811725) scale(5.0e-2)"/></g></g><g fill-opacity="1.0" stroke-opacity="1.0" fill="#a6cfe3" stroke-width="5.0e-2" stroke="#0d0d0d"><g transform="rotate(-68.30375886013567, -4.452723222024613e-2, 0.2666290868094702)"><path d="M -1 0 L 1 0 M 1 0 L 0.4 0.3 M 1 0 L 0.4 -0.3" transform="translate(-4.452723222024613e-2, 0.2666290868094702) scale(5.0e-2)"/></g></g><g fill-opacity="1.0" stroke-opacity="1.0" fill="#a6cfe3" stroke-width="5.0e-2" stroke="#0d0d0d"><g transform="rotate(-62.713434447769245, -4.452723222024613e-2, 0.17643742953776775)"><path d="M -1 0 L 1 0 M 1 0 L 0.4 0.3 M 1 0 L 0.4 -0.3" transform="translate(-4.452723222024613e-2, 0.17643742953776775) scale(5.0e-2)"/></g></g><g fill-opacity="1.0" stroke-opacity="1.0" fill="#a6cfe3" stroke-width="5.0e-2" stroke="#0d0d0d"><g transform="rotate(-51.74335201662478, -4.452723222024613e-2, 8.624577226606533e-2)"><path d="M -1 0 L 1 0 M 1 0 L 0.4 0.3 M 1 0 L 0.4 -0.3" transform="translate(-4.452723222024613e-2, 8.624577226606533e-2) scale(5.0e-2)"/></g></g><g fill-opacity="1.0" stroke-opacity="1.0" fill="#a6cfe3" stroke-width="5.0e-2" stroke="#0d0d0d"><g transform="rotate(-25.46334506187161, -4.452723222024613e-2, -3.945885005637084e-3)"><path d="M -1 0 L 1 0 M 1 0 L 0.4 0.3 M 1 0 L 0.4 -0.3" transform="translate(-4.452723222024613e-2, -3.945885005637084e-3) scale(5.0e-2)"/></g></g><g fill-opacity="1.0" stroke-opacity="1.0" fill="#a6cfe3" stroke-width="5.0e-2" stroke="#0d0d0d"><g transform="rotate(25.352317626939044, -4.452723222024613e-2, -9.413754227733939e-2)"><path d="M -1 0 L 1 0 M 1 0 L 0.4 0.3 M 1 0 L 0.4 -0.3" transform="translate(-4.452723222024613e-2, -9.413754227733939e-2) scale(5.0e-2)"/></g></g><g fill-opacity="1.0" stroke-opacity="1.0" fill="#a6cfe3" stroke-width="5.0e-2" stroke="#0d0d0d"><g transform="rotate(58.53902007564373, -4.452723222024613e-2, -0.1843291995490418)"><path d="M -1 0 L 1 0 M 1 0 L 0.4 0.3 M 1 0 L 0.4 -0.3" transform="translate(-4.452723222024613e-2, -0.1843291995490418) scale(5.0e-2)"/></g></g><g fill-opacity="1.0" stroke-opacity="1.0" fill="#a6cfe3" stroke-width="5.0e-2" stroke="#0d0d0d"><g transform="rotate(72.03510627877053, -4.452723222024613e-2, -0.2745208568207441)"><path d="M -1 0 L 1 0 M 1 0 L 0.4 0.3 M 1 0 L 0.4 -0.3" transform="translate(-4.452723222024613e-2, -0.2745208568207441) scale(5.0e-2)"/></g></g><g fill-opacity="1.0" stroke-opacity="1.0" fill="#a6cfe3" stroke-width="5.0e-2" stroke="#0d0d0d"><g transform="rotate(78.57121322367863, -4.452723222024613e-2, -0.36471251409244654)"><path d="M -1 0 L 1 0 M 1 0 L 0.4 0.3 M 1 0 L 0.4 -0.3" transform="translate(-4.452723222024613e-2, -0.36471251409244654) scale(5.0e-2)"/></g></g><g fill-opacity="1.0" stroke-opacity="1.0" fill="#a6cfe3" stroke-width="5.0e-2" stroke="#0d0d0d"><g transform="rotate(82.33198654554482, -4.452723222024613e-2, -0.4549041713641486)"><path d="M -1 0 L 1 0 M 1 0 L 0.4 0.3 M 1 0 L 0.4 -0.3" transform="translate(-4.452723222024613e-2, -0.4549041713641486) scale(5.0e-2)"/></g></g><g fill-opacity="1.0" stroke-opacity="1.0" fill="#a6cfe3" stroke-width="5.0e-2" stroke="#0d0d0d"><g transform="rotate(-83.72582919707884, 9.993226454707138e-2, 0.3568207440811725)"><path d="M -1 0 L 1 0 M 1 0 L 0.4 0.3 M 1 0 L 0.4 -0.3" transform="translate(9.993226454707138e-2, 0.3568207440811725) scale(5.0e-2)"/></g></g><g fill-opacity="1.0" stroke-opacity="1.0" fill="#a6cfe3" stroke-width="5.0e-2" stroke="#0d0d0d"><g transform="rotate(-80.37960270065743, 9.993226454707138e-2, 0.2666290868094702)"><path d="M -1 0 L 1 0 M 1 0 L 0.4 0.3 M 1 0 L 0.4 -0.3" transform="translate(9.993226454707138e-2, 0.2666290868094702) scale(5.0e-2)"/></g></g><g fill-opacity="1.0" stroke-opacity="1.0" fill="#a6cfe3" stroke-width="5.0e-2" stroke="#0d0d0d"><g transform="rotate(-74.55784459620769, 9.993226454707138e-2, 0.17643742953776775)"><path d="M -1 0 L 1 0 M 1 0 L 0.4 0.3 M 1 0 L 0.4 -0.3" transform="translate(9.993226454707138e-2, 0.17643742953776775) scale(5.0e-2)"/></g></g><g fill-opacity="1.0" stroke-opacity="1.0" fill="#a6cfe3" stroke-width="5.0e-2" stroke="#0d0d0d"><g transform="rotate(-62.392645475723924, 9.993226454707138e-2, 8.624577226606533e-2)"><path d="M -1 0 L 1 0 M 1 0 L 0.4 0.3 M 1 0 L 0.4 -0.3" transform="translate(9.993226454707138e-2, 8.624577226606533e-2) scale(5.0e-2)"/></g></g><g fill-opacity="1.0" stroke-opacity="1.0" fill="#a6cfe3" stroke-width="5.0e-2" stroke="#0d0d0d"><g transform="rotate(-30.325850500388558, 9.993226454707138e-2, -3.945885005637084e-3)"><path d="M -1 0 L 1 0 M 1 0 L 0.4 0.3 M 1 0 L 0.4 -0.3" transform="translate(9.993226454707138e-2, -3.945885005637084e-3) scale(5.0e-2)"/></g></g><g fill-opacity="1.0" stroke-opacity="1.0" fill="#a6cfe3" stroke-width="5.0e-2" stroke="#0d0d0d"><g transform="rotate(25.463345061871618, 9.993226454707138e-2, -9.413754227733939e-2)"><path d="M -1 0 L 1 0 M 1 0 L 0.4 0.3 M 1 0 L 0.4 -0.3" transform="translate(9.993226454707138e-2, -9.413754227733939e-2) scale(5.0e-2)"/></g></g><g fill-opacity="1.0" stroke-opacity="1.0" fill="#a6cfe3" stroke-width="5.0e-2" stroke="#0d0d0d"><g transform="rotate(53.34825221466397, 9.993226454707138e-2, -0.1843291995490418)"><path d="M -1 0 L 1 0 M 1 0 L 0.4 0.3 M 1 0 L 0.4 -0.3" transform="translate(9.993226454707138e-2, -0.1843291995490418) scale(5.0e-2)"/></g></g><g fill-opacity="1.0" stroke-opacity="1.0" fill="#a6cfe3" stroke-width="5.0e-2" stroke="#0d0d0d"><g transform="rotate(64.18052078566551, 9.993226454707138e-2, -0.2745208568207441)"><path d="M -1 0 L 1 0 M 1 0 L 0.4 0.3 M 1 0 L 0.4 -0.3" transform="translate(9.993226454707138e-2, -0.2745208568207441) scale(5.0e-2)"/></g></g><g fill-opacity="1.0" stroke-opacity="1.0" fill="#a6cfe3" stroke-width="5.0e-2" stroke="#0d0d0d"><g transform="rotate(69.52530867630297, 9.993226454707138e-2, -0.36471251409244654)"><path d="M -1 0 L 1 0 M 1 0 L 0.4 0.3 M 1 0 L 0.4 -0.3" transform="translate(9.993226454707138e-2, -0.36471251409244654) scale(5.0e-2)"/></g></g><g fill-opacity="1.0" stroke-opacity="1.0" fill="#a6cfe3" stroke-width="5.0e-2" stroke="#0d0d0d"><g transform="rotate(72.65691141186669, 9.993226454707138e-2, -0.4549041713641486)"><path d="M -1 0 L 1 0 M 1 0 L 0.4 0.3 M 1 0 L 0.4 -0.3" transform="translate(9.993226454707138e-2, -0.4549041713641486) scale(5.0e-2)"/></g></g><g fill-opacity="1.0" stroke-opacity="1.0" fill="#a6cfe3" stroke-width="5.0e-2" stroke="#0d0d0d"><g transform="rotate(-96.84875031477206, 0.244391761314389, 0.3568207440811725)"><path d="M -1 0 L 1 0 M 1 0 L 0.4 0.3 M 1 0 L 0.4 -0.3" transform="translate(0.244391761314389, 0.3568207440811725) scale(5.0e-2)"/></g></g><g fill-opacity="1.0" stroke-opacity="1.0" fill="#a6cfe3" stroke-width="5.0e-2" stroke="#0d0d0d"><g transform="rotate(-94.10747809603637, 0.244391761314389, 0.2666290868094702)"><path d="M -1 0 L 1 0 M 1 0 L 0.4 0.3 M 1 0 L 0.4 -0.3" transform="translate(0.244391761314389, 0.2666290868094702) scale(5.0e-2)"/></g></g><g fill-opacity="1.0" stroke-opacity="1.0" fill="#a6cfe3" stroke-width="5.0e-2" stroke="#0d0d0d"><g transform="rotate(-89.31668823842175, 0.244391761314389, 0.17643742953776775)"><path d="M -1 0 L 1 0 M 1 0 L 0.4 0.3 M 1 0 L 0.4 -0.3" transform="translate(0.244391761314389, 0.17643742953776775) scale(5.0e-2)"/></g></g><g fill-opacity="1.0" stroke-opacity="1.0" fill="#a6cfe3" stroke-width="5.0e-2" stroke="#0d0d0d"><g transform="rotate(-79.0898362236076, 0.244391761314389, 8.624577226606533e-2)"><path d="M -1 0 L 1 0 M 1 0 L 0.4 0.3 M 1 0 L 0.4 -0.3" transform="translate(0.244391761314389, 8.624577226606533e-2) scale(5.0e-2)"/></g></g><g fill-opacity="1.0" stroke-opacity="1.0" fill="#a6cfe3" stroke-width="5.0e-2" stroke="#0d0d0d"><g transform="rotate(-48.89810671661513, 0.244391761314389, -3.945885005637084e-3)"><path d="M -1 0 L 1 0 M 1 0 L 0.4 0.3 M 1 0 L 0.4 -0.3" transform="translate(0.244391761314389, -3.945885005637084e-3) scale(5.0e-2)"/></g></g><g fill-opacity="1.0" stroke-opacity="1.0" fill="#a6cfe3" stroke-width="5.0e-2" stroke="#0d0d0d"><g transform="rotate(16.431113233075703, 0.244391761314389, -9.413754227733939e-2)"><path d="M -1 0 L 1 0 M 1 0 L 0.4 0.3 M 1 0 L 0.4 -0.3" transform="translate(0.244391761314389, -9.413754227733939e-2) scale(5.0e-2)"/></g></g><g fill-opacity="1.0" stroke-opacity="1.0" fill="#a6cfe3" stroke-width="5.0e-2" stroke="#0d0d0d"><g transform="rotate(45.97102193107918, 0.244391761314389, -0.1843291995490418)"><path d="M -1 0 L 1 0 M 1 0 L 0.4 0.3 M 1 0 L 0.4 -0.3" transform="translate(0.244391761314389, -0.1843291995490418) scale(5.0e-2)"/></g></g><g fill-opacity="1.0" stroke-opacity="1.0" fill="#a6cfe3" stroke-width="5.0e-2" stroke="#0d0d0d"><g transform="rotate(56.03475263569897, 0.244391761314389, -0.2745208568207441)"><path d="M -1 0 L 1 0 M 1 0 L 0.4 0.3 M 1 0 L 0.4 -0.3" transform="translate(0.244391761314389, -0.2745208568207441) scale(5.0e-2)"/></g></g><g fill-opacity="1.0" stroke-opacity="1.0" fill="#a6cfe3" stroke-width="5.0e-2" stroke="#0d0d0d"><g transform="rotate(60.77115498628979, 0.244391761314389, -0.36471251409244654)"><path d="M -1 0 L 1 0 M 1 0 L 0.4 0.3 M 1 0 L 0.4 -0.3" transform="translate(0.244391761314389, -0.36471251409244654) scale(5.0e-2)"/></g></g><g fill-opacity="1.0" stroke-opacity="1.0" fill="#a6cfe3" stroke-width="5.0e-2" stroke="#0d0d0d"><g transform="rotate(63.488583985830445, 0.244391761314389, -0.4549041713641486)"><path d="M -1 0 L 1 0 M 1 0 L 0.4 0.3 M 1 0 L 0.4 -0.3" transform="translate(0.244391761314389, -0.4549041713641486) scale(5.0e-2)"/></g></g><g fill-opacity="1.0" stroke-opacity="1.0" fill="#a6cfe3" stroke-width="5.0e-2" stroke="#0d0d0d"><g transform="rotate(-109.476575498932, 0.3888512580817063, 0.3568207440811725)"><path d="M -1 0 L 1 0 M 1 0 L 0.4 0.3 M 1 0 L 0.4 -0.3" transform="translate(0.3888512580817063, 0.3568207440811725) scale(5.0e-2)"/></g></g><g fill-opacity="1.0" stroke-opacity="1.0" fill="#a6cfe3" stroke-width="5.0e-2" stroke="#0d0d0d"><g transform="rotate(-107.65012421993012, 0.3888512580817063, 0.2666290868094702)"><path d="M -1 0 L 1 0 M 1 0 L 0.4 0.3 M 1 0 L 0.4 -0.3" transform="translate(0.3888512580817063, 0.2666290868094702) scale(5.0e-2)"/></g></g><g fill-opacity="1.0" stroke-opacity="1.0" fill="#a6cfe3" stroke-width="5.0e-2" stroke="#0d0d0d"><g transform="rotate(-104.57421619803874, 0.3888512580817063, 0.17643742953776775)"><path d="M -1 0 L 1 0 M 1 0 L 0.4 0.3 M 1 0 L 0.4 -0.3" transform="translate(0.3888512580817063, 0.17643742953776775) scale(5.0e-2)"/></g></g><g fill-opacity="1.0" stroke-opacity="1.0" fill="#a6cfe3" stroke-width="5.0e-2" stroke="#0d0d0d"><g transform="rotate(-98.3658861240326, 0.3888512580817063, 8.624577226606533e-2)"><path d="M -1 0 L 1 0 M 1 0 L 0.4 0.3 M 1 0 L 0.4 -0.3" transform="translate(0.3888512580817063, 8.624577226606533e-2) scale(5.0e-2)"/></g></g><g fill-opacity="1.0" stroke-opacity="1.0" fill="#a6cfe3" stroke-width="5.0e-2" stroke="#0d0d0d"><g transform="rotate(-80.5376777919744, 0.3888512580817063, -3.945885005637084e-3)"><path d="M -1 0 L 1 0 M 1 0 L 0.4 0.3 M 1 0 L 0.4 -0.3" transform="translate(0.3888512580817063, -3.945885005637084e-3) scale(5.0e-2)"/></g></g><g fill-opacity="1.0" stroke-opacity="1.0" fill="#a6cfe3" stroke-width="5.0e-2" stroke="#0d0d0d"><g transform="rotate(-10.304846468766057, 0.3888512580817063, -9.413754227733939e-2)"><path d="M -1 0 L 1 0 M 1 0 L 0.4 0.3 M 1 0 L 0.4 -0.3" transform="translate(0.3888512580817063, -9.413754227733939e-2) scale(5.0e-2)"/></g></g><g fill-opacity="1.0" stroke-opacity="1.0" fill="#a6cfe3" stroke-width="5.0e-2" stroke="#0d0d0d"><g transform="rotate(36.3843518158359, 0.3888512580817063, -0.1843291995490418)"><path d="M -1 0 L 1 0 M 1 0 L 0.4 0.3 M 1 0 L 0.4 -0.3" transform="translate(0.3888512580817063, -0.1843291995490418) scale(5.0e-2)"/></g></g><g fill-opacity="1.0" stroke-opacity="1.0" fill="#a6cfe3" stroke-width="5.0e-2" stroke="#0d0d0d"><g transform="rotate(48.01278750418334, 0.3888512580817063, -0.2745208568207441)"><path d="M -1 0 L 1 0 M 1 0 L 0.4 0.3 M 1 0 L 0.4 -0.3" transform="translate(0.3888512580817063, -0.2745208568207441) scale(5.0e-2)"/></g></g><g fill-opacity="1.0" stroke-opacity="1.0" fill="#a6cfe3" stroke-width="5.0e-2" stroke="#0d0d0d"><g transform="rotate(52.73359809902285, 0.3888512580817063, -0.36471251409244654)"><path d="M -1 0 L 1 0 M 1 0 L 0.4 0.3 M 1 0 L 0.4 -0.3" transform="translate(0.3888512580817063, -0.36471251409244654) scale(5.0e-2)"/></g></g><g fill-opacity="1.0" stroke-opacity="1.0" fill="#a6cfe3" stroke-width="5.0e-2" stroke="#0d0d0d"><g transform="rotate(55.2568198416964, 0.3888512580817063, -0.4549041713641486)"><path d="M -1 0 L 1 0 M 1 0 L 0.4 0.3 M 1 0 L 0.4 -0.3" transform="translate(0.3888512580817063, -0.4549041713641486) scale(5.0e-2)"/></g></g><g fill-opacity="1.0" stroke-opacity="1.0" fill="#a6cfe3" stroke-width="5.0e-2" stroke="#0d0d0d"><g transform="rotate(-120.39004059367852, 0.5333107548490243, 0.3568207440811725)"><path d="M -1 0 L 1 0 M 1 0 L 0.4 0.3 M 1 0 L 0.4 -0.3" transform="translate(0.5333107548490243, 0.3568207440811725) scale(5.0e-2)"/></g></g><g fill-opacity="1.0" stroke-opacity="1.0" fill="#a6cfe3" stroke-width="5.0e-2" stroke="#0d0d0d"><g transform="rotate(-119.3548748641938, 0.5333107548490243, 0.2666290868094702)"><path d="M -1 0 L 1 0 M 1 0 L 0.4 0.3 M 1 0 L 0.4 -0.3" transform="translate(0.5333107548490243, 0.2666290868094702) scale(5.0e-2)"/></g></g><g fill-opacity="1.0" stroke-opacity="1.0" fill="#a6cfe3" stroke-width="5.0e-2" stroke="#0d0d0d"><g transform="rotate(-117.72207677286723, 0.5333107548490243, 0.17643742953776775)"><path d="M -1 0 L 1 0 M 1 0 L 0.4 0.3 M 1 0 L 0.4 -0.3" transform="translate(0.5333107548490243, 0.17643742953776775) scale(5.0e-2)"/></g></g><g fill-opacity="1.0" stroke-opacity="1.0" fill="#a6cfe3" stroke-width="5.0e-2" stroke="#0d0d0d"><g transform="rotate(-114.77180709318333, 0.5333107548490243, 8.624577226606533e-2)"><path d="M -1 0 L 1 0 M 1 0 L 0.4 0.3 M 1 0 L 0.4 -0.3" transform="translate(0.5333107548490243, 8.624577226606533e-2) scale(5.0e-2)"/></g></g><g fill-opacity="1.0" stroke-opacity="1.0" fill="#a6cfe3" stroke-width="5.0e-2" stroke="#0d0d0d"><g transform="rotate(-107.91023110297346, 0.5333107548490243, -3.945885005637084e-3)"><path d="M -1 0 L 1 0 M 1 0 L 0.4 0.3 M 1 0 L 0.4 -0.3" transform="translate(0.5333107548490243, -3.945885005637084e-3) scale(5.0e-2)"/></g></g><g fill-opacity="1.0" stroke-opacity="1.0" fill="#a6cfe3" stroke-width="5.0e-2" stroke="#0d0d0d"><g transform="rotate(-78.88016563239884, 0.5333107548490243, -9.413754227733939e-2)"><path d="M -1 0 L 1 0 M 1 0 L 0.4 0.3 M 1 0 L 0.4 -0.3" transform="translate(0.5333107548490243, -9.413754227733939e-2) scale(5.0e-2)"/></g></g><g fill-opacity="1.0" stroke-opacity="1.0" fill="#a6cfe3" stroke-width="5.0e-2" stroke="#0d0d0d"><g transform="rotate(18.07717429682483, 0.5333107548490243, -0.1843291995490418)"><path d="M -1 0 L 1 0 M 1 0 L 0.4 0.3 M 1 0 L 0.4 -0.3" transform="translate(0.5333107548490243, -0.1843291995490418) scale(5.0e-2)"/></g></g><g fill-opacity="1.0" stroke-opacity="1.0" fill="#a6cfe3" stroke-width="5.0e-2" stroke="#0d0d0d"><g transform="rotate(39.57646251047537, 0.5333107548490243, -0.2745208568207441)"><path d="M -1 0 L 1 0 M 1 0 L 0.4 0.3 M 1 0 L 0.4 -0.3" transform="translate(0.5333107548490243, -0.2745208568207441) scale(5.0e-2)"/></g></g><g fill-opacity="1.0" stroke-opacity="1.0" fill="#a6cfe3" stroke-width="5.0e-2" stroke="#0d0d0d"><g transform="rotate(45.412192741402315, 0.5333107548490243, -0.36471251409244654)"><path d="M -1 0 L 1 0 M 1 0 L 0.4 0.3 M 1 0 L 0.4 -0.3" transform="translate(0.5333107548490243, -0.36471251409244654) scale(5.0e-2)"/></g></g><g fill-opacity="1.0" stroke-opacity="1.0" fill="#a6cfe3" stroke-width="5.0e-2" stroke="#0d0d0d"><g transform="rotate(48.061152646549644, 0.5333107548490243, -0.4549041713641486)"><path d="M -1 0 L 1 0 M 1 0 L 0.4 0.3 M 1 0 L 0.4 -0.3" transform="translate(0.5333107548490243, -0.4549041713641486) scale(5.0e-2)"/></g></g><g fill-opacity="1.0" stroke-opacity="1.0" fill="#a6cfe3" stroke-width="5.0e-2" stroke="#0d0d0d"><g transform="rotate(-129.20442853819998, 0.6777702516163411, 0.3568207440811725)"><path d="M -1 0 L 1 0 M 1 0 L 0.4 0.3 M 1 0 L 0.4 -0.3" transform="translate(0.6777702516163411, 0.3568207440811725) scale(5.0e-2)"/></g></g><g fill-opacity="1.0" stroke-opacity="1.0" fill="#a6cfe3" stroke-width="5.0e-2" stroke="#0d0d0d"><g transform="rotate(-128.6756131139764, 0.6777702516163411, 0.2666290868094702)"><path d="M -1 0 L 1 0 M 1 0 L 0.4 0.3 M 1 0 L 0.4 -0.3" transform="translate(0.6777702516163411, 0.2666290868094702) scale(5.0e-2)"/></g></g><g fill-opacity="1.0" stroke-opacity="1.0" fill="#a6cfe3" stroke-width="5.0e-2" stroke="#0d0d0d"><g transform="rotate(-127.8990823601365, 0.6777702516163411, 0.17643742953776775)"><path d="M -1 0 L 1 0 M 1 0 L 0.4 0.3 M 1 0 L 0.4 -0.3" transform="translate(0.6777702516163411, 0.17643742953776775) scale(5.0e-2)"/></g></g><g fill-opacity="1.0" stroke-opacity="1.0" fill="#a6cfe3" stroke-width="5.0e-2" stroke="#0d0d0d"><g transform="rotate(-126.64820118726841, 0.6777702516163411, 8.624577226606533e-2)"><path d="M -1 0 L 1 0 M 1 0 L 0.4 0.3 M 1 0 L 0.4 -0.3" transform="translate(0.6777702516163411, 8.624577226606533e-2) scale(5.0e-2)"/></g></g><g fill-opacity="1.0" stroke-opacity="1.0" fill="#a6cfe3" stroke-width="5.0e-2" stroke="#0d0d0d"><g transform="rotate(-124.30095672615316, 0.6777702516163411, -3.945885005637084e-3)"><path d="M -1 0 L 1 0 M 1 0 L 0.4 0.3 M 1 0 L 0.4 -0.3" transform="translate(0.6777702516163411, -3.945885005637084e-3) scale(5.0e-2)"/></g></g><g fill-opacity="1.0" stroke-opacity="1.0" fill="#a6cfe3" stroke-width="5.0e-2" stroke="#0d0d0d"><g transform="rotate(-118.3399495893263, 0.6777702516163411, -9.413754227733939e-2)"><path d="M -1 0 L 1 0 M 1 0 L 0.4 0.3 M 1 0 L 0.4 -0.3" transform="translate(0.6777702516163411, -9.413754227733939e-2) scale(5.0e-2)"/></g></g><g fill-opacity="1.0" stroke-opacity="1.0" fill="#a6cfe3" stroke-width="5.0e-2" stroke="#0d0d0d"><g transform="rotate(-81.6026974133102, 0.6777702516163411, -0.1843291995490418)"><path d="M -1 0 L 1 0 M 1 0 L 0.4 0.3 M 1 0 L 0.4 -0.3" transform="translate(0.6777702516163411, -0.1843291995490418) scale(5.0e-2)"/></g></g><g fill-opacity="1.0" stroke-opacity="1.0" fill="#a6cfe3" stroke-width="5.0e-2" stroke="#0d0d0d"><g transform="rotate(25.916669828467207, 0.6777702516163411, -0.2745208568207441)"><path d="M -1 0 L 1 0 M 1 0 L 0.4 0.3 M 1 0 L 0.4 -0.3" transform="translate(0.6777702516163411, -0.2745208568207441) scale(5.0e-2)"/></g></g><g fill-opacity="1.0" stroke-opacity="1.0" fill="#a6cfe3" stroke-width="5.0e-2" stroke="#0d0d0d"><g transform="rotate(38.15385704023621, 0.6777702516163411, -0.36471251409244654)"><path d="M -1 0 L 1 0 M 1 0 L 0.4 0.3 M 1 0 L 0.4 -0.3" transform="translate(0.6777702516163411, -0.36471251409244654) scale(5.0e-2)"/></g></g><g fill-opacity="1.0" stroke-opacity="1.0" fill="#a6cfe3" stroke-width="5.0e-2" stroke="#0d0d0d"><g transform="rotate(41.70388402745369, 0.6777702516163411, -0.4549041713641486)"><path d="M -1 0 L 1 0 M 1 0 L 0.4 0.3 M 1 0 L 0.4 -0.3" transform="translate(0.6777702516163411, -0.4549041713641486) scale(5.0e-2)"/></g></g><g></g></svg>