<svg xmlns="http://www.w3.org/2000/svg" width="438.73310719707143" xmlns:xlink="http://www.w3.org/1999/xlink" viewBox="-0.7334365528482132 -0.5130334454148697 1.4782746228337142 1.0108249857946314" height="300.0"><style>svg {
  color-scheme: light dark;
}
{
  .canvas g, .title g, .axisbar g, .ticktext g, .tickglyph g, .ticklines g, .legendContent g text {
    fill: #0d0d0d;
  }
  .ticklines g, .tickglyph g, .legendBorder g {
    stroke: #0d0d0d;
  }
}
@media (prefers-color-scheme:dark) {
  .canvas g, .title g, .axisbar g, .ticktext g, .tickglyph g, .ticklines g, .legendContent g text {
    fill: #f0f0f0;
  }
  .ticklines g, .tickglyph g, .legendBorder g {
    stroke: #f0f0f0;
  }
}{
  .arrow g {
    fill: #0d0d0d;
    stroke: #0d0d0d;
  }
}
@media (prefers-color-scheme:dark) {
  .arrow g {
    fill: #f0f0f0;
    stroke: #f0f0f0;
  }
}</style><g class="chart"><g class="arrow"><g fill="rgb(65%, 81%, 89%)" stroke="rgb(5%, 5%, 5%)" stroke-width="5.0e-2" fill-opacity="1.0" stroke-opacity="1.0"><g transform="rotate(-41.70388402745369, -0.5087328872311521, 0.33388258313757)"><path d="M -1 0 L 1 0 M 1 0 L 0.4 0.3 M 1 0 L 0.4 -0.3" transform="translate(-0.5087328872311521, 0.33388258313757) scale(5.0e-2)"/></g></g><g fill="rgb(65%, 81%, 89%)" stroke="rgb(5%, 5%, 5%)" stroke-width="5.0e-2" fill-opacity="1.0" stroke-opacity="1.0"><g transform="rotate(-40.703991576050946, -0.5087328872311521, 0.2492217413772243)"><path d="M -1 0 L 1 0 M 1 0 L 0.4 0.3 M 1 0 L 0.4 -0.3" transform="translate(-0.5087328872311521, 0.2492217413772243) scale(5.0e-2)"/></g></g><g fill="rgb(65%, 81%, 89%)" stroke="rgb(5%, 5%, 5%)" stroke-width="5.0e-2" fill-opacity="1.0" stroke-opacity="1.0"><g transform="rotate(-39.33034350353967, -0.5087328872311521, 0.1645608996168786)"><path d="M -1 0 L 1 0 M 1 0 L 0.4 0.3 M 1 0 L 0.4 -0.3" transform="translate(-0.5087328872311521, 0.1645608996168786) scale(5.0e-2)"/></g></g><g fill="rgb(65%, 81%, 89%)" stroke="rgb(5%, 5%, 5%)" stroke-width="5.0e-2" fill-opacity="1.0" stroke-opacity="1.0"><g transform="rotate(-37.32821468040517, -0.5087328872311521, 7.990005785653287e-2)"><path d="M -1 0 L 1 0 M 1 0 L 0.4 0.3 M 1 0 L 0.4 -0.3" transform="translate(-0.5087328872311521, 7.990005785653287e-2) scale(5.0e-2)"/></g></g><g fill="rgb(65%, 81%, 89%)" stroke="rgb(5%, 5%, 5%)" stroke-width="5.0e-2" fill-opacity="1.0" stroke-opacity="1.0"><g transform="rotate(-34.14934249468909, -0.5087328872311521, -4.7607839038127375e-3)"><path d="M -1 0 L 1 0 M 1 0 L 0.4 0.3 M 1 0 L 0.4 -0.3" transform="translate(-0.5087328872311521, -4.7607839038127375e-3) scale(5.0e-2)"/></g></g><g fill="rgb(65%, 81%, 89%)" stroke="rgb(5%, 5%, 5%)" stroke-width="5.0e-2" fill-opacity="1.0" stroke-opacity="1.0"><g transform="rotate(-28.38240378414633, -0.5087328872311521, -8.942162566415846e-2)"><path d="M -1 0 L 1 0 M 1 0 L 0.4 0.3 M 1 0 L 0.4 -0.3" transform="translate(-0.5087328872311521, -8.942162566415846e-2) scale(5.0e-2)"/></g></g><g fill="rgb(65%, 81%, 89%)" stroke="rgb(5%, 5%, 5%)" stroke-width="5.0e-2" fill-opacity="1.0" stroke-opacity="1.0"><g transform="rotate(-15.274030281041826, -0.5087328872311521, -0.17408246742450428)"><path d="M -1 0 L 1 0 M 1 0 L 0.4 0.3 M 1 0 L 0.4 -0.3" transform="translate(-0.5087328872311521, -0.17408246742450428) scale(5.0e-2)"/></g></g><g fill="rgb(65%, 81%, 89%)" stroke="rgb(5%, 5%, 5%)" stroke-width="5.0e-2" fill-opacity="1.0" stroke-opacity="1.0"><g transform="rotate(24.917115262331563, -0.5087328872311521, -0.2587433091848499)"><path d="M -1 0 L 1 0 M 1 0 L 0.4 0.3 M 1 0 L 0.4 -0.3" transform="translate(-0.5087328872311521, -0.2587433091848499) scale(5.0e-2)"/></g></g><g fill="rgb(65%, 81%, 89%)" stroke="rgb(5%, 5%, 5%)" stroke-width="5.0e-2" fill-opacity="1.0" stroke-opacity="1.0"><g transform="rotate(85.25243231067934, -0.5087328872311521, -0.3434041509451956)"><path d="M -1 0 L 1 0 M 1 0 L 0.4 0.3 M 1 0 L 0.4 -0.3" transform="translate(-0.5087328872311521, -0.3434041509451956) scale(5.0e-2)"/></g></g><g fill="rgb(65%, 81%, 89%)" stroke="rgb(5%, 5%, 5%)" stroke-width="5.0e-2" fill-opacity="1.0" stroke-opacity="1.0"><g transform="rotate(107.43966356457298, -0.5087328872311521, -0.4280649927055412)"><path d="M -1 0 L 1 0 M 1 0 L 0.4 0.3 M 1 0 L 0.4 -0.3" transform="translate(-0.5087328872311521, -0.4280649927055412) scale(5.0e-2)"/></g></g><g fill="rgb(65%, 81%, 89%)" stroke="rgb(5%, 5%, 5%)" stroke-width="5.0e-2" fill-opacity="1.0" stroke-opacity="1.0"><g transform="rotate(-46.89925433618114, -0.38081748343353444, 0.33388258313757)"><path d="M -1 0 L 1 0 M 1 0 L 0.4 0.3 M 1 0 L 0.4 -0.3" transform="translate(-0.38081748343353444, 0.33388258313757) scale(5.0e-2)"/></g></g><g fill="rgb(65%, 81%, 89%)" stroke="rgb(5%, 5%, 5%)" stroke-width="5.0e-2" fill-opacity="1.0" stroke-opacity="1.0"><g transform="rotate(-45.41219274140232, -0.38081748343353444, 0.2492217413772243)"><path d="M -1 0 L 1 0 M 1 0 L 0.4 0.3 M 1 0 L 0.4 -0.3" transform="translate(-0.38081748343353444, 0.2492217413772243) scale(5.0e-2)"/></g></g><g fill="rgb(65%, 81%, 89%)" stroke="rgb(5%, 5%, 5%)" stroke-width="5.0e-2" fill-opacity="1.0" stroke-opacity="1.0"><g transform="rotate(-43.26655332833368, -0.38081748343353444, 0.1645608996168786)"><path d="M -1 0 L 1 0 M 1 0 L 0.4 0.3 M 1 0 L 0.4 -0.3" transform="translate(-0.38081748343353444, 0.1645608996168786) scale(5.0e-2)"/></g></g><g fill="rgb(65%, 81%, 89%)" stroke="rgb(5%, 5%, 5%)" stroke-width="5.0e-2" fill-opacity="1.0" stroke-opacity="1.0"><g transform="rotate(-39.913529548149384, -0.38081748343353444, 7.990005785653287e-2)"><path d="M -1 0 L 1 0 M 1 0 L 0.4 0.3 M 1 0 L 0.4 -0.3" transform="translate(-0.38081748343353444, 7.990005785653287e-2) scale(5.0e-2)"/></g></g><g fill="rgb(65%, 81%, 89%)" stroke="rgb(5%, 5%, 5%)" stroke-width="5.0e-2" fill-opacity="1.0" stroke-opacity="1.0"><g transform="rotate(-33.99914492987854, -0.38081748343353444, -4.7607839038127375e-3)"><path d="M -1 0 L 1 0 M 1 0 L 0.4 0.3 M 1 0 L 0.4 -0.3" transform="translate(-0.38081748343353444, -4.7607839038127375e-3) scale(5.0e-2)"/></g></g><g fill="rgb(65%, 81%, 89%)" stroke="rgb(5%, 5%, 5%)" stroke-width="5.0e-2" fill-opacity="1.0" stroke-opacity="1.0"><g transform="rotate(-21.321176713227626, -0.38081748343353444, -8.942162566415846e-2)"><path d="M -1 0 L 1 0 M 1 0 L 0.4 0.3 M 1 0 L 0.4 -0.3" transform="translate(-0.38081748343353444, -8.942162566415846e-2) scale(5.0e-2)"/></g></g><g fill="rgb(65%, 81%, 89%)" stroke="rgb(5%, 5%, 5%)" stroke-width="5.0e-2" fill-opacity="1.0" stroke-opacity="1.0"><g transform="rotate(13.364611169993305, -0.38081748343353444, -0.17408246742450428)"><path d="M -1 0 L 1 0 M 1 0 L 0.4 0.3 M 1 0 L 0.4 -0.3" transform="translate(-0.38081748343353444, -0.17408246742450428) scale(5.0e-2)"/></g></g><g fill="rgb(65%, 81%, 89%)" stroke="rgb(5%, 5%, 5%)" stroke-width="5.0e-2" fill-opacity="1.0" stroke-opacity="1.0"><g transform="rotate(70.26081916410517, -0.38081748343353444, -0.2587433091848499)"><path d="M -1 0 L 1 0 M 1 0 L 0.4 0.3 M 1 0 L 0.4 -0.3" transform="translate(-0.38081748343353444, -0.2587433091848499) scale(5.0e-2)"/></g></g><g fill="rgb(65%, 81%, 89%)" stroke="rgb(5%, 5%, 5%)" stroke-width="5.0e-2" fill-opacity="1.0" stroke-opacity="1.0"><g transform="rotate(96.08437785000453, -0.38081748343353444, -0.3434041509451956)"><path d="M -1 0 L 1 0 M 1 0 L 0.4 0.3 M 1 0 L 0.4 -0.3" transform="translate(-0.38081748343353444, -0.3434041509451956) scale(5.0e-2)"/></g></g><g fill="rgb(65%, 81%, 89%)" stroke="rgb(5%, 5%, 5%)" stroke-width="5.0e-2" fill-opacity="1.0" stroke-opacity="1.0"><g transform="rotate(106.05509143504601, -0.38081748343353444, -0.4280649927055412)"><path d="M -1 0 L 1 0 M 1 0 L 0.4 0.3 M 1 0 L 0.4 -0.3" transform="translate(-0.38081748343353444, -0.4280649927055412) scale(5.0e-2)"/></g></g><g fill="rgb(65%, 81%, 89%)" stroke="rgb(5%, 5%, 5%)" stroke-width="5.0e-2" fill-opacity="1.0" stroke-opacity="1.0"><g transform="rotate(-53.3543508353797, -0.2529020796359167, 0.33388258313757)"><path d="M -1 0 L 1 0 M 1 0 L 0.4 0.3 M 1 0 L 0.4 -0.3" transform="translate(-0.2529020796359167, 0.33388258313757) scale(5.0e-2)"/></g></g><g fill="rgb(65%, 81%, 89%)" stroke="rgb(5%, 5%, 5%)" stroke-width="5.0e-2" fill-opacity="1.0" stroke-opacity="1.0"><g transform="rotate(-51.23448009554123, -0.2529020796359167, 0.2492217413772243)"><path d="M -1 0 L 1 0 M 1 0 L 0.4 0.3 M 1 0 L 0.4 -0.3" transform="translate(-0.2529020796359167, 0.2492217413772243) scale(5.0e-2)"/></g></g><g fill="rgb(65%, 81%, 89%)" stroke="rgb(5%, 5%, 5%)" stroke-width="5.0e-2" fill-opacity="1.0" stroke-opacity="1.0"><g transform="rotate(-48.012787504183336, -0.2529020796359167, 0.1645608996168786)"><path d="M -1 0 L 1 0 M 1 0 L 0.4 0.3 M 1 0 L 0.4 -0.3" transform="translate(-0.2529020796359167, 0.1645608996168786) scale(5.0e-2)"/></g></g><g fill="rgb(65%, 81%, 89%)" stroke="rgb(5%, 5%, 5%)" stroke-width="5.0e-2" fill-opacity="1.0" stroke-opacity="1.0"><g transform="rotate(-42.58049078334366, -0.2529020796359167, 7.990005785653287e-2)"><path d="M -1 0 L 1 0 M 1 0 L 0.4 0.3 M 1 0 L 0.4 -0.3" transform="translate(-0.2529020796359167, 7.990005785653287e-2) scale(5.0e-2)"/></g></g><g fill="rgb(65%, 81%, 89%)" stroke="rgb(5%, 5%, 5%)" stroke-width="5.0e-2" fill-opacity="1.0" stroke-opacity="1.0"><g transform="rotate(-31.827446576673104, -0.2529020796359167, -4.7607839038127375e-3)"><path d="M -1 0 L 1 0 M 1 0 L 0.4 0.3 M 1 0 L 0.4 -0.3" transform="translate(-0.2529020796359167, -4.7607839038127375e-3) scale(5.0e-2)"/></g></g><g fill="rgb(65%, 81%, 89%)" stroke="rgb(5%, 5%, 5%)" stroke-width="5.0e-2" fill-opacity="1.0" stroke-opacity="1.0"><g transform="rotate(-5.440332031005506, -0.2529020796359167, -8.942162566415846e-2)"><path d="M -1 0 L 1 0 M 1 0 L 0.4 0.3 M 1 0 L 0.4 -0.3" transform="translate(-0.2529020796359167, -8.942162566415846e-2) scale(5.0e-2)"/></g></g><g fill="rgb(65%, 81%, 89%)" stroke="rgb(5%, 5%, 5%)" stroke-width="5.0e-2" fill-opacity="1.0" stroke-opacity="1.0"><g transform="rotate(47.1210963966615, -0.2529020796359167, -0.17408246742450428)"><path d="M -1 0 L 1 0 M 1 0 L 0.4 0.3 M 1 0 L 0.4 -0.3" transform="translate(-0.2529020796359167, -0.17408246742450428) scale(5.0e-2)"/></g></g><g fill="rgb(65%, 81%, 89%)" stroke="rgb(5%, 5%, 5%)" stroke-width="5.0e-2" fill-opacity="1.0" stroke-opacity="1.0"><g transform="rotate(80.53767779197439, -0.2529020796359167, -0.2587433091848499)"><path d="M -1 0 L 1 0 M 1 0 L 0.4 0.3 M 1 0 L 0.4 -0.3" transform="translate(-0.2529020796359167, -0.2587433091848499) scale(5.0e-2)"/></g></g><g fill="rgb(65%, 81%, 89%)" stroke="rgb(5%, 5%, 5%)" stroke-width="5.0e-2" fill-opacity="1.0" stroke-opacity="1.0"><g transform="rotate(93.73139699916044, -0.2529020796359167, -0.3434041509451956)"><path d="M -1 0 L 1 0 M 1 0 L 0.4 0.3 M 1 0 L 0.4 -0.3" transform="translate(-0.2529020796359167, -0.3434041509451956) scale(5.0e-2)"/></g></g><g fill="rgb(65%, 81%, 89%)" stroke="rgb(5%, 5%, 5%)" stroke-width="5.0e-2" fill-opacity="1.0" stroke-opacity="1.0"><g transform="rotate(100.06068979532297, -0.2529020796359167, -0.4280649927055412)"><path d="M -1 0 L 1 0 M 1 0 L 0.4 0.3 M 1 0 L 0.4 -0.3" transform="translate(-0.2529020796359167, -0.4280649927055412) scale(5.0e-2)"/></g></g><g fill="rgb(65%, 81%, 89%)" stroke="rgb(5%, 5%, 5%)" stroke-width="5.0e-2" fill-opacity="1.0" stroke-opacity="1.0"><g transform="rotate(-61.48095159956936, -0.12498667583829903, 0.33388258313757)"><path d="M -1 0 L 1 0 M 1 0 L 0.4 0.3 M 1 0 L 0.4 -0.3" transform="translate(-0.12498667583829903, 0.33388258313757) scale(5.0e-2)"/></g></g><g fill="rgb(65%, 81%, 89%)" stroke="rgb(5%, 5%, 5%)" stroke-width="5.0e-2" fill-opacity="1.0" stroke-opacity="1.0"><g transform="rotate(-58.67008724249424, -0.12498667583829903, 0.2492217413772243)"><path d="M -1 0 L 1 0 M 1 0 L 0.4 0.3 M 1 0 L 0.4 -0.3" transform="translate(-0.12498667583829903, 0.2492217413772243) scale(5.0e-2)"/></g></g><g fill="rgb(65%, 81%, 89%)" stroke="rgb(5%, 5%, 5%)" stroke-width="5.0e-2" fill-opacity="1.0" stroke-opacity="1.0"><g transform="rotate(-54.17002461487118, -0.12498667583829903, 0.1645608996168786)"><path d="M -1 0 L 1 0 M 1 0 L 0.4 0.3 M 1 0 L 0.4 -0.3" transform="translate(-0.12498667583829903, 0.1645608996168786) scale(5.0e-2)"/></g></g><g fill="rgb(65%, 81%, 89%)" stroke="rgb(5%, 5%, 5%)" stroke-width="5.0e-2" fill-opacity="1.0" stroke-opacity="1.0"><g transform="rotate(-45.97102193107917, -0.12498667583829903, 7.990005785653287e-2)"><path d="M -1 0 L 1 0 M 1 0 L 0.4 0.3 M 1 0 L 0.4 -0.3" transform="translate(-0.12498667583829903, 7.990005785653287e-2) scale(5.0e-2)"/></g></g><g fill="rgb(65%, 81%, 89%)" stroke="rgb(5%, 5%, 5%)" stroke-width="5.0e-2" fill-opacity="1.0" stroke-opacity="1.0"><g transform="rotate(-27.930948956080037, -0.12498667583829903, -4.7607839038127375e-3)"><path d="M -1 0 L 1 0 M 1 0 L 0.4 0.3 M 1 0 L 0.4 -0.3" transform="translate(-0.12498667583829903, -4.7607839038127375e-3) scale(5.0e-2)"/></g></g><g fill="rgb(65%, 81%, 89%)" stroke="rgb(5%, 5%, 5%)" stroke-width="5.0e-2" fill-opacity="1.0" stroke-opacity="1.0"><g transform="rotate(14.445942279113961, -0.12498667583829903, -8.942162566415846e-2)"><path d="M -1 0 L 1 0 M 1 0 L 0.4 0.3 M 1 0 L 0.4 -0.3" transform="translate(-0.12498667583829903, -8.942162566415846e-2) scale(5.0e-2)"/></g></g><g fill="rgb(65%, 81%, 89%)" stroke="rgb(5%, 5%, 5%)" stroke-width="5.0e-2" fill-opacity="1.0" stroke-opacity="1.0"><g transform="rotate(58.95370855020484, -0.12498667583829903, -0.17408246742450428)"><path d="M -1 0 L 1 0 M 1 0 L 0.4 0.3 M 1 0 L 0.4 -0.3" transform="translate(-0.12498667583829903, -0.17408246742450428) scale(5.0e-2)"/></g></g><g fill="rgb(65%, 81%, 89%)" stroke="rgb(5%, 5%, 5%)" stroke-width="5.0e-2" fill-opacity="1.0" stroke-opacity="1.0"><g transform="rotate(78.38768602098031, -0.12498667583829903, -0.2587433091848499)"><path d="M -1 0 L 1 0 M 1 0 L 0.4 0.3 M 1 0 L 0.4 -0.3" transform="translate(-0.12498667583829903, -0.2587433091848499) scale(5.0e-2)"/></g></g><g fill="rgb(65%, 81%, 89%)" stroke="rgb(5%, 5%, 5%)" stroke-width="5.0e-2" fill-opacity="1.0" stroke-opacity="1.0"><g transform="rotate(87.0721562906961, -0.12498667583829903, -0.3434041509451956)"><path d="M -1 0 L 1 0 M 1 0 L 0.4 0.3 M 1 0 L 0.4 -0.3" transform="translate(-0.12498667583829903, -0.3434041509451956) scale(5.0e-2)"/></g></g><g fill="rgb(65%, 81%, 89%)" stroke="rgb(5%, 5%, 5%)" stroke-width="5.0e-2" fill-opacity="1.0" stroke-opacity="1.0"><g transform="rotate(91.775265785145, -0.12498667583829903, -0.4280649927055412)"><path d="M -1 0 L 1 0 M 1 0 L 0.4 0.3 M 1 0 L 0.4 -0.3" transform="translate(-0.12498667583829903, -0.4280649927055412) scale(5.0e-2)"/></g></g><g fill="rgb(65%, 81%, 89%)" stroke="rgb(5%, 5%, 5%)" stroke-width="5.0e-2" fill-opacity="1.0" stroke-opacity="1.0"><g transform="rotate(-71.63155263230772, 2.9287279593186444e-3, 0.33388258313757)"><path d="M -1 0 L 1 0 M 1 0 L 0.4 0.3 M 1 0 L 0.4 -0.3" transform="translate(2.9287279593186444e-3, 0.33388258313757) scale(5.0e-2)"/></g></g><g fill="rgb(65%, 81%, 89%)" stroke="rgb(5%, 5%, 5%)" stroke-width="5.0e-2" fill-opacity="1.0" stroke-opacity="1.0"><g transform="rotate(-68.30375886013567, 2.9287279593186444e-3, 0.2492217413772243)"><path d="M -1 0 L 1 0 M 1 0 L 0.4 0.3 M 1 0 L 0.4 -0.3" transform="translate(2.9287279593186444e-3, 0.2492217413772243) scale(5.0e-2)"/></g></g><g fill="rgb(65%, 81%, 89%)" stroke="rgb(5%, 5%, 5%)" stroke-width="5.0e-2" fill-opacity="1.0" stroke-opacity="1.0"><g transform="rotate(-62.713434447769245, 2.9287279593186444e-3, 0.1645608996168786)"><path d="M -1 0 L 1 0 M 1 0 L 0.4 0.3 M 1 0 L 0.4 -0.3" transform="translate(2.9287279593186444e-3, 0.1645608996168786) scale(5.0e-2)"/></g></g><g fill="rgb(65%, 81%, 89%)" stroke="rgb(5%, 5%, 5%)" stroke-width="5.0e-2" fill-opacity="1.0" stroke-opacity="1.0"><g transform="rotate(-51.74335201662478, 2.9287279593186444e-3, 7.990005785653287e-2)"><path d="M -1 0 L 1 0 M 1 0 L 0.4 0.3 M 1 0 L 0.4 -0.3" transform="translate(2.9287279593186444e-3, 7.990005785653287e-2) scale(5.0e-2)"/></g></g><g fill="rgb(65%, 81%, 89%)" stroke="rgb(5%, 5%, 5%)" stroke-width="5.0e-2" fill-opacity="1.0" stroke-opacity="1.0"><g transform="rotate(-25.463345061871607, 2.9287279593186444e-3, -4.7607839038127375e-3)"><path d="M -1 0 L 1 0 M 1 0 L 0.4 0.3 M 1 0 L 0.4 -0.3" transform="translate(2.9287279593186444e-3, -4.7607839038127375e-3) scale(5.0e-2)"/></g></g><g fill="rgb(65%, 81%, 89%)" stroke="rgb(5%, 5%, 5%)" stroke-width="5.0e-2" fill-opacity="1.0" stroke-opacity="1.0"><g transform="rotate(25.352317626939044, 2.9287279593186444e-3, -8.942162566415846e-2)"><path d="M -1 0 L 1 0 M 1 0 L 0.4 0.3 M 1 0 L 0.4 -0.3" transform="translate(2.9287279593186444e-3, -8.942162566415846e-2) scale(5.0e-2)"/></g></g><g fill="rgb(65%, 81%, 89%)" stroke="rgb(5%, 5%, 5%)" stroke-width="5.0e-2" fill-opacity="1.0" stroke-opacity="1.0"><g transform="rotate(58.539020075643705, 2.9287279593186444e-3, -0.17408246742450428)"><path d="M -1 0 L 1 0 M 1 0 L 0.4 0.3 M 1 0 L 0.4 -0.3" transform="translate(2.9287279593186444e-3, -0.17408246742450428) scale(5.0e-2)"/></g></g><g fill="rgb(65%, 81%, 89%)" stroke="rgb(5%, 5%, 5%)" stroke-width="5.0e-2" fill-opacity="1.0" stroke-opacity="1.0"><g transform="rotate(72.03510627877053, 2.9287279593186444e-3, -0.2587433091848499)"><path d="M -1 0 L 1 0 M 1 0 L 0.4 0.3 M 1 0 L 0.4 -0.3" transform="translate(2.9287279593186444e-3, -0.2587433091848499) scale(5.0e-2)"/></g></g><g fill="rgb(65%, 81%, 89%)" stroke="rgb(5%, 5%, 5%)" stroke-width="5.0e-2" fill-opacity="1.0" stroke-opacity="1.0"><g transform="rotate(78.57121322367863, 2.9287279593186444e-3, -0.3434041509451956)"><path d="M -1 0 L 1 0 M 1 0 L 0.4 0.3 M 1 0 L 0.4 -0.3" transform="translate(2.9287279593186444e-3, -0.3434041509451956) scale(5.0e-2)"/></g></g><g fill="rgb(65%, 81%, 89%)" stroke="rgb(5%, 5%, 5%)" stroke-width="5.0e-2" fill-opacity="1.0" stroke-opacity="1.0"><g transform="rotate(82.33198654554482, 2.9287279593186444e-3, -0.4280649927055412)"><path d="M -1 0 L 1 0 M 1 0 L 0.4 0.3 M 1 0 L 0.4 -0.3" transform="translate(2.9287279593186444e-3, -0.4280649927055412) scale(5.0e-2)"/></g></g><g fill="rgb(65%, 81%, 89%)" stroke="rgb(5%, 5%, 5%)" stroke-width="5.0e-2" fill-opacity="1.0" stroke-opacity="1.0"><g transform="rotate(-83.72582919707884, 0.13084413175693632, 0.33388258313757)"><path d="M -1 0 L 1 0 M 1 0 L 0.4 0.3 M 1 0 L 0.4 -0.3" transform="translate(0.13084413175693632, 0.33388258313757) scale(5.0e-2)"/></g></g><g fill="rgb(65%, 81%, 89%)" stroke="rgb(5%, 5%, 5%)" stroke-width="5.0e-2" fill-opacity="1.0" stroke-opacity="1.0"><g transform="rotate(-80.37960270065743, 0.13084413175693632, 0.2492217413772243)"><path d="M -1 0 L 1 0 M 1 0 L 0.4 0.3 M 1 0 L 0.4 -0.3" transform="translate(0.13084413175693632, 0.2492217413772243) scale(5.0e-2)"/></g></g><g fill="rgb(65%, 81%, 89%)" stroke="rgb(5%, 5%, 5%)" stroke-width="5.0e-2" fill-opacity="1.0" stroke-opacity="1.0"><g transform="rotate(-74.55784459620769, 0.13084413175693632, 0.1645608996168786)"><path d="M -1 0 L 1 0 M 1 0 L 0.4 0.3 M 1 0 L 0.4 -0.3" transform="translate(0.13084413175693632, 0.1645608996168786) scale(5.0e-2)"/></g></g><g fill="rgb(65%, 81%, 89%)" stroke="rgb(5%, 5%, 5%)" stroke-width="5.0e-2" fill-opacity="1.0" stroke-opacity="1.0"><g transform="rotate(-62.392645475723924, 0.13084413175693632, 7.990005785653287e-2)"><path d="M -1 0 L 1 0 M 1 0 L 0.4 0.3 M 1 0 L 0.4 -0.3" transform="translate(0.13084413175693632, 7.990005785653287e-2) scale(5.0e-2)"/></g></g><g fill="rgb(65%, 81%, 89%)" stroke="rgb(5%, 5%, 5%)" stroke-width="5.0e-2" fill-opacity="1.0" stroke-opacity="1.0"><g transform="rotate(-30.325850500388558, 0.13084413175693632, -4.7607839038127375e-3)"><path d="M -1 0 L 1 0 M 1 0 L 0.4 0.3 M 1 0 L 0.4 -0.3" transform="translate(0.13084413175693632, -4.7607839038127375e-3) scale(5.0e-2)"/></g></g><g fill="rgb(65%, 81%, 89%)" stroke="rgb(5%, 5%, 5%)" stroke-width="5.0e-2" fill-opacity="1.0" stroke-opacity="1.0"><g transform="rotate(25.463345061871614, 0.13084413175693632, -8.942162566415846e-2)"><path d="M -1 0 L 1 0 M 1 0 L 0.4 0.3 M 1 0 L 0.4 -0.3" transform="translate(0.13084413175693632, -8.942162566415846e-2) scale(5.0e-2)"/></g></g><g fill="rgb(65%, 81%, 89%)" stroke="rgb(5%, 5%, 5%)" stroke-width="5.0e-2" fill-opacity="1.0" stroke-opacity="1.0"><g transform="rotate(53.34825221466397, 0.13084413175693632, -0.17408246742450428)"><path d="M -1 0 L 1 0 M 1 0 L 0.4 0.3 M 1 0 L 0.4 -0.3" transform="translate(0.13084413175693632, -0.17408246742450428) scale(5.0e-2)"/></g></g><g fill="rgb(65%, 81%, 89%)" stroke="rgb(5%, 5%, 5%)" stroke-width="5.0e-2" fill-opacity="1.0" stroke-opacity="1.0"><g transform="rotate(64.18052078566551, 0.13084413175693632, -0.2587433091848499)"><path d="M -1 0 L 1 0 M 1 0 L 0.4 0.3 M 1 0 L 0.4 -0.3" transform="translate(0.13084413175693632, -0.2587433091848499) scale(5.0e-2)"/></g></g><g fill="rgb(65%, 81%, 89%)" stroke="rgb(5%, 5%, 5%)" stroke-width="5.0e-2" fill-opacity="1.0" stroke-opacity="1.0"><g transform="rotate(69.52530867630297, 0.13084413175693632, -0.3434041509451956)"><path d="M -1 0 L 1 0 M 1 0 L 0.4 0.3 M 1 0 L 0.4 -0.3" transform="translate(0.13084413175693632, -0.3434041509451956) scale(5.0e-2)"/></g></g><g fill="rgb(65%, 81%, 89%)" stroke="rgb(5%, 5%, 5%)" stroke-width="5.0e-2" fill-opacity="1.0" stroke-opacity="1.0"><g transform="rotate(72.65691141186667, 0.13084413175693632, -0.4280649927055412)"><path d="M -1 0 L 1 0 M 1 0 L 0.4 0.3 M 1 0 L 0.4 -0.3" transform="translate(0.13084413175693632, -0.4280649927055412) scale(5.0e-2)"/></g></g><g fill="rgb(65%, 81%, 89%)" stroke="rgb(5%, 5%, 5%)" stroke-width="5.0e-2" fill-opacity="1.0" stroke-opacity="1.0"><g transform="rotate(-96.84875031477206, 0.2587595355545542, 0.33388258313757)"><path d="M -1 0 L 1 0 M 1 0 L 0.4 0.3 M 1 0 L 0.4 -0.3" transform="translate(0.2587595355545542, 0.33388258313757) scale(5.0e-2)"/></g></g><g fill="rgb(65%, 81%, 89%)" stroke="rgb(5%, 5%, 5%)" stroke-width="5.0e-2" fill-opacity="1.0" stroke-opacity="1.0"><g transform="rotate(-94.10747809603637, 0.2587595355545542, 0.2492217413772243)"><path d="M -1 0 L 1 0 M 1 0 L 0.4 0.3 M 1 0 L 0.4 -0.3" transform="translate(0.2587595355545542, 0.2492217413772243) scale(5.0e-2)"/></g></g><g fill="rgb(65%, 81%, 89%)" stroke="rgb(5%, 5%, 5%)" stroke-width="5.0e-2" fill-opacity="1.0" stroke-opacity="1.0"><g transform="rotate(-89.31668823842175, 0.2587595355545542, 0.1645608996168786)"><path d="M -1 0 L 1 0 M 1 0 L 0.4 0.3 M 1 0 L 0.4 -0.3" transform="translate(0.2587595355545542, 0.1645608996168786) scale(5.0e-2)"/></g></g><g fill="rgb(65%, 81%, 89%)" stroke="rgb(5%, 5%, 5%)" stroke-width="5.0e-2" fill-opacity="1.0" stroke-opacity="1.0"><g transform="rotate(-79.0898362236076, 0.2587595355545542, 7.990005785653287e-2)"><path d="M -1 0 L 1 0 M 1 0 L 0.4 0.3 M 1 0 L 0.4 -0.3" transform="translate(0.2587595355545542, 7.990005785653287e-2) scale(5.0e-2)"/></g></g><g fill="rgb(65%, 81%, 89%)" stroke="rgb(5%, 5%, 5%)" stroke-width="5.0e-2" fill-opacity="1.0" stroke-opacity="1.0"><g transform="rotate(-48.89810671661513, 0.2587595355545542, -4.7607839038127375e-3)"><path d="M -1 0 L 1 0 M 1 0 L 0.4 0.3 M 1 0 L 0.4 -0.3" transform="translate(0.2587595355545542, -4.7607839038127375e-3) scale(5.0e-2)"/></g></g><g fill="rgb(65%, 81%, 89%)" stroke="rgb(5%, 5%, 5%)" stroke-width="5.0e-2" fill-opacity="1.0" stroke-opacity="1.0"><g transform="rotate(16.431113233075703, 0.2587595355545542, -8.942162566415846e-2)"><path d="M -1 0 L 1 0 M 1 0 L 0.4 0.3 M 1 0 L 0.4 -0.3" transform="translate(0.2587595355545542, -8.942162566415846e-2) scale(5.0e-2)"/></g></g><g fill="rgb(65%, 81%, 89%)" stroke="rgb(5%, 5%, 5%)" stroke-width="5.0e-2" fill-opacity="1.0" stroke-opacity="1.0"><g transform="rotate(45.97102193107918, 0.2587595355545542, -0.17408246742450428)"><path d="M -1 0 L 1 0 M 1 0 L 0.4 0.3 M 1 0 L 0.4 -0.3" transform="translate(0.2587595355545542, -0.17408246742450428) scale(5.0e-2)"/></g></g><g fill="rgb(65%, 81%, 89%)" stroke="rgb(5%, 5%, 5%)" stroke-width="5.0e-2" fill-opacity="1.0" stroke-opacity="1.0"><g transform="rotate(56.03475263569897, 0.2587595355545542, -0.2587433091848499)"><path d="M -1 0 L 1 0 M 1 0 L 0.4 0.3 M 1 0 L 0.4 -0.3" transform="translate(0.2587595355545542, -0.2587433091848499) scale(5.0e-2)"/></g></g><g fill="rgb(65%, 81%, 89%)" stroke="rgb(5%, 5%, 5%)" stroke-width="5.0e-2" fill-opacity="1.0" stroke-opacity="1.0"><g transform="rotate(60.77115498628979, 0.2587595355545542, -0.3434041509451956)"><path d="M -1 0 L 1 0 M 1 0 L 0.4 0.3 M 1 0 L 0.4 -0.3" transform="translate(0.2587595355545542, -0.3434041509451956) scale(5.0e-2)"/></g></g><g fill="rgb(65%, 81%, 89%)" stroke="rgb(5%, 5%, 5%)" stroke-width="5.0e-2" fill-opacity="1.0" stroke-opacity="1.0"><g transform="rotate(63.48858398583044, 0.2587595355545542, -0.4280649927055412)"><path d="M -1 0 L 1 0 M 1 0 L 0.4 0.3 M 1 0 L 0.4 -0.3" transform="translate(0.2587595355545542, -0.4280649927055412) scale(5.0e-2)"/></g></g><g fill="rgb(65%, 81%, 89%)" stroke="rgb(5%, 5%, 5%)" stroke-width="5.0e-2" fill-opacity="1.0" stroke-opacity="1.0"><g transform="rotate(-109.476575498932, 0.38667493935217156, 0.33388258313757)"><path d="M -1 0 L 1 0 M 1 0 L 0.4 0.3 M 1 0 L 0.4 -0.3" transform="translate(0.38667493935217156, 0.33388258313757) scale(5.0e-2)"/></g></g><g fill="rgb(65%, 81%, 89%)" stroke="rgb(5%, 5%, 5%)" stroke-width="5.0e-2" fill-opacity="1.0" stroke-opacity="1.0"><g transform="rotate(-107.65012421993012, 0.38667493935217156, 0.2492217413772243)"><path d="M -1 0 L 1 0 M 1 0 L 0.4 0.3 M 1 0 L 0.4 -0.3" transform="translate(0.38667493935217156, 0.2492217413772243) scale(5.0e-2)"/></g></g><g fill="rgb(65%, 81%, 89%)" stroke="rgb(5%, 5%, 5%)" stroke-width="5.0e-2" fill-opacity="1.0" stroke-opacity="1.0"><g transform="rotate(-104.57421619803874, 0.38667493935217156, 0.1645608996168786)"><path d="M -1 0 L 1 0 M 1 0 L 0.4 0.3 M 1 0 L 0.4 -0.3" transform="translate(0.38667493935217156, 0.1645608996168786) scale(5.0e-2)"/></g></g><g fill="rgb(65%, 81%, 89%)" stroke="rgb(5%, 5%, 5%)" stroke-width="5.0e-2" fill-opacity="1.0" stroke-opacity="1.0"><g transform="rotate(-98.3658861240326, 0.38667493935217156, 7.990005785653287e-2)"><path d="M -1 0 L 1 0 M 1 0 L 0.4 0.3 M 1 0 L 0.4 -0.3" transform="translate(0.38667493935217156, 7.990005785653287e-2) scale(5.0e-2)"/></g></g><g fill="rgb(65%, 81%, 89%)" stroke="rgb(5%, 5%, 5%)" stroke-width="5.0e-2" fill-opacity="1.0" stroke-opacity="1.0"><g transform="rotate(-80.5376777919744, 0.38667493935217156, -4.7607839038127375e-3)"><path d="M -1 0 L 1 0 M 1 0 L 0.4 0.3 M 1 0 L 0.4 -0.3" transform="translate(0.38667493935217156, -4.7607839038127375e-3) scale(5.0e-2)"/></g></g><g fill="rgb(65%, 81%, 89%)" stroke="rgb(5%, 5%, 5%)" stroke-width="5.0e-2" fill-opacity="1.0" stroke-opacity="1.0"><g transform="rotate(-10.304846468766057, 0.38667493935217156, -8.942162566415846e-2)"><path d="M -1 0 L 1 0 M 1 0 L 0.4 0.3 M 1 0 L 0.4 -0.3" transform="translate(0.38667493935217156, -8.942162566415846e-2) scale(5.0e-2)"/></g></g><g fill="rgb(65%, 81%, 89%)" stroke="rgb(5%, 5%, 5%)" stroke-width="5.0e-2" fill-opacity="1.0" stroke-opacity="1.0"><g transform="rotate(36.3843518158359, 0.38667493935217156, -0.17408246742450428)"><path d="M -1 0 L 1 0 M 1 0 L 0.4 0.3 M 1 0 L 0.4 -0.3" transform="translate(0.38667493935217156, -0.17408246742450428) scale(5.0e-2)"/></g></g><g fill="rgb(65%, 81%, 89%)" stroke="rgb(5%, 5%, 5%)" stroke-width="5.0e-2" fill-opacity="1.0" stroke-opacity="1.0"><g transform="rotate(48.012787504183336, 0.38667493935217156, -0.2587433091848499)"><path d="M -1 0 L 1 0 M 1 0 L 0.4 0.3 M 1 0 L 0.4 -0.3" transform="translate(0.38667493935217156, -0.2587433091848499) scale(5.0e-2)"/></g></g><g fill="rgb(65%, 81%, 89%)" stroke="rgb(5%, 5%, 5%)" stroke-width="5.0e-2" fill-opacity="1.0" stroke-opacity="1.0"><g transform="rotate(52.73359809902285, 0.38667493935217156, -0.3434041509451956)"><path d="M -1 0 L 1 0 M 1 0 L 0.4 0.3 M 1 0 L 0.4 -0.3" transform="translate(0.38667493935217156, -0.3434041509451956) scale(5.0e-2)"/></g></g><g fill="rgb(65%, 81%, 89%)" stroke="rgb(5%, 5%, 5%)" stroke-width="5.0e-2" fill-opacity="1.0" stroke-opacity="1.0"><g transform="rotate(55.2568198416964, 0.38667493935217156, -0.4280649927055412)"><path d="M -1 0 L 1 0 M 1 0 L 0.4 0.3 M 1 0 L 0.4 -0.3" transform="translate(0.38667493935217156, -0.4280649927055412) scale(5.0e-2)"/></g></g><g fill="rgb(65%, 81%, 89%)" stroke="rgb(5%, 5%, 5%)" stroke-width="5.0e-2" fill-opacity="1.0" stroke-opacity="1.0"><g transform="rotate(-120.39004059367852, 0.5145903431497894, 0.33388258313757)"><path d="M -1 0 L 1 0 M 1 0 L 0.4 0.3 M 1 0 L 0.4 -0.3" transform="translate(0.5145903431497894, 0.33388258313757) scale(5.0e-2)"/></g></g><g fill="rgb(65%, 81%, 89%)" stroke="rgb(5%, 5%, 5%)" stroke-width="5.0e-2" fill-opacity="1.0" stroke-opacity="1.0"><g transform="rotate(-119.3548748641938, 0.5145903431497894, 0.2492217413772243)"><path d="M -1 0 L 1 0 M 1 0 L 0.4 0.3 M 1 0 L 0.4 -0.3" transform="translate(0.5145903431497894, 0.2492217413772243) scale(5.0e-2)"/></g></g><g fill="rgb(65%, 81%, 89%)" stroke="rgb(5%, 5%, 5%)" stroke-width="5.0e-2" fill-opacity="1.0" stroke-opacity="1.0"><g transform="rotate(-117.72207677286721, 0.5145903431497894, 0.1645608996168786)"><path d="M -1 0 L 1 0 M 1 0 L 0.4 0.3 M 1 0 L 0.4 -0.3" transform="translate(0.5145903431497894, 0.1645608996168786) scale(5.0e-2)"/></g></g><g fill="rgb(65%, 81%, 89%)" stroke="rgb(5%, 5%, 5%)" stroke-width="5.0e-2" fill-opacity="1.0" stroke-opacity="1.0"><g transform="rotate(-114.77180709318333, 0.5145903431497894, 7.990005785653287e-2)"><path d="M -1 0 L 1 0 M 1 0 L 0.4 0.3 M 1 0 L 0.4 -0.3" transform="translate(0.5145903431497894, 7.990005785653287e-2) scale(5.0e-2)"/></g></g><g fill="rgb(65%, 81%, 89%)" stroke="rgb(5%, 5%, 5%)" stroke-width="5.0e-2" fill-opacity="1.0" stroke-opacity="1.0"><g transform="rotate(-107.91023110297346, 0.5145903431497894, -4.7607839038127375e-3)"><path d="M -1 0 L 1 0 M 1 0 L 0.4 0.3 M 1 0 L 0.4 -0.3" transform="translate(0.5145903431497894, -4.7607839038127375e-3) scale(5.0e-2)"/></g></g><g fill="rgb(65%, 81%, 89%)" stroke="rgb(5%, 5%, 5%)" stroke-width="5.0e-2" fill-opacity="1.0" stroke-opacity="1.0"><g transform="rotate(-78.88016563239884, 0.5145903431497894, -8.942162566415846e-2)"><path d="M -1 0 L 1 0 M 1 0 L 0.4 0.3 M 1 0 L 0.4 -0.3" transform="translate(0.5145903431497894, -8.942162566415846e-2) scale(5.0e-2)"/></g></g><g fill="rgb(65%, 81%, 89%)" stroke="rgb(5%, 5%, 5%)" stroke-width="5.0e-2" fill-opacity="1.0" stroke-opacity="1.0"><g transform="rotate(18.07717429682483, 0.5145903431497894, -0.17408246742450428)"><path d="M -1 0 L 1 0 M 1 0 L 0.4 0.3 M 1 0 L 0.4 -0.3" transform="translate(0.5145903431497894, -0.17408246742450428) scale(5.0e-2)"/></g></g><g fill="rgb(65%, 81%, 89%)" stroke="rgb(5%, 5%, 5%)" stroke-width="5.0e-2" fill-opacity="1.0" stroke-opacity="1.0"><g transform="rotate(39.57646251047537, 0.5145903431497894, -0.2587433091848499)"><path d="M -1 0 L 1 0 M 1 0 L 0.4 0.3 M 1 0 L 0.4 -0.3" transform="translate(0.5145903431497894, -0.2587433091848499) scale(5.0e-2)"/></g></g><g fill="rgb(65%, 81%, 89%)" stroke="rgb(5%, 5%, 5%)" stroke-width="5.0e-2" fill-opacity="1.0" stroke-opacity="1.0"><g transform="rotate(45.412192741402315, 0.5145903431497894, -0.3434041509451956)"><path d="M -1 0 L 1 0 M 1 0 L 0.4 0.3 M 1 0 L 0.4 -0.3" transform="translate(0.5145903431497894, -0.3434041509451956) scale(5.0e-2)"/></g></g><g fill="rgb(65%, 81%, 89%)" stroke="rgb(5%, 5%, 5%)" stroke-width="5.0e-2" fill-opacity="1.0" stroke-opacity="1.0"><g transform="rotate(48.061152646549644, 0.5145903431497894, -0.4280649927055412)"><path d="M -1 0 L 1 0 M 1 0 L 0.4 0.3 M 1 0 L 0.4 -0.3" transform="translate(0.5145903431497894, -0.4280649927055412) scale(5.0e-2)"/></g></g><g fill="rgb(65%, 81%, 89%)" stroke="rgb(5%, 5%, 5%)" stroke-width="5.0e-2" fill-opacity="1.0" stroke-opacity="1.0"><g transform="rotate(-129.20442853819998, 0.6425057469474067, 0.33388258313757)"><path d="M -1 0 L 1 0 M 1 0 L 0.4 0.3 M 1 0 L 0.4 -0.3" transform="translate(0.6425057469474067, 0.33388258313757) scale(5.0e-2)"/></g></g><g fill="rgb(65%, 81%, 89%)" stroke="rgb(5%, 5%, 5%)" stroke-width="5.0e-2" fill-opacity="1.0" stroke-opacity="1.0"><g transform="rotate(-128.6756131139764, 0.6425057469474067, 0.2492217413772243)"><path d="M -1 0 L 1 0 M 1 0 L 0.4 0.3 M 1 0 L 0.4 -0.3" transform="translate(0.6425057469474067, 0.2492217413772243) scale(5.0e-2)"/></g></g><g fill="rgb(65%, 81%, 89%)" stroke="rgb(5%, 5%, 5%)" stroke-width="5.0e-2" fill-opacity="1.0" stroke-opacity="1.0"><g transform="rotate(-127.8990823601365, 0.6425057469474067, 0.1645608996168786)"><path d="M -1 0 L 1 0 M 1 0 L 0.4 0.3 M 1 0 L 0.4 -0.3" transform="translate(0.6425057469474067, 0.1645608996168786) scale(5.0e-2)"/></g></g><g fill="rgb(65%, 81%, 89%)" stroke="rgb(5%, 5%, 5%)" stroke-width="5.0e-2" fill-opacity="1.0" stroke-opacity="1.0"><g transform="rotate(-126.64820118726841, 0.6425057469474067, 7.990005785653287e-2)"><path d="M -1 0 L 1 0 M 1 0 L 0.4 0.3 M 1 0 L 0.4 -0.3" transform="translate(0.6425057469474067, 7.990005785653287e-2) scale(5.0e-2)"/></g></g><g fill="rgb(65%, 81%, 89%)" stroke="rgb(5%, 5%, 5%)" stroke-width="5.0e-2" fill-opacity="1.0" stroke-opacity="1.0"><g transform="rotate(-124.30095672615316, 0.6425057469474067, -4.7607839038127375e-3)"><path d="M -1 0 L 1 0 M 1 0 L 0.4 0.3 M 1 0 L 0.4 -0.3" transform="translate(0.6425057469474067, -4.7607839038127375e-3) scale(5.0e-2)"/></g></g><g fill="rgb(65%, 81%, 89%)" stroke="rgb(5%, 5%, 5%)" stroke-width="5.0e-2" fill-opacity="1.0" stroke-opacity="1.0"><g transform="rotate(-118.3399495893263, 0.6425057469474067, -8.942162566415846e-2)"><path d="M -1 0 L 1 0 M 1 0 L 0.4 0.3 M 1 0 L 0.4 -0.3" transform="translate(0.6425057469474067, -8.942162566415846e-2) scale(5.0e-2)"/></g></g><g fill="rgb(65%, 81%, 89%)" stroke="rgb(5%, 5%, 5%)" stroke-width="5.0e-2" fill-opacity="1.0" stroke-opacity="1.0"><g transform="rotate(-81.6026974133102, 0.6425057469474067, -0.17408246742450428)"><path d="M -1 0 L 1 0 M 1 0 L 0.4 0.3 M 1 0 L 0.4 -0.3" transform="translate(0.6425057469474067, -0.17408246742450428) scale(5.0e-2)"/></g></g><g fill="rgb(65%, 81%, 89%)" stroke="rgb(5%, 5%, 5%)" stroke-width="5.0e-2" fill-opacity="1.0" stroke-opacity="1.0"><g transform="rotate(25.916669828467207, 0.6425057469474067, -0.2587433091848499)"><path d="M -1 0 L 1 0 M 1 0 L 0.4 0.3 M 1 0 L 0.4 -0.3" transform="translate(0.6425057469474067, -0.2587433091848499) scale(5.0e-2)"/></g></g><g fill="rgb(65%, 81%, 89%)" stroke="rgb(5%, 5%, 5%)" stroke-width="5.0e-2" fill-opacity="1.0" stroke-opacity="1.0"><g transform="rotate(38.15385704023621, 0.6425057469474067, -0.3434041509451956)"><path d="M -1 0 L 1 0 M 1 0 L 0.4 0.3 M 1 0 L 0.4 -0.3" transform="translate(0.6425057469474067, -0.3434041509451956) scale(5.0e-2)"/></g></g><g fill="rgb(65%, 81%, 89%)" stroke="rgb(5%, 5%, 5%)" stroke-width="5.0e-2" fill-opacity="1.0" stroke-opacity="1.0"><g transform="rotate(41.70388402745369, 0.6425057469474067, -0.4280649927055412)"><path d="M -1 0 L 1 0 M 1 0 L 0.4 0.3 M 1 0 L 0.4 -0.3" transform="translate(0.6425057469474067, -0.4280649927055412) scale(5.0e-2)"/></g></g></g></g><g class="hud"><g class="frame"><g fill="rgb(100%, 100%, 100%)" stroke="rgb(0%, 0%, 0%)" stroke-width="0.0" fill-opacity="2.0e-2" stroke-opacity="0.0"><rect x="-0.5812172223290482" width="1.2961570611615412" y="-0.5" height="0.9058421129540768"/></g></g><g class="axis"><g class="ticks"><g class="tickglyph"><g fill="rgb(5%, 5%, 5%)" stroke="rgb(5%, 5%, 5%)" stroke-width="4.0e-3" fill-opacity="0.4" stroke-opacity="0.4"><g transform="rotate(-90.0, -0.6068003030885717, 0.3762130040177428)"><polyline points="-0.6068003030885717,0.39121300401774284
-0.6068003030885717,0.3612130040177428"/></g><g transform="rotate(-90.0, -0.6068003030885717, 0.29155216225739716)"><polyline points="-0.6068003030885717,0.3065521622573972
-0.6068003030885717,0.27655216225739715"/></g><g transform="rotate(-90.0, -0.6068003030885717, 0.20689132049705145)"><polyline points="-0.6068003030885717,0.22189132049705146
-0.6068003030885717,0.19189132049705143"/></g><g transform="rotate(-90.0, -0.6068003030885717, 0.12223047873670573)"><polyline points="-0.6068003030885717,0.13723047873670574
-0.6068003030885717,0.10723047873670573"/></g><g transform="rotate(-90.0, -0.6068003030885717, 3.7569636976360066e-2)"><polyline points="-0.6068003030885717,5.2569636976360065e-2
-0.6068003030885717,2.2569636976360066e-2"/></g><g transform="rotate(-90.0, -0.6068003030885717, -4.709120478398565e-2)"><polyline points="-0.6068003030885717,-3.209120478398565e-2
-0.6068003030885717,-6.209120478398565e-2"/></g><g transform="rotate(-90.0, -0.6068003030885717, -0.13175204654433137)"><polyline points="-0.6068003030885717,-0.11675204654433137
-0.6068003030885717,-0.14675204654433138"/></g><g transform="rotate(-90.0, -0.6068003030885717, -0.21641288830467698)"><polyline points="-0.6068003030885717,-0.20141288830467696
-0.6068003030885717,-0.231412888304677"/></g><g transform="rotate(-90.0, -0.6068003030885717, -0.3010737300650228)"><polyline points="-0.6068003030885717,-0.2860737300650228
-0.6068003030885717,-0.3160737300650228"/></g><g transform="rotate(-90.0, -0.6068003030885717, -0.3857345718253685)"><polyline points="-0.6068003030885717,-0.3707345718253685
-0.6068003030885717,-0.40073457182536854"/></g><g transform="rotate(-90.0, -0.6068003030885717, -0.47039541358571413)"><polyline points="-0.6068003030885717,-0.4553954135857141
-0.6068003030885717,-0.48539541358571414"/></g></g></g><g class="ticktext"><g fill="rgb(5%, 5%, 5%)" stroke="none" stroke-width="0.0" font-size="4.2638467932539226e-2" fill-opacity="1.0" text-anchor="end"><text x="-0.6375" y="0.3878538697597904">-0.50</text><text x="-0.6375" y="0.3031930279994447">-0.40</text><text x="-0.6375" y="0.21853218623909898">-0.30</text><text x="-0.6375" y="0.13387134447875332">-0.20</text><text x="-0.6375" y="4.92105027184076e-2">-0.10</text><text x="-0.6375" y="-3.545033904193806e-2">0.0</text><text x="-0.6375" y="-0.12011118080228378">0.10</text><text x="-0.6375" y="-0.2047720225626295">0.20</text><text x="-0.6375" y="-0.2894328643229752">0.30</text><text x="-0.6375" y="-0.37409370608332093">0.40</text><text x="-0.6375" y="-0.45875454784366665">0.50</text></g></g></g><g class="axisbar"><g fill="rgb(5%, 5%, 5%)" stroke="rgb(0%, 0%, 0%)" stroke-width="0.0" fill-opacity="0.4" stroke-opacity="0.0"><rect x="-0.5931559933501591" width="3.411077434603116e-3" y="-0.472088630420921" height="0.8499948512738706"/></g></g></g><g class="axis"><g class="ticks"><g class="tickglyph"><g fill="rgb(5%, 5%, 5%)" stroke="rgb(5%, 5%, 5%)" stroke-width="4.0e-3" fill-opacity="0.4" stroke-opacity="0.4"><polyline points="-0.572690589129961,0.4462403654821805
-0.572690589129961,0.41624036548218046"/><polyline points="-0.4447751853323433,0.4462403654821805
-0.4447751853323433,0.41624036548218046"/><polyline points="-0.31685978153472555,0.4462403654821805
-0.31685978153472555,0.41624036548218046"/><polyline points="-0.18894437773710782,0.4462403654821805
-0.18894437773710782,0.41624036548218046"/><polyline points="-6.102897393949014e-2,0.4462403654821805
-6.102897393949014e-2,0.41624036548218046"/><polyline points="6.688642985812754e-2,0.4462403654821805
6.688642985812754e-2,0.41624036548218046"/><polyline points="0.1948018336557451,0.4462403654821805
0.1948018336557451,0.41624036548218046"/><polyline points="0.3227172374533628,0.4462403654821805
0.3227172374533628,0.41624036548218046"/><polyline points="0.4506326412509807,0.4462403654821805
0.4506326412509807,0.41624036548218046"/><polyline points="0.5785480450485982,0.4462403654821805
0.5785480450485982,0.41624036548218046"/><polyline points="0.7064634488462158,0.4462403654821805
0.7064634488462158,0.41624036548218046"/></g></g><g class="ticktext"><g fill="rgb(5%, 5%, 5%)" stroke="none" stroke-width="0.0" font-size="4.2638467932539226e-2" fill-opacity="1.0" text-anchor="middle"><text x="-0.572690589129961" y="0.485">-0.50</text><text x="-0.4447751853323433" y="0.485">-0.40</text><text x="-0.31685978153472555" y="0.485">-0.30</text><text x="-0.18894437773710782" y="0.485">-0.20</text><text x="-6.102897393949014e-2" y="0.485">-0.10</text><text x="6.688642985812754e-2" y="0.485">0.0</text><text x="0.1948018336557451" y="0.485">0.10</text><text x="0.3227172374533628" y="0.485">0.20</text><text x="0.4506326412509807" y="0.485">0.30</text><text x="0.5785480450485982" y="0.485">0.40</text><text x="0.7064634488462158" y="0.485">0.50</text></g></g></g><g class="axisbar"><g fill="rgb(5%, 5%, 5%)" stroke="rgb(0%, 0%, 0%)" stroke-width="0.0" fill-opacity="0.4" stroke-opacity="0.0"><rect x="-0.5743961278472625" width="1.2825651154107798" y="0.41430819713011136" height="3.386433670413802e-3"/></g></g></g></g></svg>