<svg xmlns="http://www.w3.org/2000/svg" xmlns:xlink="http://www.w3.org/1999/xlink" width="450" height="300" viewBox="-0.75 -0.5 1.5 1.0"><style>svg {
  color-scheme: light dark;
}
{
  .canvas g, .title g, .axisbar g, .ticktext g, .tickglyph g, .ticklines g, .legendContent g text {
    fill: rgb(5%, 5%, 5%);
  }
  .ticklines g, .tickglyph g, .legendBorder g {
    stroke: rgb(5%, 5%, 5%);
  }
  .legendBorder g {
    fill: rgb(94%, 94%, 94%);
  }
}
@media (prefers-color-scheme:dark) {
  .canvas g, .title g, .axisbar g, .ticktext g, .tickglyph g, .ticklines g, .legendContent g text {
    fill: rgb(94%, 94%, 94%);
  }
  .ticklines g, .tickglyph g, .legendBorder g {
    stroke: rgb(94%, 94%, 94%);
  }
  .legendBorder g {
    fill: rgb(5%, 5%, 5%);
  }
}
{
  .arrow g {
    fill: rgba(5%, 5%, 5%, 1.00);
    stroke: rgba(5%, 5%, 5%, 1.00);
  }
}
@media (prefers-color-scheme:dark) {
  .arrow g {
    fill: rgba(94%, 94%, 94%, 1.00);
    stroke: rgba(94%, 94%, 94%, 1.00);
  }
}
</style><g class="chart"><g class="arrow"><g stroke-width="0.0500" stroke="rgb(5%, 5%, 5%)" stroke-opacity="1.0" fill="rgb(2%, 73%, 80%)" fill-opacity="0.2"><g transform="rotate(-41.7039, -0.5017, 0.3054)"><path d="M -1 0 L 1 0 M 1 0 L 0.4 0.3 M 1 0 L 0.4 -0.3" transform="translate(-0.5017, 0.3054) scale(0.0500)"/></g></g><g stroke-width="0.0500" stroke="rgb(5%, 5%, 5%)" stroke-opacity="1.0" fill="rgb(2%, 73%, 80%)" fill-opacity="0.2"><g transform="rotate(-40.7040, -0.5017, 0.2274)"><path d="M -1 0 L 1 0 M 1 0 L 0.4 0.3 M 1 0 L 0.4 -0.3" transform="translate(-0.5017, 0.2274) scale(0.0500)"/></g></g><g stroke-width="0.0500" stroke="rgb(5%, 5%, 5%)" stroke-opacity="1.0" fill="rgb(2%, 73%, 80%)" fill-opacity="0.2"><g transform="rotate(-39.3303, -0.5017, 0.1495)"><path d="M -1 0 L 1 0 M 1 0 L 0.4 0.3 M 1 0 L 0.4 -0.3" transform="translate(-0.5017, 0.1495) scale(0.0500)"/></g></g><g stroke-width="0.0500" stroke="rgb(5%, 5%, 5%)" stroke-opacity="1.0" fill="rgb(2%, 73%, 80%)" fill-opacity="0.2"><g transform="rotate(-37.3282, -0.5017, 0.0716)"><path d="M -1 0 L 1 0 M 1 0 L 0.4 0.3 M 1 0 L 0.4 -0.3" transform="translate(-0.5017, 0.0716) scale(0.0500)"/></g></g><g stroke-width="0.0500" stroke="rgb(5%, 5%, 5%)" stroke-opacity="1.0" fill="rgb(2%, 73%, 80%)" fill-opacity="0.2"><g transform="rotate(-34.1493, -0.5017, -0.0063)"><path d="M -1 0 L 1 0 M 1 0 L 0.4 0.3 M 1 0 L 0.4 -0.3" transform="translate(-0.5017, -0.0063) scale(0.0500)"/></g></g><g stroke-width="0.0500" stroke="rgb(5%, 5%, 5%)" stroke-opacity="1.0" fill="rgb(2%, 73%, 80%)" fill-opacity="0.2"><g transform="rotate(-28.3824, -0.5017, -0.0842)"><path d="M -1 0 L 1 0 M 1 0 L 0.4 0.3 M 1 0 L 0.4 -0.3" transform="translate(-0.5017, -0.0842) scale(0.0500)"/></g></g><g stroke-width="0.0500" stroke="rgb(5%, 5%, 5%)" stroke-opacity="1.0" fill="rgb(2%, 73%, 80%)" fill-opacity="0.2"><g transform="rotate(-15.2740, -0.5017, -0.1621)"><path d="M -1 0 L 1 0 M 1 0 L 0.4 0.3 M 1 0 L 0.4 -0.3" transform="translate(-0.5017, -0.1621) scale(0.0500)"/></g></g><g stroke-width="0.0500" stroke="rgb(5%, 5%, 5%)" stroke-opacity="1.0" fill="rgb(2%, 73%, 80%)" fill-opacity="0.2"><g transform="rotate(24.9171, -0.5017, -0.2400)"><path d="M -1 0 L 1 0 M 1 0 L 0.4 0.3 M 1 0 L 0.4 -0.3" transform="translate(-0.5017, -0.2400) scale(0.0500)"/></g></g><g stroke-width="0.0500" stroke="rgb(5%, 5%, 5%)" stroke-opacity="1.0" fill="rgb(2%, 73%, 80%)" fill-opacity="0.2"><g transform="rotate(85.2524, -0.5017, -0.3179)"><path d="M -1 0 L 1 0 M 1 0 L 0.4 0.3 M 1 0 L 0.4 -0.3" transform="translate(-0.5017, -0.3179) scale(0.0500)"/></g></g><g stroke-width="0.0500" stroke="rgb(5%, 5%, 5%)" stroke-opacity="1.0" fill="rgb(2%, 73%, 80%)" fill-opacity="0.2"><g transform="rotate(107.4397, -0.5017, -0.3958)"><path d="M -1 0 L 1 0 M 1 0 L 0.4 0.3 M 1 0 L 0.4 -0.3" transform="translate(-0.5017, -0.3958) scale(0.0500)"/></g></g><g stroke-width="0.0500" stroke="rgb(5%, 5%, 5%)" stroke-opacity="1.0" fill="rgb(2%, 73%, 80%)" fill-opacity="0.2"><g transform="rotate(-46.8993, -0.3779, 0.3054)"><path d="M -1 0 L 1 0 M 1 0 L 0.4 0.3 M 1 0 L 0.4 -0.3" transform="translate(-0.3779, 0.3054) scale(0.0500)"/></g></g><g stroke-width="0.0500" stroke="rgb(5%, 5%, 5%)" stroke-opacity="1.0" fill="rgb(2%, 73%, 80%)" fill-opacity="0.2"><g transform="rotate(-45.4122, -0.3779, 0.2274)"><path d="M -1 0 L 1 0 M 1 0 L 0.4 0.3 M 1 0 L 0.4 -0.3" transform="translate(-0.3779, 0.2274) scale(0.0500)"/></g></g><g stroke-width="0.0500" stroke="rgb(5%, 5%, 5%)" stroke-opacity="1.0" fill="rgb(2%, 73%, 80%)" fill-opacity="0.2"><g transform="rotate(-43.2666, -0.3779, 0.1495)"><path d="M -1 0 L 1 0 M 1 0 L 0.4 0.3 M 1 0 L 0.4 -0.3" transform="translate(-0.3779, 0.1495) scale(0.0500)"/></g></g><g stroke-width="0.0500" stroke="rgb(5%, 5%, 5%)" stroke-opacity="1.0" fill="rgb(2%, 73%, 80%)" fill-opacity="0.2"><g transform="rotate(-39.9135, -0.3779, 0.0716)"><path d="M -1 0 L 1 0 M 1 0 L 0.4 0.3 M 1 0 L 0.4 -0.3" transform="translate(-0.3779, 0.0716) scale(0.0500)"/></g></g><g stroke-width="0.0500" stroke="rgb(5%, 5%, 5%)" stroke-opacity="1.0" fill="rgb(2%, 73%, 80%)" fill-opacity="0.2"><g transform="rotate(-33.9991, -0.3779, -0.0063)"><path d="M -1 0 L 1 0 M 1 0 L 0.4 0.3 M 1 0 L 0.4 -0.3" transform="translate(-0.3779, -0.0063) scale(0.0500)"/></g></g><g stroke-width="0.0500" stroke="rgb(5%, 5%, 5%)" stroke-opacity="1.0" fill="rgb(2%, 73%, 80%)" fill-opacity="0.2"><g transform="rotate(-21.3212, -0.3779, -0.0842)"><path d="M -1 0 L 1 0 M 1 0 L 0.4 0.3 M 1 0 L 0.4 -0.3" transform="translate(-0.3779, -0.0842) scale(0.0500)"/></g></g><g stroke-width="0.0500" stroke="rgb(5%, 5%, 5%)" stroke-opacity="1.0" fill="rgb(2%, 73%, 80%)" fill-opacity="0.2"><g transform="rotate(13.3646, -0.3779, -0.1621)"><path d="M -1 0 L 1 0 M 1 0 L 0.4 0.3 M 1 0 L 0.4 -0.3" transform="translate(-0.3779, -0.1621) scale(0.0500)"/></g></g><g stroke-width="0.0500" stroke="rgb(5%, 5%, 5%)" stroke-opacity="1.0" fill="rgb(2%, 73%, 80%)" fill-opacity="0.2"><g transform="rotate(70.2608, -0.3779, -0.2400)"><path d="M -1 0 L 1 0 M 1 0 L 0.4 0.3 M 1 0 L 0.4 -0.3" transform="translate(-0.3779, -0.2400) scale(0.0500)"/></g></g><g stroke-width="0.0500" stroke="rgb(5%, 5%, 5%)" stroke-opacity="1.0" fill="rgb(2%, 73%, 80%)" fill-opacity="0.2"><g transform="rotate(96.0844, -0.3779, -0.3179)"><path d="M -1 0 L 1 0 M 1 0 L 0.4 0.3 M 1 0 L 0.4 -0.3" transform="translate(-0.3779, -0.3179) scale(0.0500)"/></g></g><g stroke-width="0.0500" stroke="rgb(5%, 5%, 5%)" stroke-opacity="1.0" fill="rgb(2%, 73%, 80%)" fill-opacity="0.2"><g transform="rotate(106.0551, -0.3779, -0.3958)"><path d="M -1 0 L 1 0 M 1 0 L 0.4 0.3 M 1 0 L 0.4 -0.3" transform="translate(-0.3779, -0.3958) scale(0.0500)"/></g></g><g stroke-width="0.0500" stroke="rgb(5%, 5%, 5%)" stroke-opacity="1.0" fill="rgb(2%, 73%, 80%)" fill-opacity="0.2"><g transform="rotate(-53.3544, -0.2540, 0.3054)"><path d="M -1 0 L 1 0 M 1 0 L 0.4 0.3 M 1 0 L 0.4 -0.3" transform="translate(-0.2540, 0.3054) scale(0.0500)"/></g></g><g stroke-width="0.0500" stroke="rgb(5%, 5%, 5%)" stroke-opacity="1.0" fill="rgb(2%, 73%, 80%)" fill-opacity="0.2"><g transform="rotate(-51.2345, -0.2540, 0.2274)"><path d="M -1 0 L 1 0 M 1 0 L 0.4 0.3 M 1 0 L 0.4 -0.3" transform="translate(-0.2540, 0.2274) scale(0.0500)"/></g></g><g stroke-width="0.0500" stroke="rgb(5%, 5%, 5%)" stroke-opacity="1.0" fill="rgb(2%, 73%, 80%)" fill-opacity="0.2"><g transform="rotate(-48.0128, -0.2540, 0.1495)"><path d="M -1 0 L 1 0 M 1 0 L 0.4 0.3 M 1 0 L 0.4 -0.3" transform="translate(-0.2540, 0.1495) scale(0.0500)"/></g></g><g stroke-width="0.0500" stroke="rgb(5%, 5%, 5%)" stroke-opacity="1.0" fill="rgb(2%, 73%, 80%)" fill-opacity="0.2"><g transform="rotate(-42.5805, -0.2540, 0.0716)"><path d="M -1 0 L 1 0 M 1 0 L 0.4 0.3 M 1 0 L 0.4 -0.3" transform="translate(-0.2540, 0.0716) scale(0.0500)"/></g></g><g stroke-width="0.0500" stroke="rgb(5%, 5%, 5%)" stroke-opacity="1.0" fill="rgb(2%, 73%, 80%)" fill-opacity="0.2"><g transform="rotate(-31.8274, -0.2540, -0.0063)"><path d="M -1 0 L 1 0 M 1 0 L 0.4 0.3 M 1 0 L 0.4 -0.3" transform="translate(-0.2540, -0.0063) scale(0.0500)"/></g></g><g stroke-width="0.0500" stroke="rgb(5%, 5%, 5%)" stroke-opacity="1.0" fill="rgb(2%, 73%, 80%)" fill-opacity="0.2"><g transform="rotate(-5.4403, -0.2540, -0.0842)"><path d="M -1 0 L 1 0 M 1 0 L 0.4 0.3 M 1 0 L 0.4 -0.3" transform="translate(-0.2540, -0.0842) scale(0.0500)"/></g></g><g stroke-width="0.0500" stroke="rgb(5%, 5%, 5%)" stroke-opacity="1.0" fill="rgb(2%, 73%, 80%)" fill-opacity="0.2"><g transform="rotate(47.1211, -0.2540, -0.1621)"><path d="M -1 0 L 1 0 M 1 0 L 0.4 0.3 M 1 0 L 0.4 -0.3" transform="translate(-0.2540, -0.1621) scale(0.0500)"/></g></g><g stroke-width="0.0500" stroke="rgb(5%, 5%, 5%)" stroke-opacity="1.0" fill="rgb(2%, 73%, 80%)" fill-opacity="0.2"><g transform="rotate(80.5377, -0.2540, -0.2400)"><path d="M -1 0 L 1 0 M 1 0 L 0.4 0.3 M 1 0 L 0.4 -0.3" transform="translate(-0.2540, -0.2400) scale(0.0500)"/></g></g><g stroke-width="0.0500" stroke="rgb(5%, 5%, 5%)" stroke-opacity="1.0" fill="rgb(2%, 73%, 80%)" fill-opacity="0.2"><g transform="rotate(93.7314, -0.2540, -0.3179)"><path d="M -1 0 L 1 0 M 1 0 L 0.4 0.3 M 1 0 L 0.4 -0.3" transform="translate(-0.2540, -0.3179) scale(0.0500)"/></g></g><g stroke-width="0.0500" stroke="rgb(5%, 5%, 5%)" stroke-opacity="1.0" fill="rgb(2%, 73%, 80%)" fill-opacity="0.2"><g transform="rotate(100.0607, -0.2540, -0.3958)"><path d="M -1 0 L 1 0 M 1 0 L 0.4 0.3 M 1 0 L 0.4 -0.3" transform="translate(-0.2540, -0.3958) scale(0.0500)"/></g></g><g stroke-width="0.0500" stroke="rgb(5%, 5%, 5%)" stroke-opacity="1.0" fill="rgb(2%, 73%, 80%)" fill-opacity="0.2"><g transform="rotate(-61.4810, -0.1302, 0.3054)"><path d="M -1 0 L 1 0 M 1 0 L 0.4 0.3 M 1 0 L 0.4 -0.3" transform="translate(-0.1302, 0.3054) scale(0.0500)"/></g></g><g stroke-width="0.0500" stroke="rgb(5%, 5%, 5%)" stroke-opacity="1.0" fill="rgb(2%, 73%, 80%)" fill-opacity="0.2"><g transform="rotate(-58.6701, -0.1302, 0.2274)"><path d="M -1 0 L 1 0 M 1 0 L 0.4 0.3 M 1 0 L 0.4 -0.3" transform="translate(-0.1302, 0.2274) scale(0.0500)"/></g></g><g stroke-width="0.0500" stroke="rgb(5%, 5%, 5%)" stroke-opacity="1.0" fill="rgb(2%, 73%, 80%)" fill-opacity="0.2"><g transform="rotate(-54.1700, -0.1302, 0.1495)"><path d="M -1 0 L 1 0 M 1 0 L 0.4 0.3 M 1 0 L 0.4 -0.3" transform="translate(-0.1302, 0.1495) scale(0.0500)"/></g></g><g stroke-width="0.0500" stroke="rgb(5%, 5%, 5%)" stroke-opacity="1.0" fill="rgb(2%, 73%, 80%)" fill-opacity="0.2"><g transform="rotate(-45.9710, -0.1302, 0.0716)"><path d="M -1 0 L 1 0 M 1 0 L 0.4 0.3 M 1 0 L 0.4 -0.3" transform="translate(-0.1302, 0.0716) scale(0.0500)"/></g></g><g stroke-width="0.0500" stroke="rgb(5%, 5%, 5%)" stroke-opacity="1.0" fill="rgb(2%, 73%, 80%)" fill-opacity="0.2"><g transform="rotate(-27.9309, -0.1302, -0.0063)"><path d="M -1 0 L 1 0 M 1 0 L 0.4 0.3 M 1 0 L 0.4 -0.3" transform="translate(-0.1302, -0.0063) scale(0.0500)"/></g></g><g stroke-width="0.0500" stroke="rgb(5%, 5%, 5%)" stroke-opacity="1.0" fill="rgb(2%, 73%, 80%)" fill-opacity="0.2"><g transform="rotate(14.4459, -0.1302, -0.0842)"><path d="M -1 0 L 1 0 M 1 0 L 0.4 0.3 M 1 0 L 0.4 -0.3" transform="translate(-0.1302, -0.0842) scale(0.0500)"/></g></g><g stroke-width="0.0500" stroke="rgb(5%, 5%, 5%)" stroke-opacity="1.0" fill="rgb(2%, 73%, 80%)" fill-opacity="0.2"><g transform="rotate(58.9537, -0.1302, -0.1621)"><path d="M -1 0 L 1 0 M 1 0 L 0.4 0.3 M 1 0 L 0.4 -0.3" transform="translate(-0.1302, -0.1621) scale(0.0500)"/></g></g><g stroke-width="0.0500" stroke="rgb(5%, 5%, 5%)" stroke-opacity="1.0" fill="rgb(2%, 73%, 80%)" fill-opacity="0.2"><g transform="rotate(78.3877, -0.1302, -0.2400)"><path d="M -1 0 L 1 0 M 1 0 L 0.4 0.3 M 1 0 L 0.4 -0.3" transform="translate(-0.1302, -0.2400) scale(0.0500)"/></g></g><g stroke-width="0.0500" stroke="rgb(5%, 5%, 5%)" stroke-opacity="1.0" fill="rgb(2%, 73%, 80%)" fill-opacity="0.2"><g transform="rotate(87.0722, -0.1302, -0.3179)"><path d="M -1 0 L 1 0 M 1 0 L 0.4 0.3 M 1 0 L 0.4 -0.3" transform="translate(-0.1302, -0.3179) scale(0.0500)"/></g></g><g stroke-width="0.0500" stroke="rgb(5%, 5%, 5%)" stroke-opacity="1.0" fill="rgb(2%, 73%, 80%)" fill-opacity="0.2"><g transform="rotate(91.7753, -0.1302, -0.3958)"><path d="M -1 0 L 1 0 M 1 0 L 0.4 0.3 M 1 0 L 0.4 -0.3" transform="translate(-0.1302, -0.3958) scale(0.0500)"/></g></g><g stroke-width="0.0500" stroke="rgb(5%, 5%, 5%)" stroke-opacity="1.0" fill="rgb(2%, 73%, 80%)" fill-opacity="0.2"><g transform="rotate(-71.6316, -0.0063, 0.3054)"><path d="M -1 0 L 1 0 M 1 0 L 0.4 0.3 M 1 0 L 0.4 -0.3" transform="translate(-0.0063, 0.3054) scale(0.0500)"/></g></g><g stroke-width="0.0500" stroke="rgb(5%, 5%, 5%)" stroke-opacity="1.0" fill="rgb(2%, 73%, 80%)" fill-opacity="0.2"><g transform="rotate(-68.3038, -0.0063, 0.2274)"><path d="M -1 0 L 1 0 M 1 0 L 0.4 0.3 M 1 0 L 0.4 -0.3" transform="translate(-0.0063, 0.2274) scale(0.0500)"/></g></g><g stroke-width="0.0500" stroke="rgb(5%, 5%, 5%)" stroke-opacity="1.0" fill="rgb(2%, 73%, 80%)" fill-opacity="0.2"><g transform="rotate(-62.7134, -0.0063, 0.1495)"><path d="M -1 0 L 1 0 M 1 0 L 0.4 0.3 M 1 0 L 0.4 -0.3" transform="translate(-0.0063, 0.1495) scale(0.0500)"/></g></g><g stroke-width="0.0500" stroke="rgb(5%, 5%, 5%)" stroke-opacity="1.0" fill="rgb(2%, 73%, 80%)" fill-opacity="0.2"><g transform="rotate(-51.7434, -0.0063, 0.0716)"><path d="M -1 0 L 1 0 M 1 0 L 0.4 0.3 M 1 0 L 0.4 -0.3" transform="translate(-0.0063, 0.0716) scale(0.0500)"/></g></g><g stroke-width="0.0500" stroke="rgb(5%, 5%, 5%)" stroke-opacity="1.0" fill="rgb(2%, 73%, 80%)" fill-opacity="0.2"><g transform="rotate(-25.4633, -0.0063, -0.0063)"><path d="M -1 0 L 1 0 M 1 0 L 0.4 0.3 M 1 0 L 0.4 -0.3" transform="translate(-0.0063, -0.0063) scale(0.0500)"/></g></g><g stroke-width="0.0500" stroke="rgb(5%, 5%, 5%)" stroke-opacity="1.0" fill="rgb(2%, 73%, 80%)" fill-opacity="0.2"><g transform="rotate(25.3523, -0.0063, -0.0842)"><path d="M -1 0 L 1 0 M 1 0 L 0.4 0.3 M 1 0 L 0.4 -0.3" transform="translate(-0.0063, -0.0842) scale(0.0500)"/></g></g><g stroke-width="0.0500" stroke="rgb(5%, 5%, 5%)" stroke-opacity="1.0" fill="rgb(2%, 73%, 80%)" fill-opacity="0.2"><g transform="rotate(58.5390, -0.0063, -0.1621)"><path d="M -1 0 L 1 0 M 1 0 L 0.4 0.3 M 1 0 L 0.4 -0.3" transform="translate(-0.0063, -0.1621) scale(0.0500)"/></g></g><g stroke-width="0.0500" stroke="rgb(5%, 5%, 5%)" stroke-opacity="1.0" fill="rgb(2%, 73%, 80%)" fill-opacity="0.2"><g transform="rotate(72.0351, -0.0063, -0.2400)"><path d="M -1 0 L 1 0 M 1 0 L 0.4 0.3 M 1 0 L 0.4 -0.3" transform="translate(-0.0063, -0.2400) scale(0.0500)"/></g></g><g stroke-width="0.0500" stroke="rgb(5%, 5%, 5%)" stroke-opacity="1.0" fill="rgb(2%, 73%, 80%)" fill-opacity="0.2"><g transform="rotate(78.5712, -0.0063, -0.3179)"><path d="M -1 0 L 1 0 M 1 0 L 0.4 0.3 M 1 0 L 0.4 -0.3" transform="translate(-0.0063, -0.3179) scale(0.0500)"/></g></g><g stroke-width="0.0500" stroke="rgb(5%, 5%, 5%)" stroke-opacity="1.0" fill="rgb(2%, 73%, 80%)" fill-opacity="0.2"><g transform="rotate(82.3320, -0.0063, -0.3958)"><path d="M -1 0 L 1 0 M 1 0 L 0.4 0.3 M 1 0 L 0.4 -0.3" transform="translate(-0.0063, -0.3958) scale(0.0500)"/></g></g><g stroke-width="0.0500" stroke="rgb(5%, 5%, 5%)" stroke-opacity="1.0" fill="rgb(2%, 73%, 80%)" fill-opacity="0.2"><g transform="rotate(-83.7258, 0.1175, 0.3054)"><path d="M -1 0 L 1 0 M 1 0 L 0.4 0.3 M 1 0 L 0.4 -0.3" transform="translate(0.1175, 0.3054) scale(0.0500)"/></g></g><g stroke-width="0.0500" stroke="rgb(5%, 5%, 5%)" stroke-opacity="1.0" fill="rgb(2%, 73%, 80%)" fill-opacity="0.2"><g transform="rotate(-80.3796, 0.1175, 0.2274)"><path d="M -1 0 L 1 0 M 1 0 L 0.4 0.3 M 1 0 L 0.4 -0.3" transform="translate(0.1175, 0.2274) scale(0.0500)"/></g></g><g stroke-width="0.0500" stroke="rgb(5%, 5%, 5%)" stroke-opacity="1.0" fill="rgb(2%, 73%, 80%)" fill-opacity="0.2"><g transform="rotate(-74.5578, 0.1175, 0.1495)"><path d="M -1 0 L 1 0 M 1 0 L 0.4 0.3 M 1 0 L 0.4 -0.3" transform="translate(0.1175, 0.1495) scale(0.0500)"/></g></g><g stroke-width="0.0500" stroke="rgb(5%, 5%, 5%)" stroke-opacity="1.0" fill="rgb(2%, 73%, 80%)" fill-opacity="0.2"><g transform="rotate(-62.3926, 0.1175, 0.0716)"><path d="M -1 0 L 1 0 M 1 0 L 0.4 0.3 M 1 0 L 0.4 -0.3" transform="translate(0.1175, 0.0716) scale(0.0500)"/></g></g><g stroke-width="0.0500" stroke="rgb(5%, 5%, 5%)" stroke-opacity="1.0" fill="rgb(2%, 73%, 80%)" fill-opacity="0.2"><g transform="rotate(-30.3259, 0.1175, -0.0063)"><path d="M -1 0 L 1 0 M 1 0 L 0.4 0.3 M 1 0 L 0.4 -0.3" transform="translate(0.1175, -0.0063) scale(0.0500)"/></g></g><g stroke-width="0.0500" stroke="rgb(5%, 5%, 5%)" stroke-opacity="1.0" fill="rgb(2%, 73%, 80%)" fill-opacity="0.2"><g transform="rotate(25.4633, 0.1175, -0.0842)"><path d="M -1 0 L 1 0 M 1 0 L 0.4 0.3 M 1 0 L 0.4 -0.3" transform="translate(0.1175, -0.0842) scale(0.0500)"/></g></g><g stroke-width="0.0500" stroke="rgb(5%, 5%, 5%)" stroke-opacity="1.0" fill="rgb(2%, 73%, 80%)" fill-opacity="0.2"><g transform="rotate(53.3483, 0.1175, -0.1621)"><path d="M -1 0 L 1 0 M 1 0 L 0.4 0.3 M 1 0 L 0.4 -0.3" transform="translate(0.1175, -0.1621) scale(0.0500)"/></g></g><g stroke-width="0.0500" stroke="rgb(5%, 5%, 5%)" stroke-opacity="1.0" fill="rgb(2%, 73%, 80%)" fill-opacity="0.2"><g transform="rotate(64.1805, 0.1175, -0.2400)"><path d="M -1 0 L 1 0 M 1 0 L 0.4 0.3 M 1 0 L 0.4 -0.3" transform="translate(0.1175, -0.2400) scale(0.0500)"/></g></g><g stroke-width="0.0500" stroke="rgb(5%, 5%, 5%)" stroke-opacity="1.0" fill="rgb(2%, 73%, 80%)" fill-opacity="0.2"><g transform="rotate(69.5253, 0.1175, -0.3179)"><path d="M -1 0 L 1 0 M 1 0 L 0.4 0.3 M 1 0 L 0.4 -0.3" transform="translate(0.1175, -0.3179) scale(0.0500)"/></g></g><g stroke-width="0.0500" stroke="rgb(5%, 5%, 5%)" stroke-opacity="1.0" fill="rgb(2%, 73%, 80%)" fill-opacity="0.2"><g transform="rotate(72.6569, 0.1175, -0.3958)"><path d="M -1 0 L 1 0 M 1 0 L 0.4 0.3 M 1 0 L 0.4 -0.3" transform="translate(0.1175, -0.3958) scale(0.0500)"/></g></g><g stroke-width="0.0500" stroke="rgb(5%, 5%, 5%)" stroke-opacity="1.0" fill="rgb(2%, 73%, 80%)" fill-opacity="0.2"><g transform="rotate(-96.8488, 0.2414, 0.3054)"><path d="M -1 0 L 1 0 M 1 0 L 0.4 0.3 M 1 0 L 0.4 -0.3" transform="translate(0.2414, 0.3054) scale(0.0500)"/></g></g><g stroke-width="0.0500" stroke="rgb(5%, 5%, 5%)" stroke-opacity="1.0" fill="rgb(2%, 73%, 80%)" fill-opacity="0.2"><g transform="rotate(-94.1075, 0.2414, 0.2274)"><path d="M -1 0 L 1 0 M 1 0 L 0.4 0.3 M 1 0 L 0.4 -0.3" transform="translate(0.2414, 0.2274) scale(0.0500)"/></g></g><g stroke-width="0.0500" stroke="rgb(5%, 5%, 5%)" stroke-opacity="1.0" fill="rgb(2%, 73%, 80%)" fill-opacity="0.2"><g transform="rotate(-89.3167, 0.2414, 0.1495)"><path d="M -1 0 L 1 0 M 1 0 L 0.4 0.3 M 1 0 L 0.4 -0.3" transform="translate(0.2414, 0.1495) scale(0.0500)"/></g></g><g stroke-width="0.0500" stroke="rgb(5%, 5%, 5%)" stroke-opacity="1.0" fill="rgb(2%, 73%, 80%)" fill-opacity="0.2"><g transform="rotate(-79.0898, 0.2414, 0.0716)"><path d="M -1 0 L 1 0 M 1 0 L 0.4 0.3 M 1 0 L 0.4 -0.3" transform="translate(0.2414, 0.0716) scale(0.0500)"/></g></g><g stroke-width="0.0500" stroke="rgb(5%, 5%, 5%)" stroke-opacity="1.0" fill="rgb(2%, 73%, 80%)" fill-opacity="0.2"><g transform="rotate(-48.8981, 0.2414, -0.0063)"><path d="M -1 0 L 1 0 M 1 0 L 0.4 0.3 M 1 0 L 0.4 -0.3" transform="translate(0.2414, -0.0063) scale(0.0500)"/></g></g><g stroke-width="0.0500" stroke="rgb(5%, 5%, 5%)" stroke-opacity="1.0" fill="rgb(2%, 73%, 80%)" fill-opacity="0.2"><g transform="rotate(16.4311, 0.2414, -0.0842)"><path d="M -1 0 L 1 0 M 1 0 L 0.4 0.3 M 1 0 L 0.4 -0.3" transform="translate(0.2414, -0.0842) scale(0.0500)"/></g></g><g stroke-width="0.0500" stroke="rgb(5%, 5%, 5%)" stroke-opacity="1.0" fill="rgb(2%, 73%, 80%)" fill-opacity="0.2"><g transform="rotate(45.9710, 0.2414, -0.1621)"><path d="M -1 0 L 1 0 M 1 0 L 0.4 0.3 M 1 0 L 0.4 -0.3" transform="translate(0.2414, -0.1621) scale(0.0500)"/></g></g><g stroke-width="0.0500" stroke="rgb(5%, 5%, 5%)" stroke-opacity="1.0" fill="rgb(2%, 73%, 80%)" fill-opacity="0.2"><g transform="rotate(56.0348, 0.2414, -0.2400)"><path d="M -1 0 L 1 0 M 1 0 L 0.4 0.3 M 1 0 L 0.4 -0.3" transform="translate(0.2414, -0.2400) scale(0.0500)"/></g></g><g stroke-width="0.0500" stroke="rgb(5%, 5%, 5%)" stroke-opacity="1.0" fill="rgb(2%, 73%, 80%)" fill-opacity="0.2"><g transform="rotate(60.7712, 0.2414, -0.3179)"><path d="M -1 0 L 1 0 M 1 0 L 0.4 0.3 M 1 0 L 0.4 -0.3" transform="translate(0.2414, -0.3179) scale(0.0500)"/></g></g><g stroke-width="0.0500" stroke="rgb(5%, 5%, 5%)" stroke-opacity="1.0" fill="rgb(2%, 73%, 80%)" fill-opacity="0.2"><g transform="rotate(63.4886, 0.2414, -0.3958)"><path d="M -1 0 L 1 0 M 1 0 L 0.4 0.3 M 1 0 L 0.4 -0.3" transform="translate(0.2414, -0.3958) scale(0.0500)"/></g></g><g stroke-width="0.0500" stroke="rgb(5%, 5%, 5%)" stroke-opacity="1.0" fill="rgb(2%, 73%, 80%)" fill-opacity="0.2"><g transform="rotate(-109.4766, 0.3653, 0.3054)"><path d="M -1 0 L 1 0 M 1 0 L 0.4 0.3 M 1 0 L 0.4 -0.3" transform="translate(0.3653, 0.3054) scale(0.0500)"/></g></g><g stroke-width="0.0500" stroke="rgb(5%, 5%, 5%)" stroke-opacity="1.0" fill="rgb(2%, 73%, 80%)" fill-opacity="0.2"><g transform="rotate(-107.6501, 0.3653, 0.2274)"><path d="M -1 0 L 1 0 M 1 0 L 0.4 0.3 M 1 0 L 0.4 -0.3" transform="translate(0.3653, 0.2274) scale(0.0500)"/></g></g><g stroke-width="0.0500" stroke="rgb(5%, 5%, 5%)" stroke-opacity="1.0" fill="rgb(2%, 73%, 80%)" fill-opacity="0.2"><g transform="rotate(-104.5742, 0.3653, 0.1495)"><path d="M -1 0 L 1 0 M 1 0 L 0.4 0.3 M 1 0 L 0.4 -0.3" transform="translate(0.3653, 0.1495) scale(0.0500)"/></g></g><g stroke-width="0.0500" stroke="rgb(5%, 5%, 5%)" stroke-opacity="1.0" fill="rgb(2%, 73%, 80%)" fill-opacity="0.2"><g transform="rotate(-98.3659, 0.3653, 0.0716)"><path d="M -1 0 L 1 0 M 1 0 L 0.4 0.3 M 1 0 L 0.4 -0.3" transform="translate(0.3653, 0.0716) scale(0.0500)"/></g></g><g stroke-width="0.0500" stroke="rgb(5%, 5%, 5%)" stroke-opacity="1.0" fill="rgb(2%, 73%, 80%)" fill-opacity="0.2"><g transform="rotate(-80.5377, 0.3653, -0.0063)"><path d="M -1 0 L 1 0 M 1 0 L 0.4 0.3 M 1 0 L 0.4 -0.3" transform="translate(0.3653, -0.0063) scale(0.0500)"/></g></g><g stroke-width="0.0500" stroke="rgb(5%, 5%, 5%)" stroke-opacity="1.0" fill="rgb(2%, 73%, 80%)" fill-opacity="0.2"><g transform="rotate(-10.3048, 0.3653, -0.0842)"><path d="M -1 0 L 1 0 M 1 0 L 0.4 0.3 M 1 0 L 0.4 -0.3" transform="translate(0.3653, -0.0842) scale(0.0500)"/></g></g><g stroke-width="0.0500" stroke="rgb(5%, 5%, 5%)" stroke-opacity="1.0" fill="rgb(2%, 73%, 80%)" fill-opacity="0.2"><g transform="rotate(36.3844, 0.3653, -0.1621)"><path d="M -1 0 L 1 0 M 1 0 L 0.4 0.3 M 1 0 L 0.4 -0.3" transform="translate(0.3653, -0.1621) scale(0.0500)"/></g></g><g stroke-width="0.0500" stroke="rgb(5%, 5%, 5%)" stroke-opacity="1.0" fill="rgb(2%, 73%, 80%)" fill-opacity="0.2"><g transform="rotate(48.0128, 0.3653, -0.2400)"><path d="M -1 0 L 1 0 M 1 0 L 0.4 0.3 M 1 0 L 0.4 -0.3" transform="translate(0.3653, -0.2400) scale(0.0500)"/></g></g><g stroke-width="0.0500" stroke="rgb(5%, 5%, 5%)" stroke-opacity="1.0" fill="rgb(2%, 73%, 80%)" fill-opacity="0.2"><g transform="rotate(52.7336, 0.3653, -0.3179)"><path d="M -1 0 L 1 0 M 1 0 L 0.4 0.3 M 1 0 L 0.4 -0.3" transform="translate(0.3653, -0.3179) scale(0.0500)"/></g></g><g stroke-width="0.0500" stroke="rgb(5%, 5%, 5%)" stroke-opacity="1.0" fill="rgb(2%, 73%, 80%)" fill-opacity="0.2"><g transform="rotate(55.2568, 0.3653, -0.3958)"><path d="M -1 0 L 1 0 M 1 0 L 0.4 0.3 M 1 0 L 0.4 -0.3" transform="translate(0.3653, -0.3958) scale(0.0500)"/></g></g><g stroke-width="0.0500" stroke="rgb(5%, 5%, 5%)" stroke-opacity="1.0" fill="rgb(2%, 73%, 80%)" fill-opacity="0.2"><g transform="rotate(-120.3900, 0.4891, 0.3054)"><path d="M -1 0 L 1 0 M 1 0 L 0.4 0.3 M 1 0 L 0.4 -0.3" transform="translate(0.4891, 0.3054) scale(0.0500)"/></g></g><g stroke-width="0.0500" stroke="rgb(5%, 5%, 5%)" stroke-opacity="1.0" fill="rgb(2%, 73%, 80%)" fill-opacity="0.2"><g transform="rotate(-119.3549, 0.4891, 0.2274)"><path d="M -1 0 L 1 0 M 1 0 L 0.4 0.3 M 1 0 L 0.4 -0.3" transform="translate(0.4891, 0.2274) scale(0.0500)"/></g></g><g stroke-width="0.0500" stroke="rgb(5%, 5%, 5%)" stroke-opacity="1.0" fill="rgb(2%, 73%, 80%)" fill-opacity="0.2"><g transform="rotate(-117.7221, 0.4891, 0.1495)"><path d="M -1 0 L 1 0 M 1 0 L 0.4 0.3 M 1 0 L 0.4 -0.3" transform="translate(0.4891, 0.1495) scale(0.0500)"/></g></g><g stroke-width="0.0500" stroke="rgb(5%, 5%, 5%)" stroke-opacity="1.0" fill="rgb(2%, 73%, 80%)" fill-opacity="0.2"><g transform="rotate(-114.7718, 0.4891, 0.0716)"><path d="M -1 0 L 1 0 M 1 0 L 0.4 0.3 M 1 0 L 0.4 -0.3" transform="translate(0.4891, 0.0716) scale(0.0500)"/></g></g><g stroke-width="0.0500" stroke="rgb(5%, 5%, 5%)" stroke-opacity="1.0" fill="rgb(2%, 73%, 80%)" fill-opacity="0.2"><g transform="rotate(-107.9102, 0.4891, -0.0063)"><path d="M -1 0 L 1 0 M 1 0 L 0.4 0.3 M 1 0 L 0.4 -0.3" transform="translate(0.4891, -0.0063) scale(0.0500)"/></g></g><g stroke-width="0.0500" stroke="rgb(5%, 5%, 5%)" stroke-opacity="1.0" fill="rgb(2%, 73%, 80%)" fill-opacity="0.2"><g transform="rotate(-78.8802, 0.4891, -0.0842)"><path d="M -1 0 L 1 0 M 1 0 L 0.4 0.3 M 1 0 L 0.4 -0.3" transform="translate(0.4891, -0.0842) scale(0.0500)"/></g></g><g stroke-width="0.0500" stroke="rgb(5%, 5%, 5%)" stroke-opacity="1.0" fill="rgb(2%, 73%, 80%)" fill-opacity="0.2"><g transform="rotate(18.0772, 0.4891, -0.1621)"><path d="M -1 0 L 1 0 M 1 0 L 0.4 0.3 M 1 0 L 0.4 -0.3" transform="translate(0.4891, -0.1621) scale(0.0500)"/></g></g><g stroke-width="0.0500" stroke="rgb(5%, 5%, 5%)" stroke-opacity="1.0" fill="rgb(2%, 73%, 80%)" fill-opacity="0.2"><g transform="rotate(39.5765, 0.4891, -0.2400)"><path d="M -1 0 L 1 0 M 1 0 L 0.4 0.3 M 1 0 L 0.4 -0.3" transform="translate(0.4891, -0.2400) scale(0.0500)"/></g></g><g stroke-width="0.0500" stroke="rgb(5%, 5%, 5%)" stroke-opacity="1.0" fill="rgb(2%, 73%, 80%)" fill-opacity="0.2"><g transform="rotate(45.4122, 0.4891, -0.3179)"><path d="M -1 0 L 1 0 M 1 0 L 0.4 0.3 M 1 0 L 0.4 -0.3" transform="translate(0.4891, -0.3179) scale(0.0500)"/></g></g><g stroke-width="0.0500" stroke="rgb(5%, 5%, 5%)" stroke-opacity="1.0" fill="rgb(2%, 73%, 80%)" fill-opacity="0.2"><g transform="rotate(48.0612, 0.4891, -0.3958)"><path d="M -1 0 L 1 0 M 1 0 L 0.4 0.3 M 1 0 L 0.4 -0.3" transform="translate(0.4891, -0.3958) scale(0.0500)"/></g></g><g stroke-width="0.0500" stroke="rgb(5%, 5%, 5%)" stroke-opacity="1.0" fill="rgb(2%, 73%, 80%)" fill-opacity="0.2"><g transform="rotate(-129.2044, 0.6130, 0.3054)"><path d="M -1 0 L 1 0 M 1 0 L 0.4 0.3 M 1 0 L 0.4 -0.3" transform="translate(0.6130, 0.3054) scale(0.0500)"/></g></g><g stroke-width="0.0500" stroke="rgb(5%, 5%, 5%)" stroke-opacity="1.0" fill="rgb(2%, 73%, 80%)" fill-opacity="0.2"><g transform="rotate(-128.6756, 0.6130, 0.2274)"><path d="M -1 0 L 1 0 M 1 0 L 0.4 0.3 M 1 0 L 0.4 -0.3" transform="translate(0.6130, 0.2274) scale(0.0500)"/></g></g><g stroke-width="0.0500" stroke="rgb(5%, 5%, 5%)" stroke-opacity="1.0" fill="rgb(2%, 73%, 80%)" fill-opacity="0.2"><g transform="rotate(-127.8991, 0.6130, 0.1495)"><path d="M -1 0 L 1 0 M 1 0 L 0.4 0.3 M 1 0 L 0.4 -0.3" transform="translate(0.6130, 0.1495) scale(0.0500)"/></g></g><g stroke-width="0.0500" stroke="rgb(5%, 5%, 5%)" stroke-opacity="1.0" fill="rgb(2%, 73%, 80%)" fill-opacity="0.2"><g transform="rotate(-126.6482, 0.6130, 0.0716)"><path d="M -1 0 L 1 0 M 1 0 L 0.4 0.3 M 1 0 L 0.4 -0.3" transform="translate(0.6130, 0.0716) scale(0.0500)"/></g></g><g stroke-width="0.0500" stroke="rgb(5%, 5%, 5%)" stroke-opacity="1.0" fill="rgb(2%, 73%, 80%)" fill-opacity="0.2"><g transform="rotate(-124.3010, 0.6130, -0.0063)"><path d="M -1 0 L 1 0 M 1 0 L 0.4 0.3 M 1 0 L 0.4 -0.3" transform="translate(0.6130, -0.0063) scale(0.0500)"/></g></g><g stroke-width="0.0500" stroke="rgb(5%, 5%, 5%)" stroke-opacity="1.0" fill="rgb(2%, 73%, 80%)" fill-opacity="0.2"><g transform="rotate(-118.3399, 0.6130, -0.0842)"><path d="M -1 0 L 1 0 M 1 0 L 0.4 0.3 M 1 0 L 0.4 -0.3" transform="translate(0.6130, -0.0842) scale(0.0500)"/></g></g><g stroke-width="0.0500" stroke="rgb(5%, 5%, 5%)" stroke-opacity="1.0" fill="rgb(2%, 73%, 80%)" fill-opacity="0.2"><g transform="rotate(-81.6027, 0.6130, -0.1621)"><path d="M -1 0 L 1 0 M 1 0 L 0.4 0.3 M 1 0 L 0.4 -0.3" transform="translate(0.6130, -0.1621) scale(0.0500)"/></g></g><g stroke-width="0.0500" stroke="rgb(5%, 5%, 5%)" stroke-opacity="1.0" fill="rgb(2%, 73%, 80%)" fill-opacity="0.2"><g transform="rotate(25.9167, 0.6130, -0.2400)"><path d="M -1 0 L 1 0 M 1 0 L 0.4 0.3 M 1 0 L 0.4 -0.3" transform="translate(0.6130, -0.2400) scale(0.0500)"/></g></g><g stroke-width="0.0500" stroke="rgb(5%, 5%, 5%)" stroke-opacity="1.0" fill="rgb(2%, 73%, 80%)" fill-opacity="0.2"><g transform="rotate(38.1539, 0.6130, -0.3179)"><path d="M -1 0 L 1 0 M 1 0 L 0.4 0.3 M 1 0 L 0.4 -0.3" transform="translate(0.6130, -0.3179) scale(0.0500)"/></g></g><g stroke-width="0.0500" stroke="rgb(5%, 5%, 5%)" stroke-opacity="1.0" fill="rgb(2%, 73%, 80%)" fill-opacity="0.2"><g transform="rotate(41.7039, 0.6130, -0.3958)"><path d="M -1 0 L 1 0 M 1 0 L 0.4 0.3 M 1 0 L 0.4 -0.3" transform="translate(0.6130, -0.3958) scale(0.0500)"/></g></g></g></g><g class="hud"><g class="frame"><g stroke-width="0" stroke="rgb(0%, 0%, 0%)" stroke-opacity="0" fill="rgb(100%, 100%, 100%)" fill-opacity="0.02"><rect width="1.2649" height="0.8429" x="-0.5768" y="-0.4667"/></g></g><g class="axis"><g class="ticks"><g class="tickglyph"><g stroke-width="0.0040" stroke="rgb(5%, 5%, 5%)" stroke-opacity="0.4" fill="rgb(5%, 5%, 5%)" fill-opacity="0.4"><g transform="rotate(-90.0, -0.6033, 0.3443)"><polyline points="-0.6033,0.3593
-0.6033,0.3293"/></g><g transform="rotate(-90.0, -0.6033, 0.2664)"><polyline points="-0.6033,0.2814
-0.6033,0.2514"/></g><g transform="rotate(-90.0, -0.6033, 0.1885)"><polyline points="-0.6033,0.2035
-0.6033,0.1735"/></g><g transform="rotate(-90.0, -0.6033, 0.1106)"><polyline points="-0.6033,0.1256
-0.6033,0.0956"/></g><g transform="rotate(-90.0, -0.6033, 0.0327)"><polyline points="-0.6033,0.0477
-0.6033,0.0177"/></g><g transform="rotate(-90.0, -0.6033, -0.0452)"><polyline points="-0.6033,-0.0302
-0.6033,-0.0602"/></g><g transform="rotate(-90.0, -0.6033, -0.1231)"><polyline points="-0.6033,-0.1081
-0.6033,-0.1381"/></g><g transform="rotate(-90.0, -0.6033, -0.2011)"><polyline points="-0.6033,-0.1861
-0.6033,-0.2161"/></g><g transform="rotate(-90.0, -0.6033, -0.2790)"><polyline points="-0.6033,-0.2640
-0.6033,-0.2940"/></g><g transform="rotate(-90.0, -0.6033, -0.3569)"><polyline points="-0.6033,-0.3419
-0.6033,-0.3719"/></g><g transform="rotate(-90.0, -0.6033, -0.4348)"><polyline points="-0.6033,-0.4198
-0.6033,-0.4498"/></g></g></g><g class="ticktext"><g stroke-width="0.0" stroke="none" fill="rgb(5%, 5%, 5%)" fill-opacity="1.0" font-size="0.0442" text-anchor="end"><text x="-0.6351" y="0.3558">-0.5</text><text x="-0.6351" y="0.2779">-0.4</text><text x="-0.6351" y="0.2000">-0.3</text><text x="-0.6351" y="0.1220">-0.2</text><text x="-0.6351" y="0.0441">-0.1</text><text x="-0.6351" y="-0.0338"> 0.0</text><text x="-0.6351" y="-0.1117"> 0.1</text><text x="-0.6351" y="-0.1896"> 0.2</text><text x="-0.6351" y="-0.2675"> 0.3</text><text x="-0.6351" y="-0.3454"> 0.4</text><text x="-0.6351" y="-0.4233"> 0.5</text></g></g></g><g class="axisbar"><g stroke-width="0" stroke="rgb(0%, 0%, 0%)" stroke-opacity="0" fill="rgb(5%, 5%, 5%)" fill-opacity="0.4"><rect width="0.0035" height="0.7824" x="-0.5892" y="-0.4364"/></g></g></g><g class="axis"><g class="ticks"><g class="tickglyph"><g stroke-width="0.0040" stroke="rgb(5%, 5%, 5%)" stroke-opacity="0.4" fill="rgb(5%, 5%, 5%)" fill-opacity="0.4"><polyline points="-0.5637,0.4162
-0.5637,0.3862"/><polyline points="-0.4398,0.4162
-0.4398,0.3862"/><polyline points="-0.3160,0.4162
-0.3160,0.3862"/><polyline points="-0.1921,0.4162
-0.1921,0.3862"/><polyline points="-0.0682,0.4162
-0.0682,0.3862"/><polyline points="0.0556,0.4162
0.0556,0.3862"/><polyline points="0.1795,0.4162
0.1795,0.3862"/><polyline points="0.3033,0.4162
0.3033,0.3862"/><polyline points="0.4272,0.4162
0.4272,0.3862"/><polyline points="0.5510,0.4162
0.5510,0.3862"/><polyline points="0.6749,0.4162
0.6749,0.3862"/></g></g><g class="ticktext"><g stroke-width="0.0" stroke="none" fill="rgb(5%, 5%, 5%)" fill-opacity="1.0" font-size="0.0442" text-anchor="middle"><text x="-0.5637" y="0.4542">-0.5</text><text x="-0.4398" y="0.4542">-0.4</text><text x="-0.3160" y="0.4542">-0.3</text><text x="-0.1921" y="0.4542">-0.2</text><text x="-0.0682" y="0.4542">-0.1</text><text x="0.0556" y="0.4542"> 0.0</text><text x="0.1795" y="0.4542"> 0.1</text><text x="0.3033" y="0.4542"> 0.2</text><text x="0.4272" y="0.4542"> 0.3</text><text x="0.5510" y="0.4542"> 0.4</text><text x="0.6749" y="0.4542"> 0.5</text></g></g></g><g class="axisbar"><g stroke-width="0" stroke="rgb(0%, 0%, 0%)" stroke-opacity="0" fill="rgb(5%, 5%, 5%)" fill-opacity="0.4"><rect width="1.2421" height="0.0033" x="-0.5654" y="0.3845"/></g></g></g><g class="frame"><g stroke-width="0" stroke="rgb(0%, 0%, 0%)" stroke-opacity="0" fill="rgb(100%, 100%, 100%)" fill-opacity="0.02"><rect width="1.5" height="1.0" x="-0.75" y="-0.5"/></g></g></g></svg>