<svg height="300.0" viewBox="-0.7331572863520408 -0.49594877991132563 1.4750353555484697 0.9937030847582644" width="445.31471568510756" xmlns="http://www.w3.org/2000/svg" xmlns:xlink="http://www.w3.org/1999/xlink"><style>svg {
  color-scheme: light dark;
}
{
  .canvas g, .title g, .axisbar g, .ticktext g, .tickglyph g, .ticklines g, .legendContent g text {
    fill: rgba(5%, 5%, 5%, 1.00);
  }
  .ticklines g, .tickglyph g, .legendBorder g {
    stroke: rgba(5%, 5%, 5%, 1.00);
  }
  .legendBorder g {
    fill: rgba(94%, 94%, 94%, 1.00);
  }
}
@media (prefers-color-scheme:dark) {
  .canvas g, .title g, .axisbar g, .ticktext g, .tickglyph g, .ticklines g, .legendContent g text {
    fill: rgba(94%, 94%, 94%, 1.00);
  }
  .ticklines g, .tickglyph g, .legendBorder g {
    stroke: rgba(94%, 94%, 94%, 1.00);
  }
  .legendBorder g {
    fill: rgba(5%, 5%, 5%, 1.00);
  }
}
{
  .arrow g {
    fill: rgba(5%, 5%, 5%, 1.00);
    stroke: rgba(5%, 5%, 5%, 1.00);
  }
}
@media (prefers-color-scheme:dark) {
  .arrow g {
    fill: rgba(94%, 94%, 94%, 1.00);
    stroke: rgba(94%, 94%, 94%, 1.00);
  }
}
</style><g class="chart"><g class="arrow"><g fill="rgba(2%, 73%, 80%, 0.20)" stroke="rgba(5%, 5%, 5%, 1.00)" stroke-width="5.0e-2"><g transform="rotate(-41.70388402745369, -0.5176095344387754, 0.3591509584664536)"><path d="M -1 0 L 1 0 M 1 0 L 0.4 0.3 M 1 0 L 0.4 -0.3" transform="translate(-0.5176095344387754, 0.3591509584664536) scale(5.0e-2)"/></g></g><g fill="rgba(2%, 73%, 80%, 0.20)" stroke="rgba(5%, 5%, 5%, 1.00)" stroke-width="5.0e-2"><g transform="rotate(-40.703991576050946, -0.5176095344387754, 0.2714512779552716)"><path d="M -1 0 L 1 0 M 1 0 L 0.4 0.3 M 1 0 L 0.4 -0.3" transform="translate(-0.5176095344387754, 0.2714512779552716) scale(5.0e-2)"/></g></g><g fill="rgba(2%, 73%, 80%, 0.20)" stroke="rgba(5%, 5%, 5%, 1.00)" stroke-width="5.0e-2"><g transform="rotate(-39.33034350353967, -0.5176095344387754, 0.18375159744408942)"><path d="M -1 0 L 1 0 M 1 0 L 0.4 0.3 M 1 0 L 0.4 -0.3" transform="translate(-0.5176095344387754, 0.18375159744408942) scale(5.0e-2)"/></g></g><g fill="rgba(2%, 73%, 80%, 0.20)" stroke="rgba(5%, 5%, 5%, 1.00)" stroke-width="5.0e-2"><g transform="rotate(-37.32821468040517, -0.5176095344387754, 9.605191693290727e-2)"><path d="M -1 0 L 1 0 M 1 0 L 0.4 0.3 M 1 0 L 0.4 -0.3" transform="translate(-0.5176095344387754, 9.605191693290727e-2) scale(5.0e-2)"/></g></g><g fill="rgba(2%, 73%, 80%, 0.20)" stroke="rgba(5%, 5%, 5%, 1.00)" stroke-width="5.0e-2"><g transform="rotate(-34.14934249468909, -0.5176095344387754, 8.352236421725168e-3)"><path d="M -1 0 L 1 0 M 1 0 L 0.4 0.3 M 1 0 L 0.4 -0.3" transform="translate(-0.5176095344387754, 8.352236421725168e-3) scale(5.0e-2)"/></g></g><g fill="rgba(2%, 73%, 80%, 0.20)" stroke="rgba(5%, 5%, 5%, 1.00)" stroke-width="5.0e-2"><g transform="rotate(-28.38240378414633, -0.5176095344387754, -7.934744408945693e-2)"><path d="M -1 0 L 1 0 M 1 0 L 0.4 0.3 M 1 0 L 0.4 -0.3" transform="translate(-0.5176095344387754, -7.934744408945693e-2) scale(5.0e-2)"/></g></g><g fill="rgba(2%, 73%, 80%, 0.20)" stroke="rgba(5%, 5%, 5%, 1.00)" stroke-width="5.0e-2"><g transform="rotate(-15.274030281041826, -0.5176095344387754, -0.1670471246006392)"><path d="M -1 0 L 1 0 M 1 0 L 0.4 0.3 M 1 0 L 0.4 -0.3" transform="translate(-0.5176095344387754, -0.1670471246006392) scale(5.0e-2)"/></g></g><g fill="rgba(2%, 73%, 80%, 0.20)" stroke="rgba(5%, 5%, 5%, 1.00)" stroke-width="5.0e-2"><g transform="rotate(24.917115262331563, -0.5176095344387754, -0.25474680511182124)"><path d="M -1 0 L 1 0 M 1 0 L 0.4 0.3 M 1 0 L 0.4 -0.3" transform="translate(-0.5176095344387754, -0.25474680511182124) scale(5.0e-2)"/></g></g><g fill="rgba(2%, 73%, 80%, 0.20)" stroke="rgba(5%, 5%, 5%, 1.00)" stroke-width="5.0e-2"><g transform="rotate(85.25243231067934, -0.5176095344387754, -0.3424464856230034)"><path d="M -1 0 L 1 0 M 1 0 L 0.4 0.3 M 1 0 L 0.4 -0.3" transform="translate(-0.5176095344387754, -0.3424464856230034) scale(5.0e-2)"/></g></g><g fill="rgba(2%, 73%, 80%, 0.20)" stroke="rgba(5%, 5%, 5%, 1.00)" stroke-width="5.0e-2"><g transform="rotate(107.43966356457298, -0.5176095344387754, -0.4301461661341852)"><path d="M -1 0 L 1 0 M 1 0 L 0.4 0.3 M 1 0 L 0.4 -0.3" transform="translate(-0.5176095344387754, -0.4301461661341852) scale(5.0e-2)"/></g></g><g fill="rgba(2%, 73%, 80%, 0.20)" stroke="rgba(5%, 5%, 5%, 1.00)" stroke-width="5.0e-2"><g transform="rotate(-46.89925433618114, -0.39006648596938764, 0.3591509584664536)"><path d="M -1 0 L 1 0 M 1 0 L 0.4 0.3 M 1 0 L 0.4 -0.3" transform="translate(-0.39006648596938764, 0.3591509584664536) scale(5.0e-2)"/></g></g><g fill="rgba(2%, 73%, 80%, 0.20)" stroke="rgba(5%, 5%, 5%, 1.00)" stroke-width="5.0e-2"><g transform="rotate(-45.41219274140232, -0.39006648596938764, 0.2714512779552716)"><path d="M -1 0 L 1 0 M 1 0 L 0.4 0.3 M 1 0 L 0.4 -0.3" transform="translate(-0.39006648596938764, 0.2714512779552716) scale(5.0e-2)"/></g></g><g fill="rgba(2%, 73%, 80%, 0.20)" stroke="rgba(5%, 5%, 5%, 1.00)" stroke-width="5.0e-2"><g transform="rotate(-43.26655332833368, -0.39006648596938764, 0.18375159744408942)"><path d="M -1 0 L 1 0 M 1 0 L 0.4 0.3 M 1 0 L 0.4 -0.3" transform="translate(-0.39006648596938764, 0.18375159744408942) scale(5.0e-2)"/></g></g><g fill="rgba(2%, 73%, 80%, 0.20)" stroke="rgba(5%, 5%, 5%, 1.00)" stroke-width="5.0e-2"><g transform="rotate(-39.913529548149384, -0.39006648596938764, 9.605191693290727e-2)"><path d="M -1 0 L 1 0 M 1 0 L 0.4 0.3 M 1 0 L 0.4 -0.3" transform="translate(-0.39006648596938764, 9.605191693290727e-2) scale(5.0e-2)"/></g></g><g fill="rgba(2%, 73%, 80%, 0.20)" stroke="rgba(5%, 5%, 5%, 1.00)" stroke-width="5.0e-2"><g transform="rotate(-33.99914492987854, -0.39006648596938764, 8.352236421725168e-3)"><path d="M -1 0 L 1 0 M 1 0 L 0.4 0.3 M 1 0 L 0.4 -0.3" transform="translate(-0.39006648596938764, 8.352236421725168e-3) scale(5.0e-2)"/></g></g><g fill="rgba(2%, 73%, 80%, 0.20)" stroke="rgba(5%, 5%, 5%, 1.00)" stroke-width="5.0e-2"><g transform="rotate(-21.321176713227626, -0.39006648596938764, -7.934744408945693e-2)"><path d="M -1 0 L 1 0 M 1 0 L 0.4 0.3 M 1 0 L 0.4 -0.3" transform="translate(-0.39006648596938764, -7.934744408945693e-2) scale(5.0e-2)"/></g></g><g fill="rgba(2%, 73%, 80%, 0.20)" stroke="rgba(5%, 5%, 5%, 1.00)" stroke-width="5.0e-2"><g transform="rotate(13.364611169993305, -0.39006648596938764, -0.1670471246006392)"><path d="M -1 0 L 1 0 M 1 0 L 0.4 0.3 M 1 0 L 0.4 -0.3" transform="translate(-0.39006648596938764, -0.1670471246006392) scale(5.0e-2)"/></g></g><g fill="rgba(2%, 73%, 80%, 0.20)" stroke="rgba(5%, 5%, 5%, 1.00)" stroke-width="5.0e-2"><g transform="rotate(70.26081916410517, -0.39006648596938764, -0.25474680511182124)"><path d="M -1 0 L 1 0 M 1 0 L 0.4 0.3 M 1 0 L 0.4 -0.3" transform="translate(-0.39006648596938764, -0.25474680511182124) scale(5.0e-2)"/></g></g><g fill="rgba(2%, 73%, 80%, 0.20)" stroke="rgba(5%, 5%, 5%, 1.00)" stroke-width="5.0e-2"><g transform="rotate(96.08437785000453, -0.39006648596938764, -0.3424464856230034)"><path d="M -1 0 L 1 0 M 1 0 L 0.4 0.3 M 1 0 L 0.4 -0.3" transform="translate(-0.39006648596938764, -0.3424464856230034) scale(5.0e-2)"/></g></g><g fill="rgba(2%, 73%, 80%, 0.20)" stroke="rgba(5%, 5%, 5%, 1.00)" stroke-width="5.0e-2"><g transform="rotate(106.05509143504601, -0.39006648596938764, -0.4301461661341852)"><path d="M -1 0 L 1 0 M 1 0 L 0.4 0.3 M 1 0 L 0.4 -0.3" transform="translate(-0.39006648596938764, -0.4301461661341852) scale(5.0e-2)"/></g></g><g fill="rgba(2%, 73%, 80%, 0.20)" stroke="rgba(5%, 5%, 5%, 1.00)" stroke-width="5.0e-2"><g transform="rotate(-53.3543508353797, -0.26252343749999985, 0.3591509584664536)"><path d="M -1 0 L 1 0 M 1 0 L 0.4 0.3 M 1 0 L 0.4 -0.3" transform="translate(-0.26252343749999985, 0.3591509584664536) scale(5.0e-2)"/></g></g><g fill="rgba(2%, 73%, 80%, 0.20)" stroke="rgba(5%, 5%, 5%, 1.00)" stroke-width="5.0e-2"><g transform="rotate(-51.23448009554123, -0.26252343749999985, 0.2714512779552716)"><path d="M -1 0 L 1 0 M 1 0 L 0.4 0.3 M 1 0 L 0.4 -0.3" transform="translate(-0.26252343749999985, 0.2714512779552716) scale(5.0e-2)"/></g></g><g fill="rgba(2%, 73%, 80%, 0.20)" stroke="rgba(5%, 5%, 5%, 1.00)" stroke-width="5.0e-2"><g transform="rotate(-48.012787504183336, -0.26252343749999985, 0.18375159744408942)"><path d="M -1 0 L 1 0 M 1 0 L 0.4 0.3 M 1 0 L 0.4 -0.3" transform="translate(-0.26252343749999985, 0.18375159744408942) scale(5.0e-2)"/></g></g><g fill="rgba(2%, 73%, 80%, 0.20)" stroke="rgba(5%, 5%, 5%, 1.00)" stroke-width="5.0e-2"><g transform="rotate(-42.58049078334366, -0.26252343749999985, 9.605191693290727e-2)"><path d="M -1 0 L 1 0 M 1 0 L 0.4 0.3 M 1 0 L 0.4 -0.3" transform="translate(-0.26252343749999985, 9.605191693290727e-2) scale(5.0e-2)"/></g></g><g fill="rgba(2%, 73%, 80%, 0.20)" stroke="rgba(5%, 5%, 5%, 1.00)" stroke-width="5.0e-2"><g transform="rotate(-31.827446576673104, -0.26252343749999985, 8.352236421725168e-3)"><path d="M -1 0 L 1 0 M 1 0 L 0.4 0.3 M 1 0 L 0.4 -0.3" transform="translate(-0.26252343749999985, 8.352236421725168e-3) scale(5.0e-2)"/></g></g><g fill="rgba(2%, 73%, 80%, 0.20)" stroke="rgba(5%, 5%, 5%, 1.00)" stroke-width="5.0e-2"><g transform="rotate(-5.440332031005506, -0.26252343749999985, -7.934744408945693e-2)"><path d="M -1 0 L 1 0 M 1 0 L 0.4 0.3 M 1 0 L 0.4 -0.3" transform="translate(-0.26252343749999985, -7.934744408945693e-2) scale(5.0e-2)"/></g></g><g fill="rgba(2%, 73%, 80%, 0.20)" stroke="rgba(5%, 5%, 5%, 1.00)" stroke-width="5.0e-2"><g transform="rotate(47.1210963966615, -0.26252343749999985, -0.1670471246006392)"><path d="M -1 0 L 1 0 M 1 0 L 0.4 0.3 M 1 0 L 0.4 -0.3" transform="translate(-0.26252343749999985, -0.1670471246006392) scale(5.0e-2)"/></g></g><g fill="rgba(2%, 73%, 80%, 0.20)" stroke="rgba(5%, 5%, 5%, 1.00)" stroke-width="5.0e-2"><g transform="rotate(80.53767779197439, -0.26252343749999985, -0.25474680511182124)"><path d="M -1 0 L 1 0 M 1 0 L 0.4 0.3 M 1 0 L 0.4 -0.3" transform="translate(-0.26252343749999985, -0.25474680511182124) scale(5.0e-2)"/></g></g><g fill="rgba(2%, 73%, 80%, 0.20)" stroke="rgba(5%, 5%, 5%, 1.00)" stroke-width="5.0e-2"><g transform="rotate(93.73139699916044, -0.26252343749999985, -0.3424464856230034)"><path d="M -1 0 L 1 0 M 1 0 L 0.4 0.3 M 1 0 L 0.4 -0.3" transform="translate(-0.26252343749999985, -0.3424464856230034) scale(5.0e-2)"/></g></g><g fill="rgba(2%, 73%, 80%, 0.20)" stroke="rgba(5%, 5%, 5%, 1.00)" stroke-width="5.0e-2"><g transform="rotate(100.06068979532297, -0.26252343749999985, -0.4301461661341852)"><path d="M -1 0 L 1 0 M 1 0 L 0.4 0.3 M 1 0 L 0.4 -0.3" transform="translate(-0.26252343749999985, -0.4301461661341852) scale(5.0e-2)"/></g></g><g fill="rgba(2%, 73%, 80%, 0.20)" stroke="rgba(5%, 5%, 5%, 1.00)" stroke-width="5.0e-2"><g transform="rotate(-61.48095159956936, -0.13498038903061205, 0.3591509584664536)"><path d="M -1 0 L 1 0 M 1 0 L 0.4 0.3 M 1 0 L 0.4 -0.3" transform="translate(-0.13498038903061205, 0.3591509584664536) scale(5.0e-2)"/></g></g><g fill="rgba(2%, 73%, 80%, 0.20)" stroke="rgba(5%, 5%, 5%, 1.00)" stroke-width="5.0e-2"><g transform="rotate(-58.67008724249424, -0.13498038903061205, 0.2714512779552716)"><path d="M -1 0 L 1 0 M 1 0 L 0.4 0.3 M 1 0 L 0.4 -0.3" transform="translate(-0.13498038903061205, 0.2714512779552716) scale(5.0e-2)"/></g></g><g fill="rgba(2%, 73%, 80%, 0.20)" stroke="rgba(5%, 5%, 5%, 1.00)" stroke-width="5.0e-2"><g transform="rotate(-54.17002461487118, -0.13498038903061205, 0.18375159744408942)"><path d="M -1 0 L 1 0 M 1 0 L 0.4 0.3 M 1 0 L 0.4 -0.3" transform="translate(-0.13498038903061205, 0.18375159744408942) scale(5.0e-2)"/></g></g><g fill="rgba(2%, 73%, 80%, 0.20)" stroke="rgba(5%, 5%, 5%, 1.00)" stroke-width="5.0e-2"><g transform="rotate(-45.97102193107917, -0.13498038903061205, 9.605191693290727e-2)"><path d="M -1 0 L 1 0 M 1 0 L 0.4 0.3 M 1 0 L 0.4 -0.3" transform="translate(-0.13498038903061205, 9.605191693290727e-2) scale(5.0e-2)"/></g></g><g fill="rgba(2%, 73%, 80%, 0.20)" stroke="rgba(5%, 5%, 5%, 1.00)" stroke-width="5.0e-2"><g transform="rotate(-27.930948956080037, -0.13498038903061205, 8.352236421725168e-3)"><path d="M -1 0 L 1 0 M 1 0 L 0.4 0.3 M 1 0 L 0.4 -0.3" transform="translate(-0.13498038903061205, 8.352236421725168e-3) scale(5.0e-2)"/></g></g><g fill="rgba(2%, 73%, 80%, 0.20)" stroke="rgba(5%, 5%, 5%, 1.00)" stroke-width="5.0e-2"><g transform="rotate(14.445942279113961, -0.13498038903061205, -7.934744408945693e-2)"><path d="M -1 0 L 1 0 M 1 0 L 0.4 0.3 M 1 0 L 0.4 -0.3" transform="translate(-0.13498038903061205, -7.934744408945693e-2) scale(5.0e-2)"/></g></g><g fill="rgba(2%, 73%, 80%, 0.20)" stroke="rgba(5%, 5%, 5%, 1.00)" stroke-width="5.0e-2"><g transform="rotate(58.95370855020484, -0.13498038903061205, -0.1670471246006392)"><path d="M -1 0 L 1 0 M 1 0 L 0.4 0.3 M 1 0 L 0.4 -0.3" transform="translate(-0.13498038903061205, -0.1670471246006392) scale(5.0e-2)"/></g></g><g fill="rgba(2%, 73%, 80%, 0.20)" stroke="rgba(5%, 5%, 5%, 1.00)" stroke-width="5.0e-2"><g transform="rotate(78.38768602098031, -0.13498038903061205, -0.25474680511182124)"><path d="M -1 0 L 1 0 M 1 0 L 0.4 0.3 M 1 0 L 0.4 -0.3" transform="translate(-0.13498038903061205, -0.25474680511182124) scale(5.0e-2)"/></g></g><g fill="rgba(2%, 73%, 80%, 0.20)" stroke="rgba(5%, 5%, 5%, 1.00)" stroke-width="5.0e-2"><g transform="rotate(87.0721562906961, -0.13498038903061205, -0.3424464856230034)"><path d="M -1 0 L 1 0 M 1 0 L 0.4 0.3 M 1 0 L 0.4 -0.3" transform="translate(-0.13498038903061205, -0.3424464856230034) scale(5.0e-2)"/></g></g><g fill="rgba(2%, 73%, 80%, 0.20)" stroke="rgba(5%, 5%, 5%, 1.00)" stroke-width="5.0e-2"><g transform="rotate(91.775265785145, -0.13498038903061205, -0.4301461661341852)"><path d="M -1 0 L 1 0 M 1 0 L 0.4 0.3 M 1 0 L 0.4 -0.3" transform="translate(-0.13498038903061205, -0.4301461661341852) scale(5.0e-2)"/></g></g><g fill="rgba(2%, 73%, 80%, 0.20)" stroke="rgba(5%, 5%, 5%, 1.00)" stroke-width="5.0e-2"><g transform="rotate(-71.63155263230772, -7.437340561224359e-3, 0.3591509584664536)"><path d="M -1 0 L 1 0 M 1 0 L 0.4 0.3 M 1 0 L 0.4 -0.3" transform="translate(-7.437340561224359e-3, 0.3591509584664536) scale(5.0e-2)"/></g></g><g fill="rgba(2%, 73%, 80%, 0.20)" stroke="rgba(5%, 5%, 5%, 1.00)" stroke-width="5.0e-2"><g transform="rotate(-68.30375886013567, -7.437340561224359e-3, 0.2714512779552716)"><path d="M -1 0 L 1 0 M 1 0 L 0.4 0.3 M 1 0 L 0.4 -0.3" transform="translate(-7.437340561224359e-3, 0.2714512779552716) scale(5.0e-2)"/></g></g><g fill="rgba(2%, 73%, 80%, 0.20)" stroke="rgba(5%, 5%, 5%, 1.00)" stroke-width="5.0e-2"><g transform="rotate(-62.713434447769245, -7.437340561224359e-3, 0.18375159744408942)"><path d="M -1 0 L 1 0 M 1 0 L 0.4 0.3 M 1 0 L 0.4 -0.3" transform="translate(-7.437340561224359e-3, 0.18375159744408942) scale(5.0e-2)"/></g></g><g fill="rgba(2%, 73%, 80%, 0.20)" stroke="rgba(5%, 5%, 5%, 1.00)" stroke-width="5.0e-2"><g transform="rotate(-51.74335201662478, -7.437340561224359e-3, 9.605191693290727e-2)"><path d="M -1 0 L 1 0 M 1 0 L 0.4 0.3 M 1 0 L 0.4 -0.3" transform="translate(-7.437340561224359e-3, 9.605191693290727e-2) scale(5.0e-2)"/></g></g><g fill="rgba(2%, 73%, 80%, 0.20)" stroke="rgba(5%, 5%, 5%, 1.00)" stroke-width="5.0e-2"><g transform="rotate(-25.463345061871607, -7.437340561224359e-3, 8.352236421725168e-3)"><path d="M -1 0 L 1 0 M 1 0 L 0.4 0.3 M 1 0 L 0.4 -0.3" transform="translate(-7.437340561224359e-3, 8.352236421725168e-3) scale(5.0e-2)"/></g></g><g fill="rgba(2%, 73%, 80%, 0.20)" stroke="rgba(5%, 5%, 5%, 1.00)" stroke-width="5.0e-2"><g transform="rotate(25.352317626939044, -7.437340561224359e-3, -7.934744408945693e-2)"><path d="M -1 0 L 1 0 M 1 0 L 0.4 0.3 M 1 0 L 0.4 -0.3" transform="translate(-7.437340561224359e-3, -7.934744408945693e-2) scale(5.0e-2)"/></g></g><g fill="rgba(2%, 73%, 80%, 0.20)" stroke="rgba(5%, 5%, 5%, 1.00)" stroke-width="5.0e-2"><g transform="rotate(58.539020075643705, -7.437340561224359e-3, -0.1670471246006392)"><path d="M -1 0 L 1 0 M 1 0 L 0.4 0.3 M 1 0 L 0.4 -0.3" transform="translate(-7.437340561224359e-3, -0.1670471246006392) scale(5.0e-2)"/></g></g><g fill="rgba(2%, 73%, 80%, 0.20)" stroke="rgba(5%, 5%, 5%, 1.00)" stroke-width="5.0e-2"><g transform="rotate(72.03510627877053, -7.437340561224359e-3, -0.25474680511182124)"><path d="M -1 0 L 1 0 M 1 0 L 0.4 0.3 M 1 0 L 0.4 -0.3" transform="translate(-7.437340561224359e-3, -0.25474680511182124) scale(5.0e-2)"/></g></g><g fill="rgba(2%, 73%, 80%, 0.20)" stroke="rgba(5%, 5%, 5%, 1.00)" stroke-width="5.0e-2"><g transform="rotate(78.57121322367863, -7.437340561224359e-3, -0.3424464856230034)"><path d="M -1 0 L 1 0 M 1 0 L 0.4 0.3 M 1 0 L 0.4 -0.3" transform="translate(-7.437340561224359e-3, -0.3424464856230034) scale(5.0e-2)"/></g></g><g fill="rgba(2%, 73%, 80%, 0.20)" stroke="rgba(5%, 5%, 5%, 1.00)" stroke-width="5.0e-2"><g transform="rotate(82.33198654554482, -7.437340561224359e-3, -0.4301461661341852)"><path d="M -1 0 L 1 0 M 1 0 L 0.4 0.3 M 1 0 L 0.4 -0.3" transform="translate(-7.437340561224359e-3, -0.4301461661341852) scale(5.0e-2)"/></g></g><g fill="rgba(2%, 73%, 80%, 0.20)" stroke="rgba(5%, 5%, 5%, 1.00)" stroke-width="5.0e-2"><g transform="rotate(-83.72582919707884, 0.12010570790816333, 0.3591509584664536)"><path d="M -1 0 L 1 0 M 1 0 L 0.4 0.3 M 1 0 L 0.4 -0.3" transform="translate(0.12010570790816333, 0.3591509584664536) scale(5.0e-2)"/></g></g><g fill="rgba(2%, 73%, 80%, 0.20)" stroke="rgba(5%, 5%, 5%, 1.00)" stroke-width="5.0e-2"><g transform="rotate(-80.37960270065743, 0.12010570790816333, 0.2714512779552716)"><path d="M -1 0 L 1 0 M 1 0 L 0.4 0.3 M 1 0 L 0.4 -0.3" transform="translate(0.12010570790816333, 0.2714512779552716) scale(5.0e-2)"/></g></g><g fill="rgba(2%, 73%, 80%, 0.20)" stroke="rgba(5%, 5%, 5%, 1.00)" stroke-width="5.0e-2"><g transform="rotate(-74.55784459620769, 0.12010570790816333, 0.18375159744408942)"><path d="M -1 0 L 1 0 M 1 0 L 0.4 0.3 M 1 0 L 0.4 -0.3" transform="translate(0.12010570790816333, 0.18375159744408942) scale(5.0e-2)"/></g></g><g fill="rgba(2%, 73%, 80%, 0.20)" stroke="rgba(5%, 5%, 5%, 1.00)" stroke-width="5.0e-2"><g transform="rotate(-62.392645475723924, 0.12010570790816333, 9.605191693290727e-2)"><path d="M -1 0 L 1 0 M 1 0 L 0.4 0.3 M 1 0 L 0.4 -0.3" transform="translate(0.12010570790816333, 9.605191693290727e-2) scale(5.0e-2)"/></g></g><g fill="rgba(2%, 73%, 80%, 0.20)" stroke="rgba(5%, 5%, 5%, 1.00)" stroke-width="5.0e-2"><g transform="rotate(-30.325850500388558, 0.12010570790816333, 8.352236421725168e-3)"><path d="M -1 0 L 1 0 M 1 0 L 0.4 0.3 M 1 0 L 0.4 -0.3" transform="translate(0.12010570790816333, 8.352236421725168e-3) scale(5.0e-2)"/></g></g><g fill="rgba(2%, 73%, 80%, 0.20)" stroke="rgba(5%, 5%, 5%, 1.00)" stroke-width="5.0e-2"><g transform="rotate(25.463345061871614, 0.12010570790816333, -7.934744408945693e-2)"><path d="M -1 0 L 1 0 M 1 0 L 0.4 0.3 M 1 0 L 0.4 -0.3" transform="translate(0.12010570790816333, -7.934744408945693e-2) scale(5.0e-2)"/></g></g><g fill="rgba(2%, 73%, 80%, 0.20)" stroke="rgba(5%, 5%, 5%, 1.00)" stroke-width="5.0e-2"><g transform="rotate(53.34825221466397, 0.12010570790816333, -0.1670471246006392)"><path d="M -1 0 L 1 0 M 1 0 L 0.4 0.3 M 1 0 L 0.4 -0.3" transform="translate(0.12010570790816333, -0.1670471246006392) scale(5.0e-2)"/></g></g><g fill="rgba(2%, 73%, 80%, 0.20)" stroke="rgba(5%, 5%, 5%, 1.00)" stroke-width="5.0e-2"><g transform="rotate(64.18052078566551, 0.12010570790816333, -0.25474680511182124)"><path d="M -1 0 L 1 0 M 1 0 L 0.4 0.3 M 1 0 L 0.4 -0.3" transform="translate(0.12010570790816333, -0.25474680511182124) scale(5.0e-2)"/></g></g><g fill="rgba(2%, 73%, 80%, 0.20)" stroke="rgba(5%, 5%, 5%, 1.00)" stroke-width="5.0e-2"><g transform="rotate(69.52530867630297, 0.12010570790816333, -0.3424464856230034)"><path d="M -1 0 L 1 0 M 1 0 L 0.4 0.3 M 1 0 L 0.4 -0.3" transform="translate(0.12010570790816333, -0.3424464856230034) scale(5.0e-2)"/></g></g><g fill="rgba(2%, 73%, 80%, 0.20)" stroke="rgba(5%, 5%, 5%, 1.00)" stroke-width="5.0e-2"><g transform="rotate(72.65691141186667, 0.12010570790816333, -0.4301461661341852)"><path d="M -1 0 L 1 0 M 1 0 L 0.4 0.3 M 1 0 L 0.4 -0.3" transform="translate(0.12010570790816333, -0.4301461661341852) scale(5.0e-2)"/></g></g><g fill="rgba(2%, 73%, 80%, 0.20)" stroke="rgba(5%, 5%, 5%, 1.00)" stroke-width="5.0e-2"><g transform="rotate(-96.84875031477206, 0.24764875637755146, 0.3591509584664536)"><path d="M -1 0 L 1 0 M 1 0 L 0.4 0.3 M 1 0 L 0.4 -0.3" transform="translate(0.24764875637755146, 0.3591509584664536) scale(5.0e-2)"/></g></g><g fill="rgba(2%, 73%, 80%, 0.20)" stroke="rgba(5%, 5%, 5%, 1.00)" stroke-width="5.0e-2"><g transform="rotate(-94.10747809603637, 0.24764875637755146, 0.2714512779552716)"><path d="M -1 0 L 1 0 M 1 0 L 0.4 0.3 M 1 0 L 0.4 -0.3" transform="translate(0.24764875637755146, 0.2714512779552716) scale(5.0e-2)"/></g></g><g fill="rgba(2%, 73%, 80%, 0.20)" stroke="rgba(5%, 5%, 5%, 1.00)" stroke-width="5.0e-2"><g transform="rotate(-89.31668823842175, 0.24764875637755146, 0.18375159744408942)"><path d="M -1 0 L 1 0 M 1 0 L 0.4 0.3 M 1 0 L 0.4 -0.3" transform="translate(0.24764875637755146, 0.18375159744408942) scale(5.0e-2)"/></g></g><g fill="rgba(2%, 73%, 80%, 0.20)" stroke="rgba(5%, 5%, 5%, 1.00)" stroke-width="5.0e-2"><g transform="rotate(-79.0898362236076, 0.24764875637755146, 9.605191693290727e-2)"><path d="M -1 0 L 1 0 M 1 0 L 0.4 0.3 M 1 0 L 0.4 -0.3" transform="translate(0.24764875637755146, 9.605191693290727e-2) scale(5.0e-2)"/></g></g><g fill="rgba(2%, 73%, 80%, 0.20)" stroke="rgba(5%, 5%, 5%, 1.00)" stroke-width="5.0e-2"><g transform="rotate(-48.89810671661513, 0.24764875637755146, 8.352236421725168e-3)"><path d="M -1 0 L 1 0 M 1 0 L 0.4 0.3 M 1 0 L 0.4 -0.3" transform="translate(0.24764875637755146, 8.352236421725168e-3) scale(5.0e-2)"/></g></g><g fill="rgba(2%, 73%, 80%, 0.20)" stroke="rgba(5%, 5%, 5%, 1.00)" stroke-width="5.0e-2"><g transform="rotate(16.431113233075703, 0.24764875637755146, -7.934744408945693e-2)"><path d="M -1 0 L 1 0 M 1 0 L 0.4 0.3 M 1 0 L 0.4 -0.3" transform="translate(0.24764875637755146, -7.934744408945693e-2) scale(5.0e-2)"/></g></g><g fill="rgba(2%, 73%, 80%, 0.20)" stroke="rgba(5%, 5%, 5%, 1.00)" stroke-width="5.0e-2"><g transform="rotate(45.97102193107918, 0.24764875637755146, -0.1670471246006392)"><path d="M -1 0 L 1 0 M 1 0 L 0.4 0.3 M 1 0 L 0.4 -0.3" transform="translate(0.24764875637755146, -0.1670471246006392) scale(5.0e-2)"/></g></g><g fill="rgba(2%, 73%, 80%, 0.20)" stroke="rgba(5%, 5%, 5%, 1.00)" stroke-width="5.0e-2"><g transform="rotate(56.03475263569897, 0.24764875637755146, -0.25474680511182124)"><path d="M -1 0 L 1 0 M 1 0 L 0.4 0.3 M 1 0 L 0.4 -0.3" transform="translate(0.24764875637755146, -0.25474680511182124) scale(5.0e-2)"/></g></g><g fill="rgba(2%, 73%, 80%, 0.20)" stroke="rgba(5%, 5%, 5%, 1.00)" stroke-width="5.0e-2"><g transform="rotate(60.77115498628979, 0.24764875637755146, -0.3424464856230034)"><path d="M -1 0 L 1 0 M 1 0 L 0.4 0.3 M 1 0 L 0.4 -0.3" transform="translate(0.24764875637755146, -0.3424464856230034) scale(5.0e-2)"/></g></g><g fill="rgba(2%, 73%, 80%, 0.20)" stroke="rgba(5%, 5%, 5%, 1.00)" stroke-width="5.0e-2"><g transform="rotate(63.48858398583044, 0.24764875637755146, -0.4301461661341852)"><path d="M -1 0 L 1 0 M 1 0 L 0.4 0.3 M 1 0 L 0.4 -0.3" transform="translate(0.24764875637755146, -0.4301461661341852) scale(5.0e-2)"/></g></g><g fill="rgba(2%, 73%, 80%, 0.20)" stroke="rgba(5%, 5%, 5%, 1.00)" stroke-width="5.0e-2"><g transform="rotate(-109.476575498932, 0.3751918048469389, 0.3591509584664536)"><path d="M -1 0 L 1 0 M 1 0 L 0.4 0.3 M 1 0 L 0.4 -0.3" transform="translate(0.3751918048469389, 0.3591509584664536) scale(5.0e-2)"/></g></g><g fill="rgba(2%, 73%, 80%, 0.20)" stroke="rgba(5%, 5%, 5%, 1.00)" stroke-width="5.0e-2"><g transform="rotate(-107.65012421993012, 0.3751918048469389, 0.2714512779552716)"><path d="M -1 0 L 1 0 M 1 0 L 0.4 0.3 M 1 0 L 0.4 -0.3" transform="translate(0.3751918048469389, 0.2714512779552716) scale(5.0e-2)"/></g></g><g fill="rgba(2%, 73%, 80%, 0.20)" stroke="rgba(5%, 5%, 5%, 1.00)" stroke-width="5.0e-2"><g transform="rotate(-104.57421619803874, 0.3751918048469389, 0.18375159744408942)"><path d="M -1 0 L 1 0 M 1 0 L 0.4 0.3 M 1 0 L 0.4 -0.3" transform="translate(0.3751918048469389, 0.18375159744408942) scale(5.0e-2)"/></g></g><g fill="rgba(2%, 73%, 80%, 0.20)" stroke="rgba(5%, 5%, 5%, 1.00)" stroke-width="5.0e-2"><g transform="rotate(-98.3658861240326, 0.3751918048469389, 9.605191693290727e-2)"><path d="M -1 0 L 1 0 M 1 0 L 0.4 0.3 M 1 0 L 0.4 -0.3" transform="translate(0.3751918048469389, 9.605191693290727e-2) scale(5.0e-2)"/></g></g><g fill="rgba(2%, 73%, 80%, 0.20)" stroke="rgba(5%, 5%, 5%, 1.00)" stroke-width="5.0e-2"><g transform="rotate(-80.5376777919744, 0.3751918048469389, 8.352236421725168e-3)"><path d="M -1 0 L 1 0 M 1 0 L 0.4 0.3 M 1 0 L 0.4 -0.3" transform="translate(0.3751918048469389, 8.352236421725168e-3) scale(5.0e-2)"/></g></g><g fill="rgba(2%, 73%, 80%, 0.20)" stroke="rgba(5%, 5%, 5%, 1.00)" stroke-width="5.0e-2"><g transform="rotate(-10.304846468766057, 0.3751918048469389, -7.934744408945693e-2)"><path d="M -1 0 L 1 0 M 1 0 L 0.4 0.3 M 1 0 L 0.4 -0.3" transform="translate(0.3751918048469389, -7.934744408945693e-2) scale(5.0e-2)"/></g></g><g fill="rgba(2%, 73%, 80%, 0.20)" stroke="rgba(5%, 5%, 5%, 1.00)" stroke-width="5.0e-2"><g transform="rotate(36.3843518158359, 0.3751918048469389, -0.1670471246006392)"><path d="M -1 0 L 1 0 M 1 0 L 0.4 0.3 M 1 0 L 0.4 -0.3" transform="translate(0.3751918048469389, -0.1670471246006392) scale(5.0e-2)"/></g></g><g fill="rgba(2%, 73%, 80%, 0.20)" stroke="rgba(5%, 5%, 5%, 1.00)" stroke-width="5.0e-2"><g transform="rotate(48.012787504183336, 0.3751918048469389, -0.25474680511182124)"><path d="M -1 0 L 1 0 M 1 0 L 0.4 0.3 M 1 0 L 0.4 -0.3" transform="translate(0.3751918048469389, -0.25474680511182124) scale(5.0e-2)"/></g></g><g fill="rgba(2%, 73%, 80%, 0.20)" stroke="rgba(5%, 5%, 5%, 1.00)" stroke-width="5.0e-2"><g transform="rotate(52.73359809902285, 0.3751918048469389, -0.3424464856230034)"><path d="M -1 0 L 1 0 M 1 0 L 0.4 0.3 M 1 0 L 0.4 -0.3" transform="translate(0.3751918048469389, -0.3424464856230034) scale(5.0e-2)"/></g></g><g fill="rgba(2%, 73%, 80%, 0.20)" stroke="rgba(5%, 5%, 5%, 1.00)" stroke-width="5.0e-2"><g transform="rotate(55.2568198416964, 0.3751918048469389, -0.4301461661341852)"><path d="M -1 0 L 1 0 M 1 0 L 0.4 0.3 M 1 0 L 0.4 -0.3" transform="translate(0.3751918048469389, -0.4301461661341852) scale(5.0e-2)"/></g></g><g fill="rgba(2%, 73%, 80%, 0.20)" stroke="rgba(5%, 5%, 5%, 1.00)" stroke-width="5.0e-2"><g transform="rotate(-120.39004059367852, 0.5027348533163267, 0.3591509584664536)"><path d="M -1 0 L 1 0 M 1 0 L 0.4 0.3 M 1 0 L 0.4 -0.3" transform="translate(0.5027348533163267, 0.3591509584664536) scale(5.0e-2)"/></g></g><g fill="rgba(2%, 73%, 80%, 0.20)" stroke="rgba(5%, 5%, 5%, 1.00)" stroke-width="5.0e-2"><g transform="rotate(-119.3548748641938, 0.5027348533163267, 0.2714512779552716)"><path d="M -1 0 L 1 0 M 1 0 L 0.4 0.3 M 1 0 L 0.4 -0.3" transform="translate(0.5027348533163267, 0.2714512779552716) scale(5.0e-2)"/></g></g><g fill="rgba(2%, 73%, 80%, 0.20)" stroke="rgba(5%, 5%, 5%, 1.00)" stroke-width="5.0e-2"><g transform="rotate(-117.72207677286721, 0.5027348533163267, 0.18375159744408942)"><path d="M -1 0 L 1 0 M 1 0 L 0.4 0.3 M 1 0 L 0.4 -0.3" transform="translate(0.5027348533163267, 0.18375159744408942) scale(5.0e-2)"/></g></g><g fill="rgba(2%, 73%, 80%, 0.20)" stroke="rgba(5%, 5%, 5%, 1.00)" stroke-width="5.0e-2"><g transform="rotate(-114.77180709318333, 0.5027348533163267, 9.605191693290727e-2)"><path d="M -1 0 L 1 0 M 1 0 L 0.4 0.3 M 1 0 L 0.4 -0.3" transform="translate(0.5027348533163267, 9.605191693290727e-2) scale(5.0e-2)"/></g></g><g fill="rgba(2%, 73%, 80%, 0.20)" stroke="rgba(5%, 5%, 5%, 1.00)" stroke-width="5.0e-2"><g transform="rotate(-107.91023110297346, 0.5027348533163267, 8.352236421725168e-3)"><path d="M -1 0 L 1 0 M 1 0 L 0.4 0.3 M 1 0 L 0.4 -0.3" transform="translate(0.5027348533163267, 8.352236421725168e-3) scale(5.0e-2)"/></g></g><g fill="rgba(2%, 73%, 80%, 0.20)" stroke="rgba(5%, 5%, 5%, 1.00)" stroke-width="5.0e-2"><g transform="rotate(-78.88016563239884, 0.5027348533163267, -7.934744408945693e-2)"><path d="M -1 0 L 1 0 M 1 0 L 0.4 0.3 M 1 0 L 0.4 -0.3" transform="translate(0.5027348533163267, -7.934744408945693e-2) scale(5.0e-2)"/></g></g><g fill="rgba(2%, 73%, 80%, 0.20)" stroke="rgba(5%, 5%, 5%, 1.00)" stroke-width="5.0e-2"><g transform="rotate(18.07717429682483, 0.5027348533163267, -0.1670471246006392)"><path d="M -1 0 L 1 0 M 1 0 L 0.4 0.3 M 1 0 L 0.4 -0.3" transform="translate(0.5027348533163267, -0.1670471246006392) scale(5.0e-2)"/></g></g><g fill="rgba(2%, 73%, 80%, 0.20)" stroke="rgba(5%, 5%, 5%, 1.00)" stroke-width="5.0e-2"><g transform="rotate(39.57646251047537, 0.5027348533163267, -0.25474680511182124)"><path d="M -1 0 L 1 0 M 1 0 L 0.4 0.3 M 1 0 L 0.4 -0.3" transform="translate(0.5027348533163267, -0.25474680511182124) scale(5.0e-2)"/></g></g><g fill="rgba(2%, 73%, 80%, 0.20)" stroke="rgba(5%, 5%, 5%, 1.00)" stroke-width="5.0e-2"><g transform="rotate(45.412192741402315, 0.5027348533163267, -0.3424464856230034)"><path d="M -1 0 L 1 0 M 1 0 L 0.4 0.3 M 1 0 L 0.4 -0.3" transform="translate(0.5027348533163267, -0.3424464856230034) scale(5.0e-2)"/></g></g><g fill="rgba(2%, 73%, 80%, 0.20)" stroke="rgba(5%, 5%, 5%, 1.00)" stroke-width="5.0e-2"><g transform="rotate(48.061152646549644, 0.5027348533163267, -0.4301461661341852)"><path d="M -1 0 L 1 0 M 1 0 L 0.4 0.3 M 1 0 L 0.4 -0.3" transform="translate(0.5027348533163267, -0.4301461661341852) scale(5.0e-2)"/></g></g><g fill="rgba(2%, 73%, 80%, 0.20)" stroke="rgba(5%, 5%, 5%, 1.00)" stroke-width="5.0e-2"><g transform="rotate(-129.20442853819998, 0.6302779017857143, 0.3591509584664536)"><path d="M -1 0 L 1 0 M 1 0 L 0.4 0.3 M 1 0 L 0.4 -0.3" transform="translate(0.6302779017857143, 0.3591509584664536) scale(5.0e-2)"/></g></g><g fill="rgba(2%, 73%, 80%, 0.20)" stroke="rgba(5%, 5%, 5%, 1.00)" stroke-width="5.0e-2"><g transform="rotate(-128.6756131139764, 0.6302779017857143, 0.2714512779552716)"><path d="M -1 0 L 1 0 M 1 0 L 0.4 0.3 M 1 0 L 0.4 -0.3" transform="translate(0.6302779017857143, 0.2714512779552716) scale(5.0e-2)"/></g></g><g fill="rgba(2%, 73%, 80%, 0.20)" stroke="rgba(5%, 5%, 5%, 1.00)" stroke-width="5.0e-2"><g transform="rotate(-127.8990823601365, 0.6302779017857143, 0.18375159744408942)"><path d="M -1 0 L 1 0 M 1 0 L 0.4 0.3 M 1 0 L 0.4 -0.3" transform="translate(0.6302779017857143, 0.18375159744408942) scale(5.0e-2)"/></g></g><g fill="rgba(2%, 73%, 80%, 0.20)" stroke="rgba(5%, 5%, 5%, 1.00)" stroke-width="5.0e-2"><g transform="rotate(-126.64820118726841, 0.6302779017857143, 9.605191693290727e-2)"><path d="M -1 0 L 1 0 M 1 0 L 0.4 0.3 M 1 0 L 0.4 -0.3" transform="translate(0.6302779017857143, 9.605191693290727e-2) scale(5.0e-2)"/></g></g><g fill="rgba(2%, 73%, 80%, 0.20)" stroke="rgba(5%, 5%, 5%, 1.00)" stroke-width="5.0e-2"><g transform="rotate(-124.30095672615316, 0.6302779017857143, 8.352236421725168e-3)"><path d="M -1 0 L 1 0 M 1 0 L 0.4 0.3 M 1 0 L 0.4 -0.3" transform="translate(0.6302779017857143, 8.352236421725168e-3) scale(5.0e-2)"/></g></g><g fill="rgba(2%, 73%, 80%, 0.20)" stroke="rgba(5%, 5%, 5%, 1.00)" stroke-width="5.0e-2"><g transform="rotate(-118.3399495893263, 0.6302779017857143, -7.934744408945693e-2)"><path d="M -1 0 L 1 0 M 1 0 L 0.4 0.3 M 1 0 L 0.4 -0.3" transform="translate(0.6302779017857143, -7.934744408945693e-2) scale(5.0e-2)"/></g></g><g fill="rgba(2%, 73%, 80%, 0.20)" stroke="rgba(5%, 5%, 5%, 1.00)" stroke-width="5.0e-2"><g transform="rotate(-81.6026974133102, 0.6302779017857143, -0.1670471246006392)"><path d="M -1 0 L 1 0 M 1 0 L 0.4 0.3 M 1 0 L 0.4 -0.3" transform="translate(0.6302779017857143, -0.1670471246006392) scale(5.0e-2)"/></g></g><g fill="rgba(2%, 73%, 80%, 0.20)" stroke="rgba(5%, 5%, 5%, 1.00)" stroke-width="5.0e-2"><g transform="rotate(25.916669828467207, 0.6302779017857143, -0.25474680511182124)"><path d="M -1 0 L 1 0 M 1 0 L 0.4 0.3 M 1 0 L 0.4 -0.3" transform="translate(0.6302779017857143, -0.25474680511182124) scale(5.0e-2)"/></g></g><g fill="rgba(2%, 73%, 80%, 0.20)" stroke="rgba(5%, 5%, 5%, 1.00)" stroke-width="5.0e-2"><g transform="rotate(38.15385704023621, 0.6302779017857143, -0.3424464856230034)"><path d="M -1 0 L 1 0 M 1 0 L 0.4 0.3 M 1 0 L 0.4 -0.3" transform="translate(0.6302779017857143, -0.3424464856230034) scale(5.0e-2)"/></g></g><g fill="rgba(2%, 73%, 80%, 0.20)" stroke="rgba(5%, 5%, 5%, 1.00)" stroke-width="5.0e-2"><g transform="rotate(41.70388402745369, 0.6302779017857143, -0.4301461661341852)"><path d="M -1 0 L 1 0 M 1 0 L 0.4 0.3 M 1 0 L 0.4 -0.3" transform="translate(0.6302779017857143, -0.4301461661341852) scale(5.0e-2)"/></g></g></g></g><g class="hud"><g class="frame"><g fill="rgba(100%, 100%, 100%, 0.02)" stroke="rgba(0%, 0%, 0%, 0.00)" stroke-width="0.0"><rect height="0.8769968051118211" width="1.2754304846938778" x="-0.5813810586734693" y="-0.47399600638977646"/></g></g><g class="axis"><g class="ticks"><g class="tickglyph"><g fill="rgba(5%, 5%, 5%, 0.40)" stroke="rgba(5%, 5%, 5%, 0.40)" stroke-width="4.0e-3"><g transform="rotate(-90.0, -0.6068896683673468, 0.4030007987220447)"><polyline points="-0.6068896683673468,0.4180007987220447
-0.6068896683673468,0.3880007987220447"/></g><g transform="rotate(-90.0, -0.6068896683673468, 0.3153011182108626)"><polyline points="-0.6068896683673468,0.3303011182108626
-0.6068896683673468,0.3003011182108626"/></g><g transform="rotate(-90.0, -0.6068896683673468, 0.22760143769968044)"><polyline points="-0.6068896683673468,0.24260143769968046
-0.6068896683673468,0.21260143769968043"/></g><g transform="rotate(-90.0, -0.6068896683673468, 0.1399017571884983)"><polyline points="-0.6068896683673468,0.1549017571884983
-0.6068896683673468,0.12490175718849829"/></g><g transform="rotate(-90.0, -0.6068896683673468, 5.220207667731619e-2)"><polyline points="-0.6068896683673468,6.720207667731619e-2
-0.6068896683673468,3.720207667731619e-2"/></g><g transform="rotate(-90.0, -0.6068896683673468, -3.549760383386591e-2)"><polyline points="-0.6068896683673468,-2.049760383386591e-2
-0.6068896683673468,-5.049760383386591e-2"/></g><g transform="rotate(-90.0, -0.6068896683673468, -0.12319728434504806)"><polyline points="-0.6068896683673468,-0.10819728434504806
-0.6068896683673468,-0.13819728434504808"/></g><g transform="rotate(-90.0, -0.6068896683673468, -0.21089696485623022)"><polyline points="-0.6068896683673468,-0.1958969648562302
-0.6068896683673468,-0.22589696485623023"/></g><g transform="rotate(-90.0, -0.6068896683673468, -0.29859664536741226)"><polyline points="-0.6068896683673468,-0.28359664536741225
-0.6068896683673468,-0.3135966453674123"/></g><g transform="rotate(-90.0, -0.6068896683673468, -0.3862963258785943)"><polyline points="-0.6068896683673468,-0.3712963258785943
-0.6068896683673468,-0.4012963258785943"/></g><g transform="rotate(-90.0, -0.6068896683673468, -0.47399600638977646)"><polyline points="-0.6068896683673468,-0.45899600638977645
-0.6068896683673468,-0.48899600638977647"/></g></g></g><g class="ticktext"><g fill="rgba(5%, 5%, 5%, 1.00)" font-size="4.251434948979592e-2" stroke="none" stroke-width="0.0" text-anchor="end"><text x="-0.6375" y="0.4150595047923323">-0.50</text><text x="-0.6375" y="0.3273598242811501">-0.40</text><text x="-0.6375" y="0.23966014376996794">-0.30</text><text x="-0.6375" y="0.15196046325878587">-0.20</text><text x="-0.6375" y="6.426078274760372e-2">-0.10</text><text x="-0.6375" y="-2.3438897763578326e-2"> 0.00</text><text x="-0.6375" y="-0.11113857827476048"> 0.10</text><text x="-0.6375" y="-0.19883825878594263"> 0.20</text><text x="-0.6375" y="-0.2865379392971247"> 0.30</text><text x="-0.6375" y="-0.37423761980830683"> 0.40</text><text x="-0.6375" y="-0.4619373003194889"> 0.50</text></g></g></g><g class="axisbar"><g fill="rgba(5%, 5%, 5%, 0.40)" stroke="rgba(0%, 0%, 0%, 0.00)" stroke-width="0.0"><rect height="0.8805047923322683" width="3.40114795918367e-3" x="-0.5932850765306121" y="-0.47575"/></g></g></g><g class="axis"><g class="ticks"><g class="tickglyph"><g fill="rgba(5%, 5%, 5%, 0.40)" stroke="rgba(5%, 5%, 5%, 0.40)" stroke-width="4.0e-3"><polyline points="-0.5813810586734693,0.44431070287539937
-0.5813810586734693,0.41431070287539934"/><polyline points="-0.4538380102040816,0.44431070287539937
-0.4538380102040816,0.41431070287539934"/><polyline points="-0.32629496173469374,0.44431070287539937
-0.32629496173469374,0.41431070287539934"/><polyline points="-0.198751913265306,0.44431070287539937
-0.198751913265306,0.41431070287539934"/><polyline points="-7.120886479591826e-2,0.44431070287539937
-7.120886479591826e-2,0.41431070287539934"/><polyline points="5.633418367346954e-2,0.44431070287539937
5.633418367346954e-2,0.41431070287539934"/><polyline points="0.18387723214285745,0.44431070287539937
0.18387723214285745,0.41431070287539934"/><polyline points="0.311420280612245,0.44431070287539937
0.311420280612245,0.41431070287539934"/><polyline points="0.43896332908163305,0.44431070287539937
0.43896332908163305,0.41431070287539934"/><polyline points="0.5665063775510206,0.44431070287539937
0.5665063775510206,0.41431070287539934"/><polyline points="0.6940494260204084,0.44431070287539937
0.6940494260204084,0.41431070287539934"/></g></g><g class="ticktext"><g fill="rgba(5%, 5%, 5%, 1.00)" font-size="4.251434948979592e-2" stroke="none" stroke-width="0.0" text-anchor="middle"><text x="-0.5813810586734693" y="0.485">-0.50</text><text x="-0.4538380102040816" y="0.485">-0.40</text><text x="-0.32629496173469374" y="0.485">-0.30</text><text x="-0.198751913265306" y="0.485">-0.20</text><text x="-7.120886479591826e-2" y="0.485">-0.10</text><text x="5.633418367346954e-2" y="0.485"> 0.00</text><text x="0.18387723214285745" y="0.485"> 0.10</text><text x="0.311420280612245" y="0.485"> 0.20</text><text x="0.43896332908163305" y="0.485"> 0.30</text><text x="0.5665063775510206" y="0.485"> 0.40</text><text x="0.6940494260204084" y="0.485"> 0.50</text></g></g></g><g class="axisbar"><g fill="rgba(5%, 5%, 5%, 0.40)" stroke="rgba(0%, 0%, 0%, 0.00)" stroke-width="0.0"><rect height="3.5079872204472617e-3" width="1.2788316326530613" x="-0.5830816326530611" y="0.41177076677316293"/></g></g></g></g></svg>