<svg width="440.7874650510342" xmlns:xlink="http://www.w3.org/1999/xlink" xmlns="http://www.w3.org/2000/svg" viewBox="-0.7386645118917002 -0.5130334454148697 1.4856656252386893 1.0111441973968198" height="300.0"><style>svg {
  color-scheme: light dark;
}
{
  .canvas g, .title g, .axisbar g, .ticktext g, .tickglyph g, .ticklines g, .legendContent g text {
    fill: #0d0d0d;
  }
  .ticklines g, .tickglyph g, .legendBorder g {
    stroke: #0d0d0d;
  }
}
@media (prefers-color-scheme:dark) {
  .canvas g, .title g, .axisbar g, .ticktext g, .tickglyph g, .ticklines g, .legendContent g text {
    fill: #f0f0f0;
  }
  .ticklines g, .tickglyph g, .legendBorder g {
    stroke: #f0f0f0;
  }
}{
  .arrow g {
    fill: #0d0d0d;
    stroke: #0d0d0d;
  }
}
@media (prefers-color-scheme:dark) {
  .arrow g {
    fill: #f0f0f0;
    stroke: #f0f0f0;
  }
}</style><g class="chart"><g class="arrow"><g stroke-opacity="1.0" fill="#a6cfe3" stroke="#0d0d0d" stroke-width="5.0e-2" fill-opacity="1.0"><g transform="rotate(-41.70388402745369, -0.5280195168976516, 0.33388258313757)"><path d="M -1 0 L 1 0 M 1 0 L 0.4 0.3 M 1 0 L 0.4 -0.3" transform="translate(-0.5280195168976516, 0.33388258313757) scale(5.0e-2)"/></g></g><g stroke-opacity="1.0" fill="#a6cfe3" stroke="#0d0d0d" stroke-width="5.0e-2" fill-opacity="1.0"><g transform="rotate(-40.703991576050946, -0.5280195168976516, 0.2492217413772243)"><path d="M -1 0 L 1 0 M 1 0 L 0.4 0.3 M 1 0 L 0.4 -0.3" transform="translate(-0.5280195168976516, 0.2492217413772243) scale(5.0e-2)"/></g></g><g stroke-opacity="1.0" fill="#a6cfe3" stroke="#0d0d0d" stroke-width="5.0e-2" fill-opacity="1.0"><g transform="rotate(-39.33034350353967, -0.5280195168976516, 0.1645608996168786)"><path d="M -1 0 L 1 0 M 1 0 L 0.4 0.3 M 1 0 L 0.4 -0.3" transform="translate(-0.5280195168976516, 0.1645608996168786) scale(5.0e-2)"/></g></g><g stroke-opacity="1.0" fill="#a6cfe3" stroke="#0d0d0d" stroke-width="5.0e-2" fill-opacity="1.0"><g transform="rotate(-37.32821468040517, -0.5280195168976516, 7.990005785653287e-2)"><path d="M -1 0 L 1 0 M 1 0 L 0.4 0.3 M 1 0 L 0.4 -0.3" transform="translate(-0.5280195168976516, 7.990005785653287e-2) scale(5.0e-2)"/></g></g><g stroke-opacity="1.0" fill="#a6cfe3" stroke="#0d0d0d" stroke-width="5.0e-2" fill-opacity="1.0"><g transform="rotate(-34.14934249468909, -0.5280195168976516, -4.7607839038127375e-3)"><path d="M -1 0 L 1 0 M 1 0 L 0.4 0.3 M 1 0 L 0.4 -0.3" transform="translate(-0.5280195168976516, -4.7607839038127375e-3) scale(5.0e-2)"/></g></g><g stroke-opacity="1.0" fill="#a6cfe3" stroke="#0d0d0d" stroke-width="5.0e-2" fill-opacity="1.0"><g transform="rotate(-28.38240378414633, -0.5280195168976516, -8.942162566415846e-2)"><path d="M -1 0 L 1 0 M 1 0 L 0.4 0.3 M 1 0 L 0.4 -0.3" transform="translate(-0.5280195168976516, -8.942162566415846e-2) scale(5.0e-2)"/></g></g><g stroke-opacity="1.0" fill="#a6cfe3" stroke="#0d0d0d" stroke-width="5.0e-2" fill-opacity="1.0"><g transform="rotate(-15.274030281041826, -0.5280195168976516, -0.17408246742450428)"><path d="M -1 0 L 1 0 M 1 0 L 0.4 0.3 M 1 0 L 0.4 -0.3" transform="translate(-0.5280195168976516, -0.17408246742450428) scale(5.0e-2)"/></g></g><g stroke-opacity="1.0" fill="#a6cfe3" stroke="#0d0d0d" stroke-width="5.0e-2" fill-opacity="1.0"><g transform="rotate(24.917115262331563, -0.5280195168976516, -0.2587433091848499)"><path d="M -1 0 L 1 0 M 1 0 L 0.4 0.3 M 1 0 L 0.4 -0.3" transform="translate(-0.5280195168976516, -0.2587433091848499) scale(5.0e-2)"/></g></g><g stroke-opacity="1.0" fill="#a6cfe3" stroke="#0d0d0d" stroke-width="5.0e-2" fill-opacity="1.0"><g transform="rotate(85.25243231067934, -0.5280195168976516, -0.3434041509451956)"><path d="M -1 0 L 1 0 M 1 0 L 0.4 0.3 M 1 0 L 0.4 -0.3" transform="translate(-0.5280195168976516, -0.3434041509451956) scale(5.0e-2)"/></g></g><g stroke-opacity="1.0" fill="#a6cfe3" stroke="#0d0d0d" stroke-width="5.0e-2" fill-opacity="1.0"><g transform="rotate(107.43966356457298, -0.5280195168976516, -0.4280649927055412)"><path d="M -1 0 L 1 0 M 1 0 L 0.4 0.3 M 1 0 L 0.4 -0.3" transform="translate(-0.5280195168976516, -0.4280649927055412) scale(5.0e-2)"/></g></g><g stroke-opacity="1.0" fill="#a6cfe3" stroke="#0d0d0d" stroke-width="5.0e-2" fill-opacity="1.0"><g transform="rotate(-46.89925433618114, -0.3969119970781513, 0.33388258313757)"><path d="M -1 0 L 1 0 M 1 0 L 0.4 0.3 M 1 0 L 0.4 -0.3" transform="translate(-0.3969119970781513, 0.33388258313757) scale(5.0e-2)"/></g></g><g stroke-opacity="1.0" fill="#a6cfe3" stroke="#0d0d0d" stroke-width="5.0e-2" fill-opacity="1.0"><g transform="rotate(-45.41219274140232, -0.3969119970781513, 0.2492217413772243)"><path d="M -1 0 L 1 0 M 1 0 L 0.4 0.3 M 1 0 L 0.4 -0.3" transform="translate(-0.3969119970781513, 0.2492217413772243) scale(5.0e-2)"/></g></g><g stroke-opacity="1.0" fill="#a6cfe3" stroke="#0d0d0d" stroke-width="5.0e-2" fill-opacity="1.0"><g transform="rotate(-43.26655332833368, -0.3969119970781513, 0.1645608996168786)"><path d="M -1 0 L 1 0 M 1 0 L 0.4 0.3 M 1 0 L 0.4 -0.3" transform="translate(-0.3969119970781513, 0.1645608996168786) scale(5.0e-2)"/></g></g><g stroke-opacity="1.0" fill="#a6cfe3" stroke="#0d0d0d" stroke-width="5.0e-2" fill-opacity="1.0"><g transform="rotate(-39.913529548149384, -0.3969119970781513, 7.990005785653287e-2)"><path d="M -1 0 L 1 0 M 1 0 L 0.4 0.3 M 1 0 L 0.4 -0.3" transform="translate(-0.3969119970781513, 7.990005785653287e-2) scale(5.0e-2)"/></g></g><g stroke-opacity="1.0" fill="#a6cfe3" stroke="#0d0d0d" stroke-width="5.0e-2" fill-opacity="1.0"><g transform="rotate(-33.99914492987854, -0.3969119970781513, -4.7607839038127375e-3)"><path d="M -1 0 L 1 0 M 1 0 L 0.4 0.3 M 1 0 L 0.4 -0.3" transform="translate(-0.3969119970781513, -4.7607839038127375e-3) scale(5.0e-2)"/></g></g><g stroke-opacity="1.0" fill="#a6cfe3" stroke="#0d0d0d" stroke-width="5.0e-2" fill-opacity="1.0"><g transform="rotate(-21.321176713227626, -0.3969119970781513, -8.942162566415846e-2)"><path d="M -1 0 L 1 0 M 1 0 L 0.4 0.3 M 1 0 L 0.4 -0.3" transform="translate(-0.3969119970781513, -8.942162566415846e-2) scale(5.0e-2)"/></g></g><g stroke-opacity="1.0" fill="#a6cfe3" stroke="#0d0d0d" stroke-width="5.0e-2" fill-opacity="1.0"><g transform="rotate(13.364611169993305, -0.3969119970781513, -0.17408246742450428)"><path d="M -1 0 L 1 0 M 1 0 L 0.4 0.3 M 1 0 L 0.4 -0.3" transform="translate(-0.3969119970781513, -0.17408246742450428) scale(5.0e-2)"/></g></g><g stroke-opacity="1.0" fill="#a6cfe3" stroke="#0d0d0d" stroke-width="5.0e-2" fill-opacity="1.0"><g transform="rotate(70.26081916410517, -0.3969119970781513, -0.2587433091848499)"><path d="M -1 0 L 1 0 M 1 0 L 0.4 0.3 M 1 0 L 0.4 -0.3" transform="translate(-0.3969119970781513, -0.2587433091848499) scale(5.0e-2)"/></g></g><g stroke-opacity="1.0" fill="#a6cfe3" stroke="#0d0d0d" stroke-width="5.0e-2" fill-opacity="1.0"><g transform="rotate(96.08437785000453, -0.3969119970781513, -0.3434041509451956)"><path d="M -1 0 L 1 0 M 1 0 L 0.4 0.3 M 1 0 L 0.4 -0.3" transform="translate(-0.3969119970781513, -0.3434041509451956) scale(5.0e-2)"/></g></g><g stroke-opacity="1.0" fill="#a6cfe3" stroke="#0d0d0d" stroke-width="5.0e-2" fill-opacity="1.0"><g transform="rotate(106.05509143504601, -0.3969119970781513, -0.4280649927055412)"><path d="M -1 0 L 1 0 M 1 0 L 0.4 0.3 M 1 0 L 0.4 -0.3" transform="translate(-0.3969119970781513, -0.4280649927055412) scale(5.0e-2)"/></g></g><g stroke-opacity="1.0" fill="#a6cfe3" stroke="#0d0d0d" stroke-width="5.0e-2" fill-opacity="1.0"><g transform="rotate(-53.3543508353797, -0.26580447725865086, 0.33388258313757)"><path d="M -1 0 L 1 0 M 1 0 L 0.4 0.3 M 1 0 L 0.4 -0.3" transform="translate(-0.26580447725865086, 0.33388258313757) scale(5.0e-2)"/></g></g><g stroke-opacity="1.0" fill="#a6cfe3" stroke="#0d0d0d" stroke-width="5.0e-2" fill-opacity="1.0"><g transform="rotate(-51.23448009554123, -0.26580447725865086, 0.2492217413772243)"><path d="M -1 0 L 1 0 M 1 0 L 0.4 0.3 M 1 0 L 0.4 -0.3" transform="translate(-0.26580447725865086, 0.2492217413772243) scale(5.0e-2)"/></g></g><g stroke-opacity="1.0" fill="#a6cfe3" stroke="#0d0d0d" stroke-width="5.0e-2" fill-opacity="1.0"><g transform="rotate(-48.012787504183336, -0.26580447725865086, 0.1645608996168786)"><path d="M -1 0 L 1 0 M 1 0 L 0.4 0.3 M 1 0 L 0.4 -0.3" transform="translate(-0.26580447725865086, 0.1645608996168786) scale(5.0e-2)"/></g></g><g stroke-opacity="1.0" fill="#a6cfe3" stroke="#0d0d0d" stroke-width="5.0e-2" fill-opacity="1.0"><g transform="rotate(-42.58049078334366, -0.26580447725865086, 7.990005785653287e-2)"><path d="M -1 0 L 1 0 M 1 0 L 0.4 0.3 M 1 0 L 0.4 -0.3" transform="translate(-0.26580447725865086, 7.990005785653287e-2) scale(5.0e-2)"/></g></g><g stroke-opacity="1.0" fill="#a6cfe3" stroke="#0d0d0d" stroke-width="5.0e-2" fill-opacity="1.0"><g transform="rotate(-31.827446576673104, -0.26580447725865086, -4.7607839038127375e-3)"><path d="M -1 0 L 1 0 M 1 0 L 0.4 0.3 M 1 0 L 0.4 -0.3" transform="translate(-0.26580447725865086, -4.7607839038127375e-3) scale(5.0e-2)"/></g></g><g stroke-opacity="1.0" fill="#a6cfe3" stroke="#0d0d0d" stroke-width="5.0e-2" fill-opacity="1.0"><g transform="rotate(-5.440332031005506, -0.26580447725865086, -8.942162566415846e-2)"><path d="M -1 0 L 1 0 M 1 0 L 0.4 0.3 M 1 0 L 0.4 -0.3" transform="translate(-0.26580447725865086, -8.942162566415846e-2) scale(5.0e-2)"/></g></g><g stroke-opacity="1.0" fill="#a6cfe3" stroke="#0d0d0d" stroke-width="5.0e-2" fill-opacity="1.0"><g transform="rotate(47.1210963966615, -0.26580447725865086, -0.17408246742450428)"><path d="M -1 0 L 1 0 M 1 0 L 0.4 0.3 M 1 0 L 0.4 -0.3" transform="translate(-0.26580447725865086, -0.17408246742450428) scale(5.0e-2)"/></g></g><g stroke-opacity="1.0" fill="#a6cfe3" stroke="#0d0d0d" stroke-width="5.0e-2" fill-opacity="1.0"><g transform="rotate(80.53767779197439, -0.26580447725865086, -0.2587433091848499)"><path d="M -1 0 L 1 0 M 1 0 L 0.4 0.3 M 1 0 L 0.4 -0.3" transform="translate(-0.26580447725865086, -0.2587433091848499) scale(5.0e-2)"/></g></g><g stroke-opacity="1.0" fill="#a6cfe3" stroke="#0d0d0d" stroke-width="5.0e-2" fill-opacity="1.0"><g transform="rotate(93.73139699916044, -0.26580447725865086, -0.3434041509451956)"><path d="M -1 0 L 1 0 M 1 0 L 0.4 0.3 M 1 0 L 0.4 -0.3" transform="translate(-0.26580447725865086, -0.3434041509451956) scale(5.0e-2)"/></g></g><g stroke-opacity="1.0" fill="#a6cfe3" stroke="#0d0d0d" stroke-width="5.0e-2" fill-opacity="1.0"><g transform="rotate(100.06068979532297, -0.26580447725865086, -0.4280649927055412)"><path d="M -1 0 L 1 0 M 1 0 L 0.4 0.3 M 1 0 L 0.4 -0.3" transform="translate(-0.26580447725865086, -0.4280649927055412) scale(5.0e-2)"/></g></g><g stroke-opacity="1.0" fill="#a6cfe3" stroke="#0d0d0d" stroke-width="5.0e-2" fill-opacity="1.0"><g transform="rotate(-61.48095159956936, -0.13469695743915056, 0.33388258313757)"><path d="M -1 0 L 1 0 M 1 0 L 0.4 0.3 M 1 0 L 0.4 -0.3" transform="translate(-0.13469695743915056, 0.33388258313757) scale(5.0e-2)"/></g></g><g stroke-opacity="1.0" fill="#a6cfe3" stroke="#0d0d0d" stroke-width="5.0e-2" fill-opacity="1.0"><g transform="rotate(-58.67008724249424, -0.13469695743915056, 0.2492217413772243)"><path d="M -1 0 L 1 0 M 1 0 L 0.4 0.3 M 1 0 L 0.4 -0.3" transform="translate(-0.13469695743915056, 0.2492217413772243) scale(5.0e-2)"/></g></g><g stroke-opacity="1.0" fill="#a6cfe3" stroke="#0d0d0d" stroke-width="5.0e-2" fill-opacity="1.0"><g transform="rotate(-54.17002461487118, -0.13469695743915056, 0.1645608996168786)"><path d="M -1 0 L 1 0 M 1 0 L 0.4 0.3 M 1 0 L 0.4 -0.3" transform="translate(-0.13469695743915056, 0.1645608996168786) scale(5.0e-2)"/></g></g><g stroke-opacity="1.0" fill="#a6cfe3" stroke="#0d0d0d" stroke-width="5.0e-2" fill-opacity="1.0"><g transform="rotate(-45.97102193107917, -0.13469695743915056, 7.990005785653287e-2)"><path d="M -1 0 L 1 0 M 1 0 L 0.4 0.3 M 1 0 L 0.4 -0.3" transform="translate(-0.13469695743915056, 7.990005785653287e-2) scale(5.0e-2)"/></g></g><g stroke-opacity="1.0" fill="#a6cfe3" stroke="#0d0d0d" stroke-width="5.0e-2" fill-opacity="1.0"><g transform="rotate(-27.930948956080037, -0.13469695743915056, -4.7607839038127375e-3)"><path d="M -1 0 L 1 0 M 1 0 L 0.4 0.3 M 1 0 L 0.4 -0.3" transform="translate(-0.13469695743915056, -4.7607839038127375e-3) scale(5.0e-2)"/></g></g><g stroke-opacity="1.0" fill="#a6cfe3" stroke="#0d0d0d" stroke-width="5.0e-2" fill-opacity="1.0"><g transform="rotate(14.445942279113961, -0.13469695743915056, -8.942162566415846e-2)"><path d="M -1 0 L 1 0 M 1 0 L 0.4 0.3 M 1 0 L 0.4 -0.3" transform="translate(-0.13469695743915056, -8.942162566415846e-2) scale(5.0e-2)"/></g></g><g stroke-opacity="1.0" fill="#a6cfe3" stroke="#0d0d0d" stroke-width="5.0e-2" fill-opacity="1.0"><g transform="rotate(58.95370855020484, -0.13469695743915056, -0.17408246742450428)"><path d="M -1 0 L 1 0 M 1 0 L 0.4 0.3 M 1 0 L 0.4 -0.3" transform="translate(-0.13469695743915056, -0.17408246742450428) scale(5.0e-2)"/></g></g><g stroke-opacity="1.0" fill="#a6cfe3" stroke="#0d0d0d" stroke-width="5.0e-2" fill-opacity="1.0"><g transform="rotate(78.38768602098031, -0.13469695743915056, -0.2587433091848499)"><path d="M -1 0 L 1 0 M 1 0 L 0.4 0.3 M 1 0 L 0.4 -0.3" transform="translate(-0.13469695743915056, -0.2587433091848499) scale(5.0e-2)"/></g></g><g stroke-opacity="1.0" fill="#a6cfe3" stroke="#0d0d0d" stroke-width="5.0e-2" fill-opacity="1.0"><g transform="rotate(87.0721562906961, -0.13469695743915056, -0.3434041509451956)"><path d="M -1 0 L 1 0 M 1 0 L 0.4 0.3 M 1 0 L 0.4 -0.3" transform="translate(-0.13469695743915056, -0.3434041509451956) scale(5.0e-2)"/></g></g><g stroke-opacity="1.0" fill="#a6cfe3" stroke="#0d0d0d" stroke-width="5.0e-2" fill-opacity="1.0"><g transform="rotate(91.775265785145, -0.13469695743915056, -0.4280649927055412)"><path d="M -1 0 L 1 0 M 1 0 L 0.4 0.3 M 1 0 L 0.4 -0.3" transform="translate(-0.13469695743915056, -0.4280649927055412) scale(5.0e-2)"/></g></g><g stroke-opacity="1.0" fill="#a6cfe3" stroke="#0d0d0d" stroke-width="5.0e-2" fill-opacity="1.0"><g transform="rotate(-71.63155263230772, -3.5894376196501376e-3, 0.33388258313757)"><path d="M -1 0 L 1 0 M 1 0 L 0.4 0.3 M 1 0 L 0.4 -0.3" transform="translate(-3.5894376196501376e-3, 0.33388258313757) scale(5.0e-2)"/></g></g><g stroke-opacity="1.0" fill="#a6cfe3" stroke="#0d0d0d" stroke-width="5.0e-2" fill-opacity="1.0"><g transform="rotate(-68.30375886013567, -3.5894376196501376e-3, 0.2492217413772243)"><path d="M -1 0 L 1 0 M 1 0 L 0.4 0.3 M 1 0 L 0.4 -0.3" transform="translate(-3.5894376196501376e-3, 0.2492217413772243) scale(5.0e-2)"/></g></g><g stroke-opacity="1.0" fill="#a6cfe3" stroke="#0d0d0d" stroke-width="5.0e-2" fill-opacity="1.0"><g transform="rotate(-62.713434447769245, -3.5894376196501376e-3, 0.1645608996168786)"><path d="M -1 0 L 1 0 M 1 0 L 0.4 0.3 M 1 0 L 0.4 -0.3" transform="translate(-3.5894376196501376e-3, 0.1645608996168786) scale(5.0e-2)"/></g></g><g stroke-opacity="1.0" fill="#a6cfe3" stroke="#0d0d0d" stroke-width="5.0e-2" fill-opacity="1.0"><g transform="rotate(-51.74335201662478, -3.5894376196501376e-3, 7.990005785653287e-2)"><path d="M -1 0 L 1 0 M 1 0 L 0.4 0.3 M 1 0 L 0.4 -0.3" transform="translate(-3.5894376196501376e-3, 7.990005785653287e-2) scale(5.0e-2)"/></g></g><g stroke-opacity="1.0" fill="#a6cfe3" stroke="#0d0d0d" stroke-width="5.0e-2" fill-opacity="1.0"><g transform="rotate(-25.463345061871607, -3.5894376196501376e-3, -4.7607839038127375e-3)"><path d="M -1 0 L 1 0 M 1 0 L 0.4 0.3 M 1 0 L 0.4 -0.3" transform="translate(-3.5894376196501376e-3, -4.7607839038127375e-3) scale(5.0e-2)"/></g></g><g stroke-opacity="1.0" fill="#a6cfe3" stroke="#0d0d0d" stroke-width="5.0e-2" fill-opacity="1.0"><g transform="rotate(25.352317626939044, -3.5894376196501376e-3, -8.942162566415846e-2)"><path d="M -1 0 L 1 0 M 1 0 L 0.4 0.3 M 1 0 L 0.4 -0.3" transform="translate(-3.5894376196501376e-3, -8.942162566415846e-2) scale(5.0e-2)"/></g></g><g stroke-opacity="1.0" fill="#a6cfe3" stroke="#0d0d0d" stroke-width="5.0e-2" fill-opacity="1.0"><g transform="rotate(58.539020075643705, -3.5894376196501376e-3, -0.17408246742450428)"><path d="M -1 0 L 1 0 M 1 0 L 0.4 0.3 M 1 0 L 0.4 -0.3" transform="translate(-3.5894376196501376e-3, -0.17408246742450428) scale(5.0e-2)"/></g></g><g stroke-opacity="1.0" fill="#a6cfe3" stroke="#0d0d0d" stroke-width="5.0e-2" fill-opacity="1.0"><g transform="rotate(72.03510627877053, -3.5894376196501376e-3, -0.2587433091848499)"><path d="M -1 0 L 1 0 M 1 0 L 0.4 0.3 M 1 0 L 0.4 -0.3" transform="translate(-3.5894376196501376e-3, -0.2587433091848499) scale(5.0e-2)"/></g></g><g stroke-opacity="1.0" fill="#a6cfe3" stroke="#0d0d0d" stroke-width="5.0e-2" fill-opacity="1.0"><g transform="rotate(78.57121322367863, -3.5894376196501376e-3, -0.3434041509451956)"><path d="M -1 0 L 1 0 M 1 0 L 0.4 0.3 M 1 0 L 0.4 -0.3" transform="translate(-3.5894376196501376e-3, -0.3434041509451956) scale(5.0e-2)"/></g></g><g stroke-opacity="1.0" fill="#a6cfe3" stroke="#0d0d0d" stroke-width="5.0e-2" fill-opacity="1.0"><g transform="rotate(82.33198654554482, -3.5894376196501376e-3, -0.4280649927055412)"><path d="M -1 0 L 1 0 M 1 0 L 0.4 0.3 M 1 0 L 0.4 -0.3" transform="translate(-3.5894376196501376e-3, -0.4280649927055412) scale(5.0e-2)"/></g></g><g stroke-opacity="1.0" fill="#a6cfe3" stroke="#0d0d0d" stroke-width="5.0e-2" fill-opacity="1.0"><g transform="rotate(-83.72582919707884, 0.12751808219985017, 0.33388258313757)"><path d="M -1 0 L 1 0 M 1 0 L 0.4 0.3 M 1 0 L 0.4 -0.3" transform="translate(0.12751808219985017, 0.33388258313757) scale(5.0e-2)"/></g></g><g stroke-opacity="1.0" fill="#a6cfe3" stroke="#0d0d0d" stroke-width="5.0e-2" fill-opacity="1.0"><g transform="rotate(-80.37960270065743, 0.12751808219985017, 0.2492217413772243)"><path d="M -1 0 L 1 0 M 1 0 L 0.4 0.3 M 1 0 L 0.4 -0.3" transform="translate(0.12751808219985017, 0.2492217413772243) scale(5.0e-2)"/></g></g><g stroke-opacity="1.0" fill="#a6cfe3" stroke="#0d0d0d" stroke-width="5.0e-2" fill-opacity="1.0"><g transform="rotate(-74.55784459620769, 0.12751808219985017, 0.1645608996168786)"><path d="M -1 0 L 1 0 M 1 0 L 0.4 0.3 M 1 0 L 0.4 -0.3" transform="translate(0.12751808219985017, 0.1645608996168786) scale(5.0e-2)"/></g></g><g stroke-opacity="1.0" fill="#a6cfe3" stroke="#0d0d0d" stroke-width="5.0e-2" fill-opacity="1.0"><g transform="rotate(-62.392645475723924, 0.12751808219985017, 7.990005785653287e-2)"><path d="M -1 0 L 1 0 M 1 0 L 0.4 0.3 M 1 0 L 0.4 -0.3" transform="translate(0.12751808219985017, 7.990005785653287e-2) scale(5.0e-2)"/></g></g><g stroke-opacity="1.0" fill="#a6cfe3" stroke="#0d0d0d" stroke-width="5.0e-2" fill-opacity="1.0"><g transform="rotate(-30.325850500388558, 0.12751808219985017, -4.7607839038127375e-3)"><path d="M -1 0 L 1 0 M 1 0 L 0.4 0.3 M 1 0 L 0.4 -0.3" transform="translate(0.12751808219985017, -4.7607839038127375e-3) scale(5.0e-2)"/></g></g><g stroke-opacity="1.0" fill="#a6cfe3" stroke="#0d0d0d" stroke-width="5.0e-2" fill-opacity="1.0"><g transform="rotate(25.463345061871614, 0.12751808219985017, -8.942162566415846e-2)"><path d="M -1 0 L 1 0 M 1 0 L 0.4 0.3 M 1 0 L 0.4 -0.3" transform="translate(0.12751808219985017, -8.942162566415846e-2) scale(5.0e-2)"/></g></g><g stroke-opacity="1.0" fill="#a6cfe3" stroke="#0d0d0d" stroke-width="5.0e-2" fill-opacity="1.0"><g transform="rotate(53.34825221466397, 0.12751808219985017, -0.17408246742450428)"><path d="M -1 0 L 1 0 M 1 0 L 0.4 0.3 M 1 0 L 0.4 -0.3" transform="translate(0.12751808219985017, -0.17408246742450428) scale(5.0e-2)"/></g></g><g stroke-opacity="1.0" fill="#a6cfe3" stroke="#0d0d0d" stroke-width="5.0e-2" fill-opacity="1.0"><g transform="rotate(64.18052078566551, 0.12751808219985017, -0.2587433091848499)"><path d="M -1 0 L 1 0 M 1 0 L 0.4 0.3 M 1 0 L 0.4 -0.3" transform="translate(0.12751808219985017, -0.2587433091848499) scale(5.0e-2)"/></g></g><g stroke-opacity="1.0" fill="#a6cfe3" stroke="#0d0d0d" stroke-width="5.0e-2" fill-opacity="1.0"><g transform="rotate(69.52530867630297, 0.12751808219985017, -0.3434041509451956)"><path d="M -1 0 L 1 0 M 1 0 L 0.4 0.3 M 1 0 L 0.4 -0.3" transform="translate(0.12751808219985017, -0.3434041509451956) scale(5.0e-2)"/></g></g><g stroke-opacity="1.0" fill="#a6cfe3" stroke="#0d0d0d" stroke-width="5.0e-2" fill-opacity="1.0"><g transform="rotate(72.65691141186667, 0.12751808219985017, -0.4280649927055412)"><path d="M -1 0 L 1 0 M 1 0 L 0.4 0.3 M 1 0 L 0.4 -0.3" transform="translate(0.12751808219985017, -0.4280649927055412) scale(5.0e-2)"/></g></g><g stroke-opacity="1.0" fill="#a6cfe3" stroke="#0d0d0d" stroke-width="5.0e-2" fill-opacity="1.0"><g transform="rotate(-96.84875031477206, 0.2586256020193508, 0.33388258313757)"><path d="M -1 0 L 1 0 M 1 0 L 0.4 0.3 M 1 0 L 0.4 -0.3" transform="translate(0.2586256020193508, 0.33388258313757) scale(5.0e-2)"/></g></g><g stroke-opacity="1.0" fill="#a6cfe3" stroke="#0d0d0d" stroke-width="5.0e-2" fill-opacity="1.0"><g transform="rotate(-94.10747809603637, 0.2586256020193508, 0.2492217413772243)"><path d="M -1 0 L 1 0 M 1 0 L 0.4 0.3 M 1 0 L 0.4 -0.3" transform="translate(0.2586256020193508, 0.2492217413772243) scale(5.0e-2)"/></g></g><g stroke-opacity="1.0" fill="#a6cfe3" stroke="#0d0d0d" stroke-width="5.0e-2" fill-opacity="1.0"><g transform="rotate(-89.31668823842175, 0.2586256020193508, 0.1645608996168786)"><path d="M -1 0 L 1 0 M 1 0 L 0.4 0.3 M 1 0 L 0.4 -0.3" transform="translate(0.2586256020193508, 0.1645608996168786) scale(5.0e-2)"/></g></g><g stroke-opacity="1.0" fill="#a6cfe3" stroke="#0d0d0d" stroke-width="5.0e-2" fill-opacity="1.0"><g transform="rotate(-79.0898362236076, 0.2586256020193508, 7.990005785653287e-2)"><path d="M -1 0 L 1 0 M 1 0 L 0.4 0.3 M 1 0 L 0.4 -0.3" transform="translate(0.2586256020193508, 7.990005785653287e-2) scale(5.0e-2)"/></g></g><g stroke-opacity="1.0" fill="#a6cfe3" stroke="#0d0d0d" stroke-width="5.0e-2" fill-opacity="1.0"><g transform="rotate(-48.89810671661513, 0.2586256020193508, -4.7607839038127375e-3)"><path d="M -1 0 L 1 0 M 1 0 L 0.4 0.3 M 1 0 L 0.4 -0.3" transform="translate(0.2586256020193508, -4.7607839038127375e-3) scale(5.0e-2)"/></g></g><g stroke-opacity="1.0" fill="#a6cfe3" stroke="#0d0d0d" stroke-width="5.0e-2" fill-opacity="1.0"><g transform="rotate(16.431113233075703, 0.2586256020193508, -8.942162566415846e-2)"><path d="M -1 0 L 1 0 M 1 0 L 0.4 0.3 M 1 0 L 0.4 -0.3" transform="translate(0.2586256020193508, -8.942162566415846e-2) scale(5.0e-2)"/></g></g><g stroke-opacity="1.0" fill="#a6cfe3" stroke="#0d0d0d" stroke-width="5.0e-2" fill-opacity="1.0"><g transform="rotate(45.97102193107918, 0.2586256020193508, -0.17408246742450428)"><path d="M -1 0 L 1 0 M 1 0 L 0.4 0.3 M 1 0 L 0.4 -0.3" transform="translate(0.2586256020193508, -0.17408246742450428) scale(5.0e-2)"/></g></g><g stroke-opacity="1.0" fill="#a6cfe3" stroke="#0d0d0d" stroke-width="5.0e-2" fill-opacity="1.0"><g transform="rotate(56.03475263569897, 0.2586256020193508, -0.2587433091848499)"><path d="M -1 0 L 1 0 M 1 0 L 0.4 0.3 M 1 0 L 0.4 -0.3" transform="translate(0.2586256020193508, -0.2587433091848499) scale(5.0e-2)"/></g></g><g stroke-opacity="1.0" fill="#a6cfe3" stroke="#0d0d0d" stroke-width="5.0e-2" fill-opacity="1.0"><g transform="rotate(60.77115498628979, 0.2586256020193508, -0.3434041509451956)"><path d="M -1 0 L 1 0 M 1 0 L 0.4 0.3 M 1 0 L 0.4 -0.3" transform="translate(0.2586256020193508, -0.3434041509451956) scale(5.0e-2)"/></g></g><g stroke-opacity="1.0" fill="#a6cfe3" stroke="#0d0d0d" stroke-width="5.0e-2" fill-opacity="1.0"><g transform="rotate(63.48858398583044, 0.2586256020193508, -0.4280649927055412)"><path d="M -1 0 L 1 0 M 1 0 L 0.4 0.3 M 1 0 L 0.4 -0.3" transform="translate(0.2586256020193508, -0.4280649927055412) scale(5.0e-2)"/></g></g><g stroke-opacity="1.0" fill="#a6cfe3" stroke="#0d0d0d" stroke-width="5.0e-2" fill-opacity="1.0"><g transform="rotate(-109.476575498932, 0.3897331218388508, 0.33388258313757)"><path d="M -1 0 L 1 0 M 1 0 L 0.4 0.3 M 1 0 L 0.4 -0.3" transform="translate(0.3897331218388508, 0.33388258313757) scale(5.0e-2)"/></g></g><g stroke-opacity="1.0" fill="#a6cfe3" stroke="#0d0d0d" stroke-width="5.0e-2" fill-opacity="1.0"><g transform="rotate(-107.65012421993012, 0.3897331218388508, 0.2492217413772243)"><path d="M -1 0 L 1 0 M 1 0 L 0.4 0.3 M 1 0 L 0.4 -0.3" transform="translate(0.3897331218388508, 0.2492217413772243) scale(5.0e-2)"/></g></g><g stroke-opacity="1.0" fill="#a6cfe3" stroke="#0d0d0d" stroke-width="5.0e-2" fill-opacity="1.0"><g transform="rotate(-104.57421619803874, 0.3897331218388508, 0.1645608996168786)"><path d="M -1 0 L 1 0 M 1 0 L 0.4 0.3 M 1 0 L 0.4 -0.3" transform="translate(0.3897331218388508, 0.1645608996168786) scale(5.0e-2)"/></g></g><g stroke-opacity="1.0" fill="#a6cfe3" stroke="#0d0d0d" stroke-width="5.0e-2" fill-opacity="1.0"><g transform="rotate(-98.3658861240326, 0.3897331218388508, 7.990005785653287e-2)"><path d="M -1 0 L 1 0 M 1 0 L 0.4 0.3 M 1 0 L 0.4 -0.3" transform="translate(0.3897331218388508, 7.990005785653287e-2) scale(5.0e-2)"/></g></g><g stroke-opacity="1.0" fill="#a6cfe3" stroke="#0d0d0d" stroke-width="5.0e-2" fill-opacity="1.0"><g transform="rotate(-80.5376777919744, 0.3897331218388508, -4.7607839038127375e-3)"><path d="M -1 0 L 1 0 M 1 0 L 0.4 0.3 M 1 0 L 0.4 -0.3" transform="translate(0.3897331218388508, -4.7607839038127375e-3) scale(5.0e-2)"/></g></g><g stroke-opacity="1.0" fill="#a6cfe3" stroke="#0d0d0d" stroke-width="5.0e-2" fill-opacity="1.0"><g transform="rotate(-10.304846468766057, 0.3897331218388508, -8.942162566415846e-2)"><path d="M -1 0 L 1 0 M 1 0 L 0.4 0.3 M 1 0 L 0.4 -0.3" transform="translate(0.3897331218388508, -8.942162566415846e-2) scale(5.0e-2)"/></g></g><g stroke-opacity="1.0" fill="#a6cfe3" stroke="#0d0d0d" stroke-width="5.0e-2" fill-opacity="1.0"><g transform="rotate(36.3843518158359, 0.3897331218388508, -0.17408246742450428)"><path d="M -1 0 L 1 0 M 1 0 L 0.4 0.3 M 1 0 L 0.4 -0.3" transform="translate(0.3897331218388508, -0.17408246742450428) scale(5.0e-2)"/></g></g><g stroke-opacity="1.0" fill="#a6cfe3" stroke="#0d0d0d" stroke-width="5.0e-2" fill-opacity="1.0"><g transform="rotate(48.012787504183336, 0.3897331218388508, -0.2587433091848499)"><path d="M -1 0 L 1 0 M 1 0 L 0.4 0.3 M 1 0 L 0.4 -0.3" transform="translate(0.3897331218388508, -0.2587433091848499) scale(5.0e-2)"/></g></g><g stroke-opacity="1.0" fill="#a6cfe3" stroke="#0d0d0d" stroke-width="5.0e-2" fill-opacity="1.0"><g transform="rotate(52.73359809902285, 0.3897331218388508, -0.3434041509451956)"><path d="M -1 0 L 1 0 M 1 0 L 0.4 0.3 M 1 0 L 0.4 -0.3" transform="translate(0.3897331218388508, -0.3434041509451956) scale(5.0e-2)"/></g></g><g stroke-opacity="1.0" fill="#a6cfe3" stroke="#0d0d0d" stroke-width="5.0e-2" fill-opacity="1.0"><g transform="rotate(55.2568198416964, 0.3897331218388508, -0.4280649927055412)"><path d="M -1 0 L 1 0 M 1 0 L 0.4 0.3 M 1 0 L 0.4 -0.3" transform="translate(0.3897331218388508, -0.4280649927055412) scale(5.0e-2)"/></g></g><g stroke-opacity="1.0" fill="#a6cfe3" stroke="#0d0d0d" stroke-width="5.0e-2" fill-opacity="1.0"><g transform="rotate(-120.39004059367852, 0.5208406416583512, 0.33388258313757)"><path d="M -1 0 L 1 0 M 1 0 L 0.4 0.3 M 1 0 L 0.4 -0.3" transform="translate(0.5208406416583512, 0.33388258313757) scale(5.0e-2)"/></g></g><g stroke-opacity="1.0" fill="#a6cfe3" stroke="#0d0d0d" stroke-width="5.0e-2" fill-opacity="1.0"><g transform="rotate(-119.3548748641938, 0.5208406416583512, 0.2492217413772243)"><path d="M -1 0 L 1 0 M 1 0 L 0.4 0.3 M 1 0 L 0.4 -0.3" transform="translate(0.5208406416583512, 0.2492217413772243) scale(5.0e-2)"/></g></g><g stroke-opacity="1.0" fill="#a6cfe3" stroke="#0d0d0d" stroke-width="5.0e-2" fill-opacity="1.0"><g transform="rotate(-117.72207677286721, 0.5208406416583512, 0.1645608996168786)"><path d="M -1 0 L 1 0 M 1 0 L 0.4 0.3 M 1 0 L 0.4 -0.3" transform="translate(0.5208406416583512, 0.1645608996168786) scale(5.0e-2)"/></g></g><g stroke-opacity="1.0" fill="#a6cfe3" stroke="#0d0d0d" stroke-width="5.0e-2" fill-opacity="1.0"><g transform="rotate(-114.77180709318333, 0.5208406416583512, 7.990005785653287e-2)"><path d="M -1 0 L 1 0 M 1 0 L 0.4 0.3 M 1 0 L 0.4 -0.3" transform="translate(0.5208406416583512, 7.990005785653287e-2) scale(5.0e-2)"/></g></g><g stroke-opacity="1.0" fill="#a6cfe3" stroke="#0d0d0d" stroke-width="5.0e-2" fill-opacity="1.0"><g transform="rotate(-107.91023110297346, 0.5208406416583512, -4.7607839038127375e-3)"><path d="M -1 0 L 1 0 M 1 0 L 0.4 0.3 M 1 0 L 0.4 -0.3" transform="translate(0.5208406416583512, -4.7607839038127375e-3) scale(5.0e-2)"/></g></g><g stroke-opacity="1.0" fill="#a6cfe3" stroke="#0d0d0d" stroke-width="5.0e-2" fill-opacity="1.0"><g transform="rotate(-78.88016563239884, 0.5208406416583512, -8.942162566415846e-2)"><path d="M -1 0 L 1 0 M 1 0 L 0.4 0.3 M 1 0 L 0.4 -0.3" transform="translate(0.5208406416583512, -8.942162566415846e-2) scale(5.0e-2)"/></g></g><g stroke-opacity="1.0" fill="#a6cfe3" stroke="#0d0d0d" stroke-width="5.0e-2" fill-opacity="1.0"><g transform="rotate(18.07717429682483, 0.5208406416583512, -0.17408246742450428)"><path d="M -1 0 L 1 0 M 1 0 L 0.4 0.3 M 1 0 L 0.4 -0.3" transform="translate(0.5208406416583512, -0.17408246742450428) scale(5.0e-2)"/></g></g><g stroke-opacity="1.0" fill="#a6cfe3" stroke="#0d0d0d" stroke-width="5.0e-2" fill-opacity="1.0"><g transform="rotate(39.57646251047537, 0.5208406416583512, -0.2587433091848499)"><path d="M -1 0 L 1 0 M 1 0 L 0.4 0.3 M 1 0 L 0.4 -0.3" transform="translate(0.5208406416583512, -0.2587433091848499) scale(5.0e-2)"/></g></g><g stroke-opacity="1.0" fill="#a6cfe3" stroke="#0d0d0d" stroke-width="5.0e-2" fill-opacity="1.0"><g transform="rotate(45.412192741402315, 0.5208406416583512, -0.3434041509451956)"><path d="M -1 0 L 1 0 M 1 0 L 0.4 0.3 M 1 0 L 0.4 -0.3" transform="translate(0.5208406416583512, -0.3434041509451956) scale(5.0e-2)"/></g></g><g stroke-opacity="1.0" fill="#a6cfe3" stroke="#0d0d0d" stroke-width="5.0e-2" fill-opacity="1.0"><g transform="rotate(48.061152646549644, 0.5208406416583512, -0.4280649927055412)"><path d="M -1 0 L 1 0 M 1 0 L 0.4 0.3 M 1 0 L 0.4 -0.3" transform="translate(0.5208406416583512, -0.4280649927055412) scale(5.0e-2)"/></g></g><g stroke-opacity="1.0" fill="#a6cfe3" stroke="#0d0d0d" stroke-width="5.0e-2" fill-opacity="1.0"><g transform="rotate(-129.20442853819998, 0.6519481614778514, 0.33388258313757)"><path d="M -1 0 L 1 0 M 1 0 L 0.4 0.3 M 1 0 L 0.4 -0.3" transform="translate(0.6519481614778514, 0.33388258313757) scale(5.0e-2)"/></g></g><g stroke-opacity="1.0" fill="#a6cfe3" stroke="#0d0d0d" stroke-width="5.0e-2" fill-opacity="1.0"><g transform="rotate(-128.6756131139764, 0.6519481614778514, 0.2492217413772243)"><path d="M -1 0 L 1 0 M 1 0 L 0.4 0.3 M 1 0 L 0.4 -0.3" transform="translate(0.6519481614778514, 0.2492217413772243) scale(5.0e-2)"/></g></g><g stroke-opacity="1.0" fill="#a6cfe3" stroke="#0d0d0d" stroke-width="5.0e-2" fill-opacity="1.0"><g transform="rotate(-127.8990823601365, 0.6519481614778514, 0.1645608996168786)"><path d="M -1 0 L 1 0 M 1 0 L 0.4 0.3 M 1 0 L 0.4 -0.3" transform="translate(0.6519481614778514, 0.1645608996168786) scale(5.0e-2)"/></g></g><g stroke-opacity="1.0" fill="#a6cfe3" stroke="#0d0d0d" stroke-width="5.0e-2" fill-opacity="1.0"><g transform="rotate(-126.64820118726841, 0.6519481614778514, 7.990005785653287e-2)"><path d="M -1 0 L 1 0 M 1 0 L 0.4 0.3 M 1 0 L 0.4 -0.3" transform="translate(0.6519481614778514, 7.990005785653287e-2) scale(5.0e-2)"/></g></g><g stroke-opacity="1.0" fill="#a6cfe3" stroke="#0d0d0d" stroke-width="5.0e-2" fill-opacity="1.0"><g transform="rotate(-124.30095672615316, 0.6519481614778514, -4.7607839038127375e-3)"><path d="M -1 0 L 1 0 M 1 0 L 0.4 0.3 M 1 0 L 0.4 -0.3" transform="translate(0.6519481614778514, -4.7607839038127375e-3) scale(5.0e-2)"/></g></g><g stroke-opacity="1.0" fill="#a6cfe3" stroke="#0d0d0d" stroke-width="5.0e-2" fill-opacity="1.0"><g transform="rotate(-118.3399495893263, 0.6519481614778514, -8.942162566415846e-2)"><path d="M -1 0 L 1 0 M 1 0 L 0.4 0.3 M 1 0 L 0.4 -0.3" transform="translate(0.6519481614778514, -8.942162566415846e-2) scale(5.0e-2)"/></g></g><g stroke-opacity="1.0" fill="#a6cfe3" stroke="#0d0d0d" stroke-width="5.0e-2" fill-opacity="1.0"><g transform="rotate(-81.6026974133102, 0.6519481614778514, -0.17408246742450428)"><path d="M -1 0 L 1 0 M 1 0 L 0.4 0.3 M 1 0 L 0.4 -0.3" transform="translate(0.6519481614778514, -0.17408246742450428) scale(5.0e-2)"/></g></g><g stroke-opacity="1.0" fill="#a6cfe3" stroke="#0d0d0d" stroke-width="5.0e-2" fill-opacity="1.0"><g transform="rotate(25.916669828467207, 0.6519481614778514, -0.2587433091848499)"><path d="M -1 0 L 1 0 M 1 0 L 0.4 0.3 M 1 0 L 0.4 -0.3" transform="translate(0.6519481614778514, -0.2587433091848499) scale(5.0e-2)"/></g></g><g stroke-opacity="1.0" fill="#a6cfe3" stroke="#0d0d0d" stroke-width="5.0e-2" fill-opacity="1.0"><g transform="rotate(38.15385704023621, 0.6519481614778514, -0.3434041509451956)"><path d="M -1 0 L 1 0 M 1 0 L 0.4 0.3 M 1 0 L 0.4 -0.3" transform="translate(0.6519481614778514, -0.3434041509451956) scale(5.0e-2)"/></g></g><g stroke-opacity="1.0" fill="#a6cfe3" stroke="#0d0d0d" stroke-width="5.0e-2" fill-opacity="1.0"><g transform="rotate(41.70388402745369, 0.6519481614778514, -0.4280649927055412)"><path d="M -1 0 L 1 0 M 1 0 L 0.4 0.3 M 1 0 L 0.4 -0.3" transform="translate(0.6519481614778514, -0.4280649927055412) scale(5.0e-2)"/></g></g></g></g><g class="hud"><g class="frame"><g stroke-opacity="0.0" fill="#ffffff" stroke="#000000" stroke-width="0.0" fill-opacity="2.0e-2"><rect width="1.3285025301119129" x="-0.6023126912794198" y="-0.5" height="0.9058421129540768"/></g></g><g class="axis"><g class="ticks"><g class="tickglyph"><g stroke-opacity="0.4" fill="#0d0d0d" stroke="#0d0d0d" stroke-width="4.0e-3" fill-opacity="0.4"><g transform="rotate(-90.0, -0.6285341952433199, 0.3762130040177428)"><polyline points="-0.6285341952433199,0.39121300401774284
-0.6285341952433199,0.3612130040177428"/></g><g transform="rotate(-90.0, -0.6285341952433199, 0.29155216225739716)"><polyline points="-0.6285341952433199,0.3065521622573972
-0.6285341952433199,0.27655216225739715"/></g><g transform="rotate(-90.0, -0.6285341952433199, 0.20689132049705145)"><polyline points="-0.6285341952433199,0.22189132049705146
-0.6285341952433199,0.19189132049705143"/></g><g transform="rotate(-90.0, -0.6285341952433199, 0.12223047873670573)"><polyline points="-0.6285341952433199,0.13723047873670574
-0.6285341952433199,0.10723047873670573"/></g><g transform="rotate(-90.0, -0.6285341952433199, 3.7569636976360066e-2)"><polyline points="-0.6285341952433199,5.2569636976360065e-2
-0.6285341952433199,2.2569636976360066e-2"/></g><g transform="rotate(-90.0, -0.6285341952433199, -4.709120478398565e-2)"><polyline points="-0.6285341952433199,-3.209120478398565e-2
-0.6285341952433199,-6.209120478398565e-2"/></g><g transform="rotate(-90.0, -0.6285341952433199, -0.13175204654433137)"><polyline points="-0.6285341952433199,-0.11675204654433137
-0.6285341952433199,-0.14675204654433138"/></g><g transform="rotate(-90.0, -0.6285341952433199, -0.21641288830467698)"><polyline points="-0.6285341952433199,-0.20141288830467696
-0.6285341952433199,-0.231412888304677"/></g><g transform="rotate(-90.0, -0.6285341952433199, -0.3010737300650228)"><polyline points="-0.6285341952433199,-0.2860737300650228
-0.6285341952433199,-0.3160737300650228"/></g><g transform="rotate(-90.0, -0.6285341952433199, -0.3857345718253685)"><polyline points="-0.6285341952433199,-0.3707345718253685
-0.6285341952433199,-0.40073457182536854"/></g><g transform="rotate(-90.0, -0.6285341952433199, -0.47039541358571413)"><polyline points="-0.6285341952433199,-0.4553954135857141
-0.6285341952433199,-0.48539541358571414"/></g></g></g><g class="ticktext"><g fill="#0d0d0d" stroke="none" stroke-width="0.0" font-size="4.370250660650011e-2" fill-opacity="1.0" text-anchor="end"><text x="-0.66" y="0.3878538697597904">-0.5</text><text x="-0.66" y="0.3031930279994447">-0.4</text><text x="-0.66" y="0.21853218623909898">-0.3</text><text x="-0.66" y="0.13387134447875332">-0.2</text><text x="-0.66" y="4.92105027184076e-2">-0.1</text><text x="-0.66" y="-3.545033904193806e-2">0</text><text x="-0.66" y="-0.12011118080228378">0.1</text><text x="-0.66" y="-0.2047720225626295">0.2</text><text x="-0.66" y="-0.2894328643229752">0.3</text><text x="-0.66" y="-0.37409370608332093">0.4</text><text x="-0.66" y="-0.45875454784366665">0.5</text></g></g></g><g class="axisbar"><g stroke-opacity="0.0" fill="#0d0d0d" stroke="#000000" stroke-width="0.0" fill-opacity="0.4"><rect width="3.496200528519955e-3" x="-0.6145493931292398" y="-0.472088630420921" height="0.8499948512738706"/></g></g></g><g class="axis"><g class="ticks"><g class="tickglyph"><g stroke-opacity="0.4" fill="#0d0d0d" stroke="#0d0d0d" stroke-width="4.0e-3" fill-opacity="0.4"><polyline points="-0.5935732768074018,0.4462403654821805
-0.5935732768074018,0.41624036548218046"/><polyline points="-0.4624657569879015,0.4462403654821805
-0.4624657569879015,0.41624036548218046"/><polyline points="-0.331358237168401,0.4462403654821805
-0.331358237168401,0.41624036548218046"/><polyline points="-0.20025071734890065,0.4462403654821805
-0.20025071734890065,0.41624036548218046"/><polyline points="-6.914319752940035e-2,0.4462403654821805
-6.914319752940035e-2,0.41624036548218046"/><polyline points="6.196432229009996e-2,0.4462403654821805
6.196432229009996e-2,0.41624036548218046"/><polyline points="0.19307184210960038,0.4462403654821805
0.19307184210960038,0.41624036548218046"/><polyline points="0.3241793619291007,0.4462403654821805
0.3241793619291007,0.41624036548218046"/><polyline points="0.4552868817486012,0.4462403654821805
0.4552868817486012,0.41624036548218046"/><polyline points="0.5863944015681014,0.4462403654821805
0.5863944015681014,0.41624036548218046"/><polyline points="0.7175019213876016,0.4462403654821805
0.7175019213876016,0.41624036548218046"/></g></g><g class="ticktext"><g fill="#0d0d0d" stroke="none" stroke-width="0.0" font-size="4.370250660650011e-2" fill-opacity="1.0" text-anchor="middle"><text x="-0.5935732768074018" y="0.485">-0.5</text><text x="-0.4624657569879015" y="0.485">-0.4</text><text x="-0.331358237168401" y="0.485">-0.3</text><text x="-0.20025071734890065" y="0.485">-0.2</text><text x="-6.914319752940035e-2" y="0.485">-0.1</text><text x="6.196432229009996e-2" y="0.485">0</text><text x="0.19307184210960038" y="0.485">0.1</text><text x="0.3241793619291007" y="0.485">0.2</text><text x="0.4552868817486012" y="0.485">0.3</text><text x="0.5863944015681014" y="0.485">0.4</text><text x="0.7175019213876016" y="0.485">0.5</text></g></g></g><g class="axisbar"><g stroke-opacity="0.0" fill="#0d0d0d" stroke="#000000" stroke-width="0.0" fill-opacity="0.4"><rect width="1.3145713987235235" x="-0.5953213770716618" y="0.41430819713011136" height="3.386433670413802e-3"/></g></g></g></g></svg>