<svg width="443.3654436136022" xmlns:xlink="http://www.w3.org/1999/xlink" xmlns="http://www.w3.org/2000/svg" viewBox="-0.739108737244898 -0.5068100041450343 1.4852665417729591 1.0049947936858505" height="300.0"><style>svg {
  color-scheme: light dark;
}
{
  .canvas g, .title g, .axisbar g, .ticktext g, .tickglyph g, .ticklines g, .legendContent g text {
    fill: #0d0d0d;
  }
  .ticklines g, .tickglyph g, .legendBorder g {
    stroke: #0d0d0d;
  }
}
@media (prefers-color-scheme:dark) {
  .canvas g, .title g, .axisbar g, .ticktext g, .tickglyph g, .ticklines g, .legendContent g text {
    fill: #f0f0f0;
  }
  .ticklines g, .tickglyph g, .legendBorder g {
    stroke: #f0f0f0;
  }
}{
  .arrow g {
    fill: #0d0d0d;
    stroke: #0d0d0d;
  }
}
@media (prefers-color-scheme:dark) {
  .arrow g {
    fill: #f0f0f0;
    stroke: #f0f0f0;
  }
}</style><g class="chart"><g class="arrow"><g stroke-opacity="1.0" fill="#a6cfe3" stroke="#0d0d0d" stroke-width="5.0e-2" fill-opacity="1.0"><g transform="rotate(-41.70388402745369, -0.5360629783163265, 0.36029299220793115)"><path d="M -1 0 L 1 0 M 1 0 L 0.4 0.3 M 1 0 L 0.4 -0.3" transform="translate(-0.5360629783163265, 0.36029299220793115) scale(5.0e-2)"/></g></g><g stroke-opacity="1.0" fill="#a6cfe3" stroke="#0d0d0d" stroke-width="5.0e-2" fill-opacity="1.0"><g transform="rotate(-40.703991576050946, -0.5360629783163265, 0.27338915402530484)"><path d="M -1 0 L 1 0 M 1 0 L 0.4 0.3 M 1 0 L 0.4 -0.3" transform="translate(-0.5360629783163265, 0.27338915402530484) scale(5.0e-2)"/></g></g><g stroke-opacity="1.0" fill="#a6cfe3" stroke="#0d0d0d" stroke-width="5.0e-2" fill-opacity="1.0"><g transform="rotate(-39.33034350353967, -0.5360629783163265, 0.18648531584267847)"><path d="M -1 0 L 1 0 M 1 0 L 0.4 0.3 M 1 0 L 0.4 -0.3" transform="translate(-0.5360629783163265, 0.18648531584267847) scale(5.0e-2)"/></g></g><g stroke-opacity="1.0" fill="#a6cfe3" stroke="#0d0d0d" stroke-width="5.0e-2" fill-opacity="1.0"><g transform="rotate(-37.32821468040517, -0.5360629783163265, 9.95814776600521e-2)"><path d="M -1 0 L 1 0 M 1 0 L 0.4 0.3 M 1 0 L 0.4 -0.3" transform="translate(-0.5360629783163265, 9.95814776600521e-2) scale(5.0e-2)"/></g></g><g stroke-opacity="1.0" fill="#a6cfe3" stroke="#0d0d0d" stroke-width="5.0e-2" fill-opacity="1.0"><g transform="rotate(-34.14934249468909, -0.5360629783163265, 1.2677639477425784e-2)"><path d="M -1 0 L 1 0 M 1 0 L 0.4 0.3 M 1 0 L 0.4 -0.3" transform="translate(-0.5360629783163265, 1.2677639477425784e-2) scale(5.0e-2)"/></g></g><g stroke-opacity="1.0" fill="#a6cfe3" stroke="#0d0d0d" stroke-width="5.0e-2" fill-opacity="1.0"><g transform="rotate(-28.38240378414633, -0.5360629783163265, -7.422619870520053e-2)"><path d="M -1 0 L 1 0 M 1 0 L 0.4 0.3 M 1 0 L 0.4 -0.3" transform="translate(-0.5360629783163265, -7.422619870520053e-2) scale(5.0e-2)"/></g></g><g stroke-opacity="1.0" fill="#a6cfe3" stroke="#0d0d0d" stroke-width="5.0e-2" fill-opacity="1.0"><g transform="rotate(-15.274030281041826, -0.5360629783163265, -0.161130036887827)"><path d="M -1 0 L 1 0 M 1 0 L 0.4 0.3 M 1 0 L 0.4 -0.3" transform="translate(-0.5360629783163265, -0.161130036887827) scale(5.0e-2)"/></g></g><g stroke-opacity="1.0" fill="#a6cfe3" stroke="#0d0d0d" stroke-width="5.0e-2" fill-opacity="1.0"><g transform="rotate(24.917115262331563, -0.5360629783163265, -0.24803387507045327)"><path d="M -1 0 L 1 0 M 1 0 L 0.4 0.3 M 1 0 L 0.4 -0.3" transform="translate(-0.5360629783163265, -0.24803387507045327) scale(5.0e-2)"/></g></g><g stroke-opacity="1.0" fill="#a6cfe3" stroke="#0d0d0d" stroke-width="5.0e-2" fill-opacity="1.0"><g transform="rotate(85.25243231067934, -0.5360629783163265, -0.33493771325307964)"><path d="M -1 0 L 1 0 M 1 0 L 0.4 0.3 M 1 0 L 0.4 -0.3" transform="translate(-0.5360629783163265, -0.33493771325307964) scale(5.0e-2)"/></g></g><g stroke-opacity="1.0" fill="#a6cfe3" stroke="#0d0d0d" stroke-width="5.0e-2" fill-opacity="1.0"><g transform="rotate(107.43966356457298, -0.5360629783163265, -0.4218415514357058)"><path d="M -1 0 L 1 0 M 1 0 L 0.4 0.3 M 1 0 L 0.4 -0.3" transform="translate(-0.5360629783163265, -0.4218415514357058) scale(5.0e-2)"/></g></g><g stroke-opacity="1.0" fill="#a6cfe3" stroke="#0d0d0d" stroke-width="5.0e-2" fill-opacity="1.0"><g transform="rotate(-46.89925433618114, -0.40421508290816327, 0.36029299220793115)"><path d="M -1 0 L 1 0 M 1 0 L 0.4 0.3 M 1 0 L 0.4 -0.3" transform="translate(-0.40421508290816327, 0.36029299220793115) scale(5.0e-2)"/></g></g><g stroke-opacity="1.0" fill="#a6cfe3" stroke="#0d0d0d" stroke-width="5.0e-2" fill-opacity="1.0"><g transform="rotate(-45.41219274140232, -0.40421508290816327, 0.27338915402530484)"><path d="M -1 0 L 1 0 M 1 0 L 0.4 0.3 M 1 0 L 0.4 -0.3" transform="translate(-0.40421508290816327, 0.27338915402530484) scale(5.0e-2)"/></g></g><g stroke-opacity="1.0" fill="#a6cfe3" stroke="#0d0d0d" stroke-width="5.0e-2" fill-opacity="1.0"><g transform="rotate(-43.26655332833368, -0.40421508290816327, 0.18648531584267847)"><path d="M -1 0 L 1 0 M 1 0 L 0.4 0.3 M 1 0 L 0.4 -0.3" transform="translate(-0.40421508290816327, 0.18648531584267847) scale(5.0e-2)"/></g></g><g stroke-opacity="1.0" fill="#a6cfe3" stroke="#0d0d0d" stroke-width="5.0e-2" fill-opacity="1.0"><g transform="rotate(-39.913529548149384, -0.40421508290816327, 9.95814776600521e-2)"><path d="M -1 0 L 1 0 M 1 0 L 0.4 0.3 M 1 0 L 0.4 -0.3" transform="translate(-0.40421508290816327, 9.95814776600521e-2) scale(5.0e-2)"/></g></g><g stroke-opacity="1.0" fill="#a6cfe3" stroke="#0d0d0d" stroke-width="5.0e-2" fill-opacity="1.0"><g transform="rotate(-33.99914492987854, -0.40421508290816327, 1.2677639477425784e-2)"><path d="M -1 0 L 1 0 M 1 0 L 0.4 0.3 M 1 0 L 0.4 -0.3" transform="translate(-0.40421508290816327, 1.2677639477425784e-2) scale(5.0e-2)"/></g></g><g stroke-opacity="1.0" fill="#a6cfe3" stroke="#0d0d0d" stroke-width="5.0e-2" fill-opacity="1.0"><g transform="rotate(-21.321176713227626, -0.40421508290816327, -7.422619870520053e-2)"><path d="M -1 0 L 1 0 M 1 0 L 0.4 0.3 M 1 0 L 0.4 -0.3" transform="translate(-0.40421508290816327, -7.422619870520053e-2) scale(5.0e-2)"/></g></g><g stroke-opacity="1.0" fill="#a6cfe3" stroke="#0d0d0d" stroke-width="5.0e-2" fill-opacity="1.0"><g transform="rotate(13.364611169993305, -0.40421508290816327, -0.161130036887827)"><path d="M -1 0 L 1 0 M 1 0 L 0.4 0.3 M 1 0 L 0.4 -0.3" transform="translate(-0.40421508290816327, -0.161130036887827) scale(5.0e-2)"/></g></g><g stroke-opacity="1.0" fill="#a6cfe3" stroke="#0d0d0d" stroke-width="5.0e-2" fill-opacity="1.0"><g transform="rotate(70.26081916410517, -0.40421508290816327, -0.24803387507045327)"><path d="M -1 0 L 1 0 M 1 0 L 0.4 0.3 M 1 0 L 0.4 -0.3" transform="translate(-0.40421508290816327, -0.24803387507045327) scale(5.0e-2)"/></g></g><g stroke-opacity="1.0" fill="#a6cfe3" stroke="#0d0d0d" stroke-width="5.0e-2" fill-opacity="1.0"><g transform="rotate(96.08437785000453, -0.40421508290816327, -0.33493771325307964)"><path d="M -1 0 L 1 0 M 1 0 L 0.4 0.3 M 1 0 L 0.4 -0.3" transform="translate(-0.40421508290816327, -0.33493771325307964) scale(5.0e-2)"/></g></g><g stroke-opacity="1.0" fill="#a6cfe3" stroke="#0d0d0d" stroke-width="5.0e-2" fill-opacity="1.0"><g transform="rotate(106.05509143504601, -0.40421508290816327, -0.4218415514357058)"><path d="M -1 0 L 1 0 M 1 0 L 0.4 0.3 M 1 0 L 0.4 -0.3" transform="translate(-0.40421508290816327, -0.4218415514357058) scale(5.0e-2)"/></g></g><g stroke-opacity="1.0" fill="#a6cfe3" stroke="#0d0d0d" stroke-width="5.0e-2" fill-opacity="1.0"><g transform="rotate(-53.3543508353797, -0.27236718749999994, 0.36029299220793115)"><path d="M -1 0 L 1 0 M 1 0 L 0.4 0.3 M 1 0 L 0.4 -0.3" transform="translate(-0.27236718749999994, 0.36029299220793115) scale(5.0e-2)"/></g></g><g stroke-opacity="1.0" fill="#a6cfe3" stroke="#0d0d0d" stroke-width="5.0e-2" fill-opacity="1.0"><g transform="rotate(-51.23448009554123, -0.27236718749999994, 0.27338915402530484)"><path d="M -1 0 L 1 0 M 1 0 L 0.4 0.3 M 1 0 L 0.4 -0.3" transform="translate(-0.27236718749999994, 0.27338915402530484) scale(5.0e-2)"/></g></g><g stroke-opacity="1.0" fill="#a6cfe3" stroke="#0d0d0d" stroke-width="5.0e-2" fill-opacity="1.0"><g transform="rotate(-48.012787504183336, -0.27236718749999994, 0.18648531584267847)"><path d="M -1 0 L 1 0 M 1 0 L 0.4 0.3 M 1 0 L 0.4 -0.3" transform="translate(-0.27236718749999994, 0.18648531584267847) scale(5.0e-2)"/></g></g><g stroke-opacity="1.0" fill="#a6cfe3" stroke="#0d0d0d" stroke-width="5.0e-2" fill-opacity="1.0"><g transform="rotate(-42.58049078334366, -0.27236718749999994, 9.95814776600521e-2)"><path d="M -1 0 L 1 0 M 1 0 L 0.4 0.3 M 1 0 L 0.4 -0.3" transform="translate(-0.27236718749999994, 9.95814776600521e-2) scale(5.0e-2)"/></g></g><g stroke-opacity="1.0" fill="#a6cfe3" stroke="#0d0d0d" stroke-width="5.0e-2" fill-opacity="1.0"><g transform="rotate(-31.827446576673104, -0.27236718749999994, 1.2677639477425784e-2)"><path d="M -1 0 L 1 0 M 1 0 L 0.4 0.3 M 1 0 L 0.4 -0.3" transform="translate(-0.27236718749999994, 1.2677639477425784e-2) scale(5.0e-2)"/></g></g><g stroke-opacity="1.0" fill="#a6cfe3" stroke="#0d0d0d" stroke-width="5.0e-2" fill-opacity="1.0"><g transform="rotate(-5.440332031005506, -0.27236718749999994, -7.422619870520053e-2)"><path d="M -1 0 L 1 0 M 1 0 L 0.4 0.3 M 1 0 L 0.4 -0.3" transform="translate(-0.27236718749999994, -7.422619870520053e-2) scale(5.0e-2)"/></g></g><g stroke-opacity="1.0" fill="#a6cfe3" stroke="#0d0d0d" stroke-width="5.0e-2" fill-opacity="1.0"><g transform="rotate(47.1210963966615, -0.27236718749999994, -0.161130036887827)"><path d="M -1 0 L 1 0 M 1 0 L 0.4 0.3 M 1 0 L 0.4 -0.3" transform="translate(-0.27236718749999994, -0.161130036887827) scale(5.0e-2)"/></g></g><g stroke-opacity="1.0" fill="#a6cfe3" stroke="#0d0d0d" stroke-width="5.0e-2" fill-opacity="1.0"><g transform="rotate(80.53767779197439, -0.27236718749999994, -0.24803387507045327)"><path d="M -1 0 L 1 0 M 1 0 L 0.4 0.3 M 1 0 L 0.4 -0.3" transform="translate(-0.27236718749999994, -0.24803387507045327) scale(5.0e-2)"/></g></g><g stroke-opacity="1.0" fill="#a6cfe3" stroke="#0d0d0d" stroke-width="5.0e-2" fill-opacity="1.0"><g transform="rotate(93.73139699916044, -0.27236718749999994, -0.33493771325307964)"><path d="M -1 0 L 1 0 M 1 0 L 0.4 0.3 M 1 0 L 0.4 -0.3" transform="translate(-0.27236718749999994, -0.33493771325307964) scale(5.0e-2)"/></g></g><g stroke-opacity="1.0" fill="#a6cfe3" stroke="#0d0d0d" stroke-width="5.0e-2" fill-opacity="1.0"><g transform="rotate(100.06068979532297, -0.27236718749999994, -0.4218415514357058)"><path d="M -1 0 L 1 0 M 1 0 L 0.4 0.3 M 1 0 L 0.4 -0.3" transform="translate(-0.27236718749999994, -0.4218415514357058) scale(5.0e-2)"/></g></g><g stroke-opacity="1.0" fill="#a6cfe3" stroke="#0d0d0d" stroke-width="5.0e-2" fill-opacity="1.0"><g transform="rotate(-61.48095159956936, -0.14051929209183667, 0.36029299220793115)"><path d="M -1 0 L 1 0 M 1 0 L 0.4 0.3 M 1 0 L 0.4 -0.3" transform="translate(-0.14051929209183667, 0.36029299220793115) scale(5.0e-2)"/></g></g><g stroke-opacity="1.0" fill="#a6cfe3" stroke="#0d0d0d" stroke-width="5.0e-2" fill-opacity="1.0"><g transform="rotate(-58.67008724249424, -0.14051929209183667, 0.27338915402530484)"><path d="M -1 0 L 1 0 M 1 0 L 0.4 0.3 M 1 0 L 0.4 -0.3" transform="translate(-0.14051929209183667, 0.27338915402530484) scale(5.0e-2)"/></g></g><g stroke-opacity="1.0" fill="#a6cfe3" stroke="#0d0d0d" stroke-width="5.0e-2" fill-opacity="1.0"><g transform="rotate(-54.17002461487118, -0.14051929209183667, 0.18648531584267847)"><path d="M -1 0 L 1 0 M 1 0 L 0.4 0.3 M 1 0 L 0.4 -0.3" transform="translate(-0.14051929209183667, 0.18648531584267847) scale(5.0e-2)"/></g></g><g stroke-opacity="1.0" fill="#a6cfe3" stroke="#0d0d0d" stroke-width="5.0e-2" fill-opacity="1.0"><g transform="rotate(-45.97102193107917, -0.14051929209183667, 9.95814776600521e-2)"><path d="M -1 0 L 1 0 M 1 0 L 0.4 0.3 M 1 0 L 0.4 -0.3" transform="translate(-0.14051929209183667, 9.95814776600521e-2) scale(5.0e-2)"/></g></g><g stroke-opacity="1.0" fill="#a6cfe3" stroke="#0d0d0d" stroke-width="5.0e-2" fill-opacity="1.0"><g transform="rotate(-27.930948956080037, -0.14051929209183667, 1.2677639477425784e-2)"><path d="M -1 0 L 1 0 M 1 0 L 0.4 0.3 M 1 0 L 0.4 -0.3" transform="translate(-0.14051929209183667, 1.2677639477425784e-2) scale(5.0e-2)"/></g></g><g stroke-opacity="1.0" fill="#a6cfe3" stroke="#0d0d0d" stroke-width="5.0e-2" fill-opacity="1.0"><g transform="rotate(14.445942279113961, -0.14051929209183667, -7.422619870520053e-2)"><path d="M -1 0 L 1 0 M 1 0 L 0.4 0.3 M 1 0 L 0.4 -0.3" transform="translate(-0.14051929209183667, -7.422619870520053e-2) scale(5.0e-2)"/></g></g><g stroke-opacity="1.0" fill="#a6cfe3" stroke="#0d0d0d" stroke-width="5.0e-2" fill-opacity="1.0"><g transform="rotate(58.95370855020484, -0.14051929209183667, -0.161130036887827)"><path d="M -1 0 L 1 0 M 1 0 L 0.4 0.3 M 1 0 L 0.4 -0.3" transform="translate(-0.14051929209183667, -0.161130036887827) scale(5.0e-2)"/></g></g><g stroke-opacity="1.0" fill="#a6cfe3" stroke="#0d0d0d" stroke-width="5.0e-2" fill-opacity="1.0"><g transform="rotate(78.38768602098031, -0.14051929209183667, -0.24803387507045327)"><path d="M -1 0 L 1 0 M 1 0 L 0.4 0.3 M 1 0 L 0.4 -0.3" transform="translate(-0.14051929209183667, -0.24803387507045327) scale(5.0e-2)"/></g></g><g stroke-opacity="1.0" fill="#a6cfe3" stroke="#0d0d0d" stroke-width="5.0e-2" fill-opacity="1.0"><g transform="rotate(87.0721562906961, -0.14051929209183667, -0.33493771325307964)"><path d="M -1 0 L 1 0 M 1 0 L 0.4 0.3 M 1 0 L 0.4 -0.3" transform="translate(-0.14051929209183667, -0.33493771325307964) scale(5.0e-2)"/></g></g><g stroke-opacity="1.0" fill="#a6cfe3" stroke="#0d0d0d" stroke-width="5.0e-2" fill-opacity="1.0"><g transform="rotate(91.775265785145, -0.14051929209183667, -0.4218415514357058)"><path d="M -1 0 L 1 0 M 1 0 L 0.4 0.3 M 1 0 L 0.4 -0.3" transform="translate(-0.14051929209183667, -0.4218415514357058) scale(5.0e-2)"/></g></g><g stroke-opacity="1.0" fill="#a6cfe3" stroke="#0d0d0d" stroke-width="5.0e-2" fill-opacity="1.0"><g transform="rotate(-71.63155263230772, -8.671396683673449e-3, 0.36029299220793115)"><path d="M -1 0 L 1 0 M 1 0 L 0.4 0.3 M 1 0 L 0.4 -0.3" transform="translate(-8.671396683673449e-3, 0.36029299220793115) scale(5.0e-2)"/></g></g><g stroke-opacity="1.0" fill="#a6cfe3" stroke="#0d0d0d" stroke-width="5.0e-2" fill-opacity="1.0"><g transform="rotate(-68.30375886013567, -8.671396683673449e-3, 0.27338915402530484)"><path d="M -1 0 L 1 0 M 1 0 L 0.4 0.3 M 1 0 L 0.4 -0.3" transform="translate(-8.671396683673449e-3, 0.27338915402530484) scale(5.0e-2)"/></g></g><g stroke-opacity="1.0" fill="#a6cfe3" stroke="#0d0d0d" stroke-width="5.0e-2" fill-opacity="1.0"><g transform="rotate(-62.713434447769245, -8.671396683673449e-3, 0.18648531584267847)"><path d="M -1 0 L 1 0 M 1 0 L 0.4 0.3 M 1 0 L 0.4 -0.3" transform="translate(-8.671396683673449e-3, 0.18648531584267847) scale(5.0e-2)"/></g></g><g stroke-opacity="1.0" fill="#a6cfe3" stroke="#0d0d0d" stroke-width="5.0e-2" fill-opacity="1.0"><g transform="rotate(-51.74335201662478, -8.671396683673449e-3, 9.95814776600521e-2)"><path d="M -1 0 L 1 0 M 1 0 L 0.4 0.3 M 1 0 L 0.4 -0.3" transform="translate(-8.671396683673449e-3, 9.95814776600521e-2) scale(5.0e-2)"/></g></g><g stroke-opacity="1.0" fill="#a6cfe3" stroke="#0d0d0d" stroke-width="5.0e-2" fill-opacity="1.0"><g transform="rotate(-25.463345061871607, -8.671396683673449e-3, 1.2677639477425784e-2)"><path d="M -1 0 L 1 0 M 1 0 L 0.4 0.3 M 1 0 L 0.4 -0.3" transform="translate(-8.671396683673449e-3, 1.2677639477425784e-2) scale(5.0e-2)"/></g></g><g stroke-opacity="1.0" fill="#a6cfe3" stroke="#0d0d0d" stroke-width="5.0e-2" fill-opacity="1.0"><g transform="rotate(25.352317626939044, -8.671396683673449e-3, -7.422619870520053e-2)"><path d="M -1 0 L 1 0 M 1 0 L 0.4 0.3 M 1 0 L 0.4 -0.3" transform="translate(-8.671396683673449e-3, -7.422619870520053e-2) scale(5.0e-2)"/></g></g><g stroke-opacity="1.0" fill="#a6cfe3" stroke="#0d0d0d" stroke-width="5.0e-2" fill-opacity="1.0"><g transform="rotate(58.539020075643705, -8.671396683673449e-3, -0.161130036887827)"><path d="M -1 0 L 1 0 M 1 0 L 0.4 0.3 M 1 0 L 0.4 -0.3" transform="translate(-8.671396683673449e-3, -0.161130036887827) scale(5.0e-2)"/></g></g><g stroke-opacity="1.0" fill="#a6cfe3" stroke="#0d0d0d" stroke-width="5.0e-2" fill-opacity="1.0"><g transform="rotate(72.03510627877053, -8.671396683673449e-3, -0.24803387507045327)"><path d="M -1 0 L 1 0 M 1 0 L 0.4 0.3 M 1 0 L 0.4 -0.3" transform="translate(-8.671396683673449e-3, -0.24803387507045327) scale(5.0e-2)"/></g></g><g stroke-opacity="1.0" fill="#a6cfe3" stroke="#0d0d0d" stroke-width="5.0e-2" fill-opacity="1.0"><g transform="rotate(78.57121322367863, -8.671396683673449e-3, -0.33493771325307964)"><path d="M -1 0 L 1 0 M 1 0 L 0.4 0.3 M 1 0 L 0.4 -0.3" transform="translate(-8.671396683673449e-3, -0.33493771325307964) scale(5.0e-2)"/></g></g><g stroke-opacity="1.0" fill="#a6cfe3" stroke="#0d0d0d" stroke-width="5.0e-2" fill-opacity="1.0"><g transform="rotate(82.33198654554482, -8.671396683673449e-3, -0.4218415514357058)"><path d="M -1 0 L 1 0 M 1 0 L 0.4 0.3 M 1 0 L 0.4 -0.3" transform="translate(-8.671396683673449e-3, -0.4218415514357058) scale(5.0e-2)"/></g></g><g stroke-opacity="1.0" fill="#a6cfe3" stroke="#0d0d0d" stroke-width="5.0e-2" fill-opacity="1.0"><g transform="rotate(-83.72582919707884, 0.12317649872448977, 0.36029299220793115)"><path d="M -1 0 L 1 0 M 1 0 L 0.4 0.3 M 1 0 L 0.4 -0.3" transform="translate(0.12317649872448977, 0.36029299220793115) scale(5.0e-2)"/></g></g><g stroke-opacity="1.0" fill="#a6cfe3" stroke="#0d0d0d" stroke-width="5.0e-2" fill-opacity="1.0"><g transform="rotate(-80.37960270065743, 0.12317649872448977, 0.27338915402530484)"><path d="M -1 0 L 1 0 M 1 0 L 0.4 0.3 M 1 0 L 0.4 -0.3" transform="translate(0.12317649872448977, 0.27338915402530484) scale(5.0e-2)"/></g></g><g stroke-opacity="1.0" fill="#a6cfe3" stroke="#0d0d0d" stroke-width="5.0e-2" fill-opacity="1.0"><g transform="rotate(-74.55784459620769, 0.12317649872448977, 0.18648531584267847)"><path d="M -1 0 L 1 0 M 1 0 L 0.4 0.3 M 1 0 L 0.4 -0.3" transform="translate(0.12317649872448977, 0.18648531584267847) scale(5.0e-2)"/></g></g><g stroke-opacity="1.0" fill="#a6cfe3" stroke="#0d0d0d" stroke-width="5.0e-2" fill-opacity="1.0"><g transform="rotate(-62.392645475723924, 0.12317649872448977, 9.95814776600521e-2)"><path d="M -1 0 L 1 0 M 1 0 L 0.4 0.3 M 1 0 L 0.4 -0.3" transform="translate(0.12317649872448977, 9.95814776600521e-2) scale(5.0e-2)"/></g></g><g stroke-opacity="1.0" fill="#a6cfe3" stroke="#0d0d0d" stroke-width="5.0e-2" fill-opacity="1.0"><g transform="rotate(-30.325850500388558, 0.12317649872448977, 1.2677639477425784e-2)"><path d="M -1 0 L 1 0 M 1 0 L 0.4 0.3 M 1 0 L 0.4 -0.3" transform="translate(0.12317649872448977, 1.2677639477425784e-2) scale(5.0e-2)"/></g></g><g stroke-opacity="1.0" fill="#a6cfe3" stroke="#0d0d0d" stroke-width="5.0e-2" fill-opacity="1.0"><g transform="rotate(25.463345061871614, 0.12317649872448977, -7.422619870520053e-2)"><path d="M -1 0 L 1 0 M 1 0 L 0.4 0.3 M 1 0 L 0.4 -0.3" transform="translate(0.12317649872448977, -7.422619870520053e-2) scale(5.0e-2)"/></g></g><g stroke-opacity="1.0" fill="#a6cfe3" stroke="#0d0d0d" stroke-width="5.0e-2" fill-opacity="1.0"><g transform="rotate(53.34825221466397, 0.12317649872448977, -0.161130036887827)"><path d="M -1 0 L 1 0 M 1 0 L 0.4 0.3 M 1 0 L 0.4 -0.3" transform="translate(0.12317649872448977, -0.161130036887827) scale(5.0e-2)"/></g></g><g stroke-opacity="1.0" fill="#a6cfe3" stroke="#0d0d0d" stroke-width="5.0e-2" fill-opacity="1.0"><g transform="rotate(64.18052078566551, 0.12317649872448977, -0.24803387507045327)"><path d="M -1 0 L 1 0 M 1 0 L 0.4 0.3 M 1 0 L 0.4 -0.3" transform="translate(0.12317649872448977, -0.24803387507045327) scale(5.0e-2)"/></g></g><g stroke-opacity="1.0" fill="#a6cfe3" stroke="#0d0d0d" stroke-width="5.0e-2" fill-opacity="1.0"><g transform="rotate(69.52530867630297, 0.12317649872448977, -0.33493771325307964)"><path d="M -1 0 L 1 0 M 1 0 L 0.4 0.3 M 1 0 L 0.4 -0.3" transform="translate(0.12317649872448977, -0.33493771325307964) scale(5.0e-2)"/></g></g><g stroke-opacity="1.0" fill="#a6cfe3" stroke="#0d0d0d" stroke-width="5.0e-2" fill-opacity="1.0"><g transform="rotate(72.65691141186667, 0.12317649872448977, -0.4218415514357058)"><path d="M -1 0 L 1 0 M 1 0 L 0.4 0.3 M 1 0 L 0.4 -0.3" transform="translate(0.12317649872448977, -0.4218415514357058) scale(5.0e-2)"/></g></g><g stroke-opacity="1.0" fill="#a6cfe3" stroke="#0d0d0d" stroke-width="5.0e-2" fill-opacity="1.0"><g transform="rotate(-96.84875031477206, 0.2550243941326533, 0.36029299220793115)"><path d="M -1 0 L 1 0 M 1 0 L 0.4 0.3 M 1 0 L 0.4 -0.3" transform="translate(0.2550243941326533, 0.36029299220793115) scale(5.0e-2)"/></g></g><g stroke-opacity="1.0" fill="#a6cfe3" stroke="#0d0d0d" stroke-width="5.0e-2" fill-opacity="1.0"><g transform="rotate(-94.10747809603637, 0.2550243941326533, 0.27338915402530484)"><path d="M -1 0 L 1 0 M 1 0 L 0.4 0.3 M 1 0 L 0.4 -0.3" transform="translate(0.2550243941326533, 0.27338915402530484) scale(5.0e-2)"/></g></g><g stroke-opacity="1.0" fill="#a6cfe3" stroke="#0d0d0d" stroke-width="5.0e-2" fill-opacity="1.0"><g transform="rotate(-89.31668823842175, 0.2550243941326533, 0.18648531584267847)"><path d="M -1 0 L 1 0 M 1 0 L 0.4 0.3 M 1 0 L 0.4 -0.3" transform="translate(0.2550243941326533, 0.18648531584267847) scale(5.0e-2)"/></g></g><g stroke-opacity="1.0" fill="#a6cfe3" stroke="#0d0d0d" stroke-width="5.0e-2" fill-opacity="1.0"><g transform="rotate(-79.0898362236076, 0.2550243941326533, 9.95814776600521e-2)"><path d="M -1 0 L 1 0 M 1 0 L 0.4 0.3 M 1 0 L 0.4 -0.3" transform="translate(0.2550243941326533, 9.95814776600521e-2) scale(5.0e-2)"/></g></g><g stroke-opacity="1.0" fill="#a6cfe3" stroke="#0d0d0d" stroke-width="5.0e-2" fill-opacity="1.0"><g transform="rotate(-48.89810671661513, 0.2550243941326533, 1.2677639477425784e-2)"><path d="M -1 0 L 1 0 M 1 0 L 0.4 0.3 M 1 0 L 0.4 -0.3" transform="translate(0.2550243941326533, 1.2677639477425784e-2) scale(5.0e-2)"/></g></g><g stroke-opacity="1.0" fill="#a6cfe3" stroke="#0d0d0d" stroke-width="5.0e-2" fill-opacity="1.0"><g transform="rotate(16.431113233075703, 0.2550243941326533, -7.422619870520053e-2)"><path d="M -1 0 L 1 0 M 1 0 L 0.4 0.3 M 1 0 L 0.4 -0.3" transform="translate(0.2550243941326533, -7.422619870520053e-2) scale(5.0e-2)"/></g></g><g stroke-opacity="1.0" fill="#a6cfe3" stroke="#0d0d0d" stroke-width="5.0e-2" fill-opacity="1.0"><g transform="rotate(45.97102193107918, 0.2550243941326533, -0.161130036887827)"><path d="M -1 0 L 1 0 M 1 0 L 0.4 0.3 M 1 0 L 0.4 -0.3" transform="translate(0.2550243941326533, -0.161130036887827) scale(5.0e-2)"/></g></g><g stroke-opacity="1.0" fill="#a6cfe3" stroke="#0d0d0d" stroke-width="5.0e-2" fill-opacity="1.0"><g transform="rotate(56.03475263569897, 0.2550243941326533, -0.24803387507045327)"><path d="M -1 0 L 1 0 M 1 0 L 0.4 0.3 M 1 0 L 0.4 -0.3" transform="translate(0.2550243941326533, -0.24803387507045327) scale(5.0e-2)"/></g></g><g stroke-opacity="1.0" fill="#a6cfe3" stroke="#0d0d0d" stroke-width="5.0e-2" fill-opacity="1.0"><g transform="rotate(60.77115498628979, 0.2550243941326533, -0.33493771325307964)"><path d="M -1 0 L 1 0 M 1 0 L 0.4 0.3 M 1 0 L 0.4 -0.3" transform="translate(0.2550243941326533, -0.33493771325307964) scale(5.0e-2)"/></g></g><g stroke-opacity="1.0" fill="#a6cfe3" stroke="#0d0d0d" stroke-width="5.0e-2" fill-opacity="1.0"><g transform="rotate(63.48858398583044, 0.2550243941326533, -0.4218415514357058)"><path d="M -1 0 L 1 0 M 1 0 L 0.4 0.3 M 1 0 L 0.4 -0.3" transform="translate(0.2550243941326533, -0.4218415514357058) scale(5.0e-2)"/></g></g><g stroke-opacity="1.0" fill="#a6cfe3" stroke="#0d0d0d" stroke-width="5.0e-2" fill-opacity="1.0"><g transform="rotate(-109.476575498932, 0.3868722895408164, 0.36029299220793115)"><path d="M -1 0 L 1 0 M 1 0 L 0.4 0.3 M 1 0 L 0.4 -0.3" transform="translate(0.3868722895408164, 0.36029299220793115) scale(5.0e-2)"/></g></g><g stroke-opacity="1.0" fill="#a6cfe3" stroke="#0d0d0d" stroke-width="5.0e-2" fill-opacity="1.0"><g transform="rotate(-107.65012421993012, 0.3868722895408164, 0.27338915402530484)"><path d="M -1 0 L 1 0 M 1 0 L 0.4 0.3 M 1 0 L 0.4 -0.3" transform="translate(0.3868722895408164, 0.27338915402530484) scale(5.0e-2)"/></g></g><g stroke-opacity="1.0" fill="#a6cfe3" stroke="#0d0d0d" stroke-width="5.0e-2" fill-opacity="1.0"><g transform="rotate(-104.57421619803874, 0.3868722895408164, 0.18648531584267847)"><path d="M -1 0 L 1 0 M 1 0 L 0.4 0.3 M 1 0 L 0.4 -0.3" transform="translate(0.3868722895408164, 0.18648531584267847) scale(5.0e-2)"/></g></g><g stroke-opacity="1.0" fill="#a6cfe3" stroke="#0d0d0d" stroke-width="5.0e-2" fill-opacity="1.0"><g transform="rotate(-98.3658861240326, 0.3868722895408164, 9.95814776600521e-2)"><path d="M -1 0 L 1 0 M 1 0 L 0.4 0.3 M 1 0 L 0.4 -0.3" transform="translate(0.3868722895408164, 9.95814776600521e-2) scale(5.0e-2)"/></g></g><g stroke-opacity="1.0" fill="#a6cfe3" stroke="#0d0d0d" stroke-width="5.0e-2" fill-opacity="1.0"><g transform="rotate(-80.5376777919744, 0.3868722895408164, 1.2677639477425784e-2)"><path d="M -1 0 L 1 0 M 1 0 L 0.4 0.3 M 1 0 L 0.4 -0.3" transform="translate(0.3868722895408164, 1.2677639477425784e-2) scale(5.0e-2)"/></g></g><g stroke-opacity="1.0" fill="#a6cfe3" stroke="#0d0d0d" stroke-width="5.0e-2" fill-opacity="1.0"><g transform="rotate(-10.304846468766057, 0.3868722895408164, -7.422619870520053e-2)"><path d="M -1 0 L 1 0 M 1 0 L 0.4 0.3 M 1 0 L 0.4 -0.3" transform="translate(0.3868722895408164, -7.422619870520053e-2) scale(5.0e-2)"/></g></g><g stroke-opacity="1.0" fill="#a6cfe3" stroke="#0d0d0d" stroke-width="5.0e-2" fill-opacity="1.0"><g transform="rotate(36.3843518158359, 0.3868722895408164, -0.161130036887827)"><path d="M -1 0 L 1 0 M 1 0 L 0.4 0.3 M 1 0 L 0.4 -0.3" transform="translate(0.3868722895408164, -0.161130036887827) scale(5.0e-2)"/></g></g><g stroke-opacity="1.0" fill="#a6cfe3" stroke="#0d0d0d" stroke-width="5.0e-2" fill-opacity="1.0"><g transform="rotate(48.012787504183336, 0.3868722895408164, -0.24803387507045327)"><path d="M -1 0 L 1 0 M 1 0 L 0.4 0.3 M 1 0 L 0.4 -0.3" transform="translate(0.3868722895408164, -0.24803387507045327) scale(5.0e-2)"/></g></g><g stroke-opacity="1.0" fill="#a6cfe3" stroke="#0d0d0d" stroke-width="5.0e-2" fill-opacity="1.0"><g transform="rotate(52.73359809902285, 0.3868722895408164, -0.33493771325307964)"><path d="M -1 0 L 1 0 M 1 0 L 0.4 0.3 M 1 0 L 0.4 -0.3" transform="translate(0.3868722895408164, -0.33493771325307964) scale(5.0e-2)"/></g></g><g stroke-opacity="1.0" fill="#a6cfe3" stroke="#0d0d0d" stroke-width="5.0e-2" fill-opacity="1.0"><g transform="rotate(55.2568198416964, 0.3868722895408164, -0.4218415514357058)"><path d="M -1 0 L 1 0 M 1 0 L 0.4 0.3 M 1 0 L 0.4 -0.3" transform="translate(0.3868722895408164, -0.4218415514357058) scale(5.0e-2)"/></g></g><g stroke-opacity="1.0" fill="#a6cfe3" stroke="#0d0d0d" stroke-width="5.0e-2" fill-opacity="1.0"><g transform="rotate(-120.39004059367852, 0.5187201849489796, 0.36029299220793115)"><path d="M -1 0 L 1 0 M 1 0 L 0.4 0.3 M 1 0 L 0.4 -0.3" transform="translate(0.5187201849489796, 0.36029299220793115) scale(5.0e-2)"/></g></g><g stroke-opacity="1.0" fill="#a6cfe3" stroke="#0d0d0d" stroke-width="5.0e-2" fill-opacity="1.0"><g transform="rotate(-119.3548748641938, 0.5187201849489796, 0.27338915402530484)"><path d="M -1 0 L 1 0 M 1 0 L 0.4 0.3 M 1 0 L 0.4 -0.3" transform="translate(0.5187201849489796, 0.27338915402530484) scale(5.0e-2)"/></g></g><g stroke-opacity="1.0" fill="#a6cfe3" stroke="#0d0d0d" stroke-width="5.0e-2" fill-opacity="1.0"><g transform="rotate(-117.72207677286721, 0.5187201849489796, 0.18648531584267847)"><path d="M -1 0 L 1 0 M 1 0 L 0.4 0.3 M 1 0 L 0.4 -0.3" transform="translate(0.5187201849489796, 0.18648531584267847) scale(5.0e-2)"/></g></g><g stroke-opacity="1.0" fill="#a6cfe3" stroke="#0d0d0d" stroke-width="5.0e-2" fill-opacity="1.0"><g transform="rotate(-114.77180709318333, 0.5187201849489796, 9.95814776600521e-2)"><path d="M -1 0 L 1 0 M 1 0 L 0.4 0.3 M 1 0 L 0.4 -0.3" transform="translate(0.5187201849489796, 9.95814776600521e-2) scale(5.0e-2)"/></g></g><g stroke-opacity="1.0" fill="#a6cfe3" stroke="#0d0d0d" stroke-width="5.0e-2" fill-opacity="1.0"><g transform="rotate(-107.91023110297346, 0.5187201849489796, 1.2677639477425784e-2)"><path d="M -1 0 L 1 0 M 1 0 L 0.4 0.3 M 1 0 L 0.4 -0.3" transform="translate(0.5187201849489796, 1.2677639477425784e-2) scale(5.0e-2)"/></g></g><g stroke-opacity="1.0" fill="#a6cfe3" stroke="#0d0d0d" stroke-width="5.0e-2" fill-opacity="1.0"><g transform="rotate(-78.88016563239884, 0.5187201849489796, -7.422619870520053e-2)"><path d="M -1 0 L 1 0 M 1 0 L 0.4 0.3 M 1 0 L 0.4 -0.3" transform="translate(0.5187201849489796, -7.422619870520053e-2) scale(5.0e-2)"/></g></g><g stroke-opacity="1.0" fill="#a6cfe3" stroke="#0d0d0d" stroke-width="5.0e-2" fill-opacity="1.0"><g transform="rotate(18.07717429682483, 0.5187201849489796, -0.161130036887827)"><path d="M -1 0 L 1 0 M 1 0 L 0.4 0.3 M 1 0 L 0.4 -0.3" transform="translate(0.5187201849489796, -0.161130036887827) scale(5.0e-2)"/></g></g><g stroke-opacity="1.0" fill="#a6cfe3" stroke="#0d0d0d" stroke-width="5.0e-2" fill-opacity="1.0"><g transform="rotate(39.57646251047537, 0.5187201849489796, -0.24803387507045327)"><path d="M -1 0 L 1 0 M 1 0 L 0.4 0.3 M 1 0 L 0.4 -0.3" transform="translate(0.5187201849489796, -0.24803387507045327) scale(5.0e-2)"/></g></g><g stroke-opacity="1.0" fill="#a6cfe3" stroke="#0d0d0d" stroke-width="5.0e-2" fill-opacity="1.0"><g transform="rotate(45.412192741402315, 0.5187201849489796, -0.33493771325307964)"><path d="M -1 0 L 1 0 M 1 0 L 0.4 0.3 M 1 0 L 0.4 -0.3" transform="translate(0.5187201849489796, -0.33493771325307964) scale(5.0e-2)"/></g></g><g stroke-opacity="1.0" fill="#a6cfe3" stroke="#0d0d0d" stroke-width="5.0e-2" fill-opacity="1.0"><g transform="rotate(48.061152646549644, 0.5187201849489796, -0.4218415514357058)"><path d="M -1 0 L 1 0 M 1 0 L 0.4 0.3 M 1 0 L 0.4 -0.3" transform="translate(0.5187201849489796, -0.4218415514357058) scale(5.0e-2)"/></g></g><g stroke-opacity="1.0" fill="#a6cfe3" stroke="#0d0d0d" stroke-width="5.0e-2" fill-opacity="1.0"><g transform="rotate(-129.20442853819998, 0.6505680803571426, 0.36029299220793115)"><path d="M -1 0 L 1 0 M 1 0 L 0.4 0.3 M 1 0 L 0.4 -0.3" transform="translate(0.6505680803571426, 0.36029299220793115) scale(5.0e-2)"/></g></g><g stroke-opacity="1.0" fill="#a6cfe3" stroke="#0d0d0d" stroke-width="5.0e-2" fill-opacity="1.0"><g transform="rotate(-128.6756131139764, 0.6505680803571426, 0.27338915402530484)"><path d="M -1 0 L 1 0 M 1 0 L 0.4 0.3 M 1 0 L 0.4 -0.3" transform="translate(0.6505680803571426, 0.27338915402530484) scale(5.0e-2)"/></g></g><g stroke-opacity="1.0" fill="#a6cfe3" stroke="#0d0d0d" stroke-width="5.0e-2" fill-opacity="1.0"><g transform="rotate(-127.8990823601365, 0.6505680803571426, 0.18648531584267847)"><path d="M -1 0 L 1 0 M 1 0 L 0.4 0.3 M 1 0 L 0.4 -0.3" transform="translate(0.6505680803571426, 0.18648531584267847) scale(5.0e-2)"/></g></g><g stroke-opacity="1.0" fill="#a6cfe3" stroke="#0d0d0d" stroke-width="5.0e-2" fill-opacity="1.0"><g transform="rotate(-126.64820118726841, 0.6505680803571426, 9.95814776600521e-2)"><path d="M -1 0 L 1 0 M 1 0 L 0.4 0.3 M 1 0 L 0.4 -0.3" transform="translate(0.6505680803571426, 9.95814776600521e-2) scale(5.0e-2)"/></g></g><g stroke-opacity="1.0" fill="#a6cfe3" stroke="#0d0d0d" stroke-width="5.0e-2" fill-opacity="1.0"><g transform="rotate(-124.30095672615316, 0.6505680803571426, 1.2677639477425784e-2)"><path d="M -1 0 L 1 0 M 1 0 L 0.4 0.3 M 1 0 L 0.4 -0.3" transform="translate(0.6505680803571426, 1.2677639477425784e-2) scale(5.0e-2)"/></g></g><g stroke-opacity="1.0" fill="#a6cfe3" stroke="#0d0d0d" stroke-width="5.0e-2" fill-opacity="1.0"><g transform="rotate(-118.3399495893263, 0.6505680803571426, -7.422619870520053e-2)"><path d="M -1 0 L 1 0 M 1 0 L 0.4 0.3 M 1 0 L 0.4 -0.3" transform="translate(0.6505680803571426, -7.422619870520053e-2) scale(5.0e-2)"/></g></g><g stroke-opacity="1.0" fill="#a6cfe3" stroke="#0d0d0d" stroke-width="5.0e-2" fill-opacity="1.0"><g transform="rotate(-81.6026974133102, 0.6505680803571426, -0.161130036887827)"><path d="M -1 0 L 1 0 M 1 0 L 0.4 0.3 M 1 0 L 0.4 -0.3" transform="translate(0.6505680803571426, -0.161130036887827) scale(5.0e-2)"/></g></g><g stroke-opacity="1.0" fill="#a6cfe3" stroke="#0d0d0d" stroke-width="5.0e-2" fill-opacity="1.0"><g transform="rotate(25.916669828467207, 0.6505680803571426, -0.24803387507045327)"><path d="M -1 0 L 1 0 M 1 0 L 0.4 0.3 M 1 0 L 0.4 -0.3" transform="translate(0.6505680803571426, -0.24803387507045327) scale(5.0e-2)"/></g></g><g stroke-opacity="1.0" fill="#a6cfe3" stroke="#0d0d0d" stroke-width="5.0e-2" fill-opacity="1.0"><g transform="rotate(38.15385704023621, 0.6505680803571426, -0.33493771325307964)"><path d="M -1 0 L 1 0 M 1 0 L 0.4 0.3 M 1 0 L 0.4 -0.3" transform="translate(0.6505680803571426, -0.33493771325307964) scale(5.0e-2)"/></g></g><g stroke-opacity="1.0" fill="#a6cfe3" stroke="#0d0d0d" stroke-width="5.0e-2" fill-opacity="1.0"><g transform="rotate(41.70388402745369, 0.6505680803571426, -0.4218415514357058)"><path d="M -1 0 L 1 0 M 1 0 L 0.4 0.3 M 1 0 L 0.4 -0.3" transform="translate(0.6505680803571426, -0.4218415514357058) scale(5.0e-2)"/></g></g></g></g><g class="hud"><g class="frame"><g stroke-opacity="0.0" fill="#ffffff" stroke="#000000" stroke-width="0.0" fill-opacity="2.0e-2"><rect width="1.3184789540816326" x="-0.6019869260204082" y="-0.4652934705270191" height="0.8690383818262635"/></g></g><g class="axis"><g class="ticks"><g class="tickglyph"><g stroke-opacity="0.4" fill="#0d0d0d" stroke="#0d0d0d" stroke-width="4.0e-3" fill-opacity="0.4"><g transform="rotate(-90.0, -0.6283565051020408, 0.40374491129924434)"><polyline points="-0.6283565051020408,0.41874491129924435
-0.6283565051020408,0.3887449112992443"/></g><g transform="rotate(-90.0, -0.6283565051020408, 0.316841073116618)"><polyline points="-0.6283565051020408,0.33184107311661803
-0.6283565051020408,0.301841073116618"/></g><g transform="rotate(-90.0, -0.6283565051020408, 0.2299372349339916)"><polyline points="-0.6283565051020408,0.2449372349339916
-0.6283565051020408,0.21493723493399158"/></g><g transform="rotate(-90.0, -0.6283565051020408, 0.14303339675136523)"><polyline points="-0.6283565051020408,0.15803339675136524
-0.6283565051020408,0.1280333967513652"/></g><g transform="rotate(-90.0, -0.6283565051020408, 5.612955856873891e-2)"><polyline points="-0.6283565051020408,7.112955856873891e-2
-0.6283565051020408,4.1129558568738914e-2"/></g><g transform="rotate(-90.0, -0.6283565051020408, -3.0774279613887456e-2)"><polyline points="-0.6283565051020408,-1.5774279613887457e-2
-0.6283565051020408,-4.5774279613887456e-2"/></g><g transform="rotate(-90.0, -0.6283565051020408, -0.11767811779651383)"><polyline points="-0.6283565051020408,-0.10267811779651383
-0.6283565051020408,-0.13267811779651384"/></g><g transform="rotate(-90.0, -0.6283565051020408, -0.2045819559791402)"><polyline points="-0.6283565051020408,-0.18958195597914018
-0.6283565051020408,-0.2195819559791402"/></g><g transform="rotate(-90.0, -0.6283565051020408, -0.29148579416176645)"><polyline points="-0.6283565051020408,-0.27648579416176644
-0.6283565051020408,-0.30648579416176647"/></g><g transform="rotate(-90.0, -0.6283565051020408, -0.3783896323443928)"><polyline points="-0.6283565051020408,-0.3633896323443928
-0.6283565051020408,-0.39338963234439284"/></g><g transform="rotate(-90.0, -0.6283565051020408, -0.4652934705270191)"><polyline points="-0.6283565051020408,-0.45029347052701907
-0.6283565051020408,-0.4802934705270191"/></g></g></g><g class="ticktext"><g fill="#0d0d0d" stroke="none" stroke-width="0.0" font-size="4.3949298469387756e-2" fill-opacity="1.0" text-anchor="end"><text x="-0.66" y="0.4156941890493555">-0.5</text><text x="-0.66" y="0.32879035086672914">-0.4</text><text x="-0.66" y="0.24188651268410272">-0.3</text><text x="-0.66" y="0.1549826745014764">-0.2</text><text x="-0.66" y="6.807883631885003e-2">-0.1</text><text x="-0.66" y="-1.8825001863776225e-2">0</text><text x="-0.66" y="-0.1057288400464026">0.1</text><text x="-0.66" y="-0.19263267822902896">0.2</text><text x="-0.66" y="-0.2795365164116552">0.3</text><text x="-0.66" y="-0.3664403545942817">0.4</text><text x="-0.66" y="-0.45334419277690796">0.5</text></g></g></g><g class="axisbar"><g stroke-opacity="0.0" fill="#0d0d0d" stroke="#000000" stroke-width="0.0" fill-opacity="0.4"><rect width="3.515943877551053e-3" x="-0.6142927295918368" y="-0.46703154729067153" height="0.8725145353535684"/></g></g></g><g class="axis"><g class="ticks"><g class="tickglyph"><g stroke-opacity="0.4" fill="#0d0d0d" stroke="#0d0d0d" stroke-width="4.0e-3" fill-opacity="0.4"><polyline points="-0.6019869260204082,0.4448160627540323
-0.6019869260204082,0.41481606275403227"/><polyline points="-0.47013903061224493,0.4448160627540323
-0.47013903061224493,0.41481606275403227"/><polyline points="-0.3382911352040816,0.4448160627540323
-0.3382911352040816,0.41481606275403227"/><polyline points="-0.20644323979591833,0.4448160627540323
-0.20644323979591833,0.41481606275403227"/><polyline points="-7.459534438775506e-2,0.4448160627540323
-7.459534438775506e-2,0.41481606275403227"/><polyline points="5.725255102040816e-2,0.4448160627540323
5.725255102040816e-2,0.41481606275403227"/><polyline points="0.1891004464285716,0.4448160627540323
0.1891004464285716,0.41481606275403227"/><polyline points="0.3209483418367347,0.4448160627540323
0.3209483418367347,0.41481606275403227"/><polyline points="0.45279623724489804,0.4448160627540323
0.45279623724489804,0.41481606275403227"/><polyline points="0.5846441326530613,0.4448160627540323
0.5846441326530613,0.41481606275403227"/><polyline points="0.7164920280612245,0.4448160627540323
0.7164920280612245,0.41481606275403227"/></g></g><g class="ticktext"><g fill="#0d0d0d" stroke="none" stroke-width="0.0" font-size="4.3949298469387756e-2" fill-opacity="1.0" text-anchor="middle"><text x="-0.6019869260204082" y="0.485">-0.5</text><text x="-0.47013903061224493" y="0.485">-0.4</text><text x="-0.3382911352040816" y="0.485">-0.3</text><text x="-0.20644323979591833" y="0.485">-0.2</text><text x="-7.459534438775506e-2" y="0.485">-0.1</text><text x="5.725255102040816e-2" y="0.485">0</text><text x="0.1891004464285716" y="0.485">0.1</text><text x="0.3209483418367347" y="0.485">0.2</text><text x="0.45279623724489804" y="0.485">0.3</text><text x="0.5846441326530613" y="0.485">0.4</text><text x="0.7164920280612245" y="0.485">0.5</text></g></g></g><g class="axisbar"><g stroke-opacity="0.0" fill="#0d0d0d" stroke="#000000" stroke-width="0.0" fill-opacity="0.4"><rect width="1.3219948979591836" x="-0.6037448979591836" y="0.412435295117507" height="3.476153527305015e-3"/></g></g></g></g></svg>