<svg width="444.11491267569085" xmlns:xlink="http://www.w3.org/1999/xlink" xmlns="http://www.w3.org/2000/svg" viewBox="-0.77 -0.5201973130890104 1.54 1.0402713054973893" height="300.0"><style>svg {
  color-scheme: light dark;
}
@media (prefers-color-scheme:dark) {
  svg {
    background-color: #f0f0f0;
  }
}</style><g stroke-opacity="0.0" fill="#0d0d0d" stroke="#000000" stroke-width="0.0" fill-opacity="0.4"><rect width="3.5634743875277985e-3" x="-0.6288418708240534" y="-0.47851605758582494" height="0.8894795127353265"/></g><g stroke-opacity="0.4" fill="#0d0d0d" stroke="#0d0d0d" stroke-width="4.0e-3" fill-opacity="0.4"><g transform="rotate(-90.0, -0.6430957683741648, 0.40919158361018826)"><polyline points="-0.6430957683741648,0.42419158361018827
-0.6430957683741648,0.39419158361018825"/></g><g transform="rotate(-90.0, -0.6430957683741648, 0.3205980066445183)"><polyline points="-0.6430957683741648,0.33559800664451833
-0.6430957683741648,0.3055980066445183"/></g><g transform="rotate(-90.0, -0.6430957683741648, 0.23200442967884827)"><polyline points="-0.6430957683741648,0.24700442967884828
-0.6430957683741648,0.21700442967884825"/></g><g transform="rotate(-90.0, -0.6430957683741648, 0.14341085271317827)"><polyline points="-0.6430957683741648,0.15841085271317829
-0.6430957683741648,0.12841085271317826"/></g><g transform="rotate(-90.0, -0.6430957683741648, 5.481727574750833e-2)"><polyline points="-0.6430957683741648,6.981727574750833e-2
-0.6430957683741648,3.981727574750833e-2"/></g><g transform="rotate(-90.0, -0.6430957683741648, -3.3776301218161664e-2)"><polyline points="-0.6430957683741648,-1.8776301218161665e-2
-0.6430957683741648,-4.877630121816166e-2"/></g><g transform="rotate(-90.0, -0.6430957683741648, -0.12236987818383172)"><polyline points="-0.6430957683741648,-0.10736987818383172
-0.6430957683741648,-0.13736987818383173"/></g><g transform="rotate(-90.0, -0.6430957683741648, -0.21096345514950166)"><polyline points="-0.6430957683741648,-0.19596345514950164
-0.6430957683741648,-0.22596345514950167"/></g><g transform="rotate(-90.0, -0.6430957683741648, -0.2995570321151716)"><polyline points="-0.6430957683741648,-0.2845570321151716
-0.6430957683741648,-0.3145570321151716"/></g><g transform="rotate(-90.0, -0.6430957683741648, -0.3881506090808414)"><polyline points="-0.6430957683741648,-0.3731506090808414
-0.6430957683741648,-0.40315060908084144"/></g><g transform="rotate(-90.0, -0.6430957683741648, -0.4767441860465115)"><polyline points="-0.6430957683741648,-0.46174418604651146
-0.6430957683741648,-0.4917441860465115"/></g></g><g fill="#0d0d0d" stroke="none" stroke-width="0.0" font-size="4.4543429844098e-2" fill-opacity="1.0" text-anchor="end"><text x="-0.6698218262806236" y="0.4213732004429679">-0.5</text><text x="-0.6698218262806236" y="0.3327796234772979">-0.4</text><text x="-0.6698218262806236" y="0.2441860465116279">-0.3</text><text x="-0.6698218262806236" y="0.15559246954595796">-0.2</text><text x="-0.6698218262806236" y="6.699889258028796e-2">-0.1</text><text x="-0.6698218262806236" y="-2.1594684385381924e-2">0</text><text x="-0.6698218262806236" y="-0.11018826135105197">0.1</text><text x="-0.6698218262806236" y="-0.19878183831672191">0.2</text><text x="-0.6698218262806236" y="-0.2873754152823921">0.3</text><text x="-0.6698218262806236" y="-0.3759689922480619">0.4</text><text x="-0.6698218262806236" y="-0.46456256921373196">0.5</text></g><g stroke-opacity="0.0" fill="#0d0d0d" stroke="#000000" stroke-width="0.0" fill-opacity="0.4"><rect width="1.3398663697104678" x="-0.6181514476614699" y="0.41805094130675524" height="3.5437430786268154e-3"/></g><g stroke-opacity="0.4" fill="#0d0d0d" stroke="#0d0d0d" stroke-width="4.0e-3" fill-opacity="0.4"><polyline points="-0.616369710467706,0.4507696566998893
-0.616369710467706,0.42076965669988925"/><polyline points="-0.48273942093541206,0.4507696566998893
-0.48273942093541206,0.42076965669988925"/><polyline points="-0.34910913140311794,0.4507696566998893
-0.34910913140311794,0.42076965669988925"/><polyline points="-0.2154788418708239,0.4507696566998893
-0.2154788418708239,0.42076965669988925"/><polyline points="-8.184855233852983e-2,0.4507696566998893
-8.184855233852983e-2,0.42076965669988925"/><polyline points="5.1781737193764e-2,0.4507696566998893
5.1781737193764e-2,0.42076965669988925"/><polyline points="0.18541202672605828,0.4507696566998893
0.18541202672605828,0.42076965669988925"/><polyline points="0.3190423162583522,0.4507696566998893
0.3190423162583522,0.42076965669988925"/><polyline points="0.4526726057906463,0.4507696566998893
0.4526726057906463,0.42076965669988925"/><polyline points="0.5863028953229401,0.4507696566998893
0.5863028953229401,0.42076965669988925"/><polyline points="0.7199331848552339,0.4507696566998893
0.7199331848552339,0.42076965669988925"/></g><g fill="#0d0d0d" stroke="none" stroke-width="0.0" font-size="4.4543429844098e-2" fill-opacity="1.0" text-anchor="middle"><text x="-0.616369710467706" y="0.48671096345514947">-0.5</text><text x="-0.48273942093541206" y="0.48671096345514947">-0.4</text><text x="-0.34910913140311794" y="0.48671096345514947">-0.3</text><text x="-0.2154788418708239" y="0.48671096345514947">-0.2</text><text x="-8.184855233852983e-2" y="0.48671096345514947">-0.1</text><text x="5.1781737193764e-2" y="0.48671096345514947">0</text><text x="0.18541202672605828" y="0.48671096345514947">0.1</text><text x="0.3190423162583522" y="0.48671096345514947">0.2</text><text x="0.4526726057906463" y="0.48671096345514947">0.3</text><text x="0.5863028953229401" y="0.48671096345514947">0.4</text><text x="0.7199331848552339" y="0.48671096345514947">0.5</text></g><g stroke-opacity="0.0" fill="#ffffff" stroke="#000000" stroke-width="0.0" fill-opacity="2.0e-2"><rect width="1.3363028953229399" x="-0.616369710467706" y="-0.4767441860465115" height="0.8859357696566997"/></g><g stroke-opacity="1.0" fill="#a6cfe3" stroke="#0d0d0d" stroke-width="5.0e-2" fill-opacity="1.0"><g transform="rotate(-41.70388402745369, -0.549554565701559, 0.36489479512735323)"><path d="M -1 0 L 1 0 M 1 0 L 0.4 0.3 M 1 0 L 0.4 -0.3" transform="translate(-0.549554565701559, 0.36489479512735323) scale(5.0e-2)"/></g></g><g stroke-opacity="1.0" fill="#a6cfe3" stroke="#0d0d0d" stroke-width="5.0e-2" fill-opacity="1.0"><g transform="rotate(-40.703991576050946, -0.549554565701559, 0.2763012181616833)"><path d="M -1 0 L 1 0 M 1 0 L 0.4 0.3 M 1 0 L 0.4 -0.3" transform="translate(-0.549554565701559, 0.2763012181616833) scale(5.0e-2)"/></g></g><g stroke-opacity="1.0" fill="#a6cfe3" stroke="#0d0d0d" stroke-width="5.0e-2" fill-opacity="1.0"><g transform="rotate(-39.33034350353967, -0.549554565701559, 0.1877076411960133)"><path d="M -1 0 L 1 0 M 1 0 L 0.4 0.3 M 1 0 L 0.4 -0.3" transform="translate(-0.549554565701559, 0.1877076411960133) scale(5.0e-2)"/></g></g><g stroke-opacity="1.0" fill="#a6cfe3" stroke="#0d0d0d" stroke-width="5.0e-2" fill-opacity="1.0"><g transform="rotate(-37.32821468040517, -0.549554565701559, 9.91140642303433e-2)"><path d="M -1 0 L 1 0 M 1 0 L 0.4 0.3 M 1 0 L 0.4 -0.3" transform="translate(-0.549554565701559, 9.91140642303433e-2) scale(5.0e-2)"/></g></g><g stroke-opacity="1.0" fill="#a6cfe3" stroke="#0d0d0d" stroke-width="5.0e-2" fill-opacity="1.0"><g transform="rotate(-34.14934249468909, -0.549554565701559, 1.0520487264673417e-2)"><path d="M -1 0 L 1 0 M 1 0 L 0.4 0.3 M 1 0 L 0.4 -0.3" transform="translate(-0.549554565701559, 1.0520487264673417e-2) scale(5.0e-2)"/></g></g><g stroke-opacity="1.0" fill="#a6cfe3" stroke="#0d0d0d" stroke-width="5.0e-2" fill-opacity="1.0"><g transform="rotate(-28.38240378414633, -0.549554565701559, -7.807308970099669e-2)"><path d="M -1 0 L 1 0 M 1 0 L 0.4 0.3 M 1 0 L 0.4 -0.3" transform="translate(-0.549554565701559, -7.807308970099669e-2) scale(5.0e-2)"/></g></g><g stroke-opacity="1.0" fill="#a6cfe3" stroke="#0d0d0d" stroke-width="5.0e-2" fill-opacity="1.0"><g transform="rotate(-15.274030281041826, -0.549554565701559, -0.16666666666666674)"><path d="M -1 0 L 1 0 M 1 0 L 0.4 0.3 M 1 0 L 0.4 -0.3" transform="translate(-0.549554565701559, -0.16666666666666674) scale(5.0e-2)"/></g></g><g stroke-opacity="1.0" fill="#a6cfe3" stroke="#0d0d0d" stroke-width="5.0e-2" fill-opacity="1.0"><g transform="rotate(24.917115262331563, -0.549554565701559, -0.25526024363233657)"><path d="M -1 0 L 1 0 M 1 0 L 0.4 0.3 M 1 0 L 0.4 -0.3" transform="translate(-0.549554565701559, -0.25526024363233657) scale(5.0e-2)"/></g></g><g stroke-opacity="1.0" fill="#a6cfe3" stroke="#0d0d0d" stroke-width="5.0e-2" fill-opacity="1.0"><g transform="rotate(85.25243231067934, -0.549554565701559, -0.3438538205980066)"><path d="M -1 0 L 1 0 M 1 0 L 0.4 0.3 M 1 0 L 0.4 -0.3" transform="translate(-0.549554565701559, -0.3438538205980066) scale(5.0e-2)"/></g></g><g stroke-opacity="1.0" fill="#a6cfe3" stroke="#0d0d0d" stroke-width="5.0e-2" fill-opacity="1.0"><g transform="rotate(107.43966356457298, -0.549554565701559, -0.43244739756367645)"><path d="M -1 0 L 1 0 M 1 0 L 0.4 0.3 M 1 0 L 0.4 -0.3" transform="translate(-0.549554565701559, -0.43244739756367645) scale(5.0e-2)"/></g></g><g stroke-opacity="1.0" fill="#a6cfe3" stroke="#0d0d0d" stroke-width="5.0e-2" fill-opacity="1.0"><g transform="rotate(-46.89925433618114, -0.415924276169265, 0.36489479512735323)"><path d="M -1 0 L 1 0 M 1 0 L 0.4 0.3 M 1 0 L 0.4 -0.3" transform="translate(-0.415924276169265, 0.36489479512735323) scale(5.0e-2)"/></g></g><g stroke-opacity="1.0" fill="#a6cfe3" stroke="#0d0d0d" stroke-width="5.0e-2" fill-opacity="1.0"><g transform="rotate(-45.41219274140232, -0.415924276169265, 0.2763012181616833)"><path d="M -1 0 L 1 0 M 1 0 L 0.4 0.3 M 1 0 L 0.4 -0.3" transform="translate(-0.415924276169265, 0.2763012181616833) scale(5.0e-2)"/></g></g><g stroke-opacity="1.0" fill="#a6cfe3" stroke="#0d0d0d" stroke-width="5.0e-2" fill-opacity="1.0"><g transform="rotate(-43.26655332833368, -0.415924276169265, 0.1877076411960133)"><path d="M -1 0 L 1 0 M 1 0 L 0.4 0.3 M 1 0 L 0.4 -0.3" transform="translate(-0.415924276169265, 0.1877076411960133) scale(5.0e-2)"/></g></g><g stroke-opacity="1.0" fill="#a6cfe3" stroke="#0d0d0d" stroke-width="5.0e-2" fill-opacity="1.0"><g transform="rotate(-39.913529548149384, -0.415924276169265, 9.91140642303433e-2)"><path d="M -1 0 L 1 0 M 1 0 L 0.4 0.3 M 1 0 L 0.4 -0.3" transform="translate(-0.415924276169265, 9.91140642303433e-2) scale(5.0e-2)"/></g></g><g stroke-opacity="1.0" fill="#a6cfe3" stroke="#0d0d0d" stroke-width="5.0e-2" fill-opacity="1.0"><g transform="rotate(-33.99914492987854, -0.415924276169265, 1.0520487264673417e-2)"><path d="M -1 0 L 1 0 M 1 0 L 0.4 0.3 M 1 0 L 0.4 -0.3" transform="translate(-0.415924276169265, 1.0520487264673417e-2) scale(5.0e-2)"/></g></g><g stroke-opacity="1.0" fill="#a6cfe3" stroke="#0d0d0d" stroke-width="5.0e-2" fill-opacity="1.0"><g transform="rotate(-21.321176713227626, -0.415924276169265, -7.807308970099669e-2)"><path d="M -1 0 L 1 0 M 1 0 L 0.4 0.3 M 1 0 L 0.4 -0.3" transform="translate(-0.415924276169265, -7.807308970099669e-2) scale(5.0e-2)"/></g></g><g stroke-opacity="1.0" fill="#a6cfe3" stroke="#0d0d0d" stroke-width="5.0e-2" fill-opacity="1.0"><g transform="rotate(13.364611169993305, -0.415924276169265, -0.16666666666666674)"><path d="M -1 0 L 1 0 M 1 0 L 0.4 0.3 M 1 0 L 0.4 -0.3" transform="translate(-0.415924276169265, -0.16666666666666674) scale(5.0e-2)"/></g></g><g stroke-opacity="1.0" fill="#a6cfe3" stroke="#0d0d0d" stroke-width="5.0e-2" fill-opacity="1.0"><g transform="rotate(70.26081916410517, -0.415924276169265, -0.25526024363233657)"><path d="M -1 0 L 1 0 M 1 0 L 0.4 0.3 M 1 0 L 0.4 -0.3" transform="translate(-0.415924276169265, -0.25526024363233657) scale(5.0e-2)"/></g></g><g stroke-opacity="1.0" fill="#a6cfe3" stroke="#0d0d0d" stroke-width="5.0e-2" fill-opacity="1.0"><g transform="rotate(96.08437785000453, -0.415924276169265, -0.3438538205980066)"><path d="M -1 0 L 1 0 M 1 0 L 0.4 0.3 M 1 0 L 0.4 -0.3" transform="translate(-0.415924276169265, -0.3438538205980066) scale(5.0e-2)"/></g></g><g stroke-opacity="1.0" fill="#a6cfe3" stroke="#0d0d0d" stroke-width="5.0e-2" fill-opacity="1.0"><g transform="rotate(106.05509143504601, -0.415924276169265, -0.43244739756367645)"><path d="M -1 0 L 1 0 M 1 0 L 0.4 0.3 M 1 0 L 0.4 -0.3" transform="translate(-0.415924276169265, -0.43244739756367645) scale(5.0e-2)"/></g></g><g stroke-opacity="1.0" fill="#a6cfe3" stroke="#0d0d0d" stroke-width="5.0e-2" fill-opacity="1.0"><g transform="rotate(-53.3543508353797, -0.2822939866369709, 0.36489479512735323)"><path d="M -1 0 L 1 0 M 1 0 L 0.4 0.3 M 1 0 L 0.4 -0.3" transform="translate(-0.2822939866369709, 0.36489479512735323) scale(5.0e-2)"/></g></g><g stroke-opacity="1.0" fill="#a6cfe3" stroke="#0d0d0d" stroke-width="5.0e-2" fill-opacity="1.0"><g transform="rotate(-51.23448009554123, -0.2822939866369709, 0.2763012181616833)"><path d="M -1 0 L 1 0 M 1 0 L 0.4 0.3 M 1 0 L 0.4 -0.3" transform="translate(-0.2822939866369709, 0.2763012181616833) scale(5.0e-2)"/></g></g><g stroke-opacity="1.0" fill="#a6cfe3" stroke="#0d0d0d" stroke-width="5.0e-2" fill-opacity="1.0"><g transform="rotate(-48.012787504183336, -0.2822939866369709, 0.1877076411960133)"><path d="M -1 0 L 1 0 M 1 0 L 0.4 0.3 M 1 0 L 0.4 -0.3" transform="translate(-0.2822939866369709, 0.1877076411960133) scale(5.0e-2)"/></g></g><g stroke-opacity="1.0" fill="#a6cfe3" stroke="#0d0d0d" stroke-width="5.0e-2" fill-opacity="1.0"><g transform="rotate(-42.58049078334366, -0.2822939866369709, 9.91140642303433e-2)"><path d="M -1 0 L 1 0 M 1 0 L 0.4 0.3 M 1 0 L 0.4 -0.3" transform="translate(-0.2822939866369709, 9.91140642303433e-2) scale(5.0e-2)"/></g></g><g stroke-opacity="1.0" fill="#a6cfe3" stroke="#0d0d0d" stroke-width="5.0e-2" fill-opacity="1.0"><g transform="rotate(-31.827446576673104, -0.2822939866369709, 1.0520487264673417e-2)"><path d="M -1 0 L 1 0 M 1 0 L 0.4 0.3 M 1 0 L 0.4 -0.3" transform="translate(-0.2822939866369709, 1.0520487264673417e-2) scale(5.0e-2)"/></g></g><g stroke-opacity="1.0" fill="#a6cfe3" stroke="#0d0d0d" stroke-width="5.0e-2" fill-opacity="1.0"><g transform="rotate(-5.440332031005506, -0.2822939866369709, -7.807308970099669e-2)"><path d="M -1 0 L 1 0 M 1 0 L 0.4 0.3 M 1 0 L 0.4 -0.3" transform="translate(-0.2822939866369709, -7.807308970099669e-2) scale(5.0e-2)"/></g></g><g stroke-opacity="1.0" fill="#a6cfe3" stroke="#0d0d0d" stroke-width="5.0e-2" fill-opacity="1.0"><g transform="rotate(47.1210963966615, -0.2822939866369709, -0.16666666666666674)"><path d="M -1 0 L 1 0 M 1 0 L 0.4 0.3 M 1 0 L 0.4 -0.3" transform="translate(-0.2822939866369709, -0.16666666666666674) scale(5.0e-2)"/></g></g><g stroke-opacity="1.0" fill="#a6cfe3" stroke="#0d0d0d" stroke-width="5.0e-2" fill-opacity="1.0"><g transform="rotate(80.53767779197439, -0.2822939866369709, -0.25526024363233657)"><path d="M -1 0 L 1 0 M 1 0 L 0.4 0.3 M 1 0 L 0.4 -0.3" transform="translate(-0.2822939866369709, -0.25526024363233657) scale(5.0e-2)"/></g></g><g stroke-opacity="1.0" fill="#a6cfe3" stroke="#0d0d0d" stroke-width="5.0e-2" fill-opacity="1.0"><g transform="rotate(93.73139699916044, -0.2822939866369709, -0.3438538205980066)"><path d="M -1 0 L 1 0 M 1 0 L 0.4 0.3 M 1 0 L 0.4 -0.3" transform="translate(-0.2822939866369709, -0.3438538205980066) scale(5.0e-2)"/></g></g><g stroke-opacity="1.0" fill="#a6cfe3" stroke="#0d0d0d" stroke-width="5.0e-2" fill-opacity="1.0"><g transform="rotate(100.06068979532297, -0.2822939866369709, -0.43244739756367645)"><path d="M -1 0 L 1 0 M 1 0 L 0.4 0.3 M 1 0 L 0.4 -0.3" transform="translate(-0.2822939866369709, -0.43244739756367645) scale(5.0e-2)"/></g></g><g stroke-opacity="1.0" fill="#a6cfe3" stroke="#0d0d0d" stroke-width="5.0e-2" fill-opacity="1.0"><g transform="rotate(-61.48095159956936, -0.14866369710467686, 0.36489479512735323)"><path d="M -1 0 L 1 0 M 1 0 L 0.4 0.3 M 1 0 L 0.4 -0.3" transform="translate(-0.14866369710467686, 0.36489479512735323) scale(5.0e-2)"/></g></g><g stroke-opacity="1.0" fill="#a6cfe3" stroke="#0d0d0d" stroke-width="5.0e-2" fill-opacity="1.0"><g transform="rotate(-58.67008724249424, -0.14866369710467686, 0.2763012181616833)"><path d="M -1 0 L 1 0 M 1 0 L 0.4 0.3 M 1 0 L 0.4 -0.3" transform="translate(-0.14866369710467686, 0.2763012181616833) scale(5.0e-2)"/></g></g><g stroke-opacity="1.0" fill="#a6cfe3" stroke="#0d0d0d" stroke-width="5.0e-2" fill-opacity="1.0"><g transform="rotate(-54.17002461487118, -0.14866369710467686, 0.1877076411960133)"><path d="M -1 0 L 1 0 M 1 0 L 0.4 0.3 M 1 0 L 0.4 -0.3" transform="translate(-0.14866369710467686, 0.1877076411960133) scale(5.0e-2)"/></g></g><g stroke-opacity="1.0" fill="#a6cfe3" stroke="#0d0d0d" stroke-width="5.0e-2" fill-opacity="1.0"><g transform="rotate(-45.97102193107917, -0.14866369710467686, 9.91140642303433e-2)"><path d="M -1 0 L 1 0 M 1 0 L 0.4 0.3 M 1 0 L 0.4 -0.3" transform="translate(-0.14866369710467686, 9.91140642303433e-2) scale(5.0e-2)"/></g></g><g stroke-opacity="1.0" fill="#a6cfe3" stroke="#0d0d0d" stroke-width="5.0e-2" fill-opacity="1.0"><g transform="rotate(-27.930948956080037, -0.14866369710467686, 1.0520487264673417e-2)"><path d="M -1 0 L 1 0 M 1 0 L 0.4 0.3 M 1 0 L 0.4 -0.3" transform="translate(-0.14866369710467686, 1.0520487264673417e-2) scale(5.0e-2)"/></g></g><g stroke-opacity="1.0" fill="#a6cfe3" stroke="#0d0d0d" stroke-width="5.0e-2" fill-opacity="1.0"><g transform="rotate(14.445942279113961, -0.14866369710467686, -7.807308970099669e-2)"><path d="M -1 0 L 1 0 M 1 0 L 0.4 0.3 M 1 0 L 0.4 -0.3" transform="translate(-0.14866369710467686, -7.807308970099669e-2) scale(5.0e-2)"/></g></g><g stroke-opacity="1.0" fill="#a6cfe3" stroke="#0d0d0d" stroke-width="5.0e-2" fill-opacity="1.0"><g transform="rotate(58.95370855020484, -0.14866369710467686, -0.16666666666666674)"><path d="M -1 0 L 1 0 M 1 0 L 0.4 0.3 M 1 0 L 0.4 -0.3" transform="translate(-0.14866369710467686, -0.16666666666666674) scale(5.0e-2)"/></g></g><g stroke-opacity="1.0" fill="#a6cfe3" stroke="#0d0d0d" stroke-width="5.0e-2" fill-opacity="1.0"><g transform="rotate(78.38768602098031, -0.14866369710467686, -0.25526024363233657)"><path d="M -1 0 L 1 0 M 1 0 L 0.4 0.3 M 1 0 L 0.4 -0.3" transform="translate(-0.14866369710467686, -0.25526024363233657) scale(5.0e-2)"/></g></g><g stroke-opacity="1.0" fill="#a6cfe3" stroke="#0d0d0d" stroke-width="5.0e-2" fill-opacity="1.0"><g transform="rotate(87.0721562906961, -0.14866369710467686, -0.3438538205980066)"><path d="M -1 0 L 1 0 M 1 0 L 0.4 0.3 M 1 0 L 0.4 -0.3" transform="translate(-0.14866369710467686, -0.3438538205980066) scale(5.0e-2)"/></g></g><g stroke-opacity="1.0" fill="#a6cfe3" stroke="#0d0d0d" stroke-width="5.0e-2" fill-opacity="1.0"><g transform="rotate(91.775265785145, -0.14866369710467686, -0.43244739756367645)"><path d="M -1 0 L 1 0 M 1 0 L 0.4 0.3 M 1 0 L 0.4 -0.3" transform="translate(-0.14866369710467686, -0.43244739756367645) scale(5.0e-2)"/></g></g><g stroke-opacity="1.0" fill="#a6cfe3" stroke="#0d0d0d" stroke-width="5.0e-2" fill-opacity="1.0"><g transform="rotate(-71.63155263230772, -1.5033407572382917e-2, 0.36489479512735323)"><path d="M -1 0 L 1 0 M 1 0 L 0.4 0.3 M 1 0 L 0.4 -0.3" transform="translate(-1.5033407572382917e-2, 0.36489479512735323) scale(5.0e-2)"/></g></g><g stroke-opacity="1.0" fill="#a6cfe3" stroke="#0d0d0d" stroke-width="5.0e-2" fill-opacity="1.0"><g transform="rotate(-68.30375886013567, -1.5033407572382917e-2, 0.2763012181616833)"><path d="M -1 0 L 1 0 M 1 0 L 0.4 0.3 M 1 0 L 0.4 -0.3" transform="translate(-1.5033407572382917e-2, 0.2763012181616833) scale(5.0e-2)"/></g></g><g stroke-opacity="1.0" fill="#a6cfe3" stroke="#0d0d0d" stroke-width="5.0e-2" fill-opacity="1.0"><g transform="rotate(-62.713434447769245, -1.5033407572382917e-2, 0.1877076411960133)"><path d="M -1 0 L 1 0 M 1 0 L 0.4 0.3 M 1 0 L 0.4 -0.3" transform="translate(-1.5033407572382917e-2, 0.1877076411960133) scale(5.0e-2)"/></g></g><g stroke-opacity="1.0" fill="#a6cfe3" stroke="#0d0d0d" stroke-width="5.0e-2" fill-opacity="1.0"><g transform="rotate(-51.74335201662478, -1.5033407572382917e-2, 9.91140642303433e-2)"><path d="M -1 0 L 1 0 M 1 0 L 0.4 0.3 M 1 0 L 0.4 -0.3" transform="translate(-1.5033407572382917e-2, 9.91140642303433e-2) scale(5.0e-2)"/></g></g><g stroke-opacity="1.0" fill="#a6cfe3" stroke="#0d0d0d" stroke-width="5.0e-2" fill-opacity="1.0"><g transform="rotate(-25.463345061871607, -1.5033407572382917e-2, 1.0520487264673417e-2)"><path d="M -1 0 L 1 0 M 1 0 L 0.4 0.3 M 1 0 L 0.4 -0.3" transform="translate(-1.5033407572382917e-2, 1.0520487264673417e-2) scale(5.0e-2)"/></g></g><g stroke-opacity="1.0" fill="#a6cfe3" stroke="#0d0d0d" stroke-width="5.0e-2" fill-opacity="1.0"><g transform="rotate(25.352317626939044, -1.5033407572382917e-2, -7.807308970099669e-2)"><path d="M -1 0 L 1 0 M 1 0 L 0.4 0.3 M 1 0 L 0.4 -0.3" transform="translate(-1.5033407572382917e-2, -7.807308970099669e-2) scale(5.0e-2)"/></g></g><g stroke-opacity="1.0" fill="#a6cfe3" stroke="#0d0d0d" stroke-width="5.0e-2" fill-opacity="1.0"><g transform="rotate(58.539020075643705, -1.5033407572382917e-2, -0.16666666666666674)"><path d="M -1 0 L 1 0 M 1 0 L 0.4 0.3 M 1 0 L 0.4 -0.3" transform="translate(-1.5033407572382917e-2, -0.16666666666666674) scale(5.0e-2)"/></g></g><g stroke-opacity="1.0" fill="#a6cfe3" stroke="#0d0d0d" stroke-width="5.0e-2" fill-opacity="1.0"><g transform="rotate(72.03510627877053, -1.5033407572382917e-2, -0.25526024363233657)"><path d="M -1 0 L 1 0 M 1 0 L 0.4 0.3 M 1 0 L 0.4 -0.3" transform="translate(-1.5033407572382917e-2, -0.25526024363233657) scale(5.0e-2)"/></g></g><g stroke-opacity="1.0" fill="#a6cfe3" stroke="#0d0d0d" stroke-width="5.0e-2" fill-opacity="1.0"><g transform="rotate(78.57121322367863, -1.5033407572382917e-2, -0.3438538205980066)"><path d="M -1 0 L 1 0 M 1 0 L 0.4 0.3 M 1 0 L 0.4 -0.3" transform="translate(-1.5033407572382917e-2, -0.3438538205980066) scale(5.0e-2)"/></g></g><g stroke-opacity="1.0" fill="#a6cfe3" stroke="#0d0d0d" stroke-width="5.0e-2" fill-opacity="1.0"><g transform="rotate(82.33198654554482, -1.5033407572382917e-2, -0.43244739756367645)"><path d="M -1 0 L 1 0 M 1 0 L 0.4 0.3 M 1 0 L 0.4 -0.3" transform="translate(-1.5033407572382917e-2, -0.43244739756367645) scale(5.0e-2)"/></g></g><g stroke-opacity="1.0" fill="#a6cfe3" stroke="#0d0d0d" stroke-width="5.0e-2" fill-opacity="1.0"><g transform="rotate(-83.72582919707884, 0.11859688195991114, 0.36489479512735323)"><path d="M -1 0 L 1 0 M 1 0 L 0.4 0.3 M 1 0 L 0.4 -0.3" transform="translate(0.11859688195991114, 0.36489479512735323) scale(5.0e-2)"/></g></g><g stroke-opacity="1.0" fill="#a6cfe3" stroke="#0d0d0d" stroke-width="5.0e-2" fill-opacity="1.0"><g transform="rotate(-80.37960270065743, 0.11859688195991114, 0.2763012181616833)"><path d="M -1 0 L 1 0 M 1 0 L 0.4 0.3 M 1 0 L 0.4 -0.3" transform="translate(0.11859688195991114, 0.2763012181616833) scale(5.0e-2)"/></g></g><g stroke-opacity="1.0" fill="#a6cfe3" stroke="#0d0d0d" stroke-width="5.0e-2" fill-opacity="1.0"><g transform="rotate(-74.55784459620769, 0.11859688195991114, 0.1877076411960133)"><path d="M -1 0 L 1 0 M 1 0 L 0.4 0.3 M 1 0 L 0.4 -0.3" transform="translate(0.11859688195991114, 0.1877076411960133) scale(5.0e-2)"/></g></g><g stroke-opacity="1.0" fill="#a6cfe3" stroke="#0d0d0d" stroke-width="5.0e-2" fill-opacity="1.0"><g transform="rotate(-62.392645475723924, 0.11859688195991114, 9.91140642303433e-2)"><path d="M -1 0 L 1 0 M 1 0 L 0.4 0.3 M 1 0 L 0.4 -0.3" transform="translate(0.11859688195991114, 9.91140642303433e-2) scale(5.0e-2)"/></g></g><g stroke-opacity="1.0" fill="#a6cfe3" stroke="#0d0d0d" stroke-width="5.0e-2" fill-opacity="1.0"><g transform="rotate(-30.325850500388558, 0.11859688195991114, 1.0520487264673417e-2)"><path d="M -1 0 L 1 0 M 1 0 L 0.4 0.3 M 1 0 L 0.4 -0.3" transform="translate(0.11859688195991114, 1.0520487264673417e-2) scale(5.0e-2)"/></g></g><g stroke-opacity="1.0" fill="#a6cfe3" stroke="#0d0d0d" stroke-width="5.0e-2" fill-opacity="1.0"><g transform="rotate(25.463345061871614, 0.11859688195991114, -7.807308970099669e-2)"><path d="M -1 0 L 1 0 M 1 0 L 0.4 0.3 M 1 0 L 0.4 -0.3" transform="translate(0.11859688195991114, -7.807308970099669e-2) scale(5.0e-2)"/></g></g><g stroke-opacity="1.0" fill="#a6cfe3" stroke="#0d0d0d" stroke-width="5.0e-2" fill-opacity="1.0"><g transform="rotate(53.34825221466397, 0.11859688195991114, -0.16666666666666674)"><path d="M -1 0 L 1 0 M 1 0 L 0.4 0.3 M 1 0 L 0.4 -0.3" transform="translate(0.11859688195991114, -0.16666666666666674) scale(5.0e-2)"/></g></g><g stroke-opacity="1.0" fill="#a6cfe3" stroke="#0d0d0d" stroke-width="5.0e-2" fill-opacity="1.0"><g transform="rotate(64.18052078566551, 0.11859688195991114, -0.25526024363233657)"><path d="M -1 0 L 1 0 M 1 0 L 0.4 0.3 M 1 0 L 0.4 -0.3" transform="translate(0.11859688195991114, -0.25526024363233657) scale(5.0e-2)"/></g></g><g stroke-opacity="1.0" fill="#a6cfe3" stroke="#0d0d0d" stroke-width="5.0e-2" fill-opacity="1.0"><g transform="rotate(69.52530867630297, 0.11859688195991114, -0.3438538205980066)"><path d="M -1 0 L 1 0 M 1 0 L 0.4 0.3 M 1 0 L 0.4 -0.3" transform="translate(0.11859688195991114, -0.3438538205980066) scale(5.0e-2)"/></g></g><g stroke-opacity="1.0" fill="#a6cfe3" stroke="#0d0d0d" stroke-width="5.0e-2" fill-opacity="1.0"><g transform="rotate(72.65691141186667, 0.11859688195991114, -0.43244739756367645)"><path d="M -1 0 L 1 0 M 1 0 L 0.4 0.3 M 1 0 L 0.4 -0.3" transform="translate(0.11859688195991114, -0.43244739756367645) scale(5.0e-2)"/></g></g><g stroke-opacity="1.0" fill="#a6cfe3" stroke="#0d0d0d" stroke-width="5.0e-2" fill-opacity="1.0"><g transform="rotate(-96.84875031477206, 0.2522271714922053, 0.36489479512735323)"><path d="M -1 0 L 1 0 M 1 0 L 0.4 0.3 M 1 0 L 0.4 -0.3" transform="translate(0.2522271714922053, 0.36489479512735323) scale(5.0e-2)"/></g></g><g stroke-opacity="1.0" fill="#a6cfe3" stroke="#0d0d0d" stroke-width="5.0e-2" fill-opacity="1.0"><g transform="rotate(-94.10747809603637, 0.2522271714922053, 0.2763012181616833)"><path d="M -1 0 L 1 0 M 1 0 L 0.4 0.3 M 1 0 L 0.4 -0.3" transform="translate(0.2522271714922053, 0.2763012181616833) scale(5.0e-2)"/></g></g><g stroke-opacity="1.0" fill="#a6cfe3" stroke="#0d0d0d" stroke-width="5.0e-2" fill-opacity="1.0"><g transform="rotate(-89.31668823842175, 0.2522271714922053, 0.1877076411960133)"><path d="M -1 0 L 1 0 M 1 0 L 0.4 0.3 M 1 0 L 0.4 -0.3" transform="translate(0.2522271714922053, 0.1877076411960133) scale(5.0e-2)"/></g></g><g stroke-opacity="1.0" fill="#a6cfe3" stroke="#0d0d0d" stroke-width="5.0e-2" fill-opacity="1.0"><g transform="rotate(-79.0898362236076, 0.2522271714922053, 9.91140642303433e-2)"><path d="M -1 0 L 1 0 M 1 0 L 0.4 0.3 M 1 0 L 0.4 -0.3" transform="translate(0.2522271714922053, 9.91140642303433e-2) scale(5.0e-2)"/></g></g><g stroke-opacity="1.0" fill="#a6cfe3" stroke="#0d0d0d" stroke-width="5.0e-2" fill-opacity="1.0"><g transform="rotate(-48.89810671661513, 0.2522271714922053, 1.0520487264673417e-2)"><path d="M -1 0 L 1 0 M 1 0 L 0.4 0.3 M 1 0 L 0.4 -0.3" transform="translate(0.2522271714922053, 1.0520487264673417e-2) scale(5.0e-2)"/></g></g><g stroke-opacity="1.0" fill="#a6cfe3" stroke="#0d0d0d" stroke-width="5.0e-2" fill-opacity="1.0"><g transform="rotate(16.431113233075703, 0.2522271714922053, -7.807308970099669e-2)"><path d="M -1 0 L 1 0 M 1 0 L 0.4 0.3 M 1 0 L 0.4 -0.3" transform="translate(0.2522271714922053, -7.807308970099669e-2) scale(5.0e-2)"/></g></g><g stroke-opacity="1.0" fill="#a6cfe3" stroke="#0d0d0d" stroke-width="5.0e-2" fill-opacity="1.0"><g transform="rotate(45.97102193107918, 0.2522271714922053, -0.16666666666666674)"><path d="M -1 0 L 1 0 M 1 0 L 0.4 0.3 M 1 0 L 0.4 -0.3" transform="translate(0.2522271714922053, -0.16666666666666674) scale(5.0e-2)"/></g></g><g stroke-opacity="1.0" fill="#a6cfe3" stroke="#0d0d0d" stroke-width="5.0e-2" fill-opacity="1.0"><g transform="rotate(56.03475263569897, 0.2522271714922053, -0.25526024363233657)"><path d="M -1 0 L 1 0 M 1 0 L 0.4 0.3 M 1 0 L 0.4 -0.3" transform="translate(0.2522271714922053, -0.25526024363233657) scale(5.0e-2)"/></g></g><g stroke-opacity="1.0" fill="#a6cfe3" stroke="#0d0d0d" stroke-width="5.0e-2" fill-opacity="1.0"><g transform="rotate(60.77115498628979, 0.2522271714922053, -0.3438538205980066)"><path d="M -1 0 L 1 0 M 1 0 L 0.4 0.3 M 1 0 L 0.4 -0.3" transform="translate(0.2522271714922053, -0.3438538205980066) scale(5.0e-2)"/></g></g><g stroke-opacity="1.0" fill="#a6cfe3" stroke="#0d0d0d" stroke-width="5.0e-2" fill-opacity="1.0"><g transform="rotate(63.48858398583044, 0.2522271714922053, -0.43244739756367645)"><path d="M -1 0 L 1 0 M 1 0 L 0.4 0.3 M 1 0 L 0.4 -0.3" transform="translate(0.2522271714922053, -0.43244739756367645) scale(5.0e-2)"/></g></g><g stroke-opacity="1.0" fill="#a6cfe3" stroke="#0d0d0d" stroke-width="5.0e-2" fill-opacity="1.0"><g transform="rotate(-109.476575498932, 0.3858574610244989, 0.36489479512735323)"><path d="M -1 0 L 1 0 M 1 0 L 0.4 0.3 M 1 0 L 0.4 -0.3" transform="translate(0.3858574610244989, 0.36489479512735323) scale(5.0e-2)"/></g></g><g stroke-opacity="1.0" fill="#a6cfe3" stroke="#0d0d0d" stroke-width="5.0e-2" fill-opacity="1.0"><g transform="rotate(-107.65012421993012, 0.3858574610244989, 0.2763012181616833)"><path d="M -1 0 L 1 0 M 1 0 L 0.4 0.3 M 1 0 L 0.4 -0.3" transform="translate(0.3858574610244989, 0.2763012181616833) scale(5.0e-2)"/></g></g><g stroke-opacity="1.0" fill="#a6cfe3" stroke="#0d0d0d" stroke-width="5.0e-2" fill-opacity="1.0"><g transform="rotate(-104.57421619803874, 0.3858574610244989, 0.1877076411960133)"><path d="M -1 0 L 1 0 M 1 0 L 0.4 0.3 M 1 0 L 0.4 -0.3" transform="translate(0.3858574610244989, 0.1877076411960133) scale(5.0e-2)"/></g></g><g stroke-opacity="1.0" fill="#a6cfe3" stroke="#0d0d0d" stroke-width="5.0e-2" fill-opacity="1.0"><g transform="rotate(-98.3658861240326, 0.3858574610244989, 9.91140642303433e-2)"><path d="M -1 0 L 1 0 M 1 0 L 0.4 0.3 M 1 0 L 0.4 -0.3" transform="translate(0.3858574610244989, 9.91140642303433e-2) scale(5.0e-2)"/></g></g><g stroke-opacity="1.0" fill="#a6cfe3" stroke="#0d0d0d" stroke-width="5.0e-2" fill-opacity="1.0"><g transform="rotate(-80.5376777919744, 0.3858574610244989, 1.0520487264673417e-2)"><path d="M -1 0 L 1 0 M 1 0 L 0.4 0.3 M 1 0 L 0.4 -0.3" transform="translate(0.3858574610244989, 1.0520487264673417e-2) scale(5.0e-2)"/></g></g><g stroke-opacity="1.0" fill="#a6cfe3" stroke="#0d0d0d" stroke-width="5.0e-2" fill-opacity="1.0"><g transform="rotate(-10.304846468766057, 0.3858574610244989, -7.807308970099669e-2)"><path d="M -1 0 L 1 0 M 1 0 L 0.4 0.3 M 1 0 L 0.4 -0.3" transform="translate(0.3858574610244989, -7.807308970099669e-2) scale(5.0e-2)"/></g></g><g stroke-opacity="1.0" fill="#a6cfe3" stroke="#0d0d0d" stroke-width="5.0e-2" fill-opacity="1.0"><g transform="rotate(36.3843518158359, 0.3858574610244989, -0.16666666666666674)"><path d="M -1 0 L 1 0 M 1 0 L 0.4 0.3 M 1 0 L 0.4 -0.3" transform="translate(0.3858574610244989, -0.16666666666666674) scale(5.0e-2)"/></g></g><g stroke-opacity="1.0" fill="#a6cfe3" stroke="#0d0d0d" stroke-width="5.0e-2" fill-opacity="1.0"><g transform="rotate(48.012787504183336, 0.3858574610244989, -0.25526024363233657)"><path d="M -1 0 L 1 0 M 1 0 L 0.4 0.3 M 1 0 L 0.4 -0.3" transform="translate(0.3858574610244989, -0.25526024363233657) scale(5.0e-2)"/></g></g><g stroke-opacity="1.0" fill="#a6cfe3" stroke="#0d0d0d" stroke-width="5.0e-2" fill-opacity="1.0"><g transform="rotate(52.73359809902285, 0.3858574610244989, -0.3438538205980066)"><path d="M -1 0 L 1 0 M 1 0 L 0.4 0.3 M 1 0 L 0.4 -0.3" transform="translate(0.3858574610244989, -0.3438538205980066) scale(5.0e-2)"/></g></g><g stroke-opacity="1.0" fill="#a6cfe3" stroke="#0d0d0d" stroke-width="5.0e-2" fill-opacity="1.0"><g transform="rotate(55.2568198416964, 0.3858574610244989, -0.43244739756367645)"><path d="M -1 0 L 1 0 M 1 0 L 0.4 0.3 M 1 0 L 0.4 -0.3" transform="translate(0.3858574610244989, -0.43244739756367645) scale(5.0e-2)"/></g></g><g stroke-opacity="1.0" fill="#a6cfe3" stroke="#0d0d0d" stroke-width="5.0e-2" fill-opacity="1.0"><g transform="rotate(-120.39004059367852, 0.5194877505567934, 0.36489479512735323)"><path d="M -1 0 L 1 0 M 1 0 L 0.4 0.3 M 1 0 L 0.4 -0.3" transform="translate(0.5194877505567934, 0.36489479512735323) scale(5.0e-2)"/></g></g><g stroke-opacity="1.0" fill="#a6cfe3" stroke="#0d0d0d" stroke-width="5.0e-2" fill-opacity="1.0"><g transform="rotate(-119.3548748641938, 0.5194877505567934, 0.2763012181616833)"><path d="M -1 0 L 1 0 M 1 0 L 0.4 0.3 M 1 0 L 0.4 -0.3" transform="translate(0.5194877505567934, 0.2763012181616833) scale(5.0e-2)"/></g></g><g stroke-opacity="1.0" fill="#a6cfe3" stroke="#0d0d0d" stroke-width="5.0e-2" fill-opacity="1.0"><g transform="rotate(-117.72207677286721, 0.5194877505567934, 0.1877076411960133)"><path d="M -1 0 L 1 0 M 1 0 L 0.4 0.3 M 1 0 L 0.4 -0.3" transform="translate(0.5194877505567934, 0.1877076411960133) scale(5.0e-2)"/></g></g><g stroke-opacity="1.0" fill="#a6cfe3" stroke="#0d0d0d" stroke-width="5.0e-2" fill-opacity="1.0"><g transform="rotate(-114.77180709318333, 0.5194877505567934, 9.91140642303433e-2)"><path d="M -1 0 L 1 0 M 1 0 L 0.4 0.3 M 1 0 L 0.4 -0.3" transform="translate(0.5194877505567934, 9.91140642303433e-2) scale(5.0e-2)"/></g></g><g stroke-opacity="1.0" fill="#a6cfe3" stroke="#0d0d0d" stroke-width="5.0e-2" fill-opacity="1.0"><g transform="rotate(-107.91023110297346, 0.5194877505567934, 1.0520487264673417e-2)"><path d="M -1 0 L 1 0 M 1 0 L 0.4 0.3 M 1 0 L 0.4 -0.3" transform="translate(0.5194877505567934, 1.0520487264673417e-2) scale(5.0e-2)"/></g></g><g stroke-opacity="1.0" fill="#a6cfe3" stroke="#0d0d0d" stroke-width="5.0e-2" fill-opacity="1.0"><g transform="rotate(-78.88016563239884, 0.5194877505567934, -7.807308970099669e-2)"><path d="M -1 0 L 1 0 M 1 0 L 0.4 0.3 M 1 0 L 0.4 -0.3" transform="translate(0.5194877505567934, -7.807308970099669e-2) scale(5.0e-2)"/></g></g><g stroke-opacity="1.0" fill="#a6cfe3" stroke="#0d0d0d" stroke-width="5.0e-2" fill-opacity="1.0"><g transform="rotate(18.07717429682483, 0.5194877505567934, -0.16666666666666674)"><path d="M -1 0 L 1 0 M 1 0 L 0.4 0.3 M 1 0 L 0.4 -0.3" transform="translate(0.5194877505567934, -0.16666666666666674) scale(5.0e-2)"/></g></g><g stroke-opacity="1.0" fill="#a6cfe3" stroke="#0d0d0d" stroke-width="5.0e-2" fill-opacity="1.0"><g transform="rotate(39.57646251047537, 0.5194877505567934, -0.25526024363233657)"><path d="M -1 0 L 1 0 M 1 0 L 0.4 0.3 M 1 0 L 0.4 -0.3" transform="translate(0.5194877505567934, -0.25526024363233657) scale(5.0e-2)"/></g></g><g stroke-opacity="1.0" fill="#a6cfe3" stroke="#0d0d0d" stroke-width="5.0e-2" fill-opacity="1.0"><g transform="rotate(45.412192741402315, 0.5194877505567934, -0.3438538205980066)"><path d="M -1 0 L 1 0 M 1 0 L 0.4 0.3 M 1 0 L 0.4 -0.3" transform="translate(0.5194877505567934, -0.3438538205980066) scale(5.0e-2)"/></g></g><g stroke-opacity="1.0" fill="#a6cfe3" stroke="#0d0d0d" stroke-width="5.0e-2" fill-opacity="1.0"><g transform="rotate(48.061152646549644, 0.5194877505567934, -0.43244739756367645)"><path d="M -1 0 L 1 0 M 1 0 L 0.4 0.3 M 1 0 L 0.4 -0.3" transform="translate(0.5194877505567934, -0.43244739756367645) scale(5.0e-2)"/></g></g><g stroke-opacity="1.0" fill="#a6cfe3" stroke="#0d0d0d" stroke-width="5.0e-2" fill-opacity="1.0"><g transform="rotate(-129.20442853819998, 0.6531180400890868, 0.36489479512735323)"><path d="M -1 0 L 1 0 M 1 0 L 0.4 0.3 M 1 0 L 0.4 -0.3" transform="translate(0.6531180400890868, 0.36489479512735323) scale(5.0e-2)"/></g></g><g stroke-opacity="1.0" fill="#a6cfe3" stroke="#0d0d0d" stroke-width="5.0e-2" fill-opacity="1.0"><g transform="rotate(-128.6756131139764, 0.6531180400890868, 0.2763012181616833)"><path d="M -1 0 L 1 0 M 1 0 L 0.4 0.3 M 1 0 L 0.4 -0.3" transform="translate(0.6531180400890868, 0.2763012181616833) scale(5.0e-2)"/></g></g><g stroke-opacity="1.0" fill="#a6cfe3" stroke="#0d0d0d" stroke-width="5.0e-2" fill-opacity="1.0"><g transform="rotate(-127.8990823601365, 0.6531180400890868, 0.1877076411960133)"><path d="M -1 0 L 1 0 M 1 0 L 0.4 0.3 M 1 0 L 0.4 -0.3" transform="translate(0.6531180400890868, 0.1877076411960133) scale(5.0e-2)"/></g></g><g stroke-opacity="1.0" fill="#a6cfe3" stroke="#0d0d0d" stroke-width="5.0e-2" fill-opacity="1.0"><g transform="rotate(-126.64820118726841, 0.6531180400890868, 9.91140642303433e-2)"><path d="M -1 0 L 1 0 M 1 0 L 0.4 0.3 M 1 0 L 0.4 -0.3" transform="translate(0.6531180400890868, 9.91140642303433e-2) scale(5.0e-2)"/></g></g><g stroke-opacity="1.0" fill="#a6cfe3" stroke="#0d0d0d" stroke-width="5.0e-2" fill-opacity="1.0"><g transform="rotate(-124.30095672615316, 0.6531180400890868, 1.0520487264673417e-2)"><path d="M -1 0 L 1 0 M 1 0 L 0.4 0.3 M 1 0 L 0.4 -0.3" transform="translate(0.6531180400890868, 1.0520487264673417e-2) scale(5.0e-2)"/></g></g><g stroke-opacity="1.0" fill="#a6cfe3" stroke="#0d0d0d" stroke-width="5.0e-2" fill-opacity="1.0"><g transform="rotate(-118.3399495893263, 0.6531180400890868, -7.807308970099669e-2)"><path d="M -1 0 L 1 0 M 1 0 L 0.4 0.3 M 1 0 L 0.4 -0.3" transform="translate(0.6531180400890868, -7.807308970099669e-2) scale(5.0e-2)"/></g></g><g stroke-opacity="1.0" fill="#a6cfe3" stroke="#0d0d0d" stroke-width="5.0e-2" fill-opacity="1.0"><g transform="rotate(-81.6026974133102, 0.6531180400890868, -0.16666666666666674)"><path d="M -1 0 L 1 0 M 1 0 L 0.4 0.3 M 1 0 L 0.4 -0.3" transform="translate(0.6531180400890868, -0.16666666666666674) scale(5.0e-2)"/></g></g><g stroke-opacity="1.0" fill="#a6cfe3" stroke="#0d0d0d" stroke-width="5.0e-2" fill-opacity="1.0"><g transform="rotate(25.916669828467207, 0.6531180400890868, -0.25526024363233657)"><path d="M -1 0 L 1 0 M 1 0 L 0.4 0.3 M 1 0 L 0.4 -0.3" transform="translate(0.6531180400890868, -0.25526024363233657) scale(5.0e-2)"/></g></g><g stroke-opacity="1.0" fill="#a6cfe3" stroke="#0d0d0d" stroke-width="5.0e-2" fill-opacity="1.0"><g transform="rotate(38.15385704023621, 0.6531180400890868, -0.3438538205980066)"><path d="M -1 0 L 1 0 M 1 0 L 0.4 0.3 M 1 0 L 0.4 -0.3" transform="translate(0.6531180400890868, -0.3438538205980066) scale(5.0e-2)"/></g></g><g stroke-opacity="1.0" fill="#a6cfe3" stroke="#0d0d0d" stroke-width="5.0e-2" fill-opacity="1.0"><g transform="rotate(41.70388402745369, 0.6531180400890868, -0.43244739756367645)"><path d="M -1 0 L 1 0 M 1 0 L 0.4 0.3 M 1 0 L 0.4 -0.3" transform="translate(0.6531180400890868, -0.43244739756367645) scale(5.0e-2)"/></g></g></svg>