<svg height="300" viewBox="-0.75 -0.5 1.5 1.0" width="450" xmlns="http://www.w3.org/2000/svg" xmlns:xlink="http://www.w3.org/1999/xlink"><style>svg {
  color-scheme: light dark;
}
{
  .canvas g, .title g, .axisbar g, .ticktext g, .tickglyph g, .ticklines g, .legendContent g text {
    fill: rgb(5%, 5%, 5%);
  }
  .ticklines g, .tickglyph g, .legendBorder g {
    stroke: rgb(5%, 5%, 5%);
  }
  .legendBorder g {
    fill: rgb(94%, 94%, 94%);
  }
}
@media (prefers-color-scheme:dark) {
  .canvas g, .title g, .axisbar g, .ticktext g, .tickglyph g, .ticklines g, .legendContent g text {
    fill: rgb(94%, 94%, 94%);
  }
  .ticklines g, .tickglyph g, .legendBorder g {
    stroke: rgb(94%, 94%, 94%);
  }
  .legendBorder g {
    fill: rgb(5%, 5%, 5%);
  }
}
{
  .arrow g {
    fill: rgba(5%, 5%, 5%, 1.00);
    stroke: rgba(5%, 5%, 5%, 1.00);
  }
}
@media (prefers-color-scheme:dark) {
  .arrow g {
    fill: rgba(94%, 94%, 94%, 1.00);
    stroke: rgba(94%, 94%, 94%, 1.00);
  }
}
</style><g class="chart"><g class="arrow"><g fill="rgb(2%, 73%, 80%)" fill-opacity="0.2" stroke="rgb(5%, 5%, 5%)" stroke-opacity="1.0" stroke-width="0.0500"><g transform="rotate(-41.7039, -0.5218, 0.3366)"><path d="M -1 0 L 1 0 M 1 0 L 0.4 0.3 M 1 0 L 0.4 -0.3" transform="translate(-0.5218, 0.3366) scale(0.0500)"/></g></g><g fill="rgb(2%, 73%, 80%)" fill-opacity="0.2" stroke="rgb(5%, 5%, 5%)" stroke-opacity="1.0" stroke-width="0.0500"><g transform="rotate(-40.7040, -0.5218, 0.2543)"><path d="M -1 0 L 1 0 M 1 0 L 0.4 0.3 M 1 0 L 0.4 -0.3" transform="translate(-0.5218, 0.2543) scale(0.0500)"/></g></g><g fill="rgb(2%, 73%, 80%)" fill-opacity="0.2" stroke="rgb(5%, 5%, 5%)" stroke-opacity="1.0" stroke-width="0.0500"><g transform="rotate(-39.3303, -0.5218, 0.1719)"><path d="M -1 0 L 1 0 M 1 0 L 0.4 0.3 M 1 0 L 0.4 -0.3" transform="translate(-0.5218, 0.1719) scale(0.0500)"/></g></g><g fill="rgb(2%, 73%, 80%)" fill-opacity="0.2" stroke="rgb(5%, 5%, 5%)" stroke-opacity="1.0" stroke-width="0.0500"><g transform="rotate(-37.3282, -0.5218, 0.0896)"><path d="M -1 0 L 1 0 M 1 0 L 0.4 0.3 M 1 0 L 0.4 -0.3" transform="translate(-0.5218, 0.0896) scale(0.0500)"/></g></g><g fill="rgb(2%, 73%, 80%)" fill-opacity="0.2" stroke="rgb(5%, 5%, 5%)" stroke-opacity="1.0" stroke-width="0.0500"><g transform="rotate(-34.1493, -0.5218, 0.0073)"><path d="M -1 0 L 1 0 M 1 0 L 0.4 0.3 M 1 0 L 0.4 -0.3" transform="translate(-0.5218, 0.0073) scale(0.0500)"/></g></g><g fill="rgb(2%, 73%, 80%)" fill-opacity="0.2" stroke="rgb(5%, 5%, 5%)" stroke-opacity="1.0" stroke-width="0.0500"><g transform="rotate(-28.3824, -0.5218, -0.0750)"><path d="M -1 0 L 1 0 M 1 0 L 0.4 0.3 M 1 0 L 0.4 -0.3" transform="translate(-0.5218, -0.0750) scale(0.0500)"/></g></g><g fill="rgb(2%, 73%, 80%)" fill-opacity="0.2" stroke="rgb(5%, 5%, 5%)" stroke-opacity="1.0" stroke-width="0.0500"><g transform="rotate(-15.2740, -0.5218, -0.1573)"><path d="M -1 0 L 1 0 M 1 0 L 0.4 0.3 M 1 0 L 0.4 -0.3" transform="translate(-0.5218, -0.1573) scale(0.0500)"/></g></g><g fill="rgb(2%, 73%, 80%)" fill-opacity="0.2" stroke="rgb(5%, 5%, 5%)" stroke-opacity="1.0" stroke-width="0.0500"><g transform="rotate(24.9171, -0.5218, -0.2397)"><path d="M -1 0 L 1 0 M 1 0 L 0.4 0.3 M 1 0 L 0.4 -0.3" transform="translate(-0.5218, -0.2397) scale(0.0500)"/></g></g><g fill="rgb(2%, 73%, 80%)" fill-opacity="0.2" stroke="rgb(5%, 5%, 5%)" stroke-opacity="1.0" stroke-width="0.0500"><g transform="rotate(85.2524, -0.5218, -0.3220)"><path d="M -1 0 L 1 0 M 1 0 L 0.4 0.3 M 1 0 L 0.4 -0.3" transform="translate(-0.5218, -0.3220) scale(0.0500)"/></g></g><g fill="rgb(2%, 73%, 80%)" fill-opacity="0.2" stroke="rgb(5%, 5%, 5%)" stroke-opacity="1.0" stroke-width="0.0500"><g transform="rotate(107.4397, -0.5218, -0.4043)"><path d="M -1 0 L 1 0 M 1 0 L 0.4 0.3 M 1 0 L 0.4 -0.3" transform="translate(-0.5218, -0.4043) scale(0.0500)"/></g></g><g fill="rgb(2%, 73%, 80%)" fill-opacity="0.2" stroke="rgb(5%, 5%, 5%)" stroke-opacity="1.0" stroke-width="0.0500"><g transform="rotate(-46.8993, -0.3954, 0.3366)"><path d="M -1 0 L 1 0 M 1 0 L 0.4 0.3 M 1 0 L 0.4 -0.3" transform="translate(-0.3954, 0.3366) scale(0.0500)"/></g></g><g fill="rgb(2%, 73%, 80%)" fill-opacity="0.2" stroke="rgb(5%, 5%, 5%)" stroke-opacity="1.0" stroke-width="0.0500"><g transform="rotate(-45.4122, -0.3954, 0.2543)"><path d="M -1 0 L 1 0 M 1 0 L 0.4 0.3 M 1 0 L 0.4 -0.3" transform="translate(-0.3954, 0.2543) scale(0.0500)"/></g></g><g fill="rgb(2%, 73%, 80%)" fill-opacity="0.2" stroke="rgb(5%, 5%, 5%)" stroke-opacity="1.0" stroke-width="0.0500"><g transform="rotate(-43.2666, -0.3954, 0.1719)"><path d="M -1 0 L 1 0 M 1 0 L 0.4 0.3 M 1 0 L 0.4 -0.3" transform="translate(-0.3954, 0.1719) scale(0.0500)"/></g></g><g fill="rgb(2%, 73%, 80%)" fill-opacity="0.2" stroke="rgb(5%, 5%, 5%)" stroke-opacity="1.0" stroke-width="0.0500"><g transform="rotate(-39.9135, -0.3954, 0.0896)"><path d="M -1 0 L 1 0 M 1 0 L 0.4 0.3 M 1 0 L 0.4 -0.3" transform="translate(-0.3954, 0.0896) scale(0.0500)"/></g></g><g fill="rgb(2%, 73%, 80%)" fill-opacity="0.2" stroke="rgb(5%, 5%, 5%)" stroke-opacity="1.0" stroke-width="0.0500"><g transform="rotate(-33.9991, -0.3954, 0.0073)"><path d="M -1 0 L 1 0 M 1 0 L 0.4 0.3 M 1 0 L 0.4 -0.3" transform="translate(-0.3954, 0.0073) scale(0.0500)"/></g></g><g fill="rgb(2%, 73%, 80%)" fill-opacity="0.2" stroke="rgb(5%, 5%, 5%)" stroke-opacity="1.0" stroke-width="0.0500"><g transform="rotate(-21.3212, -0.3954, -0.0750)"><path d="M -1 0 L 1 0 M 1 0 L 0.4 0.3 M 1 0 L 0.4 -0.3" transform="translate(-0.3954, -0.0750) scale(0.0500)"/></g></g><g fill="rgb(2%, 73%, 80%)" fill-opacity="0.2" stroke="rgb(5%, 5%, 5%)" stroke-opacity="1.0" stroke-width="0.0500"><g transform="rotate(13.3646, -0.3954, -0.1573)"><path d="M -1 0 L 1 0 M 1 0 L 0.4 0.3 M 1 0 L 0.4 -0.3" transform="translate(-0.3954, -0.1573) scale(0.0500)"/></g></g><g fill="rgb(2%, 73%, 80%)" fill-opacity="0.2" stroke="rgb(5%, 5%, 5%)" stroke-opacity="1.0" stroke-width="0.0500"><g transform="rotate(70.2608, -0.3954, -0.2397)"><path d="M -1 0 L 1 0 M 1 0 L 0.4 0.3 M 1 0 L 0.4 -0.3" transform="translate(-0.3954, -0.2397) scale(0.0500)"/></g></g><g fill="rgb(2%, 73%, 80%)" fill-opacity="0.2" stroke="rgb(5%, 5%, 5%)" stroke-opacity="1.0" stroke-width="0.0500"><g transform="rotate(96.0844, -0.3954, -0.3220)"><path d="M -1 0 L 1 0 M 1 0 L 0.4 0.3 M 1 0 L 0.4 -0.3" transform="translate(-0.3954, -0.3220) scale(0.0500)"/></g></g><g fill="rgb(2%, 73%, 80%)" fill-opacity="0.2" stroke="rgb(5%, 5%, 5%)" stroke-opacity="1.0" stroke-width="0.0500"><g transform="rotate(106.0551, -0.3954, -0.4043)"><path d="M -1 0 L 1 0 M 1 0 L 0.4 0.3 M 1 0 L 0.4 -0.3" transform="translate(-0.3954, -0.4043) scale(0.0500)"/></g></g><g fill="rgb(2%, 73%, 80%)" fill-opacity="0.2" stroke="rgb(5%, 5%, 5%)" stroke-opacity="1.0" stroke-width="0.0500"><g transform="rotate(-53.3544, -0.2691, 0.3366)"><path d="M -1 0 L 1 0 M 1 0 L 0.4 0.3 M 1 0 L 0.4 -0.3" transform="translate(-0.2691, 0.3366) scale(0.0500)"/></g></g><g fill="rgb(2%, 73%, 80%)" fill-opacity="0.2" stroke="rgb(5%, 5%, 5%)" stroke-opacity="1.0" stroke-width="0.0500"><g transform="rotate(-51.2345, -0.2691, 0.2543)"><path d="M -1 0 L 1 0 M 1 0 L 0.4 0.3 M 1 0 L 0.4 -0.3" transform="translate(-0.2691, 0.2543) scale(0.0500)"/></g></g><g fill="rgb(2%, 73%, 80%)" fill-opacity="0.2" stroke="rgb(5%, 5%, 5%)" stroke-opacity="1.0" stroke-width="0.0500"><g transform="rotate(-48.0128, -0.2691, 0.1719)"><path d="M -1 0 L 1 0 M 1 0 L 0.4 0.3 M 1 0 L 0.4 -0.3" transform="translate(-0.2691, 0.1719) scale(0.0500)"/></g></g><g fill="rgb(2%, 73%, 80%)" fill-opacity="0.2" stroke="rgb(5%, 5%, 5%)" stroke-opacity="1.0" stroke-width="0.0500"><g transform="rotate(-42.5805, -0.2691, 0.0896)"><path d="M -1 0 L 1 0 M 1 0 L 0.4 0.3 M 1 0 L 0.4 -0.3" transform="translate(-0.2691, 0.0896) scale(0.0500)"/></g></g><g fill="rgb(2%, 73%, 80%)" fill-opacity="0.2" stroke="rgb(5%, 5%, 5%)" stroke-opacity="1.0" stroke-width="0.0500"><g transform="rotate(-31.8274, -0.2691, 0.0073)"><path d="M -1 0 L 1 0 M 1 0 L 0.4 0.3 M 1 0 L 0.4 -0.3" transform="translate(-0.2691, 0.0073) scale(0.0500)"/></g></g><g fill="rgb(2%, 73%, 80%)" fill-opacity="0.2" stroke="rgb(5%, 5%, 5%)" stroke-opacity="1.0" stroke-width="0.0500"><g transform="rotate(-5.4403, -0.2691, -0.0750)"><path d="M -1 0 L 1 0 M 1 0 L 0.4 0.3 M 1 0 L 0.4 -0.3" transform="translate(-0.2691, -0.0750) scale(0.0500)"/></g></g><g fill="rgb(2%, 73%, 80%)" fill-opacity="0.2" stroke="rgb(5%, 5%, 5%)" stroke-opacity="1.0" stroke-width="0.0500"><g transform="rotate(47.1211, -0.2691, -0.1573)"><path d="M -1 0 L 1 0 M 1 0 L 0.4 0.3 M 1 0 L 0.4 -0.3" transform="translate(-0.2691, -0.1573) scale(0.0500)"/></g></g><g fill="rgb(2%, 73%, 80%)" fill-opacity="0.2" stroke="rgb(5%, 5%, 5%)" stroke-opacity="1.0" stroke-width="0.0500"><g transform="rotate(80.5377, -0.2691, -0.2397)"><path d="M -1 0 L 1 0 M 1 0 L 0.4 0.3 M 1 0 L 0.4 -0.3" transform="translate(-0.2691, -0.2397) scale(0.0500)"/></g></g><g fill="rgb(2%, 73%, 80%)" fill-opacity="0.2" stroke="rgb(5%, 5%, 5%)" stroke-opacity="1.0" stroke-width="0.0500"><g transform="rotate(93.7314, -0.2691, -0.3220)"><path d="M -1 0 L 1 0 M 1 0 L 0.4 0.3 M 1 0 L 0.4 -0.3" transform="translate(-0.2691, -0.3220) scale(0.0500)"/></g></g><g fill="rgb(2%, 73%, 80%)" fill-opacity="0.2" stroke="rgb(5%, 5%, 5%)" stroke-opacity="1.0" stroke-width="0.0500"><g transform="rotate(100.0607, -0.2691, -0.4043)"><path d="M -1 0 L 1 0 M 1 0 L 0.4 0.3 M 1 0 L 0.4 -0.3" transform="translate(-0.2691, -0.4043) scale(0.0500)"/></g></g><g fill="rgb(2%, 73%, 80%)" fill-opacity="0.2" stroke="rgb(5%, 5%, 5%)" stroke-opacity="1.0" stroke-width="0.0500"><g transform="rotate(-61.4810, -0.1428, 0.3366)"><path d="M -1 0 L 1 0 M 1 0 L 0.4 0.3 M 1 0 L 0.4 -0.3" transform="translate(-0.1428, 0.3366) scale(0.0500)"/></g></g><g fill="rgb(2%, 73%, 80%)" fill-opacity="0.2" stroke="rgb(5%, 5%, 5%)" stroke-opacity="1.0" stroke-width="0.0500"><g transform="rotate(-58.6701, -0.1428, 0.2543)"><path d="M -1 0 L 1 0 M 1 0 L 0.4 0.3 M 1 0 L 0.4 -0.3" transform="translate(-0.1428, 0.2543) scale(0.0500)"/></g></g><g fill="rgb(2%, 73%, 80%)" fill-opacity="0.2" stroke="rgb(5%, 5%, 5%)" stroke-opacity="1.0" stroke-width="0.0500"><g transform="rotate(-54.1700, -0.1428, 0.1719)"><path d="M -1 0 L 1 0 M 1 0 L 0.4 0.3 M 1 0 L 0.4 -0.3" transform="translate(-0.1428, 0.1719) scale(0.0500)"/></g></g><g fill="rgb(2%, 73%, 80%)" fill-opacity="0.2" stroke="rgb(5%, 5%, 5%)" stroke-opacity="1.0" stroke-width="0.0500"><g transform="rotate(-45.9710, -0.1428, 0.0896)"><path d="M -1 0 L 1 0 M 1 0 L 0.4 0.3 M 1 0 L 0.4 -0.3" transform="translate(-0.1428, 0.0896) scale(0.0500)"/></g></g><g fill="rgb(2%, 73%, 80%)" fill-opacity="0.2" stroke="rgb(5%, 5%, 5%)" stroke-opacity="1.0" stroke-width="0.0500"><g transform="rotate(-27.9309, -0.1428, 0.0073)"><path d="M -1 0 L 1 0 M 1 0 L 0.4 0.3 M 1 0 L 0.4 -0.3" transform="translate(-0.1428, 0.0073) scale(0.0500)"/></g></g><g fill="rgb(2%, 73%, 80%)" fill-opacity="0.2" stroke="rgb(5%, 5%, 5%)" stroke-opacity="1.0" stroke-width="0.0500"><g transform="rotate(14.4459, -0.1428, -0.0750)"><path d="M -1 0 L 1 0 M 1 0 L 0.4 0.3 M 1 0 L 0.4 -0.3" transform="translate(-0.1428, -0.0750) scale(0.0500)"/></g></g><g fill="rgb(2%, 73%, 80%)" fill-opacity="0.2" stroke="rgb(5%, 5%, 5%)" stroke-opacity="1.0" stroke-width="0.0500"><g transform="rotate(58.9537, -0.1428, -0.1573)"><path d="M -1 0 L 1 0 M 1 0 L 0.4 0.3 M 1 0 L 0.4 -0.3" transform="translate(-0.1428, -0.1573) scale(0.0500)"/></g></g><g fill="rgb(2%, 73%, 80%)" fill-opacity="0.2" stroke="rgb(5%, 5%, 5%)" stroke-opacity="1.0" stroke-width="0.0500"><g transform="rotate(78.3877, -0.1428, -0.2397)"><path d="M -1 0 L 1 0 M 1 0 L 0.4 0.3 M 1 0 L 0.4 -0.3" transform="translate(-0.1428, -0.2397) scale(0.0500)"/></g></g><g fill="rgb(2%, 73%, 80%)" fill-opacity="0.2" stroke="rgb(5%, 5%, 5%)" stroke-opacity="1.0" stroke-width="0.0500"><g transform="rotate(87.0722, -0.1428, -0.3220)"><path d="M -1 0 L 1 0 M 1 0 L 0.4 0.3 M 1 0 L 0.4 -0.3" transform="translate(-0.1428, -0.3220) scale(0.0500)"/></g></g><g fill="rgb(2%, 73%, 80%)" fill-opacity="0.2" stroke="rgb(5%, 5%, 5%)" stroke-opacity="1.0" stroke-width="0.0500"><g transform="rotate(91.7753, -0.1428, -0.4043)"><path d="M -1 0 L 1 0 M 1 0 L 0.4 0.3 M 1 0 L 0.4 -0.3" transform="translate(-0.1428, -0.4043) scale(0.0500)"/></g></g><g fill="rgb(2%, 73%, 80%)" fill-opacity="0.2" stroke="rgb(5%, 5%, 5%)" stroke-opacity="1.0" stroke-width="0.0500"><g transform="rotate(-71.6316, -0.0164, 0.3366)"><path d="M -1 0 L 1 0 M 1 0 L 0.4 0.3 M 1 0 L 0.4 -0.3" transform="translate(-0.0164, 0.3366) scale(0.0500)"/></g></g><g fill="rgb(2%, 73%, 80%)" fill-opacity="0.2" stroke="rgb(5%, 5%, 5%)" stroke-opacity="1.0" stroke-width="0.0500"><g transform="rotate(-68.3038, -0.0164, 0.2543)"><path d="M -1 0 L 1 0 M 1 0 L 0.4 0.3 M 1 0 L 0.4 -0.3" transform="translate(-0.0164, 0.2543) scale(0.0500)"/></g></g><g fill="rgb(2%, 73%, 80%)" fill-opacity="0.2" stroke="rgb(5%, 5%, 5%)" stroke-opacity="1.0" stroke-width="0.0500"><g transform="rotate(-62.7134, -0.0164, 0.1719)"><path d="M -1 0 L 1 0 M 1 0 L 0.4 0.3 M 1 0 L 0.4 -0.3" transform="translate(-0.0164, 0.1719) scale(0.0500)"/></g></g><g fill="rgb(2%, 73%, 80%)" fill-opacity="0.2" stroke="rgb(5%, 5%, 5%)" stroke-opacity="1.0" stroke-width="0.0500"><g transform="rotate(-51.7434, -0.0164, 0.0896)"><path d="M -1 0 L 1 0 M 1 0 L 0.4 0.3 M 1 0 L 0.4 -0.3" transform="translate(-0.0164, 0.0896) scale(0.0500)"/></g></g><g fill="rgb(2%, 73%, 80%)" fill-opacity="0.2" stroke="rgb(5%, 5%, 5%)" stroke-opacity="1.0" stroke-width="0.0500"><g transform="rotate(-25.4633, -0.0164, 0.0073)"><path d="M -1 0 L 1 0 M 1 0 L 0.4 0.3 M 1 0 L 0.4 -0.3" transform="translate(-0.0164, 0.0073) scale(0.0500)"/></g></g><g fill="rgb(2%, 73%, 80%)" fill-opacity="0.2" stroke="rgb(5%, 5%, 5%)" stroke-opacity="1.0" stroke-width="0.0500"><g transform="rotate(25.3523, -0.0164, -0.0750)"><path d="M -1 0 L 1 0 M 1 0 L 0.4 0.3 M 1 0 L 0.4 -0.3" transform="translate(-0.0164, -0.0750) scale(0.0500)"/></g></g><g fill="rgb(2%, 73%, 80%)" fill-opacity="0.2" stroke="rgb(5%, 5%, 5%)" stroke-opacity="1.0" stroke-width="0.0500"><g transform="rotate(58.5390, -0.0164, -0.1573)"><path d="M -1 0 L 1 0 M 1 0 L 0.4 0.3 M 1 0 L 0.4 -0.3" transform="translate(-0.0164, -0.1573) scale(0.0500)"/></g></g><g fill="rgb(2%, 73%, 80%)" fill-opacity="0.2" stroke="rgb(5%, 5%, 5%)" stroke-opacity="1.0" stroke-width="0.0500"><g transform="rotate(72.0351, -0.0164, -0.2397)"><path d="M -1 0 L 1 0 M 1 0 L 0.4 0.3 M 1 0 L 0.4 -0.3" transform="translate(-0.0164, -0.2397) scale(0.0500)"/></g></g><g fill="rgb(2%, 73%, 80%)" fill-opacity="0.2" stroke="rgb(5%, 5%, 5%)" stroke-opacity="1.0" stroke-width="0.0500"><g transform="rotate(78.5712, -0.0164, -0.3220)"><path d="M -1 0 L 1 0 M 1 0 L 0.4 0.3 M 1 0 L 0.4 -0.3" transform="translate(-0.0164, -0.3220) scale(0.0500)"/></g></g><g fill="rgb(2%, 73%, 80%)" fill-opacity="0.2" stroke="rgb(5%, 5%, 5%)" stroke-opacity="1.0" stroke-width="0.0500"><g transform="rotate(82.3320, -0.0164, -0.4043)"><path d="M -1 0 L 1 0 M 1 0 L 0.4 0.3 M 1 0 L 0.4 -0.3" transform="translate(-0.0164, -0.4043) scale(0.0500)"/></g></g><g fill="rgb(2%, 73%, 80%)" fill-opacity="0.2" stroke="rgb(5%, 5%, 5%)" stroke-opacity="1.0" stroke-width="0.0500"><g transform="rotate(-83.7258, 0.1099, 0.3366)"><path d="M -1 0 L 1 0 M 1 0 L 0.4 0.3 M 1 0 L 0.4 -0.3" transform="translate(0.1099, 0.3366) scale(0.0500)"/></g></g><g fill="rgb(2%, 73%, 80%)" fill-opacity="0.2" stroke="rgb(5%, 5%, 5%)" stroke-opacity="1.0" stroke-width="0.0500"><g transform="rotate(-80.3796, 0.1099, 0.2543)"><path d="M -1 0 L 1 0 M 1 0 L 0.4 0.3 M 1 0 L 0.4 -0.3" transform="translate(0.1099, 0.2543) scale(0.0500)"/></g></g><g fill="rgb(2%, 73%, 80%)" fill-opacity="0.2" stroke="rgb(5%, 5%, 5%)" stroke-opacity="1.0" stroke-width="0.0500"><g transform="rotate(-74.5578, 0.1099, 0.1719)"><path d="M -1 0 L 1 0 M 1 0 L 0.4 0.3 M 1 0 L 0.4 -0.3" transform="translate(0.1099, 0.1719) scale(0.0500)"/></g></g><g fill="rgb(2%, 73%, 80%)" fill-opacity="0.2" stroke="rgb(5%, 5%, 5%)" stroke-opacity="1.0" stroke-width="0.0500"><g transform="rotate(-62.3926, 0.1099, 0.0896)"><path d="M -1 0 L 1 0 M 1 0 L 0.4 0.3 M 1 0 L 0.4 -0.3" transform="translate(0.1099, 0.0896) scale(0.0500)"/></g></g><g fill="rgb(2%, 73%, 80%)" fill-opacity="0.2" stroke="rgb(5%, 5%, 5%)" stroke-opacity="1.0" stroke-width="0.0500"><g transform="rotate(-30.3259, 0.1099, 0.0073)"><path d="M -1 0 L 1 0 M 1 0 L 0.4 0.3 M 1 0 L 0.4 -0.3" transform="translate(0.1099, 0.0073) scale(0.0500)"/></g></g><g fill="rgb(2%, 73%, 80%)" fill-opacity="0.2" stroke="rgb(5%, 5%, 5%)" stroke-opacity="1.0" stroke-width="0.0500"><g transform="rotate(25.4633, 0.1099, -0.0750)"><path d="M -1 0 L 1 0 M 1 0 L 0.4 0.3 M 1 0 L 0.4 -0.3" transform="translate(0.1099, -0.0750) scale(0.0500)"/></g></g><g fill="rgb(2%, 73%, 80%)" fill-opacity="0.2" stroke="rgb(5%, 5%, 5%)" stroke-opacity="1.0" stroke-width="0.0500"><g transform="rotate(53.3483, 0.1099, -0.1573)"><path d="M -1 0 L 1 0 M 1 0 L 0.4 0.3 M 1 0 L 0.4 -0.3" transform="translate(0.1099, -0.1573) scale(0.0500)"/></g></g><g fill="rgb(2%, 73%, 80%)" fill-opacity="0.2" stroke="rgb(5%, 5%, 5%)" stroke-opacity="1.0" stroke-width="0.0500"><g transform="rotate(64.1805, 0.1099, -0.2397)"><path d="M -1 0 L 1 0 M 1 0 L 0.4 0.3 M 1 0 L 0.4 -0.3" transform="translate(0.1099, -0.2397) scale(0.0500)"/></g></g><g fill="rgb(2%, 73%, 80%)" fill-opacity="0.2" stroke="rgb(5%, 5%, 5%)" stroke-opacity="1.0" stroke-width="0.0500"><g transform="rotate(69.5253, 0.1099, -0.3220)"><path d="M -1 0 L 1 0 M 1 0 L 0.4 0.3 M 1 0 L 0.4 -0.3" transform="translate(0.1099, -0.3220) scale(0.0500)"/></g></g><g fill="rgb(2%, 73%, 80%)" fill-opacity="0.2" stroke="rgb(5%, 5%, 5%)" stroke-opacity="1.0" stroke-width="0.0500"><g transform="rotate(72.6569, 0.1099, -0.4043)"><path d="M -1 0 L 1 0 M 1 0 L 0.4 0.3 M 1 0 L 0.4 -0.3" transform="translate(0.1099, -0.4043) scale(0.0500)"/></g></g><g fill="rgb(2%, 73%, 80%)" fill-opacity="0.2" stroke="rgb(5%, 5%, 5%)" stroke-opacity="1.0" stroke-width="0.0500"><g transform="rotate(-96.8488, 0.2362, 0.3366)"><path d="M -1 0 L 1 0 M 1 0 L 0.4 0.3 M 1 0 L 0.4 -0.3" transform="translate(0.2362, 0.3366) scale(0.0500)"/></g></g><g fill="rgb(2%, 73%, 80%)" fill-opacity="0.2" stroke="rgb(5%, 5%, 5%)" stroke-opacity="1.0" stroke-width="0.0500"><g transform="rotate(-94.1075, 0.2362, 0.2543)"><path d="M -1 0 L 1 0 M 1 0 L 0.4 0.3 M 1 0 L 0.4 -0.3" transform="translate(0.2362, 0.2543) scale(0.0500)"/></g></g><g fill="rgb(2%, 73%, 80%)" fill-opacity="0.2" stroke="rgb(5%, 5%, 5%)" stroke-opacity="1.0" stroke-width="0.0500"><g transform="rotate(-89.3167, 0.2362, 0.1719)"><path d="M -1 0 L 1 0 M 1 0 L 0.4 0.3 M 1 0 L 0.4 -0.3" transform="translate(0.2362, 0.1719) scale(0.0500)"/></g></g><g fill="rgb(2%, 73%, 80%)" fill-opacity="0.2" stroke="rgb(5%, 5%, 5%)" stroke-opacity="1.0" stroke-width="0.0500"><g transform="rotate(-79.0898, 0.2362, 0.0896)"><path d="M -1 0 L 1 0 M 1 0 L 0.4 0.3 M 1 0 L 0.4 -0.3" transform="translate(0.2362, 0.0896) scale(0.0500)"/></g></g><g fill="rgb(2%, 73%, 80%)" fill-opacity="0.2" stroke="rgb(5%, 5%, 5%)" stroke-opacity="1.0" stroke-width="0.0500"><g transform="rotate(-48.8981, 0.2362, 0.0073)"><path d="M -1 0 L 1 0 M 1 0 L 0.4 0.3 M 1 0 L 0.4 -0.3" transform="translate(0.2362, 0.0073) scale(0.0500)"/></g></g><g fill="rgb(2%, 73%, 80%)" fill-opacity="0.2" stroke="rgb(5%, 5%, 5%)" stroke-opacity="1.0" stroke-width="0.0500"><g transform="rotate(16.4311, 0.2362, -0.0750)"><path d="M -1 0 L 1 0 M 1 0 L 0.4 0.3 M 1 0 L 0.4 -0.3" transform="translate(0.2362, -0.0750) scale(0.0500)"/></g></g><g fill="rgb(2%, 73%, 80%)" fill-opacity="0.2" stroke="rgb(5%, 5%, 5%)" stroke-opacity="1.0" stroke-width="0.0500"><g transform="rotate(45.9710, 0.2362, -0.1573)"><path d="M -1 0 L 1 0 M 1 0 L 0.4 0.3 M 1 0 L 0.4 -0.3" transform="translate(0.2362, -0.1573) scale(0.0500)"/></g></g><g fill="rgb(2%, 73%, 80%)" fill-opacity="0.2" stroke="rgb(5%, 5%, 5%)" stroke-opacity="1.0" stroke-width="0.0500"><g transform="rotate(56.0348, 0.2362, -0.2397)"><path d="M -1 0 L 1 0 M 1 0 L 0.4 0.3 M 1 0 L 0.4 -0.3" transform="translate(0.2362, -0.2397) scale(0.0500)"/></g></g><g fill="rgb(2%, 73%, 80%)" fill-opacity="0.2" stroke="rgb(5%, 5%, 5%)" stroke-opacity="1.0" stroke-width="0.0500"><g transform="rotate(60.7712, 0.2362, -0.3220)"><path d="M -1 0 L 1 0 M 1 0 L 0.4 0.3 M 1 0 L 0.4 -0.3" transform="translate(0.2362, -0.3220) scale(0.0500)"/></g></g><g fill="rgb(2%, 73%, 80%)" fill-opacity="0.2" stroke="rgb(5%, 5%, 5%)" stroke-opacity="1.0" stroke-width="0.0500"><g transform="rotate(63.4886, 0.2362, -0.4043)"><path d="M -1 0 L 1 0 M 1 0 L 0.4 0.3 M 1 0 L 0.4 -0.3" transform="translate(0.2362, -0.4043) scale(0.0500)"/></g></g><g fill="rgb(2%, 73%, 80%)" fill-opacity="0.2" stroke="rgb(5%, 5%, 5%)" stroke-opacity="1.0" stroke-width="0.0500"><g transform="rotate(-109.4766, 0.3626, 0.3366)"><path d="M -1 0 L 1 0 M 1 0 L 0.4 0.3 M 1 0 L 0.4 -0.3" transform="translate(0.3626, 0.3366) scale(0.0500)"/></g></g><g fill="rgb(2%, 73%, 80%)" fill-opacity="0.2" stroke="rgb(5%, 5%, 5%)" stroke-opacity="1.0" stroke-width="0.0500"><g transform="rotate(-107.6501, 0.3626, 0.2543)"><path d="M -1 0 L 1 0 M 1 0 L 0.4 0.3 M 1 0 L 0.4 -0.3" transform="translate(0.3626, 0.2543) scale(0.0500)"/></g></g><g fill="rgb(2%, 73%, 80%)" fill-opacity="0.2" stroke="rgb(5%, 5%, 5%)" stroke-opacity="1.0" stroke-width="0.0500"><g transform="rotate(-104.5742, 0.3626, 0.1719)"><path d="M -1 0 L 1 0 M 1 0 L 0.4 0.3 M 1 0 L 0.4 -0.3" transform="translate(0.3626, 0.1719) scale(0.0500)"/></g></g><g fill="rgb(2%, 73%, 80%)" fill-opacity="0.2" stroke="rgb(5%, 5%, 5%)" stroke-opacity="1.0" stroke-width="0.0500"><g transform="rotate(-98.3659, 0.3626, 0.0896)"><path d="M -1 0 L 1 0 M 1 0 L 0.4 0.3 M 1 0 L 0.4 -0.3" transform="translate(0.3626, 0.0896) scale(0.0500)"/></g></g><g fill="rgb(2%, 73%, 80%)" fill-opacity="0.2" stroke="rgb(5%, 5%, 5%)" stroke-opacity="1.0" stroke-width="0.0500"><g transform="rotate(-80.5377, 0.3626, 0.0073)"><path d="M -1 0 L 1 0 M 1 0 L 0.4 0.3 M 1 0 L 0.4 -0.3" transform="translate(0.3626, 0.0073) scale(0.0500)"/></g></g><g fill="rgb(2%, 73%, 80%)" fill-opacity="0.2" stroke="rgb(5%, 5%, 5%)" stroke-opacity="1.0" stroke-width="0.0500"><g transform="rotate(-10.3048, 0.3626, -0.0750)"><path d="M -1 0 L 1 0 M 1 0 L 0.4 0.3 M 1 0 L 0.4 -0.3" transform="translate(0.3626, -0.0750) scale(0.0500)"/></g></g><g fill="rgb(2%, 73%, 80%)" fill-opacity="0.2" stroke="rgb(5%, 5%, 5%)" stroke-opacity="1.0" stroke-width="0.0500"><g transform="rotate(36.3844, 0.3626, -0.1573)"><path d="M -1 0 L 1 0 M 1 0 L 0.4 0.3 M 1 0 L 0.4 -0.3" transform="translate(0.3626, -0.1573) scale(0.0500)"/></g></g><g fill="rgb(2%, 73%, 80%)" fill-opacity="0.2" stroke="rgb(5%, 5%, 5%)" stroke-opacity="1.0" stroke-width="0.0500"><g transform="rotate(48.0128, 0.3626, -0.2397)"><path d="M -1 0 L 1 0 M 1 0 L 0.4 0.3 M 1 0 L 0.4 -0.3" transform="translate(0.3626, -0.2397) scale(0.0500)"/></g></g><g fill="rgb(2%, 73%, 80%)" fill-opacity="0.2" stroke="rgb(5%, 5%, 5%)" stroke-opacity="1.0" stroke-width="0.0500"><g transform="rotate(52.7336, 0.3626, -0.3220)"><path d="M -1 0 L 1 0 M 1 0 L 0.4 0.3 M 1 0 L 0.4 -0.3" transform="translate(0.3626, -0.3220) scale(0.0500)"/></g></g><g fill="rgb(2%, 73%, 80%)" fill-opacity="0.2" stroke="rgb(5%, 5%, 5%)" stroke-opacity="1.0" stroke-width="0.0500"><g transform="rotate(55.2568, 0.3626, -0.4043)"><path d="M -1 0 L 1 0 M 1 0 L 0.4 0.3 M 1 0 L 0.4 -0.3" transform="translate(0.3626, -0.4043) scale(0.0500)"/></g></g><g fill="rgb(2%, 73%, 80%)" fill-opacity="0.2" stroke="rgb(5%, 5%, 5%)" stroke-opacity="1.0" stroke-width="0.0500"><g transform="rotate(-120.3900, 0.4889, 0.3366)"><path d="M -1 0 L 1 0 M 1 0 L 0.4 0.3 M 1 0 L 0.4 -0.3" transform="translate(0.4889, 0.3366) scale(0.0500)"/></g></g><g fill="rgb(2%, 73%, 80%)" fill-opacity="0.2" stroke="rgb(5%, 5%, 5%)" stroke-opacity="1.0" stroke-width="0.0500"><g transform="rotate(-119.3549, 0.4889, 0.2543)"><path d="M -1 0 L 1 0 M 1 0 L 0.4 0.3 M 1 0 L 0.4 -0.3" transform="translate(0.4889, 0.2543) scale(0.0500)"/></g></g><g fill="rgb(2%, 73%, 80%)" fill-opacity="0.2" stroke="rgb(5%, 5%, 5%)" stroke-opacity="1.0" stroke-width="0.0500"><g transform="rotate(-117.7221, 0.4889, 0.1719)"><path d="M -1 0 L 1 0 M 1 0 L 0.4 0.3 M 1 0 L 0.4 -0.3" transform="translate(0.4889, 0.1719) scale(0.0500)"/></g></g><g fill="rgb(2%, 73%, 80%)" fill-opacity="0.2" stroke="rgb(5%, 5%, 5%)" stroke-opacity="1.0" stroke-width="0.0500"><g transform="rotate(-114.7718, 0.4889, 0.0896)"><path d="M -1 0 L 1 0 M 1 0 L 0.4 0.3 M 1 0 L 0.4 -0.3" transform="translate(0.4889, 0.0896) scale(0.0500)"/></g></g><g fill="rgb(2%, 73%, 80%)" fill-opacity="0.2" stroke="rgb(5%, 5%, 5%)" stroke-opacity="1.0" stroke-width="0.0500"><g transform="rotate(-107.9102, 0.4889, 0.0073)"><path d="M -1 0 L 1 0 M 1 0 L 0.4 0.3 M 1 0 L 0.4 -0.3" transform="translate(0.4889, 0.0073) scale(0.0500)"/></g></g><g fill="rgb(2%, 73%, 80%)" fill-opacity="0.2" stroke="rgb(5%, 5%, 5%)" stroke-opacity="1.0" stroke-width="0.0500"><g transform="rotate(-78.8802, 0.4889, -0.0750)"><path d="M -1 0 L 1 0 M 1 0 L 0.4 0.3 M 1 0 L 0.4 -0.3" transform="translate(0.4889, -0.0750) scale(0.0500)"/></g></g><g fill="rgb(2%, 73%, 80%)" fill-opacity="0.2" stroke="rgb(5%, 5%, 5%)" stroke-opacity="1.0" stroke-width="0.0500"><g transform="rotate(18.0772, 0.4889, -0.1573)"><path d="M -1 0 L 1 0 M 1 0 L 0.4 0.3 M 1 0 L 0.4 -0.3" transform="translate(0.4889, -0.1573) scale(0.0500)"/></g></g><g fill="rgb(2%, 73%, 80%)" fill-opacity="0.2" stroke="rgb(5%, 5%, 5%)" stroke-opacity="1.0" stroke-width="0.0500"><g transform="rotate(39.5765, 0.4889, -0.2397)"><path d="M -1 0 L 1 0 M 1 0 L 0.4 0.3 M 1 0 L 0.4 -0.3" transform="translate(0.4889, -0.2397) scale(0.0500)"/></g></g><g fill="rgb(2%, 73%, 80%)" fill-opacity="0.2" stroke="rgb(5%, 5%, 5%)" stroke-opacity="1.0" stroke-width="0.0500"><g transform="rotate(45.4122, 0.4889, -0.3220)"><path d="M -1 0 L 1 0 M 1 0 L 0.4 0.3 M 1 0 L 0.4 -0.3" transform="translate(0.4889, -0.3220) scale(0.0500)"/></g></g><g fill="rgb(2%, 73%, 80%)" fill-opacity="0.2" stroke="rgb(5%, 5%, 5%)" stroke-opacity="1.0" stroke-width="0.0500"><g transform="rotate(48.0612, 0.4889, -0.4043)"><path d="M -1 0 L 1 0 M 1 0 L 0.4 0.3 M 1 0 L 0.4 -0.3" transform="translate(0.4889, -0.4043) scale(0.0500)"/></g></g><g fill="rgb(2%, 73%, 80%)" fill-opacity="0.2" stroke="rgb(5%, 5%, 5%)" stroke-opacity="1.0" stroke-width="0.0500"><g transform="rotate(-129.2044, 0.6152, 0.3366)"><path d="M -1 0 L 1 0 M 1 0 L 0.4 0.3 M 1 0 L 0.4 -0.3" transform="translate(0.6152, 0.3366) scale(0.0500)"/></g></g><g fill="rgb(2%, 73%, 80%)" fill-opacity="0.2" stroke="rgb(5%, 5%, 5%)" stroke-opacity="1.0" stroke-width="0.0500"><g transform="rotate(-128.6756, 0.6152, 0.2543)"><path d="M -1 0 L 1 0 M 1 0 L 0.4 0.3 M 1 0 L 0.4 -0.3" transform="translate(0.6152, 0.2543) scale(0.0500)"/></g></g><g fill="rgb(2%, 73%, 80%)" fill-opacity="0.2" stroke="rgb(5%, 5%, 5%)" stroke-opacity="1.0" stroke-width="0.0500"><g transform="rotate(-127.8991, 0.6152, 0.1719)"><path d="M -1 0 L 1 0 M 1 0 L 0.4 0.3 M 1 0 L 0.4 -0.3" transform="translate(0.6152, 0.1719) scale(0.0500)"/></g></g><g fill="rgb(2%, 73%, 80%)" fill-opacity="0.2" stroke="rgb(5%, 5%, 5%)" stroke-opacity="1.0" stroke-width="0.0500"><g transform="rotate(-126.6482, 0.6152, 0.0896)"><path d="M -1 0 L 1 0 M 1 0 L 0.4 0.3 M 1 0 L 0.4 -0.3" transform="translate(0.6152, 0.0896) scale(0.0500)"/></g></g><g fill="rgb(2%, 73%, 80%)" fill-opacity="0.2" stroke="rgb(5%, 5%, 5%)" stroke-opacity="1.0" stroke-width="0.0500"><g transform="rotate(-124.3010, 0.6152, 0.0073)"><path d="M -1 0 L 1 0 M 1 0 L 0.4 0.3 M 1 0 L 0.4 -0.3" transform="translate(0.6152, 0.0073) scale(0.0500)"/></g></g><g fill="rgb(2%, 73%, 80%)" fill-opacity="0.2" stroke="rgb(5%, 5%, 5%)" stroke-opacity="1.0" stroke-width="0.0500"><g transform="rotate(-118.3399, 0.6152, -0.0750)"><path d="M -1 0 L 1 0 M 1 0 L 0.4 0.3 M 1 0 L 0.4 -0.3" transform="translate(0.6152, -0.0750) scale(0.0500)"/></g></g><g fill="rgb(2%, 73%, 80%)" fill-opacity="0.2" stroke="rgb(5%, 5%, 5%)" stroke-opacity="1.0" stroke-width="0.0500"><g transform="rotate(-81.6027, 0.6152, -0.1573)"><path d="M -1 0 L 1 0 M 1 0 L 0.4 0.3 M 1 0 L 0.4 -0.3" transform="translate(0.6152, -0.1573) scale(0.0500)"/></g></g><g fill="rgb(2%, 73%, 80%)" fill-opacity="0.2" stroke="rgb(5%, 5%, 5%)" stroke-opacity="1.0" stroke-width="0.0500"><g transform="rotate(25.9167, 0.6152, -0.2397)"><path d="M -1 0 L 1 0 M 1 0 L 0.4 0.3 M 1 0 L 0.4 -0.3" transform="translate(0.6152, -0.2397) scale(0.0500)"/></g></g><g fill="rgb(2%, 73%, 80%)" fill-opacity="0.2" stroke="rgb(5%, 5%, 5%)" stroke-opacity="1.0" stroke-width="0.0500"><g transform="rotate(38.1539, 0.6152, -0.3220)"><path d="M -1 0 L 1 0 M 1 0 L 0.4 0.3 M 1 0 L 0.4 -0.3" transform="translate(0.6152, -0.3220) scale(0.0500)"/></g></g><g fill="rgb(2%, 73%, 80%)" fill-opacity="0.2" stroke="rgb(5%, 5%, 5%)" stroke-opacity="1.0" stroke-width="0.0500"><g transform="rotate(41.7039, 0.6152, -0.4043)"><path d="M -1 0 L 1 0 M 1 0 L 0.4 0.3 M 1 0 L 0.4 -0.3" transform="translate(0.6152, -0.4043) scale(0.0500)"/></g></g></g></g><g class="hud"><g class="frame"><g fill="rgb(100%, 100%, 100%)" fill-opacity="0.02" stroke="rgb(0%, 0%, 0%)" stroke-opacity="0" stroke-width="0"><rect height="0.8232" width="1.2633" x="-0.5849" y="-0.4455"/></g></g><g class="axis"><g class="ticks"><g class="tickglyph"><g fill="rgb(5%, 5%, 5%)" fill-opacity="0.4" stroke="rgb(5%, 5%, 5%)" stroke-opacity="0.4" stroke-width="0.0040"><g transform="rotate(-90.0, -0.6102, 0.3778)"><polyline points="-0.6102,0.3928
-0.6102,0.3628"/></g><g transform="rotate(-90.0, -0.6102, 0.2954)"><polyline points="-0.6102,0.3104
-0.6102,0.2804"/></g><g transform="rotate(-90.0, -0.6102, 0.2131)"><polyline points="-0.6102,0.2281
-0.6102,0.1981"/></g><g transform="rotate(-90.0, -0.6102, 0.1308)"><polyline points="-0.6102,0.1458
-0.6102,0.1158"/></g><g transform="rotate(-90.0, -0.6102, 0.0485)"><polyline points="-0.6102,0.0635
-0.6102,0.0335"/></g><g transform="rotate(-90.0, -0.6102, -0.0339)"><polyline points="-0.6102,-0.0189
-0.6102,-0.0489"/></g><g transform="rotate(-90.0, -0.6102, -0.1162)"><polyline points="-0.6102,-0.1012
-0.6102,-0.1312"/></g><g transform="rotate(-90.0, -0.6102, -0.1985)"><polyline points="-0.6102,-0.1835
-0.6102,-0.2135"/></g><g transform="rotate(-90.0, -0.6102, -0.2808)"><polyline points="-0.6102,-0.2658
-0.6102,-0.2958"/></g><g transform="rotate(-90.0, -0.6102, -0.3631)"><polyline points="-0.6102,-0.3481
-0.6102,-0.3781"/></g><g transform="rotate(-90.0, -0.6102, -0.4455)"><polyline points="-0.6102,-0.4305
-0.6102,-0.4605"/></g></g></g><g class="ticktext"><g fill="rgb(5%, 5%, 5%)" fill-opacity="1.0" font-size="0.0421" stroke="none" stroke-width="0.0" text-anchor="end"><text x="-0.6405" y="0.3891">-0.5</text><text x="-0.6405" y="0.3068">-0.4</text><text x="-0.6405" y="0.2244">-0.3</text><text x="-0.6405" y="0.1421">-0.2</text><text x="-0.6405" y="0.0598">-0.1</text><text x="-0.6405" y="-0.0225"> 0.0</text><text x="-0.6405" y="-0.1049"> 0.1</text><text x="-0.6405" y="-0.1872"> 0.2</text><text x="-0.6405" y="-0.2695"> 0.3</text><text x="-0.6405" y="-0.3518"> 0.4</text><text x="-0.6405" y="-0.4341"> 0.5</text></g></g></g><g class="axisbar"><g fill="rgb(5%, 5%, 5%)" fill-opacity="0.4" stroke="rgb(0%, 0%, 0%)" stroke-opacity="0" stroke-width="0"><rect height="0.8265" width="0.0034" x="-0.5967" y="-0.4471"/></g></g></g><g class="axis"><g class="ticks"><g class="tickglyph"><g fill="rgb(5%, 5%, 5%)" fill-opacity="0.4" stroke="rgb(5%, 5%, 5%)" stroke-opacity="0.4" stroke-width="0.0040"><polyline points="-0.5849,0.4174
-0.5849,0.3874"/><polyline points="-0.4586,0.4174
-0.4586,0.3874"/><polyline points="-0.3323,0.4174
-0.3323,0.3874"/><polyline points="-0.2059,0.4174
-0.2059,0.3874"/><polyline points="-0.0796,0.4174
-0.0796,0.3874"/><polyline points="0.0467,0.4174
0.0467,0.3874"/><polyline points="0.1731,0.4174
0.1731,0.3874"/><polyline points="0.2994,0.4174
0.2994,0.3874"/><polyline points="0.4257,0.4174
0.4257,0.3874"/><polyline points="0.5521,0.4174
0.5521,0.3874"/><polyline points="0.6784,0.4174
0.6784,0.3874"/></g></g><g class="ticktext"><g fill="rgb(5%, 5%, 5%)" fill-opacity="1.0" font-size="0.0421" stroke="none" stroke-width="0.0" text-anchor="middle"><text x="-0.5849" y="0.4547">-0.5</text><text x="-0.4586" y="0.4547">-0.4</text><text x="-0.3323" y="0.4547">-0.3</text><text x="-0.2059" y="0.4547">-0.2</text><text x="-0.0796" y="0.4547">-0.1</text><text x="0.0467" y="0.4547"> 0.0</text><text x="0.1731" y="0.4547"> 0.1</text><text x="0.2994" y="0.4547"> 0.2</text><text x="0.4257" y="0.4547"> 0.3</text><text x="0.5521" y="0.4547"> 0.4</text><text x="0.6784" y="0.4547"> 0.5</text></g></g></g><g class="axisbar"><g fill="rgb(5%, 5%, 5%)" fill-opacity="0.4" stroke="rgb(0%, 0%, 0%)" stroke-opacity="0" stroke-width="0"><rect height="0.0033" width="1.2667" x="-0.5866" y="0.3860"/></g></g></g><g class="frame"><g fill="rgb(100%, 100%, 100%)" fill-opacity="0.02" stroke="rgb(0%, 0%, 0%)" stroke-opacity="0" stroke-width="0"><rect height="1.0" width="1.5" x="-0.75" y="-0.5"/></g></g></g></svg>