<svg xmlns="http://www.w3.org/2000/svg" xmlns:xlink="http://www.w3.org/1999/xlink" width="450" height="300" viewBox="-0.75 -0.5 1.5 1.0"><style>svg {
  color-scheme: light dark;
}
{
  .canvas g, .title g, .axisbar g, .ticktext g, .tickglyph g, .ticklines g, .legendContent g text {
    fill: rgb(5%, 5%, 5%);
  }
  .ticklines g, .tickglyph g, .legendBorder g {
    stroke: rgb(5%, 5%, 5%);
  }
  .legendBorder g {
    fill: rgb(94%, 94%, 94%);
  }
}
@media (prefers-color-scheme:dark) {
  .canvas g, .title g, .axisbar g, .ticktext g, .tickglyph g, .ticklines g, .legendContent g text {
    fill: rgb(94%, 94%, 94%);
  }
  .ticklines g, .tickglyph g, .legendBorder g {
    stroke: rgb(94%, 94%, 94%);
  }
  .legendBorder g {
    fill: rgb(5%, 5%, 5%);
  }
}
{
  .arrow g {
    fill: rgba(5%, 5%, 5%, 1.00);
    stroke: rgba(5%, 5%, 5%, 1.00);
  }
}
@media (prefers-color-scheme:dark) {
  .arrow g {
    fill: rgba(94%, 94%, 94%, 1.00);
    stroke: rgba(94%, 94%, 94%, 1.00);
  }
}
</style><g class="chart"><g class="arrow"><g stroke-width="0.0500" stroke="rgb(5%, 5%, 5%)" stroke-opacity="1.0" fill="rgb(2%, 73%, 80%)" fill-opacity="0.2"><g transform="rotate(-41.7039, -0.5147, 0.3145)"><path d="M -1 0 L 1 0 M 1 0 L 0.4 0.3 M 1 0 L 0.4 -0.3" transform="translate(-0.5147, 0.3145) scale(0.0500)"/></g></g><g stroke-width="0.0500" stroke="rgb(5%, 5%, 5%)" stroke-opacity="1.0" fill="rgb(2%, 73%, 80%)" fill-opacity="0.2"><g transform="rotate(-40.7040, -0.5147, 0.2350)"><path d="M -1 0 L 1 0 M 1 0 L 0.4 0.3 M 1 0 L 0.4 -0.3" transform="translate(-0.5147, 0.2350) scale(0.0500)"/></g></g><g stroke-width="0.0500" stroke="rgb(5%, 5%, 5%)" stroke-opacity="1.0" fill="rgb(2%, 73%, 80%)" fill-opacity="0.2"><g transform="rotate(-39.3303, -0.5147, 0.1555)"><path d="M -1 0 L 1 0 M 1 0 L 0.4 0.3 M 1 0 L 0.4 -0.3" transform="translate(-0.5147, 0.1555) scale(0.0500)"/></g></g><g stroke-width="0.0500" stroke="rgb(5%, 5%, 5%)" stroke-opacity="1.0" fill="rgb(2%, 73%, 80%)" fill-opacity="0.2"><g transform="rotate(-37.3282, -0.5147, 0.0761)"><path d="M -1 0 L 1 0 M 1 0 L 0.4 0.3 M 1 0 L 0.4 -0.3" transform="translate(-0.5147, 0.0761) scale(0.0500)"/></g></g><g stroke-width="0.0500" stroke="rgb(5%, 5%, 5%)" stroke-opacity="1.0" fill="rgb(2%, 73%, 80%)" fill-opacity="0.2"><g transform="rotate(-34.1493, -0.5147, -0.0034)"><path d="M -1 0 L 1 0 M 1 0 L 0.4 0.3 M 1 0 L 0.4 -0.3" transform="translate(-0.5147, -0.0034) scale(0.0500)"/></g></g><g stroke-width="0.0500" stroke="rgb(5%, 5%, 5%)" stroke-opacity="1.0" fill="rgb(2%, 73%, 80%)" fill-opacity="0.2"><g transform="rotate(-28.3824, -0.5147, -0.0829)"><path d="M -1 0 L 1 0 M 1 0 L 0.4 0.3 M 1 0 L 0.4 -0.3" transform="translate(-0.5147, -0.0829) scale(0.0500)"/></g></g><g stroke-width="0.0500" stroke="rgb(5%, 5%, 5%)" stroke-opacity="1.0" fill="rgb(2%, 73%, 80%)" fill-opacity="0.2"><g transform="rotate(-15.2740, -0.5147, -0.1623)"><path d="M -1 0 L 1 0 M 1 0 L 0.4 0.3 M 1 0 L 0.4 -0.3" transform="translate(-0.5147, -0.1623) scale(0.0500)"/></g></g><g stroke-width="0.0500" stroke="rgb(5%, 5%, 5%)" stroke-opacity="1.0" fill="rgb(2%, 73%, 80%)" fill-opacity="0.2"><g transform="rotate(24.9171, -0.5147, -0.2418)"><path d="M -1 0 L 1 0 M 1 0 L 0.4 0.3 M 1 0 L 0.4 -0.3" transform="translate(-0.5147, -0.2418) scale(0.0500)"/></g></g><g stroke-width="0.0500" stroke="rgb(5%, 5%, 5%)" stroke-opacity="1.0" fill="rgb(2%, 73%, 80%)" fill-opacity="0.2"><g transform="rotate(85.2524, -0.5147, -0.3212)"><path d="M -1 0 L 1 0 M 1 0 L 0.4 0.3 M 1 0 L 0.4 -0.3" transform="translate(-0.5147, -0.3212) scale(0.0500)"/></g></g><g stroke-width="0.0500" stroke="rgb(5%, 5%, 5%)" stroke-opacity="1.0" fill="rgb(2%, 73%, 80%)" fill-opacity="0.2"><g transform="rotate(107.4397, -0.5147, -0.4007)"><path d="M -1 0 L 1 0 M 1 0 L 0.4 0.3 M 1 0 L 0.4 -0.3" transform="translate(-0.5147, -0.4007) scale(0.0500)"/></g></g><g stroke-width="0.0500" stroke="rgb(5%, 5%, 5%)" stroke-opacity="1.0" fill="rgb(2%, 73%, 80%)" fill-opacity="0.2"><g transform="rotate(-46.8993, -0.3890, 0.3145)"><path d="M -1 0 L 1 0 M 1 0 L 0.4 0.3 M 1 0 L 0.4 -0.3" transform="translate(-0.3890, 0.3145) scale(0.0500)"/></g></g><g stroke-width="0.0500" stroke="rgb(5%, 5%, 5%)" stroke-opacity="1.0" fill="rgb(2%, 73%, 80%)" fill-opacity="0.2"><g transform="rotate(-45.4122, -0.3890, 0.2350)"><path d="M -1 0 L 1 0 M 1 0 L 0.4 0.3 M 1 0 L 0.4 -0.3" transform="translate(-0.3890, 0.2350) scale(0.0500)"/></g></g><g stroke-width="0.0500" stroke="rgb(5%, 5%, 5%)" stroke-opacity="1.0" fill="rgb(2%, 73%, 80%)" fill-opacity="0.2"><g transform="rotate(-43.2666, -0.3890, 0.1555)"><path d="M -1 0 L 1 0 M 1 0 L 0.4 0.3 M 1 0 L 0.4 -0.3" transform="translate(-0.3890, 0.1555) scale(0.0500)"/></g></g><g stroke-width="0.0500" stroke="rgb(5%, 5%, 5%)" stroke-opacity="1.0" fill="rgb(2%, 73%, 80%)" fill-opacity="0.2"><g transform="rotate(-39.9135, -0.3890, 0.0761)"><path d="M -1 0 L 1 0 M 1 0 L 0.4 0.3 M 1 0 L 0.4 -0.3" transform="translate(-0.3890, 0.0761) scale(0.0500)"/></g></g><g stroke-width="0.0500" stroke="rgb(5%, 5%, 5%)" stroke-opacity="1.0" fill="rgb(2%, 73%, 80%)" fill-opacity="0.2"><g transform="rotate(-33.9991, -0.3890, -0.0034)"><path d="M -1 0 L 1 0 M 1 0 L 0.4 0.3 M 1 0 L 0.4 -0.3" transform="translate(-0.3890, -0.0034) scale(0.0500)"/></g></g><g stroke-width="0.0500" stroke="rgb(5%, 5%, 5%)" stroke-opacity="1.0" fill="rgb(2%, 73%, 80%)" fill-opacity="0.2"><g transform="rotate(-21.3212, -0.3890, -0.0829)"><path d="M -1 0 L 1 0 M 1 0 L 0.4 0.3 M 1 0 L 0.4 -0.3" transform="translate(-0.3890, -0.0829) scale(0.0500)"/></g></g><g stroke-width="0.0500" stroke="rgb(5%, 5%, 5%)" stroke-opacity="1.0" fill="rgb(2%, 73%, 80%)" fill-opacity="0.2"><g transform="rotate(13.3646, -0.3890, -0.1623)"><path d="M -1 0 L 1 0 M 1 0 L 0.4 0.3 M 1 0 L 0.4 -0.3" transform="translate(-0.3890, -0.1623) scale(0.0500)"/></g></g><g stroke-width="0.0500" stroke="rgb(5%, 5%, 5%)" stroke-opacity="1.0" fill="rgb(2%, 73%, 80%)" fill-opacity="0.2"><g transform="rotate(70.2608, -0.3890, -0.2418)"><path d="M -1 0 L 1 0 M 1 0 L 0.4 0.3 M 1 0 L 0.4 -0.3" transform="translate(-0.3890, -0.2418) scale(0.0500)"/></g></g><g stroke-width="0.0500" stroke="rgb(5%, 5%, 5%)" stroke-opacity="1.0" fill="rgb(2%, 73%, 80%)" fill-opacity="0.2"><g transform="rotate(96.0844, -0.3890, -0.3212)"><path d="M -1 0 L 1 0 M 1 0 L 0.4 0.3 M 1 0 L 0.4 -0.3" transform="translate(-0.3890, -0.3212) scale(0.0500)"/></g></g><g stroke-width="0.0500" stroke="rgb(5%, 5%, 5%)" stroke-opacity="1.0" fill="rgb(2%, 73%, 80%)" fill-opacity="0.2"><g transform="rotate(106.0551, -0.3890, -0.4007)"><path d="M -1 0 L 1 0 M 1 0 L 0.4 0.3 M 1 0 L 0.4 -0.3" transform="translate(-0.3890, -0.4007) scale(0.0500)"/></g></g><g stroke-width="0.0500" stroke="rgb(5%, 5%, 5%)" stroke-opacity="1.0" fill="rgb(2%, 73%, 80%)" fill-opacity="0.2"><g transform="rotate(-53.3544, -0.2634, 0.3145)"><path d="M -1 0 L 1 0 M 1 0 L 0.4 0.3 M 1 0 L 0.4 -0.3" transform="translate(-0.2634, 0.3145) scale(0.0500)"/></g></g><g stroke-width="0.0500" stroke="rgb(5%, 5%, 5%)" stroke-opacity="1.0" fill="rgb(2%, 73%, 80%)" fill-opacity="0.2"><g transform="rotate(-51.2345, -0.2634, 0.2350)"><path d="M -1 0 L 1 0 M 1 0 L 0.4 0.3 M 1 0 L 0.4 -0.3" transform="translate(-0.2634, 0.2350) scale(0.0500)"/></g></g><g stroke-width="0.0500" stroke="rgb(5%, 5%, 5%)" stroke-opacity="1.0" fill="rgb(2%, 73%, 80%)" fill-opacity="0.2"><g transform="rotate(-48.0128, -0.2634, 0.1555)"><path d="M -1 0 L 1 0 M 1 0 L 0.4 0.3 M 1 0 L 0.4 -0.3" transform="translate(-0.2634, 0.1555) scale(0.0500)"/></g></g><g stroke-width="0.0500" stroke="rgb(5%, 5%, 5%)" stroke-opacity="1.0" fill="rgb(2%, 73%, 80%)" fill-opacity="0.2"><g transform="rotate(-42.5805, -0.2634, 0.0761)"><path d="M -1 0 L 1 0 M 1 0 L 0.4 0.3 M 1 0 L 0.4 -0.3" transform="translate(-0.2634, 0.0761) scale(0.0500)"/></g></g><g stroke-width="0.0500" stroke="rgb(5%, 5%, 5%)" stroke-opacity="1.0" fill="rgb(2%, 73%, 80%)" fill-opacity="0.2"><g transform="rotate(-31.8274, -0.2634, -0.0034)"><path d="M -1 0 L 1 0 M 1 0 L 0.4 0.3 M 1 0 L 0.4 -0.3" transform="translate(-0.2634, -0.0034) scale(0.0500)"/></g></g><g stroke-width="0.0500" stroke="rgb(5%, 5%, 5%)" stroke-opacity="1.0" fill="rgb(2%, 73%, 80%)" fill-opacity="0.2"><g transform="rotate(-5.4403, -0.2634, -0.0829)"><path d="M -1 0 L 1 0 M 1 0 L 0.4 0.3 M 1 0 L 0.4 -0.3" transform="translate(-0.2634, -0.0829) scale(0.0500)"/></g></g><g stroke-width="0.0500" stroke="rgb(5%, 5%, 5%)" stroke-opacity="1.0" fill="rgb(2%, 73%, 80%)" fill-opacity="0.2"><g transform="rotate(47.1211, -0.2634, -0.1623)"><path d="M -1 0 L 1 0 M 1 0 L 0.4 0.3 M 1 0 L 0.4 -0.3" transform="translate(-0.2634, -0.1623) scale(0.0500)"/></g></g><g stroke-width="0.0500" stroke="rgb(5%, 5%, 5%)" stroke-opacity="1.0" fill="rgb(2%, 73%, 80%)" fill-opacity="0.2"><g transform="rotate(80.5377, -0.2634, -0.2418)"><path d="M -1 0 L 1 0 M 1 0 L 0.4 0.3 M 1 0 L 0.4 -0.3" transform="translate(-0.2634, -0.2418) scale(0.0500)"/></g></g><g stroke-width="0.0500" stroke="rgb(5%, 5%, 5%)" stroke-opacity="1.0" fill="rgb(2%, 73%, 80%)" fill-opacity="0.2"><g transform="rotate(93.7314, -0.2634, -0.3212)"><path d="M -1 0 L 1 0 M 1 0 L 0.4 0.3 M 1 0 L 0.4 -0.3" transform="translate(-0.2634, -0.3212) scale(0.0500)"/></g></g><g stroke-width="0.0500" stroke="rgb(5%, 5%, 5%)" stroke-opacity="1.0" fill="rgb(2%, 73%, 80%)" fill-opacity="0.2"><g transform="rotate(100.0607, -0.2634, -0.4007)"><path d="M -1 0 L 1 0 M 1 0 L 0.4 0.3 M 1 0 L 0.4 -0.3" transform="translate(-0.2634, -0.4007) scale(0.0500)"/></g></g><g stroke-width="0.0500" stroke="rgb(5%, 5%, 5%)" stroke-opacity="1.0" fill="rgb(2%, 73%, 80%)" fill-opacity="0.2"><g transform="rotate(-61.4810, -0.1378, 0.3145)"><path d="M -1 0 L 1 0 M 1 0 L 0.4 0.3 M 1 0 L 0.4 -0.3" transform="translate(-0.1378, 0.3145) scale(0.0500)"/></g></g><g stroke-width="0.0500" stroke="rgb(5%, 5%, 5%)" stroke-opacity="1.0" fill="rgb(2%, 73%, 80%)" fill-opacity="0.2"><g transform="rotate(-58.6701, -0.1378, 0.2350)"><path d="M -1 0 L 1 0 M 1 0 L 0.4 0.3 M 1 0 L 0.4 -0.3" transform="translate(-0.1378, 0.2350) scale(0.0500)"/></g></g><g stroke-width="0.0500" stroke="rgb(5%, 5%, 5%)" stroke-opacity="1.0" fill="rgb(2%, 73%, 80%)" fill-opacity="0.2"><g transform="rotate(-54.1700, -0.1378, 0.1555)"><path d="M -1 0 L 1 0 M 1 0 L 0.4 0.3 M 1 0 L 0.4 -0.3" transform="translate(-0.1378, 0.1555) scale(0.0500)"/></g></g><g stroke-width="0.0500" stroke="rgb(5%, 5%, 5%)" stroke-opacity="1.0" fill="rgb(2%, 73%, 80%)" fill-opacity="0.2"><g transform="rotate(-45.9710, -0.1378, 0.0761)"><path d="M -1 0 L 1 0 M 1 0 L 0.4 0.3 M 1 0 L 0.4 -0.3" transform="translate(-0.1378, 0.0761) scale(0.0500)"/></g></g><g stroke-width="0.0500" stroke="rgb(5%, 5%, 5%)" stroke-opacity="1.0" fill="rgb(2%, 73%, 80%)" fill-opacity="0.2"><g transform="rotate(-27.9309, -0.1378, -0.0034)"><path d="M -1 0 L 1 0 M 1 0 L 0.4 0.3 M 1 0 L 0.4 -0.3" transform="translate(-0.1378, -0.0034) scale(0.0500)"/></g></g><g stroke-width="0.0500" stroke="rgb(5%, 5%, 5%)" stroke-opacity="1.0" fill="rgb(2%, 73%, 80%)" fill-opacity="0.2"><g transform="rotate(14.4459, -0.1378, -0.0829)"><path d="M -1 0 L 1 0 M 1 0 L 0.4 0.3 M 1 0 L 0.4 -0.3" transform="translate(-0.1378, -0.0829) scale(0.0500)"/></g></g><g stroke-width="0.0500" stroke="rgb(5%, 5%, 5%)" stroke-opacity="1.0" fill="rgb(2%, 73%, 80%)" fill-opacity="0.2"><g transform="rotate(58.9537, -0.1378, -0.1623)"><path d="M -1 0 L 1 0 M 1 0 L 0.4 0.3 M 1 0 L 0.4 -0.3" transform="translate(-0.1378, -0.1623) scale(0.0500)"/></g></g><g stroke-width="0.0500" stroke="rgb(5%, 5%, 5%)" stroke-opacity="1.0" fill="rgb(2%, 73%, 80%)" fill-opacity="0.2"><g transform="rotate(78.3877, -0.1378, -0.2418)"><path d="M -1 0 L 1 0 M 1 0 L 0.4 0.3 M 1 0 L 0.4 -0.3" transform="translate(-0.1378, -0.2418) scale(0.0500)"/></g></g><g stroke-width="0.0500" stroke="rgb(5%, 5%, 5%)" stroke-opacity="1.0" fill="rgb(2%, 73%, 80%)" fill-opacity="0.2"><g transform="rotate(87.0722, -0.1378, -0.3212)"><path d="M -1 0 L 1 0 M 1 0 L 0.4 0.3 M 1 0 L 0.4 -0.3" transform="translate(-0.1378, -0.3212) scale(0.0500)"/></g></g><g stroke-width="0.0500" stroke="rgb(5%, 5%, 5%)" stroke-opacity="1.0" fill="rgb(2%, 73%, 80%)" fill-opacity="0.2"><g transform="rotate(91.7753, -0.1378, -0.4007)"><path d="M -1 0 L 1 0 M 1 0 L 0.4 0.3 M 1 0 L 0.4 -0.3" transform="translate(-0.1378, -0.4007) scale(0.0500)"/></g></g><g stroke-width="0.0500" stroke="rgb(5%, 5%, 5%)" stroke-opacity="1.0" fill="rgb(2%, 73%, 80%)" fill-opacity="0.2"><g transform="rotate(-71.6316, -0.0121, 0.3145)"><path d="M -1 0 L 1 0 M 1 0 L 0.4 0.3 M 1 0 L 0.4 -0.3" transform="translate(-0.0121, 0.3145) scale(0.0500)"/></g></g><g stroke-width="0.0500" stroke="rgb(5%, 5%, 5%)" stroke-opacity="1.0" fill="rgb(2%, 73%, 80%)" fill-opacity="0.2"><g transform="rotate(-68.3038, -0.0121, 0.2350)"><path d="M -1 0 L 1 0 M 1 0 L 0.4 0.3 M 1 0 L 0.4 -0.3" transform="translate(-0.0121, 0.2350) scale(0.0500)"/></g></g><g stroke-width="0.0500" stroke="rgb(5%, 5%, 5%)" stroke-opacity="1.0" fill="rgb(2%, 73%, 80%)" fill-opacity="0.2"><g transform="rotate(-62.7134, -0.0121, 0.1555)"><path d="M -1 0 L 1 0 M 1 0 L 0.4 0.3 M 1 0 L 0.4 -0.3" transform="translate(-0.0121, 0.1555) scale(0.0500)"/></g></g><g stroke-width="0.0500" stroke="rgb(5%, 5%, 5%)" stroke-opacity="1.0" fill="rgb(2%, 73%, 80%)" fill-opacity="0.2"><g transform="rotate(-51.7434, -0.0121, 0.0761)"><path d="M -1 0 L 1 0 M 1 0 L 0.4 0.3 M 1 0 L 0.4 -0.3" transform="translate(-0.0121, 0.0761) scale(0.0500)"/></g></g><g stroke-width="0.0500" stroke="rgb(5%, 5%, 5%)" stroke-opacity="1.0" fill="rgb(2%, 73%, 80%)" fill-opacity="0.2"><g transform="rotate(-25.4633, -0.0121, -0.0034)"><path d="M -1 0 L 1 0 M 1 0 L 0.4 0.3 M 1 0 L 0.4 -0.3" transform="translate(-0.0121, -0.0034) scale(0.0500)"/></g></g><g stroke-width="0.0500" stroke="rgb(5%, 5%, 5%)" stroke-opacity="1.0" fill="rgb(2%, 73%, 80%)" fill-opacity="0.2"><g transform="rotate(25.3523, -0.0121, -0.0829)"><path d="M -1 0 L 1 0 M 1 0 L 0.4 0.3 M 1 0 L 0.4 -0.3" transform="translate(-0.0121, -0.0829) scale(0.0500)"/></g></g><g stroke-width="0.0500" stroke="rgb(5%, 5%, 5%)" stroke-opacity="1.0" fill="rgb(2%, 73%, 80%)" fill-opacity="0.2"><g transform="rotate(58.5390, -0.0121, -0.1623)"><path d="M -1 0 L 1 0 M 1 0 L 0.4 0.3 M 1 0 L 0.4 -0.3" transform="translate(-0.0121, -0.1623) scale(0.0500)"/></g></g><g stroke-width="0.0500" stroke="rgb(5%, 5%, 5%)" stroke-opacity="1.0" fill="rgb(2%, 73%, 80%)" fill-opacity="0.2"><g transform="rotate(72.0351, -0.0121, -0.2418)"><path d="M -1 0 L 1 0 M 1 0 L 0.4 0.3 M 1 0 L 0.4 -0.3" transform="translate(-0.0121, -0.2418) scale(0.0500)"/></g></g><g stroke-width="0.0500" stroke="rgb(5%, 5%, 5%)" stroke-opacity="1.0" fill="rgb(2%, 73%, 80%)" fill-opacity="0.2"><g transform="rotate(78.5712, -0.0121, -0.3212)"><path d="M -1 0 L 1 0 M 1 0 L 0.4 0.3 M 1 0 L 0.4 -0.3" transform="translate(-0.0121, -0.3212) scale(0.0500)"/></g></g><g stroke-width="0.0500" stroke="rgb(5%, 5%, 5%)" stroke-opacity="1.0" fill="rgb(2%, 73%, 80%)" fill-opacity="0.2"><g transform="rotate(82.3320, -0.0121, -0.4007)"><path d="M -1 0 L 1 0 M 1 0 L 0.4 0.3 M 1 0 L 0.4 -0.3" transform="translate(-0.0121, -0.4007) scale(0.0500)"/></g></g><g stroke-width="0.0500" stroke="rgb(5%, 5%, 5%)" stroke-opacity="1.0" fill="rgb(2%, 73%, 80%)" fill-opacity="0.2"><g transform="rotate(-83.7258, 0.1135, 0.3145)"><path d="M -1 0 L 1 0 M 1 0 L 0.4 0.3 M 1 0 L 0.4 -0.3" transform="translate(0.1135, 0.3145) scale(0.0500)"/></g></g><g stroke-width="0.0500" stroke="rgb(5%, 5%, 5%)" stroke-opacity="1.0" fill="rgb(2%, 73%, 80%)" fill-opacity="0.2"><g transform="rotate(-80.3796, 0.1135, 0.2350)"><path d="M -1 0 L 1 0 M 1 0 L 0.4 0.3 M 1 0 L 0.4 -0.3" transform="translate(0.1135, 0.2350) scale(0.0500)"/></g></g><g stroke-width="0.0500" stroke="rgb(5%, 5%, 5%)" stroke-opacity="1.0" fill="rgb(2%, 73%, 80%)" fill-opacity="0.2"><g transform="rotate(-74.5578, 0.1135, 0.1555)"><path d="M -1 0 L 1 0 M 1 0 L 0.4 0.3 M 1 0 L 0.4 -0.3" transform="translate(0.1135, 0.1555) scale(0.0500)"/></g></g><g stroke-width="0.0500" stroke="rgb(5%, 5%, 5%)" stroke-opacity="1.0" fill="rgb(2%, 73%, 80%)" fill-opacity="0.2"><g transform="rotate(-62.3926, 0.1135, 0.0761)"><path d="M -1 0 L 1 0 M 1 0 L 0.4 0.3 M 1 0 L 0.4 -0.3" transform="translate(0.1135, 0.0761) scale(0.0500)"/></g></g><g stroke-width="0.0500" stroke="rgb(5%, 5%, 5%)" stroke-opacity="1.0" fill="rgb(2%, 73%, 80%)" fill-opacity="0.2"><g transform="rotate(-30.3259, 0.1135, -0.0034)"><path d="M -1 0 L 1 0 M 1 0 L 0.4 0.3 M 1 0 L 0.4 -0.3" transform="translate(0.1135, -0.0034) scale(0.0500)"/></g></g><g stroke-width="0.0500" stroke="rgb(5%, 5%, 5%)" stroke-opacity="1.0" fill="rgb(2%, 73%, 80%)" fill-opacity="0.2"><g transform="rotate(25.4633, 0.1135, -0.0829)"><path d="M -1 0 L 1 0 M 1 0 L 0.4 0.3 M 1 0 L 0.4 -0.3" transform="translate(0.1135, -0.0829) scale(0.0500)"/></g></g><g stroke-width="0.0500" stroke="rgb(5%, 5%, 5%)" stroke-opacity="1.0" fill="rgb(2%, 73%, 80%)" fill-opacity="0.2"><g transform="rotate(53.3483, 0.1135, -0.1623)"><path d="M -1 0 L 1 0 M 1 0 L 0.4 0.3 M 1 0 L 0.4 -0.3" transform="translate(0.1135, -0.1623) scale(0.0500)"/></g></g><g stroke-width="0.0500" stroke="rgb(5%, 5%, 5%)" stroke-opacity="1.0" fill="rgb(2%, 73%, 80%)" fill-opacity="0.2"><g transform="rotate(64.1805, 0.1135, -0.2418)"><path d="M -1 0 L 1 0 M 1 0 L 0.4 0.3 M 1 0 L 0.4 -0.3" transform="translate(0.1135, -0.2418) scale(0.0500)"/></g></g><g stroke-width="0.0500" stroke="rgb(5%, 5%, 5%)" stroke-opacity="1.0" fill="rgb(2%, 73%, 80%)" fill-opacity="0.2"><g transform="rotate(69.5253, 0.1135, -0.3212)"><path d="M -1 0 L 1 0 M 1 0 L 0.4 0.3 M 1 0 L 0.4 -0.3" transform="translate(0.1135, -0.3212) scale(0.0500)"/></g></g><g stroke-width="0.0500" stroke="rgb(5%, 5%, 5%)" stroke-opacity="1.0" fill="rgb(2%, 73%, 80%)" fill-opacity="0.2"><g transform="rotate(72.6569, 0.1135, -0.4007)"><path d="M -1 0 L 1 0 M 1 0 L 0.4 0.3 M 1 0 L 0.4 -0.3" transform="translate(0.1135, -0.4007) scale(0.0500)"/></g></g><g stroke-width="0.0500" stroke="rgb(5%, 5%, 5%)" stroke-opacity="1.0" fill="rgb(2%, 73%, 80%)" fill-opacity="0.2"><g transform="rotate(-96.8488, 0.2391, 0.3145)"><path d="M -1 0 L 1 0 M 1 0 L 0.4 0.3 M 1 0 L 0.4 -0.3" transform="translate(0.2391, 0.3145) scale(0.0500)"/></g></g><g stroke-width="0.0500" stroke="rgb(5%, 5%, 5%)" stroke-opacity="1.0" fill="rgb(2%, 73%, 80%)" fill-opacity="0.2"><g transform="rotate(-94.1075, 0.2391, 0.2350)"><path d="M -1 0 L 1 0 M 1 0 L 0.4 0.3 M 1 0 L 0.4 -0.3" transform="translate(0.2391, 0.2350) scale(0.0500)"/></g></g><g stroke-width="0.0500" stroke="rgb(5%, 5%, 5%)" stroke-opacity="1.0" fill="rgb(2%, 73%, 80%)" fill-opacity="0.2"><g transform="rotate(-89.3167, 0.2391, 0.1555)"><path d="M -1 0 L 1 0 M 1 0 L 0.4 0.3 M 1 0 L 0.4 -0.3" transform="translate(0.2391, 0.1555) scale(0.0500)"/></g></g><g stroke-width="0.0500" stroke="rgb(5%, 5%, 5%)" stroke-opacity="1.0" fill="rgb(2%, 73%, 80%)" fill-opacity="0.2"><g transform="rotate(-79.0898, 0.2391, 0.0761)"><path d="M -1 0 L 1 0 M 1 0 L 0.4 0.3 M 1 0 L 0.4 -0.3" transform="translate(0.2391, 0.0761) scale(0.0500)"/></g></g><g stroke-width="0.0500" stroke="rgb(5%, 5%, 5%)" stroke-opacity="1.0" fill="rgb(2%, 73%, 80%)" fill-opacity="0.2"><g transform="rotate(-48.8981, 0.2391, -0.0034)"><path d="M -1 0 L 1 0 M 1 0 L 0.4 0.3 M 1 0 L 0.4 -0.3" transform="translate(0.2391, -0.0034) scale(0.0500)"/></g></g><g stroke-width="0.0500" stroke="rgb(5%, 5%, 5%)" stroke-opacity="1.0" fill="rgb(2%, 73%, 80%)" fill-opacity="0.2"><g transform="rotate(16.4311, 0.2391, -0.0829)"><path d="M -1 0 L 1 0 M 1 0 L 0.4 0.3 M 1 0 L 0.4 -0.3" transform="translate(0.2391, -0.0829) scale(0.0500)"/></g></g><g stroke-width="0.0500" stroke="rgb(5%, 5%, 5%)" stroke-opacity="1.0" fill="rgb(2%, 73%, 80%)" fill-opacity="0.2"><g transform="rotate(45.9710, 0.2391, -0.1623)"><path d="M -1 0 L 1 0 M 1 0 L 0.4 0.3 M 1 0 L 0.4 -0.3" transform="translate(0.2391, -0.1623) scale(0.0500)"/></g></g><g stroke-width="0.0500" stroke="rgb(5%, 5%, 5%)" stroke-opacity="1.0" fill="rgb(2%, 73%, 80%)" fill-opacity="0.2"><g transform="rotate(56.0348, 0.2391, -0.2418)"><path d="M -1 0 L 1 0 M 1 0 L 0.4 0.3 M 1 0 L 0.4 -0.3" transform="translate(0.2391, -0.2418) scale(0.0500)"/></g></g><g stroke-width="0.0500" stroke="rgb(5%, 5%, 5%)" stroke-opacity="1.0" fill="rgb(2%, 73%, 80%)" fill-opacity="0.2"><g transform="rotate(60.7712, 0.2391, -0.3212)"><path d="M -1 0 L 1 0 M 1 0 L 0.4 0.3 M 1 0 L 0.4 -0.3" transform="translate(0.2391, -0.3212) scale(0.0500)"/></g></g><g stroke-width="0.0500" stroke="rgb(5%, 5%, 5%)" stroke-opacity="1.0" fill="rgb(2%, 73%, 80%)" fill-opacity="0.2"><g transform="rotate(63.4886, 0.2391, -0.4007)"><path d="M -1 0 L 1 0 M 1 0 L 0.4 0.3 M 1 0 L 0.4 -0.3" transform="translate(0.2391, -0.4007) scale(0.0500)"/></g></g><g stroke-width="0.0500" stroke="rgb(5%, 5%, 5%)" stroke-opacity="1.0" fill="rgb(2%, 73%, 80%)" fill-opacity="0.2"><g transform="rotate(-109.4766, 0.3647, 0.3145)"><path d="M -1 0 L 1 0 M 1 0 L 0.4 0.3 M 1 0 L 0.4 -0.3" transform="translate(0.3647, 0.3145) scale(0.0500)"/></g></g><g stroke-width="0.0500" stroke="rgb(5%, 5%, 5%)" stroke-opacity="1.0" fill="rgb(2%, 73%, 80%)" fill-opacity="0.2"><g transform="rotate(-107.6501, 0.3647, 0.2350)"><path d="M -1 0 L 1 0 M 1 0 L 0.4 0.3 M 1 0 L 0.4 -0.3" transform="translate(0.3647, 0.2350) scale(0.0500)"/></g></g><g stroke-width="0.0500" stroke="rgb(5%, 5%, 5%)" stroke-opacity="1.0" fill="rgb(2%, 73%, 80%)" fill-opacity="0.2"><g transform="rotate(-104.5742, 0.3647, 0.1555)"><path d="M -1 0 L 1 0 M 1 0 L 0.4 0.3 M 1 0 L 0.4 -0.3" transform="translate(0.3647, 0.1555) scale(0.0500)"/></g></g><g stroke-width="0.0500" stroke="rgb(5%, 5%, 5%)" stroke-opacity="1.0" fill="rgb(2%, 73%, 80%)" fill-opacity="0.2"><g transform="rotate(-98.3659, 0.3647, 0.0761)"><path d="M -1 0 L 1 0 M 1 0 L 0.4 0.3 M 1 0 L 0.4 -0.3" transform="translate(0.3647, 0.0761) scale(0.0500)"/></g></g><g stroke-width="0.0500" stroke="rgb(5%, 5%, 5%)" stroke-opacity="1.0" fill="rgb(2%, 73%, 80%)" fill-opacity="0.2"><g transform="rotate(-80.5377, 0.3647, -0.0034)"><path d="M -1 0 L 1 0 M 1 0 L 0.4 0.3 M 1 0 L 0.4 -0.3" transform="translate(0.3647, -0.0034) scale(0.0500)"/></g></g><g stroke-width="0.0500" stroke="rgb(5%, 5%, 5%)" stroke-opacity="1.0" fill="rgb(2%, 73%, 80%)" fill-opacity="0.2"><g transform="rotate(-10.3048, 0.3647, -0.0829)"><path d="M -1 0 L 1 0 M 1 0 L 0.4 0.3 M 1 0 L 0.4 -0.3" transform="translate(0.3647, -0.0829) scale(0.0500)"/></g></g><g stroke-width="0.0500" stroke="rgb(5%, 5%, 5%)" stroke-opacity="1.0" fill="rgb(2%, 73%, 80%)" fill-opacity="0.2"><g transform="rotate(36.3844, 0.3647, -0.1623)"><path d="M -1 0 L 1 0 M 1 0 L 0.4 0.3 M 1 0 L 0.4 -0.3" transform="translate(0.3647, -0.1623) scale(0.0500)"/></g></g><g stroke-width="0.0500" stroke="rgb(5%, 5%, 5%)" stroke-opacity="1.0" fill="rgb(2%, 73%, 80%)" fill-opacity="0.2"><g transform="rotate(48.0128, 0.3647, -0.2418)"><path d="M -1 0 L 1 0 M 1 0 L 0.4 0.3 M 1 0 L 0.4 -0.3" transform="translate(0.3647, -0.2418) scale(0.0500)"/></g></g><g stroke-width="0.0500" stroke="rgb(5%, 5%, 5%)" stroke-opacity="1.0" fill="rgb(2%, 73%, 80%)" fill-opacity="0.2"><g transform="rotate(52.7336, 0.3647, -0.3212)"><path d="M -1 0 L 1 0 M 1 0 L 0.4 0.3 M 1 0 L 0.4 -0.3" transform="translate(0.3647, -0.3212) scale(0.0500)"/></g></g><g stroke-width="0.0500" stroke="rgb(5%, 5%, 5%)" stroke-opacity="1.0" fill="rgb(2%, 73%, 80%)" fill-opacity="0.2"><g transform="rotate(55.2568, 0.3647, -0.4007)"><path d="M -1 0 L 1 0 M 1 0 L 0.4 0.3 M 1 0 L 0.4 -0.3" transform="translate(0.3647, -0.4007) scale(0.0500)"/></g></g><g stroke-width="0.0500" stroke="rgb(5%, 5%, 5%)" stroke-opacity="1.0" fill="rgb(2%, 73%, 80%)" fill-opacity="0.2"><g transform="rotate(-120.3900, 0.4904, 0.3145)"><path d="M -1 0 L 1 0 M 1 0 L 0.4 0.3 M 1 0 L 0.4 -0.3" transform="translate(0.4904, 0.3145) scale(0.0500)"/></g></g><g stroke-width="0.0500" stroke="rgb(5%, 5%, 5%)" stroke-opacity="1.0" fill="rgb(2%, 73%, 80%)" fill-opacity="0.2"><g transform="rotate(-119.3549, 0.4904, 0.2350)"><path d="M -1 0 L 1 0 M 1 0 L 0.4 0.3 M 1 0 L 0.4 -0.3" transform="translate(0.4904, 0.2350) scale(0.0500)"/></g></g><g stroke-width="0.0500" stroke="rgb(5%, 5%, 5%)" stroke-opacity="1.0" fill="rgb(2%, 73%, 80%)" fill-opacity="0.2"><g transform="rotate(-117.7221, 0.4904, 0.1555)"><path d="M -1 0 L 1 0 M 1 0 L 0.4 0.3 M 1 0 L 0.4 -0.3" transform="translate(0.4904, 0.1555) scale(0.0500)"/></g></g><g stroke-width="0.0500" stroke="rgb(5%, 5%, 5%)" stroke-opacity="1.0" fill="rgb(2%, 73%, 80%)" fill-opacity="0.2"><g transform="rotate(-114.7718, 0.4904, 0.0761)"><path d="M -1 0 L 1 0 M 1 0 L 0.4 0.3 M 1 0 L 0.4 -0.3" transform="translate(0.4904, 0.0761) scale(0.0500)"/></g></g><g stroke-width="0.0500" stroke="rgb(5%, 5%, 5%)" stroke-opacity="1.0" fill="rgb(2%, 73%, 80%)" fill-opacity="0.2"><g transform="rotate(-107.9102, 0.4904, -0.0034)"><path d="M -1 0 L 1 0 M 1 0 L 0.4 0.3 M 1 0 L 0.4 -0.3" transform="translate(0.4904, -0.0034) scale(0.0500)"/></g></g><g stroke-width="0.0500" stroke="rgb(5%, 5%, 5%)" stroke-opacity="1.0" fill="rgb(2%, 73%, 80%)" fill-opacity="0.2"><g transform="rotate(-78.8802, 0.4904, -0.0829)"><path d="M -1 0 L 1 0 M 1 0 L 0.4 0.3 M 1 0 L 0.4 -0.3" transform="translate(0.4904, -0.0829) scale(0.0500)"/></g></g><g stroke-width="0.0500" stroke="rgb(5%, 5%, 5%)" stroke-opacity="1.0" fill="rgb(2%, 73%, 80%)" fill-opacity="0.2"><g transform="rotate(18.0772, 0.4904, -0.1623)"><path d="M -1 0 L 1 0 M 1 0 L 0.4 0.3 M 1 0 L 0.4 -0.3" transform="translate(0.4904, -0.1623) scale(0.0500)"/></g></g><g stroke-width="0.0500" stroke="rgb(5%, 5%, 5%)" stroke-opacity="1.0" fill="rgb(2%, 73%, 80%)" fill-opacity="0.2"><g transform="rotate(39.5765, 0.4904, -0.2418)"><path d="M -1 0 L 1 0 M 1 0 L 0.4 0.3 M 1 0 L 0.4 -0.3" transform="translate(0.4904, -0.2418) scale(0.0500)"/></g></g><g stroke-width="0.0500" stroke="rgb(5%, 5%, 5%)" stroke-opacity="1.0" fill="rgb(2%, 73%, 80%)" fill-opacity="0.2"><g transform="rotate(45.4122, 0.4904, -0.3212)"><path d="M -1 0 L 1 0 M 1 0 L 0.4 0.3 M 1 0 L 0.4 -0.3" transform="translate(0.4904, -0.3212) scale(0.0500)"/></g></g><g stroke-width="0.0500" stroke="rgb(5%, 5%, 5%)" stroke-opacity="1.0" fill="rgb(2%, 73%, 80%)" fill-opacity="0.2"><g transform="rotate(48.0612, 0.4904, -0.4007)"><path d="M -1 0 L 1 0 M 1 0 L 0.4 0.3 M 1 0 L 0.4 -0.3" transform="translate(0.4904, -0.4007) scale(0.0500)"/></g></g><g stroke-width="0.0500" stroke="rgb(5%, 5%, 5%)" stroke-opacity="1.0" fill="rgb(2%, 73%, 80%)" fill-opacity="0.2"><g transform="rotate(-129.2044, 0.6160, 0.3145)"><path d="M -1 0 L 1 0 M 1 0 L 0.4 0.3 M 1 0 L 0.4 -0.3" transform="translate(0.6160, 0.3145) scale(0.0500)"/></g></g><g stroke-width="0.0500" stroke="rgb(5%, 5%, 5%)" stroke-opacity="1.0" fill="rgb(2%, 73%, 80%)" fill-opacity="0.2"><g transform="rotate(-128.6756, 0.6160, 0.2350)"><path d="M -1 0 L 1 0 M 1 0 L 0.4 0.3 M 1 0 L 0.4 -0.3" transform="translate(0.6160, 0.2350) scale(0.0500)"/></g></g><g stroke-width="0.0500" stroke="rgb(5%, 5%, 5%)" stroke-opacity="1.0" fill="rgb(2%, 73%, 80%)" fill-opacity="0.2"><g transform="rotate(-127.8991, 0.6160, 0.1555)"><path d="M -1 0 L 1 0 M 1 0 L 0.4 0.3 M 1 0 L 0.4 -0.3" transform="translate(0.6160, 0.1555) scale(0.0500)"/></g></g><g stroke-width="0.0500" stroke="rgb(5%, 5%, 5%)" stroke-opacity="1.0" fill="rgb(2%, 73%, 80%)" fill-opacity="0.2"><g transform="rotate(-126.6482, 0.6160, 0.0761)"><path d="M -1 0 L 1 0 M 1 0 L 0.4 0.3 M 1 0 L 0.4 -0.3" transform="translate(0.6160, 0.0761) scale(0.0500)"/></g></g><g stroke-width="0.0500" stroke="rgb(5%, 5%, 5%)" stroke-opacity="1.0" fill="rgb(2%, 73%, 80%)" fill-opacity="0.2"><g transform="rotate(-124.3010, 0.6160, -0.0034)"><path d="M -1 0 L 1 0 M 1 0 L 0.4 0.3 M 1 0 L 0.4 -0.3" transform="translate(0.6160, -0.0034) scale(0.0500)"/></g></g><g stroke-width="0.0500" stroke="rgb(5%, 5%, 5%)" stroke-opacity="1.0" fill="rgb(2%, 73%, 80%)" fill-opacity="0.2"><g transform="rotate(-118.3399, 0.6160, -0.0829)"><path d="M -1 0 L 1 0 M 1 0 L 0.4 0.3 M 1 0 L 0.4 -0.3" transform="translate(0.6160, -0.0829) scale(0.0500)"/></g></g><g stroke-width="0.0500" stroke="rgb(5%, 5%, 5%)" stroke-opacity="1.0" fill="rgb(2%, 73%, 80%)" fill-opacity="0.2"><g transform="rotate(-81.6027, 0.6160, -0.1623)"><path d="M -1 0 L 1 0 M 1 0 L 0.4 0.3 M 1 0 L 0.4 -0.3" transform="translate(0.6160, -0.1623) scale(0.0500)"/></g></g><g stroke-width="0.0500" stroke="rgb(5%, 5%, 5%)" stroke-opacity="1.0" fill="rgb(2%, 73%, 80%)" fill-opacity="0.2"><g transform="rotate(25.9167, 0.6160, -0.2418)"><path d="M -1 0 L 1 0 M 1 0 L 0.4 0.3 M 1 0 L 0.4 -0.3" transform="translate(0.6160, -0.2418) scale(0.0500)"/></g></g><g stroke-width="0.0500" stroke="rgb(5%, 5%, 5%)" stroke-opacity="1.0" fill="rgb(2%, 73%, 80%)" fill-opacity="0.2"><g transform="rotate(38.1539, 0.6160, -0.3212)"><path d="M -1 0 L 1 0 M 1 0 L 0.4 0.3 M 1 0 L 0.4 -0.3" transform="translate(0.6160, -0.3212) scale(0.0500)"/></g></g><g stroke-width="0.0500" stroke="rgb(5%, 5%, 5%)" stroke-opacity="1.0" fill="rgb(2%, 73%, 80%)" fill-opacity="0.2"><g transform="rotate(41.7039, 0.6160, -0.4007)"><path d="M -1 0 L 1 0 M 1 0 L 0.4 0.3 M 1 0 L 0.4 -0.3" transform="translate(0.6160, -0.4007) scale(0.0500)"/></g></g></g></g><g class="hud"><g class="frame"><g stroke-width="0" stroke="rgb(0%, 0%, 0%)" stroke-opacity="0" fill="rgb(100%, 100%, 100%)" fill-opacity="0.02"><rect width="1.2730" height="0.8502" x="-0.5858" y="-0.4682"/></g></g><g class="axis"><g class="ticks"><g class="tickglyph"><g stroke-width="0.0040" stroke="rgb(5%, 5%, 5%)" stroke-opacity="0.4" fill="rgb(5%, 5%, 5%)" fill-opacity="0.4"><g transform="rotate(-90.0, -0.6110, 0.3542)"><polyline points="-0.6110,0.3692
-0.6110,0.3392"/></g><g transform="rotate(-90.0, -0.6110, 0.2747)"><polyline points="-0.6110,0.2897
-0.6110,0.2597"/></g><g transform="rotate(-90.0, -0.6110, 0.1953)"><polyline points="-0.6110,0.2103
-0.6110,0.1803"/></g><g transform="rotate(-90.0, -0.6110, 0.1158)"><polyline points="-0.6110,0.1308
-0.6110,0.1008"/></g><g transform="rotate(-90.0, -0.6110, 0.0363)"><polyline points="-0.6110,0.0513
-0.6110,0.0213"/></g><g transform="rotate(-90.0, -0.6110, -0.0431)"><polyline points="-0.6110,-0.0281
-0.6110,-0.0581"/></g><g transform="rotate(-90.0, -0.6110, -0.1226)"><polyline points="-0.6110,-0.1076
-0.6110,-0.1376"/></g><g transform="rotate(-90.0, -0.6110, -0.2020)"><polyline points="-0.6110,-0.1870
-0.6110,-0.2170"/></g><g transform="rotate(-90.0, -0.6110, -0.2815)"><polyline points="-0.6110,-0.2665
-0.6110,-0.2965"/></g><g transform="rotate(-90.0, -0.6110, -0.3610)"><polyline points="-0.6110,-0.3460
-0.6110,-0.3760"/></g><g transform="rotate(-90.0, -0.6110, -0.4404)"><polyline points="-0.6110,-0.4254
-0.6110,-0.4554"/></g></g></g><g class="ticktext"><g stroke-width="0.0" stroke="none" fill="rgb(5%, 5%, 5%)" fill-opacity="1.0" font-size="0.0419" text-anchor="end"><text x="-0.6411" y="0.3651">-0.5</text><text x="-0.6411" y="0.2857">-0.4</text><text x="-0.6411" y="0.2062">-0.3</text><text x="-0.6411" y="0.1267">-0.2</text><text x="-0.6411" y="0.0473">-0.1</text><text x="-0.6411" y="-0.0322"> 0.0</text><text x="-0.6411" y="-0.1117"> 0.1</text><text x="-0.6411" y="-0.1911"> 0.2</text><text x="-0.6411" y="-0.2706"> 0.3</text><text x="-0.6411" y="-0.3500"> 0.4</text><text x="-0.6411" y="-0.4295"> 0.5</text></g></g></g><g class="axisbar"><g stroke-width="0" stroke="rgb(0%, 0%, 0%)" stroke-opacity="0" fill="rgb(5%, 5%, 5%)" fill-opacity="0.4"><rect width="0.0034" height="0.7978" x="-0.5976" y="-0.4420"/></g></g></g><g class="axis"><g class="ticks"><g class="tickglyph"><g stroke-width="0.0040" stroke="rgb(5%, 5%, 5%)" stroke-opacity="0.4" fill="rgb(5%, 5%, 5%)" fill-opacity="0.4"><polyline points="-0.5775,0.4208
-0.5775,0.3908"/><polyline points="-0.4518,0.4208
-0.4518,0.3908"/><polyline points="-0.3262,0.4208
-0.3262,0.3908"/><polyline points="-0.2006,0.4208
-0.2006,0.3908"/><polyline points="-0.0750,0.4208
-0.0750,0.3908"/><polyline points="0.0507,0.4208
0.0507,0.3908"/><polyline points="0.1763,0.4208
0.1763,0.3908"/><polyline points="0.3019,0.4208
0.3019,0.3908"/><polyline points="0.4276,0.4208
0.4276,0.3908"/><polyline points="0.5532,0.4208
0.5532,0.3908"/><polyline points="0.6788,0.4208
0.6788,0.3908"/></g></g><g class="ticktext"><g stroke-width="0.0" stroke="none" fill="rgb(5%, 5%, 5%)" fill-opacity="1.0" font-size="0.0419" text-anchor="middle"><text x="-0.5775" y="0.4563">-0.5</text><text x="-0.4518" y="0.4563">-0.4</text><text x="-0.3262" y="0.4563">-0.3</text><text x="-0.2006" y="0.4563">-0.2</text><text x="-0.0750" y="0.4563">-0.1</text><text x="0.0507" y="0.4563"> 0.0</text><text x="0.1763" y="0.4563"> 0.1</text><text x="0.3019" y="0.4563"> 0.2</text><text x="0.4276" y="0.4563"> 0.3</text><text x="0.5532" y="0.4563"> 0.4</text><text x="0.6788" y="0.4563"> 0.5</text></g></g></g><g class="axisbar"><g stroke-width="0" stroke="rgb(0%, 0%, 0%)" stroke-opacity="0" fill="rgb(5%, 5%, 5%)" fill-opacity="0.4"><rect width="1.2596" height="0.0032" x="-0.5791" y="0.3899"/></g></g></g><g class="frame"><g stroke-width="0" stroke="rgb(0%, 0%, 0%)" stroke-opacity="0" fill="rgb(100%, 100%, 100%)" fill-opacity="0.02"><rect width="1.5" height="1.0" x="-0.75" y="-0.5"/></g></g></g></svg>