<svg height="300.00" viewBox="-0.73316 -0.49595 1.4750 0.99370" width="445.31" xmlns="http://www.w3.org/2000/svg" xmlns:xlink="http://www.w3.org/1999/xlink"><style>svg {
  color-scheme: light dark;
}
{
  .canvas g, .title g, .axisbar g, .ticktext g, .tickglyph g, .ticklines g, .legendContent g text {
    fill: rgba(5%, 5%, 5%, 1.00);
  }
  .ticklines g, .tickglyph g, .legendBorder g {
    stroke: rgba(5%, 5%, 5%, 1.00);
  }
  .legendBorder g {
    fill: rgba(94%, 94%, 94%, 1.00);
  }
}
@media (prefers-color-scheme:dark) {
  .canvas g, .title g, .axisbar g, .ticktext g, .tickglyph g, .ticklines g, .legendContent g text {
    fill: rgba(94%, 94%, 94%, 1.00);
  }
  .ticklines g, .tickglyph g, .legendBorder g {
    stroke: rgba(94%, 94%, 94%, 1.00);
  }
  .legendBorder g {
    fill: rgba(5%, 5%, 5%, 1.00);
  }
}
{
  .arrow g {
    fill: rgba(5%, 5%, 5%, 1.00);
    stroke: rgba(5%, 5%, 5%, 1.00);
  }
}
@media (prefers-color-scheme:dark) {
  .arrow g {
    fill: rgba(94%, 94%, 94%, 1.00);
    stroke: rgba(94%, 94%, 94%, 1.00);
  }
}
</style><g class="chart"><g class="arrow"><g fill="rgba(2%, 73%, 80%, 0.20)" stroke="rgba(5%, 5%, 5%, 1.00)" stroke-width="0.050000"><g transform="rotate(-41.704, -0.51761, 0.35915)"><path d="M -1 0 L 1 0 M 1 0 L 0.4 0.3 M 1 0 L 0.4 -0.3" transform="translate(-0.51761, 0.35915) scale(0.050000)"/></g></g><g fill="rgba(2%, 73%, 80%, 0.20)" stroke="rgba(5%, 5%, 5%, 1.00)" stroke-width="0.050000"><g transform="rotate(-40.704, -0.51761, 0.27145)"><path d="M -1 0 L 1 0 M 1 0 L 0.4 0.3 M 1 0 L 0.4 -0.3" transform="translate(-0.51761, 0.27145) scale(0.050000)"/></g></g><g fill="rgba(2%, 73%, 80%, 0.20)" stroke="rgba(5%, 5%, 5%, 1.00)" stroke-width="0.050000"><g transform="rotate(-39.330, -0.51761, 0.18375)"><path d="M -1 0 L 1 0 M 1 0 L 0.4 0.3 M 1 0 L 0.4 -0.3" transform="translate(-0.51761, 0.18375) scale(0.050000)"/></g></g><g fill="rgba(2%, 73%, 80%, 0.20)" stroke="rgba(5%, 5%, 5%, 1.00)" stroke-width="0.050000"><g transform="rotate(-37.328, -0.51761, 0.096052)"><path d="M -1 0 L 1 0 M 1 0 L 0.4 0.3 M 1 0 L 0.4 -0.3" transform="translate(-0.51761, 0.096052) scale(0.050000)"/></g></g><g fill="rgba(2%, 73%, 80%, 0.20)" stroke="rgba(5%, 5%, 5%, 1.00)" stroke-width="0.050000"><g transform="rotate(-34.149, -0.51761, 0.0083522)"><path d="M -1 0 L 1 0 M 1 0 L 0.4 0.3 M 1 0 L 0.4 -0.3" transform="translate(-0.51761, 0.0083522) scale(0.050000)"/></g></g><g fill="rgba(2%, 73%, 80%, 0.20)" stroke="rgba(5%, 5%, 5%, 1.00)" stroke-width="0.050000"><g transform="rotate(-28.382, -0.51761, -0.079347)"><path d="M -1 0 L 1 0 M 1 0 L 0.4 0.3 M 1 0 L 0.4 -0.3" transform="translate(-0.51761, -0.079347) scale(0.050000)"/></g></g><g fill="rgba(2%, 73%, 80%, 0.20)" stroke="rgba(5%, 5%, 5%, 1.00)" stroke-width="0.050000"><g transform="rotate(-15.274, -0.51761, -0.16705)"><path d="M -1 0 L 1 0 M 1 0 L 0.4 0.3 M 1 0 L 0.4 -0.3" transform="translate(-0.51761, -0.16705) scale(0.050000)"/></g></g><g fill="rgba(2%, 73%, 80%, 0.20)" stroke="rgba(5%, 5%, 5%, 1.00)" stroke-width="0.050000"><g transform="rotate(24.917, -0.51761, -0.25475)"><path d="M -1 0 L 1 0 M 1 0 L 0.4 0.3 M 1 0 L 0.4 -0.3" transform="translate(-0.51761, -0.25475) scale(0.050000)"/></g></g><g fill="rgba(2%, 73%, 80%, 0.20)" stroke="rgba(5%, 5%, 5%, 1.00)" stroke-width="0.050000"><g transform="rotate(85.252, -0.51761, -0.34245)"><path d="M -1 0 L 1 0 M 1 0 L 0.4 0.3 M 1 0 L 0.4 -0.3" transform="translate(-0.51761, -0.34245) scale(0.050000)"/></g></g><g fill="rgba(2%, 73%, 80%, 0.20)" stroke="rgba(5%, 5%, 5%, 1.00)" stroke-width="0.050000"><g transform="rotate(107.44, -0.51761, -0.43015)"><path d="M -1 0 L 1 0 M 1 0 L 0.4 0.3 M 1 0 L 0.4 -0.3" transform="translate(-0.51761, -0.43015) scale(0.050000)"/></g></g><g fill="rgba(2%, 73%, 80%, 0.20)" stroke="rgba(5%, 5%, 5%, 1.00)" stroke-width="0.050000"><g transform="rotate(-46.899, -0.39007, 0.35915)"><path d="M -1 0 L 1 0 M 1 0 L 0.4 0.3 M 1 0 L 0.4 -0.3" transform="translate(-0.39007, 0.35915) scale(0.050000)"/></g></g><g fill="rgba(2%, 73%, 80%, 0.20)" stroke="rgba(5%, 5%, 5%, 1.00)" stroke-width="0.050000"><g transform="rotate(-45.412, -0.39007, 0.27145)"><path d="M -1 0 L 1 0 M 1 0 L 0.4 0.3 M 1 0 L 0.4 -0.3" transform="translate(-0.39007, 0.27145) scale(0.050000)"/></g></g><g fill="rgba(2%, 73%, 80%, 0.20)" stroke="rgba(5%, 5%, 5%, 1.00)" stroke-width="0.050000"><g transform="rotate(-43.267, -0.39007, 0.18375)"><path d="M -1 0 L 1 0 M 1 0 L 0.4 0.3 M 1 0 L 0.4 -0.3" transform="translate(-0.39007, 0.18375) scale(0.050000)"/></g></g><g fill="rgba(2%, 73%, 80%, 0.20)" stroke="rgba(5%, 5%, 5%, 1.00)" stroke-width="0.050000"><g transform="rotate(-39.914, -0.39007, 0.096052)"><path d="M -1 0 L 1 0 M 1 0 L 0.4 0.3 M 1 0 L 0.4 -0.3" transform="translate(-0.39007, 0.096052) scale(0.050000)"/></g></g><g fill="rgba(2%, 73%, 80%, 0.20)" stroke="rgba(5%, 5%, 5%, 1.00)" stroke-width="0.050000"><g transform="rotate(-33.999, -0.39007, 0.0083522)"><path d="M -1 0 L 1 0 M 1 0 L 0.4 0.3 M 1 0 L 0.4 -0.3" transform="translate(-0.39007, 0.0083522) scale(0.050000)"/></g></g><g fill="rgba(2%, 73%, 80%, 0.20)" stroke="rgba(5%, 5%, 5%, 1.00)" stroke-width="0.050000"><g transform="rotate(-21.321, -0.39007, -0.079347)"><path d="M -1 0 L 1 0 M 1 0 L 0.4 0.3 M 1 0 L 0.4 -0.3" transform="translate(-0.39007, -0.079347) scale(0.050000)"/></g></g><g fill="rgba(2%, 73%, 80%, 0.20)" stroke="rgba(5%, 5%, 5%, 1.00)" stroke-width="0.050000"><g transform="rotate(13.365, -0.39007, -0.16705)"><path d="M -1 0 L 1 0 M 1 0 L 0.4 0.3 M 1 0 L 0.4 -0.3" transform="translate(-0.39007, -0.16705) scale(0.050000)"/></g></g><g fill="rgba(2%, 73%, 80%, 0.20)" stroke="rgba(5%, 5%, 5%, 1.00)" stroke-width="0.050000"><g transform="rotate(70.261, -0.39007, -0.25475)"><path d="M -1 0 L 1 0 M 1 0 L 0.4 0.3 M 1 0 L 0.4 -0.3" transform="translate(-0.39007, -0.25475) scale(0.050000)"/></g></g><g fill="rgba(2%, 73%, 80%, 0.20)" stroke="rgba(5%, 5%, 5%, 1.00)" stroke-width="0.050000"><g transform="rotate(96.084, -0.39007, -0.34245)"><path d="M -1 0 L 1 0 M 1 0 L 0.4 0.3 M 1 0 L 0.4 -0.3" transform="translate(-0.39007, -0.34245) scale(0.050000)"/></g></g><g fill="rgba(2%, 73%, 80%, 0.20)" stroke="rgba(5%, 5%, 5%, 1.00)" stroke-width="0.050000"><g transform="rotate(106.06, -0.39007, -0.43015)"><path d="M -1 0 L 1 0 M 1 0 L 0.4 0.3 M 1 0 L 0.4 -0.3" transform="translate(-0.39007, -0.43015) scale(0.050000)"/></g></g><g fill="rgba(2%, 73%, 80%, 0.20)" stroke="rgba(5%, 5%, 5%, 1.00)" stroke-width="0.050000"><g transform="rotate(-53.354, -0.26252, 0.35915)"><path d="M -1 0 L 1 0 M 1 0 L 0.4 0.3 M 1 0 L 0.4 -0.3" transform="translate(-0.26252, 0.35915) scale(0.050000)"/></g></g><g fill="rgba(2%, 73%, 80%, 0.20)" stroke="rgba(5%, 5%, 5%, 1.00)" stroke-width="0.050000"><g transform="rotate(-51.234, -0.26252, 0.27145)"><path d="M -1 0 L 1 0 M 1 0 L 0.4 0.3 M 1 0 L 0.4 -0.3" transform="translate(-0.26252, 0.27145) scale(0.050000)"/></g></g><g fill="rgba(2%, 73%, 80%, 0.20)" stroke="rgba(5%, 5%, 5%, 1.00)" stroke-width="0.050000"><g transform="rotate(-48.013, -0.26252, 0.18375)"><path d="M -1 0 L 1 0 M 1 0 L 0.4 0.3 M 1 0 L 0.4 -0.3" transform="translate(-0.26252, 0.18375) scale(0.050000)"/></g></g><g fill="rgba(2%, 73%, 80%, 0.20)" stroke="rgba(5%, 5%, 5%, 1.00)" stroke-width="0.050000"><g transform="rotate(-42.580, -0.26252, 0.096052)"><path d="M -1 0 L 1 0 M 1 0 L 0.4 0.3 M 1 0 L 0.4 -0.3" transform="translate(-0.26252, 0.096052) scale(0.050000)"/></g></g><g fill="rgba(2%, 73%, 80%, 0.20)" stroke="rgba(5%, 5%, 5%, 1.00)" stroke-width="0.050000"><g transform="rotate(-31.827, -0.26252, 0.0083522)"><path d="M -1 0 L 1 0 M 1 0 L 0.4 0.3 M 1 0 L 0.4 -0.3" transform="translate(-0.26252, 0.0083522) scale(0.050000)"/></g></g><g fill="rgba(2%, 73%, 80%, 0.20)" stroke="rgba(5%, 5%, 5%, 1.00)" stroke-width="0.050000"><g transform="rotate(-5.4403, -0.26252, -0.079347)"><path d="M -1 0 L 1 0 M 1 0 L 0.4 0.3 M 1 0 L 0.4 -0.3" transform="translate(-0.26252, -0.079347) scale(0.050000)"/></g></g><g fill="rgba(2%, 73%, 80%, 0.20)" stroke="rgba(5%, 5%, 5%, 1.00)" stroke-width="0.050000"><g transform="rotate(47.121, -0.26252, -0.16705)"><path d="M -1 0 L 1 0 M 1 0 L 0.4 0.3 M 1 0 L 0.4 -0.3" transform="translate(-0.26252, -0.16705) scale(0.050000)"/></g></g><g fill="rgba(2%, 73%, 80%, 0.20)" stroke="rgba(5%, 5%, 5%, 1.00)" stroke-width="0.050000"><g transform="rotate(80.538, -0.26252, -0.25475)"><path d="M -1 0 L 1 0 M 1 0 L 0.4 0.3 M 1 0 L 0.4 -0.3" transform="translate(-0.26252, -0.25475) scale(0.050000)"/></g></g><g fill="rgba(2%, 73%, 80%, 0.20)" stroke="rgba(5%, 5%, 5%, 1.00)" stroke-width="0.050000"><g transform="rotate(93.731, -0.26252, -0.34245)"><path d="M -1 0 L 1 0 M 1 0 L 0.4 0.3 M 1 0 L 0.4 -0.3" transform="translate(-0.26252, -0.34245) scale(0.050000)"/></g></g><g fill="rgba(2%, 73%, 80%, 0.20)" stroke="rgba(5%, 5%, 5%, 1.00)" stroke-width="0.050000"><g transform="rotate(100.06, -0.26252, -0.43015)"><path d="M -1 0 L 1 0 M 1 0 L 0.4 0.3 M 1 0 L 0.4 -0.3" transform="translate(-0.26252, -0.43015) scale(0.050000)"/></g></g><g fill="rgba(2%, 73%, 80%, 0.20)" stroke="rgba(5%, 5%, 5%, 1.00)" stroke-width="0.050000"><g transform="rotate(-61.481, -0.13498, 0.35915)"><path d="M -1 0 L 1 0 M 1 0 L 0.4 0.3 M 1 0 L 0.4 -0.3" transform="translate(-0.13498, 0.35915) scale(0.050000)"/></g></g><g fill="rgba(2%, 73%, 80%, 0.20)" stroke="rgba(5%, 5%, 5%, 1.00)" stroke-width="0.050000"><g transform="rotate(-58.670, -0.13498, 0.27145)"><path d="M -1 0 L 1 0 M 1 0 L 0.4 0.3 M 1 0 L 0.4 -0.3" transform="translate(-0.13498, 0.27145) scale(0.050000)"/></g></g><g fill="rgba(2%, 73%, 80%, 0.20)" stroke="rgba(5%, 5%, 5%, 1.00)" stroke-width="0.050000"><g transform="rotate(-54.170, -0.13498, 0.18375)"><path d="M -1 0 L 1 0 M 1 0 L 0.4 0.3 M 1 0 L 0.4 -0.3" transform="translate(-0.13498, 0.18375) scale(0.050000)"/></g></g><g fill="rgba(2%, 73%, 80%, 0.20)" stroke="rgba(5%, 5%, 5%, 1.00)" stroke-width="0.050000"><g transform="rotate(-45.971, -0.13498, 0.096052)"><path d="M -1 0 L 1 0 M 1 0 L 0.4 0.3 M 1 0 L 0.4 -0.3" transform="translate(-0.13498, 0.096052) scale(0.050000)"/></g></g><g fill="rgba(2%, 73%, 80%, 0.20)" stroke="rgba(5%, 5%, 5%, 1.00)" stroke-width="0.050000"><g transform="rotate(-27.931, -0.13498, 0.0083522)"><path d="M -1 0 L 1 0 M 1 0 L 0.4 0.3 M 1 0 L 0.4 -0.3" transform="translate(-0.13498, 0.0083522) scale(0.050000)"/></g></g><g fill="rgba(2%, 73%, 80%, 0.20)" stroke="rgba(5%, 5%, 5%, 1.00)" stroke-width="0.050000"><g transform="rotate(14.446, -0.13498, -0.079347)"><path d="M -1 0 L 1 0 M 1 0 L 0.4 0.3 M 1 0 L 0.4 -0.3" transform="translate(-0.13498, -0.079347) scale(0.050000)"/></g></g><g fill="rgba(2%, 73%, 80%, 0.20)" stroke="rgba(5%, 5%, 5%, 1.00)" stroke-width="0.050000"><g transform="rotate(58.954, -0.13498, -0.16705)"><path d="M -1 0 L 1 0 M 1 0 L 0.4 0.3 M 1 0 L 0.4 -0.3" transform="translate(-0.13498, -0.16705) scale(0.050000)"/></g></g><g fill="rgba(2%, 73%, 80%, 0.20)" stroke="rgba(5%, 5%, 5%, 1.00)" stroke-width="0.050000"><g transform="rotate(78.388, -0.13498, -0.25475)"><path d="M -1 0 L 1 0 M 1 0 L 0.4 0.3 M 1 0 L 0.4 -0.3" transform="translate(-0.13498, -0.25475) scale(0.050000)"/></g></g><g fill="rgba(2%, 73%, 80%, 0.20)" stroke="rgba(5%, 5%, 5%, 1.00)" stroke-width="0.050000"><g transform="rotate(87.072, -0.13498, -0.34245)"><path d="M -1 0 L 1 0 M 1 0 L 0.4 0.3 M 1 0 L 0.4 -0.3" transform="translate(-0.13498, -0.34245) scale(0.050000)"/></g></g><g fill="rgba(2%, 73%, 80%, 0.20)" stroke="rgba(5%, 5%, 5%, 1.00)" stroke-width="0.050000"><g transform="rotate(91.775, -0.13498, -0.43015)"><path d="M -1 0 L 1 0 M 1 0 L 0.4 0.3 M 1 0 L 0.4 -0.3" transform="translate(-0.13498, -0.43015) scale(0.050000)"/></g></g><g fill="rgba(2%, 73%, 80%, 0.20)" stroke="rgba(5%, 5%, 5%, 1.00)" stroke-width="0.050000"><g transform="rotate(-71.632, -0.0074373, 0.35915)"><path d="M -1 0 L 1 0 M 1 0 L 0.4 0.3 M 1 0 L 0.4 -0.3" transform="translate(-0.0074373, 0.35915) scale(0.050000)"/></g></g><g fill="rgba(2%, 73%, 80%, 0.20)" stroke="rgba(5%, 5%, 5%, 1.00)" stroke-width="0.050000"><g transform="rotate(-68.304, -0.0074373, 0.27145)"><path d="M -1 0 L 1 0 M 1 0 L 0.4 0.3 M 1 0 L 0.4 -0.3" transform="translate(-0.0074373, 0.27145) scale(0.050000)"/></g></g><g fill="rgba(2%, 73%, 80%, 0.20)" stroke="rgba(5%, 5%, 5%, 1.00)" stroke-width="0.050000"><g transform="rotate(-62.713, -0.0074373, 0.18375)"><path d="M -1 0 L 1 0 M 1 0 L 0.4 0.3 M 1 0 L 0.4 -0.3" transform="translate(-0.0074373, 0.18375) scale(0.050000)"/></g></g><g fill="rgba(2%, 73%, 80%, 0.20)" stroke="rgba(5%, 5%, 5%, 1.00)" stroke-width="0.050000"><g transform="rotate(-51.743, -0.0074373, 0.096052)"><path d="M -1 0 L 1 0 M 1 0 L 0.4 0.3 M 1 0 L 0.4 -0.3" transform="translate(-0.0074373, 0.096052) scale(0.050000)"/></g></g><g fill="rgba(2%, 73%, 80%, 0.20)" stroke="rgba(5%, 5%, 5%, 1.00)" stroke-width="0.050000"><g transform="rotate(-25.463, -0.0074373, 0.0083522)"><path d="M -1 0 L 1 0 M 1 0 L 0.4 0.3 M 1 0 L 0.4 -0.3" transform="translate(-0.0074373, 0.0083522) scale(0.050000)"/></g></g><g fill="rgba(2%, 73%, 80%, 0.20)" stroke="rgba(5%, 5%, 5%, 1.00)" stroke-width="0.050000"><g transform="rotate(25.352, -0.0074373, -0.079347)"><path d="M -1 0 L 1 0 M 1 0 L 0.4 0.3 M 1 0 L 0.4 -0.3" transform="translate(-0.0074373, -0.079347) scale(0.050000)"/></g></g><g fill="rgba(2%, 73%, 80%, 0.20)" stroke="rgba(5%, 5%, 5%, 1.00)" stroke-width="0.050000"><g transform="rotate(58.539, -0.0074373, -0.16705)"><path d="M -1 0 L 1 0 M 1 0 L 0.4 0.3 M 1 0 L 0.4 -0.3" transform="translate(-0.0074373, -0.16705) scale(0.050000)"/></g></g><g fill="rgba(2%, 73%, 80%, 0.20)" stroke="rgba(5%, 5%, 5%, 1.00)" stroke-width="0.050000"><g transform="rotate(72.035, -0.0074373, -0.25475)"><path d="M -1 0 L 1 0 M 1 0 L 0.4 0.3 M 1 0 L 0.4 -0.3" transform="translate(-0.0074373, -0.25475) scale(0.050000)"/></g></g><g fill="rgba(2%, 73%, 80%, 0.20)" stroke="rgba(5%, 5%, 5%, 1.00)" stroke-width="0.050000"><g transform="rotate(78.571, -0.0074373, -0.34245)"><path d="M -1 0 L 1 0 M 1 0 L 0.4 0.3 M 1 0 L 0.4 -0.3" transform="translate(-0.0074373, -0.34245) scale(0.050000)"/></g></g><g fill="rgba(2%, 73%, 80%, 0.20)" stroke="rgba(5%, 5%, 5%, 1.00)" stroke-width="0.050000"><g transform="rotate(82.332, -0.0074373, -0.43015)"><path d="M -1 0 L 1 0 M 1 0 L 0.4 0.3 M 1 0 L 0.4 -0.3" transform="translate(-0.0074373, -0.43015) scale(0.050000)"/></g></g><g fill="rgba(2%, 73%, 80%, 0.20)" stroke="rgba(5%, 5%, 5%, 1.00)" stroke-width="0.050000"><g transform="rotate(-83.726, 0.12011, 0.35915)"><path d="M -1 0 L 1 0 M 1 0 L 0.4 0.3 M 1 0 L 0.4 -0.3" transform="translate(0.12011, 0.35915) scale(0.050000)"/></g></g><g fill="rgba(2%, 73%, 80%, 0.20)" stroke="rgba(5%, 5%, 5%, 1.00)" stroke-width="0.050000"><g transform="rotate(-80.380, 0.12011, 0.27145)"><path d="M -1 0 L 1 0 M 1 0 L 0.4 0.3 M 1 0 L 0.4 -0.3" transform="translate(0.12011, 0.27145) scale(0.050000)"/></g></g><g fill="rgba(2%, 73%, 80%, 0.20)" stroke="rgba(5%, 5%, 5%, 1.00)" stroke-width="0.050000"><g transform="rotate(-74.558, 0.12011, 0.18375)"><path d="M -1 0 L 1 0 M 1 0 L 0.4 0.3 M 1 0 L 0.4 -0.3" transform="translate(0.12011, 0.18375) scale(0.050000)"/></g></g><g fill="rgba(2%, 73%, 80%, 0.20)" stroke="rgba(5%, 5%, 5%, 1.00)" stroke-width="0.050000"><g transform="rotate(-62.393, 0.12011, 0.096052)"><path d="M -1 0 L 1 0 M 1 0 L 0.4 0.3 M 1 0 L 0.4 -0.3" transform="translate(0.12011, 0.096052) scale(0.050000)"/></g></g><g fill="rgba(2%, 73%, 80%, 0.20)" stroke="rgba(5%, 5%, 5%, 1.00)" stroke-width="0.050000"><g transform="rotate(-30.326, 0.12011, 0.0083522)"><path d="M -1 0 L 1 0 M 1 0 L 0.4 0.3 M 1 0 L 0.4 -0.3" transform="translate(0.12011, 0.0083522) scale(0.050000)"/></g></g><g fill="rgba(2%, 73%, 80%, 0.20)" stroke="rgba(5%, 5%, 5%, 1.00)" stroke-width="0.050000"><g transform="rotate(25.463, 0.12011, -0.079347)"><path d="M -1 0 L 1 0 M 1 0 L 0.4 0.3 M 1 0 L 0.4 -0.3" transform="translate(0.12011, -0.079347) scale(0.050000)"/></g></g><g fill="rgba(2%, 73%, 80%, 0.20)" stroke="rgba(5%, 5%, 5%, 1.00)" stroke-width="0.050000"><g transform="rotate(53.348, 0.12011, -0.16705)"><path d="M -1 0 L 1 0 M 1 0 L 0.4 0.3 M 1 0 L 0.4 -0.3" transform="translate(0.12011, -0.16705) scale(0.050000)"/></g></g><g fill="rgba(2%, 73%, 80%, 0.20)" stroke="rgba(5%, 5%, 5%, 1.00)" stroke-width="0.050000"><g transform="rotate(64.181, 0.12011, -0.25475)"><path d="M -1 0 L 1 0 M 1 0 L 0.4 0.3 M 1 0 L 0.4 -0.3" transform="translate(0.12011, -0.25475) scale(0.050000)"/></g></g><g fill="rgba(2%, 73%, 80%, 0.20)" stroke="rgba(5%, 5%, 5%, 1.00)" stroke-width="0.050000"><g transform="rotate(69.525, 0.12011, -0.34245)"><path d="M -1 0 L 1 0 M 1 0 L 0.4 0.3 M 1 0 L 0.4 -0.3" transform="translate(0.12011, -0.34245) scale(0.050000)"/></g></g><g fill="rgba(2%, 73%, 80%, 0.20)" stroke="rgba(5%, 5%, 5%, 1.00)" stroke-width="0.050000"><g transform="rotate(72.657, 0.12011, -0.43015)"><path d="M -1 0 L 1 0 M 1 0 L 0.4 0.3 M 1 0 L 0.4 -0.3" transform="translate(0.12011, -0.43015) scale(0.050000)"/></g></g><g fill="rgba(2%, 73%, 80%, 0.20)" stroke="rgba(5%, 5%, 5%, 1.00)" stroke-width="0.050000"><g transform="rotate(-96.849, 0.24765, 0.35915)"><path d="M -1 0 L 1 0 M 1 0 L 0.4 0.3 M 1 0 L 0.4 -0.3" transform="translate(0.24765, 0.35915) scale(0.050000)"/></g></g><g fill="rgba(2%, 73%, 80%, 0.20)" stroke="rgba(5%, 5%, 5%, 1.00)" stroke-width="0.050000"><g transform="rotate(-94.107, 0.24765, 0.27145)"><path d="M -1 0 L 1 0 M 1 0 L 0.4 0.3 M 1 0 L 0.4 -0.3" transform="translate(0.24765, 0.27145) scale(0.050000)"/></g></g><g fill="rgba(2%, 73%, 80%, 0.20)" stroke="rgba(5%, 5%, 5%, 1.00)" stroke-width="0.050000"><g transform="rotate(-89.317, 0.24765, 0.18375)"><path d="M -1 0 L 1 0 M 1 0 L 0.4 0.3 M 1 0 L 0.4 -0.3" transform="translate(0.24765, 0.18375) scale(0.050000)"/></g></g><g fill="rgba(2%, 73%, 80%, 0.20)" stroke="rgba(5%, 5%, 5%, 1.00)" stroke-width="0.050000"><g transform="rotate(-79.090, 0.24765, 0.096052)"><path d="M -1 0 L 1 0 M 1 0 L 0.4 0.3 M 1 0 L 0.4 -0.3" transform="translate(0.24765, 0.096052) scale(0.050000)"/></g></g><g fill="rgba(2%, 73%, 80%, 0.20)" stroke="rgba(5%, 5%, 5%, 1.00)" stroke-width="0.050000"><g transform="rotate(-48.898, 0.24765, 0.0083522)"><path d="M -1 0 L 1 0 M 1 0 L 0.4 0.3 M 1 0 L 0.4 -0.3" transform="translate(0.24765, 0.0083522) scale(0.050000)"/></g></g><g fill="rgba(2%, 73%, 80%, 0.20)" stroke="rgba(5%, 5%, 5%, 1.00)" stroke-width="0.050000"><g transform="rotate(16.431, 0.24765, -0.079347)"><path d="M -1 0 L 1 0 M 1 0 L 0.4 0.3 M 1 0 L 0.4 -0.3" transform="translate(0.24765, -0.079347) scale(0.050000)"/></g></g><g fill="rgba(2%, 73%, 80%, 0.20)" stroke="rgba(5%, 5%, 5%, 1.00)" stroke-width="0.050000"><g transform="rotate(45.971, 0.24765, -0.16705)"><path d="M -1 0 L 1 0 M 1 0 L 0.4 0.3 M 1 0 L 0.4 -0.3" transform="translate(0.24765, -0.16705) scale(0.050000)"/></g></g><g fill="rgba(2%, 73%, 80%, 0.20)" stroke="rgba(5%, 5%, 5%, 1.00)" stroke-width="0.050000"><g transform="rotate(56.035, 0.24765, -0.25475)"><path d="M -1 0 L 1 0 M 1 0 L 0.4 0.3 M 1 0 L 0.4 -0.3" transform="translate(0.24765, -0.25475) scale(0.050000)"/></g></g><g fill="rgba(2%, 73%, 80%, 0.20)" stroke="rgba(5%, 5%, 5%, 1.00)" stroke-width="0.050000"><g transform="rotate(60.771, 0.24765, -0.34245)"><path d="M -1 0 L 1 0 M 1 0 L 0.4 0.3 M 1 0 L 0.4 -0.3" transform="translate(0.24765, -0.34245) scale(0.050000)"/></g></g><g fill="rgba(2%, 73%, 80%, 0.20)" stroke="rgba(5%, 5%, 5%, 1.00)" stroke-width="0.050000"><g transform="rotate(63.489, 0.24765, -0.43015)"><path d="M -1 0 L 1 0 M 1 0 L 0.4 0.3 M 1 0 L 0.4 -0.3" transform="translate(0.24765, -0.43015) scale(0.050000)"/></g></g><g fill="rgba(2%, 73%, 80%, 0.20)" stroke="rgba(5%, 5%, 5%, 1.00)" stroke-width="0.050000"><g transform="rotate(-109.48, 0.37519, 0.35915)"><path d="M -1 0 L 1 0 M 1 0 L 0.4 0.3 M 1 0 L 0.4 -0.3" transform="translate(0.37519, 0.35915) scale(0.050000)"/></g></g><g fill="rgba(2%, 73%, 80%, 0.20)" stroke="rgba(5%, 5%, 5%, 1.00)" stroke-width="0.050000"><g transform="rotate(-107.65, 0.37519, 0.27145)"><path d="M -1 0 L 1 0 M 1 0 L 0.4 0.3 M 1 0 L 0.4 -0.3" transform="translate(0.37519, 0.27145) scale(0.050000)"/></g></g><g fill="rgba(2%, 73%, 80%, 0.20)" stroke="rgba(5%, 5%, 5%, 1.00)" stroke-width="0.050000"><g transform="rotate(-104.57, 0.37519, 0.18375)"><path d="M -1 0 L 1 0 M 1 0 L 0.4 0.3 M 1 0 L 0.4 -0.3" transform="translate(0.37519, 0.18375) scale(0.050000)"/></g></g><g fill="rgba(2%, 73%, 80%, 0.20)" stroke="rgba(5%, 5%, 5%, 1.00)" stroke-width="0.050000"><g transform="rotate(-98.366, 0.37519, 0.096052)"><path d="M -1 0 L 1 0 M 1 0 L 0.4 0.3 M 1 0 L 0.4 -0.3" transform="translate(0.37519, 0.096052) scale(0.050000)"/></g></g><g fill="rgba(2%, 73%, 80%, 0.20)" stroke="rgba(5%, 5%, 5%, 1.00)" stroke-width="0.050000"><g transform="rotate(-80.538, 0.37519, 0.0083522)"><path d="M -1 0 L 1 0 M 1 0 L 0.4 0.3 M 1 0 L 0.4 -0.3" transform="translate(0.37519, 0.0083522) scale(0.050000)"/></g></g><g fill="rgba(2%, 73%, 80%, 0.20)" stroke="rgba(5%, 5%, 5%, 1.00)" stroke-width="0.050000"><g transform="rotate(-10.305, 0.37519, -0.079347)"><path d="M -1 0 L 1 0 M 1 0 L 0.4 0.3 M 1 0 L 0.4 -0.3" transform="translate(0.37519, -0.079347) scale(0.050000)"/></g></g><g fill="rgba(2%, 73%, 80%, 0.20)" stroke="rgba(5%, 5%, 5%, 1.00)" stroke-width="0.050000"><g transform="rotate(36.384, 0.37519, -0.16705)"><path d="M -1 0 L 1 0 M 1 0 L 0.4 0.3 M 1 0 L 0.4 -0.3" transform="translate(0.37519, -0.16705) scale(0.050000)"/></g></g><g fill="rgba(2%, 73%, 80%, 0.20)" stroke="rgba(5%, 5%, 5%, 1.00)" stroke-width="0.050000"><g transform="rotate(48.013, 0.37519, -0.25475)"><path d="M -1 0 L 1 0 M 1 0 L 0.4 0.3 M 1 0 L 0.4 -0.3" transform="translate(0.37519, -0.25475) scale(0.050000)"/></g></g><g fill="rgba(2%, 73%, 80%, 0.20)" stroke="rgba(5%, 5%, 5%, 1.00)" stroke-width="0.050000"><g transform="rotate(52.734, 0.37519, -0.34245)"><path d="M -1 0 L 1 0 M 1 0 L 0.4 0.3 M 1 0 L 0.4 -0.3" transform="translate(0.37519, -0.34245) scale(0.050000)"/></g></g><g fill="rgba(2%, 73%, 80%, 0.20)" stroke="rgba(5%, 5%, 5%, 1.00)" stroke-width="0.050000"><g transform="rotate(55.257, 0.37519, -0.43015)"><path d="M -1 0 L 1 0 M 1 0 L 0.4 0.3 M 1 0 L 0.4 -0.3" transform="translate(0.37519, -0.43015) scale(0.050000)"/></g></g><g fill="rgba(2%, 73%, 80%, 0.20)" stroke="rgba(5%, 5%, 5%, 1.00)" stroke-width="0.050000"><g transform="rotate(-120.39, 0.50273, 0.35915)"><path d="M -1 0 L 1 0 M 1 0 L 0.4 0.3 M 1 0 L 0.4 -0.3" transform="translate(0.50273, 0.35915) scale(0.050000)"/></g></g><g fill="rgba(2%, 73%, 80%, 0.20)" stroke="rgba(5%, 5%, 5%, 1.00)" stroke-width="0.050000"><g transform="rotate(-119.35, 0.50273, 0.27145)"><path d="M -1 0 L 1 0 M 1 0 L 0.4 0.3 M 1 0 L 0.4 -0.3" transform="translate(0.50273, 0.27145) scale(0.050000)"/></g></g><g fill="rgba(2%, 73%, 80%, 0.20)" stroke="rgba(5%, 5%, 5%, 1.00)" stroke-width="0.050000"><g transform="rotate(-117.72, 0.50273, 0.18375)"><path d="M -1 0 L 1 0 M 1 0 L 0.4 0.3 M 1 0 L 0.4 -0.3" transform="translate(0.50273, 0.18375) scale(0.050000)"/></g></g><g fill="rgba(2%, 73%, 80%, 0.20)" stroke="rgba(5%, 5%, 5%, 1.00)" stroke-width="0.050000"><g transform="rotate(-114.77, 0.50273, 0.096052)"><path d="M -1 0 L 1 0 M 1 0 L 0.4 0.3 M 1 0 L 0.4 -0.3" transform="translate(0.50273, 0.096052) scale(0.050000)"/></g></g><g fill="rgba(2%, 73%, 80%, 0.20)" stroke="rgba(5%, 5%, 5%, 1.00)" stroke-width="0.050000"><g transform="rotate(-107.91, 0.50273, 0.0083522)"><path d="M -1 0 L 1 0 M 1 0 L 0.4 0.3 M 1 0 L 0.4 -0.3" transform="translate(0.50273, 0.0083522) scale(0.050000)"/></g></g><g fill="rgba(2%, 73%, 80%, 0.20)" stroke="rgba(5%, 5%, 5%, 1.00)" stroke-width="0.050000"><g transform="rotate(-78.880, 0.50273, -0.079347)"><path d="M -1 0 L 1 0 M 1 0 L 0.4 0.3 M 1 0 L 0.4 -0.3" transform="translate(0.50273, -0.079347) scale(0.050000)"/></g></g><g fill="rgba(2%, 73%, 80%, 0.20)" stroke="rgba(5%, 5%, 5%, 1.00)" stroke-width="0.050000"><g transform="rotate(18.077, 0.50273, -0.16705)"><path d="M -1 0 L 1 0 M 1 0 L 0.4 0.3 M 1 0 L 0.4 -0.3" transform="translate(0.50273, -0.16705) scale(0.050000)"/></g></g><g fill="rgba(2%, 73%, 80%, 0.20)" stroke="rgba(5%, 5%, 5%, 1.00)" stroke-width="0.050000"><g transform="rotate(39.576, 0.50273, -0.25475)"><path d="M -1 0 L 1 0 M 1 0 L 0.4 0.3 M 1 0 L 0.4 -0.3" transform="translate(0.50273, -0.25475) scale(0.050000)"/></g></g><g fill="rgba(2%, 73%, 80%, 0.20)" stroke="rgba(5%, 5%, 5%, 1.00)" stroke-width="0.050000"><g transform="rotate(45.412, 0.50273, -0.34245)"><path d="M -1 0 L 1 0 M 1 0 L 0.4 0.3 M 1 0 L 0.4 -0.3" transform="translate(0.50273, -0.34245) scale(0.050000)"/></g></g><g fill="rgba(2%, 73%, 80%, 0.20)" stroke="rgba(5%, 5%, 5%, 1.00)" stroke-width="0.050000"><g transform="rotate(48.061, 0.50273, -0.43015)"><path d="M -1 0 L 1 0 M 1 0 L 0.4 0.3 M 1 0 L 0.4 -0.3" transform="translate(0.50273, -0.43015) scale(0.050000)"/></g></g><g fill="rgba(2%, 73%, 80%, 0.20)" stroke="rgba(5%, 5%, 5%, 1.00)" stroke-width="0.050000"><g transform="rotate(-129.20, 0.63028, 0.35915)"><path d="M -1 0 L 1 0 M 1 0 L 0.4 0.3 M 1 0 L 0.4 -0.3" transform="translate(0.63028, 0.35915) scale(0.050000)"/></g></g><g fill="rgba(2%, 73%, 80%, 0.20)" stroke="rgba(5%, 5%, 5%, 1.00)" stroke-width="0.050000"><g transform="rotate(-128.68, 0.63028, 0.27145)"><path d="M -1 0 L 1 0 M 1 0 L 0.4 0.3 M 1 0 L 0.4 -0.3" transform="translate(0.63028, 0.27145) scale(0.050000)"/></g></g><g fill="rgba(2%, 73%, 80%, 0.20)" stroke="rgba(5%, 5%, 5%, 1.00)" stroke-width="0.050000"><g transform="rotate(-127.90, 0.63028, 0.18375)"><path d="M -1 0 L 1 0 M 1 0 L 0.4 0.3 M 1 0 L 0.4 -0.3" transform="translate(0.63028, 0.18375) scale(0.050000)"/></g></g><g fill="rgba(2%, 73%, 80%, 0.20)" stroke="rgba(5%, 5%, 5%, 1.00)" stroke-width="0.050000"><g transform="rotate(-126.65, 0.63028, 0.096052)"><path d="M -1 0 L 1 0 M 1 0 L 0.4 0.3 M 1 0 L 0.4 -0.3" transform="translate(0.63028, 0.096052) scale(0.050000)"/></g></g><g fill="rgba(2%, 73%, 80%, 0.20)" stroke="rgba(5%, 5%, 5%, 1.00)" stroke-width="0.050000"><g transform="rotate(-124.30, 0.63028, 0.0083522)"><path d="M -1 0 L 1 0 M 1 0 L 0.4 0.3 M 1 0 L 0.4 -0.3" transform="translate(0.63028, 0.0083522) scale(0.050000)"/></g></g><g fill="rgba(2%, 73%, 80%, 0.20)" stroke="rgba(5%, 5%, 5%, 1.00)" stroke-width="0.050000"><g transform="rotate(-118.34, 0.63028, -0.079347)"><path d="M -1 0 L 1 0 M 1 0 L 0.4 0.3 M 1 0 L 0.4 -0.3" transform="translate(0.63028, -0.079347) scale(0.050000)"/></g></g><g fill="rgba(2%, 73%, 80%, 0.20)" stroke="rgba(5%, 5%, 5%, 1.00)" stroke-width="0.050000"><g transform="rotate(-81.603, 0.63028, -0.16705)"><path d="M -1 0 L 1 0 M 1 0 L 0.4 0.3 M 1 0 L 0.4 -0.3" transform="translate(0.63028, -0.16705) scale(0.050000)"/></g></g><g fill="rgba(2%, 73%, 80%, 0.20)" stroke="rgba(5%, 5%, 5%, 1.00)" stroke-width="0.050000"><g transform="rotate(25.917, 0.63028, -0.25475)"><path d="M -1 0 L 1 0 M 1 0 L 0.4 0.3 M 1 0 L 0.4 -0.3" transform="translate(0.63028, -0.25475) scale(0.050000)"/></g></g><g fill="rgba(2%, 73%, 80%, 0.20)" stroke="rgba(5%, 5%, 5%, 1.00)" stroke-width="0.050000"><g transform="rotate(38.154, 0.63028, -0.34245)"><path d="M -1 0 L 1 0 M 1 0 L 0.4 0.3 M 1 0 L 0.4 -0.3" transform="translate(0.63028, -0.34245) scale(0.050000)"/></g></g><g fill="rgba(2%, 73%, 80%, 0.20)" stroke="rgba(5%, 5%, 5%, 1.00)" stroke-width="0.050000"><g transform="rotate(41.704, 0.63028, -0.43015)"><path d="M -1 0 L 1 0 M 1 0 L 0.4 0.3 M 1 0 L 0.4 -0.3" transform="translate(0.63028, -0.43015) scale(0.050000)"/></g></g></g></g><g class="hud"><g class="frame"><g fill="rgba(100%, 100%, 100%, 0.02)" stroke="rgba(0%, 0%, 0%, 0.00)" stroke-width="0.0000"><rect height="0.87700" width="1.2754" x="-0.58138" y="-0.47400"/></g></g><g class="axis"><g class="ticks"><g class="tickglyph"><g fill="rgba(5%, 5%, 5%, 0.40)" stroke="rgba(5%, 5%, 5%, 0.40)" stroke-width="0.0040000"><g transform="rotate(-90.000, -0.60689, 0.40300)"><polyline points="-0.60689,0.41800
-0.60689,0.38800"/></g><g transform="rotate(-90.000, -0.60689, 0.31530)"><polyline points="-0.60689,0.33030
-0.60689,0.30030"/></g><g transform="rotate(-90.000, -0.60689, 0.22760)"><polyline points="-0.60689,0.24260
-0.60689,0.21260"/></g><g transform="rotate(-90.000, -0.60689, 0.13990)"><polyline points="-0.60689,0.15490
-0.60689,0.12490"/></g><g transform="rotate(-90.000, -0.60689, 0.052202)"><polyline points="-0.60689,0.067202
-0.60689,0.037202"/></g><g transform="rotate(-90.000, -0.60689, -0.035498)"><polyline points="-0.60689,-0.020498
-0.60689,-0.050498"/></g><g transform="rotate(-90.000, -0.60689, -0.12320)"><polyline points="-0.60689,-0.10820
-0.60689,-0.13820"/></g><g transform="rotate(-90.000, -0.60689, -0.21090)"><polyline points="-0.60689,-0.19590
-0.60689,-0.22590"/></g><g transform="rotate(-90.000, -0.60689, -0.29860)"><polyline points="-0.60689,-0.28360
-0.60689,-0.31360"/></g><g transform="rotate(-90.000, -0.60689, -0.38630)"><polyline points="-0.60689,-0.37130
-0.60689,-0.40130"/></g><g transform="rotate(-90.000, -0.60689, -0.47400)"><polyline points="-0.60689,-0.45900
-0.60689,-0.48900"/></g></g></g><g class="ticktext"><g fill="rgba(5%, 5%, 5%, 1.00)" font-size="0.042514" stroke="none" stroke-width="0.0" text-anchor="end"><text x="-0.63750" y="0.41506">-0.50</text><text x="-0.63750" y="0.32736">-0.40</text><text x="-0.63750" y="0.23966">-0.30</text><text x="-0.63750" y="0.15196">-0.20</text><text x="-0.63750" y="0.064261">-0.10</text><text x="-0.63750" y="-0.023439"> 0.00</text><text x="-0.63750" y="-0.11114"> 0.10</text><text x="-0.63750" y="-0.19884"> 0.20</text><text x="-0.63750" y="-0.28654"> 0.30</text><text x="-0.63750" y="-0.37424"> 0.40</text><text x="-0.63750" y="-0.46194"> 0.50</text></g></g></g><g class="axisbar"><g fill="rgba(5%, 5%, 5%, 0.40)" stroke="rgba(0%, 0%, 0%, 0.00)" stroke-width="0.0000"><rect height="0.88050" width="0.0034011" x="-0.59329" y="-0.47575"/></g></g></g><g class="axis"><g class="ticks"><g class="tickglyph"><g fill="rgba(5%, 5%, 5%, 0.40)" stroke="rgba(5%, 5%, 5%, 0.40)" stroke-width="0.0040000"><polyline points="-0.58138,0.44431
-0.58138,0.41431"/><polyline points="-0.45384,0.44431
-0.45384,0.41431"/><polyline points="-0.32629,0.44431
-0.32629,0.41431"/><polyline points="-0.19875,0.44431
-0.19875,0.41431"/><polyline points="-0.071209,0.44431
-0.071209,0.41431"/><polyline points="0.056334,0.44431
0.056334,0.41431"/><polyline points="0.18388,0.44431
0.18388,0.41431"/><polyline points="0.31142,0.44431
0.31142,0.41431"/><polyline points="0.43896,0.44431
0.43896,0.41431"/><polyline points="0.56651,0.44431
0.56651,0.41431"/><polyline points="0.69405,0.44431
0.69405,0.41431"/></g></g><g class="ticktext"><g fill="rgba(5%, 5%, 5%, 1.00)" font-size="0.042514" stroke="none" stroke-width="0.0" text-anchor="middle"><text x="-0.58138" y="0.48500">-0.50</text><text x="-0.45384" y="0.48500">-0.40</text><text x="-0.32629" y="0.48500">-0.30</text><text x="-0.19875" y="0.48500">-0.20</text><text x="-0.071209" y="0.48500">-0.10</text><text x="0.056334" y="0.48500"> 0.00</text><text x="0.18388" y="0.48500"> 0.10</text><text x="0.31142" y="0.48500"> 0.20</text><text x="0.43896" y="0.48500"> 0.30</text><text x="0.56651" y="0.48500"> 0.40</text><text x="0.69405" y="0.48500"> 0.50</text></g></g></g><g class="axisbar"><g fill="rgba(5%, 5%, 5%, 0.40)" stroke="rgba(0%, 0%, 0%, 0.00)" stroke-width="0.0000"><rect height="0.0035080" width="1.2788" x="-0.58308" y="0.41177"/></g></g></g></g></svg>