<svg width="443.1227564558598" xmlns:xlink="http://www.w3.org/1999/xlink" xmlns="http://www.w3.org/2000/svg" viewBox="-0.77 -0.5218912605127094 1.5400000000000003 1.0426004832049753" height="300.0"><style>svg {
  color-scheme: light dark;
}
@media (prefers-color-scheme:dark) {
  svg {
    background-color: #f0f0f0;
  }
}</style><g class="chart"><g class="arrow"><g stroke-opacity="1.0" fill="#a6cfe3" stroke="#0d0d0d" stroke-width="5.0e-2" fill-opacity="1.0"><g transform="rotate(-41.70388402745369, -0.5385590769078286, 0.339383357548887)"><path d="M -1 0 L 1 0 M 1 0 L 0.4 0.3 M 1 0 L 0.4 -0.3" transform="translate(-0.5385590769078286, 0.339383357548887) scale(5.0e-2)"/></g></g><g stroke-opacity="1.0" fill="#a6cfe3" stroke="#0d0d0d" stroke-width="5.0e-2" fill-opacity="1.0"><g transform="rotate(-40.703991576050946, -0.5385590769078286, 0.2563762332920114)"><path d="M -1 0 L 1 0 M 1 0 L 0.4 0.3 M 1 0 L 0.4 -0.3" transform="translate(-0.5385590769078286, 0.2563762332920114) scale(5.0e-2)"/></g></g><g stroke-opacity="1.0" fill="#a6cfe3" stroke="#0d0d0d" stroke-width="5.0e-2" fill-opacity="1.0"><g transform="rotate(-39.33034350353967, -0.5385590769078286, 0.1733691090351358)"><path d="M -1 0 L 1 0 M 1 0 L 0.4 0.3 M 1 0 L 0.4 -0.3" transform="translate(-0.5385590769078286, 0.1733691090351358) scale(5.0e-2)"/></g></g><g stroke-opacity="1.0" fill="#a6cfe3" stroke="#0d0d0d" stroke-width="5.0e-2" fill-opacity="1.0"><g transform="rotate(-37.32821468040517, -0.5385590769078286, 9.036198477826018e-2)"><path d="M -1 0 L 1 0 M 1 0 L 0.4 0.3 M 1 0 L 0.4 -0.3" transform="translate(-0.5385590769078286, 9.036198477826018e-2) scale(5.0e-2)"/></g></g><g stroke-opacity="1.0" fill="#a6cfe3" stroke="#0d0d0d" stroke-width="5.0e-2" fill-opacity="1.0"><g transform="rotate(-34.14934249468909, -0.5385590769078286, 7.354860521384565e-3)"><path d="M -1 0 L 1 0 M 1 0 L 0.4 0.3 M 1 0 L 0.4 -0.3" transform="translate(-0.5385590769078286, 7.354860521384565e-3) scale(5.0e-2)"/></g></g><g stroke-opacity="1.0" fill="#a6cfe3" stroke="#0d0d0d" stroke-width="5.0e-2" fill-opacity="1.0"><g transform="rotate(-28.38240378414633, -0.5385590769078286, -7.565226373549105e-2)"><path d="M -1 0 L 1 0 M 1 0 L 0.4 0.3 M 1 0 L 0.4 -0.3" transform="translate(-0.5385590769078286, -7.565226373549105e-2) scale(5.0e-2)"/></g></g><g stroke-opacity="1.0" fill="#a6cfe3" stroke="#0d0d0d" stroke-width="5.0e-2" fill-opacity="1.0"><g transform="rotate(-15.274030281041826, -0.5385590769078286, -0.15865938799236667)"><path d="M -1 0 L 1 0 M 1 0 L 0.4 0.3 M 1 0 L 0.4 -0.3" transform="translate(-0.5385590769078286, -0.15865938799236667) scale(5.0e-2)"/></g></g><g stroke-opacity="1.0" fill="#a6cfe3" stroke="#0d0d0d" stroke-width="5.0e-2" fill-opacity="1.0"><g transform="rotate(24.917115262331563, -0.5385590769078286, -0.24166651224924218)"><path d="M -1 0 L 1 0 M 1 0 L 0.4 0.3 M 1 0 L 0.4 -0.3" transform="translate(-0.5385590769078286, -0.24166651224924218) scale(5.0e-2)"/></g></g><g stroke-opacity="1.0" fill="#a6cfe3" stroke="#0d0d0d" stroke-width="5.0e-2" fill-opacity="1.0"><g transform="rotate(85.25243231067934, -0.5385590769078286, -0.3246736365061179)"><path d="M -1 0 L 1 0 M 1 0 L 0.4 0.3 M 1 0 L 0.4 -0.3" transform="translate(-0.5385590769078286, -0.3246736365061179) scale(5.0e-2)"/></g></g><g stroke-opacity="1.0" fill="#a6cfe3" stroke="#0d0d0d" stroke-width="5.0e-2" fill-opacity="1.0"><g transform="rotate(107.43966356457298, -0.5385590769078286, -0.4076807607629934)"><path d="M -1 0 L 1 0 M 1 0 L 0.4 0.3 M 1 0 L 0.4 -0.3" transform="translate(-0.5385590769078286, -0.4076807607629934) scale(5.0e-2)"/></g></g><g stroke-opacity="1.0" fill="#a6cfe3" stroke="#0d0d0d" stroke-width="5.0e-2" fill-opacity="1.0"><g transform="rotate(-46.89925433618114, -0.406956163599855, 0.339383357548887)"><path d="M -1 0 L 1 0 M 1 0 L 0.4 0.3 M 1 0 L 0.4 -0.3" transform="translate(-0.406956163599855, 0.339383357548887) scale(5.0e-2)"/></g></g><g stroke-opacity="1.0" fill="#a6cfe3" stroke="#0d0d0d" stroke-width="5.0e-2" fill-opacity="1.0"><g transform="rotate(-45.41219274140232, -0.406956163599855, 0.2563762332920114)"><path d="M -1 0 L 1 0 M 1 0 L 0.4 0.3 M 1 0 L 0.4 -0.3" transform="translate(-0.406956163599855, 0.2563762332920114) scale(5.0e-2)"/></g></g><g stroke-opacity="1.0" fill="#a6cfe3" stroke="#0d0d0d" stroke-width="5.0e-2" fill-opacity="1.0"><g transform="rotate(-43.26655332833368, -0.406956163599855, 0.1733691090351358)"><path d="M -1 0 L 1 0 M 1 0 L 0.4 0.3 M 1 0 L 0.4 -0.3" transform="translate(-0.406956163599855, 0.1733691090351358) scale(5.0e-2)"/></g></g><g stroke-opacity="1.0" fill="#a6cfe3" stroke="#0d0d0d" stroke-width="5.0e-2" fill-opacity="1.0"><g transform="rotate(-39.913529548149384, -0.406956163599855, 9.036198477826018e-2)"><path d="M -1 0 L 1 0 M 1 0 L 0.4 0.3 M 1 0 L 0.4 -0.3" transform="translate(-0.406956163599855, 9.036198477826018e-2) scale(5.0e-2)"/></g></g><g stroke-opacity="1.0" fill="#a6cfe3" stroke="#0d0d0d" stroke-width="5.0e-2" fill-opacity="1.0"><g transform="rotate(-33.99914492987854, -0.406956163599855, 7.354860521384565e-3)"><path d="M -1 0 L 1 0 M 1 0 L 0.4 0.3 M 1 0 L 0.4 -0.3" transform="translate(-0.406956163599855, 7.354860521384565e-3) scale(5.0e-2)"/></g></g><g stroke-opacity="1.0" fill="#a6cfe3" stroke="#0d0d0d" stroke-width="5.0e-2" fill-opacity="1.0"><g transform="rotate(-21.321176713227626, -0.406956163599855, -7.565226373549105e-2)"><path d="M -1 0 L 1 0 M 1 0 L 0.4 0.3 M 1 0 L 0.4 -0.3" transform="translate(-0.406956163599855, -7.565226373549105e-2) scale(5.0e-2)"/></g></g><g stroke-opacity="1.0" fill="#a6cfe3" stroke="#0d0d0d" stroke-width="5.0e-2" fill-opacity="1.0"><g transform="rotate(13.364611169993305, -0.406956163599855, -0.15865938799236667)"><path d="M -1 0 L 1 0 M 1 0 L 0.4 0.3 M 1 0 L 0.4 -0.3" transform="translate(-0.406956163599855, -0.15865938799236667) scale(5.0e-2)"/></g></g><g stroke-opacity="1.0" fill="#a6cfe3" stroke="#0d0d0d" stroke-width="5.0e-2" fill-opacity="1.0"><g transform="rotate(70.26081916410517, -0.406956163599855, -0.24166651224924218)"><path d="M -1 0 L 1 0 M 1 0 L 0.4 0.3 M 1 0 L 0.4 -0.3" transform="translate(-0.406956163599855, -0.24166651224924218) scale(5.0e-2)"/></g></g><g stroke-opacity="1.0" fill="#a6cfe3" stroke="#0d0d0d" stroke-width="5.0e-2" fill-opacity="1.0"><g transform="rotate(96.08437785000453, -0.406956163599855, -0.3246736365061179)"><path d="M -1 0 L 1 0 M 1 0 L 0.4 0.3 M 1 0 L 0.4 -0.3" transform="translate(-0.406956163599855, -0.3246736365061179) scale(5.0e-2)"/></g></g><g stroke-opacity="1.0" fill="#a6cfe3" stroke="#0d0d0d" stroke-width="5.0e-2" fill-opacity="1.0"><g transform="rotate(106.05509143504601, -0.406956163599855, -0.4076807607629934)"><path d="M -1 0 L 1 0 M 1 0 L 0.4 0.3 M 1 0 L 0.4 -0.3" transform="translate(-0.406956163599855, -0.4076807607629934) scale(5.0e-2)"/></g></g><g stroke-opacity="1.0" fill="#a6cfe3" stroke="#0d0d0d" stroke-width="5.0e-2" fill-opacity="1.0"><g transform="rotate(-53.3543508353797, -0.2753532502918814, 0.339383357548887)"><path d="M -1 0 L 1 0 M 1 0 L 0.4 0.3 M 1 0 L 0.4 -0.3" transform="translate(-0.2753532502918814, 0.339383357548887) scale(5.0e-2)"/></g></g><g stroke-opacity="1.0" fill="#a6cfe3" stroke="#0d0d0d" stroke-width="5.0e-2" fill-opacity="1.0"><g transform="rotate(-51.23448009554123, -0.2753532502918814, 0.2563762332920114)"><path d="M -1 0 L 1 0 M 1 0 L 0.4 0.3 M 1 0 L 0.4 -0.3" transform="translate(-0.2753532502918814, 0.2563762332920114) scale(5.0e-2)"/></g></g><g stroke-opacity="1.0" fill="#a6cfe3" stroke="#0d0d0d" stroke-width="5.0e-2" fill-opacity="1.0"><g transform="rotate(-48.012787504183336, -0.2753532502918814, 0.1733691090351358)"><path d="M -1 0 L 1 0 M 1 0 L 0.4 0.3 M 1 0 L 0.4 -0.3" transform="translate(-0.2753532502918814, 0.1733691090351358) scale(5.0e-2)"/></g></g><g stroke-opacity="1.0" fill="#a6cfe3" stroke="#0d0d0d" stroke-width="5.0e-2" fill-opacity="1.0"><g transform="rotate(-42.58049078334366, -0.2753532502918814, 9.036198477826018e-2)"><path d="M -1 0 L 1 0 M 1 0 L 0.4 0.3 M 1 0 L 0.4 -0.3" transform="translate(-0.2753532502918814, 9.036198477826018e-2) scale(5.0e-2)"/></g></g><g stroke-opacity="1.0" fill="#a6cfe3" stroke="#0d0d0d" stroke-width="5.0e-2" fill-opacity="1.0"><g transform="rotate(-31.827446576673104, -0.2753532502918814, 7.354860521384565e-3)"><path d="M -1 0 L 1 0 M 1 0 L 0.4 0.3 M 1 0 L 0.4 -0.3" transform="translate(-0.2753532502918814, 7.354860521384565e-3) scale(5.0e-2)"/></g></g><g stroke-opacity="1.0" fill="#a6cfe3" stroke="#0d0d0d" stroke-width="5.0e-2" fill-opacity="1.0"><g transform="rotate(-5.440332031005506, -0.2753532502918814, -7.565226373549105e-2)"><path d="M -1 0 L 1 0 M 1 0 L 0.4 0.3 M 1 0 L 0.4 -0.3" transform="translate(-0.2753532502918814, -7.565226373549105e-2) scale(5.0e-2)"/></g></g><g stroke-opacity="1.0" fill="#a6cfe3" stroke="#0d0d0d" stroke-width="5.0e-2" fill-opacity="1.0"><g transform="rotate(47.1210963966615, -0.2753532502918814, -0.15865938799236667)"><path d="M -1 0 L 1 0 M 1 0 L 0.4 0.3 M 1 0 L 0.4 -0.3" transform="translate(-0.2753532502918814, -0.15865938799236667) scale(5.0e-2)"/></g></g><g stroke-opacity="1.0" fill="#a6cfe3" stroke="#0d0d0d" stroke-width="5.0e-2" fill-opacity="1.0"><g transform="rotate(80.53767779197439, -0.2753532502918814, -0.24166651224924218)"><path d="M -1 0 L 1 0 M 1 0 L 0.4 0.3 M 1 0 L 0.4 -0.3" transform="translate(-0.2753532502918814, -0.24166651224924218) scale(5.0e-2)"/></g></g><g stroke-opacity="1.0" fill="#a6cfe3" stroke="#0d0d0d" stroke-width="5.0e-2" fill-opacity="1.0"><g transform="rotate(93.73139699916044, -0.2753532502918814, -0.3246736365061179)"><path d="M -1 0 L 1 0 M 1 0 L 0.4 0.3 M 1 0 L 0.4 -0.3" transform="translate(-0.2753532502918814, -0.3246736365061179) scale(5.0e-2)"/></g></g><g stroke-opacity="1.0" fill="#a6cfe3" stroke="#0d0d0d" stroke-width="5.0e-2" fill-opacity="1.0"><g transform="rotate(100.06068979532297, -0.2753532502918814, -0.4076807607629934)"><path d="M -1 0 L 1 0 M 1 0 L 0.4 0.3 M 1 0 L 0.4 -0.3" transform="translate(-0.2753532502918814, -0.4076807607629934) scale(5.0e-2)"/></g></g><g stroke-opacity="1.0" fill="#a6cfe3" stroke="#0d0d0d" stroke-width="5.0e-2" fill-opacity="1.0"><g transform="rotate(-61.48095159956936, -0.1437503369839077, 0.339383357548887)"><path d="M -1 0 L 1 0 M 1 0 L 0.4 0.3 M 1 0 L 0.4 -0.3" transform="translate(-0.1437503369839077, 0.339383357548887) scale(5.0e-2)"/></g></g><g stroke-opacity="1.0" fill="#a6cfe3" stroke="#0d0d0d" stroke-width="5.0e-2" fill-opacity="1.0"><g transform="rotate(-58.67008724249424, -0.1437503369839077, 0.2563762332920114)"><path d="M -1 0 L 1 0 M 1 0 L 0.4 0.3 M 1 0 L 0.4 -0.3" transform="translate(-0.1437503369839077, 0.2563762332920114) scale(5.0e-2)"/></g></g><g stroke-opacity="1.0" fill="#a6cfe3" stroke="#0d0d0d" stroke-width="5.0e-2" fill-opacity="1.0"><g transform="rotate(-54.17002461487118, -0.1437503369839077, 0.1733691090351358)"><path d="M -1 0 L 1 0 M 1 0 L 0.4 0.3 M 1 0 L 0.4 -0.3" transform="translate(-0.1437503369839077, 0.1733691090351358) scale(5.0e-2)"/></g></g><g stroke-opacity="1.0" fill="#a6cfe3" stroke="#0d0d0d" stroke-width="5.0e-2" fill-opacity="1.0"><g transform="rotate(-45.97102193107917, -0.1437503369839077, 9.036198477826018e-2)"><path d="M -1 0 L 1 0 M 1 0 L 0.4 0.3 M 1 0 L 0.4 -0.3" transform="translate(-0.1437503369839077, 9.036198477826018e-2) scale(5.0e-2)"/></g></g><g stroke-opacity="1.0" fill="#a6cfe3" stroke="#0d0d0d" stroke-width="5.0e-2" fill-opacity="1.0"><g transform="rotate(-27.930948956080037, -0.1437503369839077, 7.354860521384565e-3)"><path d="M -1 0 L 1 0 M 1 0 L 0.4 0.3 M 1 0 L 0.4 -0.3" transform="translate(-0.1437503369839077, 7.354860521384565e-3) scale(5.0e-2)"/></g></g><g stroke-opacity="1.0" fill="#a6cfe3" stroke="#0d0d0d" stroke-width="5.0e-2" fill-opacity="1.0"><g transform="rotate(14.445942279113961, -0.1437503369839077, -7.565226373549105e-2)"><path d="M -1 0 L 1 0 M 1 0 L 0.4 0.3 M 1 0 L 0.4 -0.3" transform="translate(-0.1437503369839077, -7.565226373549105e-2) scale(5.0e-2)"/></g></g><g stroke-opacity="1.0" fill="#a6cfe3" stroke="#0d0d0d" stroke-width="5.0e-2" fill-opacity="1.0"><g transform="rotate(58.95370855020484, -0.1437503369839077, -0.15865938799236667)"><path d="M -1 0 L 1 0 M 1 0 L 0.4 0.3 M 1 0 L 0.4 -0.3" transform="translate(-0.1437503369839077, -0.15865938799236667) scale(5.0e-2)"/></g></g><g stroke-opacity="1.0" fill="#a6cfe3" stroke="#0d0d0d" stroke-width="5.0e-2" fill-opacity="1.0"><g transform="rotate(78.38768602098031, -0.1437503369839077, -0.24166651224924218)"><path d="M -1 0 L 1 0 M 1 0 L 0.4 0.3 M 1 0 L 0.4 -0.3" transform="translate(-0.1437503369839077, -0.24166651224924218) scale(5.0e-2)"/></g></g><g stroke-opacity="1.0" fill="#a6cfe3" stroke="#0d0d0d" stroke-width="5.0e-2" fill-opacity="1.0"><g transform="rotate(87.0721562906961, -0.1437503369839077, -0.3246736365061179)"><path d="M -1 0 L 1 0 M 1 0 L 0.4 0.3 M 1 0 L 0.4 -0.3" transform="translate(-0.1437503369839077, -0.3246736365061179) scale(5.0e-2)"/></g></g><g stroke-opacity="1.0" fill="#a6cfe3" stroke="#0d0d0d" stroke-width="5.0e-2" fill-opacity="1.0"><g transform="rotate(91.775265785145, -0.1437503369839077, -0.4076807607629934)"><path d="M -1 0 L 1 0 M 1 0 L 0.4 0.3 M 1 0 L 0.4 -0.3" transform="translate(-0.1437503369839077, -0.4076807607629934) scale(5.0e-2)"/></g></g><g stroke-opacity="1.0" fill="#a6cfe3" stroke="#0d0d0d" stroke-width="5.0e-2" fill-opacity="1.0"><g transform="rotate(-71.63155263230772, -1.2147423675934133e-2, 0.339383357548887)"><path d="M -1 0 L 1 0 M 1 0 L 0.4 0.3 M 1 0 L 0.4 -0.3" transform="translate(-1.2147423675934133e-2, 0.339383357548887) scale(5.0e-2)"/></g></g><g stroke-opacity="1.0" fill="#a6cfe3" stroke="#0d0d0d" stroke-width="5.0e-2" fill-opacity="1.0"><g transform="rotate(-68.30375886013567, -1.2147423675934133e-2, 0.2563762332920114)"><path d="M -1 0 L 1 0 M 1 0 L 0.4 0.3 M 1 0 L 0.4 -0.3" transform="translate(-1.2147423675934133e-2, 0.2563762332920114) scale(5.0e-2)"/></g></g><g stroke-opacity="1.0" fill="#a6cfe3" stroke="#0d0d0d" stroke-width="5.0e-2" fill-opacity="1.0"><g transform="rotate(-62.713434447769245, -1.2147423675934133e-2, 0.1733691090351358)"><path d="M -1 0 L 1 0 M 1 0 L 0.4 0.3 M 1 0 L 0.4 -0.3" transform="translate(-1.2147423675934133e-2, 0.1733691090351358) scale(5.0e-2)"/></g></g><g stroke-opacity="1.0" fill="#a6cfe3" stroke="#0d0d0d" stroke-width="5.0e-2" fill-opacity="1.0"><g transform="rotate(-51.74335201662478, -1.2147423675934133e-2, 9.036198477826018e-2)"><path d="M -1 0 L 1 0 M 1 0 L 0.4 0.3 M 1 0 L 0.4 -0.3" transform="translate(-1.2147423675934133e-2, 9.036198477826018e-2) scale(5.0e-2)"/></g></g><g stroke-opacity="1.0" fill="#a6cfe3" stroke="#0d0d0d" stroke-width="5.0e-2" fill-opacity="1.0"><g transform="rotate(-25.463345061871607, -1.2147423675934133e-2, 7.354860521384565e-3)"><path d="M -1 0 L 1 0 M 1 0 L 0.4 0.3 M 1 0 L 0.4 -0.3" transform="translate(-1.2147423675934133e-2, 7.354860521384565e-3) scale(5.0e-2)"/></g></g><g stroke-opacity="1.0" fill="#a6cfe3" stroke="#0d0d0d" stroke-width="5.0e-2" fill-opacity="1.0"><g transform="rotate(25.352317626939044, -1.2147423675934133e-2, -7.565226373549105e-2)"><path d="M -1 0 L 1 0 M 1 0 L 0.4 0.3 M 1 0 L 0.4 -0.3" transform="translate(-1.2147423675934133e-2, -7.565226373549105e-2) scale(5.0e-2)"/></g></g><g stroke-opacity="1.0" fill="#a6cfe3" stroke="#0d0d0d" stroke-width="5.0e-2" fill-opacity="1.0"><g transform="rotate(58.539020075643705, -1.2147423675934133e-2, -0.15865938799236667)"><path d="M -1 0 L 1 0 M 1 0 L 0.4 0.3 M 1 0 L 0.4 -0.3" transform="translate(-1.2147423675934133e-2, -0.15865938799236667) scale(5.0e-2)"/></g></g><g stroke-opacity="1.0" fill="#a6cfe3" stroke="#0d0d0d" stroke-width="5.0e-2" fill-opacity="1.0"><g transform="rotate(72.03510627877053, -1.2147423675934133e-2, -0.24166651224924218)"><path d="M -1 0 L 1 0 M 1 0 L 0.4 0.3 M 1 0 L 0.4 -0.3" transform="translate(-1.2147423675934133e-2, -0.24166651224924218) scale(5.0e-2)"/></g></g><g stroke-opacity="1.0" fill="#a6cfe3" stroke="#0d0d0d" stroke-width="5.0e-2" fill-opacity="1.0"><g transform="rotate(78.57121322367863, -1.2147423675934133e-2, -0.3246736365061179)"><path d="M -1 0 L 1 0 M 1 0 L 0.4 0.3 M 1 0 L 0.4 -0.3" transform="translate(-1.2147423675934133e-2, -0.3246736365061179) scale(5.0e-2)"/></g></g><g stroke-opacity="1.0" fill="#a6cfe3" stroke="#0d0d0d" stroke-width="5.0e-2" fill-opacity="1.0"><g transform="rotate(82.33198654554482, -1.2147423675934133e-2, -0.4076807607629934)"><path d="M -1 0 L 1 0 M 1 0 L 0.4 0.3 M 1 0 L 0.4 -0.3" transform="translate(-1.2147423675934133e-2, -0.4076807607629934) scale(5.0e-2)"/></g></g><g stroke-opacity="1.0" fill="#a6cfe3" stroke="#0d0d0d" stroke-width="5.0e-2" fill-opacity="1.0"><g transform="rotate(-83.72582919707884, 0.11945548963203945, 0.339383357548887)"><path d="M -1 0 L 1 0 M 1 0 L 0.4 0.3 M 1 0 L 0.4 -0.3" transform="translate(0.11945548963203945, 0.339383357548887) scale(5.0e-2)"/></g></g><g stroke-opacity="1.0" fill="#a6cfe3" stroke="#0d0d0d" stroke-width="5.0e-2" fill-opacity="1.0"><g transform="rotate(-80.37960270065743, 0.11945548963203945, 0.2563762332920114)"><path d="M -1 0 L 1 0 M 1 0 L 0.4 0.3 M 1 0 L 0.4 -0.3" transform="translate(0.11945548963203945, 0.2563762332920114) scale(5.0e-2)"/></g></g><g stroke-opacity="1.0" fill="#a6cfe3" stroke="#0d0d0d" stroke-width="5.0e-2" fill-opacity="1.0"><g transform="rotate(-74.55784459620769, 0.11945548963203945, 0.1733691090351358)"><path d="M -1 0 L 1 0 M 1 0 L 0.4 0.3 M 1 0 L 0.4 -0.3" transform="translate(0.11945548963203945, 0.1733691090351358) scale(5.0e-2)"/></g></g><g stroke-opacity="1.0" fill="#a6cfe3" stroke="#0d0d0d" stroke-width="5.0e-2" fill-opacity="1.0"><g transform="rotate(-62.392645475723924, 0.11945548963203945, 9.036198477826018e-2)"><path d="M -1 0 L 1 0 M 1 0 L 0.4 0.3 M 1 0 L 0.4 -0.3" transform="translate(0.11945548963203945, 9.036198477826018e-2) scale(5.0e-2)"/></g></g><g stroke-opacity="1.0" fill="#a6cfe3" stroke="#0d0d0d" stroke-width="5.0e-2" fill-opacity="1.0"><g transform="rotate(-30.325850500388558, 0.11945548963203945, 7.354860521384565e-3)"><path d="M -1 0 L 1 0 M 1 0 L 0.4 0.3 M 1 0 L 0.4 -0.3" transform="translate(0.11945548963203945, 7.354860521384565e-3) scale(5.0e-2)"/></g></g><g stroke-opacity="1.0" fill="#a6cfe3" stroke="#0d0d0d" stroke-width="5.0e-2" fill-opacity="1.0"><g transform="rotate(25.463345061871614, 0.11945548963203945, -7.565226373549105e-2)"><path d="M -1 0 L 1 0 M 1 0 L 0.4 0.3 M 1 0 L 0.4 -0.3" transform="translate(0.11945548963203945, -7.565226373549105e-2) scale(5.0e-2)"/></g></g><g stroke-opacity="1.0" fill="#a6cfe3" stroke="#0d0d0d" stroke-width="5.0e-2" fill-opacity="1.0"><g transform="rotate(53.34825221466397, 0.11945548963203945, -0.15865938799236667)"><path d="M -1 0 L 1 0 M 1 0 L 0.4 0.3 M 1 0 L 0.4 -0.3" transform="translate(0.11945548963203945, -0.15865938799236667) scale(5.0e-2)"/></g></g><g stroke-opacity="1.0" fill="#a6cfe3" stroke="#0d0d0d" stroke-width="5.0e-2" fill-opacity="1.0"><g transform="rotate(64.18052078566551, 0.11945548963203945, -0.24166651224924218)"><path d="M -1 0 L 1 0 M 1 0 L 0.4 0.3 M 1 0 L 0.4 -0.3" transform="translate(0.11945548963203945, -0.24166651224924218) scale(5.0e-2)"/></g></g><g stroke-opacity="1.0" fill="#a6cfe3" stroke="#0d0d0d" stroke-width="5.0e-2" fill-opacity="1.0"><g transform="rotate(69.52530867630297, 0.11945548963203945, -0.3246736365061179)"><path d="M -1 0 L 1 0 M 1 0 L 0.4 0.3 M 1 0 L 0.4 -0.3" transform="translate(0.11945548963203945, -0.3246736365061179) scale(5.0e-2)"/></g></g><g stroke-opacity="1.0" fill="#a6cfe3" stroke="#0d0d0d" stroke-width="5.0e-2" fill-opacity="1.0"><g transform="rotate(72.65691141186667, 0.11945548963203945, -0.4076807607629934)"><path d="M -1 0 L 1 0 M 1 0 L 0.4 0.3 M 1 0 L 0.4 -0.3" transform="translate(0.11945548963203945, -0.4076807607629934) scale(5.0e-2)"/></g></g><g stroke-opacity="1.0" fill="#a6cfe3" stroke="#0d0d0d" stroke-width="5.0e-2" fill-opacity="1.0"><g transform="rotate(-96.84875031477206, 0.25105840294001314, 0.339383357548887)"><path d="M -1 0 L 1 0 M 1 0 L 0.4 0.3 M 1 0 L 0.4 -0.3" transform="translate(0.25105840294001314, 0.339383357548887) scale(5.0e-2)"/></g></g><g stroke-opacity="1.0" fill="#a6cfe3" stroke="#0d0d0d" stroke-width="5.0e-2" fill-opacity="1.0"><g transform="rotate(-94.10747809603637, 0.25105840294001314, 0.2563762332920114)"><path d="M -1 0 L 1 0 M 1 0 L 0.4 0.3 M 1 0 L 0.4 -0.3" transform="translate(0.25105840294001314, 0.2563762332920114) scale(5.0e-2)"/></g></g><g stroke-opacity="1.0" fill="#a6cfe3" stroke="#0d0d0d" stroke-width="5.0e-2" fill-opacity="1.0"><g transform="rotate(-89.31668823842175, 0.25105840294001314, 0.1733691090351358)"><path d="M -1 0 L 1 0 M 1 0 L 0.4 0.3 M 1 0 L 0.4 -0.3" transform="translate(0.25105840294001314, 0.1733691090351358) scale(5.0e-2)"/></g></g><g stroke-opacity="1.0" fill="#a6cfe3" stroke="#0d0d0d" stroke-width="5.0e-2" fill-opacity="1.0"><g transform="rotate(-79.0898362236076, 0.25105840294001314, 9.036198477826018e-2)"><path d="M -1 0 L 1 0 M 1 0 L 0.4 0.3 M 1 0 L 0.4 -0.3" transform="translate(0.25105840294001314, 9.036198477826018e-2) scale(5.0e-2)"/></g></g><g stroke-opacity="1.0" fill="#a6cfe3" stroke="#0d0d0d" stroke-width="5.0e-2" fill-opacity="1.0"><g transform="rotate(-48.89810671661513, 0.25105840294001314, 7.354860521384565e-3)"><path d="M -1 0 L 1 0 M 1 0 L 0.4 0.3 M 1 0 L 0.4 -0.3" transform="translate(0.25105840294001314, 7.354860521384565e-3) scale(5.0e-2)"/></g></g><g stroke-opacity="1.0" fill="#a6cfe3" stroke="#0d0d0d" stroke-width="5.0e-2" fill-opacity="1.0"><g transform="rotate(16.431113233075703, 0.25105840294001314, -7.565226373549105e-2)"><path d="M -1 0 L 1 0 M 1 0 L 0.4 0.3 M 1 0 L 0.4 -0.3" transform="translate(0.25105840294001314, -7.565226373549105e-2) scale(5.0e-2)"/></g></g><g stroke-opacity="1.0" fill="#a6cfe3" stroke="#0d0d0d" stroke-width="5.0e-2" fill-opacity="1.0"><g transform="rotate(45.97102193107918, 0.25105840294001314, -0.15865938799236667)"><path d="M -1 0 L 1 0 M 1 0 L 0.4 0.3 M 1 0 L 0.4 -0.3" transform="translate(0.25105840294001314, -0.15865938799236667) scale(5.0e-2)"/></g></g><g stroke-opacity="1.0" fill="#a6cfe3" stroke="#0d0d0d" stroke-width="5.0e-2" fill-opacity="1.0"><g transform="rotate(56.03475263569897, 0.25105840294001314, -0.24166651224924218)"><path d="M -1 0 L 1 0 M 1 0 L 0.4 0.3 M 1 0 L 0.4 -0.3" transform="translate(0.25105840294001314, -0.24166651224924218) scale(5.0e-2)"/></g></g><g stroke-opacity="1.0" fill="#a6cfe3" stroke="#0d0d0d" stroke-width="5.0e-2" fill-opacity="1.0"><g transform="rotate(60.77115498628979, 0.25105840294001314, -0.3246736365061179)"><path d="M -1 0 L 1 0 M 1 0 L 0.4 0.3 M 1 0 L 0.4 -0.3" transform="translate(0.25105840294001314, -0.3246736365061179) scale(5.0e-2)"/></g></g><g stroke-opacity="1.0" fill="#a6cfe3" stroke="#0d0d0d" stroke-width="5.0e-2" fill-opacity="1.0"><g transform="rotate(63.48858398583044, 0.25105840294001314, -0.4076807607629934)"><path d="M -1 0 L 1 0 M 1 0 L 0.4 0.3 M 1 0 L 0.4 -0.3" transform="translate(0.25105840294001314, -0.4076807607629934) scale(5.0e-2)"/></g></g><g stroke-opacity="1.0" fill="#a6cfe3" stroke="#0d0d0d" stroke-width="5.0e-2" fill-opacity="1.0"><g transform="rotate(-109.476575498932, 0.3826613162479866, 0.339383357548887)"><path d="M -1 0 L 1 0 M 1 0 L 0.4 0.3 M 1 0 L 0.4 -0.3" transform="translate(0.3826613162479866, 0.339383357548887) scale(5.0e-2)"/></g></g><g stroke-opacity="1.0" fill="#a6cfe3" stroke="#0d0d0d" stroke-width="5.0e-2" fill-opacity="1.0"><g transform="rotate(-107.65012421993012, 0.3826613162479866, 0.2563762332920114)"><path d="M -1 0 L 1 0 M 1 0 L 0.4 0.3 M 1 0 L 0.4 -0.3" transform="translate(0.3826613162479866, 0.2563762332920114) scale(5.0e-2)"/></g></g><g stroke-opacity="1.0" fill="#a6cfe3" stroke="#0d0d0d" stroke-width="5.0e-2" fill-opacity="1.0"><g transform="rotate(-104.57421619803874, 0.3826613162479866, 0.1733691090351358)"><path d="M -1 0 L 1 0 M 1 0 L 0.4 0.3 M 1 0 L 0.4 -0.3" transform="translate(0.3826613162479866, 0.1733691090351358) scale(5.0e-2)"/></g></g><g stroke-opacity="1.0" fill="#a6cfe3" stroke="#0d0d0d" stroke-width="5.0e-2" fill-opacity="1.0"><g transform="rotate(-98.3658861240326, 0.3826613162479866, 9.036198477826018e-2)"><path d="M -1 0 L 1 0 M 1 0 L 0.4 0.3 M 1 0 L 0.4 -0.3" transform="translate(0.3826613162479866, 9.036198477826018e-2) scale(5.0e-2)"/></g></g><g stroke-opacity="1.0" fill="#a6cfe3" stroke="#0d0d0d" stroke-width="5.0e-2" fill-opacity="1.0"><g transform="rotate(-80.5376777919744, 0.3826613162479866, 7.354860521384565e-3)"><path d="M -1 0 L 1 0 M 1 0 L 0.4 0.3 M 1 0 L 0.4 -0.3" transform="translate(0.3826613162479866, 7.354860521384565e-3) scale(5.0e-2)"/></g></g><g stroke-opacity="1.0" fill="#a6cfe3" stroke="#0d0d0d" stroke-width="5.0e-2" fill-opacity="1.0"><g transform="rotate(-10.304846468766057, 0.3826613162479866, -7.565226373549105e-2)"><path d="M -1 0 L 1 0 M 1 0 L 0.4 0.3 M 1 0 L 0.4 -0.3" transform="translate(0.3826613162479866, -7.565226373549105e-2) scale(5.0e-2)"/></g></g><g stroke-opacity="1.0" fill="#a6cfe3" stroke="#0d0d0d" stroke-width="5.0e-2" fill-opacity="1.0"><g transform="rotate(36.3843518158359, 0.3826613162479866, -0.15865938799236667)"><path d="M -1 0 L 1 0 M 1 0 L 0.4 0.3 M 1 0 L 0.4 -0.3" transform="translate(0.3826613162479866, -0.15865938799236667) scale(5.0e-2)"/></g></g><g stroke-opacity="1.0" fill="#a6cfe3" stroke="#0d0d0d" stroke-width="5.0e-2" fill-opacity="1.0"><g transform="rotate(48.012787504183336, 0.3826613162479866, -0.24166651224924218)"><path d="M -1 0 L 1 0 M 1 0 L 0.4 0.3 M 1 0 L 0.4 -0.3" transform="translate(0.3826613162479866, -0.24166651224924218) scale(5.0e-2)"/></g></g><g stroke-opacity="1.0" fill="#a6cfe3" stroke="#0d0d0d" stroke-width="5.0e-2" fill-opacity="1.0"><g transform="rotate(52.73359809902285, 0.3826613162479866, -0.3246736365061179)"><path d="M -1 0 L 1 0 M 1 0 L 0.4 0.3 M 1 0 L 0.4 -0.3" transform="translate(0.3826613162479866, -0.3246736365061179) scale(5.0e-2)"/></g></g><g stroke-opacity="1.0" fill="#a6cfe3" stroke="#0d0d0d" stroke-width="5.0e-2" fill-opacity="1.0"><g transform="rotate(55.2568198416964, 0.3826613162479866, -0.4076807607629934)"><path d="M -1 0 L 1 0 M 1 0 L 0.4 0.3 M 1 0 L 0.4 -0.3" transform="translate(0.3826613162479866, -0.4076807607629934) scale(5.0e-2)"/></g></g><g stroke-opacity="1.0" fill="#a6cfe3" stroke="#0d0d0d" stroke-width="5.0e-2" fill-opacity="1.0"><g transform="rotate(-120.39004059367852, 0.5142642295559603, 0.339383357548887)"><path d="M -1 0 L 1 0 M 1 0 L 0.4 0.3 M 1 0 L 0.4 -0.3" transform="translate(0.5142642295559603, 0.339383357548887) scale(5.0e-2)"/></g></g><g stroke-opacity="1.0" fill="#a6cfe3" stroke="#0d0d0d" stroke-width="5.0e-2" fill-opacity="1.0"><g transform="rotate(-119.3548748641938, 0.5142642295559603, 0.2563762332920114)"><path d="M -1 0 L 1 0 M 1 0 L 0.4 0.3 M 1 0 L 0.4 -0.3" transform="translate(0.5142642295559603, 0.2563762332920114) scale(5.0e-2)"/></g></g><g stroke-opacity="1.0" fill="#a6cfe3" stroke="#0d0d0d" stroke-width="5.0e-2" fill-opacity="1.0"><g transform="rotate(-117.72207677286721, 0.5142642295559603, 0.1733691090351358)"><path d="M -1 0 L 1 0 M 1 0 L 0.4 0.3 M 1 0 L 0.4 -0.3" transform="translate(0.5142642295559603, 0.1733691090351358) scale(5.0e-2)"/></g></g><g stroke-opacity="1.0" fill="#a6cfe3" stroke="#0d0d0d" stroke-width="5.0e-2" fill-opacity="1.0"><g transform="rotate(-114.77180709318333, 0.5142642295559603, 9.036198477826018e-2)"><path d="M -1 0 L 1 0 M 1 0 L 0.4 0.3 M 1 0 L 0.4 -0.3" transform="translate(0.5142642295559603, 9.036198477826018e-2) scale(5.0e-2)"/></g></g><g stroke-opacity="1.0" fill="#a6cfe3" stroke="#0d0d0d" stroke-width="5.0e-2" fill-opacity="1.0"><g transform="rotate(-107.91023110297346, 0.5142642295559603, 7.354860521384565e-3)"><path d="M -1 0 L 1 0 M 1 0 L 0.4 0.3 M 1 0 L 0.4 -0.3" transform="translate(0.5142642295559603, 7.354860521384565e-3) scale(5.0e-2)"/></g></g><g stroke-opacity="1.0" fill="#a6cfe3" stroke="#0d0d0d" stroke-width="5.0e-2" fill-opacity="1.0"><g transform="rotate(-78.88016563239884, 0.5142642295559603, -7.565226373549105e-2)"><path d="M -1 0 L 1 0 M 1 0 L 0.4 0.3 M 1 0 L 0.4 -0.3" transform="translate(0.5142642295559603, -7.565226373549105e-2) scale(5.0e-2)"/></g></g><g stroke-opacity="1.0" fill="#a6cfe3" stroke="#0d0d0d" stroke-width="5.0e-2" fill-opacity="1.0"><g transform="rotate(18.07717429682483, 0.5142642295559603, -0.15865938799236667)"><path d="M -1 0 L 1 0 M 1 0 L 0.4 0.3 M 1 0 L 0.4 -0.3" transform="translate(0.5142642295559603, -0.15865938799236667) scale(5.0e-2)"/></g></g><g stroke-opacity="1.0" fill="#a6cfe3" stroke="#0d0d0d" stroke-width="5.0e-2" fill-opacity="1.0"><g transform="rotate(39.57646251047537, 0.5142642295559603, -0.24166651224924218)"><path d="M -1 0 L 1 0 M 1 0 L 0.4 0.3 M 1 0 L 0.4 -0.3" transform="translate(0.5142642295559603, -0.24166651224924218) scale(5.0e-2)"/></g></g><g stroke-opacity="1.0" fill="#a6cfe3" stroke="#0d0d0d" stroke-width="5.0e-2" fill-opacity="1.0"><g transform="rotate(45.412192741402315, 0.5142642295559603, -0.3246736365061179)"><path d="M -1 0 L 1 0 M 1 0 L 0.4 0.3 M 1 0 L 0.4 -0.3" transform="translate(0.5142642295559603, -0.3246736365061179) scale(5.0e-2)"/></g></g><g stroke-opacity="1.0" fill="#a6cfe3" stroke="#0d0d0d" stroke-width="5.0e-2" fill-opacity="1.0"><g transform="rotate(48.061152646549644, 0.5142642295559603, -0.4076807607629934)"><path d="M -1 0 L 1 0 M 1 0 L 0.4 0.3 M 1 0 L 0.4 -0.3" transform="translate(0.5142642295559603, -0.4076807607629934) scale(5.0e-2)"/></g></g><g stroke-opacity="1.0" fill="#a6cfe3" stroke="#0d0d0d" stroke-width="5.0e-2" fill-opacity="1.0"><g transform="rotate(-129.20442853819998, 0.6458671428639338, 0.339383357548887)"><path d="M -1 0 L 1 0 M 1 0 L 0.4 0.3 M 1 0 L 0.4 -0.3" transform="translate(0.6458671428639338, 0.339383357548887) scale(5.0e-2)"/></g></g><g stroke-opacity="1.0" fill="#a6cfe3" stroke="#0d0d0d" stroke-width="5.0e-2" fill-opacity="1.0"><g transform="rotate(-128.6756131139764, 0.6458671428639338, 0.2563762332920114)"><path d="M -1 0 L 1 0 M 1 0 L 0.4 0.3 M 1 0 L 0.4 -0.3" transform="translate(0.6458671428639338, 0.2563762332920114) scale(5.0e-2)"/></g></g><g stroke-opacity="1.0" fill="#a6cfe3" stroke="#0d0d0d" stroke-width="5.0e-2" fill-opacity="1.0"><g transform="rotate(-127.8990823601365, 0.6458671428639338, 0.1733691090351358)"><path d="M -1 0 L 1 0 M 1 0 L 0.4 0.3 M 1 0 L 0.4 -0.3" transform="translate(0.6458671428639338, 0.1733691090351358) scale(5.0e-2)"/></g></g><g stroke-opacity="1.0" fill="#a6cfe3" stroke="#0d0d0d" stroke-width="5.0e-2" fill-opacity="1.0"><g transform="rotate(-126.64820118726841, 0.6458671428639338, 9.036198477826018e-2)"><path d="M -1 0 L 1 0 M 1 0 L 0.4 0.3 M 1 0 L 0.4 -0.3" transform="translate(0.6458671428639338, 9.036198477826018e-2) scale(5.0e-2)"/></g></g><g stroke-opacity="1.0" fill="#a6cfe3" stroke="#0d0d0d" stroke-width="5.0e-2" fill-opacity="1.0"><g transform="rotate(-124.30095672615316, 0.6458671428639338, 7.354860521384565e-3)"><path d="M -1 0 L 1 0 M 1 0 L 0.4 0.3 M 1 0 L 0.4 -0.3" transform="translate(0.6458671428639338, 7.354860521384565e-3) scale(5.0e-2)"/></g></g><g stroke-opacity="1.0" fill="#a6cfe3" stroke="#0d0d0d" stroke-width="5.0e-2" fill-opacity="1.0"><g transform="rotate(-118.3399495893263, 0.6458671428639338, -7.565226373549105e-2)"><path d="M -1 0 L 1 0 M 1 0 L 0.4 0.3 M 1 0 L 0.4 -0.3" transform="translate(0.6458671428639338, -7.565226373549105e-2) scale(5.0e-2)"/></g></g><g stroke-opacity="1.0" fill="#a6cfe3" stroke="#0d0d0d" stroke-width="5.0e-2" fill-opacity="1.0"><g transform="rotate(-81.6026974133102, 0.6458671428639338, -0.15865938799236667)"><path d="M -1 0 L 1 0 M 1 0 L 0.4 0.3 M 1 0 L 0.4 -0.3" transform="translate(0.6458671428639338, -0.15865938799236667) scale(5.0e-2)"/></g></g><g stroke-opacity="1.0" fill="#a6cfe3" stroke="#0d0d0d" stroke-width="5.0e-2" fill-opacity="1.0"><g transform="rotate(25.916669828467207, 0.6458671428639338, -0.24166651224924218)"><path d="M -1 0 L 1 0 M 1 0 L 0.4 0.3 M 1 0 L 0.4 -0.3" transform="translate(0.6458671428639338, -0.24166651224924218) scale(5.0e-2)"/></g></g><g stroke-opacity="1.0" fill="#a6cfe3" stroke="#0d0d0d" stroke-width="5.0e-2" fill-opacity="1.0"><g transform="rotate(38.15385704023621, 0.6458671428639338, -0.3246736365061179)"><path d="M -1 0 L 1 0 M 1 0 L 0.4 0.3 M 1 0 L 0.4 -0.3" transform="translate(0.6458671428639338, -0.3246736365061179) scale(5.0e-2)"/></g></g><g stroke-opacity="1.0" fill="#a6cfe3" stroke="#0d0d0d" stroke-width="5.0e-2" fill-opacity="1.0"><g transform="rotate(41.70388402745369, 0.6458671428639338, -0.4076807607629934)"><path d="M -1 0 L 1 0 M 1 0 L 0.4 0.3 M 1 0 L 0.4 -0.3" transform="translate(0.6458671428639338, -0.4076807607629934) scale(5.0e-2)"/></g></g></g></g><g class="hud"><g><g class="canvas"><g stroke-opacity="0.0" fill="#ffffff" stroke="#000000" stroke-width="0.0" fill-opacity="2.0e-2"><rect width="1.3335223146654136" x="-0.6131329701597075" y="-0.47821062988257024" height="0.8881479000638601"/></g></g><g class="axis"><g class="ticks"><g class="tickglyph"><g stroke-opacity="0.4" fill="#0d0d0d" stroke="#0d0d0d" stroke-width="4.0e-3" fill-opacity="0.4"><g transform="rotate(-90.0, -0.6394535528213021, 0.40993727018128995)"><polyline points="-0.6394535528213021,0.42493727018128996
-0.6394535528213021,0.39493727018128993"/></g><g transform="rotate(-90.0, -0.6394535528213021, 0.32112248017490397)"><polyline points="-0.6394535528213021,0.336122480174904
-0.6394535528213021,0.30612248017490395"/></g><g transform="rotate(-90.0, -0.6394535528213021, 0.23230769016851788)"><polyline points="-0.6394535528213021,0.2473076901685179
-0.6394535528213021,0.21730769016851786"/></g><g transform="rotate(-90.0, -0.6394535528213021, 0.14349290016213184)"><polyline points="-0.6394535528213021,0.15849290016213186
-0.6394535528213021,0.12849290016213183"/></g><g transform="rotate(-90.0, -0.6394535528213021, 5.467811015574581e-2)"><polyline points="-0.6394535528213021,6.96781101557458e-2
-0.6394535528213021,3.967811015574581e-2"/></g><g transform="rotate(-90.0, -0.6394535528213021, -3.413667985064017e-2)"><polyline points="-0.6394535528213021,-1.9136679850640173e-2
-0.6394535528213021,-4.913667985064017e-2"/></g><g transform="rotate(-90.0, -0.6394535528213021, -0.12295146985702621)"><polyline points="-0.6394535528213021,-0.10795146985702621
-0.6394535528213021,-0.13795146985702622"/></g><g transform="rotate(-90.0, -0.6394535528213021, -0.21176625986341224)"><polyline points="-0.6394535528213021,-0.19676625986341223
-0.6394535528213021,-0.22676625986341226"/></g><g transform="rotate(-90.0, -0.6394535528213021, -0.3005810498697983)"><polyline points="-0.6394535528213021,-0.28558104986979826
-0.6394535528213021,-0.3155810498697983"/></g><g transform="rotate(-90.0, -0.6394535528213021, -0.3893958398761843)"><polyline points="-0.6394535528213021,-0.3743958398761843
-0.6394535528213021,-0.4043958398761843"/></g><g transform="rotate(-90.0, -0.6394535528213021, -0.47821062988257024)"><polyline points="-0.6394535528213021,-0.4632106298825702
-0.6394535528213021,-0.49321062988257025"/></g></g></g><g class="ticktext"><g fill="#0d0d0d" stroke="none" stroke-width="0.0" font-size="4.3867637769324536e-2" fill-opacity="1.0" text-anchor="end"><text x="-0.6710382520152158" y="0.42135074976661036">-0.5</text><text x="-0.6710382520152158" y="0.3325359597602243">-0.4</text><text x="-0.6710382520152158" y="0.24372116975383828">-0.3</text><text x="-0.6710382520152158" y="0.15490637974745225">-0.2</text><text x="-0.6710382520152158" y="6.609158974106627e-2">-0.1</text><text x="-0.6710382520152158" y="-2.272320026531971e-2">0</text><text x="-0.6710382520152158" y="-0.11153799027170586">0.1</text><text x="-0.6710382520152158" y="-0.20035278027809178">0.2</text><text x="-0.6710382520152158" y="-0.2891675702844779">0.3</text><text x="-0.6710382520152158" y="-0.37798236029086396">0.4</text><text x="-0.6710382520152158" y="-0.4667971502972498">0.5</text></g></g></g><g class="axisbar"><g stroke-opacity="0.0" fill="#0d0d0d" stroke="#000000" stroke-width="0.0" fill-opacity="0.4"><rect width="3.509411021545894e-3" x="-0.6254159087351183" y="-0.4798707723677078" height="0.8914681850341353"/></g></g></g><g class="axis"><g class="ticks"><g class="tickglyph"><g stroke-opacity="0.4" fill="#0d0d0d" stroke="#0d0d0d" stroke-width="4.0e-3" fill-opacity="0.4"><polyline points="-0.6131329701597075,0.44983940745835266
-0.6131329701597075,0.41983940745835263"/><polyline points="-0.4797807386931662,0.44983940745835266
-0.4797807386931662,0.41983940745835263"/><polyline points="-0.34642850722662477,0.44983940745835266
-0.34642850722662477,0.41983940745835263"/><polyline points="-0.21307627576008348,0.44983940745835266
-0.21307627576008348,0.41983940745835263"/><polyline points="-7.972404429354207e-2,0.44983940745835266
-7.972404429354207e-2,0.41983940745835263"/><polyline points="5.362818717299933e-2,0.44983940745835266
5.362818717299933e-2,0.41983940745835263"/><polyline points="0.18698041863954062,0.44983940745835266
0.18698041863954062,0.41983940745835263"/><polyline points="0.3203326501060819,0.44983940745835266
0.3203326501060819,0.41983940745835263"/><polyline points="0.4536848815726231,0.44983940745835266
0.4536848815726231,0.41983940745835263"/><polyline points="0.5870371130391643,0.44983940745835266
0.5870371130391643,0.41983940745835263"/><polyline points="0.7203893445057061,0.44983940745835266
0.7203893445057061,0.41983940745835263"/></g></g><g class="ticktext"><g fill="#0d0d0d" stroke="none" stroke-width="0.0" font-size="4.3867637769324536e-2" fill-opacity="1.0" text-anchor="middle"><text x="-0.6131329701597075" y="0.48754893136146865">-0.5</text><text x="-0.4797807386931662" y="0.48754893136146865">-0.4</text><text x="-0.34642850722662477" y="0.48754893136146865">-0.3</text><text x="-0.21307627576008348" y="0.48754893136146865">-0.2</text><text x="-7.972404429354207e-2" y="0.48754893136146865">-0.1</text><text x="5.362818717299933e-2" y="0.48754893136146865">0</text><text x="0.18698041863954062" y="0.48754893136146865">0.1</text><text x="0.3203326501060819" y="0.48754893136146865">0.2</text><text x="0.4536848815726231" y="0.48754893136146865">0.3</text><text x="0.5870371130391643" y="0.48754893136146865">0.4</text><text x="0.7203893445057061" y="0.48754893136146865">0.5</text></g></g></g><g class="axisbar"><g stroke-opacity="0.0" fill="#0d0d0d" stroke="#000000" stroke-width="0.0" fill-opacity="0.4"><rect width="1.3370317256869595" x="-0.6148876756704804" y="0.41823798260697753" height="3.3202849702750337e-3"/></g></g></g></g></g></svg>