<svg height="300" viewBox="-0.7385 -0.4968 1.4830 0.9949" width="447" xmlns="http://www.w3.org/2000/svg" xmlns:xlink="http://www.w3.org/1999/xlink"><style>svg {
  color-scheme: light dark;
}
{
  .canvas g, .title g, .axisbar g, .ticktext g, .tickglyph g, .ticklines g, .legendContent g text {
    fill: rgb(5%, 5%, 5%);
  }
  .ticklines g, .tickglyph g, .legendBorder g {
    stroke: rgb(5%, 5%, 5%);
  }
  .legendBorder g {
    fill: rgb(94%, 94%, 94%);
  }
}
@media (prefers-color-scheme:dark) {
  .canvas g, .title g, .axisbar g, .ticktext g, .tickglyph g, .ticklines g, .legendContent g text {
    fill: rgb(94%, 94%, 94%);
  }
  .ticklines g, .tickglyph g, .legendBorder g {
    stroke: rgb(94%, 94%, 94%);
  }
  .legendBorder g {
    fill: rgb(5%, 5%, 5%);
  }
}
{
  .arrow g {
    fill: rgba(5%, 5%, 5%, 1.00);
    stroke: rgba(5%, 5%, 5%, 1.00);
  }
}
@media (prefers-color-scheme:dark) {
  .arrow g {
    fill: rgba(94%, 94%, 94%, 1.00);
    stroke: rgba(94%, 94%, 94%, 1.00);
  }
}
</style><g class="chart"><g class="arrow"><g fill="rgb(2%, 73%, 80%)" fill-opacity="(0.20" stroke="rgb(5%, 5%, 5%)" stroke-opacity="(1.0" stroke-width="0.0500"><g transform="rotate(-41.7039, -0.5371, 0.3592)"><path d="M -1 0 L 1 0 M 1 0 L 0.4 0.3 M 1 0 L 0.4 -0.3" transform="translate(-0.5371, 0.3592) scale(0.0500)"/></g></g><g fill="rgb(2%, 73%, 80%)" fill-opacity="(0.20" stroke="rgb(5%, 5%, 5%)" stroke-opacity="(1.0" stroke-width="0.0500"><g transform="rotate(-40.7040, -0.5371, 0.2715)"><path d="M -1 0 L 1 0 M 1 0 L 0.4 0.3 M 1 0 L 0.4 -0.3" transform="translate(-0.5371, 0.2715) scale(0.0500)"/></g></g><g fill="rgb(2%, 73%, 80%)" fill-opacity="(0.20" stroke="rgb(5%, 5%, 5%)" stroke-opacity="(1.0" stroke-width="0.0500"><g transform="rotate(-39.3303, -0.5371, 0.1838)"><path d="M -1 0 L 1 0 M 1 0 L 0.4 0.3 M 1 0 L 0.4 -0.3" transform="translate(-0.5371, 0.1838) scale(0.0500)"/></g></g><g fill="rgb(2%, 73%, 80%)" fill-opacity="(0.20" stroke="rgb(5%, 5%, 5%)" stroke-opacity="(1.0" stroke-width="0.0500"><g transform="rotate(-37.3282, -0.5371, 0.0961)"><path d="M -1 0 L 1 0 M 1 0 L 0.4 0.3 M 1 0 L 0.4 -0.3" transform="translate(-0.5371, 0.0961) scale(0.0500)"/></g></g><g fill="rgb(2%, 73%, 80%)" fill-opacity="(0.20" stroke="rgb(5%, 5%, 5%)" stroke-opacity="(1.0" stroke-width="0.0500"><g transform="rotate(-34.1493, -0.5371, 0.0084)"><path d="M -1 0 L 1 0 M 1 0 L 0.4 0.3 M 1 0 L 0.4 -0.3" transform="translate(-0.5371, 0.0084) scale(0.0500)"/></g></g><g fill="rgb(2%, 73%, 80%)" fill-opacity="(0.20" stroke="rgb(5%, 5%, 5%)" stroke-opacity="(1.0" stroke-width="0.0500"><g transform="rotate(-28.3824, -0.5371, -0.0793)"><path d="M -1 0 L 1 0 M 1 0 L 0.4 0.3 M 1 0 L 0.4 -0.3" transform="translate(-0.5371, -0.0793) scale(0.0500)"/></g></g><g fill="rgb(2%, 73%, 80%)" fill-opacity="(0.20" stroke="rgb(5%, 5%, 5%)" stroke-opacity="(1.0" stroke-width="0.0500"><g transform="rotate(-15.2740, -0.5371, -0.1670)"><path d="M -1 0 L 1 0 M 1 0 L 0.4 0.3 M 1 0 L 0.4 -0.3" transform="translate(-0.5371, -0.1670) scale(0.0500)"/></g></g><g fill="rgb(2%, 73%, 80%)" fill-opacity="(0.20" stroke="rgb(5%, 5%, 5%)" stroke-opacity="(1.0" stroke-width="0.0500"><g transform="rotate(24.9171, -0.5371, -0.2547)"><path d="M -1 0 L 1 0 M 1 0 L 0.4 0.3 M 1 0 L 0.4 -0.3" transform="translate(-0.5371, -0.2547) scale(0.0500)"/></g></g><g fill="rgb(2%, 73%, 80%)" fill-opacity="(0.20" stroke="rgb(5%, 5%, 5%)" stroke-opacity="(1.0" stroke-width="0.0500"><g transform="rotate(85.2524, -0.5371, -0.3424)"><path d="M -1 0 L 1 0 M 1 0 L 0.4 0.3 M 1 0 L 0.4 -0.3" transform="translate(-0.5371, -0.3424) scale(0.0500)"/></g></g><g fill="rgb(2%, 73%, 80%)" fill-opacity="(0.20" stroke="rgb(5%, 5%, 5%)" stroke-opacity="(1.0" stroke-width="0.0500"><g transform="rotate(107.4397, -0.5371, -0.4301)"><path d="M -1 0 L 1 0 M 1 0 L 0.4 0.3 M 1 0 L 0.4 -0.3" transform="translate(-0.5371, -0.4301) scale(0.0500)"/></g></g><g fill="rgb(2%, 73%, 80%)" fill-opacity="(0.20" stroke="rgb(5%, 5%, 5%)" stroke-opacity="(1.0" stroke-width="0.0500"><g transform="rotate(-46.8993, -0.4063, 0.3592)"><path d="M -1 0 L 1 0 M 1 0 L 0.4 0.3 M 1 0 L 0.4 -0.3" transform="translate(-0.4063, 0.3592) scale(0.0500)"/></g></g><g fill="rgb(2%, 73%, 80%)" fill-opacity="(0.20" stroke="rgb(5%, 5%, 5%)" stroke-opacity="(1.0" stroke-width="0.0500"><g transform="rotate(-45.4122, -0.4063, 0.2715)"><path d="M -1 0 L 1 0 M 1 0 L 0.4 0.3 M 1 0 L 0.4 -0.3" transform="translate(-0.4063, 0.2715) scale(0.0500)"/></g></g><g fill="rgb(2%, 73%, 80%)" fill-opacity="(0.20" stroke="rgb(5%, 5%, 5%)" stroke-opacity="(1.0" stroke-width="0.0500"><g transform="rotate(-43.2666, -0.4063, 0.1838)"><path d="M -1 0 L 1 0 M 1 0 L 0.4 0.3 M 1 0 L 0.4 -0.3" transform="translate(-0.4063, 0.1838) scale(0.0500)"/></g></g><g fill="rgb(2%, 73%, 80%)" fill-opacity="(0.20" stroke="rgb(5%, 5%, 5%)" stroke-opacity="(1.0" stroke-width="0.0500"><g transform="rotate(-39.9135, -0.4063, 0.0961)"><path d="M -1 0 L 1 0 M 1 0 L 0.4 0.3 M 1 0 L 0.4 -0.3" transform="translate(-0.4063, 0.0961) scale(0.0500)"/></g></g><g fill="rgb(2%, 73%, 80%)" fill-opacity="(0.20" stroke="rgb(5%, 5%, 5%)" stroke-opacity="(1.0" stroke-width="0.0500"><g transform="rotate(-33.9991, -0.4063, 0.0084)"><path d="M -1 0 L 1 0 M 1 0 L 0.4 0.3 M 1 0 L 0.4 -0.3" transform="translate(-0.4063, 0.0084) scale(0.0500)"/></g></g><g fill="rgb(2%, 73%, 80%)" fill-opacity="(0.20" stroke="rgb(5%, 5%, 5%)" stroke-opacity="(1.0" stroke-width="0.0500"><g transform="rotate(-21.3212, -0.4063, -0.0793)"><path d="M -1 0 L 1 0 M 1 0 L 0.4 0.3 M 1 0 L 0.4 -0.3" transform="translate(-0.4063, -0.0793) scale(0.0500)"/></g></g><g fill="rgb(2%, 73%, 80%)" fill-opacity="(0.20" stroke="rgb(5%, 5%, 5%)" stroke-opacity="(1.0" stroke-width="0.0500"><g transform="rotate(13.3646, -0.4063, -0.1670)"><path d="M -1 0 L 1 0 M 1 0 L 0.4 0.3 M 1 0 L 0.4 -0.3" transform="translate(-0.4063, -0.1670) scale(0.0500)"/></g></g><g fill="rgb(2%, 73%, 80%)" fill-opacity="(0.20" stroke="rgb(5%, 5%, 5%)" stroke-opacity="(1.0" stroke-width="0.0500"><g transform="rotate(70.2608, -0.4063, -0.2547)"><path d="M -1 0 L 1 0 M 1 0 L 0.4 0.3 M 1 0 L 0.4 -0.3" transform="translate(-0.4063, -0.2547) scale(0.0500)"/></g></g><g fill="rgb(2%, 73%, 80%)" fill-opacity="(0.20" stroke="rgb(5%, 5%, 5%)" stroke-opacity="(1.0" stroke-width="0.0500"><g transform="rotate(96.0844, -0.4063, -0.3424)"><path d="M -1 0 L 1 0 M 1 0 L 0.4 0.3 M 1 0 L 0.4 -0.3" transform="translate(-0.4063, -0.3424) scale(0.0500)"/></g></g><g fill="rgb(2%, 73%, 80%)" fill-opacity="(0.20" stroke="rgb(5%, 5%, 5%)" stroke-opacity="(1.0" stroke-width="0.0500"><g transform="rotate(106.0551, -0.4063, -0.4301)"><path d="M -1 0 L 1 0 M 1 0 L 0.4 0.3 M 1 0 L 0.4 -0.3" transform="translate(-0.4063, -0.4301) scale(0.0500)"/></g></g><g fill="rgb(2%, 73%, 80%)" fill-opacity="(0.20" stroke="rgb(5%, 5%, 5%)" stroke-opacity="(1.0" stroke-width="0.0500"><g transform="rotate(-53.3544, -0.2755, 0.3592)"><path d="M -1 0 L 1 0 M 1 0 L 0.4 0.3 M 1 0 L 0.4 -0.3" transform="translate(-0.2755, 0.3592) scale(0.0500)"/></g></g><g fill="rgb(2%, 73%, 80%)" fill-opacity="(0.20" stroke="rgb(5%, 5%, 5%)" stroke-opacity="(1.0" stroke-width="0.0500"><g transform="rotate(-51.2345, -0.2755, 0.2715)"><path d="M -1 0 L 1 0 M 1 0 L 0.4 0.3 M 1 0 L 0.4 -0.3" transform="translate(-0.2755, 0.2715) scale(0.0500)"/></g></g><g fill="rgb(2%, 73%, 80%)" fill-opacity="(0.20" stroke="rgb(5%, 5%, 5%)" stroke-opacity="(1.0" stroke-width="0.0500"><g transform="rotate(-48.0128, -0.2755, 0.1838)"><path d="M -1 0 L 1 0 M 1 0 L 0.4 0.3 M 1 0 L 0.4 -0.3" transform="translate(-0.2755, 0.1838) scale(0.0500)"/></g></g><g fill="rgb(2%, 73%, 80%)" fill-opacity="(0.20" stroke="rgb(5%, 5%, 5%)" stroke-opacity="(1.0" stroke-width="0.0500"><g transform="rotate(-42.5805, -0.2755, 0.0961)"><path d="M -1 0 L 1 0 M 1 0 L 0.4 0.3 M 1 0 L 0.4 -0.3" transform="translate(-0.2755, 0.0961) scale(0.0500)"/></g></g><g fill="rgb(2%, 73%, 80%)" fill-opacity="(0.20" stroke="rgb(5%, 5%, 5%)" stroke-opacity="(1.0" stroke-width="0.0500"><g transform="rotate(-31.8274, -0.2755, 0.0084)"><path d="M -1 0 L 1 0 M 1 0 L 0.4 0.3 M 1 0 L 0.4 -0.3" transform="translate(-0.2755, 0.0084) scale(0.0500)"/></g></g><g fill="rgb(2%, 73%, 80%)" fill-opacity="(0.20" stroke="rgb(5%, 5%, 5%)" stroke-opacity="(1.0" stroke-width="0.0500"><g transform="rotate(-5.4403, -0.2755, -0.0793)"><path d="M -1 0 L 1 0 M 1 0 L 0.4 0.3 M 1 0 L 0.4 -0.3" transform="translate(-0.2755, -0.0793) scale(0.0500)"/></g></g><g fill="rgb(2%, 73%, 80%)" fill-opacity="(0.20" stroke="rgb(5%, 5%, 5%)" stroke-opacity="(1.0" stroke-width="0.0500"><g transform="rotate(47.1211, -0.2755, -0.1670)"><path d="M -1 0 L 1 0 M 1 0 L 0.4 0.3 M 1 0 L 0.4 -0.3" transform="translate(-0.2755, -0.1670) scale(0.0500)"/></g></g><g fill="rgb(2%, 73%, 80%)" fill-opacity="(0.20" stroke="rgb(5%, 5%, 5%)" stroke-opacity="(1.0" stroke-width="0.0500"><g transform="rotate(80.5377, -0.2755, -0.2547)"><path d="M -1 0 L 1 0 M 1 0 L 0.4 0.3 M 1 0 L 0.4 -0.3" transform="translate(-0.2755, -0.2547) scale(0.0500)"/></g></g><g fill="rgb(2%, 73%, 80%)" fill-opacity="(0.20" stroke="rgb(5%, 5%, 5%)" stroke-opacity="(1.0" stroke-width="0.0500"><g transform="rotate(93.7314, -0.2755, -0.3424)"><path d="M -1 0 L 1 0 M 1 0 L 0.4 0.3 M 1 0 L 0.4 -0.3" transform="translate(-0.2755, -0.3424) scale(0.0500)"/></g></g><g fill="rgb(2%, 73%, 80%)" fill-opacity="(0.20" stroke="rgb(5%, 5%, 5%)" stroke-opacity="(1.0" stroke-width="0.0500"><g transform="rotate(100.0607, -0.2755, -0.4301)"><path d="M -1 0 L 1 0 M 1 0 L 0.4 0.3 M 1 0 L 0.4 -0.3" transform="translate(-0.2755, -0.4301) scale(0.0500)"/></g></g><g fill="rgb(2%, 73%, 80%)" fill-opacity="(0.20" stroke="rgb(5%, 5%, 5%)" stroke-opacity="(1.0" stroke-width="0.0500"><g transform="rotate(-61.4810, -0.1448, 0.3592)"><path d="M -1 0 L 1 0 M 1 0 L 0.4 0.3 M 1 0 L 0.4 -0.3" transform="translate(-0.1448, 0.3592) scale(0.0500)"/></g></g><g fill="rgb(2%, 73%, 80%)" fill-opacity="(0.20" stroke="rgb(5%, 5%, 5%)" stroke-opacity="(1.0" stroke-width="0.0500"><g transform="rotate(-58.6701, -0.1448, 0.2715)"><path d="M -1 0 L 1 0 M 1 0 L 0.4 0.3 M 1 0 L 0.4 -0.3" transform="translate(-0.1448, 0.2715) scale(0.0500)"/></g></g><g fill="rgb(2%, 73%, 80%)" fill-opacity="(0.20" stroke="rgb(5%, 5%, 5%)" stroke-opacity="(1.0" stroke-width="0.0500"><g transform="rotate(-54.1700, -0.1448, 0.1838)"><path d="M -1 0 L 1 0 M 1 0 L 0.4 0.3 M 1 0 L 0.4 -0.3" transform="translate(-0.1448, 0.1838) scale(0.0500)"/></g></g><g fill="rgb(2%, 73%, 80%)" fill-opacity="(0.20" stroke="rgb(5%, 5%, 5%)" stroke-opacity="(1.0" stroke-width="0.0500"><g transform="rotate(-45.9710, -0.1448, 0.0961)"><path d="M -1 0 L 1 0 M 1 0 L 0.4 0.3 M 1 0 L 0.4 -0.3" transform="translate(-0.1448, 0.0961) scale(0.0500)"/></g></g><g fill="rgb(2%, 73%, 80%)" fill-opacity="(0.20" stroke="rgb(5%, 5%, 5%)" stroke-opacity="(1.0" stroke-width="0.0500"><g transform="rotate(-27.9309, -0.1448, 0.0084)"><path d="M -1 0 L 1 0 M 1 0 L 0.4 0.3 M 1 0 L 0.4 -0.3" transform="translate(-0.1448, 0.0084) scale(0.0500)"/></g></g><g fill="rgb(2%, 73%, 80%)" fill-opacity="(0.20" stroke="rgb(5%, 5%, 5%)" stroke-opacity="(1.0" stroke-width="0.0500"><g transform="rotate(14.4459, -0.1448, -0.0793)"><path d="M -1 0 L 1 0 M 1 0 L 0.4 0.3 M 1 0 L 0.4 -0.3" transform="translate(-0.1448, -0.0793) scale(0.0500)"/></g></g><g fill="rgb(2%, 73%, 80%)" fill-opacity="(0.20" stroke="rgb(5%, 5%, 5%)" stroke-opacity="(1.0" stroke-width="0.0500"><g transform="rotate(58.9537, -0.1448, -0.1670)"><path d="M -1 0 L 1 0 M 1 0 L 0.4 0.3 M 1 0 L 0.4 -0.3" transform="translate(-0.1448, -0.1670) scale(0.0500)"/></g></g><g fill="rgb(2%, 73%, 80%)" fill-opacity="(0.20" stroke="rgb(5%, 5%, 5%)" stroke-opacity="(1.0" stroke-width="0.0500"><g transform="rotate(78.3877, -0.1448, -0.2547)"><path d="M -1 0 L 1 0 M 1 0 L 0.4 0.3 M 1 0 L 0.4 -0.3" transform="translate(-0.1448, -0.2547) scale(0.0500)"/></g></g><g fill="rgb(2%, 73%, 80%)" fill-opacity="(0.20" stroke="rgb(5%, 5%, 5%)" stroke-opacity="(1.0" stroke-width="0.0500"><g transform="rotate(87.0722, -0.1448, -0.3424)"><path d="M -1 0 L 1 0 M 1 0 L 0.4 0.3 M 1 0 L 0.4 -0.3" transform="translate(-0.1448, -0.3424) scale(0.0500)"/></g></g><g fill="rgb(2%, 73%, 80%)" fill-opacity="(0.20" stroke="rgb(5%, 5%, 5%)" stroke-opacity="(1.0" stroke-width="0.0500"><g transform="rotate(91.7753, -0.1448, -0.4301)"><path d="M -1 0 L 1 0 M 1 0 L 0.4 0.3 M 1 0 L 0.4 -0.3" transform="translate(-0.1448, -0.4301) scale(0.0500)"/></g></g><g fill="rgb(2%, 73%, 80%)" fill-opacity="(0.20" stroke="rgb(5%, 5%, 5%)" stroke-opacity="(1.0" stroke-width="0.0500"><g transform="rotate(-71.6316, -0.0140, 0.3592)"><path d="M -1 0 L 1 0 M 1 0 L 0.4 0.3 M 1 0 L 0.4 -0.3" transform="translate(-0.0140, 0.3592) scale(0.0500)"/></g></g><g fill="rgb(2%, 73%, 80%)" fill-opacity="(0.20" stroke="rgb(5%, 5%, 5%)" stroke-opacity="(1.0" stroke-width="0.0500"><g transform="rotate(-68.3038, -0.0140, 0.2715)"><path d="M -1 0 L 1 0 M 1 0 L 0.4 0.3 M 1 0 L 0.4 -0.3" transform="translate(-0.0140, 0.2715) scale(0.0500)"/></g></g><g fill="rgb(2%, 73%, 80%)" fill-opacity="(0.20" stroke="rgb(5%, 5%, 5%)" stroke-opacity="(1.0" stroke-width="0.0500"><g transform="rotate(-62.7134, -0.0140, 0.1838)"><path d="M -1 0 L 1 0 M 1 0 L 0.4 0.3 M 1 0 L 0.4 -0.3" transform="translate(-0.0140, 0.1838) scale(0.0500)"/></g></g><g fill="rgb(2%, 73%, 80%)" fill-opacity="(0.20" stroke="rgb(5%, 5%, 5%)" stroke-opacity="(1.0" stroke-width="0.0500"><g transform="rotate(-51.7434, -0.0140, 0.0961)"><path d="M -1 0 L 1 0 M 1 0 L 0.4 0.3 M 1 0 L 0.4 -0.3" transform="translate(-0.0140, 0.0961) scale(0.0500)"/></g></g><g fill="rgb(2%, 73%, 80%)" fill-opacity="(0.20" stroke="rgb(5%, 5%, 5%)" stroke-opacity="(1.0" stroke-width="0.0500"><g transform="rotate(-25.4633, -0.0140, 0.0084)"><path d="M -1 0 L 1 0 M 1 0 L 0.4 0.3 M 1 0 L 0.4 -0.3" transform="translate(-0.0140, 0.0084) scale(0.0500)"/></g></g><g fill="rgb(2%, 73%, 80%)" fill-opacity="(0.20" stroke="rgb(5%, 5%, 5%)" stroke-opacity="(1.0" stroke-width="0.0500"><g transform="rotate(25.3523, -0.0140, -0.0793)"><path d="M -1 0 L 1 0 M 1 0 L 0.4 0.3 M 1 0 L 0.4 -0.3" transform="translate(-0.0140, -0.0793) scale(0.0500)"/></g></g><g fill="rgb(2%, 73%, 80%)" fill-opacity="(0.20" stroke="rgb(5%, 5%, 5%)" stroke-opacity="(1.0" stroke-width="0.0500"><g transform="rotate(58.5390, -0.0140, -0.1670)"><path d="M -1 0 L 1 0 M 1 0 L 0.4 0.3 M 1 0 L 0.4 -0.3" transform="translate(-0.0140, -0.1670) scale(0.0500)"/></g></g><g fill="rgb(2%, 73%, 80%)" fill-opacity="(0.20" stroke="rgb(5%, 5%, 5%)" stroke-opacity="(1.0" stroke-width="0.0500"><g transform="rotate(72.0351, -0.0140, -0.2547)"><path d="M -1 0 L 1 0 M 1 0 L 0.4 0.3 M 1 0 L 0.4 -0.3" transform="translate(-0.0140, -0.2547) scale(0.0500)"/></g></g><g fill="rgb(2%, 73%, 80%)" fill-opacity="(0.20" stroke="rgb(5%, 5%, 5%)" stroke-opacity="(1.0" stroke-width="0.0500"><g transform="rotate(78.5712, -0.0140, -0.3424)"><path d="M -1 0 L 1 0 M 1 0 L 0.4 0.3 M 1 0 L 0.4 -0.3" transform="translate(-0.0140, -0.3424) scale(0.0500)"/></g></g><g fill="rgb(2%, 73%, 80%)" fill-opacity="(0.20" stroke="rgb(5%, 5%, 5%)" stroke-opacity="(1.0" stroke-width="0.0500"><g transform="rotate(82.3320, -0.0140, -0.4301)"><path d="M -1 0 L 1 0 M 1 0 L 0.4 0.3 M 1 0 L 0.4 -0.3" transform="translate(-0.0140, -0.4301) scale(0.0500)"/></g></g><g fill="rgb(2%, 73%, 80%)" fill-opacity="(0.20" stroke="rgb(5%, 5%, 5%)" stroke-opacity="(1.0" stroke-width="0.0500"><g transform="rotate(-83.7258, 0.1168, 0.3592)"><path d="M -1 0 L 1 0 M 1 0 L 0.4 0.3 M 1 0 L 0.4 -0.3" transform="translate(0.1168, 0.3592) scale(0.0500)"/></g></g><g fill="rgb(2%, 73%, 80%)" fill-opacity="(0.20" stroke="rgb(5%, 5%, 5%)" stroke-opacity="(1.0" stroke-width="0.0500"><g transform="rotate(-80.3796, 0.1168, 0.2715)"><path d="M -1 0 L 1 0 M 1 0 L 0.4 0.3 M 1 0 L 0.4 -0.3" transform="translate(0.1168, 0.2715) scale(0.0500)"/></g></g><g fill="rgb(2%, 73%, 80%)" fill-opacity="(0.20" stroke="rgb(5%, 5%, 5%)" stroke-opacity="(1.0" stroke-width="0.0500"><g transform="rotate(-74.5578, 0.1168, 0.1838)"><path d="M -1 0 L 1 0 M 1 0 L 0.4 0.3 M 1 0 L 0.4 -0.3" transform="translate(0.1168, 0.1838) scale(0.0500)"/></g></g><g fill="rgb(2%, 73%, 80%)" fill-opacity="(0.20" stroke="rgb(5%, 5%, 5%)" stroke-opacity="(1.0" stroke-width="0.0500"><g transform="rotate(-62.3926, 0.1168, 0.0961)"><path d="M -1 0 L 1 0 M 1 0 L 0.4 0.3 M 1 0 L 0.4 -0.3" transform="translate(0.1168, 0.0961) scale(0.0500)"/></g></g><g fill="rgb(2%, 73%, 80%)" fill-opacity="(0.20" stroke="rgb(5%, 5%, 5%)" stroke-opacity="(1.0" stroke-width="0.0500"><g transform="rotate(-30.3259, 0.1168, 0.0084)"><path d="M -1 0 L 1 0 M 1 0 L 0.4 0.3 M 1 0 L 0.4 -0.3" transform="translate(0.1168, 0.0084) scale(0.0500)"/></g></g><g fill="rgb(2%, 73%, 80%)" fill-opacity="(0.20" stroke="rgb(5%, 5%, 5%)" stroke-opacity="(1.0" stroke-width="0.0500"><g transform="rotate(25.4633, 0.1168, -0.0793)"><path d="M -1 0 L 1 0 M 1 0 L 0.4 0.3 M 1 0 L 0.4 -0.3" transform="translate(0.1168, -0.0793) scale(0.0500)"/></g></g><g fill="rgb(2%, 73%, 80%)" fill-opacity="(0.20" stroke="rgb(5%, 5%, 5%)" stroke-opacity="(1.0" stroke-width="0.0500"><g transform="rotate(53.3483, 0.1168, -0.1670)"><path d="M -1 0 L 1 0 M 1 0 L 0.4 0.3 M 1 0 L 0.4 -0.3" transform="translate(0.1168, -0.1670) scale(0.0500)"/></g></g><g fill="rgb(2%, 73%, 80%)" fill-opacity="(0.20" stroke="rgb(5%, 5%, 5%)" stroke-opacity="(1.0" stroke-width="0.0500"><g transform="rotate(64.1805, 0.1168, -0.2547)"><path d="M -1 0 L 1 0 M 1 0 L 0.4 0.3 M 1 0 L 0.4 -0.3" transform="translate(0.1168, -0.2547) scale(0.0500)"/></g></g><g fill="rgb(2%, 73%, 80%)" fill-opacity="(0.20" stroke="rgb(5%, 5%, 5%)" stroke-opacity="(1.0" stroke-width="0.0500"><g transform="rotate(69.5253, 0.1168, -0.3424)"><path d="M -1 0 L 1 0 M 1 0 L 0.4 0.3 M 1 0 L 0.4 -0.3" transform="translate(0.1168, -0.3424) scale(0.0500)"/></g></g><g fill="rgb(2%, 73%, 80%)" fill-opacity="(0.20" stroke="rgb(5%, 5%, 5%)" stroke-opacity="(1.0" stroke-width="0.0500"><g transform="rotate(72.6569, 0.1168, -0.4301)"><path d="M -1 0 L 1 0 M 1 0 L 0.4 0.3 M 1 0 L 0.4 -0.3" transform="translate(0.1168, -0.4301) scale(0.0500)"/></g></g><g fill="rgb(2%, 73%, 80%)" fill-opacity="(0.20" stroke="rgb(5%, 5%, 5%)" stroke-opacity="(1.0" stroke-width="0.0500"><g transform="rotate(-96.8488, 0.2476, 0.3592)"><path d="M -1 0 L 1 0 M 1 0 L 0.4 0.3 M 1 0 L 0.4 -0.3" transform="translate(0.2476, 0.3592) scale(0.0500)"/></g></g><g fill="rgb(2%, 73%, 80%)" fill-opacity="(0.20" stroke="rgb(5%, 5%, 5%)" stroke-opacity="(1.0" stroke-width="0.0500"><g transform="rotate(-94.1075, 0.2476, 0.2715)"><path d="M -1 0 L 1 0 M 1 0 L 0.4 0.3 M 1 0 L 0.4 -0.3" transform="translate(0.2476, 0.2715) scale(0.0500)"/></g></g><g fill="rgb(2%, 73%, 80%)" fill-opacity="(0.20" stroke="rgb(5%, 5%, 5%)" stroke-opacity="(1.0" stroke-width="0.0500"><g transform="rotate(-89.3167, 0.2476, 0.1838)"><path d="M -1 0 L 1 0 M 1 0 L 0.4 0.3 M 1 0 L 0.4 -0.3" transform="translate(0.2476, 0.1838) scale(0.0500)"/></g></g><g fill="rgb(2%, 73%, 80%)" fill-opacity="(0.20" stroke="rgb(5%, 5%, 5%)" stroke-opacity="(1.0" stroke-width="0.0500"><g transform="rotate(-79.0898, 0.2476, 0.0961)"><path d="M -1 0 L 1 0 M 1 0 L 0.4 0.3 M 1 0 L 0.4 -0.3" transform="translate(0.2476, 0.0961) scale(0.0500)"/></g></g><g fill="rgb(2%, 73%, 80%)" fill-opacity="(0.20" stroke="rgb(5%, 5%, 5%)" stroke-opacity="(1.0" stroke-width="0.0500"><g transform="rotate(-48.8981, 0.2476, 0.0084)"><path d="M -1 0 L 1 0 M 1 0 L 0.4 0.3 M 1 0 L 0.4 -0.3" transform="translate(0.2476, 0.0084) scale(0.0500)"/></g></g><g fill="rgb(2%, 73%, 80%)" fill-opacity="(0.20" stroke="rgb(5%, 5%, 5%)" stroke-opacity="(1.0" stroke-width="0.0500"><g transform="rotate(16.4311, 0.2476, -0.0793)"><path d="M -1 0 L 1 0 M 1 0 L 0.4 0.3 M 1 0 L 0.4 -0.3" transform="translate(0.2476, -0.0793) scale(0.0500)"/></g></g><g fill="rgb(2%, 73%, 80%)" fill-opacity="(0.20" stroke="rgb(5%, 5%, 5%)" stroke-opacity="(1.0" stroke-width="0.0500"><g transform="rotate(45.9710, 0.2476, -0.1670)"><path d="M -1 0 L 1 0 M 1 0 L 0.4 0.3 M 1 0 L 0.4 -0.3" transform="translate(0.2476, -0.1670) scale(0.0500)"/></g></g><g fill="rgb(2%, 73%, 80%)" fill-opacity="(0.20" stroke="rgb(5%, 5%, 5%)" stroke-opacity="(1.0" stroke-width="0.0500"><g transform="rotate(56.0348, 0.2476, -0.2547)"><path d="M -1 0 L 1 0 M 1 0 L 0.4 0.3 M 1 0 L 0.4 -0.3" transform="translate(0.2476, -0.2547) scale(0.0500)"/></g></g><g fill="rgb(2%, 73%, 80%)" fill-opacity="(0.20" stroke="rgb(5%, 5%, 5%)" stroke-opacity="(1.0" stroke-width="0.0500"><g transform="rotate(60.7712, 0.2476, -0.3424)"><path d="M -1 0 L 1 0 M 1 0 L 0.4 0.3 M 1 0 L 0.4 -0.3" transform="translate(0.2476, -0.3424) scale(0.0500)"/></g></g><g fill="rgb(2%, 73%, 80%)" fill-opacity="(0.20" stroke="rgb(5%, 5%, 5%)" stroke-opacity="(1.0" stroke-width="0.0500"><g transform="rotate(63.4886, 0.2476, -0.4301)"><path d="M -1 0 L 1 0 M 1 0 L 0.4 0.3 M 1 0 L 0.4 -0.3" transform="translate(0.2476, -0.4301) scale(0.0500)"/></g></g><g fill="rgb(2%, 73%, 80%)" fill-opacity="(0.20" stroke="rgb(5%, 5%, 5%)" stroke-opacity="(1.0" stroke-width="0.0500"><g transform="rotate(-109.4766, 0.3783, 0.3592)"><path d="M -1 0 L 1 0 M 1 0 L 0.4 0.3 M 1 0 L 0.4 -0.3" transform="translate(0.3783, 0.3592) scale(0.0500)"/></g></g><g fill="rgb(2%, 73%, 80%)" fill-opacity="(0.20" stroke="rgb(5%, 5%, 5%)" stroke-opacity="(1.0" stroke-width="0.0500"><g transform="rotate(-107.6501, 0.3783, 0.2715)"><path d="M -1 0 L 1 0 M 1 0 L 0.4 0.3 M 1 0 L 0.4 -0.3" transform="translate(0.3783, 0.2715) scale(0.0500)"/></g></g><g fill="rgb(2%, 73%, 80%)" fill-opacity="(0.20" stroke="rgb(5%, 5%, 5%)" stroke-opacity="(1.0" stroke-width="0.0500"><g transform="rotate(-104.5742, 0.3783, 0.1838)"><path d="M -1 0 L 1 0 M 1 0 L 0.4 0.3 M 1 0 L 0.4 -0.3" transform="translate(0.3783, 0.1838) scale(0.0500)"/></g></g><g fill="rgb(2%, 73%, 80%)" fill-opacity="(0.20" stroke="rgb(5%, 5%, 5%)" stroke-opacity="(1.0" stroke-width="0.0500"><g transform="rotate(-98.3659, 0.3783, 0.0961)"><path d="M -1 0 L 1 0 M 1 0 L 0.4 0.3 M 1 0 L 0.4 -0.3" transform="translate(0.3783, 0.0961) scale(0.0500)"/></g></g><g fill="rgb(2%, 73%, 80%)" fill-opacity="(0.20" stroke="rgb(5%, 5%, 5%)" stroke-opacity="(1.0" stroke-width="0.0500"><g transform="rotate(-80.5377, 0.3783, 0.0084)"><path d="M -1 0 L 1 0 M 1 0 L 0.4 0.3 M 1 0 L 0.4 -0.3" transform="translate(0.3783, 0.0084) scale(0.0500)"/></g></g><g fill="rgb(2%, 73%, 80%)" fill-opacity="(0.20" stroke="rgb(5%, 5%, 5%)" stroke-opacity="(1.0" stroke-width="0.0500"><g transform="rotate(-10.3048, 0.3783, -0.0793)"><path d="M -1 0 L 1 0 M 1 0 L 0.4 0.3 M 1 0 L 0.4 -0.3" transform="translate(0.3783, -0.0793) scale(0.0500)"/></g></g><g fill="rgb(2%, 73%, 80%)" fill-opacity="(0.20" stroke="rgb(5%, 5%, 5%)" stroke-opacity="(1.0" stroke-width="0.0500"><g transform="rotate(36.3844, 0.3783, -0.1670)"><path d="M -1 0 L 1 0 M 1 0 L 0.4 0.3 M 1 0 L 0.4 -0.3" transform="translate(0.3783, -0.1670) scale(0.0500)"/></g></g><g fill="rgb(2%, 73%, 80%)" fill-opacity="(0.20" stroke="rgb(5%, 5%, 5%)" stroke-opacity="(1.0" stroke-width="0.0500"><g transform="rotate(48.0128, 0.3783, -0.2547)"><path d="M -1 0 L 1 0 M 1 0 L 0.4 0.3 M 1 0 L 0.4 -0.3" transform="translate(0.3783, -0.2547) scale(0.0500)"/></g></g><g fill="rgb(2%, 73%, 80%)" fill-opacity="(0.20" stroke="rgb(5%, 5%, 5%)" stroke-opacity="(1.0" stroke-width="0.0500"><g transform="rotate(52.7336, 0.3783, -0.3424)"><path d="M -1 0 L 1 0 M 1 0 L 0.4 0.3 M 1 0 L 0.4 -0.3" transform="translate(0.3783, -0.3424) scale(0.0500)"/></g></g><g fill="rgb(2%, 73%, 80%)" fill-opacity="(0.20" stroke="rgb(5%, 5%, 5%)" stroke-opacity="(1.0" stroke-width="0.0500"><g transform="rotate(55.2568, 0.3783, -0.4301)"><path d="M -1 0 L 1 0 M 1 0 L 0.4 0.3 M 1 0 L 0.4 -0.3" transform="translate(0.3783, -0.4301) scale(0.0500)"/></g></g><g fill="rgb(2%, 73%, 80%)" fill-opacity="(0.20" stroke="rgb(5%, 5%, 5%)" stroke-opacity="(1.0" stroke-width="0.0500"><g transform="rotate(-120.3900, 0.5091, 0.3592)"><path d="M -1 0 L 1 0 M 1 0 L 0.4 0.3 M 1 0 L 0.4 -0.3" transform="translate(0.5091, 0.3592) scale(0.0500)"/></g></g><g fill="rgb(2%, 73%, 80%)" fill-opacity="(0.20" stroke="rgb(5%, 5%, 5%)" stroke-opacity="(1.0" stroke-width="0.0500"><g transform="rotate(-119.3549, 0.5091, 0.2715)"><path d="M -1 0 L 1 0 M 1 0 L 0.4 0.3 M 1 0 L 0.4 -0.3" transform="translate(0.5091, 0.2715) scale(0.0500)"/></g></g><g fill="rgb(2%, 73%, 80%)" fill-opacity="(0.20" stroke="rgb(5%, 5%, 5%)" stroke-opacity="(1.0" stroke-width="0.0500"><g transform="rotate(-117.7221, 0.5091, 0.1838)"><path d="M -1 0 L 1 0 M 1 0 L 0.4 0.3 M 1 0 L 0.4 -0.3" transform="translate(0.5091, 0.1838) scale(0.0500)"/></g></g><g fill="rgb(2%, 73%, 80%)" fill-opacity="(0.20" stroke="rgb(5%, 5%, 5%)" stroke-opacity="(1.0" stroke-width="0.0500"><g transform="rotate(-114.7718, 0.5091, 0.0961)"><path d="M -1 0 L 1 0 M 1 0 L 0.4 0.3 M 1 0 L 0.4 -0.3" transform="translate(0.5091, 0.0961) scale(0.0500)"/></g></g><g fill="rgb(2%, 73%, 80%)" fill-opacity="(0.20" stroke="rgb(5%, 5%, 5%)" stroke-opacity="(1.0" stroke-width="0.0500"><g transform="rotate(-107.9102, 0.5091, 0.0084)"><path d="M -1 0 L 1 0 M 1 0 L 0.4 0.3 M 1 0 L 0.4 -0.3" transform="translate(0.5091, 0.0084) scale(0.0500)"/></g></g><g fill="rgb(2%, 73%, 80%)" fill-opacity="(0.20" stroke="rgb(5%, 5%, 5%)" stroke-opacity="(1.0" stroke-width="0.0500"><g transform="rotate(-78.8802, 0.5091, -0.0793)"><path d="M -1 0 L 1 0 M 1 0 L 0.4 0.3 M 1 0 L 0.4 -0.3" transform="translate(0.5091, -0.0793) scale(0.0500)"/></g></g><g fill="rgb(2%, 73%, 80%)" fill-opacity="(0.20" stroke="rgb(5%, 5%, 5%)" stroke-opacity="(1.0" stroke-width="0.0500"><g transform="rotate(18.0772, 0.5091, -0.1670)"><path d="M -1 0 L 1 0 M 1 0 L 0.4 0.3 M 1 0 L 0.4 -0.3" transform="translate(0.5091, -0.1670) scale(0.0500)"/></g></g><g fill="rgb(2%, 73%, 80%)" fill-opacity="(0.20" stroke="rgb(5%, 5%, 5%)" stroke-opacity="(1.0" stroke-width="0.0500"><g transform="rotate(39.5765, 0.5091, -0.2547)"><path d="M -1 0 L 1 0 M 1 0 L 0.4 0.3 M 1 0 L 0.4 -0.3" transform="translate(0.5091, -0.2547) scale(0.0500)"/></g></g><g fill="rgb(2%, 73%, 80%)" fill-opacity="(0.20" stroke="rgb(5%, 5%, 5%)" stroke-opacity="(1.0" stroke-width="0.0500"><g transform="rotate(45.4122, 0.5091, -0.3424)"><path d="M -1 0 L 1 0 M 1 0 L 0.4 0.3 M 1 0 L 0.4 -0.3" transform="translate(0.5091, -0.3424) scale(0.0500)"/></g></g><g fill="rgb(2%, 73%, 80%)" fill-opacity="(0.20" stroke="rgb(5%, 5%, 5%)" stroke-opacity="(1.0" stroke-width="0.0500"><g transform="rotate(48.0612, 0.5091, -0.4301)"><path d="M -1 0 L 1 0 M 1 0 L 0.4 0.3 M 1 0 L 0.4 -0.3" transform="translate(0.5091, -0.4301) scale(0.0500)"/></g></g><g fill="rgb(2%, 73%, 80%)" fill-opacity="(0.20" stroke="rgb(5%, 5%, 5%)" stroke-opacity="(1.0" stroke-width="0.0500"><g transform="rotate(-129.2044, 0.6399, 0.3592)"><path d="M -1 0 L 1 0 M 1 0 L 0.4 0.3 M 1 0 L 0.4 -0.3" transform="translate(0.6399, 0.3592) scale(0.0500)"/></g></g><g fill="rgb(2%, 73%, 80%)" fill-opacity="(0.20" stroke="rgb(5%, 5%, 5%)" stroke-opacity="(1.0" stroke-width="0.0500"><g transform="rotate(-128.6756, 0.6399, 0.2715)"><path d="M -1 0 L 1 0 M 1 0 L 0.4 0.3 M 1 0 L 0.4 -0.3" transform="translate(0.6399, 0.2715) scale(0.0500)"/></g></g><g fill="rgb(2%, 73%, 80%)" fill-opacity="(0.20" stroke="rgb(5%, 5%, 5%)" stroke-opacity="(1.0" stroke-width="0.0500"><g transform="rotate(-127.8991, 0.6399, 0.1838)"><path d="M -1 0 L 1 0 M 1 0 L 0.4 0.3 M 1 0 L 0.4 -0.3" transform="translate(0.6399, 0.1838) scale(0.0500)"/></g></g><g fill="rgb(2%, 73%, 80%)" fill-opacity="(0.20" stroke="rgb(5%, 5%, 5%)" stroke-opacity="(1.0" stroke-width="0.0500"><g transform="rotate(-126.6482, 0.6399, 0.0961)"><path d="M -1 0 L 1 0 M 1 0 L 0.4 0.3 M 1 0 L 0.4 -0.3" transform="translate(0.6399, 0.0961) scale(0.0500)"/></g></g><g fill="rgb(2%, 73%, 80%)" fill-opacity="(0.20" stroke="rgb(5%, 5%, 5%)" stroke-opacity="(1.0" stroke-width="0.0500"><g transform="rotate(-124.3010, 0.6399, 0.0084)"><path d="M -1 0 L 1 0 M 1 0 L 0.4 0.3 M 1 0 L 0.4 -0.3" transform="translate(0.6399, 0.0084) scale(0.0500)"/></g></g><g fill="rgb(2%, 73%, 80%)" fill-opacity="(0.20" stroke="rgb(5%, 5%, 5%)" stroke-opacity="(1.0" stroke-width="0.0500"><g transform="rotate(-118.3399, 0.6399, -0.0793)"><path d="M -1 0 L 1 0 M 1 0 L 0.4 0.3 M 1 0 L 0.4 -0.3" transform="translate(0.6399, -0.0793) scale(0.0500)"/></g></g><g fill="rgb(2%, 73%, 80%)" fill-opacity="(0.20" stroke="rgb(5%, 5%, 5%)" stroke-opacity="(1.0" stroke-width="0.0500"><g transform="rotate(-81.6027, 0.6399, -0.1670)"><path d="M -1 0 L 1 0 M 1 0 L 0.4 0.3 M 1 0 L 0.4 -0.3" transform="translate(0.6399, -0.1670) scale(0.0500)"/></g></g><g fill="rgb(2%, 73%, 80%)" fill-opacity="(0.20" stroke="rgb(5%, 5%, 5%)" stroke-opacity="(1.0" stroke-width="0.0500"><g transform="rotate(25.9167, 0.6399, -0.2547)"><path d="M -1 0 L 1 0 M 1 0 L 0.4 0.3 M 1 0 L 0.4 -0.3" transform="translate(0.6399, -0.2547) scale(0.0500)"/></g></g><g fill="rgb(2%, 73%, 80%)" fill-opacity="(0.20" stroke="rgb(5%, 5%, 5%)" stroke-opacity="(1.0" stroke-width="0.0500"><g transform="rotate(38.1539, 0.6399, -0.3424)"><path d="M -1 0 L 1 0 M 1 0 L 0.4 0.3 M 1 0 L 0.4 -0.3" transform="translate(0.6399, -0.3424) scale(0.0500)"/></g></g><g fill="rgb(2%, 73%, 80%)" fill-opacity="(0.20" stroke="rgb(5%, 5%, 5%)" stroke-opacity="(1.0" stroke-width="0.0500"><g transform="rotate(41.7039, 0.6399, -0.4301)"><path d="M -1 0 L 1 0 M 1 0 L 0.4 0.3 M 1 0 L 0.4 -0.3" transform="translate(0.6399, -0.4301) scale(0.0500)"/></g></g></g></g><g class="hud"><g class="frame"><g fill="rgb(100%, 100%, 100%)" fill-opacity="(0.020" stroke="rgb(0%, 0%, 0%)" stroke-opacity="(0.0" stroke-width="0"><rect height="0.8770" width="1.3077" x="-0.6025" y="-0.4740"/></g></g><g class="axis"><g class="ticks"><g class="tickglyph"><g fill="rgb(5%, 5%, 5%)" fill-opacity="(0.40" stroke="rgb(5%, 5%, 5%)" stroke-opacity="(0.40" stroke-width="0.0040"><g transform="rotate(-90.0, -0.6286, 0.4030)"><polyline points="-0.6286,0.4180
-0.6286,0.3880"/></g><g transform="rotate(-90.0, -0.6286, 0.3153)"><polyline points="-0.6286,0.3303
-0.6286,0.3003"/></g><g transform="rotate(-90.0, -0.6286, 0.2276)"><polyline points="-0.6286,0.2426
-0.6286,0.2126"/></g><g transform="rotate(-90.0, -0.6286, 0.1399)"><polyline points="-0.6286,0.1549
-0.6286,0.1249"/></g><g transform="rotate(-90.0, -0.6286, 0.0522)"><polyline points="-0.6286,0.0672
-0.6286,0.0372"/></g><g transform="rotate(-90.0, -0.6286, -0.0355)"><polyline points="-0.6286,-0.0205
-0.6286,-0.0505"/></g><g transform="rotate(-90.0, -0.6286, -0.1232)"><polyline points="-0.6286,-0.1082
-0.6286,-0.1382"/></g><g transform="rotate(-90.0, -0.6286, -0.2109)"><polyline points="-0.6286,-0.1959
-0.6286,-0.2259"/></g><g transform="rotate(-90.0, -0.6286, -0.2986)"><polyline points="-0.6286,-0.2836
-0.6286,-0.3136"/></g><g transform="rotate(-90.0, -0.6286, -0.3863)"><polyline points="-0.6286,-0.3713
-0.6286,-0.4013"/></g><g transform="rotate(-90.0, -0.6286, -0.4740)"><polyline points="-0.6286,-0.4590
-0.6286,-0.4890"/></g></g></g><g class="ticktext"><g fill="rgb(5%, 5%, 5%)" fill-opacity="(1.0" font-size="0.0436" stroke="none" stroke-width="0.0" text-anchor="end"><text x="-0.66" y="0.4151">-0.5</text><text x="-0.66" y="0.3274">-0.4</text><text x="-0.66" y="0.2397">-0.3</text><text x="-0.66" y="0.1520">-0.2</text><text x="-0.66" y="0.0643">-0.1</text><text x="-0.66" y="-0.0234"> 0.0</text><text x="-0.66" y="-0.1111"> 0.1</text><text x="-0.66" y="-0.1988"> 0.2</text><text x="-0.66" y="-0.2865"> 0.3</text><text x="-0.66" y="-0.3742"> 0.4</text><text x="-0.66" y="-0.4619"> 0.5</text></g></g></g><g class="axisbar"><g fill="rgb(5%, 5%, 5%)" fill-opacity="(0.40" stroke="rgb(0%, 0%, 0%)" stroke-opacity="(0.0" stroke-width="0"><rect height="0.8805" width="0.0035" x="-0.6147" y="-0.4758"/></g></g></g><g class="axis"><g class="ticks"><g class="tickglyph"><g fill="rgb(5%, 5%, 5%)" fill-opacity="(0.40" stroke="rgb(5%, 5%, 5%)" stroke-opacity="(0.40" stroke-width="0.0040"><polyline points="-0.6025,0.4443
-0.6025,0.4143"/><polyline points="-0.4717,0.4443
-0.4717,0.4143"/><polyline points="-0.3409,0.4443
-0.3409,0.4143"/><polyline points="-0.2101,0.4443
-0.2101,0.4143"/><polyline points="-0.0794,0.4443
-0.0794,0.4143"/><polyline points="0.0514,0.4443
0.0514,0.4143"/><polyline points="0.1822,0.4443
0.1822,0.4143"/><polyline points="0.3129,0.4443
0.3129,0.4143"/><polyline points="0.4437,0.4443
0.4437,0.4143"/><polyline points="0.5745,0.4443
0.5745,0.4143"/><polyline points="0.7053,0.4443
0.7053,0.4143"/></g></g><g class="ticktext"><g fill="rgb(5%, 5%, 5%)" fill-opacity="(1.0" font-size="0.0436" stroke="none" stroke-width="0.0" text-anchor="middle"><text x="-0.6025" y="0.485">-0.5</text><text x="-0.4717" y="0.485">-0.4</text><text x="-0.3409" y="0.485">-0.3</text><text x="-0.2101" y="0.485">-0.2</text><text x="-0.0794" y="0.485">-0.1</text><text x="0.0514" y="0.485"> 0.0</text><text x="0.1822" y="0.485"> 0.1</text><text x="0.3129" y="0.485"> 0.2</text><text x="0.4437" y="0.485"> 0.3</text><text x="0.5745" y="0.485"> 0.4</text><text x="0.7053" y="0.485"> 0.5</text></g></g></g><g class="axisbar"><g fill="rgb(5%, 5%, 5%)" fill-opacity="(0.40" stroke="rgb(0%, 0%, 0%)" stroke-opacity="(0.0" stroke-width="0"><rect height="0.0035" width="1.3112" x="-0.6042" y="0.4118"/></g></g></g></g></svg>