<svg xmlns="http://www.w3.org/2000/svg" xmlns:xlink="http://www.w3.org/1999/xlink" width="450" height="300" viewBox="-0.75 -0.5 1.5 1.0"><style>svg {
  color-scheme: light dark;
}
{
  .canvas g, .title g, .axisbar g, .ticktext g, .tickglyph g, .ticklines g, .legendContent g text {
    fill: rgb(5%, 5%, 5%);
  }
  .ticklines g, .tickglyph g, .legendBorder g {
    stroke: rgb(5%, 5%, 5%);
  }
  .legendBorder g {
    fill: rgb(94%, 94%, 94%);
  }
}
@media (prefers-color-scheme:dark) {
  .canvas g, .title g, .axisbar g, .ticktext g, .tickglyph g, .ticklines g, .legendContent g text {
    fill: rgb(94%, 94%, 94%);
  }
  .ticklines g, .tickglyph g, .legendBorder g {
    stroke: rgb(94%, 94%, 94%);
  }
  .legendBorder g {
    fill: rgb(5%, 5%, 5%);
  }
}
svg { font-family: system-ui,-apple-system,"Segoe UI",Roboto,"Helvetica Neue",Arial,"Noto Sans","Liberation Sans",sans-serif,"Apple Color Emoji","Segoe UI Emoji","Segoe UI Symbol","Noto Color Emoji";
}

ticktext { font-family: SFMono-Regular,Menlo,Monaco,Consolas,"Liberation Mono","Courier New",monospace;
}


{
  .arrow g {
    fill: rgba(5%, 5%, 5%, 1.00);
    stroke: rgba(5%, 5%, 5%, 1.00);
  }
}
@media (prefers-color-scheme:dark) {
  .arrow g {
    fill: rgba(94%, 94%, 94%, 1.00);
    stroke: rgba(94%, 94%, 94%, 1.00);
  }
}
</style><g class="chart"><g class="arrow"><g stroke-width="0.0500" stroke="rgb(5%, 5%, 5%)" stroke-opacity="1.0" fill="rgb(2%, 73%, 80%)" fill-opacity="0.2"><g transform="rotate(-41.7039, -0.4249, 0.2736)"><path d="M -1 0 L 1 0 M 1 0 L 0.4 0.3 M 1 0 L 0.4 -0.3" transform="translate(-0.4249, 0.2736) scale(0.0500)"/></g></g><g stroke-width="0.0500" stroke="rgb(5%, 5%, 5%)" stroke-opacity="1.0" fill="rgb(2%, 73%, 80%)" fill-opacity="0.2"><g transform="rotate(-40.7040, -0.4249, 0.2047)"><path d="M -1 0 L 1 0 M 1 0 L 0.4 0.3 M 1 0 L 0.4 -0.3" transform="translate(-0.4249, 0.2047) scale(0.0500)"/></g></g><g stroke-width="0.0500" stroke="rgb(5%, 5%, 5%)" stroke-opacity="1.0" fill="rgb(2%, 73%, 80%)" fill-opacity="0.2"><g transform="rotate(-39.3303, -0.4249, 0.1358)"><path d="M -1 0 L 1 0 M 1 0 L 0.4 0.3 M 1 0 L 0.4 -0.3" transform="translate(-0.4249, 0.1358) scale(0.0500)"/></g></g><g stroke-width="0.0500" stroke="rgb(5%, 5%, 5%)" stroke-opacity="1.0" fill="rgb(2%, 73%, 80%)" fill-opacity="0.2"><g transform="rotate(-37.3282, -0.4249, 0.0669)"><path d="M -1 0 L 1 0 M 1 0 L 0.4 0.3 M 1 0 L 0.4 -0.3" transform="translate(-0.4249, 0.0669) scale(0.0500)"/></g></g><g stroke-width="0.0500" stroke="rgb(5%, 5%, 5%)" stroke-opacity="1.0" fill="rgb(2%, 73%, 80%)" fill-opacity="0.2"><g transform="rotate(-34.1493, -0.4249, -0.0019)"><path d="M -1 0 L 1 0 M 1 0 L 0.4 0.3 M 1 0 L 0.4 -0.3" transform="translate(-0.4249, -0.0019) scale(0.0500)"/></g></g><g stroke-width="0.0500" stroke="rgb(5%, 5%, 5%)" stroke-opacity="1.0" fill="rgb(2%, 73%, 80%)" fill-opacity="0.2"><g transform="rotate(-28.3824, -0.4249, -0.0708)"><path d="M -1 0 L 1 0 M 1 0 L 0.4 0.3 M 1 0 L 0.4 -0.3" transform="translate(-0.4249, -0.0708) scale(0.0500)"/></g></g><g stroke-width="0.0500" stroke="rgb(5%, 5%, 5%)" stroke-opacity="1.0" fill="rgb(2%, 73%, 80%)" fill-opacity="0.2"><g transform="rotate(-15.2740, -0.4249, -0.1397)"><path d="M -1 0 L 1 0 M 1 0 L 0.4 0.3 M 1 0 L 0.4 -0.3" transform="translate(-0.4249, -0.1397) scale(0.0500)"/></g></g><g stroke-width="0.0500" stroke="rgb(5%, 5%, 5%)" stroke-opacity="1.0" fill="rgb(2%, 73%, 80%)" fill-opacity="0.2"><g transform="rotate(24.9171, -0.4249, -0.2085)"><path d="M -1 0 L 1 0 M 1 0 L 0.4 0.3 M 1 0 L 0.4 -0.3" transform="translate(-0.4249, -0.2085) scale(0.0500)"/></g></g><g stroke-width="0.0500" stroke="rgb(5%, 5%, 5%)" stroke-opacity="1.0" fill="rgb(2%, 73%, 80%)" fill-opacity="0.2"><g transform="rotate(85.2524, -0.4249, -0.2774)"><path d="M -1 0 L 1 0 M 1 0 L 0.4 0.3 M 1 0 L 0.4 -0.3" transform="translate(-0.4249, -0.2774) scale(0.0500)"/></g></g><g stroke-width="0.0500" stroke="rgb(5%, 5%, 5%)" stroke-opacity="1.0" fill="rgb(2%, 73%, 80%)" fill-opacity="0.2"><g transform="rotate(107.4397, -0.4249, -0.3463)"><path d="M -1 0 L 1 0 M 1 0 L 0.4 0.3 M 1 0 L 0.4 -0.3" transform="translate(-0.4249, -0.3463) scale(0.0500)"/></g></g><g stroke-width="0.0500" stroke="rgb(5%, 5%, 5%)" stroke-opacity="1.0" fill="rgb(2%, 73%, 80%)" fill-opacity="0.2"><g transform="rotate(-46.8993, -0.3201, 0.2736)"><path d="M -1 0 L 1 0 M 1 0 L 0.4 0.3 M 1 0 L 0.4 -0.3" transform="translate(-0.3201, 0.2736) scale(0.0500)"/></g></g><g stroke-width="0.0500" stroke="rgb(5%, 5%, 5%)" stroke-opacity="1.0" fill="rgb(2%, 73%, 80%)" fill-opacity="0.2"><g transform="rotate(-45.4122, -0.3201, 0.2047)"><path d="M -1 0 L 1 0 M 1 0 L 0.4 0.3 M 1 0 L 0.4 -0.3" transform="translate(-0.3201, 0.2047) scale(0.0500)"/></g></g><g stroke-width="0.0500" stroke="rgb(5%, 5%, 5%)" stroke-opacity="1.0" fill="rgb(2%, 73%, 80%)" fill-opacity="0.2"><g transform="rotate(-43.2666, -0.3201, 0.1358)"><path d="M -1 0 L 1 0 M 1 0 L 0.4 0.3 M 1 0 L 0.4 -0.3" transform="translate(-0.3201, 0.1358) scale(0.0500)"/></g></g><g stroke-width="0.0500" stroke="rgb(5%, 5%, 5%)" stroke-opacity="1.0" fill="rgb(2%, 73%, 80%)" fill-opacity="0.2"><g transform="rotate(-39.9135, -0.3201, 0.0669)"><path d="M -1 0 L 1 0 M 1 0 L 0.4 0.3 M 1 0 L 0.4 -0.3" transform="translate(-0.3201, 0.0669) scale(0.0500)"/></g></g><g stroke-width="0.0500" stroke="rgb(5%, 5%, 5%)" stroke-opacity="1.0" fill="rgb(2%, 73%, 80%)" fill-opacity="0.2"><g transform="rotate(-33.9991, -0.3201, -0.0019)"><path d="M -1 0 L 1 0 M 1 0 L 0.4 0.3 M 1 0 L 0.4 -0.3" transform="translate(-0.3201, -0.0019) scale(0.0500)"/></g></g><g stroke-width="0.0500" stroke="rgb(5%, 5%, 5%)" stroke-opacity="1.0" fill="rgb(2%, 73%, 80%)" fill-opacity="0.2"><g transform="rotate(-21.3212, -0.3201, -0.0708)"><path d="M -1 0 L 1 0 M 1 0 L 0.4 0.3 M 1 0 L 0.4 -0.3" transform="translate(-0.3201, -0.0708) scale(0.0500)"/></g></g><g stroke-width="0.0500" stroke="rgb(5%, 5%, 5%)" stroke-opacity="1.0" fill="rgb(2%, 73%, 80%)" fill-opacity="0.2"><g transform="rotate(13.3646, -0.3201, -0.1397)"><path d="M -1 0 L 1 0 M 1 0 L 0.4 0.3 M 1 0 L 0.4 -0.3" transform="translate(-0.3201, -0.1397) scale(0.0500)"/></g></g><g stroke-width="0.0500" stroke="rgb(5%, 5%, 5%)" stroke-opacity="1.0" fill="rgb(2%, 73%, 80%)" fill-opacity="0.2"><g transform="rotate(70.2608, -0.3201, -0.2085)"><path d="M -1 0 L 1 0 M 1 0 L 0.4 0.3 M 1 0 L 0.4 -0.3" transform="translate(-0.3201, -0.2085) scale(0.0500)"/></g></g><g stroke-width="0.0500" stroke="rgb(5%, 5%, 5%)" stroke-opacity="1.0" fill="rgb(2%, 73%, 80%)" fill-opacity="0.2"><g transform="rotate(96.0844, -0.3201, -0.2774)"><path d="M -1 0 L 1 0 M 1 0 L 0.4 0.3 M 1 0 L 0.4 -0.3" transform="translate(-0.3201, -0.2774) scale(0.0500)"/></g></g><g stroke-width="0.0500" stroke="rgb(5%, 5%, 5%)" stroke-opacity="1.0" fill="rgb(2%, 73%, 80%)" fill-opacity="0.2"><g transform="rotate(106.0551, -0.3201, -0.3463)"><path d="M -1 0 L 1 0 M 1 0 L 0.4 0.3 M 1 0 L 0.4 -0.3" transform="translate(-0.3201, -0.3463) scale(0.0500)"/></g></g><g stroke-width="0.0500" stroke="rgb(5%, 5%, 5%)" stroke-opacity="1.0" fill="rgb(2%, 73%, 80%)" fill-opacity="0.2"><g transform="rotate(-53.3544, -0.2152, 0.2736)"><path d="M -1 0 L 1 0 M 1 0 L 0.4 0.3 M 1 0 L 0.4 -0.3" transform="translate(-0.2152, 0.2736) scale(0.0500)"/></g></g><g stroke-width="0.0500" stroke="rgb(5%, 5%, 5%)" stroke-opacity="1.0" fill="rgb(2%, 73%, 80%)" fill-opacity="0.2"><g transform="rotate(-51.2345, -0.2152, 0.2047)"><path d="M -1 0 L 1 0 M 1 0 L 0.4 0.3 M 1 0 L 0.4 -0.3" transform="translate(-0.2152, 0.2047) scale(0.0500)"/></g></g><g stroke-width="0.0500" stroke="rgb(5%, 5%, 5%)" stroke-opacity="1.0" fill="rgb(2%, 73%, 80%)" fill-opacity="0.2"><g transform="rotate(-48.0128, -0.2152, 0.1358)"><path d="M -1 0 L 1 0 M 1 0 L 0.4 0.3 M 1 0 L 0.4 -0.3" transform="translate(-0.2152, 0.1358) scale(0.0500)"/></g></g><g stroke-width="0.0500" stroke="rgb(5%, 5%, 5%)" stroke-opacity="1.0" fill="rgb(2%, 73%, 80%)" fill-opacity="0.2"><g transform="rotate(-42.5805, -0.2152, 0.0669)"><path d="M -1 0 L 1 0 M 1 0 L 0.4 0.3 M 1 0 L 0.4 -0.3" transform="translate(-0.2152, 0.0669) scale(0.0500)"/></g></g><g stroke-width="0.0500" stroke="rgb(5%, 5%, 5%)" stroke-opacity="1.0" fill="rgb(2%, 73%, 80%)" fill-opacity="0.2"><g transform="rotate(-31.8274, -0.2152, -0.0019)"><path d="M -1 0 L 1 0 M 1 0 L 0.4 0.3 M 1 0 L 0.4 -0.3" transform="translate(-0.2152, -0.0019) scale(0.0500)"/></g></g><g stroke-width="0.0500" stroke="rgb(5%, 5%, 5%)" stroke-opacity="1.0" fill="rgb(2%, 73%, 80%)" fill-opacity="0.2"><g transform="rotate(-5.4403, -0.2152, -0.0708)"><path d="M -1 0 L 1 0 M 1 0 L 0.4 0.3 M 1 0 L 0.4 -0.3" transform="translate(-0.2152, -0.0708) scale(0.0500)"/></g></g><g stroke-width="0.0500" stroke="rgb(5%, 5%, 5%)" stroke-opacity="1.0" fill="rgb(2%, 73%, 80%)" fill-opacity="0.2"><g transform="rotate(47.1211, -0.2152, -0.1397)"><path d="M -1 0 L 1 0 M 1 0 L 0.4 0.3 M 1 0 L 0.4 -0.3" transform="translate(-0.2152, -0.1397) scale(0.0500)"/></g></g><g stroke-width="0.0500" stroke="rgb(5%, 5%, 5%)" stroke-opacity="1.0" fill="rgb(2%, 73%, 80%)" fill-opacity="0.2"><g transform="rotate(80.5377, -0.2152, -0.2085)"><path d="M -1 0 L 1 0 M 1 0 L 0.4 0.3 M 1 0 L 0.4 -0.3" transform="translate(-0.2152, -0.2085) scale(0.0500)"/></g></g><g stroke-width="0.0500" stroke="rgb(5%, 5%, 5%)" stroke-opacity="1.0" fill="rgb(2%, 73%, 80%)" fill-opacity="0.2"><g transform="rotate(93.7314, -0.2152, -0.2774)"><path d="M -1 0 L 1 0 M 1 0 L 0.4 0.3 M 1 0 L 0.4 -0.3" transform="translate(-0.2152, -0.2774) scale(0.0500)"/></g></g><g stroke-width="0.0500" stroke="rgb(5%, 5%, 5%)" stroke-opacity="1.0" fill="rgb(2%, 73%, 80%)" fill-opacity="0.2"><g transform="rotate(100.0607, -0.2152, -0.3463)"><path d="M -1 0 L 1 0 M 1 0 L 0.4 0.3 M 1 0 L 0.4 -0.3" transform="translate(-0.2152, -0.3463) scale(0.0500)"/></g></g><g stroke-width="0.0500" stroke="rgb(5%, 5%, 5%)" stroke-opacity="1.0" fill="rgb(2%, 73%, 80%)" fill-opacity="0.2"><g transform="rotate(-61.4810, -0.1103, 0.2736)"><path d="M -1 0 L 1 0 M 1 0 L 0.4 0.3 M 1 0 L 0.4 -0.3" transform="translate(-0.1103, 0.2736) scale(0.0500)"/></g></g><g stroke-width="0.0500" stroke="rgb(5%, 5%, 5%)" stroke-opacity="1.0" fill="rgb(2%, 73%, 80%)" fill-opacity="0.2"><g transform="rotate(-58.6701, -0.1103, 0.2047)"><path d="M -1 0 L 1 0 M 1 0 L 0.4 0.3 M 1 0 L 0.4 -0.3" transform="translate(-0.1103, 0.2047) scale(0.0500)"/></g></g><g stroke-width="0.0500" stroke="rgb(5%, 5%, 5%)" stroke-opacity="1.0" fill="rgb(2%, 73%, 80%)" fill-opacity="0.2"><g transform="rotate(-54.1700, -0.1103, 0.1358)"><path d="M -1 0 L 1 0 M 1 0 L 0.4 0.3 M 1 0 L 0.4 -0.3" transform="translate(-0.1103, 0.1358) scale(0.0500)"/></g></g><g stroke-width="0.0500" stroke="rgb(5%, 5%, 5%)" stroke-opacity="1.0" fill="rgb(2%, 73%, 80%)" fill-opacity="0.2"><g transform="rotate(-45.9710, -0.1103, 0.0669)"><path d="M -1 0 L 1 0 M 1 0 L 0.4 0.3 M 1 0 L 0.4 -0.3" transform="translate(-0.1103, 0.0669) scale(0.0500)"/></g></g><g stroke-width="0.0500" stroke="rgb(5%, 5%, 5%)" stroke-opacity="1.0" fill="rgb(2%, 73%, 80%)" fill-opacity="0.2"><g transform="rotate(-27.9309, -0.1103, -0.0019)"><path d="M -1 0 L 1 0 M 1 0 L 0.4 0.3 M 1 0 L 0.4 -0.3" transform="translate(-0.1103, -0.0019) scale(0.0500)"/></g></g><g stroke-width="0.0500" stroke="rgb(5%, 5%, 5%)" stroke-opacity="1.0" fill="rgb(2%, 73%, 80%)" fill-opacity="0.2"><g transform="rotate(14.4459, -0.1103, -0.0708)"><path d="M -1 0 L 1 0 M 1 0 L 0.4 0.3 M 1 0 L 0.4 -0.3" transform="translate(-0.1103, -0.0708) scale(0.0500)"/></g></g><g stroke-width="0.0500" stroke="rgb(5%, 5%, 5%)" stroke-opacity="1.0" fill="rgb(2%, 73%, 80%)" fill-opacity="0.2"><g transform="rotate(58.9537, -0.1103, -0.1397)"><path d="M -1 0 L 1 0 M 1 0 L 0.4 0.3 M 1 0 L 0.4 -0.3" transform="translate(-0.1103, -0.1397) scale(0.0500)"/></g></g><g stroke-width="0.0500" stroke="rgb(5%, 5%, 5%)" stroke-opacity="1.0" fill="rgb(2%, 73%, 80%)" fill-opacity="0.2"><g transform="rotate(78.3877, -0.1103, -0.2085)"><path d="M -1 0 L 1 0 M 1 0 L 0.4 0.3 M 1 0 L 0.4 -0.3" transform="translate(-0.1103, -0.2085) scale(0.0500)"/></g></g><g stroke-width="0.0500" stroke="rgb(5%, 5%, 5%)" stroke-opacity="1.0" fill="rgb(2%, 73%, 80%)" fill-opacity="0.2"><g transform="rotate(87.0722, -0.1103, -0.2774)"><path d="M -1 0 L 1 0 M 1 0 L 0.4 0.3 M 1 0 L 0.4 -0.3" transform="translate(-0.1103, -0.2774) scale(0.0500)"/></g></g><g stroke-width="0.0500" stroke="rgb(5%, 5%, 5%)" stroke-opacity="1.0" fill="rgb(2%, 73%, 80%)" fill-opacity="0.2"><g transform="rotate(91.7753, -0.1103, -0.3463)"><path d="M -1 0 L 1 0 M 1 0 L 0.4 0.3 M 1 0 L 0.4 -0.3" transform="translate(-0.1103, -0.3463) scale(0.0500)"/></g></g><g stroke-width="0.0500" stroke="rgb(5%, 5%, 5%)" stroke-opacity="1.0" fill="rgb(2%, 73%, 80%)" fill-opacity="0.2"><g transform="rotate(-71.6316, -0.0055, 0.2736)"><path d="M -1 0 L 1 0 M 1 0 L 0.4 0.3 M 1 0 L 0.4 -0.3" transform="translate(-0.0055, 0.2736) scale(0.0500)"/></g></g><g stroke-width="0.0500" stroke="rgb(5%, 5%, 5%)" stroke-opacity="1.0" fill="rgb(2%, 73%, 80%)" fill-opacity="0.2"><g transform="rotate(-68.3038, -0.0055, 0.2047)"><path d="M -1 0 L 1 0 M 1 0 L 0.4 0.3 M 1 0 L 0.4 -0.3" transform="translate(-0.0055, 0.2047) scale(0.0500)"/></g></g><g stroke-width="0.0500" stroke="rgb(5%, 5%, 5%)" stroke-opacity="1.0" fill="rgb(2%, 73%, 80%)" fill-opacity="0.2"><g transform="rotate(-62.7134, -0.0055, 0.1358)"><path d="M -1 0 L 1 0 M 1 0 L 0.4 0.3 M 1 0 L 0.4 -0.3" transform="translate(-0.0055, 0.1358) scale(0.0500)"/></g></g><g stroke-width="0.0500" stroke="rgb(5%, 5%, 5%)" stroke-opacity="1.0" fill="rgb(2%, 73%, 80%)" fill-opacity="0.2"><g transform="rotate(-51.7434, -0.0055, 0.0669)"><path d="M -1 0 L 1 0 M 1 0 L 0.4 0.3 M 1 0 L 0.4 -0.3" transform="translate(-0.0055, 0.0669) scale(0.0500)"/></g></g><g stroke-width="0.0500" stroke="rgb(5%, 5%, 5%)" stroke-opacity="1.0" fill="rgb(2%, 73%, 80%)" fill-opacity="0.2"><g transform="rotate(-25.4633, -0.0055, -0.0019)"><path d="M -1 0 L 1 0 M 1 0 L 0.4 0.3 M 1 0 L 0.4 -0.3" transform="translate(-0.0055, -0.0019) scale(0.0500)"/></g></g><g stroke-width="0.0500" stroke="rgb(5%, 5%, 5%)" stroke-opacity="1.0" fill="rgb(2%, 73%, 80%)" fill-opacity="0.2"><g transform="rotate(25.3523, -0.0055, -0.0708)"><path d="M -1 0 L 1 0 M 1 0 L 0.4 0.3 M 1 0 L 0.4 -0.3" transform="translate(-0.0055, -0.0708) scale(0.0500)"/></g></g><g stroke-width="0.0500" stroke="rgb(5%, 5%, 5%)" stroke-opacity="1.0" fill="rgb(2%, 73%, 80%)" fill-opacity="0.2"><g transform="rotate(58.5390, -0.0055, -0.1397)"><path d="M -1 0 L 1 0 M 1 0 L 0.4 0.3 M 1 0 L 0.4 -0.3" transform="translate(-0.0055, -0.1397) scale(0.0500)"/></g></g><g stroke-width="0.0500" stroke="rgb(5%, 5%, 5%)" stroke-opacity="1.0" fill="rgb(2%, 73%, 80%)" fill-opacity="0.2"><g transform="rotate(72.0351, -0.0055, -0.2085)"><path d="M -1 0 L 1 0 M 1 0 L 0.4 0.3 M 1 0 L 0.4 -0.3" transform="translate(-0.0055, -0.2085) scale(0.0500)"/></g></g><g stroke-width="0.0500" stroke="rgb(5%, 5%, 5%)" stroke-opacity="1.0" fill="rgb(2%, 73%, 80%)" fill-opacity="0.2"><g transform="rotate(78.5712, -0.0055, -0.2774)"><path d="M -1 0 L 1 0 M 1 0 L 0.4 0.3 M 1 0 L 0.4 -0.3" transform="translate(-0.0055, -0.2774) scale(0.0500)"/></g></g><g stroke-width="0.0500" stroke="rgb(5%, 5%, 5%)" stroke-opacity="1.0" fill="rgb(2%, 73%, 80%)" fill-opacity="0.2"><g transform="rotate(82.3320, -0.0055, -0.3463)"><path d="M -1 0 L 1 0 M 1 0 L 0.4 0.3 M 1 0 L 0.4 -0.3" transform="translate(-0.0055, -0.3463) scale(0.0500)"/></g></g><g stroke-width="0.0500" stroke="rgb(5%, 5%, 5%)" stroke-opacity="1.0" fill="rgb(2%, 73%, 80%)" fill-opacity="0.2"><g transform="rotate(-83.7258, 0.0994, 0.2736)"><path d="M -1 0 L 1 0 M 1 0 L 0.4 0.3 M 1 0 L 0.4 -0.3" transform="translate(0.0994, 0.2736) scale(0.0500)"/></g></g><g stroke-width="0.0500" stroke="rgb(5%, 5%, 5%)" stroke-opacity="1.0" fill="rgb(2%, 73%, 80%)" fill-opacity="0.2"><g transform="rotate(-80.3796, 0.0994, 0.2047)"><path d="M -1 0 L 1 0 M 1 0 L 0.4 0.3 M 1 0 L 0.4 -0.3" transform="translate(0.0994, 0.2047) scale(0.0500)"/></g></g><g stroke-width="0.0500" stroke="rgb(5%, 5%, 5%)" stroke-opacity="1.0" fill="rgb(2%, 73%, 80%)" fill-opacity="0.2"><g transform="rotate(-74.5578, 0.0994, 0.1358)"><path d="M -1 0 L 1 0 M 1 0 L 0.4 0.3 M 1 0 L 0.4 -0.3" transform="translate(0.0994, 0.1358) scale(0.0500)"/></g></g><g stroke-width="0.0500" stroke="rgb(5%, 5%, 5%)" stroke-opacity="1.0" fill="rgb(2%, 73%, 80%)" fill-opacity="0.2"><g transform="rotate(-62.3926, 0.0994, 0.0669)"><path d="M -1 0 L 1 0 M 1 0 L 0.4 0.3 M 1 0 L 0.4 -0.3" transform="translate(0.0994, 0.0669) scale(0.0500)"/></g></g><g stroke-width="0.0500" stroke="rgb(5%, 5%, 5%)" stroke-opacity="1.0" fill="rgb(2%, 73%, 80%)" fill-opacity="0.2"><g transform="rotate(-30.3259, 0.0994, -0.0019)"><path d="M -1 0 L 1 0 M 1 0 L 0.4 0.3 M 1 0 L 0.4 -0.3" transform="translate(0.0994, -0.0019) scale(0.0500)"/></g></g><g stroke-width="0.0500" stroke="rgb(5%, 5%, 5%)" stroke-opacity="1.0" fill="rgb(2%, 73%, 80%)" fill-opacity="0.2"><g transform="rotate(25.4633, 0.0994, -0.0708)"><path d="M -1 0 L 1 0 M 1 0 L 0.4 0.3 M 1 0 L 0.4 -0.3" transform="translate(0.0994, -0.0708) scale(0.0500)"/></g></g><g stroke-width="0.0500" stroke="rgb(5%, 5%, 5%)" stroke-opacity="1.0" fill="rgb(2%, 73%, 80%)" fill-opacity="0.2"><g transform="rotate(53.3483, 0.0994, -0.1397)"><path d="M -1 0 L 1 0 M 1 0 L 0.4 0.3 M 1 0 L 0.4 -0.3" transform="translate(0.0994, -0.1397) scale(0.0500)"/></g></g><g stroke-width="0.0500" stroke="rgb(5%, 5%, 5%)" stroke-opacity="1.0" fill="rgb(2%, 73%, 80%)" fill-opacity="0.2"><g transform="rotate(64.1805, 0.0994, -0.2085)"><path d="M -1 0 L 1 0 M 1 0 L 0.4 0.3 M 1 0 L 0.4 -0.3" transform="translate(0.0994, -0.2085) scale(0.0500)"/></g></g><g stroke-width="0.0500" stroke="rgb(5%, 5%, 5%)" stroke-opacity="1.0" fill="rgb(2%, 73%, 80%)" fill-opacity="0.2"><g transform="rotate(69.5253, 0.0994, -0.2774)"><path d="M -1 0 L 1 0 M 1 0 L 0.4 0.3 M 1 0 L 0.4 -0.3" transform="translate(0.0994, -0.2774) scale(0.0500)"/></g></g><g stroke-width="0.0500" stroke="rgb(5%, 5%, 5%)" stroke-opacity="1.0" fill="rgb(2%, 73%, 80%)" fill-opacity="0.2"><g transform="rotate(72.6569, 0.0994, -0.3463)"><path d="M -1 0 L 1 0 M 1 0 L 0.4 0.3 M 1 0 L 0.4 -0.3" transform="translate(0.0994, -0.3463) scale(0.0500)"/></g></g><g stroke-width="0.0500" stroke="rgb(5%, 5%, 5%)" stroke-opacity="1.0" fill="rgb(2%, 73%, 80%)" fill-opacity="0.2"><g transform="rotate(-96.8488, 0.2043, 0.2736)"><path d="M -1 0 L 1 0 M 1 0 L 0.4 0.3 M 1 0 L 0.4 -0.3" transform="translate(0.2043, 0.2736) scale(0.0500)"/></g></g><g stroke-width="0.0500" stroke="rgb(5%, 5%, 5%)" stroke-opacity="1.0" fill="rgb(2%, 73%, 80%)" fill-opacity="0.2"><g transform="rotate(-94.1075, 0.2043, 0.2047)"><path d="M -1 0 L 1 0 M 1 0 L 0.4 0.3 M 1 0 L 0.4 -0.3" transform="translate(0.2043, 0.2047) scale(0.0500)"/></g></g><g stroke-width="0.0500" stroke="rgb(5%, 5%, 5%)" stroke-opacity="1.0" fill="rgb(2%, 73%, 80%)" fill-opacity="0.2"><g transform="rotate(-89.3167, 0.2043, 0.1358)"><path d="M -1 0 L 1 0 M 1 0 L 0.4 0.3 M 1 0 L 0.4 -0.3" transform="translate(0.2043, 0.1358) scale(0.0500)"/></g></g><g stroke-width="0.0500" stroke="rgb(5%, 5%, 5%)" stroke-opacity="1.0" fill="rgb(2%, 73%, 80%)" fill-opacity="0.2"><g transform="rotate(-79.0898, 0.2043, 0.0669)"><path d="M -1 0 L 1 0 M 1 0 L 0.4 0.3 M 1 0 L 0.4 -0.3" transform="translate(0.2043, 0.0669) scale(0.0500)"/></g></g><g stroke-width="0.0500" stroke="rgb(5%, 5%, 5%)" stroke-opacity="1.0" fill="rgb(2%, 73%, 80%)" fill-opacity="0.2"><g transform="rotate(-48.8981, 0.2043, -0.0019)"><path d="M -1 0 L 1 0 M 1 0 L 0.4 0.3 M 1 0 L 0.4 -0.3" transform="translate(0.2043, -0.0019) scale(0.0500)"/></g></g><g stroke-width="0.0500" stroke="rgb(5%, 5%, 5%)" stroke-opacity="1.0" fill="rgb(2%, 73%, 80%)" fill-opacity="0.2"><g transform="rotate(16.4311, 0.2043, -0.0708)"><path d="M -1 0 L 1 0 M 1 0 L 0.4 0.3 M 1 0 L 0.4 -0.3" transform="translate(0.2043, -0.0708) scale(0.0500)"/></g></g><g stroke-width="0.0500" stroke="rgb(5%, 5%, 5%)" stroke-opacity="1.0" fill="rgb(2%, 73%, 80%)" fill-opacity="0.2"><g transform="rotate(45.9710, 0.2043, -0.1397)"><path d="M -1 0 L 1 0 M 1 0 L 0.4 0.3 M 1 0 L 0.4 -0.3" transform="translate(0.2043, -0.1397) scale(0.0500)"/></g></g><g stroke-width="0.0500" stroke="rgb(5%, 5%, 5%)" stroke-opacity="1.0" fill="rgb(2%, 73%, 80%)" fill-opacity="0.2"><g transform="rotate(56.0348, 0.2043, -0.2085)"><path d="M -1 0 L 1 0 M 1 0 L 0.4 0.3 M 1 0 L 0.4 -0.3" transform="translate(0.2043, -0.2085) scale(0.0500)"/></g></g><g stroke-width="0.0500" stroke="rgb(5%, 5%, 5%)" stroke-opacity="1.0" fill="rgb(2%, 73%, 80%)" fill-opacity="0.2"><g transform="rotate(60.7712, 0.2043, -0.2774)"><path d="M -1 0 L 1 0 M 1 0 L 0.4 0.3 M 1 0 L 0.4 -0.3" transform="translate(0.2043, -0.2774) scale(0.0500)"/></g></g><g stroke-width="0.0500" stroke="rgb(5%, 5%, 5%)" stroke-opacity="1.0" fill="rgb(2%, 73%, 80%)" fill-opacity="0.2"><g transform="rotate(63.4886, 0.2043, -0.3463)"><path d="M -1 0 L 1 0 M 1 0 L 0.4 0.3 M 1 0 L 0.4 -0.3" transform="translate(0.2043, -0.3463) scale(0.0500)"/></g></g><g stroke-width="0.0500" stroke="rgb(5%, 5%, 5%)" stroke-opacity="1.0" fill="rgb(2%, 73%, 80%)" fill-opacity="0.2"><g transform="rotate(-109.4766, 0.3091, 0.2736)"><path d="M -1 0 L 1 0 M 1 0 L 0.4 0.3 M 1 0 L 0.4 -0.3" transform="translate(0.3091, 0.2736) scale(0.0500)"/></g></g><g stroke-width="0.0500" stroke="rgb(5%, 5%, 5%)" stroke-opacity="1.0" fill="rgb(2%, 73%, 80%)" fill-opacity="0.2"><g transform="rotate(-107.6501, 0.3091, 0.2047)"><path d="M -1 0 L 1 0 M 1 0 L 0.4 0.3 M 1 0 L 0.4 -0.3" transform="translate(0.3091, 0.2047) scale(0.0500)"/></g></g><g stroke-width="0.0500" stroke="rgb(5%, 5%, 5%)" stroke-opacity="1.0" fill="rgb(2%, 73%, 80%)" fill-opacity="0.2"><g transform="rotate(-104.5742, 0.3091, 0.1358)"><path d="M -1 0 L 1 0 M 1 0 L 0.4 0.3 M 1 0 L 0.4 -0.3" transform="translate(0.3091, 0.1358) scale(0.0500)"/></g></g><g stroke-width="0.0500" stroke="rgb(5%, 5%, 5%)" stroke-opacity="1.0" fill="rgb(2%, 73%, 80%)" fill-opacity="0.2"><g transform="rotate(-98.3659, 0.3091, 0.0669)"><path d="M -1 0 L 1 0 M 1 0 L 0.4 0.3 M 1 0 L 0.4 -0.3" transform="translate(0.3091, 0.0669) scale(0.0500)"/></g></g><g stroke-width="0.0500" stroke="rgb(5%, 5%, 5%)" stroke-opacity="1.0" fill="rgb(2%, 73%, 80%)" fill-opacity="0.2"><g transform="rotate(-80.5377, 0.3091, -0.0019)"><path d="M -1 0 L 1 0 M 1 0 L 0.4 0.3 M 1 0 L 0.4 -0.3" transform="translate(0.3091, -0.0019) scale(0.0500)"/></g></g><g stroke-width="0.0500" stroke="rgb(5%, 5%, 5%)" stroke-opacity="1.0" fill="rgb(2%, 73%, 80%)" fill-opacity="0.2"><g transform="rotate(-10.3048, 0.3091, -0.0708)"><path d="M -1 0 L 1 0 M 1 0 L 0.4 0.3 M 1 0 L 0.4 -0.3" transform="translate(0.3091, -0.0708) scale(0.0500)"/></g></g><g stroke-width="0.0500" stroke="rgb(5%, 5%, 5%)" stroke-opacity="1.0" fill="rgb(2%, 73%, 80%)" fill-opacity="0.2"><g transform="rotate(36.3844, 0.3091, -0.1397)"><path d="M -1 0 L 1 0 M 1 0 L 0.4 0.3 M 1 0 L 0.4 -0.3" transform="translate(0.3091, -0.1397) scale(0.0500)"/></g></g><g stroke-width="0.0500" stroke="rgb(5%, 5%, 5%)" stroke-opacity="1.0" fill="rgb(2%, 73%, 80%)" fill-opacity="0.2"><g transform="rotate(48.0128, 0.3091, -0.2085)"><path d="M -1 0 L 1 0 M 1 0 L 0.4 0.3 M 1 0 L 0.4 -0.3" transform="translate(0.3091, -0.2085) scale(0.0500)"/></g></g><g stroke-width="0.0500" stroke="rgb(5%, 5%, 5%)" stroke-opacity="1.0" fill="rgb(2%, 73%, 80%)" fill-opacity="0.2"><g transform="rotate(52.7336, 0.3091, -0.2774)"><path d="M -1 0 L 1 0 M 1 0 L 0.4 0.3 M 1 0 L 0.4 -0.3" transform="translate(0.3091, -0.2774) scale(0.0500)"/></g></g><g stroke-width="0.0500" stroke="rgb(5%, 5%, 5%)" stroke-opacity="1.0" fill="rgb(2%, 73%, 80%)" fill-opacity="0.2"><g transform="rotate(55.2568, 0.3091, -0.3463)"><path d="M -1 0 L 1 0 M 1 0 L 0.4 0.3 M 1 0 L 0.4 -0.3" transform="translate(0.3091, -0.3463) scale(0.0500)"/></g></g><g stroke-width="0.0500" stroke="rgb(5%, 5%, 5%)" stroke-opacity="1.0" fill="rgb(2%, 73%, 80%)" fill-opacity="0.2"><g transform="rotate(-120.3900, 0.4140, 0.2736)"><path d="M -1 0 L 1 0 M 1 0 L 0.4 0.3 M 1 0 L 0.4 -0.3" transform="translate(0.4140, 0.2736) scale(0.0500)"/></g></g><g stroke-width="0.0500" stroke="rgb(5%, 5%, 5%)" stroke-opacity="1.0" fill="rgb(2%, 73%, 80%)" fill-opacity="0.2"><g transform="rotate(-119.3549, 0.4140, 0.2047)"><path d="M -1 0 L 1 0 M 1 0 L 0.4 0.3 M 1 0 L 0.4 -0.3" transform="translate(0.4140, 0.2047) scale(0.0500)"/></g></g><g stroke-width="0.0500" stroke="rgb(5%, 5%, 5%)" stroke-opacity="1.0" fill="rgb(2%, 73%, 80%)" fill-opacity="0.2"><g transform="rotate(-117.7221, 0.4140, 0.1358)"><path d="M -1 0 L 1 0 M 1 0 L 0.4 0.3 M 1 0 L 0.4 -0.3" transform="translate(0.4140, 0.1358) scale(0.0500)"/></g></g><g stroke-width="0.0500" stroke="rgb(5%, 5%, 5%)" stroke-opacity="1.0" fill="rgb(2%, 73%, 80%)" fill-opacity="0.2"><g transform="rotate(-114.7718, 0.4140, 0.0669)"><path d="M -1 0 L 1 0 M 1 0 L 0.4 0.3 M 1 0 L 0.4 -0.3" transform="translate(0.4140, 0.0669) scale(0.0500)"/></g></g><g stroke-width="0.0500" stroke="rgb(5%, 5%, 5%)" stroke-opacity="1.0" fill="rgb(2%, 73%, 80%)" fill-opacity="0.2"><g transform="rotate(-107.9102, 0.4140, -0.0019)"><path d="M -1 0 L 1 0 M 1 0 L 0.4 0.3 M 1 0 L 0.4 -0.3" transform="translate(0.4140, -0.0019) scale(0.0500)"/></g></g><g stroke-width="0.0500" stroke="rgb(5%, 5%, 5%)" stroke-opacity="1.0" fill="rgb(2%, 73%, 80%)" fill-opacity="0.2"><g transform="rotate(-78.8802, 0.4140, -0.0708)"><path d="M -1 0 L 1 0 M 1 0 L 0.4 0.3 M 1 0 L 0.4 -0.3" transform="translate(0.4140, -0.0708) scale(0.0500)"/></g></g><g stroke-width="0.0500" stroke="rgb(5%, 5%, 5%)" stroke-opacity="1.0" fill="rgb(2%, 73%, 80%)" fill-opacity="0.2"><g transform="rotate(18.0772, 0.4140, -0.1397)"><path d="M -1 0 L 1 0 M 1 0 L 0.4 0.3 M 1 0 L 0.4 -0.3" transform="translate(0.4140, -0.1397) scale(0.0500)"/></g></g><g stroke-width="0.0500" stroke="rgb(5%, 5%, 5%)" stroke-opacity="1.0" fill="rgb(2%, 73%, 80%)" fill-opacity="0.2"><g transform="rotate(39.5765, 0.4140, -0.2085)"><path d="M -1 0 L 1 0 M 1 0 L 0.4 0.3 M 1 0 L 0.4 -0.3" transform="translate(0.4140, -0.2085) scale(0.0500)"/></g></g><g stroke-width="0.0500" stroke="rgb(5%, 5%, 5%)" stroke-opacity="1.0" fill="rgb(2%, 73%, 80%)" fill-opacity="0.2"><g transform="rotate(45.4122, 0.4140, -0.2774)"><path d="M -1 0 L 1 0 M 1 0 L 0.4 0.3 M 1 0 L 0.4 -0.3" transform="translate(0.4140, -0.2774) scale(0.0500)"/></g></g><g stroke-width="0.0500" stroke="rgb(5%, 5%, 5%)" stroke-opacity="1.0" fill="rgb(2%, 73%, 80%)" fill-opacity="0.2"><g transform="rotate(48.0612, 0.4140, -0.3463)"><path d="M -1 0 L 1 0 M 1 0 L 0.4 0.3 M 1 0 L 0.4 -0.3" transform="translate(0.4140, -0.3463) scale(0.0500)"/></g></g><g stroke-width="0.0500" stroke="rgb(5%, 5%, 5%)" stroke-opacity="1.0" fill="rgb(2%, 73%, 80%)" fill-opacity="0.2"><g transform="rotate(-129.2044, 0.5189, 0.2736)"><path d="M -1 0 L 1 0 M 1 0 L 0.4 0.3 M 1 0 L 0.4 -0.3" transform="translate(0.5189, 0.2736) scale(0.0500)"/></g></g><g stroke-width="0.0500" stroke="rgb(5%, 5%, 5%)" stroke-opacity="1.0" fill="rgb(2%, 73%, 80%)" fill-opacity="0.2"><g transform="rotate(-128.6756, 0.5189, 0.2047)"><path d="M -1 0 L 1 0 M 1 0 L 0.4 0.3 M 1 0 L 0.4 -0.3" transform="translate(0.5189, 0.2047) scale(0.0500)"/></g></g><g stroke-width="0.0500" stroke="rgb(5%, 5%, 5%)" stroke-opacity="1.0" fill="rgb(2%, 73%, 80%)" fill-opacity="0.2"><g transform="rotate(-127.8991, 0.5189, 0.1358)"><path d="M -1 0 L 1 0 M 1 0 L 0.4 0.3 M 1 0 L 0.4 -0.3" transform="translate(0.5189, 0.1358) scale(0.0500)"/></g></g><g stroke-width="0.0500" stroke="rgb(5%, 5%, 5%)" stroke-opacity="1.0" fill="rgb(2%, 73%, 80%)" fill-opacity="0.2"><g transform="rotate(-126.6482, 0.5189, 0.0669)"><path d="M -1 0 L 1 0 M 1 0 L 0.4 0.3 M 1 0 L 0.4 -0.3" transform="translate(0.5189, 0.0669) scale(0.0500)"/></g></g><g stroke-width="0.0500" stroke="rgb(5%, 5%, 5%)" stroke-opacity="1.0" fill="rgb(2%, 73%, 80%)" fill-opacity="0.2"><g transform="rotate(-124.3010, 0.5189, -0.0019)"><path d="M -1 0 L 1 0 M 1 0 L 0.4 0.3 M 1 0 L 0.4 -0.3" transform="translate(0.5189, -0.0019) scale(0.0500)"/></g></g><g stroke-width="0.0500" stroke="rgb(5%, 5%, 5%)" stroke-opacity="1.0" fill="rgb(2%, 73%, 80%)" fill-opacity="0.2"><g transform="rotate(-118.3399, 0.5189, -0.0708)"><path d="M -1 0 L 1 0 M 1 0 L 0.4 0.3 M 1 0 L 0.4 -0.3" transform="translate(0.5189, -0.0708) scale(0.0500)"/></g></g><g stroke-width="0.0500" stroke="rgb(5%, 5%, 5%)" stroke-opacity="1.0" fill="rgb(2%, 73%, 80%)" fill-opacity="0.2"><g transform="rotate(-81.6027, 0.5189, -0.1397)"><path d="M -1 0 L 1 0 M 1 0 L 0.4 0.3 M 1 0 L 0.4 -0.3" transform="translate(0.5189, -0.1397) scale(0.0500)"/></g></g><g stroke-width="0.0500" stroke="rgb(5%, 5%, 5%)" stroke-opacity="1.0" fill="rgb(2%, 73%, 80%)" fill-opacity="0.2"><g transform="rotate(25.9167, 0.5189, -0.2085)"><path d="M -1 0 L 1 0 M 1 0 L 0.4 0.3 M 1 0 L 0.4 -0.3" transform="translate(0.5189, -0.2085) scale(0.0500)"/></g></g><g stroke-width="0.0500" stroke="rgb(5%, 5%, 5%)" stroke-opacity="1.0" fill="rgb(2%, 73%, 80%)" fill-opacity="0.2"><g transform="rotate(38.1539, 0.5189, -0.2774)"><path d="M -1 0 L 1 0 M 1 0 L 0.4 0.3 M 1 0 L 0.4 -0.3" transform="translate(0.5189, -0.2774) scale(0.0500)"/></g></g><g stroke-width="0.0500" stroke="rgb(5%, 5%, 5%)" stroke-opacity="1.0" fill="rgb(2%, 73%, 80%)" fill-opacity="0.2"><g transform="rotate(41.7039, 0.5189, -0.3463)"><path d="M -1 0 L 1 0 M 1 0 L 0.4 0.3 M 1 0 L 0.4 -0.3" transform="translate(0.5189, -0.3463) scale(0.0500)"/></g></g></g><g class="datapadding"></g></g><g class="hud"><g class="frame"><g stroke-width="0" stroke="rgb(0%, 0%, 0%)" stroke-opacity="0" fill="rgb(100%, 100%, 100%)" fill-opacity="0.02"><rect width="1.2584" height="0.8264" x="-0.5822" y="-0.4496"/></g></g><g class="axis"><g class="axisbar"><g stroke-width="0" stroke="rgb(0%, 0%, 0%)" stroke-opacity="0" fill="rgb(5%, 5%, 5%)" fill-opacity="0.4"><rect width="0.0034" height="0.8298" x="-0.5940" y="-0.4512"/></g></g><g class="ticks"><g class="tickglyph"><g stroke-width="0.0034" stroke="rgb(5%, 5%, 5%)" stroke-opacity="0.4" fill="rgb(5%, 5%, 5%)" fill-opacity="0.4"><polyline points="-0.6174,0.3769
-0.5923,0.3769"/><polyline points="-0.6174,0.2391
-0.5923,0.2391"/><polyline points="-0.6174,0.1014
-0.5923,0.1014"/><polyline points="-0.6174,-0.0364
-0.5923,-0.0364"/><polyline points="-0.6174,-0.1741
-0.5923,-0.1741"/><polyline points="-0.6174,-0.3118
-0.5923,-0.3118"/><polyline points="-0.6174,-0.4496
-0.5923,-0.4496"/></g></g><g class="ticktext"><g stroke-width="0.0" stroke="none" fill="rgb(5%, 5%, 5%)" fill-opacity="1.0" font-size="0.0400" text-anchor="end"><text x="-0.6359" y="0.3860">-0.6</text><text x="-0.6359" y="0.2482">-0.4</text><text x="-0.6359" y="0.1105">-0.2</text><text x="-0.6359" y="-0.0273"> 0.0</text><text x="-0.6359" y="-0.1650"> 0.2</text><text x="-0.6359" y="-0.3028"> 0.4</text><text x="-0.6359" y="-0.4405"> 0.6</text></g></g></g></g><g class="axis"><g class="axisbar"><g stroke-width="0" stroke="rgb(0%, 0%, 0%)" stroke-opacity="0" fill="rgb(5%, 5%, 5%)" fill-opacity="0.4"><rect width="1.2617" height="0.0033" x="-0.5839" y="0.3851"/></g></g><g class="ticks"><g class="tickglyph"><g stroke-width="0.0033" stroke="rgb(5%, 5%, 5%)" stroke-opacity="0.4" fill="rgb(5%, 5%, 5%)" fill-opacity="0.4"><polyline points="-0.5822,0.4116
-0.5822,0.3868"/><polyline points="-0.3725,0.4116
-0.3725,0.3868"/><polyline points="-0.1628,0.4116
-0.1628,0.3868"/><polyline points="0.0470,0.4116
0.0470,0.3868"/><polyline points="0.2567,0.4116
0.2567,0.3868"/><polyline points="0.4664,0.4116
0.4664,0.3868"/><polyline points="0.6762,0.4116
0.6762,0.3868"/></g></g><g class="ticktext"><g stroke-width="0.0" stroke="none" fill="rgb(5%, 5%, 5%)" fill-opacity="1.0" font-size="0.0400" text-anchor="middle"><text x="-0.5822" y="0.4570">-0.6</text><text x="-0.3725" y="0.4570">-0.4</text><text x="-0.1628" y="0.4570">-0.2</text><text x="0.0470" y="0.4570"> 0.0</text><text x="0.2567" y="0.4570"> 0.2</text><text x="0.4664" y="0.4570"> 0.4</text><text x="0.6762" y="0.4570"> 0.6</text></g></g></g></g><g class="frame"><g stroke-width="0" stroke="rgb(0%, 0%, 0%)" stroke-opacity="0" fill="rgb(0%, 0%, 0%)" fill-opacity="0"><rect width="1.5" height="1.0" x="-0.75" y="-0.5"/></g></g></g></svg>