<svg width="461.81679774786346" xmlns:xlink="http://www.w3.org/1999/xlink" xmlns="http://www.w3.org/2000/svg" viewBox="-0.7388941374401449 -0.4933746783265287 1.488894137440145 0.967197909236531" height="300.0"><style>svg {
  color-scheme: light dark;
}
{
  .canvas g, .title g, .axisbar g, .ticktext g, .tickglyph g, .ticklines g, .legendContent g text {
    fill: #0d0d0d;
  }
  .ticklines g, .tickglyph g, .legendBorder g {
    stroke: #0d0d0d;
  }
}
@media (prefers-color-scheme:dark) {
  .canvas g, .title g, .axisbar g, .ticktext g, .tickglyph g, .ticklines g, .legendContent g text {
    fill: #f0f0f0;
  }
  .ticklines g, .tickglyph g, .legendBorder g {
    stroke: #f0f0f0;
  }
}</style><g class="chart"><g class="barchart"><g stroke-opacity="1.0" fill="#b05929" stroke="#b05929" stroke-width="2.0e-3" fill-opacity="1.0"><rect width="4.5192183253526585e-2" x="-0.643990552607739" y="7.162298599341055e-2" height="4.961684064479793e-2"/><rect width="4.5192183253526585e-2" x="-0.5310100944739224" y="2.200614534861267e-2" height="9.923368128959581e-2"/><rect width="4.519218325352664e-2" x="-0.41802963634010615" y="-2.761069529618526e-2" height="0.14885052193439374"/><rect width="4.519218325352653e-2" x="-0.3050491782062896" y="-0.12684437658578107" height="0.24808420322398955"/><rect width="4.5192183253526697e-2" x="-0.19206872007247322" y="-0.2756948985201749" height="0.3969347251583834"/><rect width="4.5192183253526474e-2" x="-7.908826193865648e-2" y="0.12123982663820848" height="0.0"/><rect width="4.5192183253526585e-2" x="3.389219619515993e-2" y="0.12123982663820848" height="9.923368128959584e-2"/><rect width="4.519218325352636e-2" x="0.14687265432897645" y="-0.42454542045456867" height="0.5457852470927771"/><rect width="4.5192183253526697e-2" x="0.25985311246279286" y="2.200614534861267e-2" height="9.923368128959581e-2"/><rect width="4.5192183253526697e-2" x="0.3728335705966094" y="7.162298599341055e-2" height="4.961684064479793e-2"/></g><g stroke-opacity="1.0" fill="#a6cfe3" stroke="#a6cfe3" stroke-width="2.0e-3" fill-opacity="1.0"><rect width="4.5192183253526585e-2" x="-0.5987983693542124" y="7.162298599341055e-2" height="4.961684064479793e-2"/><rect width="4.5192183253526585e-2" x="-0.48581791122039586" y="2.200614534861267e-2" height="9.923368128959581e-2"/><rect width="4.519218325352664e-2" x="-0.3728374530865795" y="-2.761069529618526e-2" height="0.14885052193439374"/><rect width="4.5192183253526585e-2" x="-0.25985699495276304" y="-7.722753594098325e-2" height="0.19846736257919173"/><rect width="4.5192183253526697e-2" x="-0.14687653681894652" y="-0.12684437658578107" height="0.24808420322398955"/><rect width="4.5192183253526585e-2" x="-3.3896078685130004e-2" y="-0.17646121723057906" height="0.29770104386878754"/><rect width="4.5192183253526474e-2" x="7.908437944868651e-2" y="-0.22607805787537694" height="0.3473178845135854"/><rect width="4.5192183253526585e-2" x="0.1920648375825028" y="-0.2756948985201749" height="0.3969347251583834"/><rect width="4.5192183253526697e-2" x="0.30504529571631955" y="-0.3253117391649728" height="0.4465515658031813"/><rect width="4.5192183253526697e-2" x="0.4180257538501361" y="-0.3749285798097708" height="0.49616840644797927"/></g><g fill="#b05929" stroke="none" stroke-width="0.0" font-size="4.519218325352659e-3" fill-opacity="1.0" text-anchor="middle"><text x="-0.6213944609809757" y="4.5822228858115654e-2">1</text><text x="-0.5084140028471592" y="-3.7946117866822227e-3">2</text><text x="-0.3954335447133428" y="-5.3411452431480155e-2">3</text><text x="-0.2824530865795263" y="-0.15264513372107602">5</text><text x="-0.16947262844570976" y="-0.30149565565546976">8</text><text x="-5.649217031189324e-2" y="9.543906950291359e-2">0</text><text x="5.648828782192328e-2" y="0.2849754007660416">-2</text><text x="0.16946874595573969" y="-0.4503461775898634">11</text><text x="0.2824492040895562" y="-3.7946117866822227e-3">2</text><text x="0.3954296622233727" y="4.5822228858115654e-2">1</text></g><g fill="#a6cfe3" stroke="none" stroke-width="0.0" font-size="4.519218325352659e-3" fill-opacity="1.0" text-anchor="middle"><text x="-0.5762022777274491" y="4.5822228858115654e-2">1</text><text x="-0.4632218195936326" y="-3.7946117866822227e-3">2</text><text x="-0.3502413614598162" y="-5.3411452431480155e-2">3</text><text x="-0.2372609033259997" y="-0.10302829307627814">4</text><text x="-0.12428044519218318" y="-0.15264513372107602">5</text><text x="-1.1299987058366767e-2" y="-0.202261974365874">6</text><text x="0.10168047107544964" y="-0.2518788150106719">7</text><text x="0.21466092920926627" y="-0.30149565565546976">8</text><text x="0.3276413873430827" y="-0.35111249630026764">9</text><text x="0.4406218454768994" y="-0.4007293369450655">10</text></g></g></g><g class="hud"><g class="axis"><g class="ticks"><g class="tickglyph"><g stroke-opacity="0.4" fill="#0d0d0d" stroke="#0d0d0d" stroke-width="4.0e-3" fill-opacity="0.4"><g transform="rotate(-90.0, -0.677884690047884, 0.31970718921740016)"><polyline points="-0.677884690047884,0.33470718921740017
-0.677884690047884,0.30470718921740014"/></g><g transform="rotate(-90.0, -0.677884690047884, 0.22047350792780432)"><polyline points="-0.677884690047884,0.2354735079278043
-0.677884690047884,0.20547350792780433"/></g><g transform="rotate(-90.0, -0.677884690047884, 0.12123982663820848)"><polyline points="-0.677884690047884,0.1362398266382085
-0.677884690047884,0.10623982663820848"/></g><g transform="rotate(-90.0, -0.677884690047884, 2.200614534861267e-2)"><polyline points="-0.677884690047884,3.700614534861267e-2
-0.677884690047884,7.006145348612672e-3"/></g><g transform="rotate(-90.0, -0.677884690047884, -7.722753594098325e-2)"><polyline points="-0.677884690047884,-6.222753594098325e-2
-0.677884690047884,-9.222753594098325e-2"/></g><g transform="rotate(-90.0, -0.677884690047884, -0.17646121723057906)"><polyline points="-0.677884690047884,-0.16146121723057905
-0.677884690047884,-0.19146121723057907"/></g><g transform="rotate(-90.0, -0.677884690047884, -0.2756948985201749)"><polyline points="-0.677884690047884,-0.2606948985201749
-0.677884690047884,-0.29069489852017494"/></g><g transform="rotate(-90.0, -0.677884690047884, -0.3749285798097708)"><polyline points="-0.677884690047884,-0.3599285798097708
-0.677884690047884,-0.3899285798097708"/></g><g transform="rotate(-90.0, -0.677884690047884, -0.47416226109936654)"><polyline points="-0.677884690047884,-0.45916226109936653
-0.677884690047884,-0.48916226109936656"/></g></g></g><g class="ticktext"><g fill="#0d0d0d" stroke="none" stroke-width="0.0" font-size="3.766015271127217e-2" fill-opacity="1.0" text-anchor="end"><text x="-0.705" y="0.3306228941592557">-4</text><text x="-0.705" y="0.23138921286965985">-2</text><text x="-0.705" y="0.132155531580064">0</text><text x="-0.705" y="3.2921850290468235e-2">2</text><text x="-0.705" y="-6.631183099912769e-2">4</text><text x="-0.705" y="-0.1655455122887235">6</text><text x="-0.705" y="-0.26477919357831936">8</text><text x="-0.705" y="-0.3640128748679152">10</text><text x="-0.705" y="-0.463246556157511">12</text></g></g><g class="ticklines"><g stroke-opacity="5.0e-2" fill="none" stroke="#0d0d0d" stroke-width="5.0e-3"><polyline points="-0.6552885984211206,0.31970718921740016
0.47451598291704455,0.31970718921740016"/><polyline points="-0.6552885984211206,0.22047350792780432
0.47451598291704455,0.22047350792780432"/><polyline points="-0.6552885984211206,0.12123982663820848
0.47451598291704455,0.12123982663820848"/><polyline points="-0.6552885984211206,2.200614534861267e-2
0.47451598291704455,2.200614534861267e-2"/><polyline points="-0.6552885984211206,-7.722753594098325e-2
0.47451598291704455,-7.722753594098325e-2"/><polyline points="-0.6552885984211206,-0.17646121723057906
0.47451598291704455,-0.17646121723057906"/><polyline points="-0.6552885984211206,-0.2756948985201749
0.47451598291704455,-0.2756948985201749"/><polyline points="-0.6552885984211206,-0.3749285798097708
0.47451598291704455,-0.3749285798097708"/><polyline points="-0.6552885984211206,-0.47416226109936654
0.47451598291704455,-0.47416226109936654"/></g></g></g><g class="axisbar"><g stroke-opacity="0.0" fill="#0d0d0d" stroke="#000000" stroke-width="0.0" fill-opacity="0.4"><rect width="3.01281221690175e-3" x="-0.6658334411802769" y="-0.47575" height="0.7970449281180336"/></g></g></g><g class="axis"><g class="ticks"><g class="tickglyph"><g stroke-opacity="0.4" fill="#0d0d0d" stroke="#0d0d0d" stroke-width="4.0e-3" fill-opacity="0.4"><polyline points="-0.5987983693542124,0.3585232727269032
-0.5987983693542124,0.3285232727269032"/><polyline points="-0.4858179112203958,0.3585232727269032
-0.4858179112203958,0.3285232727269032"/><polyline points="-0.3728374530865794,0.3585232727269032
-0.3728374530865794,0.3285232727269032"/><polyline points="-0.2598569949527628,0.3585232727269032
-0.2598569949527628,0.3285232727269032"/><polyline points="-0.1468765368189463,0.3585232727269032
-0.1468765368189463,0.3285232727269032"/><polyline points="-3.389607868512978e-2,0.3585232727269032
-3.389607868512978e-2,0.3285232727269032"/><polyline points="7.908437944868674e-2,0.3585232727269032
7.908437944868674e-2,0.3285232727269032"/><polyline points="0.19206483758250315,0.3585232727269032
0.19206483758250315,0.3285232727269032"/><polyline points="0.30504529571631955,0.3585232727269032
0.30504529571631955,0.3285232727269032"/><polyline points="0.4180257538501361,0.3585232727269032
0.4180257538501361,0.3285232727269032"/></g></g><g class="ticktext"><g fill="#0d0d0d" stroke="none" stroke-width="0.0" font-size="3.766015271127217e-2" fill-opacity="1.0" text-anchor="end"><text x="-0.5987983693542124" y="0.39393398282201786" transform="rotate(-45.0, -0.5987983693542124, 0.39393398282201786)">row 1</text><text x="-0.4858179112203958" y="0.39393398282201786" transform="rotate(-45.0, -0.4858179112203958, 0.39393398282201786)">row 2</text><text x="-0.3728374530865794" y="0.39393398282201786" transform="rotate(-45.0, -0.3728374530865794, 0.39393398282201786)">row 3</text><text x="-0.2598569949527628" y="0.39393398282201786" transform="rotate(-45.0, -0.2598569949527628, 0.39393398282201786)">row 4</text><text x="-0.1468765368189463" y="0.39393398282201786" transform="rotate(-45.0, -0.1468765368189463, 0.39393398282201786)">row 5</text><text x="-3.389607868512978e-2" y="0.39393398282201786" transform="rotate(-45.0, -3.389607868512978e-2, 0.39393398282201786)">row 6</text><text x="7.908437944868674e-2" y="0.39393398282201786" transform="rotate(-45.0, 7.908437944868674e-2, 0.39393398282201786)">row 7</text><text x="0.19206483758250315" y="0.39393398282201786" transform="rotate(-45.0, 0.19206483758250315, 0.39393398282201786)">row 8</text><text x="0.30504529571631955" y="0.39393398282201786" transform="rotate(-45.0, 0.30504529571631955, 0.39393398282201786)">row 9</text><text x="0.4180257538501361" y="0.39393398282201786" transform="rotate(-45.0, 0.4180257538501361, 0.39393398282201786)">row 10</text></g></g></g><g class="axisbar"><g stroke-opacity="0.0" fill="#0d0d0d" stroke="#000000" stroke-width="0.0" fill-opacity="0.4"><rect width="1.132817393555067" x="-0.6567950045295715" y="0.3276458837205678" height="3.1754778012670903e-3"/></g></g></g><g class="legend"><g class="legendBorder"><g stroke-opacity="1.0" fill="#0d0d0d" stroke="#0d0d0d" stroke-width="2.5e-3" fill-opacity="0.0"><rect width="0.21334476510935652" x="0.5328892196195164" y="-0.13803157806110733" height="0.17941449577158924"/></g></g><g class="legendContent"><g fill="#0d0d0d" stroke="none" stroke-width="0.0" font-size="2.25960916267633e-2" fill-opacity="1.0" text-anchor="start"><text x="0.5517192959751521" y="-2.4783694195193995e-3">column 2</text></g><g stroke-opacity="1.0" fill="#a6cfe3" stroke="#a6cfe3" stroke-width="5.0e-4" fill-opacity="1.0"><rect width="5.649022906690826e-2" x="0.6707253785427724" y="-3.820249468377396e-2" height="5.954020877375754e-2"/></g><g fill="#0d0d0d" stroke="none" stroke-width="0.0" font-size="2.25960916267633e-2" fill-opacity="1.0" text-anchor="start"><text x="0.5517192959751521" y="-8.226224917635444e-2">column 1</text></g><g stroke-opacity="1.0" fill="#b05929" stroke="#b05929" stroke-width="5.0e-4" fill-opacity="1.0"><rect width="5.649022906690826e-2" x="0.6707253785427724" y="-0.117986374440609" height="5.9540208773757486e-2"/></g></g></g></g></svg>