<svg xmlns="http://www.w3.org/2000/svg" xmlns:xlink="http://www.w3.org/1999/xlink" width="462" height="300" viewBox="-0.7427 -0.4932 1.4927 0.9682"><style>svg {
  color-scheme: light dark;
}
{
  .canvas g, .title g, .axisbar g, .ticktext g, .tickglyph g, .ticklines g, .legendContent g text {
    fill: rgb(5%, 5%, 5%);
  }
  .ticklines g, .tickglyph g, .legendBorder g {
    stroke: rgb(5%, 5%, 5%);
  }
  .legendBorder g {
    fill: rgb(94%, 94%, 94%);
  }
}
@media (prefers-color-scheme:dark) {
  .canvas g, .title g, .axisbar g, .ticktext g, .tickglyph g, .ticklines g, .legendContent g text {
    fill: rgb(94%, 94%, 94%);
  }
  .ticklines g, .tickglyph g, .legendBorder g {
    stroke: rgb(94%, 94%, 94%);
  }
  .legendBorder g {
    fill: rgb(5%, 5%, 5%);
  }
}</style><g class="chart"><g class="barchart"><g stroke-width="0.0050" stroke="rgb(2%, 29%, 48%)" stroke-opacity="1.0" fill="rgb(2%, 29%, 48%)" fill-opacity="0.7"><rect width="0.0516" height="0.0538" x="-0.7119" y="0.0903"/><rect width="0.0516" height="0.1076" x="-0.5972" y="0.0366"/><rect width="0.0516" height="0.1614" x="-0.4825" y="-0.0172"/><rect width="0.0516" height="0.2689" x="-0.3679" y="-0.1248"/><rect width="0.0516" height="0.4303" x="-0.2532" y="-0.2862"/><rect width="0.0516" height="0" x="-0.1385" y="0.1441"/><rect width="0.0516" height="0.1076" x="-0.0238" y="0.1441"/><rect width="0.0516" height="0.5917" x="0.0909" y="-0.4475"/><rect width="0.0516" height="0.1076" x="0.2055" y="0.0366"/><rect width="0.0516" height="0.0538" x="0.3202" y="0.0903"/></g><g stroke-width="0.0050" stroke="rgb(66%, 7%, 55%)" stroke-opacity="1.0" fill="rgb(66%, 7%, 55%)" fill-opacity="0.7"><rect width="0.0516" height="0.0538" x="-0.6603" y="0.0903"/><rect width="0.0516" height="0.1076" x="-0.5456" y="0.0366"/><rect width="0.0516" height="0.1614" x="-0.4309" y="-0.0172"/><rect width="0.0516" height="0.2152" x="-0.3163" y="-0.0710"/><rect width="0.0516" height="0.2689" x="-0.2016" y="-0.1248"/><rect width="0.0516" height="0.3227" x="-0.0869" y="-0.1786"/><rect width="0.0516" height="0.3765" x="0.0278" y="-0.2324"/><rect width="0.0516" height="0.4303" x="0.1425" y="-0.2862"/><rect width="0.0516" height="0.4841" x="0.2572" y="-0.3400"/><rect width="0.0516" height="0.5379" x="0.3718" y="-0.3937"/></g><g stroke-width="0.0" stroke="none" fill="rgb(2%, 29%, 48%)" fill-opacity="1.0" font-size="0.0275" text-anchor="middle"><text x="-0.6861" y="0.0667">1.0</text><text x="-0.5714" y="0.0129">2.0</text><text x="-0.4567" y="-0.0409">3.0</text><text x="-0.3421" y="-0.1485">5.0</text><text x="-0.2274" y="-0.3098">8.0</text><text x="-0.1127" y="0.1205">0.0</text><text x="0.0020" y="0.3109">-2.0</text><text x="0.1167" y="-0.4712">11</text><text x="0.2314" y="0.0129">2.0</text><text x="0.3460" y="0.0667">1.0</text></g><g stroke-width="0.0" stroke="none" fill="rgb(66%, 7%, 55%)" fill-opacity="1.0" font-size="0.0275" text-anchor="middle"><text x="-0.6345" y="0.0667">1.0</text><text x="-0.5198" y="0.0129">2.0</text><text x="-0.4051" y="-0.0409">3.0</text><text x="-0.2904" y="-0.0947">4.0</text><text x="-0.1758" y="-0.1485">5.0</text><text x="-0.0611" y="-0.2023">6.0</text><text x="0.0536" y="-0.2560">7.0</text><text x="0.1683" y="-0.3098">8.0</text><text x="0.2830" y="-0.3636">9.0</text><text x="0.3976" y="-0.4174">10</text></g></g></g><g class="hud"><g class="axis"><g class="ticks"><g class="tickglyph"><g stroke-width="0.0040" stroke="rgb(5%, 5%, 5%)" stroke-opacity="0.4" fill="rgb(5%, 5%, 5%)" fill-opacity="0.4"><polyline points="-0.6603,0.3584
-0.6603,0.3284"/><polyline points="-0.5456,0.3584
-0.5456,0.3284"/><polyline points="-0.4309,0.3584
-0.4309,0.3284"/><polyline points="-0.3163,0.3584
-0.3163,0.3284"/><polyline points="-0.2016,0.3584
-0.2016,0.3284"/><polyline points="-0.0869,0.3584
-0.0869,0.3284"/><polyline points="0.0278,0.3584
0.0278,0.3284"/><polyline points="0.1425,0.3584
0.1425,0.3284"/><polyline points="0.2572,0.3584
0.2572,0.3284"/><polyline points="0.3718,0.3584
0.3718,0.3284"/></g></g><g class="ticktext"><g stroke-width="0.0" stroke="none" fill="rgb(5%, 5%, 5%)" fill-opacity="1.0" font-size="0.0382" text-anchor="end"><text x="-0.6603" y="0.3939" transform="rotate(-45.0, -0.6603, 0.3939)">row 1</text><text x="-0.5456" y="0.3939" transform="rotate(-45.0, -0.5456, 0.3939)">row 2</text><text x="-0.4309" y="0.3939" transform="rotate(-45.0, -0.4309, 0.3939)">row 3</text><text x="-0.3163" y="0.3939" transform="rotate(-45.0, -0.3163, 0.3939)">row 4</text><text x="-0.2016" y="0.3939" transform="rotate(-45.0, -0.2016, 0.3939)">row 5</text><text x="-0.0869" y="0.3939" transform="rotate(-45.0, -0.0869, 0.3939)">row 6</text><text x="0.0278" y="0.3939" transform="rotate(-45.0, 0.0278, 0.3939)">row 7</text><text x="0.1425" y="0.3939" transform="rotate(-45.0, 0.1425, 0.3939)">row 8</text><text x="0.2572" y="0.3939" transform="rotate(-45.0, 0.2572, 0.3939)">row 9</text><text x="0.3718" y="0.3939" transform="rotate(-45.0, 0.3718, 0.3939)">row 10</text></g></g></g><g class="axisbar"><g stroke-width="0" stroke="rgb(0%, 0%, 0%)" stroke-opacity="0" fill="rgb(5%, 5%, 5%)" fill-opacity="0.4"><rect width="1.1499" height="0.0032" x="-0.7192" y="0.3274"/></g></g></g><g class="legend"><g class="legendBorder"><g stroke-width="0.0025" stroke="rgb(5%, 5%, 5%)" stroke-opacity="1.0" fill="rgb(5%, 5%, 5%)" fill-opacity="0"><rect width="0.2581" height="0.1812" x="0.4880" y="-0.1388"/></g></g><g class="legendContent"><g stroke-width="0.0" stroke="none" fill="rgb(5%, 5%, 5%)" fill-opacity="1.0" font-size="0.0344" text-anchor="start"><text x="0.5072" y="0.0011">column 2</text></g><g stroke-width="0.0012" stroke="rgb(66%, 7%, 55%)" stroke-opacity="1.0" fill="rgb(66%, 7%, 55%)" fill-opacity="0.7"><rect width="0.0573" height="0.0597" x="0.6692" y="-0.0377"/></g><g stroke-width="0.0" stroke="none" fill="rgb(5%, 5%, 5%)" fill-opacity="1.0" font-size="0.0344" text-anchor="start"><text x="0.5072" y="-0.0795">column 1</text></g><g stroke-width="0.0012" stroke="rgb(2%, 29%, 48%)" stroke-opacity="1.0" fill="rgb(2%, 29%, 48%)" fill-opacity="0.7"><rect width="0.0573" height="0.0597" x="0.6692" y="-0.1184"/></g></g></g></g></svg>