<svg width="449.53905427862935" xmlns:xlink="http://www.w3.org/1999/xlink" xmlns="http://www.w3.org/2000/svg" viewBox="-0.77 -0.5166369683736832 1.54 1.027719384117508" height="300.0"><style>svg {
  color-scheme: light dark;
}
@media (prefers-color-scheme:dark) {
  .title g, .axisbar g, .ticktext g, .tickglyph g, .ticklines g, .legend g {
    fill: #f0f0f0;
  }
  .ticklines g, .tickglyph g, .legendborder g {
    stroke: #f0f0f0;
  }
}
@media (prefers-color-scheme:light) {
  .title g, .axisbar g, .ticktext g, .tickglyph g, .ticklines g, .legend g {
    fill: #0d0d0d;
  }
  .ticklines g, .tickglyph g, .legendborder g {
    stroke: #0d0d0d;
  }</style><g class="barchart"><g stroke-opacity="1.0" fill="#b05929" stroke="#b05929" stroke-width="2.0e-3" fill-opacity="1.0"><rect width="4.390243902439017e-2" x="-0.6578048780487804" y="8.226519314306463e-2" height="5.098644423319304e-2"/><rect width="4.390243902439017e-2" x="-0.5480487804878048" y="3.127874890987159e-2" height="0.10197288846638608"/><rect width="4.390243902439023e-2" x="-0.4382926829268294" y="-1.9707695323321506e-2" height="0.15295933269957918"/><rect width="4.390243902439023e-2" x="-0.3285365853658538" y="-0.12168058378970759" height="0.25493222116596526"/><rect width="4.390243902439028e-2" x="-0.21878048780487824" y="-0.27463991648928665" height="0.4078915538655443"/><rect width="4.390243902439006e-2" x="-0.10902439024390254" y="0.13325163737625767" height="0.0"/><rect width="4.390243902439017e-2" x="7.317073170729493e-4" y="0.13325163737625767" height="0.10197288846638608"/><rect width="4.390243902439028e-2" x="0.11048780487804843" y="-0.4275992491888657" height="0.5608508865651234"/><rect width="4.3902439024390394e-2" x="0.22024390243902425" y="3.127874890987159e-2" height="0.10197288846638608"/><rect width="4.390243902439028e-2" x="0.32999999999999985" y="8.226519314306463e-2" height="5.098644423319304e-2"/></g><g stroke-opacity="1.0" fill="#a6cfe3" stroke="#a6cfe3" stroke-width="2.0e-3" fill-opacity="1.0"><rect width="4.390243902439028e-2" x="-0.6139024390243902" y="8.226519314306463e-2" height="5.098644423319304e-2"/><rect width="4.390243902439028e-2" x="-0.5041463414634146" y="3.127874890987159e-2" height="0.10197288846638608"/><rect width="4.390243902439023e-2" x="-0.39439024390243915" y="-1.9707695323321506e-2" height="0.15295933269957918"/><rect width="4.390243902439017e-2" x="-0.28463414634146356" y="-7.069413955651449e-2" height="0.20394577693277216"/><rect width="4.390243902439028e-2" x="-0.17487804878048796" y="-0.12168058378970759" height="0.25493222116596526"/><rect width="4.390243902439028e-2" x="-6.512195121951248e-2" y="-0.17266702802290057" height="0.30591866539915824"/><rect width="4.390243902439028e-2" x="4.463414634146312e-2" y="-0.22365347225609367" height="0.35690510963235134"/><rect width="4.390243902439028e-2" x="0.15439024390243872" y="-0.27463991648928665" height="0.4078915538655443"/><rect width="4.390243902439028e-2" x="0.26414634146341465" y="-0.32562636072247964" height="0.4588779980987373"/><rect width="4.390243902439028e-2" x="0.37390243902439013" y="-0.37661280495567273" height="0.5098644423319304"/></g><g fill="#b05929" stroke="none" stroke-width="0.0" font-size="4.390243902439022e-3" fill-opacity="1.0" text-anchor="middle"><text x="-0.6358536585365854" y="5.575224214180424e-2">1</text><text x="-0.5260975609756098" y="4.765797908611202e-3">2</text><text x="-0.41634146341463424" y="-4.622064632458178e-2">3</text><text x="-0.30658536585365864" y="-0.14819353479096797">5</text><text x="-0.1968292682926831" y="-0.30115286749054704">8</text><text x="-8.70731707317074e-2" y="0.10673868637499734">0</text><text x="2.268292682926809e-2" y="0.3015069033457947">-2</text><text x="0.1324390243902437" y="-0.4541122001901263">11</text><text x="0.24219512195121928" y="4.765797908611202e-3">2</text><text x="0.35195121951219477" y="5.575224214180424e-2">1</text></g><g fill="#a6cfe3" stroke="none" stroke-width="0.0" font-size="4.390243902439022e-3" fill-opacity="1.0" text-anchor="middle"><text x="-0.5919512195121951" y="5.575224214180424e-2">1</text><text x="-0.4821951219512195" y="4.765797908611202e-3">2</text><text x="-0.372439024390244" y="-4.622064632458178e-2">3</text><text x="-0.2626829268292684" y="-9.720709055777488e-2">4</text><text x="-0.15292682926829282" y="-0.14819353479096797">5</text><text x="-4.3170731707317334e-2" y="-0.19917997902416096">6</text><text x="6.658536585365815e-2" y="-0.25016642325735405">7</text><text x="0.17634146341463397" y="-0.30115286749054704">8</text><text x="0.28609756097560957" y="-0.35213931172374024">9</text><text x="0.39585365853658505" y="-0.40312575595693323">10</text></g></g><g class="axis"><g class="ticks"><g class="tickglyph"><g stroke-opacity="0.4" fill="#0d0d0d" stroke="#0d0d0d" stroke-width="4.0e-3" fill-opacity="0.4"><g transform="rotate(-90.0, -0.6907317073170731, 0.33719741430902983)"><polyline points="-0.6907317073170731,0.35219741430902984
-0.6907317073170731,0.3221974143090298"/></g><g transform="rotate(-90.0, -0.6907317073170731, 0.23522452584264375)"><polyline points="-0.6907317073170731,0.25022452584264376
-0.6907317073170731,0.22022452584264374"/></g><g transform="rotate(-90.0, -0.6907317073170731, 0.13325163737625767)"><polyline points="-0.6907317073170731,0.14825163737625768
-0.6907317073170731,0.11825163737625767"/></g><g transform="rotate(-90.0, -0.6907317073170731, 3.127874890987159e-2)"><polyline points="-0.6907317073170731,4.627874890987159e-2
-0.6907317073170731,1.627874890987159e-2"/></g><g transform="rotate(-90.0, -0.6907317073170731, -7.069413955651449e-2)"><polyline points="-0.6907317073170731,-5.569413955651449e-2
-0.6907317073170731,-8.569413955651449e-2"/></g><g transform="rotate(-90.0, -0.6907317073170731, -0.17266702802290057)"><polyline points="-0.6907317073170731,-0.15766702802290056
-0.6907317073170731,-0.18766702802290058"/></g><g transform="rotate(-90.0, -0.6907317073170731, -0.27463991648928665)"><polyline points="-0.6907317073170731,-0.25963991648928664
-0.6907317073170731,-0.28963991648928666"/></g><g transform="rotate(-90.0, -0.6907317073170731, -0.37661280495567273)"><polyline points="-0.6907317073170731,-0.3616128049556727
-0.6907317073170731,-0.39161280495567274"/></g><g transform="rotate(-90.0, -0.6907317073170731, -0.4785856934220588)"><polyline points="-0.6907317073170731,-0.4635856934220588
-0.6907317073170731,-0.4935856934220588"/></g></g></g><g class="ticktext"><g fill="#0d0d0d" stroke="none" stroke-width="0.0" font-size="3.6585365853658534e-2" fill-opacity="1.0" text-anchor="end"><text x="-0.7170731707317073" y="0.3484144320403324">-4</text><text x="-0.7170731707317073" y="0.2464415435739462">-2</text><text x="-0.7170731707317073" y="0.14446865510756013">0</text><text x="-0.7170731707317073" y="4.2495766641174104e-2">2</text><text x="-0.7170731707317073" y="-5.947712182521203e-2">4</text><text x="-0.7170731707317073" y="-0.1614500102915981">6</text><text x="-0.7170731707317073" y="-0.2634228987579842">8</text><text x="-0.7170731707317073" y="-0.36539578722437027">10</text><text x="-0.7170731707317073" y="-0.46736867569075635">12</text></g></g><g class="ticklines"><g stroke-opacity="5.0e-2" fill="none" stroke="#0d0d0d" stroke-width="5.0e-3"><polyline points="-0.668780487804878,0.33719741430902983
0.428780487804878,0.33719741430902983"/><polyline points="-0.668780487804878,0.23522452584264375
0.428780487804878,0.23522452584264375"/><polyline points="-0.668780487804878,0.13325163737625767
0.428780487804878,0.13325163737625767"/><polyline points="-0.668780487804878,3.127874890987159e-2
0.428780487804878,3.127874890987159e-2"/><polyline points="-0.668780487804878,-7.069413955651449e-2
0.428780487804878,-7.069413955651449e-2"/><polyline points="-0.668780487804878,-0.17266702802290057
0.428780487804878,-0.17266702802290057"/><polyline points="-0.668780487804878,-0.27463991648928665
0.428780487804878,-0.27463991648928665"/><polyline points="-0.668780487804878,-0.37661280495567273
0.428780487804878,-0.37661280495567273"/><polyline points="-0.668780487804878,-0.4785856934220588
0.428780487804878,-0.4785856934220588"/></g></g></g><g class="axisbar"><g stroke-opacity="0.0" fill="#0d0d0d" stroke="#000000" stroke-width="0.0" fill-opacity="0.4"><rect width="2.9268292682926855e-3" x="-0.6790243902439024" y="-0.48021725963752115" height="0.8190462401620132"/></g></g></g><g class="axis"><g class="ticks"><g class="tickglyph"><g stroke-opacity="0.4" fill="#0d0d0d" stroke="#0d0d0d" stroke-width="4.0e-3" fill-opacity="0.4"><polyline points="-0.6139024390243902,0.37667090754096255
-0.6139024390243902,0.3466709075409625"/><polyline points="-0.5041463414634145,0.37667090754096255
-0.5041463414634145,0.3466709075409625"/><polyline points="-0.394390243902439,0.37667090754096255
-0.394390243902439,0.3466709075409625"/><polyline points="-0.28463414634146345,0.37667090754096255
-0.28463414634146345,0.3466709075409625"/><polyline points="-0.17487804878048774,0.37667090754096255
-0.17487804878048774,0.3466709075409625"/><polyline points="-6.512195121951214e-2,0.37667090754096255
-6.512195121951214e-2,0.3466709075409625"/><polyline points="4.4634146341463454e-2,0.37667090754096255
4.4634146341463454e-2,0.3466709075409625"/><polyline points="0.15439024390243894,0.37667090754096255
0.15439024390243894,0.3466709075409625"/><polyline points="0.26414634146341465,0.37667090754096255
0.26414634146341465,0.3466709075409625"/><polyline points="0.37390243902439013,0.37667090754096255
0.37390243902439013,0.3466709075409625"/></g></g><g class="ticktext"><g fill="#0d0d0d" stroke="none" stroke-width="0.0" font-size="3.6585365853658534e-2" fill-opacity="1.0" text-anchor="end"><text x="-0.6139024390243902" y="0.4134731348818867" transform="rotate(-45.0, -0.6139024390243902, 0.4134731348818867)">row 1</text><text x="-0.5041463414634145" y="0.4134731348818867" transform="rotate(-45.0, -0.5041463414634145, 0.4134731348818867)">row 2</text><text x="-0.394390243902439" y="0.4134731348818867" transform="rotate(-45.0, -0.394390243902439, 0.4134731348818867)">row 3</text><text x="-0.28463414634146345" y="0.4134731348818867" transform="rotate(-45.0, -0.28463414634146345, 0.4134731348818867)">row 4</text><text x="-0.17487804878048774" y="0.4134731348818867" transform="rotate(-45.0, -0.17487804878048774, 0.4134731348818867)">row 5</text><text x="-6.512195121951214e-2" y="0.4134731348818867" transform="rotate(-45.0, -6.512195121951214e-2, 0.4134731348818867)">row 6</text><text x="4.4634146341463454e-2" y="0.4134731348818867" transform="rotate(-45.0, 4.4634146341463454e-2, 0.4134731348818867)">row 7</text><text x="0.15439024390243894" y="0.4134731348818867" transform="rotate(-45.0, 0.15439024390243894, 0.4134731348818867)">row 8</text><text x="0.26414634146341465" y="0.4134731348818867" transform="rotate(-45.0, 0.26414634146341465, 0.4134731348818867)">row 9</text><text x="0.37390243902439013" y="0.4134731348818867" transform="rotate(-45.0, 0.37390243902439013, 0.4134731348818867)">row 10</text></g></g></g><g class="axisbar"><g stroke-opacity="0.0" fill="#0d0d0d" stroke="#000000" stroke-width="0.0" fill-opacity="0.4"><rect width="1.1004878048780486" x="-0.6702439024390243" y="0.34535524538634077" height="3.2631324309243537e-3"/></g></g></g><g class="legend"><g stroke-opacity="1.0" fill="#0d0d0d" stroke="#0d0d0d" stroke-width="2.5e-3" fill-opacity="0.0"><rect width="0.25993902439024397" x="0.48548780487804866" y="-0.13317659233710022" height="0.18436698234722604"/></g><g><g fill="#0d0d0d" stroke="none" stroke-width="0.0" font-size="3.6585365853658534e-2" fill-opacity="1.0" text-anchor="start"><text x="0.5037804878048777" y="1.0197288846638564e-2">column 2</text></g><g stroke-opacity="1.0" fill="#a6cfe3" stroke="#a6cfe3" stroke-width="5.0e-4" fill-opacity="1.0"><rect width="5.4878048780487854e-2" x="0.6720731707317071" y="-3.0591866539915746e-2" height="6.118373307983155e-2"/></g><g fill="#0d0d0d" stroke="none" stroke-width="0.0" font-size="3.6585365853658534e-2" fill-opacity="1.0" text-anchor="start"><text x="0.5037804878048777" y="-7.178891348033578e-2">column 1</text></g><g stroke-opacity="1.0" fill="#b05929" stroke="#b05929" stroke-width="5.0e-4" fill-opacity="1.0"><rect width="5.4878048780487854e-2" x="0.6720731707317071" y="-0.11257806886689026" height="6.1183733079831715e-2"/></g></g></g></svg>