<svg width="433.87737808484474" xmlns:xlink="http://www.w3.org/1999/xlink" xmlns="http://www.w3.org/2000/svg" viewBox="-0.78761881735286 -0.5284699360597728 1.55761881735286 1.0769993293231348" height="300.0"><style>svg {
  color-scheme: light dark;
}
@media (prefers-color-scheme:dark) {
  svg {
    background-color: #f0f0f0;
  }
}</style><g></g><g stroke-opacity="1.0" fill="#0d0d0d" stroke="#0d0d0d" stroke-width="4.0e-3" fill-opacity="0.0"><rect width="0.31111840287372194" x="0.43240536059684986" y="-0.15452499496274552" height="0.2122019890905566"/></g><g fill="#0d0d0d" stroke="none" stroke-width="0.0" font-size="4.8e-2" fill-opacity="1.0" text-anchor="start"><text x="0.45831030671456197" y="7.402394968275161e-3">column 2</text></g><g stroke-opacity="1.0" fill="#a6cfe3" stroke="#a6cfe3" stroke-width="8.0e-4" fill-opacity="1.0"><rect width="3.1085935341254256e-2" x="0.6862738325504285" y="-1.8505987420688097e-2" height="3.701197484137608e-2"/></g><g fill="#0d0d0d" stroke="none" stroke-width="0.0" font-size="4.8e-2" fill-opacity="1.0" text-anchor="start"><text x="0.45831030671456197" y="-8.944560586665917e-2">column 1</text></g><g stroke-opacity="1.0" fill="#b05929" stroke="#b05929" stroke-width="8.0e-4" fill-opacity="1.0"><rect width="3.1085935341254256e-2" x="0.6862738325504285" y="-0.11535398825562238" height="3.7011974841376194e-2"/></g><g stroke-opacity="5.0e-2" fill="none" stroke="#0d0d0d" stroke-width="5.0e-3"><polyline points="-0.6767796697982867,0.23197403022369195
0.294655809615916,0.23197403022369195"/><polyline points="-0.6767796697982867,0.12791427189773563
0.294655809615916,0.12791427189773563"/><polyline points="-0.6767796697982867,2.3854513571779368e-2
0.294655809615916,2.3854513571779368e-2"/><polyline points="-0.6767796697982867,-8.020524475417701e-2
0.294655809615916,-8.020524475417701e-2"/><polyline points="-0.6767796697982867,-0.18426500308013327
0.294655809615916,-0.18426500308013327"/><polyline points="-0.6767796697982867,-0.28832476140608954
0.294655809615916,-0.28832476140608954"/><polyline points="-0.6767796697982867,-0.3923845197320458
0.294655809615916,-0.3923845197320458"/></g><g fill="#0d0d0d" stroke="none" stroke-width="0.0" font-size="5.0e-2" fill-opacity="1.0" text-anchor="end"><text x="-0.7176188173528599" y="0.24315473095702433">-2</text><text x="-0.7176188173528599" y="0.13909497263106801">0</text><text x="-0.7176188173528599" y="3.5035214305111695e-2">2</text><text x="-0.7176188173528599" y="-6.902454402084468e-2">4</text><text x="-0.7176188173528599" y="-0.17308430234680094">6</text><text x="-0.7176188173528599" y="-0.2771440606727572">8</text><text x="-0.7176188173528599" y="-0.3812038189987135">10</text></g><g stroke-opacity="0.4" fill="#0d0d0d" stroke="#0d0d0d" stroke-width="4.0e-3" fill-opacity="0.4"><g transform="rotate(-90.0, -0.6968560030395137, 0.23197403022369195)"><polyline points="-0.6968560030395137,0.24697403022369196
-0.6968560030395137,0.21697403022369194"/></g><g transform="rotate(-90.0, -0.6968560030395137, 0.12791427189773563)"><polyline points="-0.6968560030395137,0.14291427189773565
-0.6968560030395137,0.11291427189773563"/></g><g transform="rotate(-90.0, -0.6968560030395137, 2.3854513571779368e-2)"><polyline points="-0.6968560030395137,3.885451357177937e-2
-0.6968560030395137,8.854513571779368e-3"/></g><g transform="rotate(-90.0, -0.6968560030395137, -8.020524475417701e-2)"><polyline points="-0.6968560030395137,-6.520524475417701e-2
-0.6968560030395137,-9.5205244754177e-2"/></g><g transform="rotate(-90.0, -0.6968560030395137, -0.18426500308013327)"><polyline points="-0.6968560030395137,-0.16926500308013326
-0.6968560030395137,-0.19926500308013328"/></g><g transform="rotate(-90.0, -0.6968560030395137, -0.28832476140608954)"><polyline points="-0.6968560030395137,-0.2733247614060895
-0.6968560030395137,-0.30332476140608955"/></g><g transform="rotate(-90.0, -0.6968560030395137, -0.3923845197320458)"><polyline points="-0.6968560030395137,-0.3773845197320458
-0.6968560030395137,-0.4073845197320458"/></g></g><g stroke-opacity="0.0" fill="#0d0d0d" stroke="#000000" stroke-width="0.0" fill-opacity="0.4"><rect width="2.590494611771188e-3" x="-0.685846400939486" y="-0.4730121016781633" height="0.7741671404321175"/></g><g fill="#0d0d0d" stroke="none" stroke-width="0.0" font-size="5.0e-2" fill-opacity="1.0" text-anchor="end"><text x="-0.6282078958275766" y="0.40390182307923284" transform="rotate(-45.0, -0.6282078958275766, 0.40390182307923284)">row 1</text><text x="-0.5310643478861563" y="0.40390182307923284" transform="rotate(-45.0, -0.5310643478861563, 0.40390182307923284)">row 2</text><text x="-0.43392079994473604" y="0.40390182307923284" transform="rotate(-45.0, -0.43392079994473604, 0.40390182307923284)">row 3</text><text x="-0.33677725200331576" y="0.40390182307923284" transform="rotate(-45.0, -0.33677725200331576, 0.40390182307923284)">row 4</text><text x="-0.23963370406189544" y="0.40390182307923284" transform="rotate(-45.0, -0.23963370406189544, 0.40390182307923284)">row 5</text><text x="-0.14249015612047522" y="0.40390182307923284" transform="rotate(-45.0, -0.14249015612047522, 0.40390182307923284)">row 6</text><text x="-4.534660817905489e-2" y="0.40390182307923284" transform="rotate(-45.0, -4.534660817905489e-2, 0.40390182307923284)">row 7</text><text x="5.1796939762365324e-2" y="0.40390182307923284" transform="rotate(-45.0, 5.1796939762365324e-2, 0.40390182307923284)">row 8</text><text x="0.14894048770378554" y="0.40390182307923284" transform="rotate(-45.0, 0.14894048770378554, 0.40390182307923284)">row 9</text><text x="0.24608403564520576" y="0.40390182307923284" transform="rotate(-45.0, 0.24608403564520576, 0.40390182307923284)">row 10</text></g><g stroke-opacity="0.4" fill="#0d0d0d" stroke="#0d0d0d" stroke-width="4.0e-3" fill-opacity="0.4"><polyline points="-0.6282078958275766,0.3547091792137211
-0.6282078958275766,0.32470917921372106"/><polyline points="-0.5310643478861563,0.3547091792137211
-0.5310643478861563,0.32470917921372106"/><polyline points="-0.43392079994473604,0.3547091792137211
-0.43392079994473604,0.32470917921372106"/><polyline points="-0.33677725200331576,0.3547091792137211
-0.33677725200331576,0.32470917921372106"/><polyline points="-0.23963370406189544,0.3547091792137211
-0.23963370406189544,0.32470917921372106"/><polyline points="-0.14249015612047522,0.3547091792137211
-0.14249015612047522,0.32470917921372106"/><polyline points="-4.534660817905489e-2,0.3547091792137211
-4.534660817905489e-2,0.32470917921372106"/><polyline points="5.1796939762365324e-2,0.3547091792137211
5.1796939762365324e-2,0.32470917921372106"/><polyline points="0.14894048770378554,0.3547091792137211
0.14894048770378554,0.32470917921372106"/><polyline points="0.24608403564520576,0.3547091792137211
0.24608403564520576,0.32470917921372106"/></g><g stroke-opacity="0.0" fill="#0d0d0d" stroke="#000000" stroke-width="0.0" fill-opacity="0.4"><rect width="0.9740259740259742" x="-0.6780749171041724" y="0.323516440220619" height="3.0843312367813125e-3"/></g><g stroke-opacity="1.0" fill="#b05929" stroke="#b05929" stroke-width="2.0e-3" fill-opacity="1.0"><rect width="3.885741917656815e-2" x="-0.6670653150041448" y="7.58843927347575e-2" height="5.202987916297813e-2"/><rect width="3.885741917656815e-2" x="-0.5699217670627245" y="2.3854513571779368e-2" height="0.10405975832595626"/><rect width="3.88574191765681e-2" x="-0.4727782191213043" y="-2.817536559119871e-2" height="0.15608963748893434"/><rect width="3.88574191765681e-2" x="-0.37563467117988397" y="-0.1322351239171552" height="0.2601493958148908"/><rect width="3.885741917656815e-2" x="-0.2784911232384637" y="-0.28832476140608954" height="0.41623903330382517"/><rect width="3.885741917656804e-2" x="-0.18134757529704337" y="0.12791427189773563" height="0.0"/><rect width="3.885741917656815e-2" x="-8.420402735562305e-2" y="0.12791427189773563" height="0.10405975832595632"/><rect width="3.885741917656782e-2" x="1.293952058579717e-2" y="-0.444414398895024" height="0.5723286707927596"/><rect width="3.885741917656815e-2" x="0.11008306852721739" y="2.3854513571779368e-2" height="0.10405975832595626"/><rect width="3.885741917656815e-2" x="0.2072266164686376" y="7.58843927347575e-2" height="5.202987916297813e-2"/></g><g stroke-opacity="1.0" fill="#a6cfe3" stroke="#a6cfe3" stroke-width="2.0e-3" fill-opacity="1.0"><rect width="3.885741917656815e-2" x="-0.6282078958275766" y="7.58843927347575e-2" height="5.202987916297813e-2"/><rect width="3.885741917656804e-2" x="-0.5310643478861563" y="2.3854513571779368e-2" height="0.10405975832595626"/><rect width="3.885741917656815e-2" x="-0.4339207999447362" y="-2.817536559119871e-2" height="0.15608963748893434"/><rect width="3.885741917656804e-2" x="-0.3367772520033159" y="-8.020524475417701e-2" height="0.20811951665191264"/><rect width="3.885741917656815e-2" x="-0.23963370406189555" y="-0.1322351239171552" height="0.2601493958148908"/><rect width="3.885741917656815e-2" x="-0.14249015612047533" y="-0.18426500308013327" height="0.3121792749778689"/><rect width="3.885741917656782e-2" x="-4.534660817905489e-2" y="-0.23629488224311146" height="0.3642091541408471"/><rect width="3.885741917656815e-2" x="5.179693976236499e-2" y="-0.28832476140608954" height="0.41623903330382517"/><rect width="3.885741917656815e-2" x="0.14894048770378554" y="-0.3403546405690677" height="0.46826891246680336"/><rect width="3.885741917656815e-2" x="0.24608403564520576" y="-0.3923845197320458" height="0.5202987916297814"/></g><g></g><g fill="#b05929" stroke="none" stroke-width="0.0" font-size="4.0e-2" fill-opacity="1.0" text-anchor="middle"><text x="-0.6476366054158608" y="4.882885557000877e-2">1</text><text x="-0.5504930574744404" y="-3.2010235929693653e-3">2</text><text x="-0.4533495095330202" y="-5.523090275594744e-2">3</text><text x="-0.35620596159159995" y="-0.1592906610819037">5</text><text x="-0.2590624136501797" y="-0.31538029857083827">8</text><text x="-0.16191886570875924" y="0.10085873473298701">0</text><text x="-6.477531776733914e-2" y="0.2996128731355635">-2</text><text x="3.236823017408108e-2" y="-0.4714699360597727">11</text><text x="0.1295117781155013" y="-3.2010235929693653e-3">2</text><text x="0.22665532605692185" y="4.882885557000877e-2">1</text></g><g fill="#a6cfe3" stroke="none" stroke-width="0.0" font-size="4.0e-2" fill-opacity="1.0" text-anchor="middle"><text x="-0.6087791862392926" y="4.882885557000877e-2">1</text><text x="-0.5116356382978723" y="-3.2010235929693653e-3">2</text><text x="-0.41449209035645207" y="-5.523090275594744e-2">3</text><text x="-0.3173485424150318" y="-0.10726078191892563">4</text><text x="-0.22020499447361153" y="-0.1592906610819037">5</text><text x="-0.12306144653219131" y="-0.211320540244882">6</text><text x="-2.5917898590770982e-2" y="-0.2633504194078601">7</text><text x="7.122564935064923e-2" y="-0.31538029857083827">8</text><text x="0.16836919729206945" y="-0.36741017773381646">9</text><text x="0.26551274523349" y="-0.41944005689679453">10</text></g></svg>