<svg width="452.1843781120964" xmlns:xlink="http://www.w3.org/1999/xlink" xmlns="http://www.w3.org/2000/svg" viewBox="-0.77 -0.5161504246212084 1.54 1.021707122941497" height="300.0"><style>svg {
  color-scheme: light dark;
}
@media (prefers-color-scheme:dark) {
  svg {
    background-color: #f0f0f0;
  }
}</style><g stroke-opacity="1.0" fill="#b05929" stroke="#b05929" stroke-width="2.0e-3" fill-opacity="1.0"><rect width="3.948580704602278e-2" x="-0.6710283859079541" y="0.11437064990010037" height="5.359443577865591e-2"/><rect width="3.948580704602289e-2" x="-0.5723138682928969" y="6.077621412144485e-2" height="0.10718887155731144"/><rect width="3.948580704602295e-2" x="-0.4735993506778397" y="7.181778342789269e-3" height="0.16078330733596702"/><rect width="3.948580704602278e-2" x="-0.3748848330627824" y="-0.10000709321452184" height="0.2679721788932781"/><rect width="3.9485807046023e-2" x="-0.2761703154477253" y="-0.2607904005504882" height="0.4287554862292445"/><rect width="3.948580704602267e-2" x="-0.17745579783266785" y="0.1679650856787563" height="0.0"/><rect width="3.9485807046023114e-2" x="-7.874128021761084e-2" y="0.1679650856787563" height="0.1071888715573111"/><rect width="3.948580704602245e-2" x="1.9973237397446608e-2" y="-0.4215737078864551" height="0.5895387935652114"/><rect width="3.948580704602278e-2" x="0.11868775501250395" y="6.077621412144485e-2" height="0.10718887155731144"/><rect width="3.9485807046023114e-2" x="0.21740227262756084" y="0.11437064990010037" height="5.359443577865591e-2"/></g><g stroke-opacity="1.0" fill="#a6cfe3" stroke="#a6cfe3" stroke-width="2.0e-3" fill-opacity="1.0"><rect width="3.9485807046023e-2" x="-0.6315425788619313" y="0.11437064990010037" height="5.359443577865591e-2"/><rect width="3.948580704602289e-2" x="-0.532828061246874" y="6.077621412144485e-2" height="0.10718887155731144"/><rect width="3.9485807046022836e-2" x="-0.43411354363181676" y="7.181778342789269e-3" height="0.16078330733596702"/><rect width="3.948580704602289e-2" x="-0.33539902601675964" y="-4.641265743586631e-2" height="0.2143777431146226"/><rect width="3.948580704602289e-2" x="-0.2366845084017023" y="-0.10000709321452184" height="0.2679721788932781"/><rect width="3.9485807046023e-2" x="-0.13796999078664518" y="-0.1536015289931778" height="0.3215666146719341"/><rect width="3.948580704602267e-2" x="-3.925547317158773e-2" y="-0.207195964771833" height="0.3751610504505893"/><rect width="3.9485807046023114e-2" x="5.9459044443469056e-2" y="-0.2607904005504882" height="0.4287554862292445"/><rect width="3.948580704602289e-2" x="0.15817356205852673" y="-0.31438483632914405" height="0.48234992200790033"/><rect width="3.948580704602289e-2" x="0.25688807967358396" y="-0.3679792721077999" height="0.5359443577865561"/></g><g fill="#b05929" stroke="none" stroke-width="0.0" font-size="3.948580704602289e-3" fill-opacity="1.0" text-anchor="middle"><text x="-0.6512854823849428" y="8.650154329519977e-2">1</text><text x="-0.5525709647698854" y="3.290710751654419e-2">2</text><text x="-0.4538564471548282" y="-2.0687328262111726e-2">3</text><text x="-0.355141929539771" y="-0.1278761998194229">5</text><text x="-0.25642741192471374" y="-0.28865950715538913">8</text><text x="-0.1577128943096564" y="0.1400959790738553">0</text><text x="-5.8998376694599286e-2" y="0.3448267237483196">-2</text><text x="3.971614092045783e-2" y="-0.44944281449135615">11</text><text x="0.13843065853551528" y="3.290710751654419e-2">2</text><text x="0.2371451761505725" y="8.650154329519977e-2">1</text></g><g fill="#a6cfe3" stroke="none" stroke-width="0.0" font-size="3.948580704602289e-3" fill-opacity="1.0" text-anchor="middle"><text x="-0.6117996753389198" y="8.650154329519977e-2">1</text><text x="-0.5130851577238625" y="3.290710751654419e-2">2</text><text x="-0.4143706401088053" y="-2.0687328262111726e-2">3</text><text x="-0.3156561224937481" y="-7.428176404076692e-2">4</text><text x="-0.21694160487869085" y="-0.1278761998194229">5</text><text x="-0.11822708726363362" y="-0.18147063559807808">6</text><text x="-1.9512569648576616e-2" y="-0.23506507137673394">7</text><text x="7.920194796648072e-2" y="-0.28865950715538913">8</text><text x="0.17791646558153795" y="-0.342253942934045">9</text><text x="0.2766309831965954" y="-0.3958483787127002">10</text></g><g stroke-opacity="1.0" fill="#0d0d0d" stroke="#0d0d0d" stroke-width="4.0e-3" fill-opacity="0.0"><rect width="0.3035142368270962" x="0.4399047953319002" y="-0.1391560230995912" height="0.19189552043870567"/></g><g fill="#0d0d0d" stroke="none" stroke-width="0.0" font-size="3.158864563681832e-2" fill-opacity="1.0" text-anchor="start"><text x="0.46622866669591545" y="9.531234458876103e-3">column 2</text></g><g stroke-opacity="1.0" fill="#a6cfe3" stroke="#a6cfe3" stroke-width="8.0e-4" fill-opacity="1.0"><rect width="3.158864563681796e-2" x="0.6852432764445227" y="-1.9062468917752096e-2" height="3.812493783550436e-2"/></g><g fill="#0d0d0d" stroke="none" stroke-width="0.0" font-size="3.158864563681832e-2" fill-opacity="1.0" text-anchor="start"><text x="0.46622866669591545" y="-7.68852913016006e-2">column 1</text></g><g stroke-opacity="1.0" fill="#b05929" stroke="#b05929" stroke-width="8.0e-4" fill-opacity="1.0"><rect width="3.158864563681796e-2" x="0.6852432764445227" y="-0.10547899467822885" height="3.812493783550441e-2"/></g><g stroke-opacity="0.0" fill="#0d0d0d" stroke="#000000" stroke-width="0.0" fill-opacity="0.4"><rect width="0.9897775632869743" x="-0.6822160312376606" y="0.3541991042995477" height="3.1770781529587566e-3"/></g><g stroke-opacity="0.4" fill="#0d0d0d" stroke="#0d0d0d" stroke-width="4.0e-3" fill-opacity="0.4"><polyline points="-0.6315425788619313,0.3850844950643413
-0.6315425788619313,0.35508449506434125"/><polyline points="-0.5328280612468739,0.3850844950643413
-0.5328280612468739,0.35508449506434125"/><polyline points="-0.43411354363181676,0.3850844950643413
-0.43411354363181676,0.35508449506434125"/><polyline points="-0.33539902601675947,0.3850844950643413
-0.33539902601675947,0.35508449506434125"/><polyline points="-0.2366845084017022,0.3850844950643413
-0.2366845084017022,0.35508449506434125"/><polyline points="-0.13796999078664496,0.3850844950643413
-0.13796999078664496,0.35508449506434125"/><polyline points="-3.925547317158773e-2,0.3850844950643413
-3.925547317158773e-2,0.35508449506434125"/><polyline points="5.94590444434695e-2,0.3850844950643413
5.94590444434695e-2,0.35508449506434125"/><polyline points="0.15817356205852673,0.3850844950643413
0.15817356205852673,0.35508449506434125"/><polyline points="0.25688807967358396,0.3850844950643413
0.25688807967358396,0.35508449506434125"/></g><g fill="#0d0d0d" stroke="none" stroke-width="0.0" font-size="3.290483920501908e-2" fill-opacity="1.0" text-anchor="end"><text x="-0.6315425788619313" y="0.4157549935131226" transform="rotate(-45.0, -0.6315425788619313, 0.4157549935131226)">row 1</text><text x="-0.5328280612468739" y="0.4157549935131226" transform="rotate(-45.0, -0.5328280612468739, 0.4157549935131226)">row 2</text><text x="-0.43411354363181676" y="0.4157549935131226" transform="rotate(-45.0, -0.43411354363181676, 0.4157549935131226)">row 3</text><text x="-0.33539902601675947" y="0.4157549935131226" transform="rotate(-45.0, -0.33539902601675947, 0.4157549935131226)">row 4</text><text x="-0.2366845084017022" y="0.4157549935131226" transform="rotate(-45.0, -0.2366845084017022, 0.4157549935131226)">row 5</text><text x="-0.13796999078664496" y="0.4157549935131226" transform="rotate(-45.0, -0.13796999078664496, 0.4157549935131226)">row 6</text><text x="-3.925547317158773e-2" y="0.4157549935131226" transform="rotate(-45.0, -3.925547317158773e-2, 0.4157549935131226)">row 7</text><text x="5.94590444434695e-2" y="0.4157549935131226" transform="rotate(-45.0, 5.94590444434695e-2, 0.4157549935131226)">row 8</text><text x="0.15817356205852673" y="0.4157549935131226" transform="rotate(-45.0, 0.15817356205852673, 0.4157549935131226)">row 9</text><text x="0.25688807967358396" y="0.4157549935131226" transform="rotate(-45.0, 0.25688807967358396, 0.4157549935131226)">row 10</text></g><g stroke-opacity="0.0" fill="#0d0d0d" stroke="#000000" stroke-width="0.0" fill-opacity="0.4"><rect width="2.6323871364015705e-3" x="-0.6901131926468652" y="-0.48073896369768754" height="0.866347623029674"/></g><g stroke-opacity="0.4" fill="#0d0d0d" stroke="#0d0d0d" stroke-width="4.0e-3" fill-opacity="0.4"><g transform="rotate(-90.0, -0.7006427411924714, 0.3840201202555073)"><polyline points="-0.7006427411924714,0.3990201202555073
-0.7006427411924714,0.3690201202555073"/></g><g transform="rotate(-90.0, -0.7006427411924714, 0.2761238021459178)"><polyline points="-0.7006427411924714,0.2911238021459178
-0.7006427411924714,0.2611238021459178"/></g><g transform="rotate(-90.0, -0.7006427411924714, 0.16822748403632837)"><polyline points="-0.7006427411924714,0.18322748403632838
-0.7006427411924714,0.15322748403632835"/></g><g transform="rotate(-90.0, -0.7006427411924714, 6.033116592673893e-2)"><polyline points="-0.7006427411924714,7.533116592673893e-2
-0.7006427411924714,4.533116592673893e-2"/></g><g transform="rotate(-90.0, -0.7006427411924714, -4.756515218285051e-2)"><polyline points="-0.7006427411924714,-3.256515218285051e-2
-0.7006427411924714,-6.256515218285051e-2"/></g><g transform="rotate(-90.0, -0.7006427411924714, -0.15546147029244006)"><polyline points="-0.7006427411924714,-0.14046147029244005
-0.7006427411924714,-0.17046147029244008"/></g><g transform="rotate(-90.0, -0.7006427411924714, -0.2633577884020295)"><polyline points="-0.7006427411924714,-0.2483577884020295
-0.7006427411924714,-0.2783577884020295"/></g><g transform="rotate(-90.0, -0.7006427411924714, -0.37125410651161905)"><polyline points="-0.7006427411924714,-0.35625410651161904
-0.7006427411924714,-0.38625410651161907"/></g><g transform="rotate(-90.0, -0.7006427411924714, -0.4791504246212084)"><polyline points="-0.7006427411924714,-0.46415042462120837
-0.7006427411924714,-0.4941504246212084"/></g></g><g fill="#0d0d0d" stroke="none" stroke-width="0.0" font-size="3.290483920501908e-2" fill-opacity="1.0" text-anchor="end"><text x="-0.7203856447154828" y="0.39494132640630286">-4</text><text x="-0.7203856447154828" y="0.28704500829671337">-2</text><text x="-0.7203856447154828" y="0.17914869018712393">0</text><text x="-0.7203856447154828" y="7.125237207753449e-2">2</text><text x="-0.7203856447154828" y="-3.664394603205501e-2">4</text><text x="-0.7203856447154828" y="-0.14454026414164445">6</text><text x="-0.7203856447154828" y="-0.252436582251234">8</text><text x="-0.7203856447154828" y="-0.3603329003608233">10</text><text x="-0.7203856447154828" y="-0.4682292184704129">12</text></g><g stroke-opacity="5.0e-2" fill="none" stroke="#0d0d0d" stroke-width="5.0e-3"><polyline points="-0.6808998376694598,0.3840201202555073
0.3062453384811126,0.3840201202555073"/><polyline points="-0.6808998376694598,0.2761238021459178
0.3062453384811126,0.2761238021459178"/><polyline points="-0.6808998376694598,0.16822748403632837
0.3062453384811126,0.16822748403632837"/><polyline points="-0.6808998376694598,6.033116592673893e-2
0.3062453384811126,6.033116592673893e-2"/><polyline points="-0.6808998376694598,-4.756515218285051e-2
0.3062453384811126,-4.756515218285051e-2"/><polyline points="-0.6808998376694598,-0.15546147029244006
0.3062453384811126,-0.15546147029244006"/><polyline points="-0.6808998376694598,-0.2633577884020295
0.3062453384811126,-0.2633577884020295"/><polyline points="-0.6808998376694598,-0.37125410651161905
0.3062453384811126,-0.37125410651161905"/><polyline points="-0.6808998376694598,-0.4791504246212084
0.3062453384811126,-0.4791504246212084"/></g></svg>