<svg xmlns="http://www.w3.org/2000/svg" width="460.1715110159581" xmlns:xlink="http://www.w3.org/1999/xlink" viewBox="-0.7238932594876959 -0.4916435603742647 1.4738932594876957 0.9608764716227184" height="300.0"><style>svg {
  color-scheme: light dark;
}
{
  .canvas g, .title g, .axisbar g, .ticktext g, .tickglyph g, .ticklines g, .legendContent g text {
    fill: #0d0d0d;
  }
  .ticklines g, .tickglyph g, .legendBorder g {
    stroke: #0d0d0d;
  }
  .legendBorder g {
    fill: #f0f0f0;
  }
}
@media (prefers-color-scheme:dark) {
  .canvas g, .title g, .axisbar g, .ticktext g, .tickglyph g, .ticklines g, .legendContent g text {
    fill: #f0f0f0;
  }
  .ticklines g, .tickglyph g, .legendBorder g {
    stroke: #f0f0f0;
  }
  .legendBorder g {
    fill: #0d0d0d;
  }
}</style><g class="chart"><g class="barchart"><g fill="rgb(2%, 29%, 48%)" stroke="rgb(2%, 29%, 48%)" stroke-width="5.0e-3" fill-opacity="0.7" stroke-opacity="1.0"><rect x="-0.6024960664610737" width="4.259550632513054e-2" y="7.162298599341055e-2" height="4.961684064479793e-2"/><rect x="-0.49600730064824716" width="4.259550632513054e-2" y="2.200614534861267e-2" height="9.923368128959581e-2"/><rect x="-0.38951853483542087" width="4.2595506325130594e-2" y="-2.761069529618526e-2" height="0.14885052193439374"/><rect x="-0.28302976902259436" width="4.259550632513054e-2" y="-0.12684437658578107" height="0.24808420322398955"/><rect x="-0.17654100320976795" width="4.259550632513065e-2" y="-0.2756948985201749" height="0.3969347251583834"/><rect x="-7.005223739694144e-2" width="4.259550632513054e-2" y="0.12123982663820848" height="0.0"/><rect x="3.643652841588507e-2" width="4.259550632513054e-2" y="0.12123982663820848" height="9.923368128959584e-2"/><rect x="0.14292529422871136" width="4.259550632513043e-2" y="-0.42454542045456867" height="0.5457852470927771"/><rect x="0.2494140600415381" width="4.259550632513065e-2" y="2.200614534861267e-2" height="9.923368128959581e-2"/><rect x="0.3559028258543645" width="4.259550632513065e-2" y="7.162298599341055e-2" height="4.961684064479793e-2"/></g><g fill="rgb(66%, 7%, 55%)" stroke="rgb(66%, 7%, 55%)" stroke-width="5.0e-3" fill-opacity="0.7" stroke-opacity="1.0"><rect x="-0.5599005601359431" width="4.259550632513065e-2" y="7.162298599341055e-2" height="4.961684064479793e-2"/><rect x="-0.4534117943231166" width="4.2595506325130594e-2" y="2.200614534861267e-2" height="9.923368128959581e-2"/><rect x="-0.3469230285102903" width="4.259550632513065e-2" y="-2.761069529618526e-2" height="0.14885052193439374"/><rect x="-0.24043426269746382" width="4.259550632513054e-2" y="-7.722753594098325e-2" height="0.19846736257919173"/><rect x="-0.1339454968846373" width="4.259550632513054e-2" y="-0.12684437658578107" height="0.24808420322398955"/><rect x="-2.7456731071810903e-2" width="4.259550632513054e-2" y="-0.17646121723057906" height="0.29770104386878754"/><rect x="7.903203474101561e-2" width="4.259550632513043e-2" y="-0.22607805787537694" height="0.3473178845135854"/><rect x="0.1855208005538418" width="4.259550632513087e-2" y="-0.2756948985201749" height="0.3969347251583834"/><rect x="0.29200956636666875" width="4.259550632513054e-2" y="-0.3253117391649728" height="0.4465515658031813"/><rect x="0.39849833217949515" width="4.259550632513065e-2" y="-0.3749285798097708" height="0.49616840644797927"/></g><g fill="rgb(2%, 29%, 48%)" stroke="none" stroke-width="0.0" font-size="2.555730379507835e-2" fill-opacity="1.0" text-anchor="middle"><text x="-0.5811983132985085" y="4.5822228858115654e-2">1.0</text><text x="-0.47470954748568195" y="-3.7946117866822227e-3">2.0</text><text x="-0.36822078167285555" y="-5.3411452431480155e-2">3.0</text><text x="-0.26173201586002903" y="-0.15264513372107602">5.0</text><text x="-0.15524325004720263" y="-0.30149565565546976">8.0</text><text x="-4.8754484234376116e-2" y="9.543906950291359e-2">0.0</text><text x="5.7734281578450286e-2" y="0.2849754007660416">-2.0</text><text x="0.1642230473912767" y="-0.4503461775898634">11</text><text x="0.2707118132041032" y="-3.7946117866822227e-3">2.0</text><text x="0.3772005790169298" y="4.5822228858115654e-2">1.0</text></g><g fill="rgb(66%, 7%, 55%)" stroke="none" stroke-width="0.0" font-size="2.555730379507835e-2" fill-opacity="1.0" text-anchor="middle"><text x="-0.5386028069733778" y="4.5822228858115654e-2">1.0</text><text x="-0.43211404116055135" y="-3.7946117866822227e-3">2.0</text><text x="-0.32562527534772495" y="-5.3411452431480155e-2">3.0</text><text x="-0.2191365095348985" y="-0.10302829307627814">4.0</text><text x="-0.11264774372207198" y="-0.15264513372107602">5.0</text><text x="-6.158977909245578e-3" y="-0.202261974365874">6.0</text><text x="0.10032978790358071" y="-0.2518788150106719">7.0</text><text x="0.20681855371640745" y="-0.30149565565546976">8.0</text><text x="0.31330731952923385" y="-0.35111249630026764">9.0</text><text x="0.4197960853420605" y="-0.4007293369450655">10</text></g></g></g><g class="hud"><g class="axis"><g class="ticks"><g class="tickglyph"><g fill="rgb(5%, 5%, 5%)" stroke="rgb(5%, 5%, 5%)" stroke-width="4.0e-3" fill-opacity="0.4" stroke-opacity="0.4"><g transform="rotate(-90.0, -0.6344426962049217, 0.31970718921740016)"><polyline points="-0.6344426962049217,0.33470718921740017
-0.6344426962049217,0.30470718921740014"/></g><g transform="rotate(-90.0, -0.6344426962049217, 0.22047350792780432)"><polyline points="-0.6344426962049217,0.2354735079278043
-0.6344426962049217,0.20547350792780433"/></g><g transform="rotate(-90.0, -0.6344426962049217, 0.12123982663820848)"><polyline points="-0.6344426962049217,0.1362398266382085
-0.6344426962049217,0.10623982663820848"/></g><g transform="rotate(-90.0, -0.6344426962049217, 2.200614534861267e-2)"><polyline points="-0.6344426962049217,3.700614534861267e-2
-0.6344426962049217,7.006145348612672e-3"/></g><g transform="rotate(-90.0, -0.6344426962049217, -7.722753594098325e-2)"><polyline points="-0.6344426962049217,-6.222753594098325e-2
-0.6344426962049217,-9.222753594098325e-2"/></g><g transform="rotate(-90.0, -0.6344426962049217, -0.17646121723057906)"><polyline points="-0.6344426962049217,-0.16146121723057905
-0.6344426962049217,-0.19146121723057907"/></g><g transform="rotate(-90.0, -0.6344426962049217, -0.2756948985201749)"><polyline points="-0.6344426962049217,-0.2606948985201749
-0.6344426962049217,-0.29069489852017494"/></g><g transform="rotate(-90.0, -0.6344426962049217, -0.3749285798097708)"><polyline points="-0.6344426962049217,-0.3599285798097708
-0.6344426962049217,-0.3899285798097708"/></g><g transform="rotate(-90.0, -0.6344426962049217, -0.47416226109936654)"><polyline points="-0.6344426962049217,-0.45916226109936653
-0.6344426962049217,-0.48916226109936656"/></g></g></g><g class="ticktext"><g fill="rgb(5%, 5%, 5%)" stroke="none" stroke-width="0.0" font-size="3.549625527094216e-2" fill-opacity="1.0" text-anchor="end"><text x="-0.66" y="0.3306228941592557">-4.0</text><text x="-0.66" y="0.23138921286965985">-2.0</text><text x="-0.66" y="0.132155531580064"> 0.0</text><text x="-0.66" y="3.2921850290468235e-2"> 2.0</text><text x="-0.66" y="-6.631183099912769e-2"> 4.0</text><text x="-0.66" y="-0.1655455122887235"> 6.0</text><text x="-0.66" y="-0.26477919357831936"> 8.0</text><text x="-0.66" y="-0.3640128748679152">10.0</text><text x="-0.66" y="-0.463246556157511">12.0</text></g></g><g class="ticklines"><g fill="none" stroke="rgb(5%, 5%, 5%)" stroke-width="5.0e-3" stroke-opacity="5.0e-2"><polyline points="-0.6131449430423563,0.31970718921740016
0.45174271508590846,0.31970718921740016"/><polyline points="-0.6131449430423563,0.22047350792780432
0.45174271508590846,0.22047350792780432"/><polyline points="-0.6131449430423563,0.12123982663820848
0.45174271508590846,0.12123982663820848"/><polyline points="-0.6131449430423563,2.200614534861267e-2
0.45174271508590846,2.200614534861267e-2"/><polyline points="-0.6131449430423563,-7.722753594098325e-2
0.45174271508590846,-7.722753594098325e-2"/><polyline points="-0.6131449430423563,-0.17646121723057906
0.45174271508590846,-0.17646121723057906"/><polyline points="-0.6131449430423563,-0.2756948985201749
0.45174271508590846,-0.2756948985201749"/><polyline points="-0.6131449430423563,-0.3749285798097708
0.45174271508590846,-0.3749285798097708"/><polyline points="-0.6131449430423563,-0.47416226109936654
0.45174271508590846,-0.47416226109936654"/></g></g></g><g class="axisbar"><g fill="rgb(5%, 5%, 5%)" stroke="rgb(0%, 0%, 0%)" stroke-width="0.0" fill-opacity="0.4" stroke-opacity="0.0"><rect x="-0.6230838945182201" width="2.839700421675362e-3" y="-0.47575" height="0.7970449281180336"/></g></g></g><g class="axis"><g class="ticks"><g class="tickglyph"><g fill="rgb(5%, 5%, 5%)" stroke="rgb(5%, 5%, 5%)" stroke-width="4.0e-3" fill-opacity="0.4" stroke-opacity="0.4"><polyline points="-0.5599005601359431,0.3585232727269032
-0.5599005601359431,0.3285232727269032"/><polyline points="-0.45341179432311657,0.3585232727269032
-0.45341179432311657,0.3285232727269032"/><polyline points="-0.34692302851029017,0.3585232727269032
-0.34692302851029017,0.3285232727269032"/><polyline points="-0.24043426269746365,0.3585232727269032
-0.24043426269746365,0.3285232727269032"/><polyline points="-0.1339454968846372,0.3585232727269032
-0.1339454968846372,0.3285232727269032"/><polyline points="-2.745673107181068e-2,0.3585232727269032
-2.745673107181068e-2,0.3285232727269032"/><polyline points="7.903203474101572e-2,0.3585232727269032
7.903203474101572e-2,0.3285232727269032"/><polyline points="0.18552080055384212,0.3585232727269032
0.18552080055384212,0.3285232727269032"/><polyline points="0.29200956636666875,0.3585232727269032
0.29200956636666875,0.3285232727269032"/><polyline points="0.39849833217949515,0.3585232727269032
0.39849833217949515,0.3285232727269032"/></g></g><g class="ticktext"><g fill="rgb(5%, 5%, 5%)" stroke="none" stroke-width="0.0" font-size="3.549625527094216e-2" fill-opacity="1.0" text-anchor="end"><text x="-0.5599005601359431" y="0.39393398282201786" transform="rotate(-45.0, -0.5599005601359431, 0.39393398282201786)">row 1</text><text x="-0.45341179432311657" y="0.39393398282201786" transform="rotate(-45.0, -0.45341179432311657, 0.39393398282201786)">row 2</text><text x="-0.34692302851029017" y="0.39393398282201786" transform="rotate(-45.0, -0.34692302851029017, 0.39393398282201786)">row 3</text><text x="-0.24043426269746365" y="0.39393398282201786" transform="rotate(-45.0, -0.24043426269746365, 0.39393398282201786)">row 4</text><text x="-0.1339454968846372" y="0.39393398282201786" transform="rotate(-45.0, -0.1339454968846372, 0.39393398282201786)">row 5</text><text x="-2.745673107181068e-2" y="0.39393398282201786" transform="rotate(-45.0, -2.745673107181068e-2, 0.39393398282201786)">row 6</text><text x="7.903203474101572e-2" y="0.39393398282201786" transform="rotate(-45.0, 7.903203474101572e-2, 0.39393398282201786)">row 7</text><text x="0.18552080055384212" y="0.39393398282201786" transform="rotate(-45.0, 0.18552080055384212, 0.39393398282201786)">row 8</text><text x="0.29200956636666875" y="0.39393398282201786" transform="rotate(-45.0, 0.29200956636666875, 0.39393398282201786)">row 9</text><text x="0.39849833217949515" y="0.39393398282201786" transform="rotate(-45.0, 0.39849833217949515, 0.39393398282201786)">row 10</text></g></g></g><g class="axisbar"><g fill="rgb(5%, 5%, 5%)" stroke="rgb(0%, 0%, 0%)" stroke-width="0.0" fill-opacity="0.4" stroke-opacity="0.0"><rect x="-0.614564793253194" width="1.06772735854994" y="0.3276458837205678" height="3.1754778012670903e-3"/></g></g></g><g class="legend"><g class="legendBorder"><g fill="rgb(5%, 5%, 5%)" stroke="rgb(5%, 5%, 5%)" stroke-width="2.5e-3" fill-opacity="0.0" stroke-opacity="1.0"><rect x="0.5067619107558688" width="0.2396884637170369" y="-0.13892468119271362" height="0.1806052999470643"/></g></g><g class="legendContent"><g fill="rgb(5%, 5%, 5%)" stroke="none" stroke-width="0.0" font-size="3.1946629743847946e-2" fill-opacity="1.0" text-anchor="start"><text x="0.5245100383913396" y="4.98641019168411e-4">column 2</text></g><g fill="rgb(66%, 7%, 55%)" stroke="rgb(66%, 7%, 55%)" stroke-width="1.25e-3" fill-opacity="0.7" stroke-opacity="1.0"><rect x="0.6750141607401346" width="5.324438290641331e-2" y="-3.820249468377396e-2" height="5.954020877375754e-2"/></g><g fill="rgb(5%, 5%, 5%)" stroke="none" stroke-width="0.0" font-size="3.1946629743847946e-2" fill-opacity="1.0" text-anchor="start"><text x="0.5245100383913396" y="-7.988064082540414e-2">column 1</text></g><g fill="rgb(2%, 29%, 48%)" stroke="rgb(2%, 29%, 48%)" stroke-width="1.25e-3" fill-opacity="0.7" stroke-opacity="1.0"><rect x="0.6750141607401346" width="5.324438290641331e-2" y="-0.11858177652834667" height="5.95402087737576e-2"/></g></g></g></g></svg>