<svg height="300" viewBox="-0.7427 -0.4933 1.4927 0.9683" width="462" xmlns="http://www.w3.org/2000/svg" xmlns:xlink="http://www.w3.org/1999/xlink"><style>svg {
  color-scheme: light dark;
}
{
  .canvas g, .title g, .axisbar g, .ticktext g, .tickglyph g, .ticklines g, .legendContent g text {
    fill: rgb(5%, 5%, 5%);
  }
  .ticklines g, .tickglyph g, .legendBorder g {
    stroke: rgb(5%, 5%, 5%);
  }
  .legendBorder g {
    fill: rgb(94%, 94%, 94%);
  }
}
@media (prefers-color-scheme:dark) {
  .canvas g, .title g, .axisbar g, .ticktext g, .tickglyph g, .ticklines g, .legendContent g text {
    fill: rgb(94%, 94%, 94%);
  }
  .ticklines g, .tickglyph g, .legendBorder g {
    stroke: rgb(94%, 94%, 94%);
  }
  .legendBorder g {
    fill: rgb(5%, 5%, 5%);
  }
}</style><g class="chart"><g class="barchart"><g fill="rgb(2%, 29%, 48%)" fill-opacity="(0.70" stroke="rgb(2%, 29%, 48%)" stroke-opacity="(1.0" stroke-width="0.0050"><rect height="0.0529" width="0.0511" x="-0.7063" y="0.0849"/><rect height="0.1058" width="0.0511" x="-0.5927" y="0.0320"/><rect height="0.1587" width="0.0511" x="-0.4792" y="-0.0209"/><rect height="0.2644" width="0.0511" x="-0.3656" y="-0.1267"/><rect height="0.4231" width="0.0511" x="-0.2521" y="-0.2853"/><rect height="0" width="0.0511" x="-0.1386" y="0.1378"/><rect height="0.1058" width="0.0511" x="-0.0250" y="0.1378"/><rect height="0.5817" width="0.0511" x="0.0885" y="-0.4440"/><rect height="0.1058" width="0.0511" x="0.2021" y="0.0320"/><rect height="0.0529" width="0.0511" x="0.3156" y="0.0849"/></g><g fill="rgb(66%, 7%, 55%)" fill-opacity="(0.70" stroke="rgb(66%, 7%, 55%)" stroke-opacity="(1.0" stroke-width="0.0050"><rect height="0.0529" width="0.0511" x="-0.6552" y="0.0849"/><rect height="0.1058" width="0.0511" x="-0.5416" y="0.0320"/><rect height="0.1587" width="0.0511" x="-0.4281" y="-0.0209"/><rect height="0.2115" width="0.0511" x="-0.3145" y="-0.0738"/><rect height="0.2644" width="0.0511" x="-0.2010" y="-0.1267"/><rect height="0.3173" width="0.0511" x="-0.0875" y="-0.1796"/><rect height="0.3702" width="0.0511" x="0.0261" y="-0.2324"/><rect height="0.4231" width="0.0511" x="0.1396" y="-0.2853"/><rect height="0.4760" width="0.0511" x="0.2532" y="-0.3382"/><rect height="0.5289" width="0.0511" x="0.3667" y="-0.3911"/></g><g fill="rgb(2%, 29%, 48%)" fill-opacity="(1.0" font-size="0.0273" stroke="none" stroke-width="0.0" text-anchor="middle"><text x="-0.6836" y="0.0574">1.0</text><text x="-0.5700" y="0.0045">2.0</text><text x="-0.4565" y="-0.0484">3.0</text><text x="-0.3429" y="-0.1542">5.0</text><text x="-0.2294" y="-0.3128">8.0</text><text x="-0.1158" y="0.1103">0.0</text><text x="-0.0023" y="0.3123">-2.0</text><text x="0.1112" y="-0.4715">11</text><text x="0.2248" y="0.0045">2.0</text><text x="0.3383" y="0.0574">1.0</text></g><g fill="rgb(66%, 7%, 55%)" fill-opacity="(1.0" font-size="0.0273" stroke="none" stroke-width="0.0" text-anchor="middle"><text x="-0.6382" y="0.0574">1.0</text><text x="-0.5246" y="0.0045">2.0</text><text x="-0.4111" y="-0.0484">3.0</text><text x="-0.2975" y="-0.1013">4.0</text><text x="-0.1840" y="-0.1542">5.0</text><text x="-0.0704" y="-0.2071">6.0</text><text x="0.0431" y="-0.2599">7.0</text><text x="0.1567" y="-0.3128">8.0</text><text x="0.2702" y="-0.3657">9.0</text><text x="0.3838" y="-0.4186">10</text></g></g></g><g class="hud"><g class="axis"><g class="ticks"><g class="tickglyph"><g fill="rgb(5%, 5%, 5%)" fill-opacity="(0.40" stroke="rgb(5%, 5%, 5%)" stroke-opacity="(0.40" stroke-width="0.0040"><polyline points="-0.6603,0.3592
-0.6603,0.3292"/><polyline points="-0.5456,0.3592
-0.5456,0.3292"/><polyline points="-0.4309,0.3592
-0.4309,0.3292"/><polyline points="-0.3163,0.3592
-0.3163,0.3292"/><polyline points="-0.2016,0.3592
-0.2016,0.3292"/><polyline points="-0.0869,0.3592
-0.0869,0.3292"/><polyline points="0.0278,0.3592
0.0278,0.3292"/><polyline points="0.1425,0.3592
0.1425,0.3292"/><polyline points="0.2572,0.3592
0.2572,0.3292"/><polyline points="0.3718,0.3592
0.3718,0.3292"/></g></g><g class="ticktext"><g fill="rgb(5%, 5%, 5%)" fill-opacity="(1.0" font-size="0.0382" stroke="none" stroke-width="0.0" text-anchor="end"><text transform="rotate(-45.0, -0.6603, 0.3939)" x="-0.6603" y="0.3939">row 1</text><text transform="rotate(-45.0, -0.5456, 0.3939)" x="-0.5456" y="0.3939">row 2</text><text transform="rotate(-45.0, -0.4309, 0.3939)" x="-0.4309" y="0.3939">row 3</text><text transform="rotate(-45.0, -0.3163, 0.3939)" x="-0.3163" y="0.3939">row 4</text><text transform="rotate(-45.0, -0.2016, 0.3939)" x="-0.2016" y="0.3939">row 5</text><text transform="rotate(-45.0, -0.0869, 0.3939)" x="-0.0869" y="0.3939">row 6</text><text transform="rotate(-45.0, 0.0278, 0.3939)" x="0.0278" y="0.3939">row 7</text><text transform="rotate(-45.0, 0.1425, 0.3939)" x="0.1425" y="0.3939">row 8</text><text transform="rotate(-45.0, 0.2572, 0.3939)" x="0.2572" y="0.3939">row 9</text><text transform="rotate(-45.0, 0.3718, 0.3939)" x="0.3718" y="0.3939">row 10</text></g></g></g><g class="axisbar"><g fill="rgb(5%, 5%, 5%)" fill-opacity="(0.40" stroke="rgb(0%, 0%, 0%)" stroke-opacity="(0.0" stroke-width="0"><rect height="0.0031" width="1.1499" x="-0.7192" y="0.3285"/></g></g></g><g class="legend"><g class="legendBorder"><g fill="rgb(5%, 5%, 5%)" fill-opacity="(0.0" stroke="rgb(5%, 5%, 5%)" stroke-opacity="(1.0" stroke-width="0.0025"><rect height="0.1783" width="0.2581" x="0.4880" y="-0.1372"/></g></g><g class="legendContent"><g fill="rgb(5%, 5%, 5%)" fill-opacity="(1.0" font-size="0.0344" stroke="none" stroke-width="0.0" text-anchor="start"><text x="0.5072" y="0.0004">column 2</text></g><g fill="rgb(66%, 7%, 55%)" fill-opacity="(0.70" stroke="rgb(66%, 7%, 55%)" stroke-opacity="(1.0" stroke-width="0.0012"><rect height="0.0588" width="0.0573" x="0.6692" y="-0.0378"/></g><g fill="rgb(5%, 5%, 5%)" fill-opacity="(1.0" font-size="0.0344" stroke="none" stroke-width="0.0" text-anchor="start"><text x="0.5072" y="-0.0789">column 1</text></g><g fill="rgb(2%, 29%, 48%)" fill-opacity="(0.70" stroke="rgb(2%, 29%, 48%)" stroke-opacity="(1.0" stroke-width="0.0012"><rect height="0.0588" width="0.0573" x="0.6692" y="-0.1171"/></g></g></g></g></svg>