<svg viewBox="-0.7888698305350151 -0.6964049999999999 1.9445286025732926 1.4419001215878116" xmlns="http://www.w3.org/2000/svg" xmlns:xlink="http://www.w3.org/1999/xlink" version="1.1" width="800.0" height="600.0"><g stroke-width="0.0" stroke="none" fill="#000000" transform="translate(-5.0450897321085875e-2, -0.57175)" fill-opacity="1.0" font-size="0.12" text-anchor="middle"><text transform="rotate(0.0, 0.0, -0.0)" x="0.0" y="-0.0">Default Bar Chart</text></g><g stroke-width="0.0" stroke="#000000" fill="#666666" fill-opacity="3.0e-2" stroke-opacity="0.0"><rect width="1.33" height="1.0" x="-0.665" y="-0.5" /></g><g stroke-width="5.0e-3" stroke="#A8E5EE" fill="none" stroke-opacity="0.3"><polyline points="-0.67,0.5 0.67,0.5" /></g><g stroke-width="5.0e-3" stroke="#A8E5EE" fill="none" stroke-opacity="0.3"><polyline points="-0.67,0.375 0.67,0.375" /></g><g stroke-width="5.0e-3" stroke="#A8E5EE" fill="none" stroke-opacity="0.3"><polyline points="-0.67,0.25 0.67,0.25" /></g><g stroke-width="5.0e-3" stroke="#A8E5EE" fill="none" stroke-opacity="0.3"><polyline points="-0.67,0.125 0.67,0.125" /></g><g stroke-width="5.0e-3" stroke="#A8E5EE" fill="none" stroke-opacity="0.3"><polyline points="-0.67,-0.0 0.67,-0.0" /></g><g stroke-width="5.0e-3" stroke="#A8E5EE" fill="none" stroke-opacity="0.3"><polyline points="-0.67,-0.125 0.67,-0.125" /></g><g stroke-width="5.0e-3" stroke="#A8E5EE" fill="none" stroke-opacity="0.3"><polyline points="-0.67,-0.25 0.67,-0.25" /></g><g stroke-width="5.0e-3" stroke="#A8E5EE" fill="none" stroke-opacity="0.3"><polyline points="-0.67,-0.375 0.67,-0.375" /></g><g stroke-width="5.0e-3" stroke="#A8E5EE" fill="none" stroke-opacity="0.3"><polyline points="-0.67,-0.5 0.67,-0.5" /></g><g stroke-width="0.0" stroke="none" fill="#666666" fill-opacity="1.0" font-size="5.0e-2" text-anchor="end"><text x="-0.7234017946421717" y="0.5145">-4</text></g><g stroke-width="0.0" stroke="none" fill="#666666" fill-opacity="1.0" font-size="5.0e-2" text-anchor="end"><text x="-0.7234017946421717" y="0.3895">-2</text></g><g stroke-width="0.0" stroke="none" fill="#666666" fill-opacity="1.0" font-size="5.0e-2" text-anchor="end"><text x="-0.7234017946421717" y="0.2645">0</text></g><g stroke-width="0.0" stroke="none" fill="#666666" fill-opacity="1.0" font-size="5.0e-2" text-anchor="end"><text x="-0.7234017946421717" y="0.1395">2</text></g><g stroke-width="0.0" stroke="none" fill="#666666" fill-opacity="1.0" font-size="5.0e-2" text-anchor="end"><text x="-0.7234017946421717" y="1.4499999999999999e-2">4</text></g><g stroke-width="0.0" stroke="none" fill="#666666" fill-opacity="1.0" font-size="5.0e-2" text-anchor="end"><text x="-0.7234017946421717" y="-0.1105">6</text></g><g stroke-width="0.0" stroke="none" fill="#666666" fill-opacity="1.0" font-size="5.0e-2" text-anchor="end"><text x="-0.7234017946421717" y="-0.2355">8</text></g><g stroke-width="0.0" stroke="none" fill="#666666" fill-opacity="1.0" font-size="5.0e-2" text-anchor="end"><text x="-0.7234017946421717" y="-0.3605">10</text></g><g stroke-width="0.0" stroke="none" fill="#666666" fill-opacity="1.0" font-size="5.0e-2" text-anchor="end"><text x="-0.7234017946421717" y="-0.4855">12</text></g><g stroke-width="0.0" stroke="#2C429D" fill="#5F0391" fill-opacity="1.0" stroke-opacity="0.4"><line stroke-width="5.0e-3" transform="rotate(-90.0, -0.6933267946421716, 0.5)" x1="-0.6933267946421716" y1="0.515" x2="-0.6933267946421716" y2="0.485" /><line stroke-width="5.0e-3" transform="rotate(-90.0, -0.6933267946421716, 0.375)" x1="-0.6933267946421716" y1="0.39" x2="-0.6933267946421716" y2="0.36" /><line stroke-width="5.0e-3" transform="rotate(-90.0, -0.6933267946421716, 0.25)" x1="-0.6933267946421716" y1="0.265" x2="-0.6933267946421716" y2="0.235" /><line stroke-width="5.0e-3" transform="rotate(-90.0, -0.6933267946421716, 0.125)" x1="-0.6933267946421716" y1="0.14" x2="-0.6933267946421716" y2="0.11" /><line stroke-width="5.0e-3" transform="rotate(-90.0, -0.6933267946421716, -0.0)" x1="-0.6933267946421716" y1="1.5e-2" x2="-0.6933267946421716" y2="-1.5e-2" /><line stroke-width="5.0e-3" transform="rotate(-90.0, -0.6933267946421716, -0.125)" x1="-0.6933267946421716" y1="-0.11" x2="-0.6933267946421716" y2="-0.14" /><line stroke-width="5.0e-3" transform="rotate(-90.0, -0.6933267946421716, -0.25)" x1="-0.6933267946421716" y1="-0.235" x2="-0.6933267946421716" y2="-0.265" /><line stroke-width="5.0e-3" transform="rotate(-90.0, -0.6933267946421716, -0.375)" x1="-0.6933267946421716" y1="-0.36" x2="-0.6933267946421716" y2="-0.39" /><line stroke-width="5.0e-3" transform="rotate(-90.0, -0.6933267946421716, -0.5)" x1="-0.6933267946421716" y1="-0.485" x2="-0.6933267946421716" y2="-0.515" /></g><g stroke-width="0.0" stroke="#666666" fill="#5F0391" fill-opacity="0.5" stroke-opacity="0.0"><rect width="5.0000000000000044e-3" height="1.0" x="-0.6833267946421716" y="-0.5" /></g><g stroke-width="0.0" stroke="none" fill="#666666" fill-opacity="1.0" font-size="5.0e-2" text-anchor="end"><text transform="rotate(-45.0, -0.5985, 0.6062500000000001)" x="-0.5985" y="0.6062500000000001">row 1</text></g><g stroke-width="0.0" stroke="none" fill="#666666" fill-opacity="1.0" font-size="5.0e-2" text-anchor="end"><text transform="rotate(-45.0, -0.4655, 0.6062500000000001)" x="-0.4655" y="0.6062500000000001">row 2</text></g><g stroke-width="0.0" stroke="none" fill="#666666" fill-opacity="1.0" font-size="5.0e-2" text-anchor="end"><text transform="rotate(-45.0, -0.3325, 0.6062500000000001)" x="-0.3325" y="0.6062500000000001">row 3</text></g><g stroke-width="0.0" stroke="none" fill="#666666" fill-opacity="1.0" font-size="5.0e-2" text-anchor="end"><text transform="rotate(-45.0, -0.19950000000000007, 0.6062500000000001)" x="-0.19950000000000007" y="0.6062500000000001">row 4</text></g><g stroke-width="0.0" stroke="none" fill="#666666" fill-opacity="1.0" font-size="5.0e-2" text-anchor="end"><text transform="rotate(-45.0, -6.65e-2, 0.6062500000000001)" x="-6.65e-2" y="0.6062500000000001">row 5</text></g><g stroke-width="0.0" stroke="none" fill="#666666" fill-opacity="1.0" font-size="5.0e-2" text-anchor="end"><text transform="rotate(-45.0, 6.650000000000011e-2, 0.6062500000000001)" x="6.650000000000011e-2" y="0.6062500000000001">row 6</text></g><g stroke-width="0.0" stroke="none" fill="#666666" fill-opacity="1.0" font-size="5.0e-2" text-anchor="end"><text transform="rotate(-45.0, 0.1995, 0.6062500000000001)" x="0.1995" y="0.6062500000000001">row 7</text></g><g stroke-width="0.0" stroke="none" fill="#666666" fill-opacity="1.0" font-size="5.0e-2" text-anchor="end"><text transform="rotate(-45.0, 0.3325, 0.6062500000000001)" x="0.3325" y="0.6062500000000001">row 8</text></g><g stroke-width="0.0" stroke="none" fill="#666666" fill-opacity="1.0" font-size="5.0e-2" text-anchor="end"><text transform="rotate(-45.0, 0.4655, 0.6062500000000001)" x="0.4655" y="0.6062500000000001">row 9</text></g><g stroke-width="0.0" stroke="none" fill="#666666" fill-opacity="1.0" font-size="5.0e-2" text-anchor="end"><text transform="rotate(-45.0, 0.5985, 0.6062500000000001)" x="0.5985" y="0.6062500000000001">row 10</text></g><g stroke-width="0.0" stroke="#2C429D" fill="#5F0391" fill-opacity="1.0" stroke-opacity="0.4"><line stroke-width="5.0e-3" x1="-0.5985" y1="0.54" x2="-0.5985" y2="0.51" /><line stroke-width="5.0e-3" x1="-0.4655" y1="0.54" x2="-0.4655" y2="0.51" /><line stroke-width="5.0e-3" x1="-0.3325" y1="0.54" x2="-0.3325" y2="0.51" /><line stroke-width="5.0e-3" x1="-0.19950000000000007" y1="0.54" x2="-0.19950000000000007" y2="0.51" /><line stroke-width="5.0e-3" x1="-6.65e-2" y1="0.54" x2="-6.65e-2" y2="0.51" /><line stroke-width="5.0e-3" x1="6.650000000000011e-2" y1="0.54" x2="6.650000000000011e-2" y2="0.51" /><line stroke-width="5.0e-3" x1="0.1995" y1="0.54" x2="0.1995" y2="0.51" /><line stroke-width="5.0e-3" x1="0.3325" y1="0.54" x2="0.3325" y2="0.51" /><line stroke-width="5.0e-3" x1="0.4655" y1="0.54" x2="0.4655" y2="0.51" /><line stroke-width="5.0e-3" x1="0.5985" y1="0.54" x2="0.5985" y2="0.51" /></g><g stroke-width="0.0" stroke="#666666" fill="#5F0391" fill-opacity="0.5" stroke-opacity="0.0"><rect width="1.33" height="5.0000000000000044e-3" x="-0.665" y="0.51" /></g><g stroke-width="2.0e-3" stroke="#666666" fill="#032F74" fill-opacity="0.5" stroke-opacity="1.0"><rect width="5.3200000000000025e-2" height="6.25e-2" x="-0.6517000000000001" y="0.1875" /><rect width="5.3200000000000025e-2" height="0.125" x="-0.5187" y="0.125" /><rect width="5.319999999999997e-2" height="0.1875" x="-0.38570000000000015" y="6.25e-2" /><rect width="5.319999999999997e-2" height="0.3125" x="-0.25270000000000015" y="-6.25e-2" /><rect width="5.3200000000000025e-2" height="0.5" x="-0.11970000000000014" y="-0.25" /><rect width="5.3199999999999914e-2" x="1.3299999999999867e-2" y="0.25" /><rect width="5.3200000000000025e-2" height="0.125" x="0.14629999999999987" y="0.25" /><rect width="5.3199999999999914e-2" height="0.6875" x="0.27929999999999977" y="-0.4375" /><rect width="5.3200000000000136e-2" height="0.125" x="0.4122999999999999" y="0.125" /><rect width="5.3200000000000136e-2" height="6.25e-2" x="0.5452999999999999" y="0.1875" /></g><g stroke-width="2.0e-3" stroke="#666666" fill="#003601" fill-opacity="0.5" stroke-opacity="1.0"><rect width="5.3200000000000025e-2" height="6.25e-2" x="-0.5985" y="0.1875" /><rect width="5.319999999999997e-2" height="0.125" x="-0.4655" y="0.125" /><rect width="5.319999999999997e-2" height="0.1875" x="-0.3325000000000002" y="6.25e-2" /><rect width="5.319999999999997e-2" height="0.25" x="-0.19950000000000018" /><rect width="5.3200000000000025e-2" height="0.3125" x="-6.650000000000011e-2" y="-6.25e-2" /><rect width="5.3200000000000025e-2" height="0.375" x="6.649999999999978e-2" y="-0.125" /><rect width="5.3199999999999914e-2" height="0.4375" x="0.1994999999999999" y="-0.1875" /><rect width="5.3200000000000025e-2" height="0.5" x="0.3324999999999997" y="-0.25" /><rect width="5.3199999999999914e-2" height="0.5625" x="0.4655" y="-0.3125" /><rect width="5.3199999999999914e-2" height="0.625" x="0.5985" y="-0.375" /></g><g /><g stroke-width="0.0" stroke="none" fill="#032F74" fill-opacity="0.5" font-size="4.0e-2" text-anchor="middle"><text x="-0.6251" y="0.15500000000000003">1</text><text x="-0.4921000000000001" y="9.250000000000003e-2">2</text><text x="-0.35910000000000014" y="3.0000000000000027e-2">3</text><text x="-0.22610000000000013" y="-9.499999999999997e-2">5</text><text x="-9.310000000000018e-2" y="-0.2825">8</text><text x="3.9899999999999936e-2" y="0.21750000000000003">0</text><text x="0.17289999999999983" y="0.4075">-2</text><text x="0.30589999999999984" y="-0.47">11</text><text x="0.43889999999999985" y="9.250000000000003e-2">2</text><text x="0.5718999999999999" y="0.15500000000000003">1</text></g><g stroke-width="0.0" stroke="none" fill="#003601" fill-opacity="0.5" font-size="4.0e-2" text-anchor="middle"><text x="-0.5719000000000001" y="0.15500000000000003">1</text><text x="-0.43890000000000007" y="9.250000000000003e-2">2</text><text x="-0.3059000000000001" y="3.0000000000000027e-2">3</text><text x="-0.17290000000000016" y="-3.249999999999997e-2">4</text><text x="-3.990000000000016e-2" y="-9.499999999999997e-2">5</text><text x="9.309999999999974e-2" y="-0.15749999999999997">6</text><text x="0.22609999999999975" y="-0.21999999999999997">7</text><text x="0.35909999999999975" y="-0.2825">8</text><text x="0.4921" y="-0.345">9</text><text x="0.6250999999999998" y="-0.4075">10</text></g><g /><g stroke-width="6.600000000000001e-3" stroke="#3764A0" fill="#FFFFFF" fill-opacity="1.0" stroke-opacity="0.5"><rect width="0.3988683451841749" height="0.35731692625079686" x="0.6949908274079125" y="-0.14665362895295264" /></g><g stroke-width="0.0" stroke="none" fill="#666666" fill-opacity="1.0" font-size="5.280000000000001e-2" text-anchor="start"><text x="0.7305723033387042" y="0.11934897170041836">column 2</text></g><g stroke-width="6.6e-4" stroke="#666666" fill="#003601" fill-opacity="0.5" stroke-opacity="1.0"><rect width="4.2697771116950056e-2" height="5.955282104179946e-2" x="1.0152241107850377" y="5.97961506586189e-2" /></g><g stroke-width="0.0" stroke="none" fill="#666666" fill-opacity="1.0" font-size="5.280000000000001e-2" text-anchor="start"><text x="0.7305723033387042" y="-2.3577798799900407e-2">column 1</text></g><g stroke-width="6.6e-4" stroke="#666666" fill="#032F74" fill-opacity="0.5" stroke-opacity="1.0"><rect width="4.2697771116950056e-2" height="5.955282104179943e-2" x="1.0152241107850377" y="-8.313061984169984e-2" /></g><g /></svg>