<svg width="398.2301616785188" xmlns:xlink="http://www.w3.org/1999/xlink" xmlns="http://www.w3.org/2000/svg" viewBox="-0.8200000000000001 -0.5531722096956032 1.59 1.1977997798797322" height="300.0"><style>svg {
  color-scheme: light dark;
}
@media (prefers-color-scheme:dark) {
  svg {
    background-color: #f0f0f0;
  }
}</style><g stroke-opacity="0.0" fill="#0d0d0d" stroke="#000000" stroke-width="0.0" fill-opacity="5.0e-2"><rect width="0.9952977709753474" x="-0.7118270128238589" y="-0.5" height="0.9019165727170236"/></g><g stroke-opacity="5.0e-2" fill="none" stroke="#0d0d0d" stroke-width="5.0e-3"><polyline points="-0.7118270128238589,0.40191657271702363
0.2834707581514886,0.40191657271702363"/></g><g stroke-opacity="5.0e-2" fill="none" stroke="#0d0d0d" stroke-width="5.0e-3"><polyline points="-0.7118270128238589,0.28917700112739575
0.2834707581514886,0.28917700112739575"/></g><g stroke-opacity="5.0e-2" fill="none" stroke="#0d0d0d" stroke-width="5.0e-3"><polyline points="-0.7118270128238589,0.17643742953776775
0.2834707581514886,0.17643742953776775"/></g><g stroke-opacity="5.0e-2" fill="none" stroke="#0d0d0d" stroke-width="5.0e-3"><polyline points="-0.7118270128238589,6.369785794813976e-2
0.2834707581514886,6.369785794813976e-2"/></g><g stroke-opacity="5.0e-2" fill="none" stroke="#0d0d0d" stroke-width="5.0e-3"><polyline points="-0.7118270128238589,-4.904171364148824e-2
0.2834707581514886,-4.904171364148824e-2"/></g><g stroke-opacity="5.0e-2" fill="none" stroke="#0d0d0d" stroke-width="5.0e-3"><polyline points="-0.7118270128238589,-0.16178128523111612
0.2834707581514886,-0.16178128523111612"/></g><g stroke-opacity="5.0e-2" fill="none" stroke="#0d0d0d" stroke-width="5.0e-3"><polyline points="-0.7118270128238589,-0.2745208568207441
0.2834707581514886,-0.2745208568207441"/></g><g stroke-opacity="5.0e-2" fill="none" stroke="#0d0d0d" stroke-width="5.0e-3"><polyline points="-0.7118270128238589,-0.387260428410372
0.2834707581514886,-0.387260428410372"/></g><g stroke-opacity="5.0e-2" fill="none" stroke="#0d0d0d" stroke-width="5.0e-3"><polyline points="-0.7118270128238589,-0.5
0.2834707581514886,-0.5"/></g><g fill="#0d0d0d" stroke="none" stroke-width="0.0" font-size="5.0e-2" fill-opacity="1.0" text-anchor="end"><text x="-0.75" y="0.4149943630214205">-4</text></g><g fill="#0d0d0d" stroke="none" stroke-width="0.0" font-size="5.0e-2" fill-opacity="1.0" text-anchor="end"><text x="-0.75" y="0.30225479143179257">-2</text></g><g fill="#0d0d0d" stroke="none" stroke-width="0.0" font-size="5.0e-2" fill-opacity="1.0" text-anchor="end"><text x="-0.75" y="0.18951521984216457">0</text></g><g fill="#0d0d0d" stroke="none" stroke-width="0.0" font-size="5.0e-2" fill-opacity="1.0" text-anchor="end"><text x="-0.75" y="7.677564825253663e-2">2</text></g><g fill="#0d0d0d" stroke="none" stroke-width="0.0" font-size="5.0e-2" fill-opacity="1.0" text-anchor="end"><text x="-0.75" y="-3.596392333709142e-2">4</text></g><g fill="#0d0d0d" stroke="none" stroke-width="0.0" font-size="5.0e-2" fill-opacity="1.0" text-anchor="end"><text x="-0.75" y="-0.1487034949267193">6</text></g><g fill="#0d0d0d" stroke="none" stroke-width="0.0" font-size="5.0e-2" fill-opacity="1.0" text-anchor="end"><text x="-0.75" y="-0.2614430665163472">8</text></g><g fill="#0d0d0d" stroke="none" stroke-width="0.0" font-size="5.0e-2" fill-opacity="1.0" text-anchor="end"><text x="-0.75" y="-0.3741826381059751">10</text></g><g fill="#0d0d0d" stroke="none" stroke-width="0.0" font-size="5.0e-2" fill-opacity="1.0" text-anchor="end"><text x="-0.75" y="-0.4869222096956032">12</text></g><g stroke-opacity="0.4" fill="#0d0d0d" stroke="#0d0d0d" stroke-width="2.0e-3" fill-opacity="0.4"><g transform="rotate(-90.0, -0.7294106067777567, 0.40191657271702363)"><polyline points="-0.7294106067777567,0.41691657271702365
-0.7294106067777567,0.3869165727170236"/></g><g transform="rotate(-90.0, -0.7294106067777567, 0.28917700112739575)"><polyline points="-0.7294106067777567,0.30417700112739576
-0.7294106067777567,0.27417700112739574"/></g><g transform="rotate(-90.0, -0.7294106067777567, 0.17643742953776775)"><polyline points="-0.7294106067777567,0.19143742953776777
-0.7294106067777567,0.16143742953776774"/></g><g transform="rotate(-90.0, -0.7294106067777567, 6.369785794813976e-2)"><polyline points="-0.7294106067777567,7.869785794813976e-2
-0.7294106067777567,4.869785794813976e-2"/></g><g transform="rotate(-90.0, -0.7294106067777567, -4.904171364148824e-2)"><polyline points="-0.7294106067777567,-3.404171364148824e-2
-0.7294106067777567,-6.404171364148824e-2"/></g><g transform="rotate(-90.0, -0.7294106067777567, -0.16178128523111612)"><polyline points="-0.7294106067777567,-0.1467812852311161
-0.7294106067777567,-0.17678128523111614"/></g><g transform="rotate(-90.0, -0.7294106067777567, -0.2745208568207441)"><polyline points="-0.7294106067777567,-0.2595208568207441
-0.7294106067777567,-0.28952085682074413"/></g><g transform="rotate(-90.0, -0.7294106067777567, -0.387260428410372)"><polyline points="-0.7294106067777567,-0.372260428410372
-0.7294106067777567,-0.402260428410372"/></g><g transform="rotate(-90.0, -0.7294106067777567, -0.5)"><polyline points="-0.7294106067777567,-0.485
-0.7294106067777567,-0.515"/></g></g><g stroke-opacity="0.0" fill="#0d0d0d" stroke="#000000" stroke-width="0.0" fill-opacity="0.4"><rect width="2.6541273892675132e-3" x="-0.7211164586862954" y="-0.5" height="0.9019165727170236"/></g><g fill="#0d0d0d" stroke="none" stroke-width="0.0" font-size="5.0e-2" fill-opacity="1.0" text-anchor="end"><text x="-0.6620621242750915" y="0.5" transform="rotate(-45.0, -0.6620621242750915, 0.5)">row 1</text></g><g fill="#0d0d0d" stroke="none" stroke-width="0.0" font-size="5.0e-2" fill-opacity="1.0" text-anchor="end"><text x="-0.5625323471775566" y="0.5" transform="rotate(-45.0, -0.5625323471775566, 0.5)">row 2</text></g><g fill="#0d0d0d" stroke="none" stroke-width="0.0" font-size="5.0e-2" fill-opacity="1.0" text-anchor="end"><text x="-0.46300257008002194" y="0.5" transform="rotate(-45.0, -0.46300257008002194, 0.5)">row 3</text></g><g fill="#0d0d0d" stroke="none" stroke-width="0.0" font-size="5.0e-2" fill-opacity="1.0" text-anchor="end"><text x="-0.3634727929824872" y="0.5" transform="rotate(-45.0, -0.3634727929824872, 0.5)">row 4</text></g><g fill="#0d0d0d" stroke="none" stroke-width="0.0" font-size="5.0e-2" fill-opacity="1.0" text-anchor="end"><text x="-0.2639430158849524" y="0.5" transform="rotate(-45.0, -0.2639430158849524, 0.5)">row 5</text></g><g fill="#0d0d0d" stroke="none" stroke-width="0.0" font-size="5.0e-2" fill-opacity="1.0" text-anchor="end"><text x="-0.16441323878741765" y="0.5" transform="rotate(-45.0, -0.16441323878741765, 0.5)">row 6</text></g><g fill="#0d0d0d" stroke="none" stroke-width="0.0" font-size="5.0e-2" fill-opacity="1.0" text-anchor="end"><text x="-6.48834616898828e-2" y="0.5" transform="rotate(-45.0, -6.48834616898828e-2, 0.5)">row 7</text></g><g fill="#0d0d0d" stroke="none" stroke-width="0.0" font-size="5.0e-2" fill-opacity="1.0" text-anchor="end"><text x="3.464631540765173e-2" y="0.5" transform="rotate(-45.0, 3.464631540765173e-2, 0.5)">row 8</text></g><g fill="#0d0d0d" stroke="none" stroke-width="0.0" font-size="5.0e-2" fill-opacity="1.0" text-anchor="end"><text x="0.13417609250518647" y="0.5" transform="rotate(-45.0, 0.13417609250518647, 0.5)">row 9</text></g><g fill="#0d0d0d" stroke="none" stroke-width="0.0" font-size="5.0e-2" fill-opacity="1.0" text-anchor="end"><text x="0.23370586960272122" y="0.5" transform="rotate(-45.0, 0.23370586960272122, 0.5)">row 10</text></g><g stroke-opacity="0.4" fill="#0d0d0d" stroke="#0d0d0d" stroke-width="2.0e-3" fill-opacity="0.4"><polyline points="-0.6620621242750915,0.4408173618940248
-0.6620621242750915,0.4108173618940248"/><polyline points="-0.5625323471775566,0.4408173618940248
-0.5625323471775566,0.4108173618940248"/><polyline points="-0.46300257008002194,0.4408173618940248
-0.46300257008002194,0.4108173618940248"/><polyline points="-0.3634727929824872,0.4408173618940248
-0.3634727929824872,0.4108173618940248"/><polyline points="-0.2639430158849524,0.4408173618940248
-0.2639430158849524,0.4108173618940248"/><polyline points="-0.16441323878741765,0.4408173618940248
-0.16441323878741765,0.4108173618940248"/><polyline points="-6.48834616898828e-2,0.4408173618940248
-6.48834616898828e-2,0.4108173618940248"/><polyline points="3.464631540765173e-2,0.4408173618940248
3.464631540765173e-2,0.4108173618940248"/><polyline points="0.13417609250518647,0.4408173618940248
0.13417609250518647,0.4108173618940248"/><polyline points="0.23370586960272122,0.4408173618940248
0.23370586960272122,0.4108173618940248"/></g><g stroke-opacity="0.0" fill="#0d0d0d" stroke="#000000" stroke-width="0.0" fill-opacity="0.4"><rect width="0.9952977709753474" x="-0.7118270128238589" y="0.4109357384441939" height="3.6076662908681167e-3"/></g><g stroke-opacity="1.0" fill="#b05929" stroke="#b05929" stroke-width="2.0e-3" fill-opacity="1.0"><rect width="3.981191083901392e-2" x="-0.7018740351141054" y="0.12006764374295376" height="5.6369785794814e-2"/><rect width="3.981191083901381e-2" x="-0.6023442580165705" y="6.369785794813976e-2" height="0.112739571589628"/><rect width="3.981191083901392e-2" x="-0.502814480919036" y="7.328072153325815e-3" height="0.16910935738444194"/><rect width="3.9811910839013975e-2" x="-0.4032847038215012" y="-0.10541149943630213" height="0.2818489289740699"/><rect width="3.9811910839013975e-2" x="-0.3037549267239665" y="-0.2745208568207441" height="0.4509582863585119"/><rect width="3.981191083901392e-2" x="-0.20422514962643168" y="0.17643742953776775" height="0.0"/><rect width="3.981191083901425e-2" x="-0.10469537252889705" y="0.17643742953776775" height="0.112739571589628"/><rect width="3.98119108390137e-2" x="-5.165595431362191e-3" y="-0.4436302142051861" height="0.6200676437429539"/><rect width="3.981191083901414e-2" x="9.436418166617233e-2" y="6.369785794813976e-2" height="0.112739571589628"/><rect width="3.981191083901403e-2" x="0.19389395876370719" y="0.12006764374295376" height="5.6369785794814e-2"/><rect width="3.981191083901392e-2" x="-0.6620621242750915" y="0.12006764374295376" height="5.6369785794814e-2"/><rect width="3.981191083901392e-2" x="-0.5625323471775567" y="6.369785794813976e-2" height="0.112739571589628"/><rect width="3.981191083901392e-2" x="-0.4630025700800221" y="7.328072153325815e-3" height="0.16910935738444194"/><rect width="3.981191083901375e-2" x="-0.36347279298248725" y="-4.904171364148824e-2" height="0.225479143179256"/><rect width="3.981191083901381e-2" x="-0.2639430158849525" y="-0.10541149943630213" height="0.2818489289740699"/><rect width="3.981191083901381e-2" x="-0.16441323878741776" y="-0.16178128523111612" height="0.3382187147688839"/><rect width="3.981191083901359e-2" x="-6.48834616898828e-2" y="-0.21815107102593012" height="0.3945885005636979"/><rect width="3.981191083901403e-2" x="3.464631540765151e-2" y="-0.2745208568207441" height="0.4509582863585119"/><rect width="3.981191083901392e-2" x="0.13417609250518647" y="-0.330890642615558" height="0.5073280721533258"/><rect width="3.981191083901381e-2" x="0.23370586960272122" y="-0.387260428410372" height="0.5636978579481398"/></g><g></g><g fill="#b05929" stroke="none" stroke-width="0.0" font-size="4.0e-2" fill-opacity="1.0" text-anchor="middle"><text x="-0.6819680796945985" y="9.075535512965055e-2">1</text><text x="-0.5824383025970638" y="3.43855693348365e-2">1</text><text x="-0.482908525499529" y="-2.19842164599775e-2">1</text><text x="-0.3833787484019942" y="-0.1347237880496054">1</text><text x="-0.28384897130445946" y="-0.30383314543404727">1</text><text x="-0.18431919420692466" y="0.1471251409244645">1</text><text x="-8.478941710938992e-2" y="0.3624577226606539">1</text><text x="1.4740359988144824e-2" y="-0.47294250281848926">1</text><text x="0.11427013708567912" y="3.43855693348365e-2">1</text><text x="0.21379991418321442" y="9.075535512965055e-2">1</text></g><g fill="#a6cfe3" stroke="none" stroke-width="0.0" font-size="4.0e-2" fill-opacity="1.0" text-anchor="middle"><text x="-0.6421561688555846" y="9.075535512965055e-2">1</text><text x="-0.5426263917580497" y="3.43855693348365e-2">1</text><text x="-0.4430966146605151" y="-2.19842164599775e-2">1</text><text x="-0.34356683756298034" y="-7.835400225479139e-2">1</text><text x="-0.2440370604654456" y="-0.1347237880496054">1</text><text x="-0.14450728336791085" y="-0.19109357384441938">1</text><text x="-4.497750627037611e-2" y="-0.24746335963923338">1</text><text x="5.455227082715863e-2" y="-0.30383314543404727">1</text><text x="0.15408204792469338" y="-0.3602029312288614">1</text><text x="0.2536118250222281" y="-0.41657271702367527">1</text></g><g></g><g stroke-opacity="1.0" fill="#0d0d0d" stroke="#0d0d0d" stroke-width="4.0e-3" fill-opacity="0.0"><rect width="0.3187606994510377" x="0.424603982075793" y="-0.1388601712811144" height="0.24820744081172497"/></g><g fill="#0d0d0d" stroke="none" stroke-width="0.0" font-size="4.8e-2" fill-opacity="1.0" text-anchor="start"><text x="0.45114525596846855" y="5.0542308989460605e-2">column 2</text></g><g stroke-opacity="1.0" fill="#a6cfe3" stroke="#a6cfe3" stroke-width="8.0e-4" fill-opacity="1.0"><rect width="3.1849528671210825e-2" x="0.6847084662240173" y="2.0237912146168657e-2" height="4.3291995490417234e-2"/></g><g fill="#0d0d0d" stroke="none" stroke-width="0.0" font-size="4.8e-2" fill-opacity="1.0" text-anchor="start"><text x="0.45114525596846855" y="-6.273841254379753e-2">column 1</text></g><g stroke-opacity="1.0" fill="#b05929" stroke="#b05929" stroke-width="8.0e-4" fill-opacity="1.0"><rect width="3.1849528671210825e-2" x="0.6847084662240173" y="-9.304280938708964e-2" height="4.329199549041718e-2"/></g><g></g></svg>