<svg viewBox="-0.7982265000000002 -0.6964049999999999 1.5020265000000004 1.342575" xmlns="http://www.w3.org/2000/svg" xmlns:xlink="http://www.w3.org/1999/xlink" version="1.1" width="800.0" height="600.0"><g stroke-width="0.0" stroke="none" fill="#000000" transform="translate(-4.628750000000004e-2, -0.57175)" fill-opacity="1.0" font-size="0.12" text-anchor="middle"><text transform="rotate(0.0, 0.0, -0.0)" x="0.0" y="-0.0">default</text></g><g stroke-width="0.0" stroke="#000000" fill="#666666" fill-opacity="3.0e-2" stroke-opacity="0.0"><rect width="1.33" height="1.0" x="-0.665" y="-0.5" /></g><g stroke-width="5.0e-3" stroke="#A8E5EE" fill="none" stroke-opacity="0.3"><polyline points="-0.67,0.5 0.67,0.5" /></g><g stroke-width="5.0e-3" stroke="#A8E5EE" fill="none" stroke-opacity="0.3"><polyline points="-0.67,0.35714285714285715 0.67,0.35714285714285715" /></g><g stroke-width="5.0e-3" stroke="#A8E5EE" fill="none" stroke-opacity="0.3"><polyline points="-0.67,0.2142857142857143 0.67,0.2142857142857143" /></g><g stroke-width="5.0e-3" stroke="#A8E5EE" fill="none" stroke-opacity="0.3"><polyline points="-0.67,7.142857142857145e-2 0.67,7.142857142857145e-2" /></g><g stroke-width="5.0e-3" stroke="#A8E5EE" fill="none" stroke-opacity="0.3"><polyline points="-0.67,-7.14285714285714e-2 0.67,-7.14285714285714e-2" /></g><g stroke-width="5.0e-3" stroke="#A8E5EE" fill="none" stroke-opacity="0.3"><polyline points="-0.67,-0.2142857142857143 0.67,-0.2142857142857143" /></g><g stroke-width="5.0e-3" stroke="#A8E5EE" fill="none" stroke-opacity="0.3"><polyline points="-0.67,-0.3571428571428571 0.67,-0.3571428571428571" /></g><g stroke-width="5.0e-3" stroke="#A8E5EE" fill="none" stroke-opacity="0.3"><polyline points="-0.67,-0.5 0.67,-0.5" /></g><g stroke-width="0.0" stroke="none" fill="#666666" fill-opacity="1.0" font-size="5.0e-2" text-anchor="end"><text x="-0.7325750000000001" y="0.5145">-2</text></g><g stroke-width="0.0" stroke="none" fill="#666666" fill-opacity="1.0" font-size="5.0e-2" text-anchor="end"><text x="-0.7325750000000001" y="0.37164285714285716">0</text></g><g stroke-width="0.0" stroke="none" fill="#666666" fill-opacity="1.0" font-size="5.0e-2" text-anchor="end"><text x="-0.7325750000000001" y="0.22878571428571431">2</text></g><g stroke-width="0.0" stroke="none" fill="#666666" fill-opacity="1.0" font-size="5.0e-2" text-anchor="end"><text x="-0.7325750000000001" y="8.592857142857145e-2">4</text></g><g stroke-width="0.0" stroke="none" fill="#666666" fill-opacity="1.0" font-size="5.0e-2" text-anchor="end"><text x="-0.7325750000000001" y="-5.69285714285714e-2">6</text></g><g stroke-width="0.0" stroke="none" fill="#666666" fill-opacity="1.0" font-size="5.0e-2" text-anchor="end"><text x="-0.7325750000000001" y="-0.1997857142857143">8</text></g><g stroke-width="0.0" stroke="none" fill="#666666" fill-opacity="1.0" font-size="5.0e-2" text-anchor="end"><text x="-0.7325750000000001" y="-0.3426428571428571">10</text></g><g stroke-width="0.0" stroke="none" fill="#666666" fill-opacity="1.0" font-size="5.0e-2" text-anchor="end"><text x="-0.7325750000000001" y="-0.4855">12</text></g><g stroke-width="0.0" stroke="#2C429D" fill="#5F0391" fill-opacity="1.0" stroke-opacity="0.4"><line stroke-width="5.0e-3" transform="rotate(-90.0, -0.7025, 0.5)" x1="-0.7025" y1="0.515" x2="-0.7025" y2="0.485" /><line stroke-width="5.0e-3" transform="rotate(-90.0, -0.7025, 0.35714285714285715)" x1="-0.7025" y1="0.37214285714285716" x2="-0.7025" y2="0.34214285714285714" /><line stroke-width="5.0e-3" transform="rotate(-90.0, -0.7025, 0.2142857142857143)" x1="-0.7025" y1="0.22928571428571431" x2="-0.7025" y2="0.1992857142857143" /><line stroke-width="5.0e-3" transform="rotate(-90.0, -0.7025, 7.142857142857145e-2)" x1="-0.7025" y1="8.642857142857145e-2" x2="-0.7025" y2="5.642857142857145e-2" /><line stroke-width="5.0e-3" transform="rotate(-90.0, -0.7025, -7.14285714285714e-2)" x1="-0.7025" y1="-5.64285714285714e-2" x2="-0.7025" y2="-8.64285714285714e-2" /><line stroke-width="5.0e-3" transform="rotate(-90.0, -0.7025, -0.2142857142857143)" x1="-0.7025" y1="-0.1992857142857143" x2="-0.7025" y2="-0.22928571428571431" /><line stroke-width="5.0e-3" transform="rotate(-90.0, -0.7025, -0.3571428571428571)" x1="-0.7025" y1="-0.3421428571428571" x2="-0.7025" y2="-0.3721428571428571" /><line stroke-width="5.0e-3" transform="rotate(-90.0, -0.7025, -0.5)" x1="-0.7025" y1="-0.485" x2="-0.7025" y2="-0.515" /></g><g stroke-width="0.0" stroke="#666666" fill="#5F0391" fill-opacity="0.5" stroke-opacity="0.0"><rect width="5.0000000000000044e-3" height="1.0" x="-0.6925" y="-0.5" /></g><g stroke-width="5.0e-3" stroke="#A8E5EE" fill="none" stroke-opacity="0.3"><polyline points="-0.665,0.505 -0.665,-0.505" /></g><g stroke-width="5.0e-3" stroke="#A8E5EE" fill="none" stroke-opacity="0.3"><polyline points="-0.532,0.505 -0.532,-0.505" /></g><g stroke-width="5.0e-3" stroke="#A8E5EE" fill="none" stroke-opacity="0.3"><polyline points="-0.399,0.505 -0.399,-0.505" /></g><g stroke-width="5.0e-3" stroke="#A8E5EE" fill="none" stroke-opacity="0.3"><polyline points="-0.266,0.505 -0.266,-0.505" /></g><g stroke-width="5.0e-3" stroke="#A8E5EE" fill="none" stroke-opacity="0.3"><polyline points="-0.133,0.505 -0.133,-0.505" /></g><g stroke-width="5.0e-3" stroke="#A8E5EE" fill="none" stroke-opacity="0.3"><polyline points="0.0,0.505 0.0,-0.505" /></g><g stroke-width="5.0e-3" stroke="#A8E5EE" fill="none" stroke-opacity="0.3"><polyline points="0.133,0.505 0.133,-0.505" /></g><g stroke-width="5.0e-3" stroke="#A8E5EE" fill="none" stroke-opacity="0.3"><polyline points="0.2659999999999999,0.505 0.2659999999999999,-0.505" /></g><g stroke-width="5.0e-3" stroke="#A8E5EE" fill="none" stroke-opacity="0.3"><polyline points="0.399,0.505 0.399,-0.505" /></g><g stroke-width="5.0e-3" stroke="#A8E5EE" fill="none" stroke-opacity="0.3"><polyline points="0.532,0.505 0.532,-0.505" /></g><g stroke-width="5.0e-3" stroke="#A8E5EE" fill="none" stroke-opacity="0.3"><polyline points="0.665,0.505 0.665,-0.505" /></g><g stroke-width="0.0" stroke="none" fill="#666666" fill-opacity="1.0" font-size="5.0e-2" text-anchor="middle"><text x="-0.665" y="0.6072500000000001">0</text></g><g stroke-width="0.0" stroke="none" fill="#666666" fill-opacity="1.0" font-size="5.0e-2" text-anchor="middle"><text x="-0.532" y="0.6072500000000001">1</text></g><g stroke-width="0.0" stroke="none" fill="#666666" fill-opacity="1.0" font-size="5.0e-2" text-anchor="middle"><text x="-0.399" y="0.6072500000000001">2</text></g><g stroke-width="0.0" stroke="none" fill="#666666" fill-opacity="1.0" font-size="5.0e-2" text-anchor="middle"><text x="-0.266" y="0.6072500000000001">3</text></g><g stroke-width="0.0" stroke="none" fill="#666666" fill-opacity="1.0" font-size="5.0e-2" text-anchor="middle"><text x="-0.133" y="0.6072500000000001">4</text></g><g stroke-width="0.0" stroke="none" fill="#666666" fill-opacity="1.0" font-size="5.0e-2" text-anchor="middle"><text x="0.0" y="0.6072500000000001">5</text></g><g stroke-width="0.0" stroke="none" fill="#666666" fill-opacity="1.0" font-size="5.0e-2" text-anchor="middle"><text x="0.133" y="0.6072500000000001">6</text></g><g stroke-width="0.0" stroke="none" fill="#666666" fill-opacity="1.0" font-size="5.0e-2" text-anchor="middle"><text x="0.2659999999999999" y="0.6072500000000001">7</text></g><g stroke-width="0.0" stroke="none" fill="#666666" fill-opacity="1.0" font-size="5.0e-2" text-anchor="middle"><text x="0.399" y="0.6072500000000001">8</text></g><g stroke-width="0.0" stroke="none" fill="#666666" fill-opacity="1.0" font-size="5.0e-2" text-anchor="middle"><text x="0.532" y="0.6072500000000001">9</text></g><g stroke-width="0.0" stroke="none" fill="#666666" fill-opacity="1.0" font-size="5.0e-2" text-anchor="middle"><text x="0.665" y="0.6072500000000001">10</text></g><g stroke-width="0.0" stroke="#2C429D" fill="#5F0391" fill-opacity="1.0" stroke-opacity="0.4"><line stroke-width="5.0e-3" x1="-0.665" y1="0.541" x2="-0.665" y2="0.511" /><line stroke-width="5.0e-3" x1="-0.532" y1="0.541" x2="-0.532" y2="0.511" /><line stroke-width="5.0e-3" x1="-0.399" y1="0.541" x2="-0.399" y2="0.511" /><line stroke-width="5.0e-3" x1="-0.266" y1="0.541" x2="-0.266" y2="0.511" /><line stroke-width="5.0e-3" x1="-0.133" y1="0.541" x2="-0.133" y2="0.511" /><line stroke-width="5.0e-3" y1="0.541" y2="0.511" /><line stroke-width="5.0e-3" x1="0.133" y1="0.541" x2="0.133" y2="0.511" /><line stroke-width="5.0e-3" x1="0.2659999999999999" y1="0.541" x2="0.2659999999999999" y2="0.511" /><line stroke-width="5.0e-3" x1="0.399" y1="0.541" x2="0.399" y2="0.511" /><line stroke-width="5.0e-3" x1="0.532" y1="0.541" x2="0.532" y2="0.511" /><line stroke-width="5.0e-3" x1="0.665" y1="0.541" x2="0.665" y2="0.511" /></g><g stroke-width="0.0" stroke="#666666" fill="#5F0391" fill-opacity="0.5" stroke-opacity="0.0"><rect width="1.33" height="5.0000000000000044e-3" x="-0.665" y="0.511" /></g><g stroke-width="2.0e-3" stroke="#666666" fill="#032F74" fill-opacity="0.5" stroke-opacity="1.0"><rect width="5.3200000000000025e-2" height="7.142857142857145e-2" x="-0.6517000000000001" y="0.2857142857142857" /><rect width="5.3200000000000025e-2" height="0.14285714285714285" x="-0.5187" y="0.2142857142857143" /><rect width="5.319999999999997e-2" height="0.21428571428571425" x="-0.3857" y="0.1428571428571429" /><rect width="5.319999999999997e-2" height="0.35714285714285715" x="-0.2526999999999999" /><rect width="5.3200000000000025e-2" height="0.5714285714285714" x="-0.11970000000000003" y="-0.2142857142857142" /><rect width="5.3200000000000136e-2" x="1.3299999999999979e-2" y="0.35714285714285715" /><rect width="5.3200000000000025e-2" height="0.14285714285714285" x="0.14629999999999999" y="0.35714285714285715" /><rect width="5.3200000000000025e-2" height="0.7857142857142856" x="0.2793" y="-0.4285714285714285" /><rect width="5.3200000000000136e-2" height="0.14285714285714285" x="0.4123000000000001" y="0.2142857142857143" /><rect width="5.3199999999999914e-2" height="7.142857142857145e-2" x="0.5453000000000001" y="0.2857142857142857" /></g><g stroke-width="2.0e-3" stroke="#666666" fill="#003601" fill-opacity="0.5" stroke-opacity="1.0"><rect width="5.3200000000000025e-2" x="-0.5985" y="0.35714285714285715" /><rect width="5.3200000000000025e-2" height="7.142857142857145e-2" x="-0.4655" y="0.2857142857142857" /><rect width="5.319999999999997e-2" height="0.14285714285714285" x="-0.3325" y="0.2142857142857143" /><rect width="5.319999999999997e-2" height="0.21428571428571425" x="-0.19949999999999996" y="0.1428571428571429" /><rect width="5.3200000000000025e-2" height="0.2857142857142857" x="-6.65e-2" y="7.142857142857145e-2" /><rect width="5.3200000000000025e-2" height="0.35714285714285715" x="6.650000000000011e-2" /></g><g /></svg>