<svg xmlns="http://www.w3.org/2000/svg" height="300.0" viewBox="-0.8200000000000001 -0.5532016310461193 1.59 1.1978292012302485" width="398.2203802596314" xmlns:xlink="http://www.w3.org/1999/xlink"><g stroke-opacity="0.0" fill-opacity="2.5e-2" stroke="#000000" stroke-width="0.0" fill="#808080"><rect height="0.8998875140607425" width="0.9651785044022864" x="-0.7113446008986885" y="-0.5"/></g><g stroke-opacity="5.0e-2" stroke="#808080" stroke-width="5.0e-3" fill="none"><polyline points="-0.7113446008986885,0.39988751406074247
0.2538339035035979,0.39988751406074247"/></g><g stroke-opacity="5.0e-2" stroke="#808080" stroke-width="5.0e-3" fill="none"><polyline points="-0.7113446008986885,0.28740157480314965
0.2538339035035979,0.28740157480314965"/></g><g stroke-opacity="5.0e-2" stroke="#808080" stroke-width="5.0e-3" fill="none"><polyline points="-0.7113446008986885,0.17491563554555684
0.2538339035035979,0.17491563554555684"/></g><g stroke-opacity="5.0e-2" stroke="#808080" stroke-width="5.0e-3" fill="none"><polyline points="-0.7113446008986885,6.2429696287963965e-2
0.2538339035035979,6.2429696287963965e-2"/></g><g stroke-opacity="5.0e-2" stroke="#808080" stroke-width="5.0e-3" fill="none"><polyline points="-0.7113446008986885,-5.005624296962885e-2
0.2538339035035979,-5.005624296962885e-2"/></g><g stroke-opacity="5.0e-2" stroke="#808080" stroke-width="5.0e-3" fill="none"><polyline points="-0.7113446008986885,-0.1625421822272216
0.2538339035035979,-0.1625421822272216"/></g><g stroke-opacity="5.0e-2" stroke="#808080" stroke-width="5.0e-3" fill="none"><polyline points="-0.7113446008986885,-0.27502812148481437
0.2538339035035979,-0.27502812148481437"/></g><g stroke-opacity="5.0e-2" stroke="#808080" stroke-width="5.0e-3" fill="none"><polyline points="-0.7113446008986885,-0.38751406074240724
0.2538339035035979,-0.38751406074240724"/></g><g stroke-opacity="5.0e-2" stroke="#808080" stroke-width="5.0e-3" fill="none"><polyline points="-0.7113446008986885,-0.5
0.2538339035035979,-0.5"/></g><g fill-opacity="1.0" font-size="5.0e-2" stroke="none" stroke-width="0.0" fill="#808080" text-anchor="end"><text x="-0.75" y="0.41293588301462314">-4</text></g><g fill-opacity="1.0" font-size="5.0e-2" stroke="none" stroke-width="0.0" fill="#808080" text-anchor="end"><text x="-0.75" y="0.3004499437570304">-2</text></g><g fill-opacity="1.0" font-size="5.0e-2" stroke="none" stroke-width="0.0" fill="#808080" text-anchor="end"><text x="-0.75" y="0.18796400449943768">0</text></g><g fill-opacity="1.0" font-size="5.0e-2" stroke="none" stroke-width="0.0" fill="#808080" text-anchor="end"><text x="-0.75" y="7.54780652418448e-2">2</text></g><g fill-opacity="1.0" font-size="5.0e-2" stroke="none" stroke-width="0.0" fill="#808080" text-anchor="end"><text x="-0.75" y="-3.700787401574801e-2">4</text></g><g fill-opacity="1.0" font-size="5.0e-2" stroke="none" stroke-width="0.0" fill="#808080" text-anchor="end"><text x="-0.75" y="-0.14949381327334088">6</text></g><g fill-opacity="1.0" font-size="5.0e-2" stroke="none" stroke-width="0.0" fill="#808080" text-anchor="end"><text x="-0.75" y="-0.26197975253093353">8</text></g><g fill-opacity="1.0" font-size="5.0e-2" stroke="none" stroke-width="0.0" fill="#808080" text-anchor="end"><text x="-0.75" y="-0.3744656917885263">10</text></g><g fill-opacity="1.0" font-size="5.0e-2" stroke="none" stroke-width="0.0" fill="#808080" text-anchor="end"><text x="-0.75" y="-0.48695163104611927">12</text></g><g stroke-opacity="1.0" fill-opacity="1.0" stroke="#808080" stroke-width="5.0e-3" fill="#808080"><g transform="rotate(-90.0, -0.7290395401460636, 0.39988751406074247)"><polyline points="-0.7290395401460636,0.4148875140607425
-0.7290395401460636,0.38488751406074245"/></g><g transform="rotate(-90.0, -0.7290395401460636, 0.28740157480314965)"><polyline points="-0.7290395401460636,0.30240157480314966
-0.7290395401460636,0.27240157480314964"/></g><g transform="rotate(-90.0, -0.7290395401460636, 0.17491563554555684)"><polyline points="-0.7290395401460636,0.18991563554555685
-0.7290395401460636,0.15991563554555682"/></g><g transform="rotate(-90.0, -0.7290395401460636, 6.2429696287963965e-2)"><polyline points="-0.7290395401460636,7.742969628796396e-2
-0.7290395401460636,4.7429696287963966e-2"/></g><g transform="rotate(-90.0, -0.7290395401460636, -5.005624296962885e-2)"><polyline points="-0.7290395401460636,-3.505624296962885e-2
-0.7290395401460636,-6.505624296962885e-2"/></g><g transform="rotate(-90.0, -0.7290395401460636, -0.1625421822272216)"><polyline points="-0.7290395401460636,-0.1475421822272216
-0.7290395401460636,-0.17754218222722162"/></g><g transform="rotate(-90.0, -0.7290395401460636, -0.27502812148481437)"><polyline points="-0.7290395401460636,-0.26002812148481436
-0.7290395401460636,-0.2900281214848144"/></g><g transform="rotate(-90.0, -0.7290395401460636, -0.38751406074240724)"><polyline points="-0.7290395401460636,-0.3725140607424072
-0.7290395401460636,-0.40251406074240725"/></g><g transform="rotate(-90.0, -0.7290395401460636, -0.5)"><polyline points="-0.7290395401460636,-0.485
-0.7290395401460636,-0.515"/></g></g><g stroke-opacity="1.0" fill-opacity="1.0" stroke="#808080" stroke-width="0.0" fill="#808080"><rect height="0.8998875140607425" width="3.217261681340955e-3" x="-0.7209963859427113" y="-0.5"/></g><g fill-opacity="1.0" font-size="5.0e-2" stroke="none" stroke-width="0.0" fill="#808080" text-anchor="end"><text transform="rotate(-45.0, -0.6630856756785741, 0.5)" x="-0.6630856756785741" y="0.5">row 1</text></g><g fill-opacity="1.0" font-size="5.0e-2" stroke="none" stroke-width="0.0" fill="#808080" text-anchor="end"><text transform="rotate(-45.0, -0.5665678252383454, 0.5)" x="-0.5665678252383454" y="0.5">row 2</text></g><g fill-opacity="1.0" font-size="5.0e-2" stroke="none" stroke-width="0.0" fill="#808080" text-anchor="end"><text transform="rotate(-45.0, -0.47004997479811683, 0.5)" x="-0.47004997479811683" y="0.5">row 3</text></g><g fill-opacity="1.0" font-size="5.0e-2" stroke="none" stroke-width="0.0" fill="#808080" text-anchor="end"><text transform="rotate(-45.0, -0.3735321243578882, 0.5)" x="-0.3735321243578882" y="0.5">row 4</text></g><g fill-opacity="1.0" font-size="5.0e-2" stroke="none" stroke-width="0.0" fill="#808080" text-anchor="end"><text transform="rotate(-45.0, -0.27701427391765954, 0.5)" x="-0.27701427391765954" y="0.5">row 5</text></g><g fill-opacity="1.0" font-size="5.0e-2" stroke="none" stroke-width="0.0" fill="#808080" text-anchor="end"><text transform="rotate(-45.0, -0.1804964234774309, 0.5)" x="-0.1804964234774309" y="0.5">row 6</text></g><g fill-opacity="1.0" font-size="5.0e-2" stroke="none" stroke-width="0.0" fill="#808080" text-anchor="end"><text transform="rotate(-45.0, -8.397857303720235e-2, 0.5)" x="-8.397857303720235e-2" y="0.5">row 7</text></g><g fill-opacity="1.0" font-size="5.0e-2" stroke="none" stroke-width="0.0" fill="#808080" text-anchor="end"><text transform="rotate(-45.0, 1.2539277403026294e-2, 0.5)" x="1.2539277403026294e-2" y="0.5">row 8</text></g><g fill-opacity="1.0" font-size="5.0e-2" stroke="none" stroke-width="0.0" fill="#808080" text-anchor="end"><text transform="rotate(-45.0, 0.10905712784325483, 0.5)" x="0.10905712784325483" y="0.5">row 9</text></g><g fill-opacity="1.0" font-size="5.0e-2" stroke="none" stroke-width="0.0" fill="#808080" text-anchor="end"><text transform="rotate(-45.0, 0.20557497828348348, 0.5)" x="0.20557497828348348" y="0.5">row 10</text></g><g stroke-opacity="1.0" fill-opacity="1.0" stroke="#808080" stroke-width="5.0e-3" fill="#808080"><polyline points="-0.6630856756785741,0.4396344206974129
-0.6630856756785741,0.40963442069741285"/><polyline points="-0.5665678252383454,0.4396344206974129
-0.5665678252383454,0.40963442069741285"/><polyline points="-0.47004997479811683,0.4396344206974129
-0.47004997479811683,0.40963442069741285"/><polyline points="-0.3735321243578882,0.4396344206974129
-0.3735321243578882,0.40963442069741285"/><polyline points="-0.27701427391765954,0.4396344206974129
-0.27701427391765954,0.40963442069741285"/><polyline points="-0.1804964234774309,0.4396344206974129
-0.1804964234774309,0.40963442069741285"/><polyline points="-8.397857303720235e-2,0.4396344206974129
-8.397857303720235e-2,0.40963442069741285"/><polyline points="1.2539277403026294e-2,0.4396344206974129
1.2539277403026294e-2,0.40963442069741285"/><polyline points="0.10905712784325483,0.4396344206974129
0.10905712784325483,0.40963442069741285"/><polyline points="0.20557497828348348,0.4396344206974129
0.20557497828348348,0.40963442069741285"/></g><g stroke-opacity="1.0" fill-opacity="1.0" stroke="#808080" stroke-width="0.0" fill="#808080"><rect height="4.499437570303744e-3" width="0.9651785044022864" x="-0.7113446008986885" y="0.4088863892013499"/></g><g stroke-opacity="1.0" fill-opacity="1.0" stroke="#a6cee3" stroke-width="2.0e-3" fill="#a6cee3"><rect height="5.624296962879638e-2" width="3.860714017609146e-2" x="-0.7016928158546656" y="0.11867266591676046"/><rect height="0.11248593925759287" width="3.860714017609146e-2" x="-0.6051749654144369" y="6.2429696287963965e-2"/><rect height="0.1687289088863892" width="3.860714017609146e-2" x="-0.5086571149742084" y="6.186726659167641e-3"/><rect height="0.28121484814398207" width="3.860714017609135e-2" x="-0.41213926453397975" y="-0.10629921259842523"/><rect height="0.4499437570303712" width="3.860714017609146e-2" x="-0.3156214140937512" y="-0.27502812148481437"/><rect height="0.0" width="3.860714017609135e-2" x="-0.21910356365352246" y="0.17491563554555684"/><rect height="0.11248593925759282" width="3.860714017609157e-2" x="-0.12258571321329392" y="0.17491563554555684"/><rect height="0.6186726659167605" width="3.8607140176091126e-2" x="-2.6067862773065165e-2" y="-0.44375703037120373"/><rect height="0.11248593925759287" width="3.860714017609146e-2" x="7.044998766716337e-2" y="6.2429696287963965e-2"/><rect height="5.624296962879638e-2" width="3.860714017609146e-2" x="0.16696783810739202" y="0.11867266591676046"/></g><g stroke-opacity="1.0" fill-opacity="1.0" stroke="#1f78b4" stroke-width="2.0e-3" fill="#1f78b4"><rect height="5.624296962879638e-2" width="3.860714017609146e-2" x="-0.6630856756785741" y="0.11867266591676046"/><rect height="0.11248593925759287" width="3.860714017609146e-2" x="-0.5665678252383455" y="6.2429696287963965e-2"/><rect height="0.1687289088863892" width="3.860714017609135e-2" x="-0.47004997479811694" y="6.186726659167641e-3"/><rect height="0.22497187851518569" width="3.860714017609146e-2" x="-0.3735321243578884" y="-5.005624296962885e-2"/><rect height="0.28121484814398207" width="3.860714017609157e-2" x="-0.27701427391765976" y="-0.10629921259842523"/><rect height="0.33745781777277845" width="3.860714017609146e-2" x="-0.1804964234774311" y="-0.1625421822272216"/><rect height="0.3937007874015748" width="3.860714017609124e-2" x="-8.397857303720235e-2" y="-0.218785151856018"/><rect height="0.4499437570303712" width="3.860714017609146e-2" x="1.2539277403025961e-2" y="-0.27502812148481437"/><rect height="0.5061867266591675" width="3.860714017609157e-2" x="0.10905712784325483" y="-0.33127109111361075"/><rect height="0.562429696287964" width="3.860714017609146e-2" x="0.20557497828348348" y="-0.38751406074240724"/></g><g></g><g fill-opacity="1.0" font-size="4.0e-2" stroke="none" stroke-width="0.0" fill="#a6cee3" text-anchor="middle"><text x="-0.6823892457666199" y="8.942632170978632e-2">1</text><text x="-0.5858713953263912" y="3.3183352080989936e-2">2</text><text x="-0.4893535448861627" y="-2.30596175478065e-2">3</text><text x="-0.392835694445934" y="-0.13554555680539926">5</text><text x="-0.2963178440057055" y="-0.3042744656917884">8</text><text x="-0.19979999356547673" y="0.14566929133858275">0</text><text x="-0.1032821431252482" y="0.3605174353205849">-2</text><text x="-6.764292685019546e-3" y="-0.47300337457817765">11</text><text x="8.975355775520888e-2" y="3.3183352080989936e-2">2</text><text x="0.18627140819543786" y="8.942632170978632e-2">1</text></g><g fill-opacity="1.0" font-size="4.0e-2" stroke="none" stroke-width="0.0" fill="#1f78b4" text-anchor="middle"><text x="-0.6437821055905284" y="8.942632170978632e-2">1</text><text x="-0.5472642551502997" y="3.3183352080989936e-2">2</text><text x="-0.4507464047100712" y="-2.30596175478065e-2">3</text><text x="-0.35422855426984257" y="-7.930258717660288e-2">4</text><text x="-0.2577107038296139" y="-0.13554555680539926">5</text><text x="-0.16119285338938538" y="-0.19178852643419564">6</text><text x="-6.467500294915662e-2" y="-0.24803149606299213">7</text><text x="3.184284749107191e-2" y="-0.3042744656917884">8</text><text x="0.12836069793130056" y="-0.3605174353205849">9</text><text x="0.22487854837152932" y="-0.41676040494938116">10</text></g><g></g><g stroke-opacity="0.0" fill-opacity="0.0" stroke="#000000" stroke-width="8.0e-3" fill="#000000"><rect height="0.2476490438695163" width="0.3091145023432391" x="0.41257359486096057" y="-0.16986386043458757"/></g><g fill-opacity="1.0" font-size="4.8e-2" stroke="none" stroke-width="0.0" fill="#333333" text-anchor="start"><text x="0.43831168831168843" y="1.911251751816828e-2">column 2</text></g><g stroke-opacity="1.0" fill-opacity="1.0" stroke="#1f78b4" stroke-width="8.0e-4" fill="#1f78b4"><rect height="4.3194600674915595e-2" width="3.0885712140873434e-2" x="0.6648069106780914" y="-1.7648728080408294e-3"/></g><g fill-opacity="1.0" font-size="4.8e-2" stroke="none" stroke-width="0.0" fill="#333333" text-anchor="start"><text x="0.43831168831168843" y="-9.391335424786107e-2">column 1</text></g><g stroke-opacity="1.0" fill-opacity="1.0" stroke="#a6cee3" stroke-width="8.0e-4" fill="#a6cee3"><rect height="4.319460067491565e-2" width="3.0885712140873434e-2" x="0.6648069106780914" y="-0.11479074457407024"/></g><g></g></svg>