<svg width="449.5105327396125" xmlns:xlink="http://www.w3.org/1999/xlink" xmlns="http://www.w3.org/2000/svg" viewBox="-0.7699999999999999 -0.5166548257822756 1.54 1.0277845931312632" height="300.0"><style>svg {
  color-scheme: light dark;
}
{
  .canvas g, .title g, .axisbar g, .ticktext g, .tickglyph g, .ticklines g, .legendContent g text {
    fill: #0d0d0d;
  }
  .ticklines g, .tickglyph g, .legendBorder g {
    stroke: #0d0d0d;
  }
}
@media (prefers-color-scheme:dark) {
  .canvas g, .title g, .axisbar g, .ticktext g, .tickglyph g, .ticklines g, .legendContent g text {
    fill: #f0f0f0;
  }
  .ticklines g, .tickglyph g, .legendBorder g {
    stroke: #f0f0f0;
  }
}</style><g class="chart"><g class="barchart"><g stroke-opacity="1.0" fill="#b05929" stroke="#b05929" stroke-width="2.0e-3" fill-opacity="1.0"><rect width="4.3929225137278705e-2" x="-0.6577486272117143" y="8.226519314306463e-2" height="5.098644423319304e-2"/><rect width="4.3929225137278705e-2" x="-0.5479255643685172" y="3.127874890987159e-2" height="0.10197288846638608"/><rect width="4.3929225137278816e-2" x="-0.4381025015253204" y="-1.9707695323321506e-2" height="0.15295933269957918"/><rect width="4.3929225137278816e-2" x="-0.3282794386821233" y="-0.12168058378970759" height="0.25493222116596526"/><rect width="4.3929225137278705e-2" x="-0.2184563758389262" y="-0.27463991648928665" height="0.4078915538655443"/><rect width="4.3929225137278705e-2" x="-0.10863331299572909" y="0.13325163737625767" height="0.0"/><rect width="4.392922513727893e-2" x="1.1897498474677803e-3" y="0.13325163737625767" height="0.10197288846638608"/><rect width="4.392922513727893e-2" x="0.11101281269066487" y="-0.4275992491888657" height="0.5608508865651234"/><rect width="4.3929225137278705e-2" x="0.2208358755338622" y="3.127874890987159e-2" height="0.10197288846638608"/><rect width="4.3929225137278705e-2" x="0.3306589383770593" y="8.226519314306463e-2" height="5.098644423319304e-2"/></g><g stroke-opacity="1.0" fill="#a6cfe3" stroke="#a6cfe3" stroke-width="2.0e-3" fill-opacity="1.0"><rect width="4.392922513727893e-2" x="-0.6138194020744356" y="8.226519314306463e-2" height="5.098644423319304e-2"/><rect width="4.3929225137278816e-2" x="-0.5039963392312385" y="3.127874890987159e-2" height="0.10197288846638608"/><rect width="4.392922513727887e-2" x="-0.39417327638804156" y="-1.9707695323321506e-2" height="0.15295933269957918"/><rect width="4.3929225137278816e-2" x="-0.28435021354484447" y="-7.069413955651449e-2" height="0.20394577693277216"/><rect width="4.392922513727893e-2" x="-0.17452715070164748" y="-0.12168058378970759" height="0.25493222116596526"/><rect width="4.3929225137278816e-2" x="-6.470408785845039e-2" y="-0.17266702802290057" height="0.30591866539915824"/><rect width="4.3929225137278816e-2" x="4.511897498474671e-2" y="-0.22365347225609367" height="0.35690510963235134"/><rect width="4.3929225137278816e-2" x="0.1549420378279438" y="-0.27463991648928665" height="0.4078915538655443"/><rect width="4.392922513727893e-2" x="0.2647651006711409" y="-0.32562636072247964" height="0.4588779980987373"/><rect width="4.3929225137278705e-2" x="0.374588163514338" y="-0.37661280495567273" height="0.5098644423319304"/></g><g fill="#b05929" stroke="none" stroke-width="0.0" font-size="4.392922513727881e-3" fill-opacity="1.0" text-anchor="middle"><text x="-0.635784014643075" y="5.575224214180424e-2">1</text><text x="-0.5259609517998779" y="4.765797908611202e-3">2</text><text x="-0.41613788895668097" y="-4.622064632458178e-2">3</text><text x="-0.3063148261134838" y="-0.14819353479096797">5</text><text x="-0.19649176327028683" y="-0.30115286749054704">8</text><text x="-8.666870042708974e-2" y="0.10673868637499734">0</text><text x="2.3154362416107466e-2" y="0.3015069033457947">-2</text><text x="0.13297742525930434" y="-0.4541122001901263">11</text><text x="0.24280048810250143" y="4.765797908611202e-3">2</text><text x="0.3526235509456983" y="5.575224214180424e-2">1</text></g><g fill="#a6cfe3" stroke="none" stroke-width="0.0" font-size="4.392922513727881e-3" fill-opacity="1.0" text-anchor="middle"><text x="-0.5918547895057962" y="5.575224214180424e-2">1</text><text x="-0.4820317266625991" y="4.765797908611202e-3">2</text><text x="-0.37220866381940204" y="-4.622064632458178e-2">3</text><text x="-0.262385600976205" y="-9.720709055777488e-2">4</text><text x="-0.15256253813300802" y="-0.14819353479096797">5</text><text x="-4.2739475289811035e-2" y="-0.19917997902416096">6</text><text x="6.708358755338595e-2" y="-0.25016642325735405">7</text><text x="0.17690665039658326" y="-0.30115286749054704">8</text><text x="0.28672971323978036" y="-0.35213931172374024">9</text><text x="0.39655277608297723" y="-0.40312575595693323">10</text></g></g></g><g class="hud"><g class="axis"><g class="ticks"><g class="tickglyph"><g stroke-opacity="0.4" fill="#0d0d0d" stroke="#0d0d0d" stroke-width="4.0e-3" fill-opacity="0.4"><g transform="rotate(-90.0, -0.6906955460646735, 0.33719741430902983)"><polyline points="-0.6906955460646735,0.35219741430902984
-0.6906955460646735,0.3221974143090298"/></g><g transform="rotate(-90.0, -0.6906955460646735, 0.23522452584264375)"><polyline points="-0.6906955460646735,0.25022452584264376
-0.6906955460646735,0.22022452584264374"/></g><g transform="rotate(-90.0, -0.6906955460646735, 0.13325163737625767)"><polyline points="-0.6906955460646735,0.14825163737625768
-0.6906955460646735,0.11825163737625767"/></g><g transform="rotate(-90.0, -0.6906955460646735, 3.127874890987159e-2)"><polyline points="-0.6906955460646735,4.627874890987159e-2
-0.6906955460646735,1.627874890987159e-2"/></g><g transform="rotate(-90.0, -0.6906955460646735, -7.069413955651449e-2)"><polyline points="-0.6906955460646735,-5.569413955651449e-2
-0.6906955460646735,-8.569413955651449e-2"/></g><g transform="rotate(-90.0, -0.6906955460646735, -0.17266702802290057)"><polyline points="-0.6906955460646735,-0.15766702802290056
-0.6906955460646735,-0.18766702802290058"/></g><g transform="rotate(-90.0, -0.6906955460646735, -0.27463991648928665)"><polyline points="-0.6906955460646735,-0.25963991648928664
-0.6906955460646735,-0.28963991648928666"/></g><g transform="rotate(-90.0, -0.6906955460646735, -0.37661280495567273)"><polyline points="-0.6906955460646735,-0.3616128049556727
-0.6906955460646735,-0.39161280495567274"/></g><g transform="rotate(-90.0, -0.6906955460646735, -0.4785856934220588)"><polyline points="-0.6906955460646735,-0.4635856934220588
-0.6906955460646735,-0.4935856934220588"/></g></g></g><g class="ticktext"><g fill="#0d0d0d" stroke="none" stroke-width="0.0" font-size="3.6607687614399025e-2" fill-opacity="1.0" text-anchor="end"><text x="-0.7170530811470408" y="0.3484144320403324">-4</text><text x="-0.7170530811470408" y="0.2464415435739462">-2</text><text x="-0.7170530811470408" y="0.14446865510756013">0</text><text x="-0.7170530811470408" y="4.2495766641174104e-2">2</text><text x="-0.7170530811470408" y="-5.947712182521203e-2">4</text><text x="-0.7170530811470408" y="-0.1614500102915981">6</text><text x="-0.7170530811470408" y="-0.2634228987579842">8</text><text x="-0.7170530811470408" y="-0.36539578722437027">10</text><text x="-0.7170530811470408" y="-0.46736867569075635">12</text></g></g><g class="ticklines"><g stroke-opacity="5.0e-2" fill="none" stroke="#0d0d0d" stroke-width="5.0e-3"><polyline points="-0.6687309334960341,0.33719741430902983
0.42949969493593665,0.33719741430902983"/><polyline points="-0.6687309334960341,0.23522452584264375
0.42949969493593665,0.23522452584264375"/><polyline points="-0.6687309334960341,0.13325163737625767
0.42949969493593665,0.13325163737625767"/><polyline points="-0.6687309334960341,3.127874890987159e-2
0.42949969493593665,3.127874890987159e-2"/><polyline points="-0.6687309334960341,-7.069413955651449e-2
0.42949969493593665,-7.069413955651449e-2"/><polyline points="-0.6687309334960341,-0.17266702802290057
0.42949969493593665,-0.17266702802290057"/><polyline points="-0.6687309334960341,-0.27463991648928665
0.42949969493593665,-0.27463991648928665"/><polyline points="-0.6687309334960341,-0.37661280495567273
0.42949969493593665,-0.37661280495567273"/><polyline points="-0.6687309334960341,-0.4785856934220588
0.42949969493593665,-0.4785856934220588"/></g></g></g><g class="axisbar"><g stroke-opacity="0.0" fill="#0d0d0d" stroke="#000000" stroke-width="0.0" fill-opacity="0.4"><rect width="2.9286150091518692e-3" x="-0.6789810860280658" y="-0.48021725963752115" height="0.8190462401620132"/></g></g></g><g class="axis"><g class="ticks"><g class="tickglyph"><g stroke-opacity="0.4" fill="#0d0d0d" stroke="#0d0d0d" stroke-width="4.0e-3" fill-opacity="0.4"><polyline points="-0.6138194020744356,0.37667090754096255
-0.6138194020744356,0.3466709075409625"/><polyline points="-0.5039963392312384,0.37667090754096255
-0.5039963392312384,0.3466709075409625"/><polyline points="-0.39417327638804145,0.37667090754096255
-0.39417327638804145,0.3466709075409625"/><polyline points="-0.2843502135448443,0.37667090754096255
-0.2843502135448443,0.3466709075409625"/><polyline points="-0.17452715070164726,0.37667090754096255
-0.17452715070164726,0.3466709075409625"/><polyline points="-6.470408785845017e-2,0.37667090754096255
-6.470408785845017e-2,0.3466709075409625"/><polyline points="4.511897498474693e-2,0.37667090754096255
4.511897498474693e-2,0.3466709075409625"/><polyline points="0.15494203782794402,0.37667090754096255
0.15494203782794402,0.3466709075409625"/><polyline points="0.2647651006711409,0.37667090754096255
0.2647651006711409,0.3466709075409625"/><polyline points="0.374588163514338,0.37667090754096255
0.374588163514338,0.3466709075409625"/></g></g><g class="ticktext"><g fill="#0d0d0d" stroke="none" stroke-width="0.0" font-size="3.6607687614399025e-2" fill-opacity="1.0" text-anchor="end"><text x="-0.6138194020744356" y="0.4134731348818867" transform="rotate(-45.0, -0.6138194020744356, 0.4134731348818867)">row 1</text><text x="-0.5039963392312384" y="0.4134731348818867" transform="rotate(-45.0, -0.5039963392312384, 0.4134731348818867)">row 2</text><text x="-0.39417327638804145" y="0.4134731348818867" transform="rotate(-45.0, -0.39417327638804145, 0.4134731348818867)">row 3</text><text x="-0.2843502135448443" y="0.4134731348818867" transform="rotate(-45.0, -0.2843502135448443, 0.4134731348818867)">row 4</text><text x="-0.17452715070164726" y="0.4134731348818867" transform="rotate(-45.0, -0.17452715070164726, 0.4134731348818867)">row 5</text><text x="-6.470408785845017e-2" y="0.4134731348818867" transform="rotate(-45.0, -6.470408785845017e-2, 0.4134731348818867)">row 6</text><text x="4.511897498474693e-2" y="0.4134731348818867" transform="rotate(-45.0, 4.511897498474693e-2, 0.4134731348818867)">row 7</text><text x="0.15494203782794402" y="0.4134731348818867" transform="rotate(-45.0, 0.15494203782794402, 0.4134731348818867)">row 8</text><text x="0.2647651006711409" y="0.4134731348818867" transform="rotate(-45.0, 0.2647651006711409, 0.4134731348818867)">row 9</text><text x="0.374588163514338" y="0.4134731348818867" transform="rotate(-45.0, 0.374588163514338, 0.4134731348818867)">row 10</text></g></g></g><g class="axisbar"><g stroke-opacity="0.0" fill="#0d0d0d" stroke="#000000" stroke-width="0.0" fill-opacity="0.4"><rect width="1.1011592434411224" x="-0.67019524100061" y="0.34535524538634077" height="3.2631324309243537e-3"/></g></g></g><g class="legend"><g class="legendBorder"><g stroke-opacity="1.0" fill="#0d0d0d" stroke="#0d0d0d" stroke-width="2.5e-3" fill-opacity="0.0"><rect width="0.26009762050030516" x="0.486241610738255" y="-0.13317659233710022" height="0.18436698234722604"/></g></g><g class="legendContent"><g><g fill="#0d0d0d" stroke="none" stroke-width="0.0" font-size="3.6607687614399025e-2" fill-opacity="1.0" text-anchor="start"><text x="0.5045454545454544" y="1.0197288846638564e-2">column 2</text></g><g stroke-opacity="1.0" fill="#a6cfe3" stroke="#a6cfe3" stroke-width="5.0e-4" fill-opacity="1.0"><rect width="5.4911531421598214e-2" x="0.6729408175716902" y="-3.0591866539915746e-2" height="6.118373307983155e-2"/></g><g fill="#0d0d0d" stroke="none" stroke-width="0.0" font-size="3.6607687614399025e-2" fill-opacity="1.0" text-anchor="start"><text x="0.5045454545454544" y="-7.178891348033578e-2">column 1</text></g><g stroke-opacity="1.0" fill="#b05929" stroke="#b05929" stroke-width="5.0e-4" fill-opacity="1.0"><rect width="5.4911531421598214e-2" x="0.6729408175716902" y="-0.11257806886689026" height="6.1183733079831715e-2"/></g></g></g></g></g></svg>