<svg viewBox="0.0 -408.0 612.0 408.0" xmlns="http://www.w3.org/2000/svg" xmlns:xlink="http://www.w3.org/1999/xlink" version="1.1" width="600.0" height="400.0"><style type="text/css"> {
  shape-rendering: &quot;crispEdges&quot;;
}
</style><g stroke-width="0.0" stroke="none" fill="#000000" transform="translate(-5.13833973725531e-2, -0.57175)" fill-opacity="1.0" font-size="0.12" text-anchor="middle"><text transform="rotate(0.0, 0.0, -0.0)" x="0.0" y="-0.0">Default Bar Chart</text></g><g stroke-width="0.0" stroke="#000000" fill="#666666" fill-opacity="3.0e-2" stroke-opacity="0.0"><rect width="0.6666666666666666" height="1.0" x="-0.3333333333333333" y="-0.5" /></g><g stroke-width="5.0e-3" stroke="#A8E5EE" fill="none" stroke-opacity="0.3"><polyline points="-0.3383333333333333,0.5 0.3383333333333333,0.5" /></g><g stroke-width="5.0e-3" stroke="#A8E5EE" fill="none" stroke-opacity="0.3"><polyline points="-0.3383333333333333,0.375 0.3383333333333333,0.375" /></g><g stroke-width="5.0e-3" stroke="#A8E5EE" fill="none" stroke-opacity="0.3"><polyline points="-0.3383333333333333,0.25 0.3383333333333333,0.25" /></g><g stroke-width="5.0e-3" stroke="#A8E5EE" fill="none" stroke-opacity="0.3"><polyline points="-0.3383333333333333,0.125 0.3383333333333333,0.125" /></g><g stroke-width="5.0e-3" stroke="#A8E5EE" fill="none" stroke-opacity="0.3"><polyline points="-0.3383333333333333,-0.0 0.3383333333333333,-0.0" /></g><g stroke-width="5.0e-3" stroke="#A8E5EE" fill="none" stroke-opacity="0.3"><polyline points="-0.3383333333333333,-0.125 0.3383333333333333,-0.125" /></g><g stroke-width="5.0e-3" stroke="#A8E5EE" fill="none" stroke-opacity="0.3"><polyline points="-0.3383333333333333,-0.25 0.3383333333333333,-0.25" /></g><g stroke-width="5.0e-3" stroke="#A8E5EE" fill="none" stroke-opacity="0.3"><polyline points="-0.3383333333333333,-0.375 0.3383333333333333,-0.375" /></g><g stroke-width="5.0e-3" stroke="#A8E5EE" fill="none" stroke-opacity="0.3"><polyline points="-0.3383333333333333,-0.5 0.3383333333333333,-0.5" /></g><g stroke-width="0.0" stroke="none" fill="#666666" fill-opacity="1.0" font-size="5.0e-2" text-anchor="end"><text x="-0.3936001280784395" y="0.5145">-4</text></g><g stroke-width="0.0" stroke="none" fill="#666666" fill-opacity="1.0" font-size="5.0e-2" text-anchor="end"><text x="-0.3936001280784395" y="0.3895">-2</text></g><g stroke-width="0.0" stroke="none" fill="#666666" fill-opacity="1.0" font-size="5.0e-2" text-anchor="end"><text x="-0.3936001280784395" y="0.2645">0</text></g><g stroke-width="0.0" stroke="none" fill="#666666" fill-opacity="1.0" font-size="5.0e-2" text-anchor="end"><text x="-0.3936001280784395" y="0.1395">2</text></g><g stroke-width="0.0" stroke="none" fill="#666666" fill-opacity="1.0" font-size="5.0e-2" text-anchor="end"><text x="-0.3936001280784395" y="1.4499999999999999e-2">4</text></g><g stroke-width="0.0" stroke="none" fill="#666666" fill-opacity="1.0" font-size="5.0e-2" text-anchor="end"><text x="-0.3936001280784395" y="-0.1105">6</text></g><g stroke-width="0.0" stroke="none" fill="#666666" fill-opacity="1.0" font-size="5.0e-2" text-anchor="end"><text x="-0.3936001280784395" y="-0.2355">8</text></g><g stroke-width="0.0" stroke="none" fill="#666666" fill-opacity="1.0" font-size="5.0e-2" text-anchor="end"><text x="-0.3936001280784395" y="-0.3605">10</text></g><g stroke-width="0.0" stroke="none" fill="#666666" fill-opacity="1.0" font-size="5.0e-2" text-anchor="end"><text x="-0.3936001280784395" y="-0.4855">12</text></g><g stroke-width="0.0" stroke="#2C429D" fill="#5F0391" fill-opacity="1.0" stroke-opacity="0.4"><line stroke-width="5.0e-3" transform="rotate(-90.0, -0.3635251280784395, 0.5)" x1="-0.3635251280784395" y1="0.515" x2="-0.3635251280784395" y2="0.485" /><line stroke-width="5.0e-3" transform="rotate(-90.0, -0.3635251280784395, 0.375)" x1="-0.3635251280784395" y1="0.39" x2="-0.3635251280784395" y2="0.36" /><line stroke-width="5.0e-3" transform="rotate(-90.0, -0.3635251280784395, 0.25)" x1="-0.3635251280784395" y1="0.265" x2="-0.3635251280784395" y2="0.235" /><line stroke-width="5.0e-3" transform="rotate(-90.0, -0.3635251280784395, 0.125)" x1="-0.3635251280784395" y1="0.14" x2="-0.3635251280784395" y2="0.11" /><line stroke-width="5.0e-3" transform="rotate(-90.0, -0.3635251280784395, -0.0)" x1="-0.3635251280784395" y1="1.5e-2" x2="-0.3635251280784395" y2="-1.5e-2" /><line stroke-width="5.0e-3" transform="rotate(-90.0, -0.3635251280784395, -0.125)" x1="-0.3635251280784395" y1="-0.11" x2="-0.3635251280784395" y2="-0.14" /><line stroke-width="5.0e-3" transform="rotate(-90.0, -0.3635251280784395, -0.25)" x1="-0.3635251280784395" y1="-0.235" x2="-0.3635251280784395" y2="-0.265" /><line stroke-width="5.0e-3" transform="rotate(-90.0, -0.3635251280784395, -0.375)" x1="-0.3635251280784395" y1="-0.36" x2="-0.3635251280784395" y2="-0.39" /><line stroke-width="5.0e-3" transform="rotate(-90.0, -0.3635251280784395, -0.5)" x1="-0.3635251280784395" y1="-0.485" x2="-0.3635251280784395" y2="-0.515" /></g><g stroke-width="0.0" stroke="#666666" fill="#5F0391" fill-opacity="0.5" stroke-opacity="0.0"><rect width="5.0000000000000044e-3" height="1.0" x="-0.3535251280784395" y="-0.5" /></g><g stroke-width="0.0" stroke="none" fill="#666666" fill-opacity="1.0" font-size="2.7586206896551727e-2" text-anchor="end"><text transform="rotate(-45.0, -0.3, 0.5900000000000001)" x="-0.3" y="0.5900000000000001">row 1</text></g><g stroke-width="0.0" stroke="none" fill="#666666" fill-opacity="1.0" font-size="2.7586206896551727e-2" text-anchor="end"><text transform="rotate(-45.0, -0.23333333333333334, 0.5900000000000001)" x="-0.23333333333333334" y="0.5900000000000001">row 2</text></g><g stroke-width="0.0" stroke="none" fill="#666666" fill-opacity="1.0" font-size="2.7586206896551727e-2" text-anchor="end"><text transform="rotate(-45.0, -0.16666666666666666, 0.5900000000000001)" x="-0.16666666666666666" y="0.5900000000000001">row 3</text></g><g stroke-width="0.0" stroke="none" fill="#666666" fill-opacity="1.0" font-size="2.7586206896551727e-2" text-anchor="end"><text transform="rotate(-45.0, -0.1, 0.5900000000000001)" x="-0.1" y="0.5900000000000001">row 4</text></g><g stroke-width="0.0" stroke="none" fill="#666666" fill-opacity="1.0" font-size="2.7586206896551727e-2" text-anchor="end"><text transform="rotate(-45.0, -3.3333333333333326e-2, 0.5900000000000001)" x="-3.3333333333333326e-2" y="0.5900000000000001">row 5</text></g><g stroke-width="0.0" stroke="none" fill="#666666" fill-opacity="1.0" font-size="2.7586206896551727e-2" text-anchor="end"><text transform="rotate(-45.0, 3.333333333333338e-2, 0.5900000000000001)" x="3.333333333333338e-2" y="0.5900000000000001">row 6</text></g><g stroke-width="0.0" stroke="none" fill="#666666" fill-opacity="1.0" font-size="2.7586206896551727e-2" text-anchor="end"><text transform="rotate(-45.0, 0.10000000000000003, 0.5900000000000001)" x="0.10000000000000003" y="0.5900000000000001">row 7</text></g><g stroke-width="0.0" stroke="none" fill="#666666" fill-opacity="1.0" font-size="2.7586206896551727e-2" text-anchor="end"><text transform="rotate(-45.0, 0.16666666666666669, 0.5900000000000001)" x="0.16666666666666669" y="0.5900000000000001">row 8</text></g><g stroke-width="0.0" stroke="none" fill="#666666" fill-opacity="1.0" font-size="2.7586206896551727e-2" text-anchor="end"><text transform="rotate(-45.0, 0.23333333333333334, 0.5900000000000001)" x="0.23333333333333334" y="0.5900000000000001">row 9</text></g><g stroke-width="0.0" stroke="none" fill="#666666" fill-opacity="1.0" font-size="2.7586206896551727e-2" text-anchor="end"><text transform="rotate(-45.0, 0.3, 0.5900000000000001)" x="0.3" y="0.5900000000000001">row 10</text></g><g stroke-width="0.0" stroke="#2C429D" fill="#5F0391" fill-opacity="1.0" stroke-opacity="0.4"><line stroke-width="5.0e-3" x1="-0.3" y1="0.54" x2="-0.3" y2="0.51" /><line stroke-width="5.0e-3" x1="-0.23333333333333334" y1="0.54" x2="-0.23333333333333334" y2="0.51" /><line stroke-width="5.0e-3" x1="-0.16666666666666666" y1="0.54" x2="-0.16666666666666666" y2="0.51" /><line stroke-width="5.0e-3" x1="-0.1" y1="0.54" x2="-0.1" y2="0.51" /><line stroke-width="5.0e-3" x1="-3.3333333333333326e-2" y1="0.54" x2="-3.3333333333333326e-2" y2="0.51" /><line stroke-width="5.0e-3" x1="3.333333333333338e-2" y1="0.54" x2="3.333333333333338e-2" y2="0.51" /><line stroke-width="5.0e-3" x1="0.10000000000000003" y1="0.54" x2="0.10000000000000003" y2="0.51" /><line stroke-width="5.0e-3" x1="0.16666666666666669" y1="0.54" x2="0.16666666666666669" y2="0.51" /><line stroke-width="5.0e-3" x1="0.23333333333333334" y1="0.54" x2="0.23333333333333334" y2="0.51" /><line stroke-width="5.0e-3" x1="0.3" y1="0.54" x2="0.3" y2="0.51" /></g><g stroke-width="0.0" stroke="#666666" fill="#5F0391" fill-opacity="0.5" stroke-opacity="0.0"><rect width="0.6666666666666666" height="5.0000000000000044e-3" x="-0.3333333333333333" y="0.51" /></g><g stroke-width="2.0e-3" stroke="#666666" fill="#032F74" fill-opacity="0.5" stroke-opacity="1.0"><rect width="2.6666666666666672e-2" height="6.25e-2" x="-0.32666666666666666" y="0.1875" /><rect width="2.6666666666666672e-2" height="0.125" x="-0.26" y="0.125" /><rect width="2.6666666666666644e-2" height="0.1875" x="-0.19333333333333338" y="6.25e-2" /><rect width="2.6666666666666644e-2" height="0.3125" x="-0.12666666666666673" y="-6.25e-2" /><rect width="2.6666666666666727e-2" height="0.5" x="-6.000000000000011e-2" y="-0.25" /><rect width="2.6666666666666616e-2" x="6.666666666666599e-3" y="0.25" /><rect width="2.6666666666666672e-2" height="0.125" x="7.333333333333325e-2" y="0.25" /><rect width="2.6666666666666616e-2" height="0.6875" x="0.1399999999999999" y="-0.4375" /><rect width="2.6666666666666727e-2" height="0.125" x="0.2066666666666666" y="0.125" /><rect width="2.6666666666666727e-2" height="6.25e-2" x="0.27333333333333326" y="0.1875" /></g><g stroke-width="2.0e-3" stroke="#666666" fill="#003601" fill-opacity="0.5" stroke-opacity="1.0"><rect width="2.6666666666666672e-2" height="6.25e-2" x="-0.3" y="0.1875" /><rect width="2.6666666666666672e-2" height="0.125" x="-0.23333333333333334" y="0.125" /><rect width="2.6666666666666672e-2" height="0.1875" x="-0.16666666666666674" y="6.25e-2" /><rect width="2.6666666666666672e-2" height="0.25" x="-0.10000000000000009" /><rect width="2.6666666666666672e-2" height="0.3125" x="-3.333333333333338e-2" y="-6.25e-2" /><rect width="2.6666666666666672e-2" height="0.375" x="3.3333333333333215e-2" y="-0.125" /><rect width="2.6666666666666616e-2" height="0.4375" x="9.999999999999992e-2" y="-0.1875" /><rect width="2.6666666666666672e-2" height="0.5" x="0.16666666666666652" y="-0.25" /><rect width="2.6666666666666616e-2" height="0.5625" x="0.23333333333333334" y="-0.3125" /><rect width="2.6666666666666616e-2" height="0.625" x="0.3" y="-0.375" /></g><g /><g stroke-width="0.0" stroke="none" fill="#032F74" fill-opacity="0.5" font-size="4.0e-2" text-anchor="middle"><text x="-0.3133333333333333" y="0.15500000000000003">1</text><text x="-0.24666666666666667" y="9.250000000000003e-2">2</text><text x="-0.18000000000000005" y="3.0000000000000027e-2">3</text><text x="-0.1133333333333334" y="-9.499999999999997e-2">5</text><text x="-4.6666666666666745e-2" y="-0.2825">8</text><text x="1.9999999999999962e-2" y="0.21750000000000003">0</text><text x="8.666666666666661e-2" y="0.4075">-2</text><text x="0.15333333333333327" y="-0.47">11</text><text x="0.21999999999999992" y="9.250000000000003e-2">2</text><text x="0.28666666666666657" y="0.15500000000000003">1</text></g><g stroke-width="0.0" stroke="none" fill="#003601" fill-opacity="0.5" font-size="4.0e-2" text-anchor="middle"><text x="-0.2866666666666666" y="0.15500000000000003">1</text><text x="-0.22" y="9.250000000000003e-2">2</text><text x="-0.15333333333333338" y="3.0000000000000027e-2">3</text><text x="-8.666666666666673e-2" y="-3.249999999999997e-2">4</text><text x="-2.0000000000000073e-2" y="-9.499999999999997e-2">5</text><text x="4.666666666666658e-2" y="-0.15749999999999997">6</text><text x="0.11333333333333323" y="-0.21999999999999997">7</text><text x="0.17999999999999988" y="-0.2825">8</text><text x="0.24666666666666653" y="-0.345">9</text><text x="0.3133333333333332" y="-0.4075">10</text></g><g /><g stroke-width="6.600000000000001e-3" stroke="#3764A0" fill="#FFFFFF" fill-opacity="1.0" stroke-opacity="0.5"><rect width="0.3699300000000002" height="0.2376" x="0.646881602627447" y="-0.1888749806388609" /></g><g stroke-width="0.0" stroke="none" fill="#666666" fill-opacity="1.0" font-size="5.280000000000001e-2" text-anchor="start"><text x="0.679881602627447" y="-1.1994980638860897e-2">column 2</text></g><g stroke-width="6.6e-4" stroke="#666666" fill="#003601" fill-opacity="0.5" stroke-opacity="1.0"><rect width="3.960000000000008e-2" height="3.96e-2" x="0.943881602627447" y="-5.15949806388609e-2" /></g><g stroke-width="0.0" stroke="none" fill="#666666" fill-opacity="1.0" font-size="5.280000000000001e-2" text-anchor="start"><text x="0.679881602627447" y="-0.10703498063886091">column 1</text></g><g stroke-width="6.6e-4" stroke="#666666" fill="#032F74" fill-opacity="0.5" stroke-opacity="1.0"><rect width="3.960000000000008e-2" height="3.9599999999999996e-2" x="0.943881602627447" y="-0.1466349806388609" /></g><g /></svg>