<svg width="453.6841532933374" xmlns:xlink="http://www.w3.org/1999/xlink" xmlns="http://www.w3.org/2000/svg" viewBox="-0.77 -0.5154803612755237 1.54 1.0183295948211926" height="300.0"><style>svg {
  color-scheme: light dark;
}
@media (prefers-color-scheme:dark) {
  svg {
    background-color: #f0f0f0;
  }
}</style><g stroke-opacity="1.0" fill="#0d0d0d" stroke="#0d0d0d" stroke-width="4.0e-3" fill-opacity="0.0"><rect width="0.3035142368270962" x="0.4399047953319002" y="-0.14362821731536324" height="0.19806265584127714"/></g><g fill="#0d0d0d" stroke="none" stroke-width="0.0" font-size="3.158864563681832e-2" fill-opacity="1.0" text-anchor="start"><text x="0.46622866669591545" y="9.837549131189283e-3">column 2</text></g><g stroke-opacity="1.0" fill="#a6cfe3" stroke="#a6cfe3" stroke-width="8.0e-4" fill-opacity="1.0"><rect width="3.158864563681796e-2" x="0.6852432764445227" y="-1.9675098262378565e-2" height="3.9350196524757075e-2"/></g><g fill="#0d0d0d" stroke="none" stroke-width="0.0" font-size="3.158864563681832e-2" fill-opacity="1.0" text-anchor="start"><text x="0.46622866669591545" y="-7.935622965826006e-2">column 1</text></g><g stroke-opacity="1.0" fill="#b05929" stroke="#b05929" stroke-width="8.0e-4" fill-opacity="1.0"><rect width="3.158864563681796e-2" x="0.6852432764445227" y="-0.1088688770518278" height="3.935019652475702e-2"/></g><g stroke-opacity="0.0" fill="#0d0d0d" stroke="#000000" stroke-width="0.0" fill-opacity="0.4"><rect width="2.6323871364015705e-3" x="-0.6901131926468652" y="-0.4801199527973883" height="0.8230749439761679"/></g><g stroke-opacity="0.4" fill="#0d0d0d" stroke="#0d0d0d" stroke-width="4.0e-3" fill-opacity="0.4"><g transform="rotate(-90.0, -0.7006427411924714, 0.3413153996569147)"><polyline points="-0.7006427411924714,0.3563153996569147
-0.7006427411924714,0.3263153996569147"/></g><g transform="rotate(-90.0, -0.7006427411924714, 0.2388409295403599)"><polyline points="-0.7006427411924714,0.2538409295403599
-0.7006427411924714,0.2238409295403599"/></g><g transform="rotate(-90.0, -0.7006427411924714, 0.13636645942380515)"><polyline points="-0.7006427411924714,0.15136645942380517
-0.7006427411924714,0.12136645942380515"/></g><g transform="rotate(-90.0, -0.7006427411924714, 3.389198930725035e-2)"><polyline points="-0.7006427411924714,4.889198930725035e-2
-0.7006427411924714,1.8891989307250348e-2"/></g><g transform="rotate(-90.0, -0.7006427411924714, -6.85824808093044e-2)"><polyline points="-0.7006427411924714,-5.35824808093044e-2
-0.7006427411924714,-8.35824808093044e-2"/></g><g transform="rotate(-90.0, -0.7006427411924714, -0.17105695092585915)"><polyline points="-0.7006427411924714,-0.15605695092585914
-0.7006427411924714,-0.18605695092585917"/></g><g transform="rotate(-90.0, -0.7006427411924714, -0.273531421042414)"><polyline points="-0.7006427411924714,-0.258531421042414
-0.7006427411924714,-0.288531421042414"/></g><g transform="rotate(-90.0, -0.7006427411924714, -0.3760058911589689)"><polyline points="-0.7006427411924714,-0.36100589115896886
-0.7006427411924714,-0.3910058911589689"/></g><g transform="rotate(-90.0, -0.7006427411924714, -0.4784803612755236)"><polyline points="-0.7006427411924714,-0.4634803612755236
-0.7006427411924714,-0.49348036127552364"/></g></g><g fill="#0d0d0d" stroke="none" stroke-width="0.0" font-size="3.290483920501908e-2" fill-opacity="1.0" text-anchor="end"><text x="-0.7203856447154828" y="0.3525875913697358">-4</text><text x="-0.7203856447154828" y="0.25011312125318097">-2</text><text x="-0.7203856447154828" y="0.14763865113662616">0</text><text x="-0.7203856447154828" y="4.5164181020071414e-2">2</text><text x="-0.7203856447154828" y="-5.731028909648339e-2">4</text><text x="-0.7203856447154828" y="-0.15978475921303814">6</text><text x="-0.7203856447154828" y="-0.2622592293295929">8</text><text x="-0.7203856447154828" y="-0.36473369944614764">10</text><text x="-0.7203856447154828" y="-0.4672081695627025">12</text></g><g stroke-opacity="5.0e-2" fill="none" stroke="#0d0d0d" stroke-width="5.0e-3"><polyline points="-0.6808998376694598,0.3413153996569147
0.3062453384811126,0.3413153996569147"/><polyline points="-0.6808998376694598,0.2388409295403599
0.3062453384811126,0.2388409295403599"/><polyline points="-0.6808998376694598,0.13636645942380515
0.3062453384811126,0.13636645942380515"/><polyline points="-0.6808998376694598,3.389198930725035e-2
0.3062453384811126,3.389198930725035e-2"/><polyline points="-0.6808998376694598,-6.85824808093044e-2
0.3062453384811126,-6.85824808093044e-2"/><polyline points="-0.6808998376694598,-0.17105695092585915
0.3062453384811126,-0.17105695092585915"/><polyline points="-0.6808998376694598,-0.273531421042414
0.3062453384811126,-0.273531421042414"/><polyline points="-0.6808998376694598,-0.3760058911589689
0.3062453384811126,-0.3760058911589689"/><polyline points="-0.6808998376694598,-0.4784803612755236
0.3062453384811126,-0.4784803612755236"/></g><g stroke-opacity="0.0" fill="#0d0d0d" stroke="#000000" stroke-width="0.0" fill-opacity="0.4"><rect width="0.9897775632869743" x="-0.6822160312376606" y="0.3495133572662391" height="3.279183043729761e-3"/></g><g stroke-opacity="0.4" fill="#0d0d0d" stroke="#0d0d0d" stroke-width="4.0e-3" fill-opacity="0.4"><polyline points="-0.6315425788619313,0.3809092724848879
-0.6315425788619313,0.35090927248488785"/><polyline points="-0.5328280612468739,0.3809092724848879
-0.5328280612468739,0.35090927248488785"/><polyline points="-0.43411354363181676,0.3809092724848879
-0.43411354363181676,0.35090927248488785"/><polyline points="-0.33539902601675947,0.3809092724848879
-0.33539902601675947,0.35090927248488785"/><polyline points="-0.2366845084017022,0.3809092724848879
-0.2366845084017022,0.35090927248488785"/><polyline points="-0.13796999078664496,0.3809092724848879
-0.13796999078664496,0.35090927248488785"/><polyline points="-3.925547317158773e-2,0.3809092724848879
-3.925547317158773e-2,0.35090927248488785"/><polyline points="5.94590444434695e-2,0.3809092724848879
5.94590444434695e-2,0.35090927248488785"/><polyline points="0.15817356205852673,0.3809092724848879
0.15817356205852673,0.35090927248488785"/><polyline points="0.25688807967358396,0.3809092724848879
0.25688807967358396,0.35090927248488785"/></g><g fill="#0d0d0d" stroke="none" stroke-width="0.0" font-size="3.290483920501908e-2" fill-opacity="1.0" text-anchor="end"><text x="-0.6315425788619313" y="0.41304752873850303" transform="rotate(-45.0, -0.6315425788619313, 0.41304752873850303)">row 1</text><text x="-0.5328280612468739" y="0.41304752873850303" transform="rotate(-45.0, -0.5328280612468739, 0.41304752873850303)">row 2</text><text x="-0.43411354363181676" y="0.41304752873850303" transform="rotate(-45.0, -0.43411354363181676, 0.41304752873850303)">row 3</text><text x="-0.33539902601675947" y="0.41304752873850303" transform="rotate(-45.0, -0.33539902601675947, 0.41304752873850303)">row 4</text><text x="-0.2366845084017022" y="0.41304752873850303" transform="rotate(-45.0, -0.2366845084017022, 0.41304752873850303)">row 5</text><text x="-0.13796999078664496" y="0.41304752873850303" transform="rotate(-45.0, -0.13796999078664496, 0.41304752873850303)">row 6</text><text x="-3.925547317158773e-2" y="0.41304752873850303" transform="rotate(-45.0, -3.925547317158773e-2, 0.41304752873850303)">row 7</text><text x="5.94590444434695e-2" y="0.41304752873850303" transform="rotate(-45.0, 5.94590444434695e-2, 0.41304752873850303)">row 8</text><text x="0.15817356205852673" y="0.41304752873850303" transform="rotate(-45.0, 0.15817356205852673, 0.41304752873850303)">row 9</text><text x="0.25688807967358396" y="0.41304752873850303" transform="rotate(-45.0, 0.25688807967358396, 0.41304752873850303)">row 10</text></g><g stroke-opacity="1.0" fill="#b05929" stroke="#b05929" stroke-width="2.0e-3" fill-opacity="1.0"><rect width="3.948580704602278e-2" x="-0.6710283859079541" y="8.512922436552778e-2" height="5.1237235058277375e-2"/><rect width="3.948580704602289e-2" x="-0.5723138682928969" y="3.389198930725035e-2" height="0.1024744701165548"/><rect width="3.948580704602289e-2" x="-0.4735993506778397" y="-1.7345245751027027e-2" height="0.15371170517483218"/><rect width="3.948580704602278e-2" x="-0.3748848330627824" y="-0.11981971586758178" height="0.25618617529138693"/><rect width="3.9485807046023e-2" x="-0.2761703154477253" y="-0.273531421042414" height="0.40989788046621917"/><rect width="3.948580704602267e-2" x="-0.17745579783266785" y="0.13636645942380515" height="0.0"/><rect width="3.948580704602289e-2" x="-7.874128021761062e-2" y="0.13636645942380515" height="0.10247447011655475"/><rect width="3.948580704602245e-2" x="1.9973237397446608e-2" y="-0.42724312621724625" height="0.5636095856410515"/><rect width="3.948580704602289e-2" x="0.11868775501250384" y="3.389198930725035e-2" height="0.1024744701165548"/><rect width="3.9485807046023114e-2" x="0.21740227262756084" y="8.512922436552778e-2" height="5.1237235058277375e-2"/></g><g stroke-opacity="1.0" fill="#a6cfe3" stroke="#a6cfe3" stroke-width="2.0e-3" fill-opacity="1.0"><rect width="3.9485807046023e-2" x="-0.6315425788619313" y="8.512922436552778e-2" height="5.1237235058277375e-2"/><rect width="3.948580704602289e-2" x="-0.532828061246874" y="3.389198930725035e-2" height="0.1024744701165548"/><rect width="3.948580704602289e-2" x="-0.4341135436318168" y="-1.7345245751027027e-2" height="0.15371170517483218"/><rect width="3.948580704602289e-2" x="-0.33539902601675964" y="-6.85824808093044e-2" height="0.20494894023310956"/><rect width="3.948580704602289e-2" x="-0.2366845084017023" y="-0.11981971586758178" height="0.25618617529138693"/><rect width="3.9485807046023e-2" x="-0.13796999078664518" y="-0.17105695092585915" height="0.3074234103496643"/><rect width="3.948580704602267e-2" x="-3.925547317158773e-2" y="-0.22229418598413653" height="0.3586606454079417"/><rect width="3.9485807046023114e-2" x="5.9459044443469056e-2" y="-0.273531421042414" height="0.40989788046621917"/><rect width="3.948580704602289e-2" x="0.15817356205852673" y="-0.3247686561006914" height="0.46113511552449654"/><rect width="3.948580704602289e-2" x="0.25688807967358396" y="-0.3760058911589689" height="0.512372350582774"/></g><g fill="#b05929" stroke="none" stroke-width="0.0" font-size="3.948580704602289e-3" fill-opacity="1.0" text-anchor="middle"><text x="-0.6512854823849428" y="5.8485862135223554e-2">1</text><text x="-0.5525709647698854" y="7.248627076946124e-3">2</text><text x="-0.45385644715482826" y="-4.3988607981331196e-2">3</text><text x="-0.355141929539771" y="-0.14646307809788606">5</text><text x="-0.25642741192471374" y="-0.3001747832727182">8</text><text x="-0.1577128943096564" y="0.10972309719350093">0</text><text x="-5.8998376694599286e-2" y="0.3054493351161205">-2</text><text x="3.971614092045783e-2" y="-0.4538864884475503">11</text><text x="0.13843065853551506" y="7.248627076946124e-3">2</text><text x="0.23714517615057262" y="5.8485862135223554e-2">1</text></g><g fill="#a6cfe3" stroke="none" stroke-width="0.0" font-size="3.948580704602289e-3" fill-opacity="1.0" text-anchor="middle"><text x="-0.6117996753389198" y="5.8485862135223554e-2">1</text><text x="-0.5130851577238625" y="7.248627076946124e-3">2</text><text x="-0.4143706401088053" y="-4.3988607981331196e-2">3</text><text x="-0.3156561224937481" y="-9.522584303960868e-2">4</text><text x="-0.21694160487869085" y="-0.14646307809788606">5</text><text x="-0.11822708726363362" y="-0.19770031315616343">6</text><text x="-1.9512569648576394e-2" y="-0.2489375482144408">7</text><text x="7.920194796648072e-2" y="-0.3001747832727182">8</text><text x="0.17791646558153795" y="-0.35141201833099545">9</text><text x="0.2766309831965956" y="-0.4026492533892728">10</text></g></svg>