<svg xmlns="http://www.w3.org/2000/svg" height="300.0" viewBox="-0.8200000000000001 -0.7528062429696287 1.59 1.3974338131537578" width="450.0" xmlns:xlink="http://www.w3.org/1999/xlink"><g transform="translate(-5.128750000000004e-2, -0.57175)" fill-opacity="1.0" font-size="0.12" stroke="none" stroke-width="0.0" fill="#333333" text-anchor="middle"><text transform="rotate(0.0, -0.18798651292511337, -5.005624296962874e-2)" x="-0.18798651292511337" y="-5.005624296962874e-2">Default Bar Chart</text></g><g stroke-opacity="0.0" fill-opacity="0.1" stroke="#000000" stroke-width="0.0" fill="#cccccc"><rect height="0.8998875140607423" width="1.0406693585314075" x="-0.7083211921908171" y="-0.4999999999999999"/></g><g stroke-opacity="0.1" stroke="#808080" stroke-width="5.0e-3" fill="none"><polyline points="-0.7117900900525885,0.39988751406074247
0.3358170642023617,0.39988751406074247"/></g><g stroke-opacity="0.1" stroke="#808080" stroke-width="5.0e-3" fill="none"><polyline points="-0.7117900900525885,0.28740157480314965
0.3358170642023617,0.28740157480314965"/></g><g stroke-opacity="0.1" stroke="#808080" stroke-width="5.0e-3" fill="none"><polyline points="-0.7117900900525885,0.1749156355455569
0.3358170642023617,0.1749156355455569"/></g><g stroke-opacity="0.1" stroke="#808080" stroke-width="5.0e-3" fill="none"><polyline points="-0.7117900900525885,6.2429696287964076e-2
0.3358170642023617,6.2429696287964076e-2"/></g><g stroke-opacity="0.1" stroke="#808080" stroke-width="5.0e-3" fill="none"><polyline points="-0.7117900900525885,-5.005624296962874e-2
0.3358170642023617,-5.005624296962874e-2"/></g><g stroke-opacity="0.1" stroke="#808080" stroke-width="5.0e-3" fill="none"><polyline points="-0.7117900900525885,-0.1625421822272215
0.3358170642023617,-0.1625421822272215"/></g><g stroke-opacity="0.1" stroke="#808080" stroke-width="5.0e-3" fill="none"><polyline points="-0.7117900900525885,-0.27502812148481426
0.3358170642023617,-0.27502812148481426"/></g><g stroke-opacity="0.1" stroke="#808080" stroke-width="5.0e-3" fill="none"><polyline points="-0.7117900900525885,-0.387514060742407
0.3358170642023617,-0.387514060742407"/></g><g stroke-opacity="0.1" stroke="#808080" stroke-width="5.0e-3" fill="none"><polyline points="-0.7117900900525885,-0.4999999999999999
0.3358170642023617,-0.4999999999999999"/></g><g fill-opacity="0.8" font-size="5.0e-2" stroke="none" stroke-width="0.0" fill="#333333" text-anchor="end"><text x="-0.75" y="0.4129358830146232">-4</text></g><g fill-opacity="0.8" font-size="5.0e-2" stroke="none" stroke-width="0.0" fill="#333333" text-anchor="end"><text x="-0.75" y="0.30044994375703044">-2</text></g><g fill-opacity="0.8" font-size="5.0e-2" stroke="none" stroke-width="0.0" fill="#333333" text-anchor="end"><text x="-0.75" y="0.18796400449943768">0</text></g><g fill-opacity="0.8" font-size="5.0e-2" stroke="none" stroke-width="0.0" fill="#333333" text-anchor="end"><text x="-0.75" y="7.547806524184486e-2">2</text></g><g fill-opacity="0.8" font-size="5.0e-2" stroke="none" stroke-width="0.0" fill="#333333" text-anchor="end"><text x="-0.75" y="-3.700787401574801e-2">4</text></g><g fill-opacity="0.8" font-size="5.0e-2" stroke="none" stroke-width="0.0" fill="#333333" text-anchor="end"><text x="-0.75" y="-0.14949381327334077">6</text></g><g fill-opacity="0.8" font-size="5.0e-2" stroke="none" stroke-width="0.0" fill="#333333" text-anchor="end"><text x="-0.75" y="-0.2619797525309334">8</text></g><g fill-opacity="0.8" font-size="5.0e-2" stroke="none" stroke-width="0.0" fill="#333333" text-anchor="end"><text x="-0.75" y="-0.3744656917885262">10</text></g><g fill-opacity="0.8" font-size="5.0e-2" stroke="none" stroke-width="0.0" fill="#333333" text-anchor="end"><text x="-0.75" y="-0.48695163104611905">12</text></g><g stroke-opacity="0.5" fill-opacity="0.5" stroke="#570d66" stroke-width="5.0e-3" fill="#570d66"><g transform="rotate(-90.0, -0.7274001304305596, 0.39988751406074247)"><polyline points="-0.7274001304305596,0.4148875140607425
-0.7274001304305596,0.38488751406074245"/></g><g transform="rotate(-90.0, -0.7274001304305596, 0.28740157480314965)"><polyline points="-0.7274001304305596,0.30240157480314966
-0.7274001304305596,0.27240157480314964"/></g><g transform="rotate(-90.0, -0.7274001304305596, 0.1749156355455569)"><polyline points="-0.7274001304305596,0.1899156355455569
-0.7274001304305596,0.15991563554555688"/></g><g transform="rotate(-90.0, -0.7274001304305596, 6.2429696287964076e-2)"><polyline points="-0.7274001304305596,7.742969628796408e-2
-0.7274001304305596,4.742969628796408e-2"/></g><g transform="rotate(-90.0, -0.7274001304305596, -5.005624296962874e-2)"><polyline points="-0.7274001304305596,-3.505624296962874e-2
-0.7274001304305596,-6.505624296962874e-2"/></g><g transform="rotate(-90.0, -0.7274001304305596, -0.1625421822272215)"><polyline points="-0.7274001304305596,-0.14754218222722149
-0.7274001304305596,-0.1775421822272215"/></g><g transform="rotate(-90.0, -0.7274001304305596, -0.27502812148481426)"><polyline points="-0.7274001304305596,-0.26002812148481425
-0.7274001304305596,-0.29002812148481427"/></g><g transform="rotate(-90.0, -0.7274001304305596, -0.387514060742407)"><polyline points="-0.7274001304305596,-0.372514060742407
-0.7274001304305596,-0.40251406074240703"/></g><g transform="rotate(-90.0, -0.7274001304305596, -0.4999999999999999)"><polyline points="-0.7274001304305596,-0.4849999999999999
-0.7274001304305596,-0.5149999999999999"/></g></g><g stroke-opacity="0.5" fill-opacity="0.5" stroke="#570d66" stroke-width="0.0" fill="#570d66"><rect height="0.8998875140607423" width="3.468897861771403e-3" x="-0.7187278857761312" y="-0.4999999999999999"/></g><g fill-opacity="0.8" font-size="5.0e-2" stroke="none" stroke-width="0.0" fill="#333333" text-anchor="end"><text transform="rotate(-45.0, -0.6562877242642468, 0.5)" x="-0.6562877242642468" y="0.5">row 1</text></g><g fill-opacity="0.8" font-size="5.0e-2" stroke="none" stroke-width="0.0" fill="#333333" text-anchor="end"><text transform="rotate(-45.0, -0.5522207884111061, 0.5)" x="-0.5522207884111061" y="0.5">row 2</text></g><g fill-opacity="0.8" font-size="5.0e-2" stroke="none" stroke-width="0.0" fill="#333333" text-anchor="end"><text transform="rotate(-45.0, -0.44815385255796525, 0.5)" x="-0.44815385255796525" y="0.5">row 3</text></g><g fill-opacity="0.8" font-size="5.0e-2" stroke="none" stroke-width="0.0" fill="#333333" text-anchor="end"><text transform="rotate(-45.0, -0.3440869167048246, 0.5)" x="-0.3440869167048246" y="0.5">row 4</text></g><g fill-opacity="0.8" font-size="5.0e-2" stroke="none" stroke-width="0.0" fill="#333333" text-anchor="end"><text transform="rotate(-45.0, -0.24001998085168375, 0.5)" x="-0.24001998085168375" y="0.5">row 5</text></g><g fill-opacity="0.8" font-size="5.0e-2" stroke="none" stroke-width="0.0" fill="#333333" text-anchor="end"><text transform="rotate(-45.0, -0.135953044998543, 0.5)" x="-0.135953044998543" y="0.5">row 6</text></g><g fill-opacity="0.8" font-size="5.0e-2" stroke="none" stroke-width="0.0" fill="#333333" text-anchor="end"><text transform="rotate(-45.0, -3.188610914540235e-2, 0.5)" x="-3.188610914540235e-2" y="0.5">row 7</text></g><g fill-opacity="0.8" font-size="5.0e-2" stroke="none" stroke-width="0.0" fill="#333333" text-anchor="end"><text transform="rotate(-45.0, 7.21808267077384e-2, 0.5)" x="7.21808267077384e-2" y="0.5">row 8</text></g><g fill-opacity="0.8" font-size="5.0e-2" stroke="none" stroke-width="0.0" fill="#333333" text-anchor="end"><text transform="rotate(-45.0, 0.17624776256087915, 0.5)" x="0.17624776256087915" y="0.5">row 9</text></g><g fill-opacity="0.8" font-size="5.0e-2" stroke="none" stroke-width="0.0" fill="#333333" text-anchor="end"><text transform="rotate(-45.0, 0.2803146984140199, 0.5)" x="0.2803146984140199" y="0.5">row 10</text></g><g stroke-opacity="0.5" fill-opacity="0.5" stroke="#570d66" stroke-width="5.0e-3" fill="#570d66"><polyline points="-0.6562877242642468,0.4396344206974129
-0.6562877242642468,0.40963442069741285"/><polyline points="-0.5522207884111061,0.4396344206974129
-0.5522207884111061,0.40963442069741285"/><polyline points="-0.44815385255796525,0.4396344206974129
-0.44815385255796525,0.40963442069741285"/><polyline points="-0.3440869167048246,0.4396344206974129
-0.3440869167048246,0.40963442069741285"/><polyline points="-0.24001998085168375,0.4396344206974129
-0.24001998085168375,0.40963442069741285"/><polyline points="-0.135953044998543,0.4396344206974129
-0.135953044998543,0.40963442069741285"/><polyline points="-3.188610914540235e-2,0.4396344206974129
-3.188610914540235e-2,0.40963442069741285"/><polyline points="7.21808267077384e-2,0.4396344206974129
7.21808267077384e-2,0.40963442069741285"/><polyline points="0.17624776256087915,0.4396344206974129
0.17624776256087915,0.40963442069741285"/><polyline points="0.2803146984140199,0.4396344206974129
0.2803146984140199,0.40963442069741285"/></g><g stroke-opacity="0.5" fill-opacity="0.5" stroke="#570d66" stroke-width="0.0" fill="#570d66"><rect height="4.499437570303688e-3" width="1.0406693585314075" x="-0.7083211921908171" y="0.4088863892013499"/></g><g stroke-opacity="1.0" fill-opacity="1.0" stroke="#808080" stroke-width="2.0e-3" fill="#0ea194"><rect height="5.624296962879638e-2" width="4.162677434125628e-2" x="-0.697914498605503" y="0.11867266591676051"/><rect height="0.11248593925759282" width="4.162677434125617e-2" x="-0.5938475627523623" y="6.2429696287964076e-2"/><rect height="0.1687289088863892" width="4.162677434125628e-2" x="-0.48978062689922164" y="6.186726659167696e-3"/><rect height="0.281214848143982" width="4.162677434125622e-2" x="-0.3857136910460809" y="-0.10629921259842512"/><rect height="0.44994375703037115" width="4.162677434125639e-2" x="-0.28164675519294025" y="-0.27502812148481426"/><rect height="0.0" width="4.162677434125617e-2" x="-0.17757981933979938" y="0.1749156355455569"/><rect height="0.11248593925759276" width="4.162677434125639e-2" x="-7.351288348665874e-2" y="0.1749156355455569"/><rect height="0.6186726659167604" width="4.1626774341255945e-2" x="3.055405236648201e-2" y="-0.4437570303712035"/><rect height="0.11248593925759282" width="4.162677434125639e-2" x="0.13462098821962276" y="6.2429696287964076e-2"/><rect height="5.624296962879638e-2" width="4.162677434125661e-2" x="0.2386879240727633" y="0.11867266591676051"/></g><g stroke-opacity="1.0" fill-opacity="1.0" stroke="#808080" stroke-width="2.0e-3" fill="#0a865a"><rect height="5.624296962879638e-2" width="4.162677434125628e-2" x="-0.6562877242642468" y="0.11867266591676051"/><rect height="0.11248593925759282" width="4.162677434125639e-2" x="-0.5522207884111061" y="6.2429696287964076e-2"/><rect height="0.1687289088863892" width="4.162677434125628e-2" x="-0.44815385255796536" y="6.186726659167696e-3"/><rect height="0.22497187851518563" width="4.162677434125622e-2" x="-0.34408691670482466" y="-5.005624296962874e-2"/><rect height="0.281214848143982" width="4.162677434125628e-2" x="-0.24001998085168386" y="-0.10629921259842512"/><rect height="0.3374578177727784" width="4.162677434125628e-2" x="-0.13595304499854322" y="-0.1625421822272215"/><rect height="0.39370078740157477" width="4.162677434125617e-2" x="-3.188610914540235e-2" y="-0.21878515185601788"/><rect height="0.44994375703037115" width="4.162677434125639e-2" x="7.218082670773796e-2" y="-0.27502812148481426"/><rect height="0.5061867266591675" width="4.162677434125628e-2" x="0.17624776256087915" y="-0.33127109111361064"/><rect height="0.5624296962879639" width="4.162677434125617e-2" x="0.2803146984140199" y="-0.387514060742407"/></g><g fill-opacity="1.0" font-size="4.0e-2" stroke="none" stroke-width="0.0" fill="#0ea194" text-anchor="middle"><text x="-0.677101111434875" y="8.942632170978637e-2">1</text><text x="-0.5730341755817342" y="3.318335208098999e-2">2</text><text x="-0.4689672397285935" y="-2.3059617547806388e-2">3</text><text x="-0.36490030387545275" y="-0.13554555680539915">5</text><text x="-0.26083336802231205" y="-0.3042744656917884">8</text><text x="-0.1567664321691713" y="0.1456692913385828">0</text><text x="-5.269949631603055e-2" y="0.3166479190101238">-2</text><text x="5.136743953711009e-2" y="-0.4730033745781774">11</text><text x="0.15543437539025073" y="3.318335208098999e-2">2</text><text x="0.2595013112433917" y="8.942632170978637e-2">1</text></g><g fill-opacity="1.0" font-size="4.0e-2" stroke="none" stroke-width="0.0" fill="#0a865a" text-anchor="middle"><text x="-0.6354743370936187" y="8.942632170978637e-2">1</text><text x="-0.5314074012404779" y="3.318335208098999e-2">2</text><text x="-0.4273404653873372" y="-2.3059617547806388e-2">3</text><text x="-0.3232735295341965" y="-7.930258717660277e-2">4</text><text x="-0.21920659368105577" y="-0.13554555680539915">5</text><text x="-0.11513965782791513" y="-0.19178852643419553">6</text><text x="-1.1072721974774269e-2" y="-0.24803149606299202">7</text><text x="9.299421387836637e-2" y="-0.3042744656917884">8</text><text x="0.197061149731507" y="-0.3605174353205848">9</text><text x="0.3011280855846481" y="-0.41676040494938105">10</text></g><g stroke-opacity="1.0" fill-opacity="1.0" stroke="#0ea194" stroke-width="6.600000000000001e-3" fill="#ffffff"><rect height="0.21381327334083244" width="0.25664987720101573" x="0.46816592432252424" y="-0.18532392792615116"/></g><g fill-opacity="1.0" font-size="5.280000000000001e-2" stroke="none" stroke-width="0.0" fill="#808080" text-anchor="start"><text x="0.4910606502102153" y="-2.6151824439087035e-2">column 2</text></g><g stroke-opacity="1.0" fill-opacity="1.0" stroke="#808080" stroke-width="6.6e-4" fill="#0a865a"><rect height="3.563554555680537e-2" width="2.7473671065229244e-2" x="0.6742184573117429" y="-6.1787369995892405e-2"/></g><g fill-opacity="1.0" font-size="5.280000000000001e-2" stroke="none" stroke-width="0.0" fill="#808080" text-anchor="start"><text x="0.4910606502102153" y="-0.11167713377541999">column 1</text></g><g stroke-opacity="1.0" fill-opacity="1.0" stroke="#808080" stroke-width="6.6e-4" fill="#0ea194"><rect height="3.563554555680537e-2" width="2.7473671065229244e-2" x="0.6742184573117429" y="-0.14731267933222536"/></g></svg>