<svg width="461.80591964660476" xmlns:xlink="http://www.w3.org/1999/xlink" xmlns="http://www.w3.org/2000/svg" viewBox="-0.7389029126213592 -0.4933824784876081 1.4889029126213593 0.9672263926980862" height="300.0"><style>svg {
  color-scheme: light dark;
}
{
  .canvas g, .title g, .axisbar g, .ticktext g, .tickglyph g, .ticklines g, .legendContent g text {
    fill: #0d0d0d;
  }
  .ticklines g, .tickglyph g, .legendBorder g {
    stroke: #0d0d0d;
  }
}
@media (prefers-color-scheme:dark) {
  .canvas g, .title g, .axisbar g, .ticktext g, .tickglyph g, .ticklines g, .legendContent g text {
    fill: #f0f0f0;
  }
  .ticklines g, .tickglyph g, .legendBorder g {
    stroke: #f0f0f0;
  }
}</style><g class="chart"><g class="barchart"><g stroke-opacity="1.0" fill="#b05929" stroke="#b05929" stroke-width="2.0e-3" fill-opacity="1.0"><rect width="4.520388349514559e-2" x="-0.6439747572815533" y="7.162298599341055e-2" height="4.961684064479793e-2"/><rect width="4.520388349514559e-2" x="-0.5309650485436892" y="2.200614534861267e-2" height="9.923368128959581e-2"/><rect width="4.52038834951457e-2" x="-0.41795533980582533" y="-2.761069529618526e-2" height="0.14885052193439374"/><rect width="4.520388349514559e-2" x="-0.30494563106796124" y="-0.12684437658578107" height="0.24808420322398955"/><rect width="4.520388349514559e-2" x="-0.19193592233009715" y="-0.2756948985201749" height="0.3969347251583834"/><rect width="4.520388349514559e-2" x="-7.892621359223306e-2" y="0.12123982663820848" height="0.0"/><rect width="4.520388349514559e-2" x="3.4083495145631026e-2" y="0.12123982663820848" height="9.923368128959584e-2"/><rect width="4.520388349514548e-2" x="0.147093203883495" y="-0.42454542045456867" height="0.5457852470927771"/><rect width="4.5203883495145813e-2" x="0.2601029126213591" y="2.200614534861267e-2" height="9.923368128959581e-2"/><rect width="4.520388349514559e-2" x="0.3731126213592232" y="7.162298599341055e-2" height="4.961684064479793e-2"/></g><g stroke-opacity="1.0" fill="#a6cfe3" stroke="#a6cfe3" stroke-width="2.0e-3" fill-opacity="1.0"><rect width="4.520388349514559e-2" x="-0.5987708737864077" y="7.162298599341055e-2" height="4.961684064479793e-2"/><rect width="4.520388349514559e-2" x="-0.4857611650485436" y="2.200614534861267e-2" height="9.923368128959581e-2"/><rect width="4.520388349514559e-2" x="-0.37275145631067963" y="-2.761069529618526e-2" height="0.14885052193439374"/><rect width="4.520388349514565e-2" x="-0.25974174757281565" y="-7.722753594098325e-2" height="0.19846736257919173"/><rect width="4.52038834951457e-2" x="-0.14673203883495156" y="-0.12684437658578107" height="0.24808420322398955"/><rect width="4.520388349514559e-2" x="-3.372233009708747e-2" y="-0.17646121723057906" height="0.29770104386878754"/><rect width="4.520388349514559e-2" x="7.928737864077662e-2" y="-0.22607805787537694" height="0.3473178845135854"/><rect width="4.52038834951457e-2" x="0.19229708737864049" y="-0.2756948985201749" height="0.3969347251583834"/><rect width="4.520388349514559e-2" x="0.3053067961165049" y="-0.3253117391649728" height="0.4465515658031813"/><rect width="4.520388349514559e-2" x="0.4183165048543688" y="-0.3749285798097708" height="0.49616840644797927"/></g><g fill="#b05929" stroke="none" stroke-width="0.0" font-size="4.520388349514562e-3" fill-opacity="1.0" text-anchor="middle"><text x="-0.6213728155339806" y="4.5822228858115654e-2">1</text><text x="-0.5083631067961165" y="-3.7946117866822227e-3">2</text><text x="-0.3953533980582524" y="-5.3411452431480155e-2">3</text><text x="-0.2823436893203884" y="-0.15264513372107602">5</text><text x="-0.16933398058252436" y="-0.30149565565546976">8</text><text x="-5.632427184466027e-2" y="9.543906950291359e-2">0</text><text x="5.668543689320393e-2" y="0.2849754007660416">-2</text><text x="0.1696951456310678" y="-0.4503461775898634">11</text><text x="0.2827048543689318" y="-3.7946117866822227e-3">2</text><text x="0.3957145631067961" y="4.5822228858115654e-2">1</text></g><g fill="#a6cfe3" stroke="none" stroke-width="0.0" font-size="4.520388349514562e-3" fill-opacity="1.0" text-anchor="middle"><text x="-0.5761689320388349" y="4.5822228858115654e-2">1</text><text x="-0.4631592233009708" y="-3.7946117866822227e-3">2</text><text x="-0.35014951456310683" y="-5.3411452431480155e-2">3</text><text x="-0.2371398058252428" y="-0.10302829307627814">4</text><text x="-0.12413009708737865" y="-0.15264513372107602">5</text><text x="-1.1120388349514676e-2" y="-0.202261974365874">6</text><text x="0.1018893203883493" y="-0.2518788150106719">7</text><text x="0.2148990291262135" y="-0.30149565565546976">8</text><text x="0.3279087378640776" y="-0.35111249630026764">9</text><text x="0.4409184466019417" y="-0.4007293369450655">10</text></g></g></g><g class="hud"><g class="axis"><g class="ticks"><g class="tickglyph"><g stroke-opacity="0.4" fill="#0d0d0d" stroke="#0d0d0d" stroke-width="4.0e-3" fill-opacity="0.4"><g transform="rotate(-90.0, -0.6778776699029125, 0.31970718921740016)"><polyline points="-0.6778776699029125,0.33470718921740017
-0.6778776699029125,0.30470718921740014"/></g><g transform="rotate(-90.0, -0.6778776699029125, 0.22047350792780432)"><polyline points="-0.6778776699029125,0.2354735079278043
-0.6778776699029125,0.20547350792780433"/></g><g transform="rotate(-90.0, -0.6778776699029125, 0.12123982663820848)"><polyline points="-0.6778776699029125,0.1362398266382085
-0.6778776699029125,0.10623982663820848"/></g><g transform="rotate(-90.0, -0.6778776699029125, 2.200614534861267e-2)"><polyline points="-0.6778776699029125,3.700614534861267e-2
-0.6778776699029125,7.006145348612672e-3"/></g><g transform="rotate(-90.0, -0.6778776699029125, -7.722753594098325e-2)"><polyline points="-0.6778776699029125,-6.222753594098325e-2
-0.6778776699029125,-9.222753594098325e-2"/></g><g transform="rotate(-90.0, -0.6778776699029125, -0.17646121723057906)"><polyline points="-0.6778776699029125,-0.16146121723057905
-0.6778776699029125,-0.19146121723057907"/></g><g transform="rotate(-90.0, -0.6778776699029125, -0.2756948985201749)"><polyline points="-0.6778776699029125,-0.2606948985201749
-0.6778776699029125,-0.29069489852017494"/></g><g transform="rotate(-90.0, -0.6778776699029125, -0.3749285798097708)"><polyline points="-0.6778776699029125,-0.3599285798097708
-0.6778776699029125,-0.3899285798097708"/></g><g transform="rotate(-90.0, -0.6778776699029125, -0.47416226109936654)"><polyline points="-0.6778776699029125,-0.45916226109936653
-0.6778776699029125,-0.48916226109936656"/></g></g></g><g class="ticktext"><g fill="#0d0d0d" stroke="none" stroke-width="0.0" font-size="3.766990291262136e-2" fill-opacity="1.0" text-anchor="end"><text x="-0.705" y="0.3306228941592557">-4</text><text x="-0.705" y="0.23138921286965985">-2</text><text x="-0.705" y="0.132155531580064">0</text><text x="-0.705" y="3.2921850290468235e-2">2</text><text x="-0.705" y="-6.631183099912769e-2">4</text><text x="-0.705" y="-0.1655455122887235">6</text><text x="-0.705" y="-0.26477919357831936">8</text><text x="-0.705" y="-0.3640128748679152">10</text><text x="-0.705" y="-0.463246556157511">12</text></g></g><g class="ticklines"><g stroke-opacity="5.0e-2" fill="none" stroke="#0d0d0d" stroke-width="5.0e-3"><polyline points="-0.6552757281553397,0.31970718921740016
0.47482135922330093,0.31970718921740016"/><polyline points="-0.6552757281553397,0.22047350792780432
0.47482135922330093,0.22047350792780432"/><polyline points="-0.6552757281553397,0.12123982663820848
0.47482135922330093,0.12123982663820848"/><polyline points="-0.6552757281553397,2.200614534861267e-2
0.47482135922330093,2.200614534861267e-2"/><polyline points="-0.6552757281553397,-7.722753594098325e-2
0.47482135922330093,-7.722753594098325e-2"/><polyline points="-0.6552757281553397,-0.17646121723057906
0.47482135922330093,-0.17646121723057906"/><polyline points="-0.6552757281553397,-0.2756948985201749
0.47482135922330093,-0.2756948985201749"/><polyline points="-0.6552757281553397,-0.3749285798097708
0.47482135922330093,-0.3749285798097708"/><polyline points="-0.6552757281553397,-0.47416226109936654
0.47482135922330093,-0.47416226109936654"/></g></g></g><g class="axisbar"><g stroke-opacity="0.0" fill="#0d0d0d" stroke="#000000" stroke-width="0.0" fill-opacity="0.4"><rect width="3.0135922330096765e-3" x="-0.6658233009708737" y="-0.47575" height="0.7970449281180336"/></g></g></g><g class="axis"><g class="ticks"><g class="tickglyph"><g stroke-opacity="0.4" fill="#0d0d0d" stroke="#0d0d0d" stroke-width="4.0e-3" fill-opacity="0.4"><polyline points="-0.5987708737864077,0.3585232727269032
-0.5987708737864077,0.3285232727269032"/><polyline points="-0.48576116504854355,0.3585232727269032
-0.48576116504854355,0.3285232727269032"/><polyline points="-0.3727514563106795,0.3585232727269032
-0.3727514563106795,0.3285232727269032"/><polyline points="-0.25974174757281543,0.3585232727269032
-0.25974174757281543,0.3285232727269032"/><polyline points="-0.14673203883495134,0.3585232727269032
-0.14673203883495134,0.3285232727269032"/><polyline points="-3.372233009708725e-2,0.3585232727269032
-3.372233009708725e-2,0.3285232727269032"/><polyline points="7.928737864077673e-2,0.3585232727269032
7.928737864077673e-2,0.3285232727269032"/><polyline points="0.19229708737864082,0.3585232727269032
0.19229708737864082,0.3285232727269032"/><polyline points="0.3053067961165049,0.3585232727269032
0.3053067961165049,0.3285232727269032"/><polyline points="0.4183165048543688,0.3585232727269032
0.4183165048543688,0.3285232727269032"/></g></g><g class="ticktext"><g fill="#0d0d0d" stroke="none" stroke-width="0.0" font-size="3.766990291262136e-2" fill-opacity="1.0" text-anchor="end"><text x="-0.5987708737864077" y="0.39393398282201786" transform="rotate(-45.0, -0.5987708737864077, 0.39393398282201786)">row 1</text><text x="-0.48576116504854355" y="0.39393398282201786" transform="rotate(-45.0, -0.48576116504854355, 0.39393398282201786)">row 2</text><text x="-0.3727514563106795" y="0.39393398282201786" transform="rotate(-45.0, -0.3727514563106795, 0.39393398282201786)">row 3</text><text x="-0.25974174757281543" y="0.39393398282201786" transform="rotate(-45.0, -0.25974174757281543, 0.39393398282201786)">row 4</text><text x="-0.14673203883495134" y="0.39393398282201786" transform="rotate(-45.0, -0.14673203883495134, 0.39393398282201786)">row 5</text><text x="-3.372233009708725e-2" y="0.39393398282201786" transform="rotate(-45.0, -3.372233009708725e-2, 0.39393398282201786)">row 6</text><text x="7.928737864077673e-2" y="0.39393398282201786" transform="rotate(-45.0, 7.928737864077673e-2, 0.39393398282201786)">row 7</text><text x="0.19229708737864082" y="0.39393398282201786" transform="rotate(-45.0, 0.19229708737864082, 0.39393398282201786)">row 8</text><text x="0.3053067961165049" y="0.39393398282201786" transform="rotate(-45.0, 0.3053067961165049, 0.39393398282201786)">row 9</text><text x="0.4183165048543688" y="0.39393398282201786" transform="rotate(-45.0, 0.4183165048543688, 0.39393398282201786)">row 10</text></g></g></g><g class="axisbar"><g stroke-opacity="0.0" fill="#0d0d0d" stroke="#000000" stroke-width="0.0" fill-opacity="0.4"><rect width="1.1331106796116504" x="-0.6567825242718446" y="0.3276458837205678" height="3.1754778012670903e-3"/></g></g></g><g class="legend"><g class="legendBorder"><g stroke-opacity="1.0" fill="#0d0d0d" stroke="#0d0d0d" stroke-width="2.5e-3" fill-opacity="0.0"><rect width="0.2133999999999998" x="0.532833009708738" y="-0.17050719635320333" height="0.1794144957715893"/></g></g><g class="legendContent"><g fill="#0d0d0d" stroke="none" stroke-width="0.0" font-size="2.2601941747572813e-2" fill-opacity="1.0" text-anchor="start"><text x="0.5516679611650487" y="-3.49539877116154e-2">column 2</text></g><g stroke-opacity="1.0" fill="#a6cfe3" stroke="#a6cfe3" stroke-width="5.0e-4" fill-opacity="1.0"><rect width="5.6504854368931934e-2" x="0.6707048543689321" y="-7.06781129758699e-2" height="5.954020877375754e-2"/></g><g fill="#0d0d0d" stroke="none" stroke-width="0.0" font-size="2.2601941747572813e-2" fill-opacity="1.0" text-anchor="start"><text x="0.5516679611650487" y="-0.11473786746845038">column 1</text></g><g stroke-opacity="1.0" fill="#b05929" stroke="#b05929" stroke-width="5.0e-4" fill-opacity="1.0"><rect width="5.6504854368931934e-2" x="0.6707048543689321" y="-0.150461992732705" height="5.954020877375754e-2"/></g></g></g></g></svg>