<svg width="428.5873673840575" xmlns:xlink="http://www.w3.org/1999/xlink" xmlns="http://www.w3.org/2000/svg" viewBox="-0.7883030733340096 -0.5337419194352775 1.5583030733340095 1.0907715849246762" height="300.0"><style>svg {
  color-scheme: light dark;
}
@media (prefers-color-scheme:dark) {
  svg {
    background-color: #f0f0f0;
  }
}</style><g></g><g stroke-opacity="1.0" fill="#0d0d0d" stroke="#0d0d0d" stroke-width="4.0e-3" fill-opacity="0.0"><rect width="0.3112634573153079" x="0.4322572867039405" y="-0.15652766551491937" height="0.22018352612557263"/></g><g fill="#0d0d0d" stroke="none" stroke-width="0.0" font-size="4.8e-2" fill-opacity="1.0" text-anchor="start"><text x="0.4581743106269469" y="1.1490286833809704e-2">column 2</text></g><g stroke-opacity="1.0" fill="#a6cfe3" stroke="#a6cfe3" stroke-width="8.0e-4" fill-opacity="1.0"><rect width="3.1100428707607986e-2" x="0.6862441211494041" y="-1.5392585541986858e-2" height="3.840410339399519e-2"/></g><g fill="#0d0d0d" stroke="none" stroke-width="0.0" font-size="4.8e-2" fill-opacity="1.0" text-anchor="start"><text x="0.4581743106269469" y="-8.900045038047777e-2">column 1</text></g><g stroke-opacity="1.0" fill="#b05929" stroke="#b05929" stroke-width="8.0e-4" fill-opacity="1.0"><rect width="3.1100428707607986e-2" x="0.6862441211494041" y="-0.11588332275627444" height="3.840410339399514e-2"/></g><g stroke-opacity="0.0" fill="#0d0d0d" stroke="#000000" stroke-width="0.0" fill-opacity="2.0e-2"><rect width="0.9718883971127436" x="-0.6774448851193898" y="-0.4790931590022137" height="0.8000854873749009"/></g><g stroke-opacity="5.0e-2" fill="none" stroke="#0d0d0d" stroke-width="5.0e-3"><polyline points="-0.6774448851193898,0.3209923283726872
0.2944435119933537,0.3209923283726872"/><polyline points="-0.6774448851193898,0.22098164245082458
0.2944435119933537,0.22098164245082458"/><polyline points="-0.6774448851193898,0.120970956528962
0.2944435119933537,0.120970956528962"/><polyline points="-0.6774448851193898,2.0960270607099374e-2
0.2944435119933537,2.0960270607099374e-2"/><polyline points="-0.6774448851193898,-7.905041531476331e-2
0.2944435119933537,-7.905041531476331e-2"/><polyline points="-0.6774448851193898,-0.17906110123662577
0.2944435119933537,-0.17906110123662577"/><polyline points="-0.6774448851193898,-0.27907178715848846
0.2944435119933537,-0.27907178715848846"/><polyline points="-0.6774448851193898,-0.37908247308035103
0.2944435119933537,-0.37908247308035103"/><polyline points="-0.6774448851193898,-0.4790931590022137
0.2944435119933537,-0.4790931590022137"/></g><g fill="#0d0d0d" stroke="none" stroke-width="0.0" font-size="5.0e-2" fill-opacity="1.0" text-anchor="end"><text x="-0.7183030733340096" y="0.3325935679396232">-4</text><text x="-0.7183030733340096" y="0.23258288201776067">-2</text><text x="-0.7183030733340096" y="0.13257219609589804">0</text><text x="-0.7183030733340096" y="3.256151017403547e-2">2</text><text x="-0.7183030733340096" y="-6.744917574782727e-2">4</text><text x="-0.7183030733340096" y="-0.16745986166968974">6</text><text x="-0.7183030733340096" y="-0.2674705475915524">8</text><text x="-0.7183030733340096" y="-0.3674812335134149">10</text><text x="-0.7183030733340096" y="-0.46749191943527746">12</text></g><g stroke-opacity="0.4" fill="#0d0d0d" stroke="#0d0d0d" stroke-width="4.0e-3" fill-opacity="0.4"><g transform="rotate(-90.0, -0.6975305786597199, 0.3209923283726872)"><polyline points="-0.6975305786597199,0.3359923283726872
-0.6975305786597199,0.3059923283726872"/></g><g transform="rotate(-90.0, -0.6975305786597199, 0.22098164245082458)"><polyline points="-0.6975305786597199,0.2359816424508246
-0.6975305786597199,0.20598164245082456"/></g><g transform="rotate(-90.0, -0.6975305786597199, 0.120970956528962)"><polyline points="-0.6975305786597199,0.13597095652896202
-0.6975305786597199,0.105970956528962"/></g><g transform="rotate(-90.0, -0.6975305786597199, 2.0960270607099374e-2)"><polyline points="-0.6975305786597199,3.596027060709937e-2
-0.6975305786597199,5.960270607099374e-3"/></g><g transform="rotate(-90.0, -0.6975305786597199, -7.905041531476331e-2)"><polyline points="-0.6975305786597199,-6.405041531476331e-2
-0.6975305786597199,-9.405041531476331e-2"/></g><g transform="rotate(-90.0, -0.6975305786597199, -0.17906110123662577)"><polyline points="-0.6975305786597199,-0.16406110123662576
-0.6975305786597199,-0.1940611012366258"/></g><g transform="rotate(-90.0, -0.6975305786597199, -0.27907178715848846)"><polyline points="-0.6975305786597199,-0.26407178715848845
-0.6975305786597199,-0.2940717871584885"/></g><g transform="rotate(-90.0, -0.6975305786597199, -0.37908247308035103)"><polyline points="-0.6975305786597199,-0.364082473080351
-0.6975305786597199,-0.39408247308035105"/></g><g transform="rotate(-90.0, -0.6975305786597199, -0.4790931590022137)"><polyline points="-0.6975305786597199,-0.4640931590022137
-0.6975305786597199,-0.49409315900221373"/></g></g><g stroke-opacity="0.0" fill="#0d0d0d" stroke="#000000" stroke-width="0.0" fill-opacity="0.4"><rect width="2.5917023923006655e-3" x="-0.6865158434924421" y="-0.48069332997696335" height="0.8032858293244003"/></g><g fill="#0d0d0d" stroke="none" stroke-width="0.0" font-size="5.0e-2" fill-opacity="1.0" text-anchor="end"><text x="-0.6288504652637527" y="0.41240209530526967" transform="rotate(-45.0, -0.6288504652637527, 0.41240209530526967)">row 1</text><text x="-0.5316616255524782" y="0.41240209530526967" transform="rotate(-45.0, -0.5316616255524782, 0.41240209530526967)">row 2</text><text x="-0.43447278584120397" y="0.41240209530526967" transform="rotate(-45.0, -0.43447278584120397, 0.41240209530526967)">row 3</text><text x="-0.3372839461299296" y="0.41240209530526967" transform="rotate(-45.0, -0.3372839461299296, 0.41240209530526967)">row 4</text><text x="-0.24009510641865528" y="0.41240209530526967" transform="rotate(-45.0, -0.24009510641865528, 0.41240209530526967)">row 5</text><text x="-0.14290626670738082" y="0.41240209530526967" transform="rotate(-45.0, -0.14290626670738082, 0.41240209530526967)">row 6</text><text x="-4.571742699610648e-2" y="0.41240209530526967" transform="rotate(-45.0, -4.571742699610648e-2, 0.41240209530526967)">row 7</text><text x="5.147141271516764e-2" y="0.41240209530526967" transform="rotate(-45.0, 5.147141271516764e-2, 0.41240209530526967)">row 8</text><text x="0.14866025242644199" y="0.41240209530526967" transform="rotate(-45.0, 0.14866025242644199, 0.41240209530526967)">row 9</text><text x="0.24584909213771633" y="0.41240209530526967" transform="rotate(-45.0, 0.24584909213771633, 0.41240209530526967)">row 10</text></g><g stroke-opacity="0.4" fill="#0d0d0d" stroke="#0d0d0d" stroke-width="4.0e-3" fill-opacity="0.4"><polyline points="-0.6288504652637527,0.36079497848130915
-0.6288504652637527,0.3307949784813091"/><polyline points="-0.5316616255524782,0.36079497848130915
-0.5316616255524782,0.3307949784813091"/><polyline points="-0.43447278584120397,0.36079497848130915
-0.43447278584120397,0.3307949784813091"/><polyline points="-0.3372839461299296,0.36079497848130915
-0.3372839461299296,0.3307949784813091"/><polyline points="-0.24009510641865528,0.36079497848130915
-0.24009510641865528,0.3307949784813091"/><polyline points="-0.14290626670738082,0.36079497848130915
-0.14290626670738082,0.3307949784813091"/><polyline points="-4.571742699610648e-2,0.36079497848130915
-4.571742699610648e-2,0.3307949784813091"/><polyline points="5.147141271516764e-2,0.36079497848130915
5.147141271516764e-2,0.3307949784813091"/><polyline points="0.14866025242644199,0.36079497848130915
0.14866025242644199,0.3307949784813091"/><polyline points="0.24584909213771633,0.36079497848130915
0.24584909213771633,0.3307949784813091"/></g><g stroke-opacity="0.0" fill="#0d0d0d" stroke="#000000" stroke-width="0.0" fill-opacity="0.4"><rect width="0.9744800995050439" x="-0.6787407363155401" y="0.3289931832464362" height="3.2003419494995855e-3"/></g><g stroke-opacity="1.0" fill="#b05929" stroke="#b05929" stroke-width="2.0e-3" fill-opacity="1.0"><rect width="3.887553588450976e-2" x="-0.6677260011482624" y="7.096561356803066e-2" height="5.000534296093134e-2"/><rect width="3.887553588450965e-2" x="-0.570537161436988" y="2.0960270607099374e-2" height="0.10001068592186263"/><rect width="3.8875535884509704e-2" x="-0.4733483217257138" y="-2.9045072353831913e-2" height="0.15001602888279392"/><rect width="3.887553588450965e-2" x="-0.3761594820144395" y="-0.1290557582756945" height="0.2500267148046565"/><rect width="3.887553588450976e-2" x="-0.27897064230316515" y="-0.27907178715848846" height="0.40004274368745046"/><rect width="3.887553588450954e-2" x="-0.1817818025918907" y="0.120970956528962" height="0.0"/><rect width="3.887553588450965e-2" x="-8.459296288061646e-2" y="0.120970956528962" height="0.10001068592186257"/><rect width="3.887553588450976e-2" x="1.259587683065766e-2" y="-0.4290878160412823" height="0.5500587725702444"/><rect width="3.887553588450987e-2" x="0.10978471654193211" y="2.0960270607099374e-2" height="0.10001068592186263"/><rect width="3.887553588450976e-2" x="0.20697355625320657" y="7.096561356803066e-2" height="5.000534296093134e-2"/></g><g stroke-opacity="1.0" fill="#a6cfe3" stroke="#a6cfe3" stroke-width="2.0e-3" fill-opacity="1.0"><rect width="3.887553588450976e-2" x="-0.6288504652637527" y="7.096561356803066e-2" height="5.000534296093134e-2"/><rect width="3.887553588450976e-2" x="-0.5316616255524783" y="2.0960270607099374e-2" height="0.10001068592186263"/><rect width="3.887553588450976e-2" x="-0.4344727858412041" y="-2.9045072353831913e-2" height="0.15001602888279392"/><rect width="3.8875535884509815e-2" x="-0.33728394612992985" y="-7.905041531476331e-2" height="0.20002137184372532"/><rect width="3.887553588450976e-2" x="-0.2400951064186554" y="-0.1290557582756945" height="0.2500267148046565"/><rect width="3.887553588450976e-2" x="-0.14290626670738116" y="-0.17906110123662577" height="0.3000320577655878"/><rect width="3.887553588450976e-2" x="-4.5717426996106814e-2" y="-0.22906644419755717" height="0.3500374007265192"/><rect width="3.887553588450987e-2" x="5.147141271516742e-2" y="-0.27907178715848846" height="0.40004274368745046"/><rect width="3.887553588450976e-2" x="0.14866025242644199" y="-0.32907713011941975" height="0.45004808664838175"/><rect width="3.887553588450987e-2" x="0.24584909213771633" y="-0.37908247308035103" height="0.5000534296093131"/></g><g></g><g fill="#b05929" stroke="none" stroke-width="0.0" font-size="4.0e-2" fill-opacity="1.0" text-anchor="middle"><text x="-0.6482882332060076" y="4.4962835228346376e-2">1</text><text x="-0.5510993934947331" y="-5.0425077325848555e-3">2</text><text x="-0.4539105537834589" y="-5.504785069351614e-2">3</text><text x="-0.35672171407218456" y="-0.15505853661537872">5</text><text x="-0.2595328743609102" y="-0.3050745654981727">8</text><text x="-0.16234403464963587" y="9.496817818927777e-2">0</text><text x="-6.515519493836153e-2" y="0.28598858830003526">-2</text><text x="3.203364477291282e-2" y="-0.45509059438096644">11</text><text x="0.12922248448418694" y="-5.0425077325848555e-3">2</text><text x="0.22641132419546128" y="4.4962835228346376e-2">1</text></g><g fill="#a6cfe3" stroke="none" stroke-width="0.0" font-size="4.0e-2" fill-opacity="1.0" text-anchor="middle"><text x="-0.6094126973214977" y="4.4962835228346376e-2">1</text><text x="-0.5122238576102235" y="-5.0425077325848555e-3">2</text><text x="-0.41503501789894925" y="-5.504785069351614e-2">3</text><text x="-0.3178461781876749" y="-0.10505319365444743">4</text><text x="-0.22065733847640046" y="-0.15505853661537872">5</text><text x="-0.12346849876512622" y="-0.20506387957631012">6</text><text x="-2.62796590538521e-2" y="-0.2550692225372413">7</text><text x="7.090918065742224e-2" y="-0.3050745654981727">8</text><text x="0.1680980203686968" y="-0.355079908459104">9</text><text x="0.26528686007997093" y="-0.40508525142003515">10</text></g><g></g></svg>