<svg xmlns="http://www.w3.org/2000/svg" xmlns:xlink="http://www.w3.org/1999/xlink" width="462" height="300" viewBox="-0.7427 -0.4932 1.4927 0.9682"><style>svg {
  color-scheme: light dark;
}
{
  .canvas g, .title g, .axisbar g, .ticktext g, .tickglyph g, .ticklines g, .legendContent g text {
    fill: rgb(5%, 5%, 5%);
  }
  .ticklines g, .tickglyph g, .legendBorder g {
    stroke: rgb(5%, 5%, 5%);
  }
  .legendBorder g {
    fill: rgb(94%, 94%, 94%);
  }
}
@media (prefers-color-scheme:dark) {
  .canvas g, .title g, .axisbar g, .ticktext g, .tickglyph g, .ticklines g, .legendContent g text {
    fill: rgb(94%, 94%, 94%);
  }
  .ticklines g, .tickglyph g, .legendBorder g {
    stroke: rgb(94%, 94%, 94%);
  }
  .legendBorder g {
    fill: rgb(5%, 5%, 5%);
  }
}</style><g class="chart"><g class="barchart"><g stroke-width="0.0050" stroke="rgb(2%, 29%, 48%)" stroke-opacity="1.0" fill="rgb(2%, 29%, 48%)" fill-opacity="0.7"><rect width="0.0516" height="0.0539" x="-0.7119" y="0.0913"/><rect width="0.0516" height="0.1078" x="-0.5972" y="0.0374"/><rect width="0.0516" height="0.1616" x="-0.4825" y="-0.0164"/><rect width="0.0516" height="0.2694" x="-0.3679" y="-0.1242"/><rect width="0.0516" height="0.4310" x="-0.2532" y="-0.2859"/><rect width="0.0516" height="0" x="-0.1385" y="0.1452"/><rect width="0.0516" height="0.1078" x="-0.0238" y="0.1452"/><rect width="0.0516" height="0.5927" x="0.0909" y="-0.4475"/><rect width="0.0516" height="0.1078" x="0.2055" y="0.0374"/><rect width="0.0516" height="0.0539" x="0.3202" y="0.0913"/></g><g stroke-width="0.0050" stroke="rgb(66%, 7%, 55%)" stroke-opacity="1.0" fill="rgb(66%, 7%, 55%)" fill-opacity="0.7"><rect width="0.0516" height="0.0539" x="-0.6603" y="0.0913"/><rect width="0.0516" height="0.1078" x="-0.5456" y="0.0374"/><rect width="0.0516" height="0.1616" x="-0.4309" y="-0.0164"/><rect width="0.0516" height="0.2155" x="-0.3163" y="-0.0703"/><rect width="0.0516" height="0.2694" x="-0.2016" y="-0.1242"/><rect width="0.0516" height="0.3233" x="-0.0869" y="-0.1781"/><rect width="0.0516" height="0.3772" x="0.0278" y="-0.2320"/><rect width="0.0516" height="0.4310" x="0.1425" y="-0.2859"/><rect width="0.0516" height="0.4849" x="0.2572" y="-0.3397"/><rect width="0.0516" height="0.5388" x="0.3718" y="-0.3936"/></g><g stroke-width="0.0" stroke="none" fill="rgb(2%, 29%, 48%)" fill-opacity="1.0" font-size="0.0275" text-anchor="middle"><text x="-0.6861" y="0.0676">1.0</text><text x="-0.5714" y="0.0137">2.0</text><text x="-0.4567" y="-0.0402">3.0</text><text x="-0.3421" y="-0.1479">5.0</text><text x="-0.2274" y="-0.3096">8.0</text><text x="-0.1127" y="0.1215">0.0</text><text x="0.0020" y="0.3122">-2.0</text><text x="0.1167" y="-0.4712">11</text><text x="0.2314" y="0.0137">2.0</text><text x="0.3460" y="0.0676">1.0</text></g><g stroke-width="0.0" stroke="none" fill="rgb(66%, 7%, 55%)" fill-opacity="1.0" font-size="0.0275" text-anchor="middle"><text x="-0.6345" y="0.0676">1.0</text><text x="-0.5198" y="0.0137">2.0</text><text x="-0.4051" y="-0.0402">3.0</text><text x="-0.2904" y="-0.0940">4.0</text><text x="-0.1758" y="-0.1479">5.0</text><text x="-0.0611" y="-0.2018">6.0</text><text x="0.0536" y="-0.2557">7.0</text><text x="0.1683" y="-0.3096">8.0</text><text x="0.2830" y="-0.3634">9.0</text><text x="0.3976" y="-0.4173">10</text></g></g></g><g class="hud"><g class="axis"><g class="ticks"><g class="tickglyph"><g stroke-width="0.0040" stroke="rgb(5%, 5%, 5%)" stroke-opacity="0.4" fill="rgb(5%, 5%, 5%)" fill-opacity="0.4"><polyline points="-0.6603,0.3592
-0.6603,0.3292"/><polyline points="-0.5456,0.3592
-0.5456,0.3292"/><polyline points="-0.4309,0.3592
-0.4309,0.3292"/><polyline points="-0.3163,0.3592
-0.3163,0.3292"/><polyline points="-0.2016,0.3592
-0.2016,0.3292"/><polyline points="-0.0869,0.3592
-0.0869,0.3292"/><polyline points="0.0278,0.3592
0.0278,0.3292"/><polyline points="0.1425,0.3592
0.1425,0.3292"/><polyline points="0.2572,0.3592
0.2572,0.3292"/><polyline points="0.3718,0.3592
0.3718,0.3292"/></g></g><g class="ticktext"><g stroke-width="0.0" stroke="none" fill="rgb(5%, 5%, 5%)" fill-opacity="1.0" font-size="0.0382" text-anchor="end"><text x="-0.6603" y="0.3939" transform="rotate(-45.0, -0.6603, 0.3939)">row 1</text><text x="-0.5456" y="0.3939" transform="rotate(-45.0, -0.5456, 0.3939)">row 2</text><text x="-0.4309" y="0.3939" transform="rotate(-45.0, -0.4309, 0.3939)">row 3</text><text x="-0.3163" y="0.3939" transform="rotate(-45.0, -0.3163, 0.3939)">row 4</text><text x="-0.2016" y="0.3939" transform="rotate(-45.0, -0.2016, 0.3939)">row 5</text><text x="-0.0869" y="0.3939" transform="rotate(-45.0, -0.0869, 0.3939)">row 6</text><text x="0.0278" y="0.3939" transform="rotate(-45.0, 0.0278, 0.3939)">row 7</text><text x="0.1425" y="0.3939" transform="rotate(-45.0, 0.1425, 0.3939)">row 8</text><text x="0.2572" y="0.3939" transform="rotate(-45.0, 0.2572, 0.3939)">row 9</text><text x="0.3718" y="0.3939" transform="rotate(-45.0, 0.3718, 0.3939)">row 10</text></g></g></g><g class="axisbar"><g stroke-width="0" stroke="rgb(0%, 0%, 0%)" stroke-opacity="0" fill="rgb(5%, 5%, 5%)" fill-opacity="0.4"><rect width="1.1499" height="0.0031" x="-0.7192" y="0.3285"/></g></g></g><g class="legend"><g class="legendBorder"><g stroke-width="0.0025" stroke="rgb(5%, 5%, 5%)" stroke-opacity="1.0" fill="rgb(5%, 5%, 5%)" fill-opacity="0"><rect width="0.2581" height="0.1782" x="0.4880" y="-0.1371"/></g></g><g class="legendContent"><g stroke-width="0.0" stroke="none" fill="rgb(5%, 5%, 5%)" fill-opacity="1.0" font-size="0.0344" text-anchor="start"><text x="0.5072" y="0.0004">column 2</text></g><g stroke-width="0.0012" stroke="rgb(66%, 7%, 55%)" stroke-opacity="1.0" fill="rgb(66%, 7%, 55%)" fill-opacity="0.7"><rect width="0.0573" height="0.0588" x="0.6692" y="-0.0377"/></g><g stroke-width="0.0" stroke="none" fill="rgb(5%, 5%, 5%)" fill-opacity="1.0" font-size="0.0344" text-anchor="start"><text x="0.5072" y="-0.0789">column 1</text></g><g stroke-width="0.0012" stroke="rgb(2%, 29%, 48%)" stroke-opacity="1.0" fill="rgb(2%, 29%, 48%)" fill-opacity="0.7"><rect width="0.0573" height="0.0588" x="0.6692" y="-0.1171"/></g></g></g></g></svg>