<svg xmlns="http://www.w3.org/2000/svg" xmlns:xlink="http://www.w3.org/1999/xlink" width="451" height="300" viewBox="-0.7625 -0.5 1.5125 1.0057"><style>svg {
  color-scheme: light dark;
}
{
  .canvas g, .title g, .axisbar g, .ticktext g, .tickglyph g, .ticklines g, .legendContent g text {
    fill: rgb(5%, 5%, 5%);
  }
  .ticklines g, .tickglyph g, .legendBorder g {
    stroke: rgb(5%, 5%, 5%);
  }
  .legendBorder g {
    fill: rgb(94%, 94%, 94%);
  }
}
@media (prefers-color-scheme:dark) {
  .canvas g, .title g, .axisbar g, .ticktext g, .tickglyph g, .ticklines g, .legendContent g text {
    fill: rgb(94%, 94%, 94%);
  }
  .ticklines g, .tickglyph g, .legendBorder g {
    stroke: rgb(94%, 94%, 94%);
  }
  .legendBorder g {
    fill: rgb(5%, 5%, 5%);
  }
}
svg { font-family: system-ui,-apple-system,"Segoe UI",Roboto,"Helvetica Neue",Arial,"Noto Sans","Liberation Sans",sans-serif,"Apple Color Emoji","Segoe UI Emoji","Segoe UI Symbol","Noto Color Emoji";
}

ticktext { font-family: SFMono-Regular,Menlo,Monaco,Consolas,"Liberation Mono","Courier New",monospace;
}

</style><g class="chart"><g class="barchart"><g stroke-width="0.0050" stroke="rgb(2%, 29%, 48%)" stroke-opacity="1.0" fill="rgb(2%, 29%, 48%)" fill-opacity="0.7"><rect width="0.0505" height="0.0555" x="-0.7105" y="0.1149"/><rect width="0.0505" height="0.1110" x="-0.5984" y="0.0594"/><rect width="0.0505" height="0.1665" x="-0.4862" y="0.0039"/><rect width="0.0505" height="0.2775" x="-0.3741" y="-0.1070"/><rect width="0.0505" height="0.4439" x="-0.2620" y="-0.2735"/><rect width="0.0505" height="0" x="-0.1498" y="0.1704"/><rect width="0.0505" height="0.1110" x="-0.0377" y="0.1704"/><rect width="0.0505" height="0.6104" x="0.0745" y="-0.4400"/><rect width="0.0505" height="0.1110" x="0.1866" y="0.0594"/><rect width="0.0505" height="0.0555" x="0.2988" y="0.1149"/></g><g stroke-width="0.0050" stroke="rgb(66%, 7%, 55%)" stroke-opacity="1.0" fill="rgb(66%, 7%, 55%)" fill-opacity="0.7"><rect width="0.0505" height="0.0555" x="-0.6601" y="0.1149"/><rect width="0.0505" height="0.1110" x="-0.5479" y="0.0594"/><rect width="0.0505" height="0.1665" x="-0.4358" y="0.0039"/><rect width="0.0505" height="0.2220" x="-0.3236" y="-0.0515"/><rect width="0.0505" height="0.2775" x="-0.2115" y="-0.1070"/><rect width="0.0505" height="0.3330" x="-0.0993" y="-0.1625"/><rect width="0.0505" height="0.3885" x="0.0128" y="-0.2180"/><rect width="0.0505" height="0.4439" x="0.1249" y="-0.2735"/><rect width="0.0505" height="0.4994" x="0.2371" y="-0.3290"/><rect width="0.0505" height="0.5549" x="0.3492" y="-0.3845"/></g><g stroke-width="0.0" stroke="none" fill="rgb(2%, 29%, 48%)" fill-opacity="1.0" font-size="0.0268" text-anchor="middle"><text x="-0.6853" y="0.0933">1.0</text><text x="-0.5731" y="0.0378">2.0</text><text x="-0.4610" y="-0.0177">3.0</text><text x="-0.3489" y="-0.1287">5.0</text><text x="-0.2367" y="-0.2952">8.0</text><text x="-0.1246" y="0.1488">0.0</text><text x="-0.0124" y="0.3175">-2.0</text><text x="0.0997" y="-0.4616">11</text><text x="0.2118" y="0.0378">2.0</text><text x="0.3240" y="0.0933">1.0</text></g><g stroke-width="0.0" stroke="none" fill="rgb(66%, 7%, 55%)" fill-opacity="1.0" font-size="0.0268" text-anchor="middle"><text x="-0.6348" y="0.0933">1.0</text><text x="-0.5227" y="0.0378">2.0</text><text x="-0.4105" y="-0.0177">3.0</text><text x="-0.2984" y="-0.0732">4.0</text><text x="-0.1863" y="-0.1287">5.0</text><text x="-0.0741" y="-0.1842">6.0</text><text x="0.0380" y="-0.2397">7.0</text><text x="0.1502" y="-0.2952">8.0</text><text x="0.2623" y="-0.3507">9.0</text><text x="0.3745" y="-0.4062">10</text></g></g></g><g class="hud"><g class="axis"><g class="axisbar"><g stroke-width="0" stroke="rgb(0%, 0%, 0%)" stroke-opacity="0" fill="rgb(5%, 5%, 5%)" fill-opacity="0.4"><rect width="1.1132" height="0.0032" x="-0.7120" y="0.3255"/></g></g><g class="ticks"><g class="tickglyph"><g stroke-width="0.0032" stroke="rgb(5%, 5%, 5%)" stroke-opacity="0.4" fill="rgb(5%, 5%, 5%)" fill-opacity="0.4"><polyline points="-0.6550,0.3512
-0.6550,0.3271"/><polyline points="-0.5440,0.3512
-0.5440,0.3271"/><polyline points="-0.4330,0.3512
-0.4330,0.3271"/><polyline points="-0.3219,0.3512
-0.3219,0.3271"/><polyline points="-0.2109,0.3512
-0.2109,0.3271"/><polyline points="-0.0999,0.3512
-0.0999,0.3271"/><polyline points="0.0111,0.3512
0.0111,0.3271"/><polyline points="0.1221,0.3512
0.1221,0.3271"/><polyline points="0.2332,0.3512
0.2332,0.3271"/><polyline points="0.3442,0.3512
0.3442,0.3271"/></g></g><g class="ticktext"><g stroke-width="0.0" stroke="none" fill="rgb(5%, 5%, 5%)" fill-opacity="1.0" font-size="0.0400" text-anchor="end"><text x="-0.6550" y="0.3954" transform="rotate(-45.0, -0.6550, 0.3954)">row 1</text><text x="-0.5440" y="0.3954" transform="rotate(-45.0, -0.5440, 0.3954)">row 2</text><text x="-0.4330" y="0.3954" transform="rotate(-45.0, -0.4330, 0.3954)">row 3</text><text x="-0.3219" y="0.3954" transform="rotate(-45.0, -0.3219, 0.3954)">row 4</text><text x="-0.2109" y="0.3954" transform="rotate(-45.0, -0.2109, 0.3954)">row 5</text><text x="-0.0999" y="0.3954" transform="rotate(-45.0, -0.0999, 0.3954)">row 6</text><text x="0.0111" y="0.3954" transform="rotate(-45.0, 0.0111, 0.3954)">row 7</text><text x="0.1221" y="0.3954" transform="rotate(-45.0, 0.1221, 0.3954)">row 8</text><text x="0.2332" y="0.3954" transform="rotate(-45.0, 0.2332, 0.3954)">row 9</text><text x="0.3442" y="0.3954" transform="rotate(-45.0, 0.3442, 0.3954)">row 10</text></g></g></g></g><g class="legend"><g class="padding"></g><g class="padding"></g><g class="frame"><g stroke-width="0.0009" stroke="rgb(5%, 5%, 5%)" stroke-opacity="1.0" fill="rgb(5%, 5%, 5%)" fill-opacity="0"><rect width="0.2739" height="0.1827" x="0.4574" y="-0.1320"/></g></g><g class="legendContent"><g stroke-width="0.0" stroke="none" fill="rgb(5%, 5%, 5%)" fill-opacity="1.0" font-size="0.0298" text-anchor="start"><text x="0.4761" y="0.0080">column 2</text></g><g stroke-width="0.0009" stroke="rgb(66%, 7%, 55%)" stroke-opacity="1.0" fill="rgb(66%, 7%, 55%)" fill-opacity="0.7"><rect width="0.0559" height="0.0602" x="0.6564" y="-0.0301"/></g><g stroke-width="0.0" stroke="none" fill="rgb(5%, 5%, 5%)" fill-opacity="1.0" font-size="0.0298" text-anchor="start"><text x="0.4761" y="-0.0733">column 1</text></g><g stroke-width="0.0009" stroke="rgb(2%, 29%, 48%)" stroke-opacity="1.0" fill="rgb(2%, 29%, 48%)" fill-opacity="0.7"><rect width="0.0559" height="0.0602" x="0.6564" y="-0.1114"/></g></g></g><g class="frame"><g stroke-width="0" stroke="rgb(0%, 0%, 0%)" stroke-opacity="0" fill="rgb(100%, 100%, 100%)" fill-opacity="0.02"><rect width="1.5" height="1.0" x="-0.75" y="-0.5"/></g></g></g></svg>