
<svg xmlns="http://www.w3.org/2000/svg" height="300.0" viewBox="-0.8200000000000001 -0.7517917136414881 1.5899999999999999 1.396419283825617" width="450.0" xmlns:xlink="http://www.w3.org/1999/xlink">
  <g transform="translate(-5.003750000000007e-2, -0.57175)" fill-opacity="1.0" font-size="0.12" stroke="none" stroke-width="0.0" fill="#000000" text-anchor="middle">
    <text transform="rotate(0.0, -0.18907236162754626, -4.904171364148813e-2)" x="-0.18907236162754626" y="-4.904171364148813e-2">Default Bar Chart
    </text>
  </g>
  <g stroke-opacity="0.0" fill-opacity="3.0e-2" stroke="#000000" stroke-width="0.0" fill="#666666">
    <rect height="0.9019165727170235" width="1.0418740767838042" x="-0.7100094000194483" y="-0.4999999999999999"/>
  </g>
  <g stroke-opacity="0.3" stroke="#a8e5ee" stroke-width="5.0e-3" fill="none">
    <polyline points="-0.7134823136087276,0.4019165727170237
0.3353375903536353,0.4019165727170237"/>
  </g>
  <g stroke-opacity="0.3" stroke="#a8e5ee" stroke-width="5.0e-3" fill="none">
    <polyline points="-0.7134823136087276,0.28917700112739575
0.3353375903536353,0.28917700112739575"/>
  </g>
  <g stroke-opacity="0.3" stroke="#a8e5ee" stroke-width="5.0e-3" fill="none">
    <polyline points="-0.7134823136087276,0.1764374295377678
0.3353375903536353,0.1764374295377678"/>
  </g>
  <g stroke-opacity="0.3" stroke="#a8e5ee" stroke-width="5.0e-3" fill="none">
    <polyline points="-0.7134823136087276,6.369785794813987e-2
0.3353375903536353,6.369785794813987e-2"/>
  </g>
  <g stroke-opacity="0.3" stroke="#a8e5ee" stroke-width="5.0e-3" fill="none">
    <polyline points="-0.7134823136087276,-4.904171364148813e-2
0.3353375903536353,-4.904171364148813e-2"/>
  </g>
  <g stroke-opacity="0.3" stroke="#a8e5ee" stroke-width="5.0e-3" fill="none">
    <polyline points="-0.7134823136087276,-0.161781285231116
0.3353375903536353,-0.161781285231116"/>
  </g>
  <g stroke-opacity="0.3" stroke="#a8e5ee" stroke-width="5.0e-3" fill="none">
    <polyline points="-0.7134823136087276,-0.274520856820744
0.3353375903536353,-0.274520856820744"/>
  </g>
  <g stroke-opacity="0.3" stroke="#a8e5ee" stroke-width="5.0e-3" fill="none">
    <polyline points="-0.7134823136087276,-0.3872604284103719
0.3353375903536353,-0.3872604284103719"/>
  </g>
  <g stroke-opacity="0.3" stroke="#a8e5ee" stroke-width="5.0e-3" fill="none">
    <polyline points="-0.7134823136087276,-0.4999999999999999
0.3353375903536353,-0.4999999999999999"/>
  </g>
  <g fill-opacity="1.0" font-size="5.0e-2" stroke="none" stroke-width="0.0" fill="#666666" text-anchor="end">
    <text x="-0.75" y="0.41499436302142045">-4
    </text>
  </g>
  <g fill-opacity="1.0" font-size="5.0e-2" stroke="none" stroke-width="0.0" fill="#666666" text-anchor="end">
    <text x="-0.75" y="0.30225479143179257">-2
    </text>
  </g>
  <g fill-opacity="1.0" font-size="5.0e-2" stroke="none" stroke-width="0.0" fill="#666666" text-anchor="end">
    <text x="-0.75" y="0.18951521984216463">0
    </text>
  </g>
  <g fill-opacity="1.0" font-size="5.0e-2" stroke="none" stroke-width="0.0" fill="#666666" text-anchor="end">
    <text x="-0.75" y="7.677564825253669e-2">2
    </text>
  </g>
  <g fill-opacity="1.0" font-size="5.0e-2" stroke="none" stroke-width="0.0" fill="#666666" text-anchor="end">
    <text x="-0.75" y="-3.596392333709131e-2">4
    </text>
  </g>
  <g fill-opacity="1.0" font-size="5.0e-2" stroke="none" stroke-width="0.0" fill="#666666" text-anchor="end">
    <text x="-0.75" y="-0.1487034949267192">6
    </text>
  </g>
  <g fill-opacity="1.0" font-size="5.0e-2" stroke="none" stroke-width="0.0" fill="#666666" text-anchor="end">
    <text x="-0.75" y="-0.2614430665163471">8
    </text>
  </g>
  <g fill-opacity="1.0" font-size="5.0e-2" stroke="none" stroke-width="0.0" fill="#666666" text-anchor="end">
    <text x="-0.75" y="-0.37418263810597496">10
    </text>
  </g>
  <g fill-opacity="1.0" font-size="5.0e-2" stroke="none" stroke-width="0.0" fill="#666666" text-anchor="end">
    <text x="-0.75" y="-0.48692220969560296">12
    </text>
  </g>
  <g stroke-opacity="0.4" fill-opacity="1.0" stroke="#2c429d" stroke-width="5.0e-3" fill="#5f0391">
    <g transform="rotate(-90.0, -0.7273739679658451, 0.4019165727170237)">
      <polyline points="-0.7273739679658451,0.4169165727170237
-0.7273739679658451,0.3869165727170237"/>
    </g>
    <g transform="rotate(-90.0, -0.7273739679658451, 0.28917700112739575)">
      <polyline points="-0.7273739679658451,0.30417700112739576
-0.7273739679658451,0.27417700112739574"/>
    </g>
    <g transform="rotate(-90.0, -0.7273739679658451, 0.1764374295377678)">
      <polyline points="-0.7273739679658451,0.19143742953776782
-0.7273739679658451,0.1614374295377678"/>
    </g>
    <g transform="rotate(-90.0, -0.7273739679658451, 6.369785794813987e-2)">
      <polyline points="-0.7273739679658451,7.869785794813987e-2
-0.7273739679658451,4.869785794813987e-2"/>
    </g>
    <g transform="rotate(-90.0, -0.7273739679658451, -4.904171364148813e-2)">
      <polyline points="-0.7273739679658451,-3.404171364148813e-2
-0.7273739679658451,-6.404171364148813e-2"/>
    </g>
    <g transform="rotate(-90.0, -0.7273739679658451, -0.161781285231116)">
      <polyline points="-0.7273739679658451,-0.146781285231116
-0.7273739679658451,-0.17678128523111603"/>
    </g>
    <g transform="rotate(-90.0, -0.7273739679658451, -0.274520856820744)">
      <polyline points="-0.7273739679658451,-0.259520856820744
-0.7273739679658451,-0.289520856820744"/>
    </g>
    <g transform="rotate(-90.0, -0.7273739679658451, -0.3872604284103719)">
      <polyline points="-0.7273739679658451,-0.3722604284103719
-0.7273739679658451,-0.4022604284103719"/>
    </g>
    <g transform="rotate(-90.0, -0.7273739679658451, -0.4999999999999999)">
      <polyline points="-0.7273739679658451,-0.4849999999999999
-0.7273739679658451,-0.5149999999999999"/>
    </g>
  </g>
  <g stroke-opacity="0.0" fill-opacity="0.5" stroke="#666666" stroke-width="0.0" fill="#5f0391">
    <rect height="0.9019165727170235" width="3.4729135892793694e-3" x="-0.7204281407872863" y="-0.4999999999999999"/>
  </g>
  <g fill-opacity="1.0" font-size="5.0e-2" stroke="none" stroke-width="0.0" fill="#666666" text-anchor="end">
    <text transform="rotate(-45.0, -0.6579156961802581, 0.5)" x="-0.6579156961802581" y="0.5">row 1
    </text>
  </g>
  <g fill-opacity="1.0" font-size="5.0e-2" stroke="none" stroke-width="0.0" fill="#666666" text-anchor="end">
    <text transform="rotate(-45.0, -0.5537282885018777, 0.5)" x="-0.5537282885018777" y="0.5">row 2
    </text>
  </g>
  <g fill-opacity="1.0" font-size="5.0e-2" stroke="none" stroke-width="0.0" fill="#666666" text-anchor="end">
    <text transform="rotate(-45.0, -0.4495408808234973, 0.5)" x="-0.4495408808234973" y="0.5">row 3
    </text>
  </g>
  <g fill-opacity="1.0" font-size="5.0e-2" stroke="none" stroke-width="0.0" fill="#666666" text-anchor="end">
    <text transform="rotate(-45.0, -0.34535347314511694, 0.5)" x="-0.34535347314511694" y="0.5">row 4
    </text>
  </g>
  <g fill-opacity="1.0" font-size="5.0e-2" stroke="none" stroke-width="0.0" fill="#666666" text-anchor="end">
    <text transform="rotate(-45.0, -0.24116606546673647, 0.5)" x="-0.24116606546673647" y="0.5">row 5
    </text>
  </g>
  <g fill-opacity="1.0" font-size="5.0e-2" stroke="none" stroke-width="0.0" fill="#666666" text-anchor="end">
    <text transform="rotate(-45.0, -0.13697865778835594, 0.5)" x="-0.13697865778835594" y="0.5">row 6
    </text>
  </g>
  <g fill-opacity="1.0" font-size="5.0e-2" stroke="none" stroke-width="0.0" fill="#666666" text-anchor="end">
    <text transform="rotate(-45.0, -3.2791250109975634e-2, 0.5)" x="-3.2791250109975634e-2" y="0.5">row 7
    </text>
  </g>
  <g fill-opacity="1.0" font-size="5.0e-2" stroke="none" stroke-width="0.0" fill="#666666" text-anchor="end">
    <text transform="rotate(-45.0, 7.139615756840478e-2, 0.5)" x="7.139615756840478e-2" y="0.5">row 8
    </text>
  </g>
  <g fill-opacity="1.0" font-size="5.0e-2" stroke="none" stroke-width="0.0" fill="#666666" text-anchor="end">
    <text transform="rotate(-45.0, 0.1755835652467852, 0.5)" x="0.1755835652467852" y="0.5">row 9
    </text>
  </g>
  <g fill-opacity="1.0" font-size="5.0e-2" stroke="none" stroke-width="0.0" fill="#666666" text-anchor="end">
    <text transform="rotate(-45.0, 0.2797709729251654, 0.5)" x="0.2797709729251654" y="0.5">row 10
    </text>
  </g>
  <g stroke-opacity="0.4" fill-opacity="1.0" stroke="#2c429d" stroke-width="5.0e-3" fill="#5f0391">
    <polyline points="-0.6579156961802581,0.4394644870349493
-0.6579156961802581,0.40946448703494925"/>
    <polyline points="-0.5537282885018777,0.4394644870349493
-0.5537282885018777,0.40946448703494925"/>
    <polyline points="-0.4495408808234973,0.4394644870349493
-0.4495408808234973,0.40946448703494925"/>
    <polyline points="-0.34535347314511694,0.4394644870349493
-0.34535347314511694,0.40946448703494925"/>
    <polyline points="-0.24116606546673647,0.4394644870349493
-0.24116606546673647,0.40946448703494925"/>
    <polyline points="-0.13697865778835594,0.4394644870349493
-0.13697865778835594,0.40946448703494925"/>
    <polyline points="-3.2791250109975634e-2,0.4394644870349493
-3.2791250109975634e-2,0.40946448703494925"/>
    <polyline points="7.139615756840478e-2,0.4394644870349493
7.139615756840478e-2,0.40946448703494925"/>
    <polyline points="0.1755835652467852,0.4394644870349493
0.1755835652467852,0.40946448703494925"/>
    <polyline points="0.2797709729251654,0.4394644870349493
0.2797709729251654,0.40946448703494925"/>
  </g>
  <g stroke-opacity="0.0" fill-opacity="0.5" stroke="#666666" stroke-width="0.0" fill="#5f0391">
    <rect height="4.509582863585104e-3" width="1.0418740767838042" x="-0.7100094000194483" y="0.41093573844419395"/>
  </g>
  <g stroke-opacity="1.0" fill-opacity="0.5" stroke="#666666" stroke-width="2.0e-3" fill="#31331c">
    <rect height="5.6369785794814e-2" width="4.16749630713521e-2" x="-0.6995906592516102" y="0.12006764374295381"/>
    <rect height="0.11273957158962794" width="4.16749630713521e-2" x="-0.5954032515732298" y="6.369785794813987e-2"/>
    <rect height="0.16910935738444194" width="4.1674963071352156e-2" x="-0.4912158438948495" y="7.328072153325871e-3"/>
    <rect height="0.2818489289740698" width="4.16749630713521e-2" x="-0.3870284362164691" y="-0.10541149943630201"/>
    <rect height="0.4509582863585118" width="4.167496307135232e-2" x="-0.2828410285380888" y="-0.274520856820744"/>
    <rect height="0.0" width="4.16749630713521e-2" x="-0.17865362085970826" y="0.1764374295377678"/>
    <rect height="0.11273957158962794" width="4.167496307135221e-2" x="-7.446621318132784e-2" y="0.1764374295377678"/>
    <rect height="0.6200676437429538" width="4.167496307135188e-2" x="2.972119449705246e-2" y="-0.443630214205186"/>
    <rect height="0.11273957158962794" width="4.167496307135232e-2" x="0.13390860217543288" y="6.369785794813987e-2"/>
    <rect height="5.6369785794814e-2" width="4.16749630713521e-2" x="0.2380960098538133" y="0.12006764374295381"/>
  </g>
  <g stroke-opacity="1.0" fill-opacity="0.5" stroke="#666666" stroke-width="2.0e-3" fill="#454e56">
    <rect height="5.6369785794814e-2" width="4.167496307135221e-2" x="-0.6579156961802581" y="0.12006764374295381"/>
    <rect height="0.11273957158962794" width="4.167496307135221e-2" x="-0.5537282885018777" y="6.369785794813987e-2"/>
    <rect height="0.16910935738444194" width="4.1674963071352156e-2" x="-0.44954088082349736" y="7.328072153325871e-3"/>
    <rect height="0.22547914317925594" width="4.1674963071352156e-2" x="-0.345353473145117" y="-4.904171364148813e-2"/>
    <rect height="0.2818489289740698" width="4.16749630713521e-2" x="-0.24116606546673647" y="-0.10541149943630201"/>
    <rect height="0.3382187147688838" width="4.16749630713521e-2" x="-0.13697865778835616" y="-0.161781285231116"/>
    <rect height="0.3945885005636978" width="4.167496307135188e-2" x="-3.2791250109975634e-2" y="-0.21815107102593"/>
    <rect height="0.4509582863585118" width="4.167496307135232e-2" x="7.139615756840434e-2" y="-0.274520856820744"/>
    <rect height="0.5073280721533258" width="4.167496307135199e-2" x="0.1755835652467852" y="-0.3308906426155579"/>
    <rect height="0.5636978579481398" width="4.167496307135221e-2" x="0.2797709729251654" y="-0.3872604284103719"/>
  </g>
  <g fill-opacity="0.5" font-size="4.0e-2" stroke="none" stroke-width="0.0" fill="#31331c" text-anchor="middle">
    <text x="-0.6787531777159342" y="9.07553551296506e-2">1
    </text>
    <text x="-0.5745657700375537" y="3.438556933483661e-2">2
    </text>
    <text x="-0.47037836235917346" y="-2.198421645997739e-2">3
    </text>
    <text x="-0.366190954680793" y="-0.13472378804960528">5
    </text>
    <text x="-0.2620035470024127" y="-0.30383314543404716">8
    </text>
    <text x="-0.15781613932403216" y="0.14712514092446455">0
    </text>
    <text x="-5.362873164565185e-2" y="0.318489289740699">-2
    </text>
    <text x="5.055867603272857e-2" y="-0.47294250281848904">11
    </text>
    <text x="0.15474608371110876" y="3.438556933483661e-2">2
    </text>
    <text x="0.2589334913894894" y="9.07553551296506e-2">1
    </text>
  </g>
  <g fill-opacity="0.5" font-size="4.0e-2" stroke="none" stroke-width="0.0" fill="#454e56" text-anchor="middle">
    <text x="-0.637078214644582" y="9.07553551296506e-2">1
    </text>
    <text x="-0.5328908069662016" y="3.438556933483661e-2">2
    </text>
    <text x="-0.42870339928782125" y="-2.198421645997739e-2">3
    </text>
    <text x="-0.3245159916094409" y="-7.835400225479128e-2">4
    </text>
    <text x="-0.22032858393106047" y="-0.13472378804960528">5
    </text>
    <text x="-0.11614117625268017" y="-0.19109357384441927">6
    </text>
    <text x="-1.1953768574299639e-2" y="-0.24746335963923327">7
    </text>
    <text x="9.223363910408056e-2" y="-0.30383314543404716">8
    </text>
    <text x="0.19642104678246097" y="-0.36020293122886116">9
    </text>
    <text x="0.3006084544608416" y="-0.41657271702367504">10
    </text>
  </g>
  <g stroke-opacity="0.5" fill-opacity="1.0" stroke="#3764a0" stroke-width="6.600000000000001e-3" fill="#ffffff">
    <rect height="0.2142953776775648" width="0.25694698481642186" x="0.4678396625254102" y="-0.1857417947309451"/>
  </g>
  <g fill-opacity="1.0" font-size="5.280000000000001e-2" stroke="none" stroke-width="0.0" fill="#666666" text-anchor="start">
    <text x="0.4907608922146538" y="-2.6210791348758034e-2">column 2
    </text>
  </g>
  <g stroke-opacity="1.0" fill-opacity="0.5" stroke="#666666" stroke-width="6.6e-4" fill="#454e56">
    <rect height="3.571589627959404e-2" width="2.750547562709249e-2" x="0.6741307297286032" y="-6.192668762835207e-2"/>
  </g>
  <g fill-opacity="1.0" font-size="5.280000000000001e-2" stroke="none" stroke-width="0.0" fill="#666666" text-anchor="start">
    <text x="0.4907608922146538" y="-0.1119289424197839">column 1
    </text>
  </g>
  <g stroke-opacity="1.0" fill-opacity="0.5" stroke="#666666" stroke-width="6.6e-4" fill="#31331c">
    <rect height="3.571589627959415e-2" width="2.750547562709249e-2" x="0.6741307297286032" y="-0.14764483869937806"/>
  </g>
</svg>