<svg viewBox="-0.8874765000000002 -0.6964049999999999 1.6040265000000002 1.341555" xmlns="http://www.w3.org/2000/svg" xmlns:xlink="http://www.w3.org/1999/xlink" version="1.1" width="800.0" height="600.0"><g stroke-width="0.0" stroke="none" fill="#000000" transform="translate(-8.378750000000007e-2, -0.57175)" fill-opacity="1.0" font-size="0.12" text-anchor="middle"><text transform="rotate(0.0, 0.0, -0.0)" x="0.0" y="-0.0">default</text></g><g stroke-width="0.0" stroke="#000000" fill="#666666" fill-opacity="3.0e-2" stroke-opacity="0.0"><rect width="1.33" height="1.0" x="-0.665" y="-0.5" /></g><g stroke-width="5.0e-3" stroke="#A8E5EE" fill="none" stroke-opacity="0.3"><polyline points="-0.67,0.5 0.67,0.5" /></g><g stroke-width="5.0e-3" stroke="#A8E5EE" fill="none" stroke-opacity="0.3"><polyline points="-0.67,0.35714285714285715 0.67,0.35714285714285715" /></g><g stroke-width="5.0e-3" stroke="#A8E5EE" fill="none" stroke-opacity="0.3"><polyline points="-0.67,0.2142857142857143 0.67,0.2142857142857143" /></g><g stroke-width="5.0e-3" stroke="#A8E5EE" fill="none" stroke-opacity="0.3"><polyline points="-0.67,7.14285714285714e-2 0.67,7.14285714285714e-2" /></g><g stroke-width="5.0e-3" stroke="#A8E5EE" fill="none" stroke-opacity="0.3"><polyline points="-0.67,-7.14285714285714e-2 0.67,-7.14285714285714e-2" /></g><g stroke-width="5.0e-3" stroke="#A8E5EE" fill="none" stroke-opacity="0.3"><polyline points="-0.67,-0.2142857142857142 0.67,-0.2142857142857142" /></g><g stroke-width="5.0e-3" stroke="#A8E5EE" fill="none" stroke-opacity="0.3"><polyline points="-0.67,-0.3571428571428572 0.67,-0.3571428571428572" /></g><g stroke-width="5.0e-3" stroke="#A8E5EE" fill="none" stroke-opacity="0.3"><polyline points="-0.67,-0.5 0.67,-0.5" /></g><g stroke-width="0.0" stroke="none" fill="#666666" fill-opacity="1.0" font-size="5.0e-2" text-anchor="end"><text x="-0.7700750000000002" y="0.5145">-0.2</text></g><g stroke-width="0.0" stroke="none" fill="#666666" fill-opacity="1.0" font-size="5.0e-2" text-anchor="end"><text x="-0.7700750000000002" y="0.37164285714285716">0.0</text></g><g stroke-width="0.0" stroke="none" fill="#666666" fill-opacity="1.0" font-size="5.0e-2" text-anchor="end"><text x="-0.7700750000000002" y="0.22878571428571431">0.2</text></g><g stroke-width="0.0" stroke="none" fill="#666666" fill-opacity="1.0" font-size="5.0e-2" text-anchor="end"><text x="-0.7700750000000002" y="8.59285714285714e-2">0.4</text></g><g stroke-width="0.0" stroke="none" fill="#666666" fill-opacity="1.0" font-size="5.0e-2" text-anchor="end"><text x="-0.7700750000000002" y="-5.69285714285714e-2">0.6</text></g><g stroke-width="0.0" stroke="none" fill="#666666" fill-opacity="1.0" font-size="5.0e-2" text-anchor="end"><text x="-0.7700750000000002" y="-0.19978571428571418">0.8</text></g><g stroke-width="0.0" stroke="none" fill="#666666" fill-opacity="1.0" font-size="5.0e-2" text-anchor="end"><text x="-0.7700750000000002" y="-0.3426428571428572">1.0</text></g><g stroke-width="0.0" stroke="none" fill="#666666" fill-opacity="1.0" font-size="5.0e-2" text-anchor="end"><text x="-0.7700750000000002" y="-0.4855">1.2</text></g><g stroke-width="0.0" stroke="#2C429D" fill="#5F0391" fill-opacity="1.0" stroke-opacity="0.4"><line stroke-width="5.0e-3" transform="rotate(-90.0, -0.7400000000000001, 0.5)" x1="-0.7400000000000001" y1="0.515" x2="-0.7400000000000001" y2="0.485" /><line stroke-width="5.0e-3" transform="rotate(-90.0, -0.7400000000000001, 0.35714285714285715)" x1="-0.7400000000000001" y1="0.37214285714285716" x2="-0.7400000000000001" y2="0.34214285714285714" /><line stroke-width="5.0e-3" transform="rotate(-90.0, -0.7400000000000001, 0.2142857142857143)" x1="-0.7400000000000001" y1="0.22928571428571431" x2="-0.7400000000000001" y2="0.1992857142857143" /><line stroke-width="5.0e-3" transform="rotate(-90.0, -0.7400000000000001, 7.14285714285714e-2)" x1="-0.7400000000000001" y1="8.64285714285714e-2" x2="-0.7400000000000001" y2="5.64285714285714e-2" /><line stroke-width="5.0e-3" transform="rotate(-90.0, -0.7400000000000001, -7.14285714285714e-2)" x1="-0.7400000000000001" y1="-5.64285714285714e-2" x2="-0.7400000000000001" y2="-8.64285714285714e-2" /><line stroke-width="5.0e-3" transform="rotate(-90.0, -0.7400000000000001, -0.2142857142857142)" x1="-0.7400000000000001" y1="-0.19928571428571418" x2="-0.7400000000000001" y2="-0.2292857142857142" /><line stroke-width="5.0e-3" transform="rotate(-90.0, -0.7400000000000001, -0.3571428571428572)" x1="-0.7400000000000001" y1="-0.3421428571428572" x2="-0.7400000000000001" y2="-0.3721428571428572" /><line stroke-width="5.0e-3" transform="rotate(-90.0, -0.7400000000000001, -0.5)" x1="-0.7400000000000001" y1="-0.485" x2="-0.7400000000000001" y2="-0.515" /></g><g stroke-width="0.0" stroke="#666666" fill="#5F0391" fill-opacity="0.5" stroke-opacity="0.0"><rect width="5.0000000000000044e-3" height="1.0" x="-0.7300000000000001" y="-0.5" /></g><g stroke-width="5.0e-3" stroke="#A8E5EE" fill="none" stroke-opacity="0.3"><polyline points="-0.665,0.505 -0.665,-0.505" /></g><g stroke-width="5.0e-3" stroke="#A8E5EE" fill="none" stroke-opacity="0.3"><polyline points="-0.47500000000000003,0.505 -0.47500000000000003,-0.505" /></g><g stroke-width="5.0e-3" stroke="#A8E5EE" fill="none" stroke-opacity="0.3"><polyline points="-0.28500000000000003,0.505 -0.28500000000000003,-0.505" /></g><g stroke-width="5.0e-3" stroke="#A8E5EE" fill="none" stroke-opacity="0.3"><polyline points="-9.499999999999997e-2,0.505 -9.499999999999997e-2,-0.505" /></g><g stroke-width="5.0e-3" stroke="#A8E5EE" fill="none" stroke-opacity="0.3"><polyline points="9.499999999999997e-2,0.505 9.499999999999997e-2,-0.505" /></g><g stroke-width="5.0e-3" stroke="#A8E5EE" fill="none" stroke-opacity="0.3"><polyline points="0.2849999999999999,0.505 0.2849999999999999,-0.505" /></g><g stroke-width="5.0e-3" stroke="#A8E5EE" fill="none" stroke-opacity="0.3"><polyline points="0.4750000000000001,0.505 0.4750000000000001,-0.505" /></g><g stroke-width="5.0e-3" stroke="#A8E5EE" fill="none" stroke-opacity="0.3"><polyline points="0.665,0.505 0.665,-0.505" /></g><g stroke-width="0.0" stroke="none" fill="#666666" fill-opacity="1.0" font-size="5.0e-2" text-anchor="middle"><text x="-0.665" y="0.6062500000000001">-0.2</text></g><g stroke-width="0.0" stroke="none" fill="#666666" fill-opacity="1.0" font-size="5.0e-2" text-anchor="middle"><text x="-0.47500000000000003" y="0.6062500000000001">0.0</text></g><g stroke-width="0.0" stroke="none" fill="#666666" fill-opacity="1.0" font-size="5.0e-2" text-anchor="middle"><text x="-0.28500000000000003" y="0.6062500000000001">0.2</text></g><g stroke-width="0.0" stroke="none" fill="#666666" fill-opacity="1.0" font-size="5.0e-2" text-anchor="middle"><text x="-9.499999999999997e-2" y="0.6062500000000001">0.4</text></g><g stroke-width="0.0" stroke="none" fill="#666666" fill-opacity="1.0" font-size="5.0e-2" text-anchor="middle"><text x="9.499999999999997e-2" y="0.6062500000000001">0.6</text></g><g stroke-width="0.0" stroke="none" fill="#666666" fill-opacity="1.0" font-size="5.0e-2" text-anchor="middle"><text x="0.2849999999999999" y="0.6062500000000001">0.8</text></g><g stroke-width="0.0" stroke="none" fill="#666666" fill-opacity="1.0" font-size="5.0e-2" text-anchor="middle"><text x="0.4750000000000001" y="0.6062500000000001">1.0</text></g><g stroke-width="0.0" stroke="none" fill="#666666" fill-opacity="1.0" font-size="5.0e-2" text-anchor="middle"><text x="0.665" y="0.6062500000000001">1.2</text></g><g stroke-width="0.0" stroke="#2C429D" fill="#5F0391" fill-opacity="1.0" stroke-opacity="0.4"><line stroke-width="5.0e-3" x1="-0.665" y1="0.54" x2="-0.665" y2="0.51" /><line stroke-width="5.0e-3" x1="-0.47500000000000003" y1="0.54" x2="-0.47500000000000003" y2="0.51" /><line stroke-width="5.0e-3" x1="-0.28500000000000003" y1="0.54" x2="-0.28500000000000003" y2="0.51" /><line stroke-width="5.0e-3" x1="-9.499999999999997e-2" y1="0.54" x2="-9.499999999999997e-2" y2="0.51" /><line stroke-width="5.0e-3" x1="9.499999999999997e-2" y1="0.54" x2="9.499999999999997e-2" y2="0.51" /><line stroke-width="5.0e-3" x1="0.2849999999999999" y1="0.54" x2="0.2849999999999999" y2="0.51" /><line stroke-width="5.0e-3" x1="0.4750000000000001" y1="0.54" x2="0.4750000000000001" y2="0.51" /><line stroke-width="5.0e-3" x1="0.665" y1="0.54" x2="0.665" y2="0.51" /></g><g stroke-width="0.0" stroke="#666666" fill="#5F0391" fill-opacity="0.5" stroke-opacity="0.0"><rect width="1.33" height="5.0000000000000044e-3" x="-0.665" y="0.51" /></g><g stroke-width="0.0" stroke="none" fill="#666666" fill-opacity="1.0" font-size="8.0e-2" text-anchor="middle"><text x="-0.47500000000000003" y="0.35714285714285715">text1</text><text x="0.47499999999999987" y="-0.357142857142857">text2</text></g><g stroke-width="5.0e-3" stroke="#666666" fill="#FF0000" fill-opacity="0.5" stroke-opacity="0.5"><rect width="0.19000000000000006" height="8.285714285714285e-2" x="-0.5700000000000001" y="0.30428571428571427" /></g><g stroke-width="5.0e-3" stroke="#666666" fill="#FF0000" fill-opacity="0.5" stroke-opacity="0.5"><rect width="0.18999999999999995" height="8.285714285714296e-2" x="0.3799999999999999" y="-0.4099999999999999" /></g><g /></svg>