<svg width="449.25978445507513" xmlns:xlink="http://www.w3.org/1999/xlink" xmlns="http://www.w3.org/2000/svg" viewBox="-0.7436732176957352 -0.4982811211153336 1.4928530792488863 0.9968751694921636" height="300.0"><style>svg {
  color-scheme: light dark;
}
{
  .canvas g, .title g, .axisbar g, .ticktext g, .tickglyph g, .ticklines g, .legendContent g text {
    fill: #0d0d0d;
  }
  .ticklines g, .tickglyph g, .legendBorder g {
    stroke: #0d0d0d;
  }
}
@media (prefers-color-scheme:dark) {
  .canvas g, .title g, .axisbar g, .ticktext g, .tickglyph g, .ticklines g, .legendContent g text {
    fill: #f0f0f0;
  }
  .ticklines g, .tickglyph g, .legendBorder g {
    stroke: #f0f0f0;
  }
}</style><g class="chart"><g class="blend"><g stroke-opacity="1.0" fill="none" stroke="#ff8000" stroke-width="5.0e-3"><polyline points="-0.6204205124124761,0.40099453800637236
0.7389843252705285,0.40099453800637236"/></g><g stroke-opacity="1.0" fill="none" stroke="#fb8001" stroke-width="5.0e-3"><polyline points="-0.606826464035646,0.3922439690487028
0.7253902768936983,0.40099453800637236"/></g><g stroke-opacity="1.0" fill="none" stroke="#f78102" stroke-width="5.0e-3"><polyline points="-0.593232415658816,0.3834934000910332
0.7117962285168685,0.40099453800637236"/></g><g stroke-opacity="1.0" fill="none" stroke="#f38103" stroke-width="5.0e-3"><polyline points="-0.5796383672819859,0.3747428311333637
0.6982021801400385,0.40099453800637236"/></g><g stroke-opacity="1.0" fill="none" stroke="#ef8203" stroke-width="5.0e-3"><polyline points="-0.5660443189051558,0.36599226217569414
0.6846081317632083,0.40099453800637236"/></g><g stroke-opacity="1.0" fill="none" stroke="#eb8304" stroke-width="5.0e-3"><polyline points="-0.5524502705283258,0.3572416932180246
0.6710140833863784,0.40099453800637236"/></g><g stroke-opacity="1.0" fill="none" stroke="#e78305" stroke-width="5.0e-3"><polyline points="-0.5388562221514959,0.34849112426035506
0.6574200350095484,0.40099453800637236"/></g><g stroke-opacity="1.0" fill="none" stroke="#e28406" stroke-width="5.0e-3"><polyline points="-0.5252621737746658,0.3397405553026855
0.6438259866327182,0.40099453800637236"/></g><g stroke-opacity="1.0" fill="none" stroke="#de8507" stroke-width="5.0e-3"><polyline points="-0.5116681253978357,0.330989986345016
0.6302319382558882,0.40099453800637236"/></g><g stroke-opacity="1.0" fill="none" stroke="#da8508" stroke-width="5.0e-3"><polyline points="-0.4980740770210057,0.3222394173873464
0.616637889879058,0.40099453800637236"/></g><g stroke-opacity="1.0" fill="none" stroke="#d68609" stroke-width="5.0e-3"><polyline points="-0.4844800286441756,0.31348884842967684
0.6030438415022282,0.40099453800637236"/></g><g stroke-opacity="1.0" fill="none" stroke="#d2870a" stroke-width="5.0e-3"><polyline points="-0.4708859802673455,0.30473827947200727
0.589449793125398,0.40099453800637236"/></g><g stroke-opacity="1.0" fill="none" stroke="#ce870a" stroke-width="5.0e-3"><polyline points="-0.45729193189051565,0.29598771051433775
0.575855744748568,0.40099453800637236"/></g><g stroke-opacity="1.0" fill="none" stroke="#ca880b" stroke-width="5.0e-3"><polyline points="-0.44369788351368544,0.28723714155666824
0.5622616963717378,0.40099453800637236"/></g><g stroke-opacity="1.0" fill="none" stroke="#c6890c" stroke-width="5.0e-3"><polyline points="-0.43010383513685546,0.27848657259899867
0.5486676479949081,0.40099453800637236"/></g><g stroke-opacity="1.0" fill="none" stroke="#c2890d" stroke-width="5.0e-3"><polyline points="-0.4165097867600254,0.2697360036413291
0.5350735996180779,0.40099453800637236"/></g><g stroke-opacity="1.0" fill="none" stroke="#be8a0e" stroke-width="5.0e-3"><polyline points="-0.4029157383831954,0.26098543468365953
0.5214795512412479,0.40099453800637236"/></g><g stroke-opacity="1.0" fill="none" stroke="#ba8b0f" stroke-width="5.0e-3"><polyline points="-0.3893216900063653,0.25223486572598997
0.5078855028644179,0.40099453800637236"/></g><g stroke-opacity="1.0" fill="none" stroke="#b68b10" stroke-width="5.0e-3"><polyline points="-0.37572764162953526,0.24348429676832045
0.4942914544875877,0.40099453800637236"/></g><g stroke-opacity="1.0" fill="none" stroke="#b18c10" stroke-width="5.0e-3"><polyline points="-0.36213359325270517,0.23473372781065088
0.48069740611075773,0.40099453800637236"/></g><g stroke-opacity="1.0" fill="none" stroke="#ad8d11" stroke-width="5.0e-3"><polyline points="-0.34853954487587513,0.22598315885298137
0.46710335773392775,0.40099453800637236"/></g><g stroke-opacity="1.0" fill="none" stroke="#a98d12" stroke-width="5.0e-3"><polyline points="-0.3349454964990451,0.21723258989531186
0.45350930935709755,0.40099453800637236"/></g><g stroke-opacity="1.0" fill="none" stroke="#a58e13" stroke-width="5.0e-3"><polyline points="-0.3213514481222151,0.2084820209376423
0.43991526098026734,0.40099453800637236"/></g><g stroke-opacity="1.0" fill="none" stroke="#a18f14" stroke-width="5.0e-3"><polyline points="-0.307757399745385,0.19973145197997272
0.4263212126034376,0.40099453800637236"/></g><g stroke-opacity="1.0" fill="none" stroke="#9d8f15" stroke-width="5.0e-3"><polyline points="-0.294163351368555,0.19098088302230315
0.4127271642266076,0.40099453800637236"/></g><g stroke-opacity="1.0" fill="none" stroke="#999016" stroke-width="5.0e-3"><polyline points="-0.2805693029917249,0.18223031406463364
0.3991331158497774,0.40099453800637236"/></g><g stroke-opacity="1.0" fill="none" stroke="#959117" stroke-width="5.0e-3"><polyline points="-0.2669752546148949,0.17347974510696407
0.3855390674729472,0.40099453800637236"/></g><g stroke-opacity="1.0" fill="none" stroke="#919117" stroke-width="5.0e-3"><polyline points="-0.2533812062380648,0.16472917614929455
0.3719450190961172,0.40099453800637236"/></g><g stroke-opacity="1.0" fill="none" stroke="#8d9218" stroke-width="5.0e-3"><polyline points="-0.23978715786123478,0.15597860719162498
0.35835097071928745,0.40099453800637236"/></g><g stroke-opacity="1.0" fill="none" stroke="#899319" stroke-width="5.0e-3"><polyline points="-0.2261931094844048,0.14722803823395547
0.34475692234245725,0.40099453800637236"/></g><g stroke-opacity="1.0" fill="none" stroke="#85931a" stroke-width="5.0e-3"><polyline points="-0.21259906110757476,0.1384774692762859
0.33116287396562727,0.40099453800637236"/></g><g stroke-opacity="1.0" fill="none" stroke="#81941b" stroke-width="5.0e-3"><polyline points="-0.19900501273074467,0.12972690031861633
0.3175688255887973,0.40099453800637236"/></g><g stroke-opacity="1.0" fill="none" stroke="#7c951c" stroke-width="5.0e-3"><polyline points="-0.18541096435391463,0.12097633136094676
0.3039747772119672,0.40099453800637236"/></g><g stroke-opacity="1.0" fill="none" stroke="#78951d" stroke-width="5.0e-3"><polyline points="-0.1718169159770846,0.1122257624032772
0.2903807288351371,0.40099453800637236"/></g><g stroke-opacity="1.0" fill="none" stroke="#74961d" stroke-width="5.0e-3"><polyline points="-0.1582228676002545,0.10347519344560768
0.276786680458307,0.40099453800637236"/></g><g stroke-opacity="1.0" fill="none" stroke="#70971e" stroke-width="5.0e-3"><polyline points="-0.1446288192234244,9.472462448793811e-2
0.2631926320814769,0.40099453800637236"/></g><g stroke-opacity="1.0" fill="none" stroke="#6c971f" stroke-width="5.0e-3"><polyline points="-0.13103477084659432,8.59740555302686e-2
0.24959858370464683,0.40099453800637236"/></g><g stroke-opacity="1.0" fill="none" stroke="#689820" stroke-width="5.0e-3"><polyline points="-0.11744072246976445,7.722348657259903e-2
0.23600453532781696,0.40099453800637236"/></g><g stroke-opacity="1.0" fill="none" stroke="#649921" stroke-width="5.0e-3"><polyline points="-0.10384667409293424,6.847291761492946e-2
0.22241048695098675,0.40099453800637236"/></g><g stroke-opacity="1.0" fill="none" stroke="#609922" stroke-width="5.0e-3"><polyline points="-9.025262571610437e-2,5.9722348657259894e-2
0.20881643857415677,0.40099453800637236"/></g><g stroke-opacity="1.0" fill="none" stroke="#5c9a23" stroke-width="5.0e-3"><polyline points="-7.665857733927417e-2,5.097177969959038e-2
0.19522239019732657,0.40099453800637236"/></g><g stroke-opacity="1.0" fill="none" stroke="#589b24" stroke-width="5.0e-3"><polyline points="-6.306452896244419e-2,4.222121074192081e-2
0.1816283418204967,0.40099453800637236"/></g><g stroke-opacity="1.0" fill="none" stroke="#549b24" stroke-width="5.0e-3"><polyline points="-4.9470480585614096e-2,3.34706417842513e-2
0.1680342934436666,0.40099453800637236"/></g><g stroke-opacity="1.0" fill="none" stroke="#509c25" stroke-width="5.0e-3"><polyline points="-3.5876432208784115e-2,2.472007282658173e-2
0.15444024506683673,0.40099453800637236"/></g><g stroke-opacity="1.0" fill="none" stroke="#4b9d26" stroke-width="5.0e-3"><polyline points="-2.2282383831954022e-2,1.596950386891216e-2
0.14084619669000653,0.40099453800637236"/></g><g stroke-opacity="1.0" fill="none" stroke="#479d27" stroke-width="5.0e-3"><polyline points="-8.68833545512393e-3,7.218934911242592e-3
0.12725214831317655,0.40099453800637236"/></g><g stroke-opacity="1.0" fill="none" stroke="#439e28" stroke-width="5.0e-3"><polyline points="4.905712921706051e-3,-1.5316340464269773e-3
0.11365809993634646,0.40099453800637236"/></g><g stroke-opacity="1.0" fill="none" stroke="#3f9f29" stroke-width="5.0e-3"><polyline points="1.8499761298536144e-2,-1.028220300409649e-2
0.10006405155951648,0.40099453800637236"/></g><g stroke-opacity="1.0" fill="none" stroke="#3b9f2a" stroke-width="5.0e-3"><polyline points="3.2093809675366125e-2,-1.9032771961766004e-2
8.647000318268627e-2,0.40099453800637236"/></g><g stroke-opacity="1.0" fill="none" stroke="#37a02a" stroke-width="5.0e-3"><polyline points="4.5687858052196106e-2,-2.7783340919435462e-2
7.287595480585629e-2,0.40099453800637236"/></g><g stroke-opacity="1.0" fill="none" stroke="#33a12b" stroke-width="5.0e-3"><polyline points="5.928190642902631e-2,-3.653390987710514e-2
5.928190642902631e-2,0.40099453800637236"/></g><g stroke-opacity="1.0" fill="none" stroke="#37a02a" stroke-width="5.0e-3"><polyline points="7.287595480585629e-2,-4.52844788347746e-2
4.5687858052196106e-2,0.40099453800637236"/></g><g stroke-opacity="1.0" fill="none" stroke="#3b9f2a" stroke-width="5.0e-3"><polyline points="8.647000318268627e-2,-5.403504779244417e-2
3.2093809675366125e-2,0.40099453800637236"/></g><g stroke-opacity="1.0" fill="none" stroke="#3f9f29" stroke-width="5.0e-3"><polyline points="0.10006405155951648,-6.278561675011374e-2
1.8499761298536144e-2,0.40099453800637236"/></g><g stroke-opacity="1.0" fill="none" stroke="#439e28" stroke-width="5.0e-3"><polyline points="0.11365809993634646,-7.15361857077833e-2
4.905712921706051e-3,0.40099453800637236"/></g><g stroke-opacity="1.0" fill="none" stroke="#479d27" stroke-width="5.0e-3"><polyline points="0.12725214831317655,-8.028675466545288e-2
-8.68833545512393e-3,0.40099453800637236"/></g><g stroke-opacity="1.0" fill="none" stroke="#4b9d26" stroke-width="5.0e-3"><polyline points="0.14084619669000653,-8.903732362312244e-2
-2.2282383831954022e-2,0.40099453800637236"/></g><g stroke-opacity="1.0" fill="none" stroke="#509c25" stroke-width="5.0e-3"><polyline points="0.15444024506683673,-9.778789258079201e-2
-3.5876432208784115e-2,0.40099453800637236"/></g><g stroke-opacity="1.0" fill="none" stroke="#549b24" stroke-width="5.0e-3"><polyline points="0.1680342934436666,-0.10653846153846147
-4.9470480585614096e-2,0.40099453800637236"/></g><g stroke-opacity="1.0" fill="none" stroke="#589b24" stroke-width="5.0e-3"><polyline points="0.1816283418204967,-0.11528903049613104
-6.306452896244419e-2,0.40099453800637236"/></g><g stroke-opacity="1.0" fill="none" stroke="#5c9a23" stroke-width="5.0e-3"><polyline points="0.19522239019732657,-0.12403959945380061
-7.665857733927417e-2,0.40099453800637236"/></g><g stroke-opacity="1.0" fill="none" stroke="#609922" stroke-width="5.0e-3"><polyline points="0.20881643857415677,-0.13279016841147007
-9.025262571610437e-2,0.40099453800637236"/></g><g stroke-opacity="1.0" fill="none" stroke="#649921" stroke-width="5.0e-3"><polyline points="0.22241048695098675,-0.14154073736913975
-0.10384667409293424,0.40099453800637236"/></g><g stroke-opacity="1.0" fill="none" stroke="#689820" stroke-width="5.0e-3"><polyline points="0.23600453532781696,-0.1502913063268092
-0.11744072246976445,0.40099453800637236"/></g><g stroke-opacity="1.0" fill="none" stroke="#6c971f" stroke-width="5.0e-3"><polyline points="0.24959858370464683,-0.15904187528447877
-0.13103477084659432,0.40099453800637236"/></g><g stroke-opacity="1.0" fill="none" stroke="#70971e" stroke-width="5.0e-3"><polyline points="0.2631926320814769,-0.16779244424214834
-0.1446288192234244,0.40099453800637236"/></g><g stroke-opacity="1.0" fill="none" stroke="#74961d" stroke-width="5.0e-3"><polyline points="0.276786680458307,-0.1765430131998179
-0.1582228676002545,0.40099453800637236"/></g><g stroke-opacity="1.0" fill="none" stroke="#78951d" stroke-width="5.0e-3"><polyline points="0.2903807288351371,-0.18529358215748748
-0.1718169159770846,0.40099453800637236"/></g><g stroke-opacity="1.0" fill="none" stroke="#7c951c" stroke-width="5.0e-3"><polyline points="0.3039747772119672,-0.19404415111515694
-0.18541096435391463,0.40099453800637236"/></g><g stroke-opacity="1.0" fill="none" stroke="#81941b" stroke-width="5.0e-3"><polyline points="0.3175688255887973,-0.20279472007282662
-0.19900501273074467,0.40099453800637236"/></g><g stroke-opacity="1.0" fill="none" stroke="#85931a" stroke-width="5.0e-3"><polyline points="0.33116287396562727,-0.21154528903049608
-0.21259906110757476,0.40099453800637236"/></g><g stroke-opacity="1.0" fill="none" stroke="#899319" stroke-width="5.0e-3"><polyline points="0.34475692234245725,-0.22029585798816564
-0.2261931094844048,0.40099453800637236"/></g><g stroke-opacity="1.0" fill="none" stroke="#8d9218" stroke-width="5.0e-3"><polyline points="0.35835097071928745,-0.2290464269458351
-0.23978715786123478,0.40099453800637236"/></g><g stroke-opacity="1.0" fill="none" stroke="#919117" stroke-width="5.0e-3"><polyline points="0.3719450190961172,-0.23779699590350478
-0.2533812062380648,0.40099453800637236"/></g><g stroke-opacity="1.0" fill="none" stroke="#959117" stroke-width="5.0e-3"><polyline points="0.3855390674729472,-0.24654756486117424
-0.2669752546148949,0.40099453800637236"/></g><g stroke-opacity="1.0" fill="none" stroke="#999016" stroke-width="5.0e-3"><polyline points="0.3991331158497774,-0.2552981338188438
-0.2805693029917249,0.40099453800637236"/></g><g stroke-opacity="1.0" fill="none" stroke="#9d8f15" stroke-width="5.0e-3"><polyline points="0.4127271642266076,-0.2640487027765134
-0.294163351368555,0.40099453800637236"/></g><g stroke-opacity="1.0" fill="none" stroke="#a18f14" stroke-width="5.0e-3"><polyline points="0.4263212126034376,-0.27279927173418295
-0.307757399745385,0.40099453800637236"/></g><g stroke-opacity="1.0" fill="none" stroke="#a58e13" stroke-width="5.0e-3"><polyline points="0.43991526098026734,-0.2815498406918525
-0.3213514481222151,0.40099453800637236"/></g><g stroke-opacity="1.0" fill="none" stroke="#a98d12" stroke-width="5.0e-3"><polyline points="0.45350930935709755,-0.2903004096495221
-0.3349454964990451,0.40099453800637236"/></g><g stroke-opacity="1.0" fill="none" stroke="#ad8d11" stroke-width="5.0e-3"><polyline points="0.46710335773392775,-0.29905097860719165
-0.34853954487587513,0.40099453800637236"/></g><g stroke-opacity="1.0" fill="none" stroke="#b18c10" stroke-width="5.0e-3"><polyline points="0.48069740611075773,-0.3078015475648611
-0.36213359325270517,0.40099453800637236"/></g><g stroke-opacity="1.0" fill="none" stroke="#b68b10" stroke-width="5.0e-3"><polyline points="0.4942914544875877,-0.3165521165225307
-0.37572764162953526,0.40099453800637236"/></g><g stroke-opacity="1.0" fill="none" stroke="#ba8b0f" stroke-width="5.0e-3"><polyline points="0.5078855028644179,-0.32530268548020025
-0.3893216900063653,0.40099453800637236"/></g><g stroke-opacity="1.0" fill="none" stroke="#be8a0e" stroke-width="5.0e-3"><polyline points="0.5214795512412479,-0.3340532544378697
-0.4029157383831954,0.40099453800637236"/></g><g stroke-opacity="1.0" fill="none" stroke="#c2890d" stroke-width="5.0e-3"><polyline points="0.5350735996180779,-0.3428038233955393
-0.4165097867600254,0.40099453800637236"/></g><g stroke-opacity="1.0" fill="none" stroke="#c6890c" stroke-width="5.0e-3"><polyline points="0.5486676479949081,-0.35155439235320884
-0.43010383513685546,0.40099453800637236"/></g><g stroke-opacity="1.0" fill="none" stroke="#ca880b" stroke-width="5.0e-3"><polyline points="0.5622616963717378,-0.3603049613108784
-0.44369788351368544,0.40099453800637236"/></g><g stroke-opacity="1.0" fill="none" stroke="#ce870a" stroke-width="5.0e-3"><polyline points="0.575855744748568,-0.369055530268548
-0.45729193189051565,0.40099453800637236"/></g><g stroke-opacity="1.0" fill="none" stroke="#d2870a" stroke-width="5.0e-3"><polyline points="0.589449793125398,-0.37780609922621744
-0.4708859802673455,0.40099453800637236"/></g><g stroke-opacity="1.0" fill="none" stroke="#d68609" stroke-width="5.0e-3"><polyline points="0.6030438415022282,-0.3865566681838871
-0.4844800286441756,0.40099453800637236"/></g><g stroke-opacity="1.0" fill="none" stroke="#da8508" stroke-width="5.0e-3"><polyline points="0.616637889879058,-0.3953072371415566
-0.4980740770210057,0.40099453800637236"/></g><g stroke-opacity="1.0" fill="none" stroke="#de8507" stroke-width="5.0e-3"><polyline points="0.6302319382558882,-0.40405780609922626
-0.5116681253978357,0.40099453800637236"/></g><g stroke-opacity="1.0" fill="none" stroke="#e28406" stroke-width="5.0e-3"><polyline points="0.6438259866327182,-0.4128083750568957
-0.5252621737746658,0.40099453800637236"/></g><g stroke-opacity="1.0" fill="none" stroke="#e78305" stroke-width="5.0e-3"><polyline points="0.6574200350095484,-0.4215589440145654
-0.5388562221514959,0.40099453800637236"/></g><g stroke-opacity="1.0" fill="none" stroke="#eb8304" stroke-width="5.0e-3"><polyline points="0.6710140833863784,-0.43030951297223485
-0.5524502705283258,0.40099453800637236"/></g><g stroke-opacity="1.0" fill="none" stroke="#ef8203" stroke-width="5.0e-3"><polyline points="0.6846081317632083,-0.4390600819299044
-0.5660443189051558,0.40099453800637236"/></g><g stroke-opacity="1.0" fill="none" stroke="#f38103" stroke-width="5.0e-3"><polyline points="0.6982021801400385,-0.44781065088757377
-0.5796383672819859,0.40099453800637236"/></g><g stroke-opacity="1.0" fill="none" stroke="#f78102" stroke-width="5.0e-3"><polyline points="0.7117962285168685,-0.45656121984524345
-0.593232415658816,0.40099453800637236"/></g><g stroke-opacity="1.0" fill="none" stroke="#fb8001" stroke-width="5.0e-3"><polyline points="0.7253902768936983,-0.4653117888029129
-0.606826464035646,0.40099453800637236"/></g><g stroke-opacity="1.0" fill="none" stroke="#ff8000" stroke-width="5.0e-3"><polyline points="0.7389843252705285,-0.4740623577605826
-0.6204205124124761,0.40099453800637236"/></g></g></g><g class="hud"><g class="frame"><g stroke-opacity="0.0" fill="#ffffff" stroke="#000000" stroke-width="0.0" fill-opacity="2.0e-2"><rect width="1.363936187141948" x="-0.6226861871419478" y="-0.47624999999999995" height="0.8794321802457896"/></g></g><g class="axis"><g class="ticks"><g class="tickglyph"><g stroke-opacity="0.4" fill="#0d0d0d" stroke="#0d0d0d" stroke-width="4.0e-3" fill-opacity="0.4"><g transform="rotate(-90.0, -0.6498742838956079, 0.40099453800637236)"><polyline points="-0.6498742838956079,0.41599453800637237
-0.6498742838956079,0.38599453800637235"/></g><g transform="rotate(-90.0, -0.6498742838956079, 0.31348884842967684)"><polyline points="-0.6498742838956079,0.32848884842967685
-0.6498742838956079,0.2984888484296768"/></g><g transform="rotate(-90.0, -0.6498742838956079, 0.22598315885298137)"><polyline points="-0.6498742838956079,0.24098315885298138
-0.6498742838956079,0.21098315885298136"/></g><g transform="rotate(-90.0, -0.6498742838956079, 0.13847746927628585)"><polyline points="-0.6498742838956079,0.15347746927628586
-0.6498742838956079,0.12347746927628585"/></g><g transform="rotate(-90.0, -0.6498742838956079, 5.097177969959038e-2)"><polyline points="-0.6498742838956079,6.597177969959038e-2
-0.6498742838956079,3.597177969959038e-2"/></g><g transform="rotate(-90.0, -0.6498742838956079, -3.653390987710514e-2)"><polyline points="-0.6498742838956079,-2.1533909877105142e-2
-0.6498742838956079,-5.153390987710514e-2"/></g><g transform="rotate(-90.0, -0.6498742838956079, -0.12403959945380072)"><polyline points="-0.6498742838956079,-0.10903959945380072
-0.6498742838956079,-0.13903959945380073"/></g><g transform="rotate(-90.0, -0.6498742838956079, -0.21154528903049608)"><polyline points="-0.6498742838956079,-0.19654528903049606
-0.6498742838956079,-0.2265452890304961"/></g><g transform="rotate(-90.0, -0.6498742838956079, -0.29905097860719165)"><polyline points="-0.6498742838956079,-0.28405097860719164
-0.6498742838956079,-0.31405097860719167"/></g><g transform="rotate(-90.0, -0.6498742838956079, -0.3865566681838871)"><polyline points="-0.6498742838956079,-0.3715566681838871
-0.6498742838956079,-0.40155666818388713"/></g><g transform="rotate(-90.0, -0.6498742838956079, -0.4740623577605826)"><polyline points="-0.6498742838956079,-0.4590623577605826
-0.6498742838956079,-0.4890623577605826"/></g></g></g><g class="ticktext"><g fill="#0d0d0d" stroke="none" stroke-width="0.0" font-size="4.5313494589433484e-2" fill-opacity="1.0" text-anchor="end"><text x="-0.6825" y="0.41302657032316803">0</text><text x="-0.6825" y="0.3255208807464725">0.1</text><text x="-0.6825" y="0.23801519116977699">0.2</text><text x="-0.6825" y="0.15050950159308152">0.3</text><text x="-0.6825" y="6.3003812016386e-2">0.4</text><text x="-0.6825" y="-2.4501877560309526e-2">0.5</text><text x="-0.6825" y="-0.11200756713700499">0.6</text><text x="-0.6825" y="-0.19951325671370046">0.7</text><text x="-0.6825" y="-0.2870189462903959">0.8</text><text x="-0.6825" y="-0.3745246358670915">0.9</text><text x="-0.6825" y="-0.46203032544378686">1</text></g></g><g class="ticklines"><g stroke-opacity="5.0e-2" fill="none" stroke="#0d0d0d" stroke-width="5.0e-3"><polyline points="-0.6204205124124761,0.40099453800637236
0.7389843252705285,0.40099453800637236"/><polyline points="-0.6204205124124761,0.31348884842967684
0.7389843252705285,0.31348884842967684"/><polyline points="-0.6204205124124761,0.22598315885298137
0.7389843252705285,0.22598315885298137"/><polyline points="-0.6204205124124761,0.13847746927628585
0.7389843252705285,0.13847746927628585"/><polyline points="-0.6204205124124761,5.097177969959038e-2
0.7389843252705285,5.097177969959038e-2"/><polyline points="-0.6204205124124761,-3.653390987710514e-2
0.7389843252705285,-3.653390987710514e-2"/><polyline points="-0.6204205124124761,-0.12403959945380072
0.7389843252705285,-0.12403959945380072"/><polyline points="-0.6204205124124761,-0.21154528903049608
0.7389843252705285,-0.21154528903049608"/><polyline points="-0.6204205124124761,-0.29905097860719165
0.7389843252705285,-0.29905097860719165"/><polyline points="-0.6204205124124761,-0.3865566681838871
0.7389843252705285,-0.3865566681838871"/><polyline points="-0.6204205124124761,-0.4740623577605826
0.7389843252705285,-0.4740623577605826"/></g></g></g><g class="axisbar"><g stroke-opacity="0.0" fill="#0d0d0d" stroke="#000000" stroke-width="0.0" fill-opacity="0.4"><rect width="3.625079567154632e-3" x="-0.6353739656269891" y="-0.47581247155211637" height="0.8785571233500227"/></g></g></g><g class="axis"><g class="ticks"><g class="tickglyph"><g stroke-opacity="0.4" fill="#0d0d0d" stroke="#0d0d0d" stroke-width="4.0e-3" fill-opacity="0.4"><polyline points="-0.6204205124124761,0.4444338871187984
-0.6204205124124761,0.41443388711879836"/><polyline points="-0.4844800286441756,0.4444338871187984
-0.4844800286441756,0.41443388711879836"/><polyline points="-0.34853954487587513,0.4444338871187984
-0.34853954487587513,0.41443388711879836"/><polyline points="-0.2125990611075747,0.4444338871187984
-0.2125990611075747,0.41443388711879836"/><polyline points="-7.665857733927417e-2,0.4444338871187984
-7.665857733927417e-2,0.41443388711879836"/><polyline points="5.928190642902631e-2,0.4444338871187984
5.928190642902631e-2,0.41443388711879836"/><polyline points="0.1952223901973269,0.4444338871187984
0.1952223901973269,0.41443388711879836"/><polyline points="0.33116287396562727,0.4444338871187984
0.33116287396562727,0.41443388711879836"/><polyline points="0.46710335773392775,0.4444338871187984
0.46710335773392775,0.41443388711879836"/><polyline points="0.6030438415022282,0.4444338871187984
0.6030438415022282,0.41443388711879836"/><polyline points="0.7389843252705285,0.4444338871187984
0.7389843252705285,0.41443388711879836"/></g></g><g class="ticktext"><g fill="#0d0d0d" stroke="none" stroke-width="0.0" font-size="4.5313494589433484e-2" fill-opacity="1.0" text-anchor="middle"><text x="-0.6204205124124761" y="0.485">0</text><text x="-0.4844800286441756" y="0.485">0.1</text><text x="-0.34853954487587513" y="0.485">0.2</text><text x="-0.2125990611075747" y="0.485">0.3</text><text x="-7.665857733927417e-2" y="0.485">0.4</text><text x="5.928190642902631e-2" y="0.485">0.5</text><text x="0.1952223901973269" y="0.485">0.6</text><text x="0.33116287396562727" y="0.485">0.7</text><text x="0.46710335773392775" y="0.485">0.8</text><text x="0.6030438415022282" y="0.485">0.9</text><text x="0.7389843252705285" y="0.485">1</text></g></g><g class="ticklines"><g stroke-opacity="5.0e-2" fill="none" stroke="#0d0d0d" stroke-width="5.0e-3"><polyline points="-0.6204205124124761,0.40099453800637236
-0.6204205124124761,-0.4740623577605826"/><polyline points="-0.4844800286441756,0.40099453800637236
-0.4844800286441756,-0.4740623577605826"/><polyline points="-0.34853954487587513,0.40099453800637236
-0.34853954487587513,-0.4740623577605826"/><polyline points="-0.2125990611075747,0.40099453800637236
-0.2125990611075747,-0.4740623577605826"/><polyline points="-7.665857733927417e-2,0.40099453800637236
-7.665857733927417e-2,-0.4740623577605826"/><polyline points="5.928190642902631e-2,0.40099453800637236
5.928190642902631e-2,-0.4740623577605826"/><polyline points="0.1952223901973269,0.40099453800637236
0.1952223901973269,-0.4740623577605826"/><polyline points="0.33116287396562727,0.40099453800637236
0.33116287396562727,-0.4740623577605826"/><polyline points="0.46710335773392775,0.40099453800637236
0.46710335773392775,-0.4740623577605826"/><polyline points="0.6030438415022282,0.40099453800637236
0.6030438415022282,-0.4740623577605826"/><polyline points="0.7389843252705285,0.40099453800637236
0.7389843252705285,-0.4740623577605826"/></g></g></g><g class="axisbar"><g stroke-opacity="0.0" fill="#0d0d0d" stroke="#000000" stroke-width="0.0" fill-opacity="0.4"><rect width="1.3630299172501592" x="-0.6222330521960534" y="0.41193274920345924" height="3.5002275830678387e-3"/></g></g></g></g></svg>