<svg width="445.00526184541275" xmlns:xlink="http://www.w3.org/1999/xlink" xmlns="http://www.w3.org/2000/svg" viewBox="-0.7769443940328844 -0.5203175469227412 1.5481017930383654 1.0436517896115234" height="300.0"><style>svg {
  color-scheme: light dark;
}
@media (prefers-color-scheme:dark) {
  svg {
    background-color: #f0f0f0;
  }
}</style><g stroke-opacity="5.0e-2" fill="none" stroke="#0d0d0d" stroke-width="5.0e-3"><polyline points="-0.6224547203368298,0.37516368398079436
0.738657399005481,0.37516368398079436"/><polyline points="-0.6224547203368298,0.286983761667306
0.738657399005481,0.286983761667306"/><polyline points="-0.6224547203368298,0.19880383935381746
0.738657399005481,0.19880383935381746"/><polyline points="-0.6224547203368298,0.11062391704032898
0.738657399005481,0.11062391704032898"/><polyline points="-0.6224547203368298,2.2443994726840555e-2
0.738657399005481,2.2443994726840555e-2"/><polyline points="-0.6224547203368298,-6.573592758664792e-2
0.738657399005481,-6.573592758664792e-2"/><polyline points="-0.6224547203368298,-0.1539158499001364
0.738657399005481,-0.1539158499001364"/><polyline points="-0.6224547203368298,-0.24209577221362488
0.738657399005481,-0.24209577221362488"/><polyline points="-0.6224547203368298,-0.33027569452711325
0.738657399005481,-0.33027569452711325"/><polyline points="-0.6224547203368298,-0.41845561684060173
0.738657399005481,-0.41845561684060173"/></g><g fill="#0d0d0d" stroke="none" stroke-width="0.0" font-size="5.0e-2" fill-opacity="1.0" text-anchor="end"><text x="-0.6819443940328844" y="0.38782191182889564">0</text><text x="-0.6819443940328844" y="0.2996419895154072">0.1</text><text x="-0.6819443940328844" y="0.21146206720191874">0.2</text><text x="-0.6819443940328844" y="0.12328214488843026">0.3</text><text x="-0.6819443940328844" y="3.510222257494178e-2">0.4</text><text x="-0.6819443940328844" y="-5.30776997385467e-2">0.5</text><text x="-0.6819443940328844" y="-0.14125762205203518">0.6</text><text x="-0.6819443940328844" y="-0.22943754436552366">0.7</text><text x="-0.6819443940328844" y="-0.31761746667901203">0.8</text><text x="-0.6819443940328844" y="-0.4057973889925005">0.9</text></g><g stroke-opacity="0.4" fill="#0d0d0d" stroke="#0d0d0d" stroke-width="4.0e-3" fill-opacity="0.4"><g transform="rotate(-90.0, -0.6528528910021414, 0.37516368398079436)"><polyline points="-0.6528528910021414,0.3901636839807944
-0.6528528910021414,0.36016368398079435"/></g><g transform="rotate(-90.0, -0.6528528910021414, 0.286983761667306)"><polyline points="-0.6528528910021414,0.301983761667306
-0.6528528910021414,0.271983761667306"/></g><g transform="rotate(-90.0, -0.6528528910021414, 0.19880383935381746)"><polyline points="-0.6528528910021414,0.21380383935381747
-0.6528528910021414,0.18380383935381744"/></g><g transform="rotate(-90.0, -0.6528528910021414, 0.11062391704032898)"><polyline points="-0.6528528910021414,0.125623917040329
-0.6528528910021414,9.562391704032898e-2"/></g><g transform="rotate(-90.0, -0.6528528910021414, 2.2443994726840555e-2)"><polyline points="-0.6528528910021414,3.7443994726840554e-2
-0.6528528910021414,7.443994726840555e-3"/></g><g transform="rotate(-90.0, -0.6528528910021414, -6.573592758664792e-2)"><polyline points="-0.6528528910021414,-5.0735927586647925e-2
-0.6528528910021414,-8.073592758664792e-2"/></g><g transform="rotate(-90.0, -0.6528528910021414, -0.1539158499001364)"><polyline points="-0.6528528910021414,-0.1389158499001364
-0.6528528910021414,-0.16891584990013642"/></g><g transform="rotate(-90.0, -0.6528528910021414, -0.24209577221362488)"><polyline points="-0.6528528910021414,-0.22709577221362487
-0.6528528910021414,-0.2570957722136249"/></g><g transform="rotate(-90.0, -0.6528528910021414, -0.33027569452711325)"><polyline points="-0.6528528910021414,-0.31527569452711324
-0.6528528910021414,-0.34527569452711326"/></g><g transform="rotate(-90.0, -0.6528528910021414, -0.41845561684060173)"><polyline points="-0.6528528910021414,-0.4034556168406017
-0.6528528910021414,-0.43345561684060174"/></g></g><g stroke-opacity="0.0" fill="#0d0d0d" stroke="#000000" stroke-width="0.0" fill-opacity="0.4"><rect width="3.629632318246201e-3" x="-0.6374269536495952" y="-0.4995635093845483" height="0.8764731558271498"/></g><g stroke-opacity="5.0e-2" fill="none" stroke="#0d0d0d" stroke-width="5.0e-3"><polyline points="-0.6224547203368298,0.37516368398079436
-0.6224547203368298,-0.49781754692274127"/><polyline points="-0.48634350840259877,0.37516368398079436
-0.48634350840259877,-0.49781754692274127"/><polyline points="-0.3502322964683676,0.37516368398079436
-0.3502322964683676,-0.49781754692274127"/><polyline points="-0.21412108453413659,0.37516368398079436
-0.21412108453413659,-0.49781754692274127"/><polyline points="-7.800987259990544e-2,0.37516368398079436
-7.800987259990544e-2,-0.49781754692274127"/><polyline points="5.8101339334325486e-2,0.37516368398079436
5.8101339334325486e-2,-0.49781754692274127"/><polyline points="0.19421255126855674,0.37516368398079436
0.19421255126855674,-0.49781754692274127"/><polyline points="0.33032376320278756,0.37516368398079436
0.33032376320278756,-0.49781754692274127"/><polyline points="0.4664349751370187,0.37516368398079436
0.4664349751370187,-0.49781754692274127"/><polyline points="0.6025461870712499,0.37516368398079436
0.6025461870712499,-0.49781754692274127"/><polyline points="0.738657399005481,0.37516368398079436
0.738657399005481,-0.49781754692274127"/></g><g fill="#0d0d0d" stroke="none" stroke-width="0.0" font-size="5.0e-2" fill-opacity="1.0" text-anchor="middle"><text x="-0.6224547203368298" y="0.4770842426887822">0</text><text x="-0.48634350840259877" y="0.4770842426887822">0.1</text><text x="-0.3502322964683676" y="0.4770842426887822">0.2</text><text x="-0.21412108453413659" y="0.4770842426887822">0.3</text><text x="-7.800987259990544e-2" y="0.4770842426887822">0.4</text><text x="5.8101339334325486e-2" y="0.4770842426887822">0.5</text><text x="0.19421255126855674" y="0.4770842426887822">0.6</text><text x="0.33032376320278756" y="0.4770842426887822">0.7</text><text x="0.4664349751370187" y="0.4770842426887822">0.8</text><text x="0.6025461870712499" y="0.4770842426887822">0.9</text><text x="0.738657399005481" y="0.4770842426887822">1</text></g><g stroke-opacity="0.4" fill="#0d0d0d" stroke="#0d0d0d" stroke-width="4.0e-3" fill-opacity="0.4"><polyline points="-0.6224547203368298,0.4194085552160628
-0.6224547203368298,0.38940855521606277"/><polyline points="-0.48634350840259877,0.4194085552160628
-0.48634350840259877,0.38940855521606277"/><polyline points="-0.3502322964683676,0.4194085552160628
-0.3502322964683676,0.38940855521606277"/><polyline points="-0.21412108453413659,0.4194085552160628
-0.21412108453413659,0.38940855521606277"/><polyline points="-7.800987259990544e-2,0.4194085552160628
-7.800987259990544e-2,0.38940855521606277"/><polyline points="5.8101339334325486e-2,0.4194085552160628
5.8101339334325486e-2,0.38940855521606277"/><polyline points="0.19421255126855674,0.4194085552160628
0.19421255126855674,0.38940855521606277"/><polyline points="0.33032376320278756,0.4194085552160628
0.33032376320278756,0.38940855521606277"/><polyline points="0.4664349751370187,0.4194085552160628
0.4664349751370187,0.38940855521606277"/><polyline points="0.6025461870712499,0.4194085552160628
0.6025461870712499,0.38940855521606277"/><polyline points="0.738657399005481,0.4194085552160628
0.738657399005481,0.38940855521606277"/></g><g stroke-opacity="0.0" fill="#0d0d0d" stroke="#000000" stroke-width="0.0" fill-opacity="0.4"><rect width="1.364741751660557" x="-0.624269536495953" y="0.38607594936708856" height="3.4919249236141647e-3"/></g><g stroke-opacity="0.0" fill="#ffffff" stroke="#000000" stroke-width="0.0" fill-opacity="2.0e-2"><rect width="1.3611121193423108" x="-0.6224547203368298" y="-0.49781754692274127" height="0.8729812309035356"/></g><g stroke-opacity="1.0" fill="none" stroke="#ff8000" stroke-width="5.0e-3"><polyline points="-0.6224547203368298,0.37516368398079436
0.738657399005481,0.37516368398079436"/></g><g stroke-opacity="1.0" fill="none" stroke="#fb8001" stroke-width="5.0e-3"><polyline points="-0.6088435991434067,0.36634569174944553
0.7250462778120577,0.37516368398079436"/></g><g stroke-opacity="1.0" fill="none" stroke="#f78102" stroke-width="5.0e-3"><polyline points="-0.5952324779499836,0.3575276995180967
0.7114351566186345,0.37516368398079436"/></g><g stroke-opacity="1.0" fill="none" stroke="#f38203" stroke-width="5.0e-3"><polyline points="-0.5816213567565605,0.3487097072867479
0.6978240354252114,0.37516368398079436"/></g><g stroke-opacity="1.0" fill="none" stroke="#ef8204" stroke-width="5.0e-3"><polyline points="-0.5680102355631373,0.33989171505539906
0.6842129142317883,0.37516368398079436"/></g><g stroke-opacity="1.0" fill="none" stroke="#ea8304" stroke-width="5.0e-3"><polyline points="-0.5543991143697143,0.3310737228240502
0.6706017930383654,0.37516368398079436"/></g><g stroke-opacity="1.0" fill="none" stroke="#e68405" stroke-width="5.0e-3"><polyline points="-0.5407879931762912,0.3222557305927013
0.6569906718449423,0.37516368398079436"/></g><g stroke-opacity="1.0" fill="none" stroke="#e28406" stroke-width="5.0e-3"><polyline points="-0.5271768719828681,0.31343773836135247
0.643379550651519,0.37516368398079436"/></g><g stroke-opacity="1.0" fill="none" stroke="#de8507" stroke-width="5.0e-3"><polyline points="-0.513565750789445,0.30461974613000364
0.6297684294580961,0.37516368398079436"/></g><g stroke-opacity="1.0" fill="none" stroke="#da8608" stroke-width="5.0e-3"><polyline points="-0.4999546295960219,0.29580175389865476
0.6161573082646727,0.37516368398079436"/></g><g stroke-opacity="1.0" fill="none" stroke="#d68609" stroke-width="5.0e-3"><polyline points="-0.48634350840259877,0.286983761667306
0.6025461870712499,0.37516368398079436"/></g><g stroke-opacity="1.0" fill="none" stroke="#d2870a" stroke-width="5.0e-3"><polyline points="-0.47273238720917565,0.2781657694359571
0.5889350658778267,0.37516368398079436"/></g><g stroke-opacity="1.0" fill="none" stroke="#ce880b" stroke-width="5.0e-3"><polyline points="-0.45912126601575265,0.26934777720460823
0.5753239446844036,0.37516368398079436"/></g><g stroke-opacity="1.0" fill="none" stroke="#c9880b" stroke-width="5.0e-3"><polyline points="-0.4455101448223294,0.2605297849732594
0.5617128234909803,0.37516368398079436"/></g><g stroke-opacity="1.0" fill="none" stroke="#c5890c" stroke-width="5.0e-3"><polyline points="-0.43189902362890636,0.2517117927419106
0.5481017022975574,0.37516368398079436"/></g><g stroke-opacity="1.0" fill="none" stroke="#c18a0d" stroke-width="5.0e-3"><polyline points="-0.4182879024354833,0.24289380051056175
0.534490581104134,0.37516368398079436"/></g><g stroke-opacity="1.0" fill="none" stroke="#bd8a0e" stroke-width="5.0e-3"><polyline points="-0.4046767812420602,0.23407580827921282
0.5208794599107112,0.37516368398079436"/></g><g stroke-opacity="1.0" fill="none" stroke="#b98b0f" stroke-width="5.0e-3"><polyline points="-0.391065660048637,0.22525781604786405
0.5072683387172883,0.37516368398079436"/></g><g stroke-opacity="1.0" fill="none" stroke="#b58c10" stroke-width="5.0e-3"><polyline points="-0.3774545388552139,0.21643982381651516
0.49365721752386493,0.37516368398079436"/></g><g stroke-opacity="1.0" fill="none" stroke="#b18c11" stroke-width="5.0e-3"><polyline points="-0.36384341766179085,0.20762183158516634
0.4800460963304418,0.37516368398079436"/></g><g stroke-opacity="1.0" fill="none" stroke="#ad8d12" stroke-width="5.0e-3"><polyline points="-0.3502322964683676,0.19880383935381746
0.4664349751370187,0.37516368398079436"/></g><g stroke-opacity="1.0" fill="none" stroke="#a88e12" stroke-width="5.0e-3"><polyline points="-0.3366211752749446,0.18998584712246863
0.4528238539435956,0.37516368398079436"/></g><g stroke-opacity="1.0" fill="none" stroke="#a48e13" stroke-width="5.0e-3"><polyline points="-0.3230100540815215,0.1811678548911198
0.4392127327501725,0.37516368398079436"/></g><g stroke-opacity="1.0" fill="none" stroke="#a08f14" stroke-width="5.0e-3"><polyline points="-0.3093989328880984,0.17234986265977092
0.4256016115567496,0.37516368398079436"/></g><g stroke-opacity="1.0" fill="none" stroke="#9c9015" stroke-width="5.0e-3"><polyline points="-0.2957878116946753,0.1635318704284221
0.41199049036332624,0.37516368398079436"/></g><g stroke-opacity="1.0" fill="none" stroke="#989016" stroke-width="5.0e-3"><polyline points="-0.2821766905012522,0.15471387819707327
0.39837936916990313,0.37516368398079436"/></g><g stroke-opacity="1.0" fill="none" stroke="#949117" stroke-width="5.0e-3"><polyline points="-0.26856556930782904,0.1458958859657244
0.38476824797648,0.37516368398079436"/></g><g stroke-opacity="1.0" fill="none" stroke="#909218" stroke-width="5.0e-3"><polyline points="-0.25495444811440593,0.13707789373437557
0.3711571267830569,0.37516368398079436"/></g><g stroke-opacity="1.0" fill="none" stroke="#8c9219" stroke-width="5.0e-3"><polyline points="-0.24134332692098281,0.12825990150302669
0.357546005589634,0.37516368398079436"/></g><g stroke-opacity="1.0" fill="none" stroke="#879319" stroke-width="5.0e-3"><polyline points="-0.2277322057275598,0.11944190927167792
0.34393488439621067,0.37516368398079436"/></g><g stroke-opacity="1.0" fill="none" stroke="#83941a" stroke-width="5.0e-3"><polyline points="-0.2141210845341367,0.11062391704032903
0.33032376320278756,0.37516368398079436"/></g><g stroke-opacity="1.0" fill="none" stroke="#7f941b" stroke-width="5.0e-3"><polyline points="-0.20050996334071358,0.10180592480898021
0.31671264200936466,0.37516368398079436"/></g><g stroke-opacity="1.0" fill="none" stroke="#7b951c" stroke-width="5.0e-3"><polyline points="-0.18689884214729047,9.298793257763133e-2
0.3031015208159413,0.37516368398079436"/></g><g stroke-opacity="1.0" fill="none" stroke="#77961d" stroke-width="5.0e-3"><polyline points="-0.17328772095386735,8.41699403462825e-2
0.28949039962251844,0.37516368398079436"/></g><g stroke-opacity="1.0" fill="none" stroke="#73961e" stroke-width="5.0e-3"><polyline points="-0.15967659976044413,7.535194811493362e-2
0.2758792784290953,0.37516368398079436"/></g><g stroke-opacity="1.0" fill="none" stroke="#6f971f" stroke-width="5.0e-3"><polyline points="-0.14606547856702112,6.65339558835848e-2
0.2622681572356722,0.37516368398079436"/></g><g stroke-opacity="1.0" fill="none" stroke="#6b9820" stroke-width="5.0e-3"><polyline points="-0.132454357373598,5.771596365223597e-2
0.24865703604224887,0.37516368398079436"/></g><g stroke-opacity="1.0" fill="none" stroke="#679820" stroke-width="5.0e-3"><polyline points="-0.1188432361801749,4.889797142088714e-2
0.23504591484882598,0.37516368398079436"/></g><g stroke-opacity="1.0" fill="none" stroke="#629921" stroke-width="5.0e-3"><polyline points="-0.10523211498675178,4.007997918953826e-2
0.22143479365540275,0.37516368398079436"/></g><g stroke-opacity="1.0" fill="none" stroke="#5e9a22" stroke-width="5.0e-3"><polyline points="-9.162099379332878e-2,3.126198695818938e-2
0.20782367246197975,0.37516368398079436"/></g><g stroke-opacity="1.0" fill="none" stroke="#5a9a23" stroke-width="5.0e-3"><polyline points="-7.800987259990544e-2,2.2443994726840555e-2
0.1942125512685564,0.37516368398079436"/></g><g stroke-opacity="1.0" fill="none" stroke="#569b24" stroke-width="5.0e-3"><polyline points="-6.439875140648255e-2,1.362600249549173e-2
0.1806014300751334,0.37516368398079436"/></g><g stroke-opacity="1.0" fill="none" stroke="#529c25" stroke-width="5.0e-3"><polyline points="-5.078763021305943e-2,4.808010264142848e-3
0.16699030888171018,0.37516368398079436"/></g><g stroke-opacity="1.0" fill="none" stroke="#4e9c26" stroke-width="5.0e-3"><polyline points="-3.7176509019636206e-2,-4.009981967205922e-3
0.1533791876882874,0.37516368398079436"/></g><g stroke-opacity="1.0" fill="none" stroke="#4a9d27" stroke-width="5.0e-3"><polyline points="-2.3565387826213202e-2,-1.2827974198554748e-2
0.13976806649486417,0.37516368398079436"/></g><g stroke-opacity="1.0" fill="none" stroke="#469e27" stroke-width="5.0e-3"><polyline points="-9.954266632789976e-3,-2.1645966429903685e-2
0.12615694530144106,0.37516368398079436"/></g><g stroke-opacity="1.0" fill="none" stroke="#419e28" stroke-width="5.0e-3"><polyline points="3.656854560633249e-3,-3.046395866125251e-2
0.11254582410801794,0.37516368398079436"/></g><g stroke-opacity="1.0" fill="none" stroke="#3d9f29" stroke-width="5.0e-3"><polyline points="1.7267975754056142e-2,-3.9281950892601336e-2
9.893470291459483e-2,0.37516368398079436"/></g><g stroke-opacity="1.0" fill="none" stroke="#39a02a" stroke-width="5.0e-3"><polyline points="3.0879096947479256e-2,-4.809994312395016e-2
8.532358172117172e-2,0.37516368398079436"/></g><g stroke-opacity="1.0" fill="none" stroke="#35a02b" stroke-width="5.0e-3"><polyline points="4.449021814090237e-2,-5.69179353552991e-2
7.17124605277486e-2,0.37516368398079436"/></g><g stroke-opacity="1.0" fill="none" stroke="#35a02b" stroke-width="5.0e-3"><polyline points="5.8101339334325486e-2,-6.573592758664792e-2
5.8101339334325486e-2,0.37516368398079436"/></g><g stroke-opacity="1.0" fill="none" stroke="#39a02a" stroke-width="5.0e-3"><polyline points="7.17124605277486e-2,-7.455391981799675e-2
4.449021814090237e-2,0.37516368398079436"/></g><g stroke-opacity="1.0" fill="none" stroke="#3d9f29" stroke-width="5.0e-3"><polyline points="8.532358172117172e-2,-8.337191204934558e-2
3.0879096947479256e-2,0.37516368398079436"/></g><g stroke-opacity="1.0" fill="none" stroke="#419e28" stroke-width="5.0e-3"><polyline points="9.893470291459483e-2,-9.218990428069451e-2
1.7267975754056142e-2,0.37516368398079436"/></g><g stroke-opacity="1.0" fill="none" stroke="#469e27" stroke-width="5.0e-3"><polyline points="0.11254582410801794,-0.10100789651204334
3.656854560633249e-3,0.37516368398079436"/></g><g stroke-opacity="1.0" fill="none" stroke="#4a9d27" stroke-width="5.0e-3"><polyline points="0.12615694530144106,-0.10982588874339216
-9.954266632789976e-3,0.37516368398079436"/></g><g stroke-opacity="1.0" fill="none" stroke="#4e9c26" stroke-width="5.0e-3"><polyline points="0.13976806649486417,-0.11864388097474099
-2.3565387826213202e-2,0.37516368398079436"/></g><g stroke-opacity="1.0" fill="none" stroke="#529c25" stroke-width="5.0e-3"><polyline points="0.1533791876882874,-0.12746187320608993
-3.7176509019636206e-2,0.37516368398079436"/></g><g stroke-opacity="1.0" fill="none" stroke="#569b24" stroke-width="5.0e-3"><polyline points="0.16699030888171018,-0.13627986543743864
-5.078763021305943e-2,0.37516368398079436"/></g><g stroke-opacity="1.0" fill="none" stroke="#5a9a23" stroke-width="5.0e-3"><polyline points="0.1806014300751334,-0.14509785766878736
-6.439875140648255e-2,0.37516368398079436"/></g><g stroke-opacity="1.0" fill="none" stroke="#5e9a22" stroke-width="5.0e-3"><polyline points="0.1942125512685564,-0.1539158499001363
-7.800987259990544e-2,0.37516368398079436"/></g><g stroke-opacity="1.0" fill="none" stroke="#629921" stroke-width="5.0e-3"><polyline points="0.20782367246197975,-0.16273384213148512
-9.162099379332878e-2,0.37516368398079436"/></g><g stroke-opacity="1.0" fill="none" stroke="#679820" stroke-width="5.0e-3"><polyline points="0.22143479365540275,-0.17155183436283405
-0.10523211498675178,0.37516368398079436"/></g><g stroke-opacity="1.0" fill="none" stroke="#6b9820" stroke-width="5.0e-3"><polyline points="0.23504591484882598,-0.18036982659418288
-0.1188432361801749,0.37516368398079436"/></g><g stroke-opacity="1.0" fill="none" stroke="#6f971f" stroke-width="5.0e-3"><polyline points="0.24865703604224887,-0.1891878188255317
-0.132454357373598,0.37516368398079436"/></g><g stroke-opacity="1.0" fill="none" stroke="#73961e" stroke-width="5.0e-3"><polyline points="0.2622681572356722,-0.19800581105688064
-0.14606547856702112,0.37516368398079436"/></g><g stroke-opacity="1.0" fill="none" stroke="#77961d" stroke-width="5.0e-3"><polyline points="0.2758792784290953,-0.20682380328822947
-0.15967659976044413,0.37516368398079436"/></g><g stroke-opacity="1.0" fill="none" stroke="#7b951c" stroke-width="5.0e-3"><polyline points="0.28949039962251844,-0.2156417955195783
-0.17328772095386735,0.37516368398079436"/></g><g stroke-opacity="1.0" fill="none" stroke="#7f941b" stroke-width="5.0e-3"><polyline points="0.3031015208159413,-0.22445978775092712
-0.18689884214729047,0.37516368398079436"/></g><g stroke-opacity="1.0" fill="none" stroke="#83941a" stroke-width="5.0e-3"><polyline points="0.31671264200936466,-0.23327777998227606
-0.20050996334071358,0.37516368398079436"/></g><g stroke-opacity="1.0" fill="none" stroke="#879319" stroke-width="5.0e-3"><polyline points="0.33032376320278756,-0.24209577221362488
-0.2141210845341367,0.37516368398079436"/></g><g stroke-opacity="1.0" fill="none" stroke="#8c9219" stroke-width="5.0e-3"><polyline points="0.34393488439621067,-0.2509137644449736
-0.2277322057275598,0.37516368398079436"/></g><g stroke-opacity="1.0" fill="none" stroke="#909218" stroke-width="5.0e-3"><polyline points="0.357546005589634,-0.2597317566763224
-0.24134332692098281,0.37516368398079436"/></g><g stroke-opacity="1.0" fill="none" stroke="#949117" stroke-width="5.0e-3"><polyline points="0.3711571267830569,-0.26854974890767125
-0.25495444811440593,0.37516368398079436"/></g><g stroke-opacity="1.0" fill="none" stroke="#989016" stroke-width="5.0e-3"><polyline points="0.38476824797648,-0.2773677411390202
-0.26856556930782904,0.37516368398079436"/></g><g stroke-opacity="1.0" fill="none" stroke="#9c9015" stroke-width="5.0e-3"><polyline points="0.39837936916990313,-0.286185733370369
-0.2821766905012522,0.37516368398079436"/></g><g stroke-opacity="1.0" fill="none" stroke="#a08f14" stroke-width="5.0e-3"><polyline points="0.41199049036332624,-0.29500372560171784
-0.2957878116946753,0.37516368398079436"/></g><g stroke-opacity="1.0" fill="none" stroke="#a48e13" stroke-width="5.0e-3"><polyline points="0.4256016115567496,-0.3038217178330668
-0.3093989328880984,0.37516368398079436"/></g><g stroke-opacity="1.0" fill="none" stroke="#a88e12" stroke-width="5.0e-3"><polyline points="0.4392127327501725,-0.3126397100644156
-0.3230100540815215,0.37516368398079436"/></g><g stroke-opacity="1.0" fill="none" stroke="#ad8d12" stroke-width="5.0e-3"><polyline points="0.4528238539435956,-0.3214577022957644
-0.3366211752749446,0.37516368398079436"/></g><g stroke-opacity="1.0" fill="none" stroke="#b18c11" stroke-width="5.0e-3"><polyline points="0.4664349751370187,-0.33027569452711325
-0.3502322964683676,0.37516368398079436"/></g><g stroke-opacity="1.0" fill="none" stroke="#b58c10" stroke-width="5.0e-3"><polyline points="0.4800460963304418,-0.3390936867584622
-0.36384341766179085,0.37516368398079436"/></g><g stroke-opacity="1.0" fill="none" stroke="#b98b0f" stroke-width="5.0e-3"><polyline points="0.49365721752386493,-0.347911678989811
-0.3774545388552139,0.37516368398079436"/></g><g stroke-opacity="1.0" fill="none" stroke="#bd8a0e" stroke-width="5.0e-3"><polyline points="0.5072683387172883,-0.35672967122115984
-0.391065660048637,0.37516368398079436"/></g><g stroke-opacity="1.0" fill="none" stroke="#c18a0d" stroke-width="5.0e-3"><polyline points="0.5208794599107112,-0.36554766345250855
-0.4046767812420602,0.37516368398079436"/></g><g stroke-opacity="1.0" fill="none" stroke="#c5890c" stroke-width="5.0e-3"><polyline points="0.534490581104134,-0.3743656556838574
-0.4182879024354833,0.37516368398079436"/></g><g stroke-opacity="1.0" fill="none" stroke="#c9880b" stroke-width="5.0e-3"><polyline points="0.5481017022975574,-0.3831836479152063
-0.43189902362890636,0.37516368398079436"/></g><g stroke-opacity="1.0" fill="none" stroke="#ce880b" stroke-width="5.0e-3"><polyline points="0.5617128234909803,-0.39200164014655503
-0.4455101448223294,0.37516368398079436"/></g><g stroke-opacity="1.0" fill="none" stroke="#d2870a" stroke-width="5.0e-3"><polyline points="0.5753239446844036,-0.4008196323779041
-0.45912126601575265,0.37516368398079436"/></g><g stroke-opacity="1.0" fill="none" stroke="#d68609" stroke-width="5.0e-3"><polyline points="0.5889350658778267,-0.4096376246092528
-0.47273238720917565,0.37516368398079436"/></g><g stroke-opacity="1.0" fill="none" stroke="#da8608" stroke-width="5.0e-3"><polyline points="0.6025461870712499,-0.41845561684060173
-0.48634350840259877,0.37516368398079436"/></g><g stroke-opacity="1.0" fill="none" stroke="#de8507" stroke-width="5.0e-3"><polyline points="0.6161573082646727,-0.42727360907195056
-0.4999546295960219,0.37516368398079436"/></g><g stroke-opacity="1.0" fill="none" stroke="#e28406" stroke-width="5.0e-3"><polyline points="0.6297684294580961,-0.43609160130329927
-0.513565750789445,0.37516368398079436"/></g><g stroke-opacity="1.0" fill="none" stroke="#e68405" stroke-width="5.0e-3"><polyline points="0.643379550651519,-0.44490959353464843
-0.5271768719828681,0.37516368398079436"/></g><g stroke-opacity="1.0" fill="none" stroke="#ea8304" stroke-width="5.0e-3"><polyline points="0.6569906718449423,-0.45372758576599714
-0.5407879931762912,0.37516368398079436"/></g><g stroke-opacity="1.0" fill="none" stroke="#ef8204" stroke-width="5.0e-3"><polyline points="0.6706017930383654,-0.46254557799734597
-0.5543991143697143,0.37516368398079436"/></g><g stroke-opacity="1.0" fill="none" stroke="#f38203" stroke-width="5.0e-3"><polyline points="0.6842129142317883,-0.4713635702286947
-0.5680102355631373,0.37516368398079436"/></g><g stroke-opacity="1.0" fill="none" stroke="#f78102" stroke-width="5.0e-3"><polyline points="0.6978240354252114,-0.4801815624600436
-0.5816213567565605,0.37516368398079436"/></g><g stroke-opacity="1.0" fill="none" stroke="#fb8001" stroke-width="5.0e-3"><polyline points="0.7114351566186345,-0.48899955469139234
-0.5952324779499836,0.37516368398079436"/></g><g stroke-opacity="1.0" fill="none" stroke="#ff8000" stroke-width="5.0e-3"><polyline points="0.7250462778120577,-0.49781754692274127
-0.6088435991434067,0.37516368398079436"/></g></svg>