<svg width="443.4967841721623" xmlns:xlink="http://www.w3.org/1999/xlink" xmlns="http://www.w3.org/2000/svg" viewBox="-0.77 -0.5212517782039859 1.54 1.0417211950304806" height="300.0"><style>svg {
  color-scheme: light dark;
}
@media (prefers-color-scheme:dark) {
  svg {
    background-color: #f0f0f0;
  }
}</style><g stroke-opacity="0.4" fill="#0d0d0d" stroke="#0d0d0d" stroke-width="4.0e-3" fill-opacity="0.4"><g transform="rotate(-90.0, -0.6557520109273031, 0.40239613101780614)"><polyline points="-0.6557520109273031,0.41739613101780615
-0.6557520109273031,0.3873961310178061"/></g><g transform="rotate(-90.0, -0.6557520109273031, 0.31446471752033417)"><polyline points="-0.6557520109273031,0.3294647175203342
-0.6557520109273031,0.29946471752033416"/></g><g transform="rotate(-90.0, -0.6557520109273031, 0.22653330402286215)"><polyline points="-0.6557520109273031,0.24153330402286216
-0.6557520109273031,0.21153330402286213"/></g><g transform="rotate(-90.0, -0.6557520109273031, 0.13860189052539013)"><polyline points="-0.6557520109273031,0.15360189052539014
-0.6557520109273031,0.12360189052539013"/></g><g transform="rotate(-90.0, -0.6557520109273031, 5.067047702791816e-2)"><polyline points="-0.6557520109273031,6.567047702791816e-2
-0.6557520109273031,3.567047702791816e-2"/></g><g transform="rotate(-90.0, -0.6557520109273031, -3.726093646955375e-2)"><polyline points="-0.6557520109273031,-2.2260936469553752e-2
-0.6557520109273031,-5.226093646955375e-2"/></g><g transform="rotate(-90.0, -0.6557520109273031, -0.12519234996702577)"><polyline points="-0.6557520109273031,-0.11019234996702577
-0.6557520109273031,-0.1401923499670258"/></g><g transform="rotate(-90.0, -0.6557520109273031, -0.2131237634644978)"><polyline points="-0.6557520109273031,-0.19812376346449778
-0.6557520109273031,-0.2281237634644978"/></g><g transform="rotate(-90.0, -0.6557520109273031, -0.3010551769619697)"><polyline points="-0.6557520109273031,-0.2860551769619697
-0.6557520109273031,-0.3160551769619697"/></g><g transform="rotate(-90.0, -0.6557520109273031, -0.38898659045944184)"><polyline points="-0.6557520109273031,-0.3739865904594418
-0.6557520109273031,-0.40398659045944185"/></g><g transform="rotate(-90.0, -0.6557520109273031, -0.47691800395691364)"><polyline points="-0.6557520109273031,-0.4619180039569136
-0.6557520109273031,-0.49191800395691365"/></g></g><g fill="#0d0d0d" stroke="none" stroke-width="0.0" font-size="4.553042950371832e-2" fill-opacity="1.0" text-anchor="end"><text x="-0.6885339201699803" y="0.41448670037370855">0</text><text x="-0.6885339201699803" y="0.32655528687623653">0.1</text><text x="-0.6885339201699803" y="0.23862387337876456">0.2</text><text x="-0.6885339201699803" y="0.1506924598812926">0.3</text><text x="-0.6885339201699803" y="6.276104638382057e-2">0.4</text><text x="-0.6885339201699803" y="-2.5170367113651393e-2">0.5</text><text x="-0.6885339201699803" y="-0.11310178061112341">0.6</text><text x="-0.6885339201699803" y="-0.20103319410859533">0.7</text><text x="-0.6885339201699803" y="-0.28896460760606746">0.8</text><text x="-0.6885339201699803" y="-0.37689602110353926">0.9</text><text x="-0.6885339201699803" y="-0.4648274346010113">1</text></g><g stroke-opacity="5.0e-2" fill="none" stroke="#0d0d0d" stroke-width="5.0e-3"><polyline points="-0.6261572317498862,0.40239613101780614
0.7397556533616634,0.40239613101780614"/><polyline points="-0.6261572317498862,0.31446471752033417
0.7397556533616634,0.31446471752033417"/><polyline points="-0.6261572317498862,0.22653330402286215
0.7397556533616634,0.22653330402286215"/><polyline points="-0.6261572317498862,0.13860189052539013
0.7397556533616634,0.13860189052539013"/><polyline points="-0.6261572317498862,5.067047702791816e-2
0.7397556533616634,5.067047702791816e-2"/><polyline points="-0.6261572317498862,-3.726093646955375e-2
0.7397556533616634,-3.726093646955375e-2"/><polyline points="-0.6261572317498862,-0.12519234996702577
0.7397556533616634,-0.12519234996702577"/><polyline points="-0.6261572317498862,-0.2131237634644978
0.7397556533616634,-0.2131237634644978"/><polyline points="-0.6261572317498862,-0.3010551769619697
0.7397556533616634,-0.3010551769619697"/><polyline points="-0.6261572317498862,-0.38898659045944184
0.7397556533616634,-0.38898659045944184"/><polyline points="-0.6261572317498862,-0.47691800395691364
0.7397556533616634,-0.47691800395691364"/></g><g stroke-opacity="0.0" fill="#0d0d0d" stroke="#000000" stroke-width="0.0" fill-opacity="0.4"><rect width="3.6424343602975418e-3" x="-0.6411822734861132" y="-0.4786766322268631" height="0.8828313915146186"/></g><g stroke-opacity="0.4" fill="#0d0d0d" stroke="#0d0d0d" stroke-width="4.0e-3" fill-opacity="0.4"><polyline points="-0.6261572317498862,0.4459738404044845
-0.6261572317498862,0.4159738404044845"/><polyline points="-0.4895659432387312,0.4459738404044845
-0.4895659432387312,0.4159738404044845"/><polyline points="-0.3529746547275763,0.4459738404044845
-0.3529746547275763,0.4159738404044845"/><polyline points="-0.2163833662164213,0.4459738404044845
-0.2163833662164213,0.4159738404044845"/><polyline points="-7.97920777052663e-2,0.4459738404044845
-7.97920777052663e-2,0.4159738404044845"/><polyline points="5.679921080588857e-2,0.4459738404044845
5.679921080588857e-2,0.4159738404044845"/><polyline points="0.19339049931704344,0.4459738404044845
0.19339049931704344,0.4159738404044845"/><polyline points="0.3299817878281983,0.4459738404044845
0.3299817878281983,0.4159738404044845"/><polyline points="0.46657307633935363,0.4459738404044845
0.46657307633935363,0.4159738404044845"/><polyline points="0.6031643648505085,0.4459738404044845
0.6031643648505085,0.4159738404044845"/><polyline points="0.7397556533616634,0.4459738404044845
0.7397556533616634,0.4159738404044845"/></g><g fill="#0d0d0d" stroke="none" stroke-width="0.0" font-size="4.553042950371832e-2" fill-opacity="1.0" text-anchor="middle"><text x="-0.6261572317498862" y="0.4868102879753792">0</text><text x="-0.4895659432387312" y="0.4868102879753792">0.1</text><text x="-0.3529746547275763" y="0.4868102879753792">0.2</text><text x="-0.2163833662164213" y="0.4868102879753792">0.3</text><text x="-7.97920777052663e-2" y="0.4868102879753792">0.4</text><text x="5.679921080588857e-2" y="0.4868102879753792">0.5</text><text x="0.19339049931704344" y="0.4868102879753792">0.6</text><text x="0.3299817878281983" y="0.4868102879753792">0.7</text><text x="0.46657307633935363" y="0.4868102879753792">0.8</text><text x="0.6031643648505085" y="0.4868102879753792">0.9</text><text x="0.7397556533616634" y="0.4868102879753792">1</text></g><g stroke-opacity="5.0e-2" fill="none" stroke="#0d0d0d" stroke-width="5.0e-3"><polyline points="-0.6261572317498862,0.40239613101780614
-0.6261572317498862,-0.47691800395691364"/><polyline points="-0.4895659432387312,0.40239613101780614
-0.4895659432387312,-0.47691800395691364"/><polyline points="-0.3529746547275763,0.40239613101780614
-0.3529746547275763,-0.47691800395691364"/><polyline points="-0.2163833662164213,0.40239613101780614
-0.2163833662164213,-0.47691800395691364"/><polyline points="-7.97920777052663e-2,0.40239613101780614
-7.97920777052663e-2,-0.47691800395691364"/><polyline points="5.679921080588857e-2,0.40239613101780614
5.679921080588857e-2,-0.47691800395691364"/><polyline points="0.19339049931704344,0.40239613101780614
0.19339049931704344,-0.47691800395691364"/><polyline points="0.3299817878281983,0.40239613101780614
0.3299817878281983,-0.47691800395691364"/><polyline points="0.46657307633935363,0.40239613101780614
0.46657307633935363,-0.47691800395691364"/><polyline points="0.6031643648505085,0.40239613101780614
0.6031643648505085,-0.47691800395691364"/><polyline points="0.7397556533616634,0.40239613101780614
0.7397556533616634,-0.47691800395691364"/></g><g stroke-opacity="0.0" fill="#0d0d0d" stroke="#000000" stroke-width="0.0" fill-opacity="0.4"><rect width="1.3695553194718466" x="-0.6279784489300348" y="0.4133875577049901" height="3.517256539898872e-3"/></g><g stroke-opacity="0.0" fill="#ffffff" stroke="#000000" stroke-width="0.0" fill-opacity="2.0e-2"><rect width="1.3704659280619214" x="-0.628433753225072" y="-0.47691800395691364" height="0.8815124203121565"/></g><g stroke-opacity="1.0" fill="none" stroke="#ff8000" stroke-width="5.0e-3"><polyline points="-0.6261572317498862,0.40239613101780614
0.7397556533616634,0.40239613101780614"/></g><g stroke-opacity="1.0" fill="none" stroke="#fb8001" stroke-width="5.0e-3"><polyline points="-0.6124981028987706,0.3936029896680589
0.7260965245105477,0.40239613101780614"/></g><g stroke-opacity="1.0" fill="none" stroke="#f78102" stroke-width="5.0e-3"><polyline points="-0.5988389740476552,0.3848098483183117
0.7124373956594323,0.40239613101780614"/></g><g stroke-opacity="1.0" fill="none" stroke="#f38203" stroke-width="5.0e-3"><polyline points="-0.5851798451965396,0.3760167069685645
0.6987782668083171,0.40239613101780614"/></g><g stroke-opacity="1.0" fill="none" stroke="#ef8204" stroke-width="5.0e-3"><polyline points="-0.5715207163454241,0.3672235656188173
0.6851191379572013,0.40239613101780614"/></g><g stroke-opacity="1.0" fill="none" stroke="#ea8304" stroke-width="5.0e-3"><polyline points="-0.5578615874943087,0.3584304242690701
0.6714600091060858,0.40239613101780614"/></g><g stroke-opacity="1.0" fill="none" stroke="#e68405" stroke-width="5.0e-3"><polyline points="-0.5442024586431933,0.34963728291932294
0.6578008802549706,0.40239613101780614"/></g><g stroke-opacity="1.0" fill="none" stroke="#e28406" stroke-width="5.0e-3"><polyline points="-0.5305433297920777,0.34084414156957576
0.644141751403855,0.40239613101780614"/></g><g stroke-opacity="1.0" fill="none" stroke="#de8507" stroke-width="5.0e-3"><polyline points="-0.5168842009409622,0.33205100021982853
0.6304826225527393,0.40239613101780614"/></g><g stroke-opacity="1.0" fill="none" stroke="#da8608" stroke-width="5.0e-3"><polyline points="-0.5032250720898467,0.3232578588700814
0.6168234937016237,0.40239613101780614"/></g><g stroke-opacity="1.0" fill="none" stroke="#d68609" stroke-width="5.0e-3"><polyline points="-0.4895659432387312,0.31446471752033417
0.6031643648505085,0.40239613101780614"/></g><g stroke-opacity="1.0" fill="none" stroke="#d2870a" stroke-width="5.0e-3"><polyline points="-0.4759068143876157,0.30567157617058693
0.5895052359993929,0.40239613101780614"/></g><g stroke-opacity="1.0" fill="none" stroke="#ce880b" stroke-width="5.0e-3"><polyline points="-0.4622476855365003,0.29687843482083975
0.5758461071482772,0.40239613101780614"/></g><g stroke-opacity="1.0" fill="none" stroke="#c9880b" stroke-width="5.0e-3"><polyline points="-0.4485885566853847,0.2880852934710926
0.5621869782971616,0.40239613101780614"/></g><g stroke-opacity="1.0" fill="none" stroke="#c5890c" stroke-width="5.0e-3"><polyline points="-0.4349294278342693,0.27929215212134534
0.5485278494460464,0.40239613101780614"/></g><g stroke-opacity="1.0" fill="none" stroke="#c18a0d" stroke-width="5.0e-3"><polyline points="-0.42127029898315377,0.2704990107715981
0.5348687205949307,0.40239613101780614"/></g><g stroke-opacity="1.0" fill="none" stroke="#bd8a0e" stroke-width="5.0e-3"><polyline points="-0.4076111701320383,0.2617058694218509
0.5212095917438153,0.40239613101780614"/></g><g stroke-opacity="1.0" fill="none" stroke="#b98b0f" stroke-width="5.0e-3"><polyline points="-0.39395204128092276,0.25291272807210374
0.5075504628927001,0.40239613101780614"/></g><g stroke-opacity="1.0" fill="none" stroke="#b58c10" stroke-width="5.0e-3"><polyline points="-0.38029291242980723,0.24411958672235656
0.49389133404158425,0.40239613101780614"/></g><g stroke-opacity="1.0" fill="none" stroke="#b18c11" stroke-width="5.0e-3"><polyline points="-0.3666337835786917,0.23532644537260938
0.48023220519046883,0.40239613101780614"/></g><g stroke-opacity="1.0" fill="none" stroke="#ad8d12" stroke-width="5.0e-3"><polyline points="-0.3529746547275763,0.22653330402286215
0.46657307633935363,0.40239613101780614"/></g><g stroke-opacity="1.0" fill="none" stroke="#a88e12" stroke-width="5.0e-3"><polyline points="-0.33931552587646086,0.21774016267311497
0.4529139474882382,0.40239613101780614"/></g><g stroke-opacity="1.0" fill="none" stroke="#a48e13" stroke-width="5.0e-3"><polyline points="-0.3256563970253453,0.2089470213233678
0.43925481863712235,0.40239613101780614"/></g><g stroke-opacity="1.0" fill="none" stroke="#a08f14" stroke-width="5.0e-3"><polyline points="-0.3119972681742298,0.2001538799736206
0.4255956897860069,0.40239613101780614"/></g><g stroke-opacity="1.0" fill="none" stroke="#9c9015" stroke-width="5.0e-3"><polyline points="-0.2983381393231143,0.19136073862387337
0.4119365609348917,0.40239613101780614"/></g><g stroke-opacity="1.0" fill="none" stroke="#989016" stroke-width="5.0e-3"><polyline points="-0.2846790104719988,0.1825675972741262
0.3982774320837761,0.40239613101780614"/></g><g stroke-opacity="1.0" fill="none" stroke="#949117" stroke-width="5.0e-3"><polyline points="-0.2710198816208833,0.17377445592437896
0.38461830323266044,0.40239613101780614"/></g><g stroke-opacity="1.0" fill="none" stroke="#909218" stroke-width="5.0e-3"><polyline points="-0.2573607527697678,0.16498131457463178
0.3709591743815448,0.40239613101780614"/></g><g stroke-opacity="1.0" fill="none" stroke="#8c9219" stroke-width="5.0e-3"><polyline points="-0.24370162391865224,0.15618817322488454
0.3573000455304296,0.40239613101780614"/></g><g stroke-opacity="1.0" fill="none" stroke="#879319" stroke-width="5.0e-3"><polyline points="-0.23004249506753693,0.14739503187513742
0.34364091667931396,0.40239613101780614"/></g><g stroke-opacity="1.0" fill="none" stroke="#83941a" stroke-width="5.0e-3"><polyline points="-0.2163833662164214,0.13860189052539018
0.3299817878281983,0.40239613101780614"/></g><g stroke-opacity="1.0" fill="none" stroke="#7f941b" stroke-width="5.0e-3"><polyline points="-0.20272423736530587,0.129808749175643
0.3163226589770831,0.40239613101780614"/></g><g stroke-opacity="1.0" fill="none" stroke="#7b951c" stroke-width="5.0e-3"><polyline points="-0.18906510851419034,0.12101560782589577
0.3026635301259675,0.40239613101780614"/></g><g stroke-opacity="1.0" fill="none" stroke="#77961d" stroke-width="5.0e-3"><polyline points="-0.17540597966307492,0.11222246647614859
0.28900440127485183,0.40239613101780614"/></g><g stroke-opacity="1.0" fill="none" stroke="#73961e" stroke-width="5.0e-3"><polyline points="-0.16174685081195928,0.10342932512640135
0.2753452724237364,0.40239613101780614"/></g><g stroke-opacity="1.0" fill="none" stroke="#6f971f" stroke-width="5.0e-3"><polyline points="-0.14808772196084385,9.463618377665417e-2
0.2616861435726212,0.40239613101780614"/></g><g stroke-opacity="1.0" fill="none" stroke="#6b9820" stroke-width="5.0e-3"><polyline points="-0.13442859310972832,8.584304242690699e-2
0.24802701472150546,0.40239613101780614"/></g><g stroke-opacity="1.0" fill="none" stroke="#679820" stroke-width="5.0e-3"><polyline points="-0.12076946425861301,7.704990107715981e-2
0.23436788587038992,0.40239613101780614"/></g><g stroke-opacity="1.0" fill="none" stroke="#629921" stroke-width="5.0e-3"><polyline points="-0.10711033540749737,6.825675972741257e-2
0.2207087570192744,0.40239613101780614"/></g><g stroke-opacity="1.0" fill="none" stroke="#5e9a22" stroke-width="5.0e-3"><polyline points="-9.345120655638195e-2,5.9463618377665395e-2
0.20704962816815908,0.40239613101780614"/></g><g stroke-opacity="1.0" fill="none" stroke="#5a9a23" stroke-width="5.0e-3"><polyline points="-7.97920777052663e-2,5.067047702791816e-2
0.19339049931704344,0.40239613101780614"/></g><g stroke-opacity="1.0" fill="none" stroke="#569b24" stroke-width="5.0e-3"><polyline points="-6.613294885415089e-2,4.187733567817098e-2
0.17973137046592802,0.40239613101780614"/></g><g stroke-opacity="1.0" fill="none" stroke="#529c25" stroke-width="5.0e-3"><polyline points="-5.2473820003035465e-2,3.3084194328423855e-2
0.16607224161481227,0.40239613101780614"/></g><g stroke-opacity="1.0" fill="none" stroke="#4e9c26" stroke-width="5.0e-3"><polyline points="-3.881469115191982e-2,2.4291052978676675e-2
0.15241311276369707,0.40239613101780614"/></g><g stroke-opacity="1.0" fill="none" stroke="#4a9d27" stroke-width="5.0e-3"><polyline points="-2.51555623008044e-2,1.549791162892944e-2
0.13875398391258154,0.40239613101780614"/></g><g stroke-opacity="1.0" fill="none" stroke="#469e27" stroke-width="5.0e-3"><polyline points="-1.149643344968887e-2,6.704770279182259e-3
0.125094855061466,0.40239613101780614"/></g><g stroke-opacity="1.0" fill="none" stroke="#419e28" stroke-width="5.0e-3"><polyline points="2.162695401426551e-3,-2.0883710705649206e-3
0.1114357262103507,0.40239613101780614"/></g><g stroke-opacity="1.0" fill="none" stroke="#3d9f29" stroke-width="5.0e-3"><polyline points="1.5821824252542083e-2,-1.08815124203121e-2
9.777659735923505e-2,0.40239613101780614"/></g><g stroke-opacity="1.0" fill="none" stroke="#39a02a" stroke-width="5.0e-3"><polyline points="2.9480953103657503e-2,-1.967465377005939e-2
8.411746850811963e-2,0.40239613101780614"/></g><g stroke-opacity="1.0" fill="none" stroke="#35a02b" stroke-width="5.0e-3"><polyline points="4.3140081954772924e-2,-2.846779511980657e-2
7.045833965700399e-2,0.40239613101780614"/></g><g stroke-opacity="1.0" fill="none" stroke="#35a02b" stroke-width="5.0e-3"><polyline points="5.679921080588857e-2,-3.726093646955375e-2
5.679921080588857e-2,0.40239613101780614"/></g><g stroke-opacity="1.0" fill="none" stroke="#39a02a" stroke-width="5.0e-3"><polyline points="7.045833965700399e-2,-4.605407781930093e-2
4.3140081954772924e-2,0.40239613101780614"/></g><g stroke-opacity="1.0" fill="none" stroke="#3d9f29" stroke-width="5.0e-3"><polyline points="8.411746850811963e-2,-5.484721916904822e-2
2.9480953103657503e-2,0.40239613101780614"/></g><g stroke-opacity="1.0" fill="none" stroke="#419e28" stroke-width="5.0e-3"><polyline points="9.777659735923505e-2,-6.36403605187954e-2
1.5821824252542083e-2,0.40239613101780614"/></g><g stroke-opacity="1.0" fill="none" stroke="#469e27" stroke-width="5.0e-3"><polyline points="0.1114357262103507,-7.243350186854258e-2
2.162695401426551e-3,0.40239613101780614"/></g><g stroke-opacity="1.0" fill="none" stroke="#4a9d27" stroke-width="5.0e-3"><polyline points="0.125094855061466,-8.122664321828976e-2
-1.149643344968887e-2,0.40239613101780614"/></g><g stroke-opacity="1.0" fill="none" stroke="#4e9c26" stroke-width="5.0e-3"><polyline points="0.13875398391258154,-9.001978456803705e-2
-2.51555623008044e-2,0.40239613101780614"/></g><g stroke-opacity="1.0" fill="none" stroke="#529c25" stroke-width="5.0e-3"><polyline points="0.15241311276369707,-9.881292591778423e-2
-3.881469115191982e-2,0.40239613101780614"/></g><g stroke-opacity="1.0" fill="none" stroke="#569b24" stroke-width="5.0e-3"><polyline points="0.16607224161481227,-0.1076060672675313
-5.2473820003035465e-2,0.40239613101780614"/></g><g stroke-opacity="1.0" fill="none" stroke="#5a9a23" stroke-width="5.0e-3"><polyline points="0.17973137046592802,-0.11639920861727848
-6.613294885415089e-2,0.40239613101780614"/></g><g stroke-opacity="1.0" fill="none" stroke="#5e9a22" stroke-width="5.0e-3"><polyline points="0.19339049931704344,-0.12519234996702577
-7.97920777052663e-2,0.40239613101780614"/></g><g stroke-opacity="1.0" fill="none" stroke="#629921" stroke-width="5.0e-3"><polyline points="0.20704962816815908,-0.13398549131677295
-9.345120655638195e-2,0.40239613101780614"/></g><g stroke-opacity="1.0" fill="none" stroke="#679820" stroke-width="5.0e-3"><polyline points="0.2207087570192744,-0.14277863266652013
-0.10711033540749737,0.40239613101780614"/></g><g stroke-opacity="1.0" fill="none" stroke="#6b9820" stroke-width="5.0e-3"><polyline points="0.23436788587038992,-0.1515717740162673
-0.12076946425861301,0.40239613101780614"/></g><g stroke-opacity="1.0" fill="none" stroke="#6f971f" stroke-width="5.0e-3"><polyline points="0.24802701472150546,-0.1603649153660146
-0.13442859310972832,0.40239613101780614"/></g><g stroke-opacity="1.0" fill="none" stroke="#73961e" stroke-width="5.0e-3"><polyline points="0.2616861435726212,-0.16915805671576178
-0.14808772196084385,0.40239613101780614"/></g><g stroke-opacity="1.0" fill="none" stroke="#77961d" stroke-width="5.0e-3"><polyline points="0.2753452724237364,-0.17795119806550896
-0.16174685081195928,0.40239613101780614"/></g><g stroke-opacity="1.0" fill="none" stroke="#7b951c" stroke-width="5.0e-3"><polyline points="0.28900440127485183,-0.18674433941525614
-0.17540597966307492,0.40239613101780614"/></g><g stroke-opacity="1.0" fill="none" stroke="#7f941b" stroke-width="5.0e-3"><polyline points="0.3026635301259675,-0.19553748076500332
-0.18906510851419034,0.40239613101780614"/></g><g stroke-opacity="1.0" fill="none" stroke="#83941a" stroke-width="5.0e-3"><polyline points="0.3163226589770831,-0.20433062211475062
-0.20272423736530587,0.40239613101780614"/></g><g stroke-opacity="1.0" fill="none" stroke="#879319" stroke-width="5.0e-3"><polyline points="0.3299817878281983,-0.2131237634644978
-0.2163833662164214,0.40239613101780614"/></g><g stroke-opacity="1.0" fill="none" stroke="#8c9219" stroke-width="5.0e-3"><polyline points="0.34364091667931396,-0.22191690481424486
-0.23004249506753693,0.40239613101780614"/></g><g stroke-opacity="1.0" fill="none" stroke="#909218" stroke-width="5.0e-3"><polyline points="0.3573000455304296,-0.23071004616399204
-0.24370162391865224,0.40239613101780614"/></g><g stroke-opacity="1.0" fill="none" stroke="#949117" stroke-width="5.0e-3"><polyline points="0.3709591743815448,-0.23950318751373934
-0.2573607527697678,0.40239613101780614"/></g><g stroke-opacity="1.0" fill="none" stroke="#989016" stroke-width="5.0e-3"><polyline points="0.38461830323266044,-0.24829632886348652
-0.2710198816208833,0.40239613101780614"/></g><g stroke-opacity="1.0" fill="none" stroke="#9c9015" stroke-width="5.0e-3"><polyline points="0.3982774320837761,-0.2570894702132337
-0.2846790104719988,0.40239613101780614"/></g><g stroke-opacity="1.0" fill="none" stroke="#a08f14" stroke-width="5.0e-3"><polyline points="0.4119365609348917,-0.2658826115629809
-0.2983381393231143,0.40239613101780614"/></g><g stroke-opacity="1.0" fill="none" stroke="#a48e13" stroke-width="5.0e-3"><polyline points="0.4255956897860069,-0.27467575291272817
-0.3119972681742298,0.40239613101780614"/></g><g stroke-opacity="1.0" fill="none" stroke="#a88e12" stroke-width="5.0e-3"><polyline points="0.43925481863712235,-0.28346889426247535
-0.3256563970253453,0.40239613101780614"/></g><g stroke-opacity="1.0" fill="none" stroke="#ad8d12" stroke-width="5.0e-3"><polyline points="0.4529139474882382,-0.2922620356122225
-0.33931552587646086,0.40239613101780614"/></g><g stroke-opacity="1.0" fill="none" stroke="#b18c11" stroke-width="5.0e-3"><polyline points="0.46657307633935363,-0.3010551769619697
-0.3529746547275763,0.40239613101780614"/></g><g stroke-opacity="1.0" fill="none" stroke="#b58c10" stroke-width="5.0e-3"><polyline points="0.48023220519046883,-0.309848318311717
-0.3666337835786917,0.40239613101780614"/></g><g stroke-opacity="1.0" fill="none" stroke="#b98b0f" stroke-width="5.0e-3"><polyline points="0.49389133404158425,-0.3186414596614642
-0.38029291242980723,0.40239613101780614"/></g><g stroke-opacity="1.0" fill="none" stroke="#bd8a0e" stroke-width="5.0e-3"><polyline points="0.5075504628927001,-0.32743460101121136
-0.39395204128092276,0.40239613101780614"/></g><g stroke-opacity="1.0" fill="none" stroke="#c18a0d" stroke-width="5.0e-3"><polyline points="0.5212095917438153,-0.3362277423609584
-0.4076111701320383,0.40239613101780614"/></g><g stroke-opacity="1.0" fill="none" stroke="#c5890c" stroke-width="5.0e-3"><polyline points="0.5348687205949307,-0.3450208837107057
-0.42127029898315377,0.40239613101780614"/></g><g stroke-opacity="1.0" fill="none" stroke="#c9880b" stroke-width="5.0e-3"><polyline points="0.5485278494460464,-0.3538140250604529
-0.4349294278342693,0.40239613101780614"/></g><g stroke-opacity="1.0" fill="none" stroke="#ce880b" stroke-width="5.0e-3"><polyline points="0.5621869782971616,-0.3626071664102001
-0.4485885566853847,0.40239613101780614"/></g><g stroke-opacity="1.0" fill="none" stroke="#d2870a" stroke-width="5.0e-3"><polyline points="0.5758461071482772,-0.37140030775994726
-0.4622476855365003,0.40239613101780614"/></g><g stroke-opacity="1.0" fill="none" stroke="#d68609" stroke-width="5.0e-3"><polyline points="0.5895052359993929,-0.38019344910969444
-0.4759068143876157,0.40239613101780614"/></g><g stroke-opacity="1.0" fill="none" stroke="#da8608" stroke-width="5.0e-3"><polyline points="0.6031643648505085,-0.38898659045944184
-0.4895659432387312,0.40239613101780614"/></g><g stroke-opacity="1.0" fill="none" stroke="#de8507" stroke-width="5.0e-3"><polyline points="0.6168234937016237,-0.3977797318091888
-0.5032250720898467,0.40239613101780614"/></g><g stroke-opacity="1.0" fill="none" stroke="#e28406" stroke-width="5.0e-3"><polyline points="0.6304826225527393,-0.4065728731589362
-0.5168842009409622,0.40239613101780614"/></g><g stroke-opacity="1.0" fill="none" stroke="#e68405" stroke-width="5.0e-3"><polyline points="0.644141751403855,-0.41536601450868327
-0.5305433297920777,0.40239613101780614"/></g><g stroke-opacity="1.0" fill="none" stroke="#ea8304" stroke-width="5.0e-3"><polyline points="0.6578008802549706,-0.42415915585843067
-0.5442024586431933,0.40239613101780614"/></g><g stroke-opacity="1.0" fill="none" stroke="#ef8204" stroke-width="5.0e-3"><polyline points="0.6714600091060858,-0.4329522972081776
-0.5578615874943087,0.40239613101780614"/></g><g stroke-opacity="1.0" fill="none" stroke="#f38203" stroke-width="5.0e-3"><polyline points="0.6851191379572013,-0.4417454385579248
-0.5715207163454241,0.40239613101780614"/></g><g stroke-opacity="1.0" fill="none" stroke="#f78102" stroke-width="5.0e-3"><polyline points="0.6987782668083171,-0.450538579907672
-0.5851798451965396,0.40239613101780614"/></g><g stroke-opacity="1.0" fill="none" stroke="#fb8001" stroke-width="5.0e-3"><polyline points="0.7124373956594323,-0.4593317212574193
-0.5988389740476552,0.40239613101780614"/></g><g stroke-opacity="1.0" fill="none" stroke="#ff8000" stroke-width="5.0e-3"><polyline points="0.7260965245105477,-0.46812486260716646
-0.6124981028987706,0.40239613101780614"/></g></svg>