<svg width="443.5280414454057" xmlns:xlink="http://www.w3.org/1999/xlink" xmlns="http://www.w3.org/2000/svg" viewBox="-0.77 -0.5211983858819372 1.5400000000000003 1.0416477805876636" height="300.0"><style>svg {
  color-scheme: light dark;
}
@media (prefers-color-scheme:dark) {
  svg {
    background-color: #f0f0f0;
  }
}</style><g stroke-opacity="0.0" fill="#0d0d0d" stroke="#000000" stroke-width="0.0" fill-opacity="0.4"><rect width="3.6557501904036505e-3" x="-0.6462680883472962" y="-0.47856353591160217" height="0.8875138121546962"/></g><g stroke-opacity="0.4" fill="#0d0d0d" stroke="#0d0d0d" stroke-width="4.0e-3" fill-opacity="0.4"><g transform="rotate(-90.0, -0.6608910891089108, 0.407182320441989)"><polyline points="-0.6608910891089108,0.422182320441989
-0.6608910891089108,0.392182320441989"/></g><g transform="rotate(-90.0, -0.6608910891089108, 0.3187845303867404)"><polyline points="-0.6608910891089108,0.3337845303867404
-0.6608910891089108,0.30378453038674036"/></g><g transform="rotate(-90.0, -0.6608910891089108, 0.23038674033149176)"><polyline points="-0.6608910891089108,0.24538674033149177
-0.6608910891089108,0.21538674033149174"/></g><g transform="rotate(-90.0, -0.6608910891089108, 0.1419889502762431)"><polyline points="-0.6608910891089108,0.1569889502762431
-0.6608910891089108,0.12698895027624307"/></g><g transform="rotate(-90.0, -0.6608910891089108, 5.359116022099447e-2)"><polyline points="-0.6608910891089108,6.859116022099447e-2
-0.6608910891089108,3.859116022099447e-2"/></g><g transform="rotate(-90.0, -0.6608910891089108, -3.480662983425409e-2)"><polyline points="-0.6608910891089108,-1.980662983425409e-2
-0.6608910891089108,-4.980662983425409e-2"/></g><g transform="rotate(-90.0, -0.6608910891089108, -0.12320441988950281)"><polyline points="-0.6608910891089108,-0.10820441988950281
-0.6608910891089108,-0.13820441988950283"/></g><g transform="rotate(-90.0, -0.6608910891089108, -0.21160220994475143)"><polyline points="-0.6608910891089108,-0.19660220994475142
-0.6608910891089108,-0.22660220994475144"/></g><g transform="rotate(-90.0, -0.6608910891089108, -0.30000000000000004)"><polyline points="-0.6608910891089108,-0.28500000000000003
-0.6608910891089108,-0.31500000000000006"/></g><g transform="rotate(-90.0, -0.6608910891089108, -0.38839779005524844)"><polyline points="-0.6608910891089108,-0.3733977900552484
-0.6608910891089108,-0.40339779005524845"/></g><g transform="rotate(-90.0, -0.6608910891089108, -0.47679558011049716)"><polyline points="-0.6608910891089108,-0.46179558011049715
-0.6608910891089108,-0.4917955801104972"/></g></g><g fill="#0d0d0d" stroke="none" stroke-width="0.0" font-size="4.569687738004571e-2" fill-opacity="1.0" text-anchor="end"><text x="-0.6883092155369382" y="0.41933701657458566">0</text><text x="-0.6883092155369382" y="0.33093922651933705">0.1</text><text x="-0.6883092155369382" y="0.24254143646408838">0.2</text><text x="-0.6883092155369382" y="0.15414364640883982">0.3</text><text x="-0.6883092155369382" y="6.574585635359115e-2">0.4</text><text x="-0.6883092155369382" y="-2.2651933701657412e-2">0.5</text><text x="-0.6883092155369382" y="-0.11104972375690603">0.6</text><text x="-0.6883092155369382" y="-0.19944751381215464">0.7</text><text x="-0.6883092155369382" y="-0.28784530386740337">0.8</text><text x="-0.6883092155369382" y="-0.37624309392265187">0.9</text><text x="-0.6883092155369382" y="-0.4646408839779006">1</text></g><g stroke-opacity="5.0e-2" fill="none" stroke="#0d0d0d" stroke-width="5.0e-3"><polyline points="-0.6311881188118812,0.407182320441989
0.73971820258949,0.407182320441989"/><polyline points="-0.6311881188118812,0.3187845303867404
0.73971820258949,0.3187845303867404"/><polyline points="-0.6311881188118812,0.23038674033149176
0.73971820258949,0.23038674033149176"/><polyline points="-0.6311881188118812,0.1419889502762431
0.73971820258949,0.1419889502762431"/><polyline points="-0.6311881188118812,5.359116022099447e-2
0.73971820258949,5.359116022099447e-2"/><polyline points="-0.6311881188118812,-3.480662983425409e-2
0.73971820258949,-3.480662983425409e-2"/><polyline points="-0.6311881188118812,-0.12320441988950281
0.73971820258949,-0.12320441988950281"/><polyline points="-0.6311881188118812,-0.21160220994475143
0.73971820258949,-0.21160220994475143"/><polyline points="-0.6311881188118812,-0.30000000000000004
0.73971820258949,-0.30000000000000004"/><polyline points="-0.6311881188118812,-0.38839779005524844
0.73971820258949,-0.38839779005524844"/><polyline points="-0.6311881188118812,-0.47679558011049716
0.73971820258949,-0.47679558011049716"/></g><g stroke-opacity="0.0" fill="#0d0d0d" stroke="#000000" stroke-width="0.0" fill-opacity="0.4"><rect width="1.3745620715917748" x="-0.633015993907083" y="0.41823204419889504" height="3.5359116022098958e-3"/></g><g stroke-opacity="0.4" fill="#0d0d0d" stroke="#0d0d0d" stroke-width="4.0e-3" fill-opacity="0.4"><polyline points="-0.6311881188118812,0.45091160220994475
-0.6311881188118812,0.4209116022099447"/><polyline points="-0.494097486671744,0.45091160220994475
-0.494097486671744,0.4209116022099447"/><polyline points="-0.35700685453160685,0.45091160220994475
-0.35700685453160685,0.4209116022099447"/><polyline points="-0.2199162223914698,0.45091160220994475
-0.2199162223914698,0.4209116022099447"/><polyline points="-8.282559025133263e-2,0.45091160220994475
-8.282559025133263e-2,0.4209116022099447"/><polyline points="5.426504188880443e-2,0.45091160220994475
5.426504188880443e-2,0.4209116022099447"/><polyline points="0.1913556740289417,0.45091160220994475
0.1913556740289417,0.4209116022099447"/><polyline points="0.32844630616907855,0.45091160220994475
0.32844630616907855,0.4209116022099447"/><polyline points="0.46553693830921583,0.45091160220994475
0.46553693830921583,0.4209116022099447"/><polyline points="0.6026275704493527,0.45091160220994475
0.6026275704493527,0.4209116022099447"/><polyline points="0.73971820258949,0.45091160220994475
0.73971820258949,0.4209116022099447"/></g><g fill="#0d0d0d" stroke="none" stroke-width="0.0" font-size="4.569687738004571e-2" fill-opacity="1.0" text-anchor="middle"><text x="-0.6311881188118812" y="0.4867403314917127">0</text><text x="-0.494097486671744" y="0.4867403314917127">0.1</text><text x="-0.35700685453160685" y="0.4867403314917127">0.2</text><text x="-0.2199162223914698" y="0.4867403314917127">0.3</text><text x="-8.282559025133263e-2" y="0.4867403314917127">0.4</text><text x="5.426504188880443e-2" y="0.4867403314917127">0.5</text><text x="0.1913556740289417" y="0.4867403314917127">0.6</text><text x="0.32844630616907855" y="0.4867403314917127">0.7</text><text x="0.46553693830921583" y="0.4867403314917127">0.8</text><text x="0.6026275704493527" y="0.4867403314917127">0.9</text><text x="0.73971820258949" y="0.4867403314917127">1</text></g><g stroke-opacity="5.0e-2" fill="none" stroke="#0d0d0d" stroke-width="5.0e-3"><polyline points="-0.6311881188118812,0.407182320441989
-0.6311881188118812,-0.47679558011049716"/><polyline points="-0.494097486671744,0.407182320441989
-0.494097486671744,-0.47679558011049716"/><polyline points="-0.35700685453160685,0.407182320441989
-0.35700685453160685,-0.47679558011049716"/><polyline points="-0.2199162223914698,0.407182320441989
-0.2199162223914698,-0.47679558011049716"/><polyline points="-8.282559025133263e-2,0.407182320441989
-8.282559025133263e-2,-0.47679558011049716"/><polyline points="5.426504188880443e-2,0.407182320441989
5.426504188880443e-2,-0.47679558011049716"/><polyline points="0.1913556740289417,0.407182320441989
0.1913556740289417,-0.47679558011049716"/><polyline points="0.32844630616907855,0.407182320441989
0.32844630616907855,-0.47679558011049716"/><polyline points="0.46553693830921583,0.407182320441989
0.46553693830921583,-0.47679558011049716"/><polyline points="0.6026275704493527,0.407182320441989
0.6026275704493527,-0.47679558011049716"/><polyline points="0.73971820258949,0.407182320441989
0.73971820258949,-0.47679558011049716"/></g><g stroke-opacity="0.0" fill="#ffffff" stroke="#000000" stroke-width="0.0" fill-opacity="2.0e-2"><rect width="1.3754760091393754" x="-0.6334729626808834" y="-0.47679558011049716" height="0.8861878453038673"/></g><g stroke-opacity="1.0" fill="none" stroke="#ff8000" stroke-width="5.0e-3"><polyline points="-0.6311881188118812,0.407182320441989
0.73971820258949,0.407182320441989"/></g><g stroke-opacity="1.0" fill="none" stroke="#fb8001" stroke-width="5.0e-3"><polyline points="-0.6174790555978674,0.3983425414364641
0.726009139375476,0.407182320441989"/></g><g stroke-opacity="1.0" fill="none" stroke="#f78102" stroke-width="5.0e-3"><polyline points="-0.6037699923838538,0.38950276243093923
0.7123000761614626,0.407182320441989"/></g><g stroke-opacity="1.0" fill="none" stroke="#f38203" stroke-width="5.0e-3"><polyline points="-0.59006092916984,0.3806629834254144
0.6985910129474486,0.407182320441989"/></g><g stroke-opacity="1.0" fill="none" stroke="#ef8204" stroke-width="5.0e-3"><polyline points="-0.5763518659558262,0.37182320441988953
0.6848819497334349,0.407182320441989"/></g><g stroke-opacity="1.0" fill="none" stroke="#ea8304" stroke-width="5.0e-3"><polyline points="-0.5626428027418127,0.3629834254143647
0.6711728865194215,0.407182320441989"/></g><g stroke-opacity="1.0" fill="none" stroke="#e68405" stroke-width="5.0e-3"><polyline points="-0.5489337395277989,0.3541436464088398
0.6574638233054078,0.407182320441989"/></g><g stroke-opacity="1.0" fill="none" stroke="#e28406" stroke-width="5.0e-3"><polyline points="-0.5352246763137852,0.3453038674033149
0.643754760091394,0.407182320441989"/></g><g stroke-opacity="1.0" fill="none" stroke="#de8507" stroke-width="5.0e-3"><polyline points="-0.5215156130997715,0.3364640883977901
0.6300456968773804,0.407182320441989"/></g><g stroke-opacity="1.0" fill="none" stroke="#da8608" stroke-width="5.0e-3"><polyline points="-0.5078065498857578,0.3276243093922653
0.6163366336633667,0.407182320441989"/></g><g stroke-opacity="1.0" fill="none" stroke="#d68609" stroke-width="5.0e-3"><polyline points="-0.494097486671744,0.3187845303867404
0.6026275704493527,0.407182320441989"/></g><g stroke-opacity="1.0" fill="none" stroke="#d2870a" stroke-width="5.0e-3"><polyline points="-0.48038842345773036,0.30994475138121547
0.5889185072353391,0.407182320441989"/></g><g stroke-opacity="1.0" fill="none" stroke="#ce880b" stroke-width="5.0e-3"><polyline points="-0.4666793602437167,0.30110497237569067
0.5752094440213256,0.407182320441989"/></g><g stroke-opacity="1.0" fill="none" stroke="#c9880b" stroke-width="5.0e-3"><polyline points="-0.4529702970297029,0.29226519337016577
0.5615003808073118,0.407182320441989"/></g><g stroke-opacity="1.0" fill="none" stroke="#c5890c" stroke-width="5.0e-3"><polyline points="-0.43926123381568927,0.28342541436464086
0.5477913175932978,0.407182320441989"/></g><g stroke-opacity="1.0" fill="none" stroke="#c18a0d" stroke-width="5.0e-3"><polyline points="-0.42555217060167555,0.27458563535911606
0.534082254379284,0.407182320441989"/></g><g stroke-opacity="1.0" fill="none" stroke="#bd8a0e" stroke-width="5.0e-3"><polyline points="-0.41184310738766183,0.26574585635359116
0.5203731911652707,0.407182320441989"/></g><g stroke-opacity="1.0" fill="none" stroke="#b98b0f" stroke-width="5.0e-3"><polyline points="-0.39813404417364806,0.25690607734806625
0.5066641279512569,0.407182320441989"/></g><g stroke-opacity="1.0" fill="none" stroke="#b58c10" stroke-width="5.0e-3"><polyline points="-0.38442498095963434,0.24806629834254146
0.49295506473724293,0.407182320441989"/></g><g stroke-opacity="1.0" fill="none" stroke="#b18c11" stroke-width="5.0e-3"><polyline points="-0.3707159177456206,0.2392265193370166
0.4792460015232296,0.407182320441989"/></g><g stroke-opacity="1.0" fill="none" stroke="#ad8d12" stroke-width="5.0e-3"><polyline points="-0.35700685453160685,0.23038674033149176
0.46553693830921583,0.407182320441989"/></g><g stroke-opacity="1.0" fill="none" stroke="#a88e12" stroke-width="5.0e-3"><polyline points="-0.3432977913175933,0.2215469613259669
0.45182787509520184,0.407182320441989"/></g><g stroke-opacity="1.0" fill="none" stroke="#a48e13" stroke-width="5.0e-3"><polyline points="-0.32958872810357953,0.21270718232044206
0.4381188118811883,0.407182320441989"/></g><g stroke-opacity="1.0" fill="none" stroke="#a08f14" stroke-width="5.0e-3"><polyline points="-0.3158796648895658,0.20386740331491715
0.42440974866717474,0.407182320441989"/></g><g stroke-opacity="1.0" fill="none" stroke="#9c9015" stroke-width="5.0e-3"><polyline points="-0.3021706016755521,0.1950276243093923
0.41070068545316074,0.407182320441989"/></g><g stroke-opacity="1.0" fill="none" stroke="#989016" stroke-width="5.0e-3"><polyline points="-0.28846153846153844,0.18618784530386745
0.39699162223914697,0.407182320441989"/></g><g stroke-opacity="1.0" fill="none" stroke="#949117" stroke-width="5.0e-3"><polyline points="-0.27475247524752466,0.17734806629834254
0.3832825590251332,0.407182320441989"/></g><g stroke-opacity="1.0" fill="none" stroke="#909218" stroke-width="5.0e-3"><polyline points="-0.261043412033511,0.1685082872928177
0.36957349581111987,0.407182320441989"/></g><g stroke-opacity="1.0" fill="none" stroke="#8c9219" stroke-width="5.0e-3"><polyline points="-0.24733434881949723,0.15966850828729284
0.3558644325971061,0.407182320441989"/></g><g stroke-opacity="1.0" fill="none" stroke="#879319" stroke-width="5.0e-3"><polyline points="-0.23362528560548357,0.150828729281768
0.3421553693830921,0.407182320441989"/></g><g stroke-opacity="1.0" fill="none" stroke="#83941a" stroke-width="5.0e-3"><polyline points="-0.2199162223914699,0.14198895027624314
0.32844630616907855,0.407182320441989"/></g><g stroke-opacity="1.0" fill="none" stroke="#7f941b" stroke-width="5.0e-3"><polyline points="-0.20620715917745613,0.1331491712707183
0.314737242955065,0.407182320441989"/></g><g stroke-opacity="1.0" fill="none" stroke="#7b951c" stroke-width="5.0e-3"><polyline points="-0.19249809596344247,0.12430939226519339
0.301028179741051,0.407182320441989"/></g><g stroke-opacity="1.0" fill="none" stroke="#77961d" stroke-width="5.0e-3"><polyline points="-0.1787890327494288,0.11546961325966854
0.2873191165270377,0.407182320441989"/></g><g stroke-opacity="1.0" fill="none" stroke="#73961e" stroke-width="5.0e-3"><polyline points="-0.16507996953541504,0.10662983425414363
0.2736100533130239,0.407182320441989"/></g><g stroke-opacity="1.0" fill="none" stroke="#6f971f" stroke-width="5.0e-3"><polyline points="-0.15137090632140127,9.779005524861878e-2
0.2599009900990099,0.407182320441989"/></g><g stroke-opacity="1.0" fill="none" stroke="#6b9820" stroke-width="5.0e-3"><polyline points="-0.1376618431073875,8.895027624309398e-2
0.24619192688499614,0.407182320441989"/></g><g stroke-opacity="1.0" fill="none" stroke="#679820" stroke-width="5.0e-3"><polyline points="-0.12395277989337394,8.011049723756908e-2
0.2324828636709828,0.407182320441989"/></g><g stroke-opacity="1.0" fill="none" stroke="#629921" stroke-width="5.0e-3"><polyline points="-0.11024371667936006,7.127071823204423e-2
0.21877380045696904,0.407182320441989"/></g><g stroke-opacity="1.0" fill="none" stroke="#5e9a22" stroke-width="5.0e-3"><polyline points="-9.65346534653464e-2,6.243093922651938e-2
0.20506473724295526,0.407182320441989"/></g><g stroke-opacity="1.0" fill="none" stroke="#5a9a23" stroke-width="5.0e-3"><polyline points="-8.282559025133263e-2,5.359116022099447e-2
0.19135567402894127,0.407182320441989"/></g><g stroke-opacity="1.0" fill="none" stroke="#569b24" stroke-width="5.0e-3"><polyline points="-6.911652703731896e-2,4.475138121546962e-2
0.17764661081492783,0.407182320441989"/></g><g stroke-opacity="1.0" fill="none" stroke="#529c25" stroke-width="5.0e-3"><polyline points="-5.54074638233053e-2,3.5911602209944826e-2
0.16393754760091395,0.407182320441989"/></g><g stroke-opacity="1.0" fill="none" stroke="#4e9c26" stroke-width="5.0e-3"><polyline points="-4.169840060929164e-2,2.7071823204419976e-2
0.1502284843869004,0.407182320441989"/></g><g stroke-opacity="1.0" fill="none" stroke="#4a9d27" stroke-width="5.0e-3"><polyline points="-2.798933739527787e-2,1.8232044198895125e-2
0.13651942117288662,0.407182320441989"/></g><g stroke-opacity="1.0" fill="none" stroke="#469e27" stroke-width="5.0e-3"><polyline points="-1.4280274181264208e-2,9.39226519337022e-3
0.12281035795887285,0.407182320441989"/></g><g stroke-opacity="1.0" fill="none" stroke="#419e28" stroke-width="5.0e-3"><polyline points="-5.712109672504351e-4,5.524861878453691e-4
0.1091012947448593,0.407182320441989"/></g><g stroke-opacity="1.0" fill="none" stroke="#3d9f29" stroke-width="5.0e-3"><polyline points="1.3137852246763226e-2,-8.287292817679481e-3
9.539223153084553e-2,0.407182320441989"/></g><g stroke-opacity="1.0" fill="none" stroke="#39a02a" stroke-width="5.0e-3"><polyline points="2.6846915460777e-2,-1.7127071823204387e-2
8.168316831683176e-2,0.407182320441989"/></g><g stroke-opacity="1.0" fill="none" stroke="#35a02b" stroke-width="5.0e-3"><polyline points="4.055597867479066e-2,-2.5966850828729182e-2
6.79741051028182e-2,0.407182320441989"/></g><g stroke-opacity="1.0" fill="none" stroke="#35a02b" stroke-width="5.0e-3"><polyline points="5.426504188880443e-2,-3.480662983425409e-2
5.426504188880443e-2,0.407182320441989"/></g><g stroke-opacity="1.0" fill="none" stroke="#39a02a" stroke-width="5.0e-3"><polyline points="6.79741051028182e-2,-4.3646408839778994e-2
4.055597867479066e-2,0.407182320441989"/></g><g stroke-opacity="1.0" fill="none" stroke="#3d9f29" stroke-width="5.0e-3"><polyline points="8.168316831683176e-2,-5.248618784530379e-2
2.6846915460777e-2,0.407182320441989"/></g><g stroke-opacity="1.0" fill="none" stroke="#419e28" stroke-width="5.0e-3"><polyline points="9.539223153084553e-2,-6.1325966850828695e-2
1.3137852246763226e-2,0.407182320441989"/></g><g stroke-opacity="1.0" fill="none" stroke="#469e27" stroke-width="5.0e-3"><polyline points="0.1091012947448593,-7.01657458563536e-2
-5.712109672504351e-4,0.407182320441989"/></g><g stroke-opacity="1.0" fill="none" stroke="#4a9d27" stroke-width="5.0e-3"><polyline points="0.12281035795887285,-7.90055248618785e-2
-1.4280274181264208e-2,0.407182320441989"/></g><g stroke-opacity="1.0" fill="none" stroke="#4e9c26" stroke-width="5.0e-3"><polyline points="0.13651942117288662,-8.78453038674033e-2
-2.798933739527787e-2,0.407182320441989"/></g><g stroke-opacity="1.0" fill="none" stroke="#529c25" stroke-width="5.0e-3"><polyline points="0.1502284843869004,-9.668508287292821e-2
-4.169840060929164e-2,0.407182320441989"/></g><g stroke-opacity="1.0" fill="none" stroke="#569b24" stroke-width="5.0e-3"><polyline points="0.16393754760091395,-0.105524861878453
-5.54074638233053e-2,0.407182320441989"/></g><g stroke-opacity="1.0" fill="none" stroke="#5a9a23" stroke-width="5.0e-3"><polyline points="0.17764661081492783,-0.1143646408839778
-6.911652703731896e-2,0.407182320441989"/></g><g stroke-opacity="1.0" fill="none" stroke="#5e9a22" stroke-width="5.0e-3"><polyline points="0.19135567402894127,-0.1232044198895027
-8.282559025133263e-2,0.407182320441989"/></g><g stroke-opacity="1.0" fill="none" stroke="#629921" stroke-width="5.0e-3"><polyline points="0.20506473724295526,-0.1320441988950276
-9.65346534653464e-2,0.407182320441989"/></g><g stroke-opacity="1.0" fill="none" stroke="#679820" stroke-width="5.0e-3"><polyline points="0.21877380045696904,-0.1408839779005524
-0.11024371667936006,0.407182320441989"/></g><g stroke-opacity="1.0" fill="none" stroke="#6b9820" stroke-width="5.0e-3"><polyline points="0.2324828636709828,-0.1497237569060773
-0.12395277989337394,0.407182320441989"/></g><g stroke-opacity="1.0" fill="none" stroke="#6f971f" stroke-width="5.0e-3"><polyline points="0.24619192688499614,-0.15856353591160222
-0.1376618431073875,0.407182320441989"/></g><g stroke-opacity="1.0" fill="none" stroke="#73961e" stroke-width="5.0e-3"><polyline points="0.2599009900990099,-0.167403314917127
-0.15137090632140127,0.407182320441989"/></g><g stroke-opacity="1.0" fill="none" stroke="#77961d" stroke-width="5.0e-3"><polyline points="0.2736100533130239,-0.17624309392265192
-0.16507996953541504,0.407182320441989"/></g><g stroke-opacity="1.0" fill="none" stroke="#7b951c" stroke-width="5.0e-3"><polyline points="0.2873191165270377,-0.18508287292817682
-0.1787890327494288,0.407182320441989"/></g><g stroke-opacity="1.0" fill="none" stroke="#7f941b" stroke-width="5.0e-3"><polyline points="0.301028179741051,-0.19392265193370162
-0.19249809596344247,0.407182320441989"/></g><g stroke-opacity="1.0" fill="none" stroke="#83941a" stroke-width="5.0e-3"><polyline points="0.314737242955065,-0.20276243093922652
-0.20620715917745613,0.407182320441989"/></g><g stroke-opacity="1.0" fill="none" stroke="#879319" stroke-width="5.0e-3"><polyline points="0.32844630616907855,-0.21160220994475143
-0.2199162223914699,0.407182320441989"/></g><g stroke-opacity="1.0" fill="none" stroke="#8c9219" stroke-width="5.0e-3"><polyline points="0.3421553693830921,-0.2204419889502761
-0.23362528560548357,0.407182320441989"/></g><g stroke-opacity="1.0" fill="none" stroke="#909218" stroke-width="5.0e-3"><polyline points="0.3558644325971061,-0.22928176795580102
-0.24733434881949723,0.407182320441989"/></g><g stroke-opacity="1.0" fill="none" stroke="#949117" stroke-width="5.0e-3"><polyline points="0.36957349581111987,-0.23812154696132593
-0.261043412033511,0.407182320441989"/></g><g stroke-opacity="1.0" fill="none" stroke="#989016" stroke-width="5.0e-3"><polyline points="0.3832825590251332,-0.24696132596685072
-0.27475247524752466,0.407182320441989"/></g><g stroke-opacity="1.0" fill="none" stroke="#9c9015" stroke-width="5.0e-3"><polyline points="0.39699162223914697,-0.2558011049723756
-0.28846153846153844,0.407182320441989"/></g><g stroke-opacity="1.0" fill="none" stroke="#a08f14" stroke-width="5.0e-3"><polyline points="0.41070068545316074,-0.26464088397790053
-0.3021706016755521,0.407182320441989"/></g><g stroke-opacity="1.0" fill="none" stroke="#a48e13" stroke-width="5.0e-3"><polyline points="0.42440974866717474,-0.27348066298342544
-0.3158796648895658,0.407182320441989"/></g><g stroke-opacity="1.0" fill="none" stroke="#a88e12" stroke-width="5.0e-3"><polyline points="0.4381188118811883,-0.28232044198895023
-0.32958872810357953,0.407182320441989"/></g><g stroke-opacity="1.0" fill="none" stroke="#ad8d12" stroke-width="5.0e-3"><polyline points="0.45182787509520184,-0.29116022099447514
-0.3432977913175933,0.407182320441989"/></g><g stroke-opacity="1.0" fill="none" stroke="#b18c11" stroke-width="5.0e-3"><polyline points="0.46553693830921583,-0.30000000000000004
-0.35700685453160685,0.407182320441989"/></g><g stroke-opacity="1.0" fill="none" stroke="#b58c10" stroke-width="5.0e-3"><polyline points="0.4792460015232296,-0.30883977900552484
-0.3707159177456206,0.407182320441989"/></g><g stroke-opacity="1.0" fill="none" stroke="#b98b0f" stroke-width="5.0e-3"><polyline points="0.49295506473724293,-0.31767955801104975
-0.38442498095963434,0.407182320441989"/></g><g stroke-opacity="1.0" fill="none" stroke="#bd8a0e" stroke-width="5.0e-3"><polyline points="0.5066641279512569,-0.32651933701657465
-0.39813404417364806,0.407182320441989"/></g><g stroke-opacity="1.0" fill="none" stroke="#c18a0d" stroke-width="5.0e-3"><polyline points="0.5203731911652707,-0.33535911602209934
-0.41184310738766183,0.407182320441989"/></g><g stroke-opacity="1.0" fill="none" stroke="#c5890c" stroke-width="5.0e-3"><polyline points="0.534082254379284,-0.34419889502762424
-0.42555217060167555,0.407182320441989"/></g><g stroke-opacity="1.0" fill="none" stroke="#c9880b" stroke-width="5.0e-3"><polyline points="0.5477913175932978,-0.35303867403314915
-0.43926123381568927,0.407182320441989"/></g><g stroke-opacity="1.0" fill="none" stroke="#ce880b" stroke-width="5.0e-3"><polyline points="0.5615003808073118,-0.36187845303867394
-0.4529702970297029,0.407182320441989"/></g><g stroke-opacity="1.0" fill="none" stroke="#d2870a" stroke-width="5.0e-3"><polyline points="0.5752094440213256,-0.37071823204419885
-0.4666793602437167,0.407182320441989"/></g><g stroke-opacity="1.0" fill="none" stroke="#d68609" stroke-width="5.0e-3"><polyline points="0.5889185072353391,-0.37955801104972375
-0.48038842345773036,0.407182320441989"/></g><g stroke-opacity="1.0" fill="none" stroke="#da8608" stroke-width="5.0e-3"><polyline points="0.6026275704493527,-0.38839779005524844
-0.494097486671744,0.407182320441989"/></g><g stroke-opacity="1.0" fill="none" stroke="#de8507" stroke-width="5.0e-3"><polyline points="0.6163366336633667,-0.39723756906077357
-0.5078065498857578,0.407182320441989"/></g><g stroke-opacity="1.0" fill="none" stroke="#e28406" stroke-width="5.0e-3"><polyline points="0.6300456968773804,-0.40607734806629825
-0.5215156130997715,0.407182320441989"/></g><g stroke-opacity="1.0" fill="none" stroke="#e68405" stroke-width="5.0e-3"><polyline points="0.643754760091394,-0.41491712707182327
-0.5352246763137852,0.407182320441989"/></g><g stroke-opacity="1.0" fill="none" stroke="#ea8304" stroke-width="5.0e-3"><polyline points="0.6574638233054078,-0.42375690607734795
-0.5489337395277989,0.407182320441989"/></g><g stroke-opacity="1.0" fill="none" stroke="#ef8204" stroke-width="5.0e-3"><polyline points="0.6711728865194215,-0.4325966850828731
-0.5626428027418127,0.407182320441989"/></g><g stroke-opacity="1.0" fill="none" stroke="#f38203" stroke-width="5.0e-3"><polyline points="0.6848819497334349,-0.44143646408839765
-0.5763518659558262,0.407182320441989"/></g><g stroke-opacity="1.0" fill="none" stroke="#f78102" stroke-width="5.0e-3"><polyline points="0.6985910129474486,-0.45027624309392256
-0.59006092916984,0.407182320441989"/></g><g stroke-opacity="1.0" fill="none" stroke="#fb8001" stroke-width="5.0e-3"><polyline points="0.7123000761614626,-0.45911602209944746
-0.6037699923838538,0.407182320441989"/></g><g stroke-opacity="1.0" fill="none" stroke="#ff8000" stroke-width="5.0e-3"><polyline points="0.726009139375476,-0.46795580110497226
-0.6174790555978674,0.407182320441989"/></g></svg>