<svg xmlns="http://www.w3.org/2000/svg" width="447.6527196717738" xmlns:xlink="http://www.w3.org/1999/xlink" viewBox="-0.7389863144493953 -0.49713535408796256 1.4851621180776577 0.9952997398295285" height="300.0"><style>svg {
  color-scheme: light dark;
}
{
  .canvas g, .title g, .axisbar g, .ticktext g, .tickglyph g, .ticklines g, .legendContent g text {
    fill: #0d0d0d;
  }
  .ticklines g, .tickglyph g, .legendBorder g {
    stroke: #0d0d0d;
  }
}
@media (prefers-color-scheme:dark) {
  .canvas g, .title g, .axisbar g, .ticktext g, .tickglyph g, .ticklines g, .legendContent g text {
    fill: #f0f0f0;
  }
  .ticklines g, .tickglyph g, .legendBorder g {
    stroke: #f0f0f0;
  }
}</style><g class="chart"><g class="blend"><g fill="none" stroke="#ff8000" stroke-width="5.0e-3" stroke-opacity="1.0"><polyline points="-0.5998826384468492,0.40099453800637236
0.7165559357097392,0.40099453800637236"/></g><g fill="none" stroke="#fb8001" stroke-width="5.0e-3" stroke-opacity="1.0"><polyline points="-0.5867182527052832,0.3922439690487028
0.7033915499681732,0.40099453800637236"/></g><g fill="none" stroke="#f78102" stroke-width="5.0e-3" stroke-opacity="1.0"><polyline points="-0.5735538669637174,0.3834934000910332
0.6902271642266075,0.40099453800637236"/></g><g fill="none" stroke="#f38103" stroke-width="5.0e-3" stroke-opacity="1.0"><polyline points="-0.5603894812221515,0.3747428311333637
0.6770627784850417,0.40099453800637236"/></g><g fill="none" stroke="#ef8203" stroke-width="5.0e-3" stroke-opacity="1.0"><polyline points="-0.5472250954805856,0.36599226217569414
0.6638983927434757,0.40099453800637236"/></g><g fill="none" stroke="#eb8304" stroke-width="5.0e-3" stroke-opacity="1.0"><polyline points="-0.5340607097390198,0.3572416932180246
0.65073400700191,0.40099453800637236"/></g><g fill="none" stroke="#e78305" stroke-width="5.0e-3" stroke-opacity="1.0"><polyline points="-0.5208963239974539,0.34849112426035506
0.6375696212603442,0.40099453800637236"/></g><g fill="none" stroke="#e28406" stroke-width="5.0e-3" stroke-opacity="1.0"><polyline points="-0.507731938255888,0.3397405553026855
0.624405235518778,0.40099453800637236"/></g><g fill="none" stroke="#de8507" stroke-width="5.0e-3" stroke-opacity="1.0"><polyline points="-0.49456755251432205,0.330989986345016
0.6112408497772123,0.40099453800637236"/></g><g fill="none" stroke="#da8508" stroke-width="5.0e-3" stroke-opacity="1.0"><polyline points="-0.4814031667727562,0.3222394173873464
0.5980764640356463,0.40099453800637236"/></g><g fill="none" stroke="#d68609" stroke-width="5.0e-3" stroke-opacity="1.0"><polyline points="-0.46823878103119027,0.31348884842967684
0.5849120782940805,0.40099453800637236"/></g><g fill="none" stroke="#d2870a" stroke-width="5.0e-3" stroke-opacity="1.0"><polyline points="-0.45507439528962434,0.30473827947200727
0.5717476925525146,0.40099453800637236"/></g><g fill="none" stroke="#ce870a" stroke-width="5.0e-3" stroke-opacity="1.0"><polyline points="-0.4419100095480586,0.29598771051433775
0.5585833068109488,0.40099453800637236"/></g><g fill="none" stroke="#ca880b" stroke-width="5.0e-3" stroke-opacity="1.0"><polyline points="-0.4287456238064926,0.28723714155666824
0.5454189210693826,0.40099453800637236"/></g><g fill="none" stroke="#c6890c" stroke-width="5.0e-3" stroke-opacity="1.0"><polyline points="-0.4155812380649268,0.27848657259899867
0.5322545353278171,0.40099453800637236"/></g><g fill="none" stroke="#c2890d" stroke-width="5.0e-3" stroke-opacity="1.0"><polyline points="-0.4024168523233609,0.2697360036413291
0.5190901495862511,0.40099453800637236"/></g><g fill="none" stroke="#be8a0e" stroke-width="5.0e-3" stroke-opacity="1.0"><polyline points="-0.389252466581795,0.26098543468365953
0.5059257638446851,0.40099453800637236"/></g><g fill="none" stroke="#ba8b0f" stroke-width="5.0e-3" stroke-opacity="1.0"><polyline points="-0.3760880808402291,0.25223486572598997
0.4927613781031194,0.40099453800637236"/></g><g fill="none" stroke="#b68b10" stroke-width="5.0e-3" stroke-opacity="1.0"><polyline points="-0.36292369509866323,0.24348429676832045
0.4795969923615534,0.40099453800637236"/></g><g fill="none" stroke="#b18c10" stroke-width="5.0e-3" stroke-opacity="1.0"><polyline points="-0.3497593093570973,0.23473372781065088
0.46643260661998764,0.40099453800637236"/></g><g fill="none" stroke="#ad8d11" stroke-width="5.0e-3" stroke-opacity="1.0"><polyline points="-0.3365949236155314,0.22598315885298137
0.45326822087842167,0.40099453800637236"/></g><g fill="none" stroke="#a98d12" stroke-width="5.0e-3" stroke-opacity="1.0"><polyline points="-0.3234305378739656,0.21723258989531186
0.4401038351368557,0.40099453800637236"/></g><g fill="none" stroke="#a58e13" stroke-width="5.0e-3" stroke-opacity="1.0"><polyline points="-0.3102661521323997,0.2084820209376423
0.4269394493952897,0.40099453800637236"/></g><g fill="none" stroke="#a18f14" stroke-width="5.0e-3" stroke-opacity="1.0"><polyline points="-0.2971017663908338,0.19973145197997272
0.41377506365372396,0.40099453800637236"/></g><g fill="none" stroke="#9d8f15" stroke-width="5.0e-3" stroke-opacity="1.0"><polyline points="-0.28393738064926793,0.19098088302230315
0.4006106779121582,0.40099453800637236"/></g><g fill="none" stroke="#999016" stroke-width="5.0e-3" stroke-opacity="1.0"><polyline points="-0.270772994907702,0.18223031406463364
0.38744629217059223,0.40099453800637236"/></g><g fill="none" stroke="#959117" stroke-width="5.0e-3" stroke-opacity="1.0"><polyline points="-0.25760860916613615,0.17347974510696407
0.37428190642902626,0.40099453800637236"/></g><g fill="none" stroke="#919117" stroke-width="5.0e-3" stroke-opacity="1.0"><polyline points="-0.24444422342457023,0.16472917614929455
0.3611175206874603,0.40099453800637236"/></g><g fill="none" stroke="#8d9218" stroke-width="5.0e-3" stroke-opacity="1.0"><polyline points="-0.23127983768300436,0.15597860719162498
0.3479531349458945,0.40099453800637236"/></g><g fill="none" stroke="#899319" stroke-width="5.0e-3" stroke-opacity="1.0"><polyline points="-0.2181154519414385,0.14722803823395547
0.33478874920432866,0.40099453800637236"/></g><g fill="none" stroke="#85931a" stroke-width="5.0e-3" stroke-opacity="1.0"><polyline points="-0.2049510661998727,0.1384774692762859
0.3216243634627628,0.40099453800637236"/></g><g fill="none" stroke="#81941b" stroke-width="5.0e-3" stroke-opacity="1.0"><polyline points="-0.19178668045830677,0.12972690031861633
0.30845997772119704,0.40099453800637236"/></g><g fill="none" stroke="#7c951c" stroke-width="5.0e-3" stroke-opacity="1.0"><polyline points="-0.1786222947167409,0.12097633136094676
0.29529559197963107,0.40099453800637236"/></g><g fill="none" stroke="#78951d" stroke-width="5.0e-3" stroke-opacity="1.0"><polyline points="-0.16545790897517498,0.1122257624032772
0.2821312062380652,0.40099453800637236"/></g><g fill="none" stroke="#74961d" stroke-width="5.0e-3" stroke-opacity="1.0"><polyline points="-0.15229352323360912,0.10347519344560768
0.2689668204964992,0.40099453800637236"/></g><g fill="none" stroke="#70971e" stroke-width="5.0e-3" stroke-opacity="1.0"><polyline points="-0.13912913749204314,9.472462448793811e-2
0.25580243475493336,0.40099453800637236"/></g><g fill="none" stroke="#6c971f" stroke-width="5.0e-3" stroke-opacity="1.0"><polyline points="-0.12596475175047728,8.59740555302686e-2
0.24263804901336739,0.40099453800637236"/></g><g fill="none" stroke="#689820" stroke-width="5.0e-3" stroke-opacity="1.0"><polyline points="-0.11280036600891152,7.722348657259903e-2
0.22947366327180163,0.40099453800637236"/></g><g fill="none" stroke="#649921" stroke-width="5.0e-3" stroke-opacity="1.0"><polyline points="-9.963598026734544e-2,6.847291761492946e-2
0.21630927753023566,0.40099453800637236"/></g><g fill="none" stroke="#609922" stroke-width="5.0e-3" stroke-opacity="1.0"><polyline points="-8.647159452577968e-2,5.9722348657259894e-2
0.2031448917886698,0.40099453800637236"/></g><g fill="none" stroke="#5c9a23" stroke-width="5.0e-3" stroke-opacity="1.0"><polyline points="-7.33072087842137e-2,5.097177969959038e-2
0.18998050604710381,0.40099453800637236"/></g><g fill="none" stroke="#589b24" stroke-width="5.0e-3" stroke-opacity="1.0"><polyline points="-6.014282304264795e-2,4.222121074192081e-2
0.17681612030553806,0.40099453800637236"/></g><g fill="none" stroke="#549b24" stroke-width="5.0e-3" stroke-opacity="1.0"><polyline points="-4.697843730108198e-2,3.34706417842513e-2
0.16365173456397208,0.40099453800637236"/></g><g fill="none" stroke="#509c25" stroke-width="5.0e-3" stroke-opacity="1.0"><polyline points="-3.381405155951611e-2,2.472007282658173e-2
0.15048734882240644,0.40099453800637236"/></g><g fill="none" stroke="#4b9d26" stroke-width="5.0e-3" stroke-opacity="1.0"><polyline points="-2.0649665817950247e-2,1.596950386891216e-2
0.13732296308084035,0.40099453800637236"/></g><g fill="none" stroke="#479d27" stroke-width="5.0e-3" stroke-opacity="1.0"><polyline points="-7.485280076384271e-3,7.218934911242592e-3
0.12415857733927449,0.40099453800637236"/></g><g fill="none" stroke="#439e28" stroke-width="5.0e-3" stroke-opacity="1.0"><polyline points="5.679105665181594e-3,-1.5316340464269773e-3
0.11099419159770874,0.40099453800637236"/></g><g fill="none" stroke="#3f9f29" stroke-width="5.0e-3" stroke-opacity="1.0"><polyline points="1.884349140674746e-2,-1.028220300409649e-2
9.782980585614287e-2,0.40099453800637236"/></g><g fill="none" stroke="#3b9f2a" stroke-width="5.0e-3" stroke-opacity="1.0"><polyline points="3.2007877148313324e-2,-1.9032771961766004e-2
8.466542011457678e-2,0.40099453800637236"/></g><g fill="none" stroke="#37a02a" stroke-width="5.0e-3" stroke-opacity="1.0"><polyline points="4.517226288987908e-2,-2.7783340919435462e-2
7.150103437301103e-2,0.40099453800637236"/></g><g fill="none" stroke="#33a12b" stroke-width="5.0e-3" stroke-opacity="1.0"><polyline points="5.8336648631445165e-2,-3.653390987710514e-2
5.8336648631445165e-2,0.40099453800637236"/></g><g fill="none" stroke="#37a02a" stroke-width="5.0e-3" stroke-opacity="1.0"><polyline points="7.150103437301103e-2,-4.52844788347746e-2
4.517226288987908e-2,0.40099453800637236"/></g><g fill="none" stroke="#3b9f2a" stroke-width="5.0e-3" stroke-opacity="1.0"><polyline points="8.466542011457678e-2,-5.403504779244417e-2
3.2007877148313324e-2,0.40099453800637236"/></g><g fill="none" stroke="#3f9f29" stroke-width="5.0e-3" stroke-opacity="1.0"><polyline points="9.782980585614287e-2,-6.278561675011374e-2
1.884349140674746e-2,0.40099453800637236"/></g><g fill="none" stroke="#439e28" stroke-width="5.0e-3" stroke-opacity="1.0"><polyline points="0.11099419159770874,-7.15361857077833e-2
5.679105665181594e-3,0.40099453800637236"/></g><g fill="none" stroke="#479d27" stroke-width="5.0e-3" stroke-opacity="1.0"><polyline points="0.12415857733927449,-8.028675466545288e-2
-7.485280076384271e-3,0.40099453800637236"/></g><g fill="none" stroke="#4b9d26" stroke-width="5.0e-3" stroke-opacity="1.0"><polyline points="0.13732296308084035,-8.903732362312244e-2
-2.0649665817950247e-2,0.40099453800637236"/></g><g fill="none" stroke="#509c25" stroke-width="5.0e-3" stroke-opacity="1.0"><polyline points="0.15048734882240644,-9.778789258079201e-2
-3.381405155951611e-2,0.40099453800637236"/></g><g fill="none" stroke="#549b24" stroke-width="5.0e-3" stroke-opacity="1.0"><polyline points="0.16365173456397208,-0.10653846153846147
-4.697843730108198e-2,0.40099453800637236"/></g><g fill="none" stroke="#589b24" stroke-width="5.0e-3" stroke-opacity="1.0"><polyline points="0.17681612030553806,-0.11528903049613104
-6.014282304264795e-2,0.40099453800637236"/></g><g fill="none" stroke="#5c9a23" stroke-width="5.0e-3" stroke-opacity="1.0"><polyline points="0.18998050604710381,-0.12403959945380061
-7.33072087842137e-2,0.40099453800637236"/></g><g fill="none" stroke="#609922" stroke-width="5.0e-3" stroke-opacity="1.0"><polyline points="0.2031448917886698,-0.13279016841147007
-8.647159452577968e-2,0.40099453800637236"/></g><g fill="none" stroke="#649921" stroke-width="5.0e-3" stroke-opacity="1.0"><polyline points="0.21630927753023566,-0.14154073736913975
-9.963598026734544e-2,0.40099453800637236"/></g><g fill="none" stroke="#689820" stroke-width="5.0e-3" stroke-opacity="1.0"><polyline points="0.22947366327180163,-0.1502913063268092
-0.11280036600891152,0.40099453800637236"/></g><g fill="none" stroke="#6c971f" stroke-width="5.0e-3" stroke-opacity="1.0"><polyline points="0.24263804901336739,-0.15904187528447877
-0.12596475175047728,0.40099453800637236"/></g><g fill="none" stroke="#70971e" stroke-width="5.0e-3" stroke-opacity="1.0"><polyline points="0.25580243475493336,-0.16779244424214834
-0.13912913749204314,0.40099453800637236"/></g><g fill="none" stroke="#74961d" stroke-width="5.0e-3" stroke-opacity="1.0"><polyline points="0.2689668204964992,-0.1765430131998179
-0.15229352323360912,0.40099453800637236"/></g><g fill="none" stroke="#78951d" stroke-width="5.0e-3" stroke-opacity="1.0"><polyline points="0.2821312062380652,-0.18529358215748748
-0.16545790897517498,0.40099453800637236"/></g><g fill="none" stroke="#7c951c" stroke-width="5.0e-3" stroke-opacity="1.0"><polyline points="0.29529559197963107,-0.19404415111515694
-0.1786222947167409,0.40099453800637236"/></g><g fill="none" stroke="#81941b" stroke-width="5.0e-3" stroke-opacity="1.0"><polyline points="0.30845997772119704,-0.20279472007282662
-0.19178668045830677,0.40099453800637236"/></g><g fill="none" stroke="#85931a" stroke-width="5.0e-3" stroke-opacity="1.0"><polyline points="0.3216243634627628,-0.21154528903049608
-0.2049510661998727,0.40099453800637236"/></g><g fill="none" stroke="#899319" stroke-width="5.0e-3" stroke-opacity="1.0"><polyline points="0.33478874920432866,-0.22029585798816564
-0.2181154519414385,0.40099453800637236"/></g><g fill="none" stroke="#8d9218" stroke-width="5.0e-3" stroke-opacity="1.0"><polyline points="0.3479531349458945,-0.2290464269458351
-0.23127983768300436,0.40099453800637236"/></g><g fill="none" stroke="#919117" stroke-width="5.0e-3" stroke-opacity="1.0"><polyline points="0.3611175206874603,-0.23779699590350478
-0.24444422342457023,0.40099453800637236"/></g><g fill="none" stroke="#959117" stroke-width="5.0e-3" stroke-opacity="1.0"><polyline points="0.37428190642902626,-0.24654756486117424
-0.25760860916613615,0.40099453800637236"/></g><g fill="none" stroke="#999016" stroke-width="5.0e-3" stroke-opacity="1.0"><polyline points="0.38744629217059223,-0.2552981338188438
-0.270772994907702,0.40099453800637236"/></g><g fill="none" stroke="#9d8f15" stroke-width="5.0e-3" stroke-opacity="1.0"><polyline points="0.4006106779121582,-0.2640487027765134
-0.28393738064926793,0.40099453800637236"/></g><g fill="none" stroke="#a18f14" stroke-width="5.0e-3" stroke-opacity="1.0"><polyline points="0.41377506365372396,-0.27279927173418295
-0.2971017663908338,0.40099453800637236"/></g><g fill="none" stroke="#a58e13" stroke-width="5.0e-3" stroke-opacity="1.0"><polyline points="0.4269394493952897,-0.2815498406918525
-0.3102661521323997,0.40099453800637236"/></g><g fill="none" stroke="#a98d12" stroke-width="5.0e-3" stroke-opacity="1.0"><polyline points="0.4401038351368557,-0.2903004096495221
-0.3234305378739656,0.40099453800637236"/></g><g fill="none" stroke="#ad8d11" stroke-width="5.0e-3" stroke-opacity="1.0"><polyline points="0.45326822087842167,-0.29905097860719165
-0.3365949236155314,0.40099453800637236"/></g><g fill="none" stroke="#b18c10" stroke-width="5.0e-3" stroke-opacity="1.0"><polyline points="0.46643260661998764,-0.3078015475648611
-0.3497593093570973,0.40099453800637236"/></g><g fill="none" stroke="#b68b10" stroke-width="5.0e-3" stroke-opacity="1.0"><polyline points="0.4795969923615534,-0.3165521165225307
-0.36292369509866323,0.40099453800637236"/></g><g fill="none" stroke="#ba8b0f" stroke-width="5.0e-3" stroke-opacity="1.0"><polyline points="0.4927613781031194,-0.32530268548020025
-0.3760880808402291,0.40099453800637236"/></g><g fill="none" stroke="#be8a0e" stroke-width="5.0e-3" stroke-opacity="1.0"><polyline points="0.5059257638446851,-0.3340532544378697
-0.389252466581795,0.40099453800637236"/></g><g fill="none" stroke="#c2890d" stroke-width="5.0e-3" stroke-opacity="1.0"><polyline points="0.5190901495862511,-0.3428038233955393
-0.4024168523233609,0.40099453800637236"/></g><g fill="none" stroke="#c6890c" stroke-width="5.0e-3" stroke-opacity="1.0"><polyline points="0.5322545353278171,-0.35155439235320884
-0.4155812380649268,0.40099453800637236"/></g><g fill="none" stroke="#ca880b" stroke-width="5.0e-3" stroke-opacity="1.0"><polyline points="0.5454189210693826,-0.3603049613108784
-0.4287456238064926,0.40099453800637236"/></g><g fill="none" stroke="#ce870a" stroke-width="5.0e-3" stroke-opacity="1.0"><polyline points="0.5585833068109488,-0.369055530268548
-0.4419100095480586,0.40099453800637236"/></g><g fill="none" stroke="#d2870a" stroke-width="5.0e-3" stroke-opacity="1.0"><polyline points="0.5717476925525146,-0.37780609922621744
-0.45507439528962434,0.40099453800637236"/></g><g fill="none" stroke="#d68609" stroke-width="5.0e-3" stroke-opacity="1.0"><polyline points="0.5849120782940805,-0.3865566681838871
-0.46823878103119027,0.40099453800637236"/></g><g fill="none" stroke="#da8508" stroke-width="5.0e-3" stroke-opacity="1.0"><polyline points="0.5980764640356463,-0.3953072371415566
-0.4814031667727562,0.40099453800637236"/></g><g fill="none" stroke="#de8507" stroke-width="5.0e-3" stroke-opacity="1.0"><polyline points="0.6112408497772123,-0.40405780609922626
-0.49456755251432205,0.40099453800637236"/></g><g fill="none" stroke="#e28406" stroke-width="5.0e-3" stroke-opacity="1.0"><polyline points="0.624405235518778,-0.4128083750568957
-0.507731938255888,0.40099453800637236"/></g><g fill="none" stroke="#e78305" stroke-width="5.0e-3" stroke-opacity="1.0"><polyline points="0.6375696212603442,-0.4215589440145654
-0.5208963239974539,0.40099453800637236"/></g><g fill="none" stroke="#eb8304" stroke-width="5.0e-3" stroke-opacity="1.0"><polyline points="0.65073400700191,-0.43030951297223485
-0.5340607097390198,0.40099453800637236"/></g><g fill="none" stroke="#ef8203" stroke-width="5.0e-3" stroke-opacity="1.0"><polyline points="0.6638983927434757,-0.4390600819299044
-0.5472250954805856,0.40099453800637236"/></g><g fill="none" stroke="#f38103" stroke-width="5.0e-3" stroke-opacity="1.0"><polyline points="0.6770627784850417,-0.44781065088757377
-0.5603894812221515,0.40099453800637236"/></g><g fill="none" stroke="#f78102" stroke-width="5.0e-3" stroke-opacity="1.0"><polyline points="0.6902271642266075,-0.45656121984524345
-0.5735538669637174,0.40099453800637236"/></g><g fill="none" stroke="#fb8001" stroke-width="5.0e-3" stroke-opacity="1.0"><polyline points="0.7033915499681732,-0.4653117888029129
-0.5867182527052832,0.40099453800637236"/></g><g fill="none" stroke="#ff8000" stroke-width="5.0e-3" stroke-opacity="1.0"><polyline points="0.7165559357097392,-0.4740623577605826
-0.5998826384468492,0.40099453800637236"/></g></g></g><g class="hud"><g class="frame"><g fill="#ffffff" stroke="#000000" stroke-width="0.0" fill-opacity="2.0e-2" stroke-opacity="0.0"><rect x="-0.6020767027371101" width="1.3208267027371101" y="-0.47624999999999995" height="0.8794321802457896"/></g></g><g class="axis"><g class="ticks"><g class="tickglyph"><g fill="#0d0d0d" stroke="#0d0d0d" stroke-width="4.0e-3" fill-opacity="0.4" stroke-opacity="0.4"><g transform="rotate(-90.0, -0.6284054742202418, 0.40099453800637236)"><polyline points="-0.6284054742202418,0.41599453800637237
-0.6284054742202418,0.38599453800637235"/></g><g transform="rotate(-90.0, -0.6284054742202418, 0.31348884842967684)"><polyline points="-0.6284054742202418,0.32848884842967685
-0.6284054742202418,0.2984888484296768"/></g><g transform="rotate(-90.0, -0.6284054742202418, 0.22598315885298137)"><polyline points="-0.6284054742202418,0.24098315885298138
-0.6284054742202418,0.21098315885298136"/></g><g transform="rotate(-90.0, -0.6284054742202418, 0.13847746927628585)"><polyline points="-0.6284054742202418,0.15347746927628586
-0.6284054742202418,0.12347746927628585"/></g><g transform="rotate(-90.0, -0.6284054742202418, 5.097177969959038e-2)"><polyline points="-0.6284054742202418,6.597177969959038e-2
-0.6284054742202418,3.597177969959038e-2"/></g><g transform="rotate(-90.0, -0.6284054742202418, -3.653390987710514e-2)"><polyline points="-0.6284054742202418,-2.1533909877105142e-2
-0.6284054742202418,-5.153390987710514e-2"/></g><g transform="rotate(-90.0, -0.6284054742202418, -0.12403959945380072)"><polyline points="-0.6284054742202418,-0.10903959945380072
-0.6284054742202418,-0.13903959945380073"/></g><g transform="rotate(-90.0, -0.6284054742202418, -0.21154528903049608)"><polyline points="-0.6284054742202418,-0.19654528903049606
-0.6284054742202418,-0.2265452890304961"/></g><g transform="rotate(-90.0, -0.6284054742202418, -0.29905097860719165)"><polyline points="-0.6284054742202418,-0.28405097860719164
-0.6284054742202418,-0.31405097860719167"/></g><g transform="rotate(-90.0, -0.6284054742202418, -0.3865566681838871)"><polyline points="-0.6284054742202418,-0.3715566681838871
-0.6284054742202418,-0.40155666818388713"/></g><g transform="rotate(-90.0, -0.6284054742202418, -0.4740623577605826)"><polyline points="-0.6284054742202418,-0.4590623577605826
-0.6284054742202418,-0.4890623577605826"/></g></g></g><g class="ticktext"><g fill="#0d0d0d" stroke="none" stroke-width="0.0" font-size="4.388128580521961e-2" fill-opacity="1.0" text-anchor="end"><text x="-0.66" y="0.41302657032316803">0.0</text><text x="-0.66" y="0.3255208807464725">0.10</text><text x="-0.66" y="0.23801519116977699">0.20</text><text x="-0.66" y="0.15050950159308152">0.30</text><text x="-0.66" y="6.3003812016386e-2">0.40</text><text x="-0.66" y="-2.4501877560309526e-2">0.50</text><text x="-0.66" y="-0.11200756713700499">0.60</text><text x="-0.66" y="-0.19951325671370046">0.70</text><text x="-0.66" y="-0.2870189462903959">0.80</text><text x="-0.66" y="-0.3745246358670915">0.90</text><text x="-0.66" y="-0.46203032544378686">1.0</text></g></g><g class="ticklines"><g fill="none" stroke="#0d0d0d" stroke-width="5.0e-3" stroke-opacity="5.0e-2"><polyline points="-0.5998826384468492,0.40099453800637236
0.7165559357097392,0.40099453800637236"/><polyline points="-0.5998826384468492,0.31348884842967684
0.7165559357097392,0.31348884842967684"/><polyline points="-0.5998826384468492,0.22598315885298137
0.7165559357097392,0.22598315885298137"/><polyline points="-0.5998826384468492,0.13847746927628585
0.7165559357097392,0.13847746927628585"/><polyline points="-0.5998826384468492,5.097177969959038e-2
0.7165559357097392,5.097177969959038e-2"/><polyline points="-0.5998826384468492,-3.653390987710514e-2
0.7165559357097392,-3.653390987710514e-2"/><polyline points="-0.5998826384468492,-0.12403959945380072
0.7165559357097392,-0.12403959945380072"/><polyline points="-0.5998826384468492,-0.21154528903049608
0.7165559357097392,-0.21154528903049608"/><polyline points="-0.5998826384468492,-0.29905097860719165
0.7165559357097392,-0.29905097860719165"/><polyline points="-0.5998826384468492,-0.3865566681838871
0.7165559357097392,-0.3865566681838871"/><polyline points="-0.5998826384468492,-0.4740623577605826
0.7165559357097392,-0.4740623577605826"/></g></g></g><g class="axisbar"><g fill="#0d0d0d" stroke="#000000" stroke-width="0.0" fill-opacity="0.4" stroke-opacity="0.0"><rect x="-0.6143634627625716" width="3.510502864417564e-3" y="-0.47581247155211637" height="0.8785571233500227"/></g></g></g><g class="axis"><g class="ticks"><g class="tickglyph"><g fill="#0d0d0d" stroke="#0d0d0d" stroke-width="4.0e-3" fill-opacity="0.4" stroke-opacity="0.4"><polyline points="-0.5998826384468492,0.4444338871187984
-0.5998826384468492,0.41443388711879836"/><polyline points="-0.46823878103119027,0.4444338871187984
-0.46823878103119027,0.41443388711879836"/><polyline points="-0.3365949236155314,0.4444338871187984
-0.3365949236155314,0.41443388711879836"/><polyline points="-0.20495106619987258,0.4444338871187984
-0.20495106619987258,0.41443388711879836"/><polyline points="-7.33072087842137e-2,0.4444338871187984
-7.33072087842137e-2,0.41443388711879836"/><polyline points="5.8336648631445165e-2,0.4444338871187984
5.8336648631445165e-2,0.41443388711879836"/><polyline points="0.18998050604710415,0.4444338871187984
0.18998050604710415,0.41443388711879836"/><polyline points="0.3216243634627628,0.4444338871187984
0.3216243634627628,0.41443388711879836"/><polyline points="0.45326822087842167,0.4444338871187984
0.45326822087842167,0.41443388711879836"/><polyline points="0.5849120782940805,0.4444338871187984
0.5849120782940805,0.41443388711879836"/><polyline points="0.7165559357097392,0.4444338871187984
0.7165559357097392,0.41443388711879836"/></g></g><g class="ticktext"><g fill="#0d0d0d" stroke="none" stroke-width="0.0" font-size="4.388128580521961e-2" fill-opacity="1.0" text-anchor="middle"><text x="-0.5998826384468492" y="0.485">0.0</text><text x="-0.46823878103119027" y="0.485">0.10</text><text x="-0.3365949236155314" y="0.485">0.20</text><text x="-0.20495106619987258" y="0.485">0.30</text><text x="-7.33072087842137e-2" y="0.485">0.40</text><text x="5.8336648631445165e-2" y="0.485">0.50</text><text x="0.18998050604710415" y="0.485">0.60</text><text x="0.3216243634627628" y="0.485">0.70</text><text x="0.45326822087842167" y="0.485">0.80</text><text x="0.5849120782940805" y="0.485">0.90</text><text x="0.7165559357097392" y="0.485">1.0</text></g></g><g class="ticklines"><g fill="none" stroke="#0d0d0d" stroke-width="5.0e-3" stroke-opacity="5.0e-2"><polyline points="-0.5998826384468492,0.40099453800637236
-0.5998826384468492,-0.4740623577605826"/><polyline points="-0.46823878103119027,0.40099453800637236
-0.46823878103119027,-0.4740623577605826"/><polyline points="-0.3365949236155314,0.40099453800637236
-0.3365949236155314,-0.4740623577605826"/><polyline points="-0.20495106619987258,0.40099453800637236
-0.20495106619987258,-0.4740623577605826"/><polyline points="-7.33072087842137e-2,0.40099453800637236
-7.33072087842137e-2,-0.4740623577605826"/><polyline points="5.8336648631445165e-2,0.40099453800637236
5.8336648631445165e-2,-0.4740623577605826"/><polyline points="0.18998050604710415,0.40099453800637236
0.18998050604710415,-0.4740623577605826"/><polyline points="0.3216243634627628,0.40099453800637236
0.3216243634627628,-0.4740623577605826"/><polyline points="0.45326822087842167,0.40099453800637236
0.45326822087842167,-0.4740623577605826"/><polyline points="0.5849120782940805,0.40099453800637236
0.5849120782940805,-0.4740623577605826"/><polyline points="0.7165559357097392,0.40099453800637236
0.7165559357097392,-0.4740623577605826"/></g></g></g><g class="axisbar"><g fill="#0d0d0d" stroke="#000000" stroke-width="0.0" fill-opacity="0.4" stroke-opacity="0.0"><rect x="-0.601637889879058" width="1.3199490770210058" y="0.41193274920345924" height="3.5002275830678387e-3"/></g></g></g></g></svg>