<svg width="430.60097685283495" xmlns:xlink="http://www.w3.org/1999/xlink" xmlns="http://www.w3.org/2000/svg" viewBox="-0.9059999999999999 -0.5462500000000002 1.6897500000000003 1.1772500000000004" height="300.0"><style>svg {
  color-scheme: light dark;
}
{
  .canvas g, .title g, .axisbar g, .ticktext g, .tickglyph g, .ticklines g, .legendContent g text {
    fill: #0d0d0d;
  }
  .ticklines g, .tickglyph g, .legendBorder g {
    stroke: #0d0d0d;
  }
}
@media (prefers-color-scheme:dark) {
  .canvas g, .title g, .axisbar g, .ticktext g, .tickglyph g, .ticklines g, .legendContent g text {
    fill: #f0f0f0;
  }
  .ticklines g, .tickglyph g, .legendBorder g {
    stroke: #f0f0f0;
  }
}</style><g class="blend"><g stroke-opacity="1.0" fill="none" stroke="#ff8000" stroke-width="5.0e-3"><polyline points="-0.75,0.5
0.75,0.5"/></g><g stroke-opacity="1.0" fill="none" stroke="#fb8001" stroke-width="5.0e-3"><polyline points="-0.7349999999999999,0.49
0.7350000000000003,0.5"/></g><g stroke-opacity="1.0" fill="none" stroke="#f78102" stroke-width="5.0e-3"><polyline points="-0.72,0.48000000000000004
0.7199999999999998,0.5"/></g><g stroke-opacity="1.0" fill="none" stroke="#f38203" stroke-width="5.0e-3"><polyline points="-0.705,0.47
0.7050000000000005,0.5"/></g><g stroke-opacity="1.0" fill="none" stroke="#ef8204" stroke-width="5.0e-3"><polyline points="-0.69,0.46
0.69,0.5"/></g><g stroke-opacity="1.0" fill="none" stroke="#ea8304" stroke-width="5.0e-3"><polyline points="-0.675,0.45
0.6749999999999998,0.5"/></g><g stroke-opacity="1.0" fill="none" stroke="#e68405" stroke-width="5.0e-3"><polyline points="-0.66,0.44000000000000006
0.6600000000000001,0.5"/></g><g stroke-opacity="1.0" fill="none" stroke="#e28406" stroke-width="5.0e-3"><polyline points="-0.645,0.43000000000000005
0.645,0.5"/></g><g stroke-opacity="1.0" fill="none" stroke="#de8507" stroke-width="5.0e-3"><polyline points="-0.6300000000000001,0.42
0.6300000000000001,0.5"/></g><g stroke-opacity="1.0" fill="none" stroke="#da8608" stroke-width="5.0e-3"><polyline points="-0.6149999999999999,0.4100000000000001
0.615,0.5"/></g><g stroke-opacity="1.0" fill="none" stroke="#d68609" stroke-width="5.0e-3"><polyline points="-0.6,0.4
0.6000000000000003,0.5"/></g><g stroke-opacity="1.0" fill="none" stroke="#d2870a" stroke-width="5.0e-3"><polyline points="-0.585,0.39
0.5850000000000002,0.5"/></g><g stroke-opacity="1.0" fill="none" stroke="#ce880b" stroke-width="5.0e-3"><polyline points="-0.5700000000000001,0.38
0.5700000000000001,0.5"/></g><g stroke-opacity="1.0" fill="none" stroke="#c9880b" stroke-width="5.0e-3"><polyline points="-0.5549999999999999,0.37000000000000005
0.5549999999999999,0.5"/></g><g stroke-opacity="1.0" fill="none" stroke="#c5890c" stroke-width="5.0e-3"><polyline points="-0.54,0.36
0.5400000000000003,0.5"/></g><g stroke-opacity="1.0" fill="none" stroke="#c18a0d" stroke-width="5.0e-3"><polyline points="-0.525,0.35
0.5250000000000001,0.5"/></g><g stroke-opacity="1.0" fill="none" stroke="#bd8a0e" stroke-width="5.0e-3"><polyline points="-0.51,0.33999999999999997
0.51,0.5"/></g><g stroke-opacity="1.0" fill="none" stroke="#b98b0f" stroke-width="5.0e-3"><polyline points="-0.49499999999999994,0.32999999999999996
0.4950000000000001,0.5"/></g><g stroke-opacity="1.0" fill="none" stroke="#b58c10" stroke-width="5.0e-3"><polyline points="-0.4799999999999999,0.32
0.4800000000000002,0.5"/></g><g stroke-opacity="1.0" fill="none" stroke="#b18c11" stroke-width="5.0e-3"><polyline points="-0.4649999999999999,0.31000000000000005
0.4650000000000001,0.5"/></g><g stroke-opacity="1.0" fill="none" stroke="#ad8d12" stroke-width="5.0e-3"><polyline points="-0.4499999999999999,0.29999999999999993
0.4500000000000002,0.5"/></g><g stroke-opacity="1.0" fill="none" stroke="#a88e12" stroke-width="5.0e-3"><polyline points="-0.435,0.29000000000000004
0.43500000000000005,0.5"/></g><g stroke-opacity="1.0" fill="none" stroke="#a48e13" stroke-width="5.0e-3"><polyline points="-0.42000000000000004,0.28
0.42000000000000015,0.5"/></g><g stroke-opacity="1.0" fill="none" stroke="#a08f14" stroke-width="5.0e-3"><polyline points="-0.4049999999999999,0.27
0.4049999999999998,0.5"/></g><g stroke-opacity="1.0" fill="none" stroke="#9c9015" stroke-width="5.0e-3"><polyline points="-0.39,0.26
0.3900000000000001,0.5"/></g><g stroke-opacity="1.0" fill="none" stroke="#989016" stroke-width="5.0e-3"><polyline points="-0.375,0.25
0.375,0.5"/></g><g stroke-opacity="1.0" fill="none" stroke="#949117" stroke-width="5.0e-3"><polyline points="-0.36,0.23999999999999994
0.3600000000000001,0.5"/></g><g stroke-opacity="1.0" fill="none" stroke="#909218" stroke-width="5.0e-3"><polyline points="-0.3449999999999999,0.22999999999999998
0.34499999999999975,0.5"/></g><g stroke-opacity="1.0" fill="none" stroke="#8c9219" stroke-width="5.0e-3"><polyline points="-0.3299999999999999,0.21999999999999997
0.33000000000000007,0.5"/></g><g stroke-opacity="1.0" fill="none" stroke="#879319" stroke-width="5.0e-3"><polyline points="-0.31500000000000006,0.21000000000000002
0.31499999999999995,0.5"/></g><g stroke-opacity="1.0" fill="none" stroke="#83941a" stroke-width="5.0e-3"><polyline points="-0.29999999999999993,0.19999999999999996
0.2999999999999998,0.5"/></g><g stroke-opacity="1.0" fill="none" stroke="#7f941b" stroke-width="5.0e-3"><polyline points="-0.2850000000000001,0.19
0.28500000000000014,0.5"/></g><g stroke-opacity="1.0" fill="none" stroke="#7b951c" stroke-width="5.0e-3"><polyline points="-0.2699999999999999,0.17999999999999994
0.27,0.5"/></g><g stroke-opacity="1.0" fill="none" stroke="#77961d" stroke-width="5.0e-3"><polyline points="-0.25500000000000006,0.16999999999999993
0.2550000000000001,0.5"/></g><g stroke-opacity="1.0" fill="none" stroke="#73961e" stroke-width="5.0e-3"><polyline points="-0.24,0.15999999999999986
0.23999999999999988,0.5"/></g><g stroke-opacity="1.0" fill="none" stroke="#6f971f" stroke-width="5.0e-3"><polyline points="-0.22499999999999998,0.14999999999999997
0.2250000000000003,0.5"/></g><g stroke-opacity="1.0" fill="none" stroke="#6b9820" stroke-width="5.0e-3"><polyline points="-0.20999999999999996,0.13999999999999996
0.2100000000000002,0.5"/></g><g stroke-opacity="1.0" fill="none" stroke="#679820" stroke-width="5.0e-3"><polyline points="-0.19500000000000006,0.12999999999999995
0.19499999999999995,0.5"/></g><g stroke-opacity="1.0" fill="none" stroke="#629921" stroke-width="5.0e-3"><polyline points="-0.17999999999999994,0.11999999999999994
0.17999999999999983,0.5"/></g><g stroke-opacity="1.0" fill="none" stroke="#5e9a22" stroke-width="5.0e-3"><polyline points="-0.16500000000000004,0.10999999999999993
0.16500000000000004,0.5"/></g><g stroke-opacity="1.0" fill="none" stroke="#5a9a23" stroke-width="5.0e-3"><polyline points="-0.15000000000000002,9.999999999999987e-2
0.15000000000000002,0.5"/></g><g stroke-opacity="1.0" fill="none" stroke="#569b24" stroke-width="5.0e-3"><polyline points="-0.135,8.999999999999991e-2
0.1349999999999999,0.5"/></g><g stroke-opacity="1.0" fill="none" stroke="#529c25" stroke-width="5.0e-3"><polyline points="-0.12,8.000000000000002e-2
0.11999999999999977,0.5"/></g><g stroke-opacity="1.0" fill="none" stroke="#4e9c26" stroke-width="5.0e-3"><polyline points="-0.10499999999999998,7.0e-2
0.10499999999999998,0.5"/></g><g stroke-opacity="1.0" fill="none" stroke="#4a9d27" stroke-width="5.0e-3"><polyline points="-8.999999999999986e-2,6.0e-2
8.999999999999997e-2,0.5"/></g><g stroke-opacity="1.0" fill="none" stroke="#469e27" stroke-width="5.0e-3"><polyline points="-7.499999999999996e-2,4.999999999999999e-2
7.499999999999996e-2,0.5"/></g><g stroke-opacity="1.0" fill="none" stroke="#419e28" stroke-width="5.0e-3"><polyline points="-5.999999999999994e-2,3.999999999999998e-2
6.000000000000005e-2,0.5"/></g><g stroke-opacity="1.0" fill="none" stroke="#3d9f29" stroke-width="5.0e-3"><polyline points="-4.499999999999993e-2,3.0000000000000027e-2
4.500000000000015e-2,0.5"/></g><g stroke-opacity="1.0" fill="none" stroke="#39a02a" stroke-width="5.0e-3"><polyline points="-3.0000000000000027e-2,1.9999999999999907e-2
3.0000000000000027e-2,0.5"/></g><g stroke-opacity="1.0" fill="none" stroke="#35a02b" stroke-width="5.0e-3"><polyline points="-1.5000000000000124e-2,9.999999999999953e-3
1.4999999999999902e-2,0.5"/></g><g stroke-opacity="1.0" fill="none" stroke="#35a02b" stroke-width="5.0e-3"><polyline points="0.0,-1.1102230246251565e-16
0.0,0.5"/></g><g stroke-opacity="1.0" fill="none" stroke="#39a02a" stroke-width="5.0e-3"><polyline points="1.4999999999999902e-2,-1.000000000000012e-2
-1.5000000000000124e-2,0.5"/></g><g stroke-opacity="1.0" fill="none" stroke="#3d9f29" stroke-width="5.0e-3"><polyline points="3.0000000000000027e-2,-2.000000000000013e-2
-3.0000000000000027e-2,0.5"/></g><g stroke-opacity="1.0" fill="none" stroke="#419e28" stroke-width="5.0e-3"><polyline points="4.500000000000015e-2,-3.0000000000000138e-2
-4.499999999999993e-2,0.5"/></g><g stroke-opacity="1.0" fill="none" stroke="#469e27" stroke-width="5.0e-3"><polyline points="6.000000000000005e-2,-4.0000000000000036e-2
-5.999999999999994e-2,0.5"/></g><g stroke-opacity="1.0" fill="none" stroke="#4a9d27" stroke-width="5.0e-3"><polyline points="7.499999999999996e-2,-5.0000000000000044e-2
-7.499999999999996e-2,0.5"/></g><g stroke-opacity="1.0" fill="none" stroke="#4e9c26" stroke-width="5.0e-3"><polyline points="8.999999999999997e-2,-6.0000000000000164e-2
-8.999999999999986e-2,0.5"/></g><g stroke-opacity="1.0" fill="none" stroke="#529c25" stroke-width="5.0e-3"><polyline points="0.10499999999999998,-7.000000000000028e-2
-0.10499999999999998,0.5"/></g><g stroke-opacity="1.0" fill="none" stroke="#569b24" stroke-width="5.0e-3"><polyline points="0.11999999999999977,-8.000000000000018e-2
-0.12,0.5"/></g><g stroke-opacity="1.0" fill="none" stroke="#5a9a23" stroke-width="5.0e-3"><polyline points="0.1349999999999999,-8.999999999999986e-2
-0.135,0.5"/></g><g stroke-opacity="1.0" fill="none" stroke="#5e9a22" stroke-width="5.0e-3"><polyline points="0.15000000000000002,-9.999999999999998e-2
-0.15000000000000002,0.5"/></g><g stroke-opacity="1.0" fill="none" stroke="#629921" stroke-width="5.0e-3"><polyline points="0.16500000000000004,-0.11000000000000021
-0.16500000000000004,0.5"/></g><g stroke-opacity="1.0" fill="none" stroke="#679820" stroke-width="5.0e-3"><polyline points="0.17999999999999983,-0.12
-0.17999999999999994,0.5"/></g><g stroke-opacity="1.0" fill="none" stroke="#6b9820" stroke-width="5.0e-3"><polyline points="0.19499999999999995,-0.13000000000000012
-0.19500000000000006,0.5"/></g><g stroke-opacity="1.0" fill="none" stroke="#6f971f" stroke-width="5.0e-3"><polyline points="0.2100000000000002,-0.14000000000000024
-0.20999999999999996,0.5"/></g><g stroke-opacity="1.0" fill="none" stroke="#73961e" stroke-width="5.0e-3"><polyline points="0.2250000000000003,-0.15000000000000002
-0.22499999999999998,0.5"/></g><g stroke-opacity="1.0" fill="none" stroke="#77961d" stroke-width="5.0e-3"><polyline points="0.23999999999999988,-0.16000000000000014
-0.24,0.5"/></g><g stroke-opacity="1.0" fill="none" stroke="#7b951c" stroke-width="5.0e-3"><polyline points="0.2550000000000001,-0.17000000000000004
-0.25500000000000006,0.5"/></g><g stroke-opacity="1.0" fill="none" stroke="#7f941b" stroke-width="5.0e-3"><polyline points="0.27,-0.18000000000000016
-0.2699999999999999,0.5"/></g><g stroke-opacity="1.0" fill="none" stroke="#83941a" stroke-width="5.0e-3"><polyline points="0.28500000000000014,-0.19000000000000028
-0.2850000000000001,0.5"/></g><g stroke-opacity="1.0" fill="none" stroke="#879319" stroke-width="5.0e-3"><polyline points="0.2999999999999998,-0.20000000000000018
-0.29999999999999993,0.5"/></g><g stroke-opacity="1.0" fill="none" stroke="#8c9219" stroke-width="5.0e-3"><polyline points="0.31499999999999995,-0.21000000000000008
-0.31500000000000006,0.5"/></g><g stroke-opacity="1.0" fill="none" stroke="#909218" stroke-width="5.0e-3"><polyline points="0.33000000000000007,-0.22000000000000008
-0.3299999999999999,0.5"/></g><g stroke-opacity="1.0" fill="none" stroke="#949117" stroke-width="5.0e-3"><polyline points="0.34499999999999975,-0.2300000000000002
-0.3449999999999999,0.5"/></g><g stroke-opacity="1.0" fill="none" stroke="#989016" stroke-width="5.0e-3"><polyline points="0.3600000000000001,-0.2400000000000001
-0.36,0.5"/></g><g stroke-opacity="1.0" fill="none" stroke="#9c9015" stroke-width="5.0e-3"><polyline points="0.375,-0.2500000000000002
-0.375,0.5"/></g><g stroke-opacity="1.0" fill="none" stroke="#a08f14" stroke-width="5.0e-3"><polyline points="0.3900000000000001,-0.26
-0.39,0.5"/></g><g stroke-opacity="1.0" fill="none" stroke="#a48e13" stroke-width="5.0e-3"><polyline points="0.4049999999999998,-0.27000000000000013
-0.4049999999999999,0.5"/></g><g stroke-opacity="1.0" fill="none" stroke="#a88e12" stroke-width="5.0e-3"><polyline points="0.42000000000000015,-0.28000000000000014
-0.42000000000000004,0.5"/></g><g stroke-opacity="1.0" fill="none" stroke="#ad8d12" stroke-width="5.0e-3"><polyline points="0.43500000000000005,-0.29000000000000004
-0.435,0.5"/></g><g stroke-opacity="1.0" fill="none" stroke="#b18c11" stroke-width="5.0e-3"><polyline points="0.4500000000000002,-0.30000000000000016
-0.4499999999999999,0.5"/></g><g stroke-opacity="1.0" fill="none" stroke="#b58c10" stroke-width="5.0e-3"><polyline points="0.4650000000000001,-0.3100000000000003
-0.4649999999999999,0.5"/></g><g stroke-opacity="1.0" fill="none" stroke="#b98b0f" stroke-width="5.0e-3"><polyline points="0.4800000000000002,-0.3200000000000002
-0.4799999999999999,0.5"/></g><g stroke-opacity="1.0" fill="none" stroke="#bd8a0e" stroke-width="5.0e-3"><polyline points="0.4950000000000001,-0.3300000000000003
-0.49499999999999994,0.5"/></g><g stroke-opacity="1.0" fill="none" stroke="#c18a0d" stroke-width="5.0e-3"><polyline points="0.51,-0.3400000000000001
-0.51,0.5"/></g><g stroke-opacity="1.0" fill="none" stroke="#c5890c" stroke-width="5.0e-3"><polyline points="0.5250000000000001,-0.3500000000000002
-0.525,0.5"/></g><g stroke-opacity="1.0" fill="none" stroke="#c9880b" stroke-width="5.0e-3"><polyline points="0.5400000000000003,-0.3600000000000001
-0.54,0.5"/></g><g stroke-opacity="1.0" fill="none" stroke="#ce880b" stroke-width="5.0e-3"><polyline points="0.5549999999999999,-0.3700000000000002
-0.5549999999999999,0.5"/></g><g stroke-opacity="1.0" fill="none" stroke="#d2870a" stroke-width="5.0e-3"><polyline points="0.5700000000000001,-0.3800000000000001
-0.5700000000000001,0.5"/></g><g stroke-opacity="1.0" fill="none" stroke="#d68609" stroke-width="5.0e-3"><polyline points="0.5850000000000002,-0.39000000000000024
-0.585,0.5"/></g><g stroke-opacity="1.0" fill="none" stroke="#da8608" stroke-width="5.0e-3"><polyline points="0.6000000000000003,-0.40000000000000036
-0.6,0.5"/></g><g stroke-opacity="1.0" fill="none" stroke="#de8507" stroke-width="5.0e-3"><polyline points="0.615,-0.41000000000000003
-0.6149999999999999,0.5"/></g><g stroke-opacity="1.0" fill="none" stroke="#e28406" stroke-width="5.0e-3"><polyline points="0.6300000000000001,-0.42000000000000026
-0.6300000000000001,0.5"/></g><g stroke-opacity="1.0" fill="none" stroke="#e68405" stroke-width="5.0e-3"><polyline points="0.645,-0.43000000000000005
-0.645,0.5"/></g><g stroke-opacity="1.0" fill="none" stroke="#ea8304" stroke-width="5.0e-3"><polyline points="0.6600000000000001,-0.4400000000000005
-0.66,0.5"/></g><g stroke-opacity="1.0" fill="none" stroke="#ef8204" stroke-width="5.0e-3"><polyline points="0.6749999999999998,-0.45000000000000007
-0.675,0.5"/></g><g stroke-opacity="1.0" fill="none" stroke="#f38203" stroke-width="5.0e-3"><polyline points="0.69,-0.4600000000000002
-0.69,0.5"/></g><g stroke-opacity="1.0" fill="none" stroke="#f78102" stroke-width="5.0e-3"><polyline points="0.7050000000000005,-0.47
-0.705,0.5"/></g><g stroke-opacity="1.0" fill="none" stroke="#fb8001" stroke-width="5.0e-3"><polyline points="0.7199999999999998,-0.4800000000000001
-0.72,0.5"/></g><g stroke-opacity="1.0" fill="none" stroke="#ff8000" stroke-width="5.0e-3"><polyline points="0.7350000000000003,-0.4900000000000002
-0.7349999999999999,0.5"/></g></g><g class="hud"><g class="canvas"><g stroke-opacity="0.0" fill="#ffffff" stroke="#000000" stroke-width="0.0" fill-opacity="2.0e-2"><rect width="1.5050000000000003" x="-0.7525" y="-0.5" height="1.0025"/></g></g><g class="axis"><g class="ticks"><g class="tickglyph"><g stroke-opacity="0.4" fill="#0d0d0d" stroke="#0d0d0d" stroke-width="4.0e-3" fill-opacity="0.4"><g transform="rotate(-90.0, -0.7825, 0.5025)"><polyline points="-0.7825,0.5175
-0.7825,0.48749999999999993"/></g><g transform="rotate(-90.0, -0.7825, 0.40225)"><polyline points="-0.7825,0.41725
-0.7825,0.38725"/></g><g transform="rotate(-90.0, -0.7825, 0.30199999999999994)"><polyline points="-0.7825,0.31699999999999995
-0.7825,0.2869999999999999"/></g><g transform="rotate(-90.0, -0.7825, 0.20174999999999987)"><polyline points="-0.7825,0.2167499999999999
-0.7825,0.18674999999999986"/></g><g transform="rotate(-90.0, -0.7825, 0.10149999999999987)"><polyline points="-0.7825,0.11649999999999987
-0.7825,8.649999999999987e-2"/></g><g transform="rotate(-90.0, -0.7825, 1.2499999999998623e-3)"><polyline points="-0.7825,1.6249999999999862e-2
-0.7825,-1.3750000000000137e-2"/></g><g transform="rotate(-90.0, -0.7825, -9.900000000000031e-2)"><polyline points="-0.7825,-8.400000000000031e-2
-0.7825,-0.11400000000000031"/></g><g transform="rotate(-90.0, -0.7825, -0.19925000000000015)"><polyline points="-0.7825,-0.18425000000000014
-0.7825,-0.21425000000000016"/></g><g transform="rotate(-90.0, -0.7825, -0.2995000000000001)"><polyline points="-0.7825,-0.2845000000000001
-0.7825,-0.3145000000000001"/></g><g transform="rotate(-90.0, -0.7825, -0.39975000000000016)"><polyline points="-0.7825,-0.38475000000000015
-0.7825,-0.4147500000000002"/></g><g transform="rotate(-90.0, -0.7825, -0.5)"><polyline points="-0.7825,-0.485
-0.7825,-0.515"/></g></g></g><g class="ticktext"><g fill="#0d0d0d" stroke="none" stroke-width="0.0" font-size="5.0e-2" fill-opacity="1.0" text-anchor="end"><text x="-0.8184999999999999" y="0.51625">0</text><text x="-0.8184999999999999" y="0.416">0.1</text><text x="-0.8184999999999999" y="0.3157499999999999">0.2</text><text x="-0.8184999999999999" y="0.21549999999999986">0.3</text><text x="-0.8184999999999999" y="0.11524999999999991">0.4</text><text x="-0.8184999999999999" y="1.5000000000000013e-2">0.5</text><text x="-0.8184999999999999" y="-8.525000000000005e-2">0.6</text><text x="-0.8184999999999999" y="-0.1855">0.7</text><text x="-0.8184999999999999" y="-0.28575000000000017">0.8</text><text x="-0.8184999999999999" y="-0.3860000000000001">0.9</text><text x="-0.8184999999999999" y="-0.4862500000000002">1</text></g></g><g class="ticklines"><g stroke-opacity="5.0e-2" fill="none" stroke="#0d0d0d" stroke-width="5.0e-3"><polyline points="-0.7525,0.5025
0.7525000000000004,0.5025"/><polyline points="-0.7525,0.40225
0.7525000000000004,0.40225"/><polyline points="-0.7525,0.30199999999999994
0.7525000000000004,0.30199999999999994"/><polyline points="-0.7525,0.20174999999999987
0.7525000000000004,0.20174999999999987"/><polyline points="-0.7525,0.10149999999999987
0.7525000000000004,0.10149999999999987"/><polyline points="-0.7525,1.2499999999998623e-3
0.7525000000000004,1.2499999999998623e-3"/><polyline points="-0.7525,-9.900000000000031e-2
0.7525000000000004,-9.900000000000031e-2"/><polyline points="-0.7525,-0.19925000000000015
0.7525000000000004,-0.19925000000000015"/><polyline points="-0.7525,-0.2995000000000001
0.7525000000000004,-0.2995000000000001"/><polyline points="-0.7525,-0.39975000000000016
0.7525000000000004,-0.39975000000000016"/><polyline points="-0.7525,-0.5
0.7525000000000004,-0.5"/></g></g></g><g class="axisbar"><g stroke-opacity="0.0" fill="#0d0d0d" stroke="#000000" stroke-width="0.0" fill-opacity="0.4"><rect width="4.0000000000000036e-3" x="-0.7665" y="-0.5020000000000002" height="1.0065000000000002"/></g></g></g><g class="axis"><g class="ticks"><g class="tickglyph"><g stroke-opacity="0.4" fill="#0d0d0d" stroke="#0d0d0d" stroke-width="4.0e-3" fill-opacity="0.4"><polyline points="-0.7525,0.5475
-0.7525,0.5175"/><polyline points="-0.602,0.5475
-0.602,0.5175"/><polyline points="-0.45149999999999996,0.5475
-0.45149999999999996,0.5175"/><polyline points="-0.3009999999999998,0.5475
-0.3009999999999998,0.5175"/><polyline points="-0.15049999999999986,0.5475
-0.15049999999999986,0.5175"/><polyline points="0.0,0.5475
0.0,0.5175"/><polyline points="0.1505000000000003,0.5475
0.1505000000000003,0.5175"/><polyline points="0.3010000000000004,0.5475
0.3010000000000004,0.5175"/><polyline points="0.4514999999999998,0.5475
0.4514999999999998,0.5175"/><polyline points="0.6020000000000001,0.5475
0.6020000000000001,0.5175"/><polyline points="0.7525000000000004,0.5475
0.7525000000000004,0.5175"/></g></g><g class="ticktext"><g fill="#0d0d0d" stroke="none" stroke-width="0.0" font-size="5.0e-2" fill-opacity="1.0" text-anchor="middle"><text x="-0.7525" y="0.596">0</text><text x="-0.602" y="0.596">0.1</text><text x="-0.45149999999999996" y="0.596">0.2</text><text x="-0.3009999999999998" y="0.596">0.3</text><text x="-0.15049999999999986" y="0.596">0.4</text><text x="0.0" y="0.596">0.5</text><text x="0.1505000000000003" y="0.596">0.6</text><text x="0.3010000000000004" y="0.596">0.7</text><text x="0.4514999999999998" y="0.596">0.8</text><text x="0.6020000000000001" y="0.596">0.9</text><text x="0.7525000000000004" y="0.596">1</text></g></g><g class="ticklines"><g stroke-opacity="5.0e-2" fill="none" stroke="#0d0d0d" stroke-width="5.0e-3"><polyline points="-0.7525,0.5025
-0.7525,-0.5"/><polyline points="-0.602,0.5025
-0.602,-0.5"/><polyline points="-0.45149999999999996,0.5025
-0.45149999999999996,-0.5"/><polyline points="-0.3009999999999998,0.5025
-0.3009999999999998,-0.5"/><polyline points="-0.15049999999999986,0.5025
-0.15049999999999986,-0.5"/><polyline points="0.0,0.5025
0.0,-0.5"/><polyline points="0.1505000000000003,0.5025
0.1505000000000003,-0.5"/><polyline points="0.3010000000000004,0.5025
0.3010000000000004,-0.5"/><polyline points="0.4514999999999998,0.5025
0.4514999999999998,-0.5"/><polyline points="0.6020000000000001,0.5025
0.6020000000000001,-0.5"/><polyline points="0.7525000000000004,0.5025
0.7525000000000004,-0.5"/></g></g></g><g class="axisbar"><g stroke-opacity="0.0" fill="#0d0d0d" stroke="#000000" stroke-width="0.0" fill-opacity="0.4"><rect width="1.509" x="-0.7545" y="0.5125" height="4.0000000000000036e-3"/></g></g></g></g></svg>