<svg width="442.0025373499592" xmlns:xlink="http://www.w3.org/1999/xlink" xmlns="http://www.w3.org/2000/svg" viewBox="-0.7809320658688956 -0.5290246587619616 1.5531184790426749 1.0541467623836154" height="300.0"><style>svg {
  color-scheme: light dark;
}
@media (prefers-color-scheme:dark) {
  svg {
    background-color: #f0f0f0;
  }
}</style><g stroke-opacity="0.0" fill="#0d0d0d" stroke="#000000" stroke-width="0.0" fill-opacity="2.0e-2"><rect width="1.3527227852958772" x="-0.6155363721220981" y="-0.47502303557699843" height="0.8447156424163402"/></g><g stroke-opacity="5.0e-2" fill="none" stroke="#0d0d0d" stroke-width="5.0e-3"><polyline points="-0.6155363721220981,0.36969260683934174
0.7371864131737791,0.36969260683934174"/><polyline points="-0.6155363721220981,0.2852210425977078
0.7371864131737791,0.2852210425977078"/><polyline points="-0.6155363721220981,0.20074947835607382
0.7371864131737791,0.20074947835607382"/><polyline points="-0.6155363721220981,0.11627791411443972
0.7371864131737791,0.11627791411443972"/><polyline points="-0.6155363721220981,3.180634987280573e-2
0.7371864131737791,3.180634987280573e-2"/><polyline points="-0.6155363721220981,-5.266521436882832e-2
0.7371864131737791,-5.266521436882832e-2"/><polyline points="-0.6155363721220981,-0.13713677861046225
0.7371864131737791,-0.13713677861046225"/><polyline points="-0.6155363721220981,-0.2216083428520963
0.7371864131737791,-0.2216083428520963"/><polyline points="-0.6155363721220981,-0.30607990709373023
0.7371864131737791,-0.30607990709373023"/><polyline points="-0.6155363721220981,-0.3905514713353645
0.7371864131737791,-0.3905514713353645"/><polyline points="-0.6155363721220981,-0.47502303557699843
0.7371864131737791,-0.47502303557699843"/></g><g fill="#0d0d0d" stroke="none" stroke-width="0.0" font-size="5.0e-2" fill-opacity="1.0" text-anchor="end"><text x="-0.6859320658688955" y="0.3819409836543787">0</text><text x="-0.6859320658688955" y="0.29746941941274474">0.1</text><text x="-0.6859320658688955" y="0.21299785517111075">0.2</text><text x="-0.6859320658688955" y="0.1285262909294767">0.3</text><text x="-0.6859320658688955" y="4.405472668784266e-2">0.4</text><text x="-0.6859320658688955" y="-4.041683755379133e-2">0.5</text><text x="-0.6859320658688955" y="-0.12488840179542549">0.6</text><text x="-0.6859320658688955" y="-0.20935996603705942">0.7</text><text x="-0.6859320658688955" y="-0.29383153027869346">0.8</text><text x="-0.6859320658688955" y="-0.3783030945203273">0.9</text><text x="-0.6859320658688955" y="-0.46277465876196155">1</text></g><g stroke-opacity="0.4" fill="#0d0d0d" stroke="#0d0d0d" stroke-width="4.0e-3" fill-opacity="0.4"><g transform="rotate(-90.0, -0.6570198708711716, 0.36969260683934174)"><polyline points="-0.6570198708711716,0.38469260683934176
-0.6570198708711716,0.35469260683934173"/></g><g transform="rotate(-90.0, -0.6570198708711716, 0.2852210425977078)"><polyline points="-0.6570198708711716,0.3002210425977078
-0.6570198708711716,0.2702210425977078"/></g><g transform="rotate(-90.0, -0.6570198708711716, 0.20074947835607382)"><polyline points="-0.6570198708711716,0.21574947835607383
-0.6570198708711716,0.1857494783560738"/></g><g transform="rotate(-90.0, -0.6570198708711716, 0.11627791411443972)"><polyline points="-0.6570198708711716,0.13127791411443973
-0.6570198708711716,0.10127791411443972"/></g><g transform="rotate(-90.0, -0.6570198708711716, 3.180634987280573e-2)"><polyline points="-0.6570198708711716,4.680634987280573e-2
-0.6570198708711716,1.680634987280573e-2"/></g><g transform="rotate(-90.0, -0.6570198708711716, -5.266521436882832e-2)"><polyline points="-0.6570198708711716,-3.766521436882832e-2
-0.6570198708711716,-6.766521436882832e-2"/></g><g transform="rotate(-90.0, -0.6570198708711716, -0.13713677861046225)"><polyline points="-0.6570198708711716,-0.12213677861046225
-0.6570198708711716,-0.15213677861046226"/></g><g transform="rotate(-90.0, -0.6570198708711716, -0.2216083428520963)"><polyline points="-0.6570198708711716,-0.20660834285209628
-0.6570198708711716,-0.2366083428520963"/></g><g transform="rotate(-90.0, -0.6570198708711716, -0.30607990709373023)"><polyline points="-0.6570198708711716,-0.2910799070937302
-0.6570198708711716,-0.32107990709373024"/></g><g transform="rotate(-90.0, -0.6570198708711716, -0.3905514713353645)"><polyline points="-0.6570198708711716,-0.3755514713353645
-0.6570198708711716,-0.4055514713353645"/></g><g transform="rotate(-90.0, -0.6570198708711716, -0.47502303557699843)"><polyline points="-0.6570198708711716,-0.4600230355769984
-0.6570198708711716,-0.49002303557699844"/></g></g><g stroke-opacity="0.0" fill="#0d0d0d" stroke="#000000" stroke-width="0.0" fill-opacity="0.4"><rect width="3.6072607607890994e-3" x="-0.6416890126378184" y="-0.4767124668618311" height="0.8480945049860056"/></g><g stroke-opacity="5.0e-2" fill="none" stroke="#0d0d0d" stroke-width="5.0e-3"><polyline points="-0.6155363721220981,0.36969260683934174
-0.6155363721220981,-0.47502303557699843"/><polyline points="-0.4802640935925103,0.36969260683934174
-0.4802640935925103,-0.47502303557699843"/><polyline points="-0.34499181506292265,0.36969260683934174
-0.34499181506292265,-0.47502303557699843"/><polyline points="-0.20971953653333486,0.36969260683934174
-0.20971953653333486,-0.47502303557699843"/><polyline points="-7.444725800374707e-2,0.36969260683934174
-7.444725800374707e-2,-0.47502303557699843"/><polyline points="6.082502052584071e-2,0.36969260683934174
6.082502052584071e-2,-0.47502303557699843"/><polyline points="0.19609729905542816,0.36969260683934174
0.19609729905542816,-0.47502303557699843"/><polyline points="0.33136957758501606,0.36969260683934174
0.33136957758501606,-0.47502303557699843"/><polyline points="0.46664185611460374,0.36969260683934174
0.46664185611460374,-0.47502303557699843"/><polyline points="0.6019141346441914,0.36969260683934174
0.6019141346441914,-0.47502303557699843"/><polyline points="0.7371864131737791,0.36969260683934174
0.7371864131737791,-0.47502303557699843"/></g><g fill="#0d0d0d" stroke="none" stroke-width="0.0" font-size="5.0e-2" fill-opacity="1.0" text-anchor="middle"><text x="-0.6155363721220981" y="0.47887210362165383">0</text><text x="-0.4802640935925103" y="0.47887210362165383">0.1</text><text x="-0.34499181506292265" y="0.47887210362165383">0.2</text><text x="-0.20971953653333486" y="0.47887210362165383">0.3</text><text x="-7.444725800374707e-2" y="0.47887210362165383">0.4</text><text x="6.082502052584071e-2" y="0.47887210362165383">0.5</text><text x="0.19609729905542816" y="0.47887210362165383">0.6</text><text x="0.33136957758501606" y="0.47887210362165383">0.7</text><text x="0.46664185611460374" y="0.47887210362165383">0.8</text><text x="0.6019141346441914" y="0.47887210362165383">0.9</text><text x="0.7371864131737791" y="0.47887210362165383">1</text></g><g stroke-opacity="0.4" fill="#0d0d0d" stroke="#0d0d0d" stroke-width="4.0e-3" fill-opacity="0.4"><polyline points="-0.6155363721220981,0.4235495263904935
-0.6155363721220981,0.39354952639049345"/><polyline points="-0.4802640935925103,0.4235495263904935
-0.4802640935925103,0.39354952639049345"/><polyline points="-0.34499181506292265,0.4235495263904935
-0.34499181506292265,0.39354952639049345"/><polyline points="-0.20971953653333486,0.4235495263904935
-0.20971953653333486,0.39354952639049345"/><polyline points="-7.444725800374707e-2,0.4235495263904935
-7.444725800374707e-2,0.39354952639049345"/><polyline points="6.082502052584071e-2,0.4235495263904935
6.082502052584071e-2,0.39354952639049345"/><polyline points="0.19609729905542816,0.4235495263904935
0.19609729905542816,0.39354952639049345"/><polyline points="0.33136957758501606,0.4235495263904935
0.33136957758501606,0.39354952639049345"/><polyline points="0.46664185611460374,0.4235495263904935
0.46664185611460374,0.39354952639049345"/><polyline points="0.6019141346441914,0.4235495263904935
0.6019141346441914,0.39354952639049345"/><polyline points="0.7371864131737791,0.4235495263904935
0.7371864131737791,0.39354952639049345"/></g><g stroke-opacity="0.0" fill="#0d0d0d" stroke="#000000" stroke-width="0.0" fill-opacity="0.4"><rect width="1.3563300460566663" x="-0.6173400025024925" y="0.3908104978997503" height="3.378862569665353e-3"/></g><g stroke-opacity="1.0" fill="#b05929" stroke="#1f78b5" stroke-width="1.0e-2" fill-opacity="1.0"><circle cx="-0.6155363721220981" cy="0.36969260683934174" r="1.0e-2"/><circle cx="0.7371864131737791" cy="0.36969260683934174" r="1.0e-2"/></g><g stroke-opacity="1.0" fill="#a6cfe3" stroke="#1f78b5" stroke-width="1.0e-2" fill-opacity="1.0"><rect width="2.0000000000000018e-2" x="-0.49026409359251033" y="0.2752210425977078" height="2.0000000000000018e-2"/><rect width="2.0000000000000018e-2" x="0.5919141346441914" y="0.35969260683934173" height="2.0000000000000018e-2"/></g><g stroke-opacity="1.0" fill="#1f78b5" stroke="#1f78b5" stroke-width="1.0e-2" fill-opacity="1.0"><rect width="2.0000000000000018e-2" x="-0.35499181506292266" y="0.1932494783560738" height="1.5000000000000013e-2"/><rect width="2.0000000000000018e-2" x="0.45664185611460373" y="0.36219260683934174" height="1.5000000000000013e-2"/></g><g stroke-opacity="1.0" fill="#e31a1c" stroke="#1f78b5" stroke-width="1.0e-2" fill-opacity="1.0"><rect width="2.0000000000000018e-2" x="-0.21971953653333487" y="0.10877791411443971" height="1.5000000000000013e-2" ry="1.0e-2" rx="1.0e-2"/><rect width="2.0000000000000018e-2" x="0.32136957758501605" y="0.36219260683934174" height="1.5000000000000013e-2" ry="1.0e-2" rx="1.0e-2"/></g><g stroke-opacity="1.0" fill="#b2de8a" stroke="#1f78b5" stroke-width="1.0e-2" fill-opacity="1.0"><ellipse cx="-7.444725800374707e-2" cy="3.180634987280573e-2" ry="7.5e-3" rx="1.0e-2"/><ellipse cx="0.19609729905542816" cy="0.36969260683934174" ry="7.5e-3" rx="1.0e-2"/></g><g stroke-opacity="1.0" fill="#33a12b" stroke="#1f78b5" stroke-width="1.0e-2" fill-opacity="1.0"><polyline points="6.082502052584071e-2,-4.2665214368828315e-2
6.082502052584071e-2,-6.266521436882831e-2"/><polyline points="6.082502052584071e-2,0.37969260683934175
6.082502052584071e-2,0.35969260683934173"/></g><g stroke-opacity="1.0" fill="#fa9999" stroke="#1f78b5" stroke-width="1.0e-2" fill-opacity="1.0"><polyline points="0.18609729905542816,-0.13713677861046225
0.20609729905542817,-0.13713677861046225"/><polyline points="-8.444725800374707e-2,0.36969260683934174
-6.444725800374708e-2,0.36969260683934174"/></g><g stroke-opacity="1.0" fill="#fcbf70" stroke="#1f78b5" stroke-width="1.0e-2" fill-opacity="1.0"><polygon transform="translate(0.33136957758501606, -0.2216083428520963)" points="0.0,-0.0 2.0e-2,-2.0e-2 2.0e-2,-0.0"/><polygon transform="translate(-0.20971953653333486, 0.36969260683934174)" points="0.0,-0.0 2.0e-2,-2.0e-2 2.0e-2,-0.0"/></g><g stroke-opacity="1.0" fill="#ff8000" stroke="#1f78b5" stroke-width="0.2" fill-opacity="1.0"><path d="M0.05,-0.03660254037844387 A0.1 0.1 0.0 0 1 0.0,0.05 0.1 0.1 0.0 0 1 -0.05,-0.03660254037844387 0.1 0.1 0.0 0 1 0.05,-0.03660254037844387 Z" transform="translate(0.46664185611460374, -0.30607990709373023) scale(2.0e-2)"/><path d="M0.05,-0.03660254037844387 A0.1 0.1 0.0 0 1 0.0,0.05 0.1 0.1 0.0 0 1 -0.05,-0.03660254037844387 0.1 0.1 0.0 0 1 0.05,-0.03660254037844387 Z" transform="translate(-0.34499181506292265, 0.36969260683934174) scale(2.0e-2)"/></g><g stroke-opacity="1.0" fill="#fcfcfc" stroke="#1f78b5" stroke-width="1.0e-2" fill-opacity="1.0"><circle cx="0.6019141346441914" cy="-0.3905514713353645" r="1.0e-2"/><circle cx="-0.4802640935925103" cy="0.36969260683934174" r="1.0e-2"/></g><g stroke-opacity="1.0" fill="#000000" stroke="#1f78b5" stroke-width="1.0e-2" fill-opacity="1.0"><rect width="2.0000000000000018e-2" x="0.7271864131737791" y="-0.48502303557699844" height="2.0000000000000018e-2"/><rect width="2.0000000000000018e-2" x="-0.6255363721220981" y="0.35969260683934173" height="2.0000000000000018e-2"/></g><g></g></svg>