<svg width="443.6658461454897" xmlns:xlink="http://www.w3.org/1999/xlink" xmlns="http://www.w3.org/2000/svg" viewBox="-0.77 -0.5209630835520922 1.54 1.0413242398841267" height="300.0"><style>svg {
  color-scheme: light dark;
}
{
  .canvas g, .title g, .axisbar g, .ticktext g, .tickglyph g, .ticklines g, .legendContent g text {
    fill: #0d0d0d;
  }
  .ticklines g, .tickglyph g, .legendBorder g {
    stroke: #0d0d0d;
  }
}
@media (prefers-color-scheme:dark) {
  .canvas g, .title g, .axisbar g, .ticktext g, .tickglyph g, .ticklines g, .legendContent g text {
    fill: #f0f0f0;
  }
  .ticklines g, .tickglyph g, .legendBorder g {
    stroke: #f0f0f0;
  }
}</style><g class="chart"><g class="blend"><g stroke-opacity="1.0" fill="none" stroke="#ff8000" stroke-width="5.0e-3"><polyline points="-0.6263449007425368,0.4017481743748617
0.7374981057736021,0.4017481743748617"/></g><g stroke-opacity="1.0" fill="none" stroke="#fb8001" stroke-width="5.0e-3"><polyline points="-0.6127064706773753,0.39289665855277717
0.7238596757084408,0.4017481743748617"/></g><g stroke-opacity="1.0" fill="none" stroke="#f78102" stroke-width="5.0e-3"><polyline points="-0.599068040612214,0.3840451427306926
0.710221245643279,0.4017481743748617"/></g><g stroke-opacity="1.0" fill="none" stroke="#f38203" stroke-width="5.0e-3"><polyline points="-0.5854296105470526,0.3751936269086081
0.6965828155781182,0.4017481743748617"/></g><g stroke-opacity="1.0" fill="none" stroke="#ef8204" stroke-width="5.0e-3"><polyline points="-0.5717911804818911,0.3663421110865236
0.6829443855129564,0.4017481743748617"/></g><g stroke-opacity="1.0" fill="none" stroke="#ea8304" stroke-width="5.0e-3"><polyline points="-0.5581527504167298,0.35749059526443905
0.6693059554477949,0.4017481743748617"/></g><g stroke-opacity="1.0" fill="none" stroke="#e68405" stroke-width="5.0e-3"><polyline points="-0.5445143203515684,0.3486390794423545
0.6556675253826338,0.4017481743748617"/></g><g stroke-opacity="1.0" fill="none" stroke="#e28406" stroke-width="5.0e-3"><polyline points="-0.530875890286407,0.33978756362026996
0.6420290953174723,0.4017481743748617"/></g><g stroke-opacity="1.0" fill="none" stroke="#de8507" stroke-width="5.0e-3"><polyline points="-0.5172374602212457,0.3309360477981854
0.628390665252311,0.4017481743748617"/></g><g stroke-opacity="1.0" fill="none" stroke="#da8608" stroke-width="5.0e-3"><polyline points="-0.5035990301560842,0.322084531976101
0.6147522351871495,0.4017481743748617"/></g><g stroke-opacity="1.0" fill="none" stroke="#d68609" stroke-width="5.0e-3"><polyline points="-0.48996060009092285,0.31323301615401644
0.6011138051219884,0.4017481743748617"/></g><g stroke-opacity="1.0" fill="none" stroke="#d2870a" stroke-width="5.0e-3"><polyline points="-0.4763221700257615,0.3043815003319319
0.5874753750568269,0.4017481743748617"/></g><g stroke-opacity="1.0" fill="none" stroke="#ce880b" stroke-width="5.0e-3"><polyline points="-0.4626837399606002,0.29552998450984735
0.5738369449916654,0.4017481743748617"/></g><g stroke-opacity="1.0" fill="none" stroke="#c9880b" stroke-width="5.0e-3"><polyline points="-0.44904530989543867,0.2866784686877628
0.5601985149265039,0.4017481743748617"/></g><g stroke-opacity="1.0" fill="none" stroke="#c5890c" stroke-width="5.0e-3"><polyline points="-0.43540687983027737,0.27782695286567827
0.5465600848613428,0.4017481743748617"/></g><g stroke-opacity="1.0" fill="none" stroke="#c18a0d" stroke-width="5.0e-3"><polyline points="-0.42176844976511596,0.2689754370435937
0.5329216547961813,0.4017481743748617"/></g><g stroke-opacity="1.0" fill="none" stroke="#bd8a0e" stroke-width="5.0e-3"><polyline points="-0.40813001969995455,0.2601239212215092
0.5192832247310197,0.4017481743748617"/></g><g stroke-opacity="1.0" fill="none" stroke="#b98b0f" stroke-width="5.0e-3"><polyline points="-0.39449158963479314,0.25127240539942464
0.5056447946658587,0.4017481743748617"/></g><g stroke-opacity="1.0" fill="none" stroke="#b58c10" stroke-width="5.0e-3"><polyline points="-0.3808531595696317,0.24242088957734015
0.49200636460069713,0.4017481743748617"/></g><g stroke-opacity="1.0" fill="none" stroke="#b18c11" stroke-width="5.0e-3"><polyline points="-0.3672147295044703,0.2335693737552556
0.4783679345355356,0.4017481743748617"/></g><g stroke-opacity="1.0" fill="none" stroke="#ad8d12" stroke-width="5.0e-3"><polyline points="-0.3535762994393089,0.22471785793317106
0.46472950447037453,0.4017481743748617"/></g><g stroke-opacity="1.0" fill="none" stroke="#a88e12" stroke-width="5.0e-3"><polyline points="-0.3399378693741476,0.21586634211108657
0.451091074405213,0.4017481743748617"/></g><g stroke-opacity="1.0" fill="none" stroke="#a48e13" stroke-width="5.0e-3"><polyline points="-0.32629943930898625,0.20701482628900203
0.4374526443400515,0.4017481743748617"/></g><g stroke-opacity="1.0" fill="none" stroke="#a08f14" stroke-width="5.0e-3"><polyline points="-0.3126610092438248,0.19816331046691749
0.42381421427488997,0.4017481743748617"/></g><g stroke-opacity="1.0" fill="none" stroke="#9c9015" stroke-width="5.0e-3"><polyline points="-0.2990225791786635,0.18931179464483294
0.4101757842097289,0.4017481743748617"/></g><g stroke-opacity="1.0" fill="none" stroke="#989016" stroke-width="5.0e-3"><polyline points="-0.2853841491135021,0.18046027882274845
0.39653735414456737,0.4017481743748617"/></g><g stroke-opacity="1.0" fill="none" stroke="#949117" stroke-width="5.0e-3"><polyline points="-0.27174571904834066,0.1716087630006639
0.38289892407940584,0.4017481743748617"/></g><g stroke-opacity="1.0" fill="none" stroke="#909218" stroke-width="5.0e-3"><polyline points="-0.25810728898317925,0.16275724717857937
0.3692604940142443,0.4017481743748617"/></g><g stroke-opacity="1.0" fill="none" stroke="#8c9219" stroke-width="5.0e-3"><polyline points="-0.24446885891801784,0.15390573135649482
0.35562206394908324,0.4017481743748617"/></g><g stroke-opacity="1.0" fill="none" stroke="#879319" stroke-width="5.0e-3"><polyline points="-0.23083042885285654,0.14505421553441034
0.3419836338839217,0.4017481743748617"/></g><g stroke-opacity="1.0" fill="none" stroke="#83941a" stroke-width="5.0e-3"><polyline points="-0.21719199878769513,0.1362026997123258
0.3283452038187602,0.4017481743748617"/></g><g stroke-opacity="1.0" fill="none" stroke="#7f941b" stroke-width="5.0e-3"><polyline points="-0.20355356872253383,0.12735118389024125
0.3147067737535991,0.4017481743748617"/></g><g stroke-opacity="1.0" fill="none" stroke="#7b951c" stroke-width="5.0e-3"><polyline points="-0.1899151386573723,0.1184996680681567
0.3010683436884376,0.4017481743748617"/></g><g stroke-opacity="1.0" fill="none" stroke="#77961d" stroke-width="5.0e-3"><polyline points="-0.176276708592211,0.10964815224607216
0.2874299136232763,0.4017481743748617"/></g><g stroke-opacity="1.0" fill="none" stroke="#73961e" stroke-width="5.0e-3"><polyline points="-0.1626382785270496,0.10079663642398762
0.2737914835581148,0.4017481743748617"/></g><g stroke-opacity="1.0" fill="none" stroke="#6f971f" stroke-width="5.0e-3"><polyline points="-0.14899984846188818,9.194512060190307e-2
0.2601530534929537,0.4017481743748617"/></g><g stroke-opacity="1.0" fill="none" stroke="#6b9820" stroke-width="5.0e-3"><polyline points="-0.13536141839672677,8.309360477981859e-2
0.24651462342779218,0.4017481743748617"/></g><g stroke-opacity="1.0" fill="none" stroke="#679820" stroke-width="5.0e-3"><polyline points="-0.12172298833156547,7.424208895773404e-2
0.23287619336263055,0.4017481743748617"/></g><g stroke-opacity="1.0" fill="none" stroke="#629921" stroke-width="5.0e-3"><polyline points="-0.10808455826640395,6.53905731356495e-2
0.21923776329746913,0.4017481743748617"/></g><g stroke-opacity="1.0" fill="none" stroke="#5e9a22" stroke-width="5.0e-3"><polyline points="-9.444612820124265e-2,5.6539057313564955e-2
0.20559933323230795,0.4017481743748617"/></g><g stroke-opacity="1.0" fill="none" stroke="#5a9a23" stroke-width="5.0e-3"><polyline points="-8.080769813608124e-2,4.768754149148041e-2
0.19196090316714653,0.4017481743748617"/></g><g stroke-opacity="1.0" fill="none" stroke="#569b24" stroke-width="5.0e-3"><polyline points="-6.716926807091994e-2,3.8836025669395924e-2
0.178322473101985,0.4017481743748617"/></g><g stroke-opacity="1.0" fill="none" stroke="#529c25" stroke-width="5.0e-3"><polyline points="-5.353083800575853e-2,2.9984509847311436e-2
0.1646840430368235,0.4017481743748617"/></g><g stroke-opacity="1.0" fill="none" stroke="#4e9c26" stroke-width="5.0e-3"><polyline points="-3.989240794059701e-2,2.1132994025226892e-2
0.1510456129716624,0.4017481743748617"/></g><g stroke-opacity="1.0" fill="none" stroke="#4a9d27" stroke-width="5.0e-3"><polyline points="-2.6253977875435597e-2,1.2281478203142404e-2
0.1374071829065009,0.4017481743748617"/></g><g stroke-opacity="1.0" fill="none" stroke="#469e27" stroke-width="5.0e-3"><polyline points="-1.2615547810274297e-2,3.4299623810578606e-3
0.12376875284133959,0.4017481743748617"/></g><g stroke-opacity="1.0" fill="none" stroke="#419e28" stroke-width="5.0e-3"><polyline points="1.0228822548871142e-3,-5.421553441026683e-3
0.11013032277617818,0.4017481743748617"/></g><g stroke-opacity="1.0" fill="none" stroke="#3d9f29" stroke-width="5.0e-3"><polyline points="1.4661312320048525e-2,-1.4273069263111227e-2
9.649189271101688e-2,0.4017481743748617"/></g><g stroke-opacity="1.0" fill="none" stroke="#39a02a" stroke-width="5.0e-3"><polyline points="2.8299742385209825e-2,-2.312458508519577e-2
8.285346264585547e-2,0.4017481743748617"/></g><g stroke-opacity="1.0" fill="none" stroke="#35a02b" stroke-width="5.0e-3"><polyline points="4.1938172450371125e-2,-3.1976100907280314e-2
6.921503258069395e-2,0.4017481743748617"/></g><g stroke-opacity="1.0" fill="none" stroke="#35a02b" stroke-width="5.0e-3"><polyline points="5.557660251553265e-2,-4.082761672936486e-2
5.557660251553265e-2,0.4017481743748617"/></g><g stroke-opacity="1.0" fill="none" stroke="#39a02a" stroke-width="5.0e-3"><polyline points="6.921503258069395e-2,-4.96791325514494e-2
4.1938172450371125e-2,0.4017481743748617"/></g><g stroke-opacity="1.0" fill="none" stroke="#3d9f29" stroke-width="5.0e-3"><polyline points="8.285346264585547e-2,-5.8530648373533944e-2
2.8299742385209825e-2,0.4017481743748617"/></g><g stroke-opacity="1.0" fill="none" stroke="#419e28" stroke-width="5.0e-3"><polyline points="9.649189271101688e-2,-6.738216419561849e-2
1.4661312320048525e-2,0.4017481743748617"/></g><g stroke-opacity="1.0" fill="none" stroke="#469e27" stroke-width="5.0e-3"><polyline points="0.11013032277617818,-7.623368001770303e-2
1.0228822548871142e-3,0.4017481743748617"/></g><g stroke-opacity="1.0" fill="none" stroke="#4a9d27" stroke-width="5.0e-3"><polyline points="0.12376875284133959,-8.508519583978758e-2
-1.2615547810274297e-2,0.4017481743748617"/></g><g stroke-opacity="1.0" fill="none" stroke="#4e9c26" stroke-width="5.0e-3"><polyline points="0.1374071829065009,-9.393671166187212e-2
-2.6253977875435597e-2,0.4017481743748617"/></g><g stroke-opacity="1.0" fill="none" stroke="#529c25" stroke-width="5.0e-3"><polyline points="0.1510456129716624,-0.10278822748395666
-3.989240794059701e-2,0.4017481743748617"/></g><g stroke-opacity="1.0" fill="none" stroke="#569b24" stroke-width="5.0e-3"><polyline points="0.1646840430368235,-0.1116397433060411
-5.353083800575853e-2,0.4017481743748617"/></g><g stroke-opacity="1.0" fill="none" stroke="#5a9a23" stroke-width="5.0e-3"><polyline points="0.178322473101985,-0.12049125912812564
-6.716926807091994e-2,0.4017481743748617"/></g><g stroke-opacity="1.0" fill="none" stroke="#5e9a22" stroke-width="5.0e-3"><polyline points="0.19196090316714653,-0.12934277495021018
-8.080769813608124e-2,0.4017481743748617"/></g><g stroke-opacity="1.0" fill="none" stroke="#629921" stroke-width="5.0e-3"><polyline points="0.20559933323230795,-0.13819429077229473
-9.444612820124265e-2,0.4017481743748617"/></g><g stroke-opacity="1.0" fill="none" stroke="#679820" stroke-width="5.0e-3"><polyline points="0.21923776329746913,-0.14704580659437927
-0.10808455826640395,0.4017481743748617"/></g><g stroke-opacity="1.0" fill="none" stroke="#6b9820" stroke-width="5.0e-3"><polyline points="0.23287619336263055,-0.1558973224164638
-0.12172298833156547,0.4017481743748617"/></g><g stroke-opacity="1.0" fill="none" stroke="#6f971f" stroke-width="5.0e-3"><polyline points="0.24651462342779218,-0.16474883823854836
-0.13536141839672677,0.4017481743748617"/></g><g stroke-opacity="1.0" fill="none" stroke="#73961e" stroke-width="5.0e-3"><polyline points="0.2601530534929537,-0.1736003540606329
-0.14899984846188818,0.4017481743748617"/></g><g stroke-opacity="1.0" fill="none" stroke="#77961d" stroke-width="5.0e-3"><polyline points="0.2737914835581148,-0.18245186988271733
-0.1626382785270496,0.4017481743748617"/></g><g stroke-opacity="1.0" fill="none" stroke="#7b951c" stroke-width="5.0e-3"><polyline points="0.2874299136232763,-0.19130338570480188
-0.176276708592211,0.4017481743748617"/></g><g stroke-opacity="1.0" fill="none" stroke="#7f941b" stroke-width="5.0e-3"><polyline points="0.3010683436884376,-0.20015490152688642
-0.1899151386573723,0.4017481743748617"/></g><g stroke-opacity="1.0" fill="none" stroke="#83941a" stroke-width="5.0e-3"><polyline points="0.3147067737535991,-0.20900641734897096
-0.20355356872253383,0.4017481743748617"/></g><g stroke-opacity="1.0" fill="none" stroke="#879319" stroke-width="5.0e-3"><polyline points="0.3283452038187602,-0.2178579331710555
-0.21719199878769513,0.4017481743748617"/></g><g stroke-opacity="1.0" fill="none" stroke="#8c9219" stroke-width="5.0e-3"><polyline points="0.3419836338839217,-0.22670944899313994
-0.23083042885285654,0.4017481743748617"/></g><g stroke-opacity="1.0" fill="none" stroke="#909218" stroke-width="5.0e-3"><polyline points="0.35562206394908324,-0.23556096481522448
-0.24446885891801784,0.4017481743748617"/></g><g stroke-opacity="1.0" fill="none" stroke="#949117" stroke-width="5.0e-3"><polyline points="0.3692604940142443,-0.24441248063730903
-0.25810728898317925,0.4017481743748617"/></g><g stroke-opacity="1.0" fill="none" stroke="#989016" stroke-width="5.0e-3"><polyline points="0.38289892407940584,-0.25326399645939357
-0.27174571904834066,0.4017481743748617"/></g><g stroke-opacity="1.0" fill="none" stroke="#9c9015" stroke-width="5.0e-3"><polyline points="0.39653735414456737,-0.2621155122814781
-0.2853841491135021,0.4017481743748617"/></g><g stroke-opacity="1.0" fill="none" stroke="#a08f14" stroke-width="5.0e-3"><polyline points="0.4101757842097289,-0.27096702810356266
-0.2990225791786635,0.4017481743748617"/></g><g stroke-opacity="1.0" fill="none" stroke="#a48e13" stroke-width="5.0e-3"><polyline points="0.42381421427488997,-0.2798185439256472
-0.3126610092438248,0.4017481743748617"/></g><g stroke-opacity="1.0" fill="none" stroke="#a88e12" stroke-width="5.0e-3"><polyline points="0.4374526443400515,-0.28867005974773174
-0.32629943930898625,0.4017481743748617"/></g><g stroke-opacity="1.0" fill="none" stroke="#ad8d12" stroke-width="5.0e-3"><polyline points="0.451091074405213,-0.2975215755698163
-0.3399378693741476,0.4017481743748617"/></g><g stroke-opacity="1.0" fill="none" stroke="#b18c11" stroke-width="5.0e-3"><polyline points="0.46472950447037453,-0.30637309139190083
-0.3535762994393089,0.4017481743748617"/></g><g stroke-opacity="1.0" fill="none" stroke="#b58c10" stroke-width="5.0e-3"><polyline points="0.4783679345355356,-0.3152246072139854
-0.3672147295044703,0.4017481743748617"/></g><g stroke-opacity="1.0" fill="none" stroke="#b98b0f" stroke-width="5.0e-3"><polyline points="0.49200636460069713,-0.3240761230360699
-0.3808531595696317,0.4017481743748617"/></g><g stroke-opacity="1.0" fill="none" stroke="#bd8a0e" stroke-width="5.0e-3"><polyline points="0.5056447946658587,-0.33292763885815446
-0.39449158963479314,0.4017481743748617"/></g><g stroke-opacity="1.0" fill="none" stroke="#c18a0d" stroke-width="5.0e-3"><polyline points="0.5192832247310197,-0.3417791546802389
-0.40813001969995455,0.4017481743748617"/></g><g stroke-opacity="1.0" fill="none" stroke="#c5890c" stroke-width="5.0e-3"><polyline points="0.5329216547961813,-0.35063067050232344
-0.42176844976511596,0.4017481743748617"/></g><g stroke-opacity="1.0" fill="none" stroke="#c9880b" stroke-width="5.0e-3"><polyline points="0.5465600848613428,-0.359482186324408
-0.43540687983027737,0.4017481743748617"/></g><g stroke-opacity="1.0" fill="none" stroke="#ce880b" stroke-width="5.0e-3"><polyline points="0.5601985149265039,-0.3683337021464925
-0.44904530989543867,0.4017481743748617"/></g><g stroke-opacity="1.0" fill="none" stroke="#d2870a" stroke-width="5.0e-3"><polyline points="0.5738369449916654,-0.37718521796857707
-0.4626837399606002,0.4017481743748617"/></g><g stroke-opacity="1.0" fill="none" stroke="#d68609" stroke-width="5.0e-3"><polyline points="0.5874753750568269,-0.3860367337906615
-0.4763221700257615,0.4017481743748617"/></g><g stroke-opacity="1.0" fill="none" stroke="#da8608" stroke-width="5.0e-3"><polyline points="0.6011138051219884,-0.39488824961274627
-0.48996060009092285,0.4017481743748617"/></g><g stroke-opacity="1.0" fill="none" stroke="#de8507" stroke-width="5.0e-3"><polyline points="0.6147522351871495,-0.4037397654348306
-0.5035990301560842,0.4017481743748617"/></g><g stroke-opacity="1.0" fill="none" stroke="#e28406" stroke-width="5.0e-3"><polyline points="0.628390665252311,-0.41259128125691535
-0.5172374602212457,0.4017481743748617"/></g><g stroke-opacity="1.0" fill="none" stroke="#e68405" stroke-width="5.0e-3"><polyline points="0.6420290953174723,-0.4214427970789997
-0.530875890286407,0.4017481743748617"/></g><g stroke-opacity="1.0" fill="none" stroke="#ea8304" stroke-width="5.0e-3"><polyline points="0.6556675253826338,-0.43029431290108433
-0.5445143203515684,0.4017481743748617"/></g><g stroke-opacity="1.0" fill="none" stroke="#ef8204" stroke-width="5.0e-3"><polyline points="0.6693059554477949,-0.43914582872316876
-0.5581527504167298,0.4017481743748617"/></g><g stroke-opacity="1.0" fill="none" stroke="#f38203" stroke-width="5.0e-3"><polyline points="0.6829443855129564,-0.4479973445452533
-0.5717911804818911,0.4017481743748617"/></g><g stroke-opacity="1.0" fill="none" stroke="#f78102" stroke-width="5.0e-3"><polyline points="0.6965828155781182,-0.45684886036733785
-0.5854296105470526,0.4017481743748617"/></g><g stroke-opacity="1.0" fill="none" stroke="#fb8001" stroke-width="5.0e-3"><polyline points="0.710221245643279,-0.4657003761894224
-0.599068040612214,0.4017481743748617"/></g><g stroke-opacity="1.0" fill="none" stroke="#ff8000" stroke-width="5.0e-3"><polyline points="0.7238596757084408,-0.47455189201150694
-0.6127064706773753,0.4017481743748617"/></g></g></g><g class="hud"><g><g class="canvas"><g stroke-opacity="0.0" fill="#ffffff" stroke="#000000" stroke-width="0.0" fill-opacity="2.0e-2"><rect width="1.3683891498711926" x="-0.6286179724200636" y="-0.47676477096702796" height="0.8807258242974108"/></g></g><g class="axis"><g class="ticks"><g class="tickglyph"><g stroke-opacity="0.4" fill="#0d0d0d" stroke="#0d0d0d" stroke-width="4.0e-3" fill-opacity="0.4"><g transform="rotate(-90.0, -0.6558948325503864, 0.4039610533303828)"><polyline points="-0.6558948325503864,0.4189610533303828
-0.6558948325503864,0.3889610533303828"/></g><g transform="rotate(-90.0, -0.6558948325503864, 0.31588847090064176)"><polyline points="-0.6558948325503864,0.3308884709006418
-0.6558948325503864,0.30088847090064175"/></g><g transform="rotate(-90.0, -0.6558948325503864, 0.22781588847090067)"><polyline points="-0.6558948325503864,0.2428158884709007
-0.6558948325503864,0.21281588847090066"/></g><g transform="rotate(-90.0, -0.6558948325503864, 0.13974330604115953)"><polyline points="-0.6558948325503864,0.15474330604115955
-0.6558948325503864,0.12474330604115953"/></g><g transform="rotate(-90.0, -0.6558948325503864, 5.1670723611418556e-2)"><polyline points="-0.6558948325503864,6.667072361141856e-2
-0.6558948325503864,3.667072361141856e-2"/></g><g transform="rotate(-90.0, -0.6558948325503864, -3.6401858818322586e-2)"><polyline points="-0.6558948325503864,-2.1401858818322586e-2
-0.6558948325503864,-5.1401858818322585e-2"/></g><g transform="rotate(-90.0, -0.6558948325503864, -0.12447444124806373)"><polyline points="-0.6558948325503864,-0.10947444124806373
-0.6558948325503864,-0.13947444124806374"/></g><g transform="rotate(-90.0, -0.6558948325503864, -0.21254702367780487)"><polyline points="-0.6558948325503864,-0.19754702367780486
-0.6558948325503864,-0.22754702367780488"/></g><g transform="rotate(-90.0, -0.6558948325503864, -0.3006196061075458)"><polyline points="-0.6558948325503864,-0.2856196061075458
-0.6558948325503864,-0.3156196061075458"/></g><g transform="rotate(-90.0, -0.6558948325503864, -0.38869218853728693)"><polyline points="-0.6558948325503864,-0.3736921885372869
-0.6558948325503864,-0.40369218853728694"/></g><g transform="rotate(-90.0, -0.6558948325503864, -0.47676477096702796)"><polyline points="-0.6558948325503864,-0.46176477096702795
-0.6558948325503864,-0.491764770967028"/></g></g></g><g class="ticktext"><g fill="#0d0d0d" stroke="none" stroke-width="0.0" font-size="4.5461433550537965e-2" fill-opacity="1.0" text-anchor="end"><text x="-0.6886270647067737" y="0.41613188758574904">0</text><text x="-0.6886270647067737" y="0.32805930515600795">0.1</text><text x="-0.6886270647067737" y="0.23998672272626687">0.2</text><text x="-0.6886270647067737" y="0.15191414029652583">0.3</text><text x="-0.6886270647067737" y="6.384155786678469e-2">0.4</text><text x="-0.6886270647067737" y="-2.4231024562956338e-2">0.5</text><text x="-0.6886270647067737" y="-0.11230360699269748">0.6</text><text x="-0.6886270647067737" y="-0.2003761894224385">0.7</text><text x="-0.6886270647067737" y="-0.28844877185217954">0.8</text><text x="-0.6886270647067737" y="-0.3765213542819208">0.9</text><text x="-0.6886270647067737" y="-0.4645939367116618">1</text></g></g><g class="ticklines"><g stroke-opacity="5.0e-2" fill="none" stroke="#0d0d0d" stroke-width="5.0e-3"><polyline points="-0.6286179724200636,0.4039610533303828
0.7397711774511291,0.4039610533303828"/><polyline points="-0.6286179724200636,0.31588847090064176
0.7397711774511291,0.31588847090064176"/><polyline points="-0.6286179724200636,0.22781588847090067
0.7397711774511291,0.22781588847090067"/><polyline points="-0.6286179724200636,0.13974330604115953
0.7397711774511291,0.13974330604115953"/><polyline points="-0.6286179724200636,5.1670723611418556e-2
0.7397711774511291,5.1670723611418556e-2"/><polyline points="-0.6286179724200636,-3.6401858818322586e-2
0.7397711774511291,-3.6401858818322586e-2"/><polyline points="-0.6286179724200636,-0.12447444124806373
0.7397711774511291,-0.12447444124806373"/><polyline points="-0.6286179724200636,-0.21254702367780487
0.7397711774511291,-0.21254702367780487"/><polyline points="-0.6286179724200636,-0.3006196061075458
0.7397711774511291,-0.3006196061075458"/><polyline points="-0.6286179724200636,-0.38869218853728693
0.7397711774511291,-0.38869218853728693"/><polyline points="-0.6286179724200636,-0.47676477096702796
0.7397711774511291,-0.47676477096702796"/></g></g></g><g class="axisbar"><g stroke-opacity="0.0" fill="#0d0d0d" stroke="#000000" stroke-width="0.0" fill-opacity="0.4"><rect width="3.6369146840430355e-3" x="-0.6413471738142142" y="-0.4785350741314449" height="0.8842664306262447"/></g></g></g><g class="axis"><g class="ticks"><g class="tickglyph"><g stroke-opacity="0.4" fill="#0d0d0d" stroke="#0d0d0d" stroke-width="4.0e-3" fill-opacity="0.4"><polyline points="-0.6286179724200636,0.44551560079663644
-0.6286179724200636,0.4155156007966364"/><polyline points="-0.49177905743294437,0.44551560079663644
-0.49177905743294437,0.4155156007966364"/><polyline points="-0.3549401424458251,0.44551560079663644
-0.3549401424458251,0.4155156007966364"/><polyline points="-0.21810122745870575,0.44551560079663644
-0.21810122745870575,0.4155156007966364"/><polyline points="-8.126231247158655e-2,0.44551560079663644
-8.126231247158655e-2,0.4155156007966364"/><polyline points="5.557660251553265e-2,0.44551560079663644
5.557660251553265e-2,0.4155156007966364"/><polyline points="0.19241551750265207,0.44551560079663644
0.19241551750265207,0.4155156007966364"/><polyline points="0.3292544324897715,0.44551560079663644
0.3292544324897715,0.4155156007966364"/><polyline points="0.46609334747689024,0.44551560079663644
0.46609334747689024,0.4155156007966364"/><polyline points="0.6029322624640097,0.44551560079663644
0.6029322624640097,0.4155156007966364"/><polyline points="0.7397711774511291,0.44551560079663644
0.7397711774511291,0.4155156007966364"/></g></g><g class="ticktext"><g fill="#0d0d0d" stroke="none" stroke-width="0.0" font-size="4.5461433550537965e-2" fill-opacity="1.0" text-anchor="middle"><text x="-0.6286179724200636" y="0.4867227262668732">0</text><text x="-0.49177905743294437" y="0.4867227262668732">0.1</text><text x="-0.3549401424458251" y="0.4867227262668732">0.2</text><text x="-0.21810122745870575" y="0.4867227262668732">0.3</text><text x="-8.126231247158655e-2" y="0.4867227262668732">0.4</text><text x="5.557660251553265e-2" y="0.4867227262668732">0.5</text><text x="0.19241551750265207" y="0.4867227262668732">0.6</text><text x="0.3292544324897715" y="0.4867227262668732">0.7</text><text x="0.46609334747689024" y="0.4867227262668732">0.8</text><text x="0.6029322624640097" y="0.4867227262668732">0.9</text><text x="0.7397711774511291" y="0.4867227262668732">1</text></g></g><g class="ticklines"><g stroke-opacity="5.0e-2" fill="none" stroke="#0d0d0d" stroke-width="5.0e-3"><polyline points="-0.6286179724200636,0.4039610533303828
-0.6286179724200636,-0.47676477096702796"/><polyline points="-0.49177905743294437,0.4039610533303828
-0.49177905743294437,-0.47676477096702796"/><polyline points="-0.3549401424458251,0.4039610533303828
-0.3549401424458251,-0.47676477096702796"/><polyline points="-0.21810122745870575,0.4039610533303828
-0.21810122745870575,-0.47676477096702796"/><polyline points="-8.126231247158655e-2,0.4039610533303828
-8.126231247158655e-2,-0.47676477096702796"/><polyline points="5.557660251553265e-2,0.4039610533303828
5.557660251553265e-2,-0.47676477096702796"/><polyline points="0.19241551750265207,0.4039610533303828
0.19241551750265207,-0.47676477096702796"/><polyline points="0.3292544324897715,0.4039610533303828
0.3292544324897715,-0.47676477096702796"/><polyline points="0.46609334747689024,0.4039610533303828
0.46609334747689024,-0.47676477096702796"/><polyline points="0.6029322624640097,0.4039610533303828
0.6029322624640097,-0.47676477096702796"/><polyline points="0.7397711774511291,0.4039610533303828
0.7397711774511291,-0.47676477096702796"/></g></g></g><g class="axisbar"><g stroke-opacity="0.0" fill="#0d0d0d" stroke="#000000" stroke-width="0.0" fill-opacity="0.4"><rect width="1.3720260645552353" x="-0.6304364297620851" y="0.41281256915246733" height="3.5406063288337952e-3"/></g></g></g></g></g></svg>