<svg width="443.3317215795751" xmlns:xlink="http://www.w3.org/1999/xlink" xmlns="http://www.w3.org/2000/svg" viewBox="-0.77 -0.5215338558411712 1.54 1.0421090517816105" height="300.0"><style>svg {
  color-scheme: light dark;
}
@media (prefers-color-scheme:dark) {
  svg {
    background-color: #f0f0f0;
  }
}</style><g stroke-opacity="0.0" fill="#ffffff" stroke="#000000" stroke-width="0.0" fill-opacity="2.0e-2"><rect width="1.373384030418251" x="-0.6336501901140683" y="-0.4681777542302723" height="0.8785721381502696"/></g><g stroke-opacity="1.0" fill="none" stroke="#ff8000" stroke-width="5.0e-3"><polyline points="-0.6313688212927756,0.4082088810887778
0.7374524714828898,0.4082088810887778"/></g><g stroke-opacity="1.0" fill="none" stroke="#fb8001" stroke-width="5.0e-3"><polyline points="-0.617680608365019,0.3993785666192038
0.7237642585551332,0.4082088810887778"/></g><g stroke-opacity="1.0" fill="none" stroke="#f78102" stroke-width="5.0e-3"><polyline points="-0.6039923954372624,0.3905482521496297
0.7100760456273767,0.4082088810887778"/></g><g stroke-opacity="1.0" fill="none" stroke="#f38203" stroke-width="5.0e-3"><polyline points="-0.5903041825095057,0.38171793768005574
0.69638783269962,0.4082088810887778"/></g><g stroke-opacity="1.0" fill="none" stroke="#ef8204" stroke-width="5.0e-3"><polyline points="-0.576615969581749,0.37288762321048163
0.6826996197718633,0.4082088810887778"/></g><g stroke-opacity="1.0" fill="none" stroke="#ea8304" stroke-width="5.0e-3"><polyline points="-0.5629277566539924,0.36405730874090764
0.6690114068441069,0.4082088810887778"/></g><g stroke-opacity="1.0" fill="none" stroke="#e68405" stroke-width="5.0e-3"><polyline points="-0.5492395437262357,0.35522699427133353
0.6553231939163502,0.4082088810887778"/></g><g stroke-opacity="1.0" fill="none" stroke="#e28406" stroke-width="5.0e-3"><polyline points="-0.535551330798479,0.3463966798017595
0.6416349809885933,0.4082088810887778"/></g><g stroke-opacity="1.0" fill="none" stroke="#de8507" stroke-width="5.0e-3"><polyline points="-0.5218631178707224,0.3375663653321854
0.627946768060837,0.4082088810887778"/></g><g stroke-opacity="1.0" fill="none" stroke="#da8608" stroke-width="5.0e-3"><polyline points="-0.5081749049429658,0.3287360508626114
0.6142585551330801,0.4082088810887778"/></g><g stroke-opacity="1.0" fill="none" stroke="#d68609" stroke-width="5.0e-3"><polyline points="-0.49448669201520906,0.3199057363930373
0.6005703422053235,0.4082088810887778"/></g><g stroke-opacity="1.0" fill="none" stroke="#d2870a" stroke-width="5.0e-3"><polyline points="-0.4807984790874524,0.3110754219234634
0.5868821292775666,0.4082088810887778"/></g><g stroke-opacity="1.0" fill="none" stroke="#ce880b" stroke-width="5.0e-3"><polyline points="-0.4671102661596958,0.3022451074538892
0.5731939163498101,0.4082088810887778"/></g><g stroke-opacity="1.0" fill="none" stroke="#c9880b" stroke-width="5.0e-3"><polyline points="-0.45342205323193907,0.2934147929843153
0.5595057034220534,0.4082088810887778"/></g><g stroke-opacity="1.0" fill="none" stroke="#c5890c" stroke-width="5.0e-3"><polyline points="-0.4397338403041825,0.2845844785147411
0.5458174904942967,0.4082088810887778"/></g><g stroke-opacity="1.0" fill="none" stroke="#c18a0d" stroke-width="5.0e-3"><polyline points="-0.4260456273764258,0.2757541640451671
0.53212927756654,0.4082088810887778"/></g><g stroke-opacity="1.0" fill="none" stroke="#bd8a0e" stroke-width="5.0e-3"><polyline points="-0.41235741444866914,0.266923849575593
0.5184410646387836,0.4082088810887778"/></g><g stroke-opacity="1.0" fill="none" stroke="#b98b0f" stroke-width="5.0e-3"><polyline points="-0.39866920152091245,0.258093535106019
0.5047528517110269,0.4082088810887778"/></g><g stroke-opacity="1.0" fill="none" stroke="#b58c10" stroke-width="5.0e-3"><polyline points="-0.3849809885931558,0.24926322063644496
0.49106463878327,0.4082088810887778"/></g><g stroke-opacity="1.0" fill="none" stroke="#b18c11" stroke-width="5.0e-3"><polyline points="-0.3712927756653991,0.2404329061668709
0.47737642585551376,0.4082088810887778"/></g><g stroke-opacity="1.0" fill="none" stroke="#ad8d12" stroke-width="5.0e-3"><polyline points="-0.35760456273764246,0.2316025916972969
0.4636882129277571,0.4082088810887778"/></g><g stroke-opacity="1.0" fill="none" stroke="#a88e12" stroke-width="5.0e-3"><polyline points="-0.3439163498098859,0.2227722772277228
0.4500000000000002,0.4082088810887778"/></g><g stroke-opacity="1.0" fill="none" stroke="#a48e13" stroke-width="5.0e-3"><polyline points="-0.33022813688212926,0.21394196275814886
0.4363117870722433,0.4082088810887778"/></g><g stroke-opacity="1.0" fill="none" stroke="#a08f14" stroke-width="5.0e-3"><polyline points="-0.31653992395437247,0.2051116482885747
0.4226235741444868,0.4082088810887778"/></g><g stroke-opacity="1.0" fill="none" stroke="#9c9015" stroke-width="5.0e-3"><polyline points="-0.3028517110266159,0.1962813338190007
0.40893536121673013,0.4082088810887778"/></g><g stroke-opacity="1.0" fill="none" stroke="#989016" stroke-width="5.0e-3"><polyline points="-0.2891634980988593,0.18745101934942665
0.39524714828897345,0.4082088810887778"/></g><g stroke-opacity="1.0" fill="none" stroke="#949117" stroke-width="5.0e-3"><polyline points="-0.27547528517110254,0.1786207048798526
0.38155893536121677,0.4082088810887778"/></g><g stroke-opacity="1.0" fill="none" stroke="#909218" stroke-width="5.0e-3"><polyline points="-0.26178707224334585,0.1697903904102785
0.3678707224334603,0.4082088810887778"/></g><g stroke-opacity="1.0" fill="none" stroke="#8c9219" stroke-width="5.0e-3"><polyline points="-0.24809885931558928,0.16096007594070444
0.3541825095057036,0.4082088810887778"/></g><g stroke-opacity="1.0" fill="none" stroke="#879319" stroke-width="5.0e-3"><polyline points="-0.2344106463878326,0.15212976147113044
0.3404942965779467,0.4082088810887778"/></g><g stroke-opacity="1.0" fill="none" stroke="#83941a" stroke-width="5.0e-3"><polyline points="-0.22072243346007603,0.14329944700155645
0.3268060836501905,0.4082088810887778"/></g><g stroke-opacity="1.0" fill="none" stroke="#7f941b" stroke-width="5.0e-3"><polyline points="-0.20703422053231935,0.13446913253198234
0.3131178707224338,0.4082088810887778"/></g><g stroke-opacity="1.0" fill="none" stroke="#7b951c" stroke-width="5.0e-3"><polyline points="-0.19334600760456266,0.12563881806240834
0.2994296577946769,0.4082088810887778"/></g><g stroke-opacity="1.0" fill="none" stroke="#77961d" stroke-width="5.0e-3"><polyline points="-0.1796577946768061,0.11680850359283423
0.28574144486692044,0.4082088810887778"/></g><g stroke-opacity="1.0" fill="none" stroke="#73961e" stroke-width="5.0e-3"><polyline points="-0.1659695817490493,0.10797818912326024
0.27205323193916375,0.4082088810887778"/></g><g stroke-opacity="1.0" fill="none" stroke="#6f971f" stroke-width="5.0e-3"><polyline points="-0.15228136882129262,9.914787465368613e-2
0.25836501901140685,0.4082088810887778"/></g><g stroke-opacity="1.0" fill="none" stroke="#6b9820" stroke-width="5.0e-3"><polyline points="-0.13859315589353605,9.031756018411213e-2
0.24467680608365017,0.4082088810887778"/></g><g stroke-opacity="1.0" fill="none" stroke="#679820" stroke-width="5.0e-3"><polyline points="-0.12490494296577936,8.148724571453808e-2
0.23098859315589393,0.4082088810887778"/></g><g stroke-opacity="1.0" fill="none" stroke="#629921" stroke-width="5.0e-3"><polyline points="-0.11121673003802268,7.265693124496403e-2
0.21730038022813702,0.4082088810887778"/></g><g stroke-opacity="1.0" fill="none" stroke="#5e9a22" stroke-width="5.0e-3"><polyline points="-9.752851711026611e-2,6.382661677538998e-2
0.20361216730038034,0.4082088810887778"/></g><g stroke-opacity="1.0" fill="none" stroke="#5a9a23" stroke-width="5.0e-3"><polyline points="-8.384030418250932e-2,5.4996302305815925e-2
0.18992395437262355,0.4082088810887778"/></g><g stroke-opacity="1.0" fill="none" stroke="#569b24" stroke-width="5.0e-3"><polyline points="-7.015209125475275e-2,4.616598783624187e-2
0.1762357414448672,0.4082088810887778"/></g><g stroke-opacity="1.0" fill="none" stroke="#529c25" stroke-width="5.0e-3"><polyline points="-5.6463878326996064e-2,3.7335673366667765e-2
0.1625475285171103,0.4082088810887778"/></g><g stroke-opacity="1.0" fill="none" stroke="#4e9c26" stroke-width="5.0e-3"><polyline points="-4.277566539923938e-2,2.850535889709377e-2
0.14885931558935384,0.4082088810887778"/></g><g stroke-opacity="1.0" fill="none" stroke="#4a9d27" stroke-width="5.0e-3"><polyline points="-2.908745247148281e-2,1.9675044427519772e-2
0.13517110266159715,0.4082088810887778"/></g><g stroke-opacity="1.0" fill="none" stroke="#469e27" stroke-width="5.0e-3"><polyline points="-1.5399239543726129e-2,1.0844729957945665e-2
0.12148288973384047,0.4082088810887778"/></g><g stroke-opacity="1.0" fill="none" stroke="#419e28" stroke-width="5.0e-3"><polyline points="-1.7110266159694465e-3,2.014415488371557e-3
0.10779467680608379,0.4082088810887778"/></g><g stroke-opacity="1.0" fill="none" stroke="#3d9f29" stroke-width="5.0e-3"><polyline points="1.1977186311787236e-2,-6.815898981202384e-3
9.410646387832722e-2,0.4082088810887778"/></g><g stroke-opacity="1.0" fill="none" stroke="#39a02a" stroke-width="5.0e-3"><polyline points="2.5665399239543918e-2,-1.5646213450776436e-2
8.041825095057042e-2,0.4082088810887778"/></g><g stroke-opacity="1.0" fill="none" stroke="#35a02b" stroke-width="5.0e-3"><polyline points="3.935361216730038e-2,-2.4476527920350488e-2
6.673003802281396e-2,0.4082088810887778"/></g><g stroke-opacity="1.0" fill="none" stroke="#35a02b" stroke-width="5.0e-3"><polyline points="5.304182509505717e-2,-3.330684238992454e-2
5.304182509505717e-2,0.4082088810887778"/></g><g stroke-opacity="1.0" fill="none" stroke="#39a02a" stroke-width="5.0e-3"><polyline points="6.673003802281396e-2,-4.21371568594987e-2
3.935361216730038e-2,0.4082088810887778"/></g><g stroke-opacity="1.0" fill="none" stroke="#3d9f29" stroke-width="5.0e-3"><polyline points="8.041825095057042e-2,-5.0967471329072644e-2
2.5665399239543918e-2,0.4082088810887778"/></g><g stroke-opacity="1.0" fill="none" stroke="#419e28" stroke-width="5.0e-3"><polyline points="9.410646387832722e-2,-5.979778579864681e-2
1.1977186311787236e-2,0.4082088810887778"/></g><g stroke-opacity="1.0" fill="none" stroke="#469e27" stroke-width="5.0e-3"><polyline points="0.10779467680608379,-6.862810026822075e-2
-1.7110266159694465e-3,0.4082088810887778"/></g><g stroke-opacity="1.0" fill="none" stroke="#4a9d27" stroke-width="5.0e-3"><polyline points="0.12148288973384047,-7.745841473779491e-2
-1.5399239543726129e-2,0.4082088810887778"/></g><g stroke-opacity="1.0" fill="none" stroke="#4e9c26" stroke-width="5.0e-3"><polyline points="0.13517110266159715,-8.628872920736885e-2
-2.908745247148281e-2,0.4082088810887778"/></g><g stroke-opacity="1.0" fill="none" stroke="#529c25" stroke-width="5.0e-3"><polyline points="0.14885931558935384,-9.511904367694302e-2
-4.277566539923938e-2,0.4082088810887778"/></g><g stroke-opacity="1.0" fill="none" stroke="#569b24" stroke-width="5.0e-3"><polyline points="0.1625475285171103,-0.10394935814651685
-5.6463878326996064e-2,0.4082088810887778"/></g><g stroke-opacity="1.0" fill="none" stroke="#5a9a23" stroke-width="5.0e-3"><polyline points="0.1762357414448672,-0.1127796726160909
-7.015209125475275e-2,0.4082088810887778"/></g><g stroke-opacity="1.0" fill="none" stroke="#5e9a22" stroke-width="5.0e-3"><polyline points="0.18992395437262355,-0.12160998708566495
-8.384030418250932e-2,0.4082088810887778"/></g><g stroke-opacity="1.0" fill="none" stroke="#629921" stroke-width="5.0e-3"><polyline points="0.20361216730038034,-0.130440301555239
-9.752851711026611e-2,0.4082088810887778"/></g><g stroke-opacity="1.0" fill="none" stroke="#679820" stroke-width="5.0e-3"><polyline points="0.21730038022813702,-0.13927061602481317
-0.11121673003802268,0.4082088810887778"/></g><g stroke-opacity="1.0" fill="none" stroke="#6b9820" stroke-width="5.0e-3"><polyline points="0.23098859315589393,-0.14810093049438722
-0.12490494296577936,0.4082088810887778"/></g><g stroke-opacity="1.0" fill="none" stroke="#6f971f" stroke-width="5.0e-3"><polyline points="0.24467680608365017,-0.15693124496396127
-0.13859315589353605,0.4082088810887778"/></g><g stroke-opacity="1.0" fill="none" stroke="#73961e" stroke-width="5.0e-3"><polyline points="0.25836501901140685,-0.16576155943353532
-0.15228136882129262,0.4082088810887778"/></g><g stroke-opacity="1.0" fill="none" stroke="#77961d" stroke-width="5.0e-3"><polyline points="0.27205323193916375,-0.17459187390310937
-0.1659695817490493,0.4082088810887778"/></g><g stroke-opacity="1.0" fill="none" stroke="#7b951c" stroke-width="5.0e-3"><polyline points="0.28574144486692044,-0.18342218837268343
-0.1796577946768061,0.4082088810887778"/></g><g stroke-opacity="1.0" fill="none" stroke="#7f941b" stroke-width="5.0e-3"><polyline points="0.2994296577946769,-0.19225250284225748
-0.19334600760456266,0.4082088810887778"/></g><g stroke-opacity="1.0" fill="none" stroke="#83941a" stroke-width="5.0e-3"><polyline points="0.3131178707224338,-0.20108281731183153
-0.20703422053231935,0.4082088810887778"/></g><g stroke-opacity="1.0" fill="none" stroke="#879319" stroke-width="5.0e-3"><polyline points="0.3268060836501905,-0.20991313178140558
-0.22072243346007603,0.4082088810887778"/></g><g stroke-opacity="1.0" fill="none" stroke="#8c9219" stroke-width="5.0e-3"><polyline points="0.3404942965779467,-0.2187434462509794
-0.2344106463878326,0.4082088810887778"/></g><g stroke-opacity="1.0" fill="none" stroke="#909218" stroke-width="5.0e-3"><polyline points="0.3541825095057036,-0.22757376072055358
-0.24809885931558928,0.4082088810887778"/></g><g stroke-opacity="1.0" fill="none" stroke="#949117" stroke-width="5.0e-3"><polyline points="0.3678707224334603,-0.23640407519012752
-0.26178707224334585,0.4082088810887778"/></g><g stroke-opacity="1.0" fill="none" stroke="#989016" stroke-width="5.0e-3"><polyline points="0.38155893536121677,-0.24523438965970168
-0.27547528517110254,0.4082088810887778"/></g><g stroke-opacity="1.0" fill="none" stroke="#9c9015" stroke-width="5.0e-3"><polyline points="0.39524714828897345,-0.25406470412927573
-0.2891634980988593,0.4082088810887778"/></g><g stroke-opacity="1.0" fill="none" stroke="#a08f14" stroke-width="5.0e-3"><polyline points="0.40893536121673013,-0.2628950185988498
-0.3028517110266159,0.4082088810887778"/></g><g stroke-opacity="1.0" fill="none" stroke="#a48e13" stroke-width="5.0e-3"><polyline points="0.4226235741444868,-0.27172533306842384
-0.31653992395437247,0.4082088810887778"/></g><g stroke-opacity="1.0" fill="none" stroke="#a88e12" stroke-width="5.0e-3"><polyline points="0.4363117870722433,-0.2805556475379979
-0.33022813688212926,0.4082088810887778"/></g><g stroke-opacity="1.0" fill="none" stroke="#ad8d12" stroke-width="5.0e-3"><polyline points="0.4500000000000002,-0.28938596200757205
-0.3439163498098859,0.4082088810887778"/></g><g stroke-opacity="1.0" fill="none" stroke="#b18c11" stroke-width="5.0e-3"><polyline points="0.4636882129277571,-0.298216276477146
-0.35760456273764246,0.4082088810887778"/></g><g stroke-opacity="1.0" fill="none" stroke="#b58c10" stroke-width="5.0e-3"><polyline points="0.47737642585551376,-0.30704659094672015
-0.3712927756653991,0.4082088810887778"/></g><g stroke-opacity="1.0" fill="none" stroke="#b98b0f" stroke-width="5.0e-3"><polyline points="0.49106463878327,-0.3158769054162941
-0.3849809885931558,0.4082088810887778"/></g><g stroke-opacity="1.0" fill="none" stroke="#bd8a0e" stroke-width="5.0e-3"><polyline points="0.5047528517110269,-0.32470721988586826
-0.39866920152091245,0.4082088810887778"/></g><g stroke-opacity="1.0" fill="none" stroke="#c18a0d" stroke-width="5.0e-3"><polyline points="0.5184410646387836,-0.3335375343554421
-0.41235741444866914,0.4082088810887778"/></g><g stroke-opacity="1.0" fill="none" stroke="#c5890c" stroke-width="5.0e-3"><polyline points="0.53212927756654,-0.34236784882501614
-0.4260456273764258,0.4082088810887778"/></g><g stroke-opacity="1.0" fill="none" stroke="#c9880b" stroke-width="5.0e-3"><polyline points="0.5458174904942967,-0.3511981632945902
-0.4397338403041825,0.4082088810887778"/></g><g stroke-opacity="1.0" fill="none" stroke="#ce880b" stroke-width="5.0e-3"><polyline points="0.5595057034220534,-0.36002847776416425
-0.45342205323193907,0.4082088810887778"/></g><g stroke-opacity="1.0" fill="none" stroke="#d2870a" stroke-width="5.0e-3"><polyline points="0.5731939163498101,-0.3688587922337384
-0.4671102661596958,0.4082088810887778"/></g><g stroke-opacity="1.0" fill="none" stroke="#d68609" stroke-width="5.0e-3"><polyline points="0.5868821292775666,-0.37768910670331257
-0.4807984790874524,0.4082088810887778"/></g><g stroke-opacity="1.0" fill="none" stroke="#da8608" stroke-width="5.0e-3"><polyline points="0.6005703422053235,-0.3865194211728864
-0.49448669201520906,0.4082088810887778"/></g><g stroke-opacity="1.0" fill="none" stroke="#de8507" stroke-width="5.0e-3"><polyline points="0.6142585551330801,-0.39534973564246056
-0.5081749049429658,0.4082088810887778"/></g><g stroke-opacity="1.0" fill="none" stroke="#e28406" stroke-width="5.0e-3"><polyline points="0.627946768060837,-0.4041800501120346
-0.5218631178707224,0.4082088810887778"/></g><g stroke-opacity="1.0" fill="none" stroke="#e68405" stroke-width="5.0e-3"><polyline points="0.6416349809885933,-0.41301036458160856
-0.535551330798479,0.4082088810887778"/></g><g stroke-opacity="1.0" fill="none" stroke="#ea8304" stroke-width="5.0e-3"><polyline points="0.6553231939163502,-0.4218406790511827
-0.5492395437262357,0.4082088810887778"/></g><g stroke-opacity="1.0" fill="none" stroke="#ef8204" stroke-width="5.0e-3"><polyline points="0.6690114068441069,-0.4306709935207568
-0.5629277566539924,0.4082088810887778"/></g><g stroke-opacity="1.0" fill="none" stroke="#f38203" stroke-width="5.0e-3"><polyline points="0.6826996197718633,-0.4395013079903307
-0.576615969581749,0.4082088810887778"/></g><g stroke-opacity="1.0" fill="none" stroke="#f78102" stroke-width="5.0e-3"><polyline points="0.69638783269962,-0.44833162245990454
-0.5903041825095057,0.4082088810887778"/></g><g stroke-opacity="1.0" fill="none" stroke="#fb8001" stroke-width="5.0e-3"><polyline points="0.7100760456273767,-0.45716193692947893
-0.6039923954372624,0.4082088810887778"/></g><g stroke-opacity="1.0" fill="none" stroke="#ff8000" stroke-width="5.0e-3"><polyline points="0.7237642585551332,-0.46599225139905276
-0.617680608365019,0.4082088810887778"/></g><g stroke-opacity="0.0" fill="#0d0d0d" stroke="#000000" stroke-width="0.0" fill-opacity="0.4"><rect width="1.3770342205323196" x="-0.6354752851711025" y="0.41913639524487567" height="3.4968045299512696e-3"/></g><g stroke-opacity="0.4" fill="#0d0d0d" stroke="#0d0d0d" stroke-width="4.0e-3" fill-opacity="0.4"><polyline points="-0.6336501901140683,0.45162041789463225
-0.6336501901140683,0.4216204178946322"/><polyline points="-0.4963117870722433,0.45162041789463225
-0.4963117870722433,0.4216204178946322"/><polyline points="-0.3589733840304181,0.45162041789463225
-0.3589733840304181,0.4216204178946322"/><polyline points="-0.22163498098859302,0.45162041789463225
-0.22163498098859302,0.4216204178946322"/><polyline points="-8.429657794676793e-2,0.45162041789463225
-8.429657794676793e-2,0.4216204178946322"/><polyline points="5.304182509505717e-2,0.45162041789463225
5.304182509505717e-2,0.4216204178946322"/><polyline points="0.19038022813688227,0.45162041789463225
0.19038022813688227,0.4216204178946322"/><polyline points="0.3277186311787075,0.45162041789463225
0.3277186311787075,0.4216204178946322"/><polyline points="0.4650570342205327,0.45162041789463225
0.4650570342205327,0.4216204178946322"/><polyline points="0.6023954372623579,0.45162041789463225
0.6023954372623579,0.4216204178946322"/><polyline points="0.7397338403041827,0.45162041789463225
0.7397338403041827,0.4216204178946322"/></g><g fill="#0d0d0d" stroke="none" stroke-width="0.0" font-size="4.562737642585552e-2" fill-opacity="1.0" text-anchor="middle"><text x="-0.6336501901140683" y="0.4868869830126825">0</text><text x="-0.4963117870722433" y="0.4868869830126825">0.1</text><text x="-0.3589733840304181" y="0.4868869830126825">0.2</text><text x="-0.22163498098859302" y="0.4868869830126825">0.3</text><text x="-8.429657794676793e-2" y="0.4868869830126825">0.4</text><text x="5.304182509505717e-2" y="0.4868869830126825">0.5</text><text x="0.19038022813688227" y="0.4868869830126825">0.6</text><text x="0.3277186311787075" y="0.4868869830126825">0.7</text><text x="0.4650570342205327" y="0.4868869830126825">0.8</text><text x="0.6023954372623579" y="0.4868869830126825">0.9</text><text x="0.7397338403041827" y="0.4868869830126825">1</text></g><g stroke-opacity="5.0e-2" fill="none" stroke="#0d0d0d" stroke-width="5.0e-3"><polyline points="-0.6336501901140683,0.41039438391999733
-0.6336501901140683,-0.4681777542302723"/><polyline points="-0.4963117870722433,0.41039438391999733
-0.4963117870722433,-0.4681777542302723"/><polyline points="-0.3589733840304181,0.41039438391999733
-0.3589733840304181,-0.4681777542302723"/><polyline points="-0.22163498098859302,0.41039438391999733
-0.22163498098859302,-0.4681777542302723"/><polyline points="-8.429657794676793e-2,0.41039438391999733
-8.429657794676793e-2,-0.4681777542302723"/><polyline points="5.304182509505717e-2,0.41039438391999733
5.304182509505717e-2,-0.4681777542302723"/><polyline points="0.19038022813688227,0.41039438391999733
0.19038022813688227,-0.4681777542302723"/><polyline points="0.3277186311787075,0.41039438391999733
0.3277186311787075,-0.4681777542302723"/><polyline points="0.4650570342205327,0.41039438391999733
0.4650570342205327,-0.4681777542302723"/><polyline points="0.6023954372623579,0.41039438391999733
0.6023954372623579,-0.4681777542302723"/><polyline points="0.7397338403041827,0.41039438391999733
0.7397338403041827,-0.4681777542302723"/></g><g stroke-opacity="0.0" fill="#0d0d0d" stroke="#000000" stroke-width="0.0" fill-opacity="0.4"><rect width="3.650190114068419e-3" x="-0.6464258555133079" y="-0.47880062253717004" height="0.8909434087221431"/></g><g stroke-opacity="0.4" fill="#0d0d0d" stroke="#0d0d0d" stroke-width="4.0e-3" fill-opacity="0.4"><g transform="rotate(-90.0, -0.6610266159695817, 0.41039438391999733)"><polyline points="-0.6610266159695817,0.42539438391999734
-0.6610266159695817,0.3953943839199973"/></g><g transform="rotate(-90.0, -0.6610266159695817, 0.32164972350077814)"><polyline points="-0.6610266159695817,0.33664972350077815
-0.6610266159695817,0.3066497235007781"/></g><g transform="rotate(-90.0, -0.6610266159695817, 0.232905063081559)"><polyline points="-0.6610266159695817,0.24790506308155902
-0.6610266159695817,0.217905063081559"/></g><g transform="rotate(-90.0, -0.6610266159695817, 0.14416040266233981)"><polyline points="-0.6610266159695817,0.15916040266233983
-0.6610266159695817,0.1291604026623398"/></g><g transform="rotate(-90.0, -0.6610266159695817, 5.541574224312068e-2)"><polyline points="-0.6610266159695817,7.041574224312068e-2
-0.6610266159695817,4.041574224312068e-2"/></g><g transform="rotate(-90.0, -0.6610266159695817, -3.332891817609851e-2)"><polyline points="-0.6610266159695817,-1.832891817609851e-2
-0.6610266159695817,-4.832891817609851e-2"/></g><g transform="rotate(-90.0, -0.6610266159695817, -0.12207357859531776)"><polyline points="-0.6610266159695817,-0.10707357859531776
-0.6610266159695817,-0.13707357859531777"/></g><g transform="rotate(-90.0, -0.6610266159695817, -0.2108182390145369)"><polyline points="-0.6610266159695817,-0.19581823901453688
-0.6610266159695817,-0.2258182390145369"/></g><g transform="rotate(-90.0, -0.6610266159695817, -0.299562899433756)"><polyline points="-0.6610266159695817,-0.284562899433756
-0.6610266159695817,-0.31456289943375604"/></g><g transform="rotate(-90.0, -0.6610266159695817, -0.38830755985297516)"><polyline points="-0.6610266159695817,-0.37330755985297515
-0.6610266159695817,-0.4033075598529752"/></g><g transform="rotate(-90.0, -0.6610266159695817, -0.4770522202721943)"><polyline points="-0.6610266159695817,-0.4620522202721943
-0.6610266159695817,-0.4920522202721943"/></g></g><g fill="#0d0d0d" stroke="none" stroke-width="0.0" font-size="4.562737642585552e-2" fill-opacity="1.0" text-anchor="end"><text x="-0.688403041825095" y="0.42241464949170504">0</text><text x="-0.688403041825095" y="0.3336699890724858">0.1</text><text x="-0.688403041825095" y="0.24492532865326666">0.2</text><text x="-0.688403041825095" y="0.15618066823404753">0.3</text><text x="-0.688403041825095" y="6.743600781482834e-2">0.4</text><text x="-0.688403041825095" y="-2.1308652604390743e-2">0.5</text><text x="-0.688403041825095" y="-0.11005331302360999">0.6</text><text x="-0.688403041825095" y="-0.19879797344282923">0.7</text><text x="-0.688403041825095" y="-0.28754263386204826">0.8</text><text x="-0.688403041825095" y="-0.3762872942812675">0.9</text><text x="-0.688403041825095" y="-0.46503195470048675">1</text></g><g stroke-opacity="5.0e-2" fill="none" stroke="#0d0d0d" stroke-width="5.0e-3"><polyline points="-0.6336501901140683,0.41039438391999733
0.7397338403041827,0.41039438391999733"/><polyline points="-0.6336501901140683,0.32164972350077814
0.7397338403041827,0.32164972350077814"/><polyline points="-0.6336501901140683,0.232905063081559
0.7397338403041827,0.232905063081559"/><polyline points="-0.6336501901140683,0.14416040266233981
0.7397338403041827,0.14416040266233981"/><polyline points="-0.6336501901140683,5.541574224312068e-2
0.7397338403041827,5.541574224312068e-2"/><polyline points="-0.6336501901140683,-3.332891817609851e-2
0.7397338403041827,-3.332891817609851e-2"/><polyline points="-0.6336501901140683,-0.12207357859531776
0.7397338403041827,-0.12207357859531776"/><polyline points="-0.6336501901140683,-0.2108182390145369
0.7397338403041827,-0.2108182390145369"/><polyline points="-0.6336501901140683,-0.299562899433756
0.7397338403041827,-0.299562899433756"/><polyline points="-0.6336501901140683,-0.38830755985297516
0.7397338403041827,-0.38830755985297516"/><polyline points="-0.6336501901140683,-0.4770522202721943
0.7397338403041827,-0.4770522202721943"/></g></svg>