<svg width="441.9335382703965" xmlns:xlink="http://www.w3.org/1999/xlink" xmlns="http://www.w3.org/2000/svg" viewBox="-0.7802872151054199 -0.5286460528789508 1.552001750956323 1.0535532720805176" height="300.0"><style>svg {
  color-scheme: light dark;
}
@media (prefers-color-scheme:dark) {
  svg {
    background-color: #f0f0f0;
  }
}</style><g stroke-opacity="0.0" fill="#0d0d0d" stroke="#000000" stroke-width="0.0" fill-opacity="2.0e-2"><rect width="1.3648487611043234" x="-0.6256342252534203" y="-0.47477552436470083" height="0.8537566541896284"/></g><g stroke-opacity="5.0e-2" fill="none" stroke="#0d0d0d" stroke-width="5.0e-3"><polyline points="-0.6256342252534203,0.37898112982492765
0.7392145358509032,0.37898112982492765"/><polyline points="-0.6256342252534203,0.29360546440596486
0.7392145358509032,0.29360546440596486"/><polyline points="-0.6256342252534203,0.20822979898700195
0.7392145358509032,0.20822979898700195"/><polyline points="-0.6256342252534203,0.12285413356803915
0.7392145358509032,0.12285413356803915"/><polyline points="-0.6256342252534203,3.7478468149076294e-2
0.7392145358509032,3.7478468149076294e-2"/><polyline points="-0.6256342252534203,-4.7897197269886505e-2
0.7392145358509032,-4.7897197269886505e-2"/><polyline points="-0.6256342252534203,-0.13327286268884941
0.7392145358509032,-0.13327286268884941"/><polyline points="-0.6256342252534203,-0.2186485281078121
0.7392145358509032,-0.2186485281078121"/><polyline points="-0.6256342252534203,-0.304024193526775
0.7392145358509032,-0.304024193526775"/><polyline points="-0.6256342252534203,-0.3893998589457377
0.7392145358509032,-0.3893998589457377"/><polyline points="-0.6256342252534203,-0.47477552436470083
0.7392145358509032,-0.47477552436470083"/></g><g fill="#0d0d0d" stroke="none" stroke-width="0.0" font-size="5.0e-2" fill-opacity="1.0" text-anchor="end"><text x="-0.6852872151054199" y="0.3913606013106772">0</text><text x="-0.6852872151054199" y="0.3059849358917145">0.1</text><text x="-0.6852872151054199" y="0.22060927047275164">0.2</text><text x="-0.6852872151054199" y="0.13523360505378873">0.3</text><text x="-0.6852872151054199" y="4.9857939634825876e-2">0.4</text><text x="-0.6852872151054199" y="-3.551772578413692e-2">0.5</text><text x="-0.6852872151054199" y="-0.12089339120309983">0.6</text><text x="-0.6852872151054199" y="-0.20626905662206263">0.7</text><text x="-0.6852872151054199" y="-0.2916447220410253">0.8</text><text x="-0.6852872151054199" y="-0.3770203874599881">0.9</text><text x="-0.6852872151054199" y="-0.4623960528789508">1</text></g><g stroke-opacity="0.4" fill="#0d0d0d" stroke="#0d0d0d" stroke-width="4.0e-3" fill-opacity="0.4"><g transform="rotate(-90.0, -0.6561158475847502, 0.37898112982492765)"><polyline points="-0.6561158475847502,0.39398112982492767
-0.6561158475847502,0.36398112982492764"/></g><g transform="rotate(-90.0, -0.6561158475847502, 0.29360546440596486)"><polyline points="-0.6561158475847502,0.30860546440596487
-0.6561158475847502,0.27860546440596484"/></g><g transform="rotate(-90.0, -0.6561158475847502, 0.20822979898700195)"><polyline points="-0.6561158475847502,0.22322979898700196
-0.6561158475847502,0.19322979898700193"/></g><g transform="rotate(-90.0, -0.6561158475847502, 0.12285413356803915)"><polyline points="-0.6561158475847502,0.13785413356803916
-0.6561158475847502,0.10785413356803915"/></g><g transform="rotate(-90.0, -0.6561158475847502, 3.7478468149076294e-2)"><polyline points="-0.6561158475847502,5.247846814907629e-2
-0.6561158475847502,2.2478468149076294e-2"/></g><g transform="rotate(-90.0, -0.6561158475847502, -4.7897197269886505e-2)"><polyline points="-0.6561158475847502,-3.2897197269886505e-2
-0.6561158475847502,-6.28971972698865e-2"/></g><g transform="rotate(-90.0, -0.6561158475847502, -0.13327286268884941)"><polyline points="-0.6561158475847502,-0.11827286268884941
-0.6561158475847502,-0.14827286268884943"/></g><g transform="rotate(-90.0, -0.6561158475847502, -0.2186485281078121)"><polyline points="-0.6561158475847502,-0.2036485281078121
-0.6561158475847502,-0.23364852810781211"/></g><g transform="rotate(-90.0, -0.6561158475847502, -0.304024193526775)"><polyline points="-0.6561158475847502,-0.289024193526775
-0.6561158475847502,-0.319024193526775"/></g><g transform="rotate(-90.0, -0.6561158475847502, -0.3893998589457377)"><polyline points="-0.6561158475847502,-0.3743998589457377
-0.6561158475847502,-0.4043998589457377"/></g><g transform="rotate(-90.0, -0.6561158475847502, -0.47477552436470083)"><polyline points="-0.6561158475847502,-0.4597755243647008
-0.6561158475847502,-0.48977552436470084"/></g></g><g stroke-opacity="0.0" fill="#0d0d0d" stroke="#000000" stroke-width="0.0" fill-opacity="0.4"><rect width="3.6395966962782245e-3" x="-0.6406475616255678" y="-0.47648303767307987" height="0.8571716808063867"/></g><g stroke-opacity="5.0e-2" fill="none" stroke="#0d0d0d" stroke-width="5.0e-3"><polyline points="-0.6256342252534203,0.37898112982492765
-0.6256342252534203,-0.47477552436470083"/><polyline points="-0.4891493491429879,0.37898112982492765
-0.4891493491429879,-0.47477552436470083"/><polyline points="-0.35266447303255555,0.37898112982492765
-0.35266447303255555,-0.47477552436470083"/><polyline points="-0.21617959692212319,0.37898112982492765
-0.21617959692212319,-0.47477552436470083"/><polyline points="-7.969472081169082e-2,0.37898112982492765
-7.969472081169082e-2,-0.47477552436470083"/><polyline points="5.679015529874132e-2,0.37898112982492765
5.679015529874132e-2,-0.47477552436470083"/><polyline points="0.19327503140917401,0.37898112982492765
0.19327503140917401,-0.47477552436470083"/><polyline points="0.32975990751960604,0.37898112982492765
0.32975990751960604,-0.47477552436470083"/><polyline points="0.46624478363003874,0.37898112982492765
0.46624478363003874,-0.47477552436470083"/><polyline points="0.602729659740471,0.37898112982492765
0.602729659740471,-0.47477552436470083"/><polyline points="0.7392145358509032,0.37898112982492765
0.7392145358509032,-0.47477552436470083"/></g><g fill="#0d0d0d" stroke="none" stroke-width="0.0" font-size="5.0e-2" fill-opacity="1.0" text-anchor="middle"><text x="-0.6256342252534203" y="0.47865721920156673">0</text><text x="-0.4891493491429879" y="0.47865721920156673">0.1</text><text x="-0.35266447303255555" y="0.47865721920156673">0.2</text><text x="-0.21617959692212319" y="0.47865721920156673">0.3</text><text x="-7.969472081169082e-2" y="0.47865721920156673">0.4</text><text x="5.679015529874132e-2" y="0.47865721920156673">0.5</text><text x="0.19327503140917401" y="0.47865721920156673">0.6</text><text x="0.32975990751960604" y="0.47865721920156673">0.7</text><text x="0.46624478363003874" y="0.47865721920156673">0.8</text><text x="0.602729659740471" y="0.47865721920156673">0.9</text><text x="0.7392145358509032" y="0.47865721920156673">1</text></g><g stroke-opacity="0.4" fill="#0d0d0d" stroke="#0d0d0d" stroke-width="4.0e-3" fill-opacity="0.4"><polyline points="-0.6256342252534203,0.42258197774028017
-0.6256342252534203,0.39258197774028014"/><polyline points="-0.4891493491429879,0.42258197774028017
-0.4891493491429879,0.39258197774028014"/><polyline points="-0.35266447303255555,0.42258197774028017
-0.35266447303255555,0.39258197774028014"/><polyline points="-0.21617959692212319,0.42258197774028017
-0.21617959692212319,0.39258197774028014"/><polyline points="-7.969472081169082e-2,0.42258197774028017
-7.969472081169082e-2,0.39258197774028014"/><polyline points="5.679015529874132e-2,0.42258197774028017
5.679015529874132e-2,0.39258197774028014"/><polyline points="0.19327503140917401,0.42258197774028017
0.19327503140917401,0.39258197774028014"/><polyline points="0.32975990751960604,0.42258197774028017
0.32975990751960604,0.39258197774028014"/><polyline points="0.46624478363003874,0.42258197774028017
0.46624478363003874,0.39258197774028014"/><polyline points="0.602729659740471,0.42258197774028017
0.602729659740471,0.39258197774028014"/><polyline points="0.7392145358509032,0.42258197774028017
0.7392145358509032,0.39258197774028014"/></g><g stroke-opacity="0.0" fill="#0d0d0d" stroke="#000000" stroke-width="0.0" fill-opacity="0.4"><rect width="1.3684883578006017" x="-0.6274540236015594" y="0.389653088002298" height="3.4150266167584653e-3"/></g><g stroke-opacity="1.0" fill="none" stroke="#ff8000" stroke-width="5.0e-3"><polyline points="-0.6256342252534203,0.37898112982492765
0.7392145358509032,0.37898112982492765"/></g><g stroke-opacity="1.0" fill="none" stroke="#fb8001" stroke-width="5.0e-3"><polyline points="-0.6119857376423771,0.3704435632830314
0.72556604823986,0.37898112982492765"/></g><g stroke-opacity="1.0" fill="none" stroke="#f78102" stroke-width="5.0e-3"><polyline points="-0.5983372500313338,0.36190599674113505
0.7119175606288168,0.37898112982492765"/></g><g stroke-opacity="1.0" fill="none" stroke="#f38203" stroke-width="5.0e-3"><polyline points="-0.5846887624202906,0.3533684301992388
0.6982690730177739,0.37898112982492765"/></g><g stroke-opacity="1.0" fill="none" stroke="#ef8204" stroke-width="5.0e-3"><polyline points="-0.5710402748092474,0.3448308636573425
0.6846205854067302,0.37898112982492765"/></g><g stroke-opacity="1.0" fill="none" stroke="#ea8304" stroke-width="5.0e-3"><polyline points="-0.5573917871982041,0.3362932971154462
0.670972097795687,0.37898112982492765"/></g><g stroke-opacity="1.0" fill="none" stroke="#e68405" stroke-width="5.0e-3"><polyline points="-0.5437432995871609,0.32775573057354995
0.657323610184644,0.37898112982492765"/></g><g stroke-opacity="1.0" fill="none" stroke="#e28406" stroke-width="5.0e-3"><polyline points="-0.5300948119761176,0.31921816403165365
0.6436751225736006,0.37898112982492765"/></g><g stroke-opacity="1.0" fill="none" stroke="#de8507" stroke-width="5.0e-3"><polyline points="-0.5164463243650744,0.31068059748975735
0.6300266349625576,0.37898112982492765"/></g><g stroke-opacity="1.0" fill="none" stroke="#da8608" stroke-width="5.0e-3"><polyline points="-0.5027978367540311,0.3021430309478611
0.616378147351514,0.37898112982492765"/></g><g stroke-opacity="1.0" fill="none" stroke="#d68609" stroke-width="5.0e-3"><polyline points="-0.4891493491429879,0.29360546440596486
0.602729659740471,0.37898112982492765"/></g><g stroke-opacity="1.0" fill="none" stroke="#d2870a" stroke-width="5.0e-3"><polyline points="-0.4755008615319447,0.28506789786406855
0.5890811721294276,0.37898112982492765"/></g><g stroke-opacity="1.0" fill="none" stroke="#ce880b" stroke-width="5.0e-3"><polyline points="-0.4618523739209015,0.27653033132217225
0.5754326845183844,0.37898112982492765"/></g><g stroke-opacity="1.0" fill="none" stroke="#c9880b" stroke-width="5.0e-3"><polyline points="-0.4482038863098581,0.26799276478027595
0.5617841969073412,0.37898112982492765"/></g><g stroke-opacity="1.0" fill="none" stroke="#c5890c" stroke-width="5.0e-3"><polyline points="-0.434555398698815,0.2594551982383797
0.548135709296298,0.37898112982492765"/></g><g stroke-opacity="1.0" fill="none" stroke="#c18a0d" stroke-width="5.0e-3"><polyline points="-0.42090691108777184,0.2509176316964834
0.5344872216852548,0.37898112982492765"/></g><g stroke-opacity="1.0" fill="none" stroke="#bd8a0e" stroke-width="5.0e-3"><polyline points="-0.40725842347672847,0.2423800651545871
0.5208387340742116,0.37898112982492765"/></g><g stroke-opacity="1.0" fill="none" stroke="#b98b0f" stroke-width="5.0e-3"><polyline points="-0.39360993586568527,0.2338424986126908
0.5071902464631683,0.37898112982492765"/></g><g stroke-opacity="1.0" fill="none" stroke="#b58c10" stroke-width="5.0e-3"><polyline points="-0.379961448254642,0.22530493207079455
0.49354175885212515,0.37898112982492765"/></g><g stroke-opacity="1.0" fill="none" stroke="#b18c11" stroke-width="5.0e-3"><polyline points="-0.3663129606435988,0.21676736552889825
0.4798932712410815,0.37898112982492765"/></g><g stroke-opacity="1.0" fill="none" stroke="#ad8d12" stroke-width="5.0e-3"><polyline points="-0.35266447303255555,0.20822979898700195
0.46624478363003874,0.37898112982492765"/></g><g stroke-opacity="1.0" fill="none" stroke="#a88e12" stroke-width="5.0e-3"><polyline points="-0.33901598542151234,0.19969223244510576
0.45259629601899554,0.37898112982492765"/></g><g stroke-opacity="1.0" fill="none" stroke="#a48e13" stroke-width="5.0e-3"><polyline points="-0.32536749781046914,0.1911546659032094
0.4389478084079521,0.37898112982492765"/></g><g stroke-opacity="1.0" fill="none" stroke="#a08f14" stroke-width="5.0e-3"><polyline points="-0.31171901019942594,0.18261709936131315
0.4252993207969087,0.37898112982492765"/></g><g stroke-opacity="1.0" fill="none" stroke="#9c9015" stroke-width="5.0e-3"><polyline points="-0.2980705225883826,0.17407953281941685
0.4116508331858659,0.37898112982492765"/></g><g stroke-opacity="1.0" fill="none" stroke="#989016" stroke-width="5.0e-3"><polyline points="-0.2844220349773393,0.1655419662775206
0.3980023455748223,0.37898112982492765"/></g><g stroke-opacity="1.0" fill="none" stroke="#949117" stroke-width="5.0e-3"><polyline points="-0.27077354736629616,0.1570043997356243
0.3843538579637791,0.37898112982492765"/></g><g stroke-opacity="1.0" fill="none" stroke="#909218" stroke-width="5.0e-3"><polyline points="-0.2571250597552529,0.14846683319372805
0.3707053703527361,0.37898112982492765"/></g><g stroke-opacity="1.0" fill="none" stroke="#8c9219" stroke-width="5.0e-3"><polyline points="-0.2434765721442096,0.1399292666518317
0.3570568827416929,0.37898112982492765"/></g><g stroke-opacity="1.0" fill="none" stroke="#879319" stroke-width="5.0e-3"><polyline points="-0.2298280845331666,0.1313917001099355
0.34340839513064947,0.37898112982492765"/></g><g stroke-opacity="1.0" fill="none" stroke="#83941a" stroke-width="5.0e-3"><polyline points="-0.2161795969221233,0.1228541335680392
0.32975990751960604,0.37898112982492765"/></g><g stroke-opacity="1.0" fill="none" stroke="#7f941b" stroke-width="5.0e-3"><polyline points="-0.20253110931107998,0.1143165670261429
0.31611141990856306,0.37898112982492765"/></g><g stroke-opacity="1.0" fill="none" stroke="#7b951c" stroke-width="5.0e-3"><polyline points="-0.18888262170003667,0.1057790004842466
0.30246293229751986,0.37898112982492765"/></g><g stroke-opacity="1.0" fill="none" stroke="#77961d" stroke-width="5.0e-3"><polyline points="-0.17523413408899358,9.724143394235035e-2
0.28881444468647643,0.37898112982492765"/></g><g stroke-opacity="1.0" fill="none" stroke="#73961e" stroke-width="5.0e-3"><polyline points="-0.16158564647795037,8.8703867400454e-2
0.27516595707543323,0.37898112982492765"/></g><g stroke-opacity="1.0" fill="none" stroke="#6f971f" stroke-width="5.0e-3"><polyline points="-0.14793715886690695,8.016630085855775e-2
0.26151746946439025,0.37898112982492765"/></g><g stroke-opacity="1.0" fill="none" stroke="#6b9820" stroke-width="5.0e-3"><polyline points="-0.13428867125586375,7.16287343166615e-2
0.24786898185334683,0.37898112982492765"/></g><g stroke-opacity="1.0" fill="none" stroke="#679820" stroke-width="5.0e-3"><polyline points="-0.12064018364482076,6.309116777476514e-2
0.23422049424230362,0.37898112982492765"/></g><g stroke-opacity="1.0" fill="none" stroke="#629921" stroke-width="5.0e-3"><polyline points="-0.10699169603377734,5.45536012328689e-2
0.2205720066312602,0.37898112982492765"/></g><g stroke-opacity="1.0" fill="none" stroke="#5e9a22" stroke-width="5.0e-3"><polyline points="-9.334320842273414e-2,4.601603469097265e-2
0.206923519020217,0.37898112982492765"/></g><g stroke-opacity="1.0" fill="none" stroke="#5a9a23" stroke-width="5.0e-3"><polyline points="-7.969472081169082e-2,3.7478468149076294e-2
0.1932750314091738,0.37898112982492765"/></g><g stroke-opacity="1.0" fill="none" stroke="#569b24" stroke-width="5.0e-3"><polyline points="-6.604623320064773e-2,2.8940901607180047e-2
0.1796265437981306,0.37898112982492765"/></g><g stroke-opacity="1.0" fill="none" stroke="#529c25" stroke-width="5.0e-3"><polyline points="-5.2397745589604305e-2,2.04033350652838e-2
0.16597805618708728,0.37898112982492765"/></g><g stroke-opacity="1.0" fill="none" stroke="#4e9c26" stroke-width="5.0e-3"><polyline points="-3.874925797856121e-2,1.1865768523387443e-2
0.1523295685760444,0.37898112982492765"/></g><g stroke-opacity="1.0" fill="none" stroke="#4a9d27" stroke-width="5.0e-3"><polyline points="-2.51007703675179e-2,3.3282019814911967e-3
0.13868108096500098,0.37898112982492765"/></g><g stroke-opacity="1.0" fill="none" stroke="#469e27" stroke-width="5.0e-3"><polyline points="-1.1452282756474697e-2,-5.209364560405105e-3
0.12503259335395778,0.37898112982492765"/></g><g stroke-opacity="1.0" fill="none" stroke="#419e28" stroke-width="5.0e-3"><polyline points="2.1962048545685064e-3,-1.3746931102301407e-2
0.11138410574291435,0.37898112982492765"/></g><g stroke-opacity="1.0" fill="none" stroke="#3d9f29" stroke-width="5.0e-3"><polyline points="1.584469246561171e-2,-2.228449764419771e-2
9.773561813187137e-2,0.37898112982492765"/></g><g stroke-opacity="1.0" fill="none" stroke="#39a02a" stroke-width="5.0e-3"><polyline points="2.9493180076655023e-2,-3.08220641860939e-2
8.408713052082806e-2,0.37898112982492765"/></g><g stroke-opacity="1.0" fill="none" stroke="#35a02b" stroke-width="5.0e-3"><polyline points="4.314166768769834e-2,-3.935963072799009e-2
7.043864290978463e-2,0.37898112982492765"/></g><g stroke-opacity="1.0" fill="none" stroke="#35a02b" stroke-width="5.0e-3"><polyline points="5.679015529874132e-2,-4.7897197269886505e-2
5.679015529874132e-2,0.37898112982492765"/></g><g stroke-opacity="1.0" fill="none" stroke="#39a02a" stroke-width="5.0e-3"><polyline points="7.043864290978463e-2,-5.6434763811782696e-2
4.314166768769834e-2,0.37898112982492765"/></g><g stroke-opacity="1.0" fill="none" stroke="#3d9f29" stroke-width="5.0e-3"><polyline points="8.408713052082806e-2,-6.497233035367911e-2
2.9493180076655023e-2,0.37898112982492765"/></g><g stroke-opacity="1.0" fill="none" stroke="#419e28" stroke-width="5.0e-3"><polyline points="9.773561813187137e-2,-7.35098968955753e-2
1.584469246561171e-2,0.37898112982492765"/></g><g stroke-opacity="1.0" fill="none" stroke="#469e27" stroke-width="5.0e-3"><polyline points="0.11138410574291435,-8.20474634374716e-2
2.1962048545685064e-3,0.37898112982492765"/></g><g stroke-opacity="1.0" fill="none" stroke="#4a9d27" stroke-width="5.0e-3"><polyline points="0.12503259335395778,-9.058502997936779e-2
-1.1452282756474697e-2,0.37898112982492765"/></g><g stroke-opacity="1.0" fill="none" stroke="#4e9c26" stroke-width="5.0e-3"><polyline points="0.13868108096500098,-9.912259652126432e-2
-2.51007703675179e-2,0.37898112982492765"/></g><g stroke-opacity="1.0" fill="none" stroke="#529c25" stroke-width="5.0e-3"><polyline points="0.1523295685760444,-0.10766016306316051
-3.874925797856121e-2,0.37898112982492765"/></g><g stroke-opacity="1.0" fill="none" stroke="#569b24" stroke-width="5.0e-3"><polyline points="0.16597805618708728,-0.1161977296050567
-5.2397745589604305e-2,0.37898112982492765"/></g><g stroke-opacity="1.0" fill="none" stroke="#5a9a23" stroke-width="5.0e-3"><polyline points="0.1796265437981306,-0.12473529614695289
-6.604623320064773e-2,0.37898112982492765"/></g><g stroke-opacity="1.0" fill="none" stroke="#5e9a22" stroke-width="5.0e-3"><polyline points="0.1932750314091738,-0.1332728626888493
-7.969472081169082e-2,0.37898112982492765"/></g><g stroke-opacity="1.0" fill="none" stroke="#629921" stroke-width="5.0e-3"><polyline points="0.206923519020217,-0.1418104292307455
-9.334320842273414e-2,0.37898112982492765"/></g><g stroke-opacity="1.0" fill="none" stroke="#679820" stroke-width="5.0e-3"><polyline points="0.2205720066312602,-0.1503479957726419
-0.10699169603377734,0.37898112982492765"/></g><g stroke-opacity="1.0" fill="none" stroke="#6b9820" stroke-width="5.0e-3"><polyline points="0.23422049424230362,-0.1588855623145381
-0.12064018364482076,0.37898112982492765"/></g><g stroke-opacity="1.0" fill="none" stroke="#6f971f" stroke-width="5.0e-3"><polyline points="0.24786898185334683,-0.1674231288564345
-0.13428867125586375,0.37898112982492765"/></g><g stroke-opacity="1.0" fill="none" stroke="#73961e" stroke-width="5.0e-3"><polyline points="0.26151746946439025,-0.1759606953983307
-0.14793715886690695,0.37898112982492765"/></g><g stroke-opacity="1.0" fill="none" stroke="#77961d" stroke-width="5.0e-3"><polyline points="0.27516595707543323,-0.184498261940227
-0.16158564647795037,0.37898112982492765"/></g><g stroke-opacity="1.0" fill="none" stroke="#7b951c" stroke-width="5.0e-3"><polyline points="0.28881444468647643,-0.1930358284821232
-0.17523413408899358,0.37898112982492765"/></g><g stroke-opacity="1.0" fill="none" stroke="#7f941b" stroke-width="5.0e-3"><polyline points="0.30246293229751986,-0.2015733950240196
-0.18888262170003667,0.37898112982492765"/></g><g stroke-opacity="1.0" fill="none" stroke="#83941a" stroke-width="5.0e-3"><polyline points="0.31611141990856306,-0.2101109615659159
-0.20253110931107998,0.37898112982492765"/></g><g stroke-opacity="1.0" fill="none" stroke="#879319" stroke-width="5.0e-3"><polyline points="0.32975990751960604,-0.2186485281078121
-0.2161795969221233,0.37898112982492765"/></g><g stroke-opacity="1.0" fill="none" stroke="#8c9219" stroke-width="5.0e-3"><polyline points="0.34340839513064947,-0.2271860946497083
-0.2298280845331666,0.37898112982492765"/></g><g stroke-opacity="1.0" fill="none" stroke="#909218" stroke-width="5.0e-3"><polyline points="0.3570568827416929,-0.2357236611916046
-0.2434765721442096,0.37898112982492765"/></g><g stroke-opacity="1.0" fill="none" stroke="#949117" stroke-width="5.0e-3"><polyline points="0.3707053703527361,-0.244261227733501
-0.2571250597552529,0.37898112982492765"/></g><g stroke-opacity="1.0" fill="none" stroke="#989016" stroke-width="5.0e-3"><polyline points="0.3843538579637791,-0.2527987942753972
-0.27077354736629616,0.37898112982492765"/></g><g stroke-opacity="1.0" fill="none" stroke="#9c9015" stroke-width="5.0e-3"><polyline points="0.3980023455748223,-0.2613363608172935
-0.2844220349773393,0.37898112982492765"/></g><g stroke-opacity="1.0" fill="none" stroke="#a08f14" stroke-width="5.0e-3"><polyline points="0.4116508331858659,-0.2698739273591898
-0.2980705225883826,0.37898112982492765"/></g><g stroke-opacity="1.0" fill="none" stroke="#a48e13" stroke-width="5.0e-3"><polyline points="0.4252993207969087,-0.2784114939010861
-0.31171901019942594,0.37898112982492765"/></g><g stroke-opacity="1.0" fill="none" stroke="#a88e12" stroke-width="5.0e-3"><polyline points="0.4389478084079521,-0.2869490604429823
-0.32536749781046914,0.37898112982492765"/></g><g stroke-opacity="1.0" fill="none" stroke="#ad8d12" stroke-width="5.0e-3"><polyline points="0.45259629601899554,-0.2954866269848787
-0.33901598542151234,0.37898112982492765"/></g><g stroke-opacity="1.0" fill="none" stroke="#b18c11" stroke-width="5.0e-3"><polyline points="0.46624478363003874,-0.304024193526775
-0.35266447303255555,0.37898112982492765"/></g><g stroke-opacity="1.0" fill="none" stroke="#b58c10" stroke-width="5.0e-3"><polyline points="0.4798932712410815,-0.3125617600686713
-0.3663129606435988,0.37898112982492765"/></g><g stroke-opacity="1.0" fill="none" stroke="#b98b0f" stroke-width="5.0e-3"><polyline points="0.49354175885212515,-0.3210993266105675
-0.379961448254642,0.37898112982492765"/></g><g stroke-opacity="1.0" fill="none" stroke="#bd8a0e" stroke-width="5.0e-3"><polyline points="0.5071902464631683,-0.3296368931524637
-0.39360993586568527,0.37898112982492765"/></g><g stroke-opacity="1.0" fill="none" stroke="#c18a0d" stroke-width="5.0e-3"><polyline points="0.5208387340742116,-0.33817445969436
-0.40725842347672847,0.37898112982492765"/></g><g stroke-opacity="1.0" fill="none" stroke="#c5890c" stroke-width="5.0e-3"><polyline points="0.5344872216852548,-0.3467120262362564
-0.42090691108777184,0.37898112982492765"/></g><g stroke-opacity="1.0" fill="none" stroke="#c9880b" stroke-width="5.0e-3"><polyline points="0.548135709296298,-0.3552495927781527
-0.434555398698815,0.37898112982492765"/></g><g stroke-opacity="1.0" fill="none" stroke="#ce880b" stroke-width="5.0e-3"><polyline points="0.5617841969073412,-0.363787159320049
-0.4482038863098581,0.37898112982492765"/></g><g stroke-opacity="1.0" fill="none" stroke="#d2870a" stroke-width="5.0e-3"><polyline points="0.5754326845183844,-0.3723247258619451
-0.4618523739209015,0.37898112982492765"/></g><g stroke-opacity="1.0" fill="none" stroke="#d68609" stroke-width="5.0e-3"><polyline points="0.5890811721294276,-0.3808622924038414
-0.4755008615319447,0.37898112982492765"/></g><g stroke-opacity="1.0" fill="none" stroke="#da8608" stroke-width="5.0e-3"><polyline points="0.602729659740471,-0.3893998589457377
-0.4891493491429879,0.37898112982492765"/></g><g stroke-opacity="1.0" fill="none" stroke="#de8507" stroke-width="5.0e-3"><polyline points="0.616378147351514,-0.3979374254876341
-0.5027978367540311,0.37898112982492765"/></g><g stroke-opacity="1.0" fill="none" stroke="#e28406" stroke-width="5.0e-3"><polyline points="0.6300266349625576,-0.4064749920295304
-0.5164463243650744,0.37898112982492765"/></g><g stroke-opacity="1.0" fill="none" stroke="#e68405" stroke-width="5.0e-3"><polyline points="0.6436751225736006,-0.4150125585714267
-0.5300948119761176,0.37898112982492765"/></g><g stroke-opacity="1.0" fill="none" stroke="#ea8304" stroke-width="5.0e-3"><polyline points="0.657323610184644,-0.42355012511332313
-0.5437432995871609,0.37898112982492765"/></g><g stroke-opacity="1.0" fill="none" stroke="#ef8204" stroke-width="5.0e-3"><polyline points="0.670972097795687,-0.4320876916552191
-0.5573917871982041,0.37898112982492765"/></g><g stroke-opacity="1.0" fill="none" stroke="#f38203" stroke-width="5.0e-3"><polyline points="0.6846205854067302,-0.4406252581971154
-0.5710402748092474,0.37898112982492765"/></g><g stroke-opacity="1.0" fill="none" stroke="#f78102" stroke-width="5.0e-3"><polyline points="0.6982690730177739,-0.4491628247390118
-0.5846887624202906,0.37898112982492765"/></g><g stroke-opacity="1.0" fill="none" stroke="#fb8001" stroke-width="5.0e-3"><polyline points="0.7119175606288168,-0.4577003912809081
-0.5983372500313338,0.37898112982492765"/></g><g stroke-opacity="1.0" fill="none" stroke="#ff8000" stroke-width="5.0e-3"><polyline points="0.72556604823986,-0.4662379578228041
-0.6119857376423771,0.37898112982492765"/></g><g></g></svg>