<svg width="449.2852138711486" xmlns:xlink="http://www.w3.org/1999/xlink" xmlns="http://www.w3.org/2000/svg" viewBox="-0.7437687340561224 -0.49824469827867257 1.4929148198341837 0.9968599725133664" height="300.0"><style>svg {
  color-scheme: light dark;
}
{
  .canvas g, .title g, .axisbar g, .ticktext g, .tickglyph g, .ticklines g, .legendContent g text {
    fill: #0d0d0d;
  }
  .ticklines g, .tickglyph g, .legendBorder g {
    stroke: #0d0d0d;
  }
}
@media (prefers-color-scheme:dark) {
  .canvas g, .title g, .axisbar g, .ticktext g, .tickglyph g, .ticklines g, .legendContent g text {
    fill: #f0f0f0;
  }
  .ticklines g, .tickglyph g, .legendBorder g {
    stroke: #f0f0f0;
  }
}</style><g class="chart"><g class="blend"><g stroke-opacity="1.0" fill="none" stroke="#ff8000" stroke-width="5.0e-3"><polyline points="-0.6225927933673469,0.4030007987220447
0.7389346301020409,0.4030007987220447"/></g><g stroke-opacity="1.0" fill="none" stroke="#fb8001" stroke-width="5.0e-3"><polyline points="-0.608977519132653,0.39423083067092646
0.7253193558673466,0.4030007987220447"/></g><g stroke-opacity="1.0" fill="none" stroke="#f78102" stroke-width="5.0e-3"><polyline points="-0.5953622448979591,0.3854608626198083
0.7117040816326529,0.4030007987220447"/></g><g stroke-opacity="1.0" fill="none" stroke="#f38203" stroke-width="5.0e-3"><polyline points="-0.5817469706632652,0.37669089456869004
0.6980888073979591,0.4030007987220447"/></g><g stroke-opacity="1.0" fill="none" stroke="#ef8204" stroke-width="5.0e-3"><polyline points="-0.5681316964285713,0.36792092651757186
0.6844735331632653,0.4030007987220447"/></g><g stroke-opacity="1.0" fill="none" stroke="#ea8304" stroke-width="5.0e-3"><polyline points="-0.5545164221938775,0.3591509584664536
0.6708582589285715,0.4030007987220447"/></g><g stroke-opacity="1.0" fill="none" stroke="#e68405" stroke-width="5.0e-3"><polyline points="-0.5409011479591836,0.35038099041533544
0.6572429846938775,0.4030007987220447"/></g><g stroke-opacity="1.0" fill="none" stroke="#e28406" stroke-width="5.0e-3"><polyline points="-0.5272858737244898,0.3416110223642172
0.6436277104591838,0.4030007987220447"/></g><g stroke-opacity="1.0" fill="none" stroke="#de8507" stroke-width="5.0e-3"><polyline points="-0.5136705994897959,0.33284105431309896
0.6300124362244898,0.4030007987220447"/></g><g stroke-opacity="1.0" fill="none" stroke="#da8608" stroke-width="5.0e-3"><polyline points="-0.500055325255102,0.3240710862619808
0.6163971619897958,0.4030007987220447"/></g><g stroke-opacity="1.0" fill="none" stroke="#d68609" stroke-width="5.0e-3"><polyline points="-0.4864400510204081,0.3153011182108626
0.602781887755102,0.4030007987220447"/></g><g stroke-opacity="1.0" fill="none" stroke="#d2870a" stroke-width="5.0e-3"><polyline points="-0.4728247767857142,0.3065311501597444
0.589166613520408,0.4030007987220447"/></g><g stroke-opacity="1.0" fill="none" stroke="#ce880b" stroke-width="5.0e-3"><polyline points="-0.45920950255102044,0.2977611821086261
0.5755513392857142,0.4030007987220447"/></g><g stroke-opacity="1.0" fill="none" stroke="#c9880b" stroke-width="5.0e-3"><polyline points="-0.44559422831632645,0.28899121405750794
0.5619360650510205,0.4030007987220447"/></g><g stroke-opacity="1.0" fill="none" stroke="#c5890c" stroke-width="5.0e-3"><polyline points="-0.43197895408163267,0.28022124600638976
0.5483207908163265,0.4030007987220447"/></g><g stroke-opacity="1.0" fill="none" stroke="#c18a0d" stroke-width="5.0e-3"><polyline points="-0.4183636798469388,0.27145127795527146
0.5347055165816325,0.4030007987220447"/></g><g stroke-opacity="1.0" fill="none" stroke="#bd8a0e" stroke-width="5.0e-3"><polyline points="-0.40474840561224484,0.2626813099041533
0.5210902423469387,0.4030007987220447"/></g><g stroke-opacity="1.0" fill="none" stroke="#b98b0f" stroke-width="5.0e-3"><polyline points="-0.391133131377551,0.2539113418530351
0.5074749681122449,0.4030007987220447"/></g><g stroke-opacity="1.0" fill="none" stroke="#b58c10" stroke-width="5.0e-3"><polyline points="-0.37751785714285707,0.2451413738019169
0.4938596938775509,0.4030007987220447"/></g><g stroke-opacity="1.0" fill="none" stroke="#b18c11" stroke-width="5.0e-3"><polyline points="-0.3639025829081632,0.23637140575079868
0.48024441964285713,0.4030007987220447"/></g><g stroke-opacity="1.0" fill="none" stroke="#ad8d12" stroke-width="5.0e-3"><polyline points="-0.35028730867346936,0.22760143769968044
0.46662914540816336,0.4030007987220447"/></g><g stroke-opacity="1.0" fill="none" stroke="#a88e12" stroke-width="5.0e-3"><polyline points="-0.33667203443877547,0.21883146964856226
0.45301387117346936,0.4030007987220447"/></g><g stroke-opacity="1.0" fill="none" stroke="#a48e13" stroke-width="5.0e-3"><polyline points="-0.3230567602040816,0.21006150159744408
0.43939859693877537,0.4030007987220447"/></g><g stroke-opacity="1.0" fill="none" stroke="#a08f14" stroke-width="5.0e-3"><polyline points="-0.30944148596938764,0.20129153354632584
0.4257833227040816,0.4030007987220447"/></g><g stroke-opacity="1.0" fill="none" stroke="#9c9015" stroke-width="5.0e-3"><polyline points="-0.29582621173469387,0.1925215654952076
0.4121680484693878,0.4030007987220447"/></g><g stroke-opacity="1.0" fill="none" stroke="#989016" stroke-width="5.0e-3"><polyline points="-0.2822109374999999,0.18375159744408942
0.3985527742346938,0.4030007987220447"/></g><g stroke-opacity="1.0" fill="none" stroke="#949117" stroke-width="5.0e-3"><polyline points="-0.2685956632653061,0.17498162939297118
0.3849374999999998,0.4030007987220447"/></g><g stroke-opacity="1.0" fill="none" stroke="#909218" stroke-width="5.0e-3"><polyline points="-0.2549803890306122,0.16621166134185295
0.37132222576530605,0.4030007987220447"/></g><g stroke-opacity="1.0" fill="none" stroke="#8c9219" stroke-width="5.0e-3"><polyline points="-0.24136511479591827,0.15744169329073476
0.35770695153061227,0.4030007987220447"/></g><g stroke-opacity="1.0" fill="none" stroke="#879319" stroke-width="5.0e-3"><polyline points="-0.2277498405612245,0.14867172523961658
0.3440916772959183,0.4030007987220447"/></g><g stroke-opacity="1.0" fill="none" stroke="#83941a" stroke-width="5.0e-3"><polyline points="-0.2141345663265306,0.13990175718849834
0.3304764030612245,0.4030007987220447"/></g><g stroke-opacity="1.0" fill="none" stroke="#7f941b" stroke-width="5.0e-3"><polyline points="-0.20051929209183678,0.13113178913738016
0.3168611288265307,0.4030007987220447"/></g><g stroke-opacity="1.0" fill="none" stroke="#7b951c" stroke-width="5.0e-3"><polyline points="-0.18690401785714283,0.12236182108626192
0.3032458545918367,0.4030007987220447"/></g><g stroke-opacity="1.0" fill="none" stroke="#77961d" stroke-width="5.0e-3"><polyline points="-0.17328874362244895,0.11359185303514369
0.28963058035714295,0.4030007987220447"/></g><g stroke-opacity="1.0" fill="none" stroke="#73961e" stroke-width="5.0e-3"><polyline points="-0.15967346938775506,0.1048218849840255
0.27601530612244884,0.4030007987220447"/></g><g stroke-opacity="1.0" fill="none" stroke="#6f971f" stroke-width="5.0e-3"><polyline points="-0.14605819515306118,9.605191693290727e-2
0.26240003188775507,0.4030007987220447"/></g><g stroke-opacity="1.0" fill="none" stroke="#6b9820" stroke-width="5.0e-3"><polyline points="-0.1324429209183673,8.728194888178908e-2
0.24878475765306118,0.4030007987220447"/></g><g stroke-opacity="1.0" fill="none" stroke="#679820" stroke-width="5.0e-3"><polyline points="-0.11882764668367352,7.851198083067085e-2
0.2351694834183674,0.4030007987220447"/></g><g stroke-opacity="1.0" fill="none" stroke="#629921" stroke-width="5.0e-3"><polyline points="-0.10521237244897952,6.974201277955266e-2
0.2215542091836734,0.4030007987220447"/></g><g stroke-opacity="1.0" fill="none" stroke="#5e9a22" stroke-width="5.0e-3"><polyline points="-9.159709821428574e-2,6.097204472843443e-2
0.20793893494897964,0.4030007987220447"/></g><g stroke-opacity="1.0" fill="none" stroke="#5a9a23" stroke-width="5.0e-3"><polyline points="-7.798182397959175e-2,5.220207667731619e-2
0.19432366071428553,0.4030007987220447"/></g><g stroke-opacity="1.0" fill="none" stroke="#569b24" stroke-width="5.0e-3"><polyline points="-6.436654974489797e-2,4.343210862619801e-2
0.18070838647959175,0.4030007987220447"/></g><g stroke-opacity="1.0" fill="none" stroke="#529c25" stroke-width="5.0e-3"><polyline points="-5.0751275510204086e-2,3.466214057507977e-2
0.16709311224489787,0.4030007987220447"/></g><g stroke-opacity="1.0" fill="none" stroke="#4e9c26" stroke-width="5.0e-3"><polyline points="-3.71360012755102e-2,2.5892172523961532e-2
0.1534778380102042,0.4030007987220447"/></g><g stroke-opacity="1.0" fill="none" stroke="#4a9d27" stroke-width="5.0e-3"><polyline points="-2.3520727040816314e-2,1.712220447284335e-2
0.1398625637755102,0.4030007987220447"/></g><g stroke-opacity="1.0" fill="none" stroke="#469e27" stroke-width="5.0e-3"><polyline points="-9.905452806122428e-3,8.352236421725168e-3
0.12624728954081632,0.4030007987220447"/></g><g stroke-opacity="1.0" fill="none" stroke="#419e28" stroke-width="5.0e-3"><polyline points="3.709821428571458e-3,-4.1773162939312547e-4
0.11263201530612255,0.4030007987220447"/></g><g stroke-opacity="1.0" fill="none" stroke="#3d9f29" stroke-width="5.0e-3"><polyline points="1.7325095663265344e-2,-9.187699680511308e-3
9.901674107142855e-2,0.4030007987220447"/></g><g stroke-opacity="1.0" fill="none" stroke="#39a02a" stroke-width="5.0e-3"><polyline points="3.094036989795923e-2,-1.7957667731629434e-2
8.540146683673466e-2,0.4030007987220447"/></g><g stroke-opacity="1.0" fill="none" stroke="#35a02b" stroke-width="5.0e-3"><polyline points="4.4555644132653005e-2,-2.6727635782747616e-2
7.178619260204089e-2,0.4030007987220447"/></g><g stroke-opacity="1.0" fill="none" stroke="#35a02b" stroke-width="5.0e-3"><polyline points="5.817091836734689e-2,-3.549760383386591e-2
5.817091836734689e-2,0.4030007987220447"/></g><g stroke-opacity="1.0" fill="none" stroke="#39a02a" stroke-width="5.0e-3"><polyline points="7.178619260204089e-2,-4.426757188498409e-2
4.4555644132653005e-2,0.4030007987220447"/></g><g stroke-opacity="1.0" fill="none" stroke="#3d9f29" stroke-width="5.0e-3"><polyline points="8.540146683673466e-2,-5.3037539936102385e-2
3.094036989795923e-2,0.4030007987220447"/></g><g stroke-opacity="1.0" fill="none" stroke="#419e28" stroke-width="5.0e-3"><polyline points="9.901674107142855e-2,-6.180750798722057e-2
1.7325095663265344e-2,0.4030007987220447"/></g><g stroke-opacity="1.0" fill="none" stroke="#469e27" stroke-width="5.0e-3"><polyline points="0.11263201530612255,-7.057747603833875e-2
3.709821428571458e-3,0.4030007987220447"/></g><g stroke-opacity="1.0" fill="none" stroke="#4a9d27" stroke-width="5.0e-3"><polyline points="0.12624728954081632,-7.934744408945693e-2
-9.905452806122428e-3,0.4030007987220447"/></g><g stroke-opacity="1.0" fill="none" stroke="#4e9c26" stroke-width="5.0e-3"><polyline points="0.1398625637755102,-8.811741214057511e-2
-2.3520727040816314e-2,0.4030007987220447"/></g><g stroke-opacity="1.0" fill="none" stroke="#529c25" stroke-width="5.0e-3"><polyline points="0.1534778380102042,-9.68873801916934e-2
-3.71360012755102e-2,0.4030007987220447"/></g><g stroke-opacity="1.0" fill="none" stroke="#569b24" stroke-width="5.0e-3"><polyline points="0.16709311224489787,-0.10565734824281159
-5.0751275510204086e-2,0.4030007987220447"/></g><g stroke-opacity="1.0" fill="none" stroke="#5a9a23" stroke-width="5.0e-3"><polyline points="0.18070838647959175,-0.11442731629392977
-6.436654974489797e-2,0.4030007987220447"/></g><g stroke-opacity="1.0" fill="none" stroke="#5e9a22" stroke-width="5.0e-3"><polyline points="0.19432366071428553,-0.12319728434504795
-7.798182397959175e-2,0.4030007987220447"/></g><g stroke-opacity="1.0" fill="none" stroke="#629921" stroke-width="5.0e-3"><polyline points="0.20793893494897964,-0.13196725239616613
-9.159709821428574e-2,0.4030007987220447"/></g><g stroke-opacity="1.0" fill="none" stroke="#679820" stroke-width="5.0e-3"><polyline points="0.2215542091836734,-0.14073722044728432
-0.10521237244897952,0.4030007987220447"/></g><g stroke-opacity="1.0" fill="none" stroke="#6b9820" stroke-width="5.0e-3"><polyline points="0.2351694834183674,-0.14950718849840272
-0.11882764668367352,0.4030007987220447"/></g><g stroke-opacity="1.0" fill="none" stroke="#6f971f" stroke-width="5.0e-3"><polyline points="0.24878475765306118,-0.1582771565495209
-0.1324429209183673,0.4030007987220447"/></g><g stroke-opacity="1.0" fill="none" stroke="#73961e" stroke-width="5.0e-3"><polyline points="0.26240003188775507,-0.16704712460063909
-0.14605819515306118,0.4030007987220447"/></g><g stroke-opacity="1.0" fill="none" stroke="#77961d" stroke-width="5.0e-3"><polyline points="0.27601530612244884,-0.17581709265175727
-0.15967346938775506,0.4030007987220447"/></g><g stroke-opacity="1.0" fill="none" stroke="#7b951c" stroke-width="5.0e-3"><polyline points="0.28963058035714295,-0.18458706070287545
-0.17328874362244895,0.4030007987220447"/></g><g stroke-opacity="1.0" fill="none" stroke="#7f941b" stroke-width="5.0e-3"><polyline points="0.3032458545918367,-0.19335702875399363
-0.18690401785714283,0.4030007987220447"/></g><g stroke-opacity="1.0" fill="none" stroke="#83941a" stroke-width="5.0e-3"><polyline points="0.3168611288265307,-0.20212699680511204
-0.20051929209183678,0.4030007987220447"/></g><g stroke-opacity="1.0" fill="none" stroke="#879319" stroke-width="5.0e-3"><polyline points="0.3304764030612245,-0.21089696485623022
-0.2141345663265306,0.4030007987220447"/></g><g stroke-opacity="1.0" fill="none" stroke="#8c9219" stroke-width="5.0e-3"><polyline points="0.3440916772959183,-0.2196669329073483
-0.2277498405612245,0.4030007987220447"/></g><g stroke-opacity="1.0" fill="none" stroke="#909218" stroke-width="5.0e-3"><polyline points="0.35770695153061227,-0.22843690095846647
-0.24136511479591827,0.4030007987220447"/></g><g stroke-opacity="1.0" fill="none" stroke="#949117" stroke-width="5.0e-3"><polyline points="0.37132222576530605,-0.23720686900958465
-0.2549803890306122,0.4030007987220447"/></g><g stroke-opacity="1.0" fill="none" stroke="#989016" stroke-width="5.0e-3"><polyline points="0.3849374999999998,-0.24597683706070295
-0.2685956632653061,0.4030007987220447"/></g><g stroke-opacity="1.0" fill="none" stroke="#9c9015" stroke-width="5.0e-3"><polyline points="0.3985527742346938,-0.25474680511182124
-0.2822109374999999,0.4030007987220447"/></g><g stroke-opacity="1.0" fill="none" stroke="#a08f14" stroke-width="5.0e-3"><polyline points="0.4121680484693878,-0.2635167731629394
-0.29582621173469387,0.4030007987220447"/></g><g stroke-opacity="1.0" fill="none" stroke="#a48e13" stroke-width="5.0e-3"><polyline points="0.4257833227040816,-0.2722867412140576
-0.30944148596938764,0.4030007987220447"/></g><g stroke-opacity="1.0" fill="none" stroke="#a88e12" stroke-width="5.0e-3"><polyline points="0.43939859693877537,-0.2810567092651758
-0.3230567602040816,0.4030007987220447"/></g><g stroke-opacity="1.0" fill="none" stroke="#ad8d12" stroke-width="5.0e-3"><polyline points="0.45301387117346936,-0.28982667731629397
-0.33667203443877547,0.4030007987220447"/></g><g stroke-opacity="1.0" fill="none" stroke="#b18c11" stroke-width="5.0e-3"><polyline points="0.46662914540816336,-0.29859664536741226
-0.35028730867346936,0.4030007987220447"/></g><g stroke-opacity="1.0" fill="none" stroke="#b58c10" stroke-width="5.0e-3"><polyline points="0.48024441964285713,-0.30736661341853044
-0.3639025829081632,0.4030007987220447"/></g><g stroke-opacity="1.0" fill="none" stroke="#b98b0f" stroke-width="5.0e-3"><polyline points="0.4938596938775509,-0.31613658146964874
-0.37751785714285707,0.4030007987220447"/></g><g stroke-opacity="1.0" fill="none" stroke="#bd8a0e" stroke-width="5.0e-3"><polyline points="0.5074749681122449,-0.3249065495207669
-0.391133131377551,0.4030007987220447"/></g><g stroke-opacity="1.0" fill="none" stroke="#c18a0d" stroke-width="5.0e-3"><polyline points="0.5210902423469387,-0.333676517571885
-0.40474840561224484,0.4030007987220447"/></g><g stroke-opacity="1.0" fill="none" stroke="#c5890c" stroke-width="5.0e-3"><polyline points="0.5347055165816325,-0.3424464856230033
-0.4183636798469388,0.4030007987220447"/></g><g stroke-opacity="1.0" fill="none" stroke="#c9880b" stroke-width="5.0e-3"><polyline points="0.5483207908163265,-0.35121645367412146
-0.43197895408163267,0.4030007987220447"/></g><g stroke-opacity="1.0" fill="none" stroke="#ce880b" stroke-width="5.0e-3"><polyline points="0.5619360650510205,-0.35998642172523965
-0.44559422831632645,0.4030007987220447"/></g><g stroke-opacity="1.0" fill="none" stroke="#d2870a" stroke-width="5.0e-3"><polyline points="0.5755513392857142,-0.36875638977635794
-0.45920950255102044,0.4030007987220447"/></g><g stroke-opacity="1.0" fill="none" stroke="#d68609" stroke-width="5.0e-3"><polyline points="0.589166613520408,-0.3775263578274761
-0.4728247767857142,0.4030007987220447"/></g><g stroke-opacity="1.0" fill="none" stroke="#da8608" stroke-width="5.0e-3"><polyline points="0.602781887755102,-0.3862963258785943
-0.4864400510204081,0.4030007987220447"/></g><g stroke-opacity="1.0" fill="none" stroke="#de8507" stroke-width="5.0e-3"><polyline points="0.6163971619897958,-0.3950662939297126
-0.500055325255102,0.4030007987220447"/></g><g stroke-opacity="1.0" fill="none" stroke="#e28406" stroke-width="5.0e-3"><polyline points="0.6300124362244898,-0.4038362619808308
-0.5136705994897959,0.4030007987220447"/></g><g stroke-opacity="1.0" fill="none" stroke="#e68405" stroke-width="5.0e-3"><polyline points="0.6436277104591838,-0.41260623003194896
-0.5272858737244898,0.4030007987220447"/></g><g stroke-opacity="1.0" fill="none" stroke="#ea8304" stroke-width="5.0e-3"><polyline points="0.6572429846938775,-0.42137619808306725
-0.5409011479591836,0.4030007987220447"/></g><g stroke-opacity="1.0" fill="none" stroke="#ef8204" stroke-width="5.0e-3"><polyline points="0.6708582589285715,-0.43014616613418544
-0.5545164221938775,0.4030007987220447"/></g><g stroke-opacity="1.0" fill="none" stroke="#f38203" stroke-width="5.0e-3"><polyline points="0.6844735331632653,-0.43891613418530373
-0.5681316964285713,0.4030007987220447"/></g><g stroke-opacity="1.0" fill="none" stroke="#f78102" stroke-width="5.0e-3"><polyline points="0.6980888073979591,-0.4476861022364217
-0.5817469706632652,0.4030007987220447"/></g><g stroke-opacity="1.0" fill="none" stroke="#fb8001" stroke-width="5.0e-3"><polyline points="0.7117040816326529,-0.4564560702875401
-0.5953622448979591,0.4030007987220447"/></g><g stroke-opacity="1.0" fill="none" stroke="#ff8000" stroke-width="5.0e-3"><polyline points="0.7253193558673466,-0.46522603833865817
-0.608977519132653,0.4030007987220447"/></g></g></g><g class="hud"><g class="frame"><g stroke-opacity="0.0" fill="#ffffff" stroke="#000000" stroke-width="0.0" fill-opacity="2.0e-2"><rect width="1.3615274234693877" x="-0.6225927933673469" y="-0.47399600638977646" height="0.8769968051118211"/></g></g><g class="axis"><g class="ticks"><g class="tickglyph"><g stroke-opacity="0.4" fill="#0d0d0d" stroke="#0d0d0d" stroke-width="4.0e-3" fill-opacity="0.4"><g transform="rotate(-90.0, -0.6498233418367346, 0.4030007987220447)"><polyline points="-0.6498233418367346,0.4180007987220447
-0.6498233418367346,0.3880007987220447"/></g><g transform="rotate(-90.0, -0.6498233418367346, 0.3153011182108626)"><polyline points="-0.6498233418367346,0.3303011182108626
-0.6498233418367346,0.3003011182108626"/></g><g transform="rotate(-90.0, -0.6498233418367346, 0.22760143769968044)"><polyline points="-0.6498233418367346,0.24260143769968046
-0.6498233418367346,0.21260143769968043"/></g><g transform="rotate(-90.0, -0.6498233418367346, 0.1399017571884983)"><polyline points="-0.6498233418367346,0.1549017571884983
-0.6498233418367346,0.12490175718849829"/></g><g transform="rotate(-90.0, -0.6498233418367346, 5.220207667731619e-2)"><polyline points="-0.6498233418367346,6.720207667731619e-2
-0.6498233418367346,3.720207667731619e-2"/></g><g transform="rotate(-90.0, -0.6498233418367346, -3.549760383386591e-2)"><polyline points="-0.6498233418367346,-2.049760383386591e-2
-0.6498233418367346,-5.049760383386591e-2"/></g><g transform="rotate(-90.0, -0.6498233418367346, -0.12319728434504806)"><polyline points="-0.6498233418367346,-0.10819728434504806
-0.6498233418367346,-0.13819728434504808"/></g><g transform="rotate(-90.0, -0.6498233418367346, -0.21089696485623022)"><polyline points="-0.6498233418367346,-0.1958969648562302
-0.6498233418367346,-0.22589696485623023"/></g><g transform="rotate(-90.0, -0.6498233418367346, -0.29859664536741226)"><polyline points="-0.6498233418367346,-0.28359664536741225
-0.6498233418367346,-0.3135966453674123"/></g><g transform="rotate(-90.0, -0.6498233418367346, -0.3862963258785943)"><polyline points="-0.6498233418367346,-0.3712963258785943
-0.6498233418367346,-0.4012963258785943"/></g><g transform="rotate(-90.0, -0.6498233418367346, -0.47399600638977646)"><polyline points="-0.6498233418367346,-0.45899600638977645
-0.6498233418367346,-0.48899600638977647"/></g></g></g><g class="ticktext"><g fill="#0d0d0d" stroke="none" stroke-width="0.0" font-size="4.538424744897959e-2" fill-opacity="1.0" text-anchor="end"><text x="-0.6825" y="0.4150595047923323">0</text><text x="-0.6825" y="0.3273598242811501">0.1</text><text x="-0.6825" y="0.23966014376996794">0.2</text><text x="-0.6825" y="0.15196046325878587">0.3</text><text x="-0.6825" y="6.426078274760372e-2">0.4</text><text x="-0.6825" y="-2.3438897763578326e-2">0.5</text><text x="-0.6825" y="-0.11113857827476048">0.6</text><text x="-0.6825" y="-0.19883825878594263">0.7</text><text x="-0.6825" y="-0.2865379392971247">0.8</text><text x="-0.6825" y="-0.37423761980830683">0.9</text><text x="-0.6825" y="-0.4619373003194889">1</text></g></g><g class="ticklines"><g stroke-opacity="5.0e-2" fill="none" stroke="#0d0d0d" stroke-width="5.0e-3"><polyline points="-0.6225927933673469,0.4030007987220447
0.7389346301020409,0.4030007987220447"/><polyline points="-0.6225927933673469,0.3153011182108626
0.7389346301020409,0.3153011182108626"/><polyline points="-0.6225927933673469,0.22760143769968044
0.7389346301020409,0.22760143769968044"/><polyline points="-0.6225927933673469,0.1399017571884983
0.7389346301020409,0.1399017571884983"/><polyline points="-0.6225927933673469,5.220207667731619e-2
0.7389346301020409,5.220207667731619e-2"/><polyline points="-0.6225927933673469,-3.549760383386591e-2
0.7389346301020409,-3.549760383386591e-2"/><polyline points="-0.6225927933673469,-0.12319728434504806
0.7389346301020409,-0.12319728434504806"/><polyline points="-0.6225927933673469,-0.21089696485623022
0.7389346301020409,-0.21089696485623022"/><polyline points="-0.6225927933673469,-0.29859664536741226
0.7389346301020409,-0.29859664536741226"/><polyline points="-0.6225927933673469,-0.3862963258785943
0.7389346301020409,-0.3862963258785943"/><polyline points="-0.6225927933673469,-0.47399600638977646
0.7389346301020409,-0.47399600638977646"/></g></g></g><g class="axisbar"><g stroke-opacity="0.0" fill="#0d0d0d" stroke="#000000" stroke-width="0.0" fill-opacity="0.4"><rect width="3.630739795918436e-3" x="-0.6353003826530612" y="-0.47575" height="0.8805047923322683"/></g></g></g><g class="axis"><g class="ticks"><g class="tickglyph"><g stroke-opacity="0.4" fill="#0d0d0d" stroke="#0d0d0d" stroke-width="4.0e-3" fill-opacity="0.4"><polyline points="-0.6225927933673469,0.44431070287539937
-0.6225927933673469,0.41431070287539934"/><polyline points="-0.4864400510204081,0.44431070287539937
-0.4864400510204081,0.41431070287539934"/><polyline points="-0.35028730867346936,0.44431070287539937
-0.35028730867346936,0.41431070287539934"/><polyline points="-0.21413456632653055,0.44431070287539937
-0.21413456632653055,0.41431070287539934"/><polyline points="-7.798182397959175e-2,0.44431070287539937
-7.798182397959175e-2,0.41431070287539934"/><polyline points="5.817091836734689e-2,0.44431070287539937
5.817091836734689e-2,0.41431070287539934"/><polyline points="0.19432366071428586,0.44431070287539937
0.19432366071428586,0.41431070287539934"/><polyline points="0.3304764030612245,0.44431070287539937
0.3304764030612245,0.41431070287539934"/><polyline points="0.46662914540816336,0.44431070287539937
0.46662914540816336,0.41431070287539934"/><polyline points="0.602781887755102,0.44431070287539937
0.602781887755102,0.41431070287539934"/><polyline points="0.7389346301020409,0.44431070287539937
0.7389346301020409,0.41431070287539934"/></g></g><g class="ticktext"><g fill="#0d0d0d" stroke="none" stroke-width="0.0" font-size="4.538424744897959e-2" fill-opacity="1.0" text-anchor="middle"><text x="-0.6225927933673469" y="0.485">0</text><text x="-0.4864400510204081" y="0.485">0.1</text><text x="-0.35028730867346936" y="0.485">0.2</text><text x="-0.21413456632653055" y="0.485">0.3</text><text x="-7.798182397959175e-2" y="0.485">0.4</text><text x="5.817091836734689e-2" y="0.485">0.5</text><text x="0.19432366071428586" y="0.485">0.6</text><text x="0.3304764030612245" y="0.485">0.7</text><text x="0.46662914540816336" y="0.485">0.8</text><text x="0.602781887755102" y="0.485">0.9</text><text x="0.7389346301020409" y="0.485">1</text></g></g><g class="ticklines"><g stroke-opacity="5.0e-2" fill="none" stroke="#0d0d0d" stroke-width="5.0e-3"><polyline points="-0.6225927933673469,0.4030007987220447
-0.6225927933673469,-0.47399600638977646"/><polyline points="-0.4864400510204081,0.4030007987220447
-0.4864400510204081,-0.47399600638977646"/><polyline points="-0.35028730867346936,0.4030007987220447
-0.35028730867346936,-0.47399600638977646"/><polyline points="-0.21413456632653055,0.4030007987220447
-0.21413456632653055,-0.47399600638977646"/><polyline points="-7.798182397959175e-2,0.4030007987220447
-7.798182397959175e-2,-0.47399600638977646"/><polyline points="5.817091836734689e-2,0.4030007987220447
5.817091836734689e-2,-0.47399600638977646"/><polyline points="0.19432366071428586,0.4030007987220447
0.19432366071428586,-0.47399600638977646"/><polyline points="0.3304764030612245,0.4030007987220447
0.3304764030612245,-0.47399600638977646"/><polyline points="0.46662914540816336,0.4030007987220447
0.46662914540816336,-0.47399600638977646"/><polyline points="0.602781887755102,0.4030007987220447
0.602781887755102,-0.47399600638977646"/><polyline points="0.7389346301020409,0.4030007987220447
0.7389346301020409,-0.47399600638977646"/></g></g></g><g class="axisbar"><g stroke-opacity="0.0" fill="#0d0d0d" stroke="#000000" stroke-width="0.0" fill-opacity="0.4"><rect width="1.3651581632653058" x="-0.624408163265306" y="0.41177076677316293" height="3.5079872204472617e-3"/></g></g></g></g></svg>