<?xml version='1.0' ?>
<svg viewBox="-1.8180250000000004 -0.6624267441860465 3.636050000000001 1.288884496124031" xmlns="http://www.w3.org/2000/svg" xmlns:xlink="http://www.w3.org/1999/xlink" version="1.1" width="600.0" height="200.0">
  <g stroke-width="1.0e-2" stroke="#5DA5DA" fill="#000000" fill-opacity="0.0" stroke-opacity="1.0">
    <rect width="3.3055000000000003" height="1.1717131782945736" x="-1.6527500000000002" y="-0.6038410852713177" />
  </g>
  <g stroke-width="5.0e-3" stroke="#666666" fill="#FF0000" fill-opacity="0.5" stroke-opacity="0.5">
    <rect width="9.677419354838723e-2" height="0.22480620155038755" x="-1.5" y="0.27519379844961245" />
    <rect width="9.677419354838723e-2" height="0.2248062015503876" x="-1.2100374092779311" y="0.24289405684754523" />
    <rect width="9.677419354838723e-2" height="0.22480620155038755" x="-0.9229720289134684" y="0.21059431524547811" />
    <rect width="9.677419354838712e-2" height="0.2248062015503875" x="-0.6416721212960143" y="0.17829457364341095" />
    <rect width="9.677419354838723e-2" height="0.22480620155038755" x="-0.36894834211709604" y="0.14599483204134378" />
    <rect width="9.677419354838723e-2" height="0.2248062015503876" x="-0.10752565722777341" y="0.11369509043927656" />
    <rect width="9.677419354838723e-2" height="0.2248062015503875" x="0.1399838843193899" y="8.139534883720939e-2" />
    <rect width="9.677419354838701e-2" height="0.22480620155038755" x="0.37110724900103054" y="4.9095607235142225e-2" />
    <rect width="9.677419354838745e-2" height="0.2248062015503876" x="0.5835351285564774" y="1.6795865633075002e-2" />
    <rect width="9.677419354838701e-2" height="0.22480620155038755" x="0.7751450138325335" y="-1.5503875968992165e-2" />
    <rect width="9.677419354838701e-2" height="0.22480620155038755" x="0.944022402193327" y="-4.780361757105933e-2" />
    <rect width="9.677419354838745e-2" height="0.22480620155038755" x="1.0884799265978002" y="-8.01033591731265e-2" />
    <rect width="9.677419354838745e-2" height="0.2248062015503875" x="1.207074215213412" y="-0.11240310077519367" />
    <rect width="9.677419354838701e-2" height="0.2248062015503875" x="1.2986203131103755" y="-0.14470284237726083" />
    <rect width="9.677419354838745e-2" height="0.22480620155038755" x="1.3622035219396205" y="-0.177002583979328" />
    <rect width="9.677419354838701e-2" height="0.22480620155038755" x="1.3971885392963395" y="-0.20930232558139528" />
    <rect width="9.677419354838701e-2" height="0.22480620155038744" x="1.403225806451613" y="-0.24160206718346233" />
    <rect width="9.677419354838701e-2" height="0.22480620155038744" x="1.380255001027682" y="-0.2739018087855295" />
    <rect width="9.677419354838745e-2" height="0.22480620155038766" x="1.3285056397192028" y="-0.3062015503875969" />
    <rect width="9.677419354838701e-2" height="0.22480620155038755" x="1.2484947850383055" y="-0.33850129198966394" />
    <rect width="9.677419354838701e-2" height="0.22480620155038744" x="1.1410218789968893" y="-0.370801033591731" />
    <rect width="9.677419354838745e-2" height="0.22480620155038755" x="1.0071607553463" y="-0.4031007751937984" />
    <rect width="9.677419354838745e-2" height="0.22480620155038755" x="0.8482489101854505" y="-0.43540051679586544" />
    <rect width="9.677419354838701e-2" height="0.22480620155038744" x="0.6658741381419158" y="-0.4677002583979325" />
    <rect width="9.677419354838745e-2" height="0.22480620155038755" x="0.46185866765286976" y="-0.4999999999999999" />
  </g>
  <g stroke-width="0.0" stroke="none" fill="#666666" fill-opacity="1.0" font-size="0.2" text-anchor="middle">
    <text x="-1.4516129032258065" y="0.4496124031007752">a</text>
    <text x="-1.1616503125037376" y="0.41731266149870805">b</text>
    <text x="-0.8745849321392748" y="0.3850129198966409">c</text>
    <text x="-0.5932850245218206" y="0.3527131782945737">d</text>
    <text x="-0.3205612453429023" y="0.32041343669250655">e</text>
    <text x="-5.91385604535799e-2" y="0.2881136950904394">f</text>
    <text x="0.1883709810935834" y="0.25581395348837216">g</text>
    <text x="0.41949434577522426" y="0.223514211886305">h</text>
    <text x="0.6319222253306709" y="0.19121447028423783">i</text>
    <text x="0.8235321106067266" y="0.1589147286821706">j</text>
    <text x="0.9924094989675205" y="0.12661498708010344">k</text>
    <text x="1.1368670233719937" y="9.431524547803632e-2">l</text>
    <text x="1.2554613119876055" y="6.201550387596905e-2">m</text>
    <text x="1.347007409884569" y="2.9715762273901936e-2">n</text>
    <text x="1.410590618713814" y="-2.5839793281652312e-3">o</text>
    <text x="1.445575636070533" y="-3.488372093023251e-2">p</text>
    <text x="1.451612903225807" y="-6.718346253229968e-2">q</text>
    <text x="1.428642097801876" y="-9.948320413436673e-2">r</text>
    <text x="1.3768927364933963" y="-0.131782945736434">s</text>
    <text x="1.2968818818124985" y="-0.16408268733850118">t</text>
    <text x="1.1894089757710828" y="-0.19638242894056834">u</text>
    <text x="1.055547852120494" y="-0.2286821705426355">v</text>
    <text x="0.8966360069596444" y="-0.2609819121447027">w</text>
    <text x="0.7142612349161097" y="-0.29328165374676984">x</text>
    <text x="0.5102457644270633" y="-0.3255813953488371">y</text>
  </g>
</svg>
