<?xml version='1.0' ?>
<svg viewBox="-1.8180250000000002 -0.6380180327868854 3.63605 1.258003278688525" xmlns="http://www.w3.org/2000/svg" xmlns:xlink="http://www.w3.org/1999/xlink" version="1.1" width="600.0" height="200.0">
  <g stroke-width="1.0e-2" stroke="#5DA5DA" fill="#000000" fill-opacity="0.0" stroke-opacity="1.0">
    <rect width="3.3055" height="1.1436393442622952" x="-1.6527500000000002" y="-0.5808360655737705" />
  </g>
  <g stroke-width="0.0" stroke="#666666" fill="#FF0000" fill-opacity="0.3" stroke-opacity="0.3">
    <circle cy="4.098360655737704e-2" r="2.0e-2" />
  </g>
  <g stroke-width="5.0e-3" stroke="#666666" fill="#5DA5DA" fill-opacity="0.5" stroke-opacity="0.5">
    <rect width="8.737864077669899e-2" height="0.1803278688524591" x="-1.5" y="0.3196721311475409" />
    <rect width="8.737864077669877e-2" height="0.18032786885245905" x="-1.2090990190166946" y="0.28551912568306004" />
    <rect width="8.73786407766991e-2" height="0.18032786885245905" x="-0.9211046244762953" y="0.2513661202185792" />
    <rect width="8.737864077669921e-2" height="0.180327868852459" x="-0.6388943611707587" y="0.21721311475409832" />
    <rect width="8.737864077669899e-2" height="0.180327868852459" x="-0.36528798076472424" y="0.18306010928961747" />
    <rect width="8.737864077669899e-2" height="0.180327868852459" x="-0.10301926776896364" y="0.1489071038251366" />
    <rect width="8.737864077669877e-2" height="0.18032786885245905" x="0.14529127553077958" y="0.1147540983606557" />
    <rect width="8.737864077669921e-2" height="0.180327868852459" x="0.377162612266406" y="8.06010928961749e-2" />
    <rect width="8.737864077669899e-2" height="0.18032786885245905" x="0.590277960687728" y="4.644808743169393e-2" />
    <rect width="8.737864077669855e-2" height="0.18032786885245905" x="0.7825079426798878" y="1.2295081967213073e-2" />
    <rect width="8.737864077669899e-2" height="0.18032786885245905" x="0.9519318598056028" y="-2.1857923497267784e-2" />
    <rect width="8.737864077669899e-2" height="0.18032786885245905" x="1.0968568842890551" y="-5.601092896174864e-2" />
    <rect width="8.737864077669899e-2" height="0.18032786885245905" x="1.2158349731914488" y="-9.01639344262295e-2" />
    <rect width="8.737864077669899e-2" height="0.18032786885245905" x="1.3076773367773988" y="-0.12431693989071035" />
    <rect width="8.737864077669855e-2" height="0.1803278688524591" x="1.3714663165090046" y="-0.1584699453551912" />
    <rect width="8.737864077669899e-2" height="0.1803278688524591" x="1.4065645539866187" y="-0.19262295081967218" />
    <rect width="8.737864077669855e-2" height="0.180327868852459" x="1.412621359223301" y="-0.22677595628415292" />
    <rect width="8.737864077669855e-2" height="0.180327868852459" x="1.3895762146232409" y="-0.2609289617486338" />
    <rect width="8.737864077669855e-2" height="0.1803278688524591" x="1.3376593796535694" y="-0.29508196721311475" />
    <rect width="8.737864077669943e-2" height="0.180327868852459" x="1.2573895901678789" y="-0.3292349726775956" />
    <rect width="8.737864077669899e-2" height="0.180327868852459" x="1.1495688753690474" y="-0.36338797814207635" />
    <rect width="8.737864077669899e-2" height="0.1803278688524591" x="1.0152745441985536" y="-0.39754098360655743" />
    <rect width="8.737864077669855e-2" height="0.180327868852459" x="0.8558484212216495" y="-0.4316939890710382" />
    <rect width="8.737864077669943e-2" height="0.180327868852459" x="0.6728834395598504" y="-0.4658469945355189" />
    <rect width="8.737864077669899e-2" height="0.1803278688524591" x="0.4682077248297398" y="-0.5" />
  </g>
  <g stroke-width="0.0" stroke="none" fill="#666666" fill-opacity="1.0" font-size="0.2" text-anchor="middle">
    <text x="-1.4563106796116505" y="0.4508196721311475">a</text>
    <text x="-1.1654096986283453" y="0.41666666666666663">b</text>
    <text x="-0.8774153040879458" y="0.3825136612021858">c</text>
    <text x="-0.5952050407824092" y="0.3483606557377049">d</text>
    <text x="-0.32159866037637475" y="0.31420765027322406">e</text>
    <text x="-5.9329947380614145e-2" y="0.2800546448087432">f</text>
    <text x="0.18898059591912908" y="0.2459016393442623">g</text>
    <text x="0.4208519326547555" y="0.21174863387978143">h</text>
    <text x="0.6339672810760777" y="0.17759562841530058">i</text>
    <text x="0.826197263068237" y="0.14344262295081966">j</text>
    <text x="0.9956211801939521" y="0.10928961748633881">k</text>
    <text x="1.1405462046774049" y="7.5136612021858e-2">l</text>
    <text x="1.2595242935797986" y="4.098360655737704e-2">m</text>
    <text x="1.3513666571657486" y="6.830601092896238e-3">n</text>
    <text x="1.415155636897354" y="-2.732240437158462e-2">o</text>
    <text x="1.4502538743749684" y="-6.1475409836065587e-2">p</text>
    <text x="1.4563106796116507" y="-9.562841530054644e-2">q</text>
    <text x="1.4332655350115902" y="-0.1297814207650272">r</text>
    <text x="1.3813487000419187" y="-0.16393442622950816">s</text>
    <text x="1.3010789105562286" y="-0.198087431693989">t</text>
    <text x="1.193258195757397" y="-0.23224043715846987">u</text>
    <text x="1.0589638645869033" y="-0.2663934426229507">v</text>
    <text x="0.8995377416099988" y="-0.3005464480874316">w</text>
    <text x="0.7165727599482001" y="-0.33469945355191244">x</text>
    <text x="0.5118970452180895" y="-0.3688524590163934">y</text>
  </g>
</svg>
