<svg viewBox="-0.68085 -0.5145308831646733 1.3617 1.0271024655013798" xmlns="http://www.w3.org/2000/svg" xmlns:xlink="http://www.w3.org/1999/xlink" version="1.1" width="800.0" height="600.0"><g stroke-width="5.0e-3" stroke="#666666" fill="#FF0000" fill-opacity="0.5" stroke-opacity="0.5"><rect width="3.873786407766999e-2" height="8.003679852805884e-2" x="-0.665" y="0.41996320147194116" /><rect width="3.873786407766988e-2" height="8.00367985280589e-2" x="-0.5360338984307347" y="0.38163140141061025" /><rect width="3.873786407766994e-2" height="8.00367985280589e-2" x="-0.4083563835178241" y="0.3432996013492794" /><rect width="3.873786407766999e-2" height="8.003679852805884e-2" x="-0.283243166785703" y="0.30496780128794854" /><rect width="3.873786407766999e-2" height="8.003679852805884e-2" x="-0.16194433813902764" y="0.2666360012266177" /><rect width="3.873786407766988e-2" height="8.00367985280589e-2" x="-4.567187537757378e-2" y="0.22830420116528677" /><rect width="3.873786407766999e-2" height="8.00367985280589e-2" x="6.441246548531232e-2" y="0.18997240110395586" /><rect width="3.873786407766999e-2" height="8.003679852805884e-2" x="0.16720875810477354" y="0.15164060104262506" /><rect width="3.873786407766999e-2" height="8.00367985280589e-2" x="0.261689895904893" y="0.11330880098129414" /><rect width="3.873786407766988e-2" height="8.003679852805884e-2" x="0.3469118545880836" y="7.497700091996323e-2" /><rect width="3.873786407766988e-2" height="8.003679852805884e-2" x="0.4220231245138175" y="3.6645200858632376e-2" /><rect width="3.873786407766988e-2" height="8.003679852805884e-2" x="0.4862732187014813" y="-1.6865992026984244e-3" /><rect width="3.873786407766988e-2" height="8.003679852805884e-2" x="0.5390201714482092" y="-4.001839926402939e-2" /><rect width="3.87378640776701e-2" height="8.003679852805884e-2" x="0.5797369526379803" y="-7.835019932536025e-2" /><rect width="3.87378640776701e-2" height="8.00367985280589e-2" x="0.6080167336523252" y="-0.1166819993866911" /><rect width="3.873786407766988e-2" height="8.00367985280589e-2" x="0.6235769522674013" y="-0.15501379944802207" /><rect width="3.873786407766966e-2" height="8.00367985280589e-2" x="0.6262621359223304" y="-0.19334559950935293" /><rect width="3.873786407766966e-2" height="8.003679852805878e-2" x="0.616045455149637" y="-0.23167739957068367" /><rect width="3.873786407766988e-2" height="8.003679852805878e-2" x="0.5930289916464158" y="-0.27000919963201464" /><rect width="3.87378640776701e-2" height="8.003679852805878e-2" x="0.5574427183077599" y="-0.3083409996933455" /><rect width="3.873786407766988e-2" height="8.003679852805878e-2" x="0.5096422014136113" y="-0.34667279975467635" /><rect width="3.87378640776701e-2" height="8.00367985280589e-2" x="0.4501050479280255" y="-0.3850045998160073" /><rect width="3.873786407766988e-2" height="8.0036798528059e-2" x="0.3794261334082647" y="-0.4233363998773383" /><rect width="3.87378640776701e-2" height="8.00367985280589e-2" x="0.29831165820486727" y="-0.46166819993866903" /><rect width="3.873786407766999e-2" height="8.00367985280589e-2" x="0.2075720913411847" y="-0.5" /></g><g stroke-width="0.0" stroke="none" fill="#666666" fill-opacity="1.0" font-size="6.0e-2" text-anchor="middle"><text x="-0.6456310679611651" y="0.4710211591536339">a</text><text x="-0.5166649663918997" y="0.432689359092303">b</text><text x="-0.38898745147898917" y="0.39435755903097214">c</text><text x="-0.26387423474686794" y="0.3560257589696413">d</text><text x="-0.1425754061001926" y="0.3176939589083104">e</text><text x="-2.6302943338738838e-2" y="0.2793621588469795">f</text><text x="8.378139752414726e-2" y="0.2410303587856486">g</text><text x="0.18657769014360848" y="0.20269855872431775">h</text><text x="0.28105882794372794" y="0.1643667586629869">i</text><text x="0.36628078662691865" y="0.12603495860165598">j</text><text x="0.44139205655265257" y="8.770315854032512e-2">k</text><text x="0.5056421507403164" y="4.937135847899421e-2">l</text><text x="0.5583891034870443" y="1.1039558417663353e-2">m</text><text x="0.5991058846768154" y="-2.7292241643667503e-2">n</text><text x="0.6273856656911603" y="-6.562404170499836e-2">o</text><text x="0.6429458843062359" y="-0.10395584176632933">p</text><text x="0.6456310679611652" y="-0.14228764182766018">q</text><text x="0.6354143871884719" y="-0.18061944188899104">r</text><text x="0.6123979236852508" y="-0.2189512419503219">s</text><text x="0.5768116503465948" y="-0.25728304201165275">t</text><text x="0.5290111334524461" y="-0.2956148420729836">u</text><text x="0.4694739799668606" y="-0.3339466421343146">v</text><text x="0.39879506544709953" y="-0.37227844219564543">w</text><text x="0.3176805902437022" y="-0.4106102422569763">x</text><text x="0.22694102338001976" y="-0.44894204231830714">y</text></g></svg>