<svg viewBox="-0.7074193548387098 -0.5615930232558138 1.4148387096774198 1.0864976744186046" xmlns="http://www.w3.org/2000/svg" xmlns:xlink="http://www.w3.org/1999/xlink" version="1.1" width="800.0" height="600.0"><g stroke-width="5.0e-3" stroke="#666666" fill="#FF0000" fill-opacity="0.5" stroke-opacity="0.5"><rect width="4.290322580645167e-2" height="0.22480620155038755" x="-0.665" y="0.27519379844961245" /><rect width="4.290322580645167e-2" height="0.2248062015503876" x="-0.5364499181132162" y="0.24289405684754523" /><rect width="4.290322580645162e-2" height="0.22480620155038755" x="-0.40918426615163767" y="0.21059431524547811" /><rect width="4.290322580645167e-2" height="0.2248062015503875" x="-0.284474640441233" y="0.17829457364341095" /><rect width="4.290322580645167e-2" height="0.22480620155038755" x="-0.1635670983385793" y="0.14599483204134378" /><rect width="4.290322580645156e-2" height="0.2248062015503876" x="-4.766970803764614e-2" y="0.11369509043927656" /><rect width="4.2903225806451784e-2" height="0.2248062015503875" x="6.2059522048262816e-2" y="8.139534883720939e-2" /><rect width="4.290322580645156e-2" height="0.22480620155038755" x="0.16452421372379022" y="4.9095607235142225e-2" /><rect width="4.2903225806451784e-2" height="0.2248062015503876" x="0.2587005736600383" y="1.6795865633075002e-2" /><rect width="4.290322580645145e-2" height="0.22480620155038755" x="0.3436476227990899" y="-1.5503875968992165e-2" /><rect width="4.290322580645145e-2" height="0.22480620155038755" x="0.4185165983057084" y="-4.780361757105933e-2" /><rect width="4.290322580645167e-2" height="0.22480620155038755" x="0.4825594341250248" y="-8.01033591731265e-2" /><rect width="4.290322580645167e-2" height="0.2248062015503875" x="0.5351362354112794" y="-0.11240310077519367" /><rect width="4.290322580645167e-2" height="0.2248062015503875" x="0.5757216721455998" y="-0.14470284237726083" /><rect width="4.290322580645167e-2" height="0.22480620155038755" x="0.6039102280598985" y="-0.177002583979328" /><rect width="4.290322580645167e-2" height="0.22480620155038755" x="0.6194202524213772" y="-0.20930232558139528" /><rect width="4.290322580645167e-2" height="0.22480620155038744" x="0.6220967741935484" y="-0.24160206718346233" /><rect width="4.290322580645167e-2" height="0.22480620155038744" x="0.6119130504556056" y="-0.2739018087855295" /><rect width="4.290322580645167e-2" height="0.22480620155038766" x="0.5889708336088466" y="-0.3062015503875969" /><rect width="4.290322580645167e-2" height="0.22480620155038755" x="0.5534993547003153" y="-0.33850129198966394" /><rect width="4.290322580645145e-2" height="0.22480620155038744" x="0.5058530330219544" y="-0.370801033591731" /><rect width="4.2903225806451895e-2" height="0.22480620155038755" x="0.446507934870193" y="-0.4031007751937984" /><rect width="4.2903225806451895e-2" height="0.22480620155038755" x="0.37605701684888304" y="-0.43540051679586544" /><rect width="4.290322580645156e-2" height="0.22480620155038744" x="0.295204201242916" y="-0.4677002583979325" /><rect width="4.290322580645167e-2" height="0.22480620155038755" x="0.204757342659439" y="-0.4999999999999999" /></g><g stroke-width="0.0" stroke="none" fill="#666666" fill-opacity="1.0" font-size="0.2" text-anchor="middle"><text x="-0.6435483870967742" y="0.4496124031007752">a</text><text x="-0.5149983052099903" y="0.41731266149870805">b</text><text x="-0.38773265324841183" y="0.3850129198966409">c</text><text x="-0.26302302753800716" y="0.3527131782945737">d</text><text x="-0.14211548543535335" y="0.32041343669250655">e</text><text x="-2.6218095134420416e-2" y="0.2881136950904394">f</text><text x="8.351113495148865e-2" y="0.25581395348837216">g</text><text x="0.18597582662701617" y="0.223514211886305">h</text><text x="0.2801521865632641" y="0.19121447028423783">i</text><text x="0.3650992357023155" y="0.1589147286821706">j</text><text x="0.43996821120893403" y="0.12661498708010344">k</text><text x="0.5040110470282506" y="9.431524547803632e-2">l</text><text x="0.5565878483145053" y="6.201550387596905e-2">m</text><text x="0.5971732850488256" y="2.9715762273901936e-2">n</text><text x="0.6253618409631243" y="-2.5839793281652312e-3">o</text><text x="0.640871865324603" y="-3.488372093023251e-2">p</text><text x="0.6435483870967744" y="-6.718346253229968e-2">q</text><text x="0.6333646633588317" y="-9.948320413436673e-2">r</text><text x="0.6104224465120724" y="-0.131782945736434">s</text><text x="0.5749509676035411" y="-0.16408268733850118">t</text><text x="0.52730464592518" y="-0.19638242894056834">u</text><text x="0.46795954777341886" y="-0.2286821705426355">v</text><text x="0.3975086297521091" y="-0.2609819121447027">w</text><text x="0.31665581414614197" y="-0.29328165374676984">x</text><text x="0.22620895556266474" y="-0.3255813953488371">y</text></g></svg>