<?xml version='1.0' ?>
<svg viewBox="-0.9728400000000001 -0.7243825000000003 1.9456800000000003 1.3872650000000004" xmlns="http://www.w3.org/2000/svg" xmlns:xlink="http://www.w3.org/1999/xlink" version="1.1" width="300.0" height="200.0">
  <g stroke-width="1.0e-2" stroke="#5DA5DA" fill="#000000" fill-opacity="0.0" stroke-opacity="1.0">
    <rect width="1.7688000000000001" height="1.2611500000000002" x="-0.8844000000000001" y="-0.6613250000000002" />
  </g>
  <g stroke-width="0.0" stroke="#666666" fill="#FF0000" fill-opacity="0.3" stroke-opacity="0.3">
    <circle cx="-0.75" cy="0.5" r="2.0e-2" />
  </g>
  <g stroke-width="0.0" stroke="none" fill="#666666" transform="translate(0.0, -4.0e-2)" fill-opacity="0.2" font-size="8.0e-2" text-anchor="middle">
    <text x="-0.75" y="0.5">0,0</text>
  </g>
  <g stroke-width="0.0" stroke="none" fill="#666666" transform="translate(0.0, -4.0e-2)" fill-opacity="0.2" font-size="8.0e-2" text-anchor="middle">
    <text x="-0.75" y="0.3">0,1</text>
  </g>
  <g stroke-width="0.0" stroke="none" fill="#666666" transform="translate(0.0, -4.0e-2)" fill-opacity="0.2" font-size="8.0e-2" text-anchor="middle">
    <text x="-0.75" y="9.999999999999998e-2">0,2</text>
  </g>
  <g stroke-width="0.0" stroke="none" fill="#666666" transform="translate(0.0, -4.0e-2)" fill-opacity="0.2" font-size="8.0e-2" text-anchor="middle">
    <text x="-0.75" y="-0.10000000000000009">0,3</text>
  </g>
  <g stroke-width="0.0" stroke="none" fill="#666666" transform="translate(0.0, -4.0e-2)" fill-opacity="0.2" font-size="8.0e-2" text-anchor="middle">
    <text x="-0.75" y="-0.30000000000000004">0,4</text>
  </g>
  <g stroke-width="0.0" stroke="none" fill="#666666" transform="translate(0.0, -4.0e-2)" fill-opacity="0.2" font-size="8.0e-2" text-anchor="middle">
    <text x="-0.75" y="-0.5">0,5</text>
  </g>
  <g stroke-width="0.0" stroke="none" fill="#666666" transform="translate(0.0, -4.0e-2)" fill-opacity="0.2" font-size="8.0e-2" text-anchor="middle">
    <text x="-0.44999999999999996" y="0.5">1,0</text>
  </g>
  <g stroke-width="0.0" stroke="none" fill="#666666" transform="translate(0.0, -4.0e-2)" fill-opacity="0.2" font-size="8.0e-2" text-anchor="middle">
    <text x="-0.44999999999999996" y="0.3">1,1</text>
  </g>
  <g stroke-width="0.0" stroke="none" fill="#666666" transform="translate(0.0, -4.0e-2)" fill-opacity="0.2" font-size="8.0e-2" text-anchor="middle">
    <text x="-0.44999999999999996" y="9.999999999999998e-2">1,2</text>
  </g>
  <g stroke-width="0.0" stroke="none" fill="#666666" transform="translate(0.0, -4.0e-2)" fill-opacity="0.2" font-size="8.0e-2" text-anchor="middle">
    <text x="-0.44999999999999996" y="-0.10000000000000009">1,3</text>
  </g>
  <g stroke-width="0.0" stroke="none" fill="#666666" transform="translate(0.0, -4.0e-2)" fill-opacity="0.2" font-size="8.0e-2" text-anchor="middle">
    <text x="-0.44999999999999996" y="-0.30000000000000004">1,4</text>
  </g>
  <g stroke-width="0.0" stroke="none" fill="#666666" transform="translate(0.0, -4.0e-2)" fill-opacity="0.2" font-size="8.0e-2" text-anchor="middle">
    <text x="-0.44999999999999996" y="-0.5">1,5</text>
  </g>
  <g stroke-width="0.0" stroke="none" fill="#666666" transform="translate(0.0, -4.0e-2)" fill-opacity="0.2" font-size="8.0e-2" text-anchor="middle">
    <text x="-0.1499999999999999" y="0.5">2,0</text>
  </g>
  <g stroke-width="0.0" stroke="none" fill="#666666" transform="translate(0.0, -4.0e-2)" fill-opacity="0.2" font-size="8.0e-2" text-anchor="middle">
    <text x="-0.1499999999999999" y="0.3">2,1</text>
  </g>
  <g stroke-width="0.0" stroke="none" fill="#666666" transform="translate(0.0, -4.0e-2)" fill-opacity="0.2" font-size="8.0e-2" text-anchor="middle">
    <text x="-0.1499999999999999" y="9.999999999999998e-2">2,2</text>
  </g>
  <g stroke-width="0.0" stroke="none" fill="#666666" transform="translate(0.0, -4.0e-2)" fill-opacity="0.2" font-size="8.0e-2" text-anchor="middle">
    <text x="-0.1499999999999999" y="-0.10000000000000009">2,3</text>
  </g>
  <g stroke-width="0.0" stroke="none" fill="#666666" transform="translate(0.0, -4.0e-2)" fill-opacity="0.2" font-size="8.0e-2" text-anchor="middle">
    <text x="-0.1499999999999999" y="-0.30000000000000004">2,4</text>
  </g>
  <g stroke-width="0.0" stroke="none" fill="#666666" transform="translate(0.0, -4.0e-2)" fill-opacity="0.2" font-size="8.0e-2" text-anchor="middle">
    <text x="-0.1499999999999999" y="-0.5">2,5</text>
  </g>
  <g stroke-width="0.0" stroke="none" fill="#666666" transform="translate(0.0, -4.0e-2)" fill-opacity="0.2" font-size="8.0e-2" text-anchor="middle">
    <text x="0.15000000000000013" y="0.5">3,0</text>
  </g>
  <g stroke-width="0.0" stroke="none" fill="#666666" transform="translate(0.0, -4.0e-2)" fill-opacity="0.2" font-size="8.0e-2" text-anchor="middle">
    <text x="0.15000000000000013" y="0.3">3,1</text>
  </g>
  <g stroke-width="0.0" stroke="none" fill="#666666" transform="translate(0.0, -4.0e-2)" fill-opacity="0.2" font-size="8.0e-2" text-anchor="middle">
    <text x="0.15000000000000013" y="9.999999999999998e-2">3,2</text>
  </g>
  <g stroke-width="0.0" stroke="none" fill="#666666" transform="translate(0.0, -4.0e-2)" fill-opacity="0.2" font-size="8.0e-2" text-anchor="middle">
    <text x="0.15000000000000013" y="-0.10000000000000009">3,3</text>
  </g>
  <g stroke-width="0.0" stroke="none" fill="#666666" transform="translate(0.0, -4.0e-2)" fill-opacity="0.2" font-size="8.0e-2" text-anchor="middle">
    <text x="0.15000000000000013" y="-0.30000000000000004">3,4</text>
  </g>
  <g stroke-width="0.0" stroke="none" fill="#666666" transform="translate(0.0, -4.0e-2)" fill-opacity="0.2" font-size="8.0e-2" text-anchor="middle">
    <text x="0.15000000000000013" y="-0.5">3,5</text>
  </g>
  <g stroke-width="0.0" stroke="none" fill="#666666" transform="translate(0.0, -4.0e-2)" fill-opacity="0.2" font-size="8.0e-2" text-anchor="middle">
    <text x="0.4500000000000002" y="0.5">4,0</text>
  </g>
  <g stroke-width="0.0" stroke="none" fill="#666666" transform="translate(0.0, -4.0e-2)" fill-opacity="0.2" font-size="8.0e-2" text-anchor="middle">
    <text x="0.4500000000000002" y="0.3">4,1</text>
  </g>
  <g stroke-width="0.0" stroke="none" fill="#666666" transform="translate(0.0, -4.0e-2)" fill-opacity="0.2" font-size="8.0e-2" text-anchor="middle">
    <text x="0.4500000000000002" y="9.999999999999998e-2">4,2</text>
  </g>
  <g stroke-width="0.0" stroke="none" fill="#666666" transform="translate(0.0, -4.0e-2)" fill-opacity="0.2" font-size="8.0e-2" text-anchor="middle">
    <text x="0.4500000000000002" y="-0.10000000000000009">4,3</text>
  </g>
  <g stroke-width="0.0" stroke="none" fill="#666666" transform="translate(0.0, -4.0e-2)" fill-opacity="0.2" font-size="8.0e-2" text-anchor="middle">
    <text x="0.4500000000000002" y="-0.30000000000000004">4,4</text>
  </g>
  <g stroke-width="0.0" stroke="none" fill="#666666" transform="translate(0.0, -4.0e-2)" fill-opacity="0.2" font-size="8.0e-2" text-anchor="middle">
    <text x="0.4500000000000002" y="-0.5">4,5</text>
  </g>
  <g stroke-width="0.0" stroke="none" fill="#666666" transform="translate(0.0, -4.0e-2)" fill-opacity="0.2" font-size="8.0e-2" text-anchor="middle">
    <text x="0.75" y="0.5">5,0</text>
  </g>
  <g stroke-width="0.0" stroke="none" fill="#666666" transform="translate(0.0, -4.0e-2)" fill-opacity="0.2" font-size="8.0e-2" text-anchor="middle">
    <text x="0.75" y="0.3">5,1</text>
  </g>
  <g stroke-width="0.0" stroke="none" fill="#666666" transform="translate(0.0, -4.0e-2)" fill-opacity="0.2" font-size="8.0e-2" text-anchor="middle">
    <text x="0.75" y="9.999999999999998e-2">5,2</text>
  </g>
  <g stroke-width="0.0" stroke="none" fill="#666666" transform="translate(0.0, -4.0e-2)" fill-opacity="0.2" font-size="8.0e-2" text-anchor="middle">
    <text x="0.75" y="-0.10000000000000009">5,3</text>
  </g>
  <g stroke-width="0.0" stroke="none" fill="#666666" transform="translate(0.0, -4.0e-2)" fill-opacity="0.2" font-size="8.0e-2" text-anchor="middle">
    <text x="0.75" y="-0.30000000000000004">5,4</text>
  </g>
  <g stroke-width="0.0" stroke="none" fill="#666666" transform="translate(0.0, -4.0e-2)" fill-opacity="0.2" font-size="8.0e-2" text-anchor="middle">
    <text x="0.75" y="-0.5">5,5</text>
  </g>
  <g stroke-width="0.0" stroke="#666666" fill="#000000" fill-opacity="0.3" stroke-opacity="0.3">
    <circle cx="-0.75" cy="0.5" r="5.0e-3" />
  </g>
  <g stroke-width="0.0" stroke="#666666" fill="#000000" fill-opacity="0.3" stroke-opacity="0.3">
    <circle cx="-0.75" cy="0.3" r="5.0e-3" />
  </g>
  <g stroke-width="0.0" stroke="#666666" fill="#000000" fill-opacity="0.3" stroke-opacity="0.3">
    <circle cx="-0.75" cy="9.999999999999998e-2" r="5.0e-3" />
  </g>
  <g stroke-width="0.0" stroke="#666666" fill="#000000" fill-opacity="0.3" stroke-opacity="0.3">
    <circle cx="-0.75" cy="-0.10000000000000009" r="5.0e-3" />
  </g>
  <g stroke-width="0.0" stroke="#666666" fill="#000000" fill-opacity="0.3" stroke-opacity="0.3">
    <circle cx="-0.75" cy="-0.30000000000000004" r="5.0e-3" />
  </g>
  <g stroke-width="0.0" stroke="#666666" fill="#000000" fill-opacity="0.3" stroke-opacity="0.3">
    <circle cx="-0.75" cy="-0.5" r="5.0e-3" />
  </g>
  <g stroke-width="0.0" stroke="#666666" fill="#000000" fill-opacity="0.3" stroke-opacity="0.3">
    <circle cx="-0.44999999999999996" cy="0.5" r="5.0e-3" />
  </g>
  <g stroke-width="0.0" stroke="#666666" fill="#000000" fill-opacity="0.3" stroke-opacity="0.3">
    <circle cx="-0.44999999999999996" cy="0.3" r="5.0e-3" />
  </g>
  <g stroke-width="0.0" stroke="#666666" fill="#000000" fill-opacity="0.3" stroke-opacity="0.3">
    <circle cx="-0.44999999999999996" cy="9.999999999999998e-2" r="5.0e-3" />
  </g>
  <g stroke-width="0.0" stroke="#666666" fill="#000000" fill-opacity="0.3" stroke-opacity="0.3">
    <circle cx="-0.44999999999999996" cy="-0.10000000000000009" r="5.0e-3" />
  </g>
  <g stroke-width="0.0" stroke="#666666" fill="#000000" fill-opacity="0.3" stroke-opacity="0.3">
    <circle cx="-0.44999999999999996" cy="-0.30000000000000004" r="5.0e-3" />
  </g>
  <g stroke-width="0.0" stroke="#666666" fill="#000000" fill-opacity="0.3" stroke-opacity="0.3">
    <circle cx="-0.44999999999999996" cy="-0.5" r="5.0e-3" />
  </g>
  <g stroke-width="0.0" stroke="#666666" fill="#000000" fill-opacity="0.3" stroke-opacity="0.3">
    <circle cx="-0.1499999999999999" cy="0.5" r="5.0e-3" />
  </g>
  <g stroke-width="0.0" stroke="#666666" fill="#000000" fill-opacity="0.3" stroke-opacity="0.3">
    <circle cx="-0.1499999999999999" cy="0.3" r="5.0e-3" />
  </g>
  <g stroke-width="0.0" stroke="#666666" fill="#000000" fill-opacity="0.3" stroke-opacity="0.3">
    <circle cx="-0.1499999999999999" cy="9.999999999999998e-2" r="5.0e-3" />
  </g>
  <g stroke-width="0.0" stroke="#666666" fill="#000000" fill-opacity="0.3" stroke-opacity="0.3">
    <circle cx="-0.1499999999999999" cy="-0.10000000000000009" r="5.0e-3" />
  </g>
  <g stroke-width="0.0" stroke="#666666" fill="#000000" fill-opacity="0.3" stroke-opacity="0.3">
    <circle cx="-0.1499999999999999" cy="-0.30000000000000004" r="5.0e-3" />
  </g>
  <g stroke-width="0.0" stroke="#666666" fill="#000000" fill-opacity="0.3" stroke-opacity="0.3">
    <circle cx="-0.1499999999999999" cy="-0.5" r="5.0e-3" />
  </g>
  <g stroke-width="0.0" stroke="#666666" fill="#000000" fill-opacity="0.3" stroke-opacity="0.3">
    <circle cx="0.15000000000000013" cy="0.5" r="5.0e-3" />
  </g>
  <g stroke-width="0.0" stroke="#666666" fill="#000000" fill-opacity="0.3" stroke-opacity="0.3">
    <circle cx="0.15000000000000013" cy="0.3" r="5.0e-3" />
  </g>
  <g stroke-width="0.0" stroke="#666666" fill="#000000" fill-opacity="0.3" stroke-opacity="0.3">
    <circle cx="0.15000000000000013" cy="9.999999999999998e-2" r="5.0e-3" />
  </g>
  <g stroke-width="0.0" stroke="#666666" fill="#000000" fill-opacity="0.3" stroke-opacity="0.3">
    <circle cx="0.15000000000000013" cy="-0.10000000000000009" r="5.0e-3" />
  </g>
  <g stroke-width="0.0" stroke="#666666" fill="#000000" fill-opacity="0.3" stroke-opacity="0.3">
    <circle cx="0.15000000000000013" cy="-0.30000000000000004" r="5.0e-3" />
  </g>
  <g stroke-width="0.0" stroke="#666666" fill="#000000" fill-opacity="0.3" stroke-opacity="0.3">
    <circle cx="0.15000000000000013" cy="-0.5" r="5.0e-3" />
  </g>
  <g stroke-width="0.0" stroke="#666666" fill="#000000" fill-opacity="0.3" stroke-opacity="0.3">
    <circle cx="0.4500000000000002" cy="0.5" r="5.0e-3" />
  </g>
  <g stroke-width="0.0" stroke="#666666" fill="#000000" fill-opacity="0.3" stroke-opacity="0.3">
    <circle cx="0.4500000000000002" cy="0.3" r="5.0e-3" />
  </g>
  <g stroke-width="0.0" stroke="#666666" fill="#000000" fill-opacity="0.3" stroke-opacity="0.3">
    <circle cx="0.4500000000000002" cy="9.999999999999998e-2" r="5.0e-3" />
  </g>
  <g stroke-width="0.0" stroke="#666666" fill="#000000" fill-opacity="0.3" stroke-opacity="0.3">
    <circle cx="0.4500000000000002" cy="-0.10000000000000009" r="5.0e-3" />
  </g>
  <g stroke-width="0.0" stroke="#666666" fill="#000000" fill-opacity="0.3" stroke-opacity="0.3">
    <circle cx="0.4500000000000002" cy="-0.30000000000000004" r="5.0e-3" />
  </g>
  <g stroke-width="0.0" stroke="#666666" fill="#000000" fill-opacity="0.3" stroke-opacity="0.3">
    <circle cx="0.4500000000000002" cy="-0.5" r="5.0e-3" />
  </g>
  <g stroke-width="0.0" stroke="#666666" fill="#000000" fill-opacity="0.3" stroke-opacity="0.3">
    <circle cx="0.75" cy="0.5" r="5.0e-3" />
  </g>
  <g stroke-width="0.0" stroke="#666666" fill="#000000" fill-opacity="0.3" stroke-opacity="0.3">
    <circle cx="0.75" cy="0.3" r="5.0e-3" />
  </g>
  <g stroke-width="0.0" stroke="#666666" fill="#000000" fill-opacity="0.3" stroke-opacity="0.3">
    <circle cx="0.75" cy="9.999999999999998e-2" r="5.0e-3" />
  </g>
  <g stroke-width="0.0" stroke="#666666" fill="#000000" fill-opacity="0.3" stroke-opacity="0.3">
    <circle cx="0.75" cy="-0.10000000000000009" r="5.0e-3" />
  </g>
  <g stroke-width="0.0" stroke="#666666" fill="#000000" fill-opacity="0.3" stroke-opacity="0.3">
    <circle cx="0.75" cy="-0.30000000000000004" r="5.0e-3" />
  </g>
  <g stroke-width="0.0" stroke="#666666" fill="#000000" fill-opacity="0.3" stroke-opacity="0.3">
    <circle cx="0.75" cy="-0.5" r="5.0e-3" />
  </g>
  <g stroke-width="1.5e-2" stroke="#C58C4B" fill="none" stroke-opacity="0.5">
    <polyline points="-0.75,0.3 -0.44999999999999996,0.3 -0.1499999999999999,-0.5" />
  </g>
  <g stroke-width="3.0e-2" stroke="#3C7F2B" fill="none" stroke-opacity="0.5">
    <polyline points="-0.75,0.5 0.15000000000000013,-0.10000000000000009" />
  </g>
  <g stroke-width="1.0e-2" stroke="#382A8C" fill="none" stroke-opacity="0.5">
    <polyline points="-0.6,-0.30000000000000004 -0.6,0.5" />
  </g>
  <g stroke-width="5.0e-3" stroke="#78431E" fill="#78431E" fill-opacity="0.3" stroke-opacity="0.3">
    <ellipse cx="-0.75" cy="0.3" rx="4.0e-2" ry="6.0e-2" />
    <ellipse cx="-0.44999999999999996" cy="0.3" rx="4.0e-2" ry="6.0e-2" />
    <ellipse cx="-0.1499999999999999" cy="-0.5" rx="4.0e-2" ry="6.0e-2" />
  </g>
  <g stroke-width="5.0e-3" stroke="#1E3082" fill="#1E3082" fill-opacity="0.3" stroke-opacity="0.3">
    <rect width="8.000000000000007e-2" height="8.000000000000002e-2" x="-0.79" y="0.46" />
    <rect width="8.000000000000002e-2" height="8.000000000000002e-2" x="0.11000000000000013" y="-0.1400000000000001" />
  </g>
  <g stroke-width="5.0e-3" stroke="#3C3C3C" fill="#3C3C3C" fill-opacity="0.3" stroke-opacity="0.3">
    <circle cx="-0.6" cy="-0.30000000000000004" r="4.0e-2" />
    <circle cx="-0.6" cy="0.5" r="4.0e-2" />
  </g>
</svg>
