<svg viewBox="-0.7395000000000002 -0.6426000000000001 1.4790000000000003 1.19595" xmlns="http://www.w3.org/2000/svg" xmlns:xlink="http://www.w3.org/1999/xlink" version="1.1" width="800.0" height="600.0"><g stroke-width="0.0" stroke="none" fill="#666666" transform="translate(0.0, -4.0e-2)" fill-opacity="0.2" font-size="8.0e-2" text-anchor="middle"><text x="-0.665" y="0.5">0,0</text></g><g stroke-width="0.0" stroke="none" fill="#666666" transform="translate(0.0, -4.0e-2)" fill-opacity="0.2" font-size="8.0e-2" text-anchor="middle"><text x="-0.665" y="0.3">0,1</text></g><g stroke-width="0.0" stroke="none" fill="#666666" transform="translate(0.0, -4.0e-2)" fill-opacity="0.2" font-size="8.0e-2" text-anchor="middle"><text x="-0.665" y="9.999999999999998e-2">0,2</text></g><g stroke-width="0.0" stroke="none" fill="#666666" transform="translate(0.0, -4.0e-2)" fill-opacity="0.2" font-size="8.0e-2" text-anchor="middle"><text x="-0.665" y="-0.10000000000000009">0,3</text></g><g stroke-width="0.0" stroke="none" fill="#666666" transform="translate(0.0, -4.0e-2)" fill-opacity="0.2" font-size="8.0e-2" text-anchor="middle"><text x="-0.665" y="-0.30000000000000004">0,4</text></g><g stroke-width="0.0" stroke="none" fill="#666666" transform="translate(0.0, -4.0e-2)" fill-opacity="0.2" font-size="8.0e-2" text-anchor="middle"><text x="-0.665" y="-0.5">0,5</text></g><g stroke-width="0.0" stroke="none" fill="#666666" transform="translate(0.0, -4.0e-2)" fill-opacity="0.2" font-size="8.0e-2" text-anchor="middle"><text x="-0.399" y="0.5">1,0</text></g><g stroke-width="0.0" stroke="none" fill="#666666" transform="translate(0.0, -4.0e-2)" fill-opacity="0.2" font-size="8.0e-2" text-anchor="middle"><text x="-0.399" y="0.3">1,1</text></g><g stroke-width="0.0" stroke="none" fill="#666666" transform="translate(0.0, -4.0e-2)" fill-opacity="0.2" font-size="8.0e-2" text-anchor="middle"><text x="-0.399" y="9.999999999999998e-2">1,2</text></g><g stroke-width="0.0" stroke="none" fill="#666666" transform="translate(0.0, -4.0e-2)" fill-opacity="0.2" font-size="8.0e-2" text-anchor="middle"><text x="-0.399" y="-0.10000000000000009">1,3</text></g><g stroke-width="0.0" stroke="none" fill="#666666" transform="translate(0.0, -4.0e-2)" fill-opacity="0.2" font-size="8.0e-2" text-anchor="middle"><text x="-0.399" y="-0.30000000000000004">1,4</text></g><g stroke-width="0.0" stroke="none" fill="#666666" transform="translate(0.0, -4.0e-2)" fill-opacity="0.2" font-size="8.0e-2" text-anchor="middle"><text x="-0.399" y="-0.5">1,5</text></g><g stroke-width="0.0" stroke="none" fill="#666666" transform="translate(0.0, -4.0e-2)" fill-opacity="0.2" font-size="8.0e-2" text-anchor="middle"><text x="-0.133" y="0.5">2,0</text></g><g stroke-width="0.0" stroke="none" fill="#666666" transform="translate(0.0, -4.0e-2)" fill-opacity="0.2" font-size="8.0e-2" text-anchor="middle"><text x="-0.133" y="0.3">2,1</text></g><g stroke-width="0.0" stroke="none" fill="#666666" transform="translate(0.0, -4.0e-2)" fill-opacity="0.2" font-size="8.0e-2" text-anchor="middle"><text x="-0.133" y="9.999999999999998e-2">2,2</text></g><g stroke-width="0.0" stroke="none" fill="#666666" transform="translate(0.0, -4.0e-2)" fill-opacity="0.2" font-size="8.0e-2" text-anchor="middle"><text x="-0.133" y="-0.10000000000000009">2,3</text></g><g stroke-width="0.0" stroke="none" fill="#666666" transform="translate(0.0, -4.0e-2)" fill-opacity="0.2" font-size="8.0e-2" text-anchor="middle"><text x="-0.133" y="-0.30000000000000004">2,4</text></g><g stroke-width="0.0" stroke="none" fill="#666666" transform="translate(0.0, -4.0e-2)" fill-opacity="0.2" font-size="8.0e-2" text-anchor="middle"><text x="-0.133" y="-0.5">2,5</text></g><g stroke-width="0.0" stroke="none" fill="#666666" transform="translate(0.0, -4.0e-2)" fill-opacity="0.2" font-size="8.0e-2" text-anchor="middle"><text x="0.13300000000000012" y="0.5">3,0</text></g><g stroke-width="0.0" stroke="none" fill="#666666" transform="translate(0.0, -4.0e-2)" fill-opacity="0.2" font-size="8.0e-2" text-anchor="middle"><text x="0.13300000000000012" y="0.3">3,1</text></g><g stroke-width="0.0" stroke="none" fill="#666666" transform="translate(0.0, -4.0e-2)" fill-opacity="0.2" font-size="8.0e-2" text-anchor="middle"><text x="0.13300000000000012" y="9.999999999999998e-2">3,2</text></g><g stroke-width="0.0" stroke="none" fill="#666666" transform="translate(0.0, -4.0e-2)" fill-opacity="0.2" font-size="8.0e-2" text-anchor="middle"><text x="0.13300000000000012" y="-0.10000000000000009">3,3</text></g><g stroke-width="0.0" stroke="none" fill="#666666" transform="translate(0.0, -4.0e-2)" fill-opacity="0.2" font-size="8.0e-2" text-anchor="middle"><text x="0.13300000000000012" y="-0.30000000000000004">3,4</text></g><g stroke-width="0.0" stroke="none" fill="#666666" transform="translate(0.0, -4.0e-2)" fill-opacity="0.2" font-size="8.0e-2" text-anchor="middle"><text x="0.13300000000000012" y="-0.5">3,5</text></g><g stroke-width="0.0" stroke="none" fill="#666666" transform="translate(0.0, -4.0e-2)" fill-opacity="0.2" font-size="8.0e-2" text-anchor="middle"><text x="0.399" y="0.5">4,0</text></g><g stroke-width="0.0" stroke="none" fill="#666666" transform="translate(0.0, -4.0e-2)" fill-opacity="0.2" font-size="8.0e-2" text-anchor="middle"><text x="0.399" y="0.3">4,1</text></g><g stroke-width="0.0" stroke="none" fill="#666666" transform="translate(0.0, -4.0e-2)" fill-opacity="0.2" font-size="8.0e-2" text-anchor="middle"><text x="0.399" y="9.999999999999998e-2">4,2</text></g><g stroke-width="0.0" stroke="none" fill="#666666" transform="translate(0.0, -4.0e-2)" fill-opacity="0.2" font-size="8.0e-2" text-anchor="middle"><text x="0.399" y="-0.10000000000000009">4,3</text></g><g stroke-width="0.0" stroke="none" fill="#666666" transform="translate(0.0, -4.0e-2)" fill-opacity="0.2" font-size="8.0e-2" text-anchor="middle"><text x="0.399" y="-0.30000000000000004">4,4</text></g><g stroke-width="0.0" stroke="none" fill="#666666" transform="translate(0.0, -4.0e-2)" fill-opacity="0.2" font-size="8.0e-2" text-anchor="middle"><text x="0.399" y="-0.5">4,5</text></g><g stroke-width="0.0" stroke="none" fill="#666666" transform="translate(0.0, -4.0e-2)" fill-opacity="0.2" font-size="8.0e-2" text-anchor="middle"><text x="0.665" y="0.5">5,0</text></g><g stroke-width="0.0" stroke="none" fill="#666666" transform="translate(0.0, -4.0e-2)" fill-opacity="0.2" font-size="8.0e-2" text-anchor="middle"><text x="0.665" y="0.3">5,1</text></g><g stroke-width="0.0" stroke="none" fill="#666666" transform="translate(0.0, -4.0e-2)" fill-opacity="0.2" font-size="8.0e-2" text-anchor="middle"><text x="0.665" y="9.999999999999998e-2">5,2</text></g><g stroke-width="0.0" stroke="none" fill="#666666" transform="translate(0.0, -4.0e-2)" fill-opacity="0.2" font-size="8.0e-2" text-anchor="middle"><text x="0.665" y="-0.10000000000000009">5,3</text></g><g stroke-width="0.0" stroke="none" fill="#666666" transform="translate(0.0, -4.0e-2)" fill-opacity="0.2" font-size="8.0e-2" text-anchor="middle"><text x="0.665" y="-0.30000000000000004">5,4</text></g><g stroke-width="0.0" stroke="none" fill="#666666" transform="translate(0.0, -4.0e-2)" fill-opacity="0.2" font-size="8.0e-2" text-anchor="middle"><text x="0.665" y="-0.5">5,5</text></g><g stroke-width="0.0" stroke="#2C429D" fill="#000000" fill-opacity="0.8" stroke-opacity="0.4"><rect width="1.0000000000000009e-2" height="1.0000000000000009e-2" x="-0.67" y="0.495" /></g><g stroke-width="0.0" stroke="#2C429D" fill="#000000" fill-opacity="0.8" stroke-opacity="0.4"><rect width="1.0000000000000009e-2" height="1.0000000000000009e-2" x="-0.67" y="0.295" /></g><g stroke-width="0.0" stroke="#2C429D" fill="#000000" fill-opacity="0.8" stroke-opacity="0.4"><rect width="1.0000000000000009e-2" height="1.0000000000000009e-2" x="-0.67" y="9.499999999999997e-2" /></g><g stroke-width="0.0" stroke="#2C429D" fill="#000000" fill-opacity="0.8" stroke-opacity="0.4"><rect width="1.0000000000000009e-2" height="1.0000000000000009e-2" x="-0.67" y="-0.1050000000000001" /></g><g stroke-width="0.0" stroke="#2C429D" fill="#000000" fill-opacity="0.8" stroke-opacity="0.4"><rect width="1.0000000000000009e-2" height="1.0000000000000009e-2" x="-0.67" y="-0.30500000000000005" /></g><g stroke-width="0.0" stroke="#2C429D" fill="#000000" fill-opacity="0.8" stroke-opacity="0.4"><rect width="1.0000000000000009e-2" height="1.0000000000000009e-2" x="-0.67" y="-0.505" /></g><g stroke-width="0.0" stroke="#2C429D" fill="#000000" fill-opacity="0.8" stroke-opacity="0.4"><rect width="1.0000000000000009e-2" height="1.0000000000000009e-2" x="-0.404" y="0.495" /></g><g stroke-width="0.0" stroke="#2C429D" fill="#000000" fill-opacity="0.8" stroke-opacity="0.4"><rect width="1.0000000000000009e-2" height="1.0000000000000009e-2" x="-0.404" y="0.295" /></g><g stroke-width="0.0" stroke="#2C429D" fill="#000000" fill-opacity="0.8" stroke-opacity="0.4"><rect width="1.0000000000000009e-2" height="1.0000000000000009e-2" x="-0.404" y="9.499999999999997e-2" /></g><g stroke-width="0.0" stroke="#2C429D" fill="#000000" fill-opacity="0.8" stroke-opacity="0.4"><rect width="1.0000000000000009e-2" height="1.0000000000000009e-2" x="-0.404" y="-0.1050000000000001" /></g><g stroke-width="0.0" stroke="#2C429D" fill="#000000" fill-opacity="0.8" stroke-opacity="0.4"><rect width="1.0000000000000009e-2" height="1.0000000000000009e-2" x="-0.404" y="-0.30500000000000005" /></g><g stroke-width="0.0" stroke="#2C429D" fill="#000000" fill-opacity="0.8" stroke-opacity="0.4"><rect width="1.0000000000000009e-2" height="1.0000000000000009e-2" x="-0.404" y="-0.505" /></g><g stroke-width="0.0" stroke="#2C429D" fill="#000000" fill-opacity="0.8" stroke-opacity="0.4"><rect width="1.0000000000000009e-2" height="1.0000000000000009e-2" x="-0.138" y="0.495" /></g><g stroke-width="0.0" stroke="#2C429D" fill="#000000" fill-opacity="0.8" stroke-opacity="0.4"><rect width="1.0000000000000009e-2" height="1.0000000000000009e-2" x="-0.138" y="0.295" /></g><g stroke-width="0.0" stroke="#2C429D" fill="#000000" fill-opacity="0.8" stroke-opacity="0.4"><rect width="1.0000000000000009e-2" height="1.0000000000000009e-2" x="-0.138" y="9.499999999999997e-2" /></g><g stroke-width="0.0" stroke="#2C429D" fill="#000000" fill-opacity="0.8" stroke-opacity="0.4"><rect width="1.0000000000000009e-2" height="1.0000000000000009e-2" x="-0.138" y="-0.1050000000000001" /></g><g stroke-width="0.0" stroke="#2C429D" fill="#000000" fill-opacity="0.8" stroke-opacity="0.4"><rect width="1.0000000000000009e-2" height="1.0000000000000009e-2" x="-0.138" y="-0.30500000000000005" /></g><g stroke-width="0.0" stroke="#2C429D" fill="#000000" fill-opacity="0.8" stroke-opacity="0.4"><rect width="1.0000000000000009e-2" height="1.0000000000000009e-2" x="-0.138" y="-0.505" /></g><g stroke-width="0.0" stroke="#2C429D" fill="#000000" fill-opacity="0.8" stroke-opacity="0.4"><rect width="1.0000000000000009e-2" height="1.0000000000000009e-2" x="0.1280000000000001" y="0.495" /></g><g stroke-width="0.0" stroke="#2C429D" fill="#000000" fill-opacity="0.8" stroke-opacity="0.4"><rect width="1.0000000000000009e-2" height="1.0000000000000009e-2" x="0.1280000000000001" y="0.295" /></g><g stroke-width="0.0" stroke="#2C429D" fill="#000000" fill-opacity="0.8" stroke-opacity="0.4"><rect width="1.0000000000000009e-2" height="1.0000000000000009e-2" x="0.1280000000000001" y="9.499999999999997e-2" /></g><g stroke-width="0.0" stroke="#2C429D" fill="#000000" fill-opacity="0.8" stroke-opacity="0.4"><rect width="1.0000000000000009e-2" height="1.0000000000000009e-2" x="0.1280000000000001" y="-0.1050000000000001" /></g><g stroke-width="0.0" stroke="#2C429D" fill="#000000" fill-opacity="0.8" stroke-opacity="0.4"><rect width="1.0000000000000009e-2" height="1.0000000000000009e-2" x="0.1280000000000001" y="-0.30500000000000005" /></g><g stroke-width="0.0" stroke="#2C429D" fill="#000000" fill-opacity="0.8" stroke-opacity="0.4"><rect width="1.0000000000000009e-2" height="1.0000000000000009e-2" x="0.1280000000000001" y="-0.505" /></g><g stroke-width="0.0" stroke="#2C429D" fill="#000000" fill-opacity="0.8" stroke-opacity="0.4"><rect width="1.0000000000000009e-2" height="1.0000000000000009e-2" x="0.394" y="0.495" /></g><g stroke-width="0.0" stroke="#2C429D" fill="#000000" fill-opacity="0.8" stroke-opacity="0.4"><rect width="1.0000000000000009e-2" height="1.0000000000000009e-2" x="0.394" y="0.295" /></g><g stroke-width="0.0" stroke="#2C429D" fill="#000000" fill-opacity="0.8" stroke-opacity="0.4"><rect width="1.0000000000000009e-2" height="1.0000000000000009e-2" x="0.394" y="9.499999999999997e-2" /></g><g stroke-width="0.0" stroke="#2C429D" fill="#000000" fill-opacity="0.8" stroke-opacity="0.4"><rect width="1.0000000000000009e-2" height="1.0000000000000009e-2" x="0.394" y="-0.1050000000000001" /></g><g stroke-width="0.0" stroke="#2C429D" fill="#000000" fill-opacity="0.8" stroke-opacity="0.4"><rect width="1.0000000000000009e-2" height="1.0000000000000009e-2" x="0.394" y="-0.30500000000000005" /></g><g stroke-width="0.0" stroke="#2C429D" fill="#000000" fill-opacity="0.8" stroke-opacity="0.4"><rect width="1.0000000000000009e-2" height="1.0000000000000009e-2" x="0.394" y="-0.505" /></g><g stroke-width="0.0" stroke="#2C429D" fill="#000000" fill-opacity="0.8" stroke-opacity="0.4"><rect width="1.0000000000000009e-2" height="1.0000000000000009e-2" x="0.66" y="0.495" /></g><g stroke-width="0.0" stroke="#2C429D" fill="#000000" fill-opacity="0.8" stroke-opacity="0.4"><rect width="1.0000000000000009e-2" height="1.0000000000000009e-2" x="0.66" y="0.295" /></g><g stroke-width="0.0" stroke="#2C429D" fill="#000000" fill-opacity="0.8" stroke-opacity="0.4"><rect width="1.0000000000000009e-2" height="1.0000000000000009e-2" x="0.66" y="9.499999999999997e-2" /></g><g stroke-width="0.0" stroke="#2C429D" fill="#000000" fill-opacity="0.8" stroke-opacity="0.4"><rect width="1.0000000000000009e-2" height="1.0000000000000009e-2" x="0.66" y="-0.1050000000000001" /></g><g stroke-width="0.0" stroke="#2C429D" fill="#000000" fill-opacity="0.8" stroke-opacity="0.4"><rect width="1.0000000000000009e-2" height="1.0000000000000009e-2" x="0.66" y="-0.30500000000000005" /></g><g stroke-width="0.0" stroke="#2C429D" fill="#000000" fill-opacity="0.8" stroke-opacity="0.4"><rect width="1.0000000000000009e-2" height="1.0000000000000009e-2" x="0.66" y="-0.505" /></g><g stroke-width="1.5e-2" stroke="#C5824B" fill="none" stroke-opacity="0.6"><polyline points="-0.665,0.3 -0.399,0.3 -0.133,-0.5" /></g><g stroke-width="3.0e-2" stroke="#3C7F2B" fill="none" stroke-opacity="0.6"><polyline points="-0.665,0.5 7.979999999999998e-2,-0.10000000000000009" /></g><g stroke-width="1.0e-2" stroke="#342989" fill="none" stroke-opacity="1.0"><polyline points="-0.532,-0.30000000000000004 -0.532,0.5" /></g><g stroke-width="5.0e-3" stroke="#78431E" fill="#78431E" fill-opacity="0.8" stroke-opacity="0.4"><ellipse cx="-0.665" cy="0.3" rx="4.0e-2" ry="6.0e-2" /><ellipse cx="-0.399" cy="0.3" rx="4.0e-2" ry="6.0e-2" /><ellipse cx="-0.133" cy="-0.5" rx="4.0e-2" ry="6.0e-2" /></g><g stroke-width="5.0e-3" stroke="#1E3082" fill="#1E3082" fill-opacity="0.8" stroke-opacity="0.4"><rect width="8.000000000000007e-2" height="8.000000000000002e-2" x="-0.7050000000000001" y="0.46" /><rect width="8.000000000000002e-2" height="8.000000000000002e-2" x="3.979999999999998e-2" y="-0.1400000000000001" /></g><g stroke-width="5.0e-3" stroke="#3C3C3C" fill="#3C3C3C" fill-opacity="0.8" stroke-opacity="0.4"><circle cx="-0.532" cy="-0.30000000000000004" r="4.0e-2" /><circle cx="-0.532" cy="0.5" r="4.0e-2" /></g></svg>