<svg viewBox="0.0 -408.0 612.0 408.0" xmlns="http://www.w3.org/2000/svg" xmlns:xlink="http://www.w3.org/1999/xlink" version="1.1" width="600.0" height="400.0"><style type="text/css"> {
  shape-rendering: &quot;crispEdges&quot;;
}
</style><g stroke-width="0.0" stroke="none" fill="#666666" transform="translate(0.0, -4.0e-2)" fill-opacity="0.2" font-size="8.0e-2" text-anchor="middle"><text x="0.0" y="-0.0">0,0</text></g><g stroke-width="0.0" stroke="none" fill="#666666" transform="translate(0.0, -4.0e-2)" fill-opacity="0.2" font-size="8.0e-2" text-anchor="middle"><text x="0.0" y="-1.0">0,1</text></g><g stroke-width="0.0" stroke="none" fill="#666666" transform="translate(0.0, -4.0e-2)" fill-opacity="0.2" font-size="8.0e-2" text-anchor="middle"><text x="0.0" y="-2.0">0,2</text></g><g stroke-width="0.0" stroke="none" fill="#666666" transform="translate(0.0, -4.0e-2)" fill-opacity="0.2" font-size="8.0e-2" text-anchor="middle"><text x="0.0" y="-3.0">0,3</text></g><g stroke-width="0.0" stroke="none" fill="#666666" transform="translate(0.0, -4.0e-2)" fill-opacity="0.2" font-size="8.0e-2" text-anchor="middle"><text x="0.0" y="-4.0">0,4</text></g><g stroke-width="0.0" stroke="none" fill="#666666" transform="translate(0.0, -4.0e-2)" fill-opacity="0.2" font-size="8.0e-2" text-anchor="middle"><text x="0.0" y="-5.0">0,5</text></g><g stroke-width="0.0" stroke="none" fill="#666666" transform="translate(0.0, -4.0e-2)" fill-opacity="0.2" font-size="8.0e-2" text-anchor="middle"><text x="1.0" y="-0.0">1,0</text></g><g stroke-width="0.0" stroke="none" fill="#666666" transform="translate(0.0, -4.0e-2)" fill-opacity="0.2" font-size="8.0e-2" text-anchor="middle"><text x="1.0" y="-1.0">1,1</text></g><g stroke-width="0.0" stroke="none" fill="#666666" transform="translate(0.0, -4.0e-2)" fill-opacity="0.2" font-size="8.0e-2" text-anchor="middle"><text x="1.0" y="-2.0">1,2</text></g><g stroke-width="0.0" stroke="none" fill="#666666" transform="translate(0.0, -4.0e-2)" fill-opacity="0.2" font-size="8.0e-2" text-anchor="middle"><text x="1.0" y="-3.0">1,3</text></g><g stroke-width="0.0" stroke="none" fill="#666666" transform="translate(0.0, -4.0e-2)" fill-opacity="0.2" font-size="8.0e-2" text-anchor="middle"><text x="1.0" y="-4.0">1,4</text></g><g stroke-width="0.0" stroke="none" fill="#666666" transform="translate(0.0, -4.0e-2)" fill-opacity="0.2" font-size="8.0e-2" text-anchor="middle"><text x="1.0" y="-5.0">1,5</text></g><g stroke-width="0.0" stroke="none" fill="#666666" transform="translate(0.0, -4.0e-2)" fill-opacity="0.2" font-size="8.0e-2" text-anchor="middle"><text x="2.0" y="-0.0">2,0</text></g><g stroke-width="0.0" stroke="none" fill="#666666" transform="translate(0.0, -4.0e-2)" fill-opacity="0.2" font-size="8.0e-2" text-anchor="middle"><text x="2.0" y="-1.0">2,1</text></g><g stroke-width="0.0" stroke="none" fill="#666666" transform="translate(0.0, -4.0e-2)" fill-opacity="0.2" font-size="8.0e-2" text-anchor="middle"><text x="2.0" y="-2.0">2,2</text></g><g stroke-width="0.0" stroke="none" fill="#666666" transform="translate(0.0, -4.0e-2)" fill-opacity="0.2" font-size="8.0e-2" text-anchor="middle"><text x="2.0" y="-3.0">2,3</text></g><g stroke-width="0.0" stroke="none" fill="#666666" transform="translate(0.0, -4.0e-2)" fill-opacity="0.2" font-size="8.0e-2" text-anchor="middle"><text x="2.0" y="-4.0">2,4</text></g><g stroke-width="0.0" stroke="none" fill="#666666" transform="translate(0.0, -4.0e-2)" fill-opacity="0.2" font-size="8.0e-2" text-anchor="middle"><text x="2.0" y="-5.0">2,5</text></g><g stroke-width="0.0" stroke="none" fill="#666666" transform="translate(0.0, -4.0e-2)" fill-opacity="0.2" font-size="8.0e-2" text-anchor="middle"><text x="3.0" y="-0.0">3,0</text></g><g stroke-width="0.0" stroke="none" fill="#666666" transform="translate(0.0, -4.0e-2)" fill-opacity="0.2" font-size="8.0e-2" text-anchor="middle"><text x="3.0" y="-1.0">3,1</text></g><g stroke-width="0.0" stroke="none" fill="#666666" transform="translate(0.0, -4.0e-2)" fill-opacity="0.2" font-size="8.0e-2" text-anchor="middle"><text x="3.0" y="-2.0">3,2</text></g><g stroke-width="0.0" stroke="none" fill="#666666" transform="translate(0.0, -4.0e-2)" fill-opacity="0.2" font-size="8.0e-2" text-anchor="middle"><text x="3.0" y="-3.0">3,3</text></g><g stroke-width="0.0" stroke="none" fill="#666666" transform="translate(0.0, -4.0e-2)" fill-opacity="0.2" font-size="8.0e-2" text-anchor="middle"><text x="3.0" y="-4.0">3,4</text></g><g stroke-width="0.0" stroke="none" fill="#666666" transform="translate(0.0, -4.0e-2)" fill-opacity="0.2" font-size="8.0e-2" text-anchor="middle"><text x="3.0" y="-5.0">3,5</text></g><g stroke-width="0.0" stroke="none" fill="#666666" transform="translate(0.0, -4.0e-2)" fill-opacity="0.2" font-size="8.0e-2" text-anchor="middle"><text x="4.0" y="-0.0">4,0</text></g><g stroke-width="0.0" stroke="none" fill="#666666" transform="translate(0.0, -4.0e-2)" fill-opacity="0.2" font-size="8.0e-2" text-anchor="middle"><text x="4.0" y="-1.0">4,1</text></g><g stroke-width="0.0" stroke="none" fill="#666666" transform="translate(0.0, -4.0e-2)" fill-opacity="0.2" font-size="8.0e-2" text-anchor="middle"><text x="4.0" y="-2.0">4,2</text></g><g stroke-width="0.0" stroke="none" fill="#666666" transform="translate(0.0, -4.0e-2)" fill-opacity="0.2" font-size="8.0e-2" text-anchor="middle"><text x="4.0" y="-3.0">4,3</text></g><g stroke-width="0.0" stroke="none" fill="#666666" transform="translate(0.0, -4.0e-2)" fill-opacity="0.2" font-size="8.0e-2" text-anchor="middle"><text x="4.0" y="-4.0">4,4</text></g><g stroke-width="0.0" stroke="none" fill="#666666" transform="translate(0.0, -4.0e-2)" fill-opacity="0.2" font-size="8.0e-2" text-anchor="middle"><text x="4.0" y="-5.0">4,5</text></g><g stroke-width="0.0" stroke="none" fill="#666666" transform="translate(0.0, -4.0e-2)" fill-opacity="0.2" font-size="8.0e-2" text-anchor="middle"><text x="5.0" y="-0.0">5,0</text></g><g stroke-width="0.0" stroke="none" fill="#666666" transform="translate(0.0, -4.0e-2)" fill-opacity="0.2" font-size="8.0e-2" text-anchor="middle"><text x="5.0" y="-1.0">5,1</text></g><g stroke-width="0.0" stroke="none" fill="#666666" transform="translate(0.0, -4.0e-2)" fill-opacity="0.2" font-size="8.0e-2" text-anchor="middle"><text x="5.0" y="-2.0">5,2</text></g><g stroke-width="0.0" stroke="none" fill="#666666" transform="translate(0.0, -4.0e-2)" fill-opacity="0.2" font-size="8.0e-2" text-anchor="middle"><text x="5.0" y="-3.0">5,3</text></g><g stroke-width="0.0" stroke="none" fill="#666666" transform="translate(0.0, -4.0e-2)" fill-opacity="0.2" font-size="8.0e-2" text-anchor="middle"><text x="5.0" y="-4.0">5,4</text></g><g stroke-width="0.0" stroke="none" fill="#666666" transform="translate(0.0, -4.0e-2)" fill-opacity="0.2" font-size="8.0e-2" text-anchor="middle"><text x="5.0" y="-5.0">5,5</text></g><g stroke-width="0.0" stroke="#2C429D" fill="#000000" fill-opacity="0.8" stroke-opacity="0.4"><rect width="1.0e-2" height="1.0e-2" x="-5.0e-3" y="-5.0e-3" /></g><g stroke-width="0.0" stroke="#2C429D" fill="#000000" fill-opacity="0.8" stroke-opacity="0.4"><rect width="1.0e-2" height="9.999999999999898e-3" x="-5.0e-3" y="-1.005" /></g><g stroke-width="0.0" stroke="#2C429D" fill="#000000" fill-opacity="0.8" stroke-opacity="0.4"><rect width="1.0e-2" height="9.999999999999787e-3" x="-5.0e-3" y="-2.005" /></g><g stroke-width="0.0" stroke="#2C429D" fill="#000000" fill-opacity="0.8" stroke-opacity="0.4"><rect width="1.0e-2" height="9.999999999999787e-3" x="-5.0e-3" y="-3.005" /></g><g stroke-width="0.0" stroke="#2C429D" fill="#000000" fill-opacity="0.8" stroke-opacity="0.4"><rect width="1.0e-2" height="9.999999999999787e-3" x="-5.0e-3" y="-4.005" /></g><g stroke-width="0.0" stroke="#2C429D" fill="#000000" fill-opacity="0.8" stroke-opacity="0.4"><rect width="1.0e-2" height="9.999999999999787e-3" x="-5.0e-3" y="-5.005" /></g><g stroke-width="0.0" stroke="#2C429D" fill="#000000" fill-opacity="0.8" stroke-opacity="0.4"><rect width="9.999999999999898e-3" height="1.0e-2" x="0.995" y="-5.0e-3" /></g><g stroke-width="0.0" stroke="#2C429D" fill="#000000" fill-opacity="0.8" stroke-opacity="0.4"><rect width="9.999999999999898e-3" height="9.999999999999898e-3" x="0.995" y="-1.005" /></g><g stroke-width="0.0" stroke="#2C429D" fill="#000000" fill-opacity="0.8" stroke-opacity="0.4"><rect width="9.999999999999898e-3" height="9.999999999999787e-3" x="0.995" y="-2.005" /></g><g stroke-width="0.0" stroke="#2C429D" fill="#000000" fill-opacity="0.8" stroke-opacity="0.4"><rect width="9.999999999999898e-3" height="9.999999999999787e-3" x="0.995" y="-3.005" /></g><g stroke-width="0.0" stroke="#2C429D" fill="#000000" fill-opacity="0.8" stroke-opacity="0.4"><rect width="9.999999999999898e-3" height="9.999999999999787e-3" x="0.995" y="-4.005" /></g><g stroke-width="0.0" stroke="#2C429D" fill="#000000" fill-opacity="0.8" stroke-opacity="0.4"><rect width="9.999999999999898e-3" height="9.999999999999787e-3" x="0.995" y="-5.005" /></g><g stroke-width="0.0" stroke="#2C429D" fill="#000000" fill-opacity="0.8" stroke-opacity="0.4"><rect width="9.999999999999787e-3" height="1.0e-2" x="1.995" y="-5.0e-3" /></g><g stroke-width="0.0" stroke="#2C429D" fill="#000000" fill-opacity="0.8" stroke-opacity="0.4"><rect width="9.999999999999787e-3" height="9.999999999999898e-3" x="1.995" y="-1.005" /></g><g stroke-width="0.0" stroke="#2C429D" fill="#000000" fill-opacity="0.8" stroke-opacity="0.4"><rect width="9.999999999999787e-3" height="9.999999999999787e-3" x="1.995" y="-2.005" /></g><g stroke-width="0.0" stroke="#2C429D" fill="#000000" fill-opacity="0.8" stroke-opacity="0.4"><rect width="9.999999999999787e-3" height="9.999999999999787e-3" x="1.995" y="-3.005" /></g><g stroke-width="0.0" stroke="#2C429D" fill="#000000" fill-opacity="0.8" stroke-opacity="0.4"><rect width="9.999999999999787e-3" height="9.999999999999787e-3" x="1.995" y="-4.005" /></g><g stroke-width="0.0" stroke="#2C429D" fill="#000000" fill-opacity="0.8" stroke-opacity="0.4"><rect width="9.999999999999787e-3" height="9.999999999999787e-3" x="1.995" y="-5.005" /></g><g stroke-width="0.0" stroke="#2C429D" fill="#000000" fill-opacity="0.8" stroke-opacity="0.4"><rect width="9.999999999999787e-3" height="1.0e-2" x="2.995" y="-5.0e-3" /></g><g stroke-width="0.0" stroke="#2C429D" fill="#000000" fill-opacity="0.8" stroke-opacity="0.4"><rect width="9.999999999999787e-3" height="9.999999999999898e-3" x="2.995" y="-1.005" /></g><g stroke-width="0.0" stroke="#2C429D" fill="#000000" fill-opacity="0.8" stroke-opacity="0.4"><rect width="9.999999999999787e-3" height="9.999999999999787e-3" x="2.995" y="-2.005" /></g><g stroke-width="0.0" stroke="#2C429D" fill="#000000" fill-opacity="0.8" stroke-opacity="0.4"><rect width="9.999999999999787e-3" height="9.999999999999787e-3" x="2.995" y="-3.005" /></g><g stroke-width="0.0" stroke="#2C429D" fill="#000000" fill-opacity="0.8" stroke-opacity="0.4"><rect width="9.999999999999787e-3" height="9.999999999999787e-3" x="2.995" y="-4.005" /></g><g stroke-width="0.0" stroke="#2C429D" fill="#000000" fill-opacity="0.8" stroke-opacity="0.4"><rect width="9.999999999999787e-3" height="9.999999999999787e-3" x="2.995" y="-5.005" /></g><g stroke-width="0.0" stroke="#2C429D" fill="#000000" fill-opacity="0.8" stroke-opacity="0.4"><rect width="9.999999999999787e-3" height="1.0e-2" x="3.995" y="-5.0e-3" /></g><g stroke-width="0.0" stroke="#2C429D" fill="#000000" fill-opacity="0.8" stroke-opacity="0.4"><rect width="9.999999999999787e-3" height="9.999999999999898e-3" x="3.995" y="-1.005" /></g><g stroke-width="0.0" stroke="#2C429D" fill="#000000" fill-opacity="0.8" stroke-opacity="0.4"><rect width="9.999999999999787e-3" height="9.999999999999787e-3" x="3.995" y="-2.005" /></g><g stroke-width="0.0" stroke="#2C429D" fill="#000000" fill-opacity="0.8" stroke-opacity="0.4"><rect width="9.999999999999787e-3" height="9.999999999999787e-3" x="3.995" y="-3.005" /></g><g stroke-width="0.0" stroke="#2C429D" fill="#000000" fill-opacity="0.8" stroke-opacity="0.4"><rect width="9.999999999999787e-3" height="9.999999999999787e-3" x="3.995" y="-4.005" /></g><g stroke-width="0.0" stroke="#2C429D" fill="#000000" fill-opacity="0.8" stroke-opacity="0.4"><rect width="9.999999999999787e-3" height="9.999999999999787e-3" x="3.995" y="-5.005" /></g><g stroke-width="0.0" stroke="#2C429D" fill="#000000" fill-opacity="0.8" stroke-opacity="0.4"><rect width="9.999999999999787e-3" height="1.0e-2" x="4.995" y="-5.0e-3" /></g><g stroke-width="0.0" stroke="#2C429D" fill="#000000" fill-opacity="0.8" stroke-opacity="0.4"><rect width="9.999999999999787e-3" height="9.999999999999898e-3" x="4.995" y="-1.005" /></g><g stroke-width="0.0" stroke="#2C429D" fill="#000000" fill-opacity="0.8" stroke-opacity="0.4"><rect width="9.999999999999787e-3" height="9.999999999999787e-3" x="4.995" y="-2.005" /></g><g stroke-width="0.0" stroke="#2C429D" fill="#000000" fill-opacity="0.8" stroke-opacity="0.4"><rect width="9.999999999999787e-3" height="9.999999999999787e-3" x="4.995" y="-3.005" /></g><g stroke-width="0.0" stroke="#2C429D" fill="#000000" fill-opacity="0.8" stroke-opacity="0.4"><rect width="9.999999999999787e-3" height="9.999999999999787e-3" x="4.995" y="-4.005" /></g><g stroke-width="0.0" stroke="#2C429D" fill="#000000" fill-opacity="0.8" stroke-opacity="0.4"><rect width="9.999999999999787e-3" height="9.999999999999787e-3" x="4.995" y="-5.005" /></g><g stroke-width="1.5e-2" stroke="#C5824B" fill="none" stroke-opacity="0.6"><polyline points="0.0,-1.0 1.0,-1.0 2.0,-5.0" /></g><g stroke-width="3.0e-2" stroke="#3C7F2B" fill="none" stroke-opacity="0.6"><polyline points="0.0,-0.0 2.8,-3.0" /></g><g stroke-width="1.0e-2" stroke="#342989" fill="none" stroke-opacity="1.0"><polyline points="0.5,-4.0 0.5,-0.0" /></g><g stroke-width="5.0e-3" stroke="#78431E" fill="#78431E" fill-opacity="0.8" stroke-opacity="0.4"><ellipse cy="-1.0" rx="4.0e-2" ry="6.0e-2" /><ellipse cx="1.0" cy="-1.0" rx="4.0e-2" ry="6.0e-2" /><ellipse cx="2.0" cy="-5.0" rx="4.0e-2" ry="6.0e-2" /></g><g stroke-width="5.0e-3" stroke="#1E3082" fill="#1E3082" fill-opacity="0.8" stroke-opacity="0.4"><rect width="8.0e-2" height="8.0e-2" x="-4.0e-2" y="-4.0e-2" /><rect width="8.000000000000007e-2" height="8.000000000000007e-2" x="2.76" y="-3.04" /></g><g stroke-width="5.0e-3" stroke="#3C3C3C" fill="#3C3C3C" fill-opacity="0.8" stroke-opacity="0.4"><circle cx="0.5" cy="-4.0" r="4.0e-2" /><circle cx="0.5" r="4.0e-2" /></g></svg>