
<svg xmlns="http://www.w3.org/2000/svg" height="300.0" viewBox="-0.8300000000000001 -0.634 1.6600000000000001 1.1965" width="450.0" xmlns:xlink="http://www.w3.org/1999/xlink">
  <g transform="translate(0.0, -4.0e-2)" fill-opacity="0.2" font-size="8.0e-2" stroke="none" stroke-width="0.0" fill="#666666" text-anchor="middle">
    <text x="-0.75" y="0.5">0,0
    </text>
  </g>
  <g transform="translate(0.0, -4.0e-2)" fill-opacity="0.2" font-size="8.0e-2" stroke="none" stroke-width="0.0" fill="#666666" text-anchor="middle">
    <text x="-0.75" y="0.3">0,1
    </text>
  </g>
  <g transform="translate(0.0, -4.0e-2)" fill-opacity="0.2" font-size="8.0e-2" stroke="none" stroke-width="0.0" fill="#666666" text-anchor="middle">
    <text x="-0.75" y="9.999999999999998e-2">0,2
    </text>
  </g>
  <g transform="translate(0.0, -4.0e-2)" fill-opacity="0.2" font-size="8.0e-2" stroke="none" stroke-width="0.0" fill="#666666" text-anchor="middle">
    <text x="-0.75" y="-0.10000000000000009">0,3
    </text>
  </g>
  <g transform="translate(0.0, -4.0e-2)" fill-opacity="0.2" font-size="8.0e-2" stroke="none" stroke-width="0.0" fill="#666666" text-anchor="middle">
    <text x="-0.75" y="-0.30000000000000004">0,4
    </text>
  </g>
  <g transform="translate(0.0, -4.0e-2)" fill-opacity="0.2" font-size="8.0e-2" stroke="none" stroke-width="0.0" fill="#666666" text-anchor="middle">
    <text x="-0.75" y="-0.5">0,5
    </text>
  </g>
  <g transform="translate(0.0, -4.0e-2)" fill-opacity="0.2" font-size="8.0e-2" stroke="none" stroke-width="0.0" fill="#666666" text-anchor="middle">
    <text x="-0.44999999999999996" y="0.5">1,0
    </text>
  </g>
  <g transform="translate(0.0, -4.0e-2)" fill-opacity="0.2" font-size="8.0e-2" stroke="none" stroke-width="0.0" fill="#666666" text-anchor="middle">
    <text x="-0.44999999999999996" y="0.3">1,1
    </text>
  </g>
  <g transform="translate(0.0, -4.0e-2)" fill-opacity="0.2" font-size="8.0e-2" stroke="none" stroke-width="0.0" fill="#666666" text-anchor="middle">
    <text x="-0.44999999999999996" y="9.999999999999998e-2">1,2
    </text>
  </g>
  <g transform="translate(0.0, -4.0e-2)" fill-opacity="0.2" font-size="8.0e-2" stroke="none" stroke-width="0.0" fill="#666666" text-anchor="middle">
    <text x="-0.44999999999999996" y="-0.10000000000000009">1,3
    </text>
  </g>
  <g transform="translate(0.0, -4.0e-2)" fill-opacity="0.2" font-size="8.0e-2" stroke="none" stroke-width="0.0" fill="#666666" text-anchor="middle">
    <text x="-0.44999999999999996" y="-0.30000000000000004">1,4
    </text>
  </g>
  <g transform="translate(0.0, -4.0e-2)" fill-opacity="0.2" font-size="8.0e-2" stroke="none" stroke-width="0.0" fill="#666666" text-anchor="middle">
    <text x="-0.44999999999999996" y="-0.5">1,5
    </text>
  </g>
  <g transform="translate(0.0, -4.0e-2)" fill-opacity="0.2" font-size="8.0e-2" stroke="none" stroke-width="0.0" fill="#666666" text-anchor="middle">
    <text x="-0.1499999999999999" y="0.5">2,0
    </text>
  </g>
  <g transform="translate(0.0, -4.0e-2)" fill-opacity="0.2" font-size="8.0e-2" stroke="none" stroke-width="0.0" fill="#666666" text-anchor="middle">
    <text x="-0.1499999999999999" y="0.3">2,1
    </text>
  </g>
  <g transform="translate(0.0, -4.0e-2)" fill-opacity="0.2" font-size="8.0e-2" stroke="none" stroke-width="0.0" fill="#666666" text-anchor="middle">
    <text x="-0.1499999999999999" y="9.999999999999998e-2">2,2
    </text>
  </g>
  <g transform="translate(0.0, -4.0e-2)" fill-opacity="0.2" font-size="8.0e-2" stroke="none" stroke-width="0.0" fill="#666666" text-anchor="middle">
    <text x="-0.1499999999999999" y="-0.10000000000000009">2,3
    </text>
  </g>
  <g transform="translate(0.0, -4.0e-2)" fill-opacity="0.2" font-size="8.0e-2" stroke="none" stroke-width="0.0" fill="#666666" text-anchor="middle">
    <text x="-0.1499999999999999" y="-0.30000000000000004">2,4
    </text>
  </g>
  <g transform="translate(0.0, -4.0e-2)" fill-opacity="0.2" font-size="8.0e-2" stroke="none" stroke-width="0.0" fill="#666666" text-anchor="middle">
    <text x="-0.1499999999999999" y="-0.5">2,5
    </text>
  </g>
  <g transform="translate(0.0, -4.0e-2)" fill-opacity="0.2" font-size="8.0e-2" stroke="none" stroke-width="0.0" fill="#666666" text-anchor="middle">
    <text x="0.15000000000000013" y="0.5">3,0
    </text>
  </g>
  <g transform="translate(0.0, -4.0e-2)" fill-opacity="0.2" font-size="8.0e-2" stroke="none" stroke-width="0.0" fill="#666666" text-anchor="middle">
    <text x="0.15000000000000013" y="0.3">3,1
    </text>
  </g>
  <g transform="translate(0.0, -4.0e-2)" fill-opacity="0.2" font-size="8.0e-2" stroke="none" stroke-width="0.0" fill="#666666" text-anchor="middle">
    <text x="0.15000000000000013" y="9.999999999999998e-2">3,2
    </text>
  </g>
  <g transform="translate(0.0, -4.0e-2)" fill-opacity="0.2" font-size="8.0e-2" stroke="none" stroke-width="0.0" fill="#666666" text-anchor="middle">
    <text x="0.15000000000000013" y="-0.10000000000000009">3,3
    </text>
  </g>
  <g transform="translate(0.0, -4.0e-2)" fill-opacity="0.2" font-size="8.0e-2" stroke="none" stroke-width="0.0" fill="#666666" text-anchor="middle">
    <text x="0.15000000000000013" y="-0.30000000000000004">3,4
    </text>
  </g>
  <g transform="translate(0.0, -4.0e-2)" fill-opacity="0.2" font-size="8.0e-2" stroke="none" stroke-width="0.0" fill="#666666" text-anchor="middle">
    <text x="0.15000000000000013" y="-0.5">3,5
    </text>
  </g>
  <g transform="translate(0.0, -4.0e-2)" fill-opacity="0.2" font-size="8.0e-2" stroke="none" stroke-width="0.0" fill="#666666" text-anchor="middle">
    <text x="0.4500000000000002" y="0.5">4,0
    </text>
  </g>
  <g transform="translate(0.0, -4.0e-2)" fill-opacity="0.2" font-size="8.0e-2" stroke="none" stroke-width="0.0" fill="#666666" text-anchor="middle">
    <text x="0.4500000000000002" y="0.3">4,1
    </text>
  </g>
  <g transform="translate(0.0, -4.0e-2)" fill-opacity="0.2" font-size="8.0e-2" stroke="none" stroke-width="0.0" fill="#666666" text-anchor="middle">
    <text x="0.4500000000000002" y="9.999999999999998e-2">4,2
    </text>
  </g>
  <g transform="translate(0.0, -4.0e-2)" fill-opacity="0.2" font-size="8.0e-2" stroke="none" stroke-width="0.0" fill="#666666" text-anchor="middle">
    <text x="0.4500000000000002" y="-0.10000000000000009">4,3
    </text>
  </g>
  <g transform="translate(0.0, -4.0e-2)" fill-opacity="0.2" font-size="8.0e-2" stroke="none" stroke-width="0.0" fill="#666666" text-anchor="middle">
    <text x="0.4500000000000002" y="-0.30000000000000004">4,4
    </text>
  </g>
  <g transform="translate(0.0, -4.0e-2)" fill-opacity="0.2" font-size="8.0e-2" stroke="none" stroke-width="0.0" fill="#666666" text-anchor="middle">
    <text x="0.4500000000000002" y="-0.5">4,5
    </text>
  </g>
  <g transform="translate(0.0, -4.0e-2)" fill-opacity="0.2" font-size="8.0e-2" stroke="none" stroke-width="0.0" fill="#666666" text-anchor="middle">
    <text x="0.75" y="0.5">5,0
    </text>
  </g>
  <g transform="translate(0.0, -4.0e-2)" fill-opacity="0.2" font-size="8.0e-2" stroke="none" stroke-width="0.0" fill="#666666" text-anchor="middle">
    <text x="0.75" y="0.3">5,1
    </text>
  </g>
  <g transform="translate(0.0, -4.0e-2)" fill-opacity="0.2" font-size="8.0e-2" stroke="none" stroke-width="0.0" fill="#666666" text-anchor="middle">
    <text x="0.75" y="9.999999999999998e-2">5,2
    </text>
  </g>
  <g transform="translate(0.0, -4.0e-2)" fill-opacity="0.2" font-size="8.0e-2" stroke="none" stroke-width="0.0" fill="#666666" text-anchor="middle">
    <text x="0.75" y="-0.10000000000000009">5,3
    </text>
  </g>
  <g transform="translate(0.0, -4.0e-2)" fill-opacity="0.2" font-size="8.0e-2" stroke="none" stroke-width="0.0" fill="#666666" text-anchor="middle">
    <text x="0.75" y="-0.30000000000000004">5,4
    </text>
  </g>
  <g transform="translate(0.0, -4.0e-2)" fill-opacity="0.2" font-size="8.0e-2" stroke="none" stroke-width="0.0" fill="#666666" text-anchor="middle">
    <text x="0.75" y="-0.5">5,5
    </text>
  </g>
  <g stroke-opacity="0.4" fill-opacity="0.8" stroke="#2c429d" stroke-width="0.0" fill="#000000">
    <rect height="1.0000000000000009e-2" width="1.0000000000000009e-2" x="-0.755" y="0.495"/>
  </g>
  <g stroke-opacity="0.4" fill-opacity="0.8" stroke="#2c429d" stroke-width="0.0" fill="#000000">
    <rect height="1.0000000000000009e-2" width="1.0000000000000009e-2" x="-0.755" y="0.295"/>
  </g>
  <g stroke-opacity="0.4" fill-opacity="0.8" stroke="#2c429d" stroke-width="0.0" fill="#000000">
    <rect height="1.0000000000000009e-2" width="1.0000000000000009e-2" x="-0.755" y="9.499999999999997e-2"/>
  </g>
  <g stroke-opacity="0.4" fill-opacity="0.8" stroke="#2c429d" stroke-width="0.0" fill="#000000">
    <rect height="1.0000000000000009e-2" width="1.0000000000000009e-2" x="-0.755" y="-0.1050000000000001"/>
  </g>
  <g stroke-opacity="0.4" fill-opacity="0.8" stroke="#2c429d" stroke-width="0.0" fill="#000000">
    <rect height="1.0000000000000009e-2" width="1.0000000000000009e-2" x="-0.755" y="-0.30500000000000005"/>
  </g>
  <g stroke-opacity="0.4" fill-opacity="0.8" stroke="#2c429d" stroke-width="0.0" fill="#000000">
    <rect height="1.0000000000000009e-2" width="1.0000000000000009e-2" x="-0.755" y="-0.505"/>
  </g>
  <g stroke-opacity="0.4" fill-opacity="0.8" stroke="#2c429d" stroke-width="0.0" fill="#000000">
    <rect height="1.0000000000000009e-2" width="1.0000000000000009e-2" x="-0.45499999999999996" y="0.495"/>
  </g>
  <g stroke-opacity="0.4" fill-opacity="0.8" stroke="#2c429d" stroke-width="0.0" fill="#000000">
    <rect height="1.0000000000000009e-2" width="1.0000000000000009e-2" x="-0.45499999999999996" y="0.295"/>
  </g>
  <g stroke-opacity="0.4" fill-opacity="0.8" stroke="#2c429d" stroke-width="0.0" fill="#000000">
    <rect height="1.0000000000000009e-2" width="1.0000000000000009e-2" x="-0.45499999999999996" y="9.499999999999997e-2"/>
  </g>
  <g stroke-opacity="0.4" fill-opacity="0.8" stroke="#2c429d" stroke-width="0.0" fill="#000000">
    <rect height="1.0000000000000009e-2" width="1.0000000000000009e-2" x="-0.45499999999999996" y="-0.1050000000000001"/>
  </g>
  <g stroke-opacity="0.4" fill-opacity="0.8" stroke="#2c429d" stroke-width="0.0" fill="#000000">
    <rect height="1.0000000000000009e-2" width="1.0000000000000009e-2" x="-0.45499999999999996" y="-0.30500000000000005"/>
  </g>
  <g stroke-opacity="0.4" fill-opacity="0.8" stroke="#2c429d" stroke-width="0.0" fill="#000000">
    <rect height="1.0000000000000009e-2" width="1.0000000000000009e-2" x="-0.45499999999999996" y="-0.505"/>
  </g>
  <g stroke-opacity="0.4" fill-opacity="0.8" stroke="#2c429d" stroke-width="0.0" fill="#000000">
    <rect height="1.0000000000000009e-2" width="1.0000000000000009e-2" x="-0.15499999999999992" y="0.495"/>
  </g>
  <g stroke-opacity="0.4" fill-opacity="0.8" stroke="#2c429d" stroke-width="0.0" fill="#000000">
    <rect height="1.0000000000000009e-2" width="1.0000000000000009e-2" x="-0.15499999999999992" y="0.295"/>
  </g>
  <g stroke-opacity="0.4" fill-opacity="0.8" stroke="#2c429d" stroke-width="0.0" fill="#000000">
    <rect height="1.0000000000000009e-2" width="1.0000000000000009e-2" x="-0.15499999999999992" y="9.499999999999997e-2"/>
  </g>
  <g stroke-opacity="0.4" fill-opacity="0.8" stroke="#2c429d" stroke-width="0.0" fill="#000000">
    <rect height="1.0000000000000009e-2" width="1.0000000000000009e-2" x="-0.15499999999999992" y="-0.1050000000000001"/>
  </g>
  <g stroke-opacity="0.4" fill-opacity="0.8" stroke="#2c429d" stroke-width="0.0" fill="#000000">
    <rect height="1.0000000000000009e-2" width="1.0000000000000009e-2" x="-0.15499999999999992" y="-0.30500000000000005"/>
  </g>
  <g stroke-opacity="0.4" fill-opacity="0.8" stroke="#2c429d" stroke-width="0.0" fill="#000000">
    <rect height="1.0000000000000009e-2" width="1.0000000000000009e-2" x="-0.15499999999999992" y="-0.505"/>
  </g>
  <g stroke-opacity="0.4" fill-opacity="0.8" stroke="#2c429d" stroke-width="0.0" fill="#000000">
    <rect height="1.0000000000000009e-2" width="1.0000000000000009e-2" x="0.14500000000000013" y="0.495"/>
  </g>
  <g stroke-opacity="0.4" fill-opacity="0.8" stroke="#2c429d" stroke-width="0.0" fill="#000000">
    <rect height="1.0000000000000009e-2" width="1.0000000000000009e-2" x="0.14500000000000013" y="0.295"/>
  </g>
  <g stroke-opacity="0.4" fill-opacity="0.8" stroke="#2c429d" stroke-width="0.0" fill="#000000">
    <rect height="1.0000000000000009e-2" width="1.0000000000000009e-2" x="0.14500000000000013" y="9.499999999999997e-2"/>
  </g>
  <g stroke-opacity="0.4" fill-opacity="0.8" stroke="#2c429d" stroke-width="0.0" fill="#000000">
    <rect height="1.0000000000000009e-2" width="1.0000000000000009e-2" x="0.14500000000000013" y="-0.1050000000000001"/>
  </g>
  <g stroke-opacity="0.4" fill-opacity="0.8" stroke="#2c429d" stroke-width="0.0" fill="#000000">
    <rect height="1.0000000000000009e-2" width="1.0000000000000009e-2" x="0.14500000000000013" y="-0.30500000000000005"/>
  </g>
  <g stroke-opacity="0.4" fill-opacity="0.8" stroke="#2c429d" stroke-width="0.0" fill="#000000">
    <rect height="1.0000000000000009e-2" width="1.0000000000000009e-2" x="0.14500000000000013" y="-0.505"/>
  </g>
  <g stroke-opacity="0.4" fill-opacity="0.8" stroke="#2c429d" stroke-width="0.0" fill="#000000">
    <rect height="1.0000000000000009e-2" width="1.0000000000000009e-2" x="0.4450000000000002" y="0.495"/>
  </g>
  <g stroke-opacity="0.4" fill-opacity="0.8" stroke="#2c429d" stroke-width="0.0" fill="#000000">
    <rect height="1.0000000000000009e-2" width="1.0000000000000009e-2" x="0.4450000000000002" y="0.295"/>
  </g>
  <g stroke-opacity="0.4" fill-opacity="0.8" stroke="#2c429d" stroke-width="0.0" fill="#000000">
    <rect height="1.0000000000000009e-2" width="1.0000000000000009e-2" x="0.4450000000000002" y="9.499999999999997e-2"/>
  </g>
  <g stroke-opacity="0.4" fill-opacity="0.8" stroke="#2c429d" stroke-width="0.0" fill="#000000">
    <rect height="1.0000000000000009e-2" width="1.0000000000000009e-2" x="0.4450000000000002" y="-0.1050000000000001"/>
  </g>
  <g stroke-opacity="0.4" fill-opacity="0.8" stroke="#2c429d" stroke-width="0.0" fill="#000000">
    <rect height="1.0000000000000009e-2" width="1.0000000000000009e-2" x="0.4450000000000002" y="-0.30500000000000005"/>
  </g>
  <g stroke-opacity="0.4" fill-opacity="0.8" stroke="#2c429d" stroke-width="0.0" fill="#000000">
    <rect height="1.0000000000000009e-2" width="1.0000000000000009e-2" x="0.4450000000000002" y="-0.505"/>
  </g>
  <g stroke-opacity="0.4" fill-opacity="0.8" stroke="#2c429d" stroke-width="0.0" fill="#000000">
    <rect height="1.0000000000000009e-2" width="1.0000000000000009e-2" x="0.745" y="0.495"/>
  </g>
  <g stroke-opacity="0.4" fill-opacity="0.8" stroke="#2c429d" stroke-width="0.0" fill="#000000">
    <rect height="1.0000000000000009e-2" width="1.0000000000000009e-2" x="0.745" y="0.295"/>
  </g>
  <g stroke-opacity="0.4" fill-opacity="0.8" stroke="#2c429d" stroke-width="0.0" fill="#000000">
    <rect height="1.0000000000000009e-2" width="1.0000000000000009e-2" x="0.745" y="9.499999999999997e-2"/>
  </g>
  <g stroke-opacity="0.4" fill-opacity="0.8" stroke="#2c429d" stroke-width="0.0" fill="#000000">
    <rect height="1.0000000000000009e-2" width="1.0000000000000009e-2" x="0.745" y="-0.1050000000000001"/>
  </g>
  <g stroke-opacity="0.4" fill-opacity="0.8" stroke="#2c429d" stroke-width="0.0" fill="#000000">
    <rect height="1.0000000000000009e-2" width="1.0000000000000009e-2" x="0.745" y="-0.30500000000000005"/>
  </g>
  <g stroke-opacity="0.4" fill-opacity="0.8" stroke="#2c429d" stroke-width="0.0" fill="#000000">
    <rect height="1.0000000000000009e-2" width="1.0000000000000009e-2" x="0.745" y="-0.505"/>
  </g>
  <g stroke-opacity="0.6" stroke="#c5824b" stroke-width="1.5e-2" fill="none">
    <polyline points="-0.75,0.3
-0.44999999999999996,0.3
-0.1499999999999999,-0.5"/>
  </g>
  <g stroke-opacity="0.6" stroke="#3c7f2b" stroke-width="3.0e-2" fill="none">
    <polyline points="-0.75,0.5
8.999999999999986e-2,-0.10000000000000009"/>
  </g>
  <g stroke-opacity="1.0" stroke="#342989" stroke-width="1.0e-2" fill="none">
    <polyline points="-0.6,-0.30000000000000004
-0.6,0.5"/>
  </g>
  <g stroke-opacity="0.4" fill-opacity="0.8" stroke="#78431e" stroke-width="5.0e-3" fill="#78431e">
    <ellipse rx="4.0e-2" ry="6.0e-2" cy="0.3" cx="-0.75"/>
    <ellipse rx="4.0e-2" ry="6.0e-2" cy="0.3" cx="-0.44999999999999996"/>
    <ellipse rx="4.0e-2" ry="6.0e-2" cy="-0.5" cx="-0.1499999999999999"/>
  </g>
  <g stroke-opacity="0.4" fill-opacity="0.8" stroke="#1e3082" stroke-width="5.0e-3" fill="#1e3082">
    <rect height="8.000000000000002e-2" width="8.000000000000007e-2" x="-0.79" y="0.46"/>
    <rect height="8.000000000000002e-2" width="8.000000000000002e-2" x="4.999999999999986e-2" y="-0.1400000000000001"/>
  </g>
  <g stroke-opacity="0.4" fill-opacity="0.8" stroke="#3c3c3c" stroke-width="5.0e-3" fill="#3c3c3c">
    <circle cy="-0.30000000000000004" r="4.0e-2" cx="-0.6"/>
    <circle cy="0.5" r="4.0e-2" cx="-0.6"/>
  </g>
</svg>