<svg xmlns="http://www.w3.org/2000/svg" xmlns:xlink="http://www.w3.org/1999/xlink" width="448" height="300" viewBox="-0.7521 -0.5048 1.5041 1.0064"><style>svg {
  color-scheme: light dark;
}
{
  .canvas g, .title g, .axisbar g, .ticktext g, .tickglyph g, .ticklines g, .legendContent g text {
    fill: rgb(5%, 5%, 5%);
  }
  .ticklines g, .tickglyph g, .legendBorder g {
    stroke: rgb(5%, 5%, 5%);
  }
  .legendBorder g {
    fill: rgb(94%, 94%, 94%);
  }
}
@media (prefers-color-scheme:dark) {
  .canvas g, .title g, .axisbar g, .ticktext g, .tickglyph g, .ticklines g, .legendContent g text {
    fill: rgb(94%, 94%, 94%);
  }
  .ticklines g, .tickglyph g, .legendBorder g {
    stroke: rgb(94%, 94%, 94%);
  }
  .legendBorder g {
    fill: rgb(5%, 5%, 5%);
  }
}
svg { font-family: system-ui,-apple-system,"Segoe UI",Roboto,"Helvetica Neue",Arial,"Noto Sans","Liberation Sans",sans-serif,"Apple Color Emoji","Segoe UI Emoji","Segoe UI Symbol","Noto Color Emoji";
}

ticktext { font-family: SFMono-Regular,Menlo,Monaco,Consolas,"Liberation Mono","Courier New",monospace;
}

</style><g class="chart"><g class="chart"><g class="c1"><g stroke-width="0.0100" stroke="rgb(2%, 29%, 48%)" stroke-opacity="1.0" fill="rgb(2%, 73%, 80%)" fill-opacity="0.1"><rect width="1.2083" height="0.5567" x="-0.6042" y="-0.1417"/></g></g><g class="c2"><g stroke-width="0" stroke="rgb(0%, 0%, 0%)" stroke-opacity="0" fill="rgb(96%, 60%, 92%)" fill-opacity="0.3"><rect width="0.8055" height="0.3712" x="-0.4028" y="-0.0489"/></g></g><g class="datapadding"></g></g><g class="hud"><g class="axis"><g class="axisbar"><g stroke-width="0" stroke="rgb(0%, 0%, 0%)" stroke-opacity="0" fill="rgb(2%, 73%, 80%)" fill-opacity="1.0"><rect width="0.0032" height="0.5590" x="-0.6155" y="-0.1428"/></g></g><g class="ticks"><g class="ticklines"><g stroke-width="0.0050" stroke="rgb(2%, 73%, 80%)" stroke-opacity="1.0" fill="none"><polyline points="-0.6042,0.4150 0.6042,0.4150"/><polyline points="-0.6042,0.2759 0.6042,0.2759"/><polyline points="-0.6042,0.1367 0.6042,0.1367"/><polyline points="-0.6042,-0.0025 0.6042,-0.0025"/><polyline points="-0.6042,-0.1417 0.6042,-0.1417"/></g></g><g class="tickglyph"><g stroke-width="0.0032" stroke="rgb(2%, 73%, 80%)" stroke-opacity="1.0" fill="rgb(2%, 73%, 80%)" fill-opacity="1.0"><polyline points="-0.6382,0.4150
-0.6139,0.4150"/><polyline points="-0.6382,0.2759
-0.6139,0.2759"/><polyline points="-0.6382,0.1367
-0.6139,0.1367"/><polyline points="-0.6382,-0.0025
-0.6139,-0.0025"/><polyline points="-0.6382,-0.1417
-0.6139,-0.1417"/></g></g><g class="ticktext"><g stroke-width="0.0" stroke="none" fill="rgb(2%, 73%, 80%)" fill-opacity="1.0" font-size="0.0400" text-anchor="end"><text x="-0.6561" y="0.4212">-1.0</text><text x="-0.6561" y="0.2821">-0.5</text><text x="-0.6561" y="0.1429"> 0.0</text><text x="-0.6561" y="0.0037"> 0.5</text><text x="-0.6561" y="-0.1355"> 1.0</text></g></g></g></g><g class="axis"><g class="axisbar"><g stroke-width="0" stroke="rgb(0%, 0%, 0%)" stroke-opacity="0" fill="rgb(2%, 73%, 80%)" fill-opacity="1.0"><rect width="1.2116" height="0.0022" x="-0.6058" y="0.4207"/></g></g><g class="ticks"><g class="ticklines"><g stroke-width="0.0050" stroke="rgb(2%, 73%, 80%)" stroke-opacity="1.0" fill="none"><polyline points="-0.6042,0.4150 -0.6042,-0.1417"/><polyline points="-0.3021,0.4150 -0.3021,-0.1417"/><polyline points="0,0.4150 0,-0.1417"/><polyline points="0.3021,0.4150 0.3021,-0.1417"/><polyline points="0.6042,0.4150 0.6042,-0.1417"/></g></g><g class="tickglyph"><g stroke-width="0.0022" stroke="rgb(2%, 73%, 80%)" stroke-opacity="1.0" fill="rgb(2%, 73%, 80%)" fill-opacity="1.0"><polyline points="-0.6042,0.4387
-0.6042,0.4218"/><polyline points="-0.3021,0.4387
-0.3021,0.4218"/><polyline points="0,0.4387
0,0.4218"/><polyline points="0.3021,0.4387
0.3021,0.4218"/><polyline points="0.6042,0.4387
0.6042,0.4218"/></g></g><g class="ticktext"><g stroke-width="0.0" stroke="none" fill="rgb(2%, 73%, 80%)" fill-opacity="1.0" font-size="0.0400" text-anchor="middle"><text x="-0.6042" y="0.4696">-1.0</text><text x="-0.3021" y="0.4696">-0.5</text><text x="0" y="0.4696"> 0.0</text><text x="0.3021" y="0.4696"> 0.5</text><text x="0.6042" y="0.4696"> 1.0</text></g></g></g></g><g class="axis"><g class="axisbar"><g stroke-width="0" stroke="rgb(0%, 0%, 0%)" stroke-opacity="0" fill="rgb(96%, 60%, 92%)" fill-opacity="1.0"><rect width="0.0032" height="0.5590" x="0.6123" y="-0.1428"/></g></g><g class="ticks"><g class="ticklines"><g stroke-width="0.0050" stroke="rgb(96%, 60%, 92%)" stroke-opacity="1.0" fill="none"><polyline points="-0.6042,0.4150 0.6042,0.4150"/><polyline points="-0.6042,0.3223 0.6042,0.3223"/><polyline points="-0.6042,0.2295 0.6042,0.2295"/><polyline points="-0.6042,0.1367 0.6042,0.1367"/><polyline points="-0.6042,0.0439 0.6042,0.0439"/><polyline points="-0.6042,-0.0489 0.6042,-0.0489"/><polyline points="-0.6042,-0.1417 0.6042,-0.1417"/></g></g><g class="tickglyph"><g stroke-width="0.0032" stroke="rgb(96%, 60%, 92%)" stroke-opacity="1.0" fill="rgb(96%, 60%, 92%)" fill-opacity="1.0"><polyline points="0.6139,0.4150
0.6382,0.4150"/><polyline points="0.6139,0.3223
0.6382,0.3223"/><polyline points="0.6139,0.2295
0.6382,0.2295"/><polyline points="0.6139,0.1367
0.6382,0.1367"/><polyline points="0.6139,0.0439
0.6382,0.0439"/><polyline points="0.6139,-0.0489
0.6382,-0.0489"/><polyline points="0.6139,-0.1417
0.6382,-0.1417"/></g></g><g class="ticktext"><g stroke-width="0.0" stroke="none" fill="rgb(96%, 60%, 92%)" fill-opacity="1.0" font-size="0.0400" text-anchor="start"><text x="0.6561" y="0.4212">-0.6</text><text x="0.6561" y="0.3284">-0.4</text><text x="0.6561" y="0.2357">-0.2</text><text x="0.6561" y="0.1429"> 0.0</text><text x="0.6561" y="0.0501"> 0.2</text><text x="0.6561" y="-0.0427"> 0.4</text><text x="0.6561" y="-0.1355"> 0.6</text></g></g></g></g><g class="axis"><g class="axisbar"><g stroke-width="0" stroke="rgb(0%, 0%, 0%)" stroke-opacity="0" fill="rgb(96%, 60%, 92%)" fill-opacity="1.0"><rect width="1.2116" height="0.0022" x="-0.6058" y="-0.1496"/></g></g><g class="ticks"><g class="ticklines"><g stroke-width="0.0050" stroke="rgb(96%, 60%, 92%)" stroke-opacity="1.0" fill="none"><polyline points="-0.6042,0.4150 -0.6042,-0.1417"/><polyline points="-0.4028,0.4150 -0.4028,-0.1417"/><polyline points="-0.2014,0.4150 -0.2014,-0.1417"/><polyline points="0,0.4150 0,-0.1417"/><polyline points="0.2014,0.4150 0.2014,-0.1417"/><polyline points="0.4028,0.4150 0.4028,-0.1417"/><polyline points="0.6042,0.4150 0.6042,-0.1417"/></g></g><g class="tickglyph"><g stroke-width="0.0022" stroke="rgb(96%, 60%, 92%)" stroke-opacity="1.0" fill="rgb(96%, 60%, 92%)" fill-opacity="1.0"><polyline points="-0.6042,-0.1484
-0.6042,-0.1653"/><polyline points="-0.4028,-0.1484
-0.4028,-0.1653"/><polyline points="-0.2014,-0.1484
-0.2014,-0.1653"/><polyline points="0,-0.1484
0,-0.1653"/><polyline points="0.2014,-0.1484
0.2014,-0.1653"/><polyline points="0.4028,-0.1484
0.4028,-0.1653"/><polyline points="0.6042,-0.1484
0.6042,-0.1653"/></g></g><g class="ticktext"><g stroke-width="0.0" stroke="none" fill="rgb(96%, 60%, 92%)" fill-opacity="1.0" font-size="0.0400" text-anchor="middle"><text x="-0.6042" y="-0.1839">-0.6</text><text x="-0.4028" y="-0.1839">-0.4</text><text x="-0.2014" y="-0.1839">-0.2</text><text x="0" y="-0.1839"> 0.0</text><text x="0.2014" y="-0.1839"> 0.2</text><text x="0.4028" y="-0.1839"> 0.4</text><text x="0.6042" y="-0.1839"> 0.6</text></g></g></g></g><g class="title"><g stroke-width="0.0" stroke="none" fill="rgb(2%, 73%, 80%)" fill-opacity="1.0" font-size="0.12" text-anchor="middle"><text x="0" y="-0.2783">chart1</text></g></g><g class="title"><g stroke-width="0.0" stroke="none" fill="rgb(96%, 60%, 92%)" fill-opacity="1.0" font-size="0.12" text-anchor="middle"><text x="0" y="-0.4088">chart2</text></g></g></g></g><g class="hud"></g></svg>