<svg height="300.00" viewBox="-0.75000 -0.47911 1.5000 0.97911" width="459.60" xmlns="http://www.w3.org/2000/svg" xmlns:xlink="http://www.w3.org/1999/xlink"><style>svg {
  color-scheme: light dark;
}
{
  .canvas g, .title g, .axisbar g, .ticktext g, .tickglyph g, .ticklines g, .legendContent g text {
    fill: rgba(5%, 5%, 5%, 1.00);
  }
  .ticklines g, .tickglyph g, .legendBorder g {
    stroke: rgba(5%, 5%, 5%, 1.00);
  }
  .legendBorder g {
    fill: rgba(94%, 94%, 94%, 1.00);
  }
}
@media (prefers-color-scheme:dark) {
  .canvas g, .title g, .axisbar g, .ticktext g, .tickglyph g, .ticklines g, .legendContent g text {
    fill: rgba(94%, 94%, 94%, 1.00);
  }
  .ticklines g, .tickglyph g, .legendBorder g {
    stroke: rgba(94%, 94%, 94%, 1.00);
  }
  .legendBorder g {
    fill: rgba(5%, 5%, 5%, 1.00);
  }
}</style><g class="chart"><g class="cubic"><g fill="rgba(96%, 60%, 92%, 0.20)" stroke="rgba(0%, 0%, 0%, 0.00)" stroke-width="0.010000"><path d="M -0.7335,0.4835 C 0.2768,0.4835 -0.7335,-0.3675 0.2768,-0.3675"/></g><g fill="none" stroke="rgba(53%, 51%, 28%, 1.00)" stroke-width="0.0020000"><polyline points="-0.73350,0.48350 -0.70379,0.48325 -0.67527,0.48249 -0.64792,0.48125 -0.62170,0.47952 -0.59660,0.47733 -0.57259,0.47468 -0.54965,0.47157 -0.52775,0.46803 -0.50687,0.46406 -0.48698,0.45967 -0.46806,0.45487 -0.45009,0.44968 -0.43304,0.44409 -0.41689,0.43813 -0.40161,0.43180 -0.38718,0.42511 -0.37357,0.41808 -0.36076,0.41071 -0.34873,0.40301 -0.33745,0.39500 -0.32690,0.38668 -0.31705,0.37806 -0.30788,0.36916 -0.29937,0.35998 -0.29148,0.35053 -0.28420,0.34083 -0.27751,0.33089 -0.27137,0.32071 -0.26576,0.31030 -0.26067,0.29969 -0.25605,0.28886 -0.25190,0.27785 -0.24819,0.26664 -0.24489,0.25527 -0.24197,0.24373 -0.23942,0.23204 -0.23721,0.22021 -0.23532,0.20824 -0.23371,0.19615 -0.23238,0.18395 -0.23128,0.17165 -0.23040,0.15925 -0.22972,0.14677 -0.22921,0.13422 -0.22884,0.12161 -0.22859,0.10895 -0.22844,0.096251 -0.22837,0.083519 -0.22834,0.070766 -0.22834,0.058003 -0.22833,0.045239 -0.22830,0.032486 -0.22823,0.019754 -0.22808,0.0070518 -0.22783,-0.0056093 -0.22746,-0.018219 -0.22695,-0.030768 -0.22627,-0.043245 -0.22539,-0.055641 -0.22429,-0.067945 -0.22296,-0.080146 -0.22135,-0.092236 -0.21946,-0.10420 -0.21725,-0.11604 -0.21470,-0.12773 -0.21178,-0.13926 -0.20848,-0.15064 -0.20477,-0.16184 -0.20062,-0.17286 -0.19600,-0.18368 -0.19091,-0.19430 -0.18530,-0.20470 -0.17916,-0.21488 -0.17247,-0.22483 -0.16519,-0.23453 -0.15731,-0.24397 -0.14879,-0.25315 -0.13962,-0.26205 -0.12977,-0.27067 -0.11922,-0.27899 -0.10794,-0.28701 -0.095910,-0.29470 -0.083103,-0.30208 -0.069496,-0.30911 -0.055064,-0.31580 -0.039784,-0.32213 -0.023631,-0.32809 -0.0065803,-0.33367 0.011391,-0.33887 0.030309,-0.34367 0.050196,-0.34806 0.071078,-0.35203 0.092978,-0.35557 0.11592,-0.35867 0.13993,-0.36133 0.16503,-0.36352 0.19125,-0.36524 0.21860,-0.36649 0.24712,-0.36724 0.27683,-0.36749"/></g><g fill="rgba(2%, 73%, 80%, 0.20)" stroke="rgba(2%, 29%, 48%, 1.00)" stroke-width="0.0030000"><rect height="0.030000" width="0.030000" x="-0.74850" y="0.46850"/><rect height="0.030000" width="0.030000" x="0.26183" y="-0.38249"/></g><g fill="rgba(2%, 73%, 80%, 0.20)" stroke="rgba(2%, 29%, 48%, 1.00)" stroke-width="0.0030000"><circle cx="0.27683" cy="0.48350" r="0.015000"/><circle cx="-0.73350" cy="-0.36749" r="0.015000"/></g><g fill="rgba(2%, 73%, 80%, 0.05)" stroke="rgba(40%, 40%, 40%, 1.00)" stroke-width="0.0020000"><rect height="0.85099" width="1.0103" x="-0.73350" y="-0.36749"/></g></g></g><g class="hud"><g class="legend"><g class="legendBorder"><g fill="rgba(5%, 5%, 5%, 0.00)" stroke="rgba(5%, 5%, 5%, 1.00)" stroke-width="0.0025000"><rect height="0.38791" width="0.40817" x="0.33846" y="-0.28523"/></g></g><g class="legendContent"><g fill="rgba(5%, 5%, 5%, 1.00)" font-size="0.033678" stroke="none" stroke-width="0.0" text-anchor="start"><text x="0.35530" y="0.068640">Bounding Box</text></g><g fill="rgba(2%, 73%, 80%, 0.05)" stroke="rgba(40%, 40%, 40%, 1.00)" stroke-width="0.0025000"><rect height="0.042550" width="0.033678" x="0.66176" y="0.036728"/></g><g fill="rgba(5%, 5%, 5%, 1.00)" font-size="0.033678" stroke="none" stroke-width="0.0" text-anchor="start"><text x="0.35530" y="0.00056039">Path Control Point</text></g><g fill="rgba(2%, 73%, 80%, 0.20)" stroke="rgba(2%, 29%, 48%, 1.00)" stroke-width="0.0030000"><circle cx="0.67860" cy="-0.010077" r="0.025000"/></g><g fill="rgba(5%, 5%, 5%, 1.00)" font-size="0.033678" stroke="none" stroke-width="0.0" text-anchor="start"><text x="0.35530" y="-0.067519">Path Endpoints</text></g><g fill="rgba(2%, 73%, 80%, 0.20)" stroke="rgba(2%, 29%, 48%, 1.00)" stroke-width="0.0030000"><rect height="0.050000" width="0.050000" x="0.65360" y="-0.10316"/></g><g fill="rgba(5%, 5%, 5%, 1.00)" font-size="0.033678" stroke="none" stroke-width="0.0" text-anchor="start"><text x="0.35530" y="-0.13560">Path Chord</text></g><g fill="none" stroke="rgba(53%, 51%, 28%, 1.00)" stroke-width="0.0020000"><polyline points="0.66176,-0.14624 0.72912,-0.14624"/></g><g fill="rgba(5%, 5%, 5%, 1.00)" font-size="0.033678" stroke="none" stroke-width="0.0" text-anchor="start"><text x="0.35530" y="-0.20368">Path Fill</text></g><g fill="rgba(96%, 60%, 92%, 0.20)" stroke="rgba(0%, 0%, 0%, 0.00)" stroke-width="0.050000"><path d="M 0.6618,-0.2001 Q 0.7291,-0.1576 0.6954,-0.2427"/></g></g></g><g class="title"><g fill="rgba(5%, 5%, 5%, 1.00)" font-size="0.053884" stroke="none" stroke-width="0.0" text-anchor="middle"><text x="0.0026932" y="-0.43600">CubicPosition (Point 0 0) (Point 1 1) (Point 1 0) (Point 0 1)</text></g></g></g></svg>