<svg xmlns="http://www.w3.org/2000/svg" xmlns:xlink="http://www.w3.org/1999/xlink" width="455" height="300" viewBox="-0.7406 -0.4793 1.4866 0.9793"><style>svg {
  color-scheme: light dark;
}
{
  .canvas g, .title g, .axisbar g, .ticktext g, .tickglyph g, .ticklines g, .legendContent g text {
    fill: rgb(5%, 5%, 5%);
  }
  .ticklines g, .tickglyph g, .legendBorder g {
    stroke: rgb(5%, 5%, 5%);
  }
  .legendBorder g {
    fill: rgb(94%, 94%, 94%);
  }
}
@media (prefers-color-scheme:dark) {
  .canvas g, .title g, .axisbar g, .ticktext g, .tickglyph g, .ticklines g, .legendContent g text {
    fill: rgb(94%, 94%, 94%);
  }
  .ticklines g, .tickglyph g, .legendBorder g {
    stroke: rgb(94%, 94%, 94%);
  }
  .legendBorder g {
    fill: rgb(5%, 5%, 5%);
  }
}</style><g class="chart"><g class="cubic"><g stroke-width="0.0100" stroke="rgb(0%, 0%, 0%)" stroke-opacity="0" fill="rgb(96%, 60%, 92%)" fill-opacity="0.2"><path d="M -0.7210,0.4835 C 0.2620,0.4835 -0.7210,-0.3654 0.2620,-0.3654"/></g><g stroke-width="0.0020" stroke="rgb(53%, 51%, 28%)" stroke-opacity="1.0" fill="none"><polyline points="-0.7210,0.4835 -0.6921,0.4832 -0.6644,0.4825 -0.6378,0.4813 -0.6123,0.4795 -0.5878,0.4773 -0.5645,0.4747 -0.5422,0.4716 -0.5209,0.4681 -0.5005,0.4641 -0.4812,0.4597 -0.4628,0.4549 -0.4453,0.4498 -0.4287,0.4442 -0.4130,0.4382 -0.3981,0.4319 -0.3841,0.4253 -0.3708,0.4182 -0.3584,0.4109 -0.3467,0.4032 -0.3357,0.3952 -0.3254,0.3869 -0.3159,0.3783 -0.3069,0.3694 -0.2986,0.3603 -0.2910,0.3509 -0.2839,0.3412 -0.2774,0.3313 -0.2714,0.3211 -0.2659,0.3107 -0.2610,0.3001 -0.2565,0.2893 -0.2525,0.2783 -0.2489,0.2672 -0.2456,0.2558 -0.2428,0.2443 -0.2403,0.2327 -0.2382,0.2209 -0.2363,0.2089 -0.2348,0.1969 -0.2335,0.1847 -0.2324,0.1724 -0.2315,0.1600 -0.2309,0.1476 -0.2304,0.1351 -0.2300,0.1225 -0.2298,0.1099 -0.2296,0.0972 -0.2296,0.0845 -0.2295,0.0718 -0.2295,0.0590 -0.2295,0.0463 -0.2295,0.0336 -0.2294,0.0209 -0.2293,0.0082 -0.2290,-0.0044 -0.2287,-0.0170 -0.2282,-0.0295 -0.2275,-0.0420 -0.2267,-0.0543 -0.2256,-0.0666 -0.2243,-0.0788 -0.2227,-0.0908 -0.2209,-0.1028 -0.2187,-0.1146 -0.2163,-0.1262 -0.2134,-0.1377 -0.2102,-0.1491 -0.2066,-0.1603 -0.2026,-0.1712 -0.1981,-0.1820 -0.1931,-0.1926 -0.1877,-0.2030 -0.1817,-0.2132 -0.1752,-0.2231 -0.1681,-0.2328 -0.1604,-0.2422 -0.1521,-0.2513 -0.1432,-0.2602 -0.1336,-0.2688 -0.1234,-0.2771 -0.1124,-0.2851 -0.1007,-0.2928 -0.0882,-0.3001 -0.0750,-0.3072 -0.0609,-0.3138 -0.0461,-0.3202 -0.0304,-0.3261 -0.0138,-0.3317 0.0037,-0.3369 0.0221,-0.3416 0.0415,-0.3460 0.0618,-0.3500 0.0831,-0.3535 0.1054,-0.3566 0.1288,-0.3593 0.1532,-0.3614 0.1787,-0.3632 0.2053,-0.3644 0.2331,-0.3652 0.2620,-0.3654"/></g><g stroke-width="0.0030" stroke="rgb(2%, 29%, 48%)" stroke-opacity="1.0" fill="rgb(2%, 73%, 80%)" fill-opacity="0.2"><rect width="0.0300" height="0.0300" x="-0.7360" y="0.4685"/><rect width="0.0300" height="0.0300" x="0.2470" y="-0.3804"/></g><g stroke-width="0.0030" stroke="rgb(2%, 29%, 48%)" stroke-opacity="1.0" fill="rgb(2%, 73%, 80%)" fill-opacity="0.2"><circle cx="0.2620" cy="0.4835" r="0.0150"/><circle cx="-0.7210" cy="-0.3654" r="0.0150"/></g><g stroke-width="0.0020" stroke="rgb(40%, 40%, 40%)" stroke-opacity="1.0" fill="rgb(2%, 73%, 80%)" fill-opacity="0.05"><rect width="0.9830" height="0.8489" x="-0.7210" y="-0.3654"/></g></g></g><g class="hud"><g class="legend"><g class="legendBorder"><g stroke-width="0.0025" stroke="rgb(5%, 5%, 5%)" stroke-opacity="1.0" fill="rgb(5%, 5%, 5%)" fill-opacity="0"><rect width="0.4102" height="0.3997" x="0.3239" y="-0.2946"/></g></g><g class="legendContent"><g stroke-width="0.0" stroke="none" fill="rgb(5%, 5%, 5%)" fill-opacity="1.0" font-size="0.0338" text-anchor="start"><text x="0.3408" y="0.0700">Bounding Box</text></g><g stroke-width="0.0025" stroke="rgb(40%, 40%, 40%)" stroke-opacity="1.0" fill="rgb(2%, 73%, 80%)" fill-opacity="0.05"><rect width="0.0338" height="0.0438" x="0.6489" y="0.0371"/></g><g stroke-width="0.0" stroke="none" fill="rgb(5%, 5%, 5%)" fill-opacity="1.0" font-size="0.0338" text-anchor="start"><text x="0.3408" y="-0.0001">Path Control Point</text></g><g stroke-width="0.0030" stroke="rgb(2%, 29%, 48%)" stroke-opacity="1.0" fill="rgb(2%, 73%, 80%)" fill-opacity="0.2"><circle cx="0.6658" cy="-0.0111" r="0.0250"/></g><g stroke-width="0.0" stroke="none" fill="rgb(5%, 5%, 5%)" fill-opacity="1.0" font-size="0.0338" text-anchor="start"><text x="0.3408" y="-0.0703">Path Endpoints</text></g><g stroke-width="0.0030" stroke="rgb(2%, 29%, 48%)" stroke-opacity="1.0" fill="rgb(2%, 73%, 80%)" fill-opacity="0.2"><rect width="0.0500" height="0.0500" x="0.6408" y="-0.1063"/></g><g stroke-width="0.0" stroke="none" fill="rgb(5%, 5%, 5%)" fill-opacity="1.0" font-size="0.0338" text-anchor="start"><text x="0.3408" y="-0.1405">Path Chord</text></g><g stroke-width="0.0020" stroke="rgb(53%, 51%, 28%)" stroke-opacity="1.0" fill="none"><polyline points="0.6489,-0.1514 0.7166,-0.1514"/></g><g stroke-width="0.0" stroke="none" fill="rgb(5%, 5%, 5%)" fill-opacity="1.0" font-size="0.0338" text-anchor="start"><text x="0.3408" y="-0.2106">Path Fill</text></g><g stroke-width="0.0500" stroke="rgb(0%, 0%, 0%)" stroke-opacity="0" fill="rgb(96%, 60%, 92%)" fill-opacity="0.2"><path d="M 0.6489,-0.2070 Q 0.7166,-0.1631 0.6827,-0.2508"/></g></g></g><g class="title"><g stroke-width="0.0" stroke="none" fill="rgb(5%, 5%, 5%)" fill-opacity="1.0" font-size="0.0542" text-anchor="middle"><text x="0.0027" y="-0.436">CubicPosition (Point 0 0) (Point 1 1) (Point 1 0) (Point 0 1)</text></g></g></g></svg>