<svg xmlns="http://www.w3.org/2000/svg" height="573.375" viewBox="-0.7225750000000001 -2.23175 3.310075 2.76925" width="674.2724999999999" xmlns:xlink="http://www.w3.org/1999/xlink"><g stroke-opacity="0.0" fill-opacity="2.5e-2" stroke="#000000" stroke-width="0.0" fill="#808080"><rect height="1.8" width="1.9999999999999998" x="0.0" y="-1.8"/></g><g stroke-opacity="5.0e-2" stroke="#808080" stroke-width="5.0e-3" fill="none"><polyline points="0.0,-1.3877787807814457e-17
1.9999999999999998,-1.3877787807814457e-17"/></g><g stroke-opacity="5.0e-2" stroke="#808080" stroke-width="5.0e-3" fill="none"><polyline points="0.0,-0.20000000000000004
1.9999999999999998,-0.20000000000000004"/></g><g stroke-opacity="5.0e-2" stroke="#808080" stroke-width="5.0e-3" fill="none"><polyline points="0.0,-0.4
1.9999999999999998,-0.4"/></g><g stroke-opacity="5.0e-2" stroke="#808080" stroke-width="5.0e-3" fill="none"><polyline points="0.0,-0.6000000000000002
1.9999999999999998,-0.6000000000000002"/></g><g stroke-opacity="5.0e-2" stroke="#808080" stroke-width="5.0e-3" fill="none"><polyline points="0.0,-0.8000000000000002
1.9999999999999998,-0.8000000000000002"/></g><g stroke-opacity="5.0e-2" stroke="#808080" stroke-width="5.0e-3" fill="none"><polyline points="0.0,-1.0000000000000002
1.9999999999999998,-1.0000000000000002"/></g><g stroke-opacity="5.0e-2" stroke="#808080" stroke-width="5.0e-3" fill="none"><polyline points="0.0,-1.2000000000000002
1.9999999999999998,-1.2000000000000002"/></g><g stroke-opacity="5.0e-2" stroke="#808080" stroke-width="5.0e-3" fill="none"><polyline points="0.0,-1.4000000000000004
1.9999999999999998,-1.4000000000000004"/></g><g stroke-opacity="5.0e-2" stroke="#808080" stroke-width="5.0e-3" fill="none"><polyline points="0.0,-1.6
1.9999999999999998,-1.6"/></g><g stroke-opacity="5.0e-2" stroke="#808080" stroke-width="5.0e-3" fill="none"><polyline points="0.0,-1.8
1.9999999999999998,-1.8"/></g><g fill-opacity="1.0" font-size="5.0e-2" stroke="none" stroke-width="0.0" fill="#808080" text-anchor="end"><text x="-0.24757500000000005" y="1.4499999999999999e-2">0</text></g><g fill-opacity="1.0" font-size="5.0e-2" stroke="none" stroke-width="0.0" fill="#808080" text-anchor="end"><text x="-0.24757500000000005" y="-0.18549999999999997">0.2</text></g><g fill-opacity="1.0" font-size="5.0e-2" stroke="none" stroke-width="0.0" fill="#808080" text-anchor="end"><text x="-0.24757500000000005" y="-0.38550000000000006">0.4</text></g><g fill-opacity="1.0" font-size="5.0e-2" stroke="none" stroke-width="0.0" fill="#808080" text-anchor="end"><text x="-0.24757500000000005" y="-0.5855000000000001">0.6</text></g><g fill-opacity="1.0" font-size="5.0e-2" stroke="none" stroke-width="0.0" fill="#808080" text-anchor="end"><text x="-0.24757500000000005" y="-0.7855000000000002">0.8</text></g><g fill-opacity="1.0" font-size="5.0e-2" stroke="none" stroke-width="0.0" fill="#808080" text-anchor="end"><text x="-0.24757500000000005" y="-0.9855000000000004">1</text></g><g fill-opacity="1.0" font-size="5.0e-2" stroke="none" stroke-width="0.0" fill="#808080" text-anchor="end"><text x="-0.24757500000000005" y="-1.1855000000000002">1.2</text></g><g fill-opacity="1.0" font-size="5.0e-2" stroke="none" stroke-width="0.0" fill="#808080" text-anchor="end"><text x="-0.24757500000000005" y="-1.3855000000000004">1.4</text></g><g fill-opacity="1.0" font-size="5.0e-2" stroke="none" stroke-width="0.0" fill="#808080" text-anchor="end"><text x="-0.24757500000000005" y="-1.5855000000000001">1.6</text></g><g fill-opacity="1.0" font-size="5.0e-2" stroke="none" stroke-width="0.0" fill="#808080" text-anchor="end"><text x="-0.24757500000000005" y="-1.7855">1.8</text></g><g stroke-opacity="1.0" fill-opacity="1.0" stroke="#808080" stroke-width="5.0e-3" fill="#808080"><g transform="rotate(-90.0, -0.21500000000000002, -1.3877787807814457e-17)"><polyline points="-0.21500000000000002,1.4999999999999986e-2
-0.21500000000000002,-1.5000000000000013e-2"/></g><g transform="rotate(-90.0, -0.21500000000000002, -0.20000000000000004)"><polyline points="-0.21500000000000002,-0.18500000000000005
-0.21500000000000002,-0.21500000000000002"/></g><g transform="rotate(-90.0, -0.21500000000000002, -0.4)"><polyline points="-0.21500000000000002,-0.385
-0.21500000000000002,-0.41500000000000004"/></g><g transform="rotate(-90.0, -0.21500000000000002, -0.6000000000000002)"><polyline points="-0.21500000000000002,-0.5850000000000002
-0.21500000000000002,-0.6150000000000002"/></g><g transform="rotate(-90.0, -0.21500000000000002, -0.8000000000000002)"><polyline points="-0.21500000000000002,-0.7850000000000001
-0.21500000000000002,-0.8150000000000002"/></g><g transform="rotate(-90.0, -0.21500000000000002, -1.0000000000000002)"><polyline points="-0.21500000000000002,-0.9850000000000002
-0.21500000000000002,-1.0150000000000001"/></g><g transform="rotate(-90.0, -0.21500000000000002, -1.2000000000000002)"><polyline points="-0.21500000000000002,-1.1850000000000003
-0.21500000000000002,-1.215"/></g><g transform="rotate(-90.0, -0.21500000000000002, -1.4000000000000004)"><polyline points="-0.21500000000000002,-1.3850000000000005
-0.21500000000000002,-1.4150000000000003"/></g><g transform="rotate(-90.0, -0.21500000000000002, -1.6)"><polyline points="-0.21500000000000002,-1.5850000000000002
-0.21500000000000002,-1.615"/></g><g transform="rotate(-90.0, -0.21500000000000002, -1.8)"><polyline points="-0.21500000000000002,-1.7850000000000001
-0.21500000000000002,-1.815"/></g></g><g stroke-opacity="1.0" fill-opacity="1.0" stroke="#808080" stroke-width="0.0" fill="#808080"><rect height="1.8" width="5.0000000000000044e-3" x="-0.2025" y="-1.8"/></g><g stroke-opacity="5.0e-2" stroke="#808080" stroke-width="5.0e-3" fill="none"><polyline points="0.0,-1.3877787807814457e-17
0.0,-1.8"/></g><g stroke-opacity="5.0e-2" stroke="#808080" stroke-width="5.0e-3" fill="none"><polyline points="0.2,-1.3877787807814457e-17
0.2,-1.8"/></g><g stroke-opacity="5.0e-2" stroke="#808080" stroke-width="5.0e-3" fill="none"><polyline points="0.39999999999999997,-1.3877787807814457e-17
0.39999999999999997,-1.8"/></g><g stroke-opacity="5.0e-2" stroke="#808080" stroke-width="5.0e-3" fill="none"><polyline points="0.6000000000000001,-1.3877787807814457e-17
0.6000000000000001,-1.8"/></g><g stroke-opacity="5.0e-2" stroke="#808080" stroke-width="5.0e-3" fill="none"><polyline points="0.8,-1.3877787807814457e-17
0.8,-1.8"/></g><g stroke-opacity="5.0e-2" stroke="#808080" stroke-width="5.0e-3" fill="none"><polyline points="1.0,-1.3877787807814457e-17
1.0,-1.8"/></g><g stroke-opacity="5.0e-2" stroke="#808080" stroke-width="5.0e-3" fill="none"><polyline points="1.2000000000000002,-1.3877787807814457e-17
1.2000000000000002,-1.8"/></g><g stroke-opacity="5.0e-2" stroke="#808080" stroke-width="5.0e-3" fill="none"><polyline points="1.4,-1.3877787807814457e-17
1.4,-1.8"/></g><g stroke-opacity="5.0e-2" stroke="#808080" stroke-width="5.0e-3" fill="none"><polyline points="1.6,-1.3877787807814457e-17
1.6,-1.8"/></g><g stroke-opacity="5.0e-2" stroke="#808080" stroke-width="5.0e-3" fill="none"><polyline points="1.8,-1.3877787807814457e-17
1.8,-1.8"/></g><g stroke-opacity="5.0e-2" stroke="#808080" stroke-width="5.0e-3" fill="none"><polyline points="1.9999999999999998,-1.3877787807814457e-17
1.9999999999999998,-1.8"/></g><g fill-opacity="1.0" font-size="5.0e-2" stroke="none" stroke-width="0.0" fill="#808080" text-anchor="middle"><text x="0.0" y="0.11124999999999999">0</text></g><g fill-opacity="1.0" font-size="5.0e-2" stroke="none" stroke-width="0.0" fill="#808080" text-anchor="middle"><text x="0.2" y="0.11124999999999999">0.2</text></g><g fill-opacity="1.0" font-size="5.0e-2" stroke="none" stroke-width="0.0" fill="#808080" text-anchor="middle"><text x="0.39999999999999997" y="0.11124999999999999">0.4</text></g><g fill-opacity="1.0" font-size="5.0e-2" stroke="none" stroke-width="0.0" fill="#808080" text-anchor="middle"><text x="0.6000000000000001" y="0.11124999999999999">0.6</text></g><g fill-opacity="1.0" font-size="5.0e-2" stroke="none" stroke-width="0.0" fill="#808080" text-anchor="middle"><text x="0.8" y="0.11124999999999999">0.8</text></g><g fill-opacity="1.0" font-size="5.0e-2" stroke="none" stroke-width="0.0" fill="#808080" text-anchor="middle"><text x="1.0" y="0.11124999999999999">1</text></g><g fill-opacity="1.0" font-size="5.0e-2" stroke="none" stroke-width="0.0" fill="#808080" text-anchor="middle"><text x="1.2000000000000002" y="0.11124999999999999">1.2</text></g><g fill-opacity="1.0" font-size="5.0e-2" stroke="none" stroke-width="0.0" fill="#808080" text-anchor="middle"><text x="1.4" y="0.11124999999999999">1.4</text></g><g fill-opacity="1.0" font-size="5.0e-2" stroke="none" stroke-width="0.0" fill="#808080" text-anchor="middle"><text x="1.6" y="0.11124999999999999">1.6</text></g><g fill-opacity="1.0" font-size="5.0e-2" stroke="none" stroke-width="0.0" fill="#808080" text-anchor="middle"><text x="1.8" y="0.11124999999999999">1.8</text></g><g fill-opacity="1.0" font-size="5.0e-2" stroke="none" stroke-width="0.0" fill="#808080" text-anchor="middle"><text x="1.9999999999999998" y="0.11124999999999999">2</text></g><g stroke-opacity="1.0" fill-opacity="1.0" stroke="#808080" stroke-width="5.0e-3" fill="#808080"><polyline points="0.0,4.2499999999999996e-2
0.0,1.2499999999999997e-2"/><polyline points="0.2,4.2499999999999996e-2
0.2,1.2499999999999997e-2"/><polyline points="0.39999999999999997,4.2499999999999996e-2
0.39999999999999997,1.2499999999999997e-2"/><polyline points="0.6000000000000001,4.2499999999999996e-2
0.6000000000000001,1.2499999999999997e-2"/><polyline points="0.8,4.2499999999999996e-2
0.8,1.2499999999999997e-2"/><polyline points="1.0,4.2499999999999996e-2
1.0,1.2499999999999997e-2"/><polyline points="1.2000000000000002,4.2499999999999996e-2
1.2000000000000002,1.2499999999999997e-2"/><polyline points="1.4,4.2499999999999996e-2
1.4,1.2499999999999997e-2"/><polyline points="1.6,4.2499999999999996e-2
1.6,1.2499999999999997e-2"/><polyline points="1.8,4.2499999999999996e-2
1.8,1.2499999999999997e-2"/><polyline points="1.9999999999999998,4.2499999999999996e-2
1.9999999999999998,1.2499999999999997e-2"/></g><g stroke-opacity="1.0" fill-opacity="1.0" stroke="#808080" stroke-width="0.0" fill="#808080"><rect height="5.000000000000018e-3" width="1.9999999999999998" x="0.0" y="9.999999999999981e-3"/></g><g stroke-opacity="0.0" fill-opacity="0.1" stroke="#000000" stroke-width="1.0e-2" fill="#e31a1c"><path d="M 0.39999999999999997,-0.30000000000000004 C 0.8999999999999999,-1.3000000000000003 0.9500000000000002,-1.7000000000000004 1.0,-1.0000000000000002 L 0.39999999999999997,-0.30000000000000004"/></g><g stroke-opacity="1.0" stroke="#1f78b4" stroke-width="2.0e-3" fill="none"><polyline points="0.39999999999999997,-0.30000000000000004
0.41486545,-0.32981949999999993
0.4294636,-0.35927600000000004
0.44379715000000003,-0.38836650000000006
0.4578688,-0.417088
0.4716812499999999,-0.44543750000000004
0.48523719999999987,-0.47341200000000005
0.49853935,-0.5010085000000002
0.5115904,-0.5282240000000001
0.52439305,-0.5550555000000001
0.53695,-0.5815000000000002
0.5492639499999998,-0.6075545
0.5613375999999999,-0.633216
0.57317365,-0.6584815000000003
0.5847747999999999,-0.6833480000000002
0.5961437499999998,-0.7078125
0.6072831999999997,-0.7318720000000001
0.61819585,-0.7555235000000001
0.6288843999999998,-0.7787640000000001
0.63935155,-0.8015905000000002
0.6496000000000002,-0.8240000000000003
0.6596324499999999,-0.8459895000000002
0.6694515999999999,-0.867556
0.67906015,-0.8886965000000002
0.6884607999999999,-0.9094080000000001
0.6976562499999999,-0.9296875000000001
0.7066492,-0.9495320000000002
0.71544235,-0.9689385
0.7240384,-0.9879040000000002
0.7324400499999999,-1.0064255000000002
0.7406499999999998,-1.0245
0.7486709499999997,-1.0421244999999997
0.7565055999999999,-1.0592959999999998
0.7641566499999999,-1.0760115000000003
0.7716267999999997,-1.0922679999999998
0.7789187499999999,-1.1080625
0.7860351999999999,-1.1233920000000006
0.7929788499999999,-1.1382535000000003
0.7997524,-1.1526440000000002
0.8063585499999999,-1.1665605000000001
0.8128000000000002,-1.1800000000000004
0.81907945,-1.1929595000000002
0.8251996000000001,-1.2054360000000004
0.8311631500000001,-1.2174265000000002
0.8369728000000001,-1.2289280000000005
0.8426312500000002,-1.2399375000000004
0.8481411999999999,-1.2504520000000003
0.85350535,-1.2604685000000002
0.8587264000000001,-1.2699840000000007
0.8638070499999999,-1.2789955000000002
0.8687499999999999,-1.2875000000000003
0.8735579499999999,-1.2954945000000004
0.8782336000000002,-1.3029760000000006
0.88277965,-1.3099415000000003
0.8871988,-1.3163880000000001
0.89149375,-1.3223125000000004
0.8956671999999999,-1.3277120000000002
0.8997218499999999,-1.3325835000000004
0.9036604000000001,-1.3369240000000004
0.9074855499999999,-1.3407305
0.9112,-1.3440000000000003
0.9148064499999997,-1.3467295000000001
0.9183075999999999,-1.3489160000000002
0.9217061499999999,-1.3505565000000004
0.9250048,-1.3516480000000006
0.9282062500000001,-1.3521875000000003
0.9313132000000002,-1.3521720000000006
0.9343283499999999,-1.3515985000000004
0.9372544,-1.3504640000000006
0.9400940500000001,-1.3487655
0.9428499999999997,-1.3465
0.94552495,-1.3436645
0.9481215999999997,-1.3402560000000001
0.9506426499999998,-1.3362715
0.9530908,-1.3317080000000003
0.9554687500000001,-1.3265625000000003
0.9577792,-1.3208320000000002
0.9600248499999999,-1.3145135000000001
0.9622084,-1.3076040000000004
0.9643325500000002,-1.3001005000000005
0.9664000000000001,-1.2920000000000003
0.9684134500000001,-1.2832995
0.9703755999999999,-1.2739960000000001
0.9722891499999999,-1.2640865
0.9741567999999998,-1.2535680000000002
0.97598125,-1.2424375
0.9777651999999999,-1.230692
0.9795113500000001,-1.2183285000000004
0.9812223999999998,-1.2053440000000002
0.9829010499999999,-1.1917355000000003
0.98455,-1.1775000000000002
0.9861719499999999,-1.1626345000000002
0.9877695999999998,-1.147136
0.98934565,-1.1310015000000002
0.9909028,-1.114228
0.9924437499999998,-1.0968124999999997
0.9939712,-1.0787520000000002
0.9954878499999997,-1.0600435000000001
0.9969964,-1.040684
0.9984995499999998,-1.0206705000000005
1.0,-1.0000000000000002"/></g><g stroke-opacity="0.8" fill-opacity="0.3" stroke="#1f78b4" stroke-width="3.0e-3" fill="#a6cee3"><rect height="3.0000000000000027e-2" width="3.0000000000000027e-2" x="0.38499999999999995" y="-0.31500000000000006"/><rect height="2.9999999999999916e-2" width="2.9999999999999916e-2" x="0.985" y="-1.0150000000000001"/><rect height="2.9999999999999805e-2" width="3.0000000000000027e-2" x="0.8849999999999999" y="-1.3150000000000004"/><rect height="2.9999999999999805e-2" width="3.0000000000000027e-2" x="0.9349999999999999" y="-1.7150000000000003"/><rect height="2.9999999999999805e-2" width="3.0000000000000027e-2" x="0.91477136875" y="-1.3672493125000005"/></g><g stroke-opacity="1.0" fill-opacity="0.1" stroke="#808080" stroke-width="2.0e-3" fill="#6666cc"><rect height="1.052249524901044" width="0.6000000000000001" x="0.39999999999999997" y="-1.352249524901044"/></g><g fill-opacity="1.0" font-size="5.0e-2" stroke="none" stroke-width="0.0" fill="#333333" text-anchor="middle"><text x="1.0" y="-1.6">M 0.4,-0.3 C 0.8999999999999999,-1.3 0.9500000000000002,-1.7000000000000002 1.0,-1.0 L 0.4,-0.3</text></g></svg>