<svg width="300.0" xmlns:xlink="http://www.w3.org/1999/xlink" xmlns="http://www.w3.org/2000/svg" viewBox="-0.5365 -0.5365 1.073 1.073" height="300.0"><style>svg {
  color-scheme: light dark;
}
@media (prefers-color-scheme:dark) {
  svg {
    background-color: #f0f0f0;
  }
}</style><g stroke-opacity="0.0" fill="#1f78b5" stroke="#000000" stroke-width="1.0e-2" fill-opacity="0.1"></g><g stroke-opacity="1.0" fill="none" stroke="#a6cfe3" stroke-width="2.0e-3"><polyline points="-0.5,0.5"/><polyline points="-0.470596,0.499702"/><polyline points="-0.442368,0.498816"/><polyline points="-0.415292,0.497354"/><polyline points="-0.389344,0.495328"/><polyline points="-0.36450000000000005,0.49275"/><polyline points="-0.34073600000000004,0.48963199999999996"/><polyline points="-0.318028,0.4859859999999999"/><polyline points="-0.29635199999999995,0.481824"/><polyline points="-0.275684,0.477158"/><polyline points="-0.256,0.472"/><polyline points="-0.237276,0.46636199999999994"/><polyline points="-0.21948800000000002,0.460256"/><polyline points="-0.20261199999999996,0.453694"/><polyline points="-0.1866239999999999,0.446688"/><polyline points="-0.17150000000000004,0.43925000000000003"/><polyline points="-0.15721600000000008,0.431392"/><polyline points="-0.14374799999999993,0.423126"/><polyline points="-0.13107199999999997,0.41446399999999994"/><polyline points="-0.11916399999999994,0.405418"/><polyline points="-0.10799999999999987,0.39599999999999996"/><polyline points="-9.755599999999992e-2,0.38622199999999995"/><polyline points="-8.780799999999994e-2,0.376096"/><polyline points="-7.873200000000002e-2,0.365634"/><polyline points="-7.030399999999992e-2,0.35484799999999994"/><polyline points="-6.2499999999999944e-2,0.34375"/><polyline points="-5.529600000000001e-2,0.332352"/><polyline points="-4.866799999999999e-2,0.32066599999999995"/><polyline points="-4.259199999999991e-2,0.3087039999999999"/><polyline points="-3.7043999999999966e-2,0.296478"/><polyline points="-3.2000000000000084e-2,0.28400000000000003"/><polyline points="-2.743600000000007e-2,0.271282"/><polyline points="-2.3328000000000015e-2,0.258336"/><polyline points="-1.9652000000000003e-2,0.245174"/><polyline points="-1.638400000000012e-2,0.23180799999999996"/><polyline points="-1.3500000000000012e-2,0.21824999999999994"/><polyline points="-1.097599999999993e-2,0.20451200000000003"/><polyline points="-8.787999999999907e-3,0.19060599999999994"/><polyline points="-6.911999999999974e-3,0.17654399999999998"/><polyline points="-5.323999999999995e-3,0.16233799999999998"/><polyline points="-3.9999999999998925e-3,0.14799999999999996"/><polyline points="-2.915999999999974e-3,0.13354199999999994"/><polyline points="-2.0479999999998832e-3,0.11897600000000003"/><polyline points="-1.3719999999999288e-3,0.10431399999999996"/><polyline points="-8.639999999999204e-4,8.956799999999998e-2"/><polyline points="-4.999999999998894e-4,7.474999999999993e-2"/><polyline points="-2.5599999999992296e-4,5.9871999999999925e-2"/><polyline points="-1.0799999999988596e-4,4.494599999999993e-2"/><polyline points="-3.199999999992098e-5,2.998400000000001e-2"/><polyline points="-4.000000000004e-6,1.4997999999999956e-2"/><polyline points="0.0,-0.0"/><polyline points="4.000000000115023e-6,-1.4997999999999956e-2"/><polyline points="3.2000000000032e-5,-2.998400000000001e-2"/><polyline points="1.0799999999999699e-4,-4.494600000000004e-2"/><polyline points="2.5599999999992296e-4,-5.9872000000000036e-2"/><polyline points="5.00000000000056e-4,-7.47500000000001e-2"/><polyline points="8.639999999999759e-4,-8.956800000000009e-2"/><polyline points="1.3720000000000399e-3,-0.10431400000000013"/><polyline points="2.0480000000000498e-3,-0.11897600000000008"/><polyline points="2.9160000000000297e-3,-0.13354199999999994"/><polyline points="4.0000000000000036e-3,-0.14800000000000002"/><polyline points="5.323999999999995e-3,-0.16233799999999998"/><polyline points="6.912000000000029e-3,-0.17654400000000015"/><polyline points="8.788000000000018e-3,-0.19060600000000005"/><polyline points="1.0976000000000097e-2,-0.20451200000000003"/><polyline points="1.3500000000000068e-2,-0.21825000000000006"/><polyline points="1.6383999999999954e-2,-0.23180800000000001"/><polyline points="1.9652000000000114e-2,-0.245174"/><polyline points="2.3328000000000015e-2,-0.2583360000000001"/><polyline points="2.7436000000000016e-2,-0.271282"/><polyline points="3.200000000000003e-2,-0.28400000000000003"/><polyline points="3.704400000000019e-2,-0.296478"/><polyline points="4.2592000000000074e-2,-0.308704"/><polyline points="4.8667999999999934e-2,-0.3206659999999999"/><polyline points="5.529600000000001e-2,-0.332352"/><polyline points="6.25e-2,-0.34375"/><polyline points="7.030400000000003e-2,-0.35484800000000016"/><polyline points="7.873200000000002e-2,-0.3656340000000001"/><polyline points="8.7808e-2,-0.376096"/><polyline points="9.755600000000009e-2,-0.3862220000000002"/><polyline points="0.1080000000000001,-0.39600000000000013"/><polyline points="0.11916400000000016,-0.40541800000000006"/><polyline points="0.13107200000000008,-0.41446400000000005"/><polyline points="0.1437480000000002,-0.4231260000000001"/><polyline points="0.15721600000000002,-0.4313919999999999"/><polyline points="0.1715000000000001,-0.4392499999999999"/><polyline points="0.186624,-0.446688"/><polyline points="0.20261200000000001,-0.45369400000000015"/><polyline points="0.21948800000000002,-0.460256"/><polyline points="0.23727600000000004,-0.46636200000000017"/><polyline points="0.2560000000000002,-0.4720000000000001"/><polyline points="0.27568400000000004,-0.4771580000000001"/><polyline points="0.29635200000000006,-0.48182400000000003"/><polyline points="0.3180280000000001,-0.48598600000000003"/><polyline points="0.34073600000000015,-0.48963200000000007"/><polyline points="0.36450000000000016,-0.4927499999999999"/><polyline points="0.38934400000000013,-0.4953280000000001"/><polyline points="0.415292,-0.4973540000000001"/><polyline points="0.4423679999999999,-0.4988159999999999"/><polyline points="0.470596,-0.4997020000000001"/><polyline points="0.5,-0.5"/></g><g stroke-opacity="1.0" fill="#a6cfe3" stroke="#1f78b5" stroke-width="3.0e-3" fill-opacity="1.0"><rect width="3.0000000000000027e-2" x="-0.515" y="0.485" height="3.0000000000000027e-2"/><rect width="3.0000000000000027e-2" x="0.485" y="-0.515" height="3.0000000000000027e-2"/><rect width="3.0000000000000027e-2" x="0.485" y="0.485" height="3.0000000000000027e-2"/><rect width="3.0000000000000027e-2" x="-0.515" y="-0.515" height="3.0000000000000027e-2"/><rect width="3.0e-2" x="9.30000000000001e-2" y="-0.41100000000000014" height="3.0000000000000027e-2"/></g><g stroke-opacity="1.0" fill="#6666cc" stroke="#808080" stroke-width="2.0e-3" fill-opacity="0.1"><rect width="1.0" x="-0.5" y="-0.5" height="1.0"/></g></svg>