<svg width="300.0" xmlns:xlink="http://www.w3.org/1999/xlink" xmlns="http://www.w3.org/2000/svg" viewBox="-3.6500000000000005e-2 -1.0365 1.073 1.073" height="300.0"><style>svg {
  color-scheme: light dark;
}
{
  .canvas g, .title g, .axisbar g, .ticktext g, .tickglyph g, .ticklines g, .legendContent g text {
    fill: #0d0d0d;
  }
  .ticklines g, .tickglyph g, .legendBorder g {
    stroke: #0d0d0d;
  }
}
@media (prefers-color-scheme:dark) {
  .canvas g, .title g, .axisbar g, .ticktext g, .tickglyph g, .ticklines g, .legendContent g text {
    fill: #f0f0f0;
  }
  .ticklines g, .tickglyph g, .legendBorder g {
    stroke: #f0f0f0;
  }
}</style><g class="cubic"><g stroke-opacity="0.0" fill="#1f78b5" stroke="#000000" stroke-width="1.0e-2" fill-opacity="0.1"><path d="M 0,0 C 1.0,0 0,-1.0 1.0,-1.0"/></g><g stroke-opacity="1.0" fill="none" stroke="#a6cfe3" stroke-width="2.0e-3"><polyline points="0.0,-0.0
2.9404e-2,-2.9800000000000003e-4
5.7631999999999996e-2,-1.184e-3
8.470799999999999e-2,-2.6460000000000003e-3
0.110656,-4.672e-3
0.13549999999999998,-7.25e-3
0.159264,-1.0367999999999999e-2
0.181972,-1.4014000000000002e-2
0.20364800000000002,-1.8176e-2
0.22431600000000002,-2.2841999999999998e-2
0.24400000000000002,-2.8000000000000008e-2
0.262724,-3.3637999999999994e-2
0.280512,-3.9744e-2
0.29738800000000004,-4.6306e-2
0.31337600000000004,-5.331200000000001e-2
0.32849999999999996,-6.075e-2
0.3427839999999999,-6.8608e-2
0.356252,-7.687400000000001e-2
0.36892800000000003,-8.5536e-2
0.38083600000000006,-9.458200000000001e-2
0.3920000000000001,-0.10400000000000004
0.4024440000000001,-0.11377799999999999
0.412192,-0.123904
0.421268,-0.134366
0.429696,-0.145152
0.4375,-0.15625
0.44470399999999993,-0.16764800000000002
0.45133199999999996,-0.17933400000000002
0.45740800000000004,-0.19129600000000002
0.462956,-0.20352199999999998
0.4679999999999999,-0.21599999999999997
0.47256399999999993,-0.228718
0.47667199999999993,-0.24166400000000005
0.48034799999999994,-0.254826
0.4836159999999999,-0.26819200000000004
0.4865,-0.28175
0.489024,-0.295488
0.49121200000000004,-0.309394
0.49308799999999997,-0.32345599999999997
0.49467599999999995,-0.337662
0.49600000000000005,-0.35200000000000004
0.4970840000000001,-0.36645799999999995
0.4979520000000001,-0.381024
0.49862800000000007,-0.395686
0.499136,-0.410432
0.4995000000000001,-0.4252500000000001
0.4997440000000001,-0.4401280000000001
0.499892,-0.455054
0.4999680000000001,-0.470016
0.499996,-0.485002
0.5,-0.5
0.500004,-0.514998
0.500032,-0.529984
0.500108,-0.544946
0.5002559999999999,-0.559872
0.5005000000000001,-0.5747500000000001
0.500864,-0.5895680000000001
0.501372,-0.6043139999999999
0.502048,-0.6189760000000001
0.502916,-0.6335419999999999
0.504,-0.648
0.505324,-0.6623379999999999
0.506912,-0.676544
0.508788,-0.690606
0.5109760000000001,-0.704512
0.5135000000000001,-0.71825
0.516384,-0.731808
0.519652,-0.745174
0.523328,-0.7583360000000001
0.527436,-0.7712819999999999
0.5319999999999999,-0.7839999999999999
0.5370440000000001,-0.796478
0.542592,-0.808704
0.5486679999999999,-0.8206659999999999
0.555296,-0.832352
0.5625,-0.84375
0.570304,-0.854848
0.578732,-0.865634
0.587808,-0.876096
0.5975560000000001,-0.8862220000000001
0.6080000000000001,-0.8960000000000001
0.6191640000000002,-0.9054180000000001
0.6310719999999999,-0.9144639999999999
0.643748,-0.923126
0.6572159999999999,-0.9313919999999999
0.6715,-0.9392499999999999
0.6866239999999999,-0.946688
0.702612,-0.953694
0.719488,-0.960256
0.737276,-0.966362
0.7560000000000001,-0.9720000000000001
0.775684,-0.977158
0.7963520000000001,-0.9818239999999999
0.8180280000000001,-0.985986
0.8407359999999999,-0.9896320000000001
0.8644999999999999,-0.99275
0.889344,-0.9953280000000001
0.915292,-0.9973540000000001
0.9423679999999999,-0.9988159999999999
0.9705959999999999,-0.999702
1.0,-1.0"/></g><g stroke-opacity="1.0" fill="#a6cfe3" stroke="#1f78b5" stroke-width="3.0e-3" fill-opacity="1.0"><rect width="3.0e-2" x="-1.5e-2" y="-1.5e-2" height="3.0e-2"/><rect width="2.9999999999999916e-2" x="0.985" y="-1.015" height="2.9999999999999916e-2"/><rect width="2.9999999999999916e-2" x="0.985" y="-1.5e-2" height="3.0e-2"/><rect width="3.0e-2" x="-1.5e-2" y="-1.015" height="2.9999999999999916e-2"/><rect width="3.0000000000000027e-2" x="0.5930000000000001" y="-0.9110000000000001" height="3.0000000000000027e-2"/></g><g stroke-opacity="1.0" fill="#6666cc" stroke="#808080" stroke-width="2.0e-3" fill-opacity="0.1"><rect width="1.0" x="0.0" y="-1.0" height="1.0"/></g></g><g class="hud"></g></svg>