<svg width="300.0" xmlns:xlink="http://www.w3.org/1999/xlink" xmlns="http://www.w3.org/2000/svg" viewBox="-0.520527105517909 -0.520527105517909 1.041054211035818 1.041054211035818" height="300.0"><style>svg {
  color-scheme: light dark;
}
@media (prefers-color-scheme:dark) {
  svg {
    background-color: #f0f0f0;
  }
}</style><g stroke-opacity="0.0" fill="#1f78b5" stroke="#000000" stroke-width="1.0e-2" fill-opacity="0.1"><path d="M -0.4840,0.4840 C 0.4840,0.4840 -0.4840,-0.4840 0.4840,-0.4840"/></g><g stroke-opacity="1.0" fill="none" stroke="#a6cfe3" stroke-width="2.0e-3"><polyline points="-0.48402710551790906,0.48402710551790906
-0.45556243949661185,0.48373862536302037
-0.42823620522749273,0.48288092933204263
-0.40202516940948696,0.4814656340755083
-0.3769060987415296,0.4795043562439497
-0.3528557599225557,0.4770087124878994
-0.32985091965150054,0.47399031945788966
-0.3078683446272991,0.47046079380445305
-0.28688480154888674,0.466431752178122
-0.26687705711519843,0.4619148112294289
-0.24782187802516942,0.4569215876089061
-0.22969603097773472,0.4514636979670862
-0.21247628267182966,0.44555275895450147
-0.19613939980638911,0.4392003872216844
-0.18066214908034844,0.4324181994191675
-0.1660212971926428,0.4252178121974831
-0.15219361084220723,0.4176108422071636
-0.13915585672797676,0.40960890609874157
-0.1268848015488867,0.4012236205227493
-0.11535721200387217,0.3924666021297193
-0.10454985479186824,0.3833494675701839
-9.443949661181017e-2,0.37388383349467574
-8.500290416263312e-2,0.364081316553727
-7.621684414327201e-2,0.3539535333978703
-6.80580832526621e-2,0.34351210067763793
-6.0503388189738605e-2,0.33276863504356247
-5.352952565343666e-2,0.32173475314617617
-4.71132623426912e-2,0.31042207163601165
-4.123136495643753e-2,0.29884220716360116
-3.586060019361087e-2,0.28700677637947725
-3.0977734753146247e-2,0.27492739593417237
-2.6559535333978757e-2,0.2626156824782188
-2.2582768635043604e-2,0.25008325266214904
-1.9024201355275938e-2,0.23734172313649565
-1.586060019361102e-2,0.22440271055179084
-1.3068731848983606e-2,0.21127783155856728
-1.0625363020329126e-2,0.19797870280735724
-8.507260406582784e-3,0.18451694094869314
-6.691190706679562e-3,0.17090416263310748
-5.153920619554775e-3,0.1571519845111326
-3.872216844143239e-3,0.14327202323330102
-2.8228460793803256e-3,0.12927589545014523
-1.982575024201183e-3,0.11517521781219753
-1.3281703775410714e-3,0.10098160696999031
-8.363988383349175e-4,8.670667957405614e-2
-4.840271055178147e-4,7.236205227492731e-2
-2.478218780250785e-4,5.795934172313638e-2
-1.0454985479185774e-4,4.351016456921586e-2
-3.097773475302379e-5,2.9026137463697976e-2
-3.872216844114096e-6,1.4518877057115243e-2
0.0,-0.0
3.872216844169607e-6,-1.4518877057115187e-2
3.0977734753245834e-5,-2.9026137463697976e-2
1.0454985479191325e-4,-4.351016456921597e-2
2.478218780250785e-4,-5.795934172313655e-2
4.840271055179812e-4,-7.236205227492754e-2
8.36398838334973e-4,-8.670667957405631e-2
1.3281703775411824e-3,-0.10098160696999026
1.982575024201405e-3,-0.11517521781219764
2.8228460793805477e-3,-0.12927589545014517
3.8722168441432947e-3,-0.14327202323330113
5.153920619554664e-3,-0.15715198451113255
6.691190706679673e-3,-0.17090416263310748
8.507260406582784e-3,-0.1845169409486932
1.0625363020329237e-2,-0.1979787028073573
1.3068731848983606e-2,-0.21127783155856739
1.5860600193610797e-2,-0.22440271055179095
1.9024201355275938e-2,-0.2373417231364957
2.2582768635043604e-2,-0.25008325266214926
2.65595353339787e-2,-0.26261568247821876
3.0977734753146136e-2,-0.27492739593417226
3.5860600193610925e-2,-0.28700677637947736
4.123136495643753e-2,-0.2988422071636012
4.71132623426912e-2,-0.31042207163601154
5.3529525653436605e-2,-0.3217347531461763
6.050338818973866e-2,-0.33276863504356247
6.805808325266216e-2,-0.34351210067763804
7.621684414327212e-2,-0.3539535333978704
8.500290416263312e-2,-0.3640813165537271
9.443949661181039e-2,-0.3738838334946758
0.10454985479186851,-0.3833494675701842
0.11535721200387239,-0.3924666021297194
0.1268848015488866,-0.4012236205227493
0.1391558567279768,-0.40960890609874157
0.15219361084220717,-0.4176108422071636
0.1660212971926428,-0.425217812197483
0.1806621490803485,-0.4324181994191675
0.19613939980638917,-0.43920038722168453
0.21247628267182972,-0.4455527589545015
0.22969603097773483,-0.4514636979670863
0.24782187802516953,-0.4569215876089062
0.2668770571151985,-0.4619148112294289
0.28688480154888685,-0.46643175217812194
0.3078683446272993,-0.47046079380445316
0.3298509196515005,-0.47399031945788983
0.3528557599225557,-0.47700871248789944
0.3769060987415296,-0.4795043562439497
0.40202516940948696,-0.48146563407550835
0.42823620522749273,-0.48288092933204263
0.4555624394966118,-0.48373862536302026
0.48402710551790906,-0.48402710551790906"/></g><g stroke-opacity="1.0" fill="#a6cfe3" stroke="#1f78b5" stroke-width="3.0e-3" fill-opacity="1.0"><rect width="3.0000000000000027e-2" x="-0.4990271055179091" y="0.46902710551790905" height="3.0000000000000027e-2"/><rect width="3.0000000000000027e-2" x="0.46902710551790905" y="-0.4990271055179091" height="3.0000000000000027e-2"/><rect width="3.0000000000000027e-2" x="0.46902710551790905" y="0.46902710551790905" height="3.0000000000000027e-2"/><rect width="3.0000000000000027e-2" x="-0.4990271055179091" y="-0.4990271055179091" height="3.0000000000000027e-2"/><rect width="3.0e-2" x="8.954985479186851e-2" y="-0.3983494675701842" height="3.0000000000000027e-2"/></g><g stroke-opacity="1.0" fill="#6666cc" stroke="#808080" stroke-width="2.0e-3" fill-opacity="0.1"><rect width="0.9680542110358181" x="-0.48402710551790906" y="-0.48402710551790906" height="0.9680542110358181"/></g></svg>