<svg xmlns="http://www.w3.org/2000/svg" height="518.3249999999999" viewBox="-0.551575 -2.0462499999999997 2.9640750000000002 2.60025" width="622.9725" xmlns:xlink="http://www.w3.org/1999/xlink"><g stroke-opacity="0.0" fill-opacity="2.5e-2" stroke="#000000" stroke-width="0.0" fill="#808080"><rect height="1.5999999999999999" width="2.0" x="0.0" y="-1.5999999999999999"/></g><g stroke-opacity="5.0e-2" stroke="#808080" stroke-width="5.0e-3" fill="none"><polyline points="0.0,2.7755575615628914e-17
2.0,2.7755575615628914e-17"/></g><g stroke-opacity="5.0e-2" stroke="#808080" stroke-width="5.0e-3" fill="none"><polyline points="0.0,-0.19999999999999993
2.0,-0.19999999999999993"/></g><g stroke-opacity="5.0e-2" stroke="#808080" stroke-width="5.0e-3" fill="none"><polyline points="0.0,-0.4
2.0,-0.4"/></g><g stroke-opacity="5.0e-2" stroke="#808080" stroke-width="5.0e-3" fill="none"><polyline points="0.0,-0.6000000000000001
2.0,-0.6000000000000001"/></g><g stroke-opacity="5.0e-2" stroke="#808080" stroke-width="5.0e-3" fill="none"><polyline points="0.0,-0.8
2.0,-0.8"/></g><g stroke-opacity="5.0e-2" stroke="#808080" stroke-width="5.0e-3" fill="none"><polyline points="0.0,-1.0
2.0,-1.0"/></g><g stroke-opacity="5.0e-2" stroke="#808080" stroke-width="5.0e-3" fill="none"><polyline points="0.0,-1.2000000000000002
2.0,-1.2000000000000002"/></g><g stroke-opacity="5.0e-2" stroke="#808080" stroke-width="5.0e-3" fill="none"><polyline points="0.0,-1.4000000000000001
2.0,-1.4000000000000001"/></g><g stroke-opacity="5.0e-2" stroke="#808080" stroke-width="5.0e-3" fill="none"><polyline points="0.0,-1.5999999999999999
2.0,-1.5999999999999999"/></g><g fill-opacity="1.0" font-size="5.0e-2" stroke="none" stroke-width="0.0" fill="#808080" text-anchor="end"><text x="-7.6575e-2" y="1.4500000000000013e-2">0</text></g><g fill-opacity="1.0" font-size="5.0e-2" stroke="none" stroke-width="0.0" fill="#808080" text-anchor="end"><text x="-7.6575e-2" y="-0.18550000000000003">0.2</text></g><g fill-opacity="1.0" font-size="5.0e-2" stroke="none" stroke-width="0.0" fill="#808080" text-anchor="end"><text x="-7.6575e-2" y="-0.38549999999999995">0.4</text></g><g fill-opacity="1.0" font-size="5.0e-2" stroke="none" stroke-width="0.0" fill="#808080" text-anchor="end"><text x="-7.6575e-2" y="-0.5855000000000001">0.6</text></g><g fill-opacity="1.0" font-size="5.0e-2" stroke="none" stroke-width="0.0" fill="#808080" text-anchor="end"><text x="-7.6575e-2" y="-0.7855">0.8</text></g><g fill-opacity="1.0" font-size="5.0e-2" stroke="none" stroke-width="0.0" fill="#808080" text-anchor="end"><text x="-7.6575e-2" y="-0.9855">1</text></g><g fill-opacity="1.0" font-size="5.0e-2" stroke="none" stroke-width="0.0" fill="#808080" text-anchor="end"><text x="-7.6575e-2" y="-1.1855">1.2</text></g><g fill-opacity="1.0" font-size="5.0e-2" stroke="none" stroke-width="0.0" fill="#808080" text-anchor="end"><text x="-7.6575e-2" y="-1.3855000000000004">1.4</text></g><g fill-opacity="1.0" font-size="5.0e-2" stroke="none" stroke-width="0.0" fill="#808080" text-anchor="end"><text x="-7.6575e-2" y="-1.5855000000000001">1.6</text></g><g stroke-opacity="1.0" fill-opacity="1.0" stroke="#808080" stroke-width="5.0e-3" fill="#808080"><g transform="rotate(-90.0, -4.4e-2, 2.7755575615628914e-17)"><polyline points="-4.4e-2,1.5000000000000027e-2
-4.4e-2,-1.4999999999999972e-2"/></g><g transform="rotate(-90.0, -4.4e-2, -0.19999999999999993)"><polyline points="-4.4e-2,-0.18499999999999994
-4.4e-2,-0.2149999999999999"/></g><g transform="rotate(-90.0, -4.4e-2, -0.4)"><polyline points="-4.4e-2,-0.385
-4.4e-2,-0.41500000000000004"/></g><g transform="rotate(-90.0, -4.4e-2, -0.6000000000000001)"><polyline points="-4.4e-2,-0.5850000000000001
-4.4e-2,-0.6150000000000001"/></g><g transform="rotate(-90.0, -4.4e-2, -0.8)"><polyline points="-4.4e-2,-0.785
-4.4e-2,-0.8150000000000001"/></g><g transform="rotate(-90.0, -4.4e-2, -1.0)"><polyline points="-4.4e-2,-0.985
-4.4e-2,-1.015"/></g><g transform="rotate(-90.0, -4.4e-2, -1.2000000000000002)"><polyline points="-4.4e-2,-1.1850000000000003
-4.4e-2,-1.215"/></g><g transform="rotate(-90.0, -4.4e-2, -1.4000000000000001)"><polyline points="-4.4e-2,-1.3850000000000002
-4.4e-2,-1.415"/></g><g transform="rotate(-90.0, -4.4e-2, -1.5999999999999999)"><polyline points="-4.4e-2,-1.585
-4.4e-2,-1.6149999999999998"/></g></g><g stroke-opacity="1.0" fill-opacity="1.0" stroke="#808080" stroke-width="0.0" fill="#808080"><rect height="1.5999999999999999" width="4.9999999999999975e-3" x="-3.15e-2" y="-1.5999999999999999"/></g><g stroke-opacity="5.0e-2" stroke="#808080" stroke-width="5.0e-3" fill="none"><polyline points="0.0,2.7755575615628914e-17
0.0,-1.5999999999999999"/></g><g stroke-opacity="5.0e-2" stroke="#808080" stroke-width="5.0e-3" fill="none"><polyline points="0.2,2.7755575615628914e-17
0.2,-1.5999999999999999"/></g><g stroke-opacity="5.0e-2" stroke="#808080" stroke-width="5.0e-3" fill="none"><polyline points="0.39999999999999997,2.7755575615628914e-17
0.39999999999999997,-1.5999999999999999"/></g><g stroke-opacity="5.0e-2" stroke="#808080" stroke-width="5.0e-3" fill="none"><polyline points="0.6000000000000001,2.7755575615628914e-17
0.6000000000000001,-1.5999999999999999"/></g><g stroke-opacity="5.0e-2" stroke="#808080" stroke-width="5.0e-3" fill="none"><polyline points="0.8,2.7755575615628914e-17
0.8,-1.5999999999999999"/></g><g stroke-opacity="5.0e-2" stroke="#808080" stroke-width="5.0e-3" fill="none"><polyline points="1.0,2.7755575615628914e-17
1.0,-1.5999999999999999"/></g><g stroke-opacity="5.0e-2" stroke="#808080" stroke-width="5.0e-3" fill="none"><polyline points="1.2000000000000002,2.7755575615628914e-17
1.2000000000000002,-1.5999999999999999"/></g><g stroke-opacity="5.0e-2" stroke="#808080" stroke-width="5.0e-3" fill="none"><polyline points="1.4000000000000001,2.7755575615628914e-17
1.4000000000000001,-1.5999999999999999"/></g><g stroke-opacity="5.0e-2" stroke="#808080" stroke-width="5.0e-3" fill="none"><polyline points="1.6,2.7755575615628914e-17
1.6,-1.5999999999999999"/></g><g stroke-opacity="5.0e-2" stroke="#808080" stroke-width="5.0e-3" fill="none"><polyline points="1.7999999999999998,2.7755575615628914e-17
1.7999999999999998,-1.5999999999999999"/></g><g stroke-opacity="5.0e-2" stroke="#808080" stroke-width="5.0e-3" fill="none"><polyline points="2.0,2.7755575615628914e-17
2.0,-1.5999999999999999"/></g><g fill-opacity="1.0" font-size="5.0e-2" stroke="none" stroke-width="0.0" fill="#808080" text-anchor="middle"><text x="0.0" y="0.12775">0</text></g><g fill-opacity="1.0" font-size="5.0e-2" stroke="none" stroke-width="0.0" fill="#808080" text-anchor="middle"><text x="0.2" y="0.12775">0.2</text></g><g fill-opacity="1.0" font-size="5.0e-2" stroke="none" stroke-width="0.0" fill="#808080" text-anchor="middle"><text x="0.39999999999999997" y="0.12775">0.4</text></g><g fill-opacity="1.0" font-size="5.0e-2" stroke="none" stroke-width="0.0" fill="#808080" text-anchor="middle"><text x="0.6000000000000001" y="0.12775">0.6</text></g><g fill-opacity="1.0" font-size="5.0e-2" stroke="none" stroke-width="0.0" fill="#808080" text-anchor="middle"><text x="0.8" y="0.12775">0.8</text></g><g fill-opacity="1.0" font-size="5.0e-2" stroke="none" stroke-width="0.0" fill="#808080" text-anchor="middle"><text x="1.0" y="0.12775">1</text></g><g fill-opacity="1.0" font-size="5.0e-2" stroke="none" stroke-width="0.0" fill="#808080" text-anchor="middle"><text x="1.2000000000000002" y="0.12775">1.2</text></g><g fill-opacity="1.0" font-size="5.0e-2" stroke="none" stroke-width="0.0" fill="#808080" text-anchor="middle"><text x="1.4000000000000001" y="0.12775">1.4</text></g><g fill-opacity="1.0" font-size="5.0e-2" stroke="none" stroke-width="0.0" fill="#808080" text-anchor="middle"><text x="1.6" y="0.12775">1.6</text></g><g fill-opacity="1.0" font-size="5.0e-2" stroke="none" stroke-width="0.0" fill="#808080" text-anchor="middle"><text x="1.7999999999999998" y="0.12775">1.8</text></g><g fill-opacity="1.0" font-size="5.0e-2" stroke="none" stroke-width="0.0" fill="#808080" text-anchor="middle"><text x="2.0" y="0.12775">2</text></g><g stroke-opacity="1.0" fill-opacity="1.0" stroke="#808080" stroke-width="5.0e-3" fill="#808080"><polyline points="0.0,5.900000000000001e-2
0.0,2.9000000000000012e-2"/><polyline points="0.2,5.900000000000001e-2
0.2,2.9000000000000012e-2"/><polyline points="0.39999999999999997,5.900000000000001e-2
0.39999999999999997,2.9000000000000012e-2"/><polyline points="0.6000000000000001,5.900000000000001e-2
0.6000000000000001,2.9000000000000012e-2"/><polyline points="0.8,5.900000000000001e-2
0.8,2.9000000000000012e-2"/><polyline points="1.0,5.900000000000001e-2
1.0,2.9000000000000012e-2"/><polyline points="1.2000000000000002,5.900000000000001e-2
1.2000000000000002,2.9000000000000012e-2"/><polyline points="1.4000000000000001,5.900000000000001e-2
1.4000000000000001,2.9000000000000012e-2"/><polyline points="1.6,5.900000000000001e-2
1.6,2.9000000000000012e-2"/><polyline points="1.7999999999999998,5.900000000000001e-2
1.7999999999999998,2.9000000000000012e-2"/><polyline points="2.0,5.900000000000001e-2
2.0,2.9000000000000012e-2"/></g><g stroke-opacity="1.0" fill-opacity="1.0" stroke="#808080" stroke-width="0.0" fill="#808080"><rect height="4.9999999999999906e-3" width="2.0" x="0.0" y="2.650000000000001e-2"/></g><g stroke-opacity="0.0" fill-opacity="0.1" stroke="#000000" stroke-width="1.0e-2" fill="#e31a1c"><path d="M 0.0,2.7755575615628914e-17 C 1.0,0.0 0.0,-1.0 1.0,-1.0 L 0.0,2.7755575615628914e-17"/></g><g stroke-opacity="1.0" stroke="#1f78b4" stroke-width="2.0e-3" fill="none"><polyline points="0.0,2.7755575615628914e-17
2.9404e-2,-2.9799999999996496e-4
5.763199999999999e-2,-1.1839999999999906e-3
8.4708e-2,-2.6460000000000095e-3
0.110656,-4.6720000000000095e-3
0.13549999999999998,-7.2500000000000064e-3
0.159264,-1.0367999999999988e-2
0.18197199999999997,-1.4013999999999999e-2
0.203648,-1.8175999999999998e-2
0.22431600000000002,-2.2842e-2
0.24400000000000005,-2.799999999999997e-2
0.262724,-3.3637999999999973e-2
0.280512,-3.9743999999999974e-2
0.29738800000000004,-4.6305999999999986e-2
0.31337600000000004,-5.3312e-2
0.3284999999999999,-6.074999999999997e-2
0.34278399999999987,-6.8608e-2
0.356252,-7.687400000000003e-2
0.36892800000000003,-8.553599999999997e-2
0.380836,-9.458200000000003e-2
0.3920000000000001,-0.10400000000000004
0.402444,-0.11377799999999996
0.412192,-0.12390399999999999
0.4212679999999999,-0.13436599999999996
0.429696,-0.14515199999999998
0.43750000000000006,-0.15625000000000003
0.44470399999999993,-0.16764800000000005
0.4513319999999999,-0.17933399999999997
0.4574080000000001,-0.191296
0.462956,-0.20352199999999995
0.4679999999999999,-0.216
0.47256399999999993,-0.22871799999999995
0.47667199999999993,-0.24166400000000002
0.48034799999999994,-0.254826
0.4836159999999999,-0.268192
0.4864999999999999,-0.28174999999999994
0.48902399999999996,-0.295488
0.49121200000000004,-0.30939399999999995
0.493088,-0.32345599999999997
0.49467599999999995,-0.337662
0.49600000000000005,-0.3520000000000001
0.4970839999999999,-0.36645800000000006
0.4979520000000001,-0.38102400000000003
0.4986280000000001,-0.395686
0.4991360000000001,-0.410432
0.4995000000000001,-0.4252499999999999
0.499744,-0.4401280000000001
0.49989199999999995,-0.45505400000000007
0.499968,-0.4700159999999999
0.49999599999999994,-0.48500199999999993
0.5,-0.4999999999999999
0.5000039999999999,-0.514998
0.500032,-0.529984
0.500108,-0.544946
0.5002559999999998,-0.559872
0.5005,-0.5747500000000001
0.500864,-0.589568
0.5013719999999999,-0.604314
0.502048,-0.6189760000000001
0.5029159999999999,-0.6335419999999999
0.504,-0.648
0.5053239999999999,-0.6623379999999999
0.506912,-0.676544
0.508788,-0.6906059999999999
0.5109760000000001,-0.704512
0.5135000000000001,-0.71825
0.516384,-0.7318079999999999
0.519652,-0.745174
0.523328,-0.758336
0.527436,-0.771282
0.532,-0.7839999999999999
0.5370440000000001,-0.796478
0.542592,-0.8087040000000001
0.5486679999999999,-0.8206659999999999
0.555296,-0.832352
0.5625,-0.84375
0.5703039999999999,-0.854848
0.578732,-0.8656339999999999
0.5878079999999999,-0.876096
0.597556,-0.8862220000000001
0.6080000000000001,-0.8960000000000001
0.619164,-0.9054179999999998
0.6310720000000001,-0.9144639999999999
0.643748,-0.9231260000000001
0.6572159999999998,-0.931392
0.6715,-0.9392499999999999
0.6866239999999999,-0.946688
0.702612,-0.9536939999999998
0.7194879999999999,-0.9602559999999998
0.737276,-0.9663619999999999
0.756,-0.972
0.775684,-0.977158
0.796352,-0.981824
0.818028,-0.9859859999999998
0.8407360000000001,-0.9896320000000001
0.8645,-0.9927499999999998
0.8893439999999999,-0.995328
0.915292,-0.9973540000000001
0.9423679999999999,-0.9988159999999997
0.9705959999999998,-0.9997019999999999
1.0,-1.0"/></g><g stroke-opacity="0.8" fill-opacity="0.3" stroke="#1f78b4" stroke-width="3.0e-3" fill="#a6cee3"><rect height="3.0e-2" width="3.0e-2" x="-1.5e-2" y="-1.4999999999999972e-2"/><rect height="2.9999999999999916e-2" width="2.9999999999999916e-2" x="0.985" y="-1.015"/><rect height="3.0e-2" width="2.9999999999999916e-2" x="0.985" y="-1.4999999999999972e-2"/><rect height="2.9999999999999916e-2" width="3.0e-2" x="-1.5e-2" y="-1.015"/><rect height="3.0000000000000027e-2" width="3.0000000000000027e-2" x="0.49989549999999994" y="-0.7400522500000001"/></g><g stroke-opacity="1.0" fill-opacity="0.1" stroke="#808080" stroke-width="2.0e-3" fill="#6666cc"><rect height="1.0" width="1.0" x="0.0" y="-1.0"/></g><g fill-opacity="1.0" font-size="5.0e-2" stroke="none" stroke-width="0.0" fill="#333333" text-anchor="middle"><text x="1.0" y="-1.5999999999999999">M 0.0,0.0 C 1.0,0.0 0.0,-1.0 1.0,-1.0 L 0.0,0.0</text></g></svg>