<svg width="300.0" xmlns:xlink="http://www.w3.org/1999/xlink" xmlns="http://www.w3.org/2000/svg" viewBox="-0.5210215759849907 -0.5210215759849907 1.0420431519699813 1.0420431519699813" height="300.0"><style>svg {
  color-scheme: light dark;
}
@media (prefers-color-scheme:dark) {
  svg {
    background-color: #f0f0f0;
  }
}</style><g stroke-opacity="0.0" fill="#1f78b5" stroke="#000000" stroke-width="1.0e-2" fill-opacity="0.1"><path d="M -0.4845,0.4845 C 0.4845,0.4845 -0.4845,-0.4845 0.4845,-0.4845"/></g><g stroke-opacity="1.0" fill="none" stroke="#a6cfe3" stroke-width="2.0e-3"><polyline points="-0.4845215759849907,0.4845215759849907
-0.4560278311444653,0.4842328011257036
-0.4286736810506567,0.48337422889305814
-0.4024358686679175,0.4819574878048781
-0.3772911369606004,0.4799942063789869
-0.35321622889305826,0.4774960131332083
-0.3301878874296436,0.47447453658536587
-0.30818285553470914,0.47094140525328326
-0.28717787617260787,0.4669082476547843
-0.26714969230769237,0.46238669230769236
-0.2480750469043152,0.45738836772983116
-0.22993068292682928,0.4519249024390244
-0.21269334333958728,0.4460079249530957
-0.19633977110694179,0.4396490637898687
-0.18084670919324575,0.43285994746716694
-0.16619090056285185,0.4256522045028143
-0.15234908818011267,0.41803746341463416
-0.13929801500938083,0.4100273527204503
-0.12701442401500934,0.4016335009380863
-0.11547505816135079,0.3928675365853659
-0.1046566604127579,0.38374108818011254
-9.453597373358347e-2,0.3742657842401501
-8.508974108818007e-2,0.3644532532833021
-7.629470544090061e-2,0.35431512382739216
-6.812760975609755e-2,0.3438630243902439
-6.0565196998123794e-2,0.3331085834896811
-5.358421013133213e-2,0.3220634296435272
-4.7161392120075085e-2,0.31073919136960604
-4.127348592870539e-2,0.2991474971857411
-3.5897234521576005e-2,0.2872999756097561
-3.1009380863039504e-2,0.2752082551594747
-2.658666791744846e-2,0.2628839643527205
-2.2605838649155774e-2,0.2503387317073171
-1.9043636022514132e-2,0.2375841857410882
-1.5876803001876327e-2,0.2246319549718574
-1.308208255159482e-2,0.2114936679174484
-1.063621763602246e-2,0.19818095309568484
-8.515951219512097e-3,0.18470543902439024
-6.6980262664165235e-3,0.1710787542213884
-5.159185741088201e-3,0.15731252720450278
-3.8761726078798686e-3,0.1434183864915572
-2.8257298311443746e-3,0.1294079606003753
-1.984600375234402e-3,0.11529287804878052
-1.3295272045028006e-3,0.10108476735459665
-8.372532833020307e-4,8.679525703564728e-2
-4.8452157598494194e-4,7.243597560975606e-2
-2.48075046904217e-4,5.8018551594746615e-2
-1.0465666041276078e-4,4.355461350844275e-2
-3.100938086297855e-5,2.9055789868667914e-2
-3.876172607941708e-6,1.4533709193245758e-2
0.0,-0.0
3.876172607886197e-6,-1.4533709193245703e-2
3.1009380863089575e-5,-2.905578986866797e-2
1.046566604128163e-4,-4.355461350844281e-2
2.480750469042725e-4,-5.801855159474678e-2
4.8452157598499745e-4,-7.243597560975612e-2
8.372532833019752e-4,-8.679525703564739e-2
1.329527204502856e-3,-0.1010847673545966
1.984600375234513e-3,-0.11529287804878052
2.8257298311444856e-3,-0.12940796060037518
3.8761726078799796e-3,-0.14341838649155725
5.159185741088201e-3,-0.15731252720450273
6.698026266416468e-3,-0.1710787542213884
8.515951219512208e-3,-0.1847054390243903
1.0636217636022627e-2,-0.19818095309568484
1.308208255159482e-2,-0.2114936679174485
1.5876803001876105e-2,-0.2246319549718575
1.9043636022514132e-2,-0.2375841857410882
2.2605838649155774e-2,-0.25033873170731713
2.6586667917448348e-2,-0.2628839643527203
3.1009380863039282e-2,-0.27520825515947456
3.5897234521576116e-2,-0.2872999756097562
4.12734859287055e-2,-0.2991474971857411
4.7161392120074974e-2,-0.3107391913696059
5.358421013133208e-2,-0.3220634296435272
6.0565196998123794e-2,-0.3331085834896811
6.812760975609755e-2,-0.34386302439024397
7.629470544090067e-2,-0.35431512382739216
8.508974108818013e-2,-0.364453253283302
9.453597373358358e-2,-0.3742657842401502
0.10465666041275812,-0.38374108818011277
0.11547505816135095,-0.3928675365853659
0.12701442401500918,-0.40163350093808636
0.13929801500938088,-0.4100273527204503
0.1523490881801125,-0.4180374634146341
0.1661909005628518,-0.42565220450281416
0.18084670919324575,-0.43285994746716694
0.1963397711069419,-0.4396490637898689
0.21269334333958723,-0.4460079249530957
0.22993068292682928,-0.4519249024390246
0.24807504690431537,-0.45738836772983127
0.26714969230769237,-0.46238669230769236
0.2871778761726079,-0.4669082476547842
0.30818285553470925,-0.4709414052532833
0.33018788742964345,-0.474474536585366
0.35321622889305815,-0.47749601313320844
0.37729113696060046,-0.47999420637898704
0.4024358686679175,-0.4819574878048781
0.4286736810506565,-0.48337422889305803
0.4560278311444652,-0.48423280112570355
0.4845215759849907,-0.4845215759849907"/></g><g stroke-opacity="1.0" fill="#a6cfe3" stroke="#1f78b5" stroke-width="3.0e-3" fill-opacity="1.0"><rect width="3.0000000000000027e-2" x="-0.4995215759849907" y="0.46952157598499067" height="3.0000000000000027e-2"/><rect width="3.0000000000000027e-2" x="0.46952157598499067" y="-0.4995215759849907" height="3.0000000000000027e-2"/><rect width="3.0000000000000027e-2" x="0.46952157598499067" y="0.46952157598499067" height="3.0000000000000027e-2"/><rect width="3.0000000000000027e-2" x="-0.4995215759849907" y="-0.4995215759849907" height="3.0000000000000027e-2"/><rect width="3.0e-2" x="8.965666041275812e-2" y="-0.3987410881801128" height="3.0000000000000027e-2"/></g><g stroke-opacity="1.0" fill="#6666cc" stroke="#808080" stroke-width="2.0e-3" fill-opacity="0.1"><rect width="0.9690431519699814" x="-0.4845215759849907" y="-0.4845215759849907" height="0.9690431519699814"/></g></svg>