<svg xmlns="http://www.w3.org/2000/svg" xmlns:xlink="http://www.w3.org/1999/xlink" width="450" height="300" viewBox="-0.7561 -0.5017 1.5061 1.0028"><style>svg {
  color-scheme: light dark;
}
{
  .canvas g, .title g, .axisbar g, .ticktext g, .tickglyph g, .ticklines g, .legendContent g text {
    fill: rgb(5%, 5%, 5%);
  }
  .ticklines g, .tickglyph g, .legendBorder g {
    stroke: rgb(5%, 5%, 5%);
  }
  .legendBorder g {
    fill: rgb(94%, 94%, 94%);
  }
}
@media (prefers-color-scheme:dark) {
  .canvas g, .title g, .axisbar g, .ticktext g, .tickglyph g, .ticklines g, .legendContent g text {
    fill: rgb(94%, 94%, 94%);
  }
  .ticklines g, .tickglyph g, .legendBorder g {
    stroke: rgb(94%, 94%, 94%);
  }
  .legendBorder g {
    fill: rgb(5%, 5%, 5%);
  }
}
svg { font-family: system-ui,-apple-system,"Segoe UI",Roboto,"Helvetica Neue",Arial,"Noto Sans","Liberation Sans",sans-serif,"Apple Color Emoji","Segoe UI Emoji","Segoe UI Symbol","Noto Color Emoji";
}

ticktext { font-family: SFMono-Regular,Menlo,Monaco,Consolas,"Liberation Mono","Courier New",monospace;
}

</style><g class="chart"><g class="cubic"><g stroke-width="0.0100" stroke="rgb(0%, 0%, 0%)" stroke-opacity="0" fill="rgb(96%, 60%, 92%)" fill-opacity="0.2"><path d="M -0.7396,0.4846 C 0.1768,0.4846 -0.7396,-0.4167 0.1768,-0.4167"/></g><g stroke-width="0.0020" stroke="rgb(53%, 51%, 28%)" stroke-opacity="1.0" fill="none"><polyline points="-0.7396,0.4846 -0.7126,0.4844 -0.6868,0.4836 -0.6620,0.4823 -0.6382,0.4804 -0.6154,0.4781 -0.5936,0.4753 -0.5728,0.4720 -0.5530,0.4683 -0.5340,0.4640 -0.5160,0.4594 -0.4988,0.4543 -0.4825,0.4488 -0.4671,0.4429 -0.4524,0.4366 -0.4385,0.4299 -0.4254,0.4228 -0.4131,0.4154 -0.4015,0.4075 -0.3906,0.3994 -0.3803,0.3909 -0.3708,0.3821 -0.3618,0.3730 -0.3535,0.3635 -0.3458,0.3538 -0.3386,0.3438 -0.3320,0.3335 -0.3260,0.3230 -0.3204,0.3122 -0.3153,0.3012 -0.3107,0.2900 -0.3065,0.2785 -0.3028,0.2668 -0.2994,0.2550 -0.2964,0.2429 -0.2937,0.2307 -0.2914,0.2183 -0.2894,0.2058 -0.2877,0.1931 -0.2863,0.1803 -0.2850,0.1674 -0.2840,0.1543 -0.2832,0.1412 -0.2826,0.1280 -0.2822,0.1147 -0.2818,0.1014 -0.2816,0.0879 -0.2815,0.0745 -0.2814,0.0610 -0.2814,0.0475 -0.2814,0.0340 -0.2814,0.0205 -0.2813,0.0070 -0.2813,-0.0065 -0.2811,-0.0200 -0.2809,-0.0334 -0.2806,-0.0467 -0.2801,-0.0600 -0.2795,-0.0733 -0.2787,-0.0864 -0.2777,-0.0994 -0.2765,-0.1123 -0.2750,-0.1251 -0.2733,-0.1378 -0.2713,-0.1503 -0.2690,-0.1627 -0.2664,-0.1749 -0.2634,-0.1870 -0.2600,-0.1989 -0.2562,-0.2105 -0.2520,-0.2220 -0.2474,-0.2332 -0.2423,-0.2443 -0.2368,-0.2550 -0.2307,-0.2656 -0.2241,-0.2758 -0.2169,-0.2858 -0.2092,-0.2956 -0.2009,-0.3050 -0.1920,-0.3141 -0.1824,-0.3229 -0.1722,-0.3314 -0.1613,-0.3396 -0.1496,-0.3474 -0.1373,-0.3548 -0.1242,-0.3619 -0.1103,-0.3686 -0.0957,-0.3749 -0.0802,-0.3808 -0.0639,-0.3864 -0.0468,-0.3914 -0.0287,-0.3961 -0.0098,-0.4003 0.0101,-0.4040 0.0309,-0.4073 0.0527,-0.4101 0.0754,-0.4125 0.0992,-0.4143 0.1240,-0.4156 0.1499,-0.4164 0.1768,-0.4167"/></g><g stroke-width="0.0030" stroke="rgb(2%, 29%, 48%)" stroke-opacity="1.0" fill="rgb(2%, 73%, 80%)" fill-opacity="0.2"><rect width="0.0300" height="0.0300" x="-0.7546" y="0.4696"/><rect width="0.0300" height="0.0300" x="0.1618" y="-0.4317"/></g><g stroke-width="0.0030" stroke="rgb(2%, 29%, 48%)" stroke-opacity="1.0" fill="rgb(2%, 73%, 80%)" fill-opacity="0.2"><circle cx="0.1768" cy="0.4846" r="0.0150"/><circle cx="-0.7396" cy="-0.4167" r="0.0150"/></g><g stroke-width="0.0020" stroke="rgb(40%, 40%, 40%)" stroke-opacity="1.0" fill="rgb(2%, 73%, 80%)" fill-opacity="0.05"><rect width="0.9164" height="0.9013" x="-0.7396" y="-0.4167"/></g></g></g><g class="hud"><g class="legend"><g class="padding"></g><g class="padding"></g><g class="frame"><g stroke-width="0.0008" stroke="rgb(5%, 5%, 5%)" stroke-opacity="1.0" fill="rgb(5%, 5%, 5%)" fill-opacity="0"><rect width="0.4933" height="0.4531" x="0.2535" y="-0.1926"/></g></g><g class="legendContent"><g stroke-width="0.0016" stroke="rgb(40%, 40%, 40%)" stroke-opacity="1.0" fill="rgb(2%, 73%, 80%)" fill-opacity="0.05"><rect width="0.0316" height="0.0466" x="0.6582" y="0.1884"/></g><g stroke-width="0.0" stroke="none" fill="rgb(5%, 5%, 5%)" fill-opacity="1.0" font-size="0.0316" text-anchor="start"><text x="0.2693" y="0.2233">Bounding Box</text></g><g stroke-width="0.0005" stroke="rgb(2%, 29%, 48%)" stroke-opacity="1.0" fill="rgb(2%, 73%, 80%)" fill-opacity="0.2"><circle cx="0.6735" cy="0.1372" r="0.0158"/></g><g stroke-width="0.0" stroke="none" fill="rgb(5%, 5%, 5%)" fill-opacity="1.0" font-size="0.0316" text-anchor="start"><text x="0.2693" y="0.1488">Path Control Point</text></g><g stroke-width="0.0005" stroke="rgb(2%, 29%, 48%)" stroke-opacity="1.0" fill="rgb(2%, 73%, 80%)" fill-opacity="0.2"><rect width="0.0316" height="0.0316" x="0.6577" y="0.0469"/></g><g stroke-width="0.0" stroke="none" fill="rgb(5%, 5%, 5%)" fill-opacity="1.0" font-size="0.0316" text-anchor="start"><text x="0.2693" y="0.0743">Path Endpoints</text></g><g stroke-width="0.0013" stroke="rgb(53%, 51%, 28%)" stroke-opacity="1.0" fill="none"><polyline points="0.6581,-0.0118 0.7212,-0.0118"/></g><g stroke-width="0.0" stroke="none" fill="rgb(5%, 5%, 5%)" fill-opacity="1.0" font-size="0.0316" text-anchor="start"><text x="0.2693" y="-0.0002">Path Chord</text></g><g stroke-width="0.0316" stroke="rgb(0%, 0%, 0%)" stroke-opacity="0" fill="rgb(96%, 60%, 92%)" fill-opacity="0.2"><path d="M 0.6732,-0.0995 Q 0.7363,-0.0529 0.7048,-0.1460"/></g><g stroke-width="0.0" stroke="none" fill="rgb(5%, 5%, 5%)" fill-opacity="1.0" font-size="0.0316" text-anchor="start"><text x="0.2693" y="-0.1033">Path Fill</text></g></g></g><g class="title"><g stroke-width="0.0" stroke="none" fill="rgb(5%, 5%, 5%)" fill-opacity="1.0" font-size="0.0300" text-anchor="middle"><text x="0" y="-0.4777">CubicPosition (Point 0 0) (Point 1 1) (Point 1 0) (Point 0 1)</text></g></g></g></svg>