<svg xmlns="http://www.w3.org/2000/svg" xmlns:xlink="http://www.w3.org/1999/xlink" width="450" height="300" viewBox="-0.75 -0.5000 1.5 1.0000"><style>svg {
  color-scheme: light dark;
}
{
  .canvas g, .title g, .axisbar g, .ticktext g, .tickglyph g, .ticklines g, .legendContent g text {
    fill: rgb(5%, 5%, 5%);
  }
  .ticklines g, .tickglyph g, .legendBorder g {
    stroke: rgb(5%, 5%, 5%);
  }
  .legendBorder g {
    fill: rgb(94%, 94%, 94%);
  }
}
@media (prefers-color-scheme:dark) {
  .canvas g, .title g, .axisbar g, .ticktext g, .tickglyph g, .ticklines g, .legendContent g text {
    fill: rgb(94%, 94%, 94%);
  }
  .ticklines g, .tickglyph g, .legendBorder g {
    stroke: rgb(94%, 94%, 94%);
  }
  .legendBorder g {
    fill: rgb(5%, 5%, 5%);
  }
}
svg { font-family: system-ui,-apple-system,"Segoe UI",Roboto,"Helvetica Neue",Arial,"Noto Sans","Liberation Sans",sans-serif,"Apple Color Emoji","Segoe UI Emoji","Segoe UI Symbol","Noto Color Emoji";
}

ticktext { font-family: SFMono-Regular,Menlo,Monaco,Consolas,"Liberation Mono","Courier New",monospace;
}

</style><g class="chart"></g><g class="hud"><g class="axis"><g class="axisbar"><g stroke-width="0" stroke="rgb(0%, 0%, 0%)" stroke-opacity="0" fill="rgb(5%, 5%, 5%)" fill-opacity="0.4"><rect width="0.0033" height="0.7479" x="-0.5673" y="-0.4486"/></g></g><g class="ticks"><g class="ticklines"><g stroke-width="0.0050" stroke="rgb(5%, 5%, 5%)" stroke-opacity="0.05" fill="none"><polyline points="-0.5557,0.2978 0.6897,0.2978"/><polyline points="-0.5557,0.2047 0.6897,0.2047"/><polyline points="-0.5557,0.1116 0.6897,0.1116"/><polyline points="-0.5557,0.0185 0.6897,0.0185"/><polyline points="-0.5557,-0.0747 0.6897,-0.0747"/><polyline points="-0.5557,-0.1678 0.6897,-0.1678"/><polyline points="-0.5557,-0.2609 0.6897,-0.2609"/><polyline points="-0.5557,-0.3540 0.6897,-0.3540"/><polyline points="-0.5557,-0.4471 0.6897,-0.4471"/></g></g><g class="tickglyph"><g stroke-width="0.0033" stroke="rgb(5%, 5%, 5%)" stroke-opacity="0.4" fill="rgb(5%, 5%, 5%)" fill-opacity="0.4"><polyline points="-0.5906,0.2978
-0.5657,0.2978"/><polyline points="-0.5906,0.2047
-0.5657,0.2047"/><polyline points="-0.5906,0.1116
-0.5657,0.1116"/><polyline points="-0.5906,0.0185
-0.5657,0.0185"/><polyline points="-0.5906,-0.0747
-0.5657,-0.0747"/><polyline points="-0.5906,-0.1678
-0.5657,-0.1678"/><polyline points="-0.5906,-0.2609
-0.5657,-0.2609"/><polyline points="-0.5906,-0.3540
-0.5657,-0.3540"/><polyline points="-0.5906,-0.4471
-0.5657,-0.4471"/></g></g><g class="ticktext"><g stroke-width="0.0" stroke="none" fill="rgb(5%, 5%, 5%)" fill-opacity="1.0" font-size="0.0400" text-anchor="end"><text x="-0.6089" y="0.3060">00:00</text><text x="-0.6089" y="0.2129">03:00</text><text x="-0.6089" y="0.1198">06:00</text><text x="-0.6089" y="0.0266">09:00</text><text x="-0.6089" y="-0.0665">12:00</text><text x="-0.6089" y="-0.1596">15:00</text><text x="-0.6089" y="-0.2527">18:00</text><text x="-0.6089" y="-0.3458">21:00</text><text x="-0.6089" y="-0.4389">00:00</text></g></g></g></g><g class="axis"><g class="axisbar"><g stroke-width="0" stroke="rgb(0%, 0%, 0%)" stroke-opacity="0" fill="rgb(5%, 5%, 5%)" fill-opacity="0.4"><rect width="1.2487" height="0.0030" x="-0.5574" y="0.3052"/></g></g><g class="ticks"><g class="ticklines"><g stroke-width="0.0050" stroke="rgb(5%, 5%, 5%)" stroke-opacity="0.05" fill="none"><polyline points="-0.5557,0.2978 -0.5557,-0.4471"/><polyline points="-0.2347,0.2978 -0.2347,-0.4471"/><polyline points="0.1633,0.2978 0.1633,-0.4471"/><polyline points="0.5228,0.2978 0.5228,-0.4471"/><polyline points="0.6897,0.2978 0.6897,-0.4471"/></g></g><g class="tickglyph"><g stroke-width="0.0030" stroke="rgb(5%, 5%, 5%)" stroke-opacity="0.4" fill="rgb(5%, 5%, 5%)" fill-opacity="0.4"><polyline points="-0.5557,0.3291
-0.5557,0.3067"/><polyline points="-0.2347,0.3291
-0.2347,0.3067"/><polyline points="0.1633,0.3291
0.1633,0.3067"/><polyline points="0.5228,0.3291
0.5228,0.3067"/><polyline points="0.6897,0.3291
0.6897,0.3067"/></g></g><g class="ticktext"><g stroke-width="0.0" stroke="none" fill="rgb(5%, 5%, 5%)" fill-opacity="1.0" font-size="0.0400" text-anchor="end"><text x="-0.5557" y="0.3701" transform="rotate(-45.0, -0.5557, 0.3701)">06 Dec</text><text x="-0.2347" y="0.3701" transform="rotate(-45.0, -0.2347, 0.3701)">31 Dec</text><text x="0.1633" y="0.3701" transform="rotate(-45.0, 0.1633, 0.3701)">31 Jan</text><text x="0.5228" y="0.3701" transform="rotate(-45.0, 0.5228, 0.3701)">28 Feb</text><text x="0.6897" y="0.3701" transform="rotate(-45.0, 0.6897, 0.3701)">13 Mar</text></g></g></g></g><g class="frame"><g stroke-width="0" stroke="rgb(0%, 0%, 0%)" stroke-opacity="0" fill="rgb(100%, 100%, 100%)" fill-opacity="0.02"><rect width="1.5" height="1.0000" x="-0.75" y="-0.5000"/></g></g></g></svg>