<svg xmlns="http://www.w3.org/2000/svg" width="452.11491477002767" xmlns:xlink="http://www.w3.org/1999/xlink" viewBox="-0.7364320837415482 -0.49842240815450595 1.4853940957293088 0.9856304540306093" height="300.0"><style>svg {
  color-scheme: light dark;
}
{
  .canvas g, .title g, .axisbar g, .ticktext g, .tickglyph g, .ticklines g, .legendContent g text {
    fill: #0d0d0d;
  }
  .ticklines g, .tickglyph g, .legendBorder g {
    stroke: #0d0d0d;
  }
  .legendBorder g {
    fill: #f0f0f0;
  }
}
@media (prefers-color-scheme:dark) {
  .canvas g, .title g, .axisbar g, .ticktext g, .tickglyph g, .ticklines g, .legendContent g text {
    fill: #f0f0f0;
  }
  .ticklines g, .tickglyph g, .legendBorder g {
    stroke: #f0f0f0;
  }
  .legendBorder g {
    fill: #0d0d0d;
  }
}</style><g class="chart"></g><g class="hud"><g class="axis"><g class="ticks"><g class="tickglyph"><g fill="rgb(5%, 5%, 5%)" stroke="rgb(5%, 5%, 5%)" stroke-width="4.0e-3" fill-opacity="0.4" stroke-opacity="0.4"><polyline points="-0.5794598442049582,0.3585232727269032
-0.5794598442049582,0.3285232727269032"/><polyline points="-0.23948704784224933,0.3585232727269032
-0.23948704784224933,0.3285232727269032"/><polyline points="0.18207921964750973,0.3585232727269032
0.18207921964750973,0.3285232727269032"/><polyline points="0.5628487515737435,0.3585232727269032
0.5628487515737435,0.3285232727269032"/><polyline points="0.7396346056823522,0.3585232727269032
0.7396346056823522,0.3285232727269032"/></g></g><g class="ticktext"><g fill="rgb(5%, 5%, 5%)" stroke="none" stroke-width="0.0" font-size="4.396981499624369e-2" fill-opacity="1.0" text-anchor="end"><text x="-0.5794598442049582" y="0.39393398282201786" transform="rotate(-45.0, -0.5794598442049582, 0.39393398282201786)">06 Dec</text><text x="-0.23948704784224933" y="0.39393398282201786" transform="rotate(-45.0, -0.23948704784224933, 0.39393398282201786)">31 Dec</text><text x="0.18207921964750973" y="0.39393398282201786" transform="rotate(-45.0, 0.18207921964750973, 0.39393398282201786)">31 Jan</text><text x="0.5628487515737435" y="0.39393398282201786" transform="rotate(-45.0, 0.5628487515737435, 0.39393398282201786)">28 Feb</text><text x="0.7396346056823522" y="0.39393398282201786" transform="rotate(-45.0, 0.7396346056823522, 0.39393398282201786)">13 Mar</text></g></g><g class="ticklines"><g fill="none" stroke="rgb(5%, 5%, 5%)" stroke-width="5.0e-3" stroke-opacity="5.0e-2"><polyline points="-0.5794598442049582,0.31970718921740016
-0.5794598442049582,-0.47416226109936654"/><polyline points="-0.23948704784224933,0.31970718921740016
-0.23948704784224933,-0.47416226109936654"/><polyline points="0.18207921964750973,0.31970718921740016
0.18207921964750973,-0.47416226109936654"/><polyline points="0.5628487515737435,0.31970718921740016
0.5628487515737435,-0.47416226109936654"/><polyline points="0.7396346056823522,0.31970718921740016
0.7396346056823522,-0.47416226109936654"/></g></g></g><g class="axisbar"><g fill="rgb(5%, 5%, 5%)" stroke="rgb(0%, 0%, 0%)" stroke-width="0.0" fill-opacity="0.4" stroke-opacity="0.0"><rect x="-0.581218636804808" width="1.32261203508701" y="0.3276458837205678" height="3.1754778012670903e-3"/></g></g></g><g class="axis"><g class="ticks"><g class="tickglyph"><g fill="rgb(5%, 5%, 5%)" stroke="rgb(5%, 5%, 5%)" stroke-width="4.0e-3" fill-opacity="0.4" stroke-opacity="0.4"><g transform="rotate(-90.0, -0.6058417332027045, 0.31970718921740016)"><polyline points="-0.6058417332027045,0.33470718921740017
-0.6058417332027045,0.30470718921740014"/></g><g transform="rotate(-90.0, -0.6058417332027045, 0.22047350792780432)"><polyline points="-0.6058417332027045,0.2354735079278043
-0.6058417332027045,0.20547350792780433"/></g><g transform="rotate(-90.0, -0.6058417332027045, 0.12123982663820848)"><polyline points="-0.6058417332027045,0.1362398266382085
-0.6058417332027045,0.10623982663820848"/></g><g transform="rotate(-90.0, -0.6058417332027045, 2.200614534861267e-2)"><polyline points="-0.6058417332027045,3.700614534861267e-2
-0.6058417332027045,7.006145348612672e-3"/></g><g transform="rotate(-90.0, -0.6058417332027045, -7.722753594098325e-2)"><polyline points="-0.6058417332027045,-6.222753594098325e-2
-0.6058417332027045,-9.222753594098325e-2"/></g><g transform="rotate(-90.0, -0.6058417332027045, -0.17646121723057906)"><polyline points="-0.6058417332027045,-0.16146121723057905
-0.6058417332027045,-0.19146121723057907"/></g><g transform="rotate(-90.0, -0.6058417332027045, -0.2756948985201749)"><polyline points="-0.6058417332027045,-0.2606948985201749
-0.6058417332027045,-0.29069489852017494"/></g><g transform="rotate(-90.0, -0.6058417332027045, -0.3749285798097708)"><polyline points="-0.6058417332027045,-0.3599285798097708
-0.6058417332027045,-0.3899285798097708"/></g><g transform="rotate(-90.0, -0.6058417332027045, -0.47416226109936654)"><polyline points="-0.6058417332027045,-0.45916226109936653
-0.6058417332027045,-0.48916226109936656"/></g></g></g><g class="ticktext"><g fill="rgb(5%, 5%, 5%)" stroke="none" stroke-width="0.0" font-size="4.396981499624369e-2" fill-opacity="1.0" text-anchor="end"><text x="-0.6375" y="0.3306228941592557">00:00</text><text x="-0.6375" y="0.23138921286965985">03:00</text><text x="-0.6375" y="0.132155531580064">06:00</text><text x="-0.6375" y="3.2921850290468235e-2">09:00</text><text x="-0.6375" y="-6.631183099912769e-2">12:00</text><text x="-0.6375" y="-0.1655455122887235">15:00</text><text x="-0.6375" y="-0.26477919357831936">18:00</text><text x="-0.6375" y="-0.3640128748679152">21:00</text><text x="-0.6375" y="-0.463246556157511">00:00</text></g></g><g class="ticklines"><g fill="none" stroke="rgb(5%, 5%, 5%)" stroke-width="5.0e-3" stroke-opacity="5.0e-2"><polyline points="-0.5794598442049582,0.31970718921740016
0.7396346056823524,0.31970718921740016"/><polyline points="-0.5794598442049582,0.22047350792780432
0.7396346056823524,0.22047350792780432"/><polyline points="-0.5794598442049582,0.12123982663820848
0.7396346056823524,0.12123982663820848"/><polyline points="-0.5794598442049582,2.200614534861267e-2
0.7396346056823524,2.200614534861267e-2"/><polyline points="-0.5794598442049582,-7.722753594098325e-2
0.7396346056823524,-7.722753594098325e-2"/><polyline points="-0.5794598442049582,-0.17646121723057906
0.7396346056823524,-0.17646121723057906"/><polyline points="-0.5794598442049582,-0.2756948985201749
0.7396346056823524,-0.2756948985201749"/><polyline points="-0.5794598442049582,-0.3749285798097708
0.7396346056823524,-0.3749285798097708"/><polyline points="-0.5794598442049582,-0.47416226109936654
0.7396346056823524,-0.47416226109936654"/></g></g></g><g class="axisbar"><g fill="rgb(5%, 5%, 5%)" stroke="rgb(0%, 0%, 0%)" stroke-width="0.0" fill-opacity="0.4" stroke-opacity="0.0"><rect x="-0.5917713924039065" width="3.51758519969958e-3" y="-0.47575" height="0.7970449281180336"/></g></g></g></g></svg>