<svg width="409.80045557631956" xmlns:xlink="http://www.w3.org/1999/xlink" xmlns="http://www.w3.org/2000/svg" viewBox="-0.9485000000000002 -0.54625 1.7291066017177983 1.2658160171779822" height="300.0"><style>svg {
  color-scheme: light dark;
}
{
  .canvas g, .title g, .axisbar g, .ticktext g, .tickglyph g, .ticklines g, .legendContent g text {
    fill: #0d0d0d;
  }
  .ticklines g, .tickglyph g, .legendBorder g {
    stroke: #0d0d0d;
  }
}
@media (prefers-color-scheme:dark) {
  .canvas g, .title g, .axisbar g, .ticktext g, .tickglyph g, .ticklines g, .legendContent g text {
    fill: #f0f0f0;
  }
  .ticklines g, .tickglyph g, .legendBorder g {
    stroke: #f0f0f0;
  }
}</style><g class="hud"><g class="axis"><g class="ticks"><g class="tickglyph"><g stroke-opacity="0.4" fill="#0d0d0d" stroke="#0d0d0d" stroke-width="4.0e-3" fill-opacity="0.4"><polyline points="-0.75,0.545
-0.75,0.515"/><polyline points="-0.36340206185567026,0.545
-0.36340206185567026,0.515"/><polyline points="0.11597938144329889,0.545
0.11597938144329889,0.515"/><polyline points="0.5489690721649485,0.545
0.5489690721649485,0.515"/><polyline points="0.7499999999999998,0.545
0.7499999999999998,0.515"/></g></g><g class="ticktext"><g fill="#0d0d0d" stroke="none" stroke-width="0.0" font-size="5.000000000000001e-2" fill-opacity="1.0" text-anchor="end"><text x="-0.75" y="0.5935000000000001" transform="rotate(-45.0, -0.75, 0.5935000000000001)">06 Dec</text><text x="-0.36340206185567026" y="0.5935000000000001" transform="rotate(-45.0, -0.36340206185567026, 0.5935000000000001)">31 Dec</text><text x="0.11597938144329889" y="0.5935000000000001" transform="rotate(-45.0, 0.11597938144329889, 0.5935000000000001)">31 Jan</text><text x="0.5489690721649485" y="0.5935000000000001" transform="rotate(-45.0, 0.5489690721649485, 0.5935000000000001)">28 Feb</text><text x="0.7499999999999998" y="0.5935000000000001" transform="rotate(-45.0, 0.7499999999999998, 0.5935000000000001)">13 Mar</text></g></g><g class="ticklines"><g stroke-opacity="5.0e-2" fill="none" stroke="#0d0d0d" stroke-width="5.0e-3"><polyline points="-0.75,0.5
-0.75,-0.4999999999999999"/><polyline points="-0.36340206185567026,0.5
-0.36340206185567026,-0.4999999999999999"/><polyline points="0.11597938144329889,0.5
0.11597938144329889,-0.4999999999999999"/><polyline points="0.5489690721649485,0.5
0.5489690721649485,-0.4999999999999999"/><polyline points="0.7499999999999998,0.5
0.7499999999999998,-0.4999999999999999"/></g></g></g><g class="axisbar"><g stroke-opacity="0.0" fill="#0d0d0d" stroke="#000000" stroke-width="0.0" fill-opacity="0.4"><rect width="1.5040000000000004" x="-0.7520000000000001" y="0.51" height="4.0000000000000036e-3"/></g></g></g><g class="axis"><g class="ticks"><g class="tickglyph"><g stroke-opacity="0.4" fill="#0d0d0d" stroke="#0d0d0d" stroke-width="4.0e-3" fill-opacity="0.4"><g transform="rotate(-90.0, -0.7800000000000001, 0.5)"><polyline points="-0.7800000000000001,0.515
-0.7800000000000001,0.485"/></g><g transform="rotate(-90.0, -0.7800000000000001, 0.375)"><polyline points="-0.7800000000000001,0.39
-0.7800000000000001,0.36"/></g><g transform="rotate(-90.0, -0.7800000000000001, 0.25)"><polyline points="-0.7800000000000001,0.265
-0.7800000000000001,0.235"/></g><g transform="rotate(-90.0, -0.7800000000000001, 0.12500000000000006)"><polyline points="-0.7800000000000001,0.14000000000000007
-0.7800000000000001,0.11000000000000006"/></g><g transform="rotate(-90.0, -0.7800000000000001, 5.551115123125783e-17)"><polyline points="-0.7800000000000001,1.5000000000000055e-2
-0.7800000000000001,-1.4999999999999944e-2"/></g><g transform="rotate(-90.0, -0.7800000000000001, -0.12499999999999989)"><polyline points="-0.7800000000000001,-0.10999999999999989
-0.7800000000000001,-0.1399999999999999"/></g><g transform="rotate(-90.0, -0.7800000000000001, -0.2499999999999999)"><polyline points="-0.7800000000000001,-0.23499999999999988
-0.7800000000000001,-0.2649999999999999"/></g><g transform="rotate(-90.0, -0.7800000000000001, -0.3749999999999999)"><polyline points="-0.7800000000000001,-0.3599999999999999
-0.7800000000000001,-0.3899999999999999"/></g><g transform="rotate(-90.0, -0.7800000000000001, -0.4999999999999999)"><polyline points="-0.7800000000000001,-0.4849999999999999
-0.7800000000000001,-0.5149999999999999"/></g></g></g><g class="ticktext"><g fill="#0d0d0d" stroke="none" stroke-width="0.0" font-size="5.000000000000001e-2" fill-opacity="1.0" text-anchor="end"><text x="-0.8160000000000002" y="0.5137500000000002">00:00</text><text x="-0.8160000000000002" y="0.38875">03:00</text><text x="-0.8160000000000002" y="0.26375000000000004">06:00</text><text x="-0.8160000000000002" y="0.1387500000000001">09:00</text><text x="-0.8160000000000002" y="1.375000000000004e-2">12:00</text><text x="-0.8160000000000002" y="-0.11124999999999996">15:00</text><text x="-0.8160000000000002" y="-0.23624999999999996">18:00</text><text x="-0.8160000000000002" y="-0.36124999999999996">21:00</text><text x="-0.8160000000000002" y="-0.48624999999999996">00:00</text></g></g><g class="ticklines"><g stroke-opacity="5.0e-2" fill="none" stroke="#0d0d0d" stroke-width="5.0e-3"><polyline points="-0.75,0.5
0.75,0.5"/><polyline points="-0.75,0.375
0.75,0.375"/><polyline points="-0.75,0.25
0.75,0.25"/><polyline points="-0.75,0.12500000000000006
0.75,0.12500000000000006"/><polyline points="-0.75,5.551115123125783e-17
0.75,5.551115123125783e-17"/><polyline points="-0.75,-0.12499999999999989
0.75,-0.12499999999999989"/><polyline points="-0.75,-0.2499999999999999
0.75,-0.2499999999999999"/><polyline points="-0.75,-0.3749999999999999
0.75,-0.3749999999999999"/><polyline points="-0.75,-0.4999999999999999
0.75,-0.4999999999999999"/></g></g></g><g class="axisbar"><g stroke-opacity="0.0" fill="#0d0d0d" stroke="#000000" stroke-width="0.0" fill-opacity="0.4"><rect width="4.0000000000000036e-3" x="-0.7640000000000001" y="-0.502" height="1.004"/></g></g></g></g></svg>