<svg width="434.05480971412777" xmlns:xlink="http://www.w3.org/1999/xlink" xmlns="http://www.w3.org/2000/svg" viewBox="-0.785133814570825 -0.5298506638882409 1.5573810713815575 1.076394756971311" height="300.0"><style>svg {
  color-scheme: light dark;
}
@media (prefers-color-scheme:dark) {
  svg {
    background-color: #f0f0f0;
  }
}</style><g stroke-opacity="5.0e-2" fill="none" stroke="#0d0d0d" stroke-width="5.0e-3"><polyline points="-0.5847085213455148,0.3120003250444874
-0.5847085213455148,-0.4750123476421978"/><polyline points="-0.24491619527590125,0.3120003250444874
-0.24491619527590125,-0.4750123476421978"/><polyline points="0.17642628905041946,0.3120003250444874
0.17642628905041946,-0.4750123476421978"/><polyline points="0.5569936942483866,0.3120003250444874
0.5569936942483866,-0.4750123476421978"/><polyline points="0.7336857038045854,0.3120003250444874
0.7336857038045854,-0.4750123476421978"/></g><g fill="#0d0d0d" stroke="none" stroke-width="0.0" font-size="5.0e-2" fill-opacity="1.0" text-anchor="end"><text x="-0.5847085213455148" y="0.40191652289894125" transform="rotate(-45.0, -0.5847085213455148, 0.40191652289894125)">06 Dec</text><text x="-0.24491619527590125" y="0.40191652289894125" transform="rotate(-45.0, -0.24491619527590125, 0.40191652289894125)">31 Dec</text><text x="0.17642628905041946" y="0.40191652289894125" transform="rotate(-45.0, 0.17642628905041946, 0.40191652289894125)">31 Jan</text><text x="0.5569936942483866" y="0.40191652289894125" transform="rotate(-45.0, 0.5569936942483866, 0.40191652289894125)">28 Feb</text><text x="0.7336857038045854" y="0.40191652289894125" transform="rotate(-45.0, 0.7336857038045854, 0.40191652289894125)">13 Mar</text></g><g stroke-opacity="0.4" fill="#0d0d0d" stroke="#0d0d0d" stroke-width="4.0e-3" fill-opacity="0.4"><polyline points="-0.5847085213455148,0.35139771789777463
-0.5847085213455148,0.3213977178977746"/><polyline points="-0.24491619527590125,0.35139771789777463
-0.24491619527590125,0.3213977178977746"/><polyline points="0.17642628905041946,0.35139771789777463
0.17642628905041946,0.3213977178977746"/><polyline points="0.5569936942483866,0.35139771789777463
0.5569936942483866,0.3213977178977746"/><polyline points="0.7336857038045854,0.35139771789777463
0.7336857038045854,0.3213977178977746"/></g><g stroke-opacity="0.0" fill="#0d0d0d" stroke="#000000" stroke-width="0.0" fill-opacity="0.4"><rect width="1.321909943083834" x="-0.5864663803123815" y="0.31987045177135426" height="3.148050690746751e-3"/></g><g stroke-opacity="5.0e-2" fill="none" stroke="#0d0d0d" stroke-width="5.0e-3"><polyline points="-0.5847085213455148,0.3120003250444874
0.7336857038045859,0.3120003250444874"/><polyline points="-0.5847085213455148,0.21362374095865172
0.7336857038045859,0.21362374095865172"/><polyline points="-0.5847085213455148,0.11524715687281611
0.7336857038045859,0.11524715687281611"/><polyline points="-0.5847085213455148,1.6870572786980453e-2
0.7336857038045859,1.6870572786980453e-2"/><polyline points="-0.5847085213455148,-8.150601129885515e-2
0.7336857038045859,-8.150601129885515e-2"/><polyline points="-0.5847085213455148,-0.17988259538469087
0.7336857038045859,-0.17988259538469087"/><polyline points="-0.5847085213455148,-0.2782591794705265
0.7336857038045859,-0.2782591794705265"/><polyline points="-0.5847085213455148,-0.3766357635563622
0.7336857038045859,-0.3766357635563622"/><polyline points="-0.5847085213455148,-0.4750123476421978
0.7336857038045859,-0.4750123476421978"/></g><g fill="#0d0d0d" stroke="none" stroke-width="0.0" font-size="5.0e-2" fill-opacity="1.0" text-anchor="end"><text x="-0.640133814570825" y="0.3234120087984443">00:00</text><text x="-0.640133814570825" y="0.22503542471260868">03:00</text><text x="-0.640133814570825" y="0.12665884062677307">06:00</text><text x="-0.640133814570825" y="2.8282256540937356e-2">09:00</text><text x="-0.640133814570825" y="-7.00943275448983e-2">12:00</text><text x="-0.640133814570825" y="-0.1684709116307339">15:00</text><text x="-0.640133814570825" y="-0.2668474957165696">18:00</text><text x="-0.640133814570825" y="-0.36522407980240523">21:00</text><text x="-0.640133814570825" y="-0.46360066388824084">00:00</text></g><g stroke-opacity="0.4" fill="#0d0d0d" stroke="#0d0d0d" stroke-width="4.0e-3" fill-opacity="0.4"><g transform="rotate(-90.0, -0.6119553353319502, 0.3120003250444874)"><polyline points="-0.6119553353319502,0.3270003250444874
-0.6119553353319502,0.29700032504448737"/></g><g transform="rotate(-90.0, -0.6119553353319502, 0.21362374095865172)"><polyline points="-0.6119553353319502,0.22862374095865173
-0.6119553353319502,0.1986237409586517"/></g><g transform="rotate(-90.0, -0.6119553353319502, 0.11524715687281611)"><polyline points="-0.6119553353319502,0.13024715687281613
-0.6119553353319502,0.10024715687281611"/></g><g transform="rotate(-90.0, -0.6119553353319502, 1.6870572786980453e-2)"><polyline points="-0.6119553353319502,3.187057278698045e-2
-0.6119553353319502,1.870572786980454e-3"/></g><g transform="rotate(-90.0, -0.6119553353319502, -8.150601129885515e-2)"><polyline points="-0.6119553353319502,-6.650601129885515e-2
-0.6119553353319502,-9.650601129885515e-2"/></g><g transform="rotate(-90.0, -0.6119553353319502, -0.17988259538469087)"><polyline points="-0.6119553353319502,-0.16488259538469086
-0.6119553353319502,-0.19488259538469088"/></g><g transform="rotate(-90.0, -0.6119553353319502, -0.2782591794705265)"><polyline points="-0.6119553353319502,-0.26325917947052646
-0.6119553353319502,-0.2932591794705265"/></g><g transform="rotate(-90.0, -0.6119553353319502, -0.3766357635563622)"><polyline points="-0.6119553353319502,-0.3616357635563622
-0.6119553353319502,-0.3916357635563622"/></g><g transform="rotate(-90.0, -0.6119553353319502, -0.4750123476421978)"><polyline points="-0.6119553353319502,-0.4600123476421978
-0.6119553353319502,-0.4900123476421978"/></g></g><g stroke-opacity="0.0" fill="#0d0d0d" stroke="#000000" stroke-width="0.0" fill-opacity="0.4"><rect width="3.5157179337335087e-3" x="-0.5970135341135823" y="-0.4765863729875711" height="0.7901607233774319"/></g><g></g></svg>