<svg width="430.98880068886007" xmlns:xlink="http://www.w3.org/1999/xlink" xmlns="http://www.w3.org/2000/svg" viewBox="-0.7935390820242391 -0.5337419194352775 1.5670344573739108 1.0907715849246762" height="300.0"><style>svg {
  color-scheme: light dark;
}
@media (prefers-color-scheme:dark) {
  svg {
    background-color: #f0f0f0;
  }
}</style><g stroke-opacity="5.0e-2" fill="none" stroke="#0d0d0d" stroke-width="5.0e-3"><polyline points="-0.5927243331665937,0.3209923283726872
-0.5927243331665937,-0.4790931590022137"/><polyline points="-0.2505443961794497,0.3209923283726872
-0.2505443961794497,-0.4790931590022137"/><polyline points="0.17375872568460904,0.3209923283726872
0.17375872568460904,-0.4790931590022137"/><polyline points="0.5570002551102105,0.3209923283726872
0.5570002551102105,-0.4790931590022137"/><polyline points="0.7349338223435249,0.3209923283726872
0.7349338223435249,-0.4790931590022137"/></g><g fill="#0d0d0d" stroke="none" stroke-width="0.0" font-size="5.0e-2" fill-opacity="1.0" text-anchor="end"><text x="-0.5927243331665937" y="0.41240209530526967" transform="rotate(-45.0, -0.5927243331665937, 0.41240209530526967)">06 Dec</text><text x="-0.2505443961794497" y="0.41240209530526967" transform="rotate(-45.0, -0.2505443961794497, 0.41240209530526967)">31 Dec</text><text x="0.17375872568460904" y="0.41240209530526967" transform="rotate(-45.0, 0.17375872568460904, 0.41240209530526967)">31 Jan</text><text x="0.5570002551102105" y="0.41240209530526967" transform="rotate(-45.0, 0.5570002551102105, 0.41240209530526967)">28 Feb</text><text x="0.7349338223435249" y="0.41240209530526967" transform="rotate(-45.0, 0.7349338223435249, 0.41240209530526967)">13 Mar</text></g><g stroke-opacity="0.4" fill="#0d0d0d" stroke="#0d0d0d" stroke-width="4.0e-3" fill-opacity="0.4"><polyline points="-0.5927243331665937,0.36079497848130915
-0.5927243331665937,0.3307949784813091"/><polyline points="-0.2505443961794497,0.36079497848130915
-0.2505443961794497,0.3307949784813091"/><polyline points="0.17375872568460904,0.36079497848130915
0.17375872568460904,0.3307949784813091"/><polyline points="0.5570002551102105,0.36079497848130915
0.5570002551102105,0.3307949784813091"/><polyline points="0.7349338223435249,0.36079497848130915
0.7349338223435249,0.3307949784813091"/></g><g stroke-opacity="0.0" fill="#0d0d0d" stroke="#000000" stroke-width="0.0" fill-opacity="0.4"><rect width="1.3311985772581458" x="-0.5944945440406072" y="0.3289931832464362" height="3.2003419494995855e-3"/></g><g stroke-opacity="5.0e-2" fill="none" stroke="#0d0d0d" stroke-width="5.0e-3"><polyline points="-0.5927243331665937,0.3209923283726872
0.7349338223435256,0.3209923283726872"/><polyline points="-0.5927243331665937,0.22098164245082458
0.7349338223435256,0.22098164245082458"/><polyline points="-0.5927243331665937,0.120970956528962
0.7349338223435256,0.120970956528962"/><polyline points="-0.5927243331665937,2.0960270607099374e-2
0.7349338223435256,2.0960270607099374e-2"/><polyline points="-0.5927243331665937,-7.905041531476331e-2
0.7349338223435256,-7.905041531476331e-2"/><polyline points="-0.5927243331665937,-0.17906110123662577
0.7349338223435256,-0.17906110123662577"/><polyline points="-0.5927243331665937,-0.27907178715848846
0.7349338223435256,-0.27907178715848846"/><polyline points="-0.5927243331665937,-0.37908247308035103
0.7349338223435256,-0.37908247308035103"/><polyline points="-0.5927243331665937,-0.4790931590022137
0.7349338223435256,-0.4790931590022137"/></g><g fill="#0d0d0d" stroke="none" stroke-width="0.0" font-size="5.0e-2" fill-opacity="1.0" text-anchor="end"><text x="-0.648539082024239" y="0.3325935679396232">00:00</text><text x="-0.648539082024239" y="0.23258288201776067">03:00</text><text x="-0.648539082024239" y="0.13257219609589804">06:00</text><text x="-0.648539082024239" y="3.256151017403547e-2">09:00</text><text x="-0.648539082024239" y="-6.744917574782727e-2">12:00</text><text x="-0.648539082024239" y="-0.16745986166968974">15:00</text><text x="-0.648539082024239" y="-0.2674705475915524">18:00</text><text x="-0.648539082024239" y="-0.3674812335134149">21:00</text><text x="-0.648539082024239" y="-0.46749191943527746">00:00</text></g><g stroke-opacity="0.4" fill="#0d0d0d" stroke="#0d0d0d" stroke-width="4.0e-3" fill-opacity="0.4"><g transform="rotate(-90.0, -0.6201626017138029, 0.3209923283726872)"><polyline points="-0.6201626017138029,0.3359923283726872
-0.6201626017138029,0.3059923283726872"/></g><g transform="rotate(-90.0, -0.6201626017138029, 0.22098164245082458)"><polyline points="-0.6201626017138029,0.2359816424508246
-0.6201626017138029,0.20598164245082456"/></g><g transform="rotate(-90.0, -0.6201626017138029, 0.120970956528962)"><polyline points="-0.6201626017138029,0.13597095652896202
-0.6201626017138029,0.105970956528962"/></g><g transform="rotate(-90.0, -0.6201626017138029, 2.0960270607099374e-2)"><polyline points="-0.6201626017138029,3.596027060709937e-2
-0.6201626017138029,5.960270607099374e-3"/></g><g transform="rotate(-90.0, -0.6201626017138029, -7.905041531476331e-2)"><polyline points="-0.6201626017138029,-6.405041531476331e-2
-0.6201626017138029,-9.405041531476331e-2"/></g><g transform="rotate(-90.0, -0.6201626017138029, -0.17906110123662577)"><polyline points="-0.6201626017138029,-0.16406110123662576
-0.6201626017138029,-0.1940611012366258"/></g><g transform="rotate(-90.0, -0.6201626017138029, -0.27907178715848846)"><polyline points="-0.6201626017138029,-0.26407178715848845
-0.6201626017138029,-0.2940717871584885"/></g><g transform="rotate(-90.0, -0.6201626017138029, -0.37908247308035103)"><polyline points="-0.6201626017138029,-0.364082473080351
-0.6201626017138029,-0.39408247308035105"/></g><g transform="rotate(-90.0, -0.6201626017138029, -0.4790931590022137)"><polyline points="-0.6201626017138029,-0.4640931590022137
-0.6201626017138029,-0.49409315900221373"/></g></g><g stroke-opacity="0.0" fill="#0d0d0d" stroke="#000000" stroke-width="0.0" fill-opacity="0.4"><rect width="3.540421748026934e-3" x="-0.6051158092846881" y="-0.48069332997696335" height="0.8032858293244003"/></g><g></g></svg>