<svg width="439.8194357003816" xmlns:xlink="http://www.w3.org/1999/xlink" xmlns="http://www.w3.org/2000/svg" viewBox="-0.77 -0.5228565354705799 1.54 1.0504310689778806" height="300.0"><style>svg {
  color-scheme: light dark;
}
@media (prefers-color-scheme:dark) {
  svg {
    background-color: #f0f0f0;
  }
}</style><g stroke-opacity="0.0" fill="#0d0d0d" stroke="#000000" stroke-width="0.0" fill-opacity="0.4"><rect width="1.3403785581361871" x="-0.5980488403176729" y="0.3495133572662391" height="3.279183043729761e-3"/></g><g stroke-opacity="0.4" fill="#0d0d0d" stroke="#0d0d0d" stroke-width="4.0e-3" fill-opacity="0.4"><polyline points="-0.596266422022279,0.3809092724848879
-0.596266422022279,0.35090927248488785"/><polyline points="-0.25172680306727924,0.3809092724848879
-0.25172680306727924,0.35090927248488785"/><polyline points="0.1755023244369205,0.3809092724848879
0.1755023244369205,0.35090927248488785"/><polyline points="0.5613866976665203,0.3809092724848879
0.5613866976665203,0.35090927248488785"/><polyline points="0.7405472995231202,0.3809092724848879
0.7405472995231202,0.35090927248488785"/></g><g fill="#0d0d0d" stroke="none" stroke-width="0.0" font-size="4.4560457384846645e-2" fill-opacity="1.0" text-anchor="end"><text x="-0.596266422022279" y="0.41304752873850303" transform="rotate(-45.0, -0.596266422022279, 0.41304752873850303)">06 Dec</text><text x="-0.25172680306727924" y="0.41304752873850303" transform="rotate(-45.0, -0.25172680306727924, 0.41304752873850303)">31 Dec</text><text x="0.1755023244369205" y="0.41304752873850303" transform="rotate(-45.0, 0.1755023244369205, 0.41304752873850303)">31 Jan</text><text x="0.5613866976665203" y="0.41304752873850303" transform="rotate(-45.0, 0.5613866976665203, 0.41304752873850303)">28 Feb</text><text x="0.7405472995231202" y="0.41304752873850303" transform="rotate(-45.0, 0.7405472995231202, 0.41304752873850303)">13 Mar</text></g><g stroke-opacity="5.0e-2" fill="none" stroke="#0d0d0d" stroke-width="5.0e-3"><polyline points="-0.596266422022279,0.3413153996569147
-0.596266422022279,-0.4784803612755236"/><polyline points="-0.25172680306727924,0.3413153996569147
-0.25172680306727924,-0.4784803612755236"/><polyline points="0.1755023244369205,0.3413153996569147
0.1755023244369205,-0.4784803612755236"/><polyline points="0.5613866976665203,0.3413153996569147
0.5613866976665203,-0.4784803612755236"/><polyline points="0.7405472995231202,0.3413153996569147
0.7405472995231202,-0.4784803612755236"/></g><g stroke-opacity="0.0" fill="#0d0d0d" stroke="#000000" stroke-width="0.0" fill-opacity="0.4"><rect width="3.5648365907877677e-3" x="-0.6087433500900361" y="-0.4801199527973883" height="0.8230749439761679"/></g><g stroke-opacity="0.4" fill="#0d0d0d" stroke="#0d0d0d" stroke-width="4.0e-3" fill-opacity="0.4"><g transform="rotate(-90.0, -0.623002696453187, 0.3413153996569147)"><polyline points="-0.623002696453187,0.3563153996569147
-0.623002696453187,0.3263153996569147"/></g><g transform="rotate(-90.0, -0.623002696453187, 0.2388409295403599)"><polyline points="-0.623002696453187,0.2538409295403599
-0.623002696453187,0.2238409295403599"/></g><g transform="rotate(-90.0, -0.623002696453187, 0.13636645942380515)"><polyline points="-0.623002696453187,0.15136645942380517
-0.623002696453187,0.12136645942380515"/></g><g transform="rotate(-90.0, -0.623002696453187, 3.389198930725035e-2)"><polyline points="-0.623002696453187,4.889198930725035e-2
-0.623002696453187,1.8891989307250348e-2"/></g><g transform="rotate(-90.0, -0.623002696453187, -6.85824808093044e-2)"><polyline points="-0.623002696453187,-5.35824808093044e-2
-0.623002696453187,-8.35824808093044e-2"/></g><g transform="rotate(-90.0, -0.623002696453187, -0.17105695092585915)"><polyline points="-0.623002696453187,-0.15605695092585914
-0.623002696453187,-0.18605695092585917"/></g><g transform="rotate(-90.0, -0.623002696453187, -0.273531421042414)"><polyline points="-0.623002696453187,-0.258531421042414
-0.623002696453187,-0.288531421042414"/></g><g transform="rotate(-90.0, -0.623002696453187, -0.3760058911589689)"><polyline points="-0.623002696453187,-0.36100589115896886
-0.623002696453187,-0.3910058911589689"/></g><g transform="rotate(-90.0, -0.623002696453187, -0.4784803612755236)"><polyline points="-0.623002696453187,-0.4634803612755236
-0.623002696453187,-0.49348036127552364"/></g></g><g fill="#0d0d0d" stroke="none" stroke-width="0.0" font-size="4.4560457384846645e-2" fill-opacity="1.0" text-anchor="end"><text x="-0.649738970884095" y="0.3525875913697358">00:00</text><text x="-0.649738970884095" y="0.25011312125318097">03:00</text><text x="-0.649738970884095" y="0.14763865113662616">06:00</text><text x="-0.649738970884095" y="4.5164181020071414e-2">09:00</text><text x="-0.649738970884095" y="-5.731028909648339e-2">12:00</text><text x="-0.649738970884095" y="-0.15978475921303814">15:00</text><text x="-0.649738970884095" y="-0.2622592293295929">18:00</text><text x="-0.649738970884095" y="-0.36473369944614764">21:00</text><text x="-0.649738970884095" y="-0.4672081695627025">00:00</text></g><g stroke-opacity="5.0e-2" fill="none" stroke="#0d0d0d" stroke-width="5.0e-3"><polyline points="-0.596266422022279,0.3413153996569147
0.7405472995231204,0.3413153996569147"/><polyline points="-0.596266422022279,0.2388409295403599
0.7405472995231204,0.2388409295403599"/><polyline points="-0.596266422022279,0.13636645942380515
0.7405472995231204,0.13636645942380515"/><polyline points="-0.596266422022279,3.389198930725035e-2
0.7405472995231204,3.389198930725035e-2"/><polyline points="-0.596266422022279,-6.85824808093044e-2
0.7405472995231204,-6.85824808093044e-2"/><polyline points="-0.596266422022279,-0.17105695092585915
0.7405472995231204,-0.17105695092585915"/><polyline points="-0.596266422022279,-0.273531421042414
0.7405472995231204,-0.273531421042414"/><polyline points="-0.596266422022279,-0.3760058911589689
0.7405472995231204,-0.3760058911589689"/><polyline points="-0.596266422022279,-0.4784803612755236
0.7405472995231204,-0.4784803612755236"/></g></svg>