<svg width="439.76764531981405" xmlns:xlink="http://www.w3.org/1999/xlink" xmlns="http://www.w3.org/2000/svg" viewBox="-0.77 -0.5228904124118022 1.54 1.050554775724844" height="300.0"><style>svg {
  color-scheme: light dark;
}
@media (prefers-color-scheme:dark) {
  svg {
    background-color: #f0f0f0;
  }
}</style><g stroke-opacity="0.4" fill="#0d0d0d" stroke="#0d0d0d" stroke-width="4.0e-3" fill-opacity="0.4"><polyline points="-0.591484249882333,0.37667090754096255
-0.591484249882333,0.3466709075409625"/><polyline points="-0.24816849549078213,0.37667090754096255
-0.24816849549078213,0.3466709075409625"/><polyline points="0.17754303995474108,0.37667090754096255
0.17754303995474108,0.3466709075409625"/><polyline points="0.5620566848732782,0.37667090754096255
0.5620566848732782,0.3466709075409625"/><polyline points="0.7405808771568845,0.37667090754096255
0.7405808771568845,0.3466709075409625"/></g><g fill="#0d0d0d" stroke="none" stroke-width="0.0" font-size="4.440217090130726e-2" fill-opacity="1.0" text-anchor="end"><text x="-0.591484249882333" y="0.4134731348818867" transform="rotate(-45.0, -0.591484249882333, 0.4134731348818867)">06 Dec</text><text x="-0.24816849549078213" y="0.4134731348818867" transform="rotate(-45.0, -0.24816849549078213, 0.4134731348818867)">31 Dec</text><text x="0.17754303995474108" y="0.4134731348818867" transform="rotate(-45.0, 0.17754303995474108, 0.4134731348818867)">31 Jan</text><text x="0.5620566848732782" y="0.4134731348818867" transform="rotate(-45.0, 0.5620566848732782, 0.4134731348818867)">28 Feb</text><text x="0.7405808771568845" y="0.4134731348818867" transform="rotate(-45.0, 0.7405808771568845, 0.4134731348818867)">13 Mar</text></g><g stroke-opacity="5.0e-2" fill="none" stroke="#0d0d0d" stroke-width="5.0e-3"><polyline points="-0.591484249882333,0.33719741430902983
-0.591484249882333,-0.4785856934220588"/><polyline points="-0.24816849549078213,0.33719741430902983
-0.24816849549078213,-0.4785856934220588"/><polyline points="0.17754303995474108,0.33719741430902983
0.17754303995474108,-0.4785856934220588"/><polyline points="0.5620566848732782,0.33719741430902983
0.5620566848732782,-0.4785856934220588"/><polyline points="0.7405808771568845,0.33719741430902983
0.7405808771568845,-0.4785856934220588"/></g><g stroke-opacity="0.0" fill="#0d0d0d" stroke="#000000" stroke-width="0.0" fill-opacity="0.4"><rect width="1.3356173007113223" x="-0.5932603367183853" y="0.34535524538634077" height="3.2631324309243537e-3"/></g><g stroke-opacity="0.4" fill="#0d0d0d" stroke="#0d0d0d" stroke-width="4.0e-3" fill-opacity="0.4"><g transform="rotate(-90.0, -0.6181255524231174, 0.33719741430902983)"><polyline points="-0.6181255524231174,0.35219741430902984
-0.6181255524231174,0.3221974143090298"/></g><g transform="rotate(-90.0, -0.6181255524231174, 0.23522452584264375)"><polyline points="-0.6181255524231174,0.25022452584264376
-0.6181255524231174,0.22022452584264374"/></g><g transform="rotate(-90.0, -0.6181255524231174, 0.13325163737625767)"><polyline points="-0.6181255524231174,0.14825163737625768
-0.6181255524231174,0.11825163737625767"/></g><g transform="rotate(-90.0, -0.6181255524231174, 3.127874890987159e-2)"><polyline points="-0.6181255524231174,4.627874890987159e-2
-0.6181255524231174,1.627874890987159e-2"/></g><g transform="rotate(-90.0, -0.6181255524231174, -7.069413955651449e-2)"><polyline points="-0.6181255524231174,-5.569413955651449e-2
-0.6181255524231174,-8.569413955651449e-2"/></g><g transform="rotate(-90.0, -0.6181255524231174, -0.17266702802290057)"><polyline points="-0.6181255524231174,-0.15766702802290056
-0.6181255524231174,-0.18766702802290058"/></g><g transform="rotate(-90.0, -0.6181255524231174, -0.27463991648928665)"><polyline points="-0.6181255524231174,-0.25963991648928664
-0.6181255524231174,-0.28963991648928666"/></g><g transform="rotate(-90.0, -0.6181255524231174, -0.37661280495567273)"><polyline points="-0.6181255524231174,-0.3616128049556727
-0.6181255524231174,-0.39161280495567274"/></g><g transform="rotate(-90.0, -0.6181255524231174, -0.4785856934220588)"><polyline points="-0.6181255524231174,-0.4635856934220588
-0.6181255524231174,-0.4935856934220588"/></g></g><g fill="#0d0d0d" stroke="none" stroke-width="0.0" font-size="4.440217090130726e-2" fill-opacity="1.0" text-anchor="end"><text x="-0.6500951154720587" y="0.3484144320403324">00:00</text><text x="-0.6500951154720587" y="0.2464415435739462">03:00</text><text x="-0.6500951154720587" y="0.14446865510756013">06:00</text><text x="-0.6500951154720587" y="4.2495766641174104e-2">09:00</text><text x="-0.6500951154720587" y="-5.947712182521203e-2">12:00</text><text x="-0.6500951154720587" y="-0.1614500102915981">15:00</text><text x="-0.6500951154720587" y="-0.2634228987579842">18:00</text><text x="-0.6500951154720587" y="-0.36539578722437027">21:00</text><text x="-0.6500951154720587" y="-0.46736867569075635">00:00</text></g><g stroke-opacity="5.0e-2" fill="none" stroke="#0d0d0d" stroke-width="5.0e-3"><polyline points="-0.591484249882333,0.33719741430902983
0.7405808771568847,0.33719741430902983"/><polyline points="-0.591484249882333,0.23522452584264375
0.7405808771568847,0.23522452584264375"/><polyline points="-0.591484249882333,0.13325163737625767
0.7405808771568847,0.13325163737625767"/><polyline points="-0.591484249882333,3.127874890987159e-2
0.7405808771568847,3.127874890987159e-2"/><polyline points="-0.591484249882333,-7.069413955651449e-2
0.7405808771568847,-7.069413955651449e-2"/><polyline points="-0.591484249882333,-0.17266702802290057
0.7405808771568847,-0.17266702802290057"/><polyline points="-0.591484249882333,-0.27463991648928665
0.7405808771568847,-0.27463991648928665"/><polyline points="-0.591484249882333,-0.37661280495567273
0.7405808771568847,-0.37661280495567273"/><polyline points="-0.591484249882333,-0.4785856934220588
0.7405808771568847,-0.4785856934220588"/></g><g stroke-opacity="0.0" fill="#0d0d0d" stroke="#000000" stroke-width="0.0" fill-opacity="0.4"><rect width="3.552173672104586e-3" x="-0.603916857734699" y="-0.48021725963752115" height="0.8190462401620132"/></g></svg>