<svg width="443.7829331301712" xmlns:xlink="http://www.w3.org/1999/xlink" xmlns="http://www.w3.org/2000/svg" viewBox="-0.7700000000000001 -0.5208580194305817 1.5400145391153655 1.0410593270811828" height="300.0"><style>svg {
  color-scheme: light dark;
}
@media (prefers-color-scheme:dark) {
  svg {
    background-color: #f0f0f0;
  }
}</style><g stroke-opacity="1.0" fill="none" stroke="#b05929" stroke-width="1.5e-2"><polyline points="-0.6589615410639358,0.1988872926974442
-0.3167717287400422,0.1988872926974442
2.5418083583851225e-2,-0.3882155628500865"/></g><g stroke-opacity="1.0" fill="none" stroke="#a6cfe3" stroke-width="3.0e-2"><polyline points="-0.6589615410639358,0.3456630065843269
0.2991699334429663,-9.46641350763211e-2"/></g><g stroke-opacity="1.0" fill="none" stroke="#1f78b5" stroke-width="1.0e-2"><polyline points="-0.487866634901989,-0.2414398489632038
-0.487866634901989,0.3456630065843269"/></g><g stroke-opacity="1.0" fill="#0d0d0d" stroke="#0d0d0d" stroke-width="2.5e-3" fill-opacity="0.0"><rect width="0.23825535999404956" x="0.5072669646442036" y="-0.11823998411940162" height="0.14604183531744824"/></g><g fill="#0d0d0d" stroke="none" stroke-width="0.0" font-size="1.916262949013804e-2" fill-opacity="1.0" text-anchor="start"><text x="0.5232358225526519" y="2.849979837276584e-3">vertical</text></g><g stroke-opacity="1.0" fill="none" stroke="#1f78b5" stroke-width="1.0e-2"><polyline points="0.6241590045340457,-2.654109433481544e-3
0.7199721519847355,-2.654109433481544e-3"/></g><g fill="#0d0d0d" stroke="none" stroke-width="0.0" font-size="1.916262949013804e-2" fill-opacity="1.0" text-anchor="start"><text x="0.5232358225526519" y="-3.9714977189919454e-2">line</text></g><g stroke-opacity="1.0" fill="none" stroke="#a6cfe3" stroke-width="3.0e-2"><polyline points="0.6241590045340457,-4.5219066460677526e-2
0.7199721519847355,-4.5219066460677526e-2"/></g><g fill="#0d0d0d" stroke="none" stroke-width="0.0" font-size="1.916262949013804e-2" fill-opacity="1.0" text-anchor="start"><text x="0.5232358225526519" y="-8.227993421711544e-2">hockey</text></g><g stroke-opacity="1.0" fill="none" stroke="#b05929" stroke-width="1.5e-2"><polyline points="0.6241590045340457,-8.77840234878734e-2
0.7199721519847355,-8.77840234878734e-2"/></g><g fill="#0d0d0d" stroke="none" stroke-width="0.0" font-size="5.110034530703478e-2" fill-opacity="1.0" text-anchor="middle"><text x="-0.17493405153178843" y="-0.4599521930123004">Line Chart</text></g><g fill="#0d0d0d" stroke="none" stroke-width="0.0" font-size="3.193771581689674e-2" fill-opacity="1.0" text-anchor="end"><text x="0.4001159280785149" y="0.49060402404762354">Made with love and chart-svg</text></g><g stroke-opacity="0.0" fill="#0d0d0d" stroke="#000000" stroke-width="0.0" fill-opacity="0.4"><rect width="1.049655842976466" x="-0.6698203644416807" y="0.36400997082018716" height="2.9355142777376386e-3"/></g><g stroke-opacity="0.4" fill="#0d0d0d" stroke="#0d0d0d" stroke-width="4.0e-3" fill-opacity="0.4"><polyline points="-0.6685428558090049,0.3936875422088755
-0.6685428558090049,0.36368754220887545"/><polyline points="-0.49402605152381923,0.3936875422088755
-0.49402605152381923,0.36368754220887545"/><polyline points="-0.31950924723863344,0.3936875422088755
-0.31950924723863344,0.36368754220887545"/><polyline points="-0.1449924429534477,0.3936875422088755
-0.1449924429534477,0.36368754220887545"/><polyline points="2.952436133173797e-2,0.3936875422088755
2.952436133173797e-2,0.36368754220887545"/><polyline points="0.20404116561692376,0.3936875422088755
0.20404116561692376,0.36368754220887545"/><polyline points="0.3785579699021093,0.3936875422088755
0.3785579699021093,0.36368754220887545"/></g><g fill="#0d0d0d" stroke="none" stroke-width="0.0" font-size="3.193771581689674e-2" fill-opacity="1.0" text-anchor="middle"><text x="-0.6685428558090049" y="0.42088555995135424">0.0</text><text x="-0.49402605152381923" y="0.42088555995135424">0.5</text><text x="-0.31950924723863344" y="0.42088555995135424">1.0</text><text x="-0.1449924429534477" y="0.42088555995135424">1.5</text><text x="2.952436133173797e-2" y="0.42088555995135424">2.0</text><text x="0.20404116561692376" y="0.42088555995135424">2.5</text><text x="0.3785579699021093" y="0.42088555995135424">3.0</text></g><g stroke-opacity="5.0e-2" fill="none" stroke="#0d0d0d" stroke-width="5.0e-3"><polyline points="-0.6685428558090049,0.356671185125843
-0.6685428558090049,-0.3937196521208445"/><polyline points="-0.49402605152381923,0.356671185125843
-0.49402605152381923,-0.3937196521208445"/><polyline points="-0.31950924723863344,0.356671185125843
-0.31950924723863344,-0.3937196521208445"/><polyline points="-0.1449924429534477,0.356671185125843
-0.1449924429534477,-0.3937196521208445"/><polyline points="2.952436133173797e-2,0.356671185125843
2.952436133173797e-2,-0.3937196521208445"/><polyline points="0.20404116561692376,0.356671185125843
0.20404116561692376,-0.3937196521208445"/><polyline points="0.3785579699021093,0.356671185125843
0.3785579699021093,-0.3937196521208445"/></g><g stroke-opacity="0.0" fill="#0d0d0d" stroke="#000000" stroke-width="0.0" fill-opacity="0.4"><rect width="2.555017265351678e-3" x="-0.677485416237736" y="-0.3951874092597133" height="0.7533263515244252"/></g><g stroke-opacity="0.4" fill="#0d0d0d" stroke="#0d0d0d" stroke-width="4.0e-3" fill-opacity="0.4"><g transform="rotate(-90.0, -0.6877054852991429, 0.356671185125843)"><polyline points="-0.6877054852991429,0.371671185125843
-0.6877054852991429,0.341671185125843"/></g><g transform="rotate(-90.0, -0.6877054852991429, 0.28163210140117434)"><polyline points="-0.6877054852991429,0.29663210140117435
-0.6877054852991429,0.2666321014011743"/></g><g transform="rotate(-90.0, -0.6877054852991429, 0.20659301767650556)"><polyline points="-0.6877054852991429,0.22159301767650558
-0.6877054852991429,0.19159301767650555"/></g><g transform="rotate(-90.0, -0.6877054852991429, 0.1315539339518368)"><polyline points="-0.6877054852991429,0.1465539339518368
-0.6877054852991429,0.11655393395183679"/></g><g transform="rotate(-90.0, -0.6877054852991429, 5.651485022716801e-2)"><polyline points="-0.6877054852991429,7.151485022716801e-2
-0.6877054852991429,4.151485022716801e-2"/></g><g transform="rotate(-90.0, -0.6877054852991429, -1.8524233497500764e-2)"><polyline points="-0.6877054852991429,-3.5242334975007644e-3
-0.6877054852991429,-3.352423349750076e-2"/></g><g transform="rotate(-90.0, -0.6877054852991429, -9.35633172221696e-2)"><polyline points="-0.6877054852991429,-7.85633172221696e-2
-0.6877054852991429,-0.1085633172221696"/></g><g transform="rotate(-90.0, -0.6877054852991429, -0.1686024009468382)"><polyline points="-0.6877054852991429,-0.1536024009468382
-0.6877054852991429,-0.18360240094683822"/></g><g transform="rotate(-90.0, -0.6877054852991429, -0.24364148467150704)"><polyline points="-0.6877054852991429,-0.22864148467150702
-0.6877054852991429,-0.25864148467150705"/></g><g transform="rotate(-90.0, -0.6877054852991429, -0.31868056839617576)"><polyline points="-0.6877054852991429,-0.30368056839617574
-0.6877054852991429,-0.33368056839617577"/></g><g transform="rotate(-90.0, -0.6877054852991429, -0.3937196521208445)"><polyline points="-0.6877054852991429,-0.37871965212084446
-0.6877054852991429,-0.4087196521208445"/></g></g><g fill="#0d0d0d" stroke="none" stroke-width="0.0" font-size="3.193771581689674e-2" fill-opacity="1.0" text-anchor="end"><text x="-0.706868114789281" y="0.3667620154555663">0.0</text><text x="-0.706868114789281" y="0.2917229317308975">0.5</text><text x="-0.706868114789281" y="0.21668384800622875">1.0</text><text x="-0.706868114789281" y="0.14164476428155998">1.5</text><text x="-0.706868114789281" y="6.66056805568912e-2">2.0</text><text x="-0.706868114789281" y="-8.433403167777409e-3">2.5</text><text x="-0.706868114789281" y="-8.347248689244624e-2">3.0</text><text x="-0.706868114789281" y="-0.15851157061711496">3.5</text><text x="-0.706868114789281" y="-0.2335506543417839">4.0</text><text x="-0.706868114789281" y="-0.3085897380664526">4.5</text><text x="-0.706868114789281" y="-0.38362882179112134">5.0</text></g><g stroke-opacity="5.0e-2" fill="none" stroke="#0d0d0d" stroke-width="5.0e-3"><polyline points="-0.6685428558090049,0.356671185125843
0.3785579699021093,0.356671185125843"/><polyline points="-0.6685428558090049,0.28163210140117434
0.3785579699021093,0.28163210140117434"/><polyline points="-0.6685428558090049,0.20659301767650556
0.3785579699021093,0.20659301767650556"/><polyline points="-0.6685428558090049,0.1315539339518368
0.3785579699021093,0.1315539339518368"/><polyline points="-0.6685428558090049,5.651485022716801e-2
0.3785579699021093,5.651485022716801e-2"/><polyline points="-0.6685428558090049,-1.8524233497500764e-2
0.3785579699021093,-1.8524233497500764e-2"/><polyline points="-0.6685428558090049,-9.35633172221696e-2
0.3785579699021093,-9.35633172221696e-2"/><polyline points="-0.6685428558090049,-0.1686024009468382
0.3785579699021093,-0.1686024009468382"/><polyline points="-0.6685428558090049,-0.24364148467150704
0.3785579699021093,-0.24364148467150704"/><polyline points="-0.6685428558090049,-0.31868056839617576
0.3785579699021093,-0.31868056839617576"/><polyline points="-0.6685428558090049,-0.3937196521208445
0.3785579699021093,-0.3937196521208445"/></g><g stroke-opacity="1.0" fill="#a6cfe3" stroke="#1f78b5" stroke-width="3.0e-3" fill-opacity="1.0"><circle cx="-0.1449924429534477" cy="-1.8524233497500764e-2" r="5.0e-3"/></g><g stroke-opacity="1.0" fill="#a6cfe3" stroke="#1f78b5" stroke-width="3.0e-3" fill-opacity="1.0"><circle cx="-0.1449924429534477" cy="-1.8524233497500764e-2" r="5.0e-3"/></g><g stroke-opacity="1.0" fill="#a6cfe3" stroke="#1f78b5" stroke-width="3.0e-3" fill-opacity="1.0"><circle cx="-0.6589615410639358" cy="0.1988872926974442" r="5.0e-3"/><circle cx="-0.3167717287400422" cy="0.1988872926974442" r="5.0e-3"/><circle cx="2.5418083583851225e-2" cy="-0.3882155628500865" r="5.0e-3"/></g><g stroke-opacity="1.0" fill="#a6cfe3" stroke="#1f78b5" stroke-width="3.0e-3" fill-opacity="1.0"><circle cx="-0.6589615410639358" cy="0.3456630065843269" r="5.0e-3"/><circle cx="0.2991699334429663" cy="-9.46641350763211e-2" r="5.0e-3"/></g><g stroke-opacity="1.0" fill="#a6cfe3" stroke="#1f78b5" stroke-width="3.0e-3" fill-opacity="1.0"><circle cx="-0.487866634901989" cy="-0.2414398489632038" r="5.0e-3"/><circle cx="-0.487866634901989" cy="0.3456630065843269" r="5.0e-3"/></g><g stroke-opacity="1.0" fill="#a6cfe3" stroke="#1f78b5" stroke-width="3.0e-3" fill-opacity="1.0"><circle cx="0.6263946446412281" cy="-4.5219066460677526e-2" r="5.0e-3"/></g><g stroke-opacity="1.0" fill="#a6cfe3" stroke="#1f78b5" stroke-width="3.0e-3" fill-opacity="1.0"><circle cx="0.6263946446412283" cy="-4.5219066460677526e-2" r="5.0e-3"/></g><g stroke-opacity="1.0" fill="#a6cfe3" stroke="#1f78b5" stroke-width="3.0e-3" fill-opacity="1.0"><circle cx="0.5232358225526519" cy="2.849979837276584e-3" r="5.0e-3"/></g><g stroke-opacity="1.0" fill="#a6cfe3" stroke="#1f78b5" stroke-width="3.0e-3" fill-opacity="1.0"><circle cx="0.6241590045340457" cy="-2.654109433481544e-3" r="5.0e-3"/><circle cx="0.7199721519847355" cy="-2.654109433481544e-3" r="5.0e-3"/></g><g stroke-opacity="1.0" fill="#a6cfe3" stroke="#1f78b5" stroke-width="3.0e-3" fill-opacity="1.0"><circle cx="0.5232358225526519" cy="-3.9714977189919454e-2" r="5.0e-3"/></g><g stroke-opacity="1.0" fill="#a6cfe3" stroke="#1f78b5" stroke-width="3.0e-3" fill-opacity="1.0"><circle cx="0.6241590045340457" cy="-4.5219066460677526e-2" r="5.0e-3"/><circle cx="0.7199721519847355" cy="-4.5219066460677526e-2" r="5.0e-3"/></g><g stroke-opacity="1.0" fill="#a6cfe3" stroke="#1f78b5" stroke-width="3.0e-3" fill-opacity="1.0"><circle cx="0.5232358225526519" cy="-8.227993421711544e-2" r="5.0e-3"/></g><g stroke-opacity="1.0" fill="#a6cfe3" stroke="#1f78b5" stroke-width="3.0e-3" fill-opacity="1.0"><circle cx="0.6241590045340457" cy="-8.77840234878734e-2" r="5.0e-3"/><circle cx="0.7199721519847355" cy="-8.77840234878734e-2" r="5.0e-3"/></g><g stroke-opacity="1.0" fill="#a6cfe3" stroke="#1f78b5" stroke-width="3.0e-3" fill-opacity="1.0"><circle cx="-0.17493405153178843" cy="-0.4599521930123004" r="5.0e-3"/></g><g stroke-opacity="1.0" fill="#a6cfe3" stroke="#1f78b5" stroke-width="3.0e-3" fill-opacity="1.0"><circle cx="0.4001159280785149" cy="0.49060402404762354" r="5.0e-3"/></g><g stroke-opacity="1.0" fill="#a6cfe3" stroke="#1f78b5" stroke-width="3.0e-3" fill-opacity="1.0"><circle cx="-0.1449924429534477" cy="0.365477727959056" r="5.0e-3"/></g><g stroke-opacity="1.0" fill="#a6cfe3" stroke="#1f78b5" stroke-width="3.0e-3" fill-opacity="1.0"><circle cx="-0.6685428558090049" cy="0.37868754220887546" r="5.0e-3"/><circle cx="-0.49402605152381923" cy="0.37868754220887546" r="5.0e-3"/><circle cx="-0.31950924723863344" cy="0.37868754220887546" r="5.0e-3"/><circle cx="-0.1449924429534477" cy="0.37868754220887546" r="5.0e-3"/><circle cx="2.952436133173797e-2" cy="0.37868754220887546" r="5.0e-3"/><circle cx="0.20404116561692376" cy="0.37868754220887546" r="5.0e-3"/><circle cx="0.3785579699021093" cy="0.37868754220887546" r="5.0e-3"/></g><g stroke-opacity="1.0" fill="#a6cfe3" stroke="#1f78b5" stroke-width="3.0e-3" fill-opacity="1.0"><circle cx="-0.6685428558090049" cy="0.42088555995135424" r="5.0e-3"/><circle cx="-0.49402605152381923" cy="0.42088555995135424" r="5.0e-3"/><circle cx="-0.31950924723863344" cy="0.42088555995135424" r="5.0e-3"/><circle cx="-0.1449924429534477" cy="0.42088555995135424" r="5.0e-3"/><circle cx="2.952436133173797e-2" cy="0.42088555995135424" r="5.0e-3"/><circle cx="0.20404116561692376" cy="0.42088555995135424" r="5.0e-3"/><circle cx="0.3785579699021093" cy="0.42088555995135424" r="5.0e-3"/></g><g stroke-opacity="1.0" fill="#a6cfe3" stroke="#1f78b5" stroke-width="3.0e-3" fill-opacity="1.0"><circle cx="-0.6685428558090049" cy="0.356671185125843" r="5.0e-3"/><circle cx="-0.6685428558090049" cy="-0.3937196521208445" r="5.0e-3"/><circle cx="-0.49402605152381923" cy="0.356671185125843" r="5.0e-3"/><circle cx="-0.49402605152381923" cy="-0.3937196521208445" r="5.0e-3"/><circle cx="-0.31950924723863344" cy="0.356671185125843" r="5.0e-3"/><circle cx="-0.31950924723863344" cy="-0.3937196521208445" r="5.0e-3"/><circle cx="-0.1449924429534477" cy="0.356671185125843" r="5.0e-3"/><circle cx="-0.1449924429534477" cy="-0.3937196521208445" r="5.0e-3"/><circle cx="2.952436133173797e-2" cy="0.356671185125843" r="5.0e-3"/><circle cx="2.952436133173797e-2" cy="-0.3937196521208445" r="5.0e-3"/><circle cx="0.20404116561692376" cy="0.356671185125843" r="5.0e-3"/><circle cx="0.20404116561692376" cy="-0.3937196521208445" r="5.0e-3"/><circle cx="0.3785579699021093" cy="0.356671185125843" r="5.0e-3"/><circle cx="0.3785579699021093" cy="-0.3937196521208445" r="5.0e-3"/></g><g stroke-opacity="1.0" fill="#a6cfe3" stroke="#1f78b5" stroke-width="3.0e-3" fill-opacity="1.0"><circle cx="-0.6762079076050601" cy="-1.8524233497500764e-2" r="5.0e-3"/></g><g stroke-opacity="1.0" fill="#a6cfe3" stroke="#1f78b5" stroke-width="3.0e-3" fill-opacity="1.0"><circle cx="-0.6877054852991429" cy="0.356671185125843" r="5.0e-3"/><circle cx="-0.6877054852991429" cy="0.28163210140117434" r="5.0e-3"/><circle cx="-0.6877054852991429" cy="0.20659301767650556" r="5.0e-3"/><circle cx="-0.6877054852991429" cy="0.1315539339518368" r="5.0e-3"/><circle cx="-0.6877054852991429" cy="5.651485022716801e-2" r="5.0e-3"/><circle cx="-0.6877054852991429" cy="-1.8524233497500764e-2" r="5.0e-3"/><circle cx="-0.6877054852991429" cy="-9.35633172221696e-2" r="5.0e-3"/><circle cx="-0.6877054852991429" cy="-0.1686024009468382" r="5.0e-3"/><circle cx="-0.6877054852991429" cy="-0.24364148467150704" r="5.0e-3"/><circle cx="-0.6877054852991429" cy="-0.31868056839617576" r="5.0e-3"/><circle cx="-0.6877054852991429" cy="-0.3937196521208445" r="5.0e-3"/></g><g stroke-opacity="1.0" fill="#a6cfe3" stroke="#1f78b5" stroke-width="3.0e-3" fill-opacity="1.0"><circle cx="-0.706868114789281" cy="0.3667620154555663" r="5.0e-3"/><circle cx="-0.706868114789281" cy="0.2917229317308975" r="5.0e-3"/><circle cx="-0.706868114789281" cy="0.21668384800622875" r="5.0e-3"/><circle cx="-0.706868114789281" cy="0.14164476428155998" r="5.0e-3"/><circle cx="-0.706868114789281" cy="6.66056805568912e-2" r="5.0e-3"/><circle cx="-0.706868114789281" cy="-8.433403167777409e-3" r="5.0e-3"/><circle cx="-0.706868114789281" cy="-8.347248689244624e-2" r="5.0e-3"/><circle cx="-0.706868114789281" cy="-0.15851157061711496" r="5.0e-3"/><circle cx="-0.706868114789281" cy="-0.2335506543417839" r="5.0e-3"/><circle cx="-0.706868114789281" cy="-0.3085897380664526" r="5.0e-3"/><circle cx="-0.706868114789281" cy="-0.38362882179112134" r="5.0e-3"/></g><g stroke-opacity="1.0" fill="#a6cfe3" stroke="#1f78b5" stroke-width="3.0e-3" fill-opacity="1.0"><circle cx="-0.6685428558090049" cy="0.356671185125843" r="5.0e-3"/><circle cx="0.3785579699021093" cy="0.356671185125843" r="5.0e-3"/><circle cx="-0.6685428558090049" cy="0.28163210140117434" r="5.0e-3"/><circle cx="0.3785579699021093" cy="0.28163210140117434" r="5.0e-3"/><circle cx="-0.6685428558090049" cy="0.20659301767650556" r="5.0e-3"/><circle cx="0.3785579699021093" cy="0.20659301767650556" r="5.0e-3"/><circle cx="-0.6685428558090049" cy="0.1315539339518368" r="5.0e-3"/><circle cx="0.3785579699021093" cy="0.1315539339518368" r="5.0e-3"/><circle cx="-0.6685428558090049" cy="5.651485022716801e-2" r="5.0e-3"/><circle cx="0.3785579699021093" cy="5.651485022716801e-2" r="5.0e-3"/><circle cx="-0.6685428558090049" cy="-1.8524233497500764e-2" r="5.0e-3"/><circle cx="0.3785579699021093" cy="-1.8524233497500764e-2" r="5.0e-3"/><circle cx="-0.6685428558090049" cy="-9.35633172221696e-2" r="5.0e-3"/><circle cx="0.3785579699021093" cy="-9.35633172221696e-2" r="5.0e-3"/><circle cx="-0.6685428558090049" cy="-0.1686024009468382" r="5.0e-3"/><circle cx="0.3785579699021093" cy="-0.1686024009468382" r="5.0e-3"/><circle cx="-0.6685428558090049" cy="-0.24364148467150704" r="5.0e-3"/><circle cx="0.3785579699021093" cy="-0.24364148467150704" r="5.0e-3"/><circle cx="-0.6685428558090049" cy="-0.31868056839617576" r="5.0e-3"/><circle cx="0.3785579699021093" cy="-0.31868056839617576" r="5.0e-3"/><circle cx="-0.6685428558090049" cy="-0.3937196521208445" r="5.0e-3"/><circle cx="0.3785579699021093" cy="-0.3937196521208445" r="5.0e-3"/></g><g stroke-opacity="1.0" fill="#1f78b5" stroke="#0d0d0d" stroke-width="1.0e-3" fill-opacity="0.2"><rect width="1.047100825711114" x="-0.6685428558090049" y="-0.3937196521208445" height="0.7503908372466874"/></g><g stroke-opacity="1.0" fill="#1f78b5" stroke="#0d0d0d" stroke-width="1.0e-3" fill-opacity="0.2"><rect width="1.047100825711114" x="-0.6685428558090049" y="-0.3937196521208445" height="0.7503908372466874"/></g><g stroke-opacity="1.0" fill="#1f78b5" stroke="#0d0d0d" stroke-width="1.0e-3" fill-opacity="0.2"><rect width="0.6939609393928562" x="-0.6637521984364704" y="-0.3937196521208445" height="0.5981110340890468"/></g><g stroke-opacity="1.0" fill="#1f78b5" stroke="#0d0d0d" stroke-width="1.0e-3" fill-opacity="0.2"><rect width="0.9772941039970403" x="-0.6685428558090049" y="-0.10567231361783735" height="0.46234349874368036"/></g><g stroke-opacity="1.0" fill="#1f78b5" stroke="#0d0d0d" stroke-width="1.0e-3" fill-opacity="0.2"><rect width="6.387543163379417e-3" x="-0.49106040648367877" y="-0.24510924181037586" height="0.5944416412418747"/></g><g stroke-opacity="1.0" fill="#1f78b5" stroke="#0d0d0d" stroke-width="1.0e-3" fill-opacity="0.2"><rect width="0.24623978894827392" x="0.5032747501670913" y="-0.12282672517836679" height="0.15521531743537847"/></g><g stroke-opacity="1.0" fill="#1f78b5" stroke="#0d0d0d" stroke-width="1.0e-3" fill-opacity="0.2"><rect width="0.2398522457848946" x="0.506468521748781" y="-0.11915733233119452" height="0.1478765317410342"/></g><g fill="#0d0d0d" stroke="none" stroke-width="0.0" font-size="1.916262949013804e-2" fill-opacity="1.0" text-anchor="start"><text x="0.5232358225526519" y="2.849979837276584e-3">vertical</text><g stroke-opacity="1.0" fill="#1f78b5" stroke="#0d0d0d" stroke-width="1.9162629490138042e-5" fill-opacity="0.2"><rect width="6.900462879398706e-2" x="0.5232262412379068" y="-1.248970506957892e-2" height="2.1098055068641985e-2"/></g></g><g stroke-opacity="1.0" fill="#1f78b5" stroke="#0d0d0d" stroke-width="1.0e-3" fill-opacity="0.2"><rect width="0.10220069061406933" x="0.6209652329523558" y="-6.323502280653592e-3" height="7.338785694344152e-3"/></g><g fill="#0d0d0d" stroke="none" stroke-width="0.0" font-size="1.916262949013804e-2" fill-opacity="1.0" text-anchor="start"><text x="0.5232358225526519" y="-3.9714977189919454e-2">line</text><g stroke-opacity="1.0" fill="#1f78b5" stroke="#0d0d0d" stroke-width="1.9162629490138042e-5" fill-opacity="0.2"><rect width="3.4511895711738516e-2" x="0.5232262412379068" y="-5.505466209677496e-2" height="2.1098055068641992e-2"/></g></g><g stroke-opacity="1.0" fill="#1f78b5" stroke="#0d0d0d" stroke-width="1.0e-3" fill-opacity="0.2"><rect width="0.11497577694082839" x="0.6145776897889763" y="-5.622724500219367e-2" height="2.20163570830324e-2"/></g><g fill="#0d0d0d" stroke="none" stroke-width="0.0" font-size="1.916262949013804e-2" fill-opacity="1.0" text-anchor="start"><text x="0.5232358225526519" y="-8.227993421711544e-2">hockey</text><g stroke-opacity="1.0" fill="#1f78b5" stroke="#0d0d0d" stroke-width="1.9162629490138042e-5" fill-opacity="0.2"><rect width="5.175826225286284e-2" x="0.5232262412379068" y="-9.761961912397094e-2" height="2.1098055068641985e-2"/></g></g><g stroke-opacity="1.0" fill="#1f78b5" stroke="#0d0d0d" stroke-width="1.0e-3" fill-opacity="0.2"><rect width="0.10539446219575943" x="0.6193683471615108" y="-9.328811275863158e-2" height="1.1008178541516145e-2"/></g><g fill="#0d0d0d" stroke="none" stroke-width="0.0" font-size="5.110034530703478e-2" fill-opacity="1.0" text-anchor="middle"><text x="-0.17493405153178843" y="-0.4599521930123004">Line Chart</text><g stroke-opacity="1.0" fill="#1f78b5" stroke="#0d0d0d" stroke-width="5.110034530703478e-5" fill-opacity="0.2"><rect width="0.2300026542269636" x="-0.28993537864527025" y="-0.5008580194305817" height="5.626148018304533e-2"/></g></g><g fill="#0d0d0d" stroke="none" stroke-width="0.0" font-size="3.193771581689674e-2" fill-opacity="1.0" text-anchor="end"><text x="0.4001159280785149" y="0.49060402404762354">Made with love and chart-svg</text><g stroke-opacity="1.0" fill="#1f78b5" stroke="#0d0d0d" stroke-width="3.193771581689675e-5" fill-opacity="0.2"><rect width="0.40244715700871586" x="-2.3152600722924953e-3" y="0.4650378825361977" height="3.516342511440329e-2"/></g></g><g stroke-opacity="1.0" fill="#1f78b5" stroke="#0d0d0d" stroke-width="1.0e-3" fill-opacity="0.2"><rect width="1.049655842976466" x="-0.6698203644416807" y="0.36400997082018716" height="2.9355142777376386e-3"/></g><g stroke-opacity="1.0" fill="#1f78b5" stroke="#0d0d0d" stroke-width="1.0e-3" fill-opacity="0.2"><rect width="1.0497324934944268" x="-0.6698586897006611" y="0.3662116065284904" height="2.495187136077015e-2"/></g><g fill="#0d0d0d" stroke="none" stroke-width="0.0" font-size="3.193771581689674e-2" fill-opacity="1.0" text-anchor="middle"><text x="-0.6685428558090049" y="0.42088555995135424">0.0</text><g stroke-opacity="1.0" fill="#1f78b5" stroke="#0d0d0d" stroke-width="3.193771581689675e-5" fill-opacity="0.2"><rect width="4.314785406862742e-2" x="-0.6901167828433186" y="0.3953194184399284" height="3.516342511440329e-2"/></g><text x="-0.49402605152381923" y="0.42088555995135424">0.5</text><g stroke-opacity="1.0" fill="#1f78b5" stroke="#0d0d0d" stroke-width="3.193771581689675e-5" fill-opacity="0.2"><rect width="4.3147854068627534e-2" x="-0.515599978558133" y="0.3953194184399284" height="3.516342511440329e-2"/></g><text x="-0.31950924723863344" y="0.42088555995135424">1.0</text><g stroke-opacity="1.0" fill="#1f78b5" stroke="#0d0d0d" stroke-width="3.193771581689675e-5" fill-opacity="0.2"><rect width="4.3147854068627534e-2" x="-0.3410831742729472" y="0.3953194184399284" height="3.516342511440329e-2"/></g><text x="-0.1449924429534477" y="0.42088555995135424">1.5</text><g stroke-opacity="1.0" fill="#1f78b5" stroke="#0d0d0d" stroke-width="3.193771581689675e-5" fill-opacity="0.2"><rect width="4.314785406862748e-2" x="-0.16656636998776145" y="0.3953194184399284" height="3.516342511440329e-2"/></g><text x="2.952436133173797e-2" y="0.42088555995135424">2.0</text><g stroke-opacity="1.0" fill="#1f78b5" stroke="#0d0d0d" stroke-width="3.193771581689675e-5" fill-opacity="0.2"><rect width="4.3147854068627506e-2" x="7.950434297424218e-3" y="0.3953194184399284" height="3.516342511440329e-2"/></g><text x="0.20404116561692376" y="0.42088555995135424">2.5</text><g stroke-opacity="1.0" fill="#1f78b5" stroke="#0d0d0d" stroke-width="3.193771581689675e-5" fill-opacity="0.2"><rect width="4.314785406862748e-2" x="0.18246723858261002" y="0.3953194184399284" height="3.516342511440329e-2"/></g><text x="0.3785579699021093" y="0.42088555995135424">3.0</text><g stroke-opacity="1.0" fill="#1f78b5" stroke="#0d0d0d" stroke-width="3.193771581689675e-5" fill-opacity="0.2"><rect width="4.3147854068627534e-2" x="0.35698404286779556" y="0.3953194184399284" height="3.516342511440329e-2"/></g></g><g stroke-opacity="1.0" fill="#1f78b5" stroke="#0d0d0d" stroke-width="1.0e-3" fill-opacity="0.2"><rect width="1.0502945972928042" x="-0.6701397415998498" y="-0.3955543485444305" height="0.7540602300938595"/></g><g stroke-opacity="1.0" fill="#1f78b5" stroke="#0d0d0d" stroke-width="1.0e-3" fill-opacity="0.2"><rect width="2.555017265351678e-3" x="-0.677485416237736" y="-0.3951874092597133" height="0.7533263515244252"/></g><g stroke-opacity="1.0" fill="#1f78b5" stroke="#0d0d0d" stroke-width="1.0e-3" fill-opacity="0.2"><rect width="2.6316677833122526e-3" x="-0.6890213191907991" y="-0.40619558780122944" height="0.7753427086074576"/></g><g fill="#0d0d0d" stroke="none" stroke-width="0.0" font-size="3.193771581689674e-2" fill-opacity="1.0" text-anchor="end"><text x="-0.706868114789281" y="0.3667620154555663">0.0</text><g stroke-opacity="1.0" fill="#1f78b5" stroke="#0d0d0d" stroke-width="3.193771581689675e-5" fill-opacity="0.2"><rect width="4.3147854068627534e-2" x="-0.7500000000000001" y="0.34119587394414047" height="3.516342511440329e-2"/></g><text x="-0.706868114789281" y="0.2917229317308975">0.5</text><g stroke-opacity="1.0" fill="#1f78b5" stroke="#0d0d0d" stroke-width="3.193771581689675e-5" fill-opacity="0.2"><rect width="4.3147854068627534e-2" x="-0.7500000000000001" y="0.26615679021947164" height="3.516342511440329e-2"/></g><text x="-0.706868114789281" y="0.21668384800622875">1.0</text><g stroke-opacity="1.0" fill="#1f78b5" stroke="#0d0d0d" stroke-width="3.193771581689675e-5" fill-opacity="0.2"><rect width="4.3147854068627534e-2" x="-0.7500000000000001" y="0.19111770649480292" height="3.516342511440329e-2"/></g><text x="-0.706868114789281" y="0.14164476428155998">1.5</text><g stroke-opacity="1.0" fill="#1f78b5" stroke="#0d0d0d" stroke-width="3.193771581689675e-5" fill-opacity="0.2"><rect width="4.3147854068627534e-2" x="-0.7500000000000001" y="0.11607862277013414" height="3.516342511440329e-2"/></g><text x="-0.706868114789281" y="6.66056805568912e-2">2.0</text><g stroke-opacity="1.0" fill="#1f78b5" stroke="#0d0d0d" stroke-width="3.193771581689675e-5" fill-opacity="0.2"><rect width="4.3147854068627534e-2" x="-0.7500000000000001" y="4.1039539045465354e-2" height="3.516342511440332e-2"/></g><text x="-0.706868114789281" y="-8.433403167777409e-3">2.5</text><g stroke-opacity="1.0" fill="#1f78b5" stroke="#0d0d0d" stroke-width="3.193771581689675e-5" fill-opacity="0.2"><rect width="4.3147854068627534e-2" x="-0.7500000000000001" y="-3.3999544679203256e-2" height="3.516342511440332e-2"/></g><text x="-0.706868114789281" y="-8.347248689244624e-2">3.0</text><g stroke-opacity="1.0" fill="#1f78b5" stroke="#0d0d0d" stroke-width="3.193771581689675e-5" fill-opacity="0.2"><rect width="4.3147854068627534e-2" x="-0.7500000000000001" y="-0.10903862840387207" height="3.5163425114403304e-2"/></g><text x="-0.706868114789281" y="-0.15851157061711496">3.5</text><g stroke-opacity="1.0" fill="#1f78b5" stroke="#0d0d0d" stroke-width="3.193771581689675e-5" fill-opacity="0.2"><rect width="4.3147854068627534e-2" x="-0.7500000000000001" y="-0.1840777121285408" height="3.516342511440329e-2"/></g><text x="-0.706868114789281" y="-0.2335506543417839">4.0</text><g stroke-opacity="1.0" fill="#1f78b5" stroke="#0d0d0d" stroke-width="3.193771581689675e-5" fill-opacity="0.2"><rect width="4.3147854068627534e-2" x="-0.7500000000000001" y="-0.25911679585320974" height="3.516342511440329e-2"/></g><text x="-0.706868114789281" y="-0.3085897380664526">4.5</text><g stroke-opacity="1.0" fill="#1f78b5" stroke="#0d0d0d" stroke-width="3.193771581689675e-5" fill-opacity="0.2"><rect width="4.3147854068627534e-2" x="-0.7500000000000001" y="-0.33415587957787846" height="3.516342511440329e-2"/></g><text x="-0.706868114789281" y="-0.38362882179112134">5.0</text><g stroke-opacity="1.0" fill="#1f78b5" stroke="#0d0d0d" stroke-width="3.193771581689675e-5" fill-opacity="0.2"><rect width="4.3147854068627534e-2" x="-0.7500000000000001" y="-0.4091949633025472" height="3.516342511440329e-2"/></g></g><g stroke-opacity="1.0" fill="#1f78b5" stroke="#0d0d0d" stroke-width="1.0e-3" fill-opacity="0.2"><rect width="1.0502945972928042" x="-0.6701397415998498" y="-0.3955543485444305" height="0.7540602300938595"/></g></svg>