<svg height="300" viewBox="-0.75 -0.5 1.5 1.0" width="450" xmlns="http://www.w3.org/2000/svg" xmlns:xlink="http://www.w3.org/1999/xlink"><style>svg {
  color-scheme: light dark;
}
{
  .canvas g, .title g, .axisbar g, .ticktext g, .tickglyph g, .ticklines g, .legendContent g text {
    fill: rgb(5%, 5%, 5%);
  }
  .ticklines g, .tickglyph g, .legendBorder g {
    stroke: rgb(5%, 5%, 5%);
  }
  .legendBorder g {
    fill: rgb(94%, 94%, 94%);
  }
}
@media (prefers-color-scheme:dark) {
  .canvas g, .title g, .axisbar g, .ticktext g, .tickglyph g, .ticklines g, .legendContent g text {
    fill: rgb(94%, 94%, 94%);
  }
  .ticklines g, .tickglyph g, .legendBorder g {
    stroke: rgb(94%, 94%, 94%);
  }
  .legendBorder g {
    fill: rgb(5%, 5%, 5%);
  }
}</style><g class="chart"><g class="chart"><g class="line"><g fill="none" stroke="rgb(2%, 73%, 80%)" stroke-opacity="1.0" stroke-width="0.0150"><polyline points="-0.5895,0.1873 -0.1962,0.1873 0.1970,-0.3534"/></g><g fill="none" stroke="rgb(2%, 29%, 48%)" stroke-opacity="1.0" stroke-width="0.0150"><polyline points="-0.5895,0.3224 0.5116,-0.0830"/></g><g fill="none" stroke="rgb(66%, 7%, 55%)" stroke-opacity="1.0" stroke-width="0.0150"><polyline points="-0.3928,-0.2182 -0.3928,0.3224"/></g></g></g><g class="hud"><g class="frame"><g fill="rgb(100%, 100%, 100%)" fill-opacity="0.02" stroke="rgb(0%, 0%, 0%)" stroke-opacity="0" stroke-width="0"><rect height="0.6859" width="1.1856" x="-0.5954" y="-0.3584"/></g></g><g class="axis"><g class="ticks"><g class="tickglyph"><g fill="rgb(5%, 5%, 5%)" fill-opacity="0.4" stroke="rgb(5%, 5%, 5%)" stroke-opacity="0.4" stroke-width="0.0040"><g transform="rotate(-90.0, -0.6189, 0.3224)"><polyline points="-0.6189,0.3374
-0.6189,0.3074"/></g><g transform="rotate(-90.0, -0.6189, 0.2549)"><polyline points="-0.6189,0.2699
-0.6189,0.2399"/></g><g transform="rotate(-90.0, -0.6189, 0.1873)"><polyline points="-0.6189,0.2023
-0.6189,0.1723"/></g><g transform="rotate(-90.0, -0.6189, 0.1197)"><polyline points="-0.6189,0.1347
-0.6189,0.1047"/></g><g transform="rotate(-90.0, -0.6189, 0.0521)"><polyline points="-0.6189,0.0671
-0.6189,0.0371"/></g><g transform="rotate(-90.0, -0.6189, -0.0155)"><polyline points="-0.6189,-0.0005
-0.6189,-0.0305"/></g><g transform="rotate(-90.0, -0.6189, -0.0830)"><polyline points="-0.6189,-0.0680
-0.6189,-0.0980"/></g><g transform="rotate(-90.0, -0.6189, -0.1506)"><polyline points="-0.6189,-0.1356
-0.6189,-0.1656"/></g><g transform="rotate(-90.0, -0.6189, -0.2182)"><polyline points="-0.6189,-0.2032
-0.6189,-0.2332"/></g><g transform="rotate(-90.0, -0.6189, -0.2858)"><polyline points="-0.6189,-0.2708
-0.6189,-0.3008"/></g><g transform="rotate(-90.0, -0.6189, -0.3534)"><polyline points="-0.6189,-0.3384
-0.6189,-0.3684"/></g></g></g><g class="ticktext"><g fill="rgb(5%, 5%, 5%)" fill-opacity="1.0" font-size="0.0393" stroke="none" stroke-width="0.0" text-anchor="end"><text x="-0.6473" y="0.3317">0.00</text><text x="-0.6473" y="0.2642">0.50</text><text x="-0.6473" y="0.1966">1.00</text><text x="-0.6473" y="0.1290">1.50</text><text x="-0.6473" y="0.0614">2.00</text><text x="-0.6473" y="-0.0062">2.50</text><text x="-0.6473" y="-0.0737">3.00</text><text x="-0.6473" y="-0.1413">3.50</text><text x="-0.6473" y="-0.2089">4.00</text><text x="-0.6473" y="-0.2765">4.50</text><text x="-0.6473" y="-0.3441">5.00</text></g></g><g class="ticklines"><g fill="none" stroke="rgb(5%, 5%, 5%)" stroke-opacity="0.05" stroke-width="0.0050"><polyline points="-0.5895,0.3224 0.5902,0.3224"/><polyline points="-0.5895,0.2549 0.5902,0.2549"/><polyline points="-0.5895,0.1873 0.5902,0.1873"/><polyline points="-0.5895,0.1197 0.5902,0.1197"/><polyline points="-0.5895,0.0521 0.5902,0.0521"/><polyline points="-0.5895,-0.0155 0.5902,-0.0155"/><polyline points="-0.5895,-0.0830 0.5902,-0.0830"/><polyline points="-0.5895,-0.1506 0.5902,-0.1506"/><polyline points="-0.5895,-0.2182 0.5902,-0.2182"/><polyline points="-0.5895,-0.2858 0.5902,-0.2858"/><polyline points="-0.5895,-0.3534 0.5902,-0.3534"/></g></g></g><g class="axisbar"><g fill="rgb(5%, 5%, 5%)" fill-opacity="0.4" stroke="rgb(0%, 0%, 0%)" stroke-opacity="0" stroke-width="0"><rect height="0.6785" width="0.0031" x="-0.6064" y="-0.3547"/></g></g></g><g class="axis"><g class="ticks"><g class="tickglyph"><g fill="rgb(5%, 5%, 5%)" fill-opacity="0.4" stroke="rgb(5%, 5%, 5%)" stroke-opacity="0.4" stroke-width="0.0040"><polyline points="-0.5895,0.3628
-0.5895,0.3328"/><polyline points="-0.3928,0.3628
-0.3928,0.3328"/><polyline points="-0.1962,0.3628
-0.1962,0.3328"/><polyline points="0.0004,0.3628
0.0004,0.3328"/><polyline points="0.1970,0.3628
0.1970,0.3328"/><polyline points="0.3936,0.3628
0.3936,0.3328"/><polyline points="0.5902,0.3628
0.5902,0.3328"/></g></g><g class="ticktext"><g fill="rgb(5%, 5%, 5%)" fill-opacity="1.0" font-size="0.0393" stroke="none" stroke-width="0.0" text-anchor="middle"><text x="-0.5895" y="0.3907">0.00</text><text x="-0.3928" y="0.3907">0.50</text><text x="-0.1962" y="0.3907">1.00</text><text x="0.0004" y="0.3907">1.50</text><text x="0.1970" y="0.3907">2.00</text><text x="0.3936" y="0.3907">2.50</text><text x="0.5902" y="0.3907">3.00</text></g></g><g class="ticklines"><g fill="none" stroke="rgb(5%, 5%, 5%)" stroke-opacity="0.05" stroke-width="0.0050"><polyline points="-0.5895,0.3224 -0.5895,-0.3534"/><polyline points="-0.3928,0.3224 -0.3928,-0.3534"/><polyline points="-0.1962,0.3224 -0.1962,-0.3534"/><polyline points="0.0004,0.3224 0.0004,-0.3534"/><polyline points="0.1970,0.3224 0.1970,-0.3534"/><polyline points="0.3936,0.3224 0.3936,-0.3534"/><polyline points="0.5902,0.3224 0.5902,-0.3534"/></g></g></g><g class="axisbar"><g fill="rgb(5%, 5%, 5%)" fill-opacity="0.4" stroke="rgb(0%, 0%, 0%)" stroke-opacity="0" stroke-width="0"><rect height="0.0027" width="1.1828" x="-0.5910" y="0.3343"/></g></g></g><g class="title"><g fill="rgb(5%, 5%, 5%)" fill-opacity="1.0" font-size="0.0786" stroke="none" stroke-width="0.0" text-anchor="middle"><text x="-0.0462" y="-0.4184">Line Chart</text></g></g><g class="title"><g fill="rgb(5%, 5%, 5%)" fill-opacity="1.0" font-size="0.0472" stroke="none" stroke-width="0.0" text-anchor="end"><text x="0.6256" y="0.4603">Made with love and chart-svg</text></g></g><g class="legend"><g class="legendBorder"><g fill="rgb(99%, 99%, 99%)" fill-opacity="1.0" stroke="rgb(5%, 5%, 5%)" stroke-opacity="1.0" stroke-width="0.0025"><rect height="0.1791" width="0.3795" x="0.3346" y="0.0775"/></g></g><g class="legendContent"><g fill="rgb(5%, 5%, 5%)" fill-opacity="1.0" font-size="0.0393" stroke="none" stroke-width="0.0" text-anchor="start"><text x="0.3543" y="0.2295">palette1 2</text></g><g fill="none" stroke="rgb(66%, 7%, 55%)" stroke-opacity="1.0" stroke-width="0.0150"><polyline points="0.5706,0.2211 0.6885,0.2211"/></g><g fill="rgb(5%, 5%, 5%)" fill-opacity="1.0" font-size="0.0393" stroke="none" stroke-width="0.0" text-anchor="start"><text x="0.3543" y="0.1755">palette1 1</text></g><g fill="none" stroke="rgb(2%, 29%, 48%)" stroke-opacity="1.0" stroke-width="0.0150"><polyline points="0.5706,0.1670 0.6885,0.1670"/></g><g fill="rgb(5%, 5%, 5%)" fill-opacity="1.0" font-size="0.0393" stroke="none" stroke-width="0.0" text-anchor="start"><text x="0.3543" y="0.1214">palette1 0</text></g><g fill="none" stroke="rgb(2%, 73%, 80%)" stroke-opacity="1.0" stroke-width="0.0150"><polyline points="0.5706,0.1129 0.6885,0.1129"/></g></g></g><g class="frame"><g fill="rgb(100%, 100%, 100%)" fill-opacity="0.02" stroke="rgb(0%, 0%, 0%)" stroke-opacity="0" stroke-width="0"><rect height="0.9990" width="1.499" x="-0.7495" y="-0.4995"/></g></g></g><g class="glyphize"><g class="chart"><g class="line"><g fill="rgb(2%, 73%, 80%)" fill-opacity="0.2" stroke="rgb(2%, 29%, 48%)" stroke-opacity="1.0" stroke-width="0.0030"><circle cx="-0.5895" cy="0.1873" r="0.0050"/><circle cx="-0.1962" cy="0.1873" r="0.0050"/><circle cx="0.1970" cy="-0.3534" r="0.0050"/></g><g fill="rgb(2%, 73%, 80%)" fill-opacity="0.2" stroke="rgb(2%, 29%, 48%)" stroke-opacity="1.0" stroke-width="0.0030"><circle cx="-0.5895" cy="0.3224" r="0.0050"/><circle cx="0.5116" cy="-0.0830" r="0.0050"/></g><g fill="rgb(2%, 73%, 80%)" fill-opacity="0.2" stroke="rgb(2%, 29%, 48%)" stroke-opacity="1.0" stroke-width="0.0030"><circle cx="-0.3928" cy="-0.2182" r="0.0050"/><circle cx="-0.3928" cy="0.3224" r="0.0050"/></g></g><g fill="rgb(2%, 73%, 80%)" fill-opacity="0.2" stroke="rgb(2%, 29%, 48%)" stroke-opacity="1.0" stroke-width="0.0030"><circle cx="0.0004" cy="-0.0155" r="0.0050"/></g></g><g class="hud"><g class="frame"><g fill="rgb(2%, 73%, 80%)" fill-opacity="0.2" stroke="rgb(2%, 29%, 48%)" stroke-opacity="1.0" stroke-width="0.0030"><circle cx="-0.0026" cy="-0.0155" r="0.0050"/></g></g><g class="axis"><g class="ticks"><g class="tickglyph"><g fill="rgb(2%, 73%, 80%)" fill-opacity="0.2" stroke="rgb(2%, 29%, 48%)" stroke-opacity="1.0" stroke-width="0.0030"><circle cx="-0.6189" cy="0.3224" r="0.0050"/><circle cx="-0.6189" cy="0.2549" r="0.0050"/><circle cx="-0.6189" cy="0.1873" r="0.0050"/><circle cx="-0.6189" cy="0.1197" r="0.0050"/><circle cx="-0.6189" cy="0.0521" r="0.0050"/><circle cx="-0.6189" cy="-0.0155" r="0.0050"/><circle cx="-0.6189" cy="-0.0830" r="0.0050"/><circle cx="-0.6189" cy="-0.1506" r="0.0050"/><circle cx="-0.6189" cy="-0.2182" r="0.0050"/><circle cx="-0.6189" cy="-0.2858" r="0.0050"/><circle cx="-0.6189" cy="-0.3534" r="0.0050"/></g></g><g class="ticktext"><g fill="rgb(2%, 73%, 80%)" fill-opacity="0.2" stroke="rgb(2%, 29%, 48%)" stroke-opacity="1.0" stroke-width="0.0030"><circle cx="-0.6473" cy="0.3317" r="0.0050"/><circle cx="-0.6473" cy="0.2642" r="0.0050"/><circle cx="-0.6473" cy="0.1966" r="0.0050"/><circle cx="-0.6473" cy="0.1290" r="0.0050"/><circle cx="-0.6473" cy="0.0614" r="0.0050"/><circle cx="-0.6473" cy="-0.0062" r="0.0050"/><circle cx="-0.6473" cy="-0.0737" r="0.0050"/><circle cx="-0.6473" cy="-0.1413" r="0.0050"/><circle cx="-0.6473" cy="-0.2089" r="0.0050"/><circle cx="-0.6473" cy="-0.2765" r="0.0050"/><circle cx="-0.6473" cy="-0.3441" r="0.0050"/></g></g><g class="ticklines"><g fill="rgb(2%, 73%, 80%)" fill-opacity="0.2" stroke="rgb(2%, 29%, 48%)" stroke-opacity="1.0" stroke-width="0.0030"><circle cx="-0.5895" cy="0.3224" r="0.0050"/><circle cx="0.5902" cy="0.3224" r="0.0050"/><circle cx="-0.5895" cy="0.2549" r="0.0050"/><circle cx="0.5902" cy="0.2549" r="0.0050"/><circle cx="-0.5895" cy="0.1873" r="0.0050"/><circle cx="0.5902" cy="0.1873" r="0.0050"/><circle cx="-0.5895" cy="0.1197" r="0.0050"/><circle cx="0.5902" cy="0.1197" r="0.0050"/><circle cx="-0.5895" cy="0.0521" r="0.0050"/><circle cx="0.5902" cy="0.0521" r="0.0050"/><circle cx="-0.5895" cy="-0.0155" r="0.0050"/><circle cx="0.5902" cy="-0.0155" r="0.0050"/><circle cx="-0.5895" cy="-0.0830" r="0.0050"/><circle cx="0.5902" cy="-0.0830" r="0.0050"/><circle cx="-0.5895" cy="-0.1506" r="0.0050"/><circle cx="0.5902" cy="-0.1506" r="0.0050"/><circle cx="-0.5895" cy="-0.2182" r="0.0050"/><circle cx="0.5902" cy="-0.2182" r="0.0050"/><circle cx="-0.5895" cy="-0.2858" r="0.0050"/><circle cx="0.5902" cy="-0.2858" r="0.0050"/><circle cx="-0.5895" cy="-0.3534" r="0.0050"/><circle cx="0.5902" cy="-0.3534" r="0.0050"/></g></g></g><g class="axisbar"><g fill="rgb(2%, 73%, 80%)" fill-opacity="0.2" stroke="rgb(2%, 29%, 48%)" stroke-opacity="1.0" stroke-width="0.0030"><circle cx="-0.6048" cy="-0.0155" r="0.0050"/></g></g></g><g class="axis"><g class="ticks"><g class="tickglyph"><g fill="rgb(2%, 73%, 80%)" fill-opacity="0.2" stroke="rgb(2%, 29%, 48%)" stroke-opacity="1.0" stroke-width="0.0030"><circle cx="-0.5895" cy="0.3478" r="0.0050"/><circle cx="-0.3928" cy="0.3478" r="0.0050"/><circle cx="-0.1962" cy="0.3478" r="0.0050"/><circle cx="0.0004" cy="0.3478" r="0.0050"/><circle cx="0.1970" cy="0.3478" r="0.0050"/><circle cx="0.3936" cy="0.3478" r="0.0050"/><circle cx="0.5902" cy="0.3478" r="0.0050"/></g></g><g class="ticktext"><g fill="rgb(2%, 73%, 80%)" fill-opacity="0.2" stroke="rgb(2%, 29%, 48%)" stroke-opacity="1.0" stroke-width="0.0030"><circle cx="-0.5895" cy="0.3907" r="0.0050"/><circle cx="-0.3928" cy="0.3907" r="0.0050"/><circle cx="-0.1962" cy="0.3907" r="0.0050"/><circle cx="0.0004" cy="0.3907" r="0.0050"/><circle cx="0.1970" cy="0.3907" r="0.0050"/><circle cx="0.3936" cy="0.3907" r="0.0050"/><circle cx="0.5902" cy="0.3907" r="0.0050"/></g></g><g class="ticklines"><g fill="rgb(2%, 73%, 80%)" fill-opacity="0.2" stroke="rgb(2%, 29%, 48%)" stroke-opacity="1.0" stroke-width="0.0030"><circle cx="-0.5895" cy="0.3224" r="0.0050"/><circle cx="-0.5895" cy="-0.3534" r="0.0050"/><circle cx="-0.3928" cy="0.3224" r="0.0050"/><circle cx="-0.3928" cy="-0.3534" r="0.0050"/><circle cx="-0.1962" cy="0.3224" r="0.0050"/><circle cx="-0.1962" cy="-0.3534" r="0.0050"/><circle cx="0.0004" cy="0.3224" r="0.0050"/><circle cx="0.0004" cy="-0.3534" r="0.0050"/><circle cx="0.1970" cy="0.3224" r="0.0050"/><circle cx="0.1970" cy="-0.3534" r="0.0050"/><circle cx="0.3936" cy="0.3224" r="0.0050"/><circle cx="0.3936" cy="-0.3534" r="0.0050"/><circle cx="0.5902" cy="0.3224" r="0.0050"/><circle cx="0.5902" cy="-0.3534" r="0.0050"/></g></g></g><g class="axisbar"><g fill="rgb(2%, 73%, 80%)" fill-opacity="0.2" stroke="rgb(2%, 29%, 48%)" stroke-opacity="1.0" stroke-width="0.0030"><circle cx="0.0004" cy="0.3356" r="0.0050"/></g></g></g><g class="title"><g fill="rgb(2%, 73%, 80%)" fill-opacity="0.2" stroke="rgb(2%, 29%, 48%)" stroke-opacity="1.0" stroke-width="0.0030"><circle cx="-0.0462" cy="-0.4184" r="0.0050"/></g></g><g class="title"><g fill="rgb(2%, 73%, 80%)" fill-opacity="0.2" stroke="rgb(2%, 29%, 48%)" stroke-opacity="1.0" stroke-width="0.0030"><circle cx="0.6256" cy="0.4603" r="0.0050"/></g></g><g class="legend"><g class="legendBorder"><g fill="rgb(2%, 73%, 80%)" fill-opacity="0.2" stroke="rgb(2%, 29%, 48%)" stroke-opacity="1.0" stroke-width="0.0030"><circle cx="0.5244" cy="0.1670" r="0.0050"/></g><g fill="rgb(2%, 73%, 80%)" fill-opacity="0.2" stroke="rgb(2%, 29%, 48%)" stroke-opacity="1.0" stroke-width="0.0030"><circle cx="0.5244" cy="0.1670" r="0.0050"/></g><g fill="rgb(2%, 73%, 80%)" fill-opacity="0.2" stroke="rgb(2%, 29%, 48%)" stroke-opacity="1.0" stroke-width="0.0030"><circle cx="0.5244" cy="0.1670" r="0.0050"/></g></g><g class="legendContent"><g fill="rgb(2%, 73%, 80%)" fill-opacity="0.2" stroke="rgb(2%, 29%, 48%)" stroke-opacity="1.0" stroke-width="0.0030"><circle cx="0.3543" cy="0.2295" r="0.0050"/></g><g fill="rgb(2%, 73%, 80%)" fill-opacity="0.2" stroke="rgb(2%, 29%, 48%)" stroke-opacity="1.0" stroke-width="0.0030"><circle cx="0.5706" cy="0.2211" r="0.0050"/><circle cx="0.6885" cy="0.2211" r="0.0050"/></g><g fill="rgb(2%, 73%, 80%)" fill-opacity="0.2" stroke="rgb(2%, 29%, 48%)" stroke-opacity="1.0" stroke-width="0.0030"><circle cx="0.3543" cy="0.1755" r="0.0050"/></g><g fill="rgb(2%, 73%, 80%)" fill-opacity="0.2" stroke="rgb(2%, 29%, 48%)" stroke-opacity="1.0" stroke-width="0.0030"><circle cx="0.5706" cy="0.1670" r="0.0050"/><circle cx="0.6885" cy="0.1670" r="0.0050"/></g><g fill="rgb(2%, 73%, 80%)" fill-opacity="0.2" stroke="rgb(2%, 29%, 48%)" stroke-opacity="1.0" stroke-width="0.0030"><circle cx="0.3543" cy="0.1214" r="0.0050"/></g><g fill="rgb(2%, 73%, 80%)" fill-opacity="0.2" stroke="rgb(2%, 29%, 48%)" stroke-opacity="1.0" stroke-width="0.0030"><circle cx="0.5706" cy="0.1129" r="0.0050"/><circle cx="0.6885" cy="0.1129" r="0.0050"/></g></g></g><g class="frame"><g fill="rgb(2%, 73%, 80%)" fill-opacity="0.2" stroke="rgb(2%, 29%, 48%)" stroke-opacity="1.0" stroke-width="0.0030"><circle cx="0" cy="0" r="0.0050"/></g></g></g></g><g class="rectangularize"><g class="chart"><g class="line"><g fill="rgb(2%, 73%, 80%)" fill-opacity="0.05" stroke="rgb(5%, 5%, 5%)" stroke-opacity="1.0" stroke-width="0.0010"><rect height="0.5556" width="0.8015" x="-0.5969" y="-0.3609"/></g><g fill="rgb(2%, 73%, 80%)" fill-opacity="0.05" stroke="rgb(5%, 5%, 5%)" stroke-opacity="1.0" stroke-width="0.0010"><rect height="0.4205" width="1.1160" x="-0.5969" y="-0.0905"/></g><g fill="rgb(2%, 73%, 80%)" fill-opacity="0.05" stroke="rgb(5%, 5%, 5%)" stroke-opacity="1.0" stroke-width="0.0010"><rect height="0.5556" width="0.0150" x="-0.4003" y="-0.2257"/></g></g><g fill="rgb(2%, 73%, 80%)" fill-opacity="0.05" stroke="rgb(5%, 5%, 5%)" stroke-opacity="1.0" stroke-width="0.0010"><rect height="0.6758" width="1.1797" x="-0.5895" y="-0.3534"/></g></g><g class="hud"><g class="frame"><g fill="rgb(2%, 73%, 80%)" fill-opacity="0.05" stroke="rgb(5%, 5%, 5%)" stroke-opacity="1.0" stroke-width="0.0010"><rect height="0.6859" width="1.1856" x="-0.5954" y="-0.3584"/></g></g><g class="axis"><g class="ticks"><g class="tickglyph"><g fill="rgb(2%, 73%, 80%)" fill-opacity="0.05" stroke="rgb(5%, 5%, 5%)" stroke-opacity="1.0" stroke-width="0.0010"><rect height="0.6838" width="0.0340" x="-0.6359" y="-0.3574"/></g></g><g class="ticktext"><g fill="rgb(5%, 5%, 5%)" fill-opacity="1.0" font-size="0.0393" stroke="none" stroke-width="0.0" text-anchor="end"><text x="-0.6473" y="0.3317"><g fill="rgb(2%, 73%, 80%)" fill-opacity="0.05" stroke="rgb(5%, 5%, 5%)" stroke-opacity="1.0" stroke-width="0.0000"><rect height="0.0433" width="0.0708" x="-0.7181" y="0.3003"/></g>0.00</text><text x="-0.6473" y="0.2642"><g fill="rgb(2%, 73%, 80%)" fill-opacity="0.05" stroke="rgb(5%, 5%, 5%)" stroke-opacity="1.0" stroke-width="0.0000"><rect height="0.0433" width="0.0708" x="-0.7181" y="0.2327"/></g>0.50</text><text x="-0.6473" y="0.1966"><g fill="rgb(2%, 73%, 80%)" fill-opacity="0.05" stroke="rgb(5%, 5%, 5%)" stroke-opacity="1.0" stroke-width="0.0000"><rect height="0.0433" width="0.0708" x="-0.7181" y="0.1651"/></g>1.00</text><text x="-0.6473" y="0.1290"><g fill="rgb(2%, 73%, 80%)" fill-opacity="0.05" stroke="rgb(5%, 5%, 5%)" stroke-opacity="1.0" stroke-width="0.0000"><rect height="0.0433" width="0.0708" x="-0.7181" y="0.0975"/></g>1.50</text><text x="-0.6473" y="0.0614"><g fill="rgb(2%, 73%, 80%)" fill-opacity="0.05" stroke="rgb(5%, 5%, 5%)" stroke-opacity="1.0" stroke-width="0.0000"><rect height="0.0433" width="0.0708" x="-0.7181" y="0.0299"/></g>2.00</text><text x="-0.6473" y="-0.0062"><g fill="rgb(2%, 73%, 80%)" fill-opacity="0.05" stroke="rgb(5%, 5%, 5%)" stroke-opacity="1.0" stroke-width="0.0000"><rect height="0.0433" width="0.0708" x="-0.7181" y="-0.0376"/></g>2.50</text><text x="-0.6473" y="-0.0737"><g fill="rgb(2%, 73%, 80%)" fill-opacity="0.05" stroke="rgb(5%, 5%, 5%)" stroke-opacity="1.0" stroke-width="0.0000"><rect height="0.0433" width="0.0708" x="-0.7181" y="-0.1052"/></g>3.00</text><text x="-0.6473" y="-0.1413"><g fill="rgb(2%, 73%, 80%)" fill-opacity="0.05" stroke="rgb(5%, 5%, 5%)" stroke-opacity="1.0" stroke-width="0.0000"><rect height="0.0433" width="0.0708" x="-0.7181" y="-0.1728"/></g>3.50</text><text x="-0.6473" y="-0.2089"><g fill="rgb(2%, 73%, 80%)" fill-opacity="0.05" stroke="rgb(5%, 5%, 5%)" stroke-opacity="1.0" stroke-width="0.0000"><rect height="0.0433" width="0.0708" x="-0.7181" y="-0.2404"/></g>4.00</text><text x="-0.6473" y="-0.2765"><g fill="rgb(2%, 73%, 80%)" fill-opacity="0.05" stroke="rgb(5%, 5%, 5%)" stroke-opacity="1.0" stroke-width="0.0000"><rect height="0.0433" width="0.0708" x="-0.7181" y="-0.3080"/></g>4.50</text><text x="-0.6473" y="-0.3441"><g fill="rgb(2%, 73%, 80%)" fill-opacity="0.05" stroke="rgb(5%, 5%, 5%)" stroke-opacity="1.0" stroke-width="0.0000"><rect height="0.0433" width="0.0708" x="-0.7181" y="-0.3755"/></g>5.00</text></g></g><g class="ticklines"><g fill="rgb(2%, 73%, 80%)" fill-opacity="0.05" stroke="rgb(5%, 5%, 5%)" stroke-opacity="1.0" stroke-width="0.0010"><rect height="0.6808" width="1.1847" x="-0.5920" y="-0.3559"/></g></g></g><g class="axisbar"><g fill="rgb(2%, 73%, 80%)" fill-opacity="0.05" stroke="rgb(5%, 5%, 5%)" stroke-opacity="1.0" stroke-width="0.0010"><rect height="0.6785" width="0.0031" x="-0.6064" y="-0.3547"/></g></g></g><g class="axis"><g class="ticks"><g class="tickglyph"><g fill="rgb(2%, 73%, 80%)" fill-opacity="0.05" stroke="rgb(5%, 5%, 5%)" stroke-opacity="1.0" stroke-width="0.0010"><rect height="0.0340" width="1.1877" x="-0.5935" y="0.3308"/></g></g><g class="ticktext"><g fill="rgb(5%, 5%, 5%)" fill-opacity="1.0" font-size="0.0393" stroke="none" stroke-width="0.0" text-anchor="middle"><text x="-0.5895" y="0.3907"><g fill="rgb(2%, 73%, 80%)" fill-opacity="0.05" stroke="rgb(5%, 5%, 5%)" stroke-opacity="1.0" stroke-width="0.0000"><rect height="0.0433" width="0.0708" x="-0.6249" y="0.3592"/></g>0.00</text><text x="-0.3928" y="0.3907"><g fill="rgb(2%, 73%, 80%)" fill-opacity="0.05" stroke="rgb(5%, 5%, 5%)" stroke-opacity="1.0" stroke-width="0.0000"><rect height="0.0433" width="0.0708" x="-0.4282" y="0.3592"/></g>0.50</text><text x="-0.1962" y="0.3907"><g fill="rgb(2%, 73%, 80%)" fill-opacity="0.05" stroke="rgb(5%, 5%, 5%)" stroke-opacity="1.0" stroke-width="0.0000"><rect height="0.0433" width="0.0708" x="-0.2316" y="0.3592"/></g>1.00</text><text x="0.0004" y="0.3907"><g fill="rgb(2%, 73%, 80%)" fill-opacity="0.05" stroke="rgb(5%, 5%, 5%)" stroke-opacity="1.0" stroke-width="0.0000"><rect height="0.0433" width="0.0708" x="-0.0350" y="0.3592"/></g>1.50</text><text x="0.1970" y="0.3907"><g fill="rgb(2%, 73%, 80%)" fill-opacity="0.05" stroke="rgb(5%, 5%, 5%)" stroke-opacity="1.0" stroke-width="0.0000"><rect height="0.0433" width="0.0708" x="0.1616" y="0.3592"/></g>2.00</text><text x="0.3936" y="0.3907"><g fill="rgb(2%, 73%, 80%)" fill-opacity="0.05" stroke="rgb(5%, 5%, 5%)" stroke-opacity="1.0" stroke-width="0.0000"><rect height="0.0433" width="0.0708" x="0.3582" y="0.3592"/></g>2.50</text><text x="0.5902" y="0.3907"><g fill="rgb(2%, 73%, 80%)" fill-opacity="0.05" stroke="rgb(5%, 5%, 5%)" stroke-opacity="1.0" stroke-width="0.0000"><rect height="0.0433" width="0.0708" x="0.5548" y="0.3592"/></g>3.00</text></g></g><g class="ticklines"><g fill="rgb(2%, 73%, 80%)" fill-opacity="0.05" stroke="rgb(5%, 5%, 5%)" stroke-opacity="1.0" stroke-width="0.0010"><rect height="0.6808" width="1.1847" x="-0.5920" y="-0.3559"/></g></g></g><g class="axisbar"><g fill="rgb(2%, 73%, 80%)" fill-opacity="0.05" stroke="rgb(5%, 5%, 5%)" stroke-opacity="1.0" stroke-width="0.0010"><rect height="0.0027" width="1.1828" x="-0.5910" y="0.3343"/></g></g></g><g class="title"><g fill="rgb(5%, 5%, 5%)" fill-opacity="1.0" font-size="0.0786" stroke="none" stroke-width="0.0" text-anchor="middle"><text x="-0.0462" y="-0.4184"><g fill="rgb(2%, 73%, 80%)" fill-opacity="0.05" stroke="rgb(5%, 5%, 5%)" stroke-opacity="1.0" stroke-width="0.0001"><rect height="0.0866" width="0.3540" x="-0.2232" y="-0.4814"/></g>Line Chart</text></g></g><g class="title"><g fill="rgb(5%, 5%, 5%)" fill-opacity="1.0" font-size="0.0472" stroke="none" stroke-width="0.0" text-anchor="end"><text x="0.6256" y="0.4603"><g fill="rgb(2%, 73%, 80%)" fill-opacity="0.05" stroke="rgb(5%, 5%, 5%)" stroke-opacity="1.0" stroke-width="0.0000"><rect height="0.0520" width="0.5946" x="0.0310" y="0.4225"/></g>Made with love and chart-svg</text></g></g><g class="legend"><g class="legendBorder"><g fill="rgb(2%, 73%, 80%)" fill-opacity="0.05" stroke="rgb(5%, 5%, 5%)" stroke-opacity="1.0" stroke-width="0.0010"><rect height="0.1858" width="0.3873" x="0.3307" y="0.0741"/></g><g fill="rgb(2%, 73%, 80%)" fill-opacity="0.05" stroke="rgb(5%, 5%, 5%)" stroke-opacity="1.0" stroke-width="0.0010"><rect height="0.1791" width="0.3795" x="0.3346" y="0.0775"/></g><g fill="rgb(2%, 73%, 80%)" fill-opacity="0.05" stroke="rgb(5%, 5%, 5%)" stroke-opacity="1.0" stroke-width="0.0010"><rect height="0.1816" width="0.3820" x="0.3334" y="0.0762"/></g></g><g class="legendContent"><g fill="rgb(5%, 5%, 5%)" fill-opacity="1.0" font-size="0.0393" stroke="none" stroke-width="0.0" text-anchor="start"><text x="0.3543" y="0.2295"><g fill="rgb(2%, 73%, 80%)" fill-opacity="0.05" stroke="rgb(5%, 5%, 5%)" stroke-opacity="1.0" stroke-width="0.0000"><rect height="0.0433" width="0.1770" x="0.3543" y="0.1980"/></g>palette1 2</text></g><g fill="rgb(2%, 73%, 80%)" fill-opacity="0.05" stroke="rgb(5%, 5%, 5%)" stroke-opacity="1.0" stroke-width="0.0010"><rect height="0.0150" width="0.1330" x="0.5631" y="0.2136"/></g><g fill="rgb(5%, 5%, 5%)" fill-opacity="1.0" font-size="0.0393" stroke="none" stroke-width="0.0" text-anchor="start"><text x="0.3543" y="0.1755"><g fill="rgb(2%, 73%, 80%)" fill-opacity="0.05" stroke="rgb(5%, 5%, 5%)" stroke-opacity="1.0" stroke-width="0.0000"><rect height="0.0433" width="0.1770" x="0.3543" y="0.1440"/></g>palette1 1</text></g><g fill="rgb(2%, 73%, 80%)" fill-opacity="0.05" stroke="rgb(5%, 5%, 5%)" stroke-opacity="1.0" stroke-width="0.0010"><rect height="0.0150" width="0.1330" x="0.5631" y="0.1595"/></g><g fill="rgb(5%, 5%, 5%)" fill-opacity="1.0" font-size="0.0393" stroke="none" stroke-width="0.0" text-anchor="start"><text x="0.3543" y="0.1214"><g fill="rgb(2%, 73%, 80%)" fill-opacity="0.05" stroke="rgb(5%, 5%, 5%)" stroke-opacity="1.0" stroke-width="0.0000"><rect height="0.0433" width="0.1770" x="0.3543" y="0.0899"/></g>palette1 0</text></g><g fill="rgb(2%, 73%, 80%)" fill-opacity="0.05" stroke="rgb(5%, 5%, 5%)" stroke-opacity="1.0" stroke-width="0.0010"><rect height="0.0150" width="0.1330" x="0.5631" y="0.1055"/></g></g></g><g class="frame"><g fill="rgb(2%, 73%, 80%)" fill-opacity="0.05" stroke="rgb(5%, 5%, 5%)" stroke-opacity="1.0" stroke-width="0.0010"><rect height="0.9990" width="1.499" x="-0.7495" y="-0.4995"/></g></g></g></g></g><g class="hud"/></svg>