<svg width="444.230534692315" xmlns:xlink="http://www.w3.org/1999/xlink" xmlns="http://www.w3.org/2000/svg" viewBox="-0.7700003331112591 -0.5200004995004995 1.5400006662225185 1.040000999000999" height="300.0"><style>svg {
  color-scheme: light dark;
}
{
  .canvas g, .title g, .axisbar g, .ticktext g, .tickglyph g, .ticklines g, .legendContent g text {
    fill: #0d0d0d;
  }
  .ticklines g, .tickglyph g, .legendBorder g {
    stroke: #0d0d0d;
  }
}
@media (prefers-color-scheme:dark) {
  .canvas g, .title g, .axisbar g, .ticktext g, .tickglyph g, .ticklines g, .legendContent g text {
    fill: #f0f0f0;
  }
  .ticklines g, .tickglyph g, .legendBorder g {
    stroke: #f0f0f0;
  }
}</style><g class="chart"><g class="chart"><g class="line"><g stroke-opacity="1.0" fill="none" stroke="#b05929" stroke-width="1.5e-2"><polyline points="-0.6278677599634633,0.1888733236271432
-0.28387775313510377,0.1888733236271432
6.011225369325579e-2,-0.36863253431379306"/></g><g stroke-opacity="1.0" fill="none" stroke="#a6cfe3" stroke-width="3.0e-2"><polyline points="-0.6278677599634633,0.3282497881123773
0.33530425915594364,-8.987960534332495e-2"/></g><g stroke-opacity="1.0" fill="none" stroke="#1f78b5" stroke-width="1.0e-2"><polyline points="-0.4558727565492836,-0.22925606982855906
-0.4558727565492836,0.3282497881123773"/></g></g></g><g class="hud"><g><g class="axis"><g class="ticks"><g class="tickglyph"><g stroke-opacity="0.4" fill="#0d0d0d" stroke="#0d0d0d" stroke-width="4.0e-3" fill-opacity="0.4"><g transform="rotate(-90.0, -0.6588268605780158, 0.3387030229487699)"><polyline points="-0.6588268605780158,0.35370302294876993
-0.6588268605780158,0.3237030229487699"/></g><g transform="rotate(-90.0, -0.6588268605780158, 0.267446805480694)"><polyline points="-0.6588268605780158,0.282446805480694
-0.6588268605780158,0.252446805480694"/></g><g transform="rotate(-90.0, -0.6588268605780158, 0.19619058801261802)"><polyline points="-0.6588268605780158,0.21119058801261803
-0.6588268605780158,0.181190588012618"/></g><g transform="rotate(-90.0, -0.6588268605780158, 0.1249343705445421)"><polyline points="-0.6588268605780158,0.1399343705445421
-0.6588268605780158,0.1099343705445421"/></g><g transform="rotate(-90.0, -0.6588268605780158, 5.367815307646617e-2)"><polyline points="-0.6588268605780158,6.867815307646617e-2
-0.6588268605780158,3.8678153076466174e-2"/></g><g transform="rotate(-90.0, -0.6588268605780158, -1.7578064391609693e-2)"><polyline points="-0.6588268605780158,-2.578064391609694e-3
-0.6588268605780158,-3.257806439160969e-2"/></g><g transform="rotate(-90.0, -0.6588268605780158, -8.883428185968567e-2)"><polyline points="-0.6588268605780158,-7.383428185968567e-2
-0.6588268605780158,-0.10383428185968567"/></g><g transform="rotate(-90.0, -0.6588268605780158, -0.16009049932776154)"><polyline points="-0.6588268605780158,-0.14509049932776152
-0.6588268605780158,-0.17509049932776155"/></g><g transform="rotate(-90.0, -0.6588268605780158, -0.23134671679583751)"><polyline points="-0.6588268605780158,-0.2163467167958375
-0.6588268605780158,-0.24634671679583753"/></g><g transform="rotate(-90.0, -0.6588268605780158, -0.3026029342639135)"><polyline points="-0.6588268605780158,-0.2876029342639135
-0.6588268605780158,-0.3176029342639135"/></g><g transform="rotate(-90.0, -0.6588268605780158, -0.37385915173198925)"><polyline points="-0.6588268605780158,-0.35885915173198923
-0.6588268605780158,-0.38885915173198926"/></g></g></g><g class="ticktext"><g fill="#0d0d0d" stroke="none" stroke-width="0.0" font-size="3.439900068283596e-2" fill-opacity="1.0" text-anchor="end"><text x="-0.6835941410696578" y="0.34828515488212985">0.0</text><text x="-0.6835941410696578" y="0.27702893741405377">0.5</text><text x="-0.6835941410696578" y="0.2057727199459779">1.0</text><text x="-0.6835941410696578" y="0.13451650247790192">1.5</text><text x="-0.6835941410696578" y="6.3260285009826e-2">2.0</text><text x="-0.6835941410696578" y="-7.99593245824981e-3">2.5</text><text x="-0.6835941410696578" y="-7.925214992632579e-2">3.0</text><text x="-0.6835941410696578" y="-0.15050836739440177">3.5</text><text x="-0.6835941410696578" y="-0.22176458486247763">4.0</text><text x="-0.6835941410696578" y="-0.2930208023305536">4.5</text><text x="-0.6835941410696578" y="-0.3642770197986296">5.0</text></g></g><g class="ticklines"><g stroke-opacity="5.0e-2" fill="none" stroke="#0d0d0d" stroke-width="5.0e-3"><polyline points="-0.6381874601683141,0.3387030229487699
0.34562395936079415,0.3387030229487699"/><polyline points="-0.6381874601683141,0.267446805480694
0.34562395936079415,0.267446805480694"/><polyline points="-0.6381874601683141,0.19619058801261802
0.34562395936079415,0.19619058801261802"/><polyline points="-0.6381874601683141,0.1249343705445421
0.34562395936079415,0.1249343705445421"/><polyline points="-0.6381874601683141,5.367815307646617e-2
0.34562395936079415,5.367815307646617e-2"/><polyline points="-0.6381874601683141,-1.7578064391609693e-2
0.34562395936079415,-1.7578064391609693e-2"/><polyline points="-0.6381874601683141,-8.883428185968567e-2
0.34562395936079415,-8.883428185968567e-2"/><polyline points="-0.6381874601683141,-0.16009049932776154
0.34562395936079415,-0.16009049932776154"/><polyline points="-0.6381874601683141,-0.23134671679583751
0.34562395936079415,-0.23134671679583751"/><polyline points="-0.6381874601683141,-0.3026029342639135
0.34562395936079415,-0.3026029342639135"/><polyline points="-0.6381874601683141,-0.37385915173198925
0.34562395936079415,-0.37385915173198925"/></g></g></g><g class="axisbar"><g stroke-opacity="0.0" fill="#0d0d0d" stroke="#000000" stroke-width="0.0" fill-opacity="0.4"><rect width="2.7519200546267664e-3" x="-0.6478191803595083" y="-0.3752529163768419" height="0.7153497039704642"/></g></g></g><g class="axis"><g class="ticks"><g class="tickglyph"><g stroke-opacity="0.4" fill="#0d0d0d" stroke="#0d0d0d" stroke-width="4.0e-3" fill-opacity="0.4"><polyline points="-0.6381874601683141,0.3746094926215551
-0.6381874601683141,0.34460949262155505"/><polyline points="-0.4742188902467962,0.3746094926215551
-0.4742188902467962,0.34460949262155505"/><polyline points="-0.310250320325278,0.3746094926215551
-0.310250320325278,0.34460949262155505"/><polyline points="-0.1462817504037599,0.3746094926215551
-0.1462817504037599,0.34460949262155505"/><polyline points="1.768681951775808e-2,0.3746094926215551
1.768681951775808e-2,0.34460949262155505"/><polyline points="0.18165538943927617,0.3746094926215551
0.18165538943927617,0.34460949262155505"/><polyline points="0.34562395936079415,0.3746094926215551
0.34562395936079415,0.34460949262155505"/></g></g><g class="ticktext"><g fill="#0d0d0d" stroke="none" stroke-width="0.0" font-size="3.439900068283596e-2" fill-opacity="1.0" text-anchor="middle"><text x="-0.6381874601683141" y="0.4038615200956169">0.0</text><text x="-0.4742188902467962" y="0.4038615200956169">0.5</text><text x="-0.310250320325278" y="0.4038615200956169">1.0</text><text x="-0.1462817504037599" y="0.4038615200956169">1.5</text><text x="1.768681951775808e-2" y="0.4038615200956169">2.0</text><text x="0.18165538943927617" y="0.4038615200956169">2.5</text><text x="0.34562395936079415" y="0.4038615200956169">3.0</text></g></g><g class="ticklines"><g stroke-opacity="5.0e-2" fill="none" stroke="#0d0d0d" stroke-width="5.0e-3"><polyline points="-0.6381874601683141,0.3387030229487699
-0.6381874601683141,-0.37385915173198925"/><polyline points="-0.4742188902467962,0.3387030229487699
-0.4742188902467962,-0.37385915173198925"/><polyline points="-0.310250320325278,0.3387030229487699
-0.310250320325278,-0.37385915173198925"/><polyline points="-0.1462817504037599,0.3387030229487699
-0.1462817504037599,-0.37385915173198925"/><polyline points="1.768681951775808e-2,0.3387030229487699
1.768681951775808e-2,-0.37385915173198925"/><polyline points="0.18165538943927617,0.3387030229487699
0.18165538943927617,-0.37385915173198925"/><polyline points="0.34562395936079415,0.3387030229487699
0.34562395936079415,-0.37385915173198925"/></g></g></g><g class="axisbar"><g stroke-opacity="0.0" fill="#0d0d0d" stroke="#000000" stroke-width="0.0" fill-opacity="0.4"><rect width="0.9865633395837353" x="-0.6395634201956276" y="0.34567184617303165" height="2.78752928970466e-3"/></g></g></g><g class="title"><g fill="#0d0d0d" stroke="none" stroke-width="0.0" font-size="3.439900068283596e-2" fill-opacity="1.0" text-anchor="end"><text x="0.3688432848217085" y="0.4700653407261031">Made with love and chart-svg</text></g></g><g class="title"><g fill="#0d0d0d" stroke="none" stroke-width="0.0" font-size="5.503840109253754e-2" fill-opacity="1.0" text-anchor="middle"><text x="-0.18059475358488886" y="-0.4367527813309514">Line Chart</text></g></g><g class="legend"><g class="legendBorder"><g stroke-opacity="1.0" fill="#0d0d0d" stroke="#0d0d0d" stroke-width="2.5e-3" fill-opacity="0.0"><rect width="0.30615110607723994" x="0.4204417858459626" y="-0.1485048307174266" height="0.18467381544293526"/></g></g><g class="legendContent"><g fill="#0d0d0d" stroke="none" stroke-width="0.0" font-size="3.439900068283596e-2" fill-opacity="1.0" text-anchor="start"><text x="0.43764128618738063" y="8.293691828461902e-3">vertical</text></g><g stroke-opacity="1.0" fill="none" stroke="#1f78b5" stroke-width="1.0e-2"><polyline points="0.595876689328426,-4.1733720186520884e-4
0.6990736913769338,-4.1733720186520884e-4"/></g><g fill="#0d0d0d" stroke="none" stroke-width="0.0" font-size="3.439900068283596e-2" fill-opacity="1.0" text-anchor="start"><text x="0.43764128618738063" y="-4.74568939656318e-2">line</text></g><g stroke-opacity="1.0" fill="none" stroke="#a6cfe3" stroke-width="3.0e-2"><polyline points="0.595876689328426,-5.616792299595896e-2
0.6990736913769338,-5.616792299595896e-2"/></g><g fill="#0d0d0d" stroke="none" stroke-width="0.0" font-size="3.439900068283596e-2" fill-opacity="1.0" text-anchor="start"><text x="0.43764128618738063" y="-0.10320747975972544">hockey</text></g><g stroke-opacity="1.0" fill="none" stroke="#b05929" stroke-width="1.5e-2"><polyline points="0.595876689328426,-0.1119185087900526
0.6990736913769338,-0.1119185087900526"/></g></g></g></g></g><g class="glyphize"><g class="chart"><g class="line"><g stroke-opacity="1.0" fill="#a6cfe3" stroke="#1f78b5" stroke-width="3.0e-3" fill-opacity="1.0"><circle cx="-0.6278677599634633" cy="0.1888733236271432" r="5.0e-3"/><circle cx="-0.28387775313510377" cy="0.1888733236271432" r="5.0e-3"/><circle cx="6.011225369325579e-2" cy="-0.36863253431379306" r="5.0e-3"/></g><g stroke-opacity="1.0" fill="#a6cfe3" stroke="#1f78b5" stroke-width="3.0e-3" fill-opacity="1.0"><circle cx="-0.6278677599634633" cy="0.3282497881123773" r="5.0e-3"/><circle cx="0.33530425915594364" cy="-8.987960534332495e-2" r="5.0e-3"/></g><g stroke-opacity="1.0" fill="#a6cfe3" stroke="#1f78b5" stroke-width="3.0e-3" fill-opacity="1.0"><circle cx="-0.4558727565492836" cy="-0.22925606982855906" r="5.0e-3"/><circle cx="-0.4558727565492836" cy="0.3282497881123773" r="5.0e-3"/></g></g></g><g class="hud"><g><g stroke-opacity="1.0" fill="#a6cfe3" stroke="#1f78b5" stroke-width="3.0e-3" fill-opacity="1.0"><circle cx="0.0" cy="-0.0" r="5.0e-3"/></g><g class="axis"><g class="ticks"><g class="tickglyph"><g stroke-opacity="1.0" fill="#a6cfe3" stroke="#1f78b5" stroke-width="3.0e-3" fill-opacity="1.0"><circle cx="-0.6588268605780158" cy="0.3387030229487699" r="5.0e-3"/><circle cx="-0.6588268605780158" cy="0.267446805480694" r="5.0e-3"/><circle cx="-0.6588268605780158" cy="0.19619058801261802" r="5.0e-3"/><circle cx="-0.6588268605780158" cy="0.1249343705445421" r="5.0e-3"/><circle cx="-0.6588268605780158" cy="5.367815307646617e-2" r="5.0e-3"/><circle cx="-0.6588268605780158" cy="-1.7578064391609693e-2" r="5.0e-3"/><circle cx="-0.6588268605780158" cy="-8.883428185968567e-2" r="5.0e-3"/><circle cx="-0.6588268605780158" cy="-0.16009049932776154" r="5.0e-3"/><circle cx="-0.6588268605780158" cy="-0.23134671679583751" r="5.0e-3"/><circle cx="-0.6588268605780158" cy="-0.3026029342639135" r="5.0e-3"/><circle cx="-0.6588268605780158" cy="-0.37385915173198925" r="5.0e-3"/></g></g><g class="ticktext"><g stroke-opacity="1.0" fill="#a6cfe3" stroke="#1f78b5" stroke-width="3.0e-3" fill-opacity="1.0"><circle cx="-0.6835941410696578" cy="0.34828515488212985" r="5.0e-3"/><circle cx="-0.6835941410696578" cy="0.27702893741405377" r="5.0e-3"/><circle cx="-0.6835941410696578" cy="0.2057727199459779" r="5.0e-3"/><circle cx="-0.6835941410696578" cy="0.13451650247790192" r="5.0e-3"/><circle cx="-0.6835941410696578" cy="6.3260285009826e-2" r="5.0e-3"/><circle cx="-0.6835941410696578" cy="-7.99593245824981e-3" r="5.0e-3"/><circle cx="-0.6835941410696578" cy="-7.925214992632579e-2" r="5.0e-3"/><circle cx="-0.6835941410696578" cy="-0.15050836739440177" r="5.0e-3"/><circle cx="-0.6835941410696578" cy="-0.22176458486247763" r="5.0e-3"/><circle cx="-0.6835941410696578" cy="-0.2930208023305536" r="5.0e-3"/><circle cx="-0.6835941410696578" cy="-0.3642770197986296" r="5.0e-3"/></g></g><g class="ticklines"><g stroke-opacity="1.0" fill="#a6cfe3" stroke="#1f78b5" stroke-width="3.0e-3" fill-opacity="1.0"><circle cx="-0.6381874601683141" cy="0.3387030229487699" r="5.0e-3"/><circle cx="0.34562395936079415" cy="0.3387030229487699" r="5.0e-3"/><circle cx="-0.6381874601683141" cy="0.267446805480694" r="5.0e-3"/><circle cx="0.34562395936079415" cy="0.267446805480694" r="5.0e-3"/><circle cx="-0.6381874601683141" cy="0.19619058801261802" r="5.0e-3"/><circle cx="0.34562395936079415" cy="0.19619058801261802" r="5.0e-3"/><circle cx="-0.6381874601683141" cy="0.1249343705445421" r="5.0e-3"/><circle cx="0.34562395936079415" cy="0.1249343705445421" r="5.0e-3"/><circle cx="-0.6381874601683141" cy="5.367815307646617e-2" r="5.0e-3"/><circle cx="0.34562395936079415" cy="5.367815307646617e-2" r="5.0e-3"/><circle cx="-0.6381874601683141" cy="-1.7578064391609693e-2" r="5.0e-3"/><circle cx="0.34562395936079415" cy="-1.7578064391609693e-2" r="5.0e-3"/><circle cx="-0.6381874601683141" cy="-8.883428185968567e-2" r="5.0e-3"/><circle cx="0.34562395936079415" cy="-8.883428185968567e-2" r="5.0e-3"/><circle cx="-0.6381874601683141" cy="-0.16009049932776154" r="5.0e-3"/><circle cx="0.34562395936079415" cy="-0.16009049932776154" r="5.0e-3"/><circle cx="-0.6381874601683141" cy="-0.23134671679583751" r="5.0e-3"/><circle cx="0.34562395936079415" cy="-0.23134671679583751" r="5.0e-3"/><circle cx="-0.6381874601683141" cy="-0.3026029342639135" r="5.0e-3"/><circle cx="0.34562395936079415" cy="-0.3026029342639135" r="5.0e-3"/><circle cx="-0.6381874601683141" cy="-0.37385915173198925" r="5.0e-3"/><circle cx="0.34562395936079415" cy="-0.37385915173198925" r="5.0e-3"/></g></g></g><g class="axisbar"><g stroke-opacity="1.0" fill="#a6cfe3" stroke="#1f78b5" stroke-width="3.0e-3" fill-opacity="1.0"><circle cx="-0.6464432203321948" cy="-1.7578064391609693e-2" r="5.0e-3"/></g></g></g><g class="axis"><g class="ticks"><g class="tickglyph"><g stroke-opacity="1.0" fill="#a6cfe3" stroke="#1f78b5" stroke-width="3.0e-3" fill-opacity="1.0"><circle cx="-0.6381874601683141" cy="0.35960949262155506" r="5.0e-3"/><circle cx="-0.4742188902467962" cy="0.35960949262155506" r="5.0e-3"/><circle cx="-0.310250320325278" cy="0.35960949262155506" r="5.0e-3"/><circle cx="-0.1462817504037599" cy="0.35960949262155506" r="5.0e-3"/><circle cx="1.768681951775808e-2" cy="0.35960949262155506" r="5.0e-3"/><circle cx="0.18165538943927617" cy="0.35960949262155506" r="5.0e-3"/><circle cx="0.34562395936079415" cy="0.35960949262155506" r="5.0e-3"/></g></g><g class="ticktext"><g stroke-opacity="1.0" fill="#a6cfe3" stroke="#1f78b5" stroke-width="3.0e-3" fill-opacity="1.0"><circle cx="-0.6381874601683141" cy="0.4038615200956169" r="5.0e-3"/><circle cx="-0.4742188902467962" cy="0.4038615200956169" r="5.0e-3"/><circle cx="-0.310250320325278" cy="0.4038615200956169" r="5.0e-3"/><circle cx="-0.1462817504037599" cy="0.4038615200956169" r="5.0e-3"/><circle cx="1.768681951775808e-2" cy="0.4038615200956169" r="5.0e-3"/><circle cx="0.18165538943927617" cy="0.4038615200956169" r="5.0e-3"/><circle cx="0.34562395936079415" cy="0.4038615200956169" r="5.0e-3"/></g></g><g class="ticklines"><g stroke-opacity="1.0" fill="#a6cfe3" stroke="#1f78b5" stroke-width="3.0e-3" fill-opacity="1.0"><circle cx="-0.6381874601683141" cy="0.3387030229487699" r="5.0e-3"/><circle cx="-0.6381874601683141" cy="-0.37385915173198925" r="5.0e-3"/><circle cx="-0.4742188902467962" cy="0.3387030229487699" r="5.0e-3"/><circle cx="-0.4742188902467962" cy="-0.37385915173198925" r="5.0e-3"/><circle cx="-0.310250320325278" cy="0.3387030229487699" r="5.0e-3"/><circle cx="-0.310250320325278" cy="-0.37385915173198925" r="5.0e-3"/><circle cx="-0.1462817504037599" cy="0.3387030229487699" r="5.0e-3"/><circle cx="-0.1462817504037599" cy="-0.37385915173198925" r="5.0e-3"/><circle cx="1.768681951775808e-2" cy="0.3387030229487699" r="5.0e-3"/><circle cx="1.768681951775808e-2" cy="-0.37385915173198925" r="5.0e-3"/><circle cx="0.18165538943927617" cy="0.3387030229487699" r="5.0e-3"/><circle cx="0.18165538943927617" cy="-0.37385915173198925" r="5.0e-3"/><circle cx="0.34562395936079415" cy="0.3387030229487699" r="5.0e-3"/><circle cx="0.34562395936079415" cy="-0.37385915173198925" r="5.0e-3"/></g></g></g><g class="axisbar"><g stroke-opacity="1.0" fill="#a6cfe3" stroke="#1f78b5" stroke-width="3.0e-3" fill-opacity="1.0"><circle cx="-0.1462817504037599" cy="0.347065610817884" r="5.0e-3"/></g></g></g><g class="title"><g stroke-opacity="1.0" fill="#a6cfe3" stroke="#1f78b5" stroke-width="3.0e-3" fill-opacity="1.0"><circle cx="0.3688432848217085" cy="0.4700653407261031" r="5.0e-3"/></g></g><g class="title"><g stroke-opacity="1.0" fill="#a6cfe3" stroke="#1f78b5" stroke-width="3.0e-3" fill-opacity="1.0"><circle cx="-0.18059475358488886" cy="-0.4367527813309514" r="5.0e-3"/></g></g><g class="legend"><g class="legendBorder"><g stroke-opacity="1.0" fill="#a6cfe3" stroke="#1f78b5" stroke-width="3.0e-3" fill-opacity="1.0"><circle cx="0.5735173388845827" cy="-5.616792299595896e-2" r="5.0e-3"/></g><g stroke-opacity="1.0" fill="#a6cfe3" stroke="#1f78b5" stroke-width="3.0e-3" fill-opacity="1.0"><circle cx="0.5735173388845825" cy="-5.616792299595896e-2" r="5.0e-3"/></g><g stroke-opacity="1.0" fill="#a6cfe3" stroke="#1f78b5" stroke-width="3.0e-3" fill-opacity="1.0"><circle cx="0.5735173388845825" cy="-5.616792299595896e-2" r="5.0e-3"/></g></g><g class="legendContent"><g stroke-opacity="1.0" fill="#a6cfe3" stroke="#1f78b5" stroke-width="3.0e-3" fill-opacity="1.0"><circle cx="0.43764128618738063" cy="8.293691828461902e-3" r="5.0e-3"/></g><g stroke-opacity="1.0" fill="#a6cfe3" stroke="#1f78b5" stroke-width="3.0e-3" fill-opacity="1.0"><circle cx="0.595876689328426" cy="-4.1733720186520884e-4" r="5.0e-3"/><circle cx="0.6990736913769338" cy="-4.1733720186520884e-4" r="5.0e-3"/></g><g stroke-opacity="1.0" fill="#a6cfe3" stroke="#1f78b5" stroke-width="3.0e-3" fill-opacity="1.0"><circle cx="0.43764128618738063" cy="-4.74568939656318e-2" r="5.0e-3"/></g><g stroke-opacity="1.0" fill="#a6cfe3" stroke="#1f78b5" stroke-width="3.0e-3" fill-opacity="1.0"><circle cx="0.595876689328426" cy="-5.616792299595896e-2" r="5.0e-3"/><circle cx="0.6990736913769338" cy="-5.616792299595896e-2" r="5.0e-3"/></g><g stroke-opacity="1.0" fill="#a6cfe3" stroke="#1f78b5" stroke-width="3.0e-3" fill-opacity="1.0"><circle cx="0.43764128618738063" cy="-0.10320747975972544" r="5.0e-3"/></g><g stroke-opacity="1.0" fill="#a6cfe3" stroke="#1f78b5" stroke-width="3.0e-3" fill-opacity="1.0"><circle cx="0.595876689328426" cy="-0.1119185087900526" r="5.0e-3"/><circle cx="0.6990736913769338" cy="-0.1119185087900526" r="5.0e-3"/></g></g></g></g></g></g><g class="rectangularize"><g class="chart"><g class="line"><g stroke-opacity="1.0" fill="#1f78b5" stroke="#0d0d0d" stroke-width="1.0e-3" fill-opacity="0.2"><rect width="0.702580669496549" x="-0.6351680878833782" y="-0.3758465730052585" height="0.5719339353238672"/></g><g stroke-opacity="1.0" fill="#1f78b5" stroke="#0d0d0d" stroke-width="1.0e-3" fill-opacity="0.2"><rect width="0.9923733307990664" x="-0.6424684158032931" y="-0.1043076827262559" height="0.4469855482215641"/></g><g stroke-opacity="1.0" fill="#1f78b5" stroke="#0d0d0d" stroke-width="1.0e-3" fill-opacity="0.2"><rect width="9.733770559886501e-3" x="-0.4607396418292269" y="-0.23406542895620275" height="0.5671245761962237"/></g></g></g><g class="hud"><g><g stroke-opacity="1.0" fill="#1f78b5" stroke="#0d0d0d" stroke-width="1.0e-3" fill-opacity="0.2"><rect width="1.4990006662225186" x="-0.7495003331112592" y="-0.4995004995004996" height="0.9990009990009991"/></g><g class="axis"><g class="ticks"><g class="tickglyph"><g stroke-opacity="1.0" fill="#1f78b5" stroke="#0d0d0d" stroke-width="1.0e-3" fill-opacity="0.2"><rect width="3.309481990361418e-2" x="-0.6753742705298229" y="-0.3777066390341042" height="0.720257149284989"/></g></g><g class="ticktext"><g fill="#0d0d0d" stroke="none" stroke-width="0.0" font-size="3.439900068283596e-2" fill-opacity="1.0" text-anchor="end"><text x="-0.6835941410696578" y="0.34828515488212985">0.0</text><g stroke-opacity="1.0" fill="#1f78b5" stroke="#0d0d0d" stroke-width="3.439900068283596e-5" fill-opacity="0.2"><rect width="4.6473049922511334e-2" x="-0.7300499914918277" y="0.3207487548355197" height="3.787329975180237e-2"/></g><text x="-0.6835941410696578" y="0.27702893741405377">0.5</text><g stroke-opacity="1.0" fill="#1f78b5" stroke="#0d0d0d" stroke-width="3.439900068283596e-5" fill-opacity="0.2"><rect width="4.6473049922511334e-2" x="-0.7300499914918277" y="0.24949253736744356" height="3.78732997518024e-2"/></g><text x="-0.6835941410696578" y="0.2057727199459779">1.0</text><g stroke-opacity="1.0" fill="#1f78b5" stroke="#0d0d0d" stroke-width="3.439900068283596e-5" fill-opacity="0.2"><rect width="4.6473049922511334e-2" x="-0.7300499914918277" y="0.1782363198993677" height="3.7873299751802425e-2"/></g><text x="-0.6835941410696578" y="0.13451650247790192">1.5</text><g stroke-opacity="1.0" fill="#1f78b5" stroke="#0d0d0d" stroke-width="3.439900068283596e-5" fill-opacity="0.2"><rect width="4.6473049922511334e-2" x="-0.7300499914918277" y="0.10698010243129173" height="3.787329975180241e-2"/></g><text x="-0.6835941410696578" y="6.3260285009826e-2">2.0</text><g stroke-opacity="1.0" fill="#1f78b5" stroke="#0d0d0d" stroke-width="3.439900068283596e-5" fill-opacity="0.2"><rect width="4.6473049922511334e-2" x="-0.7300499914918277" y="3.572388496321582e-2" height="3.787329975180239e-2"/></g><text x="-0.6835941410696578" y="-7.99593245824981e-3">2.5</text><g stroke-opacity="1.0" fill="#1f78b5" stroke="#0d0d0d" stroke-width="3.439900068283596e-5" fill-opacity="0.2"><rect width="4.6473049922511334e-2" x="-0.7300499914918277" y="-3.5532332504859994e-2" height="3.787329975180239e-2"/></g><text x="-0.6835941410696578" y="-7.925214992632579e-2">3.0</text><g stroke-opacity="1.0" fill="#1f78b5" stroke="#0d0d0d" stroke-width="3.439900068283596e-5" fill-opacity="0.2"><rect width="4.6473049922511334e-2" x="-0.7300499914918277" y="-0.10678854997293598" height="3.78732997518024e-2"/></g><text x="-0.6835941410696578" y="-0.15050836739440177">3.5</text><g stroke-opacity="1.0" fill="#1f78b5" stroke="#0d0d0d" stroke-width="3.439900068283596e-5" fill-opacity="0.2"><rect width="4.6473049922511334e-2" x="-0.7300499914918277" y="-0.17804476744101197" height="3.7873299751802425e-2"/></g><text x="-0.6835941410696578" y="-0.22176458486247763">4.0</text><g stroke-opacity="1.0" fill="#1f78b5" stroke="#0d0d0d" stroke-width="3.439900068283596e-5" fill-opacity="0.2"><rect width="4.6473049922511334e-2" x="-0.7300499914918277" y="-0.24930098490908784" height="3.7873299751802425e-2"/></g><text x="-0.6835941410696578" y="-0.2930208023305536">4.5</text><g stroke-opacity="1.0" fill="#1f78b5" stroke="#0d0d0d" stroke-width="3.439900068283596e-5" fill-opacity="0.2"><rect width="4.6473049922511334e-2" x="-0.7300499914918277" y="-0.3205572023771638" height="3.787329975180237e-2"/></g><text x="-0.6835941410696578" y="-0.3642770197986296">5.0</text><g stroke-opacity="1.0" fill="#1f78b5" stroke="#0d0d0d" stroke-width="3.439900068283596e-5" fill-opacity="0.2"><rect width="4.6473049922511334e-2" x="-0.7300499914918277" y="-0.39181341984523976" height="3.787329975180237e-2"/></g></g></g><g class="ticklines"><g stroke-opacity="1.0" fill="#1f78b5" stroke="#0d0d0d" stroke-width="1.0e-3" fill-opacity="0.2"><rect width="0.9886783048090516" x="-0.6406209028082858" y="-0.3762638312958111" height="0.7173715338084028"/></g></g></g><g class="axisbar"><g stroke-opacity="1.0" fill="#1f78b5" stroke="#0d0d0d" stroke-width="1.0e-3" fill-opacity="0.2"><rect width="2.7519200546267664e-3" x="-0.6478191803595083" y="-0.3752529163768419" height="0.7153497039704642"/></g></g></g><g class="axis"><g class="ticks"><g class="tickglyph"><g stroke-opacity="1.0" fill="#1f78b5" stroke="#0d0d0d" stroke-width="1.0e-3" fill-opacity="0.2"><rect width="0.9915984359770178" x="-0.6420809683922688" y="0.3432576715875668" height="3.2703642067976546e-2"/></g></g><g class="ticktext"><g fill="#0d0d0d" stroke="none" stroke-width="0.0" font-size="3.439900068283596e-2" fill-opacity="1.0" text-anchor="middle"><text x="-0.6381874601683141" y="0.4038615200956169">0.0</text><g stroke-opacity="1.0" fill="#1f78b5" stroke="#0d0d0d" stroke-width="3.439900068283596e-5" fill-opacity="0.2"><rect width="4.6473049922511445e-2" x="-0.6614239851295698" y="0.3763251200490067" height="3.787329975180237e-2"/></g><text x="-0.4742188902467962" y="0.4038615200956169">0.5</text><g stroke-opacity="1.0" fill="#1f78b5" stroke="#0d0d0d" stroke-width="3.439900068283596e-5" fill-opacity="0.2"><rect width="4.6473049922511334e-2" x="-0.49745541520805187" y="0.3763251200490067" height="3.787329975180237e-2"/></g><text x="-0.310250320325278" y="0.4038615200956169">1.0</text><g stroke-opacity="1.0" fill="#1f78b5" stroke="#0d0d0d" stroke-width="3.439900068283596e-5" fill-opacity="0.2"><rect width="4.6473049922511334e-2" x="-0.33348684528653366" y="0.3763251200490067" height="3.787329975180237e-2"/></g><text x="-0.1462817504037599" y="0.4038615200956169">1.5</text><g stroke-opacity="1.0" fill="#1f78b5" stroke="#0d0d0d" stroke-width="3.439900068283596e-5" fill-opacity="0.2"><rect width="4.6473049922511375e-2" x="-0.1695182753650156" y="0.3763251200490067" height="3.787329975180237e-2"/></g><text x="1.768681951775808e-2" y="0.4038615200956169">2.0</text><g stroke-opacity="1.0" fill="#1f78b5" stroke="#0d0d0d" stroke-width="3.439900068283596e-5" fill-opacity="0.2"><rect width="4.6473049922511375e-2" x="-5.54970544349761e-3" y="0.3763251200490067" height="3.787329975180237e-2"/></g><text x="0.18165538943927617" y="0.4038615200956169">2.5</text><g stroke-opacity="1.0" fill="#1f78b5" stroke="#0d0d0d" stroke-width="3.439900068283596e-5" fill-opacity="0.2"><rect width="4.647304992251139e-2" x="0.15841886447802048" y="0.3763251200490067" height="3.787329975180237e-2"/></g><text x="0.34562395936079415" y="0.4038615200956169">3.0</text><g stroke-opacity="1.0" fill="#1f78b5" stroke="#0d0d0d" stroke-width="3.439900068283596e-5" fill-opacity="0.2"><rect width="4.6473049922511334e-2" x="0.3223874343995385" y="0.3763251200490067" height="3.787329975180237e-2"/></g></g></g><g class="ticklines"><g stroke-opacity="1.0" fill="#1f78b5" stroke="#0d0d0d" stroke-width="1.0e-3" fill-opacity="0.2"><rect width="0.9886783048090516" x="-0.6406209028082858" y="-0.3762638312958111" height="0.7173715338084028"/></g></g></g><g class="axisbar"><g stroke-opacity="1.0" fill="#1f78b5" stroke="#0d0d0d" stroke-width="1.0e-3" fill-opacity="0.2"><rect width="0.9865633395837353" x="-0.6395634201956276" y="0.34567184617303165" height="2.78752928970466e-3"/></g></g></g><g class="title"><g fill="#0d0d0d" stroke="none" stroke-width="0.0" font-size="3.439900068283596e-2" fill-opacity="1.0" text-anchor="end"><text x="0.3688432848217085" y="0.4700653407261031">Made with love and chart-svg</text><g stroke-opacity="1.0" fill="#1f78b5" stroke="#0d0d0d" stroke-width="3.439900068283596e-5" fill-opacity="0.2"><rect width="0.4334618076044159" x="-6.460132328236602e-2" y="0.44252894067949294" height="3.787329975180237e-2"/></g></g></g><g class="title"><g fill="#0d0d0d" stroke="none" stroke-width="0.0" font-size="5.503840109253754e-2" fill-opacity="1.0" text-anchor="middle"><text x="-0.18059475358488886" y="-0.4367527813309514">Line Chart</text><g stroke-opacity="1.0" fill="#1f78b5" stroke="#0d0d0d" stroke-width="5.5038401092537544e-5" fill-opacity="0.2"><rect width="0.2477278433175115" x="-0.3044586752436446" y="-0.4808110214055277" height="6.059727960288386e-2"/></g></g></g><g class="legend"><g class="legendBorder"><g stroke-opacity="1.0" fill="#1f78b5" stroke="#0d0d0d" stroke-width="1.0e-3" fill-opacity="0.2"><rect width="0.31303090621380747" x="0.41700188577767894" y="-0.15198924232955735" height="0.19164263866719683"/></g><g stroke-opacity="1.0" fill="#1f78b5" stroke="#0d0d0d" stroke-width="1.0e-3" fill-opacity="0.2"><rect width="0.30615110607723994" x="0.4204417858459626" y="-0.1485048307174266" height="0.18467381544293526"/></g><g stroke-opacity="1.0" fill="#1f78b5" stroke="#0d0d0d" stroke-width="1.0e-3" fill-opacity="0.2"><rect width="0.3085845487172114" x="0.41922506452597696" y="-0.14970717049933735" height="0.18707849500675688"/></g></g><g class="legendContent"><g fill="#0d0d0d" stroke="none" stroke-width="0.0" font-size="3.439900068283596e-2" fill-opacity="1.0" text-anchor="start"><text x="0.43764128618738063" y="8.293691828461902e-3">vertical</text><g stroke-opacity="1.0" fill="#1f78b5" stroke="#0d0d0d" stroke-width="3.439900068283596e-5" fill-opacity="0.2"><rect width="0.12387080145889229" x="0.4376240866870392" y="-1.924270821814828e-2" height="3.787329975180239e-2"/></g></g><g stroke-opacity="1.0" fill="#1f78b5" stroke="#0d0d0d" stroke-width="1.0e-3" fill-opacity="0.2"><rect width="0.11293077260839413" x="0.591009804048483" y="-5.226696329508784e-3" height="9.618718255287095e-3"/></g><g fill="#0d0d0d" stroke="none" stroke-width="0.0" font-size="3.439900068283596e-2" fill-opacity="1.0" text-anchor="start"><text x="0.43764128618738063" y="-4.74568939656318e-2">line</text><g stroke-opacity="1.0" fill="#1f78b5" stroke="#0d0d0d" stroke-width="3.439900068283596e-5" fill-opacity="0.2"><rect width="6.195260022978755e-2" x="0.4376240866870392" y="-7.499329401224199e-2" height="3.78732997518024e-2"/></g></g><g stroke-opacity="1.0" fill="#1f78b5" stroke="#0d0d0d" stroke-width="1.0e-3" fill-opacity="0.2"><rect width="0.13239831372816768" x="0.5812760334885962" y="-7.05960003788898e-2" height="2.8856154765861675e-2"/></g><g fill="#0d0d0d" stroke="none" stroke-width="0.0" font-size="3.439900068283596e-2" fill-opacity="1.0" text-anchor="start"><text x="0.43764128618738063" y="-0.10320747975972544">hockey</text><g stroke-opacity="1.0" fill="#1f78b5" stroke="#0d0d0d" stroke-width="3.439900068283596e-5" fill-opacity="0.2"><rect width="9.291170084433986e-2" x="0.4376240866870392" y="-0.13074387980633564" height="3.787329975180241e-2"/></g></g><g stroke-opacity="1.0" fill="#1f78b5" stroke="#0d0d0d" stroke-width="1.0e-3" fill-opacity="0.2"><rect width="0.11779765788833729" x="0.5885763614085113" y="-0.11913254748151791" height="1.4428077382930726e-2"/></g></g></g></g></g></g></g><g class="hud"></g></svg>