<svg width="443.73145627367575" xmlns:xlink="http://www.w3.org/1999/xlink" xmlns="http://www.w3.org/2000/svg" viewBox="-0.77 -0.5209562809129804 1.5400153425764909 1.0411806425731542" height="300.0"><style>svg {
  color-scheme: light dark;
}
@media (prefers-color-scheme:dark) {
  svg {
    background-color: #f0f0f0;
  }
}</style><g stroke-opacity="1.0" fill="#0d0d0d" stroke="#0d0d0d" stroke-width="2.5e-3" fill-opacity="0.0"><rect width="0.25157446684779483" x="0.49372548586864595" y="-0.11779850495387512" height="0.14647485976534846"/></g><g fill="#0d0d0d" stroke="none" stroke-width="0.0" font-size="2.023387132824087e-2" fill-opacity="1.0" text-anchor="start"><text x="0.5105870453088466" y="3.6504993741775515e-3">vertical</text></g><g stroke-opacity="1.0" fill="none" stroke="#1f78b5" stroke-width="1.0e-2"><polyline points="0.6171521009709151,-1.869909913461143e-3
0.7183214576121197,-1.869909913461143e-3"/></g><g fill="#0d0d0d" stroke="none" stroke-width="0.0" font-size="2.023387132824087e-2" fill-opacity="1.0" text-anchor="start"><text x="0.5105870453088466" y="-3.9040665783562134e-2">line</text></g><g stroke-opacity="1.0" fill="none" stroke="#a6cfe3" stroke-width="3.0e-2"><polyline points="0.6171521009709151,-4.4561075071200884e-2
0.7183214576121197,-4.4561075071200884e-2"/></g><g fill="#0d0d0d" stroke="none" stroke-width="0.0" font-size="2.023387132824087e-2" fill-opacity="1.0" text-anchor="start"><text x="0.5105870453088466" y="-8.173183094130188e-2">hockey</text></g><g stroke-opacity="1.0" fill="none" stroke="#b05929" stroke-width="1.5e-2"><polyline points="0.6171521009709151,-8.725224022894063e-2
0.7183214576121197,-8.725224022894063e-2"/></g><g fill="#0d0d0d" stroke="none" stroke-width="0.0" font-size="5.395699020864232e-2" fill-opacity="1.0" text-anchor="middle"><text x="-0.18469935820783034" y="-0.4577637102509622">Line Chart</text></g><g fill="#0d0d0d" stroke="none" stroke-width="0.0" font-size="3.3723118880401456e-2" fill-opacity="1.0" text-anchor="end"><text x="0.3805844220248993" y="0.4900905644366131">Made with love and chart-svg</text></g><g stroke-opacity="0.0" fill="#0d0d0d" stroke="#000000" stroke-width="0.0" fill-opacity="0.4"><rect width="2.697849510432171e-3" x="-0.6734316585820485" y="-0.392806894299746" height="0.7389987899719087"/></g><g stroke-opacity="0.4" fill="#0d0d0d" stroke="#0d0d0d" stroke-width="4.0e-3" fill-opacity="0.4"><g transform="rotate(-90.0, -0.6842230566237769, 0.3447197865287923)"><polyline points="-0.6842230566237769,0.35971978652879233
-0.6842230566237769,0.3297197865287923"/></g><g transform="rotate(-90.0, -0.6842230566237769, 0.2711143293602756)"><polyline points="-0.6842230566237769,0.2861143293602756
-0.6842230566237769,0.25611432936027556"/></g><g transform="rotate(-90.0, -0.6842230566237769, 0.19750887219175872)"><polyline points="-0.6842230566237769,0.21250887219175874
-0.6842230566237769,0.1825088721917587"/></g><g transform="rotate(-90.0, -0.6842230566237769, 0.12390341502324187)"><polyline points="-0.6842230566237769,0.13890341502324188
-0.6842230566237769,0.10890341502324187"/></g><g transform="rotate(-90.0, -0.6842230566237769, 5.029795785472507e-2)"><polyline points="-0.6842230566237769,6.529795785472507e-2
-0.6842230566237769,3.529795785472507e-2"/></g><g transform="rotate(-90.0, -0.6842230566237769, -2.3307499313791724e-2)"><polyline points="-0.6842230566237769,-8.307499313791725e-3
-0.6842230566237769,-3.8307499313791724e-2"/></g><g transform="rotate(-90.0, -0.6842230566237769, -9.691295648230858e-2)"><polyline points="-0.6842230566237769,-8.191295648230858e-2
-0.6842230566237769,-0.11191295648230858"/></g><g transform="rotate(-90.0, -0.6842230566237769, -0.17051841365082543)"><polyline points="-0.6842230566237769,-0.15551841365082542
-0.6842230566237769,-0.18551841365082544"/></g><g transform="rotate(-90.0, -0.6842230566237769, -0.24412387081934217)"><polyline points="-0.6842230566237769,-0.22912387081934216
-0.6842230566237769,-0.2591238708193422"/></g><g transform="rotate(-90.0, -0.6842230566237769, -0.3177293279878589)"><polyline points="-0.6842230566237769,-0.3027293279878589
-0.6842230566237769,-0.3327293279878589"/></g><g transform="rotate(-90.0, -0.6842230566237769, -0.3913347851563759)"><polyline points="-0.6842230566237769,-0.37633478515637586
-0.6842230566237769,-0.4063347851563759"/></g></g><g fill="#0d0d0d" stroke="none" stroke-width="0.0" font-size="3.3723118880401456e-2" fill-opacity="1.0" text-anchor="end"><text x="-0.7044569279520178" y="0.3548405368894634">0.0</text><text x="-0.7044569279520178" y="0.2812350797209465">0.5</text><text x="-0.7044569279520178" y="0.20762962255242973">1.0</text><text x="-0.7044569279520178" y="0.13402416538391293">1.5</text><text x="-0.7044569279520178" y="6.041870821539613e-2">2.0</text><text x="-0.7044569279520178" y="-1.3186748953120664e-2">2.5</text><text x="-0.7044569279520178" y="-8.679220612163752e-2">3.0</text><text x="-0.7044569279520178" y="-0.16039766329015437">3.5</text><text x="-0.7044569279520178" y="-0.2340031204586711">4.0</text><text x="-0.7044569279520178" y="-0.30760857762718796">4.5</text><text x="-0.7044569279520178" y="-0.3812140347957047">5.0</text></g><g stroke-opacity="5.0e-2" fill="none" stroke="#0d0d0d" stroke-width="5.0e-3"><polyline points="-0.6538722496314155,0.3447197865287923
0.35782131678062834,0.3447197865287923"/><polyline points="-0.6538722496314155,0.2711143293602756
0.35782131678062834,0.2711143293602756"/><polyline points="-0.6538722496314155,0.19750887219175872
0.35782131678062834,0.19750887219175872"/><polyline points="-0.6538722496314155,0.12390341502324187
0.35782131678062834,0.12390341502324187"/><polyline points="-0.6538722496314155,5.029795785472507e-2
0.35782131678062834,5.029795785472507e-2"/><polyline points="-0.6538722496314155,-2.3307499313791724e-2
0.35782131678062834,-2.3307499313791724e-2"/><polyline points="-0.6538722496314155,-9.691295648230858e-2
0.35782131678062834,-9.691295648230858e-2"/><polyline points="-0.6538722496314155,-0.17051841365082543
0.35782131678062834,-0.17051841365082543"/><polyline points="-0.6538722496314155,-0.24412387081934217
0.35782131678062834,-0.24412387081934217"/><polyline points="-0.6538722496314155,-0.3177293279878589
0.35782131678062834,-0.3177293279878589"/><polyline points="-0.6538722496314155,-0.3913347851563759
0.35782131678062834,-0.3913347851563759"/></g><g stroke-opacity="0.0" fill="#0d0d0d" stroke="#000000" stroke-width="0.0" fill-opacity="0.4"><rect width="1.0143914159224756" x="-0.6552211743866316" y="0.36312115082092156" height="2.9442182867406297e-3"/></g><g stroke-opacity="0.4" fill="#0d0d0d" stroke="#0d0d0d" stroke-width="4.0e-3" fill-opacity="0.4"><polyline points="-0.6538722496314155,0.39284224225462494
-0.6538722496314155,0.3628422422546249"/><polyline points="-0.48525665522940825,0.39284224225462494
-0.48525665522940825,0.3628422422546249"/><polyline points="-0.31664106082740107,0.39284224225462494
-0.31664106082740107,0.3628422422546249"/><polyline points="-0.14802546642539371,0.39284224225462494
-0.14802546642539371,0.3628422422546249"/><polyline points="2.0590127976613415e-2,0.39284224225462494
2.0590127976613415e-2,0.3628422422546249"/><polyline points="0.189205722378621,0.39284224225462494
0.189205722378621,0.3628422422546249"/><polyline points="0.35782131678062834,0.39284224225462494
0.35782131678062834,0.3628422422546249"/></g><g fill="#0d0d0d" stroke="none" stroke-width="0.0" font-size="3.3723118880401456e-2" fill-opacity="1.0" text-anchor="middle"><text x="-0.6538722496314155" y="0.42016538012652205">0.0</text><text x="-0.48525665522940825" y="0.42016538012652205">0.5</text><text x="-0.31664106082740107" y="0.42016538012652205">1.0</text><text x="-0.14802546642539371" y="0.42016538012652205">1.5</text><text x="2.0590127976613415e-2" y="0.42016538012652205">2.0</text><text x="0.189205722378621" y="0.42016538012652205">2.5</text><text x="0.35782131678062834" y="0.42016538012652205">3.0</text></g><g stroke-opacity="5.0e-2" fill="none" stroke="#0d0d0d" stroke-width="5.0e-3"><polyline points="-0.6538722496314155,0.3447197865287923
-0.6538722496314155,-0.3913347851563759"/><polyline points="-0.48525665522940825,0.3447197865287923
-0.48525665522940825,-0.3913347851563759"/><polyline points="-0.31664106082740107,0.3447197865287923
-0.31664106082740107,-0.3913347851563759"/><polyline points="-0.14802546642539371,0.3447197865287923
-0.14802546642539371,-0.3913347851563759"/><polyline points="2.0590127976613415e-2,0.3447197865287923
2.0590127976613415e-2,-0.3913347851563759"/><polyline points="0.189205722378621,0.3447197865287923
0.189205722378621,-0.3913347851563759"/><polyline points="0.35782131678062834,0.3447197865287923
0.35782131678062834,-0.3913347851563759"/></g><g stroke-opacity="1.0" fill="none" stroke="#b05929" stroke-width="1.5e-2"><polyline points="-0.6538722496314155,0.19750887219175872
-0.31664106082740107,0.19750887219175872
2.0590127976613415e-2,-0.3913347851563759"/></g><g stroke-opacity="1.0" fill="none" stroke="#a6cfe3" stroke-width="3.0e-2"><polyline points="-0.6538722496314155,0.3447197865287923
0.2903750790198254,-9.691295648230858e-2"/></g><g stroke-opacity="1.0" fill="none" stroke="#1f78b5" stroke-width="1.0e-2"><polyline points="-0.48525665522940825,-0.24412387081934217
-0.48525665522940825,0.3447197865287923"/></g><g stroke-opacity="1.0" fill="#a6cfe3" stroke="#1f78b5" stroke-width="3.0e-3" fill-opacity="1.0"><circle cx="0.6195127192925431" cy="-4.4561075071200884e-2" r="5.0e-3"/></g><g stroke-opacity="1.0" fill="#a6cfe3" stroke="#1f78b5" stroke-width="3.0e-3" fill-opacity="1.0"><circle cx="0.6195127192925431" cy="-4.456107507120077e-2" r="5.0e-3"/></g><g stroke-opacity="1.0" fill="#a6cfe3" stroke="#1f78b5" stroke-width="3.0e-3" fill-opacity="1.0"><circle cx="0.5105870453088466" cy="3.6504993741775515e-3" r="5.0e-3"/></g><g stroke-opacity="1.0" fill="#a6cfe3" stroke="#1f78b5" stroke-width="3.0e-3" fill-opacity="1.0"><circle cx="0.6171521009709151" cy="-1.869909913461143e-3" r="5.0e-3"/><circle cx="0.7183214576121197" cy="-1.869909913461143e-3" r="5.0e-3"/></g><g stroke-opacity="1.0" fill="#a6cfe3" stroke="#1f78b5" stroke-width="3.0e-3" fill-opacity="1.0"><circle cx="0.5105870453088466" cy="-3.9040665783562134e-2" r="5.0e-3"/></g><g stroke-opacity="1.0" fill="#a6cfe3" stroke="#1f78b5" stroke-width="3.0e-3" fill-opacity="1.0"><circle cx="0.6171521009709151" cy="-4.4561075071200884e-2" r="5.0e-3"/><circle cx="0.7183214576121197" cy="-4.4561075071200884e-2" r="5.0e-3"/></g><g stroke-opacity="1.0" fill="#a6cfe3" stroke="#1f78b5" stroke-width="3.0e-3" fill-opacity="1.0"><circle cx="0.5105870453088466" cy="-8.173183094130188e-2" r="5.0e-3"/></g><g stroke-opacity="1.0" fill="#a6cfe3" stroke="#1f78b5" stroke-width="3.0e-3" fill-opacity="1.0"><circle cx="0.6171521009709151" cy="-8.725224022894063e-2" r="5.0e-3"/><circle cx="0.7183214576121197" cy="-8.725224022894063e-2" r="5.0e-3"/></g><g stroke-opacity="1.0" fill="#a6cfe3" stroke="#1f78b5" stroke-width="3.0e-3" fill-opacity="1.0"><circle cx="-0.18469935820783034" cy="-0.4577637102509622" r="5.0e-3"/></g><g stroke-opacity="1.0" fill="#a6cfe3" stroke="#1f78b5" stroke-width="3.0e-3" fill-opacity="1.0"><circle cx="0.3805844220248993" cy="0.4900905644366131" r="5.0e-3"/></g><g stroke-opacity="1.0" fill="#a6cfe3" stroke="#1f78b5" stroke-width="3.0e-3" fill-opacity="1.0"><circle cx="-0.6720827338268324" cy="-2.3307499313791724e-2" r="5.0e-3"/></g><g stroke-opacity="1.0" fill="#a6cfe3" stroke="#1f78b5" stroke-width="3.0e-3" fill-opacity="1.0"><circle cx="-0.6842230566237769" cy="0.3447197865287923" r="5.0e-3"/><circle cx="-0.6842230566237769" cy="0.2711143293602756" r="5.0e-3"/><circle cx="-0.6842230566237769" cy="0.19750887219175872" r="5.0e-3"/><circle cx="-0.6842230566237769" cy="0.12390341502324187" r="5.0e-3"/><circle cx="-0.6842230566237769" cy="5.029795785472507e-2" r="5.0e-3"/><circle cx="-0.6842230566237769" cy="-2.3307499313791724e-2" r="5.0e-3"/><circle cx="-0.6842230566237769" cy="-9.691295648230858e-2" r="5.0e-3"/><circle cx="-0.6842230566237769" cy="-0.17051841365082543" r="5.0e-3"/><circle cx="-0.6842230566237769" cy="-0.24412387081934217" r="5.0e-3"/><circle cx="-0.6842230566237769" cy="-0.3177293279878589" r="5.0e-3"/><circle cx="-0.6842230566237769" cy="-0.3913347851563759" r="5.0e-3"/></g><g stroke-opacity="1.0" fill="#a6cfe3" stroke="#1f78b5" stroke-width="3.0e-3" fill-opacity="1.0"><circle cx="-0.7044569279520178" cy="0.3548405368894634" r="5.0e-3"/><circle cx="-0.7044569279520178" cy="0.2812350797209465" r="5.0e-3"/><circle cx="-0.7044569279520178" cy="0.20762962255242973" r="5.0e-3"/><circle cx="-0.7044569279520178" cy="0.13402416538391293" r="5.0e-3"/><circle cx="-0.7044569279520178" cy="6.041870821539613e-2" r="5.0e-3"/><circle cx="-0.7044569279520178" cy="-1.3186748953120664e-2" r="5.0e-3"/><circle cx="-0.7044569279520178" cy="-8.679220612163752e-2" r="5.0e-3"/><circle cx="-0.7044569279520178" cy="-0.16039766329015437" r="5.0e-3"/><circle cx="-0.7044569279520178" cy="-0.2340031204586711" r="5.0e-3"/><circle cx="-0.7044569279520178" cy="-0.30760857762718796" r="5.0e-3"/><circle cx="-0.7044569279520178" cy="-0.3812140347957047" r="5.0e-3"/></g><g stroke-opacity="1.0" fill="#a6cfe3" stroke="#1f78b5" stroke-width="3.0e-3" fill-opacity="1.0"><circle cx="-0.6538722496314155" cy="0.3447197865287923" r="5.0e-3"/><circle cx="0.35782131678062834" cy="0.3447197865287923" r="5.0e-3"/><circle cx="-0.6538722496314155" cy="0.2711143293602756" r="5.0e-3"/><circle cx="0.35782131678062834" cy="0.2711143293602756" r="5.0e-3"/><circle cx="-0.6538722496314155" cy="0.19750887219175872" r="5.0e-3"/><circle cx="0.35782131678062834" cy="0.19750887219175872" r="5.0e-3"/><circle cx="-0.6538722496314155" cy="0.12390341502324187" r="5.0e-3"/><circle cx="0.35782131678062834" cy="0.12390341502324187" r="5.0e-3"/><circle cx="-0.6538722496314155" cy="5.029795785472507e-2" r="5.0e-3"/><circle cx="0.35782131678062834" cy="5.029795785472507e-2" r="5.0e-3"/><circle cx="-0.6538722496314155" cy="-2.3307499313791724e-2" r="5.0e-3"/><circle cx="0.35782131678062834" cy="-2.3307499313791724e-2" r="5.0e-3"/><circle cx="-0.6538722496314155" cy="-9.691295648230858e-2" r="5.0e-3"/><circle cx="0.35782131678062834" cy="-9.691295648230858e-2" r="5.0e-3"/><circle cx="-0.6538722496314155" cy="-0.17051841365082543" r="5.0e-3"/><circle cx="0.35782131678062834" cy="-0.17051841365082543" r="5.0e-3"/><circle cx="-0.6538722496314155" cy="-0.24412387081934217" r="5.0e-3"/><circle cx="0.35782131678062834" cy="-0.24412387081934217" r="5.0e-3"/><circle cx="-0.6538722496314155" cy="-0.3177293279878589" r="5.0e-3"/><circle cx="0.35782131678062834" cy="-0.3177293279878589" r="5.0e-3"/><circle cx="-0.6538722496314155" cy="-0.3913347851563759" r="5.0e-3"/><circle cx="0.35782131678062834" cy="-0.3913347851563759" r="5.0e-3"/></g><g stroke-opacity="1.0" fill="#a6cfe3" stroke="#1f78b5" stroke-width="3.0e-3" fill-opacity="1.0"><circle cx="-0.14802546642539371" cy="0.36459325996429187" r="5.0e-3"/></g><g stroke-opacity="1.0" fill="#a6cfe3" stroke="#1f78b5" stroke-width="3.0e-3" fill-opacity="1.0"><circle cx="-0.6538722496314155" cy="0.3778422422546249" r="5.0e-3"/><circle cx="-0.48525665522940825" cy="0.3778422422546249" r="5.0e-3"/><circle cx="-0.31664106082740107" cy="0.3778422422546249" r="5.0e-3"/><circle cx="-0.14802546642539371" cy="0.3778422422546249" r="5.0e-3"/><circle cx="2.0590127976613415e-2" cy="0.3778422422546249" r="5.0e-3"/><circle cx="0.189205722378621" cy="0.3778422422546249" r="5.0e-3"/><circle cx="0.35782131678062834" cy="0.3778422422546249" r="5.0e-3"/></g><g stroke-opacity="1.0" fill="#a6cfe3" stroke="#1f78b5" stroke-width="3.0e-3" fill-opacity="1.0"><circle cx="-0.6538722496314155" cy="0.42016538012652205" r="5.0e-3"/><circle cx="-0.48525665522940825" cy="0.42016538012652205" r="5.0e-3"/><circle cx="-0.31664106082740107" cy="0.42016538012652205" r="5.0e-3"/><circle cx="-0.14802546642539371" cy="0.42016538012652205" r="5.0e-3"/><circle cx="2.0590127976613415e-2" cy="0.42016538012652205" r="5.0e-3"/><circle cx="0.189205722378621" cy="0.42016538012652205" r="5.0e-3"/><circle cx="0.35782131678062834" cy="0.42016538012652205" r="5.0e-3"/></g><g stroke-opacity="1.0" fill="#a6cfe3" stroke="#1f78b5" stroke-width="3.0e-3" fill-opacity="1.0"><circle cx="-0.6538722496314155" cy="0.3447197865287923" r="5.0e-3"/><circle cx="-0.6538722496314155" cy="-0.3913347851563759" r="5.0e-3"/><circle cx="-0.48525665522940825" cy="0.3447197865287923" r="5.0e-3"/><circle cx="-0.48525665522940825" cy="-0.3913347851563759" r="5.0e-3"/><circle cx="-0.31664106082740107" cy="0.3447197865287923" r="5.0e-3"/><circle cx="-0.31664106082740107" cy="-0.3913347851563759" r="5.0e-3"/><circle cx="-0.14802546642539371" cy="0.3447197865287923" r="5.0e-3"/><circle cx="-0.14802546642539371" cy="-0.3913347851563759" r="5.0e-3"/><circle cx="2.0590127976613415e-2" cy="0.3447197865287923" r="5.0e-3"/><circle cx="2.0590127976613415e-2" cy="-0.3913347851563759" r="5.0e-3"/><circle cx="0.189205722378621" cy="0.3447197865287923" r="5.0e-3"/><circle cx="0.189205722378621" cy="-0.3913347851563759" r="5.0e-3"/><circle cx="0.35782131678062834" cy="0.3447197865287923" r="5.0e-3"/><circle cx="0.35782131678062834" cy="-0.3913347851563759" r="5.0e-3"/></g><g stroke-opacity="1.0" fill="#a6cfe3" stroke="#1f78b5" stroke-width="3.0e-3" fill-opacity="1.0"><circle cx="-0.6538722496314155" cy="0.19750887219175872" r="5.0e-3"/><circle cx="-0.31664106082740107" cy="0.19750887219175872" r="5.0e-3"/><circle cx="2.0590127976613415e-2" cy="-0.3913347851563759" r="5.0e-3"/></g><g stroke-opacity="1.0" fill="#a6cfe3" stroke="#1f78b5" stroke-width="3.0e-3" fill-opacity="1.0"><circle cx="-0.6538722496314155" cy="0.3447197865287923" r="5.0e-3"/><circle cx="0.2903750790198254" cy="-9.691295648230858e-2" r="5.0e-3"/></g><g stroke-opacity="1.0" fill="#a6cfe3" stroke="#1f78b5" stroke-width="3.0e-3" fill-opacity="1.0"><circle cx="-0.48525665522940825" cy="-0.24412387081934217" r="5.0e-3"/><circle cx="-0.48525665522940825" cy="0.3447197865287923" r="5.0e-3"/></g><g stroke-opacity="1.0" fill="#a6cfe3" stroke="#1f78b5" stroke-width="3.0e-3" fill-opacity="1.0"><circle cx="-0.14802546642539371" cy="-2.3307499313791724e-2" r="5.0e-3"/></g><g stroke-opacity="1.0" fill="#1f78b5" stroke="#0d0d0d" stroke-width="1.0e-3" fill-opacity="0.2"><rect width="0.26000524656789503" x="0.48951009600859585" y="-0.12239884602690743" height="0.15567554191141303"/></g><g stroke-opacity="1.0" fill="#1f78b5" stroke="#0d0d0d" stroke-width="1.0e-3" fill-opacity="0.2"><rect width="0.2532606227918146" x="0.49288240789663584" y="-0.11871857316848156" height="0.14831499619456134"/></g><g fill="#0d0d0d" stroke="none" stroke-width="0.0" font-size="2.023387132824087e-2" fill-opacity="1.0" text-anchor="start"><text x="0.5105870453088466" y="3.6504993741775515e-3">vertical</text><g stroke-opacity="1.0" fill="#1f78b5" stroke="#0d0d0d" stroke-width="2.023387132824087e-5" fill-opacity="0.2"><rect width="7.286217065299538e-2" x="0.5105769283731825" y="-1.2546714624079264e-2" height="2.22774923323932e-2"/></g></g><g stroke-opacity="1.0" fill="#1f78b5" stroke="#0d0d0d" stroke-width="1.0e-3" fill-opacity="0.2"><rect width="0.10791398041728462" x="0.6137797890828751" y="-5.550182771887013e-3" height="7.360545716851685e-3"/></g><g fill="#0d0d0d" stroke="none" stroke-width="0.0" font-size="2.023387132824087e-2" fill-opacity="1.0" text-anchor="start"><text x="0.5105870453088466" y="-3.9040665783562134e-2">line</text><g stroke-opacity="1.0" fill="#1f78b5" stroke="#0d0d0d" stroke-width="2.023387132824087e-5" fill-opacity="0.2"><rect width="3.644120226216174e-2" x="0.5105769283731825" y="-5.523787978181895e-2" height="2.2277492332393192e-2"/></g></g><g stroke-opacity="1.0" fill="#1f78b5" stroke="#0d0d0d" stroke-width="1.0e-3" fill-opacity="0.2"><rect width="0.12140322796944503" x="0.6070351653067947" y="-5.5601893646478384e-2" height="2.2081637150555e-2"/></g><g fill="#0d0d0d" stroke="none" stroke-width="0.0" font-size="2.023387132824087e-2" fill-opacity="1.0" text-anchor="start"><text x="0.5105870453088466" y="-8.173183094130188e-2">hockey</text><g stroke-opacity="1.0" fill="#1f78b5" stroke="#0d0d0d" stroke-width="2.023387132824087e-5" fill-opacity="0.2"><rect width="5.465168645757856e-2" x="0.5105769283731825" y="-9.792904493955869e-2" height="2.2277492332393192e-2"/></g></g><g stroke-opacity="1.0" fill="#1f78b5" stroke="#0d0d0d" stroke-width="1.0e-3" fill-opacity="0.2"><rect width="0.11128629230532505" x="0.6120936331388549" y="-9.277264951657938e-2" height="1.10408185752775e-2"/></g><g fill="#0d0d0d" stroke="none" stroke-width="0.0" font-size="5.395699020864232e-2" fill-opacity="1.0" text-anchor="middle"><text x="-0.18469935820783034" y="-0.4577637102509622">Line Chart</text><g stroke-opacity="1.0" fill="#1f78b5" stroke="#0d0d0d" stroke-width="5.3956990208642326e-5" fill-opacity="0.2"><rect width="0.2428604129290991" x="-0.3061295646723799" y="-0.5009562809129804" height="5.94066462197152e-2"/></g></g><g fill="#0d0d0d" stroke="none" stroke-width="0.0" font-size="3.3723118880401456e-2" fill-opacity="1.0" text-anchor="end"><text x="0.3805844220248993" y="0.4900905644366131">Made with love and chart-svg</text><g stroke-opacity="1.0" fill="#1f78b5" stroke="#0d0d0d" stroke-width="3.3723118880401456e-5" fill-opacity="0.2"><rect width="0.42494502101193876" x="-4.434373742759929e-2" y="0.46309520777285174" height="3.7129153887322075e-2"/></g></g><g stroke-opacity="1.0" fill="#1f78b5" stroke="#0d0d0d" stroke-width="1.0e-3" fill-opacity="0.2"><rect width="2.697849510432171e-3" x="-0.6734316585820485" y="-0.392806894299746" height="0.7389987899719087"/></g><g stroke-opacity="1.0" fill="#1f78b5" stroke="#0d0d0d" stroke-width="1.0e-3" fill-opacity="0.2"><rect width="2.7787849957449096e-3" x="-0.6856124491216493" y="-0.40384771287502363" height="0.7610804271224638"/></g><g fill="#0d0d0d" stroke="none" stroke-width="0.0" font-size="3.3723118880401456e-2" fill-opacity="1.0" text-anchor="end"><text x="-0.7044569279520178" y="0.3548405368894634">0.0</text><g stroke-opacity="1.0" fill="#1f78b5" stroke="#0d0d0d" stroke-width="3.3723118880401456e-5" fill-opacity="0.2"><rect width="4.55599336074225e-2" x="-0.75" y="0.327845180225702" height="3.7129153887321964e-2"/></g><text x="-0.7044569279520178" y="0.2812350797209465">0.5</text><g stroke-opacity="1.0" fill="#1f78b5" stroke="#0d0d0d" stroke-width="3.3723118880401456e-5" fill-opacity="0.2"><rect width="4.55599336074225e-2" x="-0.75" y="0.2542397230571852" height="3.7129153887321964e-2"/></g><text x="-0.7044569279520178" y="0.20762962255242973">1.0</text><g stroke-opacity="1.0" fill="#1f78b5" stroke="#0d0d0d" stroke-width="3.3723118880401456e-5" fill-opacity="0.2"><rect width="4.55599336074225e-2" x="-0.75" y="0.18063426588866838" height="3.712915388732199e-2"/></g><text x="-0.7044569279520178" y="0.13402416538391293">1.5</text><g stroke-opacity="1.0" fill="#1f78b5" stroke="#0d0d0d" stroke-width="3.3723118880401456e-5" fill-opacity="0.2"><rect width="4.55599336074225e-2" x="-0.75" y="0.10702880872015157" height="3.7129153887322006e-2"/></g><text x="-0.7044569279520178" y="6.041870821539613e-2">2.0</text><g stroke-opacity="1.0" fill="#1f78b5" stroke="#0d0d0d" stroke-width="3.3723118880401456e-5" fill-opacity="0.2"><rect width="4.55599336074225e-2" x="-0.75" y="3.342335155163476e-2" height="3.712915388732201e-2"/></g><text x="-0.7044569279520178" y="-1.3186748953120664e-2">2.5</text><g stroke-opacity="1.0" fill="#1f78b5" stroke="#0d0d0d" stroke-width="3.3723118880401456e-5" fill-opacity="0.2"><rect width="4.55599336074225e-2" x="-0.75" y="-4.0182105616882034e-2" height="3.712915388732201e-2"/></g><text x="-0.7044569279520178" y="-8.679220612163752e-2">3.0</text><g stroke-opacity="1.0" fill="#1f78b5" stroke="#0d0d0d" stroke-width="3.3723118880401456e-5" fill-opacity="0.2"><rect width="4.55599336074225e-2" x="-0.75" y="-0.11378756278539888" height="3.7129153887322006e-2"/></g><text x="-0.7044569279520178" y="-0.16039766329015437">3.5</text><g stroke-opacity="1.0" fill="#1f78b5" stroke="#0d0d0d" stroke-width="3.3723118880401456e-5" fill-opacity="0.2"><rect width="4.55599336074225e-2" x="-0.75" y="-0.18739301995391572" height="3.712915388732199e-2"/></g><text x="-0.7044569279520178" y="-0.2340031204586711">4.0</text><g stroke-opacity="1.0" fill="#1f78b5" stroke="#0d0d0d" stroke-width="3.3723118880401456e-5" fill-opacity="0.2"><rect width="4.55599336074225e-2" x="-0.75" y="-0.26099847712243246" height="3.712915388732199e-2"/></g><text x="-0.7044569279520178" y="-0.30760857762718796">4.5</text><g stroke-opacity="1.0" fill="#1f78b5" stroke="#0d0d0d" stroke-width="3.3723118880401456e-5" fill-opacity="0.2"><rect width="4.55599336074225e-2" x="-0.75" y="-0.3346039342909493" height="3.7129153887321964e-2"/></g><text x="-0.7044569279520178" y="-0.3812140347957047">5.0</text><g stroke-opacity="1.0" fill="#1f78b5" stroke="#0d0d0d" stroke-width="3.3723118880401456e-5" fill-opacity="0.2"><rect width="4.55599336074225e-2" x="-0.75" y="-0.40820939145946605" height="3.7129153887321964e-2"/></g></g><g stroke-opacity="1.0" fill="#1f78b5" stroke="#0d0d0d" stroke-width="1.0e-3" fill-opacity="0.2"><rect width="1.0150658783000837" x="-0.6555584055754357" y="-0.39317492158558864" height="0.7397348445435938"/></g><g stroke-opacity="1.0" fill="#1f78b5" stroke="#0d0d0d" stroke-width="1.0e-3" fill-opacity="0.2"><rect width="1.0143914159224756" x="-0.6552211743866316" y="0.36312115082092156" height="2.9442182867406297e-3"/></g><g stroke-opacity="1.0" fill="#1f78b5" stroke="#0d0d0d" stroke-width="1.0e-3" fill-opacity="0.2"><rect width="1.0144723514077885" x="-0.6552616421292881" y="0.365329314535977" height="2.502585543729574e-2"/></g><g fill="#0d0d0d" stroke="none" stroke-width="0.0" font-size="3.3723118880401456e-2" fill-opacity="1.0" text-anchor="middle"><text x="-0.6538722496314155" y="0.42016538012652205">0.0</text><g stroke-opacity="1.0" fill="#1f78b5" stroke="#0d0d0d" stroke-width="3.3723118880401456e-5" fill-opacity="0.2"><rect width="4.555993360742239e-2" x="-0.6766522164351267" y="0.3931700234627607" height="3.7129153887321964e-2"/></g><text x="-0.48525665522940825" y="0.42016538012652205">0.5</text><g stroke-opacity="1.0" fill="#1f78b5" stroke="#0d0d0d" stroke-width="3.3723118880401456e-5" fill-opacity="0.2"><rect width="4.555993360742244e-2" x="-0.5080366220331195" y="0.3931700234627607" height="3.7129153887321964e-2"/></g><text x="-0.31664106082740107" y="0.42016538012652205">1.0</text><g stroke-opacity="1.0" fill="#1f78b5" stroke="#0d0d0d" stroke-width="3.3723118880401456e-5" fill-opacity="0.2"><rect width="4.555993360742239e-2" x="-0.33942102763111226" y="0.3931700234627607" height="3.7129153887321964e-2"/></g><text x="-0.14802546642539371" y="0.42016538012652205">1.5</text><g stroke-opacity="1.0" fill="#1f78b5" stroke="#0d0d0d" stroke-width="3.3723118880401456e-5" fill-opacity="0.2"><rect width="4.555993360742239e-2" x="-0.1708054332291049" y="0.3931700234627607" height="3.7129153887321964e-2"/></g><text x="2.0590127976613415e-2" y="0.42016538012652205">2.0</text><g stroke-opacity="1.0" fill="#1f78b5" stroke="#0d0d0d" stroke-width="3.3723118880401456e-5" fill-opacity="0.2"><rect width="4.555993360742237e-2" x="-2.18983882709777e-3" y="0.3931700234627607" height="3.7129153887321964e-2"/></g><text x="0.189205722378621" y="0.42016538012652205">2.5</text><g stroke-opacity="1.0" fill="#1f78b5" stroke="#0d0d0d" stroke-width="3.3723118880401456e-5" fill-opacity="0.2"><rect width="4.555993360742239e-2" x="0.1664257555749098" y="0.3931700234627607" height="3.7129153887321964e-2"/></g><text x="0.35782131678062834" y="0.42016538012652205">3.0</text><g stroke-opacity="1.0" fill="#1f78b5" stroke="#0d0d0d" stroke-width="3.3723118880401456e-5" fill-opacity="0.2"><rect width="4.555993360742239e-2" x="0.33504134997691715" y="0.3931700234627607" height="3.7129153887321964e-2"/></g></g><g stroke-opacity="1.0" fill="#1f78b5" stroke="#0d0d0d" stroke-width="1.0e-3" fill-opacity="0.2"><rect width="1.0150658783000837" x="-0.6555584055754357" y="-0.39317492158558864" height="0.7397348445435938"/></g><g stroke-opacity="1.0" fill="#1f78b5" stroke="#0d0d0d" stroke-width="1.0e-3" fill-opacity="0.2"><rect width="0.6845793132721494" x="-0.6589307174634758" y="-0.3968551944440145" height="0.599884475923412"/></g><g stroke-opacity="1.0" fill="#1f78b5" stroke="#0d0d0d" stroke-width="1.0e-3" fill-opacity="0.2"><rect width="0.9644811999794816" x="-0.663989185295536" y="-0.10795377505758608" height="0.4637143801616559"/></g><g stroke-opacity="1.0" fill="#1f78b5" stroke="#0d0d0d" stroke-width="1.0e-3" fill-opacity="0.2"><rect width="6.744623776080205e-3" x="-0.4886289671174484" y="-0.24780414367776793" height="0.5962042030649861"/></g><g stroke-opacity="1.0" fill="#1f78b5" stroke="#0d0d0d" stroke-width="1.0e-3" fill-opacity="0.2"><rect width="1.0116935664120439" x="-0.6538722496314155" y="-0.3913347851563759" height="0.7360545716851682"/></g></svg>