<svg xmlns="http://www.w3.org/2000/svg" xmlns:xlink="http://www.w3.org/1999/xlink" width="450" height="300" viewBox="-0.75 -0.5 1.5 1.0"><style>svg {
  color-scheme: light dark;
}
{
  .canvas g, .title g, .axisbar g, .ticktext g, .tickglyph g, .ticklines g, .legendContent g text {
    fill: rgb(5%, 5%, 5%);
  }
  .ticklines g, .tickglyph g, .legendBorder g {
    stroke: rgb(5%, 5%, 5%);
  }
  .legendBorder g {
    fill: rgb(94%, 94%, 94%);
  }
}
@media (prefers-color-scheme:dark) {
  .canvas g, .title g, .axisbar g, .ticktext g, .tickglyph g, .ticklines g, .legendContent g text {
    fill: rgb(94%, 94%, 94%);
  }
  .ticklines g, .tickglyph g, .legendBorder g {
    stroke: rgb(94%, 94%, 94%);
  }
  .legendBorder g {
    fill: rgb(5%, 5%, 5%);
  }
}</style><g class="chart"><g class="chart"><g class="line"><g stroke-width="0.0150" stroke="rgb(2%, 73%, 80%)" stroke-opacity="1.0" fill="none"><polyline points="-0.6052,0.1871 -0.2074,0.1871 0.1903,-0.3531"/></g><g stroke-width="0.0150" stroke="rgb(2%, 29%, 48%)" stroke-opacity="1.0" fill="none"><polyline points="-0.6052,0.3221 0.5085,-0.0830"/></g><g stroke-width="0.0150" stroke="rgb(66%, 7%, 55%)" stroke-opacity="1.0" fill="none"><polyline points="-0.4063,-0.2180 -0.4063,0.3221"/></g></g></g><g class="hud"><g class="frame"><g stroke-width="0" stroke="rgb(0%, 0%, 0%)" stroke-opacity="0" fill="rgb(100%, 100%, 100%)" fill-opacity="0.02"><rect width="1.1992" height="0.6853" x="-0.6111" y="-0.3581"/></g></g><g class="axis"><g class="ticks"><g class="tickglyph"><g stroke-width="0.0040" stroke="rgb(5%, 5%, 5%)" stroke-opacity="0.4" fill="rgb(5%, 5%, 5%)" fill-opacity="0.4"><g transform="rotate(-90.0, -0.6351, 0.3221)"><polyline points="-0.6351,0.3371
-0.6351,0.3071"/></g><g transform="rotate(-90.0, -0.6351, 0.2546)"><polyline points="-0.6351,0.2696
-0.6351,0.2396"/></g><g transform="rotate(-90.0, -0.6351, 0.1871)"><polyline points="-0.6351,0.2021
-0.6351,0.1721"/></g><g transform="rotate(-90.0, -0.6351, 0.1195)"><polyline points="-0.6351,0.1345
-0.6351,0.1045"/></g><g transform="rotate(-90.0, -0.6351, 0.0520)"><polyline points="-0.6351,0.0670
-0.6351,0.0370"/></g><g transform="rotate(-90.0, -0.6351, -0.0155)"><polyline points="-0.6351,-0.0005
-0.6351,-0.0305"/></g><g transform="rotate(-90.0, -0.6351, -0.0830)"><polyline points="-0.6351,-0.0680
-0.6351,-0.0980"/></g><g transform="rotate(-90.0, -0.6351, -0.1505)"><polyline points="-0.6351,-0.1355
-0.6351,-0.1655"/></g><g transform="rotate(-90.0, -0.6351, -0.2180)"><polyline points="-0.6351,-0.2030
-0.6351,-0.2330"/></g><g transform="rotate(-90.0, -0.6351, -0.2855)"><polyline points="-0.6351,-0.2705
-0.6351,-0.3005"/></g><g transform="rotate(-90.0, -0.6351, -0.3531)"><polyline points="-0.6351,-0.3381
-0.6351,-0.3681"/></g></g></g><g class="ticktext"><g stroke-width="0.0" stroke="none" fill="rgb(5%, 5%, 5%)" fill-opacity="1.0" font-size="0.0399" text-anchor="end"><text x="-0.6638" y="0.3314">0.0</text><text x="-0.6638" y="0.2639">0.5</text><text x="-0.6638" y="0.1964">1.0</text><text x="-0.6638" y="0.1288">1.5</text><text x="-0.6638" y="0.0613">2.0</text><text x="-0.6638" y="-0.0062">2.5</text><text x="-0.6638" y="-0.0737">3.0</text><text x="-0.6638" y="-0.1412">3.5</text><text x="-0.6638" y="-0.2087">4.0</text><text x="-0.6638" y="-0.2762">4.5</text><text x="-0.6638" y="-0.3438">5.0</text></g></g><g class="ticklines"><g stroke-width="0.0050" stroke="rgb(5%, 5%, 5%)" stroke-opacity="0.05" fill="none"><polyline points="-0.6052,0.3221 0.5880,0.3221"/><polyline points="-0.6052,0.2546 0.5880,0.2546"/><polyline points="-0.6052,0.1871 0.5880,0.1871"/><polyline points="-0.6052,0.1195 0.5880,0.1195"/><polyline points="-0.6052,0.0520 0.5880,0.0520"/><polyline points="-0.6052,-0.0155 0.5880,-0.0155"/><polyline points="-0.6052,-0.0830 0.5880,-0.0830"/><polyline points="-0.6052,-0.1505 0.5880,-0.1505"/><polyline points="-0.6052,-0.2180 0.5880,-0.2180"/><polyline points="-0.6052,-0.2855 0.5880,-0.2855"/><polyline points="-0.6052,-0.3531 0.5880,-0.3531"/></g></g></g><g class="axisbar"><g stroke-width="0" stroke="rgb(0%, 0%, 0%)" stroke-opacity="0" fill="rgb(5%, 5%, 5%)" fill-opacity="0.4"><rect width="0.0032" height="0.6779" x="-0.6223" y="-0.3544"/></g></g></g><g class="axis"><g class="ticks"><g class="tickglyph"><g stroke-width="0.0040" stroke="rgb(5%, 5%, 5%)" stroke-opacity="0.4" fill="rgb(5%, 5%, 5%)" fill-opacity="0.4"><polyline points="-0.6052,0.3625
-0.6052,0.3325"/><polyline points="-0.4063,0.3625
-0.4063,0.3325"/><polyline points="-0.2074,0.3625
-0.2074,0.3325"/><polyline points="-0.0086,0.3625
-0.0086,0.3325"/><polyline points="0.1903,0.3625
0.1903,0.3325"/><polyline points="0.3892,0.3625
0.3892,0.3325"/><polyline points="0.5880,0.3625
0.5880,0.3325"/></g></g><g class="ticktext"><g stroke-width="0.0" stroke="none" fill="rgb(5%, 5%, 5%)" fill-opacity="1.0" font-size="0.0399" text-anchor="middle"><text x="-0.6052" y="0.3905">0.0</text><text x="-0.4063" y="0.3905">0.5</text><text x="-0.2074" y="0.3905">1.0</text><text x="-0.0086" y="0.3905">1.5</text><text x="0.1903" y="0.3905">2.0</text><text x="0.3892" y="0.3905">2.5</text><text x="0.5880" y="0.3905">3.0</text></g></g><g class="ticklines"><g stroke-width="0.0050" stroke="rgb(5%, 5%, 5%)" stroke-opacity="0.05" fill="none"><polyline points="-0.6052,0.3221 -0.6052,-0.3531"/><polyline points="-0.4063,0.3221 -0.4063,-0.3531"/><polyline points="-0.2074,0.3221 -0.2074,-0.3531"/><polyline points="-0.0086,0.3221 -0.0086,-0.3531"/><polyline points="0.1903,0.3221 0.1903,-0.3531"/><polyline points="0.3892,0.3221 0.3892,-0.3531"/><polyline points="0.5880,0.3221 0.5880,-0.3531"/></g></g></g><g class="axisbar"><g stroke-width="0" stroke="rgb(0%, 0%, 0%)" stroke-opacity="0" fill="rgb(5%, 5%, 5%)" fill-opacity="0.4"><rect width="1.1964" height="0.0027" x="-0.6068" y="0.3339"/></g></g></g><g class="title"><g stroke-width="0.0" stroke="none" fill="rgb(5%, 5%, 5%)" fill-opacity="1.0" font-size="0.0797" text-anchor="middle"><text x="-0.0513" y="-0.4182">Line Chart</text></g></g><g class="title"><g stroke-width="0.0" stroke="none" fill="rgb(5%, 5%, 5%)" fill-opacity="1.0" font-size="0.0478" text-anchor="end"><text x="0.6149" y="0.4602">Made with love and chart-svg</text></g></g><g class="legend"><g class="legendBorder"><g stroke-width="0.0025" stroke="rgb(5%, 5%, 5%)" stroke-opacity="1.0" fill="rgb(99%, 99%, 99%)" fill-opacity="1.0"><rect width="0.3848" height="0.1794" x="0.3288" y="0.0776"/></g></g><g class="legendContent"><g stroke-width="0.0" stroke="none" fill="rgb(5%, 5%, 5%)" fill-opacity="1.0" font-size="0.0399" text-anchor="start"><text x="0.3488" y="0.2300">palette1 2</text></g><g stroke-width="0.0150" stroke="rgb(66%, 7%, 55%)" stroke-opacity="1.0" fill="none"><polyline points="0.5681,0.2215 0.6877,0.2215"/></g><g stroke-width="0.0" stroke="none" fill="rgb(5%, 5%, 5%)" fill-opacity="1.0" font-size="0.0399" text-anchor="start"><text x="0.3488" y="0.1758">palette1 1</text></g><g stroke-width="0.0150" stroke="rgb(2%, 29%, 48%)" stroke-opacity="1.0" fill="none"><polyline points="0.5681,0.1673 0.6877,0.1673"/></g><g stroke-width="0.0" stroke="none" fill="rgb(5%, 5%, 5%)" fill-opacity="1.0" font-size="0.0399" text-anchor="start"><text x="0.3488" y="0.1216">palette1 0</text></g><g stroke-width="0.0150" stroke="rgb(2%, 73%, 80%)" stroke-opacity="1.0" fill="none"><polyline points="0.5681,0.1132 0.6877,0.1132"/></g></g></g><g class="frame"><g stroke-width="0" stroke="rgb(0%, 0%, 0%)" stroke-opacity="0" fill="rgb(100%, 100%, 100%)" fill-opacity="0.02"><rect width="1.499" height="0.9990" x="-0.7495" y="-0.4995"/></g></g></g><g class="glyphize"><g class="chart"><g class="line"><g stroke-width="0.0030" stroke="rgb(2%, 29%, 48%)" stroke-opacity="1.0" fill="rgb(2%, 73%, 80%)" fill-opacity="0.2"><circle cx="-0.6052" cy="0.1871" r="0.0050"/><circle cx="-0.2074" cy="0.1871" r="0.0050"/><circle cx="0.1903" cy="-0.3531" r="0.0050"/></g><g stroke-width="0.0030" stroke="rgb(2%, 29%, 48%)" stroke-opacity="1.0" fill="rgb(2%, 73%, 80%)" fill-opacity="0.2"><circle cx="-0.6052" cy="0.3221" r="0.0050"/><circle cx="0.5085" cy="-0.0830" r="0.0050"/></g><g stroke-width="0.0030" stroke="rgb(2%, 29%, 48%)" stroke-opacity="1.0" fill="rgb(2%, 73%, 80%)" fill-opacity="0.2"><circle cx="-0.4063" cy="-0.2180" r="0.0050"/><circle cx="-0.4063" cy="0.3221" r="0.0050"/></g></g><g stroke-width="0.0030" stroke="rgb(2%, 29%, 48%)" stroke-opacity="1.0" fill="rgb(2%, 73%, 80%)" fill-opacity="0.2"><circle cx="-0.0086" cy="-0.0155" r="0.0050"/></g></g><g class="hud"><g class="frame"><g stroke-width="0.0030" stroke="rgb(2%, 29%, 48%)" stroke-opacity="1.0" fill="rgb(2%, 73%, 80%)" fill-opacity="0.2"><circle cx="-0.0116" cy="-0.0155" r="0.0050"/></g></g><g class="axis"><g class="ticks"><g class="tickglyph"><g stroke-width="0.0030" stroke="rgb(2%, 29%, 48%)" stroke-opacity="1.0" fill="rgb(2%, 73%, 80%)" fill-opacity="0.2"><circle cx="-0.6351" cy="0.3221" r="0.0050"/><circle cx="-0.6351" cy="0.2546" r="0.0050"/><circle cx="-0.6351" cy="0.1871" r="0.0050"/><circle cx="-0.6351" cy="0.1195" r="0.0050"/><circle cx="-0.6351" cy="0.0520" r="0.0050"/><circle cx="-0.6351" cy="-0.0155" r="0.0050"/><circle cx="-0.6351" cy="-0.0830" r="0.0050"/><circle cx="-0.6351" cy="-0.1505" r="0.0050"/><circle cx="-0.6351" cy="-0.2180" r="0.0050"/><circle cx="-0.6351" cy="-0.2855" r="0.0050"/><circle cx="-0.6351" cy="-0.3531" r="0.0050"/></g></g><g class="ticktext"><g stroke-width="0.0030" stroke="rgb(2%, 29%, 48%)" stroke-opacity="1.0" fill="rgb(2%, 73%, 80%)" fill-opacity="0.2"><circle cx="-0.6638" cy="0.3314" r="0.0050"/><circle cx="-0.6638" cy="0.2639" r="0.0050"/><circle cx="-0.6638" cy="0.1964" r="0.0050"/><circle cx="-0.6638" cy="0.1288" r="0.0050"/><circle cx="-0.6638" cy="0.0613" r="0.0050"/><circle cx="-0.6638" cy="-0.0062" r="0.0050"/><circle cx="-0.6638" cy="-0.0737" r="0.0050"/><circle cx="-0.6638" cy="-0.1412" r="0.0050"/><circle cx="-0.6638" cy="-0.2087" r="0.0050"/><circle cx="-0.6638" cy="-0.2762" r="0.0050"/><circle cx="-0.6638" cy="-0.3438" r="0.0050"/></g></g><g class="ticklines"><g stroke-width="0.0030" stroke="rgb(2%, 29%, 48%)" stroke-opacity="1.0" fill="rgb(2%, 73%, 80%)" fill-opacity="0.2"><circle cx="-0.6052" cy="0.3221" r="0.0050"/><circle cx="0.5880" cy="0.3221" r="0.0050"/><circle cx="-0.6052" cy="0.2546" r="0.0050"/><circle cx="0.5880" cy="0.2546" r="0.0050"/><circle cx="-0.6052" cy="0.1871" r="0.0050"/><circle cx="0.5880" cy="0.1871" r="0.0050"/><circle cx="-0.6052" cy="0.1195" r="0.0050"/><circle cx="0.5880" cy="0.1195" r="0.0050"/><circle cx="-0.6052" cy="0.0520" r="0.0050"/><circle cx="0.5880" cy="0.0520" r="0.0050"/><circle cx="-0.6052" cy="-0.0155" r="0.0050"/><circle cx="0.5880" cy="-0.0155" r="0.0050"/><circle cx="-0.6052" cy="-0.0830" r="0.0050"/><circle cx="0.5880" cy="-0.0830" r="0.0050"/><circle cx="-0.6052" cy="-0.1505" r="0.0050"/><circle cx="0.5880" cy="-0.1505" r="0.0050"/><circle cx="-0.6052" cy="-0.2180" r="0.0050"/><circle cx="0.5880" cy="-0.2180" r="0.0050"/><circle cx="-0.6052" cy="-0.2855" r="0.0050"/><circle cx="0.5880" cy="-0.2855" r="0.0050"/><circle cx="-0.6052" cy="-0.3531" r="0.0050"/><circle cx="0.5880" cy="-0.3531" r="0.0050"/></g></g></g><g class="axisbar"><g stroke-width="0.0030" stroke="rgb(2%, 29%, 48%)" stroke-opacity="1.0" fill="rgb(2%, 73%, 80%)" fill-opacity="0.2"><circle cx="-0.6207" cy="-0.0155" r="0.0050"/></g></g></g><g class="axis"><g class="ticks"><g class="tickglyph"><g stroke-width="0.0030" stroke="rgb(2%, 29%, 48%)" stroke-opacity="1.0" fill="rgb(2%, 73%, 80%)" fill-opacity="0.2"><circle cx="-0.6052" cy="0.3475" r="0.0050"/><circle cx="-0.4063" cy="0.3475" r="0.0050"/><circle cx="-0.2074" cy="0.3475" r="0.0050"/><circle cx="-0.0086" cy="0.3475" r="0.0050"/><circle cx="0.1903" cy="0.3475" r="0.0050"/><circle cx="0.3892" cy="0.3475" r="0.0050"/><circle cx="0.5880" cy="0.3475" r="0.0050"/></g></g><g class="ticktext"><g stroke-width="0.0030" stroke="rgb(2%, 29%, 48%)" stroke-opacity="1.0" fill="rgb(2%, 73%, 80%)" fill-opacity="0.2"><circle cx="-0.6052" cy="0.3905" r="0.0050"/><circle cx="-0.4063" cy="0.3905" r="0.0050"/><circle cx="-0.2074" cy="0.3905" r="0.0050"/><circle cx="-0.0086" cy="0.3905" r="0.0050"/><circle cx="0.1903" cy="0.3905" r="0.0050"/><circle cx="0.3892" cy="0.3905" r="0.0050"/><circle cx="0.5880" cy="0.3905" r="0.0050"/></g></g><g class="ticklines"><g stroke-width="0.0030" stroke="rgb(2%, 29%, 48%)" stroke-opacity="1.0" fill="rgb(2%, 73%, 80%)" fill-opacity="0.2"><circle cx="-0.6052" cy="0.3221" r="0.0050"/><circle cx="-0.6052" cy="-0.3531" r="0.0050"/><circle cx="-0.4063" cy="0.3221" r="0.0050"/><circle cx="-0.4063" cy="-0.3531" r="0.0050"/><circle cx="-0.2074" cy="0.3221" r="0.0050"/><circle cx="-0.2074" cy="-0.3531" r="0.0050"/><circle cx="-0.0086" cy="0.3221" r="0.0050"/><circle cx="-0.0086" cy="-0.3531" r="0.0050"/><circle cx="0.1903" cy="0.3221" r="0.0050"/><circle cx="0.1903" cy="-0.3531" r="0.0050"/><circle cx="0.3892" cy="0.3221" r="0.0050"/><circle cx="0.3892" cy="-0.3531" r="0.0050"/><circle cx="0.5880" cy="0.3221" r="0.0050"/><circle cx="0.5880" cy="-0.3531" r="0.0050"/></g></g></g><g class="axisbar"><g stroke-width="0.0030" stroke="rgb(2%, 29%, 48%)" stroke-opacity="1.0" fill="rgb(2%, 73%, 80%)" fill-opacity="0.2"><circle cx="-0.0086" cy="0.3353" r="0.0050"/></g></g></g><g class="title"><g stroke-width="0.0030" stroke="rgb(2%, 29%, 48%)" stroke-opacity="1.0" fill="rgb(2%, 73%, 80%)" fill-opacity="0.2"><circle cx="-0.0513" cy="-0.4182" r="0.0050"/></g></g><g class="title"><g stroke-width="0.0030" stroke="rgb(2%, 29%, 48%)" stroke-opacity="1.0" fill="rgb(2%, 73%, 80%)" fill-opacity="0.2"><circle cx="0.6149" cy="0.4602" r="0.0050"/></g></g><g class="legend"><g class="legendBorder"><g stroke-width="0.0030" stroke="rgb(2%, 29%, 48%)" stroke-opacity="1.0" fill="rgb(2%, 73%, 80%)" fill-opacity="0.2"><circle cx="0.5212" cy="0.1673" r="0.0050"/></g><g stroke-width="0.0030" stroke="rgb(2%, 29%, 48%)" stroke-opacity="1.0" fill="rgb(2%, 73%, 80%)" fill-opacity="0.2"><circle cx="0.5212" cy="0.1673" r="0.0050"/></g><g stroke-width="0.0030" stroke="rgb(2%, 29%, 48%)" stroke-opacity="1.0" fill="rgb(2%, 73%, 80%)" fill-opacity="0.2"><circle cx="0.5212" cy="0.1673" r="0.0050"/></g></g><g class="legendContent"><g stroke-width="0.0030" stroke="rgb(2%, 29%, 48%)" stroke-opacity="1.0" fill="rgb(2%, 73%, 80%)" fill-opacity="0.2"><circle cx="0.3488" cy="0.2300" r="0.0050"/></g><g stroke-width="0.0030" stroke="rgb(2%, 29%, 48%)" stroke-opacity="1.0" fill="rgb(2%, 73%, 80%)" fill-opacity="0.2"><circle cx="0.5681" cy="0.2215" r="0.0050"/><circle cx="0.6877" cy="0.2215" r="0.0050"/></g><g stroke-width="0.0030" stroke="rgb(2%, 29%, 48%)" stroke-opacity="1.0" fill="rgb(2%, 73%, 80%)" fill-opacity="0.2"><circle cx="0.3488" cy="0.1758" r="0.0050"/></g><g stroke-width="0.0030" stroke="rgb(2%, 29%, 48%)" stroke-opacity="1.0" fill="rgb(2%, 73%, 80%)" fill-opacity="0.2"><circle cx="0.5681" cy="0.1673" r="0.0050"/><circle cx="0.6877" cy="0.1673" r="0.0050"/></g><g stroke-width="0.0030" stroke="rgb(2%, 29%, 48%)" stroke-opacity="1.0" fill="rgb(2%, 73%, 80%)" fill-opacity="0.2"><circle cx="0.3488" cy="0.1216" r="0.0050"/></g><g stroke-width="0.0030" stroke="rgb(2%, 29%, 48%)" stroke-opacity="1.0" fill="rgb(2%, 73%, 80%)" fill-opacity="0.2"><circle cx="0.5681" cy="0.1132" r="0.0050"/><circle cx="0.6877" cy="0.1132" r="0.0050"/></g></g></g><g class="frame"><g stroke-width="0.0030" stroke="rgb(2%, 29%, 48%)" stroke-opacity="1.0" fill="rgb(2%, 73%, 80%)" fill-opacity="0.2"><circle cx="0" cy="0" r="0.0050"/></g></g></g></g><g class="rectangularize"><g class="chart"><g class="line"><g stroke-width="0.0010" stroke="rgb(5%, 5%, 5%)" stroke-opacity="1.0" fill="rgb(2%, 73%, 80%)" fill-opacity="0.05"><rect width="0.8104" height="0.5551" x="-0.6127" y="-0.3606"/></g><g stroke-width="0.0010" stroke="rgb(5%, 5%, 5%)" stroke-opacity="1.0" fill="rgb(2%, 73%, 80%)" fill-opacity="0.05"><rect width="1.1286" height="0.4201" x="-0.6127" y="-0.0905"/></g><g stroke-width="0.0010" stroke="rgb(5%, 5%, 5%)" stroke-opacity="1.0" fill="rgb(2%, 73%, 80%)" fill-opacity="0.05"><rect width="0.0150" height="0.5551" x="-0.4138" y="-0.2255"/></g></g><g stroke-width="0.0010" stroke="rgb(5%, 5%, 5%)" stroke-opacity="1.0" fill="rgb(2%, 73%, 80%)" fill-opacity="0.05"><rect width="1.1932" height="0.6751" x="-0.6052" y="-0.3531"/></g></g><g class="hud"><g class="frame"><g stroke-width="0.0010" stroke="rgb(5%, 5%, 5%)" stroke-opacity="1.0" fill="rgb(2%, 73%, 80%)" fill-opacity="0.05"><rect width="1.1992" height="0.6853" x="-0.6111" y="-0.3581"/></g></g><g class="axis"><g class="ticks"><g class="tickglyph"><g stroke-width="0.0010" stroke="rgb(5%, 5%, 5%)" stroke-opacity="1.0" fill="rgb(2%, 73%, 80%)" fill-opacity="0.05"><rect width="0.0340" height="0.6831" x="-0.6521" y="-0.3571"/></g></g><g class="ticktext"><g stroke-width="0.0" stroke="none" fill="rgb(5%, 5%, 5%)" fill-opacity="1.0" font-size="0.0399" text-anchor="end"><g stroke-width="0.0000" stroke="rgb(5%, 5%, 5%)" stroke-opacity="1.0" fill="rgb(2%, 73%, 80%)" fill-opacity="0.05"><rect width="0.0539" height="0.0439" x="-0.7176" y="0.2995"/></g><text x="-0.6638" y="0.3314">0.0</text><g stroke-width="0.0000" stroke="rgb(5%, 5%, 5%)" stroke-opacity="1.0" fill="rgb(2%, 73%, 80%)" fill-opacity="0.05"><rect width="0.0539" height="0.0439" x="-0.7176" y="0.2320"/></g><text x="-0.6638" y="0.2639">0.5</text><g stroke-width="0.0000" stroke="rgb(5%, 5%, 5%)" stroke-opacity="1.0" fill="rgb(2%, 73%, 80%)" fill-opacity="0.05"><rect width="0.0539" height="0.0439" x="-0.7176" y="0.1644"/></g><text x="-0.6638" y="0.1964">1.0</text><g stroke-width="0.0000" stroke="rgb(5%, 5%, 5%)" stroke-opacity="1.0" fill="rgb(2%, 73%, 80%)" fill-opacity="0.05"><rect width="0.0539" height="0.0439" x="-0.7176" y="0.0969"/></g><text x="-0.6638" y="0.1288">1.5</text><g stroke-width="0.0000" stroke="rgb(5%, 5%, 5%)" stroke-opacity="1.0" fill="rgb(2%, 73%, 80%)" fill-opacity="0.05"><rect width="0.0539" height="0.0439" x="-0.7176" y="0.0294"/></g><text x="-0.6638" y="0.0613">2.0</text><g stroke-width="0.0000" stroke="rgb(5%, 5%, 5%)" stroke-opacity="1.0" fill="rgb(2%, 73%, 80%)" fill-opacity="0.05"><rect width="0.0539" height="0.0439" x="-0.7176" y="-0.0381"/></g><text x="-0.6638" y="-0.0062">2.5</text><g stroke-width="0.0000" stroke="rgb(5%, 5%, 5%)" stroke-opacity="1.0" fill="rgb(2%, 73%, 80%)" fill-opacity="0.05"><rect width="0.0539" height="0.0439" x="-0.7176" y="-0.1056"/></g><text x="-0.6638" y="-0.0737">3.0</text><g stroke-width="0.0000" stroke="rgb(5%, 5%, 5%)" stroke-opacity="1.0" fill="rgb(2%, 73%, 80%)" fill-opacity="0.05"><rect width="0.0539" height="0.0439" x="-0.7176" y="-0.1731"/></g><text x="-0.6638" y="-0.1412">3.5</text><g stroke-width="0.0000" stroke="rgb(5%, 5%, 5%)" stroke-opacity="1.0" fill="rgb(2%, 73%, 80%)" fill-opacity="0.05"><rect width="0.0539" height="0.0439" x="-0.7176" y="-0.2406"/></g><text x="-0.6638" y="-0.2087">4.0</text><g stroke-width="0.0000" stroke="rgb(5%, 5%, 5%)" stroke-opacity="1.0" fill="rgb(2%, 73%, 80%)" fill-opacity="0.05"><rect width="0.0539" height="0.0439" x="-0.7176" y="-0.3082"/></g><text x="-0.6638" y="-0.2762">4.5</text><g stroke-width="0.0000" stroke="rgb(5%, 5%, 5%)" stroke-opacity="1.0" fill="rgb(2%, 73%, 80%)" fill-opacity="0.05"><rect width="0.0539" height="0.0439" x="-0.7176" y="-0.3757"/></g><text x="-0.6638" y="-0.3438">5.0</text></g></g><g class="ticklines"><g stroke-width="0.0010" stroke="rgb(5%, 5%, 5%)" stroke-opacity="1.0" fill="rgb(2%, 73%, 80%)" fill-opacity="0.05"><rect width="1.1982" height="0.6801" x="-0.6077" y="-0.3556"/></g></g></g><g class="axisbar"><g stroke-width="0.0010" stroke="rgb(5%, 5%, 5%)" stroke-opacity="1.0" fill="rgb(2%, 73%, 80%)" fill-opacity="0.05"><rect width="0.0032" height="0.6779" x="-0.6223" y="-0.3544"/></g></g></g><g class="axis"><g class="ticks"><g class="tickglyph"><g stroke-width="0.0010" stroke="rgb(5%, 5%, 5%)" stroke-opacity="1.0" fill="rgb(2%, 73%, 80%)" fill-opacity="0.05"><rect width="1.2012" height="0.0340" x="-0.6092" y="0.3305"/></g></g><g class="ticktext"><g stroke-width="0.0" stroke="none" fill="rgb(5%, 5%, 5%)" fill-opacity="1.0" font-size="0.0399" text-anchor="middle"><g stroke-width="0.0000" stroke="rgb(5%, 5%, 5%)" stroke-opacity="1.0" fill="rgb(2%, 73%, 80%)" fill-opacity="0.05"><rect width="0.0539" height="0.0439" x="-0.6321" y="0.3586"/></g><text x="-0.6052" y="0.3905">0.0</text><g stroke-width="0.0000" stroke="rgb(5%, 5%, 5%)" stroke-opacity="1.0" fill="rgb(2%, 73%, 80%)" fill-opacity="0.05"><rect width="0.0539" height="0.0439" x="-0.4332" y="0.3586"/></g><text x="-0.4063" y="0.3905">0.5</text><g stroke-width="0.0000" stroke="rgb(5%, 5%, 5%)" stroke-opacity="1.0" fill="rgb(2%, 73%, 80%)" fill-opacity="0.05"><rect width="0.0539" height="0.0439" x="-0.2344" y="0.3586"/></g><text x="-0.2074" y="0.3905">1.0</text><g stroke-width="0.0000" stroke="rgb(5%, 5%, 5%)" stroke-opacity="1.0" fill="rgb(2%, 73%, 80%)" fill-opacity="0.05"><rect width="0.0539" height="0.0439" x="-0.0355" y="0.3586"/></g><text x="-0.0086" y="0.3905">1.5</text><g stroke-width="0.0000" stroke="rgb(5%, 5%, 5%)" stroke-opacity="1.0" fill="rgb(2%, 73%, 80%)" fill-opacity="0.05"><rect width="0.0539" height="0.0439" x="0.1634" y="0.3586"/></g><text x="0.1903" y="0.3905">2.0</text><g stroke-width="0.0000" stroke="rgb(5%, 5%, 5%)" stroke-opacity="1.0" fill="rgb(2%, 73%, 80%)" fill-opacity="0.05"><rect width="0.0539" height="0.0439" x="0.3622" y="0.3586"/></g><text x="0.3892" y="0.3905">2.5</text><g stroke-width="0.0000" stroke="rgb(5%, 5%, 5%)" stroke-opacity="1.0" fill="rgb(2%, 73%, 80%)" fill-opacity="0.05"><rect width="0.0539" height="0.0439" x="0.5611" y="0.3586"/></g><text x="0.5880" y="0.3905">3.0</text></g></g><g class="ticklines"><g stroke-width="0.0010" stroke="rgb(5%, 5%, 5%)" stroke-opacity="1.0" fill="rgb(2%, 73%, 80%)" fill-opacity="0.05"><rect width="1.1982" height="0.6801" x="-0.6077" y="-0.3556"/></g></g></g><g class="axisbar"><g stroke-width="0.0010" stroke="rgb(5%, 5%, 5%)" stroke-opacity="1.0" fill="rgb(2%, 73%, 80%)" fill-opacity="0.05"><rect width="1.1964" height="0.0027" x="-0.6068" y="0.3339"/></g></g></g><g class="title"><g stroke-width="0.0" stroke="none" fill="rgb(5%, 5%, 5%)" fill-opacity="1.0" font-size="0.0797" text-anchor="middle"><g stroke-width="0.0001" stroke="rgb(5%, 5%, 5%)" stroke-opacity="1.0" fill="rgb(2%, 73%, 80%)" fill-opacity="0.05"><rect width="0.3589" height="0.0878" x="-0.2308" y="-0.4821"/></g><text x="-0.0513" y="-0.4182">Line Chart</text></g></g><g class="title"><g stroke-width="0.0" stroke="none" fill="rgb(5%, 5%, 5%)" fill-opacity="1.0" font-size="0.0478" text-anchor="end"><g stroke-width="0.0000" stroke="rgb(5%, 5%, 5%)" stroke-opacity="1.0" fill="rgb(2%, 73%, 80%)" fill-opacity="0.05"><rect width="0.6029" height="0.0527" x="0.0120" y="0.4219"/></g><text x="0.6149" y="0.4602">Made with love and chart-svg</text></g></g><g class="legend"><g class="legendBorder"><g stroke-width="0.0010" stroke="rgb(5%, 5%, 5%)" stroke-opacity="1.0" fill="rgb(2%, 73%, 80%)" fill-opacity="0.05"><rect width="0.3927" height="0.1862" x="0.3249" y="0.0742"/></g><g stroke-width="0.0010" stroke="rgb(5%, 5%, 5%)" stroke-opacity="1.0" fill="rgb(2%, 73%, 80%)" fill-opacity="0.05"><rect width="0.3848" height="0.1794" x="0.3288" y="0.0776"/></g><g stroke-width="0.0010" stroke="rgb(5%, 5%, 5%)" stroke-opacity="1.0" fill="rgb(2%, 73%, 80%)" fill-opacity="0.05"><rect width="0.3873" height="0.1819" x="0.3276" y="0.0764"/></g></g><g class="legendContent"><g stroke-width="0.0" stroke="none" fill="rgb(5%, 5%, 5%)" fill-opacity="1.0" font-size="0.0399" text-anchor="start"><g stroke-width="0.0000" stroke="rgb(5%, 5%, 5%)" stroke-opacity="1.0" fill="rgb(2%, 73%, 80%)" fill-opacity="0.05"><rect width="0.1795" height="0.0439" x="0.3488" y="0.1981"/></g><text x="0.3488" y="0.2300">palette1 2</text></g><g stroke-width="0.0010" stroke="rgb(5%, 5%, 5%)" stroke-opacity="1.0" fill="rgb(2%, 73%, 80%)" fill-opacity="0.05"><rect width="0.1346" height="0.0150" x="0.5606" y="0.2140"/></g><g stroke-width="0.0" stroke="none" fill="rgb(5%, 5%, 5%)" fill-opacity="1.0" font-size="0.0399" text-anchor="start"><g stroke-width="0.0000" stroke="rgb(5%, 5%, 5%)" stroke-opacity="1.0" fill="rgb(2%, 73%, 80%)" fill-opacity="0.05"><rect width="0.1795" height="0.0439" x="0.3488" y="0.1439"/></g><text x="0.3488" y="0.1758">palette1 1</text></g><g stroke-width="0.0010" stroke="rgb(5%, 5%, 5%)" stroke-opacity="1.0" fill="rgb(2%, 73%, 80%)" fill-opacity="0.05"><rect width="0.1346" height="0.0150" x="0.5606" y="0.1599"/></g><g stroke-width="0.0" stroke="none" fill="rgb(5%, 5%, 5%)" fill-opacity="1.0" font-size="0.0399" text-anchor="start"><g stroke-width="0.0000" stroke="rgb(5%, 5%, 5%)" stroke-opacity="1.0" fill="rgb(2%, 73%, 80%)" fill-opacity="0.05"><rect width="0.1795" height="0.0439" x="0.3488" y="0.0897"/></g><text x="0.3488" y="0.1216">palette1 0</text></g><g stroke-width="0.0010" stroke="rgb(5%, 5%, 5%)" stroke-opacity="1.0" fill="rgb(2%, 73%, 80%)" fill-opacity="0.05"><rect width="0.1346" height="0.0150" x="0.5606" y="0.1057"/></g></g></g><g class="frame"><g stroke-width="0.0010" stroke="rgb(5%, 5%, 5%)" stroke-opacity="1.0" fill="rgb(2%, 73%, 80%)" fill-opacity="0.05"><rect width="1.499" height="0.9990" x="-0.7495" y="-0.4995"/></g></g></g></g></g><g class="hud"></g></svg>