<svg width="450.3727394203652" xmlns:xlink="http://www.w3.org/1999/xlink" xmlns="http://www.w3.org/2000/svg" viewBox="-0.7483604411696849 -0.49844505964467406 1.498360441169685 0.9980802411119012" height="300.0"><style>svg {
  color-scheme: light dark;
}
{
  .canvas g, .title g, .axisbar g, .ticktext g, .tickglyph g, .ticklines g, .legendContent g text {
    fill: #0d0d0d;
  }
  .ticklines g, .tickglyph g, .legendBorder g {
    stroke: #0d0d0d;
  }
}
@media (prefers-color-scheme:dark) {
  .canvas g, .title g, .axisbar g, .ticktext g, .tickglyph g, .ticklines g, .legendContent g text {
    fill: #f0f0f0;
  }
  .ticklines g, .tickglyph g, .legendBorder g {
    stroke: #f0f0f0;
  }
}</style><g class="chart"><g><g class="chart"><g class="line"><g stroke-opacity="1.0" fill="none" stroke="#b05929" stroke-width="1.5e-2"><polyline points="-0.6540321981789491,0.20276124617895086
-0.3008090452460312,0.20276124617895086
5.241410768688659e-2,-0.3867050694815731"/></g><g stroke-opacity="1.0" fill="none" stroke="#a6cfe3" stroke-width="3.0e-2"><polyline points="-0.6540321981789491,0.35012782509408197
0.3349926300332209,-9.197191165131136e-2"/></g><g stroke-opacity="1.0" fill="none" stroke="#1f78b5" stroke-width="1.0e-2"><polyline points="-0.47742062171249017,-0.23933849056644207
-0.47742062171249017,0.35012782509408197"/></g></g></g><g class="hud"><g class="axis"><g class="ticks"><g class="tickglyph"><g stroke-opacity="0.4" fill="#0d0d0d" stroke="#0d0d0d" stroke-width="4.0e-3" fill-opacity="0.4"><g transform="rotate(-90.0, -0.6752255873549241, 0.35012782509408197)"><polyline points="-0.6752255873549241,0.365127825094082
-0.6752255873549241,0.33512782509408195"/></g><g transform="rotate(-90.0, -0.6752255873549241, 0.2764445356365164)"><polyline points="-0.6752255873549241,0.2914445356365164
-0.6752255873549241,0.2614445356365164"/></g><g transform="rotate(-90.0, -0.6752255873549241, 0.20276124617895086)"><polyline points="-0.6752255873549241,0.21776124617895087
-0.6752255873549241,0.18776124617895085"/></g><g transform="rotate(-90.0, -0.6752255873549241, 0.12907795672138533)"><polyline points="-0.6752255873549241,0.14407795672138535
-0.6752255873549241,0.11407795672138533"/></g><g transform="rotate(-90.0, -0.6752255873549241, 5.539466726381986e-2)"><polyline points="-0.6752255873549241,7.039466726381986e-2
-0.6752255873549241,4.0394667263819864e-2"/></g><g transform="rotate(-90.0, -0.6752255873549241, -1.8288622193745607e-2)"><polyline points="-0.6752255873549241,-3.288622193745608e-3
-0.6752255873549241,-3.328862219374561e-2"/></g><g transform="rotate(-90.0, -0.6752255873549241, -9.197191165131136e-2)"><polyline points="-0.6752255873549241,-7.697191165131136e-2
-0.6752255873549241,-0.10697191165131135"/></g><g transform="rotate(-90.0, -0.6752255873549241, -0.16565520110887677)"><polyline points="-0.6752255873549241,-0.15065520110887676
-0.6752255873549241,-0.18065520110887678"/></g><g transform="rotate(-90.0, -0.6752255873549241, -0.23933849056644207)"><polyline points="-0.6752255873549241,-0.22433849056644206
-0.6752255873549241,-0.2543384905664421"/></g><g transform="rotate(-90.0, -0.6752255873549241, -0.3130217800240078)"><polyline points="-0.6752255873549241,-0.2980217800240078
-0.6752255873549241,-0.32802178002400784"/></g><g transform="rotate(-90.0, -0.6752255873549241, -0.3867050694815731)"><polyline points="-0.6752255873549241,-0.3717050694815731
-0.6752255873549241,-0.40170506948157314"/></g></g></g><g class="ticktext"><g fill="#0d0d0d" stroke="none" stroke-width="0.0" font-size="3.5322315293291794e-2" fill-opacity="1.0" text-anchor="end"><text x="-0.7006576543660943" y="0.36025927739449726">0.0</text><text x="-0.7006576543660943" y="0.2865759879369317">0.5</text><text x="-0.7006576543660943" y="0.21289269847936615">1.0</text><text x="-0.7006576543660943" y="0.13920940902180068">1.5</text><text x="-0.7006576543660943" y="6.552611956423521e-2">2.0</text><text x="-0.7006576543660943" y="-8.157169893330318e-3">2.5</text><text x="-0.7006576543660943" y="-8.18404593508959e-2">3.0</text><text x="-0.7006576543660943" y="-0.15552374880846143">3.5</text><text x="-0.7006576543660943" y="-0.22920703826602706">4.0</text><text x="-0.7006576543660943" y="-0.30289032772359237">4.5</text><text x="-0.7006576543660943" y="-0.376573617181158">5.0</text></g></g><g class="ticklines"><g stroke-opacity="5.0e-2" fill="none" stroke="#0d0d0d" stroke-width="5.0e-3"><polyline points="-0.6540321981789491,0.35012782509408197
0.40563726061980443,0.35012782509408197"/><polyline points="-0.6540321981789491,0.2764445356365164
0.40563726061980443,0.2764445356365164"/><polyline points="-0.6540321981789491,0.20276124617895086
0.40563726061980443,0.20276124617895086"/><polyline points="-0.6540321981789491,0.12907795672138533
0.40563726061980443,0.12907795672138533"/><polyline points="-0.6540321981789491,5.539466726381986e-2
0.40563726061980443,5.539466726381986e-2"/><polyline points="-0.6540321981789491,-1.8288622193745607e-2
0.40563726061980443,-1.8288622193745607e-2"/><polyline points="-0.6540321981789491,-9.197191165131136e-2
0.40563726061980443,-9.197191165131136e-2"/><polyline points="-0.6540321981789491,-0.16565520110887677
0.40563726061980443,-0.16565520110887677"/><polyline points="-0.6540321981789491,-0.23933849056644207
0.40563726061980443,-0.23933849056644207"/><polyline points="-0.6540321981789491,-0.3130217800240078
0.40563726061980443,-0.3130217800240078"/><polyline points="-0.6540321981789491,-0.3867050694815731
0.40563726061980443,-0.3867050694815731"/></g></g></g><g class="axisbar"><g stroke-opacity="0.0" fill="#0d0d0d" stroke="#000000" stroke-width="0.0" fill-opacity="0.4"><rect width="2.8257852234633285e-3" x="-0.6639224464610708" y="-0.38817873527072444" height="0.7397802261539577"/></g></g></g><g class="axis"><g class="ticks"><g class="tickglyph"><g stroke-opacity="0.4" fill="#0d0d0d" stroke="#0d0d0d" stroke-width="4.0e-3" fill-opacity="0.4"><polyline points="-0.6540321981789491,0.3872328119313516
-0.6540321981789491,0.3572328119313516"/><polyline points="-0.47742062171249017,0.3872328119313516
-0.47742062171249017,0.3572328119313516"/><polyline points="-0.3008090452460312,0.3872328119313516
-0.3008090452460312,0.3572328119313516"/><polyline points="-0.12419746877957216,0.3872328119313516
-0.12419746877957216,0.3572328119313516"/><polyline points="5.241410768688659e-2,0.3872328119313516
5.241410768688659e-2,0.3572328119313516"/><polyline points="0.22902568415334534,0.3872328119313516
0.22902568415334534,0.3572328119313516"/><polyline points="0.40563726061980443,0.3872328119313516
0.40563726061980443,0.3572328119313516"/></g></g><g class="ticktext"><g fill="#0d0d0d" stroke="none" stroke-width="0.0" font-size="3.5322315293291794e-2" fill-opacity="1.0" text-anchor="middle"><text x="-0.6540321981789491" y="0.4190217007369057">0.0</text><text x="-0.47742062171249017" y="0.4190217007369057">0.5</text><text x="-0.3008090452460312" y="0.4190217007369057">1.0</text><text x="-0.12419746877957216" y="0.4190217007369057">1.5</text><text x="5.241410768688659e-2" y="0.4190217007369057">2.0</text><text x="0.22902568415334534" y="0.4190217007369057">2.5</text><text x="0.40563726061980443" y="0.4190217007369057">3.0</text></g></g><g class="ticklines"><g stroke-opacity="5.0e-2" fill="none" stroke="#0d0d0d" stroke-width="5.0e-3"><polyline points="-0.6540321981789491,0.35012782509408197
-0.6540321981789491,-0.3867050694815731"/><polyline points="-0.47742062171249017,0.35012782509408197
-0.47742062171249017,-0.3867050694815731"/><polyline points="-0.3008090452460312,0.35012782509408197
-0.3008090452460312,-0.3867050694815731"/><polyline points="-0.12419746877957216,0.35012782509408197
-0.12419746877957216,-0.3867050694815731"/><polyline points="5.241410768688659e-2,0.35012782509408197
5.241410768688659e-2,-0.3867050694815731"/><polyline points="0.22902568415334534,0.35012782509408197
0.22902568415334534,-0.3867050694815731"/><polyline points="0.40563726061980443,0.35012782509408197
0.40563726061980443,-0.3867050694815731"/></g></g></g><g class="axisbar"><g stroke-opacity="0.0" fill="#0d0d0d" stroke="#000000" stroke-width="0.0" fill-opacity="0.4"><rect width="1.0624952440222168" x="-0.6554450907906807" y="0.3574961540398385" height="2.9473315783026255e-3"/></g></g></g><g class="title"><g fill="#0d0d0d" stroke="none" stroke-width="0.0" font-size="3.5322315293291794e-2" fill-opacity="1.0" text-anchor="end"><text x="0.4294798234427766" y="0.489020825721593">Made with love and chart-svg</text></g></g><g class="title"><g fill="#0d0d0d" stroke="none" stroke-width="0.0" font-size="5.651570446926686e-2" fill-opacity="1.0" text-anchor="middle"><text x="-0.159431478284631" y="-0.45320423821702593">Line Chart</text></g></g><g class="legend"><g class="legendBorder"><g stroke-opacity="1.0" fill="#0d0d0d" stroke="#0d0d0d" stroke-width="2.5e-3" fill-opacity="0.0"><rect width="0.2635044720879567" x="0.482463296382714" y="-9.814288714338237e-2" height="0.1466297460205555"/></g></g><g class="legendContent"><g fill="#0d0d0d" stroke="none" stroke-width="0.0" font-size="2.119338917597507e-2" fill-opacity="1.0" text-anchor="start"><text x="0.5001244540293599" y="2.3434540461600872e-2">vertical</text></g><g stroke-opacity="1.0" fill="none" stroke="#1f78b5" stroke-width="1.0e-2"><polyline points="0.6117429703561621,1.7908293752283533e-2
0.7177099162360372,1.7908293752283533e-2"/></g><g fill="#0d0d0d" stroke="none" stroke-width="0.0" font-size="2.119338917597507e-2" fill-opacity="1.0" text-anchor="start"><text x="0.5001244540293599" y="-1.9301767423787086e-2">line</text></g><g stroke-opacity="1.0" fill="none" stroke="#a6cfe3" stroke-width="3.0e-2"><polyline points="0.6117429703561621,-2.4828014133104537e-2
0.7177099162360372,-2.4828014133104537e-2"/></g><g fill="#0d0d0d" stroke="none" stroke-width="0.0" font-size="2.119338917597507e-2" fill-opacity="1.0" text-anchor="start"><text x="0.5001244540293599" y="-6.2038075309175045e-2">hockey</text></g><g stroke-opacity="1.0" fill="none" stroke="#b05929" stroke-width="1.5e-2"><polyline points="0.6117429703561621,-6.75643220184925e-2
0.7177099162360372,-6.75643220184925e-2"/></g></g></g></g><g class="glyphize"><g class="chart"><g class="line"><g stroke-opacity="1.0" fill="#a6cfe3" stroke="#1f78b5" stroke-width="3.0e-3" fill-opacity="1.0"><circle cx="-0.6540321981789491" cy="0.20276124617895086" r="5.0e-3"/><circle cx="-0.3008090452460312" cy="0.20276124617895086" r="5.0e-3"/><circle cx="5.241410768688659e-2" cy="-0.3867050694815731" r="5.0e-3"/></g><g stroke-opacity="1.0" fill="#a6cfe3" stroke="#1f78b5" stroke-width="3.0e-3" fill-opacity="1.0"><circle cx="-0.6540321981789491" cy="0.35012782509408197" r="5.0e-3"/><circle cx="0.3349926300332209" cy="-9.197191165131136e-2" r="5.0e-3"/></g><g stroke-opacity="1.0" fill="#a6cfe3" stroke="#1f78b5" stroke-width="3.0e-3" fill-opacity="1.0"><circle cx="-0.47742062171249017" cy="-0.23933849056644207" r="5.0e-3"/><circle cx="-0.47742062171249017" cy="0.35012782509408197" r="5.0e-3"/></g></g><g><g stroke-opacity="1.0" fill="#a6cfe3" stroke="#1f78b5" stroke-width="3.0e-3" fill-opacity="1.0"><circle cx="-0.12419746877957216" cy="-1.8288622193745607e-2" r="5.0e-3"/></g></g></g><g class="hud"><g class="axis"><g class="ticks"><g class="tickglyph"><g stroke-opacity="1.0" fill="#a6cfe3" stroke="#1f78b5" stroke-width="3.0e-3" fill-opacity="1.0"><circle cx="-0.6752255873549241" cy="0.35012782509408197" r="5.0e-3"/><circle cx="-0.6752255873549241" cy="0.2764445356365164" r="5.0e-3"/><circle cx="-0.6752255873549241" cy="0.20276124617895086" r="5.0e-3"/><circle cx="-0.6752255873549241" cy="0.12907795672138533" r="5.0e-3"/><circle cx="-0.6752255873549241" cy="5.539466726381986e-2" r="5.0e-3"/><circle cx="-0.6752255873549241" cy="-1.8288622193745607e-2" r="5.0e-3"/><circle cx="-0.6752255873549241" cy="-9.197191165131136e-2" r="5.0e-3"/><circle cx="-0.6752255873549241" cy="-0.16565520110887677" r="5.0e-3"/><circle cx="-0.6752255873549241" cy="-0.23933849056644207" r="5.0e-3"/><circle cx="-0.6752255873549241" cy="-0.3130217800240078" r="5.0e-3"/><circle cx="-0.6752255873549241" cy="-0.3867050694815731" r="5.0e-3"/></g></g><g class="ticktext"><g stroke-opacity="1.0" fill="#a6cfe3" stroke="#1f78b5" stroke-width="3.0e-3" fill-opacity="1.0"><circle cx="-0.7006576543660943" cy="0.36025927739449726" r="5.0e-3"/><circle cx="-0.7006576543660943" cy="0.2865759879369317" r="5.0e-3"/><circle cx="-0.7006576543660943" cy="0.21289269847936615" r="5.0e-3"/><circle cx="-0.7006576543660943" cy="0.13920940902180068" r="5.0e-3"/><circle cx="-0.7006576543660943" cy="6.552611956423521e-2" r="5.0e-3"/><circle cx="-0.7006576543660943" cy="-8.157169893330318e-3" r="5.0e-3"/><circle cx="-0.7006576543660943" cy="-8.18404593508959e-2" r="5.0e-3"/><circle cx="-0.7006576543660943" cy="-0.15552374880846143" r="5.0e-3"/><circle cx="-0.7006576543660943" cy="-0.22920703826602706" r="5.0e-3"/><circle cx="-0.7006576543660943" cy="-0.30289032772359237" r="5.0e-3"/><circle cx="-0.7006576543660943" cy="-0.376573617181158" r="5.0e-3"/></g></g><g class="ticklines"><g stroke-opacity="1.0" fill="#a6cfe3" stroke="#1f78b5" stroke-width="3.0e-3" fill-opacity="1.0"><circle cx="-0.6540321981789491" cy="0.35012782509408197" r="5.0e-3"/><circle cx="0.40563726061980443" cy="0.35012782509408197" r="5.0e-3"/><circle cx="-0.6540321981789491" cy="0.2764445356365164" r="5.0e-3"/><circle cx="0.40563726061980443" cy="0.2764445356365164" r="5.0e-3"/><circle cx="-0.6540321981789491" cy="0.20276124617895086" r="5.0e-3"/><circle cx="0.40563726061980443" cy="0.20276124617895086" r="5.0e-3"/><circle cx="-0.6540321981789491" cy="0.12907795672138533" r="5.0e-3"/><circle cx="0.40563726061980443" cy="0.12907795672138533" r="5.0e-3"/><circle cx="-0.6540321981789491" cy="5.539466726381986e-2" r="5.0e-3"/><circle cx="0.40563726061980443" cy="5.539466726381986e-2" r="5.0e-3"/><circle cx="-0.6540321981789491" cy="-1.8288622193745607e-2" r="5.0e-3"/><circle cx="0.40563726061980443" cy="-1.8288622193745607e-2" r="5.0e-3"/><circle cx="-0.6540321981789491" cy="-9.197191165131136e-2" r="5.0e-3"/><circle cx="0.40563726061980443" cy="-9.197191165131136e-2" r="5.0e-3"/><circle cx="-0.6540321981789491" cy="-0.16565520110887677" r="5.0e-3"/><circle cx="0.40563726061980443" cy="-0.16565520110887677" r="5.0e-3"/><circle cx="-0.6540321981789491" cy="-0.23933849056644207" r="5.0e-3"/><circle cx="0.40563726061980443" cy="-0.23933849056644207" r="5.0e-3"/><circle cx="-0.6540321981789491" cy="-0.3130217800240078" r="5.0e-3"/><circle cx="0.40563726061980443" cy="-0.3130217800240078" r="5.0e-3"/><circle cx="-0.6540321981789491" cy="-0.3867050694815731" r="5.0e-3"/><circle cx="0.40563726061980443" cy="-0.3867050694815731" r="5.0e-3"/></g></g></g><g class="axisbar"><g stroke-opacity="1.0" fill="#a6cfe3" stroke="#1f78b5" stroke-width="3.0e-3" fill-opacity="1.0"><circle cx="-0.6625095538493391" cy="-1.8288622193745607e-2" r="5.0e-3"/></g></g></g><g class="axis"><g class="ticks"><g class="tickglyph"><g stroke-opacity="1.0" fill="#a6cfe3" stroke="#1f78b5" stroke-width="3.0e-3" fill-opacity="1.0"><circle cx="-0.6540321981789491" cy="0.3722328119313516" r="5.0e-3"/><circle cx="-0.47742062171249017" cy="0.3722328119313516" r="5.0e-3"/><circle cx="-0.3008090452460312" cy="0.3722328119313516" r="5.0e-3"/><circle cx="-0.12419746877957216" cy="0.3722328119313516" r="5.0e-3"/><circle cx="5.241410768688659e-2" cy="0.3722328119313516" r="5.0e-3"/><circle cx="0.22902568415334534" cy="0.3722328119313516" r="5.0e-3"/><circle cx="0.40563726061980443" cy="0.3722328119313516" r="5.0e-3"/></g></g><g class="ticktext"><g stroke-opacity="1.0" fill="#a6cfe3" stroke="#1f78b5" stroke-width="3.0e-3" fill-opacity="1.0"><circle cx="-0.6540321981789491" cy="0.4190217007369057" r="5.0e-3"/><circle cx="-0.47742062171249017" cy="0.4190217007369057" r="5.0e-3"/><circle cx="-0.3008090452460312" cy="0.4190217007369057" r="5.0e-3"/><circle cx="-0.12419746877957216" cy="0.4190217007369057" r="5.0e-3"/><circle cx="5.241410768688659e-2" cy="0.4190217007369057" r="5.0e-3"/><circle cx="0.22902568415334534" cy="0.4190217007369057" r="5.0e-3"/><circle cx="0.40563726061980443" cy="0.4190217007369057" r="5.0e-3"/></g></g><g class="ticklines"><g stroke-opacity="1.0" fill="#a6cfe3" stroke="#1f78b5" stroke-width="3.0e-3" fill-opacity="1.0"><circle cx="-0.6540321981789491" cy="0.35012782509408197" r="5.0e-3"/><circle cx="-0.6540321981789491" cy="-0.3867050694815731" r="5.0e-3"/><circle cx="-0.47742062171249017" cy="0.35012782509408197" r="5.0e-3"/><circle cx="-0.47742062171249017" cy="-0.3867050694815731" r="5.0e-3"/><circle cx="-0.3008090452460312" cy="0.35012782509408197" r="5.0e-3"/><circle cx="-0.3008090452460312" cy="-0.3867050694815731" r="5.0e-3"/><circle cx="-0.12419746877957216" cy="0.35012782509408197" r="5.0e-3"/><circle cx="-0.12419746877957216" cy="-0.3867050694815731" r="5.0e-3"/><circle cx="5.241410768688659e-2" cy="0.35012782509408197" r="5.0e-3"/><circle cx="5.241410768688659e-2" cy="-0.3867050694815731" r="5.0e-3"/><circle cx="0.22902568415334534" cy="0.35012782509408197" r="5.0e-3"/><circle cx="0.22902568415334534" cy="-0.3867050694815731" r="5.0e-3"/><circle cx="0.40563726061980443" cy="0.35012782509408197" r="5.0e-3"/><circle cx="0.40563726061980443" cy="-0.3867050694815731" r="5.0e-3"/></g></g></g><g class="axisbar"><g stroke-opacity="1.0" fill="#a6cfe3" stroke="#1f78b5" stroke-width="3.0e-3" fill-opacity="1.0"><circle cx="-0.12419746877957238" cy="0.35896981982898973" r="5.0e-3"/></g></g></g><g class="title"><g stroke-opacity="1.0" fill="#a6cfe3" stroke="#1f78b5" stroke-width="3.0e-3" fill-opacity="1.0"><circle cx="0.4294798234427766" cy="0.489020825721593" r="5.0e-3"/></g></g><g class="title"><g stroke-opacity="1.0" fill="#a6cfe3" stroke="#1f78b5" stroke-width="3.0e-3" fill-opacity="1.0"><circle cx="-0.159431478284631" cy="-0.45320423821702593" r="5.0e-3"/></g></g><g class="legend"><g class="legendBorder"><g stroke-opacity="1.0" fill="#a6cfe3" stroke="#1f78b5" stroke-width="3.0e-3" fill-opacity="1.0"><circle cx="0.6142155324266927" cy="-2.4828014133104648e-2" r="5.0e-3"/></g><g stroke-opacity="1.0" fill="#a6cfe3" stroke="#1f78b5" stroke-width="3.0e-3" fill-opacity="1.0"><circle cx="0.6142155324266925" cy="-2.4828014133104648e-2" r="5.0e-3"/></g><g stroke-opacity="1.0" fill="#a6cfe3" stroke="#1f78b5" stroke-width="3.0e-3" fill-opacity="1.0"><circle cx="0.6142155324266925" cy="-2.4828014133104648e-2" r="5.0e-3"/></g></g><g class="legendContent"><g stroke-opacity="1.0" fill="#a6cfe3" stroke="#1f78b5" stroke-width="3.0e-3" fill-opacity="1.0"><circle cx="0.5001244540293599" cy="2.3434540461600872e-2" r="5.0e-3"/></g><g stroke-opacity="1.0" fill="#a6cfe3" stroke="#1f78b5" stroke-width="3.0e-3" fill-opacity="1.0"><circle cx="0.6117429703561621" cy="1.7908293752283533e-2" r="5.0e-3"/><circle cx="0.7177099162360372" cy="1.7908293752283533e-2" r="5.0e-3"/></g><g stroke-opacity="1.0" fill="#a6cfe3" stroke="#1f78b5" stroke-width="3.0e-3" fill-opacity="1.0"><circle cx="0.5001244540293599" cy="-1.9301767423787086e-2" r="5.0e-3"/></g><g stroke-opacity="1.0" fill="#a6cfe3" stroke="#1f78b5" stroke-width="3.0e-3" fill-opacity="1.0"><circle cx="0.6117429703561621" cy="-2.4828014133104537e-2" r="5.0e-3"/><circle cx="0.7177099162360372" cy="-2.4828014133104537e-2" r="5.0e-3"/></g><g stroke-opacity="1.0" fill="#a6cfe3" stroke="#1f78b5" stroke-width="3.0e-3" fill-opacity="1.0"><circle cx="0.5001244540293599" cy="-6.2038075309175045e-2" r="5.0e-3"/></g><g stroke-opacity="1.0" fill="#a6cfe3" stroke="#1f78b5" stroke-width="3.0e-3" fill-opacity="1.0"><circle cx="0.6117429703561621" cy="-6.75643220184925e-2" r="5.0e-3"/><circle cx="0.7177099162360372" cy="-6.75643220184925e-2" r="5.0e-3"/></g></g></g></g></g><g class="rectangularize"><g class="chart"><g class="line"><g stroke-opacity="1.0" fill="#1f78b5" stroke="#0d0d0d" stroke-width="1.0e-3" fill-opacity="0.2"><rect width="0.7216312027701925" x="-0.6616246466311275" y="-0.39437791202178984" height="0.6048120007409574"/></g><g stroke-opacity="1.0" fill="#1f78b5" stroke="#0d0d0d" stroke-width="1.0e-3" fill-opacity="0.2"><rect width="1.019394622020884" x="-0.6692170950833061" y="-0.1073175967317449" height="0.4727911069062604"/></g><g stroke-opacity="1.0" fill="#1f78b5" stroke="#0d0d0d" stroke-width="1.0e-3" fill-opacity="0.2"><rect width="1.0123264602904691e-2" x="-0.48248225401394246" y="-0.24445371892658663" height="0.5996967723808131"/></g></g><g><g stroke-opacity="1.0" fill="#1f78b5" stroke="#0d0d0d" stroke-width="1.0e-3" fill-opacity="0.2"><rect width="1.0596694587987536" x="-0.6540321981789491" y="-0.3867050694815731" height="0.736832894575655"/></g></g></g><g class="hud"><g class="axis"><g class="ticks"><g class="tickglyph"><g stroke-opacity="1.0" fill="#1f78b5" stroke="#0d0d0d" stroke-width="1.0e-3" fill-opacity="0.2"><rect width="3.4419099649875995e-2" x="-0.6924351371798622" y="-0.39079725216968864" height="0.7450172599518863"/></g></g><g class="ticktext"><g fill="#0d0d0d" stroke="none" stroke-width="0.0" font-size="3.5322315293291794e-2" fill-opacity="1.0" text-anchor="end"><text x="-0.7006576543660943" y="0.36025927739449726">0.0</text><g stroke-opacity="1.0" fill="#1f78b5" stroke="#0d0d0d" stroke-width="3.532231529329179e-5" fill-opacity="0.2"><rect width="4.772044796123731e-2" x="-0.7483604411696849" y="0.3319837640022172" height="3.888986913791426e-2"/></g><text x="-0.7006576543660943" y="0.2865759879369317">0.5</text><g stroke-opacity="1.0" fill="#1f78b5" stroke="#0d0d0d" stroke-width="3.532231529329179e-5" fill-opacity="0.2"><rect width="4.772044796123731e-2" x="-0.7483604411696849" y="0.2583004745446516" height="3.888986913791426e-2"/></g><text x="-0.7006576543660943" y="0.21289269847936615">1.0</text><g stroke-opacity="1.0" fill="#1f78b5" stroke="#0d0d0d" stroke-width="3.532231529329179e-5" fill-opacity="0.2"><rect width="4.772044796123731e-2" x="-0.7483604411696849" y="0.18461718508708605" height="3.8889869137914285e-2"/></g><text x="-0.7006576543660943" y="0.13920940902180068">1.5</text><g stroke-opacity="1.0" fill="#1f78b5" stroke="#0d0d0d" stroke-width="3.532231529329179e-5" fill-opacity="0.2"><rect width="4.772044796123731e-2" x="-0.7483604411696849" y="0.11093389562952059" height="3.888986913791427e-2"/></g><text x="-0.7006576543660943" y="6.552611956423521e-2">2.0</text><g stroke-opacity="1.0" fill="#1f78b5" stroke="#0d0d0d" stroke-width="3.532231529329179e-5" fill-opacity="0.2"><rect width="4.772044796123731e-2" x="-0.7483604411696849" y="3.725060617195512e-2" height="3.888986913791427e-2"/></g><text x="-0.7006576543660943" y="-8.157169893330318e-3">2.5</text><g stroke-opacity="1.0" fill="#1f78b5" stroke="#0d0d0d" stroke-width="3.532231529329179e-5" fill-opacity="0.2"><rect width="4.772044796123731e-2" x="-0.7483604411696849" y="-3.6432683285610404e-2" height="3.888986913791427e-2"/></g><text x="-0.7006576543660943" y="-8.18404593508959e-2">3.0</text><g stroke-opacity="1.0" fill="#1f78b5" stroke="#0d0d0d" stroke-width="3.532231529329179e-5" fill-opacity="0.2"><rect width="4.772044796123731e-2" x="-0.7483604411696849" y="-0.11011597274317599" height="3.888986913791427e-2"/></g><text x="-0.7006576543660943" y="-0.15552374880846143">3.5</text><g stroke-opacity="1.0" fill="#1f78b5" stroke="#0d0d0d" stroke-width="3.532231529329179e-5" fill-opacity="0.2"><rect width="4.772044796123731e-2" x="-0.7483604411696849" y="-0.18379926220074153" height="3.8889869137914285e-2"/></g><text x="-0.7006576543660943" y="-0.22920703826602706">4.0</text><g stroke-opacity="1.0" fill="#1f78b5" stroke="#0d0d0d" stroke-width="3.532231529329179e-5" fill-opacity="0.2"><rect width="4.772044796123731e-2" x="-0.7483604411696849" y="-0.25748255165830713" height="3.888986913791426e-2"/></g><text x="-0.7006576543660943" y="-0.30289032772359237">4.5</text><g stroke-opacity="1.0" fill="#1f78b5" stroke="#0d0d0d" stroke-width="3.532231529329179e-5" fill-opacity="0.2"><rect width="4.772044796123731e-2" x="-0.7483604411696849" y="-0.33116584111587244" height="3.888986913791426e-2"/></g><text x="-0.7006576543660943" y="-0.376573617181158">5.0</text><g stroke-opacity="1.0" fill="#1f78b5" stroke="#0d0d0d" stroke-width="3.532231529329179e-5" fill-opacity="0.2"><rect width="4.772044796123731e-2" x="-0.7483604411696849" y="-0.4048491305734381" height="3.888986913791426e-2"/></g></g></g><g class="ticklines"><g stroke-opacity="1.0" fill="#1f78b5" stroke="#0d0d0d" stroke-width="1.0e-3" fill-opacity="0.2"><rect width="1.064731091100206" x="-0.6565630143296752" y="-0.3892626836616454" height="0.7419481229357996"/></g></g></g><g class="axisbar"><g stroke-opacity="1.0" fill="#1f78b5" stroke="#0d0d0d" stroke-width="1.0e-3" fill-opacity="0.2"><rect width="2.8257852234633285e-3" x="-0.6639224464610708" y="-0.38817873527072444" height="0.7397802261539577"/></g></g></g><g class="axis"><g class="ticks"><g class="tickglyph"><g stroke-opacity="1.0" fill="#1f78b5" stroke="#0d0d0d" stroke-width="1.0e-3" fill-opacity="0.2"><rect width="1.0677680704810772" x="-0.6580815040201109" y="0.35484103550686025" height="3.478355284898271e-2"/></g></g><g class="ticktext"><g fill="#0d0d0d" stroke="none" stroke-width="0.0" font-size="3.5322315293291794e-2" fill-opacity="1.0" text-anchor="middle"><text x="-0.6540321981789491" y="0.4190217007369057">0.0</text><g stroke-opacity="1.0" fill="#1f78b5" stroke="#0d0d0d" stroke-width="3.532231529329179e-5" fill-opacity="0.2"><rect width="4.77204479612372e-2" x="-0.6778924221595677" y="0.39074618734462563" height="3.888986913791426e-2"/></g><text x="-0.47742062171249017" y="0.4190217007369057">0.5</text><g stroke-opacity="1.0" fill="#1f78b5" stroke="#0d0d0d" stroke-width="3.532231529329179e-5" fill-opacity="0.2"><rect width="4.7720447961237256e-2" x="-0.5012808456931088" y="0.39074618734462563" height="3.888986913791426e-2"/></g><text x="-0.3008090452460312" y="0.4190217007369057">1.0</text><g stroke-opacity="1.0" fill="#1f78b5" stroke="#0d0d0d" stroke-width="3.532231529329179e-5" fill-opacity="0.2"><rect width="4.77204479612372e-2" x="-0.3246692692266498" y="0.39074618734462563" height="3.888986913791426e-2"/></g><text x="-0.12419746877957216" y="0.4190217007369057">1.5</text><g stroke-opacity="1.0" fill="#1f78b5" stroke="#0d0d0d" stroke-width="3.532231529329179e-5" fill-opacity="0.2"><rect width="4.77204479612372e-2" x="-0.14805769276019076" y="0.39074618734462563" height="3.888986913791426e-2"/></g><text x="5.241410768688659e-2" y="0.4190217007369057">2.0</text><g stroke-opacity="1.0" fill="#1f78b5" stroke="#0d0d0d" stroke-width="3.532231529329179e-5" fill-opacity="0.2"><rect width="4.77204479612372e-2" x="2.8553883706267987e-2" y="0.39074618734462563" height="3.888986913791426e-2"/></g><text x="0.22902568415334534" y="0.4190217007369057">2.5</text><g stroke-opacity="1.0" fill="#1f78b5" stroke="#0d0d0d" stroke-width="3.532231529329179e-5" fill-opacity="0.2"><rect width="4.77204479612372e-2" x="0.20516546017272674" y="0.39074618734462563" height="3.888986913791426e-2"/></g><text x="0.40563726061980443" y="0.4190217007369057">3.0</text><g stroke-opacity="1.0" fill="#1f78b5" stroke="#0d0d0d" stroke-width="3.532231529329179e-5" fill-opacity="0.2"><rect width="4.77204479612372e-2" x="0.38177703663918583" y="0.39074618734462563" height="3.888986913791426e-2"/></g></g></g><g class="ticklines"><g stroke-opacity="1.0" fill="#1f78b5" stroke="#0d0d0d" stroke-width="1.0e-3" fill-opacity="0.2"><rect width="1.064731091100206" x="-0.6565630143296752" y="-0.3892626836616454" height="0.7419481229357996"/></g></g></g><g class="axisbar"><g stroke-opacity="1.0" fill="#1f78b5" stroke="#0d0d0d" stroke-width="1.0e-3" fill-opacity="0.2"><rect width="1.0624952440222168" x="-0.6554450907906807" y="0.3574961540398385" height="2.9473315783026255e-3"/></g></g></g><g class="title"><g fill="#0d0d0d" stroke="none" stroke-width="0.0" font-size="3.5322315293291794e-2" fill-opacity="1.0" text-anchor="end"><text x="0.4294798234427766" y="0.489020825721593">Made with love and chart-svg</text><g stroke-opacity="1.0" fill="#1f78b5" stroke="#0d0d0d" stroke-width="3.532231529329179e-5" fill-opacity="0.2"><rect width="0.4450964950107698" x="-1.559901041034664e-2" y="0.46074531232931293" height="3.888986913791426e-2"/></g></g></g><g class="title"><g fill="#0d0d0d" stroke="none" stroke-width="0.0" font-size="5.651570446926686e-2" fill-opacity="1.0" text-anchor="middle"><text x="-0.159431478284631" y="-0.45320423821702593">Line Chart</text><g stroke-opacity="1.0" fill="#1f78b5" stroke="#0d0d0d" stroke-width="5.651570446926686e-5" fill-opacity="0.2"><rect width="0.2543771858161702" x="-0.2866200711927161" y="-0.49844505964467406" height="6.2223790620662855e-2"/></g></g></g><g class="legend"><g class="legendBorder"><g stroke-opacity="1.0" fill="#1f78b5" stroke="#0d0d0d" stroke-width="1.0e-3" fill-opacity="0.2"><rect width="0.27056893514661495" x="0.4789310648533851" y="-0.1018270516162606" height="0.15399807496631213"/></g><g stroke-opacity="1.0" fill="#1f78b5" stroke="#0d0d0d" stroke-width="1.0e-3" fill-opacity="0.2"><rect width="0.2635044720879567" x="0.482463296382714" y="-9.814288714338237e-2" height="0.1466297460205555"/></g><g stroke-opacity="1.0" fill="#1f78b5" stroke="#0d0d0d" stroke-width="1.0e-3" fill-opacity="0.2"><rect width="0.26603528823868294" x="0.4811978883073509" y="-9.94216942334184e-2" height="0.14918736020062773"/></g></g><g class="legendContent"><g fill="#0d0d0d" stroke="none" stroke-width="0.0" font-size="2.119338917597507e-2" fill-opacity="1.0" text-anchor="start"><text x="0.5001244540293599" y="2.3434540461600872e-2">vertical</text><g stroke-opacity="1.0" fill="#1f78b5" stroke="#0d0d0d" stroke-width="2.1193389175975072e-5" fill-opacity="0.2"><rect width="7.631739442268626e-2" x="0.5001138573347719" y="6.469232426232827e-3" height="2.3333921482748557e-2"/></g></g><g stroke-opacity="1.0" fill="#1f78b5" stroke="#0d0d0d" stroke-width="1.0e-3" fill-opacity="0.2"><rect width="0.1160902104827799" x="0.6066813380547098" y="1.2793065392139036e-2" height="1.0230456720288938e-2"/></g><g fill="#0d0d0d" stroke="none" stroke-width="0.0" font-size="2.119338917597507e-2" fill-opacity="1.0" text-anchor="start"><text x="0.5001244540293599" y="-1.9301767423787086e-2">line</text><g stroke-opacity="1.0" fill="#1f78b5" stroke="#0d0d0d" stroke-width="2.1193389175975072e-5" fill-opacity="0.2"><rect width="3.8169293905931156e-2" x="0.5001138573347719" y="-3.6267075459155126e-2" height="2.333392148274855e-2"/></g></g><g stroke-opacity="1.0" fill="#1f78b5" stroke="#0d0d0d" stroke-width="1.0e-3" fill-opacity="0.2"><rect width="0.13633673968858884" x="0.5965580734518052" y="-4.017369921353808e-2" height="3.0691370160867093e-2"/></g><g fill="#0d0d0d" stroke="none" stroke-width="0.0" font-size="2.119338917597507e-2" fill-opacity="1.0" text-anchor="start"><text x="0.5001244540293599" y="-6.2038075309175045e-2">hockey</text><g stroke-opacity="1.0" fill="#1f78b5" stroke="#0d0d0d" stroke-width="2.1193389175975072e-5" fill-opacity="0.2"><rect width="5.724334416430876e-2" x="0.5001138573347719" y="-7.900338334454308e-2" height="2.333392148274855e-2"/></g></g><g stroke-opacity="1.0" fill="#1f78b5" stroke="#0d0d0d" stroke-width="1.0e-3" fill-opacity="0.2"><rect width="0.12115184278423219" x="0.6041505219039836" y="-7.523716455870944e-2" height="1.5345685080433547e-2"/></g></g></g></g></g></g></g><g class="hud"></g></svg>