<svg height="300" viewBox="-0.75 -0.5 1.5 1.0" width="450" xmlns="http://www.w3.org/2000/svg" xmlns:xlink="http://www.w3.org/1999/xlink"><style>svg {
  color-scheme: light dark;
}
{
  .canvas g, .title g, .axisbar g, .ticktext g, .tickglyph g, .ticklines g, .legendContent g text {
    fill: rgb(5%, 5%, 5%);
  }
  .ticklines g, .tickglyph g, .legendBorder g {
    stroke: rgb(5%, 5%, 5%);
  }
  .legendBorder g {
    fill: rgb(94%, 94%, 94%);
  }
}
@media (prefers-color-scheme:dark) {
  .canvas g, .title g, .axisbar g, .ticktext g, .tickglyph g, .ticklines g, .legendContent g text {
    fill: rgb(94%, 94%, 94%);
  }
  .ticklines g, .tickglyph g, .legendBorder g {
    stroke: rgb(94%, 94%, 94%);
  }
  .legendBorder g {
    fill: rgb(5%, 5%, 5%);
  }
}</style><g class="chart"><g class="chart"><g class="line"><g fill="none" stroke="rgb(2%, 73%, 80%)" stroke-opacity="1.0" stroke-width="0.0150"><polyline points="-0.6054,0.1873 -0.2075,0.1873 0.1904,-0.3534"/></g><g fill="none" stroke="rgb(2%, 29%, 48%)" stroke-opacity="1.0" stroke-width="0.0150"><polyline points="-0.6054,0.3224 0.5088,-0.0830"/></g><g fill="none" stroke="rgb(66%, 7%, 55%)" stroke-opacity="1.0" stroke-width="0.0150"><polyline points="-0.4065,-0.2182 -0.4065,0.3224"/></g></g></g><g class="hud"><g class="frame"><g fill="rgb(100%, 100%, 100%)" fill-opacity="0.02" stroke="rgb(0%, 0%, 0%)" stroke-opacity="0" stroke-width="0"><rect height="0.6859" width="1.1998" x="-0.6114" y="-0.3584"/></g></g><g class="axis"><g class="ticks"><g class="tickglyph"><g fill="rgb(5%, 5%, 5%)" fill-opacity="0.4" stroke="rgb(5%, 5%, 5%)" stroke-opacity="0.4" stroke-width="0.0040"><g transform="rotate(-90.0, -0.6353, 0.3224)"><polyline points="-0.6353,0.3374
-0.6353,0.3074"/></g><g transform="rotate(-90.0, -0.6353, 0.2549)"><polyline points="-0.6353,0.2699
-0.6353,0.2399"/></g><g transform="rotate(-90.0, -0.6353, 0.1873)"><polyline points="-0.6353,0.2023
-0.6353,0.1723"/></g><g transform="rotate(-90.0, -0.6353, 0.1197)"><polyline points="-0.6353,0.1347
-0.6353,0.1047"/></g><g transform="rotate(-90.0, -0.6353, 0.0521)"><polyline points="-0.6353,0.0671
-0.6353,0.0371"/></g><g transform="rotate(-90.0, -0.6353, -0.0155)"><polyline points="-0.6353,-0.0005
-0.6353,-0.0305"/></g><g transform="rotate(-90.0, -0.6353, -0.0830)"><polyline points="-0.6353,-0.0680
-0.6353,-0.0980"/></g><g transform="rotate(-90.0, -0.6353, -0.1506)"><polyline points="-0.6353,-0.1356
-0.6353,-0.1656"/></g><g transform="rotate(-90.0, -0.6353, -0.2182)"><polyline points="-0.6353,-0.2032
-0.6353,-0.2332"/></g><g transform="rotate(-90.0, -0.6353, -0.2858)"><polyline points="-0.6353,-0.2708
-0.6353,-0.3008"/></g><g transform="rotate(-90.0, -0.6353, -0.3534)"><polyline points="-0.6353,-0.3384
-0.6353,-0.3684"/></g></g></g><g class="ticktext"><g fill="rgb(5%, 5%, 5%)" fill-opacity="1.0" font-size="0.0398" stroke="none" stroke-width="0.0" text-anchor="end"><text x="-0.6639" y="0.3317">0.0</text><text x="-0.6639" y="0.2642">0.5</text><text x="-0.6639" y="0.1966">1.0</text><text x="-0.6639" y="0.1290">1.5</text><text x="-0.6639" y="0.0614">2.0</text><text x="-0.6639" y="-0.0062">2.5</text><text x="-0.6639" y="-0.0737">3.0</text><text x="-0.6639" y="-0.1413">3.5</text><text x="-0.6639" y="-0.2089">4.0</text><text x="-0.6639" y="-0.2765">4.5</text><text x="-0.6639" y="-0.3441">5.0</text></g></g><g class="ticklines"><g fill="none" stroke="rgb(5%, 5%, 5%)" stroke-opacity="0.05" stroke-width="0.0050"><polyline points="-0.6054,0.3224 0.5883,0.3224"/><polyline points="-0.6054,0.2549 0.5883,0.2549"/><polyline points="-0.6054,0.1873 0.5883,0.1873"/><polyline points="-0.6054,0.1197 0.5883,0.1197"/><polyline points="-0.6054,0.0521 0.5883,0.0521"/><polyline points="-0.6054,-0.0155 0.5883,-0.0155"/><polyline points="-0.6054,-0.0830 0.5883,-0.0830"/><polyline points="-0.6054,-0.1506 0.5883,-0.1506"/><polyline points="-0.6054,-0.2182 0.5883,-0.2182"/><polyline points="-0.6054,-0.2858 0.5883,-0.2858"/><polyline points="-0.6054,-0.3534 0.5883,-0.3534"/></g></g></g><g class="axisbar"><g fill="rgb(5%, 5%, 5%)" fill-opacity="0.4" stroke="rgb(0%, 0%, 0%)" stroke-opacity="0" stroke-width="0"><rect height="0.6785" width="0.0032" x="-0.6226" y="-0.3547"/></g></g></g><g class="axis"><g class="ticks"><g class="tickglyph"><g fill="rgb(5%, 5%, 5%)" fill-opacity="0.4" stroke="rgb(5%, 5%, 5%)" stroke-opacity="0.4" stroke-width="0.0040"><polyline points="-0.6054,0.3628
-0.6054,0.3328"/><polyline points="-0.4065,0.3628
-0.4065,0.3328"/><polyline points="-0.2075,0.3628
-0.2075,0.3328"/><polyline points="-0.0086,0.3628
-0.0086,0.3328"/><polyline points="0.1904,0.3628
0.1904,0.3328"/><polyline points="0.3894,0.3628
0.3894,0.3328"/><polyline points="0.5883,0.3628
0.5883,0.3328"/></g></g><g class="ticktext"><g fill="rgb(5%, 5%, 5%)" fill-opacity="1.0" font-size="0.0398" stroke="none" stroke-width="0.0" text-anchor="middle"><text x="-0.6054" y="0.3907">0.0</text><text x="-0.4065" y="0.3907">0.5</text><text x="-0.2075" y="0.3907">1.0</text><text x="-0.0086" y="0.3907">1.5</text><text x="0.1904" y="0.3907">2.0</text><text x="0.3894" y="0.3907">2.5</text><text x="0.5883" y="0.3907">3.0</text></g></g><g class="ticklines"><g fill="none" stroke="rgb(5%, 5%, 5%)" stroke-opacity="0.05" stroke-width="0.0050"><polyline points="-0.6054,0.3224 -0.6054,-0.3534"/><polyline points="-0.4065,0.3224 -0.4065,-0.3534"/><polyline points="-0.2075,0.3224 -0.2075,-0.3534"/><polyline points="-0.0086,0.3224 -0.0086,-0.3534"/><polyline points="0.1904,0.3224 0.1904,-0.3534"/><polyline points="0.3894,0.3224 0.3894,-0.3534"/><polyline points="0.5883,0.3224 0.5883,-0.3534"/></g></g></g><g class="axisbar"><g fill="rgb(5%, 5%, 5%)" fill-opacity="0.4" stroke="rgb(0%, 0%, 0%)" stroke-opacity="0" stroke-width="0"><rect height="0.0027" width="1.1970" x="-0.6070" y="0.3343"/></g></g></g><g class="title"><g fill="rgb(5%, 5%, 5%)" fill-opacity="1.0" font-size="0.0796" stroke="none" stroke-width="0.0" text-anchor="middle"><text x="-0.0512" y="-0.4184">Line Chart</text></g></g><g class="title"><g fill="rgb(5%, 5%, 5%)" fill-opacity="1.0" font-size="0.0478" stroke="none" stroke-width="0.0" text-anchor="end"><text x="0.6152" y="0.4603">Made with love and chart-svg</text></g></g><g class="legend"><g class="legendBorder"><g fill="rgb(99%, 99%, 99%)" fill-opacity="1.0" stroke="rgb(5%, 5%, 5%)" stroke-opacity="1.0" stroke-width="0.0025"><rect height="0.1791" width="0.3840" x="0.3297" y="0.0775"/></g></g><g class="legendContent"><g fill="rgb(5%, 5%, 5%)" fill-opacity="1.0" font-size="0.0398" stroke="none" stroke-width="0.0" text-anchor="start"><text x="0.3496" y="0.2295">palette1 2</text></g><g fill="none" stroke="rgb(66%, 7%, 55%)" stroke-opacity="1.0" stroke-width="0.0150"><polyline points="0.5684,0.2211 0.6878,0.2211"/></g><g fill="rgb(5%, 5%, 5%)" fill-opacity="1.0" font-size="0.0398" stroke="none" stroke-width="0.0" text-anchor="start"><text x="0.3496" y="0.1755">palette1 1</text></g><g fill="none" stroke="rgb(2%, 29%, 48%)" stroke-opacity="1.0" stroke-width="0.0150"><polyline points="0.5684,0.1670 0.6878,0.1670"/></g><g fill="rgb(5%, 5%, 5%)" fill-opacity="1.0" font-size="0.0398" stroke="none" stroke-width="0.0" text-anchor="start"><text x="0.3496" y="0.1214">palette1 0</text></g><g fill="none" stroke="rgb(2%, 73%, 80%)" stroke-opacity="1.0" stroke-width="0.0150"><polyline points="0.5684,0.1129 0.6878,0.1129"/></g></g></g><g class="frame"><g fill="rgb(100%, 100%, 100%)" fill-opacity="0.02" stroke="rgb(0%, 0%, 0%)" stroke-opacity="0" stroke-width="0"><rect height="0.9990" width="1.499" x="-0.7495" y="-0.4995"/></g></g></g><g class="glyphize"><g class="chart"><g class="line"><g fill="rgb(2%, 73%, 80%)" fill-opacity="0.2" stroke="rgb(2%, 29%, 48%)" stroke-opacity="1.0" stroke-width="0.0030"><circle cx="-0.6054" cy="0.1873" r="0.0050"/><circle cx="-0.2075" cy="0.1873" r="0.0050"/><circle cx="0.1904" cy="-0.3534" r="0.0050"/></g><g fill="rgb(2%, 73%, 80%)" fill-opacity="0.2" stroke="rgb(2%, 29%, 48%)" stroke-opacity="1.0" stroke-width="0.0030"><circle cx="-0.6054" cy="0.3224" r="0.0050"/><circle cx="0.5088" cy="-0.0830" r="0.0050"/></g><g fill="rgb(2%, 73%, 80%)" fill-opacity="0.2" stroke="rgb(2%, 29%, 48%)" stroke-opacity="1.0" stroke-width="0.0030"><circle cx="-0.4065" cy="-0.2182" r="0.0050"/><circle cx="-0.4065" cy="0.3224" r="0.0050"/></g></g><g fill="rgb(2%, 73%, 80%)" fill-opacity="0.2" stroke="rgb(2%, 29%, 48%)" stroke-opacity="1.0" stroke-width="0.0030"><circle cx="-0.0086" cy="-0.0155" r="0.0050"/></g></g><g class="hud"><g class="frame"><g fill="rgb(2%, 73%, 80%)" fill-opacity="0.2" stroke="rgb(2%, 29%, 48%)" stroke-opacity="1.0" stroke-width="0.0030"><circle cx="-0.0115" cy="-0.0155" r="0.0050"/></g></g><g class="axis"><g class="ticks"><g class="tickglyph"><g fill="rgb(2%, 73%, 80%)" fill-opacity="0.2" stroke="rgb(2%, 29%, 48%)" stroke-opacity="1.0" stroke-width="0.0030"><circle cx="-0.6353" cy="0.3224" r="0.0050"/><circle cx="-0.6353" cy="0.2549" r="0.0050"/><circle cx="-0.6353" cy="0.1873" r="0.0050"/><circle cx="-0.6353" cy="0.1197" r="0.0050"/><circle cx="-0.6353" cy="0.0521" r="0.0050"/><circle cx="-0.6353" cy="-0.0155" r="0.0050"/><circle cx="-0.6353" cy="-0.0830" r="0.0050"/><circle cx="-0.6353" cy="-0.1506" r="0.0050"/><circle cx="-0.6353" cy="-0.2182" r="0.0050"/><circle cx="-0.6353" cy="-0.2858" r="0.0050"/><circle cx="-0.6353" cy="-0.3534" r="0.0050"/></g></g><g class="ticktext"><g fill="rgb(2%, 73%, 80%)" fill-opacity="0.2" stroke="rgb(2%, 29%, 48%)" stroke-opacity="1.0" stroke-width="0.0030"><circle cx="-0.6639" cy="0.3317" r="0.0050"/><circle cx="-0.6639" cy="0.2642" r="0.0050"/><circle cx="-0.6639" cy="0.1966" r="0.0050"/><circle cx="-0.6639" cy="0.1290" r="0.0050"/><circle cx="-0.6639" cy="0.0614" r="0.0050"/><circle cx="-0.6639" cy="-0.0062" r="0.0050"/><circle cx="-0.6639" cy="-0.0737" r="0.0050"/><circle cx="-0.6639" cy="-0.1413" r="0.0050"/><circle cx="-0.6639" cy="-0.2089" r="0.0050"/><circle cx="-0.6639" cy="-0.2765" r="0.0050"/><circle cx="-0.6639" cy="-0.3441" r="0.0050"/></g></g><g class="ticklines"><g fill="rgb(2%, 73%, 80%)" fill-opacity="0.2" stroke="rgb(2%, 29%, 48%)" stroke-opacity="1.0" stroke-width="0.0030"><circle cx="-0.6054" cy="0.3224" r="0.0050"/><circle cx="0.5883" cy="0.3224" r="0.0050"/><circle cx="-0.6054" cy="0.2549" r="0.0050"/><circle cx="0.5883" cy="0.2549" r="0.0050"/><circle cx="-0.6054" cy="0.1873" r="0.0050"/><circle cx="0.5883" cy="0.1873" r="0.0050"/><circle cx="-0.6054" cy="0.1197" r="0.0050"/><circle cx="0.5883" cy="0.1197" r="0.0050"/><circle cx="-0.6054" cy="0.0521" r="0.0050"/><circle cx="0.5883" cy="0.0521" r="0.0050"/><circle cx="-0.6054" cy="-0.0155" r="0.0050"/><circle cx="0.5883" cy="-0.0155" r="0.0050"/><circle cx="-0.6054" cy="-0.0830" r="0.0050"/><circle cx="0.5883" cy="-0.0830" r="0.0050"/><circle cx="-0.6054" cy="-0.1506" r="0.0050"/><circle cx="0.5883" cy="-0.1506" r="0.0050"/><circle cx="-0.6054" cy="-0.2182" r="0.0050"/><circle cx="0.5883" cy="-0.2182" r="0.0050"/><circle cx="-0.6054" cy="-0.2858" r="0.0050"/><circle cx="0.5883" cy="-0.2858" r="0.0050"/><circle cx="-0.6054" cy="-0.3534" r="0.0050"/><circle cx="0.5883" cy="-0.3534" r="0.0050"/></g></g></g><g class="axisbar"><g fill="rgb(2%, 73%, 80%)" fill-opacity="0.2" stroke="rgb(2%, 29%, 48%)" stroke-opacity="1.0" stroke-width="0.0030"><circle cx="-0.6210" cy="-0.0155" r="0.0050"/></g></g></g><g class="axis"><g class="ticks"><g class="tickglyph"><g fill="rgb(2%, 73%, 80%)" fill-opacity="0.2" stroke="rgb(2%, 29%, 48%)" stroke-opacity="1.0" stroke-width="0.0030"><circle cx="-0.6054" cy="0.3478" r="0.0050"/><circle cx="-0.4065" cy="0.3478" r="0.0050"/><circle cx="-0.2075" cy="0.3478" r="0.0050"/><circle cx="-0.0086" cy="0.3478" r="0.0050"/><circle cx="0.1904" cy="0.3478" r="0.0050"/><circle cx="0.3894" cy="0.3478" r="0.0050"/><circle cx="0.5883" cy="0.3478" r="0.0050"/></g></g><g class="ticktext"><g fill="rgb(2%, 73%, 80%)" fill-opacity="0.2" stroke="rgb(2%, 29%, 48%)" stroke-opacity="1.0" stroke-width="0.0030"><circle cx="-0.6054" cy="0.3907" r="0.0050"/><circle cx="-0.4065" cy="0.3907" r="0.0050"/><circle cx="-0.2075" cy="0.3907" r="0.0050"/><circle cx="-0.0086" cy="0.3907" r="0.0050"/><circle cx="0.1904" cy="0.3907" r="0.0050"/><circle cx="0.3894" cy="0.3907" r="0.0050"/><circle cx="0.5883" cy="0.3907" r="0.0050"/></g></g><g class="ticklines"><g fill="rgb(2%, 73%, 80%)" fill-opacity="0.2" stroke="rgb(2%, 29%, 48%)" stroke-opacity="1.0" stroke-width="0.0030"><circle cx="-0.6054" cy="0.3224" r="0.0050"/><circle cx="-0.6054" cy="-0.3534" r="0.0050"/><circle cx="-0.4065" cy="0.3224" r="0.0050"/><circle cx="-0.4065" cy="-0.3534" r="0.0050"/><circle cx="-0.2075" cy="0.3224" r="0.0050"/><circle cx="-0.2075" cy="-0.3534" r="0.0050"/><circle cx="-0.0086" cy="0.3224" r="0.0050"/><circle cx="-0.0086" cy="-0.3534" r="0.0050"/><circle cx="0.1904" cy="0.3224" r="0.0050"/><circle cx="0.1904" cy="-0.3534" r="0.0050"/><circle cx="0.3894" cy="0.3224" r="0.0050"/><circle cx="0.3894" cy="-0.3534" r="0.0050"/><circle cx="0.5883" cy="0.3224" r="0.0050"/><circle cx="0.5883" cy="-0.3534" r="0.0050"/></g></g></g><g class="axisbar"><g fill="rgb(2%, 73%, 80%)" fill-opacity="0.2" stroke="rgb(2%, 29%, 48%)" stroke-opacity="1.0" stroke-width="0.0030"><circle cx="-0.0086" cy="0.3356" r="0.0050"/></g></g></g><g class="title"><g fill="rgb(2%, 73%, 80%)" fill-opacity="0.2" stroke="rgb(2%, 29%, 48%)" stroke-opacity="1.0" stroke-width="0.0030"><circle cx="-0.0512" cy="-0.4184" r="0.0050"/></g></g><g class="title"><g fill="rgb(2%, 73%, 80%)" fill-opacity="0.2" stroke="rgb(2%, 29%, 48%)" stroke-opacity="1.0" stroke-width="0.0030"><circle cx="0.6152" cy="0.4603" r="0.0050"/></g></g><g class="legend"><g class="legendBorder"><g fill="rgb(2%, 73%, 80%)" fill-opacity="0.2" stroke="rgb(2%, 29%, 48%)" stroke-opacity="1.0" stroke-width="0.0030"><circle cx="0.5217" cy="0.1670" r="0.0050"/></g><g fill="rgb(2%, 73%, 80%)" fill-opacity="0.2" stroke="rgb(2%, 29%, 48%)" stroke-opacity="1.0" stroke-width="0.0030"><circle cx="0.5217" cy="0.1670" r="0.0050"/></g><g fill="rgb(2%, 73%, 80%)" fill-opacity="0.2" stroke="rgb(2%, 29%, 48%)" stroke-opacity="1.0" stroke-width="0.0030"><circle cx="0.5217" cy="0.1670" r="0.0050"/></g></g><g class="legendContent"><g fill="rgb(2%, 73%, 80%)" fill-opacity="0.2" stroke="rgb(2%, 29%, 48%)" stroke-opacity="1.0" stroke-width="0.0030"><circle cx="0.3496" cy="0.2295" r="0.0050"/></g><g fill="rgb(2%, 73%, 80%)" fill-opacity="0.2" stroke="rgb(2%, 29%, 48%)" stroke-opacity="1.0" stroke-width="0.0030"><circle cx="0.5684" cy="0.2211" r="0.0050"/><circle cx="0.6878" cy="0.2211" r="0.0050"/></g><g fill="rgb(2%, 73%, 80%)" fill-opacity="0.2" stroke="rgb(2%, 29%, 48%)" stroke-opacity="1.0" stroke-width="0.0030"><circle cx="0.3496" cy="0.1755" r="0.0050"/></g><g fill="rgb(2%, 73%, 80%)" fill-opacity="0.2" stroke="rgb(2%, 29%, 48%)" stroke-opacity="1.0" stroke-width="0.0030"><circle cx="0.5684" cy="0.1670" r="0.0050"/><circle cx="0.6878" cy="0.1670" r="0.0050"/></g><g fill="rgb(2%, 73%, 80%)" fill-opacity="0.2" stroke="rgb(2%, 29%, 48%)" stroke-opacity="1.0" stroke-width="0.0030"><circle cx="0.3496" cy="0.1214" r="0.0050"/></g><g fill="rgb(2%, 73%, 80%)" fill-opacity="0.2" stroke="rgb(2%, 29%, 48%)" stroke-opacity="1.0" stroke-width="0.0030"><circle cx="0.5684" cy="0.1129" r="0.0050"/><circle cx="0.6878" cy="0.1129" r="0.0050"/></g></g></g><g class="frame"><g fill="rgb(2%, 73%, 80%)" fill-opacity="0.2" stroke="rgb(2%, 29%, 48%)" stroke-opacity="1.0" stroke-width="0.0030"><circle cx="0" cy="0" r="0.0050"/></g></g></g></g><g class="rectangularize"><g class="chart"><g class="line"><g fill="rgb(2%, 73%, 80%)" fill-opacity="0.05" stroke="rgb(5%, 5%, 5%)" stroke-opacity="1.0" stroke-width="0.0010"><rect height="0.5556" width="0.8108" x="-0.6129" y="-0.3609"/></g><g fill="rgb(2%, 73%, 80%)" fill-opacity="0.05" stroke="rgb(5%, 5%, 5%)" stroke-opacity="1.0" stroke-width="0.0010"><rect height="0.4205" width="1.1292" x="-0.6129" y="-0.0905"/></g><g fill="rgb(2%, 73%, 80%)" fill-opacity="0.05" stroke="rgb(5%, 5%, 5%)" stroke-opacity="1.0" stroke-width="0.0010"><rect height="0.5556" width="0.0150" x="-0.4140" y="-0.2257"/></g></g><g fill="rgb(2%, 73%, 80%)" fill-opacity="0.05" stroke="rgb(5%, 5%, 5%)" stroke-opacity="1.0" stroke-width="0.0010"><rect height="0.6758" width="1.1938" x="-0.6054" y="-0.3534"/></g></g><g class="hud"><g class="frame"><g fill="rgb(2%, 73%, 80%)" fill-opacity="0.05" stroke="rgb(5%, 5%, 5%)" stroke-opacity="1.0" stroke-width="0.0010"><rect height="0.6859" width="1.1998" x="-0.6114" y="-0.3584"/></g></g><g class="axis"><g class="ticks"><g class="tickglyph"><g fill="rgb(2%, 73%, 80%)" fill-opacity="0.05" stroke="rgb(5%, 5%, 5%)" stroke-opacity="1.0" stroke-width="0.0010"><rect height="0.6838" width="0.0340" x="-0.6523" y="-0.3574"/></g></g><g class="ticktext"><g fill="rgb(5%, 5%, 5%)" fill-opacity="1.0" font-size="0.0398" stroke="none" stroke-width="0.0" text-anchor="end"><text x="-0.6639" y="0.3317"><g fill="rgb(2%, 73%, 80%)" fill-opacity="0.05" stroke="rgb(5%, 5%, 5%)" stroke-opacity="1.0" stroke-width="0.0000"><rect height="0.0438" width="0.0538" x="-0.7177" y="0.2999"/></g>0.0</text><text x="-0.6639" y="0.2642"><g fill="rgb(2%, 73%, 80%)" fill-opacity="0.05" stroke="rgb(5%, 5%, 5%)" stroke-opacity="1.0" stroke-width="0.0000"><rect height="0.0438" width="0.0538" x="-0.7177" y="0.2323"/></g>0.5</text><text x="-0.6639" y="0.1966"><g fill="rgb(2%, 73%, 80%)" fill-opacity="0.05" stroke="rgb(5%, 5%, 5%)" stroke-opacity="1.0" stroke-width="0.0000"><rect height="0.0438" width="0.0538" x="-0.7177" y="0.1647"/></g>1.0</text><text x="-0.6639" y="0.1290"><g fill="rgb(2%, 73%, 80%)" fill-opacity="0.05" stroke="rgb(5%, 5%, 5%)" stroke-opacity="1.0" stroke-width="0.0000"><rect height="0.0438" width="0.0538" x="-0.7177" y="0.0971"/></g>1.5</text><text x="-0.6639" y="0.0614"><g fill="rgb(2%, 73%, 80%)" fill-opacity="0.05" stroke="rgb(5%, 5%, 5%)" stroke-opacity="1.0" stroke-width="0.0000"><rect height="0.0438" width="0.0538" x="-0.7177" y="0.0296"/></g>2.0</text><text x="-0.6639" y="-0.0062"><g fill="rgb(2%, 73%, 80%)" fill-opacity="0.05" stroke="rgb(5%, 5%, 5%)" stroke-opacity="1.0" stroke-width="0.0000"><rect height="0.0438" width="0.0538" x="-0.7177" y="-0.0380"/></g>2.5</text><text x="-0.6639" y="-0.0737"><g fill="rgb(2%, 73%, 80%)" fill-opacity="0.05" stroke="rgb(5%, 5%, 5%)" stroke-opacity="1.0" stroke-width="0.0000"><rect height="0.0438" width="0.0538" x="-0.7177" y="-0.1056"/></g>3.0</text><text x="-0.6639" y="-0.1413"><g fill="rgb(2%, 73%, 80%)" fill-opacity="0.05" stroke="rgb(5%, 5%, 5%)" stroke-opacity="1.0" stroke-width="0.0000"><rect height="0.0438" width="0.0538" x="-0.7177" y="-0.1732"/></g>3.5</text><text x="-0.6639" y="-0.2089"><g fill="rgb(2%, 73%, 80%)" fill-opacity="0.05" stroke="rgb(5%, 5%, 5%)" stroke-opacity="1.0" stroke-width="0.0000"><rect height="0.0438" width="0.0538" x="-0.7177" y="-0.2408"/></g>4.0</text><text x="-0.6639" y="-0.2765"><g fill="rgb(2%, 73%, 80%)" fill-opacity="0.05" stroke="rgb(5%, 5%, 5%)" stroke-opacity="1.0" stroke-width="0.0000"><rect height="0.0438" width="0.0538" x="-0.7177" y="-0.3083"/></g>4.5</text><text x="-0.6639" y="-0.3441"><g fill="rgb(2%, 73%, 80%)" fill-opacity="0.05" stroke="rgb(5%, 5%, 5%)" stroke-opacity="1.0" stroke-width="0.0000"><rect height="0.0438" width="0.0538" x="-0.7177" y="-0.3759"/></g>5.0</text></g></g><g class="ticklines"><g fill="rgb(2%, 73%, 80%)" fill-opacity="0.05" stroke="rgb(5%, 5%, 5%)" stroke-opacity="1.0" stroke-width="0.0010"><rect height="0.6808" width="1.1988" x="-0.6079" y="-0.3559"/></g></g></g><g class="axisbar"><g fill="rgb(2%, 73%, 80%)" fill-opacity="0.05" stroke="rgb(5%, 5%, 5%)" stroke-opacity="1.0" stroke-width="0.0010"><rect height="0.6785" width="0.0032" x="-0.6226" y="-0.3547"/></g></g></g><g class="axis"><g class="ticks"><g class="tickglyph"><g fill="rgb(2%, 73%, 80%)" fill-opacity="0.05" stroke="rgb(5%, 5%, 5%)" stroke-opacity="1.0" stroke-width="0.0010"><rect height="0.0340" width="1.2018" x="-0.6094" y="0.3308"/></g></g><g class="ticktext"><g fill="rgb(5%, 5%, 5%)" fill-opacity="1.0" font-size="0.0398" stroke="none" stroke-width="0.0" text-anchor="middle"><text x="-0.6054" y="0.3907"><g fill="rgb(2%, 73%, 80%)" fill-opacity="0.05" stroke="rgb(5%, 5%, 5%)" stroke-opacity="1.0" stroke-width="0.0000"><rect height="0.0438" width="0.0538" x="-0.6323" y="0.3588"/></g>0.0</text><text x="-0.4065" y="0.3907"><g fill="rgb(2%, 73%, 80%)" fill-opacity="0.05" stroke="rgb(5%, 5%, 5%)" stroke-opacity="1.0" stroke-width="0.0000"><rect height="0.0438" width="0.0538" x="-0.4334" y="0.3588"/></g>0.5</text><text x="-0.2075" y="0.3907"><g fill="rgb(2%, 73%, 80%)" fill-opacity="0.05" stroke="rgb(5%, 5%, 5%)" stroke-opacity="1.0" stroke-width="0.0000"><rect height="0.0438" width="0.0538" x="-0.2344" y="0.3588"/></g>1.0</text><text x="-0.0086" y="0.3907"><g fill="rgb(2%, 73%, 80%)" fill-opacity="0.05" stroke="rgb(5%, 5%, 5%)" stroke-opacity="1.0" stroke-width="0.0000"><rect height="0.0438" width="0.0538" x="-0.0354" y="0.3588"/></g>1.5</text><text x="0.1904" y="0.3907"><g fill="rgb(2%, 73%, 80%)" fill-opacity="0.05" stroke="rgb(5%, 5%, 5%)" stroke-opacity="1.0" stroke-width="0.0000"><rect height="0.0438" width="0.0538" x="0.1635" y="0.3588"/></g>2.0</text><text x="0.3894" y="0.3907"><g fill="rgb(2%, 73%, 80%)" fill-opacity="0.05" stroke="rgb(5%, 5%, 5%)" stroke-opacity="1.0" stroke-width="0.0000"><rect height="0.0438" width="0.0538" x="0.3625" y="0.3588"/></g>2.5</text><text x="0.5883" y="0.3907"><g fill="rgb(2%, 73%, 80%)" fill-opacity="0.05" stroke="rgb(5%, 5%, 5%)" stroke-opacity="1.0" stroke-width="0.0000"><rect height="0.0438" width="0.0538" x="0.5615" y="0.3588"/></g>3.0</text></g></g><g class="ticklines"><g fill="rgb(2%, 73%, 80%)" fill-opacity="0.05" stroke="rgb(5%, 5%, 5%)" stroke-opacity="1.0" stroke-width="0.0010"><rect height="0.6808" width="1.1988" x="-0.6079" y="-0.3559"/></g></g></g><g class="axisbar"><g fill="rgb(2%, 73%, 80%)" fill-opacity="0.05" stroke="rgb(5%, 5%, 5%)" stroke-opacity="1.0" stroke-width="0.0010"><rect height="0.0027" width="1.1970" x="-0.6070" y="0.3343"/></g></g></g><g class="title"><g fill="rgb(5%, 5%, 5%)" fill-opacity="1.0" font-size="0.0796" stroke="none" stroke-width="0.0" text-anchor="middle"><text x="-0.0512" y="-0.4184"><g fill="rgb(2%, 73%, 80%)" fill-opacity="0.05" stroke="rgb(5%, 5%, 5%)" stroke-opacity="1.0" stroke-width="0.0001"><rect height="0.0876" width="0.3582" x="-0.2303" y="-0.4821"/></g>Line Chart</text></g></g><g class="title"><g fill="rgb(5%, 5%, 5%)" fill-opacity="1.0" font-size="0.0478" stroke="none" stroke-width="0.0" text-anchor="end"><text x="0.6152" y="0.4603"><g fill="rgb(2%, 73%, 80%)" fill-opacity="0.05" stroke="rgb(5%, 5%, 5%)" stroke-opacity="1.0" stroke-width="0.0000"><rect height="0.0526" width="0.6017" x="0.0135" y="0.4221"/></g>Made with love and chart-svg</text></g></g><g class="legend"><g class="legendBorder"><g fill="rgb(2%, 73%, 80%)" fill-opacity="0.05" stroke="rgb(5%, 5%, 5%)" stroke-opacity="1.0" stroke-width="0.0010"><rect height="0.1858" width="0.3920" x="0.3257" y="0.0741"/></g><g fill="rgb(2%, 73%, 80%)" fill-opacity="0.05" stroke="rgb(5%, 5%, 5%)" stroke-opacity="1.0" stroke-width="0.0010"><rect height="0.1791" width="0.3840" x="0.3297" y="0.0775"/></g><g fill="rgb(2%, 73%, 80%)" fill-opacity="0.05" stroke="rgb(5%, 5%, 5%)" stroke-opacity="1.0" stroke-width="0.0010"><rect height="0.1816" width="0.3865" x="0.3284" y="0.0762"/></g></g><g class="legendContent"><g fill="rgb(5%, 5%, 5%)" fill-opacity="1.0" font-size="0.0398" stroke="none" stroke-width="0.0" text-anchor="start"><text x="0.3496" y="0.2295"><g fill="rgb(2%, 73%, 80%)" fill-opacity="0.05" stroke="rgb(5%, 5%, 5%)" stroke-opacity="1.0" stroke-width="0.0000"><rect height="0.0438" width="0.1791" x="0.3496" y="0.1977"/></g>palette1 2</text></g><g fill="rgb(2%, 73%, 80%)" fill-opacity="0.05" stroke="rgb(5%, 5%, 5%)" stroke-opacity="1.0" stroke-width="0.0010"><rect height="0.0150" width="0.1344" x="0.5609" y="0.2136"/></g><g fill="rgb(5%, 5%, 5%)" fill-opacity="1.0" font-size="0.0398" stroke="none" stroke-width="0.0" text-anchor="start"><text x="0.3496" y="0.1755"><g fill="rgb(2%, 73%, 80%)" fill-opacity="0.05" stroke="rgb(5%, 5%, 5%)" stroke-opacity="1.0" stroke-width="0.0000"><rect height="0.0438" width="0.1791" x="0.3496" y="0.1436"/></g>palette1 1</text></g><g fill="rgb(2%, 73%, 80%)" fill-opacity="0.05" stroke="rgb(5%, 5%, 5%)" stroke-opacity="1.0" stroke-width="0.0010"><rect height="0.0150" width="0.1344" x="0.5609" y="0.1595"/></g><g fill="rgb(5%, 5%, 5%)" fill-opacity="1.0" font-size="0.0398" stroke="none" stroke-width="0.0" text-anchor="start"><text x="0.3496" y="0.1214"><g fill="rgb(2%, 73%, 80%)" fill-opacity="0.05" stroke="rgb(5%, 5%, 5%)" stroke-opacity="1.0" stroke-width="0.0000"><rect height="0.0438" width="0.1791" x="0.3496" y="0.0895"/></g>palette1 0</text></g><g fill="rgb(2%, 73%, 80%)" fill-opacity="0.05" stroke="rgb(5%, 5%, 5%)" stroke-opacity="1.0" stroke-width="0.0010"><rect height="0.0150" width="0.1344" x="0.5609" y="0.1055"/></g></g></g><g class="frame"><g fill="rgb(2%, 73%, 80%)" fill-opacity="0.05" stroke="rgb(5%, 5%, 5%)" stroke-opacity="1.0" stroke-width="0.0010"><rect height="0.9990" width="1.499" x="-0.7495" y="-0.4995"/></g></g></g></g></g><g class="hud"/></svg>