<svg height="300.0" viewBox="-0.75 -0.5 1.5 1.0" width="450.0" xmlns="http://www.w3.org/2000/svg" xmlns:xlink="http://www.w3.org/1999/xlink"><style>svg {
  color-scheme: light dark;
}
{
  .canvas g, .title g, .axisbar g, .ticktext g, .tickglyph g, .ticklines g, .legendContent g text {
    fill: #0d0d0d;
  }
  .ticklines g, .tickglyph g, .legendBorder g {
    stroke: #0d0d0d;
  }
  .legendBorder g {
    fill: #f0f0f0;
  }
}
@media (prefers-color-scheme:dark) {
  .canvas g, .title g, .axisbar g, .ticktext g, .tickglyph g, .ticklines g, .legendContent g text {
    fill: #f0f0f0;
  }
  .ticklines g, .tickglyph g, .legendBorder g {
    stroke: #f0f0f0;
  }
  .legendBorder g {
    fill: #0d0d0d;
  }
}</style><g class="chart"><g class="chart"><g class="line"><g fill="none" stroke="rgb(2%, 73%, 80%)" stroke-opacity="1.0" stroke-width="1.5e-2"><polyline points="-0.5894546169989507,0.18728082191780815
-0.19622271773347333,0.18728082191780815
0.1970091815320042,-0.35335844748858447"/></g><g fill="none" stroke="rgb(2%, 29%, 48%)" stroke-opacity="1.0" stroke-width="1.5e-2"><polyline points="-0.5894546169989507,0.32244063926940636
0.511594700944386,-8.303881278538816e-2"/></g><g fill="none" stroke="rgb(66%, 7%, 55%)" stroke-opacity="1.0" stroke-width="1.5e-2"><polyline points="-0.39283866736621204,-0.21819863013698648
-0.39283866736621204,0.32244063926940636"/></g></g></g><g class="hud"><g class="frame"><g fill="rgb(100%, 100%, 100%)" fill-opacity="2.0e-2" stroke="rgb(0%, 0%, 0%)" stroke-opacity="0.0" stroke-width="0.0"><rect height="0.6859360730593607" width="1.1855941762854143" x="-0.5953530954879329" y="-0.3584269406392694"/></g></g><g class="axis"><g class="ticks"><g class="tickglyph"><g fill="rgb(5%, 5%, 5%)" fill-opacity="0.4" stroke="rgb(5%, 5%, 5%)" stroke-opacity="0.4" stroke-width="4.0e-3"><g transform="rotate(-90.0, -0.6189470094438615, 0.32244063926940636)"><polyline points="-0.6189470094438615,0.3374406392694064
-0.6189470094438615,0.30744063926940635"/></g><g transform="rotate(-90.0, -0.6189470094438615, 0.25486073059360725)"><polyline points="-0.6189470094438615,0.26986073059360727
-0.6189470094438615,0.23986073059360724"/></g><g transform="rotate(-90.0, -0.6189470094438615, 0.18728082191780815)"><polyline points="-0.6189470094438615,0.20228082191780816
-0.6189470094438615,0.17228082191780814"/></g><g transform="rotate(-90.0, -0.6189470094438615, 0.11970091324200904)"><polyline points="-0.6189470094438615,0.13470091324200906
-0.6189470094438615,0.10470091324200904"/></g><g transform="rotate(-90.0, -0.6189470094438615, 5.212100456620994e-2)"><polyline points="-0.6189470094438615,6.712100456620994e-2
-0.6189470094438615,3.712100456620994e-2"/></g><g transform="rotate(-90.0, -0.6189470094438615, -1.5458904109589167e-2)"><polyline points="-0.6189470094438615,-4.5890410958916716e-4
-0.6189470094438615,-3.0458904109589166e-2"/></g><g transform="rotate(-90.0, -0.6189470094438615, -8.303881278538816e-2)"><polyline points="-0.6189470094438615,-6.803881278538816e-2
-0.6189470094438615,-9.803881278538816e-2"/></g><g transform="rotate(-90.0, -0.6189470094438615, -0.15061872146118727)"><polyline points="-0.6189470094438615,-0.13561872146118725
-0.6189470094438615,-0.16561872146118728"/></g><g transform="rotate(-90.0, -0.6189470094438615, -0.21819863013698648)"><polyline points="-0.6189470094438615,-0.20319863013698647
-0.6189470094438615,-0.2331986301369865"/></g><g transform="rotate(-90.0, -0.6189470094438615, -0.2857785388127855)"><polyline points="-0.6189470094438615,-0.27077853881278546
-0.6189470094438615,-0.3007785388127855"/></g><g transform="rotate(-90.0, -0.6189470094438615, -0.35335844748858447)"><polyline points="-0.6189470094438615,-0.33835844748858446
-0.6189470094438615,-0.3683584474885845"/></g></g></g><g class="ticktext"><g fill="rgb(5%, 5%, 5%)" fill-opacity="1.0" font-size="3.932318992654774e-2" stroke="none" stroke-width="0.0" text-anchor="end"><text x="-0.647259706190976" y="0.33173287671232876">0.00</text><text x="-0.647259706190976" y="0.26415296803652966">0.50</text><text x="-0.647259706190976" y="0.1965730593607305">1.00</text><text x="-0.647259706190976" y="0.12899315068493145">1.50</text><text x="-0.647259706190976" y="6.1413242009132396e-2">2.00</text><text x="-0.647259706190976" y="-6.166666666666654e-3">2.50</text><text x="-0.647259706190976" y="-7.374657534246587e-2">3.00</text><text x="-0.647259706190976" y="-0.14132648401826486">3.50</text><text x="-0.647259706190976" y="-0.20890639269406397">4.00</text><text x="-0.647259706190976" y="-0.2764863013698632">4.50</text><text x="-0.647259706190976" y="-0.3440662100456622">5.00</text></g></g><g class="ticklines"><g fill="none" stroke="rgb(5%, 5%, 5%)" stroke-opacity="5.0e-2" stroke-width="5.0e-3"><polyline points="-0.5894546169989507,0.32244063926940636
0.5902410807974814,0.32244063926940636"/><polyline points="-0.5894546169989507,0.25486073059360725
0.5902410807974814,0.25486073059360725"/><polyline points="-0.5894546169989507,0.18728082191780815
0.5902410807974814,0.18728082191780815"/><polyline points="-0.5894546169989507,0.11970091324200904
0.5902410807974814,0.11970091324200904"/><polyline points="-0.5894546169989507,5.212100456620994e-2
0.5902410807974814,5.212100456620994e-2"/><polyline points="-0.5894546169989507,-1.5458904109589167e-2
0.5902410807974814,-1.5458904109589167e-2"/><polyline points="-0.5894546169989507,-8.303881278538816e-2
0.5902410807974814,-8.303881278538816e-2"/><polyline points="-0.5894546169989507,-0.15061872146118727
0.5902410807974814,-0.15061872146118727"/><polyline points="-0.5894546169989507,-0.21819863013698648
0.5902410807974814,-0.21819863013698648"/><polyline points="-0.5894546169989507,-0.2857785388127855
0.5902410807974814,-0.2857785388127855"/><polyline points="-0.5894546169989507,-0.35335844748858447
0.5902410807974814,-0.35335844748858447"/></g></g></g><g class="axisbar"><g fill="rgb(5%, 5%, 5%)" fill-opacity="0.4" stroke="rgb(0%, 0%, 0%)" stroke-opacity="0.0" stroke-width="0.0"><rect height="0.6785022831050228" width="3.1458551941236923e-3" x="-0.6063635886673662" y="-0.3547100456621005"/></g></g></g><g class="axis"><g class="ticks"><g class="tickglyph"><g fill="rgb(5%, 5%, 5%)" fill-opacity="0.4" stroke="rgb(5%, 5%, 5%)" stroke-opacity="0.4" stroke-width="4.0e-3"><polyline points="-0.5894546169989507,0.362783105022831
-0.5894546169989507,0.332783105022831"/><polyline points="-0.39283866736621204,0.362783105022831
-0.39283866736621204,0.332783105022831"/><polyline points="-0.19622271773347333,0.362783105022831
-0.19622271773347333,0.332783105022831"/><polyline points="3.932318992654338e-4,0.362783105022831
3.932318992654338e-4,0.332783105022831"/><polyline points="0.1970091815320042,0.362783105022831
0.1970091815320042,0.332783105022831"/><polyline points="0.39362513116474274,0.362783105022831
0.39362513116474274,0.332783105022831"/><polyline points="0.5902410807974814,0.362783105022831
0.5902410807974814,0.332783105022831"/></g></g><g class="ticktext"><g fill="rgb(5%, 5%, 5%)" fill-opacity="1.0" font-size="3.932318992654774e-2" stroke="none" stroke-width="0.0" text-anchor="middle"><text x="-0.5894546169989507" y="0.39069634703196343">0.00</text><text x="-0.39283866736621204" y="0.39069634703196343">0.50</text><text x="-0.19622271773347333" y="0.39069634703196343">1.00</text><text x="3.932318992654338e-4" y="0.39069634703196343">1.50</text><text x="0.1970091815320042" y="0.39069634703196343">2.00</text><text x="0.39362513116474274" y="0.39069634703196343">2.50</text><text x="0.5902410807974814" y="0.39069634703196343">3.00</text></g></g><g class="ticklines"><g fill="none" stroke="rgb(5%, 5%, 5%)" stroke-opacity="5.0e-2" stroke-width="5.0e-3"><polyline points="-0.5894546169989507,0.32244063926940636
-0.5894546169989507,-0.35335844748858447"/><polyline points="-0.39283866736621204,0.32244063926940636
-0.39283866736621204,-0.35335844748858447"/><polyline points="-0.19622271773347333,0.32244063926940636
-0.19622271773347333,-0.35335844748858447"/><polyline points="3.932318992654338e-4,0.32244063926940636
3.932318992654338e-4,-0.35335844748858447"/><polyline points="0.1970091815320042,0.32244063926940636
0.1970091815320042,-0.35335844748858447"/><polyline points="0.39362513116474274,0.32244063926940636
0.39362513116474274,-0.35335844748858447"/><polyline points="0.5902410807974814,0.32244063926940636
0.5902410807974814,-0.35335844748858447"/></g></g></g><g class="axisbar"><g fill="rgb(5%, 5%, 5%)" fill-opacity="0.4" stroke="rgb(0%, 0%, 0%)" stroke-opacity="0.0" stroke-width="0.0"><rect height="2.7031963470319775e-3" width="1.1828415529905558" x="-0.5910275445960127" y="0.33426712328767116"/></g></g></g><g class="title"><g fill="rgb(5%, 5%, 5%)" fill-opacity="1.0" font-size="7.864637985309549e-2" stroke="none" stroke-width="0.0" text-anchor="middle"><text x="-4.620474816369369e-2" y="-0.4184041095890413">Line Chart</text></g></g><g class="title"><g fill="rgb(5%, 5%, 5%)" fill-opacity="1.0" font-size="4.718782791185729e-2" stroke="none" stroke-width="0.0" text-anchor="end"><text x="0.6256319517313744" y="0.46030365296803655">Made with love and chart-svg</text></g></g><g class="legend"><g class="legendBorder"><g fill="rgb(99%, 99%, 99%)" fill-opacity="1.0" stroke="rgb(5%, 5%, 5%)" stroke-opacity="1.0" stroke-width="2.5e-3"><rect height="0.1790867579908676" width="0.3794687827911858" x="0.33464034627492123" y="7.746347031963463e-2"/></g></g><g class="legendContent"><g fill="rgb(5%, 5%, 5%)" fill-opacity="1.0" font-size="3.932318992654774e-2" stroke="none" stroke-width="0.0" text-anchor="start"><text x="0.3543019412381947" y="0.22951826484018256">palette1 2</text></g><g fill="none" stroke="rgb(66%, 7%, 55%)" stroke-opacity="1.0" stroke-width="1.5e-2"><polyline points="0.5705794858342077,0.2210707762557077
0.6885490556138509,0.2210707762557077"/></g><g fill="rgb(5%, 5%, 5%)" fill-opacity="1.0" font-size="3.932318992654774e-2" stroke="none" stroke-width="0.0" text-anchor="start"><text x="0.3543019412381947" y="0.1754543378995433">palette1 1</text></g><g fill="none" stroke="rgb(2%, 29%, 48%)" stroke-opacity="1.0" stroke-width="1.5e-2"><polyline points="0.5705794858342077,0.16700684931506843
0.6885490556138509,0.16700684931506843"/></g><g fill="rgb(5%, 5%, 5%)" fill-opacity="1.0" font-size="3.932318992654774e-2" stroke="none" stroke-width="0.0" text-anchor="start"><text x="0.3543019412381947" y="0.12139041095890407">palette1 0</text></g><g fill="none" stroke="rgb(2%, 73%, 80%)" stroke-opacity="1.0" stroke-width="1.5e-2"><polyline points="0.5705794858342077,0.11294292237442916
0.6885490556138509,0.11294292237442916"/></g></g></g><g class="frame"><g fill="rgb(100%, 100%, 100%)" fill-opacity="2.0e-2" stroke="rgb(0%, 0%, 0%)" stroke-opacity="0.0" stroke-width="0.0"><rect height="0.9990000000000001" width="1.499" x="-0.7495" y="-0.49950000000000006"/></g></g></g><g class="glyphize"><g class="chart"><g class="line"><g fill="rgb(2%, 73%, 80%)" fill-opacity="0.2" stroke="rgb(2%, 29%, 48%)" stroke-opacity="1.0" stroke-width="3.0e-3"><circle cx="-0.5894546169989507" cy="0.18728082191780815" r="5.0e-3"/><circle cx="-0.19622271773347333" cy="0.18728082191780815" r="5.0e-3"/><circle cx="0.1970091815320042" cy="-0.35335844748858447" r="5.0e-3"/></g><g fill="rgb(2%, 73%, 80%)" fill-opacity="0.2" stroke="rgb(2%, 29%, 48%)" stroke-opacity="1.0" stroke-width="3.0e-3"><circle cx="-0.5894546169989507" cy="0.32244063926940636" r="5.0e-3"/><circle cx="0.511594700944386" cy="-8.303881278538816e-2" r="5.0e-3"/></g><g fill="rgb(2%, 73%, 80%)" fill-opacity="0.2" stroke="rgb(2%, 29%, 48%)" stroke-opacity="1.0" stroke-width="3.0e-3"><circle cx="-0.39283866736621204" cy="-0.21819863013698648" r="5.0e-3"/><circle cx="-0.39283866736621204" cy="0.32244063926940636" r="5.0e-3"/></g></g><g fill="rgb(2%, 73%, 80%)" fill-opacity="0.2" stroke="rgb(2%, 29%, 48%)" stroke-opacity="1.0" stroke-width="3.0e-3"><circle cx="3.932318992654338e-4" cy="-1.5458904109589056e-2" r="5.0e-3"/></g></g><g class="hud"><g class="frame"><g fill="rgb(2%, 73%, 80%)" fill-opacity="0.2" stroke="rgb(2%, 29%, 48%)" stroke-opacity="1.0" stroke-width="3.0e-3"><circle cx="-2.5560073452257637e-3" cy="-1.5458904109589056e-2" r="5.0e-3"/></g></g><g class="axis"><g class="ticks"><g class="tickglyph"><g fill="rgb(2%, 73%, 80%)" fill-opacity="0.2" stroke="rgb(2%, 29%, 48%)" stroke-opacity="1.0" stroke-width="3.0e-3"><circle cx="-0.6189470094438615" cy="0.32244063926940636" r="5.0e-3"/><circle cx="-0.6189470094438615" cy="0.25486073059360725" r="5.0e-3"/><circle cx="-0.6189470094438615" cy="0.18728082191780815" r="5.0e-3"/><circle cx="-0.6189470094438615" cy="0.11970091324200904" r="5.0e-3"/><circle cx="-0.6189470094438615" cy="5.212100456620994e-2" r="5.0e-3"/><circle cx="-0.6189470094438615" cy="-1.5458904109589167e-2" r="5.0e-3"/><circle cx="-0.6189470094438615" cy="-8.303881278538816e-2" r="5.0e-3"/><circle cx="-0.6189470094438615" cy="-0.15061872146118727" r="5.0e-3"/><circle cx="-0.6189470094438615" cy="-0.21819863013698648" r="5.0e-3"/><circle cx="-0.6189470094438615" cy="-0.2857785388127855" r="5.0e-3"/><circle cx="-0.6189470094438615" cy="-0.35335844748858447" r="5.0e-3"/></g></g><g class="ticktext"><g fill="rgb(2%, 73%, 80%)" fill-opacity="0.2" stroke="rgb(2%, 29%, 48%)" stroke-opacity="1.0" stroke-width="3.0e-3"><circle cx="-0.647259706190976" cy="0.33173287671232876" r="5.0e-3"/><circle cx="-0.647259706190976" cy="0.26415296803652966" r="5.0e-3"/><circle cx="-0.647259706190976" cy="0.1965730593607305" r="5.0e-3"/><circle cx="-0.647259706190976" cy="0.12899315068493145" r="5.0e-3"/><circle cx="-0.647259706190976" cy="6.1413242009132396e-2" r="5.0e-3"/><circle cx="-0.647259706190976" cy="-6.166666666666654e-3" r="5.0e-3"/><circle cx="-0.647259706190976" cy="-7.374657534246587e-2" r="5.0e-3"/><circle cx="-0.647259706190976" cy="-0.14132648401826486" r="5.0e-3"/><circle cx="-0.647259706190976" cy="-0.20890639269406397" r="5.0e-3"/><circle cx="-0.647259706190976" cy="-0.2764863013698632" r="5.0e-3"/><circle cx="-0.647259706190976" cy="-0.3440662100456622" r="5.0e-3"/></g></g><g class="ticklines"><g fill="rgb(2%, 73%, 80%)" fill-opacity="0.2" stroke="rgb(2%, 29%, 48%)" stroke-opacity="1.0" stroke-width="3.0e-3"><circle cx="-0.5894546169989507" cy="0.32244063926940636" r="5.0e-3"/><circle cx="0.5902410807974814" cy="0.32244063926940636" r="5.0e-3"/><circle cx="-0.5894546169989507" cy="0.25486073059360725" r="5.0e-3"/><circle cx="0.5902410807974814" cy="0.25486073059360725" r="5.0e-3"/><circle cx="-0.5894546169989507" cy="0.18728082191780815" r="5.0e-3"/><circle cx="0.5902410807974814" cy="0.18728082191780815" r="5.0e-3"/><circle cx="-0.5894546169989507" cy="0.11970091324200904" r="5.0e-3"/><circle cx="0.5902410807974814" cy="0.11970091324200904" r="5.0e-3"/><circle cx="-0.5894546169989507" cy="5.212100456620994e-2" r="5.0e-3"/><circle cx="0.5902410807974814" cy="5.212100456620994e-2" r="5.0e-3"/><circle cx="-0.5894546169989507" cy="-1.5458904109589167e-2" r="5.0e-3"/><circle cx="0.5902410807974814" cy="-1.5458904109589167e-2" r="5.0e-3"/><circle cx="-0.5894546169989507" cy="-8.303881278538816e-2" r="5.0e-3"/><circle cx="0.5902410807974814" cy="-8.303881278538816e-2" r="5.0e-3"/><circle cx="-0.5894546169989507" cy="-0.15061872146118727" r="5.0e-3"/><circle cx="0.5902410807974814" cy="-0.15061872146118727" r="5.0e-3"/><circle cx="-0.5894546169989507" cy="-0.21819863013698648" r="5.0e-3"/><circle cx="0.5902410807974814" cy="-0.21819863013698648" r="5.0e-3"/><circle cx="-0.5894546169989507" cy="-0.2857785388127855" r="5.0e-3"/><circle cx="0.5902410807974814" cy="-0.2857785388127855" r="5.0e-3"/><circle cx="-0.5894546169989507" cy="-0.35335844748858447" r="5.0e-3"/><circle cx="0.5902410807974814" cy="-0.35335844748858447" r="5.0e-3"/></g></g></g><g class="axisbar"><g fill="rgb(2%, 73%, 80%)" fill-opacity="0.2" stroke="rgb(2%, 29%, 48%)" stroke-opacity="1.0" stroke-width="3.0e-3"><circle cx="-0.6047906610703043" cy="-1.5458904109589167e-2" r="5.0e-3"/></g></g></g><g class="axis"><g class="ticks"><g class="tickglyph"><g fill="rgb(2%, 73%, 80%)" fill-opacity="0.2" stroke="rgb(2%, 29%, 48%)" stroke-opacity="1.0" stroke-width="3.0e-3"><circle cx="-0.5894546169989507" cy="0.347783105022831" r="5.0e-3"/><circle cx="-0.39283866736621204" cy="0.347783105022831" r="5.0e-3"/><circle cx="-0.19622271773347333" cy="0.347783105022831" r="5.0e-3"/><circle cx="3.932318992654338e-4" cy="0.347783105022831" r="5.0e-3"/><circle cx="0.1970091815320042" cy="0.347783105022831" r="5.0e-3"/><circle cx="0.39362513116474274" cy="0.347783105022831" r="5.0e-3"/><circle cx="0.5902410807974814" cy="0.347783105022831" r="5.0e-3"/></g></g><g class="ticktext"><g fill="rgb(2%, 73%, 80%)" fill-opacity="0.2" stroke="rgb(2%, 29%, 48%)" stroke-opacity="1.0" stroke-width="3.0e-3"><circle cx="-0.5894546169989507" cy="0.39069634703196343" r="5.0e-3"/><circle cx="-0.39283866736621204" cy="0.39069634703196343" r="5.0e-3"/><circle cx="-0.19622271773347333" cy="0.39069634703196343" r="5.0e-3"/><circle cx="3.932318992654338e-4" cy="0.39069634703196343" r="5.0e-3"/><circle cx="0.1970091815320042" cy="0.39069634703196343" r="5.0e-3"/><circle cx="0.39362513116474274" cy="0.39069634703196343" r="5.0e-3"/><circle cx="0.5902410807974814" cy="0.39069634703196343" r="5.0e-3"/></g></g><g class="ticklines"><g fill="rgb(2%, 73%, 80%)" fill-opacity="0.2" stroke="rgb(2%, 29%, 48%)" stroke-opacity="1.0" stroke-width="3.0e-3"><circle cx="-0.5894546169989507" cy="0.32244063926940636" r="5.0e-3"/><circle cx="-0.5894546169989507" cy="-0.35335844748858447" r="5.0e-3"/><circle cx="-0.39283866736621204" cy="0.32244063926940636" r="5.0e-3"/><circle cx="-0.39283866736621204" cy="-0.35335844748858447" r="5.0e-3"/><circle cx="-0.19622271773347333" cy="0.32244063926940636" r="5.0e-3"/><circle cx="-0.19622271773347333" cy="-0.35335844748858447" r="5.0e-3"/><circle cx="3.932318992654338e-4" cy="0.32244063926940636" r="5.0e-3"/><circle cx="3.932318992654338e-4" cy="-0.35335844748858447" r="5.0e-3"/><circle cx="0.1970091815320042" cy="0.32244063926940636" r="5.0e-3"/><circle cx="0.1970091815320042" cy="-0.35335844748858447" r="5.0e-3"/><circle cx="0.39362513116474274" cy="0.32244063926940636" r="5.0e-3"/><circle cx="0.39362513116474274" cy="-0.35335844748858447" r="5.0e-3"/><circle cx="0.5902410807974814" cy="0.32244063926940636" r="5.0e-3"/><circle cx="0.5902410807974814" cy="-0.35335844748858447" r="5.0e-3"/></g></g></g><g class="axisbar"><g fill="rgb(2%, 73%, 80%)" fill-opacity="0.2" stroke="rgb(2%, 29%, 48%)" stroke-opacity="1.0" stroke-width="3.0e-3"><circle cx="3.9323189926521174e-4" cy="0.33561872146118715" r="5.0e-3"/></g></g></g><g class="title"><g fill="rgb(2%, 73%, 80%)" fill-opacity="0.2" stroke="rgb(2%, 29%, 48%)" stroke-opacity="1.0" stroke-width="3.0e-3"><circle cx="-4.620474816369369e-2" cy="-0.4184041095890413" r="5.0e-3"/></g></g><g class="title"><g fill="rgb(2%, 73%, 80%)" fill-opacity="0.2" stroke="rgb(2%, 29%, 48%)" stroke-opacity="1.0" stroke-width="3.0e-3"><circle cx="0.6256319517313744" cy="0.46030365296803655" r="5.0e-3"/></g></g><g class="legend"><g class="legendBorder"><g fill="rgb(2%, 73%, 80%)" fill-opacity="0.2" stroke="rgb(2%, 29%, 48%)" stroke-opacity="1.0" stroke-width="3.0e-3"><circle cx="0.5243747376705139" cy="0.16700684931506843" r="5.0e-3"/></g><g fill="rgb(2%, 73%, 80%)" fill-opacity="0.2" stroke="rgb(2%, 29%, 48%)" stroke-opacity="1.0" stroke-width="3.0e-3"><circle cx="0.5243747376705139" cy="0.16700684931506843" r="5.0e-3"/></g><g fill="rgb(2%, 73%, 80%)" fill-opacity="0.2" stroke="rgb(2%, 29%, 48%)" stroke-opacity="1.0" stroke-width="3.0e-3"><circle cx="0.5243747376705139" cy="0.16700684931506843" r="5.0e-3"/></g></g><g class="legendContent"><g fill="rgb(2%, 73%, 80%)" fill-opacity="0.2" stroke="rgb(2%, 29%, 48%)" stroke-opacity="1.0" stroke-width="3.0e-3"><circle cx="0.3543019412381947" cy="0.22951826484018256" r="5.0e-3"/></g><g fill="rgb(2%, 73%, 80%)" fill-opacity="0.2" stroke="rgb(2%, 29%, 48%)" stroke-opacity="1.0" stroke-width="3.0e-3"><circle cx="0.5705794858342077" cy="0.2210707762557077" r="5.0e-3"/><circle cx="0.6885490556138509" cy="0.2210707762557077" r="5.0e-3"/></g><g fill="rgb(2%, 73%, 80%)" fill-opacity="0.2" stroke="rgb(2%, 29%, 48%)" stroke-opacity="1.0" stroke-width="3.0e-3"><circle cx="0.3543019412381947" cy="0.1754543378995433" r="5.0e-3"/></g><g fill="rgb(2%, 73%, 80%)" fill-opacity="0.2" stroke="rgb(2%, 29%, 48%)" stroke-opacity="1.0" stroke-width="3.0e-3"><circle cx="0.5705794858342077" cy="0.16700684931506843" r="5.0e-3"/><circle cx="0.6885490556138509" cy="0.16700684931506843" r="5.0e-3"/></g><g fill="rgb(2%, 73%, 80%)" fill-opacity="0.2" stroke="rgb(2%, 29%, 48%)" stroke-opacity="1.0" stroke-width="3.0e-3"><circle cx="0.3543019412381947" cy="0.12139041095890407" r="5.0e-3"/></g><g fill="rgb(2%, 73%, 80%)" fill-opacity="0.2" stroke="rgb(2%, 29%, 48%)" stroke-opacity="1.0" stroke-width="3.0e-3"><circle cx="0.5705794858342077" cy="0.11294292237442916" r="5.0e-3"/><circle cx="0.6885490556138509" cy="0.11294292237442916" r="5.0e-3"/></g></g></g><g class="frame"><g fill="rgb(2%, 73%, 80%)" fill-opacity="0.2" stroke="rgb(2%, 29%, 48%)" stroke-opacity="1.0" stroke-width="3.0e-3"><circle cx="0.0" cy="-0.0" r="5.0e-3"/></g></g></g></g><g class="rectangularize"><g class="chart"><g class="line"><g fill="rgb(2%, 73%, 80%)" fill-opacity="5.0e-2" stroke="rgb(5%, 5%, 5%)" stroke-opacity="1.0" stroke-width="1.0e-3"><rect height="0.5556242694063926" width="0.8014537985309547" x="-0.5969496169989507" y="-0.3608509474885845"/></g><g fill="rgb(2%, 73%, 80%)" fill-opacity="5.0e-2" stroke="rgb(5%, 5%, 5%)" stroke-opacity="1.0" stroke-width="1.0e-3"><rect height="0.42046445205479455" width="1.1160393179433363" x="-0.5969496169989507" y="-9.053131278538817e-2"/></g><g fill="rgb(2%, 73%, 80%)" fill-opacity="5.0e-2" stroke="rgb(5%, 5%, 5%)" stroke-opacity="1.0" stroke-width="1.0e-3"><rect height="0.555624269406393" width="1.4990000000000003e-2" x="-0.40033366736621206" y="-0.2256911301369866"/></g></g><g fill="rgb(2%, 73%, 80%)" fill-opacity="5.0e-2" stroke="rgb(5%, 5%, 5%)" stroke-opacity="1.0" stroke-width="1.0e-3"><rect height="0.6757990867579908" width="1.1796956977964321" x="-0.5894546169989507" y="-0.35335844748858447"/></g></g><g class="hud"><g class="frame"><g fill="rgb(2%, 73%, 80%)" fill-opacity="5.0e-2" stroke="rgb(5%, 5%, 5%)" stroke-opacity="1.0" stroke-width="1.0e-3"><rect height="0.6859360730593607" width="1.1855941762854143" x="-0.5953530954879329" y="-0.3584269406392694"/></g></g><g class="axis"><g class="ticks"><g class="tickglyph"><g fill="rgb(2%, 73%, 80%)" fill-opacity="5.0e-2" stroke="rgb(5%, 5%, 5%)" stroke-opacity="1.0" stroke-width="1.0e-3"><rect height="0.6837910867579908" width="3.3977333333333415e-2" x="-0.6359356761105283" y="-0.35735444748858447"/></g></g><g class="ticktext"><g fill="rgb(5%, 5%, 5%)" fill-opacity="1.0" font-size="3.932318992654774e-2" stroke="none" stroke-width="0.0" text-anchor="end"><text x="-0.647259706190976" y="0.33173287671232876"><g fill="rgb(2%, 73%, 80%)" fill-opacity="5.0e-2" stroke="rgb(5%, 5%, 5%)" stroke-opacity="1.0" stroke-width="3.9323189926547745e-5"><rect height="4.3294832109129044e-2" width="7.082106505771246e-2" x="-0.7180611096537252" y="0.3002546631761273"/></g>0.00</text><text x="-0.647259706190976" y="0.26415296803652966"><g fill="rgb(2%, 73%, 80%)" fill-opacity="5.0e-2" stroke="rgb(5%, 5%, 5%)" stroke-opacity="1.0" stroke-width="3.9323189926547745e-5"><rect height="4.329483210912907e-2" width="7.082106505771246e-2" x="-0.7180611096537252" y="0.23267475450032818"/></g>0.50</text><text x="-0.647259706190976" y="0.1965730593607305"><g fill="rgb(2%, 73%, 80%)" fill-opacity="5.0e-2" stroke="rgb(5%, 5%, 5%)" stroke-opacity="1.0" stroke-width="3.9323189926547745e-5"><rect height="4.329483210912907e-2" width="7.082106505771246e-2" x="-0.7180611096537252" y="0.16509484582452902"/></g>1.00</text><text x="-0.647259706190976" y="0.12899315068493145"><g fill="rgb(2%, 73%, 80%)" fill-opacity="5.0e-2" stroke="rgb(5%, 5%, 5%)" stroke-opacity="1.0" stroke-width="3.9323189926547745e-5"><rect height="4.329483210912907e-2" width="7.082106505771246e-2" x="-0.7180611096537252" y="9.751493714872997e-2"/></g>1.50</text><text x="-0.647259706190976" y="6.1413242009132396e-2"><g fill="rgb(2%, 73%, 80%)" fill-opacity="5.0e-2" stroke="rgb(5%, 5%, 5%)" stroke-opacity="1.0" stroke-width="3.9323189926547745e-5"><rect height="4.329483210912906e-2" width="7.082106505771246e-2" x="-0.7180611096537252" y="2.993502847293093e-2"/></g>2.00</text><text x="-0.647259706190976" y="-6.166666666666654e-3"><g fill="rgb(2%, 73%, 80%)" fill-opacity="5.0e-2" stroke="rgb(5%, 5%, 5%)" stroke-opacity="1.0" stroke-width="3.9323189926547745e-5"><rect height="4.3294832109129065e-2" width="7.082106505771246e-2" x="-0.7180611096537252" y="-3.7644880202868124e-2"/></g>2.50</text><text x="-0.647259706190976" y="-7.374657534246587e-2"><g fill="rgb(2%, 73%, 80%)" fill-opacity="5.0e-2" stroke="rgb(5%, 5%, 5%)" stroke-opacity="1.0" stroke-width="3.9323189926547745e-5"><rect height="4.329483210912908e-2" width="7.082106505771246e-2" x="-0.7180611096537252" y="-0.10522478887866735"/></g>3.00</text><text x="-0.647259706190976" y="-0.14132648401826486"><g fill="rgb(2%, 73%, 80%)" fill-opacity="5.0e-2" stroke="rgb(5%, 5%, 5%)" stroke-opacity="1.0" stroke-width="3.9323189926547745e-5"><rect height="4.329483210912907e-2" width="7.082106505771246e-2" x="-0.7180611096537252" y="-0.17280469755446634"/></g>3.50</text><text x="-0.647259706190976" y="-0.20890639269406397"><g fill="rgb(2%, 73%, 80%)" fill-opacity="5.0e-2" stroke="rgb(5%, 5%, 5%)" stroke-opacity="1.0" stroke-width="3.9323189926547745e-5"><rect height="4.329483210912907e-2" width="7.082106505771246e-2" x="-0.7180611096537252" y="-0.24038460623026545"/></g>4.00</text><text x="-0.647259706190976" y="-0.2764863013698632"><g fill="rgb(2%, 73%, 80%)" fill-opacity="5.0e-2" stroke="rgb(5%, 5%, 5%)" stroke-opacity="1.0" stroke-width="3.9323189926547745e-5"><rect height="4.3294832109129044e-2" width="7.082106505771246e-2" x="-0.7180611096537252" y="-0.30796451490606463"/></g>4.50</text><text x="-0.647259706190976" y="-0.3440662100456622"><g fill="rgb(2%, 73%, 80%)" fill-opacity="5.0e-2" stroke="rgb(5%, 5%, 5%)" stroke-opacity="1.0" stroke-width="3.9323189926547745e-5"><rect height="4.3294832109129044e-2" width="7.082106505771246e-2" x="-0.7180611096537252" y="-0.37554442358186363"/></g>5.00</text></g></g><g class="ticklines"><g fill="rgb(2%, 73%, 80%)" fill-opacity="5.0e-2" stroke="rgb(5%, 5%, 5%)" stroke-opacity="1.0" stroke-width="1.0e-3"><rect height="0.6807940867579907" width="1.1846923644630987" x="-0.591952950332284" y="-0.3558559474885844"/></g></g></g><g class="axisbar"><g fill="rgb(2%, 73%, 80%)" fill-opacity="5.0e-2" stroke="rgb(5%, 5%, 5%)" stroke-opacity="1.0" stroke-width="1.0e-3"><rect height="0.6785022831050228" width="3.1458551941236923e-3" x="-0.6063635886673662" y="-0.3547100456621005"/></g></g></g><g class="axis"><g class="ticks"><g class="tickglyph"><g fill="rgb(2%, 73%, 80%)" fill-opacity="5.0e-2" stroke="rgb(5%, 5%, 5%)" stroke-opacity="1.0" stroke-width="1.0e-3"><rect height="3.396600000000005e-2" width="1.1876903644630987" x="-0.593451950332284" y="0.33080010502283097"/></g></g><g class="ticktext"><g fill="rgb(5%, 5%, 5%)" fill-opacity="1.0" font-size="3.932318992654774e-2" stroke="none" stroke-width="0.0" text-anchor="middle"><text x="-0.5894546169989507" y="0.39069634703196343"><g fill="rgb(2%, 73%, 80%)" fill-opacity="5.0e-2" stroke="rgb(5%, 5%, 5%)" stroke-opacity="1.0" stroke-width="3.9323189926547745e-5"><rect height="4.3294832109129044e-2" width="7.082106505771235e-2" x="-0.6248651495278069" y="0.359218133495762"/></g>0.00</text><text x="-0.39283866736621204" y="0.39069634703196343"><g fill="rgb(2%, 73%, 80%)" fill-opacity="5.0e-2" stroke="rgb(5%, 5%, 5%)" stroke-opacity="1.0" stroke-width="3.9323189926547745e-5"><rect height="4.3294832109129044e-2" width="7.082106505771246e-2" x="-0.42824919989506827" y="0.359218133495762"/></g>0.50</text><text x="-0.19622271773347333" y="0.39069634703196343"><g fill="rgb(2%, 73%, 80%)" fill-opacity="5.0e-2" stroke="rgb(5%, 5%, 5%)" stroke-opacity="1.0" stroke-width="3.9323189926547745e-5"><rect height="4.3294832109129044e-2" width="7.082106505771252e-2" x="-0.2316332502623296" y="0.359218133495762"/></g>1.00</text><text x="3.932318992654338e-4" y="0.39069634703196343"><g fill="rgb(2%, 73%, 80%)" fill-opacity="5.0e-2" stroke="rgb(5%, 5%, 5%)" stroke-opacity="1.0" stroke-width="3.9323189926547745e-5"><rect height="4.3294832109129044e-2" width="7.082106505771249e-2" x="-3.501730062959081e-2" y="0.359218133495762"/></g>1.50</text><text x="0.1970091815320042" y="0.39069634703196343"><g fill="rgb(2%, 73%, 80%)" fill-opacity="5.0e-2" stroke="rgb(5%, 5%, 5%)" stroke-opacity="1.0" stroke-width="3.9323189926547745e-5"><rect height="4.3294832109129044e-2" width="7.082106505771252e-2" x="0.16159864900314794" y="0.359218133495762"/></g>2.00</text><text x="0.39362513116474274" y="0.39069634703196343"><g fill="rgb(2%, 73%, 80%)" fill-opacity="5.0e-2" stroke="rgb(5%, 5%, 5%)" stroke-opacity="1.0" stroke-width="3.9323189926547745e-5"><rect height="4.3294832109129044e-2" width="7.082106505771246e-2" x="0.3582145986358865" y="0.359218133495762"/></g>2.50</text><text x="0.5902410807974814" y="0.39069634703196343"><g fill="rgb(2%, 73%, 80%)" fill-opacity="5.0e-2" stroke="rgb(5%, 5%, 5%)" stroke-opacity="1.0" stroke-width="3.9323189926547745e-5"><rect height="4.3294832109129044e-2" width="7.082106505771235e-2" x="0.5548305482686252" y="0.359218133495762"/></g>3.00</text></g></g><g class="ticklines"><g fill="rgb(2%, 73%, 80%)" fill-opacity="5.0e-2" stroke="rgb(5%, 5%, 5%)" stroke-opacity="1.0" stroke-width="1.0e-3"><rect height="0.6807940867579907" width="1.1846923644630987" x="-0.591952950332284" y="-0.3558559474885844"/></g></g></g><g class="axisbar"><g fill="rgb(2%, 73%, 80%)" fill-opacity="5.0e-2" stroke="rgb(5%, 5%, 5%)" stroke-opacity="1.0" stroke-width="1.0e-3"><rect height="2.7031963470319775e-3" width="1.1828415529905558" x="-0.5910275445960127" y="0.33426712328767116"/></g></g></g><g class="title"><g fill="rgb(5%, 5%, 5%)" fill-opacity="1.0" font-size="7.864637985309549e-2" stroke="none" stroke-width="0.0" text-anchor="middle"><text x="-4.620474816369369e-2" y="-0.4184041095890413"><g fill="rgb(2%, 73%, 80%)" fill-opacity="5.0e-2" stroke="rgb(5%, 5%, 5%)" stroke-opacity="1.0" stroke-width="7.864637985309549e-5"><rect height="8.658966421825814e-2" width="0.3539873557187828" x="-0.2231984260230851" y="-0.48136053666144424"/></g>Line Chart</text></g></g><g class="title"><g fill="rgb(5%, 5%, 5%)" fill-opacity="1.0" font-size="4.718782791185729e-2" stroke="none" stroke-width="0.0" text-anchor="end"><text x="0.6256319517313744" y="0.46030365296803655"><g fill="rgb(2%, 73%, 80%)" fill-opacity="5.0e-2" stroke="rgb(5%, 5%, 5%)" stroke-opacity="1.0" stroke-width="4.7187827911857296e-5"><rect height="5.195379853095494e-2" width="0.5946138195173137" x="3.104172612801656e-2" y="0.42252979672459473"/></g>Made with love and chart-svg</text></g></g><g class="legend"><g class="legendBorder"><g fill="rgb(2%, 73%, 80%)" fill-opacity="5.0e-2" stroke="rgb(5%, 5%, 5%)" stroke-opacity="1.0" stroke-width="1.0e-3"><rect height="0.18584474885844748" width="0.3873334207764956" x="0.3307080272822662" y="7.408447488584469e-2"/></g><g fill="rgb(2%, 73%, 80%)" fill-opacity="5.0e-2" stroke="rgb(5%, 5%, 5%)" stroke-opacity="1.0" stroke-width="1.0e-3"><rect height="0.1790867579908676" width="0.3794687827911858" x="0.33464034627492123" y="7.746347031963463e-2"/></g><g fill="rgb(2%, 73%, 80%)" fill-opacity="5.0e-2" stroke="rgb(5%, 5%, 5%)" stroke-opacity="1.0" stroke-width="1.0e-3"><rect height="0.18158425799086753" width="0.3819671161245193" x="0.3333911796082545" y="7.621472031963467e-2"/></g></g><g class="legendContent"><g fill="rgb(5%, 5%, 5%)" fill-opacity="1.0" font-size="3.932318992654774e-2" stroke="none" stroke-width="0.0" text-anchor="start"><text x="0.3543019412381947" y="0.22951826484018256"><g fill="rgb(2%, 73%, 80%)" fill-opacity="5.0e-2" stroke="rgb(5%, 5%, 5%)" stroke-opacity="1.0" stroke-width="3.9323189926547745e-5"><rect height="4.329483210912907e-2" width="0.17699367785939135" x="0.35428227964323145" y="0.19804005130398109"/></g>palette1 2</text></g><g fill="rgb(2%, 73%, 80%)" fill-opacity="5.0e-2" stroke="rgb(5%, 5%, 5%)" stroke-opacity="1.0" stroke-width="1.0e-3"><rect height="1.4985000000000026e-2" width="0.13295956977964285" x="0.5630844858342079" y="0.2135782762557077"/></g><g fill="rgb(5%, 5%, 5%)" fill-opacity="1.0" font-size="3.932318992654774e-2" stroke="none" stroke-width="0.0" text-anchor="start"><text x="0.3543019412381947" y="0.1754543378995433"><g fill="rgb(2%, 73%, 80%)" fill-opacity="5.0e-2" stroke="rgb(5%, 5%, 5%)" stroke-opacity="1.0" stroke-width="3.9323189926547745e-5"><rect height="4.329483210912907e-2" width="0.17699367785939135" x="0.35428227964323145" y="0.1439761243633418"/></g>palette1 1</text></g><g fill="rgb(2%, 73%, 80%)" fill-opacity="5.0e-2" stroke="rgb(5%, 5%, 5%)" stroke-opacity="1.0" stroke-width="1.0e-3"><rect height="1.4985000000000026e-2" width="0.13295956977964285" x="0.5630844858342079" y="0.15951434931506842"/></g><g fill="rgb(5%, 5%, 5%)" fill-opacity="1.0" font-size="3.932318992654774e-2" stroke="none" stroke-width="0.0" text-anchor="start"><text x="0.3543019412381947" y="0.12139041095890407"><g fill="rgb(2%, 73%, 80%)" fill-opacity="5.0e-2" stroke="rgb(5%, 5%, 5%)" stroke-opacity="1.0" stroke-width="3.9323189926547745e-5"><rect height="4.329483210912907e-2" width="0.17699367785939135" x="0.35428227964323145" y="8.99121974227026e-2"/></g>palette1 0</text></g><g fill="rgb(2%, 73%, 80%)" fill-opacity="5.0e-2" stroke="rgb(5%, 5%, 5%)" stroke-opacity="1.0" stroke-width="1.0e-3"><rect height="1.4985000000000026e-2" width="0.13295956977964285" x="0.5630844858342079" y="0.10545042237442914"/></g></g></g><g class="frame"><g fill="rgb(2%, 73%, 80%)" fill-opacity="5.0e-2" stroke="rgb(5%, 5%, 5%)" stroke-opacity="1.0" stroke-width="1.0e-3"><rect height="0.9990000000000001" width="1.499" x="-0.7495" y="-0.49950000000000006"/></g></g></g></g></g><g class="hud"/></svg>