<svg xmlns="http://www.w3.org/2000/svg" xmlns:xlink="http://www.w3.org/1999/xlink" width="449" height="300" viewBox="-0.7500 -0.5000 1.5000 1.0000"><style>svg {
  color-scheme: light dark;
}
{
  .canvas g, .title g, .axisbar g, .ticktext g, .tickglyph g, .ticklines g, .legendContent g text {
    fill: rgb(5%, 5%, 5%);
  }
  .ticklines g, .tickglyph g, .legendBorder g {
    stroke: rgb(5%, 5%, 5%);
  }
  .legendBorder g {
    fill: rgb(94%, 94%, 94%);
  }
}
@media (prefers-color-scheme:dark) {
  .canvas g, .title g, .axisbar g, .ticktext g, .tickglyph g, .ticklines g, .legendContent g text {
    fill: rgb(94%, 94%, 94%);
  }
  .ticklines g, .tickglyph g, .legendBorder g {
    stroke: rgb(94%, 94%, 94%);
  }
  .legendBorder g {
    fill: rgb(5%, 5%, 5%);
  }
}
svg { font-family: system-ui,-apple-system,"Segoe UI",Roboto,"Helvetica Neue",Arial,"Noto Sans","Liberation Sans",sans-serif,"Apple Color Emoji","Segoe UI Emoji","Segoe UI Symbol","Noto Color Emoji";
}

ticktext { font-family: SFMono-Regular,Menlo,Monaco,Consolas,"Liberation Mono","Courier New",monospace;
}

</style><g class="chart"><g class="chart"><g class="line"><g stroke-width="0.0118" stroke="rgb(2%, 73%, 80%)" stroke-opacity="1.0" fill="none"><polyline points="-0.6367,0.1951 -0.1969,0.1951 0.2428,-0.3664"/></g><g stroke-width="0.0118" stroke="rgb(2%, 29%, 48%)" stroke-opacity="1.0" fill="none"><polyline points="-0.6367,0.3355 0.5946,-0.0857"/></g><g stroke-width="0.0118" stroke="rgb(66%, 7%, 55%)" stroke-opacity="1.0" fill="none"><polyline points="-0.4168,-0.2261 -0.4168,0.3355"/></g></g><g class="datapadding"></g></g><g class="hud"><g class="frame"><g stroke-width="0" stroke="rgb(0%, 0%, 0%)" stroke-opacity="0" fill="rgb(100%, 100%, 100%)" fill-opacity="0.02"><rect width="1.3258" height="0.7125" x="-0.6433" y="-0.3717"/></g></g><g class="axis"><g class="axisbar"><g stroke-width="0" stroke="rgb(0%, 0%, 0%)" stroke-opacity="0" fill="rgb(5%, 5%, 5%)" fill-opacity="0.4"><rect width="1.3227" height="0.0028" x="-0.6384" y="0.3425"/></g></g><g class="ticks"><g class="ticklines"><g stroke-width="0.0039" stroke="rgb(5%, 5%, 5%)" stroke-opacity="0.05" fill="none"><polyline points="-0.6367,0.3355 -0.6367,-0.3664"/><polyline points="-0.4168,0.3355 -0.4168,-0.3664"/><polyline points="-0.1969,0.3355 -0.1969,-0.3664"/><polyline points="0.0229,0.3355 0.0229,-0.3664"/><polyline points="0.2428,0.3355 0.2428,-0.3664"/><polyline points="0.4626,0.3355 0.4626,-0.3664"/><polyline points="0.6825,0.3355 0.6825,-0.3664"/></g></g><g class="tickglyph"><g stroke-width="0.0032" stroke="rgb(5%, 5%, 5%)" stroke-opacity="0.4" fill="rgb(5%, 5%, 5%)" fill-opacity="0.4"><polyline points="-0.6367,0.3663
-0.6367,0.3427"/><polyline points="-0.4168,0.3663
-0.4168,0.3427"/><polyline points="-0.1969,0.3663
-0.1969,0.3427"/><polyline points="0.0229,0.3663
0.0229,0.3427"/><polyline points="0.2428,0.3663
0.2428,0.3427"/><polyline points="0.4626,0.3663
0.4626,0.3427"/><polyline points="0.6825,0.3663
0.6825,0.3427"/></g></g><g class="ticktext"><g stroke-width="0.0" stroke="none" fill="rgb(5%, 5%, 5%)" fill-opacity="1.0" font-size="0.0315" text-anchor="middle"><text x="-0.6367" y="0.4038">0.0</text><text x="-0.4168" y="0.4038">0.5</text><text x="-0.1969" y="0.4038">1.0</text><text x="0.0229" y="0.4038">1.5</text><text x="0.2428" y="0.4038">2.0</text><text x="0.4626" y="0.4038">2.5</text><text x="0.6825" y="0.4038">3.0</text></g></g></g></g><g class="axis"><g class="axisbar"><g stroke-width="0" stroke="rgb(0%, 0%, 0%)" stroke-opacity="0" fill="rgb(5%, 5%, 5%)" fill-opacity="0.4"><rect width="0.0035" height="0.7047" x="-0.6490" y="-0.3678"/></g></g><g class="ticks"><g class="ticklines"><g stroke-width="0.0039" stroke="rgb(5%, 5%, 5%)" stroke-opacity="0.05" fill="none"><polyline points="-0.6367,0.3355 0.6825,0.3355"/><polyline points="-0.6367,0.1951 0.6825,0.1951"/><polyline points="-0.6367,0.0547 0.6825,0.0547"/><polyline points="-0.6367,-0.0857 0.6825,-0.0857"/><polyline points="-0.6367,-0.2261 0.6825,-0.2261"/><polyline points="-0.6367,-0.3664 0.6825,-0.3664"/></g></g><g class="tickglyph"><g stroke-width="0.0032" stroke="rgb(5%, 5%, 5%)" stroke-opacity="0.4" fill="rgb(5%, 5%, 5%)" fill-opacity="0.4"><polyline points="-0.6723,0.3355
-0.6486,0.3355"/><polyline points="-0.6723,0.1951
-0.6486,0.1951"/><polyline points="-0.6723,0.0547
-0.6486,0.0547"/><polyline points="-0.6723,-0.0857
-0.6486,-0.0857"/><polyline points="-0.6723,-0.2261
-0.6486,-0.2261"/><polyline points="-0.6723,-0.3664
-0.6486,-0.3664"/></g></g><g class="ticktext"><g stroke-width="0.0" stroke="none" fill="rgb(5%, 5%, 5%)" fill-opacity="1.0" font-size="0.0315" text-anchor="end"><text x="-0.6931" y="0.3432">0</text><text x="-0.6931" y="0.2028">1</text><text x="-0.6931" y="0.0624">2</text><text x="-0.6931" y="-0.0779">3</text><text x="-0.6931" y="-0.2183">4</text><text x="-0.6931" y="-0.3587">5</text></g></g></g></g><g class="title"><g stroke-width="0.0" stroke="none" fill="rgb(5%, 5%, 5%)" fill-opacity="1.0" font-size="0.0630" text-anchor="middle"><text x="0" y="-0.4263">Line Chart</text></g></g><g class="legend"><g class="padding"></g><g class="padding"></g><g class="frame"><g stroke-width="0.0010" stroke="rgb(5%, 5%, 5%)" stroke-opacity="1.0" fill="rgb(5%, 5%, 5%)" fill-opacity="0"><rect width="0.4452" height="0.1633" x="0.1056" y="0.1493"/></g></g><g class="legendContent"><g stroke-width="0.0118" stroke="rgb(66%, 7%, 55%)" stroke-opacity="1.0" fill="none"><polyline points="0.3899,0.2795 0.5221,0.2795"/></g><g stroke-width="0.0" stroke="none" fill="rgb(5%, 5%, 5%)" fill-opacity="1.0" font-size="0.0315" text-anchor="start"><text x="0.1276" y="0.2865">palette #2</text></g><g stroke-width="0.0118" stroke="rgb(2%, 29%, 48%)" stroke-opacity="1.0" fill="none"><polyline points="0.3899,0.2309 0.5221,0.2309"/></g><g stroke-width="0.0" stroke="none" fill="rgb(5%, 5%, 5%)" fill-opacity="1.0" font-size="0.0315" text-anchor="start"><text x="0.1276" y="0.2380">palette #1</text></g><g stroke-width="0.0118" stroke="rgb(2%, 73%, 80%)" stroke-opacity="1.0" fill="none"><polyline points="0.3899,0.1823 0.5221,0.1823"/></g><g stroke-width="0.0" stroke="none" fill="rgb(5%, 5%, 5%)" fill-opacity="1.0" font-size="0.0315" text-anchor="start"><text x="0.1276" y="0.1894">palette #0</text></g></g></g><g class="title"><g stroke-width="0.0" stroke="none" fill="rgb(5%, 5%, 5%)" fill-opacity="1.0" font-size="0.0315" text-anchor="end"><text x="0.7142" y="0.4629">Made with 🧡 and chart-svg</text></g></g><g class="frame"><g stroke-width="0" stroke="rgb(0%, 0%, 0%)" stroke-opacity="0" fill="rgb(0%, 0%, 0%)" fill-opacity="0"><rect width="1.4990" height="0.9990" x="-0.7495" y="-0.4995"/></g></g></g><g class="glyphize"><g class="chart"><g class="line"><g stroke-width="0.0030" stroke="rgb(2%, 29%, 48%)" stroke-opacity="1.0" fill="rgb(2%, 73%, 80%)" fill-opacity="0.2"><circle cx="-0.6367" cy="0.1951" r="0.0050"/><circle cx="-0.1969" cy="0.1951" r="0.0050"/><circle cx="0.2428" cy="-0.3664" r="0.0050"/></g><g stroke-width="0.0030" stroke="rgb(2%, 29%, 48%)" stroke-opacity="1.0" fill="rgb(2%, 73%, 80%)" fill-opacity="0.2"><circle cx="-0.6367" cy="0.3355" r="0.0050"/><circle cx="0.5946" cy="-0.0857" r="0.0050"/></g><g stroke-width="0.0030" stroke="rgb(2%, 29%, 48%)" stroke-opacity="1.0" fill="rgb(2%, 73%, 80%)" fill-opacity="0.2"><circle cx="-0.4168" cy="-0.2261" r="0.0050"/><circle cx="-0.4168" cy="0.3355" r="0.0050"/></g></g><g class="datapadding"><g stroke-width="0.0030" stroke="rgb(2%, 29%, 48%)" stroke-opacity="1.0" fill="rgb(2%, 73%, 80%)" fill-opacity="0.2"><circle cx="0.0229" cy="-0.0155" r="0.0050"/></g></g></g><g class="hud"><g class="frame"><g stroke-width="0.0030" stroke="rgb(2%, 29%, 48%)" stroke-opacity="1.0" fill="rgb(2%, 73%, 80%)" fill-opacity="0.2"><circle cx="0.0196" cy="-0.0155" r="0.0050"/></g></g><g class="axis"><g class="axisbar"><g stroke-width="0.0030" stroke="rgb(2%, 29%, 48%)" stroke-opacity="1.0" fill="rgb(2%, 73%, 80%)" fill-opacity="0.2"><circle cx="0.0229" cy="0.3439" r="0.0050"/></g></g><g class="ticks"><g class="ticklines"><g stroke-width="0.0030" stroke="rgb(2%, 29%, 48%)" stroke-opacity="1.0" fill="rgb(2%, 73%, 80%)" fill-opacity="0.2"><circle cx="-0.6367" cy="0.3355" r="0.0050"/><circle cx="-0.6367" cy="-0.3664" r="0.0050"/><circle cx="-0.4168" cy="0.3355" r="0.0050"/><circle cx="-0.4168" cy="-0.3664" r="0.0050"/><circle cx="-0.1969" cy="0.3355" r="0.0050"/><circle cx="-0.1969" cy="-0.3664" r="0.0050"/><circle cx="0.0229" cy="0.3355" r="0.0050"/><circle cx="0.0229" cy="-0.3664" r="0.0050"/><circle cx="0.2428" cy="0.3355" r="0.0050"/><circle cx="0.2428" cy="-0.3664" r="0.0050"/><circle cx="0.4626" cy="0.3355" r="0.0050"/><circle cx="0.4626" cy="-0.3664" r="0.0050"/><circle cx="0.6825" cy="0.3355" r="0.0050"/><circle cx="0.6825" cy="-0.3664" r="0.0050"/></g></g><g class="tickglyph"><g stroke-width="0.0030" stroke="rgb(2%, 29%, 48%)" stroke-opacity="1.0" fill="rgb(2%, 73%, 80%)" fill-opacity="0.2"><circle cx="-0.6367" cy="0.3545" r="0.0050"/><circle cx="-0.4168" cy="0.3545" r="0.0050"/><circle cx="-0.1969" cy="0.3545" r="0.0050"/><circle cx="0.0229" cy="0.3545" r="0.0050"/><circle cx="0.2428" cy="0.3545" r="0.0050"/><circle cx="0.4626" cy="0.3545" r="0.0050"/><circle cx="0.6825" cy="0.3545" r="0.0050"/></g></g><g class="ticktext"><g stroke-width="0.0030" stroke="rgb(2%, 29%, 48%)" stroke-opacity="1.0" fill="rgb(2%, 73%, 80%)" fill-opacity="0.2"><circle cx="-0.6367" cy="0.4038" r="0.0050"/><circle cx="-0.4168" cy="0.4038" r="0.0050"/><circle cx="-0.1969" cy="0.4038" r="0.0050"/><circle cx="0.0229" cy="0.4038" r="0.0050"/><circle cx="0.2428" cy="0.4038" r="0.0050"/><circle cx="0.4626" cy="0.4038" r="0.0050"/><circle cx="0.6825" cy="0.4038" r="0.0050"/></g></g></g></g><g class="axis"><g class="axisbar"><g stroke-width="0.0030" stroke="rgb(2%, 29%, 48%)" stroke-opacity="1.0" fill="rgb(2%, 73%, 80%)" fill-opacity="0.2"><circle cx="-0.6472" cy="-0.0155" r="0.0050"/></g></g><g class="ticks"><g class="ticklines"><g stroke-width="0.0030" stroke="rgb(2%, 29%, 48%)" stroke-opacity="1.0" fill="rgb(2%, 73%, 80%)" fill-opacity="0.2"><circle cx="-0.6367" cy="0.3355" r="0.0050"/><circle cx="0.6825" cy="0.3355" r="0.0050"/><circle cx="-0.6367" cy="0.1951" r="0.0050"/><circle cx="0.6825" cy="0.1951" r="0.0050"/><circle cx="-0.6367" cy="0.0547" r="0.0050"/><circle cx="0.6825" cy="0.0547" r="0.0050"/><circle cx="-0.6367" cy="-0.0857" r="0.0050"/><circle cx="0.6825" cy="-0.0857" r="0.0050"/><circle cx="-0.6367" cy="-0.2261" r="0.0050"/><circle cx="0.6825" cy="-0.2261" r="0.0050"/><circle cx="-0.6367" cy="-0.3664" r="0.0050"/><circle cx="0.6825" cy="-0.3664" r="0.0050"/></g></g><g class="tickglyph"><g stroke-width="0.0030" stroke="rgb(2%, 29%, 48%)" stroke-opacity="1.0" fill="rgb(2%, 73%, 80%)" fill-opacity="0.2"><circle cx="-0.6605" cy="0.3355" r="0.0050"/><circle cx="-0.6605" cy="0.1951" r="0.0050"/><circle cx="-0.6605" cy="0.0547" r="0.0050"/><circle cx="-0.6605" cy="-0.0857" r="0.0050"/><circle cx="-0.6605" cy="-0.2261" r="0.0050"/><circle cx="-0.6605" cy="-0.3664" r="0.0050"/></g></g><g class="ticktext"><g stroke-width="0.0030" stroke="rgb(2%, 29%, 48%)" stroke-opacity="1.0" fill="rgb(2%, 73%, 80%)" fill-opacity="0.2"><circle cx="-0.6931" cy="0.3432" r="0.0050"/><circle cx="-0.6931" cy="0.2028" r="0.0050"/><circle cx="-0.6931" cy="0.0624" r="0.0050"/><circle cx="-0.6931" cy="-0.0779" r="0.0050"/><circle cx="-0.6931" cy="-0.2183" r="0.0050"/><circle cx="-0.6931" cy="-0.3587" r="0.0050"/></g></g></g></g><g class="title"><g stroke-width="0.0030" stroke="rgb(2%, 29%, 48%)" stroke-opacity="1.0" fill="rgb(2%, 73%, 80%)" fill-opacity="0.2"><circle cx="0" cy="-0.4263" r="0.0050"/></g></g><g class="legend"><g class="padding"><g stroke-width="0.0030" stroke="rgb(2%, 29%, 48%)" stroke-opacity="1.0" fill="rgb(2%, 73%, 80%)" fill-opacity="0.2"><circle cx="0.3282" cy="0.2309" r="0.0050"/></g></g><g class="padding"><g stroke-width="0.0030" stroke="rgb(2%, 29%, 48%)" stroke-opacity="1.0" fill="rgb(2%, 73%, 80%)" fill-opacity="0.2"><circle cx="0.3282" cy="0.2309" r="0.0050"/></g></g><g class="frame"><g stroke-width="0.0030" stroke="rgb(2%, 29%, 48%)" stroke-opacity="1.0" fill="rgb(2%, 73%, 80%)" fill-opacity="0.2"><circle cx="0.3282" cy="0.2309" r="0.0050"/></g></g><g class="legendContent"><g stroke-width="0.0030" stroke="rgb(2%, 29%, 48%)" stroke-opacity="1.0" fill="rgb(2%, 73%, 80%)" fill-opacity="0.2"><circle cx="0.3899" cy="0.2795" r="0.0050"/><circle cx="0.5221" cy="0.2795" r="0.0050"/></g><g stroke-width="0.0030" stroke="rgb(2%, 29%, 48%)" stroke-opacity="1.0" fill="rgb(2%, 73%, 80%)" fill-opacity="0.2"><circle cx="0.1276" cy="0.2865" r="0.0050"/></g><g stroke-width="0.0030" stroke="rgb(2%, 29%, 48%)" stroke-opacity="1.0" fill="rgb(2%, 73%, 80%)" fill-opacity="0.2"><circle cx="0.3899" cy="0.2309" r="0.0050"/><circle cx="0.5221" cy="0.2309" r="0.0050"/></g><g stroke-width="0.0030" stroke="rgb(2%, 29%, 48%)" stroke-opacity="1.0" fill="rgb(2%, 73%, 80%)" fill-opacity="0.2"><circle cx="0.1276" cy="0.2380" r="0.0050"/></g><g stroke-width="0.0030" stroke="rgb(2%, 29%, 48%)" stroke-opacity="1.0" fill="rgb(2%, 73%, 80%)" fill-opacity="0.2"><circle cx="0.3899" cy="0.1823" r="0.0050"/><circle cx="0.5221" cy="0.1823" r="0.0050"/></g><g stroke-width="0.0030" stroke="rgb(2%, 29%, 48%)" stroke-opacity="1.0" fill="rgb(2%, 73%, 80%)" fill-opacity="0.2"><circle cx="0.1276" cy="0.1894" r="0.0050"/></g></g></g><g class="title"><g stroke-width="0.0030" stroke="rgb(2%, 29%, 48%)" stroke-opacity="1.0" fill="rgb(2%, 73%, 80%)" fill-opacity="0.2"><circle cx="0.7142" cy="0.4629" r="0.0050"/></g></g><g class="frame"><g stroke-width="0.0030" stroke="rgb(2%, 29%, 48%)" stroke-opacity="1.0" fill="rgb(2%, 73%, 80%)" fill-opacity="0.2"><circle cx="0" cy="0" r="0.0050"/></g></g></g></g><g class="rectangularize"><g class="chart"><g class="line"><g stroke-width="0.0010" stroke="rgb(5%, 5%, 5%)" stroke-opacity="1.0" fill="rgb(2%, 73%, 80%)" fill-opacity="0.05"><rect width="0.8927" height="0.5721" x="-0.6433" y="-0.3717"/></g><g stroke-width="0.0010" stroke="rgb(5%, 5%, 5%)" stroke-opacity="1.0" fill="rgb(2%, 73%, 80%)" fill-opacity="0.05"><rect width="1.2444" height="0.4317" x="-0.6433" y="-0.0910"/></g><g stroke-width="0.0010" stroke="rgb(5%, 5%, 5%)" stroke-opacity="1.0" fill="rgb(2%, 73%, 80%)" fill-opacity="0.05"><rect width="0.0132" height="0.5721" x="-0.4234" y="-0.2313"/></g></g><g class="datapadding"><g stroke-width="0.0010" stroke="rgb(5%, 5%, 5%)" stroke-opacity="1.0" fill="rgb(2%, 73%, 80%)" fill-opacity="0.05"><rect width="1.3191" height="0.7019" x="-0.6367" y="-0.3664"/></g></g></g><g class="hud"><g class="frame"><g stroke-width="0.0010" stroke="rgb(5%, 5%, 5%)" stroke-opacity="1.0" fill="rgb(2%, 73%, 80%)" fill-opacity="0.05"><rect width="1.3258" height="0.7125" x="-0.6433" y="-0.3717"/></g></g><g class="axis"><g class="axisbar"><g stroke-width="0.0010" stroke="rgb(5%, 5%, 5%)" stroke-opacity="1.0" fill="rgb(2%, 73%, 80%)" fill-opacity="0.05"><rect width="1.3227" height="0.0028" x="-0.6384" y="0.3425"/></g></g><g class="ticks"><g class="ticklines"><g stroke-width="0.0010" stroke="rgb(5%, 5%, 5%)" stroke-opacity="1.0" fill="rgb(2%, 73%, 80%)" fill-opacity="0.05"><rect width="1.3236" height="0.7054" x="-0.6389" y="-0.3682"/></g></g><g class="tickglyph"><g stroke-width="0.0010" stroke="rgb(5%, 5%, 5%)" stroke-opacity="1.0" fill="rgb(2%, 73%, 80%)" fill-opacity="0.05"><rect width="1.3262" height="0.0239" x="-0.6402" y="0.3425"/></g></g><g class="ticktext"><g stroke-width="0.0010" stroke="rgb(5%, 5%, 5%)" stroke-opacity="1.0" fill="rgb(2%, 73%, 80%)" fill-opacity="0.05"><rect width="1.3826" height="0.0310" x="-0.6684" y="0.3812"/></g></g></g></g><g class="axis"><g class="axisbar"><g stroke-width="0.0010" stroke="rgb(5%, 5%, 5%)" stroke-opacity="1.0" fill="rgb(2%, 73%, 80%)" fill-opacity="0.05"><rect width="0.0035" height="0.7047" x="-0.6490" y="-0.3678"/></g></g><g class="ticks"><g class="ticklines"><g stroke-width="0.0010" stroke="rgb(5%, 5%, 5%)" stroke-opacity="1.0" fill="rgb(2%, 73%, 80%)" fill-opacity="0.05"><rect width="1.3236" height="0.7054" x="-0.6389" y="-0.3682"/></g></g><g class="tickglyph"><g stroke-width="0.0010" stroke="rgb(5%, 5%, 5%)" stroke-opacity="1.0" fill="rgb(2%, 73%, 80%)" fill-opacity="0.05"><rect width="0.0300" height="0.7075" x="-0.6754" y="-0.3693"/></g></g><g class="ticktext"><g stroke-width="0.0010" stroke="rgb(5%, 5%, 5%)" stroke-opacity="1.0" fill="rgb(2%, 73%, 80%)" fill-opacity="0.05"><rect width="0.0212" height="0.7329" x="-0.7142" y="-0.3812"/></g></g></g></g><g class="title"><g stroke-width="0.0010" stroke="rgb(5%, 5%, 5%)" stroke-opacity="1.0" fill="rgb(2%, 73%, 80%)" fill-opacity="0.05"><rect width="0.4232" height="0.0620" x="-0.2116" y="-0.4713"/></g></g><g class="legend"><g class="padding"><g stroke-width="0.0010" stroke="rgb(5%, 5%, 5%)" stroke-opacity="1.0" fill="rgb(2%, 73%, 80%)" fill-opacity="0.05"><rect width="0.4540" height="0.1704" x="0.1012" y="0.1457"/></g></g><g class="padding"><g stroke-width="0.0010" stroke="rgb(5%, 5%, 5%)" stroke-opacity="1.0" fill="rgb(2%, 73%, 80%)" fill-opacity="0.05"><rect width="0.4452" height="0.1633" x="0.1056" y="0.1493"/></g></g><g class="frame"><g stroke-width="0.0010" stroke="rgb(5%, 5%, 5%)" stroke-opacity="1.0" fill="rgb(2%, 73%, 80%)" fill-opacity="0.05"><rect width="0.4463" height="0.1642" x="0.1050" y="0.1488"/></g></g><g class="legendContent"><g stroke-width="0.0010" stroke="rgb(5%, 5%, 5%)" stroke-opacity="1.0" fill="rgb(2%, 73%, 80%)" fill-opacity="0.05"><rect width="0.1455" height="0.0106" x="0.3833" y="0.2742"/></g><g stroke-width="0.0010" stroke="rgb(5%, 5%, 5%)" stroke-opacity="1.0" fill="rgb(2%, 73%, 80%)" fill-opacity="0.05"><rect width="0.2116" height="0.0310" x="0.1276" y="0.2640"/></g><g stroke-width="0.0010" stroke="rgb(5%, 5%, 5%)" stroke-opacity="1.0" fill="rgb(2%, 73%, 80%)" fill-opacity="0.05"><rect width="0.1455" height="0.0106" x="0.3833" y="0.2256"/></g><g stroke-width="0.0010" stroke="rgb(5%, 5%, 5%)" stroke-opacity="1.0" fill="rgb(2%, 73%, 80%)" fill-opacity="0.05"><rect width="0.2116" height="0.0310" x="0.1276" y="0.2154"/></g><g stroke-width="0.0010" stroke="rgb(5%, 5%, 5%)" stroke-opacity="1.0" fill="rgb(2%, 73%, 80%)" fill-opacity="0.05"><rect width="0.1455" height="0.0106" x="0.3833" y="0.1771"/></g><g stroke-width="0.0010" stroke="rgb(5%, 5%, 5%)" stroke-opacity="1.0" fill="rgb(2%, 73%, 80%)" fill-opacity="0.05"><rect width="0.2116" height="0.0310" x="0.1276" y="0.1669"/></g></g></g><g class="title"><g stroke-width="0.0010" stroke="rgb(5%, 5%, 5%)" stroke-opacity="1.0" fill="rgb(2%, 73%, 80%)" fill-opacity="0.05"><rect width="0.5290" height="0.0310" x="0.1853" y="0.4404"/></g></g><g class="frame"><g stroke-width="0.0010" stroke="rgb(5%, 5%, 5%)" stroke-opacity="1.0" fill="rgb(2%, 73%, 80%)" fill-opacity="0.05"><rect width="1.4990" height="0.9990" x="-0.7495" y="-0.4995"/></g></g></g></g></g><g class="hud"></g></svg>