<svg width="434.8544756419484" xmlns:xlink="http://www.w3.org/1999/xlink" xmlns="http://www.w3.org/2000/svg" viewBox="-0.8173361373992288 -0.5648930949877324 1.5878361373992285 1.0954258675078867" height="300.0"><style>svg {
  color-scheme: light dark;
}
{
  .canvas g, .title g, .axisbar g, .ticktext g, .tickglyph g, .ticklines g, .legendContent g text {
    fill: #0d0d0d;
  }
  .ticklines g, .tickglyph g, .legendBorder g {
    stroke: #0d0d0d;
  }
}
@media (prefers-color-scheme:dark) {
  .canvas g, .title g, .axisbar g, .ticktext g, .tickglyph g, .ticklines g, .legendContent g text {
    fill: #f0f0f0;
  }
  .ticklines g, .tickglyph g, .legendBorder g {
    stroke: #f0f0f0;
  }
}</style><g><g class="line"><g stroke-opacity="1.0" fill="none" stroke="#b05929" stroke-width="1.5e-2"><polyline points="-0.693217665615142,0.18991354466858779
-0.34270942867157395,0.18991354466858779
7.798808271994084e-3,-0.4248799231508168"/></g><g stroke-opacity="1.0" fill="none" stroke="#a6cfe3" stroke-width="3.0e-2"><polyline points="-0.693217665615142,0.3436119116234389
0.28820539782684895,-0.11748318924111456"/></g><g stroke-opacity="1.0" fill="none" stroke="#1f78b5" stroke-width="1.0e-2"><polyline points="-0.517963547143358,-0.27118155619596573
-0.517963547143358,0.3436119116234389"/></g></g><g class="hud"><g class="axis"><g class="ticks"><g class="tickglyph"><g stroke-opacity="0.4" fill="#0d0d0d" stroke="#0d0d0d" stroke-width="4.0e-3" fill-opacity="0.4"><g transform="rotate(-90.0, -0.724763406940063, 0.35513928914505277)"><polyline points="-0.724763406940063,0.3701392891450528
-0.724763406940063,0.34013928914505276"/></g><g transform="rotate(-90.0, -0.724763406940063, 0.27656099903938514)"><polyline points="-0.724763406940063,0.29156099903938515
-0.724763406940063,0.2615609990393851"/></g><g transform="rotate(-90.0, -0.724763406940063, 0.1979827089337175)"><polyline points="-0.724763406940063,0.2129827089337175
-0.724763406940063,0.1829827089337175"/></g><g transform="rotate(-90.0, -0.724763406940063, 0.11940441882804986)"><polyline points="-0.724763406940063,0.13440441882804988
-0.724763406940063,0.10440441882804986"/></g><g transform="rotate(-90.0, -0.724763406940063, 4.082612872238223e-2)"><polyline points="-0.724763406940063,5.5826128722382226e-2
-0.724763406940063,2.5826128722382227e-2"/></g><g transform="rotate(-90.0, -0.724763406940063, -3.775216138328552e-2)"><polyline points="-0.724763406940063,-2.275216138328552e-2
-0.724763406940063,-5.275216138328552e-2"/></g><g transform="rotate(-90.0, -0.724763406940063, -0.11633045148895305)"><polyline points="-0.724763406940063,-0.10133045148895305
-0.724763406940063,-0.13133045148895306"/></g><g transform="rotate(-90.0, -0.724763406940063, -0.1949087415946208)"><polyline points="-0.724763406940063,-0.17990874159462078
-0.724763406940063,-0.2099087415946208"/></g><g transform="rotate(-90.0, -0.724763406940063, -0.2734870317002883)"><polyline points="-0.724763406940063,-0.2584870317002883
-0.724763406940063,-0.28848703170028833"/></g><g transform="rotate(-90.0, -0.724763406940063, -0.35206532180595607)"><polyline points="-0.724763406940063,-0.33706532180595605
-0.724763406940063,-0.3670653218059561"/></g><g transform="rotate(-90.0, -0.724763406940063, -0.4306436119116236)"><polyline points="-0.724763406940063,-0.4156436119116236
-0.724763406940063,-0.4456436119116236"/></g></g></g><g class="ticktext"><g fill="#0d0d0d" stroke="none" stroke-width="0.0" font-size="3.505082369435681e-2" fill-opacity="1.0" text-anchor="end"><text x="-0.75" y="0.3657060518731988">0.0</text><text x="-0.75" y="0.2871277617675311">0.5</text><text x="-0.75" y="0.2085494716618635">1.0</text><text x="-0.75" y="0.12997118155619586">1.5</text><text x="-0.75" y="5.139289145052828e-2">2.0</text><text x="-0.75" y="-2.718539865513947e-2">2.5</text><text x="-0.75" y="-0.1057636887608071">3.0</text><text x="-0.75" y="-0.18434197886647474">3.5</text><text x="-0.75" y="-0.2629202689721426">4.0</text><text x="-0.75" y="-0.34149855907781">4.5</text><text x="-0.75" y="-0.42007684918347776">5.0</text></g></g><g class="ticklines"><g stroke-opacity="5.0e-2" fill="none" stroke="#0d0d0d" stroke-width="5.0e-3"><polyline points="-0.7037329127234491,0.35513928914505277
0.358307045215562,0.35513928914505277"/><polyline points="-0.7037329127234491,0.27656099903938514
0.358307045215562,0.27656099903938514"/><polyline points="-0.7037329127234491,0.1979827089337175
0.358307045215562,0.1979827089337175"/><polyline points="-0.7037329127234491,0.11940441882804986
0.358307045215562,0.11940441882804986"/><polyline points="-0.7037329127234491,4.082612872238223e-2
0.358307045215562,4.082612872238223e-2"/><polyline points="-0.7037329127234491,-3.775216138328552e-2
0.358307045215562,-3.775216138328552e-2"/><polyline points="-0.7037329127234491,-0.11633045148895305
0.358307045215562,-0.11633045148895305"/><polyline points="-0.7037329127234491,-0.1949087415946208
0.358307045215562,-0.1949087415946208"/><polyline points="-0.7037329127234491,-0.2734870317002883
0.358307045215562,-0.2734870317002883"/><polyline points="-0.7037329127234491,-0.35206532180595607
0.358307045215562,-0.35206532180595607"/><polyline points="-0.7037329127234491,-0.4306436119116236
0.358307045215562,-0.4306436119116236"/></g></g></g><g class="axisbar"><g stroke-opacity="0.0" fill="#0d0d0d" stroke="#000000" stroke-width="0.0" fill-opacity="0.4"><rect width="2.804065895548602e-3" x="-0.713547143357869" y="-0.4321805955811723" height="0.7888568683957735"/></g></g></g><g class="axis"><g class="ticks"><g class="tickglyph"><g stroke-opacity="0.4" fill="#0d0d0d" stroke="#0d0d0d" stroke-width="4.0e-3" fill-opacity="0.4"><polyline points="-0.7037329127234491,0.3931940441882804
-0.7037329127234491,0.3631940441882804"/><polyline points="-0.526726253066947,0.3931940441882804
-0.526726253066947,0.3631940441882804"/><polyline points="-0.34971959341044523,0.3931940441882804
-0.34971959341044523,0.3631940441882804"/><polyline points="-0.17271293375394348,0.3931940441882804
-0.17271293375394348,0.3631940441882804"/><polyline points="4.293725902558387e-3,0.3931940441882804
4.293725902558387e-3,0.3631940441882804"/><polyline points="0.18130038555906025,0.3931940441882804
0.18130038555906025,0.3631940441882804"/><polyline points="0.35830704521556245,0.3931940441882804
0.35830704521556245,0.3631940441882804"/></g></g><g class="ticktext"><g fill="#0d0d0d" stroke="none" stroke-width="0.0" font-size="3.505082369435681e-2" fill-opacity="1.0" text-anchor="middle"><text x="-0.7037329127234491" y="0.4269932756964457">0.0</text><text x="-0.526726253066947" y="0.4269932756964457">0.5</text><text x="-0.34971959341044523" y="0.4269932756964457">1.0</text><text x="-0.17271293375394348" y="0.4269932756964457">1.5</text><text x="4.293725902558387e-3" y="0.4269932756964457">2.0</text><text x="0.18130038555906025" y="0.4269932756964457">2.5</text><text x="0.35830704521556245" y="0.4269932756964457">3.0</text></g></g><g class="ticklines"><g stroke-opacity="5.0e-2" fill="none" stroke="#0d0d0d" stroke-width="5.0e-3"><polyline points="-0.7037329127234491,0.35513928914505277
-0.7037329127234491,-0.4306436119116236"/><polyline points="-0.526726253066947,0.35513928914505277
-0.526726253066947,-0.4306436119116236"/><polyline points="-0.34971959341044523,0.35513928914505277
-0.34971959341044523,-0.4306436119116236"/><polyline points="-0.17271293375394348,0.35513928914505277
-0.17271293375394348,-0.4306436119116236"/><polyline points="4.293725902558387e-3,0.35513928914505277
4.293725902558387e-3,-0.4306436119116236"/><polyline points="0.18130038555906025,0.35513928914505277
0.18130038555906025,-0.4306436119116236"/><polyline points="0.35830704521556245,0.35513928914505277
0.35830704521556245,-0.4306436119116236"/></g></g></g><g class="axisbar"><g stroke-opacity="0.0" fill="#0d0d0d" stroke="#000000" stroke-width="0.0" fill-opacity="0.4"><rect width="1.0648440238345596" x="-0.7051349456712233" y="0.3628242074927953" height="3.0739673390970945e-3"/></g></g></g><g class="title"><g fill="#0d0d0d" stroke="none" stroke-width="0.0" font-size="3.505082369435681e-2" fill-opacity="1.0" text-anchor="end"><text x="0.38196635120925315" y="0.5">Made with love and chart-svg</text></g></g><g class="title"><g fill="#0d0d0d" stroke="none" stroke-width="0.0" font-size="5.608131791097089e-2" fill-opacity="1.0" text-anchor="middle"><text x="-0.2076761303890644" y="-0.5000000000000002">Line Chart</text></g></g><g class="legend"><g class="legendBorder"><g stroke-opacity="1.0" fill="#0d0d0d" stroke="#0d0d0d" stroke-width="2.5e-3" fill-opacity="0.0"><rect width="0.31195233087977536" x="0.4345425867507885" y="-0.18213256484149876" height="0.20365033621517775"/></g></g><g class="legendContent"><g><g fill="#0d0d0d" stroke="none" stroke-width="0.0" font-size="3.505082369435681e-2" fill-opacity="1.0" text-anchor="start"><text x="0.45206799859796687" y="-9.221902017291339e-3">vertical</text></g><g stroke-opacity="1.0" fill="none" stroke="#1f78b5" stroke-width="1.0e-2"><polyline points="0.613301787592008,-1.8828049951969295e-2
0.7184542586750785,-1.8828049951969295e-2"/></g><g fill="#0d0d0d" stroke="none" stroke-width="0.0" font-size="3.505082369435681e-2" fill-opacity="1.0" text-anchor="start"><text x="0.45206799859796687" y="-7.070124879923168e-2">line</text></g><g stroke-opacity="1.0" fill="none" stroke="#a6cfe3" stroke-width="3.0e-2"><polyline points="0.613301787592008,-8.030739673390985e-2
0.7184542586750785,-8.030739673390985e-2"/></g><g fill="#0d0d0d" stroke="none" stroke-width="0.0" font-size="3.505082369435681e-2" fill-opacity="1.0" text-anchor="start"><text x="0.45206799859796687" y="-0.13218059558117223">hockey</text></g><g stroke-opacity="1.0" fill="none" stroke="#b05929" stroke-width="1.5e-2"><polyline points="0.613301787592008,-0.1417867435158503
0.7184542586750785,-0.1417867435158503"/></g></g></g></g></g><g class="glyphize"><g class="line"><g stroke-opacity="1.0" fill="#a6cfe3" stroke="#1f78b5" stroke-width="3.0e-3" fill-opacity="1.0"><circle cx="-0.693217665615142" cy="0.18991354466858779" r="5.0e-3"/><circle cx="-0.34270942867157395" cy="0.18991354466858779" r="5.0e-3"/><circle cx="7.798808271994084e-3" cy="-0.4248799231508168" r="5.0e-3"/></g><g stroke-opacity="1.0" fill="#a6cfe3" stroke="#1f78b5" stroke-width="3.0e-3" fill-opacity="1.0"><circle cx="-0.693217665615142" cy="0.3436119116234389" r="5.0e-3"/><circle cx="0.28820539782684895" cy="-0.11748318924111456" r="5.0e-3"/></g><g stroke-opacity="1.0" fill="#a6cfe3" stroke="#1f78b5" stroke-width="3.0e-3" fill-opacity="1.0"><circle cx="-0.517963547143358" cy="-0.27118155619596573" r="5.0e-3"/><circle cx="-0.517963547143358" cy="0.3436119116234389" r="5.0e-3"/></g></g><g><g stroke-opacity="1.0" fill="#a6cfe3" stroke="#1f78b5" stroke-width="3.0e-3" fill-opacity="1.0"><circle cx="-0.16745531019978976" cy="-4.063400576368914e-2" r="5.0e-3"/></g></g><g class="hud"><g class="axis"><g class="ticks"><g class="tickglyph"><g stroke-opacity="1.0" fill="#a6cfe3" stroke="#1f78b5" stroke-width="3.0e-3" fill-opacity="1.0"><circle cx="-0.724763406940063" cy="0.35513928914505277" r="5.0e-3"/><circle cx="-0.724763406940063" cy="0.27656099903938514" r="5.0e-3"/><circle cx="-0.724763406940063" cy="0.1979827089337175" r="5.0e-3"/><circle cx="-0.724763406940063" cy="0.11940441882804986" r="5.0e-3"/><circle cx="-0.724763406940063" cy="4.082612872238223e-2" r="5.0e-3"/><circle cx="-0.724763406940063" cy="-3.775216138328552e-2" r="5.0e-3"/><circle cx="-0.724763406940063" cy="-0.11633045148895305" r="5.0e-3"/><circle cx="-0.724763406940063" cy="-0.1949087415946208" r="5.0e-3"/><circle cx="-0.724763406940063" cy="-0.2734870317002883" r="5.0e-3"/><circle cx="-0.724763406940063" cy="-0.35206532180595607" r="5.0e-3"/><circle cx="-0.724763406940063" cy="-0.4306436119116236" r="5.0e-3"/></g></g><g class="ticktext"><g stroke-opacity="1.0" fill="#a6cfe3" stroke="#1f78b5" stroke-width="3.0e-3" fill-opacity="1.0"><circle cx="-0.75" cy="0.3657060518731988" r="5.0e-3"/><circle cx="-0.75" cy="0.2871277617675311" r="5.0e-3"/><circle cx="-0.75" cy="0.2085494716618635" r="5.0e-3"/><circle cx="-0.75" cy="0.12997118155619586" r="5.0e-3"/><circle cx="-0.75" cy="5.139289145052828e-2" r="5.0e-3"/><circle cx="-0.75" cy="-2.718539865513947e-2" r="5.0e-3"/><circle cx="-0.75" cy="-0.1057636887608071" r="5.0e-3"/><circle cx="-0.75" cy="-0.18434197886647474" r="5.0e-3"/><circle cx="-0.75" cy="-0.2629202689721426" r="5.0e-3"/><circle cx="-0.75" cy="-0.34149855907781" r="5.0e-3"/><circle cx="-0.75" cy="-0.42007684918347776" r="5.0e-3"/></g></g><g class="ticklines"><g stroke-opacity="1.0" fill="#a6cfe3" stroke="#1f78b5" stroke-width="3.0e-3" fill-opacity="1.0"><circle cx="-0.7037329127234491" cy="0.35513928914505277" r="5.0e-3"/><circle cx="0.358307045215562" cy="0.35513928914505277" r="5.0e-3"/><circle cx="-0.7037329127234491" cy="0.27656099903938514" r="5.0e-3"/><circle cx="0.358307045215562" cy="0.27656099903938514" r="5.0e-3"/><circle cx="-0.7037329127234491" cy="0.1979827089337175" r="5.0e-3"/><circle cx="0.358307045215562" cy="0.1979827089337175" r="5.0e-3"/><circle cx="-0.7037329127234491" cy="0.11940441882804986" r="5.0e-3"/><circle cx="0.358307045215562" cy="0.11940441882804986" r="5.0e-3"/><circle cx="-0.7037329127234491" cy="4.082612872238223e-2" r="5.0e-3"/><circle cx="0.358307045215562" cy="4.082612872238223e-2" r="5.0e-3"/><circle cx="-0.7037329127234491" cy="-3.775216138328552e-2" r="5.0e-3"/><circle cx="0.358307045215562" cy="-3.775216138328552e-2" r="5.0e-3"/><circle cx="-0.7037329127234491" cy="-0.11633045148895305" r="5.0e-3"/><circle cx="0.358307045215562" cy="-0.11633045148895305" r="5.0e-3"/><circle cx="-0.7037329127234491" cy="-0.1949087415946208" r="5.0e-3"/><circle cx="0.358307045215562" cy="-0.1949087415946208" r="5.0e-3"/><circle cx="-0.7037329127234491" cy="-0.2734870317002883" r="5.0e-3"/><circle cx="0.358307045215562" cy="-0.2734870317002883" r="5.0e-3"/><circle cx="-0.7037329127234491" cy="-0.35206532180595607" r="5.0e-3"/><circle cx="0.358307045215562" cy="-0.35206532180595607" r="5.0e-3"/><circle cx="-0.7037329127234491" cy="-0.4306436119116236" r="5.0e-3"/><circle cx="0.358307045215562" cy="-0.4306436119116236" r="5.0e-3"/></g></g></g><g class="axisbar"><g stroke-opacity="1.0" fill="#a6cfe3" stroke="#1f78b5" stroke-width="3.0e-3" fill-opacity="1.0"><circle cx="-0.7121451104100947" cy="-3.775216138328552e-2" r="5.0e-3"/></g></g></g><g class="axis"><g class="ticks"><g class="tickglyph"><g stroke-opacity="1.0" fill="#a6cfe3" stroke="#1f78b5" stroke-width="3.0e-3" fill-opacity="1.0"><circle cx="-0.7037329127234491" cy="0.3781940441882804" r="5.0e-3"/><circle cx="-0.526726253066947" cy="0.3781940441882804" r="5.0e-3"/><circle cx="-0.34971959341044523" cy="0.3781940441882804" r="5.0e-3"/><circle cx="-0.17271293375394348" cy="0.3781940441882804" r="5.0e-3"/><circle cx="4.293725902558387e-3" cy="0.3781940441882804" r="5.0e-3"/><circle cx="0.18130038555906025" cy="0.3781940441882804" r="5.0e-3"/><circle cx="0.35830704521556245" cy="0.3781940441882804" r="5.0e-3"/></g></g><g class="ticktext"><g stroke-opacity="1.0" fill="#a6cfe3" stroke="#1f78b5" stroke-width="3.0e-3" fill-opacity="1.0"><circle cx="-0.7037329127234491" cy="0.4269932756964457" r="5.0e-3"/><circle cx="-0.526726253066947" cy="0.4269932756964457" r="5.0e-3"/><circle cx="-0.34971959341044523" cy="0.4269932756964457" r="5.0e-3"/><circle cx="-0.17271293375394348" cy="0.4269932756964457" r="5.0e-3"/><circle cx="4.293725902558387e-3" cy="0.4269932756964457" r="5.0e-3"/><circle cx="0.18130038555906025" cy="0.4269932756964457" r="5.0e-3"/><circle cx="0.35830704521556245" cy="0.4269932756964457" r="5.0e-3"/></g></g><g class="ticklines"><g stroke-opacity="1.0" fill="#a6cfe3" stroke="#1f78b5" stroke-width="3.0e-3" fill-opacity="1.0"><circle cx="-0.7037329127234491" cy="0.35513928914505277" r="5.0e-3"/><circle cx="-0.7037329127234491" cy="-0.4306436119116236" r="5.0e-3"/><circle cx="-0.526726253066947" cy="0.35513928914505277" r="5.0e-3"/><circle cx="-0.526726253066947" cy="-0.4306436119116236" r="5.0e-3"/><circle cx="-0.34971959341044523" cy="0.35513928914505277" r="5.0e-3"/><circle cx="-0.34971959341044523" cy="-0.4306436119116236" r="5.0e-3"/><circle cx="-0.17271293375394348" cy="0.35513928914505277" r="5.0e-3"/><circle cx="-0.17271293375394348" cy="-0.4306436119116236" r="5.0e-3"/><circle cx="4.293725902558387e-3" cy="0.35513928914505277" r="5.0e-3"/><circle cx="4.293725902558387e-3" cy="-0.4306436119116236" r="5.0e-3"/><circle cx="0.18130038555906025" cy="0.35513928914505277" r="5.0e-3"/><circle cx="0.18130038555906025" cy="-0.4306436119116236" r="5.0e-3"/><circle cx="0.35830704521556245" cy="0.35513928914505277" r="5.0e-3"/><circle cx="0.35830704521556245" cy="-0.4306436119116236" r="5.0e-3"/></g></g></g><g class="axisbar"><g stroke-opacity="1.0" fill="#a6cfe3" stroke="#1f78b5" stroke-width="3.0e-3" fill-opacity="1.0"><circle cx="-0.17271293375394348" cy="0.3643611911623439" r="5.0e-3"/></g></g></g><g class="title"><g stroke-opacity="1.0" fill="#a6cfe3" stroke="#1f78b5" stroke-width="3.0e-3" fill-opacity="1.0"><circle cx="0.38196635120925315" cy="0.5" r="5.0e-3"/></g></g><g class="title"><g stroke-opacity="1.0" fill="#a6cfe3" stroke="#1f78b5" stroke-width="3.0e-3" fill-opacity="1.0"><circle cx="-0.2076761303890644" cy="-0.5000000000000002" r="5.0e-3"/></g></g><g class="legend"><g class="legendBorder"><g stroke-opacity="1.0" fill="#a6cfe3" stroke="#1f78b5" stroke-width="3.0e-3" fill-opacity="1.0"><circle cx="0.590518752190676" cy="-8.030739673390985e-2" r="5.0e-3"/></g><g stroke-opacity="1.0" fill="#a6cfe3" stroke="#1f78b5" stroke-width="3.0e-3" fill-opacity="1.0"><circle cx="0.590518752190676" cy="-8.030739673390985e-2" r="5.0e-3"/></g><g stroke-opacity="1.0" fill="#a6cfe3" stroke="#1f78b5" stroke-width="3.0e-3" fill-opacity="1.0"><circle cx="0.590518752190676" cy="-8.030739673390985e-2" r="5.0e-3"/></g></g><g class="legendContent"><g><g stroke-opacity="1.0" fill="#a6cfe3" stroke="#1f78b5" stroke-width="3.0e-3" fill-opacity="1.0"><circle cx="0.45206799859796687" cy="-9.221902017291339e-3" r="5.0e-3"/></g><g stroke-opacity="1.0" fill="#a6cfe3" stroke="#1f78b5" stroke-width="3.0e-3" fill-opacity="1.0"><circle cx="0.613301787592008" cy="-1.8828049951969295e-2" r="5.0e-3"/><circle cx="0.7184542586750785" cy="-1.8828049951969295e-2" r="5.0e-3"/></g><g stroke-opacity="1.0" fill="#a6cfe3" stroke="#1f78b5" stroke-width="3.0e-3" fill-opacity="1.0"><circle cx="0.45206799859796687" cy="-7.070124879923168e-2" r="5.0e-3"/></g><g stroke-opacity="1.0" fill="#a6cfe3" stroke="#1f78b5" stroke-width="3.0e-3" fill-opacity="1.0"><circle cx="0.613301787592008" cy="-8.030739673390985e-2" r="5.0e-3"/><circle cx="0.7184542586750785" cy="-8.030739673390985e-2" r="5.0e-3"/></g><g stroke-opacity="1.0" fill="#a6cfe3" stroke="#1f78b5" stroke-width="3.0e-3" fill-opacity="1.0"><circle cx="0.45206799859796687" cy="-0.13218059558117223" r="5.0e-3"/></g><g stroke-opacity="1.0" fill="#a6cfe3" stroke="#1f78b5" stroke-width="3.0e-3" fill-opacity="1.0"><circle cx="0.613301787592008" cy="-0.1417867435158503" r="5.0e-3"/><circle cx="0.7184542586750785" cy="-0.1417867435158503" r="5.0e-3"/></g></g></g></g></g></g><g class="rectangularize"><g class="line"><g stroke-opacity="1.0" fill="#1f78b5" stroke="#0d0d0d" stroke-width="1.0e-3" fill-opacity="0.2"><rect width="0.7115317209954432" x="-0.6984752891692954" y="-0.4306436119116236" height="0.6263208453410183"/></g><g stroke-opacity="1.0" fill="#1f78b5" stroke="#0d0d0d" stroke-width="1.0e-3" fill-opacity="0.2"><rect width="1.0024535576586047" x="-0.7037329127234491" y="-0.12901056676272848" height="0.48414985590778126"/></g><g stroke-opacity="1.0" fill="#1f78b5" stroke="#0d0d0d" stroke-width="1.0e-3" fill-opacity="0.2"><rect width="7.010164738871172e-3" x="-0.5214686295127935" y="-0.2750240153698371" height="0.6224783861671472"/></g></g><g><g stroke-opacity="1.0" fill="#1f78b5" stroke="#0d0d0d" stroke-width="1.0e-3" fill-opacity="0.2"><rect width="1.051524710830704" x="-0.693217665615142" y="-0.4248799231508168" height="0.7684918347742558"/></g></g><g class="hud"><g class="axis"><g class="ticks"><g class="tickglyph"><g stroke-opacity="1.0" fill="#1f78b5" stroke="#0d0d0d" stroke-width="1.0e-3" fill-opacity="0.2"><rect width="2.3834560112162673e-2" x="-0.7366806869961444" y="-0.43371757925072063" height="0.7919308357348704"/></g></g><g class="ticktext"><g fill="#0d0d0d" stroke="none" stroke-width="0.0" font-size="3.505082369435681e-2" fill-opacity="1.0" text-anchor="end"><text x="-0.75" y="0.3657060518731988">0.0</text><g stroke-opacity="1.0" fill="#1f78b5" stroke="#0d0d0d" stroke-width="3.505082369435681e-5" fill-opacity="0.2"><rect width="4.7353662811076e-2" x="-0.7973361373992288" y="0.3376478675058662" height="3.859095688748687e-2"/></g><text x="-0.75" y="0.2871277617675311">0.5</text><g stroke-opacity="1.0" fill="#1f78b5" stroke="#0d0d0d" stroke-width="3.505082369435681e-5" fill-opacity="0.2"><rect width="4.7353662811076e-2" x="-0.7973361373992288" y="0.2590695774001984" height="3.859095688748687e-2"/></g><text x="-0.75" y="0.2085494716618635">1.0</text><g stroke-opacity="1.0" fill="#1f78b5" stroke="#0d0d0d" stroke-width="3.505082369435681e-5" fill-opacity="0.2"><rect width="4.7353662811076e-2" x="-0.7973361373992288" y="0.18049128729453084" height="3.859095688748687e-2"/></g><text x="-0.75" y="0.12997118155619586">1.5</text><g stroke-opacity="1.0" fill="#1f78b5" stroke="#0d0d0d" stroke-width="3.505082369435681e-5" fill-opacity="0.2"><rect width="4.7353662811076e-2" x="-0.7973361373992288" y="0.10191299718886324" height="3.8590956887486844e-2"/></g><text x="-0.75" y="5.139289145052828e-2">2.0</text><g stroke-opacity="1.0" fill="#1f78b5" stroke="#0d0d0d" stroke-width="3.505082369435681e-5" fill-opacity="0.2"><rect width="4.7353662811076e-2" x="-0.7973361373992288" y="2.3334707083195648e-2" height="3.859095688748685e-2"/></g><text x="-0.75" y="-2.718539865513947e-2">2.5</text><g stroke-opacity="1.0" fill="#1f78b5" stroke="#0d0d0d" stroke-width="3.505082369435681e-5" fill-opacity="0.2"><rect width="4.7353662811076e-2" x="-0.7973361373992288" y="-5.52435830224721e-2" height="3.859095688748685e-2"/></g><text x="-0.75" y="-0.1057636887608071">3.0</text><g stroke-opacity="1.0" fill="#1f78b5" stroke="#0d0d0d" stroke-width="3.505082369435681e-5" fill-opacity="0.2"><rect width="4.7353662811076e-2" x="-0.7973361373992288" y="-0.13382187312813976" height="3.859095688748687e-2"/></g><text x="-0.75" y="-0.18434197886647474">3.5</text><g stroke-opacity="1.0" fill="#1f78b5" stroke="#0d0d0d" stroke-width="3.505082369435681e-5" fill-opacity="0.2"><rect width="4.7353662811076e-2" x="-0.7973361373992288" y="-0.2124001632338074" height="3.859095688748687e-2"/></g><text x="-0.75" y="-0.2629202689721426">4.0</text><g stroke-opacity="1.0" fill="#1f78b5" stroke="#0d0d0d" stroke-width="3.505082369435681e-5" fill-opacity="0.2"><rect width="4.7353662811076e-2" x="-0.7973361373992288" y="-0.29097845333947525" height="3.859095688748687e-2"/></g><text x="-0.75" y="-0.34149855907781">4.5</text><g stroke-opacity="1.0" fill="#1f78b5" stroke="#0d0d0d" stroke-width="3.505082369435681e-5" fill-opacity="0.2"><rect width="4.7353662811076e-2" x="-0.7973361373992288" y="-0.36955674344514267" height="3.859095688748687e-2"/></g><text x="-0.75" y="-0.42007684918347776">5.0</text><g stroke-opacity="1.0" fill="#1f78b5" stroke="#0d0d0d" stroke-width="3.505082369435681e-5" fill-opacity="0.2"><rect width="4.7353662811076e-2" x="-0.7973361373992288" y="-0.4481350335508104" height="3.859095688748687e-2"/></g></g></g><g class="ticklines"><g stroke-opacity="1.0" fill="#1f78b5" stroke="#0d0d0d" stroke-width="1.0e-3" fill-opacity="0.2"><rect width="1.065545040308447" x="-0.7054854539081667" y="-0.43256484149855934" height="0.7896253602305476"/></g></g></g><g class="axisbar"><g stroke-opacity="1.0" fill="#1f78b5" stroke="#0d0d0d" stroke-width="1.0e-3" fill-opacity="0.2"><rect width="2.804065895548602e-3" x="-0.713547143357869" y="-0.4321805955811723" height="0.7888568683957735"/></g></g></g><g class="axis"><g class="ticks"><g class="tickglyph"><g stroke-opacity="1.0" fill="#1f78b5" stroke="#0d0d0d" stroke-width="1.0e-3" fill-opacity="0.2"><rect width="1.0676480897301088" x="-0.7065369786189977" y="0.36512968299711807" height="2.6128722382324776e-2"/></g></g><g class="ticktext"><g fill="#0d0d0d" stroke="none" stroke-width="0.0" font-size="3.505082369435681e-2" fill-opacity="1.0" text-anchor="middle"><text x="-0.7037329127234491" y="0.4269932756964457">0.0</text><g stroke-opacity="1.0" fill="#1f78b5" stroke="#0d0d0d" stroke-width="3.505082369435681e-5" fill-opacity="0.2"><rect width="4.7353662811076e-2" x="-0.7274097441289871" y="0.39893509132911303" height="3.859095688748687e-2"/></g><text x="-0.526726253066947" y="0.4269932756964457">0.5</text><g stroke-opacity="1.0" fill="#1f78b5" stroke="#0d0d0d" stroke-width="3.505082369435681e-5" fill-opacity="0.2"><rect width="4.7353662811076e-2" x="-0.550403084472485" y="0.39893509132911303" height="3.859095688748687e-2"/></g><text x="-0.34971959341044523" y="0.4269932756964457">1.0</text><g stroke-opacity="1.0" fill="#1f78b5" stroke="#0d0d0d" stroke-width="3.505082369435681e-5" fill-opacity="0.2"><rect width="4.7353662811076e-2" x="-0.37339642481598323" y="0.39893509132911303" height="3.859095688748687e-2"/></g><text x="-0.17271293375394348" y="0.4269932756964457">1.5</text><g stroke-opacity="1.0" fill="#1f78b5" stroke="#0d0d0d" stroke-width="3.505082369435681e-5" fill-opacity="0.2"><rect width="4.735366281107606e-2" x="-0.1963897651594815" y="0.39893509132911303" height="3.859095688748687e-2"/></g><text x="4.293725902558387e-3" y="0.4269932756964457">2.0</text><g stroke-opacity="1.0" fill="#1f78b5" stroke="#0d0d0d" stroke-width="3.505082369435681e-5" fill-opacity="0.2"><rect width="4.7353662811076044e-2" x="-1.9383105502979635e-2" y="0.39893509132911303" height="3.859095688748687e-2"/></g><text x="0.18130038555906025" y="0.4269932756964457">2.5</text><g stroke-opacity="1.0" fill="#1f78b5" stroke="#0d0d0d" stroke-width="3.505082369435681e-5" fill-opacity="0.2"><rect width="4.735366281107606e-2" x="0.15762355415352222" y="0.39893509132911303" height="3.859095688748687e-2"/></g><text x="0.35830704521556245" y="0.4269932756964457">3.0</text><g stroke-opacity="1.0" fill="#1f78b5" stroke="#0d0d0d" stroke-width="3.505082369435681e-5" fill-opacity="0.2"><rect width="4.7353662811076e-2" x="0.33463021381002445" y="0.39893509132911303" height="3.859095688748687e-2"/></g></g></g><g class="ticklines"><g stroke-opacity="1.0" fill="#1f78b5" stroke="#0d0d0d" stroke-width="1.0e-3" fill-opacity="0.2"><rect width="1.065545040308447" x="-0.7054854539081667" y="-0.43256484149855934" height="0.7896253602305476"/></g></g></g><g class="axisbar"><g stroke-opacity="1.0" fill="#1f78b5" stroke="#0d0d0d" stroke-width="1.0e-3" fill-opacity="0.2"><rect width="1.0648440238345596" x="-0.7051349456712233" y="0.3628242074927953" height="3.0739673390970945e-3"/></g></g></g><g class="title"><g fill="#0d0d0d" stroke="none" stroke-width="0.0" font-size="3.505082369435681e-2" fill-opacity="1.0" text-anchor="end"><text x="0.38196635120925315" y="0.5">Made with love and chart-svg</text><g stroke-opacity="1.0" fill="#1f78b5" stroke="#0d0d0d" stroke-width="3.505082369435681e-5" fill-opacity="0.2"><rect width="0.44167542937259013" x="-5.969155275148979e-2" y="0.47194181563266735" height="3.859095688748693e-2"/></g></g></g><g class="title"><g fill="#0d0d0d" stroke="none" stroke-width="0.0" font-size="5.608131791097089e-2" fill-opacity="1.0" text-anchor="middle"><text x="-0.2076761303890644" y="-0.5000000000000002">Line Chart</text><g stroke-opacity="1.0" fill="#1f78b5" stroke="#0d0d0d" stroke-width="5.608131791097089e-5" fill-opacity="0.2"><rect width="0.25242201191728003" x="-0.33388713634770445" y="-0.5448930949877324" height="6.174553101997898e-2"/></g></g></g><g class="legend"><g class="legendBorder"><g stroke-opacity="1.0" fill="#1f78b5" stroke="#0d0d0d" stroke-width="1.0e-3" fill-opacity="0.2"><rect width="0.318962495618647" x="0.4310375043813527" y="-0.18597502401536992" height="0.21133525456292024"/></g><g stroke-opacity="1.0" fill="#1f78b5" stroke="#0d0d0d" stroke-width="1.0e-3" fill-opacity="0.2"><rect width="0.31195233087977536" x="0.4345425867507885" y="-0.18213256484149876" height="0.20365033621517775"/></g><g stroke-opacity="1.0" fill="#1f78b5" stroke="#0d0d0d" stroke-width="1.0e-3" fill-opacity="0.2"><rect width="0.3137048720644935" x="0.43366631615842943" y="-0.18309317963496652" height="0.20557156580211333"/></g></g><g class="legendContent"><g><g fill="#0d0d0d" stroke="none" stroke-width="0.0" font-size="3.505082369435681e-2" fill-opacity="1.0" text-anchor="start"><text x="0.45206799859796687" y="-9.221902017291339e-3">vertical</text><g stroke-opacity="1.0" fill="#1f78b5" stroke="#0d0d0d" stroke-width="3.505082369435681e-5" fill-opacity="0.2"><rect width="0.1262180161233789" x="0.4520504731861197" y="-3.728008638462397e-2" height="3.859095688748685e-2"/></g></g><g stroke-opacity="1.0" fill="#1f78b5" stroke="#0d0d0d" stroke-width="1.0e-3" fill-opacity="0.2"><rect width="0.11216263582194141" x="0.6097967052225727" y="-2.2670509125840566e-2" height="7.684918347742542e-3"/></g><g fill="#0d0d0d" stroke="none" stroke-width="0.0" font-size="3.505082369435681e-2" fill-opacity="1.0" text-anchor="start"><text x="0.45206799859796687" y="-7.070124879923168e-2">line</text><g stroke-opacity="1.0" fill="#1f78b5" stroke="#0d0d0d" stroke-width="3.505082369435681e-5" fill-opacity="0.2"><rect width="6.312653347353658e-2" x="0.4520504731861197" y="-9.87594331665643e-2" height="3.8590956887486844e-2"/></g></g><g stroke-opacity="1.0" fill="#1f78b5" stroke="#0d0d0d" stroke-width="1.0e-3" fill-opacity="0.2"><rect width="0.12618296529968398" x="0.6027865404837011" y="-9.183477425552367e-2" height="2.3054755043227515e-2"/></g><g fill="#0d0d0d" stroke="none" stroke-width="0.0" font-size="3.505082369435681e-2" fill-opacity="1.0" text-anchor="start"><text x="0.45206799859796687" y="-0.13218059558117223">hockey</text><g stroke-opacity="1.0" fill="#1f78b5" stroke="#0d0d0d" stroke-width="3.505082369435681e-5" fill-opacity="0.2"><rect width="9.467227479845775e-2" x="0.4520504731861197" y="-0.16023877994850488" height="3.859095688748687e-2"/></g></g><g stroke-opacity="1.0" fill="#1f78b5" stroke="#0d0d0d" stroke-width="1.0e-3" fill-opacity="0.2"><rect width="0.11566771819137767" x="0.6080441640378546" y="-0.14755043227665732" height="1.1527377521614035e-2"/></g></g></g></g></g></g></g><g class="hud"></g></svg>