<svg width="443.72419595814716" xmlns:xlink="http://www.w3.org/1999/xlink" xmlns="http://www.w3.org/2000/svg" viewBox="-0.7699999999999999 -0.5209701397706267 1.540015452584496 1.041197752981958" height="300.0"><style>svg {
  color-scheme: light dark;
}
{
  .canvas g, .title g, .axisbar g, .ticktext g, .tickglyph g, .ticklines g, .legendContent g text {
    fill: #0d0d0d;
  }
  .ticklines g, .tickglyph g, .legendBorder g {
    stroke: #0d0d0d;
  }
}
@media (prefers-color-scheme:dark) {
  .canvas g, .title g, .axisbar g, .ticktext g, .tickglyph g, .ticklines g, .legendContent g text {
    fill: #f0f0f0;
  }
  .ticklines g, .tickglyph g, .legendBorder g {
    stroke: #f0f0f0;
  }
}</style><g class="chart"><g><g class="chart"><g class="line"><g stroke-opacity="1.0" fill="none" stroke="#b05929" stroke-width="1.5e-2"><polyline points="-0.649099327181655,0.196218144995228
-0.30942360653413803,0.196218144995228
3.0252114113378914e-2,-0.3862893401312065"/></g><g stroke-opacity="1.0" fill="none" stroke="#a6cfe3" stroke-width="3.0e-2"><polyline points="-0.649099327181655,0.3418450162768366
0.3019926906313928,-9.50355975679893e-2"/></g><g stroke-opacity="1.0" fill="none" stroke="#1f78b5" stroke-width="1.0e-2"><polyline points="-0.47926146685789656,-0.24066246884959797
-0.47926146685789656,0.3418450162768366"/></g></g></g><g class="hud"><g class="axis"><g class="ticks"><g class="tickglyph"><g stroke-opacity="0.4" fill="#0d0d0d" stroke="#0d0d0d" stroke-width="4.0e-3" fill-opacity="0.4"><g transform="rotate(-90.0, -0.6796701420399315, 0.3527670316229573)"><polyline points="-0.6796701420399315,0.3677670316229573
-0.6796701420399315,0.3377670316229573"/></g><g transform="rotate(-90.0, -0.6796701420399315, 0.2783152936802349)"><polyline points="-0.6796701420399315,0.2933152936802349
-0.6796701420399315,0.2633152936802349"/></g><g transform="rotate(-90.0, -0.6796701420399315, 0.20386355573751247)"><polyline points="-0.6796701420399315,0.21886355573751248
-0.6796701420399315,0.18886355573751246"/></g><g transform="rotate(-90.0, -0.6796701420399315, 0.12941181779479005)"><polyline points="-0.6796701420399315,0.14441181779479006
-0.6796701420399315,0.11441181779479005"/></g><g transform="rotate(-90.0, -0.6796701420399315, 5.4960079852067634e-2)"><polyline points="-0.6796701420399315,6.996007985206763e-2
-0.6796701420399315,3.9960079852067634e-2"/></g><g transform="rotate(-90.0, -0.6796701420399315, -1.9491658090654784e-2)"><polyline points="-0.6796701420399315,-4.491658090654785e-3
-0.6796701420399315,-3.4491658090654784e-2"/></g><g transform="rotate(-90.0, -0.6796701420399315, -9.39433960333772e-2)"><polyline points="-0.6796701420399315,-7.89433960333772e-2
-0.6796701420399315,-0.1089433960333772"/></g><g transform="rotate(-90.0, -0.6796701420399315, -0.16839513397609962)"><polyline points="-0.6796701420399315,-0.1533951339760996
-0.6796701420399315,-0.18339513397609963"/></g><g transform="rotate(-90.0, -0.6796701420399315, -0.24284687191882204)"><polyline points="-0.6796701420399315,-0.22784687191882202
-0.6796701420399315,-0.25784687191882205"/></g><g transform="rotate(-90.0, -0.6796701420399315, -0.31729860986154446)"><polyline points="-0.6796701420399315,-0.30229860986154444
-0.6796701420399315,-0.33229860986154447"/></g><g transform="rotate(-90.0, -0.6796701420399315, -0.39175034780426676)"><polyline points="-0.6796701420399315,-0.37675034780426675
-0.6796701420399315,-0.4067503478042668"/></g></g></g><g class="ticktext"><g fill="#0d0d0d" stroke="none" stroke-width="0.0" font-size="3.3967572064751705e-2" fill-opacity="1.0" text-anchor="end"><text x="-0.7041267939265528" y="0.3627788790235679">0.0</text><text x="-0.7041267939265528" y="0.2883271410808454">0.5</text><text x="-0.7041267939265528" y="0.21387540313812303">1.0</text><text x="-0.7041267939265528" y="0.13942366519540061">1.5</text><text x="-0.7041267939265528" y="6.497192725267825e-2">2.0</text><text x="-0.7041267939265528" y="-9.479810690044221e-3">2.5</text><text x="-0.7041267939265528" y="-8.393154863276664e-2">3.0</text><text x="-0.7041267939265528" y="-0.15838328657548906">3.5</text><text x="-0.7041267939265528" y="-0.2328350245182116">4.0</text><text x="-0.7041267939265528" y="-0.3072867624609339">4.5</text><text x="-0.7041267939265528" y="-0.3817385004036563">5.0</text></g></g><g class="ticklines"><g stroke-opacity="5.0e-2" fill="none" stroke="#0d0d0d" stroke-width="5.0e-3"><polyline points="-0.6592895988010805,0.3527670316229573
0.36992783476089586,0.3527670316229573"/><polyline points="-0.6592895988010805,0.2783152936802349
0.36992783476089586,0.2783152936802349"/><polyline points="-0.6592895988010805,0.20386355573751247
0.36992783476089586,0.20386355573751247"/><polyline points="-0.6592895988010805,0.12941181779479005
0.36992783476089586,0.12941181779479005"/><polyline points="-0.6592895988010805,5.4960079852067634e-2
0.36992783476089586,5.4960079852067634e-2"/><polyline points="-0.6592895988010805,-1.9491658090654784e-2
0.36992783476089586,-1.9491658090654784e-2"/><polyline points="-0.6592895988010805,-9.39433960333772e-2
0.36992783476089586,-9.39433960333772e-2"/><polyline points="-0.6592895988010805,-0.16839513397609962
0.36992783476089586,-0.16839513397609962"/><polyline points="-0.6592895988010805,-0.24284687191882204
0.36992783476089586,-0.24284687191882204"/><polyline points="-0.6592895988010805,-0.31729860986154446
0.36992783476089586,-0.31729860986154446"/><polyline points="-0.6592895988010805,-0.39175034780426676
0.36992783476089586,-0.39175034780426676"/></g></g></g><g class="axisbar"><g stroke-opacity="0.0" fill="#0d0d0d" stroke="#000000" stroke-width="0.0" fill-opacity="0.4"><rect width="2.717405765180203e-3" x="-0.668800518979211" y="-0.393206616517083" height="0.7474299168528563"/></g></g></g><g class="axis"><g class="ticks"><g class="tickglyph"><g stroke-opacity="0.4" fill="#0d0d0d" stroke="#0d0d0d" stroke-width="4.0e-3" fill-opacity="0.4"><polyline points="-0.6592895988010805,0.3896110623151986
-0.6592895988010805,0.35961106231519857"/><polyline points="-0.48775335987408436,0.3896110623151986
-0.48775335987408436,0.35961106231519857"/><polyline points="-0.3162171209470883,0.3896110623151986
-0.3162171209470883,0.35961106231519857"/><polyline points="-0.14468088202009233,0.3896110623151986
-0.14468088202009233,0.35961106231519857"/><polyline points="2.685535690690377e-2,0.3896110623151986
2.685535690690377e-2,0.35961106231519857"/><polyline points="0.19839159583389976,0.3896110623151986
0.19839159583389976,0.35961106231519857"/><polyline points="0.3699278347608961,0.3896110623151986
0.3699278347608961,0.35961106231519857"/></g></g><g class="ticktext"><g fill="#0d0d0d" stroke="none" stroke-width="0.0" font-size="3.3967572064751705e-2" fill-opacity="1.0" text-anchor="middle"><text x="-0.6592895988010805" y="0.4208475939471093">0.0</text><text x="-0.48775335987408436" y="0.4208475939471093">0.5</text><text x="-0.3162171209470883" y="0.4208475939471093">1.0</text><text x="-0.14468088202009233" y="0.4208475939471093">1.5</text><text x="2.685535690690377e-2" y="0.4208475939471093">2.0</text><text x="0.19839159583389976" y="0.4208475939471093">2.5</text><text x="0.3699278347608961" y="0.4208475939471093">3.0</text></g></g><g class="ticklines"><g stroke-opacity="5.0e-2" fill="none" stroke="#0d0d0d" stroke-width="5.0e-3"><polyline points="-0.6592895988010805,0.3527670316229573
-0.6592895988010805,-0.39175034780426676"/><polyline points="-0.48775335987408436,0.3527670316229573
-0.48775335987408436,-0.39175034780426676"/><polyline points="-0.3162171209470883,0.3527670316229573
-0.3162171209470883,-0.39175034780426676"/><polyline points="-0.14468088202009233,0.3527670316229573
-0.14468088202009233,-0.39175034780426676"/><polyline points="2.685535690690377e-2,0.3527670316229573
2.685535690690377e-2,-0.39175034780426676"/><polyline points="0.19839159583389976,0.3527670316229573
0.19839159583389976,-0.39175034780426676"/><polyline points="0.3699278347608961,0.3527670316229573
0.3699278347608961,-0.39175034780426676"/></g></g></g><g class="axisbar"><g stroke-opacity="0.0" fill="#0d0d0d" stroke="#000000" stroke-width="0.0" fill-opacity="0.4"><rect width="1.0319348393271566" x="-0.6606483016836706" y="0.3600483751870377" height="2.9125374256322445e-3"/></g></g></g><g class="title"><g fill="#0d0d0d" stroke="none" stroke-width="0.0" font-size="3.3967572064751705e-2" fill-opacity="1.0" text-anchor="end"><text x="0.3928559459046035" y="0.4900203578058735">Made with love and chart-svg</text></g></g><g class="title"><g fill="#0d0d0d" stroke="none" stroke-width="0.0" font-size="5.434811530360272e-2" fill-opacity="1.0" text-anchor="middle"><text x="-0.17856353515468215" y="-0.45746447347009267">Line Chart</text></g></g><g class="legend"><g class="legendBorder"><g stroke-opacity="1.0" fill="#0d0d0d" stroke="#0d0d0d" stroke-width="2.5e-3" fill-opacity="0.0"><rect width="0.30231139137629026" x="0.44380730400173096" y="-0.1562899003008159" height="0.19295560444813142"/></g></g><g class="legendContent"><g><g fill="#0d0d0d" stroke="none" stroke-width="0.0" font-size="3.3967572064751705e-2" fill-opacity="1.0" text-anchor="start"><text x="0.4607910900341068" y="7.5403298909937355e-3">vertical</text></g><g stroke-opacity="1.0" fill="none" stroke="#1f78b5" stroke-width="1.0e-2"><polyline points="0.6170419215319647,-1.5613495641066955e-3
0.7189446377262199,-1.5613495641066955e-3"/></g><g fill="#0d0d0d" stroke="none" stroke-width="0.0" font-size="3.3967572064751705e-2" fill-opacity="1.0" text-anchor="start"><text x="0.4607910900341068" y="-5.07104186216496e-2">line</text></g><g stroke-opacity="1.0" fill="none" stroke="#a6cfe3" stroke-width="3.0e-2"><polyline points="0.6170419215319647,-5.981209807675014e-2
0.7189446377262199,-5.981209807675014e-2"/></g><g fill="#0d0d0d" stroke="none" stroke-width="0.0" font-size="3.3967572064751705e-2" fill-opacity="1.0" text-anchor="start"><text x="0.4607910900341068" y="-0.10896116713429316">hockey</text></g><g stroke-opacity="1.0" fill="none" stroke="#b05929" stroke-width="1.5e-2"><polyline points="0.6170419215319647,-0.11806284658939359
0.7189446377262199,-0.11806284658939359"/></g></g></g></g></g><g class="glyphize"><g class="chart"><g class="line"><g stroke-opacity="1.0" fill="#a6cfe3" stroke="#1f78b5" stroke-width="3.0e-3" fill-opacity="1.0"><circle cx="-0.649099327181655" cy="0.196218144995228" r="5.0e-3"/><circle cx="-0.30942360653413803" cy="0.196218144995228" r="5.0e-3"/><circle cx="3.0252114113378914e-2" cy="-0.3862893401312065" r="5.0e-3"/></g><g stroke-opacity="1.0" fill="#a6cfe3" stroke="#1f78b5" stroke-width="3.0e-3" fill-opacity="1.0"><circle cx="-0.649099327181655" cy="0.3418450162768366" r="5.0e-3"/><circle cx="0.3019926906313928" cy="-9.50355975679893e-2" r="5.0e-3"/></g><g stroke-opacity="1.0" fill="#a6cfe3" stroke="#1f78b5" stroke-width="3.0e-3" fill-opacity="1.0"><circle cx="-0.47926146685789656" cy="-0.24066246884959797" r="5.0e-3"/><circle cx="-0.47926146685789656" cy="0.3418450162768366" r="5.0e-3"/></g></g><g><g stroke-opacity="1.0" fill="#a6cfe3" stroke="#1f78b5" stroke-width="3.0e-3" fill-opacity="1.0"><circle cx="-0.13958574621037945" cy="-2.222216192718507e-2" r="5.0e-3"/></g></g></g><g class="hud"><g class="axis"><g class="ticks"><g class="tickglyph"><g stroke-opacity="1.0" fill="#a6cfe3" stroke="#1f78b5" stroke-width="3.0e-3" fill-opacity="1.0"><circle cx="-0.6796701420399315" cy="0.3527670316229573" r="5.0e-3"/><circle cx="-0.6796701420399315" cy="0.2783152936802349" r="5.0e-3"/><circle cx="-0.6796701420399315" cy="0.20386355573751247" r="5.0e-3"/><circle cx="-0.6796701420399315" cy="0.12941181779479005" r="5.0e-3"/><circle cx="-0.6796701420399315" cy="5.4960079852067634e-2" r="5.0e-3"/><circle cx="-0.6796701420399315" cy="-1.9491658090654784e-2" r="5.0e-3"/><circle cx="-0.6796701420399315" cy="-9.39433960333772e-2" r="5.0e-3"/><circle cx="-0.6796701420399315" cy="-0.16839513397609962" r="5.0e-3"/><circle cx="-0.6796701420399315" cy="-0.24284687191882204" r="5.0e-3"/><circle cx="-0.6796701420399315" cy="-0.31729860986154446" r="5.0e-3"/><circle cx="-0.6796701420399315" cy="-0.39175034780426676" r="5.0e-3"/></g></g><g class="ticktext"><g stroke-opacity="1.0" fill="#a6cfe3" stroke="#1f78b5" stroke-width="3.0e-3" fill-opacity="1.0"><circle cx="-0.7041267939265528" cy="0.3627788790235679" r="5.0e-3"/><circle cx="-0.7041267939265528" cy="0.2883271410808454" r="5.0e-3"/><circle cx="-0.7041267939265528" cy="0.21387540313812303" r="5.0e-3"/><circle cx="-0.7041267939265528" cy="0.13942366519540061" r="5.0e-3"/><circle cx="-0.7041267939265528" cy="6.497192725267825e-2" r="5.0e-3"/><circle cx="-0.7041267939265528" cy="-9.479810690044221e-3" r="5.0e-3"/><circle cx="-0.7041267939265528" cy="-8.393154863276664e-2" r="5.0e-3"/><circle cx="-0.7041267939265528" cy="-0.15838328657548906" r="5.0e-3"/><circle cx="-0.7041267939265528" cy="-0.2328350245182116" r="5.0e-3"/><circle cx="-0.7041267939265528" cy="-0.3072867624609339" r="5.0e-3"/><circle cx="-0.7041267939265528" cy="-0.3817385004036563" r="5.0e-3"/></g></g><g class="ticklines"><g stroke-opacity="1.0" fill="#a6cfe3" stroke="#1f78b5" stroke-width="3.0e-3" fill-opacity="1.0"><circle cx="-0.6592895988010805" cy="0.3527670316229573" r="5.0e-3"/><circle cx="0.36992783476089586" cy="0.3527670316229573" r="5.0e-3"/><circle cx="-0.6592895988010805" cy="0.2783152936802349" r="5.0e-3"/><circle cx="0.36992783476089586" cy="0.2783152936802349" r="5.0e-3"/><circle cx="-0.6592895988010805" cy="0.20386355573751247" r="5.0e-3"/><circle cx="0.36992783476089586" cy="0.20386355573751247" r="5.0e-3"/><circle cx="-0.6592895988010805" cy="0.12941181779479005" r="5.0e-3"/><circle cx="0.36992783476089586" cy="0.12941181779479005" r="5.0e-3"/><circle cx="-0.6592895988010805" cy="5.4960079852067634e-2" r="5.0e-3"/><circle cx="0.36992783476089586" cy="5.4960079852067634e-2" r="5.0e-3"/><circle cx="-0.6592895988010805" cy="-1.9491658090654784e-2" r="5.0e-3"/><circle cx="0.36992783476089586" cy="-1.9491658090654784e-2" r="5.0e-3"/><circle cx="-0.6592895988010805" cy="-9.39433960333772e-2" r="5.0e-3"/><circle cx="0.36992783476089586" cy="-9.39433960333772e-2" r="5.0e-3"/><circle cx="-0.6592895988010805" cy="-0.16839513397609962" r="5.0e-3"/><circle cx="0.36992783476089586" cy="-0.16839513397609962" r="5.0e-3"/><circle cx="-0.6592895988010805" cy="-0.24284687191882204" r="5.0e-3"/><circle cx="0.36992783476089586" cy="-0.24284687191882204" r="5.0e-3"/><circle cx="-0.6592895988010805" cy="-0.31729860986154446" r="5.0e-3"/><circle cx="0.36992783476089586" cy="-0.31729860986154446" r="5.0e-3"/><circle cx="-0.6592895988010805" cy="-0.39175034780426676" r="5.0e-3"/><circle cx="0.36992783476089586" cy="-0.39175034780426676" r="5.0e-3"/></g></g></g><g class="axisbar"><g stroke-opacity="1.0" fill="#a6cfe3" stroke="#1f78b5" stroke-width="3.0e-3" fill-opacity="1.0"><circle cx="-0.6674418160966209" cy="-1.9491658090654784e-2" r="5.0e-3"/></g></g></g><g class="axis"><g class="ticks"><g class="tickglyph"><g stroke-opacity="1.0" fill="#a6cfe3" stroke="#1f78b5" stroke-width="3.0e-3" fill-opacity="1.0"><circle cx="-0.6592895988010805" cy="0.3746110623151986" r="5.0e-3"/><circle cx="-0.48775335987408436" cy="0.3746110623151986" r="5.0e-3"/><circle cx="-0.3162171209470883" cy="0.3746110623151986" r="5.0e-3"/><circle cx="-0.14468088202009233" cy="0.3746110623151986" r="5.0e-3"/><circle cx="2.685535690690377e-2" cy="0.3746110623151986" r="5.0e-3"/><circle cx="0.19839159583389976" cy="0.3746110623151986" r="5.0e-3"/><circle cx="0.3699278347608961" cy="0.3746110623151986" r="5.0e-3"/></g></g><g class="ticktext"><g stroke-opacity="1.0" fill="#a6cfe3" stroke="#1f78b5" stroke-width="3.0e-3" fill-opacity="1.0"><circle cx="-0.6592895988010805" cy="0.4208475939471093" r="5.0e-3"/><circle cx="-0.48775335987408436" cy="0.4208475939471093" r="5.0e-3"/><circle cx="-0.3162171209470883" cy="0.4208475939471093" r="5.0e-3"/><circle cx="-0.14468088202009233" cy="0.4208475939471093" r="5.0e-3"/><circle cx="2.685535690690377e-2" cy="0.4208475939471093" r="5.0e-3"/><circle cx="0.19839159583389976" cy="0.4208475939471093" r="5.0e-3"/><circle cx="0.3699278347608961" cy="0.4208475939471093" r="5.0e-3"/></g></g><g class="ticklines"><g stroke-opacity="1.0" fill="#a6cfe3" stroke="#1f78b5" stroke-width="3.0e-3" fill-opacity="1.0"><circle cx="-0.6592895988010805" cy="0.3527670316229573" r="5.0e-3"/><circle cx="-0.6592895988010805" cy="-0.39175034780426676" r="5.0e-3"/><circle cx="-0.48775335987408436" cy="0.3527670316229573" r="5.0e-3"/><circle cx="-0.48775335987408436" cy="-0.39175034780426676" r="5.0e-3"/><circle cx="-0.3162171209470883" cy="0.3527670316229573" r="5.0e-3"/><circle cx="-0.3162171209470883" cy="-0.39175034780426676" r="5.0e-3"/><circle cx="-0.14468088202009233" cy="0.3527670316229573" r="5.0e-3"/><circle cx="-0.14468088202009233" cy="-0.39175034780426676" r="5.0e-3"/><circle cx="2.685535690690377e-2" cy="0.3527670316229573" r="5.0e-3"/><circle cx="2.685535690690377e-2" cy="-0.39175034780426676" r="5.0e-3"/><circle cx="0.19839159583389976" cy="0.3527670316229573" r="5.0e-3"/><circle cx="0.19839159583389976" cy="-0.39175034780426676" r="5.0e-3"/><circle cx="0.3699278347608961" cy="0.3527670316229573" r="5.0e-3"/><circle cx="0.3699278347608961" cy="-0.39175034780426676" r="5.0e-3"/></g></g></g><g class="axisbar"><g stroke-opacity="1.0" fill="#a6cfe3" stroke="#1f78b5" stroke-width="3.0e-3" fill-opacity="1.0"><circle cx="-0.14468088202009233" cy="0.3615046438998538" r="5.0e-3"/></g></g></g><g class="title"><g stroke-opacity="1.0" fill="#a6cfe3" stroke="#1f78b5" stroke-width="3.0e-3" fill-opacity="1.0"><circle cx="0.3928559459046035" cy="0.4900203578058735" r="5.0e-3"/></g></g><g class="title"><g stroke-opacity="1.0" fill="#a6cfe3" stroke="#1f78b5" stroke-width="3.0e-3" fill-opacity="1.0"><circle cx="-0.17856353515468215" cy="-0.45746447347009267" r="5.0e-3"/></g></g><g class="legend"><g class="legendBorder"><g stroke-opacity="1.0" fill="#a6cfe3" stroke="#1f78b5" stroke-width="3.0e-3" fill-opacity="1.0"><circle cx="0.5949629996898762" cy="-5.981209807675014e-2" r="5.0e-3"/></g><g stroke-opacity="1.0" fill="#a6cfe3" stroke="#1f78b5" stroke-width="3.0e-3" fill-opacity="1.0"><circle cx="0.5949629996898762" cy="-5.981209807675014e-2" r="5.0e-3"/></g><g stroke-opacity="1.0" fill="#a6cfe3" stroke="#1f78b5" stroke-width="3.0e-3" fill-opacity="1.0"><circle cx="0.5949629996898762" cy="-5.981209807675014e-2" r="5.0e-3"/></g></g><g class="legendContent"><g><g stroke-opacity="1.0" fill="#a6cfe3" stroke="#1f78b5" stroke-width="3.0e-3" fill-opacity="1.0"><circle cx="0.4607910900341068" cy="7.5403298909937355e-3" r="5.0e-3"/></g><g stroke-opacity="1.0" fill="#a6cfe3" stroke="#1f78b5" stroke-width="3.0e-3" fill-opacity="1.0"><circle cx="0.6170419215319647" cy="-1.5613495641066955e-3" r="5.0e-3"/><circle cx="0.7189446377262199" cy="-1.5613495641066955e-3" r="5.0e-3"/></g><g stroke-opacity="1.0" fill="#a6cfe3" stroke="#1f78b5" stroke-width="3.0e-3" fill-opacity="1.0"><circle cx="0.4607910900341068" cy="-5.07104186216496e-2" r="5.0e-3"/></g><g stroke-opacity="1.0" fill="#a6cfe3" stroke="#1f78b5" stroke-width="3.0e-3" fill-opacity="1.0"><circle cx="0.6170419215319647" cy="-5.981209807675014e-2" r="5.0e-3"/><circle cx="0.7189446377262199" cy="-5.981209807675014e-2" r="5.0e-3"/></g><g stroke-opacity="1.0" fill="#a6cfe3" stroke="#1f78b5" stroke-width="3.0e-3" fill-opacity="1.0"><circle cx="0.4607910900341068" cy="-0.10896116713429316" r="5.0e-3"/></g><g stroke-opacity="1.0" fill="#a6cfe3" stroke="#1f78b5" stroke-width="3.0e-3" fill-opacity="1.0"><circle cx="0.6170419215319647" cy="-0.11806284658939359" r="5.0e-3"/><circle cx="0.7189446377262199" cy="-0.11806284658939359" r="5.0e-3"/></g></g></g></g></g></g><g class="rectangularize"><g class="chart"><g class="line"><g stroke-opacity="1.0" fill="#1f78b5" stroke="#0d0d0d" stroke-width="1.0e-3" fill-opacity="0.2"><rect width="0.6895417129144594" x="-0.6541944629913676" y="-0.39175034780426676" height="0.593429500472555"/></g><g stroke-opacity="1.0" fill="#1f78b5" stroke="#0d0d0d" stroke-width="1.0e-3" fill-opacity="0.2"><rect width="0.9714725610518986" x="-0.6592895988010805" y="-0.1059576129141101" height="0.4587246445370674"/></g><g stroke-opacity="1.0" fill="#1f78b5" stroke="#0d0d0d" stroke-width="1.0e-3" fill-opacity="0.2"><rect width="6.79351441295023e-3" x="-0.4826582240643716" y="-0.24430314063163827" height="0.5897888286905151"/></g></g><g><g stroke-opacity="1.0" fill="#1f78b5" stroke="#0d0d0d" stroke-width="1.0e-3" fill-opacity="0.2"><rect width="1.0190271619425508" x="-0.649099327181655" y="-0.3862893401312065" height="0.7281343564080431"/></g></g></g><g class="hud"><g class="axis"><g class="ticks"><g class="tickglyph"><g stroke-opacity="1.0" fill="#1f78b5" stroke="#0d0d0d" stroke-width="1.0e-3" fill-opacity="0.2"><rect width="2.309794900403117e-2" x="-0.6912191165419471" y="-0.394662885229899" height="0.7503424542784884"/></g></g><g class="ticktext"><g fill="#0d0d0d" stroke="none" stroke-width="0.0" font-size="3.3967572064751705e-2" fill-opacity="1.0" text-anchor="end"><text x="-0.7041267939265528" y="0.3627788790235679">0.0</text><g stroke-opacity="1.0" fill="#1f78b5" stroke="#0d0d0d" stroke-width="3.3967572064751705e-5" fill-opacity="0.2"><rect width="4.589018985947946e-2" x="-0.7499999999999999" y="0.3355878375857342" height="3.73982968432916e-2"/></g><text x="-0.7041267939265528" y="0.2883271410808454">0.5</text><g stroke-opacity="1.0" fill="#1f78b5" stroke="#0d0d0d" stroke-width="3.3967572064751705e-5" fill-opacity="0.2"><rect width="4.589018985947946e-2" x="-0.7499999999999999" y="0.26113609964301165" height="3.73982968432916e-2"/></g><text x="-0.7041267939265528" y="0.21387540313812303">1.0</text><g stroke-opacity="1.0" fill="#1f78b5" stroke="#0d0d0d" stroke-width="3.3967572064751705e-5" fill-opacity="0.2"><rect width="4.589018985947946e-2" x="-0.7499999999999999" y="0.1866843617002893" height="3.739829684329163e-2"/></g><text x="-0.7041267939265528" y="0.13942366519540061">1.5</text><g stroke-opacity="1.0" fill="#1f78b5" stroke="#0d0d0d" stroke-width="3.3967572064751705e-5" fill-opacity="0.2"><rect width="4.589018985947946e-2" x="-0.7499999999999999" y="0.11223262375756687" height="3.739829684329163e-2"/></g><text x="-0.7041267939265528" y="6.497192725267825e-2">2.0</text><g stroke-opacity="1.0" fill="#1f78b5" stroke="#0d0d0d" stroke-width="3.3967572064751705e-5" fill-opacity="0.2"><rect width="4.589018985947946e-2" x="-0.7499999999999999" y="3.778088581484451e-2" height="3.739829684329163e-2"/></g><text x="-0.7041267939265528" y="-9.479810690044221e-3">2.5</text><g stroke-opacity="1.0" fill="#1f78b5" stroke="#0d0d0d" stroke-width="3.3967572064751705e-5" fill-opacity="0.2"><rect width="4.589018985947946e-2" x="-0.7499999999999999" y="-3.667085212787796e-2" height="3.739829684329163e-2"/></g><text x="-0.7041267939265528" y="-8.393154863276664e-2">3.0</text><g stroke-opacity="1.0" fill="#1f78b5" stroke="#0d0d0d" stroke-width="3.3967572064751705e-5" fill-opacity="0.2"><rect width="4.589018985947946e-2" x="-0.7499999999999999" y="-0.11112259007060038" height="3.739829684329163e-2"/></g><text x="-0.7041267939265528" y="-0.15838328657548906">3.5</text><g stroke-opacity="1.0" fill="#1f78b5" stroke="#0d0d0d" stroke-width="3.3967572064751705e-5" fill-opacity="0.2"><rect width="4.589018985947946e-2" x="-0.7499999999999999" y="-0.1855743280133228" height="3.739829684329163e-2"/></g><text x="-0.7041267939265528" y="-0.2328350245182116">4.0</text><g stroke-opacity="1.0" fill="#1f78b5" stroke="#0d0d0d" stroke-width="3.3967572064751705e-5" fill-opacity="0.2"><rect width="4.589018985947946e-2" x="-0.7499999999999999" y="-0.2600260659560453" height="3.739829684329163e-2"/></g><text x="-0.7041267939265528" y="-0.3072867624609339">4.5</text><g stroke-opacity="1.0" fill="#1f78b5" stroke="#0d0d0d" stroke-width="3.3967572064751705e-5" fill-opacity="0.2"><rect width="4.589018985947946e-2" x="-0.7499999999999999" y="-0.33447780389876763" height="3.7398296843291656e-2"/></g><text x="-0.7041267939265528" y="-0.3817385004036563">5.0</text><g stroke-opacity="1.0" fill="#1f78b5" stroke="#0d0d0d" stroke-width="3.3967572064751705e-5" fill-opacity="0.2"><rect width="4.589018985947946e-2" x="-0.7499999999999999" y="-0.40892954184149005" height="3.7398296843291656e-2"/></g></g></g><g class="ticklines"><g stroke-opacity="1.0" fill="#1f78b5" stroke="#0d0d0d" stroke-width="1.0e-3" fill-opacity="0.2"><rect width="1.0326141907684514" x="-0.660987977404318" y="-0.3935706836952869" height="0.7481580512092643"/></g></g></g><g class="axisbar"><g stroke-opacity="1.0" fill="#1f78b5" stroke="#0d0d0d" stroke-width="1.0e-3" fill-opacity="0.2"><rect width="2.717405765180203e-3" x="-0.668800518979211" y="-0.393206616517083" height="0.7474299168528563"/></g></g></g><g class="axis"><g class="ticks"><g class="tickglyph"><g stroke-opacity="1.0" fill="#1f78b5" stroke="#0d0d0d" stroke-width="1.0e-3" fill-opacity="0.2"><rect width="1.034652245092337" x="-0.6620070045662607" y="0.3622327782562618" height="2.4756568117873523e-2"/></g></g><g class="ticktext"><g fill="#0d0d0d" stroke="none" stroke-width="0.0" font-size="3.3967572064751705e-2" fill-opacity="1.0" text-anchor="middle"><text x="-0.6592895988010805" y="0.4208475939471093">0.0</text><g stroke-opacity="1.0" fill="#1f78b5" stroke="#0d0d0d" stroke-width="3.3967572064751705e-5" fill-opacity="0.2"><rect width="4.589018985947946e-2" x="-0.6822346937308202" y="0.39365655250927556" height="3.73982968432916e-2"/></g><text x="-0.48775335987408436" y="0.4208475939471093">0.5</text><g stroke-opacity="1.0" fill="#1f78b5" stroke="#0d0d0d" stroke-width="3.3967572064751705e-5" fill-opacity="0.2"><rect width="4.589018985947946e-2" x="-0.510698454803824" y="0.39365655250927556" height="3.73982968432916e-2"/></g><text x="-0.3162171209470883" y="0.4208475939471093">1.0</text><g stroke-opacity="1.0" fill="#1f78b5" stroke="#0d0d0d" stroke-width="3.3967572064751705e-5" fill-opacity="0.2"><rect width="4.589018985947957e-2" x="-0.3391622158768281" y="0.39365655250927556" height="3.73982968432916e-2"/></g><text x="-0.14468088202009233" y="0.4208475939471093">1.5</text><g stroke-opacity="1.0" fill="#1f78b5" stroke="#0d0d0d" stroke-width="3.3967572064751705e-5" fill-opacity="0.2"><rect width="4.589018985947957e-2" x="-0.1676259769498321" y="0.39365655250927556" height="3.73982968432916e-2"/></g><text x="2.685535690690377e-2" y="0.4208475939471093">2.0</text><g stroke-opacity="1.0" fill="#1f78b5" stroke="#0d0d0d" stroke-width="3.3967572064751705e-5" fill-opacity="0.2"><rect width="4.5890189859479555e-2" x="3.910261977163994e-3" y="0.39365655250927556" height="3.73982968432916e-2"/></g><text x="0.19839159583389976" y="0.4208475939471093">2.5</text><g stroke-opacity="1.0" fill="#1f78b5" stroke="#0d0d0d" stroke-width="3.3967572064751705e-5" fill-opacity="0.2"><rect width="4.589018985947957e-2" x="0.17544650090415997" y="0.39365655250927556" height="3.73982968432916e-2"/></g><text x="0.3699278347608961" y="0.4208475939471093">3.0</text><g stroke-opacity="1.0" fill="#1f78b5" stroke="#0d0d0d" stroke-width="3.3967572064751705e-5" fill-opacity="0.2"><rect width="4.589018985947957e-2" x="0.3469827398311563" y="0.39365655250927556" height="3.73982968432916e-2"/></g></g></g><g class="ticklines"><g stroke-opacity="1.0" fill="#1f78b5" stroke="#0d0d0d" stroke-width="1.0e-3" fill-opacity="0.2"><rect width="1.0326141907684518" x="-0.660987977404318" y="-0.3935706836952869" height="0.7481580512092643"/></g></g></g><g class="axisbar"><g stroke-opacity="1.0" fill="#1f78b5" stroke="#0d0d0d" stroke-width="1.0e-3" fill-opacity="0.2"><rect width="1.0319348393271566" x="-0.6606483016836706" y="0.3600483751870377" height="2.9125374256322445e-3"/></g></g></g><g class="title"><g fill="#0d0d0d" stroke="none" stroke-width="0.0" font-size="3.3967572064751705e-2" fill-opacity="1.0" text-anchor="end"><text x="0.3928559459046035" y="0.4900203578058735">Made with love and chart-svg</text><g stroke-opacity="1.0" fill="#1f78b5" stroke="#0d0d0d" stroke-width="3.3967572064751705e-5" fill-opacity="0.2"><rect width="0.42802537558793624" x="-3.515244589730038e-2" y="0.46282931636803976" height="3.73982968432916e-2"/></g></g></g><g class="title"><g fill="#0d0d0d" stroke="none" stroke-width="0.0" font-size="5.434811530360272e-2" fill-opacity="1.0" text-anchor="middle"><text x="-0.17856353515468215" y="-0.45746447347009267">Line Chart</text><g stroke-opacity="1.0" fill="#1f78b5" stroke="#0d0d0d" stroke-width="5.434811530360272e-5" fill-opacity="0.2"><rect width="0.24462086698151586" x="-0.3008739686454401" y="-0.5009701397706267" height="5.9837274949266606e-2"/></g></g></g><g class="legend"><g class="legendBorder"><g stroke-opacity="1.0" fill="#1f78b5" stroke="#0d0d0d" stroke-width="1.0e-3" fill-opacity="0.2"><rect width="0.3091049057892403" x="0.44041054679525593" y="-0.1599305720828561" height="0.20023694801221187"/></g><g stroke-opacity="1.0" fill="#1f78b5" stroke="#0d0d0d" stroke-width="1.0e-3" fill-opacity="0.2"><rect width="0.30231139137629026" x="0.44380730400173096" y="-0.1562899003008159" height="0.19295560444813142"/></g><g stroke-opacity="1.0" fill="#1f78b5" stroke="#0d0d0d" stroke-width="1.0e-3" fill-opacity="0.2"><rect width="0.30400976997952767" x="0.44295811470011226" y="-0.15720006824632593" height="0.19477594033915152"/></g></g><g class="legendContent"><g><g fill="#0d0d0d" stroke="none" stroke-width="0.0" font-size="3.3967572064751705e-2" fill-opacity="1.0" text-anchor="start"><text x="0.4607910900341068" y="7.5403298909937355e-3">vertical</text><g stroke-opacity="1.0" fill="#1f78b5" stroke="#0d0d0d" stroke-width="3.3967572064751705e-5" fill-opacity="0.2"><rect width="0.12231722700517084" x="0.4607741062480744" y="-1.9650711546840005e-2" height="3.739829684329163e-2"/></g></g><g stroke-opacity="1.0" fill="#1f78b5" stroke="#0d0d0d" stroke-width="1.0e-3" fill-opacity="0.2"><rect width="0.10869623060720501" x="0.6136451643254899" y="-5.20202134614689e-3" height="7.281343564080445e-3"/></g><g fill="#0d0d0d" stroke="none" stroke-width="0.0" font-size="3.3967572064751705e-2" fill-opacity="1.0" text-anchor="start"><text x="0.4607910900341068" y="-5.07104186216496e-2">line</text><g stroke-opacity="1.0" fill="#1f78b5" stroke="#0d0d0d" stroke-width="3.3967572064751705e-5" fill-opacity="0.2"><rect width="6.117559728861771e-2" x="0.4607741062480744" y="-7.790146005948334e-2" height="3.739829684329163e-2"/></g></g><g stroke-opacity="1.0" fill="#1f78b5" stroke="#0d0d0d" stroke-width="1.0e-3" fill-opacity="0.2"><rect width="0.1222832594331058" x="0.6068516499125391" y="-7.073411342287073e-2" height="2.1844030692241057e-2"/></g><g fill="#0d0d0d" stroke="none" stroke-width="0.0" font-size="3.3967572064751705e-2" fill-opacity="1.0" text-anchor="start"><text x="0.4607910900341068" y="-0.10896116713429316">hockey</text><g stroke-opacity="1.0" fill="#1f78b5" stroke="#0d0d0d" stroke-width="3.3967572064751705e-5" fill-opacity="0.2"><rect width="9.174641214689433e-2" x="0.4607741062480744" y="-0.1361522085721269" height="3.739829684329163e-2"/></g></g><g stroke-opacity="1.0" fill="#1f78b5" stroke="#0d0d0d" stroke-width="1.0e-3" fill-opacity="0.2"><rect width="0.11209298781368071" x="0.6119467857222518" y="-0.12352385426245405" height="1.0922015346120806e-2"/></g></g></g></g></g></g></g></g><g class="hud"></g></svg>