<svg xmlns="http://www.w3.org/2000/svg" xmlns:xlink="http://www.w3.org/1999/xlink" width="449" height="300" viewBox="-0.7500 -0.5000 1.5000 1.0000"><style>svg {
  color-scheme: light dark;
}
{
  .canvas g, .title g, .axisbar g, .ticktext g, .tickglyph g, .ticklines g, .legendContent g text {
    fill: rgb(5%, 5%, 5%);
  }
  .ticklines g, .tickglyph g, .legendBorder g {
    stroke: rgb(5%, 5%, 5%);
  }
  .legendBorder g {
    fill: rgb(94%, 94%, 94%);
  }
}
@media (prefers-color-scheme:dark) {
  .canvas g, .title g, .axisbar g, .ticktext g, .tickglyph g, .ticklines g, .legendContent g text {
    fill: rgb(94%, 94%, 94%);
  }
  .ticklines g, .tickglyph g, .legendBorder g {
    stroke: rgb(94%, 94%, 94%);
  }
  .legendBorder g {
    fill: rgb(5%, 5%, 5%);
  }
}
svg { font-family: system-ui,-apple-system,"Segoe UI",Roboto,"Helvetica Neue",Arial,"Noto Sans","Liberation Sans",sans-serif,"Apple Color Emoji","Segoe UI Emoji","Segoe UI Symbol","Noto Color Emoji";
}

ticktext { font-family: SFMono-Regular,Menlo,Monaco,Consolas,"Liberation Mono","Courier New",monospace;
}

</style><g class="chart"><g class="chart"><g class="line"><g stroke-width="0.0114" stroke="rgb(2%, 73%, 80%)" stroke-opacity="1.0" fill="none"><polyline points="-0.6393,0.1847 -0.2101,0.1847 0.2191,-0.3469"/></g><g stroke-width="0.0114" stroke="rgb(2%, 29%, 48%)" stroke-opacity="1.0" fill="none"><polyline points="-0.6393,0.3176 0.5625,-0.0811"/></g><g stroke-width="0.0114" stroke="rgb(66%, 7%, 55%)" stroke-opacity="1.0" fill="none"><polyline points="-0.4247,-0.2140 -0.4247,0.3176"/></g></g><g class="datapadding"></g></g><g class="hud"><g class="frame"><g stroke-width="0" stroke="rgb(0%, 0%, 0%)" stroke-opacity="0" fill="rgb(100%, 100%, 100%)" fill-opacity="0.02"><rect width="1.2942" height="0.6744" x="-0.6458" y="-0.3519"/></g></g><g class="axis"><g class="axisbar"><g stroke-width="0" stroke="rgb(0%, 0%, 0%)" stroke-opacity="0" fill="rgb(5%, 5%, 5%)" fill-opacity="0.4"><rect width="0.0034" height="0.6671" x="-0.6514" y="-0.3482"/></g></g><g class="ticks"><g class="ticklines"><g stroke-width="0.0038" stroke="rgb(5%, 5%, 5%)" stroke-opacity="0.05" fill="none"><polyline points="-0.6393,0.3176 0.6484,0.3176"/><polyline points="-0.6393,0.1847 0.6484,0.1847"/><polyline points="-0.6393,0.0518 0.6484,0.0518"/><polyline points="-0.6393,-0.0811 0.6484,-0.0811"/><polyline points="-0.6393,-0.2140 0.6484,-0.2140"/><polyline points="-0.6393,-0.3469 0.6484,-0.3469"/></g></g><g class="tickglyph"><g stroke-width="0.0030" stroke="rgb(5%, 5%, 5%)" stroke-opacity="0.4" fill="rgb(5%, 5%, 5%)" fill-opacity="0.4"><polyline points="-0.6739,0.3176
-0.6512,0.3176"/><polyline points="-0.6739,0.1847
-0.6512,0.1847"/><polyline points="-0.6739,0.0518
-0.6512,0.0518"/><polyline points="-0.6739,-0.0811
-0.6512,-0.0811"/><polyline points="-0.6739,-0.2140
-0.6512,-0.2140"/><polyline points="-0.6739,-0.3469
-0.6512,-0.3469"/></g></g><g class="ticktext"><g stroke-width="0.0" stroke="none" fill="rgb(5%, 5%, 5%)" fill-opacity="1.0" font-size="0.0303" text-anchor="end"><text x="-0.6944" y="0.3249">0</text><text x="-0.6944" y="0.1920">1</text><text x="-0.6944" y="0.0591">2</text><text x="-0.6944" y="-0.0738">3</text><text x="-0.6944" y="-0.2067">4</text><text x="-0.6944" y="-0.3396">5</text></g></g></g></g><g class="axis"><g class="axisbar"><g stroke-width="0" stroke="rgb(0%, 0%, 0%)" stroke-opacity="0" fill="rgb(5%, 5%, 5%)" fill-opacity="0.4"><rect width="1.2912" height="0.0027" x="-0.6411" y="0.3242"/></g></g><g class="ticks"><g class="ticklines"><g stroke-width="0.0038" stroke="rgb(5%, 5%, 5%)" stroke-opacity="0.05" fill="none"><polyline points="-0.6393,0.3176 -0.6393,-0.3469"/><polyline points="-0.4247,0.3176 -0.4247,-0.3469"/><polyline points="-0.2101,0.3176 -0.2101,-0.3469"/><polyline points="0.0045,0.3176 0.0045,-0.3469"/><polyline points="0.2191,0.3176 0.2191,-0.3469"/><polyline points="0.4338,0.3176 0.4338,-0.3469"/><polyline points="0.6484,0.3176 0.6484,-0.3469"/></g></g><g class="tickglyph"><g stroke-width="0.0030" stroke="rgb(5%, 5%, 5%)" stroke-opacity="0.4" fill="rgb(5%, 5%, 5%)" fill-opacity="0.4"><polyline points="-0.6393,0.3469
-0.6393,0.3242"/><polyline points="-0.4247,0.3469
-0.4247,0.3242"/><polyline points="-0.2101,0.3469
-0.2101,0.3242"/><polyline points="0.0045,0.3469
0.0045,0.3242"/><polyline points="0.2191,0.3469
0.2191,0.3242"/><polyline points="0.4338,0.3469
0.4338,0.3242"/><polyline points="0.6484,0.3469
0.6484,0.3242"/></g></g><g class="ticktext"><g stroke-width="0.0" stroke="none" fill="rgb(5%, 5%, 5%)" fill-opacity="1.0" font-size="0.0303" text-anchor="middle"><text x="-0.6393" y="0.3822">0.0</text><text x="-0.4247" y="0.3822">0.5</text><text x="-0.2101" y="0.3822">1.0</text><text x="0.0045" y="0.3822">1.5</text><text x="0.2191" y="0.3822">2.0</text><text x="0.4338" y="0.3822">2.5</text><text x="0.6484" y="0.3822">3.0</text></g></g></g></g><g class="title"><g stroke-width="0.0" stroke="none" fill="rgb(5%, 5%, 5%)" fill-opacity="1.0" font-size="0.0606" text-anchor="middle"><text x="-0.0179" y="-0.4302">Line Chart</text></g></g><g class="legend"><g class="padding"></g><g class="padding"></g><g class="frame"><g stroke-width="0.0009" stroke="rgb(5%, 5%, 5%)" stroke-opacity="1.0" fill="rgb(5%, 5%, 5%)" fill-opacity="0"><rect width="0.4282" height="0.1946" x="0.2826" y="0.0620"/></g></g><g class="legendContent"><g stroke-width="0.0" stroke="none" fill="rgb(5%, 5%, 5%)" fill-opacity="1.0" font-size="0.0303" text-anchor="start"><text x="0.3041" y="0.2186">palette #2</text></g><g stroke-width="0.0114" stroke="rgb(66%, 7%, 55%)" stroke-opacity="1.0" fill="none"><polyline points="0.5537,0.2186 0.6828,0.2186"/></g><g stroke-width="0.0" stroke="none" fill="rgb(5%, 5%, 5%)" fill-opacity="1.0" font-size="0.0303" text-anchor="start"><text x="0.3041" y="0.1593">palette #1</text></g><g stroke-width="0.0114" stroke="rgb(2%, 29%, 48%)" stroke-opacity="1.0" fill="none"><polyline points="0.5537,0.1593 0.6828,0.1593"/></g><g stroke-width="0.0" stroke="none" fill="rgb(5%, 5%, 5%)" fill-opacity="1.0" font-size="0.0303" text-anchor="start"><text x="0.3041" y="0.1000">palette #0</text></g><g stroke-width="0.0114" stroke="rgb(2%, 73%, 80%)" stroke-opacity="1.0" fill="none"><polyline points="0.5537,0.1000 0.6828,0.1000"/></g></g></g><g class="title"><g stroke-width="0.0" stroke="none" fill="rgb(5%, 5%, 5%)" fill-opacity="1.0" font-size="0.0303" text-anchor="end"><text x="0.7151" y="0.4515">Made with 🧡 and chart-svg</text></g></g><g class="frame"><g stroke-width="0" stroke="rgb(0%, 0%, 0%)" stroke-opacity="0" fill="rgb(0%, 0%, 0%)" fill-opacity="0"><rect width="1.4990" height="0.9990" x="-0.7495" y="-0.4995"/></g></g></g><g class="glyphize"><g class="chart"><g class="line"><g stroke-width="0.0030" stroke="rgb(2%, 29%, 48%)" stroke-opacity="1.0" fill="rgb(2%, 73%, 80%)" fill-opacity="0.2"><circle cx="-0.6393" cy="0.1847" r="0.0050"/><circle cx="-0.2101" cy="0.1847" r="0.0050"/><circle cx="0.2191" cy="-0.3469" r="0.0050"/></g><g stroke-width="0.0030" stroke="rgb(2%, 29%, 48%)" stroke-opacity="1.0" fill="rgb(2%, 73%, 80%)" fill-opacity="0.2"><circle cx="-0.6393" cy="0.3176" r="0.0050"/><circle cx="0.5625" cy="-0.0811" r="0.0050"/></g><g stroke-width="0.0030" stroke="rgb(2%, 29%, 48%)" stroke-opacity="1.0" fill="rgb(2%, 73%, 80%)" fill-opacity="0.2"><circle cx="-0.4247" cy="-0.2140" r="0.0050"/><circle cx="-0.4247" cy="0.3176" r="0.0050"/></g></g><g class="datapadding"><g stroke-width="0.0030" stroke="rgb(2%, 29%, 48%)" stroke-opacity="1.0" fill="rgb(2%, 73%, 80%)" fill-opacity="0.2"><circle cx="0.0045" cy="-0.0147" r="0.0050"/></g></g></g><g class="hud"><g class="frame"><g stroke-width="0.0030" stroke="rgb(2%, 29%, 48%)" stroke-opacity="1.0" fill="rgb(2%, 73%, 80%)" fill-opacity="0.2"><circle cx="0.0013" cy="-0.0147" r="0.0050"/></g></g><g class="axis"><g class="axisbar"><g stroke-width="0.0030" stroke="rgb(2%, 29%, 48%)" stroke-opacity="1.0" fill="rgb(2%, 73%, 80%)" fill-opacity="0.2"><circle cx="-0.6497" cy="-0.0147" r="0.0050"/></g></g><g class="ticks"><g class="ticklines"><g stroke-width="0.0030" stroke="rgb(2%, 29%, 48%)" stroke-opacity="1.0" fill="rgb(2%, 73%, 80%)" fill-opacity="0.2"><circle cx="-0.6393" cy="0.3176" r="0.0050"/><circle cx="0.6484" cy="0.3176" r="0.0050"/><circle cx="-0.6393" cy="0.1847" r="0.0050"/><circle cx="0.6484" cy="0.1847" r="0.0050"/><circle cx="-0.6393" cy="0.0518" r="0.0050"/><circle cx="0.6484" cy="0.0518" r="0.0050"/><circle cx="-0.6393" cy="-0.0811" r="0.0050"/><circle cx="0.6484" cy="-0.0811" r="0.0050"/><circle cx="-0.6393" cy="-0.2140" r="0.0050"/><circle cx="0.6484" cy="-0.2140" r="0.0050"/><circle cx="-0.6393" cy="-0.3469" r="0.0050"/><circle cx="0.6484" cy="-0.3469" r="0.0050"/></g></g><g class="tickglyph"><g stroke-width="0.0030" stroke="rgb(2%, 29%, 48%)" stroke-opacity="1.0" fill="rgb(2%, 73%, 80%)" fill-opacity="0.2"><circle cx="-0.6626" cy="0.3176" r="0.0050"/><circle cx="-0.6626" cy="0.1847" r="0.0050"/><circle cx="-0.6626" cy="0.0518" r="0.0050"/><circle cx="-0.6626" cy="-0.0811" r="0.0050"/><circle cx="-0.6626" cy="-0.2140" r="0.0050"/><circle cx="-0.6626" cy="-0.3469" r="0.0050"/></g></g><g class="ticktext"><g stroke-width="0.0030" stroke="rgb(2%, 29%, 48%)" stroke-opacity="1.0" fill="rgb(2%, 73%, 80%)" fill-opacity="0.2"><circle cx="-0.6944" cy="0.3249" r="0.0050"/><circle cx="-0.6944" cy="0.1920" r="0.0050"/><circle cx="-0.6944" cy="0.0591" r="0.0050"/><circle cx="-0.6944" cy="-0.0738" r="0.0050"/><circle cx="-0.6944" cy="-0.2067" r="0.0050"/><circle cx="-0.6944" cy="-0.3396" r="0.0050"/></g></g></g></g><g class="axis"><g class="axisbar"><g stroke-width="0.0030" stroke="rgb(2%, 29%, 48%)" stroke-opacity="1.0" fill="rgb(2%, 73%, 80%)" fill-opacity="0.2"><circle cx="0.0045" cy="0.3256" r="0.0050"/></g></g><g class="ticks"><g class="ticklines"><g stroke-width="0.0030" stroke="rgb(2%, 29%, 48%)" stroke-opacity="1.0" fill="rgb(2%, 73%, 80%)" fill-opacity="0.2"><circle cx="-0.6393" cy="0.3176" r="0.0050"/><circle cx="-0.6393" cy="-0.3469" r="0.0050"/><circle cx="-0.4247" cy="0.3176" r="0.0050"/><circle cx="-0.4247" cy="-0.3469" r="0.0050"/><circle cx="-0.2101" cy="0.3176" r="0.0050"/><circle cx="-0.2101" cy="-0.3469" r="0.0050"/><circle cx="0.0045" cy="0.3176" r="0.0050"/><circle cx="0.0045" cy="-0.3469" r="0.0050"/><circle cx="0.2191" cy="0.3176" r="0.0050"/><circle cx="0.2191" cy="-0.3469" r="0.0050"/><circle cx="0.4338" cy="0.3176" r="0.0050"/><circle cx="0.4338" cy="-0.3469" r="0.0050"/><circle cx="0.6484" cy="0.3176" r="0.0050"/><circle cx="0.6484" cy="-0.3469" r="0.0050"/></g></g><g class="tickglyph"><g stroke-width="0.0030" stroke="rgb(2%, 29%, 48%)" stroke-opacity="1.0" fill="rgb(2%, 73%, 80%)" fill-opacity="0.2"><circle cx="-0.6393" cy="0.3356" r="0.0050"/><circle cx="-0.4247" cy="0.3356" r="0.0050"/><circle cx="-0.2101" cy="0.3356" r="0.0050"/><circle cx="0.0045" cy="0.3356" r="0.0050"/><circle cx="0.2191" cy="0.3356" r="0.0050"/><circle cx="0.4338" cy="0.3356" r="0.0050"/><circle cx="0.6484" cy="0.3356" r="0.0050"/></g></g><g class="ticktext"><g stroke-width="0.0030" stroke="rgb(2%, 29%, 48%)" stroke-opacity="1.0" fill="rgb(2%, 73%, 80%)" fill-opacity="0.2"><circle cx="-0.6393" cy="0.3822" r="0.0050"/><circle cx="-0.4247" cy="0.3822" r="0.0050"/><circle cx="-0.2101" cy="0.3822" r="0.0050"/><circle cx="0.0045" cy="0.3822" r="0.0050"/><circle cx="0.2191" cy="0.3822" r="0.0050"/><circle cx="0.4338" cy="0.3822" r="0.0050"/><circle cx="0.6484" cy="0.3822" r="0.0050"/></g></g></g></g><g class="title"><g stroke-width="0.0030" stroke="rgb(2%, 29%, 48%)" stroke-opacity="1.0" fill="rgb(2%, 73%, 80%)" fill-opacity="0.2"><circle cx="-0.0179" cy="-0.4302" r="0.0050"/></g></g><g class="legend"><g class="padding"><g stroke-width="0.0030" stroke="rgb(2%, 29%, 48%)" stroke-opacity="1.0" fill="rgb(2%, 73%, 80%)" fill-opacity="0.2"><circle cx="0.4967" cy="0.1593" r="0.0050"/></g></g><g class="padding"><g stroke-width="0.0030" stroke="rgb(2%, 29%, 48%)" stroke-opacity="1.0" fill="rgb(2%, 73%, 80%)" fill-opacity="0.2"><circle cx="0.4967" cy="0.1593" r="0.0050"/></g></g><g class="frame"><g stroke-width="0.0030" stroke="rgb(2%, 29%, 48%)" stroke-opacity="1.0" fill="rgb(2%, 73%, 80%)" fill-opacity="0.2"><circle cx="0.4967" cy="0.1593" r="0.0050"/></g></g><g class="legendContent"><g stroke-width="0.0030" stroke="rgb(2%, 29%, 48%)" stroke-opacity="1.0" fill="rgb(2%, 73%, 80%)" fill-opacity="0.2"><circle cx="0.3041" cy="0.2186" r="0.0050"/></g><g stroke-width="0.0030" stroke="rgb(2%, 29%, 48%)" stroke-opacity="1.0" fill="rgb(2%, 73%, 80%)" fill-opacity="0.2"><circle cx="0.5537" cy="0.2186" r="0.0050"/><circle cx="0.6828" cy="0.2186" r="0.0050"/></g><g stroke-width="0.0030" stroke="rgb(2%, 29%, 48%)" stroke-opacity="1.0" fill="rgb(2%, 73%, 80%)" fill-opacity="0.2"><circle cx="0.3041" cy="0.1593" r="0.0050"/></g><g stroke-width="0.0030" stroke="rgb(2%, 29%, 48%)" stroke-opacity="1.0" fill="rgb(2%, 73%, 80%)" fill-opacity="0.2"><circle cx="0.5537" cy="0.1593" r="0.0050"/><circle cx="0.6828" cy="0.1593" r="0.0050"/></g><g stroke-width="0.0030" stroke="rgb(2%, 29%, 48%)" stroke-opacity="1.0" fill="rgb(2%, 73%, 80%)" fill-opacity="0.2"><circle cx="0.3041" cy="0.1000" r="0.0050"/></g><g stroke-width="0.0030" stroke="rgb(2%, 29%, 48%)" stroke-opacity="1.0" fill="rgb(2%, 73%, 80%)" fill-opacity="0.2"><circle cx="0.5537" cy="0.1000" r="0.0050"/><circle cx="0.6828" cy="0.1000" r="0.0050"/></g></g></g><g class="title"><g stroke-width="0.0030" stroke="rgb(2%, 29%, 48%)" stroke-opacity="1.0" fill="rgb(2%, 73%, 80%)" fill-opacity="0.2"><circle cx="0.7151" cy="0.4515" r="0.0050"/></g></g><g class="frame"><g stroke-width="0.0030" stroke="rgb(2%, 29%, 48%)" stroke-opacity="1.0" fill="rgb(2%, 73%, 80%)" fill-opacity="0.2"><circle cx="0" cy="0" r="0.0050"/></g></g></g></g><g class="rectangularize"><g class="chart"><g class="line"><g stroke-width="0.0010" stroke="rgb(5%, 5%, 5%)" stroke-opacity="1.0" fill="rgb(2%, 73%, 80%)" fill-opacity="0.05"><rect width="0.8714" height="0.5416" x="-0.6458" y="-0.3519"/></g><g stroke-width="0.0010" stroke="rgb(5%, 5%, 5%)" stroke-opacity="1.0" fill="rgb(2%, 73%, 80%)" fill-opacity="0.05"><rect width="1.2148" height="0.4087" x="-0.6458" y="-0.0861"/></g><g stroke-width="0.0010" stroke="rgb(5%, 5%, 5%)" stroke-opacity="1.0" fill="rgb(2%, 73%, 80%)" fill-opacity="0.05"><rect width="0.0129" height="0.5416" x="-0.4312" y="-0.2190"/></g></g><g class="datapadding"><g stroke-width="0.0010" stroke="rgb(5%, 5%, 5%)" stroke-opacity="1.0" fill="rgb(2%, 73%, 80%)" fill-opacity="0.05"><rect width="1.2877" height="0.6644" x="-0.6393" y="-0.3469"/></g></g></g><g class="hud"><g class="frame"><g stroke-width="0.0010" stroke="rgb(5%, 5%, 5%)" stroke-opacity="1.0" fill="rgb(2%, 73%, 80%)" fill-opacity="0.05"><rect width="1.2942" height="0.6744" x="-0.6458" y="-0.3519"/></g></g><g class="axis"><g class="axisbar"><g stroke-width="0.0010" stroke="rgb(5%, 5%, 5%)" stroke-opacity="1.0" fill="rgb(2%, 73%, 80%)" fill-opacity="0.05"><rect width="0.0034" height="0.6671" x="-0.6514" y="-0.3482"/></g></g><g class="ticks"><g class="ticklines"><g stroke-width="0.0010" stroke="rgb(5%, 5%, 5%)" stroke-opacity="1.0" fill="rgb(2%, 73%, 80%)" fill-opacity="0.05"><rect width="1.2920" height="0.6678" x="-0.6415" y="-0.3486"/></g></g><g class="tickglyph"><g stroke-width="0.0010" stroke="rgb(5%, 5%, 5%)" stroke-opacity="1.0" fill="rgb(2%, 73%, 80%)" fill-opacity="0.05"><rect width="0.0293" height="0.6698" x="-0.6772" y="-0.3496"/></g></g><g class="ticktext"><g stroke-width="0.0010" stroke="rgb(5%, 5%, 5%)" stroke-opacity="1.0" fill="rgb(2%, 73%, 80%)" fill-opacity="0.05"><rect width="0.0207" height="0.7071" x="-0.7151" y="-0.3609"/></g></g></g></g><g class="axis"><g class="axisbar"><g stroke-width="0.0010" stroke="rgb(5%, 5%, 5%)" stroke-opacity="1.0" fill="rgb(2%, 73%, 80%)" fill-opacity="0.05"><rect width="1.2912" height="0.0027" x="-0.6411" y="0.3242"/></g></g><g class="ticks"><g class="ticklines"><g stroke-width="0.0010" stroke="rgb(5%, 5%, 5%)" stroke-opacity="1.0" fill="rgb(2%, 73%, 80%)" fill-opacity="0.05"><rect width="1.2920" height="0.6678" x="-0.6415" y="-0.3486"/></g></g><g class="tickglyph"><g stroke-width="0.0010" stroke="rgb(5%, 5%, 5%)" stroke-opacity="1.0" fill="rgb(2%, 73%, 80%)" fill-opacity="0.05"><rect width="1.2946" height="0.0227" x="-0.6428" y="0.3242"/></g></g><g class="ticktext"><g stroke-width="0.0010" stroke="rgb(5%, 5%, 5%)" stroke-opacity="1.0" fill="rgb(2%, 73%, 80%)" fill-opacity="0.05"><rect width="1.3497" height="0.0427" x="-0.6703" y="0.3609"/></g></g></g></g><g class="title"><g stroke-width="0.0010" stroke="rgb(5%, 5%, 5%)" stroke-opacity="1.0" fill="rgb(2%, 73%, 80%)" fill-opacity="0.05"><rect width="0.4131" height="0.0853" x="-0.2244" y="-0.4728"/></g></g><g class="legend"><g class="padding"><g stroke-width="0.0010" stroke="rgb(5%, 5%, 5%)" stroke-opacity="1.0" fill="rgb(2%, 73%, 80%)" fill-opacity="0.05"><rect width="0.4368" height="0.2013" x="0.2783" y="0.0586"/></g></g><g class="padding"><g stroke-width="0.0010" stroke="rgb(5%, 5%, 5%)" stroke-opacity="1.0" fill="rgb(2%, 73%, 80%)" fill-opacity="0.05"><rect width="0.4282" height="0.1946" x="0.2826" y="0.0620"/></g></g><g class="frame"><g stroke-width="0.0010" stroke="rgb(5%, 5%, 5%)" stroke-opacity="1.0" fill="rgb(2%, 73%, 80%)" fill-opacity="0.05"><rect width="0.4292" height="0.1954" x="0.2821" y="0.0616"/></g></g><g class="legendContent"><g stroke-width="0.0010" stroke="rgb(5%, 5%, 5%)" stroke-opacity="1.0" fill="rgb(2%, 73%, 80%)" fill-opacity="0.05"><rect width="0.2065" height="0.0427" x="0.3041" y="0.1973"/></g><g stroke-width="0.0010" stroke="rgb(5%, 5%, 5%)" stroke-opacity="1.0" fill="rgb(2%, 73%, 80%)" fill-opacity="0.05"><rect width="0.1420" height="0.0100" x="0.5473" y="0.2136"/></g><g stroke-width="0.0010" stroke="rgb(5%, 5%, 5%)" stroke-opacity="1.0" fill="rgb(2%, 73%, 80%)" fill-opacity="0.05"><rect width="0.2065" height="0.0427" x="0.3041" y="0.1380"/></g><g stroke-width="0.0010" stroke="rgb(5%, 5%, 5%)" stroke-opacity="1.0" fill="rgb(2%, 73%, 80%)" fill-opacity="0.05"><rect width="0.1420" height="0.0100" x="0.5473" y="0.1543"/></g><g stroke-width="0.0010" stroke="rgb(5%, 5%, 5%)" stroke-opacity="1.0" fill="rgb(2%, 73%, 80%)" fill-opacity="0.05"><rect width="0.2065" height="0.0427" x="0.3041" y="0.0786"/></g><g stroke-width="0.0010" stroke="rgb(5%, 5%, 5%)" stroke-opacity="1.0" fill="rgb(2%, 73%, 80%)" fill-opacity="0.05"><rect width="0.1420" height="0.0100" x="0.5473" y="0.0950"/></g></g></g><g class="title"><g stroke-width="0.0010" stroke="rgb(5%, 5%, 5%)" stroke-opacity="1.0" fill="rgb(2%, 73%, 80%)" fill-opacity="0.05"><rect width="0.5164" height="0.0427" x="0.1987" y="0.4302"/></g></g><g class="frame"><g stroke-width="0.0010" stroke="rgb(5%, 5%, 5%)" stroke-opacity="1.0" fill="rgb(2%, 73%, 80%)" fill-opacity="0.05"><rect width="1.4990" height="0.9990" x="-0.7495" y="-0.4995"/></g></g></g></g></g><g class="hud"></g></svg>