<svg xmlns="http://www.w3.org/2000/svg" width="450.36736790133847" xmlns:xlink="http://www.w3.org/1999/xlink" viewBox="-0.7483840240187023 -0.4984674253707175 1.4983840240187023 0.9981078542619579" height="300.0"><style>svg {
  color-scheme: light dark;
}
{
  .canvas g, .title g, .axisbar g, .ticktext g, .tickglyph g, .ticklines g, .legendContent g text {
    fill: #0d0d0d;
  }
  .ticklines g, .tickglyph g, .legendBorder g {
    stroke: #0d0d0d;
  }
}
@media (prefers-color-scheme:dark) {
  .canvas g, .title g, .axisbar g, .ticktext g, .tickglyph g, .ticklines g, .legendContent g text {
    fill: #f0f0f0;
  }
  .ticklines g, .tickglyph g, .legendBorder g {
    stroke: #f0f0f0;
  }
}</style><g class="chart"><g class="chart"><g class="line"><g fill="none" stroke="rgb(69%, 35%, 16%)" stroke-width="1.5e-2" stroke-opacity="1.0"><polyline points="-0.6441945286762393,0.19510477992777275
-0.293447195424386,0.19510477992777275
5.7300137827467346e-2,-0.38778630626652577"/></g><g fill="none" stroke="rgb(65%, 81%, 89%)" stroke-width="3.0e-2" stroke-opacity="1.0"><polyline points="-0.6441945286762393,0.3408275514763474
0.3378980044289499,-9.634076316937645e-2"/></g><g fill="none" stroke="rgb(12%, 47%, 71%)" stroke-width="1.0e-2" stroke-opacity="1.0"><polyline points="-0.46882086205031254,-0.24206353471795117
-0.46882086205031254,0.3408275514763474"/></g></g></g><g class="hud"><g class="axis"><g class="ticks"><g class="tickglyph"><g fill="rgb(5%, 5%, 5%)" stroke="rgb(5%, 5%, 5%)" stroke-width="4.0e-3" fill-opacity="0.4" stroke-opacity="0.4"><g transform="rotate(-90.0, -0.6757617886689061, 0.3408275514763474)"><polyline points="-0.6757617886689061,0.3558275514763474
-0.6757617886689061,0.3258275514763474"/></g><g transform="rotate(-90.0, -0.6757617886689061, 0.26796616570206006)"><polyline points="-0.6757617886689061,0.28296616570206007
-0.6757617886689061,0.25296616570206004"/></g><g transform="rotate(-90.0, -0.6757617886689061, 0.19510477992777275)"><polyline points="-0.6757617886689061,0.21010477992777277
-0.6757617886689061,0.18010477992777274"/></g><g transform="rotate(-90.0, -0.6757617886689061, 0.1222433941534854)"><polyline points="-0.6757617886689061,0.1372433941534854
-0.6757617886689061,0.1072433941534854"/></g><g transform="rotate(-90.0, -0.6757617886689061, 4.938200837919804e-2)"><polyline points="-0.6757617886689061,6.438200837919804e-2
-0.6757617886689061,3.438200837919804e-2"/></g><g transform="rotate(-90.0, -0.6757617886689061, -2.3479377395089318e-2)"><polyline points="-0.6757617886689061,-8.479377395089319e-3
-0.6757617886689061,-3.847937739508932e-2"/></g><g transform="rotate(-90.0, -0.6757617886689061, -9.634076316937645e-2)"><polyline points="-0.6757617886689061,-8.134076316937645e-2
-0.6757617886689061,-0.11134076316937645"/></g><g transform="rotate(-90.0, -0.6757617886689061, -0.16920214894366392)"><polyline points="-0.6757617886689061,-0.1542021489436639
-0.6757617886689061,-0.18420214894366393"/></g><g transform="rotate(-90.0, -0.6757617886689061, -0.24206353471795117)"><polyline points="-0.6757617886689061,-0.22706353471795115
-0.6757617886689061,-0.2570635347179512"/></g><g transform="rotate(-90.0, -0.6757617886689061, -0.3149249204922385)"><polyline points="-0.6757617886689061,-0.2999249204922385
-0.6757617886689061,-0.32992492049223854"/></g><g transform="rotate(-90.0, -0.6757617886689061, -0.38778630626652577)"><polyline points="-0.6757617886689061,-0.37278630626652576
-0.6757617886689061,-0.4027863062665258"/></g></g></g><g class="ticktext"><g fill="rgb(5%, 5%, 5%)" stroke="none" stroke-width="0.0" font-size="3.507473332518534e-2" fill-opacity="1.0" text-anchor="end"><text x="-0.7010155966630396" y="0.35084599202031186">0.0</text><text x="-0.7010155966630396" y="0.2779846062460246">0.5</text><text x="-0.7010155966630396" y="0.2051232204717372">1.0</text><text x="-0.7010155966630396" y="0.13226183469744995">1.5</text><text x="-0.7010155966630396" y="5.940044892316271e-2">2.0</text><text x="-0.7010155966630396" y="-1.3460936851124705e-2">2.5</text><text x="-0.7010155966630396" y="-8.632232262541195e-2">3.0</text><text x="-0.7010155966630396" y="-0.1591837083996993">3.5</text><text x="-0.7010155966630396" y="-0.23204509417398678">4.0</text><text x="-0.7010155966630396" y="-0.304906479948274">4.5</text><text x="-0.7010155966630396" y="-0.37776786572256127">5.0</text></g></g><g class="ticklines"><g fill="none" stroke="rgb(5%, 5%, 5%)" stroke-width="5.0e-3" stroke-opacity="5.0e-2"><polyline points="-0.6441945286762393,0.3408275514763474
0.40804747107932093,0.3408275514763474"/><polyline points="-0.6441945286762393,0.26796616570206006
0.40804747107932093,0.26796616570206006"/><polyline points="-0.6441945286762393,0.19510477992777275
0.40804747107932093,0.19510477992777275"/><polyline points="-0.6441945286762393,0.1222433941534854
0.40804747107932093,0.1222433941534854"/><polyline points="-0.6441945286762393,4.938200837919804e-2
0.40804747107932093,4.938200837919804e-2"/><polyline points="-0.6441945286762393,-2.3479377395089318e-2
0.40804747107932093,-2.3479377395089318e-2"/><polyline points="-0.6441945286762393,-9.634076316937645e-2
0.40804747107932093,-9.634076316937645e-2"/><polyline points="-0.6441945286762393,-0.16920214894366392
0.40804747107932093,-0.16920214894366392"/><polyline points="-0.6441945286762393,-0.24206353471795117
0.40804747107932093,-0.24206353471795117"/><polyline points="-0.6441945286762393,-0.3149249204922385
0.40804747107932093,-0.3149249204922385"/><polyline points="-0.6441945286762393,-0.38778630626652577
0.40804747107932093,-0.38778630626652577"/></g></g></g><g class="axisbar"><g fill="rgb(5%, 5%, 5%)" stroke="rgb(0%, 0%, 0%)" stroke-width="0.0" fill-opacity="0.4" stroke-opacity="0.0"><rect x="-0.6645378740048469" width="2.805978666014841e-3" y="-0.3892435339820116" height="0.7315283131738447"/></g></g></g><g class="axis"><g class="ticks"><g class="tickglyph"><g fill="rgb(5%, 5%, 5%)" stroke="rgb(5%, 5%, 5%)" stroke-width="4.0e-3" fill-opacity="0.4" stroke-opacity="0.4"><polyline points="-0.6441945286762393,0.3886151750747767
-0.6441945286762393,0.3586151750747767"/><polyline points="-0.46882086205031254,0.3886151750747767
-0.46882086205031254,0.3586151750747767"/><polyline points="-0.293447195424386,0.3886151750747767
-0.293447195424386,0.3586151750747767"/><polyline points="-0.11807352879845923,0.3886151750747767
-0.11807352879845923,0.3586151750747767"/><polyline points="5.7300137827467346e-2,0.3886151750747767
5.7300137827467346e-2,0.3586151750747767"/><polyline points="0.23267380445339414,0.3886151750747767
0.23267380445339414,0.3586151750747767"/><polyline points="0.40804747107932093,0.3886151750747767
0.40804747107932093,0.3586151750747767"/></g></g><g class="ticktext"><g fill="rgb(5%, 5%, 5%)" stroke="none" stroke-width="0.0" font-size="3.507473332518534e-2" fill-opacity="1.0" text-anchor="middle"><text x="-0.6441945286762393" y="0.41988215504144916">0.0</text><text x="-0.46882086205031254" y="0.41988215504144916">0.5</text><text x="-0.293447195424386" y="0.41988215504144916">1.0</text><text x="-0.11807352879845923" y="0.41988215504144916">1.5</text><text x="5.7300137827467346e-2" y="0.41988215504144916">2.0</text><text x="0.23267380445339414" y="0.41988215504144916">2.5</text><text x="0.40804747107932093" y="0.41988215504144916">3.0</text></g></g><g class="ticklines"><g fill="none" stroke="rgb(5%, 5%, 5%)" stroke-width="5.0e-3" stroke-opacity="5.0e-2"><polyline points="-0.6441945286762393,0.3408275514763474
-0.6441945286762393,-0.38778630626652577"/><polyline points="-0.46882086205031254,0.3408275514763474
-0.46882086205031254,-0.38778630626652577"/><polyline points="-0.293447195424386,0.3408275514763474
-0.293447195424386,-0.38778630626652577"/><polyline points="-0.11807352879845923,0.3408275514763474
-0.11807352879845923,-0.38778630626652577"/><polyline points="5.7300137827467346e-2,0.3408275514763474
5.7300137827467346e-2,-0.38778630626652577"/><polyline points="0.23267380445339414,0.3408275514763474
0.23267380445339414,-0.38778630626652577"/><polyline points="0.40804747107932093,0.3408275514763474
0.40804747107932093,-0.38778630626652577"/></g></g></g><g class="axisbar"><g fill="rgb(5%, 5%, 5%)" stroke="rgb(0%, 0%, 0%)" stroke-width="0.0" fill-opacity="0.4" stroke-opacity="0.0"><rect x="-0.6455975180092467" width="1.055047978421575" y="0.35904289791991917" height="2.9144554309715742e-3"/></g></g></g><g class="title"><g fill="rgb(5%, 5%, 5%)" stroke="none" stroke-width="0.0" font-size="3.507473332518534e-2" fill-opacity="1.0" text-anchor="end"><text x="0.43172291607382096" y="0.4891004715270222">Made with love and chart-svg</text></g></g><g class="title"><g fill="rgb(5%, 5%, 5%)" stroke="none" stroke-width="0.0" font-size="5.6119573320296545e-2" fill-opacity="1.0" text-anchor="middle"><text x="-0.15832178528910956" y="-0.4535437069278201">Line Chart</text></g></g><g class="legend"><g class="legendBorder"><g fill="rgb(5%, 5%, 5%)" stroke="rgb(5%, 5%, 5%)" stroke-width="2.5e-3" fill-opacity="0.0" stroke-opacity="1.0"><rect x="0.4843350160615989" width="0.26165751060588227" y="-0.11482933980960186" height="0.14499415769083174"/></g></g><g class="legendContent"><g fill="rgb(5%, 5%, 5%)" stroke="none" stroke-width="0.0" font-size="2.1044839995111204e-2" fill-opacity="1.0" text-anchor="start"><text x="0.5018723827241913" y="5.391946717972218e-3">vertical</text></g><g fill="none" stroke="rgb(12%, 47%, 71%)" stroke-width="1.0e-2" stroke-opacity="1.0"><polyline points="0.6127085400317771,-7.265721509930323e-5
0.717932740007333,-7.265721509930323e-5"/></g><g fill="rgb(5%, 5%, 5%)" stroke="none" stroke-width="0.0" font-size="2.1044839995111204e-2" fill-opacity="1.0" text-anchor="start"><text x="0.5018723827241913" y="-3.686765703111439e-2">line</text></g><g fill="none" stroke="rgb(65%, 81%, 89%)" stroke-width="3.0e-2" stroke-opacity="1.0"><polyline points="0.6127085400317771,-4.2332260964186186e-2
0.717932740007333,-4.2332260964186186e-2"/></g><g fill="rgb(5%, 5%, 5%)" stroke="none" stroke-width="0.0" font-size="2.1044839995111204e-2" fill-opacity="1.0" text-anchor="start"><text x="0.5018723827241913" y="-7.912726078020105e-2">hockey</text></g><g fill="none" stroke="rgb(69%, 35%, 16%)" stroke-width="1.5e-2" stroke-opacity="1.0"><polyline points="0.6127085400317771,-8.459186471327262e-2
0.717932740007333,-8.459186471327262e-2"/></g></g></g></g><g class="glyphize"><g class="chart"><g class="line"><g fill="rgb(65%, 81%, 89%)" stroke="rgb(12%, 47%, 71%)" stroke-width="3.0e-3" fill-opacity="1.0" stroke-opacity="1.0"><circle cy="0.19510477992777275" cx="-0.6441945286762393" r="5.0e-3"/><circle cy="0.19510477992777275" cx="-0.293447195424386" r="5.0e-3"/><circle cy="-0.38778630626652577" cx="5.7300137827467346e-2" r="5.0e-3"/></g><g fill="rgb(65%, 81%, 89%)" stroke="rgb(12%, 47%, 71%)" stroke-width="3.0e-3" fill-opacity="1.0" stroke-opacity="1.0"><circle cy="0.3408275514763474" cx="-0.6441945286762393" r="5.0e-3"/><circle cy="-9.634076316937645e-2" cx="0.3378980044289499" r="5.0e-3"/></g><g fill="rgb(65%, 81%, 89%)" stroke="rgb(12%, 47%, 71%)" stroke-width="3.0e-3" fill-opacity="1.0" stroke-opacity="1.0"><circle cy="-0.24206353471795117" cx="-0.46882086205031254" r="5.0e-3"/><circle cy="0.3408275514763474" cx="-0.46882086205031254" r="5.0e-3"/></g></g><g><g fill="rgb(65%, 81%, 89%)" stroke="rgb(12%, 47%, 71%)" stroke-width="3.0e-3" fill-opacity="1.0" stroke-opacity="1.0"><circle cy="-2.3479377395089207e-2" cx="-0.11807352879845923" r="5.0e-3"/></g></g></g><g class="hud"><g class="axis"><g class="ticks"><g class="tickglyph"><g fill="rgb(65%, 81%, 89%)" stroke="rgb(12%, 47%, 71%)" stroke-width="3.0e-3" fill-opacity="1.0" stroke-opacity="1.0"><circle cy="0.3408275514763474" cx="-0.6757617886689061" r="5.0e-3"/><circle cy="0.26796616570206006" cx="-0.6757617886689061" r="5.0e-3"/><circle cy="0.19510477992777275" cx="-0.6757617886689061" r="5.0e-3"/><circle cy="0.1222433941534854" cx="-0.6757617886689061" r="5.0e-3"/><circle cy="4.938200837919804e-2" cx="-0.6757617886689061" r="5.0e-3"/><circle cy="-2.3479377395089318e-2" cx="-0.6757617886689061" r="5.0e-3"/><circle cy="-9.634076316937645e-2" cx="-0.6757617886689061" r="5.0e-3"/><circle cy="-0.16920214894366392" cx="-0.6757617886689061" r="5.0e-3"/><circle cy="-0.24206353471795117" cx="-0.6757617886689061" r="5.0e-3"/><circle cy="-0.3149249204922385" cx="-0.6757617886689061" r="5.0e-3"/><circle cy="-0.38778630626652577" cx="-0.6757617886689061" r="5.0e-3"/></g></g><g class="ticktext"><g fill="rgb(65%, 81%, 89%)" stroke="rgb(12%, 47%, 71%)" stroke-width="3.0e-3" fill-opacity="1.0" stroke-opacity="1.0"><circle cy="0.35084599202031186" cx="-0.7010155966630396" r="5.0e-3"/><circle cy="0.2779846062460246" cx="-0.7010155966630396" r="5.0e-3"/><circle cy="0.2051232204717372" cx="-0.7010155966630396" r="5.0e-3"/><circle cy="0.13226183469744995" cx="-0.7010155966630396" r="5.0e-3"/><circle cy="5.940044892316271e-2" cx="-0.7010155966630396" r="5.0e-3"/><circle cy="-1.3460936851124705e-2" cx="-0.7010155966630396" r="5.0e-3"/><circle cy="-8.632232262541195e-2" cx="-0.7010155966630396" r="5.0e-3"/><circle cy="-0.1591837083996993" cx="-0.7010155966630396" r="5.0e-3"/><circle cy="-0.23204509417398678" cx="-0.7010155966630396" r="5.0e-3"/><circle cy="-0.304906479948274" cx="-0.7010155966630396" r="5.0e-3"/><circle cy="-0.37776786572256127" cx="-0.7010155966630396" r="5.0e-3"/></g></g><g class="ticklines"><g fill="rgb(65%, 81%, 89%)" stroke="rgb(12%, 47%, 71%)" stroke-width="3.0e-3" fill-opacity="1.0" stroke-opacity="1.0"><circle cy="0.3408275514763474" cx="-0.6441945286762393" r="5.0e-3"/><circle cy="0.3408275514763474" cx="0.40804747107932093" r="5.0e-3"/><circle cy="0.26796616570206006" cx="-0.6441945286762393" r="5.0e-3"/><circle cy="0.26796616570206006" cx="0.40804747107932093" r="5.0e-3"/><circle cy="0.19510477992777275" cx="-0.6441945286762393" r="5.0e-3"/><circle cy="0.19510477992777275" cx="0.40804747107932093" r="5.0e-3"/><circle cy="0.1222433941534854" cx="-0.6441945286762393" r="5.0e-3"/><circle cy="0.1222433941534854" cx="0.40804747107932093" r="5.0e-3"/><circle cy="4.938200837919804e-2" cx="-0.6441945286762393" r="5.0e-3"/><circle cy="4.938200837919804e-2" cx="0.40804747107932093" r="5.0e-3"/><circle cy="-2.3479377395089318e-2" cx="-0.6441945286762393" r="5.0e-3"/><circle cy="-2.3479377395089318e-2" cx="0.40804747107932093" r="5.0e-3"/><circle cy="-9.634076316937645e-2" cx="-0.6441945286762393" r="5.0e-3"/><circle cy="-9.634076316937645e-2" cx="0.40804747107932093" r="5.0e-3"/><circle cy="-0.16920214894366392" cx="-0.6441945286762393" r="5.0e-3"/><circle cy="-0.16920214894366392" cx="0.40804747107932093" r="5.0e-3"/><circle cy="-0.24206353471795117" cx="-0.6441945286762393" r="5.0e-3"/><circle cy="-0.24206353471795117" cx="0.40804747107932093" r="5.0e-3"/><circle cy="-0.3149249204922385" cx="-0.6441945286762393" r="5.0e-3"/><circle cy="-0.3149249204922385" cx="0.40804747107932093" r="5.0e-3"/><circle cy="-0.38778630626652577" cx="-0.6441945286762393" r="5.0e-3"/><circle cy="-0.38778630626652577" cx="0.40804747107932093" r="5.0e-3"/></g></g></g><g class="axisbar"><g fill="rgb(65%, 81%, 89%)" stroke="rgb(12%, 47%, 71%)" stroke-width="3.0e-3" fill-opacity="1.0" stroke-opacity="1.0"><circle cy="-2.3479377395089318e-2" cx="-0.6631348846718395" r="5.0e-3"/></g></g></g><g class="axis"><g class="ticks"><g class="tickglyph"><g fill="rgb(65%, 81%, 89%)" stroke="rgb(12%, 47%, 71%)" stroke-width="3.0e-3" fill-opacity="1.0" stroke-opacity="1.0"><circle cy="0.3736151750747767" cx="-0.6441945286762393" r="5.0e-3"/><circle cy="0.3736151750747767" cx="-0.46882086205031254" r="5.0e-3"/><circle cy="0.3736151750747767" cx="-0.293447195424386" r="5.0e-3"/><circle cy="0.3736151750747767" cx="-0.11807352879845923" r="5.0e-3"/><circle cy="0.3736151750747767" cx="5.7300137827467346e-2" r="5.0e-3"/><circle cy="0.3736151750747767" cx="0.23267380445339414" r="5.0e-3"/><circle cy="0.3736151750747767" cx="0.40804747107932093" r="5.0e-3"/></g></g><g class="ticktext"><g fill="rgb(65%, 81%, 89%)" stroke="rgb(12%, 47%, 71%)" stroke-width="3.0e-3" fill-opacity="1.0" stroke-opacity="1.0"><circle cy="0.41988215504144916" cx="-0.6441945286762393" r="5.0e-3"/><circle cy="0.41988215504144916" cx="-0.46882086205031254" r="5.0e-3"/><circle cy="0.41988215504144916" cx="-0.293447195424386" r="5.0e-3"/><circle cy="0.41988215504144916" cx="-0.11807352879845923" r="5.0e-3"/><circle cy="0.41988215504144916" cx="5.7300137827467346e-2" r="5.0e-3"/><circle cy="0.41988215504144916" cx="0.23267380445339414" r="5.0e-3"/><circle cy="0.41988215504144916" cx="0.40804747107932093" r="5.0e-3"/></g></g><g class="ticklines"><g fill="rgb(65%, 81%, 89%)" stroke="rgb(12%, 47%, 71%)" stroke-width="3.0e-3" fill-opacity="1.0" stroke-opacity="1.0"><circle cy="0.3408275514763474" cx="-0.6441945286762393" r="5.0e-3"/><circle cy="-0.38778630626652577" cx="-0.6441945286762393" r="5.0e-3"/><circle cy="0.3408275514763474" cx="-0.46882086205031254" r="5.0e-3"/><circle cy="-0.38778630626652577" cx="-0.46882086205031254" r="5.0e-3"/><circle cy="0.3408275514763474" cx="-0.293447195424386" r="5.0e-3"/><circle cy="-0.38778630626652577" cx="-0.293447195424386" r="5.0e-3"/><circle cy="0.3408275514763474" cx="-0.11807352879845923" r="5.0e-3"/><circle cy="-0.38778630626652577" cx="-0.11807352879845923" r="5.0e-3"/><circle cy="0.3408275514763474" cx="5.7300137827467346e-2" r="5.0e-3"/><circle cy="-0.38778630626652577" cx="5.7300137827467346e-2" r="5.0e-3"/><circle cy="0.3408275514763474" cx="0.23267380445339414" r="5.0e-3"/><circle cy="-0.38778630626652577" cx="0.23267380445339414" r="5.0e-3"/><circle cy="0.3408275514763474" cx="0.40804747107932093" r="5.0e-3"/><circle cy="-0.38778630626652577" cx="0.40804747107932093" r="5.0e-3"/></g></g></g><g class="axisbar"><g fill="rgb(65%, 81%, 89%)" stroke="rgb(12%, 47%, 71%)" stroke-width="3.0e-3" fill-opacity="1.0" stroke-opacity="1.0"><circle cy="0.360500125635405" cx="-0.11807352879845923" r="5.0e-3"/></g></g></g><g class="title"><g fill="rgb(65%, 81%, 89%)" stroke="rgb(12%, 47%, 71%)" stroke-width="3.0e-3" fill-opacity="1.0" stroke-opacity="1.0"><circle cy="0.4891004715270222" cx="0.43172291607382096" r="5.0e-3"/></g></g><g class="title"><g fill="rgb(65%, 81%, 89%)" stroke="rgb(12%, 47%, 71%)" stroke-width="3.0e-3" fill-opacity="1.0" stroke-opacity="1.0"><circle cy="-0.4535437069278201" cx="-0.15832178528910956" r="5.0e-3"/></g></g><g class="legend"><g class="legendBorder"><g fill="rgb(65%, 81%, 89%)" stroke="rgb(12%, 47%, 71%)" stroke-width="3.0e-3" fill-opacity="1.0" stroke-opacity="1.0"><circle cy="-4.2332260964186075e-2" cx="0.6151637713645404" r="5.0e-3"/></g><g fill="rgb(65%, 81%, 89%)" stroke="rgb(12%, 47%, 71%)" stroke-width="3.0e-3" fill-opacity="1.0" stroke-opacity="1.0"><circle cy="-4.2332260964186075e-2" cx="0.6151637713645404" r="5.0e-3"/></g><g fill="rgb(65%, 81%, 89%)" stroke="rgb(12%, 47%, 71%)" stroke-width="3.0e-3" fill-opacity="1.0" stroke-opacity="1.0"><circle cy="-4.2332260964186075e-2" cx="0.6151637713645404" r="5.0e-3"/></g></g><g class="legendContent"><g fill="rgb(65%, 81%, 89%)" stroke="rgb(12%, 47%, 71%)" stroke-width="3.0e-3" fill-opacity="1.0" stroke-opacity="1.0"><circle cy="5.391946717972218e-3" cx="0.5018723827241913" r="5.0e-3"/></g><g fill="rgb(65%, 81%, 89%)" stroke="rgb(12%, 47%, 71%)" stroke-width="3.0e-3" fill-opacity="1.0" stroke-opacity="1.0"><circle cy="-7.265721509930323e-5" cx="0.6127085400317771" r="5.0e-3"/><circle cy="-7.265721509930323e-5" cx="0.717932740007333" r="5.0e-3"/></g><g fill="rgb(65%, 81%, 89%)" stroke="rgb(12%, 47%, 71%)" stroke-width="3.0e-3" fill-opacity="1.0" stroke-opacity="1.0"><circle cy="-3.686765703111439e-2" cx="0.5018723827241913" r="5.0e-3"/></g><g fill="rgb(65%, 81%, 89%)" stroke="rgb(12%, 47%, 71%)" stroke-width="3.0e-3" fill-opacity="1.0" stroke-opacity="1.0"><circle cy="-4.2332260964186186e-2" cx="0.6127085400317771" r="5.0e-3"/><circle cy="-4.2332260964186186e-2" cx="0.717932740007333" r="5.0e-3"/></g><g fill="rgb(65%, 81%, 89%)" stroke="rgb(12%, 47%, 71%)" stroke-width="3.0e-3" fill-opacity="1.0" stroke-opacity="1.0"><circle cy="-7.912726078020105e-2" cx="0.5018723827241913" r="5.0e-3"/></g><g fill="rgb(65%, 81%, 89%)" stroke="rgb(12%, 47%, 71%)" stroke-width="3.0e-3" fill-opacity="1.0" stroke-opacity="1.0"><circle cy="-8.459186471327262e-2" cx="0.6127085400317771" r="5.0e-3"/><circle cy="-8.459186471327262e-2" cx="0.717932740007333" r="5.0e-3"/></g></g></g></g></g><g class="rectangularize"><g class="chart"><g class="line"><g fill="rgb(12%, 47%, 71%)" stroke="rgb(5%, 5%, 5%)" stroke-width="1.0e-3" fill-opacity="0.2" stroke-opacity="1.0"><rect x="-0.6517888511718573" width="0.7166833114949427" y="-0.3954625617914024" height="0.5982435972440516"/></g><g fill="rgb(12%, 47%, 71%)" stroke="rgb(5%, 5%, 5%)" stroke-width="1.0e-3" fill-opacity="0.2" stroke-opacity="1.0"><rect x="-0.6593831736674752" width="1.0124698230876614" y="-0.11169327421912967" height="0.46787333674523024"/></g><g fill="rgb(12%, 47%, 71%)" stroke="rgb(5%, 5%, 5%)" stroke-width="1.0e-3" fill-opacity="0.2" stroke-opacity="1.0"><rect x="-0.47388374371405806" width="1.0125763327490822e-2" y="-0.2471810384012022" height="0.5931260935608007"/></g></g><g><g fill="rgb(12%, 47%, 71%)" stroke="rgb(5%, 5%, 5%)" stroke-width="1.0e-3" fill-opacity="0.2" stroke-opacity="1.0"><rect x="-0.6441945286762393" width="1.05224199975556" y="-0.38778630626652577" height="0.7286138577428731"/></g></g></g><g class="hud"><g class="axis"><g class="ticks"><g class="tickglyph"><g fill="rgb(12%, 47%, 71%)" stroke="rgb(5%, 5%, 5%)" stroke-width="1.0e-3" fill-opacity="0.2" stroke-opacity="1.0"><rect x="-0.6929755863256403" width="3.4427595313468395e-2" y="-0.39188030921312655" height="0.7368018636360748"/></g></g><g class="ticktext"><g fill="rgb(5%, 5%, 5%)" stroke="none" stroke-width="0.0" font-size="3.507473332518534e-2" fill-opacity="1.0" text-anchor="end"><text x="-0.7010155966630396" y="0.35084599202031186">0.0</text><g fill="rgb(12%, 47%, 71%)" stroke="rgb(5%, 5%, 5%)" stroke-width="3.507473332518534e-5" fill-opacity="0.2" stroke-opacity="1.0"><rect x="-0.7483840240187023" width="4.738596472232526e-2" y="0.32276866799350096" height="3.86172813910291e-2"/></g><text x="-0.7010155966630396" y="0.2779846062460246">0.5</text><g fill="rgb(12%, 47%, 71%)" stroke="rgb(5%, 5%, 5%)" stroke-width="3.507473332518534e-5" fill-opacity="0.2" stroke-opacity="1.0"><rect x="-0.7483840240187023" width="4.738596472232526e-2" y="0.24990728221921374" height="3.8617281391029074e-2"/></g><text x="-0.7010155966630396" y="0.2051232204717372">1.0</text><g fill="rgb(12%, 47%, 71%)" stroke="rgb(5%, 5%, 5%)" stroke-width="3.507473332518534e-5" fill-opacity="0.2" stroke-opacity="1.0"><rect x="-0.7483840240187023" width="4.738596472232526e-2" y="0.17704589644492633" height="3.8617281391029074e-2"/></g><text x="-0.7010155966630396" y="0.13226183469744995">1.5</text><g fill="rgb(12%, 47%, 71%)" stroke="rgb(5%, 5%, 5%)" stroke-width="3.507473332518534e-5" fill-opacity="0.2" stroke-opacity="1.0"><rect x="-0.7483840240187023" width="4.738596472232526e-2" y="0.1041845106706391" height="3.861728139102906e-2"/></g><text x="-0.7010155966630396" y="5.940044892316271e-2">2.0</text><g fill="rgb(12%, 47%, 71%)" stroke="rgb(5%, 5%, 5%)" stroke-width="3.507473332518534e-5" fill-opacity="0.2" stroke-opacity="1.0"><rect x="-0.7483840240187023" width="4.738596472232526e-2" y="3.132312489635184e-2" height="3.861728139102905e-2"/></g><text x="-0.7010155966630396" y="-1.3460936851124705e-2">2.5</text><g fill="rgb(12%, 47%, 71%)" stroke="rgb(5%, 5%, 5%)" stroke-width="3.507473332518534e-5" fill-opacity="0.2" stroke-opacity="1.0"><rect x="-0.7483840240187023" width="4.738596472232526e-2" y="-4.153826087793557e-2" height="3.861728139102907e-2"/></g><text x="-0.7010155966630396" y="-8.632232262541195e-2">3.0</text><g fill="rgb(12%, 47%, 71%)" stroke="rgb(5%, 5%, 5%)" stroke-width="3.507473332518534e-5" fill-opacity="0.2" stroke-opacity="1.0"><rect x="-0.7483840240187023" width="4.738596472232526e-2" y="-0.11439964665222281" height="3.8617281391029046e-2"/></g><text x="-0.7010155966630396" y="-0.1591837083996993">3.5</text><g fill="rgb(12%, 47%, 71%)" stroke="rgb(5%, 5%, 5%)" stroke-width="3.507473332518534e-5" fill-opacity="0.2" stroke-opacity="1.0"><rect x="-0.7483840240187023" width="4.738596472232526e-2" y="-0.18726103242651018" height="3.8617281391029074e-2"/></g><text x="-0.7010155966630396" y="-0.23204509417398678">4.0</text><g fill="rgb(12%, 47%, 71%)" stroke="rgb(5%, 5%, 5%)" stroke-width="3.507473332518534e-5" fill-opacity="0.2" stroke-opacity="1.0"><rect x="-0.7483840240187023" width="4.738596472232526e-2" y="-0.2601224182007977" height="3.86172813910291e-2"/></g><text x="-0.7010155966630396" y="-0.304906479948274">4.5</text><g fill="rgb(12%, 47%, 71%)" stroke="rgb(5%, 5%, 5%)" stroke-width="3.507473332518534e-5" fill-opacity="0.2" stroke-opacity="1.0"><rect x="-0.7483840240187023" width="4.738596472232526e-2" y="-0.3329838039750849" height="3.86172813910291e-2"/></g><text x="-0.7010155966630396" y="-0.37776786572256127">5.0</text><g fill="rgb(12%, 47%, 71%)" stroke="rgb(5%, 5%, 5%)" stroke-width="3.507473332518534e-5" fill-opacity="0.2" stroke-opacity="1.0"><rect x="-0.7483840240187023" width="4.738596472232526e-2" y="-0.40584518974937217" height="3.86172813910291e-2"/></g></g></g><g class="ticklines"><g fill="rgb(12%, 47%, 71%)" stroke="rgb(5%, 5%, 5%)" stroke-width="1.0e-3" fill-opacity="0.2" stroke-opacity="1.0"><rect x="-0.6467259695081119" width="1.0573048814193053" y="-0.3903450581081511" height="0.733731361426124"/></g></g></g><g class="axisbar"><g fill="rgb(12%, 47%, 71%)" stroke="rgb(5%, 5%, 5%)" stroke-width="1.0e-3" fill-opacity="0.2" stroke-opacity="1.0"><rect x="-0.6645378740048469" width="2.805978666014841e-3" y="-0.3892435339820116" height="0.7315283131738447"/></g></g></g><g class="axis"><g class="ticks"><g class="tickglyph"><g fill="rgb(12%, 47%, 71%)" stroke="rgb(5%, 5%, 5%)" stroke-width="1.0e-3" fill-opacity="0.2" stroke-opacity="1.0"><rect x="-0.6482448340072355" width="1.0603426104175526" y="0.35621566255172316" height="3.47990250461071e-2"/></g></g><g class="ticktext"><g fill="rgb(5%, 5%, 5%)" stroke="none" stroke-width="0.0" font-size="3.507473332518534e-2" fill-opacity="1.0" text-anchor="middle"><text x="-0.6441945286762393" y="0.41988215504144916">0.0</text><g fill="rgb(12%, 47%, 71%)" stroke="rgb(5%, 5%, 5%)" stroke-width="3.507473332518534e-5" fill-opacity="0.2" stroke-opacity="1.0"><rect x="-0.667887511037402" width="4.738596472232537e-2" y="0.3918048310146383" height="3.8617281391029046e-2"/></g><text x="-0.46882086205031254" y="0.41988215504144916">0.5</text><g fill="rgb(12%, 47%, 71%)" stroke="rgb(5%, 5%, 5%)" stroke-width="3.507473332518534e-5" fill-opacity="0.2" stroke-opacity="1.0"><rect x="-0.4925138444114752" width="4.738596472232537e-2" y="0.3918048310146383" height="3.8617281391029046e-2"/></g><text x="-0.293447195424386" y="0.41988215504144916">1.0</text><g fill="rgb(12%, 47%, 71%)" stroke="rgb(5%, 5%, 5%)" stroke-width="3.507473332518534e-5" fill-opacity="0.2" stroke-opacity="1.0"><rect x="-0.3171401777855487" width="4.738596472232537e-2" y="0.3918048310146383" height="3.8617281391029046e-2"/></g><text x="-0.11807352879845923" y="0.41988215504144916">1.5</text><g fill="rgb(12%, 47%, 71%)" stroke="rgb(5%, 5%, 5%)" stroke-width="3.507473332518534e-5" fill-opacity="0.2" stroke-opacity="1.0"><rect x="-0.14176651115962194" width="4.738596472232541e-2" y="0.3918048310146383" height="3.8617281391029046e-2"/></g><text x="5.7300137827467346e-2" y="0.41988215504144916">2.0</text><g fill="rgb(12%, 47%, 71%)" stroke="rgb(5%, 5%, 5%)" stroke-width="3.507473332518534e-5" fill-opacity="0.2" stroke-opacity="1.0"><rect x="3.360715546630464e-2" width="4.7385964722325404e-2" y="0.3918048310146383" height="3.8617281391029046e-2"/></g><text x="0.23267380445339414" y="0.41988215504144916">2.5</text><g fill="rgb(12%, 47%, 71%)" stroke="rgb(5%, 5%, 5%)" stroke-width="3.507473332518534e-5" fill-opacity="0.2" stroke-opacity="1.0"><rect x="0.20898082209223143" width="4.73859647223254e-2" y="0.3918048310146383" height="3.8617281391029046e-2"/></g><text x="0.40804747107932093" y="0.41988215504144916">3.0</text><g fill="rgb(12%, 47%, 71%)" stroke="rgb(5%, 5%, 5%)" stroke-width="3.507473332518534e-5" fill-opacity="0.2" stroke-opacity="1.0"><rect x="0.38435448871815825" width="4.738596472232537e-2" y="0.3918048310146383" height="3.8617281391029046e-2"/></g></g></g><g class="ticklines"><g fill="rgb(12%, 47%, 71%)" stroke="rgb(5%, 5%, 5%)" stroke-width="1.0e-3" fill-opacity="0.2" stroke-opacity="1.0"><rect x="-0.6467259695081119" width="1.0573048814193053" y="-0.3903450581081511" height="0.733731361426124"/></g></g></g><g class="axisbar"><g fill="rgb(12%, 47%, 71%)" stroke="rgb(5%, 5%, 5%)" stroke-width="1.0e-3" fill-opacity="0.2" stroke-opacity="1.0"><rect x="-0.6455975180092467" width="1.055047978421575" y="0.35904289791991917" height="2.9144554309715742e-3"/></g></g></g><g class="title"><g fill="rgb(5%, 5%, 5%)" stroke="none" stroke-width="0.0" font-size="3.507473332518534e-2" fill-opacity="1.0" text-anchor="end"><text x="0.43172291607382096" y="0.4891004715270222">Made with love and chart-svg</text><g fill="rgb(12%, 47%, 71%)" stroke="rgb(5%, 5%, 5%)" stroke-width="3.507473332518534e-5" fill-opacity="0.2" stroke-opacity="1.0"><rect x="-1.0236261190177e-2" width="0.44197671463066057" y="0.4610231475002113" height="3.86172813910291e-2"/></g></g></g><g class="title"><g fill="rgb(5%, 5%, 5%)" stroke="none" stroke-width="0.0" font-size="5.6119573320296545e-2" fill-opacity="1.0" text-anchor="middle"><text x="-0.15832178528910956" y="-0.4535437069278201">Line Chart</text><g fill="rgb(12%, 47%, 71%)" stroke="rgb(5%, 5%, 5%)" stroke-width="5.611957332029655e-5" fill-opacity="0.2" stroke-opacity="1.0"><rect x="-0.28461888504643695" width="0.2525941995146548" y="-0.4984674253707175" height="6.178765022564653e-2"/></g></g></g><g class="legend"><g class="legendBorder"><g fill="rgb(12%, 47%, 71%)" stroke="rgb(5%, 5%, 5%)" stroke-width="1.0e-3" fill-opacity="0.2" stroke-opacity="1.0"><rect x="0.48082754272908046" width="0.2686724572709196" y="-0.11847240909831613" height="0.15228029626826034"/></g><g fill="rgb(12%, 47%, 71%)" stroke="rgb(5%, 5%, 5%)" stroke-width="1.0e-3" fill-opacity="0.2" stroke-opacity="1.0"><rect x="0.4843350160615989" width="0.26165751060588227" y="-0.11482933980960186" height="0.14499415769083174"/></g><g fill="rgb(12%, 47%, 71%)" stroke="rgb(5%, 5%, 5%)" stroke-width="1.0e-3" fill-opacity="0.2" stroke-opacity="1.0"><rect x="0.4830692956456628" width="0.26418895143775467" y="-0.11610871573041459" height="0.1475529095324572"/></g></g><g class="legendContent"><g fill="rgb(5%, 5%, 5%)" stroke="none" stroke-width="0.0" font-size="2.1044839995111204e-2" fill-opacity="1.0" text-anchor="start"><text x="0.5018723827241913" y="5.391946717972218e-3">vertical</text><g fill="rgb(12%, 47%, 71%)" stroke="rgb(5%, 5%, 5%)" stroke-width="2.1044839995111205e-5" fill-opacity="0.2" stroke-opacity="1.0"><rect x="0.5018618603041938" width="7.578246882239548e-2" y="-1.14544476981143e-2" height="2.3170368834617434e-2"/></g></g><g fill="rgb(12%, 47%, 71%)" stroke="rgb(5%, 5%, 5%)" stroke-width="1.0e-3" fill-opacity="0.2" stroke-opacity="1.0"><rect x="0.6076456583680319" width="0.11534996330304637" y="-5.190160898350393e-3" height="1.0235007366502125e-2"/></g><g fill="rgb(5%, 5%, 5%)" stroke="none" stroke-width="0.0" font-size="2.1044839995111204e-2" fill-opacity="1.0" text-anchor="start"><text x="0.5018723827241913" y="-3.686765703111439e-2">line</text><g fill="rgb(12%, 47%, 71%)" stroke="rgb(5%, 5%, 5%)" stroke-width="2.1044839995111205e-5" fill-opacity="0.2" stroke-opacity="1.0"><rect x="0.5018618603041938" width="3.790175683119523e-2" y="-5.371405144720091e-2" height="2.317036883461744e-2"/></g></g><g fill="rgb(12%, 47%, 71%)" stroke="rgb(5%, 5%, 5%)" stroke-width="1.0e-3" fill-opacity="0.2" stroke-opacity="1.0"><rect x="0.5975198950405411" width="0.135601489958028" y="-5.768477201393929e-2" height="3.070502209950632e-2"/></g><g fill="rgb(5%, 5%, 5%)" stroke="none" stroke-width="0.0" font-size="2.1044839995111204e-2" fill-opacity="1.0" text-anchor="start"><text x="0.5018723827241913" y="-7.912726078020105e-2">hockey</text><g fill="rgb(12%, 47%, 71%)" stroke="rgb(5%, 5%, 5%)" stroke-width="2.1044839995111205e-5" fill-opacity="0.2" stroke-opacity="1.0"><rect x="0.5018618603041938" width="5.68421128267953e-2" y="-9.597365519628756e-2" height="2.3170368834617427e-2"/></g></g><g fill="rgb(12%, 47%, 71%)" stroke="rgb(5%, 5%, 5%)" stroke-width="1.0e-3" fill-opacity="0.2" stroke-opacity="1.0"><rect x="0.6051142175361592" width="0.12041284496679139" y="-9.226812023814934e-2" height="1.5352511049753326e-2"/></g></g></g></g></g></g><g class="hud"></g></svg>