<svg viewBox="-1.0522065 -0.716295 1.9319565 1.3754811666378193" xmlns="http://www.w3.org/2000/svg" xmlns:xlink="http://www.w3.org/1999/xlink" version="1.1" width="800.0" height="600.0"><g stroke-width="0.0" stroke="none" fill="#000000" transform="translate(-8.45375000000001e-2, -0.56725)" fill-opacity="1.0" font-size="0.12" text-anchor="middle"><text transform="rotate(0.0, 0.0, -0.0)" x="0.0" y="-0.0">default</text></g><g stroke-width="0.0" stroke="#000000" fill="#666666" fill-opacity="3.0e-2" stroke-opacity="0.0"><rect width="1.7" height="1.0" x="-0.85" y="-0.5" /></g><g stroke-width="5.0e-3" stroke="#A8E5EE" fill="none" stroke-opacity="0.3"><polyline points="-0.85,0.5 0.85,0.5" /></g><g stroke-width="5.0e-3" stroke="#A8E5EE" fill="none" stroke-opacity="0.3"><polyline points="-0.85,0.4 0.85,0.4" /></g><g stroke-width="5.0e-3" stroke="#A8E5EE" fill="none" stroke-opacity="0.3"><polyline points="-0.85,0.3 0.85,0.3" /></g><g stroke-width="5.0e-3" stroke="#A8E5EE" fill="none" stroke-opacity="0.3"><polyline points="-0.85,0.19999999999999996 0.85,0.19999999999999996" /></g><g stroke-width="5.0e-3" stroke="#A8E5EE" fill="none" stroke-opacity="0.3"><polyline points="-0.85,9.999999999999998e-2 0.85,9.999999999999998e-2" /></g><g stroke-width="5.0e-3" stroke="#A8E5EE" fill="none" stroke-opacity="0.3"><polyline points="-0.85,-0.0 0.85,-0.0" /></g><g stroke-width="5.0e-3" stroke="#A8E5EE" fill="none" stroke-opacity="0.3"><polyline points="-0.85,-0.10000000000000009 0.85,-0.10000000000000009" /></g><g stroke-width="5.0e-3" stroke="#A8E5EE" fill="none" stroke-opacity="0.3"><polyline points="-0.85,-0.20000000000000007 0.85,-0.20000000000000007" /></g><g stroke-width="5.0e-3" stroke="#A8E5EE" fill="none" stroke-opacity="0.3"><polyline points="-0.85,-0.30000000000000004 0.85,-0.30000000000000004" /></g><g stroke-width="5.0e-3" stroke="#A8E5EE" fill="none" stroke-opacity="0.3"><polyline points="-0.85,-0.4 0.85,-0.4" /></g><g stroke-width="5.0e-3" stroke="#A8E5EE" fill="none" stroke-opacity="0.3"><polyline points="-0.85,-0.5 0.85,-0.5" /></g><g stroke-width="0.0" stroke="none" fill="#666666" fill-opacity="1.0" font-size="5.0e-2" text-anchor="end"><text x="-0.931575" y="0.529">-1.0</text></g><g stroke-width="0.0" stroke="none" fill="#666666" fill-opacity="1.0" font-size="5.0e-2" text-anchor="end"><text x="-0.931575" y="0.42900000000000005">-0.8</text></g><g stroke-width="0.0" stroke="none" fill="#666666" fill-opacity="1.0" font-size="5.0e-2" text-anchor="end"><text x="-0.931575" y="0.32899999999999996">-0.6</text></g><g stroke-width="0.0" stroke="none" fill="#666666" fill-opacity="1.0" font-size="5.0e-2" text-anchor="end"><text x="-0.931575" y="0.22899999999999995">-0.4</text></g><g stroke-width="0.0" stroke="none" fill="#666666" fill-opacity="1.0" font-size="5.0e-2" text-anchor="end"><text x="-0.931575" y="0.12899999999999998">-0.2</text></g><g stroke-width="0.0" stroke="none" fill="#666666" fill-opacity="1.0" font-size="5.0e-2" text-anchor="end"><text x="-0.931575" y="2.8999999999999998e-2">0.0</text></g><g stroke-width="0.0" stroke="none" fill="#666666" fill-opacity="1.0" font-size="5.0e-2" text-anchor="end"><text x="-0.931575" y="-7.100000000000009e-2">0.2</text></g><g stroke-width="0.0" stroke="none" fill="#666666" fill-opacity="1.0" font-size="5.0e-2" text-anchor="end"><text x="-0.931575" y="-0.17100000000000007">0.4</text></g><g stroke-width="0.0" stroke="none" fill="#666666" fill-opacity="1.0" font-size="5.0e-2" text-anchor="end"><text x="-0.931575" y="-0.271">0.6</text></g><g stroke-width="0.0" stroke="none" fill="#666666" fill-opacity="1.0" font-size="5.0e-2" text-anchor="end"><text x="-0.931575" y="-0.371">0.8</text></g><g stroke-width="0.0" stroke="none" fill="#666666" fill-opacity="1.0" font-size="5.0e-2" text-anchor="end"><text x="-0.931575" y="-0.471">1.0</text></g><g stroke-width="0.0" stroke="#2C429D" fill="#5F0391" fill-opacity="1.0" stroke-opacity="0.4"><line stroke-width="5.0e-3" transform="rotate(-90.0, -0.8915, 0.5)" x1="-0.8915" y1="0.515" x2="-0.8915" y2="0.485" /><line stroke-width="5.0e-3" transform="rotate(-90.0, -0.8915, 0.4)" x1="-0.8915" y1="0.41500000000000004" x2="-0.8915" y2="0.385" /><line stroke-width="5.0e-3" transform="rotate(-90.0, -0.8915, 0.3)" x1="-0.8915" y1="0.315" x2="-0.8915" y2="0.285" /><line stroke-width="5.0e-3" transform="rotate(-90.0, -0.8915, 0.19999999999999996)" x1="-0.8915" y1="0.21499999999999997" x2="-0.8915" y2="0.18499999999999994" /><line stroke-width="5.0e-3" transform="rotate(-90.0, -0.8915, 9.999999999999998e-2)" x1="-0.8915" y1="0.11499999999999998" x2="-0.8915" y2="8.499999999999998e-2" /><line stroke-width="5.0e-3" transform="rotate(-90.0, -0.8915, -0.0)" x1="-0.8915" y1="1.5e-2" x2="-0.8915" y2="-1.5e-2" /><line stroke-width="5.0e-3" transform="rotate(-90.0, -0.8915, -0.10000000000000009)" x1="-0.8915" y1="-8.500000000000009e-2" x2="-0.8915" y2="-0.11500000000000009" /><line stroke-width="5.0e-3" transform="rotate(-90.0, -0.8915, -0.20000000000000007)" x1="-0.8915" y1="-0.18500000000000005" x2="-0.8915" y2="-0.21500000000000008" /><line stroke-width="5.0e-3" transform="rotate(-90.0, -0.8915, -0.30000000000000004)" x1="-0.8915" y1="-0.28500000000000003" x2="-0.8915" y2="-0.31500000000000006" /><line stroke-width="5.0e-3" transform="rotate(-90.0, -0.8915, -0.4)" x1="-0.8915" y1="-0.385" x2="-0.8915" y2="-0.41500000000000004" /><line stroke-width="5.0e-3" transform="rotate(-90.0, -0.8915, -0.5)" x1="-0.8915" y1="-0.485" x2="-0.8915" y2="-0.515" /></g><g stroke-width="0.0" stroke="#666666" fill="#5F0391" fill-opacity="0.5" stroke-opacity="0.0"><rect width="5.0000000000000044e-3" height="1.0" x="-0.8815" y="-0.5" /></g><g stroke-width="5.0e-3" stroke="#A8E5EE" fill="none" stroke-opacity="0.3"><polyline points="-0.85,0.5 -0.85,-0.5" /></g><g stroke-width="5.0e-3" stroke="#A8E5EE" fill="none" stroke-opacity="0.3"><polyline points="-0.6071428571428572,0.5 -0.6071428571428572,-0.5" /></g><g stroke-width="5.0e-3" stroke="#A8E5EE" fill="none" stroke-opacity="0.3"><polyline points="-0.3642857142857143,0.5 -0.3642857142857143,-0.5" /></g><g stroke-width="5.0e-3" stroke="#A8E5EE" fill="none" stroke-opacity="0.3"><polyline points="-0.12142857142857144,0.5 -0.12142857142857144,-0.5" /></g><g stroke-width="5.0e-3" stroke="#A8E5EE" fill="none" stroke-opacity="0.3"><polyline points="0.12142857142857133,0.5 0.12142857142857133,-0.5" /></g><g stroke-width="5.0e-3" stroke="#A8E5EE" fill="none" stroke-opacity="0.3"><polyline points="0.3642857142857142,0.5 0.3642857142857142,-0.5" /></g><g stroke-width="5.0e-3" stroke="#A8E5EE" fill="none" stroke-opacity="0.3"><polyline points="0.6071428571428571,0.5 0.6071428571428571,-0.5" /></g><g stroke-width="5.0e-3" stroke="#A8E5EE" fill="none" stroke-opacity="0.3"><polyline points="0.85,0.5 0.85,-0.5" /></g><g stroke-width="0.0" stroke="none" fill="#666666" fill-opacity="1.0" font-size="5.0e-2" text-anchor="middle"><text x="-0.85" y="0.6300109476841367">0</text></g><g stroke-width="0.0" stroke="none" fill="#666666" fill-opacity="1.0" font-size="5.0e-2" text-anchor="middle"><text x="-0.6071428571428572" y="0.6300109476841367">1</text></g><g stroke-width="0.0" stroke="none" fill="#666666" fill-opacity="1.0" font-size="5.0e-2" text-anchor="middle"><text x="-0.3642857142857143" y="0.6300109476841367">2</text></g><g stroke-width="0.0" stroke="none" fill="#666666" fill-opacity="1.0" font-size="5.0e-2" text-anchor="middle"><text x="-0.12142857142857144" y="0.6300109476841367">3</text></g><g stroke-width="0.0" stroke="none" fill="#666666" fill-opacity="1.0" font-size="5.0e-2" text-anchor="middle"><text x="0.12142857142857133" y="0.6300109476841367">4</text></g><g stroke-width="0.0" stroke="none" fill="#666666" fill-opacity="1.0" font-size="5.0e-2" text-anchor="middle"><text x="0.3642857142857142" y="0.6300109476841367">5</text></g><g stroke-width="0.0" stroke="none" fill="#666666" fill-opacity="1.0" font-size="5.0e-2" text-anchor="middle"><text x="0.6071428571428571" y="0.6300109476841367">6</text></g><g stroke-width="0.0" stroke="none" fill="#666666" fill-opacity="1.0" font-size="5.0e-2" text-anchor="middle"><text x="0.85" y="0.6300109476841367">7</text></g><g stroke-width="0.0" stroke="#2C429D" fill="#5F0391" fill-opacity="1.0" stroke-opacity="0.4"><line stroke-width="5.0e-3" x1="-0.85" y1="0.5537609476841366" x2="-0.85" y2="0.5237609476841366" /><line stroke-width="5.0e-3" x1="-0.6071428571428572" y1="0.5537609476841366" x2="-0.6071428571428572" y2="0.5237609476841366" /><line stroke-width="5.0e-3" x1="-0.3642857142857143" y1="0.5537609476841366" x2="-0.3642857142857143" y2="0.5237609476841366" /><line stroke-width="5.0e-3" x1="-0.12142857142857144" y1="0.5537609476841366" x2="-0.12142857142857144" y2="0.5237609476841366" /><line stroke-width="5.0e-3" x1="0.12142857142857133" y1="0.5537609476841366" x2="0.12142857142857133" y2="0.5237609476841366" /><line stroke-width="5.0e-3" x1="0.3642857142857142" y1="0.5537609476841366" x2="0.3642857142857142" y2="0.5237609476841366" /><line stroke-width="5.0e-3" x1="0.6071428571428571" y1="0.5537609476841366" x2="0.6071428571428571" y2="0.5237609476841366" /><line stroke-width="5.0e-3" x1="0.85" y1="0.5537609476841366" x2="0.85" y2="0.5237609476841366" /></g><g stroke-width="0.0" stroke="#666666" fill="#5F0391" fill-opacity="0.5" stroke-opacity="0.0"><rect width="1.7" height="5.0000000000000044e-3" x="-0.85" y="0.5237609476841366" /></g><g stroke-width="3.0e-3" stroke="#2C429D" fill="#D99721" fill-opacity="0.8" stroke-opacity="0.4"><rect width="3.0000000000000027e-2" height="3.0e-2" x="-0.865" y="-1.5e-2" /><rect width="3.0000000000000027e-2" height="3.0e-2" x="-0.8141361189418795" y="-0.1189558454088797" /><rect width="3.0000000000000027e-2" height="3.0000000000000027e-2" x="-0.7632722378837591" y="-0.2183683215379001" /><rect width="3.0000000000000027e-2" height="3.0000000000000027e-2" x="-0.7124083568256386" y="-0.3088926261462366" /><rect width="3.0000000000000027e-2" height="3.0000000000000027e-2" x="-0.6615444757675182" y="-0.386572412738697" /><rect width="3.0000000000000027e-2" height="3.0000000000000027e-2" x="-0.6106805947093977" y="-0.4480127018922193" /><rect width="3.0000000000000027e-2" height="3.0000000000000027e-2" x="-0.5598167136512772" y="-0.49052825814757683" /><rect width="3.0000000000000027e-2" height="3.0000000000000027e-2" x="-0.5089528325931568" y="-0.5122609476841367" /><rect width="3.0000000000000027e-2" height="3.0000000000000027e-2" x="-0.45808895153503637" y="-0.5122609476841368" /><rect width="3.0000000000000027e-2" height="3.0000000000000027e-2" x="-0.40722507047691586" y="-0.49052825814757683" /><rect width="3.0000000000000027e-2" height="3.0000000000000027e-2" x="-0.35636118941879547" y="-0.4480127018922194" /><rect width="3.0000000000000027e-2" height="3.0000000000000027e-2" x="-0.3054973083606751" y="-0.38657241273869725" /><rect width="3.0000000000000027e-2" height="3.0000000000000027e-2" x="-0.25463342730255445" y="-0.3088926261462367" /><rect width="3.0000000000000027e-2" height="3.0000000000000027e-2" x="-0.2037695462444341" y="-0.2183683215379002" /><rect width="3.0000000000000013e-2" height="3.0e-2" x="-0.15290566518631366" y="-0.11895584540887981" /><rect width="3.0e-2" height="3.0e-2" x="-0.10204178412819308" y="-1.500000000000011e-2" /><rect width="3.0e-2" height="3.0e-2" x="-5.1177903070072736e-2" y="8.895584540887953e-2" /><rect width="3.0e-2" height="3.0000000000000027e-2" x="-3.140220119522835e-4" y="0.1883683215378999" /><rect width="3.0e-2" height="3.0000000000000027e-2" x="5.054985904616828e-2" y="0.2788926261462365" /><rect width="3.0000000000000013e-2" height="3.0000000000000027e-2" x="0.10141374010428862" y="0.356572412738697" /><rect width="3.0000000000000027e-2" height="3.0000000000000027e-2" x="0.15227762116240906" y="0.4180127018922192" /><rect width="3.0000000000000027e-2" height="3.0000000000000027e-2" x="0.20314150222052962" y="0.46052825814757675" /><rect width="3.0000000000000027e-2" height="3.0000000000000027e-2" x="0.25400538327864974" y="0.48226094768413663" /><rect width="3.0000000000000027e-2" height="2.999999999999997e-2" x="0.30486926433677053" y="0.4822609476841367" /><rect width="3.0000000000000027e-2" height="3.0000000000000027e-2" x="0.3557331453948911" y="0.4605282581475768" /><rect width="3.0000000000000027e-2" height="3.0000000000000027e-2" x="0.4065970264530112" y="0.4180127018922195" /><rect width="3.0000000000000027e-2" height="3.0000000000000027e-2" x="0.4574609075111318" y="0.35657241273869733" /><rect width="3.0000000000000027e-2" height="3.0000000000000027e-2" x="0.5083247885692523" y="0.2788926261462366" /><rect width="3.0000000000000027e-2" height="3.0000000000000027e-2" x="0.5591886696273727" y="0.18836832153790045" /><rect width="3.0000000000000027e-2" height="3.0e-2" x="0.6100525506854932" y="8.895584540887992e-2" /><rect width="3.0000000000000027e-2" height="3.0e-2" x="0.6609164317436138" y="-1.4999999999999888e-2" /></g><g /></svg>