<?xml version="1.0" encoding="UTF-8"?>
<!DOCTYPE svg PUBLIC "-//W3C//DTD SVG 1.1//EN"
    "http://www.w3.org/Graphics/SVG/1.1/DTD/svg11.dtd">
<svg xmlns="http://www.w3.org/2000/svg" height="300.0" viewBox="-0.685 -0.52 1.37 1.04" width="399.0" xmlns:xlink="http://www.w3.org/1999/xlink" version="1.11.1">
  <style type="text/css">{ shape-rendering: &#39;crispEdges&#39;; }
  </style>
  <defs>
  </defs>
  <g stroke-opacity="0.0" fill-opacity="3.0e-2" stroke="#000000" stroke-width="0.0" fill="#666666">
    <rect height="1.0" width="1.33" x="-0.665" y="-0.5"/>
  </g>
  <g stroke-opacity="0.3" stroke="#a8e5ee" stroke-width="5.0e-3" fill="none">
    <polyline points="-0.67,0.5
0.67,0.5"/>
  </g>
  <g stroke-opacity="0.3" stroke="#a8e5ee" stroke-width="5.0e-3" fill="none">
    <polyline points="-0.67,0.4166666666666667
0.67,0.4166666666666667"/>
  </g>
  <g stroke-opacity="0.3" stroke="#a8e5ee" stroke-width="5.0e-3" fill="none">
    <polyline points="-0.67,0.33333333333333337
0.67,0.33333333333333337"/>
  </g>
  <g stroke-opacity="0.3" stroke="#a8e5ee" stroke-width="5.0e-3" fill="none">
    <polyline points="-0.67,0.25
0.67,0.25"/>
  </g>
  <g stroke-opacity="0.3" stroke="#a8e5ee" stroke-width="5.0e-3" fill="none">
    <polyline points="-0.67,0.16666666666666669
0.67,0.16666666666666669"/>
  </g>
  <g stroke-opacity="0.3" stroke="#a8e5ee" stroke-width="5.0e-3" fill="none">
    <polyline points="-0.67,8.333333333333337e-2
0.67,8.333333333333337e-2"/>
  </g>
  <g stroke-opacity="0.3" stroke="#a8e5ee" stroke-width="5.0e-3" fill="none">
    <polyline points="-0.67,-0.0
0.67,-0.0"/>
  </g>
  <g stroke-opacity="0.3" stroke="#a8e5ee" stroke-width="5.0e-3" fill="none">
    <polyline points="-0.67,-8.333333333333326e-2
0.67,-8.333333333333326e-2"/>
  </g>
  <g stroke-opacity="0.3" stroke="#a8e5ee" stroke-width="5.0e-3" fill="none">
    <polyline points="-0.67,-0.16666666666666663
0.67,-0.16666666666666663"/>
  </g>
  <g stroke-opacity="0.3" stroke="#a8e5ee" stroke-width="5.0e-3" fill="none">
    <polyline points="-0.67,-0.2499999999999999
0.67,-0.2499999999999999"/>
  </g>
  <g stroke-opacity="0.3" stroke="#a8e5ee" stroke-width="5.0e-3" fill="none">
    <polyline points="-0.67,-0.33333333333333326
0.67,-0.33333333333333326"/>
  </g>
  <g stroke-opacity="0.3" stroke="#a8e5ee" stroke-width="5.0e-3" fill="none">
    <polyline points="-0.67,-0.41666666666666663
0.67,-0.41666666666666663"/>
  </g>
  <g stroke-opacity="0.3" stroke="#a8e5ee" stroke-width="5.0e-3" fill="none">
    <polyline points="-0.67,-0.5
0.67,-0.5"/>
  </g>
  <g fill-opacity="1.0" font-size="5.0e-2" stroke="none" stroke-width="0.0" fill="#666666" text-anchor="end">
    <text x="-0.7475750000000001" y="0.5145">-1.2
    </text>
  </g>
  <g fill-opacity="1.0" font-size="5.0e-2" stroke="none" stroke-width="0.0" fill="#666666" text-anchor="end">
    <text x="-0.7475750000000001" y="0.4311666666666667">-1.0
    </text>
  </g>
  <g fill-opacity="1.0" font-size="5.0e-2" stroke="none" stroke-width="0.0" fill="#666666" text-anchor="end">
    <text x="-0.7475750000000001" y="0.3478333333333334">-0.8
    </text>
  </g>
  <g fill-opacity="1.0" font-size="5.0e-2" stroke="none" stroke-width="0.0" fill="#666666" text-anchor="end">
    <text x="-0.7475750000000001" y="0.2645">-0.6
    </text>
  </g>
  <g fill-opacity="1.0" font-size="5.0e-2" stroke="none" stroke-width="0.0" fill="#666666" text-anchor="end">
    <text x="-0.7475750000000001" y="0.1811666666666667">-0.4
    </text>
  </g>
  <g fill-opacity="1.0" font-size="5.0e-2" stroke="none" stroke-width="0.0" fill="#666666" text-anchor="end">
    <text x="-0.7475750000000001" y="9.783333333333337e-2">-0.2
    </text>
  </g>
  <g fill-opacity="1.0" font-size="5.0e-2" stroke="none" stroke-width="0.0" fill="#666666" text-anchor="end">
    <text x="-0.7475750000000001" y="1.4499999999999999e-2">0.0
    </text>
  </g>
  <g fill-opacity="1.0" font-size="5.0e-2" stroke="none" stroke-width="0.0" fill="#666666" text-anchor="end">
    <text x="-0.7475750000000001" y="-6.883333333333326e-2">0.2
    </text>
  </g>
  <g fill-opacity="1.0" font-size="5.0e-2" stroke="none" stroke-width="0.0" fill="#666666" text-anchor="end">
    <text x="-0.7475750000000001" y="-0.15216666666666662">0.4
    </text>
  </g>
  <g fill-opacity="1.0" font-size="5.0e-2" stroke="none" stroke-width="0.0" fill="#666666" text-anchor="end">
    <text x="-0.7475750000000001" y="-0.23549999999999988">0.6
    </text>
  </g>
  <g fill-opacity="1.0" font-size="5.0e-2" stroke="none" stroke-width="0.0" fill="#666666" text-anchor="end">
    <text x="-0.7475750000000001" y="-0.31883333333333325">0.8
    </text>
  </g>
  <g fill-opacity="1.0" font-size="5.0e-2" stroke="none" stroke-width="0.0" fill="#666666" text-anchor="end">
    <text x="-0.7475750000000001" y="-0.4021666666666666">1.0
    </text>
  </g>
  <g fill-opacity="1.0" font-size="5.0e-2" stroke="none" stroke-width="0.0" fill="#666666" text-anchor="end">
    <text x="-0.7475750000000001" y="-0.4855">1.2
    </text>
  </g>
  <g stroke-opacity="0.4" fill-opacity="1.0" stroke="#2c429d" stroke-width="5.0e-3" fill="#5f0391">
    <g transform="rotate(-90.0, -0.7150000000000001, 0.5)">
      <polyline points="-0.7150000000000001,0.515
-0.7150000000000001,0.485"/>
    </g>
    <g transform="rotate(-90.0, -0.7150000000000001, 0.4166666666666667)">
      <polyline points="-0.7150000000000001,0.4316666666666667
-0.7150000000000001,0.40166666666666667"/>
    </g>
    <g transform="rotate(-90.0, -0.7150000000000001, 0.33333333333333337)">
      <polyline points="-0.7150000000000001,0.3483333333333334
-0.7150000000000001,0.31833333333333336"/>
    </g>
    <g transform="rotate(-90.0, -0.7150000000000001, 0.25)">
      <polyline points="-0.7150000000000001,0.265
-0.7150000000000001,0.235"/>
    </g>
    <g transform="rotate(-90.0, -0.7150000000000001, 0.16666666666666669)">
      <polyline points="-0.7150000000000001,0.1816666666666667
-0.7150000000000001,0.15166666666666667"/>
    </g>
    <g transform="rotate(-90.0, -0.7150000000000001, 8.333333333333337e-2)">
      <polyline points="-0.7150000000000001,9.833333333333337e-2
-0.7150000000000001,6.833333333333337e-2"/>
    </g>
    <g transform="rotate(-90.0, -0.7150000000000001, -0.0)">
      <polyline points="-0.7150000000000001,1.5e-2
-0.7150000000000001,-1.5e-2"/>
    </g>
    <g transform="rotate(-90.0, -0.7150000000000001, -8.333333333333326e-2)">
      <polyline points="-0.7150000000000001,-6.833333333333326e-2
-0.7150000000000001,-9.833333333333326e-2"/>
    </g>
    <g transform="rotate(-90.0, -0.7150000000000001, -0.16666666666666663)">
      <polyline points="-0.7150000000000001,-0.15166666666666662
-0.7150000000000001,-0.18166666666666664"/>
    </g>
    <g transform="rotate(-90.0, -0.7150000000000001, -0.2499999999999999)">
      <polyline points="-0.7150000000000001,-0.23499999999999988
-0.7150000000000001,-0.2649999999999999"/>
    </g>
    <g transform="rotate(-90.0, -0.7150000000000001, -0.33333333333333326)">
      <polyline points="-0.7150000000000001,-0.31833333333333325
-0.7150000000000001,-0.3483333333333333"/>
    </g>
    <g transform="rotate(-90.0, -0.7150000000000001, -0.41666666666666663)">
      <polyline points="-0.7150000000000001,-0.4016666666666666
-0.7150000000000001,-0.43166666666666664"/>
    </g>
    <g transform="rotate(-90.0, -0.7150000000000001, -0.5)">
      <polyline points="-0.7150000000000001,-0.485
-0.7150000000000001,-0.515"/>
    </g>
  </g>
  <g stroke-opacity="0.0" fill-opacity="0.5" stroke="#666666" stroke-width="0.0" fill="#5f0391">
    <rect height="1.0" width="5.0000000000000044e-3" x="-0.7050000000000001" y="-0.5"/>
  </g>
  <g stroke-opacity="0.3" stroke="#a8e5ee" stroke-width="5.0e-3" fill="none">
    <polyline points="-0.665,0.505
-0.665,-0.505"/>
  </g>
  <g stroke-opacity="0.3" stroke="#a8e5ee" stroke-width="5.0e-3" fill="none">
    <polyline points="-0.49875,0.505
-0.49875,-0.505"/>
  </g>
  <g stroke-opacity="0.3" stroke="#a8e5ee" stroke-width="5.0e-3" fill="none">
    <polyline points="-0.3325,0.505
-0.3325,-0.505"/>
  </g>
  <g stroke-opacity="0.3" stroke="#a8e5ee" stroke-width="5.0e-3" fill="none">
    <polyline points="-0.16625,0.505
-0.16625,-0.505"/>
  </g>
  <g stroke-opacity="0.3" stroke="#a8e5ee" stroke-width="5.0e-3" fill="none">
    <polyline points="0.0,0.505
0.0,-0.505"/>
  </g>
  <g stroke-opacity="0.3" stroke="#a8e5ee" stroke-width="5.0e-3" fill="none">
    <polyline points="0.16625,0.505
0.16625,-0.505"/>
  </g>
  <g stroke-opacity="0.3" stroke="#a8e5ee" stroke-width="5.0e-3" fill="none">
    <polyline points="0.3325,0.505
0.3325,-0.505"/>
  </g>
  <g stroke-opacity="0.3" stroke="#a8e5ee" stroke-width="5.0e-3" fill="none">
    <polyline points="0.49875,0.505
0.49875,-0.505"/>
  </g>
  <g stroke-opacity="0.3" stroke="#a8e5ee" stroke-width="5.0e-3" fill="none">
    <polyline points="0.665,0.505
0.665,-0.505"/>
  </g>
  <g fill-opacity="1.0" font-size="5.0e-2" stroke="none" stroke-width="0.0" fill="#666666" text-anchor="middle">
    <text x="-0.665" y="0.60875">-1
    </text>
  </g>
  <g fill-opacity="1.0" font-size="5.0e-2" stroke="none" stroke-width="0.0" fill="#666666" text-anchor="middle">
    <text x="-0.49875" y="0.60875">0
    </text>
  </g>
  <g fill-opacity="1.0" font-size="5.0e-2" stroke="none" stroke-width="0.0" fill="#666666" text-anchor="middle">
    <text x="-0.3325" y="0.60875">1
    </text>
  </g>
  <g fill-opacity="1.0" font-size="5.0e-2" stroke="none" stroke-width="0.0" fill="#666666" text-anchor="middle">
    <text x="-0.16625" y="0.60875">2
    </text>
  </g>
  <g fill-opacity="1.0" font-size="5.0e-2" stroke="none" stroke-width="0.0" fill="#666666" text-anchor="middle">
    <text x="0.0" y="0.60875">3
    </text>
  </g>
  <g fill-opacity="1.0" font-size="5.0e-2" stroke="none" stroke-width="0.0" fill="#666666" text-anchor="middle">
    <text x="0.16625" y="0.60875">4
    </text>
  </g>
  <g fill-opacity="1.0" font-size="5.0e-2" stroke="none" stroke-width="0.0" fill="#666666" text-anchor="middle">
    <text x="0.3325" y="0.60875">5
    </text>
  </g>
  <g fill-opacity="1.0" font-size="5.0e-2" stroke="none" stroke-width="0.0" fill="#666666" text-anchor="middle">
    <text x="0.49875" y="0.60875">6
    </text>
  </g>
  <g fill-opacity="1.0" font-size="5.0e-2" stroke="none" stroke-width="0.0" fill="#666666" text-anchor="middle">
    <text x="0.665" y="0.60875">7
    </text>
  </g>
  <g stroke-opacity="0.4" fill-opacity="1.0" stroke="#2c429d" stroke-width="5.0e-3" fill="#5f0391">
    <polyline points="-0.665,0.54
-0.665,0.51"/>
    <polyline points="-0.49875,0.54
-0.49875,0.51"/>
    <polyline points="-0.3325,0.54
-0.3325,0.51"/>
    <polyline points="-0.16625,0.54
-0.16625,0.51"/>
    <polyline points="0.0,0.54
0.0,0.51"/>
    <polyline points="0.16625,0.54
0.16625,0.51"/>
    <polyline points="0.3325,0.54
0.3325,0.51"/>
    <polyline points="0.49875,0.54
0.49875,0.51"/>
    <polyline points="0.665,0.54
0.665,0.51"/>
  </g>
  <g stroke-opacity="0.0" fill-opacity="0.5" stroke="#666666" stroke-width="0.0" fill="#5f0391">
    <rect height="5.0000000000000044e-3" width="1.33" x="-0.665" y="0.51"/>
  </g>
  <g stroke-opacity="0.4" fill-opacity="0.8" stroke="#2c429d" stroke-width="3.0e-3" fill="#d99721">
    <rect height="3.0e-2" width="3.0000000000000027e-2" x="-0.51375" y="-1.5e-2"/>
    <rect height="3.0e-2" width="3.0000000000000027e-2" x="-0.4789306814227131" y="-0.1016298711740664"/>
    <rect height="3.0000000000000027e-2" width="3.0000000000000027e-2" x="-0.4441113628454263" y="-0.1844736012815834"/>
    <rect height="3.0000000000000027e-2" width="3.0000000000000027e-2" x="-0.4092920442681394" y="-0.25991052178853047"/>
    <rect height="3.0000000000000027e-2" width="3.0000000000000027e-2" x="-0.37447272569085255" y="-0.3246436772822475"/>
    <rect height="3.0000000000000027e-2" width="3.0000000000000027e-2" x="-0.33965340711356573" y="-0.37584391824351604"/>
    <rect height="3.0000000000000027e-2" width="3.0000000000000027e-2" x="-0.3048340885362788" y="-0.41127354845631403"/>
    <rect height="3.0000000000000027e-2" width="3.0000000000000027e-2" x="-0.27001476995899193" y="-0.429384123070114"/>
    <rect height="3.0000000000000027e-2" width="3.0000000000000027e-2" x="-0.2351954513817051" y="-0.429384123070114"/>
    <rect height="3.0000000000000027e-2" width="3.0000000000000027e-2" x="-0.20037613280441818" y="-0.41127354845631403"/>
    <rect height="3.0000000000000027e-2" width="3.0000000000000027e-2" x="-0.1655568142271313" y="-0.37584391824351615"/>
    <rect height="3.0000000000000027e-2" width="3.0000000000000013e-2" x="-0.1307374956498445" y="-0.32464367728224774"/>
    <rect height="3.0000000000000027e-2" width="3.0e-2" x="-9.591817707255755e-2" y="-0.2599105217885306"/>
    <rect height="3.0000000000000027e-2" width="3.0e-2" x="-6.109885849527062e-2" y="-0.18447360128158352"/>
    <rect height="3.0e-2" width="3.0e-2" x="-2.6279539917983805e-2" y="-0.10162987117406651"/>
    <rect height="3.0e-2" width="3.0e-2" x="8.539778659303124e-3" y="-1.500000000000011e-2"/>
    <rect height="3.0e-2" width="3.0e-2" x="4.335909723658983e-2" y="7.162987117406623e-2"/>
    <rect height="3.0000000000000027e-2" width="3.0e-2" x="7.817841581387676e-2" y="0.15447360128158322"/>
    <rect height="3.0000000000000027e-2" width="3.0000000000000013e-2" x="0.11299773439116369" y="0.2299105217885304"/>
    <rect height="3.0000000000000027e-2" width="3.0000000000000027e-2" x="0.1478170529684505" y="0.29464367728224744"/>
    <rect height="3.0000000000000027e-2" width="3.0000000000000027e-2" x="0.18263637154573742" y="0.3458439182435159"/>
    <rect height="3.0000000000000027e-2" width="3.0000000000000027e-2" x="0.21745569012302435" y="0.3812735484563139"/>
    <rect height="3.0000000000000027e-2" width="3.0000000000000027e-2" x="0.25227500870031117" y="0.3993841230701138"/>
    <rect height="3.0000000000000027e-2" width="3.0000000000000027e-2" x="0.2870943272775981" y="0.39938412307011384"/>
    <rect height="3.0000000000000027e-2" width="3.0000000000000027e-2" x="0.3219136458548849" y="0.38127354845631395"/>
    <rect height="3.0000000000000027e-2" width="3.0000000000000027e-2" x="0.35673296443217184" y="0.3458439182435162"/>
    <rect height="3.0000000000000027e-2" width="3.0000000000000027e-2" x="0.39155228300945877" y="0.2946436772822477"/>
    <rect height="3.0000000000000027e-2" width="3.0000000000000027e-2" x="0.4263716015867457" y="0.22991052178853044"/>
    <rect height="3.0000000000000027e-2" width="3.0000000000000027e-2" x="0.4611909201640324" y="0.15447360128158366"/>
    <rect height="3.0e-2" width="3.0000000000000027e-2" x="0.49601023874131933" y="7.162987117406656e-2"/>
    <rect height="3.0e-2" width="3.0000000000000027e-2" x="0.5308295573186063" y="-1.4999999999999944e-2"/>
  </g>
</svg>