<svg viewBox="-0.7803 -0.5394951720472642 1.4665276478325011 1.076270172047264" xmlns="http://www.w3.org/2000/svg" xmlns:xlink="http://www.w3.org/1999/xlink" version="1.1" width="800.0" height="600.0"><g stroke-width="0.0" stroke="#000000" fill="#666666" fill-opacity="3.0e-2" stroke-opacity="0.0"><rect width="1.2575938005438745" height="0.88888023895103" x="-0.5973215967865204" y="-0.4955555988052449" /></g><g stroke-width="5.0e-3" stroke="#A8E5EE" fill="none" stroke-opacity="0.3"><polyline points="-0.6020493930291666,0.39332464014578505 0.665,0.39332464014578505" /></g><g stroke-width="5.0e-3" stroke="#A8E5EE" fill="none" stroke-opacity="0.3"><polyline points="-0.6020493930291666,0.3044366162506821 0.665,0.3044366162506821" /></g><g stroke-width="5.0e-3" stroke="#A8E5EE" fill="none" stroke-opacity="0.3"><polyline points="-0.6020493930291666,0.21554859235557905 0.665,0.21554859235557905" /></g><g stroke-width="5.0e-3" stroke="#A8E5EE" fill="none" stroke-opacity="0.3"><polyline points="-0.6020493930291666,0.12666056846047602 0.665,0.12666056846047602" /></g><g stroke-width="5.0e-3" stroke="#A8E5EE" fill="none" stroke-opacity="0.3"><polyline points="-0.6020493930291666,3.7772544565373045e-2 0.665,3.7772544565373045e-2" /></g><g stroke-width="5.0e-3" stroke="#A8E5EE" fill="none" stroke-opacity="0.3"><polyline points="-0.6020493930291666,-5.111547932972993e-2 0.665,-5.111547932972993e-2" /></g><g stroke-width="5.0e-3" stroke="#A8E5EE" fill="none" stroke-opacity="0.3"><polyline points="-0.6020493930291666,-0.14000350322483301 0.665,-0.14000350322483301" /></g><g stroke-width="5.0e-3" stroke="#A8E5EE" fill="none" stroke-opacity="0.3"><polyline points="-0.6020493930291666,-0.228891527119936 0.665,-0.228891527119936" /></g><g stroke-width="5.0e-3" stroke="#A8E5EE" fill="none" stroke-opacity="0.3"><polyline points="-0.6020493930291666,-0.31777955101503896 0.665,-0.31777955101503896" /></g><g stroke-width="5.0e-3" stroke="#A8E5EE" fill="none" stroke-opacity="0.3"><polyline points="-0.6020493930291666,-0.4066675749101418 0.665,-0.4066675749101418" /></g><g stroke-width="5.0e-3" stroke="#A8E5EE" fill="none" stroke-opacity="0.3"><polyline points="-0.6020493930291666,-0.4955555988052449 0.665,-0.4955555988052449" /></g><g stroke-width="0.0" stroke="none" fill="#666666" fill-opacity="1.0" font-size="5.0e-2" text-anchor="end"><text x="-0.665" y="0.40621340361057495">-1.0</text></g><g stroke-width="0.0" stroke="none" fill="#666666" fill-opacity="1.0" font-size="5.0e-2" text-anchor="end"><text x="-0.665" y="0.31732537971547203">-0.8</text></g><g stroke-width="0.0" stroke="none" fill="#666666" fill-opacity="1.0" font-size="5.0e-2" text-anchor="end"><text x="-0.665" y="0.228437355820369">-0.6</text></g><g stroke-width="0.0" stroke="none" fill="#666666" fill-opacity="1.0" font-size="5.0e-2" text-anchor="end"><text x="-0.665" y="0.13954933192526597">-0.4</text></g><g stroke-width="0.0" stroke="none" fill="#666666" fill-opacity="1.0" font-size="5.0e-2" text-anchor="end"><text x="-0.665" y="5.0661308030162944e-2">-0.2</text></g><g stroke-width="0.0" stroke="none" fill="#666666" fill-opacity="1.0" font-size="5.0e-2" text-anchor="end"><text x="-0.665" y="-3.8226715864940086e-2">0.0</text></g><g stroke-width="0.0" stroke="none" fill="#666666" fill-opacity="1.0" font-size="5.0e-2" text-anchor="end"><text x="-0.665" y="-0.12711473976004317">0.2</text></g><g stroke-width="0.0" stroke="none" fill="#666666" fill-opacity="1.0" font-size="5.0e-2" text-anchor="end"><text x="-0.665" y="-0.21600276365514604">0.4</text></g><g stroke-width="0.0" stroke="none" fill="#666666" fill-opacity="1.0" font-size="5.0e-2" text-anchor="end"><text x="-0.665" y="-0.3048907875502491">0.6</text></g><g stroke-width="0.0" stroke="none" fill="#666666" fill-opacity="1.0" font-size="5.0e-2" text-anchor="end"><text x="-0.665" y="-0.393778811445352">0.8</text></g><g stroke-width="0.0" stroke="none" fill="#666666" fill-opacity="1.0" font-size="5.0e-2" text-anchor="end"><text x="-0.665" y="-0.48266683534045507">1.0</text></g><g stroke-width="0.0" stroke="#2C429D" fill="#5F0391" fill-opacity="1.0" stroke-opacity="0.4"><line stroke-width="5.0e-3" transform="rotate(-90.0, -0.6365623056004834, 0.39332464014578505)" x1="-0.6365623056004834" y1="0.40832464014578507" x2="-0.6365623056004834" y2="0.37832464014578504" /><line stroke-width="5.0e-3" transform="rotate(-90.0, -0.6365623056004834, 0.3044366162506821)" x1="-0.6365623056004834" y1="0.3194366162506821" x2="-0.6365623056004834" y2="0.28943661625068207" /><line stroke-width="5.0e-3" transform="rotate(-90.0, -0.6365623056004834, 0.21554859235557905)" x1="-0.6365623056004834" y1="0.23054859235557906" x2="-0.6365623056004834" y2="0.20054859235557904" /><line stroke-width="5.0e-3" transform="rotate(-90.0, -0.6365623056004834, 0.12666056846047602)" x1="-0.6365623056004834" y1="0.14166056846047603" x2="-0.6365623056004834" y2="0.11166056846047602" /><line stroke-width="5.0e-3" transform="rotate(-90.0, -0.6365623056004834, 3.7772544565373045e-2)" x1="-0.6365623056004834" y1="5.2772544565373045e-2" x2="-0.6365623056004834" y2="2.2772544565373046e-2" /><line stroke-width="5.0e-3" transform="rotate(-90.0, -0.6365623056004834, -5.111547932972993e-2)" x1="-0.6365623056004834" y1="-3.611547932972993e-2" x2="-0.6365623056004834" y2="-6.611547932972993e-2" /><line stroke-width="5.0e-3" transform="rotate(-90.0, -0.6365623056004834, -0.14000350322483301)" x1="-0.6365623056004834" y1="-0.125003503224833" x2="-0.6365623056004834" y2="-0.15500350322483303" /><line stroke-width="5.0e-3" transform="rotate(-90.0, -0.6365623056004834, -0.228891527119936)" x1="-0.6365623056004834" y1="-0.21389152711993598" x2="-0.6365623056004834" y2="-0.243891527119936" /><line stroke-width="5.0e-3" transform="rotate(-90.0, -0.6365623056004834, -0.31777955101503896)" x1="-0.6365623056004834" y1="-0.30277955101503895" x2="-0.6365623056004834" y2="-0.332779551015039" /><line stroke-width="5.0e-3" transform="rotate(-90.0, -0.6365623056004834, -0.4066675749101418)" x1="-0.6365623056004834" y1="-0.3916675749101418" x2="-0.6365623056004834" y2="-0.42166757491014184" /><line stroke-width="5.0e-3" transform="rotate(-90.0, -0.6365623056004834, -0.4955555988052449)" x1="-0.6365623056004834" y1="-0.4805555988052449" x2="-0.6365623056004834" y2="-0.5105555988052449" /></g><g stroke-width="0.0" stroke="#666666" fill="#5F0391" fill-opacity="0.5" stroke-opacity="0.0"><rect width="4.727796242646076e-3" height="0.88888023895103" x="-0.6271067131151911" y="-0.4955555988052449" /></g><g stroke-width="5.0e-3" stroke="#A8E5EE" fill="none" stroke-opacity="0.3"><polyline points="-0.5973215967865204,0.3977690413405402 -0.5973215967865204,-0.5" /></g><g stroke-width="5.0e-3" stroke="#A8E5EE" fill="none" stroke-opacity="0.3"><polyline points="-0.41766533956596696,0.3977690413405402 -0.41766533956596696,-0.5" /></g><g stroke-width="5.0e-3" stroke="#A8E5EE" fill="none" stroke-opacity="0.3"><polyline points="-0.23800908234541351,0.3977690413405402 -0.23800908234541351,-0.5" /></g><g stroke-width="5.0e-3" stroke="#A8E5EE" fill="none" stroke-opacity="0.3"><polyline points="-5.8352825124860064e-2,0.3977690413405402 -5.8352825124860064e-2,-0.5" /></g><g stroke-width="5.0e-3" stroke="#A8E5EE" fill="none" stroke-opacity="0.3"><polyline points="0.12130343209569339,0.3977690413405402 0.12130343209569339,-0.5" /></g><g stroke-width="5.0e-3" stroke="#A8E5EE" fill="none" stroke-opacity="0.3"><polyline points="0.30095968931624706,0.3977690413405402 0.30095968931624706,-0.5" /></g><g stroke-width="5.0e-3" stroke="#A8E5EE" fill="none" stroke-opacity="0.3"><polyline points="0.4806159465368003,0.3977690413405402 0.4806159465368003,-0.5" /></g><g stroke-width="5.0e-3" stroke="#A8E5EE" fill="none" stroke-opacity="0.3"><polyline points="0.6602722037573541,0.3977690413405402 0.6602722037573541,-0.5" /></g><g stroke-width="0.0" stroke="none" fill="#666666" fill-opacity="1.0" font-size="5.0e-2" text-anchor="middle"><text x="-0.5973215967865204" y="0.5">0</text></g><g stroke-width="0.0" stroke="none" fill="#666666" fill-opacity="1.0" font-size="5.0e-2" text-anchor="middle"><text x="-0.41766533956596696" y="0.5">1</text></g><g stroke-width="0.0" stroke="none" fill="#666666" fill-opacity="1.0" font-size="5.0e-2" text-anchor="middle"><text x="-0.23800908234541351" y="0.5">2</text></g><g stroke-width="0.0" stroke="none" fill="#666666" fill-opacity="1.0" font-size="5.0e-2" text-anchor="middle"><text x="-5.8352825124860064e-2" y="0.5">3</text></g><g stroke-width="0.0" stroke="none" fill="#666666" fill-opacity="1.0" font-size="5.0e-2" text-anchor="middle"><text x="0.12130343209569339" y="0.5">4</text></g><g stroke-width="0.0" stroke="none" fill="#666666" fill-opacity="1.0" font-size="5.0e-2" text-anchor="middle"><text x="0.30095968931624706" y="0.5">5</text></g><g stroke-width="0.0" stroke="none" fill="#666666" fill-opacity="1.0" font-size="5.0e-2" text-anchor="middle"><text x="0.4806159465368003" y="0.5">6</text></g><g stroke-width="0.0" stroke="none" fill="#666666" fill-opacity="1.0" font-size="5.0e-2" text-anchor="middle"><text x="0.6602722037573541" y="0.5">7</text></g><g stroke-width="0.0" stroke="#2C429D" fill="#5F0391" fill-opacity="1.0" stroke-opacity="0.4"><line stroke-width="5.0e-3" x1="-0.5973215967865204" y1="0.4427784805852288" x2="-0.5973215967865204" y2="0.41277848058522876" /><line stroke-width="5.0e-3" x1="-0.41766533956596696" y1="0.4427784805852288" x2="-0.41766533956596696" y2="0.41277848058522876" /><line stroke-width="5.0e-3" x1="-0.23800908234541351" y1="0.4427784805852288" x2="-0.23800908234541351" y2="0.41277848058522876" /><line stroke-width="5.0e-3" x1="-5.8352825124860064e-2" y1="0.4427784805852288" x2="-5.8352825124860064e-2" y2="0.41277848058522876" /><line stroke-width="5.0e-3" x1="0.12130343209569339" y1="0.4427784805852288" x2="0.12130343209569339" y2="0.41277848058522876" /><line stroke-width="5.0e-3" x1="0.30095968931624706" y1="0.4427784805852288" x2="0.30095968931624706" y2="0.41277848058522876" /><line stroke-width="5.0e-3" x1="0.4806159465368003" y1="0.4427784805852288" x2="0.4806159465368003" y2="0.41277848058522876" /><line stroke-width="5.0e-3" x1="0.6602722037573541" y1="0.4427784805852288" x2="0.6602722037573541" y2="0.41277848058522876" /></g><g stroke-width="0.0" stroke="#666666" fill="#5F0391" fill-opacity="0.5" stroke-opacity="0.0"><rect width="1.2575938005438745" height="4.444401194755143e-3" x="-0.5973215967865204" y="0.41444527700096334" /></g><g stroke-width="3.0e-3" stroke="#2C429D" fill="#D99721" fill-opacity="0.8" stroke-opacity="0.4"><rect width="3.0000000000000027e-2" height="3.0e-2" x="-0.6123215967865204" y="-6.611547932972993e-2" /><rect width="3.0000000000000027e-2" height="3.0000000000000027e-2" x="-0.5746944782628185" y="-0.1585197760371313" /><rect width="3.0000000000000027e-2" height="3.0000000000000027e-2" x="-0.5370673597391166" y="-0.24688556157340846" /><rect width="3.0000000000000027e-2" height="3.0000000000000027e-2" x="-0.49944024121541464" y="-0.32735082708454244" /><rect width="3.0000000000000027e-2" height="3.0000000000000027e-2" x="-0.4618131226917127" y="-0.39639885435251365" /><rect width="3.0000000000000027e-2" height="3.0000000000000027e-2" x="-0.42418600416801083" y="-0.4510119132565169" /><rect width="3.0000000000000027e-2" height="3.0000000000000027e-2" x="-0.3865588856443088" y="-0.4888031510599151" /><rect width="3.0000000000000027e-2" height="3.0000000000000027e-2" x="-0.348931767120607" y="-0.5081209093282211" /><rect width="3.0000000000000027e-2" height="3.0000000000000027e-2" x="-0.31130464859690493" y="-0.5081209093282211" /><rect width="3.0000000000000027e-2" height="3.0000000000000027e-2" x="-0.27367753007320306" y="-0.4888031510599151" /><rect width="3.0000000000000027e-2" height="3.0000000000000027e-2" x="-0.23605041154950113" y="-0.451011913256517" /><rect width="3.0000000000000027e-2" height="3.0000000000000027e-2" x="-0.1984232930257992" y="-0.3963988543525139" /><rect width="3.0000000000000027e-2" height="3.0000000000000027e-2" x="-0.16079617450209727" y="-0.32735082708454255" /><rect width="3.0e-2" height="3.0000000000000027e-2" x="-0.12316905597839521" y="-0.24688556157340857" /><rect width="3.0e-2" height="3.0000000000000027e-2" x="-8.554193745469339e-2" y="-0.1585197760371314" /><rect width="3.0e-2" height="3.0e-2" x="-4.791481893099135e-2" y="-6.611547932973004e-2" /><rect width="3.0e-2" height="3.0e-2" x="-1.0287700407289421e-2" y="2.628881737767126e-2" /><rect width="3.0e-2" height="3.0000000000000013e-2" x="2.7339418116412287e-2" y="0.11465460291394843" /><rect width="3.0e-2" height="3.0000000000000027e-2" x="6.496653664011444e-2" y="0.1951198684250825" /><rect width="3.0000000000000013e-2" height="3.0000000000000027e-2" x="0.10259365516381626" y="0.26416789569305377" /><rect width="3.0000000000000027e-2" height="3.0000000000000027e-2" x="0.14022077368751806" y="0.3187809545970569" /><rect width="3.0000000000000027e-2" height="3.0000000000000027e-2" x="0.17784789221122022" y="0.3565721924004551" /><rect width="3.0000000000000027e-2" height="3.0000000000000027e-2" x="0.21547501073492203" y="0.375889950668761" /><rect width="3.0000000000000027e-2" height="3.0000000000000027e-2" x="0.25310212925862385" y="0.3758899506687611" /><rect width="3.0000000000000027e-2" height="3.0000000000000027e-2" x="0.2907292477823259" y="0.3565721924004552" /><rect width="3.0000000000000027e-2" height="3.0000000000000027e-2" x="0.3283563663060277" y="0.31878095459705724" /><rect width="3.0000000000000027e-2" height="3.0000000000000027e-2" x="0.36598348482973" y="0.2641678956930541" /><rect width="3.0000000000000027e-2" height="3.0000000000000027e-2" x="0.4036106033534318" y="0.19511986842508255" /><rect width="3.0000000000000027e-2" height="3.0000000000000013e-2" x="0.4412377218771334" y="0.11465460291394892" /><rect width="3.0000000000000027e-2" height="3.0e-2" x="0.47886484040083543" y="2.6288817377671594e-2" /><rect width="3.0000000000000027e-2" height="3.0e-2" x="0.5164919589245375" y="-6.611547932972982e-2" /></g><g /></svg>