<svg viewBox="-0.8533065000000001 -0.6964049999999999 1.5443565000000001 1.3555911666378193" xmlns="http://www.w3.org/2000/svg" xmlns:xlink="http://www.w3.org/1999/xlink" version="1.1" width="800.0" height="600.0"><g stroke-width="0.0" stroke="none" fill="#000000" transform="translate(-7.953750000000004e-2, -0.57175)" fill-opacity="1.0" font-size="0.12" text-anchor="middle"><text transform="rotate(0.0, 0.0, -0.0)" x="0.0" y="-0.0">default</text></g><g stroke-width="0.0" stroke="#000000" fill="#666666" fill-opacity="3.0e-2" stroke-opacity="0.0"><rect width="1.33" height="1.0" x="-0.665" y="-0.5" /></g><g stroke-width="5.0e-3" stroke="#A8E5EE" fill="none" stroke-opacity="0.3"><polyline points="-0.67,0.5 0.67,0.5" /></g><g stroke-width="5.0e-3" stroke="#A8E5EE" fill="none" stroke-opacity="0.3"><polyline points="-0.67,0.4 0.67,0.4" /></g><g stroke-width="5.0e-3" stroke="#A8E5EE" fill="none" stroke-opacity="0.3"><polyline points="-0.67,0.3 0.67,0.3" /></g><g stroke-width="5.0e-3" stroke="#A8E5EE" fill="none" stroke-opacity="0.3"><polyline points="-0.67,0.19999999999999996 0.67,0.19999999999999996" /></g><g stroke-width="5.0e-3" stroke="#A8E5EE" fill="none" stroke-opacity="0.3"><polyline points="-0.67,9.999999999999998e-2 0.67,9.999999999999998e-2" /></g><g stroke-width="5.0e-3" stroke="#A8E5EE" fill="none" stroke-opacity="0.3"><polyline points="-0.67,-0.0 0.67,-0.0" /></g><g stroke-width="5.0e-3" stroke="#A8E5EE" fill="none" stroke-opacity="0.3"><polyline points="-0.67,-0.10000000000000009 0.67,-0.10000000000000009" /></g><g stroke-width="5.0e-3" stroke="#A8E5EE" fill="none" stroke-opacity="0.3"><polyline points="-0.67,-0.20000000000000007 0.67,-0.20000000000000007" /></g><g stroke-width="5.0e-3" stroke="#A8E5EE" fill="none" stroke-opacity="0.3"><polyline points="-0.67,-0.30000000000000004 0.67,-0.30000000000000004" /></g><g stroke-width="5.0e-3" stroke="#A8E5EE" fill="none" stroke-opacity="0.3"><polyline points="-0.67,-0.4 0.67,-0.4" /></g><g stroke-width="5.0e-3" stroke="#A8E5EE" fill="none" stroke-opacity="0.3"><polyline points="-0.67,-0.5 0.67,-0.5" /></g><g stroke-width="0.0" stroke="none" fill="#666666" fill-opacity="1.0" font-size="5.0e-2" text-anchor="end"><text x="-0.7365750000000001" y="0.5145">-1.0</text></g><g stroke-width="0.0" stroke="none" fill="#666666" fill-opacity="1.0" font-size="5.0e-2" text-anchor="end"><text x="-0.7365750000000001" y="0.41450000000000004">-0.8</text></g><g stroke-width="0.0" stroke="none" fill="#666666" fill-opacity="1.0" font-size="5.0e-2" text-anchor="end"><text x="-0.7365750000000001" y="0.3145">-0.6</text></g><g stroke-width="0.0" stroke="none" fill="#666666" fill-opacity="1.0" font-size="5.0e-2" text-anchor="end"><text x="-0.7365750000000001" y="0.21449999999999997">-0.4</text></g><g stroke-width="0.0" stroke="none" fill="#666666" fill-opacity="1.0" font-size="5.0e-2" text-anchor="end"><text x="-0.7365750000000001" y="0.11449999999999998">-0.2</text></g><g stroke-width="0.0" stroke="none" fill="#666666" fill-opacity="1.0" font-size="5.0e-2" text-anchor="end"><text x="-0.7365750000000001" y="1.4499999999999999e-2">0.0</text></g><g stroke-width="0.0" stroke="none" fill="#666666" fill-opacity="1.0" font-size="5.0e-2" text-anchor="end"><text x="-0.7365750000000001" y="-8.550000000000009e-2">0.2</text></g><g stroke-width="0.0" stroke="none" fill="#666666" fill-opacity="1.0" font-size="5.0e-2" text-anchor="end"><text x="-0.7365750000000001" y="-0.18550000000000005">0.4</text></g><g stroke-width="0.0" stroke="none" fill="#666666" fill-opacity="1.0" font-size="5.0e-2" text-anchor="end"><text x="-0.7365750000000001" y="-0.28550000000000003">0.6</text></g><g stroke-width="0.0" stroke="none" fill="#666666" fill-opacity="1.0" font-size="5.0e-2" text-anchor="end"><text x="-0.7365750000000001" y="-0.3855">0.8</text></g><g stroke-width="0.0" stroke="none" fill="#666666" fill-opacity="1.0" font-size="5.0e-2" text-anchor="end"><text x="-0.7365750000000001" y="-0.4855">1.0</text></g><g stroke-width="0.0" stroke="#2C429D" fill="#5F0391" fill-opacity="1.0" stroke-opacity="0.4"><line stroke-width="5.0e-3" transform="rotate(-90.0, -0.7065, 0.5)" x1="-0.7065" y1="0.515" x2="-0.7065" y2="0.485" /><line stroke-width="5.0e-3" transform="rotate(-90.0, -0.7065, 0.4)" x1="-0.7065" y1="0.41500000000000004" x2="-0.7065" y2="0.385" /><line stroke-width="5.0e-3" transform="rotate(-90.0, -0.7065, 0.3)" x1="-0.7065" y1="0.315" x2="-0.7065" y2="0.285" /><line stroke-width="5.0e-3" transform="rotate(-90.0, -0.7065, 0.19999999999999996)" x1="-0.7065" y1="0.21499999999999997" x2="-0.7065" y2="0.18499999999999994" /><line stroke-width="5.0e-3" transform="rotate(-90.0, -0.7065, 9.999999999999998e-2)" x1="-0.7065" y1="0.11499999999999998" x2="-0.7065" y2="8.499999999999998e-2" /><line stroke-width="5.0e-3" transform="rotate(-90.0, -0.7065, -0.0)" x1="-0.7065" y1="1.5e-2" x2="-0.7065" y2="-1.5e-2" /><line stroke-width="5.0e-3" transform="rotate(-90.0, -0.7065, -0.10000000000000009)" x1="-0.7065" y1="-8.500000000000009e-2" x2="-0.7065" y2="-0.11500000000000009" /><line stroke-width="5.0e-3" transform="rotate(-90.0, -0.7065, -0.20000000000000007)" x1="-0.7065" y1="-0.18500000000000005" x2="-0.7065" y2="-0.21500000000000008" /><line stroke-width="5.0e-3" transform="rotate(-90.0, -0.7065, -0.30000000000000004)" x1="-0.7065" y1="-0.28500000000000003" x2="-0.7065" y2="-0.31500000000000006" /><line stroke-width="5.0e-3" transform="rotate(-90.0, -0.7065, -0.4)" x1="-0.7065" y1="-0.385" x2="-0.7065" y2="-0.41500000000000004" /><line stroke-width="5.0e-3" transform="rotate(-90.0, -0.7065, -0.5)" x1="-0.7065" y1="-0.485" x2="-0.7065" y2="-0.515" /></g><g stroke-width="0.0" stroke="#666666" fill="#5F0391" fill-opacity="0.5" stroke-opacity="0.0"><rect width="5.0000000000000044e-3" height="1.0" x="-0.6965" y="-0.5" /></g><g stroke-width="5.0e-3" stroke="#A8E5EE" fill="none" stroke-opacity="0.3"><polyline points="-0.665,0.505 -0.665,-0.505" /></g><g stroke-width="5.0e-3" stroke="#A8E5EE" fill="none" stroke-opacity="0.3"><polyline points="-0.47500000000000003,0.505 -0.47500000000000003,-0.505" /></g><g stroke-width="5.0e-3" stroke="#A8E5EE" fill="none" stroke-opacity="0.3"><polyline points="-0.28500000000000003,0.505 -0.28500000000000003,-0.505" /></g><g stroke-width="5.0e-3" stroke="#A8E5EE" fill="none" stroke-opacity="0.3"><polyline points="-9.500000000000008e-2,0.505 -9.500000000000008e-2,-0.505" /></g><g stroke-width="5.0e-3" stroke="#A8E5EE" fill="none" stroke-opacity="0.3"><polyline points="9.499999999999997e-2,0.505 9.499999999999997e-2,-0.505" /></g><g stroke-width="5.0e-3" stroke="#A8E5EE" fill="none" stroke-opacity="0.3"><polyline points="0.28500000000000003,0.505 0.28500000000000003,-0.505" /></g><g stroke-width="5.0e-3" stroke="#A8E5EE" fill="none" stroke-opacity="0.3"><polyline points="0.47499999999999987,0.505 0.47499999999999987,-0.505" /></g><g stroke-width="5.0e-3" stroke="#A8E5EE" fill="none" stroke-opacity="0.3"><polyline points="0.665,0.505 0.665,-0.505" /></g><g stroke-width="0.0" stroke="none" fill="#666666" fill-opacity="1.0" font-size="5.0e-2" text-anchor="middle"><text x="-0.665" y="0.6200109476841367">0</text></g><g stroke-width="0.0" stroke="none" fill="#666666" fill-opacity="1.0" font-size="5.0e-2" text-anchor="middle"><text x="-0.47500000000000003" y="0.6200109476841367">1</text></g><g stroke-width="0.0" stroke="none" fill="#666666" fill-opacity="1.0" font-size="5.0e-2" text-anchor="middle"><text x="-0.28500000000000003" y="0.6200109476841367">2</text></g><g stroke-width="0.0" stroke="none" fill="#666666" fill-opacity="1.0" font-size="5.0e-2" text-anchor="middle"><text x="-9.500000000000008e-2" y="0.6200109476841367">3</text></g><g stroke-width="0.0" stroke="none" fill="#666666" fill-opacity="1.0" font-size="5.0e-2" text-anchor="middle"><text x="9.499999999999997e-2" y="0.6200109476841367">4</text></g><g stroke-width="0.0" stroke="none" fill="#666666" fill-opacity="1.0" font-size="5.0e-2" text-anchor="middle"><text x="0.28500000000000003" y="0.6200109476841367">5</text></g><g stroke-width="0.0" stroke="none" fill="#666666" fill-opacity="1.0" font-size="5.0e-2" text-anchor="middle"><text x="0.47499999999999987" y="0.6200109476841367">6</text></g><g stroke-width="0.0" stroke="none" fill="#666666" fill-opacity="1.0" font-size="5.0e-2" text-anchor="middle"><text x="0.665" y="0.6200109476841367">7</text></g><g stroke-width="0.0" stroke="#2C429D" fill="#5F0391" fill-opacity="1.0" stroke-opacity="0.4"><line stroke-width="5.0e-3" x1="-0.665" y1="0.5537609476841366" x2="-0.665" y2="0.5237609476841366" /><line stroke-width="5.0e-3" x1="-0.47500000000000003" y1="0.5537609476841366" x2="-0.47500000000000003" y2="0.5237609476841366" /><line stroke-width="5.0e-3" x1="-0.28500000000000003" y1="0.5537609476841366" x2="-0.28500000000000003" y2="0.5237609476841366" /><line stroke-width="5.0e-3" x1="-9.500000000000008e-2" y1="0.5537609476841366" x2="-9.500000000000008e-2" y2="0.5237609476841366" /><line stroke-width="5.0e-3" x1="9.499999999999997e-2" y1="0.5537609476841366" x2="9.499999999999997e-2" y2="0.5237609476841366" /><line stroke-width="5.0e-3" x1="0.28500000000000003" y1="0.5537609476841366" x2="0.28500000000000003" y2="0.5237609476841366" /><line stroke-width="5.0e-3" x1="0.47499999999999987" y1="0.5537609476841366" x2="0.47499999999999987" y2="0.5237609476841366" /><line stroke-width="5.0e-3" x1="0.665" y1="0.5537609476841366" x2="0.665" y2="0.5237609476841366" /></g><g stroke-width="0.0" stroke="#666666" fill="#5F0391" fill-opacity="0.5" stroke-opacity="0.0"><rect width="1.33" height="5.0000000000000044e-3" x="-0.665" y="0.5237609476841366" /></g><g stroke-width="3.0e-3" stroke="#2C429D" fill="#D99721" fill-opacity="0.8" stroke-opacity="0.4"><rect width="3.0000000000000027e-2" height="3.0e-2" x="-0.68" y="-1.5e-2" /><rect width="3.0000000000000027e-2" height="3.0e-2" x="-0.6402064930545294" y="-0.1189558454088797" /><rect width="3.0000000000000027e-2" height="3.0000000000000027e-2" x="-0.6004129861090586" y="-0.2183683215379001" /><rect width="3.0000000000000027e-2" height="3.0000000000000027e-2" x="-0.5606194791635879" y="-0.3088926261462366" /><rect width="3.0000000000000027e-2" height="3.0000000000000027e-2" x="-0.5208259722181172" y="-0.386572412738697" /><rect width="3.0000000000000027e-2" height="3.0000000000000027e-2" x="-0.48103246527264654" y="-0.4480127018922193" /><rect width="3.0000000000000027e-2" height="3.0000000000000027e-2" x="-0.44123895832717575" y="-0.49052825814757683" /><rect width="3.0000000000000027e-2" height="3.0000000000000027e-2" x="-0.4014454513817051" y="-0.5122609476841367" /><rect width="3.0000000000000027e-2" height="3.0000000000000027e-2" x="-0.36165194443623433" y="-0.5122609476841368" /><rect width="3.0000000000000027e-2" height="3.0000000000000027e-2" x="-0.3218584374907636" y="-0.49052825814757683" /><rect width="3.0000000000000027e-2" height="3.0000000000000027e-2" x="-0.28206493054529297" y="-0.4480127018922194" /><rect width="3.0000000000000027e-2" height="3.0000000000000027e-2" x="-0.2422714235998223" y="-0.38657241273869725" /><rect width="3.0000000000000027e-2" height="3.0000000000000027e-2" x="-0.2024779166543515" y="-0.3088926261462367" /><rect width="3.0000000000000027e-2" height="3.0000000000000027e-2" x="-0.16268440970888076" y="-0.2183683215379002" /><rect width="3.0e-2" height="3.0e-2" x="-0.12289090276341018" y="-0.11895584540887981" /><rect width="3.0e-2" height="3.0e-2" x="-8.309739581793928e-2" y="-1.500000000000011e-2" /><rect width="3.0e-2" height="3.0e-2" x="-4.3303888872468596e-2" y="8.895584540887953e-2" /><rect width="3.0e-2" height="3.0000000000000027e-2" x="-3.510381926998027e-3" y="0.1883683215378999" /><rect width="3.0e-2" height="3.0000000000000027e-2" x="3.6283125018472875e-2" y="0.2788926261462365" /><rect width="3.0e-2" height="3.0000000000000027e-2" x="7.607663196394344e-2" y="0.356572412738697" /><rect width="3.0000000000000013e-2" height="3.0000000000000027e-2" x="0.11587013890941412" y="0.4180127018922192" /><rect width="3.0000000000000027e-2" height="3.0000000000000027e-2" x="0.155663645854885" y="0.46052825814757675" /><rect width="3.0000000000000027e-2" height="3.0000000000000027e-2" x="0.19545715280035547" y="0.48226094768413663" /><rect width="3.0000000000000027e-2" height="2.999999999999997e-2" x="0.23525065974582626" y="0.4822609476841367" /><rect width="3.0000000000000027e-2" height="3.0000000000000027e-2" x="0.27504416669129705" y="0.4605282581475768" /><rect width="3.0000000000000027e-2" height="3.0000000000000027e-2" x="0.3148376736367676" y="0.4180127018922195" /><rect width="3.0000000000000027e-2" height="3.0000000000000027e-2" x="0.3546311805822385" y="0.35657241273869733" /><rect width="3.0000000000000027e-2" height="3.0000000000000027e-2" x="0.3944246875277092" y="0.2788926261462366" /><rect width="3.0000000000000027e-2" height="3.0000000000000027e-2" x="0.43421819447317966" y="0.18836832153790045" /><rect width="3.0000000000000027e-2" height="3.0e-2" x="0.47401170141865057" y="8.895584540887992e-2" /><rect width="3.0000000000000027e-2" height="3.0e-2" x="0.5138052083641215" y="-1.4999999999999888e-2" /></g><g /></svg>