<svg width="269.9728701359259" xmlns:xlink="http://www.w3.org/1999/xlink" xmlns="http://www.w3.org/2000/svg" viewBox="-1.652256049938332 -1.5275845916740454 3.201441362326956 3.5575145317917625" height="300.0"><style>svg {
  color-scheme: light dark;
}
@media (prefers-color-scheme:dark) {
  svg {
    background-color: #f0f0f0;
  }
}</style><g stroke-opacity="0.0" fill="#ffffff" stroke="#000000" stroke-width="0.0" fill-opacity="2.0e-2"><rect width="2.3045062381089485" x="-1.2880062381089488" y="-1.0352787619572634" height="2.785818451980819"/></g><g stroke-opacity="1.0" fill="none" stroke="#a6cfe3" stroke-width="2.0e-3"><polyline points="1.0000000000000004,-0.0
0.9940146461148016,6.427210796446392e-2
0.9854684971040975,0.12920580153034233
0.9743808284486222,0.19465462547461176
0.9607766479200981,0.2604709627192794
0.9446866391772533,0.3265063672755135
0.9261470925601181,0.3926118990573495
0.9051998232386831,0.45863845980980367
0.8818920769005372,0.5244371293937393
0.8562764231902014,0.5898595016689934
0.8284106371404976,0.6547580192182041
0.7983575688633868,0.7189863061563773
0.7661850017941774,0.7823994982755582
0.7319654998088261,0.8448545697799767
0.6957762435591626,0.9062106558747354
0.6576988563951605,0.9663293704804432
0.6178192202669006,1.0250751183572173
0.5762272820214287,1.0823154009340614
0.533016850531415,1.1379211151538344
0.4882853851131761,1.191766844659785
0.4421337757112749,1.2437311426668827
0.3946661153454769,1.2936968058799505
0.3459894653333129,1.3415511388407824
0.29621361381776756,1.3871862081080222
0.24545082814472008,1.430499085696519
0.19381560164866296,1.4713920812270747
0.1414243954177763,1.5097729622630052
8.839537562083533e-2,1.545555162336529
3.484814698836969e-2,1.5786579761958062
-1.9096516950796172e-2,1.6090067418322525
-7.331694626916563e-2,1.6365330088775658
-0.12769084906199324,1.6611746929906617
-0.18209558727154862,1.6828762158863042
-0.2364084532921109,1.7015886306895949
-0.29050694673182864,1.7172697323335977
-0.3442690507072199,1.7298841527510982
-0.39757350704712957,1.7394034406457948
-0.4503000897854581,1.7458061256630062
-0.5023298763257824,1.7490777668151547
-0.553545515666283,1.7492109850528088
-0.6038314930800136,1.7462054799078195
-0.6530743906535196,1.740068030171014
-0.7011631430961871,1.730812478602917
-0.7479892882433502,1.7184597007119842
-0.793447211688153,1.7030375576707697
-0.8374343849904167,1.6845808334762182
-0.8798515969252381,1.6631311564958184
-0.9206031772497456,1.6387369055765686
-0.959597212483321,1.6114531009285114
-0.9967457532146013,1.5813412800289601
-1.0319650124676871,1.5484693588272997
-1.0651755546801553,1.5129114785634061
-1.0963024748666366,1.4747478385451958
-1.1252755675638715,1.4340645152624427
-1.1520294851761868,1.39095326824487
-1.176503885364259,1.3455113331023754
-1.19864356714473,1.2978412022141923
-1.2183985953937093,1.2480503935616252
-1.2357244134733536,1.1962512082257506
-1.250581943727494,1.1425604770970392
-1.2629376756196518,1.087099297368181
-1.2727637413146469,1.0299927594044451
-1.2800379785333331,0.9713696646076042
-1.2847439805386887,0.9113622349097759
-1.2868711331405234,0.850105814552401
-1.2864146386353401,0.7877385648229775
-1.2833755266273537,0.7244011524380725
-1.2777606517062607,0.6602364322754448
-1.2695826779870025,0.5953891251708496
-1.2588600505463818,0.5300054915062731
-1.2456169538209676,0.4642330013257636
-1.2298832570601115,0.3982200017229367
-1.2116944469571096,0.3321153822503289
-1.1910915476104509,0.26606823910524224
-1.1681210279956875,0.20022753884954048
-1.142834697156606,0.1347417824218058
-1.1152895873521018,6.975867019969662e-2
-1.0855478254223112,5.424768867943852e-3
-1.0536764926641298,-5.81148191566605e-2
-1.0197474735321572,-0.12071678299768429
-0.983837293506328,-0.18223992655072063
-0.9460269464918964,-0.24254548694528744
-0.9064017121410812,-0.3014974475186629
-0.8650509635083894,-0.3589628445957551
-0.8220679654734302,-0.41481206738311327
-0.7775496643859012,-0.4689191503006187
-0.7315964694071551,-0.5211620570915816
-0.6843120260415456,-0.5714229560703967
-0.6358029823683446,-0.6195884858869647
-0.5861787485014645,-0.6655500112084738
-0.5355512498195376,-0.70920386774183
-0.4840346745229174,-0.7504515960441251
-0.4317452160869837,-0.7892001635937813
-0.37880081119262377,-0.8253621746215036
-0.3253208737250024,-0.8588560672277712
-0.2714260254405456,-0.8896062973422847
-0.2172378239096271,-0.9175435091104465
-0.162878488348571,-0.9426046913225816
-0.10847062395932583,-0.9647333195330816
-5.4136945398582714e-2,-0.98387948354892
0.0,-1.0"/></g><g stroke-opacity="1.0" fill="none" stroke="#a6cfe3" stroke-width="2.0e-3"><polyline points="0.6086376856300113,-0.9414395063606076
0.5527795469220065,-0.9702714111607404
0.4941819474107334,-0.9938628196756252
0.43307614505076675,-1.0121206273937404
0.36970329652743494,-1.0249727790892234
0.3043135055215589,-1.0323685531909215
0.23716483566448576,-1.034278761957263
0.16852229207883163,-1.0306958666669384
9.865677552433416e-2,-1.02163400737079
2.7844013276315138e-2,-1.0071289470874887
-4.363652904390536e-2,-0.9872379306632415
-0.11550275039214375,-0.962039458852535
-0.18747102762529178,-0.9316329785115185
-0.25925733483228797,-0.896138490126698
-0.3305783642546314,-0.8556960742278399
-0.4011526443726703,-0.8104653385541143
-0.4707016507451012,-0.7606247881552681
-0.5389509052176902,-0.7063711209137442
-0.6056310591631523,-0.6479184512680018
-0.6704789564771295,-0.5854974652006466
-0.7332386721351098,-0.5193545098262531
-0.7936625222115783,-0.44975062117184095
-0.8515120413753137,-0.3769604939869362
-0.9065589240031087,-0.3012713976488932
-0.9585859251977598,-0.22298204244189845
-1.0073877181544273,-0.14240140068395002
-1.05277170449173,-5.984748735427381e-2
-1.0945587743495653,2.4353894966514966e-2
-1.132584013253901,0.10987044189034756
-1.1666973529588605,0.1963646586753094
-1.196764163697531,0.28349519216319896
-1.2226657855041465,0.3709181779444952
-1.2442999965107613,0.45828859743408157
-1.261581416370263,0.5452616395019807
-1.2744418432135962,0.6314940612853537
-1.2828305228113803,0.7166455428112668
-1.286714348877666,0.8003800300841504
-1.2860779937253213,0.8823670613373864
-1.280923968757409,0.9622830712149291
-1.2712726145558277,1.0398126677359452
-1.2571620206063265,1.1146498770028685
-1.2386478749767074,1.1864993507405912
-1.2158032445414615,1.2550775319011742
-1.188718286620198,1.3201137737339654
-1.1574998931678915,1.3813514079046847
-1.1222712689211713,1.438548757448074
-1.0831714451655123,1.4914800905564682
-1.0403547310422663,1.539936511440116
-0.9939901045609834,1.5837267847434204
-0.944260545720401,1.6226780902635274
-0.8913623143699891,1.656636704992708
-0.8355041756619843,1.6854686097928409
-0.7769065761507112,1.7090600183077247
-0.7158007737907442,1.7273178260258404
-0.6524279252674126,1.7401699777213238
-0.5870381342615368,1.7475657518230219
-0.5198894644044634,1.749475960589363
-0.4512469208188097,1.7458930652990383
-0.38138140426431155,1.7368312060028894
-0.3105686420162932,1.7223261457195886
-0.23908809969607292,1.702435129295342
-0.16722187834783409,1.6772366574846354
-9.52536011146865e-2,1.6468301771436185
-2.3467293907689424e-2,1.611335688758798
4.7853735514653994e-2,1.5708932728599398
0.11842801563269267,1.5256625371862147
0.18797702200512378,1.475821986787368
0.25622627647771257,1.4215683195458442
0.322906430423175,1.363115649900101
0.38775432773715224,1.3006946638327468
0.45051404339513246,1.2345517084583535
0.5109378934716009,1.16494781980394
0.5687874126353365,1.0921576926190362
0.6238342952631308,1.0164685962809936
0.6758612964577821,0.938179241073998
0.7246630894144497,0.8575985993160504
0.7700470757517524,0.7750446859863742
0.8118341456095877,0.6908433036655854
0.8498593845139233,0.6053267567417533
0.8839727242188831,0.5188325399567906
0.9140395349575536,0.431702006468901
0.9399411567641689,0.3442790206876054
0.9615753677707835,0.25690860119801995
0.9788567876302858,0.16993555913011904
0.9917172144736188,8.370313734674695e-2
1.0001058940714032,-1.4483441791663942e-3
1.0039897201376888,-8.518283145204997e-2
1.0033533649853439,-0.16716986270528533
0.9981993400174316,-0.24708587258282888
0.9885479858158503,-0.32461546910384564
0.9744373918663491,-0.3994526783707686
0.95592324623673,-0.47130215210849125
0.9330786158014845,-0.5398803332690729
0.9059936578802206,-0.6049165751018655
0.8747752644279139,-0.6661542092725852
0.8395466401811937,-0.723351558815974
0.8004468164255352,-0.7762828919243674
0.7576301023022891,-0.8247393128080156
0.7112654758210057,-0.86852958611132
0.6615359169804229,-0.9074808916314274
0.6086376856300113,-0.9414395063606076"/></g><g stroke-opacity="1.0" fill="#a6cfe3" stroke="#1f78b5" stroke-width="3.0e-3" fill-opacity="1.0"><rect width="3.0000000000000027e-2" x="-0.1563623143699887" y="0.34259859931604997" height="3.0000000000000027e-2"/><rect width="2.9999999999999916e-2" x="0.985" y="-1.5e-2" height="3.0e-2"/><rect width="3.0e-2" x="-1.5e-2" y="-1.015" height="2.9999999999999916e-2"/></g><g stroke-opacity="1.0" fill="#6666cc" stroke="#808080" stroke-width="2.0e-3" fill-opacity="0.1"><rect width="2.2870062381089493" x="-1.2870062381089489" y="-1.0" height="2.7495396900235556"/></g><g stroke-opacity="1.0" fill="none" stroke="#e63305" stroke-dasharray="3.0e-2 1.0e-2" stroke-linecap="round" stroke-width="5.0e-3"><polyline points="0.6086376856300113,-0.9414395063606076
-0.8913623143699891,1.656636704992708"/></g><g stroke-opacity="1.0" fill="none" stroke="#e6e605" stroke-dasharray="3.0e-2 1.0e-2" stroke-linecap="round" stroke-width="5.0e-3"><polyline points="-1.0073877181544273,-0.14240140068395002
0.7246630894144497,0.8575985993160504"/></g><g stroke-opacity="0.0" fill="#0d0d0d" stroke="#000000" stroke-width="0.0" fill-opacity="0.4"><rect width="3.0216913623269557" x="-1.504256049938332" y="1.7605396900235555" height="4.0000000000000036e-3"/></g><g stroke-opacity="0.4" fill="#0d0d0d" stroke="#0d0d0d" stroke-width="4.0e-3" fill-opacity="0.4"><polyline points="-1.502256049938332,1.7955396900235554
-1.502256049938332,1.7655396900235556"/><polyline points="-0.999307489550506,1.7955396900235554
-0.999307489550506,1.7655396900235556"/><polyline points="-0.49635892916268,1.7955396900235554
-0.49635892916268,1.7655396900235556"/><polyline points="6.589631225146109e-3,1.7955396900235554
6.589631225146109e-3,1.7655396900235556"/><polyline points="0.509538191612972,1.7955396900235554
0.509538191612972,1.7655396900235556"/><polyline points="1.0124867520007979,1.7955396900235554
1.0124867520007979,1.7655396900235556"/><polyline points="1.5154353123886242,1.7955396900235554
1.5154353123886242,1.7655396900235556"/></g><g fill="#0d0d0d" stroke="none" stroke-width="0.0" font-size="5.0e-2" fill-opacity="1.0" text-anchor="middle"><text x="-1.502256049938332" y="1.8380396900235556">-1.5</text><text x="-0.999307489550506" y="1.8380396900235556">-1</text><text x="-0.49635892916268" y="1.8380396900235556">-0.5</text><text x="6.589631225146109e-3" y="1.8380396900235556">0</text><text x="0.509538191612972" y="1.8380396900235556">0.5</text><text x="1.0124867520007979" y="1.8380396900235556">1</text><text x="1.5154353123886242" y="1.8380396900235556">1.5</text></g><g stroke-opacity="5.0e-2" fill="none" stroke="#0d0d0d" stroke-width="5.0e-3"><polyline points="-1.502256049938332,1.7505396900235555
-1.502256049938332,-1.035278761957263"/><polyline points="-0.999307489550506,1.7505396900235555
-0.999307489550506,-1.035278761957263"/><polyline points="-0.49635892916268,1.7505396900235555
-0.49635892916268,-1.035278761957263"/><polyline points="6.589631225146109e-3,1.7505396900235555
6.589631225146109e-3,-1.035278761957263"/><polyline points="0.509538191612972,1.7505396900235555
0.509538191612972,-1.035278761957263"/><polyline points="1.0124867520007979,1.7505396900235555
1.0124867520007979,-1.035278761957263"/><polyline points="1.5154353123886242,1.7505396900235555
1.5154353123886242,-1.035278761957263"/></g><g stroke-opacity="0.0" fill="#0d0d0d" stroke="#000000" stroke-width="0.0" fill-opacity="0.4"><rect width="4.0000000000000036e-3" x="-1.516256049938332" y="-1.5033345916740453" height="3.506514531791762"/></g><g stroke-opacity="0.4" fill="#0d0d0d" stroke="#0d0d0d" stroke-width="4.0e-3" fill-opacity="0.4"><g transform="rotate(-90.0, -1.532256049938332, 2.001179940117717)"><polyline points="-1.532256049938332,2.016179940117717
-1.532256049938332,1.9861799401177171"/></g><g transform="rotate(-90.0, -1.532256049938332, 1.5008207212903226)"><polyline points="-1.532256049938332,1.5158207212903225
-1.532256049938332,1.4858207212903227"/></g><g transform="rotate(-90.0, -1.532256049938332, 1.000461502462928)"><polyline points="-1.532256049938332,1.0154615024629279
-1.532256049938332,0.985461502462928"/></g><g transform="rotate(-90.0, -1.532256049938332, 0.5001022836355333)"><polyline points="-1.532256049938332,0.5151022836355333
-1.532256049938332,0.4851022836355333"/></g><g transform="rotate(-90.0, -1.532256049938332, -2.5693519186109626e-4)"><polyline points="-1.532256049938332,1.4743064808138903e-2
-1.532256049938332,-1.5256935191861096e-2"/></g><g transform="rotate(-90.0, -1.532256049938332, -0.5006161540192555)"><polyline points="-1.532256049938332,-0.4856161540192555
-1.532256049938332,-0.5156161540192555"/></g><g transform="rotate(-90.0, -1.532256049938332, -1.0009753728466504)"><polyline points="-1.532256049938332,-0.9859753728466504
-1.532256049938332,-1.0159753728466503"/></g><g transform="rotate(-90.0, -1.532256049938332, -1.5013345916740453)"><polyline points="-1.532256049938332,-1.4863345916740454
-1.532256049938332,-1.5163345916740452"/></g></g><g fill="#0d0d0d" stroke="none" stroke-width="0.0" font-size="5.0e-2" fill-opacity="1.0" text-anchor="end"><text x="-1.562256049938332" y="2.014929940117717">-2</text><text x="-1.562256049938332" y="1.5145707212903226">-1.5</text><text x="-1.562256049938332" y="1.014211502462928">-1</text><text x="-1.562256049938332" y="0.5138522836355334">-0.5</text><text x="-1.562256049938332" y="1.3493064808138906e-2">0</text><text x="-1.562256049938332" y="-0.48686615401925554">0.5</text><text x="-1.562256049938332" y="-0.9872253728466504">1</text><text x="-1.562256049938332" y="-1.4875845916740453">1.5</text></g><g stroke-opacity="5.0e-2" fill="none" stroke="#0d0d0d" stroke-width="5.0e-3"><polyline points="-1.502256049938332,2.001179940117717
1.5154353123886235,2.001179940117717"/><polyline points="-1.502256049938332,1.5008207212903226
1.5154353123886235,1.5008207212903226"/><polyline points="-1.502256049938332,1.000461502462928
1.5154353123886235,1.000461502462928"/><polyline points="-1.502256049938332,0.5001022836355333
1.5154353123886235,0.5001022836355333"/><polyline points="-1.502256049938332,-2.5693519186109626e-4
1.5154353123886235,-2.5693519186109626e-4"/><polyline points="-1.502256049938332,-0.5006161540192555
1.5154353123886235,-0.5006161540192555"/><polyline points="-1.502256049938332,-1.0009753728466504
1.5154353123886235,-1.0009753728466504"/><polyline points="-1.502256049938332,-1.5013345916740453
1.5154353123886235,-1.5013345916740453"/></g></svg>