<svg xmlns="http://www.w3.org/2000/svg" xmlns:xlink="http://www.w3.org/1999/xlink" width="510" height="300" viewBox="-0.85 -0.5 1.7 1.0"><style>svg {
  color-scheme: light dark;
}
{
  .canvas g, .title g, .axisbar g, .ticktext g, .tickglyph g, .ticklines g, .legendContent g text {
    fill: rgb(5%, 5%, 5%);
  }
  .ticklines g, .tickglyph g, .legendBorder g {
    stroke: rgb(5%, 5%, 5%);
  }
  .legendBorder g {
    fill: rgb(94%, 94%, 94%);
  }
}
@media (prefers-color-scheme:dark) {
  .canvas g, .title g, .axisbar g, .ticktext g, .tickglyph g, .ticklines g, .legendContent g text {
    fill: rgb(94%, 94%, 94%);
  }
  .ticklines g, .tickglyph g, .legendBorder g {
    stroke: rgb(94%, 94%, 94%);
  }
  .legendBorder g {
    fill: rgb(5%, 5%, 5%);
  }
}</style><g class="chart"><g class="ellipse"><g stroke-width="0.0050" stroke="rgb(66%, 7%, 55%)" stroke-opacity="1.0" fill="none"><polyline points="0.2183,-0.0362 0.2163,-0.0225 0.2135,-0.0087 0.2098,0.0053 0.2053,0.0193 0.1999,0.0333 0.1937,0.0474 0.1867,0.0614 0.1789,0.0754 0.1704,0.0894 0.1611,0.1032 0.1511,0.1168 0.1403,0.1303 0.1289,0.1436 0.1169,0.1567 0.1042,0.1695 0.0909,0.1820 0.0770,0.1941 0.0626,0.2060 0.0476,0.2174 0.0323,0.2285 0.0164,0.2391 0.0002,0.2493 -0.0164,0.2590 -0.0334,0.2682 -0.0506,0.2769 -0.0681,0.2851 -0.0857,0.2927 -0.1036,0.2998 -0.1216,0.3062 -0.1397,0.3121 -0.1578,0.3173 -0.1760,0.3219 -0.1941,0.3259 -0.2121,0.3292 -0.2301,0.3319 -0.2478,0.3340 -0.2654,0.3353 -0.2828,0.3360 -0.2999,0.3360 -0.3166,0.3354 -0.3331,0.3341 -0.3491,0.3321 -0.3647,0.3295 -0.3799,0.3262 -0.3946,0.3223 -0.4087,0.3177 -0.4223,0.3125 -0.4353,0.3067 -0.4477,0.3003 -0.4595,0.2933 -0.4705,0.2858 -0.4809,0.2776 -0.4906,0.2690 -0.4995,0.2598 -0.5077,0.2501 -0.5151,0.2400 -0.5216,0.2294 -0.5274,0.2184 -0.5324,0.2070 -0.5365,0.1952 -0.5398,0.1830 -0.5422,0.1705 -0.5438,0.1578 -0.5445,0.1447 -0.5443,0.1315 -0.5433,0.1180 -0.5414,0.1043 -0.5387,0.0905 -0.5351,0.0766 -0.5307,0.0626 -0.5255,0.0486 -0.5194,0.0345 -0.5125,0.0205 -0.5049,0.0064 -0.4964,-0.0075 -0.4872,-0.0213 -0.4773,-0.0350 -0.4667,-0.0485 -0.4554,-0.0618 -0.4434,-0.0749 -0.4308,-0.0878 -0.4176,-0.1003 -0.4038,-0.1125 -0.3894,-0.1244 -0.3746,-0.1359 -0.3593,-0.1471 -0.3435,-0.1577 -0.3273,-0.1680 -0.3108,-0.1778 -0.2939,-0.1871 -0.2767,-0.1958 -0.2592,-0.2041 -0.2416,-0.2118 -0.2237,-0.2189 -0.2058,-0.2255 -0.1877,-0.2314 -0.1696,-0.2367 -0.1514,-0.2414 -0.1333,-0.2455 -0.1152,-0.2489"/></g><g stroke-width="0.0020" stroke="rgb(2%, 29%, 48%)" stroke-opacity="1.0" fill="none"><polyline points="0.0878,-0.2365 0.0692,-0.2426 0.0496,-0.2476 0.0292,-0.2515 0.0081,-0.2543 -0.0137,-0.2558 -0.0361,-0.2562 -0.0590,-0.2555 -0.0823,-0.2535 -0.1059,-0.2505 -0.1298,-0.2462 -0.1538,-0.2409 -0.1778,-0.2344 -0.2017,-0.2268 -0.2255,-0.2182 -0.2490,-0.2086 -0.2722,-0.1980 -0.2950,-0.1865 -0.3172,-0.1740 -0.3389,-0.1607 -0.3598,-0.1467 -0.3800,-0.1319 -0.3993,-0.1164 -0.4176,-0.1003 -0.4350,-0.0836 -0.4513,-0.0665 -0.4664,-0.0489 -0.4803,-0.0310 -0.4930,-0.0128 -0.5044,0.0056 -0.5144,0.0242 -0.5231,0.0428 -0.5303,0.0614 -0.5360,0.0799 -0.5403,0.0982 -0.5431,0.1163 -0.5444,0.1341 -0.5442,0.1516 -0.5425,0.1686 -0.5393,0.1851 -0.5346,0.2010 -0.5284,0.2163 -0.5208,0.2309 -0.5117,0.2447 -0.5013,0.2578 -0.4896,0.2699 -0.4765,0.2812 -0.4623,0.2915 -0.4468,0.3008 -0.4302,0.3091 -0.4126,0.3163 -0.3939,0.3225 -0.3744,0.3275 -0.3540,0.3314 -0.3329,0.3341 -0.3110,0.3357 -0.2886,0.3361 -0.2657,0.3353 -0.2424,0.3334 -0.2188,0.3303 -0.1950,0.3261 -0.1710,0.3207 -0.1470,0.3143 -0.1231,0.3067 -0.0993,0.2981 -0.0757,0.2885 -0.0525,0.2779 -0.0298,0.2663 -0.0075,0.2539 0.0141,0.2406 0.0350,0.2265 0.0552,0.2117 0.0745,0.1962 0.0929,0.1801 0.1102,0.1635 0.1265,0.1463 0.1416,0.1288 0.1556,0.1108 0.1683,0.0926 0.1796,0.0742 0.1897,0.0557 0.1983,0.0371 0.2055,0.0185 0.2113,0 0.2156,-0.0183 0.2184,-0.0365 0.2197,-0.0543 0.2195,-0.0717 0.2177,-0.0887 0.2145,-0.1052 0.2098,-0.1212 0.2036,-0.1364 0.1960,-0.1510 0.1870,-0.1649 0.1766,-0.1779 0.1648,-0.1901 0.1518,-0.2013 0.1375,-0.2117 0.1220,-0.2210 0.1054,-0.2293 0.0878,-0.2365"/></g><g stroke-width="0.0030" stroke="rgb(2%, 29%, 48%)" stroke-opacity="1.0" fill="rgb(2%, 73%, 80%)" fill-opacity="0.2"><circle cx="-0.1624" cy="0.0399" r="0.0150"/></g><g stroke-width="0.0030" stroke="rgb(2%, 29%, 48%)" stroke-opacity="1.0" fill="rgb(100%, 71%, 35%)" fill-opacity="0.2"><rect width="0.0300" height="0.0300" x="0.2033" y="-0.0512"/><rect width="0.0300" height="0.0300" x="-0.1302" y="-0.2639"/></g><g stroke-width="0.0020" stroke="rgb(50%, 50%, 50%)" stroke-opacity="1.0" fill="rgb(53%, 51%, 28%)" fill-opacity="0.00"><rect width="0.7629" height="0.5851" x="-0.5445" y="-0.2489"/></g><g stroke-width="0.0050" stroke="rgb(21%, 29%, 7%)" stroke-opacity="1.0" fill="none" stroke-linecap="round" stroke-dasharray="0.0300 0.0100"><polyline points="0.0878,-0.2365 -0.4126,0.3163"/></g><g stroke-width="0.0050" stroke="rgb(73%, 34%, 1%)" stroke-opacity="1.0" fill="none" stroke-linecap="round" stroke-dasharray="0.0300 0.0100"><polyline points="-0.4513,-0.0665 0.1265,0.1463"/></g></g></g><g class="hud"><g class="frame"><g stroke-width="0" stroke="rgb(0%, 0%, 0%)" stroke-opacity="0" fill="rgb(100%, 100%, 100%)" fill-opacity="0.02"><rect width="1.0007" height="0.7447" x="-0.6156" y="-0.3553"/></g></g><g class="axis"><g class="ticks"><g class="tickglyph"><g stroke-width="0.0040" stroke="rgb(5%, 5%, 5%)" stroke-opacity="0.4" fill="rgb(5%, 5%, 5%)" fill-opacity="0.4"><g transform="rotate(-90.0, -0.6332, 0.3894)"><polyline points="-0.6332,0.4044
-0.6332,0.3744"/></g><g transform="rotate(-90.0, -0.6332, 0.2830)"><polyline points="-0.6332,0.2980
-0.6332,0.2680"/></g><g transform="rotate(-90.0, -0.6332, 0.1766)"><polyline points="-0.6332,0.1916
-0.6332,0.1616"/></g><g transform="rotate(-90.0, -0.6332, 0.0702)"><polyline points="-0.6332,0.0852
-0.6332,0.0552"/></g><g transform="rotate(-90.0, -0.6332, -0.0362)"><polyline points="-0.6332,-0.0212
-0.6332,-0.0512"/></g><g transform="rotate(-90.0, -0.6332, -0.1426)"><polyline points="-0.6332,-0.1276
-0.6332,-0.1576"/></g><g transform="rotate(-90.0, -0.6332, -0.2489)"><polyline points="-0.6332,-0.2339
-0.6332,-0.2639"/></g><g transform="rotate(-90.0, -0.6332, -0.3553)"><polyline points="-0.6332,-0.3403
-0.6332,-0.3703"/></g></g></g><g class="ticktext"><g stroke-width="0.0" stroke="none" fill="rgb(5%, 5%, 5%)" fill-opacity="1.0" font-size="0.0294" text-anchor="end"><text x="-0.6544" y="0.3996">-2.0</text><text x="-0.6544" y="0.2933">-1.5</text><text x="-0.6544" y="0.1869">-1.0</text><text x="-0.6544" y="0.0805">-0.5</text><text x="-0.6544" y="-0.0259"> 0.0</text><text x="-0.6544" y="-0.1323"> 0.5</text><text x="-0.6544" y="-0.2387"> 1.0</text><text x="-0.6544" y="-0.3451"> 1.5</text></g></g><g class="ticklines"><g stroke-width="0.0050" stroke="rgb(5%, 5%, 5%)" stroke-opacity="0.05" fill="none"><polyline points="-0.6156,0.3894 0.3851,0.3894"/><polyline points="-0.6156,0.2830 0.3851,0.2830"/><polyline points="-0.6156,0.1766 0.3851,0.1766"/><polyline points="-0.6156,0.0702 0.3851,0.0702"/><polyline points="-0.6156,-0.0362 0.3851,-0.0362"/><polyline points="-0.6156,-0.1426 0.3851,-0.1426"/><polyline points="-0.6156,-0.2489 0.3851,-0.2489"/><polyline points="-0.6156,-0.3553 0.3851,-0.3553"/></g></g></g><g class="axisbar"><g stroke-width="0" stroke="rgb(0%, 0%, 0%)" stroke-opacity="0" fill="rgb(5%, 5%, 5%)" fill-opacity="0.4"><rect width="0.0024" height="0.7477" x="-0.6238" y="-0.3568"/></g></g></g><g class="axis"><g class="ticks"><g class="tickglyph"><g stroke-width="0.0040" stroke="rgb(5%, 5%, 5%)" stroke-opacity="0.4" fill="rgb(5%, 5%, 5%)" fill-opacity="0.4"><polyline points="-0.6156,0.4267
-0.6156,0.3967"/><polyline points="-0.4488,0.4267
-0.4488,0.3967"/><polyline points="-0.2820,0.4267
-0.2820,0.3967"/><polyline points="-0.1152,0.4267
-0.1152,0.3967"/><polyline points="0.0516,0.4267
0.0516,0.3967"/><polyline points="0.2183,0.4267
0.2183,0.3967"/><polyline points="0.3851,0.4267
0.3851,0.3967"/></g></g><g class="ticktext"><g stroke-width="0.0" stroke="none" fill="rgb(5%, 5%, 5%)" fill-opacity="1.0" font-size="0.0294" text-anchor="middle"><text x="-0.6156" y="0.4590">-2.0</text><text x="-0.4488" y="0.4590">-1.0</text><text x="-0.2820" y="0.4590">-0.5</text><text x="-0.1152" y="0.4590"> 0.0</text><text x="0.0516" y="0.4590"> 0.5</text><text x="0.2183" y="0.4590"> 1.0</text><text x="0.3851" y="0.4590"> 2.0</text></g></g><g class="ticklines"><g stroke-width="0.0050" stroke="rgb(5%, 5%, 5%)" stroke-opacity="0.05" fill="none"><polyline points="-0.6156,0.3894 -0.6156,-0.3553"/><polyline points="-0.4488,0.3894 -0.4488,-0.3553"/><polyline points="-0.2820,0.3894 -0.2820,-0.3553"/><polyline points="-0.1152,0.3894 -0.1152,-0.3553"/><polyline points="0.0516,0.3894 0.0516,-0.3553"/><polyline points="0.2183,0.3894 0.2183,-0.3553"/><polyline points="0.3851,0.3894 0.3851,-0.3553"/></g></g></g><g class="axisbar"><g stroke-width="0" stroke="rgb(0%, 0%, 0%)" stroke-opacity="0" fill="rgb(5%, 5%, 5%)" fill-opacity="0.4"><rect width="1.0030" height="0.0030" x="-0.6168" y="0.3969"/></g></g></g><g class="legend"><g class="legendBorder"><g stroke-width="0.0025" stroke="rgb(5%, 5%, 5%)" stroke-opacity="1.0" fill="rgb(5%, 5%, 5%)" fill-opacity="0"><rect width="0.2487" height="0.4357" x="0.4558" y="-0.3489"/></g></g><g class="legendContent"><g stroke-width="0.0" stroke="none" fill="rgb(5%, 5%, 5%)" fill-opacity="1.0" font-size="0.0294" text-anchor="start"><text x="0.4705" y="0.0570">Bounding Box</text></g><g stroke-width="0.0025" stroke="rgb(50%, 50%, 50%)" stroke-opacity="1.0" fill="rgb(53%, 51%, 28%)" fill-opacity="0.00"><rect width="0.0147" height="0.0186" x="0.6588" y="0.0384"/></g><g stroke-width="0.0" stroke="none" fill="rgb(5%, 5%, 5%)" fill-opacity="1.0" font-size="0.0294" text-anchor="start"><text x="0.4705" y="-0.0026">Endpoints</text></g><g stroke-width="0.0030" stroke="rgb(2%, 29%, 48%)" stroke-opacity="1.0" fill="rgb(100%, 71%, 35%)" fill-opacity="0.2"><rect width="0.0250" height="0.0250" x="0.6537" y="-0.0244"/></g><g stroke-width="0.0" stroke="none" fill="rgb(5%, 5%, 5%)" fill-opacity="1.0" font-size="0.0294" text-anchor="start"><text x="0.4705" y="-0.0622">Centroid</text></g><g stroke-width="0.0030" stroke="rgb(2%, 29%, 48%)" stroke-opacity="1.0" fill="rgb(2%, 73%, 80%)" fill-opacity="0.2"><circle cx="0.6662" cy="-0.0715" r="0.0125"/></g><g stroke-width="0.0" stroke="none" fill="rgb(5%, 5%, 5%)" fill-opacity="1.0" font-size="0.0294" text-anchor="start"><text x="0.4705" y="-0.1218">Arc</text></g><g stroke-width="0.0050" stroke="rgb(66%, 7%, 55%)" stroke-opacity="1.0" fill="none"><polyline points="0.6588,-0.1311 0.6883,-0.1311"/></g><g stroke-width="0.0" stroke="none" fill="rgb(5%, 5%, 5%)" fill-opacity="1.0" font-size="0.0294" text-anchor="start"><text x="0.4705" y="-0.1813">Full Ellipse</text></g><g stroke-width="0.0020" stroke="rgb(2%, 29%, 48%)" stroke-opacity="1.0" fill="none"><polyline points="0.6588,-0.1907 0.6883,-0.1907"/></g><g stroke-width="0.0" stroke="none" fill="rgb(5%, 5%, 5%)" fill-opacity="1.0" font-size="0.0294" text-anchor="start"><text x="0.4705" y="-0.2409">Minor Axis</text></g><g stroke-width="0.0050" stroke="rgb(73%, 34%, 1%)" stroke-opacity="1.0" fill="none" stroke-linecap="round" stroke-dasharray="0.0300 0.0100"><polyline points="0.6588,-0.2502 0.6883,-0.2502"/></g><g stroke-width="0.0" stroke="none" fill="rgb(5%, 5%, 5%)" fill-opacity="1.0" font-size="0.0294" text-anchor="start"><text x="0.4705" y="-0.3005">Major Axis</text></g><g stroke-width="0.0050" stroke="rgb(21%, 29%, 7%)" stroke-opacity="1.0" fill="none" stroke-linecap="round" stroke-dasharray="0.0300 0.0100"><polyline points="0.6588,-0.3098 0.6883,-0.3098"/></g></g></g><g class="title"><g stroke-width="0.0" stroke="none" fill="rgb(5%, 5%, 5%)" fill-opacity="1.0" font-size="0.0471" text-anchor="middle"><text x="0" y="-0.4225">ArcPosition (Point 1 0) (Point 0 1) (ArcInfo (Point 1.5 1) (pi / 3) True True)</text></g></g><g class="frame"><g stroke-width="0" stroke="rgb(0%, 0%, 0%)" stroke-opacity="0" fill="rgb(100%, 100%, 100%)" fill-opacity="0.02"><rect width="1.7" height="1.0" x="-0.85" y="-0.5"/></g></g></g></svg>