<svg height="300" viewBox="-0.9525 -0.4802 1.9399 0.9756" width="596" xmlns="http://www.w3.org/2000/svg" xmlns:xlink="http://www.w3.org/1999/xlink"><style>svg {
  color-scheme: light dark;
}
{
  .canvas g, .title g, .axisbar g, .ticktext g, .tickglyph g, .ticklines g, .legendContent g text {
    fill: rgb(5%, 5%, 5%);
  }
  .ticklines g, .tickglyph g, .legendBorder g {
    stroke: rgb(5%, 5%, 5%);
  }
  .legendBorder g {
    fill: rgb(94%, 94%, 94%);
  }
}
@media (prefers-color-scheme:dark) {
  .canvas g, .title g, .axisbar g, .ticktext g, .tickglyph g, .ticklines g, .legendContent g text {
    fill: rgb(94%, 94%, 94%);
  }
  .ticklines g, .tickglyph g, .legendBorder g {
    stroke: rgb(94%, 94%, 94%);
  }
  .legendBorder g {
    fill: rgb(5%, 5%, 5%);
  }
}</style><g class="chart"><g class="ellipse"><g fill="none" stroke="rgb(66%, 7%, 55%)" stroke-opacity="(1.0" stroke-width="0.0050"><polyline points="0.3505,-0.0323 0.3477,-0.0181 0.3438,-0.0036 0.3387,0.0109 0.3324,0.0256 0.3250,0.0402 0.3165,0.0549 0.3068,0.0696 0.2961,0.0842 0.2843,0.0988 0.2715,0.1132 0.2576,0.1275 0.2428,0.1416 0.2270,0.1555 0.2104,0.1691 0.1928,0.1825 0.1745,0.1955 0.1553,0.2083 0.1354,0.2206 0.1148,0.2326 0.0936,0.2441 0.0717,0.2552 0.0493,0.2659 0.0264,0.2760 0.0030,0.2857 -0.0208,0.2947 -0.0449,0.3033 -0.0694,0.3112 -0.0940,0.3186 -0.1189,0.3253 -0.1438,0.3315 -0.1689,0.3369 -0.1939,0.3418 -0.2189,0.3459 -0.2439,0.3494 -0.2686,0.3522 -0.2932,0.3543 -0.3175,0.3557 -0.3414,0.3565 -0.3650,0.3565 -0.3882,0.3558 -0.4108,0.3545 -0.4330,0.3524 -0.4546,0.3497 -0.4755,0.3462 -0.4958,0.3421 -0.5153,0.3374 -0.5341,0.3319 -0.5520,0.3259 -0.5691,0.3192 -0.5853,0.3119 -0.6006,0.3040 -0.6150,0.2955 -0.6283,0.2864 -0.6406,0.2769 -0.6519,0.2668 -0.6621,0.2562 -0.6712,0.2451 -0.6792,0.2336 -0.6860,0.2216 -0.6917,0.2093 -0.6962,0.1966 -0.6996,0.1836 -0.7018,0.1703 -0.7027,0.1566 -0.7025,0.1428 -0.7011,0.1287 -0.6986,0.1144 -0.6948,0.1000 -0.6898,0.0855 -0.6837,0.0709 -0.6765,0.0562 -0.6681,0.0415 -0.6586,0.0268 -0.6481,0.0122 -0.6364,-0.0024 -0.6237,-0.0168 -0.6100,-0.0311 -0.5953,-0.0453 -0.5797,-0.0592 -0.5632,-0.0728 -0.5458,-0.0863 -0.5275,-0.0994 -0.5085,-0.1121 -0.4887,-0.1245 -0.4682,-0.1366 -0.4470,-0.1482 -0.4252,-0.1594 -0.4029,-0.1701 -0.3800,-0.1803 -0.3567,-0.1900 -0.3330,-0.1992 -0.3089,-0.2078 -0.2845,-0.2158 -0.2599,-0.2233 -0.2351,-0.2301 -0.2101,-0.2363 -0.1851,-0.2419 -0.1600,-0.2468 -0.1350,-0.2511 -0.1101,-0.2546"/></g><g fill="none" stroke="rgb(2%, 29%, 48%)" stroke-opacity="(1.0" stroke-width="0.0020"><polyline points="0.1702,-0.2416 0.1445,-0.2480 0.1175,-0.2533 0.0894,-0.2573 0.0602,-0.2602 0.0301,-0.2618 -0.0008,-0.2623 -0.0325,-0.2615 -0.0646,-0.2594 -0.0972,-0.2562 -0.1302,-0.2518 -0.1633,-0.2462 -0.1964,-0.2394 -0.2295,-0.2315 -0.2623,-0.2226 -0.2948,-0.2125 -0.3269,-0.2014 -0.3583,-0.1894 -0.3890,-0.1764 -0.4189,-0.1625 -0.4478,-0.1478 -0.4756,-0.1323 -0.5022,-0.1161 -0.5276,-0.0993 -0.5516,-0.0819 -0.5740,-0.0640 -0.5949,-0.0456 -0.6142,-0.0269 -0.6317,-0.0079 -0.6474,0.0113 -0.6612,0.0307 -0.6732,0.0501 -0.6831,0.0695 -0.6911,0.0889 -0.6970,0.1080 -0.7009,0.1270 -0.7027,0.1456 -0.7024,0.1638 -0.7000,0.1816 -0.6956,0.1988 -0.6891,0.2154 -0.6805,0.2314 -0.6700,0.2467 -0.6575,0.2611 -0.6432,0.2747 -0.6269,0.2874 -0.6089,0.2992 -0.5892,0.3100 -0.5679,0.3197 -0.5450,0.3284 -0.5206,0.3359 -0.4949,0.3423 -0.4679,0.3476 -0.4397,0.3516 -0.4105,0.3545 -0.3804,0.3561 -0.3495,0.3566 -0.3179,0.3558 -0.2857,0.3538 -0.2531,0.3505 -0.2202,0.3461 -0.1871,0.3405 -0.1539,0.3337 -0.1209,0.3259 -0.0880,0.3169 -0.0555,0.3068 -0.0235,0.2957 0.0079,0.2837 0.0386,0.2707 0.0685,0.2568 0.0974,0.2421 0.1252,0.2266 0.1519,0.2104 0.1772,0.1936 0.2012,0.1762 0.2237,0.1583 0.2446,0.1400 0.2638,0.1212 0.2813,0.1022 0.2971,0.0830 0.3109,0.0636 0.3228,0.0442 0.3328,0.0248 0.3408,0.0054 0.3467,-0.0137 0.3505,-0.0327 0.3523,-0.0513 0.3520,-0.0695 0.3497,-0.0873 0.3452,-0.1045 0.3387,-0.1211 0.3302,-0.1371 0.3197,-0.1524 0.3072,-0.1668 0.2928,-0.1804 0.2766,-0.1931 0.2586,-0.2049 0.2389,-0.2157 0.2175,-0.2254 0.1946,-0.2341 0.1702,-0.2416"/></g><g fill="rgb(2%, 73%, 80%)" fill-opacity="(0.20" stroke="rgb(2%, 29%, 48%)" stroke-opacity="(1.0" stroke-width="0.0030"><circle cx="-0.1752" cy="0.0472" r="0.0150"/></g><g fill="rgb(100%, 71%, 35%)" fill-opacity="(0.20" stroke="rgb(2%, 29%, 48%)" stroke-opacity="(1.0" stroke-width="0.0030"><rect height="0.0300" width="0.0300" x="0.3355" y="-0.0473"/><rect height="0.0300" width="0.0300" x="-0.1251" y="-0.2696"/></g><g fill="rgb(53%, 51%, 28%)" fill-opacity="(0.0050" stroke="rgb(50%, 50%, 50%)" stroke-opacity="(1.0" stroke-width="0.0020"><rect height="0.6112" width="1.0533" x="-0.7028" y="-0.2546"/></g><g fill="none" stroke="rgb(21%, 29%, 7%)" stroke-dasharray="0.0300 0.0100" stroke-linecap="round" stroke-opacity="(1.0" stroke-width="0.0050"><polyline points="0.1702,-0.2416 -0.5206,0.3359"/></g><g fill="none" stroke="rgb(73%, 34%, 1%)" stroke-dasharray="0.0300 0.0100" stroke-linecap="round" stroke-opacity="(1.0" stroke-width="0.0050"><polyline points="-0.5740,-0.0640 0.2237,0.1583"/></g></g></g><g class="hud"><g class="frame"><g fill="rgb(100%, 100%, 100%)" fill-opacity="(0.020" stroke="rgb(0%, 0%, 0%)" stroke-opacity="(0.0" stroke-width="0"><rect height="0.7780" width="1.3817" x="-0.8009" y="-0.3658"/></g></g><g class="axis"><g class="ticks"><g class="tickglyph"><g fill="rgb(5%, 5%, 5%)" fill-opacity="(0.40" stroke="rgb(5%, 5%, 5%)" stroke-opacity="(0.40" stroke-width="0.0040"><g transform="rotate(-90.0, -0.8216, 0.4123)"><polyline points="-0.8216,0.4273
-0.8216,0.3973"/></g><g transform="rotate(-90.0, -0.8216, 0.3011)"><polyline points="-0.8216,0.3161
-0.8216,0.2861"/></g><g transform="rotate(-90.0, -0.8216, 0.1900)"><polyline points="-0.8216,0.2050
-0.8216,0.1750"/></g><g transform="rotate(-90.0, -0.8216, 0.0788)"><polyline points="-0.8216,0.0938
-0.8216,0.0638"/></g><g transform="rotate(-90.0, -0.8216, -0.0323)"><polyline points="-0.8216,-0.0173
-0.8216,-0.0473"/></g><g transform="rotate(-90.0, -0.8216, -0.1435)"><polyline points="-0.8216,-0.1285
-0.8216,-0.1585"/></g><g transform="rotate(-90.0, -0.8216, -0.2546)"><polyline points="-0.8216,-0.2396
-0.8216,-0.2696"/></g><g transform="rotate(-90.0, -0.8216, -0.3658)"><polyline points="-0.8216,-0.3508
-0.8216,-0.3808"/></g></g></g><g class="ticktext"><g fill="rgb(5%, 5%, 5%)" fill-opacity="(1.0" font-size="0.0345" stroke="none" stroke-width="0.0" text-anchor="end"><text x="-0.8465" y="0.4230">-2.00</text><text x="-0.8465" y="0.3118">-1.50</text><text x="-0.8465" y="0.2007">-1.00</text><text x="-0.8465" y="0.0895">-0.50</text><text x="-0.8465" y="-0.0216"> 0.00</text><text x="-0.8465" y="-0.1328"> 0.50</text><text x="-0.8465" y="-0.2439"> 1.00</text><text x="-0.8465" y="-0.3551"> 1.50</text></g></g><g class="ticklines"><g fill="none" stroke="rgb(5%, 5%, 5%)" stroke-opacity="(0.050" stroke-width="0.0050"><polyline points="-0.8009,0.4123 0.5808,0.4123"/><polyline points="-0.8009,0.3011 0.5808,0.3011"/><polyline points="-0.8009,0.1900 0.5808,0.1900"/><polyline points="-0.8009,0.0788 0.5808,0.0788"/><polyline points="-0.8009,-0.0323 0.5808,-0.0323"/><polyline points="-0.8009,-0.1435 0.5808,-0.1435"/><polyline points="-0.8009,-0.2546 0.5808,-0.2546"/><polyline points="-0.8009,-0.3658 0.5808,-0.3658"/></g></g></g><g class="axisbar"><g fill="rgb(5%, 5%, 5%)" fill-opacity="(0.40" stroke="rgb(0%, 0%, 0%)" stroke-opacity="(0.0" stroke-width="0"><rect height="0.7811" width="0.0028" x="-0.8106" y="-0.3673"/></g></g></g><g class="axis"><g class="ticks"><g class="tickglyph"><g fill="rgb(5%, 5%, 5%)" fill-opacity="(0.40" stroke="rgb(5%, 5%, 5%)" stroke-opacity="(0.40" stroke-width="0.0040"><polyline points="-0.8009,0.4506
-0.8009,0.4206"/><polyline points="-0.5706,0.4506
-0.5706,0.4206"/><polyline points="-0.3403,0.4506
-0.3403,0.4206"/><polyline points="-0.1101,0.4506
-0.1101,0.4206"/><polyline points="0.1202,0.4506
0.1202,0.4206"/><polyline points="0.3505,0.4506
0.3505,0.4206"/><polyline points="0.5808,0.4506
0.5808,0.4206"/></g></g><g class="ticktext"><g fill="rgb(5%, 5%, 5%)" fill-opacity="(1.0" font-size="0.0345" stroke="none" stroke-width="0.0" text-anchor="middle"><text x="-0.8009" y="0.485">-2.0</text><text x="-0.5706" y="0.485">-1.0</text><text x="-0.3403" y="0.485">-0.5</text><text x="-0.1101" y="0.485"> 0.0</text><text x="0.1202" y="0.485"> 0.5</text><text x="0.3505" y="0.485"> 1.0</text><text x="0.5808" y="0.485"> 2.0</text></g></g><g class="ticklines"><g fill="none" stroke="rgb(5%, 5%, 5%)" stroke-opacity="(0.050" stroke-width="0.0050"><polyline points="-0.8009,0.4123 -0.8009,-0.3658"/><polyline points="-0.5706,0.4123 -0.5706,-0.3658"/><polyline points="-0.3403,0.4123 -0.3403,-0.3658"/><polyline points="-0.1101,0.4123 -0.1101,-0.3658"/><polyline points="0.1202,0.4123 0.1202,-0.3658"/><polyline points="0.3505,0.4123 0.3505,-0.3658"/><polyline points="0.5808,0.4123 0.5808,-0.3658"/></g></g></g><g class="axisbar"><g fill="rgb(5%, 5%, 5%)" fill-opacity="(0.40" stroke="rgb(0%, 0%, 0%)" stroke-opacity="(0.0" stroke-width="0"><rect height="0.0031" width="1.3844" x="-0.8023" y="0.4200"/></g></g></g><g class="legend"><g class="legendBorder"><g fill="rgb(5%, 5%, 5%)" fill-opacity="(0.0" stroke="rgb(5%, 5%, 5%)" stroke-opacity="(1.0" stroke-width="0.0025"><rect height="0.4552" width="0.2919" x="0.6637" y="-0.3591"/></g></g><g class="legendContent"><g fill="rgb(5%, 5%, 5%)" fill-opacity="(1.0" font-size="0.0345" stroke="none" stroke-width="0.0" text-anchor="start"><text x="0.6809" y="0.0650">Bounding Box</text></g><g fill="rgb(53%, 51%, 28%)" fill-opacity="(0.0050" stroke="rgb(50%, 50%, 50%)" stroke-opacity="(1.0" stroke-width="0.0025"><rect height="0.0195" width="0.0173" x="0.9020" y="0.0455"/></g><g fill="rgb(5%, 5%, 5%)" fill-opacity="(1.0" font-size="0.0345" stroke="none" stroke-width="0.0" text-anchor="start"><text x="0.6809" y="0.0027">Endpoints</text></g><g fill="rgb(100%, 71%, 35%)" fill-opacity="(0.20" stroke="rgb(2%, 29%, 48%)" stroke-opacity="(1.0" stroke-width="0.0030"><rect height="0.0250" width="0.0250" x="0.8981" y="-0.0195"/></g><g fill="rgb(5%, 5%, 5%)" fill-opacity="(1.0" font-size="0.0345" stroke="none" stroke-width="0.0" text-anchor="start"><text x="0.6809" y="-0.0595">Centroid</text></g><g fill="rgb(2%, 73%, 80%)" fill-opacity="(0.20" stroke="rgb(2%, 29%, 48%)" stroke-opacity="(1.0" stroke-width="0.0030"><circle cx="0.9106" cy="-0.0693" r="0.0125"/></g><g fill="rgb(5%, 5%, 5%)" fill-opacity="(1.0" font-size="0.0345" stroke="none" stroke-width="0.0" text-anchor="start"><text x="0.6809" y="-0.1218">Arc</text></g><g fill="none" stroke="rgb(66%, 7%, 55%)" stroke-opacity="(1.0" stroke-width="0.0050"><polyline points="0.9020,-0.1315 0.9365,-0.1315"/></g><g fill="rgb(5%, 5%, 5%)" fill-opacity="(1.0" font-size="0.0345" stroke="none" stroke-width="0.0" text-anchor="start"><text x="0.6809" y="-0.1840">Full Ellipse</text></g><g fill="none" stroke="rgb(2%, 29%, 48%)" stroke-opacity="(1.0" stroke-width="0.0020"><polyline points="0.9020,-0.1937 0.9365,-0.1937"/></g><g fill="rgb(5%, 5%, 5%)" fill-opacity="(1.0" font-size="0.0345" stroke="none" stroke-width="0.0" text-anchor="start"><text x="0.6809" y="-0.2463">Minor Axis</text></g><g fill="none" stroke="rgb(73%, 34%, 1%)" stroke-dasharray="0.0300 0.0100" stroke-linecap="round" stroke-opacity="(1.0" stroke-width="0.0050"><polyline points="0.9020,-0.2560 0.9365,-0.2560"/></g><g fill="rgb(5%, 5%, 5%)" fill-opacity="(1.0" font-size="0.0345" stroke="none" stroke-width="0.0" text-anchor="start"><text x="0.6809" y="-0.3085">Major Axis</text></g><g fill="none" stroke="rgb(21%, 29%, 7%)" stroke-dasharray="0.0300 0.0100" stroke-linecap="round" stroke-opacity="(1.0" stroke-width="0.0050"><polyline points="0.9020,-0.3182 0.9365,-0.3182"/></g></g></g><g class="title"><g fill="rgb(5%, 5%, 5%)" fill-opacity="(1.0" font-size="0.0553" stroke="none" stroke-width="0.0" text-anchor="middle"><text x="0.0174" y="-0.4360">ArcPosition (Point 1 0) (Point 0 1) (ArcInfo (Point 1.5 1) (pi / 3) True True)</text></g></g></g></svg>