<svg xmlns="http://www.w3.org/2000/svg" xmlns:xlink="http://www.w3.org/1999/xlink" width="453" height="300" viewBox="-0.7627 -0.5 1.5127 1.0"><style>svg {
  color-scheme: light dark;
}
{
  .canvas g, .title g, .axisbar g, .ticktext g, .tickglyph g, .ticklines g, .legendContent g text {
    fill: rgb(5%, 5%, 5%);
  }
  .ticklines g, .tickglyph g, .legendBorder g {
    stroke: rgb(5%, 5%, 5%);
  }
  .legendBorder g {
    fill: rgb(94%, 94%, 94%);
  }
}
@media (prefers-color-scheme:dark) {
  .canvas g, .title g, .axisbar g, .ticktext g, .tickglyph g, .ticklines g, .legendContent g text {
    fill: rgb(94%, 94%, 94%);
  }
  .ticklines g, .tickglyph g, .legendBorder g {
    stroke: rgb(94%, 94%, 94%);
  }
  .legendBorder g {
    fill: rgb(5%, 5%, 5%);
  }
}
svg { font-family: system-ui,-apple-system,"Segoe UI",Roboto,"Helvetica Neue",Arial,"Noto Sans","Liberation Sans",sans-serif,"Apple Color Emoji","Segoe UI Emoji","Segoe UI Symbol","Noto Color Emoji";
}

ticktext { font-family: SFMono-Regular,Menlo,Monaco,Consolas,"Liberation Mono","Courier New",monospace;
}

</style><g class="chart"><g class="ellipse"><g stroke-width="0.0050" stroke="rgb(66%, 7%, 55%)" stroke-opacity="1.0" fill="none"><polyline points="0.1745,-0.0606 0.1727,-0.0463 0.1700,-0.0318 0.1666,-0.0173 0.1625,-0.0027 0.1576,0.0120 0.1519,0.0267 0.1455,0.0414 0.1383,0.0560 0.1305,0.0706 0.1220,0.0850 0.1128,0.0993 0.1029,0.1134 0.0924,0.1273 0.0814,0.1409 0.0697,0.1543 0.0575,0.1673 0.0448,0.1801 0.0315,0.1924 0.0178,0.2044 0.0037,0.2159 -0.0108,0.2270 -0.0257,0.2377 -0.0410,0.2478 -0.0565,0.2575 -0.0723,0.2665 -0.0883,0.2751 -0.1046,0.2830 -0.1210,0.2904 -0.1375,0.2971 -0.1541,0.3033 -0.1707,0.3087 -0.1874,0.3136 -0.2040,0.3177 -0.2206,0.3212 -0.2370,0.3240 -0.2533,0.3261 -0.2695,0.3276 -0.2854,0.3283 -0.3011,0.3283 -0.3165,0.3276 -0.3316,0.3263 -0.3463,0.3242 -0.3606,0.3215 -0.3745,0.3180 -0.3880,0.3139 -0.4010,0.3092 -0.4134,0.3038 -0.4254,0.2977 -0.4368,0.2910 -0.4475,0.2837 -0.4577,0.2758 -0.4672,0.2673 -0.4761,0.2583 -0.4843,0.2487 -0.4918,0.2386 -0.4986,0.2280 -0.5046,0.2169 -0.5099,0.2054 -0.5145,0.1934 -0.5182,0.1811 -0.5213,0.1684 -0.5235,0.1554 -0.5249,0.1420 -0.5256,0.1284 -0.5254,0.1146 -0.5245,0.1005 -0.5228,0.0862 -0.5203,0.0718 -0.5170,0.0573 -0.5129,0.0426 -0.5081,0.0280 -0.5026,0.0133 -0.4963,-0.0014 -0.4892,-0.0160 -0.4815,-0.0306 -0.4730,-0.0450 -0.4639,-0.0594 -0.4542,-0.0735 -0.4438,-0.0874 -0.4328,-0.1011 -0.4212,-0.1145 -0.4091,-0.1276 -0.3964,-0.1404 -0.3833,-0.1528 -0.3697,-0.1648 -0.3556,-0.1764 -0.3411,-0.1876 -0.3263,-0.1983 -0.3111,-0.2085 -0.2956,-0.2182 -0.2798,-0.2274 -0.2638,-0.2360 -0.2476,-0.2440 -0.2312,-0.2515 -0.2147,-0.2583 -0.1981,-0.2645 -0.1815,-0.2701 -0.1648,-0.2750 -0.1482,-0.2793 -0.1316,-0.2829"/></g><g stroke-width="0.0020" stroke="rgb(2%, 29%, 48%)" stroke-opacity="1.0" fill="none"><polyline points="0.0547,-0.2699 0.0376,-0.2763 0.0196,-0.2815 0.0009,-0.2856 -0.0185,-0.2884 -0.0385,-0.2901 -0.0590,-0.2905 -0.0800,-0.2897 -0.1014,-0.2877 -0.1231,-0.2845 -0.1450,-0.2800 -0.1670,-0.2744 -0.1890,-0.2677 -0.2110,-0.2598 -0.2328,-0.2508 -0.2544,-0.2407 -0.2757,-0.2297 -0.2966,-0.2176 -0.3170,-0.2046 -0.3369,-0.1907 -0.3561,-0.1760 -0.3746,-0.1605 -0.3923,-0.1444 -0.4092,-0.1275 -0.4251,-0.1101 -0.4400,-0.0922 -0.4539,-0.0739 -0.4667,-0.0551 -0.4783,-0.0361 -0.4888,-0.0169 -0.4980,0.0025 -0.5059,0.0219 -0.5125,0.0413 -0.5178,0.0607 -0.5218,0.0798 -0.5243,0.0988 -0.5255,0.1174 -0.5253,0.1356 -0.5238,0.1534 -0.5208,0.1706 -0.5165,0.1872 -0.5108,0.2032 -0.5038,0.2185 -0.4955,0.2329 -0.4860,0.2465 -0.4752,0.2592 -0.4632,0.2710 -0.4501,0.2818 -0.4359,0.2915 -0.4207,0.3002 -0.4045,0.3077 -0.3874,0.3141 -0.3695,0.3194 -0.3508,0.3234 -0.3314,0.3263 -0.3113,0.3279 -0.2908,0.3284 -0.2698,0.3276 -0.2484,0.3256 -0.2267,0.3223 -0.2048,0.3179 -0.1828,0.3123 -0.1608,0.3056 -0.1388,0.2977 -0.1170,0.2887 -0.0954,0.2786 -0.0741,0.2675 -0.0532,0.2555 -0.0328,0.2425 -0.0129,0.2286 0.0063,0.2139 0.0248,0.1984 0.0425,0.1822 0.0593,0.1654 0.0753,0.1480 0.0902,0.1301 0.1041,0.1117 0.1169,0.0930 0.1285,0.0740 0.1390,0.0548 0.1482,0.0354 0.1561,0.0160 0.1627,-0.0034 0.1680,-0.0228 0.1720,-0.0419 0.1745,-0.0609 0.1757,-0.0795 0.1755,-0.0977 0.1739,-0.1155 0.1710,-0.1327 0.1667,-0.1494 0.1610,-0.1653 0.1540,-0.1806 0.1457,-0.1950 0.1362,-0.2087 0.1254,-0.2214 0.1134,-0.2331 0.1003,-0.2439 0.0861,-0.2536 0.0709,-0.2623 0.0547,-0.2699"/></g><g stroke-width="0.0030" stroke="rgb(2%, 29%, 48%)" stroke-opacity="1.0" fill="rgb(2%, 73%, 80%)" fill-opacity="0.2"><circle cx="-0.1749" cy="0.0189" r="0.0150"/></g><g stroke-width="0.0030" stroke="rgb(2%, 29%, 48%)" stroke-opacity="1.0" fill="rgb(100%, 71%, 35%)" fill-opacity="0.2"><circle cx="0.1745" cy="-0.0606" r="0.0150"/><circle cx="-0.1316" cy="-0.2829" r="0.0150"/></g><g stroke-width="0.0020" stroke="rgb(50%, 50%, 50%)" stroke-opacity="1.0" fill="rgb(53%, 51%, 28%)" fill-opacity="0.00"><rect width="0.7001" height="0.6113" x="-0.5256" y="-0.2829"/></g><g stroke-width="0.0050" stroke="rgb(21%, 29%, 7%)" stroke-opacity="1.0" fill="none" stroke-linecap="round" stroke-dasharray="0.0300 0.0100"><polyline points="0.0547,-0.2699 -0.4045,0.3077"/></g><g stroke-width="0.0050" stroke="rgb(73%, 34%, 1%)" stroke-opacity="1.0" fill="none" stroke-linecap="round" stroke-dasharray="0.0300 0.0100"><polyline points="-0.4400,-0.0922 0.0902,0.1301"/></g></g><g class="datapadding"></g></g><g class="hud"><g class="frame"><g stroke-width="0" stroke="rgb(0%, 0%, 0%)" stroke-opacity="0" fill="rgb(100%, 100%, 100%)" fill-opacity="0.02"><rect width="0.9184" height="0.7781" x="-0.5908" y="-0.3940"/></g></g><g class="axis"><g class="axisbar"><g stroke-width="0" stroke="rgb(0%, 0%, 0%)" stroke-opacity="0" fill="rgb(5%, 5%, 5%)" fill-opacity="0.4"><rect width="0.9208" height="0.0031" x="-0.5920" y="0.3918"/></g></g><g class="ticks"><g class="ticklines"><g stroke-width="0.0050" stroke="rgb(5%, 5%, 5%)" stroke-opacity="0.05" fill="none"><polyline points="-0.5908,0.3841 -0.5908,-0.3940"/><polyline points="-0.4378,0.3841 -0.4378,-0.3940"/><polyline points="-0.2847,0.3841 -0.2847,-0.3940"/><polyline points="-0.1316,0.3841 -0.1316,-0.3940"/><polyline points="0.0214,0.3841 0.0214,-0.3940"/><polyline points="0.1745,0.3841 0.1745,-0.3940"/><polyline points="0.3276,0.3841 0.3276,-0.3940"/></g></g><g class="tickglyph"><g stroke-width="0.0031" stroke="rgb(5%, 5%, 5%)" stroke-opacity="0.4" fill="rgb(5%, 5%, 5%)" fill-opacity="0.4"><polyline points="-0.5908,0.4167
-0.5908,0.3934"/><polyline points="-0.4378,0.4167
-0.4378,0.3934"/><polyline points="-0.2847,0.4167
-0.2847,0.3934"/><polyline points="-0.1316,0.4167
-0.1316,0.3934"/><polyline points="0.0214,0.4167
0.0214,0.3934"/><polyline points="0.1745,0.4167
0.1745,0.3934"/><polyline points="0.3276,0.4167
0.3276,0.3934"/></g></g><g class="ticktext"><g stroke-width="0.0" stroke="none" fill="rgb(5%, 5%, 5%)" fill-opacity="1.0" font-size="0.0400" text-anchor="middle"><text x="-0.5908" y="0.4595">-2.0</text><text x="-0.4378" y="0.4595">-1.0</text><text x="-0.2847" y="0.4595">-0.5</text><text x="-0.1316" y="0.4595"> 0.0</text><text x="0.0214" y="0.4595"> 0.5</text><text x="0.1745" y="0.4595"> 1.0</text><text x="0.3276" y="0.4595"> 2.0</text></g></g></g></g><g class="axis"><g class="axisbar"><g stroke-width="0" stroke="rgb(0%, 0%, 0%)" stroke-opacity="0" fill="rgb(5%, 5%, 5%)" fill-opacity="0.4"><rect width="0.0024" height="0.7812" x="-0.5994" y="-0.3956"/></g></g><g class="ticks"><g class="ticklines"><g stroke-width="0.0050" stroke="rgb(5%, 5%, 5%)" stroke-opacity="0.05" fill="none"><polyline points="-0.5908,0.3841 0.3276,0.3841"/><polyline points="-0.5908,0.2729 0.3276,0.2729"/><polyline points="-0.5908,0.1618 0.3276,0.1618"/><polyline points="-0.5908,0.0506 0.3276,0.0506"/><polyline points="-0.5908,-0.0606 0.3276,-0.0606"/><polyline points="-0.5908,-0.1717 0.3276,-0.1717"/><polyline points="-0.5908,-0.2829 0.3276,-0.2829"/><polyline points="-0.5908,-0.3940 0.3276,-0.3940"/></g></g><g class="tickglyph"><g stroke-width="0.0024" stroke="rgb(5%, 5%, 5%)" stroke-opacity="0.4" fill="rgb(5%, 5%, 5%)" fill-opacity="0.4"><polyline points="-0.6165,0.3841
-0.5982,0.3841"/><polyline points="-0.6165,0.2729
-0.5982,0.2729"/><polyline points="-0.6165,0.1618
-0.5982,0.1618"/><polyline points="-0.6165,0.0506
-0.5982,0.0506"/><polyline points="-0.6165,-0.0606
-0.5982,-0.0606"/><polyline points="-0.6165,-0.1717
-0.5982,-0.1717"/><polyline points="-0.6165,-0.2829
-0.5982,-0.2829"/><polyline points="-0.6165,-0.3940
-0.5982,-0.3940"/></g></g><g class="ticktext"><g stroke-width="0.0" stroke="none" fill="rgb(5%, 5%, 5%)" fill-opacity="1.0" font-size="0.0400" text-anchor="end"><text x="-0.6667" y="0.3926">-2.0</text><text x="-0.6667" y="0.2815">-1.5</text><text x="-0.6667" y="0.1703">-1.0</text><text x="-0.6667" y="0.0592">-0.5</text><text x="-0.6667" y="-0.0520"> 0.0</text><text x="-0.6667" y="-0.1632"> 0.5</text><text x="-0.6667" y="-0.2743"> 1.0</text><text x="-0.6667" y="-0.3855"> 1.5</text></g></g></g></g><g class="legend"><g class="padding"></g><g class="padding"></g><g class="frame"><g stroke-width="0.0008" stroke="rgb(5%, 5%, 5%)" stroke-opacity="1.0" fill="rgb(5%, 5%, 5%)" fill-opacity="0"><rect width="0.3306" height="0.4552" x="0.3918" y="-0.2326"/></g></g><g class="legendContent"><g stroke-width="0.0015" stroke="rgb(50%, 50%, 50%)" stroke-opacity="1.0" fill="rgb(53%, 51%, 28%)" fill-opacity="0.00"><rect width="0.0153" height="0.0195" x="0.6742" y="0.1720"/></g><g stroke-width="0.0" stroke="none" fill="rgb(5%, 5%, 5%)" fill-opacity="1.0" font-size="0.0306" text-anchor="start"><text x="0.4071" y="0.1915">Bounding Box</text></g><g stroke-width="0.0005" stroke="rgb(2%, 29%, 48%)" stroke-opacity="1.0" fill="rgb(100%, 71%, 35%)" fill-opacity="0.2"><rect width="0.0153" height="0.0153" x="0.6737" y="0.1119"/></g><g stroke-width="0.0" stroke="none" fill="rgb(5%, 5%, 5%)" fill-opacity="1.0" font-size="0.0306" text-anchor="start"><text x="0.4071" y="0.1292">Endpoints</text></g><g stroke-width="0.0005" stroke="rgb(2%, 29%, 48%)" stroke-opacity="1.0" fill="rgb(2%, 73%, 80%)" fill-opacity="0.2"><rect width="0.0153" height="0.0153" x="0.6737" y="0.0496"/></g><g stroke-width="0.0" stroke="none" fill="rgb(5%, 5%, 5%)" fill-opacity="1.0" font-size="0.0306" text-anchor="start"><text x="0.4071" y="0.0670">Centroid</text></g><g stroke-width="0.0031" stroke="rgb(66%, 7%, 55%)" stroke-opacity="1.0" fill="none"><polyline points="0.6750,-0.0050 0.7056,-0.0050"/></g><g stroke-width="0.0" stroke="none" fill="rgb(5%, 5%, 5%)" fill-opacity="1.0" font-size="0.0306" text-anchor="start"><text x="0.4071" y="0.0047">Arc</text></g><g stroke-width="0.0012" stroke="rgb(2%, 29%, 48%)" stroke-opacity="1.0" fill="none"><polyline points="0.6741,-0.0672 0.7047,-0.0672"/></g><g stroke-width="0.0" stroke="none" fill="rgb(5%, 5%, 5%)" fill-opacity="1.0" font-size="0.0306" text-anchor="start"><text x="0.4071" y="-0.0575">Full Ellipse</text></g><g stroke-width="0.0031" stroke="rgb(73%, 34%, 1%)" stroke-opacity="1.0" fill="none" stroke-linecap="round" stroke-dasharray="0.0300 0.0100"><polyline points="0.6750,-0.1295 0.7056,-0.1295"/></g><g stroke-width="0.0" stroke="none" fill="rgb(5%, 5%, 5%)" fill-opacity="1.0" font-size="0.0306" text-anchor="start"><text x="0.4071" y="-0.1197">Minor Axis</text></g><g stroke-width="0.0031" stroke="rgb(21%, 29%, 7%)" stroke-opacity="1.0" fill="none" stroke-linecap="round" stroke-dasharray="0.0300 0.0100"><polyline points="0.6750,-0.1917 0.7056,-0.1917"/></g><g stroke-width="0.0" stroke="none" fill="rgb(5%, 5%, 5%)" fill-opacity="1.0" font-size="0.0306" text-anchor="start"><text x="0.4071" y="-0.1820">Major Axis</text></g></g></g><g class="title"><g stroke-width="0.0" stroke="none" fill="rgb(5%, 5%, 5%)" fill-opacity="1.0" font-size="0.0320" text-anchor="middle"><text x="0" y="-0.4490">ArcPosition (Point 1 0) (Point 0 1) (ArcInfo (Point 1.5 1) (pi / 3) True True)</text></g></g><g class="frame"><g stroke-width="0" stroke="rgb(0%, 0%, 0%)" stroke-opacity="0" fill="rgb(0%, 0%, 0%)" fill-opacity="0"><rect width="1.5" height="1.0" x="-0.75" y="-0.5"/></g></g></g></svg>