<svg xmlns="http://www.w3.org/2000/svg" xmlns:xlink="http://www.w3.org/1999/xlink" width="453" height="300" viewBox="-0.7633 -0.5 1.5133 1.0"><style>svg {
  color-scheme: light dark;
}
{
  .canvas g, .title g, .axisbar g, .ticktext g, .tickglyph g, .ticklines g, .legendContent g text {
    fill: rgb(5%, 5%, 5%);
  }
  .ticklines g, .tickglyph g, .legendBorder g {
    stroke: rgb(5%, 5%, 5%);
  }
  .legendBorder g {
    fill: rgb(94%, 94%, 94%);
  }
}
@media (prefers-color-scheme:dark) {
  .canvas g, .title g, .axisbar g, .ticktext g, .tickglyph g, .ticklines g, .legendContent g text {
    fill: rgb(94%, 94%, 94%);
  }
  .ticklines g, .tickglyph g, .legendBorder g {
    stroke: rgb(94%, 94%, 94%);
  }
  .legendBorder g {
    fill: rgb(5%, 5%, 5%);
  }
}
svg { font-family: system-ui,-apple-system,"Segoe UI",Roboto,"Helvetica Neue",Arial,"Noto Sans","Liberation Sans",sans-serif,"Apple Color Emoji","Segoe UI Emoji","Segoe UI Symbol","Noto Color Emoji";
}

ticktext { font-family: SFMono-Regular,Menlo,Monaco,Consolas,"Liberation Mono","Courier New",monospace;
}

</style><g class="chart"><g class="ellipse"><g stroke-width="0.0050" stroke="rgb(66%, 7%, 55%)" stroke-opacity="1.0" fill="none"><polyline points="0.1687,-0.0606 0.1669,-0.0463 0.1643,-0.0318 0.1609,-0.0173 0.1567,-0.0027 0.1519,0.0120 0.1462,0.0267 0.1398,0.0414 0.1327,0.0560 0.1250,0.0706 0.1165,0.0850 0.1073,0.0993 0.0976,0.1134 0.0871,0.1273 0.0761,0.1409 0.0646,0.1543 0.0524,0.1673 0.0398,0.1801 0.0266,0.1924 0.0130,0.2044 -0.0010,0.2159 -0.0155,0.2270 -0.0303,0.2377 -0.0454,0.2478 -0.0609,0.2575 -0.0766,0.2665 -0.0925,0.2751 -0.1086,0.2830 -0.1249,0.2904 -0.1413,0.2971 -0.1578,0.3033 -0.1744,0.3087 -0.1909,0.3136 -0.2074,0.3177 -0.2239,0.3212 -0.2402,0.3240 -0.2565,0.3261 -0.2725,0.3276 -0.2883,0.3283 -0.3039,0.3283 -0.3192,0.3276 -0.3342,0.3263 -0.3488,0.3242 -0.3631,0.3215 -0.3769,0.3180 -0.3903,0.3139 -0.4032,0.3092 -0.4156,0.3038 -0.4274,0.2977 -0.4387,0.2910 -0.4494,0.2837 -0.4595,0.2758 -0.4690,0.2673 -0.4778,0.2583 -0.4860,0.2487 -0.4934,0.2386 -0.5001,0.2280 -0.5062,0.2169 -0.5114,0.2054 -0.5159,0.1934 -0.5197,0.1811 -0.5227,0.1684 -0.5249,0.1554 -0.5263,0.1420 -0.5270,0.1284 -0.5268,0.1146 -0.5259,0.1005 -0.5242,0.0862 -0.5217,0.0718 -0.5185,0.0573 -0.5144,0.0426 -0.5096,0.0280 -0.5041,0.0133 -0.4978,-0.0014 -0.4909,-0.0160 -0.4832,-0.0306 -0.4748,-0.0450 -0.4657,-0.0594 -0.4560,-0.0735 -0.4457,-0.0874 -0.4348,-0.1011 -0.4233,-0.1145 -0.4112,-0.1276 -0.3987,-0.1404 -0.3856,-0.1528 -0.3720,-0.1648 -0.3581,-0.1764 -0.3437,-0.1876 -0.3289,-0.1983 -0.3138,-0.2085 -0.2984,-0.2182 -0.2828,-0.2274 -0.2669,-0.2360 -0.2508,-0.2440 -0.2345,-0.2515 -0.2181,-0.2583 -0.2016,-0.2645 -0.1851,-0.2701 -0.1685,-0.2750 -0.1520,-0.2793 -0.1355,-0.2829"/></g><g stroke-width="0.0020" stroke="rgb(2%, 29%, 48%)" stroke-opacity="1.0" fill="none"><polyline points="0.0496,-0.2699 0.0326,-0.2763 0.0148,-0.2815 -0.0038,-0.2856 -0.0231,-0.2884 -0.0429,-0.2901 -0.0634,-0.2905 -0.0843,-0.2897 -0.1055,-0.2877 -0.1271,-0.2845 -0.1488,-0.2800 -0.1707,-0.2744 -0.1925,-0.2677 -0.2144,-0.2598 -0.2361,-0.2508 -0.2575,-0.2407 -0.2787,-0.2297 -0.2995,-0.2176 -0.3198,-0.2046 -0.3395,-0.1907 -0.3586,-0.1760 -0.3770,-0.1605 -0.3945,-0.1444 -0.4113,-0.1275 -0.4271,-0.1101 -0.4420,-0.0922 -0.4558,-0.0739 -0.4685,-0.0551 -0.4800,-0.0361 -0.4904,-0.0169 -0.4996,0.0025 -0.5075,0.0219 -0.5140,0.0413 -0.5193,0.0607 -0.5232,0.0798 -0.5258,0.0988 -0.5269,0.1174 -0.5267,0.1356 -0.5252,0.1534 -0.5222,0.1706 -0.5179,0.1872 -0.5123,0.2032 -0.5054,0.2185 -0.4971,0.2329 -0.4876,0.2465 -0.4769,0.2592 -0.4650,0.2710 -0.4520,0.2818 -0.4379,0.2915 -0.4228,0.3002 -0.4067,0.3077 -0.3897,0.3141 -0.3719,0.3194 -0.3533,0.3234 -0.3340,0.3263 -0.3141,0.3279 -0.2937,0.3284 -0.2728,0.3276 -0.2515,0.3256 -0.2300,0.3223 -0.2083,0.3179 -0.1864,0.3123 -0.1645,0.3056 -0.1427,0.2977 -0.1210,0.2887 -0.0995,0.2786 -0.0783,0.2675 -0.0576,0.2555 -0.0373,0.2425 -0.0176,0.2286 0.0015,0.2139 0.0199,0.1984 0.0375,0.1822 0.0542,0.1654 0.0701,0.1480 0.0849,0.1301 0.0987,0.1117 0.1114,0.0930 0.1230,0.0740 0.1334,0.0548 0.1425,0.0354 0.1504,0.0160 0.1570,-0.0034 0.1622,-0.0228 0.1662,-0.0419 0.1687,-0.0609 0.1699,-0.0795 0.1697,-0.0977 0.1681,-0.1155 0.1652,-0.1327 0.1609,-0.1494 0.1553,-0.1653 0.1483,-0.1806 0.1401,-0.1950 0.1306,-0.2087 0.1199,-0.2214 0.1080,-0.2331 0.0949,-0.2439 0.0808,-0.2536 0.0657,-0.2623 0.0496,-0.2699"/></g><g stroke-width="0.0030" stroke="rgb(2%, 29%, 48%)" stroke-opacity="1.0" fill="rgb(2%, 73%, 80%)" fill-opacity="0.2"><circle cx="-0.1785" cy="0.0189" r="0.0150"/></g><g stroke-width="0.0030" stroke="rgb(2%, 29%, 48%)" stroke-opacity="1.0" fill="rgb(100%, 71%, 35%)" fill-opacity="0.2"><circle cx="0.1687" cy="-0.0606" r="0.0150"/><circle cx="-0.1355" cy="-0.2829" r="0.0150"/></g><g stroke-width="0.0020" stroke="rgb(50%, 50%, 50%)" stroke-opacity="1.0" fill="rgb(53%, 51%, 28%)" fill-opacity="0.00"><rect width="0.6957" height="0.6113" x="-0.5270" y="-0.2829"/></g><g stroke-width="0.0050" stroke="rgb(21%, 29%, 7%)" stroke-opacity="1.0" fill="none" stroke-linecap="round" stroke-dasharray="0.0300 0.0100"><polyline points="0.0496,-0.2699 -0.4067,0.3077"/></g><g stroke-width="0.0050" stroke="rgb(73%, 34%, 1%)" stroke-opacity="1.0" fill="none" stroke-linecap="round" stroke-dasharray="0.0300 0.0100"><polyline points="-0.4420,-0.0922 0.0849,0.1301"/></g></g><g class="datapadding"></g></g><g class="hud"><g class="frame"><g stroke-width="0" stroke="rgb(0%, 0%, 0%)" stroke-opacity="0" fill="rgb(100%, 100%, 100%)" fill-opacity="0.02"><rect width="0.9126" height="0.7781" x="-0.5918" y="-0.3940"/></g></g><g class="axis"><g class="axisbar"><g stroke-width="0" stroke="rgb(0%, 0%, 0%)" stroke-opacity="0" fill="rgb(5%, 5%, 5%)" fill-opacity="0.4"><rect width="0.0024" height="0.7812" x="-0.6003" y="-0.3956"/></g></g><g class="ticks"><g class="ticklines"><g stroke-width="0.0050" stroke="rgb(5%, 5%, 5%)" stroke-opacity="0.05" fill="none"><polyline points="-0.5918,0.3841 0.3208,0.3841"/><polyline points="-0.5918,0.2729 0.3208,0.2729"/><polyline points="-0.5918,0.1618 0.3208,0.1618"/><polyline points="-0.5918,0.0506 0.3208,0.0506"/><polyline points="-0.5918,-0.0606 0.3208,-0.0606"/><polyline points="-0.5918,-0.1717 0.3208,-0.1717"/><polyline points="-0.5918,-0.2829 0.3208,-0.2829"/><polyline points="-0.5918,-0.3940 0.3208,-0.3940"/></g></g><g class="tickglyph"><g stroke-width="0.0024" stroke="rgb(5%, 5%, 5%)" stroke-opacity="0.4" fill="rgb(5%, 5%, 5%)" fill-opacity="0.4"><polyline points="-0.6174,0.3841
-0.5991,0.3841"/><polyline points="-0.6174,0.2729
-0.5991,0.2729"/><polyline points="-0.6174,0.1618
-0.5991,0.1618"/><polyline points="-0.6174,0.0506
-0.5991,0.0506"/><polyline points="-0.6174,-0.0606
-0.5991,-0.0606"/><polyline points="-0.6174,-0.1717
-0.5991,-0.1717"/><polyline points="-0.6174,-0.2829
-0.5991,-0.2829"/><polyline points="-0.6174,-0.3940
-0.5991,-0.3940"/></g></g><g class="ticktext"><g stroke-width="0.0" stroke="none" fill="rgb(5%, 5%, 5%)" fill-opacity="1.0" font-size="0.0400" text-anchor="end"><text x="-0.6673" y="0.3926">-2.0</text><text x="-0.6673" y="0.2815">-1.5</text><text x="-0.6673" y="0.1703">-1.0</text><text x="-0.6673" y="0.0592">-0.5</text><text x="-0.6673" y="-0.0520"> 0.0</text><text x="-0.6673" y="-0.1632"> 0.5</text><text x="-0.6673" y="-0.2743"> 1.0</text><text x="-0.6673" y="-0.3855"> 1.5</text></g></g></g></g><g class="axis"><g class="axisbar"><g stroke-width="0" stroke="rgb(0%, 0%, 0%)" stroke-opacity="0" fill="rgb(5%, 5%, 5%)" fill-opacity="0.4"><rect width="0.9150" height="0.0031" x="-0.5930" y="0.3918"/></g></g><g class="ticks"><g class="ticklines"><g stroke-width="0.0050" stroke="rgb(5%, 5%, 5%)" stroke-opacity="0.05" fill="none"><polyline points="-0.5918,0.3841 -0.5918,-0.3940"/><polyline points="-0.4397,0.3841 -0.4397,-0.3940"/><polyline points="-0.2876,0.3841 -0.2876,-0.3940"/><polyline points="-0.1355,0.3841 -0.1355,-0.3940"/><polyline points="0.0166,0.3841 0.0166,-0.3940"/><polyline points="0.1687,0.3841 0.1687,-0.3940"/><polyline points="0.3208,0.3841 0.3208,-0.3940"/></g></g><g class="tickglyph"><g stroke-width="0.0031" stroke="rgb(5%, 5%, 5%)" stroke-opacity="0.4" fill="rgb(5%, 5%, 5%)" fill-opacity="0.4"><polyline points="-0.5918,0.4167
-0.5918,0.3934"/><polyline points="-0.4397,0.4167
-0.4397,0.3934"/><polyline points="-0.2876,0.4167
-0.2876,0.3934"/><polyline points="-0.1355,0.4167
-0.1355,0.3934"/><polyline points="0.0166,0.4167
0.0166,0.3934"/><polyline points="0.1687,0.4167
0.1687,0.3934"/><polyline points="0.3208,0.4167
0.3208,0.3934"/></g></g><g class="ticktext"><g stroke-width="0.0" stroke="none" fill="rgb(5%, 5%, 5%)" fill-opacity="1.0" font-size="0.0400" text-anchor="middle"><text x="-0.5918" y="0.4595">-2.0</text><text x="-0.4397" y="0.4595">-1.0</text><text x="-0.2876" y="0.4595">-0.5</text><text x="-0.1355" y="0.4595"> 0.0</text><text x="0.0166" y="0.4595"> 0.5</text><text x="0.1687" y="0.4595"> 1.0</text><text x="0.3208" y="0.4595"> 2.0</text></g></g></g></g><g class="legend"><g class="padding"></g><g class="padding"></g><g class="frame"><g stroke-width="0.0008" stroke="rgb(5%, 5%, 5%)" stroke-opacity="1.0" fill="rgb(5%, 5%, 5%)" fill-opacity="0"><rect width="0.3270" height="0.4552" x="0.3956" y="-0.3851"/></g></g><g class="legendContent"><g stroke-width="0.0" stroke="none" fill="rgb(5%, 5%, 5%)" fill-opacity="1.0" font-size="0.0304" text-anchor="start"><text x="0.4108" y="0.0390">Bounding Box</text></g><g stroke-width="0.0015" stroke="rgb(50%, 50%, 50%)" stroke-opacity="1.0" fill="rgb(53%, 51%, 28%)" fill-opacity="0.00"><rect width="0.0152" height="0.0195" x="0.6755" y="0.0195"/></g><g stroke-width="0.0" stroke="none" fill="rgb(5%, 5%, 5%)" fill-opacity="1.0" font-size="0.0304" text-anchor="start"><text x="0.4108" y="-0.0233">Endpoints</text></g><g stroke-width="0.0005" stroke="rgb(2%, 29%, 48%)" stroke-opacity="1.0" fill="rgb(100%, 71%, 35%)" fill-opacity="0.2"><rect width="0.0152" height="0.0152" x="0.6755" y="-0.0406"/></g><g stroke-width="0.0" stroke="none" fill="rgb(5%, 5%, 5%)" fill-opacity="1.0" font-size="0.0304" text-anchor="start"><text x="0.4108" y="-0.0855">Centroid</text></g><g stroke-width="0.0005" stroke="rgb(2%, 29%, 48%)" stroke-opacity="1.0" fill="rgb(2%, 73%, 80%)" fill-opacity="0.2"><rect width="0.0152" height="0.0152" x="0.6755" y="-0.1028"/></g><g stroke-width="0.0" stroke="none" fill="rgb(5%, 5%, 5%)" fill-opacity="1.0" font-size="0.0304" text-anchor="start"><text x="0.4108" y="-0.1478">Arc</text></g><g stroke-width="0.0030" stroke="rgb(66%, 7%, 55%)" stroke-opacity="1.0" fill="none"><polyline points="0.6755,-0.1575 0.7059,-0.1575"/></g><g stroke-width="0.0" stroke="none" fill="rgb(5%, 5%, 5%)" fill-opacity="1.0" font-size="0.0304" text-anchor="start"><text x="0.4108" y="-0.2100">Full Ellipse</text></g><g stroke-width="0.0012" stroke="rgb(2%, 29%, 48%)" stroke-opacity="1.0" fill="none"><polyline points="0.6755,-0.2197 0.7059,-0.2197"/></g><g stroke-width="0.0" stroke="none" fill="rgb(5%, 5%, 5%)" fill-opacity="1.0" font-size="0.0304" text-anchor="start"><text x="0.4108" y="-0.2723">Minor Axis</text></g><g stroke-width="0.0030" stroke="rgb(73%, 34%, 1%)" stroke-opacity="1.0" fill="none" stroke-linecap="round" stroke-dasharray="0.0300 0.0100"><polyline points="0.6755,-0.2820 0.7059,-0.2820"/></g><g stroke-width="0.0" stroke="none" fill="rgb(5%, 5%, 5%)" fill-opacity="1.0" font-size="0.0304" text-anchor="start"><text x="0.4108" y="-0.3345">Major Axis</text></g><g stroke-width="0.0030" stroke="rgb(21%, 29%, 7%)" stroke-opacity="1.0" fill="none" stroke-linecap="round" stroke-dasharray="0.0300 0.0100"><polyline points="0.6755,-0.3442 0.7059,-0.3442"/></g></g></g><g class="title"><g stroke-width="0.0" stroke="none" fill="rgb(5%, 5%, 5%)" fill-opacity="1.0" font-size="0.0320" text-anchor="middle"><text x="0" y="-0.4490">ArcPosition (Point 1 0) (Point 0 1) (ArcInfo (Point 1.5 1) (pi / 3) True True)</text></g></g><g class="frame"><g stroke-width="0" stroke="rgb(0%, 0%, 0%)" stroke-opacity="0" fill="rgb(0%, 0%, 0%)" fill-opacity="0"><rect width="1.5" height="1.0" x="-0.75" y="-0.5"/></g></g></g></svg>