<svg xmlns="http://www.w3.org/2000/svg" width="597.6099976648998" xmlns:xlink="http://www.w3.org/1999/xlink" viewBox="-0.9544783312696444 -0.48029831412515483 1.9435885322411657 0.975680731498238" height="300.0"><style>svg {
  color-scheme: light dark;
}
{
  .canvas g, .title g, .axisbar g, .ticktext g, .tickglyph g, .ticklines g, .legendContent g text {
    fill: #0d0d0d;
  }
  .ticklines g, .tickglyph g, .legendBorder g {
    stroke: #0d0d0d;
  }
  .legendBorder g {
    fill: #f0f0f0;
  }
}
@media (prefers-color-scheme:dark) {
  .canvas g, .title g, .axisbar g, .ticktext g, .tickglyph g, .ticklines g, .legendContent g text {
    fill: #f0f0f0;
  }
  .ticklines g, .tickglyph g, .legendBorder g {
    stroke: #f0f0f0;
  }
  .legendBorder g {
    fill: #0d0d0d;
  }
}</style><g class="chart"><g class="ellipse"><g fill="none" stroke="rgb(66%, 7%, 55%)" stroke-width="5.0e-3" stroke-opacity="1.0"><polyline points="0.3471595667841385,-3.2338301402926595e-2
0.34439768046583885,-1.8050870674847785e-2
0.3404541388675415,-3.6163721322803877e-3
0.3353378364819595,1.0932637818583113e-2
0.3290603129145857,2.556334449587111e-2
0.3216357268565957,4.024274895417046e-2
0.31308082415051475,5.4937742412265844e-2
0.3034149000206692,6.961518092860564e-2
0.2926597555536212,8.424196015607399e-2
0.28083964852672905,9.878509000745644e-2
0.2679812386957485,0.11321176906319891
0.25411352766487183,0.12748945855363364
0.23926779347482552,0.1415859557488101
0.22347752005656019,0.15546946659040178
0.20677832170965083,0.16910867740187208
0.18920786277573298,0.18247282551515775
0.1708057726881651,0.1955317686545776
0.1516135565894987,0.2082560529214712
0.1316745017183728,0.2206169792262318
0.11103357977695993,0.23258666801790007
8.973734549917989e-2,0.24413812216532182
6.78338316484478e-2,0.2552452878480457
4.537244068179125e-2,0.2658831133196224
2.2403833324679656e-2,0.27602760541076804
-1.0201856921179253e-3,0.28565588364495254
-2.4846784475928807e-2,0.29474623184435317
-4.9022223132299425e-2,0.30327814710978496
-7.349197497306958e-2,0.3112323860641286
-9.820084949903274e-2,0.3185910082549615
-0.12309311687979396,0.3253374166184956
-0.14811263365006366,0.3314563949135587
-0.17320296933888957,0.33693414204118854
-0.1983075337462198,0.34175830317243294
-0.22336970457972305,0.345917997614148
-0.24833295516399645,0.34940384334994556
-0.2731409819341122,0.352207978200938
-0.2977378314259447,0.3543240775585523
-0.32206802647686594,0.3557473686494201
-0.346076691352158,0.3564746413001677
-0.3697096755149301,0.3565042551778276
-0.3929136757603872,0.3558361434895403
-0.4156363564389704,0.35447181313320353
-0.43782646749722137,0.3524143412987266
-0.4594339600701289,0.3496683685275576
-0.48041009936424467,0.3462400882461376
-0.5007075745769665,0.3421372327968856
-0.5202806056040705,0.33736905599822564
-0.5390850462948154,0.3319463122729871
-0.5570784840217349,0.32588123239225436
-0.5742203353405408,0.31918749588937634
-0.590471937524379,0.3118802002063522
-0.6057966357659896,0.3039758266421836
-0.6201598658510872,0.295492203179997
-0.633529232116497,0.28644846427677406
-0.6458745805172142,0.2768650077063871
-0.657168066637589,0.26676344855327505
-0.6673842184932376,0.25616657046052704
-0.6764999939820354,0.24509827424233083
-0.6844948328546122,0.2335835239766882
-0.691350703087132,0.22164829069998443
-0.6970521415517674,0.2093194938304045
-0.701586288893135,0.1966249404523141
-0.7049429185320335,0.18359326259854658
-0.7071144597310632,0.170253852672054
-0.7080960146701072,0.15663679715257472
-0.7078853694931591,0.14277280873783976
-0.7064829993015829,0.1286931570723705
-0.7038920670825409,0.11442959822010795
-0.7001184165750101,0.10001430303994024
-0.6951705590894723,8.547978462568168e-2
-0.6890596543110119,7.085882497415069e-2
-0.6817994851291126,5.61844010467521e-2
-0.6734064265509295,4.1489610391323595e-2
-0.6638994087681459,2.6807596492002483e-2
-0.6532998744607208,1.2171474015490069e-2
-0.6416317304338225,-2.385745877692913e-3
-0.6289212936970329,-1.6831229988493956e-2
-0.6151972321074346,-3.113239713323246e-2
-0.6004904997104632,-4.525699162909269e-2
-0.5848342669243538,-5.9173156045464914e-2
-0.5682638457256555,-7.284950305704352e-2
-0.5508166100045472,-8.62551862366232e-2
-0.5325319112695963,-9.935996962792293e-2
-0.5134509898920827,-0.11213429594151525
-0.49361688209006677,-0.12454935322005667
-0.4730743228620086,-0.13657713982244568
-0.4518696450888526,-0.14819052758035212
-0.4300506750321561,-0.15936332298466382
-0.40766662446396545,-0.17007032626384544
-0.38476797967172366,-0.18028738822096946
-0.361406387588569,-0.18999146470121597
-0.3376345393058412,-0.19916066856699688
-0.3135060512305369,-0.20777431906347799
-0.28907534415574787,-0.215812988463154
-0.2643975205168486,-0.22325854588427274
-0.23952824011026097,-0.23009419818427979
-0.21452359455511694,-0.23630452783604672
-0.18943998078096735,-0.2418755277014566
-0.16433397382686732,-0.24679463262391754
-0.13926219923875294,-0.2510507477685455
-0.11428120535289066,-0.2546342736461006"/></g><g fill="none" stroke="rgb(2%, 29%, 48%)" stroke-width="2.0e-3" stroke-opacity="1.0"><polyline points="0.16656903825591596,-0.24161651177749155
0.1407938156003571,-0.24802572808665968
0.11375449403649895,-0.2532700031790618
8.555778541346293e-2,-0.25732864029678915
5.63149692583339e-2,-0.26018562185335337
2.614145360670339e-2,-0.26182967264778134
-4.843680460118738e-3,-0.2622543043626825
-3.6518148773732606e-2,-0.2614578411706743
-6.875694667839238e-2,-0.25944342634810613
-0.10143284236727412,-0.2562190098699838
-0.13441687900829014,-0.2517973170350509
-0.16757888367779195,-0.24619579824484772
-0.2007879810936275,-0.2394365601349484
-0.23391311012008986,-0.23154627833017072
-0.26682354100634387,-0.22255609216807126
-0.2993893913170266,-0.21250148180620654
-0.3314821385188843,-0.20142212819816008
-0.3629751272004923,-0.18936175649094789
-0.3937440689233023,-0.17636796346183847
-0.42366753273132673,-0.16249202967561827
-0.45262742438364556,-0.1477887171036305
-0.48050945241842324,-0.13231605300329208
-0.5072035792090932,-0.11613510091101964
-0.5326044552325992,-9.930971965234714e-2
-0.5566118348358332,-8.1906311320317e-2
-0.5791309718594293,-6.399355921675498e-2
-0.6000729935575706,-4.564215679065575e-2
-0.6193552513381141,-2.6924528643436973e-2
-0.6369016469388257,-7.914544702124549e-3
-0.652642932752455,1.1312771311500325e-2
-0.6665169851154051,3.068153796525719e-2
-0.678469049481451,5.0115315585911646e-2
-0.6884519565129188,6.953740793164315e-2
-0.6964263082365114,8.88711648770733e-2
-0.7023606335291108,0.10804028491629158
-0.7062315123199225,0.12696911629004115
-0.7080236680187952,0.14558295554865047
-0.707730027805944,0.1638083423724201
-0.705351750545137,0.1815733494859435
-0.7008982222101914,0.19880786652220378
-0.6943870188428215,0.2154438767161604
-0.6858438371880327,0.2314157253358478
-0.6753023932808077,0.24666037879160813
-0.6628042893843209,0.2611176734008706
-0.648398849804811,0.27473055282672243
-0.6321429262310793,0.2874452932532029
-0.6141006733668462,0.29921171540866065
-0.5943432957414451,0.3099833826004156
-0.572948766698077,0.31971778397916795
-0.5500015206686448,0.328376502309901
-0.5255921199496276,0.3359253655871556
-0.49981689729406864,0.34233458189632376
-0.47277757573021034,0.34757885698872576
-0.4445808671071745,0.3516374941064532
-0.4153380509520453,0.3544944756630174
-0.38516453530041506,0.3561385264574453
-0.35417940123359265,0.3565631581723465
-0.32250493291997895,0.3557666949803383
-0.29026613501531906,0.35375228015777005
-0.25759023932643754,0.35052786367964783
-0.22460620268542153,0.34610617084471496
-0.1914441980159195,0.34050465205451175
-0.15823510060008417,0.33374541394461243
-0.12510997157362158,0.32585513213983475
-9.219954068736758e-2,0.3168649459777353
-5.963369037668487e-2,0.30681033561587057
-2.7540943174827026e-2,0.295730982007824
3.952045506780855e-3,0.2836706103006118
3.472098722959105e-2,0.2706768172715023
6.46444510376154e-2,0.2568008834852822
9.360434268993423e-2,0.24209757091329454
0.1214863707247118,0.2266249068129561
0.14818049751538176,0.21044395472068356
0.17358137353888758,0.19361857346201117
0.19758875314212188,0.17621516512998092
0.22010789016571786,0.158302413026419
0.24104991186385893,0.1399510106003199
0.26033216964440276,0.12123338245310095
0.2778785652451141,0.1022233985117888
0.29361985105874355,8.299608249816365e-2
0.3074939034216937,6.362731584440678e-2
0.3194459677877395,4.419353822375255e-2
0.32942887481920713,2.4771445878021103e-2
0.3374032265428002,5.4376889325906674e-3
0.3433375518353994,-1.37314311066275e-2
0.3472084306262111,-3.266026248037712e-2
0.3490005863250838,-5.127410173898639e-2
0.3487069461122325,-6.949948856275578e-2
0.34632866885142555,-8.726449567627947e-2
0.34187514051647994,-0.10449901271253981
0.33536393714911017,-0.12113502290649636
0.3268207554943212,-0.13710687152618373
0.31627931158709655,-0.15235152498194382
0.30378120769060946,-0.16680881959120653
0.28937576811109955,-0.1804216990170585
0.2731198445373677,-0.19313643944353887
0.25507759167313493,-0.2049028615989965
0.23532021404773373,-0.21567452879075155
0.21392568500436537,-0.22540893016950392
0.19097843897493316,-0.23406764850023698
0.16656903825591618,-0.24161651177749144"/></g><g fill="rgb(2%, 73%, 80%)" stroke="rgb(2%, 29%, 48%)" stroke-width="3.0e-3" fill-opacity="0.2" stroke-opacity="1.0"><circle cy="4.7154426904832014e-2" cx="-0.17951154084685572" r="1.5e-2"/></g><g fill="rgb(100%, 71%, 35%)" stroke="rgb(2%, 29%, 48%)" stroke-width="3.0e-3" fill-opacity="0.2" stroke-opacity="1.0"><rect x="0.33215956678413805" width="3.0000000000000027e-2" y="-4.7338301402926594e-2" height="3.0e-2"/><rect x="-0.12928120535289067" width="3.0000000000000013e-2" y="-0.2696342736461005" height="3.0000000000000027e-2"/></g><g fill="rgb(53%, 51%, 28%)" stroke="rgb(50%, 50%, 50%)" stroke-width="2.0e-3" fill-opacity="5.0e-3" stroke-opacity="1.0"><rect x="-0.7081583576110569" width="1.0553179243951956" y="-0.2546342736461006" height="0.6112115986149814"/></g><g fill="none" stroke="rgb(21%, 29%, 7%)" stroke-dasharray="3.0e-2 1.0e-2" stroke-linecap="round" stroke-width="5.0e-3" stroke-opacity="1.0"><polyline points="0.16656903825591596,-0.24161651177749155
-0.5255921199496276,0.3359253655871556"/></g><g fill="none" stroke="rgb(73%, 34%, 1%)" stroke-dasharray="3.0e-2 1.0e-2" stroke-linecap="round" stroke-width="5.0e-3" stroke-opacity="1.0"><polyline points="-0.5791309718594293,-6.399355921675498e-2
0.22010789016571786,0.158302413026419"/></g></g></g><g class="hud"><g class="frame"><g fill="rgb(100%, 100%, 100%)" stroke="rgb(0%, 0%, 0%)" stroke-width="0.0" fill-opacity="2.0e-2" stroke-opacity="0.0"><rect x="-0.806442363558434" width="1.3843223164110867" y="-0.3657822597676875" height="0.7780359028511088"/></g></g><g class="axis"><g class="ticks"><g class="tickglyph"><g fill="rgb(5%, 5%, 5%)" stroke="rgb(5%, 5%, 5%)" stroke-width="4.0e-3" fill-opacity="0.4" stroke-opacity="0.4"><g transform="rotate(-90.0, -0.8272071983046003, 0.4122536430834213)"><polyline points="-0.8272071983046003,0.4272536430834213
-0.8272071983046003,0.39725364308342126"/></g><g transform="rotate(-90.0, -0.8272071983046003, 0.30110565696183433)"><polyline points="-0.8272071983046003,0.31610565696183435
-0.8272071983046003,0.2861056569618343"/></g><g transform="rotate(-90.0, -0.8272071983046003, 0.1899576708402474)"><polyline points="-0.8272071983046003,0.2049576708402474
-0.8272071983046003,0.17495767084024738"/></g><g transform="rotate(-90.0, -0.8272071983046003, 7.880968471866046e-2)"><polyline points="-0.8272071983046003,9.380968471866045e-2
-0.8272071983046003,6.380968471866046e-2"/></g><g transform="rotate(-90.0, -0.8272071983046003, -3.2338301402926595e-2)"><polyline points="-0.8272071983046003,-1.7338301402926595e-2
-0.8272071983046003,-4.7338301402926594e-2"/></g><g transform="rotate(-90.0, -0.8272071983046003, -0.14348628752451342)"><polyline points="-0.8272071983046003,-0.1284862875245134
-0.8272071983046003,-0.15848628752451344"/></g><g transform="rotate(-90.0, -0.8272071983046003, -0.2546342736461005)"><polyline points="-0.8272071983046003,-0.23963427364610046
-0.8272071983046003,-0.2696342736461005"/></g><g transform="rotate(-90.0, -0.8272071983046003, -0.3657822597676875)"><polyline points="-0.8272071983046003,-0.3507822597676875
-0.8272071983046003,-0.38078225976768754"/></g></g></g><g class="ticktext"><g fill="rgb(5%, 5%, 5%)" stroke="none" stroke-width="0.0" font-size="3.460805791027717e-2" fill-opacity="1.0" text-anchor="end"><text x="-0.8521249999999998" y="0.4229516367476241">-2.00</text><text x="-0.8521249999999998" y="0.3118036506260371">-1.50</text><text x="-0.8521249999999998" y="0.20065566450445016">-1.00</text><text x="-0.8521249999999998" y="8.950767838286317e-2">-0.50</text><text x="-0.8521249999999998" y="-2.164030773872372e-2"> 0.00</text><text x="-0.8521249999999998" y="-0.13278829386031066"> 0.50</text><text x="-0.8521249999999998" y="-0.24393627998189782"> 1.00</text><text x="-0.8521249999999998" y="-0.35508426610348465"> 1.50</text></g></g><g class="ticklines"><g fill="none" stroke="rgb(5%, 5%, 5%)" stroke-width="5.0e-3" stroke-opacity="5.0e-2"><polyline points="-0.806442363558434,0.4122536430834213
0.5778799528526526,0.4122536430834213"/><polyline points="-0.806442363558434,0.30110565696183433
0.5778799528526526,0.30110565696183433"/><polyline points="-0.806442363558434,0.1899576708402474
0.5778799528526526,0.1899576708402474"/><polyline points="-0.806442363558434,7.880968471866046e-2
0.5778799528526526,7.880968471866046e-2"/><polyline points="-0.806442363558434,-3.2338301402926595e-2
0.5778799528526526,-3.2338301402926595e-2"/><polyline points="-0.806442363558434,-0.14348628752451342
0.5778799528526526,-0.14348628752451342"/><polyline points="-0.806442363558434,-0.2546342736461005
0.5778799528526526,-0.2546342736461005"/><polyline points="-0.806442363558434,-0.3657822597676875
0.5778799528526526,-0.3657822597676875"/></g></g></g><g class="axisbar"><g fill="rgb(5%, 5%, 5%)" stroke="rgb(0%, 0%, 0%)" stroke-width="0.0" fill-opacity="0.4" stroke-opacity="0.0"><rect x="-0.8161326197733116" width="2.768644632822115e-3" y="-0.3673383315733896" height="0.7811480464625131"/></g></g></g><g class="axis"><g class="ticks"><g class="tickglyph"><g fill="rgb(5%, 5%, 5%)" stroke="rgb(5%, 5%, 5%)" stroke-width="4.0e-3" fill-opacity="0.4" stroke-opacity="0.4"><polyline points="-0.806442363558434,0.4505947201689546
-0.806442363558434,0.42059472016895455"/><polyline points="-0.5757219774899196,0.4505947201689546
-0.5757219774899196,0.42059472016895455"/><polyline points="-0.3450015914214052,0.4505947201689546
-0.3450015914214052,0.42059472016895455"/><polyline points="-0.11428120535289066,0.4505947201689546
-0.11428120535289066,0.42059472016895455"/><polyline points="0.11643918071562376,0.4505947201689546
0.11643918071562376,0.42059472016895455"/><polyline points="0.34715956678413806,0.4505947201689546
0.34715956678413806,0.42059472016895455"/><polyline points="0.5778799528526526,0.4505947201689546
0.5778799528526526,0.42059472016895455"/></g></g><g class="ticktext"><g fill="rgb(5%, 5%, 5%)" stroke="none" stroke-width="0.0" font-size="3.460805791027717e-2" fill-opacity="1.0" text-anchor="middle"><text x="-0.806442363558434" y="0.485">-1.50</text><text x="-0.5757219774899196" y="0.485">-1.00</text><text x="-0.3450015914214052" y="0.485">-0.50</text><text x="-0.11428120535289066" y="0.485"> 0.00</text><text x="0.11643918071562376" y="0.485"> 0.50</text><text x="0.34715956678413806" y="0.485"> 1.00</text><text x="0.5778799528526526" y="0.485"> 1.50</text></g></g><g class="ticklines"><g fill="none" stroke="rgb(5%, 5%, 5%)" stroke-width="5.0e-3" stroke-opacity="5.0e-2"><polyline points="-0.806442363558434,0.4122536430834213
-0.806442363558434,-0.3657822597676875"/><polyline points="-0.5757219774899196,0.4122536430834213
-0.5757219774899196,-0.3657822597676875"/><polyline points="-0.3450015914214052,0.4122536430834213
-0.3450015914214052,-0.3657822597676875"/><polyline points="-0.11428120535289066,0.4122536430834213
-0.11428120535289066,-0.3657822597676875"/><polyline points="0.11643918071562376,0.4122536430834213
0.11643918071562376,-0.3657822597676875"/><polyline points="0.34715956678413806,0.4122536430834213
0.34715956678413806,-0.3657822597676875"/><polyline points="0.5778799528526526,0.4122536430834213
0.5778799528526526,-0.3657822597676875"/></g></g></g><g class="axisbar"><g fill="rgb(5%, 5%, 5%)" stroke="rgb(0%, 0%, 0%)" stroke-width="0.0" fill-opacity="0.4" stroke-opacity="0.0"><rect x="-0.8078266858748452" width="1.387090961043909" y="0.4200340021119324" height="3.1121436114043832e-3"/></g></g></g><g class="legend"><g class="legendBorder"><g fill="rgb(5%, 5%, 5%)" stroke="rgb(5%, 5%, 5%)" stroke-width="2.5e-3" fill-opacity="0.0" stroke-opacity="1.0"><rect x="0.6687261048671302" width="0.2924380893418421" y="-0.35907170010559686" height="0.45515100316789886"/></g></g><g class="legendContent"><g fill="rgb(5%, 5%, 5%)" stroke="none" stroke-width="0.0" font-size="3.460805791027717e-2" fill-opacity="1.0" text-anchor="start"><text x="0.686030133822269" y="6.495786694825767e-2">Bounding Box</text></g><g fill="rgb(53%, 51%, 28%)" stroke="rgb(50%, 50%, 50%)" stroke-width="2.5e-3" fill-opacity="5.0e-3" stroke-opacity="1.0"><rect x="0.907521704448043" width="1.7304028955138273e-2" y="4.55069693769799e-2" height="1.945089757127777e-2"/></g><g fill="rgb(5%, 5%, 5%)" stroke="none" stroke-width="0.0" font-size="3.460805791027717e-2" fill-opacity="1.0" text-anchor="start"><text x="0.686030133822269" y="2.714994720168895e-3">Endpoints</text></g><g fill="rgb(100%, 71%, 35%)" stroke="rgb(2%, 29%, 48%)" stroke-width="3.0e-3" fill-opacity="0.2" stroke-opacity="1.0"><rect x="0.9036737189256121" width="2.499999999999991e-2" y="-1.9510454065469907e-2" height="2.5e-2"/></g><g fill="rgb(5%, 5%, 5%)" stroke="none" stroke-width="0.0" font-size="3.460805791027717e-2" fill-opacity="1.0" text-anchor="start"><text x="0.686030133822269" y="-5.952787750791977e-2">Centroid</text></g><g fill="rgb(2%, 73%, 80%)" stroke="rgb(2%, 29%, 48%)" stroke-width="3.0e-3" fill-opacity="0.2" stroke-opacity="1.0"><circle cy="-6.925332629355863e-2" cx="0.9161737189256121" r="1.25e-2"/></g><g fill="rgb(5%, 5%, 5%)" stroke="none" stroke-width="0.0" font-size="3.460805791027717e-2" fill-opacity="1.0" text-anchor="start"><text x="0.686030133822269" y="-0.12177074973600843">Arc</text></g><g fill="none" stroke="rgb(66%, 7%, 55%)" stroke-width="5.0e-3" stroke-opacity="1.0"><polyline points="0.907521704448043,-0.1314961985216474
0.9421297623583198,-0.1314961985216474"/></g><g fill="rgb(5%, 5%, 5%)" stroke="none" stroke-width="0.0" font-size="3.460805791027717e-2" fill-opacity="1.0" text-anchor="start"><text x="0.686030133822269" y="-0.1840136219640971">Full Ellipse</text></g><g fill="none" stroke="rgb(2%, 29%, 48%)" stroke-width="2.0e-3" stroke-opacity="1.0"><polyline points="0.907521704448043,-0.19373907074973606
0.9421297623583198,-0.19373907074973606"/></g><g fill="rgb(5%, 5%, 5%)" stroke="none" stroke-width="0.0" font-size="3.460805791027717e-2" fill-opacity="1.0" text-anchor="start"><text x="0.686030133822269" y="-0.24625649419218587">Minor Axis</text></g><g fill="none" stroke="rgb(73%, 34%, 1%)" stroke-dasharray="3.0e-2 1.0e-2" stroke-linecap="round" stroke-width="5.0e-3" stroke-opacity="1.0"><polyline points="0.907521704448043,-0.25598194297782484
0.9421297623583198,-0.25598194297782484"/></g><g fill="rgb(5%, 5%, 5%)" stroke="none" stroke-width="0.0" font-size="3.460805791027717e-2" fill-opacity="1.0" text-anchor="start"><text x="0.686030133822269" y="-0.30849936642027465">Major Axis</text></g><g fill="none" stroke="rgb(21%, 29%, 7%)" stroke-dasharray="3.0e-2 1.0e-2" stroke-linecap="round" stroke-width="5.0e-3" stroke-opacity="1.0"><polyline points="0.907521704448043,-0.3182248152059134
0.9421297623583198,-0.3182248152059134"/></g></g></g><g class="title"><g fill="rgb(5%, 5%, 5%)" stroke="none" stroke-width="0.0" font-size="5.537289265644347e-2" fill-opacity="1.0" text-anchor="middle"><text x="1.7315934850938408e-2" y="-0.43600000000000005">ArcPosition (Point 1 0) (Point 0 1) (ArcInfo (Point 1.5 1) (pi / 3) True True)</text></g></g></g></svg>