<svg xmlns="http://www.w3.org/2000/svg" xmlns:xlink="http://www.w3.org/1999/xlink" width="600" height="300" viewBox="-1.0 -0.5 2.0 1.0"><style>svg {
  color-scheme: light dark;
}
{
  .canvas g, .title g, .axisbar g, .ticktext g, .tickglyph g, .ticklines g, .legendContent g text {
    fill: rgb(5%, 5%, 5%);
  }
  .ticklines g, .tickglyph g, .legendBorder g {
    stroke: rgb(5%, 5%, 5%);
  }
  .legendBorder g {
    fill: rgb(94%, 94%, 94%);
  }
}
@media (prefers-color-scheme:dark) {
  .canvas g, .title g, .axisbar g, .ticktext g, .tickglyph g, .ticklines g, .legendContent g text {
    fill: rgb(94%, 94%, 94%);
  }
  .ticklines g, .tickglyph g, .legendBorder g {
    stroke: rgb(94%, 94%, 94%);
  }
  .legendBorder g {
    fill: rgb(5%, 5%, 5%);
  }
}</style><g class="chart"><g class="ellipse"><g stroke-width="0.0050" stroke="rgb(66%, 7%, 55%)" stroke-opacity="1.0" fill="none"><polyline points="0.3261,-0.0362 0.3234,-0.0225 0.3194,-0.0087 0.3143,0.0053 0.3080,0.0193 0.3006,0.0333 0.2920,0.0474 0.2824,0.0614 0.2716,0.0754 0.2598,0.0894 0.2469,0.1032 0.2330,0.1168 0.2182,0.1303 0.2024,0.1436 0.1857,0.1567 0.1681,0.1695 0.1497,0.1820 0.1305,0.1941 0.1105,0.2060 0.0899,0.2174 0.0686,0.2285 0.0466,0.2391 0.0242,0.2493 0.0012,0.2590 -0.0222,0.2682 -0.0461,0.2769 -0.0703,0.2851 -0.0948,0.2927 -0.1195,0.2998 -0.1444,0.3062 -0.1694,0.3121 -0.1945,0.3173 -0.2196,0.3219 -0.2447,0.3259 -0.2697,0.3292 -0.2945,0.3319 -0.3191,0.3340 -0.3435,0.3353 -0.3675,0.3360 -0.3911,0.3360 -0.4143,0.3354 -0.4371,0.3341 -0.4593,0.3321 -0.4809,0.3295 -0.5019,0.3262 -0.5222,0.3223 -0.5418,0.3177 -0.5606,0.3125 -0.5786,0.3067 -0.5957,0.3003 -0.6120,0.2933 -0.6273,0.2858 -0.6417,0.2776 -0.6551,0.2690 -0.6674,0.2598 -0.6787,0.2501 -0.6890,0.2400 -0.6981,0.2294 -0.7061,0.2184 -0.7129,0.2070 -0.7186,0.1952 -0.7232,0.1830 -0.7265,0.1705 -0.7287,0.1578 -0.7297,0.1447 -0.7295,0.1315 -0.7281,0.1180 -0.7255,0.1043 -0.7217,0.0905 -0.7168,0.0766 -0.7106,0.0626 -0.7034,0.0486 -0.6950,0.0345 -0.6855,0.0205 -0.6749,0.0064 -0.6632,-0.0075 -0.6505,-0.0213 -0.6367,-0.0350 -0.6220,-0.0485 -0.6064,-0.0618 -0.5898,-0.0749 -0.5723,-0.0878 -0.5540,-0.1003 -0.5349,-0.1125 -0.5151,-0.1244 -0.4945,-0.1359 -0.4733,-0.1471 -0.4515,-0.1577 -0.4291,-0.1680 -0.4062,-0.1778 -0.3828,-0.1871 -0.3590,-0.1958 -0.3349,-0.2041 -0.3104,-0.2118 -0.2858,-0.2189 -0.2609,-0.2255 -0.2359,-0.2314 -0.2108,-0.2367 -0.1856,-0.2414 -0.1606,-0.2455 -0.1356,-0.2489"/></g><g stroke-width="0.0020" stroke="rgb(2%, 29%, 48%)" stroke-opacity="1.0" fill="none"><polyline points="0.1454,-0.2365 0.1196,-0.2426 0.0926,-0.2476 0.0644,-0.2515 0.0351,-0.2543 0.0049,-0.2558 -0.0261,-0.2562 -0.0578,-0.2555 -0.0900,-0.2535 -0.1227,-0.2505 -0.1557,-0.2462 -0.1889,-0.2409 -0.2221,-0.2344 -0.2553,-0.2268 -0.2882,-0.2182 -0.3208,-0.2086 -0.3529,-0.1980 -0.3844,-0.1865 -0.4152,-0.1740 -0.4451,-0.1607 -0.4741,-0.1467 -0.5020,-0.1319 -0.5287,-0.1164 -0.5541,-0.1003 -0.5781,-0.0836 -0.6007,-0.0665 -0.6216,-0.0489 -0.6409,-0.0310 -0.6585,-0.0128 -0.6742,0.0056 -0.6881,0.0242 -0.7000,0.0428 -0.7100,0.0614 -0.7180,0.0799 -0.7239,0.0982 -0.7278,0.1163 -0.7296,0.1341 -0.7293,0.1516 -0.7269,0.1686 -0.7225,0.1851 -0.7160,0.2010 -0.7074,0.2163 -0.6969,0.2309 -0.6844,0.2447 -0.6700,0.2578 -0.6537,0.2699 -0.6356,0.2812 -0.6159,0.2915 -0.5945,0.3008 -0.5715,0.3091 -0.5471,0.3163 -0.5213,0.3225 -0.4942,0.3275 -0.4660,0.3314 -0.4368,0.3341 -0.4066,0.3357 -0.3756,0.3361 -0.3439,0.3353 -0.3116,0.3334 -0.2789,0.3303 -0.2459,0.3261 -0.2128,0.3207 -0.1795,0.3143 -0.1464,0.3067 -0.1135,0.2981 -0.0809,0.2885 -0.0488,0.2779 -0.0173,0.2663 0.0135,0.2539 0.0435,0.2406 0.0724,0.2265 0.1003,0.2117 0.1270,0.1962 0.1525,0.1801 0.1765,0.1635 0.1990,0.1463 0.2200,0.1288 0.2392,0.1108 0.2568,0.0926 0.2726,0.0742 0.2864,0.0557 0.2984,0.0371 0.3084,0.0185 0.3164,0 0.3223,-0.0183 0.3262,-0.0365 0.3280,-0.0543 0.3277,-0.0717 0.3253,-0.0887 0.3208,-0.1052 0.3143,-0.1212 0.3058,-0.1364 0.2952,-0.1510 0.2827,-0.1649 0.2683,-0.1779 0.2520,-0.1901 0.2340,-0.2013 0.2142,-0.2117 0.1928,-0.2210 0.1699,-0.2293 0.1454,-0.2365"/></g><g stroke-width="0.0030" stroke="rgb(2%, 29%, 48%)" stroke-opacity="1.0" fill="rgb(2%, 73%, 80%)" fill-opacity="0.2"><circle cx="-0.2008" cy="0.0399" r="0.0150"/></g><g stroke-width="0.0030" stroke="rgb(2%, 29%, 48%)" stroke-opacity="1.0" fill="rgb(100%, 71%, 35%)" fill-opacity="0.2"><rect width="0.0300" height="0.0300" x="0.3111" y="-0.0512"/><rect width="0.0300" height="0.0300" x="-0.1506" y="-0.2639"/></g><g stroke-width="0.0020" stroke="rgb(50%, 50%, 50%)" stroke-opacity="1.0" fill="rgb(53%, 51%, 28%)" fill-opacity="0.00"><rect width="1.0559" height="0.5851" x="-0.7297" y="-0.2489"/></g><g stroke-width="0.0050" stroke="rgb(21%, 29%, 7%)" stroke-opacity="1.0" fill="none" stroke-linecap="round" stroke-dasharray="0.0300 0.0100"><polyline points="0.1454,-0.2365 -0.5471,0.3163"/></g><g stroke-width="0.0050" stroke="rgb(73%, 34%, 1%)" stroke-opacity="1.0" fill="none" stroke-linecap="round" stroke-dasharray="0.0300 0.0100"><polyline points="-0.6007,-0.0665 0.1990,0.1463"/></g></g></g><g class="hud"><g class="frame"><g stroke-width="0" stroke="rgb(0%, 0%, 0%)" stroke-opacity="0" fill="rgb(100%, 100%, 100%)" fill-opacity="0.02"><rect width="1.3850" height="0.7447" x="-0.8281" y="-0.3553"/></g></g><g class="axis"><g class="ticks"><g class="tickglyph"><g stroke-width="0.0040" stroke="rgb(5%, 5%, 5%)" stroke-opacity="0.4" fill="rgb(5%, 5%, 5%)" fill-opacity="0.4"><g transform="rotate(-90.0, -0.8489, 0.3894)"><polyline points="-0.8489,0.4044
-0.8489,0.3744"/></g><g transform="rotate(-90.0, -0.8489, 0.2830)"><polyline points="-0.8489,0.2980
-0.8489,0.2680"/></g><g transform="rotate(-90.0, -0.8489, 0.1766)"><polyline points="-0.8489,0.1916
-0.8489,0.1616"/></g><g transform="rotate(-90.0, -0.8489, 0.0702)"><polyline points="-0.8489,0.0852
-0.8489,0.0552"/></g><g transform="rotate(-90.0, -0.8489, -0.0362)"><polyline points="-0.8489,-0.0212
-0.8489,-0.0512"/></g><g transform="rotate(-90.0, -0.8489, -0.1426)"><polyline points="-0.8489,-0.1276
-0.8489,-0.1576"/></g><g transform="rotate(-90.0, -0.8489, -0.2489)"><polyline points="-0.8489,-0.2339
-0.8489,-0.2639"/></g><g transform="rotate(-90.0, -0.8489, -0.3553)"><polyline points="-0.8489,-0.3403
-0.8489,-0.3703"/></g></g></g><g class="ticktext"><g stroke-width="0.0" stroke="none" fill="rgb(5%, 5%, 5%)" fill-opacity="1.0" font-size="0.0346" text-anchor="end"><text x="-0.8738" y="0.3996">-2.0</text><text x="-0.8738" y="0.2933">-1.5</text><text x="-0.8738" y="0.1869">-1.0</text><text x="-0.8738" y="0.0805">-0.5</text><text x="-0.8738" y="-0.0259"> 0.0</text><text x="-0.8738" y="-0.1323"> 0.5</text><text x="-0.8738" y="-0.2387"> 1.0</text><text x="-0.8738" y="-0.3451"> 1.5</text></g></g><g class="ticklines"><g stroke-width="0.0050" stroke="rgb(5%, 5%, 5%)" stroke-opacity="0.05" fill="none"><polyline points="-0.8281,0.3894 0.5570,0.3894"/><polyline points="-0.8281,0.2830 0.5570,0.2830"/><polyline points="-0.8281,0.1766 0.5570,0.1766"/><polyline points="-0.8281,0.0702 0.5570,0.0702"/><polyline points="-0.8281,-0.0362 0.5570,-0.0362"/><polyline points="-0.8281,-0.1426 0.5570,-0.1426"/><polyline points="-0.8281,-0.2489 0.5570,-0.2489"/><polyline points="-0.8281,-0.3553 0.5570,-0.3553"/></g></g></g><g class="axisbar"><g stroke-width="0" stroke="rgb(0%, 0%, 0%)" stroke-opacity="0" fill="rgb(5%, 5%, 5%)" fill-opacity="0.4"><rect width="0.0028" height="0.7477" x="-0.8378" y="-0.3568"/></g></g></g><g class="axis"><g class="ticks"><g class="tickglyph"><g stroke-width="0.0040" stroke="rgb(5%, 5%, 5%)" stroke-opacity="0.4" fill="rgb(5%, 5%, 5%)" fill-opacity="0.4"><polyline points="-0.8281,0.4267
-0.8281,0.3967"/><polyline points="-0.5972,0.4267
-0.5972,0.3967"/><polyline points="-0.3664,0.4267
-0.3664,0.3967"/><polyline points="-0.1356,0.4267
-0.1356,0.3967"/><polyline points="0.0953,0.4267
0.0953,0.3967"/><polyline points="0.3261,0.4267
0.3261,0.3967"/><polyline points="0.5570,0.4267
0.5570,0.3967"/></g></g><g class="ticktext"><g stroke-width="0.0" stroke="none" fill="rgb(5%, 5%, 5%)" fill-opacity="1.0" font-size="0.0346" text-anchor="middle"><text x="-0.8281" y="0.4590">-2.0</text><text x="-0.5972" y="0.4590">-1.0</text><text x="-0.3664" y="0.4590">-0.5</text><text x="-0.1356" y="0.4590"> 0.0</text><text x="0.0953" y="0.4590"> 0.5</text><text x="0.3261" y="0.4590"> 1.0</text><text x="0.5570" y="0.4590"> 2.0</text></g></g><g class="ticklines"><g stroke-width="0.0050" stroke="rgb(5%, 5%, 5%)" stroke-opacity="0.05" fill="none"><polyline points="-0.8281,0.3894 -0.8281,-0.3553"/><polyline points="-0.5972,0.3894 -0.5972,-0.3553"/><polyline points="-0.3664,0.3894 -0.3664,-0.3553"/><polyline points="-0.1356,0.3894 -0.1356,-0.3553"/><polyline points="0.0953,0.3894 0.0953,-0.3553"/><polyline points="0.3261,0.3894 0.3261,-0.3553"/><polyline points="0.5570,0.3894 0.5570,-0.3553"/></g></g></g><g class="axisbar"><g stroke-width="0" stroke="rgb(0%, 0%, 0%)" stroke-opacity="0" fill="rgb(5%, 5%, 5%)" fill-opacity="0.4"><rect width="1.3878" height="0.0030" x="-0.8295" y="0.3969"/></g></g></g><g class="legend"><g class="legendBorder"><g stroke-width="0.0025" stroke="rgb(5%, 5%, 5%)" stroke-opacity="1.0" fill="rgb(5%, 5%, 5%)" fill-opacity="0"><rect width="0.2926" height="0.4357" x="0.6401" y="-0.3489"/></g></g><g class="legendContent"><g stroke-width="0.0" stroke="none" fill="rgb(5%, 5%, 5%)" fill-opacity="1.0" font-size="0.0346" text-anchor="start"><text x="0.6574" y="0.0570">Bounding Box</text></g><g stroke-width="0.0025" stroke="rgb(50%, 50%, 50%)" stroke-opacity="1.0" fill="rgb(53%, 51%, 28%)" fill-opacity="0.00"><rect width="0.0173" height="0.0186" x="0.8790" y="0.0384"/></g><g stroke-width="0.0" stroke="none" fill="rgb(5%, 5%, 5%)" fill-opacity="1.0" font-size="0.0346" text-anchor="start"><text x="0.6574" y="-0.0026">Endpoints</text></g><g stroke-width="0.0030" stroke="rgb(2%, 29%, 48%)" stroke-opacity="1.0" fill="rgb(100%, 71%, 35%)" fill-opacity="0.2"><rect width="0.0250" height="0.0250" x="0.8751" y="-0.0244"/></g><g stroke-width="0.0" stroke="none" fill="rgb(5%, 5%, 5%)" fill-opacity="1.0" font-size="0.0346" text-anchor="start"><text x="0.6574" y="-0.0622">Centroid</text></g><g stroke-width="0.0030" stroke="rgb(2%, 29%, 48%)" stroke-opacity="1.0" fill="rgb(2%, 73%, 80%)" fill-opacity="0.2"><circle cx="0.8876" cy="-0.0715" r="0.0125"/></g><g stroke-width="0.0" stroke="none" fill="rgb(5%, 5%, 5%)" fill-opacity="1.0" font-size="0.0346" text-anchor="start"><text x="0.6574" y="-0.1218">Arc</text></g><g stroke-width="0.0050" stroke="rgb(66%, 7%, 55%)" stroke-opacity="1.0" fill="none"><polyline points="0.8790,-0.1311 0.9136,-0.1311"/></g><g stroke-width="0.0" stroke="none" fill="rgb(5%, 5%, 5%)" fill-opacity="1.0" font-size="0.0346" text-anchor="start"><text x="0.6574" y="-0.1813">Full Ellipse</text></g><g stroke-width="0.0020" stroke="rgb(2%, 29%, 48%)" stroke-opacity="1.0" fill="none"><polyline points="0.8790,-0.1907 0.9136,-0.1907"/></g><g stroke-width="0.0" stroke="none" fill="rgb(5%, 5%, 5%)" fill-opacity="1.0" font-size="0.0346" text-anchor="start"><text x="0.6574" y="-0.2409">Minor Axis</text></g><g stroke-width="0.0050" stroke="rgb(73%, 34%, 1%)" stroke-opacity="1.0" fill="none" stroke-linecap="round" stroke-dasharray="0.0300 0.0100"><polyline points="0.8790,-0.2502 0.9136,-0.2502"/></g><g stroke-width="0.0" stroke="none" fill="rgb(5%, 5%, 5%)" fill-opacity="1.0" font-size="0.0346" text-anchor="start"><text x="0.6574" y="-0.3005">Major Axis</text></g><g stroke-width="0.0050" stroke="rgb(21%, 29%, 7%)" stroke-opacity="1.0" fill="none" stroke-linecap="round" stroke-dasharray="0.0300 0.0100"><polyline points="0.8790,-0.3098 0.9136,-0.3098"/></g></g></g><g class="title"><g stroke-width="0.0" stroke="none" fill="rgb(5%, 5%, 5%)" fill-opacity="1.0" font-size="0.0554" text-anchor="middle"><text x="0" y="-0.4225">ArcPosition (Point 1 0) (Point 0 1) (ArcInfo (Point 1.5 1) (pi / 3) True True)</text></g></g><g class="frame"><g stroke-width="0" stroke="rgb(0%, 0%, 0%)" stroke-opacity="0" fill="rgb(100%, 100%, 100%)" fill-opacity="0.02"><rect width="2.0" height="1.0" x="-1.0" y="-0.5"/></g></g></g></svg>