<svg xmlns="http://www.w3.org/2000/svg" xmlns:xlink="http://www.w3.org/1999/xlink" width="601" height="300" viewBox="-1.0038 -0.5 2.0038 1.0"><style>svg {
  color-scheme: light dark;
}
{
  .canvas g, .title g, .axisbar g, .ticktext g, .tickglyph g, .ticklines g, .legendContent g text {
    fill: rgb(5%, 5%, 5%);
  }
  .ticklines g, .tickglyph g, .legendBorder g {
    stroke: rgb(5%, 5%, 5%);
  }
  .legendBorder g {
    fill: rgb(94%, 94%, 94%);
  }
}
@media (prefers-color-scheme:dark) {
  .canvas g, .title g, .axisbar g, .ticktext g, .tickglyph g, .ticklines g, .legendContent g text {
    fill: rgb(94%, 94%, 94%);
  }
  .ticklines g, .tickglyph g, .legendBorder g {
    stroke: rgb(94%, 94%, 94%);
  }
  .legendBorder g {
    fill: rgb(5%, 5%, 5%);
  }
}
svg { font-family: system-ui,-apple-system,"Segoe UI",Roboto,"Helvetica Neue",Arial,"Noto Sans","Liberation Sans",sans-serif,"Apple Color Emoji","Segoe UI Emoji","Segoe UI Symbol","Noto Color Emoji";
}

ticktext { font-family: SFMono-Regular,Menlo,Monaco,Consolas,"Liberation Mono","Courier New",monospace;
}

</style><g class="chart"><g class="ellipse"><g stroke-width="0.0050" stroke="rgb(66%, 7%, 55%)" stroke-opacity="1.0" fill="none"><polyline points="0.3062,-0.0606 0.3035,-0.0463 0.2996,-0.0318 0.2946,-0.0173 0.2885,-0.0027 0.2812,0.0120 0.2728,0.0267 0.2634,0.0414 0.2528,0.0560 0.2413,0.0706 0.2287,0.0850 0.2151,0.0993 0.2005,0.1134 0.1851,0.1273 0.1687,0.1409 0.1515,0.1543 0.1335,0.1673 0.1147,0.1801 0.0951,0.1924 0.0749,0.2044 0.0541,0.2159 0.0326,0.2270 0.0106,0.2377 -0.0119,0.2478 -0.0348,0.2575 -0.0582,0.2665 -0.0818,0.2751 -0.1058,0.2830 -0.1300,0.2904 -0.1544,0.2971 -0.1789,0.3033 -0.2035,0.3087 -0.2281,0.3136 -0.2526,0.3177 -0.2771,0.3212 -0.3014,0.3240 -0.3255,0.3261 -0.3493,0.3276 -0.3728,0.3283 -0.3960,0.3283 -0.4187,0.3276 -0.4409,0.3263 -0.4627,0.3242 -0.4838,0.3215 -0.5044,0.3180 -0.5243,0.3139 -0.5434,0.3092 -0.5619,0.3038 -0.5795,0.2977 -0.5963,0.2910 -0.6122,0.2837 -0.6272,0.2758 -0.6413,0.2673 -0.6544,0.2583 -0.6665,0.2487 -0.6775,0.2386 -0.6875,0.2280 -0.6965,0.2169 -0.7043,0.2054 -0.7110,0.1934 -0.7166,0.1811 -0.7210,0.1684 -0.7243,0.1554 -0.7264,0.1420 -0.7274,0.1284 -0.7272,0.1146 -0.7258,0.1005 -0.7233,0.0862 -0.7196,0.0718 -0.7147,0.0573 -0.7088,0.0426 -0.7016,0.0280 -0.6934,0.0133 -0.6841,-0.0014 -0.6737,-0.0160 -0.6623,-0.0306 -0.6498,-0.0450 -0.6364,-0.0594 -0.6220,-0.0735 -0.6067,-0.0874 -0.5904,-0.1011 -0.5733,-0.1145 -0.5554,-0.1276 -0.5367,-0.1404 -0.5173,-0.1528 -0.4972,-0.1648 -0.4764,-0.1764 -0.4551,-0.1876 -0.4331,-0.1983 -0.4107,-0.2085 -0.3878,-0.2182 -0.3645,-0.2274 -0.3409,-0.2360 -0.3170,-0.2440 -0.2928,-0.2515 -0.2684,-0.2583 -0.2439,-0.2645 -0.2194,-0.2701 -0.1948,-0.2750 -0.1702,-0.2793 -0.1458,-0.2829"/></g><g stroke-width="0.0020" stroke="rgb(2%, 29%, 48%)" stroke-opacity="1.0" fill="none"><polyline points="0.1293,-0.2699 0.1041,-0.2763 0.0776,-0.2815 0.0500,-0.2856 0.0213,-0.2884 -0.0082,-0.2901 -0.0386,-0.2905 -0.0696,-0.2897 -0.1012,-0.2877 -0.1332,-0.2845 -0.1655,-0.2800 -0.1980,-0.2744 -0.2305,-0.2677 -0.2629,-0.2598 -0.2952,-0.2508 -0.3271,-0.2407 -0.3585,-0.2297 -0.3894,-0.2176 -0.4195,-0.2046 -0.4488,-0.1907 -0.4772,-0.1760 -0.5045,-0.1605 -0.5306,-0.1444 -0.5555,-0.1275 -0.5790,-0.1101 -0.6011,-0.0922 -0.6216,-0.0739 -0.6405,-0.0551 -0.6577,-0.0361 -0.6731,-0.0169 -0.6867,0.0025 -0.6984,0.0219 -0.7082,0.0413 -0.7160,0.0607 -0.7218,0.0798 -0.7256,0.0988 -0.7273,0.1174 -0.7270,0.1356 -0.7247,0.1534 -0.7203,0.1706 -0.7140,0.1872 -0.7056,0.2032 -0.6953,0.2185 -0.6830,0.2329 -0.6689,0.2465 -0.6530,0.2592 -0.6353,0.2710 -0.6160,0.2818 -0.5950,0.2915 -0.5725,0.3002 -0.5486,0.3077 -0.5234,0.3141 -0.4969,0.3194 -0.4693,0.3234 -0.4406,0.3263 -0.4111,0.3279 -0.3807,0.3284 -0.3497,0.3276 -0.3181,0.3256 -0.2861,0.3223 -0.2538,0.3179 -0.2213,0.3123 -0.1888,0.3056 -0.1564,0.2977 -0.1241,0.2887 -0.0922,0.2786 -0.0608,0.2675 -0.0300,0.2555 0.0002,0.2425 0.0295,0.2286 0.0579,0.2139 0.0852,0.1984 0.1113,0.1822 0.1362,0.1654 0.1597,0.1480 0.1818,0.1301 0.2023,0.1117 0.2212,0.0930 0.2384,0.0740 0.2538,0.0548 0.2674,0.0354 0.2791,0.0160 0.2888,-0.0034 0.2967,-0.0228 0.3025,-0.0419 0.3063,-0.0609 0.3080,-0.0795 0.3077,-0.0977 0.3054,-0.1155 0.3010,-0.1327 0.2947,-0.1494 0.2863,-0.1653 0.2760,-0.1806 0.2637,-0.1950 0.2496,-0.2087 0.2337,-0.2214 0.2160,-0.2331 0.1967,-0.2439 0.1757,-0.2536 0.1532,-0.2623 0.1293,-0.2699"/></g><g stroke-width="0.0030" stroke="rgb(2%, 29%, 48%)" stroke-opacity="1.0" fill="rgb(2%, 73%, 80%)" fill-opacity="0.2"><circle cx="-0.2097" cy="0.0189" r="0.0150"/></g><g stroke-width="0.0030" stroke="rgb(2%, 29%, 48%)" stroke-opacity="1.0" fill="rgb(100%, 71%, 35%)" fill-opacity="0.2"><circle cx="0.3062" cy="-0.0606" r="0.0150"/><circle cx="-0.1458" cy="-0.2829" r="0.0150"/></g><g stroke-width="0.0020" stroke="rgb(50%, 50%, 50%)" stroke-opacity="1.0" fill="rgb(53%, 51%, 28%)" fill-opacity="0.00"><rect width="1.0337" height="0.6113" x="-0.7275" y="-0.2829"/></g><g stroke-width="0.0050" stroke="rgb(21%, 29%, 7%)" stroke-opacity="1.0" fill="none" stroke-linecap="round" stroke-dasharray="0.0300 0.0100"><polyline points="0.1293,-0.2699 -0.5486,0.3077"/></g><g stroke-width="0.0050" stroke="rgb(73%, 34%, 1%)" stroke-opacity="1.0" fill="none" stroke-linecap="round" stroke-dasharray="0.0300 0.0100"><polyline points="-0.6011,-0.0922 0.1818,0.1301"/></g></g><g class="datapadding"></g></g><g class="hud"><g class="frame"><g stroke-width="0" stroke="rgb(0%, 0%, 0%)" stroke-opacity="0" fill="rgb(100%, 100%, 100%)" fill-opacity="0.02"><rect width="1.3559" height="0.7781" x="-0.8237" y="-0.3940"/></g></g><g class="axis"><g class="axisbar"><g stroke-width="0" stroke="rgb(0%, 0%, 0%)" stroke-opacity="0" fill="rgb(5%, 5%, 5%)" fill-opacity="0.4"><rect width="1.3586" height="0.0031" x="-0.8251" y="0.3918"/></g></g><g class="ticks"><g class="ticklines"><g stroke-width="0.0050" stroke="rgb(5%, 5%, 5%)" stroke-opacity="0.05" fill="none"><polyline points="-0.8237,0.3841 -0.8237,-0.3940"/><polyline points="-0.5977,0.3841 -0.5977,-0.3940"/><polyline points="-0.3718,0.3841 -0.3718,-0.3940"/><polyline points="-0.1458,0.3841 -0.1458,-0.3940"/><polyline points="0.0802,0.3841 0.0802,-0.3940"/><polyline points="0.3062,0.3841 0.3062,-0.3940"/><polyline points="0.5322,0.3841 0.5322,-0.3940"/></g></g><g class="tickglyph"><g stroke-width="0.0031" stroke="rgb(5%, 5%, 5%)" stroke-opacity="0.4" fill="rgb(5%, 5%, 5%)" fill-opacity="0.4"><polyline points="-0.8237,0.4167
-0.8237,0.3934"/><polyline points="-0.5977,0.4167
-0.5977,0.3934"/><polyline points="-0.3718,0.4167
-0.3718,0.3934"/><polyline points="-0.1458,0.4167
-0.1458,0.3934"/><polyline points="0.0802,0.4167
0.0802,0.3934"/><polyline points="0.3062,0.4167
0.3062,0.3934"/><polyline points="0.5322,0.4167
0.5322,0.3934"/></g></g><g class="ticktext"><g stroke-width="0.0" stroke="none" fill="rgb(5%, 5%, 5%)" fill-opacity="1.0" font-size="0.0400" text-anchor="middle"><text x="-0.8237" y="0.4595">-2.0</text><text x="-0.5977" y="0.4595">-1.0</text><text x="-0.3718" y="0.4595">-0.5</text><text x="-0.1458" y="0.4595"> 0.0</text><text x="0.0802" y="0.4595"> 0.5</text><text x="0.3062" y="0.4595"> 1.0</text><text x="0.5322" y="0.4595"> 2.0</text></g></g></g></g><g class="axis"><g class="axisbar"><g stroke-width="0" stroke="rgb(0%, 0%, 0%)" stroke-opacity="0" fill="rgb(5%, 5%, 5%)" fill-opacity="0.4"><rect width="0.0027" height="0.7812" x="-0.8332" y="-0.3956"/></g></g><g class="ticks"><g class="ticklines"><g stroke-width="0.0050" stroke="rgb(5%, 5%, 5%)" stroke-opacity="0.05" fill="none"><polyline points="-0.8237,0.3841 0.5322,0.3841"/><polyline points="-0.8237,0.2729 0.5322,0.2729"/><polyline points="-0.8237,0.1618 0.5322,0.1618"/><polyline points="-0.8237,0.0506 0.5322,0.0506"/><polyline points="-0.8237,-0.0606 0.5322,-0.0606"/><polyline points="-0.8237,-0.1717 0.5322,-0.1717"/><polyline points="-0.8237,-0.2829 0.5322,-0.2829"/><polyline points="-0.8237,-0.3940 0.5322,-0.3940"/></g></g><g class="tickglyph"><g stroke-width="0.0027" stroke="rgb(5%, 5%, 5%)" stroke-opacity="0.4" fill="rgb(5%, 5%, 5%)" fill-opacity="0.4"><polyline points="-0.8522,0.3841
-0.8319,0.3841"/><polyline points="-0.8522,0.2729
-0.8319,0.2729"/><polyline points="-0.8522,0.1618
-0.8319,0.1618"/><polyline points="-0.8522,0.0506
-0.8319,0.0506"/><polyline points="-0.8522,-0.0606
-0.8319,-0.0606"/><polyline points="-0.8522,-0.1717
-0.8319,-0.1717"/><polyline points="-0.8522,-0.2829
-0.8319,-0.2829"/><polyline points="-0.8522,-0.3940
-0.8319,-0.3940"/></g></g><g class="ticktext"><g stroke-width="0.0" stroke="none" fill="rgb(5%, 5%, 5%)" fill-opacity="1.0" font-size="0.0400" text-anchor="end"><text x="-0.9078" y="0.3926">-2.0</text><text x="-0.9078" y="0.2815">-1.5</text><text x="-0.9078" y="0.1703">-1.0</text><text x="-0.9078" y="0.0592">-0.5</text><text x="-0.9078" y="-0.0520"> 0.0</text><text x="-0.9078" y="-0.1632"> 0.5</text><text x="-0.9078" y="-0.2743"> 1.0</text><text x="-0.9078" y="-0.3855"> 1.5</text></g></g></g></g><g class="legend"><g class="padding"></g><g class="padding"></g><g class="frame"><g stroke-width="0.0008" stroke="rgb(5%, 5%, 5%)" stroke-opacity="1.0" fill="rgb(5%, 5%, 5%)" fill-opacity="0"><rect width="0.3661" height="0.4552" x="0.6034" y="-0.2326"/></g></g><g class="legendContent"><g stroke-width="0.0017" stroke="rgb(50%, 50%, 50%)" stroke-opacity="1.0" fill="rgb(53%, 51%, 28%)" fill-opacity="0.00"><rect width="0.0169" height="0.0195" x="0.9161" y="0.1720"/></g><g stroke-width="0.0" stroke="none" fill="rgb(5%, 5%, 5%)" fill-opacity="1.0" font-size="0.0339" text-anchor="start"><text x="0.6203" y="0.1915">Bounding Box</text></g><g stroke-width="0.0005" stroke="rgb(2%, 29%, 48%)" stroke-opacity="1.0" fill="rgb(100%, 71%, 35%)" fill-opacity="0.2"><rect width="0.0169" height="0.0169" x="0.9155" y="0.1110"/></g><g stroke-width="0.0" stroke="none" fill="rgb(5%, 5%, 5%)" fill-opacity="1.0" font-size="0.0339" text-anchor="start"><text x="0.6203" y="0.1292">Endpoints</text></g><g stroke-width="0.0005" stroke="rgb(2%, 29%, 48%)" stroke-opacity="1.0" fill="rgb(2%, 73%, 80%)" fill-opacity="0.2"><rect width="0.0169" height="0.0169" x="0.9155" y="0.0488"/></g><g stroke-width="0.0" stroke="none" fill="rgb(5%, 5%, 5%)" fill-opacity="1.0" font-size="0.0339" text-anchor="start"><text x="0.6203" y="0.0670">Centroid</text></g><g stroke-width="0.0034" stroke="rgb(66%, 7%, 55%)" stroke-opacity="1.0" fill="none"><polyline points="0.9169,-0.0050 0.9508,-0.0050"/></g><g stroke-width="0.0" stroke="none" fill="rgb(5%, 5%, 5%)" fill-opacity="1.0" font-size="0.0339" text-anchor="start"><text x="0.6203" y="0.0047">Arc</text></g><g stroke-width="0.0014" stroke="rgb(2%, 29%, 48%)" stroke-opacity="1.0" fill="none"><polyline points="0.9159,-0.0672 0.9498,-0.0672"/></g><g stroke-width="0.0" stroke="none" fill="rgb(5%, 5%, 5%)" fill-opacity="1.0" font-size="0.0339" text-anchor="start"><text x="0.6203" y="-0.0575">Full Ellipse</text></g><g stroke-width="0.0034" stroke="rgb(73%, 34%, 1%)" stroke-opacity="1.0" fill="none" stroke-linecap="round" stroke-dasharray="0.0300 0.0100"><polyline points="0.9169,-0.1295 0.9508,-0.1295"/></g><g stroke-width="0.0" stroke="none" fill="rgb(5%, 5%, 5%)" fill-opacity="1.0" font-size="0.0339" text-anchor="start"><text x="0.6203" y="-0.1197">Minor Axis</text></g><g stroke-width="0.0034" stroke="rgb(21%, 29%, 7%)" stroke-opacity="1.0" fill="none" stroke-linecap="round" stroke-dasharray="0.0300 0.0100"><polyline points="0.9169,-0.1917 0.9508,-0.1917"/></g><g stroke-width="0.0" stroke="none" fill="rgb(5%, 5%, 5%)" fill-opacity="1.0" font-size="0.0339" text-anchor="start"><text x="0.6203" y="-0.1820">Major Axis</text></g></g></g><g class="title"><g stroke-width="0.0" stroke="none" fill="rgb(5%, 5%, 5%)" fill-opacity="1.0" font-size="0.0320" text-anchor="middle"><text x="0" y="-0.4490">ArcPosition (Point 1 0) (Point 0 1) (ArcInfo (Point 1.5 1) (pi / 3) True True)</text></g></g><g class="frame"><g stroke-width="0" stroke="rgb(0%, 0%, 0%)" stroke-opacity="0" fill="rgb(0%, 0%, 0%)" fill-opacity="0"><rect width="2.0" height="1.0" x="-1.0" y="-0.5"/></g></g></g></svg>