<svg height="300.00" viewBox="-0.70803 -0.46950 1.4697 0.96235" width="458.15" xmlns="http://www.w3.org/2000/svg" xmlns:xlink="http://www.w3.org/1999/xlink"><style>svg {
  color-scheme: light dark;
}
{
  .canvas g, .title g, .axisbar g, .ticktext g, .tickglyph g, .ticklines g, .legendContent g text {
    fill: rgba(5%, 5%, 5%, 1.00);
  }
  .ticklines g, .tickglyph g, .legendBorder g {
    stroke: rgba(5%, 5%, 5%, 1.00);
  }
  .legendBorder g {
    fill: rgba(94%, 94%, 94%, 1.00);
  }
}
@media (prefers-color-scheme:dark) {
  .canvas g, .title g, .axisbar g, .ticktext g, .tickglyph g, .ticklines g, .legendContent g text {
    fill: rgba(94%, 94%, 94%, 1.00);
  }
  .ticklines g, .tickglyph g, .legendBorder g {
    stroke: rgba(94%, 94%, 94%, 1.00);
  }
  .legendBorder g {
    fill: rgba(5%, 5%, 5%, 1.00);
  }
}</style><g class="chart"><g class="ellipse"><g fill="none" stroke="rgba(66%, 7%, 55%, 1.00)" stroke-width="0.0050000"><polyline points="0.22389,-0.032338 0.22211,-0.018051 0.21958,-0.0036164 0.21629,0.010933 0.21225,0.025563 0.20748,0.040243 0.20198,0.054938 0.19577,0.069615 0.18886,0.084242 0.18126,0.098785 0.17300,0.11321 0.16408,0.12749 0.15454,0.14159 0.14439,0.15547 0.13366,0.16911 0.12237,0.18247 0.11054,0.19553 0.098202,0.20826 0.085386,0.22062 0.072119,0.23259 0.058431,0.24414 0.044353,0.25525 0.029916,0.26588 0.015153,0.27603 0.000097519,0.28566 -0.015217,0.29475 -0.030755,0.30328 -0.046483,0.31123 -0.062365,0.31859 -0.078364,0.32534 -0.094445,0.33146 -0.11057,0.33693 -0.12671,0.34176 -0.14282,0.34592 -0.15886,0.34940 -0.17481,0.35221 -0.19062,0.35432 -0.20625,0.35575 -0.22168,0.35647 -0.23687,0.35650 -0.25179,0.35584 -0.26639,0.35447 -0.28066,0.35241 -0.29454,0.34967 -0.30803,0.34624 -0.32107,0.34214 -0.33365,0.33737 -0.34574,0.33195 -0.35730,0.32588 -0.36832,0.31919 -0.37877,0.31188 -0.38862,0.30398 -0.39785,0.29549 -0.40644,0.28645 -0.41438,0.27687 -0.42164,0.26676 -0.42820,0.25617 -0.43406,0.24510 -0.43920,0.23358 -0.44361,0.22165 -0.44727,0.20932 -0.45019,0.19662 -0.45234,0.18359 -0.45374,0.17025 -0.45437,0.15664 -0.45423,0.14277 -0.45333,0.12869 -0.45167,0.11443 -0.44924,0.10001 -0.44606,0.085480 -0.44213,0.070859 -0.43747,0.056184 -0.43207,0.041490 -0.42596,0.026808 -0.41915,0.012171 -0.41165,-0.0023857 -0.40348,-0.016831 -0.39466,-0.031132 -0.38521,-0.045257 -0.37514,-0.059173 -0.36449,-0.072850 -0.35328,-0.086255 -0.34153,-0.099360 -0.32926,-0.11213 -0.31652,-0.12455 -0.30331,-0.13658 -0.28968,-0.14819 -0.27566,-0.15936 -0.26127,-0.17007 -0.24655,-0.18029 -0.23154,-0.18999 -0.21626,-0.19916 -0.20075,-0.20777 -0.18505,-0.21581 -0.16919,-0.22326 -0.15320,-0.23009 -0.13713,-0.23630 -0.12101,-0.24188 -0.10487,-0.24679 -0.088756,-0.25105 -0.072700,-0.25463"/></g><g fill="none" stroke="rgba(2%, 29%, 48%, 1.00)" stroke-width="0.0020000"><polyline points="0.10781,-0.24162 0.091247,-0.24803 0.073868,-0.25327 0.055745,-0.25733 0.036949,-0.26019 0.017555,-0.26183 -0.0023600,-0.26225 -0.022719,-0.26146 -0.043440,-0.25944 -0.064442,-0.25622 -0.085642,-0.25180 -0.10696,-0.24620 -0.12830,-0.23944 -0.14959,-0.23155 -0.17075,-0.22256 -0.19168,-0.21250 -0.21230,-0.20142 -0.23255,-0.18936 -0.25232,-0.17637 -0.27156,-0.16249 -0.29017,-0.14779 -0.30809,-0.13232 -0.32525,-0.11614 -0.34157,-0.099310 -0.35700,-0.081906 -0.37148,-0.063994 -0.38494,-0.045642 -0.39733,-0.026925 -0.40861,-0.0079145 -0.41873,0.011313 -0.42765,0.030682 -0.43533,0.050115 -0.44174,0.069537 -0.44687,0.088871 -0.45068,0.10804 -0.45317,0.12697 -0.45432,0.14558 -0.45413,0.16381 -0.45261,0.18157 -0.44974,0.19881 -0.44556,0.21544 -0.44007,0.23142 -0.43329,0.24666 -0.42526,0.26112 -0.41600,0.27473 -0.40555,0.28745 -0.39396,0.29921 -0.38126,0.30998 -0.36751,0.31972 -0.35276,0.32838 -0.33707,0.33593 -0.32050,0.34233 -0.30312,0.34758 -0.28500,0.35164 -0.26620,0.35449 -0.24681,0.35614 -0.22689,0.35656 -0.20653,0.35577 -0.18581,0.35375 -0.16481,0.35053 -0.14361,0.34611 -0.12230,0.34050 -0.10095,0.33375 -0.079660,0.32586 -0.058507,0.31686 -0.037576,0.30681 -0.016948,0.29573 0.0032934,0.28367 0.023070,0.27068 0.042303,0.25680 0.060917,0.24210 0.078838,0.22662 0.095995,0.21044 0.11232,0.19362 0.12775,0.17622 0.14223,0.15830 0.15569,0.13995 0.16808,0.12123 0.17936,0.10222 0.18948,0.082996 0.19839,0.063627 0.20607,0.044194 0.21249,0.024771 0.21762,0.0054377 0.22143,-0.013731 0.22392,-0.032660 0.22507,-0.051274 0.22488,-0.069499 0.22335,-0.087264 0.22049,-0.10450 0.21631,-0.12114 0.21081,-0.13711 0.20404,-0.15235 0.19601,-0.16681 0.18675,-0.18042 0.17630,-0.19314 0.16470,-0.20490 0.15200,-0.21567 0.13825,-0.22541 0.12350,-0.23407 0.10781,-0.24162"/></g><g fill="rgba(2%, 73%, 80%, 0.20)" stroke="rgba(2%, 29%, 48%, 1.00)" stroke-width="0.0030000"><circle cx="-0.11463" cy="0.047154" r="0.015000"/></g><g fill="rgba(100%, 71%, 35%, 0.20)" stroke="rgba(2%, 29%, 48%, 1.00)" stroke-width="0.0030000"><rect height="0.030000" width="0.030000" x="0.20889" y="-0.047338"/><rect height="0.030000" width="0.030000" x="-0.087700" y="-0.26963"/></g><g fill="rgba(53%, 51%, 28%, 0.00)" stroke="rgba(50%, 50%, 50%, 1.00)" stroke-width="0.0020000"><rect height="0.61121" width="0.67830" x="-0.45441" y="-0.25463"/></g><g fill="none" stroke="rgba(21%, 29%, 7%, 1.00)" stroke-dasharray="0.030000 0.010000" stroke-linecap="round" stroke-width="0.0050000"><polyline points="0.10781,-0.24162 -0.33707,0.33593"/></g><g fill="none" stroke="rgba(73%, 34%, 1%, 1.00)" stroke-dasharray="0.030000 0.010000" stroke-linecap="round" stroke-width="0.0050000"><polyline points="-0.37148,-0.063994 0.14223,0.15830"/></g></g></g><g class="hud"><g class="frame"><g fill="rgba(100%, 100%, 100%, 0.02)" stroke="rgba(0%, 0%, 0%, 0.00)" stroke-width="0.0000"><rect height="0.77804" width="0.88976" x="-0.51758" y="-0.36578"/></g></g><g class="axis"><g class="ticks"><g class="tickglyph"><g fill="rgba(5%, 5%, 5%, 0.40)" stroke="rgba(5%, 5%, 5%, 0.40)" stroke-width="0.0040000"><g transform="rotate(-90.000, -0.53328, 0.41225)"><polyline points="-0.53328,0.42725
-0.53328,0.39725"/></g><g transform="rotate(-90.000, -0.53328, 0.30111)"><polyline points="-0.53328,0.31611
-0.53328,0.28611"/></g><g transform="rotate(-90.000, -0.53328, 0.18996)"><polyline points="-0.53328,0.20496
-0.53328,0.17496"/></g><g transform="rotate(-90.000, -0.53328, 0.078810)"><polyline points="-0.53328,0.093810
-0.53328,0.063810"/></g><g transform="rotate(-90.000, -0.53328, -0.032338)"><polyline points="-0.53328,-0.017338
-0.53328,-0.047338"/></g><g transform="rotate(-90.000, -0.53328, -0.14349)"><polyline points="-0.53328,-0.12849
-0.53328,-0.15849"/></g><g transform="rotate(-90.000, -0.53328, -0.25463)"><polyline points="-0.53328,-0.23963
-0.53328,-0.26963"/></g><g transform="rotate(-90.000, -0.53328, -0.36578)"><polyline points="-0.53328,-0.35078
-0.53328,-0.38078"/></g></g></g><g class="ticktext"><g fill="rgba(5%, 5%, 5%, 1.00)" font-size="0.026169" stroke="none" stroke-width="0.0" text-anchor="end"><text x="-0.55212" y="0.42295">-2.00</text><text x="-0.55212" y="0.31180">-1.50</text><text x="-0.55212" y="0.20066">-1.00</text><text x="-0.55212" y="0.089508">-0.50</text><text x="-0.55212" y="-0.021640"> 0.00</text><text x="-0.55212" y="-0.13279"> 0.50</text><text x="-0.55212" y="-0.24394"> 1.00</text><text x="-0.55212" y="-0.35508"> 1.50</text></g></g><g class="ticklines"><g fill="none" stroke="rgba(5%, 5%, 5%, 0.05)" stroke-width="0.0050000"><polyline points="-0.51758,0.41225 0.37218,0.41225"/><polyline points="-0.51758,0.30111 0.37218,0.30111"/><polyline points="-0.51758,0.18996 0.37218,0.18996"/><polyline points="-0.51758,0.078810 0.37218,0.078810"/><polyline points="-0.51758,-0.032338 0.37218,-0.032338"/><polyline points="-0.51758,-0.14349 0.37218,-0.14349"/><polyline points="-0.51758,-0.25463 0.37218,-0.25463"/><polyline points="-0.51758,-0.36578 0.37218,-0.36578"/></g></g></g><g class="axisbar"><g fill="rgba(5%, 5%, 5%, 0.40)" stroke="rgba(0%, 0%, 0%, 0.00)" stroke-width="0.0000"><rect height="0.78115" width="0.0020936" x="-0.52491" y="-0.36734"/></g></g></g><g class="axis"><g class="ticks"><g class="tickglyph"><g fill="rgba(5%, 5%, 5%, 0.40)" stroke="rgba(5%, 5%, 5%, 0.40)" stroke-width="0.0040000"><polyline points="-0.51758,0.45059
-0.51758,0.42059"/><polyline points="-0.36929,0.45059
-0.36929,0.42059"/><polyline points="-0.22099,0.45059
-0.22099,0.42059"/><polyline points="-0.072700,0.45059
-0.072700,0.42059"/><polyline points="0.075594,0.45059
0.075594,0.42059"/><polyline points="0.22389,0.45059
0.22389,0.42059"/><polyline points="0.37218,0.45059
0.37218,0.42059"/></g></g><g class="ticktext"><g fill="rgba(5%, 5%, 5%, 1.00)" font-size="0.026169" stroke="none" stroke-width="0.0" text-anchor="middle"><text x="-0.51758" y="0.48500">-1.50</text><text x="-0.36929" y="0.48500">-1.00</text><text x="-0.22099" y="0.48500">-0.50</text><text x="-0.072700" y="0.48500"> 0.00</text><text x="0.075594" y="0.48500"> 0.50</text><text x="0.22389" y="0.48500"> 1.00</text><text x="0.37218" y="0.48500"> 1.50</text></g></g><g class="ticklines"><g fill="none" stroke="rgba(5%, 5%, 5%, 0.05)" stroke-width="0.0050000"><polyline points="-0.51758,0.41225 -0.51758,-0.36578"/><polyline points="-0.36929,0.41225 -0.36929,-0.36578"/><polyline points="-0.22099,0.41225 -0.22099,-0.36578"/><polyline points="-0.072700,0.41225 -0.072700,-0.36578"/><polyline points="0.075594,0.41225 0.075594,-0.36578"/><polyline points="0.22389,0.41225 0.22389,-0.36578"/><polyline points="0.37218,0.41225 0.37218,-0.36578"/></g></g></g><g class="axisbar"><g fill="rgba(5%, 5%, 5%, 0.40)" stroke="rgba(0%, 0%, 0%, 0.00)" stroke-width="0.0000"><rect height="0.0031121" width="0.89186" x="-0.51863" y="0.42003"/></g></g></g><g class="legend"><g class="legendBorder"><g fill="rgba(5%, 5%, 5%, 0.00)" stroke="rgba(5%, 5%, 5%, 1.00)" stroke-width="0.0025000"><rect height="0.45515" width="0.22113" x="0.44088" y="-0.35907"/></g></g><g class="legendContent"><g fill="rgba(5%, 5%, 5%, 1.00)" font-size="0.026169" stroke="none" stroke-width="0.0" text-anchor="start"><text x="0.45396" y="0.064958">Bounding Box</text></g><g fill="rgba(53%, 51%, 28%, 0.00)" stroke="rgba(50%, 50%, 50%, 1.00)" stroke-width="0.0025000"><rect height="0.019451" width="0.013085" x="0.62145" y="0.045507"/></g><g fill="rgba(5%, 5%, 5%, 1.00)" font-size="0.026169" stroke="none" stroke-width="0.0" text-anchor="start"><text x="0.45396" y="0.0027150">Endpoints</text></g><g fill="rgba(100%, 71%, 35%, 0.20)" stroke="rgba(2%, 29%, 48%, 1.00)" stroke-width="0.0030000"><rect height="0.025000" width="0.025000" x="0.61549" y="-0.019510"/></g><g fill="rgba(5%, 5%, 5%, 1.00)" font-size="0.026169" stroke="none" stroke-width="0.0" text-anchor="start"><text x="0.45396" y="-0.059528">Centroid</text></g><g fill="rgba(2%, 73%, 80%, 0.20)" stroke="rgba(2%, 29%, 48%, 1.00)" stroke-width="0.0030000"><circle cx="0.62799" cy="-0.069253" r="0.012500"/></g><g fill="rgba(5%, 5%, 5%, 1.00)" font-size="0.026169" stroke="none" stroke-width="0.0" text-anchor="start"><text x="0.45396" y="-0.12177">Arc</text></g><g fill="none" stroke="rgba(66%, 7%, 55%, 1.00)" stroke-width="0.0050000"><polyline points="0.62145,-0.13150 0.64761,-0.13150"/></g><g fill="rgba(5%, 5%, 5%, 1.00)" font-size="0.026169" stroke="none" stroke-width="0.0" text-anchor="start"><text x="0.45396" y="-0.18401">Full Ellipse</text></g><g fill="none" stroke="rgba(2%, 29%, 48%, 1.00)" stroke-width="0.0020000"><polyline points="0.62145,-0.19374 0.64761,-0.19374"/></g><g fill="rgba(5%, 5%, 5%, 1.00)" font-size="0.026169" stroke="none" stroke-width="0.0" text-anchor="start"><text x="0.45396" y="-0.24626">Minor Axis</text></g><g fill="none" stroke="rgba(73%, 34%, 1%, 1.00)" stroke-dasharray="0.030000 0.010000" stroke-linecap="round" stroke-width="0.0050000"><polyline points="0.62145,-0.25598 0.64761,-0.25598"/></g><g fill="rgba(5%, 5%, 5%, 1.00)" font-size="0.026169" stroke="none" stroke-width="0.0" text-anchor="start"><text x="0.45396" y="-0.30850">Major Axis</text></g><g fill="none" stroke="rgba(21%, 29%, 7%, 1.00)" stroke-dasharray="0.030000 0.010000" stroke-linecap="round" stroke-width="0.0050000"><polyline points="0.62145,-0.31822 0.64761,-0.31822"/></g></g></g><g class="title"><g fill="rgba(5%, 5%, 5%, 1.00)" font-size="0.041871" stroke="none" stroke-width="0.0" text-anchor="middle"><text x="0.026809" y="-0.43600">ArcPosition (Point 1 0) (Point 0 1) (ArcInfo (Point 1.5 1) (pi / 3) True True)</text></g></g></g></svg>