<svg xmlns="http://www.w3.org/2000/svg" width="595.44023088396" xmlns:xlink="http://www.w3.org/1999/xlink" viewBox="-0.9505916034201172 -0.4801279661831108 1.936114516283985 0.9754704582572774" height="300.0"><style>svg {
  color-scheme: light dark;
}
{
  .canvas g, .title g, .axisbar g, .ticktext g, .tickglyph g, .ticklines g, .legendContent g text {
    fill: #0d0d0d;
  }
  .ticklines g, .tickglyph g, .legendBorder g {
    stroke: #0d0d0d;
  }
}
@media (prefers-color-scheme:dark) {
  .canvas g, .title g, .axisbar g, .ticktext g, .tickglyph g, .ticklines g, .legendContent g text {
    fill: #f0f0f0;
  }
  .ticklines g, .tickglyph g, .legendBorder g {
    stroke: #f0f0f0;
  }
}</style><g class="chart"><g class="ellipse"><g fill="none" stroke="#1f78b5" stroke-width="5.0e-3" stroke-opacity="1.0"><polyline points="0.3537977511448427,-3.2338301402926595e-2
0.3510464855840092,-1.8050870674847785e-2
0.34711810876588234,-3.6163721322803877e-3
0.3420214809796496,1.0932637818583113e-2
0.3357680974555699,2.556334449587111e-2
0.3283720624379636,4.024274895417046e-2
0.31985005737368066,5.4937742412265844e-2
0.3102213032877974,6.961518092860564e-2
0.29950751743139925,8.424196015607399e-2
0.2877328642992327,9.878509000745644e-2
0.2749239011277005,0.11321176906319891
0.2611095179961267,0.12748945855363364
0.24632087266639835,0.1415859557488101
0.23059132030793505,0.15546946659040178
0.21395633826650706,0.16910867740187208
0.19645344604656656,0.18247282551515775
0.17812212068758093,0.1955317686545776
0.15900370772522443,0.2082560529214712
0.13914132793825607,0.2206169792262318
0.11857978009141235,0.23258666801790007
9.736543989367008e-2,0.24413812216532182
7.554615539978127e-2,0.2552452878480457
5.3171139090991026e-2,0.2658831133196224
3.029085687834987e-2,0.27602760541076804
6.9569142789672744e-3,0.28565588364495254
-1.6778059978066917e-2,0.29474623184435317
-4.086053265357659e-2,0.30327814710978496
-6.523618674027365e-2,0.3112323860641286
-8.985004397248997e-2,0.3185910082549615
-0.11464658882735224,0.3253374166184956
-0.13956989373771445,0.3314563949135587
-0.16456374523443984,0.33693414204118854
-0.1895717707335257,0.34175830317243294
-0.2145375656821007,0.345917997614148
-0.23940482077652903,0.34940384334994556
-0.2641174489656847,0.352207978200938
-0.28861971195294134,0.3543240775585523
-0.31285634591156575,0.3557473686494201
-0.3367726861299607,0.3564746413001677
-0.3603147903056274,0.3565042551778276
-0.3834295602097709,0.3558361434895403
-0.40606486144812565,0.35447181313320353
-0.4281696410478967,0.3524143412987266
-0.44969404260559925,0.3496683685275576
-0.4705895187360858,0.3462400882461376
-0.490808940569137,0.3421372327968856
-0.510306704046654,0.33736905599822564
-0.5290388327806977,0.3319463122729871
-0.5469630772403877,0.32588123239225436
-0.5640390100439487,0.31918749588937634
-0.5802281171409736,0.3118802002063522
-0.5954938846792504,0.3039758266421836
-0.6098018813602235,0.295492203179997
-0.6231198360973456,0.28644846427677406
-0.6354177108021579,0.2768650077063871
-0.646667768133941,0.26676344855327505
-0.6568446340601228,0.25616657046052704
-0.6659253550863453,0.24509827424233083
-0.6738894500271085,0.2335835239766882
-0.6807189562002257,0.22164829069998443
-0.6863984699408999,0.2093194938304045
-0.6909151813440433,0.1966249404523141
-0.694258903156482,0.18359326259854658
-0.6964220937538776,0.170253852672054
-0.697399874150545,0.15663679715257472
-0.6971900390038003,0.14277280873783976
-0.6957930615880179,0.1286931570723705
-0.6932120927271805,0.11442959822010795
-0.6894529536883285,0.10001430303994024
-0.6845241230519347,8.547978462568168e-2
-0.6784367175888227,7.085882497415069e-2
-0.6712044671867563,5.61844010467521e-2
-0.6628436838832532,4.1489610391323595e-2
-0.6533732250744679,2.6807596492002483e-2
-0.6428144509831267,1.2171474015490069e-2
-0.6311911764814397,-2.385745877692913e-3
-0.6185296173776561,-1.6831229988493956e-2
-0.6048583312874068,-3.113239713323246e-2
-0.5902081532232017,-4.525699162909269e-2
-0.5746121260473496,-5.9173156045464914e-2
-0.5581054259451703,-7.284950305704352e-2
-0.5407252830865816,-8.62551862366232e-2
-0.5225108976550126,-9.935996962792293e-2
-0.5035033514330362,-0.11213429594151525
-0.48374551514412584,-0.12454935322005667
-0.4632819517595423,-0.13657713982244568
-0.44215881598841716,-0.14819052758035212
-0.4204237501777419,-0.15936332298466382
-0.39812577685705386,-0.17007032626384544
-0.3753151881701739,-0.18028738822096946
-0.3520434324433869,-0.18999146470121597
-0.328362998145898,-0.19916066856699688
-0.30432729550429327,-0.20777431906347799
-0.2799905360380095,-0.215812988463154
-0.25540761028752956,-0.22325854588427274
-0.23063396401106717,-0.23009419818427979
-0.20572547312898415,-0.23630452783604672
-0.18073831769799809,-0.2418755277014566
-0.15572885519941604,-0.24679463262391754
-0.13075349342720277,-0.2510507477685455
-0.10586856326256133,-0.2546342736461006"/></g><g fill="none" stroke="#a6cfe3" stroke-width="2.0e-3" stroke-opacity="1.0"><polyline points="0.17390167850043814,-0.24161651177749155
0.14822557375087186,-0.24802572808665968
0.12129023115040416,-0.2532700031790618
9.320195219069094e-2,-0.25732864029678915
6.407158847647221e-2,-0.26018562185335337
3.401410424493079e-2,-0.26182967264778134
3.1481226543704777e-3,-0.2622543043626825
-2.8404542367196695e-2,-0.2614578411706743
-6.0519366865972146e-2,-0.25944342634810613
-9.306960830152666e-2,-0.2562190098699838
-0.1259268057417049,-0.2517973170350509
-0.15896128683923627,-0.24619579824484772
-0.1920426795892477,-0.2394365601349484
-0.2250404268480053,-0.23154627833017072
-0.25782430158231595,-0.22255609216807126
-0.29026492081613053,-0.21250148180620654
-0.32223425624604296,-0.20142212819816008
-0.35360613951051095,-0.18936175649094789
-0.38425676011873977,-0.17636796346183847
-0.4140651540741255,-0.16249202967561827
-0.44291368126388597,-0.1477887171036305
-0.47068848973084176,-0.13231605300329208
-0.49727996499507643,-0.11613510091101964
-0.5225831626522119,-9.930971965234714e-2
-0.5464982225410268,-8.1906311320317e-2
-0.5689307628458913,-6.399355921675498e-2
-0.5897922525786752,-4.564215679065575e-2
-0.6090003609701111,-2.6924528643436973e-2
-0.626479282391728,-7.914544702124549e-3
-0.6421600355260346,1.1312771311500325e-2
-0.6559807356042643,3.068153796525719e-2
-0.6678868386372856,5.0115315585911646e-2
-0.6778313566758083,6.953740793164315e-2
-0.6857750432503524,8.88711648770733e-2
-0.6916865482591334,0.10804028491629158
-0.6955425416925913,0.12696911629004115
-0.6973278057062804,0.14558295554865047
-0.6970352946787479,0.1638083423724201
-0.6946661630173839,0.1815733494859435
-0.6902297606025027,0.19880786652220378
-0.683743595887636,0.2154438767161604
-0.6752332668016671,0.2314157253358478
-0.6647323597254984,0.24666037879160813
-0.6522823169419516,0.2611176734008706
-0.6379322730820096,0.27473055282672243
-0.6217388612128765,0.2874452932532029
-0.6037659893331335,0.29921171540866065
-0.5840845881570657,0.3099833826004156
-0.5627723311835384,0.31971778397916795
-0.5399133281541818,0.328376502309901
-0.5155977931106679,0.3359253655871556
-0.4899216883611017,0.34233458189632376
-0.46298634576063374,0.34757885698872576
-0.4348980668009204,0.3516374941064532
-0.4057677030867019,0.3544944756630174
-0.37571021885516054,0.3561385264574453
-0.3448442372646001,0.3565631581723465
-0.31329157224303317,0.3557666949803383
-0.2811767477442575,0.35375228015777005
-0.2486265063087032,0.35052786367964783
-0.21576930886852508,0.34610617084471496
-0.18273482777099348,0.34050465205451175
-0.14965343502098227,0.33374541394461243
-0.11665568776222424,0.32585513213983475
-8.387181302791369e-2,0.3168649459777353
-5.1431193794099106e-2,0.30681033561587057
-1.946185836418657e-2,0.295730982007824
1.1910024900281257e-2,0.2836706103006118
4.256064550851035e-2,0.2706768172715023
7.236903946389595e-2,0.2568008834852822
0.10121756665365644,0.24209757091329454
0.12899237512061212,0.2266249068129561
0.155583850384847,0.21044395472068356
0.18088704804198197,0.19361857346201117
0.20480210793079734,0.17621516512998092
0.22723464823566153,0.158302413026419
0.24809613796844543,0.1399510106003199
0.26730424635988137,0.12123338245310095
0.2847831677814985,0.1022233985117888
0.30046392091580487,8.299608249816365e-2
0.31428462099403465,6.362731584440678e-2
0.32619072402705607,4.419353822375255e-2
0.33613524206557854,2.4771445878021103e-2
0.3440789286401229,5.4376889325906674e-3
0.3499904336489037,-1.37314311066275e-2
0.353846427082362,-3.266026248037712e-2
0.35563169109605086,-5.127410173898639e-2
0.3553391800685184,-6.949948856275578e-2
0.3529700484071543,-8.726449567627947e-2
0.3485336459922732,-0.10449901271253981
0.3420474812774066,-0.12113502290649636
0.3335371521914374,-0.13710687152618373
0.32303624511526885,-0.15235152498194382
0.31058620233172185,-0.16680881959120653
0.29623615847177986,-0.1804216990170585
0.28004274660264694,-0.19313643944353887
0.262069874722904,-0.2049028615989965
0.24238847354683601,-0.21567452879075155
0.22107621657330867,-0.22540893016950392
0.19821721354395194,-0.23406764850023698
0.17390167850043814,-0.24161651177749144"/></g><g fill="#a6cfe3" stroke="#1f78b5" stroke-width="3.0e-3" fill-opacity="1.0" stroke-opacity="1.0"><circle cy="4.7154426904832014e-2" cx="-0.17084805730511476" r="1.5e-2"/></g><g fill="#fa9999" stroke="#1f78b5" stroke-width="3.0e-3" fill-opacity="1.0" stroke-opacity="1.0"><rect x="0.33879775114484245" width="3.0000000000000027e-2" y="-4.7338301402926594e-2" height="3.0e-2"/><rect x="-0.12086856326256133" width="3.0e-2" y="-0.2696342736461005" height="3.0000000000000027e-2"/></g><g fill="#6666cc" stroke="#808080" stroke-width="2.0e-3" fill-opacity="0.1" stroke-opacity="1.0"><rect x="-0.6974619773534394" width="1.051259728498282" y="-0.2546342736461006" height="0.6112115986149814"/></g><g fill="none" stroke="#e63305" stroke-dasharray="3.0e-2 1.0e-2" stroke-linecap="round" stroke-width="5.0e-3" stroke-opacity="1.0"><polyline points="0.17390167850043814,-0.24161651177749155
-0.5155977931106679,0.3359253655871556"/></g><g fill="none" stroke="#e6e605" stroke-dasharray="3.0e-2 1.0e-2" stroke-linecap="round" stroke-width="5.0e-3" stroke-opacity="1.0"><polyline points="-0.5689307628458913,-6.399355921675498e-2
0.22723464823566153,0.158302413026419"/></g></g></g><g class="hud"><g class="frame"><g fill="#ffffff" stroke="#000000" stroke-width="0.0" fill-opacity="2.0e-2" stroke-opacity="0.0"><rect x="-0.7953680348736669" width="1.3789989432222114" y="-0.3657822597676875" height="0.7780359028511088"/></g></g><g class="axis"><g class="ticks"><g class="tickglyph"><g fill="#0d0d0d" stroke="#0d0d0d" stroke-width="4.0e-3" fill-opacity="0.4" stroke-opacity="0.4"><g transform="rotate(-90.0, -0.8160530190220001, 0.4122536430834213)"><polyline points="-0.8160530190220001,0.4272536430834213
-0.8160530190220001,0.39725364308342126"/></g><g transform="rotate(-90.0, -0.8160530190220001, 0.30110565696183433)"><polyline points="-0.8160530190220001,0.31610565696183435
-0.8160530190220001,0.2861056569618343"/></g><g transform="rotate(-90.0, -0.8160530190220001, 0.1899576708402474)"><polyline points="-0.8160530190220001,0.2049576708402474
-0.8160530190220001,0.17495767084024738"/></g><g transform="rotate(-90.0, -0.8160530190220001, 7.880968471866046e-2)"><polyline points="-0.8160530190220001,9.380968471866045e-2
-0.8160530190220001,6.380968471866046e-2"/></g><g transform="rotate(-90.0, -0.8160530190220001, -3.2338301402926595e-2)"><polyline points="-0.8160530190220001,-1.7338301402926595e-2
-0.8160530190220001,-4.7338301402926594e-2"/></g><g transform="rotate(-90.0, -0.8160530190220001, -0.14348628752451342)"><polyline points="-0.8160530190220001,-0.1284862875245134
-0.8160530190220001,-0.15848628752451344"/></g><g transform="rotate(-90.0, -0.8160530190220001, -0.2546342736461005)"><polyline points="-0.8160530190220001,-0.23963427364610046
-0.8160530190220001,-0.2696342736461005"/></g><g transform="rotate(-90.0, -0.8160530190220001, -0.3657822597676875)"><polyline points="-0.8160530190220001,-0.3507822597676875
-0.8160530190220001,-0.38078225976768754"/></g></g></g><g class="ticktext"><g fill="#0d0d0d" stroke="none" stroke-width="0.0" font-size="3.447497358055528e-2" fill-opacity="1.0" text-anchor="end"><text x="-0.8408749999999998" y="0.4229516367476241">-2.0</text><text x="-0.8408749999999998" y="0.3118036506260371">-1.5</text><text x="-0.8408749999999998" y="0.20065566450445016">-1.0</text><text x="-0.8408749999999998" y="8.950767838286317e-2">-0.50</text><text x="-0.8408749999999998" y="-2.164030773872372e-2">0.0</text><text x="-0.8408749999999998" y="-0.13278829386031066">0.50</text><text x="-0.8408749999999998" y="-0.24393627998189782">1.0</text><text x="-0.8408749999999998" y="-0.35508426610348465">1.5</text></g></g><g class="ticklines"><g fill="none" stroke="#0d0d0d" stroke-width="5.0e-3" stroke-opacity="5.0e-2"><polyline points="-0.7953680348736669,0.4122536430834213
0.5836309083485445,0.4122536430834213"/><polyline points="-0.7953680348736669,0.30110565696183433
0.5836309083485445,0.30110565696183433"/><polyline points="-0.7953680348736669,0.1899576708402474
0.5836309083485445,0.1899576708402474"/><polyline points="-0.7953680348736669,7.880968471866046e-2
0.5836309083485445,7.880968471866046e-2"/><polyline points="-0.7953680348736669,-3.2338301402926595e-2
0.5836309083485445,-3.2338301402926595e-2"/><polyline points="-0.7953680348736669,-0.14348628752451342
0.5836309083485445,-0.14348628752451342"/><polyline points="-0.7953680348736669,-0.2546342736461005
0.5836309083485445,-0.2546342736461005"/><polyline points="-0.7953680348736669,-0.3657822597676875
0.5836309083485445,-0.3657822597676875"/></g></g></g><g class="axisbar"><g fill="#0d0d0d" stroke="#000000" stroke-width="0.0" fill-opacity="0.4" stroke-opacity="0.0"><rect x="-0.8050210274762224" width="2.7579978864443744e-3" y="-0.3673383315733896" height="0.7811480464625131"/></g></g></g><g class="axis"><g class="ticks"><g class="tickglyph"><g fill="#0d0d0d" stroke="#0d0d0d" stroke-width="4.0e-3" fill-opacity="0.4" stroke-opacity="0.4"><polyline points="-0.7953680348736669,0.4505947201689546
-0.7953680348736669,0.42059472016895455"/><polyline points="-0.5655348776699651,0.4505947201689546
-0.5655348776699651,0.42059472016895455"/><polyline points="-0.33570172046626323,0.4505947201689546
-0.33570172046626323,0.42059472016895455"/><polyline points="-0.10586856326256133,0.4505947201689546
-0.10586856326256133,0.42059472016895455"/><polyline points="0.12396459394114057,0.4505947201689546
0.12396459394114057,0.42059472016895455"/><polyline points="0.35379775114484247,0.4505947201689546
0.35379775114484247,0.42059472016895455"/><polyline points="0.5836309083485445,0.4505947201689546
0.5836309083485445,0.42059472016895455"/></g></g><g class="ticktext"><g fill="#0d0d0d" stroke="none" stroke-width="0.0" font-size="3.447497358055528e-2" fill-opacity="1.0" text-anchor="middle"><text x="-0.7953680348736669" y="0.485">-1.5</text><text x="-0.5655348776699651" y="0.485">-1.0</text><text x="-0.33570172046626323" y="0.485">-0.50</text><text x="-0.10586856326256133" y="0.485">0.0</text><text x="0.12396459394114057" y="0.485">0.50</text><text x="0.35379775114484247" y="0.485">1.0</text><text x="0.5836309083485445" y="0.485">1.5</text></g></g><g class="ticklines"><g fill="none" stroke="#0d0d0d" stroke-width="5.0e-3" stroke-opacity="5.0e-2"><polyline points="-0.7953680348736669,0.4122536430834213
-0.7953680348736669,-0.3657822597676875"/><polyline points="-0.5655348776699651,0.4122536430834213
-0.5655348776699651,-0.3657822597676875"/><polyline points="-0.33570172046626323,0.4122536430834213
-0.33570172046626323,-0.3657822597676875"/><polyline points="-0.10586856326256133,0.4122536430834213
-0.10586856326256133,-0.3657822597676875"/><polyline points="0.12396459394114057,0.4122536430834213
0.12396459394114057,-0.3657822597676875"/><polyline points="0.35379775114484247,0.4122536430834213
0.35379775114484247,-0.3657822597676875"/><polyline points="0.5836309083485445,0.4122536430834213
0.5836309083485445,-0.3657822597676875"/></g></g></g><g class="axisbar"><g fill="#0d0d0d" stroke="#000000" stroke-width="0.0" fill-opacity="0.4" stroke-opacity="0.0"><rect x="-0.7967470338168892" width="1.3817569411086554" y="0.4200340021119324" height="3.1121436114043832e-3"/></g></g></g><g class="legend"><g class="legendBorder"><g fill="#0d0d0d" stroke="#0d0d0d" stroke-width="2.5e-3" fill-opacity="0.0" stroke-opacity="1.0"><rect x="0.6586139758862521" width="0.2913135267556921" y="-0.35907170010559686" height="0.45515100316789886"/></g></g><g class="legendContent"><g fill="#0d0d0d" stroke="none" stroke-width="0.0" font-size="3.447497358055528e-2" fill-opacity="1.0" text-anchor="start"><text x="0.6758514626765297" y="6.495786694825767e-2">Bounding Box</text></g><g fill="#6666cc" stroke="#808080" stroke-width="2.5e-3" fill-opacity="0.1" stroke-opacity="1.0"><rect x="0.8964912935920839" width="1.7237486790277146e-2" y="4.55069693769799e-2" height="1.945089757127777e-2"/></g><g fill="#0d0d0d" stroke="none" stroke-width="0.0" font-size="3.447497358055528e-2" fill-opacity="1.0" text-anchor="start"><text x="0.6758514626765297" y="2.714994720168895e-3">Endpoints</text></g><g fill="#fa9999" stroke="#1f78b5" stroke-width="3.0e-3" fill-opacity="1.0" stroke-opacity="1.0"><rect x="0.8926100369872225" width="2.499999999999991e-2" y="-1.9510454065469907e-2" height="2.5e-2"/></g><g fill="#0d0d0d" stroke="none" stroke-width="0.0" font-size="3.447497358055528e-2" fill-opacity="1.0" text-anchor="start"><text x="0.6758514626765297" y="-5.952787750791977e-2">Centroid</text></g><g fill="#a6cfe3" stroke="#1f78b5" stroke-width="3.0e-3" fill-opacity="1.0" stroke-opacity="1.0"><circle cy="-6.925332629355863e-2" cx="0.9051100369872225" r="1.25e-2"/></g><g fill="#0d0d0d" stroke="none" stroke-width="0.0" font-size="3.447497358055528e-2" fill-opacity="1.0" text-anchor="start"><text x="0.6758514626765297" y="-0.12177074973600843">Arc</text></g><g fill="none" stroke="#1f78b5" stroke-width="5.0e-3" stroke-opacity="1.0"><polyline points="0.8964912935920839,-0.1314961985216474
0.9309662671726389,-0.1314961985216474"/></g><g fill="#0d0d0d" stroke="none" stroke-width="0.0" font-size="3.447497358055528e-2" fill-opacity="1.0" text-anchor="start"><text x="0.6758514626765297" y="-0.1840136219640971">Full Ellipse</text></g><g fill="none" stroke="#a6cfe3" stroke-width="2.0e-3" stroke-opacity="1.0"><polyline points="0.8964912935920839,-0.19373907074973606
0.9309662671726389,-0.19373907074973606"/></g><g fill="#0d0d0d" stroke="none" stroke-width="0.0" font-size="3.447497358055528e-2" fill-opacity="1.0" text-anchor="start"><text x="0.6758514626765297" y="-0.24625649419218587">Minor Axis</text></g><g fill="none" stroke="#e6e605" stroke-dasharray="3.0e-2 1.0e-2" stroke-linecap="round" stroke-width="5.0e-3" stroke-opacity="1.0"><polyline points="0.8964912935920839,-0.25598194297782484
0.9309662671726389,-0.25598194297782484"/></g><g fill="#0d0d0d" stroke="none" stroke-width="0.0" font-size="3.447497358055528e-2" fill-opacity="1.0" text-anchor="start"><text x="0.6758514626765297" y="-0.30849936642027465">Major Axis</text></g><g fill="none" stroke="#e63305" stroke-dasharray="3.0e-2 1.0e-2" stroke-linecap="round" stroke-width="5.0e-3" stroke-opacity="1.0"><polyline points="0.8964912935920839,-0.3182248152059134
0.9309662671726389,-0.3182248152059134"/></g></g></g><g class="title"><g fill="#0d0d0d" stroke="none" stroke-width="0.0" font-size="5.515995772888846e-2" fill-opacity="1.0" text-anchor="middle"><text x="1.7465654721875334e-2" y="-0.43600000000000005">ArcPosition (Point 1 0) (Point 0 1) (ArcInfo (Point 1.5 1) (pi / 3) True True)</text></g></g></g></svg>