<svg height="300" viewBox="-1.0 -0.5 2.0 1.0" width="600" xmlns="http://www.w3.org/2000/svg" xmlns:xlink="http://www.w3.org/1999/xlink"><style>svg {
  color-scheme: light dark;
}
{
  .canvas g, .title g, .axisbar g, .ticktext g, .tickglyph g, .ticklines g, .legendContent g text {
    fill: rgb(5%, 5%, 5%);
  }
  .ticklines g, .tickglyph g, .legendBorder g {
    stroke: rgb(5%, 5%, 5%);
  }
  .legendBorder g {
    fill: rgb(94%, 94%, 94%);
  }
}
@media (prefers-color-scheme:dark) {
  .canvas g, .title g, .axisbar g, .ticktext g, .tickglyph g, .ticklines g, .legendContent g text {
    fill: rgb(94%, 94%, 94%);
  }
  .ticklines g, .tickglyph g, .legendBorder g {
    stroke: rgb(94%, 94%, 94%);
  }
  .legendBorder g {
    fill: rgb(5%, 5%, 5%);
  }
}</style><g class="chart"><g class="ellipse"><g fill="none" stroke="rgb(66%, 7%, 55%)" stroke-opacity="1.0" stroke-width="0.0050"><polyline points="0.3339,-0.0362 0.3311,-0.0225 0.3272,-0.0087 0.3221,0.0053 0.3158,0.0193 0.3084,0.0333 0.2998,0.0474 0.2901,0.0614 0.2794,0.0754 0.2676,0.0894 0.2547,0.1032 0.2408,0.1168 0.2260,0.1303 0.2102,0.1436 0.1935,0.1567 0.1759,0.1695 0.1575,0.1820 0.1383,0.1941 0.1183,0.2060 0.0977,0.2174 0.0764,0.2285 0.0544,0.2391 0.0320,0.2493 0.0090,0.2590 -0.0145,0.2682 -0.0383,0.2769 -0.0625,0.2851 -0.0870,0.2927 -0.1117,0.2998 -0.1366,0.3062 -0.1616,0.3121 -0.1867,0.3173 -0.2118,0.3219 -0.2369,0.3259 -0.2619,0.3292 -0.2867,0.3319 -0.3113,0.3340 -0.3357,0.3353 -0.3597,0.3360 -0.3833,0.3360 -0.4065,0.3354 -0.4293,0.3341 -0.4515,0.3321 -0.4731,0.3295 -0.4941,0.3262 -0.5144,0.3223 -0.5340,0.3177 -0.5528,0.3125 -0.5708,0.3067 -0.5879,0.3003 -0.6042,0.2933 -0.6195,0.2858 -0.6339,0.2776 -0.6473,0.2690 -0.6596,0.2598 -0.6709,0.2501 -0.6812,0.2400 -0.6903,0.2294 -0.6983,0.2184 -0.7051,0.2070 -0.7108,0.1952 -0.7154,0.1830 -0.7187,0.1705 -0.7209,0.1578 -0.7219,0.1447 -0.7217,0.1315 -0.7203,0.1180 -0.7177,0.1043 -0.7139,0.0905 -0.7090,0.0766 -0.7028,0.0626 -0.6956,0.0486 -0.6872,0.0345 -0.6777,0.0205 -0.6671,0.0064 -0.6554,-0.0075 -0.6427,-0.0213 -0.6289,-0.0350 -0.6142,-0.0485 -0.5986,-0.0618 -0.5820,-0.0749 -0.5645,-0.0878 -0.5462,-0.1003 -0.5271,-0.1125 -0.5073,-0.1244 -0.4867,-0.1359 -0.4655,-0.1471 -0.4437,-0.1577 -0.4213,-0.1680 -0.3984,-0.1778 -0.3750,-0.1871 -0.3512,-0.1958 -0.3271,-0.2041 -0.3027,-0.2118 -0.2780,-0.2189 -0.2531,-0.2255 -0.2281,-0.2314 -0.2030,-0.2367 -0.1778,-0.2414 -0.1528,-0.2455 -0.1278,-0.2489"/></g><g fill="none" stroke="rgb(2%, 29%, 48%)" stroke-opacity="1.0" stroke-width="0.0020"><polyline points="0.1532,-0.2365 0.1274,-0.2426 0.1004,-0.2476 0.0722,-0.2515 0.0429,-0.2543 0.0127,-0.2558 -0.0183,-0.2562 -0.0500,-0.2555 -0.0822,-0.2535 -0.1149,-0.2505 -0.1479,-0.2462 -0.1811,-0.2409 -0.2143,-0.2344 -0.2475,-0.2268 -0.2804,-0.2182 -0.3130,-0.2086 -0.3451,-0.1980 -0.3766,-0.1865 -0.4074,-0.1740 -0.4373,-0.1607 -0.4663,-0.1467 -0.4942,-0.1319 -0.5209,-0.1164 -0.5463,-0.1003 -0.5703,-0.0836 -0.5929,-0.0665 -0.6138,-0.0489 -0.6331,-0.0310 -0.6507,-0.0128 -0.6664,0.0056 -0.6803,0.0242 -0.6923,0.0428 -0.7022,0.0614 -0.7102,0.0799 -0.7162,0.0982 -0.7200,0.1163 -0.7218,0.1341 -0.7215,0.1516 -0.7191,0.1686 -0.7147,0.1851 -0.7082,0.2010 -0.6996,0.2163 -0.6891,0.2309 -0.6766,0.2447 -0.6622,0.2578 -0.6459,0.2699 -0.6278,0.2812 -0.6081,0.2915 -0.5867,0.3008 -0.5637,0.3091 -0.5393,0.3163 -0.5135,0.3225 -0.4865,0.3275 -0.4582,0.3314 -0.4290,0.3341 -0.3988,0.3357 -0.3678,0.3361 -0.3361,0.3353 -0.3038,0.3334 -0.2712,0.3303 -0.2382,0.3261 -0.2050,0.3207 -0.1717,0.3143 -0.1386,0.3067 -0.1057,0.2981 -0.0731,0.2885 -0.0410,0.2779 -0.0095,0.2663 0.0213,0.2539 0.0512,0.2406 0.0802,0.2265 0.1081,0.2117 0.1348,0.1962 0.1602,0.1801 0.1843,0.1635 0.2068,0.1463 0.2277,0.1288 0.2470,0.1108 0.2646,0.0926 0.2803,0.0742 0.2942,0.0557 0.3062,0.0371 0.3162,0.0185 0.3241,0 0.3301,-0.0183 0.3340,-0.0365 0.3358,-0.0543 0.3355,-0.0717 0.3331,-0.0887 0.3286,-0.1052 0.3221,-0.1212 0.3136,-0.1364 0.3030,-0.1510 0.2905,-0.1649 0.2761,-0.1779 0.2598,-0.1901 0.2418,-0.2013 0.2220,-0.2117 0.2006,-0.2210 0.1776,-0.2293 0.1532,-0.2365"/></g><g fill="rgb(2%, 73%, 80%)" fill-opacity="0.2" stroke="rgb(2%, 29%, 48%)" stroke-opacity="1.0" stroke-width="0.0030"><circle cx="-0.1930" cy="0.0399" r="0.0150"/></g><g fill="rgb(100%, 71%, 35%)" fill-opacity="0.2" stroke="rgb(2%, 29%, 48%)" stroke-opacity="1.0" stroke-width="0.0030"><rect height="0.0300" width="0.0300" x="0.3189" y="-0.0512"/><rect height="0.0300" width="0.0300" x="-0.1428" y="-0.2639"/></g><g fill="rgb(53%, 51%, 28%)" fill-opacity="0.00" stroke="rgb(50%, 50%, 50%)" stroke-opacity="1.0" stroke-width="0.0020"><rect height="0.5851" width="1.0559" x="-0.7220" y="-0.2489"/></g><g fill="none" stroke="rgb(21%, 29%, 7%)" stroke-dasharray="0.0300 0.0100" stroke-linecap="round" stroke-opacity="1.0" stroke-width="0.0050"><polyline points="0.1532,-0.2365 -0.5393,0.3163"/></g><g fill="none" stroke="rgb(73%, 34%, 1%)" stroke-dasharray="0.0300 0.0100" stroke-linecap="round" stroke-opacity="1.0" stroke-width="0.0050"><polyline points="-0.5929,-0.0665 0.2068,0.1463"/></g></g></g><g class="hud"><g class="frame"><g fill="rgb(100%, 100%, 100%)" fill-opacity="0.02" stroke="rgb(0%, 0%, 0%)" stroke-opacity="0" stroke-width="0"><rect height="0.7447" width="1.3850" x="-0.8203" y="-0.3553"/></g></g><g class="axis"><g class="ticks"><g class="tickglyph"><g fill="rgb(5%, 5%, 5%)" fill-opacity="0.4" stroke="rgb(5%, 5%, 5%)" stroke-opacity="0.4" stroke-width="0.0040"><g transform="rotate(-90.0, -0.8411, 0.3894)"><polyline points="-0.8411,0.4044
-0.8411,0.3744"/></g><g transform="rotate(-90.0, -0.8411, 0.2830)"><polyline points="-0.8411,0.2980
-0.8411,0.2680"/></g><g transform="rotate(-90.0, -0.8411, 0.1766)"><polyline points="-0.8411,0.1916
-0.8411,0.1616"/></g><g transform="rotate(-90.0, -0.8411, 0.0702)"><polyline points="-0.8411,0.0852
-0.8411,0.0552"/></g><g transform="rotate(-90.0, -0.8411, -0.0362)"><polyline points="-0.8411,-0.0212
-0.8411,-0.0512"/></g><g transform="rotate(-90.0, -0.8411, -0.1426)"><polyline points="-0.8411,-0.1276
-0.8411,-0.1576"/></g><g transform="rotate(-90.0, -0.8411, -0.2489)"><polyline points="-0.8411,-0.2339
-0.8411,-0.2639"/></g><g transform="rotate(-90.0, -0.8411, -0.3553)"><polyline points="-0.8411,-0.3403
-0.8411,-0.3703"/></g></g></g><g class="ticktext"><g fill="rgb(5%, 5%, 5%)" fill-opacity="1.0" font-size="0.0346" stroke="none" stroke-width="0.0" text-anchor="end"><text x="-0.8660" y="0.3996">-2.00</text><text x="-0.8660" y="0.2933">-1.50</text><text x="-0.8660" y="0.1869">-1.00</text><text x="-0.8660" y="0.0805">-0.50</text><text x="-0.8660" y="-0.0259"> 0.00</text><text x="-0.8660" y="-0.1323"> 0.50</text><text x="-0.8660" y="-0.2387"> 1.00</text><text x="-0.8660" y="-0.3451"> 1.50</text></g></g><g class="ticklines"><g fill="none" stroke="rgb(5%, 5%, 5%)" stroke-opacity="0.05" stroke-width="0.0050"><polyline points="-0.8203,0.3894 0.5648,0.3894"/><polyline points="-0.8203,0.2830 0.5648,0.2830"/><polyline points="-0.8203,0.1766 0.5648,0.1766"/><polyline points="-0.8203,0.0702 0.5648,0.0702"/><polyline points="-0.8203,-0.0362 0.5648,-0.0362"/><polyline points="-0.8203,-0.1426 0.5648,-0.1426"/><polyline points="-0.8203,-0.2489 0.5648,-0.2489"/><polyline points="-0.8203,-0.3553 0.5648,-0.3553"/></g></g></g><g class="axisbar"><g fill="rgb(5%, 5%, 5%)" fill-opacity="0.4" stroke="rgb(0%, 0%, 0%)" stroke-opacity="0" stroke-width="0"><rect height="0.7477" width="0.0028" x="-0.8300" y="-0.3568"/></g></g></g><g class="axis"><g class="ticks"><g class="tickglyph"><g fill="rgb(5%, 5%, 5%)" fill-opacity="0.4" stroke="rgb(5%, 5%, 5%)" stroke-opacity="0.4" stroke-width="0.0040"><polyline points="-0.8203,0.4267
-0.8203,0.3967"/><polyline points="-0.5895,0.4267
-0.5895,0.3967"/><polyline points="-0.3586,0.4267
-0.3586,0.3967"/><polyline points="-0.1278,0.4267
-0.1278,0.3967"/><polyline points="0.1031,0.4267
0.1031,0.3967"/><polyline points="0.3339,0.4267
0.3339,0.3967"/><polyline points="0.5648,0.4267
0.5648,0.3967"/></g></g><g class="ticktext"><g fill="rgb(5%, 5%, 5%)" fill-opacity="1.0" font-size="0.0346" stroke="none" stroke-width="0.0" text-anchor="middle"><text x="-0.8203" y="0.4590">-2.0</text><text x="-0.5895" y="0.4590">-1.0</text><text x="-0.3586" y="0.4590">-0.5</text><text x="-0.1278" y="0.4590"> 0.0</text><text x="0.1031" y="0.4590"> 0.5</text><text x="0.3339" y="0.4590"> 1.0</text><text x="0.5648" y="0.4590"> 2.0</text></g></g><g class="ticklines"><g fill="none" stroke="rgb(5%, 5%, 5%)" stroke-opacity="0.05" stroke-width="0.0050"><polyline points="-0.8203,0.3894 -0.8203,-0.3553"/><polyline points="-0.5895,0.3894 -0.5895,-0.3553"/><polyline points="-0.3586,0.3894 -0.3586,-0.3553"/><polyline points="-0.1278,0.3894 -0.1278,-0.3553"/><polyline points="0.1031,0.3894 0.1031,-0.3553"/><polyline points="0.3339,0.3894 0.3339,-0.3553"/><polyline points="0.5648,0.3894 0.5648,-0.3553"/></g></g></g><g class="axisbar"><g fill="rgb(5%, 5%, 5%)" fill-opacity="0.4" stroke="rgb(0%, 0%, 0%)" stroke-opacity="0" stroke-width="0"><rect height="0.0030" width="1.3878" x="-0.8217" y="0.3969"/></g></g></g><g class="legend"><g class="legendBorder"><g fill="rgb(5%, 5%, 5%)" fill-opacity="0" stroke="rgb(5%, 5%, 5%)" stroke-opacity="1.0" stroke-width="0.0025"><rect height="0.4357" width="0.2926" x="0.6479" y="-0.3489"/></g></g><g class="legendContent"><g fill="rgb(5%, 5%, 5%)" fill-opacity="1.0" font-size="0.0346" stroke="none" stroke-width="0.0" text-anchor="start"><text x="0.6652" y="0.0570">Bounding Box</text></g><g fill="rgb(53%, 51%, 28%)" fill-opacity="0.00" stroke="rgb(50%, 50%, 50%)" stroke-opacity="1.0" stroke-width="0.0025"><rect height="0.0186" width="0.0173" x="0.8868" y="0.0384"/></g><g fill="rgb(5%, 5%, 5%)" fill-opacity="1.0" font-size="0.0346" stroke="none" stroke-width="0.0" text-anchor="start"><text x="0.6652" y="-0.0026">Endpoints</text></g><g fill="rgb(100%, 71%, 35%)" fill-opacity="0.2" stroke="rgb(2%, 29%, 48%)" stroke-opacity="1.0" stroke-width="0.0030"><rect height="0.0250" width="0.0250" x="0.8829" y="-0.0244"/></g><g fill="rgb(5%, 5%, 5%)" fill-opacity="1.0" font-size="0.0346" stroke="none" stroke-width="0.0" text-anchor="start"><text x="0.6652" y="-0.0622">Centroid</text></g><g fill="rgb(2%, 73%, 80%)" fill-opacity="0.2" stroke="rgb(2%, 29%, 48%)" stroke-opacity="1.0" stroke-width="0.0030"><circle cx="0.8954" cy="-0.0715" r="0.0125"/></g><g fill="rgb(5%, 5%, 5%)" fill-opacity="1.0" font-size="0.0346" stroke="none" stroke-width="0.0" text-anchor="start"><text x="0.6652" y="-0.1218">Arc</text></g><g fill="none" stroke="rgb(66%, 7%, 55%)" stroke-opacity="1.0" stroke-width="0.0050"><polyline points="0.8868,-0.1311 0.9214,-0.1311"/></g><g fill="rgb(5%, 5%, 5%)" fill-opacity="1.0" font-size="0.0346" stroke="none" stroke-width="0.0" text-anchor="start"><text x="0.6652" y="-0.1813">Full Ellipse</text></g><g fill="none" stroke="rgb(2%, 29%, 48%)" stroke-opacity="1.0" stroke-width="0.0020"><polyline points="0.8868,-0.1907 0.9214,-0.1907"/></g><g fill="rgb(5%, 5%, 5%)" fill-opacity="1.0" font-size="0.0346" stroke="none" stroke-width="0.0" text-anchor="start"><text x="0.6652" y="-0.2409">Minor Axis</text></g><g fill="none" stroke="rgb(73%, 34%, 1%)" stroke-dasharray="0.0300 0.0100" stroke-linecap="round" stroke-opacity="1.0" stroke-width="0.0050"><polyline points="0.8868,-0.2502 0.9214,-0.2502"/></g><g fill="rgb(5%, 5%, 5%)" fill-opacity="1.0" font-size="0.0346" stroke="none" stroke-width="0.0" text-anchor="start"><text x="0.6652" y="-0.3005">Major Axis</text></g><g fill="none" stroke="rgb(21%, 29%, 7%)" stroke-dasharray="0.0300 0.0100" stroke-linecap="round" stroke-opacity="1.0" stroke-width="0.0050"><polyline points="0.8868,-0.3098 0.9214,-0.3098"/></g></g></g><g class="title"><g fill="rgb(5%, 5%, 5%)" fill-opacity="1.0" font-size="0.0554" stroke="none" stroke-width="0.0" text-anchor="middle"><text x="0" y="-0.4225">ArcPosition (Point 1 0) (Point 0 1) (ArcInfo (Point 1.5 1) (pi / 3) True True)</text></g></g><g class="frame"><g fill="rgb(100%, 100%, 100%)" fill-opacity="0.02" stroke="rgb(0%, 0%, 0%)" stroke-opacity="0" stroke-width="0"><rect height="1.0" width="2.0" x="-1.0" y="-0.5"/></g></g></g></svg>