<svg height="300.00" viewBox="-0.95448 -0.48030 1.9436 0.97568" width="597.61" xmlns="http://www.w3.org/2000/svg" xmlns:xlink="http://www.w3.org/1999/xlink"><style>svg {
  color-scheme: light dark;
}
{
  .canvas g, .title g, .axisbar g, .ticktext g, .tickglyph g, .ticklines g, .legendContent g text {
    fill: rgba(5%, 5%, 5%, 1.00);
  }
  .ticklines g, .tickglyph g, .legendBorder g {
    stroke: rgba(5%, 5%, 5%, 1.00);
  }
  .legendBorder g {
    fill: rgba(94%, 94%, 94%, 1.00);
  }
}
@media (prefers-color-scheme:dark) {
  .canvas g, .title g, .axisbar g, .ticktext g, .tickglyph g, .ticklines g, .legendContent g text {
    fill: rgba(94%, 94%, 94%, 1.00);
  }
  .ticklines g, .tickglyph g, .legendBorder g {
    stroke: rgba(94%, 94%, 94%, 1.00);
  }
  .legendBorder g {
    fill: rgba(5%, 5%, 5%, 1.00);
  }
}</style><g class="chart"><g class="ellipse"><g fill="none" stroke="rgba(66%, 7%, 55%, 1.00)" stroke-width="0.0050000"><polyline points="0.34716,-0.032338 0.34440,-0.018051 0.34045,-0.0036164 0.33534,0.010933 0.32906,0.025563 0.32164,0.040243 0.31308,0.054938 0.30341,0.069615 0.29266,0.084242 0.28084,0.098785 0.26798,0.11321 0.25411,0.12749 0.23927,0.14159 0.22348,0.15547 0.20678,0.16911 0.18921,0.18247 0.17081,0.19553 0.15161,0.20826 0.13167,0.22062 0.11103,0.23259 0.089737,0.24414 0.067834,0.25525 0.045372,0.26588 0.022404,0.27603 -0.0010202,0.28566 -0.024847,0.29475 -0.049022,0.30328 -0.073492,0.31123 -0.098201,0.31859 -0.12309,0.32534 -0.14811,0.33146 -0.17320,0.33693 -0.19831,0.34176 -0.22337,0.34592 -0.24833,0.34940 -0.27314,0.35221 -0.29774,0.35432 -0.32207,0.35575 -0.34608,0.35647 -0.36971,0.35650 -0.39291,0.35584 -0.41564,0.35447 -0.43783,0.35241 -0.45943,0.34967 -0.48041,0.34624 -0.50071,0.34214 -0.52028,0.33737 -0.53909,0.33195 -0.55708,0.32588 -0.57422,0.31919 -0.59047,0.31188 -0.60580,0.30398 -0.62016,0.29549 -0.63353,0.28645 -0.64587,0.27687 -0.65717,0.26676 -0.66738,0.25617 -0.67650,0.24510 -0.68449,0.23358 -0.69135,0.22165 -0.69705,0.20932 -0.70159,0.19662 -0.70494,0.18359 -0.70711,0.17025 -0.70810,0.15664 -0.70789,0.14277 -0.70648,0.12869 -0.70389,0.11443 -0.70012,0.10001 -0.69517,0.085480 -0.68906,0.070859 -0.68180,0.056184 -0.67341,0.041490 -0.66390,0.026808 -0.65330,0.012171 -0.64163,-0.0023857 -0.62892,-0.016831 -0.61520,-0.031132 -0.60049,-0.045257 -0.58483,-0.059173 -0.56826,-0.072850 -0.55082,-0.086255 -0.53253,-0.099360 -0.51345,-0.11213 -0.49362,-0.12455 -0.47307,-0.13658 -0.45187,-0.14819 -0.43005,-0.15936 -0.40767,-0.17007 -0.38477,-0.18029 -0.36141,-0.18999 -0.33763,-0.19916 -0.31351,-0.20777 -0.28908,-0.21581 -0.26440,-0.22326 -0.23953,-0.23009 -0.21452,-0.23630 -0.18944,-0.24188 -0.16433,-0.24679 -0.13926,-0.25105 -0.11428,-0.25463"/></g><g fill="none" stroke="rgba(2%, 29%, 48%, 1.00)" stroke-width="0.0020000"><polyline points="0.16657,-0.24162 0.14079,-0.24803 0.11375,-0.25327 0.085558,-0.25733 0.056315,-0.26019 0.026141,-0.26183 -0.0048437,-0.26225 -0.036518,-0.26146 -0.068757,-0.25944 -0.10143,-0.25622 -0.13442,-0.25180 -0.16758,-0.24620 -0.20079,-0.23944 -0.23391,-0.23155 -0.26682,-0.22256 -0.29939,-0.21250 -0.33148,-0.20142 -0.36298,-0.18936 -0.39374,-0.17637 -0.42367,-0.16249 -0.45263,-0.14779 -0.48051,-0.13232 -0.50720,-0.11614 -0.53260,-0.099310 -0.55661,-0.081906 -0.57913,-0.063994 -0.60007,-0.045642 -0.61936,-0.026925 -0.63690,-0.0079145 -0.65264,0.011313 -0.66652,0.030682 -0.67847,0.050115 -0.68845,0.069537 -0.69643,0.088871 -0.70236,0.10804 -0.70623,0.12697 -0.70802,0.14558 -0.70773,0.16381 -0.70535,0.18157 -0.70090,0.19881 -0.69439,0.21544 -0.68584,0.23142 -0.67530,0.24666 -0.66280,0.26112 -0.64840,0.27473 -0.63214,0.28745 -0.61410,0.29921 -0.59434,0.30998 -0.57295,0.31972 -0.55000,0.32838 -0.52559,0.33593 -0.49982,0.34233 -0.47278,0.34758 -0.44458,0.35164 -0.41534,0.35449 -0.38516,0.35614 -0.35418,0.35656 -0.32250,0.35577 -0.29027,0.35375 -0.25759,0.35053 -0.22461,0.34611 -0.19144,0.34050 -0.15824,0.33375 -0.12511,0.32586 -0.092200,0.31686 -0.059634,0.30681 -0.027541,0.29573 0.0039520,0.28367 0.034721,0.27068 0.064644,0.25680 0.093604,0.24210 0.12149,0.22662 0.14818,0.21044 0.17358,0.19362 0.19759,0.17622 0.22011,0.15830 0.24105,0.13995 0.26033,0.12123 0.27788,0.10222 0.29362,0.082996 0.30749,0.063627 0.31945,0.044194 0.32943,0.024771 0.33740,0.0054377 0.34334,-0.013731 0.34721,-0.032660 0.34900,-0.051274 0.34871,-0.069499 0.34633,-0.087264 0.34188,-0.10450 0.33536,-0.12114 0.32682,-0.13711 0.31628,-0.15235 0.30378,-0.16681 0.28938,-0.18042 0.27312,-0.19314 0.25508,-0.20490 0.23532,-0.21567 0.21393,-0.22541 0.19098,-0.23407 0.16657,-0.24162"/></g><g fill="rgba(2%, 73%, 80%, 0.20)" stroke="rgba(2%, 29%, 48%, 1.00)" stroke-width="0.0030000"><circle cx="-0.17951" cy="0.047154" r="0.015000"/></g><g fill="rgba(100%, 71%, 35%, 0.20)" stroke="rgba(2%, 29%, 48%, 1.00)" stroke-width="0.0030000"><rect height="0.030000" width="0.030000" x="0.33216" y="-0.047338"/><rect height="0.030000" width="0.030000" x="-0.12928" y="-0.26963"/></g><g fill="rgba(53%, 51%, 28%, 0.00)" stroke="rgba(50%, 50%, 50%, 1.00)" stroke-width="0.0020000"><rect height="0.61121" width="1.0553" x="-0.70816" y="-0.25463"/></g><g fill="none" stroke="rgba(21%, 29%, 7%, 1.00)" stroke-dasharray="0.030000 0.010000" stroke-linecap="round" stroke-width="0.0050000"><polyline points="0.16657,-0.24162 -0.52559,0.33593"/></g><g fill="none" stroke="rgba(73%, 34%, 1%, 1.00)" stroke-dasharray="0.030000 0.010000" stroke-linecap="round" stroke-width="0.0050000"><polyline points="-0.57913,-0.063994 0.22011,0.15830"/></g></g></g><g class="hud"><g class="frame"><g fill="rgba(100%, 100%, 100%, 0.02)" stroke="rgba(0%, 0%, 0%, 0.00)" stroke-width="0.0000"><rect height="0.77804" width="1.3843" x="-0.80644" y="-0.36578"/></g></g><g class="axis"><g class="ticks"><g class="tickglyph"><g fill="rgba(5%, 5%, 5%, 0.40)" stroke="rgba(5%, 5%, 5%, 0.40)" stroke-width="0.0040000"><g transform="rotate(-90.000, -0.82721, 0.41225)"><polyline points="-0.82721,0.42725
-0.82721,0.39725"/></g><g transform="rotate(-90.000, -0.82721, 0.30111)"><polyline points="-0.82721,0.31611
-0.82721,0.28611"/></g><g transform="rotate(-90.000, -0.82721, 0.18996)"><polyline points="-0.82721,0.20496
-0.82721,0.17496"/></g><g transform="rotate(-90.000, -0.82721, 0.078810)"><polyline points="-0.82721,0.093810
-0.82721,0.063810"/></g><g transform="rotate(-90.000, -0.82721, -0.032338)"><polyline points="-0.82721,-0.017338
-0.82721,-0.047338"/></g><g transform="rotate(-90.000, -0.82721, -0.14349)"><polyline points="-0.82721,-0.12849
-0.82721,-0.15849"/></g><g transform="rotate(-90.000, -0.82721, -0.25463)"><polyline points="-0.82721,-0.23963
-0.82721,-0.26963"/></g><g transform="rotate(-90.000, -0.82721, -0.36578)"><polyline points="-0.82721,-0.35078
-0.82721,-0.38078"/></g></g></g><g class="ticktext"><g fill="rgba(5%, 5%, 5%, 1.00)" font-size="0.034608" stroke="none" stroke-width="0.0" text-anchor="end"><text x="-0.85212" y="0.42295">-2.00</text><text x="-0.85212" y="0.31180">-1.50</text><text x="-0.85212" y="0.20066">-1.00</text><text x="-0.85212" y="0.089508">-0.50</text><text x="-0.85212" y="-0.021640"> 0.00</text><text x="-0.85212" y="-0.13279"> 0.50</text><text x="-0.85212" y="-0.24394"> 1.00</text><text x="-0.85212" y="-0.35508"> 1.50</text></g></g><g class="ticklines"><g fill="none" stroke="rgba(5%, 5%, 5%, 0.05)" stroke-width="0.0050000"><polyline points="-0.80644,0.41225 0.57788,0.41225"/><polyline points="-0.80644,0.30111 0.57788,0.30111"/><polyline points="-0.80644,0.18996 0.57788,0.18996"/><polyline points="-0.80644,0.078810 0.57788,0.078810"/><polyline points="-0.80644,-0.032338 0.57788,-0.032338"/><polyline points="-0.80644,-0.14349 0.57788,-0.14349"/><polyline points="-0.80644,-0.25463 0.57788,-0.25463"/><polyline points="-0.80644,-0.36578 0.57788,-0.36578"/></g></g></g><g class="axisbar"><g fill="rgba(5%, 5%, 5%, 0.40)" stroke="rgba(0%, 0%, 0%, 0.00)" stroke-width="0.0000"><rect height="0.78115" width="0.0027686" x="-0.81613" y="-0.36734"/></g></g></g><g class="axis"><g class="ticks"><g class="tickglyph"><g fill="rgba(5%, 5%, 5%, 0.40)" stroke="rgba(5%, 5%, 5%, 0.40)" stroke-width="0.0040000"><polyline points="-0.80644,0.45059
-0.80644,0.42059"/><polyline points="-0.57572,0.45059
-0.57572,0.42059"/><polyline points="-0.34500,0.45059
-0.34500,0.42059"/><polyline points="-0.11428,0.45059
-0.11428,0.42059"/><polyline points="0.11644,0.45059
0.11644,0.42059"/><polyline points="0.34716,0.45059
0.34716,0.42059"/><polyline points="0.57788,0.45059
0.57788,0.42059"/></g></g><g class="ticktext"><g fill="rgba(5%, 5%, 5%, 1.00)" font-size="0.034608" stroke="none" stroke-width="0.0" text-anchor="middle"><text x="-0.80644" y="0.48500">-1.50</text><text x="-0.57572" y="0.48500">-1.00</text><text x="-0.34500" y="0.48500">-0.50</text><text x="-0.11428" y="0.48500"> 0.00</text><text x="0.11644" y="0.48500"> 0.50</text><text x="0.34716" y="0.48500"> 1.00</text><text x="0.57788" y="0.48500"> 1.50</text></g></g><g class="ticklines"><g fill="none" stroke="rgba(5%, 5%, 5%, 0.05)" stroke-width="0.0050000"><polyline points="-0.80644,0.41225 -0.80644,-0.36578"/><polyline points="-0.57572,0.41225 -0.57572,-0.36578"/><polyline points="-0.34500,0.41225 -0.34500,-0.36578"/><polyline points="-0.11428,0.41225 -0.11428,-0.36578"/><polyline points="0.11644,0.41225 0.11644,-0.36578"/><polyline points="0.34716,0.41225 0.34716,-0.36578"/><polyline points="0.57788,0.41225 0.57788,-0.36578"/></g></g></g><g class="axisbar"><g fill="rgba(5%, 5%, 5%, 0.40)" stroke="rgba(0%, 0%, 0%, 0.00)" stroke-width="0.0000"><rect height="0.0031121" width="1.3871" x="-0.80783" y="0.42003"/></g></g></g><g class="legend"><g class="legendBorder"><g fill="rgba(5%, 5%, 5%, 0.00)" stroke="rgba(5%, 5%, 5%, 1.00)" stroke-width="0.0025000"><rect height="0.45515" width="0.29244" x="0.66873" y="-0.35907"/></g></g><g class="legendContent"><g fill="rgba(5%, 5%, 5%, 1.00)" font-size="0.034608" stroke="none" stroke-width="0.0" text-anchor="start"><text x="0.68603" y="0.064958">Bounding Box</text></g><g fill="rgba(53%, 51%, 28%, 0.00)" stroke="rgba(50%, 50%, 50%, 1.00)" stroke-width="0.0025000"><rect height="0.019451" width="0.017304" x="0.90752" y="0.045507"/></g><g fill="rgba(5%, 5%, 5%, 1.00)" font-size="0.034608" stroke="none" stroke-width="0.0" text-anchor="start"><text x="0.68603" y="0.0027150">Endpoints</text></g><g fill="rgba(100%, 71%, 35%, 0.20)" stroke="rgba(2%, 29%, 48%, 1.00)" stroke-width="0.0030000"><rect height="0.025000" width="0.025000" x="0.90367" y="-0.019510"/></g><g fill="rgba(5%, 5%, 5%, 1.00)" font-size="0.034608" stroke="none" stroke-width="0.0" text-anchor="start"><text x="0.68603" y="-0.059528">Centroid</text></g><g fill="rgba(2%, 73%, 80%, 0.20)" stroke="rgba(2%, 29%, 48%, 1.00)" stroke-width="0.0030000"><circle cx="0.91617" cy="-0.069253" r="0.012500"/></g><g fill="rgba(5%, 5%, 5%, 1.00)" font-size="0.034608" stroke="none" stroke-width="0.0" text-anchor="start"><text x="0.68603" y="-0.12177">Arc</text></g><g fill="none" stroke="rgba(66%, 7%, 55%, 1.00)" stroke-width="0.0050000"><polyline points="0.90752,-0.13150 0.94213,-0.13150"/></g><g fill="rgba(5%, 5%, 5%, 1.00)" font-size="0.034608" stroke="none" stroke-width="0.0" text-anchor="start"><text x="0.68603" y="-0.18401">Full Ellipse</text></g><g fill="none" stroke="rgba(2%, 29%, 48%, 1.00)" stroke-width="0.0020000"><polyline points="0.90752,-0.19374 0.94213,-0.19374"/></g><g fill="rgba(5%, 5%, 5%, 1.00)" font-size="0.034608" stroke="none" stroke-width="0.0" text-anchor="start"><text x="0.68603" y="-0.24626">Minor Axis</text></g><g fill="none" stroke="rgba(73%, 34%, 1%, 1.00)" stroke-dasharray="0.030000 0.010000" stroke-linecap="round" stroke-width="0.0050000"><polyline points="0.90752,-0.25598 0.94213,-0.25598"/></g><g fill="rgba(5%, 5%, 5%, 1.00)" font-size="0.034608" stroke="none" stroke-width="0.0" text-anchor="start"><text x="0.68603" y="-0.30850">Major Axis</text></g><g fill="none" stroke="rgba(21%, 29%, 7%, 1.00)" stroke-dasharray="0.030000 0.010000" stroke-linecap="round" stroke-width="0.0050000"><polyline points="0.90752,-0.31822 0.94213,-0.31822"/></g></g></g><g class="title"><g fill="rgba(5%, 5%, 5%, 1.00)" font-size="0.055373" stroke="none" stroke-width="0.0" text-anchor="middle"><text x="0.017316" y="-0.43600">ArcPosition (Point 1 0) (Point 0 1) (ArcInfo (Point 1.5 1) (pi / 3) True True)</text></g></g></g></svg>