<svg height="300" viewBox="-0.7046 -0.4693 1.4632 0.9622" width="456" xmlns="http://www.w3.org/2000/svg" xmlns:xlink="http://www.w3.org/1999/xlink"><style>svg {
  color-scheme: light dark;
}
{
  .canvas g, .title g, .axisbar g, .ticktext g, .tickglyph g, .ticklines g, .legendContent g text {
    fill: rgb(5%, 5%, 5%);
  }
  .ticklines g, .tickglyph g, .legendBorder g {
    stroke: rgb(5%, 5%, 5%);
  }
  .legendBorder g {
    fill: rgb(94%, 94%, 94%);
  }
}
@media (prefers-color-scheme:dark) {
  .canvas g, .title g, .axisbar g, .ticktext g, .tickglyph g, .ticklines g, .legendContent g text {
    fill: rgb(94%, 94%, 94%);
  }
  .ticklines g, .tickglyph g, .legendBorder g {
    stroke: rgb(94%, 94%, 94%);
  }
  .legendBorder g {
    fill: rgb(5%, 5%, 5%);
  }
}</style><g class="chart"><g class="ellipse"><g fill="none" stroke="rgb(66%, 7%, 55%)" stroke-opacity="(1.0" stroke-width="0.0050"><polyline points="0.2261,-0.0323 0.2243,-0.0181 0.2218,-0.0036 0.2185,0.0109 0.2145,0.0256 0.2097,0.0402 0.2043,0.0549 0.1981,0.0696 0.1912,0.0842 0.1836,0.0988 0.1754,0.1132 0.1665,0.1275 0.1570,0.1416 0.1469,0.1555 0.1362,0.1691 0.1250,0.1825 0.1132,0.1955 0.1009,0.2083 0.0882,0.2206 0.0750,0.2326 0.0614,0.2441 0.0473,0.2552 0.0330,0.2659 0.0183,0.2760 0.0033,0.2857 -0.0120,0.2947 -0.0274,0.3033 -0.0431,0.3112 -0.0589,0.3186 -0.0748,0.3253 -0.0908,0.3315 -0.1069,0.3369 -0.1230,0.3418 -0.1390,0.3459 -0.1550,0.3494 -0.1709,0.3522 -0.1866,0.3543 -0.2022,0.3557 -0.2175,0.3565 -0.2326,0.3565 -0.2475,0.3558 -0.2620,0.3545 -0.2762,0.3524 -0.2901,0.3497 -0.3035,0.3462 -0.3165,0.3421 -0.3290,0.3374 -0.3410,0.3319 -0.3525,0.3259 -0.3635,0.3192 -0.3739,0.3119 -0.3837,0.3040 -0.3929,0.2955 -0.4015,0.2864 -0.4094,0.2769 -0.4166,0.2668 -0.4231,0.2562 -0.4290,0.2451 -0.4341,0.2336 -0.4385,0.2216 -0.4421,0.2093 -0.4450,0.1966 -0.4472,0.1836 -0.4485,0.1703 -0.4492,0.1566 -0.4490,0.1428 -0.4481,0.1287 -0.4465,0.1144 -0.4441,0.1000 -0.4409,0.0855 -0.4370,0.0709 -0.4324,0.0562 -0.4270,0.0415 -0.4209,0.0268 -0.4141,0.0122 -0.4066,-0.0024 -0.3985,-0.0168 -0.3897,-0.0311 -0.3803,-0.0453 -0.3703,-0.0592 -0.3597,-0.0728 -0.3485,-0.0863 -0.3368,-0.0994 -0.3246,-0.1121 -0.3119,-0.1245 -0.2988,-0.1366 -0.2852,-0.1482 -0.2713,-0.1594 -0.2569,-0.1701 -0.2423,-0.1803 -0.2273,-0.1900 -0.2121,-0.1992 -0.1967,-0.2078 -0.1810,-0.2158 -0.1653,-0.2233 -0.1493,-0.2301 -0.1333,-0.2363 -0.1173,-0.2419 -0.1012,-0.2468 -0.0852,-0.2511 -0.0692,-0.2546"/></g><g fill="none" stroke="rgb(2%, 29%, 48%)" stroke-opacity="(1.0" stroke-width="0.0020"><polyline points="0.1105,-0.2416 0.0940,-0.2480 0.0767,-0.2533 0.0587,-0.2573 0.0400,-0.2602 0.0207,-0.2618 0.0008,-0.2623 -0.0194,-0.2615 -0.0401,-0.2594 -0.0610,-0.2562 -0.0821,-0.2518 -0.1033,-0.2462 -0.1246,-0.2394 -0.1458,-0.2315 -0.1668,-0.2226 -0.1876,-0.2125 -0.2082,-0.2014 -0.2283,-0.1894 -0.2480,-0.1764 -0.2672,-0.1625 -0.2857,-0.1478 -0.3035,-0.1323 -0.3206,-0.1161 -0.3369,-0.0993 -0.3522,-0.0819 -0.3667,-0.0640 -0.3801,-0.0456 -0.3924,-0.0269 -0.4036,-0.0079 -0.4137,0.0113 -0.4226,0.0307 -0.4302,0.0501 -0.4366,0.0695 -0.4417,0.0889 -0.4455,0.1080 -0.4480,0.1270 -0.4491,0.1456 -0.4489,0.1638 -0.4474,0.1816 -0.4446,0.1988 -0.4404,0.2154 -0.4349,0.2314 -0.4282,0.2467 -0.4202,0.2611 -0.4110,0.2747 -0.4006,0.2874 -0.3890,0.2992 -0.3764,0.3100 -0.3627,0.3197 -0.3480,0.3284 -0.3324,0.3359 -0.3159,0.3423 -0.2986,0.3476 -0.2806,0.3516 -0.2618,0.3545 -0.2425,0.3561 -0.2227,0.3566 -0.2024,0.3558 -0.1818,0.3538 -0.1609,0.3505 -0.1398,0.3461 -0.1186,0.3405 -0.0973,0.3337 -0.0761,0.3259 -0.0551,0.3169 -0.0342,0.3068 -0.0137,0.2957 0.0065,0.2837 0.0261,0.2707 0.0453,0.2568 0.0638,0.2421 0.0817,0.2266 0.0988,0.2104 0.1150,0.1936 0.1304,0.1762 0.1448,0.1583 0.1582,0.1400 0.1705,0.1212 0.1817,0.1022 0.1918,0.0830 0.2007,0.0636 0.2083,0.0442 0.2147,0.0248 0.2198,0.0054 0.2236,-0.0137 0.2261,-0.0327 0.2273,-0.0513 0.2271,-0.0695 0.2255,-0.0873 0.2227,-0.1045 0.2185,-0.1211 0.2131,-0.1371 0.2063,-0.1524 0.1983,-0.1668 0.1891,-0.1804 0.1787,-0.1931 0.1672,-0.2049 0.1545,-0.2157 0.1408,-0.2254 0.1261,-0.2341 0.1105,-0.2416"/></g><g fill="rgb(2%, 73%, 80%)" fill-opacity="(0.20" stroke="rgb(2%, 29%, 48%)" stroke-opacity="(1.0" stroke-width="0.0030"><circle cx="-0.1109" cy="0.0472" r="0.0150"/></g><g fill="rgb(100%, 71%, 35%)" fill-opacity="(0.20" stroke="rgb(2%, 29%, 48%)" stroke-opacity="(1.0" stroke-width="0.0030"><rect height="0.0300" width="0.0300" x="0.2111" y="-0.0473"/><rect height="0.0300" width="0.0300" x="-0.0842" y="-0.2696"/></g><g fill="rgb(53%, 51%, 28%)" fill-opacity="(0.0050" stroke="rgb(50%, 50%, 50%)" stroke-opacity="(1.0" stroke-width="0.0020"><rect height="0.6112" width="0.6753" x="-0.4492" y="-0.2546"/></g><g fill="none" stroke="rgb(21%, 29%, 7%)" stroke-dasharray="0.0300 0.0100" stroke-linecap="round" stroke-opacity="(1.0" stroke-width="0.0050"><polyline points="0.1105,-0.2416 -0.3324,0.3359"/></g><g fill="none" stroke="rgb(73%, 34%, 1%)" stroke-dasharray="0.0300 0.0100" stroke-linecap="round" stroke-opacity="(1.0" stroke-width="0.0050"><polyline points="-0.3667,-0.0640 0.1448,0.1583"/></g></g></g><g class="hud"><g class="frame"><g fill="rgb(100%, 100%, 100%)" fill-opacity="(0.020" stroke="rgb(0%, 0%, 0%)" stroke-opacity="(0.0" stroke-width="0"><rect height="0.7780" width="0.8858" x="-0.5121" y="-0.3658"/></g></g><g class="axis"><g class="ticks"><g class="tickglyph"><g fill="rgb(5%, 5%, 5%)" fill-opacity="(0.40" stroke="rgb(5%, 5%, 5%)" stroke-opacity="(0.40" stroke-width="0.0040"><g transform="rotate(-90.0, -0.5277, 0.4123)"><polyline points="-0.5277,0.4273
-0.5277,0.3973"/></g><g transform="rotate(-90.0, -0.5277, 0.3011)"><polyline points="-0.5277,0.3161
-0.5277,0.2861"/></g><g transform="rotate(-90.0, -0.5277, 0.1900)"><polyline points="-0.5277,0.2050
-0.5277,0.1750"/></g><g transform="rotate(-90.0, -0.5277, 0.0788)"><polyline points="-0.5277,0.0938
-0.5277,0.0638"/></g><g transform="rotate(-90.0, -0.5277, -0.0323)"><polyline points="-0.5277,-0.0173
-0.5277,-0.0473"/></g><g transform="rotate(-90.0, -0.5277, -0.1435)"><polyline points="-0.5277,-0.1285
-0.5277,-0.1585"/></g><g transform="rotate(-90.0, -0.5277, -0.2546)"><polyline points="-0.5277,-0.2396
-0.5277,-0.2696"/></g><g transform="rotate(-90.0, -0.5277, -0.3658)"><polyline points="-0.5277,-0.3508
-0.5277,-0.3808"/></g></g></g><g class="ticktext"><g fill="rgb(5%, 5%, 5%)" fill-opacity="(1.0" font-size="0.0261" stroke="none" stroke-width="0.0" text-anchor="end"><text x="-0.5465" y="0.4230">-2.00</text><text x="-0.5465" y="0.3118">-1.50</text><text x="-0.5465" y="0.2007">-1.00</text><text x="-0.5465" y="0.0895">-0.50</text><text x="-0.5465" y="-0.0216"> 0.00</text><text x="-0.5465" y="-0.1328"> 0.50</text><text x="-0.5465" y="-0.2439"> 1.00</text><text x="-0.5465" y="-0.3551"> 1.50</text></g></g><g class="ticklines"><g fill="none" stroke="rgb(5%, 5%, 5%)" stroke-opacity="(0.050" stroke-width="0.0050"><polyline points="-0.5121,0.4123 0.3737,0.4123"/><polyline points="-0.5121,0.3011 0.3737,0.3011"/><polyline points="-0.5121,0.1900 0.3737,0.1900"/><polyline points="-0.5121,0.0788 0.3737,0.0788"/><polyline points="-0.5121,-0.0323 0.3737,-0.0323"/><polyline points="-0.5121,-0.1435 0.3737,-0.1435"/><polyline points="-0.5121,-0.2546 0.3737,-0.2546"/><polyline points="-0.5121,-0.3658 0.3737,-0.3658"/></g></g></g><g class="axisbar"><g fill="rgb(5%, 5%, 5%)" fill-opacity="(0.40" stroke="rgb(0%, 0%, 0%)" stroke-opacity="(0.0" stroke-width="0"><rect height="0.7811" width="0.0021" x="-0.5194" y="-0.3673"/></g></g></g><g class="axis"><g class="ticks"><g class="tickglyph"><g fill="rgb(5%, 5%, 5%)" fill-opacity="(0.40" stroke="rgb(5%, 5%, 5%)" stroke-opacity="(0.40" stroke-width="0.0040"><polyline points="-0.5121,0.4506
-0.5121,0.4206"/><polyline points="-0.3645,0.4506
-0.3645,0.4206"/><polyline points="-0.2168,0.4506
-0.2168,0.4206"/><polyline points="-0.0692,0.4506
-0.0692,0.4206"/><polyline points="0.0784,0.4506
0.0784,0.4206"/><polyline points="0.2261,0.4506
0.2261,0.4206"/><polyline points="0.3737,0.4506
0.3737,0.4206"/></g></g><g class="ticktext"><g fill="rgb(5%, 5%, 5%)" fill-opacity="(1.0" font-size="0.0261" stroke="none" stroke-width="0.0" text-anchor="middle"><text x="-0.5121" y="0.485">-2.0</text><text x="-0.3645" y="0.485">-1.0</text><text x="-0.2168" y="0.485">-0.5</text><text x="-0.0692" y="0.485"> 0.0</text><text x="0.0784" y="0.485"> 0.5</text><text x="0.2261" y="0.485"> 1.0</text><text x="0.3737" y="0.485"> 2.0</text></g></g><g class="ticklines"><g fill="none" stroke="rgb(5%, 5%, 5%)" stroke-opacity="(0.050" stroke-width="0.0050"><polyline points="-0.5121,0.4123 -0.5121,-0.3658"/><polyline points="-0.3645,0.4123 -0.3645,-0.3658"/><polyline points="-0.2168,0.4123 -0.2168,-0.3658"/><polyline points="-0.0692,0.4123 -0.0692,-0.3658"/><polyline points="0.0784,0.4123 0.0784,-0.3658"/><polyline points="0.2261,0.4123 0.2261,-0.3658"/><polyline points="0.3737,0.4123 0.3737,-0.3658"/></g></g></g><g class="axisbar"><g fill="rgb(5%, 5%, 5%)" fill-opacity="(0.40" stroke="rgb(0%, 0%, 0%)" stroke-opacity="(0.0" stroke-width="0"><rect height="0.0031" width="0.8879" x="-0.5132" y="0.4200"/></g></g></g><g class="legend"><g class="legendBorder"><g fill="rgb(5%, 5%, 5%)" fill-opacity="(0.0" stroke="rgb(5%, 5%, 5%)" stroke-opacity="(1.0" stroke-width="0.0025"><rect height="0.4552" width="0.2202" x="0.4362" y="-0.3591"/></g></g><g class="legendContent"><g fill="rgb(5%, 5%, 5%)" fill-opacity="(1.0" font-size="0.0261" stroke="none" stroke-width="0.0" text-anchor="start"><text x="0.4493" y="0.0650">Bounding Box</text></g><g fill="rgb(53%, 51%, 28%)" fill-opacity="(0.0050" stroke="rgb(50%, 50%, 50%)" stroke-opacity="(1.0" stroke-width="0.0025"><rect height="0.0195" width="0.0130" x="0.6160" y="0.0455"/></g><g fill="rgb(5%, 5%, 5%)" fill-opacity="(1.0" font-size="0.0261" stroke="none" stroke-width="0.0" text-anchor="start"><text x="0.4493" y="0.0027">Endpoints</text></g><g fill="rgb(100%, 71%, 35%)" fill-opacity="(0.20" stroke="rgb(2%, 29%, 48%)" stroke-opacity="(1.0" stroke-width="0.0030"><rect height="0.0250" width="0.0250" x="0.6100" y="-0.0195"/></g><g fill="rgb(5%, 5%, 5%)" fill-opacity="(1.0" font-size="0.0261" stroke="none" stroke-width="0.0" text-anchor="start"><text x="0.4493" y="-0.0595">Centroid</text></g><g fill="rgb(2%, 73%, 80%)" fill-opacity="(0.20" stroke="rgb(2%, 29%, 48%)" stroke-opacity="(1.0" stroke-width="0.0030"><circle cx="0.6225" cy="-0.0693" r="0.0125"/></g><g fill="rgb(5%, 5%, 5%)" fill-opacity="(1.0" font-size="0.0261" stroke="none" stroke-width="0.0" text-anchor="start"><text x="0.4493" y="-0.1218">Arc</text></g><g fill="none" stroke="rgb(66%, 7%, 55%)" stroke-opacity="(1.0" stroke-width="0.0050"><polyline points="0.6160,-0.1315 0.6421,-0.1315"/></g><g fill="rgb(5%, 5%, 5%)" fill-opacity="(1.0" font-size="0.0261" stroke="none" stroke-width="0.0" text-anchor="start"><text x="0.4493" y="-0.1840">Full Ellipse</text></g><g fill="none" stroke="rgb(2%, 29%, 48%)" stroke-opacity="(1.0" stroke-width="0.0020"><polyline points="0.6160,-0.1937 0.6421,-0.1937"/></g><g fill="rgb(5%, 5%, 5%)" fill-opacity="(1.0" font-size="0.0261" stroke="none" stroke-width="0.0" text-anchor="start"><text x="0.4493" y="-0.2463">Minor Axis</text></g><g fill="none" stroke="rgb(73%, 34%, 1%)" stroke-dasharray="0.0300 0.0100" stroke-linecap="round" stroke-opacity="(1.0" stroke-width="0.0050"><polyline points="0.6160,-0.2560 0.6421,-0.2560"/></g><g fill="rgb(5%, 5%, 5%)" fill-opacity="(1.0" font-size="0.0261" stroke="none" stroke-width="0.0" text-anchor="start"><text x="0.4493" y="-0.3085">Major Axis</text></g><g fill="none" stroke="rgb(21%, 29%, 7%)" stroke-dasharray="0.0300 0.0100" stroke-linecap="round" stroke-opacity="(1.0" stroke-width="0.0050"><polyline points="0.6160,-0.3182 0.6421,-0.3182"/></g></g></g><g class="title"><g fill="rgb(5%, 5%, 5%)" fill-opacity="(1.0" font-size="0.0417" stroke="none" stroke-width="0.0" text-anchor="middle"><text x="0.0269" y="-0.4360">ArcPosition (Point 1 0) (Point 0 1) (ArcInfo (Point 1.5 1) (pi / 3) True True)</text></g></g></g></svg>