<svg width="261.40560441808134" xmlns:xlink="http://www.w3.org/1999/xlink" xmlns="http://www.w3.org/2000/svg" viewBox="-1.65753 -1.53175 3.19503 3.6667500000000004" height="300.0"><style>svg {
  color-scheme: light dark;
}
@media (prefers-color-scheme:light) {
  svg {
    background-color: #0d0d0d;
  }
}</style><g stroke-opacity="0.0" fill="#f0f0f0" stroke="#000000" stroke-width="0.0" fill-opacity="5.0e-2"><rect width="3.0" x="-1.5" y="-1.5" height="3.5"/></g><g stroke-opacity="5.0e-2" fill="none" stroke="#f0f0f0" stroke-width="5.0e-3"><polyline points="-1.5,2.0
1.5,2.0"/><polyline points="-1.5,1.5
1.5,1.5"/><polyline points="-1.5,0.9999999999999998
1.5,0.9999999999999998"/><polyline points="-1.5,0.4999999999999998
1.5,0.4999999999999998"/><polyline points="-1.5,-0.0
1.5,-0.0"/><polyline points="-1.5,-0.49999999999999956
1.5,-0.49999999999999956"/><polyline points="-1.5,-1.0
1.5,-1.0"/><polyline points="-1.5,-1.5
1.5,-1.5"/></g><g fill="#f0f0f0" stroke="none" stroke-width="0.0" font-size="5.0e-2" fill-opacity="1.0" text-anchor="end"><text x="-1.5575299999999999" y="2.0145">-2</text></g><g fill="#f0f0f0" stroke="none" stroke-width="0.0" font-size="5.0e-2" fill-opacity="1.0" text-anchor="end"><text x="-1.5575299999999999" y="1.5145">-1.5</text></g><g fill="#f0f0f0" stroke="none" stroke-width="0.0" font-size="5.0e-2" fill-opacity="1.0" text-anchor="end"><text x="-1.5575299999999999" y="1.0145">-1</text></g><g fill="#f0f0f0" stroke="none" stroke-width="0.0" font-size="5.0e-2" fill-opacity="1.0" text-anchor="end"><text x="-1.5575299999999999" y="0.5144999999999997">-0.5</text></g><g fill="#f0f0f0" stroke="none" stroke-width="0.0" font-size="5.0e-2" fill-opacity="1.0" text-anchor="end"><text x="-1.5575299999999999" y="1.4499999999999957e-2">0</text></g><g fill="#f0f0f0" stroke="none" stroke-width="0.0" font-size="5.0e-2" fill-opacity="1.0" text-anchor="end"><text x="-1.5575299999999999" y="-0.4854999999999996">0.5</text></g><g fill="#f0f0f0" stroke="none" stroke-width="0.0" font-size="5.0e-2" fill-opacity="1.0" text-anchor="end"><text x="-1.5575299999999999" y="-0.9855">1</text></g><g fill="#f0f0f0" stroke="none" stroke-width="0.0" font-size="5.0e-2" fill-opacity="1.0" text-anchor="end"><text x="-1.5575299999999999" y="-1.4855">1.5</text></g><g stroke-opacity="0.4" fill="#f0f0f0" stroke="#f0f0f0" stroke-width="2.0e-3" fill-opacity="0.4"><g transform="rotate(-90.0, -1.5265, 2.0)"><polyline points="-1.5265,2.015
-1.5265,1.985"/></g><g transform="rotate(-90.0, -1.5265, 1.5)"><polyline points="-1.5265,1.515
-1.5265,1.485"/></g><g transform="rotate(-90.0, -1.5265, 0.9999999999999998)"><polyline points="-1.5265,1.0149999999999997
-1.5265,0.9849999999999998"/></g><g transform="rotate(-90.0, -1.5265, 0.4999999999999998)"><polyline points="-1.5265,0.5149999999999998
-1.5265,0.48499999999999976"/></g><g transform="rotate(-90.0, -1.5265, -0.0)"><polyline points="-1.5265,1.5e-2
-1.5265,-1.5e-2"/></g><g transform="rotate(-90.0, -1.5265, -0.49999999999999956)"><polyline points="-1.5265,-0.48499999999999954
-1.5265,-0.5149999999999996"/></g><g transform="rotate(-90.0, -1.5265, -1.0)"><polyline points="-1.5265,-0.985
-1.5265,-1.015"/></g><g transform="rotate(-90.0, -1.5265, -1.5)"><polyline points="-1.5265,-1.485
-1.5265,-1.515"/></g></g><g stroke-opacity="0.0" fill="#f0f0f0" stroke="#000000" stroke-width="0.0" fill-opacity="0.4"><rect width="4.0000000000000036e-3" x="-1.514" y="-1.5" height="3.5"/></g><g stroke-opacity="5.0e-2" fill="none" stroke="#f0f0f0" stroke-width="5.0e-3"><polyline points="-1.5,2.0
-1.5,-1.5"/><polyline points="-1.0,2.0
-1.0,-1.5"/><polyline points="-0.5,2.0
-0.5,-1.5"/><polyline points="2.220446049250313e-16,2.0
2.220446049250313e-16,-1.5"/><polyline points="0.5,2.0
0.5,-1.5"/><polyline points="1.0,2.0
1.0,-1.5"/><polyline points="1.5,2.0
1.5,-1.5"/></g><g fill="#f0f0f0" stroke="none" stroke-width="0.0" font-size="5.0e-2" fill-opacity="1.0" text-anchor="middle"><text x="-1.5" y="2.10875">-1.5</text></g><g fill="#f0f0f0" stroke="none" stroke-width="0.0" font-size="5.0e-2" fill-opacity="1.0" text-anchor="middle"><text x="-1.0" y="2.10875">-1</text></g><g fill="#f0f0f0" stroke="none" stroke-width="0.0" font-size="5.0e-2" fill-opacity="1.0" text-anchor="middle"><text x="-0.5" y="2.10875">-0.5</text></g><g fill="#f0f0f0" stroke="none" stroke-width="0.0" font-size="5.0e-2" fill-opacity="1.0" text-anchor="middle"><text x="2.220446049250313e-16" y="2.10875">0</text></g><g fill="#f0f0f0" stroke="none" stroke-width="0.0" font-size="5.0e-2" fill-opacity="1.0" text-anchor="middle"><text x="0.5" y="2.10875">0.5</text></g><g fill="#f0f0f0" stroke="none" stroke-width="0.0" font-size="5.0e-2" fill-opacity="1.0" text-anchor="middle"><text x="1.0" y="2.10875">1</text></g><g fill="#f0f0f0" stroke="none" stroke-width="0.0" font-size="5.0e-2" fill-opacity="1.0" text-anchor="middle"><text x="1.5" y="2.10875">1.5</text></g><g stroke-opacity="0.4" fill="#f0f0f0" stroke="#f0f0f0" stroke-width="2.0e-3" fill-opacity="0.4"><polyline points="-1.5,2.0415
-1.5,2.0115"/><polyline points="-1.0,2.0415
-1.0,2.0115"/><polyline points="-0.5,2.0415
-0.5,2.0115"/><polyline points="2.220446049250313e-16,2.0415
2.220446049250313e-16,2.0115"/><polyline points="0.5,2.0415
0.5,2.0115"/><polyline points="1.0,2.0415
1.0,2.0115"/><polyline points="1.5,2.0415
1.5,2.0115"/></g><g stroke-opacity="0.0" fill="#f0f0f0" stroke="#000000" stroke-width="0.0" fill-opacity="0.4"><rect width="3.0" x="-1.5" y="2.01" height="4.0000000000000036e-3"/></g><g stroke-opacity="1.0" fill="none" stroke="#a6cfe3" stroke-width="2.0e-3"><polyline points="1.0000000000000009,-0.0"/><polyline points="0.9940146461148016,6.427210796446392e-2"/><polyline points="0.9854684971040975,0.12920580153034256"/><polyline points="0.9743808284486222,0.19465462547461154"/><polyline points="0.9607766479200981,0.2604709627192794"/><polyline points="0.9446866391772537,0.3265063672755135"/><polyline points="0.9261470925601185,0.3926118990573495"/><polyline points="0.9051998232386831,0.45863845980980367"/><polyline points="0.8818920769005372,0.5244371293937398"/><polyline points="0.8562764231902018,0.5898595016689936"/><polyline points="0.8284106371404976,0.6547580192182041"/><polyline points="0.7983575688633873,0.718986306156377"/><polyline points="0.7661850017941774,0.7823994982755582"/><polyline points="0.7319654998088261,0.8448545697799767"/><polyline points="0.695776243559163,0.9062106558747356"/><polyline points="0.6576988563951605,0.9663293704804432"/><polyline points="0.6178192202669006,1.0250751183572173"/><polyline points="0.5762272820214287,1.0823154009340614"/><polyline points="0.533016850531415,1.1379211151538344"/><polyline points="0.48828538511317676,1.191766844659785"/><polyline points="0.4421337757112749,1.2437311426668827"/><polyline points="0.39466611534547713,1.2936968058799505"/><polyline points="0.3459894653333131,1.3415511388407824"/><polyline points="0.2962136138177678,1.3871862081080222"/><polyline points="0.2454508281447203,1.430499085696519"/><polyline points="0.19381560164866296,1.4713920812270747"/><polyline points="0.14142439541777652,1.5097729622630052"/><polyline points="8.839537562083555e-2,1.545555162336529"/><polyline points="3.484814698836969e-2,1.5786579761958062"/><polyline points="-1.9096516950796172e-2,1.6090067418322525"/><polyline points="-7.33169462691654e-2,1.6365330088775658"/><polyline points="-0.12769084906199302,1.6611746929906617"/><polyline points="-0.18209558727154862,1.6828762158863042"/><polyline points="-0.2364084532921109,1.7015886306895949"/><polyline points="-0.2905069467318284,1.7172697323335977"/><polyline points="-0.3442690507072199,1.7298841527510982"/><polyline points="-0.39757350704712957,1.7394034406457948"/><polyline points="-0.4503000897854581,1.7458061256630062"/><polyline points="-0.5023298763257824,1.7490777668151547"/><polyline points="-0.5535455156662827,1.7492109850528088"/><polyline points="-0.6038314930800136,1.7462054799078195"/><polyline points="-0.6530743906535195,1.740068030171014"/><polyline points="-0.7011631430961871,1.730812478602917"/><polyline points="-0.7479892882433502,1.7184597007119842"/><polyline points="-0.793447211688153,1.7030375576707697"/><polyline points="-0.8374343849904167,1.6845808334762182"/><polyline points="-0.879851596925238,1.6631311564958184"/><polyline points="-0.9206031772497455,1.6387369055765686"/><polyline points="-0.9595972124833209,1.6114531009285114"/><polyline points="-0.9967457532146013,1.5813412800289601"/><polyline points="-1.0319650124676871,1.5484693588272997"/><polyline points="-1.0651755546801553,1.5129114785634061"/><polyline points="-1.0963024748666366,1.4747478385451958"/><polyline points="-1.1252755675638715,1.4340645152624427"/><polyline points="-1.1520294851761868,1.39095326824487"/><polyline points="-1.176503885364259,1.3455113331023754"/><polyline points="-1.19864356714473,1.2978412022141923"/><polyline points="-1.2183985953937093,1.2480503935616256"/><polyline points="-1.2357244134733536,1.1962512082257506"/><polyline points="-1.250581943727494,1.1425604770970392"/><polyline points="-1.2629376756196518,1.087099297368181"/><polyline points="-1.2727637413146469,1.0299927594044442"/><polyline points="-1.2800379785333331,0.9713696646076042"/><polyline points="-1.2847439805386887,0.9113622349097761"/><polyline points="-1.2868711331405234,0.850105814552401"/><polyline points="-1.2864146386353401,0.7877385648229778"/><polyline points="-1.2833755266273537,0.7244011524380727"/><polyline points="-1.2777606517062607,0.6602364322754446"/><polyline points="-1.2695826779870025,0.5953891251708496"/><polyline points="-1.2588600505463818,0.5300054915062731"/><polyline points="-1.2456169538209676,0.4642330013257634"/><polyline points="-1.2298832570601115,0.3982200017229365"/><polyline points="-1.2116944469571096,0.3321153822503289"/><polyline points="-1.1910915476104509,0.26606823910524224"/><polyline points="-1.1681210279956875,0.20022753884954092"/><polyline points="-1.142834697156606,0.134741782421806"/><polyline points="-1.1152895873521018,6.975867019969728e-2"/><polyline points="-1.0855478254223112,5.42476886794363e-3"/><polyline points="-1.0536764926641298,-5.81148191566605e-2"/><polyline points="-1.0197474735321572,-0.12071678299768429"/><polyline points="-0.9838372935063279,-0.18223992655072063"/><polyline points="-0.9460269464918963,-0.24254548694528744"/><polyline points="-0.9064017121410812,-0.3014974475186629"/><polyline points="-0.8650509635083893,-0.3589628445957551"/><polyline points="-0.8220679654734301,-0.41481206738311327"/><polyline points="-0.7775496643859012,-0.4689191503006187"/><polyline points="-0.7315964694071551,-0.5211620570915811"/><polyline points="-0.6843120260415455,-0.5714229560703967"/><polyline points="-0.6358029823683445,-0.6195884858869647"/><polyline points="-0.5861787485014645,-0.6655500112084738"/><polyline points="-0.5355512498195376,-0.7092038677418304"/><polyline points="-0.48403467452291715,-0.7504515960441251"/><polyline points="-0.4317452160869837,-0.7892001635937813"/><polyline points="-0.37880081119262377,-0.8253621746215036"/><polyline points="-0.3253208737250024,-0.8588560672277716"/><polyline points="-0.2714260254405454,-0.8896062973422842"/><polyline points="-0.2172378239096271,-0.9175435091104465"/><polyline points="-0.162878488348571,-0.9426046913225816"/><polyline points="-0.10847062395932561,-0.9647333195330816"/><polyline points="-5.4136945398582714e-2,-0.98387948354892"/><polyline points="2.220446049250313e-16,-1.0"/></g><g stroke-opacity="1.0" fill="none" stroke="#a6cfe3" stroke-width="2.0e-3"><polyline points="0.6086376856300113,-0.9414395063606076"/><polyline points="0.5527795469220069,-0.9702714111607404"/><polyline points="0.49418194741073407,-0.9938628196756247"/><polyline points="0.43307614505076697,-1.0121206273937409"/><polyline points="0.36970329652743517,-1.0249727790892234"/><polyline points="0.3043135055215591,-1.0323685531909215"/><polyline points="0.23716483566448598,-1.0342787619572626"/><polyline points="0.16852229207883185,-1.0306958666669384"/><polyline points="9.865677552433416e-2,-1.0216340073707895"/><polyline points="2.784401327631536e-2,-1.0071289470874882"/><polyline points="-4.363652904390536e-2,-0.9872379306632411"/><polyline points="-0.11550275039214353,-0.9620394588525345"/><polyline points="-0.18747102762529155,-0.931632978511518"/><polyline points="-0.25925733483228797,-0.896138490126698"/><polyline points="-0.3305783642546314,-0.8556960742278399"/><polyline points="-0.4011526443726703,-0.8104653385541147"/><polyline points="-0.4707016507451012,-0.7606247881552686"/><polyline points="-0.5389509052176902,-0.7063711209137442"/><polyline points="-0.6056310591631523,-0.647918451268001"/><polyline points="-0.6704789564771294,-0.5854974652006466"/><polyline points="-0.7332386721351098,-0.5193545098262526"/><polyline points="-0.7936625222115783,-0.44975062117184006"/><polyline points="-0.8515120413753137,-0.3769604939869362"/><polyline points="-0.9065589240031089,-0.3012713976488932"/><polyline points="-0.9585859251977599,-0.222982042441898"/><polyline points="-1.0073877181544273,-0.14240140068395002"/><polyline points="-1.0527717044917297,-5.984748735427292e-2"/><polyline points="-1.0945587743495653,2.4353894966515188e-2"/><polyline points="-1.132584013253901,0.10987044189034756"/><polyline points="-1.1666973529588605,0.19636465867530917"/><polyline points="-1.1967641636975312,0.2834951921631992"/><polyline points="-1.2226657855041465,0.3709181779444952"/><polyline points="-1.2442999965107613,0.4582885974340818"/><polyline points="-1.261581416370263,0.5452616395019807"/><polyline points="-1.2744418432135962,0.6314940612853537"/><polyline points="-1.2828305228113803,0.7166455428112668"/><polyline points="-1.286714348877666,0.8003800300841502"/><polyline points="-1.2860779937253213,0.8823670613373866"/><polyline points="-1.280923968757409,0.9622830712149293"/><polyline points="-1.2712726145558277,1.0398126677359452"/><polyline points="-1.2571620206063265,1.1146498770028685"/><polyline points="-1.2386478749767074,1.1864993507405912"/><polyline points="-1.2158032445414615,1.2550775319011742"/><polyline points="-1.188718286620198,1.3201137737339654"/><polyline points="-1.1574998931678915,1.3813514079046847"/><polyline points="-1.1222712689211713,1.438548757448074"/><polyline points="-1.083171445165512,1.4914800905564687"/><polyline points="-1.0403547310422663,1.539936511440116"/><polyline points="-0.993990104560983,1.5837267847434204"/><polyline points="-0.944260545720401,1.6226780902635274"/><polyline points="-0.891362314369989,1.656636704992708"/><polyline points="-0.8355041756619843,1.6854686097928409"/><polyline points="-0.7769065761507111,1.7090600183077247"/><polyline points="-0.7158007737907442,1.7273178260258404"/><polyline points="-0.6524279252674126,1.7401699777213238"/><polyline points="-0.5870381342615362,1.7475657518230214"/><polyline points="-0.5198894644044634,1.749475960589363"/><polyline points="-0.45124692081880946,1.7458930652990383"/><polyline points="-0.38138140426431133,1.7368312060028894"/><polyline points="-0.3105686420162932,1.7223261457195886"/><polyline points="-0.23908809969607225,1.7024351292953415"/><polyline points="-0.16722187834783409,1.6772366574846354"/><polyline points="-9.52536011146865e-2,1.6468301771436185"/><polyline points="-2.3467293907689424e-2,1.611335688758798"/><polyline points="4.7853735514653994e-2,1.5708932728599398"/><polyline points="0.11842801563269267,1.5256625371862147"/><polyline points="0.18797702200512378,1.475821986787368"/><polyline points="0.25622627647771257,1.4215683195458442"/><polyline points="0.32290643042317524,1.363115649900101"/><polyline points="0.38775432773715246,1.3006946638327468"/><polyline points="0.45051404339513246,1.2345517084583535"/><polyline points="0.5109378934716009,1.16494781980394"/><polyline points="0.5687874126353369,1.0921576926190362"/><polyline points="0.6238342952631308,1.0164685962809936"/><polyline points="0.6758612964577821,0.9381792410739984"/><polyline points="0.7246630894144497,0.8575985993160504"/><polyline points="0.7700470757517524,0.7750446859863742"/><polyline points="0.8118341456095877,0.6908433036655852"/><polyline points="0.8498593845139233,0.6053267567417535"/><polyline points="0.8839727242188831,0.5188325399567908"/><polyline points="0.9140395349575536,0.431702006468901"/><polyline points="0.9399411567641689,0.34427902068760585"/><polyline points="0.9615753677707835,0.25690860119802017"/><polyline points="0.9788567876302863,0.16993555913011882"/><polyline points="0.9917172144736188,8.370313734674673e-2"/><polyline points="1.0001058940714032,-1.4483441791663942e-3"/><polyline points="1.0039897201376888,-8.518283145204997e-2"/><polyline points="1.0033533649853439,-0.16716986270528666"/><polyline points="0.998199340017432,-0.24708587258282888"/><polyline points="0.9885479858158503,-0.3246154691038452"/><polyline points="0.9744373918663491,-0.39945267837076814"/><polyline points="0.95592324623673,-0.47130215210849125"/><polyline points="0.9330786158014837,-0.5398803332690743"/><polyline points="0.9059936578802206,-0.604916575101865"/><polyline points="0.8747752644279139,-0.6661542092725852"/><polyline points="0.8395466401811942,-0.723351558815974"/><polyline points="0.8004468164255343,-0.7762828919243687"/><polyline points="0.7576301023022891,-0.8247393128080156"/><polyline points="0.7112654758210062,-0.86852958611132"/><polyline points="0.6615359169804229,-0.907480891631427"/><polyline points="0.6086376856300113,-0.9414395063606076"/></g><g stroke-opacity="1.0" fill="#a6cfe3" stroke="#1f78b5" stroke-width="3.0e-3" fill-opacity="1.0"><rect width="3.0000000000000027e-2" x="-0.1563623143699885" y="0.34259859931604997" height="3.0000000000000027e-2"/><rect width="2.9999999999999916e-2" x="0.985" y="-1.5e-2" height="3.0e-2"/><rect width="3.0e-2" x="-1.4999999999999777e-2" y="-1.015" height="2.9999999999999916e-2"/></g><g stroke-opacity="1.0" fill="#6666cc" stroke="#808080" stroke-width="2.0e-3" fill-opacity="0.1"><rect width="2.2870062381089498" x="-1.2870062381089489" y="-1.0" height="2.7495396900235556"/></g><g stroke-opacity="1.0" fill="none" stroke="#e63305" stroke-dasharray="3.0e-2 1.0e-2" stroke-linecap="round" stroke-width="5.0e-3"><polyline points="0.6086376856300113,-0.9414395063606076
-0.891362314369989,1.656636704992708"/></g><g stroke-opacity="1.0" fill="none" stroke="#e6e605" stroke-dasharray="3.0e-2 1.0e-2" stroke-linecap="round" stroke-width="5.0e-3"><polyline points="-1.0073877181544273,-0.14240140068395002
0.7246630894144497,0.8575985993160504"/></g><g></g></svg>