<svg xmlns="http://www.w3.org/2000/svg" xmlns:xlink="http://www.w3.org/1999/xlink" width="453" height="300" viewBox="-0.7633 -0.5000 1.5133 1.0000"><style>svg {
  color-scheme: light dark;
}
{
  .canvas g, .title g, .axisbar g, .ticktext g, .tickglyph g, .ticklines g, .legendContent g text {
    fill: rgb(5%, 5%, 5%);
  }
  .ticklines g, .tickglyph g, .legendBorder g {
    stroke: rgb(5%, 5%, 5%);
  }
  .legendBorder g {
    fill: rgb(94%, 94%, 94%);
  }
}
@media (prefers-color-scheme:dark) {
  .canvas g, .title g, .axisbar g, .ticktext g, .tickglyph g, .ticklines g, .legendContent g text {
    fill: rgb(94%, 94%, 94%);
  }
  .ticklines g, .tickglyph g, .legendBorder g {
    stroke: rgb(94%, 94%, 94%);
  }
  .legendBorder g {
    fill: rgb(5%, 5%, 5%);
  }
}
svg { font-family: system-ui,-apple-system,"Segoe UI",Roboto,"Helvetica Neue",Arial,"Noto Sans","Liberation Sans",sans-serif,"Apple Color Emoji","Segoe UI Emoji","Segoe UI Symbol","Noto Color Emoji";
}

ticktext { font-family: SFMono-Regular,Menlo,Monaco,Consolas,"Liberation Mono","Courier New",monospace;
}

</style><g class="chart"><g class="ellipse"><g stroke-width="0.0050" stroke="rgb(66%, 7%, 55%)" stroke-opacity="1.0" fill="none"><polyline points="0.1687,-0.0120 0.1669,0.0007 0.1643,0.0135 0.1609,0.0265 0.1567,0.0395 0.1519,0.0525 0.1462,0.0656 0.1398,0.0786 0.1327,0.0916 0.1250,0.1046 0.1165,0.1174 0.1073,0.1301 0.0976,0.1426 0.0871,0.1549 0.0761,0.1671 0.0646,0.1789 0.0524,0.1905 0.0398,0.2018 0.0266,0.2128 0.0130,0.2235 -0.0010,0.2337 -0.0155,0.2436 -0.0303,0.2531 -0.0454,0.2621 -0.0609,0.2706 -0.0766,0.2787 -0.0925,0.2863 -0.1086,0.2934 -0.1249,0.2999 -0.1413,0.3059 -0.1578,0.3113 -0.1744,0.3162 -0.1909,0.3205 -0.2074,0.3242 -0.2239,0.3273 -0.2402,0.3298 -0.2565,0.3317 -0.2725,0.3329 -0.2883,0.3336 -0.3039,0.3336 -0.3192,0.3330 -0.3342,0.3318 -0.3488,0.3300 -0.3631,0.3275 -0.3769,0.3245 -0.3903,0.3208 -0.4032,0.3166 -0.4156,0.3118 -0.4274,0.3064 -0.4387,0.3004 -0.4494,0.2939 -0.4595,0.2869 -0.4690,0.2794 -0.4778,0.2713 -0.4860,0.2628 -0.4934,0.2538 -0.5001,0.2444 -0.5062,0.2346 -0.5114,0.2244 -0.5159,0.2137 -0.5197,0.2028 -0.5227,0.1915 -0.5249,0.1799 -0.5263,0.1681 -0.5270,0.1560 -0.5268,0.1436 -0.5259,0.1311 -0.5242,0.1185 -0.5217,0.1056 -0.5185,0.0927 -0.5144,0.0797 -0.5096,0.0667 -0.5041,0.0536 -0.4978,0.0406 -0.4909,0.0276 -0.4832,0.0146 -0.4748,0.0018 -0.4657,-0.0109 -0.4560,-0.0235 -0.4457,-0.0358 -0.4348,-0.0480 -0.4233,-0.0599 -0.4112,-0.0715 -0.3987,-0.0829 -0.3856,-0.0939 -0.3720,-0.1046 -0.3581,-0.1149 -0.3437,-0.1249 -0.3289,-0.1344 -0.3138,-0.1435 -0.2984,-0.1521 -0.2828,-0.1602 -0.2669,-0.1679 -0.2508,-0.1750 -0.2345,-0.1817 -0.2181,-0.1877 -0.2016,-0.1933 -0.1851,-0.1982 -0.1685,-0.2026 -0.1520,-0.2064 -0.1355,-0.2095"/></g><g stroke-width="0.0020" stroke="rgb(2%, 29%, 48%)" stroke-opacity="1.0" fill="none"><polyline points="0.0496,-0.1980 0.0326,-0.2037 0.0148,-0.2083 -0.0038,-0.2119 -0.0231,-0.2145 -0.0429,-0.2159 -0.0634,-0.2163 -0.0843,-0.2156 -0.1055,-0.2138 -0.1271,-0.2110 -0.1488,-0.2070 -0.1707,-0.2020 -0.1925,-0.1960 -0.2144,-0.1890 -0.2361,-0.1810 -0.2575,-0.1721 -0.2787,-0.1623 -0.2995,-0.1515 -0.3198,-0.1400 -0.3395,-0.1277 -0.3586,-0.1146 -0.3770,-0.1008 -0.3945,-0.0865 -0.4113,-0.0715 -0.4271,-0.0560 -0.4420,-0.0401 -0.4558,-0.0238 -0.4685,-0.0072 -0.4800,0.0097 -0.4904,0.0268 -0.4996,0.0440 -0.5075,0.0613 -0.5140,0.0786 -0.5193,0.0957 -0.5232,0.1128 -0.5258,0.1296 -0.5269,0.1461 -0.5267,0.1623 -0.5252,0.1781 -0.5222,0.1934 -0.5179,0.2082 -0.5123,0.2224 -0.5054,0.2360 -0.4971,0.2488 -0.4876,0.2609 -0.4769,0.2722 -0.4650,0.2827 -0.4520,0.2923 -0.4379,0.3009 -0.4228,0.3086 -0.4067,0.3153 -0.3897,0.3210 -0.3719,0.3257 -0.3533,0.3293 -0.3340,0.3318 -0.3141,0.3333 -0.2937,0.3336 -0.2728,0.3329 -0.2515,0.3311 -0.2300,0.3283 -0.2083,0.3244 -0.1864,0.3194 -0.1645,0.3134 -0.1427,0.3064 -0.1210,0.2984 -0.0995,0.2894 -0.0783,0.2796 -0.0576,0.2689 -0.0373,0.2573 -0.0176,0.2450 0.0015,0.2319 0.0199,0.2182 0.0375,0.2038 0.0542,0.1888 0.0701,0.1734 0.0849,0.1574 0.0987,0.1411 0.1114,0.1245 0.1230,0.1076 0.1334,0.0905 0.1425,0.0733 0.1504,0.0560 0.1570,0.0388 0.1622,0.0216 0.1662,0.0046 0.1687,-0.0123 0.1699,-0.0288 0.1697,-0.0450 0.1681,-0.0608 0.1652,-0.0761 0.1609,-0.0909 0.1553,-0.1051 0.1483,-0.1186 0.1401,-0.1315 0.1306,-0.1436 0.1199,-0.1549 0.1080,-0.1653 0.0949,-0.1749 0.0808,-0.1836 0.0657,-0.1913 0.0496,-0.1980"/></g><g stroke-width="0.0030" stroke="rgb(2%, 29%, 48%)" stroke-opacity="1.0" fill="rgb(2%, 73%, 80%)" fill-opacity="0.2"><circle cx="-0.1785" cy="0.0587" r="0.0150"/></g><g stroke-width="0.0030" stroke="rgb(2%, 29%, 48%)" stroke-opacity="1.0" fill="rgb(100%, 71%, 35%)" fill-opacity="0.2"><circle cx="0.1687" cy="-0.0120" r="0.0150"/><circle cx="-0.1355" cy="-0.2095" r="0.0150"/></g><g stroke-width="0.0020" stroke="rgb(50%, 50%, 50%)" stroke-opacity="1.0" fill="rgb(53%, 51%, 28%)" fill-opacity="0.00"><rect width="0.6957" height="0.5432" x="-0.5270" y="-0.2095"/></g><g stroke-width="0.0050" stroke="rgb(21%, 29%, 7%)" stroke-opacity="1.0" fill="none" stroke-linecap="round" stroke-dasharray="0.0300 0.0100"><polyline points="0.0496,-0.1980 -0.4067,0.3153"/></g><g stroke-width="0.0050" stroke="rgb(73%, 34%, 1%)" stroke-opacity="1.0" fill="none" stroke-linecap="round" stroke-dasharray="0.0300 0.0100"><polyline points="-0.4420,-0.0401 0.0849,0.1574"/></g></g><g class="datapadding"></g></g><g class="hud"><g class="frame"><g stroke-width="0" stroke="rgb(0%, 0%, 0%)" stroke-opacity="0" fill="rgb(100%, 100%, 100%)" fill-opacity="0.02"><rect width="0.9126" height="0.6915" x="-0.5918" y="-0.3083"/></g></g><g class="axis"><g class="axisbar"><g stroke-width="0" stroke="rgb(0%, 0%, 0%)" stroke-opacity="0" fill="rgb(5%, 5%, 5%)" fill-opacity="0.4"><rect width="0.0024" height="0.6942" x="-0.6003" y="-0.3097"/></g></g><g class="ticks"><g class="ticklines"><g stroke-width="0.0050" stroke="rgb(5%, 5%, 5%)" stroke-opacity="0.05" fill="none"><polyline points="-0.5918,0.3831 0.3208,0.3831"/><polyline points="-0.5918,0.2844 0.3208,0.2844"/><polyline points="-0.5918,0.1856 0.3208,0.1856"/><polyline points="-0.5918,0.0868 0.3208,0.0868"/><polyline points="-0.5918,-0.0120 0.3208,-0.0120"/><polyline points="-0.5918,-0.1108 0.3208,-0.1108"/><polyline points="-0.5918,-0.2095 0.3208,-0.2095"/><polyline points="-0.5918,-0.3083 0.3208,-0.3083"/></g></g><g class="tickglyph"><g stroke-width="0.0024" stroke="rgb(5%, 5%, 5%)" stroke-opacity="0.4" fill="rgb(5%, 5%, 5%)" fill-opacity="0.4"><polyline points="-0.6174,0.3831
-0.5991,0.3831"/><polyline points="-0.6174,0.2844
-0.5991,0.2844"/><polyline points="-0.6174,0.1856
-0.5991,0.1856"/><polyline points="-0.6174,0.0868
-0.5991,0.0868"/><polyline points="-0.6174,-0.0120
-0.5991,-0.0120"/><polyline points="-0.6174,-0.1108
-0.5991,-0.1108"/><polyline points="-0.6174,-0.2095
-0.5991,-0.2095"/><polyline points="-0.6174,-0.3083
-0.5991,-0.3083"/></g></g><g class="ticktext"><g stroke-width="0.0" stroke="none" fill="rgb(5%, 5%, 5%)" fill-opacity="1.0" font-size="0.0400" text-anchor="end"><text x="-0.6673" y="0.3907">-2.0</text><text x="-0.6673" y="0.2920">-1.5</text><text x="-0.6673" y="0.1932">-1.0</text><text x="-0.6673" y="0.0944">-0.5</text><text x="-0.6673" y="-0.0044"> 0.0</text><text x="-0.6673" y="-0.1032"> 0.5</text><text x="-0.6673" y="-0.2019"> 1.0</text><text x="-0.6673" y="-0.3007"> 1.5</text></g></g></g></g><g class="axis"><g class="axisbar"><g stroke-width="0" stroke="rgb(0%, 0%, 0%)" stroke-opacity="0" fill="rgb(5%, 5%, 5%)" fill-opacity="0.4"><rect width="0.9150" height="0.0028" x="-0.5930" y="0.3901"/></g></g><g class="ticks"><g class="ticklines"><g stroke-width="0.0050" stroke="rgb(5%, 5%, 5%)" stroke-opacity="0.05" fill="none"><polyline points="-0.5918,0.3831 -0.5918,-0.3083"/><polyline points="-0.4397,0.3831 -0.4397,-0.3083"/><polyline points="-0.2876,0.3831 -0.2876,-0.3083"/><polyline points="-0.1355,0.3831 -0.1355,-0.3083"/><polyline points="0.0166,0.3831 0.0166,-0.3083"/><polyline points="0.1687,0.3831 0.1687,-0.3083"/><polyline points="0.3208,0.3831 0.3208,-0.3083"/></g></g><g class="tickglyph"><g stroke-width="0.0028" stroke="rgb(5%, 5%, 5%)" stroke-opacity="0.4" fill="rgb(5%, 5%, 5%)" fill-opacity="0.4"><polyline points="-0.5918,0.4122
-0.5918,0.3914"/><polyline points="-0.4397,0.4122
-0.4397,0.3914"/><polyline points="-0.2876,0.4122
-0.2876,0.3914"/><polyline points="-0.1355,0.4122
-0.1355,0.3914"/><polyline points="0.0166,0.4122
0.0166,0.3914"/><polyline points="0.1687,0.4122
0.1687,0.3914"/><polyline points="0.3208,0.4122
0.3208,0.3914"/></g></g><g class="ticktext"><g stroke-width="0.0" stroke="none" fill="rgb(5%, 5%, 5%)" fill-opacity="1.0" font-size="0.0400" text-anchor="middle"><text x="-0.5918" y="0.4502">-2.0</text><text x="-0.4397" y="0.4502">-1.0</text><text x="-0.2876" y="0.4502">-0.5</text><text x="-0.1355" y="0.4502"> 0.0</text><text x="0.0166" y="0.4502"> 0.5</text><text x="0.1687" y="0.4502"> 1.0</text><text x="0.3208" y="0.4502"> 2.0</text></g></g></g></g><g class="legend"><g class="padding"></g><g class="padding"></g><g class="frame"><g stroke-width="0.0008" stroke="rgb(5%, 5%, 5%)" stroke-opacity="1.0" fill="rgb(5%, 5%, 5%)" fill-opacity="0"><rect width="0.3270" height="0.5255" x="0.3956" y="-0.4058"/></g></g><g class="legendContent"><g stroke-width="0.0" stroke="none" fill="rgb(5%, 5%, 5%)" fill-opacity="1.0" font-size="0.0304" text-anchor="start"><text x="0.4108" y="0.0747">Bounding Box</text></g><g stroke-width="0.0015" stroke="rgb(50%, 50%, 50%)" stroke-opacity="1.0" fill="rgb(53%, 51%, 28%)" fill-opacity="0.00"><rect width="0.0152" height="0.0173" x="0.6755" y="0.0661"/></g><g stroke-width="0.0" stroke="none" fill="rgb(5%, 5%, 5%)" fill-opacity="1.0" font-size="0.0304" text-anchor="start"><text x="0.4108" y="0.0021">Endpoints</text></g><g stroke-width="0.0005" stroke="rgb(2%, 29%, 48%)" stroke-opacity="1.0" fill="rgb(100%, 71%, 35%)" fill-opacity="0.2"><rect width="0.0152" height="0.0152" x="0.6755" y="-0.0055"/></g><g stroke-width="0.0" stroke="none" fill="rgb(5%, 5%, 5%)" fill-opacity="1.0" font-size="0.0304" text-anchor="start"><text x="0.4108" y="-0.0705">Centroid</text></g><g stroke-width="0.0005" stroke="rgb(2%, 29%, 48%)" stroke-opacity="1.0" fill="rgb(2%, 73%, 80%)" fill-opacity="0.2"><rect width="0.0152" height="0.0152" x="0.6755" y="-0.0781"/></g><g stroke-width="0.0" stroke="none" fill="rgb(5%, 5%, 5%)" fill-opacity="1.0" font-size="0.0304" text-anchor="start"><text x="0.4108" y="-0.1431">Arc</text></g><g stroke-width="0.0030" stroke="rgb(66%, 7%, 55%)" stroke-opacity="1.0" fill="none"><polyline points="0.6755,-0.1431 0.7059,-0.1431"/></g><g stroke-width="0.0" stroke="none" fill="rgb(5%, 5%, 5%)" fill-opacity="1.0" font-size="0.0304" text-anchor="start"><text x="0.4108" y="-0.2157">Full Ellipse</text></g><g stroke-width="0.0012" stroke="rgb(2%, 29%, 48%)" stroke-opacity="1.0" fill="none"><polyline points="0.6755,-0.2157 0.7059,-0.2157"/></g><g stroke-width="0.0" stroke="none" fill="rgb(5%, 5%, 5%)" fill-opacity="1.0" font-size="0.0304" text-anchor="start"><text x="0.4108" y="-0.2883">Minor Axis</text></g><g stroke-width="0.0030" stroke="rgb(73%, 34%, 1%)" stroke-opacity="1.0" fill="none" stroke-linecap="round" stroke-dasharray="0.0300 0.0100"><polyline points="0.6755,-0.2883 0.7059,-0.2883"/></g><g stroke-width="0.0" stroke="none" fill="rgb(5%, 5%, 5%)" fill-opacity="1.0" font-size="0.0304" text-anchor="start"><text x="0.4108" y="-0.3609">Major Axis</text></g><g stroke-width="0.0030" stroke="rgb(21%, 29%, 7%)" stroke-opacity="1.0" fill="none" stroke-linecap="round" stroke-dasharray="0.0300 0.0100"><polyline points="0.6755,-0.3609 0.7059,-0.3609"/></g></g></g><g class="title"><g stroke-width="0.0" stroke="none" fill="rgb(5%, 5%, 5%)" fill-opacity="1.0" font-size="0.0320" text-anchor="middle"><text x="0" y="-0.4546">ArcPosition (Point 1 0) (Point 0 1) (ArcInfo (Point 1.5 1) (pi / 3) True True)</text></g></g><g class="frame"><g stroke-width="0" stroke="rgb(0%, 0%, 0%)" stroke-opacity="0" fill="rgb(0%, 0%, 0%)" fill-opacity="0"><rect width="1.5" height="1.0000" x="-0.75" y="-0.5000"/></g></g></g></svg>