<svg xmlns="http://www.w3.org/2000/svg" xmlns:xlink="http://www.w3.org/1999/xlink" width="601" height="300" viewBox="-1.0043 -0.5 2.0043 1.0"><style>svg {
  color-scheme: light dark;
}
{
  .canvas g, .title g, .axisbar g, .ticktext g, .tickglyph g, .ticklines g, .legendContent g text {
    fill: rgb(5%, 5%, 5%);
  }
  .ticklines g, .tickglyph g, .legendBorder g {
    stroke: rgb(5%, 5%, 5%);
  }
  .legendBorder g {
    fill: rgb(94%, 94%, 94%);
  }
}
@media (prefers-color-scheme:dark) {
  .canvas g, .title g, .axisbar g, .ticktext g, .tickglyph g, .ticklines g, .legendContent g text {
    fill: rgb(94%, 94%, 94%);
  }
  .ticklines g, .tickglyph g, .legendBorder g {
    stroke: rgb(94%, 94%, 94%);
  }
  .legendBorder g {
    fill: rgb(5%, 5%, 5%);
  }
}
svg { font-family: system-ui,-apple-system,"Segoe UI",Roboto,"Helvetica Neue",Arial,"Noto Sans","Liberation Sans",sans-serif,"Apple Color Emoji","Segoe UI Emoji","Segoe UI Symbol","Noto Color Emoji";
}

ticktext { font-family: SFMono-Regular,Menlo,Monaco,Consolas,"Liberation Mono","Courier New",monospace;
}

</style><g class="chart"><g class="ellipse"><g stroke-width="0.0050" stroke="rgb(66%, 7%, 55%)" stroke-opacity="1.0" fill="none"><polyline points="0.2994,-0.0606 0.2967,-0.0463 0.2929,-0.0318 0.2879,-0.0173 0.2818,-0.0027 0.2745,0.0120 0.2662,0.0267 0.2568,0.0414 0.2463,0.0560 0.2348,0.0706 0.2222,0.0850 0.2087,0.0993 0.1943,0.1134 0.1789,0.1273 0.1626,0.1409 0.1455,0.1543 0.1276,0.1673 0.1089,0.1801 0.0894,0.1924 0.0693,0.2044 0.0486,0.2159 0.0272,0.2270 0.0053,0.2377 -0.0170,0.2478 -0.0399,0.2575 -0.0631,0.2665 -0.0866,0.2751 -0.1105,0.2830 -0.1346,0.2904 -0.1588,0.2971 -0.1832,0.3033 -0.2076,0.3087 -0.2321,0.3136 -0.2565,0.3177 -0.2808,0.3212 -0.3050,0.3240 -0.3290,0.3261 -0.3527,0.3276 -0.3761,0.3283 -0.3991,0.3283 -0.4217,0.3276 -0.4439,0.3263 -0.4655,0.3242 -0.4865,0.3215 -0.5070,0.3180 -0.5268,0.3139 -0.5458,0.3092 -0.5641,0.3038 -0.5817,0.2977 -0.5984,0.2910 -0.6142,0.2837 -0.6291,0.2758 -0.6431,0.2673 -0.6562,0.2583 -0.6682,0.2487 -0.6792,0.2386 -0.6892,0.2280 -0.6980,0.2169 -0.7058,0.2054 -0.7125,0.1934 -0.7181,0.1811 -0.7225,0.1684 -0.7258,0.1554 -0.7279,0.1420 -0.7288,0.1284 -0.7286,0.1146 -0.7273,0.1005 -0.7247,0.0862 -0.7211,0.0718 -0.7162,0.0573 -0.7103,0.0426 -0.7032,0.0280 -0.6950,0.0133 -0.6858,-0.0014 -0.6754,-0.0160 -0.6641,-0.0306 -0.6517,-0.0450 -0.6383,-0.0594 -0.6240,-0.0735 -0.6087,-0.0874 -0.5926,-0.1011 -0.5756,-0.1145 -0.5578,-0.1276 -0.5392,-0.1404 -0.5198,-0.1528 -0.4998,-0.1648 -0.4792,-0.1764 -0.4579,-0.1876 -0.4361,-0.1983 -0.4138,-0.2085 -0.3910,-0.2182 -0.3679,-0.2274 -0.3443,-0.2360 -0.3205,-0.2440 -0.2965,-0.2515 -0.2723,-0.2583 -0.2479,-0.2645 -0.2235,-0.2701 -0.1990,-0.2750 -0.1746,-0.2793 -0.1502,-0.2829"/></g><g stroke-width="0.0020" stroke="rgb(2%, 29%, 48%)" stroke-opacity="1.0" fill="none"><polyline points="0.1234,-0.2699 0.0983,-0.2763 0.0720,-0.2815 0.0445,-0.2856 0.0160,-0.2884 -0.0134,-0.2901 -0.0436,-0.2905 -0.0745,-0.2897 -0.1059,-0.2877 -0.1377,-0.2845 -0.1698,-0.2800 -0.2022,-0.2744 -0.2345,-0.2677 -0.2668,-0.2598 -0.2989,-0.2508 -0.3306,-0.2407 -0.3619,-0.2297 -0.3925,-0.2176 -0.4225,-0.2046 -0.4517,-0.1907 -0.4799,-0.1760 -0.5071,-0.1605 -0.5331,-0.1444 -0.5578,-0.1275 -0.5812,-0.1101 -0.6032,-0.0922 -0.6236,-0.0739 -0.6424,-0.0551 -0.6595,-0.0361 -0.6748,-0.0169 -0.6883,0.0025 -0.7000,0.0219 -0.7097,0.0413 -0.7175,0.0607 -0.7232,0.0798 -0.7270,0.0988 -0.7288,0.1174 -0.7285,0.1356 -0.7262,0.1534 -0.7218,0.1706 -0.7155,0.1872 -0.7071,0.2032 -0.6969,0.2185 -0.6847,0.2329 -0.6707,0.2465 -0.6548,0.2592 -0.6372,0.2710 -0.6180,0.2818 -0.5971,0.2915 -0.5748,0.3002 -0.5510,0.3077 -0.5259,0.3141 -0.4995,0.3194 -0.4721,0.3234 -0.4436,0.3263 -0.4142,0.3279 -0.3840,0.3284 -0.3531,0.3276 -0.3217,0.3256 -0.2899,0.3223 -0.2577,0.3179 -0.2254,0.3123 -0.1931,0.3056 -0.1608,0.2977 -0.1287,0.2887 -0.0970,0.2786 -0.0657,0.2675 -0.0350,0.2555 -0.0050,0.2425 0.0241,0.2286 0.0523,0.2139 0.0795,0.1984 0.1055,0.1822 0.1303,0.1654 0.1536,0.1480 0.1756,0.1301 0.1960,0.1117 0.2148,0.0930 0.2319,0.0740 0.2472,0.0548 0.2607,0.0354 0.2724,0.0160 0.2821,-0.0034 0.2899,-0.0228 0.2957,-0.0419 0.2994,-0.0609 0.3012,-0.0795 0.3009,-0.0977 0.2986,-0.1155 0.2942,-0.1327 0.2879,-0.1494 0.2796,-0.1653 0.2693,-0.1806 0.2571,-0.1950 0.2431,-0.2087 0.2272,-0.2214 0.2097,-0.2331 0.1904,-0.2439 0.1696,-0.2536 0.1472,-0.2623 0.1234,-0.2699"/></g><g stroke-width="0.0030" stroke="rgb(2%, 29%, 48%)" stroke-opacity="1.0" fill="rgb(2%, 73%, 80%)" fill-opacity="0.2"><circle cx="-0.2138" cy="0.0189" r="0.0150"/></g><g stroke-width="0.0030" stroke="rgb(2%, 29%, 48%)" stroke-opacity="1.0" fill="rgb(100%, 71%, 35%)" fill-opacity="0.2"><circle cx="0.2994" cy="-0.0606" r="0.0150"/><circle cx="-0.1502" cy="-0.2829" r="0.0150"/></g><g stroke-width="0.0020" stroke="rgb(50%, 50%, 50%)" stroke-opacity="1.0" fill="rgb(53%, 51%, 28%)" fill-opacity="0.00"><rect width="1.0283" height="0.6113" x="-0.7289" y="-0.2829"/></g><g stroke-width="0.0050" stroke="rgb(21%, 29%, 7%)" stroke-opacity="1.0" fill="none" stroke-linecap="round" stroke-dasharray="0.0300 0.0100"><polyline points="0.1234,-0.2699 -0.5510,0.3077"/></g><g stroke-width="0.0050" stroke="rgb(73%, 34%, 1%)" stroke-opacity="1.0" fill="none" stroke-linecap="round" stroke-dasharray="0.0300 0.0100"><polyline points="-0.6032,-0.0922 0.1756,0.1301"/></g></g><g class="datapadding"></g></g><g class="hud"><g class="frame"><g stroke-width="0" stroke="rgb(0%, 0%, 0%)" stroke-opacity="0" fill="rgb(100%, 100%, 100%)" fill-opacity="0.02"><rect width="1.3488" height="0.7781" x="-0.8247" y="-0.3940"/></g></g><g class="axis"><g class="axisbar"><g stroke-width="0" stroke="rgb(0%, 0%, 0%)" stroke-opacity="0" fill="rgb(5%, 5%, 5%)" fill-opacity="0.4"><rect width="0.0027" height="0.7812" x="-0.8341" y="-0.3956"/></g></g><g class="ticks"><g class="ticklines"><g stroke-width="0.0050" stroke="rgb(5%, 5%, 5%)" stroke-opacity="0.05" fill="none"><polyline points="-0.8247,0.3841 0.5242,0.3841"/><polyline points="-0.8247,0.2729 0.5242,0.2729"/><polyline points="-0.8247,0.1618 0.5242,0.1618"/><polyline points="-0.8247,0.0506 0.5242,0.0506"/><polyline points="-0.8247,-0.0606 0.5242,-0.0606"/><polyline points="-0.8247,-0.1717 0.5242,-0.1717"/><polyline points="-0.8247,-0.2829 0.5242,-0.2829"/><polyline points="-0.8247,-0.3940 0.5242,-0.3940"/></g></g><g class="tickglyph"><g stroke-width="0.0027" stroke="rgb(5%, 5%, 5%)" stroke-opacity="0.4" fill="rgb(5%, 5%, 5%)" fill-opacity="0.4"><polyline points="-0.8530,0.3841
-0.8327,0.3841"/><polyline points="-0.8530,0.2729
-0.8327,0.2729"/><polyline points="-0.8530,0.1618
-0.8327,0.1618"/><polyline points="-0.8530,0.0506
-0.8327,0.0506"/><polyline points="-0.8530,-0.0606
-0.8327,-0.0606"/><polyline points="-0.8530,-0.1717
-0.8327,-0.1717"/><polyline points="-0.8530,-0.2829
-0.8327,-0.2829"/><polyline points="-0.8530,-0.3940
-0.8327,-0.3940"/></g></g><g class="ticktext"><g stroke-width="0.0" stroke="none" fill="rgb(5%, 5%, 5%)" fill-opacity="1.0" font-size="0.0400" text-anchor="end"><text x="-0.9083" y="0.3926">-2.0</text><text x="-0.9083" y="0.2815">-1.5</text><text x="-0.9083" y="0.1703">-1.0</text><text x="-0.9083" y="0.0592">-0.5</text><text x="-0.9083" y="-0.0520"> 0.0</text><text x="-0.9083" y="-0.1632"> 0.5</text><text x="-0.9083" y="-0.2743"> 1.0</text><text x="-0.9083" y="-0.3855"> 1.5</text></g></g></g></g><g class="axis"><g class="axisbar"><g stroke-width="0" stroke="rgb(0%, 0%, 0%)" stroke-opacity="0" fill="rgb(5%, 5%, 5%)" fill-opacity="0.4"><rect width="1.3515" height="0.0031" x="-0.8260" y="0.3918"/></g></g><g class="ticks"><g class="ticklines"><g stroke-width="0.0050" stroke="rgb(5%, 5%, 5%)" stroke-opacity="0.05" fill="none"><polyline points="-0.8247,0.3841 -0.8247,-0.3940"/><polyline points="-0.5998,0.3841 -0.5998,-0.3940"/><polyline points="-0.3750,0.3841 -0.3750,-0.3940"/><polyline points="-0.1502,0.3841 -0.1502,-0.3940"/><polyline points="0.0746,0.3841 0.0746,-0.3940"/><polyline points="0.2994,0.3841 0.2994,-0.3940"/><polyline points="0.5242,0.3841 0.5242,-0.3940"/></g></g><g class="tickglyph"><g stroke-width="0.0031" stroke="rgb(5%, 5%, 5%)" stroke-opacity="0.4" fill="rgb(5%, 5%, 5%)" fill-opacity="0.4"><polyline points="-0.8247,0.4167
-0.8247,0.3934"/><polyline points="-0.5998,0.4167
-0.5998,0.3934"/><polyline points="-0.3750,0.4167
-0.3750,0.3934"/><polyline points="-0.1502,0.4167
-0.1502,0.3934"/><polyline points="0.0746,0.4167
0.0746,0.3934"/><polyline points="0.2994,0.4167
0.2994,0.3934"/><polyline points="0.5242,0.4167
0.5242,0.3934"/></g></g><g class="ticktext"><g stroke-width="0.0" stroke="none" fill="rgb(5%, 5%, 5%)" fill-opacity="1.0" font-size="0.0400" text-anchor="middle"><text x="-0.8247" y="0.4595">-2.0</text><text x="-0.5998" y="0.4595">-1.0</text><text x="-0.3750" y="0.4595">-0.5</text><text x="-0.1502" y="0.4595"> 0.0</text><text x="0.0746" y="0.4595"> 0.5</text><text x="0.2994" y="0.4595"> 1.0</text><text x="0.5242" y="0.4595"> 2.0</text></g></g></g></g><g class="legend"><g class="padding"></g><g class="padding"></g><g class="frame"><g stroke-width="0.0008" stroke="rgb(5%, 5%, 5%)" stroke-opacity="1.0" fill="rgb(5%, 5%, 5%)" fill-opacity="0"><rect width="0.3625" height="0.4552" x="0.6071" y="-0.3851"/></g></g><g class="legendContent"><g stroke-width="0.0" stroke="none" fill="rgb(5%, 5%, 5%)" fill-opacity="1.0" font-size="0.0337" text-anchor="start"><text x="0.6240" y="0.0390">Bounding Box</text></g><g stroke-width="0.0017" stroke="rgb(50%, 50%, 50%)" stroke-opacity="1.0" fill="rgb(53%, 51%, 28%)" fill-opacity="0.00"><rect width="0.0169" height="0.0195" x="0.9174" y="0.0195"/></g><g stroke-width="0.0" stroke="none" fill="rgb(5%, 5%, 5%)" fill-opacity="1.0" font-size="0.0337" text-anchor="start"><text x="0.6240" y="-0.0233">Endpoints</text></g><g stroke-width="0.0005" stroke="rgb(2%, 29%, 48%)" stroke-opacity="1.0" fill="rgb(100%, 71%, 35%)" fill-opacity="0.2"><rect width="0.0169" height="0.0169" x="0.9174" y="-0.0414"/></g><g stroke-width="0.0" stroke="none" fill="rgb(5%, 5%, 5%)" fill-opacity="1.0" font-size="0.0337" text-anchor="start"><text x="0.6240" y="-0.0855">Centroid</text></g><g stroke-width="0.0005" stroke="rgb(2%, 29%, 48%)" stroke-opacity="1.0" fill="rgb(2%, 73%, 80%)" fill-opacity="0.2"><rect width="0.0169" height="0.0169" x="0.9174" y="-0.1037"/></g><g stroke-width="0.0" stroke="none" fill="rgb(5%, 5%, 5%)" fill-opacity="1.0" font-size="0.0337" text-anchor="start"><text x="0.6240" y="-0.1478">Arc</text></g><g stroke-width="0.0034" stroke="rgb(66%, 7%, 55%)" stroke-opacity="1.0" fill="none"><polyline points="0.9174,-0.1575 0.9511,-0.1575"/></g><g stroke-width="0.0" stroke="none" fill="rgb(5%, 5%, 5%)" fill-opacity="1.0" font-size="0.0337" text-anchor="start"><text x="0.6240" y="-0.2100">Full Ellipse</text></g><g stroke-width="0.0013" stroke="rgb(2%, 29%, 48%)" stroke-opacity="1.0" fill="none"><polyline points="0.9174,-0.2197 0.9511,-0.2197"/></g><g stroke-width="0.0" stroke="none" fill="rgb(5%, 5%, 5%)" fill-opacity="1.0" font-size="0.0337" text-anchor="start"><text x="0.6240" y="-0.2723">Minor Axis</text></g><g stroke-width="0.0034" stroke="rgb(73%, 34%, 1%)" stroke-opacity="1.0" fill="none" stroke-linecap="round" stroke-dasharray="0.0300 0.0100"><polyline points="0.9174,-0.2820 0.9511,-0.2820"/></g><g stroke-width="0.0" stroke="none" fill="rgb(5%, 5%, 5%)" fill-opacity="1.0" font-size="0.0337" text-anchor="start"><text x="0.6240" y="-0.3345">Major Axis</text></g><g stroke-width="0.0034" stroke="rgb(21%, 29%, 7%)" stroke-opacity="1.0" fill="none" stroke-linecap="round" stroke-dasharray="0.0300 0.0100"><polyline points="0.9174,-0.3442 0.9511,-0.3442"/></g></g></g><g class="title"><g stroke-width="0.0" stroke="none" fill="rgb(5%, 5%, 5%)" fill-opacity="1.0" font-size="0.0320" text-anchor="middle"><text x="0" y="-0.4490">ArcPosition (Point 1 0) (Point 0 1) (ArcInfo (Point 1.5 1) (pi / 3) True True)</text></g></g><g class="frame"><g stroke-width="0" stroke="rgb(0%, 0%, 0%)" stroke-opacity="0" fill="rgb(0%, 0%, 0%)" fill-opacity="0"><rect width="2.0" height="1.0" x="-1.0" y="-0.5"/></g></g></g></svg>