<svg xmlns="http://www.w3.org/2000/svg" height="300.0" viewBox="-1.6600749999999997 -1.53175 3.1975749999999996 3.66925" width="261.435579478095" xmlns:xlink="http://www.w3.org/1999/xlink"><g stroke-opacity="0.0" fill-opacity="2.5e-2" stroke="#000000" stroke-width="0.0" fill="#808080"><rect height="3.4999999999999996" width="3.0" x="-1.5" y="-1.4999999999999996"/></g><g stroke-opacity="5.0e-2" stroke="#808080" stroke-width="5.0e-3" fill="none"><polyline points="-1.5,2.0
1.4999999999999998,2.0"/></g><g stroke-opacity="5.0e-2" stroke="#808080" stroke-width="5.0e-3" fill="none"><polyline points="-1.5,1.5
1.4999999999999998,1.5"/></g><g stroke-opacity="5.0e-2" stroke="#808080" stroke-width="5.0e-3" fill="none"><polyline points="-1.5,1.0000000000000002
1.4999999999999998,1.0000000000000002"/></g><g stroke-opacity="5.0e-2" stroke="#808080" stroke-width="5.0e-3" fill="none"><polyline points="-1.5,0.5000000000000002
1.4999999999999998,0.5000000000000002"/></g><g stroke-opacity="5.0e-2" stroke="#808080" stroke-width="5.0e-3" fill="none"><polyline points="-1.5,-0.0
1.4999999999999998,-0.0"/></g><g stroke-opacity="5.0e-2" stroke="#808080" stroke-width="5.0e-3" fill="none"><polyline points="-1.5,-0.4999999999999991
1.4999999999999998,-0.4999999999999991"/></g><g stroke-opacity="5.0e-2" stroke="#808080" stroke-width="5.0e-3" fill="none"><polyline points="-1.5,-1.0
1.4999999999999998,-1.0"/></g><g stroke-opacity="5.0e-2" stroke="#808080" stroke-width="5.0e-3" fill="none"><polyline points="-1.5,-1.4999999999999996
1.4999999999999998,-1.4999999999999996"/></g><g fill-opacity="1.0" font-size="5.0e-2" stroke="none" stroke-width="0.0" fill="#808080" text-anchor="end"><text x="-1.5600749999999997" y="2.0145">-2</text></g><g fill-opacity="1.0" font-size="5.0e-2" stroke="none" stroke-width="0.0" fill="#808080" text-anchor="end"><text x="-1.5600749999999997" y="1.5145">-1.5</text></g><g fill-opacity="1.0" font-size="5.0e-2" stroke="none" stroke-width="0.0" fill="#808080" text-anchor="end"><text x="-1.5600749999999997" y="1.0145000000000002">-1</text></g><g fill-opacity="1.0" font-size="5.0e-2" stroke="none" stroke-width="0.0" fill="#808080" text-anchor="end"><text x="-1.5600749999999997" y="0.5145000000000002">-0.5</text></g><g fill-opacity="1.0" font-size="5.0e-2" stroke="none" stroke-width="0.0" fill="#808080" text-anchor="end"><text x="-1.5600749999999997" y="1.4499999999999957e-2">0</text></g><g fill-opacity="1.0" font-size="5.0e-2" stroke="none" stroke-width="0.0" fill="#808080" text-anchor="end"><text x="-1.5600749999999997" y="-0.48549999999999915">0.5</text></g><g fill-opacity="1.0" font-size="5.0e-2" stroke="none" stroke-width="0.0" fill="#808080" text-anchor="end"><text x="-1.5600749999999997" y="-0.9854999999999996">1</text></g><g fill-opacity="1.0" font-size="5.0e-2" stroke="none" stroke-width="0.0" fill="#808080" text-anchor="end"><text x="-1.5600749999999997" y="-1.4855">1.5</text></g><g stroke-opacity="1.0" fill-opacity="1.0" stroke="#808080" stroke-width="5.0e-3" fill="#808080"><g transform="rotate(-90.0, -1.5274999999999999, 2.0)"><polyline points="-1.5274999999999999,2.015
-1.5274999999999999,1.985"/></g><g transform="rotate(-90.0, -1.5274999999999999, 1.5)"><polyline points="-1.5274999999999999,1.515
-1.5274999999999999,1.485"/></g><g transform="rotate(-90.0, -1.5274999999999999, 1.0000000000000002)"><polyline points="-1.5274999999999999,1.0150000000000001
-1.5274999999999999,0.9850000000000002"/></g><g transform="rotate(-90.0, -1.5274999999999999, 0.5000000000000002)"><polyline points="-1.5274999999999999,0.5150000000000002
-1.5274999999999999,0.4850000000000002"/></g><g transform="rotate(-90.0, -1.5274999999999999, -0.0)"><polyline points="-1.5274999999999999,1.5e-2
-1.5274999999999999,-1.5e-2"/></g><g transform="rotate(-90.0, -1.5274999999999999, -0.4999999999999991)"><polyline points="-1.5274999999999999,-0.4849999999999991
-1.5274999999999999,-0.5149999999999991"/></g><g transform="rotate(-90.0, -1.5274999999999999, -1.0)"><polyline points="-1.5274999999999999,-0.985
-1.5274999999999999,-1.015"/></g><g transform="rotate(-90.0, -1.5274999999999999, -1.4999999999999996)"><polyline points="-1.5274999999999999,-1.4849999999999997
-1.5274999999999999,-1.5149999999999995"/></g></g><g stroke-opacity="1.0" fill-opacity="1.0" stroke="#808080" stroke-width="0.0" fill="#808080"><rect height="3.4999999999999996" width="4.999999999999893e-3" x="-1.515" y="-1.4999999999999996"/></g><g stroke-opacity="5.0e-2" stroke="#808080" stroke-width="5.0e-3" fill="none"><polyline points="-1.5,2.0
-1.5,-1.4999999999999996"/></g><g stroke-opacity="5.0e-2" stroke="#808080" stroke-width="5.0e-3" fill="none"><polyline points="-1.0,2.0
-1.0,-1.4999999999999996"/></g><g stroke-opacity="5.0e-2" stroke="#808080" stroke-width="5.0e-3" fill="none"><polyline points="-0.5,2.0
-0.5,-1.4999999999999996"/></g><g stroke-opacity="5.0e-2" stroke="#808080" stroke-width="5.0e-3" fill="none"><polyline points="0.0,2.0
0.0,-1.4999999999999996"/></g><g stroke-opacity="5.0e-2" stroke="#808080" stroke-width="5.0e-3" fill="none"><polyline points="0.4999999999999998,2.0
0.4999999999999998,-1.4999999999999996"/></g><g stroke-opacity="5.0e-2" stroke="#808080" stroke-width="5.0e-3" fill="none"><polyline points="0.9999999999999998,2.0
0.9999999999999998,-1.4999999999999996"/></g><g stroke-opacity="5.0e-2" stroke="#808080" stroke-width="5.0e-3" fill="none"><polyline points="1.4999999999999998,2.0
1.4999999999999998,-1.4999999999999996"/></g><g fill-opacity="1.0" font-size="5.0e-2" stroke="none" stroke-width="0.0" fill="#808080" text-anchor="middle"><text x="-1.5" y="2.11125">-1.5</text></g><g fill-opacity="1.0" font-size="5.0e-2" stroke="none" stroke-width="0.0" fill="#808080" text-anchor="middle"><text x="-1.0" y="2.11125">-1</text></g><g fill-opacity="1.0" font-size="5.0e-2" stroke="none" stroke-width="0.0" fill="#808080" text-anchor="middle"><text x="-0.5" y="2.11125">-0.5</text></g><g fill-opacity="1.0" font-size="5.0e-2" stroke="none" stroke-width="0.0" fill="#808080" text-anchor="middle"><text x="0.0" y="2.11125">0</text></g><g fill-opacity="1.0" font-size="5.0e-2" stroke="none" stroke-width="0.0" fill="#808080" text-anchor="middle"><text x="0.4999999999999998" y="2.11125">0.5</text></g><g fill-opacity="1.0" font-size="5.0e-2" stroke="none" stroke-width="0.0" fill="#808080" text-anchor="middle"><text x="0.9999999999999998" y="2.11125">1</text></g><g fill-opacity="1.0" font-size="5.0e-2" stroke="none" stroke-width="0.0" fill="#808080" text-anchor="middle"><text x="1.4999999999999998" y="2.11125">1.5</text></g><g stroke-opacity="1.0" fill-opacity="1.0" stroke="#808080" stroke-width="5.0e-3" fill="#808080"><polyline points="-1.5,2.0425
-1.5,2.0124999999999997"/><polyline points="-1.0,2.0425
-1.0,2.0124999999999997"/><polyline points="-0.5,2.0425
-0.5,2.0124999999999997"/><polyline points="0.0,2.0425
0.0,2.0124999999999997"/><polyline points="0.4999999999999998,2.0425
0.4999999999999998,2.0124999999999997"/><polyline points="0.9999999999999998,2.0425
0.9999999999999998,2.0124999999999997"/><polyline points="1.4999999999999998,2.0425
1.4999999999999998,2.0124999999999997"/></g><g stroke-opacity="1.0" fill-opacity="1.0" stroke="#808080" stroke-width="0.0" fill="#808080"><rect height="4.999999999999893e-3" width="3.0" x="-1.5" y="2.01"/></g><g stroke-opacity="1.0" stroke="#1f78b4" stroke-width="2.0e-3" fill="none"><polyline points="1.0000000000000007,-0.0
0.9940146461148014,6.427210796446436e-2
0.9854684971040972,0.129205801530343
0.9743808284486224,0.194654625474612
0.9607766479200979,0.2604709627192794
0.944686639177253,0.32650636727551374
0.9261470925601178,0.3926118990573497
0.9051998232386829,0.45863845980980367
0.881892076900537,0.5244371293937398
0.8562764231902011,0.5898595016689938
0.8284106371404973,0.6547580192182043
0.7983575688633866,0.7189863061563773
0.7661850017941771,0.7823994982755582
0.7319654998088259,0.844854569779977
0.6957762435591623,0.9062106558747358
0.6576988563951607,0.9663293704804432
0.6178192202669004,1.0250751183572175
0.5762272820214285,1.0823154009340614
0.5330168505314148,1.1379211151538344
0.4882853851131761,1.191766844659785
0.44213377571127466,1.2437311426668831
0.3946661153454769,1.2936968058799505
0.3459894653333131,1.3415511388407824
0.29621361381776734,1.3871862081080222
0.24545082814471986,1.430499085696519
0.19381560164866296,1.4713920812270747
0.14142439541777652,1.5097729622630052
8.839537562083555e-2,1.545555162336529
3.484814698836969e-2,1.5786579761958062
-1.9096516950796172e-2,1.6090067418322525
-7.331694626916563e-2,1.6365330088775658
-0.12769084906199324,1.6611746929906617
-0.18209558727154862,1.6828762158863042
-0.2364084532921109,1.7015886306895949
-0.29050694673182864,1.7172697323335977
-0.3442690507072199,1.7298841527510982
-0.39757350704712957,1.7394034406457948
-0.4503000897854581,1.7458061256630062
-0.5023298763257824,1.7490777668151547
-0.553545515666283,1.7492109850528088
-0.6038314930800135,1.7462054799078195
-0.6530743906535196,1.740068030171014
-0.701163143096187,1.730812478602917
-0.7479892882433503,1.7184597007119842
-0.793447211688153,1.7030375576707697
-0.8374343849904167,1.6845808334762182
-0.8798515969252381,1.6631311564958184
-0.9206031772497456,1.6387369055765686
-0.959597212483321,1.6114531009285114
-0.9967457532146013,1.5813412800289601
-1.0319650124676871,1.5484693588272997
-1.0651755546801553,1.5129114785634061
-1.0963024748666366,1.4747478385451958
-1.1252755675638715,1.4340645152624427
-1.1520294851761868,1.39095326824487
-1.176503885364259,1.3455113331023756
-1.19864356714473,1.2978412022141925
-1.2183985953937093,1.2480503935616256
-1.2357244134733536,1.1962512082257506
-1.250581943727494,1.1425604770970392
-1.2629376756196518,1.0870992973681812
-1.2727637413146469,1.0299927594044442
-1.2800379785333331,0.9713696646076042
-1.2847439805386887,0.9113622349097763
-1.2868711331405234,0.850105814552401
-1.2864146386353401,0.7877385648229778
-1.2833755266273537,0.7244011524380729
-1.2777606517062607,0.6602364322754448
-1.2695826779870025,0.5953891251708496
-1.2588600505463818,0.5300054915062733
-1.2456169538209676,0.46423300132576384
-1.2298832570601115,0.3982200017229367
-1.2116944469571096,0.3321153822503291
-1.1910915476104509,0.26606823910524224
-1.1681210279956875,0.20022753884954136
-1.142834697156606,0.13474178242180646
-1.1152895873521018,6.975867019969684e-2
-1.0855478254223112,5.424768867944518e-3
-1.0536764926641298,-5.81148191566605e-2
-1.0197474735321572,-0.12071678299768429
-0.983837293506328,-0.1822399265507202
-0.9460269464918964,-0.242545486945287
-0.9064017121410812,-0.3014974475186625
-0.8650509635083894,-0.35896284459575467
-0.8220679654734302,-0.4148120673831128
-0.7775496643859012,-0.4689191503006187
-0.7315964694071551,-0.5211620570915811
-0.6843120260415457,-0.5714229560703963
-0.6358029823683446,-0.6195884858869642
-0.5861787485014646,-0.6655500112084733
-0.5355512498195376,-0.7092038677418295
-0.4840346745229174,-0.7504515960441251
-0.4317452160869837,-0.7892001635937809
-0.37880081119262377,-0.8253621746215032
-0.3253208737250024,-0.8588560672277712
-0.2714260254405456,-0.8896062973422842
-0.2172378239096271,-0.917543509110446
-0.162878488348571,-0.9426046913225812
-0.10847062395932583,-0.9647333195330812
-5.4136945398582714e-2,-0.9838794835489195
0.0,-1.0"/></g><g stroke-opacity="1.0" stroke="#1f78b4" stroke-width="2.0e-3" fill="none"><polyline points="0.6086376856300111,-0.9414395063606071
0.5527795469220063,-0.97027141116074
0.49418194741073385,-0.9938628196756247
0.43307614505076675,-1.01212062739374
0.36970329652743517,-1.024972779089223
0.3043135055215589,-1.032368553190921
0.23716483566448598,-1.0342787619572622
0.16852229207883185,-1.030695866666938
9.865677552433416e-2,-1.021634007370789
2.784401327631536e-2,-1.0071289470874882
-4.363652904390536e-2,-0.9872379306632406
-0.11550275039214375,-0.9620394588525345
-0.18747102762529178,-0.9316329785115176
-0.25925733483228797,-0.8961384901266976
-0.3305783642546314,-0.8556960742278399
-0.4011526443726703,-0.8104653385541143
-0.4707016507451012,-0.7606247881552681
-0.5389509052176902,-0.7063711209137438
-0.6056310591631523,-0.647918451268001
-0.6704789564771294,-0.5854974652006462
-0.7332386721351098,-0.5193545098262522
-0.7936625222115784,-0.44975062117184006
-0.8515120413753137,-0.37696049398693576
-0.9065589240031089,-0.30127139764889277
-0.95858592519776,-0.222982042441898
-1.0073877181544273,-0.14240140068394957
-1.05277170449173,-5.984748735427292e-2
-1.0945587743495653,2.4353894966514744e-2
-1.132584013253901,0.10987044189034778
-1.1666973529588605,0.1963646586753094
-1.1967641636975312,0.2834951921631996
-1.2226657855041465,0.37091817794449544
-1.2442999965107613,0.4582885974340818
-1.261581416370263,0.5452616395019809
-1.2744418432135962,0.6314940612853537
-1.2828305228113803,0.7166455428112668
-1.286714348877666,0.8003800300841504
-1.2860779937253213,0.8823670613373866
-1.280923968757409,0.9622830712149295
-1.2712726145558277,1.0398126677359452
-1.2571620206063265,1.1146498770028688
-1.2386478749767074,1.1864993507405912
-1.2158032445414615,1.2550775319011742
-1.188718286620198,1.3201137737339654
-1.1574998931678915,1.3813514079046847
-1.1222712689211713,1.438548757448074
-1.083171445165512,1.4914800905564687
-1.0403547310422663,1.539936511440116
-0.9939901045609831,1.5837267847434204
-0.944260545720401,1.6226780902635274
-0.8913623143699891,1.656636704992708
-0.8355041756619843,1.6854686097928409
-0.7769065761507111,1.7090600183077247
-0.7158007737907442,1.7273178260258404
-0.6524279252674124,1.7401699777213238
-0.5870381342615362,1.7475657518230214
-0.5198894644044634,1.749475960589363
-0.4512469208188097,1.7458930652990383
-0.38138140426431155,1.7368312060028894
-0.3105686420162932,1.7223261457195886
-0.23908809969607248,1.7024351292953415
-0.16722187834783409,1.6772366574846354
-9.52536011146865e-2,1.6468301771436185
-2.3467293907689424e-2,1.611335688758798
4.7853735514653994e-2,1.5708932728599398
0.1184280156326929,1.5256625371862147
0.18797702200512378,1.475821986787368
0.25622627647771257,1.4215683195458442
0.322906430423175,1.363115649900101
0.38775432773715246,1.300694663832747
0.4505140433951327,1.2345517084583535
0.5109378934716007,1.16494781980394
0.5687874126353367,1.0921576926190362
0.6238342952631306,1.0164685962809938
0.6758612964577819,0.9381792410739986
0.7246630894144495,0.8575985993160506
0.7700470757517521,0.7750446859863742
0.8118341456095874,0.6908433036655857
0.8498593845139231,0.605326756741754
0.8839727242188828,0.518832539956791
0.9140395349575534,0.4317020064689012
0.9399411567641687,0.34427902068760585
0.9615753677707832,0.25690860119802017
0.9788567876302856,0.16993555913011926
0.9917172144736186,8.370313734674761e-2
1.000105894071403,-1.4483441791663942e-3
1.0039897201376886,-8.518283145204997e-2
1.0033533649853437,-0.16716986270528622
0.9981993400174314,-0.24708587258282888
0.9885479858158506,-0.3246154691038452
0.9744373918663489,-0.39945267837076814
0.9559232462367298,-0.4713021521084908
0.9330786158014834,-0.5398803332690738
0.9059936578802208,-0.604916575101865
0.8747752644279136,-0.6661542092725843
0.8395466401811935,-0.7233515588159736
0.8004468164255341,-0.7762828919243683
0.7576301023022889,-0.8247393128080152
0.7112654758210055,-0.8685295861113196
0.6615359169804227,-0.907480891631427
0.6086376856300111,-0.9414395063606071"/></g><g stroke-opacity="0.8" fill-opacity="0.3" stroke="#1f78b4" stroke-width="3.0e-3" fill="#a6cee3"><rect height="3.0000000000000027e-2" width="3.0000000000000027e-2" x="-0.1563623143699887" y="0.3425985993160502"/><rect height="3.0e-2" width="2.9999999999999916e-2" x="0.9849999999999998" y="-1.5e-2"/><rect height="2.9999999999999916e-2" width="3.0e-2" x="-1.5e-2" y="-1.015"/></g><g stroke-opacity="1.0" fill-opacity="0.1" stroke="#808080" stroke-width="2.0e-3" fill="#6666cc"><rect height="2.7495396900235556" width="2.2870062381089493" x="-1.2870062381089489" y="-1.0"/></g><g stroke-opacity="1.0" stroke="#e63305" stroke-width="5.0e-3" fill="none" stroke-linecap="round" stroke-dasharray="3.0e-2 1.0e-2"><polyline points="0.6086376856300111,-0.9414395063606071
-0.8913623143699891,1.656636704992708"/></g><g stroke-opacity="1.0" stroke="#e6e605" stroke-width="5.0e-3" fill="none" stroke-linecap="round" stroke-dasharray="3.0e-2 1.0e-2"><polyline points="-1.0073877181544273,-0.14240140068394957
0.7246630894144495,0.8575985993160506"/></g><g></g></svg>