<svg width="454.2502476613275" xmlns:xlink="http://www.w3.org/1999/xlink" xmlns="http://www.w3.org/2000/svg" viewBox="-0.7066421978499292 -0.46919882723422746 1.4565985449017265 0.9619798023672494" height="300.0"><style>svg {
  color-scheme: light dark;
}
{
  .canvas g, .title g, .axisbar g, .ticktext g, .tickglyph g, .ticklines g, .legendContent g text {
    fill: #0d0d0d;
  }
  .ticklines g, .tickglyph g, .legendBorder g {
    stroke: #0d0d0d;
  }
}
@media (prefers-color-scheme:dark) {
  .canvas g, .title g, .axisbar g, .ticktext g, .tickglyph g, .ticklines g, .legendContent g text {
    fill: #f0f0f0;
  }
  .ticklines g, .tickglyph g, .legendBorder g {
    stroke: #f0f0f0;
  }
}</style><g class="chart"><g class="ellipse"><g stroke-opacity="1.0" fill="none" stroke="#1f78b5" stroke-width="5.0e-3"><polyline points="0.21698116425960146,-3.2338301402926595e-2
0.2152217817581965,-1.8050870674847785e-2
0.2127096587806374,-3.6163721322803877e-3
0.2094504613149607,1.0932637818583113e-2
0.20545154034438518,2.556334449587111e-2
0.20072191526747596,4.024274895417046e-2
0.19527225355527078,5.4937742412265844e-2
0.1891148466912449,6.961518092860564e-2
0.18226358244838647,8.424196015607399e-2
0.17473391356590684,9.878509000745644e-2
0.16654282289623445,0.11321176906319891
0.15770878510090425,0.12748945855363364
0.1482517249817329,0.1415859557488101
0.13819297254126406,0.15546946659040178
0.12755521487384103,0.16910867740187208
0.11636244499581783,0.18247282551515775
0.10463990773031728,0.1955317686545776
9.241404276858955e-2,0.2082560529214712
7.97124250363982e-2,0.2206169792262318
6.656370249993104e-2,0.23258666801790007
5.2997531551514654e-2,0.24413812216532182
3.9044510120863185e-2,0.2552452878480457
2.4736108662732348e-2,0.2658831133196224
1.0104599176628426e-2,0.27602760541076804
-4.817017581334904e-3,0.28565588364495254
-1.99950865302555e-2,0.29474623184435317
-3.539537417206984e-2,0.30327814710978496
-5.0983145803769836e-2,0.3112323860641286
-6.672324386006961e-2,0.3185910082549615
-8.258016720982064e-2,0.3253374166184956
-9.851815122732338e-2,0.3314563949135587
-0.11450124845794102,0.33693414204118854
-0.1304934096960768,0.34175830317243294
-0.14645856529264478,0.345917997614148
-0.16236070650865103,0.34940384334994556
-0.17816396673139523,0.352207978200938
-0.19383270237011008,0.3543240775585523
-0.2093315732485873,0.3557473686494201
-0.224625622313463,0.3564746413001677
-0.23968035447838393,0.3565042551778276
-0.2544618144262307,0.3558361434895403
-0.26893666319391035,0.35447181313320353
-0.28307225336698955,0.3524143412987266
-0.2968367027145697,0.3496683685275576
-0.3101989660983211,0.3462400882461376
-0.3231289054934907,0.3421372327968856
-0.33559735796395407,0.33736905599822564
-0.3475762014379937,0.3319463122729871
-0.3590384181364533,0.32588123239225436
-0.36995815551020556,0.31918749588937634
-0.38031078454949263,0.3118802002063522
-0.3900729553336253,0.3039758266421836
-0.3992226496957492,0.295492203179997
-0.4077392308838976,0.28644846427677406
-0.4156034901063195,0.2768650077063871
-0.4227976898561047,0.26676344855327505
-0.4293056039173863,0.25616657046052704
-0.43511255396289017,0.24509827424233083
-0.44020544266028705,0.2335835239766882
-0.444572783212676,0.22164829069998443
-0.44820472526657334,0.2093194938304045
-0.451093077128972,0.1966249404523141
-0.4532313242433611,0.18359326259854658
-0.4546146438830358,0.170253852672054
-0.4552399160285543,0.15663679715257472
-0.4551057304048115,0.14277280873783976
-0.454212389661855,0.1286931570723705
-0.45256190869227086,0.11442959822010795
-0.45015801008667755,0.10001430303994024
-0.4470061157375794,8.547978462568168e-2
-0.44311333461051466,7.085882497415069e-2
-0.4384884467100826,5.61844010467521e-2
-0.43314188327701103,4.1489610391323595e-2
-0.42708570326092965,2.6807596492002483e-2
-0.42033356612191597,1.2171474015490069e-2
-0.4129007010221549,-2.385745877692913e-3
-0.4048038724772026,-1.6831229988493956e-2
-0.396061342544324,-3.113239713323246e-2
-0.3866928296331895,-4.525699162909269e-2
-0.3767194640318272,-5.9173156045464914e-2
-0.366163740248146,-7.284950305704352e-2
-0.3550494662745153,-8.62551862366232e-2
-0.3434017098898361,-9.935996962792293e-2
-0.3312467421202183,-0.11213429594151525
-0.31861197798578106,-0.12454935322005667
-0.30552591466722623,-0.13657713982244568
-0.2920180672316415,-0.14819052758035212
-0.27811890206250345,-0.15936332298466382
-0.2638597681440288,-0.17007032626384544
-0.24927282635485343,-0.18028738822096946
-0.23439097693052002,-0.18999146470121597
-0.21924778525837602,-0.19916066856699688
-0.20387740617225103,-0.20777431906347799
-0.18831450691765927,-0.215812988463154
-0.1725941889612831,-0.22325854588427274
-0.15675190882108525,-0.23009419818427979
-0.14082339809561967,-0.23630452783604672
-0.12484458287291073,-0.2418755277014566
-0.10885150270066546,-0.24679463262391754
-9.288022930058804e-2,-0.2510507477685455
-7.696678521012035e-2,-0.2546342736461006"/></g><g stroke-opacity="1.0" fill="none" stroke="#a6cfe3" stroke-width="2.0e-3"><polyline points="0.10194101445081849,-0.24161651177749155
8.552162911640504e-2,-0.24802572808665968
6.82969848962186e-2,-0.2532700031790618
5.033505959180418e-2,-0.25732864029678915
3.170674071631552e-2,-0.26018562185335337
1.2485545733884607e-2,-0.26182967264778134
-7.252668080221292e-3,-0.2622543043626825
-2.7430003013610316e-2,-0.2614578411706743
-4.7966828343447676e-2,-0.25944342634810613
-6.878209460253976e-2,-0.2562190098699838
-8.97936534445522e-2,-0.2517973170350509
-0.11091858184600412,-0.24619579824484772
-0.13207350936555629,-0.2394365601349484
-0.15317494716905639,-0.23154627833017072
-0.174139617521824,-0.22255609216807126
-0.19488478244782326,-0.21250148180620654
-0.21532857025865593,-0.20142212819816008
-0.2353902986637107,-0.18936175649094789
-0.25499079318630463,-0.17636796346183847
-0.2740526996291713,-0.16249202967561827
-0.2925007893561374,-0.1477887171036305
-0.3102622561851812,-0.13231605300329208
-0.32726700372117057,-0.11613510091101964
-0.3434479219943113,-9.930971965234714e-2
-0.3587411523125378,-8.1906311320317e-2
-0.37308633928259605,-6.399355921675498e-2
-0.3864268690052081,-4.564215679065575e-2
-0.3987100925042668,-2.6924528643436973e-2
-0.4098875335082925,-7.914544702124549e-3
-0.4199150797641294,1.1312771311500325e-2
-0.42875315712785583,3.068153796525719e-2
-0.4363668857458507,5.0115315585911646e-2
-0.4427262177096404,6.953740793164315e-2
-0.44780605564126624,8.88711648770733e-2
-0.4515863517411694,0.10804028491629158
-0.45405218690769655,0.12696911629004115
-0.4551938296159782,0.14558295554865047
-0.45500677432381204,0.1638083423724201
-0.45349175925297847,0.1815733494859435
-0.4506547634758177,0.19880786652220378
-0.4465069833185619,0.2154438767161604
-0.4410647881745515,0.2314157253358478
-0.4343496559017175,0.24666037879160813
-0.42638808805928835,0.2611176734008706
-0.4172115053182438,0.27473055282672243
-0.40685612345828115,0.2874452932532029
-0.39536281044067767,0.29921171540866065
-0.38277692512111827,0.3099833826004156
-0.3691481382390156,0.31971778397916795
-0.35453023638979253,0.328376502309901
-0.338980909753764,0.3359253655871556
-0.3225615244193507,0.34233458189632376
-0.30533688019916405,0.34757885698872576
-0.2873749548947496,0.3516374941064532
-0.268746636019261,0.3544944756630174
-0.24952544103683022,0.3561385264574453
-0.22978722722272416,0.3565631581723465
-0.20960989228933535,0.3557666949803383
-0.18907306695949772,0.35375228015777005
-0.1682578007004058,0.35052786367964783
-0.1472462418583934,0.34610617084471496
-0.12612131345694144,0.34050465205451175
-0.10496638593738933,0.33374541394461243
-8.386494813388895e-2,0.32585513213983475
-6.290027778112134e-2,0.3168649459777353
-4.215511285512219e-2,0.30681033561587057
-2.171132504428941e-2,0.295730982007824
-1.6495966392348071e-3,0.2836706103006118
1.795089788335935e-2,0.2706768172715023
3.701280432622589e-2,0.2568008834852822
5.546089405319199e-2,0.24209757091329454
7.322236088223577e-2,0.2266249068129561
9.022710841822523e-2,0.21044395472068356
0.10640802669136562,0.19361857346201117
0.12170125700959233,0.17621516512998092
0.1360464439796505,0.158302413026419
0.14938697370226262,0.1399510106003199
0.16167019720132136,0.12123338245310095
0.1728476382053471,0.1022233985117888
0.182875184461184,8.299608249816365e-2
0.19171326182491033,6.362731584440678e-2
0.19932699044290514,4.419353822375255e-2
0.20568632240669482,2.4771445878021103e-2
0.21076616033832085,5.4376889325906674e-3
0.214546456438224,-1.37314311066275e-2
0.21701229160475122,-3.266026248037712e-2
0.21815393431303287,-5.127410173898639e-2
0.21796687902086664,-6.949948856275578e-2
0.21645186395003302,-8.726449567627947e-2
0.21361486817287234,-0.10449901271253981
0.20946708801561653,-0.12113502290649636
0.20402489287160608,-0.13710687152618373
0.19730976059877214,-0.15235152498194382
0.18934819275634285,-0.16680881959120653
0.18017161001529847,-0.1804216990170585
0.1698162281553358,-0.19313643944353887
0.15832291513773233,-0.2049028615989965
0.14573702981817283,-0.21567452879075155
0.13210824293607015,-0.22540893016950392
0.11749034108684686,-0.23406764850023698
0.10194101445081849,-0.24161651177749144"/></g><g stroke-opacity="1.0" fill="#a6cfe3" stroke="#1f78b5" stroke-width="3.0e-3" fill-opacity="1.0"><circle cx="-0.11851994765147267" cy="4.7154426904832014e-2" r="1.5e-2"/></g><g stroke-opacity="1.0" fill="#fa9999" stroke="#1f78b5" stroke-width="3.0e-3" fill-opacity="1.0"><rect width="3.0000000000000027e-2" x="0.2019811642596011" y="-4.7338301402926594e-2" height="3.0e-2"/><rect width="3.0e-2" x="-9.196678521012035e-2" y="-0.2696342736461005" height="3.0000000000000027e-2"/></g><g stroke-opacity="1.0" fill="#6666cc" stroke="#808080" stroke-width="2.0e-3" fill-opacity="0.1"><rect width="0.6722607941165877" x="-0.45527962985698617" y="-0.2546342736461006" height="0.6112115986149814"/></g><g stroke-opacity="1.0" fill="none" stroke="#e63305" stroke-dasharray="3.0e-2 1.0e-2" stroke-linecap="round" stroke-width="5.0e-3"><polyline points="0.10194101445081849,-0.24161651177749155
-0.338980909753764,0.3359253655871556"/></g><g stroke-opacity="1.0" fill="none" stroke="#e6e605" stroke-dasharray="3.0e-2 1.0e-2" stroke-linecap="round" stroke-width="5.0e-3"><polyline points="-0.37308633928259605,-6.399355921675498e-2
0.1360464439796505,0.158302413026419"/></g></g></g><g class="hud"><g class="frame"><g stroke-opacity="0.0" fill="#ffffff" stroke="#000000" stroke-width="0.0" fill-opacity="2.0e-2"><rect width="0.8818438484091647" x="-0.5178887094147028" y="-0.3657822597676875" height="0.7780359028511088"/></g></g><g class="axis"><g class="ticks"><g class="tickglyph"><g stroke-opacity="0.4" fill="#0d0d0d" stroke="#0d0d0d" stroke-width="4.0e-3" fill-opacity="0.4"><g transform="rotate(-90.0, -0.5334506596807468, 0.4122536430834213)"><polyline points="-0.5334506596807468,0.4272536430834213
-0.5334506596807468,0.39725364308342126"/></g><g transform="rotate(-90.0, -0.5334506596807468, 0.30110565696183433)"><polyline points="-0.5334506596807468,0.31610565696183435
-0.5334506596807468,0.2861056569618343"/></g><g transform="rotate(-90.0, -0.5334506596807468, 0.1899576708402474)"><polyline points="-0.5334506596807468,0.2049576708402474
-0.5334506596807468,0.17495767084024738"/></g><g transform="rotate(-90.0, -0.5334506596807468, 7.880968471866046e-2)"><polyline points="-0.5334506596807468,9.380968471866045e-2
-0.5334506596807468,6.380968471866046e-2"/></g><g transform="rotate(-90.0, -0.5334506596807468, -3.2338301402926595e-2)"><polyline points="-0.5334506596807468,-1.7338301402926595e-2
-0.5334506596807468,-4.7338301402926594e-2"/></g><g transform="rotate(-90.0, -0.5334506596807468, -0.14348628752451342)"><polyline points="-0.5334506596807468,-0.1284862875245134
-0.5334506596807468,-0.15848628752451344"/></g><g transform="rotate(-90.0, -0.5334506596807468, -0.2546342736461005)"><polyline points="-0.5334506596807468,-0.23963427364610046
-0.5334506596807468,-0.2696342736461005"/></g><g transform="rotate(-90.0, -0.5334506596807468, -0.3657822597676875)"><polyline points="-0.5334506596807468,-0.3507822597676875
-0.5334506596807468,-0.38078225976768754"/></g></g></g><g class="ticktext"><g fill="#0d0d0d" stroke="none" stroke-width="0.0" font-size="2.5936583776740144e-2" fill-opacity="1.0" text-anchor="end"><text x="-0.5521249999999998" y="0.4229516367476241">-2</text><text x="-0.5521249999999998" y="0.3118036506260371">-1.5</text><text x="-0.5521249999999998" y="0.20065566450445016">-1</text><text x="-0.5521249999999998" y="8.950767838286317e-2">-0.5</text><text x="-0.5521249999999998" y="-2.164030773872372e-2">0</text><text x="-0.5521249999999998" y="-0.13278829386031066">0.5</text><text x="-0.5521249999999998" y="-0.24393627998189782">1</text><text x="-0.5521249999999998" y="-0.35508426610348465">1.5</text></g></g><g class="ticklines"><g stroke-opacity="5.0e-2" fill="none" stroke="#0d0d0d" stroke-width="5.0e-3"><polyline points="-0.5178887094147028,0.4122536430834213
0.36395513899446197,0.4122536430834213"/><polyline points="-0.5178887094147028,0.30110565696183433
0.36395513899446197,0.30110565696183433"/><polyline points="-0.5178887094147028,0.1899576708402474
0.36395513899446197,0.1899576708402474"/><polyline points="-0.5178887094147028,7.880968471866046e-2
0.36395513899446197,7.880968471866046e-2"/><polyline points="-0.5178887094147028,-3.2338301402926595e-2
0.36395513899446197,-3.2338301402926595e-2"/><polyline points="-0.5178887094147028,-0.14348628752451342
0.36395513899446197,-0.14348628752451342"/><polyline points="-0.5178887094147028,-0.2546342736461005
0.36395513899446197,-0.2546342736461005"/><polyline points="-0.5178887094147028,-0.3657822597676875
0.36395513899446197,-0.3657822597676875"/></g></g></g><g class="axisbar"><g stroke-opacity="0.0" fill="#0d0d0d" stroke="#000000" stroke-width="0.0" fill-opacity="0.4"><rect width="2.074926702139157e-3" x="-0.5251509528721899" y="-0.3673383315733896" height="0.7811480464625131"/></g></g></g><g class="axis"><g class="ticks"><g class="tickglyph"><g stroke-opacity="0.4" fill="#0d0d0d" stroke="#0d0d0d" stroke-width="4.0e-3" fill-opacity="0.4"><polyline points="-0.5178887094147028,0.4505947201689546
-0.5178887094147028,0.42059472016895455"/><polyline points="-0.37091473467984193,0.4505947201689546
-0.37091473467984193,0.42059472016895455"/><polyline points="-0.22394075994498114,0.4505947201689546
-0.22394075994498114,0.42059472016895455"/><polyline points="-7.696678521012035e-2,0.4505947201689546
-7.696678521012035e-2,0.42059472016895455"/><polyline points="7.000718952474039e-2,0.4505947201689546
7.000718952474039e-2,0.42059472016895455"/><polyline points="0.21698116425960112,0.4505947201689546
0.21698116425960112,0.42059472016895455"/><polyline points="0.36395513899446197,0.4505947201689546
0.36395513899446197,0.42059472016895455"/></g></g><g class="ticktext"><g fill="#0d0d0d" stroke="none" stroke-width="0.0" font-size="2.5936583776740144e-2" fill-opacity="1.0" text-anchor="middle"><text x="-0.5178887094147028" y="0.485">-1.5</text><text x="-0.37091473467984193" y="0.485">-1</text><text x="-0.22394075994498114" y="0.485">-0.5</text><text x="-7.696678521012035e-2" y="0.485">0</text><text x="7.000718952474039e-2" y="0.485">0.5</text><text x="0.21698116425960112" y="0.485">1</text><text x="0.36395513899446197" y="0.485">1.5</text></g></g><g class="ticklines"><g stroke-opacity="5.0e-2" fill="none" stroke="#0d0d0d" stroke-width="5.0e-3"><polyline points="-0.5178887094147028,0.4122536430834213
-0.5178887094147028,-0.3657822597676875"/><polyline points="-0.37091473467984193,0.4122536430834213
-0.37091473467984193,-0.3657822597676875"/><polyline points="-0.22394075994498114,0.4122536430834213
-0.22394075994498114,-0.3657822597676875"/><polyline points="-7.696678521012035e-2,0.4122536430834213
-7.696678521012035e-2,-0.3657822597676875"/><polyline points="7.000718952474039e-2,0.4122536430834213
7.000718952474039e-2,-0.3657822597676875"/><polyline points="0.21698116425960112,0.4122536430834213
0.21698116425960112,-0.3657822597676875"/><polyline points="0.36395513899446197,0.4122536430834213
0.36395513899446197,-0.3657822597676875"/></g></g></g><g class="axisbar"><g stroke-opacity="0.0" fill="#0d0d0d" stroke="#000000" stroke-width="0.0" fill-opacity="0.4"><rect width="0.8839187751113039" x="-0.5189261727657724" y="0.4200340021119324" height="3.1121436114043832e-3"/></g></g></g><g class="legend"><g class="legendBorder"><g stroke-opacity="1.0" fill="#0d0d0d" stroke="#0d0d0d" stroke-width="2.5e-3" fill-opacity="0.0"><rect width="0.21916413291345416" x="0.4203672087088719" y="-0.35907170010559686" height="0.45515100316789886"/></g></g><g class="legendContent"><g fill="#0d0d0d" stroke="none" stroke-width="0.0" font-size="2.5936583776740144e-2" fill-opacity="1.0" text-anchor="start"><text x="0.4333355005972419" y="6.495786694825767e-2">Bounding Box</text></g><g stroke-opacity="1.0" fill="#6666cc" stroke="#808080" stroke-width="2.5e-3" fill-opacity="0.1"><rect width="1.2968291888370231e-2" x="0.5993296367683787" y="4.55069693769799e-2" height="1.945089757127777e-2"/></g><g fill="#0d0d0d" stroke="none" stroke-width="0.0" font-size="2.5936583776740144e-2" fill-opacity="1.0" text-anchor="start"><text x="0.4333355005972419" y="2.714994720168895e-3">Endpoints</text></g><g stroke-opacity="1.0" fill="#fa9999" stroke="#1f78b5" stroke-width="3.0e-3" fill-opacity="1.0"><rect width="2.499999999999991e-2" x="0.5933137827125639" y="-1.9510454065469907e-2" height="2.5e-2"/></g><g fill="#0d0d0d" stroke="none" stroke-width="0.0" font-size="2.5936583776740144e-2" fill-opacity="1.0" text-anchor="start"><text x="0.4333355005972419" y="-5.952787750791977e-2">Centroid</text></g><g stroke-opacity="1.0" fill="#a6cfe3" stroke="#1f78b5" stroke-width="3.0e-3" fill-opacity="1.0"><circle cx="0.6058137827125638" cy="-6.925332629355863e-2" r="1.25e-2"/></g><g fill="#0d0d0d" stroke="none" stroke-width="0.0" font-size="2.5936583776740144e-2" fill-opacity="1.0" text-anchor="start"><text x="0.4333355005972419" y="-0.12177074973600843">Arc</text></g><g stroke-opacity="1.0" fill="none" stroke="#1f78b5" stroke-width="5.0e-3"><polyline points="0.5993296367683787,-0.1314961985216474
0.6252662205451189,-0.1314961985216474"/></g><g fill="#0d0d0d" stroke="none" stroke-width="0.0" font-size="2.5936583776740144e-2" fill-opacity="1.0" text-anchor="start"><text x="0.4333355005972419" y="-0.1840136219640971">Full Ellipse</text></g><g stroke-opacity="1.0" fill="none" stroke="#a6cfe3" stroke-width="2.0e-3"><polyline points="0.5993296367683787,-0.19373907074973606
0.6252662205451189,-0.19373907074973606"/></g><g fill="#0d0d0d" stroke="none" stroke-width="0.0" font-size="2.5936583776740144e-2" fill-opacity="1.0" text-anchor="start"><text x="0.4333355005972419" y="-0.24625649419218587">Minor Axis</text></g><g stroke-opacity="1.0" fill="none" stroke="#e6e605" stroke-dasharray="3.0e-2 1.0e-2" stroke-linecap="round" stroke-width="5.0e-3"><polyline points="0.5993296367683787,-0.25598194297782484
0.6252662205451189,-0.25598194297782484"/></g><g fill="#0d0d0d" stroke="none" stroke-width="0.0" font-size="2.5936583776740144e-2" fill-opacity="1.0" text-anchor="start"><text x="0.4333355005972419" y="-0.30849936642027465">Major Axis</text></g><g stroke-opacity="1.0" fill="none" stroke="#e63305" stroke-dasharray="3.0e-2 1.0e-2" stroke-linecap="round" stroke-width="5.0e-3"><polyline points="0.5993296367683787,-0.3182248152059134
0.6252662205451189,-0.3182248152059134"/></g></g></g><g class="title"><g fill="#0d0d0d" stroke="none" stroke-width="0.0" font-size="4.1498534042784224e-2" fill-opacity="1.0" text-anchor="middle"><text x="2.1657074600934023e-2" y="-0.43600000000000005">ArcPosition (Point 1 0) (Point 0 1) (ArcInfo (Point 1.5 1) (pi / 3) True True)</text></g></g></g></svg>