<svg xmlns="http://www.w3.org/2000/svg" xmlns:xlink="http://www.w3.org/1999/xlink" width="248.21093822978355" height="300.0" viewbox="-1.2893711331405233 -1.035278761957263 2.3058711331405233 2.7869897470100717"><g><g class="chart"><g><g class="ellipse"><g stroke-width="5.0e-3" stroke="rgb(66%, 7%, 55%)" stroke-opacity="1.0" fill="none"><polyline points="0.223887331075026,-3.2338301402926595e-2
0.22211215024874542,-1.8050870674847785e-2
0.2195774697347237,-3.6163721322803877e-3
0.21628900639857507,1.0932637818583113e-2
0.2122541772314619,2.556334449587111e-2
0.20748208262138101,4.024274895417046e-2
0.20198348582762138,5.4937742412265844e-2
0.19577078870468267,6.961518092860564e-2
0.1888580037304135,8.424196015607399e-2
0.1812607224014553,9.878509000745644e-2
0.1729960800672744,0.11321176906319891
0.1640827172821009,0.12748945855363364
0.15454073776193988,0.1415859557488101
0.14439166304148265,0.15546946659040178
0.13365838393318807,0.16910867740187208
0.12236510889801455,0.18247282551515775
0.11053730944425211,0.1955317686545776
9.820166267760311e-2,0.2082560529214712
8.538599113208833e-2,0.2206169792262318
7.21192000174895e-2,0.23258666801790007
5.843121202485968e-2,0.24413812216532182
4.435289983714863e-2,0.2552452878480457
2.9916016497160913e-2,0.2658831133196224
1.5153123789899303e-2,0.27602760541076804
9.751880082431441e-5,0.28565588364495254
-1.5216841184325536e-2,0.29474623184435317
-3.075541526876946e-2,0.30327814710978496
-4.6483156850226526e-2,0.3112323860641286
-6.236459266705857e-2,0.3185910082549615
-7.836390280672456e-2,0.3253374166184956
-9.444500149609109e-2,0.3314563949135587
-0.11057161849138003,0.33693414204118854
-0.12670738088418354,0.34175830317243294
-0.14281589513903287,0.345917997614148
-0.1588608291774915,0.34940384334994556
-0.1748059943236358,0.352207978200938
-0.19061542692609418,0.3543240775585523
-0.20625346947255635,0.3557473686494201
-0.22168485101379692,0.3564746413001677
-0.23687476671582108,0.3565042551778276
-0.25178895636070997,0.3558361434895403
-0.26639378161910443,0.35447181313320353
-0.28065630192004676,0.3524143412987266
-0.29454434874705726,0.3496683685275576
-0.30802659819287415,0.3462400882461376
-0.3210726416092128,0.3421372327968856
-0.3336530541921973,0.33736905599822564
-0.34573946134877126,0.3319463122729871
-0.3573046026944027,0.32588123239225436
-0.36832239353773844,0.31918749588937634
-0.3787679837135318,0.3118802002063522
-0.38861781363114806,0.3039758266421836
-0.39784966741223304,0.295492203179997
-0.4064427229976957,0.28644846427677406
-0.4143775991109887,0.2768650077063871
-0.4216363989717655,0.26676344855327505
-0.42820275066131774,0.25616657046052704
-0.43406184404875114,0.24509827424233083
-0.43920046419461517,0.2335835239766882
-0.4436070211566446,0.22164829069998443
-0.44727157613038804,0.2093194938304045
-0.4501858638657654,0.1966249404523141
-0.45234331130899175,0.18359326259854658
-0.4537390524278258,0.170253852672054
-0.4543699391867002,0.15663679715257472
-0.454234548646985,0.14277280873783976
-0.4533331861763652,0.1286931570723705
-0.45166788476009717,0.11442959822010795
-0.4492424004156956,0.10001430303994024
-0.44606220372139327,8.547978462568168e-2
-0.4421344674774816,7.085882497415069e-2
-0.4374680505283599,5.61844010467521e-2
-0.432073477781784,4.1489610391323595e-2
-0.4259629164703771,2.6807596492002483e-2
-0.4191501487089479,1.2171474015490069e-2
-0.4116505404095079,-2.385745877692913e-3
-0.40348100662410136,-1.6831229988493956e-2
-0.39465997339361436,-3.113239713323246e-2
-0.38520733618861325,-4.525699162909269e-2
-0.37514441503594353,-5.9173156045464914e-2
-0.3644939064323047,-7.284950305704352e-2
-0.3532798321532531,-8.62551862366232e-2
-0.3415274850730936,-9.935996962792293e-2
-0.3292633721178644,-0.11213429594151525
-0.31651515448007367,-0.12454935322005667
-0.303311585230043,-0.13657713982244568
-0.2896824444645611,-0.14819052758035212
-0.27565847213912414,-0.15936332298466382
-0.2612712987352564,-0.17007032626384544
-0.2465533739192841,-0.18028738822096946
-0.2315378933534744,-0.18999146470121597
-0.2162587238246108,-0.19916066856699688
-0.20075032685887717,-0.20777431906347799
-0.18504768099532748,-0.215812988463154
-0.16918620289326092,-0.22325854588427274
-0.15320166745142966,-0.23009419818427979
-0.13713012711925537,-0.23630452783604672
-0.12100783058204267,-0.2418755277014566
-0.10487114100358713,-0.24679463262391754
-8.875645401058674e-2,-0.2510507477685455
-7.27001156038285e-2,-0.2546342736461006"/></g><g stroke-width="2.0e-3" stroke="rgb(2%, 29%, 48%)" stroke-opacity="1.0" fill="none"><polyline points="0.10781418152970379,-0.24161651177749155
9.12473587940632e-2,-0.24802572808665968
7.386804637350497e-2,-0.2532700031790618
5.574483247429951e-2,-0.25732864029678915
3.694924114199871e-2,-0.26018562185335337
1.7555449988702065e-2,-0.26182967264778134
-2.3600025520886803e-3,-0.2622543043626825
-2.2718519287699745e-2,-0.2614578411706743
-4.343975445349735e-2,-0.25944342634810613
-6.444193080091404e-2,-0.2562190098699838
-8.564216233488803e-2,-0.2517973170350509
-0.10695678142701942,-0.24619579824484772
-0.12830166901347467,-0.2394365601349484
-0.14959258657450153,-0.23154627833017072
-0.17074550858538184,-0.22255609216807126
-0.1916769541267892,-0.21250148180620654
-0.21230431634583985,-0.20142212819816008
-0.23254618846760045,-0.18936175649094789
-0.252322685070438,-0.17636796346183847
-0.271555757357283,-0.16249202967561827
-0.29016950117857426,-0.1477887171036305
-0.30809045659126,-0.13231605300329208
-0.32524789777163166,-0.11613510091101964
-0.34157411213783995,-9.930971965234714e-2
-0.3570046675805192,-8.1906311320317e-2
-0.37147866674688734,-6.399355921675498e-2
-0.38493898737477605,-4.564215679065575e-2
-0.39733250772810225,-2.6924528643436973e-2
-0.4086103162440926,-7.914544702124549e-3
-0.41872790456487485,1.1312771311500325e-2
-0.4276453431916336,3.068153796525719e-2
-0.435327439068099,5.0115315585911646e-2
-0.4417438744714624,6.953740793164315e-2
-0.4468693266625773,8.88711648770733e-2
-0.4506835678232417,0.10804028491629158
-0.4531715448861555,0.12696911629004115
-0.45432343894249994,0.14558295554865047
-0.4541347039926851,0.1638083423724201
-0.4526060848873329,0.1815733494859435
-0.4497436143876927,0.19880786652220378
-0.44555858935708803,0.2154438767161604
-0.4400675261773588,0.2314157253358478
-0.4332920955662472,0.24666037879160813
-0.42525903705297546,0.2611176734008706
-0.41600005344954,0.27473055282672243
-0.4055516857341965,0.2874452932532029
-0.39395516884091236,0.29921171540866065
-0.3812562689239204,0.3099833826004156
-0.36750510273961795,0.31971778397916795
-0.35275593985862375,0.328376502309901
-0.33706698848857775,0.3359253655871556
-0.3205001657529374,0.34233458189632376
-0.30312085333237876,0.34757885698872576
-0.28499763943317347,0.3516374941064532
-0.2662020481008727,0.3544944756630174
-0.24680825694757613,0.3561385264574453
-0.22689280440678533,0.3565631581723465
-0.20653428767117443,0.3557666949803383
-0.1858130525053766,0.35375228015777005
-0.16481087615796003,0.35052786367964783
-0.14361064462398615,0.34610617084471496
-0.12229602553185459,0.34050465205451175
-0.1009511379453995,0.33374541394461243
-7.966022038437237e-2,0.32585513213983475
-5.8507298373492056e-2,0.3168649459777353
-3.7575852832084644e-2,0.30681033561587057
-1.694849061303394e-2,0.295730982007824
3.2933815087263785e-3,0.2836706103006118
2.3069878111564135e-2,0.2706768172715023
4.2302950398409145e-2,0.2568008834852822
6.0916694219700473e-2,0.24209757091329454
7.883764963238604e-2,0.2266249068129561
9.599509081275781e-2,0.21044395472068356
0.11232130517896577,0.19361857346201117
0.12775186062164534,0.17621516512998092
0.14222585978801328,0.158302413026419
0.155686180415902,0.1399510106003199
0.1680797007692283,0.12123338245310095
0.17935750928521854,0.1022233985117888
0.1894750976060009,8.299608249816365e-2
0.19839253623275965,6.362731584440678e-2
0.20607463210922505,4.419353822375255e-2
0.2124910675125884,2.4771445878021103e-2
0.21761651970370344,5.4376889325906674e-3
0.22143076086436775,-1.37314311066275e-2
0.22391873792728167,-3.266026248037712e-2
0.2250706319836261,-5.127410173898639e-2
0.22488189703381123,-6.949948856275578e-2
0.22335327792845894,-8.726449567627947e-2
0.22049080742881888,-0.10449901271253981
0.21630578239821419,-0.12113502290649636
0.21081471921848483,-0.13710687152618373
0.20403928860737341,-0.15235152498194382
0.19600623009410156,-0.16680881959120653
0.1867472464906661,-0.1804216990170585
0.17629887877532258,-0.19313643944353887
0.16470236188203846,-0.2049028615989965
0.15200346196504644,-0.21567452879075155
0.13825229578074394,-0.22540893016950392
0.12350313289974968,-0.23406764850023698
0.10781418152970379,-0.24161651177749144"/></g><g stroke-width="3.0e-3" stroke="rgb(2%, 29%, 48%)" stroke-opacity="1.0" fill="rgb(2%, 73%, 80%)" fill-opacity="0.2"><circle cx="-0.11462640347943698" cy="4.7154426904832014e-2" r="1.5e-2"/></g><g stroke-width="3.0e-3" stroke="rgb(2%, 29%, 48%)" stroke-opacity="1.0" fill="rgb(100%, 71%, 35%)" fill-opacity="0.2"><rect width="3.0000000000000027e-2" height="3.0e-2" x="0.20888733107502566" y="-4.7338301402926594e-2"/><rect width="3.0e-2" height="3.0000000000000027e-2" x="-8.77001156038285e-2" y="-0.2696342736461005"/></g><g stroke-width="2.0e-3" stroke="rgb(50%, 50%, 50%)" stroke-opacity="1.0" fill="rgb(53%, 51%, 28%)" fill-opacity="5.0e-3"><rect width="0.6782973406993452" height="0.6112115986149814" x="-0.4544100096243192" y="-0.2546342736461006"/></g><g stroke-width="5.0e-3" stroke="rgb(21%, 29%, 7%)" stroke-opacity="1.0" fill="none" stroke-linecap="round" stroke-dasharray="3.0e-2 1.0e-2"><polyline points="0.10781418152970379,-0.24161651177749155
-0.33706698848857775,0.3359253655871556"/></g><g stroke-width="5.0e-3" stroke="rgb(73%, 34%, 1%)" stroke-opacity="1.0" fill="none" stroke-linecap="round" stroke-dasharray="3.0e-2 1.0e-2"><polyline points="-0.37147866674688734,-6.399355921675498e-2
0.14222585978801328,0.158302413026419"/></g></g><g></g></g></g><g class="hud"><g><g class="frame"><g stroke-width="0.0" stroke="rgb(0%, 0%, 0%)" stroke-opacity="0.0" fill="rgb(100%, 100%, 100%)" fill-opacity="2.0e-2"><rect width="0.8897623400365626" height="0.7780359028511088" x="-0.5175812856221098" y="-0.3657822597676875"/></g></g><g></g><g class="axis"><g class="ticks"><g class="tickglyph"><g stroke-width="4.0e-3" stroke="rgb(5%, 5%, 5%)" stroke-opacity="0.4" fill="rgb(5%, 5%, 5%)" fill-opacity="0.4"><polyline points="-0.5332829739756962,0.4272536430834213
-0.5332829739756962,0.39725364308342126"/><polyline points="-0.5332829739756962,0.31610565696183435
-0.5332829739756962,0.2861056569618343"/><polyline points="-0.5332829739756962,0.2049576708402474
-0.5332829739756962,0.17495767084024738"/><polyline points="-0.5332829739756962,9.380968471866045e-2
-0.5332829739756962,6.380968471866046e-2"/><polyline points="-0.5332829739756962,-1.7338301402926595e-2
-0.5332829739756962,-4.7338301402926594e-2"/><polyline points="-0.5332829739756962,-0.1284862875245134
-0.5332829739756962,-0.15848628752451344"/><polyline points="-0.5332829739756962,-0.23963427364610046
-0.5332829739756962,-0.2696342736461005"/><polyline points="-0.5332829739756962,-0.3507822597676875
-0.5332829739756962,-0.38078225976768754"/></g></g><g class="ticktext"><g stroke-width="0.0" stroke="none" fill="rgb(5%, 5%, 5%)" fill-opacity="1.0" font-size="2.6169480589310668e-2" text-anchor="end"><text x="-0.552125" y="0.4229516367476241">-2.00</text><text x="-0.552125" y="0.3118036506260371">-1.50</text><text x="-0.552125" y="0.20065566450445016">-1.00</text><text x="-0.552125" y="8.950767838286317e-2">-0.50</text><text x="-0.552125" y="-2.164030773872372e-2"> 0.00</text><text x="-0.552125" y="-0.13278829386031066"> 0.50</text><text x="-0.552125" y="-0.24393627998189782"> 1.00</text><text x="-0.552125" y="-0.35508426610348465"> 1.50</text></g></g><g class="ticklines"><g stroke-width="5.0e-3" stroke="rgb(5%, 5%, 5%)" stroke-opacity="5.0e-2" fill="none"><polyline points="-0.5175812856221098,0.4122536430834213
0.3721810544144528,0.4122536430834213"/><polyline points="-0.5175812856221098,0.30110565696183433
0.3721810544144528,0.30110565696183433"/><polyline points="-0.5175812856221098,0.1899576708402474
0.3721810544144528,0.1899576708402474"/><polyline points="-0.5175812856221098,7.880968471866046e-2
0.3721810544144528,7.880968471866046e-2"/><polyline points="-0.5175812856221098,-3.2338301402926595e-2
0.3721810544144528,-3.2338301402926595e-2"/><polyline points="-0.5175812856221098,-0.14348628752451342
0.3721810544144528,-0.14348628752451342"/><polyline points="-0.5175812856221098,-0.2546342736461005
0.3721810544144528,-0.2546342736461005"/><polyline points="-0.5175812856221098,-0.3657822597676875
0.3721810544144528,-0.3657822597676875"/></g></g></g><g class="axisbar"><g stroke-width="0.0" stroke="rgb(0%, 0%, 0%)" stroke-opacity="0.0" fill="rgb(5%, 5%, 5%)" fill-opacity="0.4"><rect width="2.093558447144872e-3" height="0.7811480464625131" x="-0.5249087401871169" y="-0.3673383315733896"/></g></g></g><g><g class="axis"><g class="ticks"><g class="tickglyph"><g stroke-width="4.0e-3" stroke="rgb(5%, 5%, 5%)" stroke-opacity="0.4" fill="rgb(5%, 5%, 5%)" fill-opacity="0.4"><polyline points="-0.5175812856221098,0.4505947201689546
-0.5175812856221098,0.42059472016895455"/><polyline points="-0.3692875622826828,0.4505947201689546
-0.3692875622826828,0.42059472016895455"/><polyline points="-0.22099383894325564,0.4505947201689546
-0.22099383894325564,0.42059472016895455"/><polyline points="-7.27001156038285e-2,0.4505947201689546
-7.27001156038285e-2,0.42059472016895455"/><polyline points="7.559360773559864e-2,0.4505947201689546
7.559360773559864e-2,0.42059472016895455"/><polyline points="0.22388733107502568,0.4505947201689546
0.22388733107502568,0.42059472016895455"/><polyline points="0.3721810544144528,0.4505947201689546
0.3721810544144528,0.42059472016895455"/></g></g><g class="ticktext"><g stroke-width="0.0" stroke="none" fill="rgb(5%, 5%, 5%)" fill-opacity="1.0" font-size="2.6169480589310668e-2" text-anchor="middle"><text x="-0.5175812856221098" y="0.485">-1.50</text><text x="-0.3692875622826828" y="0.485">-1.00</text><text x="-0.22099383894325564" y="0.485">-0.50</text><text x="-7.27001156038285e-2" y="0.485"> 0.00</text><text x="7.559360773559864e-2" y="0.485"> 0.50</text><text x="0.22388733107502568" y="0.485"> 1.00</text><text x="0.3721810544144528" y="0.485"> 1.50</text></g></g><g class="ticklines"><g stroke-width="5.0e-3" stroke="rgb(5%, 5%, 5%)" stroke-opacity="5.0e-2" fill="none"><polyline points="-0.5175812856221098,0.4122536430834213
-0.5175812856221098,-0.3657822597676875"/><polyline points="-0.3692875622826828,0.4122536430834213
-0.3692875622826828,-0.3657822597676875"/><polyline points="-0.22099383894325564,0.4122536430834213
-0.22099383894325564,-0.3657822597676875"/><polyline points="-7.27001156038285e-2,0.4122536430834213
-7.27001156038285e-2,-0.3657822597676875"/><polyline points="7.559360773559864e-2,0.4122536430834213
7.559360773559864e-2,-0.3657822597676875"/><polyline points="0.22388733107502568,0.4122536430834213
0.22388733107502568,-0.3657822597676875"/><polyline points="0.3721810544144528,0.4122536430834213
0.3721810544144528,-0.3657822597676875"/></g></g></g><g class="axisbar"><g stroke-width="0.0" stroke="rgb(0%, 0%, 0%)" stroke-opacity="0.0" fill="rgb(5%, 5%, 5%)" fill-opacity="0.4"><rect width="0.8918558984837076" height="3.1121436114043832e-3" x="-0.5186280648456822" y="0.4200340021119324"/></g></g></g><g></g></g><g class="legend"><g class="legendBorder"><g stroke-width="2.5e-3" stroke="rgb(5%, 5%, 5%)" stroke-opacity="1.0" fill="rgb(5%, 5%, 5%)" fill-opacity="0.0"><rect width="0.2211321109796751" height="0.45515100316789886" x="0.4408759409613934" y="-0.35907170010559686"/></g></g><g class="legendContent"><g stroke-width="0.0" stroke="none" fill="rgb(5%, 5%, 5%)" fill-opacity="1.0" font-size="2.6169480589310668e-2" text-anchor="start"><text x="0.4539606812560488" y="6.495786694825767e-2">Bounding Box</text></g><g stroke-width="2.5e-3" stroke="rgb(50%, 50%, 50%)" stroke-opacity="1.0" fill="rgb(53%, 51%, 28%)" fill-opacity="5.0e-3"><rect width="1.308474029465545e-2" height="1.945089757127777e-2" x="0.621445357027637" y="4.55069693769799e-2"/></g><g stroke-width="0.0" stroke="none" fill="rgb(5%, 5%, 5%)" fill-opacity="1.0" font-size="2.6169480589310668e-2" text-anchor="start"><text x="0.4539606812560488" y="2.714994720168895e-3">Endpoints</text></g><g stroke-width="3.0e-3" stroke="rgb(2%, 29%, 48%)" stroke-opacity="1.0" fill="rgb(100%, 71%, 35%)" fill-opacity="0.2"><rect width="2.499999999999991e-2" height="2.5e-2" x="0.6154877271749648" y="-1.9510454065469907e-2"/></g><g stroke-width="0.0" stroke="none" fill="rgb(5%, 5%, 5%)" fill-opacity="1.0" font-size="2.6169480589310668e-2" text-anchor="start"><text x="0.4539606812560488" y="-5.952787750791977e-2">Centroid</text></g><g stroke-width="3.0e-3" stroke="rgb(2%, 29%, 48%)" stroke-opacity="1.0" fill="rgb(2%, 73%, 80%)" fill-opacity="0.2"><circle cx="0.6279877271749648" cy="-6.925332629355863e-2" r="1.25e-2"/></g><g stroke-width="0.0" stroke="none" fill="rgb(5%, 5%, 5%)" fill-opacity="1.0" font-size="2.6169480589310668e-2" text-anchor="start"><text x="0.4539606812560488" y="-0.12177074973600843">Arc</text></g><g stroke-width="5.0e-3" stroke="rgb(66%, 7%, 55%)" stroke-opacity="1.0" fill="none"><polyline points="0.621445357027637,-0.1314961985216474
0.6476148376169477,-0.1314961985216474"/></g><g stroke-width="0.0" stroke="none" fill="rgb(5%, 5%, 5%)" fill-opacity="1.0" font-size="2.6169480589310668e-2" text-anchor="start"><text x="0.4539606812560488" y="-0.1840136219640971">Full Ellipse</text></g><g stroke-width="2.0e-3" stroke="rgb(2%, 29%, 48%)" stroke-opacity="1.0" fill="none"><polyline points="0.621445357027637,-0.19373907074973606
0.6476148376169477,-0.19373907074973606"/></g><g stroke-width="0.0" stroke="none" fill="rgb(5%, 5%, 5%)" fill-opacity="1.0" font-size="2.6169480589310668e-2" text-anchor="start"><text x="0.4539606812560488" y="-0.24625649419218587">Minor Axis</text></g><g stroke-width="5.0e-3" stroke="rgb(73%, 34%, 1%)" stroke-opacity="1.0" fill="none" stroke-linecap="round" stroke-dasharray="3.0e-2 1.0e-2"><polyline points="0.621445357027637,-0.25598194297782484
0.6476148376169477,-0.25598194297782484"/></g><g stroke-width="0.0" stroke="none" fill="rgb(5%, 5%, 5%)" fill-opacity="1.0" font-size="2.6169480589310668e-2" text-anchor="start"><text x="0.4539606812560488" y="-0.30849936642027465">Major Axis</text></g><g stroke-width="5.0e-3" stroke="rgb(21%, 29%, 7%)" stroke-opacity="1.0" fill="none" stroke-linecap="round" stroke-dasharray="3.0e-2 1.0e-2"><polyline points="0.621445357027637,-0.3182248152059134
0.6476148376169477,-0.3182248152059134"/></g></g></g><g></g><g class="title"><g stroke-width="0.0" stroke="none" fill="rgb(5%, 5%, 5%)" fill-opacity="1.0" font-size="4.1871168942897066e-2" text-anchor="middle"><text x="2.680933433702537e-2" y="-0.43600000000000005">ArcPosition (Point 1 0) (Point 0 1) (ArcInfo (Point 1.5 1) (pi / 3) True True)</text></g></g><g></g></g></g></g></svg>