<svg width="249.31670612640923" xmlns:xlink="http://www.w3.org/1999/xlink" xmlns="http://www.w3.org/2000/svg" viewBox="-1.2813502889009003 -0.691104940259342 1.953757349330816 2.3509343353111083" height="300.0"><style>svg {
  color-scheme: light dark;
}
{
  .canvas g, .title g, .axisbar g, .ticktext g, .tickglyph g, .ticklines g, .legendContent g text {
    fill: #0d0d0d;
  }
  .ticklines g, .tickglyph g, .legendBorder g {
    stroke: #0d0d0d;
  }
}
@media (prefers-color-scheme:dark) {
  .canvas g, .title g, .axisbar g, .ticktext g, .tickglyph g, .ticklines g, .legendContent g text {
    fill: #f0f0f0;
  }
  .ticklines g, .tickglyph g, .legendBorder g {
    stroke: #f0f0f0;
  }
}</style><g class="chart"><g class="ellipse"><g stroke-opacity="1.0" fill="none" stroke="#a6cfe3" stroke-width="2.0e-3"><polyline points="0.6221570604299163,0.15878628889165936
0.6175862532433607,0.20990682606285294
0.6110598556293285,0.2615535730068421
0.6025925876039713,0.31361004265155623
0.5922035467352691,0.36595882381255573
0.5799161650692655,0.4184818460090307
0.5657581562800718,0.47106064576682494
0.5497614531628345,0.5235766338078292
0.5319621356106576,0.5759113625231291
0.5124003492379161,0.6279467931266178
0.4911202148335039,0.6795655618865302
0.4681697288482469,0.7306512448344171
0.44360065514092106,0.781088620354526
0.4174684082270368,0.8307639290613208
0.38983192829372637,0.8795651303790103
0.3607535482626194,0.927382155244364
0.3302988532005562,0.9741071543628715
0.29853653239521605,1.0196347414583042
0.2655382244293112,1.0638622309670405
0.23137835560276665,1.10668986964105
0.19613397206732186,1.148021061537161
0.1598845660521664,1.1877625858851601
0.12271189657254866,1.225824807343331
8.469980502574859e-2,1.2621218781672066
4.5934026090317825e-2,1.2965719318355622
6.501994355112339e-3,1.3290972676969135
-3.350735288576323e-2,1.3596245262200861
-7.400377622728738e-2,1.388084854453556
-0.11489593768471673,1.4144140613203966
-0.15609160670258415,1.4385527623985626
-0.1974978681768449,1.4604465138599612
-0.2390213320209993,1.4800459352662236
-0.2805683438035187,1.4973068209442162
-0.32204519598148507,1.5121902396900788
-0.36335833925402705,1.524662622576925
-0.4044145935588458,1.5346958386681484
-0.4451213582359351,1.5422672584655697
-0.4853868208844909,1.5473598049493222
-0.5251201644419303,1.549961992094354
-0.564231772017965,1.5500679507766744
-0.6026334290217445,1.5476774420109187
-0.6402385221261631,1.5427958574893692
-0.6769622346205879,1.5354342074212182
-0.7127217377113949,1.525609095699504
-0.7474363773388377,1.5133426824517267
-0.7810278560888978,1.4986626340586087
-0.8134204097898201,1.4816020607537328
-0.8445409783950235,1.4621994419448021
-0.8743193707669727,1.4404985394249445
-0.9026884229903475,1.4165482986698268
-0.9295841498574342,1.390402738443186
-0.9549458891840822,1.3621208289597715
-0.9787164386307136,1.3317663588805007
-1.0008421847198037,1.2994077914398068
-1.0212732237588296,1.2651181100296862
-1.0399634743959578,1.228974653588717
-1.0568707815545997,1.1910589421673272
-1.0719570115124195,1.151456493062738
-1.0851881379103467,1.110256627938286
-1.096534318497601,1.067552271362158
-1.1059699624396384,1.0234397412199236
-1.113473788037205,0.9780185314735832
-1.1190288707263176,0.9313910877571071
-1.1226226812509075,0.8836625763146055
-1.1242471139220334,0.8349406468022756
-1.123898504899921,0.7853351894891146
-1.1215776404576026,0.734958087404024
-1.1172897552075078,0.6839229639883357
-1.1110445202950185,0.632344926822896
-1.102856021585603,0.5803403080077525
-1.0927427278947386,0.5280264017799725
-1.080727449332272,0.47552119996141484
-1.0668372858551745,0.42294312583312443
-1.051103566144722,0.3704107670365786
-1.0335617769459726,0.31804260810424734
-1.014251483028898,0.26595676322269024
-0.9932162379517052,0.2142707098309624
-0.9705034858276106,0.1631010236551773
-0.9461644543166348,0.11256311577684786
-0.9202540390837608,6.277097232802564e-2
-0.8928306799840662,1.3836897400366643e-2
-0.8639562292540777,-3.412874025204471e-2
-0.8336958120066466,-8.101775614478957e-2
-0.8021176793439899,-0.12672439406867952
-0.769293054420185,-0.1711455646184612
-0.7352959718003398,-0.21418107770663508
-0.7002031104787307,-0.2557338685380053
-0.6640936209325463,-0.2957102165352534
-0.6270489466013087,-0.3340199567217663
-0.5891526401946058,-0.37057668308496616
-0.550490175242462,-0.40529794346144676
-0.5111487533133735,-0.4381054255043666
-0.47121710733483035,-0.4689251333136686
-0.4307853014599129,-0.4976875543307284
-0.38994452793137846,-0.5243278161210116
-0.34878690140137647,-0.548785832691137
-0.3074052511707135,-0.5710064400103096
-0.26589291181626273,-0.5909395204304797
-0.2243435126787321,-0.6085401157245975
-0.18285076668562072,-0.6237685284880099
-0.14150825898563002,-0.6365904116742893"/></g><g stroke-opacity="1.0" fill="none" stroke="#a6cfe3" stroke-width="2.0e-3"><polyline points="0.3232872336193511,-0.5900127594598761
0.2806303102809449,-0.612944984770837
0.23588135573318447,-0.6317090414371092
0.1892169736558169,-0.6462308762995113
0.14082132704597394,-0.6564531783102376
9.088541141095585e-2,-0.6623356047133777
3.9606300996224864e-2,-0.6638549402593421
-1.2813628976609204e-2,-0.6610051888248507
-6.616750099233171e-2,-0.653797597076887
-0.12024475169316218,-0.6422606100872446
-0.17483196287612968,-0.6264397590728241
-0.22971370375722056,-0.60639748170472
-0.2846733811782589,-0.5822128756952587
-0.3394940944011523,-0.5539813866354644
-0.3939594911160118,-0.5218144313149145
-0.4478546212848762,-0.4858389580105764
-0.5009667854513125,-0.44619694547995126
-0.553086374167995,-0.4030448426357851
-0.6040076952294341,-0.3565529511136827
-0.6535297854451391,-0.3069047531693574
-0.7014572037495195,-0.254296187557991
-0.7476008025184828,-0.1989348762534846
-0.7917784740486924,-0.14103930505938012
-0.8338158692534776,-8.083796134520926e-2
-0.8735470857390238,-1.8568432311234284e-2
-0.9108153225453287,4.552353265968967e-2
-0.9454734989679557,0.11118499186265507
-0.9773848350183791,0.1781568095160555
-1.006423391232111,0.2461746784521266
-1.03247456569423,0.31497016321658533
-1.0554355463207838,0.3842717594607339
-1.0752157166111134,0.4538059654450852
-1.0917370132697832,0.5232983614257753
-1.1049342342867436,0.5924746926639242
-1.1147552962598781,0.6610619517837943
-1.1211614399443945,0.7287894562081776
-1.124127383217859,0.795389916418865
-1.1236414208571819,0.8606004908262614
-1.1197054707337855,0.924163823085057
-1.1123350662446425,0.9858290577621518
-1.1015592950090536,1.045352830348441
-1.0874206840731044,1.1025002277073503
-1.0699750320748422,1.157045715169669
-1.049291189032544,1.2087740266158433
-1.0254507846251482,1.2574810140330146
-0.9985479060372064,1.3029744531939529
-0.9686887266397495,1.3450748022782646
-0.9359910869724967,1.3836159104419352
-0.9005840296810853,1.4184456735387987
-0.8626072902446977,1.4494266344061175
-0.822210745503968,1.4764365253452034
-0.7795538221655617,1.4993687506561646
-0.7348048676178011,1.5181328073224363
-0.6881404855404336,1.5326546421848386
-0.6397448389305905,1.5428769441955652
-0.5898089232955727,1.548759370598705
-0.5385298128808417,1.5502787061446697
-0.48610988290800794,1.5474289547101778
-0.432756010892285,1.5402213629622141
-0.37867876019145497,1.5286843759725721
-0.32409154900848747,1.5128635249581517
-0.26920980812739637,1.4928212475900478
-0.21425013070635823,1.4686366415805865
-0.1594294174834643,1.4404051525207915
-0.10496402076860467,1.4082381972002418
-5.106889059974051e-2,1.372262723895904
2.04327356669598e-3,1.3326207113652784
5.41628622833783e-2,1.2894686085211122
0.10508418334481773,1.2429767169990096
0.1546062735605227,1.1933285190546845
0.202533691864903,1.1407199534433188
0.24867729063386634,1.0853586421388117
0.29285496216407614,1.0274630709447072
0.3348923573688607,0.9672617272305368
0.37462357385440725,0.9049921981965613
0.4118918106607119,0.840900233225638
0.44654998708333893,0.7752387740226728
0.47846132313376244,0.7082669563692718
0.5074998793474945,0.6402490874332016
0.5335510538096133,0.571453602668742
0.5565120344361671,0.5021520064245932
0.5762922047264967,0.432617800440243
0.5928135013851663,0.3631254044595533
0.6060107224021272,0.29394907322140273
0.6158317843752614,0.22536181410153322
0.6222379280597781,0.15763430967714998
0.6252038713332424,9.103384946646242e-2
0.6247179089725654,2.5823275059067008e-2
0.6207819588491688,-3.7740057199729504e-2
0.6134115543600258,-9.940529187682468e-2
0.6026357831244369,-0.15892906446311317
0.5884971721884877,-0.21607646182202278
0.5710515201902262,-0.27062194928434025
0.5503676771479273,-0.32235026073051554
0.5265272727405312,-0.3710572481476877
0.49962439415258975,-0.41655068730862554
0.469765214755133,-0.4586510363929368
0.4370675750878803,-0.49719214455660765
0.4016605177964685,-0.5320219076534709
0.3636837783600806,-0.56300286852079
0.3232872336193513,-0.5900127594598756"/></g><g stroke-opacity="1.0" fill="#a6cfe3" stroke="#1f78b5" stroke-width="3.0e-3" fill-opacity="1.0"><rect width="3.0000000000000027e-2" x="-0.26446175594230825" y="0.42821188294266366" height="3.0000000000000027e-2"/><rect width="3.0000000000000027e-2" x="0.6071570604299158" y="0.14378628889165934" height="3.0000000000000027e-2"/><rect width="3.0000000000000027e-2" x="-0.15650825898563003" y="-0.6515904116742889" height="3.0000000000000027e-2"/></g><g stroke-opacity="1.0" fill="#6666cc" stroke="#808080" stroke-width="2.0e-3" fill-opacity="0.1"><rect width="1.7465073493308167" x="-1.1243502889009005" y="-0.6365904116742893" height="2.186919806726056"/></g><g stroke-opacity="1.0" fill="none" stroke="#e63305" stroke-dasharray="3.0e-2 1.0e-2" stroke-linecap="round" stroke-width="5.0e-3"><polyline points="0.3232872336193511,-0.5900127594598761
-0.822210745503968,1.4764365253452034"/></g><g stroke-opacity="1.0" fill="none" stroke="#e6e605" stroke-dasharray="3.0e-2 1.0e-2" stroke-linecap="round" stroke-width="5.0e-3"><polyline points="-0.9108153225453287,4.552353265968967e-2
0.4118918106607119,0.840900233225638"/></g></g></g><g class="hud"><g class="canvas"><g stroke-opacity="0.0" fill="#ffffff" stroke="#000000" stroke-width="0.0" fill-opacity="2.0e-2"><rect width="1.7640073493308162" x="-1.1253502889009004" y="-0.6648549402593421" height="2.2161843353111084"/></g></g><g class="axis"><g class="ticks"><g class="tickglyph"><g stroke-opacity="0.4" fill="#0d0d0d" stroke="#0d0d0d" stroke-width="4.0e-3" fill-opacity="0.4"><g transform="rotate(-90.0, -1.1553502889009004, 1.5513293950517664)"><polyline points="-1.1553502889009004,1.5663293950517663
-1.1553502889009004,1.5363293950517665"/></g><g transform="rotate(-90.0, -1.1553502889009004, 1.2347316328644653)"><polyline points="-1.1553502889009004,1.2497316328644652
-1.1553502889009004,1.2197316328644654"/></g><g transform="rotate(-90.0, -1.1553502889009004, 0.918133870677164)"><polyline points="-1.1553502889009004,0.933133870677164
-1.1553502889009004,0.903133870677164"/></g><g transform="rotate(-90.0, -1.1553502889009004, 0.6015361084898628)"><polyline points="-1.1553502889009004,0.6165361084898628
-1.1553502889009004,0.5865361084898628"/></g><g transform="rotate(-90.0, -1.1553502889009004, 0.28493834630256165)"><polyline points="-1.1553502889009004,0.29993834630256166
-1.1553502889009004,0.26993834630256164"/></g><g transform="rotate(-90.0, -1.1553502889009004, -3.165941588473942e-2)"><polyline points="-1.1553502889009004,-1.6659415884739417e-2
-1.1553502889009004,-4.6659415884739416e-2"/></g><g transform="rotate(-90.0, -1.1553502889009004, -0.3482571780720407)"><polyline points="-1.1553502889009004,-0.3332571780720407
-1.1553502889009004,-0.3632571780720407"/></g><g transform="rotate(-90.0, -1.1553502889009004, -0.664854940259342)"><polyline points="-1.1553502889009004,-0.649854940259342
-1.1553502889009004,-0.679854940259342"/></g></g></g><g class="ticktext"><g fill="#0d0d0d" stroke="none" stroke-width="0.0" font-size="5.0e-2" fill-opacity="1.0" text-anchor="end"><text x="-1.1913502889009002" y="1.5650793950517663">-2</text><text x="-1.1913502889009002" y="1.2484816328644652">-1.5</text><text x="-1.1913502889009002" y="0.931883870677164">-1</text><text x="-1.1913502889009002" y="0.6152861084898629">-0.5</text><text x="-1.1913502889009002" y="0.29868834630256164">0</text><text x="-1.1913502889009002" y="-1.7909415884739415e-2">0.5</text><text x="-1.1913502889009002" y="-0.3345071780720407">1</text><text x="-1.1913502889009002" y="-0.651104940259342">1.5</text></g></g><g class="ticklines"><g stroke-opacity="5.0e-2" fill="none" stroke="#0d0d0d" stroke-width="5.0e-3"><polyline points="-1.1253502889009004,1.5513293950517664
0.6386570604299158,1.5513293950517664"/><polyline points="-1.1253502889009004,1.2347316328644653
0.6386570604299158,1.2347316328644653"/><polyline points="-1.1253502889009004,0.918133870677164
0.6386570604299158,0.918133870677164"/><polyline points="-1.1253502889009004,0.6015361084898628
0.6386570604299158,0.6015361084898628"/><polyline points="-1.1253502889009004,0.28493834630256165
0.6386570604299158,0.28493834630256165"/><polyline points="-1.1253502889009004,-3.165941588473942e-2
0.6386570604299158,-3.165941588473942e-2"/><polyline points="-1.1253502889009004,-0.3482571780720407
0.6386570604299158,-0.3482571780720407"/><polyline points="-1.1253502889009004,-0.664854940259342
0.6386570604299158,-0.664854940259342"/></g></g></g><g class="axisbar"><g stroke-opacity="0.0" fill="#0d0d0d" stroke="#000000" stroke-width="0.0" fill-opacity="0.4"><rect width="4.0000000000000036e-3" x="-1.1393502889009004" y="-0.6668549402593421" height="2.2201843353111084"/></g></g></g><g class="axis"><g class="ticks"><g class="tickglyph"><g stroke-opacity="0.4" fill="#0d0d0d" stroke="#0d0d0d" stroke-width="4.0e-3" fill-opacity="0.4"><polyline points="-1.1253502889009004,1.5963293950517663
-1.1253502889009004,1.5663293950517665"/><polyline points="-0.831349064012431,1.5963293950517663
-0.831349064012431,1.5663293950517665"/><polyline points="-0.5373478391239617,1.5963293950517663
-0.5373478391239617,1.5663293950517665"/><polyline points="-0.2433466142354923,1.5963293950517663
-0.2433466142354923,1.5663293950517665"/><polyline points="5.065461065297705e-2,1.5963293950517663
5.065461065297705e-2,1.5663293950517665"/><polyline points="0.3446558355414462,1.5963293950517663
0.3446558355414462,1.5663293950517665"/><polyline points="0.6386570604299158,1.5963293950517663
0.6386570604299158,1.5663293950517665"/></g></g><g class="ticktext"><g fill="#0d0d0d" stroke="none" stroke-width="0.0" font-size="5.0e-2" fill-opacity="1.0" text-anchor="middle"><text x="-1.1253502889009004" y="1.6448293950517663">-1.5</text><text x="-0.831349064012431" y="1.6448293950517663">-1</text><text x="-0.5373478391239617" y="1.6448293950517663">-0.5</text><text x="-0.2433466142354923" y="1.6448293950517663">0</text><text x="5.065461065297705e-2" y="1.6448293950517663">0.5</text><text x="0.3446558355414462" y="1.6448293950517663">1</text><text x="0.6386570604299158" y="1.6448293950517663">1.5</text></g></g><g class="ticklines"><g stroke-opacity="5.0e-2" fill="none" stroke="#0d0d0d" stroke-width="5.0e-3"><polyline points="-1.1253502889009004,1.5513293950517664
-1.1253502889009004,-0.6648549402593421"/><polyline points="-0.831349064012431,1.5513293950517664
-0.831349064012431,-0.6648549402593421"/><polyline points="-0.5373478391239617,1.5513293950517664
-0.5373478391239617,-0.6648549402593421"/><polyline points="-0.2433466142354923,1.5513293950517664
-0.2433466142354923,-0.6648549402593421"/><polyline points="5.065461065297705e-2,1.5513293950517664
5.065461065297705e-2,-0.6648549402593421"/><polyline points="0.3446558355414462,1.5513293950517664
0.3446558355414462,-0.6648549402593421"/><polyline points="0.6386570604299158,1.5513293950517664
0.6386570604299158,-0.6648549402593421"/></g></g></g><g class="axisbar"><g stroke-opacity="0.0" fill="#0d0d0d" stroke="#000000" stroke-width="0.0" fill-opacity="0.4"><rect width="1.7680073493308162" x="-1.1273502889009004" y="1.5613293950517664" height="4.0000000000000036e-3"/></g></g></g></g></svg>