<svg width="252.84008676557607" xmlns:xlink="http://www.w3.org/1999/xlink" xmlns="http://www.w3.org/2000/svg" viewBox="-1.4510662381089485 -1.036778761957263 2.467566238108949 2.9278184519808184" height="300.0"><style>svg {
  color-scheme: light dark;
}
@media (prefers-color-scheme:dark) {
  svg {
    background-color: #f0f0f0;
  }
}</style><g stroke-opacity="5.0e-2" fill="none" stroke="#0d0d0d" stroke-width="5.0e-3"><polyline points="-1.2870062381089489,1.5
1.0039897201376888,1.5"/><polyline points="-1.2870062381089489,0.9999999999999999
1.0039897201376888,0.9999999999999999"/><polyline points="-1.2870062381089489,0.5
1.0039897201376888,0.5"/><polyline points="-1.2870062381089489,-0.0
1.0039897201376888,-0.0"/><polyline points="-1.2870062381089489,-0.5
1.0039897201376888,-0.5"/><polyline points="-1.2870062381089489,-1.0000000000000004
1.0039897201376888,-1.0000000000000004"/></g><g fill="#0d0d0d" stroke="none" stroke-width="0.0" font-size="5.0e-2" fill-opacity="1.0" text-anchor="end"><text x="-1.3510662381089484" y="1.5145">-1.5</text><text x="-1.3510662381089484" y="1.0145">-1</text><text x="-1.3510662381089484" y="0.5145">-0.5</text><text x="-1.3510662381089484" y="1.4499999999999999e-2">0</text><text x="-1.3510662381089484" y="-0.4855">0.5</text><text x="-1.3510662381089484" y="-0.9855000000000005">1</text></g><g stroke-opacity="0.4" fill="#0d0d0d" stroke="#0d0d0d" stroke-width="4.0e-3" fill-opacity="0.4"><g transform="rotate(-90.0, -1.3190062381089487, 1.5)"><polyline points="-1.3190062381089487,1.515
-1.3190062381089487,1.485"/></g><g transform="rotate(-90.0, -1.3190062381089487, 0.9999999999999999)"><polyline points="-1.3190062381089487,1.015
-1.3190062381089487,0.9849999999999999"/></g><g transform="rotate(-90.0, -1.3190062381089487, 0.5)"><polyline points="-1.3190062381089487,0.515
-1.3190062381089487,0.485"/></g><g transform="rotate(-90.0, -1.3190062381089487, -0.0)"><polyline points="-1.3190062381089487,1.5e-2
-1.3190062381089487,-1.5e-2"/></g><g transform="rotate(-90.0, -1.3190062381089487, -0.5)"><polyline points="-1.3190062381089487,-0.485
-1.3190062381089487,-0.515"/></g><g transform="rotate(-90.0, -1.3190062381089487, -1.0000000000000004)"><polyline points="-1.3190062381089487,-0.9850000000000004
-1.3190062381089487,-1.0150000000000003"/></g></g><g stroke-opacity="0.0" fill="#0d0d0d" stroke="#000000" stroke-width="0.0" fill-opacity="0.4"><rect width="4.0000000000000036e-3" x="-1.3020062381089488" y="-1.036278761957263" height="2.7878184519808187"/></g><g stroke-opacity="5.0e-2" fill="none" stroke="#0d0d0d" stroke-width="5.0e-3"><polyline points="-1.0,1.7495396900235556
-1.0,-1.034278761957263"/><polyline points="-0.5,1.7495396900235556
-0.5,-1.034278761957263"/><polyline points="2.220446049250313e-16,1.7495396900235556
2.220446049250313e-16,-1.034278761957263"/><polyline points="0.5,1.7495396900235556
0.5,-1.034278761957263"/><polyline points="1.0000000000000004,1.7495396900235556
1.0000000000000004,-1.034278761957263"/></g><g fill="#0d0d0d" stroke="none" stroke-width="0.0" font-size="5.0e-2" fill-opacity="1.0" text-anchor="middle"><text x="-1.0" y="1.8647896900235552">-1</text><text x="-0.5" y="1.8647896900235552">-0.5</text><text x="2.220446049250313e-16" y="1.8647896900235552">0</text><text x="0.5" y="1.8647896900235552">0.5</text><text x="1.0000000000000004" y="1.8647896900235552">1</text></g><g stroke-opacity="0.4" fill="#0d0d0d" stroke="#0d0d0d" stroke-width="4.0e-3" fill-opacity="0.4"><polyline points="-1.0,1.7965396900235553
-1.0,1.7665396900235555"/><polyline points="-0.5,1.7965396900235553
-0.5,1.7665396900235555"/><polyline points="2.220446049250313e-16,1.7965396900235553
2.220446049250313e-16,1.7665396900235555"/><polyline points="0.5,1.7965396900235553
0.5,1.7665396900235555"/><polyline points="1.0000000000000004,1.7965396900235553
1.0000000000000004,1.7665396900235555"/></g><g stroke-opacity="0.0" fill="#0d0d0d" stroke="#000000" stroke-width="0.0" fill-opacity="0.4"><rect width="2.2949959582466377" x="-1.2890062381089489" y="1.7605396900235555" height="4.0000000000000036e-3"/></g><g stroke-opacity="0.0" fill="#ffffff" stroke="#000000" stroke-width="0.0" fill-opacity="2.0e-2"><rect width="2.2909959582466377" x="-1.2870062381089489" y="-1.034278761957263" height="2.7838184519808187"/></g><g stroke-opacity="1.0" fill="none" stroke="#a6cfe3" stroke-width="2.0e-3"><polyline points="1.0000000000000004,-0.0
0.9940146461148016,6.42721079644637e-2
0.9854684971040975,0.12920580153034233
0.9743808284486222,0.19465462547461154
0.9607766479200976,0.26047096271927916
0.9446866391772533,0.3265063672755133
0.9261470925601176,0.3926118990573495
0.9051998232386831,0.45863845980980367
0.8818920769005372,0.5244371293937393
0.8562764231902009,0.5898595016689934
0.8284106371404971,0.6547580192182039
0.7983575688633873,0.7189863061563773
0.7661850017941774,0.7823994982755582
0.7319654998088265,0.8448545697799767
0.6957762435591623,0.9062106558747354
0.6576988563951607,0.9663293704804432
0.6178192202669008,1.0250751183572173
0.5762272820214289,1.0823154009340612
0.5330168505314152,1.1379211151538344
0.48828538511317676,1.191766844659785
0.4421337757112749,1.2437311426668827
0.3946661153454769,1.2936968058799505
0.34598946533331354,1.3415511388407824
0.29621361381776756,1.3871862081080222
0.2454508281447203,1.430499085696519
0.19381560164866296,1.4713920812270747
0.14142439541777696,1.5097729622630052
8.839537562083577e-2,1.545555162336529
3.484814698837013e-2,1.5786579761958062
-1.9096516950796172e-2,1.6090067418322525
-7.33169462691654e-2,1.6365330088775658
-0.12769084906199302,1.6611746929906617
-0.18209558727154862,1.6828762158863042
-0.2364084532921109,1.7015886306895949
-0.29050694673182864,1.7172697323335977
-0.3442690507072197,1.7298841527510982
-0.39757350704712935,1.7394034406457948
-0.4503000897854581,1.7458061256630062
-0.5023298763257823,1.7490777668151547
-0.5535455156662829,1.7492109850528088
-0.6038314930800136,1.7462054799078195
-0.6530743906535195,1.740068030171014
-0.7011631430961871,1.730812478602917
-0.7479892882433501,1.7184597007119842
-0.793447211688153,1.7030375576707697
-0.8374343849904167,1.6845808334762182
-0.8798515969252381,1.6631311564958184
-0.9206031772497456,1.6387369055765686
-0.959597212483321,1.6114531009285114
-0.9967457532146013,1.5813412800289601
-1.0319650124676871,1.5484693588272997
-1.0651755546801553,1.5129114785634061
-1.0963024748666366,1.4747478385451958
-1.1252755675638715,1.4340645152624427
-1.1520294851761868,1.39095326824487
-1.176503885364259,1.3455113331023754
-1.19864356714473,1.2978412022141923
-1.2183985953937093,1.2480503935616252
-1.2357244134733536,1.1962512082257506
-1.250581943727494,1.1425604770970392
-1.2629376756196518,1.087099297368181
-1.2727637413146469,1.029992759404445
-1.2800379785333331,0.971369664607604
-1.2847439805386887,0.9113622349097759
-1.2868711331405234,0.8501058145524009
-1.2864146386353401,0.7877385648229775
-1.2833755266273537,0.7244011524380725
-1.2777606517062607,0.6602364322754448
-1.2695826779870025,0.5953891251708496
-1.2588600505463818,0.5300054915062731
-1.2456169538209676,0.4642330013257636
-1.2298832570601115,0.3982200017229367
-1.2116944469571096,0.33211538225032866
-1.1910915476104509,0.26606823910524224
-1.1681210279956875,0.20022753884954048
-1.142834697156606,0.1347417824218058
-1.1152895873521018,6.975867019969662e-2
-1.0855478254223112,5.42476886794363e-3
-1.0536764926641298,-5.8114819156660724e-2
-1.0197474735321572,-0.12071678299768429
-0.983837293506328,-0.1822399265507204
-0.9460269464918964,-0.24254548694528744
-0.9064017121410812,-0.3014974475186629
-0.8650509635083894,-0.35896284459575556
-0.8220679654734302,-0.41481206738311327
-0.7775496643859012,-0.46891915030061915
-0.7315964694071551,-0.521162057091582
-0.6843120260415456,-0.5714229560703967
-0.6358029823683445,-0.6195884858869647
-0.5861787485014643,-0.6655500112084738
-0.5355512498195375,-0.70920386774183
-0.4840346745229175,-0.7504515960441251
-0.4317452160869837,-0.7892001635937813
-0.37880081119262343,-0.8253621746215036
-0.3253208737250023,-0.8588560672277712
-0.2714260254405456,-0.8896062973422851
-0.2172378239096271,-0.9175435091104465
-0.16287848834857077,-0.9426046913225816
-0.10847062395932583,-0.9647333195330821
-5.4136945398582714e-2,-0.98387948354892
2.220446049250313e-16,-1.0000000000000004"/></g><g stroke-opacity="1.0" fill="none" stroke="#a6cfe3" stroke-width="2.0e-3"><polyline points="0.6086376856300117,-0.941439506360608
0.5527795469220069,-0.9702714111607409
0.49418194741073385,-0.9938628196756252
0.43307614505076675,-1.0121206273937404
0.36970329652743517,-1.0249727790892234
0.30431350552155934,-1.0323685531909215
0.23716483566448598,-1.034278761957263
0.16852229207883207,-1.0306958666669384
9.865677552433438e-2,-1.02163400737079
2.7844013276315582e-2,-1.0071289470874887
-4.363652904390514e-2,-0.987237930663242
-0.11550275039214353,-0.9620394588525354
-0.18747102762529155,-0.9316329785115185
-0.25925733483228797,-0.896138490126698
-0.3305783642546313,-0.8556960742278399
-0.4011526443726703,-0.8104653385541147
-0.4707016507451012,-0.7606247881552686
-0.5389509052176902,-0.7063711209137442
-0.6056310591631521,-0.6479184512680018
-0.6704789564771294,-0.585497465200647
-0.7332386721351098,-0.5193545098262535
-0.7936625222115783,-0.44975062117184095
-0.8515120413753137,-0.3769604939869362
-0.9065589240031087,-0.3012713976488932
-0.9585859251977598,-0.22298204244189845
-1.0073877181544273,-0.14240140068395002
-1.05277170449173,-5.984748735427359e-2
-1.0945587743495653,2.4353894966514744e-2
-1.132584013253901,0.10987044189034734
-1.1666973529588605,0.1963646586753094
-1.196764163697531,0.28349519216319896
-1.2226657855041465,0.3709181779444952
-1.2442999965107613,0.45828859743408157
-1.261581416370263,0.5452616395019807
-1.2744418432135962,0.6314940612853535
-1.2828305228113803,0.7166455428112668
-1.286714348877666,0.8003800300841505
-1.2860779937253213,0.8823670613373864
-1.280923968757409,0.9622830712149291
-1.2712726145558277,1.0398126677359452
-1.2571620206063265,1.1146498770028685
-1.2386478749767074,1.1864993507405912
-1.2158032445414615,1.2550775319011742
-1.188718286620198,1.3201137737339654
-1.1574998931678915,1.3813514079046847
-1.1222712689211713,1.438548757448074
-1.0831714451655123,1.4914800905564682
-1.0403547310422663,1.539936511440116
-0.9939901045609834,1.5837267847434204
-0.944260545720401,1.6226780902635274
-0.8913623143699891,1.656636704992708
-0.8355041756619843,1.6854686097928409
-0.7769065761507112,1.7090600183077247
-0.7158007737907441,1.7273178260258404
-0.6524279252674126,1.7401699777213238
-0.5870381342615367,1.7475657518230219
-0.5198894644044634,1.749475960589363
-0.45124692081880957,1.7458930652990383
-0.38138140426431155,1.7368312060028894
-0.3105686420162931,1.7223261457195886
-0.23908809969607292,1.702435129295342
-0.16722187834783409,1.6772366574846354
-9.52536011146865e-2,1.6468301771436185
-2.3467293907689424e-2,1.611335688758798
4.7853735514653994e-2,1.5708932728599398
0.11842801563269312,1.5256625371862147
0.187977022005124,1.475821986787368
0.25622627647771257,1.4215683195458442
0.32290643042317546,1.363115649900101
0.38775432773715224,1.3006946638327468
0.45051404339513246,1.2345517084583535
0.5109378934716011,1.16494781980394
0.5687874126353367,1.0921576926190362
0.6238342952631311,1.0164685962809936
0.6758612964577826,0.9381792410739981
0.7246630894144497,0.8575985993160504
0.7700470757517519,0.7750446859863741
0.8118341456095881,0.6908433036655852
0.8498593845139233,0.6053267567417533
0.8839727242188835,0.5188325399567906
0.9140395349575536,0.431702006468901
0.9399411567641689,0.3442790206876054
0.9615753677707835,0.2569086011980197
0.9788567876302858,0.16993555913011904
0.9917172144736188,8.370313734674695e-2
1.0001058940714027,-1.4483441791663942e-3
1.0039897201376888,-8.518283145204975e-2
1.0033533649853439,-0.1671698627052851
0.9981993400174316,-0.24708587258282888
0.9885479858158503,-0.32461546910384564
0.9744373918663491,-0.3994526783707686
0.95592324623673,-0.47130215210849125
0.9330786158014841,-0.5398803332690729
0.9059936578802206,-0.6049165751018655
0.8747752644279139,-0.6661542092725856
0.8395466401811946,-0.723351558815974
0.8004468164255347,-0.7762828919243678
0.7576301023022891,-0.8247393128080156
0.7112654758210062,-0.86852958611132
0.6615359169804231,-0.9074808916314279
0.608637685630012,-0.941439506360608"/></g><g stroke-opacity="1.0" fill="#a6cfe3" stroke="#1f78b5" stroke-width="3.0e-3" fill-opacity="1.0"><rect width="3.0000000000000027e-2" x="-0.1563623143699887" y="0.34259859931604997" height="3.0000000000000027e-2"/><rect width="2.9999999999999916e-2" x="0.9850000000000004" y="-1.5e-2" height="3.0e-2"/><rect width="3.0e-2" x="-1.4999999999999777e-2" y="-1.0150000000000003" height="2.9999999999999916e-2"/></g><g stroke-opacity="1.0" fill="#6666cc" stroke="#808080" stroke-width="2.0e-3" fill-opacity="0.1"><rect width="2.2870062381089493" x="-1.2870062381089489" y="-1.0000000000000004" height="2.749539690023556"/></g><g stroke-opacity="1.0" fill="none" stroke="#e63305" stroke-dasharray="3.0e-2 1.0e-2" stroke-linecap="round" stroke-width="5.0e-3"><polyline points="0.6086376856300117,-0.941439506360608
-0.8913623143699891,1.656636704992708"/></g><g stroke-opacity="1.0" fill="none" stroke="#e6e605" stroke-dasharray="3.0e-2 1.0e-2" stroke-linecap="round" stroke-width="5.0e-3"><polyline points="-1.0073877181544273,-0.14240140068395002
0.7246630894144497,0.8575985993160504"/></g></svg>