<svg viewBox="0.0 -408.0 612.0 408.0" xmlns="http://www.w3.org/2000/svg" xmlns:xlink="http://www.w3.org/1999/xlink" version="1.1" width="600.0" height="400.0"><style type="text/css"> {
  shape-rendering: &quot;crispEdges&quot;;
}
</style><g stroke-width="1.0e-3" stroke="#2C429D" fill="#D99721" fill-opacity="0.8" stroke-opacity="0.4"><rect width="2.0e-2" height="2.0e-2" x="-1.0e-2" y="-1.0e-2" /><rect width="2.0000000000000018e-2" height="2.0000000000000018e-2" x="0.19943951023931952" y="-0.21791169081775932" /><rect width="2.0000000000000018e-2" height="2.0000000000000018e-2" x="0.40887902047863905" y="-0.41673664307580016" /><rect width="2.0000000000000018e-2" height="2.0000000000000018e-2" x="0.6183185307179586" y="-0.5977852522924731" /><rect width="2.0000000000000018e-2" height="2.0000000000000018e-2" x="0.8277580409572781" y="-0.7531448254773941" /><rect width="2.0000000000000018e-2" height="2.0000000000000018e-2" x="1.0371975511965976" y="-0.8760254037844386" /><rect width="2.0000000000000018e-2" height="2.0000000000000018e-2" x="1.2466370614359172" y="-0.9610565162951535" /><rect width="2.0000000000000018e-2" height="2.0000000000000018e-2" x="1.4560765716752366" y="-1.0045218953682733" /><rect width="2.0000000000000018e-2" height="1.9999999999999907e-2" x="1.6655160819145562" y="-1.0045218953682733" /><rect width="2.0000000000000018e-2" height="2.0000000000000018e-2" x="1.8749555921538759" y="-0.9610565162951537" /><rect width="1.9999999999999574e-2" height="2.0000000000000018e-2" x="2.0843951023931955" y="-0.8760254037844388" /><rect width="1.9999999999999574e-2" height="2.0000000000000018e-2" x="2.293834612632515" y="-0.7531448254773945" /><rect width="1.9999999999999574e-2" height="2.0000000000000018e-2" x="2.5032741228718347" y="-0.5977852522924733" /><rect width="1.9999999999999574e-2" height="2.0000000000000018e-2" x="2.712713633111154" y="-0.41673664307580044" /><rect width="1.9999999999999574e-2" height="2.0000000000000018e-2" x="2.9221531433504735" y="-0.21791169081775974" /><rect width="1.9999999999999574e-2" height="2.0e-2" x="3.1315926535897933" y="-1.0000000000000123e-2" /><rect width="1.9999999999999574e-2" height="2.0000000000000018e-2" x="3.3410321638291127" y="0.19791169081775906" /><rect width="1.9999999999999574e-2" height="2.0000000000000018e-2" x="3.550471674068432" y="0.3967366430757998" /><rect width="1.9999999999999574e-2" height="2.0000000000000018e-2" x="3.759911184307752" y="0.577785252292473" /><rect width="1.9999999999999574e-2" height="2.0000000000000018e-2" x="3.9693506945470713" y="0.733144825477394" /><rect width="1.9999999999999574e-2" height="2.0000000000000018e-2" x="4.178790204786391" y="0.8560254037844384" /><rect width="1.9999999999999574e-2" height="2.0000000000000018e-2" x="4.388229715025711" y="0.9410565162951535" /><rect width="1.9999999999999574e-2" height="2.0000000000000018e-2" x="4.5976692252650295" y="0.9845218953682733" /><rect width="1.9999999999999574e-2" height="1.9999999999999907e-2" x="4.807108735504349" y="0.9845218953682734" /><rect width="1.9999999999999574e-2" height="2.0000000000000018e-2" x="5.016548245743669" y="0.9410565162951536" /><rect width="1.9999999999999574e-2" height="2.0000000000000018e-2" x="5.225987755982988" y="0.856025403784439" /><rect width="1.9999999999999574e-2" height="2.0000000000000018e-2" x="5.435427266222308" y="0.7331448254773947" /><rect width="1.9999999999999574e-2" height="2.0000000000000018e-2" x="5.644866776461628" y="0.5777852522924732" /><rect width="1.9999999999999574e-2" height="2.0000000000000018e-2" x="5.854306286700947" y="0.3967366430758009" /><rect width="1.9999999999999574e-2" height="2.0000000000000018e-2" x="6.063745796940267" y="0.19791169081775986" /><rect width="1.9999999999999574e-2" height="2.0e-2" x="6.2731853071795864" y="-9.999999999999756e-3" /></g><g stroke-width="1.0e-3" stroke="#2C429D" fill="#641E1E" fill-opacity="0.8" stroke-opacity="0.4"><rect width="2.0e-2" height="2.9999999999999916e-2" x="-1.0e-2" y="-1.015" rx="1.0e-2" ry="1.0e-2" /><rect width="2.0000000000000018e-2" height="3.0000000000000027e-2" x="0.19943951023931952" y="-0.9931476007338057" rx="1.0e-2" ry="1.0e-2" /><rect width="2.0000000000000018e-2" height="3.0000000000000027e-2" x="0.40887902047863905" y="-0.9285454576426009" rx="1.0e-2" ry="1.0e-2" /><rect width="2.0000000000000018e-2" height="3.0000000000000027e-2" x="0.6183185307179586" y="-0.8240169943749475" rx="1.0e-2" ry="1.0e-2" /><rect width="2.0000000000000018e-2" height="3.0000000000000027e-2" x="0.8277580409572781" y="-0.6841306063588584" rx="1.0e-2" ry="1.0e-2" /><rect width="2.0000000000000018e-2" height="3.0000000000000027e-2" x="1.0371975511965976" y="-0.5150000000000001" rx="1.0e-2" ry="1.0e-2" /><rect width="2.0000000000000018e-2" height="3.0000000000000027e-2" x="1.2466370614359172" y="-0.32401699437494746" rx="1.0e-2" ry="1.0e-2" /><rect width="2.0000000000000018e-2" height="3.0e-2" x="1.4560765716752366" y="-0.11952846326765366" rx="1.0e-2" ry="1.0e-2" /><rect width="2.0000000000000018e-2" height="3.0e-2" x="1.6655160819145562" y="8.952846326765333e-2" rx="1.0e-2" ry="1.0e-2" /><rect width="2.0000000000000018e-2" height="3.0000000000000027e-2" x="1.8749555921538759" y="0.2940169943749473" rx="1.0e-2" ry="1.0e-2" /><rect width="1.9999999999999574e-2" height="3.0000000000000027e-2" x="2.0843951023931955" y="0.48499999999999976" rx="1.0e-2" ry="1.0e-2" /><rect width="1.9999999999999574e-2" height="3.0000000000000027e-2" x="2.293834612632515" y="0.6541306063588579" rx="1.0e-2" ry="1.0e-2" /><rect width="1.9999999999999574e-2" height="3.0000000000000027e-2" x="2.5032741228718347" y="0.7940169943749473" rx="1.0e-2" ry="1.0e-2" /><rect width="1.9999999999999574e-2" height="3.0000000000000027e-2" x="2.712713633111154" y="0.8985454576426007" rx="1.0e-2" ry="1.0e-2" /><rect width="1.9999999999999574e-2" height="3.0000000000000027e-2" x="2.9221531433504735" y="0.9631476007338056" rx="1.0e-2" ry="1.0e-2" /><rect width="1.9999999999999574e-2" height="2.9999999999999916e-2" x="3.1315926535897933" y="0.985" rx="1.0e-2" ry="1.0e-2" /><rect width="1.9999999999999574e-2" height="3.0000000000000027e-2" x="3.3410321638291127" y="0.9631476007338057" rx="1.0e-2" ry="1.0e-2" /><rect width="1.9999999999999574e-2" height="3.0000000000000027e-2" x="3.550471674068432" y="0.8985454576426011" rx="1.0e-2" ry="1.0e-2" /><rect width="1.9999999999999574e-2" height="3.0000000000000027e-2" x="3.759911184307752" y="0.7940169943749474" rx="1.0e-2" ry="1.0e-2" /><rect width="1.9999999999999574e-2" height="3.0000000000000027e-2" x="3.9693506945470713" y="0.6541306063588584" rx="1.0e-2" ry="1.0e-2" /><rect width="1.9999999999999574e-2" height="3.0000000000000027e-2" x="4.178790204786391" y="0.48500000000000043" rx="1.0e-2" ry="1.0e-2" /><rect width="1.9999999999999574e-2" height="3.0000000000000027e-2" x="4.388229715025711" y="0.29401699437494755" rx="1.0e-2" ry="1.0e-2" /><rect width="1.9999999999999574e-2" height="3.0e-2" x="4.5976692252650295" y="8.952846326765423e-2" rx="1.0e-2" ry="1.0e-2" /><rect width="1.9999999999999574e-2" height="3.0e-2" x="4.807108735504349" y="-0.119528463267653" rx="1.0e-2" ry="1.0e-2" /><rect width="1.9999999999999574e-2" height="3.0000000000000027e-2" x="5.016548245743669" y="-0.32401699437494724" rx="1.0e-2" ry="1.0e-2" /><rect width="1.9999999999999574e-2" height="2.999999999999997e-2" x="5.225987755982988" y="-0.5149999999999992" rx="1.0e-2" ry="1.0e-2" /><rect width="1.9999999999999574e-2" height="3.0000000000000027e-2" x="5.435427266222308" y="-0.6841306063588578" rx="1.0e-2" ry="1.0e-2" /><rect width="1.9999999999999574e-2" height="3.0000000000000027e-2" x="5.644866776461628" y="-0.8240169943749474" rx="1.0e-2" ry="1.0e-2" /><rect width="1.9999999999999574e-2" height="3.0000000000000027e-2" x="5.854306286700947" y="-0.9285454576426005" rx="1.0e-2" ry="1.0e-2" /><rect width="1.9999999999999574e-2" height="3.0000000000000027e-2" x="6.063745796940267" y="-0.9931476007338056" rx="1.0e-2" ry="1.0e-2" /><rect width="1.9999999999999574e-2" height="2.9999999999999916e-2" x="6.2731853071795864" y="-1.015" rx="1.0e-2" ry="1.0e-2" /></g></svg>