<svg width="688.5435933420911" xmlns:xlink="http://www.w3.org/1999/xlink" xmlns="http://www.w3.org/2000/svg" viewBox="-0.75 -7.571067811865477e-2 1.5 0.13071067811865478" height="60.0"><style>svg {
  color-scheme: light dark;
}
{
  .canvas g, .title g, .axisbar g, .ticktext g, .tickglyph g, .ticklines g, .legendContent g text {
    fill: #0d0d0d;
  }
  .ticklines g, .tickglyph g, .legendBorder g {
    stroke: #0d0d0d;
  }
}
@media (prefers-color-scheme:dark) {
  .canvas g, .title g, .axisbar g, .ticktext g, .tickglyph g, .ticklines g, .legendContent g text {
    fill: #f0f0f0;
  }
  .ticklines g, .tickglyph g, .legendBorder g {
    stroke: #f0f0f0;
  }
}</style><g class="chart"><g class="glyphs"><g stroke-opacity="1.0" fill="#a6cfe3" stroke="#1f78b5" stroke-width="1.0e-2" fill-opacity="1.0"><circle cx="-0.695" cy="-0.0" r="5.0e-2"/></g><g stroke-opacity="1.0" fill="#a6cfe3" stroke="#1f78b5" stroke-width="1.0e-2" fill-opacity="1.0"><rect width="0.10000000000000003" x="-0.57125" y="-5.0e-2" height="0.1"/></g><g stroke-opacity="1.0" fill="#a6cfe3" stroke="#1f78b5" stroke-width="1.0e-2" fill-opacity="1.0"><rect width="9.999999999999998e-2" x="-0.39749999999999996" y="-3.7500000000000006e-2" height="7.500000000000001e-2"/></g><g stroke-opacity="1.0" fill="#a6cfe3" stroke="#1f78b5" stroke-width="1.0e-2" fill-opacity="1.0"><rect width="9.999999999999999e-2" x="-0.22374999999999995" y="-3.7500000000000006e-2" height="7.500000000000001e-2" ry="1.0e-2" rx="1.0e-2"/></g><g stroke-opacity="1.0" fill="#a6cfe3" stroke="#1f78b5" stroke-width="1.0e-2" fill-opacity="1.0"><ellipse cx="0.0" cy="-0.0" ry="3.7500000000000006e-2" rx="5.0e-2"/></g><g stroke-opacity="1.0" fill="#a6cfe3" stroke="#1f78b5" stroke-width="1.0e-2" fill-opacity="1.0"><polyline points="0.17374999999999996,5.0e-2
0.17374999999999996,-5.0e-2"/></g><g stroke-opacity="1.0" fill="#a6cfe3" stroke="#1f78b5" stroke-width="1.0e-2" fill-opacity="1.0"><polyline points="0.29750000000000004,-0.0
0.3975,-0.0"/></g><g stroke-opacity="1.0" fill="#a6cfe3" stroke="#1f78b5" stroke-width="1.0e-2" fill-opacity="1.0"><polygon transform="translate(0.5212499999999999, -0.0)" points="0.0,-7.071067811865477e-2 -5.000000000000002e-2,4.330127018922193e-2 5.000000000000002e-2,4.330127018922193e-2"/></g><g stroke-opacity="1.0" fill="#a6cfe3" stroke="#1f78b5" stroke-width="9.999999999999999e-2" fill-opacity="1.0"><path d="M 0.5,-0.3660 A 1.0 1.0 -0.0 0 1 0,0.5 A 1.0 1.0 -0.0 0 1 -0.5,-0.3660 A 1.0 1.0 -0.0 0 1 0.5,-0.3660 L 0.5,-0.3660 Z" transform="translate(0.695, -0.0) scale(0.1)"/></g></g></g><g class="hud"></g></svg>