<?xml version="1.0" encoding="UTF-8"?>
<!DOCTYPE svg PUBLIC "-//W3C//DTD SVG 1.1//EN"
    "http://www.w3.org/Graphics/SVG/1.1/DTD/svg11.dtd">
<svg xmlns="http://www.w3.org/2000/svg" height="300.0" viewBox="-0.685 -0.52 1.37 1.04" width="399.0" xmlns:xlink="http://www.w3.org/1999/xlink" version="1.11.1">
  <style type="text/css">{ shape-rendering: &#39;crispEdges&#39;; }
  </style>
  <defs>
  </defs>
  <g stroke-opacity="0.4" fill-opacity="0.8" stroke="#2c429d" stroke-width="1.0e-2" fill="#d99721">
    <circle cy="-0.0" r="5.0e-2" cx="0.0"/>
  </g>
  <g stroke-opacity="0.4" fill-opacity="0.8" stroke="#2c429d" stroke-width="1.0e-2" fill="#d99721">
    <rect height="0.1" width="0.10000000000000009" x="0.95" y="-5.0e-2"/>
  </g>
  <g stroke-opacity="0.4" fill-opacity="0.8" stroke="#2c429d" stroke-width="1.0e-2" fill="#d99721">
    <rect height="7.500000000000001e-2" width="9.999999999999987e-2" x="1.95" y="-3.7500000000000006e-2"/>
  </g>
  <g stroke-opacity="0.4" fill-opacity="0.8" stroke="#2c429d" stroke-width="1.0e-2" fill="#d99721">
    <rect height="7.500000000000001e-2" rx="1.0e-2" ry="1.0e-2" width="9.999999999999964e-2" x="2.95" y="-3.7500000000000006e-2"/>
  </g>
  <g stroke-opacity="0.4" fill-opacity="0.8" stroke="#2c429d" stroke-width="0.0" fill="#d99721">
    <ellipse rx="5.0e-2" ry="3.7500000000000006e-2" cy="-0.0" cx="4.0"/>
  </g>
  <g stroke-opacity="0.4" fill-opacity="0.8" stroke="#2c429d" stroke-width="1.0e-2" fill="#d99721">
    <polyline points="5.0,5.0e-2
5.0,-5.0e-2"/>
  </g>
  <g stroke-opacity="0.4" fill-opacity="0.8" stroke="#2c429d" stroke-width="1.0e-2" fill="#d99721">
    <polyline points="5.95,-0.0
6.05,-0.0"/>
  </g>
  <g stroke-opacity="0.4" fill-opacity="0.8" stroke="#2c429d" stroke-width="1.0e-2" fill="#d99721">
    <polygon transform="translate(7.0, -0.0)" points="0.0,-0.0 0.1,-0.1 0.1,-0.0"/>
  </g>
  <g stroke-opacity="0.4" fill-opacity="0.8" stroke="#2c429d" stroke-width="1.0e-2" fill="#d99721">
    <path transform="translate(8.0, -0.0)" d="M0.0,-1.2320508075688774 A0.5 0.5 0.0 1 1 1.0,0.5 1.0 1.0 0.0 0 0 0.5,-0.3660254037844387 1.0 1.0 0.0 0 0 0.0,-1.2320508075688774 Z"/>
  </g>
</svg>