<svg width="297.5991399904443" xmlns:xlink="http://www.w3.org/1999/xlink" xmlns="http://www.w3.org/2000/svg" viewBox="-0.7737577639751553 -0.52 1.5475155279503106 1.04" height="200.0"><style>svg {
  color-scheme: light dark;
}
{
  .canvas g, .title g, .axisbar g, .ticktext g, .tickglyph g, .ticklines g, .legendContent g text {
    fill: #0d0d0d;
  }
  .ticklines g, .tickglyph g, .legendBorder g {
    stroke: #0d0d0d;
  }
}
@media (prefers-color-scheme:dark) {
  .canvas g, .title g, .axisbar g, .ticktext g, .tickglyph g, .ticklines g, .legendContent g text {
    fill: #f0f0f0;
  }
  .ticklines g, .tickglyph g, .legendBorder g {
    stroke: #f0f0f0;
  }
}</style><g class="chart"><g class="glyphs"><g stroke-opacity="1.0" fill="#a6cfe3" stroke="#1f78b5" stroke-width="1.0e-2" fill-opacity="1.0"><circle cx="-0.6987577639751552" cy="-0.0" r="5.0e-2"/></g><g stroke-opacity="1.0" fill="#a6cfe3" stroke="#1f78b5" stroke-width="1.0e-2" fill-opacity="1.0"><rect width="0.10000000000000003" x="-0.5740683229813666" y="-5.0e-2" height="0.1"/></g><g stroke-opacity="1.0" fill="#a6cfe3" stroke="#1f78b5" stroke-width="1.0e-2" fill-opacity="1.0"><rect width="9.999999999999998e-2" x="-0.3993788819875776" y="-3.7500000000000006e-2" height="7.500000000000001e-2"/></g><g stroke-opacity="1.0" fill="#a6cfe3" stroke="#1f78b5" stroke-width="1.0e-2" fill-opacity="1.0"><rect width="9.999999999999999e-2" x="-0.2246894409937889" y="-3.7500000000000006e-2" height="7.500000000000001e-2" ry="1.0e-2" rx="1.0e-2"/></g><g stroke-opacity="1.0" fill="#a6cfe3" stroke="#1f78b5" stroke-width="1.0e-2" fill-opacity="1.0"><ellipse cx="0.0" cy="-0.0" ry="3.7500000000000006e-2" rx="5.0e-2"/></g><g stroke-opacity="1.0" fill="#a6cfe3" stroke="#1f78b5" stroke-width="1.0e-2" fill-opacity="1.0"><polyline points="0.1746894409937889,5.0e-2
0.1746894409937889,-5.0e-2"/></g><g stroke-opacity="1.0" fill="#a6cfe3" stroke="#1f78b5" stroke-width="1.0e-2" fill-opacity="1.0"><polyline points="0.29937888198757784,-0.0
0.3993788819875778,-0.0"/></g><g stroke-opacity="1.0" fill="#a6cfe3" stroke="#1f78b5" stroke-width="1.0e-2" fill-opacity="1.0"><polygon transform="translate(0.5240683229813665, -0.0)" points="0.0,-7.071067811865477e-2 -5.000000000000002e-2,4.330127018922193e-2 5.000000000000002e-2,4.330127018922193e-2"/></g><g stroke-opacity="1.0" fill="#a6cfe3" stroke="#1f78b5" stroke-width="9.999999999999999e-2" fill-opacity="1.0"><path d="M 0.5,-0.3660 A 1.0 1.0 -0.0 0 1 0,0.5 A 1.0 1.0 -0.0 0 1 -0.5,-0.3660 A 1.0 1.0 -0.0 0 1 0.5,-0.3660 L 0.5,-0.3660 Z" transform="translate(0.6987577639751552, -0.0) scale(0.1)"/></g></g></g><g class="hud"></g></svg>