<?xml version='1.0' ?>
<svg viewBox="-1.8761050000000004 -0.696355 3.7522100000000007 1.39271" xmlns="http://www.w3.org/2000/svg" xmlns:xlink="http://www.w3.org/1999/xlink" version="1.1" width="600.0" height="200.0">
  <g stroke-width="1.0e-2" stroke="#5DA5DA" fill="#000000" fill-opacity="0.0" stroke-opacity="1.0">
    <rect width="3.4111000000000002" height="1.2660999999999998" x="-1.7055500000000001" y="-0.6330499999999999" />
  </g>
  <g stroke-width="0.0" stroke="#666666" fill="#FF0000" fill-opacity="0.3" stroke-opacity="0.3">
    <circle cx="-1.5" r="2.0e-2" />
  </g>
  <g stroke-width="1.0e-3" stroke="#666666" fill="#5DA5DA" fill-opacity="0.3" stroke-opacity="0.3">
    <circle cx="-1.5" r="5.0e-2" />
    <circle cx="-1.4" cy="-0.1039558454088797" r="5.0e-2" />
    <circle cx="-1.3" cy="-0.20336832153790008" r="5.0e-2" />
    <circle cx="-1.2" cy="-0.29389262614623657" r="5.0e-2" />
    <circle cx="-1.1" cy="-0.371572412738697" r="5.0e-2" />
    <circle cx="-1.0" cy="-0.4330127018922193" r="5.0e-2" />
    <circle cx="-0.8999999999999999" cy="-0.4755282581475768" r="5.0e-2" />
    <circle cx="-0.8" cy="-0.49726094768413664" r="5.0e-2" />
    <circle cx="-0.7" cy="-0.49726094768413676" r="5.0e-2" />
    <circle cx="-0.6000000000000001" cy="-0.4755282581475768" r="5.0e-2" />
    <circle cx="-0.5" cy="-0.4330127018922194" r="5.0e-2" />
    <circle cx="-0.40000000000000013" cy="-0.37157241273869723" r="5.0e-2" />
    <circle cx="-0.2999999999999998" cy="-0.2938926261462367" r="5.0e-2" />
    <circle cx="-0.20000000000000018" cy="-0.2033683215379002" r="5.0e-2" />
    <circle cx="-0.10000000000000009" cy="-0.10395584540887981" r="5.0e-2" />
    <circle cy="-1.1102230246251565e-16" r="5.0e-2" />
    <circle cx="0.10000000000000009" cy="0.10395584540887953" r="5.0e-2" />
    <circle cx="0.19999999999999996" cy="0.2033683215378999" r="5.0e-2" />
    <circle cx="0.2999999999999998" cy="0.2938926261462365" r="5.0e-2" />
    <circle cx="0.3999999999999999" cy="0.371572412738697" r="5.0e-2" />
    <circle cx="0.5" cy="0.4330127018922192" r="5.0e-2" />
    <circle cx="0.6000000000000001" cy="0.47552825814757677" r="5.0e-2" />
    <circle cx="0.6999999999999997" cy="0.49726094768413664" r="5.0e-2" />
    <circle cx="0.7999999999999998" cy="0.4972609476841367" r="5.0e-2" />
    <circle cx="0.9000000000000004" cy="0.4755282581475768" r="5.0e-2" />
    <circle cx="1.0" cy="0.4330127018922195" r="5.0e-2" />
    <circle cx="1.0999999999999996" cy="0.37157241273869734" r="5.0e-2" />
    <circle cx="1.2000000000000002" cy="0.2938926261462366" r="5.0e-2" />
    <circle cx="1.2999999999999998" cy="0.20336832153790046" r="5.0e-2" />
    <circle cx="1.4" cy="0.10395584540887992" r="5.0e-2" />
    <circle cx="1.5" cy="1.1102230246251565e-16" r="5.0e-2" />
  </g>
  <g stroke-width="1.0e-3" stroke="#666666" fill="#641E1E" fill-opacity="0.3" stroke-opacity="0.3">
    <rect width="0.1" height="0.15000000000000002" x="-1.55" y="-0.575" rx="1.0e-2" ry="1.0e-2" />
    <rect width="0.1" height="0.15000000000000002" x="-1.45" y="-0.5640738003669028" rx="1.0e-2" ry="1.0e-2" />
    <rect width="0.1" height="0.15000000000000002" x="-1.35" y="-0.5317727288213003" rx="1.0e-2" ry="1.0e-2" />
    <rect width="0.1" height="0.15000000000000002" x="-1.25" y="-0.47950849718747374" rx="1.0e-2" ry="1.0e-2" />
    <rect width="0.1" height="0.15000000000000002" x="-1.1500000000000001" y="-0.40956530317942913" rx="1.0e-2" ry="1.0e-2" />
    <rect width="0.1" height="0.15000000000000002" x="-1.05" y="-0.325" rx="1.0e-2" ry="1.0e-2" />
    <rect width="0.1" height="0.15000000000000002" x="-0.95" y="-0.22950849718747374" rx="1.0e-2" ry="1.0e-2" />
    <rect width="0.1" height="0.15000000000000002" x="-0.8500000000000001" y="-0.12726423163382689" rx="1.0e-2" ry="1.0e-2" />
    <rect width="0.1" height="0.15000000000000002" x="-0.75" y="-2.273576836617336e-2" rx="1.0e-2" ry="1.0e-2" />
    <rect width="0.1" height="0.15000000000000002" x="-0.6500000000000001" y="7.950849718747366e-2" rx="1.0e-2" ry="1.0e-2" />
    <rect width="0.1" height="0.15000000000000002" x="-0.55" y="0.17499999999999988" rx="1.0e-2" ry="1.0e-2" />
    <rect width="0.1" height="0.15000000000000002" x="-0.4500000000000001" y="0.25956530317942894" rx="1.0e-2" ry="1.0e-2" />
    <rect width="0.1" height="0.15000000000000002" x="-0.3499999999999998" y="0.32950849718747366" rx="1.0e-2" ry="1.0e-2" />
    <rect width="0.1" height="0.15000000000000002" x="-0.25000000000000017" y="0.38177272882130037" rx="1.0e-2" ry="1.0e-2" />
    <rect width="0.1" height="0.15000000000000002" x="-0.15000000000000008" y="0.4140738003669028" rx="1.0e-2" ry="1.0e-2" />
    <rect width="0.1" height="0.15000000000000002" x="-5.0e-2" y="0.425" rx="1.0e-2" ry="1.0e-2" />
    <rect width="0.1" height="0.15000000000000002" x="5.0000000000000086e-2" y="0.41407380036690283" rx="1.0e-2" ry="1.0e-2" />
    <rect width="0.1" height="0.15000000000000002" x="0.14999999999999997" y="0.38177272882130053" rx="1.0e-2" ry="1.0e-2" />
    <rect width="0.1" height="0.15000000000000002" x="0.24999999999999983" y="0.3295084971874737" rx="1.0e-2" ry="1.0e-2" />
    <rect width="0.1" height="0.15000000000000002" x="0.3499999999999999" y="0.2595653031794292" rx="1.0e-2" ry="1.0e-2" />
    <rect width="0.1" height="0.15000000000000002" x="0.45" y="0.1750000000000002" rx="1.0e-2" ry="1.0e-2" />
    <rect width="0.1" height="0.15000000000000002" x="0.55" y="7.950849718747377e-2" rx="1.0e-2" ry="1.0e-2" />
    <rect width="0.1" height="0.15000000000000002" x="0.6499999999999997" y="-2.2735768366172915e-2" rx="1.0e-2" ry="1.0e-2" />
    <rect width="0.1" height="0.15000000000000002" x="0.7499999999999998" y="-0.12726423163382655" rx="1.0e-2" ry="1.0e-2" />
    <rect width="0.1" height="0.15000000000000002" x="0.8500000000000003" y="-0.22950849718747363" rx="1.0e-2" ry="1.0e-2" />
    <rect width="0.1" height="0.15000000000000002" x="0.95" y="-0.3249999999999997" rx="1.0e-2" ry="1.0e-2" />
    <rect width="0.1" height="0.15000000000000002" x="1.0499999999999996" y="-0.4095653031794289" rx="1.0e-2" ry="1.0e-2" />
    <rect width="0.1" height="0.15000000000000002" x="1.1500000000000001" y="-0.47950849718747374" rx="1.0e-2" ry="1.0e-2" />
    <rect width="0.1" height="0.15000000000000002" x="1.2499999999999998" y="-0.5317727288213003" rx="1.0e-2" ry="1.0e-2" />
    <rect width="0.1" height="0.15000000000000002" x="1.3499999999999999" y="-0.5640738003669028" rx="1.0e-2" ry="1.0e-2" />
    <rect width="0.1" height="0.15000000000000002" x="1.45" y="-0.575" rx="1.0e-2" ry="1.0e-2" />
  </g>
</svg>
