<?xml version='1.0' ?>
<svg viewBox="-1.9420500000000003 -0.12705000000000002 3.8841000000000006 0.25410000000000005" xmlns="http://www.w3.org/2000/svg" xmlns:xlink="http://www.w3.org/1999/xlink" version="1.1" width="600.0" height="200.0">
  <g stroke-width="1.0e-2" stroke="#5DA5DA" fill="#000000" fill-opacity="0.0" stroke-opacity="1.0">
    <rect width="3.531" height="0.23100000000000004" x="-1.7655" y="-0.11550000000000002" />
  </g>
  <g stroke-width="0.0" stroke="#666666" fill="#FF0000" fill-opacity="0.3" stroke-opacity="0.3">
    <circle cx="-1.5" r="2.0e-2" />
  </g>
  <g stroke-width="1.0e-2" stroke="#666666" fill="#5DA5DA" fill-opacity="0.3" stroke-opacity="0.3">
    <circle cx="-1.5" r="0.1" />
  </g>
  <g stroke-width="1.0e-2" stroke="#666666" fill="#5DA5DA" fill-opacity="0.3" stroke-opacity="0.3">
    <rect width="0.20000000000000007" height="0.2" x="-1.1714285714285715" y="-0.1" />
  </g>
  <g stroke-width="1.0e-2" stroke="#666666" fill="#5DA5DA" fill-opacity="0.3" stroke-opacity="0.3">
    <rect width="0.19999999999999996" height="0.15000000000000002" x="-0.7428571428571429" y="-7.500000000000001e-2" />
  </g>
  <g stroke-width="1.0e-2" stroke="#666666" fill="#5DA5DA" fill-opacity="0.3" stroke-opacity="0.3">
    <rect width="0.2" height="0.15000000000000002" x="-0.3142857142857144" y="-7.500000000000001e-2" rx="1.0e-2" ry="1.0e-2" />
  </g>
  <g stroke-width="0.0" stroke="#666666" fill="#5DA5DA" fill-opacity="0.3" stroke-opacity="0.3">
    <ellipse cx="0.2142857142857142" rx="0.1" ry="7.500000000000001e-2" />
  </g>
  <g stroke-width="0.0" stroke="#666666" fill="#5DA5DA" fill-opacity="0.3" stroke-opacity="0.3">
    <line stroke-width="2.0e-2" x1="0.6428571428571423" y1="-0.1" x2="0.6428571428571423" y2="0.1" />
  </g>
  <g stroke-width="0.0" stroke="#666666" fill="#5DA5DA" fill-opacity="0.3" stroke-opacity="0.3">
    <line stroke-width="2.0e-2" x1="0.9714285714285712" x2="1.1714285714285713" />
  </g>
  <g stroke-width="1.0e-2" stroke="#666666" fill="#5DA5DA" fill-opacity="0.3" stroke-opacity="0.3">
    <g transform="translate(1.4, -0.1)">
      <circle fill="#FFFF00" cx="0.1" cy="0.1" r="0.1" />
      <ellipse fill="#FFFFFF" cx="6.999999999999999e-2" cy="6.0e-2" rx="1.0000000000000002e-2" ry="2.0000000000000004e-2" />
      <ellipse fill="#FFFFFF" cx="0.13" cy="6.0e-2" rx="1.0000000000000002e-2" ry="2.0000000000000004e-2" />
      <g>
        <path stroke-width="6.0e-3" stroke="#000000" fill="none" transform="translate(3.6e-2, 0.13)" d="M0.0,0.0 A7.600000000000001e-2 8.000000000000002e-2 2.0000000000000004e-2 0 0 0.13,0.0" />
      </g>
    </g>
  </g>
</svg>
