<svg width="386.29601226993873" xmlns:xlink="http://www.w3.org/1999/xlink" xmlns="http://www.w3.org/2000/svg" viewBox="-0.7743865030674847 3.124999999999999e-2 1.5451840490797548 0.19999999999999998" height="50.0"><style>svg {
  color-scheme: light dark;
}
@media (prefers-color-scheme:dark) {
  svg {
    background-color: #f0f0f0;
  }
}</style><g stroke-opacity="1.0" fill="#a6cfe3" stroke="#1f78b5" stroke-width="1.0e-2" fill-opacity="1.0"><circle cx="-0.6993865030674846" cy="0.15625" r="5.0e-2"/></g><g stroke-opacity="1.0" fill="#a6cfe3" stroke="#1f78b5" stroke-width="1.0e-2" fill-opacity="1.0"><rect width="0.10000000000000003" x="-0.5693634969325153" y="0.10625" height="9.999999999999999e-2"/></g><g stroke-opacity="1.0" fill="#a6cfe3" stroke="#1f78b5" stroke-width="1.0e-2" fill-opacity="1.0"><rect width="9.999999999999998e-2" x="-0.38934049079754596" y="0.11875" height="7.500000000000001e-2"/></g><g stroke-opacity="1.0" fill="#a6cfe3" stroke="#1f78b5" stroke-width="1.0e-2" fill-opacity="1.0"><rect width="9.999999999999999e-2" x="-0.20931748466257655" y="0.11875" height="7.500000000000001e-2" ry="1.0e-2" rx="1.0e-2"/></g><g stroke-opacity="1.0" fill="#a6cfe3" stroke="#1f78b5" stroke-width="0.0" fill-opacity="1.0"><ellipse cx="2.0705521472392685e-2" cy="0.15625" ry="3.7500000000000006e-2" rx="5.0e-2"/></g><g stroke-opacity="1.0" fill="#a6cfe3" stroke="#1f78b5" stroke-width="1.0e-2" fill-opacity="1.0"><polyline points="0.20072852760736204,0.20625
0.20072852760736204,0.10625"/></g><g stroke-opacity="1.0" fill="#a6cfe3" stroke="#1f78b5" stroke-width="1.0e-2" fill-opacity="1.0"><polyline points="0.3307515337423315,0.15625
0.4307515337423315,0.15625"/></g><g stroke-opacity="1.0" fill="#a6cfe3" stroke="#1f78b5" stroke-width="1.0e-2" fill-opacity="1.0"><polygon transform="translate(0.5607745398773005, 0.15625)" points="0.0,-0.0 0.1,-0.1 0.1,-0.0"/></g><g stroke-opacity="1.0" fill="#a6cfe3" stroke="#1f78b5" stroke-width="1.0e-2" fill-opacity="1.0"><path d="M0.05,-0.03660254037844387 A0.1 0.1 0.0 0 1 0.0,0.05 0.1 0.1 0.0 0 1 -0.05,-0.03660254037844387 0.1 0.1 0.0 0 1 0.05,-0.03660254037844387 Z" transform="translate(0.74079754601227, 0.15625) scale(0.1)"/></g></svg>