<svg viewBox="-0.7344 -5.6100000000000004e-2 1.4688 0.11220000000000001" xmlns="http://www.w3.org/2000/svg" xmlns:xlink="http://www.w3.org/1999/xlink" version="1.1" width="800.0" height="600.0"><g stroke-width="1.0e-2" stroke="#2C429D" fill="#D99721" fill-opacity="0.8" stroke-opacity="0.4"><circle cx="-0.665" r="5.0e-2" /></g><g stroke-width="1.0e-2" stroke="#2C429D" fill="#D99721" fill-opacity="0.8" stroke-opacity="0.4"><rect width="9.999999999999998e-2" height="0.1" x="-0.525" y="-5.0e-2" /></g><g stroke-width="1.0e-2" stroke="#2C429D" fill="#D99721" fill-opacity="0.8" stroke-opacity="0.4"><rect width="9.999999999999998e-2" height="7.500000000000001e-2" x="-0.335" y="-3.7500000000000006e-2" /></g><g stroke-width="1.0e-2" stroke="#2C429D" fill="#D99721" fill-opacity="0.8" stroke-opacity="0.4"><rect width="9.999999999999999e-2" height="7.500000000000001e-2" x="-0.14500000000000007" y="-3.7500000000000006e-2" rx="1.0e-2" ry="1.0e-2" /></g><g stroke-width="0.0" stroke="#2C429D" fill="#D99721" fill-opacity="0.8" stroke-opacity="0.4"><ellipse cx="9.499999999999997e-2" rx="5.0e-2" ry="3.7500000000000006e-2" /></g><g stroke-width="0.0" stroke="#2C429D" fill="#D99721" fill-opacity="0.8" stroke-opacity="0.4"><line stroke-width="2.0e-2" x1="0.2849999999999999" y1="5.0e-2" x2="0.2849999999999999" y2="-5.0e-2" /></g><g stroke-width="0.0" stroke="#2C429D" fill="#D99721" fill-opacity="0.8" stroke-opacity="0.4"><line stroke-width="2.0e-2" x1="0.4249999999999999" x2="0.5249999999999999" /></g><g stroke-width="1.0e-2" stroke="#2C429D" fill="#D99721" fill-opacity="0.8" stroke-opacity="0.4"><g transform="translate(0.615, -5.0e-2)"><circle fill="#FFFF00" cx="5.0e-2" cy="5.0e-2" r="5.0e-2" /><ellipse fill="#FFFFFF" cx="3.4999999999999996e-2" cy="3.0e-2" rx="5.000000000000001e-3" ry="1.0000000000000002e-2" /><ellipse fill="#FFFFFF" cx="6.5e-2" cy="3.0e-2" rx="5.000000000000001e-3" ry="1.0000000000000002e-2" /><g><path stroke-width="3.0e-3" stroke="#000000" fill="none" transform="translate(1.8e-2, 6.5e-2)" d="M0.0,0.0 A3.8000000000000006e-2 4.000000000000001e-2 1.0000000000000002e-2 0 0 6.5e-2,0.0" /></g></g></g></svg>