<svg viewBox="-0.9185099999999999 -0.5870099999999999 1.8370199999999999 1.1740199999999998" xmlns="http://www.w3.org/2000/svg" xmlns:xlink="http://www.w3.org/1999/xlink" version="1.1" width="800.0" height="600.0"><g stroke-width="1.0e-3" stroke="#2C429D" fill="#D99721" fill-opacity="0.8" stroke-opacity="0.4"><rect width="0.10000000000000009" height="0.1" x="-0.9" y="-5.0e-2" /><rect width="0.10000000000000009" height="9.999999999999999e-2" x="-0.8433333333333334" y="-0.1539558454088797" /><rect width="0.10000000000000009" height="9.999999999999998e-2" x="-0.7866666666666667" y="-0.25336832153790007" /><rect width="0.10000000000000009" height="9.999999999999998e-2" x="-0.73" y="-0.34389262614623656" /><rect width="0.10000000000000009" height="9.999999999999998e-2" x="-0.6733333333333333" y="-0.421572412738697" /><rect width="0.10000000000000009" height="9.999999999999998e-2" x="-0.6166666666666667" y="-0.4830127018922193" /><rect width="0.10000000000000003" height="0.10000000000000003" x="-0.56" y="-0.5255282581475769" /><rect width="0.10000000000000003" height="0.10000000000000003" x="-0.5033333333333334" y="-0.5472609476841367" /><rect width="9.999999999999998e-2" height="0.10000000000000003" x="-0.44666666666666666" y="-0.5472609476841368" /><rect width="9.999999999999998e-2" height="0.10000000000000003" x="-0.38999999999999996" y="-0.5255282581475769" /><rect width="9.999999999999998e-2" height="9.999999999999998e-2" x="-0.3333333333333333" y="-0.4830127018922194" /><rect width="9.999999999999998e-2" height="9.999999999999998e-2" x="-0.27666666666666667" y="-0.4215724127386972" /><rect width="9.999999999999999e-2" height="9.999999999999998e-2" x="-0.21999999999999992" y="-0.34389262614623667" /><rect width="9.999999999999999e-2" height="9.999999999999998e-2" x="-0.16333333333333339" y="-0.2533683215379002" /><rect width="0.1" height="9.999999999999999e-2" x="-0.10666666666666676" y="-0.1539558454088798" /><rect width="0.1" height="0.1" x="-5.0e-2" y="-5.0000000000000114e-2" /><rect width="0.1" height="9.999999999999999e-2" x="6.66666666666664e-3" y="5.395584540887953e-2" /><rect width="9.999999999999999e-2" height="9.999999999999998e-2" x="6.333333333333328e-2" y="0.15336832153789992" /><rect width="9.999999999999999e-2" height="9.999999999999998e-2" x="0.12000000000000004" y="0.24389262614623652" /><rect width="9.999999999999998e-2" height="9.999999999999998e-2" x="0.1766666666666667" y="0.321572412738697" /><rect width="9.999999999999998e-2" height="9.999999999999998e-2" x="0.23333333333333334" y="0.3830127018922192" /><rect width="9.999999999999998e-2" height="9.999999999999998e-2" x="0.2900000000000002" y="0.4255282581475768" /><rect width="9.999999999999998e-2" height="0.10000000000000003" x="0.3466666666666666" y="0.44726094768413666" /><rect width="0.10000000000000003" height="9.999999999999998e-2" x="0.40333333333333327" y="0.4472609476841367" /><rect width="0.10000000000000003" height="0.10000000000000003" x="0.46000000000000013" y="0.42552825814757683" /><rect width="0.10000000000000009" height="9.999999999999998e-2" x="0.5166666666666665" y="0.38301270189221953" /><rect width="0.10000000000000009" height="9.999999999999998e-2" x="0.5733333333333331" y="0.32157241273869736" /><rect width="0.10000000000000009" height="9.999999999999998e-2" x="0.63" y="0.24389262614623664" /><rect width="0.10000000000000009" height="9.999999999999998e-2" x="0.6866666666666664" y="0.15336832153790048" /><rect width="0.10000000000000009" height="9.999999999999999e-2" x="0.7433333333333333" y="5.395584540887992e-2" /><rect width="0.10000000000000009" height="0.1" x="0.7999999999999999" y="-4.999999999999989e-2" /></g><g stroke-width="1.0e-3" stroke="#2C429D" fill="#641E1E" fill-opacity="0.8" stroke-opacity="0.4"><rect width="0.10000000000000009" height="0.14999999999999997" x="-0.9" y="-0.575" rx="1.0e-2" ry="1.0e-2" /><rect width="0.10000000000000009" height="0.14999999999999997" x="-0.8433333333333334" y="-0.5640738003669028" rx="1.0e-2" ry="1.0e-2" /><rect width="0.10000000000000009" height="0.14999999999999997" x="-0.7866666666666667" y="-0.5317727288213003" rx="1.0e-2" ry="1.0e-2" /><rect width="0.10000000000000009" height="0.15000000000000002" x="-0.73" y="-0.47950849718747374" rx="1.0e-2" ry="1.0e-2" /><rect width="0.10000000000000009" height="0.15000000000000002" x="-0.6733333333333333" y="-0.40956530317942913" rx="1.0e-2" ry="1.0e-2" /><rect width="0.10000000000000009" height="0.15000000000000002" x="-0.6166666666666667" y="-0.325" rx="1.0e-2" ry="1.0e-2" /><rect width="0.10000000000000003" height="0.15000000000000002" x="-0.56" y="-0.22950849718747374" rx="1.0e-2" ry="1.0e-2" /><rect width="0.10000000000000003" height="0.15000000000000002" x="-0.5033333333333334" y="-0.12726423163382689" rx="1.0e-2" ry="1.0e-2" /><rect width="9.999999999999998e-2" height="0.15000000000000002" x="-0.44666666666666666" y="-2.273576836617336e-2" rx="1.0e-2" ry="1.0e-2" /><rect width="9.999999999999998e-2" height="0.15000000000000002" x="-0.38999999999999996" y="7.950849718747366e-2" rx="1.0e-2" ry="1.0e-2" /><rect width="9.999999999999998e-2" height="0.15000000000000002" x="-0.3333333333333333" y="0.17499999999999988" rx="1.0e-2" ry="1.0e-2" /><rect width="9.999999999999998e-2" height="0.15000000000000002" x="-0.27666666666666667" y="0.25956530317942894" rx="1.0e-2" ry="1.0e-2" /><rect width="9.999999999999999e-2" height="0.15000000000000002" x="-0.21999999999999992" y="0.32950849718747366" rx="1.0e-2" ry="1.0e-2" /><rect width="9.999999999999999e-2" height="0.14999999999999997" x="-0.16333333333333339" y="0.38177272882130037" rx="1.0e-2" ry="1.0e-2" /><rect width="0.1" height="0.15000000000000002" x="-0.10666666666666676" y="0.4140738003669028" rx="1.0e-2" ry="1.0e-2" /><rect width="0.1" height="0.14999999999999997" x="-5.0e-2" y="0.425" rx="1.0e-2" ry="1.0e-2" /><rect width="0.1" height="0.14999999999999997" x="6.66666666666664e-3" y="0.41407380036690283" rx="1.0e-2" ry="1.0e-2" /><rect width="9.999999999999999e-2" height="0.15000000000000002" x="6.333333333333328e-2" y="0.38177272882130053" rx="1.0e-2" ry="1.0e-2" /><rect width="9.999999999999999e-2" height="0.15000000000000002" x="0.12000000000000004" y="0.3295084971874737" rx="1.0e-2" ry="1.0e-2" /><rect width="9.999999999999998e-2" height="0.15000000000000002" x="0.1766666666666667" y="0.2595653031794292" rx="1.0e-2" ry="1.0e-2" /><rect width="9.999999999999998e-2" height="0.15000000000000002" x="0.23333333333333334" y="0.1750000000000002" rx="1.0e-2" ry="1.0e-2" /><rect width="9.999999999999998e-2" height="0.15000000000000002" x="0.2900000000000002" y="7.950849718747377e-2" rx="1.0e-2" ry="1.0e-2" /><rect width="9.999999999999998e-2" height="0.15000000000000002" x="0.3466666666666666" y="-2.2735768366172915e-2" rx="1.0e-2" ry="1.0e-2" /><rect width="0.10000000000000003" height="0.15000000000000002" x="0.40333333333333327" y="-0.12726423163382655" rx="1.0e-2" ry="1.0e-2" /><rect width="0.10000000000000003" height="0.15000000000000002" x="0.46000000000000013" y="-0.22950849718747363" rx="1.0e-2" ry="1.0e-2" /><rect width="0.10000000000000009" height="0.15000000000000002" x="0.5166666666666665" y="-0.3249999999999997" rx="1.0e-2" ry="1.0e-2" /><rect width="0.10000000000000009" height="0.15000000000000002" x="0.5733333333333331" y="-0.4095653031794289" rx="1.0e-2" ry="1.0e-2" /><rect width="0.10000000000000009" height="0.15000000000000002" x="0.63" y="-0.47950849718747374" rx="1.0e-2" ry="1.0e-2" /><rect width="0.10000000000000009" height="0.15000000000000008" x="0.6866666666666664" y="-0.5317727288213003" rx="1.0e-2" ry="1.0e-2" /><rect width="0.10000000000000009" height="0.14999999999999997" x="0.7433333333333333" y="-0.5640738003669028" rx="1.0e-2" ry="1.0e-2" /><rect width="0.10000000000000009" height="0.14999999999999997" x="0.7999999999999999" y="-0.575" rx="1.0e-2" ry="1.0e-2" /></g></svg>