<svg height="50.0" width="401.25" xmlns:xlink="http://www.w3.org/1999/xlink" xmlns="http://www.w3.org/2000/svg" viewBox="-0.8250000000000001 -0.15 1.605 0.2"><g fill-opacity="1.0" stroke-opacity="1.0" fill="#a6cfe3" stroke-width="1.0e-2" stroke="#1f78b5"><circle r="5.0e-2" cx="-0.75" cy="-2.5e-2"/></g><g fill-opacity="1.0" stroke-opacity="1.0" fill="#a6cfe3" stroke-width="1.0e-2" stroke="#1f78b5"><rect height="0.1" y="-7.500000000000001e-2" width="0.10000000000000009" x="-0.6125"/></g><g fill-opacity="1.0" stroke-opacity="1.0" fill="#a6cfe3" stroke-width="1.0e-2" stroke="#1f78b5"><rect height="7.500000000000001e-2" y="-6.25e-2" width="9.999999999999998e-2" x="-0.42500000000000004"/></g><g fill-opacity="1.0" stroke-opacity="1.0" fill="#a6cfe3" stroke-width="1.0e-2" stroke="#1f78b5"><rect height="7.500000000000001e-2" y="-6.25e-2" width="9.999999999999998e-2" ry="1.0e-2" x="-0.2375" rx="1.0e-2"/></g><g fill-opacity="1.0" stroke-opacity="1.0" fill="#a6cfe3" stroke-width="0.0" stroke="#1f78b5"><ellipse ry="3.7500000000000006e-2" rx="5.0e-2" cx="-1.1102230246251565e-16" cy="-2.5e-2"/></g><g fill-opacity="1.0" stroke-opacity="1.0" fill="#a6cfe3" stroke-width="1.0e-2" stroke="#1f78b5"><polyline points="0.18749999999999978,2.5e-2
0.18749999999999978,-7.500000000000001e-2"/></g><g fill-opacity="1.0" stroke-opacity="1.0" fill="#a6cfe3" stroke-width="1.0e-2" stroke="#1f78b5"><polyline points="0.325,-2.5e-2
0.425,-2.5e-2"/></g><g fill-opacity="1.0" stroke-opacity="1.0" fill="#a6cfe3" stroke-width="1.0e-2" stroke="#1f78b5"><polygon points="0.0,-0.0 0.1,-0.1 0.1,-0.0" transform="translate(0.5625, -2.5e-2)"/></g><g fill-opacity="1.0" stroke-opacity="1.0" fill="#a6cfe3" stroke-width="1.0e-2" stroke="#1f78b5"><path d="M0.05,-0.03660254037844387 A0.1 0.1 0.0 0 1 0.0,0.05 0.1 0.1 0.0 0 1 -0.05,-0.03660254037844387 0.1 0.1 0.0 0 1 0.05,-0.03660254037844387 Z" transform="translate(0.7499999999999998, -2.5e-2) scale(0.1)"/></g></svg>