<?xml version='1.0' ?>
<svg viewBox="-1.8761050000000004 -0.696355 3.7522100000000007 1.39271" xmlns="http://www.w3.org/2000/svg" xmlns:xlink="http://www.w3.org/1999/xlink" version="1.1" width="600.0" height="200.0">
  <g stroke-width="1.0e-2" stroke="#5DA5DA" fill="#000000" fill-opacity="0.0" stroke-opacity="1.0">
    <rect width="3.4111000000000002" height="1.2660999999999998" x="-1.7055500000000001" y="-0.6330499999999999" />
  </g>
  <g stroke-width="1.0e-3" stroke="#2C429D" fill="#D99721" fill-opacity="0.8" stroke-opacity="0.4">
    <rect width="0.10000000000000009" height="0.1" x="-1.55" y="-5.0e-2" />
    <rect width="0.10000000000000009" height="9.999999999999999e-2" x="-1.45" y="-0.1539558454088797" />
    <rect width="0.10000000000000009" height="9.999999999999998e-2" x="-1.35" y="-0.25336832153790007" />
    <rect width="0.10000000000000009" height="9.999999999999998e-2" x="-1.25" y="-0.34389262614623656" />
    <rect width="0.10000000000000009" height="9.999999999999998e-2" x="-1.1500000000000001" y="-0.421572412738697" />
    <rect width="0.10000000000000009" height="9.999999999999998e-2" x="-1.05" y="-0.4830127018922193" />
    <rect width="0.10000000000000009" height="0.10000000000000003" x="-0.95" y="-0.5255282581475769" />
    <rect width="0.10000000000000009" height="0.10000000000000003" x="-0.8500000000000001" y="-0.5472609476841367" />
    <rect width="0.10000000000000009" height="0.10000000000000003" x="-0.75" y="-0.5472609476841368" />
    <rect width="0.10000000000000009" height="0.10000000000000003" x="-0.6500000000000001" y="-0.5255282581475769" />
    <rect width="0.10000000000000003" height="9.999999999999998e-2" x="-0.55" y="-0.4830127018922194" />
    <rect width="9.999999999999998e-2" height="9.999999999999998e-2" x="-0.4500000000000001" y="-0.4215724127386972" />
    <rect width="9.999999999999998e-2" height="9.999999999999998e-2" x="-0.3499999999999998" y="-0.34389262614623667" />
    <rect width="9.999999999999998e-2" height="9.999999999999998e-2" x="-0.25000000000000017" y="-0.2533683215379002" />
    <rect width="9.999999999999999e-2" height="9.999999999999999e-2" x="-0.15000000000000008" y="-0.1539558454088798" />
    <rect width="0.1" height="0.1" x="-5.0e-2" y="-5.0000000000000114e-2" />
    <rect width="9.999999999999999e-2" height="9.999999999999999e-2" x="5.0000000000000086e-2" y="5.395584540887953e-2" />
    <rect width="9.999999999999998e-2" height="9.999999999999998e-2" x="0.14999999999999997" y="0.15336832153789992" />
    <rect width="9.999999999999998e-2" height="9.999999999999998e-2" x="0.24999999999999983" y="0.24389262614623652" />
    <rect width="9.999999999999998e-2" height="9.999999999999998e-2" x="0.3499999999999999" y="0.321572412738697" />
    <rect width="0.10000000000000003" height="9.999999999999998e-2" x="0.45" y="0.3830127018922192" />
    <rect width="0.10000000000000009" height="9.999999999999998e-2" x="0.55" y="0.4255282581475768" />
    <rect width="0.10000000000000009" height="0.10000000000000003" x="0.6499999999999997" y="0.44726094768413666" />
    <rect width="0.10000000000000009" height="9.999999999999998e-2" x="0.7499999999999998" y="0.4472609476841367" />
    <rect width="0.10000000000000009" height="0.10000000000000003" x="0.8500000000000003" y="0.42552825814757683" />
    <rect width="0.10000000000000009" height="9.999999999999998e-2" x="0.95" y="0.38301270189221953" />
    <rect width="0.10000000000000009" height="9.999999999999998e-2" x="1.0499999999999996" y="0.32157241273869736" />
    <rect width="0.10000000000000009" height="9.999999999999998e-2" x="1.1500000000000001" y="0.24389262614623664" />
    <rect width="0.10000000000000009" height="9.999999999999998e-2" x="1.2499999999999998" y="0.15336832153790048" />
    <rect width="0.10000000000000009" height="9.999999999999999e-2" x="1.3499999999999999" y="5.395584540887992e-2" />
    <rect width="0.10000000000000009" height="0.1" x="1.45" y="-4.999999999999989e-2" />
  </g>
  <g stroke-width="1.0e-3" stroke="#2C429D" fill="#641E1E" fill-opacity="0.8" stroke-opacity="0.4">
    <rect width="0.1" height="0.15000000000000002" x="-1.55" y="-0.575" rx="1.0e-2" ry="1.0e-2" />
    <rect width="0.1" height="0.15000000000000002" x="-1.45" y="-0.5640738003669028" rx="1.0e-2" ry="1.0e-2" />
    <rect width="0.1" height="0.15000000000000002" x="-1.35" y="-0.5317727288213003" rx="1.0e-2" ry="1.0e-2" />
    <rect width="0.1" height="0.15000000000000002" x="-1.25" y="-0.47950849718747374" rx="1.0e-2" ry="1.0e-2" />
    <rect width="0.1" height="0.15000000000000002" x="-1.1500000000000001" y="-0.40956530317942913" rx="1.0e-2" ry="1.0e-2" />
    <rect width="0.1" height="0.15000000000000002" x="-1.05" y="-0.325" rx="1.0e-2" ry="1.0e-2" />
    <rect width="0.1" height="0.15000000000000002" x="-0.95" y="-0.22950849718747374" rx="1.0e-2" ry="1.0e-2" />
    <rect width="0.1" height="0.15000000000000002" x="-0.8500000000000001" y="-0.12726423163382689" rx="1.0e-2" ry="1.0e-2" />
    <rect width="0.1" height="0.15000000000000002" x="-0.75" y="-2.273576836617336e-2" rx="1.0e-2" ry="1.0e-2" />
    <rect width="0.1" height="0.15000000000000002" x="-0.6500000000000001" y="7.950849718747366e-2" rx="1.0e-2" ry="1.0e-2" />
    <rect width="0.1" height="0.15000000000000002" x="-0.55" y="0.17499999999999988" rx="1.0e-2" ry="1.0e-2" />
    <rect width="0.1" height="0.15000000000000002" x="-0.4500000000000001" y="0.25956530317942894" rx="1.0e-2" ry="1.0e-2" />
    <rect width="0.1" height="0.15000000000000002" x="-0.3499999999999998" y="0.32950849718747366" rx="1.0e-2" ry="1.0e-2" />
    <rect width="0.1" height="0.15000000000000002" x="-0.25000000000000017" y="0.38177272882130037" rx="1.0e-2" ry="1.0e-2" />
    <rect width="0.1" height="0.15000000000000002" x="-0.15000000000000008" y="0.4140738003669028" rx="1.0e-2" ry="1.0e-2" />
    <rect width="0.1" height="0.15000000000000002" x="-5.0e-2" y="0.425" rx="1.0e-2" ry="1.0e-2" />
    <rect width="0.1" height="0.15000000000000002" x="5.0000000000000086e-2" y="0.41407380036690283" rx="1.0e-2" ry="1.0e-2" />
    <rect width="0.1" height="0.15000000000000002" x="0.14999999999999997" y="0.38177272882130053" rx="1.0e-2" ry="1.0e-2" />
    <rect width="0.1" height="0.15000000000000002" x="0.24999999999999983" y="0.3295084971874737" rx="1.0e-2" ry="1.0e-2" />
    <rect width="0.1" height="0.15000000000000002" x="0.3499999999999999" y="0.2595653031794292" rx="1.0e-2" ry="1.0e-2" />
    <rect width="0.1" height="0.15000000000000002" x="0.45" y="0.1750000000000002" rx="1.0e-2" ry="1.0e-2" />
    <rect width="0.1" height="0.15000000000000002" x="0.55" y="7.950849718747377e-2" rx="1.0e-2" ry="1.0e-2" />
    <rect width="0.1" height="0.15000000000000002" x="0.6499999999999997" y="-2.2735768366172915e-2" rx="1.0e-2" ry="1.0e-2" />
    <rect width="0.1" height="0.15000000000000002" x="0.7499999999999998" y="-0.12726423163382655" rx="1.0e-2" ry="1.0e-2" />
    <rect width="0.1" height="0.15000000000000002" x="0.8500000000000003" y="-0.22950849718747363" rx="1.0e-2" ry="1.0e-2" />
    <rect width="0.1" height="0.15000000000000002" x="0.95" y="-0.3249999999999997" rx="1.0e-2" ry="1.0e-2" />
    <rect width="0.1" height="0.15000000000000002" x="1.0499999999999996" y="-0.4095653031794289" rx="1.0e-2" ry="1.0e-2" />
    <rect width="0.1" height="0.15000000000000002" x="1.1500000000000001" y="-0.47950849718747374" rx="1.0e-2" ry="1.0e-2" />
    <rect width="0.1" height="0.15000000000000002" x="1.2499999999999998" y="-0.5317727288213003" rx="1.0e-2" ry="1.0e-2" />
    <rect width="0.1" height="0.15000000000000002" x="1.3499999999999999" y="-0.5640738003669028" rx="1.0e-2" ry="1.0e-2" />
    <rect width="0.1" height="0.15000000000000002" x="1.45" y="-0.575" rx="1.0e-2" ry="1.0e-2" />
  </g>
</svg>
