<svg xmlns="http://www.w3.org/2000/svg" xmlns:xlink="http://www.w3.org/1999/xlink" width="608" height="50" viewBox="-6.0 -0.4916 12.0000 0.9857"><style>svg {
  color-scheme: light dark;
}
{
  .canvas g, .title g, .axisbar g, .ticktext g, .tickglyph g, .ticklines g, .legendContent g text {
    fill: rgb(5%, 5%, 5%);
  }
  .ticklines g, .tickglyph g, .legendBorder g {
    stroke: rgb(5%, 5%, 5%);
  }
  .legendBorder g {
    fill: rgb(94%, 94%, 94%);
  }
}
@media (prefers-color-scheme:dark) {
  .canvas g, .title g, .axisbar g, .ticktext g, .tickglyph g, .ticklines g, .legendContent g text {
    fill: rgb(94%, 94%, 94%);
  }
  .ticklines g, .tickglyph g, .legendBorder g {
    stroke: rgb(94%, 94%, 94%);
  }
  .legendBorder g {
    fill: rgb(5%, 5%, 5%);
  }
}</style><g class="chart"><g class="glyphs"><g stroke-width="0.0200" stroke="rgb(2%, 29%, 48%)" stroke-opacity="1.0" fill="rgb(2%, 73%, 80%)" fill-opacity="0.2"><circle cx="-5.59" cy="0.0840" r="0.4"/></g><g stroke-width="0.0200" stroke="rgb(2%, 29%, 48%)" stroke-opacity="1.0" fill="rgb(2%, 73%, 80%)" fill-opacity="0.2"><rect width="0.8000" height="0.8" x="-4.5925" y="-0.3160"/></g><g stroke-width="0.0200" stroke="rgb(2%, 29%, 48%)" stroke-opacity="1.0" fill="rgb(2%, 73%, 80%)" fill-opacity="0.2"><rect width="0.8000" height="0.6000" x="-3.1950" y="-0.2160"/></g><g stroke-width="0.0200" stroke="rgb(2%, 29%, 48%)" stroke-opacity="1.0" fill="rgb(2%, 73%, 80%)" fill-opacity="0.2"><rect width="0.8000" height="0.6000" x="-1.7975" y="-0.2160" rx="0.0100" ry="0.0100"/></g><g stroke-width="0.0200" stroke="rgb(2%, 29%, 48%)" stroke-opacity="1.0" fill="rgb(2%, 73%, 80%)" fill-opacity="0.2"><ellipse cx="0.0" cy="8.40457922758524e-2" rx="0.4" ry="0.30000000000000004"/></g><g stroke-width="0.0200" stroke="rgb(2%, 29%, 48%)" stroke-opacity="1.0" fill="rgb(2%, 73%, 80%)" fill-opacity="0.2"><polyline points="1.3975,0.4840
1.3975,-0.3160"/></g><g stroke-width="0.0200" stroke="rgb(2%, 29%, 48%)" stroke-opacity="1.0" fill="rgb(2%, 73%, 80%)" fill-opacity="0.2"><polyline points="2.395,0.0840
3.195,0.0840"/></g><g stroke-width="0.0200" stroke="rgb(2%, 29%, 48%)" stroke-opacity="1.0" fill="rgb(2%, 73%, 80%)" fill-opacity="0.2"><polygon transform="translate(4.1925, 0.0840)" points="0,-0.5657 -0.4000,0.3464 0.4000,0.3464"/></g><g stroke-width="0.0250" stroke="rgb(2%, 29%, 48%)" stroke-opacity="1.0" fill="rgb(2%, 73%, 80%)" fill-opacity="0.2"><path d="M 0.5,-0.3660 A 1.0 1.0 -0.0 0 1 0,0.5 A 1.0 1.0 -0.0 0 1 -0.5,-0.3660 A 1.0 1.0 -0.0 0 1 0.5,-0.3660 L 0.5,-0.3660 Z" transform="translate(5.5900, 0.0840) scale(0.8)"/></g></g></g><g class="hud"></g></svg>