<svg viewBox="0.0 -408.0 612.0 408.0" xmlns="http://www.w3.org/2000/svg" xmlns:xlink="http://www.w3.org/1999/xlink" version="1.1" width="600.0" height="400.0"><style type="text/css"> {
  shape-rendering: &quot;crispEdges&quot;;
}
</style><g stroke-width="1.0e-2" stroke="#2C429D" fill="#D99721" fill-opacity="0.8" stroke-opacity="0.4"><circle r="5.0e-2" /></g><g stroke-width="1.0e-2" stroke="#2C429D" fill="#D99721" fill-opacity="0.8" stroke-opacity="0.4"><rect width="0.10000000000000009" height="0.1" x="0.95" y="-5.0e-2" /></g><g stroke-width="1.0e-2" stroke="#2C429D" fill="#D99721" fill-opacity="0.8" stroke-opacity="0.4"><rect width="9.999999999999987e-2" height="7.500000000000001e-2" x="1.95" y="-3.7500000000000006e-2" /></g><g stroke-width="1.0e-2" stroke="#2C429D" fill="#D99721" fill-opacity="0.8" stroke-opacity="0.4"><rect width="9.999999999999964e-2" height="7.500000000000001e-2" x="2.95" y="-3.7500000000000006e-2" rx="1.0e-2" ry="1.0e-2" /></g><g stroke-width="0.0" stroke="#2C429D" fill="#D99721" fill-opacity="0.8" stroke-opacity="0.4"><ellipse cx="4.0" rx="5.0e-2" ry="3.7500000000000006e-2" /></g><g stroke-width="0.0" stroke="#2C429D" fill="#D99721" fill-opacity="0.8" stroke-opacity="0.4"><line stroke-width="2.0e-2" x1="5.0" y1="5.0e-2" x2="5.0" y2="-5.0e-2" /></g><g stroke-width="0.0" stroke="#2C429D" fill="#D99721" fill-opacity="0.8" stroke-opacity="0.4"><line stroke-width="2.0e-2" x1="5.95" x2="6.05" /></g><g stroke-width="1.0e-2" stroke="#2C429D" fill="#D99721" fill-opacity="0.8" stroke-opacity="0.4"><g transform="translate(6.95, -5.0e-2)"><circle fill="#FFFF00" cx="5.0e-2" cy="5.0e-2" r="5.0e-2" /><ellipse fill="#FFFFFF" cx="3.4999999999999996e-2" cy="3.0e-2" rx="5.000000000000001e-3" ry="1.0000000000000002e-2" /><ellipse fill="#FFFFFF" cx="6.5e-2" cy="3.0e-2" rx="5.000000000000001e-3" ry="1.0000000000000002e-2" /><g><path stroke-width="3.0e-3" stroke="#000000" fill="none" transform="translate(1.8e-2, 6.5e-2)" d="M0.0,0.0 A3.8000000000000006e-2 4.000000000000001e-2 1.0000000000000002e-2 0 0 6.5e-2,0.0" /></g></g></g></svg>