<svg width="388.5174418604651" xmlns:xlink="http://www.w3.org/1999/xlink" xmlns="http://www.w3.org/2000/svg" viewBox="-0.7770348837209303 3.1249999999999934e-2 1.5540697674418604 0.2" height="50.0"><style>svg {
  color-scheme: light dark;
}
@media (prefers-color-scheme:dark) {
  svg {
    background-color: #f0f0f0;
  }
}</style><g stroke-opacity="1.0" fill="#a6cfe3" stroke="#1f78b5" stroke-width="1.0e-2" fill-opacity="1.0"><circle cx="-0.7020348837209303" cy="0.15624999999999994" r="5.0e-2"/></g><g stroke-opacity="1.0" fill="#a6cfe3" stroke="#1f78b5" stroke-width="1.0e-2" fill-opacity="1.0"><rect width="0.10000000000000003" x="-0.5765261627906977" y="0.10624999999999994" height="9.999999999999999e-2"/></g><g stroke-opacity="1.0" fill="#a6cfe3" stroke="#1f78b5" stroke-width="1.0e-2" fill-opacity="1.0"><rect width="9.999999999999998e-2" x="-0.40101744186046506" y="0.11874999999999994" height="7.500000000000001e-2"/></g><g stroke-opacity="1.0" fill="#a6cfe3" stroke="#1f78b5" stroke-width="1.0e-2" fill-opacity="1.0"><rect width="9.999999999999998e-2" x="-0.2255087209302326" y="0.11874999999999994" height="7.500000000000001e-2" ry="1.0e-2" rx="1.0e-2"/></g><g stroke-opacity="1.0" fill="#a6cfe3" stroke="#1f78b5" stroke-width="1.0e-2" fill-opacity="1.0"><ellipse cx="0.0" cy="0.15624999999999994" ry="3.7500000000000006e-2" rx="5.0e-2"/></g><g stroke-opacity="1.0" fill="#a6cfe3" stroke="#1f78b5" stroke-width="1.0e-2" fill-opacity="1.0"><polyline points="0.17550872093023262,0.20624999999999993
0.17550872093023262,0.10624999999999994"/></g><g stroke-opacity="1.0" fill="#a6cfe3" stroke="#1f78b5" stroke-width="1.0e-2" fill-opacity="1.0"><polyline points="0.30101744186046503,0.15624999999999994
0.401017441860465,0.15624999999999994"/></g><g stroke-opacity="1.0" fill="#a6cfe3" stroke="#1f78b5" stroke-width="1.0e-2" fill-opacity="1.0"><polygon transform="translate(0.5265261627906974, 0.15624999999999994)" points="0.0,-0.0 0.1,-0.1 0.1,-0.0"/></g><g stroke-opacity="1.0" fill="#a6cfe3" stroke="#1f78b5" stroke-width="0.1" fill-opacity="1.0"><path d="M 0.5,-0.3660 A 1.0 1.0 -0.0 0 1 0,0.5 A 1.0 1.0 -0.0 0 1 -0.5,-0.3660 A 1.0 1.0 -0.0 0 1 0.5,-0.3660 L 0.5,-0.3660 Z" transform="translate(0.70203488372093, 0.15624999999999994) scale(0.1)"/></g></svg>