<svg height="50" viewBox="-6.0 -0.5378 12.0 1.0378" width="578" xmlns="http://www.w3.org/2000/svg" xmlns:xlink="http://www.w3.org/1999/xlink"><style>svg {
  color-scheme: light dark;
}
{
  .canvas g, .title g, .axisbar g, .ticktext g, .tickglyph g, .ticklines g, .legendContent g text {
    fill: rgb(5%, 5%, 5%);
  }
  .ticklines g, .tickglyph g, .legendBorder g {
    stroke: rgb(5%, 5%, 5%);
  }
  .legendBorder g {
    fill: rgb(94%, 94%, 94%);
  }
}
@media (prefers-color-scheme:dark) {
  .canvas g, .title g, .axisbar g, .ticktext g, .tickglyph g, .ticklines g, .legendContent g text {
    fill: rgb(94%, 94%, 94%);
  }
  .ticklines g, .tickglyph g, .legendBorder g {
    stroke: rgb(94%, 94%, 94%);
  }
  .legendBorder g {
    fill: rgb(5%, 5%, 5%);
  }
}</style><g class="chart"><g class="glyphs"><g fill="rgb(2%, 73%, 80%)" fill-opacity="0.2" stroke="rgb(2%, 29%, 48%)" stroke-opacity="1.0" stroke-width="0.0200"><circle cx="-5.59" cy="0.0378" r="0.4"/></g><g fill="rgb(2%, 73%, 80%)" fill-opacity="0.2" stroke="rgb(2%, 29%, 48%)" stroke-opacity="1.0" stroke-width="0.0200"><rect height="0.8" width="0.8000" x="-4.5925" y="-0.3622"/></g><g fill="rgb(2%, 73%, 80%)" fill-opacity="0.2" stroke="rgb(2%, 29%, 48%)" stroke-opacity="1.0" stroke-width="0.0200"><rect height="0.6000" width="0.8000" x="-3.195" y="-0.2622"/></g><g fill="rgb(2%, 73%, 80%)" fill-opacity="0.2" stroke="rgb(2%, 29%, 48%)" stroke-opacity="1.0" stroke-width="0.0200"><rect height="0.6000" rx="0.0100" ry="0.0100" width="0.8000" x="-1.7975" y="-0.2622"/></g><g fill="rgb(2%, 73%, 80%)" fill-opacity="0.2" stroke="rgb(2%, 29%, 48%)" stroke-opacity="1.0" stroke-width="0.0200"><ellipse cx="0.0" cy="3.784271247461907e-2" rx="0.4" ry="0.30000000000000004"/></g><g fill="rgb(2%, 73%, 80%)" fill-opacity="0.2" stroke="rgb(2%, 29%, 48%)" stroke-opacity="1.0" stroke-width="0.0200"><polyline points="1.3975,0.4378
1.3975,-0.3622"/></g><g fill="rgb(2%, 73%, 80%)" fill-opacity="0.2" stroke="rgb(2%, 29%, 48%)" stroke-opacity="1.0" stroke-width="0.0200"><polyline points="2.395,0.0378
3.195,0.0378"/></g><g fill="rgb(2%, 73%, 80%)" fill-opacity="0.2" stroke="rgb(2%, 29%, 48%)" stroke-opacity="1.0" stroke-width="0.0200"><polygon points="0,-0.5657 -0.4000,0.3464 0.4000,0.3464" transform="translate(4.1925, 0.0378)"/></g><g fill="rgb(2%, 73%, 80%)" fill-opacity="0.2" stroke="rgb(2%, 29%, 48%)" stroke-opacity="1.0" stroke-width="0.0250"><path d="M 0.5,-0.3660 A 1.0 1.0 -0.0 0 1 0,0.5 A 1.0 1.0 -0.0 0 1 -0.5,-0.3660 A 1.0 1.0 -0.0 0 1 0.5,-0.3660 L 0.5,-0.3660 Z" transform="translate(5.59, 0.0378) scale(0.8)"/></g></g></g><g class="hud"/></svg>