<svg viewBox="-0.68901 -0.52581 1.37802 1.05162" xmlns="http://www.w3.org/2000/svg" xmlns:xlink="http://www.w3.org/1999/xlink" version="1.1" width="800.0" height="600.0"><g stroke-width="1.0e-3" stroke="#2C429D" fill="#D99721" fill-opacity="0.8" stroke-opacity="0.4"><rect width="2.0000000000000018e-2" height="2.0e-2" x="-0.675" y="-1.0e-2" /><rect width="2.0000000000000018e-2" height="1.999999999999999e-2" x="-0.6306666666666667" y="-0.1139558454088797" /><rect width="2.0000000000000018e-2" height="2.0000000000000018e-2" x="-0.5863333333333334" y="-0.21336832153790009" /><rect width="2.0000000000000018e-2" height="2.0000000000000018e-2" x="-0.542" y="-0.3038926261462366" /><rect width="2.0000000000000018e-2" height="2.0000000000000018e-2" x="-0.4976666666666667" y="-0.381572412738697" /><rect width="2.0000000000000018e-2" height="2.0000000000000018e-2" x="-0.45333333333333337" y="-0.4430127018922193" /><rect width="2.0000000000000018e-2" height="2.0000000000000018e-2" x="-0.40900000000000003" y="-0.48552825814757683" /><rect width="2.0000000000000018e-2" height="2.0000000000000018e-2" x="-0.36466666666666675" y="-0.5072609476841367" /><rect width="2.0000000000000018e-2" height="2.0000000000000018e-2" x="-0.32033333333333336" y="-0.5072609476841368" /><rect width="2.0000000000000018e-2" height="2.0000000000000018e-2" x="-0.276" y="-0.48552825814757683" /><rect width="2.0000000000000018e-2" height="2.0000000000000018e-2" x="-0.2316666666666667" y="-0.4430127018922194" /><rect width="2.0000000000000018e-2" height="2.0000000000000018e-2" x="-0.1873333333333334" y="-0.38157241273869724" /><rect width="2.0000000000000004e-2" height="2.0000000000000018e-2" x="-0.14300000000000002" y="-0.3038926261462367" /><rect width="1.999999999999999e-2" height="2.0000000000000018e-2" x="-9.866666666666667e-2" y="-0.2133683215379002" /><rect width="2.0000000000000004e-2" height="1.999999999999999e-2" x="-5.433333333333345e-2" y="-0.1139558454088798" /><rect width="2.0e-2" height="2.0e-2" x="-1.0e-2" y="-1.0000000000000111e-2" /><rect width="2.0000000000000004e-2" height="1.999999999999999e-2" x="3.4333333333333334e-2" y="9.395584540887954e-2" /><rect width="1.999999999999999e-2" height="2.0000000000000018e-2" x="7.866666666666668e-2" y="0.1933683215378999" /><rect width="2.0000000000000004e-2" height="2.0000000000000018e-2" x="0.12300000000000001" y="0.2838926261462365" /><rect width="2.0000000000000018e-2" height="2.0000000000000018e-2" x="0.16733333333333333" y="0.361572412738697" /><rect width="2.0000000000000018e-2" height="2.0000000000000018e-2" x="0.21166666666666667" y="0.4230127018922192" /><rect width="2.0000000000000018e-2" height="2.0000000000000018e-2" x="0.2560000000000001" y="0.46552825814757676" /><rect width="2.0000000000000018e-2" height="2.0000000000000018e-2" x="0.30033333333333323" y="0.48726094768413664" /><rect width="2.0000000000000018e-2" height="1.9999999999999962e-2" x="0.3446666666666667" y="0.4872609476841367" /><rect width="2.0000000000000018e-2" height="2.0000000000000018e-2" x="0.389" y="0.4655282581475768" /><rect width="2.0000000000000018e-2" height="2.0000000000000018e-2" x="0.43333333333333335" y="0.4230127018922195" /><rect width="2.0000000000000018e-2" height="2.0000000000000018e-2" x="0.4776666666666667" y="0.36157241273869734" /><rect width="2.0000000000000018e-2" height="2.0000000000000018e-2" x="0.522" y="0.2838926261462366" /><rect width="2.0000000000000018e-2" height="2.0000000000000018e-2" x="0.5663333333333331" y="0.19336832153790046" /><rect width="2.0000000000000018e-2" height="1.999999999999999e-2" x="0.6106666666666667" y="9.395584540887993e-2" /><rect width="2.0000000000000018e-2" height="2.0e-2" x="0.655" y="-9.99999999999989e-3" /></g><g stroke-width="1.0e-3" stroke="#2C429D" fill="#641E1E" fill-opacity="0.8" stroke-opacity="0.4"><rect width="2.0000000000000018e-2" height="3.0000000000000027e-2" x="-0.675" y="-0.515" rx="1.0e-2" ry="1.0e-2" /><rect width="2.0000000000000018e-2" height="3.0000000000000027e-2" x="-0.6306666666666667" y="-0.5040738003669029" rx="1.0e-2" ry="1.0e-2" /><rect width="2.0000000000000018e-2" height="3.0000000000000027e-2" x="-0.5863333333333334" y="-0.4717727288213004" rx="1.0e-2" ry="1.0e-2" /><rect width="2.0000000000000018e-2" height="3.0000000000000027e-2" x="-0.542" y="-0.41950849718747374" rx="1.0e-2" ry="1.0e-2" /><rect width="2.0000000000000018e-2" height="3.0000000000000027e-2" x="-0.4976666666666667" y="-0.34956530317942913" rx="1.0e-2" ry="1.0e-2" /><rect width="2.0000000000000018e-2" height="3.0000000000000027e-2" x="-0.45333333333333337" y="-0.265" rx="1.0e-2" ry="1.0e-2" /><rect width="2.0000000000000018e-2" height="3.0000000000000027e-2" x="-0.40900000000000003" y="-0.16950849718747374" rx="1.0e-2" ry="1.0e-2" /><rect width="2.0000000000000018e-2" height="3.0e-2" x="-0.36466666666666675" y="-6.726423163382687e-2" rx="1.0e-2" ry="1.0e-2" /><rect width="2.0000000000000018e-2" height="3.0e-2" x="-0.32033333333333336" y="3.726423163382665e-2" rx="1.0e-2" ry="1.0e-2" /><rect width="2.0000000000000018e-2" height="3.0000000000000027e-2" x="-0.276" y="0.13950849718747366" rx="1.0e-2" ry="1.0e-2" /><rect width="2.0000000000000018e-2" height="3.0000000000000027e-2" x="-0.2316666666666667" y="0.23499999999999988" rx="1.0e-2" ry="1.0e-2" /><rect width="2.0000000000000018e-2" height="3.0000000000000027e-2" x="-0.1873333333333334" y="0.31956530317942894" rx="1.0e-2" ry="1.0e-2" /><rect width="2.0000000000000004e-2" height="3.0000000000000027e-2" x="-0.14300000000000002" y="0.38950849718747366" rx="1.0e-2" ry="1.0e-2" /><rect width="1.999999999999999e-2" height="3.0000000000000027e-2" x="-9.866666666666667e-2" y="0.44177272882130036" rx="1.0e-2" ry="1.0e-2" /><rect width="2.0000000000000004e-2" height="2.999999999999997e-2" x="-5.433333333333345e-2" y="0.4740738003669028" rx="1.0e-2" ry="1.0e-2" /><rect width="2.0e-2" height="3.0000000000000027e-2" x="-1.0e-2" y="0.485" rx="1.0e-2" ry="1.0e-2" /><rect width="2.0000000000000004e-2" height="3.0000000000000027e-2" x="3.4333333333333334e-2" y="0.47407380036690283" rx="1.0e-2" ry="1.0e-2" /><rect width="1.999999999999999e-2" height="3.0000000000000027e-2" x="7.866666666666668e-2" y="0.44177272882130053" rx="1.0e-2" ry="1.0e-2" /><rect width="2.0000000000000004e-2" height="3.0000000000000027e-2" x="0.12300000000000001" y="0.3895084971874737" rx="1.0e-2" ry="1.0e-2" /><rect width="2.0000000000000018e-2" height="3.0000000000000027e-2" x="0.16733333333333333" y="0.3195653031794292" rx="1.0e-2" ry="1.0e-2" /><rect width="2.0000000000000018e-2" height="3.0000000000000027e-2" x="0.21166666666666667" y="0.2350000000000002" rx="1.0e-2" ry="1.0e-2" /><rect width="2.0000000000000018e-2" height="3.0000000000000027e-2" x="0.2560000000000001" y="0.13950849718747377" rx="1.0e-2" ry="1.0e-2" /><rect width="2.0000000000000018e-2" height="3.0e-2" x="0.30033333333333323" y="3.72642316338271e-2" rx="1.0e-2" ry="1.0e-2" /><rect width="2.0000000000000018e-2" height="3.0e-2" x="0.3446666666666667" y="-6.726423163382654e-2" rx="1.0e-2" ry="1.0e-2" /><rect width="2.0000000000000018e-2" height="3.0000000000000027e-2" x="0.389" y="-0.16950849718747363" rx="1.0e-2" ry="1.0e-2" /><rect width="2.0000000000000018e-2" height="3.0000000000000027e-2" x="0.43333333333333335" y="-0.2649999999999997" rx="1.0e-2" ry="1.0e-2" /><rect width="2.0000000000000018e-2" height="3.0000000000000027e-2" x="0.4776666666666667" y="-0.3495653031794289" rx="1.0e-2" ry="1.0e-2" /><rect width="2.0000000000000018e-2" height="3.0000000000000027e-2" x="0.522" y="-0.41950849718747374" rx="1.0e-2" ry="1.0e-2" /><rect width="2.0000000000000018e-2" height="3.0000000000000027e-2" x="0.5663333333333331" y="-0.4717727288213003" rx="1.0e-2" ry="1.0e-2" /><rect width="2.0000000000000018e-2" height="3.0000000000000027e-2" x="0.6106666666666667" y="-0.5040738003669029" rx="1.0e-2" ry="1.0e-2" /><rect width="2.0000000000000018e-2" height="3.0000000000000027e-2" x="0.655" y="-0.515" rx="1.0e-2" ry="1.0e-2" /></g></svg>