<svg viewBox="0.0 -408.0 612.0 408.0" xmlns="http://www.w3.org/2000/svg" xmlns:xlink="http://www.w3.org/1999/xlink" version="1.1" width="600.0" height="400.0"><style type="text/css"> {
  shape-rendering: &quot;crispEdges&quot;;
}
</style><g stroke-width="0.0" stroke="none" fill="#000000" transform="translate(0.3408333333333333, 0.722089207851602)" fill-opacity="0.6" font-size="5.0e-2" text-anchor="end"><text transform="rotate(0.0, 0.0, -0.0)" x="0.0" y="-0.0">An example from chart-svg</text></g><g stroke-width="0.0" stroke="none" fill="#000000" transform="translate(-7.101082781612642e-2, -0.57175)" fill-opacity="0.6" font-size="8.0e-2" text-anchor="middle"><text transform="rotate(0.0, 0.0, -0.0)" x="0.0" y="-0.0">Example Chart</text></g><g stroke-width="0.0" stroke="#000000" fill="#666666" fill-opacity="3.0e-2" stroke-opacity="0.0"><rect width="0.6666666666666666" height="1.0" x="-0.3333333333333333" y="-0.5" /></g><g stroke-width="5.0e-3" stroke="#A8E5EE" fill="none" stroke-opacity="0.3"><polyline points="-0.3383333333333333,0.5 0.3383333333333333,0.5" /></g><g stroke-width="5.0e-3" stroke="#A8E5EE" fill="none" stroke-opacity="0.3"><polyline points="-0.3383333333333333,0.4 0.3383333333333333,0.4" /></g><g stroke-width="5.0e-3" stroke="#A8E5EE" fill="none" stroke-opacity="0.3"><polyline points="-0.3383333333333333,0.3 0.3383333333333333,0.3" /></g><g stroke-width="5.0e-3" stroke="#A8E5EE" fill="none" stroke-opacity="0.3"><polyline points="-0.3383333333333333,0.2 0.3383333333333333,0.2" /></g><g stroke-width="5.0e-3" stroke="#A8E5EE" fill="none" stroke-opacity="0.3"><polyline points="-0.3383333333333333,9.999999999999998e-2 0.3383333333333333,9.999999999999998e-2" /></g><g stroke-width="5.0e-3" stroke="#A8E5EE" fill="none" stroke-opacity="0.3"><polyline points="-0.3383333333333333,-0.0 0.3383333333333333,-0.0" /></g><g stroke-width="5.0e-3" stroke="#A8E5EE" fill="none" stroke-opacity="0.3"><polyline points="-0.3383333333333333,-9.999999999999998e-2 0.3383333333333333,-9.999999999999998e-2" /></g><g stroke-width="5.0e-3" stroke="#A8E5EE" fill="none" stroke-opacity="0.3"><polyline points="-0.3383333333333333,-0.19999999999999996 0.3383333333333333,-0.19999999999999996" /></g><g stroke-width="5.0e-3" stroke="#A8E5EE" fill="none" stroke-opacity="0.3"><polyline points="-0.3383333333333333,-0.30000000000000004 0.3383333333333333,-0.30000000000000004" /></g><g stroke-width="5.0e-3" stroke="#A8E5EE" fill="none" stroke-opacity="0.3"><polyline points="-0.3383333333333333,-0.4 0.3383333333333333,-0.4" /></g><g stroke-width="5.0e-3" stroke="#A8E5EE" fill="none" stroke-opacity="0.3"><polyline points="-0.3383333333333333,-0.5 0.3383333333333333,-0.5" /></g><g stroke-width="0.0" stroke="none" fill="#666666" fill-opacity="1.0" font-size="5.0e-2" text-anchor="end"><text x="-0.40785498896558614" y="0.5145">0.0</text></g><g stroke-width="0.0" stroke="none" fill="#666666" fill-opacity="1.0" font-size="5.0e-2" text-anchor="end"><text x="-0.40785498896558614" y="0.41450000000000004">0.5</text></g><g stroke-width="0.0" stroke="none" fill="#666666" fill-opacity="1.0" font-size="5.0e-2" text-anchor="end"><text x="-0.40785498896558614" y="0.3145">1.0</text></g><g stroke-width="0.0" stroke="none" fill="#666666" fill-opacity="1.0" font-size="5.0e-2" text-anchor="end"><text x="-0.40785498896558614" y="0.21450000000000002">1.5</text></g><g stroke-width="0.0" stroke="none" fill="#666666" fill-opacity="1.0" font-size="5.0e-2" text-anchor="end"><text x="-0.40785498896558614" y="0.11449999999999998">2.0</text></g><g stroke-width="0.0" stroke="none" fill="#666666" fill-opacity="1.0" font-size="5.0e-2" text-anchor="end"><text x="-0.40785498896558614" y="1.4499999999999999e-2">2.5</text></g><g stroke-width="0.0" stroke="none" fill="#666666" fill-opacity="1.0" font-size="5.0e-2" text-anchor="end"><text x="-0.40785498896558614" y="-8.549999999999998e-2">3.0</text></g><g stroke-width="0.0" stroke="none" fill="#666666" fill-opacity="1.0" font-size="5.0e-2" text-anchor="end"><text x="-0.40785498896558614" y="-0.18549999999999994">3.5</text></g><g stroke-width="0.0" stroke="none" fill="#666666" fill-opacity="1.0" font-size="5.0e-2" text-anchor="end"><text x="-0.40785498896558614" y="-0.28550000000000003">4.0</text></g><g stroke-width="0.0" stroke="none" fill="#666666" fill-opacity="1.0" font-size="5.0e-2" text-anchor="end"><text x="-0.40785498896558614" y="-0.3855">4.5</text></g><g stroke-width="0.0" stroke="none" fill="#666666" fill-opacity="1.0" font-size="5.0e-2" text-anchor="end"><text x="-0.40785498896558614" y="-0.4855">5.0</text></g><g stroke-width="0.0" stroke="#2C429D" fill="#5F0391" fill-opacity="1.0" stroke-opacity="0.4"><line stroke-width="5.0e-3" transform="rotate(-90.0, -0.3777799889655861, 0.5)" x1="-0.3777799889655861" y1="0.515" x2="-0.3777799889655861" y2="0.485" /><line stroke-width="5.0e-3" transform="rotate(-90.0, -0.3777799889655861, 0.4)" x1="-0.3777799889655861" y1="0.41500000000000004" x2="-0.3777799889655861" y2="0.385" /><line stroke-width="5.0e-3" transform="rotate(-90.0, -0.3777799889655861, 0.3)" x1="-0.3777799889655861" y1="0.315" x2="-0.3777799889655861" y2="0.285" /><line stroke-width="5.0e-3" transform="rotate(-90.0, -0.3777799889655861, 0.2)" x1="-0.3777799889655861" y1="0.21500000000000002" x2="-0.3777799889655861" y2="0.185" /><line stroke-width="5.0e-3" transform="rotate(-90.0, -0.3777799889655861, 9.999999999999998e-2)" x1="-0.3777799889655861" y1="0.11499999999999998" x2="-0.3777799889655861" y2="8.499999999999998e-2" /><line stroke-width="5.0e-3" transform="rotate(-90.0, -0.3777799889655861, -0.0)" x1="-0.3777799889655861" y1="1.5e-2" x2="-0.3777799889655861" y2="-1.5e-2" /><line stroke-width="5.0e-3" transform="rotate(-90.0, -0.3777799889655861, -9.999999999999998e-2)" x1="-0.3777799889655861" y1="-8.499999999999998e-2" x2="-0.3777799889655861" y2="-0.11499999999999998" /><line stroke-width="5.0e-3" transform="rotate(-90.0, -0.3777799889655861, -0.19999999999999996)" x1="-0.3777799889655861" y1="-0.18499999999999994" x2="-0.3777799889655861" y2="-0.21499999999999997" /><line stroke-width="5.0e-3" transform="rotate(-90.0, -0.3777799889655861, -0.30000000000000004)" x1="-0.3777799889655861" y1="-0.28500000000000003" x2="-0.3777799889655861" y2="-0.31500000000000006" /><line stroke-width="5.0e-3" transform="rotate(-90.0, -0.3777799889655861, -0.4)" x1="-0.3777799889655861" y1="-0.385" x2="-0.3777799889655861" y2="-0.41500000000000004" /><line stroke-width="5.0e-3" transform="rotate(-90.0, -0.3777799889655861, -0.5)" x1="-0.3777799889655861" y1="-0.485" x2="-0.3777799889655861" y2="-0.515" /></g><g stroke-width="0.0" stroke="#666666" fill="#5F0391" fill-opacity="0.5" stroke-opacity="0.0"><rect width="5.0000000000000044e-3" height="1.0" x="-0.3677799889655861" y="-0.5" /></g><g stroke-width="5.0e-3" stroke="#A8E5EE" fill="none" stroke-opacity="0.3"><polyline points="-0.3333333333333333,0.505 -0.3333333333333333,-0.505" /></g><g stroke-width="5.0e-3" stroke="#A8E5EE" fill="none" stroke-opacity="0.3"><polyline points="-0.2222222222222222,0.505 -0.2222222222222222,-0.505" /></g><g stroke-width="5.0e-3" stroke="#A8E5EE" fill="none" stroke-opacity="0.3"><polyline points="-0.1111111111111111,0.505 -0.1111111111111111,-0.505" /></g><g stroke-width="5.0e-3" stroke="#A8E5EE" fill="none" stroke-opacity="0.3"><polyline points="0.0,0.505 0.0,-0.505" /></g><g stroke-width="5.0e-3" stroke="#A8E5EE" fill="none" stroke-opacity="0.3"><polyline points="0.1111111111111111,0.505 0.1111111111111111,-0.505" /></g><g stroke-width="5.0e-3" stroke="#A8E5EE" fill="none" stroke-opacity="0.3"><polyline points="0.22222222222222227,0.505 0.22222222222222227,-0.505" /></g><g stroke-width="5.0e-3" stroke="#A8E5EE" fill="none" stroke-opacity="0.3"><polyline points="0.3333333333333333,0.505 0.3333333333333333,-0.505" /></g><g stroke-width="0.0" stroke="none" fill="#666666" fill-opacity="1.0" font-size="2.820689655172414e-2" text-anchor="end"><text transform="rotate(-45.0, -0.3333333333333333, 0.60545)" x="-0.3333333333333333" y="0.60545">0.0</text></g><g stroke-width="0.0" stroke="none" fill="#666666" fill-opacity="1.0" font-size="2.820689655172414e-2" text-anchor="end"><text transform="rotate(-45.0, -0.2222222222222222, 0.60545)" x="-0.2222222222222222" y="0.60545">0.5</text></g><g stroke-width="0.0" stroke="none" fill="#666666" fill-opacity="1.0" font-size="2.820689655172414e-2" text-anchor="end"><text transform="rotate(-45.0, -0.1111111111111111, 0.60545)" x="-0.1111111111111111" y="0.60545">1.0</text></g><g stroke-width="0.0" stroke="none" fill="#666666" fill-opacity="1.0" font-size="2.820689655172414e-2" text-anchor="end"><text transform="rotate(-45.0, 0.0, 0.60545)" x="0.0" y="0.60545">1.5</text></g><g stroke-width="0.0" stroke="none" fill="#666666" fill-opacity="1.0" font-size="2.820689655172414e-2" text-anchor="end"><text transform="rotate(-45.0, 0.1111111111111111, 0.60545)" x="0.1111111111111111" y="0.60545">2.0</text></g><g stroke-width="0.0" stroke="none" fill="#666666" fill-opacity="1.0" font-size="2.820689655172414e-2" text-anchor="end"><text transform="rotate(-45.0, 0.22222222222222227, 0.60545)" x="0.22222222222222227" y="0.60545">2.5</text></g><g stroke-width="0.0" stroke="none" fill="#666666" fill-opacity="1.0" font-size="2.820689655172414e-2" text-anchor="end"><text transform="rotate(-45.0, 0.3333333333333333, 0.60545)" x="0.3333333333333333" y="0.60545">3.0</text></g><g stroke-width="0.0" stroke="#2C429D" fill="#5F0391" fill-opacity="1.0" stroke-opacity="0.4"><line stroke-width="5.0e-3" x1="-0.3333333333333333" y1="0.555" x2="-0.3333333333333333" y2="0.525" /><line stroke-width="5.0e-3" x1="-0.2222222222222222" y1="0.555" x2="-0.2222222222222222" y2="0.525" /><line stroke-width="5.0e-3" x1="-0.1111111111111111" y1="0.555" x2="-0.1111111111111111" y2="0.525" /><line stroke-width="5.0e-3" y1="0.555" y2="0.525" /><line stroke-width="5.0e-3" x1="0.1111111111111111" y1="0.555" x2="0.1111111111111111" y2="0.525" /><line stroke-width="5.0e-3" x1="0.22222222222222227" y1="0.555" x2="0.22222222222222227" y2="0.525" /><line stroke-width="5.0e-3" x1="0.3333333333333333" y1="0.555" x2="0.3333333333333333" y2="0.525" /></g><g stroke-width="0.0" stroke="#666666" fill="#5F0391" fill-opacity="0.5" stroke-opacity="0.0"><rect width="0.6666666666666666" height="5.0000000000000044e-3" x="-0.3333333333333333" y="0.525" /></g><g stroke-width="1.5e-2" stroke="#C5824B" fill="none" stroke-opacity="0.6"><polyline points="-0.3333333333333333,0.3 -0.1111111111111111,0.3 0.1111111111111111,-0.5" /></g><g stroke-width="3.0e-2" stroke="#3C7F2B" fill="none" stroke-opacity="0.6"><polyline points="-0.3333333333333333,0.5 0.2888888888888888,-0.10000000000000009" /></g><g stroke-width="1.0e-2" stroke="#342989" fill="none" stroke-opacity="1.0"><polyline points="-0.2222222222222222,-0.30000000000000004 -0.2222222222222222,0.5" /></g><g /><g stroke-width="5.0e-3" stroke="#3764A0" fill="#FFFFFF" fill-opacity="1.0" stroke-opacity="0.5"><rect width="0.44" height="0.28125" x="0.4875" y="6.406249999999997e-2" /></g><g stroke-width="0.0" stroke="none" fill="#666666" fill-opacity="1.0" font-size="6.25e-2" text-anchor="start"><text x="0.5" y="0.3">vertical</text></g><g stroke-width="1.0e-2" stroke="#342989" fill="none" stroke-opacity="1.0"><polyline points="0.8,0.2835 0.9,0.2835" /></g><g stroke-width="0.0" stroke="none" fill="#666666" fill-opacity="1.0" font-size="6.25e-2" text-anchor="start"><text x="0.5" y="0.21718749999999998">line</text></g><g stroke-width="3.0e-2" stroke="#3C7F2B" fill="none" stroke-opacity="0.6"><polyline points="0.8,0.20068749999999996 0.9,0.20068749999999996" /></g><g stroke-width="0.0" stroke="none" fill="#666666" fill-opacity="1.0" font-size="6.25e-2" text-anchor="start"><text x="0.5" y="0.134375">hockey</text></g><g stroke-width="1.5e-2" stroke="#C5824B" fill="none" stroke-opacity="0.6"><polyline points="0.8,0.11787500000000001 0.9,0.11787500000000001" /></g><g /></svg>