<svg viewBox="-0.7548 -0.7113065094339622 2.0385472992315403 1.6152568128035587" xmlns="http://www.w3.org/2000/svg" xmlns:xlink="http://www.w3.org/1999/xlink" version="1.1" width="800.0" height="600.0"><g stroke-width="0.0" stroke="none" fill="#000000" transform="translate(0.7024999999999999, 0.7237500000000001)" fill-opacity="0.6" font-size="5.0e-2" text-anchor="end"><text transform="rotate(0.0, 3.8024525537259324e-2, -5.160932297447274e-2)" x="3.8024525537259324e-2" y="-5.160932297447274e-2">An example from chart-svg</text></g><g stroke-width="0.0" stroke="none" fill="#000000" transform="translate(-6.503750000000003e-2, -0.57175)" fill-opacity="0.6" font-size="8.0e-2" text-anchor="middle"><text transform="rotate(0.0, 3.8024525537259324e-2, -5.160932297447274e-2)" x="3.8024525537259324e-2" y="-5.160932297447274e-2">Example Chart</text></g><g stroke-width="0.0" stroke="#000000" fill="#666666" fill-opacity="3.0e-2" stroke-opacity="0.0"><rect width="1.234231091264304" height="0.887902330743618" x="-0.5790910200948926" y="-0.49556048834628175" /></g><g stroke-width="5.0e-3" stroke="#A8E5EE" fill="none" stroke-opacity="0.3"><polyline points="-0.5837309866034049,0.39234184239733627 0.6597800376779235,0.39234184239733627" /></g><g stroke-width="5.0e-3" stroke="#A8E5EE" fill="none" stroke-opacity="0.3"><polyline points="-0.5837309866034049,0.3035516093229744 0.6597800376779235,0.3035516093229744" /></g><g stroke-width="5.0e-3" stroke="#A8E5EE" fill="none" stroke-opacity="0.3"><polyline points="-0.5837309866034049,0.21476137624861263 0.6597800376779235,0.21476137624861263" /></g><g stroke-width="5.0e-3" stroke="#A8E5EE" fill="none" stroke-opacity="0.3"><polyline points="-0.5837309866034049,0.12597114317425084 0.6597800376779235,0.12597114317425084" /></g><g stroke-width="5.0e-3" stroke="#A8E5EE" fill="none" stroke-opacity="0.3"><polyline points="-0.5837309866034049,3.7180910099889e-2 0.6597800376779235,3.7180910099889e-2" /></g><g stroke-width="5.0e-3" stroke="#A8E5EE" fill="none" stroke-opacity="0.3"><polyline points="-0.5837309866034049,-5.160932297447274e-2 0.6597800376779235,-5.160932297447274e-2" /></g><g stroke-width="5.0e-3" stroke="#A8E5EE" fill="none" stroke-opacity="0.3"><polyline points="-0.5837309866034049,-0.14039955604883458 0.6597800376779235,-0.14039955604883458" /></g><g stroke-width="5.0e-3" stroke="#A8E5EE" fill="none" stroke-opacity="0.3"><polyline points="-0.5837309866034049,-0.22918978912319632 0.6597800376779235,-0.22918978912319632" /></g><g stroke-width="5.0e-3" stroke="#A8E5EE" fill="none" stroke-opacity="0.3"><polyline points="-0.5837309866034049,-0.31798002219755817 0.6597800376779235,-0.31798002219755817" /></g><g stroke-width="5.0e-3" stroke="#A8E5EE" fill="none" stroke-opacity="0.3"><polyline points="-0.5837309866034049,-0.4067702552719201 0.6597800376779235,-0.4067702552719201" /></g><g stroke-width="5.0e-3" stroke="#A8E5EE" fill="none" stroke-opacity="0.3"><polyline points="-0.5837309866034049,-0.49556048834628175 0.6597800376779235,-0.49556048834628175" /></g><g stroke-width="0.0" stroke="none" fill="#666666" fill-opacity="1.0" font-size="5.0e-2" text-anchor="end"><text x="-0.665" y="0.40521642619311865">0.0</text></g><g stroke-width="0.0" stroke="none" fill="#666666" fill-opacity="1.0" font-size="5.0e-2" text-anchor="end"><text x="-0.665" y="0.31642619311875697">0.5</text></g><g stroke-width="0.0" stroke="none" fill="#666666" fill-opacity="1.0" font-size="5.0e-2" text-anchor="end"><text x="-0.665" y="0.22763596004439512">1.0</text></g><g stroke-width="0.0" stroke="none" fill="#666666" fill-opacity="1.0" font-size="5.0e-2" text-anchor="end"><text x="-0.665" y="0.13884572697003333">1.5</text></g><g stroke-width="0.0" stroke="none" fill="#666666" fill-opacity="1.0" font-size="5.0e-2" text-anchor="end"><text x="-0.665" y="5.005549389567143e-2">2.0</text></g><g stroke-width="0.0" stroke="none" fill="#666666" fill-opacity="1.0" font-size="5.0e-2" text-anchor="end"><text x="-0.665" y="-3.87347391786903e-2">2.5</text></g><g stroke-width="0.0" stroke="none" fill="#666666" fill-opacity="1.0" font-size="5.0e-2" text-anchor="end"><text x="-0.665" y="-0.12752497225305215">3.0</text></g><g stroke-width="0.0" stroke="none" fill="#666666" fill-opacity="1.0" font-size="5.0e-2" text-anchor="end"><text x="-0.665" y="-0.21631520532741388">3.5</text></g><g stroke-width="0.0" stroke="none" fill="#666666" fill-opacity="1.0" font-size="5.0e-2" text-anchor="end"><text x="-0.665" y="-0.30510543840177584">4.0</text></g><g stroke-width="0.0" stroke="none" fill="#666666" fill-opacity="1.0" font-size="5.0e-2" text-anchor="end"><text x="-0.665" y="-0.39389567147613747">4.5</text></g><g stroke-width="0.0" stroke="none" fill="#666666" fill-opacity="1.0" font-size="5.0e-2" text-anchor="end"><text x="-0.665" y="-0.4826859045504993">5.0</text></g><g stroke-width="0.0" stroke="#2C429D" fill="#5F0391" fill-opacity="1.0" stroke-opacity="0.4"><line stroke-width="5.0e-3" transform="rotate(-90.0, -0.6370906014512978, 0.39234184239733627)" x1="-0.6370906014512978" y1="0.4073418423973363" x2="-0.6370906014512978" y2="0.37734184239733626" /><line stroke-width="5.0e-3" transform="rotate(-90.0, -0.6370906014512978, 0.3035516093229744)" x1="-0.6370906014512978" y1="0.31855160932297444" x2="-0.6370906014512978" y2="0.2885516093229744" /><line stroke-width="5.0e-3" transform="rotate(-90.0, -0.6370906014512978, 0.21476137624861263)" x1="-0.6370906014512978" y1="0.22976137624861265" x2="-0.6370906014512978" y2="0.19976137624861262" /><line stroke-width="5.0e-3" transform="rotate(-90.0, -0.6370906014512978, 0.12597114317425084)" x1="-0.6370906014512978" y1="0.14097114317425086" x2="-0.6370906014512978" y2="0.11097114317425084" /><line stroke-width="5.0e-3" transform="rotate(-90.0, -0.6370906014512978, 3.7180910099889e-2)" x1="-0.6370906014512978" y1="5.2180910099889e-2" x2="-0.6370906014512978" y2="2.2180910099888998e-2" /><line stroke-width="5.0e-3" transform="rotate(-90.0, -0.6370906014512978, -5.160932297447274e-2)" x1="-0.6370906014512978" y1="-3.660932297447274e-2" x2="-0.6370906014512978" y2="-6.660932297447274e-2" /><line stroke-width="5.0e-3" transform="rotate(-90.0, -0.6370906014512978, -0.14039955604883458)" x1="-0.6370906014512978" y1="-0.12539955604883457" x2="-0.6370906014512978" y2="-0.1553995560488346" /><line stroke-width="5.0e-3" transform="rotate(-90.0, -0.6370906014512978, -0.22918978912319632)" x1="-0.6370906014512978" y1="-0.2141897891231963" x2="-0.6370906014512978" y2="-0.24418978912319633" /><line stroke-width="5.0e-3" transform="rotate(-90.0, -0.6370906014512978, -0.31798002219755817)" x1="-0.6370906014512978" y1="-0.30298002219755815" x2="-0.6370906014512978" y2="-0.3329800221975582" /><line stroke-width="5.0e-3" transform="rotate(-90.0, -0.6370906014512978, -0.4067702552719201)" x1="-0.6370906014512978" y1="-0.3917702552719201" x2="-0.6370906014512978" y2="-0.42177025527192014" /><line stroke-width="5.0e-3" transform="rotate(-90.0, -0.6370906014512978, -0.49556048834628175)" x1="-0.6370906014512978" y1="-0.48056048834628173" x2="-0.6370906014512978" y2="-0.5105604883462818" /></g><g stroke-width="0.0" stroke="#666666" fill="#5F0391" fill-opacity="0.5" stroke-opacity="0.0"><rect width="4.639966508512394e-3" height="0.887902330743618" x="-0.6278106684342729" y="-0.49556048834628175" /></g><g stroke-width="5.0e-3" stroke="#A8E5EE" fill="none" stroke-opacity="0.3"><polyline points="-0.5790910200948926,0.39678135405105436 -0.5790910200948926,-0.5" /></g><g stroke-width="5.0e-3" stroke="#A8E5EE" fill="none" stroke-opacity="0.3"><polyline points="-0.3733858382175086,0.39678135405105436 -0.3733858382175086,-0.5" /></g><g stroke-width="5.0e-3" stroke="#A8E5EE" fill="none" stroke-opacity="0.3"><polyline points="-0.16768065634012463,0.39678135405105436 -0.16768065634012463,-0.5" /></g><g stroke-width="5.0e-3" stroke="#A8E5EE" fill="none" stroke-opacity="0.3"><polyline points="3.8024525537259324e-2,0.39678135405105436 3.8024525537259324e-2,-0.5" /></g><g stroke-width="5.0e-3" stroke="#A8E5EE" fill="none" stroke-opacity="0.3"><polyline points="0.24372970741464328,0.39678135405105436 0.24372970741464328,-0.5" /></g><g stroke-width="5.0e-3" stroke="#A8E5EE" fill="none" stroke-opacity="0.3"><polyline points="0.44943488929202724,0.39678135405105436 0.44943488929202724,-0.5" /></g><g stroke-width="5.0e-3" stroke="#A8E5EE" fill="none" stroke-opacity="0.3"><polyline points="0.6551400711694113,0.39678135405105436 0.6551400711694113,-0.5" /></g><g stroke-width="0.0" stroke="none" fill="#666666" fill-opacity="1.0" font-size="5.0e-2" text-anchor="middle"><text x="-0.5790910200948926" y="0.5">0.0</text></g><g stroke-width="0.0" stroke="none" fill="#666666" fill-opacity="1.0" font-size="5.0e-2" text-anchor="middle"><text x="-0.3733858382175086" y="0.5">0.5</text></g><g stroke-width="0.0" stroke="none" fill="#666666" fill-opacity="1.0" font-size="5.0e-2" text-anchor="middle"><text x="-0.16768065634012463" y="0.5">1.0</text></g><g stroke-width="0.0" stroke="none" fill="#666666" fill-opacity="1.0" font-size="5.0e-2" text-anchor="middle"><text x="3.8024525537259324e-2" y="0.5">1.5</text></g><g stroke-width="0.0" stroke="none" fill="#666666" fill-opacity="1.0" font-size="5.0e-2" text-anchor="middle"><text x="0.24372970741464328" y="0.5">2.0</text></g><g stroke-width="0.0" stroke="none" fill="#666666" fill-opacity="1.0" font-size="5.0e-2" text-anchor="middle"><text x="0.44943488929202724" y="0.5">2.5</text></g><g stroke-width="0.0" stroke="none" fill="#666666" fill-opacity="1.0" font-size="5.0e-2" text-anchor="middle"><text x="0.6551400711694113" y="0.5">3.0</text></g><g stroke-width="0.0" stroke="#2C429D" fill="#5F0391" fill-opacity="1.0" stroke-opacity="0.4"><line stroke-width="5.0e-3" x1="-0.5790910200948926" y1="0.442857935627081" x2="-0.5790910200948926" y2="0.41285793562708095" /><line stroke-width="5.0e-3" x1="-0.3733858382175086" y1="0.442857935627081" x2="-0.3733858382175086" y2="0.41285793562708095" /><line stroke-width="5.0e-3" x1="-0.16768065634012463" y1="0.442857935627081" x2="-0.16768065634012463" y2="0.41285793562708095" /><line stroke-width="5.0e-3" x1="3.8024525537259324e-2" y1="0.442857935627081" x2="3.8024525537259324e-2" y2="0.41285793562708095" /><line stroke-width="5.0e-3" x1="0.24372970741464328" y1="0.442857935627081" x2="0.24372970741464328" y2="0.41285793562708095" /><line stroke-width="5.0e-3" x1="0.44943488929202724" y1="0.442857935627081" x2="0.44943488929202724" y2="0.41285793562708095" /><line stroke-width="5.0e-3" x1="0.6551400711694113" y1="0.442857935627081" x2="0.6551400711694113" y2="0.41285793562708095" /></g><g stroke-width="0.0" stroke="#666666" fill="#5F0391" fill-opacity="0.5" stroke-opacity="0.0"><rect width="1.234231091264304" height="4.439511653718087e-3" x="-0.5790910200948926" y="0.4145394006659267" /></g><g stroke-width="1.5e-2" stroke="#C5824B" fill="none" stroke-opacity="0.6"><polyline points="-0.5790910200948926,0.21476137624861263 -0.16768065634012463,0.21476137624861263 0.24372970741464328,-0.49556048834628175" /></g><g stroke-width="3.0e-2" stroke="#3C7F2B" fill="none" stroke-opacity="0.6"><polyline points="-0.5790910200948926,0.39234184239733627 0.5728579984184574,-0.1403995560488347" /></g><g stroke-width="1.0e-2" stroke="#342989" fill="none" stroke-opacity="1.0"><polyline points="-0.3733858382175086,-0.31798002219755817 -0.3733858382175086,0.39234184239733627" /></g><g /><g stroke-width="5.0e-3" stroke="#3764A0" fill="#FFFFFF" fill-opacity="1.0" stroke-opacity="0.5"><rect width="0.3283512611514581" height="0.27338246642107533" x="0.32275695472290344" y="8.964062028557779e-2" /></g><g stroke-width="0.0" stroke="none" fill="#666666" fill-opacity="1.0" font-size="6.25e-2" text-anchor="start"><text x="0.32907140205273944" y="0.33300153442624114">vertical</text></g><g stroke-width="0.0" stroke="#000000" fill="#666666" fill-opacity="3.0e-2" stroke-opacity="0.0"><rect width="2.5257789319343082e-2" height="3.31272301025235e-2" x="0.4806181379687966" y="0.29987430432371764" /></g><g stroke-width="0.0" stroke="none" fill="#666666" fill-opacity="1.0" font-size="6.25e-2" text-anchor="start"><text x="0.32907140205273944" y="0.2781345595689366">green</text></g><g stroke-width="0.0" stroke="none" fill="#000000" transform="translate(-6.503750000000003e-2, -0.57175)" fill-opacity="0.6" font-size="5.0e-2" text-anchor="middle"><text transform="rotate(0.0, 0.4806181379687966, 0.2781345595689366)" x="0.4806181379687966" y="0.2781345595689366">Example Chart</text></g><g stroke-width="0.0" stroke="none" fill="#666666" fill-opacity="1.0" font-size="6.25e-2" text-anchor="start"><text x="0.4045290476442762" y="0.13622578761725146">hockey</text></g><g stroke-width="0.0" stroke="none" fill="#000000" transform="translate(0.7024999999999999, 0.7237500000000001)" fill-opacity="0.6" font-size="5.0e-2" text-anchor="end"><text transform="rotate(0.0, 0.5560757835603338, 0.13622578761725146)" x="0.5560757835603338" y="0.13622578761725146">An example from chart-svg</text></g><g /></svg>