<svg viewBox="-0.8594265000000001 -0.670395 2.1376474110263493 1.650619454859577" xmlns="http://www.w3.org/2000/svg" xmlns:xlink="http://www.w3.org/1999/xlink" version="1.1" width="800.0" height="600.0"><g stroke-width="0.0" stroke="none" fill="#000000" transform="translate(0.7025000000000001, 0.7237500000000001)" fill-opacity="0.6" font-size="5.0e-2" text-anchor="end"><text transform="rotate(0.0, 0.0, -0.0)" x="0.0" y="-0.0">An example from chart-svg</text></g><g stroke-width="0.0" stroke="none" fill="#000000" transform="translate(-7.003750000000003e-2, -0.56725)" fill-opacity="0.6" font-size="8.0e-2" text-anchor="middle"><text transform="rotate(0.0, 0.0, -0.0)" x="0.0" y="-0.0">Example Chart</text></g><g stroke-width="0.0" stroke="#000000" fill="#666666" fill-opacity="3.0e-2" stroke-opacity="0.0"><rect width="1.33" height="1.0" x="-0.665" y="-0.5" /></g><g stroke-width="5.0e-3" stroke="#A8E5EE" fill="none" stroke-opacity="0.3"><polyline points="-0.665,0.5 0.665,0.5" /></g><g stroke-width="5.0e-3" stroke="#A8E5EE" fill="none" stroke-opacity="0.3"><polyline points="-0.665,0.4 0.665,0.4" /></g><g stroke-width="5.0e-3" stroke="#A8E5EE" fill="none" stroke-opacity="0.3"><polyline points="-0.665,0.3 0.665,0.3" /></g><g stroke-width="5.0e-3" stroke="#A8E5EE" fill="none" stroke-opacity="0.3"><polyline points="-0.665,0.2 0.665,0.2" /></g><g stroke-width="5.0e-3" stroke="#A8E5EE" fill="none" stroke-opacity="0.3"><polyline points="-0.665,9.999999999999998e-2 0.665,9.999999999999998e-2" /></g><g stroke-width="5.0e-3" stroke="#A8E5EE" fill="none" stroke-opacity="0.3"><polyline points="-0.665,-0.0 0.665,-0.0" /></g><g stroke-width="5.0e-3" stroke="#A8E5EE" fill="none" stroke-opacity="0.3"><polyline points="-0.665,-9.999999999999998e-2 0.665,-9.999999999999998e-2" /></g><g stroke-width="5.0e-3" stroke="#A8E5EE" fill="none" stroke-opacity="0.3"><polyline points="-0.665,-0.19999999999999996 0.665,-0.19999999999999996" /></g><g stroke-width="5.0e-3" stroke="#A8E5EE" fill="none" stroke-opacity="0.3"><polyline points="-0.665,-0.30000000000000004 0.665,-0.30000000000000004" /></g><g stroke-width="5.0e-3" stroke="#A8E5EE" fill="none" stroke-opacity="0.3"><polyline points="-0.665,-0.4 0.665,-0.4" /></g><g stroke-width="5.0e-3" stroke="#A8E5EE" fill="none" stroke-opacity="0.3"><polyline points="-0.665,-0.5 0.665,-0.5" /></g><g stroke-width="0.0" stroke="none" fill="#666666" fill-opacity="1.0" font-size="5.0e-2" text-anchor="end"><text x="-0.7675750000000001" y="0.529">0.0</text></g><g stroke-width="0.0" stroke="none" fill="#666666" fill-opacity="1.0" font-size="5.0e-2" text-anchor="end"><text x="-0.7675750000000001" y="0.42900000000000005">0.5</text></g><g stroke-width="0.0" stroke="none" fill="#666666" fill-opacity="1.0" font-size="5.0e-2" text-anchor="end"><text x="-0.7675750000000001" y="0.32899999999999996">1.0</text></g><g stroke-width="0.0" stroke="none" fill="#666666" fill-opacity="1.0" font-size="5.0e-2" text-anchor="end"><text x="-0.7675750000000001" y="0.229">1.5</text></g><g stroke-width="0.0" stroke="none" fill="#666666" fill-opacity="1.0" font-size="5.0e-2" text-anchor="end"><text x="-0.7675750000000001" y="0.12899999999999998">2.0</text></g><g stroke-width="0.0" stroke="none" fill="#666666" fill-opacity="1.0" font-size="5.0e-2" text-anchor="end"><text x="-0.7675750000000001" y="2.8999999999999998e-2">2.5</text></g><g stroke-width="0.0" stroke="none" fill="#666666" fill-opacity="1.0" font-size="5.0e-2" text-anchor="end"><text x="-0.7675750000000001" y="-7.099999999999998e-2">3.0</text></g><g stroke-width="0.0" stroke="none" fill="#666666" fill-opacity="1.0" font-size="5.0e-2" text-anchor="end"><text x="-0.7675750000000001" y="-0.17099999999999996">3.5</text></g><g stroke-width="0.0" stroke="none" fill="#666666" fill-opacity="1.0" font-size="5.0e-2" text-anchor="end"><text x="-0.7675750000000001" y="-0.271">4.0</text></g><g stroke-width="0.0" stroke="none" fill="#666666" fill-opacity="1.0" font-size="5.0e-2" text-anchor="end"><text x="-0.7675750000000001" y="-0.371">4.5</text></g><g stroke-width="0.0" stroke="none" fill="#666666" fill-opacity="1.0" font-size="5.0e-2" text-anchor="end"><text x="-0.7675750000000001" y="-0.471">5.0</text></g><g stroke-width="0.0" stroke="#2C429D" fill="#5F0391" fill-opacity="1.0" stroke-opacity="0.4"><line stroke-width="5.0e-3" transform="rotate(-90.0, -0.7275, 0.5)" x1="-0.7275" y1="0.515" x2="-0.7275" y2="0.485" /><line stroke-width="5.0e-3" transform="rotate(-90.0, -0.7275, 0.4)" x1="-0.7275" y1="0.41500000000000004" x2="-0.7275" y2="0.385" /><line stroke-width="5.0e-3" transform="rotate(-90.0, -0.7275, 0.3)" x1="-0.7275" y1="0.315" x2="-0.7275" y2="0.285" /><line stroke-width="5.0e-3" transform="rotate(-90.0, -0.7275, 0.2)" x1="-0.7275" y1="0.21500000000000002" x2="-0.7275" y2="0.185" /><line stroke-width="5.0e-3" transform="rotate(-90.0, -0.7275, 9.999999999999998e-2)" x1="-0.7275" y1="0.11499999999999998" x2="-0.7275" y2="8.499999999999998e-2" /><line stroke-width="5.0e-3" transform="rotate(-90.0, -0.7275, -0.0)" x1="-0.7275" y1="1.5e-2" x2="-0.7275" y2="-1.5e-2" /><line stroke-width="5.0e-3" transform="rotate(-90.0, -0.7275, -9.999999999999998e-2)" x1="-0.7275" y1="-8.499999999999998e-2" x2="-0.7275" y2="-0.11499999999999998" /><line stroke-width="5.0e-3" transform="rotate(-90.0, -0.7275, -0.19999999999999996)" x1="-0.7275" y1="-0.18499999999999994" x2="-0.7275" y2="-0.21499999999999997" /><line stroke-width="5.0e-3" transform="rotate(-90.0, -0.7275, -0.30000000000000004)" x1="-0.7275" y1="-0.28500000000000003" x2="-0.7275" y2="-0.31500000000000006" /><line stroke-width="5.0e-3" transform="rotate(-90.0, -0.7275, -0.4)" x1="-0.7275" y1="-0.385" x2="-0.7275" y2="-0.41500000000000004" /><line stroke-width="5.0e-3" transform="rotate(-90.0, -0.7275, -0.5)" x1="-0.7275" y1="-0.485" x2="-0.7275" y2="-0.515" /></g><g stroke-width="0.0" stroke="#666666" fill="#5F0391" fill-opacity="0.5" stroke-opacity="0.0"><rect width="5.0000000000000044e-3" height="1.0" x="-0.7175" y="-0.5" /></g><g stroke-width="5.0e-3" stroke="#A8E5EE" fill="none" stroke-opacity="0.3"><polyline points="-0.665,0.5 -0.665,-0.5" /></g><g stroke-width="5.0e-3" stroke="#A8E5EE" fill="none" stroke-opacity="0.3"><polyline points="-0.44333333333333336,0.5 -0.44333333333333336,-0.5" /></g><g stroke-width="5.0e-3" stroke="#A8E5EE" fill="none" stroke-opacity="0.3"><polyline points="-0.22166666666666668,0.5 -0.22166666666666668,-0.5" /></g><g stroke-width="5.0e-3" stroke="#A8E5EE" fill="none" stroke-opacity="0.3"><polyline points="0.0,0.5 0.0,-0.5" /></g><g stroke-width="5.0e-3" stroke="#A8E5EE" fill="none" stroke-opacity="0.3"><polyline points="0.22166666666666668,0.5 0.22166666666666668,-0.5" /></g><g stroke-width="5.0e-3" stroke="#A8E5EE" fill="none" stroke-opacity="0.3"><polyline points="0.44333333333333336,0.5 0.44333333333333336,-0.5" /></g><g stroke-width="5.0e-3" stroke="#A8E5EE" fill="none" stroke-opacity="0.3"><polyline points="0.665,0.5 0.665,-0.5" /></g><g stroke-width="0.0" stroke="none" fill="#666666" fill-opacity="1.0" font-size="5.0e-2" text-anchor="middle"><text x="-0.665" y="0.6312500000000001">0.0</text></g><g stroke-width="0.0" stroke="none" fill="#666666" fill-opacity="1.0" font-size="5.0e-2" text-anchor="middle"><text x="-0.44333333333333336" y="0.6312500000000001">0.5</text></g><g stroke-width="0.0" stroke="none" fill="#666666" fill-opacity="1.0" font-size="5.0e-2" text-anchor="middle"><text x="-0.22166666666666668" y="0.6312500000000001">1.0</text></g><g stroke-width="0.0" stroke="none" fill="#666666" fill-opacity="1.0" font-size="5.0e-2" text-anchor="middle"><text x="0.0" y="0.6312500000000001">1.5</text></g><g stroke-width="0.0" stroke="none" fill="#666666" fill-opacity="1.0" font-size="5.0e-2" text-anchor="middle"><text x="0.22166666666666668" y="0.6312500000000001">2.0</text></g><g stroke-width="0.0" stroke="none" fill="#666666" fill-opacity="1.0" font-size="5.0e-2" text-anchor="middle"><text x="0.44333333333333336" y="0.6312500000000001">2.5</text></g><g stroke-width="0.0" stroke="none" fill="#666666" fill-opacity="1.0" font-size="5.0e-2" text-anchor="middle"><text x="0.665" y="0.6312500000000001">3.0</text></g><g stroke-width="0.0" stroke="#2C429D" fill="#5F0391" fill-opacity="1.0" stroke-opacity="0.4"><line stroke-width="5.0e-3" x1="-0.665" y1="0.555" x2="-0.665" y2="0.525" /><line stroke-width="5.0e-3" x1="-0.44333333333333336" y1="0.555" x2="-0.44333333333333336" y2="0.525" /><line stroke-width="5.0e-3" x1="-0.22166666666666668" y1="0.555" x2="-0.22166666666666668" y2="0.525" /><line stroke-width="5.0e-3" y1="0.555" y2="0.525" /><line stroke-width="5.0e-3" x1="0.22166666666666668" y1="0.555" x2="0.22166666666666668" y2="0.525" /><line stroke-width="5.0e-3" x1="0.44333333333333336" y1="0.555" x2="0.44333333333333336" y2="0.525" /><line stroke-width="5.0e-3" x1="0.665" y1="0.555" x2="0.665" y2="0.525" /></g><g stroke-width="0.0" stroke="#666666" fill="#5F0391" fill-opacity="0.5" stroke-opacity="0.0"><rect width="1.33" height="5.0000000000000044e-3" x="-0.665" y="0.525" /></g><g stroke-width="1.5e-2" stroke="#C5824B" fill="none" stroke-opacity="0.6"><polyline points="-0.665,0.3 -0.22166666666666668,0.3 0.22166666666666668,-0.5" /></g><g stroke-width="3.0e-2" stroke="#3C7F2B" fill="none" stroke-opacity="0.6"><polyline points="-0.665,0.5 0.5763333333333331,-0.10000000000000009" /></g><g stroke-width="1.0e-2" stroke="#342989" fill="none" stroke-opacity="1.0"><polyline points="-0.44333333333333336,-0.30000000000000004 -0.44333333333333336,0.5" /></g><g /><g stroke-width="0.0" stroke="none" fill="#666666" fill-opacity="1.0" font-size="6.25e-2" text-anchor="start"><text x="0.3897707358067729" y="0.46669610988760635">vertical</text></g><g stroke-width="0.0" stroke="#000000" fill="#666666" fill-opacity="3.0e-2" stroke-opacity="0.0"><rect width="2.7980351321984953e-2" height="3.858527559924885e-2" x="0.5856331950606664" y="0.4281108342883575" /></g><g stroke-width="0.0" stroke="none" fill="#666666" fill-opacity="1.0" font-size="6.25e-2" text-anchor="start"><text x="0.3897707358067729" y="0.3931429282765382">green</text></g><g stroke-width="0.0" stroke="none" fill="#000000" transform="translate(-7.003750000000003e-2, -0.56725)" fill-opacity="0.6" font-size="5.0e-2" text-anchor="middle"><text transform="rotate(0.0, 0.5331700363319449, 0.3931429282765382)" x="0.5331700363319449" y="0.3931429282765382">Example Chart</text></g><g stroke-width="0.0" stroke="none" fill="#666666" fill-opacity="1.0" font-size="6.25e-2" text-anchor="start"><text x="0.3897707358067729" y="0.22100436750938915">hockey</text></g><g stroke-width="0.0" stroke="none" fill="#000000" transform="translate(0.7025000000000001, 0.7237500000000001)" fill-opacity="0.6" font-size="5.0e-2" text-anchor="end"><text transform="rotate(0.0, 0.5506577559081856, 0.22100436750938915)" x="0.5506577559081856" y="0.22100436750938915">An example from chart-svg</text></g><g stroke-width="2.5e-3" stroke="#3764A0" fill="#000000" fill-opacity="0.0" stroke-opacity="1.0"><rect width="0.3497543915248099" height="0.31562755440185575" x="0.29918434840184716" y="0.16674382369794546" /></g><g /></svg>