<?xml version='1.0' ?>
<svg viewBox="-0.9475000000000001 -0.55 1.7475 1.2475" xmlns="http://www.w3.org/2000/svg" xmlns:xlink="http://www.w3.org/1999/xlink" version="1.1" width="400.0" height="400.0">
  <g stroke-width="0.0" stroke="#666666" fill="#5DA5DA" fill-opacity="0.3" stroke-opacity="0.3">
    <circle cx="-0.75" cy="0.3" r="5.0e-2" />
    <circle cx="-0.25" cy="0.3" r="5.0e-2" />
    <circle cx="0.25" cy="-0.5" r="5.0e-2" />
  </g>
  <g stroke-width="0.0" stroke="#666666" fill="#641E1E" fill-opacity="0.3" stroke-opacity="0.3">
    <rect width="0.1" height="0.15000000000000002" x="-0.8" y="0.425" rx="1.0e-2" ry="1.0e-2" />
    <rect width="0.1" height="0.15000000000000002" x="0.7" y="-0.1750000000000001" rx="1.0e-2" ry="1.0e-2" />
  </g>
  <g stroke-width="0.0" stroke="#666666" fill="#648250" fill-opacity="0.3" stroke-opacity="0.3">
    <ellipse cx="-0.5" cy="-0.30000000000000004" rx="5.0e-2" ry="7.500000000000001e-2" />
    <ellipse cx="-0.5" cy="0.5" rx="5.0e-2" ry="7.500000000000001e-2" />
  </g>
  <g stroke-width="0.0" stroke="#000000" fill="#666666" fill-opacity="0.2" stroke-opacity="0.0">
    <rect width="1.6" height="1.125" x="-0.8" y="-0.55" />
  </g>
  <g stroke-width="5.0e-3" stroke="#666666" fill="#5DA5DA" fill-opacity="0.5" stroke-opacity="0.5">
    <rect width="1.5" height="5.0000000000000044e-3" x="-0.75" y="0.585" />
  </g>
  <g stroke-width="1.5e-2" stroke="#666666" fill="#5DA5DA" transform="translate(0.0, 0.605) rotate(0.0)" fill-opacity="0.3" stroke-opacity="1.0">
    <line stroke-width="5.0e-3" x1="-0.75" y1="-1.5e-2" x2="-0.75" y2="1.5e-2" />
    <line stroke-width="5.0e-3" x1="-0.5" y1="-1.5e-2" x2="-0.5" y2="1.5e-2" />
    <line stroke-width="5.0e-3" x1="-0.25" y1="-1.5e-2" x2="-0.25" y2="1.5e-2" />
    <line stroke-width="5.0e-3" y1="-1.5e-2" y2="1.5e-2" />
    <line stroke-width="5.0e-3" x1="0.25" y1="-1.5e-2" x2="0.25" y2="1.5e-2" />
    <line stroke-width="5.0e-3" x1="0.5" y1="-1.5e-2" x2="0.5" y2="1.5e-2" />
    <line stroke-width="5.0e-3" x1="0.75" y1="-1.5e-2" x2="0.75" y2="1.5e-2" />
  </g>
  <g stroke-width="0.0" stroke="none" fill="#666666" transform="translate(0.0, 0.6825)" fill-opacity="1.0" font-size="5.0e-2" text-anchor="middle">
    <text x="-0.75" y="-0.0">0.0</text>
  </g>
  <g stroke-width="0.0" stroke="none" fill="#666666" transform="translate(0.0, 0.6825)" fill-opacity="1.0" font-size="5.0e-2" text-anchor="middle">
    <text x="-0.5" y="-0.0">0.5</text>
  </g>
  <g stroke-width="0.0" stroke="none" fill="#666666" transform="translate(0.0, 0.6825)" fill-opacity="1.0" font-size="5.0e-2" text-anchor="middle">
    <text x="-0.25" y="-0.0">1.0</text>
  </g>
  <g stroke-width="0.0" stroke="none" fill="#666666" transform="translate(0.0, 0.6825)" fill-opacity="1.0" font-size="5.0e-2" text-anchor="middle">
    <text x="0.0" y="-0.0">1.5</text>
  </g>
  <g stroke-width="0.0" stroke="none" fill="#666666" transform="translate(0.0, 0.6825)" fill-opacity="1.0" font-size="5.0e-2" text-anchor="middle">
    <text x="0.25" y="-0.0">2.0</text>
  </g>
  <g stroke-width="0.0" stroke="none" fill="#666666" transform="translate(0.0, 0.6825)" fill-opacity="1.0" font-size="5.0e-2" text-anchor="middle">
    <text x="0.5" y="-0.0">2.5</text>
  </g>
  <g stroke-width="0.0" stroke="none" fill="#666666" transform="translate(0.0, 0.6825)" fill-opacity="1.0" font-size="5.0e-2" text-anchor="middle">
    <text x="0.75" y="-0.0">3.0</text>
  </g>
  <g stroke-width="5.0e-3" stroke="#666666" fill="#5DA5DA" fill-opacity="0.5" stroke-opacity="0.5">
    <rect width="5.0000000000000044e-3" height="1.0" x="-0.8150000000000001" y="-0.5" />
  </g>
  <g stroke-width="1.5e-2" stroke="#666666" fill="#5DA5DA" transform="translate(-0.8300000000000001, -0.0) rotate(-90.0)" fill-opacity="0.3" stroke-opacity="1.0">
    <line stroke-width="5.0e-3" x1="-0.5" y1="-1.5e-2" x2="-0.5" y2="1.5e-2" />
    <line stroke-width="5.0e-3" x1="-0.4" y1="-1.5e-2" x2="-0.4" y2="1.5e-2" />
    <line stroke-width="5.0e-3" x1="-0.3" y1="-1.5e-2" x2="-0.3" y2="1.5e-2" />
    <line stroke-width="5.0e-3" x1="-0.19999999999999996" y1="-1.5e-2" x2="-0.19999999999999996" y2="1.5e-2" />
    <line stroke-width="5.0e-3" x1="-9.999999999999998e-2" y1="-1.5e-2" x2="-9.999999999999998e-2" y2="1.5e-2" />
    <line stroke-width="5.0e-3" y1="-1.5e-2" y2="1.5e-2" />
    <line stroke-width="5.0e-3" x1="0.10000000000000009" y1="-1.5e-2" x2="0.10000000000000009" y2="1.5e-2" />
    <line stroke-width="5.0e-3" x1="0.20000000000000007" y1="-1.5e-2" x2="0.20000000000000007" y2="1.5e-2" />
    <line stroke-width="5.0e-3" x1="0.30000000000000004" y1="-1.5e-2" x2="0.30000000000000004" y2="1.5e-2" />
    <line stroke-width="5.0e-3" x1="0.4" y1="-1.5e-2" x2="0.4" y2="1.5e-2" />
    <line stroke-width="5.0e-3" x1="0.5" y1="-1.5e-2" x2="0.5" y2="1.5e-2" />
  </g>
  <g stroke-width="0.0" stroke="none" fill="#666666" transform="translate(-0.8800000000000001, 1.3750000000000002e-2)" fill-opacity="1.0" font-size="5.0e-2" text-anchor="end">
    <text x="0.0" y="0.5">0.0</text>
  </g>
  <g stroke-width="0.0" stroke="none" fill="#666666" transform="translate(-0.8800000000000001, 1.3750000000000002e-2)" fill-opacity="1.0" font-size="5.0e-2" text-anchor="end">
    <text x="0.0" y="0.4">0.5</text>
  </g>
  <g stroke-width="0.0" stroke="none" fill="#666666" transform="translate(-0.8800000000000001, 1.3750000000000002e-2)" fill-opacity="1.0" font-size="5.0e-2" text-anchor="end">
    <text x="0.0" y="0.3">1.0</text>
  </g>
  <g stroke-width="0.0" stroke="none" fill="#666666" transform="translate(-0.8800000000000001, 1.3750000000000002e-2)" fill-opacity="1.0" font-size="5.0e-2" text-anchor="end">
    <text x="0.0" y="0.19999999999999996">1.5</text>
  </g>
  <g stroke-width="0.0" stroke="none" fill="#666666" transform="translate(-0.8800000000000001, 1.3750000000000002e-2)" fill-opacity="1.0" font-size="5.0e-2" text-anchor="end">
    <text x="0.0" y="9.999999999999998e-2">2.0</text>
  </g>
  <g stroke-width="0.0" stroke="none" fill="#666666" transform="translate(-0.8800000000000001, 1.3750000000000002e-2)" fill-opacity="1.0" font-size="5.0e-2" text-anchor="end">
    <text x="0.0" y="-0.0">2.5</text>
  </g>
  <g stroke-width="0.0" stroke="none" fill="#666666" transform="translate(-0.8800000000000001, 1.3750000000000002e-2)" fill-opacity="1.0" font-size="5.0e-2" text-anchor="end">
    <text x="0.0" y="-0.10000000000000009">3.0</text>
  </g>
  <g stroke-width="0.0" stroke="none" fill="#666666" transform="translate(-0.8800000000000001, 1.3750000000000002e-2)" fill-opacity="1.0" font-size="5.0e-2" text-anchor="end">
    <text x="0.0" y="-0.20000000000000007">3.5</text>
  </g>
  <g stroke-width="0.0" stroke="none" fill="#666666" transform="translate(-0.8800000000000001, 1.3750000000000002e-2)" fill-opacity="1.0" font-size="5.0e-2" text-anchor="end">
    <text x="0.0" y="-0.30000000000000004">4.0</text>
  </g>
  <g stroke-width="0.0" stroke="none" fill="#666666" transform="translate(-0.8800000000000001, 1.3750000000000002e-2)" fill-opacity="1.0" font-size="5.0e-2" text-anchor="end">
    <text x="0.0" y="-0.4">4.5</text>
  </g>
  <g stroke-width="0.0" stroke="none" fill="#666666" transform="translate(-0.8800000000000001, 1.3750000000000002e-2)" fill-opacity="1.0" font-size="5.0e-2" text-anchor="end">
    <text x="0.0" y="-0.5">5.0</text>
  </g>
</svg>
