<?xml version='1.0' ?>
<svg viewBox="-1.7135000000000002 -1.267491251125079 3.4070000000000005 2.5958048327204946" xmlns="http://www.w3.org/2000/svg" xmlns:xlink="http://www.w3.org/1999/xlink" version="1.1" width="400.0" height="400.0">
  <g stroke-width="0.0" stroke="#666666" fill="#5DA5DA" fill-opacity="0.3" stroke-opacity="0.3">
    <circle cx="-0.75" cy="0.3" r="5.0e-2" />
    <circle cx="-0.25" cy="0.3" r="5.0e-2" />
    <circle cx="0.25" cy="-0.5" r="5.0e-2" />
  </g>
  <g stroke-width="0.0" stroke="#666666" fill="#641E1E" fill-opacity="0.3" stroke-opacity="0.3">
    <rect width="0.1" height="0.15000000000000002" x="-0.8" y="0.425" rx="1.0e-2" ry="1.0e-2" />
    <rect width="0.1" height="0.15000000000000002" x="0.7" y="-0.1750000000000001" rx="1.0e-2" ry="1.0e-2" />
  </g>
  <g stroke-width="0.0" stroke="#666666" fill="#648250" fill-opacity="0.3" stroke-opacity="0.3">
    <ellipse cx="-0.5" cy="-0.30000000000000004" rx="5.0e-2" ry="7.500000000000001e-2" />
    <ellipse cx="-0.5" cy="0.5" rx="5.0e-2" ry="7.500000000000001e-2" />
  </g>
  <g stroke-width="0.0" stroke="#000000" fill="#666666" fill-opacity="0.2" stroke-opacity="0.0">
    <rect width="1.6" height="1.125" x="-0.8" y="-0.55" />
  </g>
  <g stroke-width="5.0e-3" stroke="#666666" fill="#5DA5DA" fill-opacity="0.5" stroke-opacity="0.5">
    <rect width="1.5" height="5.0000000000000044e-3" x="-0.75" y="0.585" />
  </g>
  <g stroke-width="1.5e-2" stroke="#666666" fill="#5DA5DA" transform="translate(0.0, 0.605) rotate(0.0)" fill-opacity="0.3" stroke-opacity="1.0">
    <line stroke-width="5.0e-3" x1="-0.625" y1="-1.5e-2" x2="-0.625" y2="1.5e-2" />
    <line stroke-width="5.0e-3" x1="-0.375" y1="-1.5e-2" x2="-0.375" y2="1.5e-2" />
    <line stroke-width="5.0e-3" x1="-0.125" y1="-1.5e-2" x2="-0.125" y2="1.5e-2" />
    <line stroke-width="5.0e-3" x1="0.12499999999999989" y1="-1.5e-2" x2="0.12499999999999989" y2="1.5e-2" />
    <line stroke-width="5.0e-3" x1="0.375" y1="-1.5e-2" x2="0.375" y2="1.5e-2" />
    <line stroke-width="5.0e-3" x1="0.625" y1="-1.5e-2" x2="0.625" y2="1.5e-2" />
  </g>
  <g stroke-width="0.0" stroke="none" fill="#666666" transform="translate(0.0, 0.6825)" fill-opacity="1.0" font-size="5.0e-2" text-anchor="end">
    <text transform="rotate(-45.0, -0.625, -0.0)" x="-0.625" y="-0.0">tick labels</text>
  </g>
  <g stroke-width="0.0" stroke="none" fill="#666666" transform="translate(0.0, 0.6825)" fill-opacity="1.0" font-size="5.0e-2" text-anchor="end">
    <text transform="rotate(-45.0, -0.375, -0.0)" x="-0.375" y="-0.0">often need to be</text>
  </g>
  <g stroke-width="0.0" stroke="none" fill="#666666" transform="translate(0.0, 0.6825)" fill-opacity="1.0" font-size="5.0e-2" text-anchor="end">
    <text transform="rotate(-45.0, -0.125, -0.0)" x="-0.125" y="-0.0">manipulated</text>
  </g>
  <g stroke-width="0.0" stroke="none" fill="#666666" transform="translate(0.0, 0.6825)" fill-opacity="1.0" font-size="5.0e-2" text-anchor="end">
    <text transform="rotate(-45.0, 0.12499999999999989, -0.0)" x="0.12499999999999989" y="-0.0">by text anchoring</text>
  </g>
  <g stroke-width="0.0" stroke="none" fill="#666666" transform="translate(0.0, 0.6825)" fill-opacity="1.0" font-size="5.0e-2" text-anchor="end">
    <text transform="rotate(-45.0, 0.375, -0.0)" x="0.375" y="-0.0">, by rotation</text>
  </g>
  <g stroke-width="0.0" stroke="none" fill="#666666" transform="translate(0.0, 0.6825)" fill-opacity="1.0" font-size="5.0e-2" text-anchor="end">
    <text transform="rotate(-45.0, 0.625, -0.0)" x="0.625" y="-0.0">and by adjustments to font size</text>
  </g>
  <g stroke-width="5.0e-3" stroke="#666666" fill="#5DA5DA" fill-opacity="0.5" stroke-opacity="0.5">
    <rect width="5.0000000000000044e-3" height="1.0" x="-0.8150000000000001" y="-0.5" />
  </g>
  <g stroke-width="1.5e-2" stroke="#666666" fill="#5DA5DA" transform="translate(-0.8300000000000001, -0.0) rotate(-90.0)" fill-opacity="0.3" stroke-opacity="1.0">
    <line stroke-width="5.0e-3" x1="-0.4166666666666667" y1="-1.5e-2" x2="-0.4166666666666667" y2="1.5e-2" />
    <line stroke-width="5.0e-3" x1="-0.25" y1="-1.5e-2" x2="-0.25" y2="1.5e-2" />
    <line stroke-width="5.0e-3" x1="-8.333333333333337e-2" y1="-1.5e-2" x2="-8.333333333333337e-2" y2="1.5e-2" />
    <line stroke-width="5.0e-3" x1="8.333333333333326e-2" y1="-1.5e-2" x2="8.333333333333326e-2" y2="1.5e-2" />
    <line stroke-width="5.0e-3" x1="0.25" y1="-1.5e-2" x2="0.25" y2="1.5e-2" />
    <line stroke-width="5.0e-3" x1="0.41666666666666663" y1="-1.5e-2" x2="0.41666666666666663" y2="1.5e-2" />
  </g>
  <g stroke-width="0.0" stroke="none" fill="#666666" transform="translate(-0.8800000000000001, 1.3750000000000002e-2)" fill-opacity="1.0" font-size="5.0e-2" text-anchor="end">
    <text x="0.0" y="0.4166666666666667">tick labels</text>
  </g>
  <g stroke-width="0.0" stroke="none" fill="#666666" transform="translate(-0.8800000000000001, 1.3750000000000002e-2)" fill-opacity="1.0" font-size="5.0e-2" text-anchor="end">
    <text x="0.0" y="0.25">often need to be</text>
  </g>
  <g stroke-width="0.0" stroke="none" fill="#666666" transform="translate(-0.8800000000000001, 1.3750000000000002e-2)" fill-opacity="1.0" font-size="5.0e-2" text-anchor="end">
    <text x="0.0" y="8.333333333333337e-2">manipulated</text>
  </g>
  <g stroke-width="0.0" stroke="none" fill="#666666" transform="translate(-0.8800000000000001, 1.3750000000000002e-2)" fill-opacity="1.0" font-size="5.0e-2" text-anchor="end">
    <text x="0.0" y="-8.333333333333326e-2">by text anchoring</text>
  </g>
  <g stroke-width="0.0" stroke="none" fill="#666666" transform="translate(-0.8800000000000001, 1.3750000000000002e-2)" fill-opacity="1.0" font-size="5.0e-2" text-anchor="end">
    <text x="0.0" y="-0.25">, by rotation</text>
  </g>
  <g stroke-width="0.0" stroke="none" fill="#666666" transform="translate(-0.8800000000000001, 1.3750000000000002e-2)" fill-opacity="1.0" font-size="5.0e-2" text-anchor="end">
    <text x="0.0" y="-0.41666666666666663">and by adjustments to font size</text>
  </g>
  <g stroke-width="5.0e-3" stroke="#666666" fill="#5DA5DA" fill-opacity="0.5" stroke-opacity="0.5">
    <rect width="1.5" height="5.0000000000000044e-3" x="-0.75" y="-0.5650000000000001" />
  </g>
  <g stroke-width="1.5e-2" stroke="#666666" fill="#5DA5DA" transform="translate(0.0, -0.5800000000000001) rotate(0.0)" fill-opacity="0.3" stroke-opacity="1.0">
    <line stroke-width="5.0e-3" x1="-0.625" y1="-1.5e-2" x2="-0.625" y2="1.5e-2" />
    <line stroke-width="5.0e-3" x1="-0.375" y1="-1.5e-2" x2="-0.375" y2="1.5e-2" />
    <line stroke-width="5.0e-3" x1="-0.125" y1="-1.5e-2" x2="-0.125" y2="1.5e-2" />
    <line stroke-width="5.0e-3" x1="0.12499999999999989" y1="-1.5e-2" x2="0.12499999999999989" y2="1.5e-2" />
    <line stroke-width="5.0e-3" x1="0.375" y1="-1.5e-2" x2="0.375" y2="1.5e-2" />
    <line stroke-width="5.0e-3" x1="0.625" y1="-1.5e-2" x2="0.625" y2="1.5e-2" />
  </g>
  <g stroke-width="0.0" stroke="none" fill="#666666" transform="translate(0.0, -0.6100000000000001)" fill-opacity="1.0" font-size="5.0e-2" text-anchor="start">
    <text transform="rotate(-45.0, -0.625, -0.0)" x="-0.625" y="-0.0">tick labels</text>
  </g>
  <g stroke-width="0.0" stroke="none" fill="#666666" transform="translate(0.0, -0.6100000000000001)" fill-opacity="1.0" font-size="5.0e-2" text-anchor="start">
    <text transform="rotate(-45.0, -0.375, -0.0)" x="-0.375" y="-0.0">often need to be</text>
  </g>
  <g stroke-width="0.0" stroke="none" fill="#666666" transform="translate(0.0, -0.6100000000000001)" fill-opacity="1.0" font-size="5.0e-2" text-anchor="start">
    <text transform="rotate(-45.0, -0.125, -0.0)" x="-0.125" y="-0.0">manipulated</text>
  </g>
  <g stroke-width="0.0" stroke="none" fill="#666666" transform="translate(0.0, -0.6100000000000001)" fill-opacity="1.0" font-size="5.0e-2" text-anchor="start">
    <text transform="rotate(-45.0, 0.12499999999999989, -0.0)" x="0.12499999999999989" y="-0.0">by text anchoring</text>
  </g>
  <g stroke-width="0.0" stroke="none" fill="#666666" transform="translate(0.0, -0.6100000000000001)" fill-opacity="1.0" font-size="5.0e-2" text-anchor="start">
    <text transform="rotate(-45.0, 0.375, -0.0)" x="0.375" y="-0.0">, by rotation</text>
  </g>
  <g stroke-width="0.0" stroke="none" fill="#666666" transform="translate(0.0, -0.6100000000000001)" fill-opacity="1.0" font-size="5.0e-2" text-anchor="start">
    <text transform="rotate(-45.0, 0.625, -0.0)" x="0.625" y="-0.0">and by adjustments to font size</text>
  </g>
  <g stroke-width="5.0e-3" stroke="#666666" fill="#5DA5DA" fill-opacity="0.5" stroke-opacity="0.5">
    <rect width="5.0000000000000044e-3" height="1.0" x="0.81" y="-0.5" />
  </g>
  <g stroke-width="1.5e-2" stroke="#666666" fill="#5DA5DA" transform="translate(0.8300000000000001, -0.0) rotate(-90.0)" fill-opacity="0.3" stroke-opacity="1.0">
    <line stroke-width="5.0e-3" x1="-0.4166666666666667" y1="-1.5e-2" x2="-0.4166666666666667" y2="1.5e-2" />
    <line stroke-width="5.0e-3" x1="-0.25" y1="-1.5e-2" x2="-0.25" y2="1.5e-2" />
    <line stroke-width="5.0e-3" x1="-8.333333333333337e-2" y1="-1.5e-2" x2="-8.333333333333337e-2" y2="1.5e-2" />
    <line stroke-width="5.0e-3" x1="8.333333333333326e-2" y1="-1.5e-2" x2="8.333333333333326e-2" y2="1.5e-2" />
    <line stroke-width="5.0e-3" x1="0.25" y1="-1.5e-2" x2="0.25" y2="1.5e-2" />
    <line stroke-width="5.0e-3" x1="0.41666666666666663" y1="-1.5e-2" x2="0.41666666666666663" y2="1.5e-2" />
  </g>
  <g stroke-width="0.0" stroke="none" fill="#666666" transform="translate(0.8600000000000001, 1.3750000000000002e-2)" fill-opacity="1.0" font-size="5.0e-2" text-anchor="start">
    <text x="0.0" y="0.4166666666666667">tick labels</text>
  </g>
  <g stroke-width="0.0" stroke="none" fill="#666666" transform="translate(0.8600000000000001, 1.3750000000000002e-2)" fill-opacity="1.0" font-size="5.0e-2" text-anchor="start">
    <text x="0.0" y="0.25">often need to be</text>
  </g>
  <g stroke-width="0.0" stroke="none" fill="#666666" transform="translate(0.8600000000000001, 1.3750000000000002e-2)" fill-opacity="1.0" font-size="5.0e-2" text-anchor="start">
    <text x="0.0" y="8.333333333333337e-2">manipulated</text>
  </g>
  <g stroke-width="0.0" stroke="none" fill="#666666" transform="translate(0.8600000000000001, 1.3750000000000002e-2)" fill-opacity="1.0" font-size="5.0e-2" text-anchor="start">
    <text x="0.0" y="-8.333333333333326e-2">by text anchoring</text>
  </g>
  <g stroke-width="0.0" stroke="none" fill="#666666" transform="translate(0.8600000000000001, 1.3750000000000002e-2)" fill-opacity="1.0" font-size="5.0e-2" text-anchor="start">
    <text x="0.0" y="-0.25">, by rotation</text>
  </g>
  <g stroke-width="0.0" stroke="none" fill="#666666" transform="translate(0.8600000000000001, 1.3750000000000002e-2)" fill-opacity="1.0" font-size="5.0e-2" text-anchor="start">
    <text x="0.0" y="-0.41666666666666663">and by adjustments to font size</text>
  </g>
  <g stroke-width="0.0" stroke="none" fill="#000000" transform="translate(1.5975000000000001, 2.7411165235168067e-2) rotate(90.0)" fill-opacity="1.0" font-size="0.12" text-anchor="middle">
    <text x="0.0" y="-0.0">automated tick style</text>
  </g>
  <g stroke-width="0.0" stroke="none" fill="#000000" transform="translate(-1.6175000000000002, 2.7411165235168067e-2) rotate(-90.0)" fill-opacity="1.0" font-size="0.12" text-anchor="middle">
    <text x="0.0" y="-0.0">automated tick style</text>
  </g>
  <g stroke-width="0.0" stroke="none" fill="#000000" transform="translate(-1.0000000000000009e-2, -1.171491251125079) rotate(0.0)" fill-opacity="1.0" font-size="0.12" text-anchor="middle">
    <text x="0.0" y="-0.0">automated tick style</text>
  </g>
  <g stroke-width="0.0" stroke="none" fill="#000000" transform="translate(-1.0000000000000009e-2, 1.2923135815954152) rotate(0.0)" fill-opacity="1.0" font-size="0.12" text-anchor="middle">
    <text x="0.0" y="-0.0">automated tick style</text>
  </g>
</svg>
