<svg width="444.2307692307692" xmlns:xlink="http://www.w3.org/1999/xlink" xmlns="http://www.w3.org/2000/svg" viewBox="-0.77 -0.52 1.54 1.04" height="300.0"><style>svg {
  color-scheme: light dark;
}
@media (prefers-color-scheme:light) {
  svg {
    background-color: #0d0d0d;
  }
}</style><g stroke-opacity="1.0" fill="#0d0d0d" stroke="#0d0d0d" stroke-width="0.0" fill-opacity="1.0"><rect width="1.5" x="-0.75" y="-0.5" height="1.0"/></g><g stroke-opacity="0.4" fill="#f0f0f0" stroke="#f0f0f0" stroke-width="4.0e-3" fill-opacity="0.4"><g transform="rotate(-90.0, -0.6233921086862263, 0.39061502447329216)"><polyline points="-0.6233921086862263,0.4056150244732922
-0.6233921086862263,0.37561502447329215"/></g><g transform="rotate(-90.0, -0.6233921086862263, 0.3054905298999787)"><polyline points="-0.6233921086862263,0.3204905298999787
-0.6233921086862263,0.2904905298999787"/></g><g transform="rotate(-90.0, -0.6233921086862263, 0.2203660353266652)"><polyline points="-0.6233921086862263,0.23536603532666522
-0.6233921086862263,0.2053660353266652"/></g><g transform="rotate(-90.0, -0.6233921086862263, 0.1352415407533517)"><polyline points="-0.6233921086862263,0.15024154075335172
-0.6233921086862263,0.12024154075335171"/></g><g transform="rotate(-90.0, -0.6233921086862263, 5.011704618003826e-2)"><polyline points="-0.6233921086862263,6.511704618003826e-2
-0.6233921086862263,3.511704618003826e-2"/></g><g transform="rotate(-90.0, -0.6233921086862263, -3.500744839327519e-2)"><polyline points="-0.6233921086862263,-2.0007448393275187e-2
-0.6233921086862263,-5.0007448393275186e-2"/></g><g transform="rotate(-90.0, -0.6233921086862263, -0.1201319429665888)"><polyline points="-0.6233921086862263,-0.1051319429665888
-0.6233921086862263,-0.13513194296658881"/></g><g transform="rotate(-90.0, -0.6233921086862263, -0.2052564375399022)"><polyline points="-0.6233921086862263,-0.19025643753990218
-0.6233921086862263,-0.2202564375399022"/></g><g transform="rotate(-90.0, -0.6233921086862263, -0.2903809321132157)"><polyline points="-0.6233921086862263,-0.2753809321132157
-0.6233921086862263,-0.3053809321132157"/></g><g transform="rotate(-90.0, -0.6233921086862263, -0.3755054266865292)"><polyline points="-0.6233921086862263,-0.3605054266865292
-0.6233921086862263,-0.3905054266865292"/></g><g transform="rotate(-90.0, -0.6233921086862263, -0.4606299212598426)"><polyline points="-0.6233921086862263,-0.4456299212598426
-0.6233921086862263,-0.4756299212598426"/></g></g><g fill="#f0f0f0" stroke="none" stroke-width="0.0" font-size="4.3358866888278655e-2" fill-opacity="1.0" text-anchor="end"><text x="-0.654610492845787" y="0.40231964247712276">-0.5</text><text x="-0.654610492845787" y="0.3171951479038093">-0.4</text><text x="-0.654610492845787" y="0.23207065333049576">-0.3</text><text x="-0.654610492845787" y="0.1469461587571823">-0.2</text><text x="-0.654610492845787" y="6.182166418386886e-2">-0.1</text><text x="-0.654610492845787" y="-2.3302830389444584e-2">0</text><text x="-0.654610492845787" y="-0.10842732496275809">0.1</text><text x="-0.654610492845787" y="-0.1935518195360716">0.2</text><text x="-0.654610492845787" y="-0.2786763141093851">0.3</text><text x="-0.654610492845787" y="-0.3638008086826985">0.4</text><text x="-0.654610492845787" y="-0.448925303256012">0.5</text></g><g stroke-opacity="5.0e-2" fill="none" stroke="#f0f0f0" stroke-width="5.0e-3"><polyline points="-0.597376788553259,0.39061502447329216
0.7033892180951007,0.39061502447329216"/><polyline points="-0.597376788553259,0.3054905298999787
0.7033892180951007,0.3054905298999787"/><polyline points="-0.597376788553259,0.2203660353266652
0.7033892180951007,0.2203660353266652"/><polyline points="-0.597376788553259,0.1352415407533517
0.7033892180951007,0.1352415407533517"/><polyline points="-0.597376788553259,5.011704618003826e-2
0.7033892180951007,5.011704618003826e-2"/><polyline points="-0.597376788553259,-3.500744839327519e-2
0.7033892180951007,-3.500744839327519e-2"/><polyline points="-0.597376788553259,-0.1201319429665888
0.7033892180951007,-0.1201319429665888"/><polyline points="-0.597376788553259,-0.2052564375399022
0.7033892180951007,-0.2052564375399022"/><polyline points="-0.597376788553259,-0.2903809321132157
0.7033892180951007,-0.2903809321132157"/><polyline points="-0.597376788553259,-0.3755054266865292
0.7033892180951007,-0.3755054266865292"/><polyline points="-0.597376788553259,-0.4606299212598426
0.7033892180951007,-0.4606299212598426"/></g><g stroke-opacity="0.0" fill="#f0f0f0" stroke="#000000" stroke-width="0.0" fill-opacity="0.4"><rect width="3.46870935106236e-3" x="-0.6095172712819772" y="-0.46233241115130885" height="0.8546499255160673"/></g><g stroke-opacity="0.4" fill="#f0f0f0" stroke="#f0f0f0" stroke-width="4.0e-3" fill-opacity="0.4"><polyline points="-0.597376788553259,0.43115237284528624
-0.597376788553259,0.4011523728452862"/><polyline points="-0.4673001878884232,0.43115237284528624
-0.4673001878884232,0.4011523728452862"/><polyline points="-0.33722358722358714,0.43115237284528624
-0.33722358722358714,0.4011523728452862"/><polyline points="-0.2071469865587512,0.43115237284528624
-0.2071469865587512,0.4011523728452862"/><polyline points="-7.707038589391524e-2,0.43115237284528624
-7.707038589391524e-2,0.4011523728452862"/><polyline points="5.300621477092071e-2,0.43115237284528624
5.300621477092071e-2,0.4011523728452862"/><polyline points="0.18308281543575666,0.43115237284528624
0.18308281543575666,0.4011523728452862"/><polyline points="0.3131594161005926,0.43115237284528624
0.3131594161005926,0.4011523728452862"/><polyline points="0.4432360167654288,0.43115237284528624
0.4432360167654288,0.4011523728452862"/><polyline points="0.5733126174302647,0.43115237284528624
0.5733126174302647,0.4011523728452862"/><polyline points="0.7033892180951007,0.43115237284528624
0.7033892180951007,0.4011523728452862"/></g><g fill="#f0f0f0" stroke="none" stroke-width="0.0" font-size="4.3358866888278655e-2" fill-opacity="1.0" text-anchor="middle"><text x="-0.597376788553259" y="0.4702064268993403">-0.5</text><text x="-0.4673001878884232" y="0.4702064268993403">-0.4</text><text x="-0.33722358722358714" y="0.4702064268993403">-0.3</text><text x="-0.2071469865587512" y="0.4702064268993403">-0.2</text><text x="-7.707038589391524e-2" y="0.4702064268993403">-0.1</text><text x="5.300621477092071e-2" y="0.4702064268993403">0</text><text x="0.18308281543575666" y="0.4702064268993403">0.1</text><text x="0.3131594161005926" y="0.4702064268993403">0.2</text><text x="0.4432360167654288" y="0.4702064268993403">0.3</text><text x="0.5733126174302647" y="0.4702064268993403">0.4</text><text x="0.7033892180951007" y="0.4702064268993403">0.5</text></g><g stroke-opacity="5.0e-2" fill="none" stroke="#f0f0f0" stroke-width="5.0e-3"><polyline points="-0.597376788553259,0.39061502447329216
-0.597376788553259,-0.4606299212598426"/><polyline points="-0.4673001878884232,0.39061502447329216
-0.4673001878884232,-0.4606299212598426"/><polyline points="-0.33722358722358714,0.39061502447329216
-0.33722358722358714,-0.4606299212598426"/><polyline points="-0.2071469865587512,0.39061502447329216
-0.2071469865587512,-0.4606299212598426"/><polyline points="-7.707038589391524e-2,0.39061502447329216
-7.707038589391524e-2,-0.4606299212598426"/><polyline points="5.300621477092071e-2,0.39061502447329216
5.300621477092071e-2,-0.4606299212598426"/><polyline points="0.18308281543575666,0.39061502447329216
0.18308281543575666,-0.4606299212598426"/><polyline points="0.3131594161005926,0.39061502447329216
0.3131594161005926,-0.4606299212598426"/><polyline points="0.4432360167654288,0.39061502447329216
0.4432360167654288,-0.4606299212598426"/><polyline points="0.5733126174302647,0.39061502447329216
0.5733126174302647,-0.4606299212598426"/><polyline points="0.7033892180951007,0.39061502447329216
0.7033892180951007,-0.4606299212598426"/></g><g stroke-opacity="0.0" fill="#f0f0f0" stroke="#000000" stroke-width="0.0" fill-opacity="0.4"><rect width="1.3042347159994216" x="-0.5991111432287902" y="0.3991274739306235" height="3.4049797829325823e-3"/></g><g stroke-opacity="0.0" fill="#ffffff" stroke="#000000" stroke-width="0.0" fill-opacity="2.0e-2"><rect width="1.3007660066483597" x="-0.597376788553259" y="-0.4606299212598426" height="0.8512449457331348"/></g></svg>