<svg width="447.69238623630724" xmlns:xlink="http://www.w3.org/1999/xlink" xmlns="http://www.w3.org/2000/svg" viewBox="-0.739108737244898 -0.4970967390949991 1.4852665417729591 0.9952815286358154" height="300.0"><style>svg {
  color-scheme: light dark;
}
{
  .canvas g, .title g, .axisbar g, .ticktext g, .tickglyph g, .ticklines g, .legendContent g text {
    fill: #0d0d0d;
  }
  .ticklines g, .tickglyph g, .legendBorder g {
    stroke: #0d0d0d;
  }
}
@media (prefers-color-scheme:dark) {
  .canvas g, .title g, .axisbar g, .ticktext g, .tickglyph g, .ticklines g, .legendContent g text {
    fill: #f0f0f0;
  }
  .ticklines g, .tickglyph g, .legendBorder g {
    stroke: #f0f0f0;
  }
}</style><g class="chart"></g><g class="hud"><g class="frame"><g stroke-opacity="0.0" fill="#0d0d0d" stroke="#0d0d0d" stroke-width="0.0" fill-opacity="2.0e-2"><rect width="1.3184789540816326" x="-0.6019869260204082" y="-0.47399600638977646" height="0.8769968051118211"/></g></g><g class="axis"><g class="ticks"><g class="tickglyph"><g stroke-opacity="0.4" fill="#0d0d0d" stroke="#0d0d0d" stroke-width="4.0e-3" fill-opacity="0.4"><g transform="rotate(-90.0, -0.6283565051020408, 0.4030007987220447)"><polyline points="-0.6283565051020408,0.4180007987220447
-0.6283565051020408,0.3880007987220447"/></g><g transform="rotate(-90.0, -0.6283565051020408, 0.3153011182108626)"><polyline points="-0.6283565051020408,0.3303011182108626
-0.6283565051020408,0.3003011182108626"/></g><g transform="rotate(-90.0, -0.6283565051020408, 0.22760143769968044)"><polyline points="-0.6283565051020408,0.24260143769968046
-0.6283565051020408,0.21260143769968043"/></g><g transform="rotate(-90.0, -0.6283565051020408, 0.1399017571884983)"><polyline points="-0.6283565051020408,0.1549017571884983
-0.6283565051020408,0.12490175718849829"/></g><g transform="rotate(-90.0, -0.6283565051020408, 5.220207667731619e-2)"><polyline points="-0.6283565051020408,6.720207667731619e-2
-0.6283565051020408,3.720207667731619e-2"/></g><g transform="rotate(-90.0, -0.6283565051020408, -3.549760383386591e-2)"><polyline points="-0.6283565051020408,-2.049760383386591e-2
-0.6283565051020408,-5.049760383386591e-2"/></g><g transform="rotate(-90.0, -0.6283565051020408, -0.12319728434504806)"><polyline points="-0.6283565051020408,-0.10819728434504806
-0.6283565051020408,-0.13819728434504808"/></g><g transform="rotate(-90.0, -0.6283565051020408, -0.21089696485623022)"><polyline points="-0.6283565051020408,-0.1958969648562302
-0.6283565051020408,-0.22589696485623023"/></g><g transform="rotate(-90.0, -0.6283565051020408, -0.29859664536741226)"><polyline points="-0.6283565051020408,-0.28359664536741225
-0.6283565051020408,-0.3135966453674123"/></g><g transform="rotate(-90.0, -0.6283565051020408, -0.3862963258785943)"><polyline points="-0.6283565051020408,-0.3712963258785943
-0.6283565051020408,-0.4012963258785943"/></g><g transform="rotate(-90.0, -0.6283565051020408, -0.47399600638977646)"><polyline points="-0.6283565051020408,-0.45899600638977645
-0.6283565051020408,-0.48899600638977647"/></g></g></g><g class="ticktext"><g fill="#0d0d0d" stroke="none" stroke-width="0.0" font-size="4.3949298469387756e-2" fill-opacity="1.0" text-anchor="end"><text x="-0.66" y="0.4150595047923323">-0.5</text><text x="-0.66" y="0.3273598242811501">-0.4</text><text x="-0.66" y="0.23966014376996794">-0.3</text><text x="-0.66" y="0.15196046325878587">-0.2</text><text x="-0.66" y="6.426078274760372e-2">-0.1</text><text x="-0.66" y="-2.3438897763578326e-2">0</text><text x="-0.66" y="-0.11113857827476048">0.1</text><text x="-0.66" y="-0.19883825878594263">0.2</text><text x="-0.66" y="-0.2865379392971247">0.3</text><text x="-0.66" y="-0.37423761980830683">0.4</text><text x="-0.66" y="-0.4619373003194889">0.5</text></g></g><g class="ticklines"><g stroke-opacity="5.0e-2" fill="none" stroke="#0d0d0d" stroke-width="5.0e-3"><polyline points="-0.6019869260204082,0.4030007987220447
0.7164920280612245,0.4030007987220447"/><polyline points="-0.6019869260204082,0.3153011182108626
0.7164920280612245,0.3153011182108626"/><polyline points="-0.6019869260204082,0.22760143769968044
0.7164920280612245,0.22760143769968044"/><polyline points="-0.6019869260204082,0.1399017571884983
0.7164920280612245,0.1399017571884983"/><polyline points="-0.6019869260204082,5.220207667731619e-2
0.7164920280612245,5.220207667731619e-2"/><polyline points="-0.6019869260204082,-3.549760383386591e-2
0.7164920280612245,-3.549760383386591e-2"/><polyline points="-0.6019869260204082,-0.12319728434504806
0.7164920280612245,-0.12319728434504806"/><polyline points="-0.6019869260204082,-0.21089696485623022
0.7164920280612245,-0.21089696485623022"/><polyline points="-0.6019869260204082,-0.29859664536741226
0.7164920280612245,-0.29859664536741226"/><polyline points="-0.6019869260204082,-0.3862963258785943
0.7164920280612245,-0.3862963258785943"/><polyline points="-0.6019869260204082,-0.47399600638977646
0.7164920280612245,-0.47399600638977646"/></g></g></g><g class="axisbar"><g stroke-opacity="0.0" fill="#0d0d0d" stroke="#000000" stroke-width="0.0" fill-opacity="0.4"><rect width="3.515943877551053e-3" x="-0.6142927295918368" y="-0.47575" height="0.8805047923322683"/></g></g></g><g class="axis"><g class="ticks"><g class="tickglyph"><g stroke-opacity="0.4" fill="#0d0d0d" stroke="#0d0d0d" stroke-width="4.0e-3" fill-opacity="0.4"><polyline points="-0.6019869260204082,0.44431070287539937
-0.6019869260204082,0.41431070287539934"/><polyline points="-0.47013903061224493,0.44431070287539937
-0.47013903061224493,0.41431070287539934"/><polyline points="-0.3382911352040816,0.44431070287539937
-0.3382911352040816,0.41431070287539934"/><polyline points="-0.20644323979591833,0.44431070287539937
-0.20644323979591833,0.41431070287539934"/><polyline points="-7.459534438775506e-2,0.44431070287539937
-7.459534438775506e-2,0.41431070287539934"/><polyline points="5.725255102040816e-2,0.44431070287539937
5.725255102040816e-2,0.41431070287539934"/><polyline points="0.1891004464285716,0.44431070287539937
0.1891004464285716,0.41431070287539934"/><polyline points="0.3209483418367347,0.44431070287539937
0.3209483418367347,0.41431070287539934"/><polyline points="0.45279623724489804,0.44431070287539937
0.45279623724489804,0.41431070287539934"/><polyline points="0.5846441326530613,0.44431070287539937
0.5846441326530613,0.41431070287539934"/><polyline points="0.7164920280612245,0.44431070287539937
0.7164920280612245,0.41431070287539934"/></g></g><g class="ticktext"><g fill="#0d0d0d" stroke="none" stroke-width="0.0" font-size="4.3949298469387756e-2" fill-opacity="1.0" text-anchor="middle"><text x="-0.6019869260204082" y="0.485">-0.5</text><text x="-0.47013903061224493" y="0.485">-0.4</text><text x="-0.3382911352040816" y="0.485">-0.3</text><text x="-0.20644323979591833" y="0.485">-0.2</text><text x="-7.459534438775506e-2" y="0.485">-0.1</text><text x="5.725255102040816e-2" y="0.485">0</text><text x="0.1891004464285716" y="0.485">0.1</text><text x="0.3209483418367347" y="0.485">0.2</text><text x="0.45279623724489804" y="0.485">0.3</text><text x="0.5846441326530613" y="0.485">0.4</text><text x="0.7164920280612245" y="0.485">0.5</text></g></g><g class="ticklines"><g stroke-opacity="5.0e-2" fill="none" stroke="#0d0d0d" stroke-width="5.0e-3"><polyline points="-0.6019869260204082,0.4030007987220447
-0.6019869260204082,-0.47399600638977646"/><polyline points="-0.47013903061224493,0.4030007987220447
-0.47013903061224493,-0.47399600638977646"/><polyline points="-0.3382911352040816,0.4030007987220447
-0.3382911352040816,-0.47399600638977646"/><polyline points="-0.20644323979591833,0.4030007987220447
-0.20644323979591833,-0.47399600638977646"/><polyline points="-7.459534438775506e-2,0.4030007987220447
-7.459534438775506e-2,-0.47399600638977646"/><polyline points="5.725255102040816e-2,0.4030007987220447
5.725255102040816e-2,-0.47399600638977646"/><polyline points="0.1891004464285716,0.4030007987220447
0.1891004464285716,-0.47399600638977646"/><polyline points="0.3209483418367347,0.4030007987220447
0.3209483418367347,-0.47399600638977646"/><polyline points="0.45279623724489804,0.4030007987220447
0.45279623724489804,-0.47399600638977646"/><polyline points="0.5846441326530613,0.4030007987220447
0.5846441326530613,-0.47399600638977646"/><polyline points="0.7164920280612245,0.4030007987220447
0.7164920280612245,-0.47399600638977646"/></g></g></g><g class="axisbar"><g stroke-opacity="0.0" fill="#0d0d0d" stroke="#000000" stroke-width="0.0" fill-opacity="0.4"><rect width="1.3219948979591836" x="-0.6037448979591836" y="0.41177076677316293" height="3.5079872204472617e-3"/></g></g></g></g></svg>