<svg height="300" viewBox="-0.7385 -0.4968 1.4830 0.9949" width="447" xmlns="http://www.w3.org/2000/svg" xmlns:xlink="http://www.w3.org/1999/xlink"><style>svg {
  color-scheme: light dark;
}
{
  .canvas g, .title g, .axisbar g, .ticktext g, .tickglyph g, .ticklines g, .legendContent g text {
    fill: rgb(5%, 5%, 5%);
  }
  .ticklines g, .tickglyph g, .legendBorder g {
    stroke: rgb(5%, 5%, 5%);
  }
  .legendBorder g {
    fill: rgb(94%, 94%, 94%);
  }
}
@media (prefers-color-scheme:dark) {
  .canvas g, .title g, .axisbar g, .ticktext g, .tickglyph g, .ticklines g, .legendContent g text {
    fill: rgb(94%, 94%, 94%);
  }
  .ticklines g, .tickglyph g, .legendBorder g {
    stroke: rgb(94%, 94%, 94%);
  }
  .legendBorder g {
    fill: rgb(5%, 5%, 5%);
  }
}</style><g class="chart"/><g class="hud"><g class="frame"><g fill="rgb(5%, 5%, 5%)" fill-opacity="(0.020" stroke="rgb(5%, 5%, 5%)" stroke-opacity="(0.0" stroke-width="0"><rect height="0.8770" width="1.3077" x="-0.6025" y="-0.4740"/></g></g><g class="axis"><g class="ticks"><g class="tickglyph"><g fill="rgb(5%, 5%, 5%)" fill-opacity="(0.40" stroke="rgb(5%, 5%, 5%)" stroke-opacity="(0.40" stroke-width="0.0040"><g transform="rotate(-90.0, -0.6286, 0.4030)"><polyline points="-0.6286,0.4180
-0.6286,0.3880"/></g><g transform="rotate(-90.0, -0.6286, 0.3153)"><polyline points="-0.6286,0.3303
-0.6286,0.3003"/></g><g transform="rotate(-90.0, -0.6286, 0.2276)"><polyline points="-0.6286,0.2426
-0.6286,0.2126"/></g><g transform="rotate(-90.0, -0.6286, 0.1399)"><polyline points="-0.6286,0.1549
-0.6286,0.1249"/></g><g transform="rotate(-90.0, -0.6286, 0.0522)"><polyline points="-0.6286,0.0672
-0.6286,0.0372"/></g><g transform="rotate(-90.0, -0.6286, -0.0355)"><polyline points="-0.6286,-0.0205
-0.6286,-0.0505"/></g><g transform="rotate(-90.0, -0.6286, -0.1232)"><polyline points="-0.6286,-0.1082
-0.6286,-0.1382"/></g><g transform="rotate(-90.0, -0.6286, -0.2109)"><polyline points="-0.6286,-0.1959
-0.6286,-0.2259"/></g><g transform="rotate(-90.0, -0.6286, -0.2986)"><polyline points="-0.6286,-0.2836
-0.6286,-0.3136"/></g><g transform="rotate(-90.0, -0.6286, -0.3863)"><polyline points="-0.6286,-0.3713
-0.6286,-0.4013"/></g><g transform="rotate(-90.0, -0.6286, -0.4740)"><polyline points="-0.6286,-0.4590
-0.6286,-0.4890"/></g></g></g><g class="ticktext"><g fill="rgb(5%, 5%, 5%)" fill-opacity="(1.0" font-size="0.0436" stroke="none" stroke-width="0.0" text-anchor="end"><text x="-0.66" y="0.4151">-0.5</text><text x="-0.66" y="0.3274">-0.4</text><text x="-0.66" y="0.2397">-0.3</text><text x="-0.66" y="0.1520">-0.2</text><text x="-0.66" y="0.0643">-0.1</text><text x="-0.66" y="-0.0234"> 0.0</text><text x="-0.66" y="-0.1111"> 0.1</text><text x="-0.66" y="-0.1988"> 0.2</text><text x="-0.66" y="-0.2865"> 0.3</text><text x="-0.66" y="-0.3742"> 0.4</text><text x="-0.66" y="-0.4619"> 0.5</text></g></g><g class="ticklines"><g fill="none" stroke="rgb(5%, 5%, 5%)" stroke-opacity="(0.050" stroke-width="0.0050"><polyline points="-0.6025,0.4030 0.7053,0.4030"/><polyline points="-0.6025,0.3153 0.7053,0.3153"/><polyline points="-0.6025,0.2276 0.7053,0.2276"/><polyline points="-0.6025,0.1399 0.7053,0.1399"/><polyline points="-0.6025,0.0522 0.7053,0.0522"/><polyline points="-0.6025,-0.0355 0.7053,-0.0355"/><polyline points="-0.6025,-0.1232 0.7053,-0.1232"/><polyline points="-0.6025,-0.2109 0.7053,-0.2109"/><polyline points="-0.6025,-0.2986 0.7053,-0.2986"/><polyline points="-0.6025,-0.3863 0.7053,-0.3863"/><polyline points="-0.6025,-0.4740 0.7053,-0.4740"/></g></g></g><g class="axisbar"><g fill="rgb(5%, 5%, 5%)" fill-opacity="(0.40" stroke="rgb(0%, 0%, 0%)" stroke-opacity="(0.0" stroke-width="0"><rect height="0.8805" width="0.0035" x="-0.6147" y="-0.4758"/></g></g></g><g class="axis"><g class="ticks"><g class="tickglyph"><g fill="rgb(5%, 5%, 5%)" fill-opacity="(0.40" stroke="rgb(5%, 5%, 5%)" stroke-opacity="(0.40" stroke-width="0.0040"><polyline points="-0.6025,0.4443
-0.6025,0.4143"/><polyline points="-0.4717,0.4443
-0.4717,0.4143"/><polyline points="-0.3409,0.4443
-0.3409,0.4143"/><polyline points="-0.2101,0.4443
-0.2101,0.4143"/><polyline points="-0.0794,0.4443
-0.0794,0.4143"/><polyline points="0.0514,0.4443
0.0514,0.4143"/><polyline points="0.1822,0.4443
0.1822,0.4143"/><polyline points="0.3129,0.4443
0.3129,0.4143"/><polyline points="0.4437,0.4443
0.4437,0.4143"/><polyline points="0.5745,0.4443
0.5745,0.4143"/><polyline points="0.7053,0.4443
0.7053,0.4143"/></g></g><g class="ticktext"><g fill="rgb(5%, 5%, 5%)" fill-opacity="(1.0" font-size="0.0436" stroke="none" stroke-width="0.0" text-anchor="middle"><text x="-0.6025" y="0.485">-0.5</text><text x="-0.4717" y="0.485">-0.4</text><text x="-0.3409" y="0.485">-0.3</text><text x="-0.2101" y="0.485">-0.2</text><text x="-0.0794" y="0.485">-0.1</text><text x="0.0514" y="0.485"> 0.0</text><text x="0.1822" y="0.485"> 0.1</text><text x="0.3129" y="0.485"> 0.2</text><text x="0.4437" y="0.485"> 0.3</text><text x="0.5745" y="0.485"> 0.4</text><text x="0.7053" y="0.485"> 0.5</text></g></g><g class="ticklines"><g fill="none" stroke="rgb(5%, 5%, 5%)" stroke-opacity="(0.050" stroke-width="0.0050"><polyline points="-0.6025,0.4030 -0.6025,-0.4740"/><polyline points="-0.4717,0.4030 -0.4717,-0.4740"/><polyline points="-0.3409,0.4030 -0.3409,-0.4740"/><polyline points="-0.2101,0.4030 -0.2101,-0.4740"/><polyline points="-0.0794,0.4030 -0.0794,-0.4740"/><polyline points="0.0514,0.4030 0.0514,-0.4740"/><polyline points="0.1822,0.4030 0.1822,-0.4740"/><polyline points="0.3129,0.4030 0.3129,-0.4740"/><polyline points="0.4437,0.4030 0.4437,-0.4740"/><polyline points="0.5745,0.4030 0.5745,-0.4740"/><polyline points="0.7053,0.4030 0.7053,-0.4740"/></g></g></g><g class="axisbar"><g fill="rgb(5%, 5%, 5%)" fill-opacity="(0.40" stroke="rgb(0%, 0%, 0%)" stroke-opacity="(0.0" stroke-width="0"><rect height="0.0035" width="1.3112" x="-0.6042" y="0.4118"/></g></g></g></g></svg>