<svg width="441.7322834645669" xmlns:xlink="http://www.w3.org/1999/xlink" xmlns="http://www.w3.org/2000/svg" viewBox="-0.926 -0.5462500000000001 1.7297500000000001 1.1747500000000002" height="300.0"><style>svg {
  color-scheme: light dark;
}
{
  .canvas g, .title g, .axisbar g, .ticktext g, .tickglyph g, .ticklines g, .legendContent g text {
    fill: #0d0d0d;
  }
  .ticklines g, .tickglyph g, .legendBorder g {
    stroke: #0d0d0d;
  }
}
@media (prefers-color-scheme:dark) {
  .canvas g, .title g, .axisbar g, .ticktext g, .tickglyph g, .ticklines g, .legendContent g text {
    fill: #f0f0f0;
  }
  .ticklines g, .tickglyph g, .legendBorder g {
    stroke: #f0f0f0;
  }
}</style><g class="hud"><g class="canvas"><g stroke-opacity="0.0" fill="#ffffff" stroke="#000000" stroke-width="0.0" fill-opacity="2.0e-2"><rect width="1.5" x="-0.75" y="-0.5" height="1.0"/></g></g><g class="axis"><g class="ticks"><g class="tickglyph"><g stroke-opacity="0.4" fill="#0d0d0d" stroke="#0d0d0d" stroke-width="4.0e-3" fill-opacity="0.4"><g transform="rotate(-90.0, -0.78, 0.5)"><polyline points="-0.78,0.515
-0.78,0.485"/></g><g transform="rotate(-90.0, -0.78, 0.4)"><polyline points="-0.78,0.41500000000000004
-0.78,0.385"/></g><g transform="rotate(-90.0, -0.78, 0.29999999999999993)"><polyline points="-0.78,0.31499999999999995
-0.78,0.2849999999999999"/></g><g transform="rotate(-90.0, -0.78, 0.19999999999999996)"><polyline points="-0.78,0.21499999999999997
-0.78,0.18499999999999994"/></g><g transform="rotate(-90.0, -0.78, 9.999999999999992e-2)"><polyline points="-0.78,0.11499999999999992
-0.78,8.499999999999992e-2"/></g><g transform="rotate(-90.0, -0.78, -0.0)"><polyline points="-0.78,1.5e-2
-0.78,-1.5e-2"/></g><g transform="rotate(-90.0, -0.78, -0.10000000000000009)"><polyline points="-0.78,-8.500000000000009e-2
-0.78,-0.11500000000000009"/></g><g transform="rotate(-90.0, -0.78, -0.20000000000000018)"><polyline points="-0.78,-0.18500000000000016
-0.78,-0.2150000000000002"/></g><g transform="rotate(-90.0, -0.78, -0.30000000000000016)"><polyline points="-0.78,-0.28500000000000014
-0.78,-0.31500000000000017"/></g><g transform="rotate(-90.0, -0.78, -0.40000000000000013)"><polyline points="-0.78,-0.3850000000000001
-0.78,-0.41500000000000015"/></g><g transform="rotate(-90.0, -0.78, -0.5)"><polyline points="-0.78,-0.485
-0.78,-0.515"/></g></g></g><g class="ticktext"><g fill="#0d0d0d" stroke="none" stroke-width="0.0" font-size="5.0e-2" fill-opacity="1.0" text-anchor="end"><text x="-0.8160000000000001" y="0.51375">-0.5</text><text x="-0.8160000000000001" y="0.41375">-0.4</text><text x="-0.8160000000000001" y="0.31375">-0.3</text><text x="-0.8160000000000001" y="0.21374999999999994">-0.2</text><text x="-0.8160000000000001" y="0.11374999999999996">-0.1</text><text x="-0.8160000000000001" y="1.375000000000004e-2">0</text><text x="-0.8160000000000001" y="-8.625000000000005e-2">0.1</text><text x="-0.8160000000000001" y="-0.18625000000000014">0.2</text><text x="-0.8160000000000001" y="-0.2862500000000001">0.3</text><text x="-0.8160000000000001" y="-0.38625">0.4</text><text x="-0.8160000000000001" y="-0.48625000000000007">0.5</text></g></g><g class="ticklines"><g stroke-opacity="5.0e-2" fill="none" stroke="#0d0d0d" stroke-width="5.0e-3"><polyline points="-0.75,0.5
0.75,0.5"/><polyline points="-0.75,0.4
0.75,0.4"/><polyline points="-0.75,0.29999999999999993
0.75,0.29999999999999993"/><polyline points="-0.75,0.19999999999999996
0.75,0.19999999999999996"/><polyline points="-0.75,9.999999999999992e-2
0.75,9.999999999999992e-2"/><polyline points="-0.75,-0.0
0.75,-0.0"/><polyline points="-0.75,-0.10000000000000009
0.75,-0.10000000000000009"/><polyline points="-0.75,-0.20000000000000018
0.75,-0.20000000000000018"/><polyline points="-0.75,-0.30000000000000016
0.75,-0.30000000000000016"/><polyline points="-0.75,-0.40000000000000013
0.75,-0.40000000000000013"/><polyline points="-0.75,-0.5
0.75,-0.5"/></g></g></g><g class="axisbar"><g stroke-opacity="0.0" fill="#0d0d0d" stroke="#000000" stroke-width="0.0" fill-opacity="0.4"><rect width="4.000000000000115e-3" x="-0.7640000000000001" y="-0.502" height="1.004"/></g></g></g><g class="axis"><g class="ticks"><g class="tickglyph"><g stroke-opacity="0.4" fill="#0d0d0d" stroke="#0d0d0d" stroke-width="4.0e-3" fill-opacity="0.4"><polyline points="-0.75,0.545
-0.75,0.515"/><polyline points="-0.6000000000000001,0.545
-0.6000000000000001,0.515"/><polyline points="-0.44999999999999996,0.545
-0.44999999999999996,0.515"/><polyline points="-0.30000000000000004,0.545
-0.30000000000000004,0.515"/><polyline points="-0.1499999999999999,0.545
-0.1499999999999999,0.515"/><polyline points="-1.1102230246251565e-16,0.545
-1.1102230246251565e-16,0.515"/><polyline points="0.1499999999999999,0.545
0.1499999999999999,0.515"/><polyline points="0.30000000000000004,0.545
0.30000000000000004,0.515"/><polyline points="0.4500000000000002,0.545
0.4500000000000002,0.515"/><polyline points="0.6000000000000001,0.545
0.6000000000000001,0.515"/><polyline points="0.75,0.545
0.75,0.515"/></g></g><g class="ticktext"><g fill="#0d0d0d" stroke="none" stroke-width="0.0" font-size="5.0e-2" fill-opacity="1.0" text-anchor="middle"><text x="-0.75" y="0.5935">-0.5</text><text x="-0.6000000000000001" y="0.5935">-0.4</text><text x="-0.44999999999999996" y="0.5935">-0.3</text><text x="-0.30000000000000004" y="0.5935">-0.2</text><text x="-0.1499999999999999" y="0.5935">-0.1</text><text x="-1.1102230246251565e-16" y="0.5935">0</text><text x="0.1499999999999999" y="0.5935">0.1</text><text x="0.30000000000000004" y="0.5935">0.2</text><text x="0.4500000000000002" y="0.5935">0.3</text><text x="0.6000000000000001" y="0.5935">0.4</text><text x="0.75" y="0.5935">0.5</text></g></g><g class="ticklines"><g stroke-opacity="5.0e-2" fill="none" stroke="#0d0d0d" stroke-width="5.0e-3"><polyline points="-0.75,0.5
-0.75,-0.5"/><polyline points="-0.6000000000000001,0.5
-0.6000000000000001,-0.5"/><polyline points="-0.44999999999999996,0.5
-0.44999999999999996,-0.5"/><polyline points="-0.30000000000000004,0.5
-0.30000000000000004,-0.5"/><polyline points="-0.1499999999999999,0.5
-0.1499999999999999,-0.5"/><polyline points="-1.1102230246251565e-16,0.5
-1.1102230246251565e-16,-0.5"/><polyline points="0.1499999999999999,0.5
0.1499999999999999,-0.5"/><polyline points="0.30000000000000004,0.5
0.30000000000000004,-0.5"/><polyline points="0.4500000000000002,0.5
0.4500000000000002,-0.5"/><polyline points="0.6000000000000001,0.5
0.6000000000000001,-0.5"/><polyline points="0.75,0.5
0.75,-0.5"/></g></g></g><g class="axisbar"><g stroke-opacity="0.0" fill="#0d0d0d" stroke="#000000" stroke-width="0.0" fill-opacity="0.4"><rect width="1.5039999999999998" x="-0.752" y="0.5099999999999999" height="4.000000000000115e-3"/></g></g></g></g></svg>