<svg xmlns="http://www.w3.org/2000/svg" width="445.98291679868447" xmlns:xlink="http://www.w3.org/1999/xlink" viewBox="-0.7339644451530611 -0.496235769707244 1.477835299744898 0.9940976957276522" height="300.0"><style>svg {
  color-scheme: light dark;
}
{
  .canvas g, .title g, .axisbar g, .ticktext g, .tickglyph g, .ticklines g, .legendContent g text {
    fill: #0d0d0d;
  }
  .ticklines g, .tickglyph g, .legendBorder g {
    stroke: #0d0d0d;
  }
}
@media (prefers-color-scheme:dark) {
  .canvas g, .title g, .axisbar g, .ticktext g, .tickglyph g, .ticklines g, .legendContent g text {
    fill: #f0f0f0;
  }
  .ticklines g, .tickglyph g, .legendBorder g {
    stroke: #f0f0f0;
  }
}</style><g class="chart"></g><g class="hud"><g class="frame"><g fill="#0d0d0d" stroke="#0d0d0d" stroke-width="0.0" fill-opacity="2.0e-2" stroke-opacity="0.0"><rect x="-0.580907525510204" width="1.2861926020408165" y="-0.47399600638977646" height="0.8769968051118211"/></g></g><g class="axis"><g class="ticks"><g class="tickglyph"><g fill="#0d0d0d" stroke="#0d0d0d" stroke-width="4.0e-3" fill-opacity="0.4" stroke-opacity="0.4"><g transform="rotate(-90.0, -0.6066313775510204, 0.4030007987220447)"><polyline points="-0.6066313775510204,0.4180007987220447
-0.6066313775510204,0.3880007987220447"/></g><g transform="rotate(-90.0, -0.6066313775510204, 0.3153011182108626)"><polyline points="-0.6066313775510204,0.3303011182108626
-0.6066313775510204,0.3003011182108626"/></g><g transform="rotate(-90.0, -0.6066313775510204, 0.22760143769968044)"><polyline points="-0.6066313775510204,0.24260143769968046
-0.6066313775510204,0.21260143769968043"/></g><g transform="rotate(-90.0, -0.6066313775510204, 0.1399017571884983)"><polyline points="-0.6066313775510204,0.1549017571884983
-0.6066313775510204,0.12490175718849829"/></g><g transform="rotate(-90.0, -0.6066313775510204, 5.220207667731619e-2)"><polyline points="-0.6066313775510204,6.720207667731619e-2
-0.6066313775510204,3.720207667731619e-2"/></g><g transform="rotate(-90.0, -0.6066313775510204, -3.549760383386591e-2)"><polyline points="-0.6066313775510204,-2.049760383386591e-2
-0.6066313775510204,-5.049760383386591e-2"/></g><g transform="rotate(-90.0, -0.6066313775510204, -0.12319728434504806)"><polyline points="-0.6066313775510204,-0.10819728434504806
-0.6066313775510204,-0.13819728434504808"/></g><g transform="rotate(-90.0, -0.6066313775510204, -0.21089696485623022)"><polyline points="-0.6066313775510204,-0.1958969648562302
-0.6066313775510204,-0.22589696485623023"/></g><g transform="rotate(-90.0, -0.6066313775510204, -0.29859664536741226)"><polyline points="-0.6066313775510204,-0.28359664536741225
-0.6066313775510204,-0.3135966453674123"/></g><g transform="rotate(-90.0, -0.6066313775510204, -0.3862963258785943)"><polyline points="-0.6066313775510204,-0.3712963258785943
-0.6066313775510204,-0.4012963258785943"/></g><g transform="rotate(-90.0, -0.6066313775510204, -0.47399600638977646)"><polyline points="-0.6066313775510204,-0.45899600638977645
-0.6066313775510204,-0.48899600638977647"/></g></g></g><g class="ticktext"><g fill="#0d0d0d" stroke="none" stroke-width="0.0" font-size="4.287308673469388e-2" fill-opacity="1.0" text-anchor="end"><text x="-0.6375" y="0.4150595047923323">-0.50</text><text x="-0.6375" y="0.3273598242811501">-0.40</text><text x="-0.6375" y="0.23966014376996794">-0.30</text><text x="-0.6375" y="0.15196046325878587">-0.20</text><text x="-0.6375" y="6.426078274760372e-2">-0.10</text><text x="-0.6375" y="-2.3438897763578326e-2">0.0</text><text x="-0.6375" y="-0.11113857827476048">0.10</text><text x="-0.6375" y="-0.19883825878594263">0.20</text><text x="-0.6375" y="-0.2865379392971247">0.30</text><text x="-0.6375" y="-0.37423761980830683">0.40</text><text x="-0.6375" y="-0.4619373003194889">0.50</text></g></g><g class="ticklines"><g fill="none" stroke="#0d0d0d" stroke-width="5.0e-3" stroke-opacity="5.0e-2"><polyline points="-0.580907525510204,0.4030007987220447
0.7052850765306125,0.4030007987220447"/><polyline points="-0.580907525510204,0.3153011182108626
0.7052850765306125,0.3153011182108626"/><polyline points="-0.580907525510204,0.22760143769968044
0.7052850765306125,0.22760143769968044"/><polyline points="-0.580907525510204,0.1399017571884983
0.7052850765306125,0.1399017571884983"/><polyline points="-0.580907525510204,5.220207667731619e-2
0.7052850765306125,5.220207667731619e-2"/><polyline points="-0.580907525510204,-3.549760383386591e-2
0.7052850765306125,-3.549760383386591e-2"/><polyline points="-0.580907525510204,-0.12319728434504806
0.7052850765306125,-0.12319728434504806"/><polyline points="-0.580907525510204,-0.21089696485623022
0.7052850765306125,-0.21089696485623022"/><polyline points="-0.580907525510204,-0.29859664536741226
0.7052850765306125,-0.29859664536741226"/><polyline points="-0.580907525510204,-0.3862963258785943
0.7052850765306125,-0.3862963258785943"/><polyline points="-0.580907525510204,-0.47399600638977646
0.7052850765306125,-0.47399600638977646"/></g></g></g><g class="axisbar"><g fill="#0d0d0d" stroke="#000000" stroke-width="0.0" fill-opacity="0.4" stroke-opacity="0.0"><rect x="-0.5929119897959183" width="3.4298469387755715e-3" y="-0.47575" height="0.8805047923322683"/></g></g></g><g class="axis"><g class="ticks"><g class="tickglyph"><g fill="#0d0d0d" stroke="#0d0d0d" stroke-width="4.0e-3" fill-opacity="0.4" stroke-opacity="0.4"><polyline points="-0.580907525510204,0.44431070287539937
-0.580907525510204,0.41431070287539934"/><polyline points="-0.45228826530612243,0.44431070287539937
-0.45228826530612243,0.41431070287539934"/><polyline points="-0.3236690051020407,0.44431070287539937
-0.3236690051020407,0.41431070287539934"/><polyline points="-0.19504974489795907,0.44431070287539937
-0.19504974489795907,0.41431070287539934"/><polyline points="-6.643048469387736e-2,0.44431070287539937
-6.643048469387736e-2,0.41431070287539934"/><polyline points="6.2188775510204186e-2,0.44431070287539937
6.2188775510204186e-2,0.41431070287539934"/><polyline points="0.19080803571428595,0.44431070287539937
0.19080803571428595,0.41431070287539934"/><polyline points="0.3194272959183675,0.44431070287539937
0.3194272959183675,0.41431070287539934"/><polyline points="0.44804655612244937,0.44431070287539937
0.44804655612244937,0.41431070287539934"/><polyline points="0.5766658163265308,0.44431070287539937
0.5766658163265308,0.41431070287539934"/><polyline points="0.7052850765306125,0.44431070287539937
0.7052850765306125,0.41431070287539934"/></g></g><g class="ticktext"><g fill="#0d0d0d" stroke="none" stroke-width="0.0" font-size="4.287308673469388e-2" fill-opacity="1.0" text-anchor="middle"><text x="-0.580907525510204" y="0.485">-0.50</text><text x="-0.45228826530612243" y="0.485">-0.40</text><text x="-0.3236690051020407" y="0.485">-0.30</text><text x="-0.19504974489795907" y="0.485">-0.20</text><text x="-6.643048469387736e-2" y="0.485">-0.10</text><text x="6.2188775510204186e-2" y="0.485">0.0</text><text x="0.19080803571428595" y="0.485">0.10</text><text x="0.3194272959183675" y="0.485">0.20</text><text x="0.44804655612244937" y="0.485">0.30</text><text x="0.5766658163265308" y="0.485">0.40</text><text x="0.7052850765306125" y="0.485">0.50</text></g></g><g class="ticklines"><g fill="none" stroke="#0d0d0d" stroke-width="5.0e-3" stroke-opacity="5.0e-2"><polyline points="-0.580907525510204,0.4030007987220447
-0.580907525510204,-0.47399600638977646"/><polyline points="-0.45228826530612243,0.4030007987220447
-0.45228826530612243,-0.47399600638977646"/><polyline points="-0.3236690051020407,0.4030007987220447
-0.3236690051020407,-0.47399600638977646"/><polyline points="-0.19504974489795907,0.4030007987220447
-0.19504974489795907,-0.47399600638977646"/><polyline points="-6.643048469387736e-2,0.4030007987220447
-6.643048469387736e-2,-0.47399600638977646"/><polyline points="6.2188775510204186e-2,0.4030007987220447
6.2188775510204186e-2,-0.47399600638977646"/><polyline points="0.19080803571428595,0.4030007987220447
0.19080803571428595,-0.47399600638977646"/><polyline points="0.3194272959183675,0.4030007987220447
0.3194272959183675,-0.47399600638977646"/><polyline points="0.44804655612244937,0.4030007987220447
0.44804655612244937,-0.47399600638977646"/><polyline points="0.5766658163265308,0.4030007987220447
0.5766658163265308,-0.47399600638977646"/><polyline points="0.7052850765306125,0.4030007987220447
0.7052850765306125,-0.47399600638977646"/></g></g></g><g class="axisbar"><g fill="#0d0d0d" stroke="#000000" stroke-width="0.0" fill-opacity="0.4" stroke-opacity="0.0"><rect x="-0.5826224489795917" width="1.2896224489795918" y="0.41177076677316293" height="3.5079872204472617e-3"/></g></g></g></g></svg>