<svg height="300.0" viewBox="-0.7331572863520408 -0.49594877991132563 1.4750353555484697 0.9937030847582644" width="445.31471568510756" xmlns="http://www.w3.org/2000/svg" xmlns:xlink="http://www.w3.org/1999/xlink"><style>svg {
  color-scheme: light dark;
}
{
  .canvas g, .title g, .axisbar g, .ticktext g, .tickglyph g, .ticklines g, .legendContent g text {
    fill: rgba(5%, 5%, 5%, 1.00);
  }
  .ticklines g, .tickglyph g, .legendBorder g {
    stroke: rgba(5%, 5%, 5%, 1.00);
  }
  .legendBorder g {
    fill: rgba(94%, 94%, 94%, 1.00);
  }
}
@media (prefers-color-scheme:dark) {
  .canvas g, .title g, .axisbar g, .ticktext g, .tickglyph g, .ticklines g, .legendContent g text {
    fill: rgba(94%, 94%, 94%, 1.00);
  }
  .ticklines g, .tickglyph g, .legendBorder g {
    stroke: rgba(94%, 94%, 94%, 1.00);
  }
  .legendBorder g {
    fill: rgba(5%, 5%, 5%, 1.00);
  }
}</style><g class="chart"/><g class="hud"><g class="frame"><g fill="rgba(5%, 5%, 5%, 0.02)" stroke="rgba(5%, 5%, 5%, 0.00)" stroke-width="0.0"><rect height="0.8769968051118211" width="1.2754304846938778" x="-0.5813810586734693" y="-0.47399600638977646"/></g></g><g class="axis"><g class="ticks"><g class="tickglyph"><g fill="rgba(5%, 5%, 5%, 0.40)" stroke="rgba(5%, 5%, 5%, 0.40)" stroke-width="4.0e-3"><g transform="rotate(-90.0, -0.6068896683673468, 0.4030007987220447)"><polyline points="-0.6068896683673468,0.4180007987220447
-0.6068896683673468,0.3880007987220447"/></g><g transform="rotate(-90.0, -0.6068896683673468, 0.3153011182108626)"><polyline points="-0.6068896683673468,0.3303011182108626
-0.6068896683673468,0.3003011182108626"/></g><g transform="rotate(-90.0, -0.6068896683673468, 0.22760143769968044)"><polyline points="-0.6068896683673468,0.24260143769968046
-0.6068896683673468,0.21260143769968043"/></g><g transform="rotate(-90.0, -0.6068896683673468, 0.1399017571884983)"><polyline points="-0.6068896683673468,0.1549017571884983
-0.6068896683673468,0.12490175718849829"/></g><g transform="rotate(-90.0, -0.6068896683673468, 5.220207667731619e-2)"><polyline points="-0.6068896683673468,6.720207667731619e-2
-0.6068896683673468,3.720207667731619e-2"/></g><g transform="rotate(-90.0, -0.6068896683673468, -3.549760383386591e-2)"><polyline points="-0.6068896683673468,-2.049760383386591e-2
-0.6068896683673468,-5.049760383386591e-2"/></g><g transform="rotate(-90.0, -0.6068896683673468, -0.12319728434504806)"><polyline points="-0.6068896683673468,-0.10819728434504806
-0.6068896683673468,-0.13819728434504808"/></g><g transform="rotate(-90.0, -0.6068896683673468, -0.21089696485623022)"><polyline points="-0.6068896683673468,-0.1958969648562302
-0.6068896683673468,-0.22589696485623023"/></g><g transform="rotate(-90.0, -0.6068896683673468, -0.29859664536741226)"><polyline points="-0.6068896683673468,-0.28359664536741225
-0.6068896683673468,-0.3135966453674123"/></g><g transform="rotate(-90.0, -0.6068896683673468, -0.3862963258785943)"><polyline points="-0.6068896683673468,-0.3712963258785943
-0.6068896683673468,-0.4012963258785943"/></g><g transform="rotate(-90.0, -0.6068896683673468, -0.47399600638977646)"><polyline points="-0.6068896683673468,-0.45899600638977645
-0.6068896683673468,-0.48899600638977647"/></g></g></g><g class="ticktext"><g fill="rgba(5%, 5%, 5%, 1.00)" font-size="4.251434948979592e-2" stroke="none" stroke-width="0.0" text-anchor="end"><text x="-0.6375" y="0.4150595047923323">-0.50</text><text x="-0.6375" y="0.3273598242811501">-0.40</text><text x="-0.6375" y="0.23966014376996794">-0.30</text><text x="-0.6375" y="0.15196046325878587">-0.20</text><text x="-0.6375" y="6.426078274760372e-2">-0.10</text><text x="-0.6375" y="-2.3438897763578326e-2"> 0.00</text><text x="-0.6375" y="-0.11113857827476048"> 0.10</text><text x="-0.6375" y="-0.19883825878594263"> 0.20</text><text x="-0.6375" y="-0.2865379392971247"> 0.30</text><text x="-0.6375" y="-0.37423761980830683"> 0.40</text><text x="-0.6375" y="-0.4619373003194889"> 0.50</text></g></g><g class="ticklines"><g fill="none" stroke="rgba(5%, 5%, 5%, 0.05)" stroke-width="5.0e-3"><polyline points="-0.5813810586734693,0.4030007987220447 0.6940494260204084,0.4030007987220447"/><polyline points="-0.5813810586734693,0.3153011182108626 0.6940494260204084,0.3153011182108626"/><polyline points="-0.5813810586734693,0.22760143769968044 0.6940494260204084,0.22760143769968044"/><polyline points="-0.5813810586734693,0.1399017571884983 0.6940494260204084,0.1399017571884983"/><polyline points="-0.5813810586734693,5.220207667731619e-2 0.6940494260204084,5.220207667731619e-2"/><polyline points="-0.5813810586734693,-3.549760383386591e-2 0.6940494260204084,-3.549760383386591e-2"/><polyline points="-0.5813810586734693,-0.12319728434504806 0.6940494260204084,-0.12319728434504806"/><polyline points="-0.5813810586734693,-0.21089696485623022 0.6940494260204084,-0.21089696485623022"/><polyline points="-0.5813810586734693,-0.29859664536741226 0.6940494260204084,-0.29859664536741226"/><polyline points="-0.5813810586734693,-0.3862963258785943 0.6940494260204084,-0.3862963258785943"/><polyline points="-0.5813810586734693,-0.47399600638977646 0.6940494260204084,-0.47399600638977646"/></g></g></g><g class="axisbar"><g fill="rgba(5%, 5%, 5%, 0.40)" stroke="rgba(0%, 0%, 0%, 0.00)" stroke-width="0.0"><rect height="0.8805047923322683" width="3.40114795918367e-3" x="-0.5932850765306121" y="-0.47575"/></g></g></g><g class="axis"><g class="ticks"><g class="tickglyph"><g fill="rgba(5%, 5%, 5%, 0.40)" stroke="rgba(5%, 5%, 5%, 0.40)" stroke-width="4.0e-3"><polyline points="-0.5813810586734693,0.44431070287539937
-0.5813810586734693,0.41431070287539934"/><polyline points="-0.4538380102040816,0.44431070287539937
-0.4538380102040816,0.41431070287539934"/><polyline points="-0.32629496173469374,0.44431070287539937
-0.32629496173469374,0.41431070287539934"/><polyline points="-0.198751913265306,0.44431070287539937
-0.198751913265306,0.41431070287539934"/><polyline points="-7.120886479591826e-2,0.44431070287539937
-7.120886479591826e-2,0.41431070287539934"/><polyline points="5.633418367346954e-2,0.44431070287539937
5.633418367346954e-2,0.41431070287539934"/><polyline points="0.18387723214285745,0.44431070287539937
0.18387723214285745,0.41431070287539934"/><polyline points="0.311420280612245,0.44431070287539937
0.311420280612245,0.41431070287539934"/><polyline points="0.43896332908163305,0.44431070287539937
0.43896332908163305,0.41431070287539934"/><polyline points="0.5665063775510206,0.44431070287539937
0.5665063775510206,0.41431070287539934"/><polyline points="0.6940494260204084,0.44431070287539937
0.6940494260204084,0.41431070287539934"/></g></g><g class="ticktext"><g fill="rgba(5%, 5%, 5%, 1.00)" font-size="4.251434948979592e-2" stroke="none" stroke-width="0.0" text-anchor="middle"><text x="-0.5813810586734693" y="0.485">-0.50</text><text x="-0.4538380102040816" y="0.485">-0.40</text><text x="-0.32629496173469374" y="0.485">-0.30</text><text x="-0.198751913265306" y="0.485">-0.20</text><text x="-7.120886479591826e-2" y="0.485">-0.10</text><text x="5.633418367346954e-2" y="0.485"> 0.00</text><text x="0.18387723214285745" y="0.485"> 0.10</text><text x="0.311420280612245" y="0.485"> 0.20</text><text x="0.43896332908163305" y="0.485"> 0.30</text><text x="0.5665063775510206" y="0.485"> 0.40</text><text x="0.6940494260204084" y="0.485"> 0.50</text></g></g><g class="ticklines"><g fill="none" stroke="rgba(5%, 5%, 5%, 0.05)" stroke-width="5.0e-3"><polyline points="-0.5813810586734693,0.4030007987220447 -0.5813810586734693,-0.47399600638977646"/><polyline points="-0.4538380102040816,0.4030007987220447 -0.4538380102040816,-0.47399600638977646"/><polyline points="-0.32629496173469374,0.4030007987220447 -0.32629496173469374,-0.47399600638977646"/><polyline points="-0.198751913265306,0.4030007987220447 -0.198751913265306,-0.47399600638977646"/><polyline points="-7.120886479591826e-2,0.4030007987220447 -7.120886479591826e-2,-0.47399600638977646"/><polyline points="5.633418367346954e-2,0.4030007987220447 5.633418367346954e-2,-0.47399600638977646"/><polyline points="0.18387723214285745,0.4030007987220447 0.18387723214285745,-0.47399600638977646"/><polyline points="0.311420280612245,0.4030007987220447 0.311420280612245,-0.47399600638977646"/><polyline points="0.43896332908163305,0.4030007987220447 0.43896332908163305,-0.47399600638977646"/><polyline points="0.5665063775510206,0.4030007987220447 0.5665063775510206,-0.47399600638977646"/><polyline points="0.6940494260204084,0.4030007987220447 0.6940494260204084,-0.47399600638977646"/></g></g></g><g class="axisbar"><g fill="rgba(5%, 5%, 5%, 0.40)" stroke="rgba(0%, 0%, 0%, 0.00)" stroke-width="0.0"><rect height="3.5079872204472617e-3" width="1.2788316326530613" x="-0.5830816326530611" y="0.41177076677316293"/></g></g></g></g></svg>