<svg width="444.3568633974889" xmlns:xlink="http://www.w3.org/1999/xlink" xmlns="http://www.w3.org/2000/svg" viewBox="-0.7817937620548525 -0.5267959586265729 1.5562164228254223 1.0506531243335466" height="300.0"><style>svg {
  color-scheme: light dark;
}
@media (prefers-color-scheme:dark) {
  svg {
    background-color: #f0f0f0;
  }
}</style><g stroke-opacity="5.0e-2" fill="none" stroke="#0d0d0d" stroke-width="5.0e-3"><polyline points="-0.6061709084066425,0.3801450202601834
0.7169226607705699,0.3801450202601834"/><polyline points="-0.6061709084066425,0.2948389848581787
0.7169226607705699,0.2948389848581787"/><polyline points="-0.6061709084066425,0.20953294945617396
0.7169226607705699,0.20953294945617396"/><polyline points="-0.6061709084066425,0.12422691405416925
0.7169226607705699,0.12422691405416925"/><polyline points="-0.6061709084066425,3.892087865216459e-2
0.7169226607705699,3.892087865216459e-2"/><polyline points="-0.6061709084066425,-4.638515674984012e-2
0.7169226607705699,-4.638515674984012e-2"/><polyline points="-0.6061709084066425,-0.13169119215184488
0.7169226607705699,-0.13169119215184488"/><polyline points="-0.6061709084066425,-0.21699722755384954
0.7169226607705699,-0.21699722755384954"/><polyline points="-0.6061709084066425,-0.3023032629558542
0.7169226607705699,-0.3023032629558542"/><polyline points="-0.6061709084066425,-0.38760929835785896
0.7169226607705699,-0.38760929835785896"/><polyline points="-0.6061709084066425,-0.4729153337598635
0.7169226607705699,-0.4729153337598635"/></g><g fill="#0d0d0d" stroke="none" stroke-width="0.0" font-size="5.0e-2" fill-opacity="1.0" text-anchor="end"><text x="-0.6617937620548525" y="0.392514395393474">-0.5</text><text x="-0.6617937620548525" y="0.30720835999146934">-0.4</text><text x="-0.6617937620548525" y="0.22190232458946468">-0.3</text><text x="-0.6617937620548525" y="0.13659628918745992">-0.2</text><text x="-0.6617937620548525" y="5.129025378545521e-2">-0.1</text><text x="-0.6617937620548525" y="-3.401578161654939e-2">0</text><text x="-0.6617937620548525" y="-0.11932181701855415">0.1</text><text x="-0.6617937620548525" y="-0.2046278524205588">0.2</text><text x="-0.6617937620548525" y="-0.2899338878225636">0.3</text><text x="-0.6617937620548525" y="-0.3752399232245681">0.4</text><text x="-0.6617937620548525" y="-0.4605459586265729">0.5</text></g><g stroke-opacity="0.4" fill="#0d0d0d" stroke="#0d0d0d" stroke-width="4.0e-3" fill-opacity="0.4"><g transform="rotate(-90.0, -0.6335148421696383, 0.3801450202601834)"><polyline points="-0.6335148421696383,0.3951450202601834
-0.6335148421696383,0.36514502026018336"/></g><g transform="rotate(-90.0, -0.6335148421696383, 0.2948389848581787)"><polyline points="-0.6335148421696383,0.30983898485817873
-0.6335148421696383,0.2798389848581787"/></g><g transform="rotate(-90.0, -0.6335148421696383, 0.20953294945617396)"><polyline points="-0.6335148421696383,0.22453294945617397
-0.6335148421696383,0.19453294945617394"/></g><g transform="rotate(-90.0, -0.6335148421696383, 0.12422691405416925)"><polyline points="-0.6335148421696383,0.13922691405416926
-0.6335148421696383,0.10922691405416925"/></g><g transform="rotate(-90.0, -0.6335148421696383, 3.892087865216459e-2)"><polyline points="-0.6335148421696383,5.392087865216459e-2
-0.6335148421696383,2.3920878652164593e-2"/></g><g transform="rotate(-90.0, -0.6335148421696383, -4.638515674984012e-2)"><polyline points="-0.6335148421696383,-3.138515674984012e-2
-0.6335148421696383,-6.138515674984012e-2"/></g><g transform="rotate(-90.0, -0.6335148421696383, -0.13169119215184488)"><polyline points="-0.6335148421696383,-0.11669119215184488
-0.6335148421696383,-0.1466911921518449"/></g><g transform="rotate(-90.0, -0.6335148421696383, -0.21699722755384954)"><polyline points="-0.6335148421696383,-0.20199722755384952
-0.6335148421696383,-0.23199722755384955"/></g><g transform="rotate(-90.0, -0.6335148421696383, -0.3023032629558542)"><polyline points="-0.6335148421696383,-0.2873032629558542
-0.6335148421696383,-0.3173032629558542"/></g><g transform="rotate(-90.0, -0.6335148421696383, -0.38760929835785896)"><polyline points="-0.6335148421696383,-0.37260929835785894
-0.6335148421696383,-0.40260929835785897"/></g><g transform="rotate(-90.0, -0.6335148421696383, -0.4729153337598635)"><polyline points="-0.6335148421696383,-0.4579153337598635
-0.6335148421696383,-0.4879153337598635"/></g></g><g stroke-opacity="0.0" fill="#0d0d0d" stroke="#000000" stroke-width="0.0" fill-opacity="0.4"><rect width="3.528249517805837e-3" x="-0.6185197817189632" y="-0.4746214544679036" height="0.8564725954361271"/></g><g stroke-opacity="5.0e-2" fill="none" stroke="#0d0d0d" stroke-width="5.0e-3"><polyline points="-0.6061709084066425,0.3801450202601834
-0.6061709084066425,-0.4729153337598635"/><polyline points="-0.4738615514889214,0.3801450202601834
-0.4738615514889214,-0.4729153337598635"/><polyline points="-0.3415521945712,0.3801450202601834
-0.3415521945712,-0.4729153337598635"/><polyline points="-0.20924283765347884,0.3801450202601834
-0.20924283765347884,-0.4729153337598635"/><polyline points="-7.693348073575756e-2,0.3801450202601834
-7.693348073575756e-2,-0.4729153337598635"/><polyline points="5.53758761819636e-2,0.3801450202601834
5.53758761819636e-2,-0.4729153337598635"/><polyline points="0.187685233099685,0.3801450202601834
0.187685233099685,-0.4729153337598635"/><polyline points="0.31999459001740616,0.3801450202601834
0.31999459001740616,-0.4729153337598635"/><polyline points="0.45230394693512754,0.3801450202601834
0.45230394693512754,-0.4729153337598635"/><polyline points="0.5846133038528487,0.3801450202601834
0.5846133038528487,-0.4729153337598635"/><polyline points="0.7169226607705699,0.3801450202601834
0.7169226607705699,-0.4729153337598635"/></g><g fill="#0d0d0d" stroke="none" stroke-width="0.0" font-size="5.0e-2" fill-opacity="1.0" text-anchor="middle"><text x="-0.6061709084066425" y="0.47760716570697376">-0.5</text><text x="-0.4738615514889214" y="0.47760716570697376">-0.4</text><text x="-0.3415521945712" y="0.47760716570697376">-0.3</text><text x="-0.20924283765347884" y="0.47760716570697376">-0.2</text><text x="-7.693348073575756e-2" y="0.47760716570697376">-0.1</text><text x="5.53758761819636e-2" y="0.47760716570697376">0</text><text x="0.187685233099685" y="0.47760716570697376">0.1</text><text x="0.31999459001740616" y="0.47760716570697376">0.2</text><text x="0.45230394693512754" y="0.47760716570697376">0.3</text><text x="0.5846133038528487" y="0.47760716570697376">0.4</text><text x="0.7169226607705699" y="0.47760716570697376">0.5</text></g><g stroke-opacity="0.4" fill="#0d0d0d" stroke="#0d0d0d" stroke-width="4.0e-3" fill-opacity="0.4"><polyline points="-0.6061709084066425,0.42158989123480484
-0.6061709084066425,0.3915898912348048"/><polyline points="-0.4738615514889214,0.42158989123480484
-0.4738615514889214,0.3915898912348048"/><polyline points="-0.3415521945712,0.42158989123480484
-0.3415521945712,0.3915898912348048"/><polyline points="-0.20924283765347884,0.42158989123480484
-0.20924283765347884,0.3915898912348048"/><polyline points="-7.693348073575756e-2,0.42158989123480484
-7.693348073575756e-2,0.3915898912348048"/><polyline points="5.53758761819636e-2,0.42158989123480484
5.53758761819636e-2,0.3915898912348048"/><polyline points="0.187685233099685,0.42158989123480484
0.187685233099685,0.3915898912348048"/><polyline points="0.31999459001740616,0.42158989123480484
0.31999459001740616,0.3915898912348048"/><polyline points="0.45230394693512754,0.42158989123480484
0.45230394693512754,0.3915898912348048"/><polyline points="0.5846133038528487,0.42158989123480484
0.5846133038528487,0.3915898912348048"/><polyline points="0.7169226607705699,0.42158989123480484
0.7169226607705699,0.3915898912348048"/></g><g stroke-opacity="0.0" fill="#0d0d0d" stroke="#000000" stroke-width="0.0" fill-opacity="0.4"><rect width="1.3266218186950183" x="-0.6079350331655455" y="0.38867562380038384" height="3.412241416080153e-3"/></g><g stroke-opacity="0.0" fill="#ffffff" stroke="#000000" stroke-width="0.0" fill-opacity="2.0e-2"><rect width="1.3230935691772123" x="-0.6061709084066425" y="-0.4729153337598635" height="0.8530603540200469"/></g><g></g></svg>