<svg width="445.7301873000243" xmlns:xlink="http://www.w3.org/1999/xlink" xmlns="http://www.w3.org/2000/svg" viewBox="-0.7882956179925814 -0.5285694049054729 1.5651564747397995 1.0534331212031738" height="300.0"><style>svg {
  color-scheme: light dark;
}
@media (prefers-color-scheme:dark) {
  svg {
    background-color: #f0f0f0;
  }
}</style><g stroke-opacity="0.0" fill="#0d0d0d" stroke="#000000" stroke-width="0.0" fill-opacity="2.0e-2"><rect width="1.331672944167018" x="-0.6123120874198" y="-0.47472543378244125" height="0.8555881984116149"/></g><g stroke-opacity="5.0e-2" fill="none" stroke="#0d0d0d" stroke-width="5.0e-3"><polyline points="-0.6123120874198,0.3808627646291737
0.7193608567472181,0.3808627646291737"/><polyline points="-0.6123120874198,0.29530394478801214
0.7193608567472181,0.29530394478801214"/><polyline points="-0.6123120874198,0.20974512494685066
0.7193608567472181,0.20974512494685066"/><polyline points="-0.6123120874198,0.12418630510568918
0.7193608567472181,0.12418630510568918"/><polyline points="-0.6123120874198,3.8627485264527694e-2
0.7193608567472181,3.8627485264527694e-2"/><polyline points="-0.6123120874198,-4.693133457663379e-2
0.7193608567472181,-4.693133457663379e-2"/><polyline points="-0.6123120874198,-0.13249015441779544
0.7193608567472181,-0.13249015441779544"/><polyline points="-0.6123120874198,-0.21804897425895686
0.7193608567472181,-0.21804897425895686"/><polyline points="-0.6123120874198,-0.3036077941001184
0.7193608567472181,-0.3036077941001184"/><polyline points="-0.6123120874198,-0.38916661394127994
0.7193608567472181,-0.38916661394127994"/><polyline points="-0.6123120874198,-0.47472543378244125
0.7193608567472181,-0.47472543378244125"/></g><g fill="#0d0d0d" stroke="none" stroke-width="0.0" font-size="5.0e-2" fill-opacity="1.0" text-anchor="end"><text x="-0.6682956179925814" y="0.393268793506142">-0.5</text><text x="-0.6682956179925814" y="0.3077099736649806">-0.4</text><text x="-0.6682956179925814" y="0.22215115382381906">-0.3</text><text x="-0.6682956179925814" y="0.13659233398265758">-0.2</text><text x="-0.6682956179925814" y="5.103351414149604e-2">-0.1</text><text x="-0.6682956179925814" y="-3.45253056996655e-2">0</text><text x="-0.6682956179925814" y="-0.12008412554082704">0.1</text><text x="-0.6682956179925814" y="-0.20564294538198846">0.2</text><text x="-0.6682956179925814" y="-0.2912017652231499">0.3</text><text x="-0.6682956179925814" y="-0.3767605850643114">0.4</text><text x="-0.6682956179925814" y="-0.46231940490547285">0.5</text></g><g stroke-opacity="0.4" fill="#0d0d0d" stroke="#0d0d0d" stroke-width="4.0e-3" fill-opacity="0.4"><g transform="rotate(-90.0, -0.6398333282659184, 0.3808627646291737)"><polyline points="-0.6398333282659184,0.3958627646291737
-0.6398333282659184,0.36586276462917366"/></g><g transform="rotate(-90.0, -0.6398333282659184, 0.29530394478801214)"><polyline points="-0.6398333282659184,0.31030394478801215
-0.6398333282659184,0.2803039447880121"/></g><g transform="rotate(-90.0, -0.6398333282659184, 0.20974512494685066)"><polyline points="-0.6398333282659184,0.22474512494685067
-0.6398333282659184,0.19474512494685065"/></g><g transform="rotate(-90.0, -0.6398333282659184, 0.12418630510568918)"><polyline points="-0.6398333282659184,0.1391863051056892
-0.6398333282659184,0.10918630510568918"/></g><g transform="rotate(-90.0, -0.6398333282659184, 3.8627485264527694e-2)"><polyline points="-0.6398333282659184,5.3627485264527694e-2
-0.6398333282659184,2.3627485264527695e-2"/></g><g transform="rotate(-90.0, -0.6398333282659184, -4.693133457663379e-2)"><polyline points="-0.6398333282659184,-3.193133457663379e-2
-0.6398333282659184,-6.193133457663379e-2"/></g><g transform="rotate(-90.0, -0.6398333282659184, -0.13249015441779544)"><polyline points="-0.6398333282659184,-0.11749015441779544
-0.6398333282659184,-0.14749015441779545"/></g><g transform="rotate(-90.0, -0.6398333282659184, -0.21804897425895686)"><polyline points="-0.6398333282659184,-0.20304897425895685
-0.6398333282659184,-0.23304897425895688"/></g><g transform="rotate(-90.0, -0.6398333282659184, -0.3036077941001184)"><polyline points="-0.6398333282659184,-0.2886077941001184
-0.6398333282659184,-0.3186077941001184"/></g><g transform="rotate(-90.0, -0.6398333282659184, -0.38916661394127994)"><polyline points="-0.6398333282659184,-0.3741666139412799
-0.6398333282659184,-0.40416661394127995"/></g><g transform="rotate(-90.0, -0.6398333282659184, -0.47472543378244125)"><polyline points="-0.6398333282659184,-0.45972543378244124
-0.6398333282659184,-0.48972543378244127"/></g></g><g stroke-opacity="0.0" fill="#0d0d0d" stroke="#000000" stroke-width="0.0" fill-opacity="0.4"><rect width="3.5511278511120015e-3" x="-0.6247410348986921" y="-0.47643661017926453" height="0.8590105512052615"/></g><g stroke-opacity="5.0e-2" fill="none" stroke="#0d0d0d" stroke-width="5.0e-3"><polyline points="-0.6123120874198,0.3808627646291737
-0.6123120874198,-0.47472543378244125"/><polyline points="-0.4791447930030983,0.3808627646291737
-0.4791447930030983,-0.47472543378244125"/><polyline points="-0.3459774985863963,0.3808627646291737
-0.3459774985863963,-0.47472543378244125"/><polyline points="-0.21281020416969465,0.3808627646291737
-0.21281020416969465,-0.47472543378244125"/><polyline points="-7.964290975299282e-2,0.3808627646291737
-7.964290975299282e-2,-0.47472543378244125"/><polyline points="5.352438466370901e-2,0.3808627646291737
5.352438466370901e-2,-0.47472543378244125"/><polyline points="0.18669167908041095,0.3808627646291737
0.18669167908041095,-0.47472543378244125"/><polyline points="0.31985897349711223,0.3808627646291737
0.31985897349711223,-0.47472543378244125"/><polyline points="0.4530262679138146,0.3808627646291737
0.4530262679138146,-0.47472543378244125"/><polyline points="0.5861935623305161,0.3808627646291737
0.5861935623305161,-0.47472543378244125"/><polyline points="0.7193608567472181,0.3808627646291737
0.7193608567472181,-0.47472543378244125"/></g><g fill="#0d0d0d" stroke="none" stroke-width="0.0" font-size="5.0e-2" fill-opacity="1.0" text-anchor="middle"><text x="-0.6123120874198" y="0.4786137162977007">-0.5</text><text x="-0.4791447930030983" y="0.4786137162977007">-0.4</text><text x="-0.3459774985863963" y="0.4786137162977007">-0.3</text><text x="-0.21281020416969465" y="0.4786137162977007">-0.2</text><text x="-7.964290975299282e-2" y="0.4786137162977007">-0.1</text><text x="5.352438466370901e-2" y="0.4786137162977007">0</text><text x="0.18669167908041095" y="0.4786137162977007">0.1</text><text x="0.31985897349711223" y="0.4786137162977007">0.2</text><text x="0.4530262679138146" y="0.4786137162977007">0.3</text><text x="0.5861935623305161" y="0.4786137162977007">0.4</text><text x="0.7193608567472181" y="0.4786137162977007">0.5</text></g><g stroke-opacity="0.4" fill="#0d0d0d" stroke="#0d0d0d" stroke-width="4.0e-3" fill-opacity="0.4"><polyline points="-0.6123120874198,0.42238599877993377
-0.6123120874198,0.39238599877993374"/><polyline points="-0.4791447930030983,0.42238599877993377
-0.4791447930030983,0.39238599877993374"/><polyline points="-0.3459774985863963,0.42238599877993377
-0.3459774985863963,0.39238599877993374"/><polyline points="-0.21281020416969465,0.42238599877993377
-0.21281020416969465,0.39238599877993374"/><polyline points="-7.964290975299282e-2,0.42238599877993377
-7.964290975299282e-2,0.39238599877993374"/><polyline points="5.352438466370901e-2,0.42238599877993377
5.352438466370901e-2,0.39238599877993374"/><polyline points="0.18669167908041095,0.42238599877993377
0.18669167908041095,0.39238599877993374"/><polyline points="0.31985897349711223,0.42238599877993377
0.31985897349711223,0.39238599877993374"/><polyline points="0.4530262679138146,0.42238599877993377
0.4530262679138146,0.39238599877993374"/><polyline points="0.5861935623305161,0.42238599877993377
0.5861935623305161,0.39238599877993374"/><polyline points="0.7193608567472181,0.42238599877993377
0.7193608567472181,0.39238599877993374"/></g><g stroke-opacity="0.0" fill="#0d0d0d" stroke="#000000" stroke-width="0.0" fill-opacity="0.4"><rect width="1.3352240720181299" x="-0.614087651345356" y="0.3894186466132898" height="3.4223527936464437e-3"/></g><g></g><g></g></svg>