<svg xmlns="http://www.w3.org/2000/svg" height="300.0" viewBox="-0.87 -0.5531722096956032 1.6775 1.0994222096956032" width="457.74043453182077" xmlns:xlink="http://www.w3.org/1999/xlink"><g stroke-opacity="0.0" fill-opacity="5.0e-2" stroke="#000000" stroke-width="0.0" fill="#0d0d0d"><rect height="0.9019165727170236" width="1.4445949676731749" x="-0.6945949676731749" y="-0.5"/></g><g stroke-opacity="5.0e-2" stroke="#0d0d0d" stroke-width="5.0e-3" fill="none"><polyline points="-0.6945949676731749,0.40191657271702363
0.75,0.40191657271702363"/></g><g stroke-opacity="5.0e-2" stroke="#0d0d0d" stroke-width="5.0e-3" fill="none"><polyline points="-0.6945949676731749,0.3117249154453213
0.75,0.3117249154453213"/></g><g stroke-opacity="5.0e-2" stroke="#0d0d0d" stroke-width="5.0e-3" fill="none"><polyline points="-0.6945949676731749,0.2215332581736189
0.75,0.2215332581736189"/></g><g stroke-opacity="5.0e-2" stroke="#0d0d0d" stroke-width="5.0e-3" fill="none"><polyline points="-0.6945949676731749,0.13134160090191654
0.75,0.13134160090191654"/></g><g stroke-opacity="5.0e-2" stroke="#0d0d0d" stroke-width="5.0e-3" fill="none"><polyline points="-0.6945949676731749,4.114994363021418e-2
0.75,4.114994363021418e-2"/></g><g stroke-opacity="5.0e-2" stroke="#0d0d0d" stroke-width="5.0e-3" fill="none"><polyline points="-0.6945949676731749,-4.904171364148813e-2
0.75,-4.904171364148813e-2"/></g><g stroke-opacity="5.0e-2" stroke="#0d0d0d" stroke-width="5.0e-3" fill="none"><polyline points="-0.6945949676731749,-0.13923337091319066
0.75,-0.13923337091319066"/></g><g stroke-opacity="5.0e-2" stroke="#0d0d0d" stroke-width="5.0e-3" fill="none"><polyline points="-0.6945949676731749,-0.22942502818489297
0.75,-0.22942502818489297"/></g><g stroke-opacity="5.0e-2" stroke="#0d0d0d" stroke-width="5.0e-3" fill="none"><polyline points="-0.6945949676731749,-0.3196166854565953
0.75,-0.3196166854565953"/></g><g stroke-opacity="5.0e-2" stroke="#0d0d0d" stroke-width="5.0e-3" fill="none"><polyline points="-0.6945949676731749,-0.4098083427282976
0.75,-0.4098083427282976"/></g><g stroke-opacity="5.0e-2" stroke="#0d0d0d" stroke-width="5.0e-3" fill="none"><polyline points="-0.6945949676731749,-0.5
0.75,-0.5"/></g><g fill-opacity="1.0" font-size="5.0e-2" stroke="none" stroke-width="0.0" fill="#0d0d0d" text-anchor="end"><text x="-0.75" y="0.41499436302142045">-0.5</text></g><g fill-opacity="1.0" font-size="5.0e-2" stroke="none" stroke-width="0.0" fill="#0d0d0d" text-anchor="end"><text x="-0.75" y="0.3248027057497182">-0.4</text></g><g fill-opacity="1.0" font-size="5.0e-2" stroke="none" stroke-width="0.0" fill="#0d0d0d" text-anchor="end"><text x="-0.75" y="0.23461104847801584">-0.3</text></g><g fill-opacity="1.0" font-size="5.0e-2" stroke="none" stroke-width="0.0" fill="#0d0d0d" text-anchor="end"><text x="-0.75" y="0.14441939120631336">-0.2</text></g><g fill-opacity="1.0" font-size="5.0e-2" stroke="none" stroke-width="0.0" fill="#0d0d0d" text-anchor="end"><text x="-0.75" y="5.4227733934611055e-2">-0.1</text></g><g fill-opacity="1.0" font-size="5.0e-2" stroke="none" stroke-width="0.0" fill="#0d0d0d" text-anchor="end"><text x="-0.75" y="-3.596392333709142e-2">0</text></g><g fill-opacity="1.0" font-size="5.0e-2" stroke="none" stroke-width="0.0" fill="#0d0d0d" text-anchor="end"><text x="-0.75" y="-0.12615558060879384">0.1</text></g><g fill-opacity="1.0" font-size="5.0e-2" stroke="none" stroke-width="0.0" fill="#0d0d0d" text-anchor="end"><text x="-0.75" y="-0.21634723788049615">0.2</text></g><g fill-opacity="1.0" font-size="5.0e-2" stroke="none" stroke-width="0.0" fill="#0d0d0d" text-anchor="end"><text x="-0.75" y="-0.30653889515219834">0.3</text></g><g fill-opacity="1.0" font-size="5.0e-2" stroke="none" stroke-width="0.0" fill="#0d0d0d" text-anchor="end"><text x="-0.75" y="-0.3967305524239009">0.4</text></g><g fill-opacity="1.0" font-size="5.0e-2" stroke="none" stroke-width="0.0" fill="#0d0d0d" text-anchor="end"><text x="-0.75" y="-0.4869222096956032">0.5</text></g><g stroke-opacity="0.4" fill-opacity="0.4" stroke="#0d0d0d" stroke-width="2.0e-3" fill="#0d0d0d"><g transform="rotate(-90.0, -0.7201161454354009, 0.40191657271702363)"><polyline points="-0.7201161454354009,0.41691657271702365
-0.7201161454354009,0.3869165727170236"/></g><g transform="rotate(-90.0, -0.7201161454354009, 0.3117249154453213)"><polyline points="-0.7201161454354009,0.32672491544532134
-0.7201161454354009,0.2967249154453213"/></g><g transform="rotate(-90.0, -0.7201161454354009, 0.2215332581736189)"><polyline points="-0.7201161454354009,0.23653325817361892
-0.7201161454354009,0.2065332581736189"/></g><g transform="rotate(-90.0, -0.7201161454354009, 0.13134160090191654)"><polyline points="-0.7201161454354009,0.14634160090191656
-0.7201161454354009,0.11634160090191654"/></g><g transform="rotate(-90.0, -0.7201161454354009, 4.114994363021418e-2)"><polyline points="-0.7201161454354009,5.614994363021418e-2
-0.7201161454354009,2.614994363021418e-2"/></g><g transform="rotate(-90.0, -0.7201161454354009, -4.904171364148813e-2)"><polyline points="-0.7201161454354009,-3.404171364148813e-2
-0.7201161454354009,-6.404171364148813e-2"/></g><g transform="rotate(-90.0, -0.7201161454354009, -0.13923337091319066)"><polyline points="-0.7201161454354009,-0.12423337091319066
-0.7201161454354009,-0.15423337091319067"/></g><g transform="rotate(-90.0, -0.7201161454354009, -0.22942502818489297)"><polyline points="-0.7201161454354009,-0.21442502818489295
-0.7201161454354009,-0.24442502818489298"/></g><g transform="rotate(-90.0, -0.7201161454354009, -0.3196166854565953)"><polyline points="-0.7201161454354009,-0.30461668545659526
-0.7201161454354009,-0.3346166854565953"/></g><g transform="rotate(-90.0, -0.7201161454354009, -0.4098083427282976)"><polyline points="-0.7201161454354009,-0.39480834272829757
-0.7201161454354009,-0.4248083427282976"/></g><g transform="rotate(-90.0, -0.7201161454354009, -0.5)"><polyline points="-0.7201161454354009,-0.485
-0.7201161454354009,-0.515"/></g></g><g stroke-opacity="0.0" fill-opacity="0.4" stroke="#000000" stroke-width="0.0" fill="#0d0d0d"><rect height="0.9019165727170236" width="3.8522532471284565e-3" x="-0.7080778540381245" y="-0.5"/></g><g stroke-opacity="5.0e-2" stroke="#0d0d0d" stroke-width="5.0e-3" fill="none"><polyline points="-0.6945949676731749,0.40191657271702363
-0.6945949676731749,-0.5"/></g><g stroke-opacity="5.0e-2" stroke="#0d0d0d" stroke-width="5.0e-3" fill="none"><polyline points="-0.5501354709058575,0.40191657271702363
-0.5501354709058575,-0.5"/></g><g stroke-opacity="5.0e-2" stroke="#0d0d0d" stroke-width="5.0e-3" fill="none"><polyline points="-0.40567597413853984,0.40191657271702363
-0.40567597413853984,-0.5"/></g><g stroke-opacity="5.0e-2" stroke="#0d0d0d" stroke-width="5.0e-3" fill="none"><polyline points="-0.2612164773712222,0.40191657271702363
-0.2612164773712222,-0.5"/></g><g stroke-opacity="5.0e-2" stroke="#0d0d0d" stroke-width="5.0e-3" fill="none"><polyline points="-0.11675698060390471,0.40191657271702363
-0.11675698060390471,-0.5"/></g><g stroke-opacity="5.0e-2" stroke="#0d0d0d" stroke-width="5.0e-3" fill="none"><polyline points="2.770251616341257e-2,0.40191657271702363
2.770251616341257e-2,-0.5"/></g><g stroke-opacity="5.0e-2" stroke="#0d0d0d" stroke-width="5.0e-3" fill="none"><polyline points="0.1721620129307302,0.40191657271702363
0.1721620129307302,-0.5"/></g><g stroke-opacity="5.0e-2" stroke="#0d0d0d" stroke-width="5.0e-3" fill="none"><polyline points="0.3166215096980478,0.40191657271702363
0.3166215096980478,-0.5"/></g><g stroke-opacity="5.0e-2" stroke="#0d0d0d" stroke-width="5.0e-3" fill="none"><polyline points="0.4610810064653652,0.40191657271702363
0.4610810064653652,-0.5"/></g><g stroke-opacity="5.0e-2" stroke="#0d0d0d" stroke-width="5.0e-3" fill="none"><polyline points="0.6055405032326826,0.40191657271702363
0.6055405032326826,-0.5"/></g><g stroke-opacity="5.0e-2" stroke="#0d0d0d" stroke-width="5.0e-3" fill="none"><polyline points="0.75,0.40191657271702363
0.75,-0.5"/></g><g fill-opacity="1.0" font-size="5.0e-2" stroke="none" stroke-width="0.0" fill="#0d0d0d" text-anchor="middle"><text x="-0.6945949676731749" y="0.5">-0.5</text></g><g fill-opacity="1.0" font-size="5.0e-2" stroke="none" stroke-width="0.0" fill="#0d0d0d" text-anchor="middle"><text x="-0.5501354709058575" y="0.5">-0.4</text></g><g fill-opacity="1.0" font-size="5.0e-2" stroke="none" stroke-width="0.0" fill="#0d0d0d" text-anchor="middle"><text x="-0.40567597413853984" y="0.5">-0.3</text></g><g fill-opacity="1.0" font-size="5.0e-2" stroke="none" stroke-width="0.0" fill="#0d0d0d" text-anchor="middle"><text x="-0.2612164773712222" y="0.5">-0.2</text></g><g fill-opacity="1.0" font-size="5.0e-2" stroke="none" stroke-width="0.0" fill="#0d0d0d" text-anchor="middle"><text x="-0.11675698060390471" y="0.5">-0.1</text></g><g fill-opacity="1.0" font-size="5.0e-2" stroke="none" stroke-width="0.0" fill="#0d0d0d" text-anchor="middle"><text x="2.770251616341257e-2" y="0.5">0</text></g><g fill-opacity="1.0" font-size="5.0e-2" stroke="none" stroke-width="0.0" fill="#0d0d0d" text-anchor="middle"><text x="0.1721620129307302" y="0.5">0.1</text></g><g fill-opacity="1.0" font-size="5.0e-2" stroke="none" stroke-width="0.0" fill="#0d0d0d" text-anchor="middle"><text x="0.3166215096980478" y="0.5">0.2</text></g><g fill-opacity="1.0" font-size="5.0e-2" stroke="none" stroke-width="0.0" fill="#0d0d0d" text-anchor="middle"><text x="0.4610810064653652" y="0.5">0.3</text></g><g fill-opacity="1.0" font-size="5.0e-2" stroke="none" stroke-width="0.0" fill="#0d0d0d" text-anchor="middle"><text x="0.6055405032326826" y="0.5">0.4</text></g><g fill-opacity="1.0" font-size="5.0e-2" stroke="none" stroke-width="0.0" fill="#0d0d0d" text-anchor="middle"><text x="0.75" y="0.5">0.5</text></g><g stroke-opacity="0.4" fill-opacity="0.4" stroke="#0d0d0d" stroke-width="2.0e-3" fill="#0d0d0d"><polyline points="-0.6945949676731749,0.44081736189402476
-0.6945949676731749,0.41081736189402474"/><polyline points="-0.5501354709058575,0.44081736189402476
-0.5501354709058575,0.41081736189402474"/><polyline points="-0.40567597413853984,0.44081736189402476
-0.40567597413853984,0.41081736189402474"/><polyline points="-0.2612164773712222,0.44081736189402476
-0.2612164773712222,0.41081736189402474"/><polyline points="-0.11675698060390471,0.44081736189402476
-0.11675698060390471,0.41081736189402474"/><polyline points="2.770251616341257e-2,0.44081736189402476
2.770251616341257e-2,0.41081736189402474"/><polyline points="0.1721620129307302,0.44081736189402476
0.1721620129307302,0.41081736189402474"/><polyline points="0.3166215096980478,0.44081736189402476
0.3166215096980478,0.41081736189402474"/><polyline points="0.4610810064653652,0.44081736189402476
0.4610810064653652,0.41081736189402474"/><polyline points="0.6055405032326826,0.44081736189402476
0.6055405032326826,0.41081736189402474"/><polyline points="0.75,0.44081736189402476
0.75,0.41081736189402474"/></g><g stroke-opacity="0.0" fill-opacity="0.4" stroke="#000000" stroke-width="0.0" fill="#0d0d0d"><rect height="3.6076662908680612e-3" width="1.4445949676731749" x="-0.6945949676731749" y="0.41093573844419395"/></g><g></g><g></g></svg>