<svg xmlns="http://www.w3.org/2000/svg" height="300.0" viewBox="-0.87 -0.5532016310461192 1.6775 1.099451631046119" width="457.72818538743877" xmlns:xlink="http://www.w3.org/1999/xlink"><g stroke-opacity="0.0" fill-opacity="2.5e-2" stroke="#000000" stroke-width="0.0" fill="#808080"><rect height="0.8998875140607424" width="1.442238353925292" x="-0.6922383539252921" y="-0.5"/></g><g stroke-opacity="5.0e-2" stroke="#808080" stroke-width="5.0e-3" fill="none"><polyline points="-0.6922383539252921,0.3998875140607424
0.75,0.3998875140607424"/></g><g stroke-opacity="5.0e-2" stroke="#808080" stroke-width="5.0e-3" fill="none"><polyline points="-0.6922383539252921,0.3098987626546682
0.75,0.3098987626546682"/></g><g stroke-opacity="5.0e-2" stroke="#808080" stroke-width="5.0e-3" fill="none"><polyline points="-0.6922383539252921,0.21991001124859388
0.75,0.21991001124859388"/></g><g stroke-opacity="5.0e-2" stroke="#808080" stroke-width="5.0e-3" fill="none"><polyline points="-0.6922383539252921,0.12992125984251962
0.75,0.12992125984251962"/></g><g stroke-opacity="5.0e-2" stroke="#808080" stroke-width="5.0e-3" fill="none"><polyline points="-0.6922383539252921,3.993250843644536e-2
0.75,3.993250843644536e-2"/></g><g stroke-opacity="5.0e-2" stroke="#808080" stroke-width="5.0e-3" fill="none"><polyline points="-0.6922383539252921,-5.005624296962885e-2
0.75,-5.005624296962885e-2"/></g><g stroke-opacity="5.0e-2" stroke="#808080" stroke-width="5.0e-3" fill="none"><polyline points="-0.6922383539252921,-0.14004499437570317
0.75,-0.14004499437570317"/></g><g stroke-opacity="5.0e-2" stroke="#808080" stroke-width="5.0e-3" fill="none"><polyline points="-0.6922383539252921,-0.23003374578177738
0.75,-0.23003374578177738"/></g><g stroke-opacity="5.0e-2" stroke="#808080" stroke-width="5.0e-3" fill="none"><polyline points="-0.6922383539252921,-0.3200224971878517
0.75,-0.3200224971878517"/></g><g stroke-opacity="5.0e-2" stroke="#808080" stroke-width="5.0e-3" fill="none"><polyline points="-0.6922383539252921,-0.4100112485939259
0.75,-0.4100112485939259"/></g><g stroke-opacity="5.0e-2" stroke="#808080" stroke-width="5.0e-3" fill="none"><polyline points="-0.6922383539252921,-0.5
0.75,-0.5"/></g><g fill-opacity="1.0" font-size="5.0e-2" stroke="none" stroke-width="0.0" fill="#808080" text-anchor="end"><text x="-0.75" y="0.4129358830146232">-0.5</text></g><g fill-opacity="1.0" font-size="5.0e-2" stroke="none" stroke-width="0.0" fill="#808080" text-anchor="end"><text x="-0.75" y="0.32294713160854893">-0.4</text></g><g fill-opacity="1.0" font-size="5.0e-2" stroke="none" stroke-width="0.0" fill="#808080" text-anchor="end"><text x="-0.75" y="0.23295838020247472">-0.3</text></g><g fill-opacity="1.0" font-size="5.0e-2" stroke="none" stroke-width="0.0" fill="#808080" text-anchor="end"><text x="-0.75" y="0.1429696287964004">-0.2</text></g><g fill-opacity="1.0" font-size="5.0e-2" stroke="none" stroke-width="0.0" fill="#808080" text-anchor="end"><text x="-0.75" y="5.298087739032625e-2">-0.1</text></g><g fill-opacity="1.0" font-size="5.0e-2" stroke="none" stroke-width="0.0" fill="#808080" text-anchor="end"><text x="-0.75" y="-3.700787401574812e-2">0</text></g><g fill-opacity="1.0" font-size="5.0e-2" stroke="none" stroke-width="0.0" fill="#808080" text-anchor="end"><text x="-0.75" y="-0.12699662542182244">0.1</text></g><g fill-opacity="1.0" font-size="5.0e-2" stroke="none" stroke-width="0.0" fill="#808080" text-anchor="end"><text x="-0.75" y="-0.21698537682789665">0.2</text></g><g fill-opacity="1.0" font-size="5.0e-2" stroke="none" stroke-width="0.0" fill="#808080" text-anchor="end"><text x="-0.75" y="-0.30697412823397086">0.3</text></g><g fill-opacity="1.0" font-size="5.0e-2" stroke="none" stroke-width="0.0" fill="#808080" text-anchor="end"><text x="-0.75" y="-0.3969628796400453">0.4</text></g><g fill-opacity="1.0" font-size="5.0e-2" stroke="none" stroke-width="0.0" fill="#808080" text-anchor="end"><text x="-0.75" y="-0.48695163104611916">0.5</text></g><g stroke-opacity="1.0" fill-opacity="1.0" stroke="#808080" stroke-width="5.0e-3" fill="#808080"><g transform="rotate(-90.0, -0.7186793904139224, 0.3998875140607424)"><polyline points="-0.7186793904139224,0.4148875140607424
-0.7186793904139224,0.3848875140607424"/></g><g transform="rotate(-90.0, -0.7186793904139224, 0.3098987626546682)"><polyline points="-0.7186793904139224,0.3248987626546682
-0.7186793904139224,0.2948987626546682"/></g><g transform="rotate(-90.0, -0.7186793904139224, 0.21991001124859388)"><polyline points="-0.7186793904139224,0.2349100112485939
-0.7186793904139224,0.20491001124859387"/></g><g transform="rotate(-90.0, -0.7186793904139224, 0.12992125984251962)"><polyline points="-0.7186793904139224,0.14492125984251963
-0.7186793904139224,0.11492125984251962"/></g><g transform="rotate(-90.0, -0.7186793904139224, 3.993250843644536e-2)"><polyline points="-0.7186793904139224,5.493250843644536e-2
-0.7186793904139224,2.4932508436445358e-2"/></g><g transform="rotate(-90.0, -0.7186793904139224, -5.005624296962885e-2)"><polyline points="-0.7186793904139224,-3.505624296962885e-2
-0.7186793904139224,-6.505624296962885e-2"/></g><g transform="rotate(-90.0, -0.7186793904139224, -0.14004499437570317)"><polyline points="-0.7186793904139224,-0.12504499437570316
-0.7186793904139224,-0.15504499437570318"/></g><g transform="rotate(-90.0, -0.7186793904139224, -0.23003374578177738)"><polyline points="-0.7186793904139224,-0.21503374578177736
-0.7186793904139224,-0.2450337457817774"/></g><g transform="rotate(-90.0, -0.7186793904139224, -0.3200224971878517)"><polyline points="-0.7186793904139224,-0.3050224971878517
-0.7186793904139224,-0.3350224971878517"/></g><g transform="rotate(-90.0, -0.7186793904139224, -0.4100112485939259)"><polyline points="-0.7186793904139224,-0.3950112485939259
-0.7186793904139224,-0.4250112485939259"/></g><g transform="rotate(-90.0, -0.7186793904139224, -0.5)"><polyline points="-0.7186793904139224,-0.485
-0.7186793904139224,-0.515"/></g></g><g stroke-opacity="1.0" fill-opacity="1.0" stroke="#808080" stroke-width="0.0" fill="#808080"><rect height="0.8998875140607424" width="4.80746117975106e-3" x="-0.706660737464545" y="-0.5"/></g><g stroke-opacity="5.0e-2" stroke="#808080" stroke-width="5.0e-3" fill="none"><polyline points="-0.6922383539252921,0.3998875140607424
-0.6922383539252921,-0.5"/></g><g stroke-opacity="5.0e-2" stroke="#808080" stroke-width="5.0e-3" fill="none"><polyline points="-0.5480145185327628,0.3998875140607424
-0.5480145185327628,-0.5"/></g><g stroke-opacity="5.0e-2" stroke="#808080" stroke-width="5.0e-3" fill="none"><polyline points="-0.4037906831402336,0.3998875140607424
-0.4037906831402336,-0.5"/></g><g stroke-opacity="5.0e-2" stroke="#808080" stroke-width="5.0e-3" fill="none"><polyline points="-0.2595668477477042,0.3998875140607424
-0.2595668477477042,-0.5"/></g><g stroke-opacity="5.0e-2" stroke="#808080" stroke-width="5.0e-3" fill="none"><polyline points="-0.11534301235517508,0.3998875140607424
-0.11534301235517508,-0.5"/></g><g stroke-opacity="5.0e-2" stroke="#808080" stroke-width="5.0e-3" fill="none"><polyline points="2.8880823037353953e-2,0.3998875140607424
2.8880823037353953e-2,-0.5"/></g><g stroke-opacity="5.0e-2" stroke="#808080" stroke-width="5.0e-3" fill="none"><polyline points="0.17310465842988365,0.3998875140607424
0.17310465842988365,-0.5"/></g><g stroke-opacity="5.0e-2" stroke="#808080" stroke-width="5.0e-3" fill="none"><polyline points="0.3173284938224128,0.3998875140607424
0.3173284938224128,-0.5"/></g><g stroke-opacity="5.0e-2" stroke="#808080" stroke-width="5.0e-3" fill="none"><polyline points="0.4615523292149417,0.3998875140607424
0.4615523292149417,-0.5"/></g><g stroke-opacity="5.0e-2" stroke="#808080" stroke-width="5.0e-3" fill="none"><polyline points="0.6057761646074709,0.3998875140607424
0.6057761646074709,-0.5"/></g><g stroke-opacity="5.0e-2" stroke="#808080" stroke-width="5.0e-3" fill="none"><polyline points="0.75,0.3998875140607424
0.75,-0.5"/></g><g fill-opacity="1.0" font-size="5.0e-2" stroke="none" stroke-width="0.0" fill="#808080" text-anchor="middle"><text x="-0.6922383539252921" y="0.5">-0.5</text></g><g fill-opacity="1.0" font-size="5.0e-2" stroke="none" stroke-width="0.0" fill="#808080" text-anchor="middle"><text x="-0.5480145185327628" y="0.5">-0.4</text></g><g fill-opacity="1.0" font-size="5.0e-2" stroke="none" stroke-width="0.0" fill="#808080" text-anchor="middle"><text x="-0.4037906831402336" y="0.5">-0.3</text></g><g fill-opacity="1.0" font-size="5.0e-2" stroke="none" stroke-width="0.0" fill="#808080" text-anchor="middle"><text x="-0.2595668477477042" y="0.5">-0.2</text></g><g fill-opacity="1.0" font-size="5.0e-2" stroke="none" stroke-width="0.0" fill="#808080" text-anchor="middle"><text x="-0.11534301235517508" y="0.5">-0.1</text></g><g fill-opacity="1.0" font-size="5.0e-2" stroke="none" stroke-width="0.0" fill="#808080" text-anchor="middle"><text x="2.8880823037353953e-2" y="0.5">0</text></g><g fill-opacity="1.0" font-size="5.0e-2" stroke="none" stroke-width="0.0" fill="#808080" text-anchor="middle"><text x="0.17310465842988365" y="0.5">0.1</text></g><g fill-opacity="1.0" font-size="5.0e-2" stroke="none" stroke-width="0.0" fill="#808080" text-anchor="middle"><text x="0.3173284938224128" y="0.5">0.2</text></g><g fill-opacity="1.0" font-size="5.0e-2" stroke="none" stroke-width="0.0" fill="#808080" text-anchor="middle"><text x="0.4615523292149417" y="0.5">0.3</text></g><g fill-opacity="1.0" font-size="5.0e-2" stroke="none" stroke-width="0.0" fill="#808080" text-anchor="middle"><text x="0.6057761646074709" y="0.5">0.4</text></g><g fill-opacity="1.0" font-size="5.0e-2" stroke="none" stroke-width="0.0" fill="#808080" text-anchor="middle"><text x="0.75" y="0.5">0.5</text></g><g stroke-opacity="1.0" fill-opacity="1.0" stroke="#808080" stroke-width="5.0e-3" fill="#808080"><polyline points="-0.6922383539252921,0.4396344206974129
-0.6922383539252921,0.40963442069741285"/><polyline points="-0.5480145185327628,0.4396344206974129
-0.5480145185327628,0.40963442069741285"/><polyline points="-0.4037906831402336,0.4396344206974129
-0.4037906831402336,0.40963442069741285"/><polyline points="-0.2595668477477042,0.4396344206974129
-0.2595668477477042,0.40963442069741285"/><polyline points="-0.11534301235517508,0.4396344206974129
-0.11534301235517508,0.40963442069741285"/><polyline points="2.8880823037353953e-2,0.4396344206974129
2.8880823037353953e-2,0.40963442069741285"/><polyline points="0.17310465842988365,0.4396344206974129
0.17310465842988365,0.40963442069741285"/><polyline points="0.3173284938224128,0.4396344206974129
0.3173284938224128,0.40963442069741285"/><polyline points="0.4615523292149417,0.4396344206974129
0.4615523292149417,0.40963442069741285"/><polyline points="0.6057761646074709,0.4396344206974129
0.6057761646074709,0.40963442069741285"/><polyline points="0.75,0.4396344206974129
0.75,0.40963442069741285"/></g><g stroke-opacity="1.0" fill-opacity="1.0" stroke="#808080" stroke-width="0.0" fill="#808080"><rect height="4.499437570303744e-3" width="1.442238353925292" x="-0.6922383539252921" y="0.40888638920134984"/></g><g></g><g></g></svg>