<svg viewBox="-0.7854 -0.10710000000000001 1.5708 0.28930706201935447" xmlns="http://www.w3.org/2000/svg" xmlns:xlink="http://www.w3.org/1999/xlink" version="1.1" width="800.0" height="600.0"><g stroke-width="1.0e-2" stroke="#2C429D" fill="#D99721" fill-opacity="0.8" stroke-opacity="0.4"><circle cx="-0.665" r="0.1" /></g><g stroke-width="1.0e-2" stroke="#2C429D" fill="#D99721" fill-opacity="0.8" stroke-opacity="0.4"><rect width="0.20000000000000007" height="0.2" x="-0.5750000000000001" y="-0.1" /></g><g stroke-width="1.0e-2" stroke="#2C429D" fill="#D99721" fill-opacity="0.8" stroke-opacity="0.4"><rect width="0.19999999999999998" height="0.15000000000000002" x="-0.385" y="-7.500000000000001e-2" /></g><g stroke-width="1.0e-2" stroke="#2C429D" fill="#D99721" fill-opacity="0.8" stroke-opacity="0.4"><rect width="0.2" height="0.15000000000000002" x="-0.1950000000000001" y="-7.500000000000001e-2" rx="1.0e-2" ry="1.0e-2" /></g><g stroke-width="0.0" stroke="#2C429D" fill="#D99721" fill-opacity="0.8" stroke-opacity="0.4"><ellipse cx="9.499999999999997e-2" rx="0.1" ry="7.500000000000001e-2" /></g><g stroke-width="0.0" stroke="#2C429D" fill="#D99721" fill-opacity="0.8" stroke-opacity="0.4"><line stroke-width="2.0e-2" x1="0.2849999999999999" y1="0.1" x2="0.2849999999999999" y2="-0.1" /></g><g stroke-width="0.0" stroke="#2C429D" fill="#D99721" fill-opacity="0.8" stroke-opacity="0.4"><line stroke-width="2.0e-2" x1="0.3749999999999999" x2="0.5749999999999998" /></g><g stroke-width="1.0e-2" stroke="#2C429D" fill="#D99721" fill-opacity="0.8" stroke-opacity="0.4"><g transform="translate(0.5650000000000001, -0.1)"><circle fill="#FFFF00" cx="0.1" cy="0.1" r="0.1" /><ellipse fill="#FFFFFF" cx="6.999999999999999e-2" cy="6.0e-2" rx="1.0000000000000002e-2" ry="2.0000000000000004e-2" /><ellipse fill="#FFFFFF" cx="0.13" cy="6.0e-2" rx="1.0000000000000002e-2" ry="2.0000000000000004e-2" /><g><path stroke-width="6.0e-3" stroke="#000000" fill="none" transform="translate(3.6e-2, 0.13)" d="M0.0,0.0 A7.600000000000001e-2 8.000000000000002e-2 2.0000000000000004e-2 0 0 0.13,0.0" /></g></g></g><g /><g stroke-width="0.0" stroke="none" fill="#666666" fill-opacity="1.0" font-size="2.0000000000000004e-2" text-anchor="start"><text x="-0.15207620237351657" y="0.1721343745287789">blank</text></g><g /><g stroke-width="0.0" stroke="none" fill="#666666" fill-opacity="1.0" font-size="2.0000000000000004e-2" text-anchor="start"><text x="-0.15207620237351657" y="0.16421785939204714">line</text></g><g stroke-width="4.0e-3" stroke="#5DA5DA" fill="none" stroke-opacity="0.5"><polyline points="-3.419113054341061e-3,0.1629884711590488 6.653716427232972e-2,0.1629884711590488" /></g><g stroke-width="0.0" stroke="none" fill="#666666" fill-opacity="1.0" font-size="2.0000000000000004e-2" text-anchor="start"><text x="-0.15207620237351657" y="0.1563013442553154">text</text></g><g stroke-width="0.0" stroke="none" fill="#666666" fill-opacity="1.0" font-size="2.0000000000000004e-2" text-anchor="start"><text x="-3.419113054341061e-3" y="0.1563013442553154">content</text></g><g stroke-width="0.0" stroke="none" fill="#666666" fill-opacity="1.0" font-size="2.0000000000000004e-2" text-anchor="start"><text x="-0.15207620237351657" y="0.14838482911858364">rect</text></g><g stroke-width="1.0e-3" stroke="#666666" fill="#FF0000" fill-opacity="0.5" stroke-opacity="0.5"><rect width="3.497813866333538e-2" height="3.725418887873755e-3" x="-3.419113054341061e-3" y="0.14465941023070988" /></g><g stroke-width="0.0" stroke="none" fill="#666666" fill-opacity="1.0" font-size="2.0000000000000004e-2" text-anchor="start"><text x="-0.15207620237351657" y="0.1404683139818519">glyph</text></g><g stroke-width="3.0e-3" stroke="#2C429D" fill="#D99721" fill-opacity="0.8" stroke-opacity="0.4"><rect width="2.0000000000000004e-2" height="2.0000000000000018e-2" x="4.0699562773266265e-3" y="0.12923892574885354" /></g><g stroke-width="2.0e-3" stroke="#3764A0" fill="#000000" fill-opacity="0.0" stroke-opacity="1.0"><rect width="0.2765021861336665" height="3.78092762930308e-2" x="-0.15207620237351657" y="0.13556007459707822" /></g><g /></svg>