<svg width="424.7653323813642" xmlns:xlink="http://www.w3.org/1999/xlink" xmlns="http://www.w3.org/2000/svg" viewBox="-0.77 -0.5366865522154716 1.5399999999999998 1.087659384559203" height="300.0"><style>svg {
  color-scheme: light dark;
}
@media (prefers-color-scheme:dark) {
  svg {
    background-color: #f0f0f0;
  }
}</style><g stroke-opacity="0.0" fill="#ffffff" stroke="#000000" stroke-width="0.0" fill-opacity="2.0e-2"><rect width="1.2589173310952577" x="-0.5611624003357113" y="-0.47790396995015283" height="0.8417535257084671"/></g><g stroke-opacity="1.0" fill="#0d0d0d" stroke="#0d0d0d" stroke-width="3.0e-3" fill-opacity="0.0"><rect width="0.7100293747377256" x="3.052874527906002e-2" y="-0.3428867044265146" height="0.33333439618055294"/></g><g fill="#0d0d0d" stroke="none" stroke-width="0.0" font-size="6.042803189257239e-2" fill-opacity="1.0" text-anchor="start"><text x="6.829626521191767e-2" y="-4.6926164787417624e-2">abcdefghijklmnopqrst</text></g><g stroke-opacity="1.0" fill="#a6cfe3" stroke="#1f78b5" stroke-width="3.0e-3" fill-opacity="1.0"><rect width="4.800000000000004e-2" x="0.5805950482584976" y="-8.102720709591923e-2" height="4.7999999999999994e-2"/></g><g fill="#0d0d0d" stroke="none" stroke-width="0.0" font-size="6.042803189257239e-2" fill-opacity="1.0" text-anchor="start"><text x="6.829626521191767e-2" y="-0.10652231440757709">line</text></g><g stroke-opacity="1.0" fill="none" stroke="#0d0d0d" stroke-width="1.2e-2"><polyline points="0.5743810323122114,-0.11662335671607871
0.6952370960973564,-0.11662335671607871"/></g><g fill="#0d0d0d" stroke="none" stroke-width="0.0" font-size="6.042803189257239e-2" fill-opacity="1.0" text-anchor="start"><text x="6.829626521191767e-2" y="-0.16611846402773656">text</text></g><g fill="#0d0d0d" stroke="none" stroke-width="0.0" font-size="6.042803189257239e-2" fill-opacity="1.0" text-anchor="start"><text x="0.5743810323122114" y="-0.16611846402773656">text</text></g><g fill="#0d0d0d" stroke="none" stroke-width="0.0" font-size="6.042803189257239e-2" fill-opacity="1.0" text-anchor="start"><text x="6.829626521191767e-2" y="-0.22571461364789602">rect</text></g><g stroke-opacity="1.0" fill="#1f78b5" stroke="#a6cfe3" stroke-width="3.0e-3" fill-opacity="1.0"><rect width="6.042803189257251e-2" x="0.5743810323122114" y="-0.2560177405734009" height="4.040416923400647e-2"/></g><g fill="#0d0d0d" stroke="none" stroke-width="0.0" font-size="6.042803189257239e-2" fill-opacity="1.0" text-anchor="start"><text x="6.829626521191767e-2" y="-0.2853107632680555">glyph</text></g><g stroke-opacity="1.0" fill="#a6cfe3" stroke="#1f78b5" stroke-width="3.0e-3" fill-opacity="1.0"><rect width="4.800000000000004e-2" x="0.5805950482584976" y="-0.31941180557655713" height="4.800000000000004e-2"/></g><g stroke-opacity="0.0" fill="#0d0d0d" stroke="#000000" stroke-width="0.0" fill-opacity="0.4"><rect width="1.263953000419639" x="-0.5636802349979018" y="0.3722670910153989" height="3.3670141028339096e-3"/></g><g stroke-opacity="0.4" fill="#0d0d0d" stroke="#0d0d0d" stroke-width="4.0e-3" fill-opacity="0.4"><polyline points="-0.5611624003357113,0.4041021615295683
-0.5611624003357113,0.37410216152956827"/><polyline points="-0.4352706672261855,0.4041021615295683
-0.4352706672261855,0.37410216152956827"/><polyline points="-0.3093789341166597,0.4041021615295683
-0.3093789341166597,0.37410216152956827"/><polyline points="-0.18348720100713378,0.4041021615295683
-0.18348720100713378,0.37410216152956827"/><polyline points="-5.7595467897608055e-2,0.4041021615295683
-5.7595467897608055e-2,0.37410216152956827"/><polyline points="6.829626521191767e-2,0.4041021615295683
6.829626521191767e-2,0.37410216152956827"/><polyline points="0.19418799832144362,0.4041021615295683
0.19418799832144362,0.37410216152956827"/><polyline points="0.32007973143096935,0.4041021615295683
0.32007973143096935,0.37410216152956827"/><polyline points="0.4459714645404951,0.4041021615295683
0.4459714645404951,0.37410216152956827"/><polyline points="0.571863197650021,0.4041021615295683
0.571863197650021,0.37410216152956827"/><polyline points="0.6977549307595465,0.4041021615295683
0.6977549307595465,0.37410216152956827"/></g><g fill="#0d0d0d" stroke="none" stroke-width="0.0" font-size="6.29458665547629e-2" fill-opacity="1.0" text-anchor="end"><text x="-0.5611624003357113" y="0.4375029892578051" transform="rotate(-45.0, -0.5611624003357113, 0.4375029892578051)">-0.5</text><text x="-0.4352706672261855" y="0.4375029892578051" transform="rotate(-45.0, -0.4352706672261855, 0.4375029892578051)">-0.4</text><text x="-0.3093789341166597" y="0.4375029892578051" transform="rotate(-45.0, -0.3093789341166597, 0.4375029892578051)">-0.3</text><text x="-0.18348720100713378" y="0.4375029892578051" transform="rotate(-45.0, -0.18348720100713378, 0.4375029892578051)">-0.2</text><text x="-5.7595467897608055e-2" y="0.4375029892578051" transform="rotate(-45.0, -5.7595467897608055e-2, 0.4375029892578051)">-0.1</text><text x="6.829626521191767e-2" y="0.4375029892578051" transform="rotate(-45.0, 6.829626521191767e-2, 0.4375029892578051)">0</text><text x="0.19418799832144362" y="0.4375029892578051" transform="rotate(-45.0, 0.19418799832144362, 0.4375029892578051)">0.1</text><text x="0.32007973143096935" y="0.4375029892578051" transform="rotate(-45.0, 0.32007973143096935, 0.4375029892578051)">0.2</text><text x="0.4459714645404951" y="0.4375029892578051" transform="rotate(-45.0, 0.4459714645404951, 0.4375029892578051)">0.3</text><text x="0.571863197650021" y="0.4375029892578051" transform="rotate(-45.0, 0.571863197650021, 0.4375029892578051)">0.4</text><text x="0.6977549307595465" y="0.4375029892578051" transform="rotate(-45.0, 0.6977549307595465, 0.4375029892578051)">0.5</text></g><g stroke-opacity="5.0e-2" fill="none" stroke="#0d0d0d" stroke-width="5.0e-3"><polyline points="-0.5611624003357113,0.36384955575831424
-0.5611624003357113,-0.47790396995015283"/><polyline points="-0.4352706672261855,0.36384955575831424
-0.4352706672261855,-0.47790396995015283"/><polyline points="-0.3093789341166597,0.36384955575831424
-0.3093789341166597,-0.47790396995015283"/><polyline points="-0.18348720100713378,0.36384955575831424
-0.18348720100713378,-0.47790396995015283"/><polyline points="-5.7595467897608055e-2,0.36384955575831424
-5.7595467897608055e-2,-0.47790396995015283"/><polyline points="6.829626521191767e-2,0.36384955575831424
6.829626521191767e-2,-0.47790396995015283"/><polyline points="0.19418799832144362,0.36384955575831424
0.19418799832144362,-0.47790396995015283"/><polyline points="0.32007973143096935,0.36384955575831424
0.32007973143096935,-0.47790396995015283"/><polyline points="0.4459714645404951,0.36384955575831424
0.4459714645404951,-0.47790396995015283"/><polyline points="0.571863197650021,0.36384955575831424
0.571863197650021,-0.47790396995015283"/><polyline points="0.6977549307595465,0.36384955575831424
0.6977549307595465,-0.47790396995015283"/></g><g stroke-opacity="0.0" fill="#0d0d0d" stroke="#000000" stroke-width="0.0" fill-opacity="0.4"><rect width="5.035669324381042e-3" x="-0.5787872429710449" y="-0.47958747700156956" height="0.8451205398113008"/></g><g stroke-opacity="0.4" fill="#0d0d0d" stroke="#0d0d0d" stroke-width="4.0e-3" fill-opacity="0.4"><g transform="rotate(-90.0, -0.5989299202685691, 0.36384955575831424)"><polyline points="-0.5989299202685691,0.37884955575831425
-0.5989299202685691,0.3488495557583142"/></g><g transform="rotate(-90.0, -0.5989299202685691, 0.27967420318746755)"><polyline points="-0.5989299202685691,0.29467420318746756
-0.5989299202685691,0.26467420318746754"/></g><g transform="rotate(-90.0, -0.5989299202685691, 0.19549885061662087)"><polyline points="-0.5989299202685691,0.21049885061662088
-0.5989299202685691,0.18049885061662085"/></g><g transform="rotate(-90.0, -0.5989299202685691, 0.11132349804577413)"><polyline points="-0.5989299202685691,0.12632349804577414
-0.5989299202685691,9.632349804577413e-2"/></g><g transform="rotate(-90.0, -0.5989299202685691, 2.7148145474927443e-2)"><polyline points="-0.5989299202685691,4.214814547492744e-2
-0.5989299202685691,1.2148145474927444e-2"/></g><g transform="rotate(-90.0, -0.5989299202685691, -5.702720709591924e-2)"><polyline points="-0.5989299202685691,-4.202720709591924e-2
-0.5989299202685691,-7.202720709591924e-2"/></g><g transform="rotate(-90.0, -0.5989299202685691, -0.14120255966676598)"><polyline points="-0.5989299202685691,-0.12620255966676597
-0.5989299202685691,-0.156202559666766"/></g><g transform="rotate(-90.0, -0.5989299202685691, -0.22537791223761272)"><polyline points="-0.5989299202685691,-0.2103779122376127
-0.5989299202685691,-0.24037791223761273"/></g><g transform="rotate(-90.0, -0.5989299202685691, -0.30955326480845935)"><polyline points="-0.5989299202685691,-0.29455326480845934
-0.5989299202685691,-0.32455326480845936"/></g><g transform="rotate(-90.0, -0.5989299202685691, -0.3937286173793061)"><polyline points="-0.5989299202685691,-0.3787286173793061
-0.5989299202685691,-0.4087286173793061"/></g><g transform="rotate(-90.0, -0.5989299202685691, -0.47790396995015283)"><polyline points="-0.5989299202685691,-0.4629039699501528
-0.5989299202685691,-0.49290396995015284"/></g></g><g fill="#0d0d0d" stroke="none" stroke-width="0.0" font-size="6.29458665547629e-2" fill-opacity="1.0" text-anchor="end"><text x="-0.6366974402014268" y="0.3754236667368057">-0.5</text><text x="-0.6366974402014268" y="0.291248314165959">-0.4</text><text x="-0.6366974402014268" y="0.20707296159511224">-0.3</text><text x="-0.6366974402014268" y="0.12289760902426555">-0.2</text><text x="-0.6366974402014268" y="3.872225645341887e-2">-0.1</text><text x="-0.6366974402014268" y="-4.545309611742776e-2">0</text><text x="-0.6366974402014268" y="-0.1296284486882745">0.1</text><text x="-0.6366974402014268" y="-0.21380380125912124">0.2</text><text x="-0.6366974402014268" y="-0.29797915382996787">0.3</text><text x="-0.6366974402014268" y="-0.3821545064008147">0.4</text><text x="-0.6366974402014268" y="-0.46632985897166124">0.5</text></g><g stroke-opacity="5.0e-2" fill="none" stroke="#0d0d0d" stroke-width="5.0e-3"><polyline points="-0.5611624003357113,0.36384955575831424
0.6977549307595465,0.36384955575831424"/><polyline points="-0.5611624003357113,0.27967420318746755
0.6977549307595465,0.27967420318746755"/><polyline points="-0.5611624003357113,0.19549885061662087
0.6977549307595465,0.19549885061662087"/><polyline points="-0.5611624003357113,0.11132349804577413
0.6977549307595465,0.11132349804577413"/><polyline points="-0.5611624003357113,2.7148145474927443e-2
0.6977549307595465,2.7148145474927443e-2"/><polyline points="-0.5611624003357113,-5.702720709591924e-2
0.6977549307595465,-5.702720709591924e-2"/><polyline points="-0.5611624003357113,-0.14120255966676598
0.6977549307595465,-0.14120255966676598"/><polyline points="-0.5611624003357113,-0.22537791223761272
0.6977549307595465,-0.22537791223761272"/><polyline points="-0.5611624003357113,-0.30955326480845935
0.6977549307595465,-0.30955326480845935"/><polyline points="-0.5611624003357113,-0.3937286173793061
0.6977549307595465,-0.3937286173793061"/><polyline points="-0.5611624003357113,-0.47790396995015283
0.6977549307595465,-0.47790396995015283"/></g></svg>