<svg width="429.75857361488687" xmlns:xlink="http://www.w3.org/1999/xlink" xmlns="http://www.w3.org/2000/svg" viewBox="-0.7502452577122054 -0.5281542438105208 1.5202452577122054 1.0612320621725537" height="300.0"><style>svg {
  color-scheme: light dark;
}
@media (prefers-color-scheme:dark) {
  svg {
    background-color: #f0f0f0;
  }
}</style><g></g><g stroke-opacity="1.0" fill="#0d0d0d" stroke="#0d0d0d" stroke-width="3.0e-3" fill-opacity="0.0"><rect width="0.7328990228013031" x="8.119371527112507e-3" y="-0.4039986944025121" height="0.39537217234486666"/></g><g fill="#0d0d0d" stroke="none" stroke-width="0.0" font-size="4.8e-2" fill-opacity="1.0" text-anchor="start"><text x="4.4045794213450895e-2" y="-5.409432187730512e-2">abcdefghijklmnopqrst</text></g><g stroke-opacity="1.0" fill="#a6cfe3" stroke="#1f78b5" stroke-width="3.0e-3" fill-opacity="1.0"><rect width="4.800000000000004e-2" x="0.5876832726575973" y="-8.600176532420253e-2" height="4.7999999999999994e-2"/></g><g fill="#0d0d0d" stroke="none" stroke-width="0.0" font-size="4.8e-2" fill-opacity="1.0" text-anchor="start"><text x="4.4045794213450895e-2" y="-0.1262497433302433">line</text></g><g stroke-opacity="1.0" fill="none" stroke="#0d0d0d" stroke-width="1.2e-2"><polyline points="0.5829421345085266,-0.1341571867771406
0.6979066871048094,-0.1341571867771406"/></g><g fill="#0d0d0d" stroke="none" stroke-width="0.0" font-size="4.8e-2" fill-opacity="1.0" text-anchor="start"><text x="4.4045794213450895e-2" y="-0.1984051647831815">text</text></g><g fill="#0d0d0d" stroke="none" stroke-width="0.0" font-size="4.8e-2" fill-opacity="1.0" text-anchor="start"><text x="0.5829421345085266" y="-0.1984051647831815">text</text></g><g fill="#0d0d0d" stroke="none" stroke-width="0.0" font-size="4.8e-2" fill-opacity="1.0" text-anchor="start"><text x="4.4045794213450895e-2" y="-0.27056058623611967">rect</text></g><g stroke-opacity="1.0" fill="#1f78b5" stroke="#a6cfe3" stroke-width="3.0e-3" fill-opacity="1.0"><rect width="5.748227629814151e-2" x="0.5829421345085266" y="-0.29823663830026026" height="3.9537217234486666e-2"/></g><g fill="#0d0d0d" stroke="none" stroke-width="0.0" font-size="4.8e-2" fill-opacity="1.0" text-anchor="start"><text x="4.4045794213450895e-2" y="-0.34271600768905774">glyph</text></g><g stroke-opacity="1.0" fill="#a6cfe3" stroke="#1f78b5" stroke-width="3.0e-3" fill-opacity="1.0"><rect width="4.800000000000004e-2" x="0.5876832726575973" y="-0.3746234511359552" height="4.800000000000004e-2"/></g><g stroke-opacity="5.0e-2" fill="none" stroke="#0d0d0d" stroke-width="5.0e-3"><polyline points="-0.5547279172255222,0.34984424753503357
0.642819505652424,0.34984424753503357"/><polyline points="-0.5547279172255222,0.26747504496318636
0.642819505652424,0.26747504496318636"/><polyline points="-0.5547279172255222,0.18510584239133915
0.642819505652424,0.18510584239133915"/><polyline points="-0.5547279172255222,0.10273663981949188
0.642819505652424,0.10273663981949188"/><polyline points="-0.5547279172255222,2.0367437247644726e-2
0.642819505652424,2.0367437247644726e-2"/><polyline points="-0.5547279172255222,-6.200176532420254e-2
0.642819505652424,-6.200176532420254e-2"/><polyline points="-0.5547279172255222,-0.14437096789604975
0.642819505652424,-0.14437096789604975"/><polyline points="-0.5547279172255222,-0.22674017046789696
0.642819505652424,-0.22674017046789696"/><polyline points="-0.5547279172255222,-0.3091093730397442
0.642819505652424,-0.3091093730397442"/><polyline points="-0.5547279172255222,-0.3914785756115913
0.642819505652424,-0.3914785756115913"/><polyline points="-0.5547279172255222,-0.4738477781834386
0.642819505652424,-0.4738477781834386"/></g><g fill="#0d0d0d" stroke="none" stroke-width="0.0" font-size="5.0e-2" fill-opacity="1.0" text-anchor="end"><text x="-0.6302452577122054" y="0.36178778190795136">-0.5</text><text x="-0.6302452577122054" y="0.27941857933610426">-0.4</text><text x="-0.6302452577122054" y="0.197049376764257">-0.3</text><text x="-0.6302452577122054" y="0.11468017419240978">-0.2</text><text x="-0.6302452577122054" y="3.231097162056251e-2">-0.1</text><text x="-0.6302452577122054" y="-5.00582309512847e-2">0</text><text x="-0.6302452577122054" y="-0.1324274335231319">0.1</text><text x="-0.6302452577122054" y="-0.214796636094979">0.2</text><text x="-0.6302452577122054" y="-0.29716583866682633">0.3</text><text x="-0.6302452577122054" y="-0.37953504123867343">0.4</text><text x="-0.6302452577122054" y="-0.46190424381052075">0.5</text></g><g stroke-opacity="0.4" fill="#0d0d0d" stroke="#0d0d0d" stroke-width="4.0e-3" fill-opacity="0.4"><g transform="rotate(-90.0, -0.5918518873347385, 0.34984424753503357)"><polyline points="-0.5918518873347385,0.3648442475350336
-0.5918518873347385,0.33484424753503356"/></g><g transform="rotate(-90.0, -0.5918518873347385, 0.26747504496318636)"><polyline points="-0.5918518873347385,0.2824750449631864
-0.5918518873347385,0.25247504496318635"/></g><g transform="rotate(-90.0, -0.5918518873347385, 0.18510584239133915)"><polyline points="-0.5918518873347385,0.20010584239133916
-0.5918518873347385,0.17010584239133913"/></g><g transform="rotate(-90.0, -0.5918518873347385, 0.10273663981949188)"><polyline points="-0.5918518873347385,0.11773663981949188
-0.5918518873347385,8.773663981949188e-2"/></g><g transform="rotate(-90.0, -0.5918518873347385, 2.0367437247644726e-2)"><polyline points="-0.5918518873347385,3.5367437247644726e-2
-0.5918518873347385,5.367437247644727e-3"/></g><g transform="rotate(-90.0, -0.5918518873347385, -6.200176532420254e-2)"><polyline points="-0.5918518873347385,-4.700176532420254e-2
-0.5918518873347385,-7.700176532420254e-2"/></g><g transform="rotate(-90.0, -0.5918518873347385, -0.14437096789604975)"><polyline points="-0.5918518873347385,-0.12937096789604974
-0.5918518873347385,-0.15937096789604976"/></g><g transform="rotate(-90.0, -0.5918518873347385, -0.22674017046789696)"><polyline points="-0.5918518873347385,-0.21174017046789695
-0.5918518873347385,-0.24174017046789698"/></g><g transform="rotate(-90.0, -0.5918518873347385, -0.3091093730397442)"><polyline points="-0.5918518873347385,-0.29410937303974416
-0.5918518873347385,-0.3241093730397442"/></g><g transform="rotate(-90.0, -0.5918518873347385, -0.3914785756115913)"><polyline points="-0.5918518873347385,-0.37647857561159126
-0.5918518873347385,-0.4064785756115913"/></g><g transform="rotate(-90.0, -0.5918518873347385, -0.4738477781834386)"><polyline points="-0.5918518873347385,-0.4588477781834386
-0.5918518873347385,-0.4888477781834386"/></g></g><g stroke-opacity="0.0" fill="#0d0d0d" stroke="#000000" stroke-width="0.0" fill-opacity="0.4"><rect width="4.7901896915117925e-3" x="-0.5714935811458134" y="-0.47549516223487553" height="0.826986793821346"/></g><g stroke-opacity="5.0e-2" fill="none" stroke="#0d0d0d" stroke-width="5.0e-3"><polyline points="-0.5547279172255222,0.34984424753503357
-0.5547279172255222,-0.4738477781834386"/><polyline points="-0.4349731749377275,0.34984424753503357
-0.4349731749377275,-0.4738477781834386"/><polyline points="-0.3152184326499329,0.34984424753503357
-0.3152184326499329,-0.4738477781834386"/><polyline points="-0.1954636903621383,0.34984424753503357
-0.1954636903621383,-0.4738477781834386"/><polyline points="-7.570894807434358e-2,0.34984424753503357
-7.570894807434358e-2,-0.4738477781834386"/><polyline points="4.4045794213450895e-2,0.34984424753503357
4.4045794213450895e-2,-0.4738477781834386"/><polyline points="0.1638005365012456,0.34984424753503357
0.1638005365012456,-0.4738477781834386"/><polyline points="0.2835552787890401,0.34984424753503357
0.2835552787890401,-0.4738477781834386"/><polyline points="0.4033100210768348,0.34984424753503357
0.4033100210768348,-0.4738477781834386"/><polyline points="0.5230647633646295,0.34984424753503357
0.5230647633646295,-0.4738477781834386"/><polyline points="0.642819505652424,0.34984424753503357
0.642819505652424,-0.4738477781834386"/></g><g fill="#0d0d0d" stroke="none" stroke-width="0.0" font-size="4.15448275862069e-2" fill-opacity="1.0" text-anchor="end"><text x="-0.5547279172255222" y="0.43890182935571487" transform="rotate(-45.0, -0.5547279172255222, 0.43890182935571487)">-0.5</text><text x="-0.4349731749377275" y="0.43890182935571487" transform="rotate(-45.0, -0.4349731749377275, 0.43890182935571487)">-0.4</text><text x="-0.3152184326499329" y="0.43890182935571487" transform="rotate(-45.0, -0.3152184326499329, 0.43890182935571487)">-0.3</text><text x="-0.1954636903621383" y="0.43890182935571487" transform="rotate(-45.0, -0.1954636903621383, 0.43890182935571487)">-0.2</text><text x="-7.570894807434358e-2" y="0.43890182935571487" transform="rotate(-45.0, -7.570894807434358e-2, 0.43890182935571487)">-0.1</text><text x="4.4045794213450895e-2" y="0.43890182935571487" transform="rotate(-45.0, 4.4045794213450895e-2, 0.43890182935571487)">0</text><text x="0.1638005365012456" y="0.43890182935571487" transform="rotate(-45.0, 0.1638005365012456, 0.43890182935571487)">0.1</text><text x="0.2835552787890401" y="0.43890182935571487" transform="rotate(-45.0, 0.2835552787890401, 0.43890182935571487)">0.2</text><text x="0.4033100210768348" y="0.43890182935571487" transform="rotate(-45.0, 0.4033100210768348, 0.43890182935571487)">0.3</text><text x="0.5230647633646295" y="0.43890182935571487" transform="rotate(-45.0, 0.5230647633646295, 0.43890182935571487)">0.4</text><text x="0.642819505652424" y="0.43890182935571487" transform="rotate(-45.0, 0.642819505652424, 0.43890182935571487)">0.5</text></g><g stroke-opacity="0.4" fill="#0d0d0d" stroke="#0d0d0d" stroke-width="4.0e-3" fill-opacity="0.4"><polyline points="-0.5547279172255222,0.39037870033230626
-0.5547279172255222,0.36037870033230623"/><polyline points="-0.4349731749377275,0.39037870033230626
-0.4349731749377275,0.36037870033230623"/><polyline points="-0.3152184326499329,0.39037870033230626
-0.3152184326499329,0.36037870033230623"/><polyline points="-0.1954636903621383,0.39037870033230626
-0.1954636903621383,0.36037870033230623"/><polyline points="-7.570894807434358e-2,0.39037870033230626
-7.570894807434358e-2,0.36037870033230623"/><polyline points="4.4045794213450895e-2,0.39037870033230626
4.4045794213450895e-2,0.36037870033230623"/><polyline points="0.1638005365012456,0.39037870033230626
0.1638005365012456,0.36037870033230623"/><polyline points="0.2835552787890401,0.39037870033230626
0.2835552787890401,0.36037870033230623"/><polyline points="0.4033100210768348,0.39037870033230626
0.4033100210768348,0.36037870033230623"/><polyline points="0.5230647633646295,0.39037870033230626
0.5230647633646295,0.36037870033230623"/><polyline points="0.642819505652424,0.39037870033230626
0.642819505652424,0.36037870033230623"/></g><g stroke-opacity="0.0" fill="#0d0d0d" stroke="#000000" stroke-width="0.0" fill-opacity="0.4"><rect width="1.2023376125694578" x="-0.557123012071278" y="0.3580811677922183" height="3.2947681028738796e-3"/></g><g stroke-opacity="0.0" fill="#ffffff" stroke="#000000" stroke-width="0.0" fill-opacity="2.0e-2"><rect width="1.1975474228779461" x="-0.5547279172255222" y="-0.4738477781834386" height="0.8236920257184721"/></g></svg>