<svg xmlns="http://www.w3.org/2000/svg" height="300.0" viewBox="-0.87 -0.5487807950727883 1.6728562528055975 1.0950307950727884" width="450.0" xmlns:xlink="http://www.w3.org/1999/xlink"><g stroke-opacity="0.0" fill-opacity="0.1" stroke="#000000" stroke-width="0.0" fill="#cccccc"><rect height="0.8958566629339307" width="1.3931241583208211" x="-0.6477679055152237" y="-0.4955207166853305"/></g><g stroke-opacity="0.1" stroke="#808080" stroke-width="5.0e-3" fill="none"><polyline points="-0.6524116527096264,0.40033594624860025
0.75,0.40033594624860025"/></g><g stroke-opacity="0.1" stroke="#808080" stroke-width="5.0e-3" fill="none"><polyline points="-0.6524116527096264,0.3107502799552072
0.75,0.3107502799552072"/></g><g stroke-opacity="0.1" stroke="#808080" stroke-width="5.0e-3" fill="none"><polyline points="-0.6524116527096264,0.2211646136618141
0.75,0.2211646136618141"/></g><g stroke-opacity="0.1" stroke="#808080" stroke-width="5.0e-3" fill="none"><polyline points="-0.6524116527096264,0.13157894736842102
0.75,0.13157894736842102"/></g><g stroke-opacity="0.1" stroke="#808080" stroke-width="5.0e-3" fill="none"><polyline points="-0.6524116527096264,4.199328107502798e-2
0.75,4.199328107502798e-2"/></g><g stroke-opacity="0.1" stroke="#808080" stroke-width="5.0e-3" fill="none"><polyline points="-0.6524116527096264,-4.759238521836506e-2
0.75,-4.759238521836506e-2"/></g><g stroke-opacity="0.1" stroke="#808080" stroke-width="5.0e-3" fill="none"><polyline points="-0.6524116527096264,-0.13717805151175821
0.75,-0.13717805151175821"/></g><g stroke-opacity="0.1" stroke="#808080" stroke-width="5.0e-3" fill="none"><polyline points="-0.6524116527096264,-0.22676371780515125
0.75,-0.22676371780515125"/></g><g stroke-opacity="0.1" stroke="#808080" stroke-width="5.0e-3" fill="none"><polyline points="-0.6524116527096264,-0.3163493840985443
0.75,-0.3163493840985443"/></g><g stroke-opacity="0.1" stroke="#808080" stroke-width="5.0e-3" fill="none"><polyline points="-0.6524116527096264,-0.40593505039193734
0.75,-0.40593505039193734"/></g><g stroke-opacity="0.1" stroke="#808080" stroke-width="5.0e-3" fill="none"><polyline points="-0.6524116527096264,-0.4955207166853305
0.75,-0.4955207166853305"/></g><g fill-opacity="0.8" font-size="5.0e-2" stroke="none" stroke-width="0.0" fill="#333333" text-anchor="end"><text x="-0.75" y="0.4133258678611422">-0.5</text></g><g fill-opacity="0.8" font-size="5.0e-2" stroke="none" stroke-width="0.0" fill="#333333" text-anchor="end"><text x="-0.75" y="0.3237402015677492">-0.4</text></g><g fill-opacity="0.8" font-size="5.0e-2" stroke="none" stroke-width="0.0" fill="#333333" text-anchor="end"><text x="-0.75" y="0.23415453527435615">-0.3</text></g><g fill-opacity="0.8" font-size="5.0e-2" stroke="none" stroke-width="0.0" fill="#333333" text-anchor="end"><text x="-0.75" y="0.14456886898096305">-0.2</text></g><g fill-opacity="0.8" font-size="5.0e-2" stroke="none" stroke-width="0.0" fill="#333333" text-anchor="end"><text x="-0.75" y="5.498320268757001e-2">-0.1</text></g><g fill-opacity="0.8" font-size="5.0e-2" stroke="none" stroke-width="0.0" fill="#333333" text-anchor="end"><text x="-0.75" y="-3.4602463605823086e-2">0.0</text></g><g fill-opacity="0.8" font-size="5.0e-2" stroke="none" stroke-width="0.0" fill="#333333" text-anchor="end"><text x="-0.75" y="-0.12418812989921624">0.1</text></g><g fill-opacity="0.8" font-size="5.0e-2" stroke="none" stroke-width="0.0" fill="#333333" text-anchor="end"><text x="-0.75" y="-0.21377379619260928">0.2</text></g><g fill-opacity="0.8" font-size="5.0e-2" stroke="none" stroke-width="0.0" fill="#333333" text-anchor="end"><text x="-0.75" y="-0.3033594624860022">0.3</text></g><g fill-opacity="0.8" font-size="5.0e-2" stroke="none" stroke-width="0.0" fill="#333333" text-anchor="end"><text x="-0.75" y="-0.39294512877939536">0.4</text></g><g fill-opacity="0.8" font-size="5.0e-2" stroke="none" stroke-width="0.0" fill="#333333" text-anchor="end"><text x="-0.75" y="-0.4825307950727883">0.5</text></g><g stroke-opacity="0.5" fill-opacity="0.5" stroke="#570d66" stroke-width="5.0e-3" fill="#570d66"><g transform="rotate(-90.0, -0.7197459870284661, 0.40033594624860025)"><polyline points="-0.7197459870284661,0.41533594624860026
-0.7197459870284661,0.38533594624860024"/></g><g transform="rotate(-90.0, -0.7197459870284661, 0.3107502799552072)"><polyline points="-0.7197459870284661,0.3257502799552072
-0.7197459870284661,0.2957502799552072"/></g><g transform="rotate(-90.0, -0.7197459870284661, 0.2211646136618141)"><polyline points="-0.7197459870284661,0.23616461366181413
-0.7197459870284661,0.2061646136618141"/></g><g transform="rotate(-90.0, -0.7197459870284661, 0.13157894736842102)"><polyline points="-0.7197459870284661,0.14657894736842103
-0.7197459870284661,0.11657894736842102"/></g><g transform="rotate(-90.0, -0.7197459870284661, 4.199328107502798e-2)"><polyline points="-0.7197459870284661,5.699328107502798e-2
-0.7197459870284661,2.6993281075027978e-2"/></g><g transform="rotate(-90.0, -0.7197459870284661, -4.759238521836506e-2)"><polyline points="-0.7197459870284661,-3.2592385218365064e-2
-0.7197459870284661,-6.259238521836506e-2"/></g><g transform="rotate(-90.0, -0.7197459870284661, -0.13717805151175821)"><polyline points="-0.7197459870284661,-0.12217805151175821
-0.7197459870284661,-0.15217805151175823"/></g><g transform="rotate(-90.0, -0.7197459870284661, -0.22676371780515125)"><polyline points="-0.7197459870284661,-0.21176371780515124
-0.7197459870284661,-0.24176371780515127"/></g><g transform="rotate(-90.0, -0.7197459870284661, -0.3163493840985443)"><polyline points="-0.7197459870284661,-0.3013493840985443
-0.7197459870284661,-0.3313493840985443"/></g><g transform="rotate(-90.0, -0.7197459870284661, -0.40593505039193734)"><polyline points="-0.7197459870284661,-0.3909350503919373
-0.7197459870284661,-0.42093505039193735"/></g><g transform="rotate(-90.0, -0.7197459870284661, -0.4955207166853305)"><polyline points="-0.7197459870284661,-0.4805207166853305
-0.7197459870284661,-0.5105207166853305"/></g></g><g stroke-opacity="0.5" fill-opacity="0.5" stroke="#570d66" stroke-width="0.0" fill="#570d66"><rect height="0.8958566629339307" width="4.6437471944027475e-3" x="-0.7081366190424594" y="-0.4955207166853305"/></g><g stroke-opacity="0.1" stroke="#808080" stroke-width="5.0e-3" fill="none"><polyline points="-0.6477679055152237,0.40481522956326993
-0.6477679055152237,-0.5"/></g><g stroke-opacity="0.1" stroke="#808080" stroke-width="5.0e-3" fill="none"><polyline points="-0.5084554896831417,0.40481522956326993
-0.5084554896831417,-0.5"/></g><g stroke-opacity="0.1" stroke="#808080" stroke-width="5.0e-3" fill="none"><polyline points="-0.36914307385105943,0.40481522956326993
-0.36914307385105943,-0.5"/></g><g stroke-opacity="0.1" stroke="#808080" stroke-width="5.0e-3" fill="none"><polyline points="-0.22983065801897729,0.40481522956326993
-0.22983065801897729,-0.5"/></g><g stroke-opacity="0.1" stroke="#808080" stroke-width="5.0e-3" fill="none"><polyline points="-9.051824218689519e-2,0.40481522956326993
-9.051824218689519e-2,-0.5"/></g><g stroke-opacity="0.1" stroke="#808080" stroke-width="5.0e-3" fill="none"><polyline points="4.87941736451869e-2,0.40481522956326993
4.87941736451869e-2,-0.5"/></g><g stroke-opacity="0.1" stroke="#808080" stroke-width="5.0e-3" fill="none"><polyline points="0.18810658947726888,0.40481522956326993
0.18810658947726888,-0.5"/></g><g stroke-opacity="0.1" stroke="#808080" stroke-width="5.0e-3" fill="none"><polyline points="0.3274190053093511,0.40481522956326993
0.3274190053093511,-0.5"/></g><g stroke-opacity="0.1" stroke="#808080" stroke-width="5.0e-3" fill="none"><polyline points="0.4667314211414335,0.40481522956326993
0.4667314211414335,-0.5"/></g><g stroke-opacity="0.1" stroke="#808080" stroke-width="5.0e-3" fill="none"><polyline points="0.6060438369735155,0.40481522956326993
0.6060438369735155,-0.5"/></g><g stroke-opacity="0.1" stroke="#808080" stroke-width="5.0e-3" fill="none"><polyline points="0.7453562528055975,0.40481522956326993
0.7453562528055975,-0.5"/></g><g fill-opacity="0.8" font-size="5.0e-2" stroke="none" stroke-width="0.0" fill="#333333" text-anchor="middle"><text x="-0.6477679055152237" y="0.5">-0.5</text></g><g fill-opacity="0.8" font-size="5.0e-2" stroke="none" stroke-width="0.0" fill="#333333" text-anchor="middle"><text x="-0.5084554896831417" y="0.5">-0.4</text></g><g fill-opacity="0.8" font-size="5.0e-2" stroke="none" stroke-width="0.0" fill="#333333" text-anchor="middle"><text x="-0.36914307385105943" y="0.5">-0.3</text></g><g fill-opacity="0.8" font-size="5.0e-2" stroke="none" stroke-width="0.0" fill="#333333" text-anchor="middle"><text x="-0.22983065801897729" y="0.5">-0.2</text></g><g fill-opacity="0.8" font-size="5.0e-2" stroke="none" stroke-width="0.0" fill="#333333" text-anchor="middle"><text x="-9.051824218689519e-2" y="0.5">-0.1</text></g><g fill-opacity="0.8" font-size="5.0e-2" stroke="none" stroke-width="0.0" fill="#333333" text-anchor="middle"><text x="4.87941736451869e-2" y="0.5">0.0</text></g><g fill-opacity="0.8" font-size="5.0e-2" stroke="none" stroke-width="0.0" fill="#333333" text-anchor="middle"><text x="0.18810658947726888" y="0.5">0.1</text></g><g fill-opacity="0.8" font-size="5.0e-2" stroke="none" stroke-width="0.0" fill="#333333" text-anchor="middle"><text x="0.3274190053093511" y="0.5">0.2</text></g><g fill-opacity="0.8" font-size="5.0e-2" stroke="none" stroke-width="0.0" fill="#333333" text-anchor="middle"><text x="0.4667314211414335" y="0.5">0.3</text></g><g fill-opacity="0.8" font-size="5.0e-2" stroke="none" stroke-width="0.0" fill="#333333" text-anchor="middle"><text x="0.6060438369735155" y="0.5">0.4</text></g><g fill-opacity="0.8" font-size="5.0e-2" stroke="none" stroke-width="0.0" fill="#333333" text-anchor="middle"><text x="0.7453562528055975" y="0.5">0.5</text></g><g stroke-opacity="0.5" fill-opacity="0.5" stroke="#570d66" stroke-width="5.0e-3" fill="#570d66"><polyline points="-0.6477679055152237,0.4399720044792833
-0.6477679055152237,0.4099720044792833"/><polyline points="-0.5084554896831417,0.4399720044792833
-0.5084554896831417,0.4099720044792833"/><polyline points="-0.36914307385105943,0.4399720044792833
-0.36914307385105943,0.4099720044792833"/><polyline points="-0.22983065801897729,0.4399720044792833
-0.22983065801897729,0.4099720044792833"/><polyline points="-9.051824218689519e-2,0.4399720044792833
-9.051824218689519e-2,0.4099720044792833"/><polyline points="4.87941736451869e-2,0.4399720044792833
4.87941736451869e-2,0.4099720044792833"/><polyline points="0.18810658947726888,0.4399720044792833
0.18810658947726888,0.4099720044792833"/><polyline points="0.3274190053093511,0.4399720044792833
0.3274190053093511,0.4099720044792833"/><polyline points="0.4667314211414335,0.4399720044792833
0.4667314211414335,0.4099720044792833"/><polyline points="0.6060438369735155,0.4399720044792833
0.6060438369735155,0.4099720044792833"/><polyline points="0.7453562528055975,0.4399720044792833
0.7453562528055975,0.4099720044792833"/></g><g stroke-opacity="0.5" fill-opacity="0.5" stroke="#570d66" stroke-width="0.0" fill="#570d66"><rect height="4.47928331466968e-3" width="1.3931241583208211" x="-0.6477679055152237" y="0.40929451287793955"/></g><g stroke-opacity="1.0" fill-opacity="1.0" stroke="#0ea194" stroke-width="6.0e-3" fill="#ffffff"><rect height="0.4493617021276597" width="0.6742720926272774" x="2.0931690478770415e-2" y="-0.44750279955207173"/></g><g fill-opacity="1.0" font-size="4.8e-2" stroke="none" stroke-width="0.0" fill="#808080" text-anchor="start"><text x="4.87941736451869e-2" y="-4.759238521836506e-2">blank</text></g><g fill-opacity="1.0" font-size="4.8e-2" stroke="none" stroke-width="0.0" fill="#808080" text-anchor="start"><text x="4.87941736451869e-2" y="-0.11424412094064951">abcdefghijklmnopqrst</text></g><g stroke-opacity="0.4" fill-opacity="0.8" stroke="#0a865a" stroke-width="3.0e-3" fill="#0ea194"><rect height="3.599999999999999e-2" width="3.600000000000003e-2" x="0.5490363605405324" y="-0.1428868980963046"/></g><g fill-opacity="1.0" font-size="4.8e-2" stroke="none" stroke-width="0.0" fill="#808080" text-anchor="start"><text x="4.87941736451869e-2" y="-0.18089585666293384">line</text></g><g stroke-opacity="1.0" stroke="#0ea194" stroke-width="1.2e-2" fill="none"><polyline points="0.5503188706406825,-0.19153863381858904
0.6171888302400819,-0.19153863381858904"/></g><g fill-opacity="1.0" font-size="4.8e-2" stroke="none" stroke-width="0.0" fill="#808080" text-anchor="start"><text x="4.87941736451869e-2" y="-0.24754759238521828">text</text></g><g fill-opacity="1.0" font-size="3.6e-2" stroke="none" stroke-width="0.0" fill="#333333" text-anchor="start"><text x="0.5503188706406825" y="-0.24754759238521828">content</text></g><g fill-opacity="1.0" font-size="4.8e-2" stroke="none" stroke-width="0.0" fill="#808080" text-anchor="start"><text x="4.87941736451869e-2" y="-0.31419932810750284">rect</text></g><g stroke-opacity="1.0" fill-opacity="1.0" stroke="#0ea194" stroke-width="6.0e-3" fill="#0a865a"><rect height="3.2250839865621495e-2" width="3.343497979969956e-2" x="0.5503188706406825" y="-0.34645016797312433"/></g><g fill-opacity="1.0" font-size="4.8e-2" stroke="none" stroke-width="0.0" fill="#808080" text-anchor="start"><text x="4.87941736451869e-2" y="-0.3808510638297873">glyph</text></g><g stroke-opacity="0.4" fill-opacity="0.8" stroke="#0a865a" stroke-width="3.0e-3" fill="#0ea194"><rect height="3.600000000000003e-2" width="3.600000000000003e-2" x="0.5490363605405324" y="-0.4094938409854424"/></g></svg>