<svg xmlns="http://www.w3.org/2000/svg" height="300.0" viewBox="-0.87 -0.52 1.6775 1.0662500000000001" width="471.9812426729191" xmlns:xlink="http://www.w3.org/1999/xlink"><g stroke-opacity="0.0" fill-opacity="2.5e-2" stroke="#000000" stroke-width="0.0" fill="#808080"><rect height="0.8052502315094416" width="1.3974504293278263" x="-0.6474504293278263" y="-0.39483431976486705"/></g><g stroke-opacity="5.0e-2" stroke="#808080" stroke-width="5.0e-3" fill="none"><polyline points="-0.6474504293278263,0.4104159117445746
0.75,0.4104159117445746"/></g><g stroke-opacity="5.0e-2" stroke="#808080" stroke-width="5.0e-3" fill="none"><polyline points="-0.6474504293278263,0.32989088859363047
0.75,0.32989088859363047"/></g><g stroke-opacity="5.0e-2" stroke="#808080" stroke-width="5.0e-3" fill="none"><polyline points="-0.6474504293278263,0.2493658654426863
0.75,0.2493658654426863"/></g><g stroke-opacity="5.0e-2" stroke="#808080" stroke-width="5.0e-3" fill="none"><polyline points="-0.6474504293278263,0.16884084229174212
0.75,0.16884084229174212"/></g><g stroke-opacity="5.0e-2" stroke="#808080" stroke-width="5.0e-3" fill="none"><polyline points="-0.6474504293278263,8.8315819140798e-2
0.75,8.8315819140798e-2"/></g><g stroke-opacity="5.0e-2" stroke="#808080" stroke-width="5.0e-3" fill="none"><polyline points="-0.6474504293278263,7.7907959898537715e-3
0.75,7.7907959898537715e-3"/></g><g stroke-opacity="5.0e-2" stroke="#808080" stroke-width="5.0e-3" fill="none"><polyline points="-0.6474504293278263,-7.273422716109057e-2
0.75,-7.273422716109057e-2"/></g><g stroke-opacity="5.0e-2" stroke="#808080" stroke-width="5.0e-3" fill="none"><polyline points="-0.6474504293278263,-0.1532592503120347
0.75,-0.1532592503120347"/></g><g stroke-opacity="5.0e-2" stroke="#808080" stroke-width="5.0e-3" fill="none"><polyline points="-0.6474504293278263,-0.2337842734629787
0.75,-0.2337842734629787"/></g><g stroke-opacity="5.0e-2" stroke="#808080" stroke-width="5.0e-3" fill="none"><polyline points="-0.6474504293278263,-0.31430929661392293
0.75,-0.31430929661392293"/></g><g stroke-opacity="5.0e-2" stroke="#808080" stroke-width="5.0e-3" fill="none"><polyline points="-0.6474504293278263,-0.39483431976486705
0.75,-0.39483431976486705"/></g><g fill-opacity="1.0" font-size="5.0e-2" stroke="none" stroke-width="0.0" fill="#808080" text-anchor="end"><text x="-0.75" y="0.42209204010146156">-0.5</text></g><g fill-opacity="1.0" font-size="5.0e-2" stroke="none" stroke-width="0.0" fill="#808080" text-anchor="end"><text x="-0.75" y="0.3415670169505174">-0.4</text></g><g fill-opacity="1.0" font-size="5.0e-2" stroke="none" stroke-width="0.0" fill="#808080" text-anchor="end"><text x="-0.75" y="0.26104199379957327">-0.3</text></g><g fill-opacity="1.0" font-size="5.0e-2" stroke="none" stroke-width="0.0" fill="#808080" text-anchor="end"><text x="-0.75" y="0.18051697064862904">-0.2</text></g><g fill-opacity="1.0" font-size="5.0e-2" stroke="none" stroke-width="0.0" fill="#808080" text-anchor="end"><text x="-0.75" y="9.999194749768486e-2">-0.1</text></g><g fill-opacity="1.0" font-size="5.0e-2" stroke="none" stroke-width="0.0" fill="#808080" text-anchor="end"><text x="-0.75" y="1.9466924346740633e-2">0</text></g><g fill-opacity="1.0" font-size="5.0e-2" stroke="none" stroke-width="0.0" fill="#808080" text-anchor="end"><text x="-0.75" y="-6.105809880420354e-2">0.1</text></g><g fill-opacity="1.0" font-size="5.0e-2" stroke="none" stroke-width="0.0" fill="#808080" text-anchor="end"><text x="-0.75" y="-0.14158312195514777">0.2</text></g><g fill-opacity="1.0" font-size="5.0e-2" stroke="none" stroke-width="0.0" fill="#808080" text-anchor="end"><text x="-0.75" y="-0.2221081451060919">0.3</text></g><g fill-opacity="1.0" font-size="5.0e-2" stroke="none" stroke-width="0.0" fill="#808080" text-anchor="end"><text x="-0.75" y="-0.302633168257036">0.4</text></g><g fill-opacity="1.0" font-size="5.0e-2" stroke="none" stroke-width="0.0" fill="#808080" text-anchor="end"><text x="-0.75" y="-0.38315819140798013">0.5</text></g><g stroke-opacity="1.0" fill-opacity="1.0" stroke="#808080" stroke-width="5.0e-3" fill="#808080"><g transform="rotate(-90.0, -0.7196520348430974, 0.4104159117445746)"><polyline points="-0.7196520348430974,0.4254159117445746
-0.7196520348430974,0.3954159117445746"/></g><g transform="rotate(-90.0, -0.7196520348430974, 0.32989088859363047)"><polyline points="-0.7196520348430974,0.3448908885936305
-0.7196520348430974,0.31489088859363046"/></g><g transform="rotate(-90.0, -0.7196520348430974, 0.2493658654426863)"><polyline points="-0.7196520348430974,0.2643658654426863
-0.7196520348430974,0.23436586544268628"/></g><g transform="rotate(-90.0, -0.7196520348430974, 0.16884084229174212)"><polyline points="-0.7196520348430974,0.18384084229174213
-0.7196520348430974,0.1538408422917421"/></g><g transform="rotate(-90.0, -0.7196520348430974, 8.8315819140798e-2)"><polyline points="-0.7196520348430974,0.103315819140798
-0.7196520348430974,7.3315819140798e-2"/></g><g transform="rotate(-90.0, -0.7196520348430974, 7.7907959898537715e-3)"><polyline points="-0.7196520348430974,2.279079598985377e-2
-0.7196520348430974,-7.209204010146228e-3"/></g><g transform="rotate(-90.0, -0.7196520348430974, -7.273422716109057e-2)"><polyline points="-0.7196520348430974,-5.773422716109057e-2
-0.7196520348430974,-8.773422716109057e-2"/></g><g transform="rotate(-90.0, -0.7196520348430974, -0.1532592503120347)"><polyline points="-0.7196520348430974,-0.13825925031203468
-0.7196520348430974,-0.1682592503120347"/></g><g transform="rotate(-90.0, -0.7196520348430974, -0.2337842734629787)"><polyline points="-0.7196520348430974,-0.21878427346297868
-0.7196520348430974,-0.2487842734629787"/></g><g transform="rotate(-90.0, -0.7196520348430974, -0.31430929661392293)"><polyline points="-0.7196520348430974,-0.2993092966139229
-0.7196520348430974,-0.32930929661392294"/></g><g transform="rotate(-90.0, -0.7196520348430974, -0.39483431976486705)"><polyline points="-0.7196520348430974,-0.37983431976486703
-0.7196520348430974,-0.40983431976486706"/></g></g><g stroke-opacity="1.0" fill-opacity="1.0" stroke="#808080" stroke-width="0.0" fill="#808080"><rect height="0.8052502315094416" width="4.65816809775943e-3" x="-0.7080066145986988" y="-0.39483431976486705"/></g><g stroke-opacity="5.0e-2" stroke="#808080" stroke-width="5.0e-3" fill="none"><polyline points="-0.6474504293278263,0.4104159117445746
-0.6474504293278263,-0.39483431976486705"/></g><g stroke-opacity="5.0e-2" stroke="#808080" stroke-width="5.0e-3" fill="none"><polyline points="-0.5077053863950438,0.4104159117445746
-0.5077053863950438,-0.39483431976486705"/></g><g stroke-opacity="5.0e-2" stroke="#808080" stroke-width="5.0e-3" fill="none"><polyline points="-0.367960343462261,0.4104159117445746
-0.367960343462261,-0.39483431976486705"/></g><g stroke-opacity="5.0e-2" stroke="#808080" stroke-width="5.0e-3" fill="none"><polyline points="-0.22821530052947825,0.4104159117445746
-0.22821530052947825,-0.39483431976486705"/></g><g stroke-opacity="5.0e-2" stroke="#808080" stroke-width="5.0e-3" fill="none"><polyline points="-8.847025759669558e-2,0.4104159117445746
-8.847025759669558e-2,-0.39483431976486705"/></g><g stroke-opacity="5.0e-2" stroke="#808080" stroke-width="5.0e-3" fill="none"><polyline points="5.127478533608687e-2,0.4104159117445746
5.127478533608687e-2,-0.39483431976486705"/></g><g stroke-opacity="5.0e-2" stroke="#808080" stroke-width="5.0e-3" fill="none"><polyline points="0.19101982826886954,0.4104159117445746
0.19101982826886954,-0.39483431976486705"/></g><g stroke-opacity="5.0e-2" stroke="#808080" stroke-width="5.0e-3" fill="none"><polyline points="0.330764871201652,0.4104159117445746
0.330764871201652,-0.39483431976486705"/></g><g stroke-opacity="5.0e-2" stroke="#808080" stroke-width="5.0e-3" fill="none"><polyline points="0.4705099141344351,0.4104159117445746
0.4705099141344351,-0.39483431976486705"/></g><g stroke-opacity="5.0e-2" stroke="#808080" stroke-width="5.0e-3" fill="none"><polyline points="0.6102549570672173,0.4104159117445746
0.6102549570672173,-0.39483431976486705"/></g><g stroke-opacity="5.0e-2" stroke="#808080" stroke-width="5.0e-3" fill="none"><polyline points="0.75,0.4104159117445746
0.75,-0.39483431976486705"/></g><g fill-opacity="1.0" font-size="5.0e-2" stroke="none" stroke-width="0.0" fill="#808080" text-anchor="middle"><text x="-0.6474504293278263" y="0.5">-0.5</text></g><g fill-opacity="1.0" font-size="5.0e-2" stroke="none" stroke-width="0.0" fill="#808080" text-anchor="middle"><text x="-0.5077053863950438" y="0.5">-0.4</text></g><g fill-opacity="1.0" font-size="5.0e-2" stroke="none" stroke-width="0.0" fill="#808080" text-anchor="middle"><text x="-0.367960343462261" y="0.5">-0.3</text></g><g fill-opacity="1.0" font-size="5.0e-2" stroke="none" stroke-width="0.0" fill="#808080" text-anchor="middle"><text x="-0.22821530052947825" y="0.5">-0.2</text></g><g fill-opacity="1.0" font-size="5.0e-2" stroke="none" stroke-width="0.0" fill="#808080" text-anchor="middle"><text x="-8.847025759669558e-2" y="0.5">-0.1</text></g><g fill-opacity="1.0" font-size="5.0e-2" stroke="none" stroke-width="0.0" fill="#808080" text-anchor="middle"><text x="5.127478533608687e-2" y="0.5">0</text></g><g fill-opacity="1.0" font-size="5.0e-2" stroke="none" stroke-width="0.0" fill="#808080" text-anchor="middle"><text x="0.19101982826886954" y="0.5">0.1</text></g><g fill-opacity="1.0" font-size="5.0e-2" stroke="none" stroke-width="0.0" fill="#808080" text-anchor="middle"><text x="0.330764871201652" y="0.5">0.2</text></g><g fill-opacity="1.0" font-size="5.0e-2" stroke="none" stroke-width="0.0" fill="#808080" text-anchor="middle"><text x="0.4705099141344351" y="0.5">0.3</text></g><g fill-opacity="1.0" font-size="5.0e-2" stroke="none" stroke-width="0.0" fill="#808080" text-anchor="middle"><text x="0.6102549570672173" y="0.5">0.4</text></g><g fill-opacity="1.0" font-size="5.0e-2" stroke="none" stroke-width="0.0" fill="#808080" text-anchor="middle"><text x="0.75" y="0.5">0.5</text></g><g stroke-opacity="1.0" fill-opacity="1.0" stroke="#808080" stroke-width="5.0e-3" fill="#808080"><polyline points="-0.6474504293278263,0.4475602931110843
-0.6474504293278263,0.4175602931110843"/><polyline points="-0.5077053863950438,0.4475602931110843
-0.5077053863950438,0.4175602931110843"/><polyline points="-0.367960343462261,0.4475602931110843
-0.367960343462261,0.4175602931110843"/><polyline points="-0.22821530052947825,0.4475602931110843
-0.22821530052947825,0.4175602931110843"/><polyline points="-8.847025759669558e-2,0.4475602931110843
-8.847025759669558e-2,0.4175602931110843"/><polyline points="5.127478533608687e-2,0.4475602931110843
5.127478533608687e-2,0.4175602931110843"/><polyline points="0.19101982826886954,0.4475602931110843
0.19101982826886954,0.4175602931110843"/><polyline points="0.330764871201652,0.4475602931110843
0.330764871201652,0.4175602931110843"/><polyline points="0.4705099141344351,0.4475602931110843
0.4705099141344351,0.4175602931110843"/><polyline points="0.6102549570672173,0.4475602931110843
0.6102549570672173,0.4175602931110843"/><polyline points="0.75,0.4475602931110843
0.75,0.4175602931110843"/></g><g stroke-opacity="1.0" fill-opacity="1.0" stroke="#808080" stroke-width="0.0" fill="#808080"><rect height="4.026251157547234e-3" width="1.3974504293278263" x="-0.6474504293278263" y="0.41846841405966906"/></g><g></g><g stroke-opacity="1.0" fill-opacity="1.0" stroke="#808080" stroke-width="6.0e-3" fill="#ffffff"><rect height="0.5053750452953258" width="0.676366007794668" x="2.332577674953029e-2" y="-0.47342674236018867"/></g><g fill-opacity="1.0" font-size="4.8e-2" stroke="none" stroke-width="0.0" fill="#333333" text-anchor="start"><text x="5.127478533608687e-2" y="-1.2501509844184078e-2">blank</text></g><g></g><g fill-opacity="1.0" font-size="4.8e-2" stroke="none" stroke-width="0.0" fill="#333333" text-anchor="start"><text x="5.127478533608687e-2" y="-9.27044329025245e-2">abcdefghijklmnopqrst</text></g><g stroke-opacity="0.8" fill-opacity="0.3" stroke="#1f78b4" stroke-width="3.0e-3" fill="#a6cee3"><rect height="3.6000000000000004e-2" width="3.600000000000003e-2" x="0.5531263450460382" y="-0.10526899383983578"/></g><g fill-opacity="1.0" font-size="4.8e-2" stroke="none" stroke-width="0.0" fill="#333333" text-anchor="start"><text x="5.127478533608687e-2" y="-0.17290735596086482">line</text></g><g stroke-opacity="0.3" stroke="#a6cee3" stroke-width="1.2e-2" fill="none"><polyline points="0.5543569398941046,-0.1574465515158835
0.6214345605018399,-0.1574465515158835"/></g><g fill-opacity="1.0" font-size="4.8e-2" stroke="none" stroke-width="0.0" fill="#333333" text-anchor="start"><text x="5.127478533608687e-2" y="-0.25311027901920535">text</text></g><g fill-opacity="1.0" font-size="3.6e-2" stroke="none" stroke-width="0.0" fill="#333333" text-anchor="start"><text x="0.5543569398941046" y="-0.24803720256069572">content</text></g><g fill-opacity="1.0" font-size="4.8e-2" stroke="none" stroke-width="0.0" fill="#333333" text-anchor="start"><text x="5.127478533608687e-2" y="-0.33331320207754567">rect</text></g><g stroke-opacity="0.8" fill-opacity="0.3" stroke="#1f78b4" stroke-width="3.0e-3" fill="#1f78b4"><rect height="2.8989008334339927e-2" width="3.3538810303867406e-2" x="0.5543569398941046" y="-0.3432177799251117"/></g><g fill-opacity="1.0" font-size="4.8e-2" stroke="none" stroke-width="0.0" fill="#333333" text-anchor="start"><text x="5.127478533608687e-2" y="-0.4135161251358861">glyph</text></g><g stroke-opacity="0.8" fill-opacity="0.3" stroke="#1f78b4" stroke-width="3.0e-3" fill="#a6cee3"><rect height="3.600000000000003e-2" width="3.600000000000003e-2" x="0.5531263450460382" y="-0.42608068607319727"/></g><g></g></svg>