<svg width="471.9812426729191" xmlns:xlink="http://www.w3.org/1999/xlink" xmlns="http://www.w3.org/2000/svg" viewBox="-0.87 -0.52 1.6775 1.0662500000000001" height="300.0"><style>svg {
  color-scheme: light dark;
}
@media (prefers-color-scheme:light) {
  svg {
    background-color: #0d0d0d;
  }
}</style><g stroke-opacity="0.0" fill="#f0f0f0" stroke="#000000" stroke-width="0.0" fill-opacity="5.0e-2"><rect width="1.4445949676731749" x="-0.6945949676731749" y="-0.44037572622026233" height="0.8481404520588612"/></g><g stroke-opacity="5.0e-2" fill="none" stroke="#f0f0f0" stroke-width="5.0e-3"><polyline points="-0.6945949676731749,0.4077647258385989
0.75,0.4077647258385989"/><polyline points="-0.6945949676731749,0.32295068063271276
0.75,0.32295068063271276"/><polyline points="-0.6945949676731749,0.23813663542682662
0.75,0.23813663542682662"/><polyline points="-0.6945949676731749,0.15332259022094047
0.75,0.15332259022094047"/><polyline points="-0.6945949676731749,6.850854501505443e-2
0.75,6.850854501505443e-2"/><polyline points="-0.6945949676731749,-1.6305500190831768e-2
0.75,-1.6305500190831768e-2"/><polyline points="-0.6945949676731749,-0.10111954539671786
0.75,-0.10111954539671786"/><polyline points="-0.6945949676731749,-0.18593359060260406
0.75,-0.18593359060260406"/><polyline points="-0.6945949676731749,-0.27074763580849015
0.75,-0.27074763580849015"/><polyline points="-0.6945949676731749,-0.35556168101437624
0.75,-0.35556168101437624"/><polyline points="-0.6945949676731749,-0.44037572622026233
0.75,-0.44037572622026233"/></g><g fill="#f0f0f0" stroke="none" stroke-width="0.0" font-size="5.0e-2" fill-opacity="1.0" text-anchor="end"><text x="-0.75" y="0.42006276239345225">-0.5</text></g><g fill="#f0f0f0" stroke="none" stroke-width="0.0" font-size="5.0e-2" fill-opacity="1.0" text-anchor="end"><text x="-0.75" y="0.33524871718756627">-0.4</text></g><g fill="#f0f0f0" stroke="none" stroke-width="0.0" font-size="5.0e-2" fill-opacity="1.0" text-anchor="end"><text x="-0.75" y="0.2504346719816801">-0.3</text></g><g fill="#f0f0f0" stroke="none" stroke-width="0.0" font-size="5.0e-2" fill-opacity="1.0" text-anchor="end"><text x="-0.75" y="0.16562062677579398">-0.2</text></g><g fill="#f0f0f0" stroke="none" stroke-width="0.0" font-size="5.0e-2" fill-opacity="1.0" text-anchor="end"><text x="-0.75" y="8.080658156990789e-2">-0.1</text></g><g fill="#f0f0f0" stroke="none" stroke-width="0.0" font-size="5.0e-2" fill-opacity="1.0" text-anchor="end"><text x="-0.75" y="-4.007463635978259e-3">0</text></g><g fill="#f0f0f0" stroke="none" stroke-width="0.0" font-size="5.0e-2" fill-opacity="1.0" text-anchor="end"><text x="-0.75" y="-8.882150884186446e-2">0.1</text></g><g fill="#f0f0f0" stroke="none" stroke-width="0.0" font-size="5.0e-2" fill-opacity="1.0" text-anchor="end"><text x="-0.75" y="-0.17363555404775055">0.2</text></g><g fill="#f0f0f0" stroke="none" stroke-width="0.0" font-size="5.0e-2" fill-opacity="1.0" text-anchor="end"><text x="-0.75" y="-0.25844959925363653">0.3</text></g><g fill="#f0f0f0" stroke="none" stroke-width="0.0" font-size="5.0e-2" fill-opacity="1.0" text-anchor="end"><text x="-0.75" y="-0.34326364445952273">0.4</text></g><g fill="#f0f0f0" stroke="none" stroke-width="0.0" font-size="5.0e-2" fill-opacity="1.0" text-anchor="end"><text x="-0.75" y="-0.4280776896654086">0.5</text></g><g stroke-opacity="0.4" fill="#f0f0f0" stroke="#f0f0f0" stroke-width="2.0e-3" fill-opacity="0.4"><g transform="rotate(-90.0, -0.7201161454354009, 0.4077647258385989)"><polyline points="-0.7201161454354009,0.4227647258385989
-0.7201161454354009,0.3927647258385989"/></g><g transform="rotate(-90.0, -0.7201161454354009, 0.32295068063271276)"><polyline points="-0.7201161454354009,0.3379506806327128
-0.7201161454354009,0.30795068063271275"/></g><g transform="rotate(-90.0, -0.7201161454354009, 0.23813663542682662)"><polyline points="-0.7201161454354009,0.25313663542682663
-0.7201161454354009,0.2231366354268266"/></g><g transform="rotate(-90.0, -0.7201161454354009, 0.15332259022094047)"><polyline points="-0.7201161454354009,0.16832259022094048
-0.7201161454354009,0.13832259022094046"/></g><g transform="rotate(-90.0, -0.7201161454354009, 6.850854501505443e-2)"><polyline points="-0.7201161454354009,8.350854501505443e-2
-0.7201161454354009,5.3508545015054435e-2"/></g><g transform="rotate(-90.0, -0.7201161454354009, -1.6305500190831768e-2)"><polyline points="-0.7201161454354009,-1.3055001908317682e-3
-0.7201161454354009,-3.130550019083177e-2"/></g><g transform="rotate(-90.0, -0.7201161454354009, -0.10111954539671786)"><polyline points="-0.7201161454354009,-8.611954539671786e-2
-0.7201161454354009,-0.11611954539671786"/></g><g transform="rotate(-90.0, -0.7201161454354009, -0.18593359060260406)"><polyline points="-0.7201161454354009,-0.17093359060260405
-0.7201161454354009,-0.20093359060260407"/></g><g transform="rotate(-90.0, -0.7201161454354009, -0.27074763580849015)"><polyline points="-0.7201161454354009,-0.25574763580849014
-0.7201161454354009,-0.28574763580849016"/></g><g transform="rotate(-90.0, -0.7201161454354009, -0.35556168101437624)"><polyline points="-0.7201161454354009,-0.3405616810143762
-0.7201161454354009,-0.37056168101437625"/></g><g transform="rotate(-90.0, -0.7201161454354009, -0.44037572622026233)"><polyline points="-0.7201161454354009,-0.4253757262202623
-0.7201161454354009,-0.45537572622026234"/></g></g><g stroke-opacity="0.0" fill="#f0f0f0" stroke="#000000" stroke-width="0.0" fill-opacity="0.4"><rect width="3.8522532471284565e-3" x="-0.7080778540381245" y="-0.44037572622026233" height="0.8481404520588612"/></g><g stroke-opacity="5.0e-2" fill="none" stroke="#f0f0f0" stroke-width="5.0e-3"><polyline points="-0.6945949676731749,0.4077647258385989
-0.6945949676731749,-0.44037572622026233"/><polyline points="-0.5501354709058575,0.4077647258385989
-0.5501354709058575,-0.44037572622026233"/><polyline points="-0.40567597413853984,0.4077647258385989
-0.40567597413853984,-0.44037572622026233"/><polyline points="-0.2612164773712222,0.4077647258385989
-0.2612164773712222,-0.44037572622026233"/><polyline points="-0.11675698060390471,0.4077647258385989
-0.11675698060390471,-0.44037572622026233"/><polyline points="2.770251616341257e-2,0.4077647258385989
2.770251616341257e-2,-0.44037572622026233"/><polyline points="0.1721620129307302,0.4077647258385989
0.1721620129307302,-0.44037572622026233"/><polyline points="0.3166215096980478,0.4077647258385989
0.3166215096980478,-0.44037572622026233"/><polyline points="0.4610810064653652,0.4077647258385989
0.4610810064653652,-0.44037572622026233"/><polyline points="0.6055405032326826,0.4077647258385989
0.6055405032326826,-0.44037572622026233"/><polyline points="0.75,0.4077647258385989
0.75,-0.44037572622026233"/></g><g fill="#f0f0f0" stroke="none" stroke-width="0.0" font-size="5.0e-2" fill-opacity="1.0" text-anchor="middle"><text x="-0.6945949676731749" y="0.5">-0.5</text></g><g fill="#f0f0f0" stroke="none" stroke-width="0.0" font-size="5.0e-2" fill-opacity="1.0" text-anchor="middle"><text x="-0.5501354709058575" y="0.5">-0.4</text></g><g fill="#f0f0f0" stroke="none" stroke-width="0.0" font-size="5.0e-2" fill-opacity="1.0" text-anchor="middle"><text x="-0.40567597413853984" y="0.5">-0.3</text></g><g fill="#f0f0f0" stroke="none" stroke-width="0.0" font-size="5.0e-2" fill-opacity="1.0" text-anchor="middle"><text x="-0.2612164773712222" y="0.5">-0.2</text></g><g fill="#f0f0f0" stroke="none" stroke-width="0.0" font-size="5.0e-2" fill-opacity="1.0" text-anchor="middle"><text x="-0.11675698060390471" y="0.5">-0.1</text></g><g fill="#f0f0f0" stroke="none" stroke-width="0.0" font-size="5.0e-2" fill-opacity="1.0" text-anchor="middle"><text x="2.770251616341257e-2" y="0.5">0</text></g><g fill="#f0f0f0" stroke="none" stroke-width="0.0" font-size="5.0e-2" fill-opacity="1.0" text-anchor="middle"><text x="0.1721620129307302" y="0.5">0.1</text></g><g fill="#f0f0f0" stroke="none" stroke-width="0.0" font-size="5.0e-2" fill-opacity="1.0" text-anchor="middle"><text x="0.3166215096980478" y="0.5">0.2</text></g><g fill="#f0f0f0" stroke="none" stroke-width="0.0" font-size="5.0e-2" fill-opacity="1.0" text-anchor="middle"><text x="0.4610810064653652" y="0.5">0.3</text></g><g fill="#f0f0f0" stroke="none" stroke-width="0.0" font-size="5.0e-2" fill-opacity="1.0" text-anchor="middle"><text x="0.6055405032326826" y="0.5">0.4</text></g><g fill="#f0f0f0" stroke="none" stroke-width="0.0" font-size="5.0e-2" fill-opacity="1.0" text-anchor="middle"><text x="0.75" y="0.5">0.5</text></g><g stroke-opacity="0.4" fill="#f0f0f0" stroke="#f0f0f0" stroke-width="2.0e-3" fill-opacity="0.4"><polyline points="-0.6945949676731749,0.44524044781815864
-0.6945949676731749,0.4152404478181586"/><polyline points="-0.5501354709058575,0.44524044781815864
-0.5501354709058575,0.4152404478181586"/><polyline points="-0.40567597413853984,0.44524044781815864
-0.40567597413853984,0.4152404478181586"/><polyline points="-0.2612164773712222,0.44524044781815864
-0.2612164773712222,0.4152404478181586"/><polyline points="-0.11675698060390471,0.44524044781815864
-0.11675698060390471,0.4152404478181586"/><polyline points="2.770251616341257e-2,0.44524044781815864
2.770251616341257e-2,0.4152404478181586"/><polyline points="0.1721620129307302,0.44524044781815864
0.1721620129307302,0.4152404478181586"/><polyline points="0.3166215096980478,0.44524044781815864
0.3166215096980478,0.4152404478181586"/><polyline points="0.4610810064653652,0.44524044781815864
0.4610810064653652,0.4152404478181586"/><polyline points="0.6055405032326826,0.44524044781815864
0.6055405032326826,0.4152404478181586"/><polyline points="0.75,0.44524044781815864
0.75,0.4152404478181586"/></g><g stroke-opacity="0.0" fill="#f0f0f0" stroke="#000000" stroke-width="0.0" fill-opacity="0.4"><rect width="1.4445949676731749" x="-0.6945949676731749" y="0.41624613035918745" height="3.392561808235439e-3"/></g><g></g><g stroke-opacity="1.0" fill="#f0f0f0" stroke="#f0f0f0" stroke-width="3.0e-3" fill-opacity="0.0"><rect width="0.6991839643538167" x="-1.1893831900509078e-3" y="-0.49363894660955854" height="0.532292947712141"/></g><g fill="#f0f0f0" stroke="none" stroke-width="0.0" font-size="4.8e-2" fill-opacity="1.0" text-anchor="start"><text x="2.770251616341257e-2" y="-8.163351851066647e-3">blank</text></g><g></g><g fill="#f0f0f0" stroke="none" stroke-width="0.0" font-size="4.8e-2" fill-opacity="1.0" text-anchor="start"><text x="2.770251616341257e-2" y="-9.26381408761292e-2">abcdefghijklmnopqrst</text></g><g stroke-opacity="1.0" fill="#a6cfe3" stroke="#1f78b5" stroke-width="3.0e-3" fill-opacity="1.0"><rect width="3.600000000000003e-2" x="0.5470918441378338" y="-0.11878028921589433" height="3.6000000000000004e-2"/></g><g fill="#f0f0f0" stroke="none" stroke-width="0.0" font-size="4.8e-2" fill-opacity="1.0" text-anchor="start"><text x="2.770251616341257e-2" y="-0.17711292990119176">line</text></g><g stroke-opacity="1.0" fill="none" stroke="#0d0d0d" stroke-width="1.2e-2"><polyline points="0.5477567045257556,-0.18525507824095677
0.6170972629740679,-0.18525507824095677"/></g><g fill="#f0f0f0" stroke="none" stroke-width="0.0" font-size="4.8e-2" fill-opacity="1.0" text-anchor="start"><text x="2.770251616341257e-2" y="-0.2615877189262543">text</text></g><g fill="#0d0d0d" stroke="none" stroke-width="0.0" font-size="3.6e-2" fill-opacity="1.0" text-anchor="start"><text x="0.5477567045257556" y="-0.26362325601119563">content</text></g><g fill="#f0f0f0" stroke="none" stroke-width="0.0" font-size="4.8e-2" fill-opacity="1.0" text-anchor="start"><text x="2.770251616341257e-2" y="-0.3460625079513169">rect</text></g><g stroke-opacity="1.0" fill="#1f78b5" stroke="#a6cfe3" stroke-width="3.0e-3" fill-opacity="1.0"><rect width="3.467027922415622e-2" x="0.5477567045257556" y="-0.3694711844281414" height="3.0533056274118953e-2"/></g><g fill="#f0f0f0" stroke="none" stroke-width="0.0" font-size="4.8e-2" fill-opacity="1.0" text-anchor="start"><text x="2.770251616341257e-2" y="-0.4305372969763793">glyph</text></g><g stroke-opacity="1.0" fill="#a6cfe3" stroke="#1f78b5" stroke-width="3.0e-3" fill-opacity="1.0"><rect width="3.600000000000003e-2" x="0.5470918441378336" y="-0.45667944531614446" height="3.600000000000003e-2"/></g><g></g></svg>