<?xml version="1.0" encoding="UTF-8"?>
<!DOCTYPE svg PUBLIC "-//W3C//DTD SVG 1.1//EN"
    "http://www.w3.org/Graphics/SVG/1.1/DTD/svg11.dtd">
<svg xmlns="http://www.w3.org/2000/svg" height="300.0" viewBox="-0.685 -0.52 1.37 1.04" width="399.0" xmlns:xlink="http://www.w3.org/1999/xlink" version="1.11.1">
  <style type="text/css">{ shape-rendering: &#39;crispEdges&#39;; }
  </style>
  <defs>
  </defs>
  <g transform="translate(0.0, -4.0e-2)" fill-opacity="0.2" font-size="8.0e-2" stroke="none" stroke-width="0.0" fill="#666666" text-anchor="middle">
    <text x="0.0" y="-0.0">0,0
    </text>
  </g>
  <g transform="translate(0.0, -4.0e-2)" fill-opacity="0.2" font-size="8.0e-2" stroke="none" stroke-width="0.0" fill="#666666" text-anchor="middle">
    <text x="0.0" y="-1.0">0,1
    </text>
  </g>
  <g transform="translate(0.0, -4.0e-2)" fill-opacity="0.2" font-size="8.0e-2" stroke="none" stroke-width="0.0" fill="#666666" text-anchor="middle">
    <text x="0.0" y="-2.0">0,2
    </text>
  </g>
  <g transform="translate(0.0, -4.0e-2)" fill-opacity="0.2" font-size="8.0e-2" stroke="none" stroke-width="0.0" fill="#666666" text-anchor="middle">
    <text x="0.0" y="-3.0">0,3
    </text>
  </g>
  <g transform="translate(0.0, -4.0e-2)" fill-opacity="0.2" font-size="8.0e-2" stroke="none" stroke-width="0.0" fill="#666666" text-anchor="middle">
    <text x="0.0" y="-4.0">0,4
    </text>
  </g>
  <g transform="translate(0.0, -4.0e-2)" fill-opacity="0.2" font-size="8.0e-2" stroke="none" stroke-width="0.0" fill="#666666" text-anchor="middle">
    <text x="0.0" y="-5.0">0,5
    </text>
  </g>
  <g transform="translate(0.0, -4.0e-2)" fill-opacity="0.2" font-size="8.0e-2" stroke="none" stroke-width="0.0" fill="#666666" text-anchor="middle">
    <text x="1.0" y="-0.0">1,0
    </text>
  </g>
  <g transform="translate(0.0, -4.0e-2)" fill-opacity="0.2" font-size="8.0e-2" stroke="none" stroke-width="0.0" fill="#666666" text-anchor="middle">
    <text x="1.0" y="-1.0">1,1
    </text>
  </g>
  <g transform="translate(0.0, -4.0e-2)" fill-opacity="0.2" font-size="8.0e-2" stroke="none" stroke-width="0.0" fill="#666666" text-anchor="middle">
    <text x="1.0" y="-2.0">1,2
    </text>
  </g>
  <g transform="translate(0.0, -4.0e-2)" fill-opacity="0.2" font-size="8.0e-2" stroke="none" stroke-width="0.0" fill="#666666" text-anchor="middle">
    <text x="1.0" y="-3.0">1,3
    </text>
  </g>
  <g transform="translate(0.0, -4.0e-2)" fill-opacity="0.2" font-size="8.0e-2" stroke="none" stroke-width="0.0" fill="#666666" text-anchor="middle">
    <text x="1.0" y="-4.0">1,4
    </text>
  </g>
  <g transform="translate(0.0, -4.0e-2)" fill-opacity="0.2" font-size="8.0e-2" stroke="none" stroke-width="0.0" fill="#666666" text-anchor="middle">
    <text x="1.0" y="-5.0">1,5
    </text>
  </g>
  <g transform="translate(0.0, -4.0e-2)" fill-opacity="0.2" font-size="8.0e-2" stroke="none" stroke-width="0.0" fill="#666666" text-anchor="middle">
    <text x="2.0" y="-0.0">2,0
    </text>
  </g>
  <g transform="translate(0.0, -4.0e-2)" fill-opacity="0.2" font-size="8.0e-2" stroke="none" stroke-width="0.0" fill="#666666" text-anchor="middle">
    <text x="2.0" y="-1.0">2,1
    </text>
  </g>
  <g transform="translate(0.0, -4.0e-2)" fill-opacity="0.2" font-size="8.0e-2" stroke="none" stroke-width="0.0" fill="#666666" text-anchor="middle">
    <text x="2.0" y="-2.0">2,2
    </text>
  </g>
  <g transform="translate(0.0, -4.0e-2)" fill-opacity="0.2" font-size="8.0e-2" stroke="none" stroke-width="0.0" fill="#666666" text-anchor="middle">
    <text x="2.0" y="-3.0">2,3
    </text>
  </g>
  <g transform="translate(0.0, -4.0e-2)" fill-opacity="0.2" font-size="8.0e-2" stroke="none" stroke-width="0.0" fill="#666666" text-anchor="middle">
    <text x="2.0" y="-4.0">2,4
    </text>
  </g>
  <g transform="translate(0.0, -4.0e-2)" fill-opacity="0.2" font-size="8.0e-2" stroke="none" stroke-width="0.0" fill="#666666" text-anchor="middle">
    <text x="2.0" y="-5.0">2,5
    </text>
  </g>
  <g transform="translate(0.0, -4.0e-2)" fill-opacity="0.2" font-size="8.0e-2" stroke="none" stroke-width="0.0" fill="#666666" text-anchor="middle">
    <text x="3.0" y="-0.0">3,0
    </text>
  </g>
  <g transform="translate(0.0, -4.0e-2)" fill-opacity="0.2" font-size="8.0e-2" stroke="none" stroke-width="0.0" fill="#666666" text-anchor="middle">
    <text x="3.0" y="-1.0">3,1
    </text>
  </g>
  <g transform="translate(0.0, -4.0e-2)" fill-opacity="0.2" font-size="8.0e-2" stroke="none" stroke-width="0.0" fill="#666666" text-anchor="middle">
    <text x="3.0" y="-2.0">3,2
    </text>
  </g>
  <g transform="translate(0.0, -4.0e-2)" fill-opacity="0.2" font-size="8.0e-2" stroke="none" stroke-width="0.0" fill="#666666" text-anchor="middle">
    <text x="3.0" y="-3.0">3,3
    </text>
  </g>
  <g transform="translate(0.0, -4.0e-2)" fill-opacity="0.2" font-size="8.0e-2" stroke="none" stroke-width="0.0" fill="#666666" text-anchor="middle">
    <text x="3.0" y="-4.0">3,4
    </text>
  </g>
  <g transform="translate(0.0, -4.0e-2)" fill-opacity="0.2" font-size="8.0e-2" stroke="none" stroke-width="0.0" fill="#666666" text-anchor="middle">
    <text x="3.0" y="-5.0">3,5
    </text>
  </g>
  <g transform="translate(0.0, -4.0e-2)" fill-opacity="0.2" font-size="8.0e-2" stroke="none" stroke-width="0.0" fill="#666666" text-anchor="middle">
    <text x="4.0" y="-0.0">4,0
    </text>
  </g>
  <g transform="translate(0.0, -4.0e-2)" fill-opacity="0.2" font-size="8.0e-2" stroke="none" stroke-width="0.0" fill="#666666" text-anchor="middle">
    <text x="4.0" y="-1.0">4,1
    </text>
  </g>
  <g transform="translate(0.0, -4.0e-2)" fill-opacity="0.2" font-size="8.0e-2" stroke="none" stroke-width="0.0" fill="#666666" text-anchor="middle">
    <text x="4.0" y="-2.0">4,2
    </text>
  </g>
  <g transform="translate(0.0, -4.0e-2)" fill-opacity="0.2" font-size="8.0e-2" stroke="none" stroke-width="0.0" fill="#666666" text-anchor="middle">
    <text x="4.0" y="-3.0">4,3
    </text>
  </g>
  <g transform="translate(0.0, -4.0e-2)" fill-opacity="0.2" font-size="8.0e-2" stroke="none" stroke-width="0.0" fill="#666666" text-anchor="middle">
    <text x="4.0" y="-4.0">4,4
    </text>
  </g>
  <g transform="translate(0.0, -4.0e-2)" fill-opacity="0.2" font-size="8.0e-2" stroke="none" stroke-width="0.0" fill="#666666" text-anchor="middle">
    <text x="4.0" y="-5.0">4,5
    </text>
  </g>
  <g transform="translate(0.0, -4.0e-2)" fill-opacity="0.2" font-size="8.0e-2" stroke="none" stroke-width="0.0" fill="#666666" text-anchor="middle">
    <text x="5.0" y="-0.0">5,0
    </text>
  </g>
  <g transform="translate(0.0, -4.0e-2)" fill-opacity="0.2" font-size="8.0e-2" stroke="none" stroke-width="0.0" fill="#666666" text-anchor="middle">
    <text x="5.0" y="-1.0">5,1
    </text>
  </g>
  <g transform="translate(0.0, -4.0e-2)" fill-opacity="0.2" font-size="8.0e-2" stroke="none" stroke-width="0.0" fill="#666666" text-anchor="middle">
    <text x="5.0" y="-2.0">5,2
    </text>
  </g>
  <g transform="translate(0.0, -4.0e-2)" fill-opacity="0.2" font-size="8.0e-2" stroke="none" stroke-width="0.0" fill="#666666" text-anchor="middle">
    <text x="5.0" y="-3.0">5,3
    </text>
  </g>
  <g transform="translate(0.0, -4.0e-2)" fill-opacity="0.2" font-size="8.0e-2" stroke="none" stroke-width="0.0" fill="#666666" text-anchor="middle">
    <text x="5.0" y="-4.0">5,4
    </text>
  </g>
  <g transform="translate(0.0, -4.0e-2)" fill-opacity="0.2" font-size="8.0e-2" stroke="none" stroke-width="0.0" fill="#666666" text-anchor="middle">
    <text x="5.0" y="-5.0">5,5
    </text>
  </g>
  <g stroke-opacity="0.4" fill-opacity="0.8" stroke="#2c429d" stroke-width="0.0" fill="#000000">
    <rect height="1.0e-2" width="1.0e-2" x="-5.0e-3" y="-5.0e-3"/>
  </g>
  <g stroke-opacity="0.4" fill-opacity="0.8" stroke="#2c429d" stroke-width="0.0" fill="#000000">
    <rect height="9.999999999999898e-3" width="1.0e-2" x="-5.0e-3" y="-1.005"/>
  </g>
  <g stroke-opacity="0.4" fill-opacity="0.8" stroke="#2c429d" stroke-width="0.0" fill="#000000">
    <rect height="9.999999999999787e-3" width="1.0e-2" x="-5.0e-3" y="-2.005"/>
  </g>
  <g stroke-opacity="0.4" fill-opacity="0.8" stroke="#2c429d" stroke-width="0.0" fill="#000000">
    <rect height="9.999999999999787e-3" width="1.0e-2" x="-5.0e-3" y="-3.005"/>
  </g>
  <g stroke-opacity="0.4" fill-opacity="0.8" stroke="#2c429d" stroke-width="0.0" fill="#000000">
    <rect height="9.999999999999787e-3" width="1.0e-2" x="-5.0e-3" y="-4.005"/>
  </g>
  <g stroke-opacity="0.4" fill-opacity="0.8" stroke="#2c429d" stroke-width="0.0" fill="#000000">
    <rect height="9.999999999999787e-3" width="1.0e-2" x="-5.0e-3" y="-5.005"/>
  </g>
  <g stroke-opacity="0.4" fill-opacity="0.8" stroke="#2c429d" stroke-width="0.0" fill="#000000">
    <rect height="1.0e-2" width="9.999999999999898e-3" x="0.995" y="-5.0e-3"/>
  </g>
  <g stroke-opacity="0.4" fill-opacity="0.8" stroke="#2c429d" stroke-width="0.0" fill="#000000">
    <rect height="9.999999999999898e-3" width="9.999999999999898e-3" x="0.995" y="-1.005"/>
  </g>
  <g stroke-opacity="0.4" fill-opacity="0.8" stroke="#2c429d" stroke-width="0.0" fill="#000000">
    <rect height="9.999999999999787e-3" width="9.999999999999898e-3" x="0.995" y="-2.005"/>
  </g>
  <g stroke-opacity="0.4" fill-opacity="0.8" stroke="#2c429d" stroke-width="0.0" fill="#000000">
    <rect height="9.999999999999787e-3" width="9.999999999999898e-3" x="0.995" y="-3.005"/>
  </g>
  <g stroke-opacity="0.4" fill-opacity="0.8" stroke="#2c429d" stroke-width="0.0" fill="#000000">
    <rect height="9.999999999999787e-3" width="9.999999999999898e-3" x="0.995" y="-4.005"/>
  </g>
  <g stroke-opacity="0.4" fill-opacity="0.8" stroke="#2c429d" stroke-width="0.0" fill="#000000">
    <rect height="9.999999999999787e-3" width="9.999999999999898e-3" x="0.995" y="-5.005"/>
  </g>
  <g stroke-opacity="0.4" fill-opacity="0.8" stroke="#2c429d" stroke-width="0.0" fill="#000000">
    <rect height="1.0e-2" width="9.999999999999787e-3" x="1.995" y="-5.0e-3"/>
  </g>
  <g stroke-opacity="0.4" fill-opacity="0.8" stroke="#2c429d" stroke-width="0.0" fill="#000000">
    <rect height="9.999999999999898e-3" width="9.999999999999787e-3" x="1.995" y="-1.005"/>
  </g>
  <g stroke-opacity="0.4" fill-opacity="0.8" stroke="#2c429d" stroke-width="0.0" fill="#000000">
    <rect height="9.999999999999787e-3" width="9.999999999999787e-3" x="1.995" y="-2.005"/>
  </g>
  <g stroke-opacity="0.4" fill-opacity="0.8" stroke="#2c429d" stroke-width="0.0" fill="#000000">
    <rect height="9.999999999999787e-3" width="9.999999999999787e-3" x="1.995" y="-3.005"/>
  </g>
  <g stroke-opacity="0.4" fill-opacity="0.8" stroke="#2c429d" stroke-width="0.0" fill="#000000">
    <rect height="9.999999999999787e-3" width="9.999999999999787e-3" x="1.995" y="-4.005"/>
  </g>
  <g stroke-opacity="0.4" fill-opacity="0.8" stroke="#2c429d" stroke-width="0.0" fill="#000000">
    <rect height="9.999999999999787e-3" width="9.999999999999787e-3" x="1.995" y="-5.005"/>
  </g>
  <g stroke-opacity="0.4" fill-opacity="0.8" stroke="#2c429d" stroke-width="0.0" fill="#000000">
    <rect height="1.0e-2" width="9.999999999999787e-3" x="2.995" y="-5.0e-3"/>
  </g>
  <g stroke-opacity="0.4" fill-opacity="0.8" stroke="#2c429d" stroke-width="0.0" fill="#000000">
    <rect height="9.999999999999898e-3" width="9.999999999999787e-3" x="2.995" y="-1.005"/>
  </g>
  <g stroke-opacity="0.4" fill-opacity="0.8" stroke="#2c429d" stroke-width="0.0" fill="#000000">
    <rect height="9.999999999999787e-3" width="9.999999999999787e-3" x="2.995" y="-2.005"/>
  </g>
  <g stroke-opacity="0.4" fill-opacity="0.8" stroke="#2c429d" stroke-width="0.0" fill="#000000">
    <rect height="9.999999999999787e-3" width="9.999999999999787e-3" x="2.995" y="-3.005"/>
  </g>
  <g stroke-opacity="0.4" fill-opacity="0.8" stroke="#2c429d" stroke-width="0.0" fill="#000000">
    <rect height="9.999999999999787e-3" width="9.999999999999787e-3" x="2.995" y="-4.005"/>
  </g>
  <g stroke-opacity="0.4" fill-opacity="0.8" stroke="#2c429d" stroke-width="0.0" fill="#000000">
    <rect height="9.999999999999787e-3" width="9.999999999999787e-3" x="2.995" y="-5.005"/>
  </g>
  <g stroke-opacity="0.4" fill-opacity="0.8" stroke="#2c429d" stroke-width="0.0" fill="#000000">
    <rect height="1.0e-2" width="9.999999999999787e-3" x="3.995" y="-5.0e-3"/>
  </g>
  <g stroke-opacity="0.4" fill-opacity="0.8" stroke="#2c429d" stroke-width="0.0" fill="#000000">
    <rect height="9.999999999999898e-3" width="9.999999999999787e-3" x="3.995" y="-1.005"/>
  </g>
  <g stroke-opacity="0.4" fill-opacity="0.8" stroke="#2c429d" stroke-width="0.0" fill="#000000">
    <rect height="9.999999999999787e-3" width="9.999999999999787e-3" x="3.995" y="-2.005"/>
  </g>
  <g stroke-opacity="0.4" fill-opacity="0.8" stroke="#2c429d" stroke-width="0.0" fill="#000000">
    <rect height="9.999999999999787e-3" width="9.999999999999787e-3" x="3.995" y="-3.005"/>
  </g>
  <g stroke-opacity="0.4" fill-opacity="0.8" stroke="#2c429d" stroke-width="0.0" fill="#000000">
    <rect height="9.999999999999787e-3" width="9.999999999999787e-3" x="3.995" y="-4.005"/>
  </g>
  <g stroke-opacity="0.4" fill-opacity="0.8" stroke="#2c429d" stroke-width="0.0" fill="#000000">
    <rect height="9.999999999999787e-3" width="9.999999999999787e-3" x="3.995" y="-5.005"/>
  </g>
  <g stroke-opacity="0.4" fill-opacity="0.8" stroke="#2c429d" stroke-width="0.0" fill="#000000">
    <rect height="1.0e-2" width="9.999999999999787e-3" x="4.995" y="-5.0e-3"/>
  </g>
  <g stroke-opacity="0.4" fill-opacity="0.8" stroke="#2c429d" stroke-width="0.0" fill="#000000">
    <rect height="9.999999999999898e-3" width="9.999999999999787e-3" x="4.995" y="-1.005"/>
  </g>
  <g stroke-opacity="0.4" fill-opacity="0.8" stroke="#2c429d" stroke-width="0.0" fill="#000000">
    <rect height="9.999999999999787e-3" width="9.999999999999787e-3" x="4.995" y="-2.005"/>
  </g>
  <g stroke-opacity="0.4" fill-opacity="0.8" stroke="#2c429d" stroke-width="0.0" fill="#000000">
    <rect height="9.999999999999787e-3" width="9.999999999999787e-3" x="4.995" y="-3.005"/>
  </g>
  <g stroke-opacity="0.4" fill-opacity="0.8" stroke="#2c429d" stroke-width="0.0" fill="#000000">
    <rect height="9.999999999999787e-3" width="9.999999999999787e-3" x="4.995" y="-4.005"/>
  </g>
  <g stroke-opacity="0.4" fill-opacity="0.8" stroke="#2c429d" stroke-width="0.0" fill="#000000">
    <rect height="9.999999999999787e-3" width="9.999999999999787e-3" x="4.995" y="-5.005"/>
  </g>
</svg>