<svg viewBox="-0.9281999999999999 -0.6426000000000001 1.8563999999999998 1.1577000000000002" xmlns="http://www.w3.org/2000/svg" xmlns:xlink="http://www.w3.org/1999/xlink" version="1.1" width="800.0" height="600.0"><g stroke-width="0.0" stroke="none" fill="#666666" transform="translate(0.0, -4.0e-2)" fill-opacity="0.2" font-size="8.0e-2" text-anchor="middle"><text x="-0.85" y="0.5">0,0</text></g><g stroke-width="0.0" stroke="none" fill="#666666" transform="translate(0.0, -4.0e-2)" fill-opacity="0.2" font-size="8.0e-2" text-anchor="middle"><text x="-0.85" y="0.3">0,1</text></g><g stroke-width="0.0" stroke="none" fill="#666666" transform="translate(0.0, -4.0e-2)" fill-opacity="0.2" font-size="8.0e-2" text-anchor="middle"><text x="-0.85" y="9.999999999999998e-2">0,2</text></g><g stroke-width="0.0" stroke="none" fill="#666666" transform="translate(0.0, -4.0e-2)" fill-opacity="0.2" font-size="8.0e-2" text-anchor="middle"><text x="-0.85" y="-0.10000000000000009">0,3</text></g><g stroke-width="0.0" stroke="none" fill="#666666" transform="translate(0.0, -4.0e-2)" fill-opacity="0.2" font-size="8.0e-2" text-anchor="middle"><text x="-0.85" y="-0.30000000000000004">0,4</text></g><g stroke-width="0.0" stroke="none" fill="#666666" transform="translate(0.0, -4.0e-2)" fill-opacity="0.2" font-size="8.0e-2" text-anchor="middle"><text x="-0.85" y="-0.5">0,5</text></g><g stroke-width="0.0" stroke="none" fill="#666666" transform="translate(0.0, -4.0e-2)" fill-opacity="0.2" font-size="8.0e-2" text-anchor="middle"><text x="-0.51" y="0.5">1,0</text></g><g stroke-width="0.0" stroke="none" fill="#666666" transform="translate(0.0, -4.0e-2)" fill-opacity="0.2" font-size="8.0e-2" text-anchor="middle"><text x="-0.51" y="0.3">1,1</text></g><g stroke-width="0.0" stroke="none" fill="#666666" transform="translate(0.0, -4.0e-2)" fill-opacity="0.2" font-size="8.0e-2" text-anchor="middle"><text x="-0.51" y="9.999999999999998e-2">1,2</text></g><g stroke-width="0.0" stroke="none" fill="#666666" transform="translate(0.0, -4.0e-2)" fill-opacity="0.2" font-size="8.0e-2" text-anchor="middle"><text x="-0.51" y="-0.10000000000000009">1,3</text></g><g stroke-width="0.0" stroke="none" fill="#666666" transform="translate(0.0, -4.0e-2)" fill-opacity="0.2" font-size="8.0e-2" text-anchor="middle"><text x="-0.51" y="-0.30000000000000004">1,4</text></g><g stroke-width="0.0" stroke="none" fill="#666666" transform="translate(0.0, -4.0e-2)" fill-opacity="0.2" font-size="8.0e-2" text-anchor="middle"><text x="-0.51" y="-0.5">1,5</text></g><g stroke-width="0.0" stroke="none" fill="#666666" transform="translate(0.0, -4.0e-2)" fill-opacity="0.2" font-size="8.0e-2" text-anchor="middle"><text x="-0.16999999999999993" y="0.5">2,0</text></g><g stroke-width="0.0" stroke="none" fill="#666666" transform="translate(0.0, -4.0e-2)" fill-opacity="0.2" font-size="8.0e-2" text-anchor="middle"><text x="-0.16999999999999993" y="0.3">2,1</text></g><g stroke-width="0.0" stroke="none" fill="#666666" transform="translate(0.0, -4.0e-2)" fill-opacity="0.2" font-size="8.0e-2" text-anchor="middle"><text x="-0.16999999999999993" y="9.999999999999998e-2">2,2</text></g><g stroke-width="0.0" stroke="none" fill="#666666" transform="translate(0.0, -4.0e-2)" fill-opacity="0.2" font-size="8.0e-2" text-anchor="middle"><text x="-0.16999999999999993" y="-0.10000000000000009">2,3</text></g><g stroke-width="0.0" stroke="none" fill="#666666" transform="translate(0.0, -4.0e-2)" fill-opacity="0.2" font-size="8.0e-2" text-anchor="middle"><text x="-0.16999999999999993" y="-0.30000000000000004">2,4</text></g><g stroke-width="0.0" stroke="none" fill="#666666" transform="translate(0.0, -4.0e-2)" fill-opacity="0.2" font-size="8.0e-2" text-anchor="middle"><text x="-0.16999999999999993" y="-0.5">2,5</text></g><g stroke-width="0.0" stroke="none" fill="#666666" transform="translate(0.0, -4.0e-2)" fill-opacity="0.2" font-size="8.0e-2" text-anchor="middle"><text x="0.17000000000000004" y="0.5">3,0</text></g><g stroke-width="0.0" stroke="none" fill="#666666" transform="translate(0.0, -4.0e-2)" fill-opacity="0.2" font-size="8.0e-2" text-anchor="middle"><text x="0.17000000000000004" y="0.3">3,1</text></g><g stroke-width="0.0" stroke="none" fill="#666666" transform="translate(0.0, -4.0e-2)" fill-opacity="0.2" font-size="8.0e-2" text-anchor="middle"><text x="0.17000000000000004" y="9.999999999999998e-2">3,2</text></g><g stroke-width="0.0" stroke="none" fill="#666666" transform="translate(0.0, -4.0e-2)" fill-opacity="0.2" font-size="8.0e-2" text-anchor="middle"><text x="0.17000000000000004" y="-0.10000000000000009">3,3</text></g><g stroke-width="0.0" stroke="none" fill="#666666" transform="translate(0.0, -4.0e-2)" fill-opacity="0.2" font-size="8.0e-2" text-anchor="middle"><text x="0.17000000000000004" y="-0.30000000000000004">3,4</text></g><g stroke-width="0.0" stroke="none" fill="#666666" transform="translate(0.0, -4.0e-2)" fill-opacity="0.2" font-size="8.0e-2" text-anchor="middle"><text x="0.17000000000000004" y="-0.5">3,5</text></g><g stroke-width="0.0" stroke="none" fill="#666666" transform="translate(0.0, -4.0e-2)" fill-opacity="0.2" font-size="8.0e-2" text-anchor="middle"><text x="0.5100000000000001" y="0.5">4,0</text></g><g stroke-width="0.0" stroke="none" fill="#666666" transform="translate(0.0, -4.0e-2)" fill-opacity="0.2" font-size="8.0e-2" text-anchor="middle"><text x="0.5100000000000001" y="0.3">4,1</text></g><g stroke-width="0.0" stroke="none" fill="#666666" transform="translate(0.0, -4.0e-2)" fill-opacity="0.2" font-size="8.0e-2" text-anchor="middle"><text x="0.5100000000000001" y="9.999999999999998e-2">4,2</text></g><g stroke-width="0.0" stroke="none" fill="#666666" transform="translate(0.0, -4.0e-2)" fill-opacity="0.2" font-size="8.0e-2" text-anchor="middle"><text x="0.5100000000000001" y="-0.10000000000000009">4,3</text></g><g stroke-width="0.0" stroke="none" fill="#666666" transform="translate(0.0, -4.0e-2)" fill-opacity="0.2" font-size="8.0e-2" text-anchor="middle"><text x="0.5100000000000001" y="-0.30000000000000004">4,4</text></g><g stroke-width="0.0" stroke="none" fill="#666666" transform="translate(0.0, -4.0e-2)" fill-opacity="0.2" font-size="8.0e-2" text-anchor="middle"><text x="0.5100000000000001" y="-0.5">4,5</text></g><g stroke-width="0.0" stroke="none" fill="#666666" transform="translate(0.0, -4.0e-2)" fill-opacity="0.2" font-size="8.0e-2" text-anchor="middle"><text x="0.85" y="0.5">5,0</text></g><g stroke-width="0.0" stroke="none" fill="#666666" transform="translate(0.0, -4.0e-2)" fill-opacity="0.2" font-size="8.0e-2" text-anchor="middle"><text x="0.85" y="0.3">5,1</text></g><g stroke-width="0.0" stroke="none" fill="#666666" transform="translate(0.0, -4.0e-2)" fill-opacity="0.2" font-size="8.0e-2" text-anchor="middle"><text x="0.85" y="9.999999999999998e-2">5,2</text></g><g stroke-width="0.0" stroke="none" fill="#666666" transform="translate(0.0, -4.0e-2)" fill-opacity="0.2" font-size="8.0e-2" text-anchor="middle"><text x="0.85" y="-0.10000000000000009">5,3</text></g><g stroke-width="0.0" stroke="none" fill="#666666" transform="translate(0.0, -4.0e-2)" fill-opacity="0.2" font-size="8.0e-2" text-anchor="middle"><text x="0.85" y="-0.30000000000000004">5,4</text></g><g stroke-width="0.0" stroke="none" fill="#666666" transform="translate(0.0, -4.0e-2)" fill-opacity="0.2" font-size="8.0e-2" text-anchor="middle"><text x="0.85" y="-0.5">5,5</text></g><g stroke-width="0.0" stroke="#2C429D" fill="#000000" fill-opacity="0.8" stroke-opacity="0.4"><rect width="1.0000000000000009e-2" height="1.0000000000000009e-2" x="-0.855" y="0.495" /></g><g stroke-width="0.0" stroke="#2C429D" fill="#000000" fill-opacity="0.8" stroke-opacity="0.4"><rect width="1.0000000000000009e-2" height="1.0000000000000009e-2" x="-0.855" y="0.295" /></g><g stroke-width="0.0" stroke="#2C429D" fill="#000000" fill-opacity="0.8" stroke-opacity="0.4"><rect width="1.0000000000000009e-2" height="1.0000000000000009e-2" x="-0.855" y="9.499999999999997e-2" /></g><g stroke-width="0.0" stroke="#2C429D" fill="#000000" fill-opacity="0.8" stroke-opacity="0.4"><rect width="1.0000000000000009e-2" height="1.0000000000000009e-2" x="-0.855" y="-0.1050000000000001" /></g><g stroke-width="0.0" stroke="#2C429D" fill="#000000" fill-opacity="0.8" stroke-opacity="0.4"><rect width="1.0000000000000009e-2" height="1.0000000000000009e-2" x="-0.855" y="-0.30500000000000005" /></g><g stroke-width="0.0" stroke="#2C429D" fill="#000000" fill-opacity="0.8" stroke-opacity="0.4"><rect width="1.0000000000000009e-2" height="1.0000000000000009e-2" x="-0.855" y="-0.505" /></g><g stroke-width="0.0" stroke="#2C429D" fill="#000000" fill-opacity="0.8" stroke-opacity="0.4"><rect width="1.0000000000000009e-2" height="1.0000000000000009e-2" x="-0.515" y="0.495" /></g><g stroke-width="0.0" stroke="#2C429D" fill="#000000" fill-opacity="0.8" stroke-opacity="0.4"><rect width="1.0000000000000009e-2" height="1.0000000000000009e-2" x="-0.515" y="0.295" /></g><g stroke-width="0.0" stroke="#2C429D" fill="#000000" fill-opacity="0.8" stroke-opacity="0.4"><rect width="1.0000000000000009e-2" height="1.0000000000000009e-2" x="-0.515" y="9.499999999999997e-2" /></g><g stroke-width="0.0" stroke="#2C429D" fill="#000000" fill-opacity="0.8" stroke-opacity="0.4"><rect width="1.0000000000000009e-2" height="1.0000000000000009e-2" x="-0.515" y="-0.1050000000000001" /></g><g stroke-width="0.0" stroke="#2C429D" fill="#000000" fill-opacity="0.8" stroke-opacity="0.4"><rect width="1.0000000000000009e-2" height="1.0000000000000009e-2" x="-0.515" y="-0.30500000000000005" /></g><g stroke-width="0.0" stroke="#2C429D" fill="#000000" fill-opacity="0.8" stroke-opacity="0.4"><rect width="1.0000000000000009e-2" height="1.0000000000000009e-2" x="-0.515" y="-0.505" /></g><g stroke-width="0.0" stroke="#2C429D" fill="#000000" fill-opacity="0.8" stroke-opacity="0.4"><rect width="1.0000000000000009e-2" height="1.0000000000000009e-2" x="-0.17499999999999993" y="0.495" /></g><g stroke-width="0.0" stroke="#2C429D" fill="#000000" fill-opacity="0.8" stroke-opacity="0.4"><rect width="1.0000000000000009e-2" height="1.0000000000000009e-2" x="-0.17499999999999993" y="0.295" /></g><g stroke-width="0.0" stroke="#2C429D" fill="#000000" fill-opacity="0.8" stroke-opacity="0.4"><rect width="1.0000000000000009e-2" height="1.0000000000000009e-2" x="-0.17499999999999993" y="9.499999999999997e-2" /></g><g stroke-width="0.0" stroke="#2C429D" fill="#000000" fill-opacity="0.8" stroke-opacity="0.4"><rect width="1.0000000000000009e-2" height="1.0000000000000009e-2" x="-0.17499999999999993" y="-0.1050000000000001" /></g><g stroke-width="0.0" stroke="#2C429D" fill="#000000" fill-opacity="0.8" stroke-opacity="0.4"><rect width="1.0000000000000009e-2" height="1.0000000000000009e-2" x="-0.17499999999999993" y="-0.30500000000000005" /></g><g stroke-width="0.0" stroke="#2C429D" fill="#000000" fill-opacity="0.8" stroke-opacity="0.4"><rect width="1.0000000000000009e-2" height="1.0000000000000009e-2" x="-0.17499999999999993" y="-0.505" /></g><g stroke-width="0.0" stroke="#2C429D" fill="#000000" fill-opacity="0.8" stroke-opacity="0.4"><rect width="1.0000000000000009e-2" height="1.0000000000000009e-2" x="0.16500000000000004" y="0.495" /></g><g stroke-width="0.0" stroke="#2C429D" fill="#000000" fill-opacity="0.8" stroke-opacity="0.4"><rect width="1.0000000000000009e-2" height="1.0000000000000009e-2" x="0.16500000000000004" y="0.295" /></g><g stroke-width="0.0" stroke="#2C429D" fill="#000000" fill-opacity="0.8" stroke-opacity="0.4"><rect width="1.0000000000000009e-2" height="1.0000000000000009e-2" x="0.16500000000000004" y="9.499999999999997e-2" /></g><g stroke-width="0.0" stroke="#2C429D" fill="#000000" fill-opacity="0.8" stroke-opacity="0.4"><rect width="1.0000000000000009e-2" height="1.0000000000000009e-2" x="0.16500000000000004" y="-0.1050000000000001" /></g><g stroke-width="0.0" stroke="#2C429D" fill="#000000" fill-opacity="0.8" stroke-opacity="0.4"><rect width="1.0000000000000009e-2" height="1.0000000000000009e-2" x="0.16500000000000004" y="-0.30500000000000005" /></g><g stroke-width="0.0" stroke="#2C429D" fill="#000000" fill-opacity="0.8" stroke-opacity="0.4"><rect width="1.0000000000000009e-2" height="1.0000000000000009e-2" x="0.16500000000000004" y="-0.505" /></g><g stroke-width="0.0" stroke="#2C429D" fill="#000000" fill-opacity="0.8" stroke-opacity="0.4"><rect width="1.0000000000000009e-2" height="1.0000000000000009e-2" x="0.5050000000000001" y="0.495" /></g><g stroke-width="0.0" stroke="#2C429D" fill="#000000" fill-opacity="0.8" stroke-opacity="0.4"><rect width="1.0000000000000009e-2" height="1.0000000000000009e-2" x="0.5050000000000001" y="0.295" /></g><g stroke-width="0.0" stroke="#2C429D" fill="#000000" fill-opacity="0.8" stroke-opacity="0.4"><rect width="1.0000000000000009e-2" height="1.0000000000000009e-2" x="0.5050000000000001" y="9.499999999999997e-2" /></g><g stroke-width="0.0" stroke="#2C429D" fill="#000000" fill-opacity="0.8" stroke-opacity="0.4"><rect width="1.0000000000000009e-2" height="1.0000000000000009e-2" x="0.5050000000000001" y="-0.1050000000000001" /></g><g stroke-width="0.0" stroke="#2C429D" fill="#000000" fill-opacity="0.8" stroke-opacity="0.4"><rect width="1.0000000000000009e-2" height="1.0000000000000009e-2" x="0.5050000000000001" y="-0.30500000000000005" /></g><g stroke-width="0.0" stroke="#2C429D" fill="#000000" fill-opacity="0.8" stroke-opacity="0.4"><rect width="1.0000000000000009e-2" height="1.0000000000000009e-2" x="0.5050000000000001" y="-0.505" /></g><g stroke-width="0.0" stroke="#2C429D" fill="#000000" fill-opacity="0.8" stroke-opacity="0.4"><rect width="1.0000000000000009e-2" height="1.0000000000000009e-2" x="0.845" y="0.495" /></g><g stroke-width="0.0" stroke="#2C429D" fill="#000000" fill-opacity="0.8" stroke-opacity="0.4"><rect width="1.0000000000000009e-2" height="1.0000000000000009e-2" x="0.845" y="0.295" /></g><g stroke-width="0.0" stroke="#2C429D" fill="#000000" fill-opacity="0.8" stroke-opacity="0.4"><rect width="1.0000000000000009e-2" height="1.0000000000000009e-2" x="0.845" y="9.499999999999997e-2" /></g><g stroke-width="0.0" stroke="#2C429D" fill="#000000" fill-opacity="0.8" stroke-opacity="0.4"><rect width="1.0000000000000009e-2" height="1.0000000000000009e-2" x="0.845" y="-0.1050000000000001" /></g><g stroke-width="0.0" stroke="#2C429D" fill="#000000" fill-opacity="0.8" stroke-opacity="0.4"><rect width="1.0000000000000009e-2" height="1.0000000000000009e-2" x="0.845" y="-0.30500000000000005" /></g><g stroke-width="0.0" stroke="#2C429D" fill="#000000" fill-opacity="0.8" stroke-opacity="0.4"><rect width="1.0000000000000009e-2" height="1.0000000000000009e-2" x="0.845" y="-0.505" /></g></svg>