<svg xmlns="http://www.w3.org/2000/svg" height="300.0" viewBox="-0.8300000000000001 -0.634 1.6600000000000001 1.159" width="429.6807592752373" xmlns:xlink="http://www.w3.org/1999/xlink"><g transform="translate(0.0, -4.0e-2)" fill-opacity="0.2" font-size="8.0e-2" stroke="none" stroke-width="0.0" fill="#333333" text-anchor="middle"><text x="-0.75" y="0.5">0,0</text></g><g transform="translate(0.0, -4.0e-2)" fill-opacity="0.2" font-size="8.0e-2" stroke="none" stroke-width="0.0" fill="#333333" text-anchor="middle"><text x="-0.75" y="0.30000000000000004">0,1</text></g><g transform="translate(0.0, -4.0e-2)" fill-opacity="0.2" font-size="8.0e-2" stroke="none" stroke-width="0.0" fill="#333333" text-anchor="middle"><text x="-0.75" y="0.10000000000000003">0,2</text></g><g transform="translate(0.0, -4.0e-2)" fill-opacity="0.2" font-size="8.0e-2" stroke="none" stroke-width="0.0" fill="#333333" text-anchor="middle"><text x="-0.75" y="-0.10000000000000009">0,3</text></g><g transform="translate(0.0, -4.0e-2)" fill-opacity="0.2" font-size="8.0e-2" stroke="none" stroke-width="0.0" fill="#333333" text-anchor="middle"><text x="-0.75" y="-0.29999999999999993">0,4</text></g><g transform="translate(0.0, -4.0e-2)" fill-opacity="0.2" font-size="8.0e-2" stroke="none" stroke-width="0.0" fill="#333333" text-anchor="middle"><text x="-0.75" y="-0.5">0,5</text></g><g transform="translate(0.0, -4.0e-2)" fill-opacity="0.2" font-size="8.0e-2" stroke="none" stroke-width="0.0" fill="#333333" text-anchor="middle"><text x="-0.44999999999999996" y="0.5">1,0</text></g><g transform="translate(0.0, -4.0e-2)" fill-opacity="0.2" font-size="8.0e-2" stroke="none" stroke-width="0.0" fill="#333333" text-anchor="middle"><text x="-0.44999999999999996" y="0.30000000000000004">1,1</text></g><g transform="translate(0.0, -4.0e-2)" fill-opacity="0.2" font-size="8.0e-2" stroke="none" stroke-width="0.0" fill="#333333" text-anchor="middle"><text x="-0.44999999999999996" y="0.10000000000000003">1,2</text></g><g transform="translate(0.0, -4.0e-2)" fill-opacity="0.2" font-size="8.0e-2" stroke="none" stroke-width="0.0" fill="#333333" text-anchor="middle"><text x="-0.44999999999999996" y="-0.10000000000000009">1,3</text></g><g transform="translate(0.0, -4.0e-2)" fill-opacity="0.2" font-size="8.0e-2" stroke="none" stroke-width="0.0" fill="#333333" text-anchor="middle"><text x="-0.44999999999999996" y="-0.29999999999999993">1,4</text></g><g transform="translate(0.0, -4.0e-2)" fill-opacity="0.2" font-size="8.0e-2" stroke="none" stroke-width="0.0" fill="#333333" text-anchor="middle"><text x="-0.44999999999999996" y="-0.5">1,5</text></g><g transform="translate(0.0, -4.0e-2)" fill-opacity="0.2" font-size="8.0e-2" stroke="none" stroke-width="0.0" fill="#333333" text-anchor="middle"><text x="-0.1499999999999999" y="0.5">2,0</text></g><g transform="translate(0.0, -4.0e-2)" fill-opacity="0.2" font-size="8.0e-2" stroke="none" stroke-width="0.0" fill="#333333" text-anchor="middle"><text x="-0.1499999999999999" y="0.30000000000000004">2,1</text></g><g transform="translate(0.0, -4.0e-2)" fill-opacity="0.2" font-size="8.0e-2" stroke="none" stroke-width="0.0" fill="#333333" text-anchor="middle"><text x="-0.1499999999999999" y="0.10000000000000003">2,2</text></g><g transform="translate(0.0, -4.0e-2)" fill-opacity="0.2" font-size="8.0e-2" stroke="none" stroke-width="0.0" fill="#333333" text-anchor="middle"><text x="-0.1499999999999999" y="-0.10000000000000009">2,3</text></g><g transform="translate(0.0, -4.0e-2)" fill-opacity="0.2" font-size="8.0e-2" stroke="none" stroke-width="0.0" fill="#333333" text-anchor="middle"><text x="-0.1499999999999999" y="-0.29999999999999993">2,4</text></g><g transform="translate(0.0, -4.0e-2)" fill-opacity="0.2" font-size="8.0e-2" stroke="none" stroke-width="0.0" fill="#333333" text-anchor="middle"><text x="-0.1499999999999999" y="-0.5">2,5</text></g><g transform="translate(0.0, -4.0e-2)" fill-opacity="0.2" font-size="8.0e-2" stroke="none" stroke-width="0.0" fill="#333333" text-anchor="middle"><text x="0.15000000000000013" y="0.5">3,0</text></g><g transform="translate(0.0, -4.0e-2)" fill-opacity="0.2" font-size="8.0e-2" stroke="none" stroke-width="0.0" fill="#333333" text-anchor="middle"><text x="0.15000000000000013" y="0.30000000000000004">3,1</text></g><g transform="translate(0.0, -4.0e-2)" fill-opacity="0.2" font-size="8.0e-2" stroke="none" stroke-width="0.0" fill="#333333" text-anchor="middle"><text x="0.15000000000000013" y="0.10000000000000003">3,2</text></g><g transform="translate(0.0, -4.0e-2)" fill-opacity="0.2" font-size="8.0e-2" stroke="none" stroke-width="0.0" fill="#333333" text-anchor="middle"><text x="0.15000000000000013" y="-0.10000000000000009">3,3</text></g><g transform="translate(0.0, -4.0e-2)" fill-opacity="0.2" font-size="8.0e-2" stroke="none" stroke-width="0.0" fill="#333333" text-anchor="middle"><text x="0.15000000000000013" y="-0.29999999999999993">3,4</text></g><g transform="translate(0.0, -4.0e-2)" fill-opacity="0.2" font-size="8.0e-2" stroke="none" stroke-width="0.0" fill="#333333" text-anchor="middle"><text x="0.15000000000000013" y="-0.5">3,5</text></g><g transform="translate(0.0, -4.0e-2)" fill-opacity="0.2" font-size="8.0e-2" stroke="none" stroke-width="0.0" fill="#333333" text-anchor="middle"><text x="0.4500000000000002" y="0.5">4,0</text></g><g transform="translate(0.0, -4.0e-2)" fill-opacity="0.2" font-size="8.0e-2" stroke="none" stroke-width="0.0" fill="#333333" text-anchor="middle"><text x="0.4500000000000002" y="0.30000000000000004">4,1</text></g><g transform="translate(0.0, -4.0e-2)" fill-opacity="0.2" font-size="8.0e-2" stroke="none" stroke-width="0.0" fill="#333333" text-anchor="middle"><text x="0.4500000000000002" y="0.10000000000000003">4,2</text></g><g transform="translate(0.0, -4.0e-2)" fill-opacity="0.2" font-size="8.0e-2" stroke="none" stroke-width="0.0" fill="#333333" text-anchor="middle"><text x="0.4500000000000002" y="-0.10000000000000009">4,3</text></g><g transform="translate(0.0, -4.0e-2)" fill-opacity="0.2" font-size="8.0e-2" stroke="none" stroke-width="0.0" fill="#333333" text-anchor="middle"><text x="0.4500000000000002" y="-0.29999999999999993">4,4</text></g><g transform="translate(0.0, -4.0e-2)" fill-opacity="0.2" font-size="8.0e-2" stroke="none" stroke-width="0.0" fill="#333333" text-anchor="middle"><text x="0.4500000000000002" y="-0.5">4,5</text></g><g transform="translate(0.0, -4.0e-2)" fill-opacity="0.2" font-size="8.0e-2" stroke="none" stroke-width="0.0" fill="#333333" text-anchor="middle"><text x="0.75" y="0.5">5,0</text></g><g transform="translate(0.0, -4.0e-2)" fill-opacity="0.2" font-size="8.0e-2" stroke="none" stroke-width="0.0" fill="#333333" text-anchor="middle"><text x="0.75" y="0.30000000000000004">5,1</text></g><g transform="translate(0.0, -4.0e-2)" fill-opacity="0.2" font-size="8.0e-2" stroke="none" stroke-width="0.0" fill="#333333" text-anchor="middle"><text x="0.75" y="0.10000000000000003">5,2</text></g><g transform="translate(0.0, -4.0e-2)" fill-opacity="0.2" font-size="8.0e-2" stroke="none" stroke-width="0.0" fill="#333333" text-anchor="middle"><text x="0.75" y="-0.10000000000000009">5,3</text></g><g transform="translate(0.0, -4.0e-2)" fill-opacity="0.2" font-size="8.0e-2" stroke="none" stroke-width="0.0" fill="#333333" text-anchor="middle"><text x="0.75" y="-0.29999999999999993">5,4</text></g><g transform="translate(0.0, -4.0e-2)" fill-opacity="0.2" font-size="8.0e-2" stroke="none" stroke-width="0.0" fill="#333333" text-anchor="middle"><text x="0.75" y="-0.5">5,5</text></g><g stroke-opacity="0.8" fill-opacity="1.0" stroke="#1f78b4" stroke-width="0.0" fill="#000000"><rect height="1.0000000000000009e-2" width="1.0000000000000009e-2" x="-0.755" y="0.495"/></g><g stroke-opacity="0.8" fill-opacity="1.0" stroke="#1f78b4" stroke-width="0.0" fill="#000000"><rect height="1.0000000000000009e-2" width="1.0000000000000009e-2" x="-0.755" y="0.29500000000000004"/></g><g stroke-opacity="0.8" fill-opacity="1.0" stroke="#1f78b4" stroke-width="0.0" fill="#000000"><rect height="1.0000000000000009e-2" width="1.0000000000000009e-2" x="-0.755" y="9.500000000000003e-2"/></g><g stroke-opacity="0.8" fill-opacity="1.0" stroke="#1f78b4" stroke-width="0.0" fill="#000000"><rect height="1.0000000000000009e-2" width="1.0000000000000009e-2" x="-0.755" y="-0.1050000000000001"/></g><g stroke-opacity="0.8" fill-opacity="1.0" stroke="#1f78b4" stroke-width="0.0" fill="#000000"><rect height="1.0000000000000009e-2" width="1.0000000000000009e-2" x="-0.755" y="-0.30499999999999994"/></g><g stroke-opacity="0.8" fill-opacity="1.0" stroke="#1f78b4" stroke-width="0.0" fill="#000000"><rect height="1.0000000000000009e-2" width="1.0000000000000009e-2" x="-0.755" y="-0.505"/></g><g stroke-opacity="0.8" fill-opacity="1.0" stroke="#1f78b4" stroke-width="0.0" fill="#000000"><rect height="1.0000000000000009e-2" width="1.0000000000000009e-2" x="-0.45499999999999996" y="0.495"/></g><g stroke-opacity="0.8" fill-opacity="1.0" stroke="#1f78b4" stroke-width="0.0" fill="#000000"><rect height="1.0000000000000009e-2" width="1.0000000000000009e-2" x="-0.45499999999999996" y="0.29500000000000004"/></g><g stroke-opacity="0.8" fill-opacity="1.0" stroke="#1f78b4" stroke-width="0.0" fill="#000000"><rect height="1.0000000000000009e-2" width="1.0000000000000009e-2" x="-0.45499999999999996" y="9.500000000000003e-2"/></g><g stroke-opacity="0.8" fill-opacity="1.0" stroke="#1f78b4" stroke-width="0.0" fill="#000000"><rect height="1.0000000000000009e-2" width="1.0000000000000009e-2" x="-0.45499999999999996" y="-0.1050000000000001"/></g><g stroke-opacity="0.8" fill-opacity="1.0" stroke="#1f78b4" stroke-width="0.0" fill="#000000"><rect height="1.0000000000000009e-2" width="1.0000000000000009e-2" x="-0.45499999999999996" y="-0.30499999999999994"/></g><g stroke-opacity="0.8" fill-opacity="1.0" stroke="#1f78b4" stroke-width="0.0" fill="#000000"><rect height="1.0000000000000009e-2" width="1.0000000000000009e-2" x="-0.45499999999999996" y="-0.505"/></g><g stroke-opacity="0.8" fill-opacity="1.0" stroke="#1f78b4" stroke-width="0.0" fill="#000000"><rect height="1.0000000000000009e-2" width="1.0000000000000009e-2" x="-0.15499999999999992" y="0.495"/></g><g stroke-opacity="0.8" fill-opacity="1.0" stroke="#1f78b4" stroke-width="0.0" fill="#000000"><rect height="1.0000000000000009e-2" width="1.0000000000000009e-2" x="-0.15499999999999992" y="0.29500000000000004"/></g><g stroke-opacity="0.8" fill-opacity="1.0" stroke="#1f78b4" stroke-width="0.0" fill="#000000"><rect height="1.0000000000000009e-2" width="1.0000000000000009e-2" x="-0.15499999999999992" y="9.500000000000003e-2"/></g><g stroke-opacity="0.8" fill-opacity="1.0" stroke="#1f78b4" stroke-width="0.0" fill="#000000"><rect height="1.0000000000000009e-2" width="1.0000000000000009e-2" x="-0.15499999999999992" y="-0.1050000000000001"/></g><g stroke-opacity="0.8" fill-opacity="1.0" stroke="#1f78b4" stroke-width="0.0" fill="#000000"><rect height="1.0000000000000009e-2" width="1.0000000000000009e-2" x="-0.15499999999999992" y="-0.30499999999999994"/></g><g stroke-opacity="0.8" fill-opacity="1.0" stroke="#1f78b4" stroke-width="0.0" fill="#000000"><rect height="1.0000000000000009e-2" width="1.0000000000000009e-2" x="-0.15499999999999992" y="-0.505"/></g><g stroke-opacity="0.8" fill-opacity="1.0" stroke="#1f78b4" stroke-width="0.0" fill="#000000"><rect height="1.0000000000000009e-2" width="1.0000000000000009e-2" x="0.14500000000000013" y="0.495"/></g><g stroke-opacity="0.8" fill-opacity="1.0" stroke="#1f78b4" stroke-width="0.0" fill="#000000"><rect height="1.0000000000000009e-2" width="1.0000000000000009e-2" x="0.14500000000000013" y="0.29500000000000004"/></g><g stroke-opacity="0.8" fill-opacity="1.0" stroke="#1f78b4" stroke-width="0.0" fill="#000000"><rect height="1.0000000000000009e-2" width="1.0000000000000009e-2" x="0.14500000000000013" y="9.500000000000003e-2"/></g><g stroke-opacity="0.8" fill-opacity="1.0" stroke="#1f78b4" stroke-width="0.0" fill="#000000"><rect height="1.0000000000000009e-2" width="1.0000000000000009e-2" x="0.14500000000000013" y="-0.1050000000000001"/></g><g stroke-opacity="0.8" fill-opacity="1.0" stroke="#1f78b4" stroke-width="0.0" fill="#000000"><rect height="1.0000000000000009e-2" width="1.0000000000000009e-2" x="0.14500000000000013" y="-0.30499999999999994"/></g><g stroke-opacity="0.8" fill-opacity="1.0" stroke="#1f78b4" stroke-width="0.0" fill="#000000"><rect height="1.0000000000000009e-2" width="1.0000000000000009e-2" x="0.14500000000000013" y="-0.505"/></g><g stroke-opacity="0.8" fill-opacity="1.0" stroke="#1f78b4" stroke-width="0.0" fill="#000000"><rect height="1.0000000000000009e-2" width="1.0000000000000009e-2" x="0.4450000000000002" y="0.495"/></g><g stroke-opacity="0.8" fill-opacity="1.0" stroke="#1f78b4" stroke-width="0.0" fill="#000000"><rect height="1.0000000000000009e-2" width="1.0000000000000009e-2" x="0.4450000000000002" y="0.29500000000000004"/></g><g stroke-opacity="0.8" fill-opacity="1.0" stroke="#1f78b4" stroke-width="0.0" fill="#000000"><rect height="1.0000000000000009e-2" width="1.0000000000000009e-2" x="0.4450000000000002" y="9.500000000000003e-2"/></g><g stroke-opacity="0.8" fill-opacity="1.0" stroke="#1f78b4" stroke-width="0.0" fill="#000000"><rect height="1.0000000000000009e-2" width="1.0000000000000009e-2" x="0.4450000000000002" y="-0.1050000000000001"/></g><g stroke-opacity="0.8" fill-opacity="1.0" stroke="#1f78b4" stroke-width="0.0" fill="#000000"><rect height="1.0000000000000009e-2" width="1.0000000000000009e-2" x="0.4450000000000002" y="-0.30499999999999994"/></g><g stroke-opacity="0.8" fill-opacity="1.0" stroke="#1f78b4" stroke-width="0.0" fill="#000000"><rect height="1.0000000000000009e-2" width="1.0000000000000009e-2" x="0.4450000000000002" y="-0.505"/></g><g stroke-opacity="0.8" fill-opacity="1.0" stroke="#1f78b4" stroke-width="0.0" fill="#000000"><rect height="1.0000000000000009e-2" width="1.0000000000000009e-2" x="0.745" y="0.495"/></g><g stroke-opacity="0.8" fill-opacity="1.0" stroke="#1f78b4" stroke-width="0.0" fill="#000000"><rect height="1.0000000000000009e-2" width="1.0000000000000009e-2" x="0.745" y="0.29500000000000004"/></g><g stroke-opacity="0.8" fill-opacity="1.0" stroke="#1f78b4" stroke-width="0.0" fill="#000000"><rect height="1.0000000000000009e-2" width="1.0000000000000009e-2" x="0.745" y="9.500000000000003e-2"/></g><g stroke-opacity="0.8" fill-opacity="1.0" stroke="#1f78b4" stroke-width="0.0" fill="#000000"><rect height="1.0000000000000009e-2" width="1.0000000000000009e-2" x="0.745" y="-0.1050000000000001"/></g><g stroke-opacity="0.8" fill-opacity="1.0" stroke="#1f78b4" stroke-width="0.0" fill="#000000"><rect height="1.0000000000000009e-2" width="1.0000000000000009e-2" x="0.745" y="-0.30499999999999994"/></g><g stroke-opacity="0.8" fill-opacity="1.0" stroke="#1f78b4" stroke-width="0.0" fill="#000000"><rect height="1.0000000000000009e-2" width="1.0000000000000009e-2" x="0.745" y="-0.505"/></g></svg>