<svg xmlns="http://www.w3.org/2000/svg" height="300.0" viewBox="-0.845 -0.7217988346281908 1.615 1.44075" width="336.283185840708" xmlns:xlink="http://www.w3.org/1999/xlink"><g transform="translate(0.7625, 0.72875)" fill-opacity="1.0" font-size="5.0e-2" stroke="none" stroke-width="0.0" fill="#333333" text-anchor="end"><text transform="rotate(-0.0, -5.4741373256744774e-2, -5.604883462819088e-2)" x="-5.4741373256744774e-2" y="-5.604883462819088e-2">An example from chart-svg</text></g><g transform="translate(-6.87875e-2, -0.57175)" fill-opacity="1.0" font-size="8.0e-2" stroke="none" stroke-width="0.0" fill="#333333" text-anchor="middle"><text transform="rotate(-0.0, -5.4741373256744774e-2, -5.604883462819088e-2)" x="-5.4741373256744774e-2" y="-5.604883462819088e-2">Line Chart</text></g><g stroke-opacity="0.0" fill-opacity="2.5e-2" stroke="#000000" stroke-width="0.0" fill="#808080"><rect height="0.8879023307436182" width="1.2639916857435782" x="-0.6867372161285339" y="-0.5"/></g><g stroke-opacity="5.0e-2" stroke="#808080" stroke-width="5.0e-3" fill="none"><polyline points="-0.6867372161285339,0.38790233074361824
0.5772544696150443,0.38790233074361824"/></g><g stroke-opacity="5.0e-2" stroke="#808080" stroke-width="5.0e-3" fill="none"><polyline points="-0.6867372161285339,0.2991120976692564
0.5772544696150443,0.2991120976692564"/></g><g stroke-opacity="5.0e-2" stroke="#808080" stroke-width="5.0e-3" fill="none"><polyline points="-0.6867372161285339,0.21032186459489455
0.5772544696150443,0.21032186459489455"/></g><g stroke-opacity="5.0e-2" stroke="#808080" stroke-width="5.0e-3" fill="none"><polyline points="-0.6867372161285339,0.1215316315205327
0.5772544696150443,0.1215316315205327"/></g><g stroke-opacity="5.0e-2" stroke="#808080" stroke-width="5.0e-3" fill="none"><polyline points="-0.6867372161285339,3.2741398446170966e-2
0.5772544696150443,3.2741398446170966e-2"/></g><g stroke-opacity="5.0e-2" stroke="#808080" stroke-width="5.0e-3" fill="none"><polyline points="-0.6867372161285339,-5.604883462819088e-2
0.5772544696150443,-5.604883462819088e-2"/></g><g stroke-opacity="5.0e-2" stroke="#808080" stroke-width="5.0e-3" fill="none"><polyline points="-0.6867372161285339,-0.14483906770255284
0.5772544696150443,-0.14483906770255284"/></g><g stroke-opacity="5.0e-2" stroke="#808080" stroke-width="5.0e-3" fill="none"><polyline points="-0.6867372161285339,-0.23362930077691457
0.5772544696150443,-0.23362930077691457"/></g><g stroke-opacity="5.0e-2" stroke="#808080" stroke-width="5.0e-3" fill="none"><polyline points="-0.6867372161285339,-0.32241953385127653
0.5772544696150443,-0.32241953385127653"/></g><g stroke-opacity="5.0e-2" stroke="#808080" stroke-width="5.0e-3" fill="none"><polyline points="-0.6867372161285339,-0.41120976692563826
0.5772544696150443,-0.41120976692563826"/></g><g stroke-opacity="5.0e-2" stroke="#808080" stroke-width="5.0e-3" fill="none"><polyline points="-0.6867372161285339,-0.5
0.5772544696150443,-0.5"/></g><g fill-opacity="1.0" font-size="5.0e-2" stroke="none" stroke-width="0.0" fill="#808080" text-anchor="end"><text x="-0.75" y="0.4007769145394007">0</text></g><g fill-opacity="1.0" font-size="5.0e-2" stroke="none" stroke-width="0.0" fill="#808080" text-anchor="end"><text x="-0.75" y="0.3119866814650389">0.5</text></g><g fill-opacity="1.0" font-size="5.0e-2" stroke="none" stroke-width="0.0" fill="#808080" text-anchor="end"><text x="-0.75" y="0.22319644839067704">1</text></g><g fill-opacity="1.0" font-size="5.0e-2" stroke="none" stroke-width="0.0" fill="#808080" text-anchor="end"><text x="-0.75" y="0.1344062153163152">1.5</text></g><g fill-opacity="1.0" font-size="5.0e-2" stroke="none" stroke-width="0.0" fill="#808080" text-anchor="end"><text x="-0.75" y="4.5615982241953346e-2">2</text></g><g fill-opacity="1.0" font-size="5.0e-2" stroke="none" stroke-width="0.0" fill="#808080" text-anchor="end"><text x="-0.75" y="-4.3174250832408445e-2">2.5</text></g><g fill-opacity="1.0" font-size="5.0e-2" stroke="none" stroke-width="0.0" fill="#808080" text-anchor="end"><text x="-0.75" y="-0.1319644839067704">3</text></g><g fill-opacity="1.0" font-size="5.0e-2" stroke="none" stroke-width="0.0" fill="#808080" text-anchor="end"><text x="-0.75" y="-0.22075471698113203">3.5</text></g><g fill-opacity="1.0" font-size="5.0e-2" stroke="none" stroke-width="0.0" fill="#808080" text-anchor="end"><text x="-0.75" y="-0.309544950055494">4</text></g><g fill-opacity="1.0" font-size="5.0e-2" stroke="none" stroke-width="0.0" fill="#808080" text-anchor="end"><text x="-0.75" y="-0.3983351831298557">4.5</text></g><g fill-opacity="1.0" font-size="5.0e-2" stroke="none" stroke-width="0.0" fill="#808080" text-anchor="end"><text x="-0.75" y="-0.4871254162042177">5</text></g><g stroke-opacity="1.0" fill-opacity="1.0" stroke="#808080" stroke-width="5.0e-3" fill="#808080"><g transform="rotate(-90.0, -0.7225503138912686, 0.38790233074361824)"><polyline points="-0.7225503138912686,0.40290233074361825
-0.7225503138912686,0.3729023307436182"/></g><g transform="rotate(-90.0, -0.7225503138912686, 0.2991120976692564)"><polyline points="-0.7225503138912686,0.3141120976692564
-0.7225503138912686,0.2841120976692564"/></g><g transform="rotate(-90.0, -0.7225503138912686, 0.21032186459489455)"><polyline points="-0.7225503138912686,0.22532186459489456
-0.7225503138912686,0.19532186459489453"/></g><g transform="rotate(-90.0, -0.7225503138912686, 0.1215316315205327)"><polyline points="-0.7225503138912686,0.13653163152053271
-0.7225503138912686,0.1065316315205327"/></g><g transform="rotate(-90.0, -0.7225503138912686, 3.2741398446170966e-2)"><polyline points="-0.7225503138912686,4.7741398446170966e-2
-0.7225503138912686,1.7741398446170967e-2"/></g><g transform="rotate(-90.0, -0.7225503138912686, -5.604883462819088e-2)"><polyline points="-0.7225503138912686,-4.104883462819088e-2
-0.7225503138912686,-7.104883462819088e-2"/></g><g transform="rotate(-90.0, -0.7225503138912686, -0.14483906770255284)"><polyline points="-0.7225503138912686,-0.12983906770255282
-0.7225503138912686,-0.15983906770255285"/></g><g transform="rotate(-90.0, -0.7225503138912686, -0.23362930077691457)"><polyline points="-0.7225503138912686,-0.21862930077691456
-0.7225503138912686,-0.24862930077691459"/></g><g transform="rotate(-90.0, -0.7225503138912686, -0.32241953385127653)"><polyline points="-0.7225503138912686,-0.3074195338512765
-0.7225503138912686,-0.33741953385127654"/></g><g transform="rotate(-90.0, -0.7225503138912686, -0.41120976692563826)"><polyline points="-0.7225503138912686,-0.39620976692563825
-0.7225503138912686,-0.4262097669256383"/></g><g transform="rotate(-90.0, -0.7225503138912686, -0.5)"><polyline points="-0.7225503138912686,-0.485
-0.7225503138912686,-0.515"/></g></g><g stroke-opacity="1.0" fill-opacity="1.0" stroke="#808080" stroke-width="0.0" fill="#808080"><rect height="0.8879023307436182" width="4.213305619145236e-3" x="-0.7120170498434055" y="-0.5"/></g><g stroke-opacity="5.0e-2" stroke="#808080" stroke-width="5.0e-3" fill="none"><polyline points="-0.6867372161285339,0.38790233074361824
-0.6867372161285339,-0.5"/></g><g stroke-opacity="5.0e-2" stroke="#808080" stroke-width="5.0e-3" fill="none"><polyline points="-0.47607193517127083,0.38790233074361824
-0.47607193517127083,-0.5"/></g><g stroke-opacity="5.0e-2" stroke="#808080" stroke-width="5.0e-3" fill="none"><polyline points="-0.2654066542140078,0.38790233074361824
-0.2654066542140078,-0.5"/></g><g stroke-opacity="5.0e-2" stroke="#808080" stroke-width="5.0e-3" fill="none"><polyline points="-5.4741373256744774e-2,0.38790233074361824
-5.4741373256744774e-2,-0.5"/></g><g stroke-opacity="5.0e-2" stroke="#808080" stroke-width="5.0e-3" fill="none"><polyline points="0.15592390770051834,0.38790233074361824
0.15592390770051834,-0.5"/></g><g stroke-opacity="5.0e-2" stroke="#808080" stroke-width="5.0e-3" fill="none"><polyline points="0.36658918865778123,0.38790233074361824
0.36658918865778123,-0.5"/></g><g stroke-opacity="5.0e-2" stroke="#808080" stroke-width="5.0e-3" fill="none"><polyline points="0.5772544696150443,0.38790233074361824
0.5772544696150443,-0.5"/></g><g fill-opacity="1.0" font-size="5.0e-2" stroke="none" stroke-width="0.0" fill="#808080" text-anchor="middle"><text x="-0.6867372161285339" y="0.5">0</text></g><g fill-opacity="1.0" font-size="5.0e-2" stroke="none" stroke-width="0.0" fill="#808080" text-anchor="middle"><text x="-0.47607193517127083" y="0.5">0.5</text></g><g fill-opacity="1.0" font-size="5.0e-2" stroke="none" stroke-width="0.0" fill="#808080" text-anchor="middle"><text x="-0.2654066542140078" y="0.5">1</text></g><g fill-opacity="1.0" font-size="5.0e-2" stroke="none" stroke-width="0.0" fill="#808080" text-anchor="middle"><text x="-5.4741373256744774e-2" y="0.5">1.5</text></g><g fill-opacity="1.0" font-size="5.0e-2" stroke="none" stroke-width="0.0" fill="#808080" text-anchor="middle"><text x="0.15592390770051834" y="0.5">2</text></g><g fill-opacity="1.0" font-size="5.0e-2" stroke="none" stroke-width="0.0" fill="#808080" text-anchor="middle"><text x="0.36658918865778123" y="0.5">2.5</text></g><g fill-opacity="1.0" font-size="5.0e-2" stroke="none" stroke-width="0.0" fill="#808080" text-anchor="middle"><text x="0.5772544696150443" y="0.5">3</text></g><g stroke-opacity="1.0" fill-opacity="1.0" stroke="#808080" stroke-width="5.0e-3" fill="#808080"><polyline points="-0.6867372161285339,0.440638179800222
-0.6867372161285339,0.410638179800222"/><polyline points="-0.47607193517127083,0.440638179800222
-0.47607193517127083,0.410638179800222"/><polyline points="-0.2654066542140078,0.440638179800222
-0.2654066542140078,0.410638179800222"/><polyline points="-5.4741373256744774e-2,0.440638179800222
-5.4741373256744774e-2,0.410638179800222"/><polyline points="0.15592390770051834,0.440638179800222
0.15592390770051834,0.410638179800222"/><polyline points="0.36658918865778123,0.440638179800222
0.36658918865778123,0.410638179800222"/><polyline points="0.5772544696150443,0.440638179800222
0.5772544696150443,0.410638179800222"/></g><g stroke-opacity="1.0" fill-opacity="1.0" stroke="#808080" stroke-width="0.0" fill="#808080"><rect height="4.439511653718142e-3" width="1.2639916857435782" x="-0.6867372161285339" y="0.4100998890122087"/></g><g stroke-opacity="1.0" stroke="#a6cee3" stroke-width="1.5e-2" fill="none"><polyline points="-0.6867372161285339,0.21032186459489455
-0.2654066542140078,0.21032186459489455
0.15592390770051834,-0.5"/></g><g stroke-opacity="1.0" stroke="#1f78b4" stroke-width="3.0e-2" fill="none"><polyline points="-0.6867372161285339,0.38790233074361824
0.49298835723213896,-0.14483906770255284"/></g><g stroke-opacity="1.0" stroke="#fb9a99" stroke-width="1.0e-2" fill="none"><polyline points="-0.47607193517127083,-0.32241953385127653
-0.47607193517127083,0.38790233074361824"/></g><g></g><g stroke-opacity="1.0" fill-opacity="1.0" stroke="#808080" stroke-width="5.0e-3" fill="#ffffff"><rect height="0.30799112097669257" width="0.37077089448478295" x="0.3560559246099182" y="-8.657047724750278e-2"/></g><g fill-opacity="1.0" font-size="6.25e-2" stroke="none" stroke-width="0.0" fill="#333333" text-anchor="start"><text x="0.36658918865778123" y="0.18118756936736963">vertical</text></g><g stroke-opacity="1.0" stroke="#fb9a99" stroke-width="1.0e-2" fill="none"><polyline points="0.6193875258064969,0.20588235294117646
0.7036536381894023,0.20588235294117646"/></g><g fill-opacity="1.0" font-size="6.25e-2" stroke="none" stroke-width="0.0" fill="#333333" text-anchor="start"><text x="0.36658918865778123" y="7.852386237513875e-2">line</text></g><g stroke-opacity="1.0" stroke="#1f78b4" stroke-width="3.0e-2" fill="none"><polyline points="0.6193875258064969,9.433962264150941e-2
0.7036536381894023,9.433962264150941e-2"/></g><g fill-opacity="1.0" font-size="6.25e-2" stroke="none" stroke-width="0.0" fill="#333333" text-anchor="start"><text x="0.36658918865778123" y="-2.4139844617092177e-2">hockey</text></g><g stroke-opacity="1.0" stroke="#a6cee3" stroke-width="1.5e-2" fill="none"><polyline points="0.6193875258064969,-1.6648168701443034e-3
0.7036536381894023,-1.6648168701443034e-3"/></g><g></g></svg>