<svg width="446.1617077612902" xmlns:xlink="http://www.w3.org/1999/xlink" xmlns="http://www.w3.org/2000/svg" viewBox="-0.7700000000000001 -0.516353616212882 1.54 1.0354989950127762" height="300.0"><style>svg {
  color-scheme: light dark;
}
@media (prefers-color-scheme:dark) {
  svg {
    background-color: #f0f0f0;
  }
}</style><g stroke-opacity="1.0" fill="#0d0d0d" stroke="#0d0d0d" stroke-width="2.5e-3" fill-opacity="0.0"><rect width="0.2516586078938492" x="0.494124592376026" y="-0.1152368758002561" height="0.14560087799524418"/></g><g fill="#0d0d0d" stroke="none" stroke-width="0.0" font-size="2.024063870459912e-2" fill-opacity="1.0" text-anchor="start"><text x="0.5109917912965252" y="5.487470276202611e-3">vertical</text></g><g stroke-opacity="1.0" fill="none" stroke="#1f78b5" stroke-width="1.0e-2"><polyline points="0.6175924884740809,-0.0
0.7187956819970764,-0.0"/></g><g fill="#0d0d0d" stroke="none" stroke-width="0.0" font-size="2.024063870459912e-2" fill-opacity="1.0" text-anchor="start"><text x="0.5109917912965252" y="-3.6948966526431315e-2">line</text></g><g stroke-opacity="1.0" fill="none" stroke="#a6cfe3" stroke-width="3.0e-2"><polyline points="0.6175924884740809,-4.243643680263398e-2
0.7187956819970764,-4.243643680263398e-2"/></g><g fill="#0d0d0d" stroke="none" stroke-width="0.0" font-size="2.024063870459912e-2" fill-opacity="1.0" text-anchor="start"><text x="0.5109917912965252" y="-7.93854033290653e-2">hockey</text></g><g stroke-opacity="1.0" fill="none" stroke="#b05929" stroke-width="1.5e-2"><polyline points="0.6175924884740809,-8.487287360526796e-2
0.7187956819970764,-8.487287360526796e-2"/></g><g fill="#0d0d0d" stroke="none" stroke-width="0.0" font-size="5.397503654559766e-2" fill-opacity="1.0" text-anchor="middle"><text x="-0.18452715619026194" y="-0.45317358697640386">Line Chart</text></g><g fill="#0d0d0d" stroke="none" stroke-width="0.0" font-size="3.373439784099854e-2" fill-opacity="1.0" text-anchor="end"><text x="0.3809456876194761" y="0.48902505944759467">Made with love and chart-svg</text></g><g stroke-opacity="0.0" fill="#0d0d0d" stroke="#000000" stroke-width="0.0" fill-opacity="0.4"><rect width="2.698751827279855e-3" x="-0.6734229169009333" y="-0.38860435339308574" height="0.734589354307664"/></g><g stroke-opacity="0.4" fill="#0d0d0d" stroke="#0d0d0d" stroke-width="4.0e-3" fill-opacity="0.4"><g transform="rotate(-90.0, -0.6842179242100528, 0.34452167550759094)"><polyline points="-0.6842179242100528,0.35952167550759095
-0.6842179242100528,0.3295216755075909"/></g><g transform="rotate(-90.0, -0.6842179242100528, 0.271355405158222)"><polyline points="-0.6842179242100528,0.286355405158222
-0.6842179242100528,0.25635540515822197"/></g><g transform="rotate(-90.0, -0.6842179242100528, 0.19818913480885303)"><polyline points="-0.6842179242100528,0.21318913480885304
-0.6842179242100528,0.18318913480885302"/></g><g transform="rotate(-90.0, -0.6842179242100528, 0.12502286445948407)"><polyline points="-0.6842179242100528,0.1400228644594841
-0.6842179242100528,0.11002286445948407"/></g><g transform="rotate(-90.0, -0.6842179242100528, 5.185659411011517e-2)"><polyline points="-0.6842179242100528,6.685659411011517e-2
-0.6842179242100528,3.685659411011517e-2"/></g><g transform="rotate(-90.0, -0.6842179242100528, -2.1309676239253728e-2)"><polyline points="-0.6842179242100528,-6.309676239253728e-3
-0.6842179242100528,-3.630967623925373e-2"/></g><g transform="rotate(-90.0, -0.6842179242100528, -9.44759465886228e-2)"><polyline points="-0.6842179242100528,-7.94759465886228e-2
-0.6842179242100528,-0.1094759465886228"/></g><g transform="rotate(-90.0, -0.6842179242100528, -0.16764221693799164)"><polyline points="-0.6842179242100528,-0.15264221693799163
-0.6842179242100528,-0.18264221693799165"/></g><g transform="rotate(-90.0, -0.6842179242100528, -0.2408084872873606)"><polyline points="-0.6842179242100528,-0.22580848728736058
-0.6842179242100528,-0.2558084872873606"/></g><g transform="rotate(-90.0, -0.6842179242100528, -0.31397475763672955)"><polyline points="-0.6842179242100528,-0.29897475763672954
-0.6842179242100528,-0.32897475763672956"/></g><g transform="rotate(-90.0, -0.6842179242100528, -0.3871410279860984)"><polyline points="-0.6842179242100528,-0.3721410279860984
-0.6842179242100528,-0.4021410279860984"/></g></g><g fill="#0d0d0d" stroke="none" stroke-width="0.0" font-size="3.373439784099854e-2" fill-opacity="1.0" text-anchor="end"><text x="-0.704458562914652" y="0.3545820376806292">0.0</text><text x="-0.704458562914652" y="0.2814157673312602">0.5</text><text x="-0.704458562914652" y="0.20824949698189127">1.0</text><text x="-0.704458562914652" y="0.13508322663252237">1.5</text><text x="-0.704458562914652" y="6.191695628315341e-2">2.0</text><text x="-0.704458562914652" y="-1.1249314066215543e-2">2.5</text><text x="-0.704458562914652" y="-8.44155844155845e-2">3.0</text><text x="-0.704458562914652" y="-0.15758185476495346">3.5</text><text x="-0.704458562914652" y="-0.2307481251143224">4.0</text><text x="-0.704458562914652" y="-0.30391439546369126">4.5</text><text x="-0.704458562914652" y="-0.3770806658130602">5.0</text></g><g stroke-opacity="5.0e-2" fill="none" stroke="#0d0d0d" stroke-width="5.0e-3"><polyline points="-0.6538569661531541,0.34452167550759094
0.3581749690768019,0.34452167550759094"/><polyline points="-0.6538569661531541,0.271355405158222
0.3581749690768019,0.271355405158222"/><polyline points="-0.6538569661531541,0.19818913480885303
0.3581749690768019,0.19818913480885303"/><polyline points="-0.6538569661531541,0.12502286445948407
0.3581749690768019,0.12502286445948407"/><polyline points="-0.6538569661531541,5.185659411011517e-2
0.3581749690768019,5.185659411011517e-2"/><polyline points="-0.6538569661531541,-2.1309676239253728e-2
0.3581749690768019,-2.1309676239253728e-2"/><polyline points="-0.6538569661531541,-9.44759465886228e-2
0.3581749690768019,-9.44759465886228e-2"/><polyline points="-0.6538569661531541,-0.16764221693799164
0.3581749690768019,-0.16764221693799164"/><polyline points="-0.6538569661531541,-0.2408084872873606
0.3581749690768019,-0.2408084872873606"/><polyline points="-0.6538569661531541,-0.31397475763672955
0.3581749690768019,-0.31397475763672955"/><polyline points="-0.6538569661531541,-0.3871410279860984
0.3581749690768019,-0.3871410279860984"/></g><g stroke-opacity="0.0" fill="#0d0d0d" stroke="#000000" stroke-width="0.0" fill-opacity="0.4"><rect width="1.0147306870572361" x="-0.6552063420667941" y="0.3628132430949332" height="2.9266508139747516e-3"/></g><g stroke-opacity="0.4" fill="#0d0d0d" stroke="#0d0d0d" stroke-width="4.0e-3" fill-opacity="0.4"><polyline points="-0.6538569661531541,0.39244649716480695
-0.6538569661531541,0.3624464971648069"/><polyline points="-0.48518497694816143,0.39244649716480695
-0.48518497694816143,0.3624464971648069"/><polyline points="-0.3165129877431687,0.39244649716480695
-0.3165129877431687,0.3624464971648069"/><polyline points="-0.147840998538176,0.39244649716480695
-0.147840998538176,0.3624464971648069"/><polyline points="2.0830990666816707e-2,0.39244649716480695
2.0830990666816707e-2,0.3624464971648069"/><polyline points="0.1895029798718093,0.39244649716480695
0.1895029798718093,0.3624464971648069"/><polyline points="0.3581749690768019,0.39244649716480695
0.3581749690768019,0.3624464971648069"/></g><g fill="#0d0d0d" stroke="none" stroke-width="0.0" font-size="3.373439784099854e-2" fill-opacity="1.0" text-anchor="middle"><text x="-0.6538569661531541" y="0.4195171026156941">0.0</text><text x="-0.48518497694816143" y="0.4195171026156941">0.5</text><text x="-0.3165129877431687" y="0.4195171026156941">1.0</text><text x="-0.147840998538176" y="0.4195171026156941">1.5</text><text x="2.0830990666816707e-2" y="0.4195171026156941">2.0</text><text x="0.1895029798718093" y="0.4195171026156941">2.5</text><text x="0.3581749690768019" y="0.4195171026156941">3.0</text></g><g stroke-opacity="5.0e-2" fill="none" stroke="#0d0d0d" stroke-width="5.0e-3"><polyline points="-0.6538569661531541,0.34452167550759094
-0.6538569661531541,-0.3871410279860984"/><polyline points="-0.48518497694816143,0.34452167550759094
-0.48518497694816143,-0.3871410279860984"/><polyline points="-0.3165129877431687,0.34452167550759094
-0.3165129877431687,-0.3871410279860984"/><polyline points="-0.147840998538176,0.34452167550759094
-0.147840998538176,-0.3871410279860984"/><polyline points="2.0830990666816707e-2,0.34452167550759094
2.0830990666816707e-2,-0.3871410279860984"/><polyline points="0.1895029798718093,0.34452167550759094
0.1895029798718093,-0.3871410279860984"/><polyline points="0.3581749690768019,0.34452167550759094
0.3581749690768019,-0.3871410279860984"/></g><g stroke-opacity="1.0" fill="none" stroke="#b05929" stroke-width="1.5e-2"><polyline points="-0.6538569661531541,0.19818913480885303
-0.3165129877431687,0.19818913480885303
2.0830990666816707e-2,-0.3871410279860984"/></g><g stroke-opacity="1.0" fill="none" stroke="#a6cfe3" stroke-width="3.0e-2"><polyline points="-0.6538569661531541,0.34452167550759094
0.29070617339480487,-9.44759465886228e-2"/></g><g stroke-opacity="1.0" fill="none" stroke="#1f78b5" stroke-width="1.0e-2"><polyline points="-0.48518497694816143,-0.2408084872873606
-0.48518497694816143,0.34452167550759094"/></g></svg>