<svg width="444.8291681776638" xmlns:xlink="http://www.w3.org/1999/xlink" xmlns="http://www.w3.org/2000/svg" viewBox="-0.77 -0.5188665984933056 1.54 1.038600957515174" height="300.0"><style>svg {
  color-scheme: light dark;
}
{
  .canvas g, .title g, .axisbar g, .ticktext g, .tickglyph g, .ticklines g, .legendContent g text {
    fill: #0d0d0d;
  }
  .ticklines g, .tickglyph g, .legendBorder g {
    stroke: #0d0d0d;
  }
}
@media (prefers-color-scheme:dark) {
  .canvas g, .title g, .axisbar g, .ticktext g, .tickglyph g, .ticklines g, .legendContent g text {
    fill: #f0f0f0;
  }
  .ticklines g, .tickglyph g, .legendBorder g {
    stroke: #f0f0f0;
  }
}</style><g class="chart"><g class="line"><g stroke-opacity="1.0" fill="none" stroke="#b05929" stroke-width="1.5e-2"><polyline points="-0.6450406408293085,0.19679405904727398
-0.2916421251030745,0.19679405904727398
6.1756390623159296e-2,-0.3828110849483788"/></g><g stroke-opacity="1.0" fill="none" stroke="#a6cfe3" stroke-width="3.0e-2"><polyline points="-0.6450406408293085,0.3416953450461872
0.3444752032041465,-9.300851295055246e-2"/></g><g stroke-opacity="1.0" fill="none" stroke="#1f78b5" stroke-width="1.0e-2"><polyline points="-0.46834138296619154,-0.23790979894946562
-0.46834138296619154,0.3416953450461872"/></g></g></g><g class="hud"><g><g class="axis"><g class="ticks"><g class="tickglyph"><g stroke-opacity="0.4" fill="#0d0d0d" stroke="#0d0d0d" stroke-width="4.0e-3" fill-opacity="0.4"><g transform="rotate(-90.0, -0.6768465072446695, 0.35256294149610573)"><polyline points="-0.6768465072446695,0.36756294149610574
-0.6768465072446695,0.3375629414961057"/></g><g transform="rotate(-90.0, -0.6768465072446695, 0.27848215902916135)"><polyline points="-0.6768465072446695,0.29348215902916136
-0.6768465072446695,0.26348215902916133"/></g><g transform="rotate(-90.0, -0.6768465072446695, 0.20440137656221696)"><polyline points="-0.6768465072446695,0.21940137656221698
-0.6768465072446695,0.18940137656221695"/></g><g transform="rotate(-90.0, -0.6768465072446695, 0.13032059409527258)"><polyline points="-0.6768465072446695,0.1453205940952726
-0.6768465072446695,0.11532059409527258"/></g><g transform="rotate(-90.0, -0.6768465072446695, 5.6239811628328196e-2)"><polyline points="-0.6768465072446695,7.12398116283282e-2
-0.6768465072446695,4.1239811628328196e-2"/></g><g transform="rotate(-90.0, -0.6768465072446695, -1.7840970838616133e-2)"><polyline points="-0.6768465072446695,-2.840970838616133e-3
-0.6768465072446695,-3.284097083861613e-2"/></g><g transform="rotate(-90.0, -0.6768465072446695, -9.192175330556063e-2)"><polyline points="-0.6768465072446695,-7.692175330556063e-2
-0.6768465072446695,-0.10692175330556063"/></g><g transform="rotate(-90.0, -0.6768465072446695, -0.1660025357725049)"><polyline points="-0.6768465072446695,-0.1510025357725049
-0.6768465072446695,-0.1810025357725049"/></g><g transform="rotate(-90.0, -0.6768465072446695, -0.24008331823944928)"><polyline points="-0.6768465072446695,-0.22508331823944927
-0.6768465072446695,-0.2550833182394493"/></g><g transform="rotate(-90.0, -0.6768465072446695, -0.3141641007063938)"><polyline points="-0.6768465072446695,-0.29916410070639377
-0.6768465072446695,-0.3291641007063938"/></g><g transform="rotate(-90.0, -0.6768465072446695, -0.38824488317333794)"><polyline points="-0.6768465072446695,-0.3732448831733379
-0.6768465072446695,-0.40324488317333795"/></g></g></g><g class="ticktext"><g fill="#0d0d0d" stroke="none" stroke-width="0.0" font-size="3.533985157262339e-2" fill-opacity="1.0" text-anchor="end"><text x="-0.7022912003769585" y="0.36252490490853106">0.0</text><text x="-0.7022912003769585" y="0.28844412244158657">0.5</text><text x="-0.7022912003769585" y="0.21436333997464224">1.0</text><text x="-0.7022912003769585" y="0.14028255750769786">1.5</text><text x="-0.7022912003769585" y="6.620177504075347e-2">2.0</text><text x="-0.7022912003769585" y="-7.879007426190854e-3">2.5</text><text x="-0.7022912003769585" y="-8.195978989313524e-2">3.0</text><text x="-0.7022912003769585" y="-0.15604057236007962">3.5</text><text x="-0.7022912003769585" y="-0.230121354827024">4.0</text><text x="-0.7022912003769585" y="-0.3042021372939684">4.5</text><text x="-0.7022912003769585" y="-0.3782829197609128">5.0</text></g></g><g class="ticklines"><g stroke-opacity="5.0e-2" fill="none" stroke="#0d0d0d" stroke-width="5.0e-3"><polyline points="-0.6556425963010954,0.35256294149610573
0.35507715867593337,0.35256294149610573"/><polyline points="-0.6556425963010954,0.27848215902916135
0.35507715867593337,0.27848215902916135"/><polyline points="-0.6556425963010954,0.20440137656221696
0.35507715867593337,0.20440137656221696"/><polyline points="-0.6556425963010954,0.13032059409527258
0.35507715867593337,0.13032059409527258"/><polyline points="-0.6556425963010954,5.6239811628328196e-2
0.35507715867593337,5.6239811628328196e-2"/><polyline points="-0.6556425963010954,-1.7840970838616133e-2
0.35507715867593337,-1.7840970838616133e-2"/><polyline points="-0.6556425963010954,-9.192175330556063e-2
0.35507715867593337,-9.192175330556063e-2"/><polyline points="-0.6556425963010954,-0.1660025357725049
0.35507715867593337,-0.1660025357725049"/><polyline points="-0.6556425963010954,-0.24008331823944928
0.35507715867593337,-0.24008331823944928"/><polyline points="-0.6556425963010954,-0.3141641007063938
0.35507715867593337,-0.3141641007063938"/><polyline points="-0.6556425963010954,-0.38824488317333794
0.35507715867593337,-0.38824488317333794"/></g></g></g><g class="axisbar"><g stroke-opacity="0.0" fill="#0d0d0d" stroke="#000000" stroke-width="0.0" fill-opacity="0.4"><rect width="2.827188125809843e-3" x="-0.6655377547414301" y="-0.38969389603332727" height="0.7437058503894222"/></g></g></g><g class="axis"><g class="ticks"><g class="tickglyph"><g stroke-opacity="0.4" fill="#0d0d0d" stroke="#0d0d0d" stroke-width="4.0e-3" fill-opacity="0.4"><polyline points="-0.6556425963010954,0.38929813439594274
-0.6556425963010954,0.3592981343959427"/><polyline points="-0.4871893038049241,0.38929813439594274
-0.4871893038049241,0.3592981343959427"/><polyline points="-0.3187360113087525,0.38929813439594274
-0.3187360113087525,0.3592981343959427"/><polyline points="-0.15028271881258104,0.38929813439594274
-0.15028271881258104,0.3592981343959427"/><polyline points="1.817057368359043e-2,0.38929813439594274
1.817057368359043e-2,0.3592981343959427"/><polyline points="0.1866238661797619,0.38929813439594274
0.1866238661797619,0.3592981343959427"/><polyline points="0.35507715867593337,0.38929813439594274
0.35507715867593337,0.3592981343959427"/></g></g><g class="ticktext"><g fill="#0d0d0d" stroke="none" stroke-width="0.0" font-size="3.533985157262339e-2" fill-opacity="1.0" text-anchor="middle"><text x="-0.6556425963010954" y="0.42030429270059766">0.0</text><text x="-0.4871893038049241" y="0.42030429270059766">0.5</text><text x="-0.3187360113087525" y="0.42030429270059766">1.0</text><text x="-0.15028271881258104" y="0.42030429270059766">1.5</text><text x="1.817057368359043e-2" y="0.42030429270059766">2.0</text><text x="0.1866238661797619" y="0.42030429270059766">2.5</text><text x="0.35507715867593337" y="0.42030429270059766">3.0</text></g></g><g class="ticklines"><g stroke-opacity="5.0e-2" fill="none" stroke="#0d0d0d" stroke-width="5.0e-3"><polyline points="-0.6556425963010954,0.35256294149610573
-0.6556425963010954,-0.38824488317333794"/><polyline points="-0.4871893038049241,0.35256294149610573
-0.4871893038049241,-0.38824488317333794"/><polyline points="-0.3187360113087525,0.35256294149610573
-0.3187360113087525,-0.38824488317333794"/><polyline points="-0.15028271881258104,0.35256294149610573
-0.15028271881258104,-0.38824488317333794"/><polyline points="1.817057368359043e-2,0.35256294149610573
1.817057368359043e-2,-0.38824488317333794"/><polyline points="0.1866238661797619,0.35256294149610573
0.1866238661797619,-0.38824488317333794"/><polyline points="0.35507715867593337,0.35256294149610573
0.35507715867593337,-0.38824488317333794"/></g></g></g><g class="axisbar"><g stroke-opacity="0.0" fill="#0d0d0d" stroke="#000000" stroke-width="0.0" fill-opacity="0.4"><rect width="1.0135469431028388" x="-0.6570561903640004" y="0.3598080057960514" height="2.89802571997827e-3"/></g></g></g><g class="title"><g fill="#0d0d0d" stroke="none" stroke-width="0.0" font-size="3.533985157262339e-2" fill-opacity="1.0" text-anchor="end"><text x="0.3789315584874542" y="0.4891324035500815">Made with love and chart-svg</text></g></g><g class="title"><g fill="#0d0d0d" stroke="none" stroke-width="0.0" font-size="5.654376251619743e-2" fill-opacity="1.0" text-anchor="middle"><text x="-0.1855342207562729" y="-0.4536315884803477">Line Chart</text></g></g><g class="legend"><g class="legendBorder"><g stroke-opacity="1.0" fill="#0d0d0d" stroke="#0d0d0d" stroke-width="2.5e-3" fill-opacity="0.0"><rect width="0.3145246789963483" x="0.4319413358463893" y="-0.1539576163738453" height="0.19199420394856004"/></g></g><g class="legendContent"><g fill="#0d0d0d" stroke="none" stroke-width="0.0" font-size="3.533985157262339e-2" fill-opacity="1.0" text-anchor="start"><text x="0.44961126163270104" y="9.056330374932087e-3">vertical</text></g><g stroke-opacity="1.0" fill="none" stroke="#1f78b5" stroke-width="1.0e-2"><polyline points="0.6121745788667687,5.551115123125783e-17
0.7181941335846389,5.551115123125783e-17"/></g><g fill="#0d0d0d" stroke="none" stroke-width="0.0" font-size="3.533985157262339e-2" fill-opacity="1.0" text-anchor="start"><text x="0.44961126163270104" y="-4.8904184024633146e-2">line</text></g><g stroke-opacity="1.0" fill="none" stroke="#a6cfe3" stroke-width="3.0e-2"><polyline points="0.6121745788667687,-5.796051439956529e-2
0.7181941335846389,-5.796051439956529e-2"/></g><g fill="#0d0d0d" stroke="none" stroke-width="0.0" font-size="3.533985157262339e-2" fill-opacity="1.0" text-anchor="start"><text x="0.44961126163270104" y="-0.10686469842419843">hockey</text></g><g stroke-opacity="1.0" fill="none" stroke="#b05929" stroke-width="1.5e-2"><polyline points="0.6121745788667687,-0.11592102879913058
0.7181941335846389,-0.11592102879913058"/></g></g></g></g></g></svg>