<svg height="300.00" viewBox="-0.75000 -0.50000 1.5000 1.0000" width="450.00" xmlns="http://www.w3.org/2000/svg" xmlns:xlink="http://www.w3.org/1999/xlink"><style>svg {
  color-scheme: light dark;
}
{
  .canvas g, .title g, .axisbar g, .ticktext g, .tickglyph g, .ticklines g, .legendContent g text {
    fill: rgba(5%, 5%, 5%, 1.00);
  }
  .ticklines g, .tickglyph g, .legendBorder g {
    stroke: rgba(5%, 5%, 5%, 1.00);
  }
  .legendBorder g {
    fill: rgba(94%, 94%, 94%, 1.00);
  }
}
@media (prefers-color-scheme:dark) {
  .canvas g, .title g, .axisbar g, .ticktext g, .tickglyph g, .ticklines g, .legendContent g text {
    fill: rgba(94%, 94%, 94%, 1.00);
  }
  .ticklines g, .tickglyph g, .legendBorder g {
    stroke: rgba(94%, 94%, 94%, 1.00);
  }
  .legendBorder g {
    fill: rgba(5%, 5%, 5%, 1.00);
  }
}</style><g class="chart"><g class="line"><g fill="none" stroke="rgba(2%, 73%, 80%, 1.00)" stroke-width="0.015000"><polyline points="-0.58985,0.18747 -0.19635,0.18747 0.19714,-0.35371"/></g><g fill="none" stroke="rgba(2%, 29%, 48%, 1.00)" stroke-width="0.015000"><polyline points="-0.58985,0.32276 0.51194,-0.083122"/></g><g fill="none" stroke="rgba(66%, 7%, 55%, 1.00)" stroke-width="0.015000"><polyline points="-0.39310,-0.21842 -0.39310,0.32276"/></g></g></g><g class="hud"><g class="frame"><g fill="rgba(100%, 100%, 100%, 0.02)" stroke="rgba(0%, 0%, 0%, 0.00)" stroke-width="0.0000"><rect height="0.68662" width="1.1864" x="-0.59575" y="-0.35879"/></g></g><g class="axis"><g class="ticks"><g class="tickglyph"><g fill="rgba(5%, 5%, 5%, 0.40)" stroke="rgba(5%, 5%, 5%, 0.40)" stroke-width="0.0040000"><g transform="rotate(-90.000, -0.61936, 0.32276)"><polyline points="-0.61936,0.33776
-0.61936,0.30776"/></g><g transform="rotate(-90.000, -0.61936, 0.25512)"><polyline points="-0.61936,0.27012
-0.61936,0.24012"/></g><g transform="rotate(-90.000, -0.61936, 0.18747)"><polyline points="-0.61936,0.20247
-0.61936,0.17247"/></g><g transform="rotate(-90.000, -0.61936, 0.11982)"><polyline points="-0.61936,0.13482
-0.61936,0.10482"/></g><g transform="rotate(-90.000, -0.61936, 0.052173)"><polyline points="-0.61936,0.067173
-0.61936,0.037173"/></g><g transform="rotate(-90.000, -0.61936, -0.015474)"><polyline points="-0.61936,-0.00047438
-0.61936,-0.030474"/></g><g transform="rotate(-90.000, -0.61936, -0.083122)"><polyline points="-0.61936,-0.068122
-0.61936,-0.098122"/></g><g transform="rotate(-90.000, -0.61936, -0.15077)"><polyline points="-0.61936,-0.13577
-0.61936,-0.16577"/></g><g transform="rotate(-90.000, -0.61936, -0.21842)"><polyline points="-0.61936,-0.20342
-0.61936,-0.23342"/></g><g transform="rotate(-90.000, -0.61936, -0.28606)"><polyline points="-0.61936,-0.27106
-0.61936,-0.30106"/></g><g transform="rotate(-90.000, -0.61936, -0.35371)"><polyline points="-0.61936,-0.33871
-0.61936,-0.36871"/></g></g></g><g class="ticktext"><g fill="rgba(5%, 5%, 5%, 1.00)" font-size="0.039349" stroke="none" stroke-width="0.0" text-anchor="end"><text x="-0.64769" y="0.33206">0.00</text><text x="-0.64769" y="0.26442">0.50</text><text x="-0.64769" y="0.19677">1.00</text><text x="-0.64769" y="0.12912">1.50</text><text x="-0.64769" y="0.061475">2.00</text><text x="-0.64769" y="-0.0061728">2.50</text><text x="-0.64769" y="-0.073820">3.00</text><text x="-0.64769" y="-0.14147">3.50</text><text x="-0.64769" y="-0.20912">4.00</text><text x="-0.64769" y="-0.27676">4.50</text><text x="-0.64769" y="-0.34441">5.00</text></g></g><g class="ticklines"><g fill="none" stroke="rgba(5%, 5%, 5%, 0.05)" stroke-width="0.0050000"><polyline points="-0.58985,0.32276 0.59063,0.32276"/><polyline points="-0.58985,0.25512 0.59063,0.25512"/><polyline points="-0.58985,0.18747 0.59063,0.18747"/><polyline points="-0.58985,0.11982 0.59063,0.11982"/><polyline points="-0.58985,0.052173 0.59063,0.052173"/><polyline points="-0.58985,-0.015474 0.59063,-0.015474"/><polyline points="-0.58985,-0.083122 0.59063,-0.083122"/><polyline points="-0.58985,-0.15077 0.59063,-0.15077"/><polyline points="-0.58985,-0.21842 0.59063,-0.21842"/><polyline points="-0.58985,-0.28606 0.59063,-0.28606"/><polyline points="-0.58985,-0.35371 0.59063,-0.35371"/></g></g></g><g class="axisbar"><g fill="rgba(5%, 5%, 5%, 0.40)" stroke="rgba(0%, 0%, 0%, 0.00)" stroke-width="0.0000"><rect height="0.67918" width="0.0031480" x="-0.60677" y="-0.35507"/></g></g></g><g class="axis"><g class="ticks"><g class="tickglyph"><g fill="rgba(5%, 5%, 5%, 0.40)" stroke="rgba(5%, 5%, 5%, 0.40)" stroke-width="0.0040000"><polyline points="-0.58985,0.36313
-0.58985,0.33313"/><polyline points="-0.39310,0.36313
-0.39310,0.33313"/><polyline points="-0.19635,0.36313
-0.19635,0.33313"/><polyline points="0.00039349,0.36313
0.00039349,0.33313"/><polyline points="0.19714,0.36313
0.19714,0.33313"/><polyline points="0.39389,0.36313
0.39389,0.33313"/><polyline points="0.59063,0.36313
0.59063,0.33313"/></g></g><g class="ticktext"><g fill="rgba(5%, 5%, 5%, 1.00)" font-size="0.039349" stroke="none" stroke-width="0.0" text-anchor="middle"><text x="-0.58985" y="0.39109">0.00</text><text x="-0.39310" y="0.39109">0.50</text><text x="-0.19635" y="0.39109">1.00</text><text x="0.00039349" y="0.39109">1.50</text><text x="0.19714" y="0.39109">2.00</text><text x="0.39389" y="0.39109">2.50</text><text x="0.59063" y="0.39109">3.00</text></g></g><g class="ticklines"><g fill="none" stroke="rgba(5%, 5%, 5%, 0.05)" stroke-width="0.0050000"><polyline points="-0.58985,0.32276 -0.58985,-0.35371"/><polyline points="-0.39310,0.32276 -0.39310,-0.35371"/><polyline points="-0.19635,0.32276 -0.19635,-0.35371"/><polyline points="0.00039349,0.32276 0.00039349,-0.35371"/><polyline points="0.19714,0.32276 0.19714,-0.35371"/><polyline points="0.39389,0.32276 0.39389,-0.35371"/><polyline points="0.59063,0.32276 0.59063,-0.35371"/></g></g></g><g class="axisbar"><g fill="rgba(5%, 5%, 5%, 0.40)" stroke="rgba(0%, 0%, 0%, 0.00)" stroke-width="0.0000"><rect height="0.0027059" width="1.1836" x="-0.59142" y="0.33460"/></g></g></g><g class="title"><g fill="rgba(5%, 5%, 5%, 1.00)" font-size="0.078699" stroke="none" stroke-width="0.0" text-anchor="middle"><text x="-0.046236" y="-0.41882">Line Chart</text></g></g><g class="title"><g fill="rgba(5%, 5%, 5%, 1.00)" font-size="0.047219" stroke="none" stroke-width="0.0" text-anchor="end"><text x="0.62605" y="0.46076">Made with love and chart-svg</text></g></g><g class="legend"><g class="legendBorder"><g fill="rgba(99%, 99%, 99%, 1.00)" stroke="rgba(5%, 5%, 5%, 1.00)" stroke-width="0.0025000"><rect height="0.17927" width="0.37972" x="0.33486" y="0.077541"/></g></g><g class="legendContent"><g fill="rgba(5%, 5%, 5%, 1.00)" font-size="0.039349" stroke="none" stroke-width="0.0" text-anchor="start"><text x="0.35454" y="0.22975">palette1 2</text></g><g fill="none" stroke="rgba(66%, 7%, 55%, 1.00)" stroke-width="0.015000"><polyline points="0.57096,0.22129 0.68901,0.22129"/></g><g fill="rgba(5%, 5%, 5%, 1.00)" font-size="0.039349" stroke="none" stroke-width="0.0" text-anchor="start"><text x="0.35454" y="0.17563">palette1 1</text></g><g fill="none" stroke="rgba(2%, 29%, 48%, 1.00)" stroke-width="0.015000"><polyline points="0.57096,0.16717 0.68901,0.16717"/></g><g fill="rgba(5%, 5%, 5%, 1.00)" font-size="0.039349" stroke="none" stroke-width="0.0" text-anchor="start"><text x="0.35454" y="0.12151">palette1 0</text></g><g fill="none" stroke="rgba(2%, 73%, 80%, 1.00)" stroke-width="0.015000"><polyline points="0.57096,0.11306 0.68901,0.11306"/></g></g></g><g class="frame"><g fill="rgba(100%, 100%, 100%, 0.02)" stroke="rgba(0%, 0%, 0%, 0.00)" stroke-width="0.0000"><rect height="1.0000" width="1.5000" x="-0.75000" y="-0.50000"/></g></g></g></svg>