<svg xmlns="http://www.w3.org/2000/svg" xmlns:xlink="http://www.w3.org/1999/xlink" width="449" height="300" viewBox="-0.75 -0.5 1.5000 1.0"><style>svg {
  color-scheme: light dark;
}
{
  .canvas g, .title g, .axisbar g, .ticktext g, .tickglyph g, .ticklines g, .legendContent g text {
    fill: rgb(5%, 5%, 5%);
  }
  .ticklines g, .tickglyph g, .legendBorder g {
    stroke: rgb(5%, 5%, 5%);
  }
  .legendBorder g {
    fill: rgb(94%, 94%, 94%);
  }
}
@media (prefers-color-scheme:dark) {
  .canvas g, .title g, .axisbar g, .ticktext g, .tickglyph g, .ticklines g, .legendContent g text {
    fill: rgb(94%, 94%, 94%);
  }
  .ticklines g, .tickglyph g, .legendBorder g {
    stroke: rgb(94%, 94%, 94%);
  }
  .legendBorder g {
    fill: rgb(5%, 5%, 5%);
  }
}</style><g class="chart"><g class="line"><g stroke-width="0.0150" stroke="rgb(2%, 73%, 80%)" stroke-opacity="1.0" fill="none"><polyline points="-0.6056,0.1872 -0.2076,0.1872 0.1904,-0.3534"/></g><g stroke-width="0.0150" stroke="rgb(2%, 29%, 48%)" stroke-opacity="1.0" fill="none"><polyline points="-0.6056,0.3224 0.5088,-0.0831"/></g><g stroke-width="0.0150" stroke="rgb(66%, 7%, 55%)" stroke-opacity="1.0" fill="none"><polyline points="-0.4066,-0.2183 -0.4066,0.3224"/></g></g></g><g class="hud"><g class="frame"><g stroke-width="0" stroke="rgb(0%, 0%, 0%)" stroke-opacity="0" fill="rgb(100%, 100%, 100%)" fill-opacity="0.02"><rect width="1.2000" height="0.6860" x="-0.6116" y="-0.3585"/></g></g><g class="axis"><g class="ticks"><g class="tickglyph"><g stroke-width="0.0040" stroke="rgb(5%, 5%, 5%)" stroke-opacity="0.4" fill="rgb(5%, 5%, 5%)" fill-opacity="0.4"><g transform="rotate(-90.0, -0.6355, 0.3224)"><polyline points="-0.6355,0.3374
-0.6355,0.3074"/></g><g transform="rotate(-90.0, -0.6355, 0.2548)"><polyline points="-0.6355,0.2698
-0.6355,0.2398"/></g><g transform="rotate(-90.0, -0.6355, 0.1872)"><polyline points="-0.6355,0.2022
-0.6355,0.1722"/></g><g transform="rotate(-90.0, -0.6355, 0.1197)"><polyline points="-0.6355,0.1347
-0.6355,0.1047"/></g><g transform="rotate(-90.0, -0.6355, 0.0521)"><polyline points="-0.6355,0.0671
-0.6355,0.0371"/></g><g transform="rotate(-90.0, -0.6355, -0.0155)"><polyline points="-0.6355,-0.0005
-0.6355,-0.0305"/></g><g transform="rotate(-90.0, -0.6355, -0.0831)"><polyline points="-0.6355,-0.0681
-0.6355,-0.0981"/></g><g transform="rotate(-90.0, -0.6355, -0.1507)"><polyline points="-0.6355,-0.1357
-0.6355,-0.1657"/></g><g transform="rotate(-90.0, -0.6355, -0.2183)"><polyline points="-0.6355,-0.2033
-0.6355,-0.2333"/></g><g transform="rotate(-90.0, -0.6355, -0.2858)"><polyline points="-0.6355,-0.2708
-0.6355,-0.3008"/></g><g transform="rotate(-90.0, -0.6355, -0.3534)"><polyline points="-0.6355,-0.3384
-0.6355,-0.3684"/></g></g></g><g class="ticktext"><g stroke-width="0.0" stroke="none" fill="rgb(5%, 5%, 5%)" fill-opacity="1.0" font-size="0.0399" text-anchor="end"><text x="-0.6642" y="0.3317">0.0</text><text x="-0.6642" y="0.2641">0.5</text><text x="-0.6642" y="0.1966">1.0</text><text x="-0.6642" y="0.1290">1.5</text><text x="-0.6642" y="0.0614">2.0</text><text x="-0.6642" y="-0.0062">2.5</text><text x="-0.6642" y="-0.0738">3.0</text><text x="-0.6642" y="-0.1413">3.5</text><text x="-0.6642" y="-0.2089">4.0</text><text x="-0.6642" y="-0.2765">4.5</text><text x="-0.6642" y="-0.3441">5.0</text></g></g><g class="ticklines"><g stroke-width="0.0050" stroke="rgb(5%, 5%, 5%)" stroke-opacity="0.05" fill="none"><polyline points="-0.6056,0.3224 0.5884,0.3224"/><polyline points="-0.6056,0.2548 0.5884,0.2548"/><polyline points="-0.6056,0.1872 0.5884,0.1872"/><polyline points="-0.6056,0.1197 0.5884,0.1197"/><polyline points="-0.6056,0.0521 0.5884,0.0521"/><polyline points="-0.6056,-0.0155 0.5884,-0.0155"/><polyline points="-0.6056,-0.0831 0.5884,-0.0831"/><polyline points="-0.6056,-0.1507 0.5884,-0.1507"/><polyline points="-0.6056,-0.2183 0.5884,-0.2183"/><polyline points="-0.6056,-0.2858 0.5884,-0.2858"/><polyline points="-0.6056,-0.3534 0.5884,-0.3534"/></g></g></g><g class="axisbar"><g stroke-width="0" stroke="rgb(0%, 0%, 0%)" stroke-opacity="0" fill="rgb(5%, 5%, 5%)" fill-opacity="0.4"><rect width="0.0032" height="0.6785" x="-0.6227" y="-0.3548"/></g></g></g><g class="axis"><g class="ticks"><g class="tickglyph"><g stroke-width="0.0040" stroke="rgb(5%, 5%, 5%)" stroke-opacity="0.4" fill="rgb(5%, 5%, 5%)" fill-opacity="0.4"><polyline points="-0.6056,0.3628
-0.6056,0.3328"/><polyline points="-0.4066,0.3628
-0.4066,0.3328"/><polyline points="-0.2076,0.3628
-0.2076,0.3328"/><polyline points="-0.0086,0.3628
-0.0086,0.3328"/><polyline points="0.1904,0.3628
0.1904,0.3328"/><polyline points="0.3894,0.3628
0.3894,0.3328"/><polyline points="0.5884,0.3628
0.5884,0.3328"/></g></g><g class="ticktext"><g stroke-width="0.0" stroke="none" fill="rgb(5%, 5%, 5%)" fill-opacity="1.0" font-size="0.0399" text-anchor="middle"><text x="-0.6056" y="0.3909">0.0</text><text x="-0.4066" y="0.3909">0.5</text><text x="-0.2076" y="0.3909">1.0</text><text x="-0.0086" y="0.3909">1.5</text><text x="0.1904" y="0.3909">2.0</text><text x="0.3894" y="0.3909">2.5</text><text x="0.5884" y="0.3909">3.0</text></g></g><g class="ticklines"><g stroke-width="0.0050" stroke="rgb(5%, 5%, 5%)" stroke-opacity="0.05" fill="none"><polyline points="-0.6056,0.3224 -0.6056,-0.3534"/><polyline points="-0.4066,0.3224 -0.4066,-0.3534"/><polyline points="-0.2076,0.3224 -0.2076,-0.3534"/><polyline points="-0.0086,0.3224 -0.0086,-0.3534"/><polyline points="0.1904,0.3224 0.1904,-0.3534"/><polyline points="0.3894,0.3224 0.3894,-0.3534"/><polyline points="0.5884,0.3224 0.5884,-0.3534"/></g></g></g><g class="axisbar"><g stroke-width="0" stroke="rgb(0%, 0%, 0%)" stroke-opacity="0" fill="rgb(5%, 5%, 5%)" fill-opacity="0.4"><rect width="1.1972" height="0.0027" x="-0.6072" y="0.3343"/></g></g></g><g class="title"><g stroke-width="0.0" stroke="none" fill="rgb(5%, 5%, 5%)" fill-opacity="1.0" font-size="0.0798" text-anchor="middle"><text x="-0.0514" y="-0.4187">Line Chart</text></g></g><g class="title"><g stroke-width="0.0" stroke="none" fill="rgb(5%, 5%, 5%)" fill-opacity="1.0" font-size="0.0479" text-anchor="end"><text x="0.6153" y="0.4607">Made with love and chart-svg</text></g></g><g class="legend"><g class="legendBorder"><g stroke-width="0.0025" stroke="rgb(5%, 5%, 5%)" stroke-opacity="1.0" fill="rgb(99%, 99%, 99%)" fill-opacity="1.0"><rect width="0.3850" height="0.1796" x="0.3291" y="0.0777"/></g></g><g class="legendContent"><g stroke-width="0.0" stroke="none" fill="rgb(5%, 5%, 5%)" fill-opacity="1.0" font-size="0.0399" text-anchor="start"><text x="0.3490" y="0.2302">palette1 2</text></g><g stroke-width="0.0150" stroke="rgb(66%, 7%, 55%)" stroke-opacity="1.0" fill="none"><polyline points="0.5685,0.2217 0.6882,0.2217"/></g><g stroke-width="0.0" stroke="none" fill="rgb(5%, 5%, 5%)" fill-opacity="1.0" font-size="0.0399" text-anchor="start"><text x="0.3490" y="0.1760">palette1 1</text></g><g stroke-width="0.0150" stroke="rgb(2%, 29%, 48%)" stroke-opacity="1.0" fill="none"><polyline points="0.5685,0.1675 0.6882,0.1675"/></g><g stroke-width="0.0" stroke="none" fill="rgb(5%, 5%, 5%)" fill-opacity="1.0" font-size="0.0399" text-anchor="start"><text x="0.3490" y="0.1218">palette1 0</text></g><g stroke-width="0.0150" stroke="rgb(2%, 73%, 80%)" stroke-opacity="1.0" fill="none"><polyline points="0.5685,0.1133 0.6882,0.1133"/></g></g></g><g class="frame"><g stroke-width="0" stroke="rgb(0%, 0%, 0%)" stroke-opacity="0" fill="rgb(100%, 100%, 100%)" fill-opacity="0.02"><rect width="1.5000" height="1.0" x="-0.75" y="-0.5"/></g></g></g></svg>