<svg width="447.2442650255034" xmlns:xlink="http://www.w3.org/1999/xlink" xmlns="http://www.w3.org/2000/svg" viewBox="-0.77 -0.5143230897086858 1.54 1.032992563859159" height="300.0"><style>svg {
  color-scheme: light dark;
}
@media (prefers-color-scheme:dark) {
  svg {
    background-color: #f0f0f0;
  }
}</style><g stroke-opacity="1.0" fill="none" stroke="#b05929" stroke-width="1.5e-2"><polyline points="-0.6589470721577337,0.19983627433145346
-0.3166428321492142,0.19983627433145346
2.5661407859305374e-2,-0.38229943605603056"/></g><g stroke-opacity="1.0" fill="none" stroke="#a6cfe3" stroke-width="3.0e-2"><polyline points="-0.6589470721577337,0.34537020192832446
0.2995047998661211,-9.123158086228866e-2"/></g><g stroke-opacity="1.0" fill="none" stroke="#1f78b5" stroke-width="1.0e-2"><polyline points="-0.4877949521534739,-0.23676550845915956
-0.4877949521534739,0.34537020192832446"/></g><g stroke-opacity="1.0" fill="#0d0d0d" stroke="#0d0d0d" stroke-width="2.5e-3" fill-opacity="0.0"><rect width="0.23833503217659846" x="0.5076714183566355" y="-0.11460796798253592" height="0.14480625795888663"/></g><g fill="#0d0d0d" stroke="none" stroke-width="0.0" font-size="1.9169037440477096e-2" fill-opacity="1.0" text-anchor="start"><text x="0.5236456162236998" y="5.45752228488261e-3">vertical</text></g><g stroke-opacity="1.0" fill="none" stroke="#1f78b5" stroke-width="1.0e-2"><polyline points="0.6246025467435457,-0.0
0.720447733945931,-0.0"/></g><g fill="#0d0d0d" stroke="none" stroke-width="0.0" font-size="1.9169037440477096e-2" fill-opacity="1.0" text-anchor="start"><text x="0.5236456162236998" y="-3.6747316718209966e-2">line</text></g><g stroke-opacity="1.0" fill="none" stroke="#a6cfe3" stroke-width="3.0e-2"><polyline points="0.6246025467435457,-4.220483900309269e-2
0.720447733945931,-4.220483900309269e-2"/></g><g fill="#0d0d0d" stroke="none" stroke-width="0.0" font-size="1.9169037440477096e-2" fill-opacity="1.0" text-anchor="start"><text x="0.5236456162236998" y="-7.895215572130254e-2">hockey</text></g><g stroke-opacity="1.0" fill="none" stroke="#b05929" stroke-width="1.5e-2"><polyline points="0.6246025467435457,-8.440967800618515e-2
0.720447733945931,-8.440967800618515e-2"/></g><g fill="#0d0d0d" stroke="none" stroke-width="0.0" font-size="5.111743317460559e-2" fill-opacity="1.0" text-anchor="middle"><text x="-0.17475772466568285" y="-0.4534291431690013">Line Chart</text></g><g fill="#0d0d0d" stroke="none" stroke-width="0.0" font-size="3.194839573412849e-2" fill-opacity="1.0" text-anchor="end"><text x="0.4004845506686343" y="0.48908495543023467">Made with love and chart-svg</text></g><g stroke-opacity="0.0" fill="#0d0d0d" stroke="#000000" stroke-width="0.0" fill-opacity="0.4"><rect width="1.0500068460848" x="-0.6698095267073374" y="0.36356194287793336" height="2.91067855193744e-3"/></g><g stroke-opacity="0.4" fill="#0d0d0d" stroke="#0d0d0d" stroke-width="4.0e-3" fill-opacity="0.4"><polyline points="-0.6685315908779723,0.39311533563762047
-0.6685315908779723,0.36311533563762044"/><polyline points="-0.49395642847362736,0.39311533563762047
-0.49395642847362736,0.36311533563762044"/><polyline points="-0.3193812660692823,0.39311533563762047
-0.3193812660692823,0.36311533563762044"/><polyline points="-0.1448061036649373,0.39311533563762047
-0.1448061036649373,0.36311533563762044"/><polyline points="2.9769058739407717e-2,0.39311533563762047
2.9769058739407717e-2,0.36311533563762044"/><polyline points="0.2043442211437525,0.39311533563762047
0.2043442211437525,0.36311533563762044"/><polyline points="0.3789193835480975,0.39311533563762047
0.3789193835480975,0.36311533563762044"/></g><g fill="#0d0d0d" stroke="none" stroke-width="0.0" font-size="3.194839573412849e-2" fill-opacity="1.0" text-anchor="middle"><text x="-0.6685315908779723" y="0.41995633982172087">0.0</text><text x="-0.49395642847362736" y="0.41995633982172087">0.5</text><text x="-0.3193812660692823" y="0.41995633982172087">1.0</text><text x="-0.1448061036649373" y="0.41995633982172087">1.5</text><text x="2.9769058739407717e-2" y="0.41995633982172087">2.0</text><text x="0.2043442211437525" y="0.41995633982172087">2.5</text><text x="0.3789193835480975" y="0.41995633982172087">3.0</text></g><g stroke-opacity="5.0e-2" fill="none" stroke="#0d0d0d" stroke-width="5.0e-3"><polyline points="-0.6685315908779723,0.3562852464980898
-0.6685315908779723,-0.3877569583409133"/><polyline points="-0.49395642847362736,0.3562852464980898
-0.49395642847362736,-0.3877569583409133"/><polyline points="-0.3193812660692823,0.3562852464980898
-0.3193812660692823,-0.3877569583409133"/><polyline points="-0.1448061036649373,0.3562852464980898
-0.1448061036649373,-0.3877569583409133"/><polyline points="2.9769058739407717e-2,0.3562852464980898
2.9769058739407717e-2,-0.3877569583409133"/><polyline points="0.2043442211437525,0.3562852464980898
0.2043442211437525,-0.3877569583409133"/><polyline points="0.3789193835480975,0.3562852464980898
0.3789193835480975,-0.3877569583409133"/></g><g stroke-opacity="0.0" fill="#0d0d0d" stroke="#000000" stroke-width="0.0" fill-opacity="0.4"><rect width="2.555871658730391e-3" x="-0.6774771416835283" y="-0.3892122976168818" height="0.7469528833909403"/></g><g stroke-opacity="0.4" fill="#0d0d0d" stroke="#0d0d0d" stroke-width="4.0e-3" fill-opacity="0.4"><g transform="rotate(-90.0, -0.6877006283184495, 0.3562852464980898)"><polyline points="-0.6877006283184495,0.3712852464980898
-0.6877006283184495,0.3412852464980898"/></g><g transform="rotate(-90.0, -0.6877006283184495, 0.2818810260141895)"><polyline points="-0.6877006283184495,0.29688102601418953
-0.6877006283184495,0.2668810260141895"/></g><g transform="rotate(-90.0, -0.6877006283184495, 0.2074768055302892)"><polyline points="-0.6877006283184495,0.2224768055302892
-0.6877006283184495,0.19247680553028917"/></g><g transform="rotate(-90.0, -0.6877006283184495, 0.1330725850463889)"><polyline points="-0.6877006283184495,0.14807258504638893
-0.6877006283184495,0.11807258504638891"/></g><g transform="rotate(-90.0, -0.6877006283184495, 5.8668364562488584e-2)"><polyline points="-0.6877006283184495,7.366836456248858e-2
-0.6877006283184495,4.3668364562488585e-2"/></g><g transform="rotate(-90.0, -0.6877006283184495, -1.573585592141169e-2)"><polyline points="-0.6877006283184495,-7.358559214116905e-4
-0.6877006283184495,-3.073585592141169e-2"/></g><g transform="rotate(-90.0, -0.6877006283184495, -9.014007640531208e-2)"><polyline points="-0.6877006283184495,-7.514007640531208e-2
-0.6877006283184495,-0.10514007640531207"/></g><g transform="rotate(-90.0, -0.6877006283184495, -0.16454429688921235)"><polyline points="-0.6877006283184495,-0.14954429688921234
-0.6877006283184495,-0.17954429688921236"/></g><g transform="rotate(-90.0, -0.6877006283184495, -0.23894851737311273)"><polyline points="-0.6877006283184495,-0.22394851737311272
-0.6877006283184495,-0.25394851737311275"/></g><g transform="rotate(-90.0, -0.6877006283184495, -0.3133527378570128)"><polyline points="-0.6877006283184495,-0.2983527378570128
-0.6877006283184495,-0.3283527378570128"/></g><g transform="rotate(-90.0, -0.6877006283184495, -0.3877569583409133)"><polyline points="-0.6877006283184495,-0.37275695834091327
-0.6877006283184495,-0.4027569583409133"/></g></g><g fill="#0d0d0d" stroke="none" stroke-width="0.0" font-size="3.194839573412849e-2" fill-opacity="1.0" text-anchor="end"><text x="-0.7068696657589265" y="0.36629070402037467">0.0</text><text x="-0.7068696657589265" y="0.2918864835364744">0.5</text><text x="-0.7068696657589265" y="0.21748226305257407">1.0</text><text x="-0.7068696657589265" y="0.14307804256867374">1.5</text><text x="-0.7068696657589265" y="6.867382208477346e-2">2.0</text><text x="-0.7068696657589265" y="-5.730398399126813e-3">2.5</text><text x="-0.7068696657589265" y="-8.013461888302709e-2">3.0</text><text x="-0.7068696657589265" y="-0.15453883936692736">3.5</text><text x="-0.7068696657589265" y="-0.22894305985082775">4.0</text><text x="-0.7068696657589265" y="-0.303347280334728">4.5</text><text x="-0.7068696657589265" y="-0.3777515008186283">5.0</text></g><g stroke-opacity="5.0e-2" fill="none" stroke="#0d0d0d" stroke-width="5.0e-3"><polyline points="-0.6685315908779723,0.3562852464980898
0.3789193835480975,0.3562852464980898"/><polyline points="-0.6685315908779723,0.2818810260141895
0.3789193835480975,0.2818810260141895"/><polyline points="-0.6685315908779723,0.2074768055302892
0.3789193835480975,0.2074768055302892"/><polyline points="-0.6685315908779723,0.1330725850463889
0.3789193835480975,0.1330725850463889"/><polyline points="-0.6685315908779723,5.8668364562488584e-2
0.3789193835480975,5.8668364562488584e-2"/><polyline points="-0.6685315908779723,-1.573585592141169e-2
0.3789193835480975,-1.573585592141169e-2"/><polyline points="-0.6685315908779723,-9.014007640531208e-2
0.3789193835480975,-9.014007640531208e-2"/><polyline points="-0.6685315908779723,-0.16454429688921235
0.3789193835480975,-0.16454429688921235"/><polyline points="-0.6685315908779723,-0.23894851737311273
0.3789193835480975,-0.23894851737311273"/><polyline points="-0.6685315908779723,-0.3133527378570128
0.3789193835480975,-0.3133527378570128"/><polyline points="-0.6685315908779723,-0.3877569583409133
0.3789193835480975,-0.3877569583409133"/></g></svg>