<svg width="474.6875550079211" xmlns:xlink="http://www.w3.org/1999/xlink" xmlns="http://www.w3.org/2000/svg" viewBox="-0.9185000000000001 -0.6817500000000003 2.2472500000000006 1.4202500000000005" height="300.0"><style>svg {
  color-scheme: light dark;
}
{
  .canvas g, .title g, .axisbar g, .ticktext g, .tickglyph g, .ticklines g, .legendContent g text {
    fill: #0d0d0d;
  }
  .ticklines g, .tickglyph g, .legendBorder g {
    stroke: #0d0d0d;
  }
}
@media (prefers-color-scheme:dark) {
  .canvas g, .title g, .axisbar g, .ticktext g, .tickglyph g, .ticklines g, .legendContent g text {
    fill: #f0f0f0;
  }
  .ticklines g, .tickglyph g, .legendBorder g {
    stroke: #f0f0f0;
  }
}</style><g class="line"><g stroke-opacity="1.0" fill="none" stroke="#b05929" stroke-width="1.5e-2"><polyline points="-0.7499999999999999,0.29999999999999993
-0.2499999999999999,0.29999999999999993
0.2500000000000002,-0.5"/></g><g stroke-opacity="1.0" fill="none" stroke="#a6cfe3" stroke-width="3.0e-2"><polyline points="-0.7499999999999999,0.5
0.6500000000000001,-0.10000000000000009"/></g><g stroke-opacity="1.0" fill="none" stroke="#1f78b5" stroke-width="1.0e-2"><polyline points="-0.49999999999999994,-0.30000000000000004
-0.49999999999999994,0.5"/></g></g><g class="hud"><g class="axis"><g class="ticks"><g class="tickglyph"><g stroke-opacity="0.4" fill="#0d0d0d" stroke="#0d0d0d" stroke-width="4.0e-3" fill-opacity="0.4"><g transform="rotate(-90.0, -0.795, 0.515)"><polyline points="-0.795,0.53
-0.795,0.5"/></g><g transform="rotate(-90.0, -0.795, 0.41275)"><polyline points="-0.795,0.42775
-0.795,0.39775"/></g><g transform="rotate(-90.0, -0.795, 0.3105)"><polyline points="-0.795,0.3255
-0.795,0.2955"/></g><g transform="rotate(-90.0, -0.795, 0.20825)"><polyline points="-0.795,0.22325
-0.795,0.19324999999999998"/></g><g transform="rotate(-90.0, -0.795, 0.10599999999999998)"><polyline points="-0.795,0.12099999999999998
-0.795,9.099999999999998e-2"/></g><g transform="rotate(-90.0, -0.795, 3.74999999999992e-3)"><polyline points="-0.795,1.874999999999992e-2
-0.795,-1.125000000000008e-2"/></g><g transform="rotate(-90.0, -0.795, -9.850000000000025e-2)"><polyline points="-0.795,-8.350000000000025e-2
-0.795,-0.11350000000000025"/></g><g transform="rotate(-90.0, -0.795, -0.2007500000000001)"><polyline points="-0.795,-0.18575000000000008
-0.795,-0.2157500000000001"/></g><g transform="rotate(-90.0, -0.795, -0.30300000000000005)"><polyline points="-0.795,-0.28800000000000003
-0.795,-0.31800000000000006"/></g><g transform="rotate(-90.0, -0.795, -0.4052500000000002)"><polyline points="-0.795,-0.3902500000000002
-0.795,-0.42025000000000023"/></g><g transform="rotate(-90.0, -0.795, -0.5075000000000001)"><polyline points="-0.795,-0.49250000000000005
-0.795,-0.5225000000000001"/></g></g></g><g class="ticktext"><g fill="#0d0d0d" stroke="none" stroke-width="0.0" font-size="5.000000000000001e-2" fill-opacity="1.0" text-anchor="end"><text x="-0.8310000000000001" y="0.5287500000000002">0.0</text><text x="-0.8310000000000001" y="0.42649999999999993">0.5</text><text x="-0.8310000000000001" y="0.32425000000000004">1.0</text><text x="-0.8310000000000001" y="0.22199999999999998">1.5</text><text x="-0.8310000000000001" y="0.11974999999999997">2.0</text><text x="-0.8310000000000001" y="1.750000000000007e-2">2.5</text><text x="-0.8310000000000001" y="-8.474999999999999e-2">3.0</text><text x="-0.8310000000000001" y="-0.18700000000000006">3.5</text><text x="-0.8310000000000001" y="-0.28925">4.0</text><text x="-0.8310000000000001" y="-0.3915000000000002">4.5</text><text x="-0.8310000000000001" y="-0.49375000000000013">5.0</text></g></g><g class="ticklines"><g stroke-opacity="5.0e-2" fill="none" stroke="#0d0d0d" stroke-width="5.0e-3"><polyline points="-0.7649999999999999,0.515
0.75,0.515"/><polyline points="-0.7649999999999999,0.41275
0.75,0.41275"/><polyline points="-0.7649999999999999,0.3105
0.75,0.3105"/><polyline points="-0.7649999999999999,0.20825
0.75,0.20825"/><polyline points="-0.7649999999999999,0.10599999999999998
0.75,0.10599999999999998"/><polyline points="-0.7649999999999999,3.74999999999992e-3
0.75,3.74999999999992e-3"/><polyline points="-0.7649999999999999,-9.850000000000025e-2
0.75,-9.850000000000025e-2"/><polyline points="-0.7649999999999999,-0.2007500000000001
0.75,-0.2007500000000001"/><polyline points="-0.7649999999999999,-0.30300000000000005
0.75,-0.30300000000000005"/><polyline points="-0.7649999999999999,-0.4052500000000002
0.75,-0.4052500000000002"/><polyline points="-0.7649999999999999,-0.5075000000000001
0.75,-0.5075000000000001"/></g></g></g><g class="axisbar"><g stroke-opacity="0.0" fill="#0d0d0d" stroke="#000000" stroke-width="0.0" fill-opacity="0.4"><rect width="4.000000000000115e-3" x="-0.779" y="-0.5095000000000003" height="1.0265000000000004"/></g></g></g><g class="axis"><g class="ticks"><g class="tickglyph"><g stroke-opacity="0.4" fill="#0d0d0d" stroke="#0d0d0d" stroke-width="4.0e-3" fill-opacity="0.4"><polyline points="-0.7649999999999999,0.56
-0.7649999999999999,0.53"/><polyline points="-0.5124999999999998,0.56
-0.5124999999999998,0.53"/><polyline points="-0.26,0.56
-0.26,0.53"/><polyline points="-7.49999999999984e-3,0.56
-7.49999999999984e-3,0.53"/><polyline points="0.24499999999999988,0.56
0.24499999999999988,0.53"/><polyline points="0.49749999999999983,0.56
0.49749999999999983,0.53"/><polyline points="0.7500000000000007,0.56
0.7500000000000007,0.53"/></g></g><g class="ticktext"><g fill="#0d0d0d" stroke="none" stroke-width="0.0" font-size="5.000000000000001e-2" fill-opacity="1.0" text-anchor="middle"><text x="-0.7649999999999999" y="0.6085">0.0</text><text x="-0.5124999999999998" y="0.6085">0.5</text><text x="-0.26" y="0.6085">1.0</text><text x="-7.49999999999984e-3" y="0.6085">1.5</text><text x="0.24499999999999988" y="0.6085">2.0</text><text x="0.49749999999999983" y="0.6085">2.5</text><text x="0.7500000000000007" y="0.6085">3.0</text></g></g><g class="ticklines"><g stroke-opacity="5.0e-2" fill="none" stroke="#0d0d0d" stroke-width="5.0e-3"><polyline points="-0.7649999999999999,0.515
-0.7649999999999999,-0.5075000000000001"/><polyline points="-0.5124999999999998,0.515
-0.5124999999999998,-0.5075000000000001"/><polyline points="-0.26,0.515
-0.26,-0.5075000000000001"/><polyline points="-7.49999999999984e-3,0.515
-7.49999999999984e-3,-0.5075000000000001"/><polyline points="0.24499999999999988,0.515
0.24499999999999988,-0.5075000000000001"/><polyline points="0.49749999999999983,0.515
0.49749999999999983,-0.5075000000000001"/><polyline points="0.7500000000000007,0.515
0.7500000000000007,-0.5075000000000001"/></g></g></g><g class="axisbar"><g stroke-opacity="0.0" fill="#0d0d0d" stroke="#000000" stroke-width="0.0" fill-opacity="0.4"><rect width="1.5190000000000003" x="-0.7669999999999999" y="0.525" height="4.0000000000000036e-3"/></g></g></g><g class="title"><g fill="#0d0d0d" stroke="none" stroke-width="0.0" font-size="5.000000000000001e-2" fill-opacity="1.0" text-anchor="end"><text x="0.7837500000000004" y="0.7035000000000001">Made with love and chart-svg</text></g></g><g class="title"><g fill="#0d0d0d" stroke="none" stroke-width="0.0" font-size="8.000000000000002e-2" fill-opacity="1.0" text-anchor="middle"><text x="-5.737499999999973e-2" y="-0.5977500000000002">Line Chart</text></g></g><g class="legend"><g class="legendBorder"><g stroke-opacity="1.0" fill="#0d0d0d" stroke="#0d0d0d" stroke-width="2.5e-3" fill-opacity="0.0"><rect width="0.44500000000000073" x="0.8587500000000003" y="-0.1841250000000002" height="0.2650000000000002"/></g></g><g class="legendContent"><g><g fill="#0d0d0d" stroke="none" stroke-width="0.0" font-size="5.000000000000001e-2" fill-opacity="1.0" text-anchor="start"><text x="0.8837500000000005" y="4.087499999999994e-2">vertical</text></g><g stroke-opacity="1.0" fill="none" stroke="#1f78b5" stroke-width="1.0e-2"><polyline points="1.113750000000001,2.837500000000004e-2
1.2637500000000006,2.837500000000004e-2"/></g><g fill="#0d0d0d" stroke="none" stroke-width="0.0" font-size="5.000000000000001e-2" fill-opacity="1.0" text-anchor="start"><text x="0.8837500000000005" y="-3.9124999999999965e-2">line</text></g><g stroke-opacity="1.0" fill="none" stroke="#a6cfe3" stroke-width="3.0e-2"><polyline points="1.113750000000001,-5.162500000000003e-2
1.2637500000000006,-5.162500000000003e-2"/></g><g fill="#0d0d0d" stroke="none" stroke-width="0.0" font-size="5.000000000000001e-2" fill-opacity="1.0" text-anchor="start"><text x="0.8837500000000005" y="-0.11912500000000004">hockey</text></g><g stroke-opacity="1.0" fill="none" stroke="#b05929" stroke-width="1.5e-2"><polyline points="1.113750000000001,-0.1316250000000001
1.2637500000000006,-0.1316250000000001"/></g></g></g></g></g></svg>