<svg width="433.81866842582434" xmlns:xlink="http://www.w3.org/1999/xlink" xmlns="http://www.w3.org/2000/svg" viewBox="-0.794620699846847 -0.5539567933368039 1.564620699846847 1.0819871160853725" height="300.0"><style>svg {
  color-scheme: light dark;
}
@media (prefers-color-scheme:dark) {
  svg {
    background-color: #f0f0f0;
  }
}</style><g></g><g stroke-opacity="1.0" fill="#0d0d0d" stroke="#0d0d0d" stroke-width="2.5e-3" fill-opacity="0.0"><rect width="0.2586137407861857" x="0.48718798420105136" y="-0.1275377407600209" height="0.15998611834114185"/></g><g fill="#0d0d0d" stroke="none" stroke-width="0.0" font-size="3.0e-2" fill-opacity="1.0" text-anchor="start"><text x="0.5039810842521026" y="4.164497657470012e-3">vertical</text></g><g stroke-opacity="1.0" fill="none" stroke="#1f78b5" stroke-width="1.0e-2"><polyline points="0.6181741645992496,-0.0
0.7189327649055555,-0.0"/></g><g fill="#0d0d0d" stroke="none" stroke-width="0.0" font-size="3.0e-2" fill-opacity="1.0" text-anchor="start"><text x="0.5039810842521026" y="-4.338018393197984e-2">line</text></g><g stroke-opacity="1.0" fill="none" stroke="#a6cfe3" stroke-width="3.0e-2"><polyline points="0.6181741645992496,-4.754468158944991e-2
0.7189327649055555,-4.754468158944991e-2"/></g><g fill="#0d0d0d" stroke="none" stroke-width="0.0" font-size="3.0e-2" fill-opacity="1.0" text-anchor="start"><text x="0.5039810842521026" y="-9.092486552142975e-2">hockey</text></g><g stroke-opacity="1.0" fill="none" stroke="#b05929" stroke-width="1.5e-2"><polyline points="0.6181741645992496,-9.508936317889982e-2
0.7189327649055555,-9.508936317889982e-2"/></g><g fill="#0d0d0d" stroke="none" stroke-width="0.0" font-size="0.12" fill-opacity="1.0" text-anchor="middle"><text x="-0.18976203057687657" y="-0.4229567933368039">Line Chart</text></g><g fill="#0d0d0d" stroke="none" stroke-width="0.0" font-size="5.0e-2" fill-opacity="1.0" text-anchor="end"><text x="0.37047593884624686" y="0.48178032274856847">Made with love and chart-svg</text></g><g stroke-opacity="5.0e-2" fill="none" stroke="#0d0d0d" stroke-width="5.0e-3"><polyline points="-0.6471859242474453,0.320926600728787
0.3604000788156161,0.320926600728787"/><polyline points="-0.6471859242474453,0.25151830643761924
0.3604000788156161,0.25151830643761924"/><polyline points="-0.6471859242474453,0.1821100121464514
0.3604000788156161,0.1821100121464514"/><polyline points="-0.6471859242474453,0.1127017178552836
0.3604000788156161,0.1127017178552836"/><polyline points="-0.6471859242474453,4.329342356411581e-2
0.3604000788156161,4.329342356411581e-2"/><polyline points="-0.6471859242474453,-2.6114870727051986e-2
0.3604000788156161,-2.6114870727051986e-2"/><polyline points="-0.6471859242474453,-9.552316501821978e-2
0.3604000788156161,-9.552316501821978e-2"/><polyline points="-0.6471859242474453,-0.16493145930938757
0.3604000788156161,-0.16493145930938757"/><polyline points="-0.6471859242474453,-0.23433975360055548
0.3604000788156161,-0.23433975360055548"/><polyline points="-0.6471859242474453,-0.30374804789172316
0.3604000788156161,-0.30374804789172316"/><polyline points="-0.6471859242474453,-0.37315634218289084
0.3604000788156161,-0.37315634218289084"/></g><g fill="#0d0d0d" stroke="none" stroke-width="0.0" font-size="5.0e-2" fill-opacity="1.0" text-anchor="end"><text x="-0.6996206998468469" y="0.3309908034010063">0</text><text x="-0.6996206998468469" y="0.2615825091098386">0.5</text><text x="-0.6996206998468469" y="0.19217421481867075">1</text><text x="-0.6996206998468469" y="0.12276592052750296">1.5</text><text x="-0.6996206998468469" y="5.335762623633511e-2">2</text><text x="-0.6996206998468469" y="-1.6050668054832684e-2">2.5</text><text x="-0.6996206998468469" y="-8.545896234600048e-2">3</text><text x="-0.6996206998468469" y="-0.15486725663716827">3.5</text><text x="-0.6996206998468469" y="-0.22427555092833595">4</text><text x="-0.6996206998468469" y="-0.29368384521950386">4.5</text><text x="-0.6996206998468469" y="-0.36309213951067154">5</text></g><g stroke-opacity="0.4" fill="#0d0d0d" stroke="#0d0d0d" stroke-width="4.0e-3" fill-opacity="0.4"><g transform="rotate(-90.0, -0.6780852283413792, 0.320926600728787)"><polyline points="-0.6780852283413792,0.335926600728787
-0.6780852283413792,0.30592660072878697"/></g><g transform="rotate(-90.0, -0.6780852283413792, 0.25151830643761924)"><polyline points="-0.6780852283413792,0.26651830643761926
-0.6780852283413792,0.23651830643761923"/></g><g transform="rotate(-90.0, -0.6780852283413792, 0.1821100121464514)"><polyline points="-0.6780852283413792,0.1971100121464514
-0.6780852283413792,0.16711001214645138"/></g><g transform="rotate(-90.0, -0.6780852283413792, 0.1127017178552836)"><polyline points="-0.6780852283413792,0.12770171785528361
-0.6780852283413792,9.77017178552836e-2"/></g><g transform="rotate(-90.0, -0.6780852283413792, 4.329342356411581e-2)"><polyline points="-0.6780852283413792,5.829342356411581e-2
-0.6780852283413792,2.8293423564115808e-2"/></g><g transform="rotate(-90.0, -0.6780852283413792, -2.6114870727051986e-2)"><polyline points="-0.6780852283413792,-1.1114870727051987e-2
-0.6780852283413792,-4.1114870727051986e-2"/></g><g transform="rotate(-90.0, -0.6780852283413792, -9.552316501821978e-2)"><polyline points="-0.6780852283413792,-8.052316501821978e-2
-0.6780852283413792,-0.11052316501821978"/></g><g transform="rotate(-90.0, -0.6780852283413792, -0.16493145930938757)"><polyline points="-0.6780852283413792,-0.14993145930938756
-0.6780852283413792,-0.1799314593093876"/></g><g transform="rotate(-90.0, -0.6780852283413792, -0.23433975360055548)"><polyline points="-0.6780852283413792,-0.21933975360055546
-0.6780852283413792,-0.2493397536005555"/></g><g transform="rotate(-90.0, -0.6780852283413792, -0.30374804789172316)"><polyline points="-0.6780852283413792,-0.28874804789172315
-0.6780852283413792,-0.3187480478917232"/></g><g transform="rotate(-90.0, -0.6780852283413792, -0.37315634218289084)"><polyline points="-0.6780852283413792,-0.35815634218289083
-0.6780852283413792,-0.38815634218289086"/></g></g><g stroke-opacity="0.0" fill="#0d0d0d" stroke="#000000" stroke-width="0.0" fill-opacity="0.4"><rect width="2.6868960081681825e-3" x="-0.6666659203066645" y="-0.3745445080687143" height="0.6968592746833246"/></g><g stroke-opacity="5.0e-2" fill="none" stroke="#0d0d0d" stroke-width="5.0e-3"><polyline points="-0.6471859242474453,0.320926600728787
-0.6471859242474453,-0.37315634218289084"/><polyline points="-0.4672598522718986,0.320926600728787
-0.4672598522718986,-0.37315634218289084"/><polyline points="-0.2873337802963519,0.320926600728787
-0.2873337802963519,-0.37315634218289084"/><polyline points="-0.10740770832080515,0.320926600728787
-0.10740770832080515,-0.37315634218289084"/><polyline points="7.251836365474151e-2,0.320926600728787
7.251836365474151e-2,-0.37315634218289084"/><polyline points="0.2524444356302882,0.320926600728787
0.2524444356302882,-0.37315634218289084"/></g><g fill="#0d0d0d" stroke="none" stroke-width="0.0" font-size="5.0e-2" fill-opacity="1.0" text-anchor="middle"><text x="-0.6471859242474453" y="0.41063682110012145">0</text><text x="-0.4672598522718986" y="0.41063682110012145">0.5</text><text x="-0.2873337802963519" y="0.41063682110012145">1</text><text x="-0.10740770832080515" y="0.41063682110012145">1.5</text><text x="7.251836365474151e-2" y="0.41063682110012145">2</text><text x="0.2524444356302882" y="0.41063682110012145">2.5</text></g><g stroke-opacity="0.4" fill="#0d0d0d" stroke="#0d0d0d" stroke-width="4.0e-3" fill-opacity="0.4"><polyline points="-0.6471859242474453,0.36785441610272424
-0.6471859242474453,0.3378544161027242"/><polyline points="-0.4672598522718986,0.36785441610272424
-0.4672598522718986,0.3378544161027242"/><polyline points="-0.2873337802963519,0.36785441610272424
-0.2873337802963519,0.3378544161027242"/><polyline points="-0.10740770832080515,0.36785441610272424
-0.10740770832080515,0.3378544161027242"/><polyline points="7.251836365474151e-2,0.36785441610272424
7.251836365474151e-2,0.3378544161027242"/><polyline points="0.2524444356302882,0.36785441610272424
0.2524444356302882,0.3378544161027242"/></g><g stroke-opacity="0.0" fill="#0d0d0d" stroke="#000000" stroke-width="0.0" fill-opacity="0.4"><rect width="1.0102728990712297" x="-0.6485293722515293" y="0.338278674301579" height="2.7763317716467117e-3"/></g><g stroke-opacity="1.0" fill="none" stroke="#b05929" stroke-width="1.5e-2"><polyline points="-0.6471859242474453,0.1821100121464514
-0.2873337802963519,0.1821100121464514
7.251836365474151e-2,-0.37315634218289084"/></g><g stroke-opacity="1.0" fill="none" stroke="#a6cfe3" stroke-width="3.0e-2"><polyline points="-0.6471859242474453,0.320926600728787
0.3604000788156161,-9.552316501821978e-2"/></g><g stroke-opacity="1.0" fill="none" stroke="#1f78b5" stroke-width="1.0e-2"><polyline points="-0.4672598522718986,-0.23433975360055548
-0.4672598522718986,0.320926600728787"/></g></svg>