<svg xmlns="http://www.w3.org/2000/svg" height="300.0" viewBox="-0.87 -0.5532016310461191 1.6774999999999998 1.099451631046119" width="450.0" xmlns:xlink="http://www.w3.org/1999/xlink"><g stroke-opacity="0.0" fill-opacity="2.5e-2" stroke="#000000" stroke-width="0.0" fill="#808080"><rect height="0.8998875140607423" width="1.397450429327826" x="-0.6474504293278263" y="-0.4999999999999999"/></g><g stroke-opacity="5.0e-2" stroke="#808080" stroke-width="5.0e-3" fill="none"><polyline points="-0.6474504293278263,0.39988751406074247
0.7499999999999998,0.39988751406074247"/></g><g stroke-opacity="5.0e-2" stroke="#808080" stroke-width="5.0e-3" fill="none"><polyline points="-0.6474504293278263,0.32489688788901394
0.7499999999999998,0.32489688788901394"/></g><g stroke-opacity="5.0e-2" stroke="#808080" stroke-width="5.0e-3" fill="none"><polyline points="-0.6474504293278263,0.24990626171728542
0.7499999999999998,0.24990626171728542"/></g><g stroke-opacity="5.0e-2" stroke="#808080" stroke-width="5.0e-3" fill="none"><polyline points="-0.6474504293278263,0.1749156355455569
0.7499999999999998,0.1749156355455569"/></g><g stroke-opacity="5.0e-2" stroke="#808080" stroke-width="5.0e-3" fill="none"><polyline points="-0.6474504293278263,9.992500937382837e-2
0.7499999999999998,9.992500937382837e-2"/></g><g stroke-opacity="5.0e-2" stroke="#808080" stroke-width="5.0e-3" fill="none"><polyline points="-0.6474504293278263,2.493438320209984e-2
0.7499999999999998,2.493438320209984e-2"/></g><g stroke-opacity="5.0e-2" stroke="#808080" stroke-width="5.0e-3" fill="none"><polyline points="-0.6474504293278263,-5.005624296962874e-2
0.7499999999999998,-5.005624296962874e-2"/></g><g stroke-opacity="5.0e-2" stroke="#808080" stroke-width="5.0e-3" fill="none"><polyline points="-0.6474504293278263,-0.1250468691413572
0.7499999999999998,-0.1250468691413572"/></g><g stroke-opacity="5.0e-2" stroke="#808080" stroke-width="5.0e-3" fill="none"><polyline points="-0.6474504293278263,-0.20003749531308568
0.7499999999999998,-0.20003749531308568"/></g><g stroke-opacity="5.0e-2" stroke="#808080" stroke-width="5.0e-3" fill="none"><polyline points="-0.6474504293278263,-0.27502812148481426
0.7499999999999998,-0.27502812148481426"/></g><g stroke-opacity="5.0e-2" stroke="#808080" stroke-width="5.0e-3" fill="none"><polyline points="-0.6474504293278263,-0.35001874765654284
0.7499999999999998,-0.35001874765654284"/></g><g stroke-opacity="5.0e-2" stroke="#808080" stroke-width="5.0e-3" fill="none"><polyline points="-0.6474504293278263,-0.4250093738282713
0.7499999999999998,-0.4250093738282713"/></g><g stroke-opacity="5.0e-2" stroke="#808080" stroke-width="5.0e-3" fill="none"><polyline points="-0.6474504293278263,-0.4999999999999999
0.7499999999999998,-0.4999999999999999"/></g><g fill-opacity="1.0" font-size="5.0e-2" stroke="none" stroke-width="0.0" fill="#808080" text-anchor="end"><text x="-0.75" y="0.4129358830146232">-0.5</text></g><g fill-opacity="1.0" font-size="5.0e-2" stroke="none" stroke-width="0.0" fill="#808080" text-anchor="end"><text x="-0.75" y="0.3379452568428947">0.0</text></g><g fill-opacity="1.0" font-size="5.0e-2" stroke="none" stroke-width="0.0" fill="#808080" text-anchor="end"><text x="-0.75" y="0.2629546306711662">0.5</text></g><g fill-opacity="1.0" font-size="5.0e-2" stroke="none" stroke-width="0.0" fill="#808080" text-anchor="end"><text x="-0.75" y="0.18796400449943768">1.0</text></g><g fill-opacity="1.0" font-size="5.0e-2" stroke="none" stroke-width="0.0" fill="#808080" text-anchor="end"><text x="-0.75" y="0.11297337832770915">1.5</text></g><g fill-opacity="1.0" font-size="5.0e-2" stroke="none" stroke-width="0.0" fill="#808080" text-anchor="end"><text x="-0.75" y="3.798275215598057e-2">2.0</text></g><g fill-opacity="1.0" font-size="5.0e-2" stroke="none" stroke-width="0.0" fill="#808080" text-anchor="end"><text x="-0.75" y="-3.700787401574801e-2">2.5</text></g><g fill-opacity="1.0" font-size="5.0e-2" stroke="none" stroke-width="0.0" fill="#808080" text-anchor="end"><text x="-0.75" y="-0.11199850018747648">3.0</text></g><g fill-opacity="1.0" font-size="5.0e-2" stroke="none" stroke-width="0.0" fill="#808080" text-anchor="end"><text x="-0.75" y="-0.18698912635920495">3.5</text></g><g fill-opacity="1.0" font-size="5.0e-2" stroke="none" stroke-width="0.0" fill="#808080" text-anchor="end"><text x="-0.75" y="-0.2619797525309334">4.0</text></g><g fill-opacity="1.0" font-size="5.0e-2" stroke="none" stroke-width="0.0" fill="#808080" text-anchor="end"><text x="-0.75" y="-0.3369703787026621">4.5</text></g><g fill-opacity="1.0" font-size="5.0e-2" stroke="none" stroke-width="0.0" fill="#808080" text-anchor="end"><text x="-0.75" y="-0.4119610048743906">5.0</text></g><g fill-opacity="1.0" font-size="5.0e-2" stroke="none" stroke-width="0.0" fill="#808080" text-anchor="end"><text x="-0.75" y="-0.48695163104611905">5.5</text></g><g stroke-opacity="1.0" fill-opacity="1.0" stroke="#808080" stroke-width="5.0e-3" fill="#808080"><g transform="rotate(-90.0, -0.7196520348430974, 0.39988751406074247)"><polyline points="-0.7196520348430974,0.4148875140607425
-0.7196520348430974,0.38488751406074245"/></g><g transform="rotate(-90.0, -0.7196520348430974, 0.32489688788901394)"><polyline points="-0.7196520348430974,0.33989688788901395
-0.7196520348430974,0.30989688788901393"/></g><g transform="rotate(-90.0, -0.7196520348430974, 0.24990626171728542)"><polyline points="-0.7196520348430974,0.26490626171728543
-0.7196520348430974,0.2349062617172854"/></g><g transform="rotate(-90.0, -0.7196520348430974, 0.1749156355455569)"><polyline points="-0.7196520348430974,0.1899156355455569
-0.7196520348430974,0.15991563554555688"/></g><g transform="rotate(-90.0, -0.7196520348430974, 9.992500937382837e-2)"><polyline points="-0.7196520348430974,0.11492500937382837
-0.7196520348430974,8.492500937382837e-2"/></g><g transform="rotate(-90.0, -0.7196520348430974, 2.493438320209984e-2)"><polyline points="-0.7196520348430974,3.993438320209984e-2
-0.7196520348430974,9.934383202099842e-3"/></g><g transform="rotate(-90.0, -0.7196520348430974, -5.005624296962874e-2)"><polyline points="-0.7196520348430974,-3.505624296962874e-2
-0.7196520348430974,-6.505624296962874e-2"/></g><g transform="rotate(-90.0, -0.7196520348430974, -0.1250468691413572)"><polyline points="-0.7196520348430974,-0.11004686914135721
-0.7196520348430974,-0.14004686914135722"/></g><g transform="rotate(-90.0, -0.7196520348430974, -0.20003749531308568)"><polyline points="-0.7196520348430974,-0.18503749531308566
-0.7196520348430974,-0.2150374953130857"/></g><g transform="rotate(-90.0, -0.7196520348430974, -0.27502812148481426)"><polyline points="-0.7196520348430974,-0.26002812148481425
-0.7196520348430974,-0.29002812148481427"/></g><g transform="rotate(-90.0, -0.7196520348430974, -0.35001874765654284)"><polyline points="-0.7196520348430974,-0.3350187476565428
-0.7196520348430974,-0.36501874765654285"/></g><g transform="rotate(-90.0, -0.7196520348430974, -0.4250093738282713)"><polyline points="-0.7196520348430974,-0.4100093738282713
-0.7196520348430974,-0.4400093738282713"/></g><g transform="rotate(-90.0, -0.7196520348430974, -0.4999999999999999)"><polyline points="-0.7196520348430974,-0.4849999999999999
-0.7196520348430974,-0.5149999999999999"/></g></g><g stroke-opacity="1.0" fill-opacity="1.0" stroke="#808080" stroke-width="0.0" fill="#808080"><rect height="0.8998875140607423" width="4.65816809775943e-3" x="-0.7080066145986988" y="-0.4999999999999999"/></g><g stroke-opacity="5.0e-2" stroke="#808080" stroke-width="5.0e-3" fill="none"><polyline points="-0.6474504293278263,0.39988751406074247
-0.6474504293278263,-0.4999999999999999"/></g><g stroke-opacity="5.0e-2" stroke="#808080" stroke-width="5.0e-3" fill="none"><polyline points="-0.47276912566184803,0.39988751406074247
-0.47276912566184803,-0.4999999999999999"/></g><g stroke-opacity="5.0e-2" stroke="#808080" stroke-width="5.0e-3" fill="none"><polyline points="-0.2980878219958698,0.39988751406074247
-0.2980878219958698,-0.4999999999999999"/></g><g stroke-opacity="5.0e-2" stroke="#808080" stroke-width="5.0e-3" fill="none"><polyline points="-0.12340651832989158,0.39988751406074247
-0.12340651832989158,-0.4999999999999999"/></g><g stroke-opacity="5.0e-2" stroke="#808080" stroke-width="5.0e-3" fill="none"><polyline points="5.127478533608665e-2,0.39988751406074247
5.127478533608665e-2,-0.4999999999999999"/></g><g stroke-opacity="5.0e-2" stroke="#808080" stroke-width="5.0e-3" fill="none"><polyline points="0.2259560890020651,0.39988751406074247
0.2259560890020651,-0.4999999999999999"/></g><g stroke-opacity="5.0e-2" stroke="#808080" stroke-width="5.0e-3" fill="none"><polyline points="0.4006373926680433,0.39988751406074247
0.4006373926680433,-0.4999999999999999"/></g><g stroke-opacity="5.0e-2" stroke="#808080" stroke-width="5.0e-3" fill="none"><polyline points="0.5753186963340216,0.39988751406074247
0.5753186963340216,-0.4999999999999999"/></g><g stroke-opacity="5.0e-2" stroke="#808080" stroke-width="5.0e-3" fill="none"><polyline points="0.7499999999999998,0.39988751406074247
0.7499999999999998,-0.4999999999999999"/></g><g fill-opacity="1.0" font-size="5.0e-2" stroke="none" stroke-width="0.0" fill="#808080" text-anchor="middle"><text x="-0.6474504293278263" y="0.5">-0.5</text></g><g fill-opacity="1.0" font-size="5.0e-2" stroke="none" stroke-width="0.0" fill="#808080" text-anchor="middle"><text x="-0.47276912566184803" y="0.5">0.0</text></g><g fill-opacity="1.0" font-size="5.0e-2" stroke="none" stroke-width="0.0" fill="#808080" text-anchor="middle"><text x="-0.2980878219958698" y="0.5">0.5</text></g><g fill-opacity="1.0" font-size="5.0e-2" stroke="none" stroke-width="0.0" fill="#808080" text-anchor="middle"><text x="-0.12340651832989158" y="0.5">1.0</text></g><g fill-opacity="1.0" font-size="5.0e-2" stroke="none" stroke-width="0.0" fill="#808080" text-anchor="middle"><text x="5.127478533608665e-2" y="0.5">1.5</text></g><g fill-opacity="1.0" font-size="5.0e-2" stroke="none" stroke-width="0.0" fill="#808080" text-anchor="middle"><text x="0.2259560890020651" y="0.5">2.0</text></g><g fill-opacity="1.0" font-size="5.0e-2" stroke="none" stroke-width="0.0" fill="#808080" text-anchor="middle"><text x="0.4006373926680433" y="0.5">2.5</text></g><g fill-opacity="1.0" font-size="5.0e-2" stroke="none" stroke-width="0.0" fill="#808080" text-anchor="middle"><text x="0.5753186963340216" y="0.5">3.0</text></g><g fill-opacity="1.0" font-size="5.0e-2" stroke="none" stroke-width="0.0" fill="#808080" text-anchor="middle"><text x="0.7499999999999998" y="0.5">3.5</text></g><g stroke-opacity="1.0" fill-opacity="1.0" stroke="#808080" stroke-width="5.0e-3" fill="#808080"><polyline points="-0.6474504293278263,0.4396344206974129
-0.6474504293278263,0.40963442069741285"/><polyline points="-0.47276912566184803,0.4396344206974129
-0.47276912566184803,0.40963442069741285"/><polyline points="-0.2980878219958698,0.4396344206974129
-0.2980878219958698,0.40963442069741285"/><polyline points="-0.12340651832989158,0.4396344206974129
-0.12340651832989158,0.40963442069741285"/><polyline points="5.127478533608665e-2,0.4396344206974129
5.127478533608665e-2,0.40963442069741285"/><polyline points="0.2259560890020651,0.4396344206974129
0.2259560890020651,0.40963442069741285"/><polyline points="0.4006373926680433,0.4396344206974129
0.4006373926680433,0.40963442069741285"/><polyline points="0.5753186963340216,0.4396344206974129
0.5753186963340216,0.40963442069741285"/><polyline points="0.7499999999999998,0.4396344206974129
0.7499999999999998,0.40963442069741285"/></g><g stroke-opacity="1.0" fill-opacity="1.0" stroke="#808080" stroke-width="0.0" fill="#808080"><rect height="4.499437570303688e-3" width="1.397450429327826" x="-0.6474504293278263" y="0.4088863892013499"/></g><g stroke-opacity="1.0" stroke="#a6cee3" stroke-width="1.5e-2" fill="none"><polyline points="-0.47276912566184803,0.1749156355455569
-0.12340651832989158,0.1749156355455569
0.2259560890020651,-0.4250093738282713"/></g><g stroke-opacity="1.0" stroke="#1f78b4" stroke-width="3.0e-2" fill="none"><polyline points="-0.47276912566184803,0.32489688788901394
0.5753186963340216,-0.1250468691413571"/></g><g stroke-opacity="1.0" stroke="#e31a1c" stroke-width="1.0e-2" fill="none"><polyline points="-0.2980878219958698,-0.27502812148481426
-0.2980878219958698,0.32489688788901394"/></g></svg>