<svg width="454.73603184828045" xmlns:xlink="http://www.w3.org/1999/xlink" xmlns="http://www.w3.org/2000/svg" viewBox="-0.7296044939715016 -0.48066203872853497 1.4796044939715016 0.9761297040555353" height="300.0"><style>svg {
  color-scheme: light dark;
}
{
  .canvas g, .title g, .axisbar g, .ticktext g, .tickglyph g, .ticklines g, .legendContent g text {
    fill: #0d0d0d;
  }
  .ticklines g, .tickglyph g, .legendBorder g {
    stroke: #0d0d0d;
  }
}
@media (prefers-color-scheme:dark) {
  .canvas g, .title g, .axisbar g, .ticktext g, .tickglyph g, .ticklines g, .legendContent g text {
    fill: #f0f0f0;
  }
  .ticklines g, .tickglyph g, .legendBorder g {
    stroke: #f0f0f0;
  }
}</style><g class="chart"><g class="line"><g stroke-opacity="1.0" fill="none" stroke="#b05929" stroke-width="1.5e-2"><polyline points="-0.6364422725611983,0.20518885630498523
-0.28752009499451947,0.20518885630498523
6.140208257215929e-2,-0.3709988269794722"/></g><g stroke-opacity="1.0" fill="none" stroke="#a6cfe3" stroke-width="3.0e-2"><polyline points="-0.6364422725611983,0.34923577712609966
0.34053982462550236,-8.290498533724366e-2"/></g><g stroke-opacity="1.0" fill="none" stroke="#1f78b5" stroke-width="1.0e-2"><polyline points="-0.4619811837778589,-0.2269519061583578
-0.4619811837778589,0.34923577712609966"/></g></g></g><g class="hud"><g class="axis"><g class="ticks"><g class="tickglyph"><g stroke-opacity="0.4" fill="#0d0d0d" stroke="#0d0d0d" stroke-width="4.0e-3" fill-opacity="0.4"><g transform="rotate(-90.0, -0.6573776032151991, 0.34923577712609966)"><polyline points="-0.6573776032151991,0.36423577712609967
-0.6573776032151991,0.33423577712609964"/></g><g transform="rotate(-90.0, -0.6573776032151991, 0.2772123167155425)"><polyline points="-0.6573776032151991,0.2922123167155425
-0.6573776032151991,0.26221231671554246"/></g><g transform="rotate(-90.0, -0.6573776032151991, 0.20518885630498523)"><polyline points="-0.6573776032151991,0.22018885630498525
-0.6573776032151991,0.19018885630498522"/></g><g transform="rotate(-90.0, -0.6573776032151991, 0.133165395894428)"><polyline points="-0.6573776032151991,0.148165395894428
-0.6573776032151991,0.118165395894428"/></g><g transform="rotate(-90.0, -0.6573776032151991, 6.114193548387087e-2)"><polyline points="-0.6573776032151991,7.614193548387087e-2
-0.6573776032151991,4.614193548387087e-2"/></g><g transform="rotate(-90.0, -0.6573776032151991, -1.0881524926686259e-2)"><polyline points="-0.6573776032151991,4.11847507331374e-3
-0.6573776032151991,-2.588152492668626e-2"/></g><g transform="rotate(-90.0, -0.6573776032151991, -8.290498533724366e-2)"><polyline points="-0.6573776032151991,-6.790498533724366e-2
-0.6573776032151991,-9.790498533724366e-2"/></g><g transform="rotate(-90.0, -0.6573776032151991, -0.15492844574780074)"><polyline points="-0.6573776032151991,-0.13992844574780072
-0.6573776032151991,-0.16992844574780075"/></g><g transform="rotate(-90.0, -0.6573776032151991, -0.2269519061583578)"><polyline points="-0.6573776032151991,-0.2119519061583578
-0.6573776032151991,-0.24195190615835782"/></g><g transform="rotate(-90.0, -0.6573776032151991, -0.2989753665689152)"><polyline points="-0.6573776032151991,-0.2839753665689152
-0.6573776032151991,-0.3139753665689152"/></g><g transform="rotate(-90.0, -0.6573776032151991, -0.3709988269794722)"><polyline points="-0.6573776032151991,-0.35599882697947216
-0.6573776032151991,-0.3859988269794722"/></g></g></g><g class="ticktext"><g fill="#0d0d0d" stroke="none" stroke-width="0.0" font-size="3.489221775666789e-2" fill-opacity="1.0" text-anchor="end"><text x="-0.6825" y="0.35913900293255124">0.0</text><text x="-0.6825" y="0.28711554252199406">0.5</text><text x="-0.6825" y="0.21509208211143682">1.0</text><text x="-0.6825" y="0.1430686217008797">1.5</text><text x="-0.6825" y="7.104516129032251e-2">2.0</text><text x="-0.6825" y="-9.782991202346714e-4">2.5</text><text x="-0.6825" y="-7.300175953079191e-2">3.0</text><text x="-0.6825" y="-0.1450252199413491">3.5</text><text x="-0.6825" y="-0.2170486803519064">4.0</text><text x="-0.6825" y="-0.28907214076246346">4.5</text><text x="-0.6825" y="-0.36109560117302075">5.0</text></g></g><g class="ticklines"><g stroke-opacity="5.0e-2" fill="none" stroke="#0d0d0d" stroke-width="5.0e-3"><polyline points="-0.6364422725611983,0.34923577712609966
0.41032426013883827,0.34923577712609966"/><polyline points="-0.6364422725611983,0.2772123167155425
0.41032426013883827,0.2772123167155425"/><polyline points="-0.6364422725611983,0.20518885630498523
0.41032426013883827,0.20518885630498523"/><polyline points="-0.6364422725611983,0.133165395894428
0.41032426013883827,0.133165395894428"/><polyline points="-0.6364422725611983,6.114193548387087e-2
0.41032426013883827,6.114193548387087e-2"/><polyline points="-0.6364422725611983,-1.0881524926686259e-2
0.41032426013883827,-1.0881524926686259e-2"/><polyline points="-0.6364422725611983,-8.290498533724366e-2
0.41032426013883827,-8.290498533724366e-2"/><polyline points="-0.6364422725611983,-0.15492844574780074
0.41032426013883827,-0.15492844574780074"/><polyline points="-0.6364422725611983,-0.2269519061583578
0.41032426013883827,-0.2269519061583578"/><polyline points="-0.6364422725611983,-0.2989753665689152
0.41032426013883827,-0.2989753665689152"/><polyline points="-0.6364422725611983,-0.3709988269794722
0.41032426013883827,-0.3709988269794722"/></g></g></g><g class="axisbar"><g stroke-opacity="0.0" fill="#0d0d0d" stroke="#000000" stroke-width="0.0" fill-opacity="0.4"><rect width="2.7913774205334807e-3" x="-0.6462120935330654" y="-0.37243929618768334" height="0.7231155425219941"/></g></g></g><g class="axis"><g class="ticks"><g class="tickglyph"><g stroke-opacity="0.4" fill="#0d0d0d" stroke="#0d0d0d" stroke-width="4.0e-3" fill-opacity="0.4"><polyline points="-0.6364422725611983,0.3858428152492668
-0.6364422725611983,0.35584281524926675"/><polyline points="-0.4619811837778589,0.3858428152492668
-0.4619811837778589,0.35584281524926675"/><polyline points="-0.28752009499451947,0.3858428152492668
-0.28752009499451947,0.35584281524926675"/><polyline points="-0.11305900621118004,0.3858428152492668
-0.11305900621118004,0.35584281524926675"/><polyline points="6.140208257215929e-2,0.3858428152492668
6.140208257215929e-2,0.35584281524926675"/><polyline points="0.23586317135549872,0.3858428152492668
0.23586317135549872,0.35584281524926675"/><polyline points="0.41032426013883827,0.3858428152492668
0.41032426013883827,0.35584281524926675"/></g></g><g class="ticktext"><g fill="#0d0d0d" stroke="none" stroke-width="0.0" font-size="3.489221775666789e-2" fill-opacity="1.0" text-anchor="middle"><text x="-0.6364422725611983" y="0.4165777126099706">0.0</text><text x="-0.4619811837778589" y="0.4165777126099706">0.5</text><text x="-0.28752009499451947" y="0.4165777126099706">1.0</text><text x="-0.11305900621118004" y="0.4165777126099706">1.5</text><text x="6.140208257215929e-2" y="0.4165777126099706">2.0</text><text x="0.23586317135549872" y="0.4165777126099706">2.5</text><text x="0.41032426013883827" y="0.4165777126099706">3.0</text></g></g><g class="ticklines"><g stroke-opacity="5.0e-2" fill="none" stroke="#0d0d0d" stroke-width="5.0e-3"><polyline points="-0.6364422725611983,0.34923577712609966
-0.6364422725611983,-0.3709988269794722"/><polyline points="-0.4619811837778589,0.34923577712609966
-0.4619811837778589,-0.3709988269794722"/><polyline points="-0.28752009499451947,0.34923577712609966
-0.28752009499451947,-0.3709988269794722"/><polyline points="-0.11305900621118004,0.34923577712609966
-0.11305900621118004,-0.3709988269794722"/><polyline points="6.140208257215929e-2,0.34923577712609966
6.140208257215929e-2,-0.3709988269794722"/><polyline points="0.23586317135549872,0.34923577712609966
0.23586317135549872,-0.3709988269794722"/><polyline points="0.41032426013883827,0.34923577712609966
0.41032426013883827,-0.3709988269794722"/></g></g></g><g class="axisbar"><g stroke-opacity="0.0" fill="#0d0d0d" stroke="#000000" stroke-width="0.0" fill-opacity="0.4"><rect width="1.04955791012057" x="-0.6378379612714651" y="0.35643812316715534" height="2.880938416422285e-3"/></g></g></g><g class="title"><g fill="#0d0d0d" stroke="none" stroke-width="0.0" font-size="3.489221775666789e-2" fill-opacity="1.0" text-anchor="end"><text x="0.43387650712458903" y="0.485">Made with love and chart-svg</text></g></g><g class="title"><g fill="#0d0d0d" stroke="none" stroke-width="0.0" font-size="5.582754841066862e-2" fill-opacity="1.0" text-anchor="middle"><text x="-0.14786399342345635" y="-0.43600000000000005">Line Chart</text></g></g><g class="legend"><g class="legendBorder"><g stroke-opacity="1.0" fill="#0d0d0d" stroke="#0d0d0d" stroke-width="2.5e-3" fill-opacity="0.0"><rect width="0.26029594446474236" x="0.48621483375959074" y="-8.893695014662772e-2" height="0.1433266862170089"/></g></g><g class="legendContent"><g fill="#0d0d0d" stroke="none" stroke-width="0.0" font-size="2.093533065400073e-2" fill-opacity="1.0" text-anchor="start"><text x="0.5036609426379247" y="2.9901759530791716e-2">vertical</text></g><g stroke-opacity="1.0" fill="none" stroke="#1f78b5" stroke-width="1.0e-2"><polyline points="0.6139203507489953,2.4499999999999966e-2
0.7185970040189987,2.4499999999999966e-2"/></g><g fill="#0d0d0d" stroke="none" stroke-width="0.0" font-size="2.093533065400073e-2" fill-opacity="1.0" text-anchor="start"><text x="0.5036609426379247" y="-1.1871847507331446e-2">line</text></g><g stroke-opacity="1.0" fill="none" stroke="#a6cfe3" stroke-width="3.0e-2"><polyline points="0.6139203507489953,-1.7273607038123195e-2
0.7185970040189987,-1.7273607038123195e-2"/></g><g fill="#0d0d0d" stroke="none" stroke-width="0.0" font-size="2.093533065400073e-2" fill-opacity="1.0" text-anchor="start"><text x="0.5036609426379247" y="-5.364545454545455e-2">hockey</text></g><g stroke-opacity="1.0" fill="none" stroke="#b05929" stroke-width="1.5e-2"><polyline points="0.6139203507489953,-5.904721407624647e-2
0.7185970040189987,-5.904721407624647e-2"/></g></g></g></g></svg>