<svg width="445.75202390832845" xmlns:xlink="http://www.w3.org/1999/xlink" xmlns="http://www.w3.org/2000/svg" viewBox="-0.77 -0.5171246227990701 1.54 1.036450706267602" height="300.0"><style>svg {
  color-scheme: light dark;
}
{
  .canvas g, .title g, .axisbar g, .ticktext g, .tickglyph g, .ticklines g, .legendContent g text {
    fill: #0d0d0d;
  }
  .ticklines g, .tickglyph g, .legendBorder g {
    stroke: #0d0d0d;
  }
}
@media (prefers-color-scheme:dark) {
  .canvas g, .title g, .axisbar g, .ticktext g, .tickglyph g, .ticklines g, .legendContent g text {
    fill: #f0f0f0;
  }
  .ticklines g, .tickglyph g, .legendBorder g {
    stroke: #f0f0f0;
  }
}</style><g class="chart"><g class="line"><g stroke-opacity="1.0" fill="none" stroke="#b05929" stroke-width="1.5e-2"><polyline points="-0.6490825688073394,0.19679405904727398
-0.3092932381923207,0.19679405904727398
3.0496092422697907e-2,-0.3828110849483788"/></g><g stroke-opacity="1.0" fill="none" stroke="#a6cfe3" stroke-width="3.0e-2"><polyline points="-0.6490825688073394,0.3416953450461872
0.3023275569147128,-9.300851295055246e-2"/></g><g stroke-opacity="1.0" fill="none" stroke="#1f78b5" stroke-width="1.0e-2"><polyline points="-0.4791879034998301,-0.23790979894946562
-0.4791879034998301,0.3416953450461872"/></g></g></g><g class="hud"><g class="axis"><g class="ticks"><g class="tickglyph"><g stroke-opacity="0.4" fill="#0d0d0d" stroke="#0d0d0d" stroke-width="4.0e-3" fill-opacity="0.4"><g transform="rotate(-90.0, -0.6796636085626911, 0.35256294149610573)"><polyline points="-0.6796636085626911,0.36756294149610574
-0.6796636085626911,0.3375629414961057"/></g><g transform="rotate(-90.0, -0.6796636085626911, 0.27848215902916135)"><polyline points="-0.6796636085626911,0.29348215902916136
-0.6796636085626911,0.26348215902916133"/></g><g transform="rotate(-90.0, -0.6796636085626911, 0.20440137656221696)"><polyline points="-0.6796636085626911,0.21940137656221698
-0.6796636085626911,0.18940137656221695"/></g><g transform="rotate(-90.0, -0.6796636085626911, 0.13032059409527258)"><polyline points="-0.6796636085626911,0.1453205940952726
-0.6796636085626911,0.11532059409527258"/></g><g transform="rotate(-90.0, -0.6796636085626911, 5.6239811628328196e-2)"><polyline points="-0.6796636085626911,7.12398116283282e-2
-0.6796636085626911,4.1239811628328196e-2"/></g><g transform="rotate(-90.0, -0.6796636085626911, -1.7840970838616133e-2)"><polyline points="-0.6796636085626911,-2.840970838616133e-3
-0.6796636085626911,-3.284097083861613e-2"/></g><g transform="rotate(-90.0, -0.6796636085626911, -9.192175330556063e-2)"><polyline points="-0.6796636085626911,-7.692175330556063e-2
-0.6796636085626911,-0.10692175330556063"/></g><g transform="rotate(-90.0, -0.6796636085626911, -0.1660025357725049)"><polyline points="-0.6796636085626911,-0.1510025357725049
-0.6796636085626911,-0.1810025357725049"/></g><g transform="rotate(-90.0, -0.6796636085626911, -0.24008331823944928)"><polyline points="-0.6796636085626911,-0.22508331823944927
-0.6796636085626911,-0.2550833182394493"/></g><g transform="rotate(-90.0, -0.6796636085626911, -0.3141641007063938)"><polyline points="-0.6796636085626911,-0.29916410070639377
-0.6796636085626911,-0.3291641007063938"/></g><g transform="rotate(-90.0, -0.6796636085626911, -0.38824488317333794)"><polyline points="-0.6796636085626911,-0.3732448831733379
-0.6796636085626911,-0.40324488317333795"/></g></g></g><g class="ticktext"><g fill="#0d0d0d" stroke="none" stroke-width="0.0" font-size="3.397893306150187e-2" fill-opacity="1.0" text-anchor="end"><text x="-0.7041284403669725" y="0.36252490490853106">0.0</text><text x="-0.7041284403669725" y="0.28844412244158657">0.5</text><text x="-0.7041284403669725" y="0.21436333997464224">1.0</text><text x="-0.7041284403669725" y="0.14028255750769786">1.5</text><text x="-0.7041284403669725" y="6.620177504075347e-2">2.0</text><text x="-0.7041284403669725" y="-7.879007426190854e-3">2.5</text><text x="-0.7041284403669725" y="-8.195978989313524e-2">3.0</text><text x="-0.7041284403669725" y="-0.15604057236007962">3.5</text><text x="-0.7041284403669725" y="-0.230121354827024">4.0</text><text x="-0.7041284403669725" y="-0.3042021372939684">4.5</text><text x="-0.7041284403669725" y="-0.3782829197609128">5.0</text></g></g><g class="ticklines"><g stroke-opacity="5.0e-2" fill="none" stroke="#0d0d0d" stroke-width="5.0e-3"><polyline points="-0.6592762487257899,0.35256294149610573
0.3702854230377166,0.35256294149610573"/><polyline points="-0.6592762487257899,0.27848215902916135
0.3702854230377166,0.27848215902916135"/><polyline points="-0.6592762487257899,0.20440137656221696
0.3702854230377166,0.20440137656221696"/><polyline points="-0.6592762487257899,0.13032059409527258
0.3702854230377166,0.13032059409527258"/><polyline points="-0.6592762487257899,5.6239811628328196e-2
0.3702854230377166,5.6239811628328196e-2"/><polyline points="-0.6592762487257899,-1.7840970838616133e-2
0.3702854230377166,-1.7840970838616133e-2"/><polyline points="-0.6592762487257899,-9.192175330556063e-2
0.3702854230377166,-9.192175330556063e-2"/><polyline points="-0.6592762487257899,-0.1660025357725049
0.3702854230377166,-0.1660025357725049"/><polyline points="-0.6592762487257899,-0.24008331823944928
0.3702854230377166,-0.24008331823944928"/><polyline points="-0.6592762487257899,-0.3141641007063938
0.3702854230377166,-0.3141641007063938"/><polyline points="-0.6592762487257899,-0.38824488317333794
0.3702854230377166,-0.38824488317333794"/></g></g></g><g class="axisbar"><g stroke-opacity="0.0" fill="#0d0d0d" stroke="#000000" stroke-width="0.0" fill-opacity="0.4"><rect width="2.718314644920228e-3" x="-0.6687903499830106" y="-0.38969389603332727" height="0.7437058503894222"/></g></g></g><g class="axis"><g class="ticks"><g class="tickglyph"><g stroke-opacity="0.4" fill="#0d0d0d" stroke="#0d0d0d" stroke-width="4.0e-3" fill-opacity="0.4"><polyline points="-0.6592762487257899,0.38929813439594274
-0.6592762487257899,0.3592981343959427"/><polyline points="-0.4876826367652055,0.38929813439594274
-0.4876826367652055,0.3592981343959427"/><polyline points="-0.31608902480462114,0.38929813439594274
-0.31608902480462114,0.3592981343959427"/><polyline points="-0.14449541284403666,0.38929813439594274
-0.14449541284403666,0.3592981343959427"/><polyline points="2.709819911654765e-2,0.38929813439594274
2.709819911654765e-2,0.3592981343959427"/><polyline points="0.19869181107713196,0.38929813439594274
0.19869181107713196,0.3592981343959427"/><polyline points="0.37028542303771683,0.38929813439594274
0.37028542303771683,0.3592981343959427"/></g></g><g class="ticktext"><g fill="#0d0d0d" stroke="none" stroke-width="0.0" font-size="3.397893306150187e-2" fill-opacity="1.0" text-anchor="middle"><text x="-0.6592762487257899" y="0.42030429270059766">0.0</text><text x="-0.4876826367652055" y="0.42030429270059766">0.5</text><text x="-0.31608902480462114" y="0.42030429270059766">1.0</text><text x="-0.14449541284403666" y="0.42030429270059766">1.5</text><text x="2.709819911654765e-2" y="0.42030429270059766">2.0</text><text x="0.19869181107713196" y="0.42030429270059766">2.5</text><text x="0.37028542303771683" y="0.42030429270059766">3.0</text></g></g><g class="ticklines"><g stroke-opacity="5.0e-2" fill="none" stroke="#0d0d0d" stroke-width="5.0e-3"><polyline points="-0.6592762487257899,0.35256294149610573
-0.6592762487257899,-0.38824488317333794"/><polyline points="-0.4876826367652055,0.35256294149610573
-0.4876826367652055,-0.38824488317333794"/><polyline points="-0.31608902480462114,0.35256294149610573
-0.31608902480462114,-0.38824488317333794"/><polyline points="-0.14449541284403666,0.35256294149610573
-0.14449541284403666,-0.38824488317333794"/><polyline points="2.709819911654765e-2,0.35256294149610573
2.709819911654765e-2,-0.38824488317333794"/><polyline points="0.19869181107713196,0.35256294149610573
0.19869181107713196,-0.38824488317333794"/><polyline points="0.37028542303771683,0.35256294149610573
0.37028542303771683,-0.38824488317333794"/></g></g></g><g class="axisbar"><g stroke-opacity="0.0" fill="#0d0d0d" stroke="#000000" stroke-width="0.0" fill-opacity="0.4"><rect width="1.0322799864084267" x="-0.66063540604825" y="0.3598080057960514" height="2.89802571997827e-3"/></g></g></g><g class="title"><g fill="#0d0d0d" stroke="none" stroke-width="0.0" font-size="3.397893306150187e-2" fill-opacity="1.0" text-anchor="end"><text x="0.39322120285423057" y="0.4891324035500815">Made with love and chart-svg</text></g></g><g class="title"><g fill="#0d0d0d" stroke="none" stroke-width="0.0" font-size="5.436629289840299e-2" fill-opacity="1.0" text-anchor="middle"><text x="-0.17838939857288472" y="-0.4536315884803477">Line Chart</text></g></g><g class="legend"><g class="legendBorder"><g stroke-opacity="1.0" fill="#0d0d0d" stroke="#0d0d0d" stroke-width="2.5e-3" fill-opacity="0.0"><rect width="0.3024125042473669" x="0.4441896024464831" y="-0.1539576163738453" height="0.19199420394856004"/></g></g><g class="legendContent"><g><g fill="#0d0d0d" stroke="none" stroke-width="0.0" font-size="3.397893306150187e-2" fill-opacity="1.0" text-anchor="start"><text x="0.4611790689772344" y="9.056330374932087e-3">vertical</text></g><g stroke-opacity="1.0" fill="none" stroke="#1f78b5" stroke-width="1.0e-2"><polyline points="0.6174821610601429,5.551115123125783e-17
0.7194189602446484,5.551115123125783e-17"/></g><g fill="#0d0d0d" stroke="none" stroke-width="0.0" font-size="3.397893306150187e-2" fill-opacity="1.0" text-anchor="start"><text x="0.4611790689772344" y="-4.8904184024633146e-2">line</text></g><g stroke-opacity="1.0" fill="none" stroke="#a6cfe3" stroke-width="3.0e-2"><polyline points="0.6174821610601429,-5.796051439956529e-2
0.7194189602446484,-5.796051439956529e-2"/></g><g fill="#0d0d0d" stroke="none" stroke-width="0.0" font-size="3.397893306150187e-2" fill-opacity="1.0" text-anchor="start"><text x="0.4611790689772344" y="-0.10686469842419843">hockey</text></g><g stroke-opacity="1.0" fill="none" stroke="#b05929" stroke-width="1.5e-2"><polyline points="0.6174821610601429,-0.11592102879913058
0.7194189602446484,-0.11592102879913058"/></g></g></g></g></g></svg>