<svg xmlns="http://www.w3.org/2000/svg" xmlns:xlink="http://www.w3.org/1999/xlink" width="450" height="300" viewBox="-0.75 -0.5 1.5 1.0"><style>svg {
  color-scheme: light dark;
}
{
  .canvas g, .title g, .axisbar g, .ticktext g, .tickglyph g, .ticklines g, .legendContent g text {
    fill: rgb(5%, 5%, 5%);
  }
  .ticklines g, .tickglyph g, .legendBorder g {
    stroke: rgb(5%, 5%, 5%);
  }
  .legendBorder g {
    fill: rgb(94%, 94%, 94%);
  }
}
@media (prefers-color-scheme:dark) {
  .canvas g, .title g, .axisbar g, .ticktext g, .tickglyph g, .ticklines g, .legendContent g text {
    fill: rgb(94%, 94%, 94%);
  }
  .ticklines g, .tickglyph g, .legendBorder g {
    stroke: rgb(94%, 94%, 94%);
  }
  .legendBorder g {
    fill: rgb(5%, 5%, 5%);
  }
}
svg { font-family: system-ui,-apple-system,"Segoe UI",Roboto,"Helvetica Neue",Arial,"Noto Sans","Liberation Sans",sans-serif,"Apple Color Emoji","Segoe UI Emoji","Segoe UI Symbol","Noto Color Emoji";
}

ticktext { font-family: SFMono-Regular,Menlo,Monaco,Consolas,"Liberation Mono","Courier New",monospace;
}

</style><g class="chart"><g class="line"><g stroke-width="0.0150" stroke="rgb(2%, 73%, 80%)" stroke-opacity="1.0" fill="none"><polyline points="-0.6398,0.1849 -0.2102,0.1849 0.2193,-0.3472"/></g><g stroke-width="0.0150" stroke="rgb(2%, 29%, 48%)" stroke-opacity="1.0" fill="none"><polyline points="-0.6398,0.3179 0.5629,-0.0812"/></g><g stroke-width="0.0150" stroke="rgb(66%, 7%, 55%)" stroke-opacity="1.0" fill="none"><polyline points="-0.4250,-0.2142 -0.4250,0.3179"/></g></g><g class="datapadding"></g></g><g class="hud"><g class="frame"><g stroke-width="0" stroke="rgb(0%, 0%, 0%)" stroke-opacity="0" fill="rgb(100%, 100%, 100%)" fill-opacity="0.02"><rect width="1.2950" height="0.6751" x="-0.6462" y="-0.3522"/></g></g><g class="axis"><g class="axisbar"><g stroke-width="0" stroke="rgb(0%, 0%, 0%)" stroke-opacity="0" fill="rgb(5%, 5%, 5%)" fill-opacity="0.4"><rect width="0.0034" height="0.6678" x="-0.6518" y="-0.3486"/></g></g><g class="ticks"><g class="ticklines"><g stroke-width="0.0050" stroke="rgb(5%, 5%, 5%)" stroke-opacity="0.05" fill="none"><polyline points="-0.6398,0.3179 0.6488,0.3179"/><polyline points="-0.6398,0.1849 0.6488,0.1849"/><polyline points="-0.6398,0.0518 0.6488,0.0518"/><polyline points="-0.6398,-0.0812 0.6488,-0.0812"/><polyline points="-0.6398,-0.2142 0.6488,-0.2142"/><polyline points="-0.6398,-0.3472 0.6488,-0.3472"/></g></g><g class="tickglyph"><g stroke-width="0.0034" stroke="rgb(5%, 5%, 5%)" stroke-opacity="0.4" fill="rgb(5%, 5%, 5%)" fill-opacity="0.4"><polyline points="-0.6759,0.3179
-0.6501,0.3179"/><polyline points="-0.6759,0.1849
-0.6501,0.1849"/><polyline points="-0.6759,0.0518
-0.6501,0.0518"/><polyline points="-0.6759,-0.0812
-0.6501,-0.0812"/><polyline points="-0.6759,-0.2142
-0.6501,-0.2142"/><polyline points="-0.6759,-0.3472
-0.6501,-0.3472"/></g></g><g class="ticktext"><g stroke-width="0.0" stroke="none" fill="rgb(5%, 5%, 5%)" fill-opacity="1.0" font-size="0.0400" text-anchor="end"><text x="-0.6949" y="0.3252">0</text><text x="-0.6949" y="0.1922">1</text><text x="-0.6949" y="0.0592">2</text><text x="-0.6949" y="-0.0738">3</text><text x="-0.6949" y="-0.2069">4</text><text x="-0.6949" y="-0.3399">5</text></g></g></g></g><g class="axis"><g class="axisbar"><g stroke-width="0" stroke="rgb(0%, 0%, 0%)" stroke-opacity="0" fill="rgb(5%, 5%, 5%)" fill-opacity="0.4"><rect width="1.2920" height="0.0027" x="-0.6415" y="0.3246"/></g></g><g class="ticks"><g class="ticklines"><g stroke-width="0.0050" stroke="rgb(5%, 5%, 5%)" stroke-opacity="0.05" fill="none"><polyline points="-0.6398,0.3179 -0.6398,-0.3472"/><polyline points="-0.4250,0.3179 -0.4250,-0.3472"/><polyline points="-0.2102,0.3179 -0.2102,-0.3472"/><polyline points="0.0045,0.3179 0.0045,-0.3472"/><polyline points="0.2193,0.3179 0.2193,-0.3472"/><polyline points="0.4340,0.3179 0.4340,-0.3472"/><polyline points="0.6488,0.3179 0.6488,-0.3472"/></g></g><g class="tickglyph"><g stroke-width="0.0027" stroke="rgb(5%, 5%, 5%)" stroke-opacity="0.4" fill="rgb(5%, 5%, 5%)" fill-opacity="0.4"><polyline points="-0.6398,0.3459
-0.6398,0.3259"/><polyline points="-0.4250,0.3459
-0.4250,0.3259"/><polyline points="-0.2102,0.3459
-0.2102,0.3259"/><polyline points="0.0045,0.3459
0.0045,0.3259"/><polyline points="0.2193,0.3459
0.2193,0.3259"/><polyline points="0.4340,0.3459
0.4340,0.3259"/><polyline points="0.6488,0.3459
0.6488,0.3259"/></g></g><g class="ticktext"><g stroke-width="0.0" stroke="none" fill="rgb(5%, 5%, 5%)" fill-opacity="1.0" font-size="0.0400" text-anchor="middle"><text x="-0.6398" y="0.3826">0.0</text><text x="-0.4250" y="0.3826">0.5</text><text x="-0.2102" y="0.3826">1.0</text><text x="0.0045" y="0.3826">1.5</text><text x="0.2193" y="0.3826">2.0</text><text x="0.4340" y="0.3826">2.5</text><text x="0.6488" y="0.3826">3.0</text></g></g></g></g><g class="title"><g stroke-width="0.0" stroke="none" fill="rgb(5%, 5%, 5%)" fill-opacity="1.0" font-size="0.0800" text-anchor="middle"><text x="-0.0179" y="-0.4306">Line Chart</text></g></g><g class="legend"><g class="padding"></g><g class="padding"></g><g class="frame"><g stroke-width="0.0011" stroke="rgb(5%, 5%, 5%)" stroke-opacity="1.0" fill="rgb(5%, 5%, 5%)" fill-opacity="0"><rect width="0.4284" height="0.1948" x="0.2828" y="0.0620"/></g></g><g class="legendContent"><g stroke-width="0.0" stroke="none" fill="rgb(5%, 5%, 5%)" fill-opacity="1.0" font-size="0.0344" text-anchor="start"><text x="0.3043" y="0.2188">palette #2</text></g><g stroke-width="0.0129" stroke="rgb(66%, 7%, 55%)" stroke-opacity="1.0" fill="none"><polyline points="0.5541,0.2188 0.6833,0.2188"/></g><g stroke-width="0.0" stroke="none" fill="rgb(5%, 5%, 5%)" fill-opacity="1.0" font-size="0.0344" text-anchor="start"><text x="0.3043" y="0.1594">palette #1</text></g><g stroke-width="0.0129" stroke="rgb(2%, 29%, 48%)" stroke-opacity="1.0" fill="none"><polyline points="0.5541,0.1594 0.6833,0.1594"/></g><g stroke-width="0.0" stroke="none" fill="rgb(5%, 5%, 5%)" fill-opacity="1.0" font-size="0.0344" text-anchor="start"><text x="0.3043" y="0.1001">palette #0</text></g><g stroke-width="0.0129" stroke="rgb(2%, 73%, 80%)" stroke-opacity="1.0" fill="none"><polyline points="0.5541,0.1001 0.6833,0.1001"/></g></g></g><g class="title"><g stroke-width="0.0" stroke="none" fill="rgb(5%, 5%, 5%)" fill-opacity="1.0" font-size="0.0400" text-anchor="end"><text x="0.7156" y="0.4520">Made with 🧡 and chart-svg</text></g></g><g class="frame"><g stroke-width="0" stroke="rgb(0%, 0%, 0%)" stroke-opacity="0" fill="rgb(0%, 0%, 0%)" fill-opacity="0"><rect width="1.5" height="1.0" x="-0.75" y="-0.5"/></g></g></g></svg>