<svg xmlns="http://www.w3.org/2000/svg" width="450.0" xmlns:xlink="http://www.w3.org/1999/xlink" viewBox="-0.75 -0.5 1.5 1.0" height="300.0"><style>svg {
  color-scheme: light dark;
}
{
  .canvas g, .title g, .axisbar g, .ticktext g, .tickglyph g, .ticklines g, .legendContent g text {
    fill: #0d0d0d;
  }
  .ticklines g, .tickglyph g, .legendBorder g {
    stroke: #0d0d0d;
  }
  .legendBorder g {
    fill: #f0f0f0;
  }
}
@media (prefers-color-scheme:dark) {
  .canvas g, .title g, .axisbar g, .ticktext g, .tickglyph g, .ticklines g, .legendContent g text {
    fill: #f0f0f0;
  }
  .ticklines g, .tickglyph g, .legendBorder g {
    stroke: #f0f0f0;
  }
  .legendBorder g {
    fill: #0d0d0d;
  }
}</style><g class="chart"><g class="line"><g fill="none" stroke="rgb(2%, 73%, 80%)" stroke-width="1.5e-2" stroke-opacity="1.0"><polyline points="-0.5898478488982162,0.18746829020801614
-0.1963536201469046,0.18746829020801614
0.19714060860440707,-0.35371215964823266"/></g><g fill="none" stroke="rgb(2%, 29%, 48%)" stroke-width="1.5e-2" stroke-opacity="1.0"><polyline points="-0.5898478488982162,0.32276340267207837
0.5119359916054562,-8.312193472010831e-2"/></g><g fill="none" stroke="rgb(66%, 7%, 55%)" stroke-width="1.5e-2" stroke-opacity="1.0"><polyline points="-0.39310073452256034,-0.21841704718417065
-0.39310073452256034,0.32276340267207837"/></g></g></g><g class="hud"><g class="frame"><g fill="rgb(100%, 100%, 100%)" stroke="rgb(0%, 0%, 0%)" stroke-width="0.0" fill-opacity="2.0e-2" stroke-opacity="0.0"><rect x="-0.5957502623294858" width="1.1863850996852046" y="-0.358785726365635" height="0.6866226957551157"/></g></g><g class="axis"><g class="ticks"><g class="tickglyph"><g fill="rgb(5%, 5%, 5%)" stroke="rgb(5%, 5%, 5%)" stroke-width="4.0e-3" fill-opacity="0.4" stroke-opacity="0.4"><g transform="rotate(-90.0, -0.6193599160545645, 0.32276340267207837)"><polyline points="-0.6193599160545645,0.3377634026720784
-0.6193599160545645,0.30776340267207836"/></g><g transform="rotate(-90.0, -0.6193599160545645, 0.2551158464400473)"><polyline points="-0.6193599160545645,0.2701158464400473
-0.6193599160545645,0.2401158464400473"/></g><g transform="rotate(-90.0, -0.6193599160545645, 0.18746829020801614)"><polyline points="-0.6193599160545645,0.20246829020801616
-0.6193599160545645,0.17246829020801613"/></g><g transform="rotate(-90.0, -0.6193599160545645, 0.11982073397598503)"><polyline points="-0.6193599160545645,0.13482073397598504
-0.6193599160545645,0.10482073397598503"/></g><g transform="rotate(-90.0, -0.6193599160545645, 5.2173177743953913e-2)"><polyline points="-0.6193599160545645,6.717317774395391e-2
-0.6193599160545645,3.7173177743953914e-2"/></g><g transform="rotate(-90.0, -0.6193599160545645, -1.54743784880772e-2)"><polyline points="-0.6193599160545645,-4.743784880772012e-4
-0.6193599160545645,-3.04743784880772e-2"/></g><g transform="rotate(-90.0, -0.6193599160545645, -8.312193472010831e-2)"><polyline points="-0.6193599160545645,-6.812193472010832e-2
-0.6193599160545645,-9.812193472010831e-2"/></g><g transform="rotate(-90.0, -0.6193599160545645, -0.15076949095213943)"><polyline points="-0.6193599160545645,-0.13576949095213942
-0.6193599160545645,-0.16576949095213944"/></g><g transform="rotate(-90.0, -0.6193599160545645, -0.21841704718417065)"><polyline points="-0.6193599160545645,-0.20341704718417064
-0.6193599160545645,-0.23341704718417067"/></g><g transform="rotate(-90.0, -0.6193599160545645, -0.28606460341620166)"><polyline points="-0.6193599160545645,-0.27106460341620164
-0.6193599160545645,-0.30106460341620167"/></g><g transform="rotate(-90.0, -0.6193599160545645, -0.35371215964823266)"><polyline points="-0.6193599160545645,-0.33871215964823265
-0.6193599160545645,-0.3687121596482327"/></g></g></g><g class="ticktext"><g fill="rgb(5%, 5%, 5%)" stroke="none" stroke-width="0.0" font-size="3.9349422875131164e-2" fill-opacity="1.0" text-anchor="end"><text x="-0.647691500524659" y="0.3320649416539827">0.00</text><text x="-0.647691500524659" y="0.2644173854219516">0.50</text><text x="-0.647691500524659" y="0.19676982918992042">1.00</text><text x="-0.647691500524659" y="0.1291222729578893">1.50</text><text x="-0.647691500524659" y="6.147471672585825e-2">2.00</text><text x="-0.647691500524659" y="-6.172839506172867e-3">2.50</text><text x="-0.647691500524659" y="-7.382039573820409e-2">3.00</text><text x="-0.647691500524659" y="-0.1414679519702351">3.50</text><text x="-0.647691500524659" y="-0.2091155082022662">4.00</text><text x="-0.647691500524659" y="-0.27676306443429743">4.50</text><text x="-0.647691500524659" y="-0.34441062066632844">5.00</text></g></g><g class="ticklines"><g fill="none" stroke="rgb(5%, 5%, 5%)" stroke-width="5.0e-3" stroke-opacity="5.0e-2"><polyline points="-0.5898478488982162,0.32276340267207837
0.5906348373557186,0.32276340267207837"/><polyline points="-0.5898478488982162,0.2551158464400473
0.5906348373557186,0.2551158464400473"/><polyline points="-0.5898478488982162,0.18746829020801614
0.5906348373557186,0.18746829020801614"/><polyline points="-0.5898478488982162,0.11982073397598503
0.5906348373557186,0.11982073397598503"/><polyline points="-0.5898478488982162,5.2173177743953913e-2
0.5906348373557186,5.2173177743953913e-2"/><polyline points="-0.5898478488982162,-1.54743784880772e-2
0.5906348373557186,-1.54743784880772e-2"/><polyline points="-0.5898478488982162,-8.312193472010831e-2
0.5906348373557186,-8.312193472010831e-2"/><polyline points="-0.5898478488982162,-0.15076949095213943
0.5906348373557186,-0.15076949095213943"/><polyline points="-0.5898478488982162,-0.21841704718417065
0.5906348373557186,-0.21841704718417065"/><polyline points="-0.5898478488982162,-0.28606460341620166
0.5906348373557186,-0.28606460341620166"/><polyline points="-0.5898478488982162,-0.35371215964823266
0.5906348373557186,-0.35371215964823266"/></g></g></g><g class="axisbar"><g fill="rgb(5%, 5%, 5%)" stroke="rgb(0%, 0%, 0%)" stroke-width="0.0" fill-opacity="0.4" stroke-opacity="0.0"><rect x="-0.6067681007345225" width="3.1479538300104304e-3" y="-0.3550651107728734" height="0.6791814645695924"/></g></g></g><g class="axis"><g class="ticks"><g class="tickglyph"><g fill="rgb(5%, 5%, 5%)" stroke="rgb(5%, 5%, 5%)" stroke-width="4.0e-3" fill-opacity="0.4" stroke-opacity="0.4"><polyline points="-0.5898478488982162,0.36313123625909005
-0.5898478488982162,0.33313123625909"/><polyline points="-0.39310073452256034,0.36313123625909005
-0.39310073452256034,0.33313123625909"/><polyline points="-0.1963536201469046,0.36313123625909005
-0.1963536201469046,0.33313123625909"/><polyline points="3.934942287512344e-4,0.36313123625909005
3.934942287512344e-4,0.33313123625909"/><polyline points="0.19714060860440707,0.36313123625909005
0.19714060860440707,0.33313123625909"/><polyline points="0.3938877229800628,0.36313123625909005
0.3938877229800628,0.33313123625909"/><polyline points="0.5906348373557186,0.36313123625909005
0.5906348373557186,0.33313123625909"/></g></g><g class="ticktext"><g fill="rgb(5%, 5%, 5%)" stroke="none" stroke-width="0.0" font-size="3.9349422875131164e-2" fill-opacity="1.0" text-anchor="middle"><text x="-0.5898478488982162" y="0.3910874344664298">0.00</text><text x="-0.39310073452256034" y="0.3910874344664298">0.50</text><text x="-0.1963536201469046" y="0.3910874344664298">1.00</text><text x="3.934942287512344e-4" y="0.3910874344664298">1.50</text><text x="0.19714060860440707" y="0.3910874344664298">2.00</text><text x="0.3938877229800628" y="0.3910874344664298">2.50</text><text x="0.5906348373557186" y="0.3910874344664298">3.00</text></g></g><g class="ticklines"><g fill="none" stroke="rgb(5%, 5%, 5%)" stroke-width="5.0e-3" stroke-opacity="5.0e-2"><polyline points="-0.5898478488982162,0.32276340267207837
-0.5898478488982162,-0.35371215964823266"/><polyline points="-0.39310073452256034,0.32276340267207837
-0.39310073452256034,-0.35371215964823266"/><polyline points="-0.1963536201469046,0.32276340267207837
-0.1963536201469046,-0.35371215964823266"/><polyline points="3.934942287512344e-4,0.32276340267207837
3.934942287512344e-4,-0.35371215964823266"/><polyline points="0.19714060860440707,0.32276340267207837
0.19714060860440707,-0.35371215964823266"/><polyline points="0.3938877229800628,0.32276340267207837
0.3938877229800628,-0.35371215964823266"/><polyline points="0.5906348373557186,0.32276340267207837
0.5906348373557186,-0.35371215964823266"/></g></g></g><g class="axisbar"><g fill="rgb(5%, 5%, 5%)" stroke="rgb(0%, 0%, 0%)" stroke-width="0.0" fill-opacity="0.4" stroke-opacity="0.0"><rect x="-0.5914218258132214" width="1.1836306400839454" y="0.3346017250126838" height="2.7059022492812446e-3"/></g></g></g><g class="title"><g fill="rgb(5%, 5%, 5%)" stroke="none" stroke-width="0.0" font-size="7.869884575026233e-2" fill-opacity="1.0" text-anchor="middle"><text x="-4.62355718782792e-2" y="-0.4188229325215628">Line Chart</text></g></g><g class="title"><g fill="rgb(5%, 5%, 5%)" stroke="none" stroke-width="0.0" font-size="4.721930745015739e-2" fill-opacity="1.0" text-anchor="end"><text x="0.6260493179433366" y="0.4607644173854219">Made with love and chart-svg</text></g></g><g class="legend"><g class="legendBorder"><g fill="rgb(99%, 99%, 99%)" stroke="rgb(5%, 5%, 5%)" stroke-width="2.5e-3" fill-opacity="1.0" stroke-opacity="1.0"><rect x="0.3348635886673661" width="0.3797219307450159" y="7.754101133096558e-2" height="0.17926602401488245"/></g></g><g class="legendContent"><g fill="rgb(5%, 5%, 5%)" stroke="none" stroke-width="0.0" font-size="3.9349422875131164e-2" fill-opacity="1.0" text-anchor="start"><text x="0.3545383001049316" y="0.2297480128530356">palette1 2</text></g><g fill="none" stroke="rgb(66%, 7%, 55%)" stroke-width="1.5e-2" stroke-opacity="1.0"><polyline points="0.5709601259181531,0.2212920683240317
0.6890083945435466,0.2212920683240317"/></g><g fill="rgb(5%, 5%, 5%)" stroke="none" stroke-width="0.0" font-size="3.9349422875131164e-2" fill-opacity="1.0" text-anchor="start"><text x="0.3545383001049316" y="0.1756299678674107">palette1 1</text></g><g fill="none" stroke="rgb(2%, 29%, 48%)" stroke-width="1.5e-2" stroke-opacity="1.0"><polyline points="0.5709601259181531,0.1671740233384068
0.6890083945435466,0.1671740233384068"/></g><g fill="rgb(5%, 5%, 5%)" stroke="none" stroke-width="0.0" font-size="3.9349422875131164e-2" fill-opacity="1.0" text-anchor="start"><text x="0.3545383001049316" y="0.12151192288178586">palette1 0</text></g><g fill="none" stroke="rgb(2%, 73%, 80%)" stroke-width="1.5e-2" stroke-opacity="1.0"><polyline points="0.5709601259181531,0.11305597835278192
0.6890083945435466,0.11305597835278192"/></g></g></g><g class="frame"><g fill="rgb(100%, 100%, 100%)" stroke="rgb(0%, 0%, 0%)" stroke-width="0.0" fill-opacity="2.0e-2" stroke-opacity="0.0"><rect x="-0.75" width="1.5" y="-0.5" height="1.0"/></g></g></g></svg>