<svg width="456.02672500486835" xmlns:xlink="http://www.w3.org/1999/xlink" xmlns="http://www.w3.org/2000/svg" viewBox="-0.8238982229950549 -0.5412840605520927 1.6247231227170889 1.0688341495992877" height="300.0"><style>svg {
  color-scheme: light dark;
}
@media (prefers-color-scheme:light) {
  svg {
    background-color: #0d0d0d;
  }
}</style><g></g><g stroke-opacity="1.0" fill="#f0f0f0" stroke="#f0f0f0" stroke-width="2.5e-3" fill-opacity="0.0"><rect width="0.26655694053182666" x="0.509940736129626" y="-0.13089937666963491" height="0.16420302760463046"/></g><g fill="#f0f0f0" stroke="none" stroke-width="0.0" font-size="3.0e-2" fill-opacity="1.0" text-anchor="start"><text x="0.5272496283719526" y="4.274265360641127e-3">vertical</text></g><g stroke-opacity="1.0" fill="none" stroke="#1f78b5" stroke-width="1.0e-2"><polyline points="0.6449500956197718,-0.0
0.7488034490737303,-0.0"/></g><g fill="#f0f0f0" stroke="none" stroke-width="0.0" font-size="3.0e-2" fill-opacity="1.0" text-anchor="start"><text x="0.5272496283719526" y="-4.452359750667856e-2">line</text></g><g stroke-opacity="1.0" fill="none" stroke="#a6cfe3" stroke-width="3.0e-2"><polyline points="0.6449500956197718,-4.8797862867319686e-2
0.7488034490737303,-4.8797862867319686e-2"/></g><g fill="#f0f0f0" stroke="none" stroke-width="0.0" font-size="3.0e-2" fill-opacity="1.0" text-anchor="start"><text x="0.5272496283719526" y="-9.332146037399824e-2">hockey</text></g><g stroke-opacity="1.0" fill="none" stroke="#b05929" stroke-width="1.5e-2"><polyline points="0.6449500956197718,-9.759572573463937e-2
0.7488034490737303,-9.759572573463937e-2"/></g><g fill="#f0f0f0" stroke="none" stroke-width="0.0" font-size="5.0e-2" fill-opacity="1.0" text-anchor="end"><text x="0.3896439350454577" y="0.481300089047195">An example from chart-svg</text></g><g fill="#f0f0f0" stroke="none" stroke-width="0.0" font-size="8.0e-2" fill-opacity="1.0" text-anchor="middle"><text x="-0.19559048233828813" y="-0.4472840605520927">Line Chart</text></g><g stroke-opacity="0.0" fill="#f0f0f0" stroke="#000000" stroke-width="0.0" fill-opacity="2.0e-2"><rect width="1.038533534539583" x="-0.6748529378576149" y="-0.39617097061442563" height="0.7123775601068565"/></g><g stroke-opacity="5.0e-2" fill="none" stroke="#f0f0f0" stroke-width="5.0e-3"><polyline points="-0.6748529378576149,0.3162065894924309
0.36368059668196806,0.3162065894924309"/><polyline points="-0.6748529378576149,0.24496883348174525
0.36368059668196806,0.24496883348174525"/><polyline points="-0.6748529378576149,0.1737310774710596
0.36368059668196806,0.1737310774710596"/><polyline points="-0.6748529378576149,0.10249332146037388
0.36368059668196806,0.10249332146037388"/><polyline points="-0.6748529378576149,3.125556544968827e-2
0.36368059668196806,3.125556544968827e-2"/><polyline points="-0.6748529378576149,-3.998219056099739e-2
0.36368059668196806,-3.998219056099739e-2"/><polyline points="-0.6748529378576149,-0.1112199465716831
0.36368059668196806,-0.1112199465716831"/><polyline points="-0.6748529378576149,-0.1824577025823687
0.36368059668196806,-0.1824577025823687"/><polyline points="-0.6748529378576149,-0.2536954585930544
0.36368059668196806,-0.2536954585930544"/><polyline points="-0.6748529378576149,-0.32493321460374025
0.36368059668196806,-0.32493321460374025"/><polyline points="-0.6748529378576149,-0.39617097061442563
0.36368059668196806,-0.39617097061442563"/></g><g fill="#f0f0f0" stroke="none" stroke-width="0.0" font-size="5.0e-2" fill-opacity="1.0" text-anchor="end"><text x="-0.7288982229950548" y="0.3265360641139803">0.0</text><text x="-0.7288982229950548" y="0.2552983081032947">0.5</text><text x="-0.7288982229950548" y="0.18406055209260902">1.0</text><text x="-0.7288982229950548" y="0.1128227960819233">1.5</text><text x="-0.7288982229950548" y="4.1585040071237644e-2">2.0</text><text x="-0.7288982229950548" y="-2.965271593944796e-2">2.5</text><text x="-0.7288982229950548" y="-0.10089047195013368">3.0</text><text x="-0.7288982229950548" y="-0.17212822796081928">3.5</text><text x="-0.7288982229950548" y="-0.2433659839715051">4.0</text><text x="-0.7288982229950548" y="-0.3146037399821905">4.5</text><text x="-0.7288982229950548" y="-0.3858414959928762">5.0</text></g><g stroke-opacity="0.4" fill="#f0f0f0" stroke="#f0f0f0" stroke-width="4.0e-3" fill-opacity="0.4"><g transform="rotate(-90.0, -0.7067012995834955, 0.3162065894924309)"><polyline points="-0.7067012995834955,0.3312065894924309
-0.7067012995834955,0.3012065894924309"/></g><g transform="rotate(-90.0, -0.7067012995834955, 0.24496883348174525)"><polyline points="-0.7067012995834955,0.25996883348174527
-0.7067012995834955,0.22996883348174524"/></g><g transform="rotate(-90.0, -0.7067012995834955, 0.1737310774710596)"><polyline points="-0.7067012995834955,0.1887310774710596
-0.7067012995834955,0.15873107747105958"/></g><g transform="rotate(-90.0, -0.7067012995834955, 0.10249332146037388)"><polyline points="-0.7067012995834955,0.11749332146037388
-0.7067012995834955,8.749332146037388e-2"/></g><g transform="rotate(-90.0, -0.7067012995834955, 3.125556544968827e-2)"><polyline points="-0.7067012995834955,4.625556544968827e-2
-0.7067012995834955,1.6255565449688272e-2"/></g><g transform="rotate(-90.0, -0.7067012995834955, -3.998219056099739e-2)"><polyline points="-0.7067012995834955,-2.498219056099739e-2
-0.7067012995834955,-5.498219056099739e-2"/></g><g transform="rotate(-90.0, -0.7067012995834955, -0.1112199465716831)"><polyline points="-0.7067012995834955,-9.62199465716831e-2
-0.7067012995834955,-0.12621994657168312"/></g><g transform="rotate(-90.0, -0.7067012995834955, -0.1824577025823687)"><polyline points="-0.7067012995834955,-0.1674577025823687
-0.7067012995834955,-0.19745770258236872"/></g><g transform="rotate(-90.0, -0.7067012995834955, -0.2536954585930544)"><polyline points="-0.7067012995834955,-0.2386954585930544
-0.7067012995834955,-0.26869545859305444"/></g><g transform="rotate(-90.0, -0.7067012995834955, -0.32493321460374025)"><polyline points="-0.7067012995834955,-0.30993321460374024
-0.7067012995834955,-0.33993321460374026"/></g><g transform="rotate(-90.0, -0.7067012995834955, -0.39617097061442563)"><polyline points="-0.7067012995834955,-0.3811709706144256
-0.7067012995834955,-0.41117097061442565"/></g></g><g stroke-opacity="0.0" fill="#f0f0f0" stroke="#000000" stroke-width="0.0" fill-opacity="0.4"><rect width="2.769422758772233e-3" x="-0.6949312528587135" y="-0.3975957257346395" height="0.7152270703472842"/></g><g stroke-opacity="5.0e-2" fill="none" stroke="#f0f0f0" stroke-width="5.0e-3"><polyline points="-0.6748529378576149,0.3162065894924309
-0.6748529378576149,-0.39617097061442563"/><polyline points="-0.501764015434351,0.3162065894924309
-0.501764015434351,-0.39617097061442563"/><polyline points="-0.32867509301108727,0.3162065894924309
-0.32867509301108727,-0.39617097061442563"/><polyline points="-0.15558617058782342,0.3162065894924309
-0.15558617058782342,-0.39617097061442563"/><polyline points="1.7502751835440478e-2,0.3162065894924309
1.7502751835440478e-2,-0.39617097061442563"/><polyline points="0.19059167425870438,0.3162065894924309
0.19059167425870438,-0.39617097061442563"/><polyline points="0.36368059668196806,0.3162065894924309
0.36368059668196806,-0.39617097061442563"/></g><g fill="#f0f0f0" stroke="none" stroke-width="0.0" font-size="5.0e-2" fill-opacity="1.0" text-anchor="middle"><text x="-0.6748529378576149" y="0.4082813891362422">0.0</text><text x="-0.501764015434351" y="0.4082813891362422">0.5</text><text x="-0.32867509301108727" y="0.4082813891362422">1.0</text><text x="-0.15558617058782342" y="0.4082813891362422">1.5</text><text x="1.7502751835440478e-2" y="0.4082813891362422">2.0</text><text x="0.19059167425870438" y="0.4082813891362422">2.5</text><text x="0.36368059668196806" y="0.4082813891362422">3.0</text></g><g stroke-opacity="0.4" fill="#f0f0f0" stroke="#f0f0f0" stroke-width="4.0e-3" fill-opacity="0.4"><polyline points="-0.6748529378576149,0.3639759572573463
-0.6748529378576149,0.3339759572573463"/><polyline points="-0.501764015434351,0.3639759572573463
-0.501764015434351,0.3339759572573463"/><polyline points="-0.32867509301108727,0.3639759572573463
-0.32867509301108727,0.3339759572573463"/><polyline points="-0.15558617058782342,0.3639759572573463
-0.15558617058782342,0.3339759572573463"/><polyline points="1.7502751835440478e-2,0.3639759572573463
1.7502751835440478e-2,0.3339759572573463"/><polyline points="0.19059167425870438,0.3639759572573463
0.19059167425870438,0.3339759572573463"/><polyline points="0.36368059668196806,0.3639759572573463
0.36368059668196806,0.3339759572573463"/></g><g stroke-opacity="0.0" fill="#f0f0f0" stroke="#000000" stroke-width="0.0" fill-opacity="0.4"><rect width="1.0413029572983552" x="-0.676237649237001" y="0.33401602849510237" height="2.8495102404273998e-3"/></g><g stroke-opacity="1.0" fill="none" stroke="#b05929" stroke-width="1.5e-2"><polyline points="-0.6748529378576149,0.1737310774710596
-0.32867509301108727,0.1737310774710596
1.7502751835440478e-2,-0.39617097061442563"/></g><g stroke-opacity="1.0" fill="none" stroke="#a6cfe3" stroke-width="3.0e-2"><polyline points="-0.6748529378576149,0.3162065894924309
0.29444502771266245,-0.1112199465716831"/></g><g stroke-opacity="1.0" fill="none" stroke="#1f78b5" stroke-width="1.0e-2"><polyline points="-0.501764015434351,-0.2536954585930544
-0.501764015434351,0.3162065894924309"/></g><g></g></svg>