<svg height="300.0" width="441.21648345456595" xmlns:xlink="http://www.w3.org/1999/xlink" xmlns="http://www.w3.org/2000/svg" viewBox="-0.8759951587651147 -0.594 1.6769903175302294 1.14025"><g text-anchor="end" fill-opacity="1.0" fill="#0d0d0d" stroke-width="0.0" stroke="none" font-size="5.0e-2"><text y="0.5" x="0.3752423510316214" transform="rotate(-0.0, 0.3752423510316214, 0.5)">An example from chart-svg</text></g><g text-anchor="middle" fill-opacity="1.0" fill="#0d0d0d" stroke-width="0.0" stroke="none" font-size="8.0e-2"><text y="-0.5" x="-0.22980689995525283" transform="rotate(-0.0, -0.22980689995525283, -0.5)">Line Chart</text></g><g fill-opacity="5.0e-2" stroke-opacity="0.0" fill="#0d0d0d" stroke-width="0.0" stroke="#000000"><rect height="0.7704160246533129" y="-0.444722650231125" width="1.0772198435402474" x="-0.728907988597132"/></g><g stroke-opacity="5.0e-2" fill="none" stroke-width="5.0e-3" stroke="#0d0d0d"><polyline points="-0.728907988597132,0.32569337442218793
0.34831185494311523,0.32569337442218793"/></g><g stroke-opacity="5.0e-2" fill="none" stroke-width="5.0e-3" stroke="#0d0d0d"><polyline points="-0.728907988597132,0.24865177195685662
0.34831185494311523,0.24865177195685662"/></g><g stroke-opacity="5.0e-2" fill="none" stroke-width="5.0e-3" stroke="#0d0d0d"><polyline points="-0.728907988597132,0.17161016949152536
0.34831185494311523,0.17161016949152536"/></g><g stroke-opacity="5.0e-2" fill="none" stroke-width="5.0e-3" stroke="#0d0d0d"><polyline points="-0.728907988597132,9.456856702619398e-2
0.34831185494311523,9.456856702619398e-2"/></g><g stroke-opacity="5.0e-2" fill="none" stroke-width="5.0e-3" stroke="#0d0d0d"><polyline points="-0.728907988597132,1.7526964560862723e-2
0.34831185494311523,1.7526964560862723e-2"/></g><g stroke-opacity="5.0e-2" fill="none" stroke-width="5.0e-3" stroke="#0d0d0d"><polyline points="-0.728907988597132,-5.951463790446854e-2
0.34831185494311523,-5.951463790446854e-2"/></g><g stroke-opacity="5.0e-2" fill="none" stroke-width="5.0e-3" stroke="#0d0d0d"><polyline points="-0.728907988597132,-0.13655624036979985
0.34831185494311523,-0.13655624036979985"/></g><g stroke-opacity="5.0e-2" fill="none" stroke-width="5.0e-3" stroke="#0d0d0d"><polyline points="-0.728907988597132,-0.21359784283513117
0.34831185494311523,-0.21359784283513117"/></g><g stroke-opacity="5.0e-2" fill="none" stroke-width="5.0e-3" stroke="#0d0d0d"><polyline points="-0.728907988597132,-0.2906394453004625
0.34831185494311523,-0.2906394453004625"/></g><g stroke-opacity="5.0e-2" fill="none" stroke-width="5.0e-3" stroke="#0d0d0d"><polyline points="-0.728907988597132,-0.3676810477657938
0.34831185494311523,-0.3676810477657938"/></g><g stroke-opacity="5.0e-2" fill="none" stroke-width="5.0e-3" stroke="#0d0d0d"><polyline points="-0.728907988597132,-0.444722650231125
0.34831185494311523,-0.444722650231125"/></g><g text-anchor="end" fill-opacity="1.0" fill="#0d0d0d" stroke-width="0.0" stroke="none" font-size="5.0e-2"><text y="0.3368644067796609" x="-0.7809951587651147">0.0</text></g><g text-anchor="end" fill-opacity="1.0" fill="#0d0d0d" stroke-width="0.0" stroke="none" font-size="5.0e-2"><text y="0.2598228043143297" x="-0.7809951587651147">0.5</text></g><g text-anchor="end" fill-opacity="1.0" fill="#0d0d0d" stroke-width="0.0" stroke="none" font-size="5.0e-2"><text y="0.18278120184899838" x="-0.7809951587651147">1.0</text></g><g text-anchor="end" fill-opacity="1.0" fill="#0d0d0d" stroke-width="0.0" stroke="none" font-size="5.0e-2"><text y="0.105739599383667" x="-0.7809951587651147">1.5</text></g><g text-anchor="end" fill-opacity="1.0" fill="#0d0d0d" stroke-width="0.0" stroke="none" font-size="5.0e-2"><text y="2.869799691833569e-2" x="-0.7809951587651147">2.0</text></g><g text-anchor="end" fill-opacity="1.0" fill="#0d0d0d" stroke-width="0.0" stroke="none" font-size="5.0e-2"><text y="-4.834360554699557e-2" x="-0.7809951587651147">2.5</text></g><g text-anchor="end" fill-opacity="1.0" fill="#0d0d0d" stroke-width="0.0" stroke="none" font-size="5.0e-2"><text y="-0.1253852080123269" x="-0.7809951587651147">3.0</text></g><g text-anchor="end" fill-opacity="1.0" fill="#0d0d0d" stroke-width="0.0" stroke="none" font-size="5.0e-2"><text y="-0.20242681047765798" x="-0.7809951587651147">3.5</text></g><g text-anchor="end" fill-opacity="1.0" fill="#0d0d0d" stroke-width="0.0" stroke="none" font-size="5.0e-2"><text y="-0.2794684129429895" x="-0.7809951587651147">4.0</text></g><g text-anchor="end" fill-opacity="1.0" fill="#0d0d0d" stroke-width="0.0" stroke="none" font-size="5.0e-2"><text y="-0.3565100154083205" x="-0.7809951587651147">4.5</text></g><g text-anchor="end" fill-opacity="1.0" fill="#0d0d0d" stroke-width="0.0" stroke="none" font-size="5.0e-2"><text y="-0.43355161787365204" x="-0.7809951587651147">5.0</text></g><g fill-opacity="0.4" stroke-opacity="0.4" fill="#0d0d0d" stroke-width="2.0e-3" stroke="#0d0d0d"><g transform="rotate(-90.0, -0.7587110709350788, 0.32569337442218793)"><polyline points="-0.7587110709350788,0.34069337442218794
-0.7587110709350788,0.3106933744221879"/></g><g transform="rotate(-90.0, -0.7587110709350788, 0.24865177195685662)"><polyline points="-0.7587110709350788,0.26365177195685663
-0.7587110709350788,0.2336517719568566"/></g><g transform="rotate(-90.0, -0.7587110709350788, 0.17161016949152536)"><polyline points="-0.7587110709350788,0.18661016949152537
-0.7587110709350788,0.15661016949152534"/></g><g transform="rotate(-90.0, -0.7587110709350788, 9.456856702619398e-2)"><polyline points="-0.7587110709350788,0.10956856702619398
-0.7587110709350788,7.956856702619398e-2"/></g><g transform="rotate(-90.0, -0.7587110709350788, 1.7526964560862723e-2)"><polyline points="-0.7587110709350788,3.252696456086272e-2
-0.7587110709350788,2.526964560862724e-3"/></g><g transform="rotate(-90.0, -0.7587110709350788, -5.951463790446854e-2)"><polyline points="-0.7587110709350788,-4.451463790446854e-2
-0.7587110709350788,-7.451463790446854e-2"/></g><g transform="rotate(-90.0, -0.7587110709350788, -0.13655624036979985)"><polyline points="-0.7587110709350788,-0.12155624036979985
-0.7587110709350788,-0.15155624036979987"/></g><g transform="rotate(-90.0, -0.7587110709350788, -0.21359784283513117)"><polyline points="-0.7587110709350788,-0.19859784283513116
-0.7587110709350788,-0.22859784283513118"/></g><g transform="rotate(-90.0, -0.7587110709350788, -0.2906394453004625)"><polyline points="-0.7587110709350788,-0.27563944530046247
-0.7587110709350788,-0.3056394453004625"/></g><g transform="rotate(-90.0, -0.7587110709350788, -0.3676810477657938)"><polyline points="-0.7587110709350788,-0.3526810477657938
-0.7587110709350788,-0.3826810477657938"/></g><g transform="rotate(-90.0, -0.7587110709350788, -0.444722650231125)"><polyline points="-0.7587110709350788,-0.429722650231125
-0.7587110709350788,-0.459722650231125"/></g></g><g fill-opacity="0.4" stroke-opacity="0.0" fill="#0d0d0d" stroke-width="0.0" stroke="#000000"><rect height="0.7704160246533129" y="-0.444722650231125" width="2.872586249440645e-3" x="-0.7497342389055768"/></g><g stroke-opacity="5.0e-2" fill="none" stroke-width="5.0e-3" stroke="#0d0d0d"><polyline points="-0.728907988597132,0.32569337442218793
-0.728907988597132,-0.444722650231125"/></g><g stroke-opacity="5.0e-2" fill="none" stroke-width="5.0e-3" stroke="#0d0d0d"><polyline points="-0.5493713480070908,0.32569337442218793
-0.5493713480070908,-0.444722650231125"/></g><g stroke-opacity="5.0e-2" fill="none" stroke-width="5.0e-3" stroke="#0d0d0d"><polyline points="-0.36983470741704955,0.32569337442218793
-0.36983470741704955,-0.444722650231125"/></g><g stroke-opacity="5.0e-2" fill="none" stroke-width="5.0e-3" stroke="#0d0d0d"><polyline points="-0.19029806682700834,0.32569337442218793
-0.19029806682700834,-0.444722650231125"/></g><g stroke-opacity="5.0e-2" fill="none" stroke-width="5.0e-3" stroke="#0d0d0d"><polyline points="-1.0761426236967186e-2,0.32569337442218793
-1.0761426236967186e-2,-0.444722650231125"/></g><g stroke-opacity="5.0e-2" fill="none" stroke-width="5.0e-3" stroke="#0d0d0d"><polyline points="0.16877521435307408,0.32569337442218793
0.16877521435307408,-0.444722650231125"/></g><g stroke-opacity="5.0e-2" fill="none" stroke-width="5.0e-3" stroke="#0d0d0d"><polyline points="0.34831185494311523,0.32569337442218793
0.34831185494311523,-0.444722650231125"/></g><g text-anchor="middle" fill-opacity="1.0" fill="#0d0d0d" stroke-width="0.0" stroke="none" font-size="5.0e-2"><text y="0.4210323574730354" x="-0.728907988597132">0.0</text></g><g text-anchor="middle" fill-opacity="1.0" fill="#0d0d0d" stroke-width="0.0" stroke="none" font-size="5.0e-2"><text y="0.4210323574730354" x="-0.5493713480070908">0.5</text></g><g text-anchor="middle" fill-opacity="1.0" fill="#0d0d0d" stroke-width="0.0" stroke="none" font-size="5.0e-2"><text y="0.4210323574730354" x="-0.36983470741704955">1.0</text></g><g text-anchor="middle" fill-opacity="1.0" fill="#0d0d0d" stroke-width="0.0" stroke="none" font-size="5.0e-2"><text y="0.4210323574730354" x="-0.19029806682700834">1.5</text></g><g text-anchor="middle" fill-opacity="1.0" fill="#0d0d0d" stroke-width="0.0" stroke="none" font-size="5.0e-2"><text y="0.4210323574730354" x="-1.0761426236967186e-2">2.0</text></g><g text-anchor="middle" fill-opacity="1.0" fill="#0d0d0d" stroke-width="0.0" stroke="none" font-size="5.0e-2"><text y="0.4210323574730354" x="0.16877521435307408">2.5</text></g><g text-anchor="middle" fill-opacity="1.0" fill="#0d0d0d" stroke-width="0.0" stroke="none" font-size="5.0e-2"><text y="0.4210323574730354" x="0.34831185494311523">3.0</text></g><g fill-opacity="0.4" stroke-opacity="0.4" fill="#0d0d0d" stroke-width="2.0e-3" stroke="#0d0d0d"><polyline points="-0.728907988597132,0.3726656394453004
-0.728907988597132,0.3426656394453004"/><polyline points="-0.5493713480070908,0.3726656394453004
-0.5493713480070908,0.3426656394453004"/><polyline points="-0.36983470741704955,0.3726656394453004
-0.36983470741704955,0.3426656394453004"/><polyline points="-0.19029806682700834,0.3726656394453004
-0.19029806682700834,0.3426656394453004"/><polyline points="-1.0761426236967186e-2,0.3726656394453004
-1.0761426236967186e-2,0.3426656394453004"/><polyline points="0.16877521435307408,0.3726656394453004
0.16877521435307408,0.3426656394453004"/><polyline points="0.34831185494311523,0.3726656394453004
0.34831185494311523,0.3426656394453004"/></g><g fill-opacity="0.4" stroke-opacity="0.0" fill="#0d0d0d" stroke-width="0.0" stroke="#000000"><rect height="3.0816640986132127e-3" y="0.34495377503852076" width="1.0772198435402474" x="-0.728907988597132"/></g><g stroke-opacity="1.0" fill="none" stroke-width="1.5e-2" stroke="#b05929"><polyline points="-0.728907988597132,0.17161016949152536
-0.36983470741704955,0.17161016949152536
-1.0761426236967186e-2,-0.444722650231125"/></g><g stroke-opacity="1.0" fill="none" stroke-width="3.0e-2" stroke="#a6cfe3"><polyline points="-0.728907988597132,0.32569337442218793
0.27649719870709877,-0.13655624036979985"/></g><g stroke-opacity="1.0" fill="none" stroke-width="1.0e-2" stroke="#1f78b5"><polyline points="-0.5493713480070908,-0.2906394453004625
-0.5493713480070908,0.32569337442218793"/></g><g></g><g fill-opacity="0.0" stroke-opacity="1.0" fill="#0d0d0d" stroke-width="2.5e-3" stroke="#0d0d0d"><rect height="0.17758089368258856" y="-0.15995762711864414" width="0.2764864265086635" x="0.5000203162417001"/></g><g text-anchor="start" fill-opacity="1.0" fill="#0d0d0d" stroke-width="0.0" stroke="none" font-size="3.0e-2"><text y="-1.3771186440677985e-2" x="0.5179739803007044">vertical</text></g><g stroke-opacity="1.0" fill="none" stroke-width="1.0e-2" stroke="#1f78b5"><polyline points="0.6400588959019324,-1.839368258859786e-2
0.7477808802559571,-1.839368258859786e-2"/></g><g text-anchor="start" fill-opacity="1.0" fill="#0d0d0d" stroke-width="0.0" stroke="none" font-size="3.0e-2"><text y="-6.654468412942993e-2" x="0.5179739803007044">line</text></g><g stroke-opacity="1.0" fill="none" stroke-width="3.0e-2" stroke="#a6cfe3"><polyline points="0.6400588959019324,-7.11671802773498e-2
0.7477808802559571,-7.11671802773498e-2"/></g><g text-anchor="start" fill-opacity="1.0" fill="#0d0d0d" stroke-width="0.0" stroke="none" font-size="3.0e-2"><text y="-0.11931818181818199" x="0.5179739803007044">hockey</text></g><g stroke-opacity="1.0" fill="none" stroke-width="1.5e-2" stroke="#b05929"><polyline points="0.6400588959019324,-0.12394067796610186
0.7477808802559571,-0.12394067796610186"/></g><g></g></svg>