<svg viewBox="-0.6982328966448342 -0.68275 1.2057328966448342 1.356630467137767" xmlns="http://www.w3.org/2000/svg" xmlns:xlink="http://www.w3.org/1999/xlink" version="1.1" width="300.0" height="300.0"><style type="text/css"> {
  shape-rendering: "crispEdges";
}
</style><g stroke-width="0.0" stroke="none" fill="#000000" transform="translate(-9.536644832241714e-2, -0.57175)" fill-opacity="1.0" font-size="0.12" text-anchor="middle"><text transform="rotate(0.0, 0.0, -0.0)" x="0.0" y="-0.0"><a href='https://www.mathjax.org/'>Mathjax Example</a></text></g><g stroke-width="0.0" stroke="#000000" fill="#666666" fill-opacity="3.0e-2" stroke-opacity="0.0"><rect width="1.0" height="1.0" x="-0.5" y="-0.5" /></g><g stroke-width="5.0e-3" stroke="#A8E5EE" fill="none" stroke-opacity="0.3"><polyline points="-0.505,0.5 0.505,0.5" /></g><g stroke-width="5.0e-3" stroke="#A8E5EE" fill="none" stroke-opacity="0.3"><polyline points="-0.505,0.4 0.505,0.4" /></g><g stroke-width="5.0e-3" stroke="#A8E5EE" fill="none" stroke-opacity="0.3"><polyline points="-0.505,0.3 0.505,0.3" /></g><g stroke-width="5.0e-3" stroke="#A8E5EE" fill="none" stroke-opacity="0.3"><polyline points="-0.505,0.19999999999999996 0.505,0.19999999999999996" /></g><g stroke-width="5.0e-3" stroke="#A8E5EE" fill="none" stroke-opacity="0.3"><polyline points="-0.505,9.999999999999998e-2 0.505,9.999999999999998e-2" /></g><g stroke-width="5.0e-3" stroke="#A8E5EE" fill="none" stroke-opacity="0.3"><polyline points="-0.505,-0.0 0.505,-0.0" /></g><g stroke-width="5.0e-3" stroke="#A8E5EE" fill="none" stroke-opacity="0.3"><polyline points="-0.505,-0.10000000000000009 0.505,-0.10000000000000009" /></g><g stroke-width="5.0e-3" stroke="#A8E5EE" fill="none" stroke-opacity="0.3"><polyline points="-0.505,-0.20000000000000007 0.505,-0.20000000000000007" /></g><g stroke-width="5.0e-3" stroke="#A8E5EE" fill="none" stroke-opacity="0.3"><polyline points="-0.505,-0.30000000000000004 0.505,-0.30000000000000004" /></g><g stroke-width="5.0e-3" stroke="#A8E5EE" fill="none" stroke-opacity="0.3"><polyline points="-0.505,-0.4 0.505,-0.4" /></g><g stroke-width="5.0e-3" stroke="#A8E5EE" fill="none" stroke-opacity="0.3"><polyline points="-0.505,-0.5 0.505,-0.5" /></g><g stroke-width="0.0" stroke="none" fill="#666666" fill-opacity="1.0" font-size="5.0e-2" text-anchor="end"><text x="-0.5982328966448343" y="0.5145">-0.5</text></g><g stroke-width="0.0" stroke="none" fill="#666666" fill-opacity="1.0" font-size="5.0e-2" text-anchor="end"><text x="-0.5982328966448343" y="0.41450000000000004">-0.4</text></g><g stroke-width="0.0" stroke="none" fill="#666666" fill-opacity="1.0" font-size="5.0e-2" text-anchor="end"><text x="-0.5982328966448343" y="0.3145">-0.3</text></g><g stroke-width="0.0" stroke="none" fill="#666666" fill-opacity="1.0" font-size="5.0e-2" text-anchor="end"><text x="-0.5982328966448343" y="0.21449999999999997">-0.2</text></g><g stroke-width="0.0" stroke="none" fill="#666666" fill-opacity="1.0" font-size="5.0e-2" text-anchor="end"><text x="-0.5982328966448343" y="0.11449999999999998">-0.1</text></g><g stroke-width="0.0" stroke="none" fill="#666666" fill-opacity="1.0" font-size="5.0e-2" text-anchor="end"><text x="-0.5982328966448343" y="1.4499999999999999e-2">0.0</text></g><g stroke-width="0.0" stroke="none" fill="#666666" fill-opacity="1.0" font-size="5.0e-2" text-anchor="end"><text x="-0.5982328966448343" y="-8.550000000000009e-2">0.1</text></g><g stroke-width="0.0" stroke="none" fill="#666666" fill-opacity="1.0" font-size="5.0e-2" text-anchor="end"><text x="-0.5982328966448343" y="-0.18550000000000005">0.2</text></g><g stroke-width="0.0" stroke="none" fill="#666666" fill-opacity="1.0" font-size="5.0e-2" text-anchor="end"><text x="-0.5982328966448343" y="-0.28550000000000003">0.3</text></g><g stroke-width="0.0" stroke="none" fill="#666666" fill-opacity="1.0" font-size="5.0e-2" text-anchor="end"><text x="-0.5982328966448343" y="-0.3855">0.4</text></g><g stroke-width="0.0" stroke="none" fill="#666666" fill-opacity="1.0" font-size="5.0e-2" text-anchor="end"><text x="-0.5982328966448343" y="-0.4855">0.5</text></g><g stroke-width="0.0" stroke="#2C429D" fill="#5F0391" fill-opacity="1.0" stroke-opacity="0.4"><line stroke-width="5.0e-3" transform="rotate(-90.0, -0.5681578966448342, 0.5)" x1="-0.5681578966448342" y1="0.515" x2="-0.5681578966448342" y2="0.485" /><line stroke-width="5.0e-3" transform="rotate(-90.0, -0.5681578966448342, 0.4)" x1="-0.5681578966448342" y1="0.41500000000000004" x2="-0.5681578966448342" y2="0.385" /><line stroke-width="5.0e-3" transform="rotate(-90.0, -0.5681578966448342, 0.3)" x1="-0.5681578966448342" y1="0.315" x2="-0.5681578966448342" y2="0.285" /><line stroke-width="5.0e-3" transform="rotate(-90.0, -0.5681578966448342, 0.19999999999999996)" x1="-0.5681578966448342" y1="0.21499999999999997" x2="-0.5681578966448342" y2="0.18499999999999994" /><line stroke-width="5.0e-3" transform="rotate(-90.0, -0.5681578966448342, 9.999999999999998e-2)" x1="-0.5681578966448342" y1="0.11499999999999998" x2="-0.5681578966448342" y2="8.499999999999998e-2" /><line stroke-width="5.0e-3" transform="rotate(-90.0, -0.5681578966448342, -0.0)" x1="-0.5681578966448342" y1="1.5e-2" x2="-0.5681578966448342" y2="-1.5e-2" /><line stroke-width="5.0e-3" transform="rotate(-90.0, -0.5681578966448342, -0.10000000000000009)" x1="-0.5681578966448342" y1="-8.500000000000009e-2" x2="-0.5681578966448342" y2="-0.11500000000000009" /><line stroke-width="5.0e-3" transform="rotate(-90.0, -0.5681578966448342, -0.20000000000000007)" x1="-0.5681578966448342" y1="-0.18500000000000005" x2="-0.5681578966448342" y2="-0.21500000000000008" /><line stroke-width="5.0e-3" transform="rotate(-90.0, -0.5681578966448342, -0.30000000000000004)" x1="-0.5681578966448342" y1="-0.28500000000000003" x2="-0.5681578966448342" y2="-0.31500000000000006" /><line stroke-width="5.0e-3" transform="rotate(-90.0, -0.5681578966448342, -0.4)" x1="-0.5681578966448342" y1="-0.385" x2="-0.5681578966448342" y2="-0.41500000000000004" /><line stroke-width="5.0e-3" transform="rotate(-90.0, -0.5681578966448342, -0.5)" x1="-0.5681578966448342" y1="-0.485" x2="-0.5681578966448342" y2="-0.515" /></g><g stroke-width="0.0" stroke="#666666" fill="#5F0391" fill-opacity="0.5" stroke-opacity="0.0"><rect width="5.0000000000000044e-3" height="1.0" x="-0.5581578966448342" y="-0.5" /></g><g stroke-width="5.0e-3" stroke="#A8E5EE" fill="none" stroke-opacity="0.3"><polyline points="-0.5,0.505 -0.5,-0.505" /></g><g stroke-width="5.0e-3" stroke="#A8E5EE" fill="none" stroke-opacity="0.3"><polyline points="-0.4,0.505 -0.4,-0.505" /></g><g stroke-width="5.0e-3" stroke="#A8E5EE" fill="none" stroke-opacity="0.3"><polyline points="-0.3,0.505 -0.3,-0.505" /></g><g stroke-width="5.0e-3" stroke="#A8E5EE" fill="none" stroke-opacity="0.3"><polyline points="-0.19999999999999996,0.505 -0.19999999999999996,-0.505" /></g><g stroke-width="5.0e-3" stroke="#A8E5EE" fill="none" stroke-opacity="0.3"><polyline points="-9.999999999999998e-2,0.505 -9.999999999999998e-2,-0.505" /></g><g stroke-width="5.0e-3" stroke="#A8E5EE" fill="none" stroke-opacity="0.3"><polyline points="0.0,0.505 0.0,-0.505" /></g><g stroke-width="5.0e-3" stroke="#A8E5EE" fill="none" stroke-opacity="0.3"><polyline points="0.10000000000000009,0.505 0.10000000000000009,-0.505" /></g><g stroke-width="5.0e-3" stroke="#A8E5EE" fill="none" stroke-opacity="0.3"><polyline points="0.20000000000000007,0.505 0.20000000000000007,-0.505" /></g><g stroke-width="5.0e-3" stroke="#A8E5EE" fill="none" stroke-opacity="0.3"><polyline points="0.30000000000000004,0.505 0.30000000000000004,-0.505" /></g><g stroke-width="5.0e-3" stroke="#A8E5EE" fill="none" stroke-opacity="0.3"><polyline points="0.4,0.505 0.4,-0.505" /></g><g stroke-width="5.0e-3" stroke="#A8E5EE" fill="none" stroke-opacity="0.3"><polyline points="0.5,0.505 0.5,-0.505" /></g><g stroke-width="0.0" stroke="none" fill="#666666" fill-opacity="1.0" font-size="4.137931034482759e-2" text-anchor="end"><text transform="rotate(-45.0, -0.5, 0.6000000000000001)" x="-0.5" y="0.6000000000000001">-0.5</text></g><g stroke-width="0.0" stroke="none" fill="#666666" fill-opacity="1.0" font-size="4.137931034482759e-2" text-anchor="end"><text transform="rotate(-45.0, -0.4, 0.6000000000000001)" x="-0.4" y="0.6000000000000001">-0.4</text></g><g stroke-width="0.0" stroke="none" fill="#666666" fill-opacity="1.0" font-size="4.137931034482759e-2" text-anchor="end"><text transform="rotate(-45.0, -0.3, 0.6000000000000001)" x="-0.3" y="0.6000000000000001">-0.3</text></g><g stroke-width="0.0" stroke="none" fill="#666666" fill-opacity="1.0" font-size="4.137931034482759e-2" text-anchor="end"><text transform="rotate(-45.0, -0.19999999999999996, 0.6000000000000001)" x="-0.19999999999999996" y="0.6000000000000001">-0.2</text></g><g stroke-width="0.0" stroke="none" fill="#666666" fill-opacity="1.0" font-size="4.137931034482759e-2" text-anchor="end"><text transform="rotate(-45.0, -9.999999999999998e-2, 0.6000000000000001)" x="-9.999999999999998e-2" y="0.6000000000000001">-0.1</text></g><g stroke-width="0.0" stroke="none" fill="#666666" fill-opacity="1.0" font-size="4.137931034482759e-2" text-anchor="end"><text transform="rotate(-45.0, 0.0, 0.6000000000000001)" x="0.0" y="0.6000000000000001">0.0</text></g><g stroke-width="0.0" stroke="none" fill="#666666" fill-opacity="1.0" font-size="4.137931034482759e-2" text-anchor="end"><text transform="rotate(-45.0, 0.10000000000000009, 0.6000000000000001)" x="0.10000000000000009" y="0.6000000000000001">0.1</text></g><g stroke-width="0.0" stroke="none" fill="#666666" fill-opacity="1.0" font-size="4.137931034482759e-2" text-anchor="end"><text transform="rotate(-45.0, 0.20000000000000007, 0.6000000000000001)" x="0.20000000000000007" y="0.6000000000000001">0.2</text></g><g stroke-width="0.0" stroke="none" fill="#666666" fill-opacity="1.0" font-size="4.137931034482759e-2" text-anchor="end"><text transform="rotate(-45.0, 0.30000000000000004, 0.6000000000000001)" x="0.30000000000000004" y="0.6000000000000001">0.3</text></g><g stroke-width="0.0" stroke="none" fill="#666666" fill-opacity="1.0" font-size="4.137931034482759e-2" text-anchor="end"><text transform="rotate(-45.0, 0.4, 0.6000000000000001)" x="0.4" y="0.6000000000000001">0.4</text></g><g stroke-width="0.0" stroke="none" fill="#666666" fill-opacity="1.0" font-size="4.137931034482759e-2" text-anchor="end"><text transform="rotate(-45.0, 0.5, 0.6000000000000001)" x="0.5" y="0.6000000000000001">0.5</text></g><g stroke-width="0.0" stroke="#2C429D" fill="#5F0391" fill-opacity="1.0" stroke-opacity="0.4"><line stroke-width="5.0e-3" x1="-0.5" y1="0.54" x2="-0.5" y2="0.51" /><line stroke-width="5.0e-3" x1="-0.4" y1="0.54" x2="-0.4" y2="0.51" /><line stroke-width="5.0e-3" x1="-0.3" y1="0.54" x2="-0.3" y2="0.51" /><line stroke-width="5.0e-3" x1="-0.19999999999999996" y1="0.54" x2="-0.19999999999999996" y2="0.51" /><line stroke-width="5.0e-3" x1="-9.999999999999998e-2" y1="0.54" x2="-9.999999999999998e-2" y2="0.51" /><line stroke-width="5.0e-3" y1="0.54" y2="0.51" /><line stroke-width="5.0e-3" x1="0.10000000000000009" y1="0.54" x2="0.10000000000000009" y2="0.51" /><line stroke-width="5.0e-3" x1="0.20000000000000007" y1="0.54" x2="0.20000000000000007" y2="0.51" /><line stroke-width="5.0e-3" x1="0.30000000000000004" y1="0.54" x2="0.30000000000000004" y2="0.51" /><line stroke-width="5.0e-3" x1="0.4" y1="0.54" x2="0.4" y2="0.51" /><line stroke-width="5.0e-3" x1="0.5" y1="0.54" x2="0.5" y2="0.51" /></g><g stroke-width="0.0" stroke="#666666" fill="#5F0391" fill-opacity="0.5" stroke-opacity="0.0"><rect width="1.0" height="5.0000000000000044e-3" x="-0.5" y="0.51" /></g><g /></svg>