<svg xmlns="http://www.w3.org/2000/svg" height="300.0" viewBox="-0.87 -0.5487807950727883 1.6477832413565396 1.0950307950727884" width="450.0" xmlns:xlink="http://www.w3.org/1999/xlink"><g stroke-opacity="0.0" fill-opacity="0.1" stroke="#000000" stroke-width="0.0" fill="#cccccc"><rect height="0.8958566629339307" width="1.415027593038064" x="-0.6697443516815245" y="-0.4955207166853305"/></g><g stroke-opacity="0.1" stroke="#808080" stroke-width="5.0e-3" fill="none"><polyline points="-0.6744611103249847,0.40033594624860025
0.75,0.40033594624860025"/></g><g stroke-opacity="0.1" stroke="#808080" stroke-width="5.0e-3" fill="none"><polyline points="-0.6744611103249847,0.3256812243374394
0.75,0.3256812243374394"/></g><g stroke-opacity="0.1" stroke="#808080" stroke-width="5.0e-3" fill="none"><polyline points="-0.6744611103249847,0.25102650242627855
0.75,0.25102650242627855"/></g><g stroke-opacity="0.1" stroke="#808080" stroke-width="5.0e-3" fill="none"><polyline points="-0.6744611103249847,0.1763717805151176
0.75,0.1763717805151176"/></g><g stroke-opacity="0.1" stroke="#808080" stroke-width="5.0e-3" fill="none"><polyline points="-0.6744611103249847,0.10171705860395674
0.75,0.10171705860395674"/></g><g stroke-opacity="0.1" stroke="#808080" stroke-width="5.0e-3" fill="none"><polyline points="-0.6744611103249847,2.706233669279584e-2
0.75,2.706233669279584e-2"/></g><g stroke-opacity="0.1" stroke="#808080" stroke-width="5.0e-3" fill="none"><polyline points="-0.6744611103249847,-4.759238521836506e-2
0.75,-4.759238521836506e-2"/></g><g stroke-opacity="0.1" stroke="#808080" stroke-width="5.0e-3" fill="none"><polyline points="-0.6744611103249847,-0.12224710712952591
0.75,-0.12224710712952591"/></g><g stroke-opacity="0.1" stroke="#808080" stroke-width="5.0e-3" fill="none"><polyline points="-0.6744611103249847,-0.19690182904068676
0.75,-0.19690182904068676"/></g><g stroke-opacity="0.1" stroke="#808080" stroke-width="5.0e-3" fill="none"><polyline points="-0.6744611103249847,-0.2715565509518476
0.75,-0.2715565509518476"/></g><g stroke-opacity="0.1" stroke="#808080" stroke-width="5.0e-3" fill="none"><polyline points="-0.6744611103249847,-0.34621127286300857
0.75,-0.34621127286300857"/></g><g stroke-opacity="0.1" stroke="#808080" stroke-width="5.0e-3" fill="none"><polyline points="-0.6744611103249847,-0.4208659947741694
0.75,-0.4208659947741694"/></g><g stroke-opacity="0.1" stroke="#808080" stroke-width="5.0e-3" fill="none"><polyline points="-0.6744611103249847,-0.4955207166853305
0.75,-0.4955207166853305"/></g><g fill-opacity="0.8" font-size="5.0e-2" stroke="none" stroke-width="0.0" fill="#333333" text-anchor="end"><text x="-0.75" y="0.4133258678611422">-1.2</text></g><g fill-opacity="0.8" font-size="5.0e-2" stroke="none" stroke-width="0.0" fill="#333333" text-anchor="end"><text x="-0.75" y="0.3386711459499814">-1.0</text></g><g fill-opacity="0.8" font-size="5.0e-2" stroke="none" stroke-width="0.0" fill="#333333" text-anchor="end"><text x="-0.75" y="0.26401642403882053">-0.8</text></g><g fill-opacity="0.8" font-size="5.0e-2" stroke="none" stroke-width="0.0" fill="#333333" text-anchor="end"><text x="-0.75" y="0.18936170212765963">-0.6</text></g><g fill-opacity="0.8" font-size="5.0e-2" stroke="none" stroke-width="0.0" fill="#333333" text-anchor="end"><text x="-0.75" y="0.11470698021649872">-0.4</text></g><g fill-opacity="0.8" font-size="5.0e-2" stroke="none" stroke-width="0.0" fill="#333333" text-anchor="end"><text x="-0.75" y="4.005225830533782e-2">-0.2</text></g><g fill-opacity="0.8" font-size="5.0e-2" stroke="none" stroke-width="0.0" fill="#333333" text-anchor="end"><text x="-0.75" y="-3.4602463605823086e-2">0.0</text></g><g fill-opacity="0.8" font-size="5.0e-2" stroke="none" stroke-width="0.0" fill="#333333" text-anchor="end"><text x="-0.75" y="-0.10925718551698393">0.2</text></g><g fill-opacity="0.8" font-size="5.0e-2" stroke="none" stroke-width="0.0" fill="#333333" text-anchor="end"><text x="-0.75" y="-0.1839119074281449">0.4</text></g><g fill-opacity="0.8" font-size="5.0e-2" stroke="none" stroke-width="0.0" fill="#333333" text-anchor="end"><text x="-0.75" y="-0.25856662933930563">0.6</text></g><g fill-opacity="0.8" font-size="5.0e-2" stroke="none" stroke-width="0.0" fill="#333333" text-anchor="end"><text x="-0.75" y="-0.3332213512504665">0.8</text></g><g fill-opacity="0.8" font-size="5.0e-2" stroke="none" stroke-width="0.0" fill="#333333" text-anchor="end"><text x="-0.75" y="-0.40787607316162755">1.0</text></g><g fill-opacity="0.8" font-size="5.0e-2" stroke="none" stroke-width="0.0" fill="#333333" text-anchor="end"><text x="-0.75" y="-0.4825307950727883">1.2</text></g><g stroke-opacity="0.5" fill-opacity="0.5" stroke="#570d66" stroke-width="5.0e-3" fill="#570d66"><g transform="rotate(-90.0, -0.7192703174378567, 0.40033594624860025)"><polyline points="-0.7192703174378567,0.41533594624860026
-0.7192703174378567,0.38533594624860024"/></g><g transform="rotate(-90.0, -0.7192703174378567, 0.3256812243374394)"><polyline points="-0.7192703174378567,0.3406812243374394
-0.7192703174378567,0.3106812243374394"/></g><g transform="rotate(-90.0, -0.7192703174378567, 0.25102650242627855)"><polyline points="-0.7192703174378567,0.26602650242627857
-0.7192703174378567,0.23602650242627854"/></g><g transform="rotate(-90.0, -0.7192703174378567, 0.1763717805151176)"><polyline points="-0.7192703174378567,0.1913717805151176
-0.7192703174378567,0.16137178051511758"/></g><g transform="rotate(-90.0, -0.7192703174378567, 0.10171705860395674)"><polyline points="-0.7192703174378567,0.11671705860395674
-0.7192703174378567,8.671705860395675e-2"/></g><g transform="rotate(-90.0, -0.7192703174378567, 2.706233669279584e-2)"><polyline points="-0.7192703174378567,4.206233669279584e-2
-0.7192703174378567,1.2062336692795841e-2"/></g><g transform="rotate(-90.0, -0.7192703174378567, -4.759238521836506e-2)"><polyline points="-0.7192703174378567,-3.2592385218365064e-2
-0.7192703174378567,-6.259238521836506e-2"/></g><g transform="rotate(-90.0, -0.7192703174378567, -0.12224710712952591)"><polyline points="-0.7192703174378567,-0.10724710712952591
-0.7192703174378567,-0.13724710712952592"/></g><g transform="rotate(-90.0, -0.7192703174378567, -0.19690182904068676)"><polyline points="-0.7192703174378567,-0.18190182904068675
-0.7192703174378567,-0.21190182904068677"/></g><g transform="rotate(-90.0, -0.7192703174378567, -0.2715565509518476)"><polyline points="-0.7192703174378567,-0.2565565509518476
-0.7192703174378567,-0.2865565509518476"/></g><g transform="rotate(-90.0, -0.7192703174378567, -0.34621127286300857)"><polyline points="-0.7192703174378567,-0.33121127286300855
-0.7192703174378567,-0.3612112728630086"/></g><g transform="rotate(-90.0, -0.7192703174378567, -0.4208659947741694)"><polyline points="-0.7192703174378567,-0.4058659947741694
-0.7192703174378567,-0.43586599477416943"/></g><g transform="rotate(-90.0, -0.7192703174378567, -0.4955207166853305)"><polyline points="-0.7192703174378567,-0.4805207166853305
-0.7192703174378567,-0.5105207166853305"/></g></g><g stroke-opacity="0.5" fill-opacity="0.5" stroke="#570d66" stroke-width="0.0" fill="#570d66"><rect height="0.8958566629339307" width="4.716758643460217e-3" x="-0.7074784208292062" y="-0.4955207166853305"/></g><g stroke-opacity="0.1" stroke="#808080" stroke-width="5.0e-3" fill="none"><polyline points="-0.6697443516815245,0.40481522956326993
-0.6697443516815245,-0.5"/></g><g stroke-opacity="0.1" stroke="#808080" stroke-width="5.0e-3" fill="none"><polyline points="-0.49286590255176643,0.40481522956326993
-0.49286590255176643,-0.5"/></g><g stroke-opacity="0.1" stroke="#808080" stroke-width="5.0e-3" fill="none"><polyline points="-0.31598745342200846,0.40481522956326993
-0.31598745342200846,-0.5"/></g><g stroke-opacity="0.1" stroke="#808080" stroke-width="5.0e-3" fill="none"><polyline points="-0.13910900429225037,0.40481522956326993
-0.13910900429225037,-0.5"/></g><g stroke-opacity="0.1" stroke="#808080" stroke-width="5.0e-3" fill="none"><polyline points="3.776944483750744e-2,0.40481522956326993
3.776944483750744e-2,-0.5"/></g><g stroke-opacity="0.1" stroke="#808080" stroke-width="5.0e-3" fill="none"><polyline points="0.21464789396726558,0.40481522956326993
0.21464789396726558,-0.5"/></g><g stroke-opacity="0.1" stroke="#808080" stroke-width="5.0e-3" fill="none"><polyline points="0.3915263430970235,0.40481522956326993
0.3915263430970235,-0.5"/></g><g stroke-opacity="0.1" stroke="#808080" stroke-width="5.0e-3" fill="none"><polyline points="0.5684047922267816,0.40481522956326993
0.5684047922267816,-0.5"/></g><g stroke-opacity="0.1" stroke="#808080" stroke-width="5.0e-3" fill="none"><polyline points="0.7452832413565396,0.40481522956326993
0.7452832413565396,-0.5"/></g><g fill-opacity="0.8" font-size="5.0e-2" stroke="none" stroke-width="0.0" fill="#333333" text-anchor="middle"><text x="-0.6697443516815245" y="0.5">-1</text></g><g fill-opacity="0.8" font-size="5.0e-2" stroke="none" stroke-width="0.0" fill="#333333" text-anchor="middle"><text x="-0.49286590255176643" y="0.5">0</text></g><g fill-opacity="0.8" font-size="5.0e-2" stroke="none" stroke-width="0.0" fill="#333333" text-anchor="middle"><text x="-0.31598745342200846" y="0.5">1</text></g><g fill-opacity="0.8" font-size="5.0e-2" stroke="none" stroke-width="0.0" fill="#333333" text-anchor="middle"><text x="-0.13910900429225037" y="0.5">2</text></g><g fill-opacity="0.8" font-size="5.0e-2" stroke="none" stroke-width="0.0" fill="#333333" text-anchor="middle"><text x="3.776944483750744e-2" y="0.5">3</text></g><g fill-opacity="0.8" font-size="5.0e-2" stroke="none" stroke-width="0.0" fill="#333333" text-anchor="middle"><text x="0.21464789396726558" y="0.5">4</text></g><g fill-opacity="0.8" font-size="5.0e-2" stroke="none" stroke-width="0.0" fill="#333333" text-anchor="middle"><text x="0.3915263430970235" y="0.5">5</text></g><g fill-opacity="0.8" font-size="5.0e-2" stroke="none" stroke-width="0.0" fill="#333333" text-anchor="middle"><text x="0.5684047922267816" y="0.5">6</text></g><g fill-opacity="0.8" font-size="5.0e-2" stroke="none" stroke-width="0.0" fill="#333333" text-anchor="middle"><text x="0.7452832413565396" y="0.5">7</text></g><g stroke-opacity="0.5" fill-opacity="0.5" stroke="#570d66" stroke-width="5.0e-3" fill="#570d66"><polyline points="-0.6697443516815245,0.4399720044792833
-0.6697443516815245,0.4099720044792833"/><polyline points="-0.49286590255176643,0.4399720044792833
-0.49286590255176643,0.4099720044792833"/><polyline points="-0.31598745342200846,0.4399720044792833
-0.31598745342200846,0.4099720044792833"/><polyline points="-0.13910900429225037,0.4399720044792833
-0.13910900429225037,0.4099720044792833"/><polyline points="3.776944483750744e-2,0.4399720044792833
3.776944483750744e-2,0.4099720044792833"/><polyline points="0.21464789396726558,0.4399720044792833
0.21464789396726558,0.4099720044792833"/><polyline points="0.3915263430970235,0.4399720044792833
0.3915263430970235,0.4099720044792833"/><polyline points="0.5684047922267816,0.4399720044792833
0.5684047922267816,0.4099720044792833"/><polyline points="0.7452832413565396,0.4399720044792833
0.7452832413565396,0.4099720044792833"/></g><g stroke-opacity="0.5" fill-opacity="0.5" stroke="#570d66" stroke-width="0.0" fill="#570d66"><rect height="4.47928331466968e-3" width="1.415027593038064" x="-0.6697443516815245" y="0.40929451287793955"/></g><g stroke-opacity="0.4" fill-opacity="0.8" stroke="#0a865a" stroke-width="3.0e-3" fill="#0ea194"><rect height="3.0e-2" width="3.0000000000000027e-2" x="-0.5078659025517664" y="-6.259238521836506e-2"/><rect height="3.0000000000000013e-2" width="3.0000000000000027e-2" x="-0.4708205667941396" y="-0.14020033251876052"/><rect height="3.0000000000000027e-2" width="3.0000000000000027e-2" x="-0.43377523103651267" y="-0.21441644011787986"/><rect height="3.0000000000000027e-2" width="3.0000000000000027e-2" x="-0.39672989527888575" y="-0.2819971079852457"/><rect height="3.0000000000000027e-2" width="3.0000000000000027e-2" x="-0.3596845595212588" y="-0.3399887366470302"/><rect height="3.0000000000000027e-2" width="3.0000000000000027e-2" x="-0.32263922376363197" y="-0.38585681365600544"/><rect height="3.0000000000000027e-2" width="3.0000000000000027e-2" x="-0.28559388800600505" y="-0.4175966839474259"/><rect height="3.0000000000000027e-2" width="3.0000000000000027e-2" x="-0.24854855224837813" y="-0.43382116288476047"/><rect height="3.0000000000000027e-2" width="3.0000000000000027e-2" x="-0.2115032164907512" y="-0.43382116288476047"/><rect height="3.0000000000000027e-2" width="3.0000000000000027e-2" x="-0.1744578807331243" y="-0.4175966839474259"/><rect height="3.0000000000000027e-2" width="3.0000000000000013e-2" x="-0.13741254497549737" y="-0.38585681365600555"/><rect height="3.0000000000000027e-2" width="3.0e-2" x="-0.10036720921787044" y="-0.33998873664703044"/><rect height="3.0000000000000027e-2" width="3.0e-2" x="-6.332187346024352e-2" y="-0.2819971079852458"/><rect height="3.0000000000000027e-2" width="3.0e-2" x="-2.6276537702616606e-2" y="-0.21441644011787997"/><rect height="3.0000000000000013e-2" width="3.0e-2" x="1.0768798055010312e-2" y="-0.14020033251876063"/><rect height="3.0e-2" width="3.0e-2" x="4.781413381263712e-2" y="-6.259238521836517e-2"/><rect height="3.0e-2" width="3.0e-2" x="8.485946957026415e-2" y="1.5015562082030157e-2"/><rect height="3.0e-2" width="3.0000000000000013e-2" x="0.12190480532789096" y="8.923166968114961e-2"/><rect height="3.0000000000000027e-2" width="3.0000000000000027e-2" x="0.15895014108551797" y="0.15681233754851548"/><rect height="3.0000000000000027e-2" width="3.0000000000000027e-2" x="0.19599547684314478" y="0.21480396621030007"/><rect height="3.0000000000000027e-2" width="3.0000000000000027e-2" x="0.2330408126007718" y="0.2606720432192752"/><rect height="3.0000000000000027e-2" width="3.0000000000000027e-2" x="0.2700861483583986" y="0.29241191351069556"/><rect height="3.0000000000000027e-2" width="3.0000000000000027e-2" x="0.30713148411602564" y="0.3086363924480303"/><rect height="3.0000000000000027e-2" width="3.0000000000000027e-2" x="0.34417681987365245" y="0.3086363924480303"/><rect height="3.0000000000000027e-2" width="3.0000000000000027e-2" x="0.3812221556312795" y="0.2924119135106956"/><rect height="3.0000000000000027e-2" width="3.0000000000000027e-2" x="0.4182674913889063" y="0.2606720432192754"/><rect height="3.0000000000000027e-2" width="3.0000000000000027e-2" x="0.4553128271465333" y="0.21480396621030035"/><rect height="3.0000000000000027e-2" width="3.0000000000000027e-2" x="0.4923581629041601" y="0.15681233754851553"/><rect height="3.0e-2" width="3.0000000000000027e-2" x="0.5294034986617872" y="8.923166968115e-2"/><rect height="3.0e-2" width="3.0000000000000027e-2" x="0.566448834419414" y="1.50155620820306e-2"/><rect height="3.0e-2" width="3.0000000000000027e-2" x="0.603494170177041" y="-6.259238521836495e-2"/></g></svg>