<svg xmlns="http://www.w3.org/2000/svg" width="447.12869687731336" xmlns:xlink="http://www.w3.org/1999/xlink" viewBox="-0.7383418204964991 -0.4968489123311198 1.4828365690642902 0.9949058824138697" height="300.0"><style>svg {
  color-scheme: light dark;
}
{
  .canvas g, .title g, .axisbar g, .ticktext g, .tickglyph g, .ticklines g, .legendContent g text {
    fill: #0d0d0d;
  }
  .ticklines g, .tickglyph g, .legendBorder g {
    stroke: #0d0d0d;
  }
}
@media (prefers-color-scheme:dark) {
  .canvas g, .title g, .axisbar g, .ticktext g, .tickglyph g, .ticklines g, .legendContent g text {
    fill: #f0f0f0;
  }
  .ticklines g, .tickglyph g, .legendBorder g {
    stroke: #f0f0f0;
  }
}</style><g class="chart"><g class="mix"><g fill="none" stroke="rgb(2%, 73%, 80%)" stroke-width="5.0e-3" stroke-opacity="1.0"><polyline points="-0.6003731699554424,0.40099453800637236
0.7053238383195416,0.40099453800637236"/></g><g fill="none" stroke="rgb(0%, 72%, 79%)" stroke-width="5.0e-3" stroke-opacity="1.0"><polyline points="-0.5873161998726926,0.3922439690487028
0.6922668682367917,0.40099453800637236"/></g><g fill="none" stroke="rgb(-1%, 71%, 79%)" stroke-width="5.0e-3" stroke-opacity="1.0"><polyline points="-0.5742592297899427,0.3834934000910332
0.6792098981540421,0.40099453800637236"/></g><g fill="none" stroke="rgb(-2%, 70%, 78%)" stroke-width="5.0e-3" stroke-opacity="1.0"><polyline points="-0.5612022597071928,0.3747428311333637
0.6661529280712922,0.40099453800637236"/></g><g fill="none" stroke="rgb(-3%, 69%, 78%)" stroke-width="5.0e-3" stroke-opacity="1.0"><polyline points="-0.548145289624443,0.36599226217569414
0.6530959579885424,0.40099453800637236"/></g><g fill="none" stroke="rgb(-4%, 68%, 77%)" stroke-width="5.0e-3" stroke-opacity="1.0"><polyline points="-0.5350883195416932,0.3572416932180246
0.6400389879057927,0.40099453800637236"/></g><g fill="none" stroke="rgb(-5%, 67%, 77%)" stroke-width="5.0e-3" stroke-opacity="1.0"><polyline points="-0.5220313494589434,0.34849112426035506
0.6269820178230429,0.40099453800637236"/></g><g fill="none" stroke="rgb(-6%, 66%, 76%)" stroke-width="5.0e-3" stroke-opacity="1.0"><polyline points="-0.5089743793761936,0.3397405553026855
0.613925047740293,0.40099453800637236"/></g><g fill="none" stroke="rgb(-6%, 66%, 75%)" stroke-width="5.0e-3" stroke-opacity="1.0"><polyline points="-0.4959174092934437,0.330989986345016
0.6008680776575431,0.40099453800637236"/></g><g fill="none" stroke="rgb(-7%, 65%, 75%)" stroke-width="5.0e-3" stroke-opacity="1.0"><polyline points="-0.4828604392106939,0.3222394173873464
0.587811107574793,0.40099453800637236"/></g><g fill="none" stroke="rgb(-8%, 64%, 74%)" stroke-width="5.0e-3" stroke-opacity="1.0"><polyline points="-0.46980346912794396,0.31348884842967684
0.5747541374920434,0.40099453800637236"/></g><g fill="none" stroke="rgb(-8%, 63%, 74%)" stroke-width="5.0e-3" stroke-opacity="1.0"><polyline points="-0.45674649904519415,0.30473827947200727
0.5616971674092935,0.40099453800637236"/></g><g fill="none" stroke="rgb(-8%, 62%, 73%)" stroke-width="5.0e-3" stroke-opacity="1.0"><polyline points="-0.4436895289624444,0.29598771051433775
0.5486401973265437,0.40099453800637236"/></g><g fill="none" stroke="rgb(-8%, 61%, 73%)" stroke-width="5.0e-3" stroke-opacity="1.0"><polyline points="-0.4306325588796944,0.28723714155666824
0.5355832272437938,0.40099453800637236"/></g><g fill="none" stroke="rgb(-9%, 60%, 72%)" stroke-width="5.0e-3" stroke-opacity="1.0"><polyline points="-0.4175755887969447,0.27848657259899867
0.5225262571610442,0.40099453800637236"/></g><g fill="none" stroke="rgb(-9%, 59%, 71%)" stroke-width="5.0e-3" stroke-opacity="1.0"><polyline points="-0.4045186187141948,0.2697360036413291
0.5094692870782941,0.40099453800637236"/></g><g fill="none" stroke="rgb(-9%, 58%, 71%)" stroke-width="5.0e-3" stroke-opacity="1.0"><polyline points="-0.39146164863144495,0.26098543468365953
0.4964123169955442,0.40099453800637236"/></g><g fill="none" stroke="rgb(-9%, 57%, 70%)" stroke-width="5.0e-3" stroke-opacity="1.0"><polyline points="-0.3784046785486951,0.25223486572598997
0.4833553469127946,0.40099453800637236"/></g><g fill="none" stroke="rgb(-9%, 57%, 70%)" stroke-width="5.0e-3" stroke-opacity="1.0"><polyline points="-0.3653477084659453,0.24348429676832045
0.4702983768300445,0.40099453800637236"/></g><g fill="none" stroke="rgb(-9%, 56%, 69%)" stroke-width="5.0e-3" stroke-opacity="1.0"><polyline points="-0.35229073838319536,0.23473372781065088
0.45724140674729485,0.40099453800637236"/></g><g fill="none" stroke="rgb(-8%, 55%, 68%)" stroke-width="5.0e-3" stroke-opacity="1.0"><polyline points="-0.33923376830044555,0.22598315885298137
0.444184436664545,0.40099453800637236"/></g><g fill="none" stroke="rgb(-8%, 54%, 68%)" stroke-width="5.0e-3" stroke-opacity="1.0"><polyline points="-0.32617679821769574,0.21723258989531186
0.4311274665817951,0.40099453800637236"/></g><g fill="none" stroke="rgb(-8%, 53%, 67%)" stroke-width="5.0e-3" stroke-opacity="1.0"><polyline points="-0.31311982813494593,0.2084820209376423
0.41807049649904504,0.40099453800637236"/></g><g fill="none" stroke="rgb(-8%, 52%, 67%)" stroke-width="5.0e-3" stroke-opacity="1.0"><polyline points="-0.300062858052196,0.19973145197997272
0.4050135264162954,0.40099453800637236"/></g><g fill="none" stroke="rgb(-8%, 51%, 66%)" stroke-width="5.0e-3" stroke-opacity="1.0"><polyline points="-0.2870058879694462,0.19098088302230315
0.39195655633354576,0.40099453800637236"/></g><g fill="none" stroke="rgb(-7%, 50%, 65%)" stroke-width="5.0e-3" stroke-opacity="1.0"><polyline points="-0.27394891788669634,0.18223031406463364
0.3788995862507957,0.40099453800637236"/></g><g fill="none" stroke="rgb(-7%, 50%, 65%)" stroke-width="5.0e-3" stroke-opacity="1.0"><polyline points="-0.26089194780394653,0.17347974510696407
0.3658426161680458,0.40099453800637236"/></g><g fill="none" stroke="rgb(-7%, 49%, 64%)" stroke-width="5.0e-3" stroke-opacity="1.0"><polyline points="-0.24783497772119661,0.16472917614929455
0.35278564608529595,0.40099453800637236"/></g><g fill="none" stroke="rgb(-6%, 48%, 63%)" stroke-width="5.0e-3" stroke-opacity="1.0"><polyline points="-0.2347780076384468,0.15597860719162498
0.3397286760025463,0.40099453800637236"/></g><g fill="none" stroke="rgb(-6%, 47%, 63%)" stroke-width="5.0e-3" stroke-opacity="1.0"><polyline points="-0.221721037555697,0.14722803823395547
0.32667170591979633,0.40099453800637236"/></g><g fill="none" stroke="rgb(-6%, 46%, 62%)" stroke-width="5.0e-3" stroke-opacity="1.0"><polyline points="-0.2086640674729472,0.1384774692762859
0.31361473583704647,0.40099453800637236"/></g><g fill="none" stroke="rgb(-5%, 45%, 61%)" stroke-width="5.0e-3" stroke-opacity="1.0"><polyline points="-0.19560709739019733,0.12972690031861633
0.3005577657542968,0.40099453800637236"/></g><g fill="none" stroke="rgb(-5%, 44%, 61%)" stroke-width="5.0e-3" stroke-opacity="1.0"><polyline points="-0.18255012730744752,0.12097633136094676
0.28750079567154685,0.40099453800637236"/></g><g fill="none" stroke="rgb(-4%, 44%, 60%)" stroke-width="5.0e-3" stroke-opacity="1.0"><polyline points="-0.16949315722469765,0.1122257624032772
0.2744438255887971,0.40099453800637236"/></g><g fill="none" stroke="rgb(-4%, 43%, 59%)" stroke-width="5.0e-3" stroke-opacity="1.0"><polyline points="-0.15643618714194785,0.10347519344560768
0.2613868555060471,0.40099453800637236"/></g><g fill="none" stroke="rgb(-4%, 42%, 59%)" stroke-width="5.0e-3" stroke-opacity="1.0"><polyline points="-0.14337921705919798,9.472462448793811e-2
0.24832988542329737,0.40099453800637236"/></g><g fill="none" stroke="rgb(-3%, 41%, 58%)" stroke-width="5.0e-3" stroke-opacity="1.0"><polyline points="-0.130322246976448,8.59740555302686e-2
0.2352729153405474,0.40099453800637236"/></g><g fill="none" stroke="rgb(-3%, 40%, 57%)" stroke-width="5.0e-3" stroke-opacity="1.0"><polyline points="-0.11726527689369837,7.722348657259903e-2
0.22221594525779775,0.40099453800637236"/></g><g fill="none" stroke="rgb(-2%, 39%, 56%)" stroke-width="5.0e-3" stroke-opacity="1.0"><polyline points="-0.10420830681094839,6.847291761492946e-2
0.20915897517504778,0.40099453800637236"/></g><g fill="none" stroke="rgb(-2%, 38%, 56%)" stroke-width="5.0e-3" stroke-opacity="1.0"><polyline points="-9.115133672819864e-2,5.9722348657259894e-2
0.19610200509229792,0.40099453800637236"/></g><g fill="none" stroke="rgb(-2%, 38%, 55%)" stroke-width="5.0e-3" stroke-opacity="1.0"><polyline points="-7.809436664544867e-2,5.097177969959038e-2
0.18304503500954794,0.40099453800637236"/></g><g fill="none" stroke="rgb(-1%, 37%, 54%)" stroke-width="5.0e-3" stroke-opacity="1.0"><polyline points="-6.503739656269891e-2,4.222121074192081e-2
0.1699880649267983,0.40099453800637236"/></g><g fill="none" stroke="rgb(-1%, 36%, 54%)" stroke-width="5.0e-3" stroke-opacity="1.0"><polyline points="-5.198042647994905e-2,3.34706417842513e-2
0.15693109484404832,0.40099453800637236"/></g><g fill="none" stroke="rgb(-0%, 35%, 53%)" stroke-width="5.0e-3" stroke-opacity="1.0"><polyline points="-3.8923456397199185e-2,2.472007282658173e-2
0.14387412476129868,0.40099453800637236"/></g><g fill="none" stroke="rgb(0%, 34%, 52%)" stroke-width="5.0e-3" stroke-opacity="1.0"><polyline points="-2.5866486314449322e-2,1.596950386891216e-2
0.1308171546785487,0.40099453800637236"/></g><g fill="none" stroke="rgb(0%, 33%, 51%)" stroke-width="5.0e-3" stroke-opacity="1.0"><polyline points="-1.2809516231699458e-2,7.218934911242592e-3
0.11776018459579896,0.40099453800637236"/></g><g fill="none" stroke="rgb(1%, 33%, 51%)" stroke-width="5.0e-3" stroke-opacity="1.0"><polyline points="2.474538510502944e-4,-1.5316340464269773e-3
0.10470321451304909,0.40099453800637236"/></g><g fill="none" stroke="rgb(1%, 32%, 50%)" stroke-width="5.0e-3" stroke-opacity="1.0"><polyline points="1.3304423933800269e-2,-1.028220300409649e-2
9.164624443029934e-2,0.40099453800637236"/></g><g fill="none" stroke="rgb(1%, 31%, 49%)" stroke-width="5.0e-3" stroke-opacity="1.0"><polyline points="2.636139401654991e-2,-1.9032771961766004e-2
7.858927434754936e-2,0.40099453800637236"/></g><g fill="none" stroke="rgb(2%, 30%, 48%)" stroke-width="5.0e-3" stroke-opacity="1.0"><polyline points="3.9418364099299774e-2,-2.7783340919435462e-2
6.55323042647995e-2,0.40099453800637236"/></g><g fill="none" stroke="rgb(2%, 29%, 48%)" stroke-width="5.0e-3" stroke-opacity="1.0"><polyline points="5.247533418204975e-2,-3.653390987710514e-2
5.247533418204975e-2,0.40099453800637236"/></g><g fill="none" stroke="rgb(2%, 30%, 48%)" stroke-width="5.0e-3" stroke-opacity="1.0"><polyline points="6.55323042647995e-2,-4.52844788347746e-2
3.9418364099299774e-2,0.40099453800637236"/></g><g fill="none" stroke="rgb(1%, 31%, 49%)" stroke-width="5.0e-3" stroke-opacity="1.0"><polyline points="7.858927434754936e-2,-5.403504779244417e-2
2.636139401654991e-2,0.40099453800637236"/></g><g fill="none" stroke="rgb(1%, 32%, 50%)" stroke-width="5.0e-3" stroke-opacity="1.0"><polyline points="9.164624443029934e-2,-6.278561675011374e-2
1.3304423933800269e-2,0.40099453800637236"/></g><g fill="none" stroke="rgb(1%, 33%, 51%)" stroke-width="5.0e-3" stroke-opacity="1.0"><polyline points="0.10470321451304909,-7.15361857077833e-2
2.474538510502944e-4,0.40099453800637236"/></g><g fill="none" stroke="rgb(0%, 33%, 51%)" stroke-width="5.0e-3" stroke-opacity="1.0"><polyline points="0.11776018459579896,-8.028675466545288e-2
-1.2809516231699458e-2,0.40099453800637236"/></g><g fill="none" stroke="rgb(0%, 34%, 52%)" stroke-width="5.0e-3" stroke-opacity="1.0"><polyline points="0.1308171546785487,-8.903732362312244e-2
-2.5866486314449322e-2,0.40099453800637236"/></g><g fill="none" stroke="rgb(-0%, 35%, 53%)" stroke-width="5.0e-3" stroke-opacity="1.0"><polyline points="0.14387412476129868,-9.778789258079201e-2
-3.8923456397199185e-2,0.40099453800637236"/></g><g fill="none" stroke="rgb(-1%, 36%, 54%)" stroke-width="5.0e-3" stroke-opacity="1.0"><polyline points="0.15693109484404832,-0.10653846153846147
-5.198042647994905e-2,0.40099453800637236"/></g><g fill="none" stroke="rgb(-1%, 37%, 54%)" stroke-width="5.0e-3" stroke-opacity="1.0"><polyline points="0.1699880649267983,-0.11528903049613104
-6.503739656269891e-2,0.40099453800637236"/></g><g fill="none" stroke="rgb(-2%, 38%, 55%)" stroke-width="5.0e-3" stroke-opacity="1.0"><polyline points="0.18304503500954794,-0.12403959945380061
-7.809436664544867e-2,0.40099453800637236"/></g><g fill="none" stroke="rgb(-2%, 38%, 56%)" stroke-width="5.0e-3" stroke-opacity="1.0"><polyline points="0.19610200509229792,-0.13279016841147007
-9.115133672819864e-2,0.40099453800637236"/></g><g fill="none" stroke="rgb(-2%, 39%, 56%)" stroke-width="5.0e-3" stroke-opacity="1.0"><polyline points="0.20915897517504778,-0.14154073736913975
-0.10420830681094839,0.40099453800637236"/></g><g fill="none" stroke="rgb(-3%, 40%, 57%)" stroke-width="5.0e-3" stroke-opacity="1.0"><polyline points="0.22221594525779775,-0.1502913063268092
-0.11726527689369837,0.40099453800637236"/></g><g fill="none" stroke="rgb(-3%, 41%, 58%)" stroke-width="5.0e-3" stroke-opacity="1.0"><polyline points="0.2352729153405474,-0.15904187528447877
-0.130322246976448,0.40099453800637236"/></g><g fill="none" stroke="rgb(-4%, 42%, 59%)" stroke-width="5.0e-3" stroke-opacity="1.0"><polyline points="0.24832988542329737,-0.16779244424214834
-0.14337921705919798,0.40099453800637236"/></g><g fill="none" stroke="rgb(-4%, 43%, 59%)" stroke-width="5.0e-3" stroke-opacity="1.0"><polyline points="0.2613868555060471,-0.1765430131998179
-0.15643618714194785,0.40099453800637236"/></g><g fill="none" stroke="rgb(-4%, 44%, 60%)" stroke-width="5.0e-3" stroke-opacity="1.0"><polyline points="0.2744438255887971,-0.18529358215748748
-0.16949315722469765,0.40099453800637236"/></g><g fill="none" stroke="rgb(-5%, 44%, 61%)" stroke-width="5.0e-3" stroke-opacity="1.0"><polyline points="0.28750079567154685,-0.19404415111515694
-0.18255012730744752,0.40099453800637236"/></g><g fill="none" stroke="rgb(-5%, 45%, 61%)" stroke-width="5.0e-3" stroke-opacity="1.0"><polyline points="0.3005577657542968,-0.20279472007282662
-0.19560709739019733,0.40099453800637236"/></g><g fill="none" stroke="rgb(-6%, 46%, 62%)" stroke-width="5.0e-3" stroke-opacity="1.0"><polyline points="0.31361473583704647,-0.21154528903049608
-0.2086640674729472,0.40099453800637236"/></g><g fill="none" stroke="rgb(-6%, 47%, 63%)" stroke-width="5.0e-3" stroke-opacity="1.0"><polyline points="0.32667170591979633,-0.22029585798816564
-0.221721037555697,0.40099453800637236"/></g><g fill="none" stroke="rgb(-6%, 48%, 63%)" stroke-width="5.0e-3" stroke-opacity="1.0"><polyline points="0.3397286760025463,-0.2290464269458351
-0.2347780076384468,0.40099453800637236"/></g><g fill="none" stroke="rgb(-7%, 49%, 64%)" stroke-width="5.0e-3" stroke-opacity="1.0"><polyline points="0.35278564608529595,-0.23779699590350478
-0.24783497772119661,0.40099453800637236"/></g><g fill="none" stroke="rgb(-7%, 50%, 65%)" stroke-width="5.0e-3" stroke-opacity="1.0"><polyline points="0.3658426161680458,-0.24654756486117424
-0.26089194780394653,0.40099453800637236"/></g><g fill="none" stroke="rgb(-7%, 50%, 65%)" stroke-width="5.0e-3" stroke-opacity="1.0"><polyline points="0.3788995862507957,-0.2552981338188438
-0.27394891788669634,0.40099453800637236"/></g><g fill="none" stroke="rgb(-8%, 51%, 66%)" stroke-width="5.0e-3" stroke-opacity="1.0"><polyline points="0.39195655633354576,-0.2640487027765134
-0.2870058879694462,0.40099453800637236"/></g><g fill="none" stroke="rgb(-8%, 52%, 67%)" stroke-width="5.0e-3" stroke-opacity="1.0"><polyline points="0.4050135264162954,-0.27279927173418295
-0.300062858052196,0.40099453800637236"/></g><g fill="none" stroke="rgb(-8%, 53%, 67%)" stroke-width="5.0e-3" stroke-opacity="1.0"><polyline points="0.41807049649904504,-0.2815498406918525
-0.31311982813494593,0.40099453800637236"/></g><g fill="none" stroke="rgb(-8%, 54%, 68%)" stroke-width="5.0e-3" stroke-opacity="1.0"><polyline points="0.4311274665817951,-0.2903004096495221
-0.32617679821769574,0.40099453800637236"/></g><g fill="none" stroke="rgb(-8%, 55%, 68%)" stroke-width="5.0e-3" stroke-opacity="1.0"><polyline points="0.444184436664545,-0.29905097860719165
-0.33923376830044555,0.40099453800637236"/></g><g fill="none" stroke="rgb(-9%, 56%, 69%)" stroke-width="5.0e-3" stroke-opacity="1.0"><polyline points="0.45724140674729485,-0.3078015475648611
-0.35229073838319536,0.40099453800637236"/></g><g fill="none" stroke="rgb(-9%, 57%, 70%)" stroke-width="5.0e-3" stroke-opacity="1.0"><polyline points="0.4702983768300445,-0.3165521165225307
-0.3653477084659453,0.40099453800637236"/></g><g fill="none" stroke="rgb(-9%, 57%, 70%)" stroke-width="5.0e-3" stroke-opacity="1.0"><polyline points="0.4833553469127946,-0.32530268548020025
-0.3784046785486951,0.40099453800637236"/></g><g fill="none" stroke="rgb(-9%, 58%, 71%)" stroke-width="5.0e-3" stroke-opacity="1.0"><polyline points="0.4964123169955442,-0.3340532544378697
-0.39146164863144495,0.40099453800637236"/></g><g fill="none" stroke="rgb(-9%, 59%, 71%)" stroke-width="5.0e-3" stroke-opacity="1.0"><polyline points="0.5094692870782941,-0.3428038233955393
-0.4045186187141948,0.40099453800637236"/></g><g fill="none" stroke="rgb(-9%, 60%, 72%)" stroke-width="5.0e-3" stroke-opacity="1.0"><polyline points="0.5225262571610442,-0.35155439235320884
-0.4175755887969447,0.40099453800637236"/></g><g fill="none" stroke="rgb(-8%, 61%, 73%)" stroke-width="5.0e-3" stroke-opacity="1.0"><polyline points="0.5355832272437938,-0.3603049613108784
-0.4306325588796944,0.40099453800637236"/></g><g fill="none" stroke="rgb(-8%, 62%, 73%)" stroke-width="5.0e-3" stroke-opacity="1.0"><polyline points="0.5486401973265437,-0.369055530268548
-0.4436895289624444,0.40099453800637236"/></g><g fill="none" stroke="rgb(-8%, 63%, 74%)" stroke-width="5.0e-3" stroke-opacity="1.0"><polyline points="0.5616971674092935,-0.37780609922621744
-0.45674649904519415,0.40099453800637236"/></g><g fill="none" stroke="rgb(-8%, 64%, 74%)" stroke-width="5.0e-3" stroke-opacity="1.0"><polyline points="0.5747541374920434,-0.3865566681838871
-0.46980346912794396,0.40099453800637236"/></g><g fill="none" stroke="rgb(-7%, 65%, 75%)" stroke-width="5.0e-3" stroke-opacity="1.0"><polyline points="0.587811107574793,-0.3953072371415566
-0.4828604392106939,0.40099453800637236"/></g><g fill="none" stroke="rgb(-6%, 66%, 75%)" stroke-width="5.0e-3" stroke-opacity="1.0"><polyline points="0.6008680776575431,-0.40405780609922626
-0.4959174092934437,0.40099453800637236"/></g><g fill="none" stroke="rgb(-6%, 66%, 76%)" stroke-width="5.0e-3" stroke-opacity="1.0"><polyline points="0.613925047740293,-0.4128083750568957
-0.5089743793761936,0.40099453800637236"/></g><g fill="none" stroke="rgb(-5%, 67%, 77%)" stroke-width="5.0e-3" stroke-opacity="1.0"><polyline points="0.6269820178230429,-0.4215589440145654
-0.5220313494589434,0.40099453800637236"/></g><g fill="none" stroke="rgb(-4%, 68%, 77%)" stroke-width="5.0e-3" stroke-opacity="1.0"><polyline points="0.6400389879057927,-0.43030951297223485
-0.5350883195416932,0.40099453800637236"/></g><g fill="none" stroke="rgb(-3%, 69%, 78%)" stroke-width="5.0e-3" stroke-opacity="1.0"><polyline points="0.6530959579885424,-0.4390600819299044
-0.548145289624443,0.40099453800637236"/></g><g fill="none" stroke="rgb(-2%, 70%, 78%)" stroke-width="5.0e-3" stroke-opacity="1.0"><polyline points="0.6661529280712922,-0.44781065088757377
-0.5612022597071928,0.40099453800637236"/></g><g fill="none" stroke="rgb(-1%, 71%, 79%)" stroke-width="5.0e-3" stroke-opacity="1.0"><polyline points="0.6792098981540421,-0.45656121984524345
-0.5742592297899427,0.40099453800637236"/></g><g fill="none" stroke="rgb(0%, 72%, 79%)" stroke-width="5.0e-3" stroke-opacity="1.0"><polyline points="0.6922668682367917,-0.4653117888029129
-0.5873161998726926,0.40099453800637236"/></g><g fill="none" stroke="rgb(2%, 73%, 80%)" stroke-width="5.0e-3" stroke-opacity="1.0"><polyline points="0.7053238383195416,-0.4740623577605826
-0.6003731699554424,0.40099453800637236"/></g></g></g><g class="hud"><g class="frame"><g fill="rgb(100%, 100%, 100%)" stroke="rgb(0%, 0%, 0%)" stroke-width="0.0" fill-opacity="2.0e-2" stroke-opacity="0.0"><rect x="-0.6025493316359006" width="1.3100493316359005" y="-0.47624999999999995" height="0.8794321802457896"/></g></g><g class="axis"><g class="ticks"><g class="tickglyph"><g fill="rgb(5%, 5%, 5%)" stroke="rgb(5%, 5%, 5%)" stroke-width="4.0e-3" fill-opacity="0.4" stroke-opacity="0.4"><g transform="rotate(-90.0, -0.6286632718014004, 0.40099453800637236)"><polyline points="-0.6286632718014004,0.41599453800637237
-0.6286632718014004,0.38599453800637235"/></g><g transform="rotate(-90.0, -0.6286632718014004, 0.31348884842967684)"><polyline points="-0.6286632718014004,0.32848884842967685
-0.6286632718014004,0.2984888484296768"/></g><g transform="rotate(-90.0, -0.6286632718014004, 0.22598315885298137)"><polyline points="-0.6286632718014004,0.24098315885298138
-0.6286632718014004,0.21098315885298136"/></g><g transform="rotate(-90.0, -0.6286632718014004, 0.13847746927628585)"><polyline points="-0.6286632718014004,0.15347746927628586
-0.6286632718014004,0.12347746927628585"/></g><g transform="rotate(-90.0, -0.6286632718014004, 5.097177969959038e-2)"><polyline points="-0.6286632718014004,6.597177969959038e-2
-0.6286632718014004,3.597177969959038e-2"/></g><g transform="rotate(-90.0, -0.6286632718014004, -3.653390987710514e-2)"><polyline points="-0.6286632718014004,-2.1533909877105142e-2
-0.6286632718014004,-5.153390987710514e-2"/></g><g transform="rotate(-90.0, -0.6286632718014004, -0.12403959945380072)"><polyline points="-0.6286632718014004,-0.10903959945380072
-0.6286632718014004,-0.13903959945380073"/></g><g transform="rotate(-90.0, -0.6286632718014004, -0.21154528903049608)"><polyline points="-0.6286632718014004,-0.19654528903049606
-0.6286632718014004,-0.2265452890304961"/></g><g transform="rotate(-90.0, -0.6286632718014004, -0.29905097860719165)"><polyline points="-0.6286632718014004,-0.28405097860719164
-0.6286632718014004,-0.31405097860719167"/></g><g transform="rotate(-90.0, -0.6286632718014004, -0.3865566681838871)"><polyline points="-0.6286632718014004,-0.3715566681838871
-0.6286632718014004,-0.40155666818388713"/></g><g transform="rotate(-90.0, -0.6286632718014004, -0.4740623577605826)"><polyline points="-0.6286632718014004,-0.4590623577605826
-0.6286632718014004,-0.4890623577605826"/></g></g></g><g class="ticktext"><g fill="rgb(5%, 5%, 5%)" stroke="none" stroke-width="0.0" font-size="4.3523233609166136e-2" fill-opacity="1.0" text-anchor="end"><text x="-0.66" y="0.41302657032316803">0.00</text><text x="-0.66" y="0.3255208807464725">0.10</text><text x="-0.66" y="0.23801519116977699">0.20</text><text x="-0.66" y="0.15050950159308152">0.30</text><text x="-0.66" y="6.3003812016386e-2">0.40</text><text x="-0.66" y="-2.4501877560309526e-2">0.50</text><text x="-0.66" y="-0.11200756713700499">0.60</text><text x="-0.66" y="-0.19951325671370046">0.70</text><text x="-0.66" y="-0.2870189462903959">0.80</text><text x="-0.66" y="-0.3745246358670915">0.90</text><text x="-0.66" y="-0.46203032544378686">1.00</text></g></g><g class="ticklines"><g fill="none" stroke="rgb(5%, 5%, 5%)" stroke-width="5.0e-3" stroke-opacity="5.0e-2"><polyline points="-0.6003731699554424,0.40099453800637236
0.7053238383195416,0.40099453800637236"/><polyline points="-0.6003731699554424,0.31348884842967684
0.7053238383195416,0.31348884842967684"/><polyline points="-0.6003731699554424,0.22598315885298137
0.7053238383195416,0.22598315885298137"/><polyline points="-0.6003731699554424,0.13847746927628585
0.7053238383195416,0.13847746927628585"/><polyline points="-0.6003731699554424,5.097177969959038e-2
0.7053238383195416,5.097177969959038e-2"/><polyline points="-0.6003731699554424,-3.653390987710514e-2
0.7053238383195416,-3.653390987710514e-2"/><polyline points="-0.6003731699554424,-0.12403959945380072
0.7053238383195416,-0.12403959945380072"/><polyline points="-0.6003731699554424,-0.21154528903049608
0.7053238383195416,-0.21154528903049608"/><polyline points="-0.6003731699554424,-0.29905097860719165
0.7053238383195416,-0.29905097860719165"/><polyline points="-0.6003731699554424,-0.3865566681838871
0.7053238383195416,-0.3865566681838871"/><polyline points="-0.6003731699554424,-0.4740623577605826
0.7053238383195416,-0.4740623577605826"/></g></g></g><g class="axisbar"><g fill="rgb(5%, 5%, 5%)" stroke="rgb(0%, 0%, 0%)" stroke-width="0.0" fill-opacity="0.4" stroke-opacity="0.0"><rect x="-0.6147358370464672" width="3.481858688733297e-3" y="-0.47581247155211637" height="0.8785571233500227"/></g></g></g><g class="axis"><g class="ticks"><g class="tickglyph"><g fill="rgb(5%, 5%, 5%)" stroke="rgb(5%, 5%, 5%)" stroke-width="4.0e-3" fill-opacity="0.4" stroke-opacity="0.4"><polyline points="-0.6003731699554424,0.4444338871187984
-0.6003731699554424,0.41443388711879836"/><polyline points="-0.46980346912794396,0.4444338871187984
-0.46980346912794396,0.41443388711879836"/><polyline points="-0.33923376830044555,0.4444338871187984
-0.33923376830044555,0.41443388711879836"/><polyline points="-0.20866406747294713,0.4444338871187984
-0.20866406747294713,0.41443388711879836"/><polyline points="-7.809436664544867e-2,0.4444338871187984
-7.809436664544867e-2,0.41443388711879836"/><polyline points="5.247533418204975e-2,0.4444338871187984
5.247533418204975e-2,0.41443388711879836"/><polyline points="0.18304503500954827,0.4444338871187984
0.18304503500954827,0.41443388711879836"/><polyline points="0.31361473583704647,0.4444338871187984
0.31361473583704647,0.41443388711879836"/><polyline points="0.444184436664545,0.4444338871187984
0.444184436664545,0.41443388711879836"/><polyline points="0.5747541374920434,0.4444338871187984
0.5747541374920434,0.41443388711879836"/><polyline points="0.7053238383195416,0.4444338871187984
0.7053238383195416,0.41443388711879836"/></g></g><g class="ticktext"><g fill="rgb(5%, 5%, 5%)" stroke="none" stroke-width="0.0" font-size="4.3523233609166136e-2" fill-opacity="1.0" text-anchor="middle"><text x="-0.6003731699554424" y="0.485">0.00</text><text x="-0.46980346912794396" y="0.485">0.10</text><text x="-0.33923376830044555" y="0.485">0.20</text><text x="-0.20866406747294713" y="0.485">0.30</text><text x="-7.809436664544867e-2" y="0.485">0.40</text><text x="5.247533418204975e-2" y="0.485">0.50</text><text x="0.18304503500954827" y="0.485">0.60</text><text x="0.31361473583704647" y="0.485">0.70</text><text x="0.444184436664545" y="0.485">0.80</text><text x="0.5747541374920434" y="0.485">0.90</text><text x="0.7053238383195416" y="0.485">1.00</text></g></g><g class="ticklines"><g fill="none" stroke="rgb(5%, 5%, 5%)" stroke-width="5.0e-3" stroke-opacity="5.0e-2"><polyline points="-0.6003731699554424,0.40099453800637236
-0.6003731699554424,-0.4740623577605826"/><polyline points="-0.46980346912794396,0.40099453800637236
-0.46980346912794396,-0.4740623577605826"/><polyline points="-0.33923376830044555,0.40099453800637236
-0.33923376830044555,-0.4740623577605826"/><polyline points="-0.20866406747294713,0.40099453800637236
-0.20866406747294713,-0.4740623577605826"/><polyline points="-7.809436664544867e-2,0.40099453800637236
-7.809436664544867e-2,-0.4740623577605826"/><polyline points="5.247533418204975e-2,0.40099453800637236
5.247533418204975e-2,-0.4740623577605826"/><polyline points="0.18304503500954827,0.40099453800637236
0.18304503500954827,-0.4740623577605826"/><polyline points="0.31361473583704647,0.40099453800637236
0.31361473583704647,-0.4740623577605826"/><polyline points="0.444184436664545,0.40099453800637236
0.444184436664545,-0.4740623577605826"/><polyline points="0.5747541374920434,0.40099453800637236
0.5747541374920434,-0.4740623577605826"/><polyline points="0.7053238383195416,0.40099453800637236
0.7053238383195416,-0.4740623577605826"/></g></g></g><g class="axisbar"><g fill="rgb(5%, 5%, 5%)" stroke="rgb(0%, 0%, 0%)" stroke-width="0.0" fill-opacity="0.4" stroke-opacity="0.0"><rect x="-0.6021140992998091" width="1.3091788669637174" y="0.41193274920345924" height="3.5002275830678387e-3"/></g></g></g></g></svg>