<svg width="270.73936174755113" xmlns:xlink="http://www.w3.org/1999/xlink" xmlns="http://www.w3.org/2000/svg" viewBox="-0.633575 -1.732683333333334 1.761325 1.951683333333334" height="300.0"><style>svg {
  color-scheme: light dark;
}
@media (prefers-color-scheme:dark) {
  svg {
    background-color: #f0f0f0;
  }
}</style><g stroke-opacity="0.0" fill="#ffffff" stroke="#000000" stroke-width="0.0" fill-opacity="2.0e-2"><rect width="1.3548333333333331" x="-0.3383333333333334" y="-1.5050000000000001" height="1.5215"/></g><g stroke-opacity="0.3" fill="#1f78b5" stroke="#33cc66" stroke-width="1.0e-2" fill-opacity="0.1"><path d="M 0,0 L 1.0000,0 C 0.2000,0 0.25,-1.0000 1.0000,-1.0000 Q -1.0,-2.0 0,-1.0000 A 1.0 0.9999999999999999 30.0 0 0 0,0"/></g><g stroke-opacity="1.0" fill="#a6cfe3" stroke="#1f78b5" stroke-width="3.0e-3" fill-opacity="1.0"><rect width="3.0e-2" x="-1.5e-2" y="-1.5e-2" height="3.0e-2"/><rect width="3.0000000000000027e-2" x="0.9849999999999999" y="-1.5e-2" height="3.0e-2"/><rect width="3.0000000000000027e-2" x="0.9849999999999999" y="-1.0150000000000001" height="2.9999999999999916e-2"/><rect width="3.0e-2" x="-1.5e-2" y="-1.0150000000000001" height="2.9999999999999916e-2"/><rect width="3.0e-2" x="-1.5e-2" y="-1.5e-2" height="3.0e-2"/></g><g stroke-opacity="0.0" fill="#0d0d0d" stroke="#000000" stroke-width="0.0" fill-opacity="0.4"><rect width="1.426575" x="-0.408075" y="2.6500000000000003e-2" height="4.0000000000000036e-3"/></g><g stroke-opacity="0.4" fill="#0d0d0d" stroke="#0d0d0d" stroke-width="4.0e-3" fill-opacity="0.4"><polyline points="-0.406075,6.15e-2
-0.406075,3.15e-2"/><polyline points="-0.20285,6.15e-2
-0.20285,3.15e-2"/><polyline points="3.750000000000142e-4,6.15e-2
3.750000000000142e-4,3.15e-2"/><polyline points="0.20360000000000006,6.15e-2
0.20360000000000006,3.15e-2"/><polyline points="0.40682500000000005,6.15e-2
0.40682500000000005,3.15e-2"/><polyline points="0.61005,6.15e-2
0.61005,3.15e-2"/><polyline points="0.8132750000000002,6.15e-2
0.8132750000000002,3.15e-2"/><polyline points="1.0165,6.15e-2
1.0165,3.15e-2"/></g><g fill="#0d0d0d" stroke="none" stroke-width="0.0" font-size="5.0e-2" fill-opacity="1.0" text-anchor="middle"><text x="-0.406075" y="0.10400000000000001">-0.4</text><text x="-0.20285" y="0.10400000000000001">-0.2</text><text x="3.750000000000142e-4" y="0.10400000000000001">0</text><text x="0.20360000000000006" y="0.10400000000000001">0.2</text><text x="0.40682500000000005" y="0.10400000000000001">0.4</text><text x="0.61005" y="0.10400000000000001">0.6</text><text x="0.8132750000000002" y="0.10400000000000001">0.8</text><text x="1.0165" y="0.10400000000000001">1</text></g><g stroke-opacity="5.0e-2" fill="none" stroke="#0d0d0d" stroke-width="5.0e-3"><polyline points="-0.406075,1.65e-2
-0.406075,-1.505"/><polyline points="-0.20285,1.65e-2
-0.20285,-1.505"/><polyline points="3.750000000000142e-4,1.65e-2
3.750000000000142e-4,-1.505"/><polyline points="0.20360000000000006,1.65e-2
0.20360000000000006,-1.505"/><polyline points="0.40682500000000005,1.65e-2
0.40682500000000005,-1.505"/><polyline points="0.61005,1.65e-2
0.61005,-1.505"/><polyline points="0.8132750000000002,1.65e-2
0.8132750000000002,-1.505"/><polyline points="1.0165,1.65e-2
1.0165,-1.505"/></g><g stroke-opacity="0.0" fill="#0d0d0d" stroke="#000000" stroke-width="0.0" fill-opacity="0.4"><rect width="4.0000000000000036e-3" x="-0.42007500000000003" y="-1.6084333333333338" height="1.6269333333333338"/></g><g stroke-opacity="0.4" fill="#0d0d0d" stroke="#0d0d0d" stroke-width="4.0e-3" fill-opacity="0.4"><g transform="rotate(-90.0, -0.436075, 1.6499999999999553e-2)"><polyline points="-0.436075,3.1499999999999556e-2
-0.436075,1.4999999999995538e-3"/></g><g transform="rotate(-90.0, -0.436075, -0.18636666666666712)"><polyline points="-0.436075,-0.1713666666666671
-0.436075,-0.20136666666666714"/></g><g transform="rotate(-90.0, -0.436075, -0.38923333333333376)"><polyline points="-0.436075,-0.37423333333333375
-0.436075,-0.4042333333333338"/></g><g transform="rotate(-90.0, -0.436075, -0.5921000000000005)"><polyline points="-0.436075,-0.5771000000000005
-0.436075,-0.6071000000000005"/></g><g transform="rotate(-90.0, -0.436075, -0.7949666666666672)"><polyline points="-0.436075,-0.7799666666666671
-0.436075,-0.8099666666666672"/></g><g transform="rotate(-90.0, -0.436075, -0.9978333333333336)"><polyline points="-0.436075,-0.9828333333333336
-0.436075,-1.0128333333333335"/></g><g transform="rotate(-90.0, -0.436075, -1.2007000000000005)"><polyline points="-0.436075,-1.1857000000000006
-0.436075,-1.2157000000000004"/></g><g transform="rotate(-90.0, -0.436075, -1.403566666666667)"><polyline points="-0.436075,-1.3885666666666672
-0.436075,-1.418566666666667"/></g><g transform="rotate(-90.0, -0.436075, -1.6064333333333338)"><polyline points="-0.436075,-1.591433333333334
-0.436075,-1.6214333333333337"/></g></g><g fill="#0d0d0d" stroke="none" stroke-width="0.0" font-size="5.0e-2" fill-opacity="1.0" text-anchor="end"><text x="-0.466075" y="3.0249999999999555e-2">0</text><text x="-0.466075" y="-0.1726166666666671">0.2</text><text x="-0.466075" y="-0.3754833333333338">0.4</text><text x="-0.466075" y="-0.5783500000000005">0.6</text><text x="-0.466075" y="-0.7812166666666671">0.8</text><text x="-0.466075" y="-0.9840833333333335">1</text><text x="-0.466075" y="-1.1869500000000006">1.2</text><text x="-0.466075" y="-1.3898166666666671">1.4</text><text x="-0.466075" y="-1.592683333333334">1.6</text></g><g stroke-opacity="5.0e-2" fill="none" stroke="#0d0d0d" stroke-width="5.0e-3"><polyline points="-0.406075,1.6499999999999553e-2
1.0165,1.6499999999999553e-2"/><polyline points="-0.406075,-0.18636666666666712
1.0165,-0.18636666666666712"/><polyline points="-0.406075,-0.38923333333333376
1.0165,-0.38923333333333376"/><polyline points="-0.406075,-0.5921000000000005
1.0165,-0.5921000000000005"/><polyline points="-0.406075,-0.7949666666666672
1.0165,-0.7949666666666672"/><polyline points="-0.406075,-0.9978333333333336
1.0165,-0.9978333333333336"/><polyline points="-0.406075,-1.2007000000000005
1.0165,-1.2007000000000005"/><polyline points="-0.406075,-1.403566666666667
1.0165,-1.403566666666667"/><polyline points="-0.406075,-1.6064333333333338
1.0165,-1.6064333333333338"/></g></svg>