<svg xmlns="http://www.w3.org/2000/svg" xmlns:xlink="http://www.w3.org/1999/xlink" width="270" height="300" viewBox="-0.5068 -1.5663 1.5468 1.7159"><style>svg {
  color-scheme: light dark;
}
{
  .canvas g, .title g, .axisbar g, .ticktext g, .tickglyph g, .ticklines g, .legendContent g text {
    fill: rgb(5%, 5%, 5%);
  }
  .ticklines g, .tickglyph g, .legendBorder g {
    stroke: rgb(5%, 5%, 5%);
  }
  .legendBorder g {
    fill: rgb(94%, 94%, 94%);
  }
}
@media (prefers-color-scheme:dark) {
  .canvas g, .title g, .axisbar g, .ticktext g, .tickglyph g, .ticklines g, .legendContent g text {
    fill: rgb(94%, 94%, 94%);
  }
  .ticklines g, .tickglyph g, .legendBorder g {
    stroke: rgb(94%, 94%, 94%);
  }
  .legendBorder g {
    fill: rgb(5%, 5%, 5%);
  }
}
{
  .pathtext g {
    fill: rgb(5%, 5%, 5%);
  }
}
@media (prefers-color-scheme:dark) {
  .pathtext g {
    fill: rgb(94%, 94%, 94%);
  }
}
</style><g class="chart"><g class="path"><g stroke-width="0.0100" stroke="rgb(2%, 29%, 48%)" stroke-opacity="1.0" fill="rgb(2%, 73%, 80%)" fill-opacity="0.1"><path d="M 0.1158,-0.0153 L 0.7812,-0.0153 C 0.2489,-0.0153 0.2822,-0.9432 0.7812,-0.9432 Q -0.5496,-1.8712 0.1158,-0.9432 A 0.7398 0.8698 30.0 0 0 0.1158,-0.0153"/></g><g stroke-width="0.0030" stroke="rgb(2%, 29%, 48%)" stroke-opacity="1.0" fill="rgb(2%, 73%, 80%)" fill-opacity="0.2"><rect width="0.0300" height="0.0300" x="0.1008" y="-0.0303"/><rect width="0.0300" height="0.0300" x="0.7662" y="-0.0303"/><rect width="0.0300" height="0.0300" x="0.7662" y="-0.9582"/><rect width="0.0300" height="0.0300" x="0.1008" y="-0.9582"/><rect width="0.0300" height="0.0300" x="0.1008" y="-0.0303"/></g></g><g class="pathtext"><g stroke-width="0.0" stroke="none" fill="rgb(5%, 5%, 5%)" fill-opacity="1.0" font-size="0.0333" text-anchor="middle"><text x="0.1158" y="-0.0617">StartP (Point 0 0)</text><text x="0.4485" y="-0.0153">LineP (Point 1 0)</text><text x="0.6482" y="-0.4793">CubicP (Point 0.2 0) (Point 0.25 1) (Point 1 1)</text><text x="0.3820" y="-1.0360">QuadP (Point (-1) 2) (Point 0 1)</text><text x="0.1158" y="-0.3865">ArcP (ArcInfo (Point 1 1) (-pi / 6) False False) (Point 0 0)</text></g></g></g><g class="hud"><g class="frame"><g stroke-width="0" stroke="rgb(0%, 0%, 0%)" stroke-opacity="0" fill="rgb(100%, 100%, 100%)" fill-opacity="0.02"><rect width="1.3333" height="1.5012" x="-0.3333" y="-1.5"/></g></g><g class="axis"><g class="ticks"><g class="tickglyph"><g stroke-width="0.0040" stroke="rgb(5%, 5%, 5%)" stroke-opacity="0.4" fill="rgb(5%, 5%, 5%)" fill-opacity="0.4"><g transform="rotate(-90.0, -0.3633, -0.0153)"><polyline points="-0.3633,-0.0003
-0.3633,-0.0303"/></g><g transform="rotate(-90.0, -0.3633, -0.2009)"><polyline points="-0.3633,-0.1859
-0.3633,-0.2159"/></g><g transform="rotate(-90.0, -0.3633, -0.3865)"><polyline points="-0.3633,-0.3715
-0.3633,-0.4015"/></g><g transform="rotate(-90.0, -0.3633, -0.5721)"><polyline points="-0.3633,-0.5571
-0.3633,-0.5871"/></g><g transform="rotate(-90.0, -0.3633, -0.7577)"><polyline points="-0.3633,-0.7427
-0.3633,-0.7727"/></g><g transform="rotate(-90.0, -0.3633, -0.9432)"><polyline points="-0.3633,-0.9282
-0.3633,-0.9582"/></g><g transform="rotate(-90.0, -0.3633, -1.1288)"><polyline points="-0.3633,-1.1138
-0.3633,-1.1438"/></g><g transform="rotate(-90.0, -0.3633, -1.3144)"><polyline points="-0.3633,-1.2994
-0.3633,-1.3294"/></g><g transform="rotate(-90.0, -0.3633, -1.5)"><polyline points="-0.3633,-1.485
-0.3633,-1.515"/></g></g></g><g class="ticktext"><g stroke-width="0.0" stroke="none" fill="rgb(5%, 5%, 5%)" fill-opacity="1.0" font-size="0.0500" text-anchor="end"><text x="-0.3993" y="-0.0016">0.0</text><text x="-0.3993" y="-0.1871">0.2</text><text x="-0.3993" y="-0.3727">0.4</text><text x="-0.3993" y="-0.5583">0.6</text><text x="-0.3993" y="-0.7439">0.8</text><text x="-0.3993" y="-0.9295">1.0</text><text x="-0.3993" y="-1.1151">1.2</text><text x="-0.3993" y="-1.3007">1.4</text><text x="-0.3993" y="-1.4862">1.6</text></g></g><g class="ticklines"><g stroke-width="0.0050" stroke="rgb(5%, 5%, 5%)" stroke-opacity="0.05" fill="none"><polyline points="-0.1503,-0.0153 0.7812,-0.0153"/><polyline points="-0.1503,-0.2009 0.7812,-0.2009"/><polyline points="-0.1503,-0.3865 0.7812,-0.3865"/><polyline points="-0.1503,-0.5721 0.7812,-0.5721"/><polyline points="-0.1503,-0.7577 0.7812,-0.7577"/><polyline points="-0.1503,-0.9432 0.7812,-0.9432"/><polyline points="-0.1503,-1.1288 0.7812,-1.1288"/><polyline points="-0.1503,-1.3144 0.7812,-1.3144"/><polyline points="-0.1503,-1.5 0.7812,-1.5"/></g></g></g><g class="axisbar"><g stroke-width="0" stroke="rgb(0%, 0%, 0%)" stroke-opacity="0" fill="rgb(5%, 5%, 5%)" fill-opacity="0.4"><rect width="0.0040" height="1.4887" x="-0.3473" y="-1.502"/></g></g></g><g class="axis"><g class="ticks"><g class="tickglyph"><g stroke-width="0.0040" stroke="rgb(5%, 5%, 5%)" stroke-opacity="0.4" fill="rgb(5%, 5%, 5%)" fill-opacity="0.4"><polyline points="-0.1503,0.0462
-0.1503,0.0162"/><polyline points="-0.0173,0.0462
-0.0173,0.0162"/><polyline points="0.1158,0.0462
0.1158,0.0162"/><polyline points="0.2489,0.0462
0.2489,0.0162"/><polyline points="0.3820,0.0462
0.3820,0.0162"/><polyline points="0.5151,0.0462
0.5151,0.0162"/><polyline points="0.6482,0.0462
0.6482,0.0162"/><polyline points="0.7812,0.0462
0.7812,0.0162"/></g></g><g class="ticktext"><g stroke-width="0.0" stroke="none" fill="rgb(5%, 5%, 5%)" fill-opacity="1.0" font-size="0.0500" text-anchor="middle"><text x="-0.1503" y="0.0947">-0.4</text><text x="-0.0173" y="0.0947">-0.2</text><text x="0.1158" y="0.0947"> 0.0</text><text x="0.2489" y="0.0947"> 0.2</text><text x="0.3820" y="0.0947"> 0.4</text><text x="0.5151" y="0.0947"> 0.6</text><text x="0.6482" y="0.0947"> 0.8</text><text x="0.7812" y="0.0947"> 1.0</text></g></g><g class="ticklines"><g stroke-width="0.0050" stroke="rgb(5%, 5%, 5%)" stroke-opacity="0.05" fill="none"><polyline points="-0.1503,-0.0153 -0.1503,-1.5"/><polyline points="-0.0173,-0.0153 -0.0173,-1.5"/><polyline points="0.1158,-0.0153 0.1158,-1.5"/><polyline points="0.2489,-0.0153 0.2489,-1.5"/><polyline points="0.3820,-0.0153 0.3820,-1.5"/><polyline points="0.5151,-0.0153 0.5151,-1.5"/><polyline points="0.6482,-0.0153 0.6482,-1.5"/><polyline points="0.7812,-0.0153 0.7812,-1.5"/></g></g></g><g class="axisbar"><g stroke-width="0" stroke="rgb(0%, 0%, 0%)" stroke-opacity="0" fill="rgb(5%, 5%, 5%)" fill-opacity="0.4"><rect width="0.9356" height="0.0040" x="-0.1523" y="0.0112"/></g></g></g><g class="frame"><g stroke-width="0" stroke="rgb(0%, 0%, 0%)" stroke-opacity="0" fill="rgb(100%, 100%, 100%)" fill-opacity="0.02"><rect width="1.5468" height="1.7159" x="-0.5068" y="-1.5663"/></g></g></g></svg>