<svg width="262.76213590646955" xmlns:xlink="http://www.w3.org/1999/xlink" xmlns="http://www.w3.org/2000/svg" viewBox="-0.5442562915170016 -0.6110427056477034 1.0745450526471783 1.2268263640119712" height="300.0"><style>svg {
  color-scheme: light dark;
}
@media (prefers-color-scheme:light) {
  svg {
    background-color: #0d0d0d;
  }
}</style><g stroke-opacity="0.0" fill="#f0f0f0" stroke="#000000" stroke-width="0.0" fill-opacity="2.0e-2"><rect width="0.7304772536615791" x="-0.31668849253140247" y="-0.4767725530710407" height="0.8261963740232596"/></g><g stroke-opacity="5.0e-2" fill="none" stroke="#f0f0f0" stroke-width="5.0e-3"><polyline points="-0.31668849253140247,0.3494238209522187
0.4137887611301767,0.3494238209522187"/><polyline points="-0.31668849253140247,0.24614927419931132
0.4137887611301767,0.24614927419931132"/><polyline points="-0.31668849253140247,0.14287472744640384
0.4137887611301767,0.14287472744640384"/><polyline points="-0.31668849253140247,3.960018069349641e-2
0.4137887611301767,3.960018069349641e-2"/><polyline points="-0.31668849253140247,-6.367436605941101e-2
0.4137887611301767,-6.367436605941101e-2"/><polyline points="-0.31668849253140247,-0.16694891281231827
0.4137887611301767,-0.16694891281231827"/><polyline points="-0.31668849253140247,-0.270223459565226
0.4137887611301767,-0.270223459565226"/><polyline points="-0.31668849253140247,-0.37349800631813324
0.4137887611301767,-0.37349800631813324"/><polyline points="-0.31668849253140247,-0.4767725530710407
0.4137887611301767,-0.4767725530710407"/></g><g fill="#f0f0f0" stroke="none" stroke-width="0.0" font-size="5.0e-2" fill-opacity="1.0" text-anchor="end"><text x="-0.36925629151700157" y="0.36140366837555593">0</text><text x="-0.36925629151700157" y="0.25812912162264856">0.2</text><text x="-0.36925629151700157" y="0.15485457486974114">0.4</text><text x="-0.36925629151700157" y="5.1580028116833654e-2">0.6</text><text x="-0.36925629151700157" y="-5.169451863607377e-2">0.8</text><text x="-0.36925629151700157" y="-0.15496906538898114">1</text><text x="-0.36925629151700157" y="-0.2582436121418886">1.2</text><text x="-0.36925629151700157" y="-0.3615181588947959">1.4</text><text x="-0.36925629151700157" y="-0.46479270564770336">1.6</text></g><g stroke-opacity="0.4" fill="#f0f0f0" stroke="#f0f0f0" stroke-width="4.0e-3" fill-opacity="0.4"><g transform="rotate(-90.0, -0.342530575762509, 0.3494238209522187)"><polyline points="-0.342530575762509,0.3644238209522187
-0.342530575762509,0.3344238209522187"/></g><g transform="rotate(-90.0, -0.342530575762509, 0.24614927419931132)"><polyline points="-0.342530575762509,0.26114927419931133
-0.342530575762509,0.2311492741993113"/></g><g transform="rotate(-90.0, -0.342530575762509, 0.14287472744640384)"><polyline points="-0.342530575762509,0.15787472744640385
-0.342530575762509,0.12787472744640382"/></g><g transform="rotate(-90.0, -0.342530575762509, 3.960018069349641e-2)"><polyline points="-0.342530575762509,5.460018069349641e-2
-0.342530575762509,2.4600180693496412e-2"/></g><g transform="rotate(-90.0, -0.342530575762509, -6.367436605941101e-2)"><polyline points="-0.342530575762509,-4.8674366059411014e-2
-0.342530575762509,-7.867436605941101e-2"/></g><g transform="rotate(-90.0, -0.342530575762509, -0.16694891281231827)"><polyline points="-0.342530575762509,-0.15194891281231826
-0.342530575762509,-0.1819489128123183"/></g><g transform="rotate(-90.0, -0.342530575762509, -0.270223459565226)"><polyline points="-0.342530575762509,-0.25522345956522596
-0.342530575762509,-0.285223459565226"/></g><g transform="rotate(-90.0, -0.342530575762509, -0.37349800631813324)"><polyline points="-0.342530575762509,-0.3584980063181332
-0.342530575762509,-0.38849800631813325"/></g><g transform="rotate(-90.0, -0.342530575762509, -0.4767725530710407)"><polyline points="-0.342530575762509,-0.4617725530710407
-0.342530575762509,-0.49177255307104073"/></g></g><g stroke-opacity="0.0" fill="#f0f0f0" stroke="#000000" stroke-width="0.0" fill-opacity="0.4"><rect width="3.3344623524008132e-3" x="-0.3283591107648054" y="-0.478424945819087" height="0.8295011595193524"/></g><g stroke-opacity="5.0e-2" fill="none" stroke="#f0f0f0" stroke-width="5.0e-3"><polyline points="-0.31668849253140247,0.34942382095221886
-0.31668849253140247,-0.4767725530710407"/><polyline points="-0.21233459915117683,0.34942382095221886
-0.21233459915117683,-0.4767725530710407"/><polyline points="-0.10798070577095126,0.34942382095221886
-0.10798070577095126,-0.4767725530710407"/><polyline points="-3.626812390725598e-3,0.34942382095221886
-3.626812390725598e-3,-0.4767725530710407"/><polyline points="0.1007270809895,0.34942382095221886
0.1007270809895,-0.4767725530710407"/><polyline points="0.2050809743697255,0.34942382095221886
0.2050809743697255,-0.4767725530710407"/><polyline points="0.3094348677499512,0.34942382095221886
0.3094348677499512,-0.4767725530710407"/><polyline points="0.4137887611301767,0.34942382095221886
0.4137887611301767,-0.4767725530710407"/></g><g fill="#f0f0f0" stroke="none" stroke-width="0.0" font-size="3.702520985099779e-2" fill-opacity="1.0" text-anchor="end"><text x="-0.31668849253140247" y="0.44967719653901667" transform="rotate(-45.0, -0.31668849253140247, 0.44967719653901667)">-0.4</text><text x="-0.21233459915117683" y="0.44967719653901667" transform="rotate(-45.0, -0.21233459915117683, 0.44967719653901667)">-0.2</text><text x="-0.10798070577095126" y="0.44967719653901667" transform="rotate(-45.0, -0.10798070577095126, 0.44967719653901667)">0</text><text x="-3.626812390725598e-3" y="0.44967719653901667" transform="rotate(-45.0, -3.626812390725598e-3, 0.44967719653901667)">0.2</text><text x="0.1007270809895" y="0.44967719653901667" transform="rotate(-45.0, 0.1007270809895, 0.44967719653901667)">0.4</text><text x="0.2050809743697255" y="0.44967719653901667" transform="rotate(-45.0, 0.2050809743697255, 0.44967719653901667)">0.6</text><text x="0.3094348677499512" y="0.44967719653901667" transform="rotate(-45.0, 0.3094348677499512, 0.44967719653901667)">0.8</text><text x="0.4137887611301767" y="0.44967719653901667" transform="rotate(-45.0, 0.4137887611301767, 0.44967719653901667)">1</text></g><g stroke-opacity="0.4" fill="#f0f0f0" stroke="#f0f0f0" stroke-width="4.0e-3" fill-opacity="0.4"><polyline points="-0.31668849253140247,0.40366814871832357
-0.31668849253140247,0.37366814871832355"/><polyline points="-0.21233459915117683,0.40366814871832357
-0.21233459915117683,0.37366814871832355"/><polyline points="-0.10798070577095126,0.40366814871832357
-0.10798070577095126,0.37366814871832355"/><polyline points="-3.626812390725598e-3,0.40366814871832357
-3.626812390725598e-3,0.37366814871832355"/><polyline points="0.1007270809895,0.40366814871832357
0.1007270809895,0.37366814871832355"/><polyline points="0.2050809743697255,0.40366814871832357
0.2050809743697255,0.37366814871832355"/><polyline points="0.3094348677499512,0.40366814871832357
0.3094348677499512,0.37366814871832355"/><polyline points="0.4137887611301767,0.40366814871832357
0.4137887611301767,0.37366814871832355"/></g><g stroke-opacity="0.0" fill="#f0f0f0" stroke="#000000" stroke-width="0.0" fill-opacity="0.4"><rect width="0.7338117160139799" x="-0.3183557237076029" y="0.3713180248638351" height="3.304785496093088e-3"/></g><g stroke-opacity="0.3" fill="#1f78b5" stroke="#33cc66" stroke-width="1.0e-2" fill-opacity="0.1"><path d="M -0.1080,0.3494 L 0.4138,0.3494 C -0.0036,0.3494 0.0225,-0.1669 0.4138,-0.1669 Q -0.6298,-0.6833 -0.1080,-0.1669 A 0.5204230012115468 0.5177246488072792 30.0 0 0 -0.1080,0.3494"/></g><g stroke-opacity="1.0" fill="#a6cfe3" stroke="#1f78b5" stroke-width="3.0e-3" fill-opacity="1.0"><rect width="3.0e-2" x="-0.12298070577095126" y="0.3344238209522187" height="3.0000000000000027e-2"/><rect width="3.0000000000000027e-2" x="0.3987887611301767" y="0.3344238209522187" height="3.0000000000000027e-2"/><rect width="3.0000000000000027e-2" x="0.3987887611301767" y="-0.1819489128123183" height="3.0000000000000027e-2"/><rect width="3.0e-2" x="-0.12298070577095126" y="-0.1819489128123183" height="3.0000000000000027e-2"/><rect width="3.0e-2" x="-0.12298070577095126" y="0.3344238209522187" height="3.0000000000000027e-2"/></g><g></g></svg>