<svg width="270.7879564381806" xmlns:xlink="http://www.w3.org/1999/xlink" xmlns="http://www.w3.org/2000/svg" viewBox="-0.6335000000000001 -1.7262500000000003 1.7612500000000004 1.9512500000000008" height="300.0"><style>svg {
  color-scheme: light dark;
}
{
  .canvas g, .title g, .axisbar g, .ticktext g, .tickglyph g, .ticklines g, .legendContent g text {
    fill: #0d0d0d;
  }
  .ticklines g, .tickglyph g, .legendBorder g {
    stroke: #0d0d0d;
  }
}
@media (prefers-color-scheme:dark) {
  .canvas g, .title g, .axisbar g, .ticktext g, .tickglyph g, .ticklines g, .legendContent g text {
    fill: #f0f0f0;
  }
  .ticklines g, .tickglyph g, .legendBorder g {
    stroke: #f0f0f0;
  }
}</style><g class="path"><g stroke-opacity="0.3" fill="#1f78b5" stroke="#33cc66" stroke-width="1.0e-2" fill-opacity="0.1"><path d="M 0,0 L 1.0000,0 C 0.2000,0 0.25,-1.0 1.0000,-1.0 Q -1.0,-2.0000 0,-1.0 A 1.0 1.0000000000000002 30.0 0 0 0,0"/></g><g stroke-opacity="1.0" fill="#a6cfe3" stroke="#1f78b5" stroke-width="3.0e-3" fill-opacity="1.0"><rect width="3.0e-2" x="-1.5e-2" y="-1.4999999999999555e-2" height="3.0e-2"/><rect width="3.0000000000000027e-2" x="0.9849999999999999" y="-1.4999999999999555e-2" height="3.0e-2"/><rect width="3.0000000000000027e-2" x="0.9849999999999999" y="-1.015" height="2.9999999999999916e-2"/><rect width="3.0e-2" x="-1.5e-2" y="-1.015" height="2.9999999999999916e-2"/><rect width="3.0e-2" x="-1.5e-2" y="-1.4999999999999555e-2" height="3.0e-2"/></g></g><g class="hud"><g class="canvas"><g stroke-opacity="0.0" fill="#ffffff" stroke="#000000" stroke-width="0.0" fill-opacity="2.0e-2"><rect width="1.4165" x="-0.4" y="-1.6" height="1.6165000000000005"/></g></g><g class="axis"><g class="ticks"><g class="tickglyph"><g stroke-opacity="0.4" fill="#0d0d0d" stroke="#0d0d0d" stroke-width="4.0e-3" fill-opacity="0.4"><g transform="rotate(-90.0, -0.43000000000000005, 1.6500000000000445e-2)"><polyline points="-0.43000000000000005,3.1500000000000444e-2
-0.43000000000000005,1.5000000000004454e-3"/></g><g transform="rotate(-90.0, -0.43000000000000005, -0.18556249999999963)"><polyline points="-0.43000000000000005,-0.17056249999999962
-0.43000000000000005,-0.20056249999999964"/></g><g transform="rotate(-90.0, -0.43000000000000005, -0.38762499999999966)"><polyline points="-0.43000000000000005,-0.37262499999999965
-0.43000000000000005,-0.4026249999999997"/></g><g transform="rotate(-90.0, -0.43000000000000005, -0.5896874999999999)"><polyline points="-0.43000000000000005,-0.5746874999999999
-0.43000000000000005,-0.6046874999999999"/></g><g transform="rotate(-90.0, -0.43000000000000005, -0.7917499999999998)"><polyline points="-0.43000000000000005,-0.7767499999999998
-0.43000000000000005,-0.8067499999999999"/></g><g transform="rotate(-90.0, -0.43000000000000005, -0.9938125)"><polyline points="-0.43000000000000005,-0.9788125
-0.43000000000000005,-1.0088125"/></g><g transform="rotate(-90.0, -0.43000000000000005, -1.1958750000000002)"><polyline points="-0.43000000000000005,-1.1808750000000003
-0.43000000000000005,-1.2108750000000001"/></g><g transform="rotate(-90.0, -0.43000000000000005, -1.3979375000000003)"><polyline points="-0.43000000000000005,-1.3829375000000004
-0.43000000000000005,-1.4129375000000002"/></g><g transform="rotate(-90.0, -0.43000000000000005, -1.6)"><polyline points="-0.43000000000000005,-1.5850000000000002
-0.43000000000000005,-1.615"/></g></g></g><g class="ticktext"><g fill="#0d0d0d" stroke="none" stroke-width="0.0" font-size="5.0e-2" fill-opacity="1.0" text-anchor="end"><text x="-0.4660000000000001" y="3.0250000000000447e-2">0</text><text x="-0.4660000000000001" y="-0.17181249999999962">0.2</text><text x="-0.4660000000000001" y="-0.3738749999999997">0.4</text><text x="-0.4660000000000001" y="-0.5759374999999999">0.6</text><text x="-0.4660000000000001" y="-0.7779999999999998">0.8</text><text x="-0.4660000000000001" y="-0.9800625">1</text><text x="-0.4660000000000001" y="-1.1821250000000003">1.2</text><text x="-0.4660000000000001" y="-1.3841875000000003">1.4</text><text x="-0.4660000000000001" y="-1.5862500000000002">1.6</text></g></g><g class="ticklines"><g stroke-opacity="5.0e-2" fill="none" stroke="#0d0d0d" stroke-width="5.0e-3"><polyline points="-0.4,1.6500000000000445e-2
1.0165,1.6500000000000445e-2"/><polyline points="-0.4,-0.18556249999999963
1.0165,-0.18556249999999963"/><polyline points="-0.4,-0.38762499999999966
1.0165,-0.38762499999999966"/><polyline points="-0.4,-0.5896874999999999
1.0165,-0.5896874999999999"/><polyline points="-0.4,-0.7917499999999998
1.0165,-0.7917499999999998"/><polyline points="-0.4,-0.9938125
1.0165,-0.9938125"/><polyline points="-0.4,-1.1958750000000002
1.0165,-1.1958750000000002"/><polyline points="-0.4,-1.3979375000000003
1.0165,-1.3979375000000003"/><polyline points="-0.4,-1.6
1.0165,-1.6"/></g></g></g><g class="axisbar"><g stroke-opacity="0.0" fill="#0d0d0d" stroke="#000000" stroke-width="0.0" fill-opacity="0.4"><rect width="4.0000000000000036e-3" x="-0.41400000000000003" y="-1.602" height="1.6205000000000005"/></g></g></g><g class="axis"><g class="ticks"><g class="tickglyph"><g stroke-opacity="0.4" fill="#0d0d0d" stroke="#0d0d0d" stroke-width="4.0e-3" fill-opacity="0.4"><polyline points="-0.4,6.150000000000044e-2
-0.4,3.1500000000000444e-2"/><polyline points="-0.19764285714285712,6.150000000000044e-2
-0.19764285714285712,3.1500000000000444e-2"/><polyline points="4.714285714285782e-3,6.150000000000044e-2
4.714285714285782e-3,3.1500000000000444e-2"/><polyline points="0.20707142857142868,6.150000000000044e-2
0.20707142857142868,3.1500000000000444e-2"/><polyline points="0.4094285714285716,6.150000000000044e-2
0.4094285714285716,3.1500000000000444e-2"/><polyline points="0.6117857142857143,6.150000000000044e-2
0.6117857142857143,3.1500000000000444e-2"/><polyline points="0.8141428571428574,6.150000000000044e-2
0.8141428571428574,3.1500000000000444e-2"/><polyline points="1.0165000000000002,6.150000000000044e-2
1.0165000000000002,3.1500000000000444e-2"/></g></g><g class="ticktext"><g fill="#0d0d0d" stroke="none" stroke-width="0.0" font-size="5.0e-2" fill-opacity="1.0" text-anchor="middle"><text x="-0.4" y="0.11000000000000046">-0.4</text><text x="-0.19764285714285712" y="0.11000000000000046">-0.2</text><text x="4.714285714285782e-3" y="0.11000000000000046">0</text><text x="0.20707142857142868" y="0.11000000000000046">0.2</text><text x="0.4094285714285716" y="0.11000000000000046">0.4</text><text x="0.6117857142857143" y="0.11000000000000046">0.6</text><text x="0.8141428571428574" y="0.11000000000000046">0.8</text><text x="1.0165000000000002" y="0.11000000000000046">1</text></g></g><g class="ticklines"><g stroke-opacity="5.0e-2" fill="none" stroke="#0d0d0d" stroke-width="5.0e-3"><polyline points="-0.4,1.6500000000000445e-2
-0.4,-1.6"/><polyline points="-0.19764285714285712,1.6500000000000445e-2
-0.19764285714285712,-1.6"/><polyline points="4.714285714285782e-3,1.6500000000000445e-2
4.714285714285782e-3,-1.6"/><polyline points="0.20707142857142868,1.6500000000000445e-2
0.20707142857142868,-1.6"/><polyline points="0.4094285714285716,1.6500000000000445e-2
0.4094285714285716,-1.6"/><polyline points="0.6117857142857143,1.6500000000000445e-2
0.6117857142857143,-1.6"/><polyline points="0.8141428571428574,1.6500000000000445e-2
0.8141428571428574,-1.6"/><polyline points="1.0165000000000002,1.6500000000000445e-2
1.0165000000000002,-1.6"/></g></g></g><g class="axisbar"><g stroke-opacity="0.0" fill="#0d0d0d" stroke="#000000" stroke-width="0.0" fill-opacity="0.4"><rect width="1.4205" x="-0.402" y="2.6500000000000447e-2" height="3.999999999999997e-3"/></g></g></g></g></svg>