<svg xmlns="http://www.w3.org/2000/svg" width="375.0492051476155" xmlns:xlink="http://www.w3.org/1999/xlink" viewBox="-0.7512380952380954 -1.52625 2.0643333333333342 1.6512500000000006" height="300.0"><style>svg {
  color-scheme: light dark;
}
{
  .canvas g, .title g, .axisbar g, .ticktext g, .tickglyph g, .ticklines g, .legendContent g text {
    fill: #0d0d0d;
  }
  .ticklines g, .tickglyph g, .legendBorder g {
    stroke: #0d0d0d;
  }
}
@media (prefers-color-scheme:dark) {
  .canvas g, .title g, .axisbar g, .ticktext g, .tickglyph g, .ticklines g, .legendContent g text {
    fill: #f0f0f0;
  }
  .ticklines g, .tickglyph g, .legendBorder g {
    stroke: #f0f0f0;
  }
}</style><g class="chart"><g class="path"><g fill="rgb(12%, 47%, 71%)" stroke="rgb(20%, 80%, 40%)" stroke-width="1.0e-2" fill-opacity="0.1" stroke-opacity="0.3"><path d="M 0.0476,0 L 1.0,0 C 0.2381,0 0.2857,-0.9375 1.0,-0.9375 Q -0.9048,-1.875 0.0476,-0.9375 A 0.9486825977868139 0.9412422945844034 30.0 0 0 0.0476,0"/></g><g fill="rgb(65%, 81%, 89%)" stroke="rgb(12%, 47%, 71%)" stroke-width="3.0e-3" fill-opacity="1.0" stroke-opacity="1.0"><rect x="3.261904761904767e-2" width="3.0e-2" y="-1.4999999999999555e-2" height="3.0e-2"/><rect x="0.985" width="2.9999999999999916e-2" y="-1.4999999999999555e-2" height="3.0e-2"/><rect x="0.985" width="2.9999999999999916e-2" y="-0.9524999999999998" height="3.0000000000000027e-2"/><rect x="3.261904761904767e-2" width="3.0e-2" y="-0.9524999999999998" height="3.0000000000000027e-2"/><rect x="3.261904761904767e-2" width="3.0e-2" y="-1.4999999999999555e-2" height="3.0e-2"/></g><g fill="rgb(5%, 5%, 5%)" stroke="none" stroke-width="0.0" font-size="4.761904761904763e-2" fill-opacity="1.0" text-anchor="middle"><text x="4.761904761904767e-2" y="-4.687499999999957e-2">StartP (Point 0 0)</text><text x="0.523809523809524" y="4.440892098500626e-16">LineP (Point 1 0)</text><text x="0.8095238095238099" y="-0.46874999999999967">CubicP (Point 0.2 0) (Point 0.25 1) (Point 1 1)</text><text x="0.4285714285714287" y="-1.0312499999999998">QuadP (Point (-1) 2) (Point 0 1)</text><text x="4.761904761904767e-2" y="-0.37499999999999967">ArcP (ArcInfo (Point 1 1) (-pi / 6) False False) (Point 0 0)</text></g></g></g><g class="hud"><g class="frame"><g fill="rgb(100%, 100%, 100%)" stroke="rgb(0%, 0%, 0%)" stroke-width="0.0" fill-opacity="2.0e-2" stroke-opacity="0.0"><rect x="-0.5952380952380953" width="1.908333333333334" y="-1.5" height="1.5165000000000004"/></g></g><g class="axis"><g class="ticks"><g class="tickglyph"><g fill="rgb(5%, 5%, 5%)" stroke="rgb(5%, 5%, 5%)" stroke-width="4.0e-3" fill-opacity="0.4" stroke-opacity="0.4"><g transform="rotate(-90.0, -0.6252380952380954, 6.661338147750939e-16)"><polyline points="-0.6252380952380954,1.5000000000000666e-2
-0.6252380952380954,-1.4999999999999333e-2"/></g><g transform="rotate(-90.0, -0.6252380952380954, -0.18749999999999942)"><polyline points="-0.6252380952380954,-0.17249999999999943
-0.6252380952380954,-0.2024999999999994"/></g><g transform="rotate(-90.0, -0.6252380952380954, -0.3749999999999995)"><polyline points="-0.6252380952380954,-0.3599999999999995
-0.6252380952380954,-0.3899999999999995"/></g><g transform="rotate(-90.0, -0.6252380952380954, -0.5624999999999997)"><polyline points="-0.6252380952380954,-0.5474999999999997
-0.6252380952380954,-0.5774999999999997"/></g><g transform="rotate(-90.0, -0.6252380952380954, -0.7499999999999997)"><polyline points="-0.6252380952380954,-0.7349999999999997
-0.6252380952380954,-0.7649999999999997"/></g><g transform="rotate(-90.0, -0.6252380952380954, -0.9374999999999998)"><polyline points="-0.6252380952380954,-0.9224999999999998
-0.6252380952380954,-0.9524999999999998"/></g><g transform="rotate(-90.0, -0.6252380952380954, -1.125)"><polyline points="-0.6252380952380954,-1.11
-0.6252380952380954,-1.14"/></g><g transform="rotate(-90.0, -0.6252380952380954, -1.3125)"><polyline points="-0.6252380952380954,-1.2975
-0.6252380952380954,-1.3275"/></g><g transform="rotate(-90.0, -0.6252380952380954, -1.5)"><polyline points="-0.6252380952380954,-1.485
-0.6252380952380954,-1.515"/></g></g></g><g class="ticktext"><g fill="rgb(5%, 5%, 5%)" stroke="none" stroke-width="0.0" font-size="5.0e-2" fill-opacity="1.0" text-anchor="end"><text x="-0.6612380952380954" y="1.3750000000000668e-2">0.0</text><text x="-0.6612380952380954" y="-0.1737499999999994">0.20</text><text x="-0.6612380952380954" y="-0.3612499999999995">0.40</text><text x="-0.6612380952380954" y="-0.5487499999999996">0.60</text><text x="-0.6612380952380954" y="-0.7362499999999996">0.80</text><text x="-0.6612380952380954" y="-0.9237499999999997">1.0</text><text x="-0.6612380952380954" y="-1.11125">1.2</text><text x="-0.6612380952380954" y="-1.29875">1.4</text><text x="-0.6612380952380954" y="-1.48625">1.6</text></g></g><g class="ticklines"><g fill="none" stroke="rgb(5%, 5%, 5%)" stroke-width="5.0e-3" stroke-opacity="5.0e-2"><polyline points="-0.33333333333333337,6.661338147750939e-16
1.0,6.661338147750939e-16"/><polyline points="-0.33333333333333337,-0.18749999999999942
1.0,-0.18749999999999942"/><polyline points="-0.33333333333333337,-0.3749999999999995
1.0,-0.3749999999999995"/><polyline points="-0.33333333333333337,-0.5624999999999997
1.0,-0.5624999999999997"/><polyline points="-0.33333333333333337,-0.7499999999999997
1.0,-0.7499999999999997"/><polyline points="-0.33333333333333337,-0.9374999999999998
1.0,-0.9374999999999998"/><polyline points="-0.33333333333333337,-1.125
1.0,-1.125"/><polyline points="-0.33333333333333337,-1.3125
1.0,-1.3125"/><polyline points="-0.33333333333333337,-1.5
1.0,-1.5"/></g></g></g><g class="axisbar"><g fill="rgb(5%, 5%, 5%)" stroke="rgb(0%, 0%, 0%)" stroke-width="0.0" fill-opacity="0.4" stroke-opacity="0.0"><rect x="-0.6092380952380954" width="4.0000000000000036e-3" y="-1.502" height="1.5040000000000007"/></g></g></g><g class="axis"><g class="ticks"><g class="tickglyph"><g fill="rgb(5%, 5%, 5%)" stroke="rgb(5%, 5%, 5%)" stroke-width="4.0e-3" fill-opacity="0.4" stroke-opacity="0.4"><polyline points="-0.33333333333333337,6.150000000000044e-2
-0.33333333333333337,3.1500000000000444e-2"/><polyline points="-0.14285714285714285,6.150000000000044e-2
-0.14285714285714285,3.1500000000000444e-2"/><polyline points="4.761904761904767e-2,6.150000000000044e-2
4.761904761904767e-2,3.1500000000000444e-2"/><polyline points="0.23809523809523825,6.150000000000044e-2
0.23809523809523825,3.1500000000000444e-2"/><polyline points="0.4285714285714287,6.150000000000044e-2
0.4285714285714287,3.1500000000000444e-2"/><polyline points="0.6190476190476192,6.150000000000044e-2
0.6190476190476192,3.1500000000000444e-2"/><polyline points="0.8095238095238099,6.150000000000044e-2
0.8095238095238099,3.1500000000000444e-2"/><polyline points="1.0,6.150000000000044e-2
1.0,3.1500000000000444e-2"/></g></g><g class="ticktext"><g fill="rgb(5%, 5%, 5%)" stroke="none" stroke-width="0.0" font-size="5.0e-2" fill-opacity="1.0" text-anchor="middle"><text x="-0.33333333333333337" y="0.11000000000000046">-0.40</text><text x="-0.14285714285714285" y="0.11000000000000046">-0.20</text><text x="4.761904761904767e-2" y="0.11000000000000046">0.0</text><text x="0.23809523809523825" y="0.11000000000000046">0.20</text><text x="0.4285714285714287" y="0.11000000000000046">0.40</text><text x="0.6190476190476192" y="0.11000000000000046">0.60</text><text x="0.8095238095238099" y="0.11000000000000046">0.80</text><text x="1.0" y="0.11000000000000046">1.0</text></g></g><g class="ticklines"><g fill="none" stroke="rgb(5%, 5%, 5%)" stroke-width="5.0e-3" stroke-opacity="5.0e-2"><polyline points="-0.33333333333333337,6.661338147750939e-16
-0.33333333333333337,-1.5"/><polyline points="-0.14285714285714285,6.661338147750939e-16
-0.14285714285714285,-1.5"/><polyline points="4.761904761904767e-2,6.661338147750939e-16
4.761904761904767e-2,-1.5"/><polyline points="0.23809523809523825,6.661338147750939e-16
0.23809523809523825,-1.5"/><polyline points="0.4285714285714287,6.661338147750939e-16
0.4285714285714287,-1.5"/><polyline points="0.6190476190476192,6.661338147750939e-16
0.6190476190476192,-1.5"/><polyline points="0.8095238095238099,6.661338147750939e-16
0.8095238095238099,-1.5"/><polyline points="1.0,6.661338147750939e-16
1.0,-1.5"/></g></g></g><g class="axisbar"><g fill="rgb(5%, 5%, 5%)" stroke="rgb(0%, 0%, 0%)" stroke-width="0.0" fill-opacity="0.4" stroke-opacity="0.0"><rect x="-0.33533333333333337" width="1.3373333333333335" y="2.6500000000000447e-2" height="3.999999999999997e-3"/></g></g></g></g></svg>