<svg width="270.8733294139366" xmlns:xlink="http://www.w3.org/1999/xlink" xmlns="http://www.w3.org/2000/svg" viewBox="-0.5518182914131229 -0.6008132183755 1.094121927832897 1.2117714913463207" height="300.0"><style>svg {
  color-scheme: light dark;
}
@media (prefers-color-scheme:dark) {
  svg {
    background-color: #f0f0f0;
  }
}</style><g stroke-opacity="5.0e-2" fill="none" stroke="#0d0d0d" stroke-width="5.0e-3"><polyline points="-0.3198278199404274,0.3415431065245218
0.4258036364197742,0.3415431065245218"/><polyline points="-0.3198278199404274,0.2298955965378522
0.4258036364197742,0.2298955965378522"/><polyline points="-0.3198278199404274,0.11824808655118263
0.4258036364197742,0.11824808655118263"/><polyline points="-0.3198278199404274,6.6005765645130166e-3
0.4258036364197742,6.6005765645130166e-3"/><polyline points="-0.3198278199404274,-0.10504693342215654
0.4258036364197742,-0.10504693342215654"/><polyline points="-0.3198278199404274,-0.21669444340882615
0.4258036364197742,-0.21669444340882615"/><polyline points="-0.3198278199404274,-0.32834195339549577
0.4258036364197742,-0.32834195339549577"/><polyline points="-0.3198278199404274,-0.43998946338216527
0.4258036364197742,-0.43998946338216527"/></g><g fill="#0d0d0d" stroke="none" stroke-width="0.0" font-size="5.0e-2" fill-opacity="1.0" text-anchor="end"><text x="-0.3768182914131229" y="0.3536847732355721">0</text><text x="-0.3768182914131229" y="0.24203726324890257">0.2</text><text x="-0.3768182914131229" y="0.13038975326223295">0.4</text><text x="-0.3768182914131229" y="1.8742243275563397e-2">0.6</text><text x="-0.3768182914131229" y="-9.290526671110622e-2">0.8</text><text x="-0.3768182914131229" y="-0.20455277669777583">1</text><text x="-0.3768182914131229" y="-0.31620028668444544">1.2</text><text x="-0.3768182914131229" y="-0.42784779667111494">1.4</text></g><g stroke-opacity="0.4" fill="#0d0d0d" stroke="#0d0d0d" stroke-width="4.0e-3" fill-opacity="0.4"><g transform="rotate(-90.0, -0.3499726476368282, 0.3415431065245218)"><polyline points="-0.3499726476368282,0.3565431065245218
-0.3499726476368282,0.3265431065245218"/></g><g transform="rotate(-90.0, -0.3499726476368282, 0.2298955965378522)"><polyline points="-0.3499726476368282,0.2448955965378522
-0.3499726476368282,0.21489559653785217"/></g><g transform="rotate(-90.0, -0.3499726476368282, 0.11824808655118263)"><polyline points="-0.3499726476368282,0.13324808655118264
-0.3499726476368282,0.10324808655118263"/></g><g transform="rotate(-90.0, -0.3499726476368282, 6.6005765645130166e-3)"><polyline points="-0.3499726476368282,2.1600576564513016e-2
-0.3499726476368282,-8.399423435486983e-3"/></g><g transform="rotate(-90.0, -0.3499726476368282, -0.10504693342215654)"><polyline points="-0.3499726476368282,-9.004693342215654e-2
-0.3499726476368282,-0.12004693342215654"/></g><g transform="rotate(-90.0, -0.3499726476368282, -0.21669444340882615)"><polyline points="-0.3499726476368282,-0.20169444340882614
-0.3499726476368282,-0.23169444340882617"/></g><g transform="rotate(-90.0, -0.3499726476368282, -0.32834195339549577)"><polyline points="-0.3499726476368282,-0.31334195339549575
-0.3499726476368282,-0.3433419533954958"/></g><g transform="rotate(-90.0, -0.3499726476368282, -0.43998946338216527)"><polyline points="-0.3499726476368282,-0.42498946338216526
-0.3499726476368282,-0.4549894633821653"/></g></g><g stroke-opacity="0.0" fill="#0d0d0d" stroke="#000000" stroke-width="0.0" fill-opacity="0.4"><rect width="3.349425299600084e-3" x="-0.33573759011352783" y="-0.49748793102529987" height="0.8407057501996219"/></g><g stroke-opacity="5.0e-2" fill="none" stroke="#0d0d0d" stroke-width="5.0e-3"><polyline points="-0.2452646743044072,0.341543106524522
-0.2452646743044072,-0.49581321837549996"/><polyline points="-0.13341995585037703,0.341543106524522
-0.13341995585037703,-0.49581321837549996"/><polyline points="-2.1575237396346703e-2,0.341543106524522
-2.1575237396346703e-2,-0.49581321837549996"/><polyline points="9.026948105768345e-2,0.341543106524522
9.026948105768345e-2,-0.49581321837549996"/><polyline points="0.20211419951171367,0.341543106524522
0.20211419951171367,-0.49581321837549996"/><polyline points="0.313958917965744,0.341543106524522
0.313958917965744,-0.49581321837549996"/><polyline points="0.4258036364197742,0.341543106524522
0.4258036364197742,-0.49581321837549996"/></g><g fill="#0d0d0d" stroke="none" stroke-width="0.0" font-size="3.773623352635218e-2" fill-opacity="1.0" text-anchor="end"><text x="-0.2452646743044072" y="0.44358231774794077" transform="rotate(-45.0, -0.2452646743044072, 0.44358231774794077)">-0.2</text><text x="-0.13341995585037703" y="0.44358231774794077" transform="rotate(-45.0, -0.13341995585037703, 0.44358231774794077)">0</text><text x="-2.1575237396346703e-2" y="0.44358231774794077" transform="rotate(-45.0, -2.1575237396346703e-2, 0.44358231774794077)">0.2</text><text x="9.026948105768345e-2" y="0.44358231774794077" transform="rotate(-45.0, 9.026948105768345e-2, 0.44358231774794077)">0.4</text><text x="0.20211419951171367" y="0.44358231774794077" transform="rotate(-45.0, 0.20211419951171367, 0.44358231774794077)">0.6</text><text x="0.313958917965744" y="0.44358231774794077" transform="rotate(-45.0, 0.313958917965744, 0.44358231774794077)">0.8</text><text x="0.4258036364197742" y="0.44358231774794077" transform="rotate(-45.0, 0.4258036364197742, 0.44358231774794077)">1</text></g><g stroke-opacity="0.4" fill="#0d0d0d" stroke="#0d0d0d" stroke-width="4.0e-3" fill-opacity="0.4"><polyline points="-0.2452646743044072,0.39631753195727315
-0.2452646743044072,0.3663175319572731"/><polyline points="-0.13341995585037703,0.39631753195727315
-0.13341995585037703,0.3663175319572731"/><polyline points="-2.1575237396346703e-2,0.39631753195727315
-2.1575237396346703e-2,0.3663175319572731"/><polyline points="9.026948105768345e-2,0.39631753195727315
9.026948105768345e-2,0.3663175319572731"/><polyline points="0.20211419951171367,0.39631753195727315
0.20211419951171367,0.3663175319572731"/><polyline points="0.313958917965744,0.39631753195727315
0.313958917965744,0.3663175319572731"/><polyline points="0.4258036364197742,0.39631753195727315
0.4258036364197742,0.3663175319572731"/></g><g stroke-opacity="0.0" fill="#0d0d0d" stroke="#000000" stroke-width="0.0" fill-opacity="0.4"><rect width="0.7489808816598018" x="-0.32150253259022743" y="0.36373304913437265" height="3.349425299600084e-3"/></g><g stroke-opacity="0.0" fill="#ffffff" stroke="#000000" stroke-width="0.0" fill-opacity="2.0e-2"><rect width="0.7456314563602016" x="-0.3198278199404274" y="-0.49581321837549996" height="0.837356324900022"/></g><g stroke-opacity="0.3" fill="#1f78b5" stroke="#33cc66" stroke-width="1.0e-2" fill-opacity="0.1"><path d="M -0.1334,0.3415 L 0.4258,0.3415 C -0.0216,0.3415 0.0064,-0.2167 0.4258,-0.2167 Q -0.6926,-0.7749 -0.1334,-0.2167 A 0.5589772447537968 0.558484223729349 30.0 0 0 -0.1334,0.3415"/></g><g stroke-opacity="1.0" fill="#a6cfe3" stroke="#1f78b5" stroke-width="3.0e-3" fill-opacity="1.0"><rect width="3.0000000000000013e-2" x="-0.14841995585037704" y="0.326543106524522" height="3.0000000000000027e-2"/><rect width="3.0000000000000027e-2" x="0.4108036364197742" y="0.326543106524522" height="3.0000000000000027e-2"/><rect width="3.0000000000000027e-2" x="0.4108036364197742" y="-0.23169444340882606" height="3.0000000000000027e-2"/><rect width="3.0000000000000013e-2" x="-0.14841995585037704" y="-0.23169444340882606" height="3.0000000000000027e-2"/><rect width="3.0000000000000013e-2" x="-0.14841995585037704" y="0.326543106524522" height="3.0000000000000027e-2"/></g></svg>