<svg xmlns="http://www.w3.org/2000/svg" height="300.0" viewBox="-0.6014409146997003 -0.6332836968312198 1.1443818293994006 1.2992423977221954" width="264.2421071092754" xmlns:xlink="http://www.w3.org/1999/xlink"><g stroke-opacity="0.0" fill-opacity="2.5e-2" stroke="#000000" stroke-width="0.0" fill="#808080"><rect height="0.89422780474347" width="0.7981620917004131" x="-0.3717211770007129" y="-0.5"/></g><g stroke-opacity="5.0e-2" stroke="#808080" stroke-width="5.0e-3" fill="none"><polyline points="-0.3717211770007129,0.3942278047434697
0.42644091469970025,0.3942278047434697"/></g><g stroke-opacity="5.0e-2" stroke="#808080" stroke-width="5.0e-3" fill="none"><polyline points="-0.3717211770007129,0.282449329150536
0.42644091469970025,0.282449329150536"/></g><g stroke-opacity="5.0e-2" stroke="#808080" stroke-width="5.0e-3" fill="none"><polyline points="-0.3717211770007129,0.17067085355760225
0.42644091469970025,0.17067085355760225"/></g><g stroke-opacity="5.0e-2" stroke="#808080" stroke-width="5.0e-3" fill="none"><polyline points="-0.3717211770007129,5.889237796466851e-2
0.42644091469970025,5.889237796466851e-2"/></g><g stroke-opacity="5.0e-2" stroke="#808080" stroke-width="5.0e-3" fill="none"><polyline points="-0.3717211770007129,-5.288609762826513e-2
0.42644091469970025,-5.288609762826513e-2"/></g><g stroke-opacity="5.0e-2" stroke="#808080" stroke-width="5.0e-3" fill="none"><polyline points="-0.3717211770007129,-0.16466457322119876
0.42644091469970025,-0.16466457322119876"/></g><g stroke-opacity="5.0e-2" stroke="#808080" stroke-width="5.0e-3" fill="none"><polyline points="-0.3717211770007129,-0.2764430488141326
0.42644091469970025,-0.2764430488141326"/></g><g stroke-opacity="5.0e-2" stroke="#808080" stroke-width="5.0e-3" fill="none"><polyline points="-0.3717211770007129,-0.38822152440706614
0.42644091469970025,-0.38822152440706614"/></g><g stroke-opacity="5.0e-2" stroke="#808080" stroke-width="5.0e-3" fill="none"><polyline points="-0.3717211770007129,-0.5
0.42644091469970025,-0.5"/></g><g fill-opacity="1.0" font-size="5.0e-2" stroke="none" stroke-width="0.0" fill="#808080" text-anchor="end"><text x="-0.42644091469970025" y="0.40719410791224997">0</text></g><g fill-opacity="1.0" font-size="5.0e-2" stroke="none" stroke-width="0.0" fill="#808080" text-anchor="end"><text x="-0.42644091469970025" y="0.29541563231931633">0.2</text></g><g fill-opacity="1.0" font-size="5.0e-2" stroke="none" stroke-width="0.0" fill="#808080" text-anchor="end"><text x="-0.42644091469970025" y="0.1836371567263826">0.4</text></g><g fill-opacity="1.0" font-size="5.0e-2" stroke="none" stroke-width="0.0" fill="#808080" text-anchor="end"><text x="-0.42644091469970025" y="7.185868113344884e-2">0.6</text></g><g fill-opacity="1.0" font-size="5.0e-2" stroke="none" stroke-width="0.0" fill="#808080" text-anchor="end"><text x="-0.42644091469970025" y="-3.991979445948479e-2">0.8</text></g><g fill-opacity="1.0" font-size="5.0e-2" stroke="none" stroke-width="0.0" fill="#808080" text-anchor="end"><text x="-0.42644091469970025" y="-0.15169827005241854">1</text></g><g fill-opacity="1.0" font-size="5.0e-2" stroke="none" stroke-width="0.0" fill="#808080" text-anchor="end"><text x="-0.42644091469970025" y="-0.2634767456453523">1.2</text></g><g fill-opacity="1.0" font-size="5.0e-2" stroke="none" stroke-width="0.0" fill="#808080" text-anchor="end"><text x="-0.42644091469970025" y="-0.37525522123828614">1.4</text></g><g fill-opacity="1.0" font-size="5.0e-2" stroke="none" stroke-width="0.0" fill="#808080" text-anchor="end"><text x="-0.42644091469970025" y="-0.4870336968312198">1.6</text></g><g stroke-opacity="1.0" fill-opacity="1.0" stroke="#808080" stroke-width="5.0e-3" fill="#808080"><g transform="rotate(-90.0, -0.39676974606808124, 0.3942278047434697)"><polyline points="-0.39676974606808124,0.4092278047434697
-0.39676974606808124,0.3792278047434697"/></g><g transform="rotate(-90.0, -0.39676974606808124, 0.282449329150536)"><polyline points="-0.39676974606808124,0.297449329150536
-0.39676974606808124,0.267449329150536"/></g><g transform="rotate(-90.0, -0.39676974606808124, 0.17067085355760225)"><polyline points="-0.39676974606808124,0.18567085355760227
-0.39676974606808124,0.15567085355760224"/></g><g transform="rotate(-90.0, -0.39676974606808124, 5.889237796466851e-2)"><polyline points="-0.39676974606808124,7.389237796466851e-2
-0.39676974606808124,4.389237796466851e-2"/></g><g transform="rotate(-90.0, -0.39676974606808124, -5.288609762826513e-2)"><polyline points="-0.39676974606808124,-3.788609762826513e-2
-0.39676974606808124,-6.788609762826513e-2"/></g><g transform="rotate(-90.0, -0.39676974606808124, -0.16466457322119876)"><polyline points="-0.39676974606808124,-0.14966457322119875
-0.39676974606808124,-0.17966457322119878"/></g><g transform="rotate(-90.0, -0.39676974606808124, -0.2764430488141326)"><polyline points="-0.39676974606808124,-0.2614430488141326
-0.39676974606808124,-0.29144304881413263"/></g><g transform="rotate(-90.0, -0.39676974606808124, -0.38822152440706614)"><polyline points="-0.39676974606808124,-0.37322152440706613
-0.39676974606808124,-0.40322152440706616"/></g><g transform="rotate(-90.0, -0.39676974606808124, -0.5)"><polyline points="-0.39676974606808124,-0.485
-0.39676974606808124,-0.515"/></g></g><g stroke-opacity="1.0" fill-opacity="1.0" stroke="#808080" stroke-width="0.0" fill="#808080"><rect height="0.89422780474347" width="4.554285284976034e-3" x="-0.38538403285564105" y="-0.5"/></g><g stroke-opacity="5.0e-2" stroke="#808080" stroke-width="5.0e-3" fill="none"><polyline points="-0.3717211770007129,0.39422780474346997
-0.3717211770007129,-0.5"/></g><g stroke-opacity="5.0e-2" stroke="#808080" stroke-width="5.0e-3" fill="none"><polyline points="-0.25769802104351097,0.39422780474346997
-0.25769802104351097,-0.5"/></g><g stroke-opacity="5.0e-2" stroke="#808080" stroke-width="5.0e-3" fill="none"><polyline points="-0.1436748650863091,0.39422780474346997
-0.1436748650863091,-0.5"/></g><g stroke-opacity="5.0e-2" stroke="#808080" stroke-width="5.0e-3" fill="none"><polyline points="-2.965170912910714e-2,0.39422780474346997
-2.965170912910714e-2,-0.5"/></g><g stroke-opacity="5.0e-2" stroke="#808080" stroke-width="5.0e-3" fill="none"><polyline points="8.437144682809461e-2,0.39422780474346997
8.437144682809461e-2,-0.5"/></g><g stroke-opacity="5.0e-2" stroke="#808080" stroke-width="5.0e-3" fill="none"><polyline points="0.19839460278529641,0.39422780474346997
0.19839460278529641,-0.5"/></g><g stroke-opacity="5.0e-2" stroke="#808080" stroke-width="5.0e-3" fill="none"><polyline points="0.31241775874249844,0.39422780474346997
0.31241775874249844,-0.5"/></g><g stroke-opacity="5.0e-2" stroke="#808080" stroke-width="5.0e-3" fill="none"><polyline points="0.42644091469970025,0.39422780474346997
0.42644091469970025,-0.5"/></g><g fill-opacity="1.0" font-size="3.694245123030814e-2" stroke="none" stroke-width="0.0" fill="#808080" text-anchor="end"><text transform="rotate(-45.0, -0.3717211770007129, 0.5)" x="-0.3717211770007129" y="0.5">-0.4</text></g><g fill-opacity="1.0" font-size="3.694245123030814e-2" stroke="none" stroke-width="0.0" fill="#808080" text-anchor="end"><text transform="rotate(-45.0, -0.25769802104351097, 0.5)" x="-0.25769802104351097" y="0.5">-0.2</text></g><g fill-opacity="1.0" font-size="3.694245123030814e-2" stroke="none" stroke-width="0.0" fill="#808080" text-anchor="end"><text transform="rotate(-45.0, -0.1436748650863091, 0.5)" x="-0.1436748650863091" y="0.5">0</text></g><g fill-opacity="1.0" font-size="3.694245123030814e-2" stroke="none" stroke-width="0.0" fill="#808080" text-anchor="end"><text transform="rotate(-45.0, -2.965170912910714e-2, 0.5)" x="-2.965170912910714e-2" y="0.5">0.2</text></g><g fill-opacity="1.0" font-size="3.694245123030814e-2" stroke="none" stroke-width="0.0" fill="#808080" text-anchor="end"><text transform="rotate(-45.0, 8.437144682809461e-2, 0.5)" x="8.437144682809461e-2" y="0.5">0.4</text></g><g fill-opacity="1.0" font-size="3.694245123030814e-2" stroke="none" stroke-width="0.0" fill="#808080" text-anchor="end"><text transform="rotate(-45.0, 0.19839460278529641, 0.5)" x="0.19839460278529641" y="0.5">0.6</text></g><g fill-opacity="1.0" font-size="3.694245123030814e-2" stroke="none" stroke-width="0.0" fill="#808080" text-anchor="end"><text transform="rotate(-45.0, 0.31241775874249844, 0.5)" x="0.31241775874249844" y="0.5">0.8</text></g><g fill-opacity="1.0" font-size="3.694245123030814e-2" stroke="none" stroke-width="0.0" fill="#808080" text-anchor="end"><text transform="rotate(-45.0, 0.42644091469970025, 0.5)" x="0.42644091469970025" y="0.5">1</text></g><g stroke-opacity="1.0" fill-opacity="1.0" stroke="#808080" stroke-width="5.0e-3" fill="#808080"><polyline points="-0.3717211770007129,0.4485738281521824
-0.3717211770007129,0.41857382815218236"/><polyline points="-0.25769802104351097,0.4485738281521824
-0.25769802104351097,0.41857382815218236"/><polyline points="-0.1436748650863091,0.4485738281521824
-0.1436748650863091,0.41857382815218236"/><polyline points="-2.965170912910714e-2,0.4485738281521824
-2.965170912910714e-2,0.41857382815218236"/><polyline points="8.437144682809461e-2,0.4485738281521824
8.437144682809461e-2,0.41857382815218236"/><polyline points="0.19839460278529641,0.4485738281521824
0.19839460278529641,0.41857382815218236"/><polyline points="0.31241775874249844,0.4485738281521824
0.31241775874249844,0.41857382815218236"/><polyline points="0.42644091469970025,0.4485738281521824
0.42644091469970025,0.41857382815218236"/></g><g stroke-opacity="1.0" fill-opacity="1.0" stroke="#808080" stroke-width="0.0" fill="#808080"><rect height="4.47113902371743e-3" width="0.7981620917004131" x="-0.3717211770007129" y="0.41792484156917165"/></g><g stroke-opacity="0.3" fill-opacity="0.1" stroke="#33cc66" stroke-width="1.0e-2" fill="#e31a1c"><path d="M -0.1437,0.3942 L 0.4264,0.3942 C -0.0297,0.3942 -0.0011,-0.1647 0.4264,-0.1647 Q -0.7138,-0.7236 -0.1437,-0.1647 A 0.5673072144747899 0.561695512729385 30.0 0 0 -0.1437,0.3942"/></g><g stroke-opacity="0.8" fill-opacity="0.3" stroke="#1f78b4" stroke-width="3.0e-3" fill="#a6cee3"><rect height="3.0000000000000027e-2" width="3.0000000000000027e-2" x="-0.15867486508630912" y="0.3792278047434697"/><rect height="3.0000000000000027e-2" width="3.0000000000000027e-2" x="0.41144091469970023" y="0.3792278047434697"/><rect height="3.0000000000000027e-2" width="3.0000000000000027e-2" x="0.41144091469970023" y="-0.17966457322119878"/><rect height="3.0000000000000027e-2" width="3.0000000000000027e-2" x="-0.15867486508630912" y="-0.17966457322119878"/><rect height="3.0000000000000027e-2" width="3.0000000000000027e-2" x="-0.15867486508630912" y="0.3792278047434697"/></g><g></g></svg>