<svg width="278.48362039851395" xmlns:xlink="http://www.w3.org/1999/xlink" xmlns="http://www.w3.org/2000/svg" viewBox="-0.5083412698412699 -1.5375 1.63609126984127 1.7625000000000006" height="300.0"><style>svg {
  color-scheme: light dark;
}
{
  .canvas g, .title g, .axisbar g, .ticktext g, .tickglyph g, .ticklines g, .legendContent g text {
    fill: #0d0d0d;
  }
  .ticklines g, .tickglyph g, .legendBorder g {
    stroke: #0d0d0d;
  }
}
@media (prefers-color-scheme:dark) {
  .canvas g, .title g, .axisbar g, .ticktext g, .tickglyph g, .ticklines g, .legendContent g text {
    fill: #f0f0f0;
  }
  .ticklines g, .tickglyph g, .legendBorder g {
    stroke: #f0f0f0;
  }
}</style><g class="chart"><g class="path"><g stroke-opacity="0.3" fill="#1f78b5" stroke="#33cc66" stroke-width="1.0e-2" fill-opacity="0.1"><path d="M 0.0476,0 L 1.0,0 C 0.2381,0 0.2857,-0.9375 1.0,-0.9375 Q -0.9048,-1.875 0.0476,-0.9375 A 0.9486825977868139 0.9412422945844034 30.0 0 0 0.0476,0"/></g><g stroke-opacity="1.0" fill="#a6cfe3" stroke="#1f78b5" stroke-width="3.0e-3" fill-opacity="1.0"><rect width="3.0e-2" x="3.261904761904767e-2" y="-1.4999999999999555e-2" height="3.0e-2"/><rect width="2.9999999999999916e-2" x="0.985" y="-1.4999999999999555e-2" height="3.0e-2"/><rect width="2.9999999999999916e-2" x="0.985" y="-0.9524999999999998" height="3.0000000000000027e-2"/><rect width="3.0e-2" x="3.261904761904767e-2" y="-0.9524999999999998" height="3.0000000000000027e-2"/><rect width="3.0e-2" x="3.261904761904767e-2" y="-1.4999999999999555e-2" height="3.0e-2"/></g></g></g><g class="hud"><g><g class="canvas"><g stroke-opacity="0.0" fill="#ffffff" stroke="#000000" stroke-width="0.0" fill-opacity="2.0e-2"><rect width="1.2913412698412698" x="-0.2748412698412699" y="-1.41125" height="1.4277500000000003"/></g></g><g class="axis"><g class="ticks"><g class="tickglyph"><g stroke-opacity="0.4" fill="#0d0d0d" stroke="#0d0d0d" stroke-width="4.0e-3" fill-opacity="0.4"><g transform="rotate(-90.0, -0.3048412698412699, 1.6500000000000445e-2)"><polyline points="-0.3048412698412699,3.1500000000000444e-2
-0.3048412698412699,1.5000000000004454e-3"/></g><g transform="rotate(-90.0, -0.3048412698412699, -0.1619687499999996)"><polyline points="-0.3048412698412699,-0.1469687499999996
-0.3048412698412699,-0.17696874999999962"/></g><g transform="rotate(-90.0, -0.3048412698412699, -0.3404374999999996)"><polyline points="-0.3048412698412699,-0.3254374999999996
-0.3048412698412699,-0.35543749999999963"/></g><g transform="rotate(-90.0, -0.3048412698412699, -0.5189062499999998)"><polyline points="-0.3048412698412699,-0.5039062499999998
-0.3048412698412699,-0.5339062499999998"/></g><g transform="rotate(-90.0, -0.3048412698412699, -0.6973749999999997)"><polyline points="-0.3048412698412699,-0.6823749999999997
-0.3048412698412699,-0.7123749999999998"/></g><g transform="rotate(-90.0, -0.3048412698412699, -0.8758437499999998)"><polyline points="-0.3048412698412699,-0.8608437499999998
-0.3048412698412699,-0.8908437499999998"/></g><g transform="rotate(-90.0, -0.3048412698412699, -1.0543125)"><polyline points="-0.3048412698412699,-1.0393125
-0.3048412698412699,-1.0693124999999999"/></g><g transform="rotate(-90.0, -0.3048412698412699, -1.23278125)"><polyline points="-0.3048412698412699,-1.21778125
-0.3048412698412699,-1.2477812499999998"/></g><g transform="rotate(-90.0, -0.3048412698412699, -1.41125)"><polyline points="-0.3048412698412699,-1.39625
-0.3048412698412699,-1.4262499999999998"/></g></g></g><g class="ticktext"><g fill="#0d0d0d" stroke="none" stroke-width="0.0" font-size="5.0e-2" fill-opacity="1.0" text-anchor="end"><text x="-0.34084126984126994" y="3.0250000000000447e-2">0</text><text x="-0.34084126984126994" y="-0.1482187499999996">0.2</text><text x="-0.34084126984126994" y="-0.32668749999999963">0.4</text><text x="-0.34084126984126994" y="-0.5051562499999998">0.6</text><text x="-0.34084126984126994" y="-0.6836249999999997">0.8</text><text x="-0.34084126984126994" y="-0.8620937499999998">1</text><text x="-0.34084126984126994" y="-1.0405625">1.2</text><text x="-0.34084126984126994" y="-1.21903125">1.4</text><text x="-0.34084126984126994" y="-1.3975">1.6</text></g></g><g class="ticklines"><g stroke-opacity="5.0e-2" fill="none" stroke="#0d0d0d" stroke-width="5.0e-3"><polyline points="-0.2748412698412699,1.6500000000000445e-2
1.0165,1.6500000000000445e-2"/><polyline points="-0.2748412698412699,-0.1619687499999996
1.0165,-0.1619687499999996"/><polyline points="-0.2748412698412699,-0.3404374999999996
1.0165,-0.3404374999999996"/><polyline points="-0.2748412698412699,-0.5189062499999998
1.0165,-0.5189062499999998"/><polyline points="-0.2748412698412699,-0.6973749999999997
1.0165,-0.6973749999999997"/><polyline points="-0.2748412698412699,-0.8758437499999998
1.0165,-0.8758437499999998"/><polyline points="-0.2748412698412699,-1.0543125
1.0165,-1.0543125"/><polyline points="-0.2748412698412699,-1.23278125
1.0165,-1.23278125"/><polyline points="-0.2748412698412699,-1.41125
1.0165,-1.41125"/></g></g></g><g class="axisbar"><g stroke-opacity="0.0" fill="#0d0d0d" stroke="#000000" stroke-width="0.0" fill-opacity="0.4"><rect width="4.0000000000000036e-3" x="-0.2888412698412699" y="-1.41325" height="1.4317500000000003"/></g></g></g><g class="axis"><g class="ticks"><g class="tickglyph"><g stroke-opacity="0.4" fill="#0d0d0d" stroke="#0d0d0d" stroke-width="4.0e-3" fill-opacity="0.4"><polyline points="-0.2748412698412699,6.150000000000044e-2
-0.2748412698412699,3.1500000000000444e-2"/><polyline points="-9.036394557823133e-2,6.150000000000044e-2
-9.036394557823133e-2,3.1500000000000444e-2"/><polyline points="9.411337868480724e-2,6.150000000000044e-2
9.411337868480724e-2,3.1500000000000444e-2"/><polyline points="0.2785907029478458,6.150000000000044e-2
0.2785907029478458,3.1500000000000444e-2"/><polyline points="0.46306802721088436,6.150000000000044e-2
0.46306802721088436,3.1500000000000444e-2"/><polyline points="0.6475453514739229,6.150000000000044e-2
0.6475453514739229,3.1500000000000444e-2"/><polyline points="0.8320226757369615,6.150000000000044e-2
0.8320226757369615,3.1500000000000444e-2"/><polyline points="1.0165,6.150000000000044e-2
1.0165,3.1500000000000444e-2"/></g></g><g class="ticktext"><g fill="#0d0d0d" stroke="none" stroke-width="0.0" font-size="5.0e-2" fill-opacity="1.0" text-anchor="middle"><text x="-0.2748412698412699" y="0.11000000000000046">-0.4</text><text x="-9.036394557823133e-2" y="0.11000000000000046">-0.2</text><text x="9.411337868480724e-2" y="0.11000000000000046">0</text><text x="0.2785907029478458" y="0.11000000000000046">0.2</text><text x="0.46306802721088436" y="0.11000000000000046">0.4</text><text x="0.6475453514739229" y="0.11000000000000046">0.6</text><text x="0.8320226757369615" y="0.11000000000000046">0.8</text><text x="1.0165" y="0.11000000000000046">1</text></g></g><g class="ticklines"><g stroke-opacity="5.0e-2" fill="none" stroke="#0d0d0d" stroke-width="5.0e-3"><polyline points="-0.2748412698412699,1.6500000000000445e-2
-0.2748412698412699,-1.41125"/><polyline points="-9.036394557823133e-2,1.6500000000000445e-2
-9.036394557823133e-2,-1.41125"/><polyline points="9.411337868480724e-2,1.6500000000000445e-2
9.411337868480724e-2,-1.41125"/><polyline points="0.2785907029478458,1.6500000000000445e-2
0.2785907029478458,-1.41125"/><polyline points="0.46306802721088436,1.6500000000000445e-2
0.46306802721088436,-1.41125"/><polyline points="0.6475453514739229,1.6500000000000445e-2
0.6475453514739229,-1.41125"/><polyline points="0.8320226757369615,1.6500000000000445e-2
0.8320226757369615,-1.41125"/><polyline points="1.0165,1.6500000000000445e-2
1.0165,-1.41125"/></g></g></g><g class="axisbar"><g stroke-opacity="0.0" fill="#0d0d0d" stroke="#000000" stroke-width="0.0" fill-opacity="0.4"><rect width="1.2953412698412698" x="-0.2768412698412699" y="2.6500000000000447e-2" height="3.999999999999997e-3"/></g></g></g></g></g></svg>