<svg xmlns="http://www.w3.org/2000/svg" height="679.4576102128648" viewBox="-0.5600750000000001 -2.16810870070955 1.9350750000000005 2.4648587007095495" width="520.5225000000002" xmlns:xlink="http://www.w3.org/1999/xlink"><g stroke-opacity="0.0" fill-opacity="2.5e-2" stroke="#000000" stroke-width="0.0" fill="#808080"><rect height="2.076052518320344" width="1.504299455325067" x="-0.26679945532506666" y="-2.03675"/></g><g stroke-opacity="5.0e-2" stroke="#808080" stroke-width="5.0e-3" fill="none"><polyline points="-0.26679945532506666,3.930251832034384e-2
1.2375000000000003,3.930251832034384e-2"/></g><g stroke-opacity="5.0e-2" stroke="#808080" stroke-width="5.0e-3" fill="none"><polyline points="-0.26679945532506666,-0.16830273351169062
1.2375000000000003,-0.16830273351169062"/></g><g stroke-opacity="5.0e-2" stroke="#808080" stroke-width="5.0e-3" fill="none"><polyline points="-0.26679945532506666,-0.37590798534372494
1.2375000000000003,-0.37590798534372494"/></g><g stroke-opacity="5.0e-2" stroke="#808080" stroke-width="5.0e-3" fill="none"><polyline points="-0.26679945532506666,-0.5835132371757596
1.2375000000000003,-0.5835132371757596"/></g><g stroke-opacity="5.0e-2" stroke="#808080" stroke-width="5.0e-3" fill="none"><polyline points="-0.26679945532506666,-0.7911184890077939
1.2375000000000003,-0.7911184890077939"/></g><g stroke-opacity="5.0e-2" stroke="#808080" stroke-width="5.0e-3" fill="none"><polyline points="-0.26679945532506666,-0.9987237408398283
1.2375000000000003,-0.9987237408398283"/></g><g stroke-opacity="5.0e-2" stroke="#808080" stroke-width="5.0e-3" fill="none"><polyline points="-0.26679945532506666,-1.206328992671863
1.2375000000000003,-1.206328992671863"/></g><g stroke-opacity="5.0e-2" stroke="#808080" stroke-width="5.0e-3" fill="none"><polyline points="-0.26679945532506666,-1.4139342445038974
1.2375000000000003,-1.4139342445038974"/></g><g stroke-opacity="5.0e-2" stroke="#808080" stroke-width="5.0e-3" fill="none"><polyline points="-0.26679945532506666,-1.6215394963359318
1.2375000000000003,-1.6215394963359318"/></g><g stroke-opacity="5.0e-2" stroke="#808080" stroke-width="5.0e-3" fill="none"><polyline points="-0.26679945532506666,-1.8291447481679661
1.2375000000000003,-1.8291447481679661"/></g><g stroke-opacity="5.0e-2" stroke="#808080" stroke-width="5.0e-3" fill="none"><polyline points="-0.26679945532506666,-2.03675
1.2375000000000003,-2.03675"/></g><g fill-opacity="1.0" font-size="5.0e-2" stroke="none" stroke-width="0.0" fill="#808080" text-anchor="end"><text x="-0.38507500000000006" y="5.4193817610794004e-2">0</text></g><g fill-opacity="1.0" font-size="5.0e-2" stroke="none" stroke-width="0.0" fill="#808080" text-anchor="end"><text x="-0.38507500000000006" y="-0.15341143422124043">0.2</text></g><g fill-opacity="1.0" font-size="5.0e-2" stroke="none" stroke-width="0.0" fill="#808080" text-anchor="end"><text x="-0.38507500000000006" y="-0.36101668605327486">0.4</text></g><g fill-opacity="1.0" font-size="5.0e-2" stroke="none" stroke-width="0.0" fill="#808080" text-anchor="end"><text x="-0.38507500000000006" y="-0.5686219378853095">0.6</text></g><g fill-opacity="1.0" font-size="5.0e-2" stroke="none" stroke-width="0.0" fill="#808080" text-anchor="end"><text x="-0.38507500000000006" y="-0.7762271897173438">0.8</text></g><g fill-opacity="1.0" font-size="5.0e-2" stroke="none" stroke-width="0.0" fill="#808080" text-anchor="end"><text x="-0.38507500000000006" y="-0.9838324415493781">1</text></g><g fill-opacity="1.0" font-size="5.0e-2" stroke="none" stroke-width="0.0" fill="#808080" text-anchor="end"><text x="-0.38507500000000006" y="-1.1914376933814128">1.2</text></g><g fill-opacity="1.0" font-size="5.0e-2" stroke="none" stroke-width="0.0" fill="#808080" text-anchor="end"><text x="-0.38507500000000006" y="-1.3990429452134472">1.4</text></g><g fill-opacity="1.0" font-size="5.0e-2" stroke="none" stroke-width="0.0" fill="#808080" text-anchor="end"><text x="-0.38507500000000006" y="-1.6066481970454816">1.6</text></g><g fill-opacity="1.0" font-size="5.0e-2" stroke="none" stroke-width="0.0" fill="#808080" text-anchor="end"><text x="-0.38507500000000006" y="-1.814253448877516">1.8</text></g><g fill-opacity="1.0" font-size="5.0e-2" stroke="none" stroke-width="0.0" fill="#808080" text-anchor="end"><text x="-0.38507500000000006" y="-2.02185870070955">2</text></g><g stroke-opacity="1.0" fill-opacity="1.0" stroke="#808080" stroke-width="5.0e-3" fill="#808080"><g transform="rotate(-90.0, -0.35007317517341857, 3.930251832034384e-2)"><polyline points="-0.35007317517341857,5.430251832034384e-2
-0.35007317517341857,2.4302518320343844e-2"/></g><g transform="rotate(-90.0, -0.35007317517341857, -0.16830273351169062)"><polyline points="-0.35007317517341857,-0.1533027335116906
-0.35007317517341857,-0.18330273351169063"/></g><g transform="rotate(-90.0, -0.35007317517341857, -0.37590798534372494)"><polyline points="-0.35007317517341857,-0.3609079853437249
-0.35007317517341857,-0.39090798534372495"/></g><g transform="rotate(-90.0, -0.35007317517341857, -0.5835132371757596)"><polyline points="-0.35007317517341857,-0.5685132371757596
-0.35007317517341857,-0.5985132371757597"/></g><g transform="rotate(-90.0, -0.35007317517341857, -0.7911184890077939)"><polyline points="-0.35007317517341857,-0.7761184890077939
-0.35007317517341857,-0.8061184890077939"/></g><g transform="rotate(-90.0, -0.35007317517341857, -0.9987237408398283)"><polyline points="-0.35007317517341857,-0.9837237408398283
-0.35007317517341857,-1.0137237408398283"/></g><g transform="rotate(-90.0, -0.35007317517341857, -1.206328992671863)"><polyline points="-0.35007317517341857,-1.191328992671863
-0.35007317517341857,-1.221328992671863"/></g><g transform="rotate(-90.0, -0.35007317517341857, -1.4139342445038974)"><polyline points="-0.35007317517341857,-1.3989342445038975
-0.35007317517341857,-1.4289342445038973"/></g><g transform="rotate(-90.0, -0.35007317517341857, -1.6215394963359318)"><polyline points="-0.35007317517341857,-1.6065394963359318
-0.35007317517341857,-1.6365394963359317"/></g><g transform="rotate(-90.0, -0.35007317517341857, -1.8291447481679661)"><polyline points="-0.35007317517341857,-1.8141447481679662
-0.35007317517341857,-1.844144748167966"/></g><g transform="rotate(-90.0, -0.35007317517341857, -2.03675)"><polyline points="-0.35007317517341857,-2.02175
-0.35007317517341857,-2.05175"/></g></g><g stroke-opacity="1.0" fill-opacity="1.0" stroke="#808080" stroke-width="0.0" fill="#808080"><rect height="2.076052518320344" width="5.372498054732389e-3" x="-0.3366419300365876" y="-2.03675"/></g><g stroke-opacity="5.0e-2" stroke="#808080" stroke-width="5.0e-3" fill="none"><polyline points="-0.26679945532506666,3.9302518320344315e-2
-0.26679945532506666,-2.03675"/></g><g stroke-opacity="5.0e-2" stroke="#808080" stroke-width="5.0e-3" fill="none"><polyline points="-5.189953313577139e-2,3.9302518320344315e-2
-5.189953313577139e-2,-2.03675"/></g><g stroke-opacity="5.0e-2" stroke="#808080" stroke-width="5.0e-3" fill="none"><polyline points="0.16300038905352388,3.9302518320344315e-2
0.16300038905352388,-2.03675"/></g><g stroke-opacity="5.0e-2" stroke="#808080" stroke-width="5.0e-3" fill="none"><polyline points="0.3779003112428192,3.9302518320344315e-2
0.3779003112428192,-2.03675"/></g><g stroke-opacity="5.0e-2" stroke="#808080" stroke-width="5.0e-3" fill="none"><polyline points="0.5928002334321145,3.9302518320344315e-2
0.5928002334321145,-2.03675"/></g><g stroke-opacity="5.0e-2" stroke="#808080" stroke-width="5.0e-3" fill="none"><polyline points="0.8077001556214096,3.9302518320344315e-2
0.8077001556214096,-2.03675"/></g><g stroke-opacity="5.0e-2" stroke="#808080" stroke-width="5.0e-3" fill="none"><polyline points="1.0226000778107052,3.9302518320344315e-2
1.0226000778107052,-2.03675"/></g><g stroke-opacity="5.0e-2" stroke="#808080" stroke-width="5.0e-3" fill="none"><polyline points="1.2375000000000003,3.9302518320344315e-2
1.2375000000000003,-2.03675"/></g><g fill-opacity="1.0" font-size="5.0e-2" stroke="none" stroke-width="0.0" fill="#808080" text-anchor="middle"><text x="-0.26679945532506666" y="0.17049999999999954">-0.2</text></g><g fill-opacity="1.0" font-size="5.0e-2" stroke="none" stroke-width="0.0" fill="#808080" text-anchor="middle"><text x="-5.189953313577139e-2" y="0.17049999999999954">0</text></g><g fill-opacity="1.0" font-size="5.0e-2" stroke="none" stroke-width="0.0" fill="#808080" text-anchor="middle"><text x="0.16300038905352388" y="0.17049999999999954">0.2</text></g><g fill-opacity="1.0" font-size="5.0e-2" stroke="none" stroke-width="0.0" fill="#808080" text-anchor="middle"><text x="0.3779003112428192" y="0.17049999999999954">0.4</text></g><g fill-opacity="1.0" font-size="5.0e-2" stroke="none" stroke-width="0.0" fill="#808080" text-anchor="middle"><text x="0.5928002334321145" y="0.17049999999999954">0.6</text></g><g fill-opacity="1.0" font-size="5.0e-2" stroke="none" stroke-width="0.0" fill="#808080" text-anchor="middle"><text x="0.8077001556214096" y="0.17049999999999954">0.8</text></g><g fill-opacity="1.0" font-size="5.0e-2" stroke="none" stroke-width="0.0" fill="#808080" text-anchor="middle"><text x="1.0226000778107052" y="0.17049999999999954">1</text></g><g fill-opacity="1.0" font-size="5.0e-2" stroke="none" stroke-width="0.0" fill="#808080" text-anchor="middle"><text x="1.2375000000000003" y="0.17049999999999954">1.2</text></g><g stroke-opacity="1.0" fill-opacity="1.0" stroke="#808080" stroke-width="5.0e-3" fill="#808080"><polyline points="-0.26679945532506666,9.948990927067534e-2
-0.26679945532506666,6.948990927067535e-2"/><polyline points="-5.189953313577139e-2,9.948990927067534e-2
-5.189953313577139e-2,6.948990927067535e-2"/><polyline points="0.16300038905352388,9.948990927067534e-2
0.16300038905352388,6.948990927067535e-2"/><polyline points="0.3779003112428192,9.948990927067534e-2
0.3779003112428192,6.948990927067535e-2"/><polyline points="0.5928002334321145,9.948990927067534e-2
0.5928002334321145,6.948990927067535e-2"/><polyline points="0.8077001556214096,9.948990927067534e-2
0.8077001556214096,6.948990927067535e-2"/><polyline points="1.0226000778107052,9.948990927067534e-2
1.0226000778107052,6.948990927067535e-2"/><polyline points="1.2375000000000003,9.948990927067534e-2
1.2375000000000003,6.948990927067535e-2"/></g><g stroke-opacity="1.0" fill-opacity="1.0" stroke="#808080" stroke-width="0.0" fill="#808080"><rect height="5.134930789810407e-3" width="1.504299455325067" x="-0.26679945532506666" y="6.651765150633897e-2"/></g><g stroke-opacity="0.3" fill-opacity="0.1" stroke="#33cc66" stroke-width="1.0e-2" fill="#e31a1c"><path d="M -5.189953313577139e-2,3.930251832034384e-2 L 1.022600077810705,3.930251832034384e-2 C 1.2302053296427393,-0.47971061125974224 1.282106642600748,-1.5177368704199143 1.022600077810705,-0.9987237408398283 Q -0.5146497276625333,-2.998723740839828 -5.189953313577139e-2,-0.9987237408398283 A 1.038026259160172 1.038026259160172 30.0 0 0 -5.189953313577139e-2,3.930251832034384e-2"/></g><g stroke-opacity="0.8" fill-opacity="0.3" stroke="#1f78b4" stroke-width="3.0e-3" fill="#a6cee3"><rect height="3.0e-2" width="3.0e-2" x="-6.689953313577139e-2" y="2.4302518320343844e-2"/><rect height="3.0e-2" width="2.9999999999999805e-2" x="1.007600077810705" y="2.4302518320343844e-2"/><rect height="3.0000000000000027e-2" width="2.9999999999999805e-2" x="1.007600077810705" y="-1.0137237408398283"/><rect height="3.0000000000000027e-2" width="3.0e-2" x="-6.689953313577139e-2" y="-1.0137237408398283"/><rect height="3.0e-2" width="3.0e-2" x="-6.689953313577139e-2" y="2.4302518320343844e-2"/></g></svg>