<svg width="272.2128765866339" xmlns:xlink="http://www.w3.org/1999/xlink" xmlns="http://www.w3.org/2000/svg" viewBox="-0.46683333333333343 -1.52625 1.4833333333333334 1.6347500000000008" height="300.0"><style>svg {
  color-scheme: light dark;
}
{
  .canvas g, .title g, .axisbar g, .ticktext g, .tickglyph g, .ticklines g, .legendContent g text {
    fill: #0d0d0d;
  }
  .ticklines g, .tickglyph g, .legendBorder g {
    stroke: #0d0d0d;
  }
}
@media (prefers-color-scheme:dark) {
  .canvas g, .title g, .axisbar g, .ticktext g, .tickglyph g, .ticklines g, .legendContent g text {
    fill: #f0f0f0;
  }
  .ticklines g, .tickglyph g, .legendBorder g {
    stroke: #f0f0f0;
  }
}</style><g class="chart"><g class="path"><g stroke-opacity="0.3" fill="#1f78b5" stroke="#33cc66" stroke-width="1.0e-2" fill-opacity="0.1"><path d="M 0.0476,0 L 1.0,0 C 0.2381,0 0.2857,-0.9375 1.0,-0.9375 Q -0.9048,-1.875 0.0476,-0.9375 A 0.9486825977868139 0.9412422945844034 30.0 0 0 0.0476,0"/></g><g stroke-opacity="1.0" fill="#a6cfe3" stroke="#1f78b5" stroke-width="3.0e-3" fill-opacity="1.0"><rect width="3.0e-2" x="3.261904761904767e-2" y="-1.4999999999999555e-2" height="3.0e-2"/><rect width="2.9999999999999916e-2" x="0.985" y="-1.4999999999999555e-2" height="3.0e-2"/><rect width="2.9999999999999916e-2" x="0.985" y="-0.9524999999999998" height="3.0000000000000027e-2"/><rect width="3.0e-2" x="3.261904761904767e-2" y="-0.9524999999999998" height="3.0000000000000027e-2"/><rect width="3.0e-2" x="3.261904761904767e-2" y="-1.4999999999999555e-2" height="3.0e-2"/></g></g></g><g class="hud"><g class="frame"><g stroke-opacity="0.0" fill="#ffffff" stroke="#000000" stroke-width="0.0" fill-opacity="2.0e-2"><rect width="1.3333333333333335" x="-0.33333333333333337" y="-1.5" height="1.5000000000000007"/></g></g><g class="axis"><g class="ticks"><g class="tickglyph"><g stroke-opacity="0.4" fill="#0d0d0d" stroke="#0d0d0d" stroke-width="4.0e-3" fill-opacity="0.4"><g transform="rotate(-90.0, -0.3633333333333334, 6.661338147750939e-16)"><polyline points="-0.3633333333333334,1.5000000000000666e-2
-0.3633333333333334,-1.4999999999999333e-2"/></g><g transform="rotate(-90.0, -0.3633333333333334, -0.18749999999999942)"><polyline points="-0.3633333333333334,-0.17249999999999943
-0.3633333333333334,-0.2024999999999994"/></g><g transform="rotate(-90.0, -0.3633333333333334, -0.3749999999999995)"><polyline points="-0.3633333333333334,-0.3599999999999995
-0.3633333333333334,-0.3899999999999995"/></g><g transform="rotate(-90.0, -0.3633333333333334, -0.5624999999999997)"><polyline points="-0.3633333333333334,-0.5474999999999997
-0.3633333333333334,-0.5774999999999997"/></g><g transform="rotate(-90.0, -0.3633333333333334, -0.7499999999999997)"><polyline points="-0.3633333333333334,-0.7349999999999997
-0.3633333333333334,-0.7649999999999997"/></g><g transform="rotate(-90.0, -0.3633333333333334, -0.9374999999999998)"><polyline points="-0.3633333333333334,-0.9224999999999998
-0.3633333333333334,-0.9524999999999998"/></g><g transform="rotate(-90.0, -0.3633333333333334, -1.125)"><polyline points="-0.3633333333333334,-1.11
-0.3633333333333334,-1.14"/></g><g transform="rotate(-90.0, -0.3633333333333334, -1.3125)"><polyline points="-0.3633333333333334,-1.2975
-0.3633333333333334,-1.3275"/></g><g transform="rotate(-90.0, -0.3633333333333334, -1.5)"><polyline points="-0.3633333333333334,-1.485
-0.3633333333333334,-1.515"/></g></g></g><g class="ticktext"><g fill="#0d0d0d" stroke="none" stroke-width="0.0" font-size="5.0e-2" fill-opacity="1.0" text-anchor="end"><text x="-0.39933333333333343" y="1.3750000000000668e-2">0</text><text x="-0.39933333333333343" y="-0.1737499999999994">0.2</text><text x="-0.39933333333333343" y="-0.3612499999999995">0.4</text><text x="-0.39933333333333343" y="-0.5487499999999996">0.6</text><text x="-0.39933333333333343" y="-0.7362499999999996">0.8</text><text x="-0.39933333333333343" y="-0.9237499999999997">1</text><text x="-0.39933333333333343" y="-1.11125">1.2</text><text x="-0.39933333333333343" y="-1.29875">1.4</text><text x="-0.39933333333333343" y="-1.48625">1.6</text></g></g><g class="ticklines"><g stroke-opacity="5.0e-2" fill="none" stroke="#0d0d0d" stroke-width="5.0e-3"><polyline points="-0.33333333333333337,6.661338147750939e-16
1.0,6.661338147750939e-16"/><polyline points="-0.33333333333333337,-0.18749999999999942
1.0,-0.18749999999999942"/><polyline points="-0.33333333333333337,-0.3749999999999995
1.0,-0.3749999999999995"/><polyline points="-0.33333333333333337,-0.5624999999999997
1.0,-0.5624999999999997"/><polyline points="-0.33333333333333337,-0.7499999999999997
1.0,-0.7499999999999997"/><polyline points="-0.33333333333333337,-0.9374999999999998
1.0,-0.9374999999999998"/><polyline points="-0.33333333333333337,-1.125
1.0,-1.125"/><polyline points="-0.33333333333333337,-1.3125
1.0,-1.3125"/><polyline points="-0.33333333333333337,-1.5
1.0,-1.5"/></g></g></g><g class="axisbar"><g stroke-opacity="0.0" fill="#0d0d0d" stroke="#000000" stroke-width="0.0" fill-opacity="0.4"><rect width="4.0000000000000036e-3" x="-0.3473333333333334" y="-1.502" height="1.5040000000000007"/></g></g></g><g class="axis"><g class="ticks"><g class="tickglyph"><g stroke-opacity="0.4" fill="#0d0d0d" stroke="#0d0d0d" stroke-width="4.0e-3" fill-opacity="0.4"><polyline points="-0.33333333333333337,4.5000000000000664e-2
-0.33333333333333337,1.5000000000000666e-2"/><polyline points="-0.14285714285714285,4.5000000000000664e-2
-0.14285714285714285,1.5000000000000666e-2"/><polyline points="4.761904761904767e-2,4.5000000000000664e-2
4.761904761904767e-2,1.5000000000000666e-2"/><polyline points="0.23809523809523825,4.5000000000000664e-2
0.23809523809523825,1.5000000000000666e-2"/><polyline points="0.4285714285714287,4.5000000000000664e-2
0.4285714285714287,1.5000000000000666e-2"/><polyline points="0.6190476190476192,4.5000000000000664e-2
0.6190476190476192,1.5000000000000666e-2"/><polyline points="0.8095238095238099,4.5000000000000664e-2
0.8095238095238099,1.5000000000000666e-2"/><polyline points="1.0,4.5000000000000664e-2
1.0,1.5000000000000666e-2"/></g></g><g class="ticktext"><g fill="#0d0d0d" stroke="none" stroke-width="0.0" font-size="5.0e-2" fill-opacity="1.0" text-anchor="middle"><text x="-0.33333333333333337" y="9.350000000000067e-2">-0.4</text><text x="-0.14285714285714285" y="9.350000000000067e-2">-0.2</text><text x="4.761904761904767e-2" y="9.350000000000067e-2">0</text><text x="0.23809523809523825" y="9.350000000000067e-2">0.2</text><text x="0.4285714285714287" y="9.350000000000067e-2">0.4</text><text x="0.6190476190476192" y="9.350000000000067e-2">0.6</text><text x="0.8095238095238099" y="9.350000000000067e-2">0.8</text><text x="1.0" y="9.350000000000067e-2">1</text></g></g><g class="ticklines"><g stroke-opacity="5.0e-2" fill="none" stroke="#0d0d0d" stroke-width="5.0e-3"><polyline points="-0.33333333333333337,6.661338147750939e-16
-0.33333333333333337,-1.5"/><polyline points="-0.14285714285714285,6.661338147750939e-16
-0.14285714285714285,-1.5"/><polyline points="4.761904761904767e-2,6.661338147750939e-16
4.761904761904767e-2,-1.5"/><polyline points="0.23809523809523825,6.661338147750939e-16
0.23809523809523825,-1.5"/><polyline points="0.4285714285714287,6.661338147750939e-16
0.4285714285714287,-1.5"/><polyline points="0.6190476190476192,6.661338147750939e-16
0.6190476190476192,-1.5"/><polyline points="0.8095238095238099,6.661338147750939e-16
0.8095238095238099,-1.5"/><polyline points="1.0,6.661338147750939e-16
1.0,-1.5"/></g></g></g><g class="axisbar"><g stroke-opacity="0.0" fill="#0d0d0d" stroke="#000000" stroke-width="0.0" fill-opacity="0.4"><rect width="1.3373333333333335" x="-0.33533333333333337" y="1.0000000000000666e-2" height="4.0e-3"/></g></g></g></g></svg>