<svg xmlns="http://www.w3.org/2000/svg" xmlns:xlink="http://www.w3.org/1999/xlink" width="386" height="300" viewBox="-0.6266 -0.5 1.2871 1.0"><style>svg {
  color-scheme: light dark;
}
{
  .canvas g, .title g, .axisbar g, .ticktext g, .tickglyph g, .ticklines g, .legendContent g text {
    fill: rgb(5%, 5%, 5%);
  }
  .ticklines g, .tickglyph g, .legendBorder g {
    stroke: rgb(5%, 5%, 5%);
  }
  .legendBorder g {
    fill: rgb(94%, 94%, 94%);
  }
}
@media (prefers-color-scheme:dark) {
  .canvas g, .title g, .axisbar g, .ticktext g, .tickglyph g, .ticklines g, .legendContent g text {
    fill: rgb(94%, 94%, 94%);
  }
  .ticklines g, .tickglyph g, .legendBorder g {
    stroke: rgb(94%, 94%, 94%);
  }
  .legendBorder g {
    fill: rgb(5%, 5%, 5%);
  }
}
svg { font-family: system-ui,-apple-system,"Segoe UI",Roboto,"Helvetica Neue",Arial,"Noto Sans","Liberation Sans",sans-serif,"Apple Color Emoji","Segoe UI Emoji","Segoe UI Symbol","Noto Color Emoji";
}

ticktext { font-family: SFMono-Regular,Menlo,Monaco,Consolas,"Liberation Mono","Courier New",monospace;
}


{
  .pathtext g {
    fill: rgb(5%, 5%, 5%);
  }
}
@media (prefers-color-scheme:dark) {
  .pathtext g {
    fill: rgb(94%, 94%, 94%);
  }
}
</style><g class="chart"><g class="path"><g stroke-width="0.0100" stroke="rgb(2%, 29%, 48%)" stroke-opacity="1.0" fill="rgb(2%, 73%, 80%)" fill-opacity="0.1"><path d="M -0.1186,0.3495 L 0.4147,0.3495 C -0.0119,0.3495 0.0147,-0.1838 0.4147,-0.1838 Q -0.6519,-0.7172 -0.1186,-0.1838 A 0.5333 0.5333 30.0 0 0 -0.1186,0.3495"/></g><g stroke-width="0.0030" stroke="rgb(2%, 29%, 48%)" stroke-opacity="1.0" fill="rgb(2%, 73%, 80%)" fill-opacity="0.2"><rect width="0.0300" height="0.0300" x="-0.1336" y="0.3345"/><rect width="0.0300" height="0.0300" x="0.3997" y="0.3345"/><rect width="0.0300" height="0.0300" x="0.3997" y="-0.1988"/><rect width="0.0300" height="0.0300" x="-0.1336" y="-0.1988"/><rect width="0.0300" height="0.0300" x="-0.1336" y="0.3345"/></g></g><g class="pathtext"><g stroke-width="0.0" stroke="none" fill="rgb(5%, 5%, 5%)" fill-opacity="1.0" font-size="0.0250" text-anchor="middle"><text x="-0.3053" y="0.3228">StartP (Point 0 0)</text><text x="0.1481" y="0.3228">LineP (Point 1 0)</text><text x="0.3081" y="0.0828">CubicP (Point 0.2 0) (Point 0.25 1) (Point 1 1)</text><text x="0.0947" y="-0.2372">QuadP (Point (-1) 2) (Point 0 1)</text><text x="-0.1186" y="0.1361">ArcP (ArcInfo (Point 1 1) (-pi / 6) False False) (Point 0 0)</text></g></g><g class="datapadding"></g></g><g class="hud"><g class="frame"><g stroke-width="0" stroke="rgb(0%, 0%, 0%)" stroke-opacity="0" fill="rgb(100%, 100%, 100%)" fill-opacity="0.02"><rect width="1.0778" height="0.8174" x="-0.4837" y="-0.4546"/></g></g><g class="axis"><g class="axisbar"><g stroke-width="0" stroke="rgb(0%, 0%, 0%)" stroke-opacity="0" fill="rgb(5%, 5%, 5%)" fill-opacity="0.4"><rect width="0.0032" height="0.8032" x="-0.4951" y="-0.4521"/></g></g><g class="ticks"><g class="ticklines"><g stroke-width="0.0050" stroke="rgb(5%, 5%, 5%)" stroke-opacity="0.05" fill="none"><polyline points="-0.3319,0.3495 0.4147,0.3495"/><polyline points="-0.3319,0.0828 0.4147,0.0828"/><polyline points="-0.3319,-0.1838 0.4147,-0.1838"/><polyline points="-0.3319,-0.4505 0.4147,-0.4505"/></g></g><g class="tickglyph"><g stroke-width="0.0032" stroke="rgb(5%, 5%, 5%)" stroke-opacity="0.4" fill="rgb(5%, 5%, 5%)" fill-opacity="0.4"><polyline points="-0.5178,0.3495
-0.4935,0.3495"/><polyline points="-0.5178,0.0828
-0.4935,0.0828"/><polyline points="-0.5178,-0.1838
-0.4935,-0.1838"/><polyline points="-0.5178,-0.4505
-0.4935,-0.4505"/></g></g><g class="ticktext"><g stroke-width="0.0" stroke="none" fill="rgb(5%, 5%, 5%)" fill-opacity="1.0" font-size="0.0400" text-anchor="end"><text x="-0.5357" y="0.3584">0.0</text><text x="-0.5357" y="0.0917">0.5</text><text x="-0.5357" y="-0.1749">1.0</text><text x="-0.5357" y="-0.4416">2.0</text></g></g></g></g><g class="axis"><g class="axisbar"><g stroke-width="0" stroke="rgb(0%, 0%, 0%)" stroke-opacity="0" fill="rgb(5%, 5%, 5%)" fill-opacity="0.4"><rect width="0.7499" height="0.0032" x="-0.3335" y="0.3710"/></g></g><g class="ticks"><g class="ticklines"><g stroke-width="0.0050" stroke="rgb(5%, 5%, 5%)" stroke-opacity="0.05" fill="none"><polyline points="-0.3319,0.3495 -0.3319,-0.4505"/><polyline points="-0.2253,0.3495 -0.2253,-0.4505"/><polyline points="-0.1186,0.3495 -0.1186,-0.4505"/><polyline points="-0.0119,0.3495 -0.0119,-0.4505"/><polyline points="0.0947,0.3495 0.0947,-0.4505"/><polyline points="0.2014,0.3495 0.2014,-0.4505"/><polyline points="0.3081,0.3495 0.3081,-0.4505"/><polyline points="0.4147,0.3495 0.4147,-0.4505"/></g></g><g class="tickglyph"><g stroke-width="0.0032" stroke="rgb(5%, 5%, 5%)" stroke-opacity="0.4" fill="rgb(5%, 5%, 5%)" fill-opacity="0.4"><polyline points="-0.3319,0.3969
-0.3319,0.3726"/><polyline points="-0.2253,0.3969
-0.2253,0.3726"/><polyline points="-0.1186,0.3969
-0.1186,0.3726"/><polyline points="-0.0119,0.3969
-0.0119,0.3726"/><polyline points="0.0947,0.3969
0.0947,0.3726"/><polyline points="0.2014,0.3969
0.2014,0.3726"/><polyline points="0.3081,0.3969
0.3081,0.3726"/><polyline points="0.4147,0.3969
0.4147,0.3726"/></g></g><g class="ticktext"><g stroke-width="0.0" stroke="none" fill="rgb(5%, 5%, 5%)" fill-opacity="1.0" font-size="0.0400" text-anchor="middle"><text x="-0.3319" y="0.4416">-0.4</text><text x="-0.2253" y="0.4416">-0.2</text><text x="-0.1186" y="0.4416"> 0.0</text><text x="-0.0119" y="0.4416"> 0.2</text><text x="0.0947" y="0.4416"> 0.4</text><text x="0.2014" y="0.4416"> 0.6</text><text x="0.3081" y="0.4416"> 0.8</text><text x="0.4147" y="0.4416"> 1.0</text></g></g></g></g><g class="frame"><g stroke-width="0" stroke="rgb(0%, 0%, 0%)" stroke-opacity="0" fill="rgb(0%, 0%, 0%)" fill-opacity="0"><rect width="1.2531" height="1.0" x="-0.6266" y="-0.5"/></g></g></g></svg>