<svg viewBox="-0.7803 -0.5456758961091518 1.49685 1.0556758961091517" xmlns="http://www.w3.org/2000/svg" xmlns:xlink="http://www.w3.org/1999/xlink" version="1.1" width="800.0" height="600.0"><defs><linearGradient id="pixel" x1="0.0" y1="0.0" x2="1.0" y2="0.0"><stop stop-opacity="1.0" stop-color="#666666" offset="0%" /><stop stop-opacity="1.0" stop-color="#5DA5DA" offset="100%" /></linearGradient></defs><g stroke-width="0.0" stroke="#000000" fill="#666666" fill-opacity="3.0e-2" stroke-opacity="0.0"><rect width="0.7921364038377574" height="0.5781349366942243" x="-0.3647773249890847" y="-0.49710932531652874" /></g><g stroke-width="5.0e-3" stroke="#A8E5EE" fill="none" stroke-opacity="0.3"><polyline points="-0.3677552813944898,8.102561137769554e-2 0.43033703525407785,8.102561137769554e-2" /></g><g stroke-width="5.0e-3" stroke="#A8E5EE" fill="none" stroke-opacity="0.3"><polyline points="-0.3677552813944898,2.321211770827314e-2 0.43033703525407785,2.321211770827314e-2" /></g><g stroke-width="5.0e-3" stroke="#A8E5EE" fill="none" stroke-opacity="0.3"><polyline points="-0.3677552813944898,-3.460137596114932e-2 0.43033703525407785,-3.460137596114932e-2" /></g><g stroke-width="5.0e-3" stroke="#A8E5EE" fill="none" stroke-opacity="0.3"><polyline points="-0.3677552813944898,-9.241486963057177e-2 0.43033703525407785,-9.241486963057177e-2" /></g><g stroke-width="5.0e-3" stroke="#A8E5EE" fill="none" stroke-opacity="0.3"><polyline points="-0.3677552813944898,-0.15022836329999423 0.43033703525407785,-0.15022836329999423" /></g><g stroke-width="5.0e-3" stroke="#A8E5EE" fill="none" stroke-opacity="0.3"><polyline points="-0.3677552813944898,-0.20804185696941657 0.43033703525407785,-0.20804185696941657" /></g><g stroke-width="5.0e-3" stroke="#A8E5EE" fill="none" stroke-opacity="0.3"><polyline points="-0.3677552813944898,-0.26585535063883914 0.43033703525407785,-0.26585535063883914" /></g><g stroke-width="5.0e-3" stroke="#A8E5EE" fill="none" stroke-opacity="0.3"><polyline points="-0.3677552813944898,-0.3236688443082615 0.43033703525407785,-0.3236688443082615" /></g><g stroke-width="5.0e-3" stroke="#A8E5EE" fill="none" stroke-opacity="0.3"><polyline points="-0.3677552813944898,-0.38148233797768394 0.43033703525407785,-0.38148233797768394" /></g><g stroke-width="5.0e-3" stroke="#A8E5EE" fill="none" stroke-opacity="0.3"><polyline points="-0.3677552813944898,-0.4392958316471064 0.43033703525407785,-0.4392958316471064" /></g><g stroke-width="5.0e-3" stroke="#A8E5EE" fill="none" stroke-opacity="0.3"><polyline points="-0.3677552813944898,-0.49710932531652874 0.43033703525407785,-0.49710932531652874" /></g><g stroke-width="0.0" stroke="none" fill="#666666" fill-opacity="1.0" font-size="5.0e-2" text-anchor="end"><text x="-0.665" y="8.940856795976176e-2">-0.5</text></g><g stroke-width="0.0" stroke="none" fill="#666666" fill-opacity="1.0" font-size="5.0e-2" text-anchor="end"><text x="-0.665" y="3.159507429033942e-2">-0.4</text></g><g stroke-width="0.0" stroke="none" fill="#666666" fill-opacity="1.0" font-size="5.0e-2" text-anchor="end"><text x="-0.665" y="-2.621841937908309e-2">-0.3</text></g><g stroke-width="0.0" stroke="none" fill="#666666" fill-opacity="1.0" font-size="5.0e-2" text-anchor="end"><text x="-0.665" y="-8.403191304850555e-2">-0.2</text></g><g stroke-width="0.0" stroke="none" fill="#666666" fill-opacity="1.0" font-size="5.0e-2" text-anchor="end"><text x="-0.665" y="-0.1418454067179279">-0.1</text></g><g stroke-width="0.0" stroke="none" fill="#666666" fill-opacity="1.0" font-size="5.0e-2" text-anchor="end"><text x="-0.665" y="-0.19965890038735035">0.0</text></g><g stroke-width="0.0" stroke="none" fill="#666666" fill-opacity="1.0" font-size="5.0e-2" text-anchor="end"><text x="-0.665" y="-0.2574723940567729">0.1</text></g><g stroke-width="0.0" stroke="none" fill="#666666" fill-opacity="1.0" font-size="5.0e-2" text-anchor="end"><text x="-0.665" y="-0.31528588772619526">0.2</text></g><g stroke-width="0.0" stroke="none" fill="#666666" fill-opacity="1.0" font-size="5.0e-2" text-anchor="end"><text x="-0.665" y="-0.3730993813956177">0.3</text></g><g stroke-width="0.0" stroke="none" fill="#666666" fill-opacity="1.0" font-size="5.0e-2" text-anchor="end"><text x="-0.665" y="-0.43091287506504006">0.4</text></g><g stroke-width="0.0" stroke="none" fill="#666666" fill-opacity="1.0" font-size="5.0e-2" text-anchor="end"><text x="-0.665" y="-0.4887263687344625">0.5</text></g><g stroke-width="0.0" stroke="#2C429D" fill="#5F0391" fill-opacity="1.0" stroke-opacity="0.4"><line stroke-width="5.0e-3" transform="rotate(-90.0, -0.6470875922214885, 8.102561137769554e-2)" x1="-0.6470875922214885" y1="9.602561137769554e-2" x2="-0.6470875922214885" y2="6.602561137769554e-2" /><line stroke-width="5.0e-3" transform="rotate(-90.0, -0.6470875922214885, 2.321211770827314e-2)" x1="-0.6470875922214885" y1="3.821211770827314e-2" x2="-0.6470875922214885" y2="8.21211770827314e-3" /><line stroke-width="5.0e-3" transform="rotate(-90.0, -0.6470875922214885, -3.460137596114932e-2)" x1="-0.6470875922214885" y1="-1.9601375961149317e-2" x2="-0.6470875922214885" y2="-4.9601375961149316e-2" /><line stroke-width="5.0e-3" transform="rotate(-90.0, -0.6470875922214885, -9.241486963057177e-2)" x1="-0.6470875922214885" y1="-7.741486963057177e-2" x2="-0.6470875922214885" y2="-0.10741486963057177" /><line stroke-width="5.0e-3" transform="rotate(-90.0, -0.6470875922214885, -0.15022836329999423)" x1="-0.6470875922214885" y1="-0.13522836329999421" x2="-0.6470875922214885" y2="-0.16522836329999424" /><line stroke-width="5.0e-3" transform="rotate(-90.0, -0.6470875922214885, -0.20804185696941657)" x1="-0.6470875922214885" y1="-0.19304185696941656" x2="-0.6470875922214885" y2="-0.22304185696941659" /><line stroke-width="5.0e-3" transform="rotate(-90.0, -0.6470875922214885, -0.26585535063883914)" x1="-0.6470875922214885" y1="-0.2508553506388391" x2="-0.6470875922214885" y2="-0.28085535063883915" /><line stroke-width="5.0e-3" transform="rotate(-90.0, -0.6470875922214885, -0.3236688443082615)" x1="-0.6470875922214885" y1="-0.30866884430826147" x2="-0.6470875922214885" y2="-0.3386688443082615" /><line stroke-width="5.0e-3" transform="rotate(-90.0, -0.6470875922214885, -0.38148233797768394)" x1="-0.6470875922214885" y1="-0.3664823379776839" x2="-0.6470875922214885" y2="-0.39648233797768395" /><line stroke-width="5.0e-3" transform="rotate(-90.0, -0.6470875922214885, -0.4392958316471064)" x1="-0.6470875922214885" y1="-0.4242958316471064" x2="-0.6470875922214885" y2="-0.4542958316471064" /><line stroke-width="5.0e-3" transform="rotate(-90.0, -0.6470875922214885, -0.49710932531652874)" x1="-0.6470875922214885" y1="-0.4821093253165287" x2="-0.6470875922214885" y2="-0.5121093253165288" /></g><g stroke-width="0.0" stroke="#666666" fill="#5F0391" fill-opacity="0.5" stroke-opacity="0.0"><rect width="2.977956405404991e-3" height="0.5781349366942243" x="-0.6411316794106782" y="-0.49710932531652874" /></g><g stroke-width="5.0e-3" stroke="#A8E5EE" fill="none" stroke-opacity="0.3"><polyline points="-0.602418246140412,8.391628606116669e-2 -0.602418246140412,-0.5" /></g><g stroke-width="5.0e-3" stroke="#A8E5EE" fill="none" stroke-opacity="0.3"><polyline points="-0.4439909653728605,8.391628606116669e-2 -0.4439909653728605,-0.5" /></g><g stroke-width="5.0e-3" stroke="#A8E5EE" fill="none" stroke-opacity="0.3"><polyline points="-0.28556368460530895,8.391628606116669e-2 -0.28556368460530895,-0.5" /></g><g stroke-width="5.0e-3" stroke="#A8E5EE" fill="none" stroke-opacity="0.3"><polyline points="-0.12713640383775737,8.391628606116669e-2 -0.12713640383775737,-0.5" /></g><g stroke-width="5.0e-3" stroke="#A8E5EE" fill="none" stroke-opacity="0.3"><polyline points="3.1290876929794154e-2,8.391628606116669e-2 3.1290876929794154e-2,-0.5" /></g><g stroke-width="5.0e-3" stroke="#A8E5EE" fill="none" stroke-opacity="0.3"><polyline points="0.18971815769734557,8.391628606116669e-2 0.18971815769734557,-0.5" /></g><g stroke-width="5.0e-3" stroke="#A8E5EE" fill="none" stroke-opacity="0.3"><polyline points="0.3481454384648972,8.391628606116669e-2 0.3481454384648972,-0.5" /></g><g stroke-width="5.0e-3" stroke="#A8E5EE" fill="none" stroke-opacity="0.3"><polyline points="0.5065727192324485,8.391628606116669e-2 0.5065727192324485,-0.5" /></g><g stroke-width="5.0e-3" stroke="#A8E5EE" fill="none" stroke-opacity="0.3"><polyline points="0.665,8.391628606116669e-2 0.665,-0.5" /></g><g stroke-width="0.0" stroke="none" fill="#666666" fill-opacity="1.0" font-size="5.0e-2" text-anchor="middle"><text x="-0.602418246140412" y="0.14245244840145693">-0.8</text></g><g stroke-width="0.0" stroke="none" fill="#666666" fill-opacity="1.0" font-size="5.0e-2" text-anchor="middle"><text x="-0.4439909653728605" y="0.14245244840145693">-0.6</text></g><g stroke-width="0.0" stroke="none" fill="#666666" fill-opacity="1.0" font-size="5.0e-2" text-anchor="middle"><text x="-0.28556368460530895" y="0.14245244840145693">-0.4</text></g><g stroke-width="0.0" stroke="none" fill="#666666" fill-opacity="1.0" font-size="5.0e-2" text-anchor="middle"><text x="-0.12713640383775737" y="0.14245244840145693">-0.2</text></g><g stroke-width="0.0" stroke="none" fill="#666666" fill-opacity="1.0" font-size="5.0e-2" text-anchor="middle"><text x="3.1290876929794154e-2" y="0.14245244840145693">0.0</text></g><g stroke-width="0.0" stroke="none" fill="#666666" fill-opacity="1.0" font-size="5.0e-2" text-anchor="middle"><text x="0.18971815769734557" y="0.14245244840145693">0.2</text></g><g stroke-width="0.0" stroke="none" fill="#666666" fill-opacity="1.0" font-size="5.0e-2" text-anchor="middle"><text x="0.3481454384648972" y="0.14245244840145693">0.4</text></g><g stroke-width="0.0" stroke="none" fill="#666666" fill-opacity="1.0" font-size="5.0e-2" text-anchor="middle"><text x="0.5065727192324485" y="0.14245244840145693">0.6</text></g><g stroke-width="0.0" stroke="none" fill="#666666" fill-opacity="1.0" font-size="5.0e-2" text-anchor="middle"><text x="0.665" y="0.14245244840145693">0.8</text></g><g stroke-width="0.0" stroke="#2C429D" fill="#5F0391" fill-opacity="1.0" stroke-opacity="0.4"><line stroke-width="5.0e-3" x1="-0.602418246140412" y1="0.11047898479505118" x2="-0.602418246140412" y2="8.047898479505118e-2" /><line stroke-width="5.0e-3" x1="-0.4439909653728605" y1="0.11047898479505118" x2="-0.4439909653728605" y2="8.047898479505118e-2" /><line stroke-width="5.0e-3" x1="-0.28556368460530895" y1="0.11047898479505118" x2="-0.28556368460530895" y2="8.047898479505118e-2" /><line stroke-width="5.0e-3" x1="-0.12713640383775737" y1="0.11047898479505118" x2="-0.12713640383775737" y2="8.047898479505118e-2" /><line stroke-width="5.0e-3" x1="3.1290876929794154e-2" y1="0.11047898479505118" x2="3.1290876929794154e-2" y2="8.047898479505118e-2" /><line stroke-width="5.0e-3" x1="0.18971815769734557" y1="0.11047898479505118" x2="0.18971815769734557" y2="8.047898479505118e-2" /><line stroke-width="5.0e-3" x1="0.3481454384648972" y1="0.11047898479505118" x2="0.3481454384648972" y2="8.047898479505118e-2" /><line stroke-width="5.0e-3" x1="0.5065727192324485" y1="0.11047898479505118" x2="0.5065727192324485" y2="8.047898479505118e-2" /><line stroke-width="5.0e-3" x1="0.665" y1="0.11047898479505118" x2="0.665" y2="8.047898479505118e-2" /></g><g stroke-width="0.0" stroke="#666666" fill="#5F0391" fill-opacity="0.5" stroke-opacity="0.0"><rect width="0.7921364038377574" height="2.8906746834711505e-3" x="-0.3647773249890847" y="8.680696074463778e-2" /></g><g stroke-width="0.0" stroke="#000000" fill="#666666" fill-opacity="1.0" stroke-opacity="0.0"><rect width="7.921364038377576e-2" height="5.78134936694224e-2" x="-0.3647773249890847" y="2.321211770827314e-2" /></g><g stroke-width="0.0" stroke="#000000" fill="#64747F" fill-opacity="1.0" stroke-opacity="0.0"><rect width="7.921364038377576e-2" height="5.7813493669422455e-2" x="-0.3647773249890847" y="-3.460137596114932e-2" /></g><g stroke-width="0.0" stroke="#000000" fill="#637C8F" fill-opacity="1.0" stroke-opacity="0.0"><rect width="7.921364038377576e-2" height="5.7813493669422455e-2" x="-0.3647773249890847" y="-9.241486963057177e-2" /></g><g stroke-width="0.0" stroke="#000000" fill="#628299" fill-opacity="1.0" stroke-opacity="0.0"><rect width="7.921364038377576e-2" height="5.7813493669422455e-2" x="-0.3647773249890847" y="-0.15022836329999423" /></g><g stroke-width="0.0" stroke="#000000" fill="#62849E" fill-opacity="1.0" stroke-opacity="0.0"><rect width="7.921364038377576e-2" height="5.7813493669422344e-2" x="-0.3647773249890847" y="-0.20804185696941657" /></g><g stroke-width="0.0" stroke="#000000" fill="#62849E" fill-opacity="1.0" stroke-opacity="0.0"><rect width="7.921364038377576e-2" height="5.7813493669422344e-2" x="-0.3647773249890847" y="-0.2658553506388389" /></g><g stroke-width="0.0" stroke="#000000" fill="#628299" fill-opacity="1.0" stroke-opacity="0.0"><rect width="7.921364038377576e-2" height="5.7813493669422344e-2" x="-0.3647773249890847" y="-0.3236688443082615" /></g><g stroke-width="0.0" stroke="#000000" fill="#637C8F" fill-opacity="1.0" stroke-opacity="0.0"><rect width="7.921364038377576e-2" height="5.7813493669422455e-2" x="-0.3647773249890847" y="-0.38148233797768394" /></g><g stroke-width="0.0" stroke="#000000" fill="#64747F" fill-opacity="1.0" stroke-opacity="0.0"><rect width="7.921364038377576e-2" height="5.7813493669422455e-2" x="-0.3647773249890847" y="-0.4392958316471064" /></g><g stroke-width="0.0" stroke="#000000" fill="#666666" fill-opacity="1.0" stroke-opacity="0.0"><rect width="7.921364038377576e-2" height="5.7813493669422344e-2" x="-0.3647773249890847" y="-0.49710932531652874" /></g><g stroke-width="0.0" stroke="#000000" fill="#64747F" fill-opacity="1.0" stroke-opacity="0.0"><rect width="7.921364038377576e-2" height="5.78134936694224e-2" x="-0.28556368460530895" y="2.321211770827314e-2" /></g><g stroke-width="0.0" stroke="#000000" fill="#628299" fill-opacity="1.0" stroke-opacity="0.0"><rect width="7.921364038377576e-2" height="5.7813493669422455e-2" x="-0.28556368460530895" y="-3.460137596114932e-2" /></g><g stroke-width="0.0" stroke="#000000" fill="#618BAA" fill-opacity="1.0" stroke-opacity="0.0"><rect width="7.921364038377576e-2" height="5.7813493669422455e-2" x="-0.28556368460530895" y="-9.241486963057177e-2" /></g><g stroke-width="0.0" stroke="#000000" fill="#6090B4" fill-opacity="1.0" stroke-opacity="0.0"><rect width="7.921364038377576e-2" height="5.7813493669422455e-2" x="-0.28556368460530895" y="-0.15022836329999423" /></g><g stroke-width="0.0" stroke="#000000" fill="#6093B9" fill-opacity="1.0" stroke-opacity="0.0"><rect width="7.921364038377576e-2" height="5.7813493669422344e-2" x="-0.28556368460530895" y="-0.20804185696941657" /></g><g stroke-width="0.0" stroke="#000000" fill="#6093B9" fill-opacity="1.0" stroke-opacity="0.0"><rect width="7.921364038377576e-2" height="5.7813493669422344e-2" x="-0.28556368460530895" y="-0.2658553506388389" /></g><g stroke-width="0.0" stroke="#000000" fill="#6090B4" fill-opacity="1.0" stroke-opacity="0.0"><rect width="7.921364038377576e-2" height="5.7813493669422344e-2" x="-0.28556368460530895" y="-0.3236688443082615" /></g><g stroke-width="0.0" stroke="#000000" fill="#618BAA" fill-opacity="1.0" stroke-opacity="0.0"><rect width="7.921364038377576e-2" height="5.7813493669422455e-2" x="-0.28556368460530895" y="-0.38148233797768394" /></g><g stroke-width="0.0" stroke="#000000" fill="#628299" fill-opacity="1.0" stroke-opacity="0.0"><rect width="7.921364038377576e-2" height="5.7813493669422455e-2" x="-0.28556368460530895" y="-0.4392958316471064" /></g><g stroke-width="0.0" stroke="#000000" fill="#64747F" fill-opacity="1.0" stroke-opacity="0.0"><rect width="7.921364038377576e-2" height="5.7813493669422344e-2" x="-0.28556368460530895" y="-0.49710932531652874" /></g><g stroke-width="0.0" stroke="#000000" fill="#637C8F" fill-opacity="1.0" stroke-opacity="0.0"><rect width="7.921364038377582e-2" height="5.78134936694224e-2" x="-0.2063500442215332" y="2.321211770827314e-2" /></g><g stroke-width="0.0" stroke="#000000" fill="#618BAA" fill-opacity="1.0" stroke-opacity="0.0"><rect width="7.921364038377582e-2" height="5.7813493669422455e-2" x="-0.2063500442215332" y="-3.460137596114932e-2" /></g><g stroke-width="0.0" stroke="#000000" fill="#5F94BB" fill-opacity="1.0" stroke-opacity="0.0"><rect width="7.921364038377582e-2" height="5.7813493669422455e-2" x="-0.2063500442215332" y="-9.241486963057177e-2" /></g><g stroke-width="0.0" stroke="#000000" fill="#5F9AC5" fill-opacity="1.0" stroke-opacity="0.0"><rect width="7.921364038377582e-2" height="5.7813493669422455e-2" x="-0.2063500442215332" y="-0.15022836329999423" /></g><g stroke-width="0.0" stroke="#000000" fill="#5E9CCA" fill-opacity="1.0" stroke-opacity="0.0"><rect width="7.921364038377582e-2" height="5.7813493669422344e-2" x="-0.2063500442215332" y="-0.20804185696941657" /></g><g stroke-width="0.0" stroke="#000000" fill="#5E9CCA" fill-opacity="1.0" stroke-opacity="0.0"><rect width="7.921364038377582e-2" height="5.7813493669422344e-2" x="-0.2063500442215332" y="-0.2658553506388389" /></g><g stroke-width="0.0" stroke="#000000" fill="#5F9AC5" fill-opacity="1.0" stroke-opacity="0.0"><rect width="7.921364038377582e-2" height="5.7813493669422344e-2" x="-0.2063500442215332" y="-0.3236688443082615" /></g><g stroke-width="0.0" stroke="#000000" fill="#5F94BB" fill-opacity="1.0" stroke-opacity="0.0"><rect width="7.921364038377582e-2" height="5.7813493669422455e-2" x="-0.2063500442215332" y="-0.38148233797768394" /></g><g stroke-width="0.0" stroke="#000000" fill="#618BAA" fill-opacity="1.0" stroke-opacity="0.0"><rect width="7.921364038377582e-2" height="5.7813493669422455e-2" x="-0.2063500442215332" y="-0.4392958316471064" /></g><g stroke-width="0.0" stroke="#000000" fill="#637C8F" fill-opacity="1.0" stroke-opacity="0.0"><rect width="7.921364038377582e-2" height="5.7813493669422344e-2" x="-0.2063500442215332" y="-0.49710932531652874" /></g><g stroke-width="0.0" stroke="#000000" fill="#628299" fill-opacity="1.0" stroke-opacity="0.0"><rect width="7.921364038377565e-2" height="5.78134936694224e-2" x="-0.12713640383775737" y="2.321211770827314e-2" /></g><g stroke-width="0.0" stroke="#000000" fill="#6090B4" fill-opacity="1.0" stroke-opacity="0.0"><rect width="7.921364038377565e-2" height="5.7813493669422455e-2" x="-0.12713640383775737" y="-3.460137596114932e-2" /></g><g stroke-width="0.0" stroke="#000000" fill="#5F9AC5" fill-opacity="1.0" stroke-opacity="0.0"><rect width="7.921364038377565e-2" height="5.7813493669422455e-2" x="-0.12713640383775737" y="-9.241486963057177e-2" /></g><g stroke-width="0.0" stroke="#000000" fill="#5EA0D0" fill-opacity="1.0" stroke-opacity="0.0"><rect width="7.921364038377565e-2" height="5.7813493669422455e-2" x="-0.12713640383775737" y="-0.15022836329999423" /></g><g stroke-width="0.0" stroke="#000000" fill="#5DA2D5" fill-opacity="1.0" stroke-opacity="0.0"><rect width="7.921364038377565e-2" height="5.7813493669422344e-2" x="-0.12713640383775737" y="-0.20804185696941657" /></g><g stroke-width="0.0" stroke="#000000" fill="#5DA2D5" fill-opacity="1.0" stroke-opacity="0.0"><rect width="7.921364038377565e-2" height="5.7813493669422344e-2" x="-0.12713640383775737" y="-0.2658553506388389" /></g><g stroke-width="0.0" stroke="#000000" fill="#5EA0D0" fill-opacity="1.0" stroke-opacity="0.0"><rect width="7.921364038377565e-2" height="5.7813493669422344e-2" x="-0.12713640383775737" y="-0.3236688443082615" /></g><g stroke-width="0.0" stroke="#000000" fill="#5F9AC5" fill-opacity="1.0" stroke-opacity="0.0"><rect width="7.921364038377565e-2" height="5.7813493669422455e-2" x="-0.12713640383775737" y="-0.38148233797768394" /></g><g stroke-width="0.0" stroke="#000000" fill="#6090B4" fill-opacity="1.0" stroke-opacity="0.0"><rect width="7.921364038377565e-2" height="5.7813493669422455e-2" x="-0.12713640383775737" y="-0.4392958316471064" /></g><g stroke-width="0.0" stroke="#000000" fill="#628299" fill-opacity="1.0" stroke-opacity="0.0"><rect width="7.921364038377565e-2" height="5.7813493669422344e-2" x="-0.12713640383775737" y="-0.49710932531652874" /></g><g stroke-width="0.0" stroke="#000000" fill="#62849E" fill-opacity="1.0" stroke-opacity="0.0"><rect width="7.921364038377587e-2" height="5.78134936694224e-2" x="-4.792276345398172e-2" y="2.321211770827314e-2" /></g><g stroke-width="0.0" stroke="#000000" fill="#6093B9" fill-opacity="1.0" stroke-opacity="0.0"><rect width="7.921364038377587e-2" height="5.7813493669422455e-2" x="-4.792276345398172e-2" y="-3.460137596114932e-2" /></g><g stroke-width="0.0" stroke="#000000" fill="#5E9CCA" fill-opacity="1.0" stroke-opacity="0.0"><rect width="7.921364038377587e-2" height="5.7813493669422455e-2" x="-4.792276345398172e-2" y="-9.241486963057177e-2" /></g><g stroke-width="0.0" stroke="#000000" fill="#5DA2D5" fill-opacity="1.0" stroke-opacity="0.0"><rect width="7.921364038377587e-2" height="5.7813493669422455e-2" x="-4.792276345398172e-2" y="-0.15022836329999423" /></g><g stroke-width="0.0" stroke="#000000" fill="#5DA5DA" fill-opacity="1.0" stroke-opacity="0.0"><rect width="7.921364038377587e-2" height="5.7813493669422344e-2" x="-4.792276345398172e-2" y="-0.20804185696941657" /></g><g stroke-width="0.0" stroke="#000000" fill="#5DA5DA" fill-opacity="1.0" stroke-opacity="0.0"><rect width="7.921364038377587e-2" height="5.7813493669422344e-2" x="-4.792276345398172e-2" y="-0.2658553506388389" /></g><g stroke-width="0.0" stroke="#000000" fill="#5DA2D5" fill-opacity="1.0" stroke-opacity="0.0"><rect width="7.921364038377587e-2" height="5.7813493669422344e-2" x="-4.792276345398172e-2" y="-0.3236688443082615" /></g><g stroke-width="0.0" stroke="#000000" fill="#5E9CCA" fill-opacity="1.0" stroke-opacity="0.0"><rect width="7.921364038377587e-2" height="5.7813493669422455e-2" x="-4.792276345398172e-2" y="-0.38148233797768394" /></g><g stroke-width="0.0" stroke="#000000" fill="#6093B9" fill-opacity="1.0" stroke-opacity="0.0"><rect width="7.921364038377587e-2" height="5.7813493669422455e-2" x="-4.792276345398172e-2" y="-0.4392958316471064" /></g><g stroke-width="0.0" stroke="#000000" fill="#62849E" fill-opacity="1.0" stroke-opacity="0.0"><rect width="7.921364038377587e-2" height="5.7813493669422344e-2" x="-4.792276345398172e-2" y="-0.49710932531652874" /></g><g stroke-width="0.0" stroke="#000000" fill="#62849E" fill-opacity="1.0" stroke-opacity="0.0"><rect width="7.921364038377565e-2" height="5.78134936694224e-2" x="3.1290876929794154e-2" y="2.321211770827314e-2" /></g><g stroke-width="0.0" stroke="#000000" fill="#6093B9" fill-opacity="1.0" stroke-opacity="0.0"><rect width="7.921364038377565e-2" height="5.7813493669422455e-2" x="3.1290876929794154e-2" y="-3.460137596114932e-2" /></g><g stroke-width="0.0" stroke="#000000" fill="#5E9CCA" fill-opacity="1.0" stroke-opacity="0.0"><rect width="7.921364038377565e-2" height="5.7813493669422455e-2" x="3.1290876929794154e-2" y="-9.241486963057177e-2" /></g><g stroke-width="0.0" stroke="#000000" fill="#5DA2D5" fill-opacity="1.0" stroke-opacity="0.0"><rect width="7.921364038377565e-2" height="5.7813493669422455e-2" x="3.1290876929794154e-2" y="-0.15022836329999423" /></g><g stroke-width="0.0" stroke="#000000" fill="#5DA5DA" fill-opacity="1.0" stroke-opacity="0.0"><rect width="7.921364038377565e-2" height="5.7813493669422344e-2" x="3.1290876929794154e-2" y="-0.20804185696941657" /></g><g stroke-width="0.0" stroke="#000000" fill="#5DA5DA" fill-opacity="1.0" stroke-opacity="0.0"><rect width="7.921364038377565e-2" height="5.7813493669422344e-2" x="3.1290876929794154e-2" y="-0.2658553506388389" /></g><g stroke-width="0.0" stroke="#000000" fill="#5DA2D5" fill-opacity="1.0" stroke-opacity="0.0"><rect width="7.921364038377565e-2" height="5.7813493669422344e-2" x="3.1290876929794154e-2" y="-0.3236688443082615" /></g><g stroke-width="0.0" stroke="#000000" fill="#5E9CCA" fill-opacity="1.0" stroke-opacity="0.0"><rect width="7.921364038377565e-2" height="5.7813493669422455e-2" x="3.1290876929794154e-2" y="-0.38148233797768394" /></g><g stroke-width="0.0" stroke="#000000" fill="#6093B9" fill-opacity="1.0" stroke-opacity="0.0"><rect width="7.921364038377565e-2" height="5.7813493669422455e-2" x="3.1290876929794154e-2" y="-0.4392958316471064" /></g><g stroke-width="0.0" stroke="#000000" fill="#62849E" fill-opacity="1.0" stroke-opacity="0.0"><rect width="7.921364038377565e-2" height="5.7813493669422344e-2" x="3.1290876929794154e-2" y="-0.49710932531652874" /></g><g stroke-width="0.0" stroke="#000000" fill="#628299" fill-opacity="1.0" stroke-opacity="0.0"><rect width="7.921364038377576e-2" height="5.78134936694224e-2" x="0.1105045173135698" y="2.321211770827314e-2" /></g><g stroke-width="0.0" stroke="#000000" fill="#6090B4" fill-opacity="1.0" stroke-opacity="0.0"><rect width="7.921364038377576e-2" height="5.7813493669422455e-2" x="0.1105045173135698" y="-3.460137596114932e-2" /></g><g stroke-width="0.0" stroke="#000000" fill="#5F9AC5" fill-opacity="1.0" stroke-opacity="0.0"><rect width="7.921364038377576e-2" height="5.7813493669422455e-2" x="0.1105045173135698" y="-9.241486963057177e-2" /></g><g stroke-width="0.0" stroke="#000000" fill="#5EA0D0" fill-opacity="1.0" stroke-opacity="0.0"><rect width="7.921364038377576e-2" height="5.7813493669422455e-2" x="0.1105045173135698" y="-0.15022836329999423" /></g><g stroke-width="0.0" stroke="#000000" fill="#5DA2D5" fill-opacity="1.0" stroke-opacity="0.0"><rect width="7.921364038377576e-2" height="5.7813493669422344e-2" x="0.1105045173135698" y="-0.20804185696941657" /></g><g stroke-width="0.0" stroke="#000000" fill="#5DA2D5" fill-opacity="1.0" stroke-opacity="0.0"><rect width="7.921364038377576e-2" height="5.7813493669422344e-2" x="0.1105045173135698" y="-0.2658553506388389" /></g><g stroke-width="0.0" stroke="#000000" fill="#5EA0D0" fill-opacity="1.0" stroke-opacity="0.0"><rect width="7.921364038377576e-2" height="5.7813493669422344e-2" x="0.1105045173135698" y="-0.3236688443082615" /></g><g stroke-width="0.0" stroke="#000000" fill="#5F9AC5" fill-opacity="1.0" stroke-opacity="0.0"><rect width="7.921364038377576e-2" height="5.7813493669422455e-2" x="0.1105045173135698" y="-0.38148233797768394" /></g><g stroke-width="0.0" stroke="#000000" fill="#6090B4" fill-opacity="1.0" stroke-opacity="0.0"><rect width="7.921364038377576e-2" height="5.7813493669422455e-2" x="0.1105045173135698" y="-0.4392958316471064" /></g><g stroke-width="0.0" stroke="#000000" fill="#628299" fill-opacity="1.0" stroke-opacity="0.0"><rect width="7.921364038377576e-2" height="5.7813493669422344e-2" x="0.1105045173135698" y="-0.49710932531652874" /></g><g stroke-width="0.0" stroke="#000000" fill="#637C8F" fill-opacity="1.0" stroke-opacity="0.0"><rect width="7.921364038377565e-2" height="5.78134936694224e-2" x="0.18971815769734557" y="2.321211770827314e-2" /></g><g stroke-width="0.0" stroke="#000000" fill="#618BAA" fill-opacity="1.0" stroke-opacity="0.0"><rect width="7.921364038377565e-2" height="5.7813493669422455e-2" x="0.18971815769734557" y="-3.460137596114932e-2" /></g><g stroke-width="0.0" stroke="#000000" fill="#5F94BB" fill-opacity="1.0" stroke-opacity="0.0"><rect width="7.921364038377565e-2" height="5.7813493669422455e-2" x="0.18971815769734557" y="-9.241486963057177e-2" /></g><g stroke-width="0.0" stroke="#000000" fill="#5F9AC5" fill-opacity="1.0" stroke-opacity="0.0"><rect width="7.921364038377565e-2" height="5.7813493669422455e-2" x="0.18971815769734557" y="-0.15022836329999423" /></g><g stroke-width="0.0" stroke="#000000" fill="#5E9CCA" fill-opacity="1.0" stroke-opacity="0.0"><rect width="7.921364038377565e-2" height="5.7813493669422344e-2" x="0.18971815769734557" y="-0.20804185696941657" /></g><g stroke-width="0.0" stroke="#000000" fill="#5E9CCA" fill-opacity="1.0" stroke-opacity="0.0"><rect width="7.921364038377565e-2" height="5.7813493669422344e-2" x="0.18971815769734557" y="-0.2658553506388389" /></g><g stroke-width="0.0" stroke="#000000" fill="#5F9AC5" fill-opacity="1.0" stroke-opacity="0.0"><rect width="7.921364038377565e-2" height="5.7813493669422344e-2" x="0.18971815769734557" y="-0.3236688443082615" /></g><g stroke-width="0.0" stroke="#000000" fill="#5F94BB" fill-opacity="1.0" stroke-opacity="0.0"><rect width="7.921364038377565e-2" height="5.7813493669422455e-2" x="0.18971815769734557" y="-0.38148233797768394" /></g><g stroke-width="0.0" stroke="#000000" fill="#618BAA" fill-opacity="1.0" stroke-opacity="0.0"><rect width="7.921364038377565e-2" height="5.7813493669422455e-2" x="0.18971815769734557" y="-0.4392958316471064" /></g><g stroke-width="0.0" stroke="#000000" fill="#637C8F" fill-opacity="1.0" stroke-opacity="0.0"><rect width="7.921364038377565e-2" height="5.7813493669422344e-2" x="0.18971815769734557" y="-0.49710932531652874" /></g><g stroke-width="0.0" stroke="#000000" fill="#64747F" fill-opacity="1.0" stroke-opacity="0.0"><rect width="7.921364038377576e-2" height="5.78134936694224e-2" x="0.2689317980811212" y="2.321211770827314e-2" /></g><g stroke-width="0.0" stroke="#000000" fill="#628299" fill-opacity="1.0" stroke-opacity="0.0"><rect width="7.921364038377576e-2" height="5.7813493669422455e-2" x="0.2689317980811212" y="-3.460137596114932e-2" /></g><g stroke-width="0.0" stroke="#000000" fill="#618BAA" fill-opacity="1.0" stroke-opacity="0.0"><rect width="7.921364038377576e-2" height="5.7813493669422455e-2" x="0.2689317980811212" y="-9.241486963057177e-2" /></g><g stroke-width="0.0" stroke="#000000" fill="#6090B4" fill-opacity="1.0" stroke-opacity="0.0"><rect width="7.921364038377576e-2" height="5.7813493669422455e-2" x="0.2689317980811212" y="-0.15022836329999423" /></g><g stroke-width="0.0" stroke="#000000" fill="#6093B9" fill-opacity="1.0" stroke-opacity="0.0"><rect width="7.921364038377576e-2" height="5.7813493669422344e-2" x="0.2689317980811212" y="-0.20804185696941657" /></g><g stroke-width="0.0" stroke="#000000" fill="#6093B9" fill-opacity="1.0" stroke-opacity="0.0"><rect width="7.921364038377576e-2" height="5.7813493669422344e-2" x="0.2689317980811212" y="-0.2658553506388389" /></g><g stroke-width="0.0" stroke="#000000" fill="#6090B4" fill-opacity="1.0" stroke-opacity="0.0"><rect width="7.921364038377576e-2" height="5.7813493669422344e-2" x="0.2689317980811212" y="-0.3236688443082615" /></g><g stroke-width="0.0" stroke="#000000" fill="#618BAA" fill-opacity="1.0" stroke-opacity="0.0"><rect width="7.921364038377576e-2" height="5.7813493669422455e-2" x="0.2689317980811212" y="-0.38148233797768394" /></g><g stroke-width="0.0" stroke="#000000" fill="#628299" fill-opacity="1.0" stroke-opacity="0.0"><rect width="7.921364038377576e-2" height="5.7813493669422455e-2" x="0.2689317980811212" y="-0.4392958316471064" /></g><g stroke-width="0.0" stroke="#000000" fill="#64747F" fill-opacity="1.0" stroke-opacity="0.0"><rect width="7.921364038377576e-2" height="5.7813493669422344e-2" x="0.2689317980811212" y="-0.49710932531652874" /></g><g stroke-width="0.0" stroke="#000000" fill="#666666" fill-opacity="1.0" stroke-opacity="0.0"><rect width="7.921364038377576e-2" height="5.78134936694224e-2" x="0.348145438464897" y="2.321211770827314e-2" /></g><g stroke-width="0.0" stroke="#000000" fill="#64747F" fill-opacity="1.0" stroke-opacity="0.0"><rect width="7.921364038377576e-2" height="5.7813493669422455e-2" x="0.348145438464897" y="-3.460137596114932e-2" /></g><g stroke-width="0.0" stroke="#000000" fill="#637C8F" fill-opacity="1.0" stroke-opacity="0.0"><rect width="7.921364038377576e-2" height="5.7813493669422455e-2" x="0.348145438464897" y="-9.241486963057177e-2" /></g><g stroke-width="0.0" stroke="#000000" fill="#628299" fill-opacity="1.0" stroke-opacity="0.0"><rect width="7.921364038377576e-2" height="5.7813493669422455e-2" x="0.348145438464897" y="-0.15022836329999423" /></g><g stroke-width="0.0" stroke="#000000" fill="#62849E" fill-opacity="1.0" stroke-opacity="0.0"><rect width="7.921364038377576e-2" height="5.7813493669422344e-2" x="0.348145438464897" y="-0.20804185696941657" /></g><g stroke-width="0.0" stroke="#000000" fill="#62849E" fill-opacity="1.0" stroke-opacity="0.0"><rect width="7.921364038377576e-2" height="5.7813493669422344e-2" x="0.348145438464897" y="-0.2658553506388389" /></g><g stroke-width="0.0" stroke="#000000" fill="#628299" fill-opacity="1.0" stroke-opacity="0.0"><rect width="7.921364038377576e-2" height="5.7813493669422344e-2" x="0.348145438464897" y="-0.3236688443082615" /></g><g stroke-width="0.0" stroke="#000000" fill="#637C8F" fill-opacity="1.0" stroke-opacity="0.0"><rect width="7.921364038377576e-2" height="5.7813493669422455e-2" x="0.348145438464897" y="-0.38148233797768394" /></g><g stroke-width="0.0" stroke="#000000" fill="#64747F" fill-opacity="1.0" stroke-opacity="0.0"><rect width="7.921364038377576e-2" height="5.7813493669422455e-2" x="0.348145438464897" y="-0.4392958316471064" /></g><g stroke-width="0.0" stroke="#000000" fill="#666666" fill-opacity="1.0" stroke-opacity="0.0"><rect width="7.921364038377576e-2" height="5.7813493669422344e-2" x="0.348145438464897" y="-0.49710932531652874" /></g><g stroke-width="8.0e-3" stroke="#3764A0" fill="#FFFFFF" fill-opacity="1.0" stroke-opacity="0.5"><rect width="0.5138368530180935" height="0.22689341275477798" x="-0.295491895828259" y="0.25193457361336086" /></g><g stroke-width="0.0" stroke="none" fill="#666666" fill-opacity="1.0" font-size="2.0000000000000004e-2" text-anchor="middle"><text x="-0.2360844504800027" y="0.44618779868568637">0.60</text></g><g stroke-width="0.0" stroke="none" fill="#666666" fill-opacity="1.0" font-size="2.0000000000000004e-2" text-anchor="middle"><text x="-0.15708005801568647" y="0.44618779868568637">0.62</text></g><g stroke-width="0.0" stroke="none" fill="#666666" fill-opacity="1.0" font-size="2.0000000000000004e-2" text-anchor="middle"><text x="-7.807566555137069e-2" y="0.44618779868568637">0.64</text></g><g stroke-width="0.0" stroke="none" fill="#666666" fill-opacity="1.0" font-size="2.0000000000000004e-2" text-anchor="middle"><text x="9.287269129455433e-4" y="0.44618779868568637">0.66</text></g><g stroke-width="0.0" stroke="none" fill="#666666" fill-opacity="1.0" font-size="2.0000000000000004e-2" text-anchor="middle"><text x="7.993311937726177e-2" y="0.44618779868568637">0.68</text></g><g stroke-width="0.0" stroke="none" fill="#666666" fill-opacity="1.0" font-size="2.0000000000000004e-2" text-anchor="middle"><text x="0.15893751184157812" y="0.44618779868568637">0.70</text></g><g stroke-width="0.0" stroke="#2C429D" fill="#000000" fill-opacity="1.0" stroke-opacity="0.4"><line stroke-width="2.0e-3" x1="-0.2360844504800027" y1="0.40190426631001636" x2="-0.2360844504800027" y2="0.38990426631001635" /><line stroke-width="2.0e-3" x1="-0.15708005801568647" y1="0.40190426631001636" x2="-0.15708005801568647" y2="0.38990426631001635" /><line stroke-width="2.0e-3" x1="-7.807566555137069e-2" y1="0.40190426631001636" x2="-7.807566555137069e-2" y2="0.38990426631001635" /><line stroke-width="2.0e-3" x1="9.287269129455433e-4" y1="0.40190426631001636" x2="9.287269129455433e-4" y2="0.38990426631001635" /><line stroke-width="2.0e-3" x1="7.993311937726177e-2" y1="0.40190426631001636" x2="7.993311937726177e-2" y2="0.38990426631001635" /><line stroke-width="2.0e-3" x1="0.15893751184157812" y1="0.40190426631001636" x2="0.15893751184157812" y2="0.38990426631001635" /></g><g stroke-width="0.0" stroke="#000000" fill="url(#pixel)" stroke-opacity="0.0"><rect width="0.42433889534468844" height="3.52866893864352e-2" x="-0.23800864058927468" y="0.3535602390462941" /></g><g stroke-width="0.0" stroke="none" fill="#666666" fill-opacity="1.0" font-size="3.2e-2" text-anchor="start"><text x="-0.27851834001447157" y="0.318273549659859">pixel example</text></g><g /></svg>