<svg xmlns="http://www.w3.org/2000/svg" xmlns:xlink="http://www.w3.org/1999/xlink" width="450" height="300" viewBox="-0.75 -0.5 1.5000 1.0"><style>svg {
  color-scheme: light dark;
}
{
  .canvas g, .title g, .axisbar g, .ticktext g, .tickglyph g, .ticklines g, .legendContent g text {
    fill: rgb(5%, 5%, 5%);
  }
  .ticklines g, .tickglyph g, .legendBorder g {
    stroke: rgb(5%, 5%, 5%);
  }
  .legendBorder g {
    fill: rgb(94%, 94%, 94%);
  }
}
@media (prefers-color-scheme:dark) {
  .canvas g, .title g, .axisbar g, .ticktext g, .tickglyph g, .ticklines g, .legendContent g text {
    fill: rgb(94%, 94%, 94%);
  }
  .ticklines g, .tickglyph g, .legendBorder g {
    stroke: rgb(94%, 94%, 94%);
  }
  .legendBorder g {
    fill: rgb(5%, 5%, 5%);
  }
}</style><g class="chart"><g class="line"><g stroke-width="0.0150" stroke="rgb(2%, 73%, 80%)" stroke-opacity="1.0" fill="none"><polyline points="-0.5977,0.1717 -0.2920,0.1717 0.0137,-0.3239"/></g><g stroke-width="0.0150" stroke="rgb(2%, 29%, 48%)" stroke-opacity="1.0" fill="none"><polyline points="-0.5977,0.2955 0.2582,-0.0761"/></g><g stroke-width="0.0150" stroke="rgb(66%, 7%, 55%)" stroke-opacity="1.0" fill="none"><polyline points="-0.4448,-0.2000 -0.4448,0.2955"/></g></g></g><g class="hud"><g class="frame"><g stroke-width="0.0100" stroke="rgb(2%, 29%, 48%)" stroke-opacity="1.0" fill="rgb(2%, 73%, 80%)" fill-opacity="0.1"><rect width="0.9216" height="0.6287" x="-0.6023" y="-0.3285"/></g></g><g class="axis"><g class="ticks"><g class="tickglyph"><g stroke-width="0.0040" stroke="rgb(5%, 5%, 5%)" stroke-opacity="0.4" fill="rgb(5%, 5%, 5%)" fill-opacity="0.4"><g transform="rotate(-90.0, -0.6206, 0.2955)"><polyline points="-0.6206,0.3105
-0.6206,0.2805"/></g><g transform="rotate(-90.0, -0.6206, 0.2336)"><polyline points="-0.6206,0.2486
-0.6206,0.2186"/></g><g transform="rotate(-90.0, -0.6206, 0.1717)"><polyline points="-0.6206,0.1867
-0.6206,0.1567"/></g><g transform="rotate(-90.0, -0.6206, 0.1097)"><polyline points="-0.6206,0.1247
-0.6206,0.0947"/></g><g transform="rotate(-90.0, -0.6206, 0.0478)"><polyline points="-0.6206,0.0628
-0.6206,0.0328"/></g><g transform="rotate(-90.0, -0.6206, -0.0142)"><polyline points="-0.6206,0.0008
-0.6206,-0.0292"/></g><g transform="rotate(-90.0, -0.6206, -0.0761)"><polyline points="-0.6206,-0.0611
-0.6206,-0.0911"/></g><g transform="rotate(-90.0, -0.6206, -0.1381)"><polyline points="-0.6206,-0.1231
-0.6206,-0.1531"/></g><g transform="rotate(-90.0, -0.6206, -0.2000)"><polyline points="-0.6206,-0.1850
-0.6206,-0.2150"/></g><g transform="rotate(-90.0, -0.6206, -0.2619)"><polyline points="-0.6206,-0.2469
-0.6206,-0.2769"/></g><g transform="rotate(-90.0, -0.6206, -0.3239)"><polyline points="-0.6206,-0.3089
-0.6206,-0.3389"/></g></g></g><g class="ticktext"><g stroke-width="0.0" stroke="none" fill="rgb(5%, 5%, 5%)" fill-opacity="1.0" font-size="0.0306" text-anchor="end"><text x="-0.6426" y="0.3041">0.0</text><text x="-0.6426" y="0.2421">0.5</text><text x="-0.6426" y="0.1802">1.0</text><text x="-0.6426" y="0.1182">1.5</text><text x="-0.6426" y="0.0563">2.0</text><text x="-0.6426" y="-0.0057">2.5</text><text x="-0.6426" y="-0.0676">3.0</text><text x="-0.6426" y="-0.1295">3.5</text><text x="-0.6426" y="-0.1915">4.0</text><text x="-0.6426" y="-0.2534">4.5</text><text x="-0.6426" y="-0.3154">5.0</text></g></g><g class="ticklines"><g stroke-width="0.0050" stroke="rgb(5%, 5%, 5%)" stroke-opacity="0.05" fill="none"><polyline points="-0.5977,0.2955 0.3194,0.2955"/><polyline points="-0.5977,0.2336 0.3194,0.2336"/><polyline points="-0.5977,0.1717 0.3194,0.1717"/><polyline points="-0.5977,0.1097 0.3194,0.1097"/><polyline points="-0.5977,0.0478 0.3194,0.0478"/><polyline points="-0.5977,-0.0142 0.3194,-0.0142"/><polyline points="-0.5977,-0.0761 0.3194,-0.0761"/><polyline points="-0.5977,-0.1381 0.3194,-0.1381"/><polyline points="-0.5977,-0.2000 0.3194,-0.2000"/><polyline points="-0.5977,-0.2619 0.3194,-0.2619"/><polyline points="-0.5977,-0.3239 0.3194,-0.3239"/></g></g></g><g class="axisbar"><g stroke-width="0" stroke="rgb(0%, 0%, 0%)" stroke-opacity="0" fill="rgb(5%, 5%, 5%)" fill-opacity="0.4"><rect width="0.0024" height="0.6219" x="-0.6139" y="-0.3251"/></g></g></g><g class="axis"><g class="ticks"><g class="tickglyph"><g stroke-width="0.0040" stroke="rgb(5%, 5%, 5%)" stroke-opacity="0.4" fill="rgb(5%, 5%, 5%)" fill-opacity="0.4"><polyline points="-0.5977,0.3338
-0.5977,0.3038"/><polyline points="-0.4448,0.3338
-0.4448,0.3038"/><polyline points="-0.2920,0.3338
-0.2920,0.3038"/><polyline points="-0.1392,0.3338
-0.1392,0.3038"/><polyline points="0.0137,0.3338
0.0137,0.3038"/><polyline points="0.1665,0.3338
0.1665,0.3038"/><polyline points="0.3194,0.3338
0.3194,0.3038"/></g></g><g class="ticktext"><g stroke-width="0.0" stroke="none" fill="rgb(5%, 5%, 5%)" fill-opacity="1.0" font-size="0.0306" text-anchor="middle"><text x="-0.5977" y="0.3581">0.0</text><text x="-0.4448" y="0.3581">0.5</text><text x="-0.2920" y="0.3581">1.0</text><text x="-0.1392" y="0.3581">1.5</text><text x="0.0137" y="0.3581">2.0</text><text x="0.1665" y="0.3581">2.5</text><text x="0.3194" y="0.3581">3.0</text></g></g><g class="ticklines"><g stroke-width="0.0050" stroke="rgb(5%, 5%, 5%)" stroke-opacity="0.05" fill="none"><polyline points="-0.5977,0.2955 -0.5977,-0.3239"/><polyline points="-0.4448,0.2955 -0.4448,-0.3239"/><polyline points="-0.2920,0.2955 -0.2920,-0.3239"/><polyline points="-0.1392,0.2955 -0.1392,-0.3239"/><polyline points="0.0137,0.2955 0.0137,-0.3239"/><polyline points="0.1665,0.2955 0.1665,-0.3239"/><polyline points="0.3194,0.2955 0.3194,-0.3239"/></g></g></g><g class="axisbar"><g stroke-width="0" stroke="rgb(0%, 0%, 0%)" stroke-opacity="0" fill="rgb(5%, 5%, 5%)" fill-opacity="0.4"><rect width="0.9195" height="0.0025" x="-0.5989" y="0.3095"/></g></g></g><g class="title"><g stroke-width="0.0" stroke="none" fill="rgb(5%, 5%, 5%)" fill-opacity="1.0" font-size="0.0611" text-anchor="middle"><text x="-0.1719" y="-0.3835">Line Chart</text></g></g><g class="title"><g stroke-width="0.0" stroke="none" fill="rgb(5%, 5%, 5%)" fill-opacity="1.0" font-size="0.0367" text-anchor="end"><text x="0.3400" y="0.4219">Made with love and chart-svg</text></g></g><g class="legend"><g class="legendBorder"><g stroke-width="0.0025" stroke="rgb(5%, 5%, 5%)" stroke-opacity="1.0" fill="rgb(99%, 99%, 99%)" fill-opacity="1.0"><rect width="0.2950" height="0.1641" x="0.3858" y="-0.1316"/></g></g><g class="legendContent"><g stroke-width="0.0" stroke="none" fill="rgb(5%, 5%, 5%)" fill-opacity="1.0" font-size="0.0306" text-anchor="start"><text x="0.4011" y="0.0077">palette1 2</text></g><g stroke-width="0.0150" stroke="rgb(66%, 7%, 55%)" stroke-opacity="1.0" fill="none"><polyline points="0.5692,0 0.6609,0"/></g><g stroke-width="0.0" stroke="none" fill="rgb(5%, 5%, 5%)" fill-opacity="1.0" font-size="0.0306" text-anchor="start"><text x="0.4011" y="-0.0418">palette1 1</text></g><g stroke-width="0.0150" stroke="rgb(2%, 29%, 48%)" stroke-opacity="1.0" fill="none"><polyline points="0.5692,-0.0496 0.6609,-0.0496"/></g><g stroke-width="0.0" stroke="none" fill="rgb(5%, 5%, 5%)" fill-opacity="1.0" font-size="0.0306" text-anchor="start"><text x="0.4011" y="-0.0914">palette1 0</text></g><g stroke-width="0.0150" stroke="rgb(2%, 73%, 80%)" stroke-opacity="1.0" fill="none"><polyline points="0.5692,-0.0991 0.6609,-0.0991"/></g></g></g><g class="frame"><g stroke-width="0.0100" stroke="rgb(100%, 71%, 35%)" stroke-opacity="1.0" fill="rgb(100%, 71%, 35%)" fill-opacity="0.05"><rect width="1.4900" height="0.99" x="-0.745" y="-0.495"/></g></g></g></svg>