<svg xmlns="http://www.w3.org/2000/svg" xmlns:xlink="http://www.w3.org/1999/xlink" width="450" height="300" viewBox="-0.75 -0.5000 1.5000 1.0000"><style>svg {
  color-scheme: light dark;
}
{
  .canvas g, .title g, .axisbar g, .ticktext g, .tickglyph g, .ticklines g, .legendContent g text {
    fill: rgb(5%, 5%, 5%);
  }
  .ticklines g, .tickglyph g, .legendBorder g {
    stroke: rgb(5%, 5%, 5%);
  }
  .legendBorder g {
    fill: rgb(94%, 94%, 94%);
  }
}
@media (prefers-color-scheme:dark) {
  .canvas g, .title g, .axisbar g, .ticktext g, .tickglyph g, .ticklines g, .legendContent g text {
    fill: rgb(94%, 94%, 94%);
  }
  .ticklines g, .tickglyph g, .legendBorder g {
    stroke: rgb(94%, 94%, 94%);
  }
  .legendBorder g {
    fill: rgb(5%, 5%, 5%);
  }
}</style><g class="chart"><g class="line"><g stroke-width="0.0150" stroke="rgb(2%, 73%, 80%)" stroke-opacity="1.0" fill="none"><polyline points="-0.5974,0.1714 -0.2921,0.1714 0.0133,-0.3236"/></g><g stroke-width="0.0150" stroke="rgb(2%, 29%, 48%)" stroke-opacity="1.0" fill="none"><polyline points="-0.5974,0.2952 0.2576,-0.0761"/></g><g stroke-width="0.0150" stroke="rgb(66%, 7%, 55%)" stroke-opacity="1.0" fill="none"><polyline points="-0.4448,-0.1998 -0.4448,0.2952"/></g></g></g><g class="hud"><g class="frame"><g stroke-width="0.0100" stroke="rgb(2%, 29%, 48%)" stroke-opacity="1.0" fill="rgb(2%, 73%, 80%)" fill-opacity="0.1"><rect width="0.9207" height="0.6280" x="-0.6020" y="-0.3282"/></g></g><g class="axis"><g class="ticks"><g class="tickglyph"><g stroke-width="0.0040" stroke="rgb(5%, 5%, 5%)" stroke-opacity="0.4" fill="rgb(5%, 5%, 5%)" fill-opacity="0.4"><g transform="rotate(-90.0, -0.6204, 0.2952)"><polyline points="-0.6204,0.3102
-0.6204,0.2802"/></g><g transform="rotate(-90.0, -0.6204, 0.2333)"><polyline points="-0.6204,0.2483
-0.6204,0.2183"/></g><g transform="rotate(-90.0, -0.6204, 0.1714)"><polyline points="-0.6204,0.1864
-0.6204,0.1564"/></g><g transform="rotate(-90.0, -0.6204, 0.1096)"><polyline points="-0.6204,0.1246
-0.6204,0.0946"/></g><g transform="rotate(-90.0, -0.6204, 0.0477)"><polyline points="-0.6204,0.0627
-0.6204,0.0327"/></g><g transform="rotate(-90.0, -0.6204, -0.0142)"><polyline points="-0.6204,0.0008
-0.6204,-0.0292"/></g><g transform="rotate(-90.0, -0.6204, -0.0761)"><polyline points="-0.6204,-0.0611
-0.6204,-0.0911"/></g><g transform="rotate(-90.0, -0.6204, -0.1379)"><polyline points="-0.6204,-0.1229
-0.6204,-0.1529"/></g><g transform="rotate(-90.0, -0.6204, -0.1998)"><polyline points="-0.6204,-0.1848
-0.6204,-0.2148"/></g><g transform="rotate(-90.0, -0.6204, -0.2617)"><polyline points="-0.6204,-0.2467
-0.6204,-0.2767"/></g><g transform="rotate(-90.0, -0.6204, -0.3236)"><polyline points="-0.6204,-0.3086
-0.6204,-0.3386"/></g></g></g><g class="ticktext"><g stroke-width="0.0" stroke="none" fill="rgb(5%, 5%, 5%)" fill-opacity="1.0" font-size="0.0306" text-anchor="end"><text x="-0.6424" y="0.3037">0.0</text><text x="-0.6424" y="0.2418">0.5</text><text x="-0.6424" y="0.1800">1.0</text><text x="-0.6424" y="0.1181">1.5</text><text x="-0.6424" y="0.0562">2.0</text><text x="-0.6424" y="-0.0057">2.5</text><text x="-0.6424" y="-0.0675">3.0</text><text x="-0.6424" y="-0.1294">3.5</text><text x="-0.6424" y="-0.1913">4.0</text><text x="-0.6424" y="-0.2532">4.5</text><text x="-0.6424" y="-0.3150">5.0</text></g></g><g class="ticklines"><g stroke-width="0.0050" stroke="rgb(5%, 5%, 5%)" stroke-opacity="0.05" fill="none"><polyline points="-0.5974,0.2952 0.3187,0.2952"/><polyline points="-0.5974,0.2333 0.3187,0.2333"/><polyline points="-0.5974,0.1714 0.3187,0.1714"/><polyline points="-0.5974,0.1096 0.3187,0.1096"/><polyline points="-0.5974,0.0477 0.3187,0.0477"/><polyline points="-0.5974,-0.0142 0.3187,-0.0142"/><polyline points="-0.5974,-0.0761 0.3187,-0.0761"/><polyline points="-0.5974,-0.1379 0.3187,-0.1379"/><polyline points="-0.5974,-0.1998 0.3187,-0.1998"/><polyline points="-0.5974,-0.2617 0.3187,-0.2617"/><polyline points="-0.5974,-0.3236 0.3187,-0.3236"/></g></g></g><g class="axisbar"><g stroke-width="0" stroke="rgb(0%, 0%, 0%)" stroke-opacity="0" fill="rgb(5%, 5%, 5%)" fill-opacity="0.4"><rect width="0.0024" height="0.6212" x="-0.6137" y="-0.3248"/></g></g></g><g class="axis"><g class="ticks"><g class="tickglyph"><g stroke-width="0.0040" stroke="rgb(5%, 5%, 5%)" stroke-opacity="0.4" fill="rgb(5%, 5%, 5%)" fill-opacity="0.4"><polyline points="-0.5974,0.3334
-0.5974,0.3034"/><polyline points="-0.4448,0.3334
-0.4448,0.3034"/><polyline points="-0.2921,0.3334
-0.2921,0.3034"/><polyline points="-0.1394,0.3334
-0.1394,0.3034"/><polyline points="0.0133,0.3334
0.0133,0.3034"/><polyline points="0.1660,0.3334
0.1660,0.3034"/><polyline points="0.3187,0.3334
0.3187,0.3034"/></g></g><g class="ticktext"><g stroke-width="0.0" stroke="none" fill="rgb(5%, 5%, 5%)" fill-opacity="1.0" font-size="0.0306" text-anchor="middle"><text x="-0.5974" y="0.3578">0.0</text><text x="-0.4448" y="0.3578">0.5</text><text x="-0.2921" y="0.3578">1.0</text><text x="-0.1394" y="0.3578">1.5</text><text x="0.0133" y="0.3578">2.0</text><text x="0.1660" y="0.3578">2.5</text><text x="0.3187" y="0.3578">3.0</text></g></g><g class="ticklines"><g stroke-width="0.0050" stroke="rgb(5%, 5%, 5%)" stroke-opacity="0.05" fill="none"><polyline points="-0.5974,0.2952 -0.5974,-0.3236"/><polyline points="-0.4448,0.2952 -0.4448,-0.3236"/><polyline points="-0.2921,0.2952 -0.2921,-0.3236"/><polyline points="-0.1394,0.2952 -0.1394,-0.3236"/><polyline points="0.0133,0.2952 0.0133,-0.3236"/><polyline points="0.1660,0.2952 0.1660,-0.3236"/><polyline points="0.3187,0.2952 0.3187,-0.3236"/></g></g></g><g class="axisbar"><g stroke-width="0" stroke="rgb(0%, 0%, 0%)" stroke-opacity="0" fill="rgb(5%, 5%, 5%)" fill-opacity="0.4"><rect width="0.9186" height="0.0025" x="-0.5987" y="0.3091"/></g></g></g><g class="legend"><g class="legendBorder"><g stroke-width="0.0025" stroke="rgb(5%, 5%, 5%)" stroke-opacity="1.0" fill="rgb(99%, 99%, 99%)" fill-opacity="1.0"><rect width="0.2954" height="0.1645" x="0.3853" y="-0.1182"/></g></g><g class="legendContent"><g stroke-width="0.0" stroke="none" fill="rgb(5%, 5%, 5%)" fill-opacity="1.0" font-size="0.0306" text-anchor="start"><text x="0.4006" y="0.0214">palette1 2</text></g><g stroke-width="0.0150" stroke="rgb(66%, 7%, 55%)" stroke-opacity="1.0" fill="none"><polyline points="0.5690,0.0137 0.6608,0.0137"/></g><g stroke-width="0.0" stroke="none" fill="rgb(5%, 5%, 5%)" fill-opacity="1.0" font-size="0.0306" text-anchor="start"><text x="0.4006" y="-0.0282">palette1 1</text></g><g stroke-width="0.0150" stroke="rgb(2%, 29%, 48%)" stroke-opacity="1.0" fill="none"><polyline points="0.5690,-0.0360 0.6608,-0.0360"/></g><g stroke-width="0.0" stroke="none" fill="rgb(5%, 5%, 5%)" fill-opacity="1.0" font-size="0.0306" text-anchor="start"><text x="0.4006" y="-0.0779">palette1 0</text></g><g stroke-width="0.0150" stroke="rgb(2%, 73%, 80%)" stroke-opacity="1.0" fill="none"><polyline points="0.5690,-0.0856 0.6608,-0.0856"/></g></g></g><g class="title"><g stroke-width="0.0" stroke="none" fill="rgb(5%, 5%, 5%)" fill-opacity="1.0" font-size="0.0612" text-anchor="middle"><text x="0" y="-0.3833">Line Chart</text></g></g><g class="title"><g stroke-width="0.0" stroke="none" fill="rgb(5%, 5%, 5%)" fill-opacity="1.0" font-size="0.0367" text-anchor="end"><text x="0.6838" y="0.4218">Made with love and chart-svg</text></g></g><g class="frame"><g stroke-width="0.0100" stroke="rgb(100%, 71%, 35%)" stroke-opacity="1.0" fill="rgb(100%, 71%, 35%)" fill-opacity="0.05"><rect width="1.4900" height="0.9900" x="-0.745" y="-0.4950"/></g></g></g></svg>