<svg height="300" viewBox="-0.7500 -0.5 1.5000 1.0" width="450" xmlns="http://www.w3.org/2000/svg" xmlns:xlink="http://www.w3.org/1999/xlink"><style>svg {
  color-scheme: light dark;
}
{
  .canvas g, .title g, .axisbar g, .ticktext g, .tickglyph g, .ticklines g, .legendContent g text {
    fill: rgb(5%, 5%, 5%);
  }
  .ticklines g, .tickglyph g, .legendBorder g {
    stroke: rgb(5%, 5%, 5%);
  }
  .legendBorder g {
    fill: rgb(94%, 94%, 94%);
  }
}
@media (prefers-color-scheme:dark) {
  .canvas g, .title g, .axisbar g, .ticktext g, .tickglyph g, .ticklines g, .legendContent g text {
    fill: rgb(94%, 94%, 94%);
  }
  .ticklines g, .tickglyph g, .legendBorder g {
    stroke: rgb(94%, 94%, 94%);
  }
  .legendBorder g {
    fill: rgb(5%, 5%, 5%);
  }
}</style><g class="chart"><g class="line"><g fill="none" stroke="rgb(2%, 73%, 80%)" stroke-opacity="1.0" stroke-width="0.0150"><polyline points="-0.5861,0.1717 -0.2846,0.1717 0.0169,-0.3239"/></g><g fill="none" stroke="rgb(2%, 29%, 48%)" stroke-opacity="1.0" stroke-width="0.0150"><polyline points="-0.5861,0.2955 0.2581,-0.0761"/></g><g fill="none" stroke="rgb(66%, 7%, 55%)" stroke-opacity="1.0" stroke-width="0.0150"><polyline points="-0.4354,-0.2000 -0.4354,0.2955"/></g></g></g><g class="hud"><g class="frame"><g fill="rgb(2%, 73%, 80%)" fill-opacity="0.1" stroke="rgb(2%, 29%, 48%)" stroke-opacity="1.0" stroke-width="0.0100"><rect height="0.6287" width="0.9090" x="-0.5906" y="-0.3285"/></g></g><g class="axis"><g class="ticks"><g class="tickglyph"><g fill="rgb(5%, 5%, 5%)" fill-opacity="0.4" stroke="rgb(5%, 5%, 5%)" stroke-opacity="0.4" stroke-width="0.0040"><g transform="rotate(-90.0, -0.6087, 0.2955)"><polyline points="-0.6087,0.3105
-0.6087,0.2805"/></g><g transform="rotate(-90.0, -0.6087, 0.2336)"><polyline points="-0.6087,0.2486
-0.6087,0.2186"/></g><g transform="rotate(-90.0, -0.6087, 0.1717)"><polyline points="-0.6087,0.1867
-0.6087,0.1567"/></g><g transform="rotate(-90.0, -0.6087, 0.1097)"><polyline points="-0.6087,0.1247
-0.6087,0.0947"/></g><g transform="rotate(-90.0, -0.6087, 0.0478)"><polyline points="-0.6087,0.0628
-0.6087,0.0328"/></g><g transform="rotate(-90.0, -0.6087, -0.0142)"><polyline points="-0.6087,0.0008
-0.6087,-0.0292"/></g><g transform="rotate(-90.0, -0.6087, -0.0761)"><polyline points="-0.6087,-0.0611
-0.6087,-0.0911"/></g><g transform="rotate(-90.0, -0.6087, -0.1381)"><polyline points="-0.6087,-0.1231
-0.6087,-0.1531"/></g><g transform="rotate(-90.0, -0.6087, -0.2000)"><polyline points="-0.6087,-0.1850
-0.6087,-0.2150"/></g><g transform="rotate(-90.0, -0.6087, -0.2619)"><polyline points="-0.6087,-0.2469
-0.6087,-0.2769"/></g><g transform="rotate(-90.0, -0.6087, -0.3239)"><polyline points="-0.6087,-0.3089
-0.6087,-0.3389"/></g></g></g><g class="ticktext"><g fill="rgb(5%, 5%, 5%)" fill-opacity="1.0" font-size="0.0301" stroke="none" stroke-width="0.0" text-anchor="end"><text x="-0.6304" y="0.3041">0.00</text><text x="-0.6304" y="0.2421">0.50</text><text x="-0.6304" y="0.1802">1.00</text><text x="-0.6304" y="0.1182">1.50</text><text x="-0.6304" y="0.0563">2.00</text><text x="-0.6304" y="-0.0057">2.50</text><text x="-0.6304" y="-0.0676">3.00</text><text x="-0.6304" y="-0.1295">3.50</text><text x="-0.6304" y="-0.1915">4.00</text><text x="-0.6304" y="-0.2534">4.50</text><text x="-0.6304" y="-0.3154">5.00</text></g></g><g class="ticklines"><g fill="none" stroke="rgb(5%, 5%, 5%)" stroke-opacity="0.05" stroke-width="0.0050"><polyline points="-0.5861,0.2955 0.3184,0.2955"/><polyline points="-0.5861,0.2336 0.3184,0.2336"/><polyline points="-0.5861,0.1717 0.3184,0.1717"/><polyline points="-0.5861,0.1097 0.3184,0.1097"/><polyline points="-0.5861,0.0478 0.3184,0.0478"/><polyline points="-0.5861,-0.0142 0.3184,-0.0142"/><polyline points="-0.5861,-0.0761 0.3184,-0.0761"/><polyline points="-0.5861,-0.1381 0.3184,-0.1381"/><polyline points="-0.5861,-0.2000 0.3184,-0.2000"/><polyline points="-0.5861,-0.2619 0.3184,-0.2619"/><polyline points="-0.5861,-0.3239 0.3184,-0.3239"/></g></g></g><g class="axisbar"><g fill="rgb(5%, 5%, 5%)" fill-opacity="0.4" stroke="rgb(0%, 0%, 0%)" stroke-opacity="0" stroke-width="0"><rect height="0.6219" width="0.0024" x="-0.6021" y="-0.3251"/></g></g></g><g class="axis"><g class="ticks"><g class="tickglyph"><g fill="rgb(5%, 5%, 5%)" fill-opacity="0.4" stroke="rgb(5%, 5%, 5%)" stroke-opacity="0.4" stroke-width="0.0040"><polyline points="-0.5861,0.3338
-0.5861,0.3038"/><polyline points="-0.4354,0.3338
-0.4354,0.3038"/><polyline points="-0.2846,0.3338
-0.2846,0.3038"/><polyline points="-0.1339,0.3338
-0.1339,0.3038"/><polyline points="0.0169,0.3338
0.0169,0.3038"/><polyline points="0.1676,0.3338
0.1676,0.3038"/><polyline points="0.3184,0.3338
0.3184,0.3038"/></g></g><g class="ticktext"><g fill="rgb(5%, 5%, 5%)" fill-opacity="1.0" font-size="0.0301" stroke="none" stroke-width="0.0" text-anchor="middle"><text x="-0.5861" y="0.3581">0.00</text><text x="-0.4354" y="0.3581">0.50</text><text x="-0.2846" y="0.3581">1.00</text><text x="-0.1339" y="0.3581">1.50</text><text x="0.0169" y="0.3581">2.00</text><text x="0.1676" y="0.3581">2.50</text><text x="0.3184" y="0.3581">3.00</text></g></g><g class="ticklines"><g fill="none" stroke="rgb(5%, 5%, 5%)" stroke-opacity="0.05" stroke-width="0.0050"><polyline points="-0.5861,0.2955 -0.5861,-0.3239"/><polyline points="-0.4354,0.2955 -0.4354,-0.3239"/><polyline points="-0.2846,0.2955 -0.2846,-0.3239"/><polyline points="-0.1339,0.2955 -0.1339,-0.3239"/><polyline points="0.0169,0.2955 0.0169,-0.3239"/><polyline points="0.1676,0.2955 0.1676,-0.3239"/><polyline points="0.3184,0.2955 0.3184,-0.3239"/></g></g></g><g class="axisbar"><g fill="rgb(5%, 5%, 5%)" fill-opacity="0.4" stroke="rgb(0%, 0%, 0%)" stroke-opacity="0" stroke-width="0"><rect height="0.0025" width="0.9069" x="-0.5873" y="0.3095"/></g></g></g><g class="title"><g fill="rgb(5%, 5%, 5%)" fill-opacity="1.0" font-size="0.0603" stroke="none" stroke-width="0.0" text-anchor="middle"><text x="-0.1696" y="-0.3835">Line Chart</text></g></g><g class="title"><g fill="rgb(5%, 5%, 5%)" fill-opacity="1.0" font-size="0.0362" stroke="none" stroke-width="0.0" text-anchor="end"><text x="0.3455" y="0.4219">Made with love and chart-svg</text></g></g><g class="legend"><g class="legendBorder"><g fill="rgb(99%, 99%, 99%)" fill-opacity="1.0" stroke="rgb(5%, 5%, 5%)" stroke-opacity="1.0" stroke-width="0.0025"><rect height="0.1641" width="0.2909" x="0.3907" y="-0.1316"/></g></g><g class="legendContent"><g fill="rgb(5%, 5%, 5%)" fill-opacity="1.0" font-size="0.0301" stroke="none" stroke-width="0.0" text-anchor="start"><text x="0.4058" y="0.0077">palette1 2</text></g><g fill="none" stroke="rgb(66%, 7%, 55%)" stroke-opacity="1.0" stroke-width="0.0150"><polyline points="0.5716,0 0.6621,0"/></g><g fill="rgb(5%, 5%, 5%)" fill-opacity="1.0" font-size="0.0301" stroke="none" stroke-width="0.0" text-anchor="start"><text x="0.4058" y="-0.0418">palette1 1</text></g><g fill="none" stroke="rgb(2%, 29%, 48%)" stroke-opacity="1.0" stroke-width="0.0150"><polyline points="0.5716,-0.0496 0.6621,-0.0496"/></g><g fill="rgb(5%, 5%, 5%)" fill-opacity="1.0" font-size="0.0301" stroke="none" stroke-width="0.0" text-anchor="start"><text x="0.4058" y="-0.0914">palette1 0</text></g><g fill="none" stroke="rgb(2%, 73%, 80%)" stroke-opacity="1.0" stroke-width="0.0150"><polyline points="0.5716,-0.0991 0.6621,-0.0991"/></g></g></g><g class="frame"><g fill="rgb(100%, 71%, 35%)" fill-opacity="0.05" stroke="rgb(100%, 71%, 35%)" stroke-opacity="1.0" stroke-width="0.0100"><rect height="0.99" width="1.4900" x="-0.7450" y="-0.495"/></g></g></g></svg>