<svg xmlns="http://www.w3.org/2000/svg" xmlns:xlink="http://www.w3.org/1999/xlink" width="449" height="300" viewBox="-0.7519 -0.5018 1.5038 1.0035"><style>svg {
  color-scheme: light dark;
}
{
  .canvas g, .title g, .axisbar g, .ticktext g, .tickglyph g, .ticklines g, .legendContent g text {
    fill: rgb(5%, 5%, 5%);
  }
  .ticklines g, .tickglyph g, .legendBorder g {
    stroke: rgb(5%, 5%, 5%);
  }
  .legendBorder g {
    fill: rgb(94%, 94%, 94%);
  }
}
@media (prefers-color-scheme:dark) {
  .canvas g, .title g, .axisbar g, .ticktext g, .tickglyph g, .ticklines g, .legendContent g text {
    fill: rgb(94%, 94%, 94%);
  }
  .ticklines g, .tickglyph g, .legendBorder g {
    stroke: rgb(94%, 94%, 94%);
  }
  .legendBorder g {
    fill: rgb(5%, 5%, 5%);
  }
}
svg { font-family: system-ui,-apple-system,"Segoe UI",Roboto,"Helvetica Neue",Arial,"Noto Sans","Liberation Sans",sans-serif,"Apple Color Emoji","Segoe UI Emoji","Segoe UI Symbol","Noto Color Emoji";
}

ticktext { font-family: SFMono-Regular,Menlo,Monaco,Consolas,"Liberation Mono","Courier New",monospace;
}

</style><g class="chart"><g class="line"><g stroke-width="0.0150" stroke="rgb(2%, 73%, 80%)" stroke-opacity="1.0" fill="none"><polyline points="-0.6298,0.1789 -0.3193,0.1789 -0.0088,-0.3360"/></g><g stroke-width="0.0150" stroke="rgb(2%, 29%, 48%)" stroke-opacity="1.0" fill="none"><polyline points="-0.6298,0.3076 0.2396,-0.0786"/></g><g stroke-width="0.0150" stroke="rgb(66%, 7%, 55%)" stroke-opacity="1.0" fill="none"><polyline points="-0.4746,-0.2073 -0.4746,0.3076"/></g></g><g class="datapadding"></g></g><g class="hud"><g class="frame"><g stroke-width="0.0100" stroke="rgb(2%, 29%, 48%)" stroke-opacity="1.0" fill="rgb(2%, 73%, 80%)" fill-opacity="0.1"><rect width="0.9362" height="0.6533" x="-0.6345" y="-0.3409"/></g></g><g class="axis"><g class="axisbar"><g stroke-width="0" stroke="rgb(0%, 0%, 0%)" stroke-opacity="0" fill="rgb(5%, 5%, 5%)" fill-opacity="0.4"><rect width="0.9341" height="0.0026" x="-0.6311" y="0.3141"/></g></g><g class="ticks"><g class="ticklines"><g stroke-width="0.0050" stroke="rgb(5%, 5%, 5%)" stroke-opacity="0.05" fill="none"><polyline points="-0.6298,0.3076 -0.6298,-0.3360"/><polyline points="-0.4746,0.3076 -0.4746,-0.3360"/><polyline points="-0.3193,0.3076 -0.3193,-0.3360"/><polyline points="-0.1641,0.3076 -0.1641,-0.3360"/><polyline points="-0.0088,0.3076 -0.0088,-0.3360"/><polyline points="0.1465,0.3076 0.1465,-0.3360"/><polyline points="0.3017,0.3076 0.3017,-0.3360"/></g></g><g class="tickglyph"><g stroke-width="0.0026" stroke="rgb(5%, 5%, 5%)" stroke-opacity="0.4" fill="rgb(5%, 5%, 5%)" fill-opacity="0.4"><polyline points="-0.6298,0.3347
-0.6298,0.3154"/><polyline points="-0.4746,0.3347
-0.4746,0.3154"/><polyline points="-0.3193,0.3347
-0.3193,0.3154"/><polyline points="-0.1641,0.3347
-0.1641,0.3154"/><polyline points="-0.0088,0.3347
-0.0088,0.3154"/><polyline points="0.1465,0.3347
0.1465,0.3154"/><polyline points="0.3017,0.3347
0.3017,0.3154"/></g></g><g class="ticktext"><g stroke-width="0.0" stroke="none" fill="rgb(5%, 5%, 5%)" fill-opacity="1.0" font-size="0.0400" text-anchor="middle"><text x="-0.6298" y="0.3702">0.0</text><text x="-0.4746" y="0.3702">0.5</text><text x="-0.3193" y="0.3702">1.0</text><text x="-0.1641" y="0.3702">1.5</text><text x="-0.0088" y="0.3702">2.0</text><text x="0.1465" y="0.3702">2.5</text><text x="0.3017" y="0.3702">3.0</text></g></g></g></g><g class="axis"><g class="axisbar"><g stroke-width="0" stroke="rgb(0%, 0%, 0%)" stroke-opacity="0" fill="rgb(5%, 5%, 5%)" fill-opacity="0.4"><rect width="0.0025" height="0.6462" x="-0.6386" y="-0.3373"/></g></g><g class="ticks"><g class="ticklines"><g stroke-width="0.0050" stroke="rgb(5%, 5%, 5%)" stroke-opacity="0.05" fill="none"><polyline points="-0.6298,0.3076 0.3017,0.3076"/><polyline points="-0.6298,0.1789 0.3017,0.1789"/><polyline points="-0.6298,0.0502 0.3017,0.0502"/><polyline points="-0.6298,-0.0786 0.3017,-0.0786"/><polyline points="-0.6298,-0.2073 0.3017,-0.2073"/><polyline points="-0.6298,-0.3360 0.3017,-0.3360"/></g></g><g class="tickglyph"><g stroke-width="0.0025" stroke="rgb(5%, 5%, 5%)" stroke-opacity="0.4" fill="rgb(5%, 5%, 5%)" fill-opacity="0.4"><polyline points="-0.6560,0.3076
-0.6373,0.3076"/><polyline points="-0.6560,0.1789
-0.6373,0.1789"/><polyline points="-0.6560,0.0502
-0.6373,0.0502"/><polyline points="-0.6560,-0.0786
-0.6373,-0.0786"/><polyline points="-0.6560,-0.2073
-0.6373,-0.2073"/><polyline points="-0.6560,-0.3360
-0.6373,-0.3360"/></g></g><g class="ticktext"><g stroke-width="0.0" stroke="none" fill="rgb(5%, 5%, 5%)" fill-opacity="1.0" font-size="0.0400" text-anchor="end"><text x="-0.6697" y="0.3147">0</text><text x="-0.6697" y="0.1860">1</text><text x="-0.6697" y="0.0573">2</text><text x="-0.6697" y="-0.0715">3</text><text x="-0.6697" y="-0.2002">4</text><text x="-0.6697" y="-0.3289">5</text></g></g></g></g><g class="legend"><g class="padding"></g><g class="padding"></g><g class="frame"><g stroke-width="0.0008" stroke="rgb(5%, 5%, 5%)" stroke-opacity="1.0" fill="rgb(5%, 5%, 5%)" fill-opacity="0"><rect width="0.3144" height="0.1498" x="0.3671" y="-0.0891"/></g></g><g class="legendContent"><g stroke-width="0.0093" stroke="rgb(66%, 7%, 55%)" stroke-opacity="1.0" fill="none"><polyline points="0.5679,0.0303 0.6613,0.0303"/></g><g stroke-width="0.0" stroke="none" fill="rgb(5%, 5%, 5%)" fill-opacity="1.0" font-size="0.0249" text-anchor="start"><text x="0.3827" y="0.0368">palette #2</text></g><g stroke-width="0.0093" stroke="rgb(2%, 29%, 48%)" stroke-opacity="1.0" fill="none"><polyline points="0.5679,-0.0142 0.6613,-0.0142"/></g><g stroke-width="0.0" stroke="none" fill="rgb(5%, 5%, 5%)" fill-opacity="1.0" font-size="0.0249" text-anchor="start"><text x="0.3827" y="-0.0077">palette #1</text></g><g stroke-width="0.0093" stroke="rgb(2%, 73%, 80%)" stroke-opacity="1.0" fill="none"><polyline points="0.5679,-0.0587 0.6613,-0.0587"/></g><g stroke-width="0.0" stroke="none" fill="rgb(5%, 5%, 5%)" fill-opacity="1.0" font-size="0.0249" text-anchor="start"><text x="0.3827" y="-0.0523">palette #0</text></g></g></g><g class="title"><g stroke-width="0.0" stroke="none" fill="rgb(5%, 5%, 5%)" fill-opacity="1.0" font-size="0.0800" text-anchor="middle"><text x="0" y="-0.3909">Line Chart</text></g></g><g class="title"><g stroke-width="0.0" stroke="none" fill="rgb(5%, 5%, 5%)" fill-opacity="1.0" font-size="0.0400" text-anchor="end"><text x="0.6846" y="0.4245">Made with 🧡 and chart-svg</text></g></g><g class="frame"><g stroke-width="0.0100" stroke="rgb(100%, 71%, 35%)" stroke-opacity="1.0" fill="rgb(100%, 71%, 35%)" fill-opacity="0.05"><rect width="1.4938" height="0.9935" x="-0.7469" y="-0.4968"/></g></g></g></svg>