<svg xmlns="http://www.w3.org/2000/svg" height="300.0" viewBox="-4.185074999999999 -3.53175 7.197575 4.16925" width="517.9042993344126" xmlns:xlink="http://www.w3.org/1999/xlink"><g stroke-opacity="0.0" fill-opacity="2.5e-2" stroke="#000000" stroke-width="0.0" fill="#808080"><rect height="4.0" width="7.0" x="-4.0" y="-3.5"/></g><g stroke-opacity="5.0e-2" stroke="#808080" stroke-width="5.0e-3" fill="none"><polyline points="-4.0,0.5
3.0,0.5"/></g><g stroke-opacity="5.0e-2" stroke="#808080" stroke-width="5.0e-3" fill="none"><polyline points="-4.0,-0.0
3.0,-0.0"/></g><g stroke-opacity="5.0e-2" stroke="#808080" stroke-width="5.0e-3" fill="none"><polyline points="-4.0,-0.5000000000000001
3.0,-0.5000000000000001"/></g><g stroke-opacity="5.0e-2" stroke="#808080" stroke-width="5.0e-3" fill="none"><polyline points="-4.0,-1.0000000000000004
3.0,-1.0000000000000004"/></g><g stroke-opacity="5.0e-2" stroke="#808080" stroke-width="5.0e-3" fill="none"><polyline points="-4.0,-1.5
3.0,-1.5"/></g><g stroke-opacity="5.0e-2" stroke="#808080" stroke-width="5.0e-3" fill="none"><polyline points="-4.0,-2.0
3.0,-2.0"/></g><g stroke-opacity="5.0e-2" stroke="#808080" stroke-width="5.0e-3" fill="none"><polyline points="-4.0,-2.5
3.0,-2.5"/></g><g stroke-opacity="5.0e-2" stroke="#808080" stroke-width="5.0e-3" fill="none"><polyline points="-4.0,-3.0
3.0,-3.0"/></g><g stroke-opacity="5.0e-2" stroke="#808080" stroke-width="5.0e-3" fill="none"><polyline points="-4.0,-3.5
3.0,-3.5"/></g><g fill-opacity="1.0" font-size="5.0e-2" stroke="none" stroke-width="0.0" fill="#808080" text-anchor="end"><text x="-4.085075" y="0.5145">-0.5</text></g><g fill-opacity="1.0" font-size="5.0e-2" stroke="none" stroke-width="0.0" fill="#808080" text-anchor="end"><text x="-4.085075" y="1.4499999999999957e-2">0</text></g><g fill-opacity="1.0" font-size="5.0e-2" stroke="none" stroke-width="0.0" fill="#808080" text-anchor="end"><text x="-4.085075" y="-0.48549999999999993">0.5</text></g><g fill-opacity="1.0" font-size="5.0e-2" stroke="none" stroke-width="0.0" fill="#808080" text-anchor="end"><text x="-4.085075" y="-0.9855000000000002">1</text></g><g fill-opacity="1.0" font-size="5.0e-2" stroke="none" stroke-width="0.0" fill="#808080" text-anchor="end"><text x="-4.085075" y="-1.4855">1.5</text></g><g fill-opacity="1.0" font-size="5.0e-2" stroke="none" stroke-width="0.0" fill="#808080" text-anchor="end"><text x="-4.085075" y="-1.9855">2</text></g><g fill-opacity="1.0" font-size="5.0e-2" stroke="none" stroke-width="0.0" fill="#808080" text-anchor="end"><text x="-4.085075" y="-2.4855">2.5</text></g><g fill-opacity="1.0" font-size="5.0e-2" stroke="none" stroke-width="0.0" fill="#808080" text-anchor="end"><text x="-4.085075" y="-2.9855000000000005">3</text></g><g fill-opacity="1.0" font-size="5.0e-2" stroke="none" stroke-width="0.0" fill="#808080" text-anchor="end"><text x="-4.085075" y="-3.4855">3.5</text></g><g stroke-opacity="1.0" fill-opacity="1.0" stroke="#808080" stroke-width="5.0e-3" fill="#808080"><g transform="rotate(-90.0, -4.0525, 0.5)"><polyline points="-4.0525,0.515
-4.0525,0.485"/></g><g transform="rotate(-90.0, -4.0525, -0.0)"><polyline points="-4.0525,1.5e-2
-4.0525,-1.5e-2"/></g><g transform="rotate(-90.0, -4.0525, -0.5000000000000001)"><polyline points="-4.0525,-0.4850000000000001
-4.0525,-0.5150000000000001"/></g><g transform="rotate(-90.0, -4.0525, -1.0000000000000004)"><polyline points="-4.0525,-0.9850000000000004
-4.0525,-1.0150000000000003"/></g><g transform="rotate(-90.0, -4.0525, -1.5)"><polyline points="-4.0525,-1.485
-4.0525,-1.515"/></g><g transform="rotate(-90.0, -4.0525, -2.0)"><polyline points="-4.0525,-1.985
-4.0525,-2.015"/></g><g transform="rotate(-90.0, -4.0525, -2.5)"><polyline points="-4.0525,-2.485
-4.0525,-2.515"/></g><g transform="rotate(-90.0, -4.0525, -3.0)"><polyline points="-4.0525,-2.985
-4.0525,-3.015"/></g><g transform="rotate(-90.0, -4.0525, -3.5)"><polyline points="-4.0525,-3.485
-4.0525,-3.515"/></g></g><g stroke-opacity="1.0" fill-opacity="1.0" stroke="#808080" stroke-width="0.0" fill="#808080"><rect height="4.0" width="4.999999999999893e-3" x="-4.04" y="-3.5"/></g><g stroke-opacity="5.0e-2" stroke="#808080" stroke-width="5.0e-3" fill="none"><polyline points="-4.0,0.5
-4.0,-3.5"/></g><g stroke-opacity="5.0e-2" stroke="#808080" stroke-width="5.0e-3" fill="none"><polyline points="-3.0,0.5
-3.0,-3.5"/></g><g stroke-opacity="5.0e-2" stroke="#808080" stroke-width="5.0e-3" fill="none"><polyline points="-2.0,0.5
-2.0,-3.5"/></g><g stroke-opacity="5.0e-2" stroke="#808080" stroke-width="5.0e-3" fill="none"><polyline points="-1.0000000000000004,0.5
-1.0000000000000004,-3.5"/></g><g stroke-opacity="5.0e-2" stroke="#808080" stroke-width="5.0e-3" fill="none"><polyline points="-8.881784197001252e-16,0.5
-8.881784197001252e-16,-3.5"/></g><g stroke-opacity="5.0e-2" stroke="#808080" stroke-width="5.0e-3" fill="none"><polyline points="0.9999999999999991,0.5
0.9999999999999991,-3.5"/></g><g stroke-opacity="5.0e-2" stroke="#808080" stroke-width="5.0e-3" fill="none"><polyline points="2.0,0.5
2.0,-3.5"/></g><g stroke-opacity="5.0e-2" stroke="#808080" stroke-width="5.0e-3" fill="none"><polyline points="3.0,0.5
3.0,-3.5"/></g><g fill-opacity="1.0" font-size="5.0e-2" stroke="none" stroke-width="0.0" fill="#808080" text-anchor="middle"><text x="-4.0" y="0.61125">-4</text></g><g fill-opacity="1.0" font-size="5.0e-2" stroke="none" stroke-width="0.0" fill="#808080" text-anchor="middle"><text x="-3.0" y="0.61125">-3</text></g><g fill-opacity="1.0" font-size="5.0e-2" stroke="none" stroke-width="0.0" fill="#808080" text-anchor="middle"><text x="-2.0" y="0.61125">-2</text></g><g fill-opacity="1.0" font-size="5.0e-2" stroke="none" stroke-width="0.0" fill="#808080" text-anchor="middle"><text x="-1.0000000000000004" y="0.61125">-1</text></g><g fill-opacity="1.0" font-size="5.0e-2" stroke="none" stroke-width="0.0" fill="#808080" text-anchor="middle"><text x="-8.881784197001252e-16" y="0.61125">0</text></g><g fill-opacity="1.0" font-size="5.0e-2" stroke="none" stroke-width="0.0" fill="#808080" text-anchor="middle"><text x="0.9999999999999991" y="0.61125">1</text></g><g fill-opacity="1.0" font-size="5.0e-2" stroke="none" stroke-width="0.0" fill="#808080" text-anchor="middle"><text x="2.0" y="0.61125">2</text></g><g fill-opacity="1.0" font-size="5.0e-2" stroke="none" stroke-width="0.0" fill="#808080" text-anchor="middle"><text x="3.0" y="0.61125">3</text></g><g stroke-opacity="1.0" fill-opacity="1.0" stroke="#808080" stroke-width="5.0e-3" fill="#808080"><polyline points="-4.0,0.5425
-4.0,0.5125"/><polyline points="-3.0,0.5425
-3.0,0.5125"/><polyline points="-2.0,0.5425
-2.0,0.5125"/><polyline points="-1.0000000000000004,0.5425
-1.0000000000000004,0.5125"/><polyline points="-8.881784197001252e-16,0.5425
-8.881784197001252e-16,0.5125"/><polyline points="0.9999999999999991,0.5425
0.9999999999999991,0.5125"/><polyline points="2.0,0.5425
2.0,0.5125"/><polyline points="3.0,0.5425
3.0,0.5125"/></g><g stroke-opacity="1.0" fill-opacity="1.0" stroke="#808080" stroke-width="0.0" fill="#808080"><rect height="5.0000000000000044e-3" width="7.0" x="-4.0" y="0.51"/></g><g stroke-opacity="0.4" stroke="#33a02c" stroke-width="3.0e-2" fill="none"><polyline points="4.04565611708918e-2,-3.601595374466926e-2
-0.1100728945645777,-8.800467303322723e-2
-0.26113586760633956,-0.14459414816136595
-0.4122755076427147,-0.20561323911489504
-0.5630347325028198,-0.27087740966922236
-0.7129576104816207,-0.34018928547073246
-0.86159073918571,-0.4133392509437127
-1.0084846167298291,-0.4901060832176406
-1.1531950011373477,-0.5702576211576941
-1.2952842538335116,-0.653551467475164
-1.434322663168444,-0.7397357217944301
-1.5698897439672481,-0.8285497424595359
-1.701575509177041,-0.9197249347764557
-1.8289817097651944,-1.0129855633072524
-1.9517230391189981,-1.108049585759538
-2.0694282983043744,-1.2046295059493537
-2.181741518659628,-1.302433243257918
-2.2883230383292306,-1.401165015952797
-2.388850529481946,-1.5005262357021167
-2.483019973106755,-1.6002164105766
-2.5705465784385595,-1.6999340538085383
-2.651165644233094,-1.7993775955593843
-2.7246333592863703,-1.8982462949385748
-2.790727539777661,-1.9962411495154204
-2.849248301206157,-2.0930657995734716
-2.9000186628891607,-2.1884274243726964
-2.942885083193726,-2.282037627708951
-2.977717923883013,-2.3736133100926025
-3.0044118421731136,-2.4628775249086248
-3.0228861093146513,-2.5495603159689506
-3.0330848547356917,-2.6333995339241008
-3.03497723500763,-2.7141416290650833
-3.0285575271230334,-2.7915424181179436
-3.0138451458033853,-2.865367822711979
-2.990884584784353,-2.9353945772883305
-2.9597452822561605,-3.001410904308069
-2.9205214108660087,-3.0632171547177713
-2.8733315929176246,-3.120626411735683
-2.818318541629237,-3.173465056132457
-2.755648629534904,-3.221573291296951
-2.6855113853344603,-3.2648056264991254
-2.608118920713702,-3.3030313168885796
-2.523705288868271,-3.3361347588980252
-2.4325257766711985,-3.364015839855938
-2.3348561326247674,-3.386590240751052
-2.2309917329315345,-3.403789691233081
-2.1212466882065453,-3.4155621760784705
-2.005952893532216,-3.421872092496791
-1.88545902472878,-3.4227003578020323
-1.7601294838757804,-3.4180444671231784
-1.6303432972736283,-3.4079185009795303
-1.4964929691780497,-3.392353082697875
-1.3589832947739806,-3.3713952858002694
-1.218230135978775,-3.3451084916425287
-1.074659163776996,-3.3135721977339507
-0.9287045708902486,-3.2768817773179677
-0.7808077586752562,-3.2351481909408015
-0.6314160022213207,-3.188497650880419
-0.48098109768420816,-3.1370712394506235
-0.3299579959472574,-3.081024482334628
-0.17880342674185368,-3.0205268782384445
-2.7974517388233977e-2,-2.955761386286542
0.12207258966611256,-2.8869238727099917
0.27088411632953857,-2.8142225185004706
0.4180100211989899,-2.7378771898214787
0.5630053605920864,-2.658118773080853
0.7054316341625153,-2.5751884766754185
0.8448581110292261,-2.4893371015195087
0.9808631324089312,-2.4008242825634225
1.113035386812407,-2.3099177035956777
1.2409751539481517,-2.216892287703636
1.3642955135714772,-2.1220293658408016
1.4826235156232412,-2.025615826015184
1.5956013081194023,-1.927943245671822
1.7028872193804228,-1.8293070098933333
1.8041567913275856,-1.730005418085267
1.8991037607212888,-1.6303387818478412
1.9874409853738237,-1.5306085167623338
2.0689013125355578,-1.4311162308387781
2.1432383868283083,-1.332162812381691
2.2102273952825158,-1.2340475200323762
2.269665747225061,-1.137067077739717
2.3213736869615875,-1.0415147773964661
2.3651948374004146,-0.9476795918548994
2.4009966729740055,-0.8558453010042836
2.428670920427761,-0.7662896335530697
2.4481338862640616,-0.6792834271113214
2.45932670985128,-0.5950898091134543
2.4622155414323146,-0.5139634010583648
2.456791644494296,-0.4361495484735435
2.4430714221898757,-0.36188357893193035
2.4210963677301978,-0.29139009036542696
2.390932938899562,-0.22488227182741027
2.35267235707132,-0.1625612587583971
2.3064303313327565,-0.1046155247046936
2.2523467085533317,-5.122031132962679e-2
2.1905850504545326,-2.537098441131924e-3
2.121332138960379,4.1286884361546816e-2
2.0447974113245095,8.011910294513092e-2
1.9612123267421877,0.11384211945700962
1.8708296663627317,0.14235394748519598"/></g><g stroke-opacity="0.8" fill-opacity="0.3" stroke="#1f78b4" stroke-width="3.0e-3" fill="#a6cee3"><rect height="2.9999999999999805e-2" width="3.0000000000000027e-2" x="-0.30148671851794784" y="-1.6242991486979668"/><rect height="3.0e-2" width="3.0e-2" x="-1.5000000000000888e-2" y="-1.5e-2"/><rect height="3.0e-2" width="3.0000000000000027e-2" x="1.985" y="-1.5e-2"/><rect height="3.000000000000025e-2" width="2.9999999999999805e-2" x="1.4305640890509286" y="-2.124299148697967"/><rect height="3.000000000000025e-2" width="3.000000000000025e-2" x="-2.3014867185179466" y="-3.356349956266845"/></g><g stroke-opacity="1.0" stroke="#e63305" stroke-width="5.0e-3" fill="none" stroke-linecap="round" stroke-dasharray="3.0e-2 1.0e-2"><polyline points="-0.2864867185179478,-1.6092991486979669
1.4455640890509285,-2.109299148697967"/></g><g stroke-opacity="1.0" stroke="#e6cc05" stroke-width="5.0e-3" fill="none" stroke-linecap="round" stroke-dasharray="3.0e-2 1.0e-2"><polyline points="-0.2864867185179478,-1.6092991486979669
-2.2864867185179465,-3.341349956266845"/></g><g stroke-opacity="1.0" stroke="#33e6cc" stroke-width="5.0e-3" fill="none" stroke-linecap="round" stroke-dasharray="3.0e-2 1.0e-2"><polyline points="-0.2864867185179478,-1.6092991486979669
-8.881784197001252e-16,-0.0"/></g><g stroke-opacity="1.0" stroke="#3333e6" stroke-width="5.0e-3" fill="none" stroke-linecap="round" stroke-dasharray="3.0e-2 1.0e-2"><polyline points="-0.2864867185179478,-1.6092991486979669
2.0,-0.0"/></g><g stroke-opacity="0.3" stroke="#e31a1c" stroke-width="4.0e-2" fill="none"><polyline points="0.0,-0.0
-0.14100802543192303,-4.5733527702466525e-2
-0.28243205242005986,-9.593812754463205e-2
-0.4238676738717646,-0.15047023766722867
-0.5649104495396009,-0.2091739215396644
-0.7051570625327872,-0.2718813138661478
-0.8442064726163507,-0.33841310060253527
-0.9816610630001037,-0.4085790317112924
-1.117127777338164,-0.4821784651883215
-1.2502192436877082,-0.5590009408059863
-1.3805548822129836,-0.638826781931708
-1.5077619934670392,-0.7214277237011971
-1.631476824139194,-0.8065675657500427
-1.7513456072207232,-0.8940028476371534
-1.8670255736143417,-0.9834835450286462
-1.9781859322947688,-1.0747537846514228
-2.0845088162175625,-1.1675525759719996
-2.1856901912713713,-1.2616145575083242
-2.2814407256744103,-1.3566707556404842
-2.3714866173291016,-1.4524493537504446
-2.4555703767690193,-1.548676469491446
-2.533451563459283,-1.6450769379644319
-2.604907473344915,-1.741375098561968
-2.6697337756811006,-1.8372955832296727
-2.7277450973243003,-1.9325641038910728
-2.7787755528134204,-2.026908236784221
-2.822679218725262,-2.120058201467252
-2.859330550947795,-2.21174763226525
-2.888624743678063,-2.3017143399524853
-2.9104780291181473,-2.3897010614919383
-2.924827917012201,-2.4754561956881993
-2.9316333733395776,-2.5587345226501497
-2.930874937653096,-2.639297905006052
-2.9225547787268855,-2.7169159688659392
-2.906696688354697,-2.7913667625840315
-2.883346013316417,-2.862437391437458
-2.852569525707316,-2.929924626406377
-2.8144552320008405,-2.993635485314661
-2.769112121390938,-3.053387784669377
-2.716669854133534,-3.1090106606210415
-2.657278390778367,-3.160345057554936
-2.591107563351404,-3.2072441829163645
-2.518346589714046,-3.249573926969246
-2.4392035324878574,-3.287213246287724
-2.3539047040920034,-3.3200545098842014
-2.262694019594756,-3.348003806984017
-2.1658322992295727,-3.37098121556669
-2.0635965225702657,-3.3889210309058058
-1.9562790364979419,-3.40177195345405
-1.844186719224576,-3.409497235536108
-1.7276401027637318,-3.4120747864299616
-1.6069724563577363,-3.409497235536108
-1.4825288334822875,-3.40177195345405
-1.3546650851536293,-3.3889210309058058
-1.2237468423597835,-3.37098121556669
-1.0901484705255613,-3.348003806984018
-0.9542519990011895,-3.3200545098842014
-0.8164460286356174,-3.2872132462877244
-0.6771246205584331,-3.249573926969247
-0.5366861693478651,-3.2072441829163654
-0.3955322638071732,-3.160345057554936
-0.25406653860701267,-3.1090106606210424
-0.11269352007756428,-3.0533877846693787
2.8182530549051066e-2,-2.993635485314661
0.16815877313829386,-2.9299246264063785
0.3068349405890922,-2.8624373914374592
0.4438144834119946,-2.7913667625840315
0.5787057036767047,-2.71691596886594
0.7111228750864056,-2.639297905006054
0.8406873459759847,-2.5587345226501514
0.9670286220800834,-2.4754561956882
1.089785425974779,-2.389701061491939
1.2086067301633854,-2.3017143399524853
1.3231527608521843,-2.2117476322652503
1.4330959695458354,-2.1200582014672533
1.5381219696840782,-2.026908236784222
1.637930435641385,-1.9325641038910741
1.7322359615189278,-1.837295583229674
1.820768877272985,-1.7413750985619685
1.903276019846147,-1.6450769379644332
1.979521457096177,-1.5486764694914479
2.049287162452469,-1.4524493537504468
2.112373638370859,-1.3566707556404856
2.1686004868040376,-1.261614557508325
2.217806925056248,-1.1675525759719996
2.2598522455471945,-1.0747537846514246
2.2946162181704315,-0.9834835450286482
2.3219994340956687,-0.8940028476371548
2.341923590031909,-0.8065675657500432
2.3543317121385128,-0.7214277237011971
2.3591883189439606,-0.6388267819317092
2.3564795228063815,-0.5590009408059881
2.346213069625776,-0.4821784651883224
2.3284183166943304,-0.4085790317112937
2.303146148748189,-0.33841310060253593
2.270468832460711,-0.2718813138661489
2.230479809793332,-0.20917392153966485
2.1832934307948992,-0.15047023766722845
2.129044626613604,-9.593812754463316e-2
2.067888523656511,-4.5733527702467525e-2
2.0,-4.440892098500626e-16"/></g><g stroke-opacity="1.0" stroke="#1f78b4" stroke-width="2.0e-3" fill="none"><polyline points="1.4455640890509285,-2.109299148697967
1.3165652433729376,-2.217068882970519
1.18123988396614,-2.3224400277654778
1.0401220781998397,-2.4249967313138336
0.8937687535828047,-2.524334249160382
0.7427574998248208,-2.6200605415051785
0.5876842893539953,-2.7117978204055206
0.4291611252858436,-2.799184040732366
0.2678136261265971,-2.8818743289970485
0.10427855674277975,-2.959542344409389
-6.0798684658820434e-2,-3.031881566795695
-0.2267666136230062,-3.0986065062938555
-0.39297023055769387,-3.1594538300513957
-0.5587536057180484,-3.2141834014799437
-0.7234624678615322,-3.2625792279646317
-0.8864467863575878,-3.304450313288277
-1.0470633365615631,-3.339631411406186
-1.2046782383285253,-3.367983678596801
-1.3586694576485985,-3.389395221414439
-1.5084292615310217,-3.4037815382816046
-1.6533666164486198,-3.411085852978104
-1.7929095208771106,-3.4112793387108553
-1.9265072627238031,-3.404361231880067
-2.0536325927366317,-3.390358835092816
-2.1737838053160745,-3.3693274094121364
-2.2864867185179474,-3.341349956266845
-2.3912965454329074,-3.306536889882823
-2.487799649557175,-3.265025601528512
-2.5756151772268465,-3.2169799172943425
-2.6543965606733098,-3.1625894515460016
-2.723832885767889,-3.1020688586031575
-2.783650119057878,-3.035656985596927
-2.833612189251375,-2.9636159298493663
-2.8735219188828243,-2.8862300044950846
-2.903221802482392,-2.803804616427189
-2.9225946281780963,-2.716665060995804
-2.9315639402775195,-2.625155238215943
-2.9300943410034934,-2.5296362955512546
-2.9181916301929567,-2.430485202629985
-2.8959027824076466,-2.3280932635180664
-2.863315761546967,-2.222864572420748
-2.8205591736946607,-2.1152144189073745
-2.7678017595693536,-2.0055676489531846
-2.705251728582029,-1.8943569882663462
-2.6331559371286026,-1.7820213345172697
-2.551798914360506,-1.6690040252100253
-2.461501739278119,-1.555751088031751
-2.3626207735786346,-1.4427094805851444
-2.2555462552592527,-1.3303253264509998
-2.140700758526087,-1.2190421545422483
-2.018537526086825,-1.1092991486979673
-1.8895386804088332,-1.001529414425415
-1.7542133210020365,-0.8961582696304561
-1.6130955152357354,-0.7936015660821002
-1.4667421906187004,-0.6942640482355523
-1.315730936860716,-0.5985377558907549
-1.1606577263898914,-0.5068004769904132
-1.0021345623217401,-0.41941425666356935
-0.8407870631624927,-0.3367239683988853
-0.6772519937786758,-0.25905595298654527
-0.5121747523770757,-0.18671673060023886
-0.34620682341288855,-0.1199917911020788
-0.180003206478204,-5.9144467344538376e-2
-1.4219831317847209e-2,-4.4148959159905354e-3
0.1504890308256357,4.398093056869845e-2
0.3134733493216917,8.585201589234304e-2
0.47408989952566927,0.1210331140102518
0.6317048012926296,0.14938538120086653
0.7856960206127033,0.1707969240185056
0.9354558244951265,0.18518324088567084
1.0803931794127237,0.1924875555821708
1.2199360838412145,0.19268104131492203
1.353533825687908,0.1857629344841331
1.4806591557007351,0.17176053769688227
1.6008103682801789,0.15072911201620215
1.7135132814820508,0.12275165887091055
1.8183231083970108,8.793859248688918e-2
1.9148262125212794,4.642730413257801e-2
2.002641740190951,-1.6183801015914323e-3
2.081423123637414,-5.600884584993293e-2
2.1508594487319943,-0.11652943879277633
2.2106766820219814,-0.1829413117990064
2.2606387522154794,-0.2549823675465661
2.3005484818469286,-0.33236829290084946
2.330248365446497,-0.414793680968745
2.3496211911422016,-0.5019332364001298
2.358590503241624,-0.5934430591799907
2.3571209039675978,-0.6889620018446793
2.345218193157062,-0.788113094765949
2.322929345371752,-0.8905050338778678
2.2903423245110712,-0.995733724975186
2.247585736658765,-1.1033838784885588
2.194828322533459,-1.2130306484427487
2.1322782915461342,-1.324241309129587
2.060182500092707,-1.4365769628786644
1.9788254773246106,-1.5495942721859084
1.8885283022422215,-1.662847209364183
1.789647336542738,-1.7758888168107894
1.682572818223357,-1.888272970944933
1.5677273214901897,-1.9995561428536868
1.4455640890509303,-2.1092991486979664"/></g><g fill-opacity="1.0" font-size="8.0e-2" stroke="none" stroke-width="0.0" fill="#333333" text-anchor="middle"><text x="-8.881784197001252e-16" y="-2.5">1.000,2.000</text></g><g stroke-opacity="0.8" fill-opacity="0.3" stroke="#1f78b4" stroke-width="3.0e-3" fill="#a6cee3"><circle cy="-2.842138483816435" r="2.5e-2" cx="0.34684589351583117"/><circle cy="-2.9246345332233945" r="2.5e-2" cx="-2.8553171532750703"/></g><g></g></svg>