<svg xmlns="http://www.w3.org/2000/svg" width="450.7383682780789" xmlns:xlink="http://www.w3.org/1999/xlink" viewBox="-0.7053005212292323 -0.47457096318818554 1.455300521229232 0.9686110326854165" height="300.0"><style>svg {
  color-scheme: light dark;
}
{
  .canvas g, .title g, .axisbar g, .ticktext g, .tickglyph g, .ticklines g, .legendContent g text {
    fill: #0d0d0d;
  }
  .ticklines g, .tickglyph g, .legendBorder g {
    stroke: #0d0d0d;
  }
}
@media (prefers-color-scheme:dark) {
  .canvas g, .title g, .axisbar g, .ticktext g, .tickglyph g, .ticklines g, .legendContent g text {
    fill: #f0f0f0;
  }
  .ticklines g, .tickglyph g, .legendBorder g {
    stroke: #f0f0f0;
  }
}</style><g class="chart"><g class="quad"><g fill="#1f78b5" stroke="#000000" stroke-width="1.0e-2" fill-opacity="0.1" stroke-opacity="0.0"><path d="M -0.5878,0.0169 Q 0.3162,0.4006 -0.1358,-0.3667"/></g><g fill="none" stroke="#a6cfe3" stroke-width="2.0e-3" stroke-opacity="1.0"><polyline points="-0.5877796177652296,1.6922516142470367e-2
-0.5698350798132261,2.448081649656314e-2
-0.5521617439461396,3.180891480941461e-2
-0.53475961016397,3.890681108102473e-2
-0.5176286784667173,4.577450531139343e-2
-0.5007689488543815,5.2411997500520724e-2
-0.4841804213269627,5.881928764840655e-2
-0.46786309588446084,6.499637575505102e-2
-0.4518169725268758,7.094326182045407e-2
-0.4360420512542078,7.665994584461566e-2
-0.4205383320664567,8.214642782753595e-2
-0.4053058149636225,8.740270776921472e-2
-0.3903444999457052,9.242878566965207e-2
-0.37565438701270487,9.722466152884812e-2
-0.36123547616462154,0.10179033534680276
-0.3470877674014551,0.10612580712351594
-0.33321126072320556,0.1102310768589877
-0.3196059561298729,0.1141061445532181
-0.3062718536214572,0.11775101020620704
-0.2932089531979584,0.12116567381795462
-0.2804172548593766,0.12435013538846074
-0.26789675860571177,0.1273043949177255
-0.25564746443696384,0.13002845240574873
-0.24366937235313274,0.13252230785253072
-0.23196248235421862,0.13478596125807119
-0.2205267944402215,0.1368194126223703
-0.2093623086111412,0.138622661945428
-0.19846902486697793,0.14019570922724428
-0.1878469432077316,0.14153855446781916
-0.17749606363340215,0.14265119766715262
-0.16741638614398957,0.14353363882524467
-0.15760791073949393,0.1441858779420953
-0.14807063741991527,0.14460791501770465
-0.1388045661852536,0.14479975005207246
-0.1298096970355087,0.14476138304519887
-0.12108602997068085,0.1444928139970839
-0.11263356499076982,0.14399404290772755
-0.10445230209577594,0.14326506977712977
-9.654224128569877e-2,0.14230589460529053
-8.890338256053865e-2,0.14111651739220993
-8.153572592029523e-2,0.13969693813788792
-7.443927136496897e-2,0.1380471568423245
-6.761401889455965e-2,0.1361671735055197
-6.105996850906714e-2,0.13405698812747346
-5.477712020849157e-2,0.13171660070818586
-4.876547399283293e-2,0.12914601124765668
-4.3025029862091446e-2,0.1263452197458863
-3.7555787816266784e-2,0.12331422620287436
-3.235774785535883e-2,0.12005303061862105
-2.7430909979367923e-2,0.11656163299312644
-2.277527418829406e-2,0.11284003332639037
-1.8390840482137016e-2,0.10888823161841282
-1.4277608860896907e-2,0.10470622786919387
-1.043557932457384e-2,0.10029402207873361
-6.864751873167374e-3,9.565161424703189e-2
-3.5651265066782845e-3,9.077900437408865e-2
-5.367032251059056e-4,8.567619245990415e-2
2.2205179715495404e-3,8.034317850447825e-2
4.706537083288054e-3,7.477996250781088e-2
6.921354110109745e-3,6.898654446990216e-2
8.864969052014282e-3,6.29629243907519e-2
1.0537381909001997e-2,5.6709102270360356e-2
1.193859268107278e-2,5.022507810872734e-2
1.306860136822674e-2,4.3510851905852854e-2
1.3927407970463657e-2,3.6566423661737124e-2
1.4515012487783752e-2,2.939179337637987e-2
1.4831414920186803e-2,2.1986961049781262e-2
1.4876615267673032e-2,1.435192668194113e-2
1.4650613530242218e-2,6.4866902728596965e-3
1.4153409707894471e-2,-1.6087481774630374e-3
1.3385003800629902e-2,-9.934388669027239e-3
1.234539580844829e-2,-1.8490231201832907e-2
1.1034585731349855e-2,-2.7276275775879988e-2
9.452573569334266e-3,-3.6292522391168536e-2
7.599359322402188e-3,-4.553897104769833e-2
5.474942990552734e-3,-5.50156217454697e-2
3.079324573786568e-3,-6.472247448448254e-2
4.1250407210347007e-4,-7.465952926473662e-2
-2.525518514496783e-3,-8.482678608623206e-2
-5.7347431860136355e-3,-9.522424494896897e-2
-9.215169942447643e-3,-0.10585190585294746
-1.2966798783798361e-2,-0.11670976879816719
-1.6989629710066345e-2,-0.12779783378462806
-2.128366272125093e-2,-0.13911610081233072
-2.5848897817352556e-2,-0.15066456988127463
-3.0685334998371117e-2,-0.16244324099146012
-3.579297426430661e-2,-0.17445211414288686
-4.1171815615159035e-2,-0.18669118933555506
-4.6821859050928394e-2,-0.19916046656946473
-5.2743104571614685e-2,-0.21185994584461576
-5.893555217721791e-2,-0.22478962716100825
-6.539920186773807e-2,-0.237949510518642
-7.213405364317516e-2,-0.2513395959175173
-7.914010750352918e-2,-0.2649598833576339
-8.641736344880002e-2,-0.2788103728389919
-9.39658214789878e-2,-0.2928910643615913
-0.10178548159409262,-0.30720195792543226
-0.10987634379411437,-0.32174305353051436
-0.11823840807905317,-0.33651435117683803
-0.12687167444890868,-0.3515158508644033
-0.13577614290368112,-0.3667475525932098"/></g><g fill="#a6cfe3" stroke="#1f78b5" stroke-width="3.0e-3" fill-opacity="1.0" stroke-opacity="1.0"><rect x="-0.6027796177652296" width="3.0000000000000027e-2" y="1.922516142470368e-3" height="3.0e-2"/><rect x="-0.15077614290368113" width="3.0000000000000013e-2" y="-0.3817475525932098" height="3.0000000000000027e-2"/></g><g fill="#a6cfe3" stroke="#1f78b5" stroke-width="3.0e-3" fill-opacity="1.0" stroke-opacity="1.0"><circle cy="0.40059258487815036" cx="0.31622733195786734" r="1.5e-2"/></g><g fill="#6666cc" stroke="#808080" stroke-width="2.0e-3" fill-opacity="0.1" stroke-opacity="1.0"><rect x="-0.5877796177652296" width="0.6026712998153979" y="-0.3667475525932098" height="0.5115600916475735"/></g></g></g><g class="hud"><g class="frame"><g fill="#ffffff" stroke="#000000" stroke-width="0.0" fill-opacity="2.0e-2" stroke-opacity="0.0"><rect x="-0.5977236942121836" width="0.9238951026170049" y="-0.3794086648614873" height="0.7926623620079151"/></g></g><g class="axis"><g class="ticks"><g class="tickglyph"><g fill="#0d0d0d" stroke="#0d0d0d" stroke-width="4.0e-3" fill-opacity="0.4" stroke-opacity="0.4"><g transform="rotate(-90.0, -0.6158038332066456, 0.40059258487815036)"><polyline points="-0.6158038332066456,0.4155925848781504
-0.6158038332066456,0.38559258487815035"/></g><g transform="rotate(-90.0, -0.6158038332066456, 0.32385857113101435)"><polyline points="-0.6158038332066456,0.33885857113101436
-0.6158038332066456,0.30885857113101434"/></g><g transform="rotate(-90.0, -0.6158038332066456, 0.24712455738387834)"><polyline points="-0.6158038332066456,0.26212455738387835
-0.6158038332066456,0.23212455738387833"/></g><g transform="rotate(-90.0, -0.6158038332066456, 0.17039054363674233)"><polyline points="-0.6158038332066456,0.18539054363674234
-0.6158038332066456,0.15539054363674232"/></g><g transform="rotate(-90.0, -0.6158038332066456, 9.365652988960627e-2)"><polyline points="-0.6158038332066456,0.10865652988960627
-0.6158038332066456,7.865652988960627e-2"/></g><g transform="rotate(-90.0, -0.6158038332066456, 1.6922516142470367e-2)"><polyline points="-0.6158038332066456,3.192251614247037e-2
-0.6158038332066456,1.922516142470368e-3"/></g><g transform="rotate(-90.0, -0.6158038332066456, -5.981149760466575e-2)"><polyline points="-0.6158038332066456,-4.4811497604665754e-2
-0.6158038332066456,-7.481149760466575e-2"/></g><g transform="rotate(-90.0, -0.6158038332066456, -0.13654551135180182)"><polyline points="-0.6158038332066456,-0.12154551135180182
-0.6158038332066456,-0.15154551135180183"/></g><g transform="rotate(-90.0, -0.6158038332066456, -0.21327952509893777)"><polyline points="-0.6158038332066456,-0.19827952509893776
-0.6158038332066456,-0.22827952509893779"/></g><g transform="rotate(-90.0, -0.6158038332066456, -0.29001353884607384)"><polyline points="-0.6158038332066456,-0.2750135388460738
-0.6158038332066456,-0.30501353884607385"/></g><g transform="rotate(-90.0, -0.6158038332066456, -0.3667475525932098)"><polyline points="-0.6158038332066456,-0.3517475525932098
-0.6158038332066456,-0.3817475525932098"/></g></g></g><g class="ticktext"><g fill="#0d0d0d" stroke="none" stroke-width="0.0" font-size="3.01335649907699e-2" fill-opacity="1.0" text-anchor="end"><text x="-0.6375" y="0.4111435117683816">-1.0</text><text x="-0.6375" y="0.33440949802124553">-0.80</text><text x="-0.6375" y="0.2576754842741095">-0.60</text><text x="-0.6375" y="0.18094147052697357">-0.40</text><text x="-0.6375" y="0.10420745677983745">-0.20</text><text x="-0.6375" y="2.747344303270155e-2">0.0</text><text x="-0.6375" y="-4.926057071443457e-2">0.20</text><text x="-0.6375" y="-0.12599458446157064">0.40</text><text x="-0.6375" y="-0.20272859820870648">0.60</text><text x="-0.6375" y="-0.27946261195584265">0.80</text><text x="-0.6375" y="-0.3561966257029785">1.0</text></g></g><g class="ticklines"><g fill="none" stroke="#0d0d0d" stroke-width="5.0e-3" stroke-opacity="5.0e-2"><polyline points="-0.5877796177652296,0.40059258487815036
0.31622733195786734,0.40059258487815036"/><polyline points="-0.5877796177652296,0.32385857113101435
0.31622733195786734,0.32385857113101435"/><polyline points="-0.5877796177652296,0.24712455738387834
0.31622733195786734,0.24712455738387834"/><polyline points="-0.5877796177652296,0.17039054363674233
0.31622733195786734,0.17039054363674233"/><polyline points="-0.5877796177652296,9.365652988960627e-2
0.31622733195786734,9.365652988960627e-2"/><polyline points="-0.5877796177652296,1.6922516142470367e-2
0.31622733195786734,1.6922516142470367e-2"/><polyline points="-0.5877796177652296,-5.981149760466575e-2
0.31622733195786734,-5.981149760466575e-2"/><polyline points="-0.5877796177652296,-0.13654551135180182
0.31622733195786734,-0.13654551135180182"/><polyline points="-0.5877796177652296,-0.21327952509893777
0.31622733195786734,-0.21327952509893777"/><polyline points="-0.5877796177652296,-0.29001353884607384
0.31622733195786734,-0.29001353884607384"/><polyline points="-0.5877796177652296,-0.3667475525932098
0.31622733195786734,-0.3667475525932098"/></g></g></g><g class="axisbar"><g fill="#0d0d0d" stroke="#000000" stroke-width="0.0" fill-opacity="0.4" stroke-opacity="0.0"><rect x="-0.6061610924095993" width="2.410685199261575e-3" y="-0.36828223286815254" height="0.7704094980212457"/></g></g></g><g class="axis"><g class="ticks"><g class="tickglyph"><g fill="#0d0d0d" stroke="#0d0d0d" stroke-width="4.0e-3" fill-opacity="0.4" stroke-opacity="0.4"><polyline points="-0.5877796177652296,0.45127390127056866
-0.5877796177652296,0.42127390127056863"/><polyline points="-0.49737892279291995,0.45127390127056866
-0.49737892279291995,0.42127390127056863"/><polyline points="-0.4069782278206102,0.45127390127056866
-0.4069782278206102,0.42127390127056863"/><polyline points="-0.31657753284830054,0.45127390127056866
-0.31657753284830054,0.42127390127056863"/><polyline points="-0.22617683787599074,0.45127390127056866
-0.22617683787599074,0.42127390127056863"/><polyline points="-0.13577614290368112,0.45127390127056866
-0.13577614290368112,0.42127390127056863"/><polyline points="-4.537544793137138e-2,0.45127390127056866
-4.537544793137138e-2,0.42127390127056863"/><polyline points="4.502524704093824e-2,0.45127390127056866
4.502524704093824e-2,0.42127390127056863"/><polyline points="0.13542594201324798,0.45127390127056866
0.13542594201324798,0.42127390127056863"/><polyline points="0.2258266369855576,0.45127390127056866
0.2258266369855576,0.42127390127056863"/><polyline points="0.31622733195786734,0.45127390127056866
0.31622733195786734,0.42127390127056863"/></g></g><g class="ticktext"><g fill="#0d0d0d" stroke="none" stroke-width="0.0" font-size="3.01335649907699e-2" fill-opacity="1.0" text-anchor="middle"><text x="-0.5877796177652296" y="0.485">0.0</text><text x="-0.49737892279291995" y="0.485">0.20</text><text x="-0.4069782278206102" y="0.485">0.40</text><text x="-0.31657753284830054" y="0.485">0.60</text><text x="-0.22617683787599074" y="0.485">0.80</text><text x="-0.13577614290368112" y="0.485">1.0</text><text x="-4.537544793137138e-2" y="0.485">1.2</text><text x="4.502524704093824e-2" y="0.485">1.4</text><text x="0.13542594201324798" y="0.485">1.6</text><text x="0.2258266369855576" y="0.485">1.8</text><text x="0.31622733195786734" y="0.485">2.0</text></g></g><g class="ticklines"><g fill="none" stroke="#0d0d0d" stroke-width="5.0e-3" stroke-opacity="5.0e-2"><polyline points="-0.5877796177652296,0.40059258487815036
-0.5877796177652296,-0.3667475525932098"/><polyline points="-0.49737892279291995,0.40059258487815036
-0.49737892279291995,-0.3667475525932098"/><polyline points="-0.4069782278206102,0.40059258487815036
-0.4069782278206102,-0.3667475525932098"/><polyline points="-0.31657753284830054,0.40059258487815036
-0.31657753284830054,-0.3667475525932098"/><polyline points="-0.22617683787599074,0.40059258487815036
-0.22617683787599074,-0.3667475525932098"/><polyline points="-0.13577614290368112,0.40059258487815036
-0.13577614290368112,-0.3667475525932098"/><polyline points="-4.537544793137138e-2,0.40059258487815036
-4.537544793137138e-2,-0.3667475525932098"/><polyline points="4.502524704093824e-2,0.40059258487815036
4.502524704093824e-2,-0.3667475525932098"/><polyline points="0.13542594201324798,0.40059258487815036
0.13542594201324798,-0.3667475525932098"/><polyline points="0.2258266369855576,0.40059258487815036
0.2258266369855576,-0.3667475525932098"/><polyline points="0.31622733195786734,0.40059258487815036
0.31622733195786734,-0.3667475525932098"/></g></g></g><g class="axisbar"><g fill="#0d0d0d" stroke="#000000" stroke-width="0.0" fill-opacity="0.4" stroke-opacity="0.0"><rect x="-0.5889849603648604" width="0.9064176349223585" y="0.4209270985211414" height="3.069360549885436e-3"/></g></g></g><g class="legend"><g class="legendBorder"><g fill="#0d0d0d" stroke="#0d0d0d" stroke-width="2.5e-3" fill-opacity="0.0" stroke-opacity="1.0"><rect x="0.38176783581279183" width="0.3652188076881311" y="-0.2546839200166634" height="0.34977921266402856"/></g></g><g class="legendContent"><g fill="#0d0d0d" stroke="none" stroke-width="0.0" font-size="3.01335649907699e-2" fill-opacity="1.0" text-anchor="start"><text x="0.3968346183081768" y="6.440168714851074e-2">Bounding Box</text></g><g fill="#6666cc" stroke="#808080" stroke-width="2.5e-3" fill-opacity="0.1" stroke-opacity="1.0"><rect x="0.6710500597241826" width="3.0133564990770134e-2" y="3.562643199333476e-2" height="3.836700687356792e-2"/></g><g fill="#0d0d0d" stroke="none" stroke-width="0.0" font-size="3.01335649907699e-2" fill-opacity="1.0" text-anchor="start"><text x="0.3968346183081768" y="3.0144761508018036e-3">Path Control Point</text></g><g fill="#a6cfe3" stroke="#1f78b5" stroke-width="3.0e-3" fill-opacity="1.0" stroke-opacity="1.0"><circle cy="-6.577275567590135e-3" cx="0.6861168422195678" r="2.5e-2"/></g><g fill="#0d0d0d" stroke="none" stroke-width="0.0" font-size="3.01335649907699e-2" fill-opacity="1.0" text-anchor="start"><text x="0.3968346183081768" y="-5.837273484690686e-2">Path Endpoints</text></g><g fill="#a6cfe3" stroke="#1f78b5" stroke-width="3.0e-3" fill-opacity="1.0" stroke-opacity="1.0"><rect x="0.6611168422195678" width="5.0000000000000044e-2" y="-9.296448656529907e-2" height="4.9999999999999996e-2"/></g><g fill="#0d0d0d" stroke="none" stroke-width="0.0" font-size="3.01335649907699e-2" fill-opacity="1.0" text-anchor="start"><text x="0.3968346183081768" y="-0.11975994584461569">Path Chord</text></g><g fill="none" stroke="#a6cfe3" stroke-width="2.0e-3" stroke-opacity="1.0"><polyline points="0.6710500597241826,-0.1293516975630078
0.7313171897057227,-0.1293516975630078"/></g><g fill="#0d0d0d" stroke="none" stroke-width="0.0" font-size="3.01335649907699e-2" fill-opacity="1.0" text-anchor="start"><text x="0.3968346183081768" y="-0.18114715684232452">Path Fill</text></g><g fill="#1f78b5" stroke="#000000" stroke-width="5.0e-2" fill-opacity="0.1" stroke-opacity="0.0"><path d="M 0.6711,-0.1779 Q 0.7313,-0.1396 0.7012,-0.2163"/></g></g></g><g class="title"><g fill="#0d0d0d" stroke="none" stroke-width="0.0" font-size="4.8213703985231844e-2" fill-opacity="1.0" text-anchor="middle"><text x="2.234973938538387e-2" y="-0.43600000000000005">QuadPosition (Point 0 0) (Point 1 1) (Point 2 (-1))</text></g></g></g></svg>