<svg xmlns="http://www.w3.org/2000/svg" xmlns:xlink="http://www.w3.org/1999/xlink" width="455" height="300" viewBox="-0.7692 -0.5 1.5192 1.0"><style>svg {
  color-scheme: light dark;
}
{
  .canvas g, .title g, .axisbar g, .ticktext g, .tickglyph g, .ticklines g, .legendContent g text {
    fill: rgb(5%, 5%, 5%);
  }
  .ticklines g, .tickglyph g, .legendBorder g {
    stroke: rgb(5%, 5%, 5%);
  }
  .legendBorder g {
    fill: rgb(94%, 94%, 94%);
  }
}
@media (prefers-color-scheme:dark) {
  .canvas g, .title g, .axisbar g, .ticktext g, .tickglyph g, .ticklines g, .legendContent g text {
    fill: rgb(94%, 94%, 94%);
  }
  .ticklines g, .tickglyph g, .legendBorder g {
    stroke: rgb(94%, 94%, 94%);
  }
  .legendBorder g {
    fill: rgb(5%, 5%, 5%);
  }
}
svg { font-family: system-ui,-apple-system,"Segoe UI",Roboto,"Helvetica Neue",Arial,"Noto Sans","Liberation Sans",sans-serif,"Apple Color Emoji","Segoe UI Emoji","Segoe UI Symbol","Noto Color Emoji";
}

ticktext { font-family: SFMono-Regular,Menlo,Monaco,Consolas,"Liberation Mono","Courier New",monospace;
}

</style><g class="chart"><g class="quad"><g stroke-width="0.0100" stroke="rgb(0%, 0%, 0%)" stroke-opacity="0" fill="rgb(66%, 7%, 55%)" fill-opacity="0.2"><path d="M -0.6033,-0.0077 Q 0.2296,0.3702 -0.1868,-0.3855"/></g><g stroke-width="0.0020" stroke="rgb(2%, 29%, 48%)" stroke-opacity="1.0" fill="none"><polyline points="-0.6033,-0.0077 -0.5867,-0.0002 -0.5704,0.0070 -0.5544,0.0140 -0.5386,0.0207 -0.5231,0.0273 -0.5078,0.0336 -0.4928,0.0397 -0.4780,0.0455 -0.4635,0.0512 -0.4492,0.0566 -0.4351,0.0617 -0.4214,0.0667 -0.4078,0.0714 -0.3945,0.0759 -0.3815,0.0802 -0.3687,0.0842 -0.3562,0.0880 -0.3439,0.0916 -0.3319,0.0950 -0.3201,0.0981 -0.3085,0.1010 -0.2973,0.1037 -0.2862,0.1062 -0.2754,0.1084 -0.2649,0.1104 -0.2546,0.1122 -0.2446,0.1137 -0.2348,0.1150 -0.2253,0.1161 -0.2160,0.1170 -0.2069,0.1177 -0.1981,0.1181 -0.1896,0.1183 -0.1813,0.1182 -0.1733,0.1180 -0.1655,0.1175 -0.1580,0.1167 -0.1507,0.1158 -0.1436,0.1146 -0.1368,0.1132 -0.1303,0.1116 -0.1240,0.1098 -0.1180,0.1077 -0.1122,0.1054 -0.1067,0.1028 -0.1014,0.1001 -0.0963,0.0971 -0.0915,0.0939 -0.0870,0.0904 -0.0827,0.0868 -0.0787,0.0829 -0.0749,0.0788 -0.0713,0.0744 -0.0681,0.0699 -0.0650,0.0651 -0.0622,0.0600 -0.0597,0.0548 -0.0574,0.0493 -0.0554,0.0436 -0.0536,0.0377 -0.0520,0.0315 -0.0507,0.0251 -0.0497,0.0185 -0.0489,0.0117 -0.0484,0.0046 -0.0481,-0.0027 -0.0480,-0.0102 -0.0482,-0.0180 -0.0487,-0.0259 -0.0494,-0.0341 -0.0504,-0.0426 -0.0516,-0.0512 -0.0530,-0.0601 -0.0547,-0.0692 -0.0567,-0.0785 -0.0589,-0.0881 -0.0613,-0.0979 -0.0641,-0.1079 -0.0670,-0.1181 -0.0702,-0.1286 -0.0737,-0.1393 -0.0774,-0.1502 -0.0813,-0.1614 -0.0855,-0.1727 -0.0900,-0.1843 -0.0947,-0.1962 -0.0997,-0.2082 -0.1049,-0.2205 -0.1103,-0.2330 -0.1160,-0.2457 -0.1220,-0.2587 -0.1282,-0.2719 -0.1346,-0.2853 -0.1413,-0.2989 -0.1483,-0.3128 -0.1555,-0.3269 -0.1630,-0.3412 -0.1707,-0.3558 -0.1786,-0.3705 -0.1868,-0.3855"/></g><g stroke-width="0.0030" stroke="rgb(2%, 29%, 48%)" stroke-opacity="1.0" fill="rgb(2%, 73%, 80%)" fill-opacity="0.2"><rect width="0.0300" height="0.0300" x="-0.6183" y="-0.0227"/><rect width="0.0300" height="0.0300" x="-0.2018" y="-0.4005"/></g><g stroke-width="0.0030" stroke="rgb(2%, 29%, 48%)" stroke-opacity="1.0" fill="rgb(2%, 73%, 80%)" fill-opacity="0.2"><circle cx="0.2296" cy="0.3702" r="0.0150"/></g><g stroke-width="0.0020" stroke="rgb(40%, 40%, 40%)" stroke-opacity="1.0" fill="rgb(2%, 73%, 80%)" fill-opacity="0.05"><rect width="0.5552" height="0.5038" x="-0.6033" y="-0.3855"/></g></g></g><g class="hud"><g class="frame"><g stroke-width="0" stroke="rgb(0%, 0%, 0%)" stroke-opacity="0" fill="rgb(100%, 100%, 100%)" fill-opacity="0.02"><rect width="0.8515" height="0.7811" x="-0.6126" y="-0.3982"/></g></g><g class="axis"><g class="axisbar"><g stroke-width="0" stroke="rgb(0%, 0%, 0%)" stroke-opacity="0" fill="rgb(5%, 5%, 5%)" fill-opacity="0.4"><rect width="0.0023" height="0.7588" x="-0.6112" y="-0.3871"/></g></g><g class="ticks"><g class="ticklines"><g stroke-width="0.0050" stroke="rgb(5%, 5%, 5%)" stroke-opacity="0.05" fill="none"><polyline points="-0.6033,0.3702 0.2296,0.3702"/><polyline points="-0.6033,0.1812 0.2296,0.1812"/><polyline points="-0.6033,-0.0077 0.2296,-0.0077"/><polyline points="-0.6033,-0.1966 0.2296,-0.1966"/><polyline points="-0.6033,-0.3855 0.2296,-0.3855"/></g></g><g class="tickglyph"><g stroke-width="0.0023" stroke="rgb(5%, 5%, 5%)" stroke-opacity="0.4" fill="rgb(5%, 5%, 5%)" fill-opacity="0.4"><polyline points="-0.6270,0.3702
-0.6100,0.3702"/><polyline points="-0.6270,0.1812
-0.6100,0.1812"/><polyline points="-0.6270,-0.0077
-0.6100,-0.0077"/><polyline points="-0.6270,-0.1966
-0.6100,-0.1966"/><polyline points="-0.6270,-0.3855
-0.6100,-0.3855"/></g></g><g class="ticktext"><g stroke-width="0.0" stroke="none" fill="rgb(5%, 5%, 5%)" fill-opacity="1.0" font-size="0.0400" text-anchor="end"><text x="-0.6732" y="0.3786">-1.0</text><text x="-0.6732" y="0.1897">-0.5</text><text x="-0.6732" y="0.0008"> 0.0</text><text x="-0.6732" y="-0.1882"> 0.5</text><text x="-0.6732" y="-0.3771"> 1.0</text></g></g></g></g><g class="axis"><g class="axisbar"><g stroke-width="0" stroke="rgb(0%, 0%, 0%)" stroke-opacity="0" fill="rgb(5%, 5%, 5%)" fill-opacity="0.4"><rect width="0.8351" height="0.0031" x="-0.6044" y="0.3779"/></g></g><g class="ticks"><g class="ticklines"><g stroke-width="0.0050" stroke="rgb(5%, 5%, 5%)" stroke-opacity="0.05" fill="none"><polyline points="-0.6033,0.3702 -0.6033,-0.3855"/><polyline points="-0.3950,0.3702 -0.3950,-0.3855"/><polyline points="-0.1868,0.3702 -0.1868,-0.3855"/><polyline points="0.0214,0.3702 0.0214,-0.3855"/><polyline points="0.2296,0.3702 0.2296,-0.3855"/></g></g><g class="tickglyph"><g stroke-width="0.0031" stroke="rgb(5%, 5%, 5%)" stroke-opacity="0.4" fill="rgb(5%, 5%, 5%)" fill-opacity="0.4"><polyline points="-0.6033,0.4024
-0.6033,0.3794"/><polyline points="-0.3950,0.4024
-0.3950,0.3794"/><polyline points="-0.1868,0.4024
-0.1868,0.3794"/><polyline points="0.0214,0.4024
0.0214,0.3794"/><polyline points="0.2296,0.4024
0.2296,0.3794"/></g></g><g class="ticktext"><g stroke-width="0.0" stroke="none" fill="rgb(5%, 5%, 5%)" fill-opacity="1.0" font-size="0.0400" text-anchor="middle"><text x="-0.6033" y="0.4447">0.0</text><text x="-0.3950" y="0.4447">0.5</text><text x="-0.1868" y="0.4447">1.0</text><text x="0.0214" y="0.4447">1.5</text><text x="0.2296" y="0.4447">2.0</text></g></g></g></g><g class="legend"><g class="padding"></g><g class="padding"></g><g class="frame"><g stroke-width="0.0007" stroke="rgb(5%, 5%, 5%)" stroke-opacity="1.0" fill="rgb(5%, 5%, 5%)" fill-opacity="0"><rect width="0.4323" height="0.4366" x="0.2923" y="-0.3529"/></g></g><g class="legendContent"><g stroke-width="0.0" stroke="none" fill="rgb(5%, 5%, 5%)" fill-opacity="1.0" font-size="0.0282" text-anchor="start"><text x="0.3064" y="0.0338">Bounding Box</text></g><g stroke-width="0.0014" stroke="rgb(40%, 40%, 40%)" stroke-opacity="1.0" fill="rgb(2%, 73%, 80%)" fill-opacity="0.05"><rect width="0.0282" height="0.0384" x="0.6535" y="0.0146"/></g><g stroke-width="0.0" stroke="none" fill="rgb(5%, 5%, 5%)" fill-opacity="1.0" font-size="0.0282" text-anchor="start"><text x="0.3064" y="-0.0469">Path Control Point</text></g><g stroke-width="0.0004" stroke="rgb(2%, 29%, 48%)" stroke-opacity="1.0" fill="rgb(2%, 73%, 80%)" fill-opacity="0.2"><circle cx="0.6676" cy="-0.0469" r="0.0141"/></g><g stroke-width="0.0" stroke="none" fill="rgb(5%, 5%, 5%)" fill-opacity="1.0" font-size="0.0282" text-anchor="start"><text x="0.3064" y="-0.1275">Path Endpoints</text></g><g stroke-width="0.0004" stroke="rgb(2%, 29%, 48%)" stroke-opacity="1.0" fill="rgb(2%, 73%, 80%)" fill-opacity="0.2"><rect width="0.0282" height="0.0282" x="0.6535" y="-0.1416"/></g><g stroke-width="0.0" stroke="none" fill="rgb(5%, 5%, 5%)" fill-opacity="1.0" font-size="0.0282" text-anchor="start"><text x="0.3064" y="-0.2082">Path Chord</text></g><g stroke-width="0.0011" stroke="rgb(2%, 29%, 48%)" stroke-opacity="1.0" fill="none"><polyline points="0.6535,-0.2082 0.7099,-0.2082"/></g><g stroke-width="0.0" stroke="none" fill="rgb(5%, 5%, 5%)" fill-opacity="1.0" font-size="0.0282" text-anchor="start"><text x="0.3064" y="-0.2888">Path Fill</text></g><g stroke-width="0.0282" stroke="rgb(0%, 0%, 0%)" stroke-opacity="0" fill="rgb(66%, 7%, 55%)" fill-opacity="0.2"><path d="M 0.6535,-0.2760 Q 0.7099,-0.2376 0.6817,-0.3144"/></g></g></g><g class="title"><g stroke-width="0.0" stroke="none" fill="rgb(5%, 5%, 5%)" fill-opacity="1.0" font-size="0.0300" text-anchor="middle"><text x="0" y="-0.4508">QuadPosition (Point 0 0) (Point 1 1) (Point 2 (-1))</text></g></g><g class="frame"><g stroke-width="0" stroke="rgb(0%, 0%, 0%)" stroke-opacity="0" fill="rgb(0%, 0%, 0%)" fill-opacity="0"><rect width="1.5" height="1.0" x="-0.75" y="-0.5"/></g></g></g></svg>