<svg width="319.76996040924166" xmlns:xlink="http://www.w3.org/1999/xlink" xmlns="http://www.w3.org/2000/svg" viewBox="-0.6009547522970176 -0.5586822244112911 1.1862345697109475 1.1128949400307686" height="300.0"><style>svg {
  color-scheme: light dark;
}
@media (prefers-color-scheme:light) {
  svg {
    background-color: #0d0d0d;
  }
}</style><g stroke-opacity="0.0" fill="#f0f0f0" stroke="#000000" stroke-width="0.0" fill-opacity="2.0e-2"><rect width="0.898268340537763" x="-0.3794885231238332" y="-0.47475542860795017" height="0.8498761514937219"/></g><g stroke-opacity="5.0e-2" fill="none" stroke="#f0f0f0" stroke-width="5.0e-3"><polyline points="-0.3794885231238332,0.3751207228857717
0.5187798174139299,0.3751207228857717"/><polyline points="-0.3794885231238332,0.29013310773639966
0.5187798174139299,0.29013310773639966"/><polyline points="-0.3794885231238332,0.2051454925870274
0.5187798174139299,0.2051454925870274"/><polyline points="-0.3794885231238332,0.12015787743765516
0.5187798174139299,0.12015787743765516"/><polyline points="-0.3794885231238332,3.517026228828296e-2
0.5187798174139299,3.517026228828296e-2"/><polyline points="-0.3794885231238332,-4.9817352861089126e-2
0.5187798174139299,-4.9817352861089126e-2"/><polyline points="-0.3794885231238332,-0.13480496801046138
0.5187798174139299,-0.13480496801046138"/><polyline points="-0.3794885231238332,-0.21979258315983352
0.5187798174139299,-0.21979258315983352"/><polyline points="-0.3794885231238332,-0.30478019830920566
0.5187798174139299,-0.30478019830920566"/><polyline points="-0.3794885231238332,-0.3897678134585779
0.5187798174139299,-0.3897678134585779"/><polyline points="-0.3794885231238332,-0.47475542860795017
0.5187798174139299,-0.47475542860795017"/></g><g fill="#f0f0f0" stroke="none" stroke-width="0.0" font-size="5.0e-2" fill-opacity="1.0" text-anchor="end"><text x="-0.45095475229701754" y="0.3874439270824307">-1</text><text x="-0.45095475229701754" y="0.30245631193305855">-0.8</text><text x="-0.45095475229701754" y="0.2174686967836864">-0.6</text><text x="-0.45095475229701754" y="0.1324810816343141">-0.4</text><text x="-0.45095475229701754" y="4.7493466484941904e-2">-0.2</text><text x="-0.45095475229701754" y="-3.749414866443024e-2">0</text><text x="-0.45095475229701754" y="-0.12248176381380249">0.2</text><text x="-0.45095475229701754" y="-0.20746937896317463">0.4</text><text x="-0.45095475229701754" y="-0.2924569941125468">0.6</text><text x="-0.45095475229701754" y="-0.37744460926191903">0.8</text><text x="-0.45095475229701754" y="-0.46243222441129106">1</text></g><g stroke-opacity="0.4" fill="#f0f0f0" stroke="#f0f0f0" stroke-width="4.0e-3" fill-opacity="0.4"><g transform="rotate(-90.0, -0.4221562692993769, 0.3751207228857717)"><polyline points="-0.4221562692993769,0.3901207228857717
-0.4221562692993769,0.3601207228857717"/></g><g transform="rotate(-90.0, -0.4221562692993769, 0.29013310773639966)"><polyline points="-0.4221562692993769,0.3051331077363997
-0.4221562692993769,0.27513310773639965"/></g><g transform="rotate(-90.0, -0.4221562692993769, 0.2051454925870274)"><polyline points="-0.4221562692993769,0.22014549258702742
-0.4221562692993769,0.1901454925870274"/></g><g transform="rotate(-90.0, -0.4221562692993769, 0.12015787743765516)"><polyline points="-0.4221562692993769,0.13515787743765517
-0.4221562692993769,0.10515787743765516"/></g><g transform="rotate(-90.0, -0.4221562692993769, 3.517026228828296e-2)"><polyline points="-0.4221562692993769,5.017026228828296e-2
-0.4221562692993769,2.017026228828296e-2"/></g><g transform="rotate(-90.0, -0.4221562692993769, -4.9817352861089126e-2)"><polyline points="-0.4221562692993769,-3.4817352861089126e-2
-0.4221562692993769,-6.481735286108913e-2"/></g><g transform="rotate(-90.0, -0.4221562692993769, -0.13480496801046138)"><polyline points="-0.4221562692993769,-0.11980496801046138
-0.4221562692993769,-0.1498049680104614"/></g><g transform="rotate(-90.0, -0.4221562692993769, -0.21979258315983352)"><polyline points="-0.4221562692993769,-0.2047925831598335
-0.4221562692993769,-0.23479258315983353"/></g><g transform="rotate(-90.0, -0.4221562692993769, -0.30478019830920566)"><polyline points="-0.4221562692993769,-0.28978019830920565
-0.4221562692993769,-0.3197801983092057"/></g><g transform="rotate(-90.0, -0.4221562692993769, -0.3897678134585779)"><polyline points="-0.4221562692993769,-0.3747678134585779
-0.4221562692993769,-0.40476781345857793"/></g><g transform="rotate(-90.0, -0.4221562692993769, -0.47475542860795017)"><polyline points="-0.4221562692993769,-0.45975542860795016
-0.4221562692993769,-0.4897554286079502"/></g></g><g stroke-opacity="0.0" fill="#f0f0f0" stroke="#000000" stroke-width="0.0" fill-opacity="0.4"><rect width="3.593073362151089e-3" x="-0.4068857075102349" y="-0.4764551809109374" height="0.8532756560996966"/></g><g stroke-opacity="5.0e-2" fill="none" stroke="#f0f0f0" stroke-width="5.0e-3"><polyline points="-0.3794885231238332,0.3751207228857717
-0.3794885231238332,-0.47475542860795017"/><polyline points="-0.2896616890700569,0.3751207228857717
-0.2896616890700569,-0.47475542860795017"/><polyline points="-0.19983485501628057,0.3751207228857717
-0.19983485501628057,-0.47475542860795017"/><polyline points="-0.11000802096250434,0.3751207228857717
-0.11000802096250434,-0.47475542860795017"/><polyline points="-2.0181186908728055e-2,0.3751207228857717
-2.0181186908728055e-2,-0.47475542860795017"/><polyline points="6.964564714504828e-2,0.3751207228857717
6.964564714504828e-2,-0.47475542860795017"/><polyline points="0.1594724811988245,0.3751207228857717
0.1594724811988245,-0.47475542860795017"/><polyline points="0.24929931525260074,0.3751207228857717
0.24929931525260074,-0.47475542860795017"/><polyline points="0.3391261493063771,0.3751207228857717
0.3391261493063771,-0.47475542860795017"/><polyline points="0.4289529833601533,0.3751207228857717
0.4289529833601533,-0.47475542860795017"/><polyline points="0.5187798174139299,0.3751207228857717
0.5187798174139299,-0.47475542860795017"/></g><g fill="#f0f0f0" stroke="none" stroke-width="0.0" font-size="4.274482758620691e-2" fill-opacity="1.0" text-anchor="middle"><text x="-0.3794885231238332" y="0.4817716811367189">0</text><text x="-0.2896616890700569" y="0.4817716811367189">0.2</text><text x="-0.19983485501628057" y="0.4817716811367189">0.4</text><text x="-0.11000802096250434" y="0.4817716811367189">0.6</text><text x="-2.0181186908728055e-2" y="0.4817716811367189">0.8</text><text x="6.964564714504828e-2" y="0.4817716811367189">1</text><text x="0.1594724811988245" y="0.4817716811367189">1.2</text><text x="0.24929931525260074" y="0.4817716811367189">1.4</text><text x="0.3391261493063771" y="0.4817716811367189">1.6</text><text x="0.4289529833601533" y="0.4817716811367189">1.8</text><text x="0.5187798174139299" y="0.4817716811367189">2</text></g><g stroke-opacity="0.4" fill="#f0f0f0" stroke="#f0f0f0" stroke-width="4.0e-3" fill-opacity="0.4"><polyline points="-0.3794885231238332,0.4304898400817236
-0.3794885231238332,0.40048984008172356"/><polyline points="-0.2896616890700569,0.4304898400817236
-0.2896616890700569,0.40048984008172356"/><polyline points="-0.19983485501628057,0.4304898400817236
-0.19983485501628057,0.40048984008172356"/><polyline points="-0.11000802096250434,0.4304898400817236
-0.11000802096250434,0.40048984008172356"/><polyline points="-2.0181186908728055e-2,0.4304898400817236
-2.0181186908728055e-2,0.40048984008172356"/><polyline points="6.964564714504828e-2,0.4304898400817236
6.964564714504828e-2,0.40048984008172356"/><polyline points="0.1594724811988245,0.4304898400817236
0.1594724811988245,0.40048984008172356"/><polyline points="0.24929931525260074,0.4304898400817236
0.24929931525260074,0.40048984008172356"/><polyline points="0.3391261493063771,0.4304898400817236
0.3391261493063771,0.40048984008172356"/><polyline points="0.4289529833601533,0.4304898400817236
0.4289529833601533,0.40048984008172356"/><polyline points="0.5187798174139299,0.4304898400817236
0.5187798174139299,0.40048984008172356"/></g><g stroke-opacity="0.0" fill="#f0f0f0" stroke="#000000" stroke-width="0.0" fill-opacity="0.4"><rect width="0.9018614138999138" x="-0.3812850598049087" y="0.39764244090035533" height="3.3995046059749345e-3"/></g><g stroke-opacity="0.0" fill="#1f78b5" stroke="#000000" stroke-width="1.0e-2" fill-opacity="0.1"><path d="M -0.3795,-0.0498 Q 0.5188,0.3751 0.0696,-0.4748"/></g><g stroke-opacity="1.0" fill="none" stroke="#a6cfe3" stroke-width="2.0e-3"><polyline points="-0.3794885231238332,-4.9817352861089126e-2
-0.3616578965641585,-4.144607276887602e-2
-0.34409675050664534,-3.3329755522110927e-2
-0.32680508495129346,-2.546840112079407e-2
-0.30978289989810276,-1.786200956492523e-2
-0.2930301953470734,-1.0510580854504514e-2
-0.2765469712982055,-3.4141149895319245e-3
-0.2603332277514989,3.4273880299925397e-3
-0.24438896470695365,1.0013928204068878e-2
-0.22871418216456962,1.6345505532697036e-2
-0.21330888012434707,2.2422120015877234e-2
-0.1981730585862857,2.8243771653609195e-2
-0.1833067175503858,3.381046044589303e-2
-0.1687098570166471,3.912218639272891e-2
-0.15438247698506974,4.417894949411655e-2
-0.14032457745565385,4.898074975005606e-2
-0.12653615842839921,5.352758716054745e-2
-0.11301721990330582,5.7819461725590715e-2
-9.97677618803739e-2,6.185637344518591e-2
-8.678778435960316e-2,6.563832231933298e-2
-7.407728734099378e-2,6.916530834803186e-2
-6.163627082454587e-2,7.243733153128273e-2
-4.946473481025915e-2,7.545439186908542e-2
-3.756267929813373e-2,7.821648936144004e-2
-2.5930104288169664e-2,8.072362400834648e-2
-1.4567009780366957e-2,8.297579580980485e-2
-3.4733957747256072e-3,8.49730047658151e-2
7.350737728754386e-3,8.671525087637721e-2
1.7905390730073134e-2,8.82025341414912e-2
2.8190563229230303e-2,8.943485456115713e-2
3.820625522622645e-2,9.041221213537493e-2
4.795246672106113e-2,9.113460686414454e-2
5.742919771373467e-2,9.160203874746614e-2
6.663644820424686e-2,9.181450778533956e-2
7.557421819259746e-2,9.177201397776491e-2
8.424250767878683e-2,9.147455732474219e-2
9.264131666281494e-2,9.092213782627118e-2
0.10077064514468159,9.01147554823522e-2
0.10863049312438722,8.9052410292985e-2
0.11622086060193115,8.773510225816972e-2
0.12354174757731395,8.616283137790637e-2
0.1305931540505354,8.433559765219484e-2
0.13737508002159549,8.225340108103524e-2
0.14388752549049433,7.991624166442757e-2
0.15013049045723192,7.732411940237166e-2
0.15610397492180783,7.447703429486768e-2
0.16180797888422283,7.137498634191569e-2
0.16724250234447613,6.801797554351541e-2
0.1724075453025683,6.440600189966711e-2
0.177303107758499,6.0539065410370685e-2
0.18192918971226857,5.641716607562608e-2
0.18628579116387678,5.2040303895433404e-2
0.19037291211332352,4.74084788697926e-2
0.1941905525606089,4.252169099870373e-2
0.19773871250573327,3.737994028216679e-2
0.20101739194869606,3.198322672018156e-2
0.20402659088949748,2.633155031274831e-2
0.20676630932813767,2.0424911059866935e-2
0.2092365472646165,1.4263308961537546e-2
0.21143730469893418,7.846744017759977e-3
0.21336858163109018,1.175216228534115e-3
0.21503037806108516,-5.75127440613965e-3
0.21642269398891856,-1.2932727886261652e-2
0.2175455294145907,-2.036914421183167e-2
0.21839888433810184,-2.8060523382849922e-2
0.21898275875945128,-3.600686539931619e-2
0.21929715267863947,-4.4208170261230584e-2
0.21934206609566642,-5.2664437968593214e-2
0.219117499010532,-6.137566852140386e-2
0.21862345142323603,-7.034186191966252e-2
0.21785992333377902,-7.95630181633693e-2
0.21682691474216065,-8.903913725252433e-2
0.21552442564838092,-9.877021918712758e-2
0.21395245605243973,-0.10875626396717875
0.2121110059543374,-0.11899727159267803
0.21000007535407372,-0.12949324206362567
0.20761966425164857,-0.1402441753800212
0.20496977264706207,-0.15125007154186498
0.20205040054031453,-0.16251093054915666
0.19886154793140554,-0.1740267524018967
0.19540321482033496,-0.18579753710008473
0.19167540120710325,-0.197823284643721
0.18767810709171018,-0.21010399503280508
0.18341133247415597,-0.2226396682673374
0.17887507735444008,-0.23543030434731804
0.17406934173256317,-0.2484759032727465
0.16899412560852478,-0.2617764650436233
0.16364942898232526,-0.2753319896599483
0.15803525185396405,-0.28914247712172114
0.1521515942234417,-0.3032079274289423
0.145998456090758,-0.3175283405816116
0.13957583745591295,-0.3321037165797289
0.13288373831890665,-0.3469340554232945
0.1259221586797391,-0.3620193571123079
0.1186910985384102,-0.3773596216467694
0.11119055789491983,-0.3929548490266793
0.10342053674926799,-0.40880503925203715
9.538103510145524e-2,-0.4249101923228432
8.70720529514809e-2,-0.4412703082390974
7.849359029934522e-2,-0.4578853870007996
6.964564714504828e-2,-0.47475542860795017"/></g><g stroke-opacity="1.0" fill="#a6cfe3" stroke="#1f78b5" stroke-width="3.0e-3" fill-opacity="1.0"><rect width="3.0000000000000027e-2" x="-0.3944885231238332" y="-6.481735286108913e-2" height="3.0e-2"/><rect width="3.0e-2" x="5.4645647145048284e-2" y="-0.4897554286079502" height="3.0000000000000027e-2"/><rect width="3.0000000000000027e-2" x="0.5037798174139299" y="0.3601207228857717" height="3.0000000000000027e-2"/></g><g stroke-opacity="1.0" fill="#6666cc" stroke="#808080" stroke-width="2.0e-3" fill-opacity="0.1"><rect width="0.5988455603585087" x="-0.3794885231238332" y="-0.47475542860795017" height="0.5665841009958146"/></g><g></g></svg>