<svg xmlns="http://www.w3.org/2000/svg" xmlns:xlink="http://www.w3.org/1999/xlink" width="455" height="300" viewBox="-0.7692 -0.5 1.5192 1.0"><style>svg {
  color-scheme: light dark;
}
{
  .canvas g, .title g, .axisbar g, .ticktext g, .tickglyph g, .ticklines g, .legendContent g text {
    fill: rgb(5%, 5%, 5%);
  }
  .ticklines g, .tickglyph g, .legendBorder g {
    stroke: rgb(5%, 5%, 5%);
  }
  .legendBorder g {
    fill: rgb(94%, 94%, 94%);
  }
}
@media (prefers-color-scheme:dark) {
  .canvas g, .title g, .axisbar g, .ticktext g, .tickglyph g, .ticklines g, .legendContent g text {
    fill: rgb(94%, 94%, 94%);
  }
  .ticklines g, .tickglyph g, .legendBorder g {
    stroke: rgb(94%, 94%, 94%);
  }
  .legendBorder g {
    fill: rgb(5%, 5%, 5%);
  }
}
svg { font-family: system-ui,-apple-system,"Segoe UI",Roboto,"Helvetica Neue",Arial,"Noto Sans","Liberation Sans",sans-serif,"Apple Color Emoji","Segoe UI Emoji","Segoe UI Symbol","Noto Color Emoji";
}

ticktext { font-family: SFMono-Regular,Menlo,Monaco,Consolas,"Liberation Mono","Courier New",monospace;
}

</style><g class="chart"><g class="quad"><g stroke-width="0.0100" stroke="rgb(0%, 0%, 0%)" stroke-opacity="0" fill="rgb(66%, 7%, 55%)" fill-opacity="0.2"><path d="M -0.6033,-0.0059 Q 0.2296,0.3824 -0.1868,-0.3942"/></g><g stroke-width="0.0020" stroke="rgb(2%, 29%, 48%)" stroke-opacity="1.0" fill="none"><polyline points="-0.6033,-0.0059 -0.5867,0.0017 -0.5704,0.0091 -0.5544,0.0163 -0.5386,0.0233 -0.5231,0.0300 -0.5078,0.0365 -0.4928,0.0427 -0.4780,0.0488 -0.4635,0.0545 -0.4492,0.0601 -0.4351,0.0654 -0.4214,0.0705 -0.4078,0.0754 -0.3945,0.0800 -0.3815,0.0844 -0.3687,0.0885 -0.3562,0.0924 -0.3439,0.0961 -0.3319,0.0996 -0.3201,0.1028 -0.3085,0.1058 -0.2973,0.1085 -0.2862,0.1111 -0.2754,0.1134 -0.2649,0.1154 -0.2546,0.1172 -0.2446,0.1188 -0.2348,0.1202 -0.2253,0.1213 -0.2160,0.1222 -0.2069,0.1229 -0.1981,0.1233 -0.1896,0.1235 -0.1813,0.1235 -0.1733,0.1232 -0.1655,0.1227 -0.1580,0.1219 -0.1507,0.1210 -0.1436,0.1198 -0.1368,0.1183 -0.1303,0.1167 -0.1240,0.1148 -0.1180,0.1126 -0.1122,0.1103 -0.1067,0.1077 -0.1014,0.1048 -0.0963,0.1018 -0.0915,0.0985 -0.0870,0.0949 -0.0827,0.0912 -0.0787,0.0872 -0.0749,0.0829 -0.0713,0.0785 -0.0681,0.0738 -0.0650,0.0688 -0.0622,0.0637 -0.0597,0.0583 -0.0574,0.0526 -0.0554,0.0468 -0.0536,0.0407 -0.0520,0.0343 -0.0507,0.0278 -0.0497,0.0210 -0.0489,0.0140 -0.0484,0.0067 -0.0481,-0.0008 -0.0480,-0.0085 -0.0482,-0.0165 -0.0487,-0.0247 -0.0494,-0.0331 -0.0504,-0.0418 -0.0516,-0.0507 -0.0530,-0.0598 -0.0547,-0.0691 -0.0567,-0.0787 -0.0589,-0.0886 -0.0613,-0.0986 -0.0641,-0.1089 -0.0670,-0.1194 -0.0702,-0.1302 -0.0737,-0.1412 -0.0774,-0.1524 -0.0813,-0.1638 -0.0855,-0.1755 -0.0900,-0.1875 -0.0947,-0.1996 -0.0997,-0.2120 -0.1049,-0.2246 -0.1103,-0.2375 -0.1160,-0.2505 -0.1220,-0.2639 -0.1282,-0.2774 -0.1346,-0.2912 -0.1413,-0.3052 -0.1483,-0.3195 -0.1555,-0.3340 -0.1630,-0.3487 -0.1707,-0.3636 -0.1786,-0.3788 -0.1868,-0.3942"/></g><g stroke-width="0.0030" stroke="rgb(2%, 29%, 48%)" stroke-opacity="1.0" fill="rgb(2%, 73%, 80%)" fill-opacity="0.2"><rect width="0.0300" height="0.0300" x="-0.6183" y="-0.0209"/><rect width="0.0300" height="0.0300" x="-0.2018" y="-0.4092"/></g><g stroke-width="0.0030" stroke="rgb(2%, 29%, 48%)" stroke-opacity="1.0" fill="rgb(2%, 73%, 80%)" fill-opacity="0.2"><circle cx="0.2296" cy="0.3824" r="0.0150"/></g><g stroke-width="0.0020" stroke="rgb(40%, 40%, 40%)" stroke-opacity="1.0" fill="rgb(2%, 73%, 80%)" fill-opacity="0.05"><rect width="0.5552" height="0.5177" x="-0.6033" y="-0.3942"/></g></g></g><g class="hud"><g class="frame"><g stroke-width="0" stroke="rgb(0%, 0%, 0%)" stroke-opacity="0" fill="rgb(100%, 100%, 100%)" fill-opacity="0.02"><rect width="0.8515" height="0.8026" x="-0.6126" y="-0.4072"/></g></g><g class="axis"><g class="axisbar"><g stroke-width="0" stroke="rgb(0%, 0%, 0%)" stroke-opacity="0" fill="rgb(5%, 5%, 5%)" fill-opacity="0.4"><rect width="0.0023" height="0.7798" x="-0.6112" y="-0.3958"/></g></g><g class="ticks"><g class="ticklines"><g stroke-width="0.0050" stroke="rgb(5%, 5%, 5%)" stroke-opacity="0.05" fill="none"><polyline points="-0.6033,0.3824 0.2296,0.3824"/><polyline points="-0.6033,0.1882 0.2296,0.1882"/><polyline points="-0.6033,-0.0059 0.2296,-0.0059"/><polyline points="-0.6033,-0.2001 0.2296,-0.2001"/><polyline points="-0.6033,-0.3942 0.2296,-0.3942"/></g></g><g class="tickglyph"><g stroke-width="0.0023" stroke="rgb(5%, 5%, 5%)" stroke-opacity="0.4" fill="rgb(5%, 5%, 5%)" fill-opacity="0.4"><polyline points="-0.6270,0.3824
-0.6100,0.3824"/><polyline points="-0.6270,0.1882
-0.6100,0.1882"/><polyline points="-0.6270,-0.0059
-0.6100,-0.0059"/><polyline points="-0.6270,-0.2001
-0.6100,-0.2001"/><polyline points="-0.6270,-0.3942
-0.6100,-0.3942"/></g></g><g class="ticktext"><g stroke-width="0.0" stroke="none" fill="rgb(5%, 5%, 5%)" fill-opacity="1.0" font-size="0.0400" text-anchor="end"><text x="-0.6732" y="0.3911">-1.0</text><text x="-0.6732" y="0.1969">-0.5</text><text x="-0.6732" y="0.0028"> 0.0</text><text x="-0.6732" y="-0.1914"> 0.5</text><text x="-0.6732" y="-0.3855"> 1.0</text></g></g></g></g><g class="axis"><g class="axisbar"><g stroke-width="0" stroke="rgb(0%, 0%, 0%)" stroke-opacity="0" fill="rgb(5%, 5%, 5%)" fill-opacity="0.4"><rect width="0.8351" height="0.0032" x="-0.6044" y="0.3903"/></g></g><g class="ticks"><g class="ticklines"><g stroke-width="0.0050" stroke="rgb(5%, 5%, 5%)" stroke-opacity="0.05" fill="none"><polyline points="-0.6033,0.3824 -0.6033,-0.3942"/><polyline points="-0.3950,0.3824 -0.3950,-0.3942"/><polyline points="-0.1868,0.3824 -0.1868,-0.3942"/><polyline points="0.0214,0.3824 0.0214,-0.3942"/><polyline points="0.2296,0.3824 0.2296,-0.3942"/></g></g><g class="tickglyph"><g stroke-width="0.0032" stroke="rgb(5%, 5%, 5%)" stroke-opacity="0.4" fill="rgb(5%, 5%, 5%)" fill-opacity="0.4"><polyline points="-0.6033,0.4155
-0.6033,0.3919"/><polyline points="-0.3950,0.4155
-0.3950,0.3919"/><polyline points="-0.1868,0.4155
-0.1868,0.3919"/><polyline points="0.0214,0.4155
0.0214,0.3919"/><polyline points="0.2296,0.4155
0.2296,0.3919"/></g></g><g class="ticktext"><g stroke-width="0.0" stroke="none" fill="rgb(5%, 5%, 5%)" fill-opacity="1.0" font-size="0.0400" text-anchor="middle"><text x="-0.6033" y="0.4590">0.0</text><text x="-0.3950" y="0.4590">0.5</text><text x="-0.1868" y="0.4590">1.0</text><text x="0.0214" y="0.4590">1.5</text><text x="0.2296" y="0.4590">2.0</text></g></g></g></g><g class="legend"><g class="padding"></g><g class="padding"></g><g class="frame"><g stroke-width="0.0007" stroke="rgb(5%, 5%, 5%)" stroke-opacity="1.0" fill="rgb(5%, 5%, 5%)" fill-opacity="0"><rect width="0.4323" height="0.3598" x="0.2923" y="-0.2896"/></g></g><g class="legendContent"><g stroke-width="0.0" stroke="none" fill="rgb(5%, 5%, 5%)" fill-opacity="1.0" font-size="0.0282" text-anchor="start"><text x="0.3064" y="0.0387">Bounding Box</text></g><g stroke-width="0.0014" stroke="rgb(40%, 40%, 40%)" stroke-opacity="1.0" fill="rgb(2%, 73%, 80%)" fill-opacity="0.05"><rect width="0.0282" height="0.0395" x="0.6535" y="0.0091"/></g><g stroke-width="0.0" stroke="none" fill="rgb(5%, 5%, 5%)" fill-opacity="1.0" font-size="0.0282" text-anchor="start"><text x="0.3064" y="-0.0245">Path Control Point</text></g><g stroke-width="0.0004" stroke="rgb(2%, 29%, 48%)" stroke-opacity="1.0" fill="rgb(2%, 73%, 80%)" fill-opacity="0.2"><circle cx="0.6676" cy="-0.0343" r="0.0141"/></g><g stroke-width="0.0" stroke="none" fill="rgb(5%, 5%, 5%)" fill-opacity="1.0" font-size="0.0282" text-anchor="start"><text x="0.3064" y="-0.0876">Path Endpoints</text></g><g stroke-width="0.0004" stroke="rgb(2%, 29%, 48%)" stroke-opacity="1.0" fill="rgb(2%, 73%, 80%)" fill-opacity="0.2"><rect width="0.0282" height="0.0282" x="0.6535" y="-0.1116"/></g><g stroke-width="0.0" stroke="none" fill="rgb(5%, 5%, 5%)" fill-opacity="1.0" font-size="0.0282" text-anchor="start"><text x="0.3064" y="-0.1508">Path Chord</text></g><g stroke-width="0.0011" stroke="rgb(2%, 29%, 48%)" stroke-opacity="1.0" fill="none"><polyline points="0.6535,-0.1606 0.7099,-0.1606"/></g><g stroke-width="0.0" stroke="none" fill="rgb(5%, 5%, 5%)" fill-opacity="1.0" font-size="0.0282" text-anchor="start"><text x="0.3064" y="-0.2139">Path Fill</text></g><g stroke-width="0.0282" stroke="rgb(0%, 0%, 0%)" stroke-opacity="0" fill="rgb(66%, 7%, 55%)" fill-opacity="0.2"><path d="M 0.6535,-0.2106 Q 0.7099,-0.1712 0.6817,-0.2501"/></g></g></g><g class="title"><g stroke-width="0.0" stroke="none" fill="rgb(5%, 5%, 5%)" fill-opacity="1.0" font-size="0.0300" text-anchor="middle"><text x="0" y="-0.4495">QuadPosition (Point 0 0) (Point 1 1) (Point 2 (-1))</text></g></g><g class="frame"><g stroke-width="0" stroke="rgb(0%, 0%, 0%)" stroke-opacity="0" fill="rgb(0%, 0%, 0%)" fill-opacity="0"><rect width="1.5" height="1.0" x="-0.75" y="-0.5"/></g></g></g></svg>