<svg xmlns="http://www.w3.org/2000/svg" height="409.03043890882407" viewBox="-0.6716501991379311 -1.5754998074834368 2.1208561323203194 2.163434796362747" width="396.2568396960958" xmlns:xlink="http://www.w3.org/1999/xlink"><g stroke-opacity="0.0" fill-opacity="2.5e-2" stroke="#000000" stroke-width="0.0" fill="#808080"><rect height="1.1167201182734419" width="1.1526004273207338" x="-0.11960042732073385" y="-1.0820667499999994"/></g><g stroke-opacity="5.0e-2" stroke="#808080" stroke-width="5.0e-3" fill="none"><polyline points="-0.11960042732073385,3.46533682734424e-2
1.033,3.46533682734424e-2"/></g><g stroke-opacity="5.0e-2" stroke="#808080" stroke-width="5.0e-3" fill="none"><polyline points="-0.11960042732073385,-7.701864355390178e-2
1.033,-7.701864355390178e-2"/></g><g stroke-opacity="5.0e-2" stroke="#808080" stroke-width="5.0e-3" fill="none"><polyline points="-0.11960042732073385,-0.18869065538124596
1.033,-0.18869065538124596"/></g><g stroke-opacity="5.0e-2" stroke="#808080" stroke-width="5.0e-3" fill="none"><polyline points="-0.11960042732073385,-0.3003626672085902
1.033,-0.3003626672085902"/></g><g stroke-opacity="5.0e-2" stroke="#808080" stroke-width="5.0e-3" fill="none"><polyline points="-0.11960042732073385,-0.4120346790359344
1.033,-0.4120346790359344"/></g><g stroke-opacity="5.0e-2" stroke="#808080" stroke-width="5.0e-3" fill="none"><polyline points="-0.11960042732073385,-0.5237066908632785
1.033,-0.5237066908632785"/></g><g stroke-opacity="5.0e-2" stroke="#808080" stroke-width="5.0e-3" fill="none"><polyline points="-0.11960042732073385,-0.6353787026906227
1.033,-0.6353787026906227"/></g><g stroke-opacity="5.0e-2" stroke="#808080" stroke-width="5.0e-3" fill="none"><polyline points="-0.11960042732073385,-0.7470507145179669
1.033,-0.7470507145179669"/></g><g stroke-opacity="5.0e-2" stroke="#808080" stroke-width="5.0e-3" fill="none"><polyline points="-0.11960042732073385,-0.858722726345311
1.033,-0.858722726345311"/></g><g stroke-opacity="5.0e-2" stroke="#808080" stroke-width="5.0e-3" fill="none"><polyline points="-0.11960042732073385,-0.9703947381726554
1.033,-0.9703947381726554"/></g><g stroke-opacity="5.0e-2" stroke="#808080" stroke-width="5.0e-3" fill="none"><polyline points="-0.11960042732073385,-1.0820667499999994
1.033,-1.0820667499999994"/></g><g fill-opacity="1.0" font-size="5.0e-2" stroke="none" stroke-width="0.0" fill="#808080" text-anchor="end"><text x="-0.19665019913793103" y="4.9827774264849786e-2">0</text></g><g fill-opacity="1.0" font-size="5.0e-2" stroke="none" stroke-width="0.0" fill="#808080" text-anchor="end"><text x="-0.19665019913793103" y="-6.1844237562494436e-2">0.1</text></g><g fill-opacity="1.0" font-size="5.0e-2" stroke="none" stroke-width="0.0" fill="#808080" text-anchor="end"><text x="-0.19665019913793103" y="-0.17351624938983856">0.2</text></g><g fill-opacity="1.0" font-size="5.0e-2" stroke="none" stroke-width="0.0" fill="#808080" text-anchor="end"><text x="-0.19665019913793103" y="-0.28518826121718277">0.3</text></g><g fill-opacity="1.0" font-size="5.0e-2" stroke="none" stroke-width="0.0" fill="#808080" text-anchor="end"><text x="-0.19665019913793103" y="-0.396860273044527">0.4</text></g><g fill-opacity="1.0" font-size="5.0e-2" stroke="none" stroke-width="0.0" fill="#808080" text-anchor="end"><text x="-0.19665019913793103" y="-0.5085322848718711">0.5</text></g><g fill-opacity="1.0" font-size="5.0e-2" stroke="none" stroke-width="0.0" fill="#808080" text-anchor="end"><text x="-0.19665019913793103" y="-0.6202042966992153">0.6</text></g><g fill-opacity="1.0" font-size="5.0e-2" stroke="none" stroke-width="0.0" fill="#808080" text-anchor="end"><text x="-0.19665019913793103" y="-0.7318763085265596">0.7</text></g><g fill-opacity="1.0" font-size="5.0e-2" stroke="none" stroke-width="0.0" fill="#808080" text-anchor="end"><text x="-0.19665019913793103" y="-0.8435483203539036">0.8</text></g><g fill-opacity="1.0" font-size="5.0e-2" stroke="none" stroke-width="0.0" fill="#808080" text-anchor="end"><text x="-0.19665019913793103" y="-0.955220332181248">0.9</text></g><g fill-opacity="1.0" font-size="5.0e-2" stroke="none" stroke-width="0.0" fill="#808080" text-anchor="end"><text x="-0.19665019913793103" y="-1.0668923440085922">1</text></g><g stroke-opacity="1.0" fill-opacity="1.0" stroke="#808080" stroke-width="5.0e-3" fill="#808080"><g transform="rotate(-90.0, -0.16146479387185397, 3.46533682734424e-2)"><polyline points="-0.16146479387185397,4.96533682734424e-2
-0.16146479387185397,1.9653368273442398e-2"/></g><g transform="rotate(-90.0, -0.16146479387185397, -7.701864355390178e-2)"><polyline points="-0.16146479387185397,-6.2018643553901784e-2
-0.16146479387185397,-9.201864355390178e-2"/></g><g transform="rotate(-90.0, -0.16146479387185397, -0.18869065538124596)"><polyline points="-0.16146479387185397,-0.17369065538124595
-0.16146479387185397,-0.20369065538124598"/></g><g transform="rotate(-90.0, -0.16146479387185397, -0.3003626672085902)"><polyline points="-0.16146479387185397,-0.28536266720859016
-0.16146479387185397,-0.3153626672085902"/></g><g transform="rotate(-90.0, -0.16146479387185397, -0.4120346790359344)"><polyline points="-0.16146479387185397,-0.39703467903593437
-0.16146479387185397,-0.4270346790359344"/></g><g transform="rotate(-90.0, -0.16146479387185397, -0.5237066908632785)"><polyline points="-0.16146479387185397,-0.5087066908632785
-0.16146479387185397,-0.5387066908632785"/></g><g transform="rotate(-90.0, -0.16146479387185397, -0.6353787026906227)"><polyline points="-0.16146479387185397,-0.6203787026906227
-0.16146479387185397,-0.6503787026906227"/></g><g transform="rotate(-90.0, -0.16146479387185397, -0.7470507145179669)"><polyline points="-0.16146479387185397,-0.7320507145179669
-0.16146479387185397,-0.7620507145179669"/></g><g transform="rotate(-90.0, -0.16146479387185397, -0.858722726345311)"><polyline points="-0.16146479387185397,-0.843722726345311
-0.16146479387185397,-0.873722726345311"/></g><g transform="rotate(-90.0, -0.16146479387185397, -0.9703947381726554)"><polyline points="-0.16146479387185397,-0.9553947381726554
-0.16146479387185397,-0.9853947381726554"/></g><g transform="rotate(-90.0, -0.16146479387185397, -1.0820667499999994)"><polyline points="-0.16146479387185397,-1.0670667499999995
-0.16146479387185397,-1.0970667499999993"/></g></g><g stroke-opacity="1.0" fill-opacity="1.0" stroke="#808080" stroke-width="0.0" fill="#808080"><rect height="1.1167201182734419" width="5.400676172843788e-3" x="-0.14796310343974461" y="-1.0820667499999994"/></g><g stroke-opacity="5.0e-2" stroke="#808080" stroke-width="5.0e-3" fill="none"><polyline points="-0.11960042732073385,3.46533682734424e-2
-0.11960042732073385,-1.0820667499999994"/></g><g stroke-opacity="5.0e-2" stroke="#808080" stroke-width="5.0e-3" fill="none"><polyline points="-4.340384588660484e-3,3.46533682734424e-2
-4.340384588660484e-3,-1.0820667499999994"/></g><g stroke-opacity="5.0e-2" stroke="#808080" stroke-width="5.0e-3" fill="none"><polyline points="0.11091965814341287,3.46533682734424e-2
0.11091965814341287,-1.0820667499999994"/></g><g stroke-opacity="5.0e-2" stroke="#808080" stroke-width="5.0e-3" fill="none"><polyline points="0.22617970087548628,3.46533682734424e-2
0.22617970087548628,-1.0820667499999994"/></g><g stroke-opacity="5.0e-2" stroke="#808080" stroke-width="5.0e-3" fill="none"><polyline points="0.3414397436075596,3.46533682734424e-2
0.3414397436075596,-1.0820667499999994"/></g><g stroke-opacity="5.0e-2" stroke="#808080" stroke-width="5.0e-3" fill="none"><polyline points="0.45669978633963304,3.46533682734424e-2
0.45669978633963304,-1.0820667499999994"/></g><g stroke-opacity="5.0e-2" stroke="#808080" stroke-width="5.0e-3" fill="none"><polyline points="0.5719598290717064,3.46533682734424e-2
0.5719598290717064,-1.0820667499999994"/></g><g stroke-opacity="5.0e-2" stroke="#808080" stroke-width="5.0e-3" fill="none"><polyline points="0.6872198718037799,3.46533682734424e-2
0.6872198718037799,-1.0820667499999994"/></g><g stroke-opacity="5.0e-2" stroke="#808080" stroke-width="5.0e-3" fill="none"><polyline points="0.802479914535853,3.46533682734424e-2
0.802479914535853,-1.0820667499999994"/></g><g stroke-opacity="5.0e-2" stroke="#808080" stroke-width="5.0e-3" fill="none"><polyline points="0.9177399572679266,3.46533682734424e-2
0.9177399572679266,-1.0820667499999994"/></g><g stroke-opacity="5.0e-2" stroke="#808080" stroke-width="5.0e-3" fill="none"><polyline points="1.033,3.46533682734424e-2
1.033,-1.0820667499999994"/></g><g fill-opacity="1.0" font-size="4.503379655172414e-2" stroke="none" stroke-width="0.0" fill="#808080" text-anchor="middle"><text x="-0.11960042732073385" y="0.16429224568965517">0</text></g><g fill-opacity="1.0" font-size="4.503379655172414e-2" stroke="none" stroke-width="0.0" fill="#808080" text-anchor="middle"><text x="-4.340384588660484e-3" y="0.16429224568965517">0.1</text></g><g fill-opacity="1.0" font-size="4.503379655172414e-2" stroke="none" stroke-width="0.0" fill="#808080" text-anchor="middle"><text x="0.11091965814341287" y="0.16429224568965517">0.2</text></g><g fill-opacity="1.0" font-size="4.503379655172414e-2" stroke="none" stroke-width="0.0" fill="#808080" text-anchor="middle"><text x="0.22617970087548628" y="0.16429224568965517">0.3</text></g><g fill-opacity="1.0" font-size="4.503379655172414e-2" stroke="none" stroke-width="0.0" fill="#808080" text-anchor="middle"><text x="0.3414397436075596" y="0.16429224568965517">0.4</text></g><g fill-opacity="1.0" font-size="4.503379655172414e-2" stroke="none" stroke-width="0.0" fill="#808080" text-anchor="middle"><text x="0.45669978633963304" y="0.16429224568965517">0.5</text></g><g fill-opacity="1.0" font-size="4.503379655172414e-2" stroke="none" stroke-width="0.0" fill="#808080" text-anchor="middle"><text x="0.5719598290717064" y="0.16429224568965517">0.6</text></g><g fill-opacity="1.0" font-size="4.503379655172414e-2" stroke="none" stroke-width="0.0" fill="#808080" text-anchor="middle"><text x="0.6872198718037799" y="0.16429224568965517">0.7</text></g><g fill-opacity="1.0" font-size="4.503379655172414e-2" stroke="none" stroke-width="0.0" fill="#808080" text-anchor="middle"><text x="0.802479914535853" y="0.16429224568965517">0.8</text></g><g fill-opacity="1.0" font-size="4.503379655172414e-2" stroke="none" stroke-width="0.0" fill="#808080" text-anchor="middle"><text x="0.9177399572679266" y="0.16429224568965517">0.9</text></g><g fill-opacity="1.0" font-size="4.503379655172414e-2" stroke="none" stroke-width="0.0" fill="#808080" text-anchor="middle"><text x="1.033" y="0.16429224568965517">1</text></g><g stroke-opacity="1.0" fill-opacity="1.0" stroke="#808080" stroke-width="5.0e-3" fill="#808080"><polyline points="-0.11960042732073385,9.541492907280544e-2
-0.11960042732073385,6.541492907280544e-2"/><polyline points="-4.340384588660484e-3,9.541492907280544e-2
-4.340384588660484e-3,6.541492907280544e-2"/><polyline points="0.11091965814341287,9.541492907280544e-2
0.11091965814341287,6.541492907280544e-2"/><polyline points="0.22617970087548628,9.541492907280544e-2
0.22617970087548628,6.541492907280544e-2"/><polyline points="0.3414397436075596,9.541492907280544e-2
0.3414397436075596,6.541492907280544e-2"/><polyline points="0.45669978633963304,9.541492907280544e-2
0.45669978633963304,6.541492907280544e-2"/><polyline points="0.5719598290717064,9.541492907280544e-2
0.5719598290717064,6.541492907280544e-2"/><polyline points="0.6872198718037799,9.541492907280544e-2
0.6872198718037799,6.541492907280544e-2"/><polyline points="0.802479914535853,9.541492907280544e-2
0.802479914535853,6.541492907280544e-2"/><polyline points="0.9177399572679266,9.541492907280544e-2
0.9177399572679266,6.541492907280544e-2"/><polyline points="1.033,9.541492907280544e-2
1.033,6.541492907280544e-2"/></g><g stroke-opacity="1.0" fill-opacity="1.0" stroke="#808080" stroke-width="0.0" fill="#808080"><rect height="5.232553790140454e-3" width="1.1526004273207338" x="-0.11960042732073385" y="6.2100990807313794e-2"/></g><g stroke-opacity="0.0" fill-opacity="0.1" stroke="#000000" stroke-width="1.0e-2" fill="#e31a1c"><path d="M -8.307376412713104e-2,3.436845571956926e-2 Q 0.9748160845276288,-6.1543508019421544e-3 1.0327059331823885,-1.0466771573234535 L -8.307376412713104e-2,3.436845571956926e-2"/></g><g stroke-opacity="1.0" stroke="#1f78b4" stroke-width="2.0e-3" fill="none"><polyline points="-8.307376412713104e-2,3.436845571956926e-2
-6.086974815067159e-2,3.426035115826495e-2
-3.888888811367405e-2,3.393603747435203e-2
-1.7131184016138473e-2,3.339551466783053e-2
4.40336414193529e-3,3.263878273870041e-2
2.5714756360547097e-2,3.166584168696168e-2
4.6802992639697005e-2,3.0476691512614368e-2
6.766807297938504e-2,2.907133221565844e-2
8.830999737961115e-2,2.74497637960939e-2
0.10872876584037533,2.561198625392075e-2
0.1289243783616777,2.355799958913904e-2
0.14889683494351802,2.128780380174869e-2
0.16864613558589653,1.8801398891749727e-2
0.1881722802888131,1.609878485914215e-2
0.20747526905226782,1.3179961703926019e-2
0.2265551018762606,1.0044929426101273e-2
0.2454117787607914,6.69368802566786e-3
0.26404529970586044,3.1262375026258893e-3
0.2824556647114675,-6.574221430246663e-4
0.30064287377761273,-4.6572909112838345e-3
0.31860692690429604,-8.873368802151671e-3
0.3363478240915173,-1.3305655815628037e-2
0.3538655653392767,-1.7954151951713015e-2
0.37116015064757435,-2.2818857210406662e-2
0.38823158001641,-2.789977159170884e-2
0.4050798534457837,-3.319689509561963e-2
0.4217049709356956,-3.871022772213906e-2
0.4381069324861454,-4.44397694712671e-2
0.4542857380971336,-5.0385520343003726e-2
0.47024138776865965,-5.654748033734894e-2
0.48597388150072407,-6.292564945430276e-2
0.5014832192933262,-6.952002769386523e-2
0.5167694011464666,-7.633061505603625e-2
0.5318324270601453,-8.335741154081588e-2
0.5466722970343619,-9.060041714820416e-2
0.5612890110691166,-9.805963187820105e-2
0.5756825691644093,-0.10573505573080644
0.5898529713202402,-0.11362668870602055
0.6038002175366092,-0.12173453080384322
0.6175243078135163,-0.13005858202427445
0.6310252421509615,-0.13859884236731435
0.6443030205489448,-0.1473553118329628
0.6573576430074662,-0.15632799042121992
0.6701891095265258,-0.1655168781320856
0.6827974201061233,-0.1749219749655599
0.6951825747462589,-0.18454328092164274
0.7073445734469329,-0.19438079600033425
0.7192834162081446,-0.20443452020163455
0.7309991030298945,-0.21470445352554318
0.7424916339121824,-0.22519059597206043
0.7537610088550087,-0.2358929475411864
0.764807227858373,-0.24681150823292086
0.7756302909222752,-0.25794627804726405
0.7862301980467157,-0.2692972569842158
0.7966069492316942,-0.28086444504377617
0.8067605444772108,-0.29264784222594514
0.8166909837832657,-0.3046474485307227
0.8263982671498584,-0.3168632639581088
0.8358823945769893,-0.3292952885081035
0.8451433660646581,-0.3419435221807069
0.8541811816128655,-0.3548079649759187
0.8629958412216105,-0.3678886168937394
0.8715873448908937,-0.38118547793416857
0.8799556926207153,-0.3946985480972064
0.8881008844110747,-0.40842782738285277
0.8960229202619725,-0.4223733157911077
0.9037218001734082,-0.4365350133219714
0.9111975241453816,-0.4509129199754436
0.9184500921778938,-0.4655070357515245
0.9254795042709436,-0.4803173606502139
0.9322857604245318,-0.49534389467151196
0.9388688606386579,-0.5105866378154182
0.9452288049133222,-0.5260455900819336
0.9513655932485243,-0.5417207514710574
0.9572792256442648,-0.5576121219827899
0.9629697021005434,-0.5737197016171308
0.96843702261736,-0.5900434903740805
0.9736811871947149,-0.6065834882536387
0.9787021958326079,-0.6233396952558056
0.9835000485310388,-0.6403121113805813
0.9880747452900078,-0.6575007366279652
0.9924262861095148,-0.6749055709979579
0.9965546709895601,-0.6925266144905592
1.0004598999301433,-0.710363867105769
1.0041419729312646,-0.7284173288435872
1.0076008899929243,-0.7466869997040145
1.0108366511151219,-0.7651728796870502
1.0138492562978576,-0.7838749687926946
1.0166387055411317,-0.8027932670209473
1.0192049988449432,-0.821927774371809
1.0215481362092935,-0.8412784908452791
1.0236681176341813,-0.8608454164413577
1.0255649431196077,-0.8806285511600451
1.027238612665572,-0.9006278950013411
1.0286891262720743,-0.9208434479652456
1.0299164839391146,-0.9412752100517587
1.0309206856666933,-0.9619231812608804
1.03170173145481,-0.9827873615926106
1.0322596213034645,-1.0038677510469496
1.0325943552126577,-1.0251643496238974
1.0327059331823885,-1.0466771573234535"/></g><g stroke-opacity="0.8" fill-opacity="0.3" stroke="#1f78b4" stroke-width="3.0e-3" fill="#a6cee3"><rect height="3.0e-2" width="3.0e-2" x="-9.807376412713104e-2" y="1.9368455719569258e-2"/><rect height="2.9999999999999805e-2" width="2.9999999999999805e-2" x="1.0177059331823886" y="-1.0616771573234534"/><rect height="3.0e-2" width="2.9999999999999805e-2" x="1.0177059331823886" y="1.9368455719569258e-2"/></g><g stroke-opacity="1.0" fill-opacity="0.1" stroke="#808080" stroke-width="2.0e-3" fill="#6666cc"><rect height="1.0810456130430226" width="1.1157796973095195" x="-8.307376412713104e-2" y="-1.0466771573234535"/></g></svg>