<svg width="304.29941572042776" xmlns:xlink="http://www.w3.org/1999/xlink" xmlns="http://www.w3.org/2000/svg" viewBox="-0.22250000000000003 -1.09275 2.30025 2.26775" height="300.0"><style>svg {
  color-scheme: light dark;
}
{
  .canvas g, .title g, .axisbar g, .ticktext g, .tickglyph g, .ticklines g, .legendContent g text {
    fill: #0d0d0d;
  }
  .ticklines g, .tickglyph g, .legendBorder g {
    stroke: #0d0d0d;
  }
}
@media (prefers-color-scheme:dark) {
  .canvas g, .title g, .axisbar g, .ticktext g, .tickglyph g, .ticklines g, .legendContent g text {
    fill: #f0f0f0;
  }
  .ticklines g, .tickglyph g, .legendBorder g {
    stroke: #f0f0f0;
  }
}</style><g class="chart"><g class="quad"><g stroke-opacity="0.0" fill="#1f78b5" stroke="#000000" stroke-width="1.0e-2" fill-opacity="0.1"><path d="M 0,0 Q 2.0,1.0 1.0,-1.0"/></g><g stroke-opacity="1.0" fill="none" stroke="#a6cfe3" stroke-width="2.0e-3"><polyline points="0.0,-0.0
3.9700000000000006e-2,1.970000000000005e-2
7.88e-2,3.8799999999999946e-2
0.11729999999999999,5.730000000000002e-2
0.15519999999999998,7.519999999999993e-2
0.1925,9.250000000000003e-2
0.22919999999999996,0.10919999999999996
0.26530000000000004,0.12529999999999997
0.3008,0.14080000000000004
0.3357,0.15569999999999995
0.37000000000000005,0.17000000000000004
0.4037,0.18369999999999997
0.4368,0.19679999999999997
0.46930000000000005,0.20930000000000004
0.5012,0.22120000000000006
0.5325,0.23250000000000004
0.5631999999999999,0.24319999999999997
0.5933,0.2533000000000001
0.6228,0.26280000000000003
0.6517000000000001,0.27170000000000005
0.6800000000000002,0.28
0.7077,0.28770000000000007
0.7348,0.29479999999999995
0.7613000000000001,0.3013
0.7872,0.30720000000000003
0.8125,0.3125
0.8372,0.31720000000000004
0.8613,0.3212999999999999
0.8848,0.3248
0.9076999999999998,0.3276999999999999
0.9299999999999999,0.32999999999999996
0.9516999999999999,0.3316999999999999
0.9728,0.3328
0.9933,0.33329999999999993
1.0131999999999999,0.33319999999999994
1.0325,0.3325
1.0512,0.33119999999999994
1.0693,0.32930000000000004
1.0868,0.3268
1.1037,0.3237
1.12,0.31999999999999995
1.1357000000000002,0.3157000000000001
1.1508,0.3108000000000001
1.1653,0.3053
1.1792000000000002,0.29920000000000013
1.1925000000000001,0.2925
1.2052,0.2852000000000001
1.2172999999999998,0.2773
1.2288,0.26879999999999993
1.2397,0.25970000000000004
1.25,0.25
1.2597,0.23970000000000002
1.2688,0.2287999999999999
1.2772999999999999,0.21729999999999994
1.2852000000000001,0.20520000000000005
1.2925,0.1924999999999999
1.2992,0.17919999999999991
1.3053,0.1653
1.3108,0.15080000000000005
1.3157,0.13570000000000004
1.3199999999999998,0.12
1.3237,0.10370000000000001
1.3268,8.679999999999999e-2
1.3293,6.929999999999992e-2
1.3312,5.119999999999991e-2
1.3325,3.249999999999997e-2
1.3332,1.3199999999999878e-2
1.3333,-6.70000000000015e-3
1.3328,-2.7200000000000113e-2
1.3316999999999999,-4.829999999999979e-2
1.33,-6.999999999999984e-2
1.3277,-9.229999999999983e-2
1.3248,-0.11519999999999997
1.3213,-0.13870000000000005
1.3172000000000001,-0.16279999999999983
1.3125,-0.1875
1.3072,-0.2128000000000001
1.3013,-0.23870000000000013
1.2948,-0.2652000000000001
1.2877,-0.2923
1.28,-0.3200000000000003
1.2717,-0.3483000000000003
1.2628,-0.37719999999999976
1.2533,-0.40669999999999984
1.2431999999999999,-0.43679999999999986
1.2325,-0.4674999999999998
1.2212,-0.4987999999999999
1.2093,-0.5307
1.1968,-0.5631999999999999
1.1837,-0.5963
1.17,-0.6300000000000001
1.1557,-0.6643000000000001
1.1408,-0.6992
1.1253,-0.7347000000000001
1.1092000000000002,-0.7707999999999999
1.0925000000000002,-0.8074999999999999
1.0752000000000002,-0.8447999999999998
1.0573000000000001,-0.8826999999999998
1.0388,-0.9211999999999998
1.0197,-0.9602999999999999
1.0,-1.0"/></g><g stroke-opacity="1.0" fill="#a6cfe3" stroke="#1f78b5" stroke-width="3.0e-3" fill-opacity="1.0"><rect width="3.0e-2" x="-1.5e-2" y="-1.5e-2" height="3.0e-2"/><rect width="2.9999999999999916e-2" x="0.985" y="-1.015" height="2.9999999999999916e-2"/><rect width="3.0000000000000027e-2" x="1.985" y="0.985" height="2.9999999999999916e-2"/></g><g stroke-opacity="1.0" fill="#6666cc" stroke="#808080" stroke-width="2.0e-3" fill-opacity="0.1"><rect width="1.3333333333333335" x="0.0" y="-1.0" height="1.3333333333333335"/></g></g></g><g class="hud"><g class="canvas"><g stroke-opacity="0.0" fill="#ffffff" stroke="#000000" stroke-width="0.0" fill-opacity="2.0e-2"><rect width="2.0330000000000004" x="-1.65e-2" y="-1.0165" height="2.033"/></g></g><g class="axis"><g class="ticks"><g class="tickglyph"><g stroke-opacity="0.4" fill="#0d0d0d" stroke="#0d0d0d" stroke-width="4.0e-3" fill-opacity="0.4"><g transform="rotate(-90.0, -4.65e-2, 1.0165)"><polyline points="-4.65e-2,1.0314999999999999
-4.65e-2,1.0015"/></g><g transform="rotate(-90.0, -4.65e-2, 0.8132)"><polyline points="-4.65e-2,0.8282
-4.65e-2,0.7982"/></g><g transform="rotate(-90.0, -4.65e-2, 0.6098999999999999)"><polyline points="-4.65e-2,0.6248999999999999
-4.65e-2,0.5948999999999999"/></g><g transform="rotate(-90.0, -4.65e-2, 0.40659999999999985)"><polyline points="-4.65e-2,0.42159999999999986
-4.65e-2,0.39159999999999984"/></g><g transform="rotate(-90.0, -4.65e-2, 0.20329999999999993)"><polyline points="-4.65e-2,0.21829999999999994
-4.65e-2,0.1882999999999999"/></g><g transform="rotate(-90.0, -4.65e-2, -0.0)"><polyline points="-4.65e-2,1.5e-2
-4.65e-2,-1.5e-2"/></g><g transform="rotate(-90.0, -4.65e-2, -0.20330000000000026)"><polyline points="-4.65e-2,-0.18830000000000024
-4.65e-2,-0.21830000000000027"/></g><g transform="rotate(-90.0, -4.65e-2, -0.4066000000000001)"><polyline points="-4.65e-2,-0.39160000000000006
-4.65e-2,-0.4216000000000001"/></g><g transform="rotate(-90.0, -4.65e-2, -0.6099000000000001)"><polyline points="-4.65e-2,-0.5949000000000001
-4.65e-2,-0.6249000000000001"/></g><g transform="rotate(-90.0, -4.65e-2, -0.8131999999999999)"><polyline points="-4.65e-2,-0.7981999999999999
-4.65e-2,-0.8281999999999999"/></g><g transform="rotate(-90.0, -4.65e-2, -1.0165)"><polyline points="-4.65e-2,-1.0015
-4.65e-2,-1.0314999999999999"/></g></g></g><g class="ticktext"><g fill="#0d0d0d" stroke="none" stroke-width="0.0" font-size="5.0e-2" fill-opacity="1.0" text-anchor="end"><text x="-8.25e-2" y="1.0302499999999999">-1</text><text x="-8.25e-2" y="0.8269500000000001">-0.8</text><text x="-8.25e-2" y="0.6236499999999999">-0.6</text><text x="-8.25e-2" y="0.42034999999999983">-0.4</text><text x="-8.25e-2" y="0.21704999999999994">-0.2</text><text x="-8.25e-2" y="1.3750000000000002e-2">0</text><text x="-8.25e-2" y="-0.18955000000000025">0.2</text><text x="-8.25e-2" y="-0.3928500000000001">0.4</text><text x="-8.25e-2" y="-0.5961500000000001">0.6</text><text x="-8.25e-2" y="-0.7994499999999999">0.8</text><text x="-8.25e-2" y="-1.00275">1</text></g></g><g class="ticklines"><g stroke-opacity="5.0e-2" fill="none" stroke="#0d0d0d" stroke-width="5.0e-3"><polyline points="-1.65e-2,1.0165
2.0165,1.0165"/><polyline points="-1.65e-2,0.8132
2.0165,0.8132"/><polyline points="-1.65e-2,0.6098999999999999
2.0165,0.6098999999999999"/><polyline points="-1.65e-2,0.40659999999999985
2.0165,0.40659999999999985"/><polyline points="-1.65e-2,0.20329999999999993
2.0165,0.20329999999999993"/><polyline points="-1.65e-2,-0.0
2.0165,-0.0"/><polyline points="-1.65e-2,-0.20330000000000026
2.0165,-0.20330000000000026"/><polyline points="-1.65e-2,-0.4066000000000001
2.0165,-0.4066000000000001"/><polyline points="-1.65e-2,-0.6099000000000001
2.0165,-0.6099000000000001"/><polyline points="-1.65e-2,-0.8131999999999999
2.0165,-0.8131999999999999"/><polyline points="-1.65e-2,-1.0165
2.0165,-1.0165"/></g></g></g><g class="axisbar"><g stroke-opacity="0.0" fill="#0d0d0d" stroke="#000000" stroke-width="0.0" fill-opacity="0.4"><rect width="3.999999999999997e-3" x="-3.05e-2" y="-1.0185" height="2.037"/></g></g></g><g class="axis"><g class="ticks"><g class="tickglyph"><g stroke-opacity="0.4" fill="#0d0d0d" stroke="#0d0d0d" stroke-width="4.0e-3" fill-opacity="0.4"><polyline points="-1.65e-2,1.0614999999999999
-1.65e-2,1.0315"/><polyline points="0.18680000000000002,1.0614999999999999
0.18680000000000002,1.0315"/><polyline points="0.39010000000000006,1.0614999999999999
0.39010000000000006,1.0315"/><polyline points="0.5934000000000003,1.0614999999999999
0.5934000000000003,1.0315"/><polyline points="0.7967000000000002,1.0614999999999999
0.7967000000000002,1.0315"/><polyline points="1.0000000000000002,1.0614999999999999
1.0000000000000002,1.0315"/><polyline points="1.2033000000000005,1.0614999999999999
1.2033000000000005,1.0315"/><polyline points="1.4066000000000005,1.0614999999999999
1.4066000000000005,1.0315"/><polyline points="1.6099000000000003,1.0614999999999999
1.6099000000000003,1.0315"/><polyline points="1.8132000000000004,1.0614999999999999
1.8132000000000004,1.0315"/><polyline points="2.0165,1.0614999999999999
2.0165,1.0315"/></g></g><g class="ticktext"><g fill="#0d0d0d" stroke="none" stroke-width="0.0" font-size="5.0e-2" fill-opacity="1.0" text-anchor="middle"><text x="-1.65e-2" y="1.1099999999999999">0</text><text x="0.18680000000000002" y="1.1099999999999999">0.2</text><text x="0.39010000000000006" y="1.1099999999999999">0.4</text><text x="0.5934000000000003" y="1.1099999999999999">0.6</text><text x="0.7967000000000002" y="1.1099999999999999">0.8</text><text x="1.0000000000000002" y="1.1099999999999999">1</text><text x="1.2033000000000005" y="1.1099999999999999">1.2</text><text x="1.4066000000000005" y="1.1099999999999999">1.4</text><text x="1.6099000000000003" y="1.1099999999999999">1.6</text><text x="1.8132000000000004" y="1.1099999999999999">1.8</text><text x="2.0165" y="1.1099999999999999">2</text></g></g><g class="ticklines"><g stroke-opacity="5.0e-2" fill="none" stroke="#0d0d0d" stroke-width="5.0e-3"><polyline points="-1.65e-2,1.0165
-1.65e-2,-1.0165"/><polyline points="0.18680000000000002,1.0165
0.18680000000000002,-1.0165"/><polyline points="0.39010000000000006,1.0165
0.39010000000000006,-1.0165"/><polyline points="0.5934000000000003,1.0165
0.5934000000000003,-1.0165"/><polyline points="0.7967000000000002,1.0165
0.7967000000000002,-1.0165"/><polyline points="1.0000000000000002,1.0165
1.0000000000000002,-1.0165"/><polyline points="1.2033000000000005,1.0165
1.2033000000000005,-1.0165"/><polyline points="1.4066000000000005,1.0165
1.4066000000000005,-1.0165"/><polyline points="1.6099000000000003,1.0165
1.6099000000000003,-1.0165"/><polyline points="1.8132000000000004,1.0165
1.8132000000000004,-1.0165"/><polyline points="2.0165,1.0165
2.0165,-1.0165"/></g></g></g><g class="axisbar"><g stroke-opacity="0.0" fill="#0d0d0d" stroke="#000000" stroke-width="0.0" fill-opacity="0.4"><rect width="2.037" x="-1.8500000000000003e-2" y="1.0265" height="4.0000000000000036e-3"/></g></g></g></g></svg>