<svg width="453.3762057877814" xmlns:xlink="http://www.w3.org/1999/xlink" xmlns="http://www.w3.org/2000/svg" viewBox="-0.7155361050328228 -0.475492341356674 1.465536105032823 0.9697483588621445" height="300.0"><style>svg {
  color-scheme: light dark;
}
{
  .canvas g, .title g, .axisbar g, .ticktext g, .tickglyph g, .ticklines g, .legendContent g text {
    fill: #0d0d0d;
  }
  .ticklines g, .tickglyph g, .legendBorder g {
    stroke: #0d0d0d;
  }
}
@media (prefers-color-scheme:dark) {
  .canvas g, .title g, .axisbar g, .ticktext g, .tickglyph g, .ticklines g, .legendContent g text {
    fill: #f0f0f0;
  }
  .ticklines g, .tickglyph g, .legendBorder g {
    stroke: #f0f0f0;
  }
}</style><g class="chart"><g class="quad"><g stroke-opacity="0.0" fill="#1f78b5" stroke="#000000" stroke-width="1.0e-2" fill-opacity="0.1"><path d="M -0.6091,0.0169 Q 0.3165,0.4006 -0.1463,-0.3667"/></g><g stroke-opacity="1.0" fill="none" stroke="#a6cfe3" stroke-width="2.0e-3"><polyline points="-0.6090919037199125,1.6922516142470367e-2
-0.5907187089715537,2.448081649656314e-2
-0.5726231947483589,3.180891480941461e-2
-0.5548053610503282,3.890681108102473e-2
-0.5372652078774618,4.577450531139343e-2
-0.5200027352297593,5.2411997500520724e-2
-0.503017943107221,5.881928764840655e-2
-0.48631083150984683,6.499637575505102e-2
-0.4698814004376367,7.094326182045407e-2
-0.45372964989059084,7.665994584461566e-2
-0.43785557986870893,8.214642782753595e-2
-0.4222591903719912,8.740270776921472e-2
-0.4069404814004376,9.242878566965207e-2
-0.3918994529540481,9.722466152884812e-2
-0.37713610503282274,0.10179033534680276
-0.36265043763676147,0.10612580712351594
-0.3484424507658644,0.1102310768589877
-0.3345121444201313,0.1141061445532181
-0.3208595185995623,0.11775101020620704
-0.30748457330415746,0.12116567381795462
-0.2943873085339167,0.12435013538846074
-0.2815677242888402,0.1273043949177255
-0.26902582056892776,0.13002845240574873
-0.2567615973741794,0.13252230785253072
-0.24477505470459515,0.13478596125807119
-0.23306619256017508,0.1368194126223703
-0.22163501094091903,0.138622661945428
-0.21048150984682712,0.14019570922724428
-0.19960568927789935,0.14153855446781916
-0.18900754923413565,0.14265119766715262
-0.1786870897155361,0.14353363882524467
-0.16864431072210073,0.1441858779420953
-0.15887921225382928,0.14460791501770465
-0.14939179431072214,0.14479975005207246
-0.14018205689277907,0.14476138304519887
-0.13124999999999998,0.1444928139970839
-0.12259562363238508,0.14399404290772755
-0.11421892778993437,0.14326506977712977
-0.10611991247264774,0.14230589460529053
-9.829857768052519e-2,0.14111651739220993
-9.075492341356661e-2,0.13969693813788792
-8.348894967177234e-2,0.1380471568423245
-7.650065645514226e-2,0.1361671735055197
-6.979004376367615e-2,0.13405698812747346
-6.3357111597374e-2,0.13171660070818586
-5.720185995623617e-2,0.12914601124765668
-5.132428884026252e-2,0.1263452197458863
-4.572439824945296e-2,0.12331422620287436
-4.0402188183807364e-2,0.12005303061862105
-3.535765864332596e-2,0.11656163299312644
-3.059080962800864e-2,0.11284003332639037
-2.6101641137855625e-2,0.10888823161841282
-2.1890153172866467e-2,0.10470622786919387
-1.7956345733041612e-2,0.10029402207873361
-1.4300218818380506e-2,9.565161424703189e-2
-1.0921772428884036e-2,9.077900437408865e-2
-7.821006564551425e-3,8.567619245990415e-2
-4.997921225382895e-3,8.034317850447825e-2
-2.452516411378558e-3,7.477996250781088e-2
-1.84792122538191e-4,6.898654446990216e-2
1.8052516411377617e-3,6.29629243907519e-2
3.5176148796499662e-3,5.6709102270360356e-2
4.952297592997756e-3,5.022507810872734e-2
6.109299781181576e-3,4.3510851905852854e-2
6.988621444201315e-3,3.6566423661737124e-2
7.5902625820569725e-3,2.939179337637987e-2
7.914223194748438e-3,2.1986961049781262e-2
7.96050328227571e-3,1.435192668194113e-2
7.729102844639013e-3,6.4866902728596965e-3
7.2200218818381234e-3,-1.6087481774630374e-3
6.4332603938731525e-3,-9.934388669027239e-3
5.3688183807441e-3,-1.8490231201832907e-2
4.026695842450856e-3,-2.7276275775879988e-2
2.40689277899353e-3,-3.6292522391168536e-2
5.094091903722342e-4,-4.553897104769833e-2
-1.665754923413476e-3,-5.50156217454697e-2
-4.118599562363268e-3,-6.472247448448254e-2
-6.849124726476918e-3,-7.465952926473662e-2
-9.857330415754983e-3,-8.482678608623206e-2
-1.3143216630196797e-2,-9.522424494896897e-2
-1.6706783369803024e-2,-0.10585190585294746
-2.0548030634573222e-2,-0.11670976879816719
-2.4666958424507723e-2,-0.12779783378462806
-2.9063566739606084e-2,-0.13911610081233072
-3.373785557986875e-2,-0.15066456988127463
-3.868982494529538e-2,-0.16244324099146012
-4.391947483588621e-2,-0.17445211414288686
-4.9426805251641004e-2,-0.18669118933555506
-5.5211816192560104e-2,-0.19916046656946473
-6.1274507658643285e-2,-0.21185994584461576
-6.761487964989055e-2,-0.22478962716100825
-7.4232932166302e-2,-0.237949510518642
-8.112866520787743e-2,-0.2513395959175173
-8.830207877461715e-2,-0.2649598833576339
-9.575317286652063e-2,-0.2788103728389919
-0.10348194748358852,-0.2928910643615913
-0.11148840262582049,-0.30720195792543226
-0.11977253829321655,-0.32174305353051436
-0.1283343544857768,-0.33651435117683803
-0.13717385120350112,-0.3515158508644033
-0.14629102844638953,-0.3667475525932098"/></g><g stroke-opacity="1.0" fill="#a6cfe3" stroke="#1f78b5" stroke-width="3.0e-3" fill-opacity="1.0"><rect width="3.0000000000000027e-2" x="-0.6240919037199125" y="1.922516142470368e-3" height="3.0e-2"/><rect width="3.0000000000000027e-2" x="-0.16129102844638954" y="-0.3817475525932098" height="3.0000000000000027e-2"/></g><g stroke-opacity="1.0" fill="#a6cfe3" stroke="#1f78b5" stroke-width="3.0e-3" fill-opacity="1.0"><circle cx="0.31650984682713357" cy="0.40059258487815036" r="1.5e-2"/></g><g stroke-opacity="1.0" fill="#6666cc" stroke="#808080" stroke-width="2.0e-3" fill-opacity="0.1"><rect width="0.6170678336980308" x="-0.6090919037199125" y="-0.3667475525932098" height="0.5115600916475735"/></g></g></g><g class="hud"><g class="frame"><g stroke-opacity="0.0" fill="#ffffff" stroke="#000000" stroke-width="0.0" fill-opacity="2.0e-2"><rect width="0.9459649890590809" x="-0.61927352297593" y="-0.3794086648614873" height="0.7926623620079151"/></g></g><g class="axis"><g class="ticks"><g class="tickglyph"><g stroke-opacity="0.4" fill="#0d0d0d" stroke="#0d0d0d" stroke-width="4.0e-3" fill-opacity="0.4"><g transform="rotate(-90.0, -0.6377855579868709, 0.40059258487815036)"><polyline points="-0.6377855579868709,0.4155925848781504
-0.6377855579868709,0.38559258487815035"/></g><g transform="rotate(-90.0, -0.6377855579868709, 0.32385857113101435)"><polyline points="-0.6377855579868709,0.33885857113101436
-0.6377855579868709,0.30885857113101434"/></g><g transform="rotate(-90.0, -0.6377855579868709, 0.24712455738387834)"><polyline points="-0.6377855579868709,0.26212455738387835
-0.6377855579868709,0.23212455738387833"/></g><g transform="rotate(-90.0, -0.6377855579868709, 0.17039054363674233)"><polyline points="-0.6377855579868709,0.18539054363674234
-0.6377855579868709,0.15539054363674232"/></g><g transform="rotate(-90.0, -0.6377855579868709, 9.365652988960627e-2)"><polyline points="-0.6377855579868709,0.10865652988960627
-0.6377855579868709,7.865652988960627e-2"/></g><g transform="rotate(-90.0, -0.6377855579868709, 1.6922516142470367e-2)"><polyline points="-0.6377855579868709,3.192251614247037e-2
-0.6377855579868709,1.922516142470368e-3"/></g><g transform="rotate(-90.0, -0.6377855579868709, -5.981149760466575e-2)"><polyline points="-0.6377855579868709,-4.4811497604665754e-2
-0.6377855579868709,-7.481149760466575e-2"/></g><g transform="rotate(-90.0, -0.6377855579868709, -0.13654551135180182)"><polyline points="-0.6377855579868709,-0.12154551135180182
-0.6377855579868709,-0.15154551135180183"/></g><g transform="rotate(-90.0, -0.6377855579868709, -0.21327952509893777)"><polyline points="-0.6377855579868709,-0.19827952509893776
-0.6377855579868709,-0.22827952509893779"/></g><g transform="rotate(-90.0, -0.6377855579868709, -0.29001353884607384)"><polyline points="-0.6377855579868709,-0.2750135388460738
-0.6377855579868709,-0.30501353884607385"/></g><g transform="rotate(-90.0, -0.6377855579868709, -0.3667475525932098)"><polyline points="-0.6377855579868709,-0.3517475525932098
-0.6377855579868709,-0.3817475525932098"/></g></g></g><g class="ticktext"><g fill="#0d0d0d" stroke="none" stroke-width="0.0" font-size="3.0853391684901532e-2" fill-opacity="1.0" text-anchor="end"><text x="-0.66" y="0.4111435117683816">-1</text><text x="-0.66" y="0.33440949802124553">-0.8</text><text x="-0.66" y="0.2576754842741095">-0.6</text><text x="-0.66" y="0.18094147052697357">-0.4</text><text x="-0.66" y="0.10420745677983745">-0.2</text><text x="-0.66" y="2.747344303270155e-2">0</text><text x="-0.66" y="-4.926057071443457e-2">0.2</text><text x="-0.66" y="-0.12599458446157064">0.4</text><text x="-0.66" y="-0.20272859820870648">0.6</text><text x="-0.66" y="-0.27946261195584265">0.8</text><text x="-0.66" y="-0.3561966257029785">1</text></g></g><g class="ticklines"><g stroke-opacity="5.0e-2" fill="none" stroke="#0d0d0d" stroke-width="5.0e-3"><polyline points="-0.6090919037199125,0.40059258487815036
0.31650984682713357,0.40059258487815036"/><polyline points="-0.6090919037199125,0.32385857113101435
0.31650984682713357,0.32385857113101435"/><polyline points="-0.6090919037199125,0.24712455738387834
0.31650984682713357,0.24712455738387834"/><polyline points="-0.6090919037199125,0.17039054363674233
0.31650984682713357,0.17039054363674233"/><polyline points="-0.6090919037199125,9.365652988960627e-2
0.31650984682713357,9.365652988960627e-2"/><polyline points="-0.6090919037199125,1.6922516142470367e-2
0.31650984682713357,1.6922516142470367e-2"/><polyline points="-0.6090919037199125,-5.981149760466575e-2
0.31650984682713357,-5.981149760466575e-2"/><polyline points="-0.6090919037199125,-0.13654551135180182
0.31650984682713357,-0.13654551135180182"/><polyline points="-0.6090919037199125,-0.21327952509893777
0.31650984682713357,-0.21327952509893777"/><polyline points="-0.6090919037199125,-0.29001353884607384
0.31650984682713357,-0.29001353884607384"/><polyline points="-0.6090919037199125,-0.3667475525932098
0.31650984682713357,-0.3667475525932098"/></g></g></g><g class="axisbar"><g stroke-opacity="0.0" fill="#0d0d0d" stroke="#000000" stroke-width="0.0" fill-opacity="0.4"><rect width="2.468271334792216e-3" x="-0.6279124726477024" y="-0.36828223286815254" height="0.7704094980212457"/></g></g></g><g class="axis"><g class="ticks"><g class="tickglyph"><g stroke-opacity="0.4" fill="#0d0d0d" stroke="#0d0d0d" stroke-width="4.0e-3" fill-opacity="0.4"><polyline points="-0.6090919037199125,0.45127390127056866
-0.6090919037199125,0.42127390127056863"/><polyline points="-0.5165317286652078,0.45127390127056866
-0.5165317286652078,0.42127390127056863"/><polyline points="-0.42397155361050326,0.45127390127056866
-0.42397155361050326,0.42127390127056863"/><polyline points="-0.33141137855579866,0.45127390127056866
-0.33141137855579866,0.42127390127056863"/><polyline points="-0.238851203501094,0.45127390127056866
-0.238851203501094,0.42127390127056863"/><polyline points="-0.14629102844638953,0.45127390127056866
-0.14629102844638953,0.42127390127056863"/><polyline points="-5.373085339168482e-2,0.45127390127056866
-5.373085339168482e-2,0.42127390127056863"/><polyline points="3.882932166301978e-2,0.45127390127056866
3.882932166301978e-2,0.42127390127056863"/><polyline points="0.13138949671772449,0.45127390127056866
0.13138949671772449,0.42127390127056863"/><polyline points="0.22394967177242908,0.45127390127056866
0.22394967177242908,0.42127390127056863"/><polyline points="0.31650984682713357,0.45127390127056866
0.31650984682713357,0.42127390127056863"/></g></g><g class="ticktext"><g fill="#0d0d0d" stroke="none" stroke-width="0.0" font-size="3.0853391684901532e-2" fill-opacity="1.0" text-anchor="middle"><text x="-0.6090919037199125" y="0.485">0</text><text x="-0.5165317286652078" y="0.485">0.2</text><text x="-0.42397155361050326" y="0.485">0.4</text><text x="-0.33141137855579866" y="0.485">0.6</text><text x="-0.238851203501094" y="0.485">0.8</text><text x="-0.14629102844638953" y="0.485">1</text><text x="-5.373085339168482e-2" y="0.485">1.2</text><text x="3.882932166301978e-2" y="0.485">1.4</text><text x="0.13138949671772449" y="0.485">1.6</text><text x="0.22394967177242908" y="0.485">1.8</text><text x="0.31650984682713357" y="0.485">2</text></g></g><g class="ticklines"><g stroke-opacity="5.0e-2" fill="none" stroke="#0d0d0d" stroke-width="5.0e-3"><polyline points="-0.6090919037199125,0.40059258487815036
-0.6090919037199125,-0.3667475525932098"/><polyline points="-0.5165317286652078,0.40059258487815036
-0.5165317286652078,-0.3667475525932098"/><polyline points="-0.42397155361050326,0.40059258487815036
-0.42397155361050326,-0.3667475525932098"/><polyline points="-0.33141137855579866,0.40059258487815036
-0.33141137855579866,-0.3667475525932098"/><polyline points="-0.238851203501094,0.40059258487815036
-0.238851203501094,-0.3667475525932098"/><polyline points="-0.14629102844638953,0.40059258487815036
-0.14629102844638953,-0.3667475525932098"/><polyline points="-5.373085339168482e-2,0.40059258487815036
-5.373085339168482e-2,-0.3667475525932098"/><polyline points="3.882932166301978e-2,0.40059258487815036
3.882932166301978e-2,-0.3667475525932098"/><polyline points="0.13138949671772449,0.40059258487815036
0.13138949671772449,-0.3667475525932098"/><polyline points="0.22394967177242908,0.40059258487815036
0.22394967177242908,-0.3667475525932098"/><polyline points="0.31650984682713357,0.40059258487815036
0.31650984682713357,-0.3667475525932098"/></g></g></g><g class="axisbar"><g stroke-opacity="0.0" fill="#0d0d0d" stroke="#000000" stroke-width="0.0" fill-opacity="0.4"><rect width="0.9280700218818383" x="-0.6103260393873086" y="0.4209270985211414" height="3.069360549885436e-3"/></g></g></g><g class="legend"><g class="legendBorder"><g stroke-opacity="1.0" fill="#0d0d0d" stroke="#0d0d0d" stroke-width="2.5e-3" fill-opacity="0.0"><rect width="0.3739431072210069" x="0.37297155361050327" y="-0.2546839200166634" height="0.34977921266402856"/></g></g><g class="legendContent"><g fill="#0d0d0d" stroke="none" stroke-width="0.0" font-size="3.0853391684901532e-2" fill-opacity="1.0" text-anchor="start"><text x="0.388398249452954" y="6.440168714851074e-2">Bounding Box</text></g><g stroke-opacity="1.0" fill="#6666cc" stroke="#808080" stroke-width="2.5e-3" fill-opacity="0.1"><rect width="3.085339168490142e-2" x="0.6691641137855581" y="3.562643199333476e-2" height="3.836700687356792e-2"/></g><g fill="#0d0d0d" stroke="none" stroke-width="0.0" font-size="3.0853391684901532e-2" fill-opacity="1.0" text-anchor="start"><text x="0.388398249452954" y="3.0144761508018036e-3">Path Control Point</text></g><g stroke-opacity="1.0" fill="#a6cfe3" stroke="#1f78b5" stroke-width="3.0e-3" fill-opacity="1.0"><circle cx="0.684590809628009" cy="-6.577275567590135e-3" r="2.5e-2"/></g><g fill="#0d0d0d" stroke="none" stroke-width="0.0" font-size="3.0853391684901532e-2" fill-opacity="1.0" text-anchor="start"><text x="0.388398249452954" y="-5.837273484690686e-2">Path Endpoints</text></g><g stroke-opacity="1.0" fill="#a6cfe3" stroke="#1f78b5" stroke-width="3.0e-3" fill-opacity="1.0"><rect width="5.0000000000000044e-2" x="0.659590809628009" y="-9.296448656529907e-2" height="4.9999999999999996e-2"/></g><g fill="#0d0d0d" stroke="none" stroke-width="0.0" font-size="3.0853391684901532e-2" fill-opacity="1.0" text-anchor="start"><text x="0.388398249452954" y="-0.11975994584461569">Path Chord</text></g><g stroke-opacity="1.0" fill="none" stroke="#a6cfe3" stroke-width="2.0e-3"><polyline points="0.6691641137855581,-0.1293516975630078
0.7308708971553611,-0.1293516975630078"/></g><g fill="#0d0d0d" stroke="none" stroke-width="0.0" font-size="3.0853391684901532e-2" fill-opacity="1.0" text-anchor="start"><text x="0.388398249452954" y="-0.18114715684232452">Path Fill</text></g><g stroke-opacity="0.0" fill="#1f78b5" stroke="#000000" stroke-width="5.0e-2" fill-opacity="0.1"><path d="M 0.6692,-0.1779 Q 0.7309,-0.1396 0.7000,-0.2163"/></g></g></g><g class="title"><g fill="#0d0d0d" stroke="none" stroke-width="0.0" font-size="4.936542669584245e-2" fill-opacity="1.0" text-anchor="middle"><text x="1.7231947483588805e-2" y="-0.43600000000000005">QuadPosition (Point 0 0) (Point 1 1) (Point 2 (-1))</text></g></g></g></svg>