<svg xmlns="http://www.w3.org/2000/svg" height="300.0" viewBox="-0.6822731098534431 -0.5833322902653921 1.2810462197068864 1.1557733247481508" width="332.516642911628" xmlns:xlink="http://www.w3.org/1999/xlink"><g stroke-opacity="0.0" fill-opacity="2.5e-2" stroke="#000000" stroke-width="0.0" fill="#808080"><rect height="0.8908765334212333" width="0.9888268069636451" x="-0.456553697110202" y="-0.5"/></g><g stroke-opacity="5.0e-2" stroke="#808080" stroke-width="5.0e-3" fill="none"><polyline points="-0.456553697110202,0.3908765334212333
0.5322731098534431,0.3908765334212333"/></g><g stroke-opacity="5.0e-2" stroke="#808080" stroke-width="5.0e-3" fill="none"><polyline points="-0.456553697110202,0.30178888007911
0.5322731098534431,0.30178888007911"/></g><g stroke-opacity="5.0e-2" stroke="#808080" stroke-width="5.0e-3" fill="none"><polyline points="-0.456553697110202,0.2127012267369866
0.5322731098534431,0.2127012267369866"/></g><g stroke-opacity="5.0e-2" stroke="#808080" stroke-width="5.0e-3" fill="none"><polyline points="-0.456553697110202,0.12361357339486329
0.5322731098534431,0.12361357339486329"/></g><g stroke-opacity="5.0e-2" stroke="#808080" stroke-width="5.0e-3" fill="none"><polyline points="-0.456553697110202,3.452592005273991e-2
0.5322731098534431,3.452592005273991e-2"/></g><g stroke-opacity="5.0e-2" stroke="#808080" stroke-width="5.0e-3" fill="none"><polyline points="-0.456553697110202,-5.4561733289383296e-2
0.5322731098534431,-5.4561733289383296e-2"/></g><g stroke-opacity="5.0e-2" stroke="#808080" stroke-width="5.0e-3" fill="none"><polyline points="-0.456553697110202,-0.14364938663150673
0.5322731098534431,-0.14364938663150673"/></g><g stroke-opacity="5.0e-2" stroke="#808080" stroke-width="5.0e-3" fill="none"><polyline points="-0.456553697110202,-0.23273703997363004
0.5322731098534431,-0.23273703997363004"/></g><g stroke-opacity="5.0e-2" stroke="#808080" stroke-width="5.0e-3" fill="none"><polyline points="-0.456553697110202,-0.32182469331575336
0.5322731098534431,-0.32182469331575336"/></g><g stroke-opacity="5.0e-2" stroke="#808080" stroke-width="5.0e-3" fill="none"><polyline points="-0.456553697110202,-0.41091234665787657
0.5322731098534431,-0.41091234665787657"/></g><g stroke-opacity="5.0e-2" stroke="#808080" stroke-width="5.0e-3" fill="none"><polyline points="-0.456553697110202,-0.5
0.5322731098534431,-0.5"/></g><g fill-opacity="1.0" font-size="5.0e-2" stroke="none" stroke-width="0.0" fill="#808080" text-anchor="end"><text x="-0.5322731098534431" y="0.4037942431558411">-1</text></g><g fill-opacity="1.0" font-size="5.0e-2" stroke="none" stroke-width="0.0" fill="#808080" text-anchor="end"><text x="-0.5322731098534431" y="0.31470658981371785">-0.8</text></g><g fill-opacity="1.0" font-size="5.0e-2" stroke="none" stroke-width="0.0" fill="#808080" text-anchor="end"><text x="-0.5322731098534431" y="0.22561893647159448">-0.6</text></g><g fill-opacity="1.0" font-size="5.0e-2" stroke="none" stroke-width="0.0" fill="#808080" text-anchor="end"><text x="-0.5322731098534431" y="0.13653128312947116">-0.4</text></g><g fill-opacity="1.0" font-size="5.0e-2" stroke="none" stroke-width="0.0" fill="#808080" text-anchor="end"><text x="-0.5322731098534431" y="4.7443629787347785e-2">-0.2</text></g><g fill-opacity="1.0" font-size="5.0e-2" stroke="none" stroke-width="0.0" fill="#808080" text-anchor="end"><text x="-0.5322731098534431" y="-4.164402355477548e-2">0</text></g><g fill-opacity="1.0" font-size="5.0e-2" stroke="none" stroke-width="0.0" fill="#808080" text-anchor="end"><text x="-0.5322731098534431" y="-0.1307316768968989">0.2</text></g><g fill-opacity="1.0" font-size="5.0e-2" stroke="none" stroke-width="0.0" fill="#808080" text-anchor="end"><text x="-0.5322731098534431" y="-0.21981933023902223">0.4</text></g><g fill-opacity="1.0" font-size="5.0e-2" stroke="none" stroke-width="0.0" fill="#808080" text-anchor="end"><text x="-0.5322731098534431" y="-0.30890698358114543">0.6</text></g><g fill-opacity="1.0" font-size="5.0e-2" stroke="none" stroke-width="0.0" fill="#808080" text-anchor="end"><text x="-0.5322731098534431" y="-0.39799463692326886">0.8</text></g><g fill-opacity="1.0" font-size="5.0e-2" stroke="none" stroke-width="0.0" fill="#808080" text-anchor="end"><text x="-0.5322731098534431" y="-0.48708229026539207">1</text></g><g stroke-opacity="1.0" fill-opacity="1.0" stroke="#808080" stroke-width="5.0e-3" fill="#808080"><g transform="rotate(-90.0, -0.5000620766166024, 0.3908765334212333)"><polyline points="-0.5000620766166024,0.4058765334212333
-0.5000620766166024,0.3758765334212333"/></g><g transform="rotate(-90.0, -0.5000620766166024, 0.30178888007911)"><polyline points="-0.5000620766166024,0.31678888007911
-0.5000620766166024,0.28678888007910996"/></g><g transform="rotate(-90.0, -0.5000620766166024, 0.2127012267369866)"><polyline points="-0.5000620766166024,0.22770122673698662
-0.5000620766166024,0.1977012267369866"/></g><g transform="rotate(-90.0, -0.5000620766166024, 0.12361357339486329)"><polyline points="-0.5000620766166024,0.1386135733948633
-0.5000620766166024,0.10861357339486329"/></g><g transform="rotate(-90.0, -0.5000620766166024, 3.452592005273991e-2)"><polyline points="-0.5000620766166024,4.952592005273991e-2
-0.5000620766166024,1.9525920052739912e-2"/></g><g transform="rotate(-90.0, -0.5000620766166024, -5.4561733289383296e-2)"><polyline points="-0.5000620766166024,-3.95617332893833e-2
-0.5000620766166024,-6.95617332893833e-2"/></g><g transform="rotate(-90.0, -0.5000620766166024, -0.14364938663150673)"><polyline points="-0.5000620766166024,-0.1286493866315067
-0.5000620766166024,-0.15864938663150674"/></g><g transform="rotate(-90.0, -0.5000620766166024, -0.23273703997363004)"><polyline points="-0.5000620766166024,-0.21773703997363003
-0.5000620766166024,-0.24773703997363006"/></g><g transform="rotate(-90.0, -0.5000620766166024, -0.32182469331575336)"><polyline points="-0.5000620766166024,-0.30682469331575335
-0.5000620766166024,-0.3368246933157534"/></g><g transform="rotate(-90.0, -0.5000620766166024, -0.41091234665787657)"><polyline points="-0.5000620766166024,-0.39591234665787656
-0.5000620766166024,-0.4259123466578766"/></g><g transform="rotate(-90.0, -0.5000620766166024, -0.5)"><polyline points="-0.5000620766166024,-0.485
-0.5000620766166024,-0.515"/></g></g><g stroke-opacity="1.0" fill-opacity="1.0" stroke="#808080" stroke-width="0.0" fill="#808080"><rect height="0.8908765334212333" width="4.944134034818304e-3" x="-0.48770174152955686" y="-0.5"/></g><g stroke-opacity="5.0e-2" stroke="#808080" stroke-width="5.0e-3" fill="none"><polyline points="-0.456553697110202,0.3908765334212333
-0.456553697110202,-0.5"/></g><g stroke-opacity="5.0e-2" stroke="#808080" stroke-width="5.0e-3" fill="none"><polyline points="-0.3576710164138376,0.3908765334212333
-0.3576710164138376,-0.5"/></g><g stroke-opacity="5.0e-2" stroke="#808080" stroke-width="5.0e-3" fill="none"><polyline points="-0.258788335717473,0.3908765334212333
-0.258788335717473,-0.5"/></g><g stroke-opacity="5.0e-2" stroke="#808080" stroke-width="5.0e-3" fill="none"><polyline points="-0.15990565502110848,0.3908765334212333
-0.15990565502110848,-0.5"/></g><g stroke-opacity="5.0e-2" stroke="#808080" stroke-width="5.0e-3" fill="none"><polyline points="-6.1022974324743906e-2,0.3908765334212333
-6.1022974324743906e-2,-0.5"/></g><g stroke-opacity="5.0e-2" stroke="#808080" stroke-width="5.0e-3" fill="none"><polyline points="3.7859706371620616e-2,0.3908765334212333
3.7859706371620616e-2,-0.5"/></g><g stroke-opacity="5.0e-2" stroke="#808080" stroke-width="5.0e-3" fill="none"><polyline points="0.13674238706798525,0.3908765334212333
0.13674238706798525,-0.5"/></g><g stroke-opacity="5.0e-2" stroke="#808080" stroke-width="5.0e-3" fill="none"><polyline points="0.23562506776434966,0.3908765334212333
0.23562506776434966,-0.5"/></g><g stroke-opacity="5.0e-2" stroke="#808080" stroke-width="5.0e-3" fill="none"><polyline points="0.3345077484607143,0.3908765334212333
0.3345077484607143,-0.5"/></g><g stroke-opacity="5.0e-2" stroke="#808080" stroke-width="5.0e-3" fill="none"><polyline points="0.4333904291570787,0.3908765334212333
0.4333904291570787,-0.5"/></g><g stroke-opacity="5.0e-2" stroke="#808080" stroke-width="5.0e-3" fill="none"><polyline points="0.5322731098534431,0.3908765334212333
0.5322731098534431,-0.5"/></g><g fill-opacity="1.0" font-size="4.274482758620691e-2" stroke="none" stroke-width="0.0" fill="#808080" text-anchor="middle"><text x="-0.456553697110202" y="0.5">0</text></g><g fill-opacity="1.0" font-size="4.274482758620691e-2" stroke="none" stroke-width="0.0" fill="#808080" text-anchor="middle"><text x="-0.3576710164138376" y="0.5">0.2</text></g><g fill-opacity="1.0" font-size="4.274482758620691e-2" stroke="none" stroke-width="0.0" fill="#808080" text-anchor="middle"><text x="-0.258788335717473" y="0.5">0.4</text></g><g fill-opacity="1.0" font-size="4.274482758620691e-2" stroke="none" stroke-width="0.0" fill="#808080" text-anchor="middle"><text x="-0.15990565502110848" y="0.5">0.6</text></g><g fill-opacity="1.0" font-size="4.274482758620691e-2" stroke="none" stroke-width="0.0" fill="#808080" text-anchor="middle"><text x="-6.1022974324743906e-2" y="0.5">0.8</text></g><g fill-opacity="1.0" font-size="4.274482758620691e-2" stroke="none" stroke-width="0.0" fill="#808080" text-anchor="middle"><text x="3.7859706371620616e-2" y="0.5">1</text></g><g fill-opacity="1.0" font-size="4.274482758620691e-2" stroke="none" stroke-width="0.0" fill="#808080" text-anchor="middle"><text x="0.13674238706798525" y="0.5">1.2</text></g><g fill-opacity="1.0" font-size="4.274482758620691e-2" stroke="none" stroke-width="0.0" fill="#808080" text-anchor="middle"><text x="0.23562506776434966" y="0.5">1.4</text></g><g fill-opacity="1.0" font-size="4.274482758620691e-2" stroke="none" stroke-width="0.0" fill="#808080" text-anchor="middle"><text x="0.3345077484607143" y="0.5">1.6</text></g><g fill-opacity="1.0" font-size="4.274482758620691e-2" stroke="none" stroke-width="0.0" fill="#808080" text-anchor="middle"><text x="0.4333904291570787" y="0.5">1.8</text></g><g fill-opacity="1.0" font-size="4.274482758620691e-2" stroke="none" stroke-width="0.0" fill="#808080" text-anchor="middle"><text x="0.5322731098534431" y="0.5">2</text></g><g stroke-opacity="1.0" fill-opacity="1.0" stroke="#808080" stroke-width="5.0e-3" fill="#808080"><polyline points="-0.456553697110202,0.44507510089176744
-0.456553697110202,0.4150751008917674"/><polyline points="-0.3576710164138376,0.44507510089176744
-0.3576710164138376,0.4150751008917674"/><polyline points="-0.258788335717473,0.44507510089176744
-0.258788335717473,0.4150751008917674"/><polyline points="-0.15990565502110848,0.44507510089176744
-0.15990565502110848,0.4150751008917674"/><polyline points="-6.1022974324743906e-2,0.44507510089176744
-6.1022974324743906e-2,0.4150751008917674"/><polyline points="3.7859706371620616e-2,0.44507510089176744
3.7859706371620616e-2,0.4150751008917674"/><polyline points="0.13674238706798525,0.44507510089176744
0.13674238706798525,0.4150751008917674"/><polyline points="0.23562506776434966,0.44507510089176744
0.23562506776434966,0.4150751008917674"/><polyline points="0.3345077484607143,0.44507510089176744
0.3345077484607143,0.4150751008917674"/><polyline points="0.4333904291570787,0.44507510089176744
0.4333904291570787,0.4150751008917674"/><polyline points="0.5322731098534431,0.44507510089176744
0.5322731098534431,0.4150751008917674"/></g><g stroke-opacity="1.0" fill-opacity="1.0" stroke="#808080" stroke-width="0.0" fill="#808080"><rect height="4.454382667106238e-3" width="0.9888268069636451" x="-0.456553697110202" y="0.4144847615568959"/></g><g stroke-opacity="0.0" fill-opacity="0.1" stroke="#000000" stroke-width="1.0e-2" fill="#e31a1c"><path d="M -0.4566,-0.0546 Q 0.5323,0.3909 0.0379,-0.5"/></g><g stroke-opacity="1.0" stroke="#1f78b4" stroke-width="2.0e-3" fill="none"><polyline points="-0.456553697110202,-5.4561733289383296e-2
-0.43692548499197364,-4.578659943518415e-2
-0.4175939209158344,-3.727872854101144e-2
-0.3985590048817843,-2.903812060686506e-2
-0.3798207368898232,-2.1064775632745003e-2
-0.3613791169399512,-1.3358693618651274e-2
-0.3432341450321683,-5.919874564583982e-3
-0.3253858211664745,1.2516815294569272e-3
-0.3078341453428698,8.155974663471566e-3
-0.2905791175613541,1.4793004837459656e-2
-0.2736207378219277,2.1162772051421475e-2
-0.2569590061245902,2.726527630535691e-2
-0.24059392246934191,3.3100517599265966e-2
-0.22452548685618268,3.866849593314875e-2
-0.20875369928511256,4.3969211307005096e-2
-0.1932785597561315,4.9002663720835116e-2
-0.17810006826923963,5.376885317463864e-2
-0.1632182248244367,5.82677796684159e-2
-0.1486330294217229,6.2499443202166716e-2
-0.13434448206109822,6.646384377589126e-2
-0.12035258274256261,7.016098138958932e-2
-0.10665733146611628,7.35908560432611e-2
-9.325872823175885e-2,7.675346773690639e-2
-8.015677303949048e-2,7.964881647052546e-2
-6.735146588931129e-2,8.22769022441181e-2
-5.484280678122122e-2,8.463772505768435e-2
-4.263079571522016e-2,8.673128491122428e-2
-3.0715432691308275e-2,8.855758180473772e-2
-1.909671770948529e-2,9.011661573822494e-2
-7.774650769751701e-3,9.140838671168566e-2
3.2507681278929335e-3,9.243289472512012e-2
1.3979538983448392e-2,9.319013977852814e-2
2.4411661796914896e-2,9.368012187190988e-2
3.454713656829245e-2,9.390284100526514e-2
4.438596329758049e-2,9.385829717859406e-2
5.39281419847798e-2,9.354649039189666e-2
6.317367262988982e-2,9.296742064517283e-2
7.212255523291089e-2,9.212108793842272e-2
8.077478979384267e-2,9.100749227164617e-2
8.91303763126855e-2,8.962663364484325e-2
9.718931478943926e-2,8.797851205801394e-2
0.10495160522410385,8.60631275111583e-2
0.11241724761667937,8.388048000427634e-2
0.11958624196716572,8.143056953736794e-2
0.12645858827556322,7.871339611043321e-2
0.13303428654187144,7.572895972347199e-2
0.1393133367660906,7.247726037648455e-2
0.14529573894822057,6.895829806947057e-2
0.15098149308826148,6.517207280243037e-2
0.15637059918621332,6.1118584575363843e-2
0.1614630572420761,5.679783338827088e-2
0.16625886725584993,5.220981924115148e-2
0.17075802922753436,4.7354542134005695e-2
0.17496054315712983,4.2232002066833696e-2
0.17886640904463647,3.6842199039635204e-2
0.1824756268900536,3.1185133052410385e-2
0.18578819669338187,2.5260804105159185e-2
0.18880411845462086,1.9069212197881658e-2
0.191523392173771,1.2610357330577637e-2
0.193946017850832,5.884239503247346e-3
0.19607199548580367,-1.1091412841094384e-3
0.19790132507868663,-8.369785031492327e-3
0.1994340066294802,-1.5897691738901876e-2
0.20067004013818457,-2.369286140633764e-2
0.2016094256048,-3.175529403379984e-2
0.20225216302932658,-4.008498962128826e-2
0.20259825241176377,-4.8681948168803224e-2
0.2026476937521119,-5.7546169676344516e-2
0.20240048705037095,-6.667765414391214e-2
0.20185663230654105,-7.607640157150619e-2
0.2010161295206221,-8.574241195912657e-2
0.19987897869261384,-9.567568530677317e-2
0.19844517982251653,-0.10587622161444632
0.19671473291033015,-0.1163440208821459
0.1946876379560547,-0.1270790831098716
0.19236389495968997,-0.13808140829762394
0.1897435039212364,-0.14935099644540262
0.18682646484069365,-0.16088784755320762
0.18361277771806173,-0.17269196162103895
0.18010244255334096,-0.1847633386488966
0.1762954593465309,-0.1971019786367808
0.17219182809763167,-0.20970788158469122
0.1677915488066435,-0.22258104749262797
0.16309462147356601,-0.23572147636059126
0.1581010460983997,-0.24912916818858055
0.15281082268114432,-0.2628041229765965
0.14722395122179976,-0.2767463407246389
0.14134043172036603,-0.2909558214327075
0.13516026417684335,-0.3054325651008025
0.12868344859123138,-0.320176571728924
0.12190998496353034,-0.3351878413170718
0.11483987329374024,-0.35046637386524604
0.10747311358186129,-0.3660121693734465
9.980970582789273e-2,-0.3818252278416734
9.184965003183554e-2,-0.39790554926992683
8.359294619368907e-2,-0.4142531336582065
7.503959431345353e-2,-0.430867981006512
6.618959439112904e-2,-0.44775009131484467
5.7042946426715146e-2,-0.4648994645832034
4.7599650420212414e-2,-0.4823161008115885
3.7859706371620616e-2,-0.5"/></g><g stroke-opacity="0.8" fill-opacity="0.3" stroke="#1f78b4" stroke-width="3.0e-3" fill="#a6cee3"><rect height="3.0e-2" width="3.0000000000000027e-2" x="-0.471553697110202" y="-6.95617332893833e-2"/><rect height="3.0000000000000027e-2" width="3.0e-2" x="2.2859706371620617e-2" y="-0.515"/><rect height="3.0000000000000027e-2" width="3.0000000000000027e-2" x="0.5172731098534431" y="0.3758765334212333"/></g><g stroke-opacity="1.0" fill-opacity="0.1" stroke="#808080" stroke-width="2.0e-3" fill="#6666cc"><rect height="0.5939176889474889" width="0.6592178713090968" x="-0.456553697110202" y="-0.5"/></g><g></g></svg>