<svg height="300" viewBox="-0.7149 -0.4750 1.4649 0.9691" width="453" xmlns="http://www.w3.org/2000/svg" xmlns:xlink="http://www.w3.org/1999/xlink"><style>svg {
  color-scheme: light dark;
}
{
  .canvas g, .title g, .axisbar g, .ticktext g, .tickglyph g, .ticklines g, .legendContent g text {
    fill: rgb(5%, 5%, 5%);
  }
  .ticklines g, .tickglyph g, .legendBorder g {
    stroke: rgb(5%, 5%, 5%);
  }
  .legendBorder g {
    fill: rgb(94%, 94%, 94%);
  }
}
@media (prefers-color-scheme:dark) {
  .canvas g, .title g, .axisbar g, .ticktext g, .tickglyph g, .ticklines g, .legendContent g text {
    fill: rgb(94%, 94%, 94%);
  }
  .ticklines g, .tickglyph g, .legendBorder g {
    stroke: rgb(94%, 94%, 94%);
  }
  .legendBorder g {
    fill: rgb(5%, 5%, 5%);
  }
}</style><g class="chart"><g class="quad"><g fill="rgb(66%, 7%, 55%)" fill-opacity="(0.20" stroke="rgb(0%, 0%, 0%)" stroke-opacity="(0.0" stroke-width="0.0100"><path d="M -0.6097,0.0169 Q 0.3045,0.4006 -0.1526,-0.3667"/></g><g fill="none" stroke="rgb(2%, 29%, 48%)" stroke-opacity="(1.0" stroke-width="0.0020"><polyline points="-0.6097,0.0169 -0.5916,0.0245 -0.5737,0.0318 -0.5561,0.0389 -0.5388,0.0458 -0.5217,0.0524 -0.5050,0.0588 -0.4885,0.0650 -0.4722,0.0709 -0.4563,0.0767 -0.4406,0.0821 -0.4252,0.0874 -0.4101,0.0924 -0.3952,0.0972 -0.3806,0.1018 -0.3663,0.1061 -0.3523,0.1102 -0.3385,0.1141 -0.3250,0.1178 -0.3118,0.1212 -0.2989,0.1244 -0.2862,0.1273 -0.2738,0.1300 -0.2617,0.1325 -0.2499,0.1348 -0.2383,0.1368 -0.2270,0.1386 -0.2160,0.1402 -0.2053,0.1415 -0.1948,0.1427 -0.1846,0.1435 -0.1747,0.1442 -0.1651,0.1446 -0.1557,0.1448 -0.1466,0.1448 -0.1378,0.1445 -0.1292,0.1440 -0.1209,0.1433 -0.1129,0.1423 -0.1052,0.1411 -0.0978,0.1397 -0.0906,0.1380 -0.0837,0.1362 -0.0771,0.1341 -0.0707,0.1317 -0.0646,0.1291 -0.0588,0.1263 -0.0533,0.1233 -0.0480,0.1201 -0.0431,0.1166 -0.0383,0.1128 -0.0339,0.1089 -0.0298,0.1047 -0.0259,0.1003 -0.0223,0.0957 -0.0189,0.0908 -0.0159,0.0857 -0.0131,0.0803 -0.0106,0.0748 -0.0083,0.0690 -0.0063,0.0630 -0.0047,0.0567 -0.0032,0.0502 -0.0021,0.0435 -0.0012,0.0366 -0.0006,0.0294 -0.0003,0.0220 -0.0003,0.0144 -0.0005,0.0065 -0.0010,-0.0016 -0.0018,-0.0099 -0.0028,-0.0185 -0.0042,-0.0273 -0.0058,-0.0363 -0.0076,-0.0455 -0.0098,-0.0550 -0.0122,-0.0647 -0.0149,-0.0747 -0.0179,-0.0848 -0.0211,-0.0952 -0.0246,-0.1059 -0.0284,-0.1167 -0.0325,-0.1278 -0.0368,-0.1391 -0.0415,-0.1507 -0.0463,-0.1624 -0.0515,-0.1745 -0.0569,-0.1867 -0.0627,-0.1992 -0.0687,-0.2119 -0.0749,-0.2248 -0.0814,-0.2379 -0.0883,-0.2513 -0.0953,-0.2650 -0.1027,-0.2788 -0.1103,-0.2929 -0.1182,-0.3072 -0.1264,-0.3217 -0.1349,-0.3365 -0.1436,-0.3515 -0.1526,-0.3667"/></g><g fill="rgb(2%, 73%, 80%)" fill-opacity="(0.20" stroke="rgb(2%, 29%, 48%)" stroke-opacity="(1.0" stroke-width="0.0030"><rect height="0.0300" width="0.0300" x="-0.6247" y="0.0019"/><rect height="0.0300" width="0.0300" x="-0.1676" y="-0.3817"/></g><g fill="rgb(2%, 73%, 80%)" fill-opacity="(0.20" stroke="rgb(2%, 29%, 48%)" stroke-opacity="(1.0" stroke-width="0.0030"><circle cx="0.3045" cy="0.4006" r="0.0150"/></g><g fill="rgb(2%, 73%, 80%)" fill-opacity="(0.050" stroke="rgb(40%, 40%, 40%)" stroke-opacity="(1.0" stroke-width="0.0020"><rect height="0.5116" width="0.6095" x="-0.6097" y="-0.3667"/></g></g></g><g class="hud"><g class="frame"><g fill="rgb(100%, 100%, 100%)" fill-opacity="(0.020" stroke="rgb(0%, 0%, 0%)" stroke-opacity="(0.0" stroke-width="0"><rect height="0.7927" width="0.9343" x="-0.6198" y="-0.3794"/></g></g><g class="axis"><g class="ticks"><g class="tickglyph"><g fill="rgb(5%, 5%, 5%)" fill-opacity="(0.40" stroke="rgb(5%, 5%, 5%)" stroke-opacity="(0.40" stroke-width="0.0040"><g transform="rotate(-90.0, -0.6381, 0.4006)"><polyline points="-0.6381,0.4156
-0.6381,0.3856"/></g><g transform="rotate(-90.0, -0.6381, 0.3239)"><polyline points="-0.6381,0.3389
-0.6381,0.3089"/></g><g transform="rotate(-90.0, -0.6381, 0.2471)"><polyline points="-0.6381,0.2621
-0.6381,0.2321"/></g><g transform="rotate(-90.0, -0.6381, 0.1704)"><polyline points="-0.6381,0.1854
-0.6381,0.1554"/></g><g transform="rotate(-90.0, -0.6381, 0.0937)"><polyline points="-0.6381,0.1087
-0.6381,0.0787"/></g><g transform="rotate(-90.0, -0.6381, 0.0169)"><polyline points="-0.6381,0.0319
-0.6381,0.0019"/></g><g transform="rotate(-90.0, -0.6381, -0.0598)"><polyline points="-0.6381,-0.0448
-0.6381,-0.0748"/></g><g transform="rotate(-90.0, -0.6381, -0.1365)"><polyline points="-0.6381,-0.1215
-0.6381,-0.1515"/></g><g transform="rotate(-90.0, -0.6381, -0.2133)"><polyline points="-0.6381,-0.1983
-0.6381,-0.2283"/></g><g transform="rotate(-90.0, -0.6381, -0.2900)"><polyline points="-0.6381,-0.2750
-0.6381,-0.3050"/></g><g transform="rotate(-90.0, -0.6381, -0.3667)"><polyline points="-0.6381,-0.3517
-0.6381,-0.3817"/></g></g></g><g class="ticktext"><g fill="rgb(5%, 5%, 5%)" fill-opacity="(1.0" font-size="0.0305" stroke="none" stroke-width="0.0" text-anchor="end"><text x="-0.66" y="0.4111">-1.0</text><text x="-0.66" y="0.3344">-0.8</text><text x="-0.66" y="0.2577">-0.6</text><text x="-0.66" y="0.1809">-0.4</text><text x="-0.66" y="0.1042">-0.2</text><text x="-0.66" y="0.0275"> 0.0</text><text x="-0.66" y="-0.0493"> 0.2</text><text x="-0.66" y="-0.1260"> 0.4</text><text x="-0.66" y="-0.2027"> 0.6</text><text x="-0.66" y="-0.2795"> 0.8</text><text x="-0.66" y="-0.3562"> 1.0</text></g></g><g class="ticklines"><g fill="none" stroke="rgb(5%, 5%, 5%)" stroke-opacity="(0.050" stroke-width="0.0050"><polyline points="-0.6097,0.4006 0.3045,0.4006"/><polyline points="-0.6097,0.3239 0.3045,0.3239"/><polyline points="-0.6097,0.2471 0.3045,0.2471"/><polyline points="-0.6097,0.1704 0.3045,0.1704"/><polyline points="-0.6097,0.0937 0.3045,0.0937"/><polyline points="-0.6097,0.0169 0.3045,0.0169"/><polyline points="-0.6097,-0.0598 0.3045,-0.0598"/><polyline points="-0.6097,-0.1365 0.3045,-0.1365"/><polyline points="-0.6097,-0.2133 0.3045,-0.2133"/><polyline points="-0.6097,-0.2900 0.3045,-0.2900"/><polyline points="-0.6097,-0.3667 0.3045,-0.3667"/></g></g></g><g class="axisbar"><g fill="rgb(5%, 5%, 5%)" fill-opacity="(0.40" stroke="rgb(0%, 0%, 0%)" stroke-opacity="(0.0" stroke-width="0"><rect height="0.7704" width="0.0024" x="-0.6283" y="-0.3683"/></g></g></g><g class="axis"><g class="ticks"><g class="tickglyph"><g fill="rgb(5%, 5%, 5%)" fill-opacity="(0.40" stroke="rgb(5%, 5%, 5%)" stroke-opacity="(0.40" stroke-width="0.0040"><polyline points="-0.6097,0.4513
-0.6097,0.4213"/><polyline points="-0.5183,0.4513
-0.5183,0.4213"/><polyline points="-0.4269,0.4513
-0.4269,0.4213"/><polyline points="-0.3355,0.4513
-0.3355,0.4213"/><polyline points="-0.2440,0.4513
-0.2440,0.4213"/><polyline points="-0.1526,0.4513
-0.1526,0.4213"/><polyline points="-0.0612,0.4513
-0.0612,0.4213"/><polyline points="0.0302,0.4513
0.0302,0.4213"/><polyline points="0.1216,0.4513
0.1216,0.4213"/><polyline points="0.2131,0.4513
0.2131,0.4213"/><polyline points="0.3045,0.4513
0.3045,0.4213"/></g></g><g class="ticktext"><g fill="rgb(5%, 5%, 5%)" fill-opacity="(1.0" font-size="0.0305" stroke="none" stroke-width="0.0" text-anchor="middle"><text x="-0.6097" y="0.485">0.00</text><text x="-0.5183" y="0.485">0.20</text><text x="-0.4269" y="0.485">0.40</text><text x="-0.3355" y="0.485">0.60</text><text x="-0.2440" y="0.485">0.80</text><text x="-0.1526" y="0.485">1.00</text><text x="-0.0612" y="0.485">1.20</text><text x="0.0302" y="0.485">1.40</text><text x="0.1216" y="0.485">1.60</text><text x="0.2131" y="0.485">1.80</text><text x="0.3045" y="0.485">2.00</text></g></g><g class="ticklines"><g fill="none" stroke="rgb(5%, 5%, 5%)" stroke-opacity="(0.050" stroke-width="0.0050"><polyline points="-0.6097,0.4006 -0.6097,-0.3667"/><polyline points="-0.5183,0.4006 -0.5183,-0.3667"/><polyline points="-0.4269,0.4006 -0.4269,-0.3667"/><polyline points="-0.3355,0.4006 -0.3355,-0.3667"/><polyline points="-0.2440,0.4006 -0.2440,-0.3667"/><polyline points="-0.1526,0.4006 -0.1526,-0.3667"/><polyline points="-0.0612,0.4006 -0.0612,-0.3667"/><polyline points="0.0302,0.4006 0.0302,-0.3667"/><polyline points="0.1216,0.4006 0.1216,-0.3667"/><polyline points="0.2131,0.4006 0.2131,-0.3667"/><polyline points="0.3045,0.4006 0.3045,-0.3667"/></g></g></g><g class="axisbar"><g fill="rgb(5%, 5%, 5%)" fill-opacity="(0.40" stroke="rgb(0%, 0%, 0%)" stroke-opacity="(0.0" stroke-width="0"><rect height="0.0031" width="0.9166" x="-0.6109" y="0.4209"/></g></g></g><g class="legend"><g class="legendBorder"><g fill="rgb(5%, 5%, 5%)" fill-opacity="(0.0" stroke="rgb(5%, 5%, 5%)" stroke-opacity="(1.0" stroke-width="0.0025"><rect height="0.3498" width="0.3693" x="0.3776" y="-0.2547"/></g></g><g class="legendContent"><g fill="rgb(5%, 5%, 5%)" fill-opacity="(1.0" font-size="0.0305" stroke="none" stroke-width="0.0" text-anchor="start"><text x="0.3929" y="0.0644">Bounding Box</text></g><g fill="rgb(2%, 73%, 80%)" fill-opacity="(0.050" stroke="rgb(40%, 40%, 40%)" stroke-opacity="(1.0" stroke-width="0.0025"><rect height="0.0384" width="0.0305" x="0.6702" y="0.0356"/></g><g fill="rgb(5%, 5%, 5%)" fill-opacity="(1.0" font-size="0.0305" stroke="none" stroke-width="0.0" text-anchor="start"><text x="0.3929" y="0.0030">Path Control Point</text></g><g fill="rgb(2%, 73%, 80%)" fill-opacity="(0.20" stroke="rgb(2%, 29%, 48%)" stroke-opacity="(1.0" stroke-width="0.0030"><circle cx="0.6854" cy="-0.0066" r="0.0250"/></g><g fill="rgb(5%, 5%, 5%)" fill-opacity="(1.0" font-size="0.0305" stroke="none" stroke-width="0.0" text-anchor="start"><text x="0.3929" y="-0.0584">Path Endpoints</text></g><g fill="rgb(2%, 73%, 80%)" fill-opacity="(0.20" stroke="rgb(2%, 29%, 48%)" stroke-opacity="(1.0" stroke-width="0.0030"><rect height="0.0500" width="0.0500" x="0.6604" y="-0.0930"/></g><g fill="rgb(5%, 5%, 5%)" fill-opacity="(1.0" font-size="0.0305" stroke="none" stroke-width="0.0" text-anchor="start"><text x="0.3929" y="-0.1198">Path Chord</text></g><g fill="none" stroke="rgb(2%, 29%, 48%)" stroke-opacity="(1.0" stroke-width="0.0020"><polyline points="0.6702,-0.1294 0.7311,-0.1294"/></g><g fill="rgb(5%, 5%, 5%)" fill-opacity="(1.0" font-size="0.0305" stroke="none" stroke-width="0.0" text-anchor="start"><text x="0.3929" y="-0.1811">Path Fill</text></g><g fill="rgb(66%, 7%, 55%)" fill-opacity="(0.20" stroke="rgb(0%, 0%, 0%)" stroke-opacity="(0.0" stroke-width="0.0500"><path d="M 0.6702,-0.1779 Q 0.7311,-0.1396 0.7006,-0.2163"/></g></g></g><g class="title"><g fill="rgb(5%, 5%, 5%)" fill-opacity="(1.0" font-size="0.0488" stroke="none" stroke-width="0.0" text-anchor="middle"><text x="0.0176" y="-0.4360">QuadPosition (Point 0 0) (Point 1 1) (Point 2 (-1))</text></g></g></g></svg>