<svg xmlns="http://www.w3.org/2000/svg" height="638.3249999999999" viewBox="-0.5765750000000001 -1.43175 2.993075 2.98575" width="622.9725" xmlns:xlink="http://www.w3.org/1999/xlink"><g stroke-opacity="0.0" fill-opacity="2.5e-2" stroke="#000000" stroke-width="0.0" fill="#808080"><rect height="2.0" width="2.0" x="0.0" y="-1.0"/></g><g stroke-opacity="5.0e-2" stroke="#808080" stroke-width="5.0e-3" fill="none"><polyline points="0.0,1.0
2.0,1.0"/></g><g stroke-opacity="5.0e-2" stroke="#808080" stroke-width="5.0e-3" fill="none"><polyline points="0.0,0.8
2.0,0.8"/></g><g stroke-opacity="5.0e-2" stroke="#808080" stroke-width="5.0e-3" fill="none"><polyline points="0.0,0.6
2.0,0.6"/></g><g stroke-opacity="5.0e-2" stroke="#808080" stroke-width="5.0e-3" fill="none"><polyline points="0.0,0.3999999999999999
2.0,0.3999999999999999"/></g><g stroke-opacity="5.0e-2" stroke="#808080" stroke-width="5.0e-3" fill="none"><polyline points="0.0,0.19999999999999996
2.0,0.19999999999999996"/></g><g stroke-opacity="5.0e-2" stroke="#808080" stroke-width="5.0e-3" fill="none"><polyline points="0.0,-0.0
2.0,-0.0"/></g><g stroke-opacity="5.0e-2" stroke="#808080" stroke-width="5.0e-3" fill="none"><polyline points="0.0,-0.20000000000000018
2.0,-0.20000000000000018"/></g><g stroke-opacity="5.0e-2" stroke="#808080" stroke-width="5.0e-3" fill="none"><polyline points="0.0,-0.40000000000000013
2.0,-0.40000000000000013"/></g><g stroke-opacity="5.0e-2" stroke="#808080" stroke-width="5.0e-3" fill="none"><polyline points="0.0,-0.6000000000000003
2.0,-0.6000000000000003"/></g><g stroke-opacity="5.0e-2" stroke="#808080" stroke-width="5.0e-3" fill="none"><polyline points="0.0,-0.8
2.0,-0.8"/></g><g stroke-opacity="5.0e-2" stroke="#808080" stroke-width="5.0e-3" fill="none"><polyline points="0.0,-1.0
2.0,-1.0"/></g><g fill-opacity="1.0" font-size="5.0e-2" stroke="none" stroke-width="0.0" fill="#808080" text-anchor="end"><text x="-7.6575e-2" y="1.0145">-1</text></g><g fill-opacity="1.0" font-size="5.0e-2" stroke="none" stroke-width="0.0" fill="#808080" text-anchor="end"><text x="-7.6575e-2" y="0.8145">-0.8</text></g><g fill-opacity="1.0" font-size="5.0e-2" stroke="none" stroke-width="0.0" fill="#808080" text-anchor="end"><text x="-7.6575e-2" y="0.6144999999999999">-0.6</text></g><g fill-opacity="1.0" font-size="5.0e-2" stroke="none" stroke-width="0.0" fill="#808080" text-anchor="end"><text x="-7.6575e-2" y="0.41449999999999987">-0.4</text></g><g fill-opacity="1.0" font-size="5.0e-2" stroke="none" stroke-width="0.0" fill="#808080" text-anchor="end"><text x="-7.6575e-2" y="0.2144999999999999">-0.2</text></g><g fill-opacity="1.0" font-size="5.0e-2" stroke="none" stroke-width="0.0" fill="#808080" text-anchor="end"><text x="-7.6575e-2" y="1.4499999999999957e-2">0</text></g><g fill-opacity="1.0" font-size="5.0e-2" stroke="none" stroke-width="0.0" fill="#808080" text-anchor="end"><text x="-7.6575e-2" y="-0.18550000000000022">0.2</text></g><g fill-opacity="1.0" font-size="5.0e-2" stroke="none" stroke-width="0.0" fill="#808080" text-anchor="end"><text x="-7.6575e-2" y="-0.3855000000000002">0.4</text></g><g fill-opacity="1.0" font-size="5.0e-2" stroke="none" stroke-width="0.0" fill="#808080" text-anchor="end"><text x="-7.6575e-2" y="-0.5855000000000001">0.6</text></g><g fill-opacity="1.0" font-size="5.0e-2" stroke="none" stroke-width="0.0" fill="#808080" text-anchor="end"><text x="-7.6575e-2" y="-0.7855000000000001">0.8</text></g><g fill-opacity="1.0" font-size="5.0e-2" stroke="none" stroke-width="0.0" fill="#808080" text-anchor="end"><text x="-7.6575e-2" y="-0.9855">1</text></g><g stroke-opacity="1.0" fill-opacity="1.0" stroke="#808080" stroke-width="5.0e-3" fill="#808080"><g transform="rotate(-90.0, -4.4e-2, 1.0)"><polyline points="-4.4e-2,1.015
-4.4e-2,0.985"/></g><g transform="rotate(-90.0, -4.4e-2, 0.8)"><polyline points="-4.4e-2,0.8150000000000001
-4.4e-2,0.785"/></g><g transform="rotate(-90.0, -4.4e-2, 0.6)"><polyline points="-4.4e-2,0.615
-4.4e-2,0.585"/></g><g transform="rotate(-90.0, -4.4e-2, 0.3999999999999999)"><polyline points="-4.4e-2,0.4149999999999999
-4.4e-2,0.3849999999999999"/></g><g transform="rotate(-90.0, -4.4e-2, 0.19999999999999996)"><polyline points="-4.4e-2,0.21499999999999997
-4.4e-2,0.18499999999999994"/></g><g transform="rotate(-90.0, -4.4e-2, -0.0)"><polyline points="-4.4e-2,1.5e-2
-4.4e-2,-1.5e-2"/></g><g transform="rotate(-90.0, -4.4e-2, -0.20000000000000018)"><polyline points="-4.4e-2,-0.18500000000000016
-4.4e-2,-0.2150000000000002"/></g><g transform="rotate(-90.0, -4.4e-2, -0.40000000000000013)"><polyline points="-4.4e-2,-0.3850000000000001
-4.4e-2,-0.41500000000000015"/></g><g transform="rotate(-90.0, -4.4e-2, -0.6000000000000003)"><polyline points="-4.4e-2,-0.5850000000000003
-4.4e-2,-0.6150000000000003"/></g><g transform="rotate(-90.0, -4.4e-2, -0.8)"><polyline points="-4.4e-2,-0.785
-4.4e-2,-0.8150000000000001"/></g><g transform="rotate(-90.0, -4.4e-2, -1.0)"><polyline points="-4.4e-2,-0.985
-4.4e-2,-1.015"/></g></g><g stroke-opacity="1.0" fill-opacity="1.0" stroke="#808080" stroke-width="0.0" fill="#808080"><rect height="2.0" width="4.9999999999999975e-3" x="-3.15e-2" y="-1.0"/></g><g stroke-opacity="5.0e-2" stroke="#808080" stroke-width="5.0e-3" fill="none"><polyline points="0.0,1.0
0.0,-1.0"/></g><g stroke-opacity="5.0e-2" stroke="#808080" stroke-width="5.0e-3" fill="none"><polyline points="0.2,1.0
0.2,-1.0"/></g><g stroke-opacity="5.0e-2" stroke="#808080" stroke-width="5.0e-3" fill="none"><polyline points="0.39999999999999997,1.0
0.39999999999999997,-1.0"/></g><g stroke-opacity="5.0e-2" stroke="#808080" stroke-width="5.0e-3" fill="none"><polyline points="0.6000000000000001,1.0
0.6000000000000001,-1.0"/></g><g stroke-opacity="5.0e-2" stroke="#808080" stroke-width="5.0e-3" fill="none"><polyline points="0.8,1.0
0.8,-1.0"/></g><g stroke-opacity="5.0e-2" stroke="#808080" stroke-width="5.0e-3" fill="none"><polyline points="1.0,1.0
1.0,-1.0"/></g><g stroke-opacity="5.0e-2" stroke="#808080" stroke-width="5.0e-3" fill="none"><polyline points="1.2000000000000002,1.0
1.2000000000000002,-1.0"/></g><g stroke-opacity="5.0e-2" stroke="#808080" stroke-width="5.0e-3" fill="none"><polyline points="1.4000000000000001,1.0
1.4000000000000001,-1.0"/></g><g stroke-opacity="5.0e-2" stroke="#808080" stroke-width="5.0e-3" fill="none"><polyline points="1.6,1.0
1.6,-1.0"/></g><g stroke-opacity="5.0e-2" stroke="#808080" stroke-width="5.0e-3" fill="none"><polyline points="1.7999999999999998,1.0
1.7999999999999998,-1.0"/></g><g stroke-opacity="5.0e-2" stroke="#808080" stroke-width="5.0e-3" fill="none"><polyline points="2.0,1.0
2.0,-1.0"/></g><g fill-opacity="1.0" font-size="5.0e-2" stroke="none" stroke-width="0.0" fill="#808080" text-anchor="middle"><text x="0.0" y="1.1277499999999998">0</text></g><g fill-opacity="1.0" font-size="5.0e-2" stroke="none" stroke-width="0.0" fill="#808080" text-anchor="middle"><text x="0.2" y="1.1277499999999998">0.2</text></g><g fill-opacity="1.0" font-size="5.0e-2" stroke="none" stroke-width="0.0" fill="#808080" text-anchor="middle"><text x="0.39999999999999997" y="1.1277499999999998">0.4</text></g><g fill-opacity="1.0" font-size="5.0e-2" stroke="none" stroke-width="0.0" fill="#808080" text-anchor="middle"><text x="0.6000000000000001" y="1.1277499999999998">0.6</text></g><g fill-opacity="1.0" font-size="5.0e-2" stroke="none" stroke-width="0.0" fill="#808080" text-anchor="middle"><text x="0.8" y="1.1277499999999998">0.8</text></g><g fill-opacity="1.0" font-size="5.0e-2" stroke="none" stroke-width="0.0" fill="#808080" text-anchor="middle"><text x="1.0" y="1.1277499999999998">1</text></g><g fill-opacity="1.0" font-size="5.0e-2" stroke="none" stroke-width="0.0" fill="#808080" text-anchor="middle"><text x="1.2000000000000002" y="1.1277499999999998">1.2</text></g><g fill-opacity="1.0" font-size="5.0e-2" stroke="none" stroke-width="0.0" fill="#808080" text-anchor="middle"><text x="1.4000000000000001" y="1.1277499999999998">1.4</text></g><g fill-opacity="1.0" font-size="5.0e-2" stroke="none" stroke-width="0.0" fill="#808080" text-anchor="middle"><text x="1.6" y="1.1277499999999998">1.6</text></g><g fill-opacity="1.0" font-size="5.0e-2" stroke="none" stroke-width="0.0" fill="#808080" text-anchor="middle"><text x="1.7999999999999998" y="1.1277499999999998">1.8</text></g><g fill-opacity="1.0" font-size="5.0e-2" stroke="none" stroke-width="0.0" fill="#808080" text-anchor="middle"><text x="2.0" y="1.1277499999999998">2</text></g><g stroke-opacity="1.0" fill-opacity="1.0" stroke="#808080" stroke-width="5.0e-3" fill="#808080"><polyline points="0.0,1.0589999999999997
0.0,1.029"/><polyline points="0.2,1.0589999999999997
0.2,1.029"/><polyline points="0.39999999999999997,1.0589999999999997
0.39999999999999997,1.029"/><polyline points="0.6000000000000001,1.0589999999999997
0.6000000000000001,1.029"/><polyline points="0.8,1.0589999999999997
0.8,1.029"/><polyline points="1.0,1.0589999999999997
1.0,1.029"/><polyline points="1.2000000000000002,1.0589999999999997
1.2000000000000002,1.029"/><polyline points="1.4000000000000001,1.0589999999999997
1.4000000000000001,1.029"/><polyline points="1.6,1.0589999999999997
1.6,1.029"/><polyline points="1.7999999999999998,1.0589999999999997
1.7999999999999998,1.029"/><polyline points="2.0,1.0589999999999997
2.0,1.029"/></g><g stroke-opacity="1.0" fill-opacity="1.0" stroke="#808080" stroke-width="0.0" fill="#808080"><rect height="4.999999999999893e-3" width="2.0" x="0.0" y="1.0265"/></g><g stroke-opacity="0.0" fill-opacity="0.1" stroke="#000000" stroke-width="1.0e-2" fill="#e31a1c"><path d="M 0.0,0.0 Q 2.0,0.9999999999999998 1.0,-1.0 L 0.0,0.0"/></g><g stroke-opacity="1.0" stroke="#1f78b4" stroke-width="2.0e-3" fill="none"><polyline points="0.0,-0.0
3.970000000000001e-2,1.970000000000005e-2
7.879999999999998e-2,3.8799999999999946e-2
0.11729999999999999,5.730000000000013e-2
0.15519999999999998,7.519999999999993e-2
0.1925,9.250000000000003e-2
0.22919999999999996,0.10919999999999996
0.26530000000000004,0.12529999999999997
0.3008,0.14080000000000004
0.3357,0.15569999999999984
0.37000000000000005,0.16999999999999993
0.4037,0.18369999999999997
0.4368,0.19679999999999986
0.4693000000000001,0.20929999999999993
0.5011999999999999,0.22120000000000006
0.5325,0.23250000000000004
0.5631999999999999,0.24319999999999997
0.5932999999999999,0.2533000000000001
0.6228,0.26280000000000003
0.6517,0.27170000000000005
0.6800000000000002,0.28
0.7077,0.28770000000000007
0.7347999999999999,0.29479999999999995
0.7613000000000001,0.3013
0.7871999999999999,0.3071999999999999
0.8125,0.3125
0.8371999999999999,0.31720000000000004
0.8613,0.3212999999999999
0.8848,0.3248
0.9076999999999997,0.3276999999999999
0.9299999999999999,0.32999999999999985
0.9516999999999998,0.3316999999999999
0.9727999999999997,0.3328
0.9932999999999998,0.33329999999999993
1.0131999999999999,0.33319999999999994
1.0325,0.3324999999999999
1.0512,0.33119999999999994
1.0693,0.32930000000000004
1.0868,0.3268
1.1037,0.3237
1.1199999999999999,0.31999999999999995
1.1357,0.31569999999999987
1.1508,0.31079999999999997
1.1653,0.3053
1.1792000000000002,0.29920000000000013
1.1925000000000001,0.29249999999999987
1.2051999999999998,0.2852000000000001
1.2173,0.2772999999999999
1.2288,0.2687999999999998
1.2397,0.25970000000000004
1.25,0.2499999999999999
1.2597,0.2396999999999999
1.2688,0.2287999999999999
1.2772999999999999,0.21729999999999994
1.2852000000000001,0.20520000000000005
1.2925,0.1924999999999999
1.2992,0.17919999999999991
1.3053,0.1652999999999999
1.3108,0.15080000000000005
1.3157,0.13570000000000004
1.3199999999999998,0.1200000000000001
1.3236999999999999,0.1036999999999999
1.3267999999999998,8.679999999999999e-2
1.3293,6.929999999999992e-2
1.3312,5.119999999999991e-2
1.3325,3.249999999999997e-2
1.3332,1.3199999999999878e-2
1.3333,-6.70000000000015e-3
1.3327999999999998,-2.7200000000000113e-2
1.3317,-4.8300000000000454e-2
1.33,-7.000000000000028e-2
1.3277,-9.229999999999983e-2
1.3248,-0.11519999999999997
1.3212999999999997,-0.13870000000000027
1.3172000000000001,-0.16280000000000006
1.3125,-0.1875
1.3072,-0.21280000000000032
1.3013,-0.23870000000000013
1.2948,-0.2652000000000001
1.2877,-0.2923
1.28,-0.3200000000000003
1.2717,-0.3483000000000003
1.2628,-0.3772000000000002
1.2532999999999999,-0.4067000000000003
1.2431999999999999,-0.43679999999999986
1.2324999999999997,-0.4674999999999998
1.2212,-0.4987999999999999
1.2093,-0.5307
1.1968,-0.5631999999999999
1.1837,-0.5963
1.17,-0.6300000000000001
1.1557,-0.6643000000000003
1.1408,-0.6992000000000003
1.1253,-0.7347000000000001
1.1092,-0.7708000000000004
1.0924999999999996,-0.8075000000000001
1.0752000000000002,-0.8447999999999998
1.0573,-0.8826999999999998
1.0388,-0.9211999999999998
1.0196999999999998,-0.9603000000000002
1.0,-1.0"/></g><g stroke-opacity="0.8" fill-opacity="0.3" stroke="#1f78b4" stroke-width="3.0e-3" fill="#a6cee3"><rect height="3.0e-2" width="3.0e-2" x="-1.5e-2" y="-1.5e-2"/><rect height="2.9999999999999916e-2" width="2.9999999999999916e-2" x="0.985" y="-1.015"/><rect height="2.9999999999999916e-2" width="3.0000000000000027e-2" x="1.985" y="0.985"/></g><g stroke-opacity="1.0" fill-opacity="0.1" stroke="#808080" stroke-width="2.0e-3" fill="#6666cc"><rect height="1.3333333333333335" width="1.3333333333333333" x="0.0" y="-1.0"/></g></svg>