<svg height="300.00" viewBox="-0.70497 -0.47438 1.4550 0.96838" width="450.74" xmlns="http://www.w3.org/2000/svg" xmlns:xlink="http://www.w3.org/1999/xlink"><style>svg {
  color-scheme: light dark;
}
{
  .canvas g, .title g, .axisbar g, .ticktext g, .tickglyph g, .ticklines g, .legendContent g text {
    fill: rgba(5%, 5%, 5%, 1.00);
  }
  .ticklines g, .tickglyph g, .legendBorder g {
    stroke: rgba(5%, 5%, 5%, 1.00);
  }
  .legendBorder g {
    fill: rgba(94%, 94%, 94%, 1.00);
  }
}
@media (prefers-color-scheme:dark) {
  .canvas g, .title g, .axisbar g, .ticktext g, .tickglyph g, .ticklines g, .legendContent g text {
    fill: rgba(94%, 94%, 94%, 1.00);
  }
  .ticklines g, .tickglyph g, .legendBorder g {
    stroke: rgba(94%, 94%, 94%, 1.00);
  }
  .legendBorder g {
    fill: rgba(5%, 5%, 5%, 1.00);
  }
}</style><g class="chart"><g class="quad"><g fill="rgba(66%, 7%, 55%, 0.20)" stroke="rgba(0%, 0%, 0%, 0.00)" stroke-width="0.010000"><path d="M -0.5880,0.0169 Q 0.3116,0.4006 -0.1382,-0.3667"/></g><g fill="none" stroke="rgba(2%, 29%, 48%, 1.00)" stroke-width="0.0020000"><polyline points="-0.58802,0.016923 -0.57016,0.024481 -0.55258,0.031809 -0.53526,0.038907 -0.51821,0.045775 -0.50143,0.052412 -0.48493,0.058819 -0.46869,0.064996 -0.45272,0.070943 -0.43702,0.076660 -0.42159,0.082146 -0.40643,0.087403 -0.39155,0.092429 -0.37693,0.097225 -0.36258,0.10179 -0.34850,0.10613 -0.33469,0.11023 -0.32115,0.11411 -0.30788,0.11775 -0.29488,0.12117 -0.28215,0.12435 -0.26969,0.12730 -0.25750,0.13003 -0.24558,0.13252 -0.23393,0.13479 -0.22255,0.13682 -0.21144,0.13862 -0.20060,0.14020 -0.19003,0.14154 -0.17973,0.14265 -0.16970,0.14353 -0.15994,0.14419 -0.15045,0.14461 -0.14123,0.14480 -0.13228,0.14476 -0.12360,0.14449 -0.11519,0.14399 -0.10704,0.14327 -0.099173,0.14231 -0.091571,0.14112 -0.084239,0.13970 -0.077177,0.13805 -0.070385,0.13617 -0.063863,0.13406 -0.057611,0.13172 -0.051628,0.12915 -0.045916,0.12635 -0.040473,0.12331 -0.035300,0.12005 -0.030398,0.11656 -0.025765,0.11284 -0.021401,0.10889 -0.017308,0.10471 -0.013485,0.10029 -0.0099314,0.095652 -0.0066478,0.090779 -0.0036341,0.085676 -0.00089029,0.080343 0.0015836,0.074780 0.0037877,0.068987 0.0057219,0.062963 0.0073861,0.056709 0.0087805,0.050225 0.0099050,0.043511 0.010760,0.036566 0.011344,0.029392 0.011659,0.021987 0.011704,0.014352 0.011479,0.0064867 0.010985,-0.0016087 0.010220,-0.0099344 0.0091854,-0.018490 0.0078809,-0.027276 0.0063066,-0.036293 0.0044624,-0.045539 0.0023483,-0.055016 -0.000035660,-0.064722 -0.0026895,-0.074660 -0.0056132,-0.084827 -0.0088069,-0.095224 -0.012270,-0.10585 -0.016004,-0.11671 -0.020007,-0.12780 -0.024280,-0.13912 -0.028823,-0.15066 -0.033636,-0.16244 -0.038719,-0.17445 -0.044072,-0.18669 -0.049694,-0.19916 -0.055587,-0.21186 -0.061749,-0.22479 -0.068181,-0.23795 -0.074883,-0.25134 -0.081855,-0.26496 -0.089097,-0.27881 -0.096609,-0.29289 -0.10439,-0.30720 -0.11244,-0.32174 -0.12076,-0.33651 -0.12935,-0.35152 -0.13822,-0.36675"/></g><g fill="rgba(2%, 73%, 80%, 0.20)" stroke="rgba(2%, 29%, 48%, 1.00)" stroke-width="0.0030000"><rect height="0.030000" width="0.030000" x="-0.60302" y="0.0019225"/><rect height="0.030000" width="0.030000" x="-0.15322" y="-0.38175"/></g><g fill="rgba(2%, 73%, 80%, 0.20)" stroke="rgba(2%, 29%, 48%, 1.00)" stroke-width="0.0030000"><circle cx="0.31159" cy="0.40059" r="0.015000"/></g><g fill="rgba(2%, 73%, 80%, 0.05)" stroke="rgba(40%, 40%, 40%, 1.00)" stroke-width="0.0020000"><rect height="0.51156" width="0.59974" x="-0.58802" y="-0.36675"/></g></g></g><g class="hud"><g class="frame"><g fill="rgba(100%, 100%, 100%, 0.02)" stroke="rgba(0%, 0%, 0%, 0.00)" stroke-width="0.0000"><rect height="0.79266" width="0.91940" x="-0.59792" y="-0.37941"/></g></g><g class="axis"><g class="ticks"><g class="tickglyph"><g fill="rgba(5%, 5%, 5%, 0.40)" stroke="rgba(5%, 5%, 5%, 0.40)" stroke-width="0.0040000"><g transform="rotate(-90.000, -0.61591, 0.40059)"><polyline points="-0.61591,0.41559
-0.61591,0.38559"/></g><g transform="rotate(-90.000, -0.61591, 0.32386)"><polyline points="-0.61591,0.33886
-0.61591,0.30886"/></g><g transform="rotate(-90.000, -0.61591, 0.24712)"><polyline points="-0.61591,0.26212
-0.61591,0.23212"/></g><g transform="rotate(-90.000, -0.61591, 0.17039)"><polyline points="-0.61591,0.18539
-0.61591,0.15539"/></g><g transform="rotate(-90.000, -0.61591, 0.093657)"><polyline points="-0.61591,0.10866
-0.61591,0.078657"/></g><g transform="rotate(-90.000, -0.61591, 0.016923)"><polyline points="-0.61591,0.031923
-0.61591,0.0019225"/></g><g transform="rotate(-90.000, -0.61591, -0.059811)"><polyline points="-0.61591,-0.044811
-0.61591,-0.074811"/></g><g transform="rotate(-90.000, -0.61591, -0.13655)"><polyline points="-0.61591,-0.12155
-0.61591,-0.15155"/></g><g transform="rotate(-90.000, -0.61591, -0.21328)"><polyline points="-0.61591,-0.19828
-0.61591,-0.22828"/></g><g transform="rotate(-90.000, -0.61591, -0.29001)"><polyline points="-0.61591,-0.27501
-0.61591,-0.30501"/></g><g transform="rotate(-90.000, -0.61591, -0.36675)"><polyline points="-0.61591,-0.35175
-0.61591,-0.38175"/></g></g></g><g class="ticktext"><g fill="rgba(5%, 5%, 5%, 1.00)" font-size="0.029987" stroke="none" stroke-width="0.0" text-anchor="end"><text x="-0.63750" y="0.41114">-1.00</text><text x="-0.63750" y="0.33441">-0.80</text><text x="-0.63750" y="0.25768">-0.60</text><text x="-0.63750" y="0.18094">-0.40</text><text x="-0.63750" y="0.10421">-0.20</text><text x="-0.63750" y="0.027473"> 0.00</text><text x="-0.63750" y="-0.049261"> 0.20</text><text x="-0.63750" y="-0.12599"> 0.40</text><text x="-0.63750" y="-0.20273"> 0.60</text><text x="-0.63750" y="-0.27946"> 0.80</text><text x="-0.63750" y="-0.35620"> 1.00</text></g></g><g class="ticklines"><g fill="none" stroke="rgba(5%, 5%, 5%, 0.05)" stroke-width="0.0050000"><polyline points="-0.58802,0.40059 0.31159,0.40059"/><polyline points="-0.58802,0.32386 0.31159,0.32386"/><polyline points="-0.58802,0.24712 0.31159,0.24712"/><polyline points="-0.58802,0.17039 0.31159,0.17039"/><polyline points="-0.58802,0.093657 0.31159,0.093657"/><polyline points="-0.58802,0.016923 0.31159,0.016923"/><polyline points="-0.58802,-0.059811 0.31159,-0.059811"/><polyline points="-0.58802,-0.13655 0.31159,-0.13655"/><polyline points="-0.58802,-0.21328 0.31159,-0.21328"/><polyline points="-0.58802,-0.29001 0.31159,-0.29001"/><polyline points="-0.58802,-0.36675 0.31159,-0.36675"/></g></g></g><g class="axisbar"><g fill="rgba(5%, 5%, 5%, 0.40)" stroke="rgba(0%, 0%, 0%, 0.00)" stroke-width="0.0000"><rect height="0.77041" width="0.0023990" x="-0.60631" y="-0.36828"/></g></g></g><g class="axis"><g class="ticks"><g class="tickglyph"><g fill="rgba(5%, 5%, 5%, 0.40)" stroke="rgba(5%, 5%, 5%, 0.40)" stroke-width="0.0040000"><polyline points="-0.58802,0.45127
-0.58802,0.42127"/><polyline points="-0.49806,0.45127
-0.49806,0.42127"/><polyline points="-0.40810,0.45127
-0.40810,0.42127"/><polyline points="-0.31814,0.45127
-0.31814,0.42127"/><polyline points="-0.22818,0.45127
-0.22818,0.42127"/><polyline points="-0.13822,0.45127
-0.13822,0.42127"/><polyline points="-0.048255,0.45127
-0.048255,0.42127"/><polyline points="0.041706,0.45127
0.041706,0.42127"/><polyline points="0.13167,0.45127
0.13167,0.42127"/><polyline points="0.22163,0.45127
0.22163,0.42127"/><polyline points="0.31159,0.45127
0.31159,0.42127"/></g></g><g class="ticktext"><g fill="rgba(5%, 5%, 5%, 1.00)" font-size="0.029987" stroke="none" stroke-width="0.0" text-anchor="middle"><text x="-0.58802" y="0.48500">0.00</text><text x="-0.49806" y="0.48500">0.20</text><text x="-0.40810" y="0.48500">0.40</text><text x="-0.31814" y="0.48500">0.60</text><text x="-0.22818" y="0.48500">0.80</text><text x="-0.13822" y="0.48500">1.00</text><text x="-0.048255" y="0.48500">1.20</text><text x="0.041706" y="0.48500">1.40</text><text x="0.13167" y="0.48500">1.60</text><text x="0.22163" y="0.48500">1.80</text><text x="0.31159" y="0.48500">2.00</text></g></g><g class="ticklines"><g fill="none" stroke="rgba(5%, 5%, 5%, 0.05)" stroke-width="0.0050000"><polyline points="-0.58802,0.40059 -0.58802,-0.36675"/><polyline points="-0.49806,0.40059 -0.49806,-0.36675"/><polyline points="-0.40810,0.40059 -0.40810,-0.36675"/><polyline points="-0.31814,0.40059 -0.31814,-0.36675"/><polyline points="-0.22818,0.40059 -0.22818,-0.36675"/><polyline points="-0.13822,0.40059 -0.13822,-0.36675"/><polyline points="-0.048255,0.40059 -0.048255,-0.36675"/><polyline points="0.041706,0.40059 0.041706,-0.36675"/><polyline points="0.13167,0.40059 0.13167,-0.36675"/><polyline points="0.22163,0.40059 0.22163,-0.36675"/><polyline points="0.31159,0.40059 0.31159,-0.36675"/></g></g></g><g class="axisbar"><g fill="rgba(5%, 5%, 5%, 0.40)" stroke="rgba(0%, 0%, 0%, 0.00)" stroke-width="0.0000"><rect height="0.0030694" width="0.90201" x="-0.58922" y="0.42093"/></g></g></g><g class="legend"><g class="legendBorder"><g fill="rgba(5%, 5%, 5%, 0.00)" stroke="rgba(5%, 5%, 5%, 1.00)" stroke-width="0.0025000"><rect height="0.34978" width="0.36344" x="0.38356" y="-0.25468"/></g></g><g class="legendContent"><g fill="rgba(5%, 5%, 5%, 1.00)" font-size="0.029987" stroke="none" stroke-width="0.0" text-anchor="start"><text x="0.39855" y="0.064402">Bounding Box</text></g><g fill="rgba(2%, 73%, 80%, 0.05)" stroke="rgba(40%, 40%, 40%, 1.00)" stroke-width="0.0025000"><rect height="0.038367" width="0.029987" x="0.67143" y="0.035626"/></g><g fill="rgba(5%, 5%, 5%, 1.00)" font-size="0.029987" stroke="none" stroke-width="0.0" text-anchor="start"><text x="0.39855" y="0.0030145">Path Control Point</text></g><g fill="rgba(2%, 73%, 80%, 0.20)" stroke="rgba(2%, 29%, 48%, 1.00)" stroke-width="0.0030000"><circle cx="0.68643" cy="-0.0065773" r="0.025000"/></g><g fill="rgba(5%, 5%, 5%, 1.00)" font-size="0.029987" stroke="none" stroke-width="0.0" text-anchor="start"><text x="0.39855" y="-0.058373">Path Endpoints</text></g><g fill="rgba(2%, 73%, 80%, 0.20)" stroke="rgba(2%, 29%, 48%, 1.00)" stroke-width="0.0030000"><rect height="0.050000" width="0.050000" x="0.66143" y="-0.092964"/></g><g fill="rgba(5%, 5%, 5%, 1.00)" font-size="0.029987" stroke="none" stroke-width="0.0" text-anchor="start"><text x="0.39855" y="-0.11976">Path Chord</text></g><g fill="none" stroke="rgba(2%, 29%, 48%, 1.00)" stroke-width="0.0020000"><polyline points="0.67143,-0.12935 0.73141,-0.12935"/></g><g fill="rgba(5%, 5%, 5%, 1.00)" font-size="0.029987" stroke="none" stroke-width="0.0" text-anchor="start"><text x="0.39855" y="-0.18115">Path Fill</text></g><g fill="rgba(66%, 7%, 55%, 0.20)" stroke="rgba(0%, 0%, 0%, 0.00)" stroke-width="0.050000"><path d="M 0.6714,-0.1779 Q 0.7314,-0.1396 0.7014,-0.2163"/></g></g></g><g class="title"><g fill="rgba(5%, 5%, 5%, 1.00)" font-size="0.047979" stroke="none" stroke-width="0.0" text-anchor="middle"><text x="0.022515" y="-0.43600">QuadPosition (Point 0 0) (Point 1 1) (Point 2 (-1))</text></g></g></g></svg>