<svg xmlns="http://www.w3.org/2000/svg" height="336.747" viewBox="-0.551575 -1.43175 1.9680750000000002 1.9766810344827586" width="322.9725" xmlns:xlink="http://www.w3.org/1999/xlink"><g stroke-opacity="0.0" fill-opacity="2.5e-2" stroke="#000000" stroke-width="0.0" fill="#808080"><rect height="1.0" width="1.0" x="0.0" y="-1.0"/></g><g stroke-opacity="5.0e-2" stroke="#808080" stroke-width="5.0e-3" fill="none"><polyline points="0.0,-0.0
1.0,-0.0"/></g><g stroke-opacity="5.0e-2" stroke="#808080" stroke-width="5.0e-3" fill="none"><polyline points="0.0,-0.1
1.0,-0.1"/></g><g stroke-opacity="5.0e-2" stroke="#808080" stroke-width="5.0e-3" fill="none"><polyline points="0.0,-0.20000000000000007
1.0,-0.20000000000000007"/></g><g stroke-opacity="5.0e-2" stroke="#808080" stroke-width="5.0e-3" fill="none"><polyline points="0.0,-0.30000000000000004
1.0,-0.30000000000000004"/></g><g stroke-opacity="5.0e-2" stroke="#808080" stroke-width="5.0e-3" fill="none"><polyline points="0.0,-0.4
1.0,-0.4"/></g><g stroke-opacity="5.0e-2" stroke="#808080" stroke-width="5.0e-3" fill="none"><polyline points="0.0,-0.5
1.0,-0.5"/></g><g stroke-opacity="5.0e-2" stroke="#808080" stroke-width="5.0e-3" fill="none"><polyline points="0.0,-0.6000000000000001
1.0,-0.6000000000000001"/></g><g stroke-opacity="5.0e-2" stroke="#808080" stroke-width="5.0e-3" fill="none"><polyline points="0.0,-0.7000000000000001
1.0,-0.7000000000000001"/></g><g stroke-opacity="5.0e-2" stroke="#808080" stroke-width="5.0e-3" fill="none"><polyline points="0.0,-0.8000000000000002
1.0,-0.8000000000000002"/></g><g stroke-opacity="5.0e-2" stroke="#808080" stroke-width="5.0e-3" fill="none"><polyline points="0.0,-0.8999999999999999
1.0,-0.8999999999999999"/></g><g stroke-opacity="5.0e-2" stroke="#808080" stroke-width="5.0e-3" fill="none"><polyline points="0.0,-1.0
1.0,-1.0"/></g><g fill-opacity="1.0" font-size="5.0e-2" stroke="none" stroke-width="0.0" fill="#808080" text-anchor="end"><text x="-7.6575e-2" y="1.4499999999999985e-2">0</text></g><g fill-opacity="1.0" font-size="5.0e-2" stroke="none" stroke-width="0.0" fill="#808080" text-anchor="end"><text x="-7.6575e-2" y="-8.550000000000002e-2">0.1</text></g><g fill-opacity="1.0" font-size="5.0e-2" stroke="none" stroke-width="0.0" fill="#808080" text-anchor="end"><text x="-7.6575e-2" y="-0.1855">0.2</text></g><g fill-opacity="1.0" font-size="5.0e-2" stroke="none" stroke-width="0.0" fill="#808080" text-anchor="end"><text x="-7.6575e-2" y="-0.28550000000000003">0.3</text></g><g fill-opacity="1.0" font-size="5.0e-2" stroke="none" stroke-width="0.0" fill="#808080" text-anchor="end"><text x="-7.6575e-2" y="-0.38549999999999995">0.4</text></g><g fill-opacity="1.0" font-size="5.0e-2" stroke="none" stroke-width="0.0" fill="#808080" text-anchor="end"><text x="-7.6575e-2" y="-0.48550000000000004">0.5</text></g><g fill-opacity="1.0" font-size="5.0e-2" stroke="none" stroke-width="0.0" fill="#808080" text-anchor="end"><text x="-7.6575e-2" y="-0.5855000000000001">0.6</text></g><g fill-opacity="1.0" font-size="5.0e-2" stroke="none" stroke-width="0.0" fill="#808080" text-anchor="end"><text x="-7.6575e-2" y="-0.6855000000000002">0.7</text></g><g fill-opacity="1.0" font-size="5.0e-2" stroke="none" stroke-width="0.0" fill="#808080" text-anchor="end"><text x="-7.6575e-2" y="-0.7855000000000001">0.8</text></g><g fill-opacity="1.0" font-size="5.0e-2" stroke="none" stroke-width="0.0" fill="#808080" text-anchor="end"><text x="-7.6575e-2" y="-0.8855">0.9</text></g><g fill-opacity="1.0" font-size="5.0e-2" stroke="none" stroke-width="0.0" fill="#808080" text-anchor="end"><text x="-7.6575e-2" y="-0.9855">1</text></g><g stroke-opacity="1.0" fill-opacity="1.0" stroke="#808080" stroke-width="5.0e-3" fill="#808080"><g transform="rotate(-90.0, -4.4e-2, -0.0)"><polyline points="-4.4e-2,1.5e-2
-4.4e-2,-1.5e-2"/></g><g transform="rotate(-90.0, -4.4e-2, -0.1)"><polyline points="-4.4e-2,-8.5e-2
-4.4e-2,-0.115"/></g><g transform="rotate(-90.0, -4.4e-2, -0.20000000000000007)"><polyline points="-4.4e-2,-0.18500000000000005
-4.4e-2,-0.21500000000000008"/></g><g transform="rotate(-90.0, -4.4e-2, -0.30000000000000004)"><polyline points="-4.4e-2,-0.28500000000000003
-4.4e-2,-0.31500000000000006"/></g><g transform="rotate(-90.0, -4.4e-2, -0.4)"><polyline points="-4.4e-2,-0.385
-4.4e-2,-0.41500000000000004"/></g><g transform="rotate(-90.0, -4.4e-2, -0.5)"><polyline points="-4.4e-2,-0.485
-4.4e-2,-0.515"/></g><g transform="rotate(-90.0, -4.4e-2, -0.6000000000000001)"><polyline points="-4.4e-2,-0.5850000000000001
-4.4e-2,-0.6150000000000001"/></g><g transform="rotate(-90.0, -4.4e-2, -0.7000000000000001)"><polyline points="-4.4e-2,-0.685
-4.4e-2,-0.7150000000000001"/></g><g transform="rotate(-90.0, -4.4e-2, -0.8000000000000002)"><polyline points="-4.4e-2,-0.7850000000000001
-4.4e-2,-0.8150000000000002"/></g><g transform="rotate(-90.0, -4.4e-2, -0.8999999999999999)"><polyline points="-4.4e-2,-0.8849999999999999
-4.4e-2,-0.9149999999999999"/></g><g transform="rotate(-90.0, -4.4e-2, -1.0)"><polyline points="-4.4e-2,-0.985
-4.4e-2,-1.015"/></g></g><g stroke-opacity="1.0" fill-opacity="1.0" stroke="#808080" stroke-width="0.0" fill="#808080"><rect height="1.0" width="4.9999999999999975e-3" x="-3.15e-2" y="-1.0"/></g><g stroke-opacity="5.0e-2" stroke="#808080" stroke-width="5.0e-3" fill="none"><polyline points="0.0,-0.0
0.0,-1.0"/></g><g stroke-opacity="5.0e-2" stroke="#808080" stroke-width="5.0e-3" fill="none"><polyline points="0.1,-0.0
0.1,-1.0"/></g><g stroke-opacity="5.0e-2" stroke="#808080" stroke-width="5.0e-3" fill="none"><polyline points="0.19999999999999996,-0.0
0.19999999999999996,-1.0"/></g><g stroke-opacity="5.0e-2" stroke="#808080" stroke-width="5.0e-3" fill="none"><polyline points="0.3,-0.0
0.3,-1.0"/></g><g stroke-opacity="5.0e-2" stroke="#808080" stroke-width="5.0e-3" fill="none"><polyline points="0.39999999999999997,-0.0
0.39999999999999997,-1.0"/></g><g stroke-opacity="5.0e-2" stroke="#808080" stroke-width="5.0e-3" fill="none"><polyline points="0.5,-0.0
0.5,-1.0"/></g><g stroke-opacity="5.0e-2" stroke="#808080" stroke-width="5.0e-3" fill="none"><polyline points="0.6000000000000001,-0.0
0.6000000000000001,-1.0"/></g><g stroke-opacity="5.0e-2" stroke="#808080" stroke-width="5.0e-3" fill="none"><polyline points="0.7,-0.0
0.7,-1.0"/></g><g stroke-opacity="5.0e-2" stroke="#808080" stroke-width="5.0e-3" fill="none"><polyline points="0.8,-0.0
0.8,-1.0"/></g><g stroke-opacity="5.0e-2" stroke="#808080" stroke-width="5.0e-3" fill="none"><polyline points="0.8999999999999999,-0.0
0.8999999999999999,-1.0"/></g><g stroke-opacity="5.0e-2" stroke="#808080" stroke-width="5.0e-3" fill="none"><polyline points="1.0,-0.0
1.0,-1.0"/></g><g fill-opacity="1.0" font-size="4.2744827586206895e-2" stroke="none" stroke-width="0.0" fill="#808080" text-anchor="middle"><text x="0.0" y="0.12248999999999999">0</text></g><g fill-opacity="1.0" font-size="4.2744827586206895e-2" stroke="none" stroke-width="0.0" fill="#808080" text-anchor="middle"><text x="0.1" y="0.12248999999999999">0.1</text></g><g fill-opacity="1.0" font-size="4.2744827586206895e-2" stroke="none" stroke-width="0.0" fill="#808080" text-anchor="middle"><text x="0.19999999999999996" y="0.12248999999999999">0.2</text></g><g fill-opacity="1.0" font-size="4.2744827586206895e-2" stroke="none" stroke-width="0.0" fill="#808080" text-anchor="middle"><text x="0.3" y="0.12248999999999999">0.3</text></g><g fill-opacity="1.0" font-size="4.2744827586206895e-2" stroke="none" stroke-width="0.0" fill="#808080" text-anchor="middle"><text x="0.39999999999999997" y="0.12248999999999999">0.4</text></g><g fill-opacity="1.0" font-size="4.2744827586206895e-2" stroke="none" stroke-width="0.0" fill="#808080" text-anchor="middle"><text x="0.5" y="0.12248999999999999">0.5</text></g><g fill-opacity="1.0" font-size="4.2744827586206895e-2" stroke="none" stroke-width="0.0" fill="#808080" text-anchor="middle"><text x="0.6000000000000001" y="0.12248999999999999">0.6</text></g><g fill-opacity="1.0" font-size="4.2744827586206895e-2" stroke="none" stroke-width="0.0" fill="#808080" text-anchor="middle"><text x="0.7" y="0.12248999999999999">0.7</text></g><g fill-opacity="1.0" font-size="4.2744827586206895e-2" stroke="none" stroke-width="0.0" fill="#808080" text-anchor="middle"><text x="0.8" y="0.12248999999999999">0.8</text></g><g fill-opacity="1.0" font-size="4.2744827586206895e-2" stroke="none" stroke-width="0.0" fill="#808080" text-anchor="middle"><text x="0.8999999999999999" y="0.12248999999999999">0.9</text></g><g fill-opacity="1.0" font-size="4.2744827586206895e-2" stroke="none" stroke-width="0.0" fill="#808080" text-anchor="middle"><text x="1.0" y="0.12248999999999999">1</text></g><g stroke-opacity="1.0" fill-opacity="1.0" stroke="#808080" stroke-width="5.0e-3" fill="#808080"><polyline points="0.0,5.9e-2
0.0,2.8999999999999998e-2"/><polyline points="0.1,5.9e-2
0.1,2.8999999999999998e-2"/><polyline points="0.19999999999999996,5.9e-2
0.19999999999999996,2.8999999999999998e-2"/><polyline points="0.3,5.9e-2
0.3,2.8999999999999998e-2"/><polyline points="0.39999999999999997,5.9e-2
0.39999999999999997,2.8999999999999998e-2"/><polyline points="0.5,5.9e-2
0.5,2.8999999999999998e-2"/><polyline points="0.6000000000000001,5.9e-2
0.6000000000000001,2.8999999999999998e-2"/><polyline points="0.7,5.9e-2
0.7,2.8999999999999998e-2"/><polyline points="0.8,5.9e-2
0.8,2.8999999999999998e-2"/><polyline points="0.8999999999999999,5.9e-2
0.8999999999999999,2.8999999999999998e-2"/><polyline points="1.0,5.9e-2
1.0,2.8999999999999998e-2"/></g><g stroke-opacity="1.0" fill-opacity="1.0" stroke="#808080" stroke-width="0.0" fill="#808080"><rect height="5.0000000000000044e-3" width="1.0" x="0.0" y="2.6499999999999982e-2"/></g><g stroke-opacity="0.0" fill-opacity="0.1" stroke="#000000" stroke-width="1.0e-2" fill="#e31a1c"><path d="M 0.0,0.0 Q 1.0,0.0 1.0,-1.0 L 0.0,0.0"/></g><g stroke-opacity="1.0" stroke="#1f78b4" stroke-width="2.0e-3" fill="none"><polyline points="0.0,-0.0
1.99e-2,-1.0000000000001674e-4
3.9599999999999996e-2,-3.999999999999976e-4
5.9099999999999986e-2,-8.99999999999998e-4
7.84e-2,-1.6000000000000042e-3
9.75e-2,-2.500000000000016e-3
0.1164,-3.599999999999992e-3
0.1351,-4.899999999999988e-3
0.15359999999999996,-6.399999999999989e-3
0.1719,-8.099999999999996e-3
0.19,-1.0000000000000009e-2
0.20790000000000003,-1.21e-2
0.22559999999999997,-1.4399999999999996e-2
0.24310000000000004,-1.69e-2
0.2604,-1.9600000000000006e-2
0.27749999999999997,-2.2499999999999992e-2
0.2944,-2.560000000000001e-2
0.31109999999999993,-2.8900000000000037e-2
0.3276,-3.2399999999999984e-2
0.34390000000000004,-3.610000000000002e-2
0.3600000000000001,-4.000000000000001e-2
0.3758999999999999,-4.41e-2
0.3916,-4.84e-2
0.4071,-5.290000000000003e-2
0.42239999999999994,-5.7599999999999985e-2
0.43750000000000006,-6.25e-2
0.45239999999999997,-6.76e-2
0.4671,-7.290000000000005e-2
0.4816000000000001,-7.840000000000003e-2
0.49589999999999984,-8.410000000000001e-2
0.51,-9.0e-2
0.5238999999999998,-9.610000000000002e-2
0.5375999999999999,-0.10239999999999999
0.5510999999999999,-0.10890000000000002
0.5644,-0.11560000000000004
0.5774999999999999,-0.12250000000000003
0.5904,-0.1296
0.6031,-0.13690000000000002
0.6155999999999999,-0.14439999999999997
0.6278999999999999,-0.1521
0.6399999999999999,-0.16000000000000003
0.6518999999999999,-0.16810000000000003
0.6636,-0.1764
0.6751,-0.18489999999999995
0.6864000000000001,-0.1936
0.6975,-0.20250000000000007
0.7084000000000001,-0.21160000000000007
0.7191000000000001,-0.22090000000000004
0.7296,-0.2304
0.7399,-0.24009999999999998
0.75,-0.25
0.7599,-0.2601
0.7696000000000001,-0.27040000000000003
0.7790999999999999,-0.2809000000000001
0.7884,-0.2916
0.7975000000000001,-0.30250000000000005
0.8064,-0.31360000000000005
0.8150999999999999,-0.32490000000000013
0.8235999999999999,-0.3364
0.8318999999999999,-0.3481
0.8399999999999999,-0.36000000000000004
0.8478999999999999,-0.37210000000000004
0.8555999999999999,-0.3844000000000001
0.8631,-0.39690000000000003
0.8704000000000001,-0.40959999999999996
0.8775,-0.4225000000000001
0.8844000000000001,-0.4356
0.8911,-0.4489000000000002
0.8976,-0.46240000000000014
0.9038999999999999,-0.4761000000000001
0.9099999999999999,-0.4900000000000001
0.9158999999999999,-0.5041
0.9216,-0.5184000000000001
0.9270999999999998,-0.5328999999999999
0.9323999999999999,-0.5476
0.9375,-0.5625
0.9423999999999999,-0.5776
0.9470999999999998,-0.5929000000000001
0.9516,-0.6084000000000002
0.9559,-0.6241000000000001
0.96,-0.6400000000000001
0.9639,-0.6561000000000001
0.9676,-0.6724000000000001
0.9710999999999999,-0.6889000000000001
0.9743999999999999,-0.7055999999999999
0.9774999999999998,-0.7224999999999999
0.9803999999999999,-0.7395999999999999
0.9831000000000001,-0.7569
0.9856,-0.7744
0.9879,-0.7921
0.99,-0.81
0.9919,-0.8281000000000002
0.9936,-0.8464
0.9951000000000001,-0.8649000000000001
0.9964,-0.8836000000000002
0.9974999999999998,-0.9025000000000001
0.9984,-0.9216
0.9990999999999999,-0.9409000000000001
0.9995999999999998,-0.9603999999999999
0.9999,-0.9801
1.0,-1.0"/></g><g stroke-opacity="0.8" fill-opacity="0.3" stroke="#1f78b4" stroke-width="3.0e-3" fill="#a6cee3"><rect height="3.0e-2" width="3.0e-2" x="-1.5e-2" y="-1.5e-2"/><rect height="2.9999999999999916e-2" width="2.9999999999999916e-2" x="0.985" y="-1.015"/><rect height="3.0e-2" width="2.9999999999999916e-2" x="0.985" y="-1.5e-2"/></g><g stroke-opacity="1.0" fill-opacity="0.1" stroke="#808080" stroke-width="2.0e-3" fill="#6666cc"><rect height="1.0" width="1.0" x="0.0" y="-1.0"/></g></svg>