<svg width="332.5498942989464" xmlns:xlink="http://www.w3.org/1999/xlink" xmlns="http://www.w3.org/2000/svg" viewBox="-0.6823211801526162 -0.5833034558344269 1.2811423603052323 1.1557444903171854" height="300.0"><style>svg {
  color-scheme: light dark;
}
@media (prefers-color-scheme:light) {
  svg {
    background-color: #0d0d0d;
  }
}</style><g stroke-opacity="0.0" fill="#f0f0f0" stroke="#000000" stroke-width="0.0" fill-opacity="5.0e-2"><rect width="0.9912594250674862" x="-0.45893824491487023" y="-0.5" height="0.8928651148670972"/></g><g stroke-opacity="5.0e-2" fill="none" stroke="#f0f0f0" stroke-width="5.0e-3"><polyline points="-0.45893824491487023,0.39286511486709713
0.532321180152616,0.39286511486709713"/></g><g stroke-opacity="5.0e-2" fill="none" stroke="#f0f0f0" stroke-width="5.0e-3"><polyline points="-0.45893824491487023,0.30357860338038745
0.532321180152616,0.30357860338038745"/></g><g stroke-opacity="5.0e-2" fill="none" stroke="#f0f0f0" stroke-width="5.0e-3"><polyline points="-0.45893824491487023,0.2142920918936777
0.532321180152616,0.2142920918936777"/></g><g stroke-opacity="5.0e-2" fill="none" stroke="#f0f0f0" stroke-width="5.0e-3"><polyline points="-0.45893824491487023,0.12500558040696802
0.532321180152616,0.12500558040696802"/></g><g stroke-opacity="5.0e-2" fill="none" stroke="#f0f0f0" stroke-width="5.0e-3"><polyline points="-0.45893824491487023,3.5719068920258334e-2
0.532321180152616,3.5719068920258334e-2"/></g><g stroke-opacity="5.0e-2" fill="none" stroke="#f0f0f0" stroke-width="5.0e-3"><polyline points="-0.45893824491487023,-5.3567442566451406e-2
0.532321180152616,-5.3567442566451406e-2"/></g><g stroke-opacity="5.0e-2" fill="none" stroke="#f0f0f0" stroke-width="5.0e-3"><polyline points="-0.45893824491487023,-0.14285395405316115
0.532321180152616,-0.14285395405316115"/></g><g stroke-opacity="5.0e-2" fill="none" stroke="#f0f0f0" stroke-width="5.0e-3"><polyline points="-0.45893824491487023,-0.2321404655398709
0.532321180152616,-0.2321404655398709"/></g><g stroke-opacity="5.0e-2" fill="none" stroke="#f0f0f0" stroke-width="5.0e-3"><polyline points="-0.45893824491487023,-0.3214269770265804
0.532321180152616,-0.3214269770265804"/></g><g stroke-opacity="5.0e-2" fill="none" stroke="#f0f0f0" stroke-width="5.0e-3"><polyline points="-0.45893824491487023,-0.41071348851329004
0.532321180152616,-0.41071348851329004"/></g><g stroke-opacity="5.0e-2" fill="none" stroke="#f0f0f0" stroke-width="5.0e-3"><polyline points="-0.45893824491487023,-0.5
0.532321180152616,-0.5"/></g><g fill="#f0f0f0" stroke="none" stroke-width="0.0" font-size="5.0e-2" fill-opacity="1.0" text-anchor="end"><text x="-0.5323211801526162" y="0.4058116590326699">-1</text></g><g fill="#f0f0f0" stroke="none" stroke-width="0.0" font-size="5.0e-2" fill-opacity="1.0" text-anchor="end"><text x="-0.5323211801526162" y="0.31652514754596034">-0.8</text></g><g fill="#f0f0f0" stroke="none" stroke-width="0.0" font-size="5.0e-2" fill-opacity="1.0" text-anchor="end"><text x="-0.5323211801526162" y="0.2272386360592506">-0.6</text></g><g fill="#f0f0f0" stroke="none" stroke-width="0.0" font-size="5.0e-2" fill-opacity="1.0" text-anchor="end"><text x="-0.5323211801526162" y="0.1379521245725409">-0.4</text></g><g fill="#f0f0f0" stroke="none" stroke-width="0.0" font-size="5.0e-2" fill-opacity="1.0" text-anchor="end"><text x="-0.5323211801526162" y="4.866561308583123e-2">-0.2</text></g><g fill="#f0f0f0" stroke="none" stroke-width="0.0" font-size="5.0e-2" fill-opacity="1.0" text-anchor="end"><text x="-0.5323211801526162" y="-4.062089840087857e-2">0</text></g><g fill="#f0f0f0" stroke="none" stroke-width="0.0" font-size="5.0e-2" fill-opacity="1.0" text-anchor="end"><text x="-0.5323211801526162" y="-0.1299074098875883">0.2</text></g><g fill="#f0f0f0" stroke="none" stroke-width="0.0" font-size="5.0e-2" fill-opacity="1.0" text-anchor="end"><text x="-0.5323211801526162" y="-0.21919392137429783">0.4</text></g><g fill="#f0f0f0" stroke="none" stroke-width="0.0" font-size="5.0e-2" fill-opacity="1.0" text-anchor="end"><text x="-0.5323211801526162" y="-0.30848043286100757">0.6</text></g><g fill="#f0f0f0" stroke="none" stroke-width="0.0" font-size="5.0e-2" fill-opacity="1.0" text-anchor="end"><text x="-0.5323211801526162" y="-0.3977669443477173">0.8</text></g><g fill="#f0f0f0" stroke="none" stroke-width="0.0" font-size="5.0e-2" fill-opacity="1.0" text-anchor="end"><text x="-0.5323211801526162" y="-0.48705345583442683">1</text></g><g stroke-opacity="0.4" fill="#f0f0f0" stroke="#f0f0f0" stroke-width="2.0e-3" fill-opacity="0.4"><g transform="rotate(-90.0, -0.5015624001927721, 0.39286511486709713)"><polyline points="-0.5015624001927721,0.40786511486709714
-0.5015624001927721,0.3778651148670971"/></g><g transform="rotate(-90.0, -0.5015624001927721, 0.30357860338038745)"><polyline points="-0.5015624001927721,0.31857860338038746
-0.5015624001927721,0.28857860338038743"/></g><g transform="rotate(-90.0, -0.5015624001927721, 0.2142920918936777)"><polyline points="-0.5015624001927721,0.22929209189367772
-0.5015624001927721,0.1992920918936777"/></g><g transform="rotate(-90.0, -0.5015624001927721, 0.12500558040696802)"><polyline points="-0.5015624001927721,0.14000558040696803
-0.5015624001927721,0.11000558040696802"/></g><g transform="rotate(-90.0, -0.5015624001927721, 3.5719068920258334e-2)"><polyline points="-0.5015624001927721,5.0719068920258334e-2
-0.5015624001927721,2.0719068920258335e-2"/></g><g transform="rotate(-90.0, -0.5015624001927721, -5.3567442566451406e-2)"><polyline points="-0.5015624001927721,-3.856744256645141e-2
-0.5015624001927721,-6.85674425664514e-2"/></g><g transform="rotate(-90.0, -0.5015624001927721, -0.14285395405316115)"><polyline points="-0.5015624001927721,-0.12785395405316113
-0.5015624001927721,-0.15785395405316116"/></g><g transform="rotate(-90.0, -0.5015624001927721, -0.2321404655398709)"><polyline points="-0.5015624001927721,-0.21714046553987087
-0.5015624001927721,-0.2471404655398709"/></g><g transform="rotate(-90.0, -0.5015624001927721, -0.3214269770265804)"><polyline points="-0.5015624001927721,-0.3064269770265804
-0.5015624001927721,-0.3364269770265804"/></g><g transform="rotate(-90.0, -0.5015624001927721, -0.41071348851329004)"><polyline points="-0.5015624001927721,-0.39571348851329
-0.5015624001927721,-0.42571348851329005"/></g><g transform="rotate(-90.0, -0.5015624001927721, -0.5)"><polyline points="-0.5015624001927721,-0.485
-0.5015624001927721,-0.515"/></g></g><g stroke-opacity="0.0" fill="#f0f0f0" stroke="#000000" stroke-width="0.0" fill-opacity="0.4"><rect width="3.965037700269958e-3" x="-0.4891716573794286" y="-0.5" height="0.8928651148670972"/></g><g stroke-opacity="5.0e-2" fill="none" stroke="#f0f0f0" stroke-width="5.0e-3"><polyline points="-0.45893824491487023,0.39286511486709713
-0.45893824491487023,-0.5"/></g><g stroke-opacity="5.0e-2" fill="none" stroke="#f0f0f0" stroke-width="5.0e-3"><polyline points="-0.35981230240812156,0.39286511486709713
-0.35981230240812156,-0.5"/></g><g stroke-opacity="5.0e-2" fill="none" stroke="#f0f0f0" stroke-width="5.0e-3"><polyline points="-0.26068635990137295,0.39286511486709713
-0.26068635990137295,-0.5"/></g><g stroke-opacity="5.0e-2" fill="none" stroke="#f0f0f0" stroke-width="5.0e-3"><polyline points="-0.16156041739462423,0.39286511486709713
-0.16156041739462423,-0.5"/></g><g stroke-opacity="5.0e-2" fill="none" stroke="#f0f0f0" stroke-width="5.0e-3"><polyline points="-6.2434474887875624e-2,0.39286511486709713
-6.2434474887875624e-2,-0.5"/></g><g stroke-opacity="5.0e-2" fill="none" stroke="#f0f0f0" stroke-width="5.0e-3"><polyline points="3.6691467618872986e-2,0.39286511486709713
3.6691467618872986e-2,-0.5"/></g><g stroke-opacity="5.0e-2" fill="none" stroke="#f0f0f0" stroke-width="5.0e-3"><polyline points="0.13581741012562165,0.39286511486709713
0.13581741012562165,-0.5"/></g><g stroke-opacity="5.0e-2" fill="none" stroke="#f0f0f0" stroke-width="5.0e-3"><polyline points="0.23494335263237032,0.39286511486709713
0.23494335263237032,-0.5"/></g><g stroke-opacity="5.0e-2" fill="none" stroke="#f0f0f0" stroke-width="5.0e-3"><polyline points="0.334069295139119,0.39286511486709713
0.334069295139119,-0.5"/></g><g stroke-opacity="5.0e-2" fill="none" stroke="#f0f0f0" stroke-width="5.0e-3"><polyline points="0.43319523764586754,0.39286511486709713
0.43319523764586754,-0.5"/></g><g stroke-opacity="5.0e-2" fill="none" stroke="#f0f0f0" stroke-width="5.0e-3"><polyline points="0.532321180152616,0.39286511486709713
0.532321180152616,-0.5"/></g><g fill="#f0f0f0" stroke="none" stroke-width="0.0" font-size="4.274482758620691e-2" fill-opacity="1.0" text-anchor="middle"><text x="-0.45893824491487023" y="0.5">0</text></g><g fill="#f0f0f0" stroke="none" stroke-width="0.0" font-size="4.274482758620691e-2" fill-opacity="1.0" text-anchor="middle"><text x="-0.35981230240812156" y="0.5">0.2</text></g><g fill="#f0f0f0" stroke="none" stroke-width="0.0" font-size="4.274482758620691e-2" fill-opacity="1.0" text-anchor="middle"><text x="-0.26068635990137295" y="0.5">0.4</text></g><g fill="#f0f0f0" stroke="none" stroke-width="0.0" font-size="4.274482758620691e-2" fill-opacity="1.0" text-anchor="middle"><text x="-0.16156041739462423" y="0.5">0.6</text></g><g fill="#f0f0f0" stroke="none" stroke-width="0.0" font-size="4.274482758620691e-2" fill-opacity="1.0" text-anchor="middle"><text x="-6.2434474887875624e-2" y="0.5">0.8</text></g><g fill="#f0f0f0" stroke="none" stroke-width="0.0" font-size="4.274482758620691e-2" fill-opacity="1.0" text-anchor="middle"><text x="3.6691467618872986e-2" y="0.5">1</text></g><g fill="#f0f0f0" stroke="none" stroke-width="0.0" font-size="4.274482758620691e-2" fill-opacity="1.0" text-anchor="middle"><text x="0.13581741012562165" y="0.5">1.2</text></g><g fill="#f0f0f0" stroke="none" stroke-width="0.0" font-size="4.274482758620691e-2" fill-opacity="1.0" text-anchor="middle"><text x="0.23494335263237032" y="0.5">1.4</text></g><g fill="#f0f0f0" stroke="none" stroke-width="0.0" font-size="4.274482758620691e-2" fill-opacity="1.0" text-anchor="middle"><text x="0.334069295139119" y="0.5">1.6</text></g><g fill="#f0f0f0" stroke="none" stroke-width="0.0" font-size="4.274482758620691e-2" fill-opacity="1.0" text-anchor="middle"><text x="0.43319523764586754" y="0.5">1.8</text></g><g fill="#f0f0f0" stroke="none" stroke-width="0.0" font-size="4.274482758620691e-2" fill-opacity="1.0" text-anchor="middle"><text x="0.532321180152616" y="0.5">2</text></g><g stroke-opacity="0.4" fill="#f0f0f0" stroke="#f0f0f0" stroke-width="2.0e-3" fill-opacity="0.4"><polyline points="-0.45893824491487023,0.44625831480638223
-0.45893824491487023,0.4162583148063822"/><polyline points="-0.35981230240812156,0.44625831480638223
-0.35981230240812156,0.4162583148063822"/><polyline points="-0.26068635990137295,0.44625831480638223
-0.26068635990137295,0.4162583148063822"/><polyline points="-0.16156041739462423,0.44625831480638223
-0.16156041739462423,0.4162583148063822"/><polyline points="-6.2434474887875624e-2,0.44625831480638223
-6.2434474887875624e-2,0.4162583148063822"/><polyline points="3.6691467618872986e-2,0.44625831480638223
3.6691467618872986e-2,0.4162583148063822"/><polyline points="0.13581741012562165,0.44625831480638223
0.13581741012562165,0.4162583148063822"/><polyline points="0.23494335263237032,0.44625831480638223
0.23494335263237032,0.4162583148063822"/><polyline points="0.334069295139119,0.44625831480638223
0.334069295139119,0.4162583148063822"/><polyline points="0.43319523764586754,0.44625831480638223
0.43319523764586754,0.4162583148063822"/><polyline points="0.532321180152616,0.44625831480638223
0.532321180152616,0.4162583148063822"/></g><g stroke-opacity="0.0" fill="#f0f0f0" stroke="#000000" stroke-width="0.0" fill-opacity="0.4"><rect width="0.9912594250674862" x="-0.45893824491487023" y="0.41652604041107516" height="3.5714604594683785e-3"/></g><g stroke-opacity="0.0" fill="#1f78b5" stroke="#000000" stroke-width="1.0e-2" fill-opacity="0.1"><path d="M -0.4589,-0.0536 Q 0.5323,0.3929 0.0367,-0.5"/></g><g stroke-opacity="1.0" fill="none" stroke="#a6cfe3" stroke-width="2.0e-3"><polyline points="-0.45893824491487023,-5.3567442566451406e-2
-0.43926174532728063,-4.477272118501041e-2
-0.41988262356721123,-3.624585933802971e-2
-0.40080087963466215,-2.798685702550907e-2
-0.3820165135296333,-1.9995714247448615e-2
-0.3635295252521247,-1.2272431003848006e-2
-0.3453399148021363,-4.817007294707909e-3
-0.32744768217966813,2.3705568799722854e-3
-0.3098528273847203,9.2902615201923e-3
-0.29255535041729264,1.5942106625952135e-2
-0.2755552512773852,2.23260921972519e-2
-0.2588525299649981,2.8442218234091488e-2
-0.2424471864801313,3.4290484736470894e-2
-0.22633922082278457,3.98708917043904e-2
-0.2105286329929581,4.518343913784956e-2
-0.195015422990652,5.022812703684876e-2
-0.17979959081586616,5.500495540138767e-2
-0.16488113646860036,5.9513924231466564e-2
-0.15026005994885494,6.375503352708523e-2
-0.13593636125662983,6.772828328824382e-2
-0.12191004039192482,7.143367351494223e-2
-0.10818109735474019,7.487120420718058e-2
-9.474953214507575e-2,7.804087536495868e-2
-8.161534476293142e-2,8.094268698827678e-2
-6.877853520830757e-2,8.35766390771347e-2
-5.623910348120387e-2,8.59427316315326e-2
-4.399704958162032e-2,8.804096465147021e-2
-3.205237350955725e-2,8.98713381369477e-2
-2.0405075265014228e-2,9.143385208796523e-2
-9.055154847991576e-3,9.272850650452247e-2
1.9973877415109254e-3,9.375530138661958e-2
1.2752552503493053e-2,9.451423673425657e-2
2.321033943795514e-2,9.50053125474336e-2
3.3370748544896855e-2,9.52285288261503e-2
4.323377982431842e-2,9.518388557040697e-2
5.279943327621961e-2,9.487138278020352e-2
6.206770890060065e-2,9.429102045553983e-2
7.103860669746143e-2,9.344279859641613e-2
7.971212666680183e-2,9.232671720283225e-2
8.80882688086222e-2,9.094277627478825e-2
9.616703312292219e-2,8.929097581228418e-2
0.10394841960970191,8.737131581531987e-2
0.11143242826896149,8.51837962838955e-2
0.1186190591007007,8.2728417218011e-2
0.12550831210491997,8.000517861766637e-2
0.13210018728161854,7.701408048286157e-2
0.13839468463079718,7.37551228135967e-2
0.14439180415245545,7.022830560987159e-2
0.15009154584659323,6.643362887168641e-2
0.1554939097132113,6.237109259904122e-2
0.1605988957523089,5.804069679193574e-2
0.16540650396388623,5.344244145037025e-2
0.1699167343479432,4.8576326574344464e-2
0.17412958690448,4.344235216385878e-2
0.17804506163349665,3.80405182189128e-2
0.18166315853499282,3.23708247395067e-2
0.18498387760896895,2.6433271725640528e-2
0.1880072188554247,2.0227859177314234e-2
0.19073318227436042,1.375458709452776e-2
0.19316176786577566,7.013455477281272e-3
0.19529297562967074,4.464325574382588e-6
0.19712680556604556,-7.272386360592353e-3
0.19866325767490034,-1.4817096581219436e-2
0.19990233195623452,-2.2629666336306475e-2
0.20084402841004867,-3.0710095625853695e-2
0.20148834703634255,-3.9058384449861094e-2
0.20183528783511606,-4.767453280832845e-2
0.20188485080636953,-5.655854070125621e-2
0.20163703595010274,-6.571040812864393e-2
0.20109184326631557,-7.513013509049193e-2
0.20024927275500815,-8.48177215867999e-2
0.19910932441618068,-9.477316761756782e-2
0.19767199824983284,-0.10499647318279604
0.19593729425596462,-0.11548763828248454
0.19390521243457637,-0.126246662916633
0.19157575278566785,-0.13727354708524175
0.18894891530923896,-0.14856829078831058
0.1860247000052898,-0.16013089402583935
0.1828031068738204,-0.17196135679782854
0.17928413591483094,-0.18405967910427745
0.17546778712832112,-0.196425860945187
0.17135406051429092,-0.2090599023205565
0.16694295607274057,-0.22196180323038595
0.16223447380367007,-0.23513156367467558
0.1572286137070792,-0.24856918365342529
0.15192537578296827,-0.26227466316663517
0.1463247600313371,-0.27624800221430523
0.14042676645218544,-0.2904892007964356
0.13423139504551374,-0.3049982589130259
0.12773864581132155,-0.3197751765640764
0.12094851874960932,-0.33481995374958695
0.11386101386037684,-0.3501325904695577
0.10647613114362398,-0.3657130867239884
9.879387059935085e-2,-0.3815614425128795
9.08142322275578e-2,-0.39767765783623066
8.253721602824415e-2,-0.4140617326940419
7.396282200141058e-2,-0.430713667086313
6.509105014705663e-2,-0.4476334610130446
5.5921900465182195e-2,-0.46482111447423624
4.645537295578761e-2,-0.482276627469888
3.6691467618872986e-2,-0.5"/></g><g stroke-opacity="1.0" fill="#a6cfe3" stroke="#1f78b5" stroke-width="3.0e-3" fill-opacity="1.0"><rect width="3.0000000000000027e-2" x="-0.47393824491487024" y="-6.85674425664514e-2" height="3.0e-2"/><rect width="3.0e-2" x="2.1691467618872987e-2" y="-0.515" height="3.0000000000000027e-2"/><rect width="3.0000000000000027e-2" x="0.517321180152616" y="0.3778651148670971" height="3.0000000000000027e-2"/></g><g stroke-opacity="1.0" fill="#6666cc" stroke="#808080" stroke-width="2.0e-3" fill-opacity="0.1"><rect width="0.6608396167116576" x="-0.45893824491487023" y="-0.5" height="0.5952434099113981"/></g><g></g></svg>