<svg width="443.77654495979675" xmlns:xlink="http://www.w3.org/1999/xlink" xmlns="http://www.w3.org/2000/svg" viewBox="-0.7700000000000001 -0.52 1.54 1.041064484473496" height="300.0"><style>svg {
  color-scheme: light dark;
}
@media (prefers-color-scheme:dark) {
  svg {
    background-color: #f0f0f0;
  }
}</style><g stroke-opacity="0.0" fill="#0d0d0d" stroke="#000000" stroke-width="0.0" fill-opacity="0.4"><rect width="1.4709046454767725" x="-0.7299511002444988" y="0.41609977324263037" height="3.6281179138322184e-3"/></g><g stroke-opacity="0.4" fill="#0d0d0d" stroke="#0d0d0d" stroke-width="4.0e-3" fill-opacity="0.4"><polyline points="-0.7279951100244499,0.44924036281179136
-0.7279951100244499,0.41924036281179133"/><polyline points="-0.5812958435207825,0.44924036281179136
-0.5812958435207825,0.41924036281179133"/><polyline points="-0.4345965770171149,0.44924036281179136
-0.4345965770171149,0.41924036281179133"/><polyline points="-0.28789731051344736,0.44924036281179136
-0.28789731051344736,0.41924036281179133"/><polyline points="-0.14119804400977987,0.44924036281179136
-0.14119804400977987,0.41924036281179133"/><polyline points="5.501222493887514e-3,0.44924036281179136
5.501222493887514e-3,0.41924036281179133"/><polyline points="0.15220048899755523,0.44924036281179136
0.15220048899755523,0.41924036281179133"/><polyline points="0.2988997555012225,0.44924036281179136
0.2988997555012225,0.41924036281179133"/><polyline points="0.4455990220048902,0.44924036281179136
0.4455990220048902,0.41924036281179133"/><polyline points="0.5922982885085575,0.44924036281179136
0.5922982885085575,0.41924036281179133"/><polyline points="0.738997555012225,0.44924036281179136
0.738997555012225,0.41924036281179133"/></g><g fill="#0d0d0d" stroke="none" stroke-width="0.0" font-size="4.88997555012225e-2" fill-opacity="1.0" text-anchor="middle"><text x="-0.7279951100244499" y="0.48639455782312924">-5</text><text x="-0.5812958435207825" y="0.48639455782312924">-4</text><text x="-0.4345965770171149" y="0.48639455782312924">-3</text><text x="-0.28789731051344736" y="0.48639455782312924">-2</text><text x="-0.14119804400977987" y="0.48639455782312924">-1</text><text x="5.501222493887514e-3" y="0.48639455782312924">0</text><text x="0.15220048899755523" y="0.48639455782312924">1</text><text x="0.2988997555012225" y="0.48639455782312924">2</text><text x="0.4455990220048902" y="0.48639455782312924">3</text><text x="0.5922982885085575" y="0.48639455782312924">4</text><text x="0.738997555012225" y="0.48639455782312924">5</text></g><g stroke-opacity="0.0" fill="#e31a1c" stroke="#000000" stroke-width="0.0" fill-opacity="0.3"><rect width="2.933985330073341e-2" x="-0.7279951100244499" y="0.4070239054763235" height="5.572981726376103e-6"/><rect width="2.933985330073341e-2" x="-0.6986552567237164" y="0.4070149235213286" height="1.4554936721256073e-5"/><rect width="2.933985330073341e-2" x="-0.6693154034229829" y="0.4069929558952092" height="3.652256284070177e-5"/><rect width="2.933985330073341e-2" x="-0.6399755501222495" y="0.40694142622201956" height="8.805223603031154e-5"/><rect width="2.933985330073352e-2" x="-0.610635696821516" y="0.40682551716627763" height="2.0396129177224775e-4"/><rect width="2.933985330073352e-2" x="-0.5812958435207825" y="0.4065755542553826" height="4.539242026672663e-4"/><rect width="2.933985330073352e-2" x="-0.5519559902200489" y="0.40605886312957856" height="9.706153284713137e-4"/><rect width="2.9339853300733576e-2" x="-0.5226161369193154" y="0.4050354140924784" height="1.9940643655714796e-3"/><rect width="2.9339853300733576e-2" x="-0.49327628361858195" y="0.4030934392102141" height="3.936039247835754e-3"/><rect width="2.933985330073352e-2" x="-0.4639364303178484" y="0.39956485528433555" height="7.464623173714324e-3"/><rect width="2.933985330073352e-2" x="-0.4345965770171149" y="0.39342804823539435" height="1.360143022265553e-2"/><rect width="2.933985330073352e-2" x="-0.4052567237163814" y="0.38321782860255055" height="2.381164985549933e-2"/><rect width="2.9339853300733576e-2" x="-0.37591687041564786" y="0.3669776250161515" height="4.005185344189838e-2"/><rect width="2.9339853300733576e-2" x="-0.3465770171149145" y="0.3423027033502166" height="6.472677510783326e-2"/><rect width="2.9339853300733576e-2" x="-0.31723716381418093" y="0.3065277475171574" height="0.10050173094089249"/><rect width="2.933985330073352e-2" x="-0.28789731051344736" y="0.2570985140847287" height="0.14993096437332115"/><rect width="2.933985330073341e-2" x="-0.25855745721271384" y="0.1921290170683702" height="0.21490046138967966"/><rect width="2.933985330073363e-2" x="-0.22921760391198043" y="0.11108408650971457" height="0.2959453919483353"/><rect width="2.933985330073352e-2" x="-0.1998777506112469" y="1.545530754731994e-2" height="0.39157417091072994"/><rect width="2.933985330073352e-2" x="-0.1705378973105134" y="-9.075885360002411e-2" height="0.497788332058074"/><rect width="2.933985330073352e-2" x="-0.14119804400977987" y="-0.20097056329763197" height="0.6080000417556819"/><rect width="2.933985330073341e-2" x="-0.11185819070904635" y="-0.30646518010571744" height="0.7134946585637674"/><rect width="2.933985330073363e-2" x="-8.251833740831294e-2" y="-0.3974335026912994" height="0.8044629811493493"/><rect width="2.933985330073352e-2" x="-5.3178484107579305e-2" y="-0.46443486544428414" height="0.871464343902334"/><rect width="2.933985330073352e-2" x="-2.3838630806845784e-2" y="-0.5" height="0.9070294784580499"/><rect width="2.933985330073341e-2" x="5.501222493887514e-3" y="-0.5" height="0.9070294784580499"/><rect width="2.933985330073363e-2" x="3.4841075794620924e-2" y="-0.4644348654442839" height="0.8714643439023337"/><rect width="2.933985330073352e-2" x="6.418092909535456e-2" y="-0.39743350269129907" height="0.8044629811493489"/><rect width="2.933985330073352e-2" x="9.352078239608808e-2" y="-0.306465180105717" height="0.7134946585637669"/><rect width="2.933985330073363e-2" x="0.1228606356968216" y="-0.20097056329763152" height="0.6080000417556815"/><rect width="2.933985330073341e-2" x="0.15220048899755523" y="-9.075885360002389e-2" height="0.49778833205807377"/><rect width="2.933985330073341e-2" x="0.18154034229828864" y="1.5455307547320107e-2" height="0.39157417091072977"/><rect width="2.933985330073363e-2" x="0.21088019559902205" y="0.11108408650971496" height="0.2959453919483349"/><rect width="2.933985330073341e-2" x="0.24022004889975568" y="0.19212901706837054" height="0.21490046138967933"/><rect width="2.933985330073363e-2" x="0.2695599022004891" y="0.25709851408472895" height="0.14993096437332093"/><rect width="2.933985330073341e-2" x="0.2988997555012225" y="0.3065277475171575" height="0.10050173094089238"/><rect width="2.933985330073363e-2" x="0.3282396088019559" y="0.34230270335021673" height="6.472677510783315e-2"/><rect width="2.933985330073363e-2" x="0.35757946210268954" y="0.3669776250161516" height="4.0051853441898266e-2"/><rect width="2.933985330073341e-2" x="0.38691931540342317" y="0.3832178286025506" height="2.3811649855499273e-2"/><rect width="2.933985330073363e-2" x="0.4162591687041566" y="0.3934280482353944" height="1.3601430222655475e-2"/><rect width="2.9339853300733187e-2" x="0.4455990220048902" y="0.39956485528433555" height="7.464623173714324e-3"/><rect width="2.9339853300733854e-2" x="0.4749388753056236" y="0.4030934392102142" height="3.936039247835699e-3"/><rect width="2.933985330073341e-2" x="0.5042787286063573" y="0.4050354140924784" height="1.9940643655714796e-3"/><rect width="2.933985330073341e-2" x="0.5336185819070907" y="0.40605886312957856" height="9.706153284713137e-4"/><rect width="2.933985330073341e-2" x="0.5629584352078241" y="0.4065755542553826" height="4.539242026672663e-4"/><rect width="2.933985330073341e-2" x="0.5922982885085575" y="0.40682551716627763" height="2.0396129177224775e-4"/><rect width="2.9339853300733187e-2" x="0.6216381418092913" y="0.40694142622201956" height="8.805223603031154e-5"/><rect width="2.933985330073341e-2" x="0.6509779951100245" y="0.4069929558952092" height="3.652256284070177e-5"/><rect width="2.9339853300733187e-2" x="0.6803178484107584" y="0.4070149235213286" height="1.4554936721256073e-5"/><rect width="2.933985330073341e-2" x="0.7096577017114916" y="0.4070239054763235" height="5.572981726376103e-6"/></g><g stroke-opacity="0.0" fill="#33a12b" stroke="#000000" stroke-width="0.0" fill-opacity="0.3"><rect width="2.933985330073341e-2" x="-0.7279951100244499" y="0.38436547828682077" height="2.2664000171229104e-2"/><rect width="2.933985330073341e-2" x="-0.6986552567237164" y="0.37821788749749075" height="2.881159096055913e-2"/><rect width="2.933985330073341e-2" x="-0.6693154034229829" y="0.3707672097890061" height="3.626226866904375e-2"/><rect width="2.933985330073341e-2" x="-0.6399755501222495" y="0.36184390927124666" height="4.518556918680322e-2"/><rect width="2.933985330073352e-2" x="-0.610635696821516" y="0.35128503312563325" height="5.5744445332416626e-2"/><rect width="2.933985330073352e-2" x="-0.5812958435207825" y="0.33894305917692735" height="6.808641928112252e-2"/><rect width="2.933985330073352e-2" x="-0.5519559902200489" y="0.32469600333642956" height="8.233347512162031e-2"/><rect width="2.9339853300733576e-2" x="-0.5226161369193154" y="0.3084584124762884" height="9.857106598176146e-2"/><rect width="2.9339853300733576e-2" x="-0.49327628361858195" y="0.2901927157500482" height="0.1168367627080017"/><rect width="2.933985330073352e-2" x="-0.4639364303178484" y="0.26992026728871943" height="0.13710921116933045"/><rect width="2.933985330073352e-2" x="-0.4345965770171149" y="0.24773130192805853" height="0.15929817652999134"/><rect width="2.933985330073352e-2" x="-0.4052567237163814" y="0.22379295978986752" height="0.18323651866818236"/><rect width="2.9339853300733576e-2" x="-0.37591687041564786" y="0.19835453013713183" height="0.20867494832091804"/><rect width="2.9339853300733576e-2" x="-0.3465770171149145" y="0.1717491312227259" height="0.23528034723532398"/><rect width="2.9339853300733576e-2" x="-0.31723716381418093" y="0.14439118642930915" height="0.2626382920287407"/><rect width="2.933985330073352e-2" x="-0.28789731051344736" y="0.11676927613482652" height="0.29026020232322336"/><rect width="2.933985330073341e-2" x="-0.25855745721271384" y="8.943422949290752e-2" height="0.31759524896514235"/><rect width="2.933985330073363e-2" x="-0.22921760391198043" y="6.29826524991024e-2" height="0.3440468259589475"/><rect width="2.933985330073352e-2" x="-0.1998777506112469" y="3.8036442882533106e-2" height="0.36899303557551677"/><rect width="2.933985330073352e-2" x="-0.1705378973105134" y="1.5219187863254213e-2" height="0.39181029059479566"/><rect width="2.933985330073352e-2" x="-0.14119804400977987" y="-4.869355306949541e-3" height="0.4118988337649994"/><rect width="2.933985330073341e-2" x="-0.11185819070904635" y="-2.167926560184097e-2" height="0.42870874405989084"/><rect width="2.933985330073363e-2" x="-8.251833740831294e-2" y="-3.473539060398256e-2" height="0.44176486906203244"/><rect width="2.933985330073352e-2" x="-5.3178484107579305e-2" y="-4.36596329357799e-2" height="0.4506891113938298"/><rect width="2.933985330073352e-2" x="-2.3838630806845784e-2" y="-4.818913380830314e-2" height="0.455218612266353"/><rect width="2.933985330073341e-2" x="5.501222493887514e-3" y="-4.818913380830314e-2" height="0.455218612266353"/><rect width="2.933985330073363e-2" x="3.4841075794620924e-2" y="-4.36596329357799e-2" height="0.4506891113938298"/><rect width="2.933985330073352e-2" x="6.418092909535456e-2" y="-3.473539060398245e-2" height="0.44176486906203233"/><rect width="2.933985330073352e-2" x="9.352078239608808e-2" y="-2.167926560184097e-2" height="0.42870874405989084"/><rect width="2.933985330073363e-2" x="0.1228606356968216" y="-4.86935530694943e-3" height="0.4118988337649993"/><rect width="2.933985330073341e-2" x="0.15220048899755523" y="1.5219187863254213e-2" height="0.39181029059479566"/><rect width="2.933985330073341e-2" x="0.18154034229828864" y="3.803644288253322e-2" height="0.36899303557551666"/><rect width="2.933985330073363e-2" x="0.21088019559902205" y="6.298265249910245e-2" height="0.3440468259589474"/><rect width="2.933985330073341e-2" x="0.24022004889975568" y="8.943422949290764e-2" height="0.31759524896514224"/><rect width="2.933985330073363e-2" x="0.2695599022004891" y="0.11676927613482668" height="0.2902602023232232"/><rect width="2.933985330073341e-2" x="0.2988997555012225" y="0.14439118642930926" height="0.2626382920287406"/><rect width="2.933985330073363e-2" x="0.3282396088019559" y="0.17174913122272595" height="0.23528034723532393"/><rect width="2.933985330073363e-2" x="0.35757946210268954" y="0.19835453013713195" height="0.20867494832091793"/><rect width="2.933985330073341e-2" x="0.38691931540342317" y="0.22379295978986763" height="0.18323651866818225"/><rect width="2.933985330073363e-2" x="0.4162591687041566" y="0.24773130192805864" height="0.15929817652999123"/><rect width="2.9339853300733187e-2" x="0.4455990220048902" y="0.26992026728871943" height="0.13710921116933045"/><rect width="2.9339853300733854e-2" x="0.4749388753056236" y="0.29019271575004835" height="0.11683676270800153"/><rect width="2.933985330073341e-2" x="0.5042787286063573" y="0.30845841247628847" height="9.857106598176141e-2"/><rect width="2.933985330073341e-2" x="0.5336185819070907" y="0.32469600333642956" height="8.233347512162031e-2"/><rect width="2.933985330073341e-2" x="0.5629584352078241" y="0.3389430591769274" height="6.808641928112247e-2"/><rect width="2.933985330073341e-2" x="0.5922982885085575" y="0.3512850331256332" height="5.574444533241668e-2"/><rect width="2.9339853300733187e-2" x="0.6216381418092913" y="0.36184390927124666" height="4.518556918680322e-2"/><rect width="2.933985330073341e-2" x="0.6509779951100245" y="0.3707672097890061" height="3.626226866904375e-2"/><rect width="2.9339853300733187e-2" x="0.6803178484107584" y="0.3782178874974908" height="2.8811590960559075e-2"/><rect width="2.933985330073341e-2" x="0.7096577017114916" y="0.38436547828682077" height="2.2664000171229104e-2"/></g></svg>