<svg viewBox="0.0 -408.0 612.0 408.0" xmlns="http://www.w3.org/2000/svg" xmlns:xlink="http://www.w3.org/1999/xlink" version="1.1" width="600.0" height="400.0"><style type="text/css"> {
  shape-rendering: &quot;crispEdges&quot;;
}
</style><g stroke-width="0.0" stroke="#000000" fill="#5DA5DA" fill-opacity="0.5" stroke-opacity="0.0"><rect width="0.1999999999999993" height="6.113567966371391e-6" x="-5.0" y="-6.113567966371391e-6" /><rect width="0.1999999999999993" height="1.5966783897804717e-5" x="-4.8" y="-1.5966783897804717e-5" /><rect width="0.1999999999999993" height="4.006529739295107e-5" x="-4.6" y="-4.006529739295107e-5" /><rect width="0.1999999999999993" height="9.659341372218367e-5" x="-4.4" y="-9.659341372218367e-5" /><rect width="0.1999999999999993" height="2.2374579372061977e-4" x="-4.2" y="-2.2374579372061977e-4" /><rect width="0.20000000000000018" height="4.979554215032739e-4" x="-4.0" y="-4.979554215032739e-4" /><rect width="0.20000000000000018" height="1.0647662366679216e-3" x="-3.8" y="-1.0647662366679216e-3" /><rect width="0.20000000000000018" height="2.187491118182889e-3" x="-3.5999999999999996" y="-2.187491118182889e-3" /><rect width="0.20000000000000018" height="4.3178400076330815e-3" x="-3.4" y="-4.3178400076330815e-3" /><rect width="0.20000000000000018" height="8.188701014374074e-3" x="-3.2" y="-8.188701014374074e-3" /><rect width="0.20000000000000018" height="1.4920786069067842e-2" x="-3.0" y="-1.4920786069067842e-2" /><rect width="0.20000000000000018" height="2.6121409853918257e-2" x="-2.8" y="-2.6121409853918257e-2" /><rect width="0.20000000000000018" height="4.3936933623407476e-2" x="-2.5999999999999996" y="-4.3936933623407476e-2" /><rect width="0.20000000000000018" height="7.100535373963701e-2" x="-2.4" y="-7.100535373963701e-2" /><rect width="0.20000000000000018" height="0.11025052530448531" x="-2.1999999999999997" y="-0.11025052530448531" /><rect width="0.20000000000000018" height="0.1644744565771549" x="-2.0" y="-0.1644744565771549" /><rect width="0.20000000000000018" height="0.23574607655586363" x="-1.7999999999999998" y="-0.23574607655586363" /><rect width="0.20000000000000018" height="0.32465246735834996" x="-1.5999999999999996" y="-0.32465246735834996" /><rect width="0.20000000000000018" height="0.42955735821073926" x="-1.4" y="-0.42955735821073926" /><rect width="0.20000000000000007" height="0.5460744266397096" x="-1.1999999999999997" y="-0.5460744266397096" /><rect width="0.19999999999999996" height="0.6669768108584744" x="-1.0" y="-0.6669768108584744" /><rect width="0.19999999999999996" height="0.7827045382418683" x="-0.7999999999999998" y="-0.7827045382418683" /><rect width="0.19999999999999996" height="0.8824969025845956" x="-0.5999999999999996" y="-0.8824969025845956" /><rect width="0.19999999999999998" height="0.9559974818331001" x="-0.39999999999999947" y="-0.9559974818331001" /><rect width="0.2" height="0.9950124791926824" x="-0.1999999999999993" y="-0.9950124791926824" /><rect width="0.2" height="0.9950124791926823" y="-0.9950124791926823" /><rect width="0.19999999999999998" height="0.9559974818330998" x="0.20000000000000015" y="-0.9559974818330998" /><rect width="0.19999999999999996" height="0.8824969025845952" x="0.40000000000000036" y="-0.8824969025845952" /><rect width="0.19999999999999996" height="0.7827045382418679" x="0.6000000000000005" y="-0.7827045382418679" /><rect width="0.19999999999999996" height="0.6669768108584739" x="0.8000000000000007" y="-0.6669768108584739" /><rect width="0.20000000000000018" height="0.5460744266397094" x="1.0" y="-0.5460744266397094" /><rect width="0.20000000000000018" height="0.42955735821073904" x="1.2000000000000002" y="-0.42955735821073904" /><rect width="0.20000000000000018" height="0.3246524673583495" x="1.4000000000000004" y="-0.3246524673583495" /><rect width="0.20000000000000018" height="0.2357460765558633" x="1.6000000000000005" y="-0.2357460765558633" /><rect width="0.20000000000000018" height="0.16447445657715465" x="1.8000000000000007" y="-0.16447445657715465" /><rect width="0.20000000000000018" height="0.11025052530448522" x="2.0" y="-0.11025052530448522" /><rect width="0.20000000000000018" height="7.100535373963694e-2" x="2.2" y="-7.100535373963694e-2" /><rect width="0.20000000000000018" height="4.393693362340736e-2" x="2.4000000000000004" y="-4.393693362340736e-2" /><rect width="0.20000000000000018" height="2.6121409853918188e-2" x="2.6000000000000005" y="-2.6121409853918188e-2" /><rect width="0.20000000000000018" height="1.4920786069067802e-2" x="2.8000000000000007" y="-1.4920786069067802e-2" /><rect width="0.20000000000000018" height="8.188701014374074e-3" x="3.0" y="-8.188701014374074e-3" /><rect width="0.20000000000000018" height="4.3178400076330625e-3" x="3.200000000000001" y="-4.3178400076330625e-3" /><rect width="0.20000000000000018" height="2.187491118182881e-3" x="3.4000000000000004" y="-2.187491118182881e-3" /><rect width="0.20000000000000018" height="1.0647662366679216e-3" x="3.5999999999999996" y="-1.0647662366679216e-3" /><rect width="0.20000000000000018" height="4.979554215032722e-4" x="3.8000000000000007" y="-4.979554215032722e-4" /><rect width="0.19999999999999973" height="2.2374579372062055e-4" x="3.9999999999999996" y="-2.2374579372062055e-4" /><rect width="0.1999999999999993" height="9.659341372218367e-5" x="4.200000000000001" y="-9.659341372218367e-5" /><rect width="0.1999999999999993" height="4.006529739295107e-5" x="4.4" y="-4.006529739295107e-5" /><rect width="0.1999999999999993" height="1.5966783897804662e-5" x="4.600000000000001" y="-1.5966783897804662e-5" /><rect width="0.1999999999999993" height="6.113567966371391e-6" x="4.800000000000001" y="-6.113567966371391e-6" /></g><g stroke-width="0.0" stroke="#000000" fill="#78503C" fill-opacity="0.5" stroke-opacity="0.0"><rect width="0.1999999999999993" height="2.486243670617479e-2" x="-5.0" y="-2.486243670617479e-2" /><rect width="0.1999999999999993" height="3.160635153764441e-2" x="-4.8" y="-3.160635153764441e-2" /><rect width="0.1999999999999993" height="3.977975435911384e-2" x="-4.6" y="-3.977975435911384e-2" /><rect width="0.1999999999999993" height="4.956862625537365e-2" x="-4.4" y="-4.956862625537365e-2" /><rect width="0.1999999999999993" height="6.115172667345025e-2" x="-4.2" y="-6.115172667345025e-2" /><rect width="0.20000000000000018" height="7.469088762520902e-2" x="-4.0" y="-7.469088762520902e-2" /><rect width="0.20000000000000018" height="9.031992580944702e-2" x="-3.8" y="-9.031992580944702e-2" /><rect width="0.20000000000000018" height="0.1081325834149437" x="-3.5999999999999996" y="-0.1081325834149437" /><rect width="0.20000000000000018" height="0.12817007570753683" x="-3.4" y="-0.12817007570753683" /><rect width="0.20000000000000018" height="0.15040897717863774" x="-3.2" y="-0.15040897717863774" /><rect width="0.20000000000000018" height="0.17475030009987824" x="-3.0" y="-0.17475030009987824" /><rect width="0.20000000000000018" height="0.20101069154732748" x="-2.8" y="-0.20101069154732748" /><rect width="0.20000000000000018" height="0.22891668088580722" x="-2.5999999999999996" y="-0.22891668088580722" /><rect width="0.20000000000000018" height="0.2581028369727482" x="-2.4" y="-0.2581028369727482" /><rect width="0.20000000000000018" height="0.28811453683590005" x="-2.1999999999999997" y="-0.28811453683590005" /><rect width="0.20000000000000018" height="0.3184158071858716" x="-2.0" y="-0.3184158071858716" /><rect width="0.20000000000000018" height="0.3484023877480174" x="-1.7999999999999998" y="-0.3484023877480174" /><rect width="0.20000000000000018" height="0.37741980099450373" x="-1.5999999999999996" y="-0.37741980099450373" /><rect width="0.20000000000000018" height="0.4047858243339435" x="-1.4" y="-0.4047858243339435" /><rect width="0.20000000000000007" height="0.42981638180127113" x="-1.1999999999999997" y="-0.42981638180127113" /><rect width="0.19999999999999996" height="0.451853538936598" x="-1.0" y="-0.451853538936598" /><rect width="0.19999999999999996" height="0.47029403168217104" x="-0.7999999999999998" y="-0.47029403168217104" /><rect width="0.19999999999999996" height="0.48461661723817206" x="-0.5999999999999996" y="-0.48461661723817206" /><rect width="0.19999999999999998" height="0.49440652230561655" x="-0.39999999999999947" y="-0.49440652230561655" /><rect width="0.2" height="0.49937539046229046" x="-0.1999999999999993" y="-0.49937539046229046" /><rect width="0.2" height="0.49937539046229046" y="-0.49937539046229046" /><rect width="0.19999999999999998" height="0.49440652230561655" x="0.20000000000000015" y="-0.49440652230561655" /><rect width="0.19999999999999996" height="0.484616617238172" x="0.40000000000000036" y="-0.484616617238172" /><rect width="0.19999999999999996" height="0.470294031682171" x="0.6000000000000005" y="-0.470294031682171" /><rect width="0.19999999999999996" height="0.45185353893659796" x="0.8000000000000007" y="-0.45185353893659796" /><rect width="0.20000000000000018" height="0.4298163818012711" x="1.0" y="-0.4298163818012711" /><rect width="0.20000000000000018" height="0.40478582433394344" x="1.2000000000000002" y="-0.40478582433394344" /><rect width="0.20000000000000018" height="0.3774198009945036" x="1.4000000000000004" y="-0.3774198009945036" /><rect width="0.20000000000000018" height="0.3484023877480173" x="1.6000000000000005" y="-0.3484023877480173" /><rect width="0.20000000000000018" height="0.3184158071858714" x="1.8000000000000007" y="-0.3184158071858714" /><rect width="0.20000000000000018" height="0.28811453683589994" x="2.0" y="-0.28811453683589994" /><rect width="0.20000000000000018" height="0.25810283697274816" x="2.2" y="-0.25810283697274816" /><rect width="0.20000000000000018" height="0.22891668088580705" x="2.4000000000000004" y="-0.22891668088580705" /><rect width="0.20000000000000018" height="0.20101069154732734" x="2.6000000000000005" y="-0.20101069154732734" /><rect width="0.20000000000000018" height="0.1747503000998781" x="2.8000000000000007" y="-0.1747503000998781" /><rect width="0.20000000000000018" height="0.15040897717863774" x="3.0" y="-0.15040897717863774" /><rect width="0.20000000000000018" height="0.1281700757075367" x="3.200000000000001" y="-0.1281700757075367" /><rect width="0.20000000000000018" height="0.1081325834149436" x="3.4000000000000004" y="-0.1081325834149436" /><rect width="0.20000000000000018" height="9.031992580944702e-2" x="3.5999999999999996" y="-9.031992580944702e-2" /><rect width="0.20000000000000018" height="7.469088762520897e-2" x="3.8000000000000007" y="-7.469088762520897e-2" /><rect width="0.19999999999999973" height="6.1151726673450306e-2" x="3.9999999999999996" y="-6.1151726673450306e-2" /><rect width="0.1999999999999993" height="4.956862625537365e-2" x="4.200000000000001" y="-4.956862625537365e-2" /><rect width="0.1999999999999993" height="3.977975435911384e-2" x="4.4" y="-3.977975435911384e-2" /><rect width="0.1999999999999993" height="3.1606351537644385e-2" x="4.600000000000001" y="-3.1606351537644385e-2" /><rect width="0.1999999999999993" height="2.486243670617479e-2" x="4.800000000000001" y="-2.486243670617479e-2" /></g></svg>