<svg width="411.0796691336526" xmlns:xlink="http://www.w3.org/1999/xlink" xmlns="http://www.w3.org/2000/svg" viewBox="-0.7925 -0.52 1.57375 1.1485" height="300.0"><style>svg {
  color-scheme: light dark;
}
{
  .canvas g, .title g, .axisbar g, .ticktext g, .tickglyph g, .ticklines g, .legendContent g text {
    fill: #0d0d0d;
  }
  .ticklines g, .tickglyph g, .legendBorder g {
    stroke: #0d0d0d;
  }
}
@media (prefers-color-scheme:dark) {
  .canvas g, .title g, .axisbar g, .ticktext g, .tickglyph g, .ticklines g, .legendContent g text {
    fill: #f0f0f0;
  }
  .ticklines g, .tickglyph g, .legendBorder g {
    stroke: #f0f0f0;
  }
}</style><g class="rect"><g stroke-opacity="0.0" fill="#e31a1c" stroke="#000000" stroke-width="0.0" fill-opacity="0.3"><rect width="2.9999999999999916e-2" x="-0.75" y="0.4999938557876466" height="6.144212353398348e-6"/><rect width="2.9999999999999916e-2" x="-0.72" y="0.49998395318226485" height="1.6046817735149155e-5"/><rect width="2.9999999999999916e-2" x="-0.69" y="0.49995973387446807" height="4.026612553192921e-5"/><rect width="2.9999999999999916e-2" x="-0.66" y="0.49990292240977663" height="9.707759022337115e-5"/><rect width="3.0000000000000027e-2" x="-0.63" y="0.49977513267582113" height="2.248673241788679e-4"/><rect width="3.0000000000000027e-2" x="-0.6" y="0.49949954856655937" height="5.004514334406296e-4"/><rect width="3.0000000000000027e-2" x="-0.57" y="0.49892989660036036" height="1.0701033996396436e-3"/><rect width="3.0000000000000027e-2" x="-0.5399999999999999" y="0.4978015440369574" height="2.198455963042578e-3"/><rect width="3.0000000000000138e-2" x="-0.51" y="0.49566051672926104" height="4.339483270738964e-3"/><rect width="3.0000000000000027e-2" x="-0.48" y="0.4917702529509799" height="8.229747049020075e-3"/><rect width="3.0000000000000027e-2" x="-0.44999999999999996" y="0.48500442317952225" height="1.4995576820477752e-2"/><rect width="3.0000000000000027e-2" x="-0.41999999999999993" y="0.473747656034312" height="2.6252343965687985e-2"/><rect width="3.0000000000000082e-2" x="-0.3899999999999999" y="0.45584283158030703" height="4.415716841969297e-2"/><rect width="3.0000000000000138e-2" x="-0.3600000000000001" y="0.4286387304436139" height="7.136126955638611e-2"/><rect width="3.0000000000000138e-2" x="-0.32999999999999996" y="0.389196841637666" height="0.11080315836233401"/><rect width="3.0000000000000027e-2" x="-0.2999999999999998" y="0.3347011117784134" height="0.16529888822158662"/><rect width="2.9999999999999805e-2" x="-0.2699999999999998" y="0.2630722413178781" height="0.2369277586821219"/><rect width="3.000000000000025e-2" x="-0.24" y="0.1737202053769603" height="0.3262797946230397"/><rect width="3.0000000000000027e-2" x="-0.20999999999999996" y="6.828947657092022e-2" height="0.4317105234290798"/><rect width="3.0000000000000027e-2" x="-0.17999999999999994" y="-4.881163609402661e-2" height="0.5488116360940266"/><rect width="3.0000000000000027e-2" x="-0.1499999999999999" y="-0.17032004603563922" height="0.6703200460356392"/><rect width="3.0000000000000027e-2" x="-0.11999999999999988" y="-0.2866278610665536" height="0.7866278610665536"/><rect width="3.0000000000000027e-2" x="-8.999999999999986e-2" y="-0.3869204367171576" height="0.8869204367171576"/><rect width="3.0000000000000027e-2" x="-5.999999999999983e-2" y="-0.4607894391523233" height="0.9607894391523233"/><rect width="3.0000000000000138e-2" x="-2.9999999999999805e-2" y="-0.5" height="1.0"/><rect width="2.9999999999999805e-2" x="0.0" y="-0.4999999999999998" height="0.9999999999999998"/><rect width="3.000000000000025e-2" x="2.9999999999999805e-2" y="-0.46078943915232307" height="0.9607894391523231"/><rect width="3.0000000000000027e-2" x="6.000000000000005e-2" y="-0.38692043671715737" height="0.8869204367171574"/><rect width="3.0000000000000027e-2" x="9.000000000000008e-2" y="-0.286627861066553" height="0.786627861066553"/><rect width="3.000000000000025e-2" x="0.1200000000000001" y="-0.17032004603563877" height="0.6703200460356388"/><rect width="2.9999999999999805e-2" x="0.15000000000000036" y="-4.881163609402639e-2" height="0.5488116360940264"/><rect width="2.9999999999999805e-2" x="0.18000000000000016" y="6.828947657092038e-2" height="0.4317105234290796"/><rect width="3.000000000000025e-2" x="0.20999999999999996" y="0.1737202053769607" height="0.3262797946230393"/><rect width="2.9999999999999805e-2" x="0.2400000000000002" y="0.26307224131787854" height="0.23692775868212146"/><rect width="3.000000000000025e-2" x="0.27" y="0.33470111177841366" height="0.16529888822158634"/><rect width="3.0000000000000027e-2" x="0.30000000000000004" y="0.38919684163766616" height="0.11080315836233384"/><rect width="3.0000000000000027e-2" x="0.33000000000000007" y="0.428638730443614" height="7.1361269556386e-2"/><rect width="3.0000000000000027e-2" x="0.3600000000000001" y="0.45584283158030714" height="4.415716841969286e-2"/><rect width="3.0000000000000027e-2" x="0.3900000000000001" y="0.47374765603431207" height="2.625234396568793e-2"/><rect width="3.0000000000000027e-2" x="0.42000000000000015" y="0.48500442317952236" height="1.499557682047764e-2"/><rect width="2.9999999999999805e-2" x="0.4500000000000002" y="0.4917702529509799" height="8.229747049020075e-3"/><rect width="3.0000000000000693e-2" x="0.48" y="0.49566051672926115" height="4.339483270738853e-3"/><rect width="2.9999999999999805e-2" x="0.5100000000000002" y="0.4978015440369574" height="2.198455963042578e-3"/><rect width="3.000000000000025e-2" x="0.54" y="0.49892989660036036" height="1.0701033996396436e-3"/><rect width="2.9999999999999805e-2" x="0.5700000000000003" y="0.49949954856655937" height="5.004514334406296e-4"/><rect width="2.9999999999999805e-2" x="0.6000000000000001" y="0.49977513267582113" height="2.248673241788679e-4"/><rect width="2.9999999999999805e-2" x="0.6300000000000003" y="0.49990292240977663" height="9.707759022337115e-5"/><rect width="2.9999999999999805e-2" x="0.6600000000000001" y="0.49995973387446807" height="4.026612553192921e-5"/><rect width="2.9999999999999805e-2" x="0.6900000000000004" y="0.49998395318226485" height="1.6046817735149155e-5"/><rect width="2.9999999999999805e-2" x="0.7200000000000002" y="0.4999938557876466" height="6.144212353398348e-6"/></g><g stroke-opacity="0.0" fill="#33a12b" stroke="#000000" stroke-width="0.0" fill-opacity="0.3"><rect width="2.9999999999999916e-2" x="-0.75" y="0.4750129398112199" height="2.4987060188780108e-2"/><rect width="2.9999999999999916e-2" x="-0.72" y="0.4682352209659835" height="3.176477903401648e-2"/><rect width="2.9999999999999916e-2" x="-0.69" y="0.46002084879237926" height="3.9979151207620744e-2"/><rect width="2.9999999999999916e-2" x="-0.66" y="0.45018290997154936" height="4.981709002845064e-2"/><rect width="3.0000000000000027e-2" x="-0.63" y="0.4385417490210107" height="6.1458250978989326e-2"/><rect width="3.0000000000000027e-2" x="-0.6" y="0.4249347227425624" height="7.506527725743761e-2"/><rect width="3.0000000000000027e-2" x="-0.57" y="0.40922734367841357" height="9.077265632158643e-2"/><rect width="3.0000000000000027e-2" x="-0.5399999999999999" y="0.391325399755108" height="0.108674600244892"/><rect width="3.0000000000000138e-2" x="-0.51" y="0.3711874691144281" height="0.12881253088557187"/><rect width="3.0000000000000027e-2" x="-0.48" y="0.34883709468581314" height="0.15116290531418686"/><rect width="3.0000000000000027e-2" x="-0.44999999999999996" y="0.3243737603756845" height="0.1756262396243155"/><rect width="3.0000000000000027e-2" x="-0.41999999999999993" y="0.29798173816832896" height="0.20201826183167104"/><rect width="3.0000000000000082e-2" x="-0.3899999999999999" y="0.2699358694761878" height="0.2300641305238122"/><rect width="3.0000000000000138e-2" x="-0.3600000000000001" y="0.24060341717305533" height="0.25939658282694467"/><rect width="3.0000000000000138e-2" x="-0.32999999999999996" y="0.21044128303831328" height="0.2895587169616867"/><rect width="3.0000000000000027e-2" x="-0.2999999999999998" y="0.1799881269386462" height="0.3200118730613538"/><rect width="2.9999999999999805e-2" x="-0.2699999999999998" y="0.14985123801593053" height="0.35014876198406947"/><rect width="3.000000000000025e-2" x="-0.24" y="0.12068837438026031" height="0.3793116256197397"/><rect width="3.0000000000000027e-2" x="-0.20999999999999996" y="9.318517827799278e-2" height="0.4068148217220072"/><rect width="3.0000000000000027e-2" x="-0.17999999999999994" y="6.802915461923775e-2" height="0.43197084538076225"/><rect width="3.0000000000000027e-2" x="-0.1499999999999999" y="4.5881535774088156e-2" height="0.45411846422591184"/><rect width="3.0000000000000027e-2" x="-0.11999999999999988" y="2.7348609673970292e-2" height="0.4726513903260297"/><rect width="3.0000000000000027e-2" x="-8.999999999999986e-2" y="1.2954231859109266e-2" height="0.48704576814089073"/><rect width="3.0000000000000027e-2" x="-5.999999999999983e-2" y="3.1152546883025933e-3" height="0.4968847453116974"/><rect width="3.0000000000000138e-2" x="-2.9999999999999805e-2" y="-1.8785200236541844e-3" height="0.5018785200236542"/><rect width="2.9999999999999805e-2" x="0.0" y="-1.8785200236541844e-3" height="0.5018785200236542"/><rect width="3.000000000000025e-2" x="2.9999999999999805e-2" y="3.1152546883025933e-3" height="0.4968847453116974"/><rect width="3.0000000000000027e-2" x="6.000000000000005e-2" y="1.2954231859109266e-2" height="0.48704576814089073"/><rect width="3.0000000000000027e-2" x="9.000000000000008e-2" y="2.7348609673970292e-2" height="0.4726513903260297"/><rect width="3.000000000000025e-2" x="0.1200000000000001" y="4.588153577408827e-2" height="0.45411846422591173"/><rect width="2.9999999999999805e-2" x="0.15000000000000036" y="6.802915461923775e-2" height="0.43197084538076225"/><rect width="2.9999999999999805e-2" x="0.18000000000000016" y="9.318517827799289e-2" height="0.4068148217220071"/><rect width="3.000000000000025e-2" x="0.20999999999999996" y="0.12068837438026048" height="0.3793116256197395"/><rect width="2.9999999999999805e-2" x="0.2400000000000002" y="0.1498512380159306" height="0.3501487619840694"/><rect width="3.000000000000025e-2" x="0.27" y="0.1799881269386464" height="0.3200118730613536"/><rect width="3.0000000000000027e-2" x="0.30000000000000004" y="0.21044128303831344" height="0.28955871696168656"/><rect width="3.0000000000000027e-2" x="0.33000000000000007" y="0.24060341717305533" height="0.25939658282694467"/><rect width="3.0000000000000027e-2" x="0.3600000000000001" y="0.269935869476188" height="0.23006413052381203"/><rect width="3.0000000000000027e-2" x="0.3900000000000001" y="0.297981738168329" height="0.202018261831671"/><rect width="3.0000000000000027e-2" x="0.42000000000000015" y="0.32437376037568466" height="0.17562623962431534"/><rect width="2.9999999999999805e-2" x="0.4500000000000002" y="0.34883709468581314" height="0.15116290531418686"/><rect width="3.0000000000000693e-2" x="0.48" y="0.3711874691144283" height="0.1288125308855717"/><rect width="2.9999999999999805e-2" x="0.5100000000000002" y="0.391325399755108" height="0.108674600244892"/><rect width="3.000000000000025e-2" x="0.54" y="0.40922734367841357" height="9.077265632158643e-2"/><rect width="2.9999999999999805e-2" x="0.5700000000000003" y="0.4249347227425625" height="7.50652772574375e-2"/><rect width="2.9999999999999805e-2" x="0.6000000000000001" y="0.43854174902101056" height="6.145825097898944e-2"/><rect width="2.9999999999999805e-2" x="0.6300000000000003" y="0.45018290997154936" height="4.981709002845064e-2"/><rect width="2.9999999999999805e-2" x="0.6600000000000001" y="0.46002084879237926" height="3.9979151207620744e-2"/><rect width="2.9999999999999805e-2" x="0.6900000000000004" y="0.46823522096598363" height="3.1764779034016366e-2"/><rect width="2.9999999999999805e-2" x="0.7200000000000002" y="0.4750129398112199" height="2.4987060188780108e-2"/></g></g><g class="hud"><g class="axis"><g class="ticks"><g class="tickglyph"><g stroke-opacity="0.4" fill="#0d0d0d" stroke="#0d0d0d" stroke-width="4.0e-3" fill-opacity="0.4"><polyline points="-0.75,0.545
-0.75,0.515"/><polyline points="-0.6,0.545
-0.6,0.515"/><polyline points="-0.44999999999999996,0.545
-0.44999999999999996,0.515"/><polyline points="-0.2999999999999998,0.545
-0.2999999999999998,0.515"/><polyline points="-0.1499999999999999,0.545
-0.1499999999999999,0.515"/><polyline points="0.0,0.545
0.0,0.515"/><polyline points="0.15000000000000036,0.545
0.15000000000000036,0.515"/><polyline points="0.30000000000000004,0.545
0.30000000000000004,0.515"/><polyline points="0.4500000000000002,0.545
0.4500000000000002,0.515"/><polyline points="0.6000000000000001,0.545
0.6000000000000001,0.515"/><polyline points="0.75,0.545
0.75,0.515"/></g></g><g class="ticktext"><g fill="#0d0d0d" stroke="none" stroke-width="0.0" font-size="5.0e-2" fill-opacity="1.0" text-anchor="middle"><text x="-0.75" y="0.5935">-5</text><text x="-0.6" y="0.5935">-4</text><text x="-0.44999999999999996" y="0.5935">-3</text><text x="-0.2999999999999998" y="0.5935">-2</text><text x="-0.1499999999999999" y="0.5935">-1</text><text x="0.0" y="0.5935">0</text><text x="0.15000000000000036" y="0.5935">1</text><text x="0.30000000000000004" y="0.5935">2</text><text x="0.4500000000000002" y="0.5935">3</text><text x="0.6000000000000001" y="0.5935">4</text><text x="0.75" y="0.5935">5</text></g></g></g><g class="axisbar"><g stroke-opacity="0.0" fill="#0d0d0d" stroke="#000000" stroke-width="0.0" fill-opacity="0.4"><rect width="1.5039999999999998" x="-0.752" y="0.51" height="3.9999999999998925e-3"/></g></g></g></g></svg>