<svg width="443.1205871068596" xmlns:xlink="http://www.w3.org/1999/xlink" xmlns="http://www.w3.org/2000/svg" viewBox="-0.771128499777792 -0.52 1.5416927496666877 1.0437516070280695" height="300.0"><style>svg {
  color-scheme: light dark;
}
@media (prefers-color-scheme:light) {
  svg {
    background-color: #0d0d0d;
  }
}</style><g fill="#f0f0f0" stroke="none" stroke-width="0.0" font-size="5.0e-2" fill-opacity="1.0" text-anchor="middle"><text x="-0.7261284997777919" y="0.47750160702806943">-5</text><text x="-0.5797092248111231" y="0.47750160702806943">-4</text><text x="-0.4332899498444543" y="0.47750160702806943">-3</text><text x="-0.2868706748777855" y="0.47750160702806943">-2</text><text x="-0.14045139991111677" y="0.47750160702806943">-1</text><text x="5.967875055551852e-3" y="0.47750160702806943">0</text><text x="0.15238715002222092" y="0.47750160702806943">1</text><text x="0.29880642498888976" y="0.47750160702806943">2</text><text x="0.4452256999555584" y="0.47750160702806943">3</text><text x="0.591644974922227" y="0.47750160702806943">4</text><text x="0.7380642498888959" y="0.47750160702806943">5</text></g><g stroke-opacity="0.4" fill="#f0f0f0" stroke="#f0f0f0" stroke-width="4.0e-3" fill-opacity="0.4"><polyline points="-0.7261284997777919,0.41946861731742385
-0.7261284997777919,0.3894686173174238"/><polyline points="-0.5797092248111231,0.41946861731742385
-0.5797092248111231,0.3894686173174238"/><polyline points="-0.4332899498444543,0.41946861731742385
-0.4332899498444543,0.3894686173174238"/><polyline points="-0.2868706748777855,0.41946861731742385
-0.2868706748777855,0.3894686173174238"/><polyline points="-0.14045139991111677,0.41946861731742385
-0.14045139991111677,0.3894686173174238"/><polyline points="5.967875055551852e-3,0.41946861731742385
5.967875055551852e-3,0.3894686173174238"/><polyline points="0.15238715002222092,0.41946861731742385
0.15238715002222092,0.3894686173174238"/><polyline points="0.29880642498888976,0.41946861731742385
0.29880642498888976,0.3894686173174238"/><polyline points="0.4452256999555584,0.41946861731742385
0.4452256999555584,0.3894686173174238"/><polyline points="0.591644974922227,0.41946861731742385
0.591644974922227,0.3894686173174238"/><polyline points="0.7380642498888959,0.41946861731742385
0.7380642498888959,0.3894686173174238"/></g><g stroke-opacity="0.0" fill="#f0f0f0" stroke="#000000" stroke-width="0.0" fill-opacity="0.4"><rect width="1.4680972636657987" x="-0.7280807567773474" y="0.3860458811741979" height="3.50909259870974e-3"/></g><g stroke-opacity="0.0" fill="#e31a1c" stroke="#000000" stroke-width="0.0" fill-opacity="0.3"><rect width="2.9283854993333747e-2" x="-0.7261284997777919" y="0.3772677595249002" height="5.390152523543357e-6"/><rect width="2.9283854993333636e-2" x="-0.6968446447844581" y="0.37725907223508687" height="1.4077442336890567e-5"/><rect width="2.9283854993333636e-2" x="-0.6675607897911243" y="0.377237825286653" height="3.5324390770752334e-5"/><rect width="2.9283854993333747e-2" x="-0.6382769347977907" y="0.3771879861140854" height="8.516356333837516e-5"/><rect width="2.9283854993333636e-2" x="-0.6089930798044568" y="0.37707587961168176" height="1.9727006574199457e-4"/><rect width="2.9283854993333747e-2" x="-0.5797092248111231" y="0.37683411707214864" height="4.390326052751137e-4"/><rect width="2.9283854993333858e-2" x="-0.5504253698177893" y="0.37633437669754144" height="9.387729798823186e-4"/><rect width="2.928385499333369e-2" x="-0.5211415148244555" y="0.3753445032902982" height="1.9286463871255322e-3"/><rect width="2.9283854993333858e-2" x="-0.4918576598311219" y="0.3734662375205301" height="3.8069121568936604e-3"/><rect width="2.9283854993333802e-2" x="-0.4625738048377881" y="0.3700534135626814" height="7.219736114742359e-3"/><rect width="2.9283854993333802e-2" x="-0.4332899498444543" y="0.3641179327688935" height="1.3155216908530276e-2"/><rect width="2.9283854993333747e-2" x="-0.4040060948511205" y="0.3542426732002295" height="2.303047647719425e-2"/><rect width="2.9283854993333747e-2" x="-0.37472223985778674" y="0.3385352514570433" height="3.8737898220380484e-2"/><rect width="2.9283854993333802e-2" x="-0.34543838486445305" y="0.31466982396871324" height="6.260332570871052e-2"/><rect width="2.9283854993333747e-2" x="-0.31615452987111925" y="0.28006851394669263" height="9.720463573073113e-2"/><rect width="2.9283854993333747e-2" x="-0.2868706748777855" y="0.23226087336909607" height="0.1450122763083277"/><rect width="2.9283854993333747e-2" x="-0.25758681988445176" y="0.16942278857234605" height="0.2078503611050777"/><rect width="2.9283854993333858e-2" x="-0.228302964891118" y="9.103664657236676e-2" height="0.286236503105057"/><rect width="2.9283854993333747e-2" x="-0.19901910989778426" y="-1.454900960094374e-3" height="0.37872805063751813"/><rect width="2.9283854993333747e-2" x="-0.16973525490445052" y="-0.10418456289840317" height="0.4814577125758269"/><rect width="2.9283854993333858e-2" x="-0.14045139991111677" y="-0.2107806284001772" height="0.588053778077601"/><rect width="2.9283854993333747e-2" x="-0.11116754491778291" y="-0.3128143516244466" height="0.6900875013018704"/><rect width="2.9283854993333858e-2" x="-8.188368992444917e-2" y="-0.4007983353547133" height="0.7780714850321371"/><rect width="2.9283854993333747e-2" x="-5.259983493111531e-2" y="-0.4656016277845404" height="0.8428747774619642"/><rect width="2.9283854993333858e-2" x="-2.331597993778156e-2" y="-0.5" height="0.8772731496774238"/><rect width="2.9283854993333858e-2" x="5.967875055551852e-3" y="-0.5" height="0.8772731496774238"/><rect width="2.9283854993333747e-2" x="3.525173004888571e-2" y="-0.4656016277845404" height="0.8428747774619642"/><rect width="2.9283854993333858e-2" x="6.453558504221946e-2" y="-0.400798335354713" height="0.7780714850321367"/><rect width="2.9283854993333858e-2" x="9.381944003555331e-2" y="-0.31281435162444615" height="0.6900875013018699"/><rect width="2.9283854993333747e-2" x="0.12310329502888717" y="-0.21078062840017675" height="0.5880537780776005"/><rect width="2.9283854993333636e-2" x="0.15238715002222092" y="-0.10418456289840283" height="0.4814577125758266"/><rect width="2.9283854993333858e-2" x="0.18167100501555455" y="-1.454900960094152e-3" height="0.3787280506375179"/><rect width="2.9283854993333858e-2" x="0.2109548600088884" y="9.103664657236715e-2" height="0.2862365031050566"/><rect width="2.9283854993333636e-2" x="0.24023871500222227" y="0.16942278857234638" height="0.20785036110507737"/><rect width="2.9283854993333858e-2" x="0.2695225699955559" y="0.2322608733690963" height="0.14501227630832747"/><rect width="2.9283854993333414e-2" x="0.29880642498888976" y="0.28006851394669274" height="9.720463573073101e-2"/><rect width="2.9283854993333858e-2" x="0.3280902799822232" y="0.3146698239687133" height="6.260332570871047e-2"/><rect width="2.9283854993333636e-2" x="0.35737413497555703" y="0.33853525145704333" height="3.873789822038043e-2"/><rect width="2.928385499333408e-2" x="0.38665798996889067" y="0.35424267320022956" height="2.3030476477194195e-2"/><rect width="2.9283854993333636e-2" x="0.41594184496222475" y="0.36411793276889354" height="1.315521690853022e-2"/><rect width="2.9283854993333636e-2" x="0.4452256999555584" y="0.3700534135626814" height="7.219736114742359e-3"/><rect width="2.9283854993334302e-2" x="0.474509554948892" y="0.3734662375205301" height="3.8069121568936604e-3"/><rect width="2.9283854993333858e-2" x="0.5037934099422259" y="0.3753445032902982" height="1.9286463871255322e-3"/><rect width="2.9283854993333858e-2" x="0.5330772649355595" y="0.37633437669754144" height="9.387729798823186e-4"/><rect width="2.9283854993333636e-2" x="0.5623611199288934" y="0.37683411707214864" height="4.390326052751137e-4"/><rect width="2.9283854993333636e-2" x="0.591644974922227" y="0.37707587961168176" height="1.9727006574199457e-4"/><rect width="2.9283854993333636e-2" x="0.6209288299155611" y="0.3771879861140854" height="8.516356333837516e-5"/><rect width="2.9283854993333636e-2" x="0.6502126849088947" y="0.377237825286653" height="3.5324390770752334e-5"/><rect width="2.9283854993333636e-2" x="0.6794965399022286" y="0.37725907223508687" height="1.4077442336890567e-5"/><rect width="2.9283854993333636e-2" x="0.7087803948955622" y="0.3772677595249002" height="5.390152523543357e-6"/></g><g stroke-opacity="0.0" fill="#33a12b" stroke="#000000" stroke-width="0.0" fill-opacity="0.3"><rect width="2.9283854993333747e-2" x="-0.7261284997777919" y="0.35535267268443327" height="2.192047699299049e-2"/><rect width="2.9283854993333636e-2" x="-0.6968446447844581" y="0.34940676192544473" height="2.7866387751979027e-2"/><rect width="2.9283854993333636e-2" x="-0.6675607897911243" y="0.3422005137760843" height="3.5072635901339466e-2"/><rect width="2.9283854993333747e-2" x="-0.6382769347977907" y="0.3335699542004011" height="4.370319547702267e-2"/><rect width="2.9283854993333636e-2" x="-0.6089930798044568" y="0.3233574762674201" height="5.391567341000364e-2"/><rect width="2.9283854993333747e-2" x="-0.5797092248111231" y="0.3114203974663824" height="6.585275221104137e-2"/><rect width="2.9283854993333858e-2" x="-0.5504253698177893" y="0.2976407355615992" height="7.963241411582456e-2"/><rect width="2.928385499333369e-2" x="-0.5211415148244555" y="0.2819358408306524" height="9.533730884677138e-2"/><rect width="2.9283854993333858e-2" x="-0.4918576598311219" y="0.26426937498951764" height="0.11300377468790612"/><rect width="2.9283854993333802e-2" x="-0.4625738048377881" y="0.24466199161805685" height="0.1326111580593669"/><rect width="2.9283854993333802e-2" x="-0.4332899498444543" y="0.22320096527619854" height="0.15407218440122522"/><rect width="2.9283854993333747e-2" x="-0.4040060948511205" y="0.20004795282799515" height="0.1772251968494286"/><rect width="2.9283854993333747e-2" x="-0.37472223985778674" y="0.17544406526500111" height="0.20182908441242264"/><rect width="2.9283854993333802e-2" x="-0.34543838486445305" y="0.14971149244526927" height="0.2275616572321545"/><rect width="2.9283854993333747e-2" x="-0.31615452987111925" y="0.12325106203189118" height="0.2540220876455326"/><rect width="2.9283854993333747e-2" x="-0.2868706748777855" y="9.653532586271801e-2" height="0.28073782381470574"/><rect width="2.9283854993333747e-2" x="-0.25758681988445176" y="7.009704239600845e-2" height="0.3071761072814153"/><rect width="2.9283854993333858e-2" x="-0.228302964891118" y="4.451324516073096e-2" height="0.3327599045166928"/><rect width="2.9283854993333747e-2" x="-0.19901910989778426" y="2.0385429689898815e-2" height="0.35688771998752494"/><rect width="2.9283854993333747e-2" x="-0.16973525490445052" y="-1.6832744185769632e-3" height="0.3789564240960007"/><rect width="2.9283854993333858e-2" x="-0.14045139991111677" y="-2.11127857607164e-2" height="0.39838593543814016"/><rect width="2.9283854993333747e-2" x="-0.11116754491778291" y="-3.737122421330574e-2" height="0.4146443738907295"/><rect width="2.9283854993333858e-2" x="-8.188368992444917e-2" y="-4.999902537659584e-2" height="0.4272721750540196"/><rect width="2.9283854993333747e-2" x="-5.259983493111531e-2" y="-5.863049586883351e-2" height="0.43590364554625727"/><rect width="2.9283854993333858e-2" x="-2.331597993778156e-2" y="-6.30114003391713e-2" height="0.44028455001659506"/><rect width="2.9283854993333858e-2" x="5.967875055551852e-3" y="-6.30114003391713e-2" height="0.44028455001659506"/><rect width="2.9283854993333747e-2" x="3.525173004888571e-2" y="-5.863049586883351e-2" height="0.43590364554625727"/><rect width="2.9283854993333858e-2" x="6.453558504221946e-2" y="-4.999902537659584e-2" height="0.4272721750540196"/><rect width="2.9283854993333858e-2" x="9.381944003555331e-2" y="-3.737122421330574e-2" height="0.4146443738907295"/><rect width="2.9283854993333747e-2" x="0.12310329502888717" y="-2.11127857607164e-2" height="0.39838593543814016"/><rect width="2.9283854993333636e-2" x="0.15238715002222092" y="-1.6832744185768522e-3" height="0.3789564240960006"/><rect width="2.9283854993333858e-2" x="0.18167100501555455" y="2.0385429689898815e-2" height="0.35688771998752494"/><rect width="2.9283854993333858e-2" x="0.2109548600088884" y="4.4513245160731074e-2" height="0.3327599045166927"/><rect width="2.9283854993333636e-2" x="0.24023871500222227" y="7.009704239600867e-2" height="0.3071761072814151"/><rect width="2.9283854993333858e-2" x="0.2695225699955559" y="9.653532586271812e-2" height="0.28073782381470563"/><rect width="2.9283854993333414e-2" x="0.29880642498888976" y="0.12325106203189129" height="0.25402208764553247"/><rect width="2.9283854993333858e-2" x="0.3280902799822232" y="0.14971149244526927" height="0.2275616572321545"/><rect width="2.9283854993333636e-2" x="0.35737413497555703" y="0.17544406526500123" height="0.20182908441242253"/><rect width="2.928385499333408e-2" x="0.38665798996889067" y="0.20004795282799526" height="0.1772251968494285"/><rect width="2.9283854993333636e-2" x="0.41594184496222475" y="0.22320096527619865" height="0.1540721844012251"/><rect width="2.9283854993333636e-2" x="0.4452256999555584" y="0.24466199161805685" height="0.1326111580593669"/><rect width="2.9283854993334302e-2" x="0.474509554948892" y="0.26426937498951775" height="0.11300377468790601"/><rect width="2.9283854993333858e-2" x="0.5037934099422259" y="0.28193584083065243" height="9.533730884677133e-2"/><rect width="2.9283854993333858e-2" x="0.5330772649355595" y="0.2976407355615992" height="7.963241411582456e-2"/><rect width="2.9283854993333636e-2" x="0.5623611199288934" y="0.3114203974663824" height="6.585275221104137e-2"/><rect width="2.9283854993333636e-2" x="0.591644974922227" y="0.3233574762674201" height="5.391567341000364e-2"/><rect width="2.9283854993333636e-2" x="0.6209288299155611" y="0.3335699542004011" height="4.370319547702267e-2"/><rect width="2.9283854993333636e-2" x="0.6502126849088947" y="0.3422005137760843" height="3.5072635901339466e-2"/><rect width="2.9283854993333636e-2" x="0.6794965399022286" y="0.34940676192544473" height="2.7866387751979027e-2"/><rect width="2.9283854993333636e-2" x="0.7087803948955622" y="0.35535267268443327" height="2.192047699299049e-2"/></g><g></g></svg>