
<svg xmlns="http://www.w3.org/2000/svg" height="300.0" viewBox="-0.795 -0.5225 1.5775000000000001 1.06875" width="450.0" xmlns:xlink="http://www.w3.org/1999/xlink">
  <g stroke-opacity="0.0" fill-opacity="3.0e-2" stroke="#000000" stroke-width="0.0" fill="#666666">
    <rect height="0.8978675645342313" width="1.5" x="-0.75" y="-0.495510662177329"/>
  </g>
  <g stroke-opacity="0.3" stroke="#a8e5ee" stroke-width="5.0e-3" fill="none">
    <polyline points="-0.75,0.4068462401795735
-0.75,-0.5"/>
  </g>
  <g stroke-opacity="0.3" stroke="#a8e5ee" stroke-width="5.0e-3" fill="none">
    <polyline points="-0.6,0.4068462401795735
-0.6,-0.5"/>
  </g>
  <g stroke-opacity="0.3" stroke="#a8e5ee" stroke-width="5.0e-3" fill="none">
    <polyline points="-0.44999999999999996,0.4068462401795735
-0.44999999999999996,-0.5"/>
  </g>
  <g stroke-opacity="0.3" stroke="#a8e5ee" stroke-width="5.0e-3" fill="none">
    <polyline points="-0.3000000000000001,0.4068462401795735
-0.3000000000000001,-0.5"/>
  </g>
  <g stroke-opacity="0.3" stroke="#a8e5ee" stroke-width="5.0e-3" fill="none">
    <polyline points="-0.1499999999999999,0.4068462401795735
-0.1499999999999999,-0.5"/>
  </g>
  <g stroke-opacity="0.3" stroke="#a8e5ee" stroke-width="5.0e-3" fill="none">
    <polyline points="0.0,0.4068462401795735
0.0,-0.5"/>
  </g>
  <g stroke-opacity="0.3" stroke="#a8e5ee" stroke-width="5.0e-3" fill="none">
    <polyline points="0.1499999999999998,0.4068462401795735
0.1499999999999998,-0.5"/>
  </g>
  <g stroke-opacity="0.3" stroke="#a8e5ee" stroke-width="5.0e-3" fill="none">
    <polyline points="0.2999999999999998,0.4068462401795735
0.2999999999999998,-0.5"/>
  </g>
  <g stroke-opacity="0.3" stroke="#a8e5ee" stroke-width="5.0e-3" fill="none">
    <polyline points="0.4500000000000002,0.4068462401795735
0.4500000000000002,-0.5"/>
  </g>
  <g stroke-opacity="0.3" stroke="#a8e5ee" stroke-width="5.0e-3" fill="none">
    <polyline points="0.6000000000000001,0.4068462401795735
0.6000000000000001,-0.5"/>
  </g>
  <g stroke-opacity="0.3" stroke="#a8e5ee" stroke-width="5.0e-3" fill="none">
    <polyline points="0.75,0.4068462401795735
0.75,-0.5"/>
  </g>
  <g fill-opacity="1.0" font-size="5.0e-2" stroke="none" stroke-width="0.0" fill="#666666" text-anchor="middle">
    <text x="-0.75" y="0.5">-5
    </text>
  </g>
  <g fill-opacity="1.0" font-size="5.0e-2" stroke="none" stroke-width="0.0" fill="#666666" text-anchor="middle">
    <text x="-0.6" y="0.5">-4
    </text>
  </g>
  <g fill-opacity="1.0" font-size="5.0e-2" stroke="none" stroke-width="0.0" fill="#666666" text-anchor="middle">
    <text x="-0.44999999999999996" y="0.5">-3
    </text>
  </g>
  <g fill-opacity="1.0" font-size="5.0e-2" stroke="none" stroke-width="0.0" fill="#666666" text-anchor="middle">
    <text x="-0.3000000000000001" y="0.5">-2
    </text>
  </g>
  <g fill-opacity="1.0" font-size="5.0e-2" stroke="none" stroke-width="0.0" fill="#666666" text-anchor="middle">
    <text x="-0.1499999999999999" y="0.5">-1
    </text>
  </g>
  <g fill-opacity="1.0" font-size="5.0e-2" stroke="none" stroke-width="0.0" fill="#666666" text-anchor="middle">
    <text x="0.0" y="0.5">0
    </text>
  </g>
  <g fill-opacity="1.0" font-size="5.0e-2" stroke="none" stroke-width="0.0" fill="#666666" text-anchor="middle">
    <text x="0.1499999999999998" y="0.5">1
    </text>
  </g>
  <g fill-opacity="1.0" font-size="5.0e-2" stroke="none" stroke-width="0.0" fill="#666666" text-anchor="middle">
    <text x="0.2999999999999998" y="0.5">2
    </text>
  </g>
  <g fill-opacity="1.0" font-size="5.0e-2" stroke="none" stroke-width="0.0" fill="#666666" text-anchor="middle">
    <text x="0.4500000000000002" y="0.5">3
    </text>
  </g>
  <g fill-opacity="1.0" font-size="5.0e-2" stroke="none" stroke-width="0.0" fill="#666666" text-anchor="middle">
    <text x="0.6000000000000001" y="0.5">4
    </text>
  </g>
  <g fill-opacity="1.0" font-size="5.0e-2" stroke="none" stroke-width="0.0" fill="#666666" text-anchor="middle">
    <text x="0.75" y="0.5">5
    </text>
  </g>
  <g stroke-opacity="0.4" fill-opacity="1.0" stroke="#2c429d" stroke-width="5.0e-3" fill="#5f0391">
    <polyline points="-0.75,0.43980359147025816
-0.75,0.40980359147025813"/>
    <polyline points="-0.6,0.43980359147025816
-0.6,0.40980359147025813"/>
    <polyline points="-0.44999999999999996,0.43980359147025816
-0.44999999999999996,0.40980359147025813"/>
    <polyline points="-0.3000000000000001,0.43980359147025816
-0.3000000000000001,0.40980359147025813"/>
    <polyline points="-0.1499999999999999,0.43980359147025816
-0.1499999999999999,0.40980359147025813"/>
    <polyline points="0.0,0.43980359147025816
0.0,0.40980359147025813"/>
    <polyline points="0.1499999999999998,0.43980359147025816
0.1499999999999998,0.40980359147025813"/>
    <polyline points="0.2999999999999998,0.43980359147025816
0.2999999999999998,0.40980359147025813"/>
    <polyline points="0.4500000000000002,0.43980359147025816
0.4500000000000002,0.40980359147025813"/>
    <polyline points="0.6000000000000001,0.43980359147025816
0.6000000000000001,0.40980359147025813"/>
    <polyline points="0.75,0.43980359147025816
0.75,0.40980359147025813"/>
  </g>
  <g stroke-opacity="0.0" fill-opacity="0.5" stroke="#666666" stroke-width="0.0" fill="#5f0391">
    <rect height="4.489337822671191e-3" width="1.5" x="-0.75" y="0.41133557800224463"/>
  </g>
  <g stroke-opacity="0.0" fill-opacity="0.2" stroke="#000000" stroke-width="0.0" fill="#31331c">
    <rect height="5.5166889816882225e-6" width="2.9999999999999916e-2" x="-0.75" y="0.40235138566792067"/>
    <rect height="1.4407917158398842e-5" width="2.9999999999999916e-2" x="-0.72" y="0.40234249443974396"/>
    <rect height="3.61536480645297e-5" width="2.9999999999999916e-2" x="-0.69" y="0.4023207487088378"/>
    <rect height="8.716281950471583e-5" width="2.9999999999999916e-2" x="-0.66" y="0.40226973953739764"/>
    <rect height="2.019010767038143e-4" width="2.9999999999999916e-2" x="-0.63" y="0.40215500128019854"/>
    <rect height="4.493391097110111e-4" width="3.0000000000000027e-2" x="-0.6" y="0.40190756324719135"/>
    <rect height="9.608111332342073e-4" width="3.0000000000000027e-2" x="-0.57" y="0.40139609122366815"/>
    <rect height="1.973922301272746e-3" width="3.0000000000000027e-2" x="-0.5399999999999999" y="0.4003829800556296"/>
    <rect height="3.896281275635405e-3" width="3.0000000000000082e-2" x="-0.51" y="0.39846062108126695"/>
    <rect height="7.389222939636397e-3" width="3.0000000000000027e-2" x="-0.48" y="0.39496767941726596"/>
    <rect height="1.3464042038588309e-2" width="3.0000000000000027e-2" x="-0.44999999999999996" y="0.38889286031831405"/>
    <rect height="2.3571128139787234e-2" width="3.0000000000000027e-2" x="-0.41999999999999993" y="0.3787857742171151"/>
    <rect height="3.964728926571759e-2" width="3.0000000000000027e-2" x="-0.3899999999999999" y="0.36270961309118477"/>
    <rect height="6.407296929866318e-2" width="3.0000000000000027e-2" x="-0.36" y="0.3382839330582392"/>
    <rect height="9.948656194148953e-2" width="3.0000000000000027e-2" x="-0.32999999999999996" y="0.30287034041541283"/>
    <rect height="0.14841651018773205" width="3.0000000000000027e-2" x="-0.29999999999999993" y="0.2539403921691703"/>
    <rect height="0.2127297496584708" width="3.0000000000000027e-2" x="-0.2699999999999999" y="0.18962715269843156"/>
    <rect height="0.2929560445549178" width="3.0000000000000027e-2" x="-0.23999999999999988" y="0.10940085780198455"/>
    <rect height="0.387618876255066" width="3.0000000000000027e-2" x="-0.20999999999999996" y="1.4738026101836332e-2"/>
    <rect height="0.49276016708779047" width="3.0000000000000027e-2" x="-0.17999999999999994" y="-9.040326473088811e-2"/>
    <rect height="0.6018586271924932" width="3.0000000000000027e-2" x="-0.1499999999999999" y="-0.1995017248355908"/>
    <rect height="0.706287641810598" width="3.0000000000000027e-2" x="-0.11999999999999988" y="-0.30393073945369564"/>
    <rect height="0.796337092450871" width="3.0000000000000027e-2" x="-8.999999999999986e-2" y="-0.3939801900939687"/>
    <rect height="0.8626616737619064" width="3.0000000000000027e-2" x="-5.999999999999983e-2" y="-0.46030477140500403"/>
    <rect height="0.8978675645342313" width="3.0000000000000027e-2" x="-2.9999999999999805e-2" y="-0.495510662177329"/>
    <rect height="0.8978675645342311" width="3.0000000000000027e-2" x="0.0" y="-0.49551066217732875"/>
    <rect height="0.8626616737619064" width="3.0000000000000027e-2" x="3.0000000000000027e-2" y="-0.46030477140500403"/>
    <rect height="0.7963370924508707" width="3.0000000000000027e-2" x="6.000000000000005e-2" y="-0.39398019009396834"/>
    <rect height="0.7062876418105976" width="3.0000000000000027e-2" x="9.000000000000008e-2" y="-0.3039307394536952"/>
    <rect height="0.6018586271924927" width="3.0000000000000027e-2" x="0.1200000000000001" y="-0.19950172483559037"/>
    <rect height="0.49276016708779025" width="3.0000000000000027e-2" x="0.15000000000000013" y="-9.040326473088789e-2"/>
    <rect height="0.38761887625506586" width="3.0000000000000027e-2" x="0.18000000000000016" y="1.4738026101836499e-2"/>
    <rect height="0.2929560445549174" width="3.0000000000000027e-2" x="0.2100000000000002" y="0.10940085780198494"/>
    <rect height="0.21272974965847047" width="3.0000000000000027e-2" x="0.2400000000000002" y="0.1896271526984319"/>
    <rect height="0.14841651018773183" width="3.0000000000000027e-2" x="0.27000000000000024" y="0.2539403921691705"/>
    <rect height="9.948656194148942e-2" width="3.000000000000025e-2" x="0.2999999999999998" y="0.30287034041541294"/>
    <rect height="6.407296929866313e-2" width="2.9999999999999805e-2" x="0.33000000000000007" y="0.33828393305823923"/>
    <rect height="3.964728926571748e-2" width="3.000000000000025e-2" x="0.3599999999999999" y="0.3627096130911849"/>
    <rect height="2.3571128139787123e-2" width="2.9999999999999805e-2" x="0.3900000000000001" y="0.37878577421711523"/>
    <rect height="1.3464042038588253e-2" width="3.000000000000025e-2" x="0.41999999999999993" y="0.3888928603183141"/>
    <rect height="7.389222939636397e-3" width="2.9999999999999805e-2" x="0.4500000000000002" y="0.39496767941726596"/>
    <rect height="3.8962812756353493e-3" width="3.000000000000047e-2" x="0.48" y="0.398460621081267"/>
    <rect height="1.973922301272746e-3" width="2.9999999999999805e-2" x="0.5100000000000002" y="0.4003829800556296"/>
    <rect height="9.608111332342073e-4" width="3.000000000000025e-2" x="0.54" y="0.40139609122366815"/>
    <rect height="4.493391097110111e-4" width="2.9999999999999805e-2" x="0.5700000000000003" y="0.40190756324719135"/>
    <rect height="2.019010767038143e-4" width="2.9999999999999805e-2" x="0.6000000000000001" y="0.40215500128019854"/>
    <rect height="8.716281950471583e-5" width="2.9999999999999805e-2" x="0.6300000000000003" y="0.40226973953739764"/>
    <rect height="3.61536480645297e-5" width="2.9999999999999805e-2" x="0.6600000000000001" y="0.4023207487088378"/>
    <rect height="1.4407917158398842e-5" width="2.9999999999999805e-2" x="0.6900000000000004" y="0.40234249443974396"/>
    <rect height="5.5166889816882225e-6" width="2.9999999999999805e-2" x="0.7200000000000002" y="0.40235138566792067"/>
  </g>
  <g stroke-opacity="0.0" fill-opacity="0.7" stroke="#000000" stroke-width="0.0" fill="#454e56">
    <rect height="2.2435070876570207e-2" width="2.9999999999999916e-2" x="-0.75" y="0.37992183148033215"/>
    <rect height="2.8520564789240366e-2" width="2.9999999999999916e-2" x="-0.72" y="0.373836337567662"/>
    <rect height="3.589598312693221e-2" width="2.9999999999999916e-2" x="-0.69" y="0.36646091922997015"/>
    <rect height="4.472914929602745e-2" width="2.9999999999999916e-2" x="-0.66" y="0.3576277530608749"/>
    <rect height="5.518137012703872e-2" width="2.9999999999999916e-2" x="-0.63" y="0.34717553222986364"/>
    <rect height="6.73986776722223e-2" width="3.0000000000000027e-2" x="-0.6" y="0.33495822468468006"/>
    <rect height="8.150182385776561e-2" width="3.0000000000000027e-2" x="-0.57" y="0.32085507849913675"/>
    <rect height="9.757539864861237e-2" width="3.0000000000000027e-2" x="-0.5399999999999999" y="0.30478150370829"/>
    <rect height="0.11565659338771883" width="3.0000000000000082e-2" x="-0.51" y="0.2867003089691835"/>
    <rect height="0.13572426964236756" width="3.0000000000000027e-2" x="-0.48" y="0.2666326327145348"/>
    <rect height="0.15768910403978942" width="3.0000000000000027e-2" x="-0.44999999999999996" y="0.24466779831711294"/>
    <rect height="0.18138564474224111" width="3.0000000000000027e-2" x="-0.41999999999999993" y="0.22097125761466124"/>
    <rect height="0.20656712056010068" width="3.0000000000000027e-2" x="-0.3899999999999999" y="0.19578978179680168"/>
    <rect height="0.23290377807133084" width="3.0000000000000027e-2" x="-0.36" y="0.16945312428557152"/>
    <rect height="0.25998537998804644" width="3.0000000000000027e-2" x="-0.32999999999999996" y="0.14237152236885592"/>
    <rect height="0.28732828108763525" width="3.0000000000000027e-2" x="-0.29999999999999993" y="0.1150286212692671"/>
    <rect height="0.3143872161473127" width="3.0000000000000027e-2" x="-0.2699999999999999" y="8.796968620958967e-2"/>
    <rect height="0.34057160549471577" width="3.0000000000000027e-2" x="-0.23999999999999988" y="6.178529686218659e-2"/>
    <rect height="0.3652658331959661" width="3.0000000000000027e-2" x="-0.20999999999999996" y="3.709106916093624e-2"/>
    <rect height="0.387852610891818" width="3.0000000000000027e-2" x="-0.17999999999999994" y="1.4504291465084362e-2"/>
    <rect height="0.4077382394845449" width="3.0000000000000027e-2" x="-0.1499999999999999" y="-5.381337127642549e-3"/>
    <rect height="0.42437835270575064" width="3.0000000000000027e-2" x="-0.11999999999999988" y="-2.202145034884828e-2"/>
    <rect height="0.43730259765736545" width="3.0000000000000027e-2" x="-8.999999999999986e-2" y="-3.49456953004631e-2"/>
    <rect height="0.4461366961272255" width="3.0000000000000027e-2" x="-5.999999999999983e-2" y="-4.377979377032315e-2"/>
    <rect height="0.45062044446568283" width="3.0000000000000027e-2" x="-2.9999999999999805e-2" y="-4.826354210878048e-2"/>
    <rect height="0.45062044446568283" width="3.0000000000000027e-2" x="0.0" y="-4.826354210878048e-2"/>
    <rect height="0.4461366961272255" width="3.0000000000000027e-2" x="3.0000000000000027e-2" y="-4.377979377032315e-2"/>
    <rect height="0.43730259765736545" width="3.0000000000000027e-2" x="6.000000000000005e-2" y="-3.49456953004631e-2"/>
    <rect height="0.42437835270575053" width="3.0000000000000027e-2" x="9.000000000000008e-2" y="-2.202145034884817e-2"/>
    <rect height="0.4077382394845449" width="3.0000000000000027e-2" x="0.1200000000000001" y="-5.381337127642549e-3"/>
    <rect height="0.3878526108918179" width="3.0000000000000027e-2" x="0.15000000000000013" y="1.4504291465084473e-2"/>
    <rect height="0.3652658331959661" width="3.0000000000000027e-2" x="0.18000000000000016" y="3.709106916093624e-2"/>
    <rect height="0.34057160549471566" width="3.0000000000000027e-2" x="0.2100000000000002" y="6.17852968621867e-2"/>
    <rect height="0.3143872161473126" width="3.0000000000000027e-2" x="0.2400000000000002" y="8.796968620958978e-2"/>
    <rect height="0.28732828108763514" width="3.0000000000000027e-2" x="0.27000000000000024" y="0.11502862126926722"/>
    <rect height="0.25998537998804633" width="3.000000000000025e-2" x="0.2999999999999998" y="0.14237152236885603"/>
    <rect height="0.23290377807133078" width="2.9999999999999805e-2" x="0.33000000000000007" y="0.16945312428557158"/>
    <rect height="0.20656712056010063" width="3.000000000000025e-2" x="0.3599999999999999" y="0.19578978179680173"/>
    <rect height="0.18138564474224106" width="2.9999999999999805e-2" x="0.3900000000000001" y="0.2209712576146613"/>
    <rect height="0.1576891040397893" width="3.000000000000025e-2" x="0.41999999999999993" y="0.24466779831711305"/>
    <rect height="0.13572426964236756" width="2.9999999999999805e-2" x="0.4500000000000002" y="0.2666326327145348"/>
    <rect height="0.11565659338771872" width="3.000000000000047e-2" x="0.48" y="0.28670030896918364"/>
    <rect height="9.757539864861231e-2" width="2.9999999999999805e-2" x="0.5100000000000002" y="0.30478150370829005"/>
    <rect height="8.150182385776561e-2" width="3.000000000000025e-2" x="0.54" y="0.32085507849913675"/>
    <rect height="6.739867767222224e-2" width="2.9999999999999805e-2" x="0.5700000000000003" y="0.3349582246846801"/>
    <rect height="5.518137012703872e-2" width="2.9999999999999805e-2" x="0.6000000000000001" y="0.34717553222986364"/>
    <rect height="4.472914929602745e-2" width="2.9999999999999805e-2" x="0.6300000000000003" y="0.3576277530608749"/>
    <rect height="3.589598312693221e-2" width="2.9999999999999805e-2" x="0.6600000000000001" y="0.36646091922997015"/>
    <rect height="2.852056478924031e-2" width="2.9999999999999805e-2" x="0.6900000000000004" y="0.37383633756766205"/>
    <rect height="2.2435070876570207e-2" width="2.9999999999999805e-2" x="0.7200000000000002" y="0.37992183148033215"/>
  </g>
</svg>