<svg viewBox="-0.6783 -0.51 1.3566 1.02" xmlns="http://www.w3.org/2000/svg" xmlns:xlink="http://www.w3.org/1999/xlink" version="1.1" width="800.0" height="600.0"><g stroke-width="0.0" stroke="#000000" fill="#5DA5DA" fill-opacity="0.5" stroke-opacity="0.0"><rect width="2.6599999999999957e-2" height="6.144212353342837e-6" x="-0.665" y="0.49999385578764666" /><rect width="2.6599999999999846e-2" height="1.6046817735149155e-5" x="-0.6384" y="0.49998395318226485" /><rect width="2.6599999999999957e-2" height="4.02661255318737e-5" x="-0.6118" y="0.4999597338744681" /><rect width="2.6599999999999846e-2" height="9.707759022337115e-5" x="-0.5852" y="0.49990292240977663" /><rect width="2.6599999999999846e-2" height="2.248673241788679e-4" x="-0.5586" y="0.49977513267582113" /><rect width="2.6600000000000068e-2" height="5.004514334406296e-4" x="-0.532" y="0.49949954856655937" /><rect width="2.6599999999999957e-2" height="1.0701033996395881e-3" x="-0.5054" y="0.4989298966003604" /><rect width="2.6600000000000068e-2" height="2.1984559630425227e-3" x="-0.4788" y="0.4978015440369575" /><rect width="2.6600000000000013e-2" height="4.339483270738909e-3" x="-0.4522" y="0.4956605167292611" /><rect width="2.6600000000000013e-2" height="8.22974704902002e-3" x="-0.42560000000000003" y="0.49177025295098" /><rect width="2.6600000000000013e-2" height="1.4995576820477696e-2" x="-0.399" y="0.4850044231795223" /><rect width="2.6600000000000068e-2" height="2.6252343965687985e-2" x="-0.3724" y="0.473747656034312" /><rect width="2.6600000000000013e-2" height="4.4157168419692916e-2" x="-0.34579999999999994" y="0.4558428315803071" /><rect width="2.6600000000000013e-2" height="7.136126955638611e-2" x="-0.3192" y="0.4286387304436139" /><rect width="2.6600000000000013e-2" height="0.11080315836233395" x="-0.29259999999999997" y="0.38919684163766605" /><rect width="2.6600000000000013e-2" height="0.16529888822158656" x="-0.26599999999999996" y="0.33470111177841344" /><rect width="2.6600000000000068e-2" height="0.23692775868212185" x="-0.23939999999999995" y="0.26307224131787815" /><rect width="2.6600000000000013e-2" height="0.3262797946230397" x="-0.21279999999999988" y="0.1737202053769603" /><rect width="2.6600000000000013e-2" height="0.4317105234290798" x="-0.18619999999999998" y="6.828947657092022e-2" /><rect width="2.6599999999999957e-2" height="0.5488116360940266" x="-0.15959999999999996" y="-4.881163609402661e-2" /><rect width="2.6600000000000068e-2" height="0.6703200460356392" x="-0.133" y="-0.17032004603563922" /><rect width="2.6599999999999957e-2" height="0.7866278610665535" x="-0.10639999999999994" y="-0.28662786106655347" /><rect width="2.6600000000000068e-2" height="0.8869204367171576" x="-7.979999999999998e-2" y="-0.3869204367171576" /><rect width="2.6600000000000068e-2" height="0.9607894391523233" x="-5.3199999999999914e-2" y="-0.4607894391523233" /><rect width="2.6599999999999957e-2" height="1.0" x="-2.6599999999999846e-2" y="-0.5" /><rect width="2.6600000000000068e-2" height="0.9999999999999999" y="-0.4999999999999999" /><rect width="2.6599999999999957e-2" height="0.9607894391523231" x="2.6600000000000068e-2" y="-0.46078943915232307" /><rect width="2.6600000000000068e-2" height="0.8869204367171573" x="5.3200000000000025e-2" y="-0.38692043671715726" /><rect width="2.6599999999999957e-2" height="0.786627861066553" x="7.98000000000001e-2" y="-0.286627861066553" /><rect width="2.6600000000000068e-2" height="0.6703200460356388" x="0.10640000000000005" y="-0.17032004603563877" /><rect width="2.6600000000000068e-2" height="0.5488116360940264" x="0.13300000000000012" y="-4.881163609402639e-2" /><rect width="2.6599999999999957e-2" height="0.43171052342907956" x="0.1596000000000002" y="6.828947657092044e-2" /><rect width="2.6600000000000068e-2" height="0.32627979462303924" x="0.18620000000000014" y="0.17372020537696076" /><rect width="2.6600000000000068e-2" height="0.23692775868212146" x="0.2128000000000002" y="0.26307224131787854" /><rect width="2.6599999999999957e-2" height="0.16529888822158628" x="0.23940000000000028" y="0.3347011117784137" /><rect width="2.6599999999999957e-2" height="0.11080315836233384" x="0.2660000000000001" y="0.38919684163766616" /><rect width="2.6600000000000068e-2" height="7.1361269556386e-2" x="0.2926000000000001" y="0.428638730443614" /><rect width="2.6599999999999957e-2" height="4.4157168419692805e-2" x="0.31920000000000015" y="0.4558428315803072" /><rect width="2.660000000000018e-2" height="2.625234396568793e-2" x="0.3458000000000001" y="0.47374765603431207" /><rect width="2.6599999999999735e-2" height="1.499557682047764e-2" x="0.3724000000000003" y="0.48500442317952236" /><rect width="2.6599999999999957e-2" height="8.22974704902002e-3" x="0.399" y="0.49177025295098" /><rect width="2.660000000000018e-2" height="4.339483270738853e-3" x="0.4256000000000002" y="0.49566051672926115" /><rect width="2.660000000000018e-2" height="2.1984559630425227e-3" x="0.45220000000000016" y="0.4978015440369575" /><rect width="2.6599999999999957e-2" height="1.0701033996395881e-3" x="0.4788000000000001" y="0.4989298966003604" /><rect width="2.6599999999999957e-2" height="5.004514334406296e-4" x="0.5054000000000001" y="0.49949954856655937" /><rect width="2.6599999999999957e-2" height="2.248673241788679e-4" x="0.532" y="0.49977513267582113" /><rect width="2.6599999999999957e-2" height="9.707759022337115e-5" x="0.5586000000000002" y="0.49990292240977663" /><rect width="2.6599999999999735e-2" height="4.02661255318737e-5" x="0.5852000000000002" y="0.4999597338744681" /><rect width="2.6599999999999735e-2" height="1.6046817735149155e-5" x="0.6118000000000003" y="0.49998395318226485" /><rect width="2.6599999999999957e-2" height="6.144212353342837e-6" x="0.6384000000000001" y="0.49999385578764666" /></g></svg>