<svg xmlns="http://www.w3.org/2000/svg" xmlns:xlink="http://www.w3.org/1999/xlink" width="448" height="300" viewBox="-0.7507 -0.5 1.5015 1.0037"><style>svg {
  color-scheme: light dark;
}
{
  .canvas g, .title g, .axisbar g, .ticktext g, .tickglyph g, .ticklines g, .legendContent g text {
    fill: rgb(5%, 5%, 5%);
  }
  .ticklines g, .tickglyph g, .legendBorder g {
    stroke: rgb(5%, 5%, 5%);
  }
  .legendBorder g {
    fill: rgb(94%, 94%, 94%);
  }
}
@media (prefers-color-scheme:dark) {
  .canvas g, .title g, .axisbar g, .ticktext g, .tickglyph g, .ticklines g, .legendContent g text {
    fill: rgb(94%, 94%, 94%);
  }
  .ticklines g, .tickglyph g, .legendBorder g {
    stroke: rgb(94%, 94%, 94%);
  }
  .legendBorder g {
    fill: rgb(5%, 5%, 5%);
  }
}
svg { font-family: system-ui,-apple-system,"Segoe UI",Roboto,"Helvetica Neue",Arial,"Noto Sans","Liberation Sans",sans-serif,"Apple Color Emoji","Segoe UI Emoji","Segoe UI Symbol","Noto Color Emoji";
}

ticktext { font-family: SFMono-Regular,Menlo,Monaco,Consolas,"Liberation Mono","Courier New",monospace;
}

</style><g class="chart"><g class="rect"><g stroke-width="0" stroke="rgb(0%, 0%, 0%)" stroke-opacity="0" fill="rgb(2%, 29%, 48%)" fill-opacity="0.4"><rect width="0.0242" height="0.0000" x="-0.6056" y="0.3857"/><rect width="0.0242" height="0.0000" x="-0.5814" y="0.3857"/><rect width="0.0242" height="0.0000" x="-0.5572" y="0.3857"/><rect width="0.0242" height="0.0001" x="-0.5329" y="0.3857"/><rect width="0.0242" height="0.0002" x="-0.5087" y="0.3855"/><rect width="0.0242" height="0.0004" x="-0.4845" y="0.3853"/><rect width="0.0242" height="0.0009" x="-0.4603" y="0.3848"/><rect width="0.0242" height="0.0019" x="-0.4360" y="0.3838"/><rect width="0.0242" height="0.0038" x="-0.4118" y="0.3819"/><rect width="0.0242" height="0.0073" x="-0.3876" y="0.3785"/><rect width="0.0242" height="0.0133" x="-0.3634" y="0.3725"/><rect width="0.0242" height="0.0233" x="-0.3391" y="0.3625"/><rect width="0.0242" height="0.0391" x="-0.3149" y="0.3466"/><rect width="0.0242" height="0.0632" x="-0.2907" y="0.3225"/><rect width="0.0242" height="0.0981" x="-0.2665" y="0.2876"/><rect width="0.0242" height="0.1464" x="-0.2422" y="0.2393"/><rect width="0.0242" height="0.2099" x="-0.2180" y="0.1759"/><rect width="0.0242" height="0.2890" x="-0.1938" y="0.0967"/><rect width="0.0242" height="0.3824" x="-0.1696" y="0.0034"/><rect width="0.0242" height="0.4861" x="-0.1453" y="-0.1004"/><rect width="0.0242" height="0.5937" x="-0.1211" y="-0.2080"/><rect width="0.0242" height="0.6967" x="-0.0969" y="-0.3110"/><rect width="0.0242" height="0.7856" x="-0.0727" y="-0.3998"/><rect width="0.0242" height="0.8510" x="-0.0484" y="-0.4653"/><rect width="0.0242" height="0.8857" x="-0.0242" y="-0.5"/><rect width="0.0242" height="0.8857" x="0" y="-0.5"/><rect width="0.0242" height="0.8510" x="0.0242" y="-0.4653"/><rect width="0.0242" height="0.7856" x="0.0484" y="-0.3998"/><rect width="0.0242" height="0.6967" x="0.0727" y="-0.3110"/><rect width="0.0242" height="0.5937" x="0.0969" y="-0.2080"/><rect width="0.0242" height="0.4861" x="0.1211" y="-0.1004"/><rect width="0.0242" height="0.3824" x="0.1453" y="0.0034"/><rect width="0.0242" height="0.2890" x="0.1696" y="0.0967"/><rect width="0.0242" height="0.2099" x="0.1938" y="0.1759"/><rect width="0.0242" height="0.1464" x="0.2180" y="0.2393"/><rect width="0.0242" height="0.0981" x="0.2422" y="0.2876"/><rect width="0.0242" height="0.0632" x="0.2665" y="0.3225"/><rect width="0.0242" height="0.0391" x="0.2907" y="0.3466"/><rect width="0.0242" height="0.0233" x="0.3149" y="0.3625"/><rect width="0.0242" height="0.0133" x="0.3391" y="0.3725"/><rect width="0.0242" height="0.0073" x="0.3634" y="0.3785"/><rect width="0.0242" height="0.0038" x="0.3876" y="0.3819"/><rect width="0.0242" height="0.0019" x="0.4118" y="0.3838"/><rect width="0.0242" height="0.0009" x="0.4360" y="0.3848"/><rect width="0.0242" height="0.0004" x="0.4603" y="0.3853"/><rect width="0.0242" height="0.0002" x="0.4845" y="0.3855"/><rect width="0.0242" height="0.0001" x="0.5087" y="0.3857"/><rect width="0.0242" height="0.0000" x="0.5329" y="0.3857"/><rect width="0.0242" height="0.0000" x="0.5572" y="0.3857"/><rect width="0.0242" height="0.0000" x="0.5814" y="0.3857"/></g><g stroke-width="0" stroke="rgb(0%, 0%, 0%)" stroke-opacity="0" fill="rgb(66%, 7%, 55%)" fill-opacity="0.4"><rect width="0.0242" height="0.0221" x="-0.6056" y="0.3636"/><rect width="0.0242" height="0.0281" x="-0.5814" y="0.3576"/><rect width="0.0242" height="0.0354" x="-0.5572" y="0.3503"/><rect width="0.0242" height="0.0441" x="-0.5329" y="0.3416"/><rect width="0.0242" height="0.0544" x="-0.5087" y="0.3313"/><rect width="0.0242" height="0.0665" x="-0.4845" y="0.3193"/><rect width="0.0242" height="0.0804" x="-0.4603" y="0.3053"/><rect width="0.0242" height="0.0963" x="-0.4360" y="0.2895"/><rect width="0.0242" height="0.1141" x="-0.4118" y="0.2716"/><rect width="0.0242" height="0.1339" x="-0.3876" y="0.2518"/><rect width="0.0242" height="0.1556" x="-0.3634" y="0.2302"/><rect width="0.0242" height="0.1789" x="-0.3391" y="0.2068"/><rect width="0.0242" height="0.2038" x="-0.3149" y="0.1820"/><rect width="0.0242" height="0.2298" x="-0.2907" y="0.1560"/><rect width="0.0242" height="0.2565" x="-0.2665" y="0.1293"/><rect width="0.0242" height="0.2834" x="-0.2422" y="0.1023"/><rect width="0.0242" height="0.3101" x="-0.2180" y="0.0756"/><rect width="0.0242" height="0.3360" x="-0.1938" y="0.0498"/><rect width="0.0242" height="0.3603" x="-0.1696" y="0.0254"/><rect width="0.0242" height="0.3826" x="-0.1453" y="0.0031"/><rect width="0.0242" height="0.4022" x="-0.1211" y="-0.0165"/><rect width="0.0242" height="0.4186" x="-0.0969" y="-0.0329"/><rect width="0.0242" height="0.4314" x="-0.0727" y="-0.0457"/><rect width="0.0242" height="0.4401" x="-0.0484" y="-0.0544"/><rect width="0.0242" height="0.4445" x="-0.0242" y="-0.0588"/><rect width="0.0242" height="0.4445" x="0" y="-0.0588"/><rect width="0.0242" height="0.4401" x="0.0242" y="-0.0544"/><rect width="0.0242" height="0.4314" x="0.0484" y="-0.0457"/><rect width="0.0242" height="0.4186" x="0.0727" y="-0.0329"/><rect width="0.0242" height="0.4022" x="0.0969" y="-0.0165"/><rect width="0.0242" height="0.3826" x="0.1211" y="0.0031"/><rect width="0.0242" height="0.3603" x="0.1453" y="0.0254"/><rect width="0.0242" height="0.3360" x="0.1696" y="0.0498"/><rect width="0.0242" height="0.3101" x="0.1938" y="0.0756"/><rect width="0.0242" height="0.2834" x="0.2180" y="0.1023"/><rect width="0.0242" height="0.2565" x="0.2422" y="0.1293"/><rect width="0.0242" height="0.2298" x="0.2665" y="0.1560"/><rect width="0.0242" height="0.2038" x="0.2907" y="0.1820"/><rect width="0.0242" height="0.1789" x="0.3149" y="0.2068"/><rect width="0.0242" height="0.1556" x="0.3391" y="0.2302"/><rect width="0.0242" height="0.1339" x="0.3634" y="0.2518"/><rect width="0.0242" height="0.1141" x="0.3876" y="0.2716"/><rect width="0.0242" height="0.0963" x="0.4118" y="0.2895"/><rect width="0.0242" height="0.0804" x="0.4360" y="0.3053"/><rect width="0.0242" height="0.0665" x="0.4603" y="0.3193"/><rect width="0.0242" height="0.0544" x="0.4845" y="0.3313"/><rect width="0.0242" height="0.0441" x="0.5087" y="0.3416"/><rect width="0.0242" height="0.0354" x="0.5329" y="0.3503"/><rect width="0.0242" height="0.0281" x="0.5572" y="0.3576"/><rect width="0.0242" height="0.0221" x="0.5814" y="0.3636"/></g></g><g class="datapadding"></g></g><g class="hud"><g class="axis"><g class="axisbar"><g stroke-width="0" stroke="rgb(0%, 0%, 0%)" stroke-opacity="0" fill="rgb(5%, 5%, 5%)" fill-opacity="0.4"><rect width="1.4574" height="0.0035" x="-0.7287" y="0.3946"/></g></g><g class="ticks"><g class="tickglyph"><g stroke-width="0.0035" stroke="rgb(5%, 5%, 5%)" stroke-opacity="0.4" fill="rgb(5%, 5%, 5%)" fill-opacity="0.4"><polyline points="-0.7267,0.4229
-0.7267,0.3964"/><polyline points="-0.4845,0.4229
-0.4845,0.3964"/><polyline points="-0.2422,0.4229
-0.2422,0.3964"/><polyline points="0,0.4229
0,0.3964"/><polyline points="0.2422,0.4229
0.2422,0.3964"/><polyline points="0.4845,0.4229
0.4845,0.3964"/><polyline points="0.7267,0.4229
0.7267,0.3964"/></g></g><g class="ticktext"><g stroke-width="0.0" stroke="none" fill="rgb(5%, 5%, 5%)" fill-opacity="1.0" font-size="0.0400" text-anchor="middle"><text x="-0.7267" y="0.4717">-6</text><text x="-0.4845" y="0.4717">-4</text><text x="-0.2422" y="0.4717">-2</text><text x="0" y="0.4717"> 0</text><text x="0.2422" y="0.4717"> 2</text><text x="0.4845" y="0.4717"> 4</text><text x="0.7267" y="0.4717"> 6</text></g></g></g></g></g></svg>