<svg xmlns="http://www.w3.org/2000/svg" height="300.0" viewBox="-0.795 -0.5225 1.5775000000000001 1.06875" width="450.0" xmlns:xlink="http://www.w3.org/1999/xlink"><g stroke-opacity="0.0" fill-opacity="0.1" stroke="#000000" stroke-width="0.0" fill="#cccccc"><rect height="0.8958566629339307" width="1.5" x="-0.75" y="-0.4955207166853305"/></g><g stroke-opacity="0.1" stroke="#808080" stroke-width="5.0e-3" fill="none"><polyline points="-0.75,0.40481522956326993
-0.75,-0.5"/></g><g stroke-opacity="0.1" stroke="#808080" stroke-width="5.0e-3" fill="none"><polyline points="-0.6,0.40481522956326993
-0.6,-0.5"/></g><g stroke-opacity="0.1" stroke="#808080" stroke-width="5.0e-3" fill="none"><polyline points="-0.44999999999999996,0.40481522956326993
-0.44999999999999996,-0.5"/></g><g stroke-opacity="0.1" stroke="#808080" stroke-width="5.0e-3" fill="none"><polyline points="-0.3000000000000001,0.40481522956326993
-0.3000000000000001,-0.5"/></g><g stroke-opacity="0.1" stroke="#808080" stroke-width="5.0e-3" fill="none"><polyline points="-0.1499999999999999,0.40481522956326993
-0.1499999999999999,-0.5"/></g><g stroke-opacity="0.1" stroke="#808080" stroke-width="5.0e-3" fill="none"><polyline points="0.0,0.40481522956326993
0.0,-0.5"/></g><g stroke-opacity="0.1" stroke="#808080" stroke-width="5.0e-3" fill="none"><polyline points="0.1499999999999998,0.40481522956326993
0.1499999999999998,-0.5"/></g><g stroke-opacity="0.1" stroke="#808080" stroke-width="5.0e-3" fill="none"><polyline points="0.2999999999999998,0.40481522956326993
0.2999999999999998,-0.5"/></g><g stroke-opacity="0.1" stroke="#808080" stroke-width="5.0e-3" fill="none"><polyline points="0.4500000000000002,0.40481522956326993
0.4500000000000002,-0.5"/></g><g stroke-opacity="0.1" stroke="#808080" stroke-width="5.0e-3" fill="none"><polyline points="0.6000000000000001,0.40481522956326993
0.6000000000000001,-0.5"/></g><g stroke-opacity="0.1" stroke="#808080" stroke-width="5.0e-3" fill="none"><polyline points="0.75,0.40481522956326993
0.75,-0.5"/></g><g fill-opacity="0.8" font-size="5.0e-2" stroke="none" stroke-width="0.0" fill="#333333" text-anchor="middle"><text x="-0.75" y="0.5">-5</text></g><g fill-opacity="0.8" font-size="5.0e-2" stroke="none" stroke-width="0.0" fill="#333333" text-anchor="middle"><text x="-0.6" y="0.5">-4</text></g><g fill-opacity="0.8" font-size="5.0e-2" stroke="none" stroke-width="0.0" fill="#333333" text-anchor="middle"><text x="-0.44999999999999996" y="0.5">-3</text></g><g fill-opacity="0.8" font-size="5.0e-2" stroke="none" stroke-width="0.0" fill="#333333" text-anchor="middle"><text x="-0.3000000000000001" y="0.5">-2</text></g><g fill-opacity="0.8" font-size="5.0e-2" stroke="none" stroke-width="0.0" fill="#333333" text-anchor="middle"><text x="-0.1499999999999999" y="0.5">-1</text></g><g fill-opacity="0.8" font-size="5.0e-2" stroke="none" stroke-width="0.0" fill="#333333" text-anchor="middle"><text x="0.0" y="0.5">0</text></g><g fill-opacity="0.8" font-size="5.0e-2" stroke="none" stroke-width="0.0" fill="#333333" text-anchor="middle"><text x="0.1499999999999998" y="0.5">1</text></g><g fill-opacity="0.8" font-size="5.0e-2" stroke="none" stroke-width="0.0" fill="#333333" text-anchor="middle"><text x="0.2999999999999998" y="0.5">2</text></g><g fill-opacity="0.8" font-size="5.0e-2" stroke="none" stroke-width="0.0" fill="#333333" text-anchor="middle"><text x="0.4500000000000002" y="0.5">3</text></g><g fill-opacity="0.8" font-size="5.0e-2" stroke="none" stroke-width="0.0" fill="#333333" text-anchor="middle"><text x="0.6000000000000001" y="0.5">4</text></g><g fill-opacity="0.8" font-size="5.0e-2" stroke="none" stroke-width="0.0" fill="#333333" text-anchor="middle"><text x="0.75" y="0.5">5</text></g><g stroke-opacity="0.5" fill-opacity="0.5" stroke="#570d66" stroke-width="5.0e-3" fill="#570d66"><polyline points="-0.75,0.4399720044792833
-0.75,0.4099720044792833"/><polyline points="-0.6,0.4399720044792833
-0.6,0.4099720044792833"/><polyline points="-0.44999999999999996,0.4399720044792833
-0.44999999999999996,0.4099720044792833"/><polyline points="-0.3000000000000001,0.4399720044792833
-0.3000000000000001,0.4099720044792833"/><polyline points="-0.1499999999999999,0.4399720044792833
-0.1499999999999999,0.4099720044792833"/><polyline points="0.0,0.4399720044792833
0.0,0.4099720044792833"/><polyline points="0.1499999999999998,0.4399720044792833
0.1499999999999998,0.4099720044792833"/><polyline points="0.2999999999999998,0.4399720044792833
0.2999999999999998,0.4099720044792833"/><polyline points="0.4500000000000002,0.4399720044792833
0.4500000000000002,0.4099720044792833"/><polyline points="0.6000000000000001,0.4399720044792833
0.6000000000000001,0.4099720044792833"/><polyline points="0.75,0.4399720044792833
0.75,0.4099720044792833"/></g><g stroke-opacity="0.5" fill-opacity="0.5" stroke="#570d66" stroke-width="0.0" fill="#570d66"><rect height="4.47928331466968e-3" width="1.5" x="-0.75" y="0.40929451287793955"/></g><g stroke-opacity="0.0" fill-opacity="0.2" stroke="#000000" stroke-width="0.0" fill="#0ea194"><rect height="5.504333575212517e-6" width="2.9999999999999916e-2" x="-0.75" y="0.40033044191502504"/><rect height="1.4375648586917311e-5" width="2.9999999999999916e-2" x="-0.72" y="0.40032157060001333"/><rect height="3.6072676848242224e-5" width="2.9999999999999916e-2" x="-0.69" y="0.400299873571752"/><rect height="8.696760602316944e-5" width="2.9999999999999916e-2" x="-0.66" y="0.4002489786425771"/><rect height="2.014488906417755e-4" width="2.9999999999999916e-2" x="-0.63" y="0.4001344973579585"/><rect height="4.483327511226043e-4" width="3.0000000000000027e-2" x="-0.6" y="0.39988761349747765"/><rect height="9.586592605953514e-4" width="3.0000000000000027e-2" x="-0.57" y="0.3993772869880049"/><rect height="1.969501422658504e-3" width="3.0000000000000027e-2" x="-0.5399999999999999" y="0.39836644482594175"/><rect height="3.887555001781784e-3" width="3.0000000000000082e-2" x="-0.51" y="0.39644839124681847"/><rect height="7.372673728125445e-3" width="3.0000000000000027e-2" x="-0.48" y="0.3929632725204748"/><rect height="1.3433887409162515e-2" width="3.0000000000000027e-2" x="-0.44999999999999996" y="0.38690205883943773"/><rect height="2.3518337259294975e-2" width="3.0000000000000027e-2" x="-0.41999999999999993" y="0.3768176089893053"/><rect height="3.955849354507768e-2" width="3.0000000000000027e-2" x="-0.3899999999999999" y="0.36077745270352257"/><rect height="6.392946880751271e-2" width="3.0000000000000027e-2" x="-0.36" y="0.33640647744108754"/><rect height="9.926374769302038e-2" width="3.0000000000000027e-2" x="-0.32999999999999996" y="0.3010721985555799"/><rect height="0.14808411038887936" width="3.0000000000000027e-2" x="-0.29999999999999993" y="0.2522518358597209"/><rect height="0.2122533112493813" width="3.0000000000000027e-2" x="-0.2699999999999999" y="0.18808263499921896"/><rect height="0.2922999279937646" width="3.0000000000000027e-2" x="-0.23999999999999988" y="0.10803601825483566"/><rect height="0.3867507488726359" width="3.0000000000000027e-2" x="-0.20999999999999996" y="1.3585197375964364e-2"/><rect height="0.49165656089050536" width="3.0000000000000027e-2" x="-0.17999999999999994" y="-9.13206146419051e-2"/><rect height="0.6005106795392064" width="3.0000000000000027e-2" x="-0.1499999999999999" y="-0.2001747332906062"/><rect height="0.7047058105859382" width="3.0000000000000027e-2" x="-0.11999999999999988" y="-0.3043698643373379"/><rect height="0.7945535827253372" width="3.0000000000000027e-2" x="-8.999999999999986e-2" y="-0.3942176364767369"/><rect height="0.860729620741163" width="3.0000000000000027e-2" x="-5.999999999999983e-2" y="-0.46039367449256274"/><rect height="0.8958566629339307" width="3.0000000000000027e-2" x="-2.9999999999999805e-2" y="-0.4955207166853305"/><rect height="0.8958566629339305" width="3.0000000000000027e-2" x="0.0" y="-0.49552071668533026"/><rect height="0.860729620741163" width="3.0000000000000027e-2" x="3.0000000000000027e-2" y="-0.46039367449256274"/><rect height="0.7945535827253369" width="3.0000000000000027e-2" x="6.000000000000005e-2" y="-0.3942176364767367"/><rect height="0.7047058105859378" width="3.0000000000000027e-2" x="9.000000000000008e-2" y="-0.3043698643373376"/><rect height="0.6005106795392061" width="3.0000000000000027e-2" x="0.1200000000000001" y="-0.20017473329060587"/><rect height="0.49165656089050513" width="3.0000000000000027e-2" x="0.15000000000000013" y="-9.132061464190488e-2"/><rect height="0.38675074887263566" width="3.0000000000000027e-2" x="0.18000000000000016" y="1.3585197375964586e-2"/><rect height="0.2922999279937642" width="3.0000000000000027e-2" x="0.2100000000000002" y="0.10803601825483605"/><rect height="0.21225331124938096" width="3.0000000000000027e-2" x="0.2400000000000002" y="0.1880826349992193"/><rect height="0.1480841103888791" width="3.0000000000000027e-2" x="0.27000000000000024" y="0.25225183585972116"/><rect height="9.926374769302027e-2" width="3.000000000000025e-2" x="0.2999999999999998" y="0.30107219855558"/><rect height="6.392946880751266e-2" width="2.9999999999999805e-2" x="0.33000000000000007" y="0.3364064774410876"/><rect height="3.955849354507757e-2" width="3.000000000000025e-2" x="0.3599999999999999" y="0.3607774527035227"/><rect height="2.3518337259294864e-2" width="2.9999999999999805e-2" x="0.3900000000000001" y="0.3768176089893054"/><rect height="1.3433887409162515e-2" width="3.000000000000025e-2" x="0.41999999999999993" y="0.38690205883943773"/><rect height="7.372673728125445e-3" width="2.9999999999999805e-2" x="0.4500000000000002" y="0.3929632725204748"/><rect height="3.8875550017817284e-3" width="3.000000000000047e-2" x="0.48" y="0.3964483912468185"/><rect height="1.969501422658504e-3" width="2.9999999999999805e-2" x="0.5100000000000002" y="0.39836644482594175"/><rect height="9.586592605953514e-4" width="3.000000000000025e-2" x="0.54" y="0.3993772869880049"/><rect height="4.483327511226043e-4" width="2.9999999999999805e-2" x="0.5700000000000003" y="0.39988761349747765"/><rect height="2.014488906417755e-4" width="2.9999999999999805e-2" x="0.6000000000000001" y="0.4001344973579585"/><rect height="8.696760602316944e-5" width="2.9999999999999805e-2" x="0.6300000000000003" y="0.4002489786425771"/><rect height="3.6072676848242224e-5" width="2.9999999999999805e-2" x="0.6600000000000001" y="0.400299873571752"/><rect height="1.4375648586917311e-5" width="2.9999999999999805e-2" x="0.6900000000000004" y="0.40032157060001333"/><rect height="5.504333575212517e-6" width="2.9999999999999805e-2" x="0.7200000000000002" y="0.40033044191502504"/></g><g stroke-opacity="0.0" fill-opacity="0.7" stroke="#000000" stroke-width="0.0" fill="#0a865a"><rect height="2.2384824357249755e-2" width="2.9999999999999916e-2" x="-0.75" y="0.3779511218913505"/><rect height="2.8456688944247632e-2" width="2.9999999999999916e-2" x="-0.72" y="0.3718792573043526"/><rect height="3.581558898779014e-2" width="2.9999999999999916e-2" x="-0.69" y="0.3645203572608101"/><rect height="4.462897202996696e-2" width="2.9999999999999916e-2" x="-0.66" y="0.3557069742186333"/><rect height="5.505778363179337e-2" width="2.9999999999999916e-2" x="-0.63" y="0.3452781626168069"/><rect height="6.724772878605828e-2" width="3.0000000000000027e-2" x="-0.6" y="0.33308821746254197"/><rect height="8.131928897790497e-2" width="3.0000000000000027e-2" x="-0.57" y="0.3190166572706953"/><rect height="9.735686472106786e-2" width="3.0000000000000027e-2" x="-0.5399999999999999" y="0.3029790815275324"/><rect height="0.11539756406322232" width="3.0000000000000082e-2" x="-0.51" y="0.2849383821853779"/><rect height="0.13542029591416516" width="3.0000000000000027e-2" x="-0.48" y="0.2649156503344351"/><rect height="0.1573359369534741" width="3.0000000000000027e-2" x="-0.44999999999999996" y="0.24300000929512616"/><rect height="0.18097940589623385" width="3.0000000000000027e-2" x="-0.41999999999999993" y="0.2193565403523664"/><rect height="0.20610448423185856" width="3.0000000000000027e-2" x="-0.3899999999999999" y="0.19423146201674168"/><rect height="0.23238215706781157" width="3.0000000000000027e-2" x="-0.36" y="0.16795378918078868"/><rect height="0.2594031059007271" width="3.0000000000000027e-2" x="-0.32999999999999996" y="0.14093284034787312"/><rect height="0.286684768699981" width="3.0000000000000027e-2" x="-0.29999999999999993" y="0.11365117754861925"/><rect height="0.31368310144149564" width="3.0000000000000027e-2" x="-0.2699999999999999" y="8.665284480710461e-2"/><rect height="0.33980884713974435" width="3.0000000000000027e-2" x="-0.23999999999999988" y="6.05270991088559e-2"/><rect height="0.3644477686199393" width="3.0000000000000027e-2" x="-0.20999999999999996" y="3.588817762866092e-2"/><rect height="0.3869839600275586" width="3.0000000000000027e-2" x="-0.17999999999999994" y="1.3351986221041667e-2"/><rect height="0.4068250519381069" width="3.0000000000000027e-2" x="-0.1499999999999999" y="-6.489105689506669e-3"/><rect height="0.42342789726855967" width="3.0000000000000027e-2" x="-0.11999999999999988" y="-2.3091951019959422e-2"/><rect height="0.4363231965427913" width="3.0000000000000027e-2" x="-8.999999999999986e-2" y="-3.598725029419103e-2"/><rect height="0.44513750979771316" width="3.0000000000000027e-2" x="-5.999999999999983e-2" y="-4.480156354911291e-2"/><rect height="0.4496112161466107" width="3.0000000000000027e-2" x="-2.9999999999999805e-2" y="-4.9275269898010454e-2"/><rect height="0.4496112161466107" width="3.0000000000000027e-2" x="0.0" y="-4.9275269898010454e-2"/><rect height="0.44513750979771316" width="3.0000000000000027e-2" x="3.0000000000000027e-2" y="-4.480156354911291e-2"/><rect height="0.4363231965427913" width="3.0000000000000027e-2" x="6.000000000000005e-2" y="-3.598725029419103e-2"/><rect height="0.42342789726855967" width="3.0000000000000027e-2" x="9.000000000000008e-2" y="-2.3091951019959422e-2"/><rect height="0.4068250519381069" width="3.0000000000000027e-2" x="0.1200000000000001" y="-6.489105689506669e-3"/><rect height="0.38698396002755847" width="3.0000000000000027e-2" x="0.15000000000000013" y="1.3351986221041778e-2"/><rect height="0.3644477686199393" width="3.0000000000000027e-2" x="0.18000000000000016" y="3.588817762866092e-2"/><rect height="0.3398088471397443" width="3.0000000000000027e-2" x="0.2100000000000002" y="6.052709910885595e-2"/><rect height="0.3136831014414955" width="3.0000000000000027e-2" x="0.2400000000000002" y="8.665284480710472e-2"/><rect height="0.28668476869998083" width="3.0000000000000027e-2" x="0.27000000000000024" y="0.11365117754861942"/><rect height="0.25940310590072707" width="3.000000000000025e-2" x="0.2999999999999998" y="0.14093284034787318"/><rect height="0.2323821570678115" width="2.9999999999999805e-2" x="0.33000000000000007" y="0.16795378918078874"/><rect height="0.2061044842318585" width="3.000000000000025e-2" x="0.3599999999999999" y="0.19423146201674174"/><rect height="0.18097940589623374" width="2.9999999999999805e-2" x="0.3900000000000001" y="0.2193565403523665"/><rect height="0.15733593695347398" width="3.000000000000025e-2" x="0.41999999999999993" y="0.24300000929512627"/><rect height="0.13542029591416516" width="2.9999999999999805e-2" x="0.4500000000000002" y="0.2649156503344351"/><rect height="0.1153975640632221" width="3.000000000000047e-2" x="0.48" y="0.28493838218537815"/><rect height="9.735686472106786e-2" width="2.9999999999999805e-2" x="0.5100000000000002" y="0.3029790815275324"/><rect height="8.131928897790497e-2" width="3.000000000000025e-2" x="0.54" y="0.3190166572706953"/><rect height="6.724772878605823e-2" width="2.9999999999999805e-2" x="0.5700000000000003" y="0.333088217462542"/><rect height="5.505778363179337e-2" width="2.9999999999999805e-2" x="0.6000000000000001" y="0.3452781626168069"/><rect height="4.462897202996696e-2" width="2.9999999999999805e-2" x="0.6300000000000003" y="0.3557069742186333"/><rect height="3.581558898779014e-2" width="2.9999999999999805e-2" x="0.6600000000000001" y="0.3645203572608101"/><rect height="2.8456688944247577e-2" width="2.9999999999999805e-2" x="0.6900000000000004" y="0.3718792573043527"/><rect height="2.2384824357249755e-2" width="2.9999999999999805e-2" x="0.7200000000000002" y="0.3779511218913505"/></g></svg>