<?xml version='1.0' ?>
<svg viewBox="-0.9075000000000002 -0.6071000000000001 1.8150000000000004 1.2342000000000002" xmlns="http://www.w3.org/2000/svg" xmlns:xlink="http://www.w3.org/1999/xlink" version="1.1" width="300.0" height="200.0">
  <g stroke-width="1.0e-2" stroke="#5DA5DA" fill="#000000" fill-opacity="0.0" stroke-opacity="1.0">
    <rect width="1.6500000000000001" height="1.122" x="-0.8250000000000001" y="-0.551" />
  </g>
  <g stroke-width="0.0" stroke="#666666" fill="#FF0000" fill-opacity="0.3" stroke-opacity="0.3">
    <circle cy="0.5" r="2.0e-2" />
  </g>
  <g stroke-width="0.0" stroke="#000000" fill="#5DA5DA" fill-opacity="0.5" stroke-opacity="0.0">
    <rect width="2.9999999999999916e-2" height="6.144212353342837e-6" x="-0.75" y="0.49999385578764666" />
    <rect width="2.9999999999999916e-2" height="1.6046817735149155e-5" x="-0.72" y="0.49998395318226485" />
    <rect width="2.9999999999999916e-2" height="4.02661255318737e-5" x="-0.69" y="0.4999597338744681" />
    <rect width="2.9999999999999916e-2" height="9.707759022337115e-5" x="-0.66" y="0.49990292240977663" />
    <rect width="2.9999999999999916e-2" height="2.248673241788679e-4" x="-0.63" y="0.49977513267582113" />
    <rect width="3.0000000000000027e-2" height="5.004514334406296e-4" x="-0.6" y="0.49949954856655937" />
    <rect width="3.0000000000000027e-2" height="1.0701033996395881e-3" x="-0.57" y="0.4989298966003604" />
    <rect width="3.0000000000000027e-2" height="2.1984559630425227e-3" x="-0.5399999999999999" y="0.4978015440369575" />
    <rect width="3.0000000000000082e-2" height="4.339483270738909e-3" x="-0.51" y="0.4956605167292611" />
    <rect width="3.0000000000000027e-2" height="8.22974704902002e-3" x="-0.48" y="0.49177025295098" />
    <rect width="3.0000000000000027e-2" height="1.4995576820477696e-2" x="-0.44999999999999996" y="0.4850044231795223" />
    <rect width="3.0000000000000027e-2" height="2.6252343965687985e-2" x="-0.41999999999999993" y="0.473747656034312" />
    <rect width="3.0000000000000027e-2" height="4.4157168419692916e-2" x="-0.3899999999999999" y="0.4558428315803071" />
    <rect width="3.0000000000000027e-2" height="7.136126955638611e-2" x="-0.36" y="0.4286387304436139" />
    <rect width="3.0000000000000027e-2" height="0.11080315836233395" x="-0.32999999999999996" y="0.38919684163766605" />
    <rect width="3.0000000000000027e-2" height="0.16529888822158656" x="-0.29999999999999993" y="0.33470111177841344" />
    <rect width="3.0000000000000027e-2" height="0.23692775868212185" x="-0.2699999999999999" y="0.26307224131787815" />
    <rect width="3.0000000000000027e-2" height="0.3262797946230397" x="-0.23999999999999988" y="0.1737202053769603" />
    <rect width="3.0000000000000027e-2" height="0.4317105234290798" x="-0.20999999999999996" y="6.828947657092022e-2" />
    <rect width="3.0000000000000027e-2" height="0.5488116360940266" x="-0.17999999999999994" y="-4.881163609402661e-2" />
    <rect width="3.0000000000000027e-2" height="0.6703200460356392" x="-0.1499999999999999" y="-0.17032004603563922" />
    <rect width="3.0000000000000027e-2" height="0.7866278610665535" x="-0.11999999999999988" y="-0.28662786106655347" />
    <rect width="3.0000000000000027e-2" height="0.8869204367171576" x="-8.999999999999986e-2" y="-0.3869204367171576" />
    <rect width="3.0000000000000027e-2" height="0.9607894391523233" x="-5.999999999999983e-2" y="-0.4607894391523233" />
    <rect width="3.0000000000000027e-2" height="1.0" x="-2.9999999999999805e-2" y="-0.5" />
    <rect width="3.0000000000000027e-2" height="0.9999999999999999" y="-0.4999999999999999" />
    <rect width="3.0000000000000027e-2" height="0.9607894391523231" x="3.0000000000000027e-2" y="-0.46078943915232307" />
    <rect width="3.0000000000000027e-2" height="0.8869204367171573" x="6.000000000000005e-2" y="-0.38692043671715726" />
    <rect width="3.0000000000000027e-2" height="0.786627861066553" x="9.000000000000008e-2" y="-0.286627861066553" />
    <rect width="3.0000000000000027e-2" height="0.6703200460356388" x="0.1200000000000001" y="-0.17032004603563877" />
    <rect width="3.0000000000000027e-2" height="0.5488116360940264" x="0.15000000000000013" y="-4.881163609402639e-2" />
    <rect width="3.0000000000000027e-2" height="0.43171052342907956" x="0.18000000000000016" y="6.828947657092044e-2" />
    <rect width="3.0000000000000027e-2" height="0.32627979462303924" x="0.2100000000000002" y="0.17372020537696076" />
    <rect width="3.0000000000000027e-2" height="0.23692775868212146" x="0.2400000000000002" y="0.26307224131787854" />
    <rect width="3.0000000000000027e-2" height="0.16529888822158628" x="0.27000000000000024" y="0.3347011117784137" />
    <rect width="3.0000000000000027e-2" height="0.11080315836233384" x="0.30000000000000004" y="0.38919684163766616" />
    <rect width="3.0000000000000027e-2" height="7.1361269556386e-2" x="0.33000000000000007" y="0.428638730443614" />
    <rect width="3.0000000000000027e-2" height="4.4157168419692805e-2" x="0.3600000000000001" y="0.4558428315803072" />
    <rect width="3.0000000000000027e-2" height="2.625234396568793e-2" x="0.3900000000000001" y="0.47374765603431207" />
    <rect width="3.0000000000000027e-2" height="1.499557682047764e-2" x="0.42000000000000015" y="0.48500442317952236" />
    <rect width="2.9999999999999805e-2" height="8.22974704902002e-3" x="0.4500000000000002" y="0.49177025295098" />
    <rect width="3.000000000000025e-2" height="4.339483270738853e-3" x="0.4800000000000002" y="0.49566051672926115" />
    <rect width="3.0000000000000027e-2" height="2.1984559630425227e-3" x="0.5100000000000002" y="0.4978015440369575" />
    <rect width="3.000000000000025e-2" height="1.0701033996395881e-3" x="0.54" y="0.4989298966003604" />
    <rect width="2.9999999999999805e-2" height="5.004514334406296e-4" x="0.5700000000000003" y="0.49949954856655937" />
    <rect width="2.9999999999999805e-2" height="2.248673241788679e-4" x="0.6000000000000001" y="0.49977513267582113" />
    <rect width="2.9999999999999805e-2" height="9.707759022337115e-5" x="0.6300000000000003" y="0.49990292240977663" />
    <rect width="2.9999999999999805e-2" height="4.02661255318737e-5" x="0.6600000000000001" y="0.4999597338744681" />
    <rect width="2.9999999999999805e-2" height="1.6046817735149155e-5" x="0.6900000000000004" y="0.49998395318226485" />
    <rect width="2.9999999999999805e-2" height="6.144212353342837e-6" x="0.7200000000000002" y="0.49999385578764666" />
  </g>
</svg>
