<svg width="449.95117621872396" xmlns:xlink="http://www.w3.org/1999/xlink" xmlns="http://www.w3.org/2000/svg" viewBox="-0.7495399767287234 -0.5 1.4993324052526598 0.9996633976063829" height="300.0"><style>svg {
  color-scheme: light dark;
}
{
  .canvas g, .title g, .axisbar g, .ticktext g, .tickglyph g, .ticklines g, .legendContent g text {
    fill: #0d0d0d;
  }
  .ticklines g, .tickglyph g, .legendBorder g {
    stroke: #0d0d0d;
  }
}
@media (prefers-color-scheme:dark) {
  .canvas g, .title g, .axisbar g, .ticktext g, .tickglyph g, .ticklines g, .legendContent g text {
    fill: #f0f0f0;
  }
  .ticklines g, .tickglyph g, .legendBorder g {
    stroke: #f0f0f0;
  }
}</style><g class="chart"><g class="rect"><g stroke-opacity="0.0" fill="#e31a1c" stroke="#000000" stroke-width="0.0" fill-opacity="0.3"><rect width="2.9326795212765933e-2" x="-0.727544880319149" y="0.4007717859632665" height="5.534567140419444e-6"/><rect width="2.932679521276582e-2" x="-0.698218085106383" y="0.4007628659209244" height="1.4454609482517089e-5"/><rect width="2.932679521276582e-2" x="-0.668891289893617" y="0.40074104971774216" height="3.627081266477372e-5"/><rect width="2.9326795212765933e-2" x="-0.6395644946808512" y="0.40068987523880195" height="8.744529160498171e-5"/><rect width="2.932679521276582e-2" x="-0.6102376994680851" y="0.40057476514465823" height="2.025553857487039e-4"/><rect width="2.9326795212765933e-2" x="-0.5809109042553191" y="0.4003265252291367" height="4.507953012702348e-4"/><rect width="2.9326795212765933e-2" x="-0.5515841090425532" y="0.3998133956573891" height="9.639248730178296e-4"/><rect width="2.9326795212766044e-2" x="-0.5222573138297872" y="0.39879700125871337" height="1.9803192716935647e-3"/><rect width="2.9326795212766044e-2" x="-0.4929305186170213" y="0.3968684124173042" height="3.908908113102738e-3"/><rect width="2.9326795212765988e-2" x="-0.4636037234042553" y="0.39336415103494765" height="7.413169495459282e-3"/><rect width="2.9326795212765988e-2" x="-0.43427692819148933" y="0.38726964502224914" height="1.350767550815779e-2"/><rect width="2.9326795212765933e-2" x="-0.40495013297872334" y="0.37712980447535194" height="2.3647516055054996e-2"/><rect width="2.9326795212765988e-2" x="-0.3756233377659574" y="0.36100154467910606" height="3.9775775851300876e-2"/><rect width="2.9326795212765933e-2" x="-0.3462965425531915" y="0.33649670734975734" height="6.428061318064959e-2"/><rect width="2.9326795212766044e-2" x="-0.31696974734042555" y="0.3009683484344774" height="9.980897209592954e-2"/><rect width="2.9326795212765933e-2" x="-0.2876429521276595" y="0.25187983091151095" height="0.14889748961889598"/><rect width="2.9326795212765988e-2" x="-0.25831615691489357" y="0.18735816890545037" height="0.21341915162495656"/><rect width="2.9326795212766044e-2" x="-0.22898936170212758" y="0.10687188138665377" height="0.29390543914375317"/><rect width="2.9326795212765933e-2" x="-0.19966256648936165" y="1.1902271991181046e-2" height="0.3888750485392259"/><rect width="2.9326795212765933e-2" x="-0.17033577127659572" y="-9.357975450627909e-2" height="0.494357075036686"/><rect width="2.9326795212766044e-2" x="-0.14100897606382978" y="-0.2030317744353951" height="0.603809094965802"/><rect width="2.9326795212765933e-2" x="-0.11168218085106374" y="-0.3077992164156882" height="0.7085765369460951"/><rect width="2.9326795212766044e-2" x="-8.23553856382978e-2" y="-0.3981404939793325" height="0.7989178145097394"/><rect width="2.9326795212765933e-2" x="-5.302859042553176e-2" y="-0.46468001606313514" height="0.8654573365935421"/><rect width="2.9326795212765933e-2" x="-2.370179521276583e-2" y="-0.5" height="0.9007773205304069"/><rect width="2.9326795212766044e-2" x="5.624999999999991e-3" y="-0.4999999999999998" height="0.9007773205304067"/><rect width="2.932679521276582e-2" x="3.4951795212766035e-2" y="-0.46468001606313514" height="0.8654573365935421"/><rect width="2.9326795212766044e-2" x="6.427859042553186e-2" y="-0.39814049397933216" height="0.7989178145097391"/><rect width="2.9326795212766044e-2" x="9.36053856382979e-2" y="-0.30779921641568786" height="0.7085765369460948"/><rect width="2.9326795212765933e-2" x="0.12293218085106394" y="-0.20303177443539466" height="0.6038090949658016"/><rect width="2.9326795212765933e-2" x="0.15225897606382988" y="-9.357975450627887e-2" height="0.4943570750366858"/><rect width="2.9326795212766044e-2" x="0.1815857712765958" y="1.1902271991181268e-2" height="0.38887504853922567"/><rect width="2.9326795212766044e-2" x="0.21091256648936185" y="0.10687188138665421" height="0.2939054391437527"/><rect width="2.9326795212765933e-2" x="0.2402393617021279" y="0.1873581689054507" height="0.21341915162495623"/><rect width="2.9326795212765933e-2" x="0.26956615691489383" y="0.2518798309115112" height="0.1488974896188957"/><rect width="2.932679521276582e-2" x="0.29889295212765976" y="0.3009683484344775" height="9.980897209592943e-2"/><rect width="2.9326795212766044e-2" x="0.3282197473404256" y="0.33649670734975745" height="6.428061318064948e-2"/><rect width="2.9326795212766044e-2" x="0.3575465425531916" y="0.36100154467910617" height="3.9775775851300765e-2"/><rect width="2.9326795212766044e-2" x="0.38687333776595767" y="0.37712980447535194" height="2.3647516055054996e-2"/><rect width="2.932679521276582e-2" x="0.4162001329787237" y="0.3872696450222492" height="1.3507675508157735e-2"/><rect width="2.932679521276582e-2" x="0.44552692819148954" y="0.39336415103494765" height="7.413169495459282e-3"/><rect width="2.9326795212766044e-2" x="0.4748537234042556" y="0.39686841241730425" height="3.908908113102683e-3"/><rect width="2.932679521276582e-2" x="0.5041805186170216" y="0.39879700125871337" height="1.9803192716935647e-3"/><rect width="2.9326795212766266e-2" x="0.5335073138297872" y="0.3998133956573891" height="9.639248730178296e-4"/><rect width="2.93267952127656e-2" x="0.5628341090425535" y="0.4003265252291367" height="4.507953012702348e-4"/><rect width="2.9326795212766044e-2" x="0.5921609042553191" y="0.40057476514465823" height="2.025553857487039e-4"/><rect width="2.93267952127656e-2" x="0.6214876994680856" y="0.40068987523880195" height="8.744529160498171e-5"/><rect width="2.932679521276582e-2" x="0.6508144946808512" y="0.40074104971774216" height="3.627081266477372e-5"/><rect width="2.93267952127656e-2" x="0.6801412898936174" y="0.4007628659209244" height="1.4454609482517089e-5"/><rect width="2.9326795212766044e-2" x="0.709468085106383" y="0.4007717859632665" height="5.534567140419444e-6"/></g><g stroke-opacity="0.0" fill="#33a12b" stroke="#000000" stroke-width="0.0" fill-opacity="0.3"><rect width="2.9326795212765933e-2" x="-0.727544880319149" y="0.37826954340562563" height="2.2507777124781303e-2"/><rect width="2.932679521276582e-2" x="-0.698218085106383" y="0.3721643279849052" height="2.861299254550176e-2"/><rect width="2.932679521276582e-2" x="-0.668891289893617" y="0.36476500782852633" height="3.60123127018806e-2"/><rect width="2.9326795212765933e-2" x="-0.6395644946808512" y="0.3559032156579572" height="4.487410487244975e-2"/><rect width="2.932679521276582e-2" x="-0.6102376994680851" y="0.3454171218890677" height="5.536019864133923e-2"/><rect width="2.9326795212765933e-2" x="-0.5809109042553191" y="0.33316022121758027" height="6.761709931282667e-2"/><rect width="2.9326795212765933e-2" x="-0.5515841090425532" y="0.3190113703916208" height="8.176595013878613e-2"/><rect width="2.9326795212766044e-2" x="-0.5222573138297872" y="0.3028857053121" height="9.789161521830692e-2"/><rect width="2.9326795212766044e-2" x="-0.4929305186170213" y="0.2847459141085612" height="0.11603140642184573"/><rect width="2.9326795212765988e-2" x="-0.4636037234042553" y="0.2646132037179021" height="0.13616411681250484"/><rect width="2.9326795212765988e-2" x="-0.43427692819148933" y="0.24257718698678488" height="0.15820013354362206"/><rect width="2.9326795212765933e-2" x="-0.40495013297872334" y="0.2188038519394641" height="0.18197346859094282"/><rect width="2.9326795212765988e-2" x="-0.3756233377659574" y="0.19354076948700966" height="0.20723655104339728"/><rect width="2.9326795212765933e-2" x="-0.3462965425531915" y="0.167118761696808" height="0.23365855883359893"/><rect width="2.9326795212766044e-2" x="-0.31696974734042555" y="0.13994939532943634" height="0.2608279252009706"/><rect width="2.9326795212765933e-2" x="-0.2876429521276595" y="0.11251788297628401" height="0.2882594375541229"/><rect width="2.9326795212765988e-2" x="-0.25831615691489357" y="8.537125692335767e-2" height="0.31540606360704926"/><rect width="2.9326795212766044e-2" x="-0.22898936170212758" y="5.9102010758625034e-2" height="0.3416753097717819"/><rect width="2.9326795212765933e-2" x="-0.19966256648936165" y="3.4327755467602084e-2" height="0.36644956506280485"/><rect width="2.9326795212765933e-2" x="-0.17033577127659572" y="1.1667779881069262e-2" height="0.38910954064933767"/><rect width="2.9326795212766044e-2" x="-0.14100897606382978" y="-8.282292878393327e-3" height="0.40905961340880026"/><rect width="2.9326795212765933e-2" x="-0.11168218085106374" y="-2.4976332392445677e-2" height="0.4257536529228526"/><rect width="2.9326795212766044e-2" x="-8.23553856382978e-2" y="-3.794246147121838e-2" height="0.4387197820016253"/><rect width="2.9326795212765933e-2" x="-5.302859042553176e-2" y="-4.6805188963897404e-2" height="0.44758250949430434"/><rect width="2.9326795212765933e-2" x="-2.370179521276583e-2" y="-5.130346796826635e-2" height="0.4520807884986733"/><rect width="2.9326795212766044e-2" x="5.624999999999991e-3" y="-5.130346796826635e-2" height="0.4520807884986733"/><rect width="2.932679521276582e-2" x="3.4951795212766035e-2" y="-4.6805188963897404e-2" height="0.44758250949430434"/><rect width="2.9326795212766044e-2" x="6.427859042553186e-2" y="-3.794246147121838e-2" height="0.4387197820016253"/><rect width="2.9326795212766044e-2" x="9.36053856382979e-2" y="-2.4976332392445566e-2" height="0.4257536529228525"/><rect width="2.9326795212765933e-2" x="0.12293218085106394" y="-8.282292878393327e-3" height="0.40905961340880026"/><rect width="2.9326795212765933e-2" x="0.15225897606382988" y="1.1667779881069373e-2" height="0.38910954064933756"/><rect width="2.9326795212766044e-2" x="0.1815857712765958" y="3.4327755467602084e-2" height="0.36644956506280485"/><rect width="2.9326795212766044e-2" x="0.21091256648936185" y="5.9102010758625145e-2" height="0.3416753097717818"/><rect width="2.9326795212765933e-2" x="0.2402393617021279" y="8.537125692335779e-2" height="0.31540606360704915"/><rect width="2.9326795212765933e-2" x="0.26956615691489383" y="0.11251788297628418" height="0.28825943755412275"/><rect width="2.932679521276582e-2" x="0.29889295212765976" y="0.13994939532943645" height="0.2608279252009705"/><rect width="2.9326795212766044e-2" x="0.3282197473404256" y="0.167118761696808" height="0.23365855883359893"/><rect width="2.9326795212766044e-2" x="0.3575465425531916" y="0.1935407694870097" height="0.20723655104339722"/><rect width="2.9326795212766044e-2" x="0.38687333776595767" y="0.21880385193946422" height="0.1819734685909427"/><rect width="2.932679521276582e-2" x="0.4162001329787237" y="0.242577186986785" height="0.15820013354362195"/><rect width="2.932679521276582e-2" x="0.44552692819148954" y="0.2646132037179021" height="0.13616411681250484"/><rect width="2.9326795212766044e-2" x="0.4748537234042556" y="0.28474591410856137" height="0.11603140642184556"/><rect width="2.932679521276582e-2" x="0.5041805186170216" y="0.3028857053121001" height="9.789161521830686e-2"/><rect width="2.9326795212766266e-2" x="0.5335073138297872" y="0.3190113703916208" height="8.176595013878613e-2"/><rect width="2.93267952127656e-2" x="0.5628341090425535" y="0.33316022121758027" height="6.761709931282667e-2"/><rect width="2.9326795212766044e-2" x="0.5921609042553191" y="0.3454171218890676" height="5.536019864133934e-2"/><rect width="2.93267952127656e-2" x="0.6214876994680856" y="0.3559032156579572" height="4.487410487244975e-2"/><rect width="2.932679521276582e-2" x="0.6508144946808512" y="0.36476500782852633" height="3.60123127018806e-2"/><rect width="2.93267952127656e-2" x="0.6801412898936174" y="0.37216432798490523" height="2.8612992545501703e-2"/><rect width="2.9326795212766044e-2" x="0.709468085106383" y="0.37826954340562563" height="2.2507777124781303e-2"/></g></g></g><g class="hud"><g class="axis"><g class="ticks"><g class="tickglyph"><g stroke-opacity="0.4" fill="#0d0d0d" stroke="#0d0d0d" stroke-width="4.0e-3" fill-opacity="0.4"><polyline points="-0.727544880319149,0.44280064014631915
-0.727544880319149,0.4128006401463191"/><polyline points="-0.5809109042553191,0.44280064014631915
-0.5809109042553191,0.4128006401463191"/><polyline points="-0.43427692819148933,0.44280064014631915
-0.43427692819148933,0.4128006401463191"/><polyline points="-0.2876429521276595,0.44280064014631915
-0.2876429521276595,0.4128006401463191"/><polyline points="-0.14100897606382978,0.44280064014631915
-0.14100897606382978,0.4128006401463191"/><polyline points="5.624999999999991e-3,0.44280064014631915
5.624999999999991e-3,0.4128006401463191"/><polyline points="0.15225897606382988,0.44280064014631915
0.15225897606382988,0.4128006401463191"/><polyline points="0.29889295212765976,0.44280064014631915
0.29889295212765976,0.4128006401463191"/><polyline points="0.44552692819148954,0.44280064014631915
0.44552692819148954,0.4128006401463191"/><polyline points="0.5921609042553191,0.44280064014631915
0.5921609042553191,0.4128006401463191"/><polyline points="0.7387948803191491,0.44280064014631915
0.7387948803191491,0.4128006401463191"/></g></g><g class="ticktext"><g fill="#0d0d0d" stroke="none" stroke-width="0.0" font-size="4.88779920212766e-2" fill-opacity="1.0" text-anchor="middle"><text x="-0.727544880319149" y="0.485">-5</text><text x="-0.5809109042553191" y="0.485">-4</text><text x="-0.43427692819148933" y="0.485">-3</text><text x="-0.2876429521276595" y="0.485">-2</text><text x="-0.14100897606382978" y="0.485">-1</text><text x="5.624999999999991e-3" y="0.485">0</text><text x="0.15225897606382988" y="0.485">1</text><text x="0.29889295212765976" y="0.485">2</text><text x="0.44552692819148954" y="0.485">3</text><text x="0.5921609042553191" y="0.485">4</text><text x="0.7387948803191491" y="0.485">5</text></g></g></g><g class="axisbar"><g stroke-opacity="0.0" fill="#0d0d0d" stroke="#000000" stroke-width="0.0" fill-opacity="0.4"><rect width="1.47025" x="-0.7295" y="0.409785093735711" height="3.6031092821216526e-3"/></g></g></g></g></svg>