<svg height="300.0" viewBox="-0.7474268617021277 -0.5 1.4948537234042556 0.9991023936170212" width="448.85901573886144" xmlns="http://www.w3.org/2000/svg" xmlns:xlink="http://www.w3.org/1999/xlink"><style>svg {
  color-scheme: light dark;
}
{
  .canvas g, .title g, .axisbar g, .ticktext g, .tickglyph g, .ticklines g, .legendContent g text {
    fill: #0d0d0d;
  }
  .ticklines g, .tickglyph g, .legendBorder g {
    stroke: #0d0d0d;
  }
  .legendBorder g {
    fill: #f0f0f0;
  }
}
@media (prefers-color-scheme:dark) {
  .canvas g, .title g, .axisbar g, .ticktext g, .tickglyph g, .ticklines g, .legendContent g text {
    fill: #f0f0f0;
  }
  .ticklines g, .tickglyph g, .legendBorder g {
    stroke: #f0f0f0;
  }
  .legendBorder g {
    fill: #0d0d0d;
  }
}</style><g class="chart"><g class="rect"><g fill="rgb(2%, 29%, 48%)" fill-opacity="0.4" stroke="rgb(0%, 0%, 0%)" stroke-opacity="0.0" stroke-width="0.0"><rect height="5.534567140419444e-6" width="2.8204787234042517e-2" x="-0.7051196808510638" y="0.4007717859632665"/><rect height="1.4454609482517089e-5" width="2.8204787234042406e-2" x="-0.6769148936170212" y="0.4007628659209244"/><rect height="3.627081266477372e-5" width="2.8204787234042517e-2" x="-0.6487101063829787" y="0.40074104971774216"/><rect height="8.744529160498171e-5" width="2.8204787234042406e-2" x="-0.6205053191489361" y="0.40068987523880195"/><rect height="2.025553857487039e-4" width="2.8204787234042517e-2" x="-0.5923005319148936" y="0.40057476514465823"/><rect height="4.507953012702348e-4" width="2.8204787234042517e-2" x="-0.564095744680851" y="0.4003265252291367"/><rect height="9.639248730178296e-4" width="2.8204787234042628e-2" x="-0.5358909574468085" y="0.3998133956573891"/><rect height="1.9803192716935647e-3" width="2.8204787234042572e-2" x="-0.5076861702127659" y="0.39879700125871337"/><rect height="3.908908113102738e-3" width="2.8204787234042628e-2" x="-0.4794813829787234" y="0.3968684124173042"/><rect height="7.413169495459282e-3" width="2.8204787234042572e-2" x="-0.4512765957446808" y="0.39336415103494765"/><rect height="1.350767550815779e-2" width="2.8204787234042628e-2" x="-0.42307180851063825" y="0.38726964502224914"/><rect height="2.3647516055054996e-2" width="2.8204787234042517e-2" x="-0.3948670212765956" y="0.37712980447535194"/><rect height="3.9775775851300876e-2" width="2.8204787234042572e-2" x="-0.3666622340425531" y="0.36100154467910606"/><rect height="6.428061318064959e-2" width="2.8204787234042517e-2" x="-0.3384574468085106" y="0.33649670734975734"/><rect height="9.980897209592954e-2" width="2.8204787234042628e-2" x="-0.31025265957446807" y="0.3009683484344774"/><rect height="0.14889748961889598" width="2.8204787234042572e-2" x="-0.28204787234042544" y="0.25187983091151095"/><rect height="0.21341915162495656" width="2.8204787234042517e-2" x="-0.25384308510638287" y="0.18735816890545037"/><rect height="0.29390543914375317" width="2.8204787234042628e-2" x="-0.22563829787234035" y="0.10687188138665377"/><rect height="0.3888750485392259" width="2.8204787234042628e-2" x="-0.19743351063829784" y="1.1902271991181046e-2"/><rect height="0.494357075036686" width="2.8204787234042517e-2" x="-0.1692287234042552" y="-9.357975450627909e-2"/><rect height="0.603809094965802" width="2.8204787234042628e-2" x="-0.1410239361702127" y="-0.2030317744353951"/><rect height="0.7085765369460951" width="2.8204787234042517e-2" x="-0.11281914893617007" y="-0.3077992164156882"/><rect height="0.7989178145097394" width="2.8204787234042628e-2" x="-8.461436170212755e-2" y="-0.3981404939793325"/><rect height="0.8654573365935421" width="2.8204787234042517e-2" x="-5.640957446808492e-2" y="-0.46468001606313514"/><rect height="0.9007773205304069" width="2.8204787234042517e-2" x="-2.8204787234042406e-2" y="-0.5"/><rect height="0.9007773205304067" width="2.8204787234042628e-2" x="0.0" y="-0.4999999999999998"/><rect height="0.8654573365935421" width="2.8204787234042406e-2" x="2.8204787234042628e-2" y="-0.46468001606313514"/><rect height="0.7989178145097391" width="2.8204787234042628e-2" x="5.640957446808503e-2" y="-0.39814049397933216"/><rect height="0.7085765369460948" width="2.8204787234042628e-2" x="8.461436170212766e-2" y="-0.30779921641568786"/><rect height="0.6038090949658016" width="2.8204787234042517e-2" x="0.11281914893617029" y="-0.20303177443539466"/><rect height="0.4943570750366858" width="2.8204787234042628e-2" x="0.1410239361702128" y="-9.357975450627887e-2"/><rect height="0.38887504853922567" width="2.8204787234042628e-2" x="0.16922872340425543" y="1.1902271991181268e-2"/><rect height="0.2939054391437527" width="2.8204787234042628e-2" x="0.19743351063829806" y="0.10687188138665421"/><rect height="0.21341915162495623" width="2.8204787234042406e-2" x="0.2256382978723407" y="0.1873581689054507"/><rect height="0.1488974896188957" width="2.8204787234042628e-2" x="0.2538430851063831" y="0.2518798309115112"/><rect height="9.980897209592943e-2" width="2.8204787234042406e-2" x="0.2820478723404256" y="0.3009683484344775"/><rect height="6.428061318064948e-2" width="2.820478723404274e-2" x="0.310252659574468" y="0.33649670734975745"/><rect height="3.9775775851300765e-2" width="2.8204787234042517e-2" x="0.33845744680851075" y="0.36100154467910617"/><rect height="2.3647516055054996e-2" width="2.820478723404274e-2" x="0.36666223404255327" y="0.37712980447535194"/><rect height="1.3507675508157735e-2" width="2.8204787234042294e-2" x="0.394867021276596" y="0.3872696450222492"/><rect height="7.413169495459282e-3" width="2.8204787234042517e-2" x="0.4230718085106383" y="0.39336415103494765"/><rect height="3.908908113102683e-3" width="2.820478723404274e-2" x="0.45127659574468104" y="0.39686841241730425"/><rect height="1.9803192716935647e-3" width="2.8204787234042517e-2" x="0.47948138297872356" y="0.39879700125871337"/><rect height="9.639248730178296e-4" width="2.820478723404296e-2" x="0.5076861702127659" y="0.3998133956573891"/><rect height="4.507953012702348e-4" width="2.8204787234042294e-2" x="0.5358909574468088" y="0.4003265252291367"/><rect height="2.025553857487039e-4" width="2.8204787234042294e-2" x="0.5640957446808511" y="0.40057476514465823"/><rect height="8.744529160498171e-5" width="2.8204787234042294e-2" x="0.5923005319148941" y="0.40068987523880195"/><rect height="3.627081266477372e-5" width="2.8204787234042294e-2" x="0.6205053191489364" y="0.40074104971774216"/><rect height="1.4454609482517089e-5" width="2.8204787234042294e-2" x="0.6487101063829791" y="0.4007628659209244"/><rect height="5.534567140419444e-6" width="2.8204787234042517e-2" x="0.6769148936170214" y="0.4007717859632665"/></g><g fill="rgb(66%, 7%, 55%)" fill-opacity="0.4" stroke="rgb(0%, 0%, 0%)" stroke-opacity="0.0" stroke-width="0.0"><rect height="2.2507777124781303e-2" width="2.8204787234042517e-2" x="-0.7051196808510638" y="0.37826954340562563"/><rect height="2.861299254550176e-2" width="2.8204787234042406e-2" x="-0.6769148936170212" y="0.3721643279849052"/><rect height="3.60123127018806e-2" width="2.8204787234042517e-2" x="-0.6487101063829787" y="0.36476500782852633"/><rect height="4.487410487244975e-2" width="2.8204787234042406e-2" x="-0.6205053191489361" y="0.3559032156579572"/><rect height="5.536019864133923e-2" width="2.8204787234042517e-2" x="-0.5923005319148936" y="0.3454171218890677"/><rect height="6.761709931282667e-2" width="2.8204787234042517e-2" x="-0.564095744680851" y="0.33316022121758027"/><rect height="8.176595013878613e-2" width="2.8204787234042628e-2" x="-0.5358909574468085" y="0.3190113703916208"/><rect height="9.789161521830692e-2" width="2.8204787234042572e-2" x="-0.5076861702127659" y="0.3028857053121"/><rect height="0.11603140642184573" width="2.8204787234042628e-2" x="-0.4794813829787234" y="0.2847459141085612"/><rect height="0.13616411681250484" width="2.8204787234042572e-2" x="-0.4512765957446808" y="0.2646132037179021"/><rect height="0.15820013354362206" width="2.8204787234042628e-2" x="-0.42307180851063825" y="0.24257718698678488"/><rect height="0.18197346859094282" width="2.8204787234042517e-2" x="-0.3948670212765956" y="0.2188038519394641"/><rect height="0.20723655104339728" width="2.8204787234042572e-2" x="-0.3666622340425531" y="0.19354076948700966"/><rect height="0.23365855883359893" width="2.8204787234042517e-2" x="-0.3384574468085106" y="0.167118761696808"/><rect height="0.2608279252009706" width="2.8204787234042628e-2" x="-0.31025265957446807" y="0.13994939532943634"/><rect height="0.2882594375541229" width="2.8204787234042572e-2" x="-0.28204787234042544" y="0.11251788297628401"/><rect height="0.31540606360704926" width="2.8204787234042517e-2" x="-0.25384308510638287" y="8.537125692335767e-2"/><rect height="0.3416753097717819" width="2.8204787234042628e-2" x="-0.22563829787234035" y="5.9102010758625034e-2"/><rect height="0.36644956506280485" width="2.8204787234042628e-2" x="-0.19743351063829784" y="3.4327755467602084e-2"/><rect height="0.38910954064933767" width="2.8204787234042517e-2" x="-0.1692287234042552" y="1.1667779881069262e-2"/><rect height="0.40905961340880026" width="2.8204787234042628e-2" x="-0.1410239361702127" y="-8.282292878393327e-3"/><rect height="0.4257536529228526" width="2.8204787234042517e-2" x="-0.11281914893617007" y="-2.4976332392445677e-2"/><rect height="0.4387197820016253" width="2.8204787234042628e-2" x="-8.461436170212755e-2" y="-3.794246147121838e-2"/><rect height="0.44758250949430434" width="2.8204787234042517e-2" x="-5.640957446808492e-2" y="-4.6805188963897404e-2"/><rect height="0.4520807884986733" width="2.8204787234042517e-2" x="-2.8204787234042406e-2" y="-5.130346796826635e-2"/><rect height="0.4520807884986733" width="2.8204787234042628e-2" x="0.0" y="-5.130346796826635e-2"/><rect height="0.44758250949430434" width="2.8204787234042406e-2" x="2.8204787234042628e-2" y="-4.6805188963897404e-2"/><rect height="0.4387197820016253" width="2.8204787234042628e-2" x="5.640957446808503e-2" y="-3.794246147121838e-2"/><rect height="0.4257536529228525" width="2.8204787234042628e-2" x="8.461436170212766e-2" y="-2.4976332392445566e-2"/><rect height="0.40905961340880026" width="2.8204787234042517e-2" x="0.11281914893617029" y="-8.282292878393327e-3"/><rect height="0.38910954064933756" width="2.8204787234042628e-2" x="0.1410239361702128" y="1.1667779881069373e-2"/><rect height="0.36644956506280485" width="2.8204787234042628e-2" x="0.16922872340425543" y="3.4327755467602084e-2"/><rect height="0.3416753097717818" width="2.8204787234042628e-2" x="0.19743351063829806" y="5.9102010758625145e-2"/><rect height="0.31540606360704915" width="2.8204787234042406e-2" x="0.2256382978723407" y="8.537125692335779e-2"/><rect height="0.28825943755412275" width="2.8204787234042628e-2" x="0.2538430851063831" y="0.11251788297628418"/><rect height="0.2608279252009705" width="2.8204787234042406e-2" x="0.2820478723404256" y="0.13994939532943645"/><rect height="0.23365855883359893" width="2.820478723404274e-2" x="0.310252659574468" y="0.167118761696808"/><rect height="0.20723655104339722" width="2.8204787234042517e-2" x="0.33845744680851075" y="0.1935407694870097"/><rect height="0.1819734685909427" width="2.820478723404274e-2" x="0.36666223404255327" y="0.21880385193946422"/><rect height="0.15820013354362195" width="2.8204787234042294e-2" x="0.394867021276596" y="0.242577186986785"/><rect height="0.13616411681250484" width="2.8204787234042517e-2" x="0.4230718085106383" y="0.2646132037179021"/><rect height="0.11603140642184556" width="2.820478723404274e-2" x="0.45127659574468104" y="0.28474591410856137"/><rect height="9.789161521830686e-2" width="2.8204787234042517e-2" x="0.47948138297872356" y="0.3028857053121001"/><rect height="8.176595013878613e-2" width="2.820478723404296e-2" x="0.5076861702127659" y="0.3190113703916208"/><rect height="6.761709931282667e-2" width="2.8204787234042294e-2" x="0.5358909574468088" y="0.33316022121758027"/><rect height="5.536019864133934e-2" width="2.8204787234042294e-2" x="0.5640957446808511" y="0.3454171218890676"/><rect height="4.487410487244975e-2" width="2.8204787234042294e-2" x="0.5923005319148941" y="0.3559032156579572"/><rect height="3.60123127018806e-2" width="2.8204787234042294e-2" x="0.6205053191489364" y="0.36476500782852633"/><rect height="2.8612992545501703e-2" width="2.8204787234042294e-2" x="0.6487101063829791" y="0.37216432798490523"/><rect height="2.2507777124781303e-2" width="2.8204787234042517e-2" x="0.6769148936170214" y="0.37826954340562563"/></g></g></g><g class="hud"><g class="axis"><g class="ticks"><g class="tickglyph"><g fill="rgb(5%, 5%, 5%)" fill-opacity="0.4" stroke="rgb(5%, 5%, 5%)" stroke-opacity="0.4" stroke-width="4.0e-3"><polyline points="-0.7051196808510638,0.44280064014631915
-0.7051196808510638,0.4128006401463191"/><polyline points="-0.564095744680851,0.44280064014631915
-0.564095744680851,0.4128006401463191"/><polyline points="-0.42307180851063825,0.44280064014631915
-0.42307180851063825,0.4128006401463191"/><polyline points="-0.28204787234042544,0.44280064014631915
-0.28204787234042544,0.4128006401463191"/><polyline points="-0.1410239361702127,0.44280064014631915
-0.1410239361702127,0.4128006401463191"/><polyline points="0.0,0.44280064014631915
0.0,0.4128006401463191"/><polyline points="0.1410239361702128,0.44280064014631915
0.1410239361702128,0.4128006401463191"/><polyline points="0.2820478723404256,0.44280064014631915
0.2820478723404256,0.4128006401463191"/><polyline points="0.4230718085106383,0.44280064014631915
0.4230718085106383,0.4128006401463191"/><polyline points="0.5640957446808511,0.44280064014631915
0.5640957446808511,0.4128006401463191"/><polyline points="0.7051196808510639,0.44280064014631915
0.7051196808510639,0.4128006401463191"/></g></g><g class="ticktext"><g fill="rgb(5%, 5%, 5%)" fill-opacity="1.0" font-size="4.700797872340426e-2" stroke="none" stroke-width="0.0" text-anchor="middle"><text x="-0.7051196808510638" y="0.485">-5.0</text><text x="-0.564095744680851" y="0.485">-4.0</text><text x="-0.42307180851063825" y="0.485">-3.0</text><text x="-0.28204787234042544" y="0.485">-2.0</text><text x="-0.1410239361702127" y="0.485">-1.0</text><text x="0.0" y="0.485"> 0.0</text><text x="0.1410239361702128" y="0.485"> 1.0</text><text x="0.2820478723404256" y="0.485"> 2.0</text><text x="0.4230718085106383" y="0.485"> 3.0</text><text x="0.5640957446808511" y="0.485"> 4.0</text><text x="0.7051196808510639" y="0.485"> 5.0</text></g></g></g><g class="axisbar"><g fill="rgb(5%, 5%, 5%)" fill-opacity="0.4" stroke="rgb(0%, 0%, 0%)" stroke-opacity="0.0" stroke-width="0.0"><rect height="3.6031092821216526e-3" width="1.414" x="-0.707" y="0.409785093735711"/></g></g></g></g></svg>