<svg xmlns="http://www.w3.org/2000/svg" height="300.0" viewBox="-0.795 -0.5224999999999999 1.5775000000000001 1.0687499999999999" width="450.0" xmlns:xlink="http://www.w3.org/1999/xlink"><g stroke-opacity="0.0" fill-opacity="2.5e-2" stroke="#000000" stroke-width="0.0" fill="#808080"><rect height="0.8998875140607423" width="1.5" x="-0.75" y="-0.4999999999999999"/></g><g stroke-opacity="5.0e-2" stroke="#808080" stroke-width="5.0e-3" fill="none"><polyline points="-0.75,0.39988751406074247
-0.75,-0.4999999999999999"/></g><g stroke-opacity="5.0e-2" stroke="#808080" stroke-width="5.0e-3" fill="none"><polyline points="-0.6,0.39988751406074247
-0.6,-0.4999999999999999"/></g><g stroke-opacity="5.0e-2" stroke="#808080" stroke-width="5.0e-3" fill="none"><polyline points="-0.44999999999999996,0.39988751406074247
-0.44999999999999996,-0.4999999999999999"/></g><g stroke-opacity="5.0e-2" stroke="#808080" stroke-width="5.0e-3" fill="none"><polyline points="-0.29999999999999993,0.39988751406074247
-0.29999999999999993,-0.4999999999999999"/></g><g stroke-opacity="5.0e-2" stroke="#808080" stroke-width="5.0e-3" fill="none"><polyline points="-0.1499999999999999,0.39988751406074247
-0.1499999999999999,-0.4999999999999999"/></g><g stroke-opacity="5.0e-2" stroke="#808080" stroke-width="5.0e-3" fill="none"><polyline points="0.0,0.39988751406074247
0.0,-0.4999999999999999"/></g><g stroke-opacity="5.0e-2" stroke="#808080" stroke-width="5.0e-3" fill="none"><polyline points="0.15000000000000013,0.39988751406074247
0.15000000000000013,-0.4999999999999999"/></g><g stroke-opacity="5.0e-2" stroke="#808080" stroke-width="5.0e-3" fill="none"><polyline points="0.2999999999999998,0.39988751406074247
0.2999999999999998,-0.4999999999999999"/></g><g stroke-opacity="5.0e-2" stroke="#808080" stroke-width="5.0e-3" fill="none"><polyline points="0.4500000000000002,0.39988751406074247
0.4500000000000002,-0.4999999999999999"/></g><g stroke-opacity="5.0e-2" stroke="#808080" stroke-width="5.0e-3" fill="none"><polyline points="0.6000000000000001,0.39988751406074247
0.6000000000000001,-0.4999999999999999"/></g><g stroke-opacity="5.0e-2" stroke="#808080" stroke-width="5.0e-3" fill="none"><polyline points="0.75,0.39988751406074247
0.75,-0.4999999999999999"/></g><g fill-opacity="1.0" font-size="5.0e-2" stroke="none" stroke-width="0.0" fill="#808080" text-anchor="middle"><text x="-0.75" y="0.5">-5</text></g><g fill-opacity="1.0" font-size="5.0e-2" stroke="none" stroke-width="0.0" fill="#808080" text-anchor="middle"><text x="-0.6" y="0.5">-4</text></g><g fill-opacity="1.0" font-size="5.0e-2" stroke="none" stroke-width="0.0" fill="#808080" text-anchor="middle"><text x="-0.44999999999999996" y="0.5">-3</text></g><g fill-opacity="1.0" font-size="5.0e-2" stroke="none" stroke-width="0.0" fill="#808080" text-anchor="middle"><text x="-0.29999999999999993" y="0.5">-2</text></g><g fill-opacity="1.0" font-size="5.0e-2" stroke="none" stroke-width="0.0" fill="#808080" text-anchor="middle"><text x="-0.1499999999999999" y="0.5">-1</text></g><g fill-opacity="1.0" font-size="5.0e-2" stroke="none" stroke-width="0.0" fill="#808080" text-anchor="middle"><text x="0.0" y="0.5">0</text></g><g fill-opacity="1.0" font-size="5.0e-2" stroke="none" stroke-width="0.0" fill="#808080" text-anchor="middle"><text x="0.15000000000000013" y="0.5">1</text></g><g fill-opacity="1.0" font-size="5.0e-2" stroke="none" stroke-width="0.0" fill="#808080" text-anchor="middle"><text x="0.2999999999999998" y="0.5">2</text></g><g fill-opacity="1.0" font-size="5.0e-2" stroke="none" stroke-width="0.0" fill="#808080" text-anchor="middle"><text x="0.4500000000000002" y="0.5">3</text></g><g fill-opacity="1.0" font-size="5.0e-2" stroke="none" stroke-width="0.0" fill="#808080" text-anchor="middle"><text x="0.6000000000000001" y="0.5">4</text></g><g fill-opacity="1.0" font-size="5.0e-2" stroke="none" stroke-width="0.0" fill="#808080" text-anchor="middle"><text x="0.75" y="0.5">5</text></g><g stroke-opacity="1.0" fill-opacity="1.0" stroke="#808080" stroke-width="5.0e-3" fill="#808080"><polyline points="-0.75,0.4396344206974129
-0.75,0.40963442069741285"/><polyline points="-0.6,0.4396344206974129
-0.6,0.40963442069741285"/><polyline points="-0.44999999999999996,0.4396344206974129
-0.44999999999999996,0.40963442069741285"/><polyline points="-0.29999999999999993,0.4396344206974129
-0.29999999999999993,0.40963442069741285"/><polyline points="-0.1499999999999999,0.4396344206974129
-0.1499999999999999,0.40963442069741285"/><polyline points="0.0,0.4396344206974129
0.0,0.40963442069741285"/><polyline points="0.15000000000000013,0.4396344206974129
0.15000000000000013,0.40963442069741285"/><polyline points="0.2999999999999998,0.4396344206974129
0.2999999999999998,0.40963442069741285"/><polyline points="0.4500000000000002,0.4396344206974129
0.4500000000000002,0.40963442069741285"/><polyline points="0.6000000000000001,0.4396344206974129
0.6000000000000001,0.40963442069741285"/><polyline points="0.75,0.4396344206974129
0.75,0.40963442069741285"/></g><g stroke-opacity="1.0" fill-opacity="1.0" stroke="#808080" stroke-width="0.0" fill="#808080"><rect height="4.499437570303688e-3" width="1.5" x="-0.75" y="0.4088863892013499"/></g><g stroke-opacity="0.0" fill-opacity="0.4" stroke="#000000" stroke-width="0.0" fill="#a6cee3"><rect height="5.529099980527974e-6" width="2.9999999999999916e-2" x="-0.75" y="0.39988198496076194"/><rect height="1.4440330920295619e-5" width="2.9999999999999916e-2" x="-0.72" y="0.39987307372982217"/><rect height="3.623498360577626e-5" width="2.9999999999999916e-2" x="-0.69" y="0.3998512790771367"/><rect height="8.735891133709872e-5" width="2.9999999999999916e-2" x="-0.66" y="0.39980015514940537"/><rect height="2.0235529734885516e-4" width="2.9999999999999916e-2" x="-0.63" y="0.3996851587633936"/><rect height="4.5034999634702144e-4" width="3.0000000000000027e-2" x="-0.6" y="0.39943716406439544"/><rect height="9.629726880896472e-4" width="3.0000000000000027e-2" x="-0.57" y="0.3989245413726528"/><rect height="1.97836307135435e-3" width="3.0000000000000027e-2" x="-0.5399999999999999" y="0.3979091509893881"/><rect height="3.9050468128133953e-3" width="3.0000000000000082e-2" x="-0.51" y="0.39598246724792907"/><rect height="7.405846613291356e-3" width="3.0000000000000027e-2" x="-0.48" y="0.3924816674474511"/><rect height="1.3494332346886573e-2" width="3.0000000000000027e-2" x="-0.44999999999999996" y="0.3863931817138559"/><rect height="2.3624156549550468e-2" width="3.0000000000000027e-2" x="-0.41999999999999993" y="0.376263357511192"/><rect height="3.9736484517159e-2" width="3.0000000000000027e-2" x="-0.3899999999999999" y="0.36015102954358347"/><rect height="6.421711546131487e-2" width="3.0000000000000027e-2" x="-0.36" y="0.3356703985994276"/><rect height="9.971037872875949e-2" width="3.0000000000000027e-2" x="-0.32999999999999996" y="0.300177135331983"/><rect height="0.14875040559872804" width="3.0000000000000027e-2" x="-0.29999999999999993" y="0.2511371084620144"/><rect height="0.2132083317724381" width="3.0000000000000027e-2" x="-0.2699999999999999" y="0.18667918228830438"/><rect height="0.29361511327157674" width="3.0000000000000027e-2" x="-0.23999999999999988" y="0.10627240078916572"/><rect height="0.3884909097224565" width="3.0000000000000027e-2" x="-0.20999999999999996" y="1.1396604338285987e-2"/><rect height="0.4938687388922624" width="3.0000000000000027e-2" x="-0.17999999999999994" y="-9.398122483151994e-2"/><rect height="0.6032126398520936" width="3.0000000000000027e-2" x="-0.1499999999999999" y="-0.2033251257913512"/><rect height="0.7078765903860997" width="3.0000000000000027e-2" x="-0.11999999999999988" y="-0.3079890763253573"/><rect height="0.7981286269670709" width="3.0000000000000027e-2" x="-8.999999999999986e-2" y="-0.39824111290632835"/><rect height="0.864602419934599" width="3.0000000000000027e-2" x="-5.999999999999983e-2" y="-0.46471490587385644"/><rect height="0.8998875140607423" width="3.0000000000000027e-2" x="-2.9999999999999805e-2" y="-0.4999999999999999"/><rect height="0.8998875140607423" width="3.0000000000000027e-2" x="0.0" y="-0.4999999999999998"/><rect height="0.864602419934599" width="3.0000000000000027e-2" x="3.0000000000000027e-2" y="-0.46471490587385644"/><rect height="0.7981286269670707" width="3.0000000000000027e-2" x="6.000000000000005e-2" y="-0.39824111290632813"/><rect height="0.7078765903860993" width="3.0000000000000027e-2" x="9.000000000000008e-2" y="-0.3079890763253569"/><rect height="0.6032126398520934" width="3.0000000000000027e-2" x="0.1200000000000001" y="-0.20332512579135087"/><rect height="0.4938687388922622" width="3.0000000000000027e-2" x="0.15000000000000013" y="-9.398122483151972e-2"/><rect height="0.38849090972245626" width="3.0000000000000027e-2" x="0.18000000000000016" y="1.139660433828621e-2"/><rect height="0.29361511327157636" width="3.0000000000000027e-2" x="0.2100000000000002" y="0.10627240078916611"/><rect height="0.21320833177243775" width="3.0000000000000027e-2" x="0.2400000000000002" y="0.1866791822883047"/><rect height="0.14875040559872782" width="3.0000000000000027e-2" x="0.27000000000000024" y="0.25113710846201465"/><rect height="9.971037872875937e-2" width="3.000000000000025e-2" x="0.2999999999999998" y="0.3001771353319831"/><rect height="6.421711546131476e-2" width="2.9999999999999805e-2" x="0.33000000000000007" y="0.3356703985994277"/><rect height="3.973648451715889e-2" width="3.000000000000025e-2" x="0.3599999999999999" y="0.3601510295435836"/><rect height="2.3624156549550468e-2" width="2.9999999999999805e-2" x="0.3900000000000001" y="0.376263357511192"/><rect height="1.3494332346886517e-2" width="3.000000000000025e-2" x="0.41999999999999993" y="0.38639318171385595"/><rect height="7.405846613291356e-3" width="2.9999999999999805e-2" x="0.4500000000000002" y="0.3924816674474511"/><rect height="3.9050468128133953e-3" width="3.000000000000047e-2" x="0.48" y="0.39598246724792907"/><rect height="1.97836307135435e-3" width="2.9999999999999805e-2" x="0.5100000000000002" y="0.3979091509893881"/><rect height="9.629726880896472e-4" width="3.000000000000025e-2" x="0.54" y="0.3989245413726528"/><rect height="4.5034999634702144e-4" width="2.9999999999999805e-2" x="0.5700000000000003" y="0.39943716406439544"/><rect height="2.0235529734885516e-4" width="2.9999999999999805e-2" x="0.6000000000000001" y="0.3996851587633936"/><rect height="8.735891133709872e-5" width="2.9999999999999805e-2" x="0.6300000000000003" y="0.39980015514940537"/><rect height="3.623498360577626e-5" width="2.9999999999999805e-2" x="0.6600000000000001" y="0.3998512790771367"/><rect height="1.4440330920295619e-5" width="2.9999999999999805e-2" x="0.6900000000000004" y="0.39987307372982217"/><rect height="5.529099980527974e-6" width="2.9999999999999805e-2" x="0.7200000000000002" y="0.39988198496076194"/></g><g stroke-opacity="0.0" fill-opacity="0.4" stroke="#000000" stroke-width="0.0" fill="#fb9a99"><rect height="2.2485543476967462e-2" width="2.9999999999999916e-2" x="-0.75" y="0.377401970583775"/><rect height="2.858472803960982e-2" width="2.9999999999999916e-2" x="-0.72" y="0.37130278602113265"/><rect height="3.5976738994484336e-2" width="2.9999999999999916e-2" x="-0.69" y="0.36391077506625813"/><rect height="4.4829777303442564e-2" width="2.9999999999999916e-2" x="-0.66" y="0.3550577367572999"/><rect height="5.53055126920039e-2" width="2.9999999999999916e-2" x="-0.63" y="0.34458200136873857"/><rect height="6.755030574347587e-2" width="3.0000000000000027e-2" x="-0.6" y="0.3323372083172666"/><rect height="8.168518004192254e-2" width="3.0000000000000027e-2" x="-0.57" y="0.3182023340188199"/><rect height="9.779491585592082e-2" width="3.0000000000000027e-2" x="-0.5399999999999999" y="0.30209259820482165"/><rect height="0.11591678819848988" width="3.0000000000000082e-2" x="-0.51" y="0.2839707258622526"/><rect height="0.136029611081383" width="3.0000000000000027e-2" x="-0.48" y="0.26385790297935946"/><rect height="0.15804386017936145" width="3.0000000000000027e-2" x="-0.44999999999999996" y="0.24184365388138102"/><rect height="0.18179371143457462" width="3.0000000000000027e-2" x="-0.41999999999999993" y="0.21809380262616784"/><rect height="0.20703183849161944" width="3.0000000000000027e-2" x="-0.3899999999999999" y="0.19285567556912303"/><rect height="0.2334277460759907" width="3.0000000000000027e-2" x="-0.36" y="0.16645976798475176"/><rect height="0.2605702739812703" width="3.0000000000000027e-2" x="-0.32999999999999996" y="0.13931724007947216"/><rect height="0.2879746889191035" width="3.0000000000000027e-2" x="-0.29999999999999993" y="0.11191282514163897"/><rect height="0.31509449897329084" width="3.0000000000000027e-2" x="-0.2699999999999999" y="8.479301508745163e-2"/><rect height="0.3413377958332865" width="3.0000000000000027e-2" x="-0.23999999999999988" y="5.854971822745597e-2"/><rect height="0.36608757860248115" width="3.0000000000000027e-2" x="-0.20999999999999996" y="3.379993545826132e-2"/><rect height="0.38872517019641145" width="3.0000000000000027e-2" x="-0.17999999999999994" y="1.1162343864331015e-2"/><rect height="0.4086555358613379" width="3.0000000000000027e-2" x="-0.1499999999999999" y="-8.768021800595438e-3"/><rect height="0.42533308465784453" width="3.0000000000000027e-2" x="-0.11999999999999988" y="-2.5445570597102063e-2"/><rect height="0.4382864055261108" width="3.0000000000000027e-2" x="-8.999999999999986e-2" y="-3.8398891465368346e-2"/><rect height="0.4471403782332484" width="3.0000000000000027e-2" x="-5.999999999999983e-2" y="-4.725286417250596e-2"/><rect height="0.45163421374457063" width="3.0000000000000027e-2" x="-2.9999999999999805e-2" y="-5.174669968382817e-2"/><rect height="0.45163421374457063" width="3.0000000000000027e-2" x="0.0" y="-5.174669968382817e-2"/><rect height="0.4471403782332484" width="3.0000000000000027e-2" x="3.0000000000000027e-2" y="-4.725286417250596e-2"/><rect height="0.4382864055261108" width="3.0000000000000027e-2" x="6.000000000000005e-2" y="-3.8398891465368346e-2"/><rect height="0.4253330846578444" width="3.0000000000000027e-2" x="9.000000000000008e-2" y="-2.5445570597101952e-2"/><rect height="0.4086555358613379" width="3.0000000000000027e-2" x="0.1200000000000001" y="-8.768021800595438e-3"/><rect height="0.38872517019641134" width="3.0000000000000027e-2" x="0.15000000000000013" y="1.1162343864331126e-2"/><rect height="0.36608757860248115" width="3.0000000000000027e-2" x="0.18000000000000016" y="3.379993545826132e-2"/><rect height="0.3413377958332864" width="3.0000000000000027e-2" x="0.2100000000000002" y="5.854971822745608e-2"/><rect height="0.3150944989732907" width="3.0000000000000027e-2" x="0.2400000000000002" y="8.479301508745174e-2"/><rect height="0.2879746889191033" width="3.0000000000000027e-2" x="0.27000000000000024" y="0.11191282514163914"/><rect height="0.2605702739812702" width="3.000000000000025e-2" x="0.2999999999999998" y="0.13931724007947227"/><rect height="0.23342774607599065" width="2.9999999999999805e-2" x="0.33000000000000007" y="0.16645976798475182"/><rect height="0.20703183849161938" width="3.000000000000025e-2" x="0.3599999999999999" y="0.1928556755691231"/><rect height="0.1817937114345745" width="2.9999999999999805e-2" x="0.3900000000000001" y="0.21809380262616795"/><rect height="0.1580438601793614" width="3.000000000000025e-2" x="0.41999999999999993" y="0.24184365388138107"/><rect height="0.136029611081383" width="2.9999999999999805e-2" x="0.4500000000000002" y="0.26385790297935946"/><rect height="0.11591678819848972" width="3.000000000000047e-2" x="0.48" y="0.28397072586225275"/><rect height="9.779491585592076e-2" width="2.9999999999999805e-2" x="0.5100000000000002" y="0.3020925982048217"/><rect height="8.168518004192254e-2" width="3.000000000000025e-2" x="0.54" y="0.3182023340188199"/><rect height="6.755030574347581e-2" width="2.9999999999999805e-2" x="0.5700000000000003" y="0.33233720831726665"/><rect height="5.5305512692003955e-2" width="2.9999999999999805e-2" x="0.6000000000000001" y="0.3445820013687385"/><rect height="4.4829777303442564e-2" width="2.9999999999999805e-2" x="0.6300000000000003" y="0.3550577367572999"/><rect height="3.5976738994484336e-2" width="2.9999999999999805e-2" x="0.6600000000000001" y="0.36391077506625813"/><rect height="2.858472803960982e-2" width="2.9999999999999805e-2" x="0.6900000000000004" y="0.37130278602113265"/><rect height="2.2485543476967462e-2" width="2.9999999999999805e-2" x="0.7200000000000002" y="0.377401970583775"/></g></svg>