<svg width="443.74515547354906" xmlns:xlink="http://www.w3.org/1999/xlink" xmlns="http://www.w3.org/2000/svg" viewBox="-0.7700000000000001 -0.52 1.54 1.0411381269210027" height="300.0"><style>svg {
  color-scheme: light dark;
}
@media (prefers-color-scheme:dark) {
  svg {
    background-color: #f0f0f0;
  }
}</style><g stroke-opacity="0.4" fill="#0d0d0d" stroke="#0d0d0d" stroke-width="4.0e-3" fill-opacity="0.4"><polyline points="-0.7279951100244499,0.44418358141632835
-0.7279951100244499,0.41418358141632833"/><polyline points="-0.5812958435207825,0.44418358141632835
-0.5812958435207825,0.41418358141632833"/><polyline points="-0.4345965770171149,0.44418358141632835
-0.4345965770171149,0.41418358141632833"/><polyline points="-0.28789731051344736,0.44418358141632835
-0.28789731051344736,0.41418358141632833"/><polyline points="-0.14119804400977987,0.44418358141632835
-0.14119804400977987,0.41418358141632833"/><polyline points="5.501222493887514e-3,0.44418358141632835
5.501222493887514e-3,0.41418358141632833"/><polyline points="0.15220048899755523,0.44418358141632835
0.15220048899755523,0.41418358141632833"/><polyline points="0.2988997555012225,0.44418358141632835
0.2988997555012225,0.41418358141632833"/><polyline points="0.4455990220048902,0.44418358141632835
0.4455990220048902,0.41418358141632833"/><polyline points="0.5922982885085575,0.44418358141632835
0.5922982885085575,0.41418358141632833"/><polyline points="0.738997555012225,0.44418358141632835
0.738997555012225,0.41418358141632833"/></g><g fill="#0d0d0d" stroke="none" stroke-width="0.0" font-size="4.88997555012225e-2" fill-opacity="1.0" text-anchor="middle"><text x="-0.7279951100244499" y="0.486468200270636">-5</text><text x="-0.5812958435207825" y="0.486468200270636">-4</text><text x="-0.4345965770171149" y="0.486468200270636">-3</text><text x="-0.28789731051344736" y="0.486468200270636">-2</text><text x="-0.14119804400977987" y="0.486468200270636">-1</text><text x="5.501222493887514e-3" y="0.486468200270636">0</text><text x="0.15220048899755523" y="0.486468200270636">1</text><text x="0.2988997555012225" y="0.486468200270636">2</text><text x="0.4455990220048902" y="0.486468200270636">3</text><text x="0.5922982885085575" y="0.486468200270636">4</text><text x="0.738997555012225" y="0.486468200270636">5</text></g><g stroke-opacity="0.0" fill="#0d0d0d" stroke="#000000" stroke-width="0.0" fill-opacity="0.4"><rect width="1.4709046454767725" x="-0.7299511002444988" y="0.41114118177717635" height="3.608479927830366e-3"/></g><g stroke-opacity="0.0" fill="#e31a1c" stroke="#000000" stroke-width="0.0" fill-opacity="0.3"><rect width="2.933985330073341e-2" x="-0.7279951100244499" y="0.402114439140863" height="5.542816737369449e-6"/><rect width="2.933985330073341e-2" x="-0.6986552567237164" y="0.4021055058026746" height="1.4476154925724405e-5"/><rect width="2.933985330073341e-2" x="-0.6693154034229829" y="0.402083657081162" height="3.632487643834281e-5"/><rect width="2.933985330073341e-2" x="-0.6399755501222495" y="0.40203240632365955" height="8.757563394079515e-5"/><rect width="2.933985330073352e-2" x="-0.610635696821516" y="0.40191712465116924" height="2.0285730643110345e-4"/><rect width="2.933985330073352e-2" x="-0.5812958435207825" y="0.4016685147194942" height="4.514672381061291e-4"/><rect width="2.933985330073352e-2" x="-0.5519559902200489" y="0.4011546202980247" height="9.653616595756698e-4"/><rect width="2.9339853300733576e-2" x="-0.5226161369193154" y="0.4001367109038858" height="1.9832710537145415e-3"/><rect width="2.9339853300733576e-2" x="-0.49327628361858195" y="0.398205247387696" height="3.914734569904321e-3"/><rect width="2.933985330073352e-2" x="-0.4639364303178484" y="0.39469576269822276" height="7.424219259377585e-3"/><rect width="2.933985330073352e-2" x="-0.4345965770171149" y="0.38859217246686717" height="1.3527809490733178e-2"/><rect width="2.933985330073352e-2" x="-0.4052567237163814" y="0.37843721789292917" height="2.368276406467118e-2"/><rect width="2.9339853300733576e-2" x="-0.37591687041564786" y="0.3622849179795282" height="3.983506397807213e-2"/><rect width="2.9339853300733576e-2" x="-0.3465770171149145" y="0.33774355475292184" height="6.437642720467851e-2"/><rect width="2.9339853300733576e-2" x="-0.31723716381418093" y="0.3021622387349265" height="9.995774322267387e-2"/><rect width="2.933985330073352e-2" x="-0.28789731051344736" y="0.25300055189753123" height="0.1491194300600691"/><rect width="2.933985330073341e-2" x="-0.25855745721271384" y="0.18838271657002986" height="0.21373726538757049"/><rect width="2.933985330073363e-2" x="-0.22921760391198043" y="0.10777645951913423" height="0.2943435224384661"/><rect width="2.933985330073352e-2" x="-0.1998777506112469" y="1.2665292350852675e-2" height="0.3894546896067477"/><rect width="2.933985330073352e-2" x="-0.1705378973105134" y="-9.297396129366409e-2" height="0.49509394325126443"/><rect width="2.933985330073352e-2" x="-0.14119804400977987" y="-0.20258912587788835" height="0.6047091078354887"/><rect width="2.933985330073341e-2" x="-0.11185819070904635" y="-0.3075127298751047" height="0.709632711832705"/><rect width="2.933985330073363e-2" x="-8.251833740831294e-2" y="-0.3979886664115089" height="0.8001086483691092"/><rect width="2.933985330073352e-2" x="-5.3178484107579305e-2" y="-0.4646273695555465" height="0.8667473515131469"/><rect width="2.933985330073352e-2" x="-2.3838630806845784e-2" y="-0.5" height="0.9021199819576003"/><rect width="2.933985330073341e-2" x="5.501222493887514e-3" y="-0.4999999999999998" height="0.9021199819576001"/><rect width="2.933985330073363e-2" x="3.4841075794620924e-2" y="-0.4646273695555463" height="0.8667473515131466"/><rect width="2.933985330073352e-2" x="6.418092909535456e-2" y="-0.39798866641150865" height="0.800108648369109"/><rect width="2.933985330073352e-2" x="9.352078239608808e-2" y="-0.30751272987510425" height="0.7096327118327046"/><rect width="2.933985330073363e-2" x="0.1228606356968216" y="-0.2025891258778879" height="0.6047091078354883"/><rect width="2.933985330073341e-2" x="0.15220048899755523" y="-9.297396129366386e-2" height="0.4950939432512642"/><rect width="2.933985330073341e-2" x="0.18154034229828864" y="1.2665292350852841e-2" height="0.3894546896067475"/><rect width="2.933985330073363e-2" x="0.21088019559902205" y="0.10777645951913462" height="0.29434352243846573"/><rect width="2.933985330073341e-2" x="0.24022004889975568" y="0.18838271657003025" height="0.2137372653875701"/><rect width="2.933985330073363e-2" x="0.2695599022004891" y="0.2530005518975315" height="0.14911943006006884"/><rect width="2.933985330073341e-2" x="0.2988997555012225" y="0.3021622387349266" height="9.995774322267376e-2"/><rect width="2.933985330073363e-2" x="0.3282396088019559" y="0.33774355475292195" height="6.43764272046784e-2"/><rect width="2.933985330073363e-2" x="0.35757946210268954" y="0.36228491797952833" height="3.9835063978072016e-2"/><rect width="2.933985330073341e-2" x="0.38691931540342317" y="0.3784372178929292" height="2.3682764064671125e-2"/><rect width="2.933985330073363e-2" x="0.4162591687041566" y="0.3885921724668672" height="1.3527809490733123e-2"/><rect width="2.9339853300733187e-2" x="0.4455990220048902" y="0.39469576269822276" height="7.424219259377585e-3"/><rect width="2.9339853300733854e-2" x="0.4749388753056236" y="0.3982052473876961" height="3.914734569904266e-3"/><rect width="2.933985330073341e-2" x="0.5042787286063573" y="0.4001367109038858" height="1.9832710537145415e-3"/><rect width="2.933985330073341e-2" x="0.5336185819070907" y="0.4011546202980247" height="9.653616595756698e-4"/><rect width="2.933985330073341e-2" x="0.5629584352078241" y="0.4016685147194942" height="4.514672381061291e-4"/><rect width="2.933985330073341e-2" x="0.5922982885085575" y="0.40191712465116924" height="2.0285730643110345e-4"/><rect width="2.9339853300733187e-2" x="0.6216381418092913" y="0.40203240632365955" height="8.757563394079515e-5"/><rect width="2.933985330073341e-2" x="0.6509779951100245" y="0.402083657081162" height="3.632487643834281e-5"/><rect width="2.9339853300733187e-2" x="0.6803178484107584" y="0.4021055058026746" height="1.4476154925724405e-5"/><rect width="2.933985330073341e-2" x="0.7096577017114916" y="0.402114439140863" height="5.542816737369449e-6"/></g><g stroke-opacity="0.0" fill="#33a12b" stroke="#000000" stroke-width="0.0" fill-opacity="0.3"><rect width="2.933985330073341e-2" x="-0.7279951100244499" y="0.3795786556709246" height="2.2541326286675767e-2"/><rect width="2.933985330073341e-2" x="-0.6986552567237164" y="0.37346434006854623" height="2.8655641889054118e-2"/><rect width="2.933985330073341e-2" x="-0.6693154034229829" y="0.36605399079150136" height="3.606599116609899e-2"/><rect width="2.933985330073341e-2" x="-0.6399755501222495" y="0.3571789895999543" height="4.494099235764604e-2"/><rect width="2.933985330073352e-2" x="-0.610635696821516" y="0.3466772656932888" height="5.544271626431152e-2"/><rect width="2.933985330073352e-2" x="-0.5812958435207825" y="0.33440209539247845" height="6.77178865651219e-2"/><rect width="2.933985330073352e-2" x="-0.5519559902200489" y="0.32023215487452733" height="8.188782708307302e-2"/><rect width="2.9339853300733576e-2" x="-0.5226161369193154" y="0.30408245354542895" height="9.803752841217139e-2"/><rect width="2.9339853300733576e-2" x="-0.49327628361858195" y="0.2859156239191954" height="0.11620435803840495"/><rect width="2.933985330073352e-2" x="-0.4639364303178484" y="0.2657529045429076" height="0.13636707741469273"/><rect width="2.933985330073352e-2" x="-0.4345965770171149" y="0.24368404183643166" height="0.15843594012116868"/><rect width="2.933985330073352e-2" x="-0.4052567237163814" y="0.2198752712389075" height="0.18224471071869286"/><rect width="2.9339853300733576e-2" x="-0.37591687041564786" y="0.1945745326803679" height="0.20754544927723245"/><rect width="2.9339853300733576e-2" x="-0.3465770171149145" y="0.16811314133789385" height="0.2340068406197065"/><rect width="2.9339853300733576e-2" x="-0.31723716381418093" y="0.14090327743645764" height="0.2612167045211427"/><rect width="2.933985330073352e-2" x="-0.28789731051344736" y="0.11343087680527397" height="0.2886891051523264"/><rect width="2.933985330073341e-2" x="-0.25855745721271384" y="8.62437871140555e-2" height="0.31587619484354484"/><rect width="2.933985330073363e-2" x="-0.22921760391198043" y="5.9935385097212746e-2" height="0.3421845968603876"/><rect width="2.933985330073352e-2" x="-0.1998777506112469" y="3.512420232565877e-2" height="0.3669957796319416"/><rect width="2.933985330073352e-2" x="-0.1705378973105134" y="1.2430450716497732e-2" height="0.3896895312411026"/><rect width="2.933985330073352e-2" x="-0.14119804400977987" y="-7.549358796492434e-3" height="0.4096693407540928"/><rect width="2.933985330073341e-2" x="-0.11185819070904635" y="-2.426828175555229e-2" height="0.42638826371315264"/><rect width="2.933985330073363e-2" x="-8.251833740831294e-2" y="-3.725373761018558e-2" height="0.4393737195677859"/><rect width="2.933985330073352e-2" x="-5.3178484107579305e-2" y="-4.612967551799496e-2" height="0.4482496574755953"/><rect width="2.933985330073352e-2" x="-2.3838630806845784e-2" y="-5.063465947104573e-2" height="0.4527546414286461"/><rect width="2.933985330073341e-2" x="5.501222493887514e-3" y="-5.063465947104573e-2" height="0.4527546414286461"/><rect width="2.933985330073363e-2" x="3.4841075794620924e-2" y="-4.612967551799496e-2" height="0.4482496574755953"/><rect width="2.933985330073352e-2" x="6.418092909535456e-2" y="-3.725373761018558e-2" height="0.4393737195677859"/><rect width="2.933985330073352e-2" x="9.352078239608808e-2" y="-2.426828175555229e-2" height="0.42638826371315264"/><rect width="2.933985330073363e-2" x="0.1228606356968216" y="-7.5493587964923226e-3" height="0.40966934075409267"/><rect width="2.933985330073341e-2" x="0.15220048899755523" y="1.2430450716497732e-2" height="0.3896895312411026"/><rect width="2.933985330073341e-2" x="0.18154034229828864" y="3.512420232565888e-2" height="0.36699577963194147"/><rect width="2.933985330073363e-2" x="0.21088019559902205" y="5.993538509721286e-2" height="0.3421845968603875"/><rect width="2.933985330073341e-2" x="0.24022004889975568" y="8.624378711405556e-2" height="0.3158761948435448"/><rect width="2.933985330073363e-2" x="0.2695599022004891" y="0.11343087680527414" height="0.2886891051523262"/><rect width="2.933985330073341e-2" x="0.2988997555012225" y="0.14090327743645775" height="0.2612167045211426"/><rect width="2.933985330073363e-2" x="0.3282396088019559" y="0.16811314133789385" height="0.2340068406197065"/><rect width="2.933985330073363e-2" x="0.35757946210268954" y="0.194574532680368" height="0.20754544927723234"/><rect width="2.933985330073341e-2" x="0.38691931540342317" y="0.21987527123890754" height="0.1822447107186928"/><rect width="2.933985330073363e-2" x="0.4162591687041566" y="0.24368404183643178" height="0.15843594012116857"/><rect width="2.9339853300733187e-2" x="0.4455990220048902" y="0.2657529045429076" height="0.13636707741469273"/><rect width="2.9339853300733854e-2" x="0.4749388753056236" y="0.28591562391919556" height="0.11620435803840479"/><rect width="2.933985330073341e-2" x="0.5042787286063573" y="0.30408245354542895" height="9.803752841217139e-2"/><rect width="2.933985330073341e-2" x="0.5336185819070907" y="0.32023215487452733" height="8.188782708307302e-2"/><rect width="2.933985330073341e-2" x="0.5629584352078241" y="0.33440209539247856" height="6.771788656512179e-2"/><rect width="2.933985330073341e-2" x="0.5922982885085575" y="0.3466772656932887" height="5.544271626431163e-2"/><rect width="2.9339853300733187e-2" x="0.6216381418092913" y="0.3571789895999543" height="4.494099235764604e-2"/><rect width="2.933985330073341e-2" x="0.6509779951100245" y="0.36605399079150136" height="3.606599116609899e-2"/><rect width="2.9339853300733187e-2" x="0.6803178484107584" y="0.37346434006854634" height="2.8655641889054007e-2"/><rect width="2.933985330073341e-2" x="0.7096577017114916" y="0.3795786556709246" height="2.2541326286675767e-2"/></g></svg>