<svg height="300.00" viewBox="-0.74743 -0.50000 1.4949 0.99910" width="448.86" xmlns="http://www.w3.org/2000/svg" xmlns:xlink="http://www.w3.org/1999/xlink"><style>svg {
  color-scheme: light dark;
}
{
  .canvas g, .title g, .axisbar g, .ticktext g, .tickglyph g, .ticklines g, .legendContent g text {
    fill: rgba(5%, 5%, 5%, 1.00);
  }
  .ticklines g, .tickglyph g, .legendBorder g {
    stroke: rgba(5%, 5%, 5%, 1.00);
  }
  .legendBorder g {
    fill: rgba(94%, 94%, 94%, 1.00);
  }
}
@media (prefers-color-scheme:dark) {
  .canvas g, .title g, .axisbar g, .ticktext g, .tickglyph g, .ticklines g, .legendContent g text {
    fill: rgba(94%, 94%, 94%, 1.00);
  }
  .ticklines g, .tickglyph g, .legendBorder g {
    stroke: rgba(94%, 94%, 94%, 1.00);
  }
  .legendBorder g {
    fill: rgba(5%, 5%, 5%, 1.00);
  }
}</style><g class="chart"><g class="rect"><g fill="rgba(2%, 29%, 48%, 0.40)" stroke="rgba(0%, 0%, 0%, 0.00)" stroke-width="0.0000"><rect height="0.0000055346" width="0.028205" x="-0.70512" y="0.40077"/><rect height="0.000014455" width="0.028205" x="-0.67691" y="0.40076"/><rect height="0.000036271" width="0.028205" x="-0.64871" y="0.40074"/><rect height="0.000087445" width="0.028205" x="-0.62051" y="0.40069"/><rect height="0.00020256" width="0.028205" x="-0.59230" y="0.40057"/><rect height="0.00045080" width="0.028205" x="-0.56410" y="0.40033"/><rect height="0.00096392" width="0.028205" x="-0.53589" y="0.39981"/><rect height="0.0019803" width="0.028205" x="-0.50769" y="0.39880"/><rect height="0.0039089" width="0.028205" x="-0.47948" y="0.39687"/><rect height="0.0074132" width="0.028205" x="-0.45128" y="0.39336"/><rect height="0.013508" width="0.028205" x="-0.42307" y="0.38727"/><rect height="0.023648" width="0.028205" x="-0.39487" y="0.37713"/><rect height="0.039776" width="0.028205" x="-0.36666" y="0.36100"/><rect height="0.064281" width="0.028205" x="-0.33846" y="0.33650"/><rect height="0.099809" width="0.028205" x="-0.31025" y="0.30097"/><rect height="0.14890" width="0.028205" x="-0.28205" y="0.25188"/><rect height="0.21342" width="0.028205" x="-0.25384" y="0.18736"/><rect height="0.29391" width="0.028205" x="-0.22564" y="0.10687"/><rect height="0.38888" width="0.028205" x="-0.19743" y="0.011902"/><rect height="0.49436" width="0.028205" x="-0.16923" y="-0.093580"/><rect height="0.60381" width="0.028205" x="-0.14102" y="-0.20303"/><rect height="0.70858" width="0.028205" x="-0.11282" y="-0.30780"/><rect height="0.79892" width="0.028205" x="-0.084614" y="-0.39814"/><rect height="0.86546" width="0.028205" x="-0.056410" y="-0.46468"/><rect height="0.90078" width="0.028205" x="-0.028205" y="-0.50000"/><rect height="0.90078" width="0.028205" x="0.0000" y="-0.50000"/><rect height="0.86546" width="0.028205" x="0.028205" y="-0.46468"/><rect height="0.79892" width="0.028205" x="0.056410" y="-0.39814"/><rect height="0.70858" width="0.028205" x="0.084614" y="-0.30780"/><rect height="0.60381" width="0.028205" x="0.11282" y="-0.20303"/><rect height="0.49436" width="0.028205" x="0.14102" y="-0.093580"/><rect height="0.38888" width="0.028205" x="0.16923" y="0.011902"/><rect height="0.29391" width="0.028205" x="0.19743" y="0.10687"/><rect height="0.21342" width="0.028205" x="0.22564" y="0.18736"/><rect height="0.14890" width="0.028205" x="0.25384" y="0.25188"/><rect height="0.099809" width="0.028205" x="0.28205" y="0.30097"/><rect height="0.064281" width="0.028205" x="0.31025" y="0.33650"/><rect height="0.039776" width="0.028205" x="0.33846" y="0.36100"/><rect height="0.023648" width="0.028205" x="0.36666" y="0.37713"/><rect height="0.013508" width="0.028205" x="0.39487" y="0.38727"/><rect height="0.0074132" width="0.028205" x="0.42307" y="0.39336"/><rect height="0.0039089" width="0.028205" x="0.45128" y="0.39687"/><rect height="0.0019803" width="0.028205" x="0.47948" y="0.39880"/><rect height="0.00096392" width="0.028205" x="0.50769" y="0.39981"/><rect height="0.00045080" width="0.028205" x="0.53589" y="0.40033"/><rect height="0.00020256" width="0.028205" x="0.56410" y="0.40057"/><rect height="0.000087445" width="0.028205" x="0.59230" y="0.40069"/><rect height="0.000036271" width="0.028205" x="0.62051" y="0.40074"/><rect height="0.000014455" width="0.028205" x="0.64871" y="0.40076"/><rect height="0.0000055346" width="0.028205" x="0.67691" y="0.40077"/></g><g fill="rgba(66%, 7%, 55%, 0.40)" stroke="rgba(0%, 0%, 0%, 0.00)" stroke-width="0.0000"><rect height="0.022508" width="0.028205" x="-0.70512" y="0.37827"/><rect height="0.028613" width="0.028205" x="-0.67691" y="0.37216"/><rect height="0.036012" width="0.028205" x="-0.64871" y="0.36477"/><rect height="0.044874" width="0.028205" x="-0.62051" y="0.35590"/><rect height="0.055360" width="0.028205" x="-0.59230" y="0.34542"/><rect height="0.067617" width="0.028205" x="-0.56410" y="0.33316"/><rect height="0.081766" width="0.028205" x="-0.53589" y="0.31901"/><rect height="0.097892" width="0.028205" x="-0.50769" y="0.30289"/><rect height="0.11603" width="0.028205" x="-0.47948" y="0.28475"/><rect height="0.13616" width="0.028205" x="-0.45128" y="0.26461"/><rect height="0.15820" width="0.028205" x="-0.42307" y="0.24258"/><rect height="0.18197" width="0.028205" x="-0.39487" y="0.21880"/><rect height="0.20724" width="0.028205" x="-0.36666" y="0.19354"/><rect height="0.23366" width="0.028205" x="-0.33846" y="0.16712"/><rect height="0.26083" width="0.028205" x="-0.31025" y="0.13995"/><rect height="0.28826" width="0.028205" x="-0.28205" y="0.11252"/><rect height="0.31541" width="0.028205" x="-0.25384" y="0.085371"/><rect height="0.34168" width="0.028205" x="-0.22564" y="0.059102"/><rect height="0.36645" width="0.028205" x="-0.19743" y="0.034328"/><rect height="0.38911" width="0.028205" x="-0.16923" y="0.011668"/><rect height="0.40906" width="0.028205" x="-0.14102" y="-0.0082823"/><rect height="0.42575" width="0.028205" x="-0.11282" y="-0.024976"/><rect height="0.43872" width="0.028205" x="-0.084614" y="-0.037942"/><rect height="0.44758" width="0.028205" x="-0.056410" y="-0.046805"/><rect height="0.45208" width="0.028205" x="-0.028205" y="-0.051303"/><rect height="0.45208" width="0.028205" x="0.0000" y="-0.051303"/><rect height="0.44758" width="0.028205" x="0.028205" y="-0.046805"/><rect height="0.43872" width="0.028205" x="0.056410" y="-0.037942"/><rect height="0.42575" width="0.028205" x="0.084614" y="-0.024976"/><rect height="0.40906" width="0.028205" x="0.11282" y="-0.0082823"/><rect height="0.38911" width="0.028205" x="0.14102" y="0.011668"/><rect height="0.36645" width="0.028205" x="0.16923" y="0.034328"/><rect height="0.34168" width="0.028205" x="0.19743" y="0.059102"/><rect height="0.31541" width="0.028205" x="0.22564" y="0.085371"/><rect height="0.28826" width="0.028205" x="0.25384" y="0.11252"/><rect height="0.26083" width="0.028205" x="0.28205" y="0.13995"/><rect height="0.23366" width="0.028205" x="0.31025" y="0.16712"/><rect height="0.20724" width="0.028205" x="0.33846" y="0.19354"/><rect height="0.18197" width="0.028205" x="0.36666" y="0.21880"/><rect height="0.15820" width="0.028205" x="0.39487" y="0.24258"/><rect height="0.13616" width="0.028205" x="0.42307" y="0.26461"/><rect height="0.11603" width="0.028205" x="0.45128" y="0.28475"/><rect height="0.097892" width="0.028205" x="0.47948" y="0.30289"/><rect height="0.081766" width="0.028205" x="0.50769" y="0.31901"/><rect height="0.067617" width="0.028205" x="0.53589" y="0.33316"/><rect height="0.055360" width="0.028205" x="0.56410" y="0.34542"/><rect height="0.044874" width="0.028205" x="0.59230" y="0.35590"/><rect height="0.036012" width="0.028205" x="0.62051" y="0.36477"/><rect height="0.028613" width="0.028205" x="0.64871" y="0.37216"/><rect height="0.022508" width="0.028205" x="0.67691" y="0.37827"/></g></g></g><g class="hud"><g class="axis"><g class="ticks"><g class="tickglyph"><g fill="rgba(5%, 5%, 5%, 0.40)" stroke="rgba(5%, 5%, 5%, 0.40)" stroke-width="0.0040000"><polyline points="-0.70512,0.44280
-0.70512,0.41280"/><polyline points="-0.56410,0.44280
-0.56410,0.41280"/><polyline points="-0.42307,0.44280
-0.42307,0.41280"/><polyline points="-0.28205,0.44280
-0.28205,0.41280"/><polyline points="-0.14102,0.44280
-0.14102,0.41280"/><polyline points="0.0000,0.44280
0.0000,0.41280"/><polyline points="0.14102,0.44280
0.14102,0.41280"/><polyline points="0.28205,0.44280
0.28205,0.41280"/><polyline points="0.42307,0.44280
0.42307,0.41280"/><polyline points="0.56410,0.44280
0.56410,0.41280"/><polyline points="0.70512,0.44280
0.70512,0.41280"/></g></g><g class="ticktext"><g fill="rgba(5%, 5%, 5%, 1.00)" font-size="0.047008" stroke="none" stroke-width="0.0" text-anchor="middle"><text x="-0.70512" y="0.48500">-5.0</text><text x="-0.56410" y="0.48500">-4.0</text><text x="-0.42307" y="0.48500">-3.0</text><text x="-0.28205" y="0.48500">-2.0</text><text x="-0.14102" y="0.48500">-1.0</text><text x="0.0000" y="0.48500"> 0.0</text><text x="0.14102" y="0.48500"> 1.0</text><text x="0.28205" y="0.48500"> 2.0</text><text x="0.42307" y="0.48500"> 3.0</text><text x="0.56410" y="0.48500"> 4.0</text><text x="0.70512" y="0.48500"> 5.0</text></g></g></g><g class="axisbar"><g fill="rgba(5%, 5%, 5%, 0.40)" stroke="rgba(0%, 0%, 0%, 0.00)" stroke-width="0.0000"><rect height="0.0036031" width="1.4140" x="-0.70700" y="0.40979"/></g></g></g></g></svg>