<svg width="442.8070175438596" xmlns:xlink="http://www.w3.org/1999/xlink" xmlns="http://www.w3.org/2000/svg" viewBox="-0.795 -0.5225 1.5775000000000001 1.06875" height="300.0"><style>svg {
  color-scheme: light dark;
}
@media (prefers-color-scheme:light) {
  svg {
    background-color: white;
  }
}</style><g stroke-opacity="0.0" fill="#0d0d0d" stroke="#000000" stroke-width="0.0" fill-opacity="5.0e-2"><rect width="1.5" x="-0.75" y="-0.5" height="0.9019165727170236"/></g><g stroke-opacity="5.0e-2" fill="none" stroke="#0d0d0d" stroke-width="5.0e-3"><polyline points="-0.75,0.40191657271702363
-0.75,-0.5"/></g><g stroke-opacity="5.0e-2" fill="none" stroke="#0d0d0d" stroke-width="5.0e-3"><polyline points="-0.6,0.40191657271702363
-0.6,-0.5"/></g><g stroke-opacity="5.0e-2" fill="none" stroke="#0d0d0d" stroke-width="5.0e-3"><polyline points="-0.44999999999999996,0.40191657271702363
-0.44999999999999996,-0.5"/></g><g stroke-opacity="5.0e-2" fill="none" stroke="#0d0d0d" stroke-width="5.0e-3"><polyline points="-0.29999999999999993,0.40191657271702363
-0.29999999999999993,-0.5"/></g><g stroke-opacity="5.0e-2" fill="none" stroke="#0d0d0d" stroke-width="5.0e-3"><polyline points="-0.1499999999999999,0.40191657271702363
-0.1499999999999999,-0.5"/></g><g stroke-opacity="5.0e-2" fill="none" stroke="#0d0d0d" stroke-width="5.0e-3"><polyline points="0.0,0.40191657271702363
0.0,-0.5"/></g><g stroke-opacity="5.0e-2" fill="none" stroke="#0d0d0d" stroke-width="5.0e-3"><polyline points="0.15000000000000013,0.40191657271702363
0.15000000000000013,-0.5"/></g><g stroke-opacity="5.0e-2" fill="none" stroke="#0d0d0d" stroke-width="5.0e-3"><polyline points="0.2999999999999998,0.40191657271702363
0.2999999999999998,-0.5"/></g><g stroke-opacity="5.0e-2" fill="none" stroke="#0d0d0d" stroke-width="5.0e-3"><polyline points="0.4500000000000002,0.40191657271702363
0.4500000000000002,-0.5"/></g><g stroke-opacity="5.0e-2" fill="none" stroke="#0d0d0d" stroke-width="5.0e-3"><polyline points="0.6000000000000001,0.40191657271702363
0.6000000000000001,-0.5"/></g><g stroke-opacity="5.0e-2" fill="none" stroke="#0d0d0d" stroke-width="5.0e-3"><polyline points="0.75,0.40191657271702363
0.75,-0.5"/></g><g fill="#0d0d0d" stroke="none" stroke-width="0.0" font-size="5.0e-2" fill-opacity="1.0" text-anchor="middle"><text x="-0.75" y="0.5">-5</text></g><g fill="#0d0d0d" stroke="none" stroke-width="0.0" font-size="5.0e-2" fill-opacity="1.0" text-anchor="middle"><text x="-0.6" y="0.5">-4</text></g><g fill="#0d0d0d" stroke="none" stroke-width="0.0" font-size="5.0e-2" fill-opacity="1.0" text-anchor="middle"><text x="-0.44999999999999996" y="0.5">-3</text></g><g fill="#0d0d0d" stroke="none" stroke-width="0.0" font-size="5.0e-2" fill-opacity="1.0" text-anchor="middle"><text x="-0.29999999999999993" y="0.5">-2</text></g><g fill="#0d0d0d" stroke="none" stroke-width="0.0" font-size="5.0e-2" fill-opacity="1.0" text-anchor="middle"><text x="-0.1499999999999999" y="0.5">-1</text></g><g fill="#0d0d0d" stroke="none" stroke-width="0.0" font-size="5.0e-2" fill-opacity="1.0" text-anchor="middle"><text x="0.0" y="0.5">0</text></g><g fill="#0d0d0d" stroke="none" stroke-width="0.0" font-size="5.0e-2" fill-opacity="1.0" text-anchor="middle"><text x="0.15000000000000013" y="0.5">1</text></g><g fill="#0d0d0d" stroke="none" stroke-width="0.0" font-size="5.0e-2" fill-opacity="1.0" text-anchor="middle"><text x="0.2999999999999998" y="0.5">2</text></g><g fill="#0d0d0d" stroke="none" stroke-width="0.0" font-size="5.0e-2" fill-opacity="1.0" text-anchor="middle"><text x="0.4500000000000002" y="0.5">3</text></g><g fill="#0d0d0d" stroke="none" stroke-width="0.0" font-size="5.0e-2" fill-opacity="1.0" text-anchor="middle"><text x="0.6000000000000001" y="0.5">4</text></g><g fill="#0d0d0d" stroke="none" stroke-width="0.0" font-size="5.0e-2" fill-opacity="1.0" text-anchor="middle"><text x="0.75" y="0.5">5</text></g><g stroke-opacity="0.4" fill="#0d0d0d" stroke="#0d0d0d" stroke-width="2.0e-3" fill-opacity="0.4"><polyline points="-0.75,0.44081736189402476
-0.75,0.41081736189402474"/><polyline points="-0.6,0.44081736189402476
-0.6,0.41081736189402474"/><polyline points="-0.44999999999999996,0.44081736189402476
-0.44999999999999996,0.41081736189402474"/><polyline points="-0.29999999999999993,0.44081736189402476
-0.29999999999999993,0.41081736189402474"/><polyline points="-0.1499999999999999,0.44081736189402476
-0.1499999999999999,0.41081736189402474"/><polyline points="0.0,0.44081736189402476
0.0,0.41081736189402474"/><polyline points="0.15000000000000013,0.44081736189402476
0.15000000000000013,0.41081736189402474"/><polyline points="0.2999999999999998,0.44081736189402476
0.2999999999999998,0.41081736189402474"/><polyline points="0.4500000000000002,0.44081736189402476
0.4500000000000002,0.41081736189402474"/><polyline points="0.6000000000000001,0.44081736189402476
0.6000000000000001,0.41081736189402474"/><polyline points="0.75,0.44081736189402476
0.75,0.41081736189402474"/></g><g stroke-opacity="0.0" fill="#0d0d0d" stroke="#000000" stroke-width="0.0" fill-opacity="0.4"><rect width="1.5" x="-0.75" y="0.41093573844419395" height="3.6076662908680057e-3"/></g><g stroke-opacity="0.0" fill="#a6cfe3" stroke="#000000" stroke-width="0.0" fill-opacity="1.0"><rect width="2.9999999999999916e-2" x="-0.75" y="0.40191103115007587" height="5.541566947764309e-6"/><rect width="3.0000000000000027e-2" x="-0.72" y="0.4019020998261689" height="1.447289085471093e-5"/><rect width="2.9999999999999916e-2" x="-0.69" y="0.40188025603108735" height="3.631668593628845e-5"/><rect width="2.9999999999999916e-2" x="-0.66" y="0.4018290168295618" height="8.755588746184317e-5"/><rect width="2.9999999999999916e-2" x="-0.63" y="0.40171376115068425" height="2.0281156633938924e-4"/><rect width="2.9999999999999916e-2" x="-0.6" y="0.4014652072753636" height="4.5136544166002324e-4"/><rect width="3.0000000000000138e-2" x="-0.5700000000000001" y="0.4009514287263679" height="9.651439906557258e-4"/><rect width="3.0000000000000027e-2" x="-0.5399999999999999" y="0.399933748849567" height="1.982823867456629e-3"/><rect width="3.0000000000000138e-2" x="-0.51" y="0.39800272083811594" height="3.913851878907693e-3"/><rect width="3.0000000000000027e-2" x="-0.48" y="0.3944940274642435" height="7.422545252780133e-3"/><rect width="3.0000000000000027e-2" x="-0.44999999999999996" y="0.3883918134651836" height="1.3524759251840046e-2"/><rect width="3.0000000000000027e-2" x="-0.41999999999999993" y="0.3782391486217019" height="2.3677424095321753e-2"/><rect width="3.0000000000000027e-2" x="-0.3899999999999999" y="0.36209049071504584" height="3.982608200197779e-2"/><rect width="3.0000000000000027e-2" x="-0.36" y="0.33755466105399223" height="6.43619116630314e-2"/><rect width="3.0000000000000027e-2" x="-0.32999999999999996" y="0.3019813678806458" height="9.993520483637786e-2"/><rect width="3.0000000000000027e-2" x="-0.29999999999999993" y="0.2528307659782759" height="0.14908580673874772"/><rect width="3.0000000000000027e-2" x="-0.2699999999999999" y="0.18822750062491828" height="0.21368907209210536"/><rect width="3.0000000000000138e-2" x="-0.23999999999999988" y="0.10763941860379728" height="0.29427715411322636"/><rect width="3.0000000000000027e-2" x="-0.20999999999999996" y="1.2549697019995643e-2" height="0.389366875697028"/><rect width="3.0000000000000027e-2" x="-0.17999999999999994" y="-9.306573717612321e-2" height="0.49498230989314684"/><rect width="3.0000000000000027e-2" x="-0.1499999999999999" y="-0.20265618582695755" height="0.6045727585439812"/><rect width="3.0000000000000027e-2" x="-0.11999999999999988" y="-0.3075561317398453" height="0.7094727044568689"/><rect width="3.0000000000000027e-2" x="-8.999999999999986e-2" y="-0.39801166783960107" height="0.7999282405566247"/><rect width="3.0000000000000027e-2" x="-5.999999999999983e-2" y="-0.46463534534595097" height="0.8665519180629746"/><rect width="3.0000000000000027e-2" x="-2.9999999999999805e-2" y="-0.5" height="0.9019165727170236"/><rect width="3.0000000000000027e-2" x="0.0" y="-0.5" height="0.9019165727170236"/><rect width="3.0000000000000027e-2" x="3.0000000000000027e-2" y="-0.46463534534595097" height="0.8665519180629746"/><rect width="3.0000000000000027e-2" x="6.000000000000005e-2" y="-0.39801166783960074" height="0.7999282405566244"/><rect width="3.0000000000000027e-2" x="9.000000000000008e-2" y="-0.307556131739845" height="0.7094727044568686"/><rect width="3.0000000000000027e-2" x="0.1200000000000001" y="-0.20265618582695732" height="0.604572758543981"/><rect width="3.0000000000000027e-2" x="0.15000000000000013" y="-9.306573717612299e-2" height="0.4949823098931466"/><rect width="3.0000000000000027e-2" x="0.18000000000000016" y="1.2549697019995865e-2" height="0.38936687569702777"/><rect width="3.0000000000000027e-2" x="0.2100000000000002" y="0.10763941860379772" height="0.2942771541132259"/><rect width="3.0000000000000027e-2" x="0.2400000000000002" y="0.1882275006249186" height="0.21368907209210503"/><rect width="3.0000000000000027e-2" x="0.27000000000000024" y="0.25283076597827614" height="0.1490858067387475"/><rect width="3.000000000000025e-2" x="0.2999999999999998" y="0.3019813678806459" height="9.993520483637774e-2"/><rect width="2.9999999999999805e-2" x="0.33000000000000007" y="0.33755466105399234" height="6.436191166303129e-2"/><rect width="3.000000000000025e-2" x="0.3599999999999999" y="0.36209049071504595" height="3.982608200197768e-2"/><rect width="2.9999999999999805e-2" x="0.3900000000000001" y="0.378239148621702" height="2.3677424095321642e-2"/><rect width="3.000000000000025e-2" x="0.41999999999999993" y="0.3883918134651836" height="1.3524759251840046e-2"/><rect width="2.9999999999999805e-2" x="0.4500000000000002" y="0.3944940274642435" height="7.422545252780133e-3"/><rect width="3.000000000000025e-2" x="0.4800000000000002" y="0.398002720838116" height="3.913851878907637e-3"/><rect width="2.9999999999999805e-2" x="0.5100000000000002" y="0.399933748849567" height="1.982823867456629e-3"/><rect width="3.000000000000025e-2" x="0.54" y="0.4009514287263679" height="9.651439906557258e-4"/><rect width="2.9999999999999805e-2" x="0.5700000000000003" y="0.4014652072753636" height="4.5136544166002324e-4"/><rect width="2.9999999999999805e-2" x="0.6000000000000001" y="0.40171376115068425" height="2.0281156633938924e-4"/><rect width="2.9999999999999805e-2" x="0.6300000000000003" y="0.4018290168295618" height="8.755588746184317e-5"/><rect width="2.9999999999999805e-2" x="0.6600000000000001" y="0.40188025603108735" height="3.631668593628845e-5"/><rect width="2.9999999999999805e-2" x="0.6900000000000004" y="0.4019020998261689" height="1.447289085471093e-5"/><rect width="2.9999999999999805e-2" x="0.7200000000000002" y="0.40191103115007587" height="5.541566947764309e-6"/></g><g stroke-opacity="0.0" fill="#1f78b5" stroke="#000000" stroke-width="0.0" fill-opacity="1.0"><rect width="2.9999999999999916e-2" x="-0.75" y="0.37938032902928515" height="2.253624368773849e-2"/><rect width="3.0000000000000027e-2" x="-0.72" y="0.37326739207755" height="2.8649180639473637e-2"/><rect width="2.9999999999999916e-2" x="-0.69" y="0.36585871367971073" height="3.60578590373129e-2"/><rect width="2.9999999999999916e-2" x="-0.66" y="0.3569857136158281" height="4.493085910119554e-2"/><rect width="2.9999999999999916e-2" x="-0.63" y="0.3464863576288709" height="5.543021508815271e-2"/><rect width="2.9999999999999916e-2" x="-0.6" y="0.33421395512294244" height="6.77026175940812e-2"/><rect width="3.0000000000000138e-2" x="-0.5700000000000001" y="0.32004720963103817" height="8.186936308598547e-2"/><rect width="3.0000000000000027e-2" x="-0.5399999999999999" y="0.30390114972275806" height="9.801542299426558e-2"/><rect width="3.0000000000000138e-2" x="-0.51" y="0.2857384163377029" height="0.11617815637932072"/><rect width="3.0000000000000027e-2" x="-0.48" y="0.26558024323410434" height="0.1363363294829193"/><rect width="3.0000000000000027e-2" x="-0.44999999999999996" y="0.24351635659588233" height="0.1584002161211413"/><rect width="3.0000000000000027e-2" x="-0.41999999999999993" y="0.21971295437955257" height="0.18220361833747106"/><rect width="3.0000000000000027e-2" x="-0.3899999999999999" y="0.194417920609865" height="0.20749865210715862"/><rect width="3.0000000000000027e-2" x="-0.36" y="0.16796249575923816" height="0.23395407695778547"/><rect width="3.0000000000000027e-2" x="-0.32999999999999996" y="0.1407587671146005" height="0.26115780560242313"/><rect width="3.0000000000000027e-2" x="-0.29999999999999993" y="0.1132925609367722" height="0.28862401178025143"/><rect width="3.0000000000000027e-2" x="-0.2699999999999999" y="8.611160136724288e-2" height="0.31580497134978075"/><rect width="3.0000000000000138e-2" x="-0.23999999999999988" y="5.9809131346345246e-2" height="0.3421074413706784"/><rect width="3.0000000000000027e-2" x="-0.20999999999999996" y="3.500354297902386e-2" height="0.3669130297379998"/><rect width="3.0000000000000027e-2" x="-0.17999999999999994" y="1.2314908337531238e-2" height="0.3896016643794924"/><rect width="3.0000000000000027e-2" x="-0.1499999999999999" y="-7.660396145129145e-3" height="0.4095769688621528"/><rect width="3.0000000000000027e-2" x="-0.11999999999999988" y="-2.4375549335765356e-2" height="0.426292122052789"/><rect width="3.0000000000000027e-2" x="-8.999999999999986e-2" y="-3.735807724093865e-2" height="0.4392746499579623"/><rect width="3.0000000000000027e-2" x="-5.999999999999983e-2" y="-4.623201380987363e-2" height="0.44814858652689726"/><rect width="3.0000000000000027e-2" x="-2.9999999999999805e-2" y="-5.0735981983002665e-2" height="0.4526525547000263"/><rect width="3.0000000000000027e-2" x="0.0" y="-5.0735981983002665e-2" height="0.4526525547000263"/><rect width="3.0000000000000027e-2" x="3.0000000000000027e-2" y="-4.623201380987363e-2" height="0.44814858652689726"/><rect width="3.0000000000000027e-2" x="6.000000000000005e-2" y="-3.735807724093865e-2" height="0.4392746499579623"/><rect width="3.0000000000000027e-2" x="9.000000000000008e-2" y="-2.4375549335765245e-2" height="0.4262921220527889"/><rect width="3.0000000000000027e-2" x="0.1200000000000001" y="-7.660396145129145e-3" height="0.4095769688621528"/><rect width="3.0000000000000027e-2" x="0.15000000000000013" y="1.231490833753135e-2" height="0.3896016643794923"/><rect width="3.0000000000000027e-2" x="0.18000000000000016" y="3.500354297902386e-2" height="0.3669130297379998"/><rect width="3.0000000000000027e-2" x="0.2100000000000002" y="5.980913134634536e-2" height="0.3421074413706783"/><rect width="3.0000000000000027e-2" x="0.2400000000000002" y="8.6111601367243e-2" height="0.31580497134978064"/><rect width="3.0000000000000027e-2" x="0.27000000000000024" y="0.11329256093677242" height="0.2886240117802512"/><rect width="3.000000000000025e-2" x="0.2999999999999998" y="0.1407587671146006" height="0.261157805602423"/><rect width="2.9999999999999805e-2" x="0.33000000000000007" y="0.16796249575923822" height="0.23395407695778542"/><rect width="3.000000000000025e-2" x="0.3599999999999999" y="0.19441792060986512" height="0.2074986521071585"/><rect width="2.9999999999999805e-2" x="0.3900000000000001" y="0.21971295437955268" height="0.18220361833747095"/><rect width="3.000000000000025e-2" x="0.41999999999999993" y="0.24351635659588244" height="0.1584002161211412"/><rect width="2.9999999999999805e-2" x="0.4500000000000002" y="0.26558024323410434" height="0.1363363294829193"/><rect width="3.000000000000025e-2" x="0.4800000000000002" y="0.285738416337703" height="0.11617815637932061"/><rect width="2.9999999999999805e-2" x="0.5100000000000002" y="0.30390114972275806" height="9.801542299426558e-2"/><rect width="3.000000000000025e-2" x="0.54" y="0.32004720963103817" height="8.186936308598547e-2"/><rect width="2.9999999999999805e-2" x="0.5700000000000003" y="0.3342139551229425" height="6.770261759408114e-2"/><rect width="2.9999999999999805e-2" x="0.6000000000000001" y="0.34648635762887087" height="5.543021508815277e-2"/><rect width="2.9999999999999805e-2" x="0.6300000000000003" y="0.3569857136158281" height="4.493085910119554e-2"/><rect width="2.9999999999999805e-2" x="0.6600000000000001" y="0.36585871367971073" height="3.60578590373129e-2"/><rect width="2.9999999999999805e-2" x="0.6900000000000004" y="0.3732673920775501" height="2.8649180639473526e-2"/><rect width="2.9999999999999805e-2" x="0.7200000000000002" y="0.37938032902928515" height="2.253624368773849e-2"/></g><g></g></svg>