<svg height="300.0" width="442.8070175438596" xmlns:xlink="http://www.w3.org/1999/xlink" xmlns="http://www.w3.org/2000/svg" viewBox="-0.795 -0.5225 1.5775000000000001 1.06875"><g fill-opacity="5.0e-2" stroke-opacity="0.0" fill="#0d0d0d" stroke-width="0.0" stroke="#000000"><rect height="0.9019165727170236" y="-0.5" width="1.5" x="-0.75"/></g><g stroke-opacity="5.0e-2" fill="none" stroke-width="5.0e-3" stroke="#0d0d0d"><polyline points="-0.75,0.40191657271702363
-0.75,-0.5"/></g><g stroke-opacity="5.0e-2" fill="none" stroke-width="5.0e-3" stroke="#0d0d0d"><polyline points="-0.6,0.40191657271702363
-0.6,-0.5"/></g><g stroke-opacity="5.0e-2" fill="none" stroke-width="5.0e-3" stroke="#0d0d0d"><polyline points="-0.44999999999999996,0.40191657271702363
-0.44999999999999996,-0.5"/></g><g stroke-opacity="5.0e-2" fill="none" stroke-width="5.0e-3" stroke="#0d0d0d"><polyline points="-0.29999999999999993,0.40191657271702363
-0.29999999999999993,-0.5"/></g><g stroke-opacity="5.0e-2" fill="none" stroke-width="5.0e-3" stroke="#0d0d0d"><polyline points="-0.1499999999999999,0.40191657271702363
-0.1499999999999999,-0.5"/></g><g stroke-opacity="5.0e-2" fill="none" stroke-width="5.0e-3" stroke="#0d0d0d"><polyline points="0.0,0.40191657271702363
0.0,-0.5"/></g><g stroke-opacity="5.0e-2" fill="none" stroke-width="5.0e-3" stroke="#0d0d0d"><polyline points="0.15000000000000013,0.40191657271702363
0.15000000000000013,-0.5"/></g><g stroke-opacity="5.0e-2" fill="none" stroke-width="5.0e-3" stroke="#0d0d0d"><polyline points="0.2999999999999998,0.40191657271702363
0.2999999999999998,-0.5"/></g><g stroke-opacity="5.0e-2" fill="none" stroke-width="5.0e-3" stroke="#0d0d0d"><polyline points="0.4500000000000002,0.40191657271702363
0.4500000000000002,-0.5"/></g><g stroke-opacity="5.0e-2" fill="none" stroke-width="5.0e-3" stroke="#0d0d0d"><polyline points="0.6000000000000001,0.40191657271702363
0.6000000000000001,-0.5"/></g><g stroke-opacity="5.0e-2" fill="none" stroke-width="5.0e-3" stroke="#0d0d0d"><polyline points="0.75,0.40191657271702363
0.75,-0.5"/></g><g text-anchor="middle" fill-opacity="1.0" fill="#0d0d0d" stroke-width="0.0" stroke="none" font-size="5.0e-2"><text y="0.5" x="-0.75">-5</text></g><g text-anchor="middle" fill-opacity="1.0" fill="#0d0d0d" stroke-width="0.0" stroke="none" font-size="5.0e-2"><text y="0.5" x="-0.6">-4</text></g><g text-anchor="middle" fill-opacity="1.0" fill="#0d0d0d" stroke-width="0.0" stroke="none" font-size="5.0e-2"><text y="0.5" x="-0.44999999999999996">-3</text></g><g text-anchor="middle" fill-opacity="1.0" fill="#0d0d0d" stroke-width="0.0" stroke="none" font-size="5.0e-2"><text y="0.5" x="-0.29999999999999993">-2</text></g><g text-anchor="middle" fill-opacity="1.0" fill="#0d0d0d" stroke-width="0.0" stroke="none" font-size="5.0e-2"><text y="0.5" x="-0.1499999999999999">-1</text></g><g text-anchor="middle" fill-opacity="1.0" fill="#0d0d0d" stroke-width="0.0" stroke="none" font-size="5.0e-2"><text y="0.5" x="0.0">0</text></g><g text-anchor="middle" fill-opacity="1.0" fill="#0d0d0d" stroke-width="0.0" stroke="none" font-size="5.0e-2"><text y="0.5" x="0.15000000000000013">1</text></g><g text-anchor="middle" fill-opacity="1.0" fill="#0d0d0d" stroke-width="0.0" stroke="none" font-size="5.0e-2"><text y="0.5" x="0.2999999999999998">2</text></g><g text-anchor="middle" fill-opacity="1.0" fill="#0d0d0d" stroke-width="0.0" stroke="none" font-size="5.0e-2"><text y="0.5" x="0.4500000000000002">3</text></g><g text-anchor="middle" fill-opacity="1.0" fill="#0d0d0d" stroke-width="0.0" stroke="none" font-size="5.0e-2"><text y="0.5" x="0.6000000000000001">4</text></g><g text-anchor="middle" fill-opacity="1.0" fill="#0d0d0d" stroke-width="0.0" stroke="none" font-size="5.0e-2"><text y="0.5" x="0.75">5</text></g><g fill-opacity="0.4" stroke-opacity="0.4" fill="#0d0d0d" stroke-width="2.0e-3" stroke="#0d0d0d"><polyline points="-0.75,0.44081736189402476
-0.75,0.41081736189402474"/><polyline points="-0.6,0.44081736189402476
-0.6,0.41081736189402474"/><polyline points="-0.44999999999999996,0.44081736189402476
-0.44999999999999996,0.41081736189402474"/><polyline points="-0.29999999999999993,0.44081736189402476
-0.29999999999999993,0.41081736189402474"/><polyline points="-0.1499999999999999,0.44081736189402476
-0.1499999999999999,0.41081736189402474"/><polyline points="0.0,0.44081736189402476
0.0,0.41081736189402474"/><polyline points="0.15000000000000013,0.44081736189402476
0.15000000000000013,0.41081736189402474"/><polyline points="0.2999999999999998,0.44081736189402476
0.2999999999999998,0.41081736189402474"/><polyline points="0.4500000000000002,0.44081736189402476
0.4500000000000002,0.41081736189402474"/><polyline points="0.6000000000000001,0.44081736189402476
0.6000000000000001,0.41081736189402474"/><polyline points="0.75,0.44081736189402476
0.75,0.41081736189402474"/></g><g fill-opacity="0.4" stroke-opacity="0.0" fill="#0d0d0d" stroke-width="0.0" stroke="#000000"><rect height="3.6076662908680057e-3" y="0.41093573844419395" width="1.5" x="-0.75"/></g><g fill-opacity="1.0" stroke-opacity="0.0" fill="#a6cfe3" stroke-width="0.0" stroke="#000000"><rect height="5.541566947764309e-6" y="0.40191103115007587" width="2.9999999999999916e-2" x="-0.75"/><rect height="1.447289085471093e-5" y="0.4019020998261689" width="3.0000000000000027e-2" x="-0.72"/><rect height="3.631668593628845e-5" y="0.40188025603108735" width="2.9999999999999916e-2" x="-0.69"/><rect height="8.755588746184317e-5" y="0.4018290168295618" width="2.9999999999999916e-2" x="-0.66"/><rect height="2.0281156633938924e-4" y="0.40171376115068425" width="2.9999999999999916e-2" x="-0.63"/><rect height="4.5136544166002324e-4" y="0.4014652072753636" width="2.9999999999999916e-2" x="-0.6"/><rect height="9.651439906557258e-4" y="0.4009514287263679" width="3.0000000000000138e-2" x="-0.5700000000000001"/><rect height="1.982823867456629e-3" y="0.399933748849567" width="3.0000000000000027e-2" x="-0.5399999999999999"/><rect height="3.913851878907693e-3" y="0.39800272083811594" width="3.0000000000000138e-2" x="-0.51"/><rect height="7.422545252780133e-3" y="0.3944940274642435" width="3.0000000000000027e-2" x="-0.48"/><rect height="1.3524759251840046e-2" y="0.3883918134651836" width="3.0000000000000027e-2" x="-0.44999999999999996"/><rect height="2.3677424095321753e-2" y="0.3782391486217019" width="3.0000000000000027e-2" x="-0.41999999999999993"/><rect height="3.982608200197779e-2" y="0.36209049071504584" width="3.0000000000000027e-2" x="-0.3899999999999999"/><rect height="6.43619116630314e-2" y="0.33755466105399223" width="3.0000000000000027e-2" x="-0.36"/><rect height="9.993520483637786e-2" y="0.3019813678806458" width="3.0000000000000027e-2" x="-0.32999999999999996"/><rect height="0.14908580673874772" y="0.2528307659782759" width="3.0000000000000027e-2" x="-0.29999999999999993"/><rect height="0.21368907209210536" y="0.18822750062491828" width="3.0000000000000027e-2" x="-0.2699999999999999"/><rect height="0.29427715411322636" y="0.10763941860379728" width="3.0000000000000138e-2" x="-0.23999999999999988"/><rect height="0.389366875697028" y="1.2549697019995643e-2" width="3.0000000000000027e-2" x="-0.20999999999999996"/><rect height="0.49498230989314684" y="-9.306573717612321e-2" width="3.0000000000000027e-2" x="-0.17999999999999994"/><rect height="0.6045727585439812" y="-0.20265618582695755" width="3.0000000000000027e-2" x="-0.1499999999999999"/><rect height="0.7094727044568689" y="-0.3075561317398453" width="3.0000000000000027e-2" x="-0.11999999999999988"/><rect height="0.7999282405566247" y="-0.39801166783960107" width="3.0000000000000027e-2" x="-8.999999999999986e-2"/><rect height="0.8665519180629746" y="-0.46463534534595097" width="3.0000000000000027e-2" x="-5.999999999999983e-2"/><rect height="0.9019165727170236" y="-0.5" width="3.0000000000000027e-2" x="-2.9999999999999805e-2"/><rect height="0.9019165727170236" y="-0.5" width="3.0000000000000027e-2" x="0.0"/><rect height="0.8665519180629746" y="-0.46463534534595097" width="3.0000000000000027e-2" x="3.0000000000000027e-2"/><rect height="0.7999282405566244" y="-0.39801166783960074" width="3.0000000000000027e-2" x="6.000000000000005e-2"/><rect height="0.7094727044568686" y="-0.307556131739845" width="3.0000000000000027e-2" x="9.000000000000008e-2"/><rect height="0.604572758543981" y="-0.20265618582695732" width="3.0000000000000027e-2" x="0.1200000000000001"/><rect height="0.4949823098931466" y="-9.306573717612299e-2" width="3.0000000000000027e-2" x="0.15000000000000013"/><rect height="0.38936687569702777" y="1.2549697019995865e-2" width="3.0000000000000027e-2" x="0.18000000000000016"/><rect height="0.2942771541132259" y="0.10763941860379772" width="3.0000000000000027e-2" x="0.2100000000000002"/><rect height="0.21368907209210503" y="0.1882275006249186" width="3.0000000000000027e-2" x="0.2400000000000002"/><rect height="0.1490858067387475" y="0.25283076597827614" width="3.0000000000000027e-2" x="0.27000000000000024"/><rect height="9.993520483637774e-2" y="0.3019813678806459" width="3.000000000000025e-2" x="0.2999999999999998"/><rect height="6.436191166303129e-2" y="0.33755466105399234" width="2.9999999999999805e-2" x="0.33000000000000007"/><rect height="3.982608200197768e-2" y="0.36209049071504595" width="3.000000000000025e-2" x="0.3599999999999999"/><rect height="2.3677424095321642e-2" y="0.378239148621702" width="2.9999999999999805e-2" x="0.3900000000000001"/><rect height="1.3524759251840046e-2" y="0.3883918134651836" width="3.000000000000025e-2" x="0.41999999999999993"/><rect height="7.422545252780133e-3" y="0.3944940274642435" width="2.9999999999999805e-2" x="0.4500000000000002"/><rect height="3.913851878907637e-3" y="0.398002720838116" width="3.000000000000025e-2" x="0.4800000000000002"/><rect height="1.982823867456629e-3" y="0.399933748849567" width="2.9999999999999805e-2" x="0.5100000000000002"/><rect height="9.651439906557258e-4" y="0.4009514287263679" width="3.000000000000025e-2" x="0.54"/><rect height="4.5136544166002324e-4" y="0.4014652072753636" width="2.9999999999999805e-2" x="0.5700000000000003"/><rect height="2.0281156633938924e-4" y="0.40171376115068425" width="2.9999999999999805e-2" x="0.6000000000000001"/><rect height="8.755588746184317e-5" y="0.4018290168295618" width="2.9999999999999805e-2" x="0.6300000000000003"/><rect height="3.631668593628845e-5" y="0.40188025603108735" width="2.9999999999999805e-2" x="0.6600000000000001"/><rect height="1.447289085471093e-5" y="0.4019020998261689" width="2.9999999999999805e-2" x="0.6900000000000004"/><rect height="5.541566947764309e-6" y="0.40191103115007587" width="2.9999999999999805e-2" x="0.7200000000000002"/></g><g fill-opacity="1.0" stroke-opacity="0.0" fill="#1f78b5" stroke-width="0.0" stroke="#000000"><rect height="2.253624368773849e-2" y="0.37938032902928515" width="2.9999999999999916e-2" x="-0.75"/><rect height="2.8649180639473637e-2" y="0.37326739207755" width="3.0000000000000027e-2" x="-0.72"/><rect height="3.60578590373129e-2" y="0.36585871367971073" width="2.9999999999999916e-2" x="-0.69"/><rect height="4.493085910119554e-2" y="0.3569857136158281" width="2.9999999999999916e-2" x="-0.66"/><rect height="5.543021508815271e-2" y="0.3464863576288709" width="2.9999999999999916e-2" x="-0.63"/><rect height="6.77026175940812e-2" y="0.33421395512294244" width="2.9999999999999916e-2" x="-0.6"/><rect height="8.186936308598547e-2" y="0.32004720963103817" width="3.0000000000000138e-2" x="-0.5700000000000001"/><rect height="9.801542299426558e-2" y="0.30390114972275806" width="3.0000000000000027e-2" x="-0.5399999999999999"/><rect height="0.11617815637932072" y="0.2857384163377029" width="3.0000000000000138e-2" x="-0.51"/><rect height="0.1363363294829193" y="0.26558024323410434" width="3.0000000000000027e-2" x="-0.48"/><rect height="0.1584002161211413" y="0.24351635659588233" width="3.0000000000000027e-2" x="-0.44999999999999996"/><rect height="0.18220361833747106" y="0.21971295437955257" width="3.0000000000000027e-2" x="-0.41999999999999993"/><rect height="0.20749865210715862" y="0.194417920609865" width="3.0000000000000027e-2" x="-0.3899999999999999"/><rect height="0.23395407695778547" y="0.16796249575923816" width="3.0000000000000027e-2" x="-0.36"/><rect height="0.26115780560242313" y="0.1407587671146005" width="3.0000000000000027e-2" x="-0.32999999999999996"/><rect height="0.28862401178025143" y="0.1132925609367722" width="3.0000000000000027e-2" x="-0.29999999999999993"/><rect height="0.31580497134978075" y="8.611160136724288e-2" width="3.0000000000000027e-2" x="-0.2699999999999999"/><rect height="0.3421074413706784" y="5.9809131346345246e-2" width="3.0000000000000138e-2" x="-0.23999999999999988"/><rect height="0.3669130297379998" y="3.500354297902386e-2" width="3.0000000000000027e-2" x="-0.20999999999999996"/><rect height="0.3896016643794924" y="1.2314908337531238e-2" width="3.0000000000000027e-2" x="-0.17999999999999994"/><rect height="0.4095769688621528" y="-7.660396145129145e-3" width="3.0000000000000027e-2" x="-0.1499999999999999"/><rect height="0.426292122052789" y="-2.4375549335765356e-2" width="3.0000000000000027e-2" x="-0.11999999999999988"/><rect height="0.4392746499579623" y="-3.735807724093865e-2" width="3.0000000000000027e-2" x="-8.999999999999986e-2"/><rect height="0.44814858652689726" y="-4.623201380987363e-2" width="3.0000000000000027e-2" x="-5.999999999999983e-2"/><rect height="0.4526525547000263" y="-5.0735981983002665e-2" width="3.0000000000000027e-2" x="-2.9999999999999805e-2"/><rect height="0.4526525547000263" y="-5.0735981983002665e-2" width="3.0000000000000027e-2" x="0.0"/><rect height="0.44814858652689726" y="-4.623201380987363e-2" width="3.0000000000000027e-2" x="3.0000000000000027e-2"/><rect height="0.4392746499579623" y="-3.735807724093865e-2" width="3.0000000000000027e-2" x="6.000000000000005e-2"/><rect height="0.4262921220527889" y="-2.4375549335765245e-2" width="3.0000000000000027e-2" x="9.000000000000008e-2"/><rect height="0.4095769688621528" y="-7.660396145129145e-3" width="3.0000000000000027e-2" x="0.1200000000000001"/><rect height="0.3896016643794923" y="1.231490833753135e-2" width="3.0000000000000027e-2" x="0.15000000000000013"/><rect height="0.3669130297379998" y="3.500354297902386e-2" width="3.0000000000000027e-2" x="0.18000000000000016"/><rect height="0.3421074413706783" y="5.980913134634536e-2" width="3.0000000000000027e-2" x="0.2100000000000002"/><rect height="0.31580497134978064" y="8.6111601367243e-2" width="3.0000000000000027e-2" x="0.2400000000000002"/><rect height="0.2886240117802512" y="0.11329256093677242" width="3.0000000000000027e-2" x="0.27000000000000024"/><rect height="0.261157805602423" y="0.1407587671146006" width="3.000000000000025e-2" x="0.2999999999999998"/><rect height="0.23395407695778542" y="0.16796249575923822" width="2.9999999999999805e-2" x="0.33000000000000007"/><rect height="0.2074986521071585" y="0.19441792060986512" width="3.000000000000025e-2" x="0.3599999999999999"/><rect height="0.18220361833747095" y="0.21971295437955268" width="2.9999999999999805e-2" x="0.3900000000000001"/><rect height="0.1584002161211412" y="0.24351635659588244" width="3.000000000000025e-2" x="0.41999999999999993"/><rect height="0.1363363294829193" y="0.26558024323410434" width="2.9999999999999805e-2" x="0.4500000000000002"/><rect height="0.11617815637932061" y="0.285738416337703" width="3.000000000000025e-2" x="0.4800000000000002"/><rect height="9.801542299426558e-2" y="0.30390114972275806" width="2.9999999999999805e-2" x="0.5100000000000002"/><rect height="8.186936308598547e-2" y="0.32004720963103817" width="3.000000000000025e-2" x="0.54"/><rect height="6.770261759408114e-2" y="0.3342139551229425" width="2.9999999999999805e-2" x="0.5700000000000003"/><rect height="5.543021508815277e-2" y="0.34648635762887087" width="2.9999999999999805e-2" x="0.6000000000000001"/><rect height="4.493085910119554e-2" y="0.3569857136158281" width="2.9999999999999805e-2" x="0.6300000000000003"/><rect height="3.60578590373129e-2" y="0.36585871367971073" width="2.9999999999999805e-2" x="0.6600000000000001"/><rect height="2.8649180639473526e-2" y="0.3732673920775501" width="2.9999999999999805e-2" x="0.6900000000000004"/><rect height="2.253624368773849e-2" y="0.37938032902928515" width="2.9999999999999805e-2" x="0.7200000000000002"/></g><g></g></svg>