<svg xmlns="http://www.w3.org/2000/svg" xmlns:xlink="http://www.w3.org/1999/xlink" width="3015.0375625782026" height="300.0" viewbox="-5.0 -0.9950124791926824 10.0 0.9950124791926824"><g><g class="chart"><g><g class="rect"><g stroke-width="0.0" stroke="rgb(0%, 0%, 0%)" stroke-opacity="0.0" fill="rgb(2%, 29%, 48%)" fill-opacity="0.4"><rect width="2.8204787234042517e-2" height="5.534567140419444e-6" x="-0.7051196808510638" y="0.4007717859632665"/><rect width="2.8204787234042406e-2" height="1.4454609482517089e-5" x="-0.6769148936170212" y="0.4007628659209244"/><rect width="2.8204787234042517e-2" height="3.627081266477372e-5" x="-0.6487101063829787" y="0.40074104971774216"/><rect width="2.8204787234042406e-2" height="8.744529160498171e-5" x="-0.6205053191489361" y="0.40068987523880195"/><rect width="2.8204787234042517e-2" height="2.025553857487039e-4" x="-0.5923005319148936" y="0.40057476514465823"/><rect width="2.8204787234042517e-2" height="4.507953012702348e-4" x="-0.564095744680851" y="0.4003265252291367"/><rect width="2.8204787234042628e-2" height="9.639248730178296e-4" x="-0.5358909574468085" y="0.3998133956573891"/><rect width="2.8204787234042572e-2" height="1.9803192716935647e-3" x="-0.5076861702127659" y="0.39879700125871337"/><rect width="2.8204787234042628e-2" height="3.908908113102738e-3" x="-0.4794813829787234" y="0.3968684124173042"/><rect width="2.8204787234042572e-2" height="7.413169495459282e-3" x="-0.4512765957446808" y="0.39336415103494765"/><rect width="2.8204787234042628e-2" height="1.350767550815779e-2" x="-0.42307180851063825" y="0.38726964502224914"/><rect width="2.8204787234042517e-2" height="2.3647516055054996e-2" x="-0.3948670212765956" y="0.37712980447535194"/><rect width="2.8204787234042572e-2" height="3.9775775851300876e-2" x="-0.3666622340425531" y="0.36100154467910606"/><rect width="2.8204787234042517e-2" height="6.428061318064959e-2" x="-0.3384574468085106" y="0.33649670734975734"/><rect width="2.8204787234042628e-2" height="9.980897209592954e-2" x="-0.31025265957446807" y="0.3009683484344774"/><rect width="2.8204787234042572e-2" height="0.14889748961889598" x="-0.28204787234042544" y="0.25187983091151095"/><rect width="2.8204787234042517e-2" height="0.21341915162495656" x="-0.25384308510638287" y="0.18735816890545037"/><rect width="2.8204787234042628e-2" height="0.29390543914375317" x="-0.22563829787234035" y="0.10687188138665377"/><rect width="2.8204787234042628e-2" height="0.3888750485392259" x="-0.19743351063829784" y="1.1902271991181046e-2"/><rect width="2.8204787234042517e-2" height="0.494357075036686" x="-0.1692287234042552" y="-9.357975450627909e-2"/><rect width="2.8204787234042628e-2" height="0.603809094965802" x="-0.1410239361702127" y="-0.2030317744353951"/><rect width="2.8204787234042517e-2" height="0.7085765369460951" x="-0.11281914893617007" y="-0.3077992164156882"/><rect width="2.8204787234042628e-2" height="0.7989178145097394" x="-8.461436170212755e-2" y="-0.3981404939793325"/><rect width="2.8204787234042517e-2" height="0.8654573365935421" x="-5.640957446808492e-2" y="-0.46468001606313514"/><rect width="2.8204787234042517e-2" height="0.9007773205304069" x="-2.8204787234042406e-2" y="-0.5"/><rect width="2.8204787234042628e-2" height="0.9007773205304067" x="0.0" y="-0.4999999999999998"/><rect width="2.8204787234042406e-2" height="0.8654573365935421" x="2.8204787234042628e-2" y="-0.46468001606313514"/><rect width="2.8204787234042628e-2" height="0.7989178145097391" x="5.640957446808503e-2" y="-0.39814049397933216"/><rect width="2.8204787234042628e-2" height="0.7085765369460948" x="8.461436170212766e-2" y="-0.30779921641568786"/><rect width="2.8204787234042517e-2" height="0.6038090949658016" x="0.11281914893617029" y="-0.20303177443539466"/><rect width="2.8204787234042628e-2" height="0.4943570750366858" x="0.1410239361702128" y="-9.357975450627887e-2"/><rect width="2.8204787234042628e-2" height="0.38887504853922567" x="0.16922872340425543" y="1.1902271991181268e-2"/><rect width="2.8204787234042628e-2" height="0.2939054391437527" x="0.19743351063829806" y="0.10687188138665421"/><rect width="2.8204787234042406e-2" height="0.21341915162495623" x="0.2256382978723407" y="0.1873581689054507"/><rect width="2.8204787234042628e-2" height="0.1488974896188957" x="0.2538430851063831" y="0.2518798309115112"/><rect width="2.8204787234042406e-2" height="9.980897209592943e-2" x="0.2820478723404256" y="0.3009683484344775"/><rect width="2.820478723404274e-2" height="6.428061318064948e-2" x="0.310252659574468" y="0.33649670734975745"/><rect width="2.8204787234042517e-2" height="3.9775775851300765e-2" x="0.33845744680851075" y="0.36100154467910617"/><rect width="2.820478723404274e-2" height="2.3647516055054996e-2" x="0.36666223404255327" y="0.37712980447535194"/><rect width="2.8204787234042294e-2" height="1.3507675508157735e-2" x="0.394867021276596" y="0.3872696450222492"/><rect width="2.8204787234042517e-2" height="7.413169495459282e-3" x="0.4230718085106383" y="0.39336415103494765"/><rect width="2.820478723404274e-2" height="3.908908113102683e-3" x="0.45127659574468104" y="0.39686841241730425"/><rect width="2.8204787234042517e-2" height="1.9803192716935647e-3" x="0.47948138297872356" y="0.39879700125871337"/><rect width="2.820478723404296e-2" height="9.639248730178296e-4" x="0.5076861702127659" y="0.3998133956573891"/><rect width="2.8204787234042294e-2" height="4.507953012702348e-4" x="0.5358909574468088" y="0.4003265252291367"/><rect width="2.8204787234042294e-2" height="2.025553857487039e-4" x="0.5640957446808511" y="0.40057476514465823"/><rect width="2.8204787234042294e-2" height="8.744529160498171e-5" x="0.5923005319148941" y="0.40068987523880195"/><rect width="2.8204787234042294e-2" height="3.627081266477372e-5" x="0.6205053191489364" y="0.40074104971774216"/><rect width="2.8204787234042294e-2" height="1.4454609482517089e-5" x="0.6487101063829791" y="0.4007628659209244"/><rect width="2.8204787234042517e-2" height="5.534567140419444e-6" x="0.6769148936170214" y="0.4007717859632665"/></g><g stroke-width="0.0" stroke="rgb(0%, 0%, 0%)" stroke-opacity="0.0" fill="rgb(66%, 7%, 55%)" fill-opacity="0.4"><rect width="2.8204787234042517e-2" height="2.2507777124781303e-2" x="-0.7051196808510638" y="0.37826954340562563"/><rect width="2.8204787234042406e-2" height="2.861299254550176e-2" x="-0.6769148936170212" y="0.3721643279849052"/><rect width="2.8204787234042517e-2" height="3.60123127018806e-2" x="-0.6487101063829787" y="0.36476500782852633"/><rect width="2.8204787234042406e-2" height="4.487410487244975e-2" x="-0.6205053191489361" y="0.3559032156579572"/><rect width="2.8204787234042517e-2" height="5.536019864133923e-2" x="-0.5923005319148936" y="0.3454171218890677"/><rect width="2.8204787234042517e-2" height="6.761709931282667e-2" x="-0.564095744680851" y="0.33316022121758027"/><rect width="2.8204787234042628e-2" height="8.176595013878613e-2" x="-0.5358909574468085" y="0.3190113703916208"/><rect width="2.8204787234042572e-2" height="9.789161521830692e-2" x="-0.5076861702127659" y="0.3028857053121"/><rect width="2.8204787234042628e-2" height="0.11603140642184573" x="-0.4794813829787234" y="0.2847459141085612"/><rect width="2.8204787234042572e-2" height="0.13616411681250484" x="-0.4512765957446808" y="0.2646132037179021"/><rect width="2.8204787234042628e-2" height="0.15820013354362206" x="-0.42307180851063825" y="0.24257718698678488"/><rect width="2.8204787234042517e-2" height="0.18197346859094282" x="-0.3948670212765956" y="0.2188038519394641"/><rect width="2.8204787234042572e-2" height="0.20723655104339728" x="-0.3666622340425531" y="0.19354076948700966"/><rect width="2.8204787234042517e-2" height="0.23365855883359893" x="-0.3384574468085106" y="0.167118761696808"/><rect width="2.8204787234042628e-2" height="0.2608279252009706" x="-0.31025265957446807" y="0.13994939532943634"/><rect width="2.8204787234042572e-2" height="0.2882594375541229" x="-0.28204787234042544" y="0.11251788297628401"/><rect width="2.8204787234042517e-2" height="0.31540606360704926" x="-0.25384308510638287" y="8.537125692335767e-2"/><rect width="2.8204787234042628e-2" height="0.3416753097717819" x="-0.22563829787234035" y="5.9102010758625034e-2"/><rect width="2.8204787234042628e-2" height="0.36644956506280485" x="-0.19743351063829784" y="3.4327755467602084e-2"/><rect width="2.8204787234042517e-2" height="0.38910954064933767" x="-0.1692287234042552" y="1.1667779881069262e-2"/><rect width="2.8204787234042628e-2" height="0.40905961340880026" x="-0.1410239361702127" y="-8.282292878393327e-3"/><rect width="2.8204787234042517e-2" height="0.4257536529228526" x="-0.11281914893617007" y="-2.4976332392445677e-2"/><rect width="2.8204787234042628e-2" height="0.4387197820016253" x="-8.461436170212755e-2" y="-3.794246147121838e-2"/><rect width="2.8204787234042517e-2" height="0.44758250949430434" x="-5.640957446808492e-2" y="-4.6805188963897404e-2"/><rect width="2.8204787234042517e-2" height="0.4520807884986733" x="-2.8204787234042406e-2" y="-5.130346796826635e-2"/><rect width="2.8204787234042628e-2" height="0.4520807884986733" x="0.0" y="-5.130346796826635e-2"/><rect width="2.8204787234042406e-2" height="0.44758250949430434" x="2.8204787234042628e-2" y="-4.6805188963897404e-2"/><rect width="2.8204787234042628e-2" height="0.4387197820016253" x="5.640957446808503e-2" y="-3.794246147121838e-2"/><rect width="2.8204787234042628e-2" height="0.4257536529228525" x="8.461436170212766e-2" y="-2.4976332392445566e-2"/><rect width="2.8204787234042517e-2" height="0.40905961340880026" x="0.11281914893617029" y="-8.282292878393327e-3"/><rect width="2.8204787234042628e-2" height="0.38910954064933756" x="0.1410239361702128" y="1.1667779881069373e-2"/><rect width="2.8204787234042628e-2" height="0.36644956506280485" x="0.16922872340425543" y="3.4327755467602084e-2"/><rect width="2.8204787234042628e-2" height="0.3416753097717818" x="0.19743351063829806" y="5.9102010758625145e-2"/><rect width="2.8204787234042406e-2" height="0.31540606360704915" x="0.2256382978723407" y="8.537125692335779e-2"/><rect width="2.8204787234042628e-2" height="0.28825943755412275" x="0.2538430851063831" y="0.11251788297628418"/><rect width="2.8204787234042406e-2" height="0.2608279252009705" x="0.2820478723404256" y="0.13994939532943645"/><rect width="2.820478723404274e-2" height="0.23365855883359893" x="0.310252659574468" y="0.167118761696808"/><rect width="2.8204787234042517e-2" height="0.20723655104339722" x="0.33845744680851075" y="0.1935407694870097"/><rect width="2.820478723404274e-2" height="0.1819734685909427" x="0.36666223404255327" y="0.21880385193946422"/><rect width="2.8204787234042294e-2" height="0.15820013354362195" x="0.394867021276596" y="0.242577186986785"/><rect width="2.8204787234042517e-2" height="0.13616411681250484" x="0.4230718085106383" y="0.2646132037179021"/><rect width="2.820478723404274e-2" height="0.11603140642184556" x="0.45127659574468104" y="0.28474591410856137"/><rect width="2.8204787234042517e-2" height="9.789161521830686e-2" x="0.47948138297872356" y="0.3028857053121001"/><rect width="2.820478723404296e-2" height="8.176595013878613e-2" x="0.5076861702127659" y="0.3190113703916208"/><rect width="2.8204787234042294e-2" height="6.761709931282667e-2" x="0.5358909574468088" y="0.33316022121758027"/><rect width="2.8204787234042294e-2" height="5.536019864133934e-2" x="0.5640957446808511" y="0.3454171218890676"/><rect width="2.8204787234042294e-2" height="4.487410487244975e-2" x="0.5923005319148941" y="0.3559032156579572"/><rect width="2.8204787234042294e-2" height="3.60123127018806e-2" x="0.6205053191489364" y="0.36476500782852633"/><rect width="2.8204787234042294e-2" height="2.8612992545501703e-2" x="0.6487101063829791" y="0.37216432798490523"/><rect width="2.8204787234042517e-2" height="2.2507777124781303e-2" x="0.6769148936170214" y="0.37826954340562563"/></g></g><g></g></g></g><g class="hud"><g><g class="axis"><g class="ticks"><g class="tickglyph"><g stroke-width="4.0e-3" stroke="rgb(5%, 5%, 5%)" stroke-opacity="0.4" fill="rgb(5%, 5%, 5%)" fill-opacity="0.4"><polyline points="-0.7051196808510638,0.44280064014631915
-0.7051196808510638,0.4128006401463191"/><polyline points="-0.564095744680851,0.44280064014631915
-0.564095744680851,0.4128006401463191"/><polyline points="-0.42307180851063825,0.44280064014631915
-0.42307180851063825,0.4128006401463191"/><polyline points="-0.28204787234042544,0.44280064014631915
-0.28204787234042544,0.4128006401463191"/><polyline points="-0.1410239361702127,0.44280064014631915
-0.1410239361702127,0.4128006401463191"/><polyline points="0.0,0.44280064014631915
0.0,0.4128006401463191"/><polyline points="0.1410239361702128,0.44280064014631915
0.1410239361702128,0.4128006401463191"/><polyline points="0.2820478723404256,0.44280064014631915
0.2820478723404256,0.4128006401463191"/><polyline points="0.4230718085106383,0.44280064014631915
0.4230718085106383,0.4128006401463191"/><polyline points="0.5640957446808511,0.44280064014631915
0.5640957446808511,0.4128006401463191"/><polyline points="0.7051196808510639,0.44280064014631915
0.7051196808510639,0.4128006401463191"/></g></g><g class="ticktext"><g stroke-width="0.0" stroke="none" fill="rgb(5%, 5%, 5%)" fill-opacity="1.0" font-size="4.700797872340426e-2" text-anchor="middle"><text x="-0.7051196808510638" y="0.485">-5.0</text><text x="-0.564095744680851" y="0.485">-4.0</text><text x="-0.42307180851063825" y="0.485">-3.0</text><text x="-0.28204787234042544" y="0.485">-2.0</text><text x="-0.1410239361702127" y="0.485">-1.0</text><text x="0.0" y="0.485"> 0.0</text><text x="0.1410239361702128" y="0.485"> 1.0</text><text x="0.2820478723404256" y="0.485"> 2.0</text><text x="0.4230718085106383" y="0.485"> 3.0</text><text x="0.5640957446808511" y="0.485"> 4.0</text><text x="0.7051196808510639" y="0.485"> 5.0</text></g></g><g></g></g><g class="axisbar"><g stroke-width="0.0" stroke="rgb(0%, 0%, 0%)" stroke-opacity="0.0" fill="rgb(5%, 5%, 5%)" fill-opacity="0.4"><rect width="1.414" height="3.6031092821216526e-3" x="-0.707" y="0.409785093735711"/></g></g></g><g></g></g></g></g></svg>