<svg width="443.1925538069262" xmlns:xlink="http://www.w3.org/1999/xlink" xmlns="http://www.w3.org/2000/svg" viewBox="-0.7711904761904762 -0.52 1.541785714285714 1.043645048439182" height="300.0"><style>svg {
  color-scheme: light dark;
}
@media (prefers-color-scheme:dark) {
  svg {
    background-color: #f0f0f0;
  }
}</style><g fill="#0d0d0d" stroke="none" stroke-width="0.0" font-size="5.0e-2" fill-opacity="1.0" text-anchor="middle"><text x="-0.7261904761904762" y="0.4773950484391819">-5</text></g><g fill="#0d0d0d" stroke="none" stroke-width="0.0" font-size="5.0e-2" fill-opacity="1.0" text-anchor="middle"><text x="-0.5797619047619047" y="0.4773950484391819">-4</text></g><g fill="#0d0d0d" stroke="none" stroke-width="0.0" font-size="5.0e-2" fill-opacity="1.0" text-anchor="middle"><text x="-0.4333333333333333" y="0.4773950484391819">-3</text></g><g fill="#0d0d0d" stroke="none" stroke-width="0.0" font-size="5.0e-2" fill-opacity="1.0" text-anchor="middle"><text x="-0.2869047619047618" y="0.4773950484391819">-2</text></g><g fill="#0d0d0d" stroke="none" stroke-width="0.0" font-size="5.0e-2" fill-opacity="1.0" text-anchor="middle"><text x="-0.14047619047619042" y="0.4773950484391819">-1</text></g><g fill="#0d0d0d" stroke="none" stroke-width="0.0" font-size="5.0e-2" fill-opacity="1.0" text-anchor="middle"><text x="5.952380952380931e-3" y="0.4773950484391819">0</text></g><g fill="#0d0d0d" stroke="none" stroke-width="0.0" font-size="5.0e-2" fill-opacity="1.0" text-anchor="middle"><text x="0.1523809523809525" y="0.4773950484391819">1</text></g><g fill="#0d0d0d" stroke="none" stroke-width="0.0" font-size="5.0e-2" fill-opacity="1.0" text-anchor="middle"><text x="0.29880952380952364" y="0.4773950484391819">2</text></g><g fill="#0d0d0d" stroke="none" stroke-width="0.0" font-size="5.0e-2" fill-opacity="1.0" text-anchor="middle"><text x="0.44523809523809543" y="0.4773950484391819">3</text></g><g fill="#0d0d0d" stroke="none" stroke-width="0.0" font-size="5.0e-2" fill-opacity="1.0" text-anchor="middle"><text x="0.5916666666666666" y="0.4773950484391819">4</text></g><g fill="#0d0d0d" stroke="none" stroke-width="0.0" font-size="5.0e-2" fill-opacity="1.0" text-anchor="middle"><text x="0.7380952380952379" y="0.4773950484391819">5</text></g><g stroke-opacity="0.4" fill="#0d0d0d" stroke="#0d0d0d" stroke-width="2.0e-3" fill-opacity="0.4"><polyline points="-0.7261904761904762,0.41988930527424595
-0.7261904761904762,0.3898893052742459"/><polyline points="-0.5797619047619047,0.41988930527424595
-0.5797619047619047,0.3898893052742459"/><polyline points="-0.4333333333333333,0.41988930527424595
-0.4333333333333333,0.3898893052742459"/><polyline points="-0.2869047619047618,0.41988930527424595
-0.2869047619047618,0.3898893052742459"/><polyline points="-0.14047619047619042,0.41988930527424595
-0.14047619047619042,0.3898893052742459"/><polyline points="5.952380952380931e-3,0.41988930527424595
5.952380952380931e-3,0.3898893052742459"/><polyline points="0.1523809523809525,0.41988930527424595
0.1523809523809525,0.3898893052742459"/><polyline points="0.29880952380952364,0.41988930527424595
0.29880952380952364,0.3898893052742459"/><polyline points="0.44523809523809543,0.41988930527424595
0.44523809523809543,0.3898893052742459"/><polyline points="0.5916666666666666,0.41988930527424595
0.5916666666666666,0.3898893052742459"/><polyline points="0.7380952380952379,0.41988930527424595
0.7380952380952379,0.3898893052742459"/></g><g stroke-opacity="0.0" fill="#0d0d0d" stroke="#000000" stroke-width="0.0" fill-opacity="0.4"><rect width="1.464285714285714" x="-0.7261904761904762" y="0.3903440802016448" height="3.5261151691154957e-3"/></g><g stroke-opacity="0.0" fill="#e31a1c" stroke="#000000" stroke-width="0.0" fill-opacity="0.3"><rect width="2.928571428571425e-2" x="-0.7261904761904762" y="0.3815233759787609" height="5.416300095373305e-6"/><rect width="2.928571428571425e-2" x="-0.6969047619047618" y="0.3815146465469983" height="1.4145731857984067e-5"/><rect width="2.9285714285714137e-2" x="-0.6676190476190476" y="0.3814932965298464" height="3.549574900985064e-5"/><rect width="2.928571428571425e-2" x="-0.6383333333333334" y="0.3814432155879894" height="8.557669086689534e-5"/><rect width="2.928571428571425e-2" x="-0.6090476190476191" y="0.3813305652581499" height="1.9822702070637632e-4"/><rect width="2.928571428571425e-2" x="-0.5797619047619047" y="0.3810876299311411" height="4.411623477151849e-4"/><rect width="2.928571428571436e-2" x="-0.5504761904761905" y="0.38058546532135845" height="9.433269574978254e-4"/><rect width="2.9285714285714304e-2" x="-0.5211904761904761" y="0.37959079004887714" height="1.938002229979141e-3"/><rect width="2.9285714285714415e-2" x="-0.4919047619047619" y="0.3777034128320875" height="3.8253794467687507e-3"/><rect width="2.9285714285714304e-2" x="-0.4626190476190476" y="0.3742740333019732" height="7.254758976883102e-3"/><rect width="2.9285714285714304e-2" x="-0.4333333333333333" y="0.36830975955477574" height="1.3219032724080537e-2"/><rect width="2.928571428571436e-2" x="-0.404047619047619" y="0.3583865952082942" height="2.3142197070562087e-2"/><rect width="2.928571428571425e-2" x="-0.37476190476190463" y="0.34260297693139036" height="3.892581534746592e-2"/><rect width="2.928571428571436e-2" x="-0.3454761904761905" y="0.31862177851132933" height="6.290701376752694e-2"/><rect width="2.928571428571436e-2" x="-0.31619047619047613" y="0.2838526179070252" height="9.767617437183107e-2"/><rect width="2.928571428571425e-2" x="-0.2869047619047618" y="0.23581306297984345" height="0.14571572929901283"/><rect width="2.928571428571425e-2" x="-0.2576190476190475" y="0.17267015131046914" height="0.20885864096838713"/><rect width="2.928571428571436e-2" x="-0.22833333333333328" y="9.390375897981484e-2" height="0.28762503329904143"/><rect width="2.928571428571425e-2" x="-0.19904761904761903" y="9.635359463467386e-4" height="0.38056525633250954"/><rect width="2.928571428571436e-2" x="-0.16976190476190478" y="-0.1022644664756941" height="0.48379325875455037"/><rect width="2.928571428571425e-2" x="-0.14047619047619042" y="-0.20937762834324802" height="0.5909064206221043"/><rect width="2.928571428571436e-2" x="-0.11119047619047617" y="-0.3119063160600426" height="0.6934351083388989"/><rect width="2.928571428571436e-2" x="-8.190476190476181e-2" y="-0.40031710914785557" height="0.7818459014267118"/><rect width="2.928571428571425e-2" x="-5.2619047619047454e-2" y="-0.46543476165137077" height="0.846963553930227"/><rect width="2.928571428571447e-2" x="-2.3333333333333206e-2" y="-0.5" height="0.8815287922788563"/><rect width="2.928571428571436e-2" x="5.952380952380931e-3" y="-0.5" height="0.8815287922788563"/><rect width="2.928571428571436e-2" x="3.523809523809529e-2" y="-0.46543476165137077" height="0.846963553930227"/><rect width="2.9285714285714137e-2" x="6.452380952380965e-2" y="-0.4003171091478551" height="0.7818459014267114"/><rect width="2.928571428571447e-2" x="9.380952380952379e-2" y="-0.31190631606004215" height="0.6934351083388984"/><rect width="2.928571428571425e-2" x="0.12309523809523826" y="-0.2093776283432478" height="0.5909064206221041"/><rect width="2.928571428571436e-2" x="0.1523809523809525" y="-0.10226446647569398" height="0.48379325875455026"/><rect width="2.928571428571436e-2" x="0.18166666666666687" y="9.635359463469051e-4" height="0.38056525633250937"/><rect width="2.9285714285714137e-2" x="0.21095238095238122" y="9.390375897981529e-2" height="0.287625033299041"/><rect width="2.928571428571436e-2" x="0.24023809523809536" y="0.17267015131046942" height="0.20885864096838685"/><rect width="2.928571428571436e-2" x="0.2695238095238097" y="0.23581306297984367" height="0.1457157292990126"/><rect width="2.928571428571458e-2" x="0.29880952380952364" y="0.28385261790702526" height="9.767617437183101e-2"/><rect width="2.9285714285714137e-2" x="0.3280952380952382" y="0.3186217785113294" height="6.290701376752689e-2"/><rect width="2.928571428571436e-2" x="0.35738095238095235" y="0.3426029769313904" height="3.8925815347465864e-2"/><rect width="2.9285714285714137e-2" x="0.3866666666666667" y="0.3583865952082943" height="2.3142197070561976e-2"/><rect width="2.928571428571458e-2" x="0.41595238095238085" y="0.36830975955477585" height="1.3219032724080426e-2"/><rect width="2.9285714285714137e-2" x="0.44523809523809543" y="0.3742740333019732" height="7.254758976883102e-3"/><rect width="2.928571428571458e-2" x="0.47452380952380957" y="0.3777034128320875" height="3.8253794467687507e-3"/><rect width="2.928571428571458e-2" x="0.5038095238095237" y="0.37959079004887714" height="1.938002229979141e-3"/><rect width="2.9285714285714137e-2" x="0.5330952380952383" y="0.38058546532135845" height="9.433269574978254e-4"/><rect width="2.9285714285714137e-2" x="0.5623809523809524" y="0.3810876299311411" height="4.411623477151849e-4"/><rect width="2.9285714285714137e-2" x="0.5916666666666666" y="0.3813305652581499" height="1.9822702070637632e-4"/><rect width="2.9285714285714137e-2" x="0.6209523809523811" y="0.3814432155879894" height="8.557669086689534e-5"/><rect width="2.9285714285714137e-2" x="0.6502380952380953" y="0.3814932965298464" height="3.549574900985064e-5"/><rect width="2.9285714285713915e-2" x="0.6795238095238099" y="0.3815146465469983" height="1.4145731857984067e-5"/><rect width="2.9285714285714137e-2" x="0.7088095238095238" y="0.3815233759787609" height="5.416300095373305e-6"/></g><g stroke-opacity="0.0" fill="#33a12b" stroke="#000000" stroke-width="0.0" fill-opacity="0.3"><rect width="2.928571428571425e-2" x="-0.7261904761904762" y="0.35950197928804195" height="2.2026812990814326e-2"/><rect width="2.928571428571425e-2" x="-0.6969047619047618" y="0.353527224979995" height="2.8001567298861274e-2"/><rect width="2.9285714285714137e-2" x="-0.6676190476190476" y="0.3462860193984686" height="3.5242772880387685e-2"/><rect width="2.928571428571425e-2" x="-0.6383333333333334" y="0.3376135930712292" height="4.39151992076271e-2"/><rect width="2.928571428571425e-2" x="-0.6090476190476191" y="0.32735157451777697" height="5.417721776107931e-2"/><rect width="2.928571428571425e-2" x="-0.5797619047619047" y="0.3153565890760299" height="6.617220320282635e-2"/><rect width="2.928571428571436e-2" x="-0.5504761904761905" y="0.3015100821797445" height="8.001871009911177e-2"/><rect width="2.9285714285714304e-2" x="-0.5211904761904761" y="0.2857290031735892" height="9.57997891052671e-2"/><rect width="2.9285714285714415e-2" x="-0.4919047619047619" y="0.2679768374969152" height="0.11355195478194108"/><rect width="2.9285714285714304e-2" x="-0.4626190476190476" y="0.24827433891987805" height="0.13325445335897823"/><rect width="2.9285714285714304e-2" x="-0.4333333333333333" y="0.2267092053703565" height="0.15481958690849978"/><rect width="2.928571428571436e-2" x="-0.404047619047619" y="0.20344387790810953" height="0.17808491437074675"/><rect width="2.928571428571425e-2" x="-0.37476190476190463" y="0.17872063715151504" height="0.20280815512734124"/><rect width="2.928571428571436e-2" x="-0.3454761904761905" y="0.15286323589815742" height="0.22866555638069885"/><rect width="2.928571428571436e-2" x="-0.31619047619047613" y="0.12627444622180545" height="0.25525434605705083"/><rect width="2.928571428571425e-2" x="-0.2869047619047618" y="9.942911230418644e-2" height="0.28209967997466984"/><rect width="2.928571428571425e-2" x="-0.2576190476190475" y="7.286257700910287e-2" height="0.3086662152697534"/><rect width="2.928571428571436e-2" x="-0.22833333333333328" y="4.715467304895754e-2" height="0.33437411922989874"/><rect width="2.928571428571425e-2" x="-0.19904761904761903" y="2.2909813805116974e-2" height="0.3586189784737393"/><rect width="2.928571428571436e-2" x="-0.16976190476190478" y="7.340546506763856e-4" height="0.3807947376281799"/><rect width="2.928571428571425e-2" x="-0.14047619047619042" y="-1.878970904174082e-2" height="0.4003185013205971"/><rect width="2.928571428571436e-2" x="-0.11119047619047617" y="-3.512701700417109e-2" height="0.41665580928302737"/><rect width="2.928571428571436e-2" x="-8.190476190476181e-2" y="-4.781607549491096e-2" height="0.42934486777376724"/><rect width="2.928571428571425e-2" x="-5.2619047619047454e-2" y="-5.64894171575514e-2" height="0.4380182094364077"/><rect width="2.928571428571447e-2" x="-2.3333333333333206e-2" y="-6.0891573348295314e-2" height="0.4424203656271516"/><rect width="2.928571428571436e-2" x="5.952380952380931e-3" y="-6.0891573348295314e-2" height="0.4424203656271516"/><rect width="2.928571428571436e-2" x="3.523809523809529e-2" y="-5.64894171575514e-2" height="0.4380182094364077"/><rect width="2.9285714285714137e-2" x="6.452380952380965e-2" y="-4.781607549491096e-2" height="0.42934486777376724"/><rect width="2.928571428571447e-2" x="9.380952380952379e-2" y="-3.512701700417098e-2" height="0.41665580928302726"/><rect width="2.928571428571425e-2" x="0.12309523809523826" y="-1.878970904174082e-2" height="0.4003185013205971"/><rect width="2.928571428571436e-2" x="0.1523809523809525" y="7.340546506764967e-4" height="0.3807947376281798"/><rect width="2.928571428571436e-2" x="0.18166666666666687" y="2.2909813805116974e-2" height="0.3586189784737393"/><rect width="2.9285714285714137e-2" x="0.21095238095238122" y="4.715467304895754e-2" height="0.33437411922989874"/><rect width="2.928571428571436e-2" x="0.24023809523809536" y="7.286257700910292e-2" height="0.30866621526975335"/><rect width="2.928571428571436e-2" x="0.2695238095238097" y="9.94291123041866e-2" height="0.28209967997466967"/><rect width="2.928571428571458e-2" x="0.29880952380952364" y="0.12627444622180556" height="0.2552543460570507"/><rect width="2.9285714285714137e-2" x="0.3280952380952382" y="0.15286323589815748" height="0.2286655563806988"/><rect width="2.928571428571436e-2" x="0.35738095238095235" y="0.1787206371515151" height="0.20280815512734118"/><rect width="2.9285714285714137e-2" x="0.3866666666666667" y="0.20344387790810964" height="0.17808491437074664"/><rect width="2.928571428571458e-2" x="0.41595238095238085" y="0.2267092053703566" height="0.15481958690849967"/><rect width="2.9285714285714137e-2" x="0.44523809523809543" y="0.24827433891987805" height="0.13325445335897823"/><rect width="2.928571428571458e-2" x="0.47452380952380957" y="0.26797683749691537" height="0.11355195478194091"/><rect width="2.928571428571458e-2" x="0.5038095238095237" y="0.2857290031735892" height="9.57997891052671e-2"/><rect width="2.9285714285714137e-2" x="0.5330952380952383" y="0.3015100821797445" height="8.001871009911177e-2"/><rect width="2.9285714285714137e-2" x="0.5623809523809524" y="0.3153565890760299" height="6.617220320282635e-2"/><rect width="2.9285714285714137e-2" x="0.5916666666666666" y="0.32735157451777697" height="5.417721776107931e-2"/><rect width="2.9285714285714137e-2" x="0.6209523809523811" y="0.3376135930712292" height="4.39151992076271e-2"/><rect width="2.9285714285714137e-2" x="0.6502380952380953" y="0.3462860193984686" height="3.5242772880387685e-2"/><rect width="2.9285714285713915e-2" x="0.6795238095238099" y="0.3535272249799951" height="2.8001567298861163e-2"/><rect width="2.9285714285714137e-2" x="0.7088095238095238" y="0.35950197928804195" height="2.2026812990814326e-2"/></g><g></g></svg>