<svg xmlns="http://www.w3.org/2000/svg" height="300.0" viewBox="-0.795 -0.5225 1.5775000000000001 1.06875" width="442.8070175438596" xmlns:xlink="http://www.w3.org/1999/xlink"><g stroke-opacity="0.0" fill-opacity="2.5e-2" stroke="#000000" stroke-width="0.0" fill="#808080"><rect height="0.8998875140607425" width="1.5" x="-0.75" y="-0.5"/></g><g stroke-opacity="5.0e-2" stroke="#808080" stroke-width="5.0e-3" fill="none"><polyline points="-0.75,0.39988751406074247
-0.75,-0.5"/></g><g stroke-opacity="5.0e-2" stroke="#808080" stroke-width="5.0e-3" fill="none"><polyline points="-0.6,0.39988751406074247
-0.6,-0.5"/></g><g stroke-opacity="5.0e-2" stroke="#808080" stroke-width="5.0e-3" fill="none"><polyline points="-0.44999999999999996,0.39988751406074247
-0.44999999999999996,-0.5"/></g><g stroke-opacity="5.0e-2" stroke="#808080" stroke-width="5.0e-3" fill="none"><polyline points="-0.29999999999999993,0.39988751406074247
-0.29999999999999993,-0.5"/></g><g stroke-opacity="5.0e-2" stroke="#808080" stroke-width="5.0e-3" fill="none"><polyline points="-0.1499999999999999,0.39988751406074247
-0.1499999999999999,-0.5"/></g><g stroke-opacity="5.0e-2" stroke="#808080" stroke-width="5.0e-3" fill="none"><polyline points="0.0,0.39988751406074247
0.0,-0.5"/></g><g stroke-opacity="5.0e-2" stroke="#808080" stroke-width="5.0e-3" fill="none"><polyline points="0.15000000000000013,0.39988751406074247
0.15000000000000013,-0.5"/></g><g stroke-opacity="5.0e-2" stroke="#808080" stroke-width="5.0e-3" fill="none"><polyline points="0.2999999999999998,0.39988751406074247
0.2999999999999998,-0.5"/></g><g stroke-opacity="5.0e-2" stroke="#808080" stroke-width="5.0e-3" fill="none"><polyline points="0.4500000000000002,0.39988751406074247
0.4500000000000002,-0.5"/></g><g stroke-opacity="5.0e-2" stroke="#808080" stroke-width="5.0e-3" fill="none"><polyline points="0.6000000000000001,0.39988751406074247
0.6000000000000001,-0.5"/></g><g stroke-opacity="5.0e-2" stroke="#808080" stroke-width="5.0e-3" fill="none"><polyline points="0.75,0.39988751406074247
0.75,-0.5"/></g><g fill-opacity="1.0" font-size="5.0e-2" stroke="none" stroke-width="0.0" fill="#808080" text-anchor="middle"><text x="-0.75" y="0.5">-5</text></g><g fill-opacity="1.0" font-size="5.0e-2" stroke="none" stroke-width="0.0" fill="#808080" text-anchor="middle"><text x="-0.6" y="0.5">-4</text></g><g fill-opacity="1.0" font-size="5.0e-2" stroke="none" stroke-width="0.0" fill="#808080" text-anchor="middle"><text x="-0.44999999999999996" y="0.5">-3</text></g><g fill-opacity="1.0" font-size="5.0e-2" stroke="none" stroke-width="0.0" fill="#808080" text-anchor="middle"><text x="-0.29999999999999993" y="0.5">-2</text></g><g fill-opacity="1.0" font-size="5.0e-2" stroke="none" stroke-width="0.0" fill="#808080" text-anchor="middle"><text x="-0.1499999999999999" y="0.5">-1</text></g><g fill-opacity="1.0" font-size="5.0e-2" stroke="none" stroke-width="0.0" fill="#808080" text-anchor="middle"><text x="0.0" y="0.5">0</text></g><g fill-opacity="1.0" font-size="5.0e-2" stroke="none" stroke-width="0.0" fill="#808080" text-anchor="middle"><text x="0.15000000000000013" y="0.5">1</text></g><g fill-opacity="1.0" font-size="5.0e-2" stroke="none" stroke-width="0.0" fill="#808080" text-anchor="middle"><text x="0.2999999999999998" y="0.5">2</text></g><g fill-opacity="1.0" font-size="5.0e-2" stroke="none" stroke-width="0.0" fill="#808080" text-anchor="middle"><text x="0.4500000000000002" y="0.5">3</text></g><g fill-opacity="1.0" font-size="5.0e-2" stroke="none" stroke-width="0.0" fill="#808080" text-anchor="middle"><text x="0.6000000000000001" y="0.5">4</text></g><g fill-opacity="1.0" font-size="5.0e-2" stroke="none" stroke-width="0.0" fill="#808080" text-anchor="middle"><text x="0.75" y="0.5">5</text></g><g stroke-opacity="1.0" fill-opacity="1.0" stroke="#808080" stroke-width="5.0e-3" fill="#808080"><polyline points="-0.75,0.4396344206974129
-0.75,0.40963442069741285"/><polyline points="-0.6,0.4396344206974129
-0.6,0.40963442069741285"/><polyline points="-0.44999999999999996,0.4396344206974129
-0.44999999999999996,0.40963442069741285"/><polyline points="-0.29999999999999993,0.4396344206974129
-0.29999999999999993,0.40963442069741285"/><polyline points="-0.1499999999999999,0.4396344206974129
-0.1499999999999999,0.40963442069741285"/><polyline points="0.0,0.4396344206974129
0.0,0.40963442069741285"/><polyline points="0.15000000000000013,0.4396344206974129
0.15000000000000013,0.40963442069741285"/><polyline points="0.2999999999999998,0.4396344206974129
0.2999999999999998,0.40963442069741285"/><polyline points="0.4500000000000002,0.4396344206974129
0.4500000000000002,0.40963442069741285"/><polyline points="0.6000000000000001,0.4396344206974129
0.6000000000000001,0.40963442069741285"/><polyline points="0.75,0.4396344206974129
0.75,0.40963442069741285"/></g><g stroke-opacity="1.0" fill-opacity="1.0" stroke="#808080" stroke-width="0.0" fill="#808080"><rect height="4.499437570303799e-3" width="1.5" x="-0.75" y="0.40888638920134984"/></g><g stroke-opacity="0.0" fill-opacity="0.4" stroke="#000000" stroke-width="0.0" fill="#a6cee3"><rect height="5.529099980472463e-6" width="2.9999999999999916e-2" x="-0.75" y="0.399881984960762"/><rect height="1.4440330920295619e-5" width="3.0000000000000027e-2" x="-0.72" y="0.39987307372982217"/><rect height="3.623498360572075e-5" width="2.9999999999999916e-2" x="-0.69" y="0.39985127907713675"/><rect height="8.735891133720974e-5" width="2.9999999999999916e-2" x="-0.66" y="0.39980015514940526"/><rect height="2.0235529734885516e-4" width="2.9999999999999916e-2" x="-0.63" y="0.3996851587633936"/><rect height="4.5034999634713246e-4" width="2.9999999999999916e-2" x="-0.6" y="0.39943716406439533"/><rect height="9.629726880897027e-4" width="3.0000000000000138e-2" x="-0.5700000000000001" y="0.39892454137265276"/><rect height="1.9783630713544054e-3" width="3.0000000000000027e-2" x="-0.5399999999999999" y="0.39790915098938806"/><rect height="3.9050468128133953e-3" width="3.0000000000000138e-2" x="-0.51" y="0.39598246724792907"/><rect height="7.405846613291356e-3" width="3.0000000000000027e-2" x="-0.48" y="0.3924816674474511"/><rect height="1.3494332346886628e-2" width="3.0000000000000027e-2" x="-0.44999999999999996" y="0.38639318171385584"/><rect height="2.3624156549550468e-2" width="3.0000000000000027e-2" x="-0.41999999999999993" y="0.376263357511192"/><rect height="3.9736484517159e-2" width="3.0000000000000027e-2" x="-0.3899999999999999" y="0.36015102954358347"/><rect height="6.421711546131487e-2" width="3.0000000000000027e-2" x="-0.36" y="0.3356703985994276"/><rect height="9.971037872875954e-2" width="3.0000000000000027e-2" x="-0.32999999999999996" y="0.3001771353319829"/><rect height="0.14875040559872815" width="3.0000000000000027e-2" x="-0.29999999999999993" y="0.2511371084620143"/><rect height="0.21320833177243814" width="3.0000000000000027e-2" x="-0.2699999999999999" y="0.18667918228830432"/><rect height="0.29361511327157686" width="3.0000000000000138e-2" x="-0.23999999999999988" y="0.10627240078916561"/><rect height="0.3884909097224566" width="3.0000000000000027e-2" x="-0.20999999999999996" y="1.1396604338285876e-2"/><rect height="0.4938687388922626" width="3.0000000000000027e-2" x="-0.17999999999999994" y="-9.398122483152016e-2"/><rect height="0.6032126398520938" width="3.0000000000000027e-2" x="-0.1499999999999999" y="-0.20332512579135142"/><rect height="0.7078765903861" width="3.0000000000000027e-2" x="-0.11999999999999988" y="-0.30798907632535755"/><rect height="0.7981286269670711" width="3.0000000000000027e-2" x="-8.999999999999986e-2" y="-0.3982411129063287"/><rect height="0.864602419934599" width="3.0000000000000027e-2" x="-5.999999999999983e-2" y="-0.46471490587385655"/><rect height="0.8998875140607425" width="3.0000000000000027e-2" x="-2.9999999999999805e-2" y="-0.5"/><rect height="0.8998875140607425" width="3.0000000000000027e-2" x="0.0" y="-0.5"/><rect height="0.864602419934599" width="3.0000000000000027e-2" x="3.0000000000000027e-2" y="-0.46471490587385655"/><rect height="0.7981286269670707" width="3.0000000000000027e-2" x="6.000000000000005e-2" y="-0.39824111290632824"/><rect height="0.7078765903860995" width="3.0000000000000027e-2" x="9.000000000000008e-2" y="-0.3079890763253571"/><rect height="0.6032126398520934" width="3.0000000000000027e-2" x="0.1200000000000001" y="-0.20332512579135098"/><rect height="0.4938687388922623" width="3.0000000000000027e-2" x="0.15000000000000013" y="-9.398122483151983e-2"/><rect height="0.38849090972245637" width="3.0000000000000027e-2" x="0.18000000000000016" y="1.1396604338286098e-2"/><rect height="0.29361511327157647" width="3.0000000000000027e-2" x="0.2100000000000002" y="0.106272400789166"/><rect height="0.2132083317724378" width="3.0000000000000027e-2" x="0.2400000000000002" y="0.18667918228830466"/><rect height="0.14875040559872788" width="3.0000000000000027e-2" x="0.27000000000000024" y="0.2511371084620146"/><rect height="9.971037872875943e-2" width="3.000000000000025e-2" x="0.2999999999999998" y="0.30017713533198304"/><rect height="6.421711546131476e-2" width="2.9999999999999805e-2" x="0.33000000000000007" y="0.3356703985994277"/><rect height="3.973648451715889e-2" width="3.000000000000025e-2" x="0.3599999999999999" y="0.3601510295435836"/><rect height="2.3624156549550468e-2" width="2.9999999999999805e-2" x="0.3900000000000001" y="0.376263357511192"/><rect height="1.3494332346886517e-2" width="3.000000000000025e-2" x="0.41999999999999993" y="0.38639318171385595"/><rect height="7.405846613291356e-3" width="2.9999999999999805e-2" x="0.4500000000000002" y="0.3924816674474511"/><rect height="3.9050468128133953e-3" width="3.000000000000025e-2" x="0.4800000000000002" y="0.39598246724792907"/><rect height="1.9783630713544054e-3" width="2.9999999999999805e-2" x="0.5100000000000002" y="0.39790915098938806"/><rect height="9.629726880897027e-4" width="3.000000000000025e-2" x="0.54" y="0.39892454137265276"/><rect height="4.5034999634713246e-4" width="2.9999999999999805e-2" x="0.5700000000000003" y="0.39943716406439533"/><rect height="2.0235529734885516e-4" width="2.9999999999999805e-2" x="0.6000000000000001" y="0.3996851587633936"/><rect height="8.735891133720974e-5" width="2.9999999999999805e-2" x="0.6300000000000003" y="0.39980015514940526"/><rect height="3.623498360572075e-5" width="2.9999999999999805e-2" x="0.6600000000000001" y="0.39985127907713675"/><rect height="1.4440330920295619e-5" width="2.9999999999999805e-2" x="0.6900000000000004" y="0.39987307372982217"/><rect height="5.529099980472463e-6" width="2.9999999999999805e-2" x="0.7200000000000002" y="0.399881984960762"/></g><g stroke-opacity="0.0" fill-opacity="0.4" stroke="#000000" stroke-width="0.0" fill="#fb9a99"><rect height="2.2485543476967518e-2" width="2.9999999999999916e-2" x="-0.75" y="0.37740197058377495"/><rect height="2.8584728039609875e-2" width="3.0000000000000027e-2" x="-0.72" y="0.3713027860211326"/><rect height="3.5976738994484336e-2" width="2.9999999999999916e-2" x="-0.69" y="0.36391077506625813"/><rect height="4.482977730344262e-2" width="2.9999999999999916e-2" x="-0.66" y="0.35505773675729985"/><rect height="5.5305512692003955e-2" width="2.9999999999999916e-2" x="-0.63" y="0.3445820013687385"/><rect height="6.755030574347592e-2" width="2.9999999999999916e-2" x="-0.6" y="0.33233720831726654"/><rect height="8.168518004192254e-2" width="3.0000000000000138e-2" x="-0.5700000000000001" y="0.3182023340188199"/><rect height="9.779491585592087e-2" width="3.0000000000000027e-2" x="-0.5399999999999999" y="0.3020925982048216"/><rect height="0.11591678819849" width="3.0000000000000138e-2" x="-0.51" y="0.28397072586225247"/><rect height="0.13602961108138306" width="3.0000000000000027e-2" x="-0.48" y="0.2638579029793594"/><rect height="0.1580438601793615" width="3.0000000000000027e-2" x="-0.44999999999999996" y="0.24184365388138096"/><rect height="0.18179371143457468" width="3.0000000000000027e-2" x="-0.41999999999999993" y="0.2180938026261678"/><rect height="0.2070318384916195" width="3.0000000000000027e-2" x="-0.3899999999999999" y="0.19285567556912298"/><rect height="0.23342774607599076" width="3.0000000000000027e-2" x="-0.36" y="0.1664597679847517"/><rect height="0.26057027398127036" width="3.0000000000000027e-2" x="-0.32999999999999996" y="0.1393172400794721"/><rect height="0.2879746889191036" width="3.0000000000000027e-2" x="-0.29999999999999993" y="0.11191282514163886"/><rect height="0.31509449897329095" width="3.0000000000000027e-2" x="-0.2699999999999999" y="8.479301508745152e-2"/><rect height="0.34133779583328655" width="3.0000000000000138e-2" x="-0.23999999999999988" y="5.8549718227455916e-2"/><rect height="0.36608757860248126" width="3.0000000000000027e-2" x="-0.20999999999999996" y="3.379993545826121e-2"/><rect height="0.38872517019641156" width="3.0000000000000027e-2" x="-0.17999999999999994" y="1.1162343864330904e-2"/><rect height="0.408655535861338" width="3.0000000000000027e-2" x="-0.1499999999999999" y="-8.768021800595549e-3"/><rect height="0.42533308465784464" width="3.0000000000000027e-2" x="-0.11999999999999988" y="-2.5445570597102174e-2"/><rect height="0.4382864055261109" width="3.0000000000000027e-2" x="-8.999999999999986e-2" y="-3.839889146536846e-2"/><rect height="0.44714037823324854" width="3.0000000000000027e-2" x="-5.999999999999983e-2" y="-4.725286417250607e-2"/><rect height="0.45163421374457086" width="3.0000000000000027e-2" x="-2.9999999999999805e-2" y="-5.174669968382839e-2"/><rect height="0.45163421374457086" width="3.0000000000000027e-2" x="0.0" y="-5.174669968382839e-2"/><rect height="0.44714037823324854" width="3.0000000000000027e-2" x="3.0000000000000027e-2" y="-4.725286417250607e-2"/><rect height="0.4382864055261109" width="3.0000000000000027e-2" x="6.000000000000005e-2" y="-3.839889146536846e-2"/><rect height="0.42533308465784453" width="3.0000000000000027e-2" x="9.000000000000008e-2" y="-2.5445570597102063e-2"/><rect height="0.408655535861338" width="3.0000000000000027e-2" x="0.1200000000000001" y="-8.768021800595549e-3"/><rect height="0.3887251701964115" width="3.0000000000000027e-2" x="0.15000000000000013" y="1.116234386433096e-2"/><rect height="0.36608757860248126" width="3.0000000000000027e-2" x="0.18000000000000016" y="3.379993545826121e-2"/><rect height="0.34133779583328644" width="3.0000000000000027e-2" x="0.2100000000000002" y="5.854971822745603e-2"/><rect height="0.31509449897329084" width="3.0000000000000027e-2" x="0.2400000000000002" y="8.479301508745163e-2"/><rect height="0.28797468891910344" width="3.0000000000000027e-2" x="0.27000000000000024" y="0.11191282514163903"/><rect height="0.2605702739812703" width="3.000000000000025e-2" x="0.2999999999999998" y="0.13931724007947216"/><rect height="0.2334277460759907" width="2.9999999999999805e-2" x="0.33000000000000007" y="0.16645976798475176"/><rect height="0.20703183849161944" width="3.000000000000025e-2" x="0.3599999999999999" y="0.19285567556912303"/><rect height="0.18179371143457462" width="2.9999999999999805e-2" x="0.3900000000000001" y="0.21809380262616784"/><rect height="0.1580438601793615" width="3.000000000000025e-2" x="0.41999999999999993" y="0.24184365388138096"/><rect height="0.13602961108138306" width="2.9999999999999805e-2" x="0.4500000000000002" y="0.2638579029793594"/><rect height="0.11591678819848977" width="3.000000000000025e-2" x="0.4800000000000002" y="0.2839707258622527"/><rect height="9.779491585592087e-2" width="2.9999999999999805e-2" x="0.5100000000000002" y="0.3020925982048216"/><rect height="8.168518004192254e-2" width="3.000000000000025e-2" x="0.54" y="0.3182023340188199"/><rect height="6.755030574347581e-2" width="2.9999999999999805e-2" x="0.5700000000000003" y="0.33233720831726665"/><rect height="5.530551269200401e-2" width="2.9999999999999805e-2" x="0.6000000000000001" y="0.34458200136873846"/><rect height="4.482977730344262e-2" width="2.9999999999999805e-2" x="0.6300000000000003" y="0.35505773675729985"/><rect height="3.5976738994484336e-2" width="2.9999999999999805e-2" x="0.6600000000000001" y="0.36391077506625813"/><rect height="2.858472803960982e-2" width="2.9999999999999805e-2" x="0.6900000000000004" y="0.37130278602113265"/><rect height="2.2485543476967518e-2" width="2.9999999999999805e-2" x="0.7200000000000002" y="0.37740197058377495"/></g><g></g></svg>