<?xml version="1.0" encoding="UTF-8"?>
<!DOCTYPE svg PUBLIC "-//W3C//DTD SVG 1.1//EN"
    "http://www.w3.org/Graphics/SVG/1.1/DTD/svg11.dtd">
<svg xmlns="http://www.w3.org/2000/svg" height="300.0" viewBox="-0.685 -0.52 1.37 1.04" width="399.0" xmlns:xlink="http://www.w3.org/1999/xlink" version="1.11.1">
  <style type="text/css">{ shape-rendering: &#39;crispEdges&#39;; }
  </style>
  <defs>
  </defs>
  <g stroke-opacity="0.0" fill-opacity="0.5" stroke="#000000" stroke-width="0.0" fill="#5da5da">
    <rect height="6.113567966371391e-6" width="0.1999999999999993" x="-5.0" y="-6.113567966371391e-6"/>
    <rect height="1.5966783897804717e-5" width="0.1999999999999993" x="-4.8" y="-1.5966783897804717e-5"/>
    <rect height="4.006529739295107e-5" width="0.1999999999999993" x="-4.6" y="-4.006529739295107e-5"/>
    <rect height="9.659341372218367e-5" width="0.1999999999999993" x="-4.4" y="-9.659341372218367e-5"/>
    <rect height="2.2374579372061977e-4" width="0.1999999999999993" x="-4.2" y="-2.2374579372061977e-4"/>
    <rect height="4.979554215032739e-4" width="0.20000000000000018" x="-4.0" y="-4.979554215032739e-4"/>
    <rect height="1.0647662366679216e-3" width="0.20000000000000018" x="-3.8" y="-1.0647662366679216e-3"/>
    <rect height="2.187491118182889e-3" width="0.20000000000000018" x="-3.5999999999999996" y="-2.187491118182889e-3"/>
    <rect height="4.3178400076330815e-3" width="0.20000000000000018" x="-3.4" y="-4.3178400076330815e-3"/>
    <rect height="8.188701014374074e-3" width="0.20000000000000018" x="-3.2" y="-8.188701014374074e-3"/>
    <rect height="1.4920786069067842e-2" width="0.20000000000000018" x="-3.0" y="-1.4920786069067842e-2"/>
    <rect height="2.6121409853918257e-2" width="0.20000000000000018" x="-2.8" y="-2.6121409853918257e-2"/>
    <rect height="4.3936933623407476e-2" width="0.20000000000000018" x="-2.5999999999999996" y="-4.3936933623407476e-2"/>
    <rect height="7.100535373963701e-2" width="0.20000000000000018" x="-2.4" y="-7.100535373963701e-2"/>
    <rect height="0.11025052530448531" width="0.20000000000000018" x="-2.1999999999999997" y="-0.11025052530448531"/>
    <rect height="0.1644744565771549" width="0.20000000000000018" x="-2.0" y="-0.1644744565771549"/>
    <rect height="0.23574607655586363" width="0.20000000000000018" x="-1.7999999999999998" y="-0.23574607655586363"/>
    <rect height="0.32465246735834996" width="0.20000000000000018" x="-1.5999999999999996" y="-0.32465246735834996"/>
    <rect height="0.42955735821073926" width="0.20000000000000018" x="-1.4" y="-0.42955735821073926"/>
    <rect height="0.5460744266397096" width="0.20000000000000007" x="-1.1999999999999997" y="-0.5460744266397096"/>
    <rect height="0.6669768108584744" width="0.19999999999999996" x="-1.0" y="-0.6669768108584744"/>
    <rect height="0.7827045382418683" width="0.19999999999999996" x="-0.7999999999999998" y="-0.7827045382418683"/>
    <rect height="0.8824969025845956" width="0.19999999999999996" x="-0.5999999999999996" y="-0.8824969025845956"/>
    <rect height="0.9559974818331001" width="0.19999999999999998" x="-0.39999999999999947" y="-0.9559974818331001"/>
    <rect height="0.9950124791926824" width="0.2" x="-0.1999999999999993" y="-0.9950124791926824"/>
    <rect height="0.9950124791926823" width="0.2" x="0.0" y="-0.9950124791926823"/>
    <rect height="0.9559974818330998" width="0.19999999999999998" x="0.20000000000000015" y="-0.9559974818330998"/>
    <rect height="0.8824969025845952" width="0.19999999999999996" x="0.40000000000000036" y="-0.8824969025845952"/>
    <rect height="0.7827045382418679" width="0.19999999999999996" x="0.6000000000000005" y="-0.7827045382418679"/>
    <rect height="0.6669768108584739" width="0.19999999999999996" x="0.8000000000000007" y="-0.6669768108584739"/>
    <rect height="0.5460744266397094" width="0.20000000000000018" x="1.0" y="-0.5460744266397094"/>
    <rect height="0.42955735821073904" width="0.20000000000000018" x="1.2000000000000002" y="-0.42955735821073904"/>
    <rect height="0.3246524673583495" width="0.20000000000000018" x="1.4000000000000004" y="-0.3246524673583495"/>
    <rect height="0.2357460765558633" width="0.20000000000000018" x="1.6000000000000005" y="-0.2357460765558633"/>
    <rect height="0.16447445657715465" width="0.20000000000000018" x="1.8000000000000007" y="-0.16447445657715465"/>
    <rect height="0.11025052530448522" width="0.20000000000000018" x="2.0" y="-0.11025052530448522"/>
    <rect height="7.100535373963694e-2" width="0.20000000000000018" x="2.2" y="-7.100535373963694e-2"/>
    <rect height="4.393693362340736e-2" width="0.20000000000000018" x="2.4000000000000004" y="-4.393693362340736e-2"/>
    <rect height="2.6121409853918188e-2" width="0.20000000000000018" x="2.6000000000000005" y="-2.6121409853918188e-2"/>
    <rect height="1.4920786069067802e-2" width="0.20000000000000018" x="2.8000000000000007" y="-1.4920786069067802e-2"/>
    <rect height="8.188701014374074e-3" width="0.20000000000000018" x="3.0" y="-8.188701014374074e-3"/>
    <rect height="4.3178400076330625e-3" width="0.20000000000000018" x="3.200000000000001" y="-4.3178400076330625e-3"/>
    <rect height="2.187491118182881e-3" width="0.20000000000000018" x="3.4000000000000004" y="-2.187491118182881e-3"/>
    <rect height="1.0647662366679216e-3" width="0.20000000000000018" x="3.5999999999999996" y="-1.0647662366679216e-3"/>
    <rect height="4.979554215032722e-4" width="0.20000000000000018" x="3.8000000000000007" y="-4.979554215032722e-4"/>
    <rect height="2.2374579372062055e-4" width="0.19999999999999973" x="3.9999999999999996" y="-2.2374579372062055e-4"/>
    <rect height="9.659341372218367e-5" width="0.1999999999999993" x="4.200000000000001" y="-9.659341372218367e-5"/>
    <rect height="4.006529739295107e-5" width="0.1999999999999993" x="4.4" y="-4.006529739295107e-5"/>
    <rect height="1.5966783897804662e-5" width="0.1999999999999993" x="4.600000000000001" y="-1.5966783897804662e-5"/>
    <rect height="6.113567966371391e-6" width="0.1999999999999993" x="4.800000000000001" y="-6.113567966371391e-6"/>
  </g>
</svg>