<svg height="300" viewBox="-0.7494 -0.5 1.4988 0.9996" width="449" xmlns="http://www.w3.org/2000/svg" xmlns:xlink="http://www.w3.org/1999/xlink"><style>svg {
  color-scheme: light dark;
}
{
  .canvas g, .title g, .axisbar g, .ticktext g, .tickglyph g, .ticklines g, .legendContent g text {
    fill: rgb(5%, 5%, 5%);
  }
  .ticklines g, .tickglyph g, .legendBorder g {
    stroke: rgb(5%, 5%, 5%);
  }
  .legendBorder g {
    fill: rgb(94%, 94%, 94%);
  }
}
@media (prefers-color-scheme:dark) {
  .canvas g, .title g, .axisbar g, .ticktext g, .tickglyph g, .ticklines g, .legendContent g text {
    fill: rgb(94%, 94%, 94%);
  }
  .ticklines g, .tickglyph g, .legendBorder g {
    stroke: rgb(94%, 94%, 94%);
  }
  .legendBorder g {
    fill: rgb(5%, 5%, 5%);
  }
}</style><g class="chart"><g class="rect"><g fill="rgb(2%, 29%, 48%)" fill-opacity="(0.40" stroke="rgb(0%, 0%, 0%)" stroke-opacity="(0.0" stroke-width="0"><rect height="0.0000" width="0.0291" x="-0.7276" y="0.4008"/><rect height="0.0000" width="0.0291" x="-0.6985" y="0.4008"/><rect height="0.0000" width="0.0291" x="-0.6694" y="0.4007"/><rect height="0.0001" width="0.0291" x="-0.6403" y="0.4007"/><rect height="0.0002" width="0.0291" x="-0.6112" y="0.4006"/><rect height="0.0005" width="0.0291" x="-0.5820" y="0.4003"/><rect height="0.0010" width="0.0291" x="-0.5529" y="0.3998"/><rect height="0.0020" width="0.0291" x="-0.5238" y="0.3988"/><rect height="0.0039" width="0.0291" x="-0.4947" y="0.3969"/><rect height="0.0074" width="0.0291" x="-0.4656" y="0.3934"/><rect height="0.0135" width="0.0291" x="-0.4365" y="0.3873"/><rect height="0.0236" width="0.0291" x="-0.4074" y="0.3771"/><rect height="0.0398" width="0.0291" x="-0.3783" y="0.3610"/><rect height="0.0643" width="0.0291" x="-0.3492" y="0.3365"/><rect height="0.0998" width="0.0291" x="-0.3201" y="0.3010"/><rect height="0.1489" width="0.0291" x="-0.2910" y="0.2519"/><rect height="0.2134" width="0.0291" x="-0.2619" y="0.1874"/><rect height="0.2939" width="0.0291" x="-0.2328" y="0.1069"/><rect height="0.3889" width="0.0291" x="-0.2037" y="0.0119"/><rect height="0.4944" width="0.0291" x="-0.1746" y="-0.0936"/><rect height="0.6038" width="0.0291" x="-0.1455" y="-0.2030"/><rect height="0.7086" width="0.0291" x="-0.1164" y="-0.3078"/><rect height="0.7989" width="0.0291" x="-0.0873" y="-0.3981"/><rect height="0.8655" width="0.0291" x="-0.0582" y="-0.4647"/><rect height="0.9008" width="0.0291" x="-0.0291" y="-0.5"/><rect height="0.9008" width="0.0291" x="0" y="-0.5000"/><rect height="0.8655" width="0.0291" x="0.0291" y="-0.4647"/><rect height="0.7989" width="0.0291" x="0.0582" y="-0.3981"/><rect height="0.7086" width="0.0291" x="0.0873" y="-0.3078"/><rect height="0.6038" width="0.0291" x="0.1164" y="-0.2030"/><rect height="0.4944" width="0.0291" x="0.1455" y="-0.0936"/><rect height="0.3889" width="0.0291" x="0.1746" y="0.0119"/><rect height="0.2939" width="0.0291" x="0.2037" y="0.1069"/><rect height="0.2134" width="0.0291" x="0.2328" y="0.1874"/><rect height="0.1489" width="0.0291" x="0.2619" y="0.2519"/><rect height="0.0998" width="0.0291" x="0.2910" y="0.3010"/><rect height="0.0643" width="0.0291" x="0.3201" y="0.3365"/><rect height="0.0398" width="0.0291" x="0.3492" y="0.3610"/><rect height="0.0236" width="0.0291" x="0.3783" y="0.3771"/><rect height="0.0135" width="0.0291" x="0.4074" y="0.3873"/><rect height="0.0074" width="0.0291" x="0.4365" y="0.3934"/><rect height="0.0039" width="0.0291" x="0.4656" y="0.3969"/><rect height="0.0020" width="0.0291" x="0.4947" y="0.3988"/><rect height="0.0010" width="0.0291" x="0.5238" y="0.3998"/><rect height="0.0005" width="0.0291" x="0.5529" y="0.4003"/><rect height="0.0002" width="0.0291" x="0.5820" y="0.4006"/><rect height="0.0001" width="0.0291" x="0.6112" y="0.4007"/><rect height="0.0000" width="0.0291" x="0.6403" y="0.4007"/><rect height="0.0000" width="0.0291" x="0.6694" y="0.4008"/><rect height="0.0000" width="0.0291" x="0.6985" y="0.4008"/></g><g fill="rgb(66%, 7%, 55%)" fill-opacity="(0.40" stroke="rgb(0%, 0%, 0%)" stroke-opacity="(0.0" stroke-width="0"><rect height="0.0225" width="0.0291" x="-0.7276" y="0.3783"/><rect height="0.0286" width="0.0291" x="-0.6985" y="0.3722"/><rect height="0.0360" width="0.0291" x="-0.6694" y="0.3648"/><rect height="0.0449" width="0.0291" x="-0.6403" y="0.3559"/><rect height="0.0554" width="0.0291" x="-0.6112" y="0.3454"/><rect height="0.0676" width="0.0291" x="-0.5820" y="0.3332"/><rect height="0.0818" width="0.0291" x="-0.5529" y="0.3190"/><rect height="0.0979" width="0.0291" x="-0.5238" y="0.3029"/><rect height="0.1160" width="0.0291" x="-0.4947" y="0.2847"/><rect height="0.1362" width="0.0291" x="-0.4656" y="0.2646"/><rect height="0.1582" width="0.0291" x="-0.4365" y="0.2426"/><rect height="0.1820" width="0.0291" x="-0.4074" y="0.2188"/><rect height="0.2072" width="0.0291" x="-0.3783" y="0.1935"/><rect height="0.2337" width="0.0291" x="-0.3492" y="0.1671"/><rect height="0.2608" width="0.0291" x="-0.3201" y="0.1399"/><rect height="0.2883" width="0.0291" x="-0.2910" y="0.1125"/><rect height="0.3154" width="0.0291" x="-0.2619" y="0.0854"/><rect height="0.3417" width="0.0291" x="-0.2328" y="0.0591"/><rect height="0.3664" width="0.0291" x="-0.2037" y="0.0343"/><rect height="0.3891" width="0.0291" x="-0.1746" y="0.0117"/><rect height="0.4091" width="0.0291" x="-0.1455" y="-0.0083"/><rect height="0.4258" width="0.0291" x="-0.1164" y="-0.0250"/><rect height="0.4387" width="0.0291" x="-0.0873" y="-0.0379"/><rect height="0.4476" width="0.0291" x="-0.0582" y="-0.0468"/><rect height="0.4521" width="0.0291" x="-0.0291" y="-0.0513"/><rect height="0.4521" width="0.0291" x="0" y="-0.0513"/><rect height="0.4476" width="0.0291" x="0.0291" y="-0.0468"/><rect height="0.4387" width="0.0291" x="0.0582" y="-0.0379"/><rect height="0.4258" width="0.0291" x="0.0873" y="-0.0250"/><rect height="0.4091" width="0.0291" x="0.1164" y="-0.0083"/><rect height="0.3891" width="0.0291" x="0.1455" y="0.0117"/><rect height="0.3664" width="0.0291" x="0.1746" y="0.0343"/><rect height="0.3417" width="0.0291" x="0.2037" y="0.0591"/><rect height="0.3154" width="0.0291" x="0.2328" y="0.0854"/><rect height="0.2883" width="0.0291" x="0.2619" y="0.1125"/><rect height="0.2608" width="0.0291" x="0.2910" y="0.1399"/><rect height="0.2337" width="0.0291" x="0.3201" y="0.1671"/><rect height="0.2072" width="0.0291" x="0.3492" y="0.1935"/><rect height="0.1820" width="0.0291" x="0.3783" y="0.2188"/><rect height="0.1582" width="0.0291" x="0.4074" y="0.2426"/><rect height="0.1362" width="0.0291" x="0.4365" y="0.2646"/><rect height="0.1160" width="0.0291" x="0.4656" y="0.2847"/><rect height="0.0979" width="0.0291" x="0.4947" y="0.3029"/><rect height="0.0818" width="0.0291" x="0.5238" y="0.3190"/><rect height="0.0676" width="0.0291" x="0.5529" y="0.3332"/><rect height="0.0554" width="0.0291" x="0.5820" y="0.3454"/><rect height="0.0449" width="0.0291" x="0.6112" y="0.3559"/><rect height="0.0360" width="0.0291" x="0.6403" y="0.3648"/><rect height="0.0286" width="0.0291" x="0.6694" y="0.3722"/><rect height="0.0225" width="0.0291" x="0.6985" y="0.3783"/></g></g></g><g class="hud"><g class="axis"><g class="ticks"><g class="tickglyph"><g fill="rgb(5%, 5%, 5%)" fill-opacity="(0.40" stroke="rgb(5%, 5%, 5%)" stroke-opacity="(0.40" stroke-width="0.0040"><polyline points="-0.7276,0.4428
-0.7276,0.4128"/><polyline points="-0.5820,0.4428
-0.5820,0.4128"/><polyline points="-0.4365,0.4428
-0.4365,0.4128"/><polyline points="-0.2910,0.4428
-0.2910,0.4128"/><polyline points="-0.1455,0.4428
-0.1455,0.4128"/><polyline points="0,0.4428
0,0.4128"/><polyline points="0.1455,0.4428
0.1455,0.4128"/><polyline points="0.2910,0.4428
0.2910,0.4128"/><polyline points="0.4365,0.4428
0.4365,0.4128"/><polyline points="0.5820,0.4428
0.5820,0.4128"/><polyline points="0.7276,0.4428
0.7276,0.4128"/></g></g><g class="ticktext"><g fill="rgb(5%, 5%, 5%)" fill-opacity="(1.0" font-size="0.0485" stroke="none" stroke-width="0.0" text-anchor="middle"><text x="-0.7276" y="0.485">-5</text><text x="-0.5820" y="0.485">-4</text><text x="-0.4365" y="0.485">-3</text><text x="-0.2910" y="0.485">-2</text><text x="-0.1455" y="0.485">-1</text><text x="0" y="0.485"> 0</text><text x="0.1455" y="0.485"> 1</text><text x="0.2910" y="0.485"> 2</text><text x="0.4365" y="0.485"> 3</text><text x="0.5820" y="0.485"> 4</text><text x="0.7276" y="0.485"> 5</text></g></g></g><g class="axisbar"><g fill="rgb(5%, 5%, 5%)" fill-opacity="(0.40" stroke="rgb(0%, 0%, 0%)" stroke-opacity="(0.0" stroke-width="0"><rect height="0.0036" width="1.459" x="-0.7295" y="0.4098"/></g></g></g></g></svg>