<svg xmlns="http://www.w3.org/2000/svg" width="438.8226077722425" xmlns:xlink="http://www.w3.org/1999/xlink" viewBox="-0.7058653846153846 -0.5002026471930626 1.4558653846153846 0.9952988010392165" height="300.0"><style>svg {
  color-scheme: light dark;
}
{
  .canvas g, .title g, .axisbar g, .ticktext g, .tickglyph g, .ticklines g, .legendContent g text {
    fill: #0d0d0d;
  }
  .ticklines g, .tickglyph g, .legendBorder g {
    stroke: #0d0d0d;
  }
  .legendBorder g {
    fill: #f0f0f0;
  }
}
@media (prefers-color-scheme:dark) {
  .canvas g, .title g, .axisbar g, .ticktext g, .tickglyph g, .ticklines g, .legendContent g text {
    fill: #f0f0f0;
  }
  .ticklines g, .tickglyph g, .legendBorder g {
    stroke: #f0f0f0;
  }
  .legendBorder g {
    fill: #0d0d0d;
  }
}</style><g class="chart"><g class="barchart"><g fill="rgb(2%, 29%, 48%)" stroke="rgb(2%, 29%, 48%)" stroke-width="0.0" fill-opacity="0.7" stroke-opacity="1.0"><rect x="-0.4023076923076923" width="4.2067307692307654e-2" y="0.319275901414879" height="8.169785486079417e-2"/><rect x="-0.4023076923076923" width="8.413461538461542e-2" y="0.22850050712510767" height="8.169785486079423e-2"/><rect x="-0.4023076923076923" width="0.12620192307692307" y="0.1377251128353364" height="8.169785486079423e-2"/><rect x="-0.4023076923076923" width="0.21033653846153838" y="4.694971854556512e-2" height="8.169785486079417e-2"/><rect x="-0.4023076923076923" width="0.3365384615384615" y="-4.382567574420615e-2" height="8.169785486079412e-2"/><rect x="-0.4023076923076923" width="0.0" y="-0.1346010700339776" height="8.169785486079428e-2"/><rect x="-0.4864423076923077" width="8.413461538461536e-2" y="-0.2253764643237488" height="8.169785486079417e-2"/><rect x="-0.4023076923076923" width="0.4627403846153845" y="-0.31615185861352013" height="8.169785486079428e-2"/><rect x="-0.4023076923076923" width="8.413461538461542e-2" y="-0.40692725290329135" height="8.169785486079417e-2"/><rect x="-0.4023076923076923" width="4.2067307692307654e-2" y="-0.4977026471930627" height="8.169785486079417e-2"/></g><g fill="rgb(66%, 7%, 55%)" stroke="rgb(66%, 7%, 55%)" stroke-width="0.0" fill-opacity="0.7" stroke-opacity="1.0"><rect x="-0.36024038461538466" width="4.2067307692307765e-2" y="0.319275901414879" height="8.169785486079417e-2"/><rect x="-0.3181730769230769" width="8.413461538461531e-2" y="0.22850050712510767" height="8.169785486079423e-2"/><rect x="-0.27610576923076924" width="0.12620192307692302" y="0.1377251128353364" height="8.169785486079423e-2"/><rect x="-0.19197115384615393" width="0.16826923076923084" y="4.694971854556512e-2" height="8.169785486079417e-2"/><rect x="-6.57692307692308e-2" width="0.21033653846153844" y="-4.382567574420615e-2" height="8.169785486079412e-2"/><rect x="-0.4023076923076923" width="0.2524038461538461" y="-0.1346010700339776" height="8.169785486079428e-2"/><rect x="-0.4864423076923077" width="0.29447115384615374" y="-0.2253764643237488" height="8.169785486079417e-2"/><rect x="6.0432692307692215e-2" width="0.33653846153846156" y="-0.31615185861352013" height="8.169785486079428e-2"/><rect x="-0.3181730769230769" width="0.3786057692307691" y="-0.40692725290329135" height="8.169785486079417e-2"/><rect x="-0.36024038461538466" width="0.42067307692307687" y="-0.4977026471930627" height="8.169785486079417e-2"/></g></g></g><g class="hud"><g class="axis"><g class="ticks"><g class="tickglyph"><g fill="rgb(5%, 5%, 5%)" stroke="rgb(5%, 5%, 5%)" stroke-width="4.0e-3" fill-opacity="0.4" stroke-opacity="0.4"><polyline points="-0.5705769230769231,0.44293404837973527
-0.5705769230769231,0.41293404837973524"/><polyline points="-0.4864423076923077,0.44293404837973527
-0.4864423076923077,0.41293404837973524"/><polyline points="-0.4023076923076923,0.44293404837973527
-0.4023076923076923,0.41293404837973524"/><polyline points="-0.3181730769230769,0.44293404837973527
-0.3181730769230769,0.41293404837973524"/><polyline points="-0.23403846153846158,0.44293404837973527
-0.23403846153846158,0.41293404837973524"/><polyline points="-0.14990384615384622,0.44293404837973527
-0.14990384615384622,0.41293404837973524"/><polyline points="-6.57692307692308e-2,0.44293404837973527
-6.57692307692308e-2,0.41293404837973524"/><polyline points="1.8365384615384395e-2,0.44293404837973527
1.8365384615384395e-2,0.41293404837973524"/><polyline points="0.10249999999999992,0.44293404837973527
0.10249999999999992,0.41293404837973524"/><polyline points="0.18663461538461534,0.44293404837973527
0.18663461538461534,0.41293404837973524"/><polyline points="0.27076923076923065,0.44293404837973527
0.27076923076923065,0.41293404837973524"/><polyline points="0.35490384615384607,0.44293404837973527
0.35490384615384607,0.41293404837973524"/><polyline points="0.43903846153846127,0.44293404837973527
0.43903846153846127,0.41293404837973524"/></g></g><g class="ticktext"><g fill="rgb(5%, 5%, 5%)" stroke="none" stroke-width="0.0" font-size="3.3653846153846145e-2" fill-opacity="1.0" text-anchor="middle"><text x="-0.5705769230769231" y="0.485">-4.0</text><text x="-0.4864423076923077" y="0.485">-2.0</text><text x="-0.4023076923076923" y="0.485"> 0.0</text><text x="-0.3181730769230769" y="0.485"> 2.0</text><text x="-0.23403846153846158" y="0.485"> 4.0</text><text x="-0.14990384615384622" y="0.485"> 6.0</text><text x="-6.57692307692308e-2" y="0.485"> 8.0</text><text x="1.8365384615384395e-2" y="0.485">10.0</text><text x="0.10249999999999992" y="0.485">12.0</text><text x="0.18663461538461534" y="0.485">14.0</text><text x="0.27076923076923065" y="0.485">16.0</text><text x="0.35490384615384607" y="0.485">18.0</text><text x="0.43903846153846127" y="0.485">20.0</text></g></g><g class="ticklines"><g fill="none" stroke="rgb(5%, 5%, 5%)" stroke-width="5.0e-3" stroke-opacity="5.0e-2"><polyline points="-0.5705769230769231,0.40097375627567317
-0.5705769230769231,-0.4977026471930627"/><polyline points="-0.4864423076923077,0.40097375627567317
-0.4864423076923077,-0.4977026471930627"/><polyline points="-0.4023076923076923,0.40097375627567317
-0.4023076923076923,-0.4977026471930627"/><polyline points="-0.3181730769230769,0.40097375627567317
-0.3181730769230769,-0.4977026471930627"/><polyline points="-0.23403846153846158,0.40097375627567317
-0.23403846153846158,-0.4977026471930627"/><polyline points="-0.14990384615384622,0.40097375627567317
-0.14990384615384622,-0.4977026471930627"/><polyline points="-6.57692307692308e-2,0.40097375627567317
-6.57692307692308e-2,-0.4977026471930627"/><polyline points="1.8365384615384395e-2,0.40097375627567317
1.8365384615384395e-2,-0.4977026471930627"/><polyline points="0.10249999999999992,0.40097375627567317
0.10249999999999992,-0.4977026471930627"/><polyline points="0.18663461538461534,0.40097375627567317
0.18663461538461534,-0.4977026471930627"/><polyline points="0.27076923076923065,0.40097375627567317
0.27076923076923065,-0.4977026471930627"/><polyline points="0.35490384615384607,0.40097375627567317
0.35490384615384607,-0.4977026471930627"/><polyline points="0.43903846153846127,0.40097375627567317
0.43903846153846127,-0.4977026471930627"/></g></g></g><g class="axisbar"><g fill="rgb(5%, 5%, 5%)" stroke="rgb(0%, 0%, 0%)" stroke-width="0.0" fill-opacity="0.4" stroke-opacity="0.0"><rect x="-0.5719230769230769" width="1.012307692307692" y="0.40996052031036057" height="3.594705613874871e-3"/></g></g></g><g class="axis"><g class="ticks"><g class="tickglyph"><g fill="rgb(5%, 5%, 5%)" stroke="rgb(5%, 5%, 5%)" stroke-width="4.0e-3" fill-opacity="0.4" stroke-opacity="0.4"><g transform="rotate(-90.0, -0.5907692307692307, 0.3560399361022364)"><polyline points="-0.5907692307692307,0.3710399361022364
-0.5907692307692307,0.3410399361022364"/></g><g transform="rotate(-90.0, -0.5907692307692307, 0.2661722957553628)"><polyline points="-0.5907692307692307,0.2811722957553628
-0.5907692307692307,0.25117229575536276"/></g><g transform="rotate(-90.0, -0.5907692307692307, 0.17630465540848922)"><polyline points="-0.5907692307692307,0.19130465540848923
-0.5907692307692307,0.1613046554084892"/></g><g transform="rotate(-90.0, -0.5907692307692307, 8.643701506161561e-2)"><polyline points="-0.5907692307692307,0.1014370150616156
-0.5907692307692307,7.143701506161561e-2"/></g><g transform="rotate(-90.0, -0.5907692307692307, -3.4306252852580044e-3)"><polyline points="-0.5907692307692307,1.1569374714741995e-2
-0.5907692307692307,-1.8430625285258004e-2"/></g><g transform="rotate(-90.0, -0.5907692307692307, -9.32982656321315e-2)"><polyline points="-0.5907692307692307,-7.82982656321315e-2
-0.5907692307692307,-0.1082982656321315"/></g><g transform="rotate(-90.0, -0.5907692307692307, -0.18316590597900517)"><polyline points="-0.5907692307692307,-0.16816590597900516
-0.5907692307692307,-0.19816590597900519"/></g><g transform="rotate(-90.0, -0.5907692307692307, -0.27303354632587873)"><polyline points="-0.5907692307692307,-0.2580335463258787
-0.5907692307692307,-0.28803354632587874"/></g><g transform="rotate(-90.0, -0.5907692307692307, -0.3629011866727524)"><polyline points="-0.5907692307692307,-0.3479011866727524
-0.5907692307692307,-0.3779011866727524"/></g><g transform="rotate(-90.0, -0.5907692307692307, -0.45276882701962595)"><polyline points="-0.5907692307692307,-0.43776882701962594
-0.5907692307692307,-0.46776882701962597"/></g></g></g><g class="ticktext"><g fill="rgb(5%, 5%, 5%)" stroke="none" stroke-width="0.0" font-size="3.3653846153846145e-2" fill-opacity="1.0" text-anchor="end"><text x="-0.615" y="0.3683967366499315">row 1</text><text x="-0.615" y="0.2785290963030579">row 2</text><text x="-0.615" y="0.18866145595618433">row 3</text><text x="-0.615" y="9.879381560931072e-2">row 4</text><text x="-0.615" y="8.926175262437108e-3">row 5</text><text x="-0.615" y="-8.094146508443634e-2">row 6</text><text x="-0.615" y="-0.17080910543131">row 7</text><text x="-0.615" y="-0.26067674577818367">row 8</text><text x="-0.615" y="-0.35054438612505723">row 9</text><text x="-0.615" y="-0.4404120264719309">row 10</text></g></g></g><g class="axisbar"><g fill="rgb(5%, 5%, 5%)" stroke="rgb(0%, 0%, 0%)" stroke-width="0.0" fill-opacity="0.4" stroke-opacity="0.0"><rect x="-0.58" width="2.6923076923076605e-3" y="-0.49950000000000006" height="0.9022711090826107"/></g></g></g><g class="legend"><g class="legendBorder"><g fill="rgb(5%, 5%, 5%)" stroke="rgb(5%, 5%, 5%)" stroke-width="2.5e-3" fill-opacity="0.0" stroke-opacity="1.0"><rect x="0.519807692307692" width="0.22682692307692331" y="-0.14676951163852126" height="0.20220219078046553"/></g></g><g class="legendContent"><g fill="rgb(5%, 5%, 5%)" stroke="none" stroke-width="0.0" font-size="3.0288461538461528e-2" fill-opacity="1.0" text-anchor="start"><text x="0.5366346153846153" y="9.375513464171537e-3">column 2</text></g><g fill="rgb(66%, 7%, 55%)" stroke="rgb(66%, 7%, 55%)" stroke-width="0.0" fill-opacity="0.7" stroke-opacity="1.0"><rect x="0.6793269230769228" width="5.0480769230769384e-2" y="-3.443496120492928e-2" height="6.740073026015514e-2"/></g><g fill="rgb(5%, 5%, 5%)" stroke="none" stroke-width="0.0" font-size="3.0288461538461528e-2" fill-opacity="1.0" text-anchor="start"><text x="0.5366346153846153" y="-8.049212688270202e-2">column 1</text></g><g fill="rgb(2%, 29%, 48%)" stroke="rgb(2%, 29%, 48%)" stroke-width="0.0" fill-opacity="0.7" stroke-opacity="1.0"><rect x="0.6793269230769228" width="5.0480769230769384e-2" y="-0.12430260155180284" height="6.740073026015514e-2"/></g></g></g></g></svg>