<svg xmlns="http://www.w3.org/2000/svg" xmlns:xlink="http://www.w3.org/1999/xlink" width="449" height="300" viewBox="-0.7773 -0.5 1.5273 1.0189"><style>svg {
  color-scheme: light dark;
}
{
  .canvas g, .title g, .axisbar g, .ticktext g, .tickglyph g, .ticklines g, .legendContent g text {
    fill: rgb(5%, 5%, 5%);
  }
  .ticklines g, .tickglyph g, .legendBorder g {
    stroke: rgb(5%, 5%, 5%);
  }
  .legendBorder g {
    fill: rgb(94%, 94%, 94%);
  }
}
@media (prefers-color-scheme:dark) {
  .canvas g, .title g, .axisbar g, .ticktext g, .tickglyph g, .ticklines g, .legendContent g text {
    fill: rgb(94%, 94%, 94%);
  }
  .ticklines g, .tickglyph g, .legendBorder g {
    stroke: rgb(94%, 94%, 94%);
  }
  .legendBorder g {
    fill: rgb(5%, 5%, 5%);
  }
}
svg { font-family: system-ui,-apple-system,"Segoe UI",Roboto,"Helvetica Neue",Arial,"Noto Sans","Liberation Sans",sans-serif,"Apple Color Emoji","Segoe UI Emoji","Segoe UI Symbol","Noto Color Emoji";
}

ticktext { font-family: SFMono-Regular,Menlo,Monaco,Consolas,"Liberation Mono","Courier New",monospace;
}

</style><g class="chart"><g class="barchart"><g stroke-width="0" stroke="rgb(2%, 29%, 48%)" stroke-opacity="1.0" fill="rgb(2%, 29%, 48%)" fill-opacity="0.7"><rect width="0.1018" height="0.0436" x="-0.7258" y="0.2411"/><rect width="0.1018" height="0.0872" x="-0.6127" y="0.1539"/><rect width="0.1018" height="0.1308" x="-0.4996" y="0.0667"/><rect width="0.1018" height="0.2180" x="-0.3865" y="-0.0641"/><rect width="0.1018" height="0.3488" x="-0.2734" y="-0.2384"/><rect width="0.1018" height="0" x="-0.1603" y="0.0667"/><rect width="0.1018" height="0.0872" x="-0.0472" y="0.0231"/><rect width="0.1018" height="0.4795" x="0.0659" y="-0.5"/><rect width="0.1018" height="0.0872" x="0.1790" y="-0.1512"/><rect width="0.1018" height="0.0436" x="0.2921" y="-0.1512"/></g><g stroke-width="0" stroke="rgb(66%, 7%, 55%)" stroke-opacity="1.0" fill="rgb(66%, 7%, 55%)" fill-opacity="0.7"><rect width="0.1018" height="0.0436" x="-0.7258" y="0.2847"/><rect width="0.1018" height="0.0872" x="-0.6127" y="0.2411"/><rect width="0.1018" height="0.1308" x="-0.4996" y="0.1975"/><rect width="0.1018" height="0.1744" x="-0.3865" y="0.1539"/><rect width="0.1018" height="0.2180" x="-0.2734" y="0.1103"/><rect width="0.1018" height="0.2616" x="-0.1603" y="0.0667"/><rect width="0.1018" height="0.3052" x="-0.0472" y="0.0231"/><rect width="0.1018" height="0.3488" x="0.0659" y="-0.0205"/><rect width="0.1018" height="0.3923" x="0.1790" y="-0.0641"/><rect width="0.1018" height="0.4359" x="0.2921" y="-0.1077"/></g></g></g><g class="hud"><g class="axis"><g class="axisbar"><g stroke-width="0" stroke="rgb(0%, 0%, 0%)" stroke-opacity="0" fill="rgb(5%, 5%, 5%)" fill-opacity="0.4"><rect width="1.1227" height="0.0033" x="-0.7272" y="0.3366"/></g></g><g class="ticks"><g class="tickglyph"><g stroke-width="0.0033" stroke="rgb(5%, 5%, 5%)" stroke-opacity="0.4" fill="rgb(5%, 5%, 5%)" fill-opacity="0.4"><polyline points="-0.6698,0.3631
-0.6698,0.3382"/><polyline points="-0.5578,0.3631
-0.5578,0.3382"/><polyline points="-0.4458,0.3631
-0.4458,0.3382"/><polyline points="-0.3339,0.3631
-0.3339,0.3382"/><polyline points="-0.2219,0.3631
-0.2219,0.3382"/><polyline points="-0.1099,0.3631
-0.1099,0.3382"/><polyline points="0.0020,0.3631
0.0020,0.3382"/><polyline points="0.1140,0.3631
0.1140,0.3382"/><polyline points="0.2260,0.3631
0.2260,0.3382"/><polyline points="0.3380,0.3631
0.3380,0.3382"/></g></g><g class="ticktext"><g stroke-width="0.0" stroke="none" fill="rgb(5%, 5%, 5%)" fill-opacity="1.0" font-size="0.0400" text-anchor="end"><text x="-0.6698" y="0.4086" transform="rotate(-45.0, -0.6698, 0.4086)">row 1</text><text x="-0.5578" y="0.4086" transform="rotate(-45.0, -0.5578, 0.4086)">row 2</text><text x="-0.4458" y="0.4086" transform="rotate(-45.0, -0.4458, 0.4086)">row 3</text><text x="-0.3339" y="0.4086" transform="rotate(-45.0, -0.3339, 0.4086)">row 4</text><text x="-0.2219" y="0.4086" transform="rotate(-45.0, -0.2219, 0.4086)">row 5</text><text x="-0.1099" y="0.4086" transform="rotate(-45.0, -0.1099, 0.4086)">row 6</text><text x="0.0020" y="0.4086" transform="rotate(-45.0, 0.0020, 0.4086)">row 7</text><text x="0.1140" y="0.4086" transform="rotate(-45.0, 0.1140, 0.4086)">row 8</text><text x="0.2260" y="0.4086" transform="rotate(-45.0, 0.2260, 0.4086)">row 9</text><text x="0.3380" y="0.4086" transform="rotate(-45.0, 0.3380, 0.4086)">row 10</text></g></g></g></g><g class="legend"><g class="padding"></g><g class="padding"></g><g class="frame"><g stroke-width="0.0009" stroke="rgb(5%, 5%, 5%)" stroke-opacity="1.0" fill="rgb(5%, 5%, 5%)" fill-opacity="0"><rect width="0.2740" height="0.1864" x="0.4723" y="-0.1790"/></g></g><g class="legendContent"><g stroke-width="0" stroke="rgb(66%, 7%, 55%)" stroke-opacity="1.0" fill="rgb(66%, 7%, 55%)" fill-opacity="0.7"><rect width="0.0560" height="0.0621" x="0.6716" y="-0.0755"/></g><g stroke-width="0.0" stroke="none" fill="rgb(5%, 5%, 5%)" fill-opacity="1.0" font-size="0.0299" text-anchor="start"><text x="0.4910" y="-0.0362">column 2</text></g><g stroke-width="0" stroke="rgb(2%, 29%, 48%)" stroke-opacity="1.0" fill="rgb(2%, 29%, 48%)" fill-opacity="0.7"><rect width="0.0560" height="0.0621" x="0.6716" y="-0.1583"/></g><g stroke-width="0.0" stroke="none" fill="rgb(5%, 5%, 5%)" fill-opacity="1.0" font-size="0.0299" text-anchor="start"><text x="0.4910" y="-0.1190">column 1</text></g></g></g></g></svg>