<svg height="300" viewBox="-0.7427 -0.5 1.4927 0.9751" width="459" xmlns="http://www.w3.org/2000/svg" xmlns:xlink="http://www.w3.org/1999/xlink"><style>svg {
  color-scheme: light dark;
}
{
  .canvas g, .title g, .axisbar g, .ticktext g, .tickglyph g, .ticklines g, .legendContent g text {
    fill: rgb(5%, 5%, 5%);
  }
  .ticklines g, .tickglyph g, .legendBorder g {
    stroke: rgb(5%, 5%, 5%);
  }
  .legendBorder g {
    fill: rgb(94%, 94%, 94%);
  }
}
@media (prefers-color-scheme:dark) {
  .canvas g, .title g, .axisbar g, .ticktext g, .tickglyph g, .ticklines g, .legendContent g text {
    fill: rgb(94%, 94%, 94%);
  }
  .ticklines g, .tickglyph g, .legendBorder g {
    stroke: rgb(94%, 94%, 94%);
  }
  .legendBorder g {
    fill: rgb(5%, 5%, 5%);
  }
}</style><g class="chart"><g class="barchart"><g fill="rgb(2%, 29%, 48%)" fill-opacity="0.7" stroke="rgb(2%, 29%, 48%)" stroke-opacity="1.0" stroke-width="0"><rect height="0.0629" width="0.1032" x="-0.7119" y="0.1288"/><rect height="0.1258" width="0.1032" x="-0.5972" y="0.0660"/><rect height="0.1887" width="0.1032" x="-0.4825" y="0.0031"/><rect height="0.3144" width="0.1032" x="-0.3677" y="-0.1227"/><rect height="0.5031" width="0.1032" x="-0.2530" y="-0.3113"/><rect height="0" width="0.1032" x="-0.1383" y="0.1917"/><rect height="0.1258" width="0.1032" x="-0.0236" y="0.1917"/><rect height="0.6917" width="0.1032" x="0.0911" y="-0.5"/><rect height="0.1258" width="0.1032" x="0.2059" y="0.0660"/><rect height="0.0629" width="0.1032" x="0.3206" y="0.1288"/></g></g></g><g class="hud"><g class="axis"><g class="ticks"><g class="tickglyph"><g fill="rgb(5%, 5%, 5%)" fill-opacity="0.4" stroke="rgb(5%, 5%, 5%)" stroke-opacity="0.4" stroke-width="0.0040"><polyline points="-0.6603,0.3570
-0.6603,0.3270"/><polyline points="-0.5456,0.3570
-0.5456,0.3270"/><polyline points="-0.4308,0.3570
-0.4308,0.3270"/><polyline points="-0.3161,0.3570
-0.3161,0.3270"/><polyline points="-0.2014,0.3570
-0.2014,0.3270"/><polyline points="-0.0867,0.3570
-0.0867,0.3270"/><polyline points="0.0280,0.3570
0.0280,0.3270"/><polyline points="0.1428,0.3570
0.1428,0.3270"/><polyline points="0.2575,0.3570
0.2575,0.3270"/><polyline points="0.3722,0.3570
0.3722,0.3270"/></g></g><g class="ticktext"><g fill="rgb(5%, 5%, 5%)" fill-opacity="1.0" font-size="0.0382" stroke="none" stroke-width="0.0" text-anchor="end"><text transform="rotate(-45.0, -0.6603, 0.3939)" x="-0.6603" y="0.3939">row 1</text><text transform="rotate(-45.0, -0.5456, 0.3939)" x="-0.5456" y="0.3939">row 2</text><text transform="rotate(-45.0, -0.4308, 0.3939)" x="-0.4308" y="0.3939">row 3</text><text transform="rotate(-45.0, -0.3161, 0.3939)" x="-0.3161" y="0.3939">row 4</text><text transform="rotate(-45.0, -0.2014, 0.3939)" x="-0.2014" y="0.3939">row 5</text><text transform="rotate(-45.0, -0.0867, 0.3939)" x="-0.0867" y="0.3939">row 6</text><text transform="rotate(-45.0, 0.0280, 0.3939)" x="0.0280" y="0.3939">row 7</text><text transform="rotate(-45.0, 0.1428, 0.3939)" x="0.1428" y="0.3939">row 8</text><text transform="rotate(-45.0, 0.2575, 0.3939)" x="0.2575" y="0.3939">row 9</text><text transform="rotate(-45.0, 0.3722, 0.3939)" x="0.3722" y="0.3939">row 10</text></g></g></g><g class="axisbar"><g fill="rgb(5%, 5%, 5%)" fill-opacity="0.4" stroke="rgb(0%, 0%, 0%)" stroke-opacity="0" stroke-width="0"><rect height="0.0033" width="1.1502" x="-0.7192" y="0.3257"/></g></g></g><g class="legend"><g class="legendBorder"><g fill="rgb(5%, 5%, 5%)" fill-opacity="0" stroke="rgb(5%, 5%, 5%)" stroke-opacity="1.0" stroke-width="0.0025"><rect height="0.1839" width="0.2577" x="0.4884" y="-0.1425"/></g></g><g class="legendContent"><g fill="rgb(5%, 5%, 5%)" fill-opacity="1.0" font-size="0.0344" stroke="none" stroke-width="0.0" text-anchor="start"><text x="0.5076" y="-0.0005">column 2</text></g><g fill="rgb(66%, 7%, 55%)" fill-opacity="0.7" stroke="rgb(66%, 7%, 55%)" stroke-opacity="1.0" stroke-width="0"><rect height="0.0613" width="0.0574" x="0.6697" y="-0.0403"/></g><g fill="rgb(5%, 5%, 5%)" fill-opacity="1.0" font-size="0.0344" stroke="none" stroke-width="0.0" text-anchor="start"><text x="0.5076" y="-0.0822">column 1</text></g><g fill="rgb(2%, 29%, 48%)" fill-opacity="0.7" stroke="rgb(2%, 29%, 48%)" stroke-opacity="1.0" stroke-width="0"><rect height="0.0613" width="0.0574" x="0.6697" y="-0.1221"/></g></g></g></g></svg>