<svg width="409.41828969890094" xmlns:xlink="http://www.w3.org/1999/xlink" xmlns="http://www.w3.org/2000/svg" viewBox="-0.6971745696164302 -0.5061551870614909 1.3943491392328604 1.0217050686169702" height="300.0"><style>svg {
  color-scheme: light dark;
}
@media (prefers-color-scheme:dark) {
  svg {
    background-color: #f0f0f0;
  }
}</style><g stroke-opacity="1.0" fill="#b2de8a" stroke="#fcfcfc" stroke-width="5.0e-3" fill-opacity="5.0e-2"><rect width="0.21543054867491418" x="0.45765356748566355" y="-0.13129285833751458" height="0.15721692590734238"/></g><g fill="#0d0d0d" stroke="none" stroke-width="0.0" font-size="1.363484485284265e-2" fill-opacity="1.0" text-anchor="start"><text x="0.4712884123385065" y="4.181301220940015e-3">addLineY</text></g><g stroke-opacity="0.3" fill="none" stroke="#33a12b" stroke-dasharray="4.0e-2 1.0e-2" stroke-width="1.0e-2"><polyline points="0.5749132332201105,-0.0
0.6567223023371663,-0.0"/></g><g fill="#0d0d0d" stroke="none" stroke-width="0.0" font-size="1.363484485284265e-2" fill-opacity="1.0" text-anchor="start"><text x="0.4712884123385065" y="-3.0941629034955564e-2">addLineX</text></g><g stroke-opacity="0.3" fill="none" stroke="#ff8000" stroke-dasharray="1.0e-2" stroke-width="1.0e-2"><polyline points="0.5749132332201105,-3.5122930255895635e-2
0.6567223023371663,-3.5122930255895635e-2"/></g><g fill="#0d0d0d" stroke="none" stroke-width="0.0" font-size="1.363484485284265e-2" fill-opacity="1.0" text-anchor="start"><text x="0.4712884123385065" y="-6.60645592908512e-2">yify</text></g><g stroke-opacity="1.0" fill="none" stroke="#33a12b" stroke-width="1.0e-2"><polyline points="0.5749132332201105,-7.024586051179127e-2
0.6567223023371663,-7.024586051179127e-2"/></g><g fill="#0d0d0d" stroke="none" stroke-width="0.0" font-size="1.363484485284265e-2" fill-opacity="1.0" text-anchor="start"><text x="0.4712884123385065" y="-0.10118748954674683">xify</text></g><g stroke-opacity="1.0" fill="none" stroke="#ff8000" stroke-width="1.0e-2"><polyline points="0.5749132332201105,-0.10536879076768679
0.6567223023371663,-0.10536879076768679"/></g><g fill="#0d0d0d" stroke="none" stroke-width="0.0" font-size="7.635513117591886e-2" fill-opacity="1.0" text-anchor="middle"><text x="-0.11194207624183805" y="-0.42507108212075584">subchart example</text></g><g fill="#0d0d0d" stroke="none" stroke-width="0.0" font-size="6.544725529364472e-2" fill-opacity="1.0" text-anchor="middle"><text x="-0.11194207624183805" y="0.47591570496738583">x axis title</text></g><g fill="#0d0d0d" stroke="none" stroke-width="0.0" font-size="6.544725529364472e-2" fill-opacity="1.0" text-anchor="middle"><text x="-0.6248167653815144" y="7.359090148854441e-3" transform="rotate(-90.0, -0.6248167653815144, 7.359090148854441e-3)">y axis title</text></g><g stroke-opacity="0.0" fill="#0d0d0d" stroke="#000000" stroke-width="0.0" fill-opacity="0.4"><rect width="2.181575176454842e-3" x="-0.4969219206618503" y="-0.35398896136477653" height="0.6716842281317944"/></g><g stroke-opacity="0.4" fill="#0d0d0d" stroke="#0d0d0d" stroke-width="4.0e-3" fill-opacity="0.4"><g transform="rotate(-90.0, -0.5056482213676696, 0.3163572503763171)"><polyline points="-0.5056482213676696,0.33135725037631714
-0.5056482213676696,0.3013572503763171"/></g><g transform="rotate(-90.0, -0.5056482213676696, 0.24202300644849567)"><polyline points="-0.5056482213676696,0.2570230064484957
-0.5056482213676696,0.22702300644849566"/></g><g transform="rotate(-90.0, -0.5056482213676696, 0.16768876252067422)"><polyline points="-0.5056482213676696,0.18268876252067423
-0.5056482213676696,0.1526887625206742"/></g><g transform="rotate(-90.0, -0.5056482213676696, 9.335451859285276e-2)"><polyline points="-0.5056482213676696,0.10835451859285276
-0.5056482213676696,7.835451859285276e-2"/></g><g transform="rotate(-90.0, -0.5056482213676696, 1.9020274665031367e-2)"><polyline points="-0.5056482213676696,3.4020274665031366e-2
-0.5056482213676696,4.0202746650313675e-3"/></g><g transform="rotate(-90.0, -0.5056482213676696, -5.5313969262790086e-2)"><polyline points="-0.5056482213676696,-4.0313969262790086e-2
-0.5056482213676696,-7.031396926279009e-2"/></g><g transform="rotate(-90.0, -0.5056482213676696, -0.12964821319061148)"><polyline points="-0.5056482213676696,-0.11464821319061148
-0.5056482213676696,-0.1446482131906115"/></g><g transform="rotate(-90.0, -0.5056482213676696, -0.203982457118433)"><polyline points="-0.5056482213676696,-0.18898245711843298
-0.5056482213676696,-0.218982457118433"/></g><g transform="rotate(-90.0, -0.5056482213676696, -0.2783167010462544)"><polyline points="-0.5056482213676696,-0.2633167010462544
-0.5056482213676696,-0.2933167010462544"/></g><g transform="rotate(-90.0, -0.5056482213676696, -0.3526509449740759)"><polyline points="-0.5056482213676696,-0.3376509449740759
-0.5056482213676696,-0.3676509449740759"/></g></g><g fill="#0d0d0d" stroke="none" stroke-width="0.0" font-size="2.72696897056853e-2" fill-opacity="1.0" text-anchor="end"><text x="-0.5220100351910808" y="0.325556113062385">-2.00</text><text x="-0.5220100351910808" y="0.25122186913456357">0.00</text><text x="-0.5220100351910808" y="0.17688762520674212">2.00</text><text x="-0.5220100351910808" y="0.10255338127892072">4.00</text><text x="-0.5220100351910808" y="2.821913735109932e-2">6.00</text><text x="-0.5220100351910808" y="-4.611510657672213e-2">8.00</text><text x="-0.5220100351910808" y="-0.12044935050454353">10.00</text><text x="-0.5220100351910808" y="-0.19478359443236493">12.00</text><text x="-0.5220100351910808" y="-0.26911783836018643">14.00</text><text x="-0.5220100351910808" y="-0.34345208228800783">16.00</text></g><g stroke-opacity="5.0e-2" fill="none" stroke="#0d0d0d" stroke-width="5.0e-3"><polyline points="-0.4892864075442584,0.3163572503763171
0.32880428362630065,0.3163572503763171"/><polyline points="-0.4892864075442584,0.24202300644849567
0.32880428362630065,0.24202300644849567"/><polyline points="-0.4892864075442584,0.16768876252067422
0.32880428362630065,0.16768876252067422"/><polyline points="-0.4892864075442584,9.335451859285276e-2
0.32880428362630065,9.335451859285276e-2"/><polyline points="-0.4892864075442584,1.9020274665031367e-2
0.32880428362630065,1.9020274665031367e-2"/><polyline points="-0.4892864075442584,-5.5313969262790086e-2
0.32880428362630065,-5.5313969262790086e-2"/><polyline points="-0.4892864075442584,-0.12964821319061148
0.32880428362630065,-0.12964821319061148"/><polyline points="-0.4892864075442584,-0.203982457118433
0.32880428362630065,-0.203982457118433"/><polyline points="-0.4892864075442584,-0.2783167010462544
0.32880428362630065,-0.2783167010462544"/><polyline points="-0.4892864075442584,-0.3526509449740759
0.32880428362630065,-0.3526509449740759"/></g><g stroke-opacity="0.0" fill="#0d0d0d" stroke="#000000" stroke-width="0.0" fill-opacity="0.4"><rect width="0.8202722663470138" x="-0.4903771951324858" y="0.323047332329821" height="2.6760327814015494e-3"/></g><g stroke-opacity="0.4" fill="#0d0d0d" stroke="#0d0d0d" stroke-width="4.0e-3" fill-opacity="0.4"><polyline points="-0.4892864075442584,0.3514274962368289
-0.4892864075442584,0.32142749623682887"/><polyline points="-0.3983874418586408,0.3514274962368289
-0.3983874418586408,0.32142749623682887"/><polyline points="-0.3074884761730231,0.3514274962368289
-0.3074884761730231,0.32142749623682887"/><polyline points="-0.21658951048740538,0.3514274962368289
-0.21658951048740538,0.32142749623682887"/><polyline points="-0.12569054480178776,0.3514274962368289
-0.12569054480178776,0.32142749623682887"/><polyline points="-3.4791579116170035e-2,0.3514274962368289
-3.4791579116170035e-2,0.32142749623682887"/><polyline points="5.610738656944758e-2,0.3514274962368289
5.610738656944758e-2,0.32142749623682887"/><polyline points="0.1470063522550653,0.3514274962368289
0.1470063522550653,0.32142749623682887"/><polyline points="0.23790531794068293,0.3514274962368289
0.23790531794068293,0.32142749623682887"/><polyline points="0.32880428362630065,0.3514274962368289
0.32880428362630065,0.32142749623682887"/></g><g fill="#0d0d0d" stroke="none" stroke-width="0.0" font-size="2.72696897056853e-2" fill-opacity="1.0" text-anchor="middle"><text x="-0.4892864075442584" y="0.3748954674694765">-2.00</text><text x="-0.3983874418586408" y="0.3748954674694765">0.00</text><text x="-0.3074884761730231" y="0.3748954674694765">2.00</text><text x="-0.21658951048740538" y="0.3748954674694765">4.00</text><text x="-0.12569054480178776" y="0.3748954674694765">6.00</text><text x="-3.4791579116170035e-2" y="0.3748954674694765">8.00</text><text x="5.610738656944758e-2" y="0.3748954674694765">10.00</text><text x="0.1470063522550653" y="0.3748954674694765">12.00</text><text x="0.23790531794068293" y="0.3748954674694765">14.00</text><text x="0.32880428362630065" y="0.3748954674694765">16.00</text></g><g stroke-opacity="5.0e-2" fill="none" stroke="#0d0d0d" stroke-width="5.0e-3"><polyline points="-0.4892864075442584,0.3163572503763171
-0.4892864075442584,-0.3526509449740759"/><polyline points="-0.3983874418586408,0.3163572503763171
-0.3983874418586408,-0.3526509449740759"/><polyline points="-0.3074884761730231,0.3163572503763171
-0.3074884761730231,-0.3526509449740759"/><polyline points="-0.21658951048740538,0.3163572503763171
-0.21658951048740538,-0.3526509449740759"/><polyline points="-0.12569054480178776,0.3163572503763171
-0.12569054480178776,-0.3526509449740759"/><polyline points="-3.4791579116170035e-2,0.3163572503763171
-3.4791579116170035e-2,-0.3526509449740759"/><polyline points="5.610738656944758e-2,0.3163572503763171
5.610738656944758e-2,-0.3526509449740759"/><polyline points="0.1470063522550653,0.3163572503763171
0.1470063522550653,-0.3526509449740759"/><polyline points="0.23790531794068293,0.3163572503763171
0.23790531794068293,-0.3526509449740759"/><polyline points="0.32880428362630065,0.3163572503763171
0.32880428362630065,-0.3526509449740759"/></g><g stroke-opacity="1.0" fill="none" stroke="#33a12b" stroke-width="1.2e-2"><polyline points="-0.3529379590158319,0.24202300644849567
-0.3074884761730231,0.20485588448458497
-8.024106195897884e-2,0.16768876252067422
-0.2620389933302142,0.13052164055676352
0.19245583509787423,9.335451859285276e-2
0.23790531794068293,5.618739662894212e-2"/></g><g stroke-opacity="1.0" fill="none" stroke="#ff8000" stroke-width="1.2e-2"><polyline points="-0.3983874418586408,0.20485588448458497
-0.3529379590158319,0.16768876252067422
-0.3074884761730231,-1.8146847298879387e-2
-0.2620389933302142,0.13052164055676352
-0.21658951048740538,-0.24114957908234358
-0.17114002764459657,-0.2783167010462544"/></g><g stroke-opacity="0.3" fill="none" stroke="#33a12b" stroke-dasharray="4.0e-2 1.0e-2" stroke-width="1.2e-2"><polyline points="-0.3986601387556976,0.13052164055676352
0.2381780148377397,0.13052164055676352"/></g><g stroke-opacity="0.3" fill="none" stroke="#ff8000" stroke-dasharray="1.0e-2" stroke-width="1.2e-2"><polyline points="-0.17114002764459657,0.24224600918027916
-0.17114002764459657,-0.27853970377803783"/></g></svg>