<svg width="447.7668323960762" xmlns:xlink="http://www.w3.org/1999/xlink" xmlns="http://www.w3.org/2000/svg" viewBox="-0.8005623569234465 -0.541399165813861 1.597793657308526 1.0705082701805724" height="300.0"><style>svg {
  color-scheme: light dark;
}
@media (prefers-color-scheme:dark) {
  svg {
    background-color: #f0f0f0;
  }
}</style><g></g><g stroke-opacity="0.1" fill="#ffffff" stroke="#0d0d0d" stroke-width="8.0e-3" fill-opacity="1.0"><rect width="0.5389249440750156" x="0.13816178572999993" y="-0.37040164136387943" height="0.30707514011367576"/></g><g fill="#0d0d0d" stroke="none" stroke-width="0.0" font-size="4.000000000000001e-2" fill-opacity="1.0" text-anchor="start"><text x="0.1737931869911581" y="-0.10668664834958852">addLineY</text></g><g stroke-opacity="0.3" fill="none" stroke="#33a12b" stroke-dasharray="4.0e-2 1.0e-2" stroke-width="1.0e-2"><polyline points="0.42321299581926464,-0.11237322501836033
0.6370014033862127,-0.11237322501836033"/></g><g fill="#0d0d0d" stroke="none" stroke-width="0.0" font-size="4.000000000000001e-2" fill-opacity="1.0" text-anchor="start"><text x="0.1737931869911581" y="-0.17634721254204277">addLineX</text></g><g stroke-opacity="0.3" fill="none" stroke="#ff8000" stroke-dasharray="1.0e-2" stroke-width="1.0e-2"><polyline points="0.42321299581926464,-0.1820337892108146
0.6370014033862127,-0.1820337892108146"/></g><g fill="#0d0d0d" stroke="none" stroke-width="0.0" font-size="4.000000000000001e-2" fill-opacity="1.0" text-anchor="start"><text x="0.1737931869911581" y="-0.24600777673449703">yify</text></g><g stroke-opacity="1.0" fill="none" stroke="#33a12b" stroke-width="1.0e-2"><polyline points="0.42321299581926464,-0.25169435340326873
0.6370014033862127,-0.25169435340326873"/></g><g fill="#0d0d0d" stroke="none" stroke-width="0.0" font-size="4.000000000000001e-2" fill-opacity="1.0" text-anchor="start"><text x="0.1737931869911581" y="-0.3156683409269512">xify</text></g><g stroke-opacity="1.0" fill="none" stroke="#ff8000" stroke-width="1.0e-2"><polyline points="0.42321299581926464,-0.3213549175957229
0.6370014033862127,-0.3213549175957229"/></g><g fill="#0d0d0d" stroke="none" stroke-width="0.0" font-size="6.0e-2" fill-opacity="1.0" text-anchor="middle"><text x="-0.7250623569234464" y="-0.0" transform="rotate(-90.0, -0.7250623569234464, -0.0)">y axis title</text></g><g fill="#0d0d0d" stroke="none" stroke-width="0.0" font-size="6.0e-2" fill-opacity="1.0" text-anchor="middle"><text x="4.2534985255507474e-2" y="0.47760910436671117">x axis title</text></g><g fill="#0d0d0d" stroke="none" stroke-width="0.0" font-size="8.0e-2" fill-opacity="1.0" text-anchor="middle"><text x="4.2534985255507474e-2" y="-0.4473991658138611">subchart example</text></g><g stroke-opacity="0.0" fill="#0d0d0d" stroke="#000000" stroke-width="0.0" fill-opacity="2.0e-2"><rect width="1.336177547293428" x="-0.5833740898084512" y="-0.39670205845694884" height="0.7108220835964715"/></g><g stroke-opacity="5.0e-2" fill="none" stroke="#0d0d0d" stroke-width="5.0e-3"><polyline points="-0.5833740898084512,0.31381564799838796
0.7528034574849768,0.31381564799838796"/><polyline points="-0.5833740898084512,0.212356600953502
0.7528034574849768,0.212356600953502"/><polyline points="-0.5833740898084512,0.11089755390861594
0.7528034574849768,0.11089755390861594"/><polyline points="-0.5833740898084512,9.438506863729879e-3
0.7528034574849768,9.438506863729879e-3"/><polyline points="-0.5833740898084512,-9.202054018115624e-2
0.7528034574849768,-9.202054018115624e-2"/><polyline points="-0.5833740898084512,-0.1934795872260422
0.7528034574849768,-0.1934795872260422"/><polyline points="-0.5833740898084512,-0.29493863427092826
0.7528034574849768,-0.29493863427092826"/><polyline points="-0.5833740898084512,-0.3963976813158141
0.7528034574849768,-0.3963976813158141"/></g><g fill="#0d0d0d" stroke="none" stroke-width="0.0" font-size="5.0e-2" fill-opacity="1.0" text-anchor="end"><text x="-0.6448917040858406" y="0.32412256821053675">0</text><text x="-0.6448917040858406" y="0.2226635211656508">2</text><text x="-0.6448917040858406" y="0.12120447412076474">4</text><text x="-0.6448917040858406" y="1.974542707587873e-2">6</text><text x="-0.6448917040858406" y="-8.171361996900739e-2">8</text><text x="-0.6448917040858406" y="-0.18317266701389334">10</text><text x="-0.6448917040858406" y="-0.2846317140587794">12</text><text x="-0.6448917040858406" y="-0.38609076110366536">14</text></g><g stroke-opacity="0.4" fill="#0d0d0d" stroke="#0d0d0d" stroke-width="4.0e-3" fill-opacity="0.4"><g transform="rotate(-90.0, -0.6163331359750225, 0.31381564799838796)"><polyline points="-0.6163331359750225,0.32881564799838797
-0.6163331359750225,0.29881564799838795"/></g><g transform="rotate(-90.0, -0.6163331359750225, 0.212356600953502)"><polyline points="-0.6163331359750225,0.22735660095350202
-0.6163331359750225,0.197356600953502"/></g><g transform="rotate(-90.0, -0.6163331359750225, 0.11089755390861594)"><polyline points="-0.6163331359750225,0.12589755390861596
-0.6163331359750225,9.589755390861594e-2"/></g><g transform="rotate(-90.0, -0.6163331359750225, 9.438506863729879e-3)"><polyline points="-0.6163331359750225,2.4438506863729878e-2
-0.6163331359750225,-5.561493136270121e-3"/></g><g transform="rotate(-90.0, -0.6163331359750225, -9.202054018115624e-2)"><polyline points="-0.6163331359750225,-7.702054018115624e-2
-0.6163331359750225,-0.10702054018115624"/></g><g transform="rotate(-90.0, -0.6163331359750225, -0.1934795872260422)"><polyline points="-0.6163331359750225,-0.17847958722604218
-0.6163331359750225,-0.2084795872260422"/></g><g transform="rotate(-90.0, -0.6163331359750225, -0.29493863427092826)"><polyline points="-0.6163331359750225,-0.27993863427092824
-0.6163331359750225,-0.30993863427092827"/></g><g transform="rotate(-90.0, -0.6163331359750225, -0.3963976813158141)"><polyline points="-0.6163331359750225,-0.3813976813158141
-0.6163331359750225,-0.4113976813158141"/></g></g><g stroke-opacity="0.0" fill="#0d0d0d" stroke="#000000" stroke-width="0.0" fill-opacity="0.4"><rect width="3.5631401261158047e-3" x="-0.6011897904390302" y="-0.3981237026241419" height="0.7136653719308574"/></g><g stroke-opacity="5.0e-2" fill="none" stroke="#0d0d0d" stroke-width="5.0e-3"><polyline points="-0.582801932708554,0.31412002513952264
-0.582801932708554,-0.39670205845694884"/><polyline points="-0.39208289940946345,0.31412002513952264
-0.39208289940946345,-0.39670205845694884"/><polyline points="-0.20136386611037305,0.31412002513952264
-0.20136386611037305,-0.39670205845694884"/><polyline points="-1.0644832811282479e-2,0.31412002513952264
-1.0644832811282479e-2,-0.39670205845694884"/><polyline points="0.18007420048780787,0.31412002513952264
0.18007420048780787,-0.39670205845694884"/><polyline points="0.37079323378689855,0.31412002513952264
0.37079323378689855,-0.39670205845694884"/><polyline points="0.561512267085989,0.31412002513952264
0.561512267085989,-0.39670205845694884"/><polyline points="0.7522313003850795,0.31412002513952264
0.7522313003850795,-0.39670205845694884"/></g><g fill="#0d0d0d" stroke="none" stroke-width="0.0" font-size="5.0e-2" fill-opacity="1.0" text-anchor="middle"><text x="-0.582801932708554" y="0.39959638069199843">0</text><text x="-0.39208289940946345" y="0.39959638069199843">2</text><text x="-0.20136386611037305" y="0.39959638069199843">4</text><text x="-1.0644832811282479e-2" y="0.39959638069199843">6</text><text x="0.18007420048780787" y="0.39959638069199843">8</text><text x="0.37079323378689855" y="0.39959638069199843">10</text><text x="0.561512267085989" y="0.39959638069199843">12</text><text x="0.7522313003850795" y="0.39959638069199843">14</text></g><g stroke-opacity="0.4" fill="#0d0d0d" stroke="#0d0d0d" stroke-width="4.0e-3" fill-opacity="0.4"><polyline points="-0.582801932708554,0.3554204422325921
-0.582801932708554,0.3254204422325921"/><polyline points="-0.39208289940946345,0.3554204422325921
-0.39208289940946345,0.3254204422325921"/><polyline points="-0.20136386611037305,0.3554204422325921
-0.20136386611037305,0.3254204422325921"/><polyline points="-1.0644832811282479e-2,0.3554204422325921
-1.0644832811282479e-2,0.3254204422325921"/><polyline points="0.18007420048780787,0.3554204422325921
0.18007420048780787,0.3254204422325921"/><polyline points="0.37079323378689855,0.3554204422325921
0.37079323378689855,0.3254204422325921"/><polyline points="0.561512267085989,0.3554204422325921
0.561512267085989,0.3254204422325921"/><polyline points="0.7522313003850795,0.3554204422325921
0.7522313003850795,0.3254204422325921"/></g><g stroke-opacity="0.0" fill="#0d0d0d" stroke="#000000" stroke-width="0.0" fill-opacity="0.4"><rect width="1.3397406874195434" x="-0.5851556598715091" y="0.32549317847706616" height="2.8432883343859072e-3"/></g><g stroke-opacity="1.0" fill="none" stroke="#33a12b" stroke-width="1.2e-2"><polyline points="-0.4874424160590087,0.31381564799838796
-0.39208289940946345,0.2630861244759449
8.471468383826286e-2,0.212356600953502
-0.2967233827599183,0.16162707743105892
0.6568717837355343,0.11089755390861594
0.7522313003850795,6.01680303861728e-2"/></g><g stroke-opacity="1.0" fill="none" stroke="#ff8000" stroke-width="1.2e-2"><polyline points="-0.582801932708554,0.2630861244759449
-0.4874424160590087,0.212356600953502
-0.39208289940946345,-4.129101665871315e-2
-0.2967233827599183,0.16162707743105892
-0.20136386611037305,-0.34566815779337134
-0.1060043494608276,-0.3963976813158141"/></g><g stroke-opacity="0.3" fill="none" stroke="#33a12b" stroke-dasharray="4.0e-2 1.0e-2" stroke-width="1.2e-2"><polyline points="-0.5833740898084512,0.16162707743105892
0.7528034574849768,0.16162707743105892"/></g><g stroke-opacity="0.3" fill="none" stroke="#ff8000" stroke-dasharray="1.0e-2" stroke-width="1.2e-2"><polyline points="-0.1060043494608276,0.31412002513952264
-0.1060043494608276,-0.39670205845694884"/></g></svg>