<svg width="478.3733021888407" xmlns:xlink="http://www.w3.org/1999/xlink" xmlns="http://www.w3.org/2000/svg" viewBox="-0.5878817978087569 -0.5356312498795094 1.6907635956175138 1.0603206248433623" height="300.0"><style>svg {
  color-scheme: light dark;
}
{
  .canvas g, .title g, .axisbar g, .ticktext g, .tickglyph g, .ticklines g, .legendContent g text {
    fill: #0d0d0d;
  }
  .ticklines g, .tickglyph g, .legendBorder g {
    stroke: #0d0d0d;
  }
}
@media (prefers-color-scheme:dark) {
  .canvas g, .title g, .axisbar g, .ticktext g, .tickglyph g, .ticklines g, .legendContent g text {
    fill: #f0f0f0;
  }
  .ticklines g, .tickglyph g, .legendBorder g {
    stroke: #f0f0f0;
  }
}</style><g class="chart"><g><g class="xline"><g stroke-opacity="1.0" fill="none" stroke="#ff8000" stroke-width="1.2e-2"><polyline points="-0.3158002284243272,0.2485338706194919
-0.2537111719256992,0.20040128722756878
-0.1916221154270712,-4.026162973204661e-2
-0.1295330589284432,0.15226870383564567
-6.744400242981519e-2,-0.32905713008358517
-5.354945931187238e-3,-0.3771897134755082"/></g></g><g class="yline"><g stroke-opacity="1.0" fill="none" stroke="#33a12b" stroke-width="1.2e-2"><polyline points="-0.2537111719256992,0.29666645401141495
-0.1916221154270712,0.2485338706194919
0.11882316706606877,0.20040128722756878
-0.1295330589284432,0.15226870383564567
0.49135750605783657,0.10413612044372261
0.5534465625564646,5.600353705179956e-2"/></g></g><g class="addlinex"><g stroke-opacity="0.3" fill="none" stroke="#33a12b" stroke-dasharray="4.0e-2 1.0e-2" stroke-width="1.2e-2"><polyline points="-0.3158002284243272,0.15226870383564567
0.5534465625564646,0.15226870383564567"/></g></g><g class="addliney"><g stroke-opacity="0.3" fill="none" stroke="#33a12b" stroke-dasharray="4.0e-2 1.0e-2" stroke-width="1.2e-2"><polyline points="-5.354945931187238e-3,0.29666645401141495
-5.354945931187238e-3,-0.3771897134755082"/></g></g></g></g><g class="hud"><g class="axis"><g class="ticks"><g class="tickglyph"><g stroke-opacity="0.4" fill="#0d0d0d" stroke="#0d0d0d" stroke-width="4.0e-3" fill-opacity="0.4"><g transform="rotate(-90.0, -0.3470931128996357, 0.3007095910163365)"><polyline points="-0.3470931128996357,0.3157095910163365
-0.3470931128996357,0.2857095910163365"/></g><g transform="rotate(-90.0, -0.3470931128996357, 0.2032892422310842)"><polyline points="-0.3470931128996357,0.2182892422310842
-0.3470931128996357,0.18828924223108418"/></g><g transform="rotate(-90.0, -0.3470931128996357, 0.10586889344583184)"><polyline points="-0.3470931128996357,0.12086889344583183
-0.3470931128996357,9.086889344583184e-2"/></g><g transform="rotate(-90.0, -0.3470931128996357, 8.448544660579538e-3)"><polyline points="-0.3470931128996357,2.3448544660579537e-2
-0.3470931128996357,-6.551455339420462e-3"/></g><g transform="rotate(-90.0, -0.3470931128996357, -8.897180412467276e-2)"><polyline points="-0.3470931128996357,-7.397180412467276e-2
-0.3470931128996357,-0.10397180412467276"/></g><g transform="rotate(-90.0, -0.3470931128996357, -0.18639215290992506)"><polyline points="-0.3470931128996357,-0.17139215290992504
-0.3470931128996357,-0.20139215290992507"/></g><g transform="rotate(-90.0, -0.3470931128996357, -0.28381250169517735)"><polyline points="-0.3470931128996357,-0.26881250169517734
-0.3470931128996357,-0.29881250169517737"/></g><g transform="rotate(-90.0, -0.3470931128996357, -0.38123285048042976)"><polyline points="-0.3470931128996357,-0.36623285048042975
-0.3470931128996357,-0.3962328504804298"/></g></g></g><g class="ticktext"><g fill="#0d0d0d" stroke="none" stroke-width="0.0" font-size="4.3462339549039594e-2" fill-opacity="1.0" text-anchor="end"><text x="-0.37838599737494427" y="0.30997511331928174">0.0</text><text x="-0.37838599737494427" y="0.21255476453402933">2.0</text><text x="-0.37838599737494427" y="0.11513441574877709">4.0</text><text x="-0.37838599737494427" y="1.7714066963524733e-2">6.0</text><text x="-0.37838599737494427" y="-7.970628182172756e-2">8.0</text><text x="-0.37838599737494427" y="-0.17712663060697975">10.0</text><text x="-0.37838599737494427" y="-0.27454697939223227">12.0</text><text x="-0.37838599737494427" y="-0.37196732817748457">14.0</text></g></g><g class="ticklines"><g stroke-opacity="5.0e-2" fill="none" stroke="#0d0d0d" stroke-width="5.0e-3"><polyline points="-0.32101570917021194,0.3007095910163365
0.5586620433023495,0.3007095910163365"/><polyline points="-0.32101570917021194,0.2032892422310842
0.5586620433023495,0.2032892422310842"/><polyline points="-0.32101570917021194,0.10586889344583184
0.5586620433023495,0.10586889344583184"/><polyline points="-0.32101570917021194,8.448544660579538e-3
0.5586620433023495,8.448544660579538e-3"/><polyline points="-0.32101570917021194,-8.897180412467276e-2
0.5586620433023495,-8.897180412467276e-2"/><polyline points="-0.32101570917021194,-0.18639215290992506
0.5586620433023495,-0.18639215290992506"/><polyline points="-0.32101570917021194,-0.28381250169517735
0.5586620433023495,-0.28381250169517735"/><polyline points="-0.32101570917021194,-0.38123285048042976
0.5586620433023495,-0.38123285048042976"/></g></g></g><g class="axisbar"><g stroke-opacity="0.0" fill="#0d0d0d" stroke="#000000" stroke-width="0.0" fill-opacity="0.4"><rect width="3.4769871639231398e-3" x="-0.333185164243943" y="-0.38258056281540354" height="0.6846378661667138"/></g></g></g><g class="axis"><g class="ticks"><g class="tickglyph"><g stroke-opacity="0.4" fill="#0d0d0d" stroke="#0d0d0d" stroke-width="4.0e-3" fill-opacity="0.4"><polyline points="-0.32101570917021194,0.33592527604094424
-0.32101570917021194,0.3059252760409442"/><polyline points="-0.1953474588169889,0.33592527604094424
-0.1953474588169889,0.3059252760409442"/><polyline points="-6.96792084637658e-2,0.33592527604094424
-6.96792084637658e-2,0.3059252760409442"/><polyline points="5.59890418894573e-2,0.33592527604094424
5.59890418894573e-2,0.3059252760409442"/><polyline points="0.18165729224268035,0.33592527604094424
0.18165729224268035,0.3059252760409442"/><polyline points="0.30732554259590317,0.33592527604094424
0.30732554259590317,0.3059252760409442"/><polyline points="0.43299379294912654,0.33592527604094424
0.43299379294912654,0.3059252760409442"/><polyline points="0.5586620433023495,0.33592527604094424
0.5586620433023495,0.3059252760409442"/></g></g><g class="ticktext"><g fill="#0d0d0d" stroke="none" stroke-width="0.0" font-size="4.3462339549039594e-2" fill-opacity="1.0" text-anchor="end"><text x="-0.32101570917021194" y="0.36371514267636385" transform="rotate(-45.0, -0.32101570917021194, 0.36371514267636385)">0.0</text><text x="-0.1953474588169889" y="0.36371514267636385" transform="rotate(-45.0, -0.1953474588169889, 0.36371514267636385)">2.0</text><text x="-6.96792084637658e-2" y="0.36371514267636385" transform="rotate(-45.0, -6.96792084637658e-2, 0.36371514267636385)">4.0</text><text x="5.59890418894573e-2" y="0.36371514267636385" transform="rotate(-45.0, 5.59890418894573e-2, 0.36371514267636385)">6.0</text><text x="0.18165729224268035" y="0.36371514267636385" transform="rotate(-45.0, 0.18165729224268035, 0.36371514267636385)">8.0</text><text x="0.30732554259590317" y="0.36371514267636385" transform="rotate(-45.0, 0.30732554259590317, 0.36371514267636385)">10.0</text><text x="0.43299379294912654" y="0.36371514267636385" transform="rotate(-45.0, 0.43299379294912654, 0.36371514267636385)">12.0</text><text x="0.5586620433023495" y="0.36371514267636385" transform="rotate(-45.0, 0.5586620433023495, 0.36371514267636385)">14.0</text></g></g><g class="ticklines"><g stroke-opacity="5.0e-2" fill="none" stroke="#0d0d0d" stroke-width="5.0e-3"><polyline points="-0.32101570917021194,0.3007095910163365
-0.32101570917021194,-0.38123285048042976"/><polyline points="-0.1953474588169889,0.3007095910163365
-0.1953474588169889,-0.38123285048042976"/><polyline points="-6.96792084637658e-2,0.3007095910163365
-6.96792084637658e-2,-0.38123285048042976"/><polyline points="5.59890418894573e-2,0.3007095910163365
5.59890418894573e-2,-0.38123285048042976"/><polyline points="0.18165729224268035,0.3007095910163365
0.18165729224268035,-0.38123285048042976"/><polyline points="0.30732554259590317,0.3007095910163365
0.30732554259590317,-0.38123285048042976"/><polyline points="0.43299379294912654,0.3007095910163365
0.43299379294912654,-0.38123285048042976"/><polyline points="0.5586620433023495,0.3007095910163365
0.5586620433023495,-0.38123285048042976"/></g></g></g><g class="axisbar"><g stroke-opacity="0.0" fill="#0d0d0d" stroke="#000000" stroke-width="0.0" fill-opacity="0.4"><rect width="0.8831547396364845" x="-0.3227542027521735" y="0.30744815269120573" height="2.6954246699476547e-3"/></g></g></g><g class="title"><g fill="#0d0d0d" stroke="none" stroke-width="0.0" font-size="8.692467909807919e-2" fill-opacity="1.0" text-anchor="middle"><text x="5.563179462277068e-2" y="-0.446091506601046">subchart example</text></g></g><g class="title"><g fill="#0d0d0d" stroke="none" stroke-width="0.0" font-size="6.953974327846335e-2" fill-opacity="1.0" text-anchor="middle"><text x="5.563179462277068e-2" y="0.48382745198031385">x axis title</text></g></g><g class="title"><g fill="#0d0d0d" stroke="none" stroke-width="0.0" font-size="6.953974327846335e-2" fill-opacity="1.0" text-anchor="middle"><text x="-0.5122500031859862" y="7.412417842356189e-3" transform="rotate(-90.0, -0.5122500031859862, 7.412417842356189e-3)">y axis title</text></g></g><g class="legend"><g class="legendBorder"><g stroke-opacity="1.0" fill="#b2de8a" stroke="#fcfcfc" stroke-width="5.0e-3" fill-opacity="5.0e-2"><rect width="0.43500000000000005" x="0.6428817978087569" y="-0.2979709374578283" height="0.34500000000000003"/></g></g><g class="legendContent"><g><g fill="#0d0d0d" stroke="none" stroke-width="0.0" font-size="5.0e-2" fill-opacity="1.0" text-anchor="start"><text x="0.6678817978087569" y="7.029062542171718e-3">addLineY</text></g><g stroke-opacity="0.3" fill="none" stroke="#33a12b" stroke-dasharray="4.0e-2 1.0e-2" stroke-width="1.0e-2"><polyline points="0.897881797808757,-5.470937457828284e-3
1.047881797808757,-5.470937457828284e-3"/></g><g fill="#0d0d0d" stroke="none" stroke-width="0.0" font-size="5.0e-2" fill-opacity="1.0" text-anchor="start"><text x="0.6678817978087569" y="-7.29709374578283e-2">addLineX</text></g><g stroke-opacity="0.3" fill="none" stroke="#ff8000" stroke-dasharray="1.0e-2" stroke-width="1.0e-2"><polyline points="0.897881797808757,-8.54709374578283e-2
1.047881797808757,-8.54709374578283e-2"/></g><g fill="#0d0d0d" stroke="none" stroke-width="0.0" font-size="5.0e-2" fill-opacity="1.0" text-anchor="start"><text x="0.6678817978087569" y="-0.1529709374578283">yify</text></g><g stroke-opacity="1.0" fill="none" stroke="#33a12b" stroke-width="1.0e-2"><polyline points="0.897881797808757,-0.16547093745782832
1.047881797808757,-0.16547093745782832"/></g><g fill="#0d0d0d" stroke="none" stroke-width="0.0" font-size="5.0e-2" fill-opacity="1.0" text-anchor="start"><text x="0.6678817978087569" y="-0.2329709374578283">xify</text></g><g stroke-opacity="1.0" fill="none" stroke="#ff8000" stroke-width="1.0e-2"><polyline points="0.897881797808757,-0.2454709374578283
1.047881797808757,-0.2454709374578283"/></g></g></g></g></g></svg>