<svg width="524.7671076959326" xmlns:xlink="http://www.w3.org/1999/xlink" xmlns="http://www.w3.org/2000/svg" viewBox="-0.942409244818286 -0.5413991658138613 1.8725584290241166 1.0705082701805724" height="300.0"><style>svg {
  color-scheme: light dark;
}
@media (prefers-color-scheme:dark) {
  svg {
    background-color: #f0f0f0;
  }
}</style><g></g><g stroke-opacity="1.0" fill="#b2de8a" stroke="#fcfcfc" stroke-width="5.0e-3" fill-opacity="5.0e-2"><rect width="0.3155346928280285" x="0.5887712563254314" y="-0.16126776021594957" height="0.19192196257104738"/></g><g fill="#0d0d0d" stroke="none" stroke-width="0.0" font-size="2.5e-2" fill-opacity="1.0" text-anchor="start"><text x="0.6082487065000012" y="3.554110417982259e-3">addLineY</text></g><g stroke-opacity="0.3" fill="none" stroke="#33a12b" stroke-dasharray="4.0e-2 1.0e-2" stroke-width="1.0e-2"><polyline points="0.7640683078965583,-0.0
0.8809330089439761,-0.0"/></g><g fill="#0d0d0d" stroke="none" stroke-width="0.0" font-size="2.5e-2" fill-opacity="1.0" text-anchor="start"><text x="0.6082487065000012" y="-3.998374220230161e-2">addLineX</text></g><g stroke-opacity="0.3" fill="none" stroke="#ff8000" stroke-dasharray="1.0e-2" stroke-width="1.0e-2"><polyline points="0.7640683078965583,-4.353785262028398e-2
0.8809330089439761,-4.353785262028398e-2"/></g><g fill="#0d0d0d" stroke="none" stroke-width="0.0" font-size="2.5e-2" fill-opacity="1.0" text-anchor="start"><text x="0.6082487065000012" y="-8.352159482258548e-2">yify</text></g><g stroke-opacity="1.0" fill="none" stroke="#33a12b" stroke-width="1.0e-2"><polyline points="0.7640683078965583,-8.707570524056785e-2
0.8809330089439761,-8.707570524056785e-2"/></g><g fill="#0d0d0d" stroke="none" stroke-width="0.0" font-size="2.5e-2" fill-opacity="1.0" text-anchor="start"><text x="0.6082487065000012" y="-0.12705944744286934">xify</text></g><g stroke-opacity="1.0" fill="none" stroke="#ff8000" stroke-width="1.0e-2"><polyline points="0.7640683078965583,-0.13061355786085171
0.8809330089439761,-0.13061355786085171"/></g><g fill="#0d0d0d" stroke="none" stroke-width="0.0" font-size="6.0e-2" fill-opacity="1.0" text-anchor="middle"><text x="-0.866909244818286" y="-3.554110417982592e-4" transform="rotate(-90.0, -0.866909244818286, -3.554110417982592e-4)">y axis title</text></g><g fill="#0d0d0d" stroke="none" stroke-width="0.0" font-size="6.0e-2" fill-opacity="1.0" text-anchor="middle"><text x="-0.19555359975267916" y="0.47760910436671117">x axis title</text></g><g fill="#0d0d0d" stroke="none" stroke-width="0.0" font-size="8.0e-2" fill-opacity="1.0" text-anchor="middle"><text x="-0.19555359975267916" y="-0.4473991658138613">subchart example</text></g><g stroke-opacity="5.0e-2" fill="none" stroke="#0d0d0d" stroke-width="5.0e-3"><polyline points="-0.742985915827604,0.3138156479983879
0.42566109464657476,0.3138156479983879"/><polyline points="-0.742985915827604,0.2123566009535019
0.42566109464657476,0.2123566009535019"/><polyline points="-0.742985915827604,0.11089755390861578
0.42566109464657476,0.11089755390861578"/><polyline points="-0.742985915827604,9.438506863729712e-3
0.42566109464657476,9.438506863729712e-3"/><polyline points="-0.742985915827604,-9.202054018115624e-2
0.42566109464657476,-9.202054018115624e-2"/><polyline points="-0.742985915827604,-0.1934795872260423
0.42566109464657476,-0.1934795872260423"/><polyline points="-0.742985915827604,-0.29493863427092837
0.42566109464657476,-0.29493863427092837"/><polyline points="-0.742985915827604,-0.39639768131581443
0.42566109464657476,-0.39639768131581443"/></g><g fill="#0d0d0d" stroke="none" stroke-width="0.0" font-size="5.0e-2" fill-opacity="1.0" text-anchor="end"><text x="-0.7967904241898351" y="0.32412256821053675">0</text><text x="-0.7967904241898351" y="0.22266352116565075">2</text><text x="-0.7967904241898351" y="0.12120447412076468">4</text><text x="-0.7967904241898351" y="1.974542707587862e-2">6</text><text x="-0.7967904241898351" y="-8.17136199690075e-2">8</text><text x="-0.7967904241898351" y="-0.18317266701389345">10</text><text x="-0.7967904241898351" y="-0.2846317140587795">12</text><text x="-0.7967904241898351" y="-0.3860907611036656">14</text></g><g stroke-opacity="0.4" fill="#0d0d0d" stroke="#0d0d0d" stroke-width="4.0e-3" fill-opacity="0.4"><g transform="rotate(-90.0, -0.7718125420859671, 0.3138156479983879)"><polyline points="-0.7718125420859671,0.3288156479983879
-0.7718125420859671,0.2988156479983879"/></g><g transform="rotate(-90.0, -0.7718125420859671, 0.2123566009535019)"><polyline points="-0.7718125420859671,0.2273566009535019
-0.7718125420859671,0.19735660095350188"/></g><g transform="rotate(-90.0, -0.7718125420859671, 0.11089755390861578)"><polyline points="-0.7718125420859671,0.1258975539086158
-0.7718125420859671,9.589755390861578e-2"/></g><g transform="rotate(-90.0, -0.7718125420859671, 9.438506863729712e-3)"><polyline points="-0.7718125420859671,2.443850686372971e-2
-0.7718125420859671,-5.561493136270287e-3"/></g><g transform="rotate(-90.0, -0.7718125420859671, -9.202054018115624e-2)"><polyline points="-0.7718125420859671,-7.702054018115624e-2
-0.7718125420859671,-0.10702054018115624"/></g><g transform="rotate(-90.0, -0.7718125420859671, -0.1934795872260423)"><polyline points="-0.7718125420859671,-0.1784795872260423
-0.7718125420859671,-0.20847958722604232"/></g><g transform="rotate(-90.0, -0.7718125420859671, -0.29493863427092837)"><polyline points="-0.7718125420859671,-0.27993863427092835
-0.7718125420859671,-0.3099386342709284"/></g><g transform="rotate(-90.0, -0.7718125420859671, -0.39639768131581443)"><polyline points="-0.7718125420859671,-0.3813976813158144
-0.7718125420859671,-0.41139768131581445"/></g></g><g stroke-opacity="0.0" fill="#0d0d0d" stroke="#000000" stroke-width="0.0" fill-opacity="0.4"><rect width="3.1163920279311252e-3" x="-0.7585678759672597" y="-0.398123702624142" height="0.7136653719308576"/></g><g stroke-opacity="5.0e-2" fill="none" stroke="#0d0d0d" stroke-width="5.0e-3"><polyline points="-0.7424854960400757,0.31412002513952264
-0.7424854960400757,-0.39670205845694906"/><polyline points="-0.5756789001973441,0.31412002513952264
-0.5756789001973441,-0.39670205845694906"/><polyline points="-0.4088723043546123,0.31412002513952264
-0.4088723043546123,-0.39670205845694906"/><polyline points="-0.24206570851188047,0.31412002513952264
-0.24206570851188047,-0.39670205845694906"/><polyline points="-7.525911266914886e-2,0.31412002513952264
-7.525911266914886e-2,-0.39670205845694906"/><polyline points="9.154748317358308e-2,0.31412002513952264
9.154748317358308e-2,-0.39670205845694906"/><polyline points="0.2583540790163147,0.31412002513952264
0.2583540790163147,-0.39670205845694906"/><polyline points="0.4251606748590465,0.31412002513952264
0.4251606748590465,-0.39670205845694906"/></g><g fill="#0d0d0d" stroke="none" stroke-width="0.0" font-size="5.0e-2" fill-opacity="1.0" text-anchor="middle"><text x="-0.7424854960400757" y="0.3995963806919984">0</text><text x="-0.5756789001973441" y="0.3995963806919984">2</text><text x="-0.4088723043546123" y="0.3995963806919984">4</text><text x="-0.24206570851188047" y="0.3995963806919984">6</text><text x="-7.525911266914886e-2" y="0.3995963806919984">8</text><text x="9.154748317358308e-2" y="0.3995963806919984">10</text><text x="0.2583540790163147" y="0.3995963806919984">12</text><text x="0.4251606748590465" y="0.3995963806919984">14</text></g><g stroke-opacity="0.4" fill="#0d0d0d" stroke="#0d0d0d" stroke-width="4.0e-3" fill-opacity="0.4"><polyline points="-0.7424854960400757,0.35542044223259206
-0.7424854960400757,0.32542044223259203"/><polyline points="-0.5756789001973441,0.35542044223259206
-0.5756789001973441,0.32542044223259203"/><polyline points="-0.4088723043546123,0.35542044223259206
-0.4088723043546123,0.32542044223259203"/><polyline points="-0.24206570851188047,0.35542044223259206
-0.24206570851188047,0.32542044223259203"/><polyline points="-7.525911266914886e-2,0.35542044223259206
-7.525911266914886e-2,0.32542044223259203"/><polyline points="9.154748317358308e-2,0.35542044223259206
9.154748317358308e-2,0.32542044223259203"/><polyline points="0.2583540790163147,0.35542044223259206
0.2583540790163147,0.32542044223259203"/><polyline points="0.4251606748590465,0.35542044223259206
0.4251606748590465,0.32542044223259203"/></g><g stroke-opacity="0.0" fill="#0d0d0d" stroke="#000000" stroke-width="0.0" fill-opacity="0.4"><rect width="1.1717634025021098" x="-0.7445441118415695" y="0.32549317847706616" height="2.8432883343858517e-3"/></g><g stroke-opacity="1.0" fill="none" stroke="#33a12b" stroke-width="1.2e-2"><polyline points="-0.6590821981187099,0.3138156479983879
-0.5756789001973441,0.2630861244759449
-0.15866241059051467,0.2123566009535019
-0.49227560227597816,0.16162707743105886
0.3417573769376806,0.11089755390861578
0.4251606748590465,6.0168030386172855e-2"/></g><g stroke-opacity="1.0" fill="none" stroke="#ff8000" stroke-width="1.2e-2"><polyline points="-0.7424854960400757,0.2630861244759449
-0.6590821981187099,0.2123566009535019
-0.5756789001973441,-4.1291016658713264e-2
-0.49227560227597816,0.16162707743105886
-0.4088723043546123,-0.34566815779337146
-0.3254690064332464,-0.39639768131581443"/></g><g stroke-opacity="0.3" fill="none" stroke="#33a12b" stroke-dasharray="4.0e-2 1.0e-2" stroke-width="1.2e-2"><polyline points="-0.742985915827604,0.16162707743105886
0.42566109464657476,0.16162707743105886"/></g><g stroke-opacity="0.3" fill="none" stroke="#ff8000" stroke-dasharray="1.0e-2" stroke-width="1.2e-2"><polyline points="-0.3254690064332464,0.31412002513952264
-0.3254690064332464,-0.39670205845694906"/></g></svg>