<svg xmlns="http://www.w3.org/2000/svg" width="455.3518163907864" xmlns:xlink="http://www.w3.org/1999/xlink" viewBox="-0.7378353073886069 -0.48479413423575857 1.4878353073886068 0.9802323745064861" height="300.0"><style>svg {
  color-scheme: light dark;
}
{
  .canvas g, .title g, .axisbar g, .ticktext g, .tickglyph g, .ticklines g, .legendContent g text {
    fill: #0d0d0d;
  }
  .ticklines g, .tickglyph g, .legendBorder g {
    stroke: #0d0d0d;
  }
}
@media (prefers-color-scheme:dark) {
  .canvas g, .title g, .axisbar g, .ticktext g, .tickglyph g, .ticklines g, .legendContent g text {
    fill: #f0f0f0;
  }
  .ticklines g, .tickglyph g, .legendBorder g {
    stroke: #f0f0f0;
  }
}</style><g class="chart"><g class="xline"><g fill="none" stroke="rgb(2%, 73%, 80%)" stroke-width="1.2e-2" stroke-opacity="1.0"><polyline points="-0.5029565707839819,0.27841414717626917
-0.4161787124325196,0.22973569119604478
-0.3294008540810571,-1.3656588705077077e-2
-0.24262299572959473,0.1810572352158204
-0.15584513737813244,-0.30572732458642315
-6.906727902667009e-2,-0.3544057805666476"/></g></g><g class="yline"><g fill="none" stroke="rgb(2%, 29%, 48%)" stroke-width="1.2e-2" stroke-opacity="1.0"><polyline points="-0.4161787124325196,0.3270926031564935
-0.3294008540810571,0.27841414717626917
0.10448843767625482,0.22973569119604478
-0.24262299572959473,0.1810572352158204
0.6251555877850293,0.1323787792355961
0.7119334461364916,8.370032325537174e-2"/></g></g><g class="addlinex"><g fill="none" stroke="rgb(2%, 73%, 80%)" stroke-dasharray="1.0e-2" stroke-width="1.2e-2" stroke-opacity="0.4"><polyline points="-0.5029565707839819,0.1810572352158204
0.7119334461364916,0.1810572352158204"/></g></g><g class="addliney"><g fill="none" stroke="rgb(2%, 29%, 48%)" stroke-dasharray="4.0e-2 1.0e-2" stroke-width="1.2e-2" stroke-opacity="0.4"><polyline points="-6.906727902667009e-2,0.3270926031564935
-6.906727902667009e-2,-0.3544057805666476"/></g></g></g><g class="hud"><g class="axis"><g class="ticks"><g class="tickglyph"><g fill="rgb(5%, 5%, 5%)" stroke="rgb(5%, 5%, 5%)" stroke-width="4.0e-3" fill-opacity="0.4" stroke-opacity="0.4"><g transform="rotate(-90.0, -0.5321139311900733, 0.3270926031564935)"><polyline points="-0.5321139311900733,0.34209260315649354
-0.5321139311900733,0.3120926031564935"/></g><g transform="rotate(-90.0, -0.5321139311900733, 0.22973569119604478)"><polyline points="-0.5321139311900733,0.24473569119604477
-0.5321139311900733,0.2147356911960448"/></g><g transform="rotate(-90.0, -0.5321139311900733, 0.1323787792355961)"><polyline points="-0.5321139311900733,0.1473787792355961
-0.5321139311900733,0.1173787792355961"/></g><g transform="rotate(-90.0, -0.5321139311900733, 3.502186727514728e-2)"><polyline points="-0.5321139311900733,5.002186727514728e-2
-0.5321139311900733,2.002186727514728e-2"/></g><g transform="rotate(-90.0, -0.5321139311900733, -6.233504468530138e-2)"><polyline points="-0.5321139311900733,-4.733504468530138e-2
-0.5321139311900733,-7.733504468530138e-2"/></g><g transform="rotate(-90.0, -0.5321139311900733, -0.1596919566457501)"><polyline points="-0.5321139311900733,-0.14469195664575007
-0.5321139311900733,-0.1746919566457501"/></g><g transform="rotate(-90.0, -0.5321139311900733, -0.257048868606199)"><polyline points="-0.5321139311900733,-0.242048868606199
-0.5321139311900733,-0.27204886860619903"/></g><g transform="rotate(-90.0, -0.5321139311900733, -0.3544057805666476)"><polyline points="-0.5321139311900733,-0.3394057805666476
-0.5321139311900733,-0.36940578056664763"/></g></g></g><g class="ticktext"><g fill="rgb(5%, 5%, 5%)" stroke="none" stroke-width="0.0" font-size="4.049633389734913e-2" fill-opacity="1.0" text-anchor="end"><text x="-0.5612712915961647" y="0.33646320593268675"> 0.0</text><text x="-0.5612712915961647" y="0.23910629397223798"> 2.0</text><text x="-0.5612712915961647" y="0.14174938201178927"> 4.0</text><text x="-0.5612712915961647" y="4.4392470051340505e-2"> 6.0</text><text x="-0.5612712915961647" y="-5.2964441909108206e-2"> 8.0</text><text x="-0.5612712915961647" y="-0.15032135386955692">10.0</text><text x="-0.5612712915961647" y="-0.24767826583000574">12.0</text><text x="-0.5612712915961647" y="-0.34503517779045456">14.0</text></g></g><g class="ticklines"><g fill="none" stroke="rgb(5%, 5%, 5%)" stroke-width="5.0e-3" stroke-opacity="5.0e-2"><polyline points="-0.5029565707839819,0.3270926031564935
0.7119334461364916,0.3270926031564935"/><polyline points="-0.5029565707839819,0.22973569119604478
0.7119334461364916,0.22973569119604478"/><polyline points="-0.5029565707839819,0.1323787792355961
0.7119334461364916,0.1323787792355961"/><polyline points="-0.5029565707839819,3.502186727514728e-2
0.7119334461364916,3.502186727514728e-2"/><polyline points="-0.5029565707839819,-6.233504468530138e-2
0.7119334461364916,-6.233504468530138e-2"/><polyline points="-0.5029565707839819,-0.1596919566457501
0.7119334461364916,-0.1596919566457501"/><polyline points="-0.5029565707839819,-0.257048868606199
0.7119334461364916,-0.257048868606199"/><polyline points="-0.5029565707839819,-0.3544057805666476
0.7119334461364916,-0.3544057805666476"/></g></g></g><g class="axisbar"><g fill="rgb(5%, 5%, 5%)" stroke="rgb(0%, 0%, 0%)" stroke-width="0.0" fill-opacity="0.4" stroke-opacity="0.0"><rect x="-0.5191551043429217" width="3.2397067117879708e-3" y="-0.35576877733409396" height="0.6842243772580338"/></g></g></g><g class="axis"><g class="ticks"><g class="tickglyph"><g fill="rgb(5%, 5%, 5%)" stroke="rgb(5%, 5%, 5%)" stroke-width="4.0e-3" fill-opacity="0.4" stroke-opacity="0.4"><polyline points="-0.5029565707839819,0.36662654497052666
-0.5029565707839819,0.33662654497052663"/><polyline points="-0.3294008540810571,0.36662654497052666
-0.3294008540810571,0.33662654497052663"/><polyline points="-0.15584513737813244,0.36662654497052666
-0.15584513737813244,0.33662654497052663"/><polyline points="1.7710579324792475e-2,0.36662654497052666
1.7710579324792475e-2,0.33662654497052663"/><polyline points="0.19126629602771716,0.36662654497052666
0.19126629602771716,0.33662654497052663"/><polyline points="0.36482201273064174,0.36662654497052666
0.36482201273064174,0.33662654497052663"/><polyline points="0.5383777294335667,0.36662654497052666
0.5383777294335667,0.33662654497052663"/><polyline points="0.7119334461364916,0.36662654497052666
0.7119334461364916,0.33662654497052663"/></g></g><g class="ticktext"><g fill="rgb(5%, 5%, 5%)" stroke="none" stroke-width="0.0" font-size="4.049633389734913e-2" fill-opacity="1.0" text-anchor="middle"><text x="-0.5029565707839819" y="0.3949016923369461"> 0.0</text><text x="-0.3294008540810571" y="0.3949016923369461"> 2.0</text><text x="-0.15584513737813244" y="0.3949016923369461"> 4.0</text><text x="1.7710579324792475e-2" y="0.3949016923369461"> 6.0</text><text x="0.19126629602771716" y="0.3949016923369461"> 8.0</text><text x="0.36482201273064174" y="0.3949016923369461">10.0</text><text x="0.5383777294335667" y="0.3949016923369461">12.0</text><text x="0.7119334461364916" y="0.3949016923369461">14.0</text></g></g><g class="ticklines"><g fill="none" stroke="rgb(5%, 5%, 5%)" stroke-width="5.0e-3" stroke-opacity="5.0e-2"><polyline points="-0.5029565707839819,0.3270926031564935
-0.5029565707839819,-0.3544057805666476"/><polyline points="-0.3294008540810571,0.3270926031564935
-0.3294008540810571,-0.3544057805666476"/><polyline points="-0.15584513737813244,0.3270926031564935
-0.15584513737813244,-0.3544057805666476"/><polyline points="1.7710579324792475e-2,0.3270926031564935
1.7710579324792475e-2,-0.3544057805666476"/><polyline points="0.19126629602771716,0.3270926031564935
0.19126629602771716,-0.3544057805666476"/><polyline points="0.36482201273064174,0.3270926031564935
0.36482201273064174,-0.3544057805666476"/><polyline points="0.5383777294335667,0.3270926031564935
0.5383777294335667,-0.3544057805666476"/><polyline points="0.7119334461364916,0.3270926031564935
0.7119334461364916,-0.3544057805666476"/></g></g></g><g class="axisbar"><g fill="rgb(5%, 5%, 5%)" stroke="rgb(0%, 0%, 0%)" stroke-width="0.0" fill-opacity="0.4" stroke-opacity="0.0"><rect x="-0.5045764241398759" width="1.2181297236322617" y="0.3379965772960638" height="2.725993534892557e-3"/></g></g></g><g class="title"><g fill="rgb(5%, 5%, 5%)" stroke="none" stroke-width="0.0" font-size="8.099266779469826e-2" fill-opacity="1.0" text-anchor="middle"><text x="5.710772701635647e-2" y="-0.41999999999999993">subchart example</text></g></g><g class="title"><g fill="rgb(5%, 5%, 5%)" stroke="none" stroke-width="0.0" font-size="6.47941342357586e-2" fill-opacity="1.0" text-anchor="middle"><text x="5.710772701635647e-2" y="0.476">x axis title</text></g></g><g class="title"><g fill="rgb(5%, 5%, 5%)" stroke="none" stroke-width="0.0" font-size="6.47941342357586e-2" fill-opacity="1.0" text-anchor="middle"><text x="-0.686" y="1.6414527476706575e-2" transform="rotate(-90.0, -0.686, 1.6414527476706575e-2)">y axis title</text></g></g><g class="legend"><g class="legendBorder"><g fill="rgb(100%, 71%, 35%)" stroke="rgb(100%, 71%, 35%)" stroke-width="5.0e-3" fill-opacity="5.0e-2" stroke-opacity="1.0"><rect x="0.4082109419063732" width="0.33773942470389207" y="-0.4043255371743678" height="0.22012397794257466"/></g></g><g class="legendContent"><g fill="rgb(5%, 5%, 5%)" stroke="none" stroke-width="0.0" font-size="3.644670050761421e-2" fill-opacity="1.0" text-anchor="start"><text x="0.4284591088550479" y="-0.21043924700513417">addLineY</text></g><g fill="none" stroke="rgb(2%, 29%, 48%)" stroke-dasharray="4.0e-2 1.0e-2" stroke-width="1.0e-2" stroke-opacity="0.4"><polyline points="0.6001635645798081,-0.21810610382201945
0.7216525662718555,-0.21810610382201945"/></g><g fill="rgb(5%, 5%, 5%)" stroke="none" stroke-width="0.0" font-size="3.644670050761421e-2" fill-opacity="1.0" text-anchor="start"><text x="0.4284591088550479" y="-0.2612108765925082">addLineX</text></g><g fill="none" stroke="rgb(2%, 73%, 80%)" stroke-dasharray="1.0e-2" stroke-width="1.0e-2" stroke-opacity="0.4"><polyline points="0.6001635645798081,-0.2688777334093936
0.7216525662718555,-0.2688777334093936"/></g><g fill="rgb(5%, 5%, 5%)" stroke="none" stroke-width="0.0" font-size="3.644670050761421e-2" fill-opacity="1.0" text-anchor="start"><text x="0.4284591088550479" y="-0.311982506179882">yify</text></g><g fill="none" stroke="rgb(2%, 29%, 48%)" stroke-width="1.0e-2" stroke-opacity="1.0"><polyline points="0.6001635645798081,-0.3196493629967676
0.7216525662718555,-0.3196493629967676"/></g><g fill="rgb(5%, 5%, 5%)" stroke="none" stroke-width="0.0" font-size="3.644670050761421e-2" fill-opacity="1.0" text-anchor="start"><text x="0.4284591088550479" y="-0.362754135767256">xify</text></g><g fill="none" stroke="rgb(2%, 73%, 80%)" stroke-width="1.0e-2" stroke-opacity="1.0"><polyline points="0.6001635645798081,-0.3704209925841414
0.7216525662718555,-0.3704209925841414"/></g></g></g></g></svg>