<svg width="459.6307457839999" xmlns:xlink="http://www.w3.org/1999/xlink" xmlns="http://www.w3.org/2000/svg" viewBox="-0.7284498845265589 -0.47306235565819854 1.4784498845265588 0.9649810623556581" height="300.0"><style>svg {
  color-scheme: light dark;
}
{
  .canvas g, .title g, .axisbar g, .ticktext g, .tickglyph g, .ticklines g, .legendContent g text {
    fill: #0d0d0d;
  }
  .ticklines g, .tickglyph g, .legendBorder g {
    stroke: #0d0d0d;
  }
}
@media (prefers-color-scheme:dark) {
  .canvas g, .title g, .axisbar g, .ticktext g, .tickglyph g, .ticklines g, .legendContent g text {
    fill: #f0f0f0;
  }
  .ticklines g, .tickglyph g, .legendBorder g {
    stroke: #f0f0f0;
  }
}</style><g class="chart"><g><g class="xline"><g stroke-opacity="1.0" fill="none" stroke="#ff8000" stroke-width="1.2e-2"><polyline points="-0.5400785219399538,0.28161604584527217
-0.4690128670405807,0.2327144221585482
-0.39794721214120754,-1.1793696275071597e-2
-0.32688155724183443,0.1838127984718242
-0.25581590234246127,-0.3052034383954153
-0.1847502474430882,-0.3541050620821393"/></g></g><g class="yline"><g stroke-opacity="1.0" fill="none" stroke="#33a12b" stroke-width="1.2e-2"><polyline points="-0.4690128670405807,0.3305176695319961
-0.39794721214120754,0.28161604584527217
-4.261893764434188e-2,0.2327144221585482
-0.32688155724183443,0.1838127984718242
0.383774991751897,0.13491117478510029
0.4548406466512701,8.600955109837632e-2"/></g></g><g class="addlinex"><g stroke-opacity="0.3" fill="none" stroke="#33a12b" stroke-dasharray="4.0e-2 1.0e-2" stroke-width="1.2e-2"><polyline points="-0.5400785219399538,0.1838127984718242
0.4548406466512701,0.1838127984718242"/></g></g><g class="addliney"><g stroke-opacity="0.3" fill="none" stroke="#33a12b" stroke-dasharray="4.0e-2 1.0e-2" stroke-width="1.2e-2"><polyline points="-0.1847502474430882,0.3305176695319961
-0.1847502474430882,-0.3541050620821393"/></g></g></g></g><g class="hud"><g class="axis"><g class="ticks"><g class="tickglyph"><g stroke-opacity="0.4" fill="#0d0d0d" stroke="#0d0d0d" stroke-width="4.0e-3" fill-opacity="0.4"><g transform="rotate(-90.0, -0.5599769053117784, 0.3305176695319961)"><polyline points="-0.5599769053117784,0.34551766953199614
-0.5599769053117784,0.3155176695319961"/></g><g transform="rotate(-90.0, -0.5599769053117784, 0.2327144221585482)"><polyline points="-0.5599769053117784,0.24771442215854822
-0.5599769053117784,0.2177144221585482"/></g><g transform="rotate(-90.0, -0.5599769053117784, 0.13491117478510029)"><polyline points="-0.5599769053117784,0.1499111747851003
-0.5599769053117784,0.11991117478510029"/></g><g transform="rotate(-90.0, -0.5599769053117784, 3.710792741165231e-2)"><polyline points="-0.5599769053117784,5.210792741165231e-2
-0.5599769053117784,2.210792741165231e-2"/></g><g transform="rotate(-90.0, -0.5599769053117784, -6.069531996179556e-2)"><polyline points="-0.5599769053117784,-4.569531996179556e-2
-0.5599769053117784,-7.569531996179556e-2"/></g><g transform="rotate(-90.0, -0.5599769053117784, -0.15849856733524337)"><polyline points="-0.5599769053117784,-0.14349856733524335
-0.5599769053117784,-0.17349856733524338"/></g><g transform="rotate(-90.0, -0.5599769053117784, -0.2563018147086913)"><polyline points="-0.5599769053117784,-0.24130181470869128
-0.5599769053117784,-0.2713018147086913"/></g><g transform="rotate(-90.0, -0.5599769053117784, -0.3541050620821393)"><polyline points="-0.5599769053117784,-0.3391050620821393
-0.5599769053117784,-0.36910506208213933"/></g></g></g><g class="ticktext"><g fill="#0d0d0d" stroke="none" stroke-width="0.0" font-size="3.316397228637413e-2" fill-opacity="1.0" text-anchor="end"><text x="-0.5838549653579677" y="0.3399312320916905">0.0</text><text x="-0.5838549653579677" y="0.2421279847182425">2.0</text><text x="-0.5838549653579677" y="0.14432473734479467">4.0</text><text x="-0.5838549653579677" y="4.652148997134675e-2">6.0</text><text x="-0.5838549653579677" y="-5.128175740210117e-2">8.0</text><text x="-0.5838549653579677" y="-0.14908500477554898">10.0</text><text x="-0.5838549653579677" y="-0.246888252148997">12.0</text><text x="-0.5838549653579677" y="-0.34469149952244504">14.0</text></g></g><g class="ticklines"><g stroke-opacity="5.0e-2" fill="none" stroke="#0d0d0d" stroke-width="5.0e-3"><polyline points="-0.5400785219399538,0.3305176695319961
0.4548406466512701,0.3305176695319961"/><polyline points="-0.5400785219399538,0.2327144221585482
0.4548406466512701,0.2327144221585482"/><polyline points="-0.5400785219399538,0.13491117478510029
0.4548406466512701,0.13491117478510029"/><polyline points="-0.5400785219399538,3.710792741165231e-2
0.4548406466512701,3.710792741165231e-2"/><polyline points="-0.5400785219399538,-6.069531996179556e-2
0.4548406466512701,-6.069531996179556e-2"/><polyline points="-0.5400785219399538,-0.15849856733524337
0.4548406466512701,-0.15849856733524337"/><polyline points="-0.5400785219399538,-0.2563018147086913
0.4548406466512701,-0.2563018147086913"/><polyline points="-0.5400785219399538,-0.3541050620821393
0.4548406466512701,-0.3541050620821393"/></g></g></g><g class="axisbar"><g stroke-opacity="0.0" fill="#0d0d0d" stroke="#000000" stroke-width="0.0" fill-opacity="0.4"><rect width="2.6531177829099972e-3" x="-0.5493644341801386" y="-0.3554743075453677" height="0.6873612225405921"/></g></g></g><g class="axis"><g class="ticks"><g class="tickglyph"><g stroke-opacity="0.4" fill="#0d0d0d" stroke="#0d0d0d" stroke-width="4.0e-3" fill-opacity="0.4"><polyline points="-0.5400785219399538,0.3660563514804202
-0.5400785219399538,0.3360563514804202"/><polyline points="-0.39794721214120754,0.3660563514804202
-0.39794721214120754,0.3360563514804202"/><polyline points="-0.25581590234246127,0.3660563514804202
-0.25581590234246127,0.3360563514804202"/><polyline points="-0.11368459254371499,0.3660563514804202
-0.11368459254371499,0.3360563514804202"/><polyline points="2.844671725503123e-2,0.3660563514804202
2.844671725503123e-2,0.3360563514804202"/><polyline points="0.17057802705377745,0.3660563514804202
0.17057802705377745,0.3360563514804202"/><polyline points="0.3127093368525239,0.3660563514804202
0.3127093368525239,0.3360563514804202"/><polyline points="0.4548406466512701,0.3660563514804202
0.4548406466512701,0.3360563514804202"/></g></g><g class="ticktext"><g fill="#0d0d0d" stroke="none" stroke-width="0.0" font-size="3.316397228637413e-2" fill-opacity="1.0" text-anchor="middle"><text x="-0.5400785219399538" y="0.3945298949379178">0.0</text><text x="-0.39794721214120754" y="0.3945298949379178">2.0</text><text x="-0.25581590234246127" y="0.3945298949379178">4.0</text><text x="-0.11368459254371499" y="0.3945298949379178">6.0</text><text x="2.844671725503123e-2" y="0.3945298949379178">8.0</text><text x="0.17057802705377745" y="0.3945298949379178">10.0</text><text x="0.3127093368525239" y="0.3945298949379178">12.0</text><text x="0.4548406466512701" y="0.3945298949379178">14.0</text></g></g><g class="ticklines"><g stroke-opacity="5.0e-2" fill="none" stroke="#0d0d0d" stroke-width="5.0e-3"><polyline points="-0.5400785219399538,0.3305176695319961
-0.5400785219399538,-0.3541050620821393"/><polyline points="-0.39794721214120754,0.3305176695319961
-0.39794721214120754,-0.3541050620821393"/><polyline points="-0.25581590234246127,0.3305176695319961
-0.25581590234246127,-0.3541050620821393"/><polyline points="-0.11368459254371499,0.3305176695319961
-0.11368459254371499,-0.3541050620821393"/><polyline points="2.844671725503123e-2,0.3305176695319961
2.844671725503123e-2,-0.3541050620821393"/><polyline points="0.17057802705377745,0.3305176695319961
0.17057802705377745,-0.3541050620821393"/><polyline points="0.3127093368525239,0.3305176695319961
0.3127093368525239,-0.3541050620821393"/><polyline points="0.4548406466512701,0.3305176695319961
0.4548406466512701,-0.3541050620821393"/></g></g></g><g class="axisbar"><g stroke-opacity="0.0" fill="#0d0d0d" stroke="#000000" stroke-width="0.0" fill-opacity="0.4"><rect width="0.997572286374134" x="-0.5414050808314088" y="0.3373638968481375" height="2.738490926456505e-3"/></g></g></g><g class="title"><g fill="#0d0d0d" stroke="none" stroke-width="0.0" font-size="6.632794457274827e-2" fill-opacity="1.0" text-anchor="middle"><text x="-7.943094688221708e-2" y="-0.41999999999999993">subchart example</text></g></g><g class="title"><g fill="#0d0d0d" stroke="none" stroke-width="0.0" font-size="5.306235565819861e-2" fill-opacity="1.0" text-anchor="middle"><text x="-7.943094688221708e-2" y="0.476">x axis title</text></g></g><g class="title"><g fill="#0d0d0d" stroke="none" stroke-width="0.0" font-size="5.306235565819861e-2" fill-opacity="1.0" text-anchor="middle"><text x="-0.686" y="1.6361413562559768e-2" transform="rotate(-90.0, -0.686, 1.6361413562559768e-2)">y axis title</text></g></g><g class="legend"><g class="legendBorder"><g stroke-opacity="1.0" fill="#b2de8a" stroke="#fcfcfc" stroke-width="5.0e-3" fill-opacity="5.0e-2"><rect width="0.24077043879907611" x="0.5059131639722864" y="-0.11953619866284615" height="0.17594804202483283"/></g></g><g class="legendContent"><g fill="#0d0d0d" stroke="none" stroke-width="0.0" font-size="1.989838337182448e-2" fill-opacity="1.0" text-anchor="start"><text x="0.5224951501154734" y="3.3134670487106055e-2">addLineY</text></g><g stroke-opacity="0.3" fill="none" stroke="#33a12b" stroke-dasharray="4.0e-2 1.0e-2" stroke-width="1.0e-2"><polyline points="0.6272933025404156,2.8000000000000025e-2
0.7267852193995378,2.8000000000000025e-2"/></g><g fill="#0d0d0d" stroke="none" stroke-width="0.0" font-size="1.989838337182448e-2" fill-opacity="1.0" text-anchor="start"><text x="0.5224951501154734" y="-6.573447946513822e-3">addLineX</text></g><g stroke-opacity="0.3" fill="none" stroke="#ff8000" stroke-dasharray="1.0e-2" stroke-width="1.0e-2"><polyline points="0.6272933025404156,-1.1708118433619796e-2
0.7267852193995378,-1.1708118433619796e-2"/></g><g fill="#0d0d0d" stroke="none" stroke-width="0.0" font-size="1.989838337182448e-2" fill-opacity="1.0" text-anchor="start"><text x="0.5224951501154734" y="-4.62815663801337e-2">yify</text></g><g stroke-opacity="1.0" fill="none" stroke="#33a12b" stroke-width="1.0e-2"><polyline points="0.6272933025404156,-5.141623686723973e-2
0.7267852193995378,-5.141623686723973e-2"/></g><g fill="#0d0d0d" stroke="none" stroke-width="0.0" font-size="1.989838337182448e-2" fill-opacity="1.0" text-anchor="start"><text x="0.5224951501154734" y="-8.598968481375358e-2">xify</text></g><g stroke-opacity="1.0" fill="none" stroke="#ff8000" stroke-width="1.0e-2"><polyline points="0.6272933025404156,-9.11243553008596e-2
0.7267852193995378,-9.11243553008596e-2"/></g></g></g></g></svg>