<svg width="242.62767639597996" xmlns:xlink="http://www.w3.org/1999/xlink" xmlns="http://www.w3.org/2000/svg" viewBox="-84.00000000000001 -73.225 192.16066017177982 158.39962120245875" height="200.0"><style>svg {
  color-scheme: light dark;
}
{
  .canvas g, .title g, .axisbar g, .ticktext g, .tickglyph g, .ticklines g, .legendContent g text {
    fill: #0d0d0d;
  }
  .ticklines g, .tickglyph g, .legendBorder g {
    stroke: #0d0d0d;
  }
}
@media (prefers-color-scheme:dark) {
  .canvas g, .title g, .axisbar g, .ticktext g, .tickglyph g, .ticklines g, .legendContent g text {
    fill: #f0f0f0;
  }
  .ticklines g, .tickglyph g, .legendBorder g {
    stroke: #f0f0f0;
  }
}</style><g><g><g class="xline"><g stroke-opacity="1.0" fill="none" stroke="#ff8000" stroke-width="1.2"><polyline points="-50.0,42.85714285714286
-42.85714285714286,35.714285714285715
-35.714285714285715,-0.0
-28.57142857142857,28.57142857142857
-21.42857142857143,-42.85714285714285
-14.285714285714299,-50.0"/></g></g><g class="yline"><g stroke-opacity="1.0" fill="none" stroke="#33a12b" stroke-width="1.2"><polyline points="-42.85714285714286,50.0
-35.714285714285715,42.85714285714286
0.0,35.714285714285715
-28.57142857142857,28.57142857142857
42.85714285714283,21.42857142857143
49.999999999999986,14.285714285714292"/></g></g><g class="addlinex"><g stroke-opacity="0.3" fill="none" stroke="#33a12b" stroke-dasharray="4.0e-2 1.0e-2" stroke-width="1.2"><polyline points="-50.0,28.57142857142857
49.999999999999986,28.57142857142857"/></g></g><g class="addlinex"><g stroke-opacity="0.3" fill="none" stroke="#33a12b" stroke-dasharray="4.0e-2 1.0e-2" stroke-width="1.2"><polyline points="-14.285714285714299,50.0
-14.285714285714299,-50.0"/></g></g></g><g class="hud"><g class="axis"><g class="ticks"><g class="tickglyph"><g stroke-opacity="0.4" fill="#f0f0f0" stroke="#f0f0f0" stroke-width="4.0e-3" fill-opacity="0.4"><g transform="rotate(-90.0, -53.60000000000001, 50.599999999999994)"><polyline points="-53.60000000000001,52.099999999999994
-53.60000000000001,49.099999999999994"/></g><g transform="rotate(-90.0, -53.60000000000001, 36.142857142857146)"><polyline points="-53.60000000000001,37.642857142857146
-53.60000000000001,34.642857142857146"/></g><g transform="rotate(-90.0, -53.60000000000001, 21.685714285714283)"><polyline points="-53.60000000000001,23.185714285714283
-53.60000000000001,20.185714285714283"/></g><g transform="rotate(-90.0, -53.60000000000001, 7.228571428571428)"><polyline points="-53.60000000000001,8.728571428571428
-53.60000000000001,5.728571428571428"/></g><g transform="rotate(-90.0, -53.60000000000001, -7.228571428571428)"><polyline points="-53.60000000000001,-5.728571428571428
-53.60000000000001,-8.728571428571428"/></g><g transform="rotate(-90.0, -53.60000000000001, -21.685714285714283)"><polyline points="-53.60000000000001,-20.185714285714283
-53.60000000000001,-23.185714285714283"/></g><g transform="rotate(-90.0, -53.60000000000001, -36.14285714285714)"><polyline points="-53.60000000000001,-34.64285714285714
-53.60000000000001,-37.64285714285714"/></g><g transform="rotate(-90.0, -53.60000000000001, -50.599999999999994)"><polyline points="-53.60000000000001,-49.099999999999994
-53.60000000000001,-52.099999999999994"/></g></g></g><g class="ticktext"><g fill="#f0f0f0" stroke="none" stroke-width="0.0" font-size="5.0" fill-opacity="1.0" text-anchor="end"><text x="-57.2" y="51.975">0.0</text><text x="-57.2" y="37.51785714285714">2.0</text><text x="-57.2" y="23.060714285714276">4.0</text><text x="-57.2" y="8.603571428571428">6.0</text><text x="-57.2" y="-5.853571428571428">8.0</text><text x="-57.2" y="-20.31071428571427">10.0</text><text x="-57.2" y="-34.76785714285714">12.0</text><text x="-57.2" y="-49.224999999999994">14.0</text></g></g><g class="ticklines"><g stroke-opacity="5.0e-2" fill="none" stroke="#f0f0f0" stroke-width="0.5"><polyline points="-50.6,50.599999999999994
50.60000000000001,50.599999999999994"/><polyline points="-50.6,36.142857142857146
50.60000000000001,36.142857142857146"/><polyline points="-50.6,21.685714285714283
50.60000000000001,21.685714285714283"/><polyline points="-50.6,7.228571428571428
50.60000000000001,7.228571428571428"/><polyline points="-50.6,-7.228571428571428
50.60000000000001,-7.228571428571428"/><polyline points="-50.6,-21.685714285714283
50.60000000000001,-21.685714285714283"/><polyline points="-50.6,-36.14285714285714
50.60000000000001,-36.14285714285714"/><polyline points="-50.6,-50.599999999999994
50.60000000000001,-50.599999999999994"/></g></g></g><g class="axisbar"><g stroke-opacity="0.0" fill="#f0f0f0" stroke="#000000" stroke-width="0.0" fill-opacity="0.4"><rect width="0.3999999999999915" x="-52.0" y="-50.79999999999998" height="101.59999999999998"/></g></g></g><g class="axis"><g class="ticks"><g class="tickglyph"><g stroke-opacity="0.4" fill="#f0f0f0" stroke="#f0f0f0" stroke-width="4.0e-3" fill-opacity="0.4"><polyline points="-50.6,55.1
-50.6,52.1"/><polyline points="-36.14285714285715,55.1
-36.14285714285715,52.1"/><polyline points="-21.685714285714283,55.1
-21.685714285714283,52.1"/><polyline points="-7.228571428571442,55.1
-7.228571428571442,52.1"/><polyline points="7.228571428571428,55.1
7.228571428571428,52.1"/><polyline points="21.68571428571427,55.1
21.68571428571427,52.1"/><polyline points="36.14285714285715,55.1
36.14285714285715,52.1"/><polyline points="50.60000000000001,55.1
50.60000000000001,52.1"/></g></g><g class="ticktext"><g fill="#f0f0f0" stroke="none" stroke-width="0.0" font-size="5.0" fill-opacity="1.0" text-anchor="end"><text x="-50.6" y="59.95" transform="rotate(-45.0, -50.6, 59.95)">0.0</text><text x="-36.14285714285715" y="59.95" transform="rotate(-45.0, -36.14285714285715, 59.95)">2.0</text><text x="-21.685714285714283" y="59.95" transform="rotate(-45.0, -21.685714285714283, 59.95)">4.0</text><text x="-7.228571428571442" y="59.95" transform="rotate(-45.0, -7.228571428571442, 59.95)">6.0</text><text x="7.228571428571428" y="59.95" transform="rotate(-45.0, 7.228571428571428, 59.95)">8.0</text><text x="21.68571428571427" y="59.95" transform="rotate(-45.0, 21.68571428571427, 59.95)">10.0</text><text x="36.14285714285715" y="59.95" transform="rotate(-45.0, 36.14285714285715, 59.95)">12.0</text><text x="50.60000000000001" y="59.95" transform="rotate(-45.0, 50.60000000000001, 59.95)">14.0</text></g></g><g class="ticklines"><g stroke-opacity="5.0e-2" fill="none" stroke="#f0f0f0" stroke-width="0.5"><polyline points="-50.6,50.599999999999994
-50.6,-50.599999999999994"/><polyline points="-36.14285714285715,50.599999999999994
-36.14285714285715,-50.599999999999994"/><polyline points="-21.685714285714283,50.599999999999994
-21.685714285714283,-50.599999999999994"/><polyline points="-7.228571428571442,50.599999999999994
-7.228571428571442,-50.599999999999994"/><polyline points="7.228571428571428,50.599999999999994
7.228571428571428,-50.599999999999994"/><polyline points="21.68571428571427,50.599999999999994
21.68571428571427,-50.599999999999994"/><polyline points="36.14285714285715,50.599999999999994
36.14285714285715,-50.599999999999994"/><polyline points="50.60000000000001,50.599999999999994
50.60000000000001,-50.599999999999994"/></g></g></g><g class="axisbar"><g stroke-opacity="0.0" fill="#f0f0f0" stroke="#000000" stroke-width="0.0" fill-opacity="0.4"><rect width="101.6" x="-50.8" y="51.6" height="0.3999999999999986"/></g></g></g><g class="title"><g fill="#f0f0f0" stroke="none" stroke-width="0.0" font-size="10.0" fill-opacity="1.0" text-anchor="middle"><text x="-7.269669914110082" y="-60.224999999999994">subchart example</text></g></g><g class="title"><g fill="#f0f0f0" stroke="none" stroke-width="0.0" font-size="8.0" fill-opacity="1.0" text-anchor="middle"><text x="-7.269669914110082" y="77.77462120245875">x axis title</text></g></g><g class="title"><g fill="#f0f0f0" stroke="none" stroke-width="0.0" font-size="8.0" fill-opacity="1.0" text-anchor="middle"><text x="-72.60000000000001" y="7.074810601229373" transform="rotate(-90.0, -72.60000000000001, 7.074810601229373)">y axis title</text></g></g><g class="legend"><g class="legendBorder"><g stroke-opacity="1.0" fill="#f0f0f0" stroke="#f0f0f0" stroke-width="0.5" fill-opacity="5.0e-2"><rect width="43.50000000000003" x="59.16066017177981" y="-23.275189398770635" height="34.500000000000014"/></g></g><g class="legendContent"><g><g fill="#f0f0f0" stroke="none" stroke-width="0.0" font-size="5.0" fill-opacity="1.0" text-anchor="start"><text x="61.66066017177981" y="7.224810601229379">addLineY</text></g><g stroke-opacity="0.3" fill="none" stroke="#33a12b" stroke-dasharray="4.0e-2 1.0e-2" stroke-width="1.0"><polyline points="84.66066017177981,5.974810601229379
99.66066017177981,5.974810601229379"/></g><g fill="#f0f0f0" stroke="none" stroke-width="0.0" font-size="5.0" fill-opacity="1.0" text-anchor="start"><text x="61.66066017177981" y="-0.7751893987706211">addLineX</text></g><g stroke-opacity="0.3" fill="none" stroke="#ff8000" stroke-dasharray="1.0e-2" stroke-width="1.0"><polyline points="84.66066017177981,-2.0251893987706353
99.66066017177981,-2.0251893987706353"/></g><g fill="#f0f0f0" stroke="none" stroke-width="0.0" font-size="5.0" fill-opacity="1.0" text-anchor="start"><text x="61.66066017177981" y="-8.77518939877065">yify</text></g><g stroke-opacity="1.0" fill="none" stroke="#33a12b" stroke-width="1.0"><polyline points="84.66066017177981,-10.025189398770635
99.66066017177981,-10.025189398770635"/></g><g fill="#f0f0f0" stroke="none" stroke-width="0.0" font-size="5.0" fill-opacity="1.0" text-anchor="start"><text x="61.66066017177981" y="-16.77518939877062">xify</text></g><g stroke-opacity="1.0" fill="none" stroke="#ff8000" stroke-width="1.0"><polyline points="84.66066017177981,-18.025189398770635
99.66066017177981,-18.025189398770635"/></g></g></g></g></g></g><g class="hud"></g></svg>