<svg width="366.4589033153904" xmlns:xlink="http://www.w3.org/1999/xlink" xmlns="http://www.w3.org/2000/svg" viewBox="-0.8100000000000002 -0.70225 1.8616066017177983 1.5239962120245876" height="300.0"><style>svg {
  color-scheme: light dark;
}
{
  .canvas g, .title g, .axisbar g, .ticktext g, .tickglyph g, .ticklines g, .legendContent g text {
    fill: #0d0d0d;
  }
  .ticklines g, .tickglyph g, .legendBorder g {
    stroke: #0d0d0d;
  }
}
@media (prefers-color-scheme:dark) {
  .canvas g, .title g, .axisbar g, .ticktext g, .tickglyph g, .ticklines g, .legendContent g text {
    fill: #f0f0f0;
  }
  .ticklines g, .tickglyph g, .legendBorder g {
    stroke: #f0f0f0;
  }
}</style><g><g class="xline"><g stroke-opacity="1.0" fill="none" stroke="#ff8000" stroke-width="1.2e-2"><polyline points="-0.5,0.4285714285714286
-0.42857142857142855,0.35714285714285715
-0.3571428571428571,1.1102230246251565e-16
-0.2857142857142857,0.2857142857142857
-0.21428571428571425,-0.4285714285714286
-0.14285714285714285,-0.5"/></g></g><g class="yline"><g stroke-opacity="1.0" fill="none" stroke="#33a12b" stroke-width="1.2e-2"><polyline points="-0.42857142857142855,0.5
-0.3571428571428571,0.4285714285714286
0.0,0.35714285714285715
-0.2857142857142857,0.2857142857142857
0.4285714285714285,0.2142857142857143
0.5,0.14285714285714296"/></g></g><g class="addlinex"><g stroke-opacity="0.3" fill="none" stroke="#33a12b" stroke-dasharray="4.0e-2 1.0e-2" stroke-width="1.2e-2"><polyline points="-0.5,0.2857142857142857
0.5,0.2857142857142857"/></g></g><g class="addlinex"><g stroke-opacity="0.3" fill="none" stroke="#33a12b" stroke-dasharray="4.0e-2 1.0e-2" stroke-width="1.2e-2"><polyline points="-0.14285714285714285,0.5
-0.14285714285714285,-0.5"/></g></g></g><g class="hud"><g class="axis"><g class="ticks"><g class="tickglyph"><g stroke-opacity="0.4" fill="#0d0d0d" stroke="#0d0d0d" stroke-width="4.0e-3" fill-opacity="0.4"><g transform="rotate(-90.0, -0.5359999999999999, 0.506)"><polyline points="-0.5359999999999999,0.521
-0.5359999999999999,0.491"/></g><g transform="rotate(-90.0, -0.5359999999999999, 0.3614285714285715)"><polyline points="-0.5359999999999999,0.3764285714285715
-0.5359999999999999,0.3464285714285715"/></g><g transform="rotate(-90.0, -0.5359999999999999, 0.21685714285714286)"><polyline points="-0.5359999999999999,0.23185714285714287
-0.5359999999999999,0.20185714285714285"/></g><g transform="rotate(-90.0, -0.5359999999999999, 7.228571428571434e-2)"><polyline points="-0.5359999999999999,8.728571428571434e-2
-0.5359999999999999,5.728571428571434e-2"/></g><g transform="rotate(-90.0, -0.5359999999999999, -7.228571428571406e-2)"><polyline points="-0.5359999999999999,-5.7285714285714065e-2
-0.5359999999999999,-8.728571428571406e-2"/></g><g transform="rotate(-90.0, -0.5359999999999999, -0.21685714285714275)"><polyline points="-0.5359999999999999,-0.20185714285714274
-0.5359999999999999,-0.23185714285714276"/></g><g transform="rotate(-90.0, -0.5359999999999999, -0.3614285714285713)"><polyline points="-0.5359999999999999,-0.3464285714285713
-0.5359999999999999,-0.37642857142857133"/></g><g transform="rotate(-90.0, -0.5359999999999999, -0.5059999999999998)"><polyline points="-0.5359999999999999,-0.49099999999999977
-0.5359999999999999,-0.5209999999999998"/></g></g></g><g class="ticktext"><g fill="#0d0d0d" stroke="none" stroke-width="0.0" font-size="5.000000000000001e-2" fill-opacity="1.0" text-anchor="end"><text x="-0.5720000000000001" y="0.51975">0.0</text><text x="-0.5720000000000001" y="0.3751785714285714">2.0</text><text x="-0.5720000000000001" y="0.23060714285714295">4.0</text><text x="-0.5720000000000001" y="8.603571428571438e-2">6.0</text><text x="-0.5720000000000001" y="-5.8535714285714135e-2">8.0</text><text x="-0.5720000000000001" y="-0.2031071428571425">10.0</text><text x="-0.5720000000000001" y="-0.3476785714285713">12.0</text><text x="-0.5720000000000001" y="-0.49224999999999985">14.0</text></g></g><g class="ticklines"><g stroke-opacity="5.0e-2" fill="none" stroke="#0d0d0d" stroke-width="5.0e-3"><polyline points="-0.506,0.506
0.506,0.506"/><polyline points="-0.506,0.3614285714285715
0.506,0.3614285714285715"/><polyline points="-0.506,0.21685714285714286
0.506,0.21685714285714286"/><polyline points="-0.506,7.228571428571434e-2
0.506,7.228571428571434e-2"/><polyline points="-0.506,-7.228571428571406e-2
0.506,-7.228571428571406e-2"/><polyline points="-0.506,-0.21685714285714275
0.506,-0.21685714285714275"/><polyline points="-0.506,-0.3614285714285713
0.506,-0.3614285714285713"/><polyline points="-0.506,-0.5059999999999998
0.506,-0.5059999999999998"/></g></g></g><g class="axisbar"><g stroke-opacity="0.0" fill="#0d0d0d" stroke="#000000" stroke-width="0.0" fill-opacity="0.4"><rect width="4.0000000000000036e-3" x="-0.52" y="-0.5079999999999998" height="1.0159999999999998"/></g></g></g><g class="axis"><g class="ticks"><g class="tickglyph"><g stroke-opacity="0.4" fill="#0d0d0d" stroke="#0d0d0d" stroke-width="4.0e-3" fill-opacity="0.4"><polyline points="-0.506,0.551
-0.506,0.521"/><polyline points="-0.36142857142857143,0.551
-0.36142857142857143,0.521"/><polyline points="-0.2168571428571428,0.551
-0.2168571428571428,0.521"/><polyline points="-7.228571428571418e-2,0.551
-7.228571428571418e-2,0.521"/><polyline points="7.228571428571429e-2,0.551
7.228571428571429e-2,0.521"/><polyline points="0.21685714285714264,0.551
0.21685714285714264,0.521"/><polyline points="0.36142857142857154,0.551
0.36142857142857154,0.521"/><polyline points="0.506,0.551
0.506,0.521"/></g></g><g class="ticktext"><g fill="#0d0d0d" stroke="none" stroke-width="0.0" font-size="5.000000000000001e-2" fill-opacity="1.0" text-anchor="end"><text x="-0.506" y="0.5995" transform="rotate(-45.0, -0.506, 0.5995)">0.0</text><text x="-0.36142857142857143" y="0.5995" transform="rotate(-45.0, -0.36142857142857143, 0.5995)">2.0</text><text x="-0.2168571428571428" y="0.5995" transform="rotate(-45.0, -0.2168571428571428, 0.5995)">4.0</text><text x="-7.228571428571418e-2" y="0.5995" transform="rotate(-45.0, -7.228571428571418e-2, 0.5995)">6.0</text><text x="7.228571428571429e-2" y="0.5995" transform="rotate(-45.0, 7.228571428571429e-2, 0.5995)">8.0</text><text x="0.21685714285714264" y="0.5995" transform="rotate(-45.0, 0.21685714285714264, 0.5995)">10.0</text><text x="0.36142857142857154" y="0.5995" transform="rotate(-45.0, 0.36142857142857154, 0.5995)">12.0</text><text x="0.506" y="0.5995" transform="rotate(-45.0, 0.506, 0.5995)">14.0</text></g></g><g class="ticklines"><g stroke-opacity="5.0e-2" fill="none" stroke="#0d0d0d" stroke-width="5.0e-3"><polyline points="-0.506,0.506
-0.506,-0.5059999999999998"/><polyline points="-0.36142857142857143,0.506
-0.36142857142857143,-0.5059999999999998"/><polyline points="-0.2168571428571428,0.506
-0.2168571428571428,-0.5059999999999998"/><polyline points="-7.228571428571418e-2,0.506
-7.228571428571418e-2,-0.5059999999999998"/><polyline points="7.228571428571429e-2,0.506
7.228571428571429e-2,-0.5059999999999998"/><polyline points="0.21685714285714264,0.506
0.21685714285714264,-0.5059999999999998"/><polyline points="0.36142857142857154,0.506
0.36142857142857154,-0.5059999999999998"/><polyline points="0.506,0.506
0.506,-0.5059999999999998"/></g></g></g><g class="axisbar"><g stroke-opacity="0.0" fill="#0d0d0d" stroke="#000000" stroke-width="0.0" fill-opacity="0.4"><rect width="1.016" x="-0.5079999999999999" y="0.516" height="4.0000000000000036e-3"/></g></g></g><g class="title"><g fill="#0d0d0d" stroke="none" stroke-width="0.0" font-size="0.10000000000000002" fill-opacity="1.0" text-anchor="middle"><text x="-7.269669914110094e-2" y="-0.60225">subchart example</text></g></g><g class="title"><g fill="#0d0d0d" stroke="none" stroke-width="0.0" font-size="8.000000000000002e-2" fill-opacity="1.0" text-anchor="middle"><text x="-7.269669914110094e-2" y="0.7777462120245875">x axis title</text></g></g><g class="title"><g fill="#0d0d0d" stroke="none" stroke-width="0.0" font-size="8.000000000000002e-2" fill-opacity="1.0" text-anchor="middle"><text x="-0.7260000000000001" y="7.074810601229381e-2" transform="rotate(-90.0, -0.7260000000000001, 7.074810601229381e-2)">y axis title</text></g></g><g class="legend"><g class="legendBorder"><g stroke-opacity="1.0" fill="#b2de8a" stroke="#fcfcfc" stroke-width="5.0e-3" fill-opacity="5.0e-2"><rect width="0.43500000000000016" x="0.5916066017177982" y="-0.2327518939877063" height="0.34500000000000003"/></g></g><g class="legendContent"><g><g fill="#0d0d0d" stroke="none" stroke-width="0.0" font-size="5.0e-2" fill-opacity="1.0" text-anchor="start"><text x="0.6166066017177982" y="7.224810601229374e-2">addLineY</text></g><g stroke-opacity="0.3" fill="none" stroke="#33a12b" stroke-dasharray="4.0e-2 1.0e-2" stroke-width="1.0e-2"><polyline points="0.8466066017177982,5.9748106012293745e-2
0.9966066017177982,5.9748106012293745e-2"/></g><g fill="#0d0d0d" stroke="none" stroke-width="0.0" font-size="5.0e-2" fill-opacity="1.0" text-anchor="start"><text x="0.6166066017177982" y="-7.751893987706274e-3">addLineX</text></g><g stroke-opacity="0.3" fill="none" stroke="#ff8000" stroke-dasharray="1.0e-2" stroke-width="1.0e-2"><polyline points="0.8466066017177982,-2.025189398770627e-2
0.9966066017177982,-2.025189398770627e-2"/></g><g fill="#0d0d0d" stroke="none" stroke-width="0.0" font-size="5.0e-2" fill-opacity="1.0" text-anchor="start"><text x="0.6166066017177982" y="-8.775189398770628e-2">yify</text></g><g stroke-opacity="1.0" fill="none" stroke="#33a12b" stroke-width="1.0e-2"><polyline points="0.8466066017177982,-0.10025189398770629
0.9966066017177982,-0.10025189398770629"/></g><g fill="#0d0d0d" stroke="none" stroke-width="0.0" font-size="5.0e-2" fill-opacity="1.0" text-anchor="start"><text x="0.6166066017177982" y="-0.16775189398770626">xify</text></g><g stroke-opacity="1.0" fill="none" stroke="#ff8000" stroke-width="1.0e-2"><polyline points="0.8466066017177982,-0.18025189398770627
0.9966066017177982,-0.18025189398770627"/></g></g></g></g></g></svg>