<svg xmlns="http://www.w3.org/2000/svg" width="460.06653265125493" xmlns:xlink="http://www.w3.org/1999/xlink" viewBox="-0.7275103884372177 -0.47188798554652206 1.4775103884372176 0.9634543812104787" height="300.0"><style>svg {
  color-scheme: light dark;
}
{
  .canvas g, .title g, .axisbar g, .ticktext g, .tickglyph g, .ticklines g, .legendContent g text {
    fill: #0d0d0d;
  }
  .ticklines g, .tickglyph g, .legendBorder g {
    stroke: #0d0d0d;
  }
}
@media (prefers-color-scheme:dark) {
  .canvas g, .title g, .axisbar g, .ticktext g, .tickglyph g, .ticklines g, .legendContent g text {
    fill: #f0f0f0;
  }
  .ticklines g, .tickglyph g, .legendBorder g {
    stroke: #f0f0f0;
  }
}</style><g class="chart"><g class="xline"><g fill="none" stroke="rgb(100%, 50%, 0%)" stroke-width="1.2e-2" stroke-opacity="1.0"><polyline points="-0.539416440831075,0.27841414717626917
-0.46992360304555425,0.22973569119604478
-0.4004307652600335,-1.3656588705077077e-2
-0.33093792747451284,0.1810572352158204
-0.2614450896889922,-0.30572732458642315
-0.19195225190347148,-0.3544057805666476"/></g></g><g class="yline"><g fill="none" stroke="rgb(20%, 63%, 17%)" stroke-width="1.2e-2" stroke-opacity="1.0"><polyline points="-0.46992360304555425,0.3270926031564935
-0.4004307652600335,0.27841414717626917
-5.296657633242996e-2,0.22973569119604478
-0.33093792747451284,0.1810572352158204
0.3639904503806942,0.1323787792355961
0.43348328816621506,8.370032325537174e-2"/></g></g><g class="addlinex"><g fill="none" stroke="rgb(100%, 50%, 0%)" stroke-dasharray="1.0e-2" stroke-width="1.2e-2" stroke-opacity="0.3"><polyline points="-0.539416440831075,0.1810572352158204
0.43348328816621506,0.1810572352158204"/></g></g><g class="addliney"><g fill="none" stroke="rgb(20%, 63%, 17%)" stroke-dasharray="4.0e-2 1.0e-2" stroke-width="1.2e-2" stroke-opacity="0.3"><polyline points="-0.19195225190347148,0.3270926031564935
-0.19195225190347148,-0.3544057805666476"/></g></g></g><g class="hud"><g class="axis"><g class="ticks"><g class="tickglyph"><g fill="rgb(5%, 5%, 5%)" stroke="rgb(5%, 5%, 5%)" stroke-width="4.0e-3" fill-opacity="0.4" stroke-opacity="0.4"><g transform="rotate(-90.0, -0.56276603432701, 0.3270926031564935)"><polyline points="-0.56276603432701,0.34209260315649354
-0.56276603432701,0.3120926031564935"/></g><g transform="rotate(-90.0, -0.56276603432701, 0.22973569119604478)"><polyline points="-0.56276603432701,0.24473569119604477
-0.56276603432701,0.2147356911960448"/></g><g transform="rotate(-90.0, -0.56276603432701, 0.1323787792355961)"><polyline points="-0.56276603432701,0.1473787792355961
-0.56276603432701,0.1173787792355961"/></g><g transform="rotate(-90.0, -0.56276603432701, 3.502186727514728e-2)"><polyline points="-0.56276603432701,5.002186727514728e-2
-0.56276603432701,2.002186727514728e-2"/></g><g transform="rotate(-90.0, -0.56276603432701, -6.233504468530138e-2)"><polyline points="-0.56276603432701,-4.733504468530138e-2
-0.56276603432701,-7.733504468530138e-2"/></g><g transform="rotate(-90.0, -0.56276603432701, -0.1596919566457501)"><polyline points="-0.56276603432701,-0.14469195664575007
-0.56276603432701,-0.1746919566457501"/></g><g transform="rotate(-90.0, -0.56276603432701, -0.257048868606199)"><polyline points="-0.56276603432701,-0.242048868606199
-0.56276603432701,-0.27204886860619903"/></g><g transform="rotate(-90.0, -0.56276603432701, -0.3544057805666476)"><polyline points="-0.56276603432701,-0.3394057805666476
-0.56276603432701,-0.36940578056664763"/></g></g></g><g class="ticktext"><g fill="rgb(5%, 5%, 5%)" stroke="none" stroke-width="0.0" font-size="3.242999096657633e-2" fill-opacity="1.0" text-anchor="end"><text x="-0.5861156278229449" y="0.33646320593268675">0.0</text><text x="-0.5861156278229449" y="0.23910629397223798">2.0</text><text x="-0.5861156278229449" y="0.14174938201178927">4.0</text><text x="-0.5861156278229449" y="4.4392470051340505e-2">6.0</text><text x="-0.5861156278229449" y="-5.2964441909108206e-2">8.0</text><text x="-0.5861156278229449" y="-0.15032135386955692">10.0</text><text x="-0.5861156278229449" y="-0.24767826583000574">12.0</text><text x="-0.5861156278229449" y="-0.34503517779045456">14.0</text></g></g><g class="ticklines"><g fill="none" stroke="rgb(5%, 5%, 5%)" stroke-width="5.0e-3" stroke-opacity="5.0e-2"><polyline points="-0.539416440831075,0.3270926031564935
0.43348328816621506,0.3270926031564935"/><polyline points="-0.539416440831075,0.22973569119604478
0.43348328816621506,0.22973569119604478"/><polyline points="-0.539416440831075,0.1323787792355961
0.43348328816621506,0.1323787792355961"/><polyline points="-0.539416440831075,3.502186727514728e-2
0.43348328816621506,3.502186727514728e-2"/><polyline points="-0.539416440831075,-6.233504468530138e-2
0.43348328816621506,-6.233504468530138e-2"/><polyline points="-0.539416440831075,-0.1596919566457501
0.43348328816621506,-0.1596919566457501"/><polyline points="-0.539416440831075,-0.257048868606199
0.43348328816621506,-0.257048868606199"/><polyline points="-0.539416440831075,-0.3544057805666476
0.43348328816621506,-0.3544057805666476"/></g></g></g><g class="axisbar"><g fill="rgb(5%, 5%, 5%)" stroke="rgb(0%, 0%, 0%)" stroke-width="0.0" fill-opacity="0.4" stroke-opacity="0.0"><rect x="-0.5523884372177055" width="2.594399277326076e-3" y="-0.35576877733409396" height="0.6842243772580338"/></g></g></g><g class="axis"><g class="ticks"><g class="tickglyph"><g fill="rgb(5%, 5%, 5%)" stroke="rgb(5%, 5%, 5%)" stroke-width="4.0e-3" fill-opacity="0.4" stroke-opacity="0.4"><polyline points="-0.539416440831075,0.36662654497052666
-0.539416440831075,0.33662654497052663"/><polyline points="-0.4004307652600335,0.36662654497052666
-0.4004307652600335,0.33662654497052663"/><polyline points="-0.2614450896889922,0.36662654497052666
-0.2614450896889922,0.33662654497052663"/><polyline points="-0.1224594141179508,0.36662654497052666
-0.1224594141179508,0.33662654497052663"/><polyline points="1.6526261453090663e-2,0.36662654497052666
1.6526261453090663e-2,0.33662654497052663"/><polyline points="0.15551193702413202,0.36662654497052666
0.15551193702413202,0.33662654497052663"/><polyline points="0.2944976125951734,0.36662654497052666
0.2944976125951734,0.33662654497052663"/><polyline points="0.43348328816621506,0.36662654497052666
0.43348328816621506,0.33662654497052663"/></g></g><g class="ticktext"><g fill="rgb(5%, 5%, 5%)" stroke="none" stroke-width="0.0" font-size="3.242999096657633e-2" fill-opacity="1.0" text-anchor="middle"><text x="-0.539416440831075" y="0.3949016923369461">0.0</text><text x="-0.4004307652600335" y="0.3949016923369461">2.0</text><text x="-0.2614450896889922" y="0.3949016923369461">4.0</text><text x="-0.1224594141179508" y="0.3949016923369461">6.0</text><text x="1.6526261453090663e-2" y="0.3949016923369461">8.0</text><text x="0.15551193702413202" y="0.3949016923369461">10.0</text><text x="0.2944976125951734" y="0.3949016923369461">12.0</text><text x="0.43348328816621506" y="0.3949016923369461">14.0</text></g></g><g class="ticklines"><g fill="none" stroke="rgb(5%, 5%, 5%)" stroke-width="5.0e-3" stroke-opacity="5.0e-2"><polyline points="-0.539416440831075,0.3270926031564935
-0.539416440831075,-0.3544057805666476"/><polyline points="-0.4004307652600335,0.3270926031564935
-0.4004307652600335,-0.3544057805666476"/><polyline points="-0.2614450896889922,0.3270926031564935
-0.2614450896889922,-0.3544057805666476"/><polyline points="-0.1224594141179508,0.3270926031564935
-0.1224594141179508,-0.3544057805666476"/><polyline points="1.6526261453090663e-2,0.3270926031564935
1.6526261453090663e-2,-0.3544057805666476"/><polyline points="0.15551193702413202,0.3270926031564935
0.15551193702413202,-0.3544057805666476"/><polyline points="0.2944976125951734,0.3270926031564935
0.2944976125951734,-0.3544057805666476"/><polyline points="0.43348328816621506,0.3270926031564935
0.43348328816621506,-0.3544057805666476"/></g></g></g><g class="axisbar"><g fill="rgb(5%, 5%, 5%)" stroke="rgb(0%, 0%, 0%)" stroke-width="0.0" fill-opacity="0.4" stroke-opacity="0.0"><rect x="-0.540713640469738" width="0.9754941282746161" y="0.3379965772960638" height="2.725993534892557e-3"/></g></g></g><g class="title"><g fill="rgb(5%, 5%, 5%)" stroke="none" stroke-width="0.0" font-size="6.485998193315266e-2" fill-opacity="1.0" text-anchor="middle"><text x="-9.090966576332427e-2" y="-0.41999999999999993">subchart example</text></g></g><g class="title"><g fill="rgb(5%, 5%, 5%)" stroke="none" stroke-width="0.0" font-size="5.188798554652213e-2" fill-opacity="1.0" text-anchor="middle"><text x="-9.090966576332427e-2" y="0.476">x axis title</text></g></g><g class="title"><g fill="rgb(5%, 5%, 5%)" stroke="none" stroke-width="0.0" font-size="5.188798554652213e-2" fill-opacity="1.0" text-anchor="middle"><text x="-0.686" y="1.6414527476706575e-2" transform="rotate(-90.0, -0.686, 1.6414527476706575e-2)">y axis title</text></g></g><g class="legend"><g class="legendBorder"><g fill="rgb(70%, 87%, 54%)" stroke="rgb(99%, 99%, 99%)" stroke-width="5.0e-3" fill-opacity="5.0e-2" stroke-opacity="1.0"><rect x="0.5113152664859982" width="0.23544173441734428" y="-0.13794485643658483" height="0.17514508461684725"/></g></g><g class="legendContent"><g fill="rgb(5%, 5%, 5%)" stroke="none" stroke-width="0.0" font-size="1.94579945799458e-2" fill-opacity="1.0" text-anchor="start"><text x="0.5275302619692862" y="1.4029283133675519e-2">addLineY</text></g><g fill="none" stroke="rgb(20%, 63%, 17%)" stroke-dasharray="4.0e-2 1.0e-2" stroke-width="1.0e-2" stroke-opacity="0.3"><polyline points="0.6300090334236675,8.918045255752016e-3
0.7272990063233967,8.918045255752016e-3"/></g><g fill="rgb(5%, 5%, 5%)" stroke="none" stroke-width="0.0" font-size="1.94579945799458e-2" fill-opacity="1.0" text-anchor="start"><text x="0.5275302619692862" y="-2.5497623122266555e-2">addLineX</text></g><g fill="none" stroke="rgb(100%, 50%, 0%)" stroke-dasharray="1.0e-2" stroke-width="1.0e-2" stroke-opacity="0.3"><polyline points="0.6300090334236675,-3.0608861000190224e-2
0.7272990063233967,-3.0608861000190224e-2"/></g><g fill="rgb(5%, 5%, 5%)" stroke="none" stroke-width="0.0" font-size="1.94579945799458e-2" fill-opacity="1.0" text-anchor="start"><text x="0.5275302619692862" y="-6.50245293782088e-2">yify</text></g><g fill="none" stroke="rgb(20%, 63%, 17%)" stroke-width="1.0e-2" stroke-opacity="1.0"><polyline points="0.6300090334236675,-7.013576725613235e-2
0.7272990063233967,-7.013576725613235e-2"/></g><g fill="rgb(5%, 5%, 5%)" stroke="none" stroke-width="0.0" font-size="1.94579945799458e-2" fill-opacity="1.0" text-anchor="start"><text x="0.5275302619692862" y="-0.10455143563415104">xify</text></g><g fill="none" stroke="rgb(100%, 50%, 0%)" stroke-width="1.0e-2" stroke-opacity="1.0"><polyline points="0.6300090334236675,-0.1096626735120746
0.7272990063233967,-0.1096626735120746"/></g></g></g></g></svg>