<svg xmlns="http://www.w3.org/2000/svg" height="300.0" viewBox="-1.7100749999999998 -2.5317500000000006 3.722575 3.169250000000001" width="352.37753411690454" xmlns:xlink="http://www.w3.org/1999/xlink"><g stroke-opacity="0.0" fill-opacity="2.5e-2" stroke="#000000" stroke-width="0.0" fill="#808080"><rect height="3.0" width="3.5" x="-1.5" y="-2.5"/></g><g stroke-opacity="5.0e-2" stroke="#808080" stroke-width="5.0e-3" fill="none"><polyline points="-1.5,0.5
2.0,0.5"/></g><g stroke-opacity="5.0e-2" stroke="#808080" stroke-width="5.0e-3" fill="none"><polyline points="-1.5,-0.0
2.0,-0.0"/></g><g stroke-opacity="5.0e-2" stroke="#808080" stroke-width="5.0e-3" fill="none"><polyline points="-1.5,-0.5000000000000001
2.0,-0.5000000000000001"/></g><g stroke-opacity="5.0e-2" stroke="#808080" stroke-width="5.0e-3" fill="none"><polyline points="-1.5,-1.0
2.0,-1.0"/></g><g stroke-opacity="5.0e-2" stroke="#808080" stroke-width="5.0e-3" fill="none"><polyline points="-1.5,-1.5000000000000004
2.0,-1.5000000000000004"/></g><g stroke-opacity="5.0e-2" stroke="#808080" stroke-width="5.0e-3" fill="none"><polyline points="-1.5,-2.0
2.0,-2.0"/></g><g stroke-opacity="5.0e-2" stroke="#808080" stroke-width="5.0e-3" fill="none"><polyline points="-1.5,-2.5
2.0,-2.5"/></g><g fill-opacity="1.0" font-size="5.0e-2" stroke="none" stroke-width="0.0" fill="#808080" text-anchor="end"><text x="-1.6100749999999997" y="0.5145">-0.5</text></g><g fill-opacity="1.0" font-size="5.0e-2" stroke="none" stroke-width="0.0" fill="#808080" text-anchor="end"><text x="-1.6100749999999997" y="1.4499999999999957e-2">0</text></g><g fill-opacity="1.0" font-size="5.0e-2" stroke="none" stroke-width="0.0" fill="#808080" text-anchor="end"><text x="-1.6100749999999997" y="-0.48549999999999993">0.5</text></g><g fill-opacity="1.0" font-size="5.0e-2" stroke="none" stroke-width="0.0" fill="#808080" text-anchor="end"><text x="-1.6100749999999997" y="-0.9855000000000002">1</text></g><g fill-opacity="1.0" font-size="5.0e-2" stroke="none" stroke-width="0.0" fill="#808080" text-anchor="end"><text x="-1.6100749999999997" y="-1.4855000000000005">1.5</text></g><g fill-opacity="1.0" font-size="5.0e-2" stroke="none" stroke-width="0.0" fill="#808080" text-anchor="end"><text x="-1.6100749999999997" y="-1.9855">2</text></g><g fill-opacity="1.0" font-size="5.0e-2" stroke="none" stroke-width="0.0" fill="#808080" text-anchor="end"><text x="-1.6100749999999997" y="-2.4855000000000005">2.5</text></g><g stroke-opacity="1.0" fill-opacity="1.0" stroke="#808080" stroke-width="5.0e-3" fill="#808080"><g transform="rotate(-90.0, -1.5775, 0.5)"><polyline points="-1.5775,0.515
-1.5775,0.485"/></g><g transform="rotate(-90.0, -1.5775, -0.0)"><polyline points="-1.5775,1.5e-2
-1.5775,-1.5e-2"/></g><g transform="rotate(-90.0, -1.5775, -0.5000000000000001)"><polyline points="-1.5775,-0.4850000000000001
-1.5775,-0.5150000000000001"/></g><g transform="rotate(-90.0, -1.5775, -1.0)"><polyline points="-1.5775,-0.985
-1.5775,-1.015"/></g><g transform="rotate(-90.0, -1.5775, -1.5000000000000004)"><polyline points="-1.5775,-1.4850000000000005
-1.5775,-1.5150000000000003"/></g><g transform="rotate(-90.0, -1.5775, -2.0)"><polyline points="-1.5775,-1.985
-1.5775,-2.015"/></g><g transform="rotate(-90.0, -1.5775, -2.5)"><polyline points="-1.5775,-2.485
-1.5775,-2.515"/></g></g><g stroke-opacity="1.0" fill-opacity="1.0" stroke="#808080" stroke-width="0.0" fill="#808080"><rect height="3.0" width="4.999999999999893e-3" x="-1.565" y="-2.5"/></g><g stroke-opacity="5.0e-2" stroke="#808080" stroke-width="5.0e-3" fill="none"><polyline points="-1.5,0.5
-1.5,-2.5"/></g><g stroke-opacity="5.0e-2" stroke="#808080" stroke-width="5.0e-3" fill="none"><polyline points="-1.0,0.5
-1.0,-2.5"/></g><g stroke-opacity="5.0e-2" stroke="#808080" stroke-width="5.0e-3" fill="none"><polyline points="-0.5,0.5
-0.5,-2.5"/></g><g stroke-opacity="5.0e-2" stroke="#808080" stroke-width="5.0e-3" fill="none"><polyline points="0.0,0.5
0.0,-2.5"/></g><g stroke-opacity="5.0e-2" stroke="#808080" stroke-width="5.0e-3" fill="none"><polyline points="0.5,0.5
0.5,-2.5"/></g><g stroke-opacity="5.0e-2" stroke="#808080" stroke-width="5.0e-3" fill="none"><polyline points="0.9999999999999991,0.5
0.9999999999999991,-2.5"/></g><g stroke-opacity="5.0e-2" stroke="#808080" stroke-width="5.0e-3" fill="none"><polyline points="1.5,0.5
1.5,-2.5"/></g><g stroke-opacity="5.0e-2" stroke="#808080" stroke-width="5.0e-3" fill="none"><polyline points="2.0,0.5
2.0,-2.5"/></g><g fill-opacity="1.0" font-size="5.0e-2" stroke="none" stroke-width="0.0" fill="#808080" text-anchor="middle"><text x="-1.5" y="0.61125">-1.5</text></g><g fill-opacity="1.0" font-size="5.0e-2" stroke="none" stroke-width="0.0" fill="#808080" text-anchor="middle"><text x="-1.0" y="0.61125">-1</text></g><g fill-opacity="1.0" font-size="5.0e-2" stroke="none" stroke-width="0.0" fill="#808080" text-anchor="middle"><text x="-0.5" y="0.61125">-0.5</text></g><g fill-opacity="1.0" font-size="5.0e-2" stroke="none" stroke-width="0.0" fill="#808080" text-anchor="middle"><text x="0.0" y="0.61125">0</text></g><g fill-opacity="1.0" font-size="5.0e-2" stroke="none" stroke-width="0.0" fill="#808080" text-anchor="middle"><text x="0.5" y="0.61125">0.5</text></g><g fill-opacity="1.0" font-size="5.0e-2" stroke="none" stroke-width="0.0" fill="#808080" text-anchor="middle"><text x="0.9999999999999991" y="0.61125">1</text></g><g fill-opacity="1.0" font-size="5.0e-2" stroke="none" stroke-width="0.0" fill="#808080" text-anchor="middle"><text x="1.5" y="0.61125">1.5</text></g><g fill-opacity="1.0" font-size="5.0e-2" stroke="none" stroke-width="0.0" fill="#808080" text-anchor="middle"><text x="2.0" y="0.61125">2</text></g><g stroke-opacity="1.0" fill-opacity="1.0" stroke="#808080" stroke-width="5.0e-3" fill="#808080"><polyline points="-1.5,0.5425
-1.5,0.5125"/><polyline points="-1.0,0.5425
-1.0,0.5125"/><polyline points="-0.5,0.5425
-0.5,0.5125"/><polyline points="0.0,0.5425
0.0,0.5125"/><polyline points="0.5,0.5425
0.5,0.5125"/><polyline points="0.9999999999999991,0.5425
0.9999999999999991,0.5125"/><polyline points="1.5,0.5425
1.5,0.5125"/><polyline points="2.0,0.5425
2.0,0.5125"/></g><g stroke-opacity="1.0" fill-opacity="1.0" stroke="#808080" stroke-width="0.0" fill="#808080"><rect height="5.0000000000000044e-3" width="3.5" x="-1.5" y="0.51"/></g><g stroke-opacity="0.8" fill-opacity="0.3" stroke="#1f78b4" stroke-width="3.0e-3" fill="#a6cee3"><rect height="3.0000000000000027e-2" width="3.0000000000000027e-2" x="0.21000000000000008" y="-0.8650000000000002"/><rect height="3.0e-2" width="3.0e-2" x="-1.5e-2" y="-1.5e-2"/><rect height="2.9999999999999916e-2" width="2.9999999999999805e-2" x="1.485" y="-1.015"/></g><g stroke-opacity="1.0" stroke="#e63305" stroke-width="5.0e-3" fill="none" stroke-linecap="round" stroke-dasharray="3.0e-2 1.0e-2"><polyline points="0.2250000000000001,-0.8500000000000002
0.956601247002344,-0.3622658353317709"/></g><g stroke-opacity="1.0" stroke="#e6cc05" stroke-width="5.0e-3" fill="none" stroke-linecap="round" stroke-dasharray="3.0e-2 1.0e-2"><polyline points="0.2250000000000001,-0.8500000000000002
0.7127341646682295,-1.5816012470023444"/></g><g stroke-opacity="1.0" stroke="#33e6cc" stroke-width="5.0e-3" fill="none" stroke-linecap="round" stroke-dasharray="3.0e-2 1.0e-2"><polyline points="0.2250000000000001,-0.8500000000000002
0.0,-0.0"/></g><g stroke-opacity="1.0" stroke="#3333e6" stroke-width="5.0e-3" fill="none" stroke-linecap="round" stroke-dasharray="3.0e-2 1.0e-2"><polyline points="0.2250000000000001,-0.8500000000000002
1.5,-1.0"/></g><g stroke-opacity="1.0" stroke="#e31a1c" stroke-width="4.0e-2" fill="none"><polyline points="0.0,-0.0
1.6588331691041347e-2,4.218693609942092e-3
3.325563947562671e-2,8.113687227455202e-3
4.999560739808362e-2,1.1683504872893602e-2
6.68018919687059e-2,1.4926793789693193e-2
8.3668124567573e-2,1.784232495698934e-2
0.10058791385789378,2.0428993555344e-2
0.11755484820795603,2.2685819385409922e-2
0.13456249812076782,2.461194723937077e-2
0.15160441867046992,2.620664722501398e-2
0.1686741519445929,2.746931504232042e-2
0.18576522949123753,2.8399472212457644e-2
0.2028711747702454,2.899676625909764e-2
0.21998550560744046,2.9260970841983203e-2
0.23710173665099776,2.919198584269944e-2
0.2542133818290251,2.8789837402613205e-2
0.27131395680740966,2.805467791296523e-2
0.28839698144701065,2.6986785957124226e-2
0.30545598225926196,2.5586566205019756e-2
0.322484494859252,2.3854549259793023e-2
0.3394760664153571,2.1791391456732923e-2
0.35642425809449496,1.939787461455833e-2
0.37332264750207367,1.667490573915631e-2
0.3901648311157113,1.3623516679877379e-2
0.4069444267118052,1.0244863738524401e-2
0.4236550757840285,6.540227231179974e-3
0.4402904459528427,2.5110110030402977e-3
0.45684423336510216,-1.8412581035625042e-3
0.47331016508285817,-6.514930827745236e-3
0.4896820014604413,-1.1508236115050141e-2
0.5059535385089298,-1.681928178857195e-2
0.5221186102471078,-2.2446055265986198e-2
0.5381710910380173,-2.838642432220162e-2
0.5541048979102263,-3.463813789735104e-2
0.5699139928629249,-4.11988269498158e-2
0.5855923851539826,-4.8066005353955665e-2
0.601134133570095,-5.52370708422083e-2
0.6165333486781703,-6.270930599119984e-2
0.6317841950570751,-7.047987925149335e-2
0.6468808935089396,-7.854584602058279e-2
0.6618177232491296,-8.690414975873073e-2
0.6765890240741066,-9.55516231472191e-2
0.6911891985063137,-0.1044849892885853
0.7056127139153032,-0.11370086294837567
0.7198541046142855,-0.1231957518379565
0.7339079739313146,-0.1329660579378933
0.7477689962543099,-0.14300807886139144
0.7614319190491696,-0.15331800925729044
0.7748915648501704,-0.16389194225207449
0.788142833221936,-0.17472587093035274
0.8011807026922089,-0.1858156898532516
0.8140002326547018,-0.19715719661414144
0.8265965652413039,-0.20874609343110773
0.8389649271629325,-0.2205779887755639
0.8511006315183427,-0.23264839903639
0.8629990795701867,-0.24495275021896512
0.8746557624876785,-0.2574863796784479
0.8860662630551803,-0.27024453788665426
0.8972262573460723,-0.2832223902318546
0.9081315163612773,-0.2964150188508169
0.9187779076318066,-0.30981742449239336
0.9291613967847319,-0.3234245284119518
0.9392780490719761,-0.3372311742959295
0.9491240308613649,-0.3512321302157799
0.9586956110893494,-0.3654220906105745
0.9679891626748658,-0.37979567829750605
0.9770011638937923,-0.394347446509535
0.9857281997134848,-0.40907188095940084
0.9941669630868692,-0.423963401929221
1.0023142562056337,-0.4390163663848857
1.0101669917120075,-0.4542250701144447
1.0177221938686967,-0.46958374988967677
1.0249769996865172,-0.4850865856500236
1.031928660009303,-0.5007277027080593
1.0385745405556803,-0.5165011739756612
1.0449121229173093,-0.5324010222100354
1.0509390055132144,-0.5484212222787531
1.0566529044998503,-0.5645557034429275
1.062051654636544,-0.5807983516576775
1.067133210105999,-0.5971430118890017
1.0718956452895418,-0.6135834904461824
1.0763371554968235,-0.6301135573288418
1.080456057649692,-0.6467269485877526
1.0842507909199823,-0.66341736869852
1.087719917320983,-0.6801784929472231
1.090862122252347,-0.6970039698271181
1.0936762149982542,-0.713887423445498
1.096161129178625,-0.7308224559397914
1.0983159231532102,-0.7478026499019833
1.1001397803784259,-0.7648215708104488
1.101632009716777,-0.7818727694682656
1.1027920456987532,-0.7989497844470926
1.1036194487371134,-0.8160461445356816
1.1041139052934628,-0.8331553711920924
1.1042752279970691,-0.8502709809986951
1.1041033557158602,-0.8673864881190091
1.1035983535795948,-0.8844954067554672
1.1027604129551767,-0.9015912536071592
1.1015898513741411,-0.9186675503266352
1.100087112412329,-0.9357178259748243
1.098252765521797,-0.952735619473153"/></g><g stroke-opacity="1.0" stroke="#1f78b4" stroke-width="2.0e-3" fill="none"><polyline points="0.956601247002344,-0.3622658353317709
0.9857826806515066,-0.4091658896810423
1.0119616526286839,-0.4578057148657947
1.035034846491516,-0.5079933517174463
1.054911202884965,-0.5595307325618945
1.0715122789109914,-0.6122144629021352
1.0847725577068292,-0.6658366241234231
1.0946397070101161,-0.720185594053052
1.1010747856904248,-0.7750468821363931
1.104052397432112,-0.8302039759331196
1.1035607909619731,-0.8854391955928945
1.0996019064261535,-0.9405345529382928
1.0921913677332746,-0.9952726117645468
1.0813584208940021,-1.0494373459609094
1.0671458186004084,-1.10281499206702
1.0496096515006266,-1.155194892899626
1.0288191268346871,-1.206370328920241
1.0048562953051592,-1.2561393340627243
0.9778157272605119,-1.3043054928010744
0.9478041394691581,-1.3506787153117745
0.9149399739571207,-1.3950759876714875
0.8793529305714656,-1.4373220941293927
0.8411834551142632,-1.4772503086037094
0.8005821850671677,-1.5147030526733758
0.7577093550940992,-1.5495325174680796
0.7127341646682295,-1.5816012470023444
0.6658341103189582,-1.610782680651507
0.6171942851342047,-1.6369616526286843
0.5670066482825535,-1.660034846491516
0.5154692674381058,-1.6799112028849654
0.4627855370978655,-1.6965122789109914
0.4091633758765778,-1.7097725577068292
0.35481440594694846,-1.7196397070101166
0.29995311786360723,-1.7260747856904257
0.24479602406688072,-1.7290523974321124
0.18956080440710577,-1.7285607909619731
0.13446544706170727,-1.7246019064261544
7.972738823545367e-2,-1.7171913677332746
2.5562654039091193e-2,-1.7063584208940021
-2.7814992067019872e-2,-1.6921458186004092
-8.019489289962567e-2,-1.6746096515006275
-0.13137032892024036,-1.6538191268346871
-0.1811393340627243,-1.6298562953051592
-0.22930549280107382,-1.602815727260512
-0.2756787153117748,-1.572804139469159
-0.32007598767148737,-1.5399399739571211
-0.3623220941293921,-1.5043529305714656
-0.40225030860370947,-1.4661834551142632
-0.43970305267337606,-1.4255821850671673
-0.474532517468079,-1.3827093550941
-0.5066012470023438,-1.3377341646682295
-0.5357826806515069,-1.2908341103189582
-0.5619616526286839,-1.2421942851342052
-0.5850348464915158,-1.1920066482825535
-0.604911202884965,-1.1404692674381063
-0.621512278910991,-1.087785537097865
-0.6347725577068287,-1.0341633758765778
-0.644639707010116,-0.9798144059469488
-0.6510747856904249,-0.9249531178636073
-0.6540523974321116,-0.8697960240668811
-0.6535607909619734,-0.8145608044071063
-0.6496019064261541,-0.7594654470617076
-0.6421913677332742,-0.704727388235454
-0.6313584208940017,-0.6505626540390913
-0.6171458186004085,-0.5971850079329798
-0.5996096515006273,-0.5448051071003742
-0.578819126834687,-0.49362967107975886
-0.5548562953051588,-0.443860665937276
-0.5278157272605113,-0.3956945071989256
-0.4978041394691579,-0.349321284688225
-0.4649399739571205,-0.3049240123285125
-0.4293529305714656,-0.2626779058706077
-0.3911834551142628,-0.22274969139629042
-0.35058218506716776,-0.18529694732662427
-0.307709355094099,-0.15046748253192088
-0.2627341646682293,-0.11839875299765634
-0.21583411031895805,-8.921731934849364e-2
-0.16719428513420542,-6.303834737131608e-2
-0.1170066482825538,-3.996515350848451e-2
-6.546926743810566e-2,-2.008879711503464e-2
-1.278553709786534e-2,-3.487721089008855e-3
4.083662412342215e-2,9.772557706828722e-3
9.518559405305083e-2,1.963970701011597e-2
0.1500468821363934,2.6074785690424984e-2
0.205203975933119,2.9052397432111743e-2
0.26043919559289375,2.8560790961973392e-2
0.315534552938292,2.460190642615412e-2
0.37027261176454607,1.7191367733274454e-2
0.4244373459609081,6.358420894001959e-3
0.4778149920670205,-7.854181399591487e-3
0.5301948928996261,-2.539034849937294e-2
0.581370328920241,-4.618087316531261e-2
0.6311393340627243,-7.014370469484155e-2
0.679305492801074,-9.718427273948804e-2
0.7256787153117745,-0.12719586053084186
0.7700759876714875,-0.16006002604287928
0.8123220941293923,-0.19564706942853471
0.8522503086037094,-0.2338165448857371
0.8897030526733758,-0.27441781493283235
0.9245325174680792,-0.31729064490590086
0.956601247002344,-0.3622658353317709"/></g><g stroke-opacity="1.0" stroke="#1f78b4" stroke-width="2.0e-3" fill="none"><polyline points="1.2931805162914247,-0.13787965580571693
1.3357871124245055,-0.2063564722055935
1.374009939295207,-0.27737345555691784
1.407698148868219,-0.35065033427097525
1.4367187891710351,-0.4258979179845034
1.4609573289946507,-0.5028192388619351
1.4803181098959186,-0.5811107235917764
1.4947247237177184,-0.6604633914517762
1.5041203141370527,-0.7405640737146754
1.5084678010509727,-0.821096649582104
1.5077500269148074,-0.9017432937689475
1.501969824455153,-0.9821857308145473
1.4911500054903923,-1.0621064911705376
1.475333270902877,-1.141190164108116
1.454582042118044,-1.2191246425000921
1.4289782147555714,-1.2956023545651285
1.3986228354247845,-1.3703214777130475
1.3636357029398471,-1.4429871297007049
1.3241548955285767,-1.5133125323974834
1.2803362259007618,-1.5810201435675597
1.232352626326576,-1.6458427522023102
1.1803934661519184,-1.707524533080088
1.1246638044441148,-1.765822056391492
1.0653835807174659,-1.8205052484456168
1.0027867469324634,-1.871358299665801
0.937120344194283,-1.9181805162914256
0.8686435277944065,-1.960787112424505
0.7976265444430823,-1.999009939295207
0.7243496657290249,-2.0326981488682185
0.6491020820154967,-2.0617187891710356
0.572180761138064,-2.085957328994652
0.4938892764082232,-2.105318109895919
0.41453660854822383,-2.1197247237177184
0.33443592628532404,-2.1291203141370527
0.2539033504178956,-2.133467801050973
0.17325670623105238,-2.132750026914808
9.281426918545277e-2,-2.126969824455153
1.2893508829462164e-2,-2.1161500054903937
-6.61901641081164e-2,-2.1003332709028775
-0.1441246425000926,-2.079582042118044
-0.22060235456512833,-2.053978214755572
-0.2953214777130473,-2.023622835424784
-0.36798712970070535,-1.9886357029398471
-0.43831253239748325,-1.9491548955285776
-0.5060201435675598,-1.9053362259007627
-0.5708427522023107,-1.857352626326577
-0.6325245330800878,-1.8053934661519184
-0.6908220563914917,-1.7496638044441153
-0.7455052484456172,-1.6903835807174667
-0.7963582996658004,-1.6277867469324638
-0.8431805162914252,-1.5621203441942844
-0.8857871124245055,-1.493643527794407
-0.9240099392952067,-1.4226265444430823
-0.9576981488682189,-1.349349665729025
-0.9867187891710354,-1.2741020820154976
-1.0109573289946516,-1.1971807611380645
-1.0303181098959184,-1.1188892764082237
-1.0447247237177186,-1.0395366085482252
-1.0541203141370525,-0.9594359262853248
-1.058467801050973,-0.878903350417897
-1.0577500269148077,-0.7982567062310532
-1.0519698244551527,-0.7178142691854533
-1.0411500054903928,-0.6378935088294632
-1.025333270902877,-0.5588098358918837
-1.0045820421180436,-0.48087535749990773
-0.9789782147555715,-0.404397645434872
-0.948622835424784,-0.32967852228695227
-0.9136357029398467,-0.25701287029929565
-0.8741548955285766,-0.1866874676025163
-0.8303362259007614,-0.11897985643244025
-0.7823526263265762,-5.4157247797689934e-2
-0.7303934661519179,7.524533080087825e-3
-0.6746638044441151,6.58220563914913e-2
-0.615383580717467,0.12050524844561644
-0.5527867469324632,0.17135829966580018
-0.4871203441942835,0.2181805162914246
-0.4186435277944065,0.2607871124245047
-0.34762654444308194,0.29900993929520653
-0.27434966572902497,0.33269814886821814
-0.19910208201549628,0.3617187891710355
-0.12218076113806475,0.3859573289946513
-4.388927640822393e-2,0.4053181098959182
3.5463391451774795e-2,0.4197247237177182
0.11556407371467636,0.42912031413705276
0.19609664958210415,0.4334678010509728
0.27674329376894735,0.43275002691480763
0.35718573081454696,0.42696982445515275
0.437106491170538,0.4161500054903929
0.5161901641081164,0.4003332709028773
0.5941246425000926,0.3795820421180436
0.670602354565129,0.35397821475557145
0.745321477713047,0.3236228354247844
0.8179871297007053,0.2886357029398468
0.8883125323974834,0.24915489552857728
0.9560201435675602,0.20533622590076167
1.0208427522023107,0.15735262632657648
1.0825245330800874,0.10539346615191802
1.1408220563914924,4.966380444411511e-2
1.1955052484456168,-9.616419282532984e-3
1.2463582996658005,-7.221325306753623e-2
1.2931805162914247,-0.1378796558057166"/></g><g></g></svg>