<svg xmlns="http://www.w3.org/2000/svg" height="300.0" viewBox="-0.6 -0.5331278280542987 1.1153612852464665 1.1070082951920655" width="302.263665979021" xmlns:xlink="http://www.w3.org/1999/xlink"><g stroke-opacity="0.0" fill-opacity="2.5e-2" stroke="#000000" stroke-width="0.0" fill="#808080"><rect height="0.904977375565611" width="0.8728598431758912" x="-0.37285984317589116" y="-0.5"/></g><g stroke-opacity="5.0e-2" stroke="#808080" stroke-width="5.0e-3" fill="none"><polyline points="-0.37285984317589116,0.4049773755656109
0.5,0.4049773755656109"/></g><g stroke-opacity="5.0e-2" stroke="#808080" stroke-width="5.0e-3" fill="none"><polyline points="-0.37285984317589116,0.2756948933419522
0.5,0.2756948933419522"/></g><g stroke-opacity="5.0e-2" stroke="#808080" stroke-width="5.0e-3" fill="none"><polyline points="-0.37285984317589116,0.1464124111182935
0.5,0.1464124111182935"/></g><g stroke-opacity="5.0e-2" stroke="#808080" stroke-width="5.0e-3" fill="none"><polyline points="-0.37285984317589116,1.712992889463477e-2
0.5,1.712992889463477e-2"/></g><g stroke-opacity="5.0e-2" stroke="#808080" stroke-width="5.0e-3" fill="none"><polyline points="-0.37285984317589116,-0.11215255332902385
0.5,-0.11215255332902385"/></g><g stroke-opacity="5.0e-2" stroke="#808080" stroke-width="5.0e-3" fill="none"><polyline points="-0.37285984317589116,-0.24143503555268253
0.5,-0.24143503555268253"/></g><g stroke-opacity="5.0e-2" stroke="#808080" stroke-width="5.0e-3" fill="none"><polyline points="-0.37285984317589116,-0.3707175177763412
0.5,-0.3707175177763412"/></g><g stroke-opacity="5.0e-2" stroke="#808080" stroke-width="5.0e-3" fill="none"><polyline points="-0.37285984317589116,-0.5
0.5,-0.5"/></g><g fill-opacity="1.0" font-size="5.0e-2" stroke="none" stroke-width="0.0" fill="#808080" text-anchor="end"><text x="-0.5" y="0.41809954751131223">-0.2</text></g><g fill-opacity="1.0" font-size="5.0e-2" stroke="none" stroke-width="0.0" fill="#808080" text-anchor="end"><text x="-0.5" y="0.28881706528765355">0</text></g><g fill-opacity="1.0" font-size="5.0e-2" stroke="none" stroke-width="0.0" fill="#808080" text-anchor="end"><text x="-0.5" y="0.15953458306399487">0.2</text></g><g fill-opacity="1.0" font-size="5.0e-2" stroke="none" stroke-width="0.0" fill="#808080" text-anchor="end"><text x="-0.5" y="3.0252100840336138e-2">0.4</text></g><g fill-opacity="1.0" font-size="5.0e-2" stroke="none" stroke-width="0.0" fill="#808080" text-anchor="end"><text x="-0.5" y="-9.903038138332254e-2">0.6</text></g><g fill-opacity="1.0" font-size="5.0e-2" stroke="none" stroke-width="0.0" fill="#808080" text-anchor="end"><text x="-0.5" y="-0.22831286360698122">0.8</text></g><g fill-opacity="1.0" font-size="5.0e-2" stroke="none" stroke-width="0.0" fill="#808080" text-anchor="end"><text x="-0.5" y="-0.35759534583064">1</text></g><g fill-opacity="1.0" font-size="5.0e-2" stroke="none" stroke-width="0.0" fill="#808080" text-anchor="end"><text x="-0.5" y="-0.4868778280542987">1.2</text></g><g stroke-opacity="1.0" fill-opacity="1.0" stroke="#808080" stroke-width="5.0e-3" fill="#808080"><g transform="rotate(-90.0, -0.47156659060854533, 0.4049773755656109)"><polyline points="-0.47156659060854533,0.41997737556561093
-0.47156659060854533,0.3899773755656109"/></g><g transform="rotate(-90.0, -0.47156659060854533, 0.2756948933419522)"><polyline points="-0.47156659060854533,0.2906948933419522
-0.47156659060854533,0.26069489334195217"/></g><g transform="rotate(-90.0, -0.47156659060854533, 0.1464124111182935)"><polyline points="-0.47156659060854533,0.16141241111829352
-0.47156659060854533,0.1314124111182935"/></g><g transform="rotate(-90.0, -0.47156659060854533, 1.712992889463477e-2)"><polyline points="-0.47156659060854533,3.212992889463477e-2
-0.47156659060854533,2.129928894634772e-3"/></g><g transform="rotate(-90.0, -0.47156659060854533, -0.11215255332902385)"><polyline points="-0.47156659060854533,-9.715255332902385e-2
-0.47156659060854533,-0.12715255332902387"/></g><g transform="rotate(-90.0, -0.47156659060854533, -0.24143503555268253)"><polyline points="-0.47156659060854533,-0.22643503555268252
-0.47156659060854533,-0.25643503555268254"/></g><g transform="rotate(-90.0, -0.47156659060854533, -0.3707175177763412)"><polyline points="-0.47156659060854533,-0.3557175177763412
-0.47156659060854533,-0.3857175177763412"/></g><g transform="rotate(-90.0, -0.47156659060854533, -0.5)"><polyline points="-0.47156659060854533,-0.485
-0.47156659060854533,-0.515"/></g></g><g stroke-opacity="1.0" fill-opacity="1.0" stroke="#808080" stroke-width="0.0" fill="#808080"><rect height="0.904977375565611" width="4.364299215879441e-3" x="-0.46065584256884673" y="-0.5"/></g><g stroke-opacity="5.0e-2" stroke="#808080" stroke-width="5.0e-3" fill="none"><polyline points="-0.37285984317589116,0.4049773755656109
-0.37285984317589116,-0.5"/></g><g stroke-opacity="5.0e-2" stroke="#808080" stroke-width="5.0e-3" fill="none"><polyline points="-0.2855738588583021,0.4049773755656109
-0.2855738588583021,-0.5"/></g><g stroke-opacity="5.0e-2" stroke="#808080" stroke-width="5.0e-3" fill="none"><polyline points="-0.19828787454071295,0.4049773755656109
-0.19828787454071295,-0.5"/></g><g stroke-opacity="5.0e-2" stroke="#808080" stroke-width="5.0e-3" fill="none"><polyline points="-0.11100189022312379,0.4049773755656109
-0.11100189022312379,-0.5"/></g><g stroke-opacity="5.0e-2" stroke="#808080" stroke-width="5.0e-3" fill="none"><polyline points="-2.3715905905534684e-2,0.4049773755656109
-2.3715905905534684e-2,-0.5"/></g><g stroke-opacity="5.0e-2" stroke="#808080" stroke-width="5.0e-3" fill="none"><polyline points="6.357007841205442e-2,0.4049773755656109
6.357007841205442e-2,-0.5"/></g><g stroke-opacity="5.0e-2" stroke="#808080" stroke-width="5.0e-3" fill="none"><polyline points="0.15085606272964358,0.4049773755656109
0.15085606272964358,-0.5"/></g><g stroke-opacity="5.0e-2" stroke="#808080" stroke-width="5.0e-3" fill="none"><polyline points="0.23814204704723274,0.4049773755656109
0.23814204704723274,-0.5"/></g><g stroke-opacity="5.0e-2" stroke="#808080" stroke-width="5.0e-3" fill="none"><polyline points="0.3254280313648217,0.4049773755656109
0.3254280313648217,-0.5"/></g><g stroke-opacity="5.0e-2" stroke="#808080" stroke-width="5.0e-3" fill="none"><polyline points="0.41271401568241106,0.4049773755656109
0.41271401568241106,-0.5"/></g><g stroke-opacity="5.0e-2" stroke="#808080" stroke-width="5.0e-3" fill="none"><polyline points="0.5,0.4049773755656109
0.5,-0.5"/></g><g fill-opacity="1.0" font-size="4.137931034482759e-2" stroke="none" stroke-width="0.0" fill="#808080" text-anchor="end"><text transform="rotate(-45.0, -0.37285984317589116, 0.5)" x="-0.37285984317589116" y="0.5">-0.2</text></g><g fill-opacity="1.0" font-size="4.137931034482759e-2" stroke="none" stroke-width="0.0" fill="#808080" text-anchor="end"><text transform="rotate(-45.0, -0.2855738588583021, 0.5)" x="-0.2855738588583021" y="0.5">0</text></g><g fill-opacity="1.0" font-size="4.137931034482759e-2" stroke="none" stroke-width="0.0" fill="#808080" text-anchor="end"><text transform="rotate(-45.0, -0.19828787454071295, 0.5)" x="-0.19828787454071295" y="0.5">0.2</text></g><g fill-opacity="1.0" font-size="4.137931034482759e-2" stroke="none" stroke-width="0.0" fill="#808080" text-anchor="end"><text transform="rotate(-45.0, -0.11100189022312379, 0.5)" x="-0.11100189022312379" y="0.5">0.4</text></g><g fill-opacity="1.0" font-size="4.137931034482759e-2" stroke="none" stroke-width="0.0" fill="#808080" text-anchor="end"><text transform="rotate(-45.0, -2.3715905905534684e-2, 0.5)" x="-2.3715905905534684e-2" y="0.5">0.6</text></g><g fill-opacity="1.0" font-size="4.137931034482759e-2" stroke="none" stroke-width="0.0" fill="#808080" text-anchor="end"><text transform="rotate(-45.0, 6.357007841205442e-2, 0.5)" x="6.357007841205442e-2" y="0.5">0.8</text></g><g fill-opacity="1.0" font-size="4.137931034482759e-2" stroke="none" stroke-width="0.0" fill="#808080" text-anchor="end"><text transform="rotate(-45.0, 0.15085606272964358, 0.5)" x="0.15085606272964358" y="0.5">1</text></g><g fill-opacity="1.0" font-size="4.137931034482759e-2" stroke="none" stroke-width="0.0" fill="#808080" text-anchor="end"><text transform="rotate(-45.0, 0.23814204704723274, 0.5)" x="0.23814204704723274" y="0.5">1.2</text></g><g fill-opacity="1.0" font-size="4.137931034482759e-2" stroke="none" stroke-width="0.0" fill="#808080" text-anchor="end"><text transform="rotate(-45.0, 0.3254280313648217, 0.5)" x="0.3254280313648217" y="0.5">1.4</text></g><g fill-opacity="1.0" font-size="4.137931034482759e-2" stroke="none" stroke-width="0.0" fill="#808080" text-anchor="end"><text transform="rotate(-45.0, 0.41271401568241106, 0.5)" x="0.41271401568241106" y="0.5">1.6</text></g><g fill-opacity="1.0" font-size="4.137931034482759e-2" stroke="none" stroke-width="0.0" fill="#808080" text-anchor="end"><text transform="rotate(-45.0, 0.5, 0.5)" x="0.5" y="0.5">1.8</text></g><g stroke-opacity="1.0" fill-opacity="1.0" stroke="#808080" stroke-width="5.0e-3" fill="#808080"><polyline points="-0.37285984317589116,0.4448642533936652
-0.37285984317589116,0.41486425339366517"/><polyline points="-0.2855738588583021,0.4448642533936652
-0.2855738588583021,0.41486425339366517"/><polyline points="-0.19828787454071295,0.4448642533936652
-0.19828787454071295,0.41486425339366517"/><polyline points="-0.11100189022312379,0.4448642533936652
-0.11100189022312379,0.41486425339366517"/><polyline points="-2.3715905905534684e-2,0.4448642533936652
-2.3715905905534684e-2,0.41486425339366517"/><polyline points="6.357007841205442e-2,0.4448642533936652
6.357007841205442e-2,0.41486425339366517"/><polyline points="0.15085606272964358,0.4448642533936652
0.15085606272964358,0.41486425339366517"/><polyline points="0.23814204704723274,0.4448642533936652
0.23814204704723274,0.41486425339366517"/><polyline points="0.3254280313648217,0.4448642533936652
0.3254280313648217,0.41486425339366517"/><polyline points="0.41271401568241106,0.4448642533936652
0.41271401568241106,0.41486425339366517"/><polyline points="0.5,0.4448642533936652
0.5,0.41486425339366517"/></g><g stroke-opacity="1.0" fill-opacity="1.0" stroke="#808080" stroke-width="0.0" fill="#808080"><rect height="4.524886877828038e-3" width="0.8728598431758912" x="-0.37285984317589116" y="0.414027149321267"/></g><g stroke-opacity="1.0" stroke="#1f78b4" stroke-width="2.0e-3" fill="none"><polyline points="-0.285573858858302,0.27569489334195224
-0.2902418969886069,0.2616437350831364
-0.29401236318484136,0.2468751183933225
-0.29687643495579874,0.23142360027000008
-0.29882741067714425,0.2153253356276214
-0.2998607252725055,0.19861799269893382
-0.2999739608952672,0.1813406648953091
-0.29916685258607556,0.16353377933230406
-0.29744128889281574,0.1452390022344962
-0.2948013074516096,0.12649914144093505
-0.29125308553917517,0.10735804623933648
-0.286804925618654,8.786050476339768e-2
-0.2814672359127278,6.805213919331277e-2
-0.27525250604948026,4.7979299004706266e-2
-0.2681752778379916,2.7688952515774468e-2
-0.26025211124204684,7.228576986399449e-3
-0.2515015456315758,-1.33539524736066e-2
-0.24194405640249295,-3.401047492718201e-2
-0.23160200706644135,-5.469265630150533e-2
-0.2204995969225465,-7.535210248459867e-2
-0.20866280443362073,-9.594047256242322e-2
-0.196119326439315,-0.11640959193149136
-0.18289851334844998,-0.1367115650223324
-0.16903130046217013,-0.15679888737004855
-0.1545501355886193,-0.17662455676972633
-0.13948890311850853,-0.19614218325661403
-0.12388284473923417,-0.21530609765372133
-0.10776847697306502,-0.2340714584328526
-9.118350573235146e-2,-0.25239435663902854
-7.416673809168728e-2,-0.27023191863278706
-5.675799148346905e-2,-0.2875424064099552
-3.899800052932523e-2,-0.3042853152641525
-2.092832172541992e-2,-0.3204214685635123
-2.5912362046561777e-3,-0.33591310941984587
1.5970349196691158e-2,-0.3507239890357591
3.471300233642627e-2,-0.36481945152299544
5.3592867393039034e-2,-0.37816651499354137
7.256576748367927e-2,-0.3907339487337461
9.158730803337978e-2,-0.40249234628088426
0.11061298065365477,-0.41341419423115777
0.12959826728741197,-0.42347393661814614
0.14849874437648602,-0.4326480347110593
0.16727018680805572,-0.4409150220928708
0.18586867139672048,-0.44825555488945834
0.2042506796600968,-0.45465245703222046
0.22237319964745506,-0.4600907604482538
0.24019382658312372,-0.46455774008405915
0.2576708620891701,-0.4680429436808158
0.2747634117551838,-0.4705382162315601
0.29143148082686243,-0.4720377190630387
0.30763606778949604,-0.47253794349758127
0.3233392556273792,-0.4720377190630387
0.33850430054560565,-0.4705382162315601
0.3530957179466552,-0.4680429436808158
0.3670793654605904,-0.46455774008405926
0.3804225228345812,-0.4600907604482538
0.3930939684948297,-0.45465245703222046
0.4050640526017425,-0.44825555488945834
0.4163047664274121,-0.4409150220928708
0.42678980789307197,-0.4326480347110593
0.43649464311317165,-0.42347393661814614
0.44539656380206816,-0.41341419423115777
0.4534747404090087,-0.40249234628088426
0.46071027085706906,-0.39073394873374623
0.4670862247720121,-0.37816651499354137
0.47258768309756727,-0.36481945152299555
0.47720177300444144,-0.3507239890357591
0.4809176980113745,-0.33591310941984587
0.4837267632477613,-0.3204214685635125
0.485622395798727,-0.3042853152641527
0.486600160085051,-0.2875424064099552
0.4866577682419524,-0.2702319186327873
0.48579508547245054,-0.2523943566390283
0.48401413036277696,-0.2340714584328527
0.4813190701590959,-0.21530609765372144
0.47771621101659056,-0.1961421832566138
0.47321398324372943,-0.17662455676972633
0.4678229215762366,-0.15679888737004855
0.46155564052692877,-0.13671156502233228
0.4544268048690906,-0.11640959193149147
0.44645309532246047,-9.594047256242322e-2
0.4376531695221153,-7.535210248459867e-2
0.42804761836158123,-5.4692656301505105e-2
0.417658917812326,-3.401047492718201e-2
0.4065113763323688,-1.3353952473606712e-2
0.3946310779870641,7.228576986399449e-3
0.38204582141515486,2.7688952515774357e-2
0.368785054782905,4.7979299004706044e-2
0.3548798068785096,6.805213919331277e-2
0.34036261450802396,8.786050476339763e-2
0.3252674463626819,0.10735804623933659
0.30962962353576295,0.126499141440935
0.2934857368749765,0.14523900223449593
0.27687356136375607,0.1635337793323039
0.2598319677318057,0.1813406648953088
0.242400831501709,0.19861799269893382
0.22462093968443697,0.21532533562762124
0.206533895342063,0.23142360027000014
0.18818202024101005,0.24687511839332277
0.16960825582360262,0.26164373508313643
0.15085606272964358,0.2756948933419522"/></g><g stroke-opacity="1.0" stroke="#1f78b4" stroke-width="2.0e-3" fill="none"><polyline points="0.4713126292255504,-0.36818252800556583
0.4637158973094432,-0.3851201212368133
0.45465751314869973,-0.40071532229115525
0.44417322604722087,-0.41490658403479996
0.43230441269638054,-0.4276379000410152
0.41909791388012996,-0.4388590256219107
0.40460584961582113,-0.44852567612126226
0.3888854134603108,-0.45659970168582253
0.371998646793121,-0.46304923782535856
0.3540121939674571,-0.46784883116724085
0.33499703929539304,-0.47097953990927444
0.31502822690522236,-0.47242900857433934
0.2941845645765657,-0.4721915167718146
0.27254831272207114,-0.4702680017733434
0.2502048597431452,-0.46666605481385603
0.22724238504094274,-0.4613998911324275
0.20375151101255662,-0.4544902938712273
0.1798249454058175,-0.4459645320539508
0.15555711544416717,-0.4358562529674409
0.1310437951655472,-0.4242053493712179
0.10638172744602648,-0.411057802058985
8.166824219986724e-2,-0.39646549839344114
5.700087226281847e-2,-0.3804860275305637
3.2476968474572154e-2,-0.3631824531415234
8.193315479474883e-3,-0.34462306452918245
-1.5754250238247614e-2,-0.3248811071214155
-3.9271218577309475e-2,-0.3040344934048689
-6.226477880755732e-2,-0.2821654954399694
-8.464418585152095e-2,-0.25936042017069005
-0.10632111841377612,-0.23570926881047083
-0.12721002754474825,-0.2113053816485474
-0.14722847426333208,-0.1862450696784722
-0.16629745490588804,-0.16062723450262328
-0.18434171291760815,-0.13455297801276456
-0.20129003585575772,-0.10812520338706677
-0.21707553643265193,-8.144820897827576e-2
-0.23163591648922316,-5.4627276695763394e-2
-0.2449137128573931,-2.776825650593029e-2
-0.25685652414094445,-9.77148690747165e-4
-0.2674172175198927,2.5640314486932936e-2
-0.276554114762193,5.197908606030993e-2
-0.28423115670868127,7.793521893102334e-2
-0.2904180455821016,0.10340627610086217
-0.29509036455859117,0.1282917349437956
-0.29822967412972934,0.15249338392285577
-0.29982358487485294,0.17591571018620383
-0.29986580635643945,0.1984662765127213
-0.2983561719455903,0.2200560861194914
-0.29530063947963864,0.24059993389144174
-0.2907112677492878,0.2600167426470077
-0.2846061689080727,0.27822988311272734
-0.2770094369919655,0.29516747634397494
-0.2679510528312222,0.31076267739831687
-0.2574667657297432,0.3249539391419613
-0.2455979523789032,0.33768525514817693
-0.23239145356265234,0.3489063807290723
-0.21789938929834357,0.3585730312284241
-0.20217895314283346,0.3666470567929838
-0.18529218647564338,0.37309659293252007
-0.16730573364997958,0.37789618627440236
-0.14829057897791564,0.38102689501643605
-0.12832176658774475,0.3824763636815012
-0.10747810425908827,0.382238871878976
-8.584185240459363e-2,0.3803153568805053
-6.349839942566754e-2,0.37671340992101754
-4.053592472346523e-2,0.371447246239589
-1.7045050695079e-2,0.36453764897838886
6.881514911659892e-3,0.35601188716111243
3.114934487331067e-2,0.34590360807460213
5.5662665151930524e-2,0.3342527044783794
8.032473287145092e-2,0.3211051571661468
0.1050382181176105,0.3065128535006024
0.12970558805465915,0.2905333826377253
0.15422949184290524,0.27322980824868504
0.17851314483800274,0.2546704196363439
0.20246071055572512,0.2349284622285771
0.22597767889478682,0.21408184851203044
0.24897123912503494,0.1922128505471309
0.2713506461689983,0.16940777527785178
0.29302757873125374,0.1457566239176324
0.3139164878622256,0.12135273675570901
0.3339349345808095,9.629242478563377e-2
0.3530039152233654,7.067458960978523e-2
0.3710481732350859,4.460033311992606e-2
0.3879964961732354,1.817255849422822e-2
0.4037819967501295,-8.504435914562736e-3
0.41834237680670094,-3.532536819707499e-2
0.43162017317487067,-6.2184388386908096e-2
0.4435629844584221,-8.897549620209133e-2
0.4541236778373703,-0.11559295937977165
0.46326057507967056,-0.14193173095314826
0.4709376170261588,-0.16788786382386178
0.4771245058995792,-0.19335892099370067
0.4817968248760687,-0.21824437983663403
0.48493613444720685,-0.24244602881569433
0.48653004519233045,-0.2658683550790423
0.48657226667391695,-0.28841892140556
0.4850626322630679,-0.31000873101232984
0.4820070997971162,-0.3305525787842801
0.4774177280667655,-0.3499693875398461
0.4713126292255504,-0.36818252800556583"/></g><g stroke-opacity="0.8" fill-opacity="0.3" stroke="#1f78b4" stroke-width="3.0e-3" fill="#a6cee3"><rect height="3.0e-2" width="3.0e-2" x="7.835323015873875e-2" y="-5.997632244641925e-2"/><rect height="3.0000000000000027e-2" width="3.0000000000000027e-2" x="-0.3005738588583021" y="0.26069489334195217"/><rect height="3.0000000000000027e-2" width="3.0000000000000027e-2" x="0.13585606272964346" y="0.26069489334195217"/></g><g stroke-opacity="1.0" fill-opacity="0.1" stroke="#808080" stroke-width="2.0e-3" fill="#6666cc"><rect height="0.7482328368395335" width="0.7867852302160332" x="-0.3000393849492778" y="-0.47253794349758127"/></g><g stroke-opacity="1.0" stroke="#e63305" stroke-width="5.0e-3" fill="none" stroke-linecap="round" stroke-dasharray="3.0e-2 1.0e-2"><polyline points="0.4713126292255504,-0.36818252800556583
-0.2846061689080727,0.27822988311272734"/></g><g stroke-opacity="1.0" stroke="#e6e605" stroke-width="5.0e-3" fill="none" stroke-linecap="round" stroke-dasharray="3.0e-2 1.0e-2"><polyline points="-1.5754250238247614e-2,-0.3248811071214155
0.20246071055572512,0.2349284622285771"/></g><g></g></svg>