<svg width="444.0791995476048" xmlns:xlink="http://www.w3.org/1999/xlink" xmlns="http://www.w3.org/2000/svg" viewBox="-0.77 -0.5202581561956462 1.54 1.0403549647690133" height="300.0"><style>svg {
  color-scheme: light dark;
}
@media (prefers-color-scheme:dark) {
  svg {
    background-color: #f0f0f0;
  }
}</style><g stroke-opacity="0.4" fill="#0d0d0d" stroke="#0d0d0d" stroke-width="4.0e-3" fill-opacity="0.4"><g transform="rotate(-90.0, -0.6381491344873502, 0.4043842256003525)"><polyline points="-0.6381491344873502,0.4193842256003525
-0.6381491344873502,0.38938422560035246"/></g><g transform="rotate(-90.0, -0.6381491344873502, 0.30646740593865507)"><polyline points="-0.6381491344873502,0.3214674059386551
-0.6381491344873502,0.29146740593865506"/></g><g transform="rotate(-90.0, -0.6381491344873502, 0.20855058627695766)"><polyline points="-0.6381491344873502,0.22355058627695767
-0.6381491344873502,0.19355058627695765"/></g><g transform="rotate(-90.0, -0.6381491344873502, 0.11063376661526025)"><polyline points="-0.6381491344873502,0.12563376661526027
-0.6381491344873502,9.563376661526025e-2"/></g><g transform="rotate(-90.0, -0.6381491344873502, 1.2716946953562902e-2)"><polyline points="-0.6381491344873502,2.77169469535629e-2
-0.6381491344873502,-2.2830530464370974e-3"/></g><g transform="rotate(-90.0, -0.6381491344873502, -8.519987270813456e-2)"><polyline points="-0.6381491344873502,-7.019987270813456e-2
-0.6381491344873502,-0.10019987270813456"/></g><g transform="rotate(-90.0, -0.6381491344873502, -0.18311669236983197)"><polyline points="-0.6381491344873502,-0.16811669236983195
-0.6381491344873502,-0.19811669236983198"/></g><g transform="rotate(-90.0, -0.6381491344873502, -0.2810335120315294)"><polyline points="-0.6381491344873502,-0.26603351203152936
-0.6381491344873502,-0.2960335120315294"/></g><g transform="rotate(-90.0, -0.6381491344873502, -0.3789503316932268)"><polyline points="-0.6381491344873502,-0.36395033169322677
-0.6381491344873502,-0.3939503316932268"/></g><g transform="rotate(-90.0, -0.6381491344873502, -0.4768671513549241)"><polyline points="-0.6381491344873502,-0.46186715135492407
-0.6381491344873502,-0.4918671513549241"/></g></g><g fill="#0d0d0d" stroke="none" stroke-width="0.0" font-size="4.438526409232135e-2" fill-opacity="1.0" text-anchor="end"><text x="-0.6701065246338216" y="0.41650143203348755">-0.1</text><text x="-0.6701065246338216" y="0.31858461237179014">0</text><text x="-0.6701065246338216" y="0.22066779271009274">0.1</text><text x="-0.6701065246338216" y="0.12275097304839533">0.2</text><text x="-0.6701065246338216" y="2.4834153386697866e-2">0.3</text><text x="-0.6701065246338216" y="-7.308266627499949e-2">0.4</text><text x="-0.6701065246338216" y="-0.1709994859366969">0.5</text><text x="-0.6701065246338216" y="-0.2689163055983944">0.6</text><text x="-0.6701065246338216" y="-0.3668331252600917">0.7</text><text x="-0.6701065246338216" y="-0.4647499449217891">0.8</text></g><g stroke-opacity="5.0e-2" fill="none" stroke="#0d0d0d" stroke-width="5.0e-3"><polyline points="-0.6115179760319573,0.4043842256003525
0.720039946737683,0.4043842256003525"/><polyline points="-0.6115179760319573,0.30646740593865507
0.720039946737683,0.30646740593865507"/><polyline points="-0.6115179760319573,0.20855058627695766
0.720039946737683,0.20855058627695766"/><polyline points="-0.6115179760319573,0.11063376661526025
0.720039946737683,0.11063376661526025"/><polyline points="-0.6115179760319573,1.2716946953562902e-2
0.720039946737683,1.2716946953562902e-2"/><polyline points="-0.6115179760319573,-8.519987270813456e-2
0.720039946737683,-8.519987270813456e-2"/><polyline points="-0.6115179760319573,-0.18311669236983197
0.720039946737683,-0.18311669236983197"/><polyline points="-0.6115179760319573,-0.2810335120315294
0.720039946737683,-0.2810335120315294"/><polyline points="-0.6115179760319573,-0.3789503316932268
0.720039946737683,-0.3789503316932268"/><polyline points="-0.6115179760319573,-0.4768671513549241
0.720039946737683,-0.4768671513549241"/></g><g stroke-opacity="0.0" fill="#0d0d0d" stroke="#000000" stroke-width="0.0" fill-opacity="0.4"><rect width="3.550821127385806e-3" x="-0.6239458499778074" y="-0.4786296541088346" height="0.8847763824630976"/></g><g stroke-opacity="0.4" fill="#0d0d0d" stroke="#0d0d0d" stroke-width="4.0e-3" fill-opacity="0.4"><polyline points="-0.6115179760319573,0.44582176690901076
-0.6115179760319573,0.41582176690901074"/><polyline points="-0.4635670957242195,0.44582176690901076
-0.4635670957242195,0.41582176690901074"/><polyline points="-0.31561621541648166,0.44582176690901076
-0.31561621541648166,0.41582176690901074"/><polyline points="-0.16766533510874393,0.44582176690901076
-0.16766533510874393,0.41582176690901074"/><polyline points="-1.9714454801006087e-2,0.44582176690901076
-1.9714454801006087e-2,0.41582176690901074"/><polyline points="0.12823642550673175,0.44582176690901076
0.12823642550673175,0.41582176690901074"/><polyline points="0.2761873058144697,0.44582176690901076
0.2761873058144697,0.41582176690901074"/><polyline points="0.42413818612220777,0.44582176690901076
0.42413818612220777,0.41582176690901074"/><polyline points="0.5720890664299452,0.44582176690901076
0.5720890664299452,0.41582176690901074"/><polyline points="0.720039946737683,0.44582176690901076
0.720039946737683,0.41582176690901074"/></g><g fill="#0d0d0d" stroke="none" stroke-width="0.0" font-size="4.438526409232135e-2" fill-opacity="1.0" text-anchor="middle"><text x="-0.6115179760319573" y="0.48678122934567086">-0.1</text><text x="-0.4635670957242195" y="0.48678122934567086">0</text><text x="-0.31561621541648166" y="0.48678122934567086">0.1</text><text x="-0.16766533510874393" y="0.48678122934567086">0.2</text><text x="-1.9714454801006087e-2" y="0.48678122934567086">0.3</text><text x="0.12823642550673175" y="0.48678122934567086">0.4</text><text x="0.2761873058144697" y="0.48678122934567086">0.5</text><text x="0.42413818612220777" y="0.48678122934567086">0.6</text><text x="0.5720890664299452" y="0.48678122934567086">0.7</text><text x="0.720039946737683" y="0.48678122934567086">0.8</text></g><g stroke-opacity="5.0e-2" fill="none" stroke="#0d0d0d" stroke-width="5.0e-3"><polyline points="-0.6115179760319573,0.4043842256003525
-0.6115179760319573,-0.4768671513549241"/><polyline points="-0.4635670957242195,0.4043842256003525
-0.4635670957242195,-0.4768671513549241"/><polyline points="-0.31561621541648166,0.4043842256003525
-0.31561621541648166,-0.4768671513549241"/><polyline points="-0.16766533510874393,0.4043842256003525
-0.16766533510874393,-0.4768671513549241"/><polyline points="-1.9714454801006087e-2,0.4043842256003525
-1.9714454801006087e-2,-0.4768671513549241"/><polyline points="0.12823642550673175,0.4043842256003525
0.12823642550673175,-0.4768671513549241"/><polyline points="0.2761873058144697,0.4043842256003525
0.2761873058144697,-0.4768671513549241"/><polyline points="0.42413818612220777,0.4043842256003525
0.42413818612220777,-0.4768671513549241"/><polyline points="0.5720890664299452,0.4043842256003525
0.5720890664299452,-0.4768671513549241"/><polyline points="0.720039946737683,0.4043842256003525
0.720039946737683,-0.4768671513549241"/></g><g stroke-opacity="0.0" fill="#0d0d0d" stroke="#000000" stroke-width="0.0" fill-opacity="0.4"><rect width="1.335108743897026" x="-0.6132933865956502" y="0.4131967393699052" height="3.525005507821144e-3"/></g><g stroke-opacity="0.0" fill="#ffffff" stroke="#000000" stroke-width="0.0" fill-opacity="2.0e-2"><rect width="1.3315579227696404" x="-0.6115179760319573" y="-0.4768671513549241" height="0.8812513769552766"/></g><g stroke-opacity="1.0" fill="none" stroke="#0d0d0d" stroke-width="1.2e-2"><polyline points="-0.47836218375499334,0.31625908790482476
0.6756546826453615,-0.4474921054564148"/></g></svg>