<svg xmlns="http://www.w3.org/2000/svg" height="300.0" viewBox="-0.4100750000000001 -1.4317499999999994 2.047575 1.9692499999999995" width="311.93220769328434" xmlns:xlink="http://www.w3.org/1999/xlink"><g stroke-opacity="0.0" fill-opacity="2.5e-2" stroke="#000000" stroke-width="0.0" fill="#808080"><rect height="1.7999999999999994" width="1.7999999999999998" x="-0.2" y="-1.3999999999999995"/></g><g stroke-opacity="5.0e-2" stroke="#808080" stroke-width="5.0e-3" fill="none"><polyline points="-0.2,0.4
1.5999999999999999,0.4"/></g><g stroke-opacity="5.0e-2" stroke="#808080" stroke-width="5.0e-3" fill="none"><polyline points="-0.2,0.20000000000000012
1.5999999999999999,0.20000000000000012"/></g><g stroke-opacity="5.0e-2" stroke="#808080" stroke-width="5.0e-3" fill="none"><polyline points="-0.2,1.1102230246251565e-16
1.5999999999999999,1.1102230246251565e-16"/></g><g stroke-opacity="5.0e-2" stroke="#808080" stroke-width="5.0e-3" fill="none"><polyline points="-0.2,-0.19999999999999996
1.5999999999999999,-0.19999999999999996"/></g><g stroke-opacity="5.0e-2" stroke="#808080" stroke-width="5.0e-3" fill="none"><polyline points="-0.2,-0.3999999999999999
1.5999999999999999,-0.3999999999999999"/></g><g stroke-opacity="5.0e-2" stroke="#808080" stroke-width="5.0e-3" fill="none"><polyline points="-0.2,-0.6
1.5999999999999999,-0.6"/></g><g stroke-opacity="5.0e-2" stroke="#808080" stroke-width="5.0e-3" fill="none"><polyline points="-0.2,-0.7999999999999999
1.5999999999999999,-0.7999999999999999"/></g><g stroke-opacity="5.0e-2" stroke="#808080" stroke-width="5.0e-3" fill="none"><polyline points="-0.2,-0.9999999999999999
1.5999999999999999,-0.9999999999999999"/></g><g stroke-opacity="5.0e-2" stroke="#808080" stroke-width="5.0e-3" fill="none"><polyline points="-0.2,-1.1999999999999993
1.5999999999999999,-1.1999999999999993"/></g><g stroke-opacity="5.0e-2" stroke="#808080" stroke-width="5.0e-3" fill="none"><polyline points="-0.2,-1.3999999999999995
1.5999999999999999,-1.3999999999999995"/></g><g fill-opacity="1.0" font-size="5.0e-2" stroke="none" stroke-width="0.0" fill="#808080" text-anchor="end"><text x="-0.31007500000000005" y="0.41450000000000004">-0.4</text></g><g fill-opacity="1.0" font-size="5.0e-2" stroke="none" stroke-width="0.0" fill="#808080" text-anchor="end"><text x="-0.31007500000000005" y="0.21450000000000008">-0.2</text></g><g fill-opacity="1.0" font-size="5.0e-2" stroke="none" stroke-width="0.0" fill="#808080" text-anchor="end"><text x="-0.31007500000000005" y="1.4500000000000068e-2">0</text></g><g fill-opacity="1.0" font-size="5.0e-2" stroke="none" stroke-width="0.0" fill="#808080" text-anchor="end"><text x="-0.31007500000000005" y="-0.18549999999999978">0.2</text></g><g fill-opacity="1.0" font-size="5.0e-2" stroke="none" stroke-width="0.0" fill="#808080" text-anchor="end"><text x="-0.31007500000000005" y="-0.38549999999999984">0.4</text></g><g fill-opacity="1.0" font-size="5.0e-2" stroke="none" stroke-width="0.0" fill="#808080" text-anchor="end"><text x="-0.31007500000000005" y="-0.5855">0.6</text></g><g fill-opacity="1.0" font-size="5.0e-2" stroke="none" stroke-width="0.0" fill="#808080" text-anchor="end"><text x="-0.31007500000000005" y="-0.7855">0.8</text></g><g fill-opacity="1.0" font-size="5.0e-2" stroke="none" stroke-width="0.0" fill="#808080" text-anchor="end"><text x="-0.31007500000000005" y="-0.9854999999999999">1</text></g><g fill-opacity="1.0" font-size="5.0e-2" stroke="none" stroke-width="0.0" fill="#808080" text-anchor="end"><text x="-0.31007500000000005" y="-1.1854999999999993">1.2</text></g><g fill-opacity="1.0" font-size="5.0e-2" stroke="none" stroke-width="0.0" fill="#808080" text-anchor="end"><text x="-0.31007500000000005" y="-1.3854999999999995">1.4</text></g><g stroke-opacity="1.0" fill-opacity="1.0" stroke="#808080" stroke-width="5.0e-3" fill="#808080"><g transform="rotate(-90.0, -0.2775, 0.4)"><polyline points="-0.2775,0.41500000000000004
-0.2775,0.385"/></g><g transform="rotate(-90.0, -0.2775, 0.20000000000000012)"><polyline points="-0.2775,0.21500000000000014
-0.2775,0.1850000000000001"/></g><g transform="rotate(-90.0, -0.2775, 1.1102230246251565e-16)"><polyline points="-0.2775,1.500000000000011e-2
-0.2775,-1.4999999999999888e-2"/></g><g transform="rotate(-90.0, -0.2775, -0.19999999999999996)"><polyline points="-0.2775,-0.18499999999999994
-0.2775,-0.21499999999999997"/></g><g transform="rotate(-90.0, -0.2775, -0.3999999999999999)"><polyline points="-0.2775,-0.3849999999999999
-0.2775,-0.4149999999999999"/></g><g transform="rotate(-90.0, -0.2775, -0.6)"><polyline points="-0.2775,-0.585
-0.2775,-0.615"/></g><g transform="rotate(-90.0, -0.2775, -0.7999999999999999)"><polyline points="-0.2775,-0.7849999999999999
-0.2775,-0.815"/></g><g transform="rotate(-90.0, -0.2775, -0.9999999999999999)"><polyline points="-0.2775,-0.9849999999999999
-0.2775,-1.015"/></g><g transform="rotate(-90.0, -0.2775, -1.1999999999999993)"><polyline points="-0.2775,-1.1849999999999994
-0.2775,-1.2149999999999992"/></g><g transform="rotate(-90.0, -0.2775, -1.3999999999999995)"><polyline points="-0.2775,-1.3849999999999996
-0.2775,-1.4149999999999994"/></g></g><g stroke-opacity="1.0" fill-opacity="1.0" stroke="#808080" stroke-width="0.0" fill="#808080"><rect height="1.7999999999999994" width="5.0000000000000044e-3" x="-0.265" y="-1.3999999999999995"/></g><g stroke-opacity="5.0e-2" stroke="#808080" stroke-width="5.0e-3" fill="none"><polyline points="-0.2,0.4
-0.2,-1.3999999999999995"/></g><g stroke-opacity="5.0e-2" stroke="#808080" stroke-width="5.0e-3" fill="none"><polyline points="0.0,0.4
0.0,-1.3999999999999995"/></g><g stroke-opacity="5.0e-2" stroke="#808080" stroke-width="5.0e-3" fill="none"><polyline points="0.2,0.4
0.2,-1.3999999999999995"/></g><g stroke-opacity="5.0e-2" stroke="#808080" stroke-width="5.0e-3" fill="none"><polyline points="0.39999999999999997,0.4
0.39999999999999997,-1.3999999999999995"/></g><g stroke-opacity="5.0e-2" stroke="#808080" stroke-width="5.0e-3" fill="none"><polyline points="0.6000000000000001,0.4
0.6000000000000001,-1.3999999999999995"/></g><g stroke-opacity="5.0e-2" stroke="#808080" stroke-width="5.0e-3" fill="none"><polyline points="0.7999999999999998,0.4
0.7999999999999998,-1.3999999999999995"/></g><g stroke-opacity="5.0e-2" stroke="#808080" stroke-width="5.0e-3" fill="none"><polyline points="1.0000000000000002,0.4
1.0000000000000002,-1.3999999999999995"/></g><g stroke-opacity="5.0e-2" stroke="#808080" stroke-width="5.0e-3" fill="none"><polyline points="1.2000000000000004,0.4
1.2000000000000004,-1.3999999999999995"/></g><g stroke-opacity="5.0e-2" stroke="#808080" stroke-width="5.0e-3" fill="none"><polyline points="1.4,0.4
1.4,-1.3999999999999995"/></g><g stroke-opacity="5.0e-2" stroke="#808080" stroke-width="5.0e-3" fill="none"><polyline points="1.5999999999999999,0.4
1.5999999999999999,-1.3999999999999995"/></g><g fill-opacity="1.0" font-size="5.0e-2" stroke="none" stroke-width="0.0" fill="#808080" text-anchor="middle"><text x="-0.2" y="0.5112500000000001">-0.2</text></g><g fill-opacity="1.0" font-size="5.0e-2" stroke="none" stroke-width="0.0" fill="#808080" text-anchor="middle"><text x="0.0" y="0.5112500000000001">0</text></g><g fill-opacity="1.0" font-size="5.0e-2" stroke="none" stroke-width="0.0" fill="#808080" text-anchor="middle"><text x="0.2" y="0.5112500000000001">0.2</text></g><g fill-opacity="1.0" font-size="5.0e-2" stroke="none" stroke-width="0.0" fill="#808080" text-anchor="middle"><text x="0.39999999999999997" y="0.5112500000000001">0.4</text></g><g fill-opacity="1.0" font-size="5.0e-2" stroke="none" stroke-width="0.0" fill="#808080" text-anchor="middle"><text x="0.6000000000000001" y="0.5112500000000001">0.6</text></g><g fill-opacity="1.0" font-size="5.0e-2" stroke="none" stroke-width="0.0" fill="#808080" text-anchor="middle"><text x="0.7999999999999998" y="0.5112500000000001">0.8</text></g><g fill-opacity="1.0" font-size="5.0e-2" stroke="none" stroke-width="0.0" fill="#808080" text-anchor="middle"><text x="1.0000000000000002" y="0.5112500000000001">1</text></g><g fill-opacity="1.0" font-size="5.0e-2" stroke="none" stroke-width="0.0" fill="#808080" text-anchor="middle"><text x="1.2000000000000004" y="0.5112500000000001">1.2</text></g><g fill-opacity="1.0" font-size="5.0e-2" stroke="none" stroke-width="0.0" fill="#808080" text-anchor="middle"><text x="1.4" y="0.5112500000000001">1.4</text></g><g fill-opacity="1.0" font-size="5.0e-2" stroke="none" stroke-width="0.0" fill="#808080" text-anchor="middle"><text x="1.5999999999999999" y="0.5112500000000001">1.6</text></g><g stroke-opacity="1.0" fill-opacity="1.0" stroke="#808080" stroke-width="5.0e-3" fill="#808080"><polyline points="-0.2,0.44250000000000006
-0.2,0.41250000000000003"/><polyline points="0.0,0.44250000000000006
0.0,0.41250000000000003"/><polyline points="0.2,0.44250000000000006
0.2,0.41250000000000003"/><polyline points="0.39999999999999997,0.44250000000000006
0.39999999999999997,0.41250000000000003"/><polyline points="0.6000000000000001,0.44250000000000006
0.6000000000000001,0.41250000000000003"/><polyline points="0.7999999999999998,0.44250000000000006
0.7999999999999998,0.41250000000000003"/><polyline points="1.0000000000000002,0.44250000000000006
1.0000000000000002,0.41250000000000003"/><polyline points="1.2000000000000004,0.44250000000000006
1.2000000000000004,0.41250000000000003"/><polyline points="1.4,0.44250000000000006
1.4,0.41250000000000003"/><polyline points="1.5999999999999999,0.44250000000000006
1.5999999999999999,0.41250000000000003"/></g><g stroke-opacity="1.0" fill-opacity="1.0" stroke="#808080" stroke-width="0.0" fill="#808080"><rect height="5.0000000000000044e-3" width="1.7999999999999998" x="-0.2" y="0.41000000000000003"/></g><g stroke-opacity="1.0" stroke="#1f78b4" stroke-width="2.0e-3" fill="none"><polyline points="2.220446049250313e-16,1.1102230246251565e-16
2.3766830703086939e-4,-2.8345297249866896e-2
2.0467768310641343e-3,-5.7596940463183866e-2
5.423728032132036e-3,-8.769676068314503e-2
1.036180660446101e-2,-0.11858490229311025
1.685119283033193e-2,-0.150199942043725
2.4878982107281233e-2,-0.1824790111973852
3.4429210609813854e-2,-0.2153579205471582
4.548288703459713e-2,-0.24877128806155036
5.801803036600661e-2,-0.2826526689012915
7.200971358692804e-2,-0.3169346875495871
8.743011324788924e-2,-0.35154917179308676
0.1042485647959529,-0.38642728828714235
0.12243162355334469,-0.4214996794357714
0.1419431312245547,-0.45669660131413037
0.16274428779965944,-0.4919480623592317
0.18479372871088018,-0.5271839625531064
0.20804760708894515,-0.5623342328216353
0.23245968095568265,-0.5973289743718503
0.25798140517945894,-0.6320985976906129
0.284562028010597,-0.6665739609282767
0.3121486920048138,-0.7006865073921312
0.340686539133977,-0.7343684018762239
0.37011881987516676,-0.7675526655564576
0.4003870060611046,-0.800173309182702
0.4314309072675467,-0.8321654643030817
0.46318879050618816,-0.8634655122594673
0.4955975029850684,-0.8940112106976653
0.5285925976923538,-0.9237418173407336
0.5621084615537686,-0.9525982107792866
0.5960784459088235,-0.980523008038587
0.6304349990463805,-1.0074606786886444
0.6651098005359977,-1.03335765527039
0.7000338970879272,-1.0581624398183513
0.7351378396715951,-1.0818257062679923
0.7703518216199039,-1.1043003985440714
0.8056058174447132,-1.1255418241349662
0.8408297220874643,-1.1455077429668914
0.8759534903280399,-1.1641584514012622
0.9109072760746224,-1.181456861188185
0.9456215712575815,-1.1973685732190567
0.980027344051172,-1.2118619459316209
1.014056176148192,-1.2249081582314476
1.0476403988146168,-1.236481266804712
1.0807132274536486,-1.2465582577083065
1.1132088944116032,-1.2551190921346902
1.1450627797615287,-1.262146746260473
1.1762115398044903,-1.267627245099486
1.2065932330329892,-1.2715496902930319
1.2361474433060156,-1.2739062817820366
1.2648153999908136,-1.2746923333180216
1.2925400948324288,-1.2739062817820366
1.3192663953186492,-1.2715496902930319
1.344941154314893,-1.267627245099486
1.3695133157510402,-1.262146746260473
1.3929340161500268,-1.2551190921346902
1.41515668179632,-1.2465582577083065
1.4361371213510379,-1.236481266804712
1.4558336137295453,-1.2249081582314472
1.474206991066774,-1.2118619459316209
1.4912207166052875,-1.1973685732190567
1.5068409573512005,-1.181456861188185
1.5210366513534757,-1.1641584514012622
1.5337795694728054,-1.1455077429668914
1.5450443715172468,-1.1255418241349662
1.5548086566329815,-1.1043003985440714
1.5630530078499965,-1.0818257062679923
1.569761030694095,-1.0581624398183513
1.5749193857884707,-1.03335765527039
1.5785178153799932,-1.0074606786886444
1.5805491637374818,-0.9805230080385868
1.581009391381376,-0.9525982107792866
1.5798975831165272,-0.9237418173407336
1.5772159498521303,-0.8940112106976653
1.5729698242051728,-0.8634655122594673
1.5671676498961522,-0.8321654643030817
1.5598209649581383,-0.800173309182702
1.5509443787925823,-0.7675526655564576
1.5405555431174922,-0.7343684018762237
1.5286751168657444,-0.7006865073921315
1.5153267251033355,-0.6665739609282763
1.500536912049277,-0.6320985976906129
1.484335088290538,-0.5973289743718503
1.4667534722970175,-0.5623342328216351
1.4478270263528474,-0.5271839625531064
1.4275933870314192,-0.4919480623592317
1.406092790352402,-0.45669660131413037
1.383367991769581,-0.4214996794357714
1.3594641811486186,-0.38642728828714257
1.3344288929038148,-0.3515491717930863
1.3083119114725767,-0.31693468754958665
1.2811651723155437,-0.2826526689012917
1.2530426586392631,-0.2487712880615499
1.224000294046776,-0.21535792054715774
1.1940958313295822,-0.18247901119738585
1.1633887376221381,-0.1501999420437249
1.1319400761472718,-0.11858490229311025
1.0998123847876424,-8.76967606831448e-2
1.0670695517247568,-5.7596940463183754e-2
1.03377668839281,-2.8345297249866896e-2
1.0,1.1102230246251565e-16"/></g><g stroke-opacity="1.0" stroke="#1f78b4" stroke-width="2.0e-3" fill="none"><polyline points="1.4975805321521038,-1.191229699462475
1.4739854173659102,-1.2120341868296847
1.4476927942992115,-1.2299659409709394
1.4188064279232948,-1.244954193444881
1.3874403195293206,-1.2569397924664774
1.3537182568173085,-1.2658754363520899
1.3177733253626371,-1.2717258601976078
1.2797473833880815,-1.2744679750529193
1.2397905019142141,-1.2740909590434417
1.1980603724976504,-1.2705963000791232
1.1547216848945139,-1.2639977899823385
1.1099454771052124,-1.2543214700578655
1.063908460365586,-1.241605528319758
1.0167923217483932,-1.2259001487806929
0.9687830071274408,-1.2072673133986078
0.9200699873341676,-1.1857805574622229
0.8708455104028365,-1.1615246793808516
0.8213038428553701,-1.1345954060238275
0.7716405030201443,-1.1050990149302735
0.7220514894104664,-1.073151914880218
0.6727325072079886,-1.038880186482316
0.623878195903764,-1.0024190845912915
0.575681361145099,-0.963912504518816
0.5283322138197468,-0.9235124141444507
0.48201761938043247,-0.8813782541678586
0.4369203603722828,-0.8376763088692011
0.3932184150736249,-0.7925790498610511
0.35108425509703295,-0.7462644554217367
0.31068416472266774,-0.6989153080963847
0.27217758465019143,-0.6507184733377199
0.2357164827591674,-0.6018641620334951
0.2014447543612659,-0.5525451798310178
0.16949765431121022,-0.5029561662213394
0.14000126321765644,-0.45329282638611335
0.11307198986063155,-0.4037511588386472
8.881611177926096e-2,-0.35452668190731607
6.732935584287503e-2,-0.30581366211404315
4.8696520460789816e-2,-0.25780434749309056
3.299114092172578e-2,-0.21068820887589845
2.027519918361792e-2,-0.16465119213627166
1.0598879259145544e-2,-0.11987498434696975
4.000369162360351e-3,-7.653629674383378e-2
5.057101980418532e-4,-3.4806167327269266e-2
1.2869418856459314e-4,5.1507141465974016e-3
2.870809043875433e-3,4.3176656121153345e-2
8.72123288939386e-3,7.912158757582471e-2
1.7656876775005936e-2,0.11284365028783705
2.9642475796602397e-2,0.14420975868181113
4.463072827054465e-2,0.17309612505772776
6.256248241179885e-2,0.19938874812442636
8.336696977900881e-2,0.22298386291062017
0.10696208456520268,0.2437883502778303
0.1332547076319015,0.26172010441908466
0.16214107400781802,0.27670835689302675
0.19350718240179204,0.28869395591462327
0.22722924511380455,0.2976295998002353
0.2631741765684757,0.30348002364575377
0.30120011854303114,0.3062221385010646
0.3411570000168987,0.30584512249158724
0.38288712943346265,0.3023504635272689
0.42622581703659873,0.2957519534304837
0.47100202482590064,0.28607563350601134
0.517039041565527,0.27335969176790353
0.5641551801827198,0.2576543122288393
0.6121644948036722,0.23902147684675423
0.660877514596945,0.21753472091036835
0.7101019915282769,0.19327884282899754
0.7596436590757427,0.16634956947197277
0.8093069989109694,0.13685317837841876
0.8588960125206471,0.1049060783283634
0.9082149947231244,7.063434993046208e-2
0.9570693060273494,3.41732480394375e-2
1.005266140786014,-4.333332033038539e-3
1.0526152881113662,-4.47334224074033e-2
1.0989298825506808,-8.686758238399561e-2
1.1440271415588301,-0.13056952768265329
1.187729086857488,-0.1756667866908027
1.2298632468340802,-0.22198138113011712
1.2702633372084446,-0.26933052845546934
1.3087699172809217,-0.31752736321413455
1.3452310191719452,-0.3663816745183589
1.3795027475698467,-0.41570065672083645
1.411449847619902,-0.46528967033051427
1.4409462387134566,-0.5149530101657412
1.4678755120704812,-0.564494677713207
1.492131390151852,-0.6137191546445381
1.5136181460882379,-0.6624321744378111
1.5322509814703231,-0.7104414890587637
1.547956361009387,-0.757557627675956
1.5606723027474956,-0.8035946444155829
1.5703486226719672,-0.8483708522048844
1.5769471327687525,-0.8917095398080203
1.5804417917330709,-0.9334396692245849
1.5808188077425485,-0.9733965506984518
1.5780766928872374,-1.0114224926730078
1.572226269041719,-1.0473674241276787
1.563290625156107,-1.0810894868396916
1.5513050261345105,-1.1124555952336652
1.5363167736605683,-1.1413419616095815
1.518385019519314,-1.1676345846762803
1.4975805321521038,-1.191229699462475"/></g><g stroke-opacity="0.8" fill-opacity="0.3" stroke="#1f78b4" stroke-width="3.0e-3" fill="#a6cee3"><rect height="3.0000000000000027e-2" width="3.0000000000000027e-2" x="0.7754737509655566" y="-0.49912291827592725"/><rect height="3.0e-2" width="3.0e-2" x="-1.5e-2" y="-1.4999999999999888e-2"/><rect height="3.0e-2" width="2.9999999999999916e-2" x="0.985" y="-1.4999999999999888e-2"/></g><g stroke-opacity="1.0" fill-opacity="0.1" stroke="#808080" stroke-width="2.0e-3" fill="#6666cc"><rect height="1.2746923333180216" width="1.5811388300841898" x="-9.566407653838205e-5" y="-1.2746923333180216"/></g><g stroke-opacity="1.0" stroke="#e63305" stroke-width="5.0e-3" fill="none" stroke-linecap="round" stroke-dasharray="3.0e-2 1.0e-2"><polyline points="1.4975805321521038,-1.191229699462475
8.336696977900881e-2,0.22298386291062017"/></g><g stroke-opacity="1.0" stroke="#e6e605" stroke-width="5.0e-3" fill="none" stroke-linecap="round" stroke-dasharray="3.0e-2 1.0e-2"><polyline points="0.4369203603722828,-0.8376763088692011
1.1440271415588301,-0.13056952768265329"/></g><g></g></svg>