<svg xmlns="http://www.w3.org/2000/svg" height="1083.375" viewBox="-1.010075 -3.43175 3.247575 4.469250000000001" width="693.0224999999999" xmlns:xlink="http://www.w3.org/1999/xlink"><g stroke-opacity="0.0" fill-opacity="2.5e-2" stroke="#000000" stroke-width="0.0" fill="#808080"><rect height="3.4999999999999996" width="2.1999999999999997" x="-0.4" y="-2.9999999999999996"/></g><g stroke-opacity="5.0e-2" stroke="#808080" stroke-width="5.0e-3" fill="none"><polyline points="-0.4,0.5
1.7999999999999998,0.5"/></g><g stroke-opacity="5.0e-2" stroke="#808080" stroke-width="5.0e-3" fill="none"><polyline points="-0.4,-0.0
1.7999999999999998,-0.0"/></g><g stroke-opacity="5.0e-2" stroke="#808080" stroke-width="5.0e-3" fill="none"><polyline points="-0.4,-0.4999999999999999
1.7999999999999998,-0.4999999999999999"/></g><g stroke-opacity="5.0e-2" stroke="#808080" stroke-width="5.0e-3" fill="none"><polyline points="-0.4,-0.9999999999999999
1.7999999999999998,-0.9999999999999999"/></g><g stroke-opacity="5.0e-2" stroke="#808080" stroke-width="5.0e-3" fill="none"><polyline points="-0.4,-1.5
1.7999999999999998,-1.5"/></g><g stroke-opacity="5.0e-2" stroke="#808080" stroke-width="5.0e-3" fill="none"><polyline points="-0.4,-1.9999999999999991
1.7999999999999998,-1.9999999999999991"/></g><g stroke-opacity="5.0e-2" stroke="#808080" stroke-width="5.0e-3" fill="none"><polyline points="-0.4,-2.5
1.7999999999999998,-2.5"/></g><g stroke-opacity="5.0e-2" stroke="#808080" stroke-width="5.0e-3" fill="none"><polyline points="-0.4,-2.9999999999999996
1.7999999999999998,-2.9999999999999996"/></g><g fill-opacity="1.0" font-size="5.0e-2" stroke="none" stroke-width="0.0" fill="#808080" text-anchor="end"><text x="-0.5100750000000001" y="0.5145">-0.5</text></g><g fill-opacity="1.0" font-size="5.0e-2" stroke="none" stroke-width="0.0" fill="#808080" text-anchor="end"><text x="-0.5100750000000001" y="1.4500000000000068e-2">0</text></g><g fill-opacity="1.0" font-size="5.0e-2" stroke="none" stroke-width="0.0" fill="#808080" text-anchor="end"><text x="-0.5100750000000001" y="-0.48549999999999993">0.5</text></g><g fill-opacity="1.0" font-size="5.0e-2" stroke="none" stroke-width="0.0" fill="#808080" text-anchor="end"><text x="-0.5100750000000001" y="-0.9854999999999999">1</text></g><g fill-opacity="1.0" font-size="5.0e-2" stroke="none" stroke-width="0.0" fill="#808080" text-anchor="end"><text x="-0.5100750000000001" y="-1.4855">1.5</text></g><g fill-opacity="1.0" font-size="5.0e-2" stroke="none" stroke-width="0.0" fill="#808080" text-anchor="end"><text x="-0.5100750000000001" y="-1.9854999999999992">2</text></g><g fill-opacity="1.0" font-size="5.0e-2" stroke="none" stroke-width="0.0" fill="#808080" text-anchor="end"><text x="-0.5100750000000001" y="-2.4854999999999996">2.5</text></g><g fill-opacity="1.0" font-size="5.0e-2" stroke="none" stroke-width="0.0" fill="#808080" text-anchor="end"><text x="-0.5100750000000001" y="-2.9855">3</text></g><g stroke-opacity="1.0" fill-opacity="1.0" stroke="#808080" stroke-width="5.0e-3" fill="#808080"><g transform="rotate(-90.0, -0.47750000000000004, 0.5)"><polyline points="-0.47750000000000004,0.515
-0.47750000000000004,0.485"/></g><g transform="rotate(-90.0, -0.47750000000000004, -0.0)"><polyline points="-0.47750000000000004,1.5e-2
-0.47750000000000004,-1.5e-2"/></g><g transform="rotate(-90.0, -0.47750000000000004, -0.4999999999999999)"><polyline points="-0.47750000000000004,-0.4849999999999999
-0.47750000000000004,-0.5149999999999999"/></g><g transform="rotate(-90.0, -0.47750000000000004, -0.9999999999999999)"><polyline points="-0.47750000000000004,-0.9849999999999999
-0.47750000000000004,-1.015"/></g><g transform="rotate(-90.0, -0.47750000000000004, -1.5)"><polyline points="-0.47750000000000004,-1.485
-0.47750000000000004,-1.515"/></g><g transform="rotate(-90.0, -0.47750000000000004, -1.9999999999999991)"><polyline points="-0.47750000000000004,-1.9849999999999992
-0.47750000000000004,-2.0149999999999992"/></g><g transform="rotate(-90.0, -0.47750000000000004, -2.5)"><polyline points="-0.47750000000000004,-2.485
-0.47750000000000004,-2.515"/></g><g transform="rotate(-90.0, -0.47750000000000004, -2.9999999999999996)"><polyline points="-0.47750000000000004,-2.9849999999999994
-0.47750000000000004,-3.0149999999999997"/></g></g><g stroke-opacity="1.0" fill-opacity="1.0" stroke="#808080" stroke-width="0.0" fill="#808080"><rect height="3.4999999999999996" width="5.0000000000000044e-3" x="-0.465" y="-2.9999999999999996"/></g><g stroke-opacity="5.0e-2" stroke="#808080" stroke-width="5.0e-3" fill="none"><polyline points="-0.4,0.5
-0.4,-2.9999999999999996"/></g><g stroke-opacity="5.0e-2" stroke="#808080" stroke-width="5.0e-3" fill="none"><polyline points="-0.2,0.5
-0.2,-2.9999999999999996"/></g><g stroke-opacity="5.0e-2" stroke="#808080" stroke-width="5.0e-3" fill="none"><polyline points="0.0,0.5
0.0,-2.9999999999999996"/></g><g stroke-opacity="5.0e-2" stroke="#808080" stroke-width="5.0e-3" fill="none"><polyline points="0.20000000000000007,0.5
0.20000000000000007,-2.9999999999999996"/></g><g stroke-opacity="5.0e-2" stroke="#808080" stroke-width="5.0e-3" fill="none"><polyline points="0.3999999999999999,0.5
0.3999999999999999,-2.9999999999999996"/></g><g stroke-opacity="5.0e-2" stroke="#808080" stroke-width="5.0e-3" fill="none"><polyline points="0.6000000000000001,0.5
0.6000000000000001,-2.9999999999999996"/></g><g stroke-opacity="5.0e-2" stroke="#808080" stroke-width="5.0e-3" fill="none"><polyline points="0.8,0.5
0.8,-2.9999999999999996"/></g><g stroke-opacity="5.0e-2" stroke="#808080" stroke-width="5.0e-3" fill="none"><polyline points="1.0,0.5
1.0,-2.9999999999999996"/></g><g stroke-opacity="5.0e-2" stroke="#808080" stroke-width="5.0e-3" fill="none"><polyline points="1.2000000000000002,0.5
1.2000000000000002,-2.9999999999999996"/></g><g stroke-opacity="5.0e-2" stroke="#808080" stroke-width="5.0e-3" fill="none"><polyline points="1.3999999999999997,0.5
1.3999999999999997,-2.9999999999999996"/></g><g stroke-opacity="5.0e-2" stroke="#808080" stroke-width="5.0e-3" fill="none"><polyline points="1.6,0.5
1.6,-2.9999999999999996"/></g><g stroke-opacity="5.0e-2" stroke="#808080" stroke-width="5.0e-3" fill="none"><polyline points="1.7999999999999998,0.5
1.7999999999999998,-2.9999999999999996"/></g><g fill-opacity="1.0" font-size="5.0e-2" stroke="none" stroke-width="0.0" fill="#808080" text-anchor="middle"><text x="-0.4" y="0.61125">-0.4</text></g><g fill-opacity="1.0" font-size="5.0e-2" stroke="none" stroke-width="0.0" fill="#808080" text-anchor="middle"><text x="-0.2" y="0.61125">-0.2</text></g><g fill-opacity="1.0" font-size="5.0e-2" stroke="none" stroke-width="0.0" fill="#808080" text-anchor="middle"><text x="0.0" y="0.61125">0</text></g><g fill-opacity="1.0" font-size="5.0e-2" stroke="none" stroke-width="0.0" fill="#808080" text-anchor="middle"><text x="0.20000000000000007" y="0.61125">0.2</text></g><g fill-opacity="1.0" font-size="5.0e-2" stroke="none" stroke-width="0.0" fill="#808080" text-anchor="middle"><text x="0.3999999999999999" y="0.61125">0.4</text></g><g fill-opacity="1.0" font-size="5.0e-2" stroke="none" stroke-width="0.0" fill="#808080" text-anchor="middle"><text x="0.6000000000000001" y="0.61125">0.6</text></g><g fill-opacity="1.0" font-size="5.0e-2" stroke="none" stroke-width="0.0" fill="#808080" text-anchor="middle"><text x="0.8" y="0.61125">0.8</text></g><g fill-opacity="1.0" font-size="5.0e-2" stroke="none" stroke-width="0.0" fill="#808080" text-anchor="middle"><text x="1.0" y="0.61125">1</text></g><g fill-opacity="1.0" font-size="5.0e-2" stroke="none" stroke-width="0.0" fill="#808080" text-anchor="middle"><text x="1.2000000000000002" y="0.61125">1.2</text></g><g fill-opacity="1.0" font-size="5.0e-2" stroke="none" stroke-width="0.0" fill="#808080" text-anchor="middle"><text x="1.3999999999999997" y="0.61125">1.4</text></g><g fill-opacity="1.0" font-size="5.0e-2" stroke="none" stroke-width="0.0" fill="#808080" text-anchor="middle"><text x="1.6" y="0.61125">1.6</text></g><g fill-opacity="1.0" font-size="5.0e-2" stroke="none" stroke-width="0.0" fill="#808080" text-anchor="middle"><text x="1.7999999999999998" y="0.61125">1.8</text></g><g stroke-opacity="1.0" fill-opacity="1.0" stroke="#808080" stroke-width="5.0e-3" fill="#808080"><polyline points="-0.4,0.5425
-0.4,0.5125"/><polyline points="-0.2,0.5425
-0.2,0.5125"/><polyline points="0.0,0.5425
0.0,0.5125"/><polyline points="0.20000000000000007,0.5425
0.20000000000000007,0.5125"/><polyline points="0.3999999999999999,0.5425
0.3999999999999999,0.5125"/><polyline points="0.6000000000000001,0.5425
0.6000000000000001,0.5125"/><polyline points="0.8,0.5425
0.8,0.5125"/><polyline points="1.0,0.5425
1.0,0.5125"/><polyline points="1.2000000000000002,0.5425
1.2000000000000002,0.5125"/><polyline points="1.3999999999999997,0.5425
1.3999999999999997,0.5125"/><polyline points="1.6,0.5425
1.6,0.5125"/><polyline points="1.7999999999999998,0.5425
1.7999999999999998,0.5125"/></g><g stroke-opacity="1.0" fill-opacity="1.0" stroke="#808080" stroke-width="0.0" fill="#808080"><rect height="5.0000000000000044e-3" width="2.1999999999999997" x="-0.4" y="0.51"/></g><g stroke-opacity="0.0" fill-opacity="0.1" stroke="#000000" stroke-width="1.0e-2" fill="#e31a1c"><path d=" M 1.0,-0.0 A 1.414213562373095 0.7071067811865475 60.0 0 1 0.0,-0.9999999999999999"/></g><g stroke-opacity="1.0" stroke="#1f78b4" stroke-width="2.0e-3" fill="none"><polyline points="1.0,2.220446049250313e-16
0.9898175251415329,-3.2798836229486206e-3
0.9795923151919492,-6.726742300678823e-3
0.9693257455755797,-1.0340112385664457e-2
0.9590191972801732,-1.411950783242033e-2
0.9486740566711294,-1.8064420262880354e-2
0.9382917153050214,-2.2174319034782286e-2
0.9278735697424079,-2.6448651313045524e-2
0.9174210213599818,-3.088684214413373e-2
0.9069354761620629,-3.548829453339519e-2
0.8964183445914755,-4.025238952536525e-2
0.8858710413398225,-4.517848628702359e-2
0.8752949851571925,-5.026592219399706e-2
0.8646915986613191,-5.551401291968794e-2
0.85406230814622,-6.092205252732663e-2
0.8434085433903418,-6.648931356492971e-2
0.8327317374642358,-7.221504716315141e-2
0.8220333265377935,-7.80984831360153e-2
0.8113147496870594,-8.413883008451517e-2
0.8005774487006583,-9.033527550306975e-2
0.7898228678858568,-9.66869858888122e-2
0.7790524538742847,-0.10319310685371108
0.7682676554273413,-0.10985276323949333
0.7574699232413233,-0.11666505923536596
0.7466607097522817,-0.12362907849851446
0.735841468940654,-0.13074388427736272
0.7250136561356846,-0.1380085195375782
0.714178727819661,-0.14542200709080533
0.7033381414320001,-0.15298334972611016
0.6924933551732058,-0.1606915303441192
0.6816458278087161,-0.16854551209383095
0.6707970184726864,-0.17654423851208767
0.6599483864717124,-0.18468663366568194
0.6491013910885359,-0.1929716022960848
0.6382574913857537,-0.20139802996677159
0.627418146009552,-0.20996478321312884
0.6165848129934997,-0.21867070969491997
0.6057589495624263,-0.2275146383512895
0.594942011936404,-0.23649537955828626
0.5841354551348672,-0.2456117252888841
0.5733407327808948,-0.25486244927547663
0.5625592969056767,-0.264246307174826
0.5517925977531983,-0.27376203673544486
0.5410420835851637,-0.28340835796738273
0.5303092004861842,-0.29318397331440416
0.5195953921692629,-0.3030875678285265
0.5089020997815945,-0.3131178093468959
0.498230761710714,-0.3232733486709827
0.4875828133910143,-0.3335528197480644
0.47695968711066017,-0.34395483985497943
0.4663628118189277,-0.3544780097841209
0.455793612933993,-0.36512091403164637
0.44525351215119335,-0.37588212098788487
0.4347439272517917,-0.386760183129905
0.42426627191226485,-0.3977536372162255
0.413821955514147,-0.4088610044836417
0.40341238295445014,-0.4200807908461385
0.39303895445668513,-0.4314114870958613
0.3827030653825141,-0.44285156910612933
0.3724061060440568,-0.45439949803644575
0.3621494615168752,-0.46605372053949623
0.3519345114536613,-0.47781266897009
0.34176262989865824,-0.48967476159603185
0.33163518510283063,-0.5016384028108848
0.32155353933982067,-0.5137019833485986
0.31151904872269953,-0.5258638804999812
0.30153306302155736,-0.5381224583309684
0.29159692548193816,-0.5504760679026827
0.28171197264415726,-0.5629230474932366
0.2718795341635196,-0.5754617228212543
0.2621009326314617,-0.5880904072710852
0.25237748339764765,-0.6008074021196766
0.24271049439303727,-0.6136109967650732
0.2331012659539512,-0.6264994689565145
0.2235510906471606,-0.639471085026102
0.21406125309601687,-0.6525241001220002
0.2046330298076564,-0.6656567584431395
0.19526768900129232,-0.6788672934753966
0.18596649043762148,-0.6921539282292134
0.1767306852493713,-0.7055148754786241
0.16756151577300638,-0.7189483380016627
0.15846021538161692,-0.7324525088221104
0.14942800831901504,-0.7460255714525593
0.1404661095350569,-0.759665700138752
0.13157572452221644,-0.7733710601051708
0.1227580491534318,-0.78713980780184
0.11401426952124338,-0.8009700911523033
0.10534556177824972,-0.8148600498027568
9.675309197890014e-2,-0.828807815372289
8.823801592264302e-2,-0.8428115117042033
7.980147899845857e-2,-0.856869255118382
7.144461603078678e-2,-0.8709791546646711
6.31685511268798e-2,-0.8851393123772352
5.497439752559474e-2,-0.8993478235298583
4.6863257447647966e-2,-0.9136027768921556
3.883622194735259e-2,-0.927902254986657
3.0894370765857326e-2,-0.9422443343467358
2.3038772185906664e-2,-0.9566270857753375
1.5270482888144143e-2,-0.9710485746044836
7.590547808972614e-3,-0.9855068609555081
-1.1102230246251565e-16,-0.9999999999999994"/></g><g stroke-opacity="0.8" fill-opacity="0.3" stroke="#1f78b4" stroke-width="3.0e-3" fill="#a6cee3"><rect height="2.9999999999999805e-2" width="3.0000000000000027e-2" x="0.6571153666616175" y="-1.2596095246875614"/></g><g fill-opacity="1.0" font-size="4.0e-2" stroke="none" stroke-width="0.0" fill="#333333" text-anchor="start"><text x="0.0" y="-0.0">c: (0.672,1.245)</text><text x="0.0" y="-9.999999999999976e-2">r: (1.414,0.707)</text><text x="0.0" y="-0.19999999999999984">phi: -1.047</text><text x="0.0" y="-0.2999999999999997">ang0: -0.499</text><text x="0.0" y="-0.4">angd: -1.160</text></g><g stroke-opacity="1.0" fill-opacity="0.1" stroke="#808080" stroke-width="2.0e-3" fill="#6666cc"><rect height="0.9999999999999997" width="1.0" x="-1.1102230246251565e-16" y="-0.9999999999999994"/></g><g stroke-opacity="0.8" fill-opacity="0.3" stroke="#1f78b4" stroke-width="3.0e-3" fill="#a6cee3"><rect height="3.0000000000000027e-2" width="2.9999999999999805e-2" x="1.592529713355103" y="-0.5652444498581477"/><rect height="2.9999999999999805e-2" width="3.0000000000000027e-2" x="-0.2782989800318679" y="-1.9539745995169755"/><rect height="2.9999999999999805e-2" width="3.0000000000000027e-2" x="-0.2782989800318678" y="-1.9539745995169742"/><rect height="3.000000000000025e-2" width="3.0000000000000027e-2" x="0.1475907012965496" y="-2.5343644030857577"/><rect height="3.0e-2" width="2.9999999999999805e-2" x="1.1666400320266856" y="1.514535371063487e-2"/><rect height="3.0e-2" width="2.9999999999999805e-2" x="1.166640032026686" y="1.514535371063487e-2"/><rect height="3.0e-2" width="2.9999999999999916e-2" x="0.985" y="-1.4999999999999777e-2"/><rect height="3.0000000000000027e-2" width="3.0e-2" x="-1.500000000000011e-2" y="-1.0149999999999995"/></g><g fill-opacity="1.0" font-size="8.0e-2" stroke="none" stroke-width="0.0" fill="#333333" text-anchor="middle"><text x="1.607529713355103" y="-0.5502444498581477">x'</text><text x="-0.2632989800318679" y="-1.9389745995169756">x'+pi</text><text x="-0.2632989800318678" y="-1.9389745995169743">x'-pi</text><text x="0.16259070129654962" y="-2.5193644030857576">y'</text><text x="1.1816400320266855" y="3.014535371063487e-2">y'+pi</text><text x="1.181640032026686" y="3.014535371063487e-2">y'-pi</text><text x="1.0" y="2.220446049250313e-16">ang0</text><text x="-1.1102230246251565e-16" y="-0.9999999999999994">ang0+angd</text></g></svg>