<svg width="450.49106711756315" xmlns:xlink="http://www.w3.org/1999/xlink" xmlns="http://www.w3.org/2000/svg" viewBox="-0.7463484737211087 -0.4969261587232787 1.4951933414133372 0.9957089832969817" height="300.0"><style>svg {
  color-scheme: light dark;
}
{
  .canvas g, .title g, .axisbar g, .ticktext g, .tickglyph g, .ticklines g, .legendContent g text {
    fill: #0d0d0d;
  }
  .ticklines g, .tickglyph g, .legendBorder g {
    stroke: #0d0d0d;
  }
}
@media (prefers-color-scheme:dark) {
  .canvas g, .title g, .axisbar g, .ticktext g, .tickglyph g, .ticklines g, .legendContent g text {
    fill: #f0f0f0;
  }
  .ticklines g, .tickglyph g, .legendBorder g {
    stroke: #f0f0f0;
  }
}{
  .text g {
    fill: #0d0d0d;
  }
}
@media (prefers-color-scheme:dark) {
  .text g {
    fill: #f0f0f0;
  }
}</style><g class="chart"><g class="text"><g fill="#0d0d0d" stroke="none" stroke-width="0.0" font-size="6.891412286851448e-2" fill-opacity="1.0" text-anchor="middle"><text x="-0.6443555718757071" y="0.4042810360565951">a</text><text x="-0.506756925052045" y="0.3697488589685075">b</text><text x="-0.3705331184233793" y="0.33521668188041986">c</text><text x="-0.23704525523594028" y="0.3006845047923322">d</text><text x="-0.10762710209347592" y="0.2661523277042446">e</text><text x="1.6428237597768125e-2" y="0.23162015061615693">f</text><text x="0.13388124389084044" y="0.19708797352806934">g</text><text x="0.24355836517166218" y="0.1625557964399817">h</text><text x="0.34436374389883173" y="0.1280236193518941">i</text><text x="0.435290166049935" y="9.34914422638064e-2">j</text><text x="0.5154291248711177" y="5.8959265175718756e-2">k</text><text x="0.5839798983762562" y="2.442708808763111e-2">l</text><text x="0.64025754989636" y="-1.0105089000456424e-2">m</text><text x="0.6836997717403582" y="-4.4637266088544125e-2">n</text><text x="0.7138725035876757" y="-7.916944317663177e-2">o</text><text x="0.7304742694754728" y="-0.1137016202647193">p</text><text x="0.7333391900468126" y="-0.14823379735280706">q</text><text x="0.7224386399623631" y="-0.1827659744408946">r</text><text x="0.697881533915326" y="-0.21729815152898224">s</text><text x="0.6599132383918226" y="-0.2518303286170699">t</text><text x="0.608913120050074" y="-0.28636250570515753">u</text><text x="0.5453907552141536" y="-0.3208946827932452">v</text><text x="0.4699808383557992" y="-0.3554268598813328">w</text><text x="0.3834368404370555" y="-0.38995903696942047">x</text><text x="0.2866234804774841" y="-0.4244912140575081">y</text><text x="0.18050808556755982" y="-0.45902339114559576">z</text></g></g></g><g class="hud"><g class="frame"><g stroke-opacity="0.0" fill="#ffffff" stroke="#000000" stroke-width="0.0" fill-opacity="2.0e-2"><rect width="1.3782824573702892" x="-0.6443555718757071" y="-0.45902339114559576" height="0.8633044272021908"/></g></g><g class="axis"><g class="ticks"><g class="tickglyph"><g stroke-opacity="0.4" fill="#0d0d0d" stroke="#0d0d0d" stroke-width="4.0e-3" fill-opacity="0.4"><g transform="rotate(-90.0, -0.671921221023113, 0.4042810360565951)"><polyline points="-0.671921221023113,0.4192810360565951
-0.671921221023113,0.3892810360565951"/></g><g transform="rotate(-90.0, -0.671921221023113, 0.23162015061615693)"><polyline points="-0.671921221023113,0.24662015061615694
-0.671921221023113,0.21662015061615691"/></g><g transform="rotate(-90.0, -0.671921221023113, 5.8959265175718756e-2)"><polyline points="-0.671921221023113,7.395926517571876e-2
-0.671921221023113,4.3959265175718756e-2"/></g><g transform="rotate(-90.0, -0.671921221023113, -0.1137016202647193)"><polyline points="-0.671921221023113,-9.87016202647193e-2
-0.671921221023113,-0.12870162026471932"/></g><g transform="rotate(-90.0, -0.671921221023113, -0.28636250570515753)"><polyline points="-0.671921221023113,-0.2713625057051575
-0.671921221023113,-0.30136250570515755"/></g><g transform="rotate(-90.0, -0.671921221023113, -0.45902339114559576)"><polyline points="-0.671921221023113,-0.44402339114559575
-0.671921221023113,-0.4740233911455958"/></g></g></g><g class="ticktext"><g fill="#0d0d0d" stroke="none" stroke-width="0.0" font-size="4.5942748579009644e-2" fill-opacity="1.0" text-anchor="end"><text x="-0.705" y="0.4161514719306253">0</text><text x="-0.705" y="0.24349058649018704">5</text><text x="-0.705" y="7.08297010497489e-2">10</text><text x="-0.705" y="-0.10183118439068917">15</text><text x="-0.705" y="-0.2744920698311274">20</text><text x="-0.705" y="-0.4471529552715656">25</text></g></g><g class="ticklines"><g stroke-opacity="5.0e-2" fill="none" stroke="#0d0d0d" stroke-width="5.0e-3"><polyline points="-0.6443555718757071,0.4042810360565951
0.7339268854945821,0.4042810360565951"/><polyline points="-0.6443555718757071,0.23162015061615693
0.7339268854945821,0.23162015061615693"/><polyline points="-0.6443555718757071,5.8959265175718756e-2
0.7339268854945821,5.8959265175718756e-2"/><polyline points="-0.6443555718757071,-0.1137016202647193
0.7339268854945821,-0.1137016202647193"/><polyline points="-0.6443555718757071,-0.28636250570515753
0.7339268854945821,-0.28636250570515753"/><polyline points="-0.6443555718757071,-0.45902339114559576
0.7339268854945821,-0.45902339114559576"/></g></g></g><g class="axisbar"><g stroke-opacity="0.0" fill="#0d0d0d" stroke="#000000" stroke-width="0.0" fill-opacity="0.4"><rect width="3.6754198863208076e-3" x="-0.6572195414778299" y="-0.46075" height="0.8667576449109995"/></g></g></g><g class="axis"><g class="ticks"><g class="tickglyph"><g stroke-opacity="0.4" fill="#0d0d0d" stroke="#0d0d0d" stroke-width="4.0e-3" fill-opacity="0.4"><polyline points="-0.6443555718757071,0.4451801688726609
-0.6443555718757071,0.41518016887266085"/><polyline points="-0.5065273261386782,0.4451801688726609
-0.5065273261386782,0.41518016887266085"/><polyline points="-0.3686990804016493,0.4451801688726609
-0.3686990804016493,0.41518016887266085"/><polyline points="-0.23087083466462038,0.4451801688726609
-0.23087083466462038,0.41518016887266085"/><polyline points="-9.304258892759143e-2,0.4451801688726609
-9.304258892759143e-2,0.41518016887266085"/><polyline points="4.478565680943747e-2,0.4451801688726609
4.478565680943747e-2,0.41518016887266085"/><polyline points="0.18261390254646648,0.4451801688726609
0.18261390254646648,0.41518016887266085"/><polyline points="0.32044214828349527,0.4451801688726609
0.32044214828349527,0.41518016887266085"/><polyline points="0.4582703940205245,0.4451801688726609
0.4582703940205245,0.41518016887266085"/><polyline points="0.5960986397575533,0.4451801688726609
0.5960986397575533,0.41518016887266085"/><polyline points="0.7339268854945821,0.4451801688726609
0.7339268854945821,0.41518016887266085"/></g></g><g class="ticktext"><g fill="#0d0d0d" stroke="none" stroke-width="0.0" font-size="4.5942748579009644e-2" fill-opacity="1.0" text-anchor="middle"><text x="-0.6443555718757071" y="0.485">0</text><text x="-0.5065273261386782" y="0.485">0.1</text><text x="-0.3686990804016493" y="0.485">0.2</text><text x="-0.23087083466462038" y="0.485">0.3</text><text x="-9.304258892759143e-2" y="0.485">0.4</text><text x="4.478565680943747e-2" y="0.485">0.5</text><text x="0.18261390254646648" y="0.485">0.6</text><text x="0.32044214828349527" y="0.485">0.7</text><text x="0.4582703940205245" y="0.485">0.8</text><text x="0.5960986397575533" y="0.485">0.9</text><text x="0.7339268854945821" y="0.485">1</text></g></g><g class="ticklines"><g stroke-opacity="5.0e-2" fill="none" stroke="#0d0d0d" stroke-width="5.0e-3"><polyline points="-0.6443555718757071,0.4042810360565951
-0.6443555718757071,-0.45902339114559576"/><polyline points="-0.5065273261386782,0.4042810360565951
-0.5065273261386782,-0.45902339114559576"/><polyline points="-0.3686990804016493,0.4042810360565951
-0.3686990804016493,-0.45902339114559576"/><polyline points="-0.23087083466462038,0.4042810360565951
-0.23087083466462038,-0.45902339114559576"/><polyline points="-9.304258892759143e-2,0.4042810360565951
-9.304258892759143e-2,-0.45902339114559576"/><polyline points="4.478565680943747e-2,0.4042810360565951
4.478565680943747e-2,-0.45902339114559576"/><polyline points="0.18261390254646648,0.4042810360565951
0.18261390254646648,-0.45902339114559576"/><polyline points="0.32044214828349527,0.4042810360565951
0.32044214828349527,-0.45902339114559576"/><polyline points="0.4582703940205245,0.4042810360565951
0.4582703940205245,-0.45902339114559576"/><polyline points="0.5960986397575533,0.4042810360565951
0.5960986397575533,-0.45902339114559576"/><polyline points="0.7339268854945821,0.4042810360565951
0.7339268854945821,-0.45902339114559576"/></g></g></g><g class="axisbar"><g stroke-opacity="0.0" fill="#0d0d0d" stroke="#000000" stroke-width="0.0" fill-opacity="0.4"><rect width="1.38195787725661" x="-0.6461932818188676" y="0.41291408032861704" height="3.4532177088087423e-3"/></g></g></g></g></svg>