<svg height="300.00" viewBox="-0.73774 -0.50108 1.4838 0.99904" width="445.58" xmlns="http://www.w3.org/2000/svg" xmlns:xlink="http://www.w3.org/1999/xlink"><style>svg {
  color-scheme: light dark;
}
{
  .canvas g, .title g, .axisbar g, .ticktext g, .tickglyph g, .ticklines g, .legendContent g text {
    fill: rgba(5%, 5%, 5%, 1.00);
  }
  .ticklines g, .tickglyph g, .legendBorder g {
    stroke: rgba(5%, 5%, 5%, 1.00);
  }
  .legendBorder g {
    fill: rgba(94%, 94%, 94%, 1.00);
  }
}
@media (prefers-color-scheme:dark) {
  .canvas g, .title g, .axisbar g, .ticktext g, .tickglyph g, .ticklines g, .legendContent g text {
    fill: rgba(94%, 94%, 94%, 1.00);
  }
  .ticklines g, .tickglyph g, .legendBorder g {
    stroke: rgba(94%, 94%, 94%, 1.00);
  }
  .legendBorder g {
    fill: rgba(5%, 5%, 5%, 1.00);
  }
}
{
  .text g {
    fill: rgba(94%, 94%, 94%, 1.00);
  }
}
@media (prefers-color-scheme:dark) {
  .text g {
    fill: rgba(5%, 5%, 5%, 1.00);
  }
}
</style><g class="chart"><g class="text"><g fill="rgba(5%, 5%, 5%, 1.00)" font-size="0.064781" stroke="none" stroke-width="0.0" text-anchor="middle"><text x="-0.58842" y="0.37214">a</text><text x="-0.45907" y="0.33863">b</text><text x="-0.33101" y="0.30513">c</text><text x="-0.20553" y="0.27163">d</text><text x="-0.083875" y="0.23812">e</text><text x="0.032741" y="0.20462">f</text><text x="0.14315" y="0.17112">g</text><text x="0.24625" y="0.13761">h</text><text x="0.34101" y="0.10411">i</text><text x="0.42648" y="0.070605">j</text><text x="0.50182" y="0.037101">k</text><text x="0.56626" y="0.0035980">l</text><text x="0.61916" y="-0.029905">m</text><text x="0.66000" y="-0.063409">n</text><text x="0.68836" y="-0.096912">o</text><text x="0.70397" y="-0.13042">p</text><text x="0.70666" y="-0.16392">q</text><text x="0.69641" y="-0.19742">r</text><text x="0.67333" y="-0.23093">s</text><text x="0.63764" y="-0.26443">t</text><text x="0.58970" y="-0.29793">u</text><text x="0.52998" y="-0.33144">v</text><text x="0.45909" y="-0.36494">w</text><text x="0.37774" y="-0.39844">x</text><text x="0.28673" y="-0.43195">y</text><text x="0.18698" y="-0.46545">z</text></g></g></g><g class="hud"><g class="frame"><g fill="rgba(100%, 100%, 100%, 0.02)" stroke="rgba(0%, 0%, 0%, 0.00)" stroke-width="0.0000"><rect height="0.90669" width="1.3242" x="-0.60299" y="-0.50000"/></g></g><g class="axis"><g class="ticks"><g class="tickglyph"><g fill="rgba(5%, 5%, 5%, 0.40)" stroke="rgba(5%, 5%, 5%, 0.40)" stroke-width="0.0040000"><g transform="rotate(-90.000, -0.62890, 0.37214)"><polyline points="-0.62890,0.38714
-0.62890,0.35714"/></g><g transform="rotate(-90.000, -0.62890, 0.20462)"><polyline points="-0.62890,0.21962
-0.62890,0.18962"/></g><g transform="rotate(-90.000, -0.62890, 0.037101)"><polyline points="-0.62890,0.052101
-0.62890,0.022101"/></g><g transform="rotate(-90.000, -0.62890, -0.13042)"><polyline points="-0.62890,-0.11542
-0.62890,-0.14542"/></g><g transform="rotate(-90.000, -0.62890, -0.29793)"><polyline points="-0.62890,-0.28293
-0.62890,-0.31293"/></g><g transform="rotate(-90.000, -0.62890, -0.46545)"><polyline points="-0.62890,-0.45045
-0.62890,-0.48045"/></g></g></g><g class="ticktext"><g fill="rgba(5%, 5%, 5%, 1.00)" font-size="0.043188" stroke="none" stroke-width="0.0" text-anchor="end"><text x="-0.66000" y="0.38365"> 0.0</text><text x="-0.66000" y="0.21614"> 5.0</text><text x="-0.66000" y="0.048618">10.0</text><text x="-0.66000" y="-0.11890">15.0</text><text x="-0.66000" y="-0.28642">20.0</text><text x="-0.66000" y="-0.45393">25.0</text></g></g><g class="ticklines"><g fill="none" stroke="rgba(5%, 5%, 5%, 0.05)" stroke-width="0.0050000"><polyline points="-0.58842,0.37214 0.70721,0.37214"/><polyline points="-0.58842,0.20462 0.70721,0.20462"/><polyline points="-0.58842,0.037101 0.70721,0.037101"/><polyline points="-0.58842,-0.13042 0.70721,-0.13042"/><polyline points="-0.58842,-0.29793 0.70721,-0.29793"/><polyline points="-0.58842,-0.46545 0.70721,-0.46545"/></g></g></g><g class="axisbar"><g fill="rgba(5%, 5%, 5%, 0.40)" stroke="rgba(0%, 0%, 0%, 0.00)" stroke-width="0.0000"><rect height="0.84094" width="0.0034550" x="-0.61508" y="-0.46712"/></g></g></g><g class="axis"><g class="ticks"><g class="tickglyph"><g fill="rgba(5%, 5%, 5%, 0.40)" stroke="rgba(5%, 5%, 5%, 0.40)" stroke-width="0.0040000"><polyline points="-0.58842,0.44681
-0.58842,0.41681"/><polyline points="-0.45885,0.44681
-0.45885,0.41681"/><polyline points="-0.32929,0.44681
-0.32929,0.41681"/><polyline points="-0.19973,0.44681
-0.19973,0.41681"/><polyline points="-0.070165,0.44681
-0.070165,0.41681"/><polyline points="0.059398,0.44681
0.059398,0.41681"/><polyline points="0.18896,0.44681
0.18896,0.41681"/><polyline points="0.31852,0.44681
0.31852,0.41681"/><polyline points="0.44809,0.44681
0.44809,0.41681"/><polyline points="0.57765,0.44681
0.57765,0.41681"/><polyline points="0.70721,0.44681
0.70721,0.41681"/></g></g><g class="ticktext"><g fill="rgba(5%, 5%, 5%, 1.00)" font-size="0.043188" stroke="none" stroke-width="0.0" text-anchor="middle"><text x="-0.58842" y="0.48500">0.00</text><text x="-0.45885" y="0.48500">0.10</text><text x="-0.32929" y="0.48500">0.20</text><text x="-0.19973" y="0.48500">0.30</text><text x="-0.070165" y="0.48500">0.40</text><text x="0.059398" y="0.48500">0.50</text><text x="0.18896" y="0.48500">0.60</text><text x="0.31852" y="0.48500">0.70</text><text x="0.44809" y="0.48500">0.80</text><text x="0.57765" y="0.48500">0.90</text><text x="0.70721" y="0.48500">1.00</text></g></g><g class="ticklines"><g fill="none" stroke="rgba(5%, 5%, 5%, 0.05)" stroke-width="0.0050000"><polyline points="-0.58842,0.37214 -0.58842,-0.46545"/><polyline points="-0.45885,0.37214 -0.45885,-0.46545"/><polyline points="-0.32929,0.37214 -0.32929,-0.46545"/><polyline points="-0.19973,0.37214 -0.19973,-0.46545"/><polyline points="-0.070165,0.37214 -0.070165,-0.46545"/><polyline points="0.059398,0.37214 0.059398,-0.46545"/><polyline points="0.18896,0.37214 0.18896,-0.46545"/><polyline points="0.31852,0.37214 0.31852,-0.46545"/><polyline points="0.44809,0.37214 0.44809,-0.46545"/><polyline points="0.57765,0.37214 0.57765,-0.46545"/><polyline points="0.70721,0.37214 0.70721,-0.46545"/></g></g></g><g class="axisbar"><g fill="rgba(5%, 5%, 5%, 0.40)" stroke="rgba(0%, 0%, 0%, 0.00)" stroke-width="0.0000"><rect height="0.0033503" width="1.2991" x="-0.59014" y="0.41506"/></g></g></g></g></svg>