<svg width="442.4904512487212" xmlns:xlink="http://www.w3.org/1999/xlink" xmlns="http://www.w3.org/2000/svg" viewBox="-0.77 -0.5229995732349997 1.5399999999999998 1.044090327138636" height="300.0"><style>svg {
  color-scheme: light dark;
}
@media (prefers-color-scheme:dark) {
  svg {
    background-color: #f0f0f0;
  }
}</style><g stroke-opacity="0.4" fill="#0d0d0d" stroke="#0d0d0d" stroke-width="4.0e-3" fill-opacity="0.4"><g transform="rotate(-90.0, -0.6760998533536139, 0.3742653232577665)"><polyline points="-0.6760998533536139,0.3892653232577665
-0.6760998533536139,0.3592653232577665"/></g><g transform="rotate(-90.0, -0.6760998533536139, 0.20633921074727113)"><polyline points="-0.6760998533536139,0.22133921074727114
-0.6760998533536139,0.19133921074727112"/></g><g transform="rotate(-90.0, -0.6760998533536139, 3.8413098236775745e-2)"><polyline points="-0.6760998533536139,5.3413098236775744e-2
-0.6760998533536139,2.3413098236775745e-2"/></g><g transform="rotate(-90.0, -0.6760998533536139, -0.12951301427371964)"><polyline points="-0.6760998533536139,-0.11451301427371964
-0.6760998533536139,-0.14451301427371965"/></g><g transform="rotate(-90.0, -0.6760998533536139, -0.297439126784215)"><polyline points="-0.6760998533536139,-0.282439126784215
-0.6760998533536139,-0.31243912678421504"/></g><g transform="rotate(-90.0, -0.6760998533536139, -0.4653652392947104)"><polyline points="-0.6760998533536139,-0.4503652392947104
-0.6760998533536139,-0.4803652392947104"/></g></g><g fill="#0d0d0d" stroke="none" stroke-width="0.0" font-size="4.561737447307783e-2" fill-opacity="1.0" text-anchor="end"><text x="-0.7089443629742299" y="0.38581024349286314">0</text><text x="-0.7089443629742299" y="0.2178841309823677">5</text><text x="-0.7089443629742299" y="4.995801847187237e-2">10</text><text x="-0.7089443629742299" y="-0.11796809403862296">15</text><text x="-0.7089443629742299" y="-0.28589420654911857">20</text><text x="-0.7089443629742299" y="-0.45382031905961384">25</text></g><g stroke-opacity="5.0e-2" fill="none" stroke="#0d0d0d" stroke-width="5.0e-3"><polyline points="-0.6333335647851034,0.3742653232577665
0.7351876694072312,0.3742653232577665"/><polyline points="-0.6333335647851034,0.20633921074727113
0.7351876694072312,0.20633921074727113"/><polyline points="-0.6333335647851034,3.8413098236775745e-2
0.7351876694072312,3.8413098236775745e-2"/><polyline points="-0.6333335647851034,-0.12951301427371964
0.7351876694072312,-0.12951301427371964"/><polyline points="-0.6333335647851034,-0.297439126784215
0.7351876694072312,-0.297439126784215"/><polyline points="-0.6333335647851034,-0.4653652392947104
0.7351876694072312,-0.4653652392947104"/></g><g stroke-opacity="0.0" fill="#0d0d0d" stroke="#000000" stroke-width="0.0" fill-opacity="0.4"><rect width="3.6493899578462496e-3" x="-0.661502293522229" y="-0.4670445004198154" height="0.8429890848026869"/></g><g stroke-opacity="0.4" fill="#0d0d0d" stroke="#0d0d0d" stroke-width="4.0e-3" fill-opacity="0.4"><polyline points="-0.6333335647851034,0.44908900083963055
-0.6333335647851034,0.4190890008396305"/><polyline points="-0.4964814413658699,0.44908900083963055
-0.4964814413658699,0.4190890008396305"/><polyline points="-0.35962931794663644,0.44908900083963055
-0.35962931794663644,0.4190890008396305"/><polyline points="-0.22277719452740286,0.44908900083963055
-0.22277719452740286,0.4190890008396305"/><polyline points="-8.592507110816949e-2,0.44908900083963055
-8.592507110816949e-2,0.4190890008396305"/><polyline points="5.092705231106398e-2,0.44908900083963055
5.092705231106398e-2,0.4190890008396305"/><polyline points="0.18777917573029768,0.44908900083963055
0.18777917573029768,0.4190890008396305"/><polyline points="0.32463129914953104,0.44908900083963055
0.32463129914953104,0.4190890008396305"/><polyline points="0.4614834225687643,0.44908900083963055
0.4614834225687643,0.4190890008396305"/><polyline points="0.5983355459879978,0.44908900083963055
0.5983355459879978,0.4190890008396305"/><polyline points="0.7351876694072312,0.44908900083963055
0.7351876694072312,0.4190890008396305"/></g><g fill="#0d0d0d" stroke="none" stroke-width="0.0" font-size="4.561737447307783e-2" fill-opacity="1.0" text-anchor="middle"><text x="-0.6333335647851034" y="0.48740554156171284">0</text><text x="-0.4964814413658699" y="0.48740554156171284">0.1</text><text x="-0.35962931794663644" y="0.48740554156171284">0.2</text><text x="-0.22277719452740286" y="0.48740554156171284">0.3</text><text x="-8.592507110816949e-2" y="0.48740554156171284">0.4</text><text x="5.092705231106398e-2" y="0.48740554156171284">0.5</text><text x="0.18777917573029768" y="0.48740554156171284">0.6</text><text x="0.32463129914953104" y="0.48740554156171284">0.7</text><text x="0.4614834225687643" y="0.48740554156171284">0.8</text><text x="0.5983355459879978" y="0.48740554156171284">0.9</text><text x="0.7351876694072312" y="0.48740554156171284">1</text></g><g stroke-opacity="5.0e-2" fill="none" stroke="#0d0d0d" stroke-width="5.0e-3"><polyline points="-0.6333335647851034,0.3742653232577665
-0.6333335647851034,-0.4653652392947104"/><polyline points="-0.4964814413658699,0.3742653232577665
-0.4964814413658699,-0.4653652392947104"/><polyline points="-0.35962931794663644,0.3742653232577665
-0.35962931794663644,-0.4653652392947104"/><polyline points="-0.22277719452740286,0.3742653232577665
-0.22277719452740286,-0.4653652392947104"/><polyline points="-8.592507110816949e-2,0.3742653232577665
-8.592507110816949e-2,-0.4653652392947104"/><polyline points="5.092705231106398e-2,0.3742653232577665
5.092705231106398e-2,-0.4653652392947104"/><polyline points="0.18777917573029768,0.3742653232577665
0.18777917573029768,-0.4653652392947104"/><polyline points="0.32463129914953104,0.3742653232577665
0.32463129914953104,-0.4653652392947104"/><polyline points="0.4614834225687643,0.3742653232577665
0.4614834225687643,-0.4653652392947104"/><polyline points="0.5983355459879978,0.3742653232577665
0.5983355459879978,-0.4653652392947104"/><polyline points="0.7351876694072312,0.3742653232577665
0.7351876694072312,-0.4653652392947104"/></g><g stroke-opacity="0.0" fill="#0d0d0d" stroke="#000000" stroke-width="0.0" fill-opacity="0.4"><rect width="1.372170624150181" x="-0.6351582597640265" y="0.417296389588581" height="3.3585222502098833e-3"/></g><g stroke-opacity="0.0" fill="#ffffff" stroke="#000000" stroke-width="0.0" fill-opacity="2.0e-2"><rect width="1.398729428669767" x="-0.6487294286697671" y="-0.5" height="0.9089000839630562"/></g><g fill="#0d0d0d" stroke="none" stroke-width="0.0" font-size="6.842606170961675e-2" fill-opacity="1.0" text-anchor="middle"><text x="-0.6333335647851034" y="0.3742653232577665">a</text><text x="-0.4967094142219486" y="0.34068010075566746">b</text><text x="-0.361450367009281" y="0.3070948782535684">c</text><text x="-0.22890788683615315" y="0.27350965575146935">d</text><text x="-0.10040629435173587" y="0.23992443324937018">e</text><text x="2.2770465008845386e-2" y="0.20633921074727113">f</text><text x="0.1393916497828831" y="0.17275398824517207">g</text><text x="0.24829201964195324" y="0.13916876574307296">h</text><text x="0.3483834780881001" y="0.10558354324097391">i</text><text x="0.43866594435436745" y="7.199832073887485e-2">j</text><text x="0.5182373458812382" y="3.8413098236775745e-2">k</text><text x="0.5863026315274644" y="4.827875734676745e-3">l</text><text x="0.6421817154582607" y="-2.8757346767422365e-2">m</text><text x="0.6853162723381598" y="-6.234256926952153e-2">n</text><text x="0.715275315933207" y="-9.592779177162059e-2">o</text><text x="0.7317595053829433" y="-0.12951301427371964">p</text><text x="0.7346041361153359" y="-0.1630982367758187">q</text><text x="0.7237807855204164" y="-0.19668345927791786">r</text><text x="0.6993975969396053" y="-0.2302686817800168">s</text><text x="0.6616981991331916" y="-0.26385390428211597">t</text><text x="0.6110592720222925" y="-0.297439126784215">u</text><text x="0.5479867830275971" y="-0.3310243492863141">v</text><text x="0.47311093161014606" y="-0.364609571788413">w</text><text x="0.38717985252663834" y="-0.3981947942905122">x</text><text x="0.291052140714237" y="-0.43178001679261124">y</text><text x="0.18568827249377573" y="-0.4653652392947104">z</text></g></svg>