<?xml version='1.0' ?>
<svg viewBox="-1.8755000000000002 -0.8604500000000002 3.751 1.5609000000000002" xmlns="http://www.w3.org/2000/svg" xmlns:xlink="http://www.w3.org/1999/xlink" version="1.1" width="600.0" height="200.0">
  <g stroke-width="1.0e-2" stroke="#5DA5DA" fill="#000000" fill-opacity="0.0" stroke-opacity="1.0">
    <rect width="3.4099999999999997" height="1.419" x="-1.705" y="-0.7895000000000001" />
  </g>
  <g stroke-width="0.0" stroke="none" fill="#666666" fill-opacity="1.0" font-size="0.2" text-anchor="middle">
    <text x="-1.5" y="0.5">a</text>
    <text x="-1.2003719895871956" y="0.4583333333333333">b</text>
    <text x="-0.9037377632105841" y="0.4166666666666667">c</text>
    <text x="-0.6130611920058815" y="0.375">d</text>
    <text x="-0.33124662018766604" y="0.33333333333333337">e</text>
    <text x="-6.1109845802032714e-2" y="0.2916666666666667">f</text>
    <text x="0.19465001379670266" y="0.25">g</text>
    <text x="0.4334774906343981" y="0.20833333333333337">h</text>
    <text x="0.6529862995083597" y="0.16666666666666669">i</text>
    <text x="0.8509831809602839" y="0.125">j</text>
    <text x="1.0254898155997707" y="8.333333333333337e-2">k</text>
    <text x="1.1747625908177266" y="4.1666666666666685e-2">l</text>
    <text x="1.297310022387192" y="-0.0">m</text>
    <text x="1.3919076568807207" y="-4.166666666666663e-2">n</text>
    <text x="1.4576103060042742" y="-8.333333333333326e-2">o</text>
    <text x="1.493761490606217" y="-0.125">p</text>
    <text x="1.4999999999999996" y="-0.16666666666666663">q</text>
    <text x="1.4762635010619376" y="-0.20833333333333326">r</text>
    <text x="1.422789161043176" y="-0.25">s</text>
    <text x="1.3401112778729152" y="-0.29166666666666663">t</text>
    <text x="1.2290559416301186" y="-0.33333333333333326">u</text>
    <text x="1.09073278052451" y="-0.375">v</text>
    <text x="0.9265238738582986" y="-0.41666666666666663">w</text>
    <text x="0.738069942746646" y="-0.45833333333333326">x</text>
    <text x="0.5272539565746319" y="-0.5">y</text>
  </g>
</svg>
