<svg xmlns="http://www.w3.org/2000/svg" width="446.96375557008713" xmlns:xlink="http://www.w3.org/1999/xlink" viewBox="-0.7422279053000083 -0.5019500039191658 1.4902112372352054 1.000222871763612" height="300.0"><style>svg {
  color-scheme: light dark;
}
{
  .canvas g, .title g, .axisbar g, .ticktext g, .tickglyph g, .ticklines g, .legendContent g text {
    fill: #0d0d0d;
  }
  .ticklines g, .tickglyph g, .legendBorder g {
    stroke: #0d0d0d;
  }
}
@media (prefers-color-scheme:dark) {
  .canvas g, .title g, .axisbar g, .ticktext g, .tickglyph g, .ticklines g, .legendContent g text {
    fill: #f0f0f0;
  }
  .ticklines g, .tickglyph g, .legendBorder g {
    stroke: #f0f0f0;
  }
}{
  .text g {
    fill: #0d0d0d;
  }
}
@media (prefers-color-scheme:dark) {
  .text g {
    fill: #f0f0f0;
  }
}</style><g class="chart"><g class="text"><g fill="#0d0d0d" stroke="none" stroke-width="0.0" font-size="6.636433922223138e-2" fill-opacity="1.0" text-anchor="middle"><text x="-0.6091674051594342" y="0.37213541666666666">a</text><text x="-0.476659830598145" y="0.3386320153061224">b</text><text x="-0.3454762279206915" y="0.3051286139455782">c</text><text x="-0.21692734032149308" y="0.271625212585034">d</text><text x="-9.229758579282832e-2" y="0.23812181122448978">e</text><text x="2.716777635517187e-2" y="0.20461840986394558">f</text><text x="0.1402750877139235" y="0.1711150085034014">g</text><text x="0.24589421741663553" y="0.13761160714285714">h</text><text x="0.34296985403236124" y="0.10410820578231295">i</text><text x="0.4305320498889752" y="7.060480442176875e-2">j</text><text x="0.5077059124696927" y="3.71014030612245e-2">k</text><text x="0.5737203460498937" y="3.5980017006802534e-3">l</text><text x="0.6279157562307155" y="-2.990539965986394e-2">m</text><text x="0.6697506403882519" y="-6.340880102040813e-2">n</text><text x="0.6988069981887756" y="-9.691220238095244e-2">o</text><text x="0.714794508109898" y="-0.13041560374149652">p</text><text x="0.7175534282372557" y="-0.16391900510204072">q</text><text x="0.7070561923529136" y="-0.1974224064625849">r</text><text x="0.683407685367904" y="-0.2309258078231291">s</text><text x="0.646844195346863" y="-0.2644292091836733">t</text><text x="0.5977310525957987" y="-0.2979326105442176">u</text><text x="0.5365589794024329" y="-0.3314360119047618">v</text><text x="0.4639391869013144" y="-0.364939413265306">w</text><text x="0.38059726805420324" y="-0.3984428146258503">x</text><text x="0.2873659477650433" y="-0.43194621598639427">y</text><text x="0.18517676256798787" y="-0.46544961734693857">z</text></g></g></g><g class="hud"><g class="frame"><g fill="#ffffff" stroke="#000000" stroke-width="0.0" fill-opacity="2.0e-2" stroke-opacity="0.0"><rect x="-0.6240993814844363" width="1.356584786046694" y="-0.4999999999999999" height="0.9066857993197277"/></g></g><g class="axis"><g class="ticks"><g class="tickglyph"><g fill="#0d0d0d" stroke="#0d0d0d" stroke-width="4.0e-3" fill-opacity="0.4" stroke-opacity="0.4"><g transform="rotate(-90.0, -0.650645117173329, 0.37213541666666666)"><polyline points="-0.650645117173329,0.3871354166666667
-0.650645117173329,0.35713541666666665"/></g><g transform="rotate(-90.0, -0.650645117173329, 0.20461840986394558)"><polyline points="-0.650645117173329,0.2196184098639456
-0.650645117173329,0.18961840986394557"/></g><g transform="rotate(-90.0, -0.650645117173329, 3.71014030612245e-2)"><polyline points="-0.650645117173329,5.21014030612245e-2
-0.650645117173329,2.2101403061224503e-2"/></g><g transform="rotate(-90.0, -0.650645117173329, -0.13041560374149652)"><polyline points="-0.650645117173329,-0.11541560374149652
-0.650645117173329,-0.14541560374149654"/></g><g transform="rotate(-90.0, -0.650645117173329, -0.2979326105442176)"><polyline points="-0.650645117173329,-0.2829326105442176
-0.650645117173329,-0.3129326105442176"/></g><g transform="rotate(-90.0, -0.650645117173329, -0.46544961734693857)"><polyline points="-0.650645117173329,-0.45044961734693856
-0.650645117173329,-0.4804496173469386"/></g></g></g><g class="ticktext"><g fill="#0d0d0d" stroke="none" stroke-width="0.0" font-size="4.424289281482092e-2" fill-opacity="1.0" text-anchor="end"><text x="-0.6825" y="0.38365221088435375">0.0</text><text x="-0.6825" y="0.21613520408163267">5.0</text><text x="-0.6825" y="4.8618197278911646e-2">10</text><text x="-0.6825" y="-0.11889880952380938">15</text><text x="-0.6825" y="-0.28641581632653057">20</text><text x="-0.6825" y="-0.45393282312925154">25</text></g></g><g class="ticklines"><g fill="none" stroke="#0d0d0d" stroke-width="5.0e-3" stroke-opacity="5.0e-2"><polyline points="-0.6091674051594342,0.37213541666666666
0.7181193792851931,0.37213541666666666"/><polyline points="-0.6091674051594342,0.20461840986394558
0.7181193792851931,0.20461840986394558"/><polyline points="-0.6091674051594342,3.71014030612245e-2
0.7181193792851931,3.71014030612245e-2"/><polyline points="-0.6091674051594342,-0.13041560374149652
0.7181193792851931,-0.13041560374149652"/><polyline points="-0.6091674051594342,-0.2979326105442176
0.7181193792851931,-0.2979326105442176"/><polyline points="-0.6091674051594342,-0.46544961734693857
0.7181193792851931,-0.46544961734693857"/></g></g></g><g class="axisbar"><g fill="#0d0d0d" stroke="#000000" stroke-width="0.0" fill-opacity="0.4" stroke-opacity="0.0"><rect x="-0.6364873914725862" width="3.5394314251856462e-3" y="-0.4671247874149659" height="0.8409353741496597"/></g></g></g><g class="axis"><g class="ticks"><g class="tickglyph"><g fill="#0d0d0d" stroke="#0d0d0d" stroke-width="4.0e-3" fill-opacity="0.4" stroke-opacity="0.4"><polyline points="-0.6091674051594342,0.4468133503401361
-0.6091674051594342,0.41681335034013606"/><polyline points="-0.47643872671497156,0.4468133503401361
-0.47643872671497156,0.41681335034013606"/><polyline points="-0.3437100482705088,0.4468133503401361
-0.3437100482705088,0.41681335034013606"/><polyline points="-0.21098136982604598,0.4468133503401361
-0.21098136982604598,0.41681335034013606"/><polyline points="-7.82526913815832e-2,0.4468133503401361
-7.82526913815832e-2,0.41681335034013606"/><polyline points="5.447598706287948e-2,0.4468133503401361
5.447598706287948e-2,0.41681335034013606"/><polyline points="0.18720466550734227,0.4468133503401361
0.18720466550734227,0.41681335034013606"/><polyline points="0.31993334395180495,0.4468133503401361
0.31993334395180495,0.41681335034013606"/><polyline points="0.45266202239626774,0.4468133503401361
0.45266202239626774,0.41681335034013606"/><polyline points="0.5853907008407305,0.4468133503401361
0.5853907008407305,0.41681335034013606"/><polyline points="0.7181193792851931,0.4468133503401361
0.7181193792851931,0.41681335034013606"/></g></g><g class="ticktext"><g fill="#0d0d0d" stroke="none" stroke-width="0.0" font-size="4.424289281482092e-2" fill-opacity="1.0" text-anchor="middle"><text x="-0.6091674051594342" y="0.485">0.0</text><text x="-0.47643872671497156" y="0.485">0.10</text><text x="-0.3437100482705088" y="0.485">0.20</text><text x="-0.21098136982604598" y="0.485">0.30</text><text x="-7.82526913815832e-2" y="0.485">0.40</text><text x="5.447598706287948e-2" y="0.485">0.50</text><text x="0.18720466550734227" y="0.485">0.60</text><text x="0.31993334395180495" y="0.485">0.70</text><text x="0.45266202239626774" y="0.485">0.80</text><text x="0.5853907008407305" y="0.485">0.90</text><text x="0.7181193792851931" y="0.485">1.0</text></g></g><g class="ticklines"><g fill="none" stroke="#0d0d0d" stroke-width="5.0e-3" stroke-opacity="5.0e-2"><polyline points="-0.6091674051594342,0.37213541666666666
-0.6091674051594342,-0.46544961734693857"/><polyline points="-0.47643872671497156,0.37213541666666666
-0.47643872671497156,-0.46544961734693857"/><polyline points="-0.3437100482705088,0.37213541666666666
-0.3437100482705088,-0.46544961734693857"/><polyline points="-0.21098136982604598,0.37213541666666666
-0.21098136982604598,-0.46544961734693857"/><polyline points="-7.82526913815832e-2,0.37213541666666666
-7.82526913815832e-2,-0.46544961734693857"/><polyline points="5.447598706287948e-2,0.37213541666666666
5.447598706287948e-2,-0.46544961734693857"/><polyline points="0.18720466550734227,0.37213541666666666
0.18720466550734227,-0.46544961734693857"/><polyline points="0.31993334395180495,0.37213541666666666
0.31993334395180495,-0.46544961734693857"/><polyline points="0.45266202239626774,0.37213541666666666
0.45266202239626774,-0.46544961734693857"/><polyline points="0.5853907008407305,0.37213541666666666
0.5853907008407305,-0.46544961734693857"/><polyline points="0.7181193792851931,0.37213541666666666
0.7181193792851931,-0.46544961734693857"/></g></g></g><g class="axisbar"><g fill="#0d0d0d" stroke="#000000" stroke-width="0.0" fill-opacity="0.4" stroke-opacity="0.0"><rect x="-0.6109371208720271" width="1.3308262158698132" y="0.4150616496598639" height="3.350340136054397e-3"/></g></g></g></g></svg>