<svg width="442.51213597273477" xmlns:xlink="http://www.w3.org/1999/xlink" xmlns="http://www.w3.org/2000/svg" viewBox="-0.77 -0.5229620527700249 1.5400000000000005 1.044039162868216" height="300.0"><style>svg {
  color-scheme: light dark;
}
@media (prefers-color-scheme:dark) {
  svg {
    background-color: #f0f0f0;
  }
}</style><g stroke-opacity="0.0" fill="#0d0d0d" stroke="#000000" stroke-width="0.0" fill-opacity="0.4"><rect width="3.6627567856778454e-3" x="-0.6666722831258274" y="-0.46687763713080166" height="0.8472573839662447"/></g><g stroke-opacity="0.4" fill="#0d0d0d" stroke="#0d0d0d" stroke-width="4.0e-3" fill-opacity="0.4"><g transform="rotate(-90.0, -0.6813233102685391, 0.37869198312236285)"><polyline points="-0.6813233102685391,0.39369198312236287
-0.6813233102685391,0.36369198312236284"/></g><g transform="rotate(-90.0, -0.6813233102685391, 0.20991561181434598)"><polyline points="-0.6813233102685391,0.224915611814346
-0.6813233102685391,0.19491561181434597"/></g><g transform="rotate(-90.0, -0.6813233102685391, 4.113924050632911e-2)"><polyline points="-0.6813233102685391,5.613924050632911e-2
-0.6813233102685391,2.613924050632911e-2"/></g><g transform="rotate(-90.0, -0.6813233102685391, -0.1276371308016877)"><polyline points="-0.6813233102685391,-0.1126371308016877
-0.6813233102685391,-0.14263713080168772"/></g><g transform="rotate(-90.0, -0.6813233102685391, -0.29641350210970463)"><polyline points="-0.6813233102685391,-0.2814135021097046
-0.6813233102685391,-0.31141350210970464"/></g><g transform="rotate(-90.0, -0.6813233102685391, -0.46518987341772144)"><polyline points="-0.6813233102685391,-0.45018987341772143
-0.6813233102685391,-0.48018987341772146"/></g></g><g fill="#0d0d0d" stroke="none" stroke-width="0.0" font-size="4.578445982097391e-2" fill-opacity="1.0" text-anchor="end"><text x="-0.7087939861611234" y="0.39029535864978904">0</text><text x="-0.7087939861611234" y="0.2215189873417721">5</text><text x="-0.7087939861611234" y="5.2742616033755296e-2">10</text><text x="-0.7087939861611234" y="-0.11603375527426152">15</text><text x="-0.7087939861611234" y="-0.28481012658227856">20</text><text x="-0.7087939861611234" y="-0.45358649789029537">25</text></g><g stroke-opacity="5.0e-2" fill="none" stroke="#0d0d0d" stroke-width="5.0e-3"><polyline points="-0.638400379186376,0.37869198312236285
0.7351334154428413,0.37869198312236285"/><polyline points="-0.638400379186376,0.20991561181434598
0.7351334154428413,0.20991561181434598"/><polyline points="-0.638400379186376,4.113924050632911e-2
0.7351334154428413,4.113924050632911e-2"/><polyline points="-0.638400379186376,-0.1276371308016877
0.7351334154428413,-0.1276371308016877"/><polyline points="-0.638400379186376,-0.29641350210970463
0.7351334154428413,-0.29641350210970463"/><polyline points="-0.638400379186376,-0.46518987341772144
0.7351334154428413,-0.46518987341772144"/></g><g stroke-opacity="0.0" fill="#0d0d0d" stroke="#000000" stroke-width="0.0" fill-opacity="0.4"><rect width="1.3771965514148952" x="-0.640231757579215" y="0.42194092827004215" height="3.375527426160374e-3"/></g><g stroke-opacity="0.4" fill="#0d0d0d" stroke="#0d0d0d" stroke-width="4.0e-3" fill-opacity="0.4"><polyline points="-0.638400379186376,0.45381856540084387
-0.638400379186376,0.42381856540084384"/><polyline points="-0.5010469997234543,0.45381856540084387
-0.5010469997234543,0.42381856540084384"/><polyline points="-0.36369362026053254,0.45381856540084387
-0.36369362026053254,0.42381856540084384"/><polyline points="-0.22634024079761073,0.45381856540084387
-0.22634024079761073,0.42381856540084384"/><polyline points="-8.898686133468903e-2,0.45381856540084387
-8.898686133468903e-2,0.42381856540084384"/><polyline points="4.836651812823256e-2,0.45381856540084387
4.836651812823256e-2,0.42381856540084384"/><polyline points="0.18571989759115448,0.45381856540084387
0.18571989759115448,0.42381856540084384"/><polyline points="0.32307327705407607,0.45381856540084387
0.32307327705407607,0.42381856540084384"/><polyline points="0.4604266565169981,0.45381856540084387
0.4604266565169981,0.42381856540084384"/><polyline points="0.5977800359799197,0.45381856540084387
0.5977800359799197,0.42381856540084384"/><polyline points="0.7351334154428413,0.45381856540084387
0.7351334154428413,0.42381856540084384"/></g><g fill="#0d0d0d" stroke="none" stroke-width="0.0" font-size="4.578445982097391e-2" fill-opacity="1.0" text-anchor="middle"><text x="-0.638400379186376" y="0.4873417721518987">0</text><text x="-0.5010469997234543" y="0.4873417721518987">0.1</text><text x="-0.36369362026053254" y="0.4873417721518987">0.2</text><text x="-0.22634024079761073" y="0.4873417721518987">0.3</text><text x="-8.898686133468903e-2" y="0.4873417721518987">0.4</text><text x="4.836651812823256e-2" y="0.4873417721518987">0.5</text><text x="0.18571989759115448" y="0.4873417721518987">0.6</text><text x="0.32307327705407607" y="0.4873417721518987">0.7</text><text x="0.4604266565169981" y="0.4873417721518987">0.8</text><text x="0.5977800359799197" y="0.4873417721518987">0.9</text><text x="0.7351334154428413" y="0.4873417721518987">1</text></g><g stroke-opacity="5.0e-2" fill="none" stroke="#0d0d0d" stroke-width="5.0e-3"><polyline points="-0.638400379186376,0.37869198312236285
-0.638400379186376,-0.46518987341772144"/><polyline points="-0.5010469997234543,0.37869198312236285
-0.5010469997234543,-0.46518987341772144"/><polyline points="-0.36369362026053254,0.37869198312236285
-0.36369362026053254,-0.46518987341772144"/><polyline points="-0.22634024079761073,0.37869198312236285
-0.22634024079761073,-0.46518987341772144"/><polyline points="-8.898686133468903e-2,0.37869198312236285
-8.898686133468903e-2,-0.46518987341772144"/><polyline points="4.836651812823256e-2,0.37869198312236285
4.836651812823256e-2,-0.46518987341772144"/><polyline points="0.18571989759115448,0.37869198312236285
0.18571989759115448,-0.46518987341772144"/><polyline points="0.32307327705407607,0.37869198312236285
0.32307327705407607,-0.46518987341772144"/><polyline points="0.4604266565169981,0.37869198312236285
0.4604266565169981,-0.46518987341772144"/><polyline points="0.5977800359799197,0.37869198312236285
0.5977800359799197,-0.46518987341772144"/><polyline points="0.7351334154428413,0.37869198312236285
0.7351334154428413,-0.46518987341772144"/></g><g stroke-opacity="0.0" fill="#ffffff" stroke="#000000" stroke-width="0.0" fill-opacity="2.0e-2"><rect width="1.4038526343759548" x="-0.6538526343759548" y="-0.4999999999999999" height="0.9135021097046412"/></g><g fill="#0d0d0d" stroke="none" stroke-width="0.0" font-size="6.867668973146088e-2" fill-opacity="1.0" text-anchor="middle"><text x="-0.638400379186376" y="0.37869198312236285">a</text><text x="-0.5012758075886585" y="0.3449367088607595">b</text><text x="-0.36552133938298836" y="0.3111814345991561">c</text><text x="-0.2324933883412157" y="0.27742616033755274">d</text><text x="-0.10352112577695582" y="0.24367088607594933">e</text><text x="2.010680009481125e-2" y="0.20991561181434598">f</text><text x="0.13715513990473394" y="0.17616033755274263">g</text><text x="0.2464543853324681" y="0.14240506329113922">h</text><text x="0.3469124544472275" y="0.10864978902953587">i</text><text x="0.43752560342943925" y="7.489451476793252e-2">j</text><text x="0.5173884556471986" y="4.113924050632911e-2">k</text><text x="0.5857030478802945" y="7.383966244725815e-3">l</text><text x="0.6417868033049359" y="-2.6371308016877593e-2">m</text><text x="0.6850793515757441" y="-6.0126582278481e-2">n</text><text x="0.7151481278610115" y="-9.388185654008441e-2">o</text><text x="0.7316926948875113" y="-0.1276371308016877">p</text><text x="0.7345477448104216" y="-0.1613924050632911">q</text><text x="0.7236847509146667" y="-0.19514767932489452">r</text><text x="0.6992122526444249" y="-0.22890295358649781">s</text><text x="0.6613747711128792" y="-0.2626582278481012">t</text><text x="0.6105503659280858" y="-0.29641350210970463">u</text><text x="0.547246857746335" y="-0.3301687763713079">v</text><text x="0.4720967542960217" y="-0.36392405063291144">w</text><text x="0.38585093056950015" y="-0.39767932489451485">x</text><text x="0.28937112632836604" y="-0.43143459915611804">y</text><text x="0.18362133588461516" y="-0.46518987341772144">z</text></g></svg>