<svg height="300" viewBox="-0.75 -0.5 1.5 1.0" width="450" xmlns="http://www.w3.org/2000/svg" xmlns:xlink="http://www.w3.org/1999/xlink"><style>svg {
  color-scheme: light dark;
}
{
  .canvas g, .title g, .axisbar g, .ticktext g, .tickglyph g, .ticklines g, .legendContent g text {
    fill: rgb(5%, 5%, 5%);
  }
  .ticklines g, .tickglyph g, .legendBorder g {
    stroke: rgb(5%, 5%, 5%);
  }
  .legendBorder g {
    fill: rgb(94%, 94%, 94%);
  }
}
@media (prefers-color-scheme:dark) {
  .canvas g, .title g, .axisbar g, .ticktext g, .tickglyph g, .ticklines g, .legendContent g text {
    fill: rgb(94%, 94%, 94%);
  }
  .ticklines g, .tickglyph g, .legendBorder g {
    stroke: rgb(94%, 94%, 94%);
  }
  .legendBorder g {
    fill: rgb(5%, 5%, 5%);
  }
}
{
  .text g {
    fill: rgba(94%, 94%, 94%, 1.00);
  }
}
@media (prefers-color-scheme:dark) {
  .text g {
    fill: rgba(5%, 5%, 5%, 1.00);
  }
}
</style><g class="chart"><g class="text"><g fill="rgb(5%, 5%, 5%)" fill-opacity="1.0" font-size="0.0630" stroke="none" stroke-width="0.0" text-anchor="middle"><text x="-0.5713" y="0.3507">a</text><text x="-0.4456" y="0.3192">b</text><text x="-0.3211" y="0.2878">c</text><text x="-0.1991" y="0.2563">d</text><text x="-0.0809" y="0.2248">e</text><text x="0.0325" y="0.1934">f</text><text x="0.1398" y="0.1619">g</text><text x="0.2400" y="0.1304">h</text><text x="0.3321" y="0.0989">i</text><text x="0.4152" y="0.0675">j</text><text x="0.4884" y="0.0360">k</text><text x="0.5511" y="0.0045">l</text><text x="0.6025" y="-0.0269">m</text><text x="0.6422" y="-0.0584">n</text><text x="0.6698" y="-0.0899">o</text><text x="0.6849" y="-0.1214">p</text><text x="0.6875" y="-0.1528">q</text><text x="0.6776" y="-0.1843">r</text><text x="0.6551" y="-0.2158">s</text><text x="0.6205" y="-0.2472">t</text><text x="0.5739" y="-0.2787">u</text><text x="0.5158" y="-0.3102">v</text><text x="0.4469" y="-0.3417">w</text><text x="0.3678" y="-0.3731">x</text><text x="0.2794" y="-0.4046">y</text><text x="0.1824" y="-0.4361">z</text></g></g></g><g class="hud"><g class="frame"><g fill="rgb(100%, 100%, 100%)" fill-opacity="0.02" stroke="rgb(0%, 0%, 0%)" stroke-opacity="0" stroke-width="0"><rect height="0.8517" width="1.2872" x="-0.5854" y="-0.4685"/></g></g><g class="axis"><g class="ticks"><g class="tickglyph"><g fill="rgb(5%, 5%, 5%)" fill-opacity="0.4" stroke="rgb(5%, 5%, 5%)" stroke-opacity="0.4" stroke-width="0.0040"><g transform="rotate(-90.0, -0.6106, 0.3507)"><polyline points="-0.6106,0.3657
-0.6106,0.3357"/></g><g transform="rotate(-90.0, -0.6106, 0.1934)"><polyline points="-0.6106,0.2084
-0.6106,0.1784"/></g><g transform="rotate(-90.0, -0.6106, 0.0360)"><polyline points="-0.6106,0.0510
-0.6106,0.0210"/></g><g transform="rotate(-90.0, -0.6106, -0.1214)"><polyline points="-0.6106,-0.1064
-0.6106,-0.1364"/></g><g transform="rotate(-90.0, -0.6106, -0.2787)"><polyline points="-0.6106,-0.2637
-0.6106,-0.2937"/></g><g transform="rotate(-90.0, -0.6106, -0.4361)"><polyline points="-0.6106,-0.4211
-0.6106,-0.4511"/></g></g></g><g class="ticktext"><g fill="rgb(5%, 5%, 5%)" fill-opacity="1.0" font-size="0.0420" stroke="none" stroke-width="0.0" text-anchor="end"><text x="-0.6409" y="0.3615"> 0.0</text><text x="-0.6409" y="0.2042"> 5.0</text><text x="-0.6409" y="0.0468">10.0</text><text x="-0.6409" y="-0.1105">15.0</text><text x="-0.6409" y="-0.2679">20.0</text><text x="-0.6409" y="-0.4253">25.0</text></g></g><g class="ticklines"><g fill="none" stroke="rgb(5%, 5%, 5%)" stroke-opacity="0.05" stroke-width="0.0050"><polyline points="-0.5713,0.3507 0.6881,0.3507"/><polyline points="-0.5713,0.1934 0.6881,0.1934"/><polyline points="-0.5713,0.0360 0.6881,0.0360"/><polyline points="-0.5713,-0.1214 0.6881,-0.1214"/><polyline points="-0.5713,-0.2787 0.6881,-0.2787"/><polyline points="-0.5713,-0.4361 0.6881,-0.4361"/></g></g></g><g class="axisbar"><g fill="rgb(5%, 5%, 5%)" fill-opacity="0.4" stroke="rgb(0%, 0%, 0%)" stroke-opacity="0" stroke-width="0"><rect height="0.7899" width="0.0034" x="-0.5972" y="-0.4376"/></g></g></g><g class="axis"><g class="ticks"><g class="tickglyph"><g fill="rgb(5%, 5%, 5%)" fill-opacity="0.4" stroke="rgb(5%, 5%, 5%)" stroke-opacity="0.4" stroke-width="0.0040"><polyline points="-0.5713,0.4218
-0.5713,0.3918"/><polyline points="-0.4453,0.4218
-0.4453,0.3918"/><polyline points="-0.3194,0.4218
-0.3194,0.3918"/><polyline points="-0.1935,0.4218
-0.1935,0.3918"/><polyline points="-0.0675,0.4218
-0.0675,0.3918"/><polyline points="0.0584,0.4218
0.0584,0.3918"/><polyline points="0.1843,0.4218
0.1843,0.3918"/><polyline points="0.3103,0.4218
0.3103,0.3918"/><polyline points="0.4362,0.4218
0.4362,0.3918"/><polyline points="0.5621,0.4218
0.5621,0.3918"/><polyline points="0.6881,0.4218
0.6881,0.3918"/></g></g><g class="ticktext"><g fill="rgb(5%, 5%, 5%)" fill-opacity="1.0" font-size="0.0420" stroke="none" stroke-width="0.0" text-anchor="middle"><text x="-0.5713" y="0.4567">0.0</text><text x="-0.4453" y="0.4567">0.1</text><text x="-0.3194" y="0.4567">0.2</text><text x="-0.1935" y="0.4567">0.3</text><text x="-0.0675" y="0.4567">0.4</text><text x="0.0584" y="0.4567">0.5</text><text x="0.1843" y="0.4567">0.6</text><text x="0.3103" y="0.4567">0.7</text><text x="0.4362" y="0.4567">0.8</text><text x="0.5621" y="0.4567">0.9</text><text x="0.6881" y="0.4567">1.0</text></g></g><g class="ticklines"><g fill="none" stroke="rgb(5%, 5%, 5%)" stroke-opacity="0.05" stroke-width="0.0050"><polyline points="-0.5713,0.3507 -0.5713,-0.4361"/><polyline points="-0.4453,0.3507 -0.4453,-0.4361"/><polyline points="-0.3194,0.3507 -0.3194,-0.4361"/><polyline points="-0.1935,0.3507 -0.1935,-0.4361"/><polyline points="-0.0675,0.3507 -0.0675,-0.4361"/><polyline points="0.0584,0.3507 0.0584,-0.4361"/><polyline points="0.1843,0.3507 0.1843,-0.4361"/><polyline points="0.3103,0.3507 0.3103,-0.4361"/><polyline points="0.4362,0.3507 0.4362,-0.4361"/><polyline points="0.5621,0.3507 0.5621,-0.4361"/><polyline points="0.6881,0.3507 0.6881,-0.4361"/></g></g></g><g class="axisbar"><g fill="rgb(5%, 5%, 5%)" fill-opacity="0.4" stroke="rgb(0%, 0%, 0%)" stroke-opacity="0" stroke-width="0"><rect height="0.0031" width="1.2627" x="-0.5730" y="0.3910"/></g></g></g><g class="frame"><g fill="rgb(100%, 100%, 100%)" fill-opacity="0.02" stroke="rgb(0%, 0%, 0%)" stroke-opacity="0" stroke-width="0"><rect height="1.0" width="1.5" x="-0.75" y="-0.5"/></g></g></g></svg>