<svg width="442.2858054662814" xmlns:xlink="http://www.w3.org/1999/xlink" xmlns="http://www.w3.org/2000/svg" viewBox="-0.77 -0.5233261295011551 1.54 1.0445734280640884" height="300.0"><style>svg {
  color-scheme: light dark;
}
@media (prefers-color-scheme:dark) {
  svg {
    background-color: #f0f0f0;
  }
}</style><g stroke-opacity="0.0" fill="#ffffff" stroke="#000000" stroke-width="0.0" fill-opacity="2.0e-2"><rect width="1.3937664411232702" x="-0.6545841221763024" y="-0.47832880302920866" height="0.8937079386670711"/></g><g fill="#0d0d0d" stroke="none" stroke-width="0.0" font-size="6.818327158512243e-2" fill-opacity="1.0" text-anchor="middle"><text x="-0.6392428860696497" y="0.38130987050987586">a</text><text x="-0.5031035068596225" y="0.34828709417343195">b</text><text x="-0.3683243873249662" y="0.31526431783698805">c</text><text x="-0.23625219587601753" y="0.28224154150054415">d</text><text x="-0.10820655419247227" y="0.2492187651641002">e</text><text x="1.4533148000229423e-2" y="0.21619598882765628">f</text><text x="0.13074053617012926" y="0.18317321249121238">g</text><text x="0.23925450450768881" y="0.15015043615476842">h</text><text x="0.3389908173112286" y="0.11712765981832451">i</text><text x="0.4289529423116567" y="8.410488348188061e-2">j</text><text x="0.5082420076934944" y="5.108210714543665e-2">k</text><text x="0.5760657833249265" y="1.805933080899269e-2">l</text><text x="0.6317465964594029" y="-1.4963445527451213e-2">m</text><text x="0.6747281028177143" y="-4.798622186389512e-2">n</text><text x="0.7045808453961249" y="-8.100899820033902e-2">o</text><text x="0.7210065454587959" y="-0.11403177453678293">p</text><text x="0.7238410828403157" y="-0.14705455087322683">q</text><text x="0.7130561357801422" y="-0.18007732720967085">r</text><text x="0.6887594639042705" y="-0.21310010354611475">s</text><text x="0.6511938315266728" y="-0.24612287988255865">t</text><text x="0.6007345820285188" y="-0.27914565621900256">u</text><text x="0.5378858875511834" y="-0.31216843255544646">v</text><text x="0.46327571147486823" y="-0.34519120889189037">w</text><text x="0.3776495340160828" y="-0.3782139852283344">x</text><text x="0.2818629036357436" y="-0.4112367615647782">y</text><text x="0.17687288868176165" y="-0.4442595379012221">z</text></g><g stroke-opacity="0.0" fill="#0d0d0d" stroke="#000000" stroke-width="0.0" fill-opacity="0.4"><rect width="1.3979958829932375" x="-0.6564015674681822" y="0.4236348297219734" height="3.3022776336443793e-3"/></g><g stroke-opacity="0.4" fill="#0d0d0d" stroke="#0d0d0d" stroke-width="4.0e-3" fill-opacity="0.4"><polyline points="-0.6545841221763024,0.4551462178901954
-0.6545841221763024,0.42514621789019535"/><polyline points="-0.5151480229353544,0.4551462178901954
-0.5151480229353544,0.42514621789019535"/><polyline points="-0.37571192369440676,0.4551462178901954
-0.37571192369440676,0.42514621789019535"/><polyline points="-0.23627582445345907,0.4551462178901954
-0.23627582445345907,0.42514621789019535"/><polyline points="-9.683972521251116e-2,0.4551462178901954
-9.683972521251116e-2,0.42514621789019535"/><polyline points="4.259637402843652e-2,0.4551462178901954
4.259637402843652e-2,0.42514621789019535"/><polyline points="0.18203247326938443,0.4551462178901954
0.18203247326938443,0.42514621789019535"/><polyline points="0.32146857251033234,0.4551462178901954
0.32146857251033234,0.42514621789019535"/><polyline points="0.46090467175128014,0.4551462178901954
0.46090467175128014,0.42514621789019535"/><polyline points="0.6003407709922275,0.4551462178901954
0.6003407709922275,0.42514621789019535"/><polyline points="0.7397768702331753,0.4551462178901954
0.7397768702331753,0.42514621789019535"/></g><g fill="#0d0d0d" stroke="none" stroke-width="0.0" font-size="4.543613229699886e-2" fill-opacity="1.0" text-anchor="middle"><text x="-0.6545841221763024" y="0.48761645887383354">0</text><text x="-0.5151480229353544" y="0.48761645887383354">0.1</text><text x="-0.37571192369440676" y="0.48761645887383354">0.2</text><text x="-0.23627582445345907" y="0.48761645887383354">0.3</text><text x="-9.683972521251116e-2" y="0.48761645887383354">0.4</text><text x="4.259637402843652e-2" y="0.48761645887383354">0.5</text><text x="0.18203247326938443" y="0.48761645887383354">0.6</text><text x="0.32146857251033234" y="0.48761645887383354">0.7</text><text x="0.46090467175128014" y="0.48761645887383354">0.8</text><text x="0.6003407709922275" y="0.48761645887383354">0.9</text><text x="0.7397768702331753" y="0.48761645887383354">1</text></g><g stroke-opacity="5.0e-2" fill="none" stroke="#0d0d0d" stroke-width="5.0e-3"><polyline points="-0.6545841221763024,0.41537913563786244
-0.6545841221763024,-0.47832880302920866"/><polyline points="-0.5151480229353544,0.41537913563786244
-0.5151480229353544,-0.47832880302920866"/><polyline points="-0.37571192369440676,0.41537913563786244
-0.37571192369440676,-0.47832880302920866"/><polyline points="-0.23627582445345907,0.41537913563786244
-0.23627582445345907,-0.47832880302920866"/><polyline points="-9.683972521251116e-2,0.41537913563786244
-9.683972521251116e-2,-0.47832880302920866"/><polyline points="4.259637402843652e-2,0.41537913563786244
4.259637402843652e-2,-0.47832880302920866"/><polyline points="0.18203247326938443,0.41537913563786244
0.18203247326938443,-0.47832880302920866"/><polyline points="0.32146857251033234,0.41537913563786244
0.32146857251033234,-0.47832880302920866"/><polyline points="0.46090467175128014,0.41537913563786244
0.46090467175128014,-0.47832880302920866"/><polyline points="0.6003407709922275,0.41537913563786244
0.6003407709922275,-0.47832880302920866"/><polyline points="0.7397768702331753,0.41537913563786244
0.7397768702331753,-0.47832880302920866"/></g><g stroke-opacity="0.0" fill="#0d0d0d" stroke="#000000" stroke-width="0.0" fill-opacity="0.4"><rect width="3.6348905837598755e-3" x="-0.667306239219462" y="-0.4799799418460309" height="0.8970102163007154"/></g><g stroke-opacity="0.4" fill="#0d0d0d" stroke="#0d0d0d" stroke-width="4.0e-3" fill-opacity="0.4"><g transform="rotate(-90.0, -0.6818458015545017, 0.41537913563786244)"><polyline points="-0.6818458015545017,0.43037913563786245
-0.6818458015545017,0.4003791356378624"/></g><g transform="rotate(-90.0, -0.6818458015545017, 0.2366375479044482)"><polyline points="-0.6818458015545017,0.2516375479044482
-0.6818458015545017,0.22163754790444817"/></g><g transform="rotate(-90.0, -0.6818458015545017, 5.789596017103399e-2)"><polyline points="-0.6818458015545017,7.289596017103399e-2
-0.6818458015545017,4.289596017103399e-2"/></g><g transform="rotate(-90.0, -0.6818458015545017, -0.12084562756238026)"><polyline points="-0.6818458015545017,-0.10584562756238027
-0.6818458015545017,-0.13584562756238028"/></g><g transform="rotate(-90.0, -0.6818458015545017, -0.29958721529579446)"><polyline points="-0.6818458015545017,-0.28458721529579445
-0.6818458015545017,-0.3145872152957945"/></g><g transform="rotate(-90.0, -0.6818458015545017, -0.47832880302920866)"><polyline points="-0.6818458015545017,-0.46332880302920865
-0.6818458015545017,-0.4933288030292087"/></g></g><g fill="#0d0d0d" stroke="none" stroke-width="0.0" font-size="4.543613229699886e-2" fill-opacity="1.0" text-anchor="end"><text x="-0.709107480932701" y="0.42673071500351506">0</text><text x="-0.709107480932701" y="0.2479891272701008">5</text><text x="-0.709107480932701" y="6.924753953668661e-2">10</text><text x="-0.709107480932701" y="-0.10949404819672759">15</text><text x="-0.709107480932701" y="-0.2882356359301419">20</text><text x="-0.709107480932701" y="-0.466977223663556">25</text></g><g stroke-opacity="5.0e-2" fill="none" stroke="#0d0d0d" stroke-width="5.0e-3"><polyline points="-0.6545841221763024,0.41537913563786244
0.7397768702331753,0.41537913563786244"/><polyline points="-0.6545841221763024,0.2366375479044482
0.7397768702331753,0.2366375479044482"/><polyline points="-0.6545841221763024,5.789596017103399e-2
0.7397768702331753,5.789596017103399e-2"/><polyline points="-0.6545841221763024,-0.12084562756238026
0.7397768702331753,-0.12084562756238026"/><polyline points="-0.6545841221763024,-0.29958721529579446
0.7397768702331753,-0.29958721529579446"/><polyline points="-0.6545841221763024,-0.47832880302920866
0.7397768702331753,-0.47832880302920866"/></g></svg>