<svg width="441.0955188215382" xmlns:xlink="http://www.w3.org/1999/xlink" xmlns="http://www.w3.org/2000/svg" viewBox="-0.7742141313505 -0.5263654163231658 1.545267664188125 1.0509748557295961" height="300.0"><style>svg {
  color-scheme: light dark;
}
@media (prefers-color-scheme:dark) {
  svg {
    background-color: #f0f0f0;
  }
}</style><g stroke-opacity="5.0e-2" fill="none" stroke="#0d0d0d" stroke-width="5.0e-3"><polyline points="-0.6350225266473755,0.35428689200329755
0.7385535328376249,0.35428689200329755"/><polyline points="-0.6350225266473755,0.18940643033800492
0.7385535328376249,0.18940643033800492"/><polyline points="-0.6350225266473755,2.4525968672712284e-2
0.7385535328376249,2.4525968672712284e-2"/><polyline points="-0.6350225266473755,-0.1403544929925803
0.7385535328376249,-0.1403544929925803"/><polyline points="-0.6350225266473755,-0.3052349546578731
0.7385535328376249,-0.3052349546578731"/><polyline points="-0.6350225266473755,-0.4701154163231658
0.7385535328376249,-0.4701154163231658"/></g><g fill="#0d0d0d" stroke="none" stroke-width="0.0" font-size="5.0e-2" fill-opacity="1.0" text-anchor="end"><text x="-0.7042141313504999" y="0.36624072547403125">0</text><text x="-0.7042141313504999" y="0.20136026380873862">5</text><text x="-0.7042141313504999" y="3.647980214344593e-2">10</text><text x="-0.7042141313504999" y="-0.12840065952184665">15</text><text x="-0.7042141313504999" y="-0.2932811211871392">20</text><text x="-0.7042141313504999" y="-0.4581615828524319">25</text></g><g stroke-opacity="0.4" fill="#0d0d0d" stroke="#0d0d0d" stroke-width="4.0e-3" fill-opacity="0.4"><g transform="rotate(-90.0, -0.6748562323724405, 0.35428689200329755)"><polyline points="-0.6748562323724405,0.36928689200329756
-0.6748562323724405,0.33928689200329754"/></g><g transform="rotate(-90.0, -0.6748562323724405, 0.18940643033800492)"><polyline points="-0.6748562323724405,0.20440643033800493
-0.6748562323724405,0.1744064303380049"/></g><g transform="rotate(-90.0, -0.6748562323724405, 2.4525968672712284e-2)"><polyline points="-0.6748562323724405,3.952596867271228e-2
-0.6748562323724405,9.525968672712284e-3"/></g><g transform="rotate(-90.0, -0.6748562323724405, -0.1403544929925803)"><polyline points="-0.6748562323724405,-0.12535449299258028
-0.6748562323724405,-0.1553544929925803"/></g><g transform="rotate(-90.0, -0.6748562323724405, -0.3052349546578731)"><polyline points="-0.6748562323724405,-0.2902349546578731
-0.6748562323724405,-0.3202349546578731"/></g><g transform="rotate(-90.0, -0.6748562323724405, -0.4701154163231658)"><polyline points="-0.6748562323724405,-0.45511541632316577
-0.6748562323724405,-0.4851154163231658"/></g></g><g stroke-opacity="0.0" fill="#0d0d0d" stroke="#000000" stroke-width="0.0" fill-opacity="0.4"><rect width="3.6628694919599303e-3" x="-0.6592890370316105" y="-0.4717642209398185" height="0.827699917559769"/></g><g stroke-opacity="5.0e-2" fill="none" stroke="#0d0d0d" stroke-width="5.0e-3"><polyline points="-0.6350225266473755,0.35428689200329755
-0.6350225266473755,-0.4701154163231658"/><polyline points="-0.49760632684923367,0.35428689200329755
-0.49760632684923367,-0.4701154163231658"/><polyline points="-0.3601901270510917,0.35428689200329755
-0.3601901270510917,-0.4701154163231658"/><polyline points="-0.22277392725294987,0.35428689200329755
-0.22277392725294987,-0.4701154163231658"/><polyline points="-8.535772745480785e-2,0.35428689200329755
-8.535772745480785e-2,-0.4701154163231658"/><polyline points="5.205847234333394e-2,0.35428689200329755
5.205847234333394e-2,-0.4701154163231658"/><polyline points="0.18947467214147573,0.35428689200329755
0.18947467214147573,-0.4701154163231658"/><polyline points="0.32689087193961797,0.35428689200329755
0.32689087193961797,-0.4701154163231658"/><polyline points="0.46430707173775954,0.35428689200329755
0.46430707173775954,-0.4701154163231658"/><polyline points="0.6017232715359015,0.35428689200329755
0.6017232715359015,-0.4701154163231658"/></g><g fill="#0d0d0d" stroke="none" stroke-width="0.0" font-size="5.0e-2" fill-opacity="1.0" text-anchor="middle"><text x="-0.6350225266473755" y="0.47835943940643033">0</text><text x="-0.49760632684923367" y="0.47835943940643033">0.1</text><text x="-0.3601901270510917" y="0.47835943940643033">0.2</text><text x="-0.22277392725294987" y="0.47835943940643033">0.3</text><text x="-8.535772745480785e-2" y="0.47835943940643033">0.4</text><text x="5.205847234333394e-2" y="0.47835943940643033">0.5</text><text x="0.18947467214147573" y="0.47835943940643033">0.6</text><text x="0.32689087193961797" y="0.47835943940643033">0.7</text><text x="0.46430707173775954" y="0.47835943940643033">0.8</text><text x="0.6017232715359015" y="0.47835943940643033">0.9</text></g><g stroke-opacity="0.4" fill="#0d0d0d" stroke="#0d0d0d" stroke-width="4.0e-3" fill-opacity="0.4"><polyline points="-0.6350225266473755,0.42472794723825225
-0.6350225266473755,0.3947279472382522"/><polyline points="-0.49760632684923367,0.42472794723825225
-0.49760632684923367,0.3947279472382522"/><polyline points="-0.3601901270510917,0.42472794723825225
-0.3601901270510917,0.3947279472382522"/><polyline points="-0.22277392725294987,0.42472794723825225
-0.22277392725294987,0.3947279472382522"/><polyline points="-8.535772745480785e-2,0.42472794723825225
-8.535772745480785e-2,0.3947279472382522"/><polyline points="5.205847234333394e-2,0.42472794723825225
5.205847234333394e-2,0.3947279472382522"/><polyline points="0.18947467214147573,0.42472794723825225
0.18947467214147573,0.3947279472382522"/><polyline points="0.32689087193961797,0.42472794723825225
0.32689087193961797,0.3947279472382522"/><polyline points="0.46430707173775954,0.42472794723825225
0.46430707173775954,0.3947279472382522"/><polyline points="0.6017232715359015,0.42472794723825225
0.6017232715359015,0.3947279472382522"/></g><g stroke-opacity="0.0" fill="#0d0d0d" stroke="#000000" stroke-width="0.0" fill-opacity="0.4"><rect width="1.3772389289769604" x="-0.6368539613933555" y="0.3924154987633965" height="3.2976092333058538e-3"/></g><g stroke-opacity="0.0" fill="#ffffff" stroke="#000000" stroke-width="0.0" fill-opacity="2.0e-2"><rect width="1.3735760594850004" x="-0.6350225266473755" y="-0.4701154163231658" height="0.8244023083264633"/></g><g fill="#0d0d0d" stroke="none" stroke-width="0.0" font-size="5.0e-2" fill-opacity="1.0" text-anchor="middle"><text x="-0.6350225266473755" y="0.35428689200329755">a</text><text x="-0.4978352393626586" y="0.32131079967023907">b</text><text x="-0.36201868210440274" y="0.2883347073371805">c</text><text x="-0.22892988901774725" y="0.255358615004122">d</text><text x="-9.989863932990817e-2" y="0.2223825226710634">e</text><text x="2.3785829364294186e-2" y="0.18940643033800492">f</text><text x="0.14088770273831686" y="0.15643033800494638">g</text><text x="0.25023693758213916" y="0.12345424567188784">h</text><text x="0.35074095248725334" y="9.04781533388293e-2">i</text><text x="0.4413955445589375" y="5.750206100577082e-2">j</text><text x="0.5212949230796358" y="2.4525968672712284e-2">k</text><text x="0.5896407598703928" y="-8.450123660346254e-3">l</text><text x="0.6457501659221241" y="-4.142621599340479e-2">m</text><text x="0.689062514596865" y="-7.440230832646333e-2">n</text><text x="0.7191450432238173" y="-0.10737840065952187">o</text><text x="0.7356971771209011" y="-0.1403544929925803">p</text><text x="0.7385535328376249" y="-0.17333058532563894">q</text><text x="0.7276855706118539" y="-0.20630667765869748">r</text><text x="0.7032018795296768" y="-0.2392827699917559">s</text><text x="0.6653470925391543" y="-0.27225886232481444">t</text><text x="0.6144994421587668" y="-0.3052349546578731">u</text><text x="0.5511669813031164" y="-0.3382110469909315">v</text><text x="0.4759825069861445" y="-0.37118713932399006">w</text><text x="0.38969723762254405" y="-0.4041632316570486">x</text><text x="0.29317330710167777" y="-0.43713932399010713">y</text><text x="0.18737515063074106" y="-0.4701154163231658">z</text></g></svg>