<svg height="300" viewBox="-0.75 -0.5 1.5 1.0" width="450" xmlns="http://www.w3.org/2000/svg" xmlns:xlink="http://www.w3.org/1999/xlink"><style>svg {
  color-scheme: light dark;
}
{
  .canvas g, .title g, .axisbar g, .ticktext g, .tickglyph g, .ticklines g, .legendContent g text {
    fill: rgb(5%, 5%, 5%);
  }
  .ticklines g, .tickglyph g, .legendBorder g {
    stroke: rgb(5%, 5%, 5%);
  }
  .legendBorder g {
    fill: rgb(94%, 94%, 94%);
  }
}
@media (prefers-color-scheme:dark) {
  .canvas g, .title g, .axisbar g, .ticktext g, .tickglyph g, .ticklines g, .legendContent g text {
    fill: rgb(94%, 94%, 94%);
  }
  .ticklines g, .tickglyph g, .legendBorder g {
    stroke: rgb(94%, 94%, 94%);
  }
  .legendBorder g {
    fill: rgb(5%, 5%, 5%);
  }
}
{
  .text g {
    fill: rgb(5%, 5%, 5%);
  }
}
@media (prefers-color-scheme:dark) {
  .text g {
    fill: rgb(94%, 94%, 94%);
  }
}
</style><g class="chart"><g class="text"><g fill="rgb(5%, 5%, 5%)" fill-opacity="1.0" font-size="0.0646" stroke="none" stroke-width="0.0" text-anchor="middle"><text x="-0.6054" y="0.3507">a</text><text x="-0.4764" y="0.3192">b</text><text x="-0.3488" y="0.2878">c</text><text x="-0.2236" y="0.2563">d</text><text x="-0.1023" y="0.2248">e</text><text x="0.0140" y="0.1934">f</text><text x="0.1240" y="0.1619">g</text><text x="0.2268" y="0.1304">h</text><text x="0.3213" y="0.0989">i</text><text x="0.4066" y="0.0675">j</text><text x="0.4817" y="0.0360">k</text><text x="0.5459" y="0.0045">l</text><text x="0.5987" y="-0.0269">m</text><text x="0.6394" y="-0.0584">n</text><text x="0.6677" y="-0.0899">o</text><text x="0.6832" y="-0.1214">p</text><text x="0.6859" y="-0.1528">q</text><text x="0.6757" y="-0.1843">r</text><text x="0.6527" y="-0.2158">s</text><text x="0.6171" y="-0.2472">t</text><text x="0.5693" y="-0.2787">u</text><text x="0.5098" y="-0.3102">v</text><text x="0.4391" y="-0.3417">w</text><text x="0.3580" y="-0.3731">x</text><text x="0.2672" y="-0.4046">y</text><text x="0.1677" y="-0.4361">z</text></g></g></g><g class="hud"><g class="frame"><g fill="rgb(100%, 100%, 100%)" fill-opacity="0.02" stroke="rgb(0%, 0%, 0%)" stroke-opacity="0" stroke-width="0"><rect height="0.8517" width="1.3204" x="-0.6199" y="-0.4685"/></g></g><g class="axis"><g class="ticks"><g class="tickglyph"><g fill="rgb(5%, 5%, 5%)" fill-opacity="0.4" stroke="rgb(5%, 5%, 5%)" stroke-opacity="0.4" stroke-width="0.0040"><g transform="rotate(-90.0, -0.6458, 0.3507)"><polyline points="-0.6458,0.3657
-0.6458,0.3357"/></g><g transform="rotate(-90.0, -0.6458, 0.1934)"><polyline points="-0.6458,0.2084
-0.6458,0.1784"/></g><g transform="rotate(-90.0, -0.6458, 0.0360)"><polyline points="-0.6458,0.0510
-0.6458,0.0210"/></g><g transform="rotate(-90.0, -0.6458, -0.1214)"><polyline points="-0.6458,-0.1064
-0.6458,-0.1364"/></g><g transform="rotate(-90.0, -0.6458, -0.2787)"><polyline points="-0.6458,-0.2637
-0.6458,-0.2937"/></g><g transform="rotate(-90.0, -0.6458, -0.4361)"><polyline points="-0.6458,-0.4211
-0.6458,-0.4511"/></g></g></g><g class="ticktext"><g fill="rgb(5%, 5%, 5%)" fill-opacity="1.0" font-size="0.0431" stroke="none" stroke-width="0.0" text-anchor="end"><text x="-0.6768" y="0.3615"> 0</text><text x="-0.6768" y="0.2042"> 5</text><text x="-0.6768" y="0.0468">10</text><text x="-0.6768" y="-0.1105">15</text><text x="-0.6768" y="-0.2679">20</text><text x="-0.6768" y="-0.4253">25</text></g></g><g class="ticklines"><g fill="none" stroke="rgb(5%, 5%, 5%)" stroke-opacity="0.05" stroke-width="0.0050"><polyline points="-0.6054,0.3507 0.6865,0.3507"/><polyline points="-0.6054,0.1934 0.6865,0.1934"/><polyline points="-0.6054,0.0360 0.6865,0.0360"/><polyline points="-0.6054,-0.1214 0.6865,-0.1214"/><polyline points="-0.6054,-0.2787 0.6865,-0.2787"/><polyline points="-0.6054,-0.4361 0.6865,-0.4361"/></g></g></g><g class="axisbar"><g fill="rgb(5%, 5%, 5%)" fill-opacity="0.4" stroke="rgb(0%, 0%, 0%)" stroke-opacity="0" stroke-width="0"><rect height="0.7899" width="0.0034" x="-0.6320" y="-0.4376"/></g></g></g><g class="axis"><g class="ticks"><g class="tickglyph"><g fill="rgb(5%, 5%, 5%)" fill-opacity="0.4" stroke="rgb(5%, 5%, 5%)" stroke-opacity="0.4" stroke-width="0.0040"><polyline points="-0.6054,0.4218
-0.6054,0.3918"/><polyline points="-0.4762,0.4218
-0.4762,0.3918"/><polyline points="-0.3470,0.4218
-0.3470,0.3918"/><polyline points="-0.2178,0.4218
-0.2178,0.3918"/><polyline points="-0.0887,0.4218
-0.0887,0.3918"/><polyline points="0.0405,0.4218
0.0405,0.3918"/><polyline points="0.1697,0.4218
0.1697,0.3918"/><polyline points="0.2989,0.4218
0.2989,0.3918"/><polyline points="0.4281,0.4218
0.4281,0.3918"/><polyline points="0.5573,0.4218
0.5573,0.3918"/><polyline points="0.6865,0.4218
0.6865,0.3918"/></g></g><g class="ticktext"><g fill="rgb(5%, 5%, 5%)" fill-opacity="1.0" font-size="0.0431" stroke="none" stroke-width="0.0" text-anchor="middle"><text x="-0.6054" y="0.4567">0.0</text><text x="-0.4762" y="0.4567">0.1</text><text x="-0.3470" y="0.4567">0.2</text><text x="-0.2178" y="0.4567">0.3</text><text x="-0.0887" y="0.4567">0.4</text><text x="0.0405" y="0.4567">0.5</text><text x="0.1697" y="0.4567">0.6</text><text x="0.2989" y="0.4567">0.7</text><text x="0.4281" y="0.4567">0.8</text><text x="0.5573" y="0.4567">0.9</text><text x="0.6865" y="0.4567">1.0</text></g></g><g class="ticklines"><g fill="none" stroke="rgb(5%, 5%, 5%)" stroke-opacity="0.05" stroke-width="0.0050"><polyline points="-0.6054,0.3507 -0.6054,-0.4361"/><polyline points="-0.4762,0.3507 -0.4762,-0.4361"/><polyline points="-0.3470,0.3507 -0.3470,-0.4361"/><polyline points="-0.2178,0.3507 -0.2178,-0.4361"/><polyline points="-0.0887,0.3507 -0.0887,-0.4361"/><polyline points="0.0405,0.3507 0.0405,-0.4361"/><polyline points="0.1697,0.3507 0.1697,-0.4361"/><polyline points="0.2989,0.3507 0.2989,-0.4361"/><polyline points="0.4281,0.3507 0.4281,-0.4361"/><polyline points="0.5573,0.3507 0.5573,-0.4361"/><polyline points="0.6865,0.3507 0.6865,-0.4361"/></g></g></g><g class="axisbar"><g fill="rgb(5%, 5%, 5%)" fill-opacity="0.4" stroke="rgb(0%, 0%, 0%)" stroke-opacity="0" stroke-width="0"><rect height="0.0031" width="1.2953" x="-0.6071" y="0.3910"/></g></g></g><g class="frame"><g fill="rgb(100%, 100%, 100%)" fill-opacity="0.02" stroke="rgb(0%, 0%, 0%)" stroke-opacity="0" stroke-width="0"><rect height="1.0" width="1.5" x="-0.75" y="-0.5"/></g></g></g></svg>