<svg width="448.05287878725443" xmlns:xlink="http://www.w3.org/1999/xlink" xmlns="http://www.w3.org/2000/svg" viewBox="-0.7459446401031473 -0.502982204108157 1.4959446401031475 1.0016304174758728" height="300.0"><style>svg {
  color-scheme: light dark;
}
{
  .canvas g, .title g, .axisbar g, .ticktext g, .tickglyph g, .ticklines g, .legendContent g text {
    fill: #0d0d0d;
  }
  .ticklines g, .tickglyph g, .legendBorder g {
    stroke: #0d0d0d;
  }
}
@media (prefers-color-scheme:dark) {
  .canvas g, .title g, .axisbar g, .ticktext g, .tickglyph g, .ticklines g, .legendContent g text {
    fill: #f0f0f0;
  }
  .ticklines g, .tickglyph g, .legendBorder g {
    stroke: #f0f0f0;
  }
}{
  .text g {
    fill: #0d0d0d;
  }
}
@media (prefers-color-scheme:dark) {
  .text g {
    fill: #f0f0f0;
  }
}</style><g class="chart"><g class="text"><g fill="#0d0d0d" stroke="none" stroke-width="0.0" font-size="6.824106683857893e-2" fill-opacity="1.0" text-anchor="middle"><text x="-0.6295936211433703" y="0.37213541666666666">a</text><text x="-0.4933388439809723" y="0.3386320153061224">b</text><text x="-0.3584454795121399" y="0.3051286139455782">c</text><text x="-0.22626133764482764" y="0.271625212585034">d</text><text x="-9.810715863030584e-2" y="0.23812181122448978">e</text><text x="2.4736583336852025e-2" y="0.20461840986394558">f</text><text x="0.14104247419365257" y="0.1711150085034014">g</text><text x="0.24964842392427" y="0.13761160714285714">h</text><text x="0.34946927777935055" y="0.10410820578231295">i</text><text x="0.4395076587835608" y="7.060480442176875e-2">j</text><text x="0.5188639331966395" y="3.71014030612245e-2">k</text><text x="0.5867451993563474" y="3.5980017006802534e-3">l</text><text x="0.6424732100897798" y="-2.990539965986394e-2">m</text><text x="0.6854911495349195" y="-6.340880102040813e-2">n</text><text x="0.7153691966606711" y="-9.691220238095244e-2">o</text><text x="0.731808819896523" y="-0.13041560374149652">p</text><text x="0.73464575996132" y="-0.16391900510204072">q</text><text x="0.7238516710877018" y="-0.1974224064625849">r</text><text x="0.6995344042436428" y="-0.2309258078231291">s</text><text x="0.6619369295212286" y="-0.2644292091836733">t</text><text x="0.6114349084598131" y="-0.2979326105442176">u</text><text x="0.5485329405600933" y="-0.3314360119047618">v</text><text x="0.4738595214926965" y="-0.364939413265306">w</text><text x="0.3881607633771943" y="-0.3984428146258503">x</text><text x="0.29229293987643323" y="-0.43194621598639427">y</text><text x="0.1872139305931444" y="-0.46544961734693857">z</text></g></g></g><g class="hud"><g class="frame"><g stroke-opacity="0.0" fill="#ffffff" stroke="#000000" stroke-width="0.0" fill-opacity="2.0e-2"><rect width="1.3949478611820507" x="-0.6449478611820505" y="-0.4999999999999999" height="0.9066857993197277"/></g></g><g class="axis"><g class="ticks"><g class="tickglyph"><g stroke-opacity="0.4" fill="#0d0d0d" stroke="#0d0d0d" stroke-width="4.0e-3" fill-opacity="0.4"><g transform="rotate(-90.0, -0.672244287917482, 0.37213541666666666)"><polyline points="-0.672244287917482,0.3871354166666667
-0.672244287917482,0.35713541666666665"/></g><g transform="rotate(-90.0, -0.672244287917482, 0.20461840986394558)"><polyline points="-0.672244287917482,0.2196184098639456
-0.672244287917482,0.18961840986394557"/></g><g transform="rotate(-90.0, -0.672244287917482, 3.71014030612245e-2)"><polyline points="-0.672244287917482,5.21014030612245e-2
-0.672244287917482,2.2101403061224503e-2"/></g><g transform="rotate(-90.0, -0.672244287917482, -0.13041560374149652)"><polyline points="-0.672244287917482,-0.11541560374149652
-0.672244287917482,-0.14541560374149654"/></g><g transform="rotate(-90.0, -0.672244287917482, -0.2979326105442176)"><polyline points="-0.672244287917482,-0.2829326105442176
-0.672244287917482,-0.3129326105442176"/></g><g transform="rotate(-90.0, -0.672244287917482, -0.46544961734693857)"><polyline points="-0.672244287917482,-0.45044961734693856
-0.672244287917482,-0.4804496173469386"/></g></g></g><g class="ticktext"><g fill="#0d0d0d" stroke="none" stroke-width="0.0" font-size="4.549404455905262e-2" fill-opacity="1.0" text-anchor="end"><text x="-0.705" y="0.38365221088435375">0</text><text x="-0.705" y="0.21613520408163267">5</text><text x="-0.705" y="4.8618197278911646e-2">10</text><text x="-0.705" y="-0.11889880952380938">15</text><text x="-0.705" y="-0.28641581632653057">20</text><text x="-0.705" y="-0.45393282312925154">25</text></g></g><g class="ticklines"><g stroke-opacity="5.0e-2" fill="none" stroke="#0d0d0d" stroke-width="5.0e-3"><polyline points="-0.6295936211433703,0.37213541666666666
0.7352277156282082,0.37213541666666666"/><polyline points="-0.6295936211433703,0.20461840986394558
0.7352277156282082,0.20461840986394558"/><polyline points="-0.6295936211433703,3.71014030612245e-2
0.7352277156282082,3.71014030612245e-2"/><polyline points="-0.6295936211433703,-0.13041560374149652
0.7352277156282082,-0.13041560374149652"/><polyline points="-0.6295936211433703,-0.2979326105442176
0.7352277156282082,-0.2979326105442176"/><polyline points="-0.6295936211433703,-0.46544961734693857
0.7352277156282082,-0.46544961734693857"/></g></g></g><g class="axisbar"><g stroke-opacity="0.0" fill="#0d0d0d" stroke="#000000" stroke-width="0.0" fill-opacity="0.4"><rect width="3.6395235647241897e-3" x="-0.6576861936585852" y="-0.4671247874149659" height="0.8409353741496597"/></g></g></g><g class="axis"><g class="ticks"><g class="tickglyph"><g stroke-opacity="0.4" fill="#0d0d0d" stroke="#0d0d0d" stroke-width="4.0e-3" fill-opacity="0.4"><polyline points="-0.6295936211433703,0.4468133503401361
-0.6295936211433703,0.41681335034013606"/><polyline points="-0.49311148746621236,0.4468133503401361
-0.49311148746621236,0.41681335034013606"/><polyline points="-0.3566293537890545,0.4468133503401361
-0.3566293537890545,0.41681335034013606"/><polyline points="-0.22014722011189664,0.4468133503401361
-0.22014722011189664,0.41681335034013606"/><polyline points="-8.36650864347388e-2,0.4468133503401361
-8.36650864347388e-2,0.41681335034013606"/><polyline points="5.281704724241898e-2,0.4468133503401361
5.281704724241898e-2,0.41681335034013606"/><polyline points="0.18929918091957687,0.4468133503401361
0.18929918091957687,0.41681335034013606"/><polyline points="0.32578131459673465,0.4468133503401361
0.32578131459673465,0.41681335034013606"/><polyline points="0.46226344827389265,0.4468133503401361
0.46226344827389265,0.41681335034013606"/><polyline points="0.5987455819510504,0.4468133503401361
0.5987455819510504,0.41681335034013606"/><polyline points="0.7352277156282082,0.4468133503401361
0.7352277156282082,0.41681335034013606"/></g></g><g class="ticktext"><g fill="#0d0d0d" stroke="none" stroke-width="0.0" font-size="4.549404455905262e-2" fill-opacity="1.0" text-anchor="middle"><text x="-0.6295936211433703" y="0.485">0</text><text x="-0.49311148746621236" y="0.485">0.1</text><text x="-0.3566293537890545" y="0.485">0.2</text><text x="-0.22014722011189664" y="0.485">0.3</text><text x="-8.36650864347388e-2" y="0.485">0.4</text><text x="5.281704724241898e-2" y="0.485">0.5</text><text x="0.18929918091957687" y="0.485">0.6</text><text x="0.32578131459673465" y="0.485">0.7</text><text x="0.46226344827389265" y="0.485">0.8</text><text x="0.5987455819510504" y="0.485">0.9</text><text x="0.7352277156282082" y="0.485">1</text></g></g><g class="ticklines"><g stroke-opacity="5.0e-2" fill="none" stroke="#0d0d0d" stroke-width="5.0e-3"><polyline points="-0.6295936211433703,0.37213541666666666
-0.6295936211433703,-0.46544961734693857"/><polyline points="-0.49311148746621236,0.37213541666666666
-0.49311148746621236,-0.46544961734693857"/><polyline points="-0.3566293537890545,0.37213541666666666
-0.3566293537890545,-0.46544961734693857"/><polyline points="-0.22014722011189664,0.37213541666666666
-0.22014722011189664,-0.46544961734693857"/><polyline points="-8.36650864347388e-2,0.37213541666666666
-8.36650864347388e-2,-0.46544961734693857"/><polyline points="5.281704724241898e-2,0.37213541666666666
5.281704724241898e-2,-0.46544961734693857"/><polyline points="0.18929918091957687,0.37213541666666666
0.18929918091957687,-0.46544961734693857"/><polyline points="0.32578131459673465,0.37213541666666666
0.32578131459673465,-0.46544961734693857"/><polyline points="0.46226344827389265,0.37213541666666666
0.46226344827389265,-0.46544961734693857"/><polyline points="0.5987455819510504,0.37213541666666666
0.5987455819510504,-0.46544961734693857"/><polyline points="0.7352277156282082,0.37213541666666666
0.7352277156282082,-0.46544961734693857"/></g></g></g><g class="axisbar"><g stroke-opacity="0.0" fill="#0d0d0d" stroke="#000000" stroke-width="0.0" fill-opacity="0.4"><rect width="1.3684608603363027" x="-0.6314133829257323" y="0.4150616496598639" height="3.350340136054397e-3"/></g></g></g></g></svg>