<svg width="404.5401641429131" xmlns:xlink="http://www.w3.org/1999/xlink" xmlns="http://www.w3.org/2000/svg" viewBox="-0.8978750000000001 -0.5874999999999999 1.6953604045622583 1.25725" height="300.0"><style>svg {
  color-scheme: light dark;
}
{
  .canvas g, .title g, .axisbar g, .ticktext g, .tickglyph g, .ticklines g, .legendContent g text {
    fill: #0d0d0d;
  }
  .ticklines g, .tickglyph g, .legendBorder g {
    stroke: #0d0d0d;
  }
}
@media (prefers-color-scheme:dark) {
  .canvas g, .title g, .axisbar g, .ticktext g, .tickglyph g, .ticklines g, .legendContent g text {
    fill: #f0f0f0;
  }
  .ticklines g, .tickglyph g, .legendBorder g {
    stroke: #f0f0f0;
  }
}{
  .text g {
    fill: #0d0d0d;
  }
}
@media (prefers-color-scheme:dark) {
  .text g {
    fill: #f0f0f0;
  }
}</style><g class="text"><g fill="#0d0d0d" stroke="none" stroke-width="0.0" font-size="7.500000000000002e-2" fill-opacity="1.0" text-anchor="middle"><text x="-0.75" y="0.5">a</text><text x="-0.6002498750297578" y="0.4600000000000001">b</text><text x="-0.4519960038074081" y="0.42000000000000004">c</text><text x="-0.30671969000799043" y="0.38">d</text><text x="-0.16587248653702413" y="0.33999999999999997">e</text><text x="-3.086169209369538e-2" y="0.29999999999999993">f</text><text x="9.696371009255345e-2" y="0.26">g</text><text x="0.2163265308565372" y="0.21999999999999997">h</text><text x="0.32603413634928424" y="0.18">i</text><text x="0.42499036444122495" y="0.14">j</text><text x="0.5122064772118446" y="9.999999999999998e-2">k</text><text x="0.5868110400921531" y="6.0e-2">l</text><text x="0.6480586289508399" y="1.9999999999999907e-2">m</text><text x="0.6953372781257894" y="-2.000000000000013e-2">n</text><text x="0.7281745949826903" y="-6.0000000000000164e-2">o</text><text x="0.7462424799060821" y="-9.999999999999998e-2">p</text><text x="0.7493604045622579" y="-0.14">q</text><text x="0.737497215678703" y="-0.18000000000000005">r</text><text x="0.7107714463172932" y="-0.21999999999999997">s</text><text x="0.6694501315311219" y="-0.26">t</text><text x="0.6139461402385227" y="-0.30000000000000016">u</text><text x="0.5448140499733114" y="-0.3400000000000001">v</text><text x="0.46274460572938514" y="-0.38">w</text><text x="0.36855781826508016" y="-0.41999999999999993">x</text><text x="0.26319477082672615" y="-0.45999999999999996">y</text><text x="0.14770821615593466" y="-0.5">z</text></g></g><g class="hud"><g class="canvas"><g stroke-opacity="0.0" fill="#ffffff" stroke="#000000" stroke-width="0.0" fill-opacity="2.0e-2"><rect width="1.5331104045622583" x="-0.766875" y="-0.54125" height="1.0825"/></g></g><g class="axis"><g class="ticks"><g class="tickglyph"><g stroke-opacity="0.4" fill="#0d0d0d" stroke="#0d0d0d" stroke-width="4.0e-3" fill-opacity="0.4"><g transform="rotate(-90.0, -0.796875, 0.54125)"><polyline points="-0.796875,0.55625
-0.796875,0.52625"/></g><g transform="rotate(-90.0, -0.796875, 0.32475)"><polyline points="-0.796875,0.33975
-0.796875,0.30974999999999997"/></g><g transform="rotate(-90.0, -0.796875, 0.10824999999999996)"><polyline points="-0.796875,0.12324999999999996
-0.796875,9.324999999999996e-2"/></g><g transform="rotate(-90.0, -0.796875, -0.10824999999999985)"><polyline points="-0.796875,-9.324999999999985e-2
-0.796875,-0.12324999999999985"/></g><g transform="rotate(-90.0, -0.796875, -0.3247500000000002)"><polyline points="-0.796875,-0.3097500000000002
-0.796875,-0.3397500000000002"/></g><g transform="rotate(-90.0, -0.796875, -0.54125)"><polyline points="-0.796875,-0.52625
-0.796875,-0.55625"/></g></g></g><g class="ticktext"><g fill="#0d0d0d" stroke="none" stroke-width="0.0" font-size="5.000000000000001e-2" fill-opacity="1.0" text-anchor="end"><text x="-0.832875" y="0.555">0</text><text x="-0.832875" y="0.33849999999999997">5</text><text x="-0.832875" y="0.122">10</text><text x="-0.832875" y="-9.449999999999992e-2">15</text><text x="-0.832875" y="-0.3110000000000003">20</text><text x="-0.832875" y="-0.5274999999999999">25</text></g></g><g class="ticklines"><g stroke-opacity="5.0e-2" fill="none" stroke="#0d0d0d" stroke-width="5.0e-3"><polyline points="-0.766875,0.54125
0.7662354045622584,0.54125"/><polyline points="-0.766875,0.32475
0.7662354045622584,0.32475"/><polyline points="-0.766875,0.10824999999999996
0.7662354045622584,0.10824999999999996"/><polyline points="-0.766875,-0.10824999999999985
0.7662354045622584,-0.10824999999999985"/><polyline points="-0.766875,-0.3247500000000002
0.7662354045622584,-0.3247500000000002"/><polyline points="-0.766875,-0.54125
0.7662354045622584,-0.54125"/></g></g></g><g class="axisbar"><g stroke-opacity="0.0" fill="#0d0d0d" stroke="#000000" stroke-width="0.0" fill-opacity="0.4"><rect width="4.0000000000000036e-3" x="-0.780875" y="-0.54325" height="1.0865"/></g></g></g><g class="axis"><g class="ticks"><g class="tickglyph"><g stroke-opacity="0.4" fill="#0d0d0d" stroke="#0d0d0d" stroke-width="4.0e-3" fill-opacity="0.4"><polyline points="-0.766875,0.58625
-0.766875,0.55625"/><polyline points="-0.6135639595437742,0.58625
-0.6135639595437742,0.55625"/><polyline points="-0.46025291908754834,0.58625
-0.46025291908754834,0.55625"/><polyline points="-0.3069418786313226,0.58625
-0.3069418786313226,0.55625"/><polyline points="-0.1536308381750967,0.58625
-0.1536308381750967,0.55625"/><polyline points="-3.197977188709178e-4,0.58625
-3.197977188709178e-4,0.55625"/><polyline points="0.15299124273735476,0.58625
0.15299124273735476,0.55625"/><polyline points="0.3063022831935809,0.58625
0.3063022831935809,0.55625"/><polyline points="0.45961332364980656,0.58625
0.45961332364980656,0.55625"/><polyline points="0.6129243641060322,0.58625
0.6129243641060322,0.55625"/><polyline points="0.7662354045622584,0.58625
0.7662354045622584,0.55625"/></g></g><g class="ticktext"><g fill="#0d0d0d" stroke="none" stroke-width="0.0" font-size="5.000000000000001e-2" fill-opacity="1.0" text-anchor="middle"><text x="-0.766875" y="0.63475">0</text><text x="-0.6135639595437742" y="0.63475">0.1</text><text x="-0.46025291908754834" y="0.63475">0.2</text><text x="-0.3069418786313226" y="0.63475">0.3</text><text x="-0.1536308381750967" y="0.63475">0.4</text><text x="-3.197977188709178e-4" y="0.63475">0.5</text><text x="0.15299124273735476" y="0.63475">0.6</text><text x="0.3063022831935809" y="0.63475">0.7</text><text x="0.45961332364980656" y="0.63475">0.8</text><text x="0.6129243641060322" y="0.63475">0.9</text><text x="0.7662354045622584" y="0.63475">1</text></g></g><g class="ticklines"><g stroke-opacity="5.0e-2" fill="none" stroke="#0d0d0d" stroke-width="5.0e-3"><polyline points="-0.766875,0.54125
-0.766875,-0.54125"/><polyline points="-0.6135639595437742,0.54125
-0.6135639595437742,-0.54125"/><polyline points="-0.46025291908754834,0.54125
-0.46025291908754834,-0.54125"/><polyline points="-0.3069418786313226,0.54125
-0.3069418786313226,-0.54125"/><polyline points="-0.1536308381750967,0.54125
-0.1536308381750967,-0.54125"/><polyline points="-3.197977188709178e-4,0.54125
-3.197977188709178e-4,-0.54125"/><polyline points="0.15299124273735476,0.54125
0.15299124273735476,-0.54125"/><polyline points="0.3063022831935809,0.54125
0.3063022831935809,-0.54125"/><polyline points="0.45961332364980656,0.54125
0.45961332364980656,-0.54125"/><polyline points="0.6129243641060322,0.54125
0.6129243641060322,-0.54125"/><polyline points="0.7662354045622584,0.54125
0.7662354045622584,-0.54125"/></g></g></g><g class="axisbar"><g stroke-opacity="0.0" fill="#0d0d0d" stroke="#000000" stroke-width="0.0" fill-opacity="0.4"><rect width="1.5371104045622581" x="-0.768875" y="0.55125" height="4.0000000000000036e-3"/></g></g></g></g></svg>