<svg viewBox="-0.7425825000000001 -0.8488333333333334 1.4080825000000001 1.5830833333333336" xmlns="http://www.w3.org/2000/svg" xmlns:xlink="http://www.w3.org/1999/xlink" version="1.1" width="400.0" height="400.0"><g stroke-width="5.0e-3" stroke="#A8E5EE" fill="none" stroke-opacity="0.3"><polyline points="-0.5,0.5 0.5,0.5" /></g><g stroke-width="5.0e-3" stroke="#A8E5EE" fill="none" stroke-opacity="0.3"><polyline points="-0.5,0.375 0.5,0.375" /></g><g stroke-width="5.0e-3" stroke="#A8E5EE" fill="none" stroke-opacity="0.3"><polyline points="-0.5,0.25 0.5,0.25" /></g><g stroke-width="5.0e-3" stroke="#A8E5EE" fill="none" stroke-opacity="0.3"><polyline points="-0.5,0.125 0.5,0.125" /></g><g stroke-width="5.0e-3" stroke="#A8E5EE" fill="none" stroke-opacity="0.3"><polyline points="-0.5,-0.0 0.5,-0.0" /></g><g stroke-width="5.0e-3" stroke="#A8E5EE" fill="none" stroke-opacity="0.3"><polyline points="-0.5,-0.125 0.5,-0.125" /></g><g stroke-width="5.0e-3" stroke="#A8E5EE" fill="none" stroke-opacity="0.3"><polyline points="-0.5,-0.25 0.5,-0.25" /></g><g stroke-width="5.0e-3" stroke="#A8E5EE" fill="none" stroke-opacity="0.3"><polyline points="-0.5,-0.375 0.5,-0.375" /></g><g stroke-width="5.0e-3" stroke="#A8E5EE" fill="none" stroke-opacity="0.3"><polyline points="-0.5,-0.5 0.5,-0.5" /></g><g stroke-width="0.0" stroke="none" fill="#666666" fill-opacity="1.0" font-size="5.0e-2" text-anchor="end"><text x="-0.6000750000000001" y="0.529">0.0</text></g><g stroke-width="0.0" stroke="none" fill="#666666" fill-opacity="1.0" font-size="5.0e-2" text-anchor="end"><text x="-0.6000750000000001" y="0.404">0.5</text></g><g stroke-width="0.0" stroke="none" fill="#666666" fill-opacity="1.0" font-size="5.0e-2" text-anchor="end"><text x="-0.6000750000000001" y="0.279">1.0</text></g><g stroke-width="0.0" stroke="none" fill="#666666" fill-opacity="1.0" font-size="5.0e-2" text-anchor="end"><text x="-0.6000750000000001" y="0.154">1.5</text></g><g stroke-width="0.0" stroke="none" fill="#666666" fill-opacity="1.0" font-size="5.0e-2" text-anchor="end"><text x="-0.6000750000000001" y="2.8999999999999998e-2">2.0</text></g><g stroke-width="0.0" stroke="none" fill="#666666" fill-opacity="1.0" font-size="5.0e-2" text-anchor="end"><text x="-0.6000750000000001" y="-9.6e-2">2.5</text></g><g stroke-width="0.0" stroke="none" fill="#666666" fill-opacity="1.0" font-size="5.0e-2" text-anchor="end"><text x="-0.6000750000000001" y="-0.221">3.0</text></g><g stroke-width="0.0" stroke="none" fill="#666666" fill-opacity="1.0" font-size="5.0e-2" text-anchor="end"><text x="-0.6000750000000001" y="-0.346">3.5</text></g><g stroke-width="0.0" stroke="none" fill="#666666" fill-opacity="1.0" font-size="5.0e-2" text-anchor="end"><text x="-0.6000750000000001" y="-0.471">4.0</text></g><g stroke-width="0.0" stroke="#2C429D" fill="#5F0391" fill-opacity="1.0" stroke-opacity="0.4"><line stroke-width="5.0e-3" transform="rotate(-90.0, -0.56, 0.5)" x1="-0.56" y1="0.515" x2="-0.56" y2="0.485" /><line stroke-width="5.0e-3" transform="rotate(-90.0, -0.56, 0.375)" x1="-0.56" y1="0.39" x2="-0.56" y2="0.36" /><line stroke-width="5.0e-3" transform="rotate(-90.0, -0.56, 0.25)" x1="-0.56" y1="0.265" x2="-0.56" y2="0.235" /><line stroke-width="5.0e-3" transform="rotate(-90.0, -0.56, 0.125)" x1="-0.56" y1="0.14" x2="-0.56" y2="0.11" /><line stroke-width="5.0e-3" transform="rotate(-90.0, -0.56, -0.0)" x1="-0.56" y1="1.5e-2" x2="-0.56" y2="-1.5e-2" /><line stroke-width="5.0e-3" transform="rotate(-90.0, -0.56, -0.125)" x1="-0.56" y1="-0.11" x2="-0.56" y2="-0.14" /><line stroke-width="5.0e-3" transform="rotate(-90.0, -0.56, -0.25)" x1="-0.56" y1="-0.235" x2="-0.56" y2="-0.265" /><line stroke-width="5.0e-3" transform="rotate(-90.0, -0.56, -0.375)" x1="-0.56" y1="-0.36" x2="-0.56" y2="-0.39" /><line stroke-width="5.0e-3" transform="rotate(-90.0, -0.56, -0.5)" x1="-0.56" y1="-0.485" x2="-0.56" y2="-0.515" /></g><g stroke-width="5.0e-3" stroke="#A8E5EE" fill="none" stroke-opacity="0.3"><polyline points="-0.5,0.5 -0.5,-0.5" /></g><g stroke-width="5.0e-3" stroke="#A8E5EE" fill="none" stroke-opacity="0.3"><polyline points="-0.33333333333333337,0.5 -0.33333333333333337,-0.5" /></g><g stroke-width="5.0e-3" stroke="#A8E5EE" fill="none" stroke-opacity="0.3"><polyline points="-0.16666666666666669,0.5 -0.16666666666666669,-0.5" /></g><g stroke-width="5.0e-3" stroke="#A8E5EE" fill="none" stroke-opacity="0.3"><polyline points="0.0,0.5 0.0,-0.5" /></g><g stroke-width="5.0e-3" stroke="#A8E5EE" fill="none" stroke-opacity="0.3"><polyline points="0.16666666666666663,0.5 0.16666666666666663,-0.5" /></g><g stroke-width="5.0e-3" stroke="#A8E5EE" fill="none" stroke-opacity="0.3"><polyline points="0.33333333333333337,0.5 0.33333333333333337,-0.5" /></g><g stroke-width="5.0e-3" stroke="#A8E5EE" fill="none" stroke-opacity="0.3"><polyline points="0.5,0.5 0.5,-0.5" /></g><g stroke-width="0.0" stroke="none" fill="#666666" fill-opacity="1.0" font-size="5.0e-2" text-anchor="middle"><text x="-0.5" y="0.6512500000000001">0.0</text></g><g stroke-width="0.0" stroke="none" fill="#666666" fill-opacity="1.0" font-size="5.0e-2" text-anchor="middle"><text x="-0.33333333333333337" y="0.6512500000000001">0.5</text></g><g stroke-width="0.0" stroke="none" fill="#666666" fill-opacity="1.0" font-size="5.0e-2" text-anchor="middle"><text x="-0.16666666666666669" y="0.6512500000000001">1.0</text></g><g stroke-width="0.0" stroke="none" fill="#666666" fill-opacity="1.0" font-size="5.0e-2" text-anchor="middle"><text x="0.0" y="0.6512500000000001">1.5</text></g><g stroke-width="0.0" stroke="none" fill="#666666" fill-opacity="1.0" font-size="5.0e-2" text-anchor="middle"><text x="0.16666666666666663" y="0.6512500000000001">2.0</text></g><g stroke-width="0.0" stroke="none" fill="#666666" fill-opacity="1.0" font-size="5.0e-2" text-anchor="middle"><text x="0.33333333333333337" y="0.6512500000000001">2.5</text></g><g stroke-width="0.0" stroke="none" fill="#666666" fill-opacity="1.0" font-size="5.0e-2" text-anchor="middle"><text x="0.5" y="0.6512500000000001">3.0</text></g><g stroke-width="0.0" stroke="#2C429D" fill="#5F0391" fill-opacity="1.0" stroke-opacity="0.4"><line stroke-width="5.0e-3" x1="-0.5" y1="0.5750000000000001" x2="-0.5" y2="0.545" /><line stroke-width="5.0e-3" x1="-0.33333333333333337" y1="0.5750000000000001" x2="-0.33333333333333337" y2="0.545" /><line stroke-width="5.0e-3" x1="-0.16666666666666669" y1="0.5750000000000001" x2="-0.16666666666666669" y2="0.545" /><line stroke-width="5.0e-3" y1="0.5750000000000001" y2="0.545" /><line stroke-width="5.0e-3" x1="0.16666666666666663" y1="0.5750000000000001" x2="0.16666666666666663" y2="0.545" /><line stroke-width="5.0e-3" x1="0.33333333333333337" y1="0.5750000000000001" x2="0.33333333333333337" y2="0.545" /><line stroke-width="5.0e-3" x1="0.5" y1="0.5750000000000001" x2="0.5" y2="0.545" /></g><g stroke-width="1.0e-2" stroke="#2C429D" fill="#D99721" transform="translate(-0.20000000000000004, 0.13333333333333333)" fill-opacity="0.8" stroke-opacity="0.4"><polygon transform="translate(0.5, -0.5)" points="0.0,-0.0 0.30000000000000004,-0.0 0.30000000000000004,-0.4" /></g><g stroke-width="0.0" stroke="#2C429D" fill="#D99721" fill-opacity="0.8" stroke-opacity="0.4"><rect width="0.10000000000000003" height="0.10000000000000003" x="-0.55" y="0.45" /><rect width="0.10000000000000003" height="0.10000000000000003" x="-0.55" y="-0.55" /><rect width="0.10000000000000003" height="0.10000000000000003" x="0.45" y="0.45" /><rect width="0.10000000000000003" height="0.10000000000000003" x="0.45" y="-0.55" /></g></svg>