<svg viewBox="-0.6289158333333335 -0.5555000000000002 0.48408250000000014 0.8361925000000001" xmlns="http://www.w3.org/2000/svg" xmlns:xlink="http://www.w3.org/1999/xlink" version="1.1" width="400.0" height="400.0"><g stroke-width="5.0e-3" stroke="#A8E5EE" fill="none" stroke-opacity="0.3"><polyline points="-0.25,-0.10000000000000009 -0.25,-0.10000000000000009" /></g><g stroke-width="5.0e-3" stroke="#A8E5EE" fill="none" stroke-opacity="0.3"><polyline points="-0.25,-0.10000000000000009 -0.25,-0.10000000000000009" /></g><g stroke-width="5.0e-3" stroke="#A8E5EE" fill="none" stroke-opacity="0.3"><polyline points="-0.25,-0.10000000000000009 -0.25,-0.10000000000000009" /></g><g stroke-width="5.0e-3" stroke="#A8E5EE" fill="none" stroke-opacity="0.3"><polyline points="-0.25,-0.10000000000000009 -0.25,-0.10000000000000009" /></g><g stroke-width="5.0e-3" stroke="#A8E5EE" fill="none" stroke-opacity="0.3"><polyline points="-0.25,-0.10000000000000009 -0.25,-0.10000000000000009" /></g><g stroke-width="5.0e-3" stroke="#A8E5EE" fill="none" stroke-opacity="0.3"><polyline points="-0.25,-0.10000000000000009 -0.25,-0.10000000000000009" /></g><g stroke-width="5.0e-3" stroke="#A8E5EE" fill="none" stroke-opacity="0.3"><polyline points="-0.25,-0.10000000000000009 -0.25,-0.10000000000000009" /></g><g stroke-width="5.0e-3" stroke="#A8E5EE" fill="none" stroke-opacity="0.3"><polyline points="-0.25,-0.10000000000000009 -0.25,-0.10000000000000009" /></g><g stroke-width="5.0e-3" stroke="#A8E5EE" fill="none" stroke-opacity="0.3"><polyline points="-0.25,-0.10000000000000009 -0.25,-0.10000000000000009" /></g><g stroke-width="5.0e-3" stroke="#A8E5EE" fill="none" stroke-opacity="0.3"><polyline points="-0.25,-0.10000000000000009 -0.25,-0.10000000000000009" /></g><g stroke-width="5.0e-3" stroke="#A8E5EE" fill="none" stroke-opacity="0.3"><polyline points="-0.25,-0.10000000000000009 -0.25,-0.10000000000000009" /></g><g stroke-width="0.0" stroke="none" fill="#666666" fill-opacity="1.0" font-size="5.0e-2" text-anchor="end"><text x="-0.47174166666666667" y="-7.100000000000009e-2">11.5</text></g><g stroke-width="0.0" stroke="none" fill="#666666" fill-opacity="1.0" font-size="5.0e-2" text-anchor="end"><text x="-0.47174166666666667" y="-7.100000000000009e-2">11.6</text></g><g stroke-width="0.0" stroke="none" fill="#666666" fill-opacity="1.0" font-size="5.0e-2" text-anchor="end"><text x="-0.47174166666666667" y="-7.100000000000009e-2">11.7</text></g><g stroke-width="0.0" stroke="none" fill="#666666" fill-opacity="1.0" font-size="5.0e-2" text-anchor="end"><text x="-0.47174166666666667" y="-7.100000000000009e-2">11.8</text></g><g stroke-width="0.0" stroke="none" fill="#666666" fill-opacity="1.0" font-size="5.0e-2" text-anchor="end"><text x="-0.47174166666666667" y="-7.100000000000009e-2">11.9</text></g><g stroke-width="0.0" stroke="none" fill="#666666" fill-opacity="1.0" font-size="5.0e-2" text-anchor="end"><text x="-0.47174166666666667" y="-7.100000000000009e-2">12.0</text></g><g stroke-width="0.0" stroke="none" fill="#666666" fill-opacity="1.0" font-size="5.0e-2" text-anchor="end"><text x="-0.47174166666666667" y="-7.100000000000009e-2">12.1</text></g><g stroke-width="0.0" stroke="none" fill="#666666" fill-opacity="1.0" font-size="5.0e-2" text-anchor="end"><text x="-0.47174166666666667" y="-7.100000000000009e-2">12.2</text></g><g stroke-width="0.0" stroke="none" fill="#666666" fill-opacity="1.0" font-size="5.0e-2" text-anchor="end"><text x="-0.47174166666666667" y="-7.100000000000009e-2">12.3</text></g><g stroke-width="0.0" stroke="none" fill="#666666" fill-opacity="1.0" font-size="5.0e-2" text-anchor="end"><text x="-0.47174166666666667" y="-7.100000000000009e-2">12.4</text></g><g stroke-width="0.0" stroke="none" fill="#666666" fill-opacity="1.0" font-size="5.0e-2" text-anchor="end"><text x="-0.47174166666666667" y="-7.100000000000009e-2">12.5</text></g><g stroke-width="0.0" stroke="#2C429D" fill="#5F0391" fill-opacity="1.0" stroke-opacity="0.4"><line stroke-width="5.0e-3" transform="rotate(-90.0, -0.43166666666666664, -0.10000000000000009)" x1="-0.43166666666666664" y1="-8.500000000000009e-2" x2="-0.43166666666666664" y2="-0.11500000000000009" /><line stroke-width="5.0e-3" transform="rotate(-90.0, -0.43166666666666664, -0.10000000000000009)" x1="-0.43166666666666664" y1="-8.500000000000009e-2" x2="-0.43166666666666664" y2="-0.11500000000000009" /><line stroke-width="5.0e-3" transform="rotate(-90.0, -0.43166666666666664, -0.10000000000000009)" x1="-0.43166666666666664" y1="-8.500000000000009e-2" x2="-0.43166666666666664" y2="-0.11500000000000009" /><line stroke-width="5.0e-3" transform="rotate(-90.0, -0.43166666666666664, -0.10000000000000009)" x1="-0.43166666666666664" y1="-8.500000000000009e-2" x2="-0.43166666666666664" y2="-0.11500000000000009" /><line stroke-width="5.0e-3" transform="rotate(-90.0, -0.43166666666666664, -0.10000000000000009)" x1="-0.43166666666666664" y1="-8.500000000000009e-2" x2="-0.43166666666666664" y2="-0.11500000000000009" /><line stroke-width="5.0e-3" transform="rotate(-90.0, -0.43166666666666664, -0.10000000000000009)" x1="-0.43166666666666664" y1="-8.500000000000009e-2" x2="-0.43166666666666664" y2="-0.11500000000000009" /><line stroke-width="5.0e-3" transform="rotate(-90.0, -0.43166666666666664, -0.10000000000000009)" x1="-0.43166666666666664" y1="-8.500000000000009e-2" x2="-0.43166666666666664" y2="-0.11500000000000009" /><line stroke-width="5.0e-3" transform="rotate(-90.0, -0.43166666666666664, -0.10000000000000009)" x1="-0.43166666666666664" y1="-8.500000000000009e-2" x2="-0.43166666666666664" y2="-0.11500000000000009" /><line stroke-width="5.0e-3" transform="rotate(-90.0, -0.43166666666666664, -0.10000000000000009)" x1="-0.43166666666666664" y1="-8.500000000000009e-2" x2="-0.43166666666666664" y2="-0.11500000000000009" /><line stroke-width="5.0e-3" transform="rotate(-90.0, -0.43166666666666664, -0.10000000000000009)" x1="-0.43166666666666664" y1="-8.500000000000009e-2" x2="-0.43166666666666664" y2="-0.11500000000000009" /><line stroke-width="5.0e-3" transform="rotate(-90.0, -0.43166666666666664, -0.10000000000000009)" x1="-0.43166666666666664" y1="-8.500000000000009e-2" x2="-0.43166666666666664" y2="-0.11500000000000009" /></g><g stroke-width="5.0e-3" stroke="#A8E5EE" fill="none" stroke-opacity="0.3"><polyline points="-0.25,-0.10000000000000009 -0.25,-0.10000000000000009" /></g><g stroke-width="5.0e-3" stroke="#A8E5EE" fill="none" stroke-opacity="0.3"><polyline points="-0.25,-0.10000000000000009 -0.25,-0.10000000000000009" /></g><g stroke-width="5.0e-3" stroke="#A8E5EE" fill="none" stroke-opacity="0.3"><polyline points="-0.25,-0.10000000000000009 -0.25,-0.10000000000000009" /></g><g stroke-width="5.0e-3" stroke="#A8E5EE" fill="none" stroke-opacity="0.3"><polyline points="-0.25,-0.10000000000000009 -0.25,-0.10000000000000009" /></g><g stroke-width="5.0e-3" stroke="#A8E5EE" fill="none" stroke-opacity="0.3"><polyline points="-0.25,-0.10000000000000009 -0.25,-0.10000000000000009" /></g><g stroke-width="5.0e-3" stroke="#A8E5EE" fill="none" stroke-opacity="0.3"><polyline points="-0.25,-0.10000000000000009 -0.25,-0.10000000000000009" /></g><g stroke-width="5.0e-3" stroke="#A8E5EE" fill="none" stroke-opacity="0.3"><polyline points="-0.25,-0.10000000000000009 -0.25,-0.10000000000000009" /></g><g stroke-width="5.0e-3" stroke="#A8E5EE" fill="none" stroke-opacity="0.3"><polyline points="-0.25,-0.10000000000000009 -0.25,-0.10000000000000009" /></g><g stroke-width="5.0e-3" stroke="#A8E5EE" fill="none" stroke-opacity="0.3"><polyline points="-0.25,-0.10000000000000009 -0.25,-0.10000000000000009" /></g><g stroke-width="5.0e-3" stroke="#A8E5EE" fill="none" stroke-opacity="0.3"><polyline points="-0.25,-0.10000000000000009 -0.25,-0.10000000000000009" /></g><g stroke-width="5.0e-3" stroke="#A8E5EE" fill="none" stroke-opacity="0.3"><polyline points="-0.25,-0.10000000000000009 -0.25,-0.10000000000000009" /></g><g stroke-width="0.0" stroke="none" fill="#666666" fill-opacity="1.0" font-size="5.0e-2" text-anchor="middle"><text x="-0.25" y="0.23892499999999994">4.5</text></g><g stroke-width="0.0" stroke="none" fill="#666666" fill-opacity="1.0" font-size="5.0e-2" text-anchor="middle"><text x="-0.25" y="0.23892499999999994">4.6</text></g><g stroke-width="0.0" stroke="none" fill="#666666" fill-opacity="1.0" font-size="5.0e-2" text-anchor="middle"><text x="-0.25" y="0.23892499999999994">4.7</text></g><g stroke-width="0.0" stroke="none" fill="#666666" fill-opacity="1.0" font-size="5.0e-2" text-anchor="middle"><text x="-0.25" y="0.23892499999999994">4.8</text></g><g stroke-width="0.0" stroke="none" fill="#666666" fill-opacity="1.0" font-size="5.0e-2" text-anchor="middle"><text x="-0.25" y="0.23892499999999994">4.9</text></g><g stroke-width="0.0" stroke="none" fill="#666666" fill-opacity="1.0" font-size="5.0e-2" text-anchor="middle"><text x="-0.25" y="0.23892499999999994">5.0</text></g><g stroke-width="0.0" stroke="none" fill="#666666" fill-opacity="1.0" font-size="5.0e-2" text-anchor="middle"><text x="-0.25" y="0.23892499999999994">5.1</text></g><g stroke-width="0.0" stroke="none" fill="#666666" fill-opacity="1.0" font-size="5.0e-2" text-anchor="middle"><text x="-0.25" y="0.23892499999999994">5.2</text></g><g stroke-width="0.0" stroke="none" fill="#666666" fill-opacity="1.0" font-size="5.0e-2" text-anchor="middle"><text x="-0.25" y="0.23892499999999994">5.3</text></g><g stroke-width="0.0" stroke="none" fill="#666666" fill-opacity="1.0" font-size="5.0e-2" text-anchor="middle"><text x="-0.25" y="0.23892499999999994">5.4</text></g><g stroke-width="0.0" stroke="none" fill="#666666" fill-opacity="1.0" font-size="5.0e-2" text-anchor="middle"><text x="-0.25" y="0.23892499999999994">5.5</text></g><g stroke-width="0.0" stroke="#2C429D" fill="#5F0391" fill-opacity="1.0" stroke-opacity="0.4"><line stroke-width="5.0e-3" x1="-0.25" y1="0.16267499999999996" x2="-0.25" y2="0.132675" /><line stroke-width="5.0e-3" x1="-0.25" y1="0.16267499999999996" x2="-0.25" y2="0.132675" /><line stroke-width="5.0e-3" x1="-0.25" y1="0.16267499999999996" x2="-0.25" y2="0.132675" /><line stroke-width="5.0e-3" x1="-0.25" y1="0.16267499999999996" x2="-0.25" y2="0.132675" /><line stroke-width="5.0e-3" x1="-0.25" y1="0.16267499999999996" x2="-0.25" y2="0.132675" /><line stroke-width="5.0e-3" x1="-0.25" y1="0.16267499999999996" x2="-0.25" y2="0.132675" /><line stroke-width="5.0e-3" x1="-0.25" y1="0.16267499999999996" x2="-0.25" y2="0.132675" /><line stroke-width="5.0e-3" x1="-0.25" y1="0.16267499999999996" x2="-0.25" y2="0.132675" /><line stroke-width="5.0e-3" x1="-0.25" y1="0.16267499999999996" x2="-0.25" y2="0.132675" /><line stroke-width="5.0e-3" x1="-0.25" y1="0.16267499999999996" x2="-0.25" y2="0.132675" /><line stroke-width="5.0e-3" x1="-0.25" y1="0.16267499999999996" x2="-0.25" y2="0.132675" /></g><g stroke-width="1.0e-2" stroke="#2C429D" fill="#D99721" transform="translate(-0.16666666666666666, 0.20000000000000004)" fill-opacity="0.8" stroke-opacity="0.4"><polygon transform="translate(-0.25, -0.10000000000000009)" points="0.0,-0.0 0.25,-0.0 0.25,-0.6000000000000001" /></g><g stroke-width="0.0" stroke="none" fill="#666666" transform="translate(-4.166666666666666e-2, 0.23442500000000005)" fill-opacity="1.0" font-size="1.0e-2" text-anchor="middle"><text x="-0.25" y="-0.10000000000000009">5</text></g><g stroke-width="0.0" stroke="none" fill="#666666" transform="translate(0.10833333333333336, -0.1)" fill-opacity="1.0" font-size="1.0e-2" text-anchor="start"><text x="-0.25" y="-0.10000000000000009">12</text></g><g stroke-width="0.0" stroke="none" fill="#666666" transform="translate(-6.296844181459565e-2, -0.103698224852071)" fill-opacity="1.0" font-size="1.0e-2" text-anchor="middle"><text transform="rotate(-67.38013505195957, -0.25, -0.10000000000000009)" x="-0.25" y="-0.10000000000000009">13</text></g></svg>