<svg xmlns="http://www.w3.org/2000/svg" xmlns:xlink="http://www.w3.org/1999/xlink" width="300.0" height="300.0" viewbox="-0.505 -0.505 1.01 1.01"><g><g class="chart"><g><g class="unit"><g stroke-width="1.0e-2" stroke="rgb(2%, 29%, 48%)" stroke-opacity="1.0" fill="rgb(2%, 73%, 80%)" fill-opacity="0.1"><rect width="1.2718115482233503" height="0.8733574988672406" x="-0.5773009200507613" y="-0.47438321250566384"/></g></g><g></g></g></g><g class="hud"><g><g class="frame"><g stroke-width="0.0" stroke="rgb(0%, 0%, 0%)" stroke-opacity="0.0" fill="rgb(100%, 100%, 100%)" fill-opacity="2.0e-2"><rect width="1.2802902918781724" height="0.8820910738559129" x="-0.5815402918781725" y="-0.47875"/></g></g><g></g><g class="axis"><g class="ticks"><g class="tickglyph"><g stroke-width="4.0e-3" stroke="rgb(5%, 5%, 5%)" stroke-opacity="0.4" fill="rgb(5%, 5%, 5%)" fill-opacity="0.4"><polyline points="-0.6069765228426395,0.41397428636157674
-0.6069765228426395,0.3839742863615767"/><polyline points="-0.6069765228426395,0.32663853647485275
-0.6069765228426395,0.2966385364748527"/><polyline points="-0.6069765228426395,0.23930278658812865
-0.6069765228426395,0.20930278658812862"/><polyline points="-0.6069765228426395,0.15196703670140455
-0.6069765228426395,0.12196703670140453"/><polyline points="-0.6069765228426395,6.463128681468049e-2
-0.6069765228426395,3.463128681468049e-2"/><polyline points="-0.6069765228426395,-2.270446307204356e-2
-0.6069765228426395,-5.270446307204356e-2"/><polyline points="-0.6069765228426395,-0.11004021295876766
-0.6069765228426395,-0.14004021295876767"/><polyline points="-0.6069765228426395,-0.19737596284549164
-0.6069765228426395,-0.22737596284549166"/><polyline points="-0.6069765228426395,-0.28471171273221574
-0.6069765228426395,-0.31471171273221576"/><polyline points="-0.6069765228426395,-0.37204746261893984
-0.6069765228426395,-0.40204746261893987"/><polyline points="-0.6069765228426395,-0.45938321250566383
-0.6069765228426395,-0.48938321250566386"/></g></g><g class="ticktext"><g stroke-width="0.0" stroke="none" fill="rgb(5%, 5%, 5%)" fill-opacity="1.0" font-size="4.2393718274111675e-2" text-anchor="end"><text x="-0.6375" y="0.4109829519710013">-0.50</text><text x="-0.6375" y="0.3236472020842772">-0.40</text><text x="-0.6375" y="0.23631145219755315">-0.30</text><text x="-0.6375" y="0.14897570231082913">-0.20</text><text x="-0.6375" y="6.163995242410503e-2">-0.10</text><text x="-0.6375" y="-2.5695797462618963e-2"> 0.00</text><text x="-0.6375" y="-0.11303154734934306"> 0.10</text><text x="-0.6375" y="-0.20036729723606705"> 0.20</text><text x="-0.6375" y="-0.28770304712279127"> 0.30</text><text x="-0.6375" y="-0.37503879700951526"> 0.40</text><text x="-0.6375" y="-0.46237454689623936"> 0.50</text></g></g><g class="ticklines"><g stroke-width="5.0e-3" stroke="rgb(5%, 5%, 5%)" stroke-opacity="5.0e-2" fill="none"><polyline points="-0.5773009200507613,0.3989742863615767
0.694510628172589,0.3989742863615767"/><polyline points="-0.5773009200507613,0.31163853647485273
0.694510628172589,0.31163853647485273"/><polyline points="-0.5773009200507613,0.22430278658812863
0.694510628172589,0.22430278658812863"/><polyline points="-0.5773009200507613,0.13696703670140453
0.694510628172589,0.13696703670140453"/><polyline points="-0.5773009200507613,4.9631286814680486e-2
0.694510628172589,4.9631286814680486e-2"/><polyline points="-0.5773009200507613,-3.770446307204356e-2
0.694510628172589,-3.770446307204356e-2"/><polyline points="-0.5773009200507613,-0.12504021295876766
0.694510628172589,-0.12504021295876766"/><polyline points="-0.5773009200507613,-0.21237596284549165
0.694510628172589,-0.21237596284549165"/><polyline points="-0.5773009200507613,-0.29971171273221575
0.694510628172589,-0.29971171273221575"/><polyline points="-0.5773009200507613,-0.38704746261893985
0.694510628172589,-0.38704746261893985"/><polyline points="-0.5773009200507613,-0.47438321250566384
0.694510628172589,-0.47438321250566384"/></g></g></g><g class="axisbar"><g stroke-width="0.0" stroke="rgb(0%, 0%, 0%)" stroke-opacity="0.0" fill="rgb(5%, 5%, 5%)" fill-opacity="0.4"><rect width="3.391497461928905e-3" height="0.8768509288627095" x="-0.5934105329949237" y="-0.47612992750339833"/></g></g></g><g><g class="axis"><g class="ticks"><g class="tickglyph"><g stroke-width="4.0e-3" stroke="rgb(5%, 5%, 5%)" stroke-opacity="0.4" fill="rgb(5%, 5%, 5%)" fill-opacity="0.4"><polyline points="-0.5773009200507613,0.44454179882193023
-0.5773009200507613,0.4145417988219302"/><polyline points="-0.45011976522842634,0.44454179882193023
-0.45011976522842634,0.4145417988219302"/><polyline points="-0.32293861040609123,0.44454179882193023
-0.32293861040609123,0.4145417988219302"/><polyline points="-0.19575745558375618,0.44454179882193023
-0.19575745558375618,0.4145417988219302"/><polyline points="-6.857630076142118e-2,0.44454179882193023
-6.857630076142118e-2,0.4145417988219302"/><polyline points="5.860485406091387e-2,0.44454179882193023
5.860485406091387e-2,0.4145417988219302"/><polyline points="0.18578600888324892,0.44454179882193023
0.18578600888324892,0.4145417988219302"/><polyline points="0.31296716370558375,0.44454179882193023
0.31296716370558375,0.4145417988219302"/><polyline points="0.44014831852791914,0.44454179882193023
0.44014831852791914,0.4145417988219302"/><polyline points="0.5673294733502541,0.44454179882193023
0.5673294733502541,0.4145417988219302"/><polyline points="0.694510628172589,0.44454179882193023
0.694510628172589,0.4145417988219302"/></g></g><g class="ticktext"><g stroke-width="0.0" stroke="none" fill="rgb(5%, 5%, 5%)" fill-opacity="1.0" font-size="4.2393718274111675e-2" text-anchor="middle"><text x="-0.5773009200507613" y="0.485">-0.50</text><text x="-0.45011976522842634" y="0.485">-0.40</text><text x="-0.32293861040609123" y="0.485">-0.30</text><text x="-0.19575745558375618" y="0.485">-0.20</text><text x="-6.857630076142118e-2" y="0.485">-0.10</text><text x="5.860485406091387e-2" y="0.485"> 0.00</text><text x="0.18578600888324892" y="0.485"> 0.10</text><text x="0.31296716370558375" y="0.485"> 0.20</text><text x="0.44014831852791914" y="0.485"> 0.30</text><text x="0.5673294733502541" y="0.485"> 0.40</text><text x="0.694510628172589" y="0.485"> 0.50</text></g></g><g class="ticklines"><g stroke-width="5.0e-3" stroke="rgb(5%, 5%, 5%)" stroke-opacity="5.0e-2" fill="none"><polyline points="-0.5773009200507613,0.3989742863615767
-0.5773009200507613,-0.47438321250566384"/><polyline points="-0.45011976522842634,0.3989742863615767
-0.45011976522842634,-0.47438321250566384"/><polyline points="-0.32293861040609123,0.3989742863615767
-0.32293861040609123,-0.47438321250566384"/><polyline points="-0.19575745558375618,0.3989742863615767
-0.19575745558375618,-0.47438321250566384"/><polyline points="-6.857630076142118e-2,0.3989742863615767
-6.857630076142118e-2,-0.47438321250566384"/><polyline points="5.860485406091387e-2,0.3989742863615767
5.860485406091387e-2,-0.47438321250566384"/><polyline points="0.18578600888324892,0.3989742863615767
0.18578600888324892,-0.47438321250566384"/><polyline points="0.31296716370558375,0.3989742863615767
0.31296716370558375,-0.47438321250566384"/><polyline points="0.44014831852791914,0.3989742863615767
0.44014831852791914,-0.47438321250566384"/><polyline points="0.5673294733502541,0.3989742863615767
0.5673294733502541,-0.47438321250566384"/><polyline points="0.694510628172589,0.3989742863615767
0.694510628172589,-0.47438321250566384"/></g></g></g><g class="axisbar"><g stroke-width="0.0" stroke="rgb(0%, 0%, 0%)" stroke-opacity="0.0" fill="rgb(5%, 5%, 5%)" fill-opacity="0.4"><rect width="1.275203045685279" height="3.493429995468922e-3" x="-0.5789966687817258" y="0.4120746488445854"/></g></g></g><g></g></g></g></g></g></svg>