<svg xmlns="http://www.w3.org/2000/svg" xmlns:xlink="http://www.w3.org/1999/xlink" width="450" height="300" viewBox="-0.75 -0.5 1.5 1.0"><style>svg {
  color-scheme: light dark;
}
{
  .canvas g, .title g, .axisbar g, .ticktext g, .tickglyph g, .ticklines g, .legendContent g text {
    fill: rgb(5%, 5%, 5%);
  }
  .ticklines g, .tickglyph g, .legendBorder g {
    stroke: rgb(5%, 5%, 5%);
  }
  .legendBorder g {
    fill: rgb(94%, 94%, 94%);
  }
}
@media (prefers-color-scheme:dark) {
  .canvas g, .title g, .axisbar g, .ticktext g, .tickglyph g, .ticklines g, .legendContent g text {
    fill: rgb(94%, 94%, 94%);
  }
  .ticklines g, .tickglyph g, .legendBorder g {
    stroke: rgb(94%, 94%, 94%);
  }
  .legendBorder g {
    fill: rgb(5%, 5%, 5%);
  }
}</style><g class="chart"><g class="unit"><g stroke-width="0.0100" stroke="rgb(2%, 29%, 48%)" stroke-opacity="1.0" fill="rgb(2%, 73%, 80%)" fill-opacity="0.1"><rect width="1.2578" height="0.8184" x="-0.5798" y="-0.4452"/></g></g></g><g class="hud"><g class="frame"><g stroke-width="0" stroke="rgb(0%, 0%, 0%)" stroke-opacity="0" fill="rgb(100%, 100%, 100%)" fill-opacity="0.02"><rect width="1.2663" height="0.8266" x="-0.5840" y="-0.4494"/></g></g><g class="axis"><g class="ticks"><g class="tickglyph"><g stroke-width="0.0040" stroke="rgb(5%, 5%, 5%)" stroke-opacity="0.4" fill="rgb(5%, 5%, 5%)" fill-opacity="0.4"><g transform="rotate(-90.0, -0.6094, 0.3731)"><polyline points="-0.6094,0.3881
-0.6094,0.3581"/></g><g transform="rotate(-90.0, -0.6094, 0.2913)"><polyline points="-0.6094,0.3063
-0.6094,0.2763"/></g><g transform="rotate(-90.0, -0.6094, 0.2095)"><polyline points="-0.6094,0.2245
-0.6094,0.1945"/></g><g transform="rotate(-90.0, -0.6094, 0.1276)"><polyline points="-0.6094,0.1426
-0.6094,0.1126"/></g><g transform="rotate(-90.0, -0.6094, 0.0458)"><polyline points="-0.6094,0.0608
-0.6094,0.0308"/></g><g transform="rotate(-90.0, -0.6094, -0.0361)"><polyline points="-0.6094,-0.0211
-0.6094,-0.0511"/></g><g transform="rotate(-90.0, -0.6094, -0.1179)"><polyline points="-0.6094,-0.1029
-0.6094,-0.1329"/></g><g transform="rotate(-90.0, -0.6094, -0.1997)"><polyline points="-0.6094,-0.1847
-0.6094,-0.2147"/></g><g transform="rotate(-90.0, -0.6094, -0.2816)"><polyline points="-0.6094,-0.2666
-0.6094,-0.2966"/></g><g transform="rotate(-90.0, -0.6094, -0.3634)"><polyline points="-0.6094,-0.3484
-0.6094,-0.3784"/></g><g transform="rotate(-90.0, -0.6094, -0.4452)"><polyline points="-0.6094,-0.4302
-0.6094,-0.4602"/></g></g></g><g class="ticktext"><g stroke-width="0.0" stroke="none" fill="rgb(5%, 5%, 5%)" fill-opacity="1.0" font-size="0.0423" text-anchor="end"><text x="-0.6399" y="0.3845">-0.5</text><text x="-0.6399" y="0.3027">-0.4</text><text x="-0.6399" y="0.2208">-0.3</text><text x="-0.6399" y="0.1390">-0.2</text><text x="-0.6399" y="0.0571">-0.1</text><text x="-0.6399" y="-0.0247"> 0.0</text><text x="-0.6399" y="-0.1065"> 0.1</text><text x="-0.6399" y="-0.1884"> 0.2</text><text x="-0.6399" y="-0.2702"> 0.3</text><text x="-0.6399" y="-0.3520"> 0.4</text><text x="-0.6399" y="-0.4339"> 0.5</text></g></g><g class="ticklines"><g stroke-width="0.0050" stroke="rgb(5%, 5%, 5%)" stroke-opacity="0.05" fill="none"><polyline points="-0.5798,0.3731 0.6780,0.3731"/><polyline points="-0.5798,0.2913 0.6780,0.2913"/><polyline points="-0.5798,0.2095 0.6780,0.2095"/><polyline points="-0.5798,0.1276 0.6780,0.1276"/><polyline points="-0.5798,0.0458 0.6780,0.0458"/><polyline points="-0.5798,-0.0361 0.6780,-0.0361"/><polyline points="-0.5798,-0.1179 0.6780,-0.1179"/><polyline points="-0.5798,-0.1997 0.6780,-0.1997"/><polyline points="-0.5798,-0.2816 0.6780,-0.2816"/><polyline points="-0.5798,-0.3634 0.6780,-0.3634"/><polyline points="-0.5798,-0.4452 0.6780,-0.4452"/></g></g></g><g class="axisbar"><g stroke-width="0" stroke="rgb(0%, 0%, 0%)" stroke-opacity="0" fill="rgb(5%, 5%, 5%)" fill-opacity="0.4"><rect width="0.0034" height="0.8217" x="-0.5959" y="-0.4469"/></g></g></g><g class="axis"><g class="ticks"><g class="tickglyph"><g stroke-width="0.0040" stroke="rgb(5%, 5%, 5%)" stroke-opacity="0.4" fill="rgb(5%, 5%, 5%)" fill-opacity="0.4"><polyline points="-0.5798,0.4171
-0.5798,0.3871"/><polyline points="-0.4540,0.4171
-0.4540,0.3871"/><polyline points="-0.3282,0.4171
-0.3282,0.3871"/><polyline points="-0.2024,0.4171
-0.2024,0.3871"/><polyline points="-0.0767,0.4171
-0.0767,0.3871"/><polyline points="0.0491,0.4171
0.0491,0.3871"/><polyline points="0.1749,0.4171
0.1749,0.3871"/><polyline points="0.3007,0.4171
0.3007,0.3871"/><polyline points="0.4265,0.4171
0.4265,0.3871"/><polyline points="0.5522,0.4171
0.5522,0.3871"/><polyline points="0.6780,0.4171
0.6780,0.3871"/></g></g><g class="ticktext"><g stroke-width="0.0" stroke="none" fill="rgb(5%, 5%, 5%)" fill-opacity="1.0" font-size="0.0423" text-anchor="middle"><text x="-0.5798" y="0.4545">-0.5</text><text x="-0.4540" y="0.4545">-0.4</text><text x="-0.3282" y="0.4545">-0.3</text><text x="-0.2024" y="0.4545">-0.2</text><text x="-0.0767" y="0.4545">-0.1</text><text x="0.0491" y="0.4545"> 0.0</text><text x="0.1749" y="0.4545"> 0.1</text><text x="0.3007" y="0.4545"> 0.2</text><text x="0.4265" y="0.4545"> 0.3</text><text x="0.5522" y="0.4545"> 0.4</text><text x="0.6780" y="0.4545"> 0.5</text></g></g><g class="ticklines"><g stroke-width="0.0050" stroke="rgb(5%, 5%, 5%)" stroke-opacity="0.05" fill="none"><polyline points="-0.5798,0.3731 -0.5798,-0.4452"/><polyline points="-0.4540,0.3731 -0.4540,-0.4452"/><polyline points="-0.3282,0.3731 -0.3282,-0.4452"/><polyline points="-0.2024,0.3731 -0.2024,-0.4452"/><polyline points="-0.0767,0.3731 -0.0767,-0.4452"/><polyline points="0.0491,0.3731 0.0491,-0.4452"/><polyline points="0.1749,0.3731 0.1749,-0.4452"/><polyline points="0.3007,0.3731 0.3007,-0.4452"/><polyline points="0.4265,0.3731 0.4265,-0.4452"/><polyline points="0.5522,0.3731 0.5522,-0.4452"/><polyline points="0.6780,0.3731 0.6780,-0.4452"/></g></g></g><g class="axisbar"><g stroke-width="0" stroke="rgb(0%, 0%, 0%)" stroke-opacity="0" fill="rgb(5%, 5%, 5%)" fill-opacity="0.4"><rect width="1.2612" height="0.0033" x="-0.5815" y="0.3855"/></g></g></g><g class="frame"><g stroke-width="0" stroke="rgb(0%, 0%, 0%)" stroke-opacity="0" fill="rgb(100%, 100%, 100%)" fill-opacity="0.02"><rect width="1.5" height="1.0" x="-0.75" y="-0.5"/></g></g></g></svg>