<svg xmlns="http://www.w3.org/2000/svg" width="445.8635573280647" xmlns:xlink="http://www.w3.org/1999/xlink" viewBox="-0.7336889276649746 -0.4965750545104526 1.477889435279188 0.9944002448657825" height="300.0"><style>svg {
  color-scheme: light dark;
}
{
  .canvas g, .title g, .axisbar g, .ticktext g, .tickglyph g, .ticklines g, .legendContent g text {
    fill: #0d0d0d;
  }
  .ticklines g, .tickglyph g, .legendBorder g {
    stroke: #0d0d0d;
  }
}
@media (prefers-color-scheme:dark) {
  .canvas g, .title g, .axisbar g, .ticktext g, .tickglyph g, .ticklines g, .legendContent g text {
    fill: #f0f0f0;
  }
  .ticklines g, .tickglyph g, .legendBorder g {
    stroke: #f0f0f0;
  }
}</style><g class="chart"><g class="unit"><g fill="rgb(12%, 47%, 71%)" stroke="rgb(65%, 81%, 89%)" stroke-width="1.0e-2" fill-opacity="1.0" stroke-opacity="1.0"><rect x="-0.5767940989847715" width="1.282519035532995" y="-0.47438321250566384" height="0.8733574988672406"/></g></g></g><g class="hud"><g class="frame"><g fill="rgb(100%, 100%, 100%)" stroke="rgb(0%, 0%, 0%)" stroke-width="0.0" fill-opacity="2.0e-2" stroke-opacity="0.0"><rect x="-0.5810691624365482" width="1.291069162436548" y="-0.47875" height="0.8820910738559129"/></g></g><g class="axis"><g class="ticks"><g class="tickglyph"><g fill="rgb(5%, 5%, 5%)" stroke="rgb(5%, 5%, 5%)" stroke-width="4.0e-3" fill-opacity="0.4" stroke-opacity="0.4"><g transform="rotate(-90.0, -0.6067195431472081, 0.3989742863615767)"><polyline points="-0.6067195431472081,0.41397428636157674
-0.6067195431472081,0.3839742863615767"/></g><g transform="rotate(-90.0, -0.6067195431472081, 0.31163853647485273)"><polyline points="-0.6067195431472081,0.32663853647485275
-0.6067195431472081,0.2966385364748527"/></g><g transform="rotate(-90.0, -0.6067195431472081, 0.22430278658812863)"><polyline points="-0.6067195431472081,0.23930278658812865
-0.6067195431472081,0.20930278658812862"/></g><g transform="rotate(-90.0, -0.6067195431472081, 0.13696703670140453)"><polyline points="-0.6067195431472081,0.15196703670140455
-0.6067195431472081,0.12196703670140453"/></g><g transform="rotate(-90.0, -0.6067195431472081, 4.9631286814680486e-2)"><polyline points="-0.6067195431472081,6.463128681468049e-2
-0.6067195431472081,3.463128681468049e-2"/></g><g transform="rotate(-90.0, -0.6067195431472081, -3.770446307204356e-2)"><polyline points="-0.6067195431472081,-2.270446307204356e-2
-0.6067195431472081,-5.270446307204356e-2"/></g><g transform="rotate(-90.0, -0.6067195431472081, -0.12504021295876766)"><polyline points="-0.6067195431472081,-0.11004021295876766
-0.6067195431472081,-0.14004021295876767"/></g><g transform="rotate(-90.0, -0.6067195431472081, -0.21237596284549165)"><polyline points="-0.6067195431472081,-0.19737596284549164
-0.6067195431472081,-0.22737596284549166"/></g><g transform="rotate(-90.0, -0.6067195431472081, -0.29971171273221575)"><polyline points="-0.6067195431472081,-0.28471171273221574
-0.6067195431472081,-0.31471171273221576"/></g><g transform="rotate(-90.0, -0.6067195431472081, -0.38704746261893985)"><polyline points="-0.6067195431472081,-0.37204746261893984
-0.6067195431472081,-0.40204746261893987"/></g><g transform="rotate(-90.0, -0.6067195431472081, -0.47438321250566384)"><polyline points="-0.6067195431472081,-0.45938321250566383
-0.6067195431472081,-0.48938321250566386"/></g></g></g><g class="ticktext"><g fill="rgb(5%, 5%, 5%)" stroke="none" stroke-width="0.0" font-size="4.27506345177665e-2" fill-opacity="1.0" text-anchor="end"><text x="-0.6375" y="0.4109829519710013">-0.50</text><text x="-0.6375" y="0.3236472020842772">-0.40</text><text x="-0.6375" y="0.23631145219755315">-0.30</text><text x="-0.6375" y="0.14897570231082913">-0.20</text><text x="-0.6375" y="6.163995242410503e-2">-0.10</text><text x="-0.6375" y="-2.5695797462618963e-2">0.0</text><text x="-0.6375" y="-0.11303154734934306">0.10</text><text x="-0.6375" y="-0.20036729723606705">0.20</text><text x="-0.6375" y="-0.28770304712279127">0.30</text><text x="-0.6375" y="-0.37503879700951526">0.40</text><text x="-0.6375" y="-0.46237454689623936">0.50</text></g></g><g class="ticklines"><g fill="none" stroke="rgb(5%, 5%, 5%)" stroke-width="5.0e-3" stroke-opacity="5.0e-2"><polyline points="-0.5767940989847715,0.3989742863615767
0.7057249365482234,0.3989742863615767"/><polyline points="-0.5767940989847715,0.31163853647485273
0.7057249365482234,0.31163853647485273"/><polyline points="-0.5767940989847715,0.22430278658812863
0.7057249365482234,0.22430278658812863"/><polyline points="-0.5767940989847715,0.13696703670140453
0.7057249365482234,0.13696703670140453"/><polyline points="-0.5767940989847715,4.9631286814680486e-2
0.7057249365482234,4.9631286814680486e-2"/><polyline points="-0.5767940989847715,-3.770446307204356e-2
0.7057249365482234,-3.770446307204356e-2"/><polyline points="-0.5767940989847715,-0.12504021295876766
0.7057249365482234,-0.12504021295876766"/><polyline points="-0.5767940989847715,-0.21237596284549165
0.7057249365482234,-0.21237596284549165"/><polyline points="-0.5767940989847715,-0.29971171273221575
0.7057249365482234,-0.29971171273221575"/><polyline points="-0.5767940989847715,-0.38704746261893985
0.7057249365482234,-0.38704746261893985"/><polyline points="-0.5767940989847715,-0.47438321250566384
0.7057249365482234,-0.47438321250566384"/></g></g></g><g class="axisbar"><g fill="rgb(5%, 5%, 5%)" stroke="rgb(0%, 0%, 0%)" stroke-width="0.0" fill-opacity="0.4" stroke-opacity="0.0"><rect x="-0.5930393401015228" width="3.420050761421378e-3" y="-0.47612992750339833" height="0.8768509288627095"/></g></g></g><g class="axis"><g class="ticks"><g class="tickglyph"><g fill="rgb(5%, 5%, 5%)" stroke="rgb(5%, 5%, 5%)" stroke-width="4.0e-3" fill-opacity="0.4" stroke-opacity="0.4"><polyline points="-0.5767940989847715,0.44454179882193023
-0.5767940989847715,0.4145417988219302"/><polyline points="-0.44854219543147206,0.44454179882193023
-0.44854219543147206,0.4145417988219302"/><polyline points="-0.32029029187817243,0.44454179882193023
-0.32029029187817243,0.4145417988219302"/><polyline points="-0.1920383883248729,0.44454179882193023
-0.1920383883248729,0.4145417988219302"/><polyline points="-6.378648477157345e-2,0.44454179882193023
-6.378648477157345e-2,0.4145417988219302"/><polyline points="6.446541878172596e-2,0.44454179882193023
6.446541878172596e-2,0.4145417988219302"/><polyline points="0.19271732233502548,0.44454179882193023
0.19271732233502548,0.4145417988219302"/><polyline points="0.3209692258883249,0.44454179882193023
0.3209692258883249,0.4145417988219302"/><polyline points="0.44922112944162484,0.44454179882193023
0.44922112944162484,0.4145417988219302"/><polyline points="0.577473032994924,0.44454179882193023
0.577473032994924,0.4145417988219302"/><polyline points="0.7057249365482234,0.44454179882193023
0.7057249365482234,0.4145417988219302"/></g></g><g class="ticktext"><g fill="rgb(5%, 5%, 5%)" stroke="none" stroke-width="0.0" font-size="4.27506345177665e-2" fill-opacity="1.0" text-anchor="middle"><text x="-0.5767940989847715" y="0.485">-0.50</text><text x="-0.44854219543147206" y="0.485">-0.40</text><text x="-0.32029029187817243" y="0.485">-0.30</text><text x="-0.1920383883248729" y="0.485">-0.20</text><text x="-6.378648477157345e-2" y="0.485">-0.10</text><text x="6.446541878172596e-2" y="0.485">0.0</text><text x="0.19271732233502548" y="0.485">0.10</text><text x="0.3209692258883249" y="0.485">0.20</text><text x="0.44922112944162484" y="0.485">0.30</text><text x="0.577473032994924" y="0.485">0.40</text><text x="0.7057249365482234" y="0.485">0.50</text></g></g><g class="ticklines"><g fill="none" stroke="rgb(5%, 5%, 5%)" stroke-width="5.0e-3" stroke-opacity="5.0e-2"><polyline points="-0.5767940989847715,0.3989742863615767
-0.5767940989847715,-0.47438321250566384"/><polyline points="-0.44854219543147206,0.3989742863615767
-0.44854219543147206,-0.47438321250566384"/><polyline points="-0.32029029187817243,0.3989742863615767
-0.32029029187817243,-0.47438321250566384"/><polyline points="-0.1920383883248729,0.3989742863615767
-0.1920383883248729,-0.47438321250566384"/><polyline points="-6.378648477157345e-2,0.3989742863615767
-6.378648477157345e-2,-0.47438321250566384"/><polyline points="6.446541878172596e-2,0.3989742863615767
6.446541878172596e-2,-0.47438321250566384"/><polyline points="0.19271732233502548,0.3989742863615767
0.19271732233502548,-0.47438321250566384"/><polyline points="0.3209692258883249,0.3989742863615767
0.3209692258883249,-0.47438321250566384"/><polyline points="0.44922112944162484,0.3989742863615767
0.44922112944162484,-0.47438321250566384"/><polyline points="0.577473032994924,0.3989742863615767
0.577473032994924,-0.47438321250566384"/><polyline points="0.7057249365482234,0.3989742863615767
0.7057249365482234,-0.47438321250566384"/></g></g></g><g class="axisbar"><g fill="rgb(5%, 5%, 5%)" stroke="rgb(0%, 0%, 0%)" stroke-width="0.0" fill-opacity="0.4" stroke-opacity="0.0"><rect x="-0.5785041243654822" width="1.285939086294416" y="0.4120746488445854" height="3.493429995468922e-3"/></g></g></g></g></svg>