<svg width="447.57688992645615" xmlns:xlink="http://www.w3.org/1999/xlink" xmlns="http://www.w3.org/2000/svg" viewBox="-0.7388784898477158 -0.4974316534952241 1.4853257852157362 0.9955780684698434" height="300.0"><style>svg {
  color-scheme: light dark;
}
{
  .canvas g, .title g, .axisbar g, .ticktext g, .tickglyph g, .ticklines g, .legendContent g text {
    fill: #0d0d0d;
  }
  .ticklines g, .tickglyph g, .legendBorder g {
    stroke: #0d0d0d;
  }
}
@media (prefers-color-scheme:dark) {
  .canvas g, .title g, .axisbar g, .ticktext g, .tickglyph g, .ticklines g, .legendContent g text {
    fill: #f0f0f0;
  }
  .ticklines g, .tickglyph g, .legendBorder g {
    stroke: #f0f0f0;
  }
}</style><g class="chart"><g class="unit"><g stroke-opacity="1.0" fill="#1f78b5" stroke="#a6cfe3" stroke-width="1.0e-2" fill-opacity="1.0"><rect width="1.314641497461929" x="-0.597773635786802" y="-0.47438321250566384" height="0.8733574988672406"/></g></g></g><g class="hud"><g class="frame"><g stroke-opacity="0.0" fill="#ffffff" stroke="#000000" stroke-width="0.0" fill-opacity="2.0e-2"><rect width="1.3234057741116751" x="-0.6021557741116751" y="-0.47875" height="0.8820910738559129"/></g></g><g class="axis"><g class="ticks"><g class="tickglyph"><g stroke-opacity="0.4" fill="#0d0d0d" stroke="#0d0d0d" stroke-width="4.0e-3" fill-opacity="0.4"><g transform="rotate(-90.0, -0.6284486040609137, 0.3989742863615767)"><polyline points="-0.6284486040609137,0.41397428636157674
-0.6284486040609137,0.3839742863615767"/></g><g transform="rotate(-90.0, -0.6284486040609137, 0.31163853647485273)"><polyline points="-0.6284486040609137,0.32663853647485275
-0.6284486040609137,0.2966385364748527"/></g><g transform="rotate(-90.0, -0.6284486040609137, 0.22430278658812863)"><polyline points="-0.6284486040609137,0.23930278658812865
-0.6284486040609137,0.20930278658812862"/></g><g transform="rotate(-90.0, -0.6284486040609137, 0.13696703670140453)"><polyline points="-0.6284486040609137,0.15196703670140455
-0.6284486040609137,0.12196703670140453"/></g><g transform="rotate(-90.0, -0.6284486040609137, 4.9631286814680486e-2)"><polyline points="-0.6284486040609137,6.463128681468049e-2
-0.6284486040609137,3.463128681468049e-2"/></g><g transform="rotate(-90.0, -0.6284486040609137, -3.770446307204356e-2)"><polyline points="-0.6284486040609137,-2.270446307204356e-2
-0.6284486040609137,-5.270446307204356e-2"/></g><g transform="rotate(-90.0, -0.6284486040609137, -0.12504021295876766)"><polyline points="-0.6284486040609137,-0.11004021295876766
-0.6284486040609137,-0.14004021295876767"/></g><g transform="rotate(-90.0, -0.6284486040609137, -0.21237596284549165)"><polyline points="-0.6284486040609137,-0.19737596284549164
-0.6284486040609137,-0.22737596284549166"/></g><g transform="rotate(-90.0, -0.6284486040609137, -0.29971171273221575)"><polyline points="-0.6284486040609137,-0.28471171273221574
-0.6284486040609137,-0.31471171273221576"/></g><g transform="rotate(-90.0, -0.6284486040609137, -0.38704746261893985)"><polyline points="-0.6284486040609137,-0.37204746261893984
-0.6284486040609137,-0.40204746261893987"/></g><g transform="rotate(-90.0, -0.6284486040609137, -0.47438321250566384)"><polyline points="-0.6284486040609137,-0.45938321250566383
-0.6284486040609137,-0.48938321250566386"/></g></g></g><g class="ticktext"><g fill="#0d0d0d" stroke="none" stroke-width="0.0" font-size="4.382138324873097e-2" fill-opacity="1.0" text-anchor="end"><text x="-0.66" y="0.4109829519710013">-0.5</text><text x="-0.66" y="0.3236472020842772">-0.4</text><text x="-0.66" y="0.23631145219755315">-0.3</text><text x="-0.66" y="0.14897570231082913">-0.2</text><text x="-0.66" y="6.163995242410503e-2">-0.1</text><text x="-0.66" y="-2.5695797462618963e-2">0</text><text x="-0.66" y="-0.11303154734934306">0.1</text><text x="-0.66" y="-0.20036729723606705">0.2</text><text x="-0.66" y="-0.28770304712279127">0.3</text><text x="-0.66" y="-0.37503879700951526">0.4</text><text x="-0.66" y="-0.46237454689623936">0.5</text></g></g><g class="ticklines"><g stroke-opacity="5.0e-2" fill="none" stroke="#0d0d0d" stroke-width="5.0e-3"><polyline points="-0.597773635786802,0.3989742863615767
0.7168678616751271,0.3989742863615767"/><polyline points="-0.597773635786802,0.31163853647485273
0.7168678616751271,0.31163853647485273"/><polyline points="-0.597773635786802,0.22430278658812863
0.7168678616751271,0.22430278658812863"/><polyline points="-0.597773635786802,0.13696703670140453
0.7168678616751271,0.13696703670140453"/><polyline points="-0.597773635786802,4.9631286814680486e-2
0.7168678616751271,4.9631286814680486e-2"/><polyline points="-0.597773635786802,-3.770446307204356e-2
0.7168678616751271,-3.770446307204356e-2"/><polyline points="-0.597773635786802,-0.12504021295876766
0.7168678616751271,-0.12504021295876766"/><polyline points="-0.597773635786802,-0.21237596284549165
0.7168678616751271,-0.21237596284549165"/><polyline points="-0.597773635786802,-0.29971171273221575
0.7168678616751271,-0.29971171273221575"/><polyline points="-0.597773635786802,-0.38704746261893985
0.7168678616751271,-0.38704746261893985"/><polyline points="-0.597773635786802,-0.47438321250566384
0.7168678616751271,-0.47438321250566384"/></g></g></g><g class="axisbar"><g stroke-opacity="0.0" fill="#0d0d0d" stroke="#000000" stroke-width="0.0" fill-opacity="0.4"><rect width="3.5057106598984644e-3" x="-0.6144257614213198" y="-0.47612992750339833" height="0.8768509288627095"/></g></g></g><g class="axis"><g class="ticks"><g class="tickglyph"><g stroke-opacity="0.4" fill="#0d0d0d" stroke="#0d0d0d" stroke-width="4.0e-3" fill-opacity="0.4"><polyline points="-0.597773635786802,0.44454179882193023
-0.597773635786802,0.4145417988219302"/><polyline points="-0.4663094860406092,0.44454179882193023
-0.4663094860406092,0.4145417988219302"/><polyline points="-0.33484533629441615,0.44454179882193023
-0.33484533629441615,0.4145417988219302"/><polyline points="-0.20338118654822318,0.44454179882193023
-0.20338118654822318,0.4145417988219302"/><polyline points="-7.191703680203032e-2,0.44454179882193023
-7.191703680203032e-2,0.4145417988219302"/><polyline points="5.9547112944162595e-2,0.44454179882193023
5.9547112944162595e-2,0.4145417988219302"/><polyline points="0.1910112626903555,0.44454179882193023
0.1910112626903555,0.4145417988219302"/><polyline points="0.3224754124365483,0.44454179882193023
0.3224754124365483,0.4145417988219302"/><polyline points="0.4539395621827417,0.44454179882193023
0.4539395621827417,0.4145417988219302"/><polyline points="0.5854037119289343,0.44454179882193023
0.5854037119289343,0.4145417988219302"/><polyline points="0.7168678616751271,0.44454179882193023
0.7168678616751271,0.4145417988219302"/></g></g><g class="ticktext"><g fill="#0d0d0d" stroke="none" stroke-width="0.0" font-size="4.382138324873097e-2" fill-opacity="1.0" text-anchor="middle"><text x="-0.597773635786802" y="0.485">-0.5</text><text x="-0.4663094860406092" y="0.485">-0.4</text><text x="-0.33484533629441615" y="0.485">-0.3</text><text x="-0.20338118654822318" y="0.485">-0.2</text><text x="-7.191703680203032e-2" y="0.485">-0.1</text><text x="5.9547112944162595e-2" y="0.485">0</text><text x="0.1910112626903555" y="0.485">0.1</text><text x="0.3224754124365483" y="0.485">0.2</text><text x="0.4539395621827417" y="0.485">0.3</text><text x="0.5854037119289343" y="0.485">0.4</text><text x="0.7168678616751271" y="0.485">0.5</text></g></g><g class="ticklines"><g stroke-opacity="5.0e-2" fill="none" stroke="#0d0d0d" stroke-width="5.0e-3"><polyline points="-0.597773635786802,0.3989742863615767
-0.597773635786802,-0.47438321250566384"/><polyline points="-0.4663094860406092,0.3989742863615767
-0.4663094860406092,-0.47438321250566384"/><polyline points="-0.33484533629441615,0.3989742863615767
-0.33484533629441615,-0.47438321250566384"/><polyline points="-0.20338118654822318,0.3989742863615767
-0.20338118654822318,-0.47438321250566384"/><polyline points="-7.191703680203032e-2,0.3989742863615767
-7.191703680203032e-2,-0.47438321250566384"/><polyline points="5.9547112944162595e-2,0.3989742863615767
5.9547112944162595e-2,-0.47438321250566384"/><polyline points="0.1910112626903555,0.3989742863615767
0.1910112626903555,-0.47438321250566384"/><polyline points="0.3224754124365483,0.3989742863615767
0.3224754124365483,-0.47438321250566384"/><polyline points="0.4539395621827417,0.3989742863615767
0.4539395621827417,-0.47438321250566384"/><polyline points="0.5854037119289343,0.3989742863615767
0.5854037119289343,-0.47438321250566384"/><polyline points="0.7168678616751271,0.3989742863615767
0.7168678616751271,-0.47438321250566384"/></g></g></g><g class="axisbar"><g stroke-opacity="0.0" fill="#0d0d0d" stroke="#000000" stroke-width="0.0" fill-opacity="0.4"><rect width="1.3181472081218275" x="-0.5995264911167513" y="0.4120746488445854" height="3.493429995468922e-3"/></g></g></g></g></svg>