<svg height="300" viewBox="-0.7382 -0.4971 1.4830 0.9952" width="447" xmlns="http://www.w3.org/2000/svg" xmlns:xlink="http://www.w3.org/1999/xlink"><style>svg {
  color-scheme: light dark;
}
{
  .canvas g, .title g, .axisbar g, .ticktext g, .tickglyph g, .ticklines g, .legendContent g text {
    fill: rgb(5%, 5%, 5%);
  }
  .ticklines g, .tickglyph g, .legendBorder g {
    stroke: rgb(5%, 5%, 5%);
  }
  .legendBorder g {
    fill: rgb(94%, 94%, 94%);
  }
}
@media (prefers-color-scheme:dark) {
  .canvas g, .title g, .axisbar g, .ticktext g, .tickglyph g, .ticklines g, .legendContent g text {
    fill: rgb(94%, 94%, 94%);
  }
  .ticklines g, .tickglyph g, .legendBorder g {
    stroke: rgb(94%, 94%, 94%);
  }
  .legendBorder g {
    fill: rgb(5%, 5%, 5%);
  }
}</style><g class="chart"><g class="unit"><g fill="rgb(2%, 73%, 80%)" fill-opacity="(0.10" stroke="rgb(2%, 29%, 48%)" stroke-opacity="(1.0" stroke-width="0.0100"><rect height="0.8734" width="1.3039" x="-0.5983" y="-0.4744"/></g></g></g><g class="hud"><g class="frame"><g fill="rgb(100%, 100%, 100%)" fill-opacity="(0.020" stroke="rgb(0%, 0%, 0%)" stroke-opacity="(0.0" stroke-width="0"><rect height="0.8821" width="1.3126" x="-0.6026" y="-0.4788"/></g></g><g class="axis"><g class="ticks"><g class="tickglyph"><g fill="rgb(5%, 5%, 5%)" fill-opacity="(0.40" stroke="rgb(5%, 5%, 5%)" stroke-opacity="(0.40" stroke-width="0.0040"><g transform="rotate(-90.0, -0.6287, 0.3990)"><polyline points="-0.6287,0.4140
-0.6287,0.3840"/></g><g transform="rotate(-90.0, -0.6287, 0.3116)"><polyline points="-0.6287,0.3266
-0.6287,0.2966"/></g><g transform="rotate(-90.0, -0.6287, 0.2243)"><polyline points="-0.6287,0.2393
-0.6287,0.2093"/></g><g transform="rotate(-90.0, -0.6287, 0.1370)"><polyline points="-0.6287,0.1520
-0.6287,0.1220"/></g><g transform="rotate(-90.0, -0.6287, 0.0496)"><polyline points="-0.6287,0.0646
-0.6287,0.0346"/></g><g transform="rotate(-90.0, -0.6287, -0.0377)"><polyline points="-0.6287,-0.0227
-0.6287,-0.0527"/></g><g transform="rotate(-90.0, -0.6287, -0.1250)"><polyline points="-0.6287,-0.1100
-0.6287,-0.1400"/></g><g transform="rotate(-90.0, -0.6287, -0.2124)"><polyline points="-0.6287,-0.1974
-0.6287,-0.2274"/></g><g transform="rotate(-90.0, -0.6287, -0.2997)"><polyline points="-0.6287,-0.2847
-0.6287,-0.3147"/></g><g transform="rotate(-90.0, -0.6287, -0.3870)"><polyline points="-0.6287,-0.3720
-0.6287,-0.4020"/></g><g transform="rotate(-90.0, -0.6287, -0.4744)"><polyline points="-0.6287,-0.4594
-0.6287,-0.4894"/></g></g></g><g class="ticktext"><g fill="rgb(5%, 5%, 5%)" fill-opacity="(1.0" font-size="0.0435" stroke="none" stroke-width="0.0" text-anchor="end"><text x="-0.66" y="0.4110">-0.5</text><text x="-0.66" y="0.3236">-0.4</text><text x="-0.66" y="0.2363">-0.3</text><text x="-0.66" y="0.1490">-0.2</text><text x="-0.66" y="0.0616">-0.1</text><text x="-0.66" y="-0.0257"> 0.0</text><text x="-0.66" y="-0.1130"> 0.1</text><text x="-0.66" y="-0.2004"> 0.2</text><text x="-0.66" y="-0.2877"> 0.3</text><text x="-0.66" y="-0.3750"> 0.4</text><text x="-0.66" y="-0.4624"> 0.5</text></g></g><g class="ticklines"><g fill="none" stroke="rgb(5%, 5%, 5%)" stroke-opacity="(0.050" stroke-width="0.0050"><polyline points="-0.5983,0.3990 0.7057,0.3990"/><polyline points="-0.5983,0.3116 0.7057,0.3116"/><polyline points="-0.5983,0.2243 0.7057,0.2243"/><polyline points="-0.5983,0.1370 0.7057,0.1370"/><polyline points="-0.5983,0.0496 0.7057,0.0496"/><polyline points="-0.5983,-0.0377 0.7057,-0.0377"/><polyline points="-0.5983,-0.1250 0.7057,-0.1250"/><polyline points="-0.5983,-0.2124 0.7057,-0.2124"/><polyline points="-0.5983,-0.2997 0.7057,-0.2997"/><polyline points="-0.5983,-0.3870 0.7057,-0.3870"/><polyline points="-0.5983,-0.4744 0.7057,-0.4744"/></g></g></g><g class="axisbar"><g fill="rgb(5%, 5%, 5%)" fill-opacity="(0.40" stroke="rgb(0%, 0%, 0%)" stroke-opacity="(0.0" stroke-width="0"><rect height="0.8769" width="0.0035" x="-0.6148" y="-0.4761"/></g></g></g><g class="axis"><g class="ticks"><g class="tickglyph"><g fill="rgb(5%, 5%, 5%)" fill-opacity="(0.40" stroke="rgb(5%, 5%, 5%)" stroke-opacity="(0.40" stroke-width="0.0040"><polyline points="-0.5983,0.4445
-0.5983,0.4145"/><polyline points="-0.4679,0.4445
-0.4679,0.4145"/><polyline points="-0.3375,0.4445
-0.3375,0.4145"/><polyline points="-0.2071,0.4445
-0.2071,0.4145"/><polyline points="-0.0767,0.4445
-0.0767,0.4145"/><polyline points="0.0537,0.4445
0.0537,0.4145"/><polyline points="0.1841,0.4445
0.1841,0.4145"/><polyline points="0.3145,0.4445
0.3145,0.4145"/><polyline points="0.4449,0.4445
0.4449,0.4145"/><polyline points="0.5753,0.4445
0.5753,0.4145"/><polyline points="0.7057,0.4445
0.7057,0.4145"/></g></g><g class="ticktext"><g fill="rgb(5%, 5%, 5%)" fill-opacity="(1.0" font-size="0.0435" stroke="none" stroke-width="0.0" text-anchor="middle"><text x="-0.5983" y="0.485">-0.5</text><text x="-0.4679" y="0.485">-0.4</text><text x="-0.3375" y="0.485">-0.3</text><text x="-0.2071" y="0.485">-0.2</text><text x="-0.0767" y="0.485">-0.1</text><text x="0.0537" y="0.485"> 0.0</text><text x="0.1841" y="0.485"> 0.1</text><text x="0.3145" y="0.485"> 0.2</text><text x="0.4449" y="0.485"> 0.3</text><text x="0.5753" y="0.485"> 0.4</text><text x="0.7057" y="0.485"> 0.5</text></g></g><g class="ticklines"><g fill="none" stroke="rgb(5%, 5%, 5%)" stroke-opacity="(0.050" stroke-width="0.0050"><polyline points="-0.5983,0.3990 -0.5983,-0.4744"/><polyline points="-0.4679,0.3990 -0.4679,-0.4744"/><polyline points="-0.3375,0.3990 -0.3375,-0.4744"/><polyline points="-0.2071,0.3990 -0.2071,-0.4744"/><polyline points="-0.0767,0.3990 -0.0767,-0.4744"/><polyline points="0.0537,0.3990 0.0537,-0.4744"/><polyline points="0.1841,0.3990 0.1841,-0.4744"/><polyline points="0.3145,0.3990 0.3145,-0.4744"/><polyline points="0.4449,0.3990 0.4449,-0.4744"/><polyline points="0.5753,0.3990 0.5753,-0.4744"/><polyline points="0.7057,0.3990 0.7057,-0.4744"/></g></g></g><g class="axisbar"><g fill="rgb(5%, 5%, 5%)" fill-opacity="(0.40" stroke="rgb(0%, 0%, 0%)" stroke-opacity="(0.0" stroke-width="0"><rect height="0.0035" width="1.3074" x="-0.6000" y="0.4121"/></g></g></g></g></svg>