<svg xmlns="http://www.w3.org/2000/svg" xmlns:xlink="http://www.w3.org/1999/xlink" width="450" height="300" viewBox="-0.75 -0.5 1.5 1.0"><style>svg {
  color-scheme: light dark;
}
{
  .canvas g, .title g, .axisbar g, .ticktext g, .tickglyph g, .ticklines g, .legendContent g text {
    fill: rgb(5%, 5%, 5%);
  }
  .ticklines g, .tickglyph g, .legendBorder g {
    stroke: rgb(5%, 5%, 5%);
  }
  .legendBorder g {
    fill: rgb(94%, 94%, 94%);
  }
}
@media (prefers-color-scheme:dark) {
  .canvas g, .title g, .axisbar g, .ticktext g, .tickglyph g, .ticklines g, .legendContent g text {
    fill: rgb(94%, 94%, 94%);
  }
  .ticklines g, .tickglyph g, .legendBorder g {
    stroke: rgb(94%, 94%, 94%);
  }
  .legendBorder g {
    fill: rgb(5%, 5%, 5%);
  }
}
svg { font-family: system-ui,-apple-system,"Segoe UI",Roboto,"Helvetica Neue",Arial,"Noto Sans","Liberation Sans",sans-serif,"Apple Color Emoji","Segoe UI Emoji","Segoe UI Symbol","Noto Color Emoji";
}

ticktext { font-family: SFMono-Regular,Menlo,Monaco,Consolas,"Liberation Mono","Courier New",monospace;
}

</style><g class="chart"><g class="unit"><g stroke-width="0.0100" stroke="rgb(2%, 29%, 48%)" stroke-opacity="1.0" fill="rgb(2%, 73%, 80%)" fill-opacity="0.1"><rect width="1.0487" height="0.6775" x="-0.4773" y="-0.3827"/></g></g><g class="datapadding"></g></g><g class="hud"><g class="frame"><g stroke-width="0" stroke="rgb(0%, 0%, 0%)" stroke-opacity="0" fill="rgb(100%, 100%, 100%)" fill-opacity="0.02"><rect width="1.2584" height="0.8130" x="-0.5822" y="-0.4504"/></g></g><g class="axis"><g class="axisbar"><g stroke-width="0" stroke="rgb(0%, 0%, 0%)" stroke-opacity="0" fill="rgb(5%, 5%, 5%)" fill-opacity="0.4"><rect width="0.0034" height="0.8163" x="-0.5940" y="-0.4520"/></g></g><g class="ticks"><g class="ticklines"><g stroke-width="0.0050" stroke="rgb(5%, 5%, 5%)" stroke-opacity="0.05" fill="none"><polyline points="-0.5822,0.3626 0.6762,0.3626"/><polyline points="-0.5822,0.2271 0.6762,0.2271"/><polyline points="-0.5822,0.0916 0.6762,0.0916"/><polyline points="-0.5822,-0.0439 0.6762,-0.0439"/><polyline points="-0.5822,-0.1794 0.6762,-0.1794"/><polyline points="-0.5822,-0.3149 0.6762,-0.3149"/><polyline points="-0.5822,-0.4504 0.6762,-0.4504"/></g></g><g class="tickglyph"><g stroke-width="0.0034" stroke="rgb(5%, 5%, 5%)" stroke-opacity="0.4" fill="rgb(5%, 5%, 5%)" fill-opacity="0.4"><polyline points="-0.6174,0.3626
-0.5923,0.3626"/><polyline points="-0.6174,0.2271
-0.5923,0.2271"/><polyline points="-0.6174,0.0916
-0.5923,0.0916"/><polyline points="-0.6174,-0.0439
-0.5923,-0.0439"/><polyline points="-0.6174,-0.1794
-0.5923,-0.1794"/><polyline points="-0.6174,-0.3149
-0.5923,-0.3149"/><polyline points="-0.6174,-0.4504
-0.5923,-0.4504"/></g></g><g class="ticktext"><g stroke-width="0.0" stroke="none" fill="rgb(5%, 5%, 5%)" fill-opacity="1.0" font-size="0.0400" text-anchor="end"><text x="-0.6359" y="0.3715">-0.6</text><text x="-0.6359" y="0.2360">-0.4</text><text x="-0.6359" y="0.1005">-0.2</text><text x="-0.6359" y="-0.0350"> 0.0</text><text x="-0.6359" y="-0.1705"> 0.2</text><text x="-0.6359" y="-0.3060"> 0.4</text><text x="-0.6359" y="-0.4415"> 0.6</text></g></g></g></g><g class="axis"><g class="axisbar"><g stroke-width="0" stroke="rgb(0%, 0%, 0%)" stroke-opacity="0" fill="rgb(5%, 5%, 5%)" fill-opacity="0.4"><rect width="1.2617" height="0.0033" x="-0.5839" y="0.3707"/></g></g><g class="ticks"><g class="ticklines"><g stroke-width="0.0050" stroke="rgb(5%, 5%, 5%)" stroke-opacity="0.05" fill="none"><polyline points="-0.5822,0.3626 -0.5822,-0.4504"/><polyline points="-0.3725,0.3626 -0.3725,-0.4504"/><polyline points="-0.1628,0.3626 -0.1628,-0.4504"/><polyline points="0.0470,0.3626 0.0470,-0.4504"/><polyline points="0.2567,0.3626 0.2567,-0.4504"/><polyline points="0.4664,0.3626 0.4664,-0.4504"/><polyline points="0.6762,0.3626 0.6762,-0.4504"/></g></g><g class="tickglyph"><g stroke-width="0.0033" stroke="rgb(5%, 5%, 5%)" stroke-opacity="0.4" fill="rgb(5%, 5%, 5%)" fill-opacity="0.4"><polyline points="-0.5822,0.3967
-0.5822,0.3724"/><polyline points="-0.3725,0.3967
-0.3725,0.3724"/><polyline points="-0.1628,0.3967
-0.1628,0.3724"/><polyline points="0.0470,0.3967
0.0470,0.3724"/><polyline points="0.2567,0.3967
0.2567,0.3724"/><polyline points="0.4664,0.3967
0.4664,0.3724"/><polyline points="0.6762,0.3967
0.6762,0.3724"/></g></g><g class="ticktext"><g stroke-width="0.0" stroke="none" fill="rgb(5%, 5%, 5%)" fill-opacity="1.0" font-size="0.0400" text-anchor="middle"><text x="-0.5822" y="0.4415">-0.6</text><text x="-0.3725" y="0.4415">-0.4</text><text x="-0.1628" y="0.4415">-0.2</text><text x="0.0470" y="0.4415"> 0.0</text><text x="0.2567" y="0.4415"> 0.2</text><text x="0.4664" y="0.4415"> 0.4</text><text x="0.6762" y="0.4415"> 0.6</text></g></g></g></g><g class="frame"><g stroke-width="0" stroke="rgb(0%, 0%, 0%)" stroke-opacity="0" fill="rgb(0%, 0%, 0%)" fill-opacity="0"><rect width="1.5" height="1.0" x="-0.75" y="-0.5"/></g></g></g></svg>