<svg height="300" viewBox="-0.75 -0.5 1.5 1.0" width="450" xmlns="http://www.w3.org/2000/svg" xmlns:xlink="http://www.w3.org/1999/xlink"><style>svg {
  color-scheme: light dark;
}
{
  .canvas g, .title g, .axisbar g, .ticktext g, .tickglyph g, .ticklines g, .legendContent g text {
    fill: rgb(5%, 5%, 5%);
  }
  .ticklines g, .tickglyph g, .legendBorder g {
    stroke: rgb(5%, 5%, 5%);
  }
  .legendBorder g {
    fill: rgb(94%, 94%, 94%);
  }
}
@media (prefers-color-scheme:dark) {
  .canvas g, .title g, .axisbar g, .ticktext g, .tickglyph g, .ticklines g, .legendContent g text {
    fill: rgb(94%, 94%, 94%);
  }
  .ticklines g, .tickglyph g, .legendBorder g {
    stroke: rgb(94%, 94%, 94%);
  }
  .legendBorder g {
    fill: rgb(5%, 5%, 5%);
  }
}</style><g class="chart"><g class="unit"><g fill="rgb(2%, 73%, 80%)" fill-opacity="0.1" stroke="rgb(2%, 29%, 48%)" stroke-opacity="1.0" stroke-width="0.0100"><rect height="0.8198" width="1.2598" x="-0.5812" y="-0.4457"/></g></g></g><g class="hud"><g class="frame"><g fill="rgb(100%, 100%, 100%)" fill-opacity="0.02" stroke="rgb(0%, 0%, 0%)" stroke-opacity="0" stroke-width="0"><rect height="0.8280" width="1.2682" x="-0.5854" y="-0.4498"/></g></g><g class="axis"><g class="ticks"><g class="tickglyph"><g fill="rgb(5%, 5%, 5%)" fill-opacity="0.4" stroke="rgb(5%, 5%, 5%)" stroke-opacity="0.4" stroke-width="0.0040"><g transform="rotate(-90.0, -0.6106, 0.3742)"><polyline points="-0.6106,0.3892
-0.6106,0.3592"/></g><g transform="rotate(-90.0, -0.6106, 0.2922)"><polyline points="-0.6106,0.3072
-0.6106,0.2772"/></g><g transform="rotate(-90.0, -0.6106, 0.2102)"><polyline points="-0.6106,0.2252
-0.6106,0.1952"/></g><g transform="rotate(-90.0, -0.6106, 0.1282)"><polyline points="-0.6106,0.1432
-0.6106,0.1132"/></g><g transform="rotate(-90.0, -0.6106, 0.0462)"><polyline points="-0.6106,0.0612
-0.6106,0.0312"/></g><g transform="rotate(-90.0, -0.6106, -0.0358)"><polyline points="-0.6106,-0.0208
-0.6106,-0.0508"/></g><g transform="rotate(-90.0, -0.6106, -0.1177)"><polyline points="-0.6106,-0.1027
-0.6106,-0.1327"/></g><g transform="rotate(-90.0, -0.6106, -0.1997)"><polyline points="-0.6106,-0.1847
-0.6106,-0.2147"/></g><g transform="rotate(-90.0, -0.6106, -0.2817)"><polyline points="-0.6106,-0.2667
-0.6106,-0.2967"/></g><g transform="rotate(-90.0, -0.6106, -0.3637)"><polyline points="-0.6106,-0.3487
-0.6106,-0.3787"/></g><g transform="rotate(-90.0, -0.6106, -0.4457)"><polyline points="-0.6106,-0.4307
-0.6106,-0.4607"/></g></g></g><g class="ticktext"><g fill="rgb(5%, 5%, 5%)" fill-opacity="1.0" font-size="0.0420" stroke="none" stroke-width="0.0" text-anchor="end"><text x="-0.6408" y="0.3854">-0.5</text><text x="-0.6408" y="0.3034">-0.4</text><text x="-0.6408" y="0.2215">-0.3</text><text x="-0.6408" y="0.1395">-0.2</text><text x="-0.6408" y="0.0575">-0.1</text><text x="-0.6408" y="-0.0245"> 0.0</text><text x="-0.6408" y="-0.1065"> 0.1</text><text x="-0.6408" y="-0.1885"> 0.2</text><text x="-0.6408" y="-0.2704"> 0.3</text><text x="-0.6408" y="-0.3524"> 0.4</text><text x="-0.6408" y="-0.4344"> 0.5</text></g></g><g class="ticklines"><g fill="none" stroke="rgb(5%, 5%, 5%)" stroke-opacity="0.05" stroke-width="0.0050"><polyline points="-0.5812,0.3742 0.6786,0.3742"/><polyline points="-0.5812,0.2922 0.6786,0.2922"/><polyline points="-0.5812,0.2102 0.6786,0.2102"/><polyline points="-0.5812,0.1282 0.6786,0.1282"/><polyline points="-0.5812,0.0462 0.6786,0.0462"/><polyline points="-0.5812,-0.0358 0.6786,-0.0358"/><polyline points="-0.5812,-0.1177 0.6786,-0.1177"/><polyline points="-0.5812,-0.1997 0.6786,-0.1997"/><polyline points="-0.5812,-0.2817 0.6786,-0.2817"/><polyline points="-0.5812,-0.3637 0.6786,-0.3637"/><polyline points="-0.5812,-0.4457 0.6786,-0.4457"/></g></g></g><g class="axisbar"><g fill="rgb(5%, 5%, 5%)" fill-opacity="0.4" stroke="rgb(0%, 0%, 0%)" stroke-opacity="0" stroke-width="0"><rect height="0.8231" width="0.0034" x="-0.5971" y="-0.4473"/></g></g></g><g class="axis"><g class="ticks"><g class="tickglyph"><g fill="rgb(5%, 5%, 5%)" fill-opacity="0.4" stroke="rgb(5%, 5%, 5%)" stroke-opacity="0.4" stroke-width="0.0040"><polyline points="-0.5812,0.4178
-0.5812,0.3878"/><polyline points="-0.4552,0.4178
-0.4552,0.3878"/><polyline points="-0.3292,0.4178
-0.3292,0.3878"/><polyline points="-0.2032,0.4178
-0.2032,0.3878"/><polyline points="-0.0773,0.4178
-0.0773,0.3878"/><polyline points="0.0487,0.4178
0.0487,0.3878"/><polyline points="0.1747,0.4178
0.1747,0.3878"/><polyline points="0.3007,0.4178
0.3007,0.3878"/><polyline points="0.4267,0.4178
0.4267,0.3878"/><polyline points="0.5526,0.4178
0.5526,0.3878"/><polyline points="0.6786,0.4178
0.6786,0.3878"/></g></g><g class="ticktext"><g fill="rgb(5%, 5%, 5%)" fill-opacity="1.0" font-size="0.0420" stroke="none" stroke-width="0.0" text-anchor="middle"><text x="-0.5812" y="0.4549">-0.5</text><text x="-0.4552" y="0.4549">-0.4</text><text x="-0.3292" y="0.4549">-0.3</text><text x="-0.2032" y="0.4549">-0.2</text><text x="-0.0773" y="0.4549">-0.1</text><text x="0.0487" y="0.4549"> 0.0</text><text x="0.1747" y="0.4549"> 0.1</text><text x="0.3007" y="0.4549"> 0.2</text><text x="0.4267" y="0.4549"> 0.3</text><text x="0.5526" y="0.4549"> 0.4</text><text x="0.6786" y="0.4549"> 0.5</text></g></g><g class="ticklines"><g fill="none" stroke="rgb(5%, 5%, 5%)" stroke-opacity="0.05" stroke-width="0.0050"><polyline points="-0.5812,0.3742 -0.5812,-0.4457"/><polyline points="-0.4552,0.3742 -0.4552,-0.4457"/><polyline points="-0.3292,0.3742 -0.3292,-0.4457"/><polyline points="-0.2032,0.3742 -0.2032,-0.4457"/><polyline points="-0.0773,0.3742 -0.0773,-0.4457"/><polyline points="0.0487,0.3742 0.0487,-0.4457"/><polyline points="0.1747,0.3742 0.1747,-0.4457"/><polyline points="0.3007,0.3742 0.3007,-0.4457"/><polyline points="0.4267,0.3742 0.4267,-0.4457"/><polyline points="0.5526,0.3742 0.5526,-0.4457"/><polyline points="0.6786,0.3742 0.6786,-0.4457"/></g></g></g><g class="axisbar"><g fill="rgb(5%, 5%, 5%)" fill-opacity="0.4" stroke="rgb(0%, 0%, 0%)" stroke-opacity="0" stroke-width="0"><rect height="0.0033" width="1.2632" x="-0.5829" y="0.3865"/></g></g></g><g class="frame"><g fill="rgb(100%, 100%, 100%)" fill-opacity="0.02" stroke="rgb(0%, 0%, 0%)" stroke-opacity="0" stroke-width="0"><rect height="1.0" width="1.5" x="-0.75" y="-0.5"/></g></g></g></svg>