<svg xmlns="http://www.w3.org/2000/svg" xmlns:xlink="http://www.w3.org/1999/xlink" width="449" height="300" viewBox="-0.75 -0.5 1.5000 1.0"><style>svg {
  color-scheme: light dark;
}
{
  .canvas g, .title g, .axisbar g, .ticktext g, .tickglyph g, .ticklines g, .legendContent g text {
    fill: rgb(5%, 5%, 5%);
  }
  .ticklines g, .tickglyph g, .legendBorder g {
    stroke: rgb(5%, 5%, 5%);
  }
  .legendBorder g {
    fill: rgb(94%, 94%, 94%);
  }
}
@media (prefers-color-scheme:dark) {
  .canvas g, .title g, .axisbar g, .ticktext g, .tickglyph g, .ticklines g, .legendContent g text {
    fill: rgb(94%, 94%, 94%);
  }
  .ticklines g, .tickglyph g, .legendBorder g {
    stroke: rgb(94%, 94%, 94%);
  }
  .legendBorder g {
    fill: rgb(5%, 5%, 5%);
  }
}
svg { font-family: system-ui,-apple-system,"Segoe UI",Roboto,"Helvetica Neue",Arial,"Noto Sans","Liberation Sans",sans-serif,"Apple Color Emoji","Segoe UI Emoji","Segoe UI Symbol","Noto Color Emoji";
}

ticktext { font-family: SFMono-Regular,Menlo,Monaco,Consolas,"Liberation Mono","Courier New",monospace;
}

</style><g class="chart"><g class="line"><g stroke-width="0.0150" stroke="rgb(2%, 73%, 80%)" stroke-opacity="1.0" fill="none"><polyline points="-0.6371,0.1998 -0.1971,0.1998 0.2429,-0.4503"/></g><g stroke-width="0.0150" stroke="rgb(2%, 29%, 48%)" stroke-opacity="1.0" fill="none"><polyline points="-0.6371,0.3623 0.5949,-0.1253"/></g><g stroke-width="0.0150" stroke="rgb(66%, 7%, 55%)" stroke-opacity="1.0" fill="none"><polyline points="-0.4171,-0.2878 -0.4171,0.3623"/></g></g><g class="datapadding"></g></g><g class="hud"><g class="frame"><g stroke-width="0" stroke="rgb(0%, 0%, 0%)" stroke-opacity="0" fill="rgb(100%, 100%, 100%)" fill-opacity="0.02"><rect width="1.3266" height="0.8248" x="-0.6437" y="-0.4564"/></g></g><g class="axis"><g class="axisbar"><g stroke-width="0" stroke="rgb(0%, 0%, 0%)" stroke-opacity="0" fill="rgb(5%, 5%, 5%)" fill-opacity="0.4"><rect width="0.0035" height="0.8158" x="-0.6494" y="-0.4519"/></g></g><g class="ticks"><g class="ticklines"><g stroke-width="0.0050" stroke="rgb(5%, 5%, 5%)" stroke-opacity="0.05" fill="none"><polyline points="-0.6371,0.3623 0.6830,0.3623"/><polyline points="-0.6371,0.1998 0.6830,0.1998"/><polyline points="-0.6371,0.0372 0.6830,0.0372"/><polyline points="-0.6371,-0.1253 0.6830,-0.1253"/><polyline points="-0.6371,-0.2878 0.6830,-0.2878"/><polyline points="-0.6371,-0.4503 0.6830,-0.4503"/></g></g><g class="tickglyph"><g stroke-width="0.0035" stroke="rgb(5%, 5%, 5%)" stroke-opacity="0.4" fill="rgb(5%, 5%, 5%)" fill-opacity="0.4"><polyline points="-0.6741,0.3623
-0.6477,0.3623"/><polyline points="-0.6741,0.1998
-0.6477,0.1998"/><polyline points="-0.6741,0.0372
-0.6477,0.0372"/><polyline points="-0.6741,-0.1253
-0.6477,-0.1253"/><polyline points="-0.6741,-0.2878
-0.6477,-0.2878"/><polyline points="-0.6741,-0.4503
-0.6477,-0.4503"/></g></g><g class="ticktext"><g stroke-width="0.0" stroke="none" fill="rgb(5%, 5%, 5%)" fill-opacity="1.0" font-size="0.0400" text-anchor="end"><text x="-0.6935" y="0.3712">0</text><text x="-0.6935" y="0.2087">1</text><text x="-0.6935" y="0.0462">2</text><text x="-0.6935" y="-0.1163">3</text><text x="-0.6935" y="-0.2788">4</text><text x="-0.6935" y="-0.4413">5</text></g></g></g></g><g class="axis"><g class="axisbar"><g stroke-width="0" stroke="rgb(0%, 0%, 0%)" stroke-opacity="0" fill="rgb(5%, 5%, 5%)" fill-opacity="0.4"><rect width="1.3236" height="0.0033" x="-0.6388" y="0.3704"/></g></g><g class="ticks"><g class="ticklines"><g stroke-width="0.0050" stroke="rgb(5%, 5%, 5%)" stroke-opacity="0.05" fill="none"><polyline points="-0.6371,0.3623 -0.6371,-0.4503"/><polyline points="-0.4171,0.3623 -0.4171,-0.4503"/><polyline points="-0.1971,0.3623 -0.1971,-0.4503"/><polyline points="0.0229,0.3623 0.0229,-0.4503"/><polyline points="0.2429,0.3623 0.2429,-0.4503"/><polyline points="0.4629,0.3623 0.4629,-0.4503"/><polyline points="0.6830,0.3623 0.6830,-0.4503"/></g></g><g class="tickglyph"><g stroke-width="0.0033" stroke="rgb(5%, 5%, 5%)" stroke-opacity="0.4" fill="rgb(5%, 5%, 5%)" fill-opacity="0.4"><polyline points="-0.6371,0.3965
-0.6371,0.3720"/><polyline points="-0.4171,0.3965
-0.4171,0.3720"/><polyline points="-0.1971,0.3965
-0.1971,0.3720"/><polyline points="0.0229,0.3965
0.0229,0.3720"/><polyline points="0.2429,0.3965
0.2429,0.3720"/><polyline points="0.4629,0.3965
0.4629,0.3720"/><polyline points="0.6830,0.3965
0.6830,0.3720"/></g></g><g class="ticktext"><g stroke-width="0.0" stroke="none" fill="rgb(5%, 5%, 5%)" fill-opacity="1.0" font-size="0.0400" text-anchor="middle"><text x="-0.6371" y="0.4413">0.0</text><text x="-0.4171" y="0.4413">0.5</text><text x="-0.1971" y="0.4413">1.0</text><text x="0.0229" y="0.4413">1.5</text><text x="0.2429" y="0.4413">2.0</text><text x="0.4629" y="0.4413">2.5</text><text x="0.6830" y="0.4413">3.0</text></g></g></g></g><g class="frame"><g stroke-width="0" stroke="rgb(0%, 0%, 0%)" stroke-opacity="0" fill="rgb(0%, 0%, 0%)" fill-opacity="0"><rect width="1.5000" height="1.0" x="-0.75" y="-0.5"/></g></g></g></svg>