<svg xmlns="http://www.w3.org/2000/svg" xmlns:xlink="http://www.w3.org/1999/xlink" width="450" height="300" viewBox="-0.75 -0.5 1.5 1.0"><style>svg {
  color-scheme: light dark;
}
{
  .canvas g, .title g, .axisbar g, .ticktext g, .tickglyph g, .ticklines g, .legendContent g text {
    fill: rgb(5%, 5%, 5%);
  }
  .ticklines g, .tickglyph g, .legendBorder g {
    stroke: rgb(5%, 5%, 5%);
  }
  .legendBorder g {
    fill: rgb(94%, 94%, 94%);
  }
}
@media (prefers-color-scheme:dark) {
  .canvas g, .title g, .axisbar g, .ticktext g, .tickglyph g, .ticklines g, .legendContent g text {
    fill: rgb(94%, 94%, 94%);
  }
  .ticklines g, .tickglyph g, .legendBorder g {
    stroke: rgb(94%, 94%, 94%);
  }
  .legendBorder g {
    fill: rgb(5%, 5%, 5%);
  }
}</style><g class="chart"><g class="line"><g stroke-width="0.0150" stroke="rgb(2%, 73%, 80%)" stroke-opacity="1.0" fill="none"><polyline points="-0.5949,0.2085 -0.1677,0.2085 0.2596,-0.4457"/></g><g stroke-width="0.0150" stroke="rgb(2%, 29%, 48%)" stroke-opacity="1.0" fill="none"><polyline points="-0.5949,0.3721 0.6014,-0.1186"/></g><g stroke-width="0.0150" stroke="rgb(66%, 7%, 55%)" stroke-opacity="1.0" fill="none"><polyline points="-0.3813,-0.2821 -0.3813,0.3721"/></g></g></g><g class="hud"><g class="frame"><g stroke-width="0" stroke="rgb(0%, 0%, 0%)" stroke-opacity="0" fill="rgb(100%, 100%, 100%)" fill-opacity="0.02"><rect width="1.2882" height="0.8300" x="-0.6014" y="-0.4518"/></g></g><g class="axis"><g class="ticks"><g class="tickglyph"><g stroke-width="0.0040" stroke="rgb(5%, 5%, 5%)" stroke-opacity="0.4" fill="rgb(5%, 5%, 5%)" fill-opacity="0.4"><g transform="rotate(-90.0, -0.6271, 0.3721)"><polyline points="-0.6271,0.3871
-0.6271,0.3571"/></g><g transform="rotate(-90.0, -0.6271, 0.2903)"><polyline points="-0.6271,0.3053
-0.6271,0.2753"/></g><g transform="rotate(-90.0, -0.6271, 0.2085)"><polyline points="-0.6271,0.2235
-0.6271,0.1935"/></g><g transform="rotate(-90.0, -0.6271, 0.1267)"><polyline points="-0.6271,0.1417
-0.6271,0.1117"/></g><g transform="rotate(-90.0, -0.6271, 0.0450)"><polyline points="-0.6271,0.0600
-0.6271,0.0300"/></g><g transform="rotate(-90.0, -0.6271, -0.0368)"><polyline points="-0.6271,-0.0218
-0.6271,-0.0518"/></g><g transform="rotate(-90.0, -0.6271, -0.1186)"><polyline points="-0.6271,-0.1036
-0.6271,-0.1336"/></g><g transform="rotate(-90.0, -0.6271, -0.2003)"><polyline points="-0.6271,-0.1853
-0.6271,-0.2153"/></g><g transform="rotate(-90.0, -0.6271, -0.2821)"><polyline points="-0.6271,-0.2671
-0.6271,-0.2971"/></g><g transform="rotate(-90.0, -0.6271, -0.3639)"><polyline points="-0.6271,-0.3489
-0.6271,-0.3789"/></g><g transform="rotate(-90.0, -0.6271, -0.4457)"><polyline points="-0.6271,-0.4307
-0.6271,-0.4607"/></g></g></g><g class="ticktext"><g stroke-width="0.0" stroke="none" fill="rgb(5%, 5%, 5%)" fill-opacity="1.0" font-size="0.0428" text-anchor="end"><text x="-0.6579" y="0.3833">0.0</text><text x="-0.6579" y="0.3016">0.5</text><text x="-0.6579" y="0.2198">1.0</text><text x="-0.6579" y="0.1380">1.5</text><text x="-0.6579" y="0.0562">2.0</text><text x="-0.6579" y="-0.0255">2.5</text><text x="-0.6579" y="-0.1073">3.0</text><text x="-0.6579" y="-0.1891">3.5</text><text x="-0.6579" y="-0.2708">4.0</text><text x="-0.6579" y="-0.3526">4.5</text><text x="-0.6579" y="-0.4344">5.0</text></g></g><g class="ticklines"><g stroke-width="0.0050" stroke="rgb(5%, 5%, 5%)" stroke-opacity="0.05" fill="none"><polyline points="-0.5949,0.3721 0.6868,0.3721"/><polyline points="-0.5949,0.2903 0.6868,0.2903"/><polyline points="-0.5949,0.2085 0.6868,0.2085"/><polyline points="-0.5949,0.1267 0.6868,0.1267"/><polyline points="-0.5949,0.0450 0.6868,0.0450"/><polyline points="-0.5949,-0.0368 0.6868,-0.0368"/><polyline points="-0.5949,-0.1186 0.6868,-0.1186"/><polyline points="-0.5949,-0.2003 0.6868,-0.2003"/><polyline points="-0.5949,-0.2821 0.6868,-0.2821"/><polyline points="-0.5949,-0.3639 0.6868,-0.3639"/><polyline points="-0.5949,-0.4457 0.6868,-0.4457"/></g></g></g><g class="axisbar"><g stroke-width="0" stroke="rgb(0%, 0%, 0%)" stroke-opacity="0" fill="rgb(5%, 5%, 5%)" fill-opacity="0.4"><rect width="0.0034" height="0.8210" x="-0.6134" y="-0.4473"/></g></g></g><g class="axis"><g class="ticks"><g class="tickglyph"><g stroke-width="0.0040" stroke="rgb(5%, 5%, 5%)" stroke-opacity="0.4" fill="rgb(5%, 5%, 5%)" fill-opacity="0.4"><polyline points="-0.5949,0.4178
-0.5949,0.3878"/><polyline points="-0.3813,0.4178
-0.3813,0.3878"/><polyline points="-0.1677,0.4178
-0.1677,0.3878"/><polyline points="0.0459,0.4178
0.0459,0.3878"/><polyline points="0.2596,0.4178
0.2596,0.3878"/><polyline points="0.4732,0.4178
0.4732,0.3878"/><polyline points="0.6868,0.4178
0.6868,0.3878"/></g></g><g class="ticktext"><g stroke-width="0.0" stroke="none" fill="rgb(5%, 5%, 5%)" fill-opacity="1.0" font-size="0.0428" text-anchor="middle"><text x="-0.5949" y="0.4549">0.0</text><text x="-0.3813" y="0.4549">0.5</text><text x="-0.1677" y="0.4549">1.0</text><text x="0.0459" y="0.4549">1.5</text><text x="0.2596" y="0.4549">2.0</text><text x="0.4732" y="0.4549">2.5</text><text x="0.6868" y="0.4549">3.0</text></g></g><g class="ticklines"><g stroke-width="0.0050" stroke="rgb(5%, 5%, 5%)" stroke-opacity="0.05" fill="none"><polyline points="-0.5949,0.3721 -0.5949,-0.4457"/><polyline points="-0.3813,0.3721 -0.3813,-0.4457"/><polyline points="-0.1677,0.3721 -0.1677,-0.4457"/><polyline points="0.0459,0.3721 0.0459,-0.4457"/><polyline points="0.2596,0.3721 0.2596,-0.4457"/><polyline points="0.4732,0.3721 0.4732,-0.4457"/><polyline points="0.6868,0.3721 0.6868,-0.4457"/></g></g></g><g class="axisbar"><g stroke-width="0" stroke="rgb(0%, 0%, 0%)" stroke-opacity="0" fill="rgb(5%, 5%, 5%)" fill-opacity="0.4"><rect width="1.2852" height="0.0033" x="-0.5967" y="0.3864"/></g></g></g><g class="frame"><g stroke-width="0" stroke="rgb(0%, 0%, 0%)" stroke-opacity="0" fill="rgb(100%, 100%, 100%)" fill-opacity="0.02"><rect width="1.5" height="1.0" x="-0.75" y="-0.5"/></g></g></g></svg>