<svg xmlns="http://www.w3.org/2000/svg" xmlns:xlink="http://www.w3.org/1999/xlink" width="449" height="300" viewBox="-0.75 -0.5 1.5000 1.0"><style>svg {color-scheme: light dark;} {.canvas g, .title g, .axisbar g, .ticktext g, .tickglyph g, .ticklines g, .legendContent g text {fill: rgb(5%, 5%, 5%);} .ticklines g, .tickglyph g, .legendBorder g {stroke: rgb(5%, 5%, 5%);} .legendBorder g {fill: rgb(94%, 94%, 94%);}} @media (prefers-color-scheme:dark) {.canvas g, .title g, .axisbar g, .ticktext g, .tickglyph g, .ticklines g, .legendContent g text {fill: rgb(94%, 94%, 94%);} .ticklines g, .tickglyph g, .legendBorder g {stroke: rgb(94%, 94%, 94%);} .legendBorder g {fill: rgb(5%, 5%, 5%);}}
svg { font-family: system-ui,-apple-system,"Segoe UI",Roboto,"Helvetica Neue",Arial,"Noto Sans","Liberation Sans",sans-serif,"Apple Color Emoji","Segoe UI Emoji","Segoe UI Symbol","Noto Color Emoji";
}

ticktext { font-family: SFMono-Regular,Menlo,Monaco,Consolas,"Liberation Mono","Courier New",monospace;}</style><g class="chart"><g class="line"><g stroke-width="0.0150" stroke="rgb(2%, 73%, 80%)" stroke-opacity="1.0" fill="none"><polyline points="-0.6371,0.2114 -0.1971,0.2114 0.2429,-0.4495"/></g><g stroke-width="0.0150" stroke="rgb(2%, 29%, 48%)" stroke-opacity="1.0" fill="none"><polyline points="-0.6371,0.3766 0.5949,-0.1191"/></g><g stroke-width="0.0150" stroke="rgb(66%, 7%, 55%)" stroke-opacity="1.0" fill="none"><polyline points="-0.4171,-0.2843 -0.4171,0.3766"/></g></g><g class="datapadding"></g></g><g class="hud"><g class="frame"><g stroke-width="0" stroke="rgb(0%, 0%, 0%)" stroke-opacity="0" fill="rgb(100%, 100%, 100%)" fill-opacity="0.02"><rect width="1.3266" height="0.8384" x="-0.6437" y="-0.4557"/></g></g><g class="axis"><g class="axisbar"><g stroke-width="0" stroke="rgb(0%, 0%, 0%)" stroke-opacity="0" fill="rgb(5%, 5%, 5%)" fill-opacity="0.4"><rect width="1.3236" height="0.0033" x="-0.6388" y="0.3848"/></g></g><g class="ticks"><g class="ticklines"><g stroke-width="0.0050" stroke="rgb(5%, 5%, 5%)" stroke-opacity="0.05" fill="none"><polyline points="-0.6371,0.3766 -0.6371,-0.4495"/><polyline points="-0.4171,0.3766 -0.4171,-0.4495"/><polyline points="-0.1971,0.3766 -0.1971,-0.4495"/><polyline points="0.0229,0.3766 0.0229,-0.4495"/><polyline points="0.2429,0.3766 0.2429,-0.4495"/><polyline points="0.4629,0.3766 0.4629,-0.4495"/><polyline points="0.6830,0.3766 0.6830,-0.4495"/></g></g><g class="tickglyph"><g stroke-width="0.0033" stroke="rgb(5%, 5%, 5%)" stroke-opacity="0.4" fill="rgb(5%, 5%, 5%)" fill-opacity="0.4"><polyline points="-0.6371,0.4114
-0.6371,0.3865"/><polyline points="-0.4171,0.4114
-0.4171,0.3865"/><polyline points="-0.1971,0.4114
-0.1971,0.3865"/><polyline points="0.0229,0.4114
0.0229,0.3865"/><polyline points="0.2429,0.4114
0.2429,0.3865"/><polyline points="0.4629,0.4114
0.4629,0.3865"/><polyline points="0.6830,0.4114
0.6830,0.3865"/></g></g><g class="ticktext"><g stroke-width="0.0" stroke="none" fill="rgb(5%, 5%, 5%)" fill-opacity="1.0" font-size="0.0400" text-anchor="middle"><text x="-0.6371" y="0.4569">0.0</text><text x="-0.4171" y="0.4569">0.5</text><text x="-0.1971" y="0.4569">1.0</text><text x="0.0229" y="0.4569">1.5</text><text x="0.2429" y="0.4569">2.0</text><text x="0.4629" y="0.4569">2.5</text><text x="0.6830" y="0.4569">3.0</text></g></g></g></g><g class="axis"><g class="axisbar"><g stroke-width="0" stroke="rgb(0%, 0%, 0%)" stroke-opacity="0" fill="rgb(5%, 5%, 5%)" fill-opacity="0.4"><rect width="0.0035" height="0.8293" x="-0.6494" y="-0.4511"/></g></g><g class="ticks"><g class="ticklines"><g stroke-width="0.0050" stroke="rgb(5%, 5%, 5%)" stroke-opacity="0.05" fill="none"><polyline points="-0.6371,0.3766 0.6830,0.3766"/><polyline points="-0.6371,0.2114 0.6830,0.2114"/><polyline points="-0.6371,0.0461 0.6830,0.0461"/><polyline points="-0.6371,-0.1191 0.6830,-0.1191"/><polyline points="-0.6371,-0.2843 0.6830,-0.2843"/><polyline points="-0.6371,-0.4495 0.6830,-0.4495"/></g></g><g class="tickglyph"><g stroke-width="0.0035" stroke="rgb(5%, 5%, 5%)" stroke-opacity="0.4" fill="rgb(5%, 5%, 5%)" fill-opacity="0.4"><polyline points="-0.6741,0.3766
-0.6477,0.3766"/><polyline points="-0.6741,0.2114
-0.6477,0.2114"/><polyline points="-0.6741,0.0461
-0.6477,0.0461"/><polyline points="-0.6741,-0.1191
-0.6477,-0.1191"/><polyline points="-0.6741,-0.2843
-0.6477,-0.2843"/><polyline points="-0.6741,-0.4495
-0.6477,-0.4495"/></g></g><g class="ticktext"><g stroke-width="0.0" stroke="none" fill="rgb(5%, 5%, 5%)" fill-opacity="1.0" font-size="0.0400" text-anchor="end"><text x="-0.6935" y="0.3857">0</text><text x="-0.6935" y="0.2205">1</text><text x="-0.6935" y="0.0553">2</text><text x="-0.6935" y="-0.1099">3</text><text x="-0.6935" y="-0.2751">4</text><text x="-0.6935" y="-0.4403">5</text></g></g></g></g><g class="frame"><g stroke-width="0" stroke="rgb(0%, 0%, 0%)" stroke-opacity="0" fill="rgb(0%, 0%, 0%)" fill-opacity="0"><rect width="1.5000" height="1.0" x="-0.75" y="-0.5"/></g></g></g></svg>