<svg width="299.3522821977706" xmlns:xlink="http://www.w3.org/1999/xlink" xmlns="http://www.w3.org/2000/svg" viewBox="-0.52 -0.5207878703943032 1.04 1.0422502802028866" height="300.0"><style>svg {
  color-scheme: light dark;
}
@media (prefers-color-scheme:dark) {
  svg {
    background-color: #f0f0f0;
  }
}</style><g stroke-opacity="0.0" fill="#0d0d0d" stroke="#000000" stroke-width="0.0" fill-opacity="0.4"><rect width="3.4316895546963044e-3" x="-0.3833225551403263" y="-0.47967302850119997" height="0.8415785313317554"/></g><g stroke-opacity="0.4" fill="#0d0d0d" stroke="#0d0d0d" stroke-width="4.0e-3" fill-opacity="0.4"><g transform="rotate(-90.0, -0.3970493133591115, 0.3602290515729224)"><polyline points="-0.3970493133591115,0.3752290515729224
-0.3970493133591115,0.3452290515729224"/></g><g transform="rotate(-90.0, -0.3970493133591115, 0.2205247801035075)"><polyline points="-0.3970493133591115,0.23552478010350753
-0.3970493133591115,0.2055247801035075"/></g><g transform="rotate(-90.0, -0.3970493133591115, 8.082050863409262e-2)"><polyline points="-0.3970493133591115,9.582050863409262e-2
-0.3970493133591115,6.582050863409263e-2"/></g><g transform="rotate(-90.0, -0.3970493133591115, -5.888376283532237e-2)"><polyline points="-0.3970493133591115,-4.3883762835322374e-2
-0.3970493133591115,-7.388376283532237e-2"/></g><g transform="rotate(-90.0, -0.3970493133591115, -0.19858803430473726)"><polyline points="-0.3970493133591115,-0.18358803430473725
-0.3970493133591115,-0.21358803430473727"/></g><g transform="rotate(-90.0, -0.3970493133591115, -0.33829230577415204)"><polyline points="-0.3970493133591115,-0.323292305774152
-0.3970493133591115,-0.35329230577415205"/></g><g transform="rotate(-90.0, -0.3970493133591115, -0.47799657724356726)"><polyline points="-0.3970493133591115,-0.46299657724356724
-0.3970493133591115,-0.49299657724356727"/></g></g><g fill="#0d0d0d" stroke="none" stroke-width="0.0" font-size="4.2896119433703556e-2" fill-opacity="1.0" text-anchor="end"><text x="-0.42278698501933365" y="0.3717546539691492">-1.5</text><text x="-0.42278698501933365" y="0.23205038249973425">-1</text><text x="-0.42278698501933365" y="9.234611103031937e-2">-0.5</text><text x="-0.42278698501933365" y="-4.7358160439095576e-2">0</text><text x="-0.42278698501933365" y="-0.18706243190851046">0.5</text><text x="-0.42278698501933365" y="-0.32676670337792535">1</text><text x="-0.42278698501933365" y="-0.46647097484734035">1.5</text></g><g stroke-opacity="5.0e-2" fill="none" stroke="#0d0d0d" stroke-width="5.0e-3"><polyline points="-0.36702202975551895,0.3602290515729224
0.490900358918552,0.3602290515729224"/><polyline points="-0.36702202975551895,0.2205247801035075
0.490900358918552,0.2205247801035075"/><polyline points="-0.36702202975551895,8.082050863409262e-2
0.490900358918552,8.082050863409262e-2"/><polyline points="-0.36702202975551895,-5.888376283532237e-2
0.490900358918552,-5.888376283532237e-2"/><polyline points="-0.36702202975551895,-0.19858803430473726
0.490900358918552,-0.19858803430473726"/><polyline points="-0.36702202975551895,-0.33829230577415204
0.490900358918552,-0.33829230577415204"/><polyline points="-0.36702202975551895,-0.47799657724356726
0.490900358918552,-0.47799657724356726"/></g><g stroke-opacity="0.0" fill="#0d0d0d" stroke="#000000" stroke-width="0.0" fill-opacity="0.4"><rect width="0.8613540782287674" x="-0.3687378745328671" y="0.3728024360051698" height="3.352902515265932e-3"/></g><g stroke-opacity="0.4" fill="#0d0d0d" stroke="#0d0d0d" stroke-width="4.0e-3" fill-opacity="0.4"><polyline points="-0.36702202975551895,0.4045669485814996
-0.36702202975551895,0.3745669485814996"/><polyline points="-0.22403496497650716,0.4045669485814996
-0.22403496497650716,0.3745669485814996"/><polyline points="-8.10479001974953e-2,0.4045669485814996
-8.10479001974953e-2,0.3745669485814996"/><polyline points="6.1939164581516604e-2,0.4045669485814996
6.1939164581516604e-2,0.3745669485814996"/><polyline points="0.2049262293605283,0.4045669485814996
0.2049262293605283,0.3745669485814996"/><polyline points="0.3479132941395402,0.4045669485814996
0.3479132941395402,0.3745669485814996"/><polyline points="0.490900358918552,0.4045669485814996
0.490900358918552,0.3745669485814996"/></g><g fill="#0d0d0d" stroke="none" stroke-width="0.0" font-size="4.2896119433703556e-2" fill-opacity="1.0" text-anchor="end"><text x="-0.36702202975551895" y="0.43776492223844776" transform="rotate(-45.0, -0.36702202975551895, 0.43776492223844776)">-1.5</text><text x="-0.22403496497650716" y="0.43776492223844776" transform="rotate(-45.0, -0.22403496497650716, 0.43776492223844776)">-1</text><text x="-8.10479001974953e-2" y="0.43776492223844776" transform="rotate(-45.0, -8.10479001974953e-2, 0.43776492223844776)">-0.5</text><text x="6.1939164581516604e-2" y="0.43776492223844776" transform="rotate(-45.0, 6.1939164581516604e-2, 0.43776492223844776)">0</text><text x="0.2049262293605283" y="0.43776492223844776" transform="rotate(-45.0, 0.2049262293605283, 0.43776492223844776)">0.5</text><text x="0.3479132941395402" y="0.43776492223844776" transform="rotate(-45.0, 0.3479132941395402, 0.43776492223844776)">1</text><text x="0.490900358918552" y="0.43776492223844776" transform="rotate(-45.0, 0.490900358918552, 0.43776492223844776)">1.5</text></g><g stroke-opacity="5.0e-2" fill="none" stroke="#0d0d0d" stroke-width="5.0e-3"><polyline points="-0.36702202975551895,0.3602290515729224
-0.36702202975551895,-0.47799657724356726"/><polyline points="-0.22403496497650716,0.3602290515729224
-0.22403496497650716,-0.47799657724356726"/><polyline points="-8.10479001974953e-2,0.3602290515729224
-8.10479001974953e-2,-0.47799657724356726"/><polyline points="6.1939164581516604e-2,0.3602290515729224
6.1939164581516604e-2,-0.47799657724356726"/><polyline points="0.2049262293605283,0.3602290515729224
0.2049262293605283,-0.47799657724356726"/><polyline points="0.3479132941395402,0.3602290515729224
0.3479132941395402,-0.47799657724356726"/><polyline points="0.490900358918552,0.3602290515729224
0.490900358918552,-0.47799657724356726"/></g><g stroke-opacity="0.0" fill="#ffffff" stroke="#000000" stroke-width="0.0" fill-opacity="2.0e-2"><rect width="0.8665016125608119" x="-0.3713116416988893" y="-0.47799657724356726" height="0.8424167569605722"/></g><g stroke-opacity="1.0" fill="#b05929" stroke="#a6cfe3" stroke-width="1.0e-2" fill-opacity="0.2"><path d="M 0.0619,-0.4031 A 0.14298706477901185 0.13970427146941494 -0.0 1 1 0.3479,0.0808 A 0.2859741295580237 0.2794085429388299 -0.0 0 0 0.2049,-0.1612 A 0.2859741295580237 0.2794085429388299 -0.0 0 0 0.0619,-0.4031 L 0.0619,-0.4031"/></g><g stroke-opacity="1.0" fill="#a6cfe3" stroke="#a6cfe3" stroke-width="1.0e-2" fill-opacity="0.2"><path d="M -0.2240,0.0808 A 0.14298706477901185 0.13970427146941494 -0.0 1 0 0.3479,0.0808 A 0.2859741295580237 0.2794085429388299 -0.0 0 1 0.0619,0.0808 A 0.2859741295580237 0.2794085429388299 -0.0 0 1 -0.2240,0.0808 L -0.2240,0.0808"/></g><g stroke-opacity="1.0" fill="#1f78b5" stroke="#a6cfe3" stroke-width="1.0e-2" fill-opacity="0.2"><path d="M -0.2240,0.0808 A 0.14298706477901185 0.13970427146941494 -0.0 1 1 0.0619,-0.4031 A 0.2859741295580237 0.2794085429388299 -0.0 0 0 -0.0810,-0.1612 A 0.2859741295580237 0.2794085429388299 -0.0 0 0 -0.2240,0.0808 L -0.2240,0.0808"/></g><g stroke-opacity="1.0" fill="#e31a1c" stroke="#a6cfe3" stroke-width="1.0e-2" fill-opacity="0.2"><path d="M 0.2049,-0.1612 A 0.2859741295580237 0.2794085429388299 -0.0 0 1 0.3479,0.0808 A 0.2859741295580237 0.2794085429388299 -0.0 0 1 0.0619,0.0808 A 0.2859741295580237 0.2794085429388299 -0.0 0 0 0.2049,-0.1612 L 0.2049,-0.1612"/></g><g stroke-opacity="1.0" fill="#b2de8a" stroke="#a6cfe3" stroke-width="1.0e-2" fill-opacity="0.2"><path d="M 0.0619,0.0808 A 0.2859741295580237 0.2794085429388299 -0.0 0 1 -0.2240,0.0808 A 0.2859741295580237 0.2794085429388299 -0.0 0 1 -0.0810,-0.1612 A 0.2859741295580237 0.2794085429388299 -0.0 0 0 0.0619,0.0808 L 0.0619,0.0808"/></g><g stroke-opacity="1.0" fill="#33a12b" stroke="#a6cfe3" stroke-width="1.0e-2" fill-opacity="0.2"><path d="M 0.0619,-0.4031 A 0.2859741295580237 0.2794085429388299 -0.0 0 1 0.2049,-0.1612 A 0.2859741295580237 0.2794085429388299 -0.0 0 0 -0.0810,-0.1612 A 0.2859741295580237 0.2794085429388299 -0.0 0 1 0.0619,-0.4031 L 0.0619,-0.4031"/></g><g stroke-opacity="1.0" fill="#fa9999" stroke="#a6cfe3" stroke-width="1.0e-2" fill-opacity="0.2"><path d="M 0.2049,-0.1612 A 0.2859741295580237 0.2794085429388299 -0.0 0 1 0.0619,0.0808 A 0.2859741295580237 0.2794085429388299 -0.0 0 1 -0.0810,-0.1612 A 0.2859741295580237 0.2794085429388299 -0.0 0 1 0.2049,-0.1612 L 0.2049,-0.1612"/></g></svg>