<svg width="300.4177818679457" xmlns:xlink="http://www.w3.org/1999/xlink" xmlns="http://www.w3.org/2000/svg" viewBox="-0.52 -0.5194936212488427 1.04 1.0385537036457633" height="300.0"><style>svg {
  color-scheme: light dark;
}
{
  .canvas g, .title g, .axisbar g, .ticktext g, .tickglyph g, .ticklines g, .legendContent g text {
    fill: #0d0d0d;
  }
  .ticklines g, .tickglyph g, .legendBorder g {
    stroke: #0d0d0d;
  }
}
@media (prefers-color-scheme:dark) {
  .canvas g, .title g, .axisbar g, .ticktext g, .tickglyph g, .ticklines g, .legendContent g text {
    fill: #f0f0f0;
  }
  .ticklines g, .tickglyph g, .legendBorder g {
    stroke: #f0f0f0;
  }
}</style><g class="chart"><g class="venn"><g stroke-opacity="1.0" fill="#b05929" stroke="#a6cfe3" stroke-width="1.0e-2" fill-opacity="0.2"><path d="M 0.0618,-0.4345 A 0.14165029026978093 0.14376020173293635 -0.0 1 1 0.3451,0.0635 A 0.28330058053956186 0.2875204034658727 -0.0 0 0 0.2034,-0.1855 A 0.28330058053956186 0.2875204034658727 -0.0 0 0 0.0618,-0.4345 L 0.0618,-0.4345"/></g><g stroke-opacity="1.0" fill="#a6cfe3" stroke="#a6cfe3" stroke-width="1.0e-2" fill-opacity="0.2"><path d="M -0.2215,0.0635 A 0.14165029026978093 0.14376020173293635 -0.0 1 0 0.3451,0.0635 A 0.28330058053956186 0.2875204034658727 -0.0 0 1 0.0618,0.0635 A 0.28330058053956186 0.2875204034658727 -0.0 0 1 -0.2215,0.0635 L -0.2215,0.0635"/></g><g stroke-opacity="1.0" fill="#1f78b5" stroke="#a6cfe3" stroke-width="1.0e-2" fill-opacity="0.2"><path d="M -0.2215,0.0635 A 0.14165029026978093 0.14376020173293635 -0.0 1 1 0.0618,-0.4345 A 0.28330058053956186 0.2875204034658727 -0.0 0 0 -0.0799,-0.1855 A 0.28330058053956186 0.2875204034658727 -0.0 0 0 -0.2215,0.0635 L -0.2215,0.0635"/></g><g stroke-opacity="1.0" fill="#e31a1c" stroke="#a6cfe3" stroke-width="1.0e-2" fill-opacity="0.2"><path d="M 0.2034,-0.1855 A 0.28330058053956186 0.2875204034658727 -0.0 0 1 0.3451,0.0635 A 0.28330058053956186 0.2875204034658727 -0.0 0 1 0.0618,0.0635 A 0.28330058053956186 0.2875204034658727 -0.0 0 0 0.2034,-0.1855 L 0.2034,-0.1855"/></g><g stroke-opacity="1.0" fill="#b2de8a" stroke="#a6cfe3" stroke-width="1.0e-2" fill-opacity="0.2"><path d="M 0.0618,0.0635 A 0.28330058053956186 0.2875204034658727 -0.0 0 1 -0.2215,0.0635 A 0.28330058053956186 0.2875204034658727 -0.0 0 1 -0.0799,-0.1855 A 0.28330058053956186 0.2875204034658727 -0.0 0 0 0.0618,0.0635 L 0.0618,0.0635"/></g><g stroke-opacity="1.0" fill="#33a12b" stroke="#a6cfe3" stroke-width="1.0e-2" fill-opacity="0.2"><path d="M 0.0618,-0.4345 A 0.28330058053956186 0.2875204034658727 -0.0 0 1 0.2034,-0.1855 A 0.28330058053956186 0.2875204034658727 -0.0 0 0 -0.0799,-0.1855 A 0.28330058053956186 0.2875204034658727 -0.0 0 1 0.0618,-0.4345 L 0.0618,-0.4345"/></g><g stroke-opacity="1.0" fill="#fa9999" stroke="#a6cfe3" stroke-width="1.0e-2" fill-opacity="0.2"><path d="M 0.2034,-0.1855 A 0.28330058053956186 0.2875204034658727 -0.0 0 1 0.0618,0.0635 A 0.28330058053956186 0.2875204034658727 -0.0 0 1 -0.0799,-0.1855 A 0.28330058053956186 0.2875204034658727 -0.0 0 1 0.2034,-0.1855 L 0.2034,-0.1855"/></g></g></g><g class="hud"><g><g class="canvas"><g stroke-opacity="0.0" fill="#ffffff" stroke="#000000" stroke-width="0.0" fill-opacity="2.0e-2"><rect width="0.8584007590348725" x="-0.367415328307485" y="-0.47735776822706255" height="0.8326663925435189"/></g></g><g class="axis"><g class="ticks"><g class="tickglyph"><g stroke-opacity="0.4" fill="#0d0d0d" stroke="#0d0d0d" stroke-width="4.0e-3" fill-opacity="0.4"><g transform="rotate(-90.0, -0.3929123805560456, 0.3553086243164563)"><polyline points="-0.3929123805560456,0.37030862431645634
-0.3929123805560456,0.3403086243164563"/></g><g transform="rotate(-90.0, -0.3929123805560456, 0.21653089222586985)"><polyline points="-0.3929123805560456,0.23153089222586987
-0.3929123805560456,0.20153089222586984"/></g><g transform="rotate(-90.0, -0.3929123805560456, 7.775316013528344e-2)"><polyline points="-0.3929123805560456,9.275316013528344e-2
-0.3929123805560456,6.275316013528344e-2"/></g><g transform="rotate(-90.0, -0.3929123805560456, -6.1024571955303086e-2)"><polyline points="-0.3929123805560456,-4.602457195530309e-2
-0.3929123805560456,-7.602457195530309e-2"/></g><g transform="rotate(-90.0, -0.3929123805560456, -0.1998023040458895)"><polyline points="-0.3929123805560456,-0.1848023040458895
-0.3929123805560456,-0.2148023040458895"/></g><g transform="rotate(-90.0, -0.3929123805560456, -0.3385800361364759)"><polyline points="-0.3929123805560456,-0.3235800361364759
-0.3929123805560456,-0.35358003613647593"/></g><g transform="rotate(-90.0, -0.3929123805560456, -0.47735776822706255)"><polyline points="-0.3929123805560456,-0.46235776822706254
-0.3929123805560456,-0.49235776822706256"/></g></g></g><g class="ticktext"><g fill="#0d0d0d" stroke="none" stroke-width="0.0" font-size="4.249508708093429e-2" fill-opacity="1.0" text-anchor="end"><text x="-0.4235088432543183" y="0.3671688409594236">-1.5</text><text x="-0.4235088432543183" y="0.22839110886883712">-1</text><text x="-0.4235088432543183" y="8.961337677825071e-2">-0.5</text><text x="-0.4235088432543183" y="-4.916435531233576e-2">0</text><text x="-0.4235088432543183" y="-0.18794208740292218">0.5</text><text x="-0.4235088432543183" y="-0.3267198194935087">1</text><text x="-0.4235088432543183" y="-0.4654975515840952">1.5</text></g></g><g class="ticklines"><g stroke-opacity="5.0e-2" fill="none" stroke="#0d0d0d" stroke-width="5.0e-3"><polyline points="-0.367415328307485,0.3553086243164563
0.49098543072738743,0.3553086243164563"/><polyline points="-0.367415328307485,0.21653089222586985
0.49098543072738743,0.21653089222586985"/><polyline points="-0.367415328307485,7.775316013528344e-2
0.49098543072738743,7.775316013528344e-2"/><polyline points="-0.367415328307485,-6.1024571955303086e-2
0.49098543072738743,-6.1024571955303086e-2"/><polyline points="-0.367415328307485,-0.1998023040458895
0.49098543072738743,-0.1998023040458895"/><polyline points="-0.367415328307485,-0.3385800361364759
0.49098543072738743,-0.3385800361364759"/><polyline points="-0.367415328307485,-0.47735776822706255
0.49098543072738743,-0.47735776822706255"/></g></g></g><g class="axisbar"><g stroke-opacity="0.0" fill="#0d0d0d" stroke="#000000" stroke-width="0.0" fill-opacity="0.4"><rect width="3.399606966474733e-3" x="-0.3793139526901466" y="-0.4790828906478576" height="0.8361166373851091"/></g></g></g><g class="axis"><g class="ticks"><g class="tickglyph"><g stroke-opacity="0.4" fill="#0d0d0d" stroke="#0d0d0d" stroke-width="4.0e-3" fill-opacity="0.4"><polyline points="-0.367415328307485,0.3961854606283849
-0.367415328307485,0.36618546062838486"/><polyline points="-0.22434853513500624,0.3961854606283849
-0.22434853513500624,0.36618546062838486"/><polyline points="-8.128174196252747e-2,0.3961854606283849
-8.128174196252747e-2,0.36618546062838486"/><polyline points="6.178505120995126e-2,0.3961854606283849
6.178505120995126e-2,0.36618546062838486"/><polyline points="0.2048518443824301,0.3961854606283849
0.2048518443824301,0.36618546062838486"/><polyline points="0.3479186375549087,0.3961854606283849
0.3479186375549087,0.36618546062838486"/><polyline points="0.49098543072738743,0.3961854606283849
0.49098543072738743,0.36618546062838486"/></g></g><g class="ticktext"><g fill="#0d0d0d" stroke="none" stroke-width="0.0" font-size="4.249508708093429e-2" fill-opacity="1.0" text-anchor="end"><text x="-0.367415328307485" y="0.4359580974886336" transform="rotate(-45.0, -0.367415328307485, 0.4359580974886336)">-1.5</text><text x="-0.22434853513500624" y="0.4359580974886336" transform="rotate(-45.0, -0.22434853513500624, 0.4359580974886336)">-1</text><text x="-8.128174196252747e-2" y="0.4359580974886336" transform="rotate(-45.0, -8.128174196252747e-2, 0.4359580974886336)">-0.5</text><text x="6.178505120995126e-2" y="0.4359580974886336" transform="rotate(-45.0, 6.178505120995126e-2, 0.4359580974886336)">0</text><text x="0.2048518443824301" y="0.4359580974886336" transform="rotate(-45.0, 0.2048518443824301, 0.4359580974886336)">0.5</text><text x="0.3479186375549087" y="0.4359580974886336" transform="rotate(-45.0, 0.3479186375549087, 0.4359580974886336)">1</text><text x="0.49098543072738743" y="0.4359580974886336" transform="rotate(-45.0, 0.49098543072738743, 0.4359580974886336)">1.5</text></g></g><g class="ticklines"><g stroke-opacity="5.0e-2" fill="none" stroke="#0d0d0d" stroke-width="5.0e-3"><polyline points="-0.367415328307485,0.3553086243164563
-0.367415328307485,-0.47735776822706255"/><polyline points="-0.22434853513500624,0.3553086243164563
-0.22434853513500624,-0.47735776822706255"/><polyline points="-8.128174196252747e-2,0.3553086243164563
-8.128174196252747e-2,-0.47735776822706255"/><polyline points="6.178505120995126e-2,0.3553086243164563
6.178505120995126e-2,-0.47735776822706255"/><polyline points="0.2048518443824301,0.3553086243164563
0.2048518443824301,-0.47735776822706255"/><polyline points="0.3479186375549087,0.3553086243164563
0.3479186375549087,-0.47735776822706255"/><polyline points="0.49098543072738743,0.3553086243164563
0.49098543072738743,-0.47735776822706255"/></g></g></g><g class="axisbar"><g stroke-opacity="0.0" fill="#0d0d0d" stroke="#000000" stroke-width="0.0" fill-opacity="0.4"><rect width="0.8618003660013475" x="-0.3691151317907224" y="0.36393423642043254" height="3.4502448415903997e-3"/></g></g></g></g></g></svg>