<svg xmlns="http://www.w3.org/2000/svg" xmlns:xlink="http://www.w3.org/1999/xlink" width="300" height="300" viewBox="-0.5 -0.5 1.0 1.0"><style>svg {
  color-scheme: light dark;
}
{
  .canvas g, .title g, .axisbar g, .ticktext g, .tickglyph g, .ticklines g, .legendContent g text {
    fill: rgb(5%, 5%, 5%);
  }
  .ticklines g, .tickglyph g, .legendBorder g {
    stroke: rgb(5%, 5%, 5%);
  }
  .legendBorder g {
    fill: rgb(94%, 94%, 94%);
  }
}
@media (prefers-color-scheme:dark) {
  .canvas g, .title g, .axisbar g, .ticktext g, .tickglyph g, .ticklines g, .legendContent g text {
    fill: rgb(94%, 94%, 94%);
  }
  .ticklines g, .tickglyph g, .legendBorder g {
    stroke: rgb(94%, 94%, 94%);
  }
  .legendBorder g {
    fill: rgb(5%, 5%, 5%);
  }
}</style><g class="chart"><g class="venn"><g stroke-width="0.0050" stroke="rgb(2%, 29%, 48%)" stroke-opacity="1.0" fill="rgb(2%, 73%, 80%)" fill-opacity="0.2"><path d="M 0.0592,-0.3781 A 0.1334 0.1306 0 1 1 0.3261,0.0742 A 0.2669 0.2611 0 0 0 0.1926,-0.1520 A 0.2669 0.2611 0 0 0 0.0592,-0.3781 L 0.0592,-0.3781"/></g><g stroke-width="0.0050" stroke="rgb(2%, 29%, 48%)" stroke-opacity="1.0" fill="rgb(2%, 29%, 48%)" fill-opacity="0.2"><path d="M -0.2077,0.0742 A 0.1334 0.1306 0 1 0 0.3261,0.0742 A 0.2669 0.2611 0 0 1 0.0592,0.0742 A 0.2669 0.2611 0 0 1 -0.2077,0.0742 L -0.2077,0.0742"/></g><g stroke-width="0.0050" stroke="rgb(2%, 29%, 48%)" stroke-opacity="1.0" fill="rgb(66%, 7%, 55%)" fill-opacity="0.2"><path d="M -0.2077,0.0742 A 0.1334 0.1306 0 1 1 0.0592,-0.3781 A 0.2669 0.2611 0 0 0 -0.0742,-0.1520 A 0.2669 0.2611 0 0 0 -0.2077,0.0742 L -0.2077,0.0742"/></g><g stroke-width="0.0050" stroke="rgb(2%, 29%, 48%)" stroke-opacity="1.0" fill="rgb(96%, 60%, 92%)" fill-opacity="0.2"><path d="M 0.1926,-0.1520 A 0.2669 0.2611 0 0 1 0.3261,0.0742 A 0.2669 0.2611 0 0 1 0.0592,0.0742 A 0.2669 0.2611 0 0 0 0.1926,-0.1520 L 0.1926,-0.1520"/></g><g stroke-width="0.0050" stroke="rgb(2%, 29%, 48%)" stroke-opacity="1.0" fill="rgb(100%, 71%, 35%)" fill-opacity="0.2"><path d="M 0.0592,0.0742 A 0.2669 0.2611 0 0 1 -0.2077,0.0742 A 0.2669 0.2611 0 0 1 -0.0742,-0.1520 A 0.2669 0.2611 0 0 0 0.0592,0.0742 L 0.0592,0.0742"/></g><g stroke-width="0.0050" stroke="rgb(2%, 29%, 48%)" stroke-opacity="1.0" fill="rgb(73%, 34%, 1%)" fill-opacity="0.2"><path d="M 0.0592,-0.3781 A 0.2669 0.2611 0 0 1 0.1926,-0.1520 A 0.2669 0.2611 0 0 0 -0.0742,-0.1520 A 0.2669 0.2611 0 0 1 0.0592,-0.3781 L 0.0592,-0.3781"/></g><g stroke-width="0.0050" stroke="rgb(2%, 29%, 48%)" stroke-opacity="1.0" fill="rgb(21%, 29%, 7%)" fill-opacity="0.2"><path d="M 0.1926,-0.1520 A 0.2669 0.2611 0 0 1 0.0592,0.0742 A 0.2669 0.2611 0 0 1 -0.0742,-0.1520 A 0.2669 0.2611 0 0 1 0.1926,-0.1520 L 0.1926,-0.1520"/></g></g></g><g class="hud"><g class="frame"><g stroke-width="0" stroke="rgb(0%, 0%, 0%)" stroke-opacity="0" fill="rgb(100%, 100%, 100%)" fill-opacity="0.02"><rect width="0.8046" height="0.7854" x="-0.3431" y="-0.4481"/></g></g><g class="axis"><g class="ticks"><g class="tickglyph"><g stroke-width="0.0040" stroke="rgb(5%, 5%, 5%)" stroke-opacity="0.4" fill="rgb(5%, 5%, 5%)" fill-opacity="0.4"><g transform="rotate(-90.0, -0.3671, 0.3353)"><polyline points="-0.3671,0.3503
-0.3671,0.3203"/></g><g transform="rotate(-90.0, -0.3671, 0.2047)"><polyline points="-0.3671,0.2197
-0.3671,0.1897"/></g><g transform="rotate(-90.0, -0.3671, 0.0742)"><polyline points="-0.3671,0.0892
-0.3671,0.0592"/></g><g transform="rotate(-90.0, -0.3671, -0.0564)"><polyline points="-0.3671,-0.0414
-0.3671,-0.0714"/></g><g transform="rotate(-90.0, -0.3671, -0.1870)"><polyline points="-0.3671,-0.1720
-0.3671,-0.2020"/></g><g transform="rotate(-90.0, -0.3671, -0.3175)"><polyline points="-0.3671,-0.3025
-0.3671,-0.3325"/></g><g transform="rotate(-90.0, -0.3671, -0.4481)"><polyline points="-0.3671,-0.4331
-0.3671,-0.4631"/></g></g></g><g class="ticktext"><g stroke-width="0.0" stroke="none" fill="rgb(5%, 5%, 5%)" fill-opacity="1.0" font-size="0.0400" text-anchor="end"><text x="-0.3959" y="0.3461">-2.0</text><text x="-0.3959" y="0.2155">-1.0</text><text x="-0.3959" y="0.0849">-0.5</text><text x="-0.3959" y="-0.0456"> 0.0</text><text x="-0.3959" y="-0.1762"> 0.5</text><text x="-0.3959" y="-0.3068"> 1.0</text><text x="-0.3959" y="-0.4373"> 2.0</text></g></g><g class="ticklines"><g stroke-width="0.0050" stroke="rgb(5%, 5%, 5%)" stroke-opacity="0.05" fill="none"><polyline points="-0.3411,0.3353 0.4595,0.3353"/><polyline points="-0.3411,0.2047 0.4595,0.2047"/><polyline points="-0.3411,0.0742 0.4595,0.0742"/><polyline points="-0.3411,-0.0564 0.4595,-0.0564"/><polyline points="-0.3411,-0.1870 0.4595,-0.1870"/><polyline points="-0.3411,-0.3175 0.4595,-0.3175"/><polyline points="-0.3411,-0.4481 0.4595,-0.4481"/></g></g></g><g class="axisbar"><g stroke-width="0" stroke="rgb(0%, 0%, 0%)" stroke-opacity="0" fill="rgb(5%, 5%, 5%)" fill-opacity="0.4"><rect width="0.0032" height="0.7865" x="-0.3543" y="-0.4497"/></g></g></g><g class="axis"><g class="ticks"><g class="tickglyph"><g stroke-width="0.0040" stroke="rgb(5%, 5%, 5%)" stroke-opacity="0.4" fill="rgb(5%, 5%, 5%)" fill-opacity="0.4"><polyline points="-0.3411,0.3758
-0.3411,0.3458"/><polyline points="-0.2077,0.3758
-0.2077,0.3458"/><polyline points="-0.0742,0.3758
-0.0742,0.3458"/><polyline points="0.0592,0.3758
0.0592,0.3458"/><polyline points="0.1926,0.3758
0.1926,0.3458"/><polyline points="0.3261,0.3758
0.3261,0.3458"/><polyline points="0.4595,0.3758
0.4595,0.3458"/></g></g><g class="ticktext"><g stroke-width="0.0" stroke="none" fill="rgb(5%, 5%, 5%)" fill-opacity="1.0" font-size="0.0400" text-anchor="end"><text x="-0.3411" y="0.4105" transform="rotate(-45.0, -0.3411, 0.4105)">-2.0</text><text x="-0.2077" y="0.4105" transform="rotate(-45.0, -0.2077, 0.4105)">-1.0</text><text x="-0.0742" y="0.4105" transform="rotate(-45.0, -0.0742, 0.4105)">-0.5</text><text x="0.0592" y="0.4105" transform="rotate(-45.0, 0.0592, 0.4105)"> 0.0</text><text x="0.1926" y="0.4105" transform="rotate(-45.0, 0.1926, 0.4105)"> 0.5</text><text x="0.3261" y="0.4105" transform="rotate(-45.0, 0.3261, 0.4105)"> 1.0</text><text x="0.4595" y="0.4105" transform="rotate(-45.0, 0.4595, 0.4105)"> 2.0</text></g></g><g class="ticklines"><g stroke-width="0.0050" stroke="rgb(5%, 5%, 5%)" stroke-opacity="0.05" fill="none"><polyline points="-0.3411,0.3353 -0.3411,-0.4481"/><polyline points="-0.2077,0.3353 -0.2077,-0.4481"/><polyline points="-0.0742,0.3353 -0.0742,-0.4481"/><polyline points="0.0592,0.3353 0.0592,-0.4481"/><polyline points="0.1926,0.3353 0.1926,-0.4481"/><polyline points="0.3261,0.3353 0.3261,-0.4481"/><polyline points="0.4595,0.3353 0.4595,-0.4481"/></g></g></g><g class="axisbar"><g stroke-width="0" stroke="rgb(0%, 0%, 0%)" stroke-opacity="0" fill="rgb(5%, 5%, 5%)" fill-opacity="0.4"><rect width="0.8038" height="0.0031" x="-0.3427" y="0.3451"/></g></g></g><g class="frame"><g stroke-width="0" stroke="rgb(0%, 0%, 0%)" stroke-opacity="0" fill="rgb(100%, 100%, 100%)" fill-opacity="0.02"><rect width="1.0" height="1.0" x="-0.5" y="-0.5"/></g></g></g></svg>