<svg xmlns="http://www.w3.org/2000/svg" xmlns:xlink="http://www.w3.org/1999/xlink" width="300" height="300" viewBox="-0.5 -0.5 1.0 1.0"><style>svg {
  color-scheme: light dark;
}
{
  .canvas g, .title g, .axisbar g, .ticktext g, .tickglyph g, .ticklines g, .legendContent g text {
    fill: rgb(5%, 5%, 5%);
  }
  .ticklines g, .tickglyph g, .legendBorder g {
    stroke: rgb(5%, 5%, 5%);
  }
  .legendBorder g {
    fill: rgb(94%, 94%, 94%);
  }
}
@media (prefers-color-scheme:dark) {
  .canvas g, .title g, .axisbar g, .ticktext g, .tickglyph g, .ticklines g, .legendContent g text {
    fill: rgb(94%, 94%, 94%);
  }
  .ticklines g, .tickglyph g, .legendBorder g {
    stroke: rgb(94%, 94%, 94%);
  }
  .legendBorder g {
    fill: rgb(5%, 5%, 5%);
  }
}</style><g class="chart"><g class="venn"><g stroke-width="0.0050" stroke="rgb(2%, 29%, 48%)" stroke-opacity="1.0" fill="rgb(2%, 73%, 80%)" fill-opacity="0.2"><path d="M 0.0593,-0.3781 A 0.1334 0.1305 0 1 1 0.3260,0.0741 A 0.2668 0.2611 0 0 0 0.1927,-0.1520 A 0.2668 0.2611 0 0 0 0.0593,-0.3781 L 0.0593,-0.3781"/></g><g stroke-width="0.0050" stroke="rgb(2%, 29%, 48%)" stroke-opacity="1.0" fill="rgb(2%, 29%, 48%)" fill-opacity="0.2"><path d="M -0.2075,0.0741 A 0.1334 0.1305 0 1 0 0.3260,0.0741 A 0.2668 0.2611 0 0 1 0.0593,0.0741 A 0.2668 0.2611 0 0 1 -0.2075,0.0741 L -0.2075,0.0741"/></g><g stroke-width="0.0050" stroke="rgb(2%, 29%, 48%)" stroke-opacity="1.0" fill="rgb(66%, 7%, 55%)" fill-opacity="0.2"><path d="M -0.2075,0.0741 A 0.1334 0.1305 0 1 1 0.0593,-0.3781 A 0.2668 0.2611 0 0 0 -0.0741,-0.1520 A 0.2668 0.2611 0 0 0 -0.2075,0.0741 L -0.2075,0.0741"/></g><g stroke-width="0.0050" stroke="rgb(2%, 29%, 48%)" stroke-opacity="1.0" fill="rgb(96%, 60%, 92%)" fill-opacity="0.2"><path d="M 0.1927,-0.1520 A 0.2668 0.2611 0 0 1 0.3260,0.0741 A 0.2668 0.2611 0 0 1 0.0593,0.0741 A 0.2668 0.2611 0 0 0 0.1927,-0.1520 L 0.1927,-0.1520"/></g><g stroke-width="0.0050" stroke="rgb(2%, 29%, 48%)" stroke-opacity="1.0" fill="rgb(100%, 71%, 35%)" fill-opacity="0.2"><path d="M 0.0593,0.0741 A 0.2668 0.2611 0 0 1 -0.2075,0.0741 A 0.2668 0.2611 0 0 1 -0.0741,-0.1520 A 0.2668 0.2611 0 0 0 0.0593,0.0741 L 0.0593,0.0741"/></g><g stroke-width="0.0050" stroke="rgb(2%, 29%, 48%)" stroke-opacity="1.0" fill="rgb(73%, 34%, 1%)" fill-opacity="0.2"><path d="M 0.0593,-0.3781 A 0.2668 0.2611 0 0 1 0.1927,-0.1520 A 0.2668 0.2611 0 0 0 -0.0741,-0.1520 A 0.2668 0.2611 0 0 1 0.0593,-0.3781 L 0.0593,-0.3781"/></g><g stroke-width="0.0050" stroke="rgb(2%, 29%, 48%)" stroke-opacity="1.0" fill="rgb(21%, 29%, 7%)" fill-opacity="0.2"><path d="M 0.1927,-0.1520 A 0.2668 0.2611 0 0 1 0.0593,0.0741 A 0.2668 0.2611 0 0 1 -0.0741,-0.1520 A 0.2668 0.2611 0 0 1 0.1927,-0.1520 L 0.1927,-0.1520"/></g></g></g><g class="hud"><g class="frame"><g stroke-width="0" stroke="rgb(0%, 0%, 0%)" stroke-opacity="0" fill="rgb(100%, 100%, 100%)" fill-opacity="0.02"><rect width="0.8043" height="0.7852" x="-0.3429" y="-0.4481"/></g></g><g class="axis"><g class="ticks"><g class="tickglyph"><g stroke-width="0.0040" stroke="rgb(5%, 5%, 5%)" stroke-opacity="0.4" fill="rgb(5%, 5%, 5%)" fill-opacity="0.4"><g transform="rotate(-90.0, -0.3669, 0.3352)"><polyline points="-0.3669,0.3502
-0.3669,0.3202"/></g><g transform="rotate(-90.0, -0.3669, 0.2046)"><polyline points="-0.3669,0.2196
-0.3669,0.1896"/></g><g transform="rotate(-90.0, -0.3669, 0.0741)"><polyline points="-0.3669,0.0891
-0.3669,0.0591"/></g><g transform="rotate(-90.0, -0.3669, -0.0564)"><polyline points="-0.3669,-0.0414
-0.3669,-0.0714"/></g><g transform="rotate(-90.0, -0.3669, -0.1870)"><polyline points="-0.3669,-0.1720
-0.3669,-0.2020"/></g><g transform="rotate(-90.0, -0.3669, -0.3175)"><polyline points="-0.3669,-0.3025
-0.3669,-0.3325"/></g><g transform="rotate(-90.0, -0.3669, -0.4481)"><polyline points="-0.3669,-0.4331
-0.3669,-0.4631"/></g></g></g><g class="ticktext"><g stroke-width="0.0" stroke="none" fill="rgb(5%, 5%, 5%)" fill-opacity="1.0" font-size="0.0401" text-anchor="end"><text x="-0.3958" y="0.3460">-2.0</text><text x="-0.3958" y="0.2154">-1.0</text><text x="-0.3958" y="0.0849">-0.5</text><text x="-0.3958" y="-0.0457"> 0.0</text><text x="-0.3958" y="-0.1762"> 0.5</text><text x="-0.3958" y="-0.3067"> 1.0</text><text x="-0.3958" y="-0.4373"> 2.0</text></g></g><g class="ticklines"><g stroke-width="0.0050" stroke="rgb(5%, 5%, 5%)" stroke-opacity="0.05" fill="none"><polyline points="-0.3409,0.3352 0.4594,0.3352"/><polyline points="-0.3409,0.2046 0.4594,0.2046"/><polyline points="-0.3409,0.0741 0.4594,0.0741"/><polyline points="-0.3409,-0.0564 0.4594,-0.0564"/><polyline points="-0.3409,-0.1870 0.4594,-0.1870"/><polyline points="-0.3409,-0.3175 0.4594,-0.3175"/><polyline points="-0.3409,-0.4481 0.4594,-0.4481"/></g></g></g><g class="axisbar"><g stroke-width="0" stroke="rgb(0%, 0%, 0%)" stroke-opacity="0" fill="rgb(5%, 5%, 5%)" fill-opacity="0.4"><rect width="0.0032" height="0.7864" x="-0.3541" y="-0.4496"/></g></g></g><g class="axis"><g class="ticks"><g class="tickglyph"><g stroke-width="0.0040" stroke="rgb(5%, 5%, 5%)" stroke-opacity="0.4" fill="rgb(5%, 5%, 5%)" fill-opacity="0.4"><polyline points="-0.3409,0.3757
-0.3409,0.3457"/><polyline points="-0.2075,0.3757
-0.2075,0.3457"/><polyline points="-0.0741,0.3757
-0.0741,0.3457"/><polyline points="0.0593,0.3757
0.0593,0.3457"/><polyline points="0.1927,0.3757
0.1927,0.3457"/><polyline points="0.3260,0.3757
0.3260,0.3457"/><polyline points="0.4594,0.3757
0.4594,0.3457"/></g></g><g class="ticktext"><g stroke-width="0.0" stroke="none" fill="rgb(5%, 5%, 5%)" fill-opacity="1.0" font-size="0.0401" text-anchor="end"><text x="-0.3409" y="0.4104" transform="rotate(-45.0, -0.3409, 0.4104)">-2.0</text><text x="-0.2075" y="0.4104" transform="rotate(-45.0, -0.2075, 0.4104)">-1.0</text><text x="-0.0741" y="0.4104" transform="rotate(-45.0, -0.0741, 0.4104)">-0.5</text><text x="0.0593" y="0.4104" transform="rotate(-45.0, 0.0593, 0.4104)"> 0.0</text><text x="0.1927" y="0.4104" transform="rotate(-45.0, 0.1927, 0.4104)"> 0.5</text><text x="0.3260" y="0.4104" transform="rotate(-45.0, 0.3260, 0.4104)"> 1.0</text><text x="0.4594" y="0.4104" transform="rotate(-45.0, 0.4594, 0.4104)"> 2.0</text></g></g><g class="ticklines"><g stroke-width="0.0050" stroke="rgb(5%, 5%, 5%)" stroke-opacity="0.05" fill="none"><polyline points="-0.3409,0.3352 -0.3409,-0.4481"/><polyline points="-0.2075,0.3352 -0.2075,-0.4481"/><polyline points="-0.0741,0.3352 -0.0741,-0.4481"/><polyline points="0.0593,0.3352 0.0593,-0.4481"/><polyline points="0.1927,0.3352 0.1927,-0.4481"/><polyline points="0.3260,0.3352 0.3260,-0.4481"/><polyline points="0.4594,0.3352 0.4594,-0.4481"/></g></g></g><g class="axisbar"><g stroke-width="0" stroke="rgb(0%, 0%, 0%)" stroke-opacity="0" fill="rgb(5%, 5%, 5%)" fill-opacity="0.4"><rect width="0.8035" height="0.0031" x="-0.3425" y="0.3450"/></g></g></g><g class="frame"><g stroke-width="0" stroke="rgb(0%, 0%, 0%)" stroke-opacity="0" fill="rgb(100%, 100%, 100%)" fill-opacity="0.02"><rect width="1.0" height="1.0" x="-0.5" y="-0.5"/></g></g></g></svg>