<svg xmlns="http://www.w3.org/2000/svg" width="299.7237706451814" xmlns:xlink="http://www.w3.org/1999/xlink" viewBox="-0.47970539712523014 -0.49585980799242196 0.9786939859666549 0.9795959631696192" height="300.0"><style>svg {
  color-scheme: light dark;
}
{
  .canvas g, .title g, .axisbar g, .ticktext g, .tickglyph g, .ticklines g, .legendContent g text {
    fill: #0d0d0d;
  }
  .ticklines g, .tickglyph g, .legendBorder g {
    stroke: #0d0d0d;
  }
}
@media (prefers-color-scheme:dark) {
  .canvas g, .title g, .axisbar g, .ticktext g, .tickglyph g, .ticklines g, .legendContent g text {
    fill: #f0f0f0;
  }
  .ticklines g, .tickglyph g, .legendBorder g {
    stroke: #f0f0f0;
  }
}</style><g class="chart"><g class="venn"><g fill="rgb(69%, 35%, 16%)" stroke="rgb(65%, 81%, 89%)" stroke-width="1.0e-2" fill-opacity="0.2" stroke-opacity="1.0"><path d="M 0.0805,-0.4023 A 0.13660058833367436 0.13411992812338558 -0.0 1 1 0.3537,0.0623 A 0.2732011766673487 0.26823985624677116 -0.0 0 0 0.2171,-0.1700 A 0.2732011766673487 0.26823985624677116 -0.0 0 0 0.0805,-0.4023 L 0.0805,-0.4023"/></g><g fill="rgb(65%, 81%, 89%)" stroke="rgb(65%, 81%, 89%)" stroke-width="1.0e-2" fill-opacity="0.2" stroke-opacity="1.0"><path d="M -0.1927,0.0623 A 0.13660058833367436 0.13411992812338558 -0.0 1 0 0.3537,0.0623 A 0.2732011766673487 0.26823985624677116 -0.0 0 1 0.0805,0.0623 A 0.2732011766673487 0.26823985624677116 -0.0 0 1 -0.1927,0.0623 L -0.1927,0.0623"/></g><g fill="rgb(12%, 47%, 71%)" stroke="rgb(65%, 81%, 89%)" stroke-width="1.0e-2" fill-opacity="0.2" stroke-opacity="1.0"><path d="M -0.1927,0.0623 A 0.13660058833367436 0.13411992812338558 -0.0 1 1 0.0805,-0.4023 A 0.2732011766673487 0.26823985624677116 -0.0 0 0 -0.0561,-0.1700 A 0.2732011766673487 0.26823985624677116 -0.0 0 0 -0.1927,0.0623 L -0.1927,0.0623"/></g><g fill="rgb(89%, 10%, 11%)" stroke="rgb(65%, 81%, 89%)" stroke-width="1.0e-2" fill-opacity="0.2" stroke-opacity="1.0"><path d="M 0.2171,-0.1700 A 0.2732011766673487 0.26823985624677116 -0.0 0 1 0.3537,0.0623 A 0.2732011766673487 0.26823985624677116 -0.0 0 1 0.0805,0.0623 A 0.2732011766673487 0.26823985624677116 -0.0 0 0 0.2171,-0.1700 L 0.2171,-0.1700"/></g><g fill="rgb(70%, 87%, 54%)" stroke="rgb(65%, 81%, 89%)" stroke-width="1.0e-2" fill-opacity="0.2" stroke-opacity="1.0"><path d="M 0.0805,0.0623 A 0.2732011766673487 0.26823985624677116 -0.0 0 1 -0.1927,0.0623 A 0.2732011766673487 0.26823985624677116 -0.0 0 1 -0.0561,-0.1700 A 0.2732011766673487 0.26823985624677116 -0.0 0 0 0.0805,0.0623 L 0.0805,0.0623"/></g><g fill="rgb(20%, 63%, 17%)" stroke="rgb(65%, 81%, 89%)" stroke-width="1.0e-2" fill-opacity="0.2" stroke-opacity="1.0"><path d="M 0.0805,-0.4023 A 0.2732011766673487 0.26823985624677116 -0.0 0 1 0.2171,-0.1700 A 0.2732011766673487 0.26823985624677116 -0.0 0 0 -0.0561,-0.1700 A 0.2732011766673487 0.26823985624677116 -0.0 0 1 0.0805,-0.4023 L 0.0805,-0.4023"/></g><g fill="rgb(98%, 60%, 60%)" stroke="rgb(65%, 81%, 89%)" stroke-width="1.0e-2" fill-opacity="0.2" stroke-opacity="1.0"><path d="M 0.2171,-0.1700 A 0.2732011766673487 0.26823985624677116 -0.0 0 1 0.0805,0.0623 A 0.2732011766673487 0.26823985624677116 -0.0 0 1 -0.0561,-0.1700 A 0.2732011766673487 0.26823985624677116 -0.0 0 1 0.2171,-0.1700 L 0.2171,-0.1700"/></g></g></g><g class="hud"><g class="frame"><g fill="rgb(100%, 100%, 100%)" stroke="rgb(0%, 0%, 0%)" stroke-width="0.0" fill-opacity="2.0e-2" stroke-opacity="0.0"><rect x="-0.33340616701986486" width="0.8277995653020667" y="-0.4741405608625193" height="0.8087431665840152"/></g></g><g class="axis"><g class="ticks"><g class="tickglyph"><g fill="rgb(5%, 5%, 5%)" stroke="rgb(5%, 5%, 5%)" stroke-width="4.0e-3" fill-opacity="0.4" stroke-opacity="0.4"><g transform="rotate(-90.0, -0.35799427291992625, 0.33057900787779426)"><polyline points="-0.35799427291992625,0.3455790078777943
-0.35799427291992625,0.31557900787779425"/></g><g transform="rotate(-90.0, -0.35799427291992625, 0.19645907975440868)"><polyline points="-0.35799427291992625,0.2114590797544087
-0.35799427291992625,0.18145907975440867"/></g><g transform="rotate(-90.0, -0.35799427291992625, 6.233915163102305e-2)"><polyline points="-0.35799427291992625,7.733915163102305e-2
-0.35799427291992625,4.733915163102305e-2"/></g><g transform="rotate(-90.0, -0.35799427291992625, -7.178077649236253e-2)"><polyline points="-0.35799427291992625,-5.678077649236253e-2
-0.35799427291992625,-8.678077649236253e-2"/></g><g transform="rotate(-90.0, -0.35799427291992625, -0.20590070461574805)"><polyline points="-0.35799427291992625,-0.19090070461574804
-0.35799427291992625,-0.22090070461574807"/></g><g transform="rotate(-90.0, -0.35799427291992625, -0.34002063273913363)"><polyline points="-0.35799427291992625,-0.3250206327391336
-0.35799427291992625,-0.35502063273913365"/></g><g transform="rotate(-90.0, -0.35799427291992625, -0.4741405608625193)"><polyline points="-0.35799427291992625,-0.4591405608625193
-0.35799427291992625,-0.48914056086251934"/></g></g></g><g class="ticktext"><g fill="rgb(5%, 5%, 5%)" stroke="none" stroke-width="0.0" font-size="4.098017650010231e-2" fill-opacity="1.0" text-anchor="end"><text x="-0.38749999999999996" y="0.3416439019479736">-1.5</text><text x="-0.38749999999999996" y="0.20752397382458798">-1.0</text><text x="-0.38749999999999996" y="7.34040457012024e-2">-0.50</text><text x="-0.38749999999999996" y="-6.071588242218323e-2">0.0</text><text x="-0.38749999999999996" y="-0.19483581054556876">0.50</text><text x="-0.38749999999999996" y="-0.32895573866895444">1.0</text><text x="-0.38749999999999996" y="-0.46307566679234013">1.5</text></g></g><g class="ticklines"><g fill="none" stroke="rgb(5%, 5%, 5%)" stroke-width="5.0e-3" stroke-opacity="5.0e-2"><polyline points="-0.32930814936985464,0.33057900787779426
0.4902953806321916,0.33057900787779426"/><polyline points="-0.32930814936985464,0.19645907975440868
0.4902953806321916,0.19645907975440868"/><polyline points="-0.32930814936985464,6.233915163102305e-2
0.4902953806321916,6.233915163102305e-2"/><polyline points="-0.32930814936985464,-7.178077649236253e-2
0.4902953806321916,-7.178077649236253e-2"/><polyline points="-0.32930814936985464,-0.20590070461574805
0.4902953806321916,-0.20590070461574805"/><polyline points="-0.32930814936985464,-0.34002063273913363
0.4902953806321916,-0.34002063273913363"/><polyline points="-0.32930814936985464,-0.4741405608625193
0.4902953806321916,-0.4741405608625193"/></g></g></g><g class="axisbar"><g fill="rgb(5%, 5%, 5%)" stroke="rgb(0%, 0%, 0%)" stroke-width="0.0" fill-opacity="0.4" stroke-opacity="0.0"><rect x="-0.34488061643989354" width="3.2784141200081773e-3" y="-0.47575" height="0.8079384470152748"/></g></g></g><g class="axis"><g class="ticks"><g class="tickglyph"><g fill="rgb(5%, 5%, 5%)" stroke="rgb(5%, 5%, 5%)" stroke-width="4.0e-3" fill-opacity="0.4" stroke-opacity="0.4"><polyline points="-0.32930814936985464,0.3737441927837053
-0.32930814936985464,0.34374419278370527"/><polyline points="-0.19270756103618028,0.3737441927837053
-0.19270756103618028,0.34374419278370527"/><polyline points="-5.610697270250592e-2,0.3737441927837053
-5.610697270250592e-2,0.34374419278370527"/><polyline points="8.049361563116847e-2,0.3737441927837053
8.049361563116847e-2,0.34374419278370527"/><polyline points="0.2170942039648428,0.3737441927837053
0.2170942039648428,0.34374419278370527"/><polyline points="0.3536947922985172,0.3737441927837053
0.3536947922985172,0.34374419278370527"/><polyline points="0.4902953806321916,0.3737441927837053
0.4902953806321916,0.34374419278370527"/></g></g><g class="ticktext"><g fill="rgb(5%, 5%, 5%)" stroke="none" stroke-width="0.0" font-size="4.098017650010231e-2" fill-opacity="1.0" text-anchor="end"><text x="-0.32930814936985464" y="0.4098438853987152" transform="rotate(-45.0, -0.32930814936985464, 0.4098438853987152)">-1.5</text><text x="-0.19270756103618028" y="0.4098438853987152" transform="rotate(-45.0, -0.19270756103618028, 0.4098438853987152)">-1.0</text><text x="-5.610697270250592e-2" y="0.4098438853987152" transform="rotate(-45.0, -5.610697270250592e-2, 0.4098438853987152)">-0.50</text><text x="8.049361563116847e-2" y="0.4098438853987152" transform="rotate(-45.0, 8.049361563116847e-2, 0.4098438853987152)">0.0</text><text x="0.2170942039648428" y="0.4098438853987152" transform="rotate(-45.0, 0.2170942039648428, 0.4098438853987152)">0.50</text><text x="0.3536947922985172" y="0.4098438853987152" transform="rotate(-45.0, 0.3536947922985172, 0.4098438853987152)">1.0</text><text x="0.4902953806321916" y="0.4098438853987152" transform="rotate(-45.0, 0.4902953806321916, 0.4098438853987152)">1.5</text></g></g><g class="ticklines"><g fill="none" stroke="rgb(5%, 5%, 5%)" stroke-width="5.0e-3" stroke-opacity="5.0e-2"><polyline points="-0.32930814936985464,0.33057900787779426
-0.32930814936985464,-0.4741405608625193"/><polyline points="-0.19270756103618028,0.33057900787779426
-0.19270756103618028,-0.4741405608625193"/><polyline points="-5.610697270250592e-2,0.33057900787779426
-5.610697270250592e-2,-0.4741405608625193"/><polyline points="8.049361563116847e-2,0.33057900787779426
8.049361563116847e-2,-0.4741405608625193"/><polyline points="0.2170942039648428,0.33057900787779426
0.2170942039648428,-0.4741405608625193"/><polyline points="0.3536947922985172,0.33057900787779426
0.3536947922985172,-0.4741405608625193"/><polyline points="0.4902953806321916,0.33057900787779426
0.4902953806321916,-0.4741405608625193"/></g></g></g><g class="axisbar"><g fill="rgb(5%, 5%, 5%)" stroke="rgb(0%, 0%, 0%)" stroke-width="0.0" fill-opacity="0.4" stroke-opacity="0.0"><rect x="-0.33094735642985873" width="0.8228819441220543" y="0.342649801408899" height="3.2188782749612566e-3"/></g></g></g></g></svg>