<svg xmlns="http://www.w3.org/2000/svg" xmlns:xlink="http://www.w3.org/1999/xlink" width="300" height="300" viewBox="-0.5 -0.5 1.0 1.0"><style>svg {
  color-scheme: light dark;
}
{
  .canvas g, .title g, .axisbar g, .ticktext g, .tickglyph g, .ticklines g, .legendContent g text {
    fill: rgb(5%, 5%, 5%);
  }
  .ticklines g, .tickglyph g, .legendBorder g {
    stroke: rgb(5%, 5%, 5%);
  }
  .legendBorder g {
    fill: rgb(94%, 94%, 94%);
  }
}
@media (prefers-color-scheme:dark) {
  .canvas g, .title g, .axisbar g, .ticktext g, .tickglyph g, .ticklines g, .legendContent g text {
    fill: rgb(94%, 94%, 94%);
  }
  .ticklines g, .tickglyph g, .legendBorder g {
    stroke: rgb(94%, 94%, 94%);
  }
  .legendBorder g {
    fill: rgb(5%, 5%, 5%);
  }
}
svg { font-family: system-ui,-apple-system,"Segoe UI",Roboto,"Helvetica Neue",Arial,"Noto Sans","Liberation Sans",sans-serif,"Apple Color Emoji","Segoe UI Emoji","Segoe UI Symbol","Noto Color Emoji";
}

ticktext { font-family: SFMono-Regular,Menlo,Monaco,Consolas,"Liberation Mono","Courier New",monospace;
}

</style><g class="chart"><g class="venn"><g stroke-width="0.0050" stroke="rgb(2%, 29%, 48%)" stroke-opacity="1.0" fill="rgb(2%, 73%, 80%)" fill-opacity="0.2"><path d="M 0.0551,-0.3827 A 0.1321 0.1301 0 1 1 0.3193,0.0679 A 0.2642 0.2601 0 0 0 0.1872,-0.1574 A 0.2642 0.2601 0 0 0 0.0551,-0.3827 L 0.0551,-0.3827"/></g><g stroke-width="0.0050" stroke="rgb(2%, 29%, 48%)" stroke-opacity="1.0" fill="rgb(2%, 29%, 48%)" fill-opacity="0.2"><path d="M -0.2091,0.0679 A 0.1321 0.1301 0 1 0 0.3193,0.0679 A 0.2642 0.2601 0 0 1 0.0551,0.0679 A 0.2642 0.2601 0 0 1 -0.2091,0.0679 L -0.2091,0.0679"/></g><g stroke-width="0.0050" stroke="rgb(2%, 29%, 48%)" stroke-opacity="1.0" fill="rgb(66%, 7%, 55%)" fill-opacity="0.2"><path d="M -0.2091,0.0679 A 0.1321 0.1301 0 1 1 0.0551,-0.3827 A 0.2642 0.2601 0 0 0 -0.0770,-0.1574 A 0.2642 0.2601 0 0 0 -0.2091,0.0679 L -0.2091,0.0679"/></g><g stroke-width="0.0050" stroke="rgb(2%, 29%, 48%)" stroke-opacity="1.0" fill="rgb(96%, 60%, 92%)" fill-opacity="0.2"><path d="M 0.1872,-0.1574 A 0.2642 0.2601 0 0 1 0.3193,0.0679 A 0.2642 0.2601 0 0 1 0.0551,0.0679 A 0.2642 0.2601 0 0 0 0.1872,-0.1574 L 0.1872,-0.1574"/></g><g stroke-width="0.0050" stroke="rgb(2%, 29%, 48%)" stroke-opacity="1.0" fill="rgb(100%, 71%, 35%)" fill-opacity="0.2"><path d="M 0.0551,0.0679 A 0.2642 0.2601 0 0 1 -0.2091,0.0679 A 0.2642 0.2601 0 0 1 -0.0770,-0.1574 A 0.2642 0.2601 0 0 0 0.0551,0.0679 L 0.0551,0.0679"/></g><g stroke-width="0.0050" stroke="rgb(2%, 29%, 48%)" stroke-opacity="1.0" fill="rgb(73%, 34%, 1%)" fill-opacity="0.2"><path d="M 0.0551,-0.3827 A 0.2642 0.2601 0 0 1 0.1872,-0.1574 A 0.2642 0.2601 0 0 0 -0.0770,-0.1574 A 0.2642 0.2601 0 0 1 0.0551,-0.3827 L 0.0551,-0.3827"/></g><g stroke-width="0.0050" stroke="rgb(2%, 29%, 48%)" stroke-opacity="1.0" fill="rgb(21%, 29%, 7%)" fill-opacity="0.2"><path d="M 0.1872,-0.1574 A 0.2642 0.2601 0 0 1 0.0551,0.0679 A 0.2642 0.2601 0 0 1 -0.0770,-0.1574 A 0.2642 0.2601 0 0 1 0.1872,-0.1574 L 0.1872,-0.1574"/></g></g><g class="datapadding"></g></g><g class="hud"><g class="frame"><g stroke-width="0" stroke="rgb(0%, 0%, 0%)" stroke-opacity="0" fill="rgb(100%, 100%, 100%)" fill-opacity="0.02"><rect width="0.7965" height="0.7823" x="-0.3432" y="-0.4524"/></g></g><g class="axis"><g class="axisbar"><g stroke-width="0" stroke="rgb(0%, 0%, 0%)" stroke-opacity="0" fill="rgb(5%, 5%, 5%)" fill-opacity="0.4"><rect width="0.0032" height="0.7835" x="-0.3523" y="-0.4539"/></g></g><g class="ticks"><g class="ticklines"><g stroke-width="0.0050" stroke="rgb(5%, 5%, 5%)" stroke-opacity="0.05" fill="none"><polyline points="-0.3412,0.3280 0.4513,0.3280"/><polyline points="-0.3412,0.1980 0.4513,0.1980"/><polyline points="-0.3412,0.0679 0.4513,0.0679"/><polyline points="-0.3412,-0.0622 0.4513,-0.0622"/><polyline points="-0.3412,-0.1922 0.4513,-0.1922"/><polyline points="-0.3412,-0.3223 0.4513,-0.3223"/><polyline points="-0.3412,-0.4524 0.4513,-0.4524"/></g></g><g class="tickglyph"><g stroke-width="0.0032" stroke="rgb(5%, 5%, 5%)" stroke-opacity="0.4" fill="rgb(5%, 5%, 5%)" fill-opacity="0.4"><polyline points="-0.3746,0.3280
-0.3507,0.3280"/><polyline points="-0.3746,0.1980
-0.3507,0.1980"/><polyline points="-0.3746,0.0679
-0.3507,0.0679"/><polyline points="-0.3746,-0.0622
-0.3507,-0.0622"/><polyline points="-0.3746,-0.1922
-0.3507,-0.1922"/><polyline points="-0.3746,-0.3223
-0.3507,-0.3223"/><polyline points="-0.3746,-0.4524
-0.3507,-0.4524"/></g></g><g class="ticktext"><g stroke-width="0.0" stroke="none" fill="rgb(5%, 5%, 5%)" fill-opacity="1.0" font-size="0.0400" text-anchor="end"><text x="-0.3920" y="0.3366">-2.0</text><text x="-0.3920" y="0.2066">-1.0</text><text x="-0.3920" y="0.0765">-0.5</text><text x="-0.3920" y="-0.0536"> 0.0</text><text x="-0.3920" y="-0.1836"> 0.5</text><text x="-0.3920" y="-0.3137"> 1.0</text><text x="-0.3920" y="-0.4438"> 2.0</text></g></g></g></g><g class="axis"><g class="axisbar"><g stroke-width="0" stroke="rgb(0%, 0%, 0%)" stroke-opacity="0" fill="rgb(5%, 5%, 5%)" fill-opacity="0.4"><rect width="0.7957" height="0.0031" x="-0.3428" y="0.3358"/></g></g><g class="ticks"><g class="ticklines"><g stroke-width="0.0050" stroke="rgb(5%, 5%, 5%)" stroke-opacity="0.05" fill="none"><polyline points="-0.3412,0.3280 -0.3412,-0.4524"/><polyline points="-0.2091,0.3280 -0.2091,-0.4524"/><polyline points="-0.0770,0.3280 -0.0770,-0.4524"/><polyline points="0.0551,0.3280 0.0551,-0.4524"/><polyline points="0.1872,0.3280 0.1872,-0.4524"/><polyline points="0.3193,0.3280 0.3193,-0.4524"/><polyline points="0.4513,0.3280 0.4513,-0.4524"/></g></g><g class="tickglyph"><g stroke-width="0.0031" stroke="rgb(5%, 5%, 5%)" stroke-opacity="0.4" fill="rgb(5%, 5%, 5%)" fill-opacity="0.4"><polyline points="-0.3412,0.3608
-0.3412,0.3374"/><polyline points="-0.2091,0.3608
-0.2091,0.3374"/><polyline points="-0.0770,0.3608
-0.0770,0.3374"/><polyline points="0.0551,0.3608
0.0551,0.3374"/><polyline points="0.1872,0.3608
0.1872,0.3374"/><polyline points="0.3193,0.3608
0.3193,0.3374"/><polyline points="0.4513,0.3608
0.4513,0.3374"/></g></g><g class="ticktext"><g stroke-width="0.0" stroke="none" fill="rgb(5%, 5%, 5%)" fill-opacity="1.0" font-size="0.0376" text-anchor="end"><text x="-0.3412" y="0.4023" transform="rotate(-45.0, -0.3412, 0.4023)">-2.0</text><text x="-0.2091" y="0.4023" transform="rotate(-45.0, -0.2091, 0.4023)">-1.0</text><text x="-0.0770" y="0.4023" transform="rotate(-45.0, -0.0770, 0.4023)">-0.5</text><text x="0.0551" y="0.4023" transform="rotate(-45.0, 0.0551, 0.4023)"> 0.0</text><text x="0.1872" y="0.4023" transform="rotate(-45.0, 0.1872, 0.4023)"> 0.5</text><text x="0.3193" y="0.4023" transform="rotate(-45.0, 0.3193, 0.4023)"> 1.0</text><text x="0.4513" y="0.4023" transform="rotate(-45.0, 0.4513, 0.4023)"> 2.0</text></g></g></g></g><g class="frame"><g stroke-width="0" stroke="rgb(0%, 0%, 0%)" stroke-opacity="0" fill="rgb(0%, 0%, 0%)" fill-opacity="0"><rect width="1.0" height="1.0" x="-0.5" y="-0.5"/></g></g></g></svg>