<svg width="294.57877027641524" xmlns:xlink="http://www.w3.org/1999/xlink" xmlns="http://www.w3.org/2000/svg" viewBox="-0.681 -0.5462499999999997 1.2166066017177983 1.2389962120245872" height="300.0"><style>svg {
  color-scheme: light dark;
}
{
  .canvas g, .title g, .axisbar g, .ticktext g, .tickglyph g, .ticklines g, .legendContent g text {
    fill: #0d0d0d;
  }
  .ticklines g, .tickglyph g, .legendBorder g {
    stroke: #0d0d0d;
  }
}
@media (prefers-color-scheme:dark) {
  .canvas g, .title g, .axisbar g, .ticktext g, .tickglyph g, .ticklines g, .legendContent g text {
    fill: #f0f0f0;
  }
  .ticklines g, .tickglyph g, .legendBorder g {
    stroke: #f0f0f0;
  }
}</style><g class="venn"><g stroke-opacity="1.0" fill="#b05929" stroke="#a6cfe3" stroke-width="1.0e-2" fill-opacity="0.2"><path d="M 0,-0.4107 A 0.16666666666666663 0.16666666666666663 -0.0 1 1 0.3333,0.1667 A 0.33333333333333326 0.33333333333333326 -0.0 0 0 0.1667,-0.1220 A 0.33333333333333326 0.33333333333333326 -0.0 0 0 0,-0.4107 L 0,-0.4107"/></g><g stroke-opacity="1.0" fill="#a6cfe3" stroke="#a6cfe3" stroke-width="1.0e-2" fill-opacity="0.2"><path d="M -0.3333,0.1667 A 0.16666666666666663 0.16666666666666663 -0.0 1 0 0.3333,0.1667 A 0.33333333333333326 0.33333333333333326 -0.0 0 1 0,0.1667 A 0.33333333333333326 0.33333333333333326 -0.0 0 1 -0.3333,0.1667 L -0.3333,0.1667"/></g><g stroke-opacity="1.0" fill="#1f78b5" stroke="#a6cfe3" stroke-width="1.0e-2" fill-opacity="0.2"><path d="M -0.3333,0.1667 A 0.16666666666666663 0.16666666666666663 -0.0 1 1 0,-0.4107 A 0.33333333333333326 0.33333333333333326 -0.0 0 0 -0.1667,-0.1220 A 0.33333333333333326 0.33333333333333326 -0.0 0 0 -0.3333,0.1667 L -0.3333,0.1667"/></g><g stroke-opacity="1.0" fill="#e31a1c" stroke="#a6cfe3" stroke-width="1.0e-2" fill-opacity="0.2"><path d="M 0.1667,-0.1220 A 0.33333333333333326 0.33333333333333326 -0.0 0 1 0.3333,0.1667 A 0.33333333333333326 0.33333333333333326 -0.0 0 1 0,0.1667 A 0.33333333333333326 0.33333333333333326 -0.0 0 0 0.1667,-0.1220 L 0.1667,-0.1220"/></g><g stroke-opacity="1.0" fill="#b2de8a" stroke="#a6cfe3" stroke-width="1.0e-2" fill-opacity="0.2"><path d="M 0,0.1667 A 0.33333333333333326 0.33333333333333326 -0.0 0 1 -0.3333,0.1667 A 0.33333333333333326 0.33333333333333326 -0.0 0 1 -0.1667,-0.1220 A 0.33333333333333326 0.33333333333333326 -0.0 0 0 0,0.1667 L 0,0.1667"/></g><g stroke-opacity="1.0" fill="#33a12b" stroke="#a6cfe3" stroke-width="1.0e-2" fill-opacity="0.2"><path d="M 0,-0.4107 A 0.33333333333333326 0.33333333333333326 -0.0 0 1 0.1667,-0.1220 A 0.33333333333333326 0.33333333333333326 -0.0 0 0 -0.1667,-0.1220 A 0.33333333333333326 0.33333333333333326 -0.0 0 1 0,-0.4107 L 0,-0.4107"/></g><g stroke-opacity="1.0" fill="#fa9999" stroke="#a6cfe3" stroke-width="1.0e-2" fill-opacity="0.2"><path d="M 0.1667,-0.1220 A 0.33333333333333326 0.33333333333333326 -0.0 0 1 0,0.1667 A 0.33333333333333326 0.33333333333333326 -0.0 0 1 -0.1667,-0.1220 A 0.33333333333333326 0.33333333333333326 -0.0 0 1 0.1667,-0.1220 L 0.1667,-0.1220"/></g></g><g class="hud"><g class="canvas"><g stroke-opacity="0.0" fill="#ffffff" stroke="#000000" stroke-width="0.0" fill-opacity="2.0e-2"><rect width="1.0099999999999998" x="-0.505" y="-0.5" height="1.005"/></g></g><g class="axis"><g class="ticks"><g class="tickglyph"><g stroke-opacity="0.4" fill="#0d0d0d" stroke="#0d0d0d" stroke-width="4.0e-3" fill-opacity="0.4"><g transform="rotate(-90.0, -0.535, 0.505)"><polyline points="-0.535,0.52
-0.535,0.49"/></g><g transform="rotate(-90.0, -0.535, 0.3375)"><polyline points="-0.535,0.35250000000000004
-0.535,0.3225"/></g><g transform="rotate(-90.0, -0.535, 0.17000000000000004)"><polyline points="-0.535,0.18500000000000005
-0.535,0.15500000000000003"/></g><g transform="rotate(-90.0, -0.535, 2.5000000000000577e-3)"><polyline points="-0.535,1.7500000000000057e-2
-0.535,-1.2499999999999942e-2"/></g><g transform="rotate(-90.0, -0.535, -0.16499999999999992)"><polyline points="-0.535,-0.1499999999999999
-0.535,-0.17999999999999994"/></g><g transform="rotate(-90.0, -0.535, -0.3324999999999998)"><polyline points="-0.535,-0.3174999999999998
-0.535,-0.3474999999999998"/></g><g transform="rotate(-90.0, -0.535, -0.49999999999999956)"><polyline points="-0.535,-0.48499999999999954
-0.535,-0.5149999999999996"/></g></g></g><g class="ticktext"><g fill="#0d0d0d" stroke="none" stroke-width="0.0" font-size="5.0e-2" fill-opacity="1.0" text-anchor="end"><text x="-0.5710000000000001" y="0.51875">-1.5</text><text x="-0.5710000000000001" y="0.35125000000000006">-1</text><text x="-0.5710000000000001" y="0.18375000000000014">-0.5</text><text x="-0.5710000000000001" y="1.625000000000021e-2">0</text><text x="-0.5710000000000001" y="-0.15124999999999988">0.5</text><text x="-0.5710000000000001" y="-0.31874999999999976">1</text><text x="-0.5710000000000001" y="-0.4862499999999996">1.5</text></g></g><g class="ticklines"><g stroke-opacity="5.0e-2" fill="none" stroke="#0d0d0d" stroke-width="5.0e-3"><polyline points="-0.505,0.505
0.5049999999999999,0.505"/><polyline points="-0.505,0.3375
0.5049999999999999,0.3375"/><polyline points="-0.505,0.17000000000000004
0.5049999999999999,0.17000000000000004"/><polyline points="-0.505,2.5000000000000577e-3
0.5049999999999999,2.5000000000000577e-3"/><polyline points="-0.505,-0.16499999999999992
0.5049999999999999,-0.16499999999999992"/><polyline points="-0.505,-0.3324999999999998
0.5049999999999999,-0.3324999999999998"/><polyline points="-0.505,-0.49999999999999956
0.5049999999999999,-0.49999999999999956"/></g></g></g><g class="axisbar"><g stroke-opacity="0.0" fill="#0d0d0d" stroke="#000000" stroke-width="0.0" fill-opacity="0.4"><rect width="4.0000000000000036e-3" x="-0.519" y="-0.502" height="1.009"/></g></g></g><g class="axis"><g class="ticks"><g class="tickglyph"><g stroke-opacity="0.4" fill="#0d0d0d" stroke="#0d0d0d" stroke-width="4.0e-3" fill-opacity="0.4"><polyline points="-0.505,0.55
-0.505,0.52"/><polyline points="-0.33666666666666667,0.55
-0.33666666666666667,0.52"/><polyline points="-0.16833333333333328,0.55
-0.16833333333333328,0.52"/><polyline points="0.0,0.55
0.0,0.52"/><polyline points="0.16833333333333345,0.55
0.16833333333333345,0.52"/><polyline points="0.33666666666666667,0.55
0.33666666666666667,0.52"/><polyline points="0.5049999999999999,0.55
0.5049999999999999,0.52"/></g></g><g class="ticktext"><g fill="#0d0d0d" stroke="none" stroke-width="0.0" font-size="5.0e-2" fill-opacity="1.0" text-anchor="end"><text x="-0.505" y="0.5985" transform="rotate(-45.0, -0.505, 0.5985)">-1.5</text><text x="-0.33666666666666667" y="0.5985" transform="rotate(-45.0, -0.33666666666666667, 0.5985)">-1</text><text x="-0.16833333333333328" y="0.5985" transform="rotate(-45.0, -0.16833333333333328, 0.5985)">-0.5</text><text x="0.0" y="0.5985" transform="rotate(-45.0, 0.0, 0.5985)">0</text><text x="0.16833333333333345" y="0.5985" transform="rotate(-45.0, 0.16833333333333345, 0.5985)">0.5</text><text x="0.33666666666666667" y="0.5985" transform="rotate(-45.0, 0.33666666666666667, 0.5985)">1</text><text x="0.5049999999999999" y="0.5985" transform="rotate(-45.0, 0.5049999999999999, 0.5985)">1.5</text></g></g><g class="ticklines"><g stroke-opacity="5.0e-2" fill="none" stroke="#0d0d0d" stroke-width="5.0e-3"><polyline points="-0.505,0.505
-0.505,-0.5"/><polyline points="-0.33666666666666667,0.505
-0.33666666666666667,-0.5"/><polyline points="-0.16833333333333328,0.505
-0.16833333333333328,-0.5"/><polyline points="0.0,0.505
0.0,-0.5"/><polyline points="0.16833333333333345,0.505
0.16833333333333345,-0.5"/><polyline points="0.33666666666666667,0.505
0.33666666666666667,-0.5"/><polyline points="0.5049999999999999,0.505
0.5049999999999999,-0.5"/></g></g></g><g class="axisbar"><g stroke-opacity="0.0" fill="#0d0d0d" stroke="#000000" stroke-width="0.0" fill-opacity="0.4"><rect width="1.0140000000000002" x="-0.507" y="0.515" height="4.0000000000000036e-3"/></g></g></g></g></svg>