<svg xmlns="http://www.w3.org/2000/svg" height="300.0" viewBox="-0.62 -0.5531904665414286 1.142575 1.155840553806861" width="300.0" xmlns:xlink="http://www.w3.org/1999/xlink"><g stroke-opacity="0.0" fill-opacity="2.5e-2" stroke="#000000" stroke-width="0.0" fill="#808080"><rect height="0.9006574799014877" width="0.9149383998015834" x="-0.4149383998015835" y="-0.5"/></g><g stroke-opacity="5.0e-2" stroke="#808080" stroke-width="5.0e-3" fill="none"><polyline points="-0.4149383998015835,0.40065747990148776
0.5,0.40065747990148776"/></g><g stroke-opacity="5.0e-2" stroke="#808080" stroke-width="5.0e-3" fill="none"><polyline points="-0.4149383998015835,0.2505478999179065
0.5,0.2505478999179065"/></g><g stroke-opacity="5.0e-2" stroke="#808080" stroke-width="5.0e-3" fill="none"><polyline points="-0.4149383998015835,0.10043831993432517
0.5,0.10043831993432517"/></g><g stroke-opacity="5.0e-2" stroke="#808080" stroke-width="5.0e-3" fill="none"><polyline points="-0.4149383998015835,-4.967126004925615e-2
0.5,-4.967126004925615e-2"/></g><g stroke-opacity="5.0e-2" stroke="#808080" stroke-width="5.0e-3" fill="none"><polyline points="-0.4149383998015835,-0.19978084003283736
0.5,-0.19978084003283736"/></g><g stroke-opacity="5.0e-2" stroke="#808080" stroke-width="5.0e-3" fill="none"><polyline points="-0.4149383998015835,-0.3498904200164187
0.5,-0.3498904200164187"/></g><g stroke-opacity="5.0e-2" stroke="#808080" stroke-width="5.0e-3" fill="none"><polyline points="-0.4149383998015835,-0.5
0.5,-0.5"/></g><g fill-opacity="1.0" font-size="5.0e-2" stroke="none" stroke-width="0.0" fill="#808080" text-anchor="end"><text x="-0.5" y="0.4137170133600593">-1.5</text></g><g fill-opacity="1.0" font-size="5.0e-2" stroke="none" stroke-width="0.0" fill="#808080" text-anchor="end"><text x="-0.5" y="0.2636074333764781">-1</text></g><g fill-opacity="1.0" font-size="5.0e-2" stroke="none" stroke-width="0.0" fill="#808080" text-anchor="end"><text x="-0.5" y="0.11349785339289675">-0.5</text></g><g fill-opacity="1.0" font-size="5.0e-2" stroke="none" stroke-width="0.0" fill="#808080" text-anchor="end"><text x="-0.5" y="-3.661172659068457e-2">0</text></g><g fill-opacity="1.0" font-size="5.0e-2" stroke="none" stroke-width="0.0" fill="#808080" text-anchor="end"><text x="-0.5" y="-0.18672130657426578">0.5</text></g><g fill-opacity="1.0" font-size="5.0e-2" stroke="none" stroke-width="0.0" fill="#808080" text-anchor="end"><text x="-0.5" y="-0.3368308865578471">1</text></g><g fill-opacity="1.0" font-size="5.0e-2" stroke="none" stroke-width="0.0" fill="#808080" text-anchor="end"><text x="-0.5" y="-0.48694046654142853">1.5</text></g><g stroke-opacity="1.0" fill-opacity="1.0" stroke="#808080" stroke-width="5.0e-3" fill="#808080"><g transform="rotate(-90.0, -0.47019588169857884, 0.40065747990148776)"><polyline points="-0.47019588169857884,0.41565747990148777
-0.47019588169857884,0.38565747990148774"/></g><g transform="rotate(-90.0, -0.47019588169857884, 0.2505478999179065)"><polyline points="-0.47019588169857884,0.2655478999179065
-0.47019588169857884,0.23554789991790648"/></g><g transform="rotate(-90.0, -0.47019588169857884, 0.10043831993432517)"><polyline points="-0.47019588169857884,0.11543831993432517
-0.47019588169857884,8.543831993432517e-2"/></g><g transform="rotate(-90.0, -0.47019588169857884, -4.967126004925615e-2)"><polyline points="-0.47019588169857884,-3.467126004925615e-2
-0.47019588169857884,-6.467126004925615e-2"/></g><g transform="rotate(-90.0, -0.47019588169857884, -0.19978084003283736)"><polyline points="-0.47019588169857884,-0.18478084003283735
-0.47019588169857884,-0.21478084003283737"/></g><g transform="rotate(-90.0, -0.47019588169857884, -0.3498904200164187)"><polyline points="-0.47019588169857884,-0.33489042001641867
-0.47019588169857884,-0.3648904200164187"/></g><g transform="rotate(-90.0, -0.47019588169857884, -0.5)"><polyline points="-0.47019588169857884,-0.485
-0.47019588169857884,-0.515"/></g></g><g stroke-opacity="1.0" fill-opacity="1.0" stroke="#808080" stroke-width="0.0" fill="#808080"><rect height="0.9006574799014877" width="4.57469198793875e-3" x="-0.45875915172873194" y="-0.5"/></g><g stroke-opacity="5.0e-2" stroke="#808080" stroke-width="5.0e-3" fill="none"><polyline points="-0.4149383998015835,0.40065747990148776
-0.4149383998015835,-0.5"/></g><g stroke-opacity="5.0e-2" stroke="#808080" stroke-width="5.0e-3" fill="none"><polyline points="-0.2624486665013196,0.40065747990148776
-0.2624486665013196,-0.5"/></g><g stroke-opacity="5.0e-2" stroke="#808080" stroke-width="5.0e-3" fill="none"><polyline points="-0.10995893320105571,0.40065747990148776
-0.10995893320105571,-0.5"/></g><g stroke-opacity="5.0e-2" stroke="#808080" stroke-width="5.0e-3" fill="none"><polyline points="4.253080009920818e-2,0.40065747990148776
4.253080009920818e-2,-0.5"/></g><g stroke-opacity="5.0e-2" stroke="#808080" stroke-width="5.0e-3" fill="none"><polyline points="0.19502053339947212,0.40065747990148776
0.19502053339947212,-0.5"/></g><g stroke-opacity="5.0e-2" stroke="#808080" stroke-width="5.0e-3" fill="none"><polyline points="0.34751026669973595,0.40065747990148776
0.34751026669973595,-0.5"/></g><g stroke-opacity="5.0e-2" stroke="#808080" stroke-width="5.0e-3" fill="none"><polyline points="0.5,0.40065747990148776
0.5,-0.5"/></g><g fill-opacity="1.0" font-size="4.179310354839919e-2" stroke="none" stroke-width="0.0" fill="#808080" text-anchor="end"><text transform="rotate(-45.0, -0.4149383998015835, 0.5)" x="-0.4149383998015835" y="0.5">-1.5</text></g><g fill-opacity="1.0" font-size="4.179310354839919e-2" stroke="none" stroke-width="0.0" fill="#808080" text-anchor="end"><text transform="rotate(-45.0, -0.2624486665013196, 0.5)" x="-0.2624486665013196" y="0.5">-1</text></g><g fill-opacity="1.0" font-size="4.179310354839919e-2" stroke="none" stroke-width="0.0" fill="#808080" text-anchor="end"><text transform="rotate(-45.0, -0.10995893320105571, 0.5)" x="-0.10995893320105571" y="0.5">-0.5</text></g><g fill-opacity="1.0" font-size="4.179310354839919e-2" stroke="none" stroke-width="0.0" fill="#808080" text-anchor="end"><text transform="rotate(-45.0, 4.253080009920818e-2, 0.5)" x="4.253080009920818e-2" y="0.5">0</text></g><g fill-opacity="1.0" font-size="4.179310354839919e-2" stroke="none" stroke-width="0.0" fill="#808080" text-anchor="end"><text transform="rotate(-45.0, 0.19502053339947212, 0.5)" x="0.19502053339947212" y="0.5">0.5</text></g><g fill-opacity="1.0" font-size="4.179310354839919e-2" stroke="none" stroke-width="0.0" fill="#808080" text-anchor="end"><text transform="rotate(-45.0, 0.34751026669973595, 0.5)" x="0.34751026669973595" y="0.5">1</text></g><g fill-opacity="1.0" font-size="4.179310354839919e-2" stroke="none" stroke-width="0.0" fill="#808080" text-anchor="end"><text transform="rotate(-45.0, 0.5, 0.5)" x="0.5" y="0.5">1.5</text></g><g stroke-opacity="1.0" fill-opacity="1.0" stroke="#808080" stroke-width="5.0e-3" fill="#808080"><polyline points="-0.4149383998015835,0.44492884799828614
-0.4149383998015835,0.4149288479982861"/><polyline points="-0.2624486665013196,0.44492884799828614
-0.2624486665013196,0.4149288479982861"/><polyline points="-0.10995893320105571,0.44492884799828614
-0.10995893320105571,0.4149288479982861"/><polyline points="4.253080009920818e-2,0.44492884799828614
4.253080009920818e-2,0.4149288479982861"/><polyline points="0.19502053339947212,0.44492884799828614
0.19502053339947212,0.4149288479982861"/><polyline points="0.34751026669973595,0.44492884799828614
0.34751026669973595,0.4149288479982861"/><polyline points="0.5,0.44492884799828614
0.5,0.4149288479982861"/></g><g stroke-opacity="1.0" fill-opacity="1.0" stroke="#808080" stroke-width="0.0" fill="#808080"><rect height="4.50328739950745e-3" width="0.9149383998015834" x="-0.4149383998015835" y="0.4141673421000101"/></g><g stroke-opacity="0.8" fill-opacity="0.2" stroke="#1f78b4" stroke-width="1.0e-2" fill="#a6cee3"><path d="M 4.253080120612229e-2,-0.41955651853444886 A 0.15070814232980123 0.15070814232980123 0.0 1 1 0.34751026706870725,0.10043831993432517 A 0.3014162846596024 0.3014162846596024 0.0 0 0 0.19502053413741482,-0.15955909930006185 A 0.3014162846596025 0.3014162846596025 0.0 0 0 4.253080120612229e-2,-0.41955651853444886 L 4.253080120612229e-2,-0.41955651853444886"/></g><g stroke-opacity="0.8" fill-opacity="0.2" stroke="#1f78b4" stroke-width="1.0e-2" fill="#1f78b4"><path d="M -0.2624486646564629,0.10043831993432517 A 0.15248973293129253 0.15248973293129253 0.0 1 0 0.34751026706870725,0.10043831993432517 A 0.30497946586258495 0.30497946586258495 0.0 0 1 4.253080120612229e-2,0.10043831993432517 A 0.3049794658625852 0.3049794658625852 0.0 0 1 -0.2624486646564629,0.10043831993432517 L -0.2624486646564629,0.10043831993432517"/></g><g stroke-opacity="0.8" fill-opacity="0.2" stroke="#1f78b4" stroke-width="1.0e-2" fill="#e31a1c"><path d="M -0.2624486646564629,0.10043831993432517 A 0.15070814232980126 0.15070814232980126 0.0 1 1 4.253080120612229e-2,-0.41955651853444886 A 0.3014162846596025 0.3014162846596025 0.0 0 0 -0.1099589317251703,-0.15955909930006185 A 0.3014162846596025 0.3014162846596025 0.0 0 0 -0.2624486646564629,0.10043831993432517 L -0.2624486646564629,0.10043831993432517"/></g><g stroke-opacity="0.8" fill-opacity="0.2" stroke="#1f78b4" stroke-width="1.0e-2" fill="#b2df8a"><path d="M 0.19502053413741482,-0.15955909930006185 A 0.3014162846596024 0.3014162846596024 0.0 0 1 0.34751026706870725,0.10043831993432517 A 0.30497946586258495 0.30497946586258495 0.0 0 1 4.253080120612229e-2,0.10043831993432517 A 0.3014162846596025 0.3014162846596025 0.0 0 0 0.19502053413741482,-0.15955909930006185 L 0.19502053413741482,-0.15955909930006185"/></g><g stroke-opacity="0.8" fill-opacity="0.2" stroke="#1f78b4" stroke-width="1.0e-2" fill="#33a02c"><path d="M 4.253080120612229e-2,0.10043831993432517 A 0.3049794658625852 0.3049794658625852 0.0 0 1 -0.2624486646564629,0.10043831993432517 A 0.3014162846596025 0.3014162846596025 0.0 0 1 -0.1099589317251703,-0.15955909930006185 A 0.3014162846596025 0.3014162846596025 0.0 0 0 4.253080120612229e-2,0.10043831993432517 L 4.253080120612229e-2,0.10043831993432517"/></g><g stroke-opacity="0.8" fill-opacity="0.2" stroke="#1f78b4" stroke-width="1.0e-2" fill="#fb9a99"><path d="M 4.253080120612229e-2,-0.41955651853444886 A 0.3014162846596025 0.3014162846596025 0.0 0 1 0.19502053413741482,-0.15955909930006185 A 0.3049794658625851 0.3049794658625851 0.0 0 0 -0.1099589317251703,-0.15955909930006185 A 0.3014162846596025 0.3014162846596025 0.0 0 1 4.253080120612229e-2,-0.41955651853444886 L 4.253080120612229e-2,-0.41955651853444886"/></g><g stroke-opacity="0.8" fill-opacity="0.2" stroke="#1f78b4" stroke-width="1.0e-2" fill="#fdbf6f"><path d="M 0.19502053413741482,-0.15955909930006185 A 0.3014162846596025 0.3014162846596025 0.0 0 1 4.253080120612229e-2,0.10043831993432517 A 0.3014162846596025 0.3014162846596025 0.0 0 1 -0.1099589317251703,-0.15955909930006185 A 0.3049794658625851 0.3049794658625851 0.0 0 1 0.19502053413741482,-0.15955909930006185 L 0.19502053413741482,-0.15955909930006185"/></g></svg>