<svg width="299.47787959947124" xmlns:xlink="http://www.w3.org/1999/xlink" xmlns="http://www.w3.org/2000/svg" viewBox="-0.52 -0.520634829988721 1.04 1.0418131730372746" height="300.0"><style>svg {
  color-scheme: light dark;
}
{
  .canvas g, .title g, .axisbar g, .ticktext g, .tickglyph g, .ticklines g, .legendContent g text {
    fill: #0d0d0d;
  }
  .ticklines g, .tickglyph g, .legendBorder g {
    stroke: #0d0d0d;
  }
}
@media (prefers-color-scheme:dark) {
  .canvas g, .title g, .axisbar g, .ticktext g, .tickglyph g, .ticklines g, .legendContent g text {
    fill: #f0f0f0;
  }
  .ticklines g, .tickglyph g, .legendBorder g {
    stroke: #f0f0f0;
  }
}</style><g class="chart"><g class="venn"><g stroke-opacity="1.0" fill="#b05929" stroke="#a6cfe3" stroke-width="1.0e-2" fill-opacity="0.2"><path d="M 0.0618,-0.4036 A 0.14165029026978093 0.13900516531677656 -0.0 1 1 0.3451,0.0779 A 0.28330058053956186 0.2780103306335531 -0.0 0 0 0.2034,-0.1629 A 0.28330058053956186 0.2780103306335531 -0.0 0 0 0.0618,-0.4036 L 0.0618,-0.4036"/></g><g stroke-opacity="1.0" fill="#a6cfe3" stroke="#a6cfe3" stroke-width="1.0e-2" fill-opacity="0.2"><path d="M -0.2215,0.0779 A 0.14165029026978093 0.13900516531677656 -0.0 1 0 0.3451,0.0779 A 0.28330058053956186 0.2780103306335531 -0.0 0 1 0.0618,0.0779 A 0.28330058053956186 0.2780103306335531 -0.0 0 1 -0.2215,0.0779 L -0.2215,0.0779"/></g><g stroke-opacity="1.0" fill="#1f78b5" stroke="#a6cfe3" stroke-width="1.0e-2" fill-opacity="0.2"><path d="M -0.2215,0.0779 A 0.14165029026978093 0.13900516531677656 -0.0 1 1 0.0618,-0.4036 A 0.28330058053956186 0.2780103306335531 -0.0 0 0 -0.0799,-0.1629 A 0.28330058053956186 0.2780103306335531 -0.0 0 0 -0.2215,0.0779 L -0.2215,0.0779"/></g><g stroke-opacity="1.0" fill="#e31a1c" stroke="#a6cfe3" stroke-width="1.0e-2" fill-opacity="0.2"><path d="M 0.2034,-0.1629 A 0.28330058053956186 0.2780103306335531 -0.0 0 1 0.3451,0.0779 A 0.28330058053956186 0.2780103306335531 -0.0 0 1 0.0618,0.0779 A 0.28330058053956186 0.2780103306335531 -0.0 0 0 0.2034,-0.1629 L 0.2034,-0.1629"/></g><g stroke-opacity="1.0" fill="#b2de8a" stroke="#a6cfe3" stroke-width="1.0e-2" fill-opacity="0.2"><path d="M 0.0618,0.0779 A 0.28330058053956186 0.2780103306335531 -0.0 0 1 -0.2215,0.0779 A 0.28330058053956186 0.2780103306335531 -0.0 0 1 -0.0799,-0.1629 A 0.28330058053956186 0.2780103306335531 -0.0 0 0 0.0618,0.0779 L 0.0618,0.0779"/></g><g stroke-opacity="1.0" fill="#33a12b" stroke="#a6cfe3" stroke-width="1.0e-2" fill-opacity="0.2"><path d="M 0.0618,-0.4036 A 0.28330058053956186 0.2780103306335531 -0.0 0 1 0.2034,-0.1629 A 0.28330058053956186 0.2780103306335531 -0.0 0 0 -0.0799,-0.1629 A 0.28330058053956186 0.2780103306335531 -0.0 0 1 0.0618,-0.4036 L 0.0618,-0.4036"/></g><g stroke-opacity="1.0" fill="#fa9999" stroke="#a6cfe3" stroke-width="1.0e-2" fill-opacity="0.2"><path d="M 0.2034,-0.1629 A 0.28330058053956186 0.2780103306335531 -0.0 0 1 0.0618,0.0779 A 0.28330058053956186 0.2780103306335531 -0.0 0 1 -0.0799,-0.1629 A 0.28330058053956186 0.2780103306335531 -0.0 0 1 0.2034,-0.1629 L 0.2034,-0.1629"/></g></g></g><g class="hud"><g class="canvas"><g stroke-opacity="0.0" fill="#ffffff" stroke="#000000" stroke-width="0.0" fill-opacity="2.0e-2"><rect width="0.8584007590348725" x="-0.367415328307485" y="-0.4781066864626078" height="0.8382011468601628"/></g></g><g class="axis"><g class="ticks"><g class="tickglyph"><g stroke-opacity="0.4" fill="#0d0d0d" stroke="#0d0d0d" stroke-width="4.0e-3" fill-opacity="0.4"><g transform="rotate(-90.0, -0.3929123805560456, 0.360094460397555)"><polyline points="-0.3929123805560456,0.375094460397555
-0.3929123805560456,0.345094460397555"/></g><g transform="rotate(-90.0, -0.3929123805560456, 0.22039426925419453)"><polyline points="-0.3929123805560456,0.23539426925419454
-0.3929123805560456,0.20539426925419452"/></g><g transform="rotate(-90.0, -0.3929123805560456, 8.069407811083407e-2)"><polyline points="-0.3929123805560456,9.569407811083407e-2
-0.3929123805560456,6.569407811083407e-2"/></g><g transform="rotate(-90.0, -0.3929123805560456, -5.900611303252634e-2)"><polyline points="-0.3929123805560456,-4.400611303252634e-2
-0.3929123805560456,-7.400611303252634e-2"/></g><g transform="rotate(-90.0, -0.3929123805560456, -0.19870630417588675)"><polyline points="-0.3929123805560456,-0.18370630417588674
-0.3929123805560456,-0.21370630417588676"/></g><g transform="rotate(-90.0, -0.3929123805560456, -0.33840649531924716)"><polyline points="-0.3929123805560456,-0.32340649531924714
-0.3929123805560456,-0.35340649531924717"/></g><g transform="rotate(-90.0, -0.3929123805560456, -0.47810668646260757)"><polyline points="-0.3929123805560456,-0.46310668646260755
-0.3929123805560456,-0.4931066864626076"/></g></g></g><g class="ticktext"><g fill="#0d0d0d" stroke="none" stroke-width="0.0" font-size="4.249508708093429e-2" fill-opacity="1.0" text-anchor="end"><text x="-0.4235088432543183" y="0.37156238653618906">-1.5</text><text x="-0.4235088432543183" y="0.2318621953928286">-1</text><text x="-0.4235088432543183" y="9.216200424946819e-2">-0.5</text><text x="-0.4235088432543183" y="-4.753818689389222e-2">0</text><text x="-0.4235088432543183" y="-0.18723837803725274">0.5</text><text x="-0.4235088432543183" y="-0.32693856918061315">1</text><text x="-0.4235088432543183" y="-0.46663876032397356">1.5</text></g></g><g class="ticklines"><g stroke-opacity="5.0e-2" fill="none" stroke="#0d0d0d" stroke-width="5.0e-3"><polyline points="-0.367415328307485,0.360094460397555
0.49098543072738743,0.360094460397555"/><polyline points="-0.367415328307485,0.22039426925419453
0.49098543072738743,0.22039426925419453"/><polyline points="-0.367415328307485,8.069407811083407e-2
0.49098543072738743,8.069407811083407e-2"/><polyline points="-0.367415328307485,-5.900611303252634e-2
0.49098543072738743,-5.900611303252634e-2"/><polyline points="-0.367415328307485,-0.19870630417588675
0.49098543072738743,-0.19870630417588675"/><polyline points="-0.367415328307485,-0.33840649531924716
0.49098543072738743,-0.33840649531924716"/><polyline points="-0.367415328307485,-0.47810668646260757
0.49098543072738743,-0.47810668646260757"/></g></g></g><g class="axisbar"><g stroke-opacity="0.0" fill="#0d0d0d" stroke="#000000" stroke-width="0.0" fill-opacity="0.4"><rect width="3.399606966474733e-3" x="-0.3793139526901466" y="-0.4797747484464091" height="0.8415372708277654"/></g></g></g><g class="axis"><g class="ticks"><g class="tickglyph"><g stroke-opacity="0.4" fill="#0d0d0d" stroke="#0d0d0d" stroke-width="4.0e-3" fill-opacity="0.4"><polyline points="-0.367415328307485,0.40011539015457476
-0.367415328307485,0.37011539015457473"/><polyline points="-0.22434853513500624,0.40011539015457476
-0.22434853513500624,0.37011539015457473"/><polyline points="-8.128174196252747e-2,0.40011539015457476
-8.128174196252747e-2,0.37011539015457473"/><polyline points="6.178505120995126e-2,0.40011539015457476
6.178505120995126e-2,0.37011539015457473"/><polyline points="0.2048518443824301,0.40011539015457476
0.2048518443824301,0.37011539015457473"/><polyline points="0.3479186375549087,0.40011539015457476
0.3479186375549087,0.37011539015457473"/><polyline points="0.49098543072738743,0.40011539015457476
0.49098543072738743,0.37011539015457473"/></g></g><g class="ticktext"><g fill="#0d0d0d" stroke="none" stroke-width="0.0" font-size="4.249508708093429e-2" fill-opacity="1.0" text-anchor="end"><text x="-0.367415328307485" y="0.43807635814026663" transform="rotate(-45.0, -0.367415328307485, 0.43807635814026663)">-1.5</text><text x="-0.22434853513500624" y="0.43807635814026663" transform="rotate(-45.0, -0.22434853513500624, 0.43807635814026663)">-1</text><text x="-8.128174196252747e-2" y="0.43807635814026663" transform="rotate(-45.0, -8.128174196252747e-2, 0.43807635814026663)">-0.5</text><text x="6.178505120995126e-2" y="0.43807635814026663" transform="rotate(-45.0, 6.178505120995126e-2, 0.43807635814026663)">0</text><text x="0.2048518443824301" y="0.43807635814026663" transform="rotate(-45.0, 0.2048518443824301, 0.43807635814026663)">0.5</text><text x="0.3479186375549087" y="0.43807635814026663" transform="rotate(-45.0, 0.3479186375549087, 0.43807635814026663)">1</text><text x="0.49098543072738743" y="0.43807635814026663" transform="rotate(-45.0, 0.49098543072738743, 0.43807635814026663)">1.5</text></g></g><g class="ticklines"><g stroke-opacity="5.0e-2" fill="none" stroke="#0d0d0d" stroke-width="5.0e-3"><polyline points="-0.367415328307485,0.360094460397555
-0.367415328307485,-0.4781066864626078"/><polyline points="-0.22434853513500624,0.360094460397555
-0.22434853513500624,-0.4781066864626078"/><polyline points="-8.128174196252747e-2,0.360094460397555
-8.128174196252747e-2,-0.4781066864626078"/><polyline points="6.178505120995126e-2,0.360094460397555
6.178505120995126e-2,-0.4781066864626078"/><polyline points="0.2048518443824301,0.360094460397555
0.2048518443824301,-0.4781066864626078"/><polyline points="0.3479186375549087,0.360094460397555
0.3479186375549087,-0.4781066864626078"/><polyline points="0.49098543072738743,0.360094460397555
0.49098543072738743,-0.4781066864626078"/></g></g></g><g class="axisbar"><g stroke-opacity="0.0" fill="#0d0d0d" stroke="#000000" stroke-width="0.0" fill-opacity="0.4"><rect width="0.8618003660013475" x="-0.3691151317907224" y="0.3684347703165616" height="3.3361239676026333e-3"/></g></g></g></g></svg>