<svg width="300.03801895834175" xmlns:xlink="http://www.w3.org/1999/xlink" xmlns="http://www.w3.org/2000/svg" viewBox="-0.48564628796040726 -0.49646854184019373 0.9847521152206522 0.9846273335353996" height="300.0"><style>svg {
  color-scheme: light dark;
}
{
  .canvas g, .title g, .axisbar g, .ticktext g, .tickglyph g, .ticklines g, .legendContent g text {
    fill: #0d0d0d;
  }
  .ticklines g, .tickglyph g, .legendBorder g {
    stroke: #0d0d0d;
  }
}
@media (prefers-color-scheme:dark) {
  .canvas g, .title g, .axisbar g, .ticktext g, .tickglyph g, .ticklines g, .legendContent g text {
    fill: #f0f0f0;
  }
  .ticklines g, .tickglyph g, .legendBorder g {
    stroke: #f0f0f0;
  }
}</style><g class="chart"><g class="venn"><g stroke-opacity="1.0" fill="#b05929" stroke="#a6cfe3" stroke-width="1.0e-2" fill-opacity="0.2"><path d="M 0.0699,-0.4009 A 0.14008571844519854 0.136529424197397 -0.0 1 1 0.3501,0.0720 A 0.2801714368903971 0.273058848394794 -0.0 0 0 0.2100,-0.1645 A 0.2801714368903971 0.273058848394794 -0.0 0 0 0.0699,-0.4009 L 0.0699,-0.4009"/></g><g stroke-opacity="1.0" fill="#a6cfe3" stroke="#a6cfe3" stroke-width="1.0e-2" fill-opacity="0.2"><path d="M -0.2102,0.0720 A 0.14008571844519854 0.136529424197397 -0.0 1 0 0.3501,0.0720 A 0.2801714368903971 0.273058848394794 -0.0 0 1 0.0699,0.0720 A 0.2801714368903971 0.273058848394794 -0.0 0 1 -0.2102,0.0720 L -0.2102,0.0720"/></g><g stroke-opacity="1.0" fill="#1f78b5" stroke="#a6cfe3" stroke-width="1.0e-2" fill-opacity="0.2"><path d="M -0.2102,0.0720 A 0.14008571844519854 0.136529424197397 -0.0 1 1 0.0699,-0.4009 A 0.2801714368903971 0.273058848394794 -0.0 0 0 -0.0702,-0.1645 A 0.2801714368903971 0.273058848394794 -0.0 0 0 -0.2102,0.0720 L -0.2102,0.0720"/></g><g stroke-opacity="1.0" fill="#e31a1c" stroke="#a6cfe3" stroke-width="1.0e-2" fill-opacity="0.2"><path d="M 0.2100,-0.1645 A 0.2801714368903971 0.273058848394794 -0.0 0 1 0.3501,0.0720 A 0.2801714368903971 0.273058848394794 -0.0 0 1 0.0699,0.0720 A 0.2801714368903971 0.273058848394794 -0.0 0 0 0.2100,-0.1645 L 0.2100,-0.1645"/></g><g stroke-opacity="1.0" fill="#b2de8a" stroke="#a6cfe3" stroke-width="1.0e-2" fill-opacity="0.2"><path d="M 0.0699,0.0720 A 0.2801714368903971 0.273058848394794 -0.0 0 1 -0.2102,0.0720 A 0.2801714368903971 0.273058848394794 -0.0 0 1 -0.0702,-0.1645 A 0.2801714368903971 0.273058848394794 -0.0 0 0 0.0699,0.0720 L 0.0699,0.0720"/></g><g stroke-opacity="1.0" fill="#33a12b" stroke="#a6cfe3" stroke-width="1.0e-2" fill-opacity="0.2"><path d="M 0.0699,-0.4009 A 0.2801714368903971 0.273058848394794 -0.0 0 1 0.2100,-0.1645 A 0.2801714368903971 0.273058848394794 -0.0 0 0 -0.0702,-0.1645 A 0.2801714368903971 0.273058848394794 -0.0 0 1 0.0699,-0.4009 L 0.0699,-0.4009"/></g><g stroke-opacity="1.0" fill="#fa9999" stroke="#a6cfe3" stroke-width="1.0e-2" fill-opacity="0.2"><path d="M 0.2100,-0.1645 A 0.2801714368903971 0.273058848394794 -0.0 0 1 0.0699,0.0720 A 0.2801714368903971 0.273058848394794 -0.0 0 1 -0.0702,-0.1645 A 0.2801714368903971 0.273058848394794 -0.0 0 1 0.2100,-0.1645 L 0.2100,-0.1645"/></g></g></g><g class="hud"><g class="frame"><g stroke-opacity="0.0" fill="#ffffff" stroke="#000000" stroke-width="0.0" fill-opacity="2.0e-2"><rect width="0.8489194537779031" x="-0.3545260554957014" y="-0.47411164690963115" height="0.8232724279103039"/></g></g><g class="axis"><g class="ticks"><g class="tickglyph"><g stroke-opacity="0.4" fill="#0d0d0d" stroke="#0d0d0d" stroke-width="4.0e-3" fill-opacity="0.4"><g transform="rotate(-90.0, -0.37974148481583714, 0.34506489827475084)"><polyline points="-0.37974148481583714,0.36006489827475086
-0.37974148481583714,0.33006489827475083"/></g><g transform="rotate(-90.0, -0.37974148481583714, 0.20853547407735387)"><polyline points="-0.37974148481583714,0.22353547407735386
-0.37974148481583714,0.1935354740773539"/></g><g transform="rotate(-90.0, -0.37974148481583714, 7.200604987995685e-2)"><polyline points="-0.37974148481583714,8.700604987995685e-2
-0.37974148481583714,5.700604987995685e-2"/></g><g transform="rotate(-90.0, -0.37974148481583714, -6.452337431744015e-2)"><polyline points="-0.37974148481583714,-4.952337431744015e-2
-0.37974148481583714,-7.952337431744015e-2"/></g><g transform="rotate(-90.0, -0.37974148481583714, -0.20105279851483715)"><polyline points="-0.37974148481583714,-0.18605279851483714
-0.37974148481583714,-0.21605279851483716"/></g><g transform="rotate(-90.0, -0.37974148481583714, -0.33758222271223415)"><polyline points="-0.37974148481583714,-0.32258222271223413
-0.37974148481583714,-0.35258222271223416"/></g><g transform="rotate(-90.0, -0.37974148481583714, -0.47411164690963115)"><polyline points="-0.37974148481583714,-0.45911164690963113
-0.37974148481583714,-0.48911164690963116"/></g></g></g><g class="ticktext"><g fill="#0d0d0d" stroke="none" stroke-width="0.0" font-size="4.202571553355956e-2" fill-opacity="1.0" text-anchor="end"><text x="-0.41000000000000003" y="0.35632857577103616">-1.5</text><text x="-0.41000000000000003" y="0.2197991515736391">-1</text><text x="-0.41000000000000003" y="8.326972737624211e-2">-0.5</text><text x="-0.41000000000000003" y="-5.3259696821154945e-2">0</text><text x="-0.41000000000000003" y="-0.18978912101855194">0.5</text><text x="-0.41000000000000003" y="-0.32631854521594894">1</text><text x="-0.41000000000000003" y="-0.46284796941334605">1.5</text></g></g><g class="ticklines"><g stroke-opacity="5.0e-2" fill="none" stroke="#0d0d0d" stroke-width="5.0e-3"><polyline points="-0.3503234839423454,0.34506489827475084
0.49019082672884595,0.34506489827475084"/><polyline points="-0.3503234839423454,0.20853547407735387
0.49019082672884595,0.20853547407735387"/><polyline points="-0.3503234839423454,7.200604987995685e-2
0.49019082672884595,7.200604987995685e-2"/><polyline points="-0.3503234839423454,-6.452337431744015e-2
0.49019082672884595,-6.452337431744015e-2"/><polyline points="-0.3503234839423454,-0.20105279851483715
0.49019082672884595,-0.20105279851483715"/><polyline points="-0.3503234839423454,-0.33758222271223415
0.49019082672884595,-0.33758222271223415"/><polyline points="-0.3503234839423454,-0.47411164690963115
0.49019082672884595,-0.47411164690963115"/></g></g></g><g class="axisbar"><g stroke-opacity="0.0" fill="#0d0d0d" stroke="#000000" stroke-width="0.0" fill-opacity="0.4"><rect width="3.362057242684735e-3" x="-0.36629325584509803" y="-0.47575" height="0.8224532513651197"/></g></g></g><g class="axis"><g class="ticks"><g class="tickglyph"><g stroke-opacity="0.4" fill="#0d0d0d" stroke="#0d0d0d" stroke-width="4.0e-3" fill-opacity="0.4"><polyline points="-0.3503234839423454,0.3887360773562043
-0.3503234839423454,0.3587360773562043"/><polyline points="-0.21023776549714687,0.3887360773562043
-0.21023776549714687,0.3587360773562043"/><polyline points="-7.015204705194833e-2,0.3887360773562043
-7.015204705194833e-2,0.3587360773562043"/><polyline points="6.993367139325024e-2,0.3887360773562043
6.993367139325024e-2,0.3587360773562043"/><polyline points="0.2100193898384487,0.3887360773562043
0.2100193898384487,0.3587360773562043"/><polyline points="0.35010510828364727,0.3887360773562043
0.35010510828364727,0.3587360773562043"/><polyline points="0.49019082672884595,0.3887360773562043
0.49019082672884595,0.3587360773562043"/></g></g><g class="ticktext"><g fill="#0d0d0d" stroke="none" stroke-width="0.0" font-size="4.202571553355956e-2" fill-opacity="1.0" text-anchor="end"><text x="-0.3503234839423454" y="0.4257537879754125" transform="rotate(-45.0, -0.3503234839423454, 0.4257537879754125)">-1.5</text><text x="-0.21023776549714687" y="0.4257537879754125" transform="rotate(-45.0, -0.21023776549714687, 0.4257537879754125)">-1</text><text x="-7.015204705194833e-2" y="0.4257537879754125" transform="rotate(-45.0, -7.015204705194833e-2, 0.4257537879754125)">-0.5</text><text x="6.993367139325024e-2" y="0.4257537879754125" transform="rotate(-45.0, 6.993367139325024e-2, 0.4257537879754125)">0</text><text x="0.2100193898384487" y="0.4257537879754125" transform="rotate(-45.0, 0.2100193898384487, 0.4257537879754125)">0.5</text><text x="0.35010510828364727" y="0.4257537879754125" transform="rotate(-45.0, 0.35010510828364727, 0.4257537879754125)">1</text><text x="0.49019082672884595" y="0.4257537879754125" transform="rotate(-45.0, 0.49019082672884595, 0.4257537879754125)">1.5</text></g></g><g class="ticklines"><g stroke-opacity="5.0e-2" fill="none" stroke="#0d0d0d" stroke-width="5.0e-3"><polyline points="-0.3503234839423454,0.34506489827475084
-0.3503234839423454,-0.47411164690963115"/><polyline points="-0.21023776549714687,0.34506489827475084
-0.21023776549714687,-0.47411164690963115"/><polyline points="-7.015204705194833e-2,0.34506489827475084
-7.015204705194833e-2,-0.47411164690963115"/><polyline points="6.993367139325024e-2,0.34506489827475084
6.993367139325024e-2,-0.47411164690963115"/><polyline points="0.2100193898384487,0.34506489827475084
0.2100193898384487,-0.47411164690963115"/><polyline points="0.35010510828364727,0.34506489827475084
0.35010510828364727,-0.47411164690963115"/><polyline points="0.49019082672884595,0.34506489827475084
0.49019082672884595,-0.47411164690963115"/></g></g></g><g class="axisbar"><g stroke-opacity="0.0" fill="#0d0d0d" stroke="#000000" stroke-width="0.0" fill-opacity="0.4"><rect width="0.843876367913876" x="-0.3520045125636878" y="0.35735254645251663" height="3.2767061807374986e-3"/></g></g></g></g></svg>