<svg xmlns="http://www.w3.org/2000/svg" height="300.0" viewBox="-0.62 -0.5531904665414284 1.1728947566772607 1.0847167555857564" width="324.38738056845654" xmlns:xlink="http://www.w3.org/1999/xlink"><g stroke-opacity="0.0" fill-opacity="2.5e-2" stroke="#000000" stroke-width="0.0" fill="#808080"><rect height="0.9006574799014877" width="0.8907458610009804" x="-0.39074586100098047" y="-0.4999999999999999"/></g><g stroke-opacity="5.0e-2" stroke="#808080" stroke-width="5.0e-3" fill="none"><polyline points="-0.39074586100098047,0.4006574799014878
0.5,0.4006574799014878"/></g><g stroke-opacity="5.0e-2" stroke="#808080" stroke-width="5.0e-3" fill="none"><polyline points="-0.39074586100098047,0.2505478999179065
0.5,0.2505478999179065"/></g><g stroke-opacity="5.0e-2" stroke="#808080" stroke-width="5.0e-3" fill="none"><polyline points="-0.39074586100098047,0.10043831993432517
0.5,0.10043831993432517"/></g><g stroke-opacity="5.0e-2" stroke="#808080" stroke-width="5.0e-3" fill="none"><polyline points="-0.39074586100098047,-4.967126004925615e-2
0.5,-4.967126004925615e-2"/></g><g stroke-opacity="5.0e-2" stroke="#808080" stroke-width="5.0e-3" fill="none"><polyline points="-0.39074586100098047,-0.19978084003283736
0.5,-0.19978084003283736"/></g><g stroke-opacity="5.0e-2" stroke="#808080" stroke-width="5.0e-3" fill="none"><polyline points="-0.39074586100098047,-0.3498904200164187
0.5,-0.3498904200164187"/></g><g stroke-opacity="5.0e-2" stroke="#808080" stroke-width="5.0e-3" fill="none"><polyline points="-0.39074586100098047,-0.4999999999999999
0.5,-0.4999999999999999"/></g><g fill-opacity="1.0" font-size="5.0e-2" stroke="none" stroke-width="0.0" fill="#808080" text-anchor="end"><text x="-0.5" y="0.4137170133600593">-1.5</text></g><g fill-opacity="1.0" font-size="5.0e-2" stroke="none" stroke-width="0.0" fill="#808080" text-anchor="end"><text x="-0.5" y="0.2636074333764781">-1</text></g><g fill-opacity="1.0" font-size="5.0e-2" stroke="none" stroke-width="0.0" fill="#808080" text-anchor="end"><text x="-0.5" y="0.11349785339289681">-0.5</text></g><g fill-opacity="1.0" font-size="5.0e-2" stroke="none" stroke-width="0.0" fill="#808080" text-anchor="end"><text x="-0.5" y="-3.661172659068457e-2">0</text></g><g fill-opacity="1.0" font-size="5.0e-2" stroke="none" stroke-width="0.0" fill="#808080" text-anchor="end"><text x="-0.5" y="-0.18672130657426578">0.5</text></g><g fill-opacity="1.0" font-size="5.0e-2" stroke="none" stroke-width="0.0" fill="#808080" text-anchor="end"><text x="-0.5" y="-0.336830886557847">1</text></g><g fill-opacity="1.0" font-size="5.0e-2" stroke="none" stroke-width="0.0" fill="#808080" text-anchor="end"><text x="-0.5" y="-0.4869404665414284">1.5</text></g><g stroke-opacity="1.0" fill-opacity="1.0" stroke="#808080" stroke-width="5.0e-3" fill="#808080"><g transform="rotate(-90.0, -0.47098395364810164, 0.4006574799014878)"><polyline points="-0.47098395364810164,0.4156574799014878
-0.47098395364810164,0.3856574799014878"/></g><g transform="rotate(-90.0, -0.47098395364810164, 0.2505478999179065)"><polyline points="-0.47098395364810164,0.2655478999179065
-0.47098395364810164,0.23554789991790648"/></g><g transform="rotate(-90.0, -0.47098395364810164, 0.10043831993432517)"><polyline points="-0.47098395364810164,0.11543831993432517
-0.47098395364810164,8.543831993432517e-2"/></g><g transform="rotate(-90.0, -0.47098395364810164, -4.967126004925615e-2)"><polyline points="-0.47098395364810164,-3.467126004925615e-2
-0.47098395364810164,-6.467126004925615e-2"/></g><g transform="rotate(-90.0, -0.47098395364810164, -0.19978084003283736)"><polyline points="-0.47098395364810164,-0.18478084003283735
-0.47098395364810164,-0.21478084003283737"/></g><g transform="rotate(-90.0, -0.47098395364810164, -0.3498904200164187)"><polyline points="-0.47098395364810164,-0.33489042001641867
-0.47098395364810164,-0.3648904200164187"/></g><g transform="rotate(-90.0, -0.47098395364810164, -0.4999999999999999)"><polyline points="-0.47098395364810164,-0.4849999999999999
-0.47098395364810164,-0.5149999999999999"/></g></g><g stroke-opacity="1.0" fill-opacity="1.0" stroke="#808080" stroke-width="0.0" fill="#808080"><rect height="0.9006574799014877" width="4.453729294228437e-3" x="-0.4598496304125305" y="-0.4999999999999999"/></g><g stroke-opacity="5.0e-2" stroke="#808080" stroke-width="5.0e-3" fill="none"><polyline points="-0.39074586100098047,0.4006574799014878
-0.39074586100098047,-0.4999999999999999"/></g><g stroke-opacity="5.0e-2" stroke="#808080" stroke-width="5.0e-3" fill="none"><polyline points="-0.24228821750081703,0.4006574799014878
-0.24228821750081703,-0.4999999999999999"/></g><g stroke-opacity="5.0e-2" stroke="#808080" stroke-width="5.0e-3" fill="none"><polyline points="-9.383057400065364e-2,0.4006574799014878
-9.383057400065364e-2,-0.4999999999999999"/></g><g stroke-opacity="5.0e-2" stroke="#808080" stroke-width="5.0e-3" fill="none"><polyline points="5.4627069499509795e-2,0.4006574799014878
5.4627069499509795e-2,-0.4999999999999999"/></g><g stroke-opacity="5.0e-2" stroke="#808080" stroke-width="5.0e-3" fill="none"><polyline points="0.20308471299967323,0.4006574799014878
0.20308471299967323,-0.4999999999999999"/></g><g stroke-opacity="5.0e-2" stroke="#808080" stroke-width="5.0e-3" fill="none"><polyline points="0.3515423564998367,0.4006574799014878
0.3515423564998367,-0.4999999999999999"/></g><g stroke-opacity="5.0e-2" stroke="#808080" stroke-width="5.0e-3" fill="none"><polyline points="0.5,0.4006574799014878
0.5,-0.4999999999999999"/></g><g fill-opacity="1.0" font-size="4.179310354839919e-2" stroke="none" stroke-width="0.0" fill="#808080" text-anchor="end"><text transform="rotate(-45.0, -0.39074586100098047, 0.5)" x="-0.39074586100098047" y="0.5">-1.5</text></g><g fill-opacity="1.0" font-size="4.179310354839919e-2" stroke="none" stroke-width="0.0" fill="#808080" text-anchor="end"><text transform="rotate(-45.0, -0.24228821750081703, 0.5)" x="-0.24228821750081703" y="0.5">-1</text></g><g fill-opacity="1.0" font-size="4.179310354839919e-2" stroke="none" stroke-width="0.0" fill="#808080" text-anchor="end"><text transform="rotate(-45.0, -9.383057400065364e-2, 0.5)" x="-9.383057400065364e-2" y="0.5">-0.5</text></g><g fill-opacity="1.0" font-size="4.179310354839919e-2" stroke="none" stroke-width="0.0" fill="#808080" text-anchor="end"><text transform="rotate(-45.0, 5.4627069499509795e-2, 0.5)" x="5.4627069499509795e-2" y="0.5">0</text></g><g fill-opacity="1.0" font-size="4.179310354839919e-2" stroke="none" stroke-width="0.0" fill="#808080" text-anchor="end"><text transform="rotate(-45.0, 0.20308471299967323, 0.5)" x="0.20308471299967323" y="0.5">0.5</text></g><g fill-opacity="1.0" font-size="4.179310354839919e-2" stroke="none" stroke-width="0.0" fill="#808080" text-anchor="end"><text transform="rotate(-45.0, 0.3515423564998367, 0.5)" x="0.3515423564998367" y="0.5">1</text></g><g fill-opacity="1.0" font-size="4.179310354839919e-2" stroke="none" stroke-width="0.0" fill="#808080" text-anchor="end"><text transform="rotate(-45.0, 0.5, 0.5)" x="0.5" y="0.5">1.5</text></g><g stroke-opacity="1.0" fill-opacity="1.0" stroke="#808080" stroke-width="5.0e-3" fill="#808080"><polyline points="-0.39074586100098047,0.44492884799828614
-0.39074586100098047,0.4149288479982861"/><polyline points="-0.24228821750081703,0.44492884799828614
-0.24228821750081703,0.4149288479982861"/><polyline points="-9.383057400065364e-2,0.44492884799828614
-9.383057400065364e-2,0.4149288479982861"/><polyline points="5.4627069499509795e-2,0.44492884799828614
5.4627069499509795e-2,0.4149288479982861"/><polyline points="0.20308471299967323,0.44492884799828614
0.20308471299967323,0.4149288479982861"/><polyline points="0.3515423564998367,0.44492884799828614
0.3515423564998367,0.4149288479982861"/><polyline points="0.5,0.44492884799828614
0.5,0.4149288479982861"/></g><g stroke-opacity="1.0" fill-opacity="1.0" stroke="#808080" stroke-width="0.0" fill="#808080"><rect height="4.503287399507394e-3" width="0.8907458610009804" x="-0.39074586100098047" y="0.4141673421000101"/></g><g stroke-opacity="0.8" fill-opacity="0.2" stroke="#1f78b4" stroke-width="1.0e-2" fill="#a6cee3"><path d="M 0.055,-0.420 A 0.14969830477956886 0.14969830477956886 0.0 1 1 0.352,0.100 A 0.2993966095591377 0.2993966095591377 0.0 0 0 0.203,-0.160 A 0.2993966095591377 0.2993966095591377 0.0 0 0 0.055,-0.420 L 0.055,-0.420"/></g><g stroke-opacity="0.8" fill-opacity="0.2" stroke="#1f78b4" stroke-width="1.0e-2" fill="#1f78b4"><path d="M -0.242,0.100 A 0.14845764314094834 0.14845764314094834 0.0 1 0 0.352,0.100 A 0.2969152862818967 0.2969152862818967 0.0 0 1 0.055,0.100 A 0.2969152862818966 0.2969152862818966 0.0 0 1 -0.242,0.100 L -0.242,0.100"/></g><g stroke-opacity="0.8" fill-opacity="0.2" stroke="#1f78b4" stroke-width="1.0e-2" fill="#e31a1c"><path d="M -0.242,0.100 A 0.14969830477956886 0.14969830477956886 0.0 1 1 0.055,-0.420 A 0.2993966095591377 0.2993966095591377 0.0 0 0 -0.094,-0.160 A 0.2993966095591377 0.2993966095591377 0.0 0 0 -0.242,0.100 L -0.242,0.100"/></g><g stroke-opacity="0.8" fill-opacity="0.2" stroke="#1f78b4" stroke-width="1.0e-2" fill="#b2df8a"><path d="M 0.203,-0.160 A 0.2993966095591377 0.2993966095591377 0.0 0 1 0.352,0.100 A 0.2969152862818967 0.2969152862818967 0.0 0 1 0.055,0.100 A 0.2993966095591377 0.2993966095591377 0.0 0 0 0.203,-0.160 L 0.203,-0.160"/></g><g stroke-opacity="0.8" fill-opacity="0.2" stroke="#1f78b4" stroke-width="1.0e-2" fill="#33a02c"><path d="M 0.055,0.100 A 0.2969152862818966 0.2969152862818966 0.0 0 1 -0.242,0.100 A 0.2993966095591377 0.2993966095591377 0.0 0 1 -0.094,-0.160 A 0.2993966095591377 0.2993966095591377 0.0 0 0 0.055,0.100 L 0.055,0.100"/></g><g stroke-opacity="0.8" fill-opacity="0.2" stroke="#1f78b4" stroke-width="1.0e-2" fill="#fb9a99"><path d="M 0.055,-0.420 A 0.2993966095591377 0.2993966095591377 0.0 0 1 0.203,-0.160 A 0.2969152862818966 0.2969152862818966 0.0 0 0 -0.094,-0.160 A 0.2993966095591377 0.2993966095591377 0.0 0 1 0.055,-0.420 L 0.055,-0.420"/></g><g stroke-opacity="0.8" fill-opacity="0.2" stroke="#1f78b4" stroke-width="1.0e-2" fill="#fdbf6f"><path d="M 0.203,-0.160 A 0.2993966095591377 0.2993966095591377 0.0 0 1 0.055,0.100 A 0.2993966095591377 0.2993966095591377 0.0 0 1 -0.094,-0.160 A 0.2969152862818966 0.2969152862818966 0.0 0 1 0.203,-0.160 L 0.203,-0.160"/></g><g></g></svg>