<svg xmlns="http://www.w3.org/2000/svg" width="299.59019837846336" xmlns:xlink="http://www.w3.org/1999/xlink" viewBox="-0.47987325612208 -0.4958906334198819 0.9784229494865739 0.9797613087300289" height="300.0"><style>svg {
  color-scheme: light dark;
}
{
  .canvas g, .title g, .axisbar g, .ticktext g, .tickglyph g, .ticklines g, .legendContent g text {
    fill: #0d0d0d;
  }
  .ticklines g, .tickglyph g, .legendBorder g {
    stroke: #0d0d0d;
  }
  .legendBorder g {
    fill: #f0f0f0;
  }
}
@media (prefers-color-scheme:dark) {
  .canvas g, .title g, .axisbar g, .ticktext g, .tickglyph g, .ticklines g, .legendContent g text {
    fill: #f0f0f0;
  }
  .ticklines g, .tickglyph g, .legendBorder g {
    stroke: #f0f0f0;
  }
  .legendBorder g {
    fill: #0d0d0d;
  }
}</style><g class="chart"><g class="venn"><g fill="rgb(2%, 73%, 80%)" stroke="rgb(2%, 29%, 48%)" stroke-width="5.0e-3" fill-opacity="0.2" stroke-opacity="1.0"><path d="M 0.0793,-0.4021 A 0.13684926832900743 0.1344253013659252 -0.0 1 1 0.3530,0.0636 A 0.27369853665801486 0.2688506027318504 -0.0 0 0 0.2161,-0.1693 A 0.27369853665801486 0.2688506027318504 -0.0 0 0 0.0793,-0.4021 L 0.0793,-0.4021"/></g><g fill="rgb(2%, 29%, 48%)" stroke="rgb(2%, 29%, 48%)" stroke-width="5.0e-3" fill-opacity="0.2" stroke-opacity="1.0"><path d="M -0.1944,0.0636 A 0.13684926832900743 0.1344253013659252 -0.0 1 0 0.3530,0.0636 A 0.27369853665801486 0.2688506027318504 -0.0 0 1 0.0793,0.0636 A 0.27369853665801486 0.2688506027318504 -0.0 0 1 -0.1944,0.0636 L -0.1944,0.0636"/></g><g fill="rgb(66%, 7%, 55%)" stroke="rgb(2%, 29%, 48%)" stroke-width="5.0e-3" fill-opacity="0.2" stroke-opacity="1.0"><path d="M -0.1944,0.0636 A 0.13684926832900743 0.1344253013659252 -0.0 1 1 0.0793,-0.4021 A 0.27369853665801486 0.2688506027318504 -0.0 0 0 -0.0576,-0.1693 A 0.27369853665801486 0.2688506027318504 -0.0 0 0 -0.1944,0.0636 L -0.1944,0.0636"/></g><g fill="rgb(96%, 60%, 92%)" stroke="rgb(2%, 29%, 48%)" stroke-width="5.0e-3" fill-opacity="0.2" stroke-opacity="1.0"><path d="M 0.2161,-0.1693 A 0.27369853665801486 0.2688506027318504 -0.0 0 1 0.3530,0.0636 A 0.27369853665801486 0.2688506027318504 -0.0 0 1 0.0793,0.0636 A 0.27369853665801486 0.2688506027318504 -0.0 0 0 0.2161,-0.1693 L 0.2161,-0.1693"/></g><g fill="rgb(100%, 71%, 35%)" stroke="rgb(2%, 29%, 48%)" stroke-width="5.0e-3" fill-opacity="0.2" stroke-opacity="1.0"><path d="M 0.0793,0.0636 A 0.27369853665801486 0.2688506027318504 -0.0 0 1 -0.1944,0.0636 A 0.27369853665801486 0.2688506027318504 -0.0 0 1 -0.0576,-0.1693 A 0.27369853665801486 0.2688506027318504 -0.0 0 0 0.0793,0.0636 L 0.0793,0.0636"/></g><g fill="rgb(73%, 34%, 1%)" stroke="rgb(2%, 29%, 48%)" stroke-width="5.0e-3" fill-opacity="0.2" stroke-opacity="1.0"><path d="M 0.0793,-0.4021 A 0.27369853665801486 0.2688506027318504 -0.0 0 1 0.2161,-0.1693 A 0.27369853665801486 0.2688506027318504 -0.0 0 0 -0.0576,-0.1693 A 0.27369853665801486 0.2688506027318504 -0.0 0 1 0.0793,-0.4021 L 0.0793,-0.4021"/></g><g fill="rgb(21%, 29%, 7%)" stroke="rgb(2%, 29%, 48%)" stroke-width="5.0e-3" fill-opacity="0.2" stroke-opacity="1.0"><path d="M 0.2161,-0.1693 A 0.27369853665801486 0.2688506027318504 -0.0 0 1 0.0793,0.0636 A 0.27369853665801486 0.2688506027318504 -0.0 0 1 -0.0576,-0.1693 A 0.27369853665801486 0.2688506027318504 -0.0 0 1 0.2161,-0.1693 L 0.2161,-0.1693"/></g></g></g><g class="hud"><g class="frame"><g fill="rgb(100%, 100%, 100%)" stroke="rgb(0%, 0%, 0%)" stroke-width="0.0" fill-opacity="2.0e-2" stroke-opacity="0.0"><rect x="-0.333307689741713" width="0.8252010880239147" y="-0.4741368963836091" height="0.8085681877160402"/></g></g><g class="axis"><g class="ticks"><g class="tickglyph"><g fill="rgb(5%, 5%, 5%)" stroke="rgb(5%, 5%, 5%)" stroke-width="4.0e-3" fill-opacity="0.4" stroke-opacity="0.4"><g transform="rotate(-90.0, -0.35794055804093433, 0.33241491181194227)"><polyline points="-0.35794055804093433,0.3474149118119423
-0.35794055804093433,0.31741491181194226"/></g><g transform="rotate(-90.0, -0.35794055804093433, 0.1979896104460171)"><polyline points="-0.35794055804093433,0.2129896104460171
-0.35794055804093433,0.18298961044601708"/></g><g transform="rotate(-90.0, -0.35794055804093433, 6.356430908009186e-2)"><polyline points="-0.35794055804093433,7.856430908009186e-2
-0.35794055804093433,4.8564309080091864e-2"/></g><g transform="rotate(-90.0, -0.35794055804093433, -7.086099228583331e-2)"><polyline points="-0.35794055804093433,-5.5860992285833314e-2
-0.35794055804093433,-8.586099228583331e-2"/></g><g transform="rotate(-90.0, -0.35794055804093433, -0.20528629365175854)"><polyline points="-0.35794055804093433,-0.19028629365175853
-0.35794055804093433,-0.22028629365175856"/></g><g transform="rotate(-90.0, -0.35794055804093433, -0.33971159501768367)"><polyline points="-0.35794055804093433,-0.32471159501768365
-0.35794055804093433,-0.3547115950176837"/></g><g transform="rotate(-90.0, -0.35794055804093433, -0.4741368963836091)"><polyline points="-0.35794055804093433,-0.4591368963836091
-0.35794055804093433,-0.48913689638360913"/></g></g></g><g class="ticktext"><g fill="rgb(5%, 5%, 5%)" stroke="none" stroke-width="0.0" font-size="4.105478049870223e-2" fill-opacity="1.0" text-anchor="end"><text x="-0.38749999999999996" y="0.3435049991746312">-1.50</text><text x="-0.38749999999999996" y="0.20907969780870594">-1.00</text><text x="-0.38749999999999996" y="7.465439644278071e-2">-0.50</text><text x="-0.38749999999999996" y="-5.977090492314446e-2"> 0.00</text><text x="-0.38749999999999996" y="-0.19419620628906964"> 0.50</text><text x="-0.38749999999999996" y="-0.32862150765499487"> 1.00</text><text x="-0.38749999999999996" y="-0.4630468090209201"> 1.50</text></g></g><g class="ticklines"><g fill="none" stroke="rgb(5%, 5%, 5%)" stroke-width="5.0e-3" stroke-opacity="5.0e-2"><polyline points="-0.3312549507167779,0.33241491181194227
0.4898406592572666,0.33241491181194227"/><polyline points="-0.3312549507167779,0.1979896104460171
0.4898406592572666,0.1979896104460171"/><polyline points="-0.3312549507167779,6.356430908009186e-2
0.4898406592572666,6.356430908009186e-2"/><polyline points="-0.3312549507167779,-7.086099228583331e-2
0.4898406592572666,-7.086099228583331e-2"/><polyline points="-0.3312549507167779,-0.20528629365175854
0.4898406592572666,-0.20528629365175854"/><polyline points="-0.3312549507167779,-0.33971159501768367
0.4898406592572666,-0.33971159501768367"/><polyline points="-0.3312549507167779,-0.4741368963836091
0.4898406592572666,-0.4741368963836091"/></g></g></g><g class="axisbar"><g fill="rgb(5%, 5%, 5%)" stroke="rgb(0%, 0%, 0%)" stroke-width="0.0" fill-opacity="0.4" stroke-opacity="0.0"><rect x="-0.3448030282813496" width="3.284382439896205e-3" y="-0.47575" height="0.8097780154283334"/></g></g></g><g class="axis"><g class="ticks"><g class="tickglyph"><g fill="rgb(5%, 5%, 5%)" stroke="rgb(5%, 5%, 5%)" stroke-width="4.0e-3" fill-opacity="0.4" stroke-opacity="0.4"><polyline points="-0.3312549507167779,0.3736278455782977
-0.3312549507167779,0.3436278455782977"/><polyline points="-0.19440568238777053,0.3736278455782977
-0.19440568238777053,0.3436278455782977"/><polyline points="-5.7556414058763106e-2,0.3736278455782977
-5.7556414058763106e-2,0.3436278455782977"/><polyline points="7.929285427024435e-2,0.3736278455782977
7.929285427024435e-2,0.3436278455782977"/><polyline points="0.2161421225992517,0.3736278455782977
0.2161421225992517,0.3436278455782977"/><polyline points="0.35299139092825915,0.3736278455782977
0.35299139092825915,0.3436278455782977"/><polyline points="0.4898406592572666,0.3736278455782977
0.4898406592572666,0.3436278455782977"/></g></g><g class="ticktext"><g fill="rgb(5%, 5%, 5%)" stroke="none" stroke-width="0.0" font-size="4.105478049870223e-2" fill-opacity="1.0" text-anchor="end"><text x="-0.3312549507167779" y="0.4098438853987152" transform="rotate(-45.0, -0.3312549507167779, 0.4098438853987152)">-1.50</text><text x="-0.19440568238777053" y="0.4098438853987152" transform="rotate(-45.0, -0.19440568238777053, 0.4098438853987152)">-1.00</text><text x="-5.7556414058763106e-2" y="0.4098438853987152" transform="rotate(-45.0, -5.7556414058763106e-2, 0.4098438853987152)">-0.50</text><text x="7.929285427024435e-2" y="0.4098438853987152" transform="rotate(-45.0, 7.929285427024435e-2, 0.4098438853987152)"> 0.00</text><text x="0.2161421225992517" y="0.4098438853987152" transform="rotate(-45.0, 0.2161421225992517, 0.4098438853987152)"> 0.50</text><text x="0.35299139092825915" y="0.4098438853987152" transform="rotate(-45.0, 0.35299139092825915, 0.4098438853987152)"> 1.00</text><text x="0.4898406592572666" y="0.4098438853987152" transform="rotate(-45.0, 0.4898406592572666, 0.4098438853987152)"> 1.50</text></g></g><g class="ticklines"><g fill="none" stroke="rgb(5%, 5%, 5%)" stroke-width="5.0e-3" stroke-opacity="5.0e-2"><polyline points="-0.3312549507167779,0.33241491181194227
-0.3312549507167779,-0.4741368963836091"/><polyline points="-0.19440568238777053,0.33241491181194227
-0.19440568238777053,-0.4741368963836091"/><polyline points="-5.7556414058763106e-2,0.33241491181194227
-5.7556414058763106e-2,-0.4741368963836091"/><polyline points="7.929285427024435e-2,0.33241491181194227
7.929285427024435e-2,-0.4741368963836091"/><polyline points="0.2161421225992517,0.33241491181194227
0.2161421225992517,-0.4741368963836091"/><polyline points="0.35299139092825915,0.33241491181194227
0.35299139092825915,-0.4741368963836091"/><polyline points="0.4898406592572666,0.33241491181194227
0.4898406592572666,-0.4741368963836091"/></g></g></g><g class="axisbar"><g fill="rgb(5%, 5%, 5%)" stroke="rgb(0%, 0%, 0%)" stroke-width="0.0" fill-opacity="0.4" stroke-opacity="0.0"><rect x="-0.332897141936726" width="0.8243799924139406" y="0.34249680941438665" height="3.226207232782219e-3"/></g></g></g></g></svg>