<svg width="299.35880999196735" xmlns:xlink="http://www.w3.org/1999/xlink" xmlns="http://www.w3.org/2000/svg" viewBox="-0.52 -0.52077991311481 1.04 1.0422275529768836" height="300.0"><style>svg {
  color-scheme: light dark;
}
@media (prefers-color-scheme:dark) {
  svg {
    background-color: #f0f0f0;
  }
}</style><g stroke-opacity="0.4" fill="#0d0d0d" stroke="#0d0d0d" stroke-width="4.0e-3" fill-opacity="0.4"><g transform="rotate(-90.0, -0.3924553687088652, 0.35592430543805165)"><polyline points="-0.3924553687088652,0.37092430543805166
-0.3924553687088652,0.34092430543805163"/></g><g transform="rotate(-90.0, -0.3924553687088652, 0.2169191401212751)"><polyline points="-0.3924553687088652,0.23191914012127512
-0.3924553687088652,0.2019191401212751"/></g><g transform="rotate(-90.0, -0.3924553687088652, 7.791397480449858e-2)"><polyline points="-0.3924553687088652,9.291397480449858e-2
-0.3924553687088652,6.291397480449858e-2"/></g><g transform="rotate(-90.0, -0.3924553687088652, -6.109119051227807e-2)"><polyline points="-0.3924553687088652,-4.609119051227807e-2
-0.3924553687088652,-7.609119051227807e-2"/></g><g transform="rotate(-90.0, -0.3924553687088652, -0.2000963558290545)"><polyline points="-0.3924553687088652,-0.18509635582905448
-0.3924553687088652,-0.2150963558290545"/></g><g transform="rotate(-90.0, -0.3924553687088652, -0.33910152114583114)"><polyline points="-0.3924553687088652,-0.32410152114583113
-0.3924553687088652,-0.35410152114583116"/></g><g transform="rotate(-90.0, -0.3924553687088652, -0.47810668646260757)"><polyline points="-0.3924553687088652,-0.46310668646260755
-0.3924553687088652,-0.4931066864626076"/></g></g><g fill="#0d0d0d" stroke="none" stroke-width="0.0" font-size="4.2676440988545554e-2" fill-opacity="1.0" text-anchor="end"><text x="-0.42318240622061803" y="0.36739223157668577">-1.5</text><text x="-0.42318240622061803" y="0.22838706625990918">-1</text><text x="-0.42318240622061803" y="8.93819009431327e-2">-0.5</text><text x="-0.42318240622061803" y="-4.962326437364395e-2">0</text><text x="-0.42318240622061803" y="-0.18862842969042037">0.5</text><text x="-0.42318240622061803" y="-0.3276335950071969">1</text><text x="-0.42318240622061803" y="-0.46663876032397356">1.5</text></g><g stroke-opacity="5.0e-2" fill="none" stroke="#0d0d0d" stroke-width="5.0e-3"><polyline points="-0.3625818600168833,0.35592430543805165
0.4909469597540277,0.35592430543805165"/><polyline points="-0.3625818600168833,0.2169191401212751
0.4909469597540277,0.2169191401212751"/><polyline points="-0.3625818600168833,7.791397480449858e-2
0.4909469597540277,7.791397480449858e-2"/><polyline points="-0.3625818600168833,-6.109119051227807e-2
0.4909469597540277,-6.109119051227807e-2"/><polyline points="-0.3625818600168833,-0.2000963558290545
0.4909469597540277,-0.2000963558290545"/><polyline points="-0.3625818600168833,-0.33910152114583114
0.4909469597540277,-0.33910152114583114"/><polyline points="-0.3625818600168833,-0.47810668646260757
0.4909469597540277,-0.47810668646260757"/></g><g stroke-opacity="0.0" fill="#0d0d0d" stroke="#000000" stroke-width="0.0" fill-opacity="0.4"><rect width="3.4141152790836404e-3" x="-0.37879890759253065" y="-0.4797747484464091" height="0.8373671158682621"/></g><g stroke-opacity="0.4" fill="#0d0d0d" stroke="#0d0d0d" stroke-width="4.0e-3" fill-opacity="0.4"><polyline points="-0.3625818600168833,0.40011539015457476
-0.3625818600168833,0.37011539015457473"/><polyline points="-0.22032705672173153,0.40011539015457476
-0.22032705672173153,0.37011539015457473"/><polyline points="-7.80722534265797e-2,0.40011539015457476
-7.80722534265797e-2,0.37011539015457473"/><polyline points="6.418254986857219e-2,0.40011539015457476
6.418254986857219e-2,0.37011539015457473"/><polyline points="0.2064373531637239,0.40011539015457476
0.2064373531637239,0.37011539015457473"/><polyline points="0.34869215645887575,0.40011539015457476
0.34869215645887575,0.37011539015457473"/><polyline points="0.4909469597540277,0.40011539015457476
0.4909469597540277,0.37011539015457473"/></g><g fill="#0d0d0d" stroke="none" stroke-width="0.0" font-size="4.2676440988545554e-2" fill-opacity="1.0" text-anchor="end"><text x="-0.3625818600168833" y="0.43807635814026663" transform="rotate(-45.0, -0.3625818600168833, 0.43807635814026663)">-1.5</text><text x="-0.22032705672173153" y="0.43807635814026663" transform="rotate(-45.0, -0.22032705672173153, 0.43807635814026663)">-1</text><text x="-7.80722534265797e-2" y="0.43807635814026663" transform="rotate(-45.0, -7.80722534265797e-2, 0.43807635814026663)">-0.5</text><text x="6.418254986857219e-2" y="0.43807635814026663" transform="rotate(-45.0, 6.418254986857219e-2, 0.43807635814026663)">0</text><text x="0.2064373531637239" y="0.43807635814026663" transform="rotate(-45.0, 0.2064373531637239, 0.43807635814026663)">0.5</text><text x="0.34869215645887575" y="0.43807635814026663" transform="rotate(-45.0, 0.34869215645887575, 0.43807635814026663)">1</text><text x="0.4909469597540277" y="0.43807635814026663" transform="rotate(-45.0, 0.4909469597540277, 0.43807635814026663)">1.5</text></g><g stroke-opacity="5.0e-2" fill="none" stroke="#0d0d0d" stroke-width="5.0e-3"><polyline points="-0.3625818600168833,0.35592430543805165
-0.3625818600168833,-0.47810668646260757"/><polyline points="-0.22032705672173153,0.35592430543805165
-0.22032705672173153,-0.47810668646260757"/><polyline points="-7.80722534265797e-2,0.35592430543805165
-7.80722534265797e-2,-0.47810668646260757"/><polyline points="6.418254986857219e-2,0.35592430543805165
6.418254986857219e-2,-0.47810668646260757"/><polyline points="0.2064373531637239,0.35592430543805165
0.2064373531637239,-0.47810668646260757"/><polyline points="0.34869215645887575,0.35592430543805165
0.34869215645887575,-0.47810668646260757"/><polyline points="0.4909469597540277,0.35592430543805165
0.4909469597540277,-0.47810668646260757"/></g><g stroke-opacity="0.0" fill="#0d0d0d" stroke="#000000" stroke-width="0.0" fill-opacity="0.4"><rect width="0.8569429350499944" x="-0.3642889176564251" y="0.3684347703165616" height="3.3361239676026333e-3"/></g><g stroke-opacity="0.0" fill="#ffffff" stroke="#000000" stroke-width="0.0" fill-opacity="2.0e-2"><rect width="0.86206410796862" x="-0.36684950411573786" y="-0.4781066864626078" height="0.8382011468601628"/></g><g stroke-opacity="1.0" fill="#b05929" stroke="#a6cfe3" stroke-width="1.0e-2" fill-opacity="0.2"><path d="M 0.0642,-0.4036 A 0.14225480329515183 0.13900516531677656 -0.0 1 1 0.3487,0.0779 A 0.28450960659030367 0.2780103306335531 -0.0 0 0 0.2064,-0.1629 A 0.28450960659030367 0.2780103306335531 -0.0 0 0 0.0642,-0.4036 L 0.0642,-0.4036"/></g><g stroke-opacity="1.0" fill="#a6cfe3" stroke="#a6cfe3" stroke-width="1.0e-2" fill-opacity="0.2"><path d="M -0.2203,0.0779 A 0.14225480329515183 0.13900516531677656 -0.0 1 0 0.3487,0.0779 A 0.28450960659030367 0.2780103306335531 -0.0 0 1 0.0642,0.0779 A 0.28450960659030367 0.2780103306335531 -0.0 0 1 -0.2203,0.0779 L -0.2203,0.0779"/></g><g stroke-opacity="1.0" fill="#1f78b5" stroke="#a6cfe3" stroke-width="1.0e-2" fill-opacity="0.2"><path d="M -0.2203,0.0779 A 0.14225480329515183 0.13900516531677656 -0.0 1 1 0.0642,-0.4036 A 0.28450960659030367 0.2780103306335531 -0.0 0 0 -0.0781,-0.1629 A 0.28450960659030367 0.2780103306335531 -0.0 0 0 -0.2203,0.0779 L -0.2203,0.0779"/></g><g stroke-opacity="1.0" fill="#e31a1c" stroke="#a6cfe3" stroke-width="1.0e-2" fill-opacity="0.2"><path d="M 0.2064,-0.1629 A 0.28450960659030367 0.2780103306335531 -0.0 0 1 0.3487,0.0779 A 0.28450960659030367 0.2780103306335531 -0.0 0 1 0.0642,0.0779 A 0.28450960659030367 0.2780103306335531 -0.0 0 0 0.2064,-0.1629 L 0.2064,-0.1629"/></g><g stroke-opacity="1.0" fill="#b2de8a" stroke="#a6cfe3" stroke-width="1.0e-2" fill-opacity="0.2"><path d="M 0.0642,0.0779 A 0.28450960659030367 0.2780103306335531 -0.0 0 1 -0.2203,0.0779 A 0.28450960659030367 0.2780103306335531 -0.0 0 1 -0.0781,-0.1629 A 0.28450960659030367 0.2780103306335531 -0.0 0 0 0.0642,0.0779 L 0.0642,0.0779"/></g><g stroke-opacity="1.0" fill="#33a12b" stroke="#a6cfe3" stroke-width="1.0e-2" fill-opacity="0.2"><path d="M 0.0642,-0.4036 A 0.28450960659030367 0.2780103306335531 -0.0 0 1 0.2064,-0.1629 A 0.28450960659030367 0.2780103306335531 -0.0 0 0 -0.0781,-0.1629 A 0.28450960659030367 0.2780103306335531 -0.0 0 1 0.0642,-0.4036 L 0.0642,-0.4036"/></g><g stroke-opacity="1.0" fill="#fa9999" stroke="#a6cfe3" stroke-width="1.0e-2" fill-opacity="0.2"><path d="M 0.2064,-0.1629 A 0.28450960659030367 0.2780103306335531 -0.0 0 1 0.0642,0.0779 A 0.28450960659030367 0.2780103306335531 -0.0 0 1 -0.0781,-0.1629 A 0.28450960659030367 0.2780103306335531 -0.0 0 1 0.2064,-0.1629 L 0.2064,-0.1629"/></g></svg>