<svg height="300" viewBox="-0.4858 -0.4965 0.9845 0.9848" width="299" xmlns="http://www.w3.org/2000/svg" xmlns:xlink="http://www.w3.org/1999/xlink"><style>svg {
  color-scheme: light dark;
}
{
  .canvas g, .title g, .axisbar g, .ticktext g, .tickglyph g, .ticklines g, .legendContent g text {
    fill: rgb(5%, 5%, 5%);
  }
  .ticklines g, .tickglyph g, .legendBorder g {
    stroke: rgb(5%, 5%, 5%);
  }
  .legendBorder g {
    fill: rgb(94%, 94%, 94%);
  }
}
@media (prefers-color-scheme:dark) {
  .canvas g, .title g, .axisbar g, .ticktext g, .tickglyph g, .ticklines g, .legendContent g text {
    fill: rgb(94%, 94%, 94%);
  }
  .ticklines g, .tickglyph g, .legendBorder g {
    stroke: rgb(94%, 94%, 94%);
  }
  .legendBorder g {
    fill: rgb(5%, 5%, 5%);
  }
}</style><g class="chart"><g class="venn"><g fill="rgb(2%, 73%, 80%)" fill-opacity="(0.20" stroke="rgb(2%, 29%, 48%)" stroke-opacity="(1.0" stroke-width="0.0050"><path d="M 0.0687,-0.4008 A 0.1404 0.1368 0 1 1 0.3494,0.0733 A 0.2807 0.2737 0 0 0 0.2091,-0.1638 A 0.2807 0.2737 0 0 0 0.0687,-0.4008 L 0.0687,-0.4008"/></g><g fill="rgb(2%, 29%, 48%)" fill-opacity="(0.20" stroke="rgb(2%, 29%, 48%)" stroke-opacity="(1.0" stroke-width="0.0050"><path d="M -0.2120,0.0733 A 0.1404 0.1368 0 1 0 0.3494,0.0733 A 0.2807 0.2737 0 0 1 0.0687,0.0733 A 0.2807 0.2737 0 0 1 -0.2120,0.0733 L -0.2120,0.0733"/></g><g fill="rgb(66%, 7%, 55%)" fill-opacity="(0.20" stroke="rgb(2%, 29%, 48%)" stroke-opacity="(1.0" stroke-width="0.0050"><path d="M -0.2120,0.0733 A 0.1404 0.1368 0 1 1 0.0687,-0.4008 A 0.2807 0.2737 0 0 0 -0.0716,-0.1638 A 0.2807 0.2737 0 0 0 -0.2120,0.0733 L -0.2120,0.0733"/></g><g fill="rgb(96%, 60%, 92%)" fill-opacity="(0.20" stroke="rgb(2%, 29%, 48%)" stroke-opacity="(1.0" stroke-width="0.0050"><path d="M 0.2091,-0.1638 A 0.2807 0.2737 0 0 1 0.3494,0.0733 A 0.2807 0.2737 0 0 1 0.0687,0.0733 A 0.2807 0.2737 0 0 0 0.2091,-0.1638 L 0.2091,-0.1638"/></g><g fill="rgb(100%, 71%, 35%)" fill-opacity="(0.20" stroke="rgb(2%, 29%, 48%)" stroke-opacity="(1.0" stroke-width="0.0050"><path d="M 0.0687,0.0733 A 0.2807 0.2737 0 0 1 -0.2120,0.0733 A 0.2807 0.2737 0 0 1 -0.0716,-0.1638 A 0.2807 0.2737 0 0 0 0.0687,0.0733 L 0.0687,0.0733"/></g><g fill="rgb(73%, 34%, 1%)" fill-opacity="(0.20" stroke="rgb(2%, 29%, 48%)" stroke-opacity="(1.0" stroke-width="0.0050"><path d="M 0.0687,-0.4008 A 0.2807 0.2737 0 0 1 0.2091,-0.1638 A 0.2807 0.2737 0 0 0 -0.0716,-0.1638 A 0.2807 0.2737 0 0 1 0.0687,-0.4008 L 0.0687,-0.4008"/></g><g fill="rgb(21%, 29%, 7%)" fill-opacity="(0.20" stroke="rgb(2%, 29%, 48%)" stroke-opacity="(1.0" stroke-width="0.0050"><path d="M 0.2091,-0.1638 A 0.2807 0.2737 0 0 1 0.0687,0.0733 A 0.2807 0.2737 0 0 1 -0.0716,-0.1638 A 0.2807 0.2737 0 0 1 0.2091,-0.1638 L 0.2091,-0.1638"/></g></g></g><g class="hud"><g class="frame"><g fill="rgb(100%, 100%, 100%)" fill-opacity="(0.020" stroke="rgb(0%, 0%, 0%)" stroke-opacity="(0.0" stroke-width="0"><rect height="0.8231" width="0.8463" x="-0.3544" y="-0.4741"/></g></g><g class="axis"><g class="ticks"><g class="tickglyph"><g fill="rgb(5%, 5%, 5%)" fill-opacity="(0.40" stroke="rgb(5%, 5%, 5%)" stroke-opacity="(0.40" stroke-width="0.0040"><g transform="rotate(-90.0, -0.3797, 0.3469)"><polyline points="-0.3797,0.3619
-0.3797,0.3319"/></g><g transform="rotate(-90.0, -0.3797, 0.2101)"><polyline points="-0.3797,0.2251
-0.3797,0.1951"/></g><g transform="rotate(-90.0, -0.3797, 0.0733)"><polyline points="-0.3797,0.0883
-0.3797,0.0583"/></g><g transform="rotate(-90.0, -0.3797, -0.0636)"><polyline points="-0.3797,-0.0486
-0.3797,-0.0786"/></g><g transform="rotate(-90.0, -0.3797, -0.2004)"><polyline points="-0.3797,-0.1854
-0.3797,-0.2154"/></g><g transform="rotate(-90.0, -0.3797, -0.3373)"><polyline points="-0.3797,-0.3223
-0.3797,-0.3523"/></g><g transform="rotate(-90.0, -0.3797, -0.4741)"><polyline points="-0.3797,-0.4591
-0.3797,-0.4891"/></g></g></g><g class="ticktext"><g fill="rgb(5%, 5%, 5%)" fill-opacity="(1.0" font-size="0.0421" stroke="none" stroke-width="0.0" text-anchor="end"><text x="-0.4100" y="0.3582">-2.0</text><text x="-0.4100" y="0.2214">-1.0</text><text x="-0.4100" y="0.0845">-0.5</text><text x="-0.4100" y="-0.0523"> 0.0</text><text x="-0.4100" y="-0.1891"> 0.5</text><text x="-0.4100" y="-0.3260"> 1.0</text><text x="-0.4100" y="-0.4628"> 2.0</text></g></g><g class="ticklines"><g fill="none" stroke="rgb(5%, 5%, 5%)" stroke-opacity="(0.050" stroke-width="0.0050"><polyline points="-0.3523,0.3469 0.4898,0.3469"/><polyline points="-0.3523,0.2101 0.4898,0.2101"/><polyline points="-0.3523,0.0733 0.4898,0.0733"/><polyline points="-0.3523,-0.0636 0.4898,-0.0636"/><polyline points="-0.3523,-0.2004 0.4898,-0.2004"/><polyline points="-0.3523,-0.3373 0.4898,-0.3373"/><polyline points="-0.3523,-0.4741 0.4898,-0.4741"/></g></g></g><g class="axisbar"><g fill="rgb(5%, 5%, 5%)" fill-opacity="(0.40" stroke="rgb(0%, 0%, 0%)" stroke-opacity="(0.0" stroke-width="0"><rect height="0.8243" width="0.0034" x="-0.3662" y="-0.4758"/></g></g></g><g class="axis"><g class="ticks"><g class="tickglyph"><g fill="rgb(5%, 5%, 5%)" fill-opacity="(0.40" stroke="rgb(5%, 5%, 5%)" stroke-opacity="(0.40" stroke-width="0.0040"><polyline points="-0.3523,0.3886
-0.3523,0.3586"/><polyline points="-0.2120,0.3886
-0.2120,0.3586"/><polyline points="-0.0716,0.3886
-0.0716,0.3586"/><polyline points="0.0687,0.3886
0.0687,0.3586"/><polyline points="0.2091,0.3886
0.2091,0.3586"/><polyline points="0.3494,0.3886
0.3494,0.3586"/><polyline points="0.4898,0.3886
0.4898,0.3586"/></g></g><g class="ticktext"><g fill="rgb(5%, 5%, 5%)" fill-opacity="(1.0" font-size="0.0421" stroke="none" stroke-width="0.0" text-anchor="end"><text transform="rotate(-45.0, -0.3523, 0.4258)" x="-0.3523" y="0.4258">-2.0</text><text transform="rotate(-45.0, -0.2120, 0.4258)" x="-0.2120" y="0.4258">-1.0</text><text transform="rotate(-45.0, -0.0716, 0.4258)" x="-0.0716" y="0.4258">-0.5</text><text transform="rotate(-45.0, 0.0687, 0.4258)" x="0.0687" y="0.4258"> 0.0</text><text transform="rotate(-45.0, 0.2091, 0.4258)" x="0.2091" y="0.4258"> 0.5</text><text transform="rotate(-45.0, 0.3494, 0.4258)" x="0.3494" y="0.4258"> 1.0</text><text transform="rotate(-45.0, 0.4898, 0.4258)" x="0.4898" y="0.4258"> 2.0</text></g></g><g class="ticklines"><g fill="none" stroke="rgb(5%, 5%, 5%)" stroke-opacity="(0.050" stroke-width="0.0050"><polyline points="-0.3523,0.3469 -0.3523,-0.4741"/><polyline points="-0.2120,0.3469 -0.2120,-0.4741"/><polyline points="-0.0716,0.3469 -0.0716,-0.4741"/><polyline points="0.0687,0.3469 0.0687,-0.4741"/><polyline points="0.2091,0.3469 0.2091,-0.4741"/><polyline points="0.3494,0.3469 0.3494,-0.4741"/><polyline points="0.4898,0.3469 0.4898,-0.4741"/></g></g></g><g class="axisbar"><g fill="rgb(5%, 5%, 5%)" fill-opacity="(0.40" stroke="rgb(0%, 0%, 0%)" stroke-opacity="(0.0" stroke-width="0"><rect height="0.0033" width="0.8455" x="-0.3540" y="0.3572"/></g></g></g></g></svg>