<svg xmlns="http://www.w3.org/2000/svg" height="300.0" viewBox="-1.52 -1.52 3.04 3.04" width="300.0" xmlns:xlink="http://www.w3.org/1999/xlink"><g fill-opacity="1.0" font-size="0.8" stroke="none" stroke-width="0.0" fill="#1a0033" text-anchor="middle"><text transform="rotate(0.0, 0.0, 0.2)" x="0.0" y="0.2">λ</text></g><g stroke-opacity="1.0" fill-opacity="1.0" stroke="#ffffff" stroke-width="6.0e-2" fill="#0ea194"><path transform="translate(0.0, -0.0)" d="M0.0,-1.2320508075688774 A0.5 0.5 0.0 1 1 1.0,0.5 1.0 1.0 0.0 0 0 0.5,-0.3660254037844387 1.0 1.0 0.0 0 0 0.0,-1.2320508075688774 Z"/></g><g stroke-opacity="1.0" fill-opacity="1.0" stroke="#ffffff" stroke-width="6.0e-2" fill="#0a865a"><path transform="translate(0.0, -0.0)" d="M-1.0,0.5 A0.5 0.5 0.0 1 0 1.0,0.5 1.0 1.0 0.0 0 1 0.0,0.5 1.0 1.0 0.0 0 1 -1.0,0.5 Z"/></g><g stroke-opacity="1.0" fill-opacity="1.0" stroke="#ffffff" stroke-width="6.0e-2" fill="#9d1102"><path transform="translate(0.0, -0.0)" d="M-1.0,0.5 A0.5 0.5 0.0 1 1 0.0,-1.2320508075688774 1.0 1.0 0.0 0 0 -0.5,-0.3660254037844387 1.0 1.0 0.0 0 0 -1.0,0.5 Z"/></g><g stroke-opacity="1.0" fill-opacity="1.0" stroke="#ffffff" stroke-width="6.0e-2" fill="#f8a631"><path transform="translate(0.0, -0.0)" d="M0.0,-1.2320508075688774 A1.0 1.0 0.0 0 1 0.5,-0.3660254037844387 1.0 1.0 0.0 0 0 -0.5,-0.3660254037844387 1.0 1.0 0.0 0 1 0.0,-1.2320508075688774 Z"/></g><g stroke-opacity="1.0" fill-opacity="1.0" stroke="#ffffff" stroke-width="6.0e-2" fill="#695b1e"><path transform="translate(0.0, -0.0)" d="M0.5,-0.3660254037844387 A1.0 1.0 0.0 0 1 1.0,0.5 1.0 1.0 0.0 0 1 0.0,0.5 1.0 1.0 0.0 0 0 0.5,-0.3660254037844387 Z"/></g><g stroke-opacity="1.0" fill-opacity="1.0" stroke="#ffffff" stroke-width="6.0e-2" fill="#31331c"><path transform="translate(0.0, -0.0)" d="M0.0,0.5 A1.0 1.0 0.0 0 1 -1.0,0.5 1.0 1.0 0.0 0 1 -0.5,-0.3660254037844387 1.0 1.0 0.0 0 0 0.0,0.5 Z"/></g></svg>