<svg width="302.02163212349313" xmlns:xlink="http://www.w3.org/1999/xlink" xmlns="http://www.w3.org/2000/svg" viewBox="-0.62 -0.5531609947643978 1.155514898098931 1.1477802665735424" height="300.0"><style>svg {
  color-scheme: light dark;
}
@media (prefers-color-scheme:light) {
  svg {
    background-color: #0d0d0d;
  }
}</style><g stroke-opacity="0.0" fill="#f0f0f0" stroke="#000000" stroke-width="0.0" fill-opacity="5.0e-2"><rect width="0.9411498969440864" x="-0.4411498969440863" y="-0.5" height="0.9026900162484203"/></g><g stroke-opacity="5.0e-2" fill="none" stroke="#f0f0f0" stroke-width="5.0e-3"><polyline points="-0.4411498969440863,0.40269001624842027
0.5,0.40269001624842027"/><polyline points="-0.4411498969440863,0.252241680207017
0.5,0.252241680207017"/><polyline points="-0.4411498969440863,0.10179334416561353
0.5,0.10179334416561353"/><polyline points="-0.4411498969440863,-4.865499187578981e-2
0.5,-4.865499187578981e-2"/><polyline points="-0.4411498969440863,-0.1991033279171931
0.5,-0.1991033279171931"/><polyline points="-0.4411498969440863,-0.3495516639585964
0.5,-0.3495516639585964"/><polyline points="-0.4411498969440863,-0.5
0.5,-0.5"/></g><g fill="#f0f0f0" stroke="none" stroke-width="0.0" font-size="5.0e-2" fill-opacity="1.0" text-anchor="end"><text x="-0.5" y="0.41577902148402235">-1.5</text></g><g fill="#f0f0f0" stroke="none" stroke-width="0.0" font-size="5.0e-2" fill-opacity="1.0" text-anchor="end"><text x="-0.5" y="0.26533068544261906">-1</text></g><g fill="#f0f0f0" stroke="none" stroke-width="0.0" font-size="5.0e-2" fill-opacity="1.0" text-anchor="end"><text x="-0.5" y="0.11488234940121572">-0.5</text></g><g fill="#f0f0f0" stroke="none" stroke-width="0.0" font-size="5.0e-2" fill-opacity="1.0" text-anchor="end"><text x="-0.5" y="-3.556598664018773e-2">0</text></g><g fill="#f0f0f0" stroke="none" stroke-width="0.0" font-size="5.0e-2" fill-opacity="1.0" text-anchor="end"><text x="-0.5" y="-0.18601432268159102">0.5</text></g><g fill="#f0f0f0" stroke="none" stroke-width="0.0" font-size="5.0e-2" fill-opacity="1.0" text-anchor="end"><text x="-0.5" y="-0.3364626587229943">1</text></g><g fill="#f0f0f0" stroke="none" stroke-width="0.0" font-size="5.0e-2" fill-opacity="1.0" text-anchor="end"><text x="-0.5" y="-0.4869109947643978">1.5</text></g><g stroke-opacity="0.4" fill="#f0f0f0" stroke="#f0f0f0" stroke-width="2.0e-3" fill-opacity="0.4"><g transform="rotate(-90.0, -0.470796118697825, 0.40269001624842027)"><polyline points="-0.470796118697825,0.4176900162484203
-0.470796118697825,0.38769001624842025"/></g><g transform="rotate(-90.0, -0.470796118697825, 0.252241680207017)"><polyline points="-0.470796118697825,0.267241680207017
-0.470796118697825,0.23724168020701697"/></g><g transform="rotate(-90.0, -0.470796118697825, 0.10179334416561353)"><polyline points="-0.470796118697825,0.11679334416561353
-0.470796118697825,8.679334416561353e-2"/></g><g transform="rotate(-90.0, -0.470796118697825, -4.865499187578981e-2)"><polyline points="-0.470796118697825,-3.365499187578981e-2
-0.470796118697825,-6.365499187578981e-2"/></g><g transform="rotate(-90.0, -0.470796118697825, -0.1991033279171931)"><polyline points="-0.470796118697825,-0.18410332791719308
-0.470796118697825,-0.2141033279171931"/></g><g transform="rotate(-90.0, -0.470796118697825, -0.3495516639585964)"><polyline points="-0.470796118697825,-0.33455166395859637
-0.470796118697825,-0.3645516639585964"/></g><g transform="rotate(-90.0, -0.470796118697825, -0.5)"><polyline points="-0.470796118697825,-0.485
-0.470796118697825,-0.515"/></g></g><g stroke-opacity="0.0" fill="#f0f0f0" stroke="#000000" stroke-width="0.0" fill-opacity="0.4"><rect width="3.7645995877763627e-3" x="-0.45903174498602395" y="-0.5" height="0.9026900162484203"/></g><g stroke-opacity="5.0e-2" fill="none" stroke="#f0f0f0" stroke-width="5.0e-3"><polyline points="-0.4411498969440863,0.40269001624842027
-0.4411498969440863,-0.5"/><polyline points="-0.2842915807867386,0.40269001624842027
-0.2842915807867386,-0.5"/><polyline points="-0.12743326462939086,0.40269001624842027
-0.12743326462939086,-0.5"/><polyline points="2.9425051527956825e-2,0.40269001624842027
2.9425051527956825e-2,-0.5"/><polyline points="0.1862833676853045,0.40269001624842027
0.1862833676853045,-0.5"/><polyline points="0.3431416838426522,0.40269001624842027
0.3431416838426522,-0.5"/><polyline points="0.5,0.40269001624842027
0.5,-0.5"/></g><g fill="#f0f0f0" stroke="none" stroke-width="0.0" font-size="4.179310344827586e-2" fill-opacity="1.0" text-anchor="end"><text x="-0.4411498969440863" y="0.5" transform="rotate(-45.0, -0.4411498969440863, 0.5)">-1.5</text></g><g fill="#f0f0f0" stroke="none" stroke-width="0.0" font-size="4.179310344827586e-2" fill-opacity="1.0" text-anchor="end"><text x="-0.2842915807867386" y="0.5" transform="rotate(-45.0, -0.2842915807867386, 0.5)">-1</text></g><g fill="#f0f0f0" stroke="none" stroke-width="0.0" font-size="4.179310344827586e-2" fill-opacity="1.0" text-anchor="end"><text x="-0.12743326462939086" y="0.5" transform="rotate(-45.0, -0.12743326462939086, 0.5)">-0.5</text></g><g fill="#f0f0f0" stroke="none" stroke-width="0.0" font-size="4.179310344827586e-2" fill-opacity="1.0" text-anchor="end"><text x="2.9425051527956825e-2" y="0.5" transform="rotate(-45.0, 2.9425051527956825e-2, 0.5)">0</text></g><g fill="#f0f0f0" stroke="none" stroke-width="0.0" font-size="4.179310344827586e-2" fill-opacity="1.0" text-anchor="end"><text x="0.1862833676853045" y="0.5" transform="rotate(-45.0, 0.1862833676853045, 0.5)">0.5</text></g><g fill="#f0f0f0" stroke="none" stroke-width="0.0" font-size="4.179310344827586e-2" fill-opacity="1.0" text-anchor="end"><text x="0.3431416838426522" y="0.5" transform="rotate(-45.0, 0.3431416838426522, 0.5)">1</text></g><g fill="#f0f0f0" stroke="none" stroke-width="0.0" font-size="4.179310344827586e-2" fill-opacity="1.0" text-anchor="end"><text x="0.5" y="0.5" transform="rotate(-45.0, 0.5, 0.5)">1.5</text></g><g stroke-opacity="0.4" fill="#f0f0f0" stroke="#f0f0f0" stroke-width="2.0e-3" fill-opacity="0.4"><polyline points="-0.4411498969440863,0.4461247517602456
-0.4411498969440863,0.41612475176024555"/><polyline points="-0.2842915807867386,0.4461247517602456
-0.2842915807867386,0.41612475176024555"/><polyline points="-0.12743326462939086,0.4461247517602456
-0.12743326462939086,0.41612475176024555"/><polyline points="2.9425051527956825e-2,0.4461247517602456
2.9425051527956825e-2,0.41612475176024555"/><polyline points="0.1862833676853045,0.4461247517602456
0.1862833676853045,0.41612475176024555"/><polyline points="0.3431416838426522,0.4461247517602456
0.3431416838426522,0.41612475176024555"/><polyline points="0.5,0.4461247517602456
0.5,0.41612475176024555"/></g><g stroke-opacity="0.0" fill="#f0f0f0" stroke="#000000" stroke-width="0.0" fill-opacity="0.4"><rect width="0.9411498969440864" x="-0.4411498969440863" y="0.4162303664921466" height="3.6107600649936678e-3"/></g><g stroke-opacity="1.0" fill="#b05929" stroke="#a6cfe3" stroke-width="1.0e-2" fill-opacity="0.2"><path d="M 0.0294,-0.4194 A 0.15685831615734772 0.15044833604140337 -0.0 1 1 0.3431,0.1018 A 0.31371663231469543 0.30089667208280674 -0.0 0 0 0.1863,-0.1588 A 0.31371663231469543 0.30089667208280674 -0.0 0 0 0.0294,-0.4194 L 0.0294,-0.4194"/></g><g stroke-opacity="1.0" fill="#a6cfe3" stroke="#a6cfe3" stroke-width="1.0e-2" fill-opacity="0.2"><path d="M -0.2843,0.1018 A 0.15685831615734772 0.15044833604140337 -0.0 1 0 0.3431,0.1018 A 0.31371663231469543 0.30089667208280674 -0.0 0 1 0.0294,0.1018 A 0.31371663231469543 0.30089667208280674 -0.0 0 1 -0.2843,0.1018 L -0.2843,0.1018"/></g><g stroke-opacity="1.0" fill="#1f78b5" stroke="#a6cfe3" stroke-width="1.0e-2" fill-opacity="0.2"><path d="M -0.2843,0.1018 A 0.15685831615734772 0.15044833604140337 -0.0 1 1 0.0294,-0.4194 A 0.31371663231469543 0.30089667208280674 -0.0 0 0 -0.1274,-0.1588 A 0.31371663231469543 0.30089667208280674 -0.0 0 0 -0.2843,0.1018 L -0.2843,0.1018"/></g><g stroke-opacity="1.0" fill="#e31a1c" stroke="#a6cfe3" stroke-width="1.0e-2" fill-opacity="0.2"><path d="M 0.1863,-0.1588 A 0.31371663231469543 0.30089667208280674 -0.0 0 1 0.3431,0.1018 A 0.31371663231469543 0.30089667208280674 -0.0 0 1 0.0294,0.1018 A 0.31371663231469543 0.30089667208280674 -0.0 0 0 0.1863,-0.1588 L 0.1863,-0.1588"/></g><g stroke-opacity="1.0" fill="#b2de8a" stroke="#a6cfe3" stroke-width="1.0e-2" fill-opacity="0.2"><path d="M 0.0294,0.1018 A 0.31371663231469543 0.30089667208280674 -0.0 0 1 -0.2843,0.1018 A 0.31371663231469543 0.30089667208280674 -0.0 0 1 -0.1274,-0.1588 A 0.31371663231469543 0.30089667208280674 -0.0 0 0 0.0294,0.1018 L 0.0294,0.1018"/></g><g stroke-opacity="1.0" fill="#33a12b" stroke="#a6cfe3" stroke-width="1.0e-2" fill-opacity="0.2"><path d="M 0.0294,-0.4194 A 0.31371663231469543 0.30089667208280674 -0.0 0 1 0.1863,-0.1588 A 0.31371663231469543 0.30089667208280674 -0.0 0 0 -0.1274,-0.1588 A 0.31371663231469543 0.30089667208280674 -0.0 0 1 0.0294,-0.4194 L 0.0294,-0.4194"/></g><g stroke-opacity="1.0" fill="#fa9999" stroke="#a6cfe3" stroke-width="1.0e-2" fill-opacity="0.2"><path d="M 0.1863,-0.1588 A 0.31371663231469543 0.30089667208280674 -0.0 0 1 0.0294,0.1018 A 0.31371663231469543 0.30089667208280674 -0.0 0 1 -0.1274,-0.1588 A 0.31371663231469543 0.30089667208280674 -0.0 0 1 0.1863,-0.1588 L 0.1863,-0.1588"/></g><g></g></svg>