<svg xmlns="http://www.w3.org/2000/svg" height="300.0" viewBox="-0.62 -0.5531904665405744 1.155514898098931 1.1478097383497188" width="302.01387725468084" xmlns:xlink="http://www.w3.org/1999/xlink"><g stroke-opacity="0.0" fill-opacity="2.5e-2" stroke="#000000" stroke-width="0.0" fill="#808080"><rect height="0.900657479960371" width="0.9389010163603502" x="-0.4389010163603502" y="-0.5"/></g><g stroke-opacity="5.0e-2" stroke="#808080" stroke-width="5.0e-3" fill="none"><polyline points="-0.4389010163603502,0.4006574799603711
0.5,0.4006574799603711"/></g><g stroke-opacity="5.0e-2" stroke="#808080" stroke-width="5.0e-3" fill="none"><polyline points="-0.4389010163603502,0.250547899966976
0.5,0.250547899966976"/></g><g stroke-opacity="5.0e-2" stroke="#808080" stroke-width="5.0e-3" fill="none"><polyline points="-0.4389010163603502,0.10043831997358077
0.5,0.10043831997358077"/></g><g stroke-opacity="5.0e-2" stroke="#808080" stroke-width="5.0e-3" fill="none"><polyline points="-0.4389010163603502,-4.967126001981437e-2
0.5,-4.967126001981437e-2"/></g><g stroke-opacity="5.0e-2" stroke="#808080" stroke-width="5.0e-3" fill="none"><polyline points="-0.4389010163603502,-0.1997808400132095
0.5,-0.1997808400132095"/></g><g stroke-opacity="5.0e-2" stroke="#808080" stroke-width="5.0e-3" fill="none"><polyline points="-0.4389010163603502,-0.34989042000660453
0.5,-0.34989042000660453"/></g><g stroke-opacity="5.0e-2" stroke="#808080" stroke-width="5.0e-3" fill="none"><polyline points="-0.4389010163603502,-0.5
0.5,-0.5"/></g><g fill-opacity="1.0" font-size="5.0e-2" stroke="none" stroke-width="0.0" fill="#808080" text-anchor="end"><text x="-0.5" y="0.4137170134197965">-1.5</text></g><g fill-opacity="1.0" font-size="5.0e-2" stroke="none" stroke-width="0.0" fill="#808080" text-anchor="end"><text x="-0.5" y="0.26360743342640136">-1</text></g><g fill-opacity="1.0" font-size="5.0e-2" stroke="none" stroke-width="0.0" fill="#808080" text-anchor="end"><text x="-0.5" y="0.11349785343300617">-0.5</text></g><g fill-opacity="1.0" font-size="5.0e-2" stroke="none" stroke-width="0.0" fill="#808080" text-anchor="end"><text x="-0.5" y="-3.6611726560389024e-2">0</text></g><g fill-opacity="1.0" font-size="5.0e-2" stroke="none" stroke-width="0.0" fill="#808080" text-anchor="end"><text x="-0.5" y="-0.18672130655378405">0.5</text></g><g fill-opacity="1.0" font-size="5.0e-2" stroke="none" stroke-width="0.0" fill="#808080" text-anchor="end"><text x="-0.5" y="-0.3368308865471793">1</text></g><g fill-opacity="1.0" font-size="5.0e-2" stroke="none" stroke-width="0.0" fill="#808080" text-anchor="end"><text x="-0.5" y="-0.4869404665405743">1.5</text></g><g stroke-opacity="1.0" fill-opacity="1.0" stroke="#808080" stroke-width="5.0e-3" fill="#808080"><g transform="rotate(-90.0, -0.46941529939206156, 0.4006574799603711)"><polyline points="-0.46941529939206156,0.4156574799603711
-0.46941529939206156,0.3856574799603711"/></g><g transform="rotate(-90.0, -0.46941529939206156, 0.250547899966976)"><polyline points="-0.46941529939206156,0.26554789996697603
-0.46941529939206156,0.235547899966976"/></g><g transform="rotate(-90.0, -0.46941529939206156, 0.10043831997358077)"><polyline points="-0.46941529939206156,0.11543831997358077
-0.46941529939206156,8.543831997358077e-2"/></g><g transform="rotate(-90.0, -0.46941529939206156, -4.967126001981437e-2)"><polyline points="-0.46941529939206156,-3.467126001981437e-2
-0.46941529939206156,-6.467126001981437e-2"/></g><g transform="rotate(-90.0, -0.46941529939206156, -0.1997808400132095)"><polyline points="-0.46941529939206156,-0.1847808400132095
-0.46941529939206156,-0.21478084001320952"/></g><g transform="rotate(-90.0, -0.46941529939206156, -0.34989042000660453)"><polyline points="-0.46941529939206156,-0.3348904200066045
-0.46941529939206156,-0.36489042000660454"/></g><g transform="rotate(-90.0, -0.46941529939206156, -0.5)"><polyline points="-0.46941529939206156,-0.485
-0.46941529939206156,-0.515"/></g></g><g stroke-opacity="1.0" fill-opacity="1.0" stroke="#808080" stroke-width="0.0" fill="#808080"><rect height="0.900657479960371" width="4.694505081801803e-3" x="-0.4576790366875573" y="-0.5"/></g><g stroke-opacity="5.0e-2" stroke="#808080" stroke-width="5.0e-3" fill="none"><polyline points="-0.4389010163603502,0.4006574799603711
-0.4389010163603502,-0.5"/></g><g stroke-opacity="5.0e-2" stroke="#808080" stroke-width="5.0e-3" fill="none"><polyline points="-0.2824175136336252,0.4006574799603711
-0.2824175136336252,-0.5"/></g><g stroke-opacity="5.0e-2" stroke="#808080" stroke-width="5.0e-3" fill="none"><polyline points="-0.12593401090690015,0.4006574799603711
-0.12593401090690015,-0.5"/></g><g stroke-opacity="5.0e-2" stroke="#808080" stroke-width="5.0e-3" fill="none"><polyline points="3.0549491819824914e-2,0.4006574799603711
3.0549491819824914e-2,-0.5"/></g><g stroke-opacity="5.0e-2" stroke="#808080" stroke-width="5.0e-3" fill="none"><polyline points="0.18703299454654987,0.4006574799603711
0.18703299454654987,-0.5"/></g><g stroke-opacity="5.0e-2" stroke="#808080" stroke-width="5.0e-3" fill="none"><polyline points="0.3435164972732748,0.4006574799603711
0.3435164972732748,-0.5"/></g><g stroke-opacity="5.0e-2" stroke="#808080" stroke-width="5.0e-3" fill="none"><polyline points="0.5,0.4006574799603711
0.5,-0.5"/></g><g fill-opacity="1.0" font-size="4.179310344827586e-2" stroke="none" stroke-width="0.0" fill="#808080" text-anchor="end"><text transform="rotate(-45.0, -0.4389010163603502, 0.5)" x="-0.4389010163603502" y="0.5">-1.5</text></g><g fill-opacity="1.0" font-size="4.179310344827586e-2" stroke="none" stroke-width="0.0" fill="#808080" text-anchor="end"><text transform="rotate(-45.0, -0.2824175136336252, 0.5)" x="-0.2824175136336252" y="0.5">-1</text></g><g fill-opacity="1.0" font-size="4.179310344827586e-2" stroke="none" stroke-width="0.0" fill="#808080" text-anchor="end"><text transform="rotate(-45.0, -0.12593401090690015, 0.5)" x="-0.12593401090690015" y="0.5">-0.5</text></g><g fill-opacity="1.0" font-size="4.179310344827586e-2" stroke="none" stroke-width="0.0" fill="#808080" text-anchor="end"><text transform="rotate(-45.0, 3.0549491819824914e-2, 0.5)" x="3.0549491819824914e-2" y="0.5">0</text></g><g fill-opacity="1.0" font-size="4.179310344827586e-2" stroke="none" stroke-width="0.0" fill="#808080" text-anchor="end"><text transform="rotate(-45.0, 0.18703299454654987, 0.5)" x="0.18703299454654987" y="0.5">0.5</text></g><g fill-opacity="1.0" font-size="4.179310344827586e-2" stroke="none" stroke-width="0.0" fill="#808080" text-anchor="end"><text transform="rotate(-45.0, 0.3435164972732748, 0.5)" x="0.3435164972732748" y="0.5">1</text></g><g fill-opacity="1.0" font-size="4.179310344827586e-2" stroke="none" stroke-width="0.0" fill="#808080" text-anchor="end"><text transform="rotate(-45.0, 0.5, 0.5)" x="0.5" y="0.5">1.5</text></g><g stroke-opacity="1.0" fill-opacity="1.0" stroke="#808080" stroke-width="5.0e-3" fill="#808080"><polyline points="-0.4389010163603502,0.4449288480590831
-0.4389010163603502,0.4149288480590831"/><polyline points="-0.2824175136336252,0.4449288480590831
-0.2824175136336252,0.4149288480590831"/><polyline points="-0.12593401090690015,0.4449288480590831
-0.12593401090690015,0.4149288480590831"/><polyline points="3.0549491819824914e-2,0.4449288480590831
3.0549491819824914e-2,0.4149288480590831"/><polyline points="0.18703299454654987,0.4449288480590831
0.18703299454654987,0.4149288480590831"/><polyline points="0.3435164972732748,0.4449288480590831
0.3435164972732748,0.4149288480590831"/><polyline points="0.5,0.4449288480590831
0.5,0.4149288480590831"/></g><g stroke-opacity="1.0" fill-opacity="1.0" stroke="#808080" stroke-width="0.0" fill="#808080"><rect height="4.503287399801881e-3" width="0.9389010163603502" x="-0.4389010163603502" y="0.4141673421597767"/></g><g stroke-opacity="0.8" fill-opacity="0.2" stroke="#1f78b4" stroke-width="1.0e-2" fill="#a6cee3"><path d="M 0.0305,-0.4196 A 0.15648350272672504 0.15010957999339516 -0.0 1 1 0.3435,0.1004 A 0.3129670054534501 0.30021915998679033 -0.0 0 0 0.1870,-0.1596 A 0.3129670054534501 0.30021915998679033 -0.0 0 0 0.0305,-0.4196 L 0.0305,-0.4196"/></g><g stroke-opacity="0.8" fill-opacity="0.2" stroke="#1f78b4" stroke-width="1.0e-2" fill="#1f78b4"><path d="M -0.2824,0.1004 A 0.15648350272672504 0.15010957999339516 -0.0 1 0 0.3435,0.1004 A 0.3129670054534501 0.30021915998679033 -0.0 0 1 0.0305,0.1004 A 0.3129670054534501 0.30021915998679033 -0.0 0 1 -0.2824,0.1004 L -0.2824,0.1004"/></g><g stroke-opacity="0.8" fill-opacity="0.2" stroke="#1f78b4" stroke-width="1.0e-2" fill="#e31a1c"><path d="M -0.2824,0.1004 A 0.15648350272672504 0.15010957999339516 -0.0 1 1 0.0305,-0.4196 A 0.3129670054534501 0.30021915998679033 -0.0 0 0 -0.1259,-0.1596 A 0.3129670054534501 0.30021915998679033 -0.0 0 0 -0.2824,0.1004 L -0.2824,0.1004"/></g><g stroke-opacity="0.8" fill-opacity="0.2" stroke="#1f78b4" stroke-width="1.0e-2" fill="#b2df8a"><path d="M 0.1870,-0.1596 A 0.3129670054534501 0.30021915998679033 -0.0 0 1 0.3435,0.1004 A 0.3129670054534501 0.30021915998679033 -0.0 0 1 0.0305,0.1004 A 0.3129670054534501 0.30021915998679033 -0.0 0 0 0.1870,-0.1596 L 0.1870,-0.1596"/></g><g stroke-opacity="0.8" fill-opacity="0.2" stroke="#1f78b4" stroke-width="1.0e-2" fill="#33a02c"><path d="M 0.0305,0.1004 A 0.3129670054534501 0.30021915998679033 -0.0 0 1 -0.2824,0.1004 A 0.3129670054534501 0.30021915998679033 -0.0 0 1 -0.1259,-0.1596 A 0.3129670054534501 0.30021915998679033 -0.0 0 0 0.0305,0.1004 L 0.0305,0.1004"/></g><g stroke-opacity="0.8" fill-opacity="0.2" stroke="#1f78b4" stroke-width="1.0e-2" fill="#fb9a99"><path d="M 0.0305,-0.4196 A 0.3129670054534501 0.30021915998679033 -0.0 0 1 0.1870,-0.1596 A 0.3129670054534501 0.30021915998679033 -0.0 0 0 -0.1259,-0.1596 A 0.3129670054534501 0.30021915998679033 -0.0 0 1 0.0305,-0.4196 L 0.0305,-0.4196"/></g><g stroke-opacity="0.8" fill-opacity="0.2" stroke="#1f78b4" stroke-width="1.0e-2" fill="#fdbf6f"><path d="M 0.1870,-0.1596 A 0.3129670054534501 0.30021915998679033 -0.0 0 1 0.0305,0.1004 A 0.3129670054534501 0.30021915998679033 -0.0 0 1 -0.1259,-0.1596 A 0.3129670054534501 0.30021915998679033 -0.0 0 1 0.1870,-0.1596 L 0.1870,-0.1596"/></g><g></g></svg>