<svg width="443.76016531091926" xmlns:xlink="http://www.w3.org/1999/xlink" xmlns="http://www.w3.org/2000/svg" viewBox="-0.7706954022988506 -0.5210215759849907 1.541390804597701 1.0420431519699813" height="300.0"><style>svg {
  color-scheme: light dark;
}
@media (prefers-color-scheme:dark) {
  svg {
    background-color: #f0f0f0;
  }
}</style><g stroke-opacity="1.0" fill="#a6cfe3" stroke="#1f78b5" stroke-width="3.0e-3" fill-opacity="1.0"><rect width="3.0000000000000027e-2" x="-0.7491954022988506" y="-1.5e-2" height="3.0e-2"/><rect width="3.0000000000000027e-2" x="-0.7002490421455939" y="-0.11629259151546543" height="3.0e-2"/><rect width="3.0000000000000027e-2" x="-0.6513026819923372" y="-0.21315821072592378" height="3.0000000000000027e-2"/><rect width="3.0000000000000027e-2" x="-0.6023563218390805" y="-0.30136336525906693" height="3.0000000000000027e-2"/><rect width="3.0000000000000027e-2" x="-0.5534099616858238" y="-0.37705306660650584" height="3.0000000000000027e-2"/><rect width="2.999999999999997e-2" x="-0.5044636015325671" y="-0.43691931161987385" height="3.0000000000000027e-2"/><rect width="3.0000000000000027e-2" x="-0.45551724137931043" y="-0.47834565812197116" height="3.0000000000000027e-2"/><rect width="3.0000000000000027e-2" x="-0.40657088122605367" y="-0.4995215759849907" height="3.0000000000000027e-2"/><rect width="3.0000000000000027e-2" x="-0.35762452107279696" y="-0.4995215759849907" height="3.0000000000000027e-2"/><rect width="3.0000000000000027e-2" x="-0.3086781609195404" y="-0.4783456581219714" height="3.0000000000000027e-2"/><rect width="3.0000000000000027e-2" x="-0.25973180076628366" y="-0.4369193116198741" height="3.0000000000000027e-2"/><rect width="3.0000000000000027e-2" x="-0.21078544061302706" y="-0.37705306660650606" height="3.0000000000000027e-2"/><rect width="3.0000000000000027e-2" x="-0.16183908045977025" y="-0.30136336525906704" height="3.0000000000000027e-2"/><rect width="3.0e-2" x="-0.11289272030651364" y="-0.2131582107259239" height="3.0000000000000027e-2"/><rect width="3.0e-2" x="-6.39463601532567e-2" y="-0.11629259151546566" height="3.0e-2"/><rect width="3.0e-2" x="-1.500000000000011e-2" y="-1.500000000000011e-2" height="3.0e-2"/><rect width="3.0e-2" x="3.394636015325671e-2" y="8.629259151546516e-2" height="3.0e-2"/><rect width="3.0e-2" x="8.289272030651341e-2" y="0.18315821072592348" height="3.0000000000000027e-2"/><rect width="3.0000000000000027e-2" x="0.13183908045976978" y="0.27136336525906685" height="3.0000000000000027e-2"/><rect width="3.0000000000000027e-2" x="0.1807854406130267" y="0.3470530666065057" height="3.0000000000000027e-2"/><rect width="3.0000000000000027e-2" x="0.2297318007662833" y="0.40691931161987366" height="3.0000000000000027e-2"/><rect width="3.0000000000000027e-2" x="0.27867816091954023" y="0.4483456581219711" height="3.0000000000000027e-2"/><rect width="3.0000000000000027e-2" x="0.3276245210727967" y="0.46952157598499056" height="3.0000000000000027e-2"/><rect width="3.0000000000000027e-2" x="0.3765708812260534" y="0.46952157598499067" height="3.0000000000000027e-2"/><rect width="3.0000000000000027e-2" x="0.42551724137931035" y="0.44834565812197114" height="3.0000000000000027e-2"/><rect width="3.0000000000000027e-2" x="0.47446360153256706" y="0.40691931161987394" height="3.0000000000000027e-2"/><rect width="3.0000000000000027e-2" x="0.5234099616858233" y="0.34705306660650603" height="3.0000000000000027e-2"/><rect width="3.0000000000000027e-2" x="0.5723563218390803" y="0.27136336525906696" height="3.0000000000000027e-2"/><rect width="3.0000000000000027e-2" x="0.621302681992337" y="0.18315821072592398" height="3.0000000000000027e-2"/><rect width="3.0000000000000027e-2" x="0.6702490421455937" y="8.629259151546555e-2" height="3.0e-2"/><rect width="3.0000000000000027e-2" x="0.7191954022988504" y="-1.4999999999999888e-2" height="3.0e-2"/></g></svg>