<svg width="450.0" xmlns:xlink="http://www.w3.org/1999/xlink" xmlns="http://www.w3.org/2000/svg" viewBox="-0.75 -0.5 1.5 1.0" height="300.0"><style>svg {
  color-scheme: light dark;
}
{
  .canvas g, .title g, .axisbar g, .ticktext g, .tickglyph g, .ticklines g, .legendContent g text {
    fill: #0d0d0d;
  }
  .ticklines g, .tickglyph g, .legendBorder g {
    stroke: #0d0d0d;
  }
}
@media (prefers-color-scheme:dark) {
  .canvas g, .title g, .axisbar g, .ticktext g, .tickglyph g, .ticklines g, .legendContent g text {
    fill: #f0f0f0;
  }
  .ticklines g, .tickglyph g, .legendBorder g {
    stroke: #f0f0f0;
  }
}</style><g class="chart"><g class="wave"><g stroke-opacity="1.0" fill="#a6cfe3" stroke="#1f78b5" stroke-width="3.0e-3" fill-opacity="1.0"><rect width="3.0000000000000027e-2" x="-0.7485" y="-1.5e-2" height="3.0e-2"/><rect width="3.0000000000000027e-2" x="-0.6996" y="-0.11607902397982094" height="3.0e-2"/><rect width="3.0000000000000027e-2" x="-0.6507000000000001" y="-0.21274040958075335" height="3.0000000000000027e-2"/><rect width="3.0000000000000027e-2" x="-0.6018" y="-0.3007595904192468" height="3.0000000000000027e-2"/><rect width="3.0000000000000027e-2" x="-0.5529000000000001" y="-0.3762897059297692" height="3.0000000000000027e-2"/><rect width="2.999999999999997e-2" x="-0.504" y="-0.43602972763080494" height="3.0000000000000027e-2"/><rect width="3.0000000000000027e-2" x="-0.4551" y="-0.4773687299095901" height="3.0000000000000027e-2"/><rect width="3.0000000000000027e-2" x="-0.40620000000000006" y="-0.49850000000000005" height="3.0000000000000027e-2"/><rect width="3.0000000000000027e-2" x="-0.35730000000000006" y="-0.49850000000000005" height="3.0000000000000027e-2"/><rect width="3.0000000000000027e-2" x="-0.3084000000000001" y="-0.47736872990959023" height="3.0000000000000027e-2"/><rect width="3.0000000000000027e-2" x="-0.25950000000000006" y="-0.43602972763080516" height="3.0000000000000027e-2"/><rect width="3.0000000000000027e-2" x="-0.21060000000000012" y="-0.3762897059297694" height="3.0000000000000027e-2"/><rect width="3.0000000000000027e-2" x="-0.16169999999999995" y="-0.30075959041924694" height="3.0000000000000027e-2"/><rect width="3.0e-2" x="-0.11280000000000011" y="-0.21274040958075346" height="3.0000000000000027e-2"/><rect width="3.0e-2" x="-6.390000000000005e-2" y="-0.11607902397982116" height="3.0e-2"/><rect width="3.0e-2" x="-1.5e-2" y="-1.500000000000011e-2" height="3.0e-2"/><rect width="3.0e-2" x="3.3899999999999944e-2" y="8.607902397982077e-2" height="3.0e-2"/><rect width="3.0e-2" x="8.28e-2" y="0.182740409580753" height="3.0000000000000027e-2"/><rect width="3.0000000000000027e-2" x="0.13169999999999982" y="0.2707595904192467" height="3.0000000000000027e-2"/><rect width="3.0000000000000027e-2" x="0.18059999999999998" y="0.34628970592976904" height="3.0000000000000027e-2"/><rect width="3.0000000000000027e-2" x="0.22949999999999993" y="0.40602972763080486" height="3.0000000000000027e-2"/><rect width="3.0000000000000027e-2" x="0.27839999999999987" y="0.44736872990959003" height="3.0000000000000027e-2"/><rect width="3.0000000000000027e-2" x="0.3272999999999998" y="0.46849999999999997" height="3.0000000000000027e-2"/><rect width="3.0000000000000027e-2" x="0.3762" y="0.4685" height="3.0000000000000027e-2"/><rect width="3.0000000000000027e-2" x="0.42510000000000014" y="0.4473687299095901" height="3.0000000000000027e-2"/><rect width="3.0000000000000027e-2" x="0.47399999999999987" y="0.4060297276308052" height="3.0000000000000027e-2"/><rect width="3.0000000000000027e-2" x="0.5228999999999998" y="0.3462897059297694" height="3.0000000000000027e-2"/><rect width="3.0000000000000027e-2" x="0.5718" y="0.2707595904192468" height="3.0000000000000027e-2"/><rect width="3.0000000000000027e-2" x="0.6206999999999999" y="0.18274040958075355" height="3.0000000000000027e-2"/><rect width="3.0000000000000027e-2" x="0.6695999999999999" y="8.60790239798211e-2" height="3.0e-2"/><rect width="3.0000000000000027e-2" x="0.7185" y="-1.4999999999999944e-2" height="3.0e-2"/></g></g></g><g class="hud"></g></svg>