<svg xmlns="http://www.w3.org/2000/svg" width="445.66691218957544" xmlns:xlink="http://www.w3.org/1999/xlink" viewBox="-0.7337586778163459 -0.49786990812511744 1.479175015777848 0.9957043985006302" height="300.0"><style>svg {
  color-scheme: light dark;
}
{
  .canvas g, .title g, .axisbar g, .ticktext g, .tickglyph g, .ticklines g, .legendContent g text {
    fill: #0d0d0d;
  }
  .ticklines g, .tickglyph g, .legendBorder g {
    stroke: #0d0d0d;
  }
}
@media (prefers-color-scheme:dark) {
  .canvas g, .title g, .axisbar g, .ticktext g, .tickglyph g, .ticklines g, .legendContent g text {
    fill: #f0f0f0;
  }
  .ticklines g, .tickglyph g, .legendBorder g {
    stroke: #f0f0f0;
  }
}</style><g class="chart"><g class="wave"><g fill="#a6cfe3" stroke="#1f78b5" stroke-width="3.0e-3" fill-opacity="1.0" stroke-opacity="1.0"><rect x="-0.5819103029346796" width="3.0000000000000027e-2" y="-5.681211862490497e-2" height="3.0e-2"/><rect x="-0.5435095975286989" width="3.0000000000000027e-2" y="-0.1469960821617482" height="3.0000000000000013e-2"/><rect x="-0.505108892122718" width="3.0000000000000027e-2" y="-0.23323857374136125" height="3.0000000000000027e-2"/><rect x="-0.4667081867167372" width="3.0000000000000027e-2" y="-0.3117703826443262" height="3.0000000000000027e-2"/><rect x="-0.4283074813107564" width="3.0000000000000027e-2" y="-0.37915929198415466" height="3.0000000000000027e-2"/><rect x="-0.38990677590477557" width="3.0000000000000027e-2" y="-0.4324600830548322" height="3.0000000000000027e-2"/><rect x="-0.3515060704987948" width="3.0000000000000027e-2" y="-0.46934325552099776" height="3.0000000000000027e-2"/><rect x="-0.31310536509281395" width="3.0000000000000027e-2" y="-0.4881968377607824" height="3.0000000000000027e-2"/><rect x="-0.27470465968683316" width="3.0000000000000027e-2" y="-0.4881968377607824" height="3.0000000000000027e-2"/><rect x="-0.23630395428085232" width="3.0000000000000027e-2" y="-0.46934325552099776" height="3.0000000000000027e-2"/><rect x="-0.19790324887487148" width="3.0000000000000027e-2" y="-0.4324600830548324" height="3.0000000000000027e-2"/><rect x="-0.15950254346889076" width="3.0000000000000027e-2" y="-0.3791592919841549" height="3.0000000000000027e-2"/><rect x="-0.12110183806290985" width="3.0e-2" y="-0.3117703826443262" height="3.0000000000000027e-2"/><rect x="-8.270113265692901e-2" width="3.0e-2" y="-0.23323857374136137" height="3.0000000000000027e-2"/><rect x="-4.430042725094839e-2" width="3.0e-2" y="-0.1469960821617482" height="3.0000000000000013e-2"/><rect x="-5.899721844967329e-3" width="3.0e-2" y="-5.681211862490508e-2" height="3.0e-2"/><rect x="3.25009835610134e-2" width="3.0e-2" y="3.337184491193797e-2" height="3.0e-2"/><rect x="7.090168896699424e-2" width="3.0e-2" y="0.11961433649155113" height="3.0000000000000013e-2"/><rect x="0.10930239437297508" width="3.0000000000000013e-2" y="0.19814614539451608" height="3.0000000000000027e-2"/><rect x="0.1477030997789558" width="3.0000000000000027e-2" y="0.2655350547343446" height="3.0000000000000027e-2"/><rect x="0.18610380518493652" width="3.0000000000000027e-2" y="0.31883584580502206" height="3.0000000000000027e-2"/><rect x="0.22450451059091747" width="3.0000000000000027e-2" y="0.3557190182711878" height="3.0000000000000027e-2"/><rect x="0.2629052159968982" width="3.0000000000000027e-2" y="0.3745726005109724" height="3.0000000000000027e-2"/><rect x="0.30130592140287915" width="3.0000000000000027e-2" y="0.3745726005109724" height="3.0000000000000027e-2"/><rect x="0.33970662680886" width="3.0000000000000027e-2" y="0.3557190182711878" height="3.0000000000000027e-2"/><rect x="0.3781073322148404" width="3.0000000000000027e-2" y="0.31883584580502233" height="3.0000000000000027e-2"/><rect x="0.41650803762082156" width="3.0000000000000027e-2" y="0.26553505473434486" height="3.0000000000000027e-2"/><rect x="0.4549087430268025" width="3.0000000000000027e-2" y="0.19814614539451614" height="3.0000000000000027e-2"/><rect x="0.493309448432783" width="3.0000000000000027e-2" y="0.11961433649155158" height="3.0000000000000013e-2"/><rect x="0.5317101538387642" width="3.0000000000000027e-2" y="3.3371844911938356e-2" height="3.0e-2"/><rect x="0.5701108592447447" width="3.0000000000000027e-2" y="-5.681211862490497e-2" height="3.0e-2"/></g></g></g><g class="hud"><g class="frame"><g fill="#ffffff" stroke="#000000" stroke-width="0.0" fill-opacity="2.0e-2" stroke-opacity="0.0"><rect x="-0.5810282423477436" width="1.297566976964342" y="-0.4875109476841367" height="0.8913976581184633"/></g></g><g class="axis"><g class="ticks"><g class="tickglyph"><g fill="#0d0d0d" stroke="#0d0d0d" stroke-width="4.0e-3" fill-opacity="0.4" stroke-opacity="0.4"><g transform="rotate(-90.0, -0.6066972230987693, 0.39194878814340184)"><polyline points="-0.6066972230987693,0.40694878814340185
-0.6066972230987693,0.3769487881434018"/></g><g transform="rotate(-90.0, -0.6066972230987693, 0.3051966067897405)"><polyline points="-0.6066972230987693,0.3201966067897405
-0.6066972230987693,0.29019660678974046"/></g><g transform="rotate(-90.0, -0.6066972230987693, 0.21844442543607906)"><polyline points="-0.6066972230987693,0.23344442543607907
-0.6066972230987693,0.20344442543607905"/></g><g transform="rotate(-90.0, -0.6066972230987693, 0.1316922440824177)"><polyline points="-0.6066972230987693,0.1466922440824177
-0.6066972230987693,0.1166922440824177"/></g><g transform="rotate(-90.0, -0.6066972230987693, 4.4940062728756336e-2)"><polyline points="-0.6066972230987693,5.9940062728756335e-2
-0.6066972230987693,2.9940062728756336e-2"/></g><g transform="rotate(-90.0, -0.6066972230987693, -4.181211862490497e-2)"><polyline points="-0.6066972230987693,-2.681211862490497e-2
-0.6066972230987693,-5.681211862490497e-2"/></g><g transform="rotate(-90.0, -0.6066972230987693, -0.12856429997856655)"><polyline points="-0.6066972230987693,-0.11356429997856655
-0.6066972230987693,-0.14356429997856657"/></g><g transform="rotate(-90.0, -0.6066972230987693, -0.2153164813322278)"><polyline points="-0.6066972230987693,-0.2003164813322278
-0.6066972230987693,-0.23031648133222782"/></g><g transform="rotate(-90.0, -0.6066972230987693, -0.30206866268588917)"><polyline points="-0.6066972230987693,-0.28706866268588915
-0.6066972230987693,-0.3170686626858892"/></g><g transform="rotate(-90.0, -0.6066972230987693, -0.38882084403955053)"><polyline points="-0.6066972230987693,-0.3738208440395505
-0.6066972230987693,-0.40382084403955054"/></g><g transform="rotate(-90.0, -0.6066972230987693, -0.4755730253932118)"><polyline points="-0.6066972230987693,-0.46057302539321177
-0.6066972230987693,-0.4905730253932118"/></g></g></g><g class="ticktext"><g fill="#0d0d0d" stroke="none" stroke-width="0.0" font-size="4.2781634585042604e-2" fill-opacity="1.0" text-anchor="end"><text x="-0.6375" y="0.4038772130795303">-1.0</text><text x="-0.6375" y="0.3171250317258689">-0.80</text><text x="-0.6375" y="0.2303728503722075">-0.60</text><text x="-0.6375" y="0.14362066901854614">-0.40</text><text x="-0.6375" y="5.686848766488478e-2">-0.20</text><text x="-0.6375" y="-2.9883693688776525e-2">0.0</text><text x="-0.6375" y="-0.116635875042438">0.20</text><text x="-0.6375" y="-0.20338805639609936">0.40</text><text x="-0.6375" y="-0.2901402377497606">0.60</text><text x="-0.6375" y="-0.3768924191034221">0.80</text><text x="-0.6375" y="-0.46364460045708333">1.0</text></g></g><g class="ticklines"><g fill="none" stroke="#0d0d0d" stroke-width="5.0e-3" stroke-opacity="5.0e-2"><polyline points="-0.5669103029346796,0.39194878814340184
0.7165387346165986,0.39194878814340184"/><polyline points="-0.5669103029346796,0.3051966067897405
0.7165387346165986,0.3051966067897405"/><polyline points="-0.5669103029346796,0.21844442543607906
0.7165387346165986,0.21844442543607906"/><polyline points="-0.5669103029346796,0.1316922440824177
0.7165387346165986,0.1316922440824177"/><polyline points="-0.5669103029346796,4.4940062728756336e-2
0.7165387346165986,4.4940062728756336e-2"/><polyline points="-0.5669103029346796,-4.181211862490497e-2
0.7165387346165986,-4.181211862490497e-2"/><polyline points="-0.5669103029346796,-0.12856429997856655
0.7165387346165986,-0.12856429997856655"/><polyline points="-0.5669103029346796,-0.2153164813322278
0.7165387346165986,-0.2153164813322278"/><polyline points="-0.5669103029346796,-0.30206866268588917
0.7165387346165986,-0.30206866268588917"/><polyline points="-0.5669103029346796,-0.38882084403955053
0.7165387346165986,-0.38882084403955053"/><polyline points="-0.5669103029346796,-0.4755730253932118
0.7165387346165986,-0.4755730253932118"/></g></g></g><g class="axisbar"><g fill="#0d0d0d" stroke="#000000" stroke-width="0.0" fill-opacity="0.4" stroke-opacity="0.0"><rect x="-0.5930071000315557" width="3.4225307668034333e-3" y="-0.4773080690202852" height="0.8709919007907603"/></g></g></g><g class="axis"><g class="ticks"><g class="tickglyph"><g fill="#0d0d0d" stroke="#0d0d0d" stroke-width="4.0e-3" fill-opacity="0.4" stroke-opacity="0.4"><polyline points="-0.5669103029346796,0.444912364840425
-0.5669103029346796,0.414912364840425"/><polyline points="-0.3835604404273542,0.444912364840425
-0.3835604404273542,0.414912364840425"/><polyline points="-0.20021057792002872,0.444912364840425
-0.20021057792002872,0.414912364840425"/><polyline points="-1.6860715412703398e-2,0.444912364840425
-1.6860715412703398e-2,0.414912364840425"/><polyline points="0.16648914709462204,0.444912364840425
0.16648914709462204,0.414912364840425"/><polyline points="0.34983900960194736,0.444912364840425
0.34983900960194736,0.414912364840425"/><polyline points="0.533188872109273,0.444912364840425
0.533188872109273,0.414912364840425"/><polyline points="0.7165387346165986,0.444912364840425
0.7165387346165986,0.414912364840425"/></g></g><g class="ticktext"><g fill="#0d0d0d" stroke="none" stroke-width="0.0" font-size="4.2781634585042604e-2" fill-opacity="1.0" text-anchor="middle"><text x="-0.5669103029346796" y="0.485">0.0</text><text x="-0.3835604404273542" y="0.485">1.0</text><text x="-0.20021057792002872" y="0.485">2.0</text><text x="-1.6860715412703398e-2" y="0.485">3.0</text><text x="0.16648914709462204" y="0.485">4.0</text><text x="0.34983900960194736" y="0.485">5.0</text><text x="0.533188872109273" y="0.485">6.0</text><text x="0.7165387346165986" y="0.485">7.0</text></g></g><g class="ticklines"><g fill="none" stroke="#0d0d0d" stroke-width="5.0e-3" stroke-opacity="5.0e-2"><polyline points="-0.5669103029346796,0.39194878814340184
-0.5669103029346796,-0.4755730253932118"/><polyline points="-0.3835604404273542,0.39194878814340184
-0.3835604404273542,-0.4755730253932118"/><polyline points="-0.20021057792002872,0.39194878814340184
-0.20021057792002872,-0.4755730253932118"/><polyline points="-1.6860715412703398e-2,0.39194878814340184
-1.6860715412703398e-2,-0.4755730253932118"/><polyline points="0.16648914709462204,0.39194878814340184
0.16648914709462204,-0.4755730253932118"/><polyline points="0.34983900960194736,0.39194878814340184
0.34983900960194736,-0.4755730253932118"/><polyline points="0.533188872109273,0.39194878814340184
0.533188872109273,-0.4755730253932118"/><polyline points="0.7165387346165986,0.39194878814340184
0.7165387346165986,-0.4755730253932118"/></g></g></g><g class="axisbar"><g fill="#0d0d0d" stroke="#000000" stroke-width="0.0" fill-opacity="0.4" stroke-opacity="0.0"><rect x="-0.5686215683180813" width="1.2868715683180814" y="0.4125619285696927" height="3.4700872541464922e-3"/></g></g></g></g></svg>