<svg xmlns="http://www.w3.org/2000/svg" xmlns:xlink="http://www.w3.org/1999/xlink" width="450" height="300" viewBox="-0.75 -0.5 1.5 1.0"><style>svg {
  color-scheme: light dark;
}
{
  .canvas g, .title g, .axisbar g, .ticktext g, .tickglyph g, .ticklines g, .legendContent g text {
    fill: rgb(5%, 5%, 5%);
  }
  .ticklines g, .tickglyph g, .legendBorder g {
    stroke: rgb(5%, 5%, 5%);
  }
  .legendBorder g {
    fill: rgb(94%, 94%, 94%);
  }
}
@media (prefers-color-scheme:dark) {
  .canvas g, .title g, .axisbar g, .ticktext g, .tickglyph g, .ticklines g, .legendContent g text {
    fill: rgb(94%, 94%, 94%);
  }
  .ticklines g, .tickglyph g, .legendBorder g {
    stroke: rgb(94%, 94%, 94%);
  }
  .legendBorder g {
    fill: rgb(5%, 5%, 5%);
  }
}</style><g class="chart"><g class="wave"><g stroke-width="0.0030" stroke="rgb(2%, 29%, 48%)" stroke-opacity="1.0" fill="rgb(2%, 73%, 80%)" fill-opacity="0.2"><rect width="0.0300" height="0.0300" x="-0.5839" y="-0.0544"/><rect width="0.0300" height="0.0300" x="-0.5458" y="-0.1389"/><rect width="0.0300" height="0.0300" x="-0.5076" y="-0.2196"/><rect width="0.0300" height="0.0300" x="-0.4694" y="-0.2932"/><rect width="0.0300" height="0.0300" x="-0.4313" y="-0.3563"/><rect width="0.0300" height="0.0300" x="-0.3931" y="-0.4062"/><rect width="0.0300" height="0.0300" x="-0.3550" y="-0.4407"/><rect width="0.0300" height="0.0300" x="-0.3168" y="-0.4584"/><rect width="0.0300" height="0.0300" x="-0.2787" y="-0.4584"/><rect width="0.0300" height="0.0300" x="-0.2405" y="-0.4407"/><rect width="0.0300" height="0.0300" x="-0.2024" y="-0.4062"/><rect width="0.0300" height="0.0300" x="-0.1642" y="-0.3563"/><rect width="0.0300" height="0.0300" x="-0.1261" y="-0.2932"/><rect width="0.0300" height="0.0300" x="-0.0879" y="-0.2196"/><rect width="0.0300" height="0.0300" x="-0.0497" y="-0.1389"/><rect width="0.0300" height="0.0300" x="-0.0116" y="-0.0544"/><rect width="0.0300" height="0.0300" x="0.0266" y="0.0300"/><rect width="0.0300" height="0.0300" x="0.0647" y="0.1108"/><rect width="0.0300" height="0.0300" x="0.1029" y="0.1843"/><rect width="0.0300" height="0.0300" x="0.1410" y="0.2474"/><rect width="0.0300" height="0.0300" x="0.1792" y="0.2973"/><rect width="0.0300" height="0.0300" x="0.2173" y="0.3318"/><rect width="0.0300" height="0.0300" x="0.2555" y="0.3495"/><rect width="0.0300" height="0.0300" x="0.2937" y="0.3495"/><rect width="0.0300" height="0.0300" x="0.3318" y="0.3318"/><rect width="0.0300" height="0.0300" x="0.3700" y="0.2973"/><rect width="0.0300" height="0.0300" x="0.4081" y="0.2474"/><rect width="0.0300" height="0.0300" x="0.4463" y="0.1843"/><rect width="0.0300" height="0.0300" x="0.4844" y="0.1108"/><rect width="0.0300" height="0.0300" x="0.5226" y="0.0300"/><rect width="0.0300" height="0.0300" x="0.5607" y="-0.0544"/></g></g></g><g class="hud"><g class="frame"><g stroke-width="0" stroke="rgb(0%, 0%, 0%)" stroke-opacity="0" fill="rgb(100%, 100%, 100%)" fill-opacity="0.02"><rect width="1.2893" height="0.8350" x="-0.5830" y="-0.4569"/></g></g><g class="axis"><g class="ticks"><g class="tickglyph"><g stroke-width="0.0040" stroke="rgb(5%, 5%, 5%)" stroke-opacity="0.4" fill="rgb(5%, 5%, 5%)" fill-opacity="0.4"><g transform="rotate(-90.0, -0.6085, 0.3667)"><polyline points="-0.6085,0.3817
-0.6085,0.3517"/></g><g transform="rotate(-90.0, -0.6085, 0.2855)"><polyline points="-0.6085,0.3005
-0.6085,0.2705"/></g><g transform="rotate(-90.0, -0.6085, 0.2043)"><polyline points="-0.6085,0.2193
-0.6085,0.1893"/></g><g transform="rotate(-90.0, -0.6085, 0.1230)"><polyline points="-0.6085,0.1380
-0.6085,0.1080"/></g><g transform="rotate(-90.0, -0.6085, 0.0418)"><polyline points="-0.6085,0.0568
-0.6085,0.0268"/></g><g transform="rotate(-90.0, -0.6085, -0.0394)"><polyline points="-0.6085,-0.0244
-0.6085,-0.0544"/></g><g transform="rotate(-90.0, -0.6085, -0.1207)"><polyline points="-0.6085,-0.1057
-0.6085,-0.1357"/></g><g transform="rotate(-90.0, -0.6085, -0.2019)"><polyline points="-0.6085,-0.1869
-0.6085,-0.2169"/></g><g transform="rotate(-90.0, -0.6085, -0.2831)"><polyline points="-0.6085,-0.2681
-0.6085,-0.2981"/></g><g transform="rotate(-90.0, -0.6085, -0.3644)"><polyline points="-0.6085,-0.3494
-0.6085,-0.3794"/></g><g transform="rotate(-90.0, -0.6085, -0.4456)"><polyline points="-0.6085,-0.4306
-0.6085,-0.4606"/></g></g></g><g class="ticktext"><g stroke-width="0.0" stroke="none" fill="rgb(5%, 5%, 5%)" fill-opacity="1.0" font-size="0.0426" text-anchor="end"><text x="-0.6392" y="0.3780">-1.0</text><text x="-0.6392" y="0.2968">-0.8</text><text x="-0.6392" y="0.2155">-0.6</text><text x="-0.6392" y="0.1343">-0.4</text><text x="-0.6392" y="0.0531">-0.2</text><text x="-0.6392" y="-0.0281"> 0.0</text><text x="-0.6392" y="-0.1094"> 0.2</text><text x="-0.6392" y="-0.1906"> 0.4</text><text x="-0.6392" y="-0.2718"> 0.6</text><text x="-0.6392" y="-0.3531"> 0.8</text><text x="-0.6392" y="-0.4343"> 1.0</text></g></g><g class="ticklines"><g stroke-width="0.0050" stroke="rgb(5%, 5%, 5%)" stroke-opacity="0.05" fill="none"><polyline points="-0.5689,0.3667 0.7063,0.3667"/><polyline points="-0.5689,0.2855 0.7063,0.2855"/><polyline points="-0.5689,0.2043 0.7063,0.2043"/><polyline points="-0.5689,0.1230 0.7063,0.1230"/><polyline points="-0.5689,0.0418 0.7063,0.0418"/><polyline points="-0.5689,-0.0394 0.7063,-0.0394"/><polyline points="-0.5689,-0.1207 0.7063,-0.1207"/><polyline points="-0.5689,-0.2019 0.7063,-0.2019"/><polyline points="-0.5689,-0.2831 0.7063,-0.2831"/><polyline points="-0.5689,-0.3644 0.7063,-0.3644"/><polyline points="-0.5689,-0.4456 0.7063,-0.4456"/></g></g></g><g class="axisbar"><g stroke-width="0" stroke="rgb(0%, 0%, 0%)" stroke-opacity="0" fill="rgb(5%, 5%, 5%)" fill-opacity="0.4"><rect width="0.0034" height="0.8156" x="-0.5949" y="-0.4472"/></g></g></g><g class="axis"><g class="ticks"><g class="tickglyph"><g stroke-width="0.0040" stroke="rgb(5%, 5%, 5%)" stroke-opacity="0.4" fill="rgb(5%, 5%, 5%)" fill-opacity="0.4"><polyline points="-0.5689,0.4177
-0.5689,0.3877"/><polyline points="-0.3867,0.4177
-0.3867,0.3877"/><polyline points="-0.2046,0.4177
-0.2046,0.3877"/><polyline points="-0.0224,0.4177
-0.0224,0.3877"/><polyline points="0.1598,0.4177
0.1598,0.3877"/><polyline points="0.3420,0.4177
0.3420,0.3877"/><polyline points="0.5241,0.4177
0.5241,0.3877"/><polyline points="0.7063,0.4177
0.7063,0.3877"/></g></g><g class="ticktext"><g stroke-width="0.0" stroke="none" fill="rgb(5%, 5%, 5%)" fill-opacity="1.0" font-size="0.0426" text-anchor="middle"><text x="-0.5689" y="0.4548">0</text><text x="-0.3867" y="0.4548">1</text><text x="-0.2046" y="0.4548">2</text><text x="-0.0224" y="0.4548">3</text><text x="0.1598" y="0.4548">4</text><text x="0.3420" y="0.4548">5</text><text x="0.5241" y="0.4548">6</text><text x="0.7063" y="0.4548">7</text></g></g><g class="ticklines"><g stroke-width="0.0050" stroke="rgb(5%, 5%, 5%)" stroke-opacity="0.05" fill="none"><polyline points="-0.5689,0.3667 -0.5689,-0.4456"/><polyline points="-0.3867,0.3667 -0.3867,-0.4456"/><polyline points="-0.2046,0.3667 -0.2046,-0.4456"/><polyline points="-0.0224,0.3667 -0.0224,-0.4456"/><polyline points="0.1598,0.3667 0.1598,-0.4456"/><polyline points="0.3420,0.3667 0.3420,-0.4456"/><polyline points="0.5241,0.3667 0.5241,-0.4456"/><polyline points="0.7063,0.3667 0.7063,-0.4456"/></g></g></g><g class="axisbar"><g stroke-width="0" stroke="rgb(0%, 0%, 0%)" stroke-opacity="0" fill="rgb(5%, 5%, 5%)" fill-opacity="0.4"><rect width="1.2787" height="0.0033" x="-0.5706" y="0.3863"/></g></g></g><g class="frame"><g stroke-width="0" stroke="rgb(0%, 0%, 0%)" stroke-opacity="0" fill="rgb(100%, 100%, 100%)" fill-opacity="0.02"><rect width="1.5" height="1.0" x="-0.75" y="-0.5"/></g></g></g></svg>