<svg xmlns="http://www.w3.org/2000/svg" xmlns:xlink="http://www.w3.org/1999/xlink" width="449" height="300" viewBox="-0.75 -0.5 1.5000 1.0"><style>svg {
  color-scheme: light dark;
}
{
  .canvas g, .title g, .axisbar g, .ticktext g, .tickglyph g, .ticklines g, .legendContent g text {
    fill: rgb(5%, 5%, 5%);
  }
  .ticklines g, .tickglyph g, .legendBorder g {
    stroke: rgb(5%, 5%, 5%);
  }
  .legendBorder g {
    fill: rgb(94%, 94%, 94%);
  }
}
@media (prefers-color-scheme:dark) {
  .canvas g, .title g, .axisbar g, .ticktext g, .tickglyph g, .ticklines g, .legendContent g text {
    fill: rgb(94%, 94%, 94%);
  }
  .ticklines g, .tickglyph g, .legendBorder g {
    stroke: rgb(94%, 94%, 94%);
  }
  .legendBorder g {
    fill: rgb(5%, 5%, 5%);
  }
}</style><g class="chart"><g class="wave"><g stroke-width="0.0030" stroke="rgb(2%, 29%, 48%)" stroke-opacity="1.0" fill="rgb(2%, 73%, 80%)" fill-opacity="0.2"><rect width="0.0300" height="0.0300" x="-0.5843" y="-0.0541"/><rect width="0.0300" height="0.0300" x="-0.5461" y="-0.1387"/><rect width="0.0300" height="0.0300" x="-0.5079" y="-0.2196"/><rect width="0.0300" height="0.0300" x="-0.4698" y="-0.2933"/><rect width="0.0300" height="0.0300" x="-0.4316" y="-0.3565"/><rect width="0.0300" height="0.0300" x="-0.3934" y="-0.4065"/><rect width="0.0300" height="0.0300" x="-0.3553" y="-0.4412"/><rect width="0.0300" height="0.0300" x="-0.3171" y="-0.4588"/><rect width="0.0300" height="0.0300" x="-0.2789" y="-0.4588"/><rect width="0.0300" height="0.0300" x="-0.2408" y="-0.4412"/><rect width="0.0300" height="0.0300" x="-0.2026" y="-0.4065"/><rect width="0.0300" height="0.0300" x="-0.1644" y="-0.3565"/><rect width="0.0300" height="0.0300" x="-0.1263" y="-0.2933"/><rect width="0.0300" height="0.0300" x="-0.0881" y="-0.2196"/><rect width="0.0300" height="0.0300" x="-0.0499" y="-0.1387"/><rect width="0.0300" height="0.0300" x="-0.0117" y="-0.0541"/><rect width="0.0300" height="0.0300" x="0.0264" y="0.0305"/><rect width="0.0300" height="0.0300" x="0.0646" y="0.1115"/><rect width="0.0300" height="0.0300" x="0.1028" y="0.1852"/><rect width="0.0300" height="0.0300" x="0.1409" y="0.2484"/><rect width="0.0300" height="0.0300" x="0.1791" y="0.2984"/><rect width="0.0300" height="0.0300" x="0.2173" y="0.3330"/><rect width="0.0300" height="0.0300" x="0.2554" y="0.3507"/><rect width="0.0300" height="0.0300" x="0.2936" y="0.3507"/><rect width="0.0300" height="0.0300" x="0.3318" y="0.3330"/><rect width="0.0300" height="0.0300" x="0.3699" y="0.2984"/><rect width="0.0300" height="0.0300" x="0.4081" y="0.2484"/><rect width="0.0300" height="0.0300" x="0.4463" y="0.1852"/><rect width="0.0300" height="0.0300" x="0.4844" y="0.1115"/><rect width="0.0300" height="0.0300" x="0.5226" y="0.0305"/><rect width="0.0300" height="0.0300" x="0.5608" y="-0.0541"/></g></g></g><g class="hud"><g class="frame"><g stroke-width="0" stroke="rgb(0%, 0%, 0%)" stroke-opacity="0" fill="rgb(100%, 100%, 100%)" fill-opacity="0.02"><rect width="1.2897" height="0.8364" x="-0.5833" y="-0.4573"/></g></g><g class="axis"><g class="ticks"><g class="tickglyph"><g stroke-width="0.0040" stroke="rgb(5%, 5%, 5%)" stroke-opacity="0.4" fill="rgb(5%, 5%, 5%)" fill-opacity="0.4"><g transform="rotate(-90.0, -0.6088, 0.3679)"><polyline points="-0.6088,0.3829
-0.6088,0.3529"/></g><g transform="rotate(-90.0, -0.6088, 0.2865)"><polyline points="-0.6088,0.3015
-0.6088,0.2715"/></g><g transform="rotate(-90.0, -0.6088, 0.2051)"><polyline points="-0.6088,0.2201
-0.6088,0.1901"/></g><g transform="rotate(-90.0, -0.6088, 0.1237)"><polyline points="-0.6088,0.1387
-0.6088,0.1087"/></g><g transform="rotate(-90.0, -0.6088, 0.0423)"><polyline points="-0.6088,0.0573
-0.6088,0.0273"/></g><g transform="rotate(-90.0, -0.6088, -0.0391)"><polyline points="-0.6088,-0.0241
-0.6088,-0.0541"/></g><g transform="rotate(-90.0, -0.6088, -0.1205)"><polyline points="-0.6088,-0.1055
-0.6088,-0.1355"/></g><g transform="rotate(-90.0, -0.6088, -0.2019)"><polyline points="-0.6088,-0.1869
-0.6088,-0.2169"/></g><g transform="rotate(-90.0, -0.6088, -0.2833)"><polyline points="-0.6088,-0.2683
-0.6088,-0.2983"/></g><g transform="rotate(-90.0, -0.6088, -0.3647)"><polyline points="-0.6088,-0.3497
-0.6088,-0.3797"/></g><g transform="rotate(-90.0, -0.6088, -0.4461)"><polyline points="-0.6088,-0.4311
-0.6088,-0.4611"/></g></g></g><g class="ticktext"><g stroke-width="0.0" stroke="none" fill="rgb(5%, 5%, 5%)" fill-opacity="1.0" font-size="0.0425" text-anchor="end"><text x="-0.6394" y="0.3791">-1.0</text><text x="-0.6394" y="0.2977">-0.8</text><text x="-0.6394" y="0.2163">-0.6</text><text x="-0.6394" y="0.1349">-0.4</text><text x="-0.6394" y="0.0535">-0.2</text><text x="-0.6394" y="-0.0279"> 0.0</text><text x="-0.6394" y="-0.1093"> 0.2</text><text x="-0.6394" y="-0.1907"> 0.4</text><text x="-0.6394" y="-0.2721"> 0.6</text><text x="-0.6394" y="-0.3535"> 0.8</text><text x="-0.6394" y="-0.4349"> 1.0</text></g></g><g class="ticklines"><g stroke-width="0.0050" stroke="rgb(5%, 5%, 5%)" stroke-opacity="0.05" fill="none"><polyline points="-0.5693,0.3679 0.7064,0.3679"/><polyline points="-0.5693,0.2865 0.7064,0.2865"/><polyline points="-0.5693,0.2051 0.7064,0.2051"/><polyline points="-0.5693,0.1237 0.7064,0.1237"/><polyline points="-0.5693,0.0423 0.7064,0.0423"/><polyline points="-0.5693,-0.0391 0.7064,-0.0391"/><polyline points="-0.5693,-0.1205 0.7064,-0.1205"/><polyline points="-0.5693,-0.2019 0.7064,-0.2019"/><polyline points="-0.5693,-0.2833 0.7064,-0.2833"/><polyline points="-0.5693,-0.3647 0.7064,-0.3647"/><polyline points="-0.5693,-0.4461 0.7064,-0.4461"/></g></g></g><g class="axisbar"><g stroke-width="0" stroke="rgb(0%, 0%, 0%)" stroke-opacity="0" fill="rgb(5%, 5%, 5%)" fill-opacity="0.4"><rect width="0.0034" height="0.8172" x="-0.5952" y="-0.4477"/></g></g></g><g class="axis"><g class="ticks"><g class="tickglyph"><g stroke-width="0.0040" stroke="rgb(5%, 5%, 5%)" stroke-opacity="0.4" fill="rgb(5%, 5%, 5%)" fill-opacity="0.4"><polyline points="-0.5693,0.4185
-0.5693,0.3885"/><polyline points="-0.3870,0.4185
-0.3870,0.3885"/><polyline points="-0.2048,0.4185
-0.2048,0.3885"/><polyline points="-0.0226,0.4185
-0.0226,0.3885"/><polyline points="0.1597,0.4185
0.1597,0.3885"/><polyline points="0.3419,0.4185
0.3419,0.3885"/><polyline points="0.5242,0.4185
0.5242,0.3885"/><polyline points="0.7064,0.4185
0.7064,0.3885"/></g></g><g class="ticktext"><g stroke-width="0.0" stroke="none" fill="rgb(5%, 5%, 5%)" fill-opacity="1.0" font-size="0.0425" text-anchor="middle"><text x="-0.5693" y="0.4552">0</text><text x="-0.3870" y="0.4552">1</text><text x="-0.2048" y="0.4552">2</text><text x="-0.0226" y="0.4552">3</text><text x="0.1597" y="0.4552">4</text><text x="0.3419" y="0.4552">5</text><text x="0.5242" y="0.4552">6</text><text x="0.7064" y="0.4552">7</text></g></g><g class="ticklines"><g stroke-width="0.0050" stroke="rgb(5%, 5%, 5%)" stroke-opacity="0.05" fill="none"><polyline points="-0.5693,0.3679 -0.5693,-0.4461"/><polyline points="-0.3870,0.3679 -0.3870,-0.4461"/><polyline points="-0.2048,0.3679 -0.2048,-0.4461"/><polyline points="-0.0226,0.3679 -0.0226,-0.4461"/><polyline points="0.1597,0.3679 0.1597,-0.4461"/><polyline points="0.3419,0.3679 0.3419,-0.4461"/><polyline points="0.5242,0.3679 0.5242,-0.4461"/><polyline points="0.7064,0.3679 0.7064,-0.4461"/></g></g></g><g class="axisbar"><g stroke-width="0" stroke="rgb(0%, 0%, 0%)" stroke-opacity="0" fill="rgb(5%, 5%, 5%)" fill-opacity="0.4"><rect width="1.2791" height="0.0033" x="-0.5710" y="0.3873"/></g></g></g><g class="frame"><g stroke-width="0" stroke="rgb(0%, 0%, 0%)" stroke-opacity="0" fill="rgb(100%, 100%, 100%)" fill-opacity="0.02"><rect width="1.5000" height="1.0" x="-0.75" y="-0.5"/></g></g></g></svg>