<svg width="439.7949673811743" xmlns:xlink="http://www.w3.org/1999/xlink" xmlns="http://www.w3.org/2000/svg" viewBox="-0.7865 -0.5364999999999999 1.573 1.073" height="300.0"><style>svg {
  color-scheme: light dark;
}
{
  .canvas g, .title g, .axisbar g, .ticktext g, .tickglyph g, .ticklines g, .legendContent g text {
    fill: #0d0d0d;
  }
  .ticklines g, .tickglyph g, .legendBorder g {
    stroke: #0d0d0d;
  }
}
@media (prefers-color-scheme:dark) {
  .canvas g, .title g, .axisbar g, .ticktext g, .tickglyph g, .ticklines g, .legendContent g text {
    fill: #f0f0f0;
  }
  .ticklines g, .tickglyph g, .legendBorder g {
    stroke: #f0f0f0;
  }
}</style><g class="wave"><g stroke-opacity="1.0" fill="#a6cfe3" stroke="#1f78b5" stroke-width="3.0e-3" fill-opacity="1.0"><rect width="3.0000000000000027e-2" x="-0.765" y="-1.4999999999999888e-2" height="3.0e-2"/><rect width="3.0000000000000027e-2" x="-0.715" y="-0.11952846326765341" height="3.0e-2"/><rect width="3.0000000000000027e-2" x="-0.665" y="-0.21948853110729394" height="3.0000000000000027e-2"/><rect width="3.0000000000000027e-2" x="-0.615" y="-0.310511468892706" height="3.0000000000000027e-2"/><rect width="3.0000000000000027e-2" x="-0.5650000000000001" y="-0.38861913746615206" height="3.0000000000000027e-2"/><rect width="3.0000000000000027e-2" x="-0.515" y="-0.4503978569087951" height="3.0000000000000027e-2"/><rect width="3.0000000000000027e-2" x="-0.465" y="-0.4931476007338056" height="3.0000000000000027e-2"/><rect width="3.0000000000000027e-2" x="-0.4150000000000001" y="-0.5149999999999999" height="3.0000000000000027e-2"/><rect width="3.0000000000000027e-2" x="-0.365" y="-0.5149999999999999" height="3.0000000000000027e-2"/><rect width="3.0000000000000027e-2" x="-0.31500000000000017" y="-0.4931476007338057" height="3.0000000000000027e-2"/><rect width="3.0000000000000027e-2" x="-0.265" y="-0.4503978569087953" height="3.0000000000000027e-2"/><rect width="3.0000000000000027e-2" x="-0.2150000000000002" y="-0.3886191374661523" height="3.0000000000000027e-2"/><rect width="3.0000000000000027e-2" x="-0.16500000000000004" y="-0.3105114688927061" height="3.0000000000000027e-2"/><rect width="3.0e-2" x="-0.1150000000000002" y="-0.21948853110729405" height="3.0000000000000027e-2"/><rect width="3.0e-2" x="-6.500000000000004e-2" y="-0.11952846326765364" height="3.0e-2"/><rect width="3.0e-2" x="-1.500000000000011e-2" y="-1.5e-2" height="3.0e-2"/><rect width="3.0e-2" x="3.5000000000000045e-2" y="8.952846326765336e-2" height="3.0e-2"/><rect width="3.0e-2" x="8.499999999999998e-2" y="0.18948853110729375" height="3.0000000000000027e-2"/><rect width="3.0000000000000027e-2" x="0.1349999999999999" y="0.28051146889270606" height="3.0000000000000027e-2"/><rect width="3.0000000000000027e-2" x="0.18499999999999983" y="0.35861913746615215" height="3.0000000000000027e-2"/><rect width="3.0000000000000027e-2" x="0.23499999999999988" y="0.42039785690879505" height="3.0000000000000027e-2"/><rect width="3.0000000000000027e-2" x="0.2849999999999999" y="0.46314760073380556" height="3.0000000000000027e-2"/><rect width="3.0000000000000027e-2" x="0.33499999999999974" y="0.485" height="3.0000000000000027e-2"/><rect width="3.0000000000000027e-2" x="0.3849999999999998" y="0.4850000000000001" height="3.0000000000000027e-2"/><rect width="3.0000000000000027e-2" x="0.4350000000000003" y="0.4631476007338056" height="3.0000000000000027e-2"/><rect width="3.0000000000000027e-2" x="0.4849999999999999" y="0.42039785690879544" height="3.0000000000000027e-2"/><rect width="3.0000000000000027e-2" x="0.5349999999999999" y="0.3586191374661525" height="3.0000000000000027e-2"/><rect width="3.0000000000000027e-2" x="0.585" y="0.2805114688927062" height="3.0000000000000027e-2"/><rect width="3.0000000000000027e-2" x="0.6349999999999998" y="0.1894885311072943" height="3.0000000000000027e-2"/><rect width="3.0000000000000027e-2" x="0.6849999999999998" y="8.952846326765375e-2" height="3.0e-2"/><rect width="3.0000000000000027e-2" x="0.7349999999999999" y="-1.4999999999999888e-2" height="3.0e-2"/></g></g><g class="hud"></g></svg>