<svg height="300.00" viewBox="-0.73376 -0.49787 1.4792 0.99570" width="445.67" xmlns="http://www.w3.org/2000/svg" xmlns:xlink="http://www.w3.org/1999/xlink"><style>svg {
  color-scheme: light dark;
}
{
  .canvas g, .title g, .axisbar g, .ticktext g, .tickglyph g, .ticklines g, .legendContent g text {
    fill: rgba(5%, 5%, 5%, 1.00);
  }
  .ticklines g, .tickglyph g, .legendBorder g {
    stroke: rgba(5%, 5%, 5%, 1.00);
  }
  .legendBorder g {
    fill: rgba(94%, 94%, 94%, 1.00);
  }
}
@media (prefers-color-scheme:dark) {
  .canvas g, .title g, .axisbar g, .ticktext g, .tickglyph g, .ticklines g, .legendContent g text {
    fill: rgba(94%, 94%, 94%, 1.00);
  }
  .ticklines g, .tickglyph g, .legendBorder g {
    stroke: rgba(94%, 94%, 94%, 1.00);
  }
  .legendBorder g {
    fill: rgba(5%, 5%, 5%, 1.00);
  }
}</style><g class="chart"><g class="wave"><g fill="rgba(2%, 73%, 80%, 0.20)" stroke="rgba(2%, 29%, 48%, 1.00)" stroke-width="0.0030000"><rect height="0.030000" width="0.030000" x="-0.58191" y="-0.056812"/><rect height="0.030000" width="0.030000" x="-0.54351" y="-0.14700"/><rect height="0.030000" width="0.030000" x="-0.50511" y="-0.23324"/><rect height="0.030000" width="0.030000" x="-0.46671" y="-0.31177"/><rect height="0.030000" width="0.030000" x="-0.42831" y="-0.37916"/><rect height="0.030000" width="0.030000" x="-0.38991" y="-0.43246"/><rect height="0.030000" width="0.030000" x="-0.35151" y="-0.46934"/><rect height="0.030000" width="0.030000" x="-0.31311" y="-0.48820"/><rect height="0.030000" width="0.030000" x="-0.27470" y="-0.48820"/><rect height="0.030000" width="0.030000" x="-0.23630" y="-0.46934"/><rect height="0.030000" width="0.030000" x="-0.19790" y="-0.43246"/><rect height="0.030000" width="0.030000" x="-0.15950" y="-0.37916"/><rect height="0.030000" width="0.030000" x="-0.12110" y="-0.31177"/><rect height="0.030000" width="0.030000" x="-0.082701" y="-0.23324"/><rect height="0.030000" width="0.030000" x="-0.044300" y="-0.14700"/><rect height="0.030000" width="0.030000" x="-0.0058997" y="-0.056812"/><rect height="0.030000" width="0.030000" x="0.032501" y="0.033372"/><rect height="0.030000" width="0.030000" x="0.070902" y="0.11961"/><rect height="0.030000" width="0.030000" x="0.10930" y="0.19815"/><rect height="0.030000" width="0.030000" x="0.14770" y="0.26554"/><rect height="0.030000" width="0.030000" x="0.18610" y="0.31884"/><rect height="0.030000" width="0.030000" x="0.22450" y="0.35572"/><rect height="0.030000" width="0.030000" x="0.26291" y="0.37457"/><rect height="0.030000" width="0.030000" x="0.30131" y="0.37457"/><rect height="0.030000" width="0.030000" x="0.33971" y="0.35572"/><rect height="0.030000" width="0.030000" x="0.37811" y="0.31884"/><rect height="0.030000" width="0.030000" x="0.41651" y="0.26554"/><rect height="0.030000" width="0.030000" x="0.45491" y="0.19815"/><rect height="0.030000" width="0.030000" x="0.49331" y="0.11961"/><rect height="0.030000" width="0.030000" x="0.53171" y="0.033372"/><rect height="0.030000" width="0.030000" x="0.57011" y="-0.056812"/></g></g></g><g class="hud"><g class="frame"><g fill="rgba(100%, 100%, 100%, 0.02)" stroke="rgba(0%, 0%, 0%, 0.00)" stroke-width="0.0000"><rect height="0.89140" width="1.2976" x="-0.58103" y="-0.48751"/></g></g><g class="axis"><g class="ticks"><g class="tickglyph"><g fill="rgba(5%, 5%, 5%, 0.40)" stroke="rgba(5%, 5%, 5%, 0.40)" stroke-width="0.0040000"><g transform="rotate(-90.000, -0.60670, 0.39195)"><polyline points="-0.60670,0.40695
-0.60670,0.37695"/></g><g transform="rotate(-90.000, -0.60670, 0.30520)"><polyline points="-0.60670,0.32020
-0.60670,0.29020"/></g><g transform="rotate(-90.000, -0.60670, 0.21844)"><polyline points="-0.60670,0.23344
-0.60670,0.20344"/></g><g transform="rotate(-90.000, -0.60670, 0.13169)"><polyline points="-0.60670,0.14669
-0.60670,0.11669"/></g><g transform="rotate(-90.000, -0.60670, 0.044940)"><polyline points="-0.60670,0.059940
-0.60670,0.029940"/></g><g transform="rotate(-90.000, -0.60670, -0.041812)"><polyline points="-0.60670,-0.026812
-0.60670,-0.056812"/></g><g transform="rotate(-90.000, -0.60670, -0.12856)"><polyline points="-0.60670,-0.11356
-0.60670,-0.14356"/></g><g transform="rotate(-90.000, -0.60670, -0.21532)"><polyline points="-0.60670,-0.20032
-0.60670,-0.23032"/></g><g transform="rotate(-90.000, -0.60670, -0.30207)"><polyline points="-0.60670,-0.28707
-0.60670,-0.31707"/></g><g transform="rotate(-90.000, -0.60670, -0.38882)"><polyline points="-0.60670,-0.37382
-0.60670,-0.40382"/></g><g transform="rotate(-90.000, -0.60670, -0.47557)"><polyline points="-0.60670,-0.46057
-0.60670,-0.49057"/></g></g></g><g class="ticktext"><g fill="rgba(5%, 5%, 5%, 1.00)" font-size="0.042782" stroke="none" stroke-width="0.0" text-anchor="end"><text x="-0.63750" y="0.40388">-1.00</text><text x="-0.63750" y="0.31713">-0.80</text><text x="-0.63750" y="0.23037">-0.60</text><text x="-0.63750" y="0.14362">-0.40</text><text x="-0.63750" y="0.056868">-0.20</text><text x="-0.63750" y="-0.029884"> 0.00</text><text x="-0.63750" y="-0.11664"> 0.20</text><text x="-0.63750" y="-0.20339"> 0.40</text><text x="-0.63750" y="-0.29014"> 0.60</text><text x="-0.63750" y="-0.37689"> 0.80</text><text x="-0.63750" y="-0.46364"> 1.00</text></g></g><g class="ticklines"><g fill="none" stroke="rgba(5%, 5%, 5%, 0.05)" stroke-width="0.0050000"><polyline points="-0.56691,0.39195 0.71654,0.39195"/><polyline points="-0.56691,0.30520 0.71654,0.30520"/><polyline points="-0.56691,0.21844 0.71654,0.21844"/><polyline points="-0.56691,0.13169 0.71654,0.13169"/><polyline points="-0.56691,0.044940 0.71654,0.044940"/><polyline points="-0.56691,-0.041812 0.71654,-0.041812"/><polyline points="-0.56691,-0.12856 0.71654,-0.12856"/><polyline points="-0.56691,-0.21532 0.71654,-0.21532"/><polyline points="-0.56691,-0.30207 0.71654,-0.30207"/><polyline points="-0.56691,-0.38882 0.71654,-0.38882"/><polyline points="-0.56691,-0.47557 0.71654,-0.47557"/></g></g></g><g class="axisbar"><g fill="rgba(5%, 5%, 5%, 0.40)" stroke="rgba(0%, 0%, 0%, 0.00)" stroke-width="0.0000"><rect height="0.87099" width="0.0034225" x="-0.59301" y="-0.47731"/></g></g></g><g class="axis"><g class="ticks"><g class="tickglyph"><g fill="rgba(5%, 5%, 5%, 0.40)" stroke="rgba(5%, 5%, 5%, 0.40)" stroke-width="0.0040000"><polyline points="-0.56691,0.44491
-0.56691,0.41491"/><polyline points="-0.38356,0.44491
-0.38356,0.41491"/><polyline points="-0.20021,0.44491
-0.20021,0.41491"/><polyline points="-0.016861,0.44491
-0.016861,0.41491"/><polyline points="0.16649,0.44491
0.16649,0.41491"/><polyline points="0.34984,0.44491
0.34984,0.41491"/><polyline points="0.53319,0.44491
0.53319,0.41491"/><polyline points="0.71654,0.44491
0.71654,0.41491"/></g></g><g class="ticktext"><g fill="rgba(5%, 5%, 5%, 1.00)" font-size="0.042782" stroke="none" stroke-width="0.0" text-anchor="middle"><text x="-0.56691" y="0.48500">0.0</text><text x="-0.38356" y="0.48500">1.0</text><text x="-0.20021" y="0.48500">2.0</text><text x="-0.016861" y="0.48500">3.0</text><text x="0.16649" y="0.48500">4.0</text><text x="0.34984" y="0.48500">5.0</text><text x="0.53319" y="0.48500">6.0</text><text x="0.71654" y="0.48500">7.0</text></g></g><g class="ticklines"><g fill="none" stroke="rgba(5%, 5%, 5%, 0.05)" stroke-width="0.0050000"><polyline points="-0.56691,0.39195 -0.56691,-0.47557"/><polyline points="-0.38356,0.39195 -0.38356,-0.47557"/><polyline points="-0.20021,0.39195 -0.20021,-0.47557"/><polyline points="-0.016861,0.39195 -0.016861,-0.47557"/><polyline points="0.16649,0.39195 0.16649,-0.47557"/><polyline points="0.34984,0.39195 0.34984,-0.47557"/><polyline points="0.53319,0.39195 0.53319,-0.47557"/><polyline points="0.71654,0.39195 0.71654,-0.47557"/></g></g></g><g class="axisbar"><g fill="rgba(5%, 5%, 5%, 0.40)" stroke="rgba(0%, 0%, 0%, 0.00)" stroke-width="0.0000"><rect height="0.0034701" width="1.2869" x="-0.56862" y="0.41256"/></g></g></g></g></svg>