<svg width="443.98563172430755" xmlns:xlink="http://www.w3.org/1999/xlink" xmlns="http://www.w3.org/2000/svg" viewBox="-0.7703551859099804 -0.520527105517909 1.5407103718199608 1.041054211035818" height="300.0"><style>svg {
  color-scheme: light dark;
}
@media (prefers-color-scheme:dark) {
  .title g, .axisbar g, .ticktext g, .tickglyph g, .ticklines g, .legend g {
    fill: #f0f0f0;
  }
  .ticklines g, .tickglyph g, .legendborder g {
    stroke: #f0f0f0;
  }
}
@media (prefers-color-scheme:light) {
  .title g, .axisbar g, .ticktext g, .tickglyph g, .ticklines g, .legend g {
    fill: #0d0d0d;
  }
  .ticklines g, .tickglyph g, .legendborder g {
    stroke: #0d0d0d;
  }</style><g class="wave"><g stroke-opacity="1.0" fill="#a6cfe3" stroke="#1f78b5" stroke-width="3.0e-3" fill-opacity="1.0"><rect width="3.0000000000000027e-2" x="-0.7488551859099805" y="-1.5e-2" height="3.0e-2"/><rect width="3.0000000000000027e-2" x="-0.699931506849315" y="-0.11618921903935485" height="3.0e-2"/><rect width="3.0000000000000027e-2" x="-0.6510078277886497" y="-0.2129559836469449" height="3.0000000000000027e-2"/><rect width="3.0000000000000027e-2" x="-0.6020841487279843" y="-0.3010711218709643" height="3.0000000000000027e-2"/><rect width="3.0000000000000027e-2" x="-0.553160469667319" y="-0.3766835793476788" height="3.0000000000000027e-2"/><rect width="2.999999999999997e-2" x="-0.5042367906066536" y="-0.4364887288565298" height="3.0000000000000027e-2"/><rect width="3.0000000000000027e-2" x="-0.45531311154598825" y="-0.47787279838703367" height="3.0000000000000027e-2"/><rect width="3.0000000000000027e-2" x="-0.40638943248532294" y="-0.4990271055179091" height="3.0000000000000027e-2"/><rect width="3.0000000000000027e-2" x="-0.35746575342465753" y="-0.4990271055179091" height="3.0000000000000027e-2"/><rect width="3.0000000000000027e-2" x="-0.3085420743639923" y="-0.4778727983870338" height="3.0000000000000027e-2"/><rect width="3.0000000000000027e-2" x="-0.25961839530332675" y="-0.43648872885653" height="3.0000000000000027e-2"/><rect width="3.0000000000000027e-2" x="-0.21069471624266156" y="-0.37668357934767904" height="3.0000000000000027e-2"/><rect width="3.0000000000000027e-2" x="-0.16177103718199604" y="-0.3010711218709644" height="3.0000000000000027e-2"/><rect width="3.0e-2" x="-0.11284735812133083" y="-0.212955983646945" height="3.0000000000000027e-2"/><rect width="3.0e-2" x="-6.39236790606653e-2" y="-0.11618921903935507" height="3.0e-2"/><rect width="3.0e-2" x="-1.5e-2" y="-1.500000000000011e-2" height="3.0e-2"/><rect width="3.0e-2" x="3.3923679060665526e-2" y="8.618921903935457e-2" height="3.0e-2"/><rect width="3.0e-2" x="8.284735812133072e-2" y="0.18295598364694454" height="3.0000000000000027e-2"/><rect width="3.0000000000000027e-2" x="0.13177103718199612" y="0.27107112187096416" height="3.0000000000000027e-2"/><rect width="3.0000000000000027e-2" x="0.18069471624266142" y="0.3466835793476787" height="3.0000000000000027e-2"/><rect width="3.0000000000000027e-2" x="0.22961839530332695" y="0.4064887288565296" height="3.0000000000000027e-2"/><rect width="3.0000000000000027e-2" x="0.27854207436399225" y="0.4478727983870335" height="3.0000000000000027e-2"/><rect width="3.0000000000000027e-2" x="0.32746575342465756" y="0.469027105517909" height="3.0000000000000027e-2"/><rect width="3.0000000000000027e-2" x="0.37638943248532286" y="0.46902710551790905" height="3.0000000000000027e-2"/><rect width="3.0000000000000027e-2" x="0.4253131115459886" y="0.44787279838703353" height="3.0000000000000027e-2"/><rect width="3.0000000000000027e-2" x="0.4742367906066537" y="0.4064887288565299" height="3.0000000000000027e-2"/><rect width="3.0000000000000027e-2" x="0.523160469667319" y="0.346683579347679" height="3.0000000000000027e-2"/><rect width="3.0000000000000027e-2" x="0.5720841487279845" y="0.27107112187096427" height="3.0000000000000027e-2"/><rect width="3.0000000000000027e-2" x="0.6210078277886496" y="0.18295598364694504" height="3.0000000000000027e-2"/><rect width="3.0000000000000027e-2" x="0.6699315068493151" y="8.618921903935496e-2" height="3.0e-2"/><rect width="3.0000000000000027e-2" x="0.7188551859099804" y="-1.5e-2" height="3.0e-2"/></g></g></svg>