<svg width="447.77110180039205" xmlns:xlink="http://www.w3.org/1999/xlink" xmlns="http://www.w3.org/2000/svg" viewBox="-0.7395629536131272 -0.49900591317402876 1.488490257178921 0.9972664054428833" height="300.0"><style>svg {
  color-scheme: light dark;
}
{
  .canvas g, .title g, .axisbar g, .ticktext g, .tickglyph g, .ticklines g, .legendContent g text {
    fill: #0d0d0d;
  }
  .ticklines g, .tickglyph g, .legendBorder g {
    stroke: #0d0d0d;
  }
}
@media (prefers-color-scheme:dark) {
  .canvas g, .title g, .axisbar g, .ticktext g, .tickglyph g, .ticklines g, .legendContent g text {
    fill: #f0f0f0;
  }
  .ticklines g, .tickglyph g, .legendBorder g {
    stroke: #f0f0f0;
  }
}</style><g class="chart"><g class="wave"><g stroke-opacity="1.0" fill="#a6cfe3" stroke="#1f78b5" stroke-width="3.0e-3" fill-opacity="1.0"><rect width="3.0000000000000027e-2" x="-0.6020672925213001" y="-5.681211862490497e-2" height="3.0e-2"/><rect width="3.0000000000000027e-2" x="-0.5623919924309976" y="-0.1469960821617482" height="3.0000000000000013e-2"/><rect width="3.0000000000000027e-2" x="-0.5227166923406951" y="-0.23323857374136125" height="3.0000000000000027e-2"/><rect width="3.0000000000000027e-2" x="-0.48304139225039255" y="-0.3117703826443262" height="3.0000000000000027e-2"/><rect width="3.0000000000000027e-2" x="-0.4433660921600901" y="-0.37915929198415466" height="3.0000000000000027e-2"/><rect width="3.0000000000000027e-2" x="-0.4036907920697876" y="-0.4324600830548322" height="3.0000000000000027e-2"/><rect width="3.0000000000000027e-2" x="-0.3640154919794851" y="-0.46934325552099776" height="3.0000000000000027e-2"/><rect width="3.0000000000000027e-2" x="-0.3243401918891826" y="-0.4881968377607824" height="3.0000000000000027e-2"/><rect width="3.0000000000000027e-2" x="-0.2846648917988801" y="-0.4881968377607824" height="3.0000000000000027e-2"/><rect width="3.0000000000000027e-2" x="-0.24498959170857754" y="-0.46934325552099776" height="3.0000000000000027e-2"/><rect width="3.0000000000000027e-2" x="-0.20531429161827502" y="-0.4324600830548324" height="3.0000000000000027e-2"/><rect width="3.0000000000000027e-2" x="-0.16563899152797257" y="-0.3791592919841549" height="3.0000000000000027e-2"/><rect width="3.0000000000000013e-2" x="-0.12596369143767006" y="-0.3117703826443262" height="3.0000000000000027e-2"/><rect width="3.0e-2" x="-8.628839134736753e-2" y="-0.23323857374136137" height="3.0000000000000027e-2"/><rect width="3.0e-2" x="-4.661309125706513e-2" y="-0.1469960821617482" height="3.0000000000000013e-2"/><rect width="3.0e-2" x="-6.937791166762505e-3" y="-5.681211862490508e-2" height="3.0e-2"/><rect width="3.0e-2" x="3.273750892354001e-2" y="3.337184491193797e-2" height="3.0e-2"/><rect width="3.0e-2" x="7.241280901384252e-2" y="0.11961433649155113" height="3.0000000000000013e-2"/><rect width="3.0000000000000013e-2" x="0.11208810910414503" y="0.19814614539451608" height="3.0000000000000027e-2"/><rect width="3.0000000000000027e-2" x="0.15176340919444753" y="0.2655350547343446" height="3.0000000000000027e-2"/><rect width="3.0000000000000027e-2" x="0.19143870928474993" y="0.31883584580502206" height="3.0000000000000027e-2"/><rect width="3.0000000000000027e-2" x="0.23111400937505255" y="0.3557190182711878" height="3.0000000000000027e-2"/><rect width="3.0000000000000027e-2" x="0.27078930946535495" y="0.3745726005109724" height="3.0000000000000027e-2"/><rect width="3.0000000000000027e-2" x="0.3104646095556576" y="0.3745726005109724" height="3.0000000000000027e-2"/><rect width="3.0000000000000027e-2" x="0.3501399096459601" y="0.3557190182711878" height="3.0000000000000027e-2"/><rect width="3.0000000000000027e-2" x="0.3898152097362624" y="0.31883584580502233" height="3.0000000000000027e-2"/><rect width="3.0000000000000027e-2" x="0.4294905098265651" y="0.26553505473434486" height="3.0000000000000027e-2"/><rect width="3.0000000000000027e-2" x="0.4691658099168676" y="0.19814614539451614" height="3.0000000000000027e-2"/><rect width="3.0000000000000027e-2" x="0.5088411100071699" y="0.11961433649155158" height="3.0000000000000013e-2"/><rect width="3.0000000000000027e-2" x="0.5485164100974727" y="3.3371844911938356e-2" height="3.0e-2"/><rect width="3.0000000000000027e-2" x="0.5881917101877749" y="-5.681211862490497e-2" height="3.0e-2"/></g></g></g><g class="hud"><g class="frame"><g stroke-opacity="0.0" fill="#ffffff" stroke="#000000" stroke-width="0.0" fill-opacity="2.0e-2"><rect width="1.3406357683811927" x="-0.6016538340170401" y="-0.4875109476841367" height="0.8913976581184633"/></g></g><g class="axis"><g class="ticks"><g class="tickglyph"><g stroke-opacity="0.4" fill="#0d0d0d" stroke="#0d0d0d" stroke-width="4.0e-3" fill-opacity="0.4"><g transform="rotate(-90.0, -0.6281748185547491, 0.39194878814340184)"><polyline points="-0.6281748185547491,0.40694878814340185
-0.6281748185547491,0.3769487881434018"/></g><g transform="rotate(-90.0, -0.6281748185547491, 0.3051966067897405)"><polyline points="-0.6281748185547491,0.3201966067897405
-0.6281748185547491,0.29019660678974046"/></g><g transform="rotate(-90.0, -0.6281748185547491, 0.21844442543607906)"><polyline points="-0.6281748185547491,0.23344442543607907
-0.6281748185547491,0.20344442543607905"/></g><g transform="rotate(-90.0, -0.6281748185547491, 0.1316922440824177)"><polyline points="-0.6281748185547491,0.1466922440824177
-0.6281748185547491,0.1166922440824177"/></g><g transform="rotate(-90.0, -0.6281748185547491, 4.4940062728756336e-2)"><polyline points="-0.6281748185547491,5.9940062728756335e-2
-0.6281748185547491,2.9940062728756336e-2"/></g><g transform="rotate(-90.0, -0.6281748185547491, -4.181211862490497e-2)"><polyline points="-0.6281748185547491,-2.681211862490497e-2
-0.6281748185547491,-5.681211862490497e-2"/></g><g transform="rotate(-90.0, -0.6281748185547491, -0.12856429997856655)"><polyline points="-0.6281748185547491,-0.11356429997856655
-0.6281748185547491,-0.14356429997856657"/></g><g transform="rotate(-90.0, -0.6281748185547491, -0.2153164813322278)"><polyline points="-0.6281748185547491,-0.2003164813322278
-0.6281748185547491,-0.23031648133222782"/></g><g transform="rotate(-90.0, -0.6281748185547491, -0.30206866268588917)"><polyline points="-0.6281748185547491,-0.28706866268588915
-0.6281748185547491,-0.3170686626858892"/></g><g transform="rotate(-90.0, -0.6281748185547491, -0.38882084403955053)"><polyline points="-0.6281748185547491,-0.3738208440395505
-0.6281748185547491,-0.40382084403955054"/></g><g transform="rotate(-90.0, -0.6281748185547491, -0.4755730253932118)"><polyline points="-0.6281748185547491,-0.46057302539321177
-0.6281748185547491,-0.4905730253932118"/></g></g></g><g class="ticktext"><g fill="#0d0d0d" stroke="none" stroke-width="0.0" font-size="4.420164089618176e-2" fill-opacity="1.0" text-anchor="end"><text x="-0.66" y="0.4038772130795303">-1</text><text x="-0.66" y="0.3171250317258689">-0.8</text><text x="-0.66" y="0.2303728503722075">-0.6</text><text x="-0.66" y="0.14362066901854614">-0.4</text><text x="-0.66" y="5.686848766488478e-2">-0.2</text><text x="-0.66" y="-2.9883693688776525e-2">0</text><text x="-0.66" y="-0.116635875042438">0.2</text><text x="-0.66" y="-0.20338805639609936">0.4</text><text x="-0.66" y="-0.2901402377497606">0.6</text><text x="-0.66" y="-0.3768924191034221">0.8</text><text x="-0.66" y="-0.46364460045708333">1</text></g></g><g class="ticklines"><g stroke-opacity="5.0e-2" fill="none" stroke="#0d0d0d" stroke-width="5.0e-3"><polyline points="-0.5870672925213001,0.39194878814340184
0.7389819343641527,0.39194878814340184"/><polyline points="-0.5870672925213001,0.3051966067897405
0.7389819343641527,0.3051966067897405"/><polyline points="-0.5870672925213001,0.21844442543607906
0.7389819343641527,0.21844442543607906"/><polyline points="-0.5870672925213001,0.1316922440824177
0.7389819343641527,0.1316922440824177"/><polyline points="-0.5870672925213001,4.4940062728756336e-2
0.7389819343641527,4.4940062728756336e-2"/><polyline points="-0.5870672925213001,-4.181211862490497e-2
0.7389819343641527,-4.181211862490497e-2"/><polyline points="-0.5870672925213001,-0.12856429997856655
0.7389819343641527,-0.12856429997856655"/><polyline points="-0.5870672925213001,-0.2153164813322278
0.7389819343641527,-0.2153164813322278"/><polyline points="-0.5870672925213001,-0.30206866268588917
0.7389819343641527,-0.30206866268588917"/><polyline points="-0.5870672925213001,-0.38882084403955053
0.7389819343641527,-0.38882084403955053"/><polyline points="-0.5870672925213001,-0.4755730253932118
0.7389819343641527,-0.4755730253932118"/></g></g></g><g class="axisbar"><g stroke-opacity="0.0" fill="#0d0d0d" stroke="#000000" stroke-width="0.0" fill-opacity="0.4"><rect width="3.536131271694609e-3" x="-0.614030293467971" y="-0.4773080690202852" height="0.8709919007907603"/></g></g></g><g class="axis"><g class="ticks"><g class="tickglyph"><g stroke-opacity="0.4" fill="#0d0d0d" stroke="#0d0d0d" stroke-width="4.0e-3" fill-opacity="0.4"><polyline points="-0.5870672925213001,0.444912364840425
-0.5870672925213001,0.414912364840425"/><polyline points="-0.3976316886805211,0.444912364840425
-0.3976316886805211,0.414912364840425"/><polyline points="-0.2081960848397421,0.444912364840425
-0.2081960848397421,0.414912364840425"/><polyline points="-1.8760480998963214e-2,0.444912364840425
-1.8760480998963214e-2,0.414912364840425"/><polyline points="0.17067512284181574,0.444912364840425
0.17067512284181574,0.414912364840425"/><polyline points="0.3601107266825946,0.444912364840425
0.3601107266825946,0.414912364840425"/><polyline points="0.5495463305233738,0.444912364840425
0.5495463305233738,0.414912364840425"/><polyline points="0.7389819343641527,0.444912364840425
0.7389819343641527,0.414912364840425"/></g></g><g class="ticktext"><g fill="#0d0d0d" stroke="none" stroke-width="0.0" font-size="4.420164089618176e-2" fill-opacity="1.0" text-anchor="middle"><text x="-0.5870672925213001" y="0.485">0</text><text x="-0.3976316886805211" y="0.485">1</text><text x="-0.2081960848397421" y="0.485">2</text><text x="-1.8760480998963214e-2" y="0.485">3</text><text x="0.17067512284181574" y="0.485">4</text><text x="0.3601107266825946" y="0.485">5</text><text x="0.5495463305233738" y="0.485">6</text><text x="0.7389819343641527" y="0.485">7</text></g></g><g class="ticklines"><g stroke-opacity="5.0e-2" fill="none" stroke="#0d0d0d" stroke-width="5.0e-3"><polyline points="-0.5870672925213001,0.39194878814340184
-0.5870672925213001,-0.4755730253932118"/><polyline points="-0.3976316886805211,0.39194878814340184
-0.3976316886805211,-0.4755730253932118"/><polyline points="-0.2081960848397421,0.39194878814340184
-0.2081960848397421,-0.4755730253932118"/><polyline points="-1.8760480998963214e-2,0.39194878814340184
-1.8760480998963214e-2,-0.4755730253932118"/><polyline points="0.17067512284181574,0.39194878814340184
0.17067512284181574,-0.4755730253932118"/><polyline points="0.3601107266825946,0.39194878814340184
0.3601107266825946,-0.4755730253932118"/><polyline points="0.5495463305233738,0.39194878814340184
0.5495463305233738,-0.4755730253932118"/><polyline points="0.7389819343641527,0.39194878814340184
0.7389819343641527,-0.4755730253932118"/></g></g></g><g class="axisbar"><g stroke-opacity="0.0" fill="#0d0d0d" stroke="#000000" stroke-width="0.0" fill-opacity="0.4"><rect width="1.3295853581571473" x="-0.5888353581571474" y="0.4125619285696927" height="3.4700872541464922e-3"/></g></g></g></g></svg>