<svg width="439.7949673811743" xmlns:xlink="http://www.w3.org/1999/xlink" xmlns="http://www.w3.org/2000/svg" viewBox="-0.7865 -0.5365 1.573 1.073" height="300.0"><style>svg {
  color-scheme: light dark;
}
@media (prefers-color-scheme:dark) {
  svg {
    background-color: #f0f0f0;
  }
}</style><g stroke-opacity="1.0" fill="#a6cfe3" stroke="#1f78b5" stroke-width="3.0e-3" fill-opacity="1.0"><rect width="3.0000000000000027e-2" x="-0.765" y="-1.5e-2" height="3.0e-2"/><rect width="3.0000000000000027e-2" x="-0.715" y="-0.11952846326765364" height="3.0e-2"/><rect width="3.0000000000000027e-2" x="-0.665" y="-0.21948853110729405" height="3.0000000000000027e-2"/><rect width="3.0000000000000027e-2" x="-0.615" y="-0.3105114688927061" height="3.0000000000000027e-2"/><rect width="3.0000000000000027e-2" x="-0.5650000000000001" y="-0.3886191374661522" height="3.0000000000000027e-2"/><rect width="3.0000000000000027e-2" x="-0.515" y="-0.4503978569087953" height="3.0000000000000027e-2"/><rect width="3.0000000000000027e-2" x="-0.46499999999999997" y="-0.4931476007338057" height="3.0000000000000027e-2"/><rect width="3.0000000000000027e-2" x="-0.41500000000000004" y="-0.515" height="3.0000000000000027e-2"/><rect width="3.0000000000000027e-2" x="-0.36499999999999994" y="-0.515" height="3.0000000000000027e-2"/><rect width="3.0000000000000027e-2" x="-0.3150000000000001" y="-0.4931476007338059" height="3.0000000000000027e-2"/><rect width="3.0000000000000027e-2" x="-0.265" y="-0.4503978569087955" height="3.0000000000000027e-2"/><rect width="3.0000000000000027e-2" x="-0.2150000000000002" y="-0.3886191374661524" height="3.0000000000000027e-2"/><rect width="3.0000000000000027e-2" x="-0.16499999999999992" y="-0.3105114688927062" height="3.0000000000000027e-2"/><rect width="3.0e-2" x="-0.11500000000000009" y="-0.21948853110729416" height="3.0000000000000027e-2"/><rect width="3.0e-2" x="-6.500000000000004e-2" y="-0.11952846326765375" height="3.0e-2"/><rect width="3.0e-2" x="-1.5e-2" y="-1.500000000000011e-2" height="3.0e-2"/><rect width="3.0e-2" x="3.5000000000000156e-2" y="8.952846326765325e-2" height="3.0e-2"/><rect width="3.0e-2" x="8.499999999999998e-2" y="0.1894885311072937" height="3.0000000000000027e-2"/><rect width="3.0000000000000027e-2" x="0.1349999999999998" y="0.28051146889270595" height="3.0000000000000027e-2"/><rect width="3.0000000000000027e-2" x="0.18499999999999994" y="0.35861913746615204" height="3.0000000000000027e-2"/><rect width="3.0000000000000027e-2" x="0.235" y="0.42039785690879505" height="3.0000000000000027e-2"/><rect width="3.0000000000000027e-2" x="0.28500000000000003" y="0.46314760073380556" height="3.0000000000000027e-2"/><rect width="3.0000000000000027e-2" x="0.33499999999999963" y="0.4849999999999999" height="3.0000000000000027e-2"/><rect width="3.0000000000000027e-2" x="0.3849999999999999" y="0.485" height="3.0000000000000027e-2"/><rect width="3.0000000000000027e-2" x="0.43500000000000016" y="0.4631476007338056" height="3.0000000000000027e-2"/><rect width="3.0000000000000027e-2" x="0.485" y="0.4203978569087954" height="3.0000000000000027e-2"/><rect width="3.0000000000000027e-2" x="0.5349999999999998" y="0.35861913746615237" height="3.0000000000000027e-2"/><rect width="3.0000000000000027e-2" x="0.5850000000000001" y="0.28051146889270606" height="3.0000000000000027e-2"/><rect width="3.0000000000000027e-2" x="0.6349999999999999" y="0.18948853110729424" height="3.0000000000000027e-2"/><rect width="3.0000000000000027e-2" x="0.6849999999999999" y="8.95284632676537e-2" height="3.0e-2"/><rect width="3.0000000000000027e-2" x="0.735" y="-1.4999999999999888e-2" height="3.0e-2"/></g></svg>