<svg xmlns="http://www.w3.org/2000/svg" xmlns:xlink="http://www.w3.org/1999/xlink" width="449" height="300" viewBox="-0.75 -0.5 1.5000 1.0"><style>svg {
  color-scheme: light dark;
}
{
  .canvas g, .title g, .axisbar g, .ticktext g, .tickglyph g, .ticklines g, .legendContent g text {
    fill: rgb(5%, 5%, 5%);
  }
  .ticklines g, .tickglyph g, .legendBorder g {
    stroke: rgb(5%, 5%, 5%);
  }
  .legendBorder g {
    fill: rgb(94%, 94%, 94%);
  }
}
@media (prefers-color-scheme:dark) {
  .canvas g, .title g, .axisbar g, .ticktext g, .tickglyph g, .ticklines g, .legendContent g text {
    fill: rgb(94%, 94%, 94%);
  }
  .ticklines g, .tickglyph g, .legendBorder g {
    stroke: rgb(94%, 94%, 94%);
  }
  .legendBorder g {
    fill: rgb(5%, 5%, 5%);
  }
}
svg { font-family: system-ui,-apple-system,"Segoe UI",Roboto,"Helvetica Neue",Arial,"Noto Sans","Liberation Sans",sans-serif,"Apple Color Emoji","Segoe UI Emoji","Segoe UI Symbol","Noto Color Emoji";
}

ticktext { font-family: SFMono-Regular,Menlo,Monaco,Consolas,"Liberation Mono","Courier New",monospace;
}

</style><g class="chart"><g class="wave"><g stroke-width="0.0030" stroke="rgb(2%, 29%, 48%)" stroke-opacity="1.0" fill="rgb(2%, 73%, 80%)" fill-opacity="0.2"><rect width="0.0300" height="0.0300" x="-0.5934" y="-0.0593"/><rect width="0.0300" height="0.0300" x="-0.5550" y="-0.1436"/><rect width="0.0300" height="0.0300" x="-0.5166" y="-0.2243"/><rect width="0.0300" height="0.0300" x="-0.4782" y="-0.2977"/><rect width="0.0300" height="0.0300" x="-0.4398" y="-0.3608"/><rect width="0.0300" height="0.0300" x="-0.4014" y="-0.4106"/><rect width="0.0300" height="0.0300" x="-0.3630" y="-0.4451"/><rect width="0.0300" height="0.0300" x="-0.3245" y="-0.4627"/><rect width="0.0300" height="0.0300" x="-0.2861" y="-0.4627"/><rect width="0.0300" height="0.0300" x="-0.2477" y="-0.4451"/><rect width="0.0300" height="0.0300" x="-0.2093" y="-0.4106"/><rect width="0.0300" height="0.0300" x="-0.1709" y="-0.3608"/><rect width="0.0300" height="0.0300" x="-0.1325" y="-0.2977"/><rect width="0.0300" height="0.0300" x="-0.0941" y="-0.2243"/><rect width="0.0300" height="0.0300" x="-0.0557" y="-0.1436"/><rect width="0.0300" height="0.0300" x="-0.0172" y="-0.0593"/><rect width="0.0300" height="0.0300" x="0.0212" y="0.0250"/><rect width="0.0300" height="0.0300" x="0.0596" y="0.1057"/><rect width="0.0300" height="0.0300" x="0.0980" y="0.1792"/><rect width="0.0300" height="0.0300" x="0.1364" y="0.2422"/><rect width="0.0300" height="0.0300" x="0.1748" y="0.2920"/><rect width="0.0300" height="0.0300" x="0.2132" y="0.3265"/><rect width="0.0300" height="0.0300" x="0.2516" y="0.3442"/><rect width="0.0300" height="0.0300" x="0.2900" y="0.3442"/><rect width="0.0300" height="0.0300" x="0.3285" y="0.3265"/><rect width="0.0300" height="0.0300" x="0.3669" y="0.2920"/><rect width="0.0300" height="0.0300" x="0.4053" y="0.2422"/><rect width="0.0300" height="0.0300" x="0.4437" y="0.1792"/><rect width="0.0300" height="0.0300" x="0.4821" y="0.1057"/><rect width="0.0300" height="0.0300" x="0.5205" y="0.0250"/><rect width="0.0300" height="0.0300" x="0.5589" y="-0.0593"/></g></g><g class="datapadding"></g></g><g class="hud"><g class="frame"><g stroke-width="0" stroke="rgb(0%, 0%, 0%)" stroke-opacity="0" fill="rgb(100%, 100%, 100%)" fill-opacity="0.02"><rect width="1.2980" height="0.8340" x="-0.5926" y="-0.4613"/></g></g><g class="axis"><g class="axisbar"><g stroke-width="0" stroke="rgb(0%, 0%, 0%)" stroke-opacity="0" fill="rgb(5%, 5%, 5%)" fill-opacity="0.4"><rect width="0.0034" height="0.8146" x="-0.5904" y="-0.4516"/></g></g><g class="ticks"><g class="ticklines"><g stroke-width="0.0050" stroke="rgb(5%, 5%, 5%)" stroke-opacity="0.05" fill="none"><polyline points="-0.5784,0.3614 0.7054,0.3614"/><polyline points="-0.5784,0.1585 0.7054,0.1585"/><polyline points="-0.5784,-0.0443 0.7054,-0.0443"/><polyline points="-0.5784,-0.2471 0.7054,-0.2471"/><polyline points="-0.5784,-0.4500 0.7054,-0.4500"/></g></g><g class="tickglyph"><g stroke-width="0.0034" stroke="rgb(5%, 5%, 5%)" stroke-opacity="0.4" fill="rgb(5%, 5%, 5%)" fill-opacity="0.4"><polyline points="-0.6145,0.3614
-0.5887,0.3614"/><polyline points="-0.6145,0.1585
-0.5887,0.1585"/><polyline points="-0.6145,-0.0443
-0.5887,-0.0443"/><polyline points="-0.6145,-0.2471
-0.5887,-0.2471"/><polyline points="-0.6145,-0.4500
-0.5887,-0.4500"/></g></g><g class="ticktext"><g stroke-width="0.0" stroke="none" fill="rgb(5%, 5%, 5%)" fill-opacity="1.0" font-size="0.0400" text-anchor="end"><text x="-0.6333" y="0.3704">-1.0</text><text x="-0.6333" y="0.1676">-0.5</text><text x="-0.6333" y="-0.0353"> 0.0</text><text x="-0.6333" y="-0.2381"> 0.5</text><text x="-0.6333" y="-0.4409"> 1.0</text></g></g></g></g><g class="axis"><g class="axisbar"><g stroke-width="0" stroke="rgb(0%, 0%, 0%)" stroke-opacity="0" fill="rgb(5%, 5%, 5%)" fill-opacity="0.4"><rect width="1.2872" height="0.0033" x="-0.5801" y="0.3696"/></g></g><g class="ticks"><g class="ticklines"><g stroke-width="0.0050" stroke="rgb(5%, 5%, 5%)" stroke-opacity="0.05" fill="none"><polyline points="-0.5784,0.3614 -0.5784,-0.4500"/><polyline points="-0.3950,0.3614 -0.3950,-0.4500"/><polyline points="-0.2116,0.3614 -0.2116,-0.4500"/><polyline points="-0.0282,0.3614 -0.0282,-0.4500"/><polyline points="0.1552,0.3614 0.1552,-0.4500"/><polyline points="0.3386,0.3614 0.3386,-0.4500"/><polyline points="0.5220,0.3614 0.5220,-0.4500"/><polyline points="0.7054,0.3614 0.7054,-0.4500"/></g></g><g class="tickglyph"><g stroke-width="0.0033" stroke="rgb(5%, 5%, 5%)" stroke-opacity="0.4" fill="rgb(5%, 5%, 5%)" fill-opacity="0.4"><polyline points="-0.5784,0.3958
-0.5784,0.3712"/><polyline points="-0.3950,0.3958
-0.3950,0.3712"/><polyline points="-0.2116,0.3958
-0.2116,0.3712"/><polyline points="-0.0282,0.3958
-0.0282,0.3712"/><polyline points="0.1552,0.3958
0.1552,0.3712"/><polyline points="0.3386,0.3958
0.3386,0.3712"/><polyline points="0.5220,0.3958
0.5220,0.3712"/><polyline points="0.7054,0.3958
0.7054,0.3712"/></g></g><g class="ticktext"><g stroke-width="0.0" stroke="none" fill="rgb(5%, 5%, 5%)" fill-opacity="1.0" font-size="0.0400" text-anchor="middle"><text x="-0.5784" y="0.4409">0</text><text x="-0.3950" y="0.4409">1</text><text x="-0.2116" y="0.4409">2</text><text x="-0.0282" y="0.4409">3</text><text x="0.1552" y="0.4409">4</text><text x="0.3386" y="0.4409">5</text><text x="0.5220" y="0.4409">6</text><text x="0.7054" y="0.4409">7</text></g></g></g></g><g class="frame"><g stroke-width="0" stroke="rgb(0%, 0%, 0%)" stroke-opacity="0" fill="rgb(0%, 0%, 0%)" fill-opacity="0"><rect width="1.5000" height="1.0" x="-0.75" y="-0.5"/></g></g></g></svg>