<svg xmlns="http://www.w3.org/2000/svg" xmlns:xlink="http://www.w3.org/1999/xlink" width="300.0" height="300.0" viewbox="-1.65e-2 -1.0165 1.033 1.033"><g><g class="chart"><g><g class="cubic"><g stroke-width="1.0e-2" stroke="rgb(0%, 0%, 0%)" stroke-opacity="0.0" fill="rgb(96%, 60%, 92%)" fill-opacity="0.2"><path d="M -0.7335,0.4835 C 0.2768,0.4835 -0.7335,-0.3675 0.2768,-0.3675"/></g><g stroke-width="2.0e-3" stroke="rgb(53%, 51%, 28%)" stroke-opacity="1.0" fill="none"><polyline points="-0.7335,0.48350000000000004
-0.7037922810442679,0.48324640351689035
-0.6752727091940977,0.48249242202683945
-0.6479170365493757,0.48124826746876453
-0.6217010152099887,0.47952415178158264
-0.596600397275823,0.4773302869042111
-0.572590934846765,0.4746768847755669
-0.5496483800227016,0.47157415733456737
-0.5277484849035188,0.4680323165201296
-0.5068670015891032,0.46406157427117084
-0.4869796821793416,0.4596721425266081
-0.4680622787741203,0.4548742332253587
-0.45009054347332583,0.44967805830633967
-0.43304022837684447,0.44409382970846834
-0.416887085584563,0.43813175937066173
-0.4016068671963679,0.4318020592318372
-0.38717532531214544,0.42511494123091165
-0.3735682120317821,0.41808061730680246
-0.3607612794551645,0.4107092993984267
-0.3487302796821793,0.40301119944470154
-0.3374509648127127,0.3949965293845442
-0.32689908694665154,0.3866755011568719
-0.31705039818388203,0.3780583267006016
-0.30788065062429065,0.36915521795465067
-0.29936559636776394,0.3599763868579362
-0.29148098751418844,0.3505320453493753
-0.2842025761634508,0.3408324053678853
-0.27750611441543704,0.3308876788523832
-0.27136735437003406,0.3207080777417862
-0.2657620481271283,0.3103038139750116
-0.26066594778660623,0.29968509949097644
-0.2560548054483543,0.28886214622859796
-0.25190437321225895,0.27784516612679316
-0.24819040317820668,0.2666443711244795
-0.24488864744608413,0.2552699731605738
-0.2419748581157775,0.24373218417399353
-0.23942478728717376,0.2320412161036558
-0.2372141870601589,0.22020728088847757
-0.23531880953461987,0.2082405904673763
-0.23371440681044275,0.19615135677926887
-0.2323767309875142,0.18394979176307263
-0.23128153416572073,0.17164610735770486
-0.23040456844494883,0.1592505155020824
-0.22972158592508507,0.14677322813512272
-0.22920833870601587,0.13422445719574272
-0.22884057888762754,0.12161441462285977
-0.22859405856980708,0.10895331235539096
-0.22844452985244046,9.625136233225362e-2
-0.22836774483541422,8.351877649236472e-2
-0.22833945561861524,7.076576677464141e-2
-0.22833541430192972,5.800254511800096e-2
-0.22833137298524409,4.523932346136056e-2
-0.228303083768445,3.248631374363725e-2
-0.22822629875141887,1.975372790374824e-2
-0.22807677003405225,7.051777880610843e-3
-0.22783024971623156,-5.609324386857961e-3
-0.22746248989784346,-1.82193669597408e-2
-0.22694924267877403,-3.0768137899120584e-2
-0.22626626015891027,-4.324542526608055e-2
-0.2253892944381385,-5.5641017121702885e-2
-0.2242940976163451,-6.794470152707077e-2
-0.22295642179341657,-8.014626654326684e-2
-0.22135201906923951,-9.223550023137439e-2
-0.21945664154370037,-0.10420219065247571
-0.21724604131668557,-0.11603612586765388
-0.21469597048808176,-0.12772709393799175
-0.21178218115777536,-0.13926488292457195
-0.2084804254256527,-0.15063928088847756
-0.20476645539160043,-0.1618400758907914
-0.20061602315550509,-0.17285705599259582
-0.1960048808172533,-0.18368000925497452
-0.190908780476731,-0.1942987237390097
-0.18530347423382532,-0.2047029875057843
-0.1791647141884224,-0.2148825886163812
-0.17246825244040864,-0.22482731513188337
-0.16518984108967094,-0.2345269551133734
-0.15730523223609538,-0.24397129662193429
-0.14879017797956873,-0.25315012771864875
-0.1396204304199773,-0.26205323646459966
-0.12977174165720762,-0.27067041092086996
-0.11921986379114635,-0.2789914391485424
-0.1079405489216797,-0.28700610920869973
-9.590954914869476e-2,-0.2947042091624248
-8.310261657207729e-2,-0.30207552707080054
-6.949550329171417e-2,-0.3091098509949096
-5.506396140749159e-2,-0.3157969689958351
-3.9783743019296436e-2,-0.3221266691346598
-2.363060022701491e-2,-0.3280887394724664
-6.5802851305335475e-3,-0.33367296807033775
1.1391450170261108e-2,-0.3388691429893568
3.030885357548241e-2,-0.34366705229060623
5.019617298524415e-2,-0.34805648403516876
7.107765629965945e-2,-0.35202722628412764
9.297755141884234e-2,-0.3555690670985654
0.11592010624290572,-0.358671794539565
0.1399295686719635,-0.36132519666820917
0.16503018660612934,-0.3635190615455808
0.1912462079455164,-0.3652431772327627
0.2186018805902381,-0.3664873317908375
0.2471214524404084,-0.3672413132808884
0.2768291713961406,-0.3674949097639981"/></g><g stroke-width="3.0e-3" stroke="rgb(2%, 29%, 48%)" stroke-opacity="1.0" fill="rgb(2%, 73%, 80%)" fill-opacity="0.2"><rect width="3.0000000000000027e-2" height="3.0000000000000027e-2" x="-0.7485" y="0.4685"/><rect width="3.0000000000000027e-2" height="3.0000000000000027e-2" x="0.2618291713961406" y="-0.38249490976399814"/></g><g stroke-width="3.0e-3" stroke="rgb(2%, 29%, 48%)" stroke-opacity="1.0" fill="rgb(2%, 73%, 80%)" fill-opacity="0.2"><circle cx="0.2768291713961406" cy="0.48350000000000004" r="1.5e-2"/><circle cx="-0.7335" cy="-0.3674949097639981" r="1.5e-2"/></g><g stroke-width="2.0e-3" stroke="rgb(40%, 40%, 40%)" stroke-opacity="1.0" fill="rgb(2%, 73%, 80%)" fill-opacity="5.0e-2"><rect width="1.0103291713961406" height="0.8509949097639982" x="-0.7335" y="-0.3674949097639981"/></g></g><g></g></g></g><g class="hud"><g><g class="legend"><g class="legendBorder"><g stroke-width="2.5e-3" stroke="rgb(5%, 5%, 5%)" stroke-opacity="1.0" fill="rgb(5%, 5%, 5%)" fill-opacity="0.0"><rect width="0.40817298524404055" height="0.3879118463674226" x="0.33845925085130535" y="-0.2852320684868117"/></g></g><g class="legendContent"><g stroke-width="0.0" stroke="none" fill="rgb(5%, 5%, 5%)" fill-opacity="1.0" font-size="3.3677639046538026e-2" text-anchor="start"><text x="0.3552980703745743" y="6.863998149005096e-2">Bounding Box</text></g><g stroke-width="2.5e-3" stroke="rgb(40%, 40%, 40%)" stroke-opacity="1.0" fill="rgb(2%, 73%, 80%)" fill-opacity="5.0e-2"><rect width="3.367763904653831e-2" height="4.254974548819995e-2" x="0.6617645856980703" y="3.672767237390101e-2"/></g><g stroke-width="0.0" stroke="none" fill="rgb(5%, 5%, 5%)" fill-opacity="1.0" font-size="3.3677639046538026e-2" text-anchor="start"><text x="0.3552980703745743" y="5.603887089311033e-4">Path Control Point</text></g><g stroke-width="3.0e-3" stroke="rgb(2%, 29%, 48%)" stroke-opacity="1.0" fill="rgb(2%, 73%, 80%)" fill-opacity="0.2"><circle cx="0.6786034052213392" cy="-1.0077047663118899e-2" r="2.5e-2"/></g><g stroke-width="0.0" stroke="none" fill="rgb(5%, 5%, 5%)" fill-opacity="1.0" font-size="3.3677639046538026e-2" text-anchor="start"><text x="0.3552980703745743" y="-6.751920407218881e-2">Path Endpoints</text></g><g stroke-width="3.0e-3" stroke="rgb(2%, 29%, 48%)" stroke-opacity="1.0" fill="rgb(2%, 73%, 80%)" fill-opacity="0.2"><rect width="5.0000000000000044e-2" height="4.9999999999999996e-2" x="0.6536034052213392" y="-0.10315664044423875"/></g><g stroke-width="0.0" stroke="none" fill="rgb(5%, 5%, 5%)" fill-opacity="1.0" font-size="3.3677639046538026e-2" text-anchor="start"><text x="0.3552980703745743" y="-0.13559879685330856">Path Chord</text></g><g stroke-width="2.0e-3" stroke="rgb(53%, 51%, 28%)" stroke-opacity="1.0" fill="none"><polyline points="0.6617645856980703,-0.14623623322535861
0.7291198637911465,-0.14623623322535861"/></g><g stroke-width="0.0" stroke="none" fill="rgb(5%, 5%, 5%)" fill-opacity="1.0" font-size="3.3677639046538026e-2" text-anchor="start"><text x="0.3552980703745743" y="-0.20367838963442852">Path Fill</text></g><g stroke-width="5.0e-2" stroke="rgb(0%, 0%, 0%)" stroke-opacity="0.0" fill="rgb(96%, 60%, 92%)" fill-opacity="0.2"><path d="M 0.6618,-0.2001 Q 0.7291,-0.1576 0.6954,-0.2427"/></g></g></g><g></g><g class="title"><g stroke-width="0.0" stroke="none" fill="rgb(5%, 5%, 5%)" fill-opacity="1.0" font-size="5.3884222474460834e-2" text-anchor="middle"><text x="2.6931895573211184e-3" y="-0.43599999999999994">CubicPosition (Point 0 0) (Point 1 1) (Point 1 0) (Point 0 1)</text></g></g><g></g></g></g></g></svg>