<svg xmlns="http://www.w3.org/2000/svg" width="444.5569342690883" xmlns:xlink="http://www.w3.org/1999/xlink" viewBox="-0.25 -489.73 435.64812 489.98012" height="500.0"><style>svg {
  color-scheme: light dark;
}
{
  .canvas g, .title g, .axisbar g, .ticktext g, .tickglyph g, .ticklines g, .legendContent g text {
    fill: #0d0d0d;
  }
  .ticklines g, .tickglyph g, .legendBorder g {
    stroke: #0d0d0d;
  }
  .legendBorder g {
    fill: #f0f0f0;
  }
}
@media (prefers-color-scheme:dark) {
  .canvas g, .title g, .axisbar g, .ticktext g, .tickglyph g, .ticklines g, .legendContent g text {
    fill: #f0f0f0;
  }
  .ticklines g, .tickglyph g, .legendBorder g {
    stroke: #f0f0f0;
  }
  .legendBorder g {
    fill: #0d0d0d;
  }
}</style><g class="chart"><g class="edges"><g fill="rgb(0%, 0%, 0%)" stroke="rgb(-51%, 30%, 37%)" stroke-width="1.0" fill-opacity="0.0" stroke-opacity="1.0"><path d="M 365.08,-231.92 C 369.74,-219.55 376.14,-202.55 380.83,-190.12 L 380.94,-189.83"/></g><g fill="rgb(0%, 0%, 0%)" stroke="rgb(-51%, 30%, 37%)" stroke-width="1.0" fill-opacity="0.0" stroke-opacity="1.0"><path d="M 345.88,-236.43 C 330.22,-222.58 304.18,-199.5500 288.4,-185.6 L 288.03,-185.27"/></g><g fill="rgb(0%, 0%, 0%)" stroke="rgb(-51%, 30%, 37%)" stroke-width="1.0" fill-opacity="0.0" stroke-opacity="1.0"><path d="M 352.92,-231.92 C 348.5200,-220.23 342.56,-204.4 337.96,-192.2100 L 337.85,-191.9200"/></g><g fill="rgb(0%, 0%, 0%)" stroke="rgb(-51%, 30%, 37%)" stroke-width="1.0" fill-opacity="0.0" stroke-opacity="1.0"><path d="M 373.16,-160.86 C 369.07,-157.94 364.48,-154.94 360.0,-152.59 C 314.22,-128.55 255.61,-110.4200 226.73,-102.2400 L 226.39,-102.15"/></g><g fill="rgb(0%, 0%, 0%)" stroke="rgb(-51%, 30%, 37%)" stroke-width="1.0" fill-opacity="0.0" stroke-opacity="1.0"><path d="M 380.92,-155.6200 C 376.26,-143.2600 369.86,-126.2600 365.17,-113.8300 L 365.06,-113.53"/></g><g fill="rgb(0%, 0%, 0%)" stroke="rgb(-51%, 30%, 37%)" stroke-width="1.0" fill-opacity="0.0" stroke-opacity="1.0"><path d="M 393.08,-155.6200 C 397.48,-143.9300 403.44,-128.11 408.04,-115.91 L 408.1500,-115.62"/></g><g fill="rgb(0%, 0%, 0%)" stroke="rgb(-51%, 30%, 37%)" stroke-width="1.0" fill-opacity="0.0" stroke-opacity="1.0"><path d="M 206.93,-114.5800 C 203.7400,-142.49 198.0,-199.54 198.0,-248.04 C 198.0,-326.33 198.0,-326.33 198.0,-326.33 C 198.0,-368.23 190.59,-379.02 174.0,-417.4800 C 168.08,-431.2 158.97,-445.51 151.82,-455.7900 L 151.48,-456.2800"/></g><g fill="rgb(0%, 0%, 0%)" stroke="rgb(-51%, 30%, 37%)" stroke-width="1.0" fill-opacity="0.0" stroke-opacity="1.0"><path d="M 219.82,-81.8180 C 230.38,-68.517 246.3700,-48.382 257.0,-35.004 L 257.25,-34.689"/></g><g fill="rgb(0%, 0%, 0%)" stroke="rgb(-51%, 30%, 37%)" stroke-width="1.0" fill-opacity="0.0" stroke-opacity="1.0"><path d="M 209.7,-78.213 C 210.15,-66.984 210.74,-52.3090 211.21,-40.653 L 211.22,-40.378"/></g><g fill="rgb(0%, 0%, 0%)" stroke="rgb(-51%, 30%, 37%)" stroke-width="1.0" fill-opacity="0.0" stroke-opacity="1.0"><path d="M 198.65,-81.47 C 189.33,-68.875 175.63,-50.3620 165.86,-37.1710 L 165.63,-36.861"/></g><g fill="rgb(0%, 0%, 0%)" stroke="rgb(-51%, 30%, 37%)" stroke-width="1.0" fill-opacity="0.0" stroke-opacity="1.0"><path d="M 194.12,-85.6940 C 177.33,-74.682 149.19,-56.222 125.0,-40.2960 C 121.09,-37.725 116.9000,-34.956 112.94,-32.344 L 112.56,-32.092"/></g><g fill="rgb(0%, 0%, 0%)" stroke="rgb(-51%, 30%, 37%)" stroke-width="1.0" fill-opacity="0.0" stroke-opacity="1.0"><path d="M 157.4200,-463.38 C 188.35,-450.0200 254.93,-421.2500 286.17,-407.76 L 286.53,-407.6"/></g><g fill="rgb(0%, 0%, 0%)" stroke="rgb(-51%, 30%, 37%)" stroke-width="1.0" fill-opacity="0.0" stroke-opacity="1.0"><path d="M 125.6700,-461.7600 C 102.19,-448.4 57.559,-423.0000 33.801,-409.4700 L 33.523,-409.32"/></g><g fill="rgb(0%, 0%, 0%)" stroke="rgb(-51%, 30%, 37%)" stroke-width="1.0" fill-opacity="0.0" stroke-opacity="1.0"><path d="M 136.37,-453.77 C 129.4000,-427.06 117.0000,-373.02 117.0000,-326.33 C 117.0000,-326.33 117.0000,-326.33 117.0000,-248.04 C 117.0000,-201.1400 114.55,-146.06 113.08,-117.2700 L 113.06,-116.9300"/></g><g fill="rgb(0%, 0%, 0%)" stroke="rgb(-51%, 30%, 37%)" stroke-width="1.0" fill-opacity="0.0" stroke-opacity="1.0"><path d="M 296.79,-382.47 C 292.18,-370.61 285.93,-354.5 281.31,-342.58 L 281.2,-342.3000"/></g><g fill="rgb(0%, 0%, 0%)" stroke="rgb(-51%, 30%, 37%)" stroke-width="1.0" fill-opacity="0.0" stroke-opacity="1.0"><path d="M 316.44,-387.21 C 331.91,-374.2300 357.26,-352.96 373.54,-339.3 L 373.92,-338.98"/></g><g fill="rgb(0%, 0%, 0%)" stroke="rgb(-51%, 30%, 37%)" stroke-width="1.0" fill-opacity="0.0" stroke-opacity="1.0"><path d="M 309.21,-382.47 C 313.56,-371.27 319.38,-356.2800 323.91,-344.61 L 324.02,-344.33"/></g><g fill="rgb(0%, 0%, 0%)" stroke="rgb(-51%, 30%, 37%)" stroke-width="1.0" fill-opacity="0.0" stroke-opacity="1.0"><path d="M 288.12,-312.73 C 303.78,-298.8800 329.82,-275.85 345.6,-261.89 L 345.97,-261.56"/></g><g fill="rgb(0%, 0%, 0%)" stroke="rgb(-51%, 30%, 37%)" stroke-width="1.0" fill-opacity="0.0" stroke-opacity="1.0"><path d="M 281.29,-308.21 C 285.95,-296.27 292.3,-280.01 297.1,-267.7100 L 297.21,-267.42"/></g><g fill="rgb(0%, 0%, 0%)" stroke="rgb(-51%, 30%, 37%)" stroke-width="1.0" fill-opacity="0.0" stroke-opacity="1.0"><path d="M 268.71,-308.21 C 264.11,-296.44 257.88,-280.47 253.1,-268.2400 L 252.99,-267.9500"/></g><g fill="rgb(0%, 0%, 0%)" stroke="rgb(-51%, 30%, 37%)" stroke-width="1.0" fill-opacity="0.0" stroke-opacity="1.0"><path d="M 121.5300,-78.586 C 128.3500,-66.5220 137.5,-50.339 144.3500,-38.226 L 144.51,-37.941"/></g><g fill="rgb(0%, 0%, 0%)" stroke="rgb(-51%, 30%, 37%)" stroke-width="1.0" fill-opacity="0.0" stroke-opacity="1.0"><path d="M 107.96,-76.697 C 105.56,-65.522 102.51,-51.375 100.09,-40.155 L 100.04,-39.89"/></g><g fill="rgb(0%, 0%, 0%)" stroke="rgb(-51%, 30%, 37%)" stroke-width="1.0" fill-opacity="0.0" stroke-opacity="1.0"><path d="M 155.27,-40.632 C 157.03,-69.326 160.0,-124.6400 160.0,-171.74 C 160.0,-326.33 160.0,-326.33 160.0,-326.33 C 160.0,-372.6000 150.26,-426.5 144.73,-453.4 L 144.6600,-453.7100"/></g><g fill="rgb(0%, 0%, 0%)" stroke="rgb(-51%, 30%, 37%)" stroke-width="1.0" fill-opacity="0.0" stroke-opacity="1.0"><path d="M 89.524,-39.429 C 80.174,-67.503 64.0,-123.1 64.0,-171.74 C 64.0,-326.33 64.0,-326.33 64.0,-326.33 C 64.0,-380.31 106.53,-433.6800 128.37,-457.52 L 128.63,-457.8000"/></g></g><g class="shapes"><g fill="rgb(2%, 73%, 80%)" stroke="rgb(-51%, 30%, 37%)" stroke-width="0.5" fill-opacity="0.2" stroke-opacity="1.0"><circle cy="-249.04" cx="359.0" r="18.0"/></g><g fill="rgb(2%, 73%, 80%)" stroke="rgb(-51%, 30%, 37%)" stroke-width="0.5" fill-opacity="0.2" stroke-opacity="1.0"><circle cy="-172.74" cx="387.0" r="18.0"/></g><g fill="rgb(2%, 73%, 80%)" stroke="rgb(-51%, 30%, 37%)" stroke-width="0.5" fill-opacity="0.2" stroke-opacity="1.0"><circle cy="-96.445" cx="208.99999999999997" r="18.0"/></g><g fill="rgb(2%, 73%, 80%)" stroke="rgb(-51%, 30%, 37%)" stroke-width="0.5" fill-opacity="0.2" stroke-opacity="1.0"><circle cy="-471.48" cx="141.0" r="18.0"/></g><g fill="rgb(2%, 73%, 80%)" stroke="rgb(-51%, 30%, 37%)" stroke-width="0.5" fill-opacity="0.2" stroke-opacity="1.0"><circle cy="-399.48" cx="303.0" r="18.0"/></g><g fill="rgb(2%, 73%, 80%)" stroke="rgb(-51%, 30%, 37%)" stroke-width="0.5" fill-opacity="0.2" stroke-opacity="1.0"><circle cy="-325.3299999999999" cx="275.0" r="18.0"/></g><g fill="rgb(2%, 73%, 80%)" stroke="rgb(-51%, 30%, 37%)" stroke-width="0.5" fill-opacity="0.2" stroke-opacity="1.0"><circle cy="-172.74" cx="275.0" r="18.0"/></g><g fill="rgb(2%, 73%, 80%)" stroke="rgb(-51%, 30%, 37%)" stroke-width="0.5" fill-opacity="0.2" stroke-opacity="1.0"><circle cy="-96.445" cx="359.0" r="18.0"/></g><g fill="rgb(2%, 73%, 80%)" stroke="rgb(-51%, 30%, 37%)" stroke-width="0.5" fill-opacity="0.2" stroke-opacity="1.0"><circle cy="-20.148" cx="268.0" r="18.0"/></g><g fill="rgb(2%, 73%, 80%)" stroke="rgb(-51%, 30%, 37%)" stroke-width="0.5" fill-opacity="0.2" stroke-opacity="1.0"><circle cy="-399.48" cx="18.0" r="18.0"/></g><g fill="rgb(2%, 73%, 80%)" stroke="rgb(-51%, 30%, 37%)" stroke-width="0.5" fill-opacity="0.2" stroke-opacity="1.0"><circle cy="-325.3299999999999" cx="389.0" r="20.14812"/></g><g fill="rgb(2%, 73%, 80%)" stroke="rgb(-51%, 30%, 37%)" stroke-width="0.5" fill-opacity="0.2" stroke-opacity="1.0"><circle cy="-249.04" cx="304.0" r="19.49832"/></g><g fill="rgb(2%, 73%, 80%)" stroke="rgb(-51%, 30%, 37%)" stroke-width="0.5" fill-opacity="0.2" stroke-opacity="1.0"><circle cy="-172.74" cx="330.99999999999994" r="20.14812"/></g><g fill="rgb(2%, 73%, 80%)" stroke="rgb(-51%, 30%, 37%)" stroke-width="0.5" fill-opacity="0.2" stroke-opacity="1.0"><circle cy="-96.445" cx="415.0" r="20.14812"/></g><g fill="rgb(2%, 73%, 80%)" stroke="rgb(-51%, 30%, 37%)" stroke-width="0.5" fill-opacity="0.2" stroke-opacity="1.0"><circle cy="-20.148" cx="212.0" r="20.14812"/></g><g fill="rgb(2%, 73%, 80%)" stroke="rgb(-51%, 30%, 37%)" stroke-width="0.5" fill-opacity="0.2" stroke-opacity="1.0"><circle cy="-96.445" cx="112.0" r="20.14812"/></g><g fill="rgb(2%, 73%, 80%)" stroke="rgb(-51%, 30%, 37%)" stroke-width="0.5" fill-opacity="0.2" stroke-opacity="1.0"><circle cy="-325.3299999999999" cx="330.99999999999994" r="20.14812"/></g><g fill="rgb(2%, 73%, 80%)" stroke="rgb(-51%, 30%, 37%)" stroke-width="0.5" fill-opacity="0.2" stroke-opacity="1.0"><circle cy="-249.04" cx="246.0" r="20.14812"/></g><g fill="rgb(2%, 73%, 80%)" stroke="rgb(-51%, 30%, 37%)" stroke-width="0.5" fill-opacity="0.2" stroke-opacity="1.0"><circle cy="-20.148" cx="154.0" r="20.14812"/></g><g fill="rgb(2%, 73%, 80%)" stroke="rgb(-51%, 30%, 37%)" stroke-width="0.5" fill-opacity="0.2" stroke-opacity="1.0"><circle cy="-20.148" cx="96.0" r="20.14812"/></g></g><g class="labels"><g fill="rgb(-51%, 30%, 37%)" stroke="none" stroke-width="0.0" font-size="14.0" fill-opacity="1.0" text-anchor="middle"><text x="359.0" y="-245.33999999999997">0</text><text x="387.0" y="-169.04000000000002">1</text><text x="208.99999999999997" y="-92.745">2</text><text x="141.0" y="-467.78000000000003">3</text><text x="303.0" y="-395.78">4</text><text x="275.0" y="-321.63">5</text><text x="275.0" y="-169.04000000000002">6</text><text x="359.0" y="-92.745">7</text><text x="268.0" y="-16.448">8</text><text x="18.0" y="-395.78">9</text><text x="389.0" y="-321.63">10</text><text x="304.0" y="-245.33999999999997">11</text><text x="330.99999999999994" y="-169.04000000000002">12</text><text x="415.0" y="-92.745">13</text><text x="212.0" y="-16.448">14</text><text x="112.0" y="-92.745">15</text><text x="330.99999999999994" y="-321.63">16</text><text x="246.0" y="-245.33999999999997">17</text><text x="154.0" y="-16.448">18</text><text x="96.0" y="-16.448">19</text></g></g></g><g class="hud"></g></svg>