<svg height="300.0" viewbox="-7.5e-3 -5.0075 2.8149999999999995 5.015000000000001" width="168.39481555333992" xmlns="http://www.w3.org/2000/svg" xmlns:xlink="http://www.w3.org/1999/xlink"><g><g class="chart"><g><g class="line"><g fill="none" stroke="rgb(2%, 73%, 80%)" stroke-opacity="1.0" stroke-width="1.5e-2"><polyline points="-0.5962269120913996,0.2226262967974741
-0.16239638210092033,0.2226262967974741
0.271434147889559,-0.47471244925575107"/></g><g fill="none" stroke="rgb(2%, 29%, 48%)" stroke-opacity="1.0" stroke-width="1.5e-2"><polyline points="-0.5962269120913996,0.39696098331078034
0.6184985718819421,-0.12604307622913857"/></g><g fill="none" stroke="rgb(66%, 7%, 55%)" stroke-opacity="1.0" stroke-width="1.5e-2"><polyline points="-0.37931164709615994,-0.30037776274244476
-0.37931164709615994,0.39696098331078034"/></g></g><g/></g></g><g class="hud"><g><g class="frame"><g fill="rgb(100%, 100%, 100%)" fill-opacity="2.0e-2" stroke="rgb(0%, 0%, 0%)" stroke-opacity="0.0" stroke-width="0.0"><rect height="0.8847485340550292" width="1.3079990479212948" x="-0.6027343700412567" y="-0.48124999999999996"/></g></g><g/><g class="axis"><g class="ticks"><g class="tickglyph"><g fill="rgb(5%, 5%, 5%)" fill-opacity="0.4" stroke="rgb(5%, 5%, 5%)" stroke-opacity="0.4" stroke-width="4.0e-3"><polyline points="-0.6287642018406855,0.41196098331078035
-0.6287642018406855,0.3819609833107803"><g transform="rotate(-90.0, -0.6287642018406855, 0.39696098331078034)"/></polyline><polyline points="-0.6287642018406855,0.32479364005412725
-0.6287642018406855,0.2947936400541272"><g transform="rotate(-90.0, -0.6287642018406855, 0.30979364005412724)"/></polyline><polyline points="-0.6287642018406855,0.2376262967974741
-0.6287642018406855,0.20762629679747407"><g transform="rotate(-90.0, -0.6287642018406855, 0.2226262967974741)"/></polyline><polyline points="-0.6287642018406855,0.1504589535408209
-0.6287642018406855,0.12045895354082088"><g transform="rotate(-90.0, -0.6287642018406855, 0.13545895354082088)"/></polyline><polyline points="-0.6287642018406855,6.329161028416773e-2
-0.6287642018406855,3.329161028416773e-2"><g transform="rotate(-90.0, -0.6287642018406855, 4.829161028416773e-2)"/></polyline><polyline points="-0.6287642018406855,-2.3875732972485367e-2
-0.6287642018406855,-5.3875732972485366e-2"><g transform="rotate(-90.0, -0.6287642018406855, -3.8875732972485366e-2)"/></polyline><polyline points="-0.6287642018406855,-0.11104307622913857
-0.6287642018406855,-0.1410430762291386"><g transform="rotate(-90.0, -0.6287642018406855, -0.12604307622913857)"/></polyline><polyline points="-0.6287642018406855,-0.19821041948579177
-0.6287642018406855,-0.2282104194857918"><g transform="rotate(-90.0, -0.6287642018406855, -0.21321041948579178)"/></polyline><polyline points="-0.6287642018406855,-0.28537776274244475
-0.6287642018406855,-0.3153777627424448"><g transform="rotate(-90.0, -0.6287642018406855, -0.30037776274244476)"/></polyline><polyline points="-0.6287642018406855,-0.37254510599909785
-0.6287642018406855,-0.4025451059990979"><g transform="rotate(-90.0, -0.6287642018406855, -0.38754510599909786)"/></polyline><polyline points="-0.6287642018406855,-0.45971244925575105
-0.6287642018406855,-0.4897124492557511"><g transform="rotate(-90.0, -0.6287642018406855, -0.47471244925575107)"/></polyline></g></g><g class="ticktext"><g fill="rgb(5%, 5%, 5%)" fill-opacity="1.0" font-size="4.3383052999047926e-2" stroke="none" stroke-width="0.0" text-anchor="end"><text x="-0.66" y="0.40894649300857017">0.00</text><text x="-0.66" y="0.321779149751917">0.50</text><text x="-0.66" y="0.2346118064952638">1.00</text><text x="-0.66" y="0.14744446323861077">1.50</text><text x="-0.66" y="6.027711998195756e-2">2.00</text><text x="-0.66" y="-2.689022327469548e-2">2.50</text><text x="-0.66" y="-0.11405756653134869">3.00</text><text x="-0.66" y="-0.2012249097880019">3.50</text><text x="-0.66" y="-0.2883922530446551">4.00</text><text x="-0.66" y="-0.3755595963013081">4.50</text><text x="-0.66" y="-0.4627269395579613">5.00</text></g></g><g class="ticklines"><g fill="none" stroke="rgb(5%, 5%, 5%)" stroke-opacity="5.0e-2" stroke-width="5.0e-3"><polyline points="-0.5962269120913996,-0.47471244925575107
0.7052646778800381,-0.47471244925575107"/></g></g></g><g class="axisbar"><g fill="rgb(5%, 5%, 5%)" fill-opacity="0.4" stroke="rgb(0%, 0%, 0%)" stroke-opacity="0.0" stroke-width="0.0"><rect height="0.8751601262967976" width="3.4706442399238258e-3" x="-0.6148816248809902" y="-0.4764557961208842"/></g></g></g><g><g class="axis"><g class="ticks"><g class="tickglyph"><g fill="rgb(5%, 5%, 5%)" fill-opacity="0.4" stroke="rgb(5%, 5%, 5%)" stroke-opacity="0.4" stroke-width="4.0e-3"><polyline points="-0.5962269120913996,0.44464873703202523
-0.5962269120913996,0.4146487370320252"/><polyline points="-0.37931164709615994,0.44464873703202523
-0.37931164709615994,0.4146487370320252"/><polyline points="-0.16239638210092033,0.44464873703202523
-0.16239638210092033,0.4146487370320252"/><polyline points="5.4518882894319276e-2,0.44464873703202523
5.4518882894319276e-2,0.4146487370320252"/><polyline points="0.271434147889559,0.44464873703202523
0.271434147889559,0.4146487370320252"/><polyline points="0.4883494128847986,0.44464873703202523
0.4883494128847986,0.4146487370320252"/><polyline points="0.7052646778800381,0.44464873703202523
0.7052646778800381,0.4146487370320252"/></g></g><g class="ticktext"><g fill="rgb(5%, 5%, 5%)" fill-opacity="1.0" font-size="4.3383052999047926e-2" stroke="none" stroke-width="0.0" text-anchor="middle"><text x="-0.5962269120913996" y="0.485">0.00</text><text x="-0.37931164709615994" y="0.485">0.50</text><text x="-0.16239638210092033" y="0.485">1.00</text><text x="5.4518882894319276e-2" y="0.485">1.50</text><text x="0.271434147889559" y="0.485">2.00</text><text x="0.4883494128847986" y="0.485">2.50</text><text x="0.7052646778800381" y="0.485">3.00</text></g></g><g class="ticklines"><g fill="none" stroke="rgb(5%, 5%, 5%)" stroke-opacity="5.0e-2" stroke-width="5.0e-3"><polyline points="0.7052646778800381,0.39696098331078034
0.7052646778800381,-0.47471244925575107"/></g></g></g><g class="axisbar"><g fill="rgb(5%, 5%, 5%)" fill-opacity="0.4" stroke="rgb(0%, 0%, 0%)" stroke-opacity="0.0" stroke-width="0.0"><rect height="3.4866937302661105e-3" width="1.3049622342113616" x="-0.5979622342113615" y="0.4122152683806946"/></g></g></g><g/></g></g></g></g></svg>